<?xml version="1.0" encoding="UTF-8" standalone="no"?>
<svg
   style="fill-opacity:1; color-rendering:auto; color-interpolation:auto; stroke:black; text-rendering:auto; stroke-linecap:square; stroke-miterlimit:10; stroke-opacity:1; shape-rendering:auto; fill:black; stroke-dasharray:none; font-weight:normal; stroke-width:1; font-family:'Dialog'; font-style:normal; stroke-linejoin:miter; font-size:12; stroke-dashoffset:0; image-rendering:auto;"
   width="686"
   height="553"
   version="1.1"
   id="svg476"
   xmlns="http://www.w3.org/2000/svg"
   xmlns:svg="http://www.w3.org/2000/svg">
  <!--Generated by the Batik Graphics2D SVG Generator-->
  <defs
     id="genericDefs" />
  <g
     id="g474">
    <defs
       id="defs1">
      <clipPath
         clipPathUnits="userSpaceOnUse"
         id="clipPath1">
        <path
           d="M0 0 L701 0 L701 568 L0 568 L0 0 Z"
           id="path3" />
      </clipPath>
      <clipPath
         clipPathUnits="userSpaceOnUse"
         id="clipPath2">
        <path
           d="M0 0 L0 200 L200 200 L200 0 Z"
           id="path6" />
      </clipPath>
      <clipPath
         clipPathUnits="userSpaceOnUse"
         id="clipPath3">
        <path
           d="M146 15 L146 36 L157 36 L157 15 Z"
           id="path9" />
      </clipPath>
      <clipPath
         clipPathUnits="userSpaceOnUse"
         id="clipPath4">
        <path
           d="M145.4551 2.918 L156.5449 2.918 L156.5449 18.2305 L145.4551 18.2305 L145.4551 2.918 Z"
           id="path12" />
      </clipPath>
      <clipPath
         clipPathUnits="userSpaceOnUse"
         id="clipPath5">
        <path
           d="M168.3484 129.8034 L168.3484 141.7422 L280.8111 141.7422 L280.8111 129.8034 Z"
           id="path15" />
      </clipPath>
      <clipPath
         clipPathUnits="userSpaceOnUse"
         id="clipPath6">
        <path
           d="M231.5215 98.4752 L231.5215 136.6744 L242.9216 136.6744 L242.9216 98.4752 Z"
           id="path18" />
      </clipPath>
      <clipPath
         clipPathUnits="userSpaceOnUse"
         id="clipPath7">
        <path
           d="M413.4002 340.1683 L413.4002 351.5688 L462.8432 351.5688 L462.8432 340.1683 Z"
           id="path21" />
      </clipPath>
      <clipPath
         clipPathUnits="userSpaceOnUse"
         id="clipPath8">
        <path
           d="M314.3417 31.4879 L314.3417 129.7039 L326.2804 129.7039 L326.2804 31.4879 Z"
           id="path24" />
      </clipPath>
      <clipPath
         clipPathUnits="userSpaceOnUse"
         id="clipPath9">
        <path
           d="M452.3417 469.0567 L452.3417 493.4879 L593.2163 493.4879 L593.2163 469.0567 Z"
           id="path27" />
      </clipPath>
      <clipPath
         clipPathUnits="userSpaceOnUse"
         id="clipPath10">
        <path
           d="M362.5623 184.4352 L362.5623 195.8367 L402.8766 195.8367 L402.8766 184.4352 Z"
           id="path30" />
      </clipPath>
      <clipPath
         clipPathUnits="userSpaceOnUse"
         id="clipPath11">
        <path
           d="M451.8111 259.0185 L451.8111 270.9572 L523.2422 270.9572 L523.2422 259.0185 Z"
           id="path33" />
      </clipPath>
      <clipPath
         clipPathUnits="userSpaceOnUse"
         id="clipPath12">
        <path
           d="M359.08 129.8034 L359.08 141.7422 L441.2422 141.7422 L441.2422 129.8034 Z"
           id="path36" />
      </clipPath>
      <clipPath
         clipPathUnits="userSpaceOnUse"
         id="clipPath13">
        <path
           d="M537.0101 492.0815 L537.0101 519.2975 L548.4104 519.2975 L548.4104 492.0815 Z"
           id="path39" />
      </clipPath>
      <clipPath
         clipPathUnits="userSpaceOnUse"
         id="clipPath14">
        <path
           d="M147.5497 406.9007 L147.5497 433.8883 L158.9497 433.8883 L158.9497 406.9007 Z"
           id="path42" />
      </clipPath>
      <clipPath
         clipPathUnits="userSpaceOnUse"
         id="clipPath15">
        <path
           d="M68.3417 432.4879 L68.3417 456.9189 L199.8111 456.9189 L199.8111 432.4879 Z"
           id="path45" />
      </clipPath>
      <clipPath
         clipPathUnits="userSpaceOnUse"
         id="clipPath16">
        <path
           d="M397.7136 274.3904 L397.7136 456.8233 L442.0523 456.8233 L442.0523 274.3904 Z"
           id="path48" />
      </clipPath>
      <clipPath
         clipPathUnits="userSpaceOnUse"
         id="clipPath17">
        <path
           d="M215.1168 274.4073 L215.1168 456.8569 L251.8916 456.8569 L251.8916 274.4073 Z"
           id="path51" />
      </clipPath>
      <clipPath
         clipPathUnits="userSpaceOnUse"
         id="clipPath18">
        <path
           d="M457.8111 432.4879 L457.8111 456.9189 L598.6857 456.9189 L598.6857 432.4879 Z"
           id="path54" />
      </clipPath>
      <clipPath
         clipPathUnits="userSpaceOnUse"
         id="clipPath19">
        <path
           d="M502.7149 406.8727 L502.7149 433.9003 L514.1154 433.9003 L514.1154 406.8727 Z"
           id="path57" />
      </clipPath>
      <clipPath
         clipPathUnits="userSpaceOnUse"
         id="clipPath20">
        <path
           d="M148.2036 492.0505 L148.2036 519.3307 L159.6048 519.3307 L159.6048 492.0505 Z"
           id="path60" />
      </clipPath>
      <clipPath
         clipPathUnits="userSpaceOnUse"
         id="clipPath21">
        <path
           d="M249.7019 145.1119 L249.7019 258.5745 L300.9719 258.5745 L300.9719 145.1119 Z"
           id="path63" />
      </clipPath>
      <clipPath
         clipPathUnits="userSpaceOnUse"
         id="clipPath22">
        <path
           d="M73.8111 469.0567 L73.8111 493.4879 L205.2804 493.4879 L205.2804 469.0567 Z"
           id="path66" />
      </clipPath>
      <clipPath
         clipPathUnits="userSpaceOnUse"
         id="clipPath23">
        <path
           d="M202.7678 340.0529 L202.7678 351.4536 L239.4311 351.4536 L239.4311 340.0529 Z"
           id="path69" />
      </clipPath>
      <clipPath
         clipPathUnits="userSpaceOnUse"
         id="clipPath24">
        <path
           d="M319.4093 63.9314 L319.4093 75.3315 L375.8244 75.3315 L375.8244 63.9314 Z"
           id="path72" />
      </clipPath>
      <clipPath
         clipPathUnits="userSpaceOnUse"
         id="clipPath25">
        <path
           d="M173.8111 184.4879 L173.8111 205.4879 L254.8111 205.4879 L254.8111 184.4879 Z"
           id="path75" />
      </clipPath>
      <clipPath
         clipPathUnits="userSpaceOnUse"
         id="clipPath26">
        <path
           d="M36.7795 125.2728 L36.7795 146.2728 L172.7795 146.2728 L172.7795 125.2728 Z"
           id="path78" />
      </clipPath>
      <clipPath
         clipPathUnits="userSpaceOnUse"
         id="clipPath27">
        <path
           d="M210.8111 254.4879 L210.8111 275.4879 L291.8111 275.4879 L291.8111 254.4879 Z"
           id="path81" />
      </clipPath>
      <clipPath
         clipPathUnits="userSpaceOnUse"
         id="clipPath28">
        <path
           d="M122.8111 332.4879 L122.8111 353.4879 L203.8111 353.4879 L203.8111 332.4879 Z"
           id="path84" />
      </clipPath>
      <clipPath
         clipPathUnits="userSpaceOnUse"
         id="clipPath29">
        <path
           d="M178.8111 452.4879 L178.8111 473.4879 L259.8111 473.4879 L259.8111 452.4879 Z"
           id="path87" />
      </clipPath>
      <clipPath
         clipPathUnits="userSpaceOnUse"
         id="clipPath30">
        <path
           d="M279.8111 125.2728 L279.8111 146.2728 L360.8111 146.2728 L360.8111 125.2728 Z"
           id="path90" />
      </clipPath>
      <clipPath
         clipPathUnits="userSpaceOnUse"
         id="clipPath31">
        <path
           d="M13.8111 452.4879 L13.8111 473.4879 L94.8111 473.4879 L94.8111 452.4879 Z"
           id="path93" />
      </clipPath>
      <clipPath
         clipPathUnits="userSpaceOnUse"
         id="clipPath32">
        <path
           d="M374.8111 60.4879 L374.8111 81.4878 L455.8111 81.4878 L455.8111 60.4879 Z"
           id="path96" />
      </clipPath>
      <clipPath
         clipPathUnits="userSpaceOnUse"
         id="clipPath33">
        <path
           d="M482.2412 386.907 L482.2412 407.907 L537.5595 407.907 L537.5595 386.907 Z"
           id="path99" />
      </clipPath>
      <clipPath
         clipPathUnits="userSpaceOnUse"
         id="clipPath34">
        <path
           d="M518.811 254.4879 L518.811 275.4879 L634.811 275.4879 L634.811 254.4879 Z"
           id="path102" />
      </clipPath>
      <clipPath
         clipPathUnits="userSpaceOnUse"
         id="clipPath35">
        <path
           d="M401.8111 184.4879 L401.8111 205.4879 L561.5 205.4879 L561.5 184.4879 Z"
           id="path105" />
      </clipPath>
      <clipPath
         clipPathUnits="userSpaceOnUse"
         id="clipPath36">
        <path
           d="M565.811 452.4879 L565.811 473.4879 L672.4319 473.4879 L672.4319 452.4879 Z"
           id="path108" />
      </clipPath>
      <clipPath
         clipPathUnits="userSpaceOnUse"
         id="clipPath37">
        <path
           d="M343.8111 254.4879 L343.8111 275.4879 L452.8111 275.4879 L452.8111 254.4879 Z"
           id="path111" />
      </clipPath>
      <clipPath
         clipPathUnits="userSpaceOnUse"
         id="clipPath38">
        <path
           d="M174.5425 78.4878 L174.5425 99.4878 L301.5425 99.4878 L301.5425 78.4878 Z"
           id="path114" />
      </clipPath>
      <clipPath
         clipPathUnits="userSpaceOnUse"
         id="clipPath39">
        <path
           d="M397.8111 452.4879 L397.8111 473.4879 L478.8111 473.4879 L478.8111 452.4879 Z"
           id="path117" />
      </clipPath>
      <clipPath
         clipPathUnits="userSpaceOnUse"
         id="clipPath40">
        <path
           d="M461.8111 328.4879 L461.8111 357.4879 L556.811 357.4879 L556.811 328.4879 Z"
           id="path120" />
      </clipPath>
      <clipPath
         clipPathUnits="userSpaceOnUse"
         id="clipPath41">
        <path
           d="M513.4733 518.2728 L513.4733 539.2728 L569.811 539.2728 L569.811 518.2728 Z"
           id="path123" />
      </clipPath>
      <clipPath
         clipPathUnits="userSpaceOnUse"
         id="clipPath42">
        <path
           d="M279.8111 11.4878 L279.8111 32.4879 L360.8111 32.4879 L360.8111 11.4878 Z"
           id="path126" />
      </clipPath>
      <clipPath
         clipPathUnits="userSpaceOnUse"
         id="clipPath43">
        <path
           d="M436.8111 125.2728 L436.8111 146.2728 L517.811 146.2728 L517.811 125.2728 Z"
           id="path129" />
      </clipPath>
      <clipPath
         clipPathUnits="userSpaceOnUse"
         id="clipPath44">
        <path
           d="M134.3724 518.2728 L134.3724 539.2728 L178.6713 539.2728 L178.6713 518.2728 Z"
           id="path132" />
      </clipPath>
      <clipPath
         clipPathUnits="userSpaceOnUse"
         id="clipPath45">
        <path
           d="M339.6349 145.0967 L339.6349 258.4597 L400.1548 258.4597 L400.1548 145.0967 Z"
           id="path135" />
      </clipPath>
      <clipPath
         clipPathUnits="userSpaceOnUse"
         id="clipPath46">
        <path
           d="M125.867 386.907 L125.867 407.907 L180.1015 407.907 L180.1015 386.907 Z"
           id="path138" />
      </clipPath>
    </defs>
    <g
       style="fill:white; stroke:white;"
       id="g144">
      <rect
         x="0"
         width="701"
         height="568"
         y="0"
         style="stroke:none;"
         id="rect142" />
    </g>
    <g
       style="font-weight:bold; font-size:10; text-rendering:geometricPrecision;"
       id="g154">
      <path
         d="M0.0469 4.7031 L6.7656 4.7031 L6.7656 6.125 L4.3438 6.125 L4.3438 12 L2.4688 12 L2.4688 6.125 L0.0469 6.125 L0.0469 4.7031 ZM7.665 6.5312 L9.415 6.5312 L9.415 12 L7.665 12 L7.665 6.5312 ZM7.665 4.4062 L9.415 4.4062 L9.415 5.8281 L7.665 5.8281 L7.665 4.4062 ZM12.999 4.9844 L12.999 6.5312 L14.7959 6.5312 L14.7959 7.7812 L12.999 7.7812 L12.999 10.0938 Q12.999 10.4844 13.1475 10.6172 Q13.2959 10.75 13.749 10.75 L14.6553 10.75 L14.6553 12 L13.1553 12 Q12.1084 12 11.6787 11.5703 Q11.249 11.1406 11.249 10.0938 L11.249 7.7812 L10.374 7.7812 L10.374 6.5312 L11.249 6.5312 L11.249 4.9844 L12.999 4.9844 ZM15.873 4.4062 L17.623 4.4062 L17.623 12 L15.873 12 L15.873 4.4062 ZM24.7539 9.25 L24.7539 9.75 L20.6758 9.75 Q20.7383 10.3594 21.1133 10.6719 Q21.4883 10.9844 22.1758 10.9844 Q22.7227 10.9844 23.3086 10.8203 Q23.8945 10.6562 24.5039 10.3125 L24.5039 11.6719 Q23.8789 11.9062 23.2617 12.0234 Q22.6445 12.1406 22.0195 12.1406 Q20.5352 12.1406 19.7148 11.3828 Q18.8945 10.625 18.8945 9.2656 Q18.8945 7.9375 19.6992 7.1719 Q20.5039 6.4062 21.9258 6.4062 Q23.207 6.4062 23.9805 7.1797 Q24.7539 7.9531 24.7539 9.25 ZM22.957 8.6719 Q22.957 8.1719 22.668 7.8672 Q22.3789 7.5625 21.9102 7.5625 Q21.3945 7.5625 21.082 7.8438 Q20.7695 8.125 20.6914 8.6719 L22.957 8.6719 ZM26.3643 6.5312 L28.1143 6.5312 L28.1143 8.4219 L26.3643 8.4219 L26.3643 6.5312 ZM26.3643 10.1094 L28.1143 10.1094 L28.1143 12 L26.3643 12 L26.3643 10.1094 Z"
         style="clip-path:url(#clipPath2); stroke:none;"
         clip-path="url(#clipPath2)"
         id="path146" />
      <path
         d="M39.9688 8.5156 L39.9688 11.1875 L41.5469 11.1875 Q42.3438 11.1875 42.7266 10.8594 Q43.1094 10.5312 43.1094 9.8438 Q43.1094 9.1719 42.7266 8.8438 Q42.3438 8.5156 41.5469 8.5156 L39.9688 8.5156 ZM39.9688 5.5156 L39.9688 7.7188 L41.4219 7.7188 Q42.1562 7.7188 42.5078 7.4453 Q42.8594 7.1719 42.8594 6.625 Q42.8594 6.0625 42.5078 5.7891 Q42.1562 5.5156 41.4219 5.5156 L39.9688 5.5156 ZM38.9844 4.7031 L41.5 4.7031 Q42.625 4.7031 43.2344 5.1719 Q43.8438 5.6406 43.8438 6.5156 Q43.8438 7.1875 43.5312 7.5781 Q43.2188 7.9688 42.625 8.0625 Q43.3438 8.2188 43.75 8.7188 Q44.1562 9.2188 44.1562 9.9531 Q44.1562 10.9375 43.4922 11.4688 Q42.8281 12 41.5938 12 L38.9844 12 L38.9844 4.7031 ZM50.4854 9.0469 L50.4854 9.4844 L46.3447 9.4844 Q46.4072 10.4062 46.9072 10.8906 Q47.4072 11.375 48.2979 11.375 Q48.8135 11.375 49.3057 11.25 Q49.7979 11.125 50.2666 10.875 L50.2666 11.7188 Q49.7822 11.9219 49.2744 12.0312 Q48.7666 12.1406 48.251 12.1406 Q46.9385 12.1406 46.1729 11.3828 Q45.4072 10.625 45.4072 9.3125 Q45.4072 7.9688 46.1338 7.1875 Q46.8604 6.4062 48.0947 6.4062 Q49.2041 6.4062 49.8447 7.1094 Q50.4854 7.8125 50.4854 9.0469 ZM49.5791 8.7812 Q49.5791 8.0469 49.1729 7.6016 Q48.7666 7.1562 48.1104 7.1562 Q47.3447 7.1562 46.8994 7.5859 Q46.4541 8.0156 46.376 8.7812 L49.5791 8.7812 ZM56.4971 8.7031 L56.4971 12 L55.6064 12 L55.6064 8.7344 Q55.6064 7.9531 55.3018 7.5703 Q54.9971 7.1875 54.3877 7.1875 Q53.6689 7.1875 53.2471 7.6484 Q52.8252 8.1094 52.8252 8.9062 L52.8252 12 L51.9189 12 L51.9189 6.5312 L52.8252 6.5312 L52.8252 7.375 Q53.1533 6.8906 53.5908 6.6484 Q54.0283 6.4062 54.5908 6.4062 Q55.5283 6.4062 56.0127 6.9844 Q56.4971 7.5625 56.4971 8.7031 ZM57.8975 6.5312 L62.1631 6.5312 L62.1631 7.3438 L58.7881 11.2812 L62.1631 11.2812 L62.1631 12 L57.7881 12 L57.7881 11.1719 L61.1631 7.25 L57.8975 7.25 L57.8975 6.5312 ZM68.2246 9.0469 L68.2246 9.4844 L64.084 9.4844 Q64.1465 10.4062 64.6465 10.8906 Q65.1465 11.375 66.0371 11.375 Q66.5527 11.375 67.0449 11.25 Q67.5371 11.125 68.0059 10.875 L68.0059 11.7188 Q67.5215 11.9219 67.0137 12.0312 Q66.5059 12.1406 65.9902 12.1406 Q64.6777 12.1406 63.9121 11.3828 Q63.1465 10.625 63.1465 9.3125 Q63.1465 7.9688 63.873 7.1875 Q64.5996 6.4062 65.834 6.4062 Q66.9434 6.4062 67.584 7.1094 Q68.2246 7.8125 68.2246 9.0469 ZM67.3184 8.7812 Q67.3184 8.0469 66.9121 7.6016 Q66.5059 7.1562 65.8496 7.1562 Q65.084 7.1562 64.6387 7.5859 Q64.1934 8.0156 64.1152 8.7812 L67.3184 8.7812 ZM74.2363 8.7031 L74.2363 12 L73.3457 12 L73.3457 8.7344 Q73.3457 7.9531 73.041 7.5703 Q72.7363 7.1875 72.127 7.1875 Q71.4082 7.1875 70.9863 7.6484 Q70.5645 8.1094 70.5645 8.9062 L70.5645 12 L69.6582 12 L69.6582 6.5312 L70.5645 6.5312 L70.5645 7.375 Q70.8926 6.8906 71.3301 6.6484 Q71.7676 6.4062 72.3301 6.4062 Q73.2676 6.4062 73.752 6.9844 Q74.2363 7.5625 74.2363 8.7031 ZM80.7148 9.0469 L80.7148 9.4844 L76.5742 9.4844 Q76.6367 10.4062 77.1367 10.8906 Q77.6367 11.375 78.5273 11.375 Q79.043 11.375 79.5352 11.25 Q80.0273 11.125 80.4961 10.875 L80.4961 11.7188 Q80.0117 11.9219 79.5039 12.0312 Q78.9961 12.1406 78.4805 12.1406 Q77.168 12.1406 76.4023 11.3828 Q75.6367 10.625 75.6367 9.3125 Q75.6367 7.9688 76.3633 7.1875 Q77.0898 6.4062 78.3242 6.4062 Q79.4336 6.4062 80.0742 7.1094 Q80.7148 7.8125 80.7148 9.0469 ZM79.8086 8.7812 Q79.8086 8.0469 79.4023 7.6016 Q78.9961 7.1562 78.3398 7.1562 Q77.5742 7.1562 77.1289 7.5859 Q76.6836 8.0156 76.6055 8.7812 L79.8086 8.7812 ZM89.624 7.5781 Q89.9521 6.9688 90.4209 6.6875 Q90.8896 6.4062 91.5303 6.4062 Q92.3896 6.4062 92.8506 7 Q93.3115 7.5938 93.3115 8.7031 L93.3115 12 L92.4053 12 L92.4053 8.7344 Q92.4053 7.9375 92.1318 7.5625 Q91.8584 7.1875 91.2803 7.1875 Q90.5771 7.1875 90.1787 7.6484 Q89.7803 8.1094 89.7803 8.9062 L89.7803 12 L88.874 12 L88.874 8.7344 Q88.874 7.9375 88.5928 7.5625 Q88.3115 7.1875 87.7334 7.1875 Q87.0459 7.1875 86.6396 7.6484 Q86.2334 8.1094 86.2334 8.9062 L86.2334 12 L85.3271 12 L85.3271 6.5312 L86.2334 6.5312 L86.2334 7.375 Q86.5459 6.875 86.9756 6.6406 Q87.4053 6.4062 87.9834 6.4062 Q88.5928 6.4062 89.0068 6.7031 Q89.4209 7 89.624 7.5781 ZM99.7871 9.0469 L99.7871 9.4844 L95.6465 9.4844 Q95.709 10.4062 96.209 10.8906 Q96.709 11.375 97.5996 11.375 Q98.1152 11.375 98.6074 11.25 Q99.0996 11.125 99.5684 10.875 L99.5684 11.7188 Q99.084 11.9219 98.5762 12.0312 Q98.0684 12.1406 97.5527 12.1406 Q96.2402 12.1406 95.4746 11.3828 Q94.709 10.625 94.709 9.3125 Q94.709 7.9688 95.4355 7.1875 Q96.1621 6.4062 97.3965 6.4062 Q98.5059 6.4062 99.1465 7.1094 Q99.7871 7.8125 99.7871 9.0469 ZM98.8809 8.7812 Q98.8809 8.0469 98.4746 7.6016 Q98.0684 7.1562 97.4121 7.1562 Q96.6465 7.1562 96.2012 7.5859 Q95.7559 8.0156 95.6777 8.7812 L98.8809 8.7812 ZM102.1426 4.9844 L102.1426 6.5312 L104.002 6.5312 L104.002 7.2344 L102.1426 7.2344 L102.1426 10.2031 Q102.1426 10.8594 102.3301 11.0547 Q102.5176 11.25 103.0801 11.25 L104.002 11.25 L104.002 12 L103.0801 12 Q102.0332 12 101.6348 11.6094 Q101.2363 11.2188 101.2363 10.2031 L101.2363 7.2344 L100.5801 7.2344 L100.5801 6.5312 L101.2363 6.5312 L101.2363 4.9844 L102.1426 4.9844 ZM107.6572 9.25 Q106.5791 9.25 106.1572 9.5 Q105.7354 9.75 105.7354 10.3438 Q105.7354 10.8281 106.0479 11.1094 Q106.3604 11.3906 106.9072 11.3906 Q107.6572 11.3906 108.1104 10.8594 Q108.5635 10.3281 108.5635 9.4531 L108.5635 9.25 L107.6572 9.25 ZM109.4541 8.875 L109.4541 12 L108.5635 12 L108.5635 11.1719 Q108.251 11.6719 107.79 11.9062 Q107.3291 12.1406 106.6729 12.1406 Q105.8291 12.1406 105.3291 11.6719 Q104.8291 11.2031 104.8291 10.4062 Q104.8291 9.4844 105.4541 9.0156 Q106.0791 8.5469 107.2979 8.5469 L108.5635 8.5469 L108.5635 8.4531 Q108.5635 7.8438 108.1494 7.5 Q107.7354 7.1562 107.001 7.1562 Q106.5322 7.1562 106.0869 7.2734 Q105.6416 7.3906 105.2354 7.6094 L105.2354 6.7812 Q105.7354 6.5938 106.1963 6.5 Q106.6572 6.4062 107.0947 6.4062 Q108.2822 6.4062 108.8682 7.0156 Q109.4541 7.625 109.4541 8.875 ZM115.2383 9.2656 Q115.2383 8.2812 114.8242 7.7188 Q114.4102 7.1562 113.707 7.1562 Q112.9883 7.1562 112.582 7.7188 Q112.1758 8.2812 112.1758 9.2656 Q112.1758 10.2656 112.582 10.8281 Q112.9883 11.3906 113.707 11.3906 Q114.4102 11.3906 114.8242 10.8281 Q115.2383 10.2656 115.2383 9.2656 ZM112.1758 7.3594 Q112.457 6.875 112.8867 6.6406 Q113.3164 6.4062 113.9258 6.4062 Q114.9258 6.4062 115.543 7.1953 Q116.1602 7.9844 116.1602 9.2656 Q116.1602 10.5625 115.543 11.3516 Q114.9258 12.1406 113.9258 12.1406 Q113.3164 12.1406 112.8867 11.9062 Q112.457 11.6719 112.1758 11.1719 L112.1758 12 L111.2695 12 L111.2695 4.4062 L112.1758 4.4062 L112.1758 7.3594 ZM119.7734 7.1562 Q119.0547 7.1562 118.6328 7.7188 Q118.2109 8.2812 118.2109 9.2656 Q118.2109 10.25 118.625 10.8125 Q119.0391 11.375 119.7734 11.375 Q120.4922 11.375 120.9141 10.8125 Q121.3359 10.25 121.3359 9.2656 Q121.3359 8.2969 120.9141 7.7266 Q120.4922 7.1562 119.7734 7.1562 ZM119.7734 6.4062 Q120.9453 6.4062 121.6172 7.1641 Q122.2891 7.9219 122.2891 9.2656 Q122.2891 10.6094 121.6172 11.375 Q120.9453 12.1406 119.7734 12.1406 Q118.6016 12.1406 117.9297 11.375 Q117.2578 10.6094 117.2578 9.2656 Q117.2578 7.9219 117.9297 7.1641 Q118.6016 6.4062 119.7734 6.4062 ZM123.7666 4.4062 L124.6729 4.4062 L124.6729 12 L123.7666 12 L123.7666 4.4062 ZM126.5449 6.5312 L127.4512 6.5312 L127.4512 12 L126.5449 12 L126.5449 6.5312 ZM126.5449 4.4062 L127.4512 4.4062 L127.4512 5.5469 L126.5449 5.5469 L126.5449 4.4062 ZM132.8076 6.6875 L132.8076 7.5469 Q132.4326 7.3438 132.0264 7.25 Q131.6201 7.1562 131.167 7.1562 Q130.5107 7.1562 130.1748 7.3594 Q129.8389 7.5625 129.8389 7.9688 Q129.8389 8.2812 130.0732 8.4609 Q130.3076 8.6406 131.042 8.7969 L131.3389 8.875 Q132.3076 9.0781 132.7061 9.4531 Q133.1045 9.8281 133.1045 10.4844 Q133.1045 11.25 132.5029 11.6953 Q131.9014 12.1406 130.8545 12.1406 Q130.4014 12.1406 129.9248 12.0547 Q129.4482 11.9688 128.9326 11.7969 L128.9326 10.875 Q129.4326 11.125 129.9092 11.2578 Q130.3857 11.3906 130.8701 11.3906 Q131.4951 11.3906 131.8389 11.1719 Q132.1826 10.9531 132.1826 10.5625 Q132.1826 10.1875 131.9404 9.9922 Q131.6982 9.7969 130.8545 9.625 L130.542 9.5469 Q129.7139 9.375 129.3389 9.0078 Q128.9639 8.6406 128.9639 8.0156 Q128.9639 7.2344 129.5107 6.8203 Q130.0576 6.4062 131.0732 6.4062 Q131.5576 6.4062 132.0029 6.4766 Q132.4482 6.5469 132.8076 6.6875 ZM138.7988 7.5781 Q139.127 6.9688 139.5957 6.6875 Q140.0645 6.4062 140.7051 6.4062 Q141.5645 6.4062 142.0254 7 Q142.4863 7.5938 142.4863 8.7031 L142.4863 12 L141.5801 12 L141.5801 8.7344 Q141.5801 7.9375 141.3066 7.5625 Q141.0332 7.1875 140.4551 7.1875 Q139.752 7.1875 139.3535 7.6484 Q138.9551 8.1094 138.9551 8.9062 L138.9551 12 L138.0488 12 L138.0488 8.7344 Q138.0488 7.9375 137.7676 7.5625 Q137.4863 7.1875 136.9082 7.1875 Q136.2207 7.1875 135.8145 7.6484 Q135.4082 8.1094 135.4082 8.9062 L135.4082 12 L134.502 12 L134.502 6.5312 L135.4082 6.5312 L135.4082 7.375 Q135.7207 6.875 136.1504 6.6406 Q136.5801 6.4062 137.1582 6.4062 Q137.7676 6.4062 138.1816 6.7031 Q138.5957 7 138.7988 7.5781 Z"
         style="clip-path:url(#clipPath2); stroke:none;"
         clip-path="url(#clipPath2)"
         id="path148" />
      <path
         d="M4.25 19.9375 Q3.3906 19.9375 2.9141 20.5703 Q2.4375 21.2031 2.4375 22.3594 Q2.4375 23.5156 2.9141 24.1484 Q3.3906 24.7812 4.25 24.7812 Q5.1094 24.7812 5.5859 24.1484 Q6.0625 23.5156 6.0625 22.3594 Q6.0625 21.2031 5.5859 20.5703 Q5.1094 19.9375 4.25 19.9375 ZM4.25 18.5781 Q6 18.5781 7 19.5859 Q8 20.5938 8 22.3594 Q8 24.125 7 25.1328 Q6 26.1406 4.25 26.1406 Q2.5 26.1406 1.5 25.1328 Q0.5 24.125 0.5 22.3594 Q0.5 20.5938 1.5 19.5859 Q2.5 18.5781 4.25 18.5781 ZM13.4072 22.0156 Q13.1729 21.9062 12.9463 21.8594 Q12.7197 21.8125 12.4854 21.8125 Q11.8135 21.8125 11.4541 22.2422 Q11.0947 22.6719 11.0947 23.4844 L11.0947 26 L9.3447 26 L9.3447 20.5312 L11.0947 20.5312 L11.0947 21.4219 Q11.4229 20.8906 11.8604 20.6484 Q12.2979 20.4062 12.9072 20.4062 Q13.001 20.4062 13.1025 20.4062 Q13.2041 20.4062 13.3916 20.4375 L13.4072 22.0156 ZM17.9951 25.0781 Q17.6357 25.5469 17.1982 25.7734 Q16.7607 26 16.1982 26 Q15.1982 26 14.542 25.2109 Q13.8857 24.4219 13.8857 23.2031 Q13.8857 21.9688 14.542 21.1875 Q15.1982 20.4062 16.1982 20.4062 Q16.7607 20.4062 17.1982 20.6328 Q17.6357 20.8594 17.9951 21.3438 L17.9951 20.5312 L19.7451 20.5312 L19.7451 25.4531 Q19.7451 26.7656 18.917 27.4609 Q18.0889 28.1562 16.5107 28.1562 Q15.9951 28.1562 15.5186 28.0781 Q15.042 28 14.5576 27.8438 L14.5576 26.4844 Q15.0107 26.75 15.4482 26.875 Q15.8857 27 16.3389 27 Q17.1982 27 17.5967 26.625 Q17.9951 26.25 17.9951 25.4531 L17.9951 25.0781 ZM16.8389 21.6719 Q16.292 21.6719 15.9951 22.0703 Q15.6982 22.4688 15.6982 23.2031 Q15.6982 23.9531 15.9873 24.3438 Q16.2764 24.7344 16.8389 24.7344 Q17.3857 24.7344 17.6904 24.3281 Q17.9951 23.9219 17.9951 23.2031 Q17.9951 22.4688 17.6904 22.0703 Q17.3857 21.6719 16.8389 21.6719 ZM23.8877 23.5312 Q23.3408 23.5312 23.0596 23.7188 Q22.7783 23.9062 22.7783 24.2656 Q22.7783 24.6094 23.0049 24.7969 Q23.2314 24.9844 23.6221 24.9844 Q24.1221 24.9844 24.458 24.625 Q24.7939 24.2656 24.7939 23.7344 L24.7939 23.5312 L23.8877 23.5312 ZM26.5596 22.875 L26.5596 26 L24.7939 26 L24.7939 25.1875 Q24.4346 25.6875 23.9971 25.9141 Q23.5596 26.1406 22.9346 26.1406 Q22.0752 26.1406 21.5518 25.6484 Q21.0283 25.1562 21.0283 24.3594 Q21.0283 23.3906 21.6846 22.9453 Q22.3408 22.5 23.7627 22.5 L24.7939 22.5 L24.7939 22.3594 Q24.7939 21.9531 24.4658 21.7578 Q24.1377 21.5625 23.4502 21.5625 Q22.8877 21.5625 22.4033 21.6719 Q21.9189 21.7812 21.4971 22.0156 L21.4971 20.6719 Q22.0596 20.5469 22.6299 20.4766 Q23.2002 20.4062 23.7627 20.4062 Q25.2471 20.4062 25.9033 20.9844 Q26.5596 21.5625 26.5596 22.875 ZM33.6826 22.6719 L33.6826 26 L31.917 26 L31.917 25.4531 L31.917 23.4531 Q31.917 22.75 31.8857 22.4766 Q31.8545 22.2031 31.7764 22.0781 Q31.6826 21.9062 31.5029 21.8125 Q31.3232 21.7188 31.1045 21.7188 Q30.5576 21.7188 30.2451 22.1406 Q29.9326 22.5625 29.9326 23.3125 L29.9326 26 L28.1826 26 L28.1826 20.5312 L29.9326 20.5312 L29.9326 21.3281 Q30.3232 20.8594 30.7686 20.6328 Q31.2139 20.4062 31.7451 20.4062 Q32.6982 20.4062 33.1904 20.9844 Q33.6826 21.5625 33.6826 22.6719 ZM35.3018 20.5312 L37.0518 20.5312 L37.0518 26 L35.3018 26 L35.3018 20.5312 ZM35.3018 18.4062 L37.0518 18.4062 L37.0518 19.8281 L35.3018 19.8281 L35.3018 18.4062 ZM42.9951 20.7031 L42.9951 22.0312 Q42.4326 21.7969 41.9092 21.6797 Q41.3857 21.5625 40.9326 21.5625 Q40.4326 21.5625 40.1904 21.6875 Q39.9482 21.8125 39.9482 22.0625 Q39.9482 22.2812 40.1279 22.3906 Q40.3076 22.5 40.792 22.5625 L41.0889 22.5938 Q42.4326 22.7656 42.9014 23.1562 Q43.3701 23.5469 43.3701 24.3906 Q43.3701 25.2656 42.7217 25.7031 Q42.0732 26.1406 40.792 26.1406 Q40.2607 26.1406 39.6826 26.0547 Q39.1045 25.9688 38.4795 25.7969 L38.4795 24.4688 Q39.0107 24.7188 39.5576 24.8516 Q40.1045 24.9844 40.667 24.9844 Q41.1826 24.9844 41.4404 24.8438 Q41.6982 24.7031 41.6982 24.4219 Q41.6982 24.1875 41.5264 24.0703 Q41.3545 23.9531 40.8232 23.8906 L40.5107 23.8438 Q39.3389 23.7031 38.8701 23.3047 Q38.4014 22.9062 38.4014 22.1094 Q38.4014 21.2344 38.9951 20.8203 Q39.5889 20.4062 40.8232 20.4062 Q41.3076 20.4062 41.8389 20.4766 Q42.3701 20.5469 42.9951 20.7031 ZM49.7441 21.4375 Q50.0723 20.9375 50.5332 20.6719 Q50.9941 20.4062 51.541 20.4062 Q52.4785 20.4062 52.9707 20.9844 Q53.4629 21.5625 53.4629 22.6719 L53.4629 26 L51.7129 26 L51.7129 23.1406 Q51.7129 23.0781 51.7129 23.0156 Q51.7129 22.9531 51.7129 22.8281 Q51.7129 22.2344 51.5488 21.9766 Q51.3848 21.7188 50.9941 21.7188 Q50.4941 21.7188 50.2285 22.125 Q49.9629 22.5312 49.9473 23.3125 L49.9473 26 L48.1816 26 L48.1816 23.1406 Q48.1816 22.2344 48.0254 21.9766 Q47.8691 21.7188 47.4785 21.7188 Q46.9785 21.7188 46.7051 22.1328 Q46.4316 22.5469 46.4316 23.3125 L46.4316 26 L44.666 26 L44.666 20.5312 L46.4316 20.5312 L46.4316 21.3281 Q46.7441 20.875 47.166 20.6406 Q47.5879 20.4062 48.0879 20.4062 Q48.6504 20.4062 49.0879 20.6797 Q49.5254 20.9531 49.7441 21.4375 ZM55.3828 20.5312 L57.1328 20.5312 L57.1328 22.4219 L55.3828 22.4219 L55.3828 20.5312 ZM55.3828 24.1094 L57.1328 24.1094 L57.1328 26 L55.3828 26 L55.3828 24.1094 Z"
         style="clip-path:url(#clipPath2); stroke:none;"
         clip-path="url(#clipPath2)"
         id="path150" />
      <path
         d="M66.9844 18.7031 L67.9688 18.7031 L67.9688 21.7031 L71.5469 21.7031 L71.5469 18.7031 L72.5312 18.7031 L72.5312 26 L71.5469 26 L71.5469 22.5312 L67.9688 22.5312 L67.9688 26 L66.9844 26 L66.9844 18.7031 ZM76.582 21.1562 Q75.8633 21.1562 75.4414 21.7188 Q75.0195 22.2812 75.0195 23.2656 Q75.0195 24.25 75.4336 24.8125 Q75.8477 25.375 76.582 25.375 Q77.3008 25.375 77.7227 24.8125 Q78.1445 24.25 78.1445 23.2656 Q78.1445 22.2969 77.7227 21.7266 Q77.3008 21.1562 76.582 21.1562 ZM76.582 20.4062 Q77.7539 20.4062 78.4258 21.1641 Q79.0977 21.9219 79.0977 23.2656 Q79.0977 24.6094 78.4258 25.375 Q77.7539 26.1406 76.582 26.1406 Q75.4102 26.1406 74.7383 25.375 Q74.0664 24.6094 74.0664 23.2656 Q74.0664 21.9219 74.7383 21.1641 Q75.4102 20.4062 76.582 20.4062 ZM84.8408 21.5781 Q85.1689 20.9688 85.6377 20.6875 Q86.1064 20.4062 86.7471 20.4062 Q87.6064 20.4062 88.0674 21 Q88.5283 21.5938 88.5283 22.7031 L88.5283 26 L87.6221 26 L87.6221 22.7344 Q87.6221 21.9375 87.3486 21.5625 Q87.0752 21.1875 86.4971 21.1875 Q85.7939 21.1875 85.3955 21.6484 Q84.9971 22.1094 84.9971 22.9062 L84.9971 26 L84.0908 26 L84.0908 22.7344 Q84.0908 21.9375 83.8096 21.5625 Q83.5283 21.1875 82.9502 21.1875 Q82.2627 21.1875 81.8564 21.6484 Q81.4502 22.1094 81.4502 22.9062 L81.4502 26 L80.5439 26 L80.5439 20.5312 L81.4502 20.5312 L81.4502 21.375 Q81.7627 20.875 82.1924 20.6406 Q82.6221 20.4062 83.2002 20.4062 Q83.8096 20.4062 84.2236 20.7031 Q84.6377 21 84.8408 21.5781 ZM92.4414 21.1562 Q91.7227 21.1562 91.3008 21.7188 Q90.8789 22.2812 90.8789 23.2656 Q90.8789 24.25 91.293 24.8125 Q91.707 25.375 92.4414 25.375 Q93.1602 25.375 93.582 24.8125 Q94.0039 24.25 94.0039 23.2656 Q94.0039 22.2969 93.582 21.7266 Q93.1602 21.1562 92.4414 21.1562 ZM92.4414 20.4062 Q93.6133 20.4062 94.2852 21.1641 Q94.957 21.9219 94.957 23.2656 Q94.957 24.6094 94.2852 25.375 Q93.6133 26.1406 92.4414 26.1406 Q91.2695 26.1406 90.5977 25.375 Q89.9258 24.6094 89.9258 23.2656 Q89.9258 21.9219 90.5977 21.1641 Q91.2695 20.4062 92.4414 20.4062 ZM103.0977 20.6875 L103.0977 21.5469 Q102.7227 21.3438 102.3164 21.25 Q101.9102 21.1562 101.457 21.1562 Q100.8008 21.1562 100.4648 21.3594 Q100.1289 21.5625 100.1289 21.9688 Q100.1289 22.2812 100.3633 22.4609 Q100.5977 22.6406 101.332 22.7969 L101.6289 22.875 Q102.5977 23.0781 102.9961 23.4531 Q103.3945 23.8281 103.3945 24.4844 Q103.3945 25.25 102.793 25.6953 Q102.1914 26.1406 101.1445 26.1406 Q100.6914 26.1406 100.2148 26.0547 Q99.7383 25.9688 99.2227 25.7969 L99.2227 24.875 Q99.7227 25.125 100.1992 25.2578 Q100.6758 25.3906 101.1602 25.3906 Q101.7852 25.3906 102.1289 25.1719 Q102.4727 24.9531 102.4727 24.5625 Q102.4727 24.1875 102.2305 23.9922 Q101.9883 23.7969 101.1445 23.625 L100.832 23.5469 Q100.0039 23.375 99.6289 23.0078 Q99.2539 22.6406 99.2539 22.0156 Q99.2539 21.2344 99.8008 20.8203 Q100.3477 20.4062 101.3633 20.4062 Q101.8477 20.4062 102.293 20.4766 Q102.7383 20.5469 103.0977 20.6875 ZM107.3076 23.25 Q106.2295 23.25 105.8076 23.5 Q105.3857 23.75 105.3857 24.3438 Q105.3857 24.8281 105.6982 25.1094 Q106.0107 25.3906 106.5576 25.3906 Q107.3076 25.3906 107.7607 24.8594 Q108.2139 24.3281 108.2139 23.4531 L108.2139 23.25 L107.3076 23.25 ZM109.1045 22.875 L109.1045 26 L108.2139 26 L108.2139 25.1719 Q107.9014 25.6719 107.4404 25.9062 Q106.9795 26.1406 106.3232 26.1406 Q105.4795 26.1406 104.9795 25.6719 Q104.4795 25.2031 104.4795 24.4062 Q104.4795 23.4844 105.1045 23.0156 Q105.7295 22.5469 106.9482 22.5469 L108.2139 22.5469 L108.2139 22.4531 Q108.2139 21.8438 107.7998 21.5 Q107.3857 21.1562 106.6514 21.1562 Q106.1826 21.1562 105.7373 21.2734 Q105.292 21.3906 104.8857 21.6094 L104.8857 20.7812 Q105.3857 20.5938 105.8467 20.5 Q106.3076 20.4062 106.7451 20.4062 Q107.9326 20.4062 108.5186 21.0156 Q109.1045 21.625 109.1045 22.875 ZM111.8262 25.1719 L111.8262 28.0781 L110.9199 28.0781 L110.9199 20.5312 L111.8262 20.5312 L111.8262 21.3594 Q112.1074 20.875 112.5371 20.6406 Q112.9668 20.4062 113.5762 20.4062 Q114.5762 20.4062 115.1934 21.1953 Q115.8105 21.9844 115.8105 23.2656 Q115.8105 24.5625 115.1934 25.3516 Q114.5762 26.1406 113.5762 26.1406 Q112.9668 26.1406 112.5371 25.9062 Q112.1074 25.6719 111.8262 25.1719 ZM114.8887 23.2656 Q114.8887 22.2812 114.4746 21.7188 Q114.0605 21.1562 113.3574 21.1562 Q112.6387 21.1562 112.2324 21.7188 Q111.8262 22.2812 111.8262 23.2656 Q111.8262 24.2656 112.2324 24.8281 Q112.6387 25.3906 113.3574 25.3906 Q114.0605 25.3906 114.4746 24.8281 Q114.8887 24.2656 114.8887 23.2656 ZM117.2988 20.5312 L118.2051 20.5312 L118.2051 26 L117.2988 26 L117.2988 20.5312 ZM117.2988 18.4062 L118.2051 18.4062 L118.2051 19.5469 L117.2988 19.5469 L117.2988 18.4062 ZM124.7646 23.0469 L124.7646 23.4844 L120.624 23.4844 Q120.6865 24.4062 121.1865 24.8906 Q121.6865 25.375 122.5771 25.375 Q123.0928 25.375 123.585 25.25 Q124.0771 25.125 124.5459 24.875 L124.5459 25.7188 Q124.0615 25.9219 123.5537 26.0312 Q123.0459 26.1406 122.5303 26.1406 Q121.2178 26.1406 120.4521 25.3828 Q119.6865 24.625 119.6865 23.3125 Q119.6865 21.9688 120.4131 21.1875 Q121.1396 20.4062 122.374 20.4062 Q123.4834 20.4062 124.124 21.1094 Q124.7646 21.8125 124.7646 23.0469 ZM123.8584 22.7812 Q123.8584 22.0469 123.4521 21.6016 Q123.0459 21.1562 122.3896 21.1562 Q121.624 21.1562 121.1787 21.5859 Q120.7334 22.0156 120.6553 22.7812 L123.8584 22.7812 ZM130.7764 22.7031 L130.7764 26 L129.8857 26 L129.8857 22.7344 Q129.8857 21.9531 129.5811 21.5703 Q129.2764 21.1875 128.667 21.1875 Q127.9482 21.1875 127.5264 21.6484 Q127.1045 22.1094 127.1045 22.9062 L127.1045 26 L126.1982 26 L126.1982 20.5312 L127.1045 20.5312 L127.1045 21.375 Q127.4326 20.8906 127.8701 20.6484 Q128.3076 20.4062 128.8701 20.4062 Q129.8076 20.4062 130.292 20.9844 Q130.7764 21.5625 130.7764 22.7031 ZM136.0518 20.6875 L136.0518 21.5469 Q135.6768 21.3438 135.2705 21.25 Q134.8643 21.1562 134.4111 21.1562 Q133.7549 21.1562 133.4189 21.3594 Q133.083 21.5625 133.083 21.9688 Q133.083 22.2812 133.3174 22.4609 Q133.5518 22.6406 134.2861 22.7969 L134.583 22.875 Q135.5518 23.0781 135.9502 23.4531 Q136.3486 23.8281 136.3486 24.4844 Q136.3486 25.25 135.7471 25.6953 Q135.1455 26.1406 134.0986 26.1406 Q133.6455 26.1406 133.1689 26.0547 Q132.6924 25.9688 132.1768 25.7969 L132.1768 24.875 Q132.6768 25.125 133.1533 25.2578 Q133.6299 25.3906 134.1143 25.3906 Q134.7393 25.3906 135.083 25.1719 Q135.4268 24.9531 135.4268 24.5625 Q135.4268 24.1875 135.1846 23.9922 Q134.9424 23.7969 134.0986 23.625 L133.7861 23.5469 Q132.958 23.375 132.583 23.0078 Q132.208 22.6406 132.208 22.0156 Q132.208 21.2344 132.7549 20.8203 Q133.3018 20.4062 134.3174 20.4062 Q134.8018 20.4062 135.2471 20.4766 Q135.6924 20.5469 136.0518 20.6875 Z"
         style="clip-path:url(#clipPath2); stroke:none;"
         clip-path="url(#clipPath2)"
         id="path152" />
    </g>
    <g
       style="fill:navy; text-rendering:geometricPrecision; font-size:8; stroke:navy;"
       id="g158">
      <text
         x="148"
         xml:space="preserve"
         y="15"
         style="clip-path:url(#clipPath4); stroke:none;"
         clip-path="url(#clipPath4)"
         id="text156">1</text>
    </g>
    <g
       style="text-rendering:geometricPrecision;"
       id="g164">
      <path
         d="M280.3111 135.7728 L181.2795 135.7728"
         style="fill:none; clip-path:url(#clipPath5);"
         clip-path="url(#clipPath5)"
         id="path160" />
      <path
         d="M181.2795 140.9728 L169.5795 135.7728 L181.2795 130.5728 Z"
         style="clip-path:url(#clipPath5); stroke:none;"
         clip-path="url(#clipPath5)"
         id="path162" />
    </g>
    <g
       style="text-rendering:geometricPrecision;"
       id="g172">
      <path
         d="M238.0425 98.9878 L237.355 125.7761"
         style="fill:none; clip-path:url(#clipPath6);"
         clip-path="url(#clipPath6)"
         id="path166" />
      <path
         d="M237.0882 136.1727 C234.2172 136.099 231.9496 133.7119 232.0233 130.8409 C232.097 127.97 234.4841 125.7024 237.355 125.7761 C240.2259 125.8498 242.4935 128.2368 242.4199 131.1078 C242.3462 133.9787 239.9591 136.2463 237.0882 136.1727 Z"
         style="fill:white; clip-path:url(#clipPath6); stroke:none;"
         clip-path="url(#clipPath6)"
         id="path168" />
      <path
         d="M237.0882 136.1727 C234.2172 136.099 231.9496 133.7119 232.0233 130.8409 C232.097 127.97 234.4841 125.7024 237.355 125.7761 C240.2259 125.8498 242.4935 128.2368 242.4199 131.1078 C242.3462 133.9787 239.9591 136.2463 237.0882 136.1727 Z"
         style="fill:none; clip-path:url(#clipPath6);"
         clip-path="url(#clipPath6)"
         id="path170" />
    </g>
    <g
       style="text-rendering:geometricPrecision;"
       id="g180">
      <path
         d="M462.3111 342.9879 L424.2889 345.5226"
         style="fill:none; clip-path:url(#clipPath7);"
         clip-path="url(#clipPath7)"
         id="path174" />
      <path
         d="M413.912 346.2144 C413.7209 343.3489 415.889 340.8711 418.7545 340.6801 C421.6201 340.489 424.0979 342.6571 424.2889 345.5226 C424.4799 348.3882 422.3119 350.866 419.4463 351.057 C416.5808 351.2481 414.103 349.08 413.912 346.2144 Z"
         style="fill:white; clip-path:url(#clipPath7); stroke:none;"
         clip-path="url(#clipPath7)"
         id="path176" />
      <path
         d="M413.912 346.2144 C413.7209 343.3489 415.889 340.8711 418.7545 340.6801 C421.6201 340.489 424.0979 342.6571 424.2889 345.5226 C424.4799 348.3882 422.3119 350.866 419.4463 351.057 C416.5808 351.2481 414.103 349.08 413.912 346.2144 Z"
         style="fill:none; clip-path:url(#clipPath7);"
         clip-path="url(#clipPath7)"
         id="path178" />
    </g>
    <g
       style="text-rendering:geometricPrecision;"
       id="g186">
      <path
         d="M320.3111 31.9879 L320.3111 116.7728"
         style="fill:none; clip-path:url(#clipPath8);"
         clip-path="url(#clipPath8)"
         id="path182" />
      <path
         d="M325.511 116.7728 L320.3111 128.4728 L315.1111 116.7728 Z"
         style="clip-path:url(#clipPath8); stroke:none;"
         clip-path="url(#clipPath8)"
         id="path184" />
    </g>
    <g
       style="text-rendering:geometricPrecision;"
       id="g192">
      <path
         d="M592.7163 472.9879 L592.7163 492.9879 M592.7163 492.9879 L458.3111 492.9879 M458.3111 492.9879 L458.3111 481.9879"
         style="fill:none; clip-path:url(#clipPath9);"
         clip-path="url(#clipPath9)"
         id="path188" />
      <path
         d="M453.1111 481.9879 L458.3111 470.2878 L463.511 481.9879 Z"
         style="clip-path:url(#clipPath9); stroke:none;"
         clip-path="url(#clipPath9)"
         id="path190" />
    </g>
    <g
       style="text-rendering:geometricPrecision;"
       id="g200">
      <path
         d="M402.3111 194.9879 L373.411 190.8696"
         style="fill:none; clip-path:url(#clipPath10);"
         clip-path="url(#clipPath10)"
         id="path194" />
      <path
         d="M363.1151 189.4024 C363.5202 186.5592 366.1535 184.5828 368.9966 184.988 C371.8398 185.3931 373.8162 188.0264 373.411 190.8696 C373.0059 193.7127 370.3726 195.6891 367.5294 195.284 C364.6863 194.8788 362.7099 192.2455 363.1151 189.4024 Z"
         style="fill:white; clip-path:url(#clipPath10); stroke:none;"
         clip-path="url(#clipPath10)"
         id="path196" />
      <path
         d="M363.1151 189.4024 C363.5202 186.5592 366.1535 184.5828 368.9966 184.988 C371.8398 185.3931 373.8162 188.0264 373.411 190.8696 C373.0059 193.7127 370.3726 195.6891 367.5294 195.284 C364.6863 194.8788 362.7099 192.2455 363.1151 189.4024 Z"
         style="fill:none; clip-path:url(#clipPath10);"
         clip-path="url(#clipPath10)"
         id="path198" />
    </g>
    <g
       style="text-rendering:geometricPrecision;"
       id="g206">
      <path
         d="M452.3111 264.9879 L510.3111 264.9879"
         style="fill:none; clip-path:url(#clipPath11);"
         clip-path="url(#clipPath11)"
         id="path202" />
      <path
         d="M510.3111 259.7878 L522.011 264.9879 L510.3111 270.1878 Z"
         style="clip-path:url(#clipPath11); stroke:none;"
         clip-path="url(#clipPath11)"
         id="path204" />
    </g>
    <g
       style="text-rendering:geometricPrecision;"
       id="g214">
      <path
         d="M360.3111 135.7728 L428.3111 135.7728"
         style="fill:none; clip-path:url(#clipPath12);"
         clip-path="url(#clipPath12)"
         id="path208" />
      <path
         d="M428.3111 130.5728 L440.011 135.7728 L428.3111 140.9728 Z"
         style="clip-path:url(#clipPath12); stroke:none;"
         clip-path="url(#clipPath12)"
         id="path210" />
      <path
         d="M360.3111 135.7728 L372.011 140.9728 L372.011 130.5728 Z"
         style="clip-path:url(#clipPath12); fill-rule:evenodd; stroke:none;"
         clip-path="url(#clipPath12)"
         id="path212" />
    </g>
    <g
       style="text-rendering:geometricPrecision;"
       id="g222">
      <path
         d="M541.6422 518.7728 L542.446 502.9749"
         style="fill:none; clip-path:url(#clipPath13);"
         clip-path="url(#clipPath13)"
         id="path216" />
      <path
         d="M542.9745 492.5884 C545.8427 492.7343 548.0495 495.1777 547.9036 498.0459 C547.7576 500.9141 545.3142 503.1209 542.446 502.9749 C539.5778 502.829 537.371 500.3856 537.517 497.5174 C537.6629 494.6492 540.1063 492.4424 542.9745 492.5884 Z"
         style="fill:white; clip-path:url(#clipPath13); stroke:none;"
         clip-path="url(#clipPath13)"
         id="path218" />
      <path
         d="M542.9745 492.5884 C545.8427 492.7343 548.0495 495.1777 547.9036 498.0459 C547.7576 500.9141 545.3142 503.1209 542.446 502.9749 C539.5778 502.829 537.371 500.3856 537.517 497.5174 C537.6629 494.6492 540.1063 492.4424 542.9745 492.5884 Z"
         style="fill:none; clip-path:url(#clipPath13);"
         clip-path="url(#clipPath13)"
         id="path220" />
    </g>
    <g
       style="text-rendering:geometricPrecision;"
       id="g230">
      <path
         d="M152.9842 407.407 L153.1833 422.9887"
         style="fill:none; clip-path:url(#clipPath14);"
         clip-path="url(#clipPath14)"
         id="path224" />
      <path
         d="M153.3162 433.3878 C150.4445 433.4245 148.0869 431.1263 148.0502 428.2547 C148.0135 425.383 150.3116 423.0254 153.1833 422.9887 C156.0549 422.952 158.4126 425.2502 158.4493 428.1218 C158.486 430.9934 156.1878 433.3511 153.3162 433.3878 Z"
         style="fill:white; clip-path:url(#clipPath14); stroke:none;"
         clip-path="url(#clipPath14)"
         id="path226" />
      <path
         d="M153.3162 433.3878 C150.4445 433.4245 148.0869 431.1263 148.0502 428.2547 C148.0135 425.383 150.3116 423.0254 153.1833 422.9887 C156.0549 422.952 158.4126 425.2502 158.4493 428.1218 C158.486 430.9934 156.1878 433.3511 153.3162 433.3878 Z"
         style="fill:none; clip-path:url(#clipPath14);"
         clip-path="url(#clipPath14)"
         id="path228" />
    </g>
    <g
       style="text-rendering:geometricPrecision;"
       id="g236">
      <path
         d="M199.3111 452.9879 L199.3111 432.9879 M199.3111 432.9879 L74.3111 432.9879 M74.3111 432.9879 L74.3111 443.9879"
         style="fill:none; clip-path:url(#clipPath15);"
         clip-path="url(#clipPath15)"
         id="path232" />
      <path
         d="M79.5111 443.9879 L74.3111 455.6878 L69.1111 443.9879 Z"
         style="clip-path:url(#clipPath15); stroke:none;"
         clip-path="url(#clipPath15)"
         id="path234" />
    </g>
    <g
       style="text-rendering:geometricPrecision;"
       id="g242">
      <path
         d="M398.3111 274.9879 L436.3378 444.2068"
         style="fill:none; clip-path:url(#clipPath16);"
         clip-path="url(#clipPath16)"
         id="path238" />
      <path
         d="M441.4113 443.0667 L438.903 455.6222 L431.2643 445.347 Z"
         style="clip-path:url(#clipPath16); stroke:none;"
         clip-path="url(#clipPath16)"
         id="path240" />
    </g>
    <g
       style="text-rendering:geometricPrecision;"
       id="g248">
      <path
         d="M251.3111 274.9879 L220.9035 444.1299"
         style="fill:none; clip-path:url(#clipPath17);"
         clip-path="url(#clipPath17)"
         id="path244" />
      <path
         d="M226.0215 445.0499 L218.8333 455.6452 L215.7856 443.2098 Z"
         style="clip-path:url(#clipPath17); stroke:none;"
         clip-path="url(#clipPath17)"
         id="path246" />
    </g>
    <g
       style="text-rendering:geometricPrecision;"
       id="g254">
      <path
         d="M458.3111 452.9879 L458.3111 432.9879 M458.3111 432.9879 L592.7163 432.9879 M592.7163 432.9879 L592.7163 443.9879"
         style="fill:none; clip-path:url(#clipPath18);"
         clip-path="url(#clipPath18)"
         id="path250" />
      <path
         d="M597.9163 443.9879 L592.7163 455.6878 L587.5163 443.9879 Z"
         style="clip-path:url(#clipPath18); stroke:none;"
         clip-path="url(#clipPath18)"
         id="path252" />
    </g>
    <g
       style="text-rendering:geometricPrecision;"
       id="g262">
      <path
         d="M509.9004 407.407 L508.7856 423.0133"
         style="fill:none; clip-path:url(#clipPath19);"
         clip-path="url(#clipPath19)"
         id="path256" />
      <path
         d="M508.0446 433.3868 C505.1801 433.1822 503.0237 430.6942 503.2284 427.8296 C503.433 424.965 505.9211 422.8087 508.7856 423.0133 C511.6502 423.2179 513.8065 425.706 513.6019 428.5705 C513.3973 431.4351 510.9092 433.5915 508.0446 433.3868 Z"
         style="fill:white; clip-path:url(#clipPath19); stroke:none;"
         clip-path="url(#clipPath19)"
         id="path258" />
      <path
         d="M508.0446 433.3868 C505.1801 433.1822 503.0237 430.6942 503.2284 427.8296 C503.433 424.965 505.9211 422.8087 508.7856 423.0133 C511.6502 423.2179 513.8065 425.706 513.6019 428.5705 C513.3973 431.4351 510.9092 433.5915 508.0446 433.3868 Z"
         style="fill:none; clip-path:url(#clipPath19);"
         clip-path="url(#clipPath19)"
         id="path260" />
    </g>
    <g
       style="text-rendering:geometricPrecision;"
       id="g270">
      <path
         d="M156.5219 518.7728 L154.5467 502.9112"
         style="fill:none; clip-path:url(#clipPath20);"
         clip-path="url(#clipPath20)"
         id="path264" />
      <path
         d="M153.2616 492.5909 C156.1115 492.2361 158.7095 494.2586 159.0643 497.1085 C159.4192 499.9584 157.3966 502.5563 154.5467 502.9112 C151.6969 503.2661 149.0989 501.2435 148.744 498.3936 C148.3892 495.5438 150.4118 492.9458 153.2616 492.5909 Z"
         style="fill:white; clip-path:url(#clipPath20); stroke:none;"
         clip-path="url(#clipPath20)"
         id="path266" />
      <path
         d="M153.2616 492.5909 C156.1115 492.2361 158.7095 494.2586 159.0643 497.1085 C159.4192 499.9584 157.3966 502.5563 154.5467 502.9112 C151.6969 503.2661 149.0989 501.2435 148.744 498.3936 C148.3892 495.5438 150.4118 492.9458 153.2616 492.5909 Z"
         style="fill:none; clip-path:url(#clipPath20);"
         clip-path="url(#clipPath20)"
         id="path268" />
    </g>
    <g
       style="text-rendering:geometricPrecision;"
       id="g276">
      <path
         d="M300.3111 145.7728 L254.9952 246.7764"
         style="fill:none; clip-path:url(#clipPath21);"
         clip-path="url(#clipPath21)"
         id="path272" />
      <path
         d="M259.7395 248.905 L250.2058 257.4513 L250.2508 244.6478 Z"
         style="clip-path:url(#clipPath21); stroke:none;"
         clip-path="url(#clipPath21)"
         id="path274" />
    </g>
    <g
       style="text-rendering:geometricPrecision;"
       id="g282">
      <path
         d="M199.3111 481.9879 L199.3111 492.9879 M199.3111 492.9879 L74.3111 492.9879 M74.3111 492.9879 L74.3111 472.9879"
         style="fill:none; clip-path:url(#clipPath22);"
         clip-path="url(#clipPath22)"
         id="path278" />
      <path
         d="M194.1111 481.9879 L199.3111 470.2878 L204.5111 481.9879 Z"
         style="clip-path:url(#clipPath22); stroke:none;"
         clip-path="url(#clipPath22)"
         id="path280" />
    </g>
    <g
       style="text-rendering:geometricPrecision;"
       id="g290">
      <path
         d="M203.3111 342.9879 L228.5521 345.2825"
         style="fill:none; clip-path:url(#clipPath23);"
         clip-path="url(#clipPath23)"
         id="path284" />
      <path
         d="M238.9094 346.2241 C238.6494 349.0841 236.1201 351.1919 233.26 350.9319 C230.3999 350.6719 228.2921 348.1426 228.5521 345.2825 C228.8121 342.4224 231.3415 340.3146 234.2016 340.5746 C237.0616 340.8347 239.1694 343.364 238.9094 346.2241 Z"
         style="fill:white; clip-path:url(#clipPath23); stroke:none;"
         clip-path="url(#clipPath23)"
         id="path286" />
      <path
         d="M238.9094 346.2241 C238.6494 349.0841 236.1201 351.1919 233.26 350.9319 C230.3999 350.6719 228.2921 348.1426 228.5521 345.2825 C228.8121 342.4224 231.3415 340.3146 234.2016 340.5746 C237.0616 340.8347 239.1694 343.364 238.9094 346.2241 Z"
         style="fill:none; clip-path:url(#clipPath23);"
         clip-path="url(#clipPath23)"
         id="path288" />
    </g>
    <g
       style="text-rendering:geometricPrecision;"
       id="g298">
      <path
         d="M375.3111 70.9878 L330.3074 69.7719"
         style="fill:none; clip-path:url(#clipPath24);"
         clip-path="url(#clipPath24)"
         id="path292" />
      <path
         d="M319.9112 69.491 C319.9888 66.6202 322.3789 64.3558 325.2498 64.4334 C328.1206 64.5109 330.385 66.9011 330.3074 69.7719 C330.2298 72.6427 327.8397 74.9071 324.9689 74.8296 C322.098 74.752 319.8336 72.3619 319.9112 69.491 Z"
         style="fill:white; clip-path:url(#clipPath24); stroke:none;"
         clip-path="url(#clipPath24)"
         id="path294" />
      <path
         d="M319.9112 69.491 C319.9888 66.6202 322.3789 64.3558 325.2498 64.4334 C328.1206 64.5109 330.385 66.9011 330.3074 69.7719 C330.2298 72.6427 327.8397 74.9071 324.9689 74.8296 C322.098 74.752 319.8336 72.3619 319.9112 69.491 Z"
         style="fill:none; clip-path:url(#clipPath24);"
         clip-path="url(#clipPath24)"
         id="path296" />
    </g>
    <g
       style="font-size:10; text-rendering:geometricPrecision;"
       id="g304">
      <text
         x="179"
         xml:space="preserve"
         y="192"
         style="clip-path:url(#clipPath25); stroke:none;"
         clip-path="url(#clipPath25)"
         id="text300">Nonenzymatic</text>
      <text
         x="177"
         xml:space="preserve"
         y="203"
         style="clip-path:url(#clipPath25); stroke:none;"
         clip-path="url(#clipPath25)"
         id="text302">rearrangement</text>
    </g>
    <g
       style="fill:white; text-rendering:geometricPrecision; stroke:white;"
       id="g312">
      <path
         d="M37.2795 125.7728 L172.2795 125.7728 L172.2795 145.7728 L37.2795 145.7728 L37.2795 125.7728 Z"
         style="clip-path:url(#clipPath26); stroke:none;"
         clip-path="url(#clipPath26)"
         id="path306" />
      <path
         d="M37.2795 125.7728 L172.2795 125.7728 L172.2795 145.7728 L37.2795 145.7728 L37.2795 125.7728 Z"
         style="fill:none; clip-path:url(#clipPath26); stroke:blue;"
         clip-path="url(#clipPath26)"
         id="path308" />
      <text
         x="41"
         y="139"
         style="font-size:10; clip-path:url(#clipPath26); fill:blue; stroke:none;"
         xml:space="preserve"
         clip-path="url(#clipPath26)"
         id="text310">S-Phenylmercapturic acid</text>
    </g>
    <g
       style="fill:white; text-rendering:geometricPrecision; stroke:white;"
       id="g320">
      <path
         d="M211.3111 254.9879 L291.3111 254.9879 L291.3111 274.9879 L211.3111 274.9879 L211.3111 254.9879 Z"
         style="clip-path:url(#clipPath27); stroke:none;"
         clip-path="url(#clipPath27)"
         id="path314" />
      <path
         d="M211.3111 254.9879 L291.3111 254.9879 L291.3111 274.9879 L211.3111 274.9879 L211.3111 254.9879 Z"
         style="fill:none; clip-path:url(#clipPath27); stroke:blue;"
         clip-path="url(#clipPath27)"
         id="path316" />
      <text
         x="235"
         y="268"
         style="font-size:10; clip-path:url(#clipPath27); fill:blue; stroke:none;"
         xml:space="preserve"
         clip-path="url(#clipPath27)"
         id="text318">Phenol</text>
    </g>
    <g
       style="fill:white; text-rendering:geometricPrecision; stroke:white;"
       id="g328">
      <path
         d="M123.3111 332.9879 L203.3111 332.9879 L203.3111 352.9879 L123.3111 352.9879 L123.3111 332.9879 Z"
         style="clip-path:url(#clipPath28); stroke:none;"
         clip-path="url(#clipPath28)"
         id="path322" />
      <path
         d="M123.3111 332.9879 L203.3111 332.9879 L203.3111 352.9879 L123.3111 352.9879 L123.3111 332.9879 Z"
         style="fill:none; clip-path:url(#clipPath28); stroke:black;"
         clip-path="url(#clipPath28)"
         id="path324" />
      <text
         x="144"
         y="346"
         style="font-size:10; clip-path:url(#clipPath28); fill:black; stroke:none;"
         xml:space="preserve"
         clip-path="url(#clipPath28)"
         id="text326">CYP2E1</text>
    </g>
    <g
       style="fill:white; text-rendering:geometricPrecision; stroke:white;"
       id="g336">
      <path
         d="M179.3111 452.9879 L259.3111 452.9879 L259.3111 472.9879 L179.3111 472.9879 L179.3111 452.9879 Z"
         style="clip-path:url(#clipPath29); stroke:none;"
         clip-path="url(#clipPath29)"
         id="path330" />
      <path
         d="M179.3111 452.9879 L259.3111 452.9879 L259.3111 472.9879 L179.3111 472.9879 L179.3111 452.9879 Z"
         style="fill:none; clip-path:url(#clipPath29); stroke:blue;"
         clip-path="url(#clipPath29)"
         id="path332" />
      <text
         x="184"
         y="466"
         style="font-size:10; clip-path:url(#clipPath29); fill:blue; stroke:none;"
         xml:space="preserve"
         clip-path="url(#clipPath29)"
         id="text334">Hydroquinone</text>
    </g>
    <g
       style="fill:white; text-rendering:geometricPrecision; stroke:white;"
       id="g344">
      <path
         d="M280.3111 125.7728 L360.3111 125.7728 L360.3111 145.7728 L280.3111 145.7728 L280.3111 125.7728 Z"
         style="clip-path:url(#clipPath30); stroke:none;"
         clip-path="url(#clipPath30)"
         id="path338" />
      <path
         d="M280.3111 125.7728 L360.3111 125.7728 L360.3111 145.7728 L280.3111 145.7728 L280.3111 125.7728 Z"
         style="fill:none; clip-path:url(#clipPath30); stroke:blue;"
         clip-path="url(#clipPath30)"
         id="path340" />
      <text
         x="284"
         y="139"
         style="font-size:10; clip-path:url(#clipPath30); fill:blue; stroke:none;"
         xml:space="preserve"
         clip-path="url(#clipPath30)"
         id="text342">Benzene oxide</text>
    </g>
    <g
       style="fill:white; text-rendering:geometricPrecision; stroke:white;"
       id="g352">
      <path
         d="M14.3111 452.9879 L94.3111 452.9879 L94.3111 472.9879 L14.3111 472.9879 L14.3111 452.9879 Z"
         style="clip-path:url(#clipPath31); stroke:none;"
         clip-path="url(#clipPath31)"
         id="path346" />
      <path
         d="M14.3111 452.9879 L94.3111 452.9879 L94.3111 472.9879 L14.3111 472.9879 L14.3111 452.9879 Z"
         style="fill:none; clip-path:url(#clipPath31); stroke:blue;"
         clip-path="url(#clipPath31)"
         id="path348" />
      <text
         x="14"
         y="466"
         style="font-size:10; clip-path:url(#clipPath31); fill:blue; stroke:none;"
         xml:space="preserve"
         clip-path="url(#clipPath31)"
         id="text350">p-benzoquinone</text>
    </g>
    <g
       style="fill:white; text-rendering:geometricPrecision; stroke:white;"
       id="g360">
      <path
         d="M375.3111 60.9879 L455.3111 60.9879 L455.3111 80.9878 L375.3111 80.9878 L375.3111 60.9879 Z"
         style="clip-path:url(#clipPath32); stroke:none;"
         clip-path="url(#clipPath32)"
         id="path354" />
      <path
         d="M375.3111 60.9879 L455.3111 60.9879 L455.3111 80.9878 L375.3111 80.9878 L375.3111 60.9879 Z"
         style="fill:none; clip-path:url(#clipPath32); stroke:black;"
         clip-path="url(#clipPath32)"
         id="path356" />
      <text
         x="396"
         y="74"
         style="font-size:10; clip-path:url(#clipPath32); fill:black; stroke:none;"
         xml:space="preserve"
         clip-path="url(#clipPath32)"
         id="text358">CYP2E1</text>
    </g>
    <g
       style="fill:white; text-rendering:geometricPrecision; stroke:white;"
       id="g368">
      <path
         d="M482.7412 387.407 L537.0595 387.407 L537.0595 407.407 L482.7412 407.407 L482.7412 387.407 Z"
         style="clip-path:url(#clipPath33); stroke:none;"
         clip-path="url(#clipPath33)"
         id="path362" />
      <path
         d="M482.7412 387.407 L537.0595 387.407 L537.0595 407.407 L482.7412 407.407 L482.7412 387.407 Z"
         style="fill:none; clip-path:url(#clipPath33); stroke:black;"
         clip-path="url(#clipPath33)"
         id="path364" />
      <text
         x="496"
         y="401"
         style="font-size:10; clip-path:url(#clipPath33); fill:black; stroke:none;"
         xml:space="preserve"
         clip-path="url(#clipPath33)"
         id="text366">NQO1</text>
    </g>
    <g
       style="fill:white; text-rendering:geometricPrecision; stroke:white;"
       id="g376">
      <path
         d="M519.311 254.9879 L634.311 254.9879 L634.311 274.9879 L519.311 274.9879 L519.311 254.9879 Z"
         style="clip-path:url(#clipPath34); stroke:none;"
         clip-path="url(#clipPath34)"
         id="path370" />
      <path
         d="M519.311 254.9879 L634.311 254.9879 L634.311 274.9879 L519.311 274.9879 L519.311 254.9879 Z"
         style="fill:none; clip-path:url(#clipPath34); stroke:blue;"
         clip-path="url(#clipPath34)"
         id="path372" />
      <text
         x="524"
         y="268"
         style="font-size:10; clip-path:url(#clipPath34); fill:blue; stroke:none;"
         xml:space="preserve"
         clip-path="url(#clipPath34)"
         id="text374">Benzene diol epoxide</text>
    </g>
    <g
       style="fill:white; text-rendering:geometricPrecision; stroke:white;"
       id="g384">
      <path
         d="M402.3111 184.9879 L561 184.9879 L561 204.9879 L402.3111 204.9879 L402.3111 184.9879 Z"
         style="clip-path:url(#clipPath35); stroke:none;"
         clip-path="url(#clipPath35)"
         id="path378" />
      <path
         d="M402.3111 184.9879 L561 184.9879 L561 204.9879 L402.3111 204.9879 L402.3111 184.9879 Z"
         style="fill:none; clip-path:url(#clipPath35); stroke:black;"
         clip-path="url(#clipPath35)"
         id="path380" />
      <text
         x="405"
         y="198"
         style="font-size:10; clip-path:url(#clipPath35); fill:black; stroke:none;"
         xml:space="preserve"
         clip-path="url(#clipPath35)"
         id="text382">Microsomal Epoxide Hydrolase</text>
    </g>
    <g
       style="fill:white; text-rendering:geometricPrecision; stroke:white;"
       id="g392">
      <path
         d="M566.311 452.9879 L671.9319 452.9879 L671.9319 472.9879 L566.311 472.9879 L566.311 452.9879 Z"
         style="clip-path:url(#clipPath36); stroke:none;"
         clip-path="url(#clipPath36)"
         id="path386" />
      <path
         d="M566.311 452.9879 L671.9319 452.9879 L671.9319 472.9879 L566.311 472.9879 L566.311 452.9879 Z"
         style="fill:none; clip-path:url(#clipPath36); stroke:blue;"
         clip-path="url(#clipPath36)"
         id="path388" />
      <text
         x="574"
         y="466"
         style="font-size:10; clip-path:url(#clipPath36); fill:blue; stroke:none;"
         xml:space="preserve"
         clip-path="url(#clipPath36)"
         id="text390">1,2-Benzoquinone</text>
    </g>
    <g
       style="fill:white; text-rendering:geometricPrecision; stroke:white;"
       id="g400">
      <path
         d="M344.3111 254.9879 L452.3111 254.9879 L452.3111 274.9879 L344.3111 274.9879 L344.3111 254.9879 Z"
         style="clip-path:url(#clipPath37); stroke:none;"
         clip-path="url(#clipPath37)"
         id="path394" />
      <path
         d="M344.3111 254.9879 L452.3111 254.9879 L452.3111 274.9879 L344.3111 274.9879 L344.3111 254.9879 Z"
         style="fill:none; clip-path:url(#clipPath37); stroke:blue;"
         clip-path="url(#clipPath37)"
         id="path396" />
      <text
         x="347"
         y="268"
         style="font-size:10; clip-path:url(#clipPath37); fill:blue; stroke:none;"
         xml:space="preserve"
         clip-path="url(#clipPath37)"
         id="text398">Benzene dihydrodiol</text>
    </g>
    <g
       style="fill:white; text-rendering:geometricPrecision; stroke:white;"
       id="g408">
      <path
         d="M175.0425 78.9878 L301.0425 78.9878 L301.0425 98.9878 L175.0425 98.9878 L175.0425 78.9878 Z"
         style="clip-path:url(#clipPath38); stroke:none;"
         clip-path="url(#clipPath38)"
         id="path402" />
      <path
         d="M175.0425 78.9878 L301.0425 78.9878 L301.0425 98.9878 L175.0425 98.9878 L175.0425 78.9878 Z"
         style="fill:none; clip-path:url(#clipPath38); stroke:black;"
         clip-path="url(#clipPath38)"
         id="path404" />
      <text
         x="174"
         y="92"
         style="font-size:10; clip-path:url(#clipPath38); fill:black; stroke:none;"
         xml:space="preserve"
         clip-path="url(#clipPath38)"
         id="text406">Glutathione S-transferase</text>
    </g>
    <g
       style="fill:white; text-rendering:geometricPrecision; stroke:white;"
       id="g416">
      <path
         d="M398.3111 452.9879 L478.3111 452.9879 L478.3111 472.9879 L398.3111 472.9879 L398.3111 452.9879 Z"
         style="clip-path:url(#clipPath39); stroke:none;"
         clip-path="url(#clipPath39)"
         id="path410" />
      <path
         d="M398.3111 452.9879 L478.3111 452.9879 L478.3111 472.9879 L398.3111 472.9879 L398.3111 452.9879 Z"
         style="fill:none; clip-path:url(#clipPath39); stroke:blue;"
         clip-path="url(#clipPath39)"
         id="path412" />
      <text
         x="417"
         y="466"
         style="font-size:10; clip-path:url(#clipPath39); fill:blue; stroke:none;"
         xml:space="preserve"
         clip-path="url(#clipPath39)"
         id="text414">Catechol</text>
    </g>
    <g
       style="fill:white; text-rendering:geometricPrecision; stroke:white;"
       id="g426">
      <path
         d="M462.3111 328.9879 L556.311 328.9879 L556.311 356.9879 L462.3111 356.9879 L462.3111 328.9879 Z"
         style="clip-path:url(#clipPath40); stroke:none;"
         clip-path="url(#clipPath40)"
         id="path418" />
      <path
         d="M462.3111 328.9879 L556.311 328.9879 L556.311 356.9879 L462.3111 356.9879 L462.3111 328.9879 Z"
         style="fill:none; clip-path:url(#clipPath40); stroke:black;"
         clip-path="url(#clipPath40)"
         id="path420" />
      <text
         x="481"
         y="339"
         style="font-size:10; clip-path:url(#clipPath40); fill:black; stroke:none;"
         xml:space="preserve"
         clip-path="url(#clipPath40)"
         id="text422">Dihydrodiol</text>
      <text
         x="471"
         y="350"
         style="font-size:10; clip-path:url(#clipPath40); fill:black; stroke:none;"
         xml:space="preserve"
         clip-path="url(#clipPath40)"
         id="text424">dehydrogenase</text>
    </g>
    <g
       style="fill:white; text-rendering:geometricPrecision; stroke:white;"
       id="g434">
      <path
         d="M513.9733 518.7728 L569.311 518.7728 L569.311 538.7728 L513.9733 538.7728 L513.9733 518.7728 Z"
         style="clip-path:url(#clipPath41); stroke:none;"
         clip-path="url(#clipPath41)"
         id="path428" />
      <path
         d="M513.9733 518.7728 L569.311 518.7728 L569.311 538.7728 L513.9733 538.7728 L513.9733 518.7728 Z"
         style="fill:none; clip-path:url(#clipPath41); stroke:black;"
         clip-path="url(#clipPath41)"
         id="path430" />
      <text
         x="530"
         y="532"
         style="font-size:10; clip-path:url(#clipPath41); fill:black; stroke:none;"
         xml:space="preserve"
         clip-path="url(#clipPath41)"
         id="text432">MPO</text>
    </g>
    <g
       style="fill:white; text-rendering:geometricPrecision; stroke:white;"
       id="g442">
      <path
         d="M280.3111 11.9878 L360.3111 11.9878 L360.3111 31.9879 L280.3111 31.9879 L280.3111 11.9878 Z"
         style="clip-path:url(#clipPath42); stroke:none;"
         clip-path="url(#clipPath42)"
         id="path436" />
      <path
         d="M280.3111 11.9878 L360.3111 11.9878 L360.3111 31.9879 L280.3111 31.9879 L280.3111 11.9878 Z"
         style="fill:none; clip-path:url(#clipPath42); stroke:blue;"
         clip-path="url(#clipPath42)"
         id="path438" />
      <text
         x="299"
         y="25"
         style="font-size:10; clip-path:url(#clipPath42); fill:blue; stroke:none;"
         xml:space="preserve"
         clip-path="url(#clipPath42)"
         id="text440">Benzene</text>
    </g>
    <g
       style="fill:white; text-rendering:geometricPrecision; stroke:white;"
       id="g450">
      <path
         d="M437.3111 125.7728 L517.311 125.7728 L517.311 145.7728 L437.3111 145.7728 L437.3111 125.7728 Z"
         style="clip-path:url(#clipPath43); stroke:none;"
         clip-path="url(#clipPath43)"
         id="path444" />
      <path
         d="M437.3111 125.7728 L517.311 125.7728 L517.311 145.7728 L437.3111 145.7728 L437.3111 125.7728 Z"
         style="fill:none; clip-path:url(#clipPath43); stroke:blue;"
         clip-path="url(#clipPath43)"
         id="path446" />
      <text
         x="457"
         y="139"
         style="font-size:10; clip-path:url(#clipPath43); fill:blue; stroke:none;"
         xml:space="preserve"
         clip-path="url(#clipPath43)"
         id="text448">Oxepine</text>
    </g>
    <g
       style="fill:white; text-rendering:geometricPrecision; stroke:white;"
       id="g458">
      <path
         d="M134.8724 518.7728 L178.1713 518.7728 L178.1713 538.7728 L134.8724 538.7728 L134.8724 518.7728 Z"
         style="clip-path:url(#clipPath44); stroke:none;"
         clip-path="url(#clipPath44)"
         id="path452" />
      <path
         d="M134.8724 518.7728 L178.1713 518.7728 L178.1713 538.7728 L134.8724 538.7728 L134.8724 518.7728 Z"
         style="fill:none; clip-path:url(#clipPath44); stroke:black;"
         clip-path="url(#clipPath44)"
         id="path454" />
      <text
         x="142"
         y="532"
         style="font-size:10; clip-path:url(#clipPath44); fill:black; stroke:none;"
         xml:space="preserve"
         clip-path="url(#clipPath44)"
         id="text456">NQO1</text>
    </g>
    <g
       style="text-rendering:geometricPrecision;"
       id="g464">
      <path
         d="M340.3111 145.7728 L394.0898 247.0392"
         style="fill:none; clip-path:url(#clipPath45);"
         clip-path="url(#clipPath45)"
         id="path460" />
      <path
         d="M398.6824 244.6003 L399.5774 257.3724 L389.4973 249.4781 Z"
         style="clip-path:url(#clipPath45); stroke:none;"
         clip-path="url(#clipPath45)"
         id="path462" />
    </g>
    <g
       style="fill:white; text-rendering:geometricPrecision; stroke:white;"
       id="g472">
      <path
         d="M126.367 387.407 L179.6015 387.407 L179.6015 407.407 L126.367 407.407 L126.367 387.407 Z"
         style="clip-path:url(#clipPath46); stroke:none;"
         clip-path="url(#clipPath46)"
         id="path466" />
      <path
         d="M126.367 387.407 L179.6015 387.407 L179.6015 407.407 L126.367 407.407 L126.367 387.407 Z"
         style="fill:none; clip-path:url(#clipPath46); stroke:black;"
         clip-path="url(#clipPath46)"
         id="path468" />
      <text
         x="142"
         y="401"
         style="font-size:10; clip-path:url(#clipPath46); fill:black; stroke:none;"
         xml:space="preserve"
         clip-path="url(#clipPath46)"
         id="text470">MPO</text>
    </g>
  </g>
</svg>
