<?xml version="1.0" encoding="UTF-8" standalone="no"?>
<svg
   style="fill-opacity:1; color-rendering:auto; color-interpolation:auto; stroke:black; text-rendering:auto; stroke-linecap:square; stroke-miterlimit:10; stroke-opacity:1; shape-rendering:auto; fill:black; stroke-dasharray:none; font-weight:normal; stroke-width:1; font-family:'Dialog'; font-style:normal; stroke-linejoin:miter; font-size:12; stroke-dashoffset:0; image-rendering:auto;"
   width="947"
   height="844"
   version="1.1"
   id="svg638"
   xmlns="http://www.w3.org/2000/svg"
   xmlns:svg="http://www.w3.org/2000/svg">
  <!--Generated by the Batik Graphics2D SVG Generator-->
  <defs
     id="genericDefs" />
  <g
     id="g636">
    <defs
       id="defs1">
      <clipPath
         clipPathUnits="userSpaceOnUse"
         id="clipPath1">
        <path
           d="M0 0 L957 0 L957 853 L0 853 L0 0 Z"
           id="path3" />
      </clipPath>
      <clipPath
         clipPathUnits="userSpaceOnUse"
         id="clipPath2">
        <path
           d="M0 0 L0 200 L200 200 L200 0 Z"
           id="path6" />
      </clipPath>
      <clipPath
         clipPathUnits="userSpaceOnUse"
         id="clipPath3">
        <path
           d="M92.7198 218.2303 L92.7198 468.6212 L169.1213 468.6212 L169.1213 218.2303 Z"
           id="path9" />
      </clipPath>
      <clipPath
         clipPathUnits="userSpaceOnUse"
         id="clipPath4">
        <path
           d="M485.2953 356.2953 L485.2953 673.8001 L754.2402 673.8001 L754.2402 356.2953 Z"
           id="path12" />
      </clipPath>
      <clipPath
         clipPathUnits="userSpaceOnUse"
         id="clipPath5">
        <path
           d="M447.7729 333.3047 L447.7729 737.2394 L725.6953 737.2394 L725.6953 333.3047 Z"
           id="path15" />
      </clipPath>
      <clipPath
         clipPathUnits="userSpaceOnUse"
         id="clipPath6">
        <path
           d="M444.0306 489.7689 L444.0306 734.5 L455.9694 734.5 L455.9694 489.7689 Z"
           id="path18" />
      </clipPath>
      <clipPath
         clipPathUnits="userSpaceOnUse"
         id="clipPath7">
        <path
           d="M739.9691 333.4968 L739.9691 491.931 L751.9076 491.931 L751.9076 333.4968 Z"
           id="path21" />
      </clipPath>
      <clipPath
         clipPathUnits="userSpaceOnUse"
         id="clipPath8">
        <path
           d="M167.8267 491.3267 L167.8267 638.5982 L453.4958 638.5982 L453.4958 491.3267 Z"
           id="path24" />
      </clipPath>
      <clipPath
         clipPathUnits="userSpaceOnUse"
         id="clipPath9">
        <path
           d="M55.6415 488.7947 L55.6415 724.8414 L108.3414 724.8414 L108.3414 488.7947 Z"
           id="path27" />
      </clipPath>
      <clipPath
         clipPathUnits="userSpaceOnUse"
         id="clipPath10">
        <path
           d="M58.4321 218.1114 L58.4321 470.5679 L100.2623 470.5679 L100.2623 218.1114 Z"
           id="path30" />
      </clipPath>
      <clipPath
         clipPathUnits="userSpaceOnUse"
         id="clipPath11">
        <path
           d="M154.3651 489.3086 L154.3651 727.5509 L308.6914 727.5509 L308.6914 489.3086 Z"
           id="path33" />
      </clipPath>
      <clipPath
         clipPathUnits="userSpaceOnUse"
         id="clipPath12">
        <path
           d="M202.5224 490.293 L202.5224 727.0808 L430.707 727.0808 L430.707 490.293 Z"
           id="path36" />
      </clipPath>
      <clipPath
         clipPathUnits="userSpaceOnUse"
         id="clipPath13">
        <path
           d="M166.2986 219.4034 L166.2986 469.7057 L450.7057 469.7057 L450.7057 219.4034 Z"
           id="path39" />
      </clipPath>
      <clipPath
         clipPathUnits="userSpaceOnUse"
         id="clipPath14">
        <path
           d="M210.3003 201.6212 L210.3003 226.0436 L353.5436 226.0436 L353.5436 201.6212 Z"
           id="path42" />
      </clipPath>
      <clipPath
         clipPathUnits="userSpaceOnUse"
         id="clipPath15">
        <path
           d="M130.2292 218.7911 L130.2292 470.697 L308.697 470.697 L308.697 218.7911 Z"
           id="path45" />
      </clipPath>
      <clipPath
         clipPathUnits="userSpaceOnUse"
         id="clipPath16">
        <path
           d="M165.3869 217.8939 L165.3869 323.584 L705.584 323.584 L705.584 217.8939 Z"
           id="path48" />
      </clipPath>
      <clipPath
         clipPathUnits="userSpaceOnUse"
         id="clipPath17">
        <path
           d="M485.4319 356.4319 L485.4319 400.1061 L749.2883 400.1061 L749.2883 356.4319 Z"
           id="path51" />
      </clipPath>
      <clipPath
         clipPathUnits="userSpaceOnUse"
         id="clipPath18">
        <path
           d="M742.2335 595.7709 L742.2335 720.5276 L755.0276 720.5276 L755.0276 595.7709 Z"
           id="path54" />
      </clipPath>
      <clipPath
         clipPathUnits="userSpaceOnUse"
         id="clipPath19">
        <path
           d="M71.7437 76.7803 L71.7437 222.5633 L96.3133 222.5633 L96.3133 76.7803 Z"
           id="path57" />
      </clipPath>
      <clipPath
         clipPathUnits="userSpaceOnUse"
         id="clipPath20">
        <path
           d="M205.3431 211.3431 L205.3431 311.6595 L437.1308 311.6595 L437.1308 211.3431 Z"
           id="path60" />
      </clipPath>
      <clipPath
         clipPathUnits="userSpaceOnUse"
         id="clipPath21">
        <path
           d="M151.0288 491.4749 L151.0288 728.1759 L169.0251 728.1759 L169.0251 491.4749 Z"
           id="path63" />
      </clipPath>
      <clipPath
         clipPathUnits="userSpaceOnUse"
         id="clipPath22">
        <path
           d="M739.0306 218.5 L739.0306 313.2311 L750.9694 313.2311 L750.9694 218.5 Z"
           id="path66" />
      </clipPath>
      <clipPath
         clipPathUnits="userSpaceOnUse"
         id="clipPath23">
        <path
           d="M307.2952 469.2952 L307.2952 639.7933 L452.5482 639.7933 L452.5482 469.2952 Z"
           id="path69" />
      </clipPath>
      <clipPath
         clipPathUnits="userSpaceOnUse"
         id="clipPath24">
        <path
           d="M731.6 630.9 L731.6 651.9 L757.6 651.9 L757.6 630.9 Z"
           id="path72" />
      </clipPath>
      <clipPath
         clipPathUnits="userSpaceOnUse"
         id="clipPath25">
        <path
           d="M733.9672 618.818 L755.2328 618.818 L755.2328 634.1305 L733.9672 634.1305 L733.9672 618.818 Z"
           id="path75" />
      </clipPath>
      <clipPath
         clipPathUnits="userSpaceOnUse"
         id="clipPath26">
        <path
           d="M262.675 651.275 L262.675 672.275 L273.675 672.275 L273.675 651.275 Z"
           id="path78" />
      </clipPath>
      <clipPath
         clipPathUnits="userSpaceOnUse"
         id="clipPath27">
        <path
           d="M262.1301 639.193 L273.2199 639.193 L273.2199 654.5055 L262.1301 654.5055 L262.1301 639.193 Z"
           id="path81" />
      </clipPath>
      <clipPath
         clipPathUnits="userSpaceOnUse"
         id="clipPath28">
        <path
           d="M63.625 557.275 L63.625 578.275 L74.625 578.275 L74.625 557.275 Z"
           id="path84" />
      </clipPath>
      <clipPath
         clipPathUnits="userSpaceOnUse"
         id="clipPath29">
        <path
           d="M63.0801 545.193 L74.1699 545.193 L74.1699 560.5055 L63.0801 560.5055 L63.0801 545.193 Z"
           id="path87" />
      </clipPath>
      <clipPath
         clipPathUnits="userSpaceOnUse"
         id="clipPath30">
        <path
           d="M352.5 663 L352.5 828.5 L574 828.5 L574 663 Z"
           id="path90" />
      </clipPath>
      <clipPath
         clipPathUnits="userSpaceOnUse"
         id="clipPath31">
        <path
           d="M633.5 92 L633.5 293.5 L933 293.5 L933 92 Z"
           id="path93" />
      </clipPath>
      <clipPath
         clipPathUnits="userSpaceOnUse"
         id="clipPath32">
        <path
           d="M23.25 136.75 L23.25 302.25 L244.75 302.25 L244.75 136.75 Z"
           id="path96" />
      </clipPath>
      <clipPath
         clipPathUnits="userSpaceOnUse"
         id="clipPath33">
        <path
           d="M88.5 156.5 L88.5 177.5 L169.5 177.5 L169.5 156.5 Z"
           id="path99" />
      </clipPath>
      <clipPath
         clipPathUnits="userSpaceOnUse"
         id="clipPath34">
        <path
           d="M408.5 797.5 L408.5 818.5 L489.5 818.5 L489.5 797.5 Z"
           id="path102" />
      </clipPath>
      <clipPath
         clipPathUnits="userSpaceOnUse"
         id="clipPath35">
        <path
           d="M113.5 796.5 L113.5 817.5 L194.5 817.5 L194.5 796.5 Z"
           id="path105" />
      </clipPath>
      <clipPath
         clipPathUnits="userSpaceOnUse"
         id="clipPath36">
        <path
           d="M705.5 794.5 L705.5 815.5 L786.5 815.5 L786.5 794.5 Z"
           id="path108" />
      </clipPath>
      <clipPath
         clipPathUnits="userSpaceOnUse"
         id="clipPath37">
        <path
           d="M666.5 116.5 L666.5 137.5 L747.5 137.5 L747.5 116.5 Z"
           id="path111" />
      </clipPath>
      <clipPath
         clipPathUnits="userSpaceOnUse"
         id="clipPath38">
        <path
           d="M657.5 719.5 L657.5 748.5 L851.5 748.5 L851.5 719.5 Z"
           id="path114" />
      </clipPath>
      <clipPath
         clipPathUnits="userSpaceOnUse"
         id="clipPath39">
        <path
           d="M383.5 345.5 L383.5 368.5 L486.5 368.5 L486.5 345.5 Z"
           id="path117" />
      </clipPath>
      <clipPath
         clipPathUnits="userSpaceOnUse"
         id="clipPath40">
        <path
           d="M360.5 215.5 L360.5 236.5 L441.5 236.5 L441.5 215.5 Z"
           id="path120" />
      </clipPath>
      <clipPath
         clipPathUnits="userSpaceOnUse"
         id="clipPath41">
        <path
           d="M360.5 239.5 L360.5 260.5 L441.5 260.5 L441.5 239.5 Z"
           id="path123" />
      </clipPath>
      <clipPath
         clipPathUnits="userSpaceOnUse"
         id="clipPath42">
        <path
           d="M744.5 567.5 L744.5 589.5 L836.5 589.5 L836.5 567.5 Z"
           id="path126" />
      </clipPath>
      <clipPath
         clipPathUnits="userSpaceOnUse"
         id="clipPath43">
        <path
           d="M409.5 468.5 L409.5 491.5 L490.5 491.5 L490.5 468.5 Z"
           id="path129" />
      </clipPath>
      <clipPath
         clipPathUnits="userSpaceOnUse"
         id="clipPath44">
        <path
           d="M360.5 190.5 L360.5 211.5 L441.5 211.5 L441.5 190.5 Z"
           id="path132" />
      </clipPath>
      <clipPath
         clipPathUnits="userSpaceOnUse"
         id="clipPath45">
        <path
           d="M658.5 567.5 L658.5 588.5 L739.5 588.5 L739.5 567.5 Z"
           id="path135" />
      </clipPath>
      <clipPath
         clipPathUnits="userSpaceOnUse"
         id="clipPath46">
        <path
           d="M705.5 495.5 L705.5 516.5 L786.5 516.5 L786.5 495.5 Z"
           id="path138" />
      </clipPath>
      <clipPath
         clipPathUnits="userSpaceOnUse"
         id="clipPath47">
        <path
           d="M126.5 467.5 L126.5 492.5 L210.5 492.5 L210.5 467.5 Z"
           id="path141" />
      </clipPath>
      <clipPath
         clipPathUnits="userSpaceOnUse"
         id="clipPath48">
        <path
           d="M384.5 318.5 L384.5 342.5 L487.5 342.5 L487.5 318.5 Z"
           id="path144" />
      </clipPath>
      <clipPath
         clipPathUnits="userSpaceOnUse"
         id="clipPath49">
        <path
           d="M15.5 77.5 L15.5 100.5 L136.5 100.5 L136.5 77.5 Z"
           id="path147" />
      </clipPath>
      <clipPath
         clipPathUnits="userSpaceOnUse"
         id="clipPath50">
        <path
           d="M58.5 201.5 L58.5 222.5 L206.5 222.5 L206.5 201.5 Z"
           id="path150" />
      </clipPath>
      <clipPath
         clipPathUnits="userSpaceOnUse"
         id="clipPath51">
        <path
           d="M18.5 469.5 L18.5 490.5 L99.5 490.5 L99.5 469.5 Z"
           id="path153" />
      </clipPath>
      <clipPath
         clipPathUnits="userSpaceOnUse"
         id="clipPath52">
        <path
           d="M267.5 469.5 L267.5 490.5 L348.5 490.5 L348.5 469.5 Z"
           id="path156" />
      </clipPath>
      <clipPath
         clipPathUnits="userSpaceOnUse"
         id="clipPath53">
        <path
           d="M839.5 135 L839.5 161 L913.5 161 L913.5 135 Z"
           id="path159" />
      </clipPath>
      <clipPath
         clipPathUnits="userSpaceOnUse"
         id="clipPath54">
        <path
           d="M704.5 311.5 L704.5 334.5 L785.5 334.5 L785.5 311.5 Z"
           id="path162" />
      </clipPath>
      <clipPath
         clipPathUnits="userSpaceOnUse"
         id="clipPath55">
        <path
           d="M58.5 723.75 L58.5 769.5 L254.5 769.5 L254.5 723.75 Z"
           id="path165" />
      </clipPath>
      <clipPath
         clipPathUnits="userSpaceOnUse"
         id="clipPath56">
        <path
           d="M385.5 371.5 L385.5 392.5 L488.5 392.5 L488.5 371.5 Z"
           id="path168" />
      </clipPath>
      <clipPath
         clipPathUnits="userSpaceOnUse"
         id="clipPath57">
        <path
           d="M846 717 L846 738 L857 738 L857 717 Z"
           id="path171" />
      </clipPath>
      <clipPath
         clipPathUnits="userSpaceOnUse"
         id="clipPath58">
        <path
           d="M845.4551 704.918 L856.5449 704.918 L856.5449 720.2305 L845.4551 720.2305 L845.4551 704.918 Z"
           id="path174" />
      </clipPath>
      <clipPath
         clipPathUnits="userSpaceOnUse"
         id="clipPath59">
        <path
           d="M641.5 664 L641.5 829.5 L863 829.5 L863 664 Z"
           id="path177" />
      </clipPath>
      <clipPath
         clipPathUnits="userSpaceOnUse"
         id="clipPath60">
        <path
           d="M734 565 L734 586 L745 586 L745 565 Z"
           id="path180" />
      </clipPath>
      <clipPath
         clipPathUnits="userSpaceOnUse"
         id="clipPath61">
        <path
           d="M733.4551 552.918 L744.5449 552.918 L744.5449 568.2305 L733.4551 568.2305 L733.4551 552.918 Z"
           id="path183" />
      </clipPath>
      <clipPath
         clipPathUnits="userSpaceOnUse"
         id="clipPath62">
        <path
           d="M705.5 517.5 L705.5 538.5 L786.5 538.5 L786.5 517.5 Z"
           id="path186" />
      </clipPath>
      <clipPath
         clipPathUnits="userSpaceOnUse"
         id="clipPath63">
        <path
           d="M46.5 662 L46.5 827.5 L268 827.5 L268 662 Z"
           id="path189" />
      </clipPath>
      <clipPath
         clipPathUnits="userSpaceOnUse"
         id="clipPath64">
        <path
           d="M839.5 164 L839.5 190 L913.5 190 L913.5 164 Z"
           id="path192" />
      </clipPath>
      <clipPath
         clipPathUnits="userSpaceOnUse"
         id="clipPath65">
        <path
           d="M704.5 196.5 L704.5 219.5 L785.5 219.5 L785.5 196.5 Z"
           id="path195" />
      </clipPath>
      <clipPath
         clipPathUnits="userSpaceOnUse"
         id="clipPath66">
        <path
           d="M839.5 196 L839.5 222 L913.5 222 L913.5 196 Z"
           id="path198" />
      </clipPath>
      <clipPath
         clipPathUnits="userSpaceOnUse"
         id="clipPath67">
        <path
           d="M839.5 229 L839.5 255 L913.5 255 L913.5 229 Z"
           id="path201" />
      </clipPath>
      <clipPath
         clipPathUnits="userSpaceOnUse"
         id="clipPath68">
        <path
           d="M409.5 733.5 L409.5 756.5 L490.5 756.5 L490.5 733.5 Z"
           id="path204" />
      </clipPath>
    </defs>
    <g
       style="fill:white; stroke:white;"
       id="g210">
      <rect
         x="0"
         width="957"
         height="853"
         y="0"
         style="stroke:none;"
         id="rect208" />
    </g>
    <g
       style="font-weight:bold; font-size:10; text-rendering:geometricPrecision;"
       id="g220">
      <path
         d="M0.0469 6.7031 L6.7656 6.7031 L6.7656 8.125 L4.3438 8.125 L4.3438 14 L2.4688 14 L2.4688 8.125 L0.0469 8.125 L0.0469 6.7031 ZM7.665 8.5312 L9.415 8.5312 L9.415 14 L7.665 14 L7.665 8.5312 ZM7.665 6.4062 L9.415 6.4062 L9.415 7.8281 L7.665 7.8281 L7.665 6.4062 ZM12.999 6.9844 L12.999 8.5312 L14.7959 8.5312 L14.7959 9.7812 L12.999 9.7812 L12.999 12.0938 Q12.999 12.4844 13.1475 12.6172 Q13.2959 12.75 13.749 12.75 L14.6553 12.75 L14.6553 14 L13.1553 14 Q12.1084 14 11.6787 13.5703 Q11.249 13.1406 11.249 12.0938 L11.249 9.7812 L10.374 9.7812 L10.374 8.5312 L11.249 8.5312 L11.249 6.9844 L12.999 6.9844 ZM15.873 6.4062 L17.623 6.4062 L17.623 14 L15.873 14 L15.873 6.4062 ZM24.7539 11.25 L24.7539 11.75 L20.6758 11.75 Q20.7383 12.3594 21.1133 12.6719 Q21.4883 12.9844 22.1758 12.9844 Q22.7227 12.9844 23.3086 12.8203 Q23.8945 12.6562 24.5039 12.3125 L24.5039 13.6719 Q23.8789 13.9062 23.2617 14.0234 Q22.6445 14.1406 22.0195 14.1406 Q20.5352 14.1406 19.7148 13.3828 Q18.8945 12.625 18.8945 11.2656 Q18.8945 9.9375 19.6992 9.1719 Q20.5039 8.4062 21.9258 8.4062 Q23.207 8.4062 23.9805 9.1797 Q24.7539 9.9531 24.7539 11.25 ZM22.957 10.6719 Q22.957 10.1719 22.668 9.8672 Q22.3789 9.5625 21.9102 9.5625 Q21.3945 9.5625 21.082 9.8438 Q20.7695 10.125 20.6914 10.6719 L22.957 10.6719 ZM26.3643 8.5312 L28.1143 8.5312 L28.1143 10.4219 L26.3643 10.4219 L26.3643 8.5312 ZM26.3643 12.1094 L28.1143 12.1094 L28.1143 14 L26.3643 14 L26.3643 12.1094 Z"
         style="clip-path:url(#clipPath2); stroke:none;"
         clip-path="url(#clipPath2)"
         id="path212" />
      <path
         d="M43.9531 12.9531 L43.9531 11 L42.3438 11 L42.3438 10.1875 L44.9219 10.1875 L44.9219 13.3281 Q44.3594 13.7188 43.6719 13.9297 Q42.9844 14.1406 42.2031 14.1406 Q40.4844 14.1406 39.5234 13.1406 Q38.5625 12.1406 38.5625 10.3594 Q38.5625 8.5781 39.5234 7.5781 Q40.4844 6.5781 42.2031 6.5781 Q42.9062 6.5781 43.5547 6.75 Q44.2031 6.9219 44.7344 7.2656 L44.7344 8.3281 Q44.1875 7.8594 43.5781 7.625 Q42.9688 7.3906 42.2812 7.3906 Q40.9375 7.3906 40.2734 8.1328 Q39.6094 8.875 39.6094 10.3594 Q39.6094 11.8438 40.2734 12.5859 Q40.9375 13.3281 42.2812 13.3281 Q42.8125 13.3281 43.2188 13.2422 Q43.625 13.1562 43.9531 12.9531 ZM49.1709 11.25 Q48.0928 11.25 47.6709 11.5 Q47.249 11.75 47.249 12.3438 Q47.249 12.8281 47.5615 13.1094 Q47.874 13.3906 48.4209 13.3906 Q49.1709 13.3906 49.624 12.8594 Q50.0771 12.3281 50.0771 11.4531 L50.0771 11.25 L49.1709 11.25 ZM50.9678 10.875 L50.9678 14 L50.0771 14 L50.0771 13.1719 Q49.7646 13.6719 49.3037 13.9062 Q48.8428 14.1406 48.1865 14.1406 Q47.3428 14.1406 46.8428 13.6719 Q46.3428 13.2031 46.3428 12.4062 Q46.3428 11.4844 46.9678 11.0156 Q47.5928 10.5469 48.8115 10.5469 L50.0771 10.5469 L50.0771 10.4531 Q50.0771 9.8438 49.6631 9.5 Q49.249 9.1562 48.5146 9.1562 Q48.0459 9.1562 47.6006 9.2734 Q47.1553 9.3906 46.749 9.6094 L46.749 8.7812 Q47.249 8.5938 47.71 8.5 Q48.1709 8.4062 48.6084 8.4062 Q49.7959 8.4062 50.3818 9.0156 Q50.9678 9.625 50.9678 10.875 ZM56.2988 8.6875 L56.2988 9.5469 Q55.9238 9.3438 55.5176 9.25 Q55.1113 9.1562 54.6582 9.1562 Q54.002 9.1562 53.666 9.3594 Q53.3301 9.5625 53.3301 9.9688 Q53.3301 10.2812 53.5645 10.4609 Q53.7988 10.6406 54.5332 10.7969 L54.8301 10.875 Q55.7988 11.0781 56.1973 11.4531 Q56.5957 11.8281 56.5957 12.4844 Q56.5957 13.25 55.9941 13.6953 Q55.3926 14.1406 54.3457 14.1406 Q53.8926 14.1406 53.416 14.0547 Q52.9395 13.9688 52.4238 13.7969 L52.4238 12.875 Q52.9238 13.125 53.4004 13.2578 Q53.877 13.3906 54.3613 13.3906 Q54.9863 13.3906 55.3301 13.1719 Q55.6738 12.9531 55.6738 12.5625 Q55.6738 12.1875 55.4316 11.9922 Q55.1895 11.7969 54.3457 11.625 L54.0332 11.5469 Q53.2051 11.375 52.8301 11.0078 Q52.4551 10.6406 52.4551 10.0156 Q52.4551 9.2344 53.002 8.8203 Q53.5488 8.4062 54.5645 8.4062 Q55.0488 8.4062 55.4941 8.4766 Q55.9395 8.5469 56.2988 8.6875 ZM58.915 6.9844 L58.915 8.5312 L60.7744 8.5312 L60.7744 9.2344 L58.915 9.2344 L58.915 12.2031 Q58.915 12.8594 59.1025 13.0547 Q59.29 13.25 59.8525 13.25 L60.7744 13.25 L60.7744 14 L59.8525 14 Q58.8057 14 58.4072 13.6094 Q58.0088 13.2188 58.0088 12.2031 L58.0088 9.2344 L57.3525 9.2344 L57.3525 8.5312 L58.0088 8.5312 L58.0088 6.9844 L58.915 6.9844 ZM65.1172 9.375 Q64.9609 9.2812 64.7891 9.2422 Q64.6172 9.2031 64.3984 9.2031 Q63.6328 9.2031 63.2266 9.6953 Q62.8203 10.1875 62.8203 11.125 L62.8203 14 L61.9141 14 L61.9141 8.5312 L62.8203 8.5312 L62.8203 9.375 Q63.1016 8.875 63.5547 8.6406 Q64.0078 8.4062 64.6641 8.4062 Q64.7578 8.4062 64.8672 8.4141 Q64.9766 8.4219 65.1172 8.4531 L65.1172 9.375 ZM66.0566 8.5312 L66.9629 8.5312 L66.9629 14 L66.0566 14 L66.0566 8.5312 ZM66.0566 6.4062 L66.9629 6.4062 L66.9629 7.5469 L66.0566 7.5469 L66.0566 6.4062 ZM72.7725 8.7344 L72.7725 9.5781 Q72.3975 9.375 72.0146 9.2656 Q71.6318 9.1562 71.2412 9.1562 Q70.3662 9.1562 69.8818 9.7109 Q69.3975 10.2656 69.3975 11.2656 Q69.3975 12.2656 69.8818 12.8203 Q70.3662 13.375 71.2412 13.375 Q71.6318 13.375 72.0146 13.2734 Q72.3975 13.1719 72.7725 12.9531 L72.7725 13.7969 Q72.3975 13.9688 71.999 14.0547 Q71.6006 14.1406 71.1475 14.1406 Q69.8975 14.1406 69.1709 13.3672 Q68.4443 12.5938 68.4443 11.2656 Q68.4443 9.9375 69.1787 9.1719 Q69.9131 8.4062 71.1943 8.4062 Q71.6162 8.4062 72.0068 8.4844 Q72.3975 8.5625 72.7725 8.7344 ZM79.9961 11.25 Q78.918 11.25 78.4961 11.5 Q78.0742 11.75 78.0742 12.3438 Q78.0742 12.8281 78.3867 13.1094 Q78.6992 13.3906 79.2461 13.3906 Q79.9961 13.3906 80.4492 12.8594 Q80.9023 12.3281 80.9023 11.4531 L80.9023 11.25 L79.9961 11.25 ZM81.793 10.875 L81.793 14 L80.9023 14 L80.9023 13.1719 Q80.5898 13.6719 80.1289 13.9062 Q79.668 14.1406 79.0117 14.1406 Q78.168 14.1406 77.668 13.6719 Q77.168 13.2031 77.168 12.4062 Q77.168 11.4844 77.793 11.0156 Q78.418 10.5469 79.6367 10.5469 L80.9023 10.5469 L80.9023 10.4531 Q80.9023 9.8438 80.4883 9.5 Q80.0742 9.1562 79.3398 9.1562 Q78.8711 9.1562 78.4258 9.2734 Q77.9805 9.3906 77.5742 9.6094 L77.5742 8.7812 Q78.0742 8.5938 78.5352 8.5 Q78.9961 8.4062 79.4336 8.4062 Q80.6211 8.4062 81.207 9.0156 Q81.793 9.625 81.793 10.875 ZM87.5771 8.7344 L87.5771 9.5781 Q87.2021 9.375 86.8193 9.2656 Q86.4365 9.1562 86.0459 9.1562 Q85.1709 9.1562 84.6865 9.7109 Q84.2021 10.2656 84.2021 11.2656 Q84.2021 12.2656 84.6865 12.8203 Q85.1709 13.375 86.0459 13.375 Q86.4365 13.375 86.8193 13.2734 Q87.2021 13.1719 87.5771 12.9531 L87.5771 13.7969 Q87.2021 13.9688 86.8037 14.0547 Q86.4053 14.1406 85.9521 14.1406 Q84.7021 14.1406 83.9756 13.3672 Q83.249 12.5938 83.249 11.2656 Q83.249 9.9375 83.9834 9.1719 Q84.7178 8.4062 85.999 8.4062 Q86.4209 8.4062 86.8115 8.4844 Q87.2021 8.5625 87.5771 8.7344 ZM89.1377 8.5312 L90.0439 8.5312 L90.0439 14 L89.1377 14 L89.1377 8.5312 ZM89.1377 6.4062 L90.0439 6.4062 L90.0439 7.5469 L89.1377 7.5469 L89.1377 6.4062 ZM95.5254 9.3594 L95.5254 6.4062 L96.416 6.4062 L96.416 14 L95.5254 14 L95.5254 13.1719 Q95.2441 13.6719 94.8066 13.9062 Q94.3691 14.1406 93.7598 14.1406 Q92.7754 14.1406 92.1504 13.3516 Q91.5254 12.5625 91.5254 11.2656 Q91.5254 9.9844 92.1504 9.1953 Q92.7754 8.4062 93.7598 8.4062 Q94.3691 8.4062 94.8066 8.6406 Q95.2441 8.875 95.5254 9.3594 ZM92.4629 11.2656 Q92.4629 12.2656 92.8691 12.8281 Q93.2754 13.3906 93.9941 13.3906 Q94.6973 13.3906 95.1113 12.8281 Q95.5254 12.2656 95.5254 11.2656 Q95.5254 10.2812 95.1113 9.7188 Q94.6973 9.1562 93.9941 9.1562 Q93.2754 9.1562 92.8691 9.7188 Q92.4629 10.2812 92.4629 11.2656 ZM102.3174 13.1719 L102.3174 16.0781 L101.4111 16.0781 L101.4111 8.5312 L102.3174 8.5312 L102.3174 9.3594 Q102.5986 8.875 103.0283 8.6406 Q103.458 8.4062 104.0674 8.4062 Q105.0674 8.4062 105.6846 9.1953 Q106.3018 9.9844 106.3018 11.2656 Q106.3018 12.5625 105.6846 13.3516 Q105.0674 14.1406 104.0674 14.1406 Q103.458 14.1406 103.0283 13.9062 Q102.5986 13.6719 102.3174 13.1719 ZM105.3799 11.2656 Q105.3799 10.2812 104.9658 9.7188 Q104.5518 9.1562 103.8486 9.1562 Q103.1299 9.1562 102.7236 9.7188 Q102.3174 10.2812 102.3174 11.2656 Q102.3174 12.2656 102.7236 12.8281 Q103.1299 13.3906 103.8486 13.3906 Q104.5518 13.3906 104.9658 12.8281 Q105.3799 12.2656 105.3799 11.2656 ZM110.9619 9.375 Q110.8057 9.2812 110.6338 9.2422 Q110.4619 9.2031 110.2432 9.2031 Q109.4775 9.2031 109.0713 9.6953 Q108.665 10.1875 108.665 11.125 L108.665 14 L107.7588 14 L107.7588 8.5312 L108.665 8.5312 L108.665 9.375 Q108.9463 8.875 109.3994 8.6406 Q109.8525 8.4062 110.5088 8.4062 Q110.6025 8.4062 110.7119 8.4141 Q110.8213 8.4219 110.9619 8.4531 L110.9619 9.375 ZM114.0264 9.1562 Q113.3076 9.1562 112.8857 9.7188 Q112.4639 10.2812 112.4639 11.2656 Q112.4639 12.25 112.8779 12.8125 Q113.292 13.375 114.0264 13.375 Q114.7451 13.375 115.167 12.8125 Q115.5889 12.25 115.5889 11.2656 Q115.5889 10.2969 115.167 9.7266 Q114.7451 9.1562 114.0264 9.1562 ZM114.0264 8.4062 Q115.1982 8.4062 115.8701 9.1641 Q116.542 9.9219 116.542 11.2656 Q116.542 12.6094 115.8701 13.375 Q115.1982 14.1406 114.0264 14.1406 Q112.8545 14.1406 112.1826 13.375 Q111.5107 12.6094 111.5107 11.2656 Q111.5107 9.9219 112.1826 9.1641 Q112.8545 8.4062 114.0264 8.4062 ZM121.6289 9.3594 L121.6289 6.4062 L122.5195 6.4062 L122.5195 14 L121.6289 14 L121.6289 13.1719 Q121.3477 13.6719 120.9102 13.9062 Q120.4727 14.1406 119.8633 14.1406 Q118.8789 14.1406 118.2539 13.3516 Q117.6289 12.5625 117.6289 11.2656 Q117.6289 9.9844 118.2539 9.1953 Q118.8789 8.4062 119.8633 8.4062 Q120.4727 8.4062 120.9102 8.6406 Q121.3477 8.875 121.6289 9.3594 ZM118.5664 11.2656 Q118.5664 12.2656 118.9727 12.8281 Q119.3789 13.3906 120.0977 13.3906 Q120.8008 13.3906 121.2148 12.8281 Q121.6289 12.2656 121.6289 11.2656 Q121.6289 10.2812 121.2148 9.7188 Q120.8008 9.1562 120.0977 9.1562 Q119.3789 9.1562 118.9727 9.7188 Q118.5664 10.2812 118.5664 11.2656 ZM124.2734 11.8438 L124.2734 8.5312 L125.1797 8.5312 L125.1797 11.8125 Q125.1797 12.5781 125.4844 12.9688 Q125.7891 13.3594 126.3828 13.3594 Q127.1172 13.3594 127.5391 12.8984 Q127.9609 12.4375 127.9609 11.625 L127.9609 8.5312 L128.8672 8.5312 L128.8672 14 L127.9609 14 L127.9609 13.1562 Q127.6328 13.6562 127.2031 13.8984 Q126.7734 14.1406 126.1953 14.1406 Q125.2578 14.1406 124.7656 13.5547 Q124.2734 12.9688 124.2734 11.8438 ZM126.5391 8.4062 L126.5391 8.4062 ZM134.6426 8.7344 L134.6426 9.5781 Q134.2676 9.375 133.8848 9.2656 Q133.502 9.1562 133.1113 9.1562 Q132.2363 9.1562 131.752 9.7109 Q131.2676 10.2656 131.2676 11.2656 Q131.2676 12.2656 131.752 12.8203 Q132.2363 13.375 133.1113 13.375 Q133.502 13.375 133.8848 13.2734 Q134.2676 13.1719 134.6426 12.9531 L134.6426 13.7969 Q134.2676 13.9688 133.8691 14.0547 Q133.4707 14.1406 133.0176 14.1406 Q131.7676 14.1406 131.041 13.3672 Q130.3145 12.5938 130.3145 11.2656 Q130.3145 9.9375 131.0488 9.1719 Q131.7832 8.4062 133.0645 8.4062 Q133.4863 8.4062 133.877 8.4844 Q134.2676 8.5625 134.6426 8.7344 ZM137.0938 6.9844 L137.0938 8.5312 L138.9531 8.5312 L138.9531 9.2344 L137.0938 9.2344 L137.0938 12.2031 Q137.0938 12.8594 137.2812 13.0547 Q137.4688 13.25 138.0312 13.25 L138.9531 13.25 L138.9531 14 L138.0312 14 Q136.9844 14 136.5859 13.6094 Q136.1875 13.2188 136.1875 12.2031 L136.1875 9.2344 L135.5312 9.2344 L135.5312 8.5312 L136.1875 8.5312 L136.1875 6.9844 L137.0938 6.9844 ZM140.124 8.5312 L141.0303 8.5312 L141.0303 14 L140.124 14 L140.124 8.5312 ZM140.124 6.4062 L141.0303 6.4062 L141.0303 7.5469 L140.124 7.5469 L140.124 6.4062 ZM145.0273 9.1562 Q144.3086 9.1562 143.8867 9.7188 Q143.4648 10.2812 143.4648 11.2656 Q143.4648 12.25 143.8789 12.8125 Q144.293 13.375 145.0273 13.375 Q145.7461 13.375 146.168 12.8125 Q146.5898 12.25 146.5898 11.2656 Q146.5898 10.2969 146.168 9.7266 Q145.7461 9.1562 145.0273 9.1562 ZM145.0273 8.4062 Q146.1992 8.4062 146.8711 9.1641 Q147.543 9.9219 147.543 11.2656 Q147.543 12.6094 146.8711 13.375 Q146.1992 14.1406 145.0273 14.1406 Q143.8555 14.1406 143.1836 13.375 Q142.5117 12.6094 142.5117 11.2656 Q142.5117 9.9219 143.1836 9.1641 Q143.8555 8.4062 145.0273 8.4062 ZM153.5674 10.7031 L153.5674 14 L152.6768 14 L152.6768 10.7344 Q152.6768 9.9531 152.3721 9.5703 Q152.0674 9.1875 151.458 9.1875 Q150.7393 9.1875 150.3174 9.6484 Q149.8955 10.1094 149.8955 10.9062 L149.8955 14 L148.9893 14 L148.9893 8.5312 L149.8955 8.5312 L149.8955 9.375 Q150.2236 8.8906 150.6611 8.6484 Q151.0986 8.4062 151.6611 8.4062 Q152.5986 8.4062 153.083 8.9844 Q153.5674 9.5625 153.5674 10.7031 Z"
         style="clip-path:url(#clipPath2); stroke:none;"
         clip-path="url(#clipPath2)"
         id="path214" />
      <path
         d="M4.25 21.9375 Q3.3906 21.9375 2.9141 22.5703 Q2.4375 23.2031 2.4375 24.3594 Q2.4375 25.5156 2.9141 26.1484 Q3.3906 26.7812 4.25 26.7812 Q5.1094 26.7812 5.5859 26.1484 Q6.0625 25.5156 6.0625 24.3594 Q6.0625 23.2031 5.5859 22.5703 Q5.1094 21.9375 4.25 21.9375 ZM4.25 20.5781 Q6 20.5781 7 21.5859 Q8 22.5938 8 24.3594 Q8 26.125 7 27.1328 Q6 28.1406 4.25 28.1406 Q2.5 28.1406 1.5 27.1328 Q0.5 26.125 0.5 24.3594 Q0.5 22.5938 1.5 21.5859 Q2.5 20.5781 4.25 20.5781 ZM13.4072 24.0156 Q13.1729 23.9062 12.9463 23.8594 Q12.7197 23.8125 12.4854 23.8125 Q11.8135 23.8125 11.4541 24.2422 Q11.0947 24.6719 11.0947 25.4844 L11.0947 28 L9.3447 28 L9.3447 22.5312 L11.0947 22.5312 L11.0947 23.4219 Q11.4229 22.8906 11.8604 22.6484 Q12.2979 22.4062 12.9072 22.4062 Q13.001 22.4062 13.1025 22.4062 Q13.2041 22.4062 13.3916 22.4375 L13.4072 24.0156 ZM17.9951 27.0781 Q17.6357 27.5469 17.1982 27.7734 Q16.7607 28 16.1982 28 Q15.1982 28 14.542 27.2109 Q13.8857 26.4219 13.8857 25.2031 Q13.8857 23.9688 14.542 23.1875 Q15.1982 22.4062 16.1982 22.4062 Q16.7607 22.4062 17.1982 22.6328 Q17.6357 22.8594 17.9951 23.3438 L17.9951 22.5312 L19.7451 22.5312 L19.7451 27.4531 Q19.7451 28.7656 18.917 29.4609 Q18.0889 30.1562 16.5107 30.1562 Q15.9951 30.1562 15.5186 30.0781 Q15.042 30 14.5576 29.8438 L14.5576 28.4844 Q15.0107 28.75 15.4482 28.875 Q15.8857 29 16.3389 29 Q17.1982 29 17.5967 28.625 Q17.9951 28.25 17.9951 27.4531 L17.9951 27.0781 ZM16.8389 23.6719 Q16.292 23.6719 15.9951 24.0703 Q15.6982 24.4688 15.6982 25.2031 Q15.6982 25.9531 15.9873 26.3438 Q16.2764 26.7344 16.8389 26.7344 Q17.3857 26.7344 17.6904 26.3281 Q17.9951 25.9219 17.9951 25.2031 Q17.9951 24.4688 17.6904 24.0703 Q17.3857 23.6719 16.8389 23.6719 ZM23.8877 25.5312 Q23.3408 25.5312 23.0596 25.7188 Q22.7783 25.9062 22.7783 26.2656 Q22.7783 26.6094 23.0049 26.7969 Q23.2314 26.9844 23.6221 26.9844 Q24.1221 26.9844 24.458 26.625 Q24.7939 26.2656 24.7939 25.7344 L24.7939 25.5312 L23.8877 25.5312 ZM26.5596 24.875 L26.5596 28 L24.7939 28 L24.7939 27.1875 Q24.4346 27.6875 23.9971 27.9141 Q23.5596 28.1406 22.9346 28.1406 Q22.0752 28.1406 21.5518 27.6484 Q21.0283 27.1562 21.0283 26.3594 Q21.0283 25.3906 21.6846 24.9453 Q22.3408 24.5 23.7627 24.5 L24.7939 24.5 L24.7939 24.3594 Q24.7939 23.9531 24.4658 23.7578 Q24.1377 23.5625 23.4502 23.5625 Q22.8877 23.5625 22.4033 23.6719 Q21.9189 23.7812 21.4971 24.0156 L21.4971 22.6719 Q22.0596 22.5469 22.6299 22.4766 Q23.2002 22.4062 23.7627 22.4062 Q25.2471 22.4062 25.9033 22.9844 Q26.5596 23.5625 26.5596 24.875 ZM33.6826 24.6719 L33.6826 28 L31.917 28 L31.917 27.4531 L31.917 25.4531 Q31.917 24.75 31.8857 24.4766 Q31.8545 24.2031 31.7764 24.0781 Q31.6826 23.9062 31.5029 23.8125 Q31.3232 23.7188 31.1045 23.7188 Q30.5576 23.7188 30.2451 24.1406 Q29.9326 24.5625 29.9326 25.3125 L29.9326 28 L28.1826 28 L28.1826 22.5312 L29.9326 22.5312 L29.9326 23.3281 Q30.3232 22.8594 30.7686 22.6328 Q31.2139 22.4062 31.7451 22.4062 Q32.6982 22.4062 33.1904 22.9844 Q33.6826 23.5625 33.6826 24.6719 ZM35.3018 22.5312 L37.0518 22.5312 L37.0518 28 L35.3018 28 L35.3018 22.5312 ZM35.3018 20.4062 L37.0518 20.4062 L37.0518 21.8281 L35.3018 21.8281 L35.3018 20.4062 ZM42.9951 22.7031 L42.9951 24.0312 Q42.4326 23.7969 41.9092 23.6797 Q41.3857 23.5625 40.9326 23.5625 Q40.4326 23.5625 40.1904 23.6875 Q39.9482 23.8125 39.9482 24.0625 Q39.9482 24.2812 40.1279 24.3906 Q40.3076 24.5 40.792 24.5625 L41.0889 24.5938 Q42.4326 24.7656 42.9014 25.1562 Q43.3701 25.5469 43.3701 26.3906 Q43.3701 27.2656 42.7217 27.7031 Q42.0732 28.1406 40.792 28.1406 Q40.2607 28.1406 39.6826 28.0547 Q39.1045 27.9688 38.4795 27.7969 L38.4795 26.4688 Q39.0107 26.7188 39.5576 26.8516 Q40.1045 26.9844 40.667 26.9844 Q41.1826 26.9844 41.4404 26.8438 Q41.6982 26.7031 41.6982 26.4219 Q41.6982 26.1875 41.5264 26.0703 Q41.3545 25.9531 40.8232 25.8906 L40.5107 25.8438 Q39.3389 25.7031 38.8701 25.3047 Q38.4014 24.9062 38.4014 24.1094 Q38.4014 23.2344 38.9951 22.8203 Q39.5889 22.4062 40.8232 22.4062 Q41.3076 22.4062 41.8389 22.4766 Q42.3701 22.5469 42.9951 22.7031 ZM49.7441 23.4375 Q50.0723 22.9375 50.5332 22.6719 Q50.9941 22.4062 51.541 22.4062 Q52.4785 22.4062 52.9707 22.9844 Q53.4629 23.5625 53.4629 24.6719 L53.4629 28 L51.7129 28 L51.7129 25.1406 Q51.7129 25.0781 51.7129 25.0156 Q51.7129 24.9531 51.7129 24.8281 Q51.7129 24.2344 51.5488 23.9766 Q51.3848 23.7188 50.9941 23.7188 Q50.4941 23.7188 50.2285 24.125 Q49.9629 24.5312 49.9473 25.3125 L49.9473 28 L48.1816 28 L48.1816 25.1406 Q48.1816 24.2344 48.0254 23.9766 Q47.8691 23.7188 47.4785 23.7188 Q46.9785 23.7188 46.7051 24.1328 Q46.4316 24.5469 46.4316 25.3125 L46.4316 28 L44.666 28 L44.666 22.5312 L46.4316 22.5312 L46.4316 23.3281 Q46.7441 22.875 47.166 22.6406 Q47.5879 22.4062 48.0879 22.4062 Q48.6504 22.4062 49.0879 22.6797 Q49.5254 22.9531 49.7441 23.4375 ZM55.3828 22.5312 L57.1328 22.5312 L57.1328 24.4219 L55.3828 24.4219 L55.3828 22.5312 ZM55.3828 26.1094 L57.1328 26.1094 L57.1328 28 L55.3828 28 L55.3828 26.1094 Z"
         style="clip-path:url(#clipPath2); stroke:none;"
         clip-path="url(#clipPath2)"
         id="path216" />
      <path
         d="M66.9844 20.7031 L67.9688 20.7031 L67.9688 23.7031 L71.5469 23.7031 L71.5469 20.7031 L72.5312 20.7031 L72.5312 28 L71.5469 28 L71.5469 24.5312 L67.9688 24.5312 L67.9688 28 L66.9844 28 L66.9844 20.7031 ZM76.582 23.1562 Q75.8633 23.1562 75.4414 23.7188 Q75.0195 24.2812 75.0195 25.2656 Q75.0195 26.25 75.4336 26.8125 Q75.8477 27.375 76.582 27.375 Q77.3008 27.375 77.7227 26.8125 Q78.1445 26.25 78.1445 25.2656 Q78.1445 24.2969 77.7227 23.7266 Q77.3008 23.1562 76.582 23.1562 ZM76.582 22.4062 Q77.7539 22.4062 78.4258 23.1641 Q79.0977 23.9219 79.0977 25.2656 Q79.0977 26.6094 78.4258 27.375 Q77.7539 28.1406 76.582 28.1406 Q75.4102 28.1406 74.7383 27.375 Q74.0664 26.6094 74.0664 25.2656 Q74.0664 23.9219 74.7383 23.1641 Q75.4102 22.4062 76.582 22.4062 ZM84.8408 23.5781 Q85.1689 22.9688 85.6377 22.6875 Q86.1064 22.4062 86.7471 22.4062 Q87.6064 22.4062 88.0674 23 Q88.5283 23.5938 88.5283 24.7031 L88.5283 28 L87.6221 28 L87.6221 24.7344 Q87.6221 23.9375 87.3486 23.5625 Q87.0752 23.1875 86.4971 23.1875 Q85.7939 23.1875 85.3955 23.6484 Q84.9971 24.1094 84.9971 24.9062 L84.9971 28 L84.0908 28 L84.0908 24.7344 Q84.0908 23.9375 83.8096 23.5625 Q83.5283 23.1875 82.9502 23.1875 Q82.2627 23.1875 81.8564 23.6484 Q81.4502 24.1094 81.4502 24.9062 L81.4502 28 L80.5439 28 L80.5439 22.5312 L81.4502 22.5312 L81.4502 23.375 Q81.7627 22.875 82.1924 22.6406 Q82.6221 22.4062 83.2002 22.4062 Q83.8096 22.4062 84.2236 22.7031 Q84.6377 23 84.8408 23.5781 ZM92.4414 23.1562 Q91.7227 23.1562 91.3008 23.7188 Q90.8789 24.2812 90.8789 25.2656 Q90.8789 26.25 91.293 26.8125 Q91.707 27.375 92.4414 27.375 Q93.1602 27.375 93.582 26.8125 Q94.0039 26.25 94.0039 25.2656 Q94.0039 24.2969 93.582 23.7266 Q93.1602 23.1562 92.4414 23.1562 ZM92.4414 22.4062 Q93.6133 22.4062 94.2852 23.1641 Q94.957 23.9219 94.957 25.2656 Q94.957 26.6094 94.2852 27.375 Q93.6133 28.1406 92.4414 28.1406 Q91.2695 28.1406 90.5977 27.375 Q89.9258 26.6094 89.9258 25.2656 Q89.9258 23.9219 90.5977 23.1641 Q91.2695 22.4062 92.4414 22.4062 ZM103.0977 22.6875 L103.0977 23.5469 Q102.7227 23.3438 102.3164 23.25 Q101.9102 23.1562 101.457 23.1562 Q100.8008 23.1562 100.4648 23.3594 Q100.1289 23.5625 100.1289 23.9688 Q100.1289 24.2812 100.3633 24.4609 Q100.5977 24.6406 101.332 24.7969 L101.6289 24.875 Q102.5977 25.0781 102.9961 25.4531 Q103.3945 25.8281 103.3945 26.4844 Q103.3945 27.25 102.793 27.6953 Q102.1914 28.1406 101.1445 28.1406 Q100.6914 28.1406 100.2148 28.0547 Q99.7383 27.9688 99.2227 27.7969 L99.2227 26.875 Q99.7227 27.125 100.1992 27.2578 Q100.6758 27.3906 101.1602 27.3906 Q101.7852 27.3906 102.1289 27.1719 Q102.4727 26.9531 102.4727 26.5625 Q102.4727 26.1875 102.2305 25.9922 Q101.9883 25.7969 101.1445 25.625 L100.832 25.5469 Q100.0039 25.375 99.6289 25.0078 Q99.2539 24.6406 99.2539 24.0156 Q99.2539 23.2344 99.8008 22.8203 Q100.3477 22.4062 101.3633 22.4062 Q101.8477 22.4062 102.293 22.4766 Q102.7383 22.5469 103.0977 22.6875 ZM107.3076 25.25 Q106.2295 25.25 105.8076 25.5 Q105.3857 25.75 105.3857 26.3438 Q105.3857 26.8281 105.6982 27.1094 Q106.0107 27.3906 106.5576 27.3906 Q107.3076 27.3906 107.7607 26.8594 Q108.2139 26.3281 108.2139 25.4531 L108.2139 25.25 L107.3076 25.25 ZM109.1045 24.875 L109.1045 28 L108.2139 28 L108.2139 27.1719 Q107.9014 27.6719 107.4404 27.9062 Q106.9795 28.1406 106.3232 28.1406 Q105.4795 28.1406 104.9795 27.6719 Q104.4795 27.2031 104.4795 26.4062 Q104.4795 25.4844 105.1045 25.0156 Q105.7295 24.5469 106.9482 24.5469 L108.2139 24.5469 L108.2139 24.4531 Q108.2139 23.8438 107.7998 23.5 Q107.3857 23.1562 106.6514 23.1562 Q106.1826 23.1562 105.7373 23.2734 Q105.292 23.3906 104.8857 23.6094 L104.8857 22.7812 Q105.3857 22.5938 105.8467 22.5 Q106.3076 22.4062 106.7451 22.4062 Q107.9326 22.4062 108.5186 23.0156 Q109.1045 23.625 109.1045 24.875 ZM111.8262 27.1719 L111.8262 30.0781 L110.9199 30.0781 L110.9199 22.5312 L111.8262 22.5312 L111.8262 23.3594 Q112.1074 22.875 112.5371 22.6406 Q112.9668 22.4062 113.5762 22.4062 Q114.5762 22.4062 115.1934 23.1953 Q115.8105 23.9844 115.8105 25.2656 Q115.8105 26.5625 115.1934 27.3516 Q114.5762 28.1406 113.5762 28.1406 Q112.9668 28.1406 112.5371 27.9062 Q112.1074 27.6719 111.8262 27.1719 ZM114.8887 25.2656 Q114.8887 24.2812 114.4746 23.7188 Q114.0605 23.1562 113.3574 23.1562 Q112.6387 23.1562 112.2324 23.7188 Q111.8262 24.2812 111.8262 25.2656 Q111.8262 26.2656 112.2324 26.8281 Q112.6387 27.3906 113.3574 27.3906 Q114.0605 27.3906 114.4746 26.8281 Q114.8887 26.2656 114.8887 25.2656 ZM117.2988 22.5312 L118.2051 22.5312 L118.2051 28 L117.2988 28 L117.2988 22.5312 ZM117.2988 20.4062 L118.2051 20.4062 L118.2051 21.5469 L117.2988 21.5469 L117.2988 20.4062 ZM124.7646 25.0469 L124.7646 25.4844 L120.624 25.4844 Q120.6865 26.4062 121.1865 26.8906 Q121.6865 27.375 122.5771 27.375 Q123.0928 27.375 123.585 27.25 Q124.0771 27.125 124.5459 26.875 L124.5459 27.7188 Q124.0615 27.9219 123.5537 28.0312 Q123.0459 28.1406 122.5303 28.1406 Q121.2178 28.1406 120.4521 27.3828 Q119.6865 26.625 119.6865 25.3125 Q119.6865 23.9688 120.4131 23.1875 Q121.1396 22.4062 122.374 22.4062 Q123.4834 22.4062 124.124 23.1094 Q124.7646 23.8125 124.7646 25.0469 ZM123.8584 24.7812 Q123.8584 24.0469 123.4521 23.6016 Q123.0459 23.1562 122.3896 23.1562 Q121.624 23.1562 121.1787 23.5859 Q120.7334 24.0156 120.6553 24.7812 L123.8584 24.7812 ZM130.7764 24.7031 L130.7764 28 L129.8857 28 L129.8857 24.7344 Q129.8857 23.9531 129.5811 23.5703 Q129.2764 23.1875 128.667 23.1875 Q127.9482 23.1875 127.5264 23.6484 Q127.1045 24.1094 127.1045 24.9062 L127.1045 28 L126.1982 28 L126.1982 22.5312 L127.1045 22.5312 L127.1045 23.375 Q127.4326 22.8906 127.8701 22.6484 Q128.3076 22.4062 128.8701 22.4062 Q129.8076 22.4062 130.292 22.9844 Q130.7764 23.5625 130.7764 24.7031 ZM136.0518 22.6875 L136.0518 23.5469 Q135.6768 23.3438 135.2705 23.25 Q134.8643 23.1562 134.4111 23.1562 Q133.7549 23.1562 133.4189 23.3594 Q133.083 23.5625 133.083 23.9688 Q133.083 24.2812 133.3174 24.4609 Q133.5518 24.6406 134.2861 24.7969 L134.583 24.875 Q135.5518 25.0781 135.9502 25.4531 Q136.3486 25.8281 136.3486 26.4844 Q136.3486 27.25 135.7471 27.6953 Q135.1455 28.1406 134.0986 28.1406 Q133.6455 28.1406 133.1689 28.0547 Q132.6924 27.9688 132.1768 27.7969 L132.1768 26.875 Q132.6768 27.125 133.1533 27.2578 Q133.6299 27.3906 134.1143 27.3906 Q134.7393 27.3906 135.083 27.1719 Q135.4268 26.9531 135.4268 26.5625 Q135.4268 26.1875 135.1846 25.9922 Q134.9424 25.7969 134.0986 25.625 L133.7861 25.5469 Q132.958 25.375 132.583 25.0078 Q132.208 24.6406 132.208 24.0156 Q132.208 23.2344 132.7549 22.8203 Q133.3018 22.4062 134.3174 22.4062 Q134.8018 22.4062 135.2471 22.4766 Q135.6924 22.5469 136.0518 22.6875 Z"
         style="clip-path:url(#clipPath2); stroke:none;"
         clip-path="url(#clipPath2)"
         id="path218" />
    </g>
    <g
       style="text-rendering:geometricPrecision;"
       id="g228">
      <path
         d="M168.5 468 L98.3023 230.6305"
         style="fill:none; clip-path:url(#clipPath3);"
         clip-path="url(#clipPath3)"
         id="path222" />
      <path
         d="M93.3158 232.1052 L94.9843 219.4108 L103.2888 229.1558 Z"
         style="fill:white; clip-path:url(#clipPath3); stroke:none;"
         clip-path="url(#clipPath3)"
         id="path224" />
      <path
         d="M93.3158 232.1052 L94.9843 219.4108 L103.2888 229.1558 Z"
         style="fill:none; clip-path:url(#clipPath3);"
         clip-path="url(#clipPath3)"
         id="path226" />
    </g>
    <g
       style="text-rendering:geometricPrecision;"
       id="g236">
      <path
         d="M486 357 L745.8843 663.9315"
         style="fill:none; clip-path:url(#clipPath4);"
         clip-path="url(#clipPath4)"
         id="path230" />
      <path
         d="M749.8528 660.5712 L753.4447 672.8606 L741.9158 667.2916 Z"
         style="fill:white; clip-path:url(#clipPath4); stroke:none;"
         clip-path="url(#clipPath4)"
         id="path232" />
      <path
         d="M749.8528 660.5712 L753.4447 672.8606 L741.9158 667.2916 Z"
         style="fill:none; clip-path:url(#clipPath4);"
         clip-path="url(#clipPath4)"
         id="path234" />
    </g>
    <g
       style="text-rendering:geometricPrecision;"
       id="g244">
      <path
         d="M725 334 L455.0988 726.5836"
         style="fill:none; clip-path:url(#clipPath5);"
         clip-path="url(#clipPath5)"
         id="path238" />
      <path
         d="M459.3838 729.5296 L448.4704 736.2249 L450.8138 723.6377 Z"
         style="fill:white; clip-path:url(#clipPath5); stroke:none;"
         clip-path="url(#clipPath5)"
         id="path240" />
      <path
         d="M459.3838 729.5296 L448.4704 736.2249 L450.8138 723.6377 Z"
         style="fill:none; clip-path:url(#clipPath5);"
         clip-path="url(#clipPath5)"
         id="path242" />
    </g>
    <g
       style="text-rendering:geometricPrecision;"
       id="g250">
      <path
         d="M450 734 L450 491"
         style="fill:none; clip-path:url(#clipPath6);"
         clip-path="url(#clipPath6)"
         id="path246" />
      <path
         d="M450 491 L444.8 502.7 L455.2 502.7 Z"
         style="clip-path:url(#clipPath6); fill-rule:evenodd; stroke:none;"
         clip-path="url(#clipPath6)"
         id="path248" />
    </g>
    <g
       style="text-rendering:geometricPrecision;"
       id="g256">
      <path
         d="M745 334 L745.9416 479.0002"
         style="fill:none; clip-path:url(#clipPath7);"
         clip-path="url(#clipPath7)"
         id="path252" />
      <path
         d="M751.1415 478.9664 L746.0175 490.7 L740.7417 479.034 Z"
         style="clip-path:url(#clipPath7); stroke:none;"
         clip-path="url(#clipPath7)"
         id="path254" />
    </g>
    <g
       style="text-rendering:geometricPrecision;"
       id="g264">
      <path
         d="M168.5 492 L441.9967 632.6832"
         style="fill:none; clip-path:url(#clipPath8);"
         clip-path="url(#clipPath8)"
         id="path258" />
      <path
         d="M444.3753 628.0591 L452.401 638.035 L439.6182 637.3073 Z"
         style="fill:white; clip-path:url(#clipPath8); stroke:none;"
         clip-path="url(#clipPath8)"
         id="path260" />
      <path
         d="M444.3753 628.0591 L452.401 638.035 L439.6182 637.3073 Z"
         style="fill:none; clip-path:url(#clipPath8);"
         clip-path="url(#clipPath8)"
         id="path262" />
    </g>
    <g
       style="text-rendering:geometricPrecision;"
       id="g270">
      <path
         d="M107.75 724.25 L59 490"
         style="fill:none; clip-path:url(#clipPath9);"
         clip-path="url(#clipPath9)"
         id="path266" />
      <path
         d="M59 490 L56.2929 502.5141 L66.4747 500.3951 Z"
         style="clip-path:url(#clipPath9); fill-rule:evenodd; stroke:none;"
         clip-path="url(#clipPath9)"
         id="path268" />
    </g>
    <g
       style="text-rendering:geometricPrecision;"
       id="g278">
      <path
         d="M59 470 L94.4307 230.9028"
         style="fill:none; clip-path:url(#clipPath10);"
         clip-path="url(#clipPath10)"
         id="path272" />
      <path
         d="M89.2869 230.1405 L96.1458 219.3292 L99.5746 231.665 Z"
         style="fill:white; clip-path:url(#clipPath10); stroke:none;"
         clip-path="url(#clipPath10)"
         id="path274" />
      <path
         d="M89.2869 230.1405 L96.1458 219.3292 L99.5746 231.665 Z"
         style="fill:none; clip-path:url(#clipPath10);"
         clip-path="url(#clipPath10)"
         id="path276" />
    </g>
    <g
       style="text-rendering:geometricPrecision;"
       id="g286">
      <path
         d="M308 490 L161.3876 716.6928"
         style="fill:none; clip-path:url(#clipPath11);"
         clip-path="url(#clipPath11)"
         id="path280" />
      <path
         d="M165.754 719.5167 L155.0337 726.5172 L157.0212 713.8688 Z"
         style="fill:white; clip-path:url(#clipPath11); stroke:none;"
         clip-path="url(#clipPath11)"
         id="path282" />
      <path
         d="M165.754 719.5167 L155.0337 726.5172 L157.0212 713.8688 Z"
         style="fill:none; clip-path:url(#clipPath11);"
         clip-path="url(#clipPath11)"
         id="path284" />
    </g>
    <g
       style="text-rendering:geometricPrecision;"
       id="g294">
      <path
         d="M430 491 L211.4948 717.769"
         style="fill:none; clip-path:url(#clipPath12);"
         clip-path="url(#clipPath12)"
         id="path288" />
      <path
         d="M215.2393 721.3771 L203.3766 726.1943 L207.7502 714.1609 Z"
         style="fill:white; clip-path:url(#clipPath12); stroke:none;"
         clip-path="url(#clipPath12)"
         id="path290" />
      <path
         d="M215.2393 721.3771 L203.3766 726.1943 L207.7502 714.1609 Z"
         style="fill:none; clip-path:url(#clipPath12);"
         clip-path="url(#clipPath12)"
         id="path292" />
    </g>
    <g
       style="text-rendering:geometricPrecision;"
       id="g302">
      <path
         d="M450 469 L176.0071 227.9448"
         style="fill:none; clip-path:url(#clipPath13);"
         clip-path="url(#clipPath13)"
         id="path296" />
      <path
         d="M172.5723 231.849 L167.2229 220.2166 L179.4419 224.0407 Z"
         style="fill:white; clip-path:url(#clipPath13); stroke:none;"
         clip-path="url(#clipPath13)"
         id="path298" />
      <path
         d="M172.5723 231.849 L167.2229 220.2166 L179.4419 224.0407 Z"
         style="fill:none; clip-path:url(#clipPath13);"
         clip-path="url(#clipPath13)"
         id="path300" />
    </g>
    <g
       style="text-rendering:geometricPrecision;"
       id="g310">
      <path
         d="M353 225.5 L212.9707 212.6402"
         style="fill:none; clip-path:url(#clipPath14);"
         clip-path="url(#clipPath14)"
         id="path304" />
      <path
         d="M212.1385 221.702 L210.8439 221.5831 L212.6272 202.1649 L213.9218 202.2837 L212.1385 221.702 Z"
         style="fill:white; clip-path:url(#clipPath14); stroke:none;"
         clip-path="url(#clipPath14)"
         id="path306" />
      <path
         d="M212.1385 221.702 L210.8439 221.5831 L212.6272 202.1649 L213.9218 202.2837 L212.1385 221.702 Z"
         style="fill:none; clip-path:url(#clipPath14);"
         clip-path="url(#clipPath14)"
         id="path308" />
    </g>
    <g
       style="text-rendering:geometricPrecision;"
       id="g318">
      <path
         d="M308 470 L137.6989 229.3465"
         style="fill:none; clip-path:url(#clipPath15);"
         clip-path="url(#clipPath15)"
         id="path312" />
      <path
         d="M133.4542 232.3503 L130.9403 219.796 L141.9435 226.3428 Z"
         style="fill:white; clip-path:url(#clipPath15); stroke:none;"
         clip-path="url(#clipPath15)"
         id="path314" />
      <path
         d="M133.4542 232.3503 L130.9403 219.796 L141.9435 226.3428 Z"
         style="fill:none; clip-path:url(#clipPath15);"
         clip-path="url(#clipPath15)"
         id="path316" />
    </g>
    <g
       style="text-rendering:geometricPrecision;"
       id="g326">
      <path
         d="M705 323 L178.0942 223.6673"
         style="fill:none; clip-path:url(#clipPath16);"
         clip-path="url(#clipPath16)"
         id="path320" />
      <path
         d="M177.1309 228.7773 L166.5967 221.4998 L179.0576 218.5573 Z"
         style="fill:white; clip-path:url(#clipPath16); stroke:none;"
         clip-path="url(#clipPath16)"
         id="path322" />
      <path
         d="M177.1309 228.7773 L166.5967 221.4998 L179.0576 218.5573 Z"
         style="fill:none; clip-path:url(#clipPath16);"
         clip-path="url(#clipPath16)"
         id="path324" />
    </g>
    <g
       style="text-rendering:geometricPrecision;"
       id="g334">
      <path
         d="M486 357 L736.498 394.2753"
         style="fill:none; clip-path:url(#clipPath17);"
         clip-path="url(#clipPath17)"
         id="path328" />
      <path
         d="M737.2634 389.132 L748.0706 395.9974 L735.7327 399.4187 ZM729.5483 387.9839 L728.0176 398.2707"
         style="fill:white; clip-path:url(#clipPath17); stroke:none;"
         clip-path="url(#clipPath17)"
         id="path330" />
      <path
         d="M737.2634 389.132 L748.0706 395.9974 L735.7327 399.4187 ZM729.5483 387.9839 L728.0176 398.2707"
         style="fill:none; clip-path:url(#clipPath17);"
         clip-path="url(#clipPath17)"
         id="path332" />
    </g>
    <g
       style="text-rendering:geometricPrecision;"
       id="g340">
      <path
         d="M754.5 720 L747.5 597"
         style="fill:none; clip-path:url(#clipPath18);"
         clip-path="url(#clipPath18)"
         id="path336" />
      <path
         d="M747.5 597 L742.9732 608.9766 L753.3564 608.3856 Z"
         style="clip-path:url(#clipPath18); fill-rule:evenodd; stroke:none;"
         clip-path="url(#clipPath18)"
         id="path338" />
    </g>
    <g
       style="text-rendering:geometricPrecision;"
       id="g346">
      <path
         d="M95.75 222 L76 78"
         style="fill:none; clip-path:url(#clipPath19);"
         clip-path="url(#clipPath19)"
         id="path342" />
      <path
         d="M76 78 L72.438 90.2981 L82.7416 88.8849 Z"
         style="clip-path:url(#clipPath19); fill-rule:evenodd; stroke:none;"
         clip-path="url(#clipPath19)"
         id="path344" />
    </g>
    <g
       style="text-rendering:geometricPrecision;"
       id="g352">
      <path
         d="M206 212 L436 311"
         style="fill:none; clip-path:url(#clipPath20);"
         clip-path="url(#clipPath20)"
         id="path348" />
      <path
         d="M436 311 L427.3092 301.5979 L423.1974 311.1505 Z"
         style="clip-path:url(#clipPath20); fill-rule:evenodd; stroke:none;"
         clip-path="url(#clipPath20)"
         id="path350" />
    </g>
    <g
       style="text-rendering:geometricPrecision;"
       id="g360">
      <path
         d="M168.5 492 L156.9644 715.262"
         style="fill:none; clip-path:url(#clipPath21);"
         clip-path="url(#clipPath21)"
         id="path354" />
      <path
         d="M162.1575 715.5303 L156.3607 726.9464 L151.7713 714.9937 Z"
         style="fill:white; clip-path:url(#clipPath21); stroke:none;"
         clip-path="url(#clipPath21)"
         id="path356" />
      <path
         d="M162.1575 715.5303 L156.3607 726.9464 L151.7713 714.9937 Z"
         style="fill:none; clip-path:url(#clipPath21);"
         clip-path="url(#clipPath21)"
         id="path358" />
    </g>
    <g
       style="text-rendering:geometricPrecision;"
       id="g366">
      <path
         d="M745 219 L745 312"
         style="fill:none; clip-path:url(#clipPath22);"
         clip-path="url(#clipPath22)"
         id="path362" />
      <path
         d="M745 312 L750.2 300.3 L739.8 300.3 Z"
         style="clip-path:url(#clipPath22); fill-rule:evenodd; stroke:none;"
         clip-path="url(#clipPath22)"
         id="path364" />
    </g>
    <g
       style="text-rendering:geometricPrecision;"
       id="g374">
      <path
         d="M308 470 L444.1659 629.947"
         style="fill:none; clip-path:url(#clipPath23);"
         clip-path="url(#clipPath23)"
         id="path368" />
      <path
         d="M448.1254 626.5762 L451.7502 638.8559 L440.2064 633.3178 Z"
         style="fill:white; clip-path:url(#clipPath23); stroke:none;"
         clip-path="url(#clipPath23)"
         id="path370" />
      <path
         d="M448.1254 626.5762 L451.7502 638.8559 L440.2064 633.3178 Z"
         style="fill:none; clip-path:url(#clipPath23);"
         clip-path="url(#clipPath23)"
         id="path372" />
    </g>
    <g
       style="fill:navy; text-rendering:geometricPrecision; font-size:8; stroke:navy;"
       id="g378">
      <text
         x="736"
         xml:space="preserve"
         y="631"
         style="clip-path:url(#clipPath25); stroke:none;"
         clip-path="url(#clipPath25)"
         id="text376">2, 3</text>
    </g>
    <g
       style="fill:navy; text-rendering:geometricPrecision; font-size:8; stroke:navy;"
       id="g382">
      <text
         x="265"
         xml:space="preserve"
         y="651"
         style="clip-path:url(#clipPath27); stroke:none;"
         clip-path="url(#clipPath27)"
         id="text380">1</text>
    </g>
    <g
       style="fill:navy; text-rendering:geometricPrecision; font-size:8; stroke:navy;"
       id="g386">
      <text
         x="66"
         xml:space="preserve"
         y="557"
         style="clip-path:url(#clipPath29); stroke:none;"
         clip-path="url(#clipPath29)"
         id="text384">1</text>
    </g>
    <g
       style="fill:silver; text-rendering:geometricPrecision; stroke:silver;"
       id="g390">
      <path
         d="M361.5 677.5 L361.5 677.5 L361.5 677.5 L363 677.5 L363 679 L363 812.5 L363 814 L361.5 814 L358.5 814 L358.5 812.5 L358.5 811 L361.5 811 L363 811 L363 812.5 C363 815.5374 365.4625 818 368.5 818 L370 818 L370 819.5 L370 822.5 L368.5 822.5 L367 822.5 L367 819.5 L367 818 L368.5 818 L558 818 L559.5 818 L559.5 819.5 L559.5 822.5 L558 822.5 L556.5 822.5 L556.5 819.5 L556.5 818 L558 818 C561.0374 818 563.5 815.5374 563.5 812.5 L563.5 811 L565 811 L568 811 L568 812.5 L568 814 L565 814 L563.5 814 L563.5 812.5 L563.5 679 L563.5 677.5 L565 677.5 L568 677.5 L568 679 L568 680.5 L565 680.5 L563.5 680.5 L563.5 679 C563.5 675.9626 561.0374 673.5 558 673.5 L556.5 673.5 L556.5 672 L556.5 669 L558 669 L559.5 669 L559.5 672 L559.5 673.5 L558 673.5 L368.5 673.5 L367 673.5 L367 672 L367 669 L368.5 669 L370 669 L370 672 L370 673.5 L368.5 673.5 C365.4626 673.5 363 675.9626 363 679 L363 680.5 L361.5 680.5 L358.5 680.5 L358.5 679 L358.5 677.5 L361.5 677.5 L363 677.5 L363 680.5 L361.5 680.5 L358.5 680.5 L358.5 677.5 L361.5 677.5 L361.5 679 L360 679 C360 674.3057 363.8058 670.5 368.5 670.5 L368.5 672 L367 672 L367 669 L370 669 L370 672 L368.5 672 L368.5 670.5 L558 670.5 L558 672 L556.5 672 L556.5 669 L559.5 669 L559.5 672 L558 672 L558 670.5 C562.6943 670.5 566.5 674.3057 566.5 679 L565 679 L565 677.5 L568 677.5 L568 680.5 L565 680.5 L565 679 L566.5 679 L566.5 812.5 L565 812.5 L565 811 L568 811 L568 814 L565 814 L565 812.5 L566.5 812.5 C566.5 817.1943 562.6943 821 558 821 L558 819.5 L559.5 819.5 L559.5 822.5 L556.5 822.5 L556.5 819.5 L558 819.5 L558 821 L368.5 821 L368.5 819.5 L370 819.5 L370 822.5 L367 822.5 L367 819.5 L368.5 819.5 L368.5 821 C363.8056 821 360 817.1943 360 812.5 L361.5 812.5 L361.5 814 L358.5 814 L358.5 811 L361.5 811 L361.5 812.5 L360 812.5 L360 679 L361.5 679 L361.5 680.5 L361.5 680.5 L360 680.5 L360 677.5 ZM355.5 677.5 L355.5 677.5 L355.5 677.5 L355.5 679 L354 679 C354 670.9922 360.492 664.5 368.5 664.5 L368.5 666 L368.5 664.5 L368.5 664.5 L368.5 666 L368.5 664.5 L558 664.5 L558 666 L558 664.5 L558 664.5 L558 666 L558 664.5 C566.0078 664.5 572.5 670.9922 572.5 679 L571 679 L571 677.5 L571 677.5 L572.5 677.5 L572.5 679 L572.5 812.5 L571 812.5 L571 811 L571 811 L572.5 811 L572.5 812.5 C572.5 820.5078 566.0078 827 558 827 L558 825.5 L558 824 L558 824 L558 825.5 L558 827 L368.5 827 L368.5 825.5 L368.5 824 L368.5 824 L368.5 825.5 L368.5 827 C360.4919 827 354 820.5078 354 812.5 L354 811 L355.5 811 L355.5 811 L355.5 812.5 L354 812.5 L354 679 L354 677.5 L355.5 677.5 M355.5 680.5 L355.5 679 L357 679 L357 812.5 L357 814 L355.5 814 L355.5 814 L355.5 812.5 L357 812.5 C357 818.8511 362.1488 824 368.5 824 L368.5 827 L368.5 827 L368.5 824 L558 824 L558 827 L558 827 L558 824 C564.3509 824 569.5 818.8509 569.5 812.5 L571 812.5 L571 814 L571 814 L569.5 814 L569.5 812.5 L569.5 679 L571 679 L571 680.5 L571 680.5 L569.5 680.5 L569.5 679 C569.5 672.6491 564.3509 667.5 558 667.5 L558 667.5 L558 667.5 L558 667.5 L368.5 667.5 L368.5 667.5 L368.5 667.5 L368.5 667.5 C362.1489 667.5 357 672.6491 357 679 L357 680.5 L355.5 680.5 L355.5 680.5 Z"
         style="clip-path:url(#clipPath30); stroke:none;"
         clip-path="url(#clipPath30)"
         id="path388" />
    </g>
    <g
       style="fill:silver; text-rendering:geometricPrecision; stroke:silver;"
       id="g394">
      <path
         d="M642.5 106.5 L642.5 106.5 L642.5 106.5 L644 106.5 L644 108 L644 277.5 L644 279 L642.5 279 L639.5 279 L639.5 277.5 L639.5 276 L642.5 276 L644 276 L644 277.5 C644 280.5374 646.4626 283 649.5 283 L651 283 L651 284.5 L651 287.5 L649.5 287.5 L648 287.5 L648 284.5 L648 283 L649.5 283 L917 283 L918.5 283 L918.5 284.5 L918.5 287.5 L917 287.5 L915.5 287.5 L915.5 284.5 L915.5 283 L917 283 C920.0374 283 922.5 280.5375 922.5 277.5 L922.5 276 L924 276 L927 276 L927 277.5 L927 279 L924 279 L922.5 279 L922.5 277.5 L922.5 108 L922.5 106.5 L924 106.5 L927 106.5 L927 108 L927 109.5 L924 109.5 L922.5 109.5 L922.5 108 C922.5 104.9624 920.0374 102.5 917 102.5 L915.5 102.5 L915.5 101 L915.5 98 L917 98 L918.5 98 L918.5 101 L918.5 102.5 L917 102.5 L649.5 102.5 L648 102.5 L648 101 L648 98 L649.5 98 L651 98 L651 101 L651 102.5 L649.5 102.5 C646.4626 102.5 644 104.9624 644 108 L644 109.5 L642.5 109.5 L639.5 109.5 L639.5 108 L639.5 106.5 L642.5 106.5 L644 106.5 L644 109.5 L642.5 109.5 L639.5 109.5 L639.5 106.5 L642.5 106.5 L642.5 108 L641 108 C641 103.3055 644.8057 99.5 649.5 99.5 L649.5 101 L648 101 L648 98 L651 98 L651 101 L649.5 101 L649.5 99.5 L917 99.5 L917 101 L915.5 101 L915.5 98 L918.5 98 L918.5 101 L917 101 L917 99.5 C921.6943 99.5 925.5 103.3056 925.5 108 L924 108 L924 106.5 L927 106.5 L927 109.5 L924 109.5 L924 108 L925.5 108 L925.5 277.5 L924 277.5 L924 276 L927 276 L927 279 L924 279 L924 277.5 L925.5 277.5 C925.5 282.1944 921.6943 286 917 286 L917 284.5 L918.5 284.5 L918.5 287.5 L915.5 287.5 L915.5 284.5 L917 284.5 L917 286 L649.5 286 L649.5 284.5 L651 284.5 L651 287.5 L648 287.5 L648 284.5 L649.5 284.5 L649.5 286 C644.8057 286 641 282.1942 641 277.5 L642.5 277.5 L642.5 279 L639.5 279 L639.5 276 L642.5 276 L642.5 277.5 L641 277.5 L641 108 L642.5 108 L642.5 109.5 L642.5 109.5 L641 109.5 L641 106.5 ZM636.5 106.5 L636.5 106.5 L636.5 106.5 L636.5 108 L635 108 C635 99.9918 641.4922 93.5 649.5 93.5 L649.5 95 L649.5 93.5 L649.5 93.5 L649.5 95 L649.5 93.5 L917 93.5 L917 95 L917 93.5 L917 93.5 L917 95 L917 93.5 C925.0078 93.5 931.5 99.9918 931.5 108 L930 108 L930 106.5 L930 106.5 L931.5 106.5 L931.5 108 L931.5 277.5 L930 277.5 L930 276 L930 276 L931.5 276 L931.5 277.5 C931.5 285.5081 925.0078 292 917 292 L917 290.5 L917 289 L917 289 L917 290.5 L917 292 L649.5 292 L649.5 290.5 L649.5 289 L649.5 289 L649.5 290.5 L649.5 292 C641.4922 292 635 285.508 635 277.5 L635 276 L636.5 276 L636.5 276 L636.5 277.5 L635 277.5 L635 108 L635 106.5 L636.5 106.5 M636.5 109.5 L636.5 108 L638 108 L638 277.5 L638 279 L636.5 279 L636.5 279 L636.5 277.5 L638 277.5 C638 283.8511 643.1491 289 649.5 289 L649.5 292 L649.5 292 L649.5 289 L917 289 L917 292 L917 292 L917 289 C923.3511 289 928.5 283.8512 928.5 277.5 L930 277.5 L930 279 L930 279 L928.5 279 L928.5 277.5 L928.5 108 L930 108 L930 109.5 L930 109.5 L928.5 109.5 L928.5 108 C928.5 101.6487 923.3509 96.5 917 96.5 L917 96.5 L917 96.5 L917 96.5 L649.5 96.5 L649.5 96.5 L649.5 96.5 L649.5 96.5 C643.1489 96.5 638 101.6487 638 108 L638 109.5 L636.5 109.5 L636.5 109.5 Z"
         style="clip-path:url(#clipPath31); stroke:none;"
         clip-path="url(#clipPath31)"
         id="path392" />
    </g>
    <g
       style="fill:silver; text-rendering:geometricPrecision; stroke:silver;"
       id="g398">
      <path
         d="M32.25 151.25 L32.25 151.25 L32.25 151.25 L33.75 151.25 L33.75 152.75 L33.75 286.25 L33.75 287.75 L32.25 287.75 L29.25 287.75 L29.25 286.25 L29.25 284.75 L32.25 284.75 L33.75 284.75 L33.75 286.25 C33.75 289.2875 36.2124 291.75 39.25 291.75 L40.75 291.75 L40.75 293.25 L40.75 296.25 L39.25 296.25 L37.75 296.25 L37.75 293.25 L37.75 291.75 L39.25 291.75 L228.75 291.75 L230.25 291.75 L230.25 293.25 L230.25 296.25 L228.75 296.25 L227.25 296.25 L227.25 293.25 L227.25 291.75 L228.75 291.75 C231.7876 291.75 234.25 289.2875 234.25 286.25 L234.25 284.75 L235.75 284.75 L238.75 284.75 L238.75 286.25 L238.75 287.75 L235.75 287.75 L234.25 287.75 L234.25 286.25 L234.25 152.75 L234.25 151.25 L235.75 151.25 L238.75 151.25 L238.75 152.75 L238.75 154.25 L235.75 154.25 L234.25 154.25 L234.25 152.75 C234.25 149.7124 231.7876 147.25 228.75 147.25 L227.25 147.25 L227.25 145.75 L227.25 142.75 L228.75 142.75 L230.25 142.75 L230.25 145.75 L230.25 147.25 L228.75 147.25 L39.25 147.25 L37.75 147.25 L37.75 145.75 L37.75 142.75 L39.25 142.75 L40.75 142.75 L40.75 145.75 L40.75 147.25 L39.25 147.25 C36.2124 147.25 33.75 149.7124 33.75 152.75 L33.75 154.25 L32.25 154.25 L29.25 154.25 L29.25 152.75 L29.25 151.25 L32.25 151.25 L33.75 151.25 L33.75 154.25 L32.25 154.25 L29.25 154.25 L29.25 151.25 L32.25 151.25 L32.25 152.75 L30.75 152.75 C30.75 148.0556 34.5556 144.25 39.25 144.25 L39.25 145.75 L37.75 145.75 L37.75 142.75 L40.75 142.75 L40.75 145.75 L39.25 145.75 L39.25 144.25 L228.75 144.25 L228.75 145.75 L227.25 145.75 L227.25 142.75 L230.25 142.75 L230.25 145.75 L228.75 145.75 L228.75 144.25 C233.4444 144.25 237.25 148.0556 237.25 152.75 L235.75 152.75 L235.75 151.25 L238.75 151.25 L238.75 154.25 L235.75 154.25 L235.75 152.75 L237.25 152.75 L237.25 286.25 L235.75 286.25 L235.75 284.75 L238.75 284.75 L238.75 287.75 L235.75 287.75 L235.75 286.25 L237.25 286.25 C237.25 290.9443 233.4444 294.75 228.75 294.75 L228.75 293.25 L230.25 293.25 L230.25 296.25 L227.25 296.25 L227.25 293.25 L228.75 293.25 L228.75 294.75 L39.25 294.75 L39.25 293.25 L40.75 293.25 L40.75 296.25 L37.75 296.25 L37.75 293.25 L39.25 293.25 L39.25 294.75 C34.5556 294.75 30.75 290.9443 30.75 286.25 L32.25 286.25 L32.25 287.75 L29.25 287.75 L29.25 284.75 L32.25 284.75 L32.25 286.25 L30.75 286.25 L30.75 152.75 L32.25 152.75 L32.25 154.25 L32.25 154.25 L30.75 154.25 L30.75 151.25 ZM26.25 151.25 L26.25 151.25 L26.25 151.25 L26.25 152.75 L24.75 152.75 C24.75 144.7419 31.2419 138.25 39.25 138.25 L39.25 139.75 L39.25 138.25 L39.25 138.25 L39.25 139.75 L39.25 138.25 L228.75 138.25 L228.75 139.75 L228.75 138.25 L228.75 138.25 L228.75 139.75 L228.75 138.25 C236.7581 138.25 243.25 144.7419 243.25 152.75 L241.75 152.75 L241.75 151.25 L241.75 151.25 L243.25 151.25 L243.25 152.75 L243.25 286.25 L241.75 286.25 L241.75 284.75 L241.75 284.75 L243.25 284.75 L243.25 286.25 C243.25 294.2581 236.7581 300.75 228.75 300.75 L228.75 299.25 L228.75 297.75 L228.75 297.75 L228.75 299.25 L228.75 300.75 L39.25 300.75 L39.25 299.25 L39.25 297.75 L39.25 297.75 L39.25 299.25 L39.25 300.75 C31.2419 300.75 24.75 294.2581 24.75 286.25 L24.75 284.75 L26.25 284.75 L26.25 284.75 L26.25 286.25 L24.75 286.25 L24.75 152.75 L24.75 151.25 L26.25 151.25 M26.25 154.25 L26.25 152.75 L27.75 152.75 L27.75 286.25 L27.75 287.75 L26.25 287.75 L26.25 287.75 L26.25 286.25 L27.75 286.25 C27.75 292.6013 32.8987 297.75 39.25 297.75 L39.25 300.75 L39.25 300.75 L39.25 297.75 L228.75 297.75 L228.75 300.75 L228.75 300.75 L228.75 297.75 C235.1012 297.75 240.25 292.6013 240.25 286.25 L241.75 286.25 L241.75 287.75 L241.75 287.75 L240.25 287.75 L240.25 286.25 L240.25 152.75 L241.75 152.75 L241.75 154.25 L241.75 154.25 L240.25 154.25 L240.25 152.75 C240.25 146.3988 235.1012 141.25 228.75 141.25 L228.75 141.25 L228.75 141.25 L228.75 141.25 L39.25 141.25 L39.25 141.25 L39.25 141.25 L39.25 141.25 C32.8987 141.25 27.75 146.3988 27.75 152.75 L27.75 154.25 L26.25 154.25 L26.25 154.25 Z"
         style="clip-path:url(#clipPath32); stroke:none;"
         clip-path="url(#clipPath32)"
         id="path396" />
    </g>
    <g
       style="font-size:10; text-rendering:geometricPrecision;"
       id="g402">
      <text
         x="100"
         xml:space="preserve"
         y="170"
         style="clip-path:url(#clipPath33); stroke:none;"
         clip-path="url(#clipPath33)"
         id="text400">Parietal cell</text>
    </g>
    <g
       style="font-size:10; text-rendering:geometricPrecision;"
       id="g406">
      <text
         x="435"
         xml:space="preserve"
         y="811"
         style="clip-path:url(#clipPath34); stroke:none;"
         clip-path="url(#clipPath34)"
         id="text404">G cell</text>
    </g>
    <g
       style="font-size:10; text-rendering:geometricPrecision;"
       id="g410">
      <text
         x="134"
         xml:space="preserve"
         y="810"
         style="clip-path:url(#clipPath35); stroke:none;"
         clip-path="url(#clipPath35)"
         id="text408">ECL Cell</text>
    </g>
    <g
       style="font-size:10; text-rendering:geometricPrecision;"
       id="g414">
      <text
         x="715"
         xml:space="preserve"
         y="808"
         style="clip-path:url(#clipPath36); stroke:none;"
         clip-path="url(#clipPath36)"
         id="text412">Foveolar cell</text>
    </g>
    <g
       style="font-size:10; text-rendering:geometricPrecision;"
       id="g418">
      <text
         x="662"
         xml:space="preserve"
         y="130"
         style="clip-path:url(#clipPath37); stroke:none;"
         clip-path="url(#clipPath37)"
         id="text416">Gastric Chief Cells</text>
    </g>
    <g
       style="fill:white; text-rendering:geometricPrecision; stroke:white;"
       id="g426">
      <path
         d="M658 730 L658 738 C658 743.5228 662.4772 748 668 748 L841 748 C846.5228 748 851 743.5228 851 738 L851 730 C851 724.4772 846.5228 720 841 720 L668 720 C662.4772 720 658 724.4772 658 730 Z"
         style="clip-path:url(#clipPath38); stroke:none;"
         clip-path="url(#clipPath38)"
         id="path420" />
      <path
         d="M658 730 L658 738 C658 743.5228 662.4772 748 668 748 L841 748 C846.5228 748 851 743.5228 851 738 L851 730 C851 724.4772 846.5228 720 841 720 L668 720 C662.4772 720 658 724.4772 658 730 Z"
         style="fill:none; clip-path:url(#clipPath38); stroke:rgb(20,150,30);"
         clip-path="url(#clipPath38)"
         id="path422" />
      <text
         x="642"
         y="738"
         style="clip-path:url(#clipPath38); fill:rgb(20,150,30); stroke:none; font-weight:bold;"
         xml:space="preserve"
         clip-path="url(#clipPath38)"
         id="text424">Mucus and bicarbonate secretion</text>
    </g>
    <g
       style="fill:white; text-rendering:geometricPrecision; stroke:white;"
       id="g434">
      <path
         d="M384 346 L486 346 L486 368 L384 368 L384 346 Z"
         style="clip-path:url(#clipPath39); stroke:none;"
         clip-path="url(#clipPath39)"
         id="path428" />
      <path
         d="M384 346 L486 346 L486 368 L384 368 L384 346 Z"
         style="fill:none; clip-path:url(#clipPath39); stroke:blue;"
         clip-path="url(#clipPath39)"
         id="path430" />
      <text
         x="393"
         y="360"
         style="font-size:10; clip-path:url(#clipPath39); fill:blue; stroke:none;"
         xml:space="preserve"
         clip-path="url(#clipPath39)"
         id="text432">hydrochloric acid</text>
    </g>
    <g
       style="fill:white; text-rendering:geometricPrecision; stroke:white;"
       id="g442">
      <path
         d="M361 216 L441 216 L441 236 L361 236 L361 216 Z"
         style="clip-path:url(#clipPath40); stroke:none;"
         clip-path="url(#clipPath40)"
         id="path436" />
      <path
         d="M361 216 L441 216 L441 236 L361 236 L361 216 Z"
         style="fill:none; clip-path:url(#clipPath40); stroke:black;"
         clip-path="url(#clipPath40)"
         id="path438" />
      <text
         x="394"
         y="229"
         style="font-size:10; clip-path:url(#clipPath40); fill:black; stroke:none;"
         xml:space="preserve"
         clip-path="url(#clipPath40)"
         id="text440">VIP</text>
    </g>
    <g
       style="fill:white; text-rendering:geometricPrecision; stroke:white;"
       id="g450">
      <path
         d="M361 240 L441 240 L441 260 L361 260 L361 240 Z"
         style="clip-path:url(#clipPath41); stroke:none;"
         clip-path="url(#clipPath41)"
         id="path444" />
      <path
         d="M361 240 L441 240 L441 260 L361 260 L361 240 Z"
         style="fill:none; clip-path:url(#clipPath41); stroke:black;"
         clip-path="url(#clipPath41)"
         id="path446" />
      <text
         x="391"
         y="253"
         style="font-size:10; clip-path:url(#clipPath41); fill:black; stroke:none;"
         xml:space="preserve"
         clip-path="url(#clipPath41)"
         id="text448">CCK</text>
    </g>
    <g
       style="fill:white; text-rendering:geometricPrecision; stroke:white;"
       id="g458">
      <path
         d="M745 568 L836 568 L836 589 L745 589 L745 568 Z"
         style="clip-path:url(#clipPath42); stroke:none;"
         clip-path="url(#clipPath42)"
         id="path452" />
      <path
         d="M745 568 L836 568 L836 589 L745 589 L745 568 Z"
         style="fill:none; clip-path:url(#clipPath42); stroke:blue;"
         clip-path="url(#clipPath42)"
         id="path454" />
      <text
         x="748"
         y="582"
         style="font-size:10; clip-path:url(#clipPath42); fill:blue; stroke:none;"
         xml:space="preserve"
         clip-path="url(#clipPath42)"
         id="text456">Bicarbonate ions</text>
    </g>
    <g
       style="fill:white; text-rendering:geometricPrecision; stroke:white;"
       id="g466">
      <path
         d="M410 469 L490 469 L490 491 L410 491 L410 469 Z"
         style="clip-path:url(#clipPath43); stroke:none;"
         clip-path="url(#clipPath43)"
         id="path460" />
      <path
         d="M410 469 L490 469 L490 491 L410 491 L410 469 Z"
         style="fill:none; clip-path:url(#clipPath43); stroke:black;"
         clip-path="url(#clipPath43)"
         id="path462" />
      <text
         x="432"
         y="483"
         style="font-size:10; clip-path:url(#clipPath43); fill:black; stroke:none;"
         xml:space="preserve"
         clip-path="url(#clipPath43)"
         id="text464">Gastrin</text>
    </g>
    <g
       style="fill:white; text-rendering:geometricPrecision; stroke:white;"
       id="g474">
      <path
         d="M361 191 L441 191 L441 211 L361 211 L361 191 Z"
         style="clip-path:url(#clipPath44); stroke:none;"
         clip-path="url(#clipPath44)"
         id="path468" />
      <path
         d="M361 191 L441 191 L441 211 L361 211 L361 191 Z"
         style="fill:none; clip-path:url(#clipPath44); stroke:black;"
         clip-path="url(#clipPath44)"
         id="path470" />
      <text
         x="381"
         y="204"
         style="font-size:10; clip-path:url(#clipPath44); fill:black; stroke:none;"
         xml:space="preserve"
         clip-path="url(#clipPath44)"
         id="text472">Secretin</text>
    </g>
    <g
       style="fill:white; text-rendering:geometricPrecision; stroke:white;"
       id="g482">
      <path
         d="M659 568 L739 568 L739 588 L659 588 L659 568 Z"
         style="clip-path:url(#clipPath45); stroke:none;"
         clip-path="url(#clipPath45)"
         id="path476" />
      <path
         d="M659 568 L739 568 L739 588 L659 588 L659 568 Z"
         style="fill:none; clip-path:url(#clipPath45); stroke:black;"
         clip-path="url(#clipPath45)"
         id="path478" />
      <text
         x="685"
         y="581"
         style="font-size:10; clip-path:url(#clipPath45); fill:black; stroke:none;"
         xml:space="preserve"
         clip-path="url(#clipPath45)"
         id="text480">MUC6</text>
    </g>
    <g
       style="fill:white; text-rendering:geometricPrecision; stroke:white;"
       id="g490">
      <path
         d="M706 496 L786 496 L786 516 L706 516 L706 496 Z"
         style="clip-path:url(#clipPath46); stroke:none;"
         clip-path="url(#clipPath46)"
         id="path484" />
      <path
         d="M706 496 L786 496 L786 516 L706 516 L706 496 Z"
         style="fill:none; clip-path:url(#clipPath46); stroke:black;"
         clip-path="url(#clipPath46)"
         id="path486" />
      <text
         x="725"
         y="509"
         style="font-size:10; clip-path:url(#clipPath46); fill:black; stroke:none;"
         xml:space="preserve"
         clip-path="url(#clipPath46)"
         id="text488">Pepsin B</text>
    </g>
    <g
       style="fill:white; text-rendering:geometricPrecision; stroke:white;"
       id="g498">
      <path
         d="M127 468 L210 468 L210 492 L127 492 L127 468 Z"
         style="clip-path:url(#clipPath47); stroke:none;"
         clip-path="url(#clipPath47)"
         id="path492" />
      <path
         d="M127 468 L210 468 L210 492 L127 492 L127 468 Z"
         style="fill:none; clip-path:url(#clipPath47); stroke:blue;"
         clip-path="url(#clipPath47)"
         id="path494" />
      <text
         x="135"
         y="483"
         style="font-size:10; clip-path:url(#clipPath47); fill:blue; stroke:none;"
         xml:space="preserve"
         clip-path="url(#clipPath47)"
         id="text496">Acetylcholine</text>
    </g>
    <g
       style="fill:white; text-rendering:geometricPrecision; stroke:white;"
       id="g506">
      <path
         d="M385 319 L487 319 L487 342 L385 342 L385 319 Z"
         style="clip-path:url(#clipPath48); stroke:none;"
         clip-path="url(#clipPath48)"
         id="path500" />
      <path
         d="M385 319 L487 319 L487 342 L385 342 L385 319 Z"
         style="fill:none; clip-path:url(#clipPath48); stroke:blue;"
         clip-path="url(#clipPath48)"
         id="path502" />
      <text
         x="389"
         y="334"
         style="font-size:10; clip-path:url(#clipPath48); fill:blue; stroke:none;"
         xml:space="preserve"
         clip-path="url(#clipPath48)"
         id="text504">potassium chloride</text>
    </g>
    <g
       style="fill:white; text-rendering:geometricPrecision; stroke:white;"
       id="g514">
      <path
         d="M16 78 L136 78 L136 100 L16 100 L16 78 Z"
         style="clip-path:url(#clipPath49); stroke:none;"
         clip-path="url(#clipPath49)"
         id="path508" />
      <path
         d="M16 78 L136 78 L136 100 L16 100 L16 78 Z"
         style="fill:none; clip-path:url(#clipPath49); stroke:black;"
         clip-path="url(#clipPath49)"
         id="path510" />
      <text
         x="20"
         y="92"
         style="font-size:10; clip-path:url(#clipPath49); fill:black; stroke:none;"
         xml:space="preserve"
         clip-path="url(#clipPath49)"
         id="text512">Gastric Intrinsic Factor</text>
    </g>
    <g
       style="fill:white; text-rendering:geometricPrecision; stroke:white;"
       id="g522">
      <path
         d="M59 212 L59 212 C59 217.5228 63.4772 222 69 222 L196 222 C201.5228 222 206 217.5228 206 212 L206 212 C206 206.4772 201.5228 202 196 202 L69 202 C63.4772 202 59 206.4772 59 212 Z"
         style="clip-path:url(#clipPath50); stroke:none;"
         clip-path="url(#clipPath50)"
         id="path516" />
      <path
         d="M59 212 L59 212 C59 217.5228 63.4772 222 69 222 L196 222 C201.5228 222 206 217.5228 206 212 L206 212 C206 206.4772 201.5228 202 196 202 L69 202 C63.4772 202 59 206.4772 59 212 Z"
         style="fill:none; clip-path:url(#clipPath50); stroke:rgb(20,150,30);"
         clip-path="url(#clipPath50)"
         id="path518" />
      <text
         x="52"
         y="216"
         style="clip-path:url(#clipPath50); fill:rgb(20,150,30); stroke:none; font-weight:bold;"
         xml:space="preserve"
         clip-path="url(#clipPath50)"
         id="text520">Parietal Cell production</text>
    </g>
    <g
       style="fill:white; text-rendering:geometricPrecision; stroke:white;"
       id="g530">
      <path
         d="M19 470 L99 470 L99 490 L19 490 L19 470 Z"
         style="clip-path:url(#clipPath51); stroke:none;"
         clip-path="url(#clipPath51)"
         id="path524" />
      <path
         d="M19 470 L99 470 L99 490 L19 490 L19 470 Z"
         style="fill:none; clip-path:url(#clipPath51); stroke:blue;"
         clip-path="url(#clipPath51)"
         id="path526" />
      <text
         x="34"
         y="483"
         style="font-size:10; clip-path:url(#clipPath51); fill:blue; stroke:none;"
         xml:space="preserve"
         clip-path="url(#clipPath51)"
         id="text528">Histamine</text>
    </g>
    <g
       style="fill:white; text-rendering:geometricPrecision; stroke:white;"
       id="g538">
      <path
         d="M268 470 L348 470 L348 490 L268 490 L268 470 Z"
         style="clip-path:url(#clipPath52); stroke:none;"
         clip-path="url(#clipPath52)"
         id="path532" />
      <path
         d="M268 470 L348 470 L348 490 L268 490 L268 470 Z"
         style="fill:none; clip-path:url(#clipPath52); stroke:black;"
         clip-path="url(#clipPath52)"
         id="path534" />
      <text
         x="298"
         y="483"
         style="font-size:10; clip-path:url(#clipPath52); fill:black; stroke:none;"
         xml:space="preserve"
         clip-path="url(#clipPath52)"
         id="text536">GRP</text>
    </g>
    <g
       style="fill:white; text-rendering:geometricPrecision; stroke:white;"
       id="g546">
      <path
         d="M840 135.5 L913 135.5 L913 160.5 L840 160.5 L840 135.5 Z"
         style="clip-path:url(#clipPath53); stroke:none;"
         clip-path="url(#clipPath53)"
         id="path540" />
      <path
         d="M840 135.5 L913 135.5 L913 160.5 L840 160.5 L840 135.5 Z"
         style="fill:none; clip-path:url(#clipPath53); stroke:black;"
         clip-path="url(#clipPath53)"
         id="path542" />
      <text
         x="860"
         y="152"
         style="fill:black; clip-path:url(#clipPath53); stroke:none;"
         xml:space="preserve"
         clip-path="url(#clipPath53)"
         id="text544">PGA3</text>
    </g>
    <g
       style="fill:white; text-rendering:geometricPrecision; stroke:white;"
       id="g554">
      <path
         d="M705 312 L785 312 L785 334 L705 334 L705 312 Z"
         style="clip-path:url(#clipPath54); stroke:none;"
         clip-path="url(#clipPath54)"
         id="path548" />
      <path
         d="M705 312 L785 312 L785 334 L705 334 L705 312 Z"
         style="fill:none; clip-path:url(#clipPath54); stroke:black;"
         clip-path="url(#clipPath54)"
         id="path550" />
      <text
         x="716"
         y="326"
         style="font-size:10; clip-path:url(#clipPath54); fill:black; stroke:none;"
         xml:space="preserve"
         clip-path="url(#clipPath54)"
         id="text552">pepsinogen</text>
    </g>
    <g
       style="fill:white; text-rendering:geometricPrecision; stroke:white;"
       id="g562">
      <path
         d="M59 734.25 L59 759 C59 764.5228 63.4772 769 69 769 L244 769 C249.5228 769 254 764.5228 254 759 L254 734.25 C254 728.7272 249.5228 724.25 244 724.25 L69 724.25 C63.4772 724.25 59 728.7272 59 734.25 Z"
         style="clip-path:url(#clipPath55); stroke:none;"
         clip-path="url(#clipPath55)"
         id="path556" />
      <path
         d="M59 734.25 L59 759 C59 764.5228 63.4772 769 69 769 L244 769 C249.5228 769 254 764.5228 254 759 L254 734.25 C254 728.7272 249.5228 724.25 244 724.25 L69 724.25 C63.4772 724.25 59 728.7272 59 734.25 Z"
         style="fill:none; clip-path:url(#clipPath55); stroke:rgb(20,150,30);"
         clip-path="url(#clipPath55)"
         id="path558" />
      <text
         x="69"
         y="751"
         style="clip-path:url(#clipPath55); fill:rgb(20,150,30); stroke:none; font-weight:bold;"
         xml:space="preserve"
         clip-path="url(#clipPath55)"
         id="text560">Gastric Histamine release</text>
    </g>
    <g
       style="fill:white; text-rendering:geometricPrecision; stroke:white;"
       id="g570">
      <path
         d="M386 372 L488 372 L488 392 L386 392 L386 372 Z"
         style="clip-path:url(#clipPath56); stroke:none;"
         clip-path="url(#clipPath56)"
         id="path564" />
      <path
         d="M386 372 L488 372 L488 392 L386 392 L386 372 Z"
         style="fill:none; clip-path:url(#clipPath56); stroke:blue;"
         clip-path="url(#clipPath56)"
         id="path566" />
      <text
         x="396"
         y="385"
         style="font-size:10; clip-path:url(#clipPath56); fill:blue; stroke:none;"
         xml:space="preserve"
         clip-path="url(#clipPath56)"
         id="text568">Sodium Chloride</text>
    </g>
    <g
       style="fill:navy; text-rendering:geometricPrecision; font-size:8; stroke:navy;"
       id="g574">
      <text
         x="848"
         xml:space="preserve"
         y="717"
         style="clip-path:url(#clipPath58); stroke:none;"
         clip-path="url(#clipPath58)"
         id="text572">3</text>
    </g>
    <g
       style="fill:silver; text-rendering:geometricPrecision; stroke:silver;"
       id="g578">
      <path
         d="M650.5 678.5 L650.5 678.5 L650.5 678.5 L652 678.5 L652 680 L652 813.5 L652 815 L650.5 815 L647.5 815 L647.5 813.5 L647.5 812 L650.5 812 L652 812 L652 813.5 C652 816.5374 654.4626 819 657.5 819 L659 819 L659 820.5 L659 823.5 L657.5 823.5 L656 823.5 L656 820.5 L656 819 L657.5 819 L847 819 L848.5 819 L848.5 820.5 L848.5 823.5 L847 823.5 L845.5 823.5 L845.5 820.5 L845.5 819 L847 819 C850.0374 819 852.5 816.5374 852.5 813.5 L852.5 812 L854 812 L857 812 L857 813.5 L857 815 L854 815 L852.5 815 L852.5 813.5 L852.5 680 L852.5 678.5 L854 678.5 L857 678.5 L857 680 L857 681.5 L854 681.5 L852.5 681.5 L852.5 680 C852.5 676.9626 850.0374 674.5 847 674.5 L845.5 674.5 L845.5 673 L845.5 670 L847 670 L848.5 670 L848.5 673 L848.5 674.5 L847 674.5 L657.5 674.5 L656 674.5 L656 673 L656 670 L657.5 670 L659 670 L659 673 L659 674.5 L657.5 674.5 C654.4626 674.5 652 676.9626 652 680 L652 681.5 L650.5 681.5 L647.5 681.5 L647.5 680 L647.5 678.5 L650.5 678.5 L652 678.5 L652 681.5 L650.5 681.5 L647.5 681.5 L647.5 678.5 L650.5 678.5 L650.5 680 L649 680 C649 675.3057 652.8057 671.5 657.5 671.5 L657.5 673 L656 673 L656 670 L659 670 L659 673 L657.5 673 L657.5 671.5 L847 671.5 L847 673 L845.5 673 L845.5 670 L848.5 670 L848.5 673 L847 673 L847 671.5 C851.6943 671.5 855.5 675.3057 855.5 680 L854 680 L854 678.5 L857 678.5 L857 681.5 L854 681.5 L854 680 L855.5 680 L855.5 813.5 L854 813.5 L854 812 L857 812 L857 815 L854 815 L854 813.5 L855.5 813.5 C855.5 818.1943 851.6943 822 847 822 L847 820.5 L848.5 820.5 L848.5 823.5 L845.5 823.5 L845.5 820.5 L847 820.5 L847 822 L657.5 822 L657.5 820.5 L659 820.5 L659 823.5 L656 823.5 L656 820.5 L657.5 820.5 L657.5 822 C652.8057 822 649 818.1943 649 813.5 L650.5 813.5 L650.5 815 L647.5 815 L647.5 812 L650.5 812 L650.5 813.5 L649 813.5 L649 680 L650.5 680 L650.5 681.5 L650.5 681.5 L649 681.5 L649 678.5 ZM644.5 678.5 L644.5 678.5 L644.5 678.5 L644.5 680 L643 680 C643 671.9922 649.4922 665.5 657.5 665.5 L657.5 667 L657.5 665.5 L657.5 665.5 L657.5 667 L657.5 665.5 L847 665.5 L847 667 L847 665.5 L847 665.5 L847 667 L847 665.5 C855.0078 665.5 861.5 671.9922 861.5 680 L860 680 L860 678.5 L860 678.5 L861.5 678.5 L861.5 680 L861.5 813.5 L860 813.5 L860 812 L860 812 L861.5 812 L861.5 813.5 C861.5 821.5078 855.0078 828 847 828 L847 826.5 L847 825 L847 825 L847 826.5 L847 828 L657.5 828 L657.5 826.5 L657.5 825 L657.5 825 L657.5 826.5 L657.5 828 C649.4922 828 643 821.5078 643 813.5 L643 812 L644.5 812 L644.5 812 L644.5 813.5 L643 813.5 L643 680 L643 678.5 L644.5 678.5 M644.5 681.5 L644.5 680 L646 680 L646 813.5 L646 815 L644.5 815 L644.5 815 L644.5 813.5 L646 813.5 C646 819.8509 651.1491 825 657.5 825 L657.5 828 L657.5 828 L657.5 825 L847 825 L847 828 L847 828 L847 825 C853.3509 825 858.5 819.8509 858.5 813.5 L860 813.5 L860 815 L860 815 L858.5 815 L858.5 813.5 L858.5 680 L860 680 L860 681.5 L860 681.5 L858.5 681.5 L858.5 680 C858.5 673.6491 853.3509 668.5 847 668.5 L847 668.5 L847 668.5 L847 668.5 L657.5 668.5 L657.5 668.5 L657.5 668.5 L657.5 668.5 C651.1491 668.5 646 673.6491 646 680 L646 681.5 L644.5 681.5 L644.5 681.5 Z"
         style="clip-path:url(#clipPath59); stroke:none;"
         clip-path="url(#clipPath59)"
         id="path576" />
    </g>
    <g
       style="fill:navy; text-rendering:geometricPrecision; font-size:8; stroke:navy;"
       id="g582">
      <text
         x="736"
         xml:space="preserve"
         y="565"
         style="clip-path:url(#clipPath61); stroke:none;"
         clip-path="url(#clipPath61)"
         id="text580">4</text>
    </g>
    <g
       style="fill:white; text-rendering:geometricPrecision; stroke:white;"
       id="g590">
      <path
         d="M706 518 L786 518 L786 538 L706 538 L706 518 Z"
         style="clip-path:url(#clipPath62); stroke:none;"
         clip-path="url(#clipPath62)"
         id="path584" />
      <path
         d="M706 518 L786 518 L786 538 L706 538 L706 518 Z"
         style="fill:none; clip-path:url(#clipPath62); stroke:black;"
         clip-path="url(#clipPath62)"
         id="path586" />
      <text
         x="725"
         y="531"
         style="font-size:10; clip-path:url(#clipPath62); fill:black; stroke:none;"
         xml:space="preserve"
         clip-path="url(#clipPath62)"
         id="text588">Pepsin C</text>
    </g>
    <g
       style="fill:silver; text-rendering:geometricPrecision; stroke:silver;"
       id="g594">
      <path
         d="M55.5 676.5 L55.5 676.5 L55.5 676.5 L57 676.5 L57 678 L57 811.5 L57 813 L55.5 813 L52.5 813 L52.5 811.5 L52.5 810 L55.5 810 L57 810 L57 811.5 C57 814.5374 59.4625 817 62.5 817 L64 817 L64 818.5 L64 821.5 L62.5 821.5 L61 821.5 L61 818.5 L61 817 L62.5 817 L252 817 L253.5 817 L253.5 818.5 L253.5 821.5 L252 821.5 L250.5 821.5 L250.5 818.5 L250.5 817 L252 817 C255.0375 817 257.5 814.5374 257.5 811.5 L257.5 810 L259 810 L262 810 L262 811.5 L262 813 L259 813 L257.5 813 L257.5 811.5 L257.5 678 L257.5 676.5 L259 676.5 L262 676.5 L262 678 L262 679.5 L259 679.5 L257.5 679.5 L257.5 678 C257.5 674.9626 255.0375 672.5 252 672.5 L250.5 672.5 L250.5 671 L250.5 668 L252 668 L253.5 668 L253.5 671 L253.5 672.5 L252 672.5 L62.5 672.5 L61 672.5 L61 671 L61 668 L62.5 668 L64 668 L64 671 L64 672.5 L62.5 672.5 C59.4624 672.5 57 674.9626 57 678 L57 679.5 L55.5 679.5 L52.5 679.5 L52.5 678 L52.5 676.5 L55.5 676.5 L57 676.5 L57 679.5 L55.5 679.5 L52.5 679.5 L52.5 676.5 L55.5 676.5 L55.5 678 L54 678 C54 673.3057 57.8056 669.5 62.5 669.5 L62.5 671 L61 671 L61 668 L64 668 L64 671 L62.5 671 L62.5 669.5 L252 669.5 L252 671 L250.5 671 L250.5 668 L253.5 668 L253.5 671 L252 671 L252 669.5 C256.6943 669.5 260.5 673.3057 260.5 678 L259 678 L259 676.5 L262 676.5 L262 679.5 L259 679.5 L259 678 L260.5 678 L260.5 811.5 L259 811.5 L259 810 L262 810 L262 813 L259 813 L259 811.5 L260.5 811.5 C260.5 816.1943 256.6943 820 252 820 L252 818.5 L253.5 818.5 L253.5 821.5 L250.5 821.5 L250.5 818.5 L252 818.5 L252 820 L62.5 820 L62.5 818.5 L64 818.5 L64 821.5 L61 821.5 L61 818.5 L62.5 818.5 L62.5 820 C57.8056 820 54 816.1943 54 811.5 L55.5 811.5 L55.5 813 L52.5 813 L52.5 810 L55.5 810 L55.5 811.5 L54 811.5 L54 678 L55.5 678 L55.5 679.5 L55.5 679.5 L54 679.5 L54 676.5 ZM49.5 676.5 L49.5 676.5 L49.5 676.5 L49.5 678 L48 678 C48 669.9922 54.4919 663.5 62.5 663.5 L62.5 665 L62.5 663.5 L62.5 663.5 L62.5 665 L62.5 663.5 L252 663.5 L252 665 L252 663.5 L252 663.5 L252 665 L252 663.5 C260.008 663.5 266.5 669.9922 266.5 678 L265 678 L265 676.5 L265 676.5 L266.5 676.5 L266.5 678 L266.5 811.5 L265 811.5 L265 810 L265 810 L266.5 810 L266.5 811.5 C266.5 819.5078 260.008 826 252 826 L252 824.5 L252 823 L252 823 L252 824.5 L252 826 L62.5 826 L62.5 824.5 L62.5 823 L62.5 823 L62.5 824.5 L62.5 826 C54.4918 826 48 819.5078 48 811.5 L48 810 L49.5 810 L49.5 810 L49.5 811.5 L48 811.5 L48 678 L48 676.5 L49.5 676.5 M49.5 679.5 L49.5 678 L51 678 L51 811.5 L51 813 L49.5 813 L49.5 813 L49.5 811.5 L51 811.5 C51 817.8511 56.1487 823 62.5 823 L62.5 826 L62.5 826 L62.5 823 L252 823 L252 826 L252 826 L252 823 C258.3511 823 263.5 817.8509 263.5 811.5 L265 811.5 L265 813 L265 813 L263.5 813 L263.5 811.5 L263.5 678 L265 678 L265 679.5 L265 679.5 L263.5 679.5 L263.5 678 C263.5 671.6491 258.3511 666.5 252 666.5 L252 666.5 L252 666.5 L252 666.5 L62.5 666.5 L62.5 666.5 L62.5 666.5 L62.5 666.5 C56.1487 666.5 51 671.6491 51 678 L51 679.5 L49.5 679.5 L49.5 679.5 Z"
         style="clip-path:url(#clipPath63); stroke:none;"
         clip-path="url(#clipPath63)"
         id="path592" />
    </g>
    <g
       style="fill:white; text-rendering:geometricPrecision; stroke:white;"
       id="g602">
      <path
         d="M840 164.5 L913 164.5 L913 189.5 L840 189.5 L840 164.5 Z"
         style="clip-path:url(#clipPath64); stroke:none;"
         clip-path="url(#clipPath64)"
         id="path596" />
      <path
         d="M840 164.5 L913 164.5 L913 189.5 L840 189.5 L840 164.5 Z"
         style="fill:none; clip-path:url(#clipPath64); stroke:black;"
         clip-path="url(#clipPath64)"
         id="path598" />
      <text
         x="860"
         y="181"
         style="fill:black; clip-path:url(#clipPath64); stroke:none;"
         xml:space="preserve"
         clip-path="url(#clipPath64)"
         id="text600">PGA4</text>
    </g>
    <g
       style="fill:white; text-rendering:geometricPrecision; stroke:white;"
       id="g610">
      <path
         d="M705 197 L785 197 L785 219 L705 219 L705 197 Z"
         style="clip-path:url(#clipPath65); stroke:none;"
         clip-path="url(#clipPath65)"
         id="path604" />
      <path
         d="M705 197 L785 197 L785 219 L705 219 L705 197 Z"
         style="fill:none; clip-path:url(#clipPath65); stroke:black;"
         clip-path="url(#clipPath65)"
         id="path606" />
      <text
         x="716"
         y="211"
         style="font-size:10; clip-path:url(#clipPath65); fill:black; stroke:none;"
         xml:space="preserve"
         clip-path="url(#clipPath65)"
         id="text608">pepsinogen</text>
    </g>
    <g
       style="fill:white; text-rendering:geometricPrecision; stroke:white;"
       id="g618">
      <path
         d="M840 196.5 L913 196.5 L913 221.5 L840 221.5 L840 196.5 Z"
         style="clip-path:url(#clipPath66); stroke:none;"
         clip-path="url(#clipPath66)"
         id="path612" />
      <path
         d="M840 196.5 L913 196.5 L913 221.5 L840 221.5 L840 196.5 Z"
         style="fill:none; clip-path:url(#clipPath66); stroke:black;"
         clip-path="url(#clipPath66)"
         id="path614" />
      <text
         x="860"
         y="213"
         style="fill:black; clip-path:url(#clipPath66); stroke:none;"
         xml:space="preserve"
         clip-path="url(#clipPath66)"
         id="text616">PGA5</text>
    </g>
    <g
       style="fill:white; text-rendering:geometricPrecision; stroke:white;"
       id="g626">
      <path
         d="M840 229.5 L913 229.5 L913 254.5 L840 254.5 L840 229.5 Z"
         style="clip-path:url(#clipPath67); stroke:none;"
         clip-path="url(#clipPath67)"
         id="path620" />
      <path
         d="M840 229.5 L913 229.5 L913 254.5 L840 254.5 L840 229.5 Z"
         style="fill:none; clip-path:url(#clipPath67); stroke:black;"
         clip-path="url(#clipPath67)"
         id="path622" />
      <text
         x="864"
         y="246"
         style="fill:black; clip-path:url(#clipPath67); stroke:none;"
         xml:space="preserve"
         clip-path="url(#clipPath67)"
         id="text624">PGC</text>
    </g>
    <g
       style="fill:white; text-rendering:geometricPrecision; stroke:white;"
       id="g634">
      <path
         d="M410 734 L490 734 L490 756 L410 756 L410 734 Z"
         style="clip-path:url(#clipPath68); stroke:none;"
         clip-path="url(#clipPath68)"
         id="path628" />
      <path
         d="M410 734 L490 734 L490 756 L410 756 L410 734 Z"
         style="fill:none; clip-path:url(#clipPath68); stroke:black;"
         clip-path="url(#clipPath68)"
         id="path630" />
      <text
         x="432"
         y="748"
         style="font-size:10; clip-path:url(#clipPath68); fill:black; stroke:none;"
         xml:space="preserve"
         clip-path="url(#clipPath68)"
         id="text632">Gastrin</text>
    </g>
  </g>
</svg>
