<?xml version="1.0" encoding="UTF-8" standalone="no"?>
<svg
   style="fill-opacity:1; color-rendering:auto; color-interpolation:auto; stroke:black; text-rendering:auto; stroke-linecap:square; stroke-miterlimit:10; stroke-opacity:1; shape-rendering:auto; fill:black; stroke-dasharray:none; font-weight:normal; stroke-width:1; font-family:'Dialog'; font-style:normal; stroke-linejoin:miter; font-size:12; stroke-dashoffset:0; image-rendering:auto;"
   width="981"
   height="302"
   version="1.1"
   id="svg533"
   xmlns="http://www.w3.org/2000/svg"
   xmlns:svg="http://www.w3.org/2000/svg">
  <!--Generated by the Batik Graphics2D SVG Generator-->
  <defs
     id="genericDefs" />
  <g
     id="g531">
    <defs
       id="defs1">
      <clipPath
         clipPathUnits="userSpaceOnUse"
         id="clipPath1">
        <path
           d="M0 0 L989 0 L989 318 L0 318 L0 0 Z"
           id="path3" />
      </clipPath>
      <clipPath
         clipPathUnits="userSpaceOnUse"
         id="clipPath2">
        <path
           d="M0 0 L0 200 L200 200 L200 0 Z"
           id="path6" />
      </clipPath>
      <clipPath
         clipPathUnits="userSpaceOnUse"
         id="clipPath3">
        <path
           d="M314 16 L314 37 L325 37 L325 16 Z"
           id="path9" />
      </clipPath>
      <clipPath
         clipPathUnits="userSpaceOnUse"
         id="clipPath4">
        <path
           d="M313.4551 3.918 L324.5449 3.918 L324.5449 19.2305 L313.4551 19.2305 L313.4551 3.918 Z"
           id="path12" />
      </clipPath>
      <clipPath
         clipPathUnits="userSpaceOnUse"
         id="clipPath5">
        <path
           d="M191 149 L191 244 L368 244 L368 149 Z"
           id="path15" />
      </clipPath>
      <clipPath
         clipPathUnits="userSpaceOnUse"
         id="clipPath6">
        <path
           d="M47.3116 59.3116 L47.3116 188.6884 L255.1884 188.6884 L255.1884 59.3116 Z"
           id="path18" />
      </clipPath>
      <clipPath
         clipPathUnits="userSpaceOnUse"
         id="clipPath7">
        <path
           d="M535 92.5 L535 181.5 L536 181.5 L536 92.5 Z"
           id="path21" />
      </clipPath>
      <clipPath
         clipPathUnits="userSpaceOnUse"
         id="clipPath8">
        <path
           d="M534.793 120.2931 L534.793 181.7069 L593.707 181.7069 L593.707 120.2931 Z"
           id="path24" />
      </clipPath>
      <clipPath
         clipPathUnits="userSpaceOnUse"
         id="clipPath9">
        <path
           d="M317.9709 135.4709 L317.9709 161.5291 L320.5291 161.5291 L320.5291 135.4709 Z"
           id="path27" />
      </clipPath>
      <clipPath
         clipPathUnits="userSpaceOnUse"
         id="clipPath10">
        <path
           d="M695.5 54.5 L695.5 55.5 L748.5 55.5 L748.5 54.5 Z"
           id="path30" />
      </clipPath>
      <clipPath
         clipPathUnits="userSpaceOnUse"
         id="clipPath11">
        <path
           d="M75.4128 172.4128 L75.4128 198.5872 L203.5872 198.5872 L203.5872 172.4128 Z"
           id="path33" />
      </clipPath>
      <clipPath
         clipPathUnits="userSpaceOnUse"
         id="clipPath12">
        <path
           d="M294.3485 69.3485 L294.3485 161.6515 L332.6515 161.6515 L332.6515 69.3485 Z"
           id="path36" />
      </clipPath>
      <clipPath
         clipPathUnits="userSpaceOnUse"
         id="clipPath13">
        <path
           d="M307.8184 59.3184 L307.8184 181.6816 L522.5566 181.6816 L522.5566 59.3184 Z"
           id="path39" />
      </clipPath>
      <clipPath
         clipPathUnits="userSpaceOnUse"
         id="clipPath14">
        <path
           d="M47.3671 207.3671 L47.3671 278.6329 L257.6329 278.6329 L257.6329 207.3671 Z"
           id="path42" />
      </clipPath>
      <clipPath
         clipPathUnits="userSpaceOnUse"
         id="clipPath15">
        <path
           d="M75.3471 53.3471 L75.3471 198.6529 L425.6529 198.6529 L425.6529 53.3471 Z"
           id="path45" />
      </clipPath>
      <clipPath
         clipPathUnits="userSpaceOnUse"
         id="clipPath16">
        <path
           d="M308.3417 190.3417 L308.3417 278.6583 L508.9083 278.6583 L508.9083 190.3417 Z"
           id="path48" />
      </clipPath>
      <clipPath
         clipPathUnits="userSpaceOnUse"
         id="clipPath17">
        <path
           d="M355.4447 172.4448 L355.4447 191.5552 L508.8053 191.5552 L508.8053 172.4448 Z"
           id="path51" />
      </clipPath>
      <clipPath
         clipPathUnits="userSpaceOnUse"
         id="clipPath18">
        <path
           d="M680.5 16.5 L680.5 122.5 L959.5 122.5 L959.5 16.5 Z"
           id="path54" />
      </clipPath>
      <clipPath
         clipPathUnits="userSpaceOnUse"
         id="clipPath19">
        <path
           d="M252.5 211.5 L252.5 232.5 L299.5 232.5 L299.5 211.5 Z"
           id="path57" />
      </clipPath>
      <clipPath
         clipPathUnits="userSpaceOnUse"
         id="clipPath20">
        <path
           d="M756.5 43.5 L756.5 64.5 L950.5 64.5 L950.5 43.5 Z"
           id="path60" />
      </clipPath>
      <clipPath
         clipPathUnits="userSpaceOnUse"
         id="clipPath21">
        <path
           d="M19.5 187.5 L19.5 208.5 L76.5 208.5 L76.5 187.5 Z"
           id="path63" />
      </clipPath>
      <clipPath
         clipPathUnits="userSpaceOnUse"
         id="clipPath22">
        <path
           d="M256.5 267.5 L256.5 288.5 L309.5 288.5 L309.5 267.5 Z"
           id="path66" />
      </clipPath>
      <clipPath
         clipPathUnits="userSpaceOnUse"
         id="clipPath23">
        <path
           d="M507.75 180.5 L507.75 201.5 L563.25 201.5 L563.25 180.5 Z"
           id="path69" />
      </clipPath>
      <clipPath
         clipPathUnits="userSpaceOnUse"
         id="clipPath24">
        <path
           d="M424.5 43.5 L424.5 64.5 L484.5 64.5 L484.5 43.5 Z"
           id="path72" />
      </clipPath>
      <clipPath
         clipPathUnits="userSpaceOnUse"
         id="clipPath25">
        <path
           d="M254 49.5 L254 70.5 L309 70.5 L309 49.5 Z"
           id="path75" />
      </clipPath>
      <clipPath
         clipPathUnits="userSpaceOnUse"
         id="clipPath26">
        <path
           d="M505.5 264.5 L505.5 285.5 L565.5 285.5 L565.5 264.5 Z"
           id="path78" />
      </clipPath>
      <clipPath
         clipPathUnits="userSpaceOnUse"
         id="clipPath27">
        <path
           d="M590.5 223.5 L590.5 244.5 L647.5 244.5 L647.5 223.5 Z"
           id="path81" />
      </clipPath>
      <clipPath
         clipPathUnits="userSpaceOnUse"
         id="clipPath28">
        <path
           d="M580.5 144.5 L580.5 165.5 L633.5 165.5 L633.5 144.5 Z"
           id="path84" />
      </clipPath>
      <clipPath
         clipPathUnits="userSpaceOnUse"
         id="clipPath29">
        <path
           d="M565.5 100.5 L565.5 121.5 L620.5 121.5 L620.5 100.5 Z"
           id="path87" />
      </clipPath>
      <clipPath
         clipPathUnits="userSpaceOnUse"
         id="clipPath30">
        <path
           d="M506.5 72.5 L506.5 93.5 L564.5 93.5 L564.5 72.5 Z"
           id="path90" />
      </clipPath>
      <clipPath
         clipPathUnits="userSpaceOnUse"
         id="clipPath31">
        <path
           d="M548.4861 164.3611 L548.4861 181.6389 L594.6389 181.6389 L594.6389 164.3611 Z"
           id="path93" />
      </clipPath>
      <clipPath
         clipPathUnits="userSpaceOnUse"
         id="clipPath32">
        <path
           d="M548.4724 200.3473 L548.4724 224.6527 L605.6526 224.6527 L605.6526 200.3473 Z"
           id="path96" />
      </clipPath>
      <clipPath
         clipPathUnits="userSpaceOnUse"
         id="clipPath33">
        <path
           d="M535 200.5 L535 265.5 L536 265.5 L536 200.5 Z"
           id="path99" />
      </clipPath>
      <clipPath
         clipPathUnits="userSpaceOnUse"
         id="clipPath34">
        <path
           d="M564.2985 243.2985 L564.2985 275.7015 L605.7015 275.7015 L605.7015 243.2985 Z"
           id="path102" />
      </clipPath>
      <clipPath
         clipPathUnits="userSpaceOnUse"
         id="clipPath35">
        <path
           d="M567 262.7 L567 283.7 L578 283.7 L578 262.7 Z"
           id="path105" />
      </clipPath>
      <clipPath
         clipPathUnits="userSpaceOnUse"
         id="clipPath36">
        <path
           d="M566.4551 250.618 L577.5449 250.618 L577.5449 265.9305 L566.4551 265.9305 L566.4551 250.618 Z"
           id="path108" />
      </clipPath>
      <clipPath
         clipPathUnits="userSpaceOnUse"
         id="clipPath37">
        <path
           d="M453.8172 63.3172 L453.8172 181.6828 L522.5578 181.6828 L522.5578 63.3172 Z"
           id="path111" />
      </clipPath>
      <clipPath
         clipPathUnits="userSpaceOnUse"
         id="clipPath38">
        <path
           d="M230.3485 69.3485 L230.3485 161.6515 L268.6515 161.6515 L268.6515 69.3485 Z"
           id="path114" />
      </clipPath>
      <clipPath
         clipPathUnits="userSpaceOnUse"
         id="clipPath39">
        <path
           d="M280.9891 69.4891 L280.9891 161.5109 L284.0109 161.5109 L284.0109 69.4891 Z"
           id="path117" />
      </clipPath>
      <clipPath
         clipPathUnits="userSpaceOnUse"
         id="clipPath40">
        <path
           d="M75.4703 185.4703 L75.4703 198.5297 L271.7797 198.5297 L271.7797 185.4703 Z"
           id="path120" />
      </clipPath>
      <clipPath
         clipPathUnits="userSpaceOnUse"
         id="clipPath41">
        <path
           d="M75.4961 196.4961 L75.4961 198.5039 L203.5039 198.5039 L203.5039 196.4961 Z"
           id="path123" />
      </clipPath>
      <clipPath
         clipPathUnits="userSpaceOnUse"
         id="clipPath42">
        <path
           d="M75.4727 197.4727 L75.4727 209.5273 L271.7773 209.5273 L271.7773 197.4727 Z"
           id="path126" />
      </clipPath>
      <clipPath
         clipPathUnits="userSpaceOnUse"
         id="clipPath43">
        <path
           d="M355.4807 190.4807 L355.4807 197.5193 L508.7693 197.5193 L508.7693 190.4807 Z"
           id="path129" />
      </clipPath>
      <clipPath
         clipPathUnits="userSpaceOnUse"
         id="clipPath44">
        <path
           d="M295.0792 135.3292 L295.0792 161.6708 L308.9208 161.6708 L308.9208 135.3292 Z"
           id="path132" />
      </clipPath>
      <clipPath
         clipPathUnits="userSpaceOnUse"
         id="clipPath45">
        <path
           d="M282.7996 53.2996 L282.7996 161.7004 L425.7004 161.7004 L425.7004 53.2996 Z"
           id="path135" />
      </clipPath>
      <clipPath
         clipPathUnits="userSpaceOnUse"
         id="clipPath46">
        <path
           d="M331.2976 63.2976 L331.2976 161.7024 L455.2024 161.7024 L455.2024 63.2976 Z"
           id="path138" />
      </clipPath>
      <clipPath
         clipPathUnits="userSpaceOnUse"
         id="clipPath47">
        <path
           d="M343.3332 82.3332 L343.3332 161.6668 L507.6668 161.6668 L507.6668 82.3332 Z"
           id="path141" />
      </clipPath>
      <clipPath
         clipPathUnits="userSpaceOnUse"
         id="clipPath48">
        <path
           d="M355.3789 110.3789 L355.3789 173.6211 L566.6212 173.6211 L566.6212 110.3789 Z"
           id="path144" />
      </clipPath>
      <clipPath
         clipPathUnits="userSpaceOnUse"
         id="clipPath49">
        <path
           d="M282.9205 110.4205 L282.9205 161.5795 L566.5795 161.5795 L566.5795 110.4205 Z"
           id="path147" />
      </clipPath>
      <clipPath
         clipPathUnits="userSpaceOnUse"
         id="clipPath50">
        <path
           d="M282.8632 82.3632 L282.8632 161.6368 L507.6368 161.6368 L507.6368 82.3632 Z"
           id="path150" />
      </clipPath>
      <clipPath
         clipPathUnits="userSpaceOnUse"
         id="clipPath51">
        <path
           d="M695.5 77.5 L695.5 78.5 L748.5 78.5 L748.5 77.5 Z"
           id="path153" />
      </clipPath>
      <clipPath
         clipPathUnits="userSpaceOnUse"
         id="clipPath52">
        <path
           d="M749.5 67.5 L749.5 88.5 L934.5 88.5 L934.5 67.5 Z"
           id="path156" />
      </clipPath>
      <clipPath
         clipPathUnits="userSpaceOnUse"
         id="clipPath53">
        <path
           d="M696.5 100.5 L696.5 101.5 L749.5 101.5 L749.5 100.5 Z"
           id="path159" />
      </clipPath>
      <clipPath
         clipPathUnits="userSpaceOnUse"
         id="clipPath54">
        <path
           d="M735.5 90.5 L735.5 111.5 L920.5 111.5 L920.5 90.5 Z"
           id="path162" />
      </clipPath>
      <clipPath
         clipPathUnits="userSpaceOnUse"
         id="clipPath55">
        <path
           d="M297.5 115.5 L297.5 136.5 L339.5 136.5 L339.5 115.5 Z"
           id="path165" />
      </clipPath>
      <clipPath
         clipPathUnits="userSpaceOnUse"
         id="clipPath56">
        <path
           d="M295.2096 190.4596 L295.2096 209.5404 L508.7904 209.5404 L508.7904 190.4596 Z"
           id="path168" />
      </clipPath>
      <clipPath
         clipPathUnits="userSpaceOnUse"
         id="clipPath57">
        <path
           d="M230.4893 184.4893 L230.4893 191.5107 L508.7607 191.5107 L508.7607 184.4893 Z"
           id="path171" />
      </clipPath>
      <clipPath
         clipPathUnits="userSpaceOnUse"
         id="clipPath58">
        <path
           d="M282.989 185.489 L282.989 191.511 L508.761 191.511 L508.761 185.489 Z"
           id="path174" />
      </clipPath>
      <clipPath
         clipPathUnits="userSpaceOnUse"
         id="clipPath59">
        <path
           d="M230.4491 160.4491 L230.4491 191.5509 L508.8009 191.5509 L508.8009 160.4491 Z"
           id="path177" />
      </clipPath>
      <clipPath
         clipPathUnits="userSpaceOnUse"
         id="clipPath60">
        <path
           d="M307.5 184.5 L307.5 209.5 L356.5 209.5 L356.5 184.5 Z"
           id="path180" />
      </clipPath>
      <clipPath
         clipPathUnits="userSpaceOnUse"
         id="clipPath61">
        <path
           d="M307.5 160.5 L307.5 185.5 L356.5 185.5 L356.5 160.5 Z"
           id="path183" />
      </clipPath>
      <clipPath
         clipPathUnits="userSpaceOnUse"
         id="clipPath62">
        <path
           d="M258.5 160.5 L258.5 186.5 L308.5 186.5 L308.5 160.5 Z"
           id="path186" />
      </clipPath>
      <clipPath
         clipPathUnits="userSpaceOnUse"
         id="clipPath63">
        <path
           d="M258.5 184.5 L258.5 209.5 L308.5 209.5 L308.5 184.5 Z"
           id="path189" />
      </clipPath>
      <clipPath
         clipPathUnits="userSpaceOnUse"
         id="clipPath64">
        <path
           d="M202.5 160.5 L202.5 185.5 L259.5 185.5 L259.5 160.5 Z"
           id="path192" />
      </clipPath>
      <clipPath
         clipPathUnits="userSpaceOnUse"
         id="clipPath65">
        <path
           d="M202.5 184.5 L202.5 209.5 L259.5 209.5 L259.5 184.5 Z"
           id="path195" />
      </clipPath>
    </defs>
    <g
       style="fill:white; stroke:white;"
       id="g201">
      <rect
         x="0"
         width="989"
         height="318"
         y="0"
         style="stroke:none;"
         id="rect199" />
    </g>
    <g
       style="font-weight:bold; font-size:10; text-rendering:geometricPrecision;"
       id="g211">
      <path
         d="M0.0469 6.7031 L6.7656 6.7031 L6.7656 8.125 L4.3438 8.125 L4.3438 14 L2.4688 14 L2.4688 8.125 L0.0469 8.125 L0.0469 6.7031 ZM7.665 8.5312 L9.415 8.5312 L9.415 14 L7.665 14 L7.665 8.5312 ZM7.665 6.4062 L9.415 6.4062 L9.415 7.8281 L7.665 7.8281 L7.665 6.4062 ZM12.999 6.9844 L12.999 8.5312 L14.7959 8.5312 L14.7959 9.7812 L12.999 9.7812 L12.999 12.0938 Q12.999 12.4844 13.1475 12.6172 Q13.2959 12.75 13.749 12.75 L14.6553 12.75 L14.6553 14 L13.1553 14 Q12.1084 14 11.6787 13.5703 Q11.249 13.1406 11.249 12.0938 L11.249 9.7812 L10.374 9.7812 L10.374 8.5312 L11.249 8.5312 L11.249 6.9844 L12.999 6.9844 ZM15.873 6.4062 L17.623 6.4062 L17.623 14 L15.873 14 L15.873 6.4062 ZM24.7539 11.25 L24.7539 11.75 L20.6758 11.75 Q20.7383 12.3594 21.1133 12.6719 Q21.4883 12.9844 22.1758 12.9844 Q22.7227 12.9844 23.3086 12.8203 Q23.8945 12.6562 24.5039 12.3125 L24.5039 13.6719 Q23.8789 13.9062 23.2617 14.0234 Q22.6445 14.1406 22.0195 14.1406 Q20.5352 14.1406 19.7148 13.3828 Q18.8945 12.625 18.8945 11.2656 Q18.8945 9.9375 19.6992 9.1719 Q20.5039 8.4062 21.9258 8.4062 Q23.207 8.4062 23.9805 9.1797 Q24.7539 9.9531 24.7539 11.25 ZM22.957 10.6719 Q22.957 10.1719 22.668 9.8672 Q22.3789 9.5625 21.9102 9.5625 Q21.3945 9.5625 21.082 9.8438 Q20.7695 10.125 20.6914 10.6719 L22.957 10.6719 ZM26.3643 8.5312 L28.1143 8.5312 L28.1143 10.4219 L26.3643 10.4219 L26.3643 8.5312 ZM26.3643 12.1094 L28.1143 12.1094 L28.1143 14 L26.3643 14 L26.3643 12.1094 Z"
         style="clip-path:url(#clipPath2); stroke:none;"
         clip-path="url(#clipPath2)"
         id="path203" />
      <path
         d="M38.9844 6.7031 L39.9688 6.7031 L39.9688 14 L38.9844 14 L38.9844 6.7031 ZM46.4336 10.7031 L46.4336 14 L45.543 14 L45.543 10.7344 Q45.543 9.9531 45.2383 9.5703 Q44.9336 9.1875 44.3242 9.1875 Q43.6055 9.1875 43.1836 9.6484 Q42.7617 10.1094 42.7617 10.9062 L42.7617 14 L41.8555 14 L41.8555 8.5312 L42.7617 8.5312 L42.7617 9.375 Q43.0898 8.8906 43.5273 8.6484 Q43.9648 8.4062 44.5273 8.4062 Q45.4648 8.4062 45.9492 8.9844 Q46.4336 9.5625 46.4336 10.7031 ZM49.1152 6.9844 L49.1152 8.5312 L50.9746 8.5312 L50.9746 9.2344 L49.1152 9.2344 L49.1152 12.2031 Q49.1152 12.8594 49.3027 13.0547 Q49.4902 13.25 50.0527 13.25 L50.9746 13.25 L50.9746 14 L50.0527 14 Q49.0059 14 48.6074 13.6094 Q48.209 13.2188 48.209 12.2031 L48.209 9.2344 L47.5527 9.2344 L47.5527 8.5312 L48.209 8.5312 L48.209 6.9844 L49.1152 6.9844 ZM56.833 11.0469 L56.833 11.4844 L52.6924 11.4844 Q52.7549 12.4062 53.2549 12.8906 Q53.7549 13.375 54.6455 13.375 Q55.1611 13.375 55.6533 13.25 Q56.1455 13.125 56.6143 12.875 L56.6143 13.7188 Q56.1299 13.9219 55.6221 14.0312 Q55.1143 14.1406 54.5986 14.1406 Q53.2861 14.1406 52.5205 13.3828 Q51.7549 12.625 51.7549 11.3125 Q51.7549 9.9688 52.4814 9.1875 Q53.208 8.4062 54.4424 8.4062 Q55.5518 8.4062 56.1924 9.1094 Q56.833 9.8125 56.833 11.0469 ZM55.9268 10.7812 Q55.9268 10.0469 55.5205 9.6016 Q55.1143 9.1562 54.458 9.1562 Q53.6924 9.1562 53.2471 9.5859 Q52.8018 10.0156 52.7236 10.7812 L55.9268 10.7812 ZM61.4697 9.375 Q61.3135 9.2812 61.1416 9.2422 Q60.9697 9.2031 60.751 9.2031 Q59.9854 9.2031 59.5791 9.6953 Q59.1729 10.1875 59.1729 11.125 L59.1729 14 L58.2666 14 L58.2666 8.5312 L59.1729 8.5312 L59.1729 9.375 Q59.4541 8.875 59.9072 8.6406 Q60.3604 8.4062 61.0166 8.4062 Q61.1104 8.4062 61.2197 8.4141 Q61.3291 8.4219 61.4697 8.4531 L61.4697 9.375 ZM64.8936 11.25 Q63.8154 11.25 63.3936 11.5 Q62.9717 11.75 62.9717 12.3438 Q62.9717 12.8281 63.2842 13.1094 Q63.5967 13.3906 64.1436 13.3906 Q64.8936 13.3906 65.3467 12.8594 Q65.7998 12.3281 65.7998 11.4531 L65.7998 11.25 L64.8936 11.25 ZM66.6904 10.875 L66.6904 14 L65.7998 14 L65.7998 13.1719 Q65.4873 13.6719 65.0264 13.9062 Q64.5654 14.1406 63.9092 14.1406 Q63.0654 14.1406 62.5654 13.6719 Q62.0654 13.2031 62.0654 12.4062 Q62.0654 11.4844 62.6904 11.0156 Q63.3154 10.5469 64.5342 10.5469 L65.7998 10.5469 L65.7998 10.4531 Q65.7998 9.8438 65.3857 9.5 Q64.9717 9.1562 64.2373 9.1562 Q63.7686 9.1562 63.3232 9.2734 Q62.8779 9.3906 62.4717 9.6094 L62.4717 8.7812 Q62.9717 8.5938 63.4326 8.5 Q63.8936 8.4062 64.3311 8.4062 Q65.5186 8.4062 66.1045 9.0156 Q66.6904 9.625 66.6904 10.875 ZM72.4746 8.7344 L72.4746 9.5781 Q72.0996 9.375 71.7168 9.2656 Q71.334 9.1562 70.9434 9.1562 Q70.0684 9.1562 69.584 9.7109 Q69.0996 10.2656 69.0996 11.2656 Q69.0996 12.2656 69.584 12.8203 Q70.0684 13.375 70.9434 13.375 Q71.334 13.375 71.7168 13.2734 Q72.0996 13.1719 72.4746 12.9531 L72.4746 13.7969 Q72.0996 13.9688 71.7012 14.0547 Q71.3027 14.1406 70.8496 14.1406 Q69.5996 14.1406 68.873 13.3672 Q68.1465 12.5938 68.1465 11.2656 Q68.1465 9.9375 68.8809 9.1719 Q69.6152 8.4062 70.8965 8.4062 Q71.3184 8.4062 71.709 8.4844 Q72.0996 8.5625 72.4746 8.7344 ZM74.9258 6.9844 L74.9258 8.5312 L76.7852 8.5312 L76.7852 9.2344 L74.9258 9.2344 L74.9258 12.2031 Q74.9258 12.8594 75.1133 13.0547 Q75.3008 13.25 75.8633 13.25 L76.7852 13.25 L76.7852 14 L75.8633 14 Q74.8164 14 74.418 13.6094 Q74.0195 13.2188 74.0195 12.2031 L74.0195 9.2344 L73.3633 9.2344 L73.3633 8.5312 L74.0195 8.5312 L74.0195 6.9844 L74.9258 6.9844 ZM80.0811 9.1562 Q79.3623 9.1562 78.9404 9.7188 Q78.5186 10.2812 78.5186 11.2656 Q78.5186 12.25 78.9326 12.8125 Q79.3467 13.375 80.0811 13.375 Q80.7998 13.375 81.2217 12.8125 Q81.6436 12.25 81.6436 11.2656 Q81.6436 10.2969 81.2217 9.7266 Q80.7998 9.1562 80.0811 9.1562 ZM80.0811 8.4062 Q81.2529 8.4062 81.9248 9.1641 Q82.5967 9.9219 82.5967 11.2656 Q82.5967 12.6094 81.9248 13.375 Q81.2529 14.1406 80.0811 14.1406 Q78.9092 14.1406 78.2373 13.375 Q77.5654 12.6094 77.5654 11.2656 Q77.5654 9.9219 78.2373 9.1641 Q78.9092 8.4062 80.0811 8.4062 ZM88.3398 9.5781 Q88.668 8.9688 89.1367 8.6875 Q89.6055 8.4062 90.2461 8.4062 Q91.1055 8.4062 91.5664 9 Q92.0273 9.5938 92.0273 10.7031 L92.0273 14 L91.1211 14 L91.1211 10.7344 Q91.1211 9.9375 90.8477 9.5625 Q90.5742 9.1875 89.9961 9.1875 Q89.293 9.1875 88.8945 9.6484 Q88.4961 10.1094 88.4961 10.9062 L88.4961 14 L87.5898 14 L87.5898 10.7344 Q87.5898 9.9375 87.3086 9.5625 Q87.0273 9.1875 86.4492 9.1875 Q85.7617 9.1875 85.3555 9.6484 Q84.9492 10.1094 84.9492 10.9062 L84.9492 14 L84.043 14 L84.043 8.5312 L84.9492 8.5312 L84.9492 9.375 Q85.2617 8.875 85.6914 8.6406 Q86.1211 8.4062 86.6992 8.4062 Q87.3086 8.4062 87.7227 8.7031 Q88.1367 9 88.3398 9.5781 ZM98.5029 11.0469 L98.5029 11.4844 L94.3623 11.4844 Q94.4248 12.4062 94.9248 12.8906 Q95.4248 13.375 96.3154 13.375 Q96.8311 13.375 97.3232 13.25 Q97.8154 13.125 98.2842 12.875 L98.2842 13.7188 Q97.7998 13.9219 97.292 14.0312 Q96.7842 14.1406 96.2686 14.1406 Q94.9561 14.1406 94.1904 13.3828 Q93.4248 12.625 93.4248 11.3125 Q93.4248 9.9688 94.1514 9.1875 Q94.8779 8.4062 96.1123 8.4062 Q97.2217 8.4062 97.8623 9.1094 Q98.5029 9.8125 98.5029 11.0469 ZM97.5967 10.7812 Q97.5967 10.0469 97.1904 9.6016 Q96.7842 9.1562 96.1279 9.1562 Q95.3623 9.1562 94.917 9.5859 Q94.4717 10.0156 94.3936 10.7812 L97.5967 10.7812 ZM105.2715 9.1562 Q104.5527 9.1562 104.1309 9.7188 Q103.709 10.2812 103.709 11.2656 Q103.709 12.25 104.123 12.8125 Q104.5371 13.375 105.2715 13.375 Q105.9902 13.375 106.4121 12.8125 Q106.834 12.25 106.834 11.2656 Q106.834 10.2969 106.4121 9.7266 Q105.9902 9.1562 105.2715 9.1562 ZM105.2715 8.4062 Q106.4434 8.4062 107.1152 9.1641 Q107.7871 9.9219 107.7871 11.2656 Q107.7871 12.6094 107.1152 13.375 Q106.4434 14.1406 105.2715 14.1406 Q104.0996 14.1406 103.4277 13.375 Q102.7559 12.6094 102.7559 11.2656 Q102.7559 9.9219 103.4277 9.1641 Q104.0996 8.4062 105.2715 8.4062 ZM112.0459 6.4062 L112.0459 7.1562 L111.1865 7.1562 Q110.7021 7.1562 110.5146 7.3516 Q110.3271 7.5469 110.3271 8.0469 L110.3271 8.5312 L111.7959 8.5312 L111.7959 9.2344 L110.3271 9.2344 L110.3271 14 L109.4209 14 L109.4209 9.2344 L108.5615 9.2344 L108.5615 8.5312 L109.4209 8.5312 L109.4209 8.1562 Q109.4209 7.2344 109.8428 6.8203 Q110.2646 6.4062 111.1865 6.4062 L112.0459 6.4062 ZM116.8389 13.1719 L116.8389 16.0781 L115.9326 16.0781 L115.9326 8.5312 L116.8389 8.5312 L116.8389 9.3594 Q117.1201 8.875 117.5498 8.6406 Q117.9795 8.4062 118.5889 8.4062 Q119.5889 8.4062 120.2061 9.1953 Q120.8232 9.9844 120.8232 11.2656 Q120.8232 12.5625 120.2061 13.3516 Q119.5889 14.1406 118.5889 14.1406 Q117.9795 14.1406 117.5498 13.9062 Q117.1201 13.6719 116.8389 13.1719 ZM119.9014 11.2656 Q119.9014 10.2812 119.4873 9.7188 Q119.0732 9.1562 118.3701 9.1562 Q117.6514 9.1562 117.2451 9.7188 Q116.8389 10.2812 116.8389 11.2656 Q116.8389 12.2656 117.2451 12.8281 Q117.6514 13.3906 118.3701 13.3906 Q119.0732 13.3906 119.4873 12.8281 Q119.9014 12.2656 119.9014 11.2656 ZM124.4365 9.1562 Q123.7178 9.1562 123.2959 9.7188 Q122.874 10.2812 122.874 11.2656 Q122.874 12.25 123.2881 12.8125 Q123.7021 13.375 124.4365 13.375 Q125.1553 13.375 125.5771 12.8125 Q125.999 12.25 125.999 11.2656 Q125.999 10.2969 125.5771 9.7266 Q125.1553 9.1562 124.4365 9.1562 ZM124.4365 8.4062 Q125.6084 8.4062 126.2803 9.1641 Q126.9521 9.9219 126.9521 11.2656 Q126.9521 12.6094 126.2803 13.375 Q125.6084 14.1406 124.4365 14.1406 Q123.2646 14.1406 122.5928 13.375 Q121.9209 12.6094 121.9209 11.2656 Q121.9209 9.9219 122.5928 9.1641 Q123.2646 8.4062 124.4365 8.4062 ZM128.4297 6.4062 L129.3359 6.4062 L129.3359 14 L128.4297 14 L128.4297 6.4062 ZM133.4893 14.5156 Q133.1143 15.4844 132.7471 15.7812 Q132.3799 16.0781 131.7861 16.0781 L131.0674 16.0781 L131.0674 15.3281 L131.583 15.3281 Q131.958 15.3281 132.1611 15.1562 Q132.3643 14.9844 132.6143 14.3281 L132.7861 13.9062 L130.5674 8.5312 L131.5205 8.5312 L133.2236 12.8125 L134.9424 8.5312 L135.8955 8.5312 L133.4893 14.5156 ZM141.0635 8.7344 L141.0635 9.5781 Q140.6885 9.375 140.3057 9.2656 Q139.9229 9.1562 139.5322 9.1562 Q138.6572 9.1562 138.1729 9.7109 Q137.6885 10.2656 137.6885 11.2656 Q137.6885 12.2656 138.1729 12.8203 Q138.6572 13.375 139.5322 13.375 Q139.9229 13.375 140.3057 13.2734 Q140.6885 13.1719 141.0635 12.9531 L141.0635 13.7969 Q140.6885 13.9688 140.29 14.0547 Q139.8916 14.1406 139.4385 14.1406 Q138.1885 14.1406 137.4619 13.3672 Q136.7354 12.5938 136.7354 11.2656 Q136.7354 9.9375 137.4697 9.1719 Q138.2041 8.4062 139.4854 8.4062 Q139.9072 8.4062 140.2979 8.4844 Q140.6885 8.5625 141.0635 8.7344 ZM144.749 9.1562 Q144.0303 9.1562 143.6084 9.7188 Q143.1865 10.2812 143.1865 11.2656 Q143.1865 12.25 143.6006 12.8125 Q144.0146 13.375 144.749 13.375 Q145.4678 13.375 145.8896 12.8125 Q146.3115 12.25 146.3115 11.2656 Q146.3115 10.2969 145.8896 9.7266 Q145.4678 9.1562 144.749 9.1562 ZM144.749 8.4062 Q145.9209 8.4062 146.5928 9.1641 Q147.2646 9.9219 147.2646 11.2656 Q147.2646 12.6094 146.5928 13.375 Q145.9209 14.1406 144.749 14.1406 Q143.5771 14.1406 142.9053 13.375 Q142.2334 12.6094 142.2334 11.2656 Q142.2334 9.9219 142.9053 9.1641 Q143.5771 8.4062 144.749 8.4062 ZM153.0078 9.5781 Q153.3359 8.9688 153.8047 8.6875 Q154.2734 8.4062 154.9141 8.4062 Q155.7734 8.4062 156.2344 9 Q156.6953 9.5938 156.6953 10.7031 L156.6953 14 L155.7891 14 L155.7891 10.7344 Q155.7891 9.9375 155.5156 9.5625 Q155.2422 9.1875 154.6641 9.1875 Q153.9609 9.1875 153.5625 9.6484 Q153.1641 10.1094 153.1641 10.9062 L153.1641 14 L152.2578 14 L152.2578 10.7344 Q152.2578 9.9375 151.9766 9.5625 Q151.6953 9.1875 151.1172 9.1875 Q150.4297 9.1875 150.0234 9.6484 Q149.6172 10.1094 149.6172 10.9062 L149.6172 14 L148.7109 14 L148.7109 8.5312 L149.6172 8.5312 L149.6172 9.375 Q149.9297 8.875 150.3594 8.6406 Q150.7891 8.4062 151.3672 8.4062 Q151.9766 8.4062 152.3906 8.7031 Q152.8047 9 153.0078 9.5781 ZM162.4209 11.2656 Q162.4209 10.2812 162.0068 9.7188 Q161.5928 9.1562 160.8896 9.1562 Q160.1709 9.1562 159.7646 9.7188 Q159.3584 10.2812 159.3584 11.2656 Q159.3584 12.2656 159.7646 12.8281 Q160.1709 13.3906 160.8896 13.3906 Q161.5928 13.3906 162.0068 12.8281 Q162.4209 12.2656 162.4209 11.2656 ZM159.3584 9.3594 Q159.6396 8.875 160.0693 8.6406 Q160.499 8.4062 161.1084 8.4062 Q162.1084 8.4062 162.7256 9.1953 Q163.3428 9.9844 163.3428 11.2656 Q163.3428 12.5625 162.7256 13.3516 Q162.1084 14.1406 161.1084 14.1406 Q160.499 14.1406 160.0693 13.9062 Q159.6396 13.6719 159.3584 13.1719 L159.3584 14 L158.4521 14 L158.4521 6.4062 L159.3584 6.4062 L159.3584 9.3594 ZM171.1816 9.375 Q171.0254 9.2812 170.8535 9.2422 Q170.6816 9.2031 170.4629 9.2031 Q169.6973 9.2031 169.291 9.6953 Q168.8848 10.1875 168.8848 11.125 L168.8848 14 L167.9785 14 L167.9785 8.5312 L168.8848 8.5312 L168.8848 9.375 Q169.166 8.875 169.6191 8.6406 Q170.0723 8.4062 170.7285 8.4062 Q170.8223 8.4062 170.9316 8.4141 Q171.041 8.4219 171.1816 8.4531 L171.1816 9.375 ZM176.8086 11.0469 L176.8086 11.4844 L172.668 11.4844 Q172.7305 12.4062 173.2305 12.8906 Q173.7305 13.375 174.6211 13.375 Q175.1367 13.375 175.6289 13.25 Q176.1211 13.125 176.5898 12.875 L176.5898 13.7188 Q176.1055 13.9219 175.5977 14.0312 Q175.0898 14.1406 174.5742 14.1406 Q173.2617 14.1406 172.4961 13.3828 Q171.7305 12.625 171.7305 11.3125 Q171.7305 9.9688 172.457 9.1875 Q173.1836 8.4062 174.418 8.4062 Q175.5273 8.4062 176.168 9.1094 Q176.8086 9.8125 176.8086 11.0469 ZM175.9023 10.7812 Q175.9023 10.0469 175.4961 9.6016 Q175.0898 9.1562 174.4336 9.1562 Q173.668 9.1562 173.2227 9.5859 Q172.7773 10.0156 172.6992 10.7812 L175.9023 10.7812 ZM179.1484 13.1719 L179.1484 16.0781 L178.2422 16.0781 L178.2422 8.5312 L179.1484 8.5312 L179.1484 9.3594 Q179.4297 8.875 179.8594 8.6406 Q180.2891 8.4062 180.8984 8.4062 Q181.8984 8.4062 182.5156 9.1953 Q183.1328 9.9844 183.1328 11.2656 Q183.1328 12.5625 182.5156 13.3516 Q181.8984 14.1406 180.8984 14.1406 Q180.2891 14.1406 179.8594 13.9062 Q179.4297 13.6719 179.1484 13.1719 ZM182.2109 11.2656 Q182.2109 10.2812 181.7969 9.7188 Q181.3828 9.1562 180.6797 9.1562 Q179.9609 9.1562 179.5547 9.7188 Q179.1484 10.2812 179.1484 11.2656 Q179.1484 12.2656 179.5547 12.8281 Q179.9609 13.3906 180.6797 13.3906 Q181.3828 13.3906 181.7969 12.8281 Q182.2109 12.2656 182.2109 11.2656 ZM187.793 9.375 Q187.6367 9.2812 187.4648 9.2422 Q187.293 9.2031 187.0742 9.2031 Q186.3086 9.2031 185.9023 9.6953 Q185.4961 10.1875 185.4961 11.125 L185.4961 14 L184.5898 14 L184.5898 8.5312 L185.4961 8.5312 L185.4961 9.375 Q185.7773 8.875 186.2305 8.6406 Q186.6836 8.4062 187.3398 8.4062 Q187.4336 8.4062 187.543 8.4141 Q187.6523 8.4219 187.793 8.4531 L187.793 9.375 ZM193.4199 11.0469 L193.4199 11.4844 L189.2793 11.4844 Q189.3418 12.4062 189.8418 12.8906 Q190.3418 13.375 191.2324 13.375 Q191.748 13.375 192.2402 13.25 Q192.7324 13.125 193.2012 12.875 L193.2012 13.7188 Q192.7168 13.9219 192.209 14.0312 Q191.7012 14.1406 191.1855 14.1406 Q189.873 14.1406 189.1074 13.3828 Q188.3418 12.625 188.3418 11.3125 Q188.3418 9.9688 189.0684 9.1875 Q189.7949 8.4062 191.0293 8.4062 Q192.1387 8.4062 192.7793 9.1094 Q193.4199 9.8125 193.4199 11.0469 ZM192.5137 10.7812 Q192.5137 10.0469 192.1074 9.6016 Q191.7012 9.1562 191.0449 9.1562 Q190.2793 9.1562 189.834 9.5859 Q189.3887 10.0156 189.3105 10.7812 L192.5137 10.7812 ZM198.3691 8.6875 L198.3691 9.5469 Q197.9941 9.3438 197.5879 9.25 Q197.1816 9.1562 196.7285 9.1562 Q196.0723 9.1562 195.7363 9.3594 Q195.4004 9.5625 195.4004 9.9688 Q195.4004 10.2812 195.6348 10.4609 Q195.8691 10.6406 196.6035 10.7969 L196.9004 10.875 Q197.8691 11.0781 198.2676 11.4531 Q198.666 11.8281 198.666 12.4844 Q198.666 13.25 198.0645 13.6953 Q197.4629 14.1406 196.416 14.1406 Q195.9629 14.1406 195.4863 14.0547 Q195.0098 13.9688 194.4941 13.7969 L194.4941 12.875 Q194.9941 13.125 195.4707 13.2578 Q195.9473 13.3906 196.4316 13.3906 Q197.0566 13.3906 197.4004 13.1719 Q197.7441 12.9531 197.7441 12.5625 Q197.7441 12.1875 197.502 11.9922 Q197.2598 11.7969 196.416 11.625 L196.1035 11.5469 Q195.2754 11.375 194.9004 11.0078 Q194.5254 10.6406 194.5254 10.0156 Q194.5254 9.2344 195.0723 8.8203 Q195.6191 8.4062 196.6348 8.4062 Q197.1191 8.4062 197.5645 8.4766 Q198.0098 8.5469 198.3691 8.6875 ZM203.5791 8.6875 L203.5791 9.5469 Q203.2041 9.3438 202.7979 9.25 Q202.3916 9.1562 201.9385 9.1562 Q201.2822 9.1562 200.9463 9.3594 Q200.6104 9.5625 200.6104 9.9688 Q200.6104 10.2812 200.8447 10.4609 Q201.0791 10.6406 201.8135 10.7969 L202.1104 10.875 Q203.0791 11.0781 203.4775 11.4531 Q203.876 11.8281 203.876 12.4844 Q203.876 13.25 203.2744 13.6953 Q202.6729 14.1406 201.626 14.1406 Q201.1729 14.1406 200.6963 14.0547 Q200.2197 13.9688 199.7041 13.7969 L199.7041 12.875 Q200.2041 13.125 200.6807 13.2578 Q201.1572 13.3906 201.6416 13.3906 Q202.2666 13.3906 202.6104 13.1719 Q202.9541 12.9531 202.9541 12.5625 Q202.9541 12.1875 202.7119 11.9922 Q202.4697 11.7969 201.626 11.625 L201.3135 11.5469 Q200.4854 11.375 200.1104 11.0078 Q199.7354 10.6406 199.7354 10.0156 Q199.7354 9.2344 200.2822 8.8203 Q200.8291 8.4062 201.8447 8.4062 Q202.3291 8.4062 202.7744 8.4766 Q203.2197 8.5469 203.5791 8.6875 ZM205.3047 8.5312 L206.2109 8.5312 L206.2109 14 L205.3047 14 L205.3047 8.5312 ZM205.3047 6.4062 L206.2109 6.4062 L206.2109 7.5469 L205.3047 7.5469 L205.3047 6.4062 ZM207.4424 8.5312 L208.3955 8.5312 L210.0986 13.125 L211.8174 8.5312 L212.7705 8.5312 L210.708 14 L209.4893 14 L207.4424 8.5312 ZM218.6885 11.0469 L218.6885 11.4844 L214.5479 11.4844 Q214.6104 12.4062 215.1104 12.8906 Q215.6104 13.375 216.501 13.375 Q217.0166 13.375 217.5088 13.25 Q218.001 13.125 218.4697 12.875 L218.4697 13.7188 Q217.9854 13.9219 217.4775 14.0312 Q216.9697 14.1406 216.4541 14.1406 Q215.1416 14.1406 214.376 13.3828 Q213.6104 12.625 213.6104 11.3125 Q213.6104 9.9688 214.3369 9.1875 Q215.0635 8.4062 216.2979 8.4062 Q217.4072 8.4062 218.0479 9.1094 Q218.6885 9.8125 218.6885 11.0469 ZM217.7822 10.7812 Q217.7822 10.0469 217.376 9.6016 Q216.9697 9.1562 216.3135 9.1562 Q215.5479 9.1562 215.1025 9.5859 Q214.6572 10.0156 214.5791 10.7812 L217.7822 10.7812 ZM227.2695 8.7344 L227.2695 9.5781 Q226.8945 9.375 226.5117 9.2656 Q226.1289 9.1562 225.7383 9.1562 Q224.8633 9.1562 224.3789 9.7109 Q223.8945 10.2656 223.8945 11.2656 Q223.8945 12.2656 224.3789 12.8203 Q224.8633 13.375 225.7383 13.375 Q226.1289 13.375 226.5117 13.2734 Q226.8945 13.1719 227.2695 12.9531 L227.2695 13.7969 Q226.8945 13.9688 226.4961 14.0547 Q226.0977 14.1406 225.6445 14.1406 Q224.3945 14.1406 223.668 13.3672 Q222.9414 12.5938 222.9414 11.2656 Q222.9414 9.9375 223.6758 9.1719 Q224.4102 8.4062 225.6914 8.4062 Q226.1133 8.4062 226.5039 8.4844 Q226.8945 8.5625 227.2695 8.7344 ZM230.9551 9.1562 Q230.2363 9.1562 229.8145 9.7188 Q229.3926 10.2812 229.3926 11.2656 Q229.3926 12.25 229.8066 12.8125 Q230.2207 13.375 230.9551 13.375 Q231.6738 13.375 232.0957 12.8125 Q232.5176 12.25 232.5176 11.2656 Q232.5176 10.2969 232.0957 9.7266 Q231.6738 9.1562 230.9551 9.1562 ZM230.9551 8.4062 Q232.127 8.4062 232.7988 9.1641 Q233.4707 9.9219 233.4707 11.2656 Q233.4707 12.6094 232.7988 13.375 Q232.127 14.1406 230.9551 14.1406 Q229.7832 14.1406 229.1113 13.375 Q228.4395 12.6094 228.4395 11.2656 Q228.4395 9.9219 229.1113 9.1641 Q229.7832 8.4062 230.9551 8.4062 ZM239.2139 9.5781 Q239.542 8.9688 240.0107 8.6875 Q240.4795 8.4062 241.1201 8.4062 Q241.9795 8.4062 242.4404 9 Q242.9014 9.5938 242.9014 10.7031 L242.9014 14 L241.9951 14 L241.9951 10.7344 Q241.9951 9.9375 241.7217 9.5625 Q241.4482 9.1875 240.8701 9.1875 Q240.167 9.1875 239.7686 9.6484 Q239.3701 10.1094 239.3701 10.9062 L239.3701 14 L238.4639 14 L238.4639 10.7344 Q238.4639 9.9375 238.1826 9.5625 Q237.9014 9.1875 237.3232 9.1875 Q236.6357 9.1875 236.2295 9.6484 Q235.8232 10.1094 235.8232 10.9062 L235.8232 14 L234.917 14 L234.917 8.5312 L235.8232 8.5312 L235.8232 9.375 Q236.1357 8.875 236.5654 8.6406 Q236.9951 8.4062 237.5732 8.4062 Q238.1826 8.4062 238.5967 8.7031 Q239.0107 9 239.2139 9.5781 ZM245.5645 13.1719 L245.5645 16.0781 L244.6582 16.0781 L244.6582 8.5312 L245.5645 8.5312 L245.5645 9.3594 Q245.8457 8.875 246.2754 8.6406 Q246.7051 8.4062 247.3145 8.4062 Q248.3145 8.4062 248.9316 9.1953 Q249.5488 9.9844 249.5488 11.2656 Q249.5488 12.5625 248.9316 13.3516 Q248.3145 14.1406 247.3145 14.1406 Q246.7051 14.1406 246.2754 13.9062 Q245.8457 13.6719 245.5645 13.1719 ZM248.627 11.2656 Q248.627 10.2812 248.2129 9.7188 Q247.7988 9.1562 247.0957 9.1562 Q246.377 9.1562 245.9707 9.7188 Q245.5645 10.2812 245.5645 11.2656 Q245.5645 12.2656 245.9707 12.8281 Q246.377 13.3906 247.0957 13.3906 Q247.7988 13.3906 248.2129 12.8281 Q248.627 12.2656 248.627 11.2656 ZM251.0371 6.4062 L251.9434 6.4062 L251.9434 14 L251.0371 14 L251.0371 6.4062 ZM258.5029 11.0469 L258.5029 11.4844 L254.3623 11.4844 Q254.4248 12.4062 254.9248 12.8906 Q255.4248 13.375 256.3154 13.375 Q256.8311 13.375 257.3232 13.25 Q257.8154 13.125 258.2842 12.875 L258.2842 13.7188 Q257.7998 13.9219 257.292 14.0312 Q256.7842 14.1406 256.2686 14.1406 Q254.9561 14.1406 254.1904 13.3828 Q253.4248 12.625 253.4248 11.3125 Q253.4248 9.9688 254.1514 9.1875 Q254.8779 8.4062 256.1123 8.4062 Q257.2217 8.4062 257.8623 9.1094 Q258.5029 9.8125 258.5029 11.0469 ZM257.5967 10.7812 Q257.5967 10.0469 257.1904 9.6016 Q256.7842 9.1562 256.1279 9.1562 Q255.3623 9.1562 254.917 9.5859 Q254.4717 10.0156 254.3936 10.7812 L257.5967 10.7812 ZM264.5146 8.5312 L262.5459 11.1875 L264.624 14 L263.5615 14 L261.9678 11.8438 L260.374 14 L259.3115 14 L261.4365 11.1406 L259.499 8.5312 L260.5615 8.5312 L262.0146 10.4844 L263.4521 8.5312 L264.5146 8.5312 ZM270.0488 13.1719 L273.4863 13.1719 L273.4863 14 L268.8613 14 L268.8613 13.1719 Q269.4238 12.5938 270.3926 11.6094 Q271.3613 10.625 271.6113 10.3438 Q272.0801 9.8125 272.2676 9.4453 Q272.4551 9.0781 272.4551 8.7188 Q272.4551 8.1406 272.0488 7.7734 Q271.6426 7.4062 270.9863 7.4062 Q270.5176 7.4062 270.0098 7.5703 Q269.502 7.7344 268.9082 8.0625 L268.9082 7.0625 Q269.502 6.8281 270.0176 6.7031 Q270.5332 6.5781 270.9707 6.5781 Q272.0957 6.5781 272.7754 7.1406 Q273.4551 7.7031 273.4551 8.6562 Q273.4551 9.1094 273.2832 9.5078 Q273.1113 9.9062 272.6738 10.4531 Q272.5488 10.5938 271.8926 11.2734 Q271.2363 11.9531 270.0488 13.1719 ZM280.7617 6.4062 Q280.1211 7.5312 279.8008 8.6328 Q279.4805 9.7344 279.4805 10.8594 Q279.4805 11.9844 279.8008 13.0938 Q280.1211 14.2031 280.7617 15.3125 L279.9805 15.3125 Q279.2617 14.1719 278.8945 13.0625 Q278.5273 11.9531 278.5273 10.8594 Q278.5273 9.7656 278.8867 8.6641 Q279.2461 7.5625 279.9805 6.4062 L280.7617 6.4062 ZM283.5381 7.5156 L283.5381 10.2656 L284.7725 10.2656 Q285.46 10.2656 285.8428 9.9062 Q286.2256 9.5469 286.2256 8.8906 Q286.2256 8.2344 285.8428 7.875 Q285.46 7.5156 284.7725 7.5156 L283.5381 7.5156 ZM282.5537 6.7031 L284.7725 6.7031 Q286.0068 6.7031 286.6318 7.2578 Q287.2568 7.8125 287.2568 8.8906 Q287.2568 9.9688 286.6318 10.5156 Q286.0068 11.0625 284.7725 11.0625 L283.5381 11.0625 L283.5381 14 L282.5537 14 L282.5537 6.7031 ZM292.0371 10.5781 Q292.3496 10.6875 292.6543 11.0391 Q292.959 11.3906 293.2559 12 L294.2559 14 L293.1934 14 L292.2715 12.125 Q291.9121 11.3906 291.5684 11.1562 Q291.2246 10.9219 290.6465 10.9219 L289.5684 10.9219 L289.5684 14 L288.584 14 L288.584 6.7031 L290.8027 6.7031 Q292.0527 6.7031 292.6699 7.2266 Q293.2871 7.75 293.2871 8.8125 Q293.2871 9.5 292.9668 9.9531 Q292.6465 10.4062 292.0371 10.5781 ZM289.5684 7.5156 L289.5684 10.1094 L290.8027 10.1094 Q291.5215 10.1094 291.8887 9.7812 Q292.2559 9.4531 292.2559 8.8125 Q292.2559 8.1719 291.8887 7.8438 Q291.5215 7.5156 290.8027 7.5156 L289.5684 7.5156 ZM300.9854 7.2656 L300.9854 8.3125 Q300.4854 7.8438 299.9229 7.6172 Q299.3604 7.3906 298.7354 7.3906 Q297.4854 7.3906 296.8213 8.1562 Q296.1572 8.9219 296.1572 10.3594 Q296.1572 11.7969 296.8213 12.5625 Q297.4854 13.3281 298.7354 13.3281 Q299.3604 13.3281 299.9229 13.1016 Q300.4854 12.875 300.9854 12.4062 L300.9854 13.4375 Q300.4697 13.7969 299.8916 13.9688 Q299.3135 14.1406 298.6729 14.1406 Q297.0166 14.1406 296.0635 13.125 Q295.1104 12.1094 295.1104 10.3594 Q295.1104 8.6094 296.0635 7.5938 Q297.0166 6.5781 298.6729 6.5781 Q299.3291 6.5781 299.9072 6.75 Q300.4854 6.9219 300.9854 7.2656 ZM303.4521 13.1719 L306.8896 13.1719 L306.8896 14 L302.2646 14 L302.2646 13.1719 Q302.8271 12.5938 303.7959 11.6094 Q304.7646 10.625 305.0146 10.3438 Q305.4834 9.8125 305.6709 9.4453 Q305.8584 9.0781 305.8584 8.7188 Q305.8584 8.1406 305.4521 7.7734 Q305.0459 7.4062 304.3896 7.4062 Q303.9209 7.4062 303.4131 7.5703 Q302.9053 7.7344 302.3115 8.0625 L302.3115 7.0625 Q302.9053 6.8281 303.4209 6.7031 Q303.9365 6.5781 304.374 6.5781 Q305.499 6.5781 306.1787 7.1406 Q306.8584 7.7031 306.8584 8.6562 Q306.8584 9.1094 306.6865 9.5078 Q306.5146 9.9062 306.0771 10.4531 Q305.9521 10.5938 305.2959 11.2734 Q304.6396 11.9531 303.4521 13.1719 ZM308.6895 6.4062 L309.4707 6.4062 Q310.2051 7.5625 310.5723 8.6641 Q310.9395 9.7656 310.9395 10.8594 Q310.9395 11.9531 310.5723 13.0625 Q310.2051 14.1719 309.4707 15.3125 L308.6895 15.3125 Q309.3457 14.2031 309.666 13.0938 Q309.9863 11.9844 309.9863 10.8594 Q309.9863 9.7344 309.666 8.6328 Q309.3457 7.5312 308.6895 6.4062 Z"
         style="clip-path:url(#clipPath2); stroke:none;"
         clip-path="url(#clipPath2)"
         id="path205" />
      <path
         d="M4.25 21.9375 Q3.3906 21.9375 2.9141 22.5703 Q2.4375 23.2031 2.4375 24.3594 Q2.4375 25.5156 2.9141 26.1484 Q3.3906 26.7812 4.25 26.7812 Q5.1094 26.7812 5.5859 26.1484 Q6.0625 25.5156 6.0625 24.3594 Q6.0625 23.2031 5.5859 22.5703 Q5.1094 21.9375 4.25 21.9375 ZM4.25 20.5781 Q6 20.5781 7 21.5859 Q8 22.5938 8 24.3594 Q8 26.125 7 27.1328 Q6 28.1406 4.25 28.1406 Q2.5 28.1406 1.5 27.1328 Q0.5 26.125 0.5 24.3594 Q0.5 22.5938 1.5 21.5859 Q2.5 20.5781 4.25 20.5781 ZM13.4072 24.0156 Q13.1729 23.9062 12.9463 23.8594 Q12.7197 23.8125 12.4854 23.8125 Q11.8135 23.8125 11.4541 24.2422 Q11.0947 24.6719 11.0947 25.4844 L11.0947 28 L9.3447 28 L9.3447 22.5312 L11.0947 22.5312 L11.0947 23.4219 Q11.4229 22.8906 11.8604 22.6484 Q12.2979 22.4062 12.9072 22.4062 Q13.001 22.4062 13.1025 22.4062 Q13.2041 22.4062 13.3916 22.4375 L13.4072 24.0156 ZM17.9951 27.0781 Q17.6357 27.5469 17.1982 27.7734 Q16.7607 28 16.1982 28 Q15.1982 28 14.542 27.2109 Q13.8857 26.4219 13.8857 25.2031 Q13.8857 23.9688 14.542 23.1875 Q15.1982 22.4062 16.1982 22.4062 Q16.7607 22.4062 17.1982 22.6328 Q17.6357 22.8594 17.9951 23.3438 L17.9951 22.5312 L19.7451 22.5312 L19.7451 27.4531 Q19.7451 28.7656 18.917 29.4609 Q18.0889 30.1562 16.5107 30.1562 Q15.9951 30.1562 15.5186 30.0781 Q15.042 30 14.5576 29.8438 L14.5576 28.4844 Q15.0107 28.75 15.4482 28.875 Q15.8857 29 16.3389 29 Q17.1982 29 17.5967 28.625 Q17.9951 28.25 17.9951 27.4531 L17.9951 27.0781 ZM16.8389 23.6719 Q16.292 23.6719 15.9951 24.0703 Q15.6982 24.4688 15.6982 25.2031 Q15.6982 25.9531 15.9873 26.3438 Q16.2764 26.7344 16.8389 26.7344 Q17.3857 26.7344 17.6904 26.3281 Q17.9951 25.9219 17.9951 25.2031 Q17.9951 24.4688 17.6904 24.0703 Q17.3857 23.6719 16.8389 23.6719 ZM23.8877 25.5312 Q23.3408 25.5312 23.0596 25.7188 Q22.7783 25.9062 22.7783 26.2656 Q22.7783 26.6094 23.0049 26.7969 Q23.2314 26.9844 23.6221 26.9844 Q24.1221 26.9844 24.458 26.625 Q24.7939 26.2656 24.7939 25.7344 L24.7939 25.5312 L23.8877 25.5312 ZM26.5596 24.875 L26.5596 28 L24.7939 28 L24.7939 27.1875 Q24.4346 27.6875 23.9971 27.9141 Q23.5596 28.1406 22.9346 28.1406 Q22.0752 28.1406 21.5518 27.6484 Q21.0283 27.1562 21.0283 26.3594 Q21.0283 25.3906 21.6846 24.9453 Q22.3408 24.5 23.7627 24.5 L24.7939 24.5 L24.7939 24.3594 Q24.7939 23.9531 24.4658 23.7578 Q24.1377 23.5625 23.4502 23.5625 Q22.8877 23.5625 22.4033 23.6719 Q21.9189 23.7812 21.4971 24.0156 L21.4971 22.6719 Q22.0596 22.5469 22.6299 22.4766 Q23.2002 22.4062 23.7627 22.4062 Q25.2471 22.4062 25.9033 22.9844 Q26.5596 23.5625 26.5596 24.875 ZM33.6826 24.6719 L33.6826 28 L31.917 28 L31.917 27.4531 L31.917 25.4531 Q31.917 24.75 31.8857 24.4766 Q31.8545 24.2031 31.7764 24.0781 Q31.6826 23.9062 31.5029 23.8125 Q31.3232 23.7188 31.1045 23.7188 Q30.5576 23.7188 30.2451 24.1406 Q29.9326 24.5625 29.9326 25.3125 L29.9326 28 L28.1826 28 L28.1826 22.5312 L29.9326 22.5312 L29.9326 23.3281 Q30.3232 22.8594 30.7686 22.6328 Q31.2139 22.4062 31.7451 22.4062 Q32.6982 22.4062 33.1904 22.9844 Q33.6826 23.5625 33.6826 24.6719 ZM35.3018 22.5312 L37.0518 22.5312 L37.0518 28 L35.3018 28 L35.3018 22.5312 ZM35.3018 20.4062 L37.0518 20.4062 L37.0518 21.8281 L35.3018 21.8281 L35.3018 20.4062 ZM42.9951 22.7031 L42.9951 24.0312 Q42.4326 23.7969 41.9092 23.6797 Q41.3857 23.5625 40.9326 23.5625 Q40.4326 23.5625 40.1904 23.6875 Q39.9482 23.8125 39.9482 24.0625 Q39.9482 24.2812 40.1279 24.3906 Q40.3076 24.5 40.792 24.5625 L41.0889 24.5938 Q42.4326 24.7656 42.9014 25.1562 Q43.3701 25.5469 43.3701 26.3906 Q43.3701 27.2656 42.7217 27.7031 Q42.0732 28.1406 40.792 28.1406 Q40.2607 28.1406 39.6826 28.0547 Q39.1045 27.9688 38.4795 27.7969 L38.4795 26.4688 Q39.0107 26.7188 39.5576 26.8516 Q40.1045 26.9844 40.667 26.9844 Q41.1826 26.9844 41.4404 26.8438 Q41.6982 26.7031 41.6982 26.4219 Q41.6982 26.1875 41.5264 26.0703 Q41.3545 25.9531 40.8232 25.8906 L40.5107 25.8438 Q39.3389 25.7031 38.8701 25.3047 Q38.4014 24.9062 38.4014 24.1094 Q38.4014 23.2344 38.9951 22.8203 Q39.5889 22.4062 40.8232 22.4062 Q41.3076 22.4062 41.8389 22.4766 Q42.3701 22.5469 42.9951 22.7031 ZM49.7441 23.4375 Q50.0723 22.9375 50.5332 22.6719 Q50.9941 22.4062 51.541 22.4062 Q52.4785 22.4062 52.9707 22.9844 Q53.4629 23.5625 53.4629 24.6719 L53.4629 28 L51.7129 28 L51.7129 25.1406 Q51.7129 25.0781 51.7129 25.0156 Q51.7129 24.9531 51.7129 24.8281 Q51.7129 24.2344 51.5488 23.9766 Q51.3848 23.7188 50.9941 23.7188 Q50.4941 23.7188 50.2285 24.125 Q49.9629 24.5312 49.9473 25.3125 L49.9473 28 L48.1816 28 L48.1816 25.1406 Q48.1816 24.2344 48.0254 23.9766 Q47.8691 23.7188 47.4785 23.7188 Q46.9785 23.7188 46.7051 24.1328 Q46.4316 24.5469 46.4316 25.3125 L46.4316 28 L44.666 28 L44.666 22.5312 L46.4316 22.5312 L46.4316 23.3281 Q46.7441 22.875 47.166 22.6406 Q47.5879 22.4062 48.0879 22.4062 Q48.6504 22.4062 49.0879 22.6797 Q49.5254 22.9531 49.7441 23.4375 ZM55.3828 22.5312 L57.1328 22.5312 L57.1328 24.4219 L55.3828 24.4219 L55.3828 22.5312 ZM55.3828 26.1094 L57.1328 26.1094 L57.1328 28 L55.3828 28 L55.3828 26.1094 Z"
         style="clip-path:url(#clipPath2); stroke:none;"
         clip-path="url(#clipPath2)"
         id="path207" />
      <path
         d="M66.9844 20.7031 L67.9688 20.7031 L67.9688 23.7031 L71.5469 23.7031 L71.5469 20.7031 L72.5312 20.7031 L72.5312 28 L71.5469 28 L71.5469 24.5312 L67.9688 24.5312 L67.9688 28 L66.9844 28 L66.9844 20.7031 ZM76.582 23.1562 Q75.8633 23.1562 75.4414 23.7188 Q75.0195 24.2812 75.0195 25.2656 Q75.0195 26.25 75.4336 26.8125 Q75.8477 27.375 76.582 27.375 Q77.3008 27.375 77.7227 26.8125 Q78.1445 26.25 78.1445 25.2656 Q78.1445 24.2969 77.7227 23.7266 Q77.3008 23.1562 76.582 23.1562 ZM76.582 22.4062 Q77.7539 22.4062 78.4258 23.1641 Q79.0977 23.9219 79.0977 25.2656 Q79.0977 26.6094 78.4258 27.375 Q77.7539 28.1406 76.582 28.1406 Q75.4102 28.1406 74.7383 27.375 Q74.0664 26.6094 74.0664 25.2656 Q74.0664 23.9219 74.7383 23.1641 Q75.4102 22.4062 76.582 22.4062 ZM84.8408 23.5781 Q85.1689 22.9688 85.6377 22.6875 Q86.1064 22.4062 86.7471 22.4062 Q87.6064 22.4062 88.0674 23 Q88.5283 23.5938 88.5283 24.7031 L88.5283 28 L87.6221 28 L87.6221 24.7344 Q87.6221 23.9375 87.3486 23.5625 Q87.0752 23.1875 86.4971 23.1875 Q85.7939 23.1875 85.3955 23.6484 Q84.9971 24.1094 84.9971 24.9062 L84.9971 28 L84.0908 28 L84.0908 24.7344 Q84.0908 23.9375 83.8096 23.5625 Q83.5283 23.1875 82.9502 23.1875 Q82.2627 23.1875 81.8564 23.6484 Q81.4502 24.1094 81.4502 24.9062 L81.4502 28 L80.5439 28 L80.5439 22.5312 L81.4502 22.5312 L81.4502 23.375 Q81.7627 22.875 82.1924 22.6406 Q82.6221 22.4062 83.2002 22.4062 Q83.8096 22.4062 84.2236 22.7031 Q84.6377 23 84.8408 23.5781 ZM92.4414 23.1562 Q91.7227 23.1562 91.3008 23.7188 Q90.8789 24.2812 90.8789 25.2656 Q90.8789 26.25 91.293 26.8125 Q91.707 27.375 92.4414 27.375 Q93.1602 27.375 93.582 26.8125 Q94.0039 26.25 94.0039 25.2656 Q94.0039 24.2969 93.582 23.7266 Q93.1602 23.1562 92.4414 23.1562 ZM92.4414 22.4062 Q93.6133 22.4062 94.2852 23.1641 Q94.957 23.9219 94.957 25.2656 Q94.957 26.6094 94.2852 27.375 Q93.6133 28.1406 92.4414 28.1406 Q91.2695 28.1406 90.5977 27.375 Q89.9258 26.6094 89.9258 25.2656 Q89.9258 23.9219 90.5977 23.1641 Q91.2695 22.4062 92.4414 22.4062 ZM103.0977 22.6875 L103.0977 23.5469 Q102.7227 23.3438 102.3164 23.25 Q101.9102 23.1562 101.457 23.1562 Q100.8008 23.1562 100.4648 23.3594 Q100.1289 23.5625 100.1289 23.9688 Q100.1289 24.2812 100.3633 24.4609 Q100.5977 24.6406 101.332 24.7969 L101.6289 24.875 Q102.5977 25.0781 102.9961 25.4531 Q103.3945 25.8281 103.3945 26.4844 Q103.3945 27.25 102.793 27.6953 Q102.1914 28.1406 101.1445 28.1406 Q100.6914 28.1406 100.2148 28.0547 Q99.7383 27.9688 99.2227 27.7969 L99.2227 26.875 Q99.7227 27.125 100.1992 27.2578 Q100.6758 27.3906 101.1602 27.3906 Q101.7852 27.3906 102.1289 27.1719 Q102.4727 26.9531 102.4727 26.5625 Q102.4727 26.1875 102.2305 25.9922 Q101.9883 25.7969 101.1445 25.625 L100.832 25.5469 Q100.0039 25.375 99.6289 25.0078 Q99.2539 24.6406 99.2539 24.0156 Q99.2539 23.2344 99.8008 22.8203 Q100.3477 22.4062 101.3633 22.4062 Q101.8477 22.4062 102.293 22.4766 Q102.7383 22.5469 103.0977 22.6875 ZM107.3076 25.25 Q106.2295 25.25 105.8076 25.5 Q105.3857 25.75 105.3857 26.3438 Q105.3857 26.8281 105.6982 27.1094 Q106.0107 27.3906 106.5576 27.3906 Q107.3076 27.3906 107.7607 26.8594 Q108.2139 26.3281 108.2139 25.4531 L108.2139 25.25 L107.3076 25.25 ZM109.1045 24.875 L109.1045 28 L108.2139 28 L108.2139 27.1719 Q107.9014 27.6719 107.4404 27.9062 Q106.9795 28.1406 106.3232 28.1406 Q105.4795 28.1406 104.9795 27.6719 Q104.4795 27.2031 104.4795 26.4062 Q104.4795 25.4844 105.1045 25.0156 Q105.7295 24.5469 106.9482 24.5469 L108.2139 24.5469 L108.2139 24.4531 Q108.2139 23.8438 107.7998 23.5 Q107.3857 23.1562 106.6514 23.1562 Q106.1826 23.1562 105.7373 23.2734 Q105.292 23.3906 104.8857 23.6094 L104.8857 22.7812 Q105.3857 22.5938 105.8467 22.5 Q106.3076 22.4062 106.7451 22.4062 Q107.9326 22.4062 108.5186 23.0156 Q109.1045 23.625 109.1045 24.875 ZM111.8262 27.1719 L111.8262 30.0781 L110.9199 30.0781 L110.9199 22.5312 L111.8262 22.5312 L111.8262 23.3594 Q112.1074 22.875 112.5371 22.6406 Q112.9668 22.4062 113.5762 22.4062 Q114.5762 22.4062 115.1934 23.1953 Q115.8105 23.9844 115.8105 25.2656 Q115.8105 26.5625 115.1934 27.3516 Q114.5762 28.1406 113.5762 28.1406 Q112.9668 28.1406 112.5371 27.9062 Q112.1074 27.6719 111.8262 27.1719 ZM114.8887 25.2656 Q114.8887 24.2812 114.4746 23.7188 Q114.0605 23.1562 113.3574 23.1562 Q112.6387 23.1562 112.2324 23.7188 Q111.8262 24.2812 111.8262 25.2656 Q111.8262 26.2656 112.2324 26.8281 Q112.6387 27.3906 113.3574 27.3906 Q114.0605 27.3906 114.4746 26.8281 Q114.8887 26.2656 114.8887 25.2656 ZM117.2988 22.5312 L118.2051 22.5312 L118.2051 28 L117.2988 28 L117.2988 22.5312 ZM117.2988 20.4062 L118.2051 20.4062 L118.2051 21.5469 L117.2988 21.5469 L117.2988 20.4062 ZM124.7646 25.0469 L124.7646 25.4844 L120.624 25.4844 Q120.6865 26.4062 121.1865 26.8906 Q121.6865 27.375 122.5771 27.375 Q123.0928 27.375 123.585 27.25 Q124.0771 27.125 124.5459 26.875 L124.5459 27.7188 Q124.0615 27.9219 123.5537 28.0312 Q123.0459 28.1406 122.5303 28.1406 Q121.2178 28.1406 120.4521 27.3828 Q119.6865 26.625 119.6865 25.3125 Q119.6865 23.9688 120.4131 23.1875 Q121.1396 22.4062 122.374 22.4062 Q123.4834 22.4062 124.124 23.1094 Q124.7646 23.8125 124.7646 25.0469 ZM123.8584 24.7812 Q123.8584 24.0469 123.4521 23.6016 Q123.0459 23.1562 122.3896 23.1562 Q121.624 23.1562 121.1787 23.5859 Q120.7334 24.0156 120.6553 24.7812 L123.8584 24.7812 ZM130.7764 24.7031 L130.7764 28 L129.8857 28 L129.8857 24.7344 Q129.8857 23.9531 129.5811 23.5703 Q129.2764 23.1875 128.667 23.1875 Q127.9482 23.1875 127.5264 23.6484 Q127.1045 24.1094 127.1045 24.9062 L127.1045 28 L126.1982 28 L126.1982 22.5312 L127.1045 22.5312 L127.1045 23.375 Q127.4326 22.8906 127.8701 22.6484 Q128.3076 22.4062 128.8701 22.4062 Q129.8076 22.4062 130.292 22.9844 Q130.7764 23.5625 130.7764 24.7031 ZM136.0518 22.6875 L136.0518 23.5469 Q135.6768 23.3438 135.2705 23.25 Q134.8643 23.1562 134.4111 23.1562 Q133.7549 23.1562 133.4189 23.3594 Q133.083 23.5625 133.083 23.9688 Q133.083 24.2812 133.3174 24.4609 Q133.5518 24.6406 134.2861 24.7969 L134.583 24.875 Q135.5518 25.0781 135.9502 25.4531 Q136.3486 25.8281 136.3486 26.4844 Q136.3486 27.25 135.7471 27.6953 Q135.1455 28.1406 134.0986 28.1406 Q133.6455 28.1406 133.1689 28.0547 Q132.6924 27.9688 132.1768 27.7969 L132.1768 26.875 Q132.6768 27.125 133.1533 27.2578 Q133.6299 27.3906 134.1143 27.3906 Q134.7393 27.3906 135.083 27.1719 Q135.4268 26.9531 135.4268 26.5625 Q135.4268 26.1875 135.1846 25.9922 Q134.9424 25.7969 134.0986 25.625 L133.7861 25.5469 Q132.958 25.375 132.583 25.0078 Q132.208 24.6406 132.208 24.0156 Q132.208 23.2344 132.7549 22.8203 Q133.3018 22.4062 134.3174 22.4062 Q134.8018 22.4062 135.2471 22.4766 Q135.6924 22.5469 136.0518 22.6875 Z"
         style="clip-path:url(#clipPath2); stroke:none;"
         clip-path="url(#clipPath2)"
         id="path209" />
    </g>
    <g
       style="fill:navy; text-rendering:geometricPrecision; font-size:8; stroke:navy;"
       id="g215">
      <text
         x="316"
         xml:space="preserve"
         y="16"
         style="clip-path:url(#clipPath4); stroke:none;"
         clip-path="url(#clipPath4)"
         id="text213">2</text>
    </g>
    <g
       style="fill:rgb(180,180,100); text-rendering:geometricPrecision; fill-opacity:0.098; stroke-opacity:0.098; stroke:rgb(180,180,100);"
       id="g219">
      <path
         d="M209 149 L349 149 L367 167 L367 225 L349 243 L209 243 L191 225 L191 167 Z"
         style="clip-path:url(#clipPath5); stroke:none;"
         clip-path="url(#clipPath5)"
         id="path217" />
    </g>
    <g
       style="fill:gray; text-rendering:geometricPrecision; stroke:gray;"
       id="g223">
      <path
         d="M209 149 L349 149 L367 167 L367 225 L349 243 L209 243 L191 225 L191 167 Z"
         style="fill:none; clip-path:url(#clipPath5);"
         clip-path="url(#clipPath5)"
         id="path221" />
    </g>
    <g
       style="fill:rgb(51,102,255); text-rendering:geometricPrecision; stroke:rgb(51,102,255);"
       id="g227">
      <path
         d="M48 188 L254.5 60"
         style="fill:none; clip-path:url(#clipPath6);"
         clip-path="url(#clipPath6)"
         id="path225" />
    </g>
    <g
       style="fill:rgb(51,102,255); text-rendering:geometricPrecision; stroke:rgb(51,102,255);"
       id="g231">
      <path
         d="M535.5 93 L535.5 181"
         style="fill:none; clip-path:url(#clipPath7);"
         clip-path="url(#clipPath7)"
         id="path229" />
    </g>
    <g
       style="fill:rgb(51,102,255); text-rendering:geometricPrecision; stroke:rgb(51,102,255);"
       id="g235">
      <path
         d="M593 121 L535.5 181"
         style="fill:none; clip-path:url(#clipPath8);"
         clip-path="url(#clipPath8)"
         id="path233" />
    </g>
    <g
       style="fill:rgb(51,102,255); text-rendering:geometricPrecision; stroke:rgb(51,102,255);"
       id="g239">
      <path
         d="M318.5 136 L320 161"
         style="fill:none; clip-path:url(#clipPath9);"
         clip-path="url(#clipPath9)"
         id="path237" />
    </g>
    <g
       style="fill:rgb(51,102,255); text-rendering:geometricPrecision; stroke:rgb(51,102,255);"
       id="g243">
      <path
         d="M696 55 L748 55"
         style="fill:none; clip-path:url(#clipPath10);"
         clip-path="url(#clipPath10)"
         id="path241" />
    </g>
    <g
       style="fill:rgb(51,102,255); text-rendering:geometricPrecision; stroke:rgb(51,102,255);"
       id="g247">
      <path
         d="M76 198 L203 173"
         style="fill:none; clip-path:url(#clipPath11);"
         clip-path="url(#clipPath11)"
         id="path245" />
    </g>
    <g
       style="fill:rgb(51,102,255); text-rendering:geometricPrecision; stroke:rgb(51,102,255);"
       id="g251">
      <path
         d="M295 70 L332 161"
         style="fill:none; clip-path:url(#clipPath12);"
         clip-path="url(#clipPath12)"
         id="path249" />
    </g>
    <g
       style="fill:rgb(51,102,255); text-rendering:geometricPrecision; stroke:rgb(51,102,255);"
       id="g255">
      <path
         d="M308.5 60 L521.875 181"
         style="fill:none; clip-path:url(#clipPath13);"
         clip-path="url(#clipPath13)"
         id="path253" />
    </g>
    <g
       style="stroke-dasharray:4,4; text-rendering:geometricPrecision;"
       id="g259">
      <path
         d="M48 208 L257 278"
         style="fill:none; clip-path:url(#clipPath14);"
         clip-path="url(#clipPath14)"
         id="path257" />
    </g>
    <g
       style="stroke-dasharray:4,4; text-rendering:geometricPrecision;"
       id="g263">
      <path
         d="M76 198 L425 54"
         style="fill:none; clip-path:url(#clipPath15);"
         clip-path="url(#clipPath15)"
         id="path261" />
    </g>
    <g
       style="fill:rgb(51,102,255); text-rendering:geometricPrecision; stroke:rgb(51,102,255);"
       id="g267">
      <path
         d="M309 278 L508.25 191"
         style="fill:none; clip-path:url(#clipPath16);"
         clip-path="url(#clipPath16)"
         id="path265" />
    </g>
    <g
       style="fill:rgb(51,102,255); text-rendering:geometricPrecision; stroke:rgb(51,102,255);"
       id="g271">
      <path
         d="M356 173 L508.25 191"
         style="fill:none; clip-path:url(#clipPath17);"
         clip-path="url(#clipPath17)"
         id="path269" />
    </g>
    <g
       style="text-rendering:geometricPrecision;"
       id="g277">
      <path
         d="M681 17 L959 17 L959 122 L681 122 L681 17 Z"
         style="fill:none; clip-path:url(#clipPath18);"
         clip-path="url(#clipPath18)"
         id="path273" />
      <text
         x="686"
         y="32"
         style="font-size:10; clip-path:url(#clipPath18); stroke:none; font-weight:bold;"
         xml:space="preserve"
         clip-path="url(#clipPath18)"
         id="text275">Legend</text>
    </g>
    <g
       style="font-weight:bold; font-size:10; text-rendering:geometricPrecision;"
       id="g281">
      <text
         x="262"
         xml:space="preserve"
         y="225"
         style="clip-path:url(#clipPath19); stroke:none;"
         clip-path="url(#clipPath19)"
         id="text279">PRC2</text>
    </g>
    <g
       style="font-size:10; text-rendering:geometricPrecision;"
       id="g285">
      <text
         x="745"
         xml:space="preserve"
         y="57"
         style="clip-path:url(#clipPath20); stroke:none;"
         clip-path="url(#clipPath20)"
         id="text283">Interaction identified by multiple replicates</text>
    </g>
    <g
       style="fill:white; text-rendering:geometricPrecision; stroke:white;"
       id="g293">
      <path
         d="M20 188 L76 188 L76 208 L20 208 L20 188 Z"
         style="clip-path:url(#clipPath21); stroke:none;"
         clip-path="url(#clipPath21)"
         id="path287" />
      <path
         d="M20 188 L76 188 L76 208 L20 208 L20 188 Z"
         style="fill:none; clip-path:url(#clipPath21); stroke:black;"
         clip-path="url(#clipPath21)"
         id="path289" />
      <text
         x="35"
         y="201"
         style="font-size:10; clip-path:url(#clipPath21); fill:black; stroke:none;"
         xml:space="preserve"
         clip-path="url(#clipPath21)"
         id="text291">MTF2</text>
    </g>
    <g
       style="fill:white; text-rendering:geometricPrecision; stroke:white;"
       id="g301">
      <path
         d="M257 268 L309 268 L309 288 L257 288 L257 268 Z"
         style="clip-path:url(#clipPath22); stroke:none;"
         clip-path="url(#clipPath22)"
         id="path295" />
      <path
         d="M257 268 L309 268 L309 288 L257 288 L257 268 Z"
         style="fill:none; clip-path:url(#clipPath22); stroke:black;"
         clip-path="url(#clipPath22)"
         id="path297" />
      <text
         x="275"
         y="281"
         style="font-size:10; clip-path:url(#clipPath22); fill:black; stroke:none;"
         xml:space="preserve"
         clip-path="url(#clipPath22)"
         id="text299">ELL</text>
    </g>
    <g
       style="fill:white; text-rendering:geometricPrecision; stroke:white;"
       id="g309">
      <path
         d="M508.25 181 L562.75 181 L562.75 201 L508.25 201 L508.25 181 Z"
         style="clip-path:url(#clipPath23); stroke:none;"
         clip-path="url(#clipPath23)"
         id="path303" />
      <path
         d="M508.25 181 L562.75 181 L562.75 201 L508.25 201 L508.25 181 Z"
         style="fill:none; clip-path:url(#clipPath23); stroke:black;"
         clip-path="url(#clipPath23)"
         id="path305" />
      <text
         x="528"
         y="194"
         style="font-size:10; clip-path:url(#clipPath23); fill:black; stroke:none;"
         xml:space="preserve"
         clip-path="url(#clipPath23)"
         id="text307">JMJ</text>
    </g>
    <g
       style="fill:white; text-rendering:geometricPrecision; stroke:white;"
       id="g317">
      <path
         d="M425 44 L484 44 L484 64 L425 64 L425 44 Z"
         style="clip-path:url(#clipPath24); stroke:none;"
         clip-path="url(#clipPath24)"
         id="path311" />
      <path
         d="M425 44 L484 44 L484 64 L425 64 L425 44 Z"
         style="fill:none; clip-path:url(#clipPath24); stroke:black;"
         clip-path="url(#clipPath24)"
         id="path313" />
      <text
         x="436"
         y="57"
         style="font-size:10; clip-path:url(#clipPath24); fill:black; stroke:none;"
         xml:space="preserve"
         clip-path="url(#clipPath24)"
         id="text315">TRIM35</text>
    </g>
    <g
       style="fill:white; text-rendering:geometricPrecision; stroke:white;"
       id="g325">
      <path
         d="M254.5 50 L308.5 50 L308.5 70 L254.5 70 L254.5 50 Z"
         style="clip-path:url(#clipPath25); stroke:none;"
         clip-path="url(#clipPath25)"
         id="path319" />
      <path
         d="M254.5 50 L308.5 50 L308.5 70 L254.5 70 L254.5 50 Z"
         style="fill:none; clip-path:url(#clipPath25); stroke:black;"
         clip-path="url(#clipPath25)"
         id="path321" />
      <text
         x="266"
         y="63"
         style="font-size:10; clip-path:url(#clipPath25); fill:black; stroke:none;"
         xml:space="preserve"
         clip-path="url(#clipPath25)"
         id="text323">STK38</text>
    </g>
    <g
       style="fill:white; text-rendering:geometricPrecision; stroke:white;"
       id="g333">
      <path
         d="M506 265 L565 265 L565 285 L506 285 L506 265 Z"
         style="clip-path:url(#clipPath26); stroke:none;"
         clip-path="url(#clipPath26)"
         id="path327" />
      <path
         d="M506 265 L565 265 L565 285 L506 285 L506 265 Z"
         style="fill:none; clip-path:url(#clipPath26); stroke:black;"
         clip-path="url(#clipPath26)"
         id="path329" />
      <text
         x="516"
         y="278"
         style="font-size:10; clip-path:url(#clipPath26); fill:black; stroke:none;"
         xml:space="preserve"
         clip-path="url(#clipPath26)"
         id="text331">THRAP3</text>
    </g>
    <g
       style="fill:white; text-rendering:geometricPrecision; stroke:white;"
       id="g341">
      <path
         d="M591 224 L647 224 L647 244 L591 244 L591 224 Z"
         style="clip-path:url(#clipPath27); stroke:none;"
         clip-path="url(#clipPath27)"
         id="path335" />
      <path
         d="M591 224 L647 224 L647 244 L591 244 L591 224 Z"
         style="fill:none; clip-path:url(#clipPath27); stroke:black;"
         clip-path="url(#clipPath27)"
         id="path337" />
      <text
         x="600"
         y="237"
         style="font-size:10; clip-path:url(#clipPath27); fill:black; stroke:none;"
         xml:space="preserve"
         clip-path="url(#clipPath27)"
         id="text339">BCLAF1</text>
    </g>
    <g
       style="fill:white; text-rendering:geometricPrecision; stroke:white;"
       id="g349">
      <path
         d="M581 145 L633 145 L633 165 L581 165 L581 145 Z"
         style="clip-path:url(#clipPath28); stroke:none;"
         clip-path="url(#clipPath28)"
         id="path343" />
      <path
         d="M581 145 L633 145 L633 165 L581 165 L581 145 Z"
         style="fill:none; clip-path:url(#clipPath28); stroke:black;"
         clip-path="url(#clipPath28)"
         id="path345" />
      <text
         x="592"
         y="158"
         style="font-size:10; clip-path:url(#clipPath28); fill:black; stroke:none;"
         xml:space="preserve"
         clip-path="url(#clipPath28)"
         id="text347">STK38</text>
    </g>
    <g
       style="fill:white; text-rendering:geometricPrecision; stroke:white;"
       id="g357">
      <path
         d="M566 101 L620 101 L620 121 L566 121 L566 101 Z"
         style="clip-path:url(#clipPath29); stroke:none;"
         clip-path="url(#clipPath29)"
         id="path351" />
      <path
         d="M566 101 L620 101 L620 121 L566 121 L566 101 Z"
         style="fill:none; clip-path:url(#clipPath29); stroke:black;"
         clip-path="url(#clipPath29)"
         id="path353" />
      <text
         x="581"
         y="114"
         style="font-size:10; clip-path:url(#clipPath29); fill:black; stroke:none;"
         xml:space="preserve"
         clip-path="url(#clipPath29)"
         id="text355">SETX</text>
    </g>
    <g
       style="fill:white; text-rendering:geometricPrecision; stroke:white;"
       id="g365">
      <path
         d="M507 73 L564 73 L564 93 L507 93 L507 73 Z"
         style="clip-path:url(#clipPath30); stroke:none;"
         clip-path="url(#clipPath30)"
         id="path359" />
      <path
         d="M507 73 L564 73 L564 93 L507 93 L507 73 Z"
         style="fill:none; clip-path:url(#clipPath30); stroke:black;"
         clip-path="url(#clipPath30)"
         id="path361" />
      <text
         x="517"
         y="86"
         style="font-size:10; clip-path:url(#clipPath30); fill:black; stroke:none;"
         xml:space="preserve"
         clip-path="url(#clipPath30)"
         id="text363">MORC3</text>
    </g>
    <g
       style="fill:rgb(51,102,255); text-rendering:geometricPrecision; stroke:rgb(51,102,255);"
       id="g369">
      <path
         d="M594 165 L549.125 181"
         style="fill:none; clip-path:url(#clipPath31);"
         clip-path="url(#clipPath31)"
         id="path367" />
    </g>
    <g
       style="fill:rgb(51,102,255); text-rendering:geometricPrecision; stroke:rgb(51,102,255);"
       id="g373">
      <path
         d="M605 224 L549.125 201"
         style="fill:none; clip-path:url(#clipPath32);"
         clip-path="url(#clipPath32)"
         id="path371" />
    </g>
    <g
       style="fill:rgb(51,102,255); text-rendering:geometricPrecision; stroke:rgb(51,102,255);"
       id="g377">
      <path
         d="M535.5 265 L535.5 201"
         style="fill:none; clip-path:url(#clipPath33);"
         clip-path="url(#clipPath33)"
         id="path375" />
    </g>
    <g
       style="fill:rgb(153,153,153); text-rendering:geometricPrecision; stroke:rgb(153,153,153);"
       id="g381">
      <path
         d="M605 244 L565 275"
         style="fill:none; clip-path:url(#clipPath34);"
         clip-path="url(#clipPath34)"
         id="path379" />
    </g>
    <g
       style="fill:navy; text-rendering:geometricPrecision; font-size:8; stroke:navy;"
       id="g385">
      <text
         x="569"
         xml:space="preserve"
         y="262"
         style="clip-path:url(#clipPath36); stroke:none;"
         clip-path="url(#clipPath36)"
         id="text383">1</text>
    </g>
    <g
       style="fill:rgb(51,102,255); text-rendering:geometricPrecision; stroke:rgb(51,102,255);"
       id="g389">
      <path
         d="M454.5 64 L521.875 181"
         style="fill:none; clip-path:url(#clipPath37);"
         clip-path="url(#clipPath37)"
         id="path387" />
    </g>
    <g
       style="fill:rgb(51,102,255); text-rendering:geometricPrecision; stroke:rgb(51,102,255);"
       id="g393">
      <path
         d="M231 161 L268 70"
         style="fill:none; clip-path:url(#clipPath38);"
         clip-path="url(#clipPath38)"
         id="path391" />
    </g>
    <g
       style="fill:rgb(51,102,255); text-rendering:geometricPrecision; stroke:rgb(51,102,255);"
       id="g397">
      <path
         d="M283.5 161 L281.5 70"
         style="fill:none; clip-path:url(#clipPath39);"
         clip-path="url(#clipPath39)"
         id="path395" />
    </g>
    <g
       style="fill:rgb(51,102,255); text-rendering:geometricPrecision; stroke:rgb(51,102,255);"
       id="g401">
      <path
         d="M76 198 L271.25 186"
         style="fill:none; clip-path:url(#clipPath40);"
         clip-path="url(#clipPath40)"
         id="path399" />
    </g>
    <g
       style="fill:rgb(51,102,255); text-rendering:geometricPrecision; stroke:rgb(51,102,255);"
       id="g405">
      <path
         d="M76 198 L203 197"
         style="fill:none; clip-path:url(#clipPath41);"
         clip-path="url(#clipPath41)"
         id="path403" />
    </g>
    <g
       style="fill:rgb(51,102,255); text-rendering:geometricPrecision; stroke:rgb(51,102,255);"
       id="g409">
      <path
         d="M76 198 L271.25 209"
         style="fill:none; clip-path:url(#clipPath42);"
         clip-path="url(#clipPath42)"
         id="path407" />
    </g>
    <g
       style="fill:rgb(51,102,255); text-rendering:geometricPrecision; stroke:rgb(51,102,255);"
       id="g413">
      <path
         d="M356 197 L508.25 191"
         style="fill:none; clip-path:url(#clipPath43);"
         clip-path="url(#clipPath43)"
         id="path411" />
    </g>
    <g
       style="fill:rgb(51,102,255); text-rendering:geometricPrecision; stroke:rgb(51,102,255);"
       id="g417">
      <path
         d="M308.25 136 L295.75 161"
         style="fill:none; clip-path:url(#clipPath44);"
         clip-path="url(#clipPath44)"
         id="path415" />
    </g>
    <g
       style="stroke-dasharray:4,4; text-rendering:geometricPrecision;"
       id="g421">
      <path
         d="M283.5 161 L425 54"
         style="fill:none; clip-path:url(#clipPath45);"
         clip-path="url(#clipPath45)"
         id="path419" />
    </g>
    <g
       style="stroke-dasharray:4,4; text-rendering:geometricPrecision;"
       id="g425">
      <path
         d="M332 161 L454.5 64"
         style="fill:none; clip-path:url(#clipPath46);"
         clip-path="url(#clipPath46)"
         id="path423" />
    </g>
    <g
       style="stroke-dasharray:4,4; text-rendering:geometricPrecision;"
       id="g429">
      <path
         d="M344 161 L507 83"
         style="fill:none; clip-path:url(#clipPath47);"
         clip-path="url(#clipPath47)"
         id="path427" />
    </g>
    <g
       style="stroke-dasharray:4,4; text-rendering:geometricPrecision;"
       id="g433">
      <path
         d="M356 173 L566 111"
         style="fill:none; clip-path:url(#clipPath48);"
         clip-path="url(#clipPath48)"
         id="path431" />
    </g>
    <g
       style="stroke-dasharray:4,4; text-rendering:geometricPrecision;"
       id="g437">
      <path
         d="M283.5 161 L566 111"
         style="fill:none; clip-path:url(#clipPath49);"
         clip-path="url(#clipPath49)"
         id="path435" />
    </g>
    <g
       style="stroke-dasharray:4,4; text-rendering:geometricPrecision;"
       id="g441">
      <path
         d="M283.5 161 L507 83"
         style="fill:none; clip-path:url(#clipPath50);"
         clip-path="url(#clipPath50)"
         id="path439" />
    </g>
    <g
       style="stroke-dasharray:4,4; text-rendering:geometricPrecision;"
       id="g445">
      <path
         d="M696 78 L748 78"
         style="fill:none; clip-path:url(#clipPath51);"
         clip-path="url(#clipPath51)"
         id="path443" />
    </g>
    <g
       style="font-size:10; text-rendering:geometricPrecision;"
       id="g449">
      <text
         x="746"
         xml:space="preserve"
         y="81"
         style="clip-path:url(#clipPath52); stroke:none;"
         clip-path="url(#clipPath52)"
         id="text447">Interaction identified by few replicates</text>
    </g>
    <g
       style="fill:rgb(153,153,153); text-rendering:geometricPrecision; stroke:rgb(153,153,153);"
       id="g453">
      <path
         d="M697 101 L749 101"
         style="fill:none; clip-path:url(#clipPath53);"
         clip-path="url(#clipPath53)"
         id="path451" />
    </g>
    <g
       style="font-size:10; text-rendering:geometricPrecision;"
       id="g457">
      <text
         x="749"
         xml:space="preserve"
         y="104"
         style="clip-path:url(#clipPath54); stroke:none;"
         clip-path="url(#clipPath54)"
         id="text455">Previously identified interaction</text>
    </g>
    <g
       style="fill:white; text-rendering:geometricPrecision; stroke:white;"
       id="g465">
      <path
         d="M298 116 L339 116 L339 136 L298 136 L298 116 Z"
         style="clip-path:url(#clipPath55); stroke:none;"
         clip-path="url(#clipPath55)"
         id="path459" />
      <path
         d="M298 116 L339 116 L339 136 L298 136 L298 116 Z"
         style="fill:none; clip-path:url(#clipPath55); stroke:black;"
         clip-path="url(#clipPath55)"
         id="path461" />
      <text
         x="302"
         y="129"
         style="font-size:10; clip-path:url(#clipPath55); fill:black; stroke:none;"
         xml:space="preserve"
         clip-path="url(#clipPath55)"
         id="text463">RBBP7</text>
    </g>
    <g
       style="fill:rgb(51,102,255); text-rendering:geometricPrecision; stroke:rgb(51,102,255);"
       id="g469">
      <path
         d="M295.75 209 L508.25 191"
         style="fill:none; clip-path:url(#clipPath56);"
         clip-path="url(#clipPath56)"
         id="path467" />
    </g>
    <g
       style="fill:rgb(51,102,255); text-rendering:geometricPrecision; stroke:rgb(51,102,255);"
       id="g473">
      <path
         d="M231 185 L508.25 191"
         style="fill:none; clip-path:url(#clipPath57);"
         clip-path="url(#clipPath57)"
         id="path471" />
    </g>
    <g
       style="fill:rgb(51,102,255); text-rendering:geometricPrecision; stroke:rgb(51,102,255);"
       id="g477">
      <path
         d="M283.5 186 L508.25 191"
         style="fill:none; clip-path:url(#clipPath58);"
         clip-path="url(#clipPath58)"
         id="path475" />
    </g>
    <g
       style="fill:rgb(51,102,255); text-rendering:geometricPrecision; stroke:rgb(51,102,255);"
       id="g481">
      <path
         d="M231 161 L508.25 191"
         style="fill:none; clip-path:url(#clipPath59);"
         clip-path="url(#clipPath59)"
         id="path479" />
    </g>
    <g
       style="fill:white; text-rendering:geometricPrecision; stroke:white;"
       id="g489">
      <path
         d="M308 185 L356 185 L356 209 L308 209 L308 185 Z"
         style="clip-path:url(#clipPath60); stroke:none;"
         clip-path="url(#clipPath60)"
         id="path483" />
      <path
         d="M308 185 L356 185 L356 209 L308 209 L308 185 Z"
         style="fill:none; clip-path:url(#clipPath60); stroke:black;"
         clip-path="url(#clipPath60)"
         id="path485" />
      <text
         x="316"
         y="200"
         style="font-size:10; clip-path:url(#clipPath60); fill:black; stroke:none;"
         xml:space="preserve"
         clip-path="url(#clipPath60)"
         id="text487">AEBP2</text>
    </g>
    <g
       style="fill:white; text-rendering:geometricPrecision; stroke:white;"
       id="g497">
      <path
         d="M308 161 L356 161 L356 185 L308 185 L308 161 Z"
         style="clip-path:url(#clipPath61); stroke:none;"
         clip-path="url(#clipPath61)"
         id="path491" />
      <path
         d="M308 161 L356 161 L356 185 L308 185 L308 161 Z"
         style="fill:none; clip-path:url(#clipPath61); stroke:black;"
         clip-path="url(#clipPath61)"
         id="path493" />
      <text
         x="319"
         y="176"
         style="font-size:10; clip-path:url(#clipPath61); fill:black; stroke:none;"
         xml:space="preserve"
         clip-path="url(#clipPath61)"
         id="text495">EZH2</text>
    </g>
    <g
       style="fill:white; text-rendering:geometricPrecision; stroke:white;"
       id="g505">
      <path
         d="M259 161 L308 161 L308 186 L259 186 L259 161 Z"
         style="clip-path:url(#clipPath62); stroke:none;"
         clip-path="url(#clipPath62)"
         id="path499" />
      <path
         d="M259 161 L308 161 L308 186 L259 186 L259 161 Z"
         style="fill:none; clip-path:url(#clipPath62); stroke:black;"
         clip-path="url(#clipPath62)"
         id="path501" />
      <text
         x="273"
         y="177"
         style="font-size:10; clip-path:url(#clipPath62); fill:black; stroke:none;"
         xml:space="preserve"
         clip-path="url(#clipPath62)"
         id="text503">EED</text>
    </g>
    <g
       style="fill:white; text-rendering:geometricPrecision; stroke:white;"
       id="g513">
      <path
         d="M259 185 L308 185 L308 209 L259 209 L259 185 Z"
         style="clip-path:url(#clipPath63); stroke:none;"
         clip-path="url(#clipPath63)"
         id="path507" />
      <path
         d="M259 185 L308 185 L308 209 L259 209 L259 185 Z"
         style="fill:none; clip-path:url(#clipPath63); stroke:black;"
         clip-path="url(#clipPath63)"
         id="path509" />
      <text
         x="267"
         y="200"
         style="font-size:10; clip-path:url(#clipPath63); fill:black; stroke:none;"
         xml:space="preserve"
         clip-path="url(#clipPath63)"
         id="text511">SUZ12</text>
    </g>
    <g
       style="fill:white; text-rendering:geometricPrecision; stroke:white;"
       id="g521">
      <path
         d="M203 161 L259 161 L259 185 L203 185 L203 161 Z"
         style="clip-path:url(#clipPath64); stroke:none;"
         clip-path="url(#clipPath64)"
         id="path515" />
      <path
         d="M203 161 L259 161 L259 185 L203 185 L203 161 Z"
         style="fill:none; clip-path:url(#clipPath64); stroke:black;"
         clip-path="url(#clipPath64)"
         id="path517" />
      <text
         x="218"
         y="176"
         style="font-size:10; clip-path:url(#clipPath64); fill:black; stroke:none;"
         xml:space="preserve"
         clip-path="url(#clipPath64)"
         id="text519">EZH1</text>
    </g>
    <g
       style="fill:white; text-rendering:geometricPrecision; stroke:white;"
       id="g529">
      <path
         d="M203 185 L259 185 L259 209 L203 209 L203 185 Z"
         style="clip-path:url(#clipPath65); stroke:none;"
         clip-path="url(#clipPath65)"
         id="path523" />
      <path
         d="M203 185 L259 185 L259 209 L203 209 L203 185 Z"
         style="fill:none; clip-path:url(#clipPath65); stroke:black;"
         clip-path="url(#clipPath65)"
         id="path525" />
      <text
         x="215"
         y="200"
         style="font-size:10; clip-path:url(#clipPath65); fill:black; stroke:none;"
         xml:space="preserve"
         clip-path="url(#clipPath65)"
         id="text527">RBBP4</text>
    </g>
  </g>
</svg>
