<?xml version="1.0" encoding="UTF-8" standalone="no"?>
<svg
   style="fill-opacity:1; color-rendering:auto; color-interpolation:auto; stroke:black; text-rendering:auto; stroke-linecap:square; stroke-miterlimit:10; stroke-opacity:1; shape-rendering:auto; fill:black; stroke-dasharray:none; font-weight:normal; stroke-width:1; font-family:'Dialog'; font-style:normal; stroke-linejoin:miter; font-size:12; stroke-dashoffset:0; image-rendering:auto;"
   width="833"
   height="456"
   version="1.1"
   id="svg319"
   xmlns="http://www.w3.org/2000/svg"
   xmlns:svg="http://www.w3.org/2000/svg">
  <!--Generated by the Batik Graphics2D SVG Generator-->
  <defs
     id="genericDefs" />
  <g
     id="g317">
    <defs
       id="defs1">
      <clipPath
         clipPathUnits="userSpaceOnUse"
         id="clipPath1">
        <path
           d="M0 0 L841 0 L841 466 L0 466 L0 0 Z"
           id="path3" />
      </clipPath>
      <clipPath
         clipPathUnits="userSpaceOnUse"
         id="clipPath2">
        <path
           d="M0 0 L0 200 L200 200 L200 0 Z"
           id="path6" />
      </clipPath>
      <clipPath
         clipPathUnits="userSpaceOnUse"
         id="clipPath3">
        <path
           d="M367 16 L367 37 L378 37 L378 16 Z"
           id="path9" />
      </clipPath>
      <clipPath
         clipPathUnits="userSpaceOnUse"
         id="clipPath4">
        <path
           d="M366.4551 3.918 L377.5449 3.918 L377.5449 19.2305 L366.4551 19.2305 L366.4551 3.918 Z"
           id="path12" />
      </clipPath>
      <clipPath
         clipPathUnits="userSpaceOnUse"
         id="clipPath5">
        <path
           d="M208.5379 151.9958 L208.5379 207.391 L229.0563 207.391 L229.0563 151.9958 Z"
           id="path15" />
      </clipPath>
      <clipPath
         clipPathUnits="userSpaceOnUse"
         id="clipPath6">
        <path
           d="M377.5 240.0306 L377.5 251.9694 L440.2311 251.9694 L440.2311 240.0306 Z"
           id="path18" />
      </clipPath>
      <clipPath
         clipPathUnits="userSpaceOnUse"
         id="clipPath7">
        <path
           d="M350.3269 151.9985 L350.3269 228.3337 L370.8339 228.3337 L370.8339 151.9985 Z"
           id="path21" />
      </clipPath>
      <clipPath
         clipPathUnits="userSpaceOnUse"
         id="clipPath8">
        <path
           d="M234.2806 188.5 L234.2806 234 L345 234 L345 188.5 Z"
           id="path24" />
      </clipPath>
      <clipPath
         clipPathUnits="userSpaceOnUse"
         id="clipPath9">
        <path
           d="M260.495 236.3255 L260.495 256.8474 L305.8962 256.8474 L305.8962 236.3255 Z"
           id="path27" />
      </clipPath>
      <clipPath
         clipPathUnits="userSpaceOnUse"
         id="clipPath10">
        <path
           d="M187.6225 277.9978 L187.6225 331.3414 L208.1322 331.3414 L208.1322 277.9978 Z"
           id="path30" />
      </clipPath>
      <clipPath
         clipPathUnits="userSpaceOnUse"
         id="clipPath11">
        <path
           d="M469.6 291 L469.6 332.3 L490.1 332.3 L490.1 291 Z"
           id="path33" />
      </clipPath>
      <clipPath
         clipPathUnits="userSpaceOnUse"
         id="clipPath12">
        <path
           d="M469.6 152 L469.6 195.3 L490.1 195.3 L490.1 152 Z"
           id="path36" />
      </clipPath>
      <clipPath
         clipPathUnits="userSpaceOnUse"
         id="clipPath13">
        <path
           d="M470.5 183.1 L470.5 204.1 L481.5 204.1 L481.5 183.1 Z"
           id="path39" />
      </clipPath>
      <clipPath
         clipPathUnits="userSpaceOnUse"
         id="clipPath14">
        <path
           d="M469.9551 171.018 L481.0449 171.018 L481.0449 186.3305 L469.9551 186.3305 L469.9551 171.018 Z"
           id="path42" />
      </clipPath>
      <clipPath
         clipPathUnits="userSpaceOnUse"
         id="clipPath15">
        <path
           d="M209.35 191.5 L209.35 212.5 L220.35 212.5 L220.35 191.5 Z"
           id="path45" />
      </clipPath>
      <clipPath
         clipPathUnits="userSpaceOnUse"
         id="clipPath16">
        <path
           d="M208.8051 179.418 L219.8949 179.418 L219.8949 194.7305 L208.8051 194.7305 L208.8051 179.418 Z"
           id="path48" />
      </clipPath>
      <clipPath
         clipPathUnits="userSpaceOnUse"
         id="clipPath17">
        <path
           d="M37 48 L37 442 L646 442 L646 48 Z"
           id="path51" />
      </clipPath>
      <clipPath
         clipPathUnits="userSpaceOnUse"
         id="clipPath18">
        <path
           d="M575.5 14.5 L575.5 85.5 L811.5 85.5 L811.5 14.5 Z"
           id="path54" />
      </clipPath>
      <clipPath
         clipPathUnits="userSpaceOnUse"
         id="clipPath19">
        <path
           d="M331.5 127 L331.5 153 L390.5 153 L390.5 127 Z"
           id="path57" />
      </clipPath>
      <clipPath
         clipPathUnits="userSpaceOnUse"
         id="clipPath20">
        <path
           d="M645.5 42 L645.5 68 L796.5 68 L796.5 42 Z"
           id="path60" />
      </clipPath>
      <clipPath
         clipPathUnits="userSpaceOnUse"
         id="clipPath21">
        <path
           d="M176.5 103 L176.5 129 L267.5 129 L267.5 103 Z"
           id="path63" />
      </clipPath>
      <clipPath
         clipPathUnits="userSpaceOnUse"
         id="clipPath22">
        <path
           d="M446.5 337 L446.5 363 L514.5 363 L514.5 337 Z"
           id="path66" />
      </clipPath>
      <clipPath
         clipPathUnits="userSpaceOnUse"
         id="clipPath23">
        <path
           d="M173.5 336 L173.5 362 L223.5 362 L223.5 336 Z"
           id="path69" />
      </clipPath>
      <clipPath
         clipPathUnits="userSpaceOnUse"
         id="clipPath24">
        <path
           d="M310.5 233 L310.5 259 L378.5 259 L378.5 233 Z"
           id="path72" />
      </clipPath>
      <clipPath
         clipPathUnits="userSpaceOnUse"
         id="clipPath25">
        <path
           d="M446.5 208 L446.5 234 L514.5 234 L514.5 208 Z"
           id="path75" />
      </clipPath>
      <clipPath
         clipPathUnits="userSpaceOnUse"
         id="clipPath26">
        <path
           d="M446.5 233 L446.5 259 L514.5 259 L514.5 233 Z"
           id="path78" />
      </clipPath>
      <clipPath
         clipPathUnits="userSpaceOnUse"
         id="clipPath27">
        <path
           d="M446.5 258 L446.5 284 L514.5 284 L514.5 258 Z"
           id="path81" />
      </clipPath>
      <clipPath
         clipPathUnits="userSpaceOnUse"
         id="clipPath28">
        <path
           d="M185.5 220 L185.5 246 L253.5 246 L253.5 220 Z"
           id="path84" />
      </clipPath>
      <clipPath
         clipPathUnits="userSpaceOnUse"
         id="clipPath29">
        <path
           d="M185.5 245 L185.5 271 L253.5 271 L253.5 245 Z"
           id="path87" />
      </clipPath>
      <clipPath
         clipPathUnits="userSpaceOnUse"
         id="clipPath30">
        <path
           d="M451 127 L451 153 L510 153 L510 127 Z"
           id="path90" />
      </clipPath>
      <clipPath
         clipPathUnits="userSpaceOnUse"
         id="clipPath31">
        <path
           d="M189.5 127 L189.5 153 L248.5 153 L248.5 127 Z"
           id="path93" />
      </clipPath>
      <clipPath
         clipPathUnits="userSpaceOnUse"
         id="clipPath32">
        <path
           d="M216.5 369 L216.5 395 L263.5 395 L263.5 369 Z"
           id="path96" />
      </clipPath>
      <clipPath
         clipPathUnits="userSpaceOnUse"
         id="clipPath33">
        <path
           d="M229.1143 277.9986 L229.1143 364.3264 L249.6206 364.3264 L249.6206 277.9986 Z"
           id="path99" />
      </clipPath>
      <clipPath
         clipPathUnits="userSpaceOnUse"
         id="clipPath34">
        <path
           d="M373.5 103 L373.5 129 L464.5 129 L464.5 103 Z"
           id="path102" />
      </clipPath>
      <clipPath
         clipPathUnits="userSpaceOnUse"
         id="clipPath35">
        <path
           d="M589.4921 53.4921 L589.4921 55.2579 L637.5079 55.2579 L637.5079 53.4921 Z"
           id="path105" />
      </clipPath>
    </defs>
    <g
       style="fill:white; stroke:white;"
       id="g111">
      <rect
         x="0"
         width="841"
         height="466"
         y="0"
         style="stroke:none;"
         id="rect109" />
    </g>
    <g
       style="font-weight:bold; font-size:10; text-rendering:geometricPrecision;"
       id="g121">
      <path
         d="M0.0469 6.7031 L6.7656 6.7031 L6.7656 8.125 L4.3438 8.125 L4.3438 14 L2.4688 14 L2.4688 8.125 L0.0469 8.125 L0.0469 6.7031 ZM7.665 8.5312 L9.415 8.5312 L9.415 14 L7.665 14 L7.665 8.5312 ZM7.665 6.4062 L9.415 6.4062 L9.415 7.8281 L7.665 7.8281 L7.665 6.4062 ZM12.999 6.9844 L12.999 8.5312 L14.7959 8.5312 L14.7959 9.7812 L12.999 9.7812 L12.999 12.0938 Q12.999 12.4844 13.1475 12.6172 Q13.2959 12.75 13.749 12.75 L14.6553 12.75 L14.6553 14 L13.1553 14 Q12.1084 14 11.6787 13.5703 Q11.249 13.1406 11.249 12.0938 L11.249 9.7812 L10.374 9.7812 L10.374 8.5312 L11.249 8.5312 L11.249 6.9844 L12.999 6.9844 ZM15.873 6.4062 L17.623 6.4062 L17.623 14 L15.873 14 L15.873 6.4062 ZM24.7539 11.25 L24.7539 11.75 L20.6758 11.75 Q20.7383 12.3594 21.1133 12.6719 Q21.4883 12.9844 22.1758 12.9844 Q22.7227 12.9844 23.3086 12.8203 Q23.8945 12.6562 24.5039 12.3125 L24.5039 13.6719 Q23.8789 13.9062 23.2617 14.0234 Q22.6445 14.1406 22.0195 14.1406 Q20.5352 14.1406 19.7148 13.3828 Q18.8945 12.625 18.8945 11.2656 Q18.8945 9.9375 19.6992 9.1719 Q20.5039 8.4062 21.9258 8.4062 Q23.207 8.4062 23.9805 9.1797 Q24.7539 9.9531 24.7539 11.25 ZM22.957 10.6719 Q22.957 10.1719 22.668 9.8672 Q22.3789 9.5625 21.9102 9.5625 Q21.3945 9.5625 21.082 9.8438 Q20.7695 10.125 20.6914 10.6719 L22.957 10.6719 ZM26.3643 8.5312 L28.1143 8.5312 L28.1143 10.4219 L26.3643 10.4219 L26.3643 8.5312 ZM26.3643 12.1094 L28.1143 12.1094 L28.1143 14 L26.3643 14 L26.3643 12.1094 Z"
         style="clip-path:url(#clipPath2); stroke:none;"
         clip-path="url(#clipPath2)"
         id="path113" />
      <path
         d="M38.9844 6.7031 L40.4531 6.7031 L42.3125 11.6719 L44.1875 6.7031 L45.6562 6.7031 L45.6562 14 L44.6875 14 L44.6875 7.5938 L42.8125 12.5938 L41.8125 12.5938 L39.9375 7.5938 L39.9375 14 L38.9844 14 L38.9844 6.7031 ZM47.5654 8.5312 L48.4717 8.5312 L48.4717 14 L47.5654 14 L47.5654 8.5312 ZM47.5654 6.4062 L48.4717 6.4062 L48.4717 7.5469 L47.5654 7.5469 L47.5654 6.4062 ZM54.2812 8.7344 L54.2812 9.5781 Q53.9062 9.375 53.5234 9.2656 Q53.1406 9.1562 52.75 9.1562 Q51.875 9.1562 51.3906 9.7109 Q50.9062 10.2656 50.9062 11.2656 Q50.9062 12.2656 51.3906 12.8203 Q51.875 13.375 52.75 13.375 Q53.1406 13.375 53.5234 13.2734 Q53.9062 13.1719 54.2812 12.9531 L54.2812 13.7969 Q53.9062 13.9688 53.5078 14.0547 Q53.1094 14.1406 52.6562 14.1406 Q51.4062 14.1406 50.6797 13.3672 Q49.9531 12.5938 49.9531 11.2656 Q49.9531 9.9375 50.6875 9.1719 Q51.4219 8.4062 52.7031 8.4062 Q53.125 8.4062 53.5156 8.4844 Q53.9062 8.5625 54.2812 8.7344 ZM59.0137 9.375 Q58.8574 9.2812 58.6855 9.2422 Q58.5137 9.2031 58.2949 9.2031 Q57.5293 9.2031 57.123 9.6953 Q56.7168 10.1875 56.7168 11.125 L56.7168 14 L55.8105 14 L55.8105 8.5312 L56.7168 8.5312 L56.7168 9.375 Q56.998 8.875 57.4512 8.6406 Q57.9043 8.4062 58.5605 8.4062 Q58.6543 8.4062 58.7637 8.4141 Q58.873 8.4219 59.0137 8.4531 L59.0137 9.375 ZM62.0781 9.1562 Q61.3594 9.1562 60.9375 9.7188 Q60.5156 10.2812 60.5156 11.2656 Q60.5156 12.25 60.9297 12.8125 Q61.3438 13.375 62.0781 13.375 Q62.7969 13.375 63.2188 12.8125 Q63.6406 12.25 63.6406 11.2656 Q63.6406 10.2969 63.2188 9.7266 Q62.7969 9.1562 62.0781 9.1562 ZM62.0781 8.4062 Q63.25 8.4062 63.9219 9.1641 Q64.5938 9.9219 64.5938 11.2656 Q64.5938 12.6094 63.9219 13.375 Q63.25 14.1406 62.0781 14.1406 Q60.9062 14.1406 60.2344 13.375 Q59.5625 12.6094 59.5625 11.2656 Q59.5625 9.9219 60.2344 9.1641 Q60.9062 8.4062 62.0781 8.4062 ZM69.5713 10.5781 Q69.8838 10.6875 70.1885 11.0391 Q70.4932 11.3906 70.79 12 L71.79 14 L70.7275 14 L69.8057 12.125 Q69.4463 11.3906 69.1025 11.1562 Q68.7588 10.9219 68.1807 10.9219 L67.1025 10.9219 L67.1025 14 L66.1182 14 L66.1182 6.7031 L68.3369 6.7031 Q69.5869 6.7031 70.2041 7.2266 Q70.8213 7.75 70.8213 8.8125 Q70.8213 9.5 70.501 9.9531 Q70.1807 10.4062 69.5713 10.5781 ZM67.1025 7.5156 L67.1025 10.1094 L68.3369 10.1094 Q69.0557 10.1094 69.4229 9.7812 Q69.79 9.4531 69.79 8.8125 Q69.79 8.1719 69.4229 7.8438 Q69.0557 7.5156 68.3369 7.5156 L67.1025 7.5156 ZM73.0664 6.7031 L74.3945 6.7031 L77.6289 12.8125 L77.6289 6.7031 L78.582 6.7031 L78.582 14 L77.2539 14 L74.0195 7.9062 L74.0195 14 L73.0664 14 L73.0664 6.7031 ZM82.9844 7.6875 L81.6406 11.3125 L84.3281 11.3125 L82.9844 7.6875 ZM82.4219 6.7031 L83.5469 6.7031 L86.3281 14 L85.2969 14 L84.625 12.125 L81.3438 12.125 L80.6875 14 L79.6406 14 L82.4219 6.7031 ZM95.0664 10.7031 L95.0664 14 L94.1758 14 L94.1758 10.7344 Q94.1758 9.9531 93.8711 9.5703 Q93.5664 9.1875 92.957 9.1875 Q92.2383 9.1875 91.8164 9.6484 Q91.3945 10.1094 91.3945 10.9062 L91.3945 14 L90.4883 14 L90.4883 8.5312 L91.3945 8.5312 L91.3945 9.375 Q91.7227 8.8906 92.1602 8.6484 Q92.5977 8.4062 93.1602 8.4062 Q94.0977 8.4062 94.582 8.9844 Q95.0664 9.5625 95.0664 10.7031 ZM101.5449 11.0469 L101.5449 11.4844 L97.4043 11.4844 Q97.4668 12.4062 97.9668 12.8906 Q98.4668 13.375 99.3574 13.375 Q99.873 13.375 100.3652 13.25 Q100.8574 13.125 101.3262 12.875 L101.3262 13.7188 Q100.8418 13.9219 100.334 14.0312 Q99.8262 14.1406 99.3105 14.1406 Q97.998 14.1406 97.2324 13.3828 Q96.4668 12.625 96.4668 11.3125 Q96.4668 9.9688 97.1934 9.1875 Q97.9199 8.4062 99.1543 8.4062 Q100.2637 8.4062 100.9043 9.1094 Q101.5449 9.8125 101.5449 11.0469 ZM100.6387 10.7812 Q100.6387 10.0469 100.2324 9.6016 Q99.8262 9.1562 99.1699 9.1562 Q98.4043 9.1562 97.959 9.5859 Q97.5137 10.0156 97.4355 10.7812 L100.6387 10.7812 ZM103.9004 6.9844 L103.9004 8.5312 L105.7598 8.5312 L105.7598 9.2344 L103.9004 9.2344 L103.9004 12.2031 Q103.9004 12.8594 104.0879 13.0547 Q104.2754 13.25 104.8379 13.25 L105.7598 13.25 L105.7598 14 L104.8379 14 Q103.791 14 103.3926 13.6094 Q102.9941 13.2188 102.9941 12.2031 L102.9941 9.2344 L102.3379 9.2344 L102.3379 8.5312 L102.9941 8.5312 L102.9941 6.9844 L103.9004 6.9844 ZM106.415 8.5312 L107.3057 8.5312 L108.4307 12.7969 L109.5557 8.5312 L110.6182 8.5312 L111.7432 12.7969 L112.8525 8.5312 L113.7588 8.5312 L112.3213 14 L111.2588 14 L110.0869 9.5156 L108.8994 14 L107.8369 14 L106.415 8.5312 ZM117.2344 9.1562 Q116.5156 9.1562 116.0938 9.7188 Q115.6719 10.2812 115.6719 11.2656 Q115.6719 12.25 116.0859 12.8125 Q116.5 13.375 117.2344 13.375 Q117.9531 13.375 118.375 12.8125 Q118.7969 12.25 118.7969 11.2656 Q118.7969 10.2969 118.375 9.7266 Q117.9531 9.1562 117.2344 9.1562 ZM117.2344 8.4062 Q118.4062 8.4062 119.0781 9.1641 Q119.75 9.9219 119.75 11.2656 Q119.75 12.6094 119.0781 13.375 Q118.4062 14.1406 117.2344 14.1406 Q116.0625 14.1406 115.3906 13.375 Q114.7188 12.6094 114.7188 11.2656 Q114.7188 9.9219 115.3906 9.1641 Q116.0625 8.4062 117.2344 8.4062 ZM124.3994 9.375 Q124.2432 9.2812 124.0713 9.2422 Q123.8994 9.2031 123.6807 9.2031 Q122.915 9.2031 122.5088 9.6953 Q122.1025 10.1875 122.1025 11.125 L122.1025 14 L121.1963 14 L121.1963 8.5312 L122.1025 8.5312 L122.1025 9.375 Q122.3838 8.875 122.8369 8.6406 Q123.29 8.4062 123.9463 8.4062 Q124.04 8.4062 124.1494 8.4141 Q124.2588 8.4219 124.3994 8.4531 L124.3994 9.375 ZM125.3076 6.4062 L126.2139 6.4062 L126.2139 10.8906 L128.9014 8.5312 L130.042 8.5312 L127.1357 11.0938 L130.167 14 L128.9951 14 L126.2139 11.3281 L126.2139 14 L125.3076 14 L125.3076 6.4062 ZM136.793 11.25 Q135.7148 11.25 135.293 11.5 Q134.8711 11.75 134.8711 12.3438 Q134.8711 12.8281 135.1836 13.1094 Q135.4961 13.3906 136.043 13.3906 Q136.793 13.3906 137.2461 12.8594 Q137.6992 12.3281 137.6992 11.4531 L137.6992 11.25 L136.793 11.25 ZM138.5898 10.875 L138.5898 14 L137.6992 14 L137.6992 13.1719 Q137.3867 13.6719 136.9258 13.9062 Q136.4648 14.1406 135.8086 14.1406 Q134.9648 14.1406 134.4648 13.6719 Q133.9648 13.2031 133.9648 12.4062 Q133.9648 11.4844 134.5898 11.0156 Q135.2148 10.5469 136.4336 10.5469 L137.6992 10.5469 L137.6992 10.4531 Q137.6992 9.8438 137.2852 9.5 Q136.8711 9.1562 136.1367 9.1562 Q135.668 9.1562 135.2227 9.2734 Q134.7773 9.3906 134.3711 9.6094 L134.3711 8.7812 Q134.8711 8.5938 135.332 8.5 Q135.793 8.4062 136.2305 8.4062 Q137.418 8.4062 138.0039 9.0156 Q138.5898 9.625 138.5898 10.875 ZM143.9209 8.6875 L143.9209 9.5469 Q143.5459 9.3438 143.1396 9.25 Q142.7334 9.1562 142.2803 9.1562 Q141.624 9.1562 141.2881 9.3594 Q140.9521 9.5625 140.9521 9.9688 Q140.9521 10.2812 141.1865 10.4609 Q141.4209 10.6406 142.1553 10.7969 L142.4521 10.875 Q143.4209 11.0781 143.8193 11.4531 Q144.2178 11.8281 144.2178 12.4844 Q144.2178 13.25 143.6162 13.6953 Q143.0146 14.1406 141.9678 14.1406 Q141.5146 14.1406 141.0381 14.0547 Q140.5615 13.9688 140.0459 13.7969 L140.0459 12.875 Q140.5459 13.125 141.0225 13.2578 Q141.499 13.3906 141.9834 13.3906 Q142.6084 13.3906 142.9521 13.1719 Q143.2959 12.9531 143.2959 12.5625 Q143.2959 12.1875 143.0537 11.9922 Q142.8115 11.7969 141.9678 11.625 L141.6553 11.5469 Q140.8271 11.375 140.4521 11.0078 Q140.0771 10.6406 140.0771 10.0156 Q140.0771 9.2344 140.624 8.8203 Q141.1709 8.4062 142.1865 8.4062 Q142.6709 8.4062 143.1162 8.4766 Q143.5615 8.5469 143.9209 8.6875 ZM149.1309 8.6875 L149.1309 9.5469 Q148.7559 9.3438 148.3496 9.25 Q147.9434 9.1562 147.4902 9.1562 Q146.834 9.1562 146.498 9.3594 Q146.1621 9.5625 146.1621 9.9688 Q146.1621 10.2812 146.3965 10.4609 Q146.6309 10.6406 147.3652 10.7969 L147.6621 10.875 Q148.6309 11.0781 149.0293 11.4531 Q149.4277 11.8281 149.4277 12.4844 Q149.4277 13.25 148.8262 13.6953 Q148.2246 14.1406 147.1777 14.1406 Q146.7246 14.1406 146.248 14.0547 Q145.7715 13.9688 145.2559 13.7969 L145.2559 12.875 Q145.7559 13.125 146.2324 13.2578 Q146.709 13.3906 147.1934 13.3906 Q147.8184 13.3906 148.1621 13.1719 Q148.5059 12.9531 148.5059 12.5625 Q148.5059 12.1875 148.2637 11.9922 Q148.0215 11.7969 147.1777 11.625 L146.8652 11.5469 Q146.0371 11.375 145.6621 11.0078 Q145.2871 10.6406 145.2871 10.0156 Q145.2871 9.2344 145.834 8.8203 Q146.3809 8.4062 147.3965 8.4062 Q147.8809 8.4062 148.3262 8.4766 Q148.7715 8.5469 149.1309 8.6875 ZM152.9814 9.1562 Q152.2627 9.1562 151.8408 9.7188 Q151.4189 10.2812 151.4189 11.2656 Q151.4189 12.25 151.833 12.8125 Q152.2471 13.375 152.9814 13.375 Q153.7002 13.375 154.1221 12.8125 Q154.5439 12.25 154.5439 11.2656 Q154.5439 10.2969 154.1221 9.7266 Q153.7002 9.1562 152.9814 9.1562 ZM152.9814 8.4062 Q154.1533 8.4062 154.8252 9.1641 Q155.4971 9.9219 155.4971 11.2656 Q155.4971 12.6094 154.8252 13.375 Q154.1533 14.1406 152.9814 14.1406 Q151.8096 14.1406 151.1377 13.375 Q150.4658 12.6094 150.4658 11.2656 Q150.4658 9.9219 151.1377 9.1641 Q151.8096 8.4062 152.9814 8.4062 ZM160.9121 8.7344 L160.9121 9.5781 Q160.5371 9.375 160.1543 9.2656 Q159.7715 9.1562 159.3809 9.1562 Q158.5059 9.1562 158.0215 9.7109 Q157.5371 10.2656 157.5371 11.2656 Q157.5371 12.2656 158.0215 12.8203 Q158.5059 13.375 159.3809 13.375 Q159.7715 13.375 160.1543 13.2734 Q160.5371 13.1719 160.9121 12.9531 L160.9121 13.7969 Q160.5371 13.9688 160.1387 14.0547 Q159.7402 14.1406 159.2871 14.1406 Q158.0371 14.1406 157.3105 13.3672 Q156.584 12.5938 156.584 11.2656 Q156.584 9.9375 157.3184 9.1719 Q158.0527 8.4062 159.334 8.4062 Q159.7559 8.4062 160.1465 8.4844 Q160.5371 8.5625 160.9121 8.7344 ZM162.4727 8.5312 L163.3789 8.5312 L163.3789 14 L162.4727 14 L162.4727 8.5312 ZM162.4727 6.4062 L163.3789 6.4062 L163.3789 7.5469 L162.4727 7.5469 L162.4727 6.4062 ZM167.7354 11.25 Q166.6572 11.25 166.2354 11.5 Q165.8135 11.75 165.8135 12.3438 Q165.8135 12.8281 166.126 13.1094 Q166.4385 13.3906 166.9854 13.3906 Q167.7354 13.3906 168.1885 12.8594 Q168.6416 12.3281 168.6416 11.4531 L168.6416 11.25 L167.7354 11.25 ZM169.5322 10.875 L169.5322 14 L168.6416 14 L168.6416 13.1719 Q168.3291 13.6719 167.8682 13.9062 Q167.4072 14.1406 166.751 14.1406 Q165.9072 14.1406 165.4072 13.6719 Q164.9072 13.2031 164.9072 12.4062 Q164.9072 11.4844 165.5322 11.0156 Q166.1572 10.5469 167.376 10.5469 L168.6416 10.5469 L168.6416 10.4531 Q168.6416 9.8438 168.2275 9.5 Q167.8135 9.1562 167.0791 9.1562 Q166.6104 9.1562 166.165 9.2734 Q165.7197 9.3906 165.3135 9.6094 L165.3135 8.7812 Q165.8135 8.5938 166.2744 8.5 Q166.7354 8.4062 167.1729 8.4062 Q168.3604 8.4062 168.9463 9.0156 Q169.5322 9.625 169.5322 10.875 ZM172.2695 6.9844 L172.2695 8.5312 L174.1289 8.5312 L174.1289 9.2344 L172.2695 9.2344 L172.2695 12.2031 Q172.2695 12.8594 172.457 13.0547 Q172.6445 13.25 173.207 13.25 L174.1289 13.25 L174.1289 14 L173.207 14 Q172.1602 14 171.7617 13.6094 Q171.3633 13.2188 171.3633 12.2031 L171.3633 9.2344 L170.707 9.2344 L170.707 8.5312 L171.3633 8.5312 L171.3633 6.9844 L172.2695 6.9844 ZM179.9873 11.0469 L179.9873 11.4844 L175.8467 11.4844 Q175.9092 12.4062 176.4092 12.8906 Q176.9092 13.375 177.7998 13.375 Q178.3154 13.375 178.8076 13.25 Q179.2998 13.125 179.7686 12.875 L179.7686 13.7188 Q179.2842 13.9219 178.7764 14.0312 Q178.2686 14.1406 177.7529 14.1406 Q176.4404 14.1406 175.6748 13.3828 Q174.9092 12.625 174.9092 11.3125 Q174.9092 9.9688 175.6357 9.1875 Q176.3623 8.4062 177.5967 8.4062 Q178.7061 8.4062 179.3467 9.1094 Q179.9873 9.8125 179.9873 11.0469 ZM179.0811 10.7812 Q179.0811 10.0469 178.6748 9.6016 Q178.2686 9.1562 177.6123 9.1562 Q176.8467 9.1562 176.4014 9.5859 Q175.9561 10.0156 175.8779 10.7812 L179.0811 10.7812 ZM185.0615 9.3594 L185.0615 6.4062 L185.9521 6.4062 L185.9521 14 L185.0615 14 L185.0615 13.1719 Q184.7803 13.6719 184.3428 13.9062 Q183.9053 14.1406 183.2959 14.1406 Q182.3115 14.1406 181.6865 13.3516 Q181.0615 12.5625 181.0615 11.2656 Q181.0615 9.9844 181.6865 9.1953 Q182.3115 8.4062 183.2959 8.4062 Q183.9053 8.4062 184.3428 8.6406 Q184.7803 8.875 185.0615 9.3594 ZM181.999 11.2656 Q181.999 12.2656 182.4053 12.8281 Q182.8115 13.3906 183.5303 13.3906 Q184.2334 13.3906 184.6475 12.8281 Q185.0615 12.2656 185.0615 11.2656 Q185.0615 10.2812 184.6475 9.7188 Q184.2334 9.1562 183.5303 9.1562 Q182.8115 9.1562 182.4053 9.7188 Q181.999 10.2812 181.999 11.2656 ZM190.4629 8.5312 L191.3535 8.5312 L192.4785 12.7969 L193.6035 8.5312 L194.666 8.5312 L195.791 12.7969 L196.9004 8.5312 L197.8066 8.5312 L196.3691 14 L195.3066 14 L194.1348 9.5156 L192.9473 14 L191.8848 14 L190.4629 8.5312 ZM199.1572 8.5312 L200.0635 8.5312 L200.0635 14 L199.1572 14 L199.1572 8.5312 ZM199.1572 6.4062 L200.0635 6.4062 L200.0635 7.5469 L199.1572 7.5469 L199.1572 6.4062 ZM202.8262 6.9844 L202.8262 8.5312 L204.6855 8.5312 L204.6855 9.2344 L202.8262 9.2344 L202.8262 12.2031 Q202.8262 12.8594 203.0137 13.0547 Q203.2012 13.25 203.7637 13.25 L204.6855 13.25 L204.6855 14 L203.7637 14 Q202.7168 14 202.3184 13.6094 Q201.9199 13.2188 201.9199 12.2031 L201.9199 9.2344 L201.2637 9.2344 L201.2637 8.5312 L201.9199 8.5312 L201.9199 6.9844 L202.8262 6.9844 ZM210.4033 10.7031 L210.4033 14 L209.5127 14 L209.5127 10.7344 Q209.5127 9.9531 209.208 9.5703 Q208.9033 9.1875 208.2939 9.1875 Q207.5752 9.1875 207.1533 9.6484 Q206.7314 10.1094 206.7314 10.9062 L206.7314 14 L205.8252 14 L205.8252 6.4062 L206.7314 6.4062 L206.7314 9.375 Q207.0596 8.8906 207.4971 8.6484 Q207.9346 8.4062 208.4971 8.4062 Q209.4346 8.4062 209.9189 8.9844 Q210.4033 9.5625 210.4033 10.7031 ZM219.3105 8.7344 L219.3105 9.5781 Q218.9355 9.375 218.5527 9.2656 Q218.1699 9.1562 217.7793 9.1562 Q216.9043 9.1562 216.4199 9.7109 Q215.9355 10.2656 215.9355 11.2656 Q215.9355 12.2656 216.4199 12.8203 Q216.9043 13.375 217.7793 13.375 Q218.1699 13.375 218.5527 13.2734 Q218.9355 13.1719 219.3105 12.9531 L219.3105 13.7969 Q218.9355 13.9688 218.5371 14.0547 Q218.1387 14.1406 217.6855 14.1406 Q216.4355 14.1406 215.709 13.3672 Q214.9824 12.5938 214.9824 11.2656 Q214.9824 9.9375 215.7168 9.1719 Q216.4512 8.4062 217.7324 8.4062 Q218.1543 8.4062 218.5449 8.4844 Q218.9355 8.5625 219.3105 8.7344 ZM225.418 10.7031 L225.418 14 L224.5273 14 L224.5273 10.7344 Q224.5273 9.9531 224.2227 9.5703 Q223.918 9.1875 223.3086 9.1875 Q222.5898 9.1875 222.168 9.6484 Q221.7461 10.1094 221.7461 10.9062 L221.7461 14 L220.8398 14 L220.8398 6.4062 L221.7461 6.4062 L221.7461 9.375 Q222.0742 8.8906 222.5117 8.6484 Q222.9492 8.4062 223.5117 8.4062 Q224.4492 8.4062 224.9336 8.9844 Q225.418 9.5625 225.418 10.7031 ZM230.3809 9.375 Q230.2246 9.2812 230.0527 9.2422 Q229.8809 9.2031 229.6621 9.2031 Q228.8965 9.2031 228.4902 9.6953 Q228.084 10.1875 228.084 11.125 L228.084 14 L227.1777 14 L227.1777 8.5312 L228.084 8.5312 L228.084 9.375 Q228.3652 8.875 228.8184 8.6406 Q229.2715 8.4062 229.9277 8.4062 Q230.0215 8.4062 230.1309 8.4141 Q230.2402 8.4219 230.3809 8.4531 L230.3809 9.375 ZM233.4453 9.1562 Q232.7266 9.1562 232.3047 9.7188 Q231.8828 10.2812 231.8828 11.2656 Q231.8828 12.25 232.2969 12.8125 Q232.7109 13.375 233.4453 13.375 Q234.1641 13.375 234.5859 12.8125 Q235.0078 12.25 235.0078 11.2656 Q235.0078 10.2969 234.5859 9.7266 Q234.1641 9.1562 233.4453 9.1562 ZM233.4453 8.4062 Q234.6172 8.4062 235.2891 9.1641 Q235.9609 9.9219 235.9609 11.2656 Q235.9609 12.6094 235.2891 13.375 Q234.6172 14.1406 233.4453 14.1406 Q232.2734 14.1406 231.6016 13.375 Q230.9297 12.6094 230.9297 11.2656 Q230.9297 9.9219 231.6016 9.1641 Q232.2734 8.4062 233.4453 8.4062 ZM241.9854 10.7031 L241.9854 14 L241.0947 14 L241.0947 10.7344 Q241.0947 9.9531 240.79 9.5703 Q240.4854 9.1875 239.876 9.1875 Q239.1572 9.1875 238.7354 9.6484 Q238.3135 10.1094 238.3135 10.9062 L238.3135 14 L237.4072 14 L237.4072 8.5312 L238.3135 8.5312 L238.3135 9.375 Q238.6416 8.8906 239.0791 8.6484 Q239.5166 8.4062 240.0791 8.4062 Q241.0166 8.4062 241.501 8.9844 Q241.9854 9.5625 241.9854 10.7031 ZM243.7764 8.5312 L244.6826 8.5312 L244.6826 14 L243.7764 14 L243.7764 8.5312 ZM243.7764 6.4062 L244.6826 6.4062 L244.6826 7.5469 L243.7764 7.5469 L243.7764 6.4062 ZM250.4922 8.7344 L250.4922 9.5781 Q250.1172 9.375 249.7344 9.2656 Q249.3516 9.1562 248.9609 9.1562 Q248.0859 9.1562 247.6016 9.7109 Q247.1172 10.2656 247.1172 11.2656 Q247.1172 12.2656 247.6016 12.8203 Q248.0859 13.375 248.9609 13.375 Q249.3516 13.375 249.7344 13.2734 Q250.1172 13.1719 250.4922 12.9531 L250.4922 13.7969 Q250.1172 13.9688 249.7188 14.0547 Q249.3203 14.1406 248.8672 14.1406 Q247.6172 14.1406 246.8906 13.3672 Q246.1641 12.5938 246.1641 11.2656 Q246.1641 9.9375 246.8984 9.1719 Q247.6328 8.4062 248.9141 8.4062 Q249.3359 8.4062 249.7266 8.4844 Q250.1172 8.5625 250.4922 8.7344 ZM255.2314 6.4062 L256.1377 6.4062 L256.1377 14 L255.2314 14 L255.2314 6.4062 ZM260.291 14.5156 Q259.916 15.4844 259.5488 15.7812 Q259.1816 16.0781 258.5879 16.0781 L257.8691 16.0781 L257.8691 15.3281 L258.3848 15.3281 Q258.7598 15.3281 258.9629 15.1562 Q259.166 14.9844 259.416 14.3281 L259.5879 13.9062 L257.3691 8.5312 L258.3223 8.5312 L260.0254 12.8125 L261.7441 8.5312 L262.6973 8.5312 L260.291 14.5156 ZM268.1934 9.5781 Q268.5215 8.9688 268.9902 8.6875 Q269.459 8.4062 270.0996 8.4062 Q270.959 8.4062 271.4199 9 Q271.8809 9.5938 271.8809 10.7031 L271.8809 14 L270.9746 14 L270.9746 10.7344 Q270.9746 9.9375 270.7012 9.5625 Q270.4277 9.1875 269.8496 9.1875 Q269.1465 9.1875 268.748 9.6484 Q268.3496 10.1094 268.3496 10.9062 L268.3496 14 L267.4434 14 L267.4434 10.7344 Q267.4434 9.9375 267.1621 9.5625 Q266.8809 9.1875 266.3027 9.1875 Q265.6152 9.1875 265.209 9.6484 Q264.8027 10.1094 264.8027 10.9062 L264.8027 14 L263.8965 14 L263.8965 8.5312 L264.8027 8.5312 L264.8027 9.375 Q265.1152 8.875 265.5449 8.6406 Q265.9746 8.4062 266.5527 8.4062 Q267.1621 8.4062 267.5762 8.7031 Q267.9902 9 268.1934 9.5781 ZM274.5439 13.1719 L274.5439 16.0781 L273.6377 16.0781 L273.6377 8.5312 L274.5439 8.5312 L274.5439 9.3594 Q274.8252 8.875 275.2549 8.6406 Q275.6846 8.4062 276.2939 8.4062 Q277.2939 8.4062 277.9111 9.1953 Q278.5283 9.9844 278.5283 11.2656 Q278.5283 12.5625 277.9111 13.3516 Q277.2939 14.1406 276.2939 14.1406 Q275.6846 14.1406 275.2549 13.9062 Q274.8252 13.6719 274.5439 13.1719 ZM277.6064 11.2656 Q277.6064 10.2812 277.1924 9.7188 Q276.7783 9.1562 276.0752 9.1562 Q275.3564 9.1562 274.9502 9.7188 Q274.5439 10.2812 274.5439 11.2656 Q274.5439 12.2656 274.9502 12.8281 Q275.3564 13.3906 276.0752 13.3906 Q276.7783 13.3906 277.1924 12.8281 Q277.6064 12.2656 277.6064 11.2656 ZM284.5635 10.7031 L284.5635 14 L283.6729 14 L283.6729 10.7344 Q283.6729 9.9531 283.3682 9.5703 Q283.0635 9.1875 282.4541 9.1875 Q281.7354 9.1875 281.3135 9.6484 Q280.8916 10.1094 280.8916 10.9062 L280.8916 14 L279.9854 14 L279.9854 6.4062 L280.8916 6.4062 L280.8916 9.375 Q281.2197 8.8906 281.6572 8.6484 Q282.0947 8.4062 282.6572 8.4062 Q283.5947 8.4062 284.0791 8.9844 Q284.5635 9.5625 284.5635 10.7031 ZM288.4795 9.1562 Q287.7607 9.1562 287.3389 9.7188 Q286.917 10.2812 286.917 11.2656 Q286.917 12.25 287.3311 12.8125 Q287.7451 13.375 288.4795 13.375 Q289.1982 13.375 289.6201 12.8125 Q290.042 12.25 290.042 11.2656 Q290.042 10.2969 289.6201 9.7266 Q289.1982 9.1562 288.4795 9.1562 ZM288.4795 8.4062 Q289.6514 8.4062 290.3232 9.1641 Q290.9951 9.9219 290.9951 11.2656 Q290.9951 12.6094 290.3232 13.375 Q289.6514 14.1406 288.4795 14.1406 Q287.3076 14.1406 286.6357 13.375 Q285.9639 12.6094 285.9639 11.2656 Q285.9639 9.9219 286.6357 9.1641 Q287.3076 8.4062 288.4795 8.4062 ZM296.4102 8.7344 L296.4102 9.5781 Q296.0352 9.375 295.6523 9.2656 Q295.2695 9.1562 294.8789 9.1562 Q294.0039 9.1562 293.5195 9.7109 Q293.0352 10.2656 293.0352 11.2656 Q293.0352 12.2656 293.5195 12.8203 Q294.0039 13.375 294.8789 13.375 Q295.2695 13.375 295.6523 13.2734 Q296.0352 13.1719 296.4102 12.9531 L296.4102 13.7969 Q296.0352 13.9688 295.6367 14.0547 Q295.2383 14.1406 294.7852 14.1406 Q293.5352 14.1406 292.8086 13.3672 Q292.082 12.5938 292.082 11.2656 Q292.082 9.9375 292.8164 9.1719 Q293.5508 8.4062 294.832 8.4062 Q295.2539 8.4062 295.6445 8.4844 Q296.0352 8.5625 296.4102 8.7344 ZM300.252 14.5156 Q299.877 15.4844 299.5098 15.7812 Q299.1426 16.0781 298.5488 16.0781 L297.8301 16.0781 L297.8301 15.3281 L298.3457 15.3281 Q298.7207 15.3281 298.9238 15.1562 Q299.127 14.9844 299.377 14.3281 L299.5488 13.9062 L297.3301 8.5312 L298.2832 8.5312 L299.9863 12.8125 L301.7051 8.5312 L302.6582 8.5312 L300.252 14.5156 ZM304.7793 6.9844 L304.7793 8.5312 L306.6387 8.5312 L306.6387 9.2344 L304.7793 9.2344 L304.7793 12.2031 Q304.7793 12.8594 304.9668 13.0547 Q305.1543 13.25 305.7168 13.25 L306.6387 13.25 L306.6387 14 L305.7168 14 Q304.6699 14 304.2715 13.6094 Q303.873 13.2188 303.873 12.2031 L303.873 9.2344 L303.2168 9.2344 L303.2168 8.5312 L303.873 8.5312 L303.873 6.9844 L304.7793 6.9844 ZM307.8096 8.5312 L308.7158 8.5312 L308.7158 14 L307.8096 14 L307.8096 8.5312 ZM307.8096 6.4062 L308.7158 6.4062 L308.7158 7.5469 L307.8096 7.5469 L307.8096 6.4062 ZM314.5254 8.7344 L314.5254 9.5781 Q314.1504 9.375 313.7676 9.2656 Q313.3848 9.1562 312.9941 9.1562 Q312.1191 9.1562 311.6348 9.7109 Q311.1504 10.2656 311.1504 11.2656 Q311.1504 12.2656 311.6348 12.8203 Q312.1191 13.375 312.9941 13.375 Q313.3848 13.375 313.7676 13.2734 Q314.1504 13.1719 314.5254 12.9531 L314.5254 13.7969 Q314.1504 13.9688 313.752 14.0547 Q313.3535 14.1406 312.9004 14.1406 Q311.6504 14.1406 310.9238 13.3672 Q310.1973 12.5938 310.1973 11.2656 Q310.1973 9.9375 310.9316 9.1719 Q311.666 8.4062 312.9473 8.4062 Q313.3691 8.4062 313.7598 8.4844 Q314.1504 8.5625 314.5254 8.7344 ZM319.2646 6.4062 L320.1709 6.4062 L320.1709 14 L319.2646 14 L319.2646 6.4062 ZM326.7305 11.0469 L326.7305 11.4844 L322.5898 11.4844 Q322.6523 12.4062 323.1523 12.8906 Q323.6523 13.375 324.543 13.375 Q325.0586 13.375 325.5508 13.25 Q326.043 13.125 326.5117 12.875 L326.5117 13.7188 Q326.0273 13.9219 325.5195 14.0312 Q325.0117 14.1406 324.4961 14.1406 Q323.1836 14.1406 322.418 13.3828 Q321.6523 12.625 321.6523 11.3125 Q321.6523 9.9688 322.3789 9.1875 Q323.1055 8.4062 324.3398 8.4062 Q325.4492 8.4062 326.0898 9.1094 Q326.7305 9.8125 326.7305 11.0469 ZM325.8242 10.7812 Q325.8242 10.0469 325.418 9.6016 Q325.0117 9.1562 324.3555 9.1562 Q323.5898 9.1562 323.1445 9.5859 Q322.6992 10.0156 322.6211 10.7812 L325.8242 10.7812 ZM328.1016 11.8438 L328.1016 8.5312 L329.0078 8.5312 L329.0078 11.8125 Q329.0078 12.5781 329.3125 12.9688 Q329.6172 13.3594 330.2109 13.3594 Q330.9453 13.3594 331.3672 12.8984 Q331.7891 12.4375 331.7891 11.625 L331.7891 8.5312 L332.6953 8.5312 L332.6953 14 L331.7891 14 L331.7891 13.1562 Q331.4609 13.6562 331.0312 13.8984 Q330.6016 14.1406 330.0234 14.1406 Q329.0859 14.1406 328.5938 13.5547 Q328.1016 12.9688 328.1016 11.8438 ZM330.3672 8.4062 L330.3672 8.4062 ZM334.502 6.4062 L335.4082 6.4062 L335.4082 10.8906 L338.0957 8.5312 L339.2363 8.5312 L336.3301 11.0938 L339.3613 14 L338.1895 14 L335.4082 11.3281 L335.4082 14 L334.502 14 L334.502 6.4062 ZM345.0117 11.0469 L345.0117 11.4844 L340.8711 11.4844 Q340.9336 12.4062 341.4336 12.8906 Q341.9336 13.375 342.8242 13.375 Q343.3398 13.375 343.832 13.25 Q344.3242 13.125 344.793 12.875 L344.793 13.7188 Q344.3086 13.9219 343.8008 14.0312 Q343.293 14.1406 342.7773 14.1406 Q341.4648 14.1406 340.6992 13.3828 Q339.9336 12.625 339.9336 11.3125 Q339.9336 9.9688 340.6602 9.1875 Q341.3867 8.4062 342.6211 8.4062 Q343.7305 8.4062 344.3711 9.1094 Q345.0117 9.8125 345.0117 11.0469 ZM344.1055 10.7812 Q344.1055 10.0469 343.6992 9.6016 Q343.293 9.1562 342.6367 9.1562 Q341.8711 9.1562 341.4258 9.5859 Q340.9805 10.0156 340.9023 10.7812 L344.1055 10.7812 ZM350.7422 9.5781 Q351.0703 8.9688 351.5391 8.6875 Q352.0078 8.4062 352.6484 8.4062 Q353.5078 8.4062 353.9688 9 Q354.4297 9.5938 354.4297 10.7031 L354.4297 14 L353.5234 14 L353.5234 10.7344 Q353.5234 9.9375 353.25 9.5625 Q352.9766 9.1875 352.3984 9.1875 Q351.6953 9.1875 351.2969 9.6484 Q350.8984 10.1094 350.8984 10.9062 L350.8984 14 L349.9922 14 L349.9922 10.7344 Q349.9922 9.9375 349.7109 9.5625 Q349.4297 9.1875 348.8516 9.1875 Q348.1641 9.1875 347.7578 9.6484 Q347.3516 10.1094 347.3516 10.9062 L347.3516 14 L346.4453 14 L346.4453 8.5312 L347.3516 8.5312 L347.3516 9.375 Q347.6641 8.875 348.0938 8.6406 Q348.5234 8.4062 349.1016 8.4062 Q349.7109 8.4062 350.125 8.7031 Q350.5391 9 350.7422 9.5781 ZM356.2178 8.5312 L357.124 8.5312 L357.124 14 L356.2178 14 L356.2178 8.5312 ZM356.2178 6.4062 L357.124 6.4062 L357.124 7.5469 L356.2178 7.5469 L356.2178 6.4062 ZM361.4805 11.25 Q360.4023 11.25 359.9805 11.5 Q359.5586 11.75 359.5586 12.3438 Q359.5586 12.8281 359.8711 13.1094 Q360.1836 13.3906 360.7305 13.3906 Q361.4805 13.3906 361.9336 12.8594 Q362.3867 12.3281 362.3867 11.4531 L362.3867 11.25 L361.4805 11.25 ZM363.2773 10.875 L363.2773 14 L362.3867 14 L362.3867 13.1719 Q362.0742 13.6719 361.6133 13.9062 Q361.1523 14.1406 360.4961 14.1406 Q359.6523 14.1406 359.1523 13.6719 Q358.6523 13.2031 358.6523 12.4062 Q358.6523 11.4844 359.2773 11.0156 Q359.9023 10.5469 361.1211 10.5469 L362.3867 10.5469 L362.3867 10.4531 Q362.3867 9.8438 361.9727 9.5 Q361.5586 9.1562 360.8242 9.1562 Q360.3555 9.1562 359.9102 9.2734 Q359.4648 9.3906 359.0586 9.6094 L359.0586 8.7812 Q359.5586 8.5938 360.0195 8.5 Q360.4805 8.4062 360.918 8.4062 Q362.1055 8.4062 362.6914 9.0156 Q363.2773 9.625 363.2773 10.875 Z"
         style="clip-path:url(#clipPath2); stroke:none;"
         clip-path="url(#clipPath2)"
         id="path115" />
      <path
         d="M4.25 21.9375 Q3.3906 21.9375 2.9141 22.5703 Q2.4375 23.2031 2.4375 24.3594 Q2.4375 25.5156 2.9141 26.1484 Q3.3906 26.7812 4.25 26.7812 Q5.1094 26.7812 5.5859 26.1484 Q6.0625 25.5156 6.0625 24.3594 Q6.0625 23.2031 5.5859 22.5703 Q5.1094 21.9375 4.25 21.9375 ZM4.25 20.5781 Q6 20.5781 7 21.5859 Q8 22.5938 8 24.3594 Q8 26.125 7 27.1328 Q6 28.1406 4.25 28.1406 Q2.5 28.1406 1.5 27.1328 Q0.5 26.125 0.5 24.3594 Q0.5 22.5938 1.5 21.5859 Q2.5 20.5781 4.25 20.5781 ZM13.4072 24.0156 Q13.1729 23.9062 12.9463 23.8594 Q12.7197 23.8125 12.4854 23.8125 Q11.8135 23.8125 11.4541 24.2422 Q11.0947 24.6719 11.0947 25.4844 L11.0947 28 L9.3447 28 L9.3447 22.5312 L11.0947 22.5312 L11.0947 23.4219 Q11.4229 22.8906 11.8604 22.6484 Q12.2979 22.4062 12.9072 22.4062 Q13.001 22.4062 13.1025 22.4062 Q13.2041 22.4062 13.3916 22.4375 L13.4072 24.0156 ZM17.9951 27.0781 Q17.6357 27.5469 17.1982 27.7734 Q16.7607 28 16.1982 28 Q15.1982 28 14.542 27.2109 Q13.8857 26.4219 13.8857 25.2031 Q13.8857 23.9688 14.542 23.1875 Q15.1982 22.4062 16.1982 22.4062 Q16.7607 22.4062 17.1982 22.6328 Q17.6357 22.8594 17.9951 23.3438 L17.9951 22.5312 L19.7451 22.5312 L19.7451 27.4531 Q19.7451 28.7656 18.917 29.4609 Q18.0889 30.1562 16.5107 30.1562 Q15.9951 30.1562 15.5186 30.0781 Q15.042 30 14.5576 29.8438 L14.5576 28.4844 Q15.0107 28.75 15.4482 28.875 Q15.8857 29 16.3389 29 Q17.1982 29 17.5967 28.625 Q17.9951 28.25 17.9951 27.4531 L17.9951 27.0781 ZM16.8389 23.6719 Q16.292 23.6719 15.9951 24.0703 Q15.6982 24.4688 15.6982 25.2031 Q15.6982 25.9531 15.9873 26.3438 Q16.2764 26.7344 16.8389 26.7344 Q17.3857 26.7344 17.6904 26.3281 Q17.9951 25.9219 17.9951 25.2031 Q17.9951 24.4688 17.6904 24.0703 Q17.3857 23.6719 16.8389 23.6719 ZM23.8877 25.5312 Q23.3408 25.5312 23.0596 25.7188 Q22.7783 25.9062 22.7783 26.2656 Q22.7783 26.6094 23.0049 26.7969 Q23.2314 26.9844 23.6221 26.9844 Q24.1221 26.9844 24.458 26.625 Q24.7939 26.2656 24.7939 25.7344 L24.7939 25.5312 L23.8877 25.5312 ZM26.5596 24.875 L26.5596 28 L24.7939 28 L24.7939 27.1875 Q24.4346 27.6875 23.9971 27.9141 Q23.5596 28.1406 22.9346 28.1406 Q22.0752 28.1406 21.5518 27.6484 Q21.0283 27.1562 21.0283 26.3594 Q21.0283 25.3906 21.6846 24.9453 Q22.3408 24.5 23.7627 24.5 L24.7939 24.5 L24.7939 24.3594 Q24.7939 23.9531 24.4658 23.7578 Q24.1377 23.5625 23.4502 23.5625 Q22.8877 23.5625 22.4033 23.6719 Q21.9189 23.7812 21.4971 24.0156 L21.4971 22.6719 Q22.0596 22.5469 22.6299 22.4766 Q23.2002 22.4062 23.7627 22.4062 Q25.2471 22.4062 25.9033 22.9844 Q26.5596 23.5625 26.5596 24.875 ZM33.6826 24.6719 L33.6826 28 L31.917 28 L31.917 27.4531 L31.917 25.4531 Q31.917 24.75 31.8857 24.4766 Q31.8545 24.2031 31.7764 24.0781 Q31.6826 23.9062 31.5029 23.8125 Q31.3232 23.7188 31.1045 23.7188 Q30.5576 23.7188 30.2451 24.1406 Q29.9326 24.5625 29.9326 25.3125 L29.9326 28 L28.1826 28 L28.1826 22.5312 L29.9326 22.5312 L29.9326 23.3281 Q30.3232 22.8594 30.7686 22.6328 Q31.2139 22.4062 31.7451 22.4062 Q32.6982 22.4062 33.1904 22.9844 Q33.6826 23.5625 33.6826 24.6719 ZM35.3018 22.5312 L37.0518 22.5312 L37.0518 28 L35.3018 28 L35.3018 22.5312 ZM35.3018 20.4062 L37.0518 20.4062 L37.0518 21.8281 L35.3018 21.8281 L35.3018 20.4062 ZM42.9951 22.7031 L42.9951 24.0312 Q42.4326 23.7969 41.9092 23.6797 Q41.3857 23.5625 40.9326 23.5625 Q40.4326 23.5625 40.1904 23.6875 Q39.9482 23.8125 39.9482 24.0625 Q39.9482 24.2812 40.1279 24.3906 Q40.3076 24.5 40.792 24.5625 L41.0889 24.5938 Q42.4326 24.7656 42.9014 25.1562 Q43.3701 25.5469 43.3701 26.3906 Q43.3701 27.2656 42.7217 27.7031 Q42.0732 28.1406 40.792 28.1406 Q40.2607 28.1406 39.6826 28.0547 Q39.1045 27.9688 38.4795 27.7969 L38.4795 26.4688 Q39.0107 26.7188 39.5576 26.8516 Q40.1045 26.9844 40.667 26.9844 Q41.1826 26.9844 41.4404 26.8438 Q41.6982 26.7031 41.6982 26.4219 Q41.6982 26.1875 41.5264 26.0703 Q41.3545 25.9531 40.8232 25.8906 L40.5107 25.8438 Q39.3389 25.7031 38.8701 25.3047 Q38.4014 24.9062 38.4014 24.1094 Q38.4014 23.2344 38.9951 22.8203 Q39.5889 22.4062 40.8232 22.4062 Q41.3076 22.4062 41.8389 22.4766 Q42.3701 22.5469 42.9951 22.7031 ZM49.7441 23.4375 Q50.0723 22.9375 50.5332 22.6719 Q50.9941 22.4062 51.541 22.4062 Q52.4785 22.4062 52.9707 22.9844 Q53.4629 23.5625 53.4629 24.6719 L53.4629 28 L51.7129 28 L51.7129 25.1406 Q51.7129 25.0781 51.7129 25.0156 Q51.7129 24.9531 51.7129 24.8281 Q51.7129 24.2344 51.5488 23.9766 Q51.3848 23.7188 50.9941 23.7188 Q50.4941 23.7188 50.2285 24.125 Q49.9629 24.5312 49.9473 25.3125 L49.9473 28 L48.1816 28 L48.1816 25.1406 Q48.1816 24.2344 48.0254 23.9766 Q47.8691 23.7188 47.4785 23.7188 Q46.9785 23.7188 46.7051 24.1328 Q46.4316 24.5469 46.4316 25.3125 L46.4316 28 L44.666 28 L44.666 22.5312 L46.4316 22.5312 L46.4316 23.3281 Q46.7441 22.875 47.166 22.6406 Q47.5879 22.4062 48.0879 22.4062 Q48.6504 22.4062 49.0879 22.6797 Q49.5254 22.9531 49.7441 23.4375 ZM55.3828 22.5312 L57.1328 22.5312 L57.1328 24.4219 L55.3828 24.4219 L55.3828 22.5312 ZM55.3828 26.1094 L57.1328 26.1094 L57.1328 28 L55.3828 28 L55.3828 26.1094 Z"
         style="clip-path:url(#clipPath2); stroke:none;"
         clip-path="url(#clipPath2)"
         id="path117" />
      <path
         d="M66.9844 20.7031 L67.9688 20.7031 L67.9688 23.7031 L71.5469 23.7031 L71.5469 20.7031 L72.5312 20.7031 L72.5312 28 L71.5469 28 L71.5469 24.5312 L67.9688 24.5312 L67.9688 28 L66.9844 28 L66.9844 20.7031 ZM76.582 23.1562 Q75.8633 23.1562 75.4414 23.7188 Q75.0195 24.2812 75.0195 25.2656 Q75.0195 26.25 75.4336 26.8125 Q75.8477 27.375 76.582 27.375 Q77.3008 27.375 77.7227 26.8125 Q78.1445 26.25 78.1445 25.2656 Q78.1445 24.2969 77.7227 23.7266 Q77.3008 23.1562 76.582 23.1562 ZM76.582 22.4062 Q77.7539 22.4062 78.4258 23.1641 Q79.0977 23.9219 79.0977 25.2656 Q79.0977 26.6094 78.4258 27.375 Q77.7539 28.1406 76.582 28.1406 Q75.4102 28.1406 74.7383 27.375 Q74.0664 26.6094 74.0664 25.2656 Q74.0664 23.9219 74.7383 23.1641 Q75.4102 22.4062 76.582 22.4062 ZM84.8408 23.5781 Q85.1689 22.9688 85.6377 22.6875 Q86.1064 22.4062 86.7471 22.4062 Q87.6064 22.4062 88.0674 23 Q88.5283 23.5938 88.5283 24.7031 L88.5283 28 L87.6221 28 L87.6221 24.7344 Q87.6221 23.9375 87.3486 23.5625 Q87.0752 23.1875 86.4971 23.1875 Q85.7939 23.1875 85.3955 23.6484 Q84.9971 24.1094 84.9971 24.9062 L84.9971 28 L84.0908 28 L84.0908 24.7344 Q84.0908 23.9375 83.8096 23.5625 Q83.5283 23.1875 82.9502 23.1875 Q82.2627 23.1875 81.8564 23.6484 Q81.4502 24.1094 81.4502 24.9062 L81.4502 28 L80.5439 28 L80.5439 22.5312 L81.4502 22.5312 L81.4502 23.375 Q81.7627 22.875 82.1924 22.6406 Q82.6221 22.4062 83.2002 22.4062 Q83.8096 22.4062 84.2236 22.7031 Q84.6377 23 84.8408 23.5781 ZM92.4414 23.1562 Q91.7227 23.1562 91.3008 23.7188 Q90.8789 24.2812 90.8789 25.2656 Q90.8789 26.25 91.293 26.8125 Q91.707 27.375 92.4414 27.375 Q93.1602 27.375 93.582 26.8125 Q94.0039 26.25 94.0039 25.2656 Q94.0039 24.2969 93.582 23.7266 Q93.1602 23.1562 92.4414 23.1562 ZM92.4414 22.4062 Q93.6133 22.4062 94.2852 23.1641 Q94.957 23.9219 94.957 25.2656 Q94.957 26.6094 94.2852 27.375 Q93.6133 28.1406 92.4414 28.1406 Q91.2695 28.1406 90.5977 27.375 Q89.9258 26.6094 89.9258 25.2656 Q89.9258 23.9219 90.5977 23.1641 Q91.2695 22.4062 92.4414 22.4062 ZM103.0977 22.6875 L103.0977 23.5469 Q102.7227 23.3438 102.3164 23.25 Q101.9102 23.1562 101.457 23.1562 Q100.8008 23.1562 100.4648 23.3594 Q100.1289 23.5625 100.1289 23.9688 Q100.1289 24.2812 100.3633 24.4609 Q100.5977 24.6406 101.332 24.7969 L101.6289 24.875 Q102.5977 25.0781 102.9961 25.4531 Q103.3945 25.8281 103.3945 26.4844 Q103.3945 27.25 102.793 27.6953 Q102.1914 28.1406 101.1445 28.1406 Q100.6914 28.1406 100.2148 28.0547 Q99.7383 27.9688 99.2227 27.7969 L99.2227 26.875 Q99.7227 27.125 100.1992 27.2578 Q100.6758 27.3906 101.1602 27.3906 Q101.7852 27.3906 102.1289 27.1719 Q102.4727 26.9531 102.4727 26.5625 Q102.4727 26.1875 102.2305 25.9922 Q101.9883 25.7969 101.1445 25.625 L100.832 25.5469 Q100.0039 25.375 99.6289 25.0078 Q99.2539 24.6406 99.2539 24.0156 Q99.2539 23.2344 99.8008 22.8203 Q100.3477 22.4062 101.3633 22.4062 Q101.8477 22.4062 102.293 22.4766 Q102.7383 22.5469 103.0977 22.6875 ZM107.3076 25.25 Q106.2295 25.25 105.8076 25.5 Q105.3857 25.75 105.3857 26.3438 Q105.3857 26.8281 105.6982 27.1094 Q106.0107 27.3906 106.5576 27.3906 Q107.3076 27.3906 107.7607 26.8594 Q108.2139 26.3281 108.2139 25.4531 L108.2139 25.25 L107.3076 25.25 ZM109.1045 24.875 L109.1045 28 L108.2139 28 L108.2139 27.1719 Q107.9014 27.6719 107.4404 27.9062 Q106.9795 28.1406 106.3232 28.1406 Q105.4795 28.1406 104.9795 27.6719 Q104.4795 27.2031 104.4795 26.4062 Q104.4795 25.4844 105.1045 25.0156 Q105.7295 24.5469 106.9482 24.5469 L108.2139 24.5469 L108.2139 24.4531 Q108.2139 23.8438 107.7998 23.5 Q107.3857 23.1562 106.6514 23.1562 Q106.1826 23.1562 105.7373 23.2734 Q105.292 23.3906 104.8857 23.6094 L104.8857 22.7812 Q105.3857 22.5938 105.8467 22.5 Q106.3076 22.4062 106.7451 22.4062 Q107.9326 22.4062 108.5186 23.0156 Q109.1045 23.625 109.1045 24.875 ZM111.8262 27.1719 L111.8262 30.0781 L110.9199 30.0781 L110.9199 22.5312 L111.8262 22.5312 L111.8262 23.3594 Q112.1074 22.875 112.5371 22.6406 Q112.9668 22.4062 113.5762 22.4062 Q114.5762 22.4062 115.1934 23.1953 Q115.8105 23.9844 115.8105 25.2656 Q115.8105 26.5625 115.1934 27.3516 Q114.5762 28.1406 113.5762 28.1406 Q112.9668 28.1406 112.5371 27.9062 Q112.1074 27.6719 111.8262 27.1719 ZM114.8887 25.2656 Q114.8887 24.2812 114.4746 23.7188 Q114.0605 23.1562 113.3574 23.1562 Q112.6387 23.1562 112.2324 23.7188 Q111.8262 24.2812 111.8262 25.2656 Q111.8262 26.2656 112.2324 26.8281 Q112.6387 27.3906 113.3574 27.3906 Q114.0605 27.3906 114.4746 26.8281 Q114.8887 26.2656 114.8887 25.2656 ZM117.2988 22.5312 L118.2051 22.5312 L118.2051 28 L117.2988 28 L117.2988 22.5312 ZM117.2988 20.4062 L118.2051 20.4062 L118.2051 21.5469 L117.2988 21.5469 L117.2988 20.4062 ZM124.7646 25.0469 L124.7646 25.4844 L120.624 25.4844 Q120.6865 26.4062 121.1865 26.8906 Q121.6865 27.375 122.5771 27.375 Q123.0928 27.375 123.585 27.25 Q124.0771 27.125 124.5459 26.875 L124.5459 27.7188 Q124.0615 27.9219 123.5537 28.0312 Q123.0459 28.1406 122.5303 28.1406 Q121.2178 28.1406 120.4521 27.3828 Q119.6865 26.625 119.6865 25.3125 Q119.6865 23.9688 120.4131 23.1875 Q121.1396 22.4062 122.374 22.4062 Q123.4834 22.4062 124.124 23.1094 Q124.7646 23.8125 124.7646 25.0469 ZM123.8584 24.7812 Q123.8584 24.0469 123.4521 23.6016 Q123.0459 23.1562 122.3896 23.1562 Q121.624 23.1562 121.1787 23.5859 Q120.7334 24.0156 120.6553 24.7812 L123.8584 24.7812 ZM130.7764 24.7031 L130.7764 28 L129.8857 28 L129.8857 24.7344 Q129.8857 23.9531 129.5811 23.5703 Q129.2764 23.1875 128.667 23.1875 Q127.9482 23.1875 127.5264 23.6484 Q127.1045 24.1094 127.1045 24.9062 L127.1045 28 L126.1982 28 L126.1982 22.5312 L127.1045 22.5312 L127.1045 23.375 Q127.4326 22.8906 127.8701 22.6484 Q128.3076 22.4062 128.8701 22.4062 Q129.8076 22.4062 130.292 22.9844 Q130.7764 23.5625 130.7764 24.7031 ZM136.0518 22.6875 L136.0518 23.5469 Q135.6768 23.3438 135.2705 23.25 Q134.8643 23.1562 134.4111 23.1562 Q133.7549 23.1562 133.4189 23.3594 Q133.083 23.5625 133.083 23.9688 Q133.083 24.2812 133.3174 24.4609 Q133.5518 24.6406 134.2861 24.7969 L134.583 24.875 Q135.5518 25.0781 135.9502 25.4531 Q136.3486 25.8281 136.3486 26.4844 Q136.3486 27.25 135.7471 27.6953 Q135.1455 28.1406 134.0986 28.1406 Q133.6455 28.1406 133.1689 28.0547 Q132.6924 27.9688 132.1768 27.7969 L132.1768 26.875 Q132.6768 27.125 133.1533 27.2578 Q133.6299 27.3906 134.1143 27.3906 Q134.7393 27.3906 135.083 27.1719 Q135.4268 26.9531 135.4268 26.5625 Q135.4268 26.1875 135.1846 25.9922 Q134.9424 25.7969 134.0986 25.625 L133.7861 25.5469 Q132.958 25.375 132.583 25.0078 Q132.208 24.6406 132.208 24.0156 Q132.208 23.2344 132.7549 22.8203 Q133.3018 22.4062 134.3174 22.4062 Q134.8018 22.4062 135.2471 22.4766 Q135.6924 22.5469 136.0518 22.6875 Z"
         style="clip-path:url(#clipPath2); stroke:none;"
         clip-path="url(#clipPath2)"
         id="path119" />
    </g>
    <g
       style="fill:navy; text-rendering:geometricPrecision; font-size:8; stroke:navy;"
       id="g125">
      <text
         x="369"
         xml:space="preserve"
         y="16"
         style="clip-path:url(#clipPath4); stroke:none;"
         clip-path="url(#clipPath4)"
         id="text123">1</text>
    </g>
    <g
       style="fill:rgb(255,0,102); text-rendering:geometricPrecision; stroke:rgb(255,0,102);"
       id="g133">
      <path
         d="M219 152.5 L219.4417 205.5002"
         style="fill:none; clip-path:url(#clipPath5);"
         clip-path="url(#clipPath5)"
         id="path127" />
      <path
         d="M228.5414 205.4244 L228.5522 206.7244 L209.0529 206.8869 L209.042 205.5869 L228.5414 205.4244 Z"
         style="fill:white; clip-path:url(#clipPath5); stroke:none;"
         clip-path="url(#clipPath5)"
         id="path129" />
      <path
         d="M228.5414 205.4244 L228.5522 206.7244 L209.0529 206.8869 L209.042 205.5869 L228.5414 205.4244 Z"
         style="fill:none; clip-path:url(#clipPath5);"
         clip-path="url(#clipPath5)"
         id="path131" />
    </g>
    <g
       style="text-rendering:geometricPrecision;"
       id="g139">
      <path
         d="M378 246 L439 246"
         style="fill:none; clip-path:url(#clipPath6);"
         clip-path="url(#clipPath6)"
         id="path135" />
      <path
         d="M439 246 L427.3 240.8 L427.3 251.2 Z"
         style="clip-path:url(#clipPath6); fill-rule:evenodd; stroke:none;"
         clip-path="url(#clipPath6)"
         id="path137" />
    </g>
    <g
       style="fill:rgb(255,0,102); text-rendering:geometricPrecision; stroke:rgb(255,0,102);"
       id="g147">
      <path
         d="M361 152.5 L361.2284 226.5"
         style="fill:none; clip-path:url(#clipPath7);"
         clip-path="url(#clipPath7)"
         id="path141" />
      <path
         d="M370.3283 226.472 L370.3324 227.7719 L350.8325 227.8321 L350.8284 226.5321 L370.3283 226.472 Z"
         style="fill:white; clip-path:url(#clipPath7); stroke:none;"
         clip-path="url(#clipPath7)"
         id="path143" />
      <path
         d="M370.3283 226.472 L370.3324 227.7719 L350.8325 227.8321 L350.8284 226.5321 L370.3283 226.472 Z"
         style="fill:none; clip-path:url(#clipPath7);"
         clip-path="url(#clipPath7)"
         id="path145" />
    </g>
    <g
       style="text-rendering:geometricPrecision;"
       id="g153">
      <path
         d="M344.5 233.5 L344.5 189 M344.5 189 L240.25 189 M240.25 189 L240.25 212.5"
         style="fill:none; clip-path:url(#clipPath8);"
         clip-path="url(#clipPath8)"
         id="path149" />
      <path
         d="M240.25 212.5 L245.45 200.8 L235.05 200.8 Z"
         style="clip-path:url(#clipPath8); fill-rule:evenodd; stroke:none;"
         clip-path="url(#clipPath8)"
         id="path151" />
    </g>
    <g
       style="text-rendering:geometricPrecision;"
       id="g161">
      <path
         d="M261 245.5 L304.0003 245.93"
         style="fill:none; clip-path:url(#clipPath9);"
         clip-path="url(#clipPath9)"
         id="path155" />
      <path
         d="M304.0913 236.8305 L305.3913 236.8435 L305.1963 256.3425 L303.8964 256.3295 L304.0913 236.8305 Z"
         style="fill:white; clip-path:url(#clipPath9); stroke:none;"
         clip-path="url(#clipPath9)"
         id="path157" />
      <path
         d="M304.0913 236.8305 L305.3913 236.8435 L305.1963 256.3425 L303.8964 256.3295 L304.0913 236.8305 Z"
         style="fill:none; clip-path:url(#clipPath9);"
         clip-path="url(#clipPath9)"
         id="path159" />
    </g>
    <g
       style="text-rendering:geometricPrecision;"
       id="g169">
      <path
         d="M198.75 278.5 L198.5302 329.5001"
         style="fill:none; clip-path:url(#clipPath10);"
         clip-path="url(#clipPath10)"
         id="path163" />
      <path
         d="M207.6301 329.5393 L207.6245 330.8393 L188.1247 330.7552 L188.1303 329.4552 L207.6301 329.5393 Z"
         style="fill:white; clip-path:url(#clipPath10); stroke:none;"
         clip-path="url(#clipPath10)"
         id="path165" />
      <path
         d="M207.6301 329.5393 L207.6245 330.8393 L188.1247 330.7552 L188.1303 329.4552 L207.6301 329.5393 Z"
         style="fill:none; clip-path:url(#clipPath10);"
         clip-path="url(#clipPath10)"
         id="path167" />
    </g>
    <g
       style="text-rendering:geometricPrecision;"
       id="g177">
      <path
         d="M480.5 291.5 L480.5 330.5"
         style="fill:none; clip-path:url(#clipPath11);"
         clip-path="url(#clipPath11)"
         id="path171" />
      <path
         d="M489.6 330.5 L489.6 331.8 L470.1 331.8 L470.1 330.5 L489.6 330.5 Z"
         style="fill:white; clip-path:url(#clipPath11); stroke:none;"
         clip-path="url(#clipPath11)"
         id="path173" />
      <path
         d="M489.6 330.5 L489.6 331.8 L470.1 331.8 L470.1 330.5 L489.6 330.5 Z"
         style="fill:none; clip-path:url(#clipPath11);"
         clip-path="url(#clipPath11)"
         id="path175" />
    </g>
    <g
       style="fill:rgb(255,0,102); text-rendering:geometricPrecision; stroke:rgb(255,0,102);"
       id="g185">
      <path
         d="M480.5 152.5 L480.5 193.5"
         style="fill:none; clip-path:url(#clipPath12);"
         clip-path="url(#clipPath12)"
         id="path179" />
      <path
         d="M489.6 193.5 L489.6 194.8 L470.1 194.8 L470.1 193.5 L489.6 193.5 Z"
         style="fill:white; clip-path:url(#clipPath12); stroke:none;"
         clip-path="url(#clipPath12)"
         id="path181" />
      <path
         d="M489.6 193.5 L489.6 194.8 L470.1 194.8 L470.1 193.5 L489.6 193.5 Z"
         style="fill:none; clip-path:url(#clipPath12);"
         clip-path="url(#clipPath12)"
         id="path183" />
    </g>
    <g
       style="fill:navy; text-rendering:geometricPrecision; font-size:8; stroke:navy;"
       id="g189">
      <text
         x="472"
         xml:space="preserve"
         y="183"
         style="clip-path:url(#clipPath14); stroke:none;"
         clip-path="url(#clipPath14)"
         id="text187">3</text>
    </g>
    <g
       style="fill:navy; text-rendering:geometricPrecision; font-size:8; stroke:navy;"
       id="g193">
      <text
         x="211"
         xml:space="preserve"
         y="191"
         style="clip-path:url(#clipPath16); stroke:none;"
         clip-path="url(#clipPath16)"
         id="text191">2</text>
    </g>
    <g
       style="fill:silver; text-rendering:geometricPrecision; stroke:silver;"
       id="g197">
      <path
         d="M643 243.5 L643 243.5 L643 243.5 L644.5 243.5 L644.5 245 C644.5 354.5955 506.8224 440.5 341.5 440.5 L340 440.5 L340 439 L340 436 L341.5 436 L343 436 L343 439 L343 440.5 L341.5 440.5 C176.1774 440.5 38.5 354.5956 38.5 245 L38.5 243.5 L40 243.5 L43 243.5 L43 245 L43 246.5 L40 246.5 L38.5 246.5 L38.5 245 C38.5 135.4044 176.1774 49.5 341.5 49.5 L343 49.5 L343 51 L343 54 L341.5 54 L340 54 L340 51 L340 49.5 L341.5 49.5 C506.8224 49.5 644.5 135.4044 644.5 245 L644.5 246.5 L643 246.5 L640 246.5 L640 245 L640 243.5 L643 243.5 L644.5 243.5 L644.5 246.5 L643 246.5 L640 246.5 L640 243.5 L643 243.5 L643 245 L641.5 245 C641.5 138.1456 506.5148 52.5 341.5 52.5 L341.5 51 L343 51 L343 54 L340 54 L340 51 L341.5 51 L341.5 52.5 C176.485 52.5 41.5 138.1457 41.5 245 L40 245 L40 243.5 L43 243.5 L43 246.5 L40 246.5 L40 245 L41.5 245 C41.5 351.8543 176.485 437.5 341.5 437.5 L341.5 439 L340 439 L340 436 L343 436 L343 439 L341.5 439 L341.5 437.5 C506.5148 437.5 641.5 351.8543 641.5 245 L643 245 L643 246.5 L643 246.5 L641.5 246.5 L641.5 243.5 ZM637 243.5 L637 243.5 L637 243.5 L637 245 L635.5 245 C635.5 143.6201 505.8872 58.5 341.5 58.5 L341.5 57 L341.5 55.5 L341.5 55.5 L341.5 57 L341.5 58.5 C177.1127 58.5 47.5 143.6201 47.5 245 L46 245 L46 243.5 L46 243.5 L47.5 243.5 L47.5 245 C47.5 346.38 177.1127 431.5 341.5 431.5 L341.5 433 L341.5 431.5 L341.5 431.5 L341.5 433 L341.5 431.5 C505.8872 431.5 635.5 346.38 635.5 245 L635.5 243.5 L637 243.5 M637 246.5 L637 245 L638.5 245 C638.5 349.1158 506.2033 434.5 341.5 434.5 L341.5 434.5 L341.5 434.5 L341.5 434.5 C176.7967 434.5 44.5 349.1158 44.5 245 L46 245 L46 246.5 L46 246.5 L44.5 246.5 L44.5 245 C44.5 140.8843 176.7967 55.5 341.5 55.5 L341.5 58.5 L341.5 58.5 L341.5 55.5 C506.2033 55.5 638.5 140.8843 638.5 245 L638.5 246.5 L637 246.5 L637 246.5 Z"
         style="clip-path:url(#clipPath17); stroke:none;"
         clip-path="url(#clipPath17)"
         id="path195" />
    </g>
    <g
       style="fill:silver; text-rendering:geometricPrecision; stroke:silver;"
       id="g201">
      <text
         x="325"
         xml:space="preserve"
         y="428"
         style="clip-path:url(#clipPath17); stroke:none;"
         clip-path="url(#clipPath17)"
         id="text199">B cell</text>
    </g>
    <g
       style="text-rendering:geometricPrecision;"
       id="g207">
      <path
         d="M576 15 L811 15 L811 85 L576 85 L576 15 Z"
         style="fill:none; clip-path:url(#clipPath18);"
         clip-path="url(#clipPath18)"
         id="path203" />
      <text
         x="581"
         y="32"
         style="font-weight:bold; clip-path:url(#clipPath18); stroke:none;"
         xml:space="preserve"
         clip-path="url(#clipPath18)"
         id="text205">Legend</text>
    </g>
    <g
       style="font-weight:bold; text-rendering:geometricPrecision;"
       id="g211">
      <text
         x="338"
         xml:space="preserve"
         y="144"
         style="clip-path:url(#clipPath19); stroke:none;"
         clip-path="url(#clipPath19)"
         id="text209">del17p</text>
    </g>
    <g
       style="font-weight:bold; text-rendering:geometricPrecision;"
       id="g215">
      <text
         x="630"
         xml:space="preserve"
         y="59"
         style="clip-path:url(#clipPath20); stroke:none;"
         clip-path="url(#clipPath20)"
         id="text213">Effect of deletion/mutation</text>
    </g>
    <g
       style="font-weight:bold; text-rendering:geometricPrecision;"
       id="g219">
      <text
         x="180"
         xml:space="preserve"
         y="120"
         style="clip-path:url(#clipPath21); stroke:none;"
         clip-path="url(#clipPath21)"
         id="text217">Indolent CLL</text>
    </g>
    <g
       style="fill:white; text-rendering:geometricPrecision; stroke:white;"
       id="g227">
      <path
         d="M447 337.5 L514 337.5 L514 362.5 L447 362.5 L447 337.5 Z"
         style="clip-path:url(#clipPath22); stroke:none;"
         clip-path="url(#clipPath22)"
         id="path221" />
      <path
         d="M447 337.5 L514 337.5 L514 362.5 L447 362.5 L447 337.5 Z"
         style="fill:none; clip-path:url(#clipPath22); stroke:black;"
         clip-path="url(#clipPath22)"
         id="path223" />
      <text
         x="461"
         y="354"
         style="fill:black; clip-path:url(#clipPath22); stroke:none;"
         xml:space="preserve"
         clip-path="url(#clipPath22)"
         id="text225">ZAP70</text>
    </g>
    <g
       style="fill:white; text-rendering:geometricPrecision; stroke:white;"
       id="g235">
      <path
         d="M174 336.5 L223 336.5 L223 361.5 L174 361.5 L174 336.5 Z"
         style="clip-path:url(#clipPath23); stroke:none;"
         clip-path="url(#clipPath23)"
         id="path229" />
      <path
         d="M174 336.5 L223 336.5 L223 361.5 L174 361.5 L174 336.5 Z"
         style="fill:none; clip-path:url(#clipPath23); stroke:black;"
         clip-path="url(#clipPath23)"
         id="path231" />
      <text
         x="183"
         y="353"
         style="fill:black; clip-path:url(#clipPath23); stroke:none;"
         xml:space="preserve"
         clip-path="url(#clipPath23)"
         id="text233">BCL2</text>
    </g>
    <g
       style="fill:white; text-rendering:geometricPrecision; stroke:white;"
       id="g243">
      <path
         d="M311 233.5 L378 233.5 L378 258.5 L311 258.5 L311 233.5 Z"
         style="clip-path:url(#clipPath24); stroke:none;"
         clip-path="url(#clipPath24)"
         id="path237" />
      <path
         d="M311 233.5 L378 233.5 L378 258.5 L311 258.5 L311 233.5 Z"
         style="fill:none; clip-path:url(#clipPath24); stroke:black;"
         clip-path="url(#clipPath24)"
         id="path239" />
      <text
         x="330"
         y="250"
         style="fill:black; clip-path:url(#clipPath24); stroke:none;"
         xml:space="preserve"
         clip-path="url(#clipPath24)"
         id="text241">TP53</text>
    </g>
    <g
       style="fill:white; text-rendering:geometricPrecision; stroke:white;"
       id="g251">
      <path
         d="M447 208.5 L514 208.5 L514 233.5 L447 233.5 L447 208.5 Z"
         style="clip-path:url(#clipPath25); stroke:none;"
         clip-path="url(#clipPath25)"
         id="path245" />
      <path
         d="M447 208.5 L514 208.5 L514 233.5 L447 233.5 L447 208.5 Z"
         style="fill:none; clip-path:url(#clipPath25); stroke:rgb(153,0,153);"
         clip-path="url(#clipPath25)"
         id="path247" />
      <text
         x="458"
         y="225"
         style="fill:rgb(153,0,153); clip-path:url(#clipPath25); stroke:none;"
         xml:space="preserve"
         clip-path="url(#clipPath25)"
         id="text249">MIR34A</text>
    </g>
    <g
       style="fill:white; text-rendering:geometricPrecision; stroke:white;"
       id="g259">
      <path
         d="M447 233.5 L514 233.5 L514 258.5 L447 258.5 L447 233.5 Z"
         style="clip-path:url(#clipPath26); stroke:none;"
         clip-path="url(#clipPath26)"
         id="path253" />
      <path
         d="M447 233.5 L514 233.5 L514 258.5 L447 258.5 L447 233.5 Z"
         style="fill:none; clip-path:url(#clipPath26); stroke:rgb(153,0,153);"
         clip-path="url(#clipPath26)"
         id="path255" />
      <text
         x="458"
         y="250"
         style="fill:rgb(153,0,153); clip-path:url(#clipPath26); stroke:none;"
         xml:space="preserve"
         clip-path="url(#clipPath26)"
         id="text257">MIR34B</text>
    </g>
    <g
       style="fill:white; text-rendering:geometricPrecision; stroke:white;"
       id="g267">
      <path
         d="M447 258.5 L514 258.5 L514 283.5 L447 283.5 L447 258.5 Z"
         style="clip-path:url(#clipPath27); stroke:none;"
         clip-path="url(#clipPath27)"
         id="path261" />
      <path
         d="M447 258.5 L514 258.5 L514 283.5 L447 283.5 L447 258.5 Z"
         style="fill:none; clip-path:url(#clipPath27); stroke:rgb(153,0,153);"
         clip-path="url(#clipPath27)"
         id="path263" />
      <text
         x="458"
         y="275"
         style="fill:rgb(153,0,153); clip-path:url(#clipPath27); stroke:none;"
         xml:space="preserve"
         clip-path="url(#clipPath27)"
         id="text265">MIR34C</text>
    </g>
    <g
       style="fill:white; text-rendering:geometricPrecision; stroke:white;"
       id="g275">
      <path
         d="M186 220.5 L253 220.5 L253 245.5 L186 245.5 L186 220.5 Z"
         style="clip-path:url(#clipPath28); stroke:none;"
         clip-path="url(#clipPath28)"
         id="path269" />
      <path
         d="M186 220.5 L253 220.5 L253 245.5 L186 245.5 L186 220.5 Z"
         style="fill:none; clip-path:url(#clipPath28); stroke:rgb(153,0,153);"
         clip-path="url(#clipPath28)"
         id="path271" />
      <text
         x="197"
         y="237"
         style="fill:rgb(153,0,153); clip-path:url(#clipPath28); stroke:none;"
         xml:space="preserve"
         clip-path="url(#clipPath28)"
         id="text273">MIR15A</text>
    </g>
    <g
       style="fill:white; text-rendering:geometricPrecision; stroke:white;"
       id="g283">
      <path
         d="M186 245.5 L253 245.5 L253 270.5 L186 270.5 L186 245.5 Z"
         style="clip-path:url(#clipPath29); stroke:none;"
         clip-path="url(#clipPath29)"
         id="path277" />
      <path
         d="M186 245.5 L253 245.5 L253 270.5 L186 270.5 L186 245.5 Z"
         style="fill:none; clip-path:url(#clipPath29); stroke:rgb(153,0,153);"
         clip-path="url(#clipPath29)"
         id="path279" />
      <text
         x="195"
         y="262"
         style="fill:rgb(153,0,153); clip-path:url(#clipPath29); stroke:none;"
         xml:space="preserve"
         clip-path="url(#clipPath29)"
         id="text281">MIR16-1</text>
    </g>
    <g
       style="font-weight:bold; text-rendering:geometricPrecision;"
       id="g287">
      <text
         x="457"
         xml:space="preserve"
         y="144"
         style="clip-path:url(#clipPath30); stroke:none;"
         clip-path="url(#clipPath30)"
         id="text285">del11q</text>
    </g>
    <g
       style="font-weight:bold; text-rendering:geometricPrecision;"
       id="g291">
      <text
         x="196"
         xml:space="preserve"
         y="144"
         style="clip-path:url(#clipPath31); stroke:none;"
         clip-path="url(#clipPath31)"
         id="text289">del13q</text>
    </g>
    <g
       style="fill:white; text-rendering:geometricPrecision; stroke:white;"
       id="g299">
      <path
         d="M217 369.5 L263 369.5 L263 394.5 L217 394.5 L217 369.5 Z"
         style="clip-path:url(#clipPath32); stroke:none;"
         clip-path="url(#clipPath32)"
         id="path293" />
      <path
         d="M217 369.5 L263 369.5 L263 394.5 L217 394.5 L217 369.5 Z"
         style="fill:none; clip-path:url(#clipPath32); stroke:black;"
         clip-path="url(#clipPath32)"
         id="path295" />
      <text
         x="224"
         y="386"
         style="fill:black; clip-path:url(#clipPath32); stroke:none;"
         xml:space="preserve"
         clip-path="url(#clipPath32)"
         id="text297">MCL1</text>
    </g>
    <g
       style="text-rendering:geometricPrecision;"
       id="g307">
      <path
         d="M240.25 278.5 L240.0192 362.5"
         style="fill:none; clip-path:url(#clipPath33);"
         clip-path="url(#clipPath33)"
         id="path301" />
      <path
         d="M249.1192 362.525 L249.1156 363.825 L229.6157 363.7715 L229.6193 362.4715 L249.1192 362.525 Z"
         style="fill:white; clip-path:url(#clipPath33); stroke:none;"
         clip-path="url(#clipPath33)"
         id="path303" />
      <path
         d="M249.1192 362.525 L249.1156 363.825 L229.6157 363.7715 L229.6193 362.4715 L249.1192 362.525 Z"
         style="fill:none; clip-path:url(#clipPath33);"
         clip-path="url(#clipPath33)"
         id="path305" />
    </g>
    <g
       style="font-weight:bold; text-rendering:geometricPrecision;"
       id="g311">
      <text
         x="368"
         xml:space="preserve"
         y="120"
         style="clip-path:url(#clipPath34); stroke:none;"
         clip-path="url(#clipPath34)"
         id="text309">Aggressive CLL</text>
    </g>
    <g
       style="fill:rgb(255,0,102); text-rendering:geometricPrecision; stroke:rgb(255,0,102);"
       id="g315">
      <path
         d="M590 54 L637 54.75"
         style="fill:none; clip-path:url(#clipPath35);"
         clip-path="url(#clipPath35)"
         id="path313" />
    </g>
  </g>
</svg>
