<?xml version="1.0" encoding="UTF-8" standalone="no"?>
<svg
   style="fill-opacity:1; color-rendering:auto; color-interpolation:auto; stroke:black; text-rendering:auto; stroke-linecap:square; stroke-miterlimit:10; stroke-opacity:1; shape-rendering:auto; fill:black; stroke-dasharray:none; font-weight:normal; stroke-width:1; font-family:'Dialog'; font-style:normal; stroke-linejoin:miter; font-size:12; stroke-dashoffset:0; image-rendering:auto;"
   width="1179"
   height="883"
   version="1.1"
   id="svg685"
   xmlns="http://www.w3.org/2000/svg"
   xmlns:svg="http://www.w3.org/2000/svg">
  <!--Generated by the Batik Graphics2D SVG Generator-->
  <defs
     id="genericDefs" />
  <g
     id="g683">
    <defs
       id="defs1">
      <clipPath
         clipPathUnits="userSpaceOnUse"
         id="clipPath1">
        <path
           d="M0 0 L1189 0 L1189 893 L0 893 L0 0 Z"
           id="path3" />
      </clipPath>
      <clipPath
         clipPathUnits="userSpaceOnUse"
         id="clipPath2">
        <path
           d="M0 0 L0 200 L200 200 L200 0 Z"
           id="path6" />
      </clipPath>
      <clipPath
         clipPathUnits="userSpaceOnUse"
         id="clipPath3">
        <path
           d="M949 679.6667 L949 700.6667 L1005 700.6667 L1005 679.6667 Z"
           id="path9" />
      </clipPath>
      <clipPath
         clipPathUnits="userSpaceOnUse"
         id="clipPath4">
        <path
           d="M953.6445 667.5847 L1000.3555 667.5847 L1000.3555 682.8972 L953.6445 682.8972 L953.6445 667.5847 Z"
           id="path12" />
      </clipPath>
      <clipPath
         clipPathUnits="userSpaceOnUse"
         id="clipPath5">
        <path
           d="M472 308.5 L472 329.5 L483 329.5 L483 308.5 Z"
           id="path15" />
      </clipPath>
      <clipPath
         clipPathUnits="userSpaceOnUse"
         id="clipPath6">
        <path
           d="M471.4551 296.418 L482.5449 296.418 L482.5449 311.7305 L471.4551 311.7305 L471.4551 296.418 Z"
           id="path18" />
      </clipPath>
      <clipPath
         clipPathUnits="userSpaceOnUse"
         id="clipPath7">
        <path
           d="M520 501.75 L520 522.75 L571 522.75 L571 501.75 Z"
           id="path21" />
      </clipPath>
      <clipPath
         clipPathUnits="userSpaceOnUse"
         id="clipPath8">
        <path
           d="M524.1895 489.668 L565.8105 489.668 L565.8105 504.9805 L524.1895 504.9805 L524.1895 489.668 Z"
           id="path24" />
      </clipPath>
      <clipPath
         clipPathUnits="userSpaceOnUse"
         id="clipPath9">
        <path
           d="M252.4855 497.3546 L252.4855 509.2882 L413.7294 509.2882 L413.7294 497.3546 Z"
           id="path27" />
      </clipPath>
      <clipPath
         clipPathUnits="userSpaceOnUse"
         id="clipPath10">
        <path
           d="M339.76 499.22 L339.76 520.22 L375.76 520.22 L375.76 499.22 Z"
           id="path30" />
      </clipPath>
      <clipPath
         clipPathUnits="userSpaceOnUse"
         id="clipPath11">
        <path
           d="M342.0374 487.138 L373.4827 487.138 L373.4827 502.4505 L342.0374 502.4505 L342.0374 487.138 Z"
           id="path33" />
      </clipPath>
      <clipPath
         clipPathUnits="userSpaceOnUse"
         id="clipPath12">
        <path
           d="M162.5 477 L162.5 521 L253.5 521 L253.5 477 Z"
           id="path36" />
      </clipPath>
      <clipPath
         clipPathUnits="userSpaceOnUse"
         id="clipPath13">
        <path
           d="M245 474.5 L245 495.5 L261 495.5 L261 474.5 Z"
           id="path39" />
      </clipPath>
      <clipPath
         clipPathUnits="userSpaceOnUse"
         id="clipPath14">
        <path
           d="M244.9102 462.418 L261.0898 462.418 L261.0898 477.7305 L244.9102 477.7305 L244.9102 462.418 Z"
           id="path42" />
      </clipPath>
      <clipPath
         clipPathUnits="userSpaceOnUse"
         id="clipPath15">
        <path
           d="M817.5 801 L817.5 827 L908.5 827 L908.5 801 Z"
           id="path45" />
      </clipPath>
      <clipPath
         clipPathUnits="userSpaceOnUse"
         id="clipPath16">
        <path
           d="M1049.5 817 L1049.5 843 L1140.5 843 L1140.5 817 Z"
           id="path48" />
      </clipPath>
      <clipPath
         clipPathUnits="userSpaceOnUse"
         id="clipPath17">
        <path
           d="M351.5 728 L351.5 772 L442.5 772 L442.5 728 Z"
           id="path51" />
      </clipPath>
      <clipPath
         clipPathUnits="userSpaceOnUse"
         id="clipPath18">
        <path
           d="M809.5087 331.3261 L809.5087 363.3069 L870.6738 363.3069 L870.6738 331.3261 Z"
           id="path54" />
      </clipPath>
      <clipPath
         clipPathUnits="userSpaceOnUse"
         id="clipPath19">
        <path
           d="M726.1151 372.6772 L726.1151 384.4758 L768.5706 384.4758 L768.5706 372.6772 Z"
           id="path57" />
      </clipPath>
      <clipPath
         clipPathUnits="userSpaceOnUse"
         id="clipPath20">
        <path
           d="M810.1 349.65 L810.1 370.65 L841.1 370.65 L841.1 349.65 Z"
           id="path60" />
      </clipPath>
      <clipPath
         clipPathUnits="userSpaceOnUse"
         id="clipPath21">
        <path
           d="M811.9222 337.568 L838.2777 337.568 L838.2777 352.8805 L811.9222 352.8805 L811.9222 337.568 Z"
           id="path63" />
      </clipPath>
      <clipPath
         clipPathUnits="userSpaceOnUse"
         id="clipPath22">
        <path
           d="M718.4 375.8875 L718.4 396.8875 L754.4 396.8875 L754.4 375.8875 Z"
           id="path66" />
      </clipPath>
      <clipPath
         clipPathUnits="userSpaceOnUse"
         id="clipPath23">
        <path
           d="M720.6774 363.8055 L752.1227 363.8055 L752.1227 379.118 L720.6774 379.118 L720.6774 363.8055 Z"
           id="path69" />
      </clipPath>
      <clipPath
         clipPathUnits="userSpaceOnUse"
         id="clipPath24">
        <path
           d="M392.1123 605.9481 L392.1123 680.4072 L405.302 680.4072 L405.302 605.9481 Z"
           id="path72" />
      </clipPath>
      <clipPath
         clipPathUnits="userSpaceOnUse"
         id="clipPath25">
        <path
           d="M392.8972 347.2943 L392.8972 402.446 L441.7057 402.446 L441.7057 347.2943 Z"
           id="path75" />
      </clipPath>
      <clipPath
         clipPathUnits="userSpaceOnUse"
         id="clipPath26">
        <path
           d="M366.325 652.5 L366.325 673.5 L422.325 673.5 L422.325 652.5 Z"
           id="path78" />
      </clipPath>
      <clipPath
         clipPathUnits="userSpaceOnUse"
         id="clipPath27">
        <path
           d="M370.9695 640.418 L417.6805 640.418 L417.6805 655.7305 L370.9695 655.7305 L370.9695 640.418 Z"
           id="path81" />
      </clipPath>
      <clipPath
         clipPathUnits="userSpaceOnUse"
         id="clipPath28">
        <path
           d="M389.15 381.05 L389.15 402.05 L420.15 402.05 L420.15 381.05 Z"
           id="path84" />
      </clipPath>
      <clipPath
         clipPathUnits="userSpaceOnUse"
         id="clipPath29">
        <path
           d="M390.9723 368.968 L417.3277 368.968 L417.3277 384.2805 L390.9723 384.2805 L390.9723 368.968 Z"
           id="path87" />
      </clipPath>
      <clipPath
         clipPathUnits="userSpaceOnUse"
         id="clipPath30">
        <path
           d="M449.4903 698.8453 L449.4903 710.7816 L593.9303 710.7816 L593.9303 698.8453 Z"
           id="path90" />
      </clipPath>
      <clipPath
         clipPathUnits="userSpaceOnUse"
         id="clipPath31">
        <path
           d="M515 701.175 L515 722.175 L571 722.175 L571 701.175 Z"
           id="path93" />
      </clipPath>
      <clipPath
         clipPathUnits="userSpaceOnUse"
         id="clipPath32">
        <path
           d="M519.6445 689.093 L566.3555 689.093 L566.3555 704.4055 L519.6445 704.4055 L519.6445 689.093 Z"
           id="path96" />
      </clipPath>
      <clipPath
         clipPathUnits="userSpaceOnUse"
         id="clipPath33">
        <path
           d="M418.8721 363.0196 L418.8721 377.6448 L634.0198 377.6448 L634.0198 363.0196 Z"
           id="path99" />
      </clipPath>
      <clipPath
         clipPathUnits="userSpaceOnUse"
         id="clipPath34">
        <path
           d="M456.01 368.1575 L456.01 389.1575 L507.01 389.1575 L507.01 368.1575 Z"
           id="path102" />
      </clipPath>
      <clipPath
         clipPathUnits="userSpaceOnUse"
         id="clipPath35">
        <path
           d="M460.1995 356.0755 L501.8206 356.0755 L501.8206 371.388 L460.1995 371.388 L460.1995 356.0755 Z"
           id="path105" />
      </clipPath>
      <clipPath
         clipPathUnits="userSpaceOnUse"
         id="clipPath36">
        <path
           d="M434.5599 590.4781 L434.5599 684.155 L635.655 684.155 L635.655 590.4781 Z"
           id="path108" />
      </clipPath>
      <clipPath
         clipPathUnits="userSpaceOnUse"
         id="clipPath37">
        <path
           d="M423.309 468.309 L423.309 514.877 L495.306 514.877 L495.306 468.309 Z"
           id="path111" />
      </clipPath>
      <clipPath
         clipPathUnits="userSpaceOnUse"
         id="clipPath38">
        <path
           d="M470.95 621 L470.95 642 L506.95 642 L506.95 621 Z"
           id="path114" />
      </clipPath>
      <clipPath
         clipPathUnits="userSpaceOnUse"
         id="clipPath39">
        <path
           d="M473.2274 608.918 L504.6727 608.918 L504.6727 624.2305 L473.2274 624.2305 L473.2274 608.918 Z"
           id="path117" />
      </clipPath>
      <clipPath
         clipPathUnits="userSpaceOnUse"
         id="clipPath40">
        <path
           d="M838.9803 700.3209 L838.9803 712.25 L884.9279 712.25 L884.9279 700.3209 Z"
           id="path120" />
      </clipPath>
      <clipPath
         clipPathUnits="userSpaceOnUse"
         id="clipPath41">
        <path
           d="M448.6 496.625 L448.6 517.625 L484.6 517.625 L484.6 496.625 Z"
           id="path123" />
      </clipPath>
      <clipPath
         clipPathUnits="userSpaceOnUse"
         id="clipPath42">
        <path
           d="M450.8773 484.543 L482.3227 484.543 L482.3227 499.8555 L450.8773 499.8555 L450.8773 484.543 Z"
           id="path126" />
      </clipPath>
      <clipPath
         clipPathUnits="userSpaceOnUse"
         id="clipPath43">
        <path
           d="M845.55 703.1667 L845.55 724.1667 L881.55 724.1667 L881.55 703.1667 Z"
           id="path129" />
      </clipPath>
      <clipPath
         clipPathUnits="userSpaceOnUse"
         id="clipPath44">
        <path
           d="M847.8273 691.0847 L879.2726 691.0847 L879.2726 706.3972 L847.8273 706.3972 L847.8273 691.0847 Z"
           id="path132" />
      </clipPath>
      <clipPath
         clipPathUnits="userSpaceOnUse"
         id="clipPath45">
        <path
           d="M679.5 699.0306 L679.5 710.9694 L753.4312 710.9694 L753.4312 699.0306 Z"
           id="path135" />
      </clipPath>
      <clipPath
         clipPathUnits="userSpaceOnUse"
         id="clipPath46">
        <path
           d="M869.319 331.3189 L869.319 361.6797 L922.6748 361.6797 L922.6748 331.3189 Z"
           id="path138" />
      </clipPath>
      <clipPath
         clipPathUnits="userSpaceOnUse"
         id="clipPath47">
        <path
           d="M705.65 702 L705.65 723 L741.65 723 L741.65 702 Z"
           id="path141" />
      </clipPath>
      <clipPath
         clipPathUnits="userSpaceOnUse"
         id="clipPath48">
        <path
           d="M707.9274 689.918 L739.3727 689.918 L739.3727 705.2305 L707.9274 705.2305 L707.9274 689.918 Z"
           id="path144" />
      </clipPath>
      <clipPath
         clipPathUnits="userSpaceOnUse"
         id="clipPath49">
        <path
           d="M884.475 348.425 L884.475 369.425 L915.475 369.425 L915.475 348.425 Z"
           id="path147" />
      </clipPath>
      <clipPath
         clipPathUnits="userSpaceOnUse"
         id="clipPath50">
        <path
           d="M886.2972 336.343 L912.6527 336.343 L912.6527 351.6555 L886.2972 351.6555 L886.2972 336.343 Z"
           id="path150" />
      </clipPath>
      <clipPath
         clipPathUnits="userSpaceOnUse"
         id="clipPath51">
        <path
           d="M386.5845 468.3476 L386.5845 559.1367 L424.6524 559.1367 L424.6524 468.3476 Z"
           id="path153" />
      </clipPath>
      <clipPath
         clipPathUnits="userSpaceOnUse"
         id="clipPath52">
        <path
           d="M376.15 526.55 L376.15 547.55 L412.15 547.55 L412.15 526.55 Z"
           id="path156" />
      </clipPath>
      <clipPath
         clipPathUnits="userSpaceOnUse"
         id="clipPath53">
        <path
           d="M378.4273 514.468 L409.8727 514.468 L409.8727 529.7805 L378.4273 529.7805 L378.4273 514.468 Z"
           id="path159" />
      </clipPath>
      <clipPath
         clipPathUnits="userSpaceOnUse"
         id="clipPath54">
        <path
           d="M634.5 409.7 L634.5 684 L823.9 684 L823.9 409.7 Z"
           id="path162" />
      </clipPath>
      <clipPath
         clipPathUnits="userSpaceOnUse"
         id="clipPath55">
        <path
           d="M710 631 L710 847 L1026 847 L1026 631 Z"
           id="path165" />
      </clipPath>
      <clipPath
         clipPathUnits="userSpaceOnUse"
         id="clipPath56">
        <path
           d="M126 298 L126 869 L1165 869 L1165 298 Z"
           id="path168" />
      </clipPath>
      <clipPath
         clipPathUnits="userSpaceOnUse"
         id="clipPath57">
        <path
           d="M888.5 750.1667 L888.5 771.1667 L969.5 771.1667 L969.5 750.1667 Z"
           id="path171" />
      </clipPath>
      <clipPath
         clipPathUnits="userSpaceOnUse"
         id="clipPath58">
        <path
           d="M888.5 690.1667 L888.5 711.1667 L969.5 711.1667 L969.5 690.1667 Z"
           id="path174" />
      </clipPath>
      <clipPath
         clipPathUnits="userSpaceOnUse"
         id="clipPath59">
        <path
           d="M888.5 730.1667 L888.5 751.1667 L969.5 751.1667 L969.5 730.1667 Z"
           id="path177" />
      </clipPath>
      <clipPath
         clipPathUnits="userSpaceOnUse"
         id="clipPath60">
        <path
           d="M888.5 710.1667 L888.5 731.1667 L969.5 731.1667 L969.5 710.1667 Z"
           id="path180" />
      </clipPath>
      <clipPath
         clipPathUnits="userSpaceOnUse"
         id="clipPath61">
        <path
           d="M446.5 512.25 L446.5 556.25 L537.5 556.25 L537.5 512.25 Z"
           id="path183" />
      </clipPath>
      <clipPath
         clipPathUnits="userSpaceOnUse"
         id="clipPath62">
        <path
           d="M378.5 425.5 L378.5 469.5 L469.5 469.5 L469.5 425.5 Z"
           id="path186" />
      </clipPath>
      <clipPath
         clipPathUnits="userSpaceOnUse"
         id="clipPath63">
        <path
           d="M371.5 399 L371.5 424.5 L419.5 424.5 L419.5 399 Z"
           id="path189" />
      </clipPath>
      <clipPath
         clipPathUnits="userSpaceOnUse"
         id="clipPath64">
        <path
           d="M414 423 L414 444 L525 444 L525 423 Z"
           id="path192" />
      </clipPath>
      <clipPath
         clipPathUnits="userSpaceOnUse"
         id="clipPath65">
        <path
           d="M427.666 410.918 L510.334 410.918 L510.334 426.2305 L427.666 426.2305 L427.666 410.918 Z"
           id="path195" />
      </clipPath>
      <clipPath
         clipPathUnits="userSpaceOnUse"
         id="clipPath66">
        <path
           d="M351.5 684 L351.5 728 L442.5 728 L442.5 684 Z"
           id="path198" />
      </clipPath>
      <clipPath
         clipPathUnits="userSpaceOnUse"
         id="clipPath67">
        <path
           d="M641 377 L641 400.5 L722.5 400.5 L722.5 377 Z"
           id="path201" />
      </clipPath>
      <clipPath
         clipPathUnits="userSpaceOnUse"
         id="clipPath68">
        <path
           d="M434 681.5 L434 702.5 L450 702.5 L450 681.5 Z"
           id="path204" />
      </clipPath>
      <clipPath
         clipPathUnits="userSpaceOnUse"
         id="clipPath69">
        <path
           d="M433.9102 669.418 L450.0898 669.418 L450.0898 684.7305 L433.9102 684.7305 L433.9102 669.418 Z"
           id="path207" />
      </clipPath>
      <clipPath
         clipPathUnits="userSpaceOnUse"
         id="clipPath70">
        <path
           d="M589.5 683 L589.5 727 L680.5 727 L680.5 683 Z"
           id="path210" />
      </clipPath>
      <clipPath
         clipPathUnits="userSpaceOnUse"
         id="clipPath71">
        <path
           d="M714 374.5 L714 395.5 L730 395.5 L730 374.5 Z"
           id="path213" />
      </clipPath>
      <clipPath
         clipPathUnits="userSpaceOnUse"
         id="clipPath72">
        <path
           d="M713.9102 362.418 L730.0898 362.418 L730.0898 377.7305 L713.9102 377.7305 L713.9102 362.418 Z"
           id="path216" />
      </clipPath>
      <clipPath
         clipPathUnits="userSpaceOnUse"
         id="clipPath73">
        <path
           d="M662 680.5 L662 701.5 L698 701.5 L698 680.5 Z"
           id="path219" />
      </clipPath>
      <clipPath
         clipPathUnits="userSpaceOnUse"
         id="clipPath74">
        <path
           d="M664.2773 668.418 L695.7227 668.418 L695.7227 683.7305 L664.2773 683.7305 L664.2773 668.418 Z"
           id="path222" />
      </clipPath>
      <clipPath
         clipPathUnits="userSpaceOnUse"
         id="clipPath75">
        <path
           d="M840.5 261.5 L840.5 332.5 L899.5 332.5 L899.5 261.5 Z"
           id="path225" />
      </clipPath>
      <clipPath
         clipPathUnits="userSpaceOnUse"
         id="clipPath76">
        <path
           d="M859 259 L859 280 L940 280 L940 259 Z"
           id="path228" />
      </clipPath>
      <clipPath
         clipPathUnits="userSpaceOnUse"
         id="clipPath77">
        <path
           d="M868.0137 246.918 L929.9863 246.918 L929.9863 262.2305 L868.0137 262.2305 L868.0137 246.918 Z"
           id="path231" />
      </clipPath>
      <clipPath
         clipPathUnits="userSpaceOnUse"
         id="clipPath78">
        <path
           d="M415.5 319 L415.5 348.5 L466.5 348.5 L466.5 319 Z"
           id="path234" />
      </clipPath>
      <clipPath
         clipPathUnits="userSpaceOnUse"
         id="clipPath79">
        <path
           d="M749 683 L749 727 L840 727 L840 683 Z"
           id="path237" />
      </clipPath>
      <clipPath
         clipPathUnits="userSpaceOnUse"
         id="clipPath80">
        <path
           d="M873.75 359.25 L873.75 403.25 L964.75 403.25 L964.75 359.25 Z"
           id="path240" />
      </clipPath>
      <clipPath
         clipPathUnits="userSpaceOnUse"
         id="clipPath81">
        <path
           d="M821.5 680.5 L821.5 701.5 L857.5 701.5 L857.5 680.5 Z"
           id="path243" />
      </clipPath>
      <clipPath
         clipPathUnits="userSpaceOnUse"
         id="clipPath82">
        <path
           d="M823.7773 668.418 L855.2227 668.418 L855.2227 683.7305 L823.7773 683.7305 L823.7773 668.418 Z"
           id="path246" />
      </clipPath>
      <clipPath
         clipPathUnits="userSpaceOnUse"
         id="clipPath83">
        <path
           d="M959.25 356.75 L959.25 377.75 L970.25 377.75 L970.25 356.75 Z"
           id="path249" />
      </clipPath>
      <clipPath
         clipPathUnits="userSpaceOnUse"
         id="clipPath84">
        <path
           d="M958.7051 344.668 L969.7949 344.668 L969.7949 359.9805 L958.7051 359.9805 L958.7051 344.668 Z"
           id="path252" />
      </clipPath>
      <clipPath
         clipPathUnits="userSpaceOnUse"
         id="clipPath85">
        <path
           d="M365.5 555 L365.5 599 L456.5 599 L456.5 555 Z"
           id="path255" />
      </clipPath>
      <clipPath
         clipPathUnits="userSpaceOnUse"
         id="clipPath86">
        <path
           d="M413 552.5 L413 573.5 L499 573.5 L499 552.5 Z"
           id="path258" />
      </clipPath>
      <clipPath
         clipPathUnits="userSpaceOnUse"
         id="clipPath87">
        <path
           d="M422.2969 540.418 L489.7031 540.418 L489.7031 555.7305 L422.2969 555.7305 L422.2969 540.418 Z"
           id="path261" />
      </clipPath>
      <clipPath
         clipPathUnits="userSpaceOnUse"
         id="clipPath88">
        <path
           d="M641 353.75 L641 377.25 L722.5 377.25 L722.5 353.75 Z"
           id="path264" />
      </clipPath>
      <clipPath
         clipPathUnits="userSpaceOnUse"
         id="clipPath89">
        <path
           d="M767.5 361 L767.5 405 L858.5 405 L858.5 361 Z"
           id="path267" />
      </clipPath>
      <clipPath
         clipPathUnits="userSpaceOnUse"
         id="clipPath90">
        <path
           d="M714 351.25 L714 372.25 L730 372.25 L730 351.25 Z"
           id="path270" />
      </clipPath>
      <clipPath
         clipPathUnits="userSpaceOnUse"
         id="clipPath91">
        <path
           d="M713.9102 339.168 L730.0898 339.168 L730.0898 354.4805 L713.9102 354.4805 L713.9102 339.168 Z"
           id="path273" />
      </clipPath>
      <clipPath
         clipPathUnits="userSpaceOnUse"
         id="clipPath92">
        <path
           d="M853 358.5 L853 379.5 L864 379.5 L864 358.5 Z"
           id="path276" />
      </clipPath>
      <clipPath
         clipPathUnits="userSpaceOnUse"
         id="clipPath93">
        <path
           d="M852.4551 346.418 L863.5449 346.418 L863.5449 361.7305 L852.4551 361.7305 L852.4551 346.418 Z"
           id="path279" />
      </clipPath>
    </defs>
    <g
       style="fill:white; stroke:white;"
       id="g285">
      <rect
         x="0"
         width="1189"
         height="893"
         y="0"
         style="stroke:none;"
         id="rect283" />
    </g>
    <g
       style="font-weight:bold; font-size:10; text-rendering:geometricPrecision;"
       id="g295">
      <path
         d="M0.0469 6.7031 L6.7656 6.7031 L6.7656 8.125 L4.3438 8.125 L4.3438 14 L2.4688 14 L2.4688 8.125 L0.0469 8.125 L0.0469 6.7031 ZM7.665 8.5312 L9.415 8.5312 L9.415 14 L7.665 14 L7.665 8.5312 ZM7.665 6.4062 L9.415 6.4062 L9.415 7.8281 L7.665 7.8281 L7.665 6.4062 ZM12.999 6.9844 L12.999 8.5312 L14.7959 8.5312 L14.7959 9.7812 L12.999 9.7812 L12.999 12.0938 Q12.999 12.4844 13.1475 12.6172 Q13.2959 12.75 13.749 12.75 L14.6553 12.75 L14.6553 14 L13.1553 14 Q12.1084 14 11.6787 13.5703 Q11.249 13.1406 11.249 12.0938 L11.249 9.7812 L10.374 9.7812 L10.374 8.5312 L11.249 8.5312 L11.249 6.9844 L12.999 6.9844 ZM15.873 6.4062 L17.623 6.4062 L17.623 14 L15.873 14 L15.873 6.4062 ZM24.7539 11.25 L24.7539 11.75 L20.6758 11.75 Q20.7383 12.3594 21.1133 12.6719 Q21.4883 12.9844 22.1758 12.9844 Q22.7227 12.9844 23.3086 12.8203 Q23.8945 12.6562 24.5039 12.3125 L24.5039 13.6719 Q23.8789 13.9062 23.2617 14.0234 Q22.6445 14.1406 22.0195 14.1406 Q20.5352 14.1406 19.7148 13.3828 Q18.8945 12.625 18.8945 11.2656 Q18.8945 9.9375 19.6992 9.1719 Q20.5039 8.4062 21.9258 8.4062 Q23.207 8.4062 23.9805 9.1797 Q24.7539 9.9531 24.7539 11.25 ZM22.957 10.6719 Q22.957 10.1719 22.668 9.8672 Q22.3789 9.5625 21.9102 9.5625 Q21.3945 9.5625 21.082 9.8438 Q20.7695 10.125 20.6914 10.6719 L22.957 10.6719 ZM26.3643 8.5312 L28.1143 8.5312 L28.1143 10.4219 L26.3643 10.4219 L26.3643 8.5312 ZM26.3643 12.1094 L28.1143 12.1094 L28.1143 14 L26.3643 14 L26.3643 12.1094 Z"
         style="clip-path:url(#clipPath2); stroke:none;"
         clip-path="url(#clipPath2)"
         id="path287" />
      <path
         d="M38.9844 6.7031 L40.4531 6.7031 L42.3125 11.6719 L44.1875 6.7031 L45.6562 6.7031 L45.6562 14 L44.6875 14 L44.6875 7.5938 L42.8125 12.5938 L41.8125 12.5938 L39.9375 7.5938 L39.9375 14 L38.9844 14 L38.9844 6.7031 ZM50.0498 7.6875 L48.7061 11.3125 L51.3936 11.3125 L50.0498 7.6875 ZM49.4873 6.7031 L50.6123 6.7031 L53.3936 14 L52.3623 14 L51.6904 12.125 L48.4092 12.125 L47.7529 14 L46.7061 14 L49.4873 6.7031 ZM55.4375 7.5156 L55.4375 10.2656 L56.6719 10.2656 Q57.3594 10.2656 57.7422 9.9062 Q58.125 9.5469 58.125 8.8906 Q58.125 8.2344 57.7422 7.875 Q57.3594 7.5156 56.6719 7.5156 L55.4375 7.5156 ZM54.4531 6.7031 L56.6719 6.7031 Q57.9062 6.7031 58.5312 7.2578 Q59.1562 7.8125 59.1562 8.8906 Q59.1562 9.9688 58.5312 10.5156 Q57.9062 11.0625 56.6719 11.0625 L55.4375 11.0625 L55.4375 14 L54.4531 14 L54.4531 6.7031 ZM60.4834 6.7031 L61.4678 6.7031 L61.4678 9.7969 L64.7334 6.7031 L66.0146 6.7031 L62.3896 10.1094 L66.2646 14 L64.9678 14 L61.4678 10.4844 L61.4678 14 L60.4834 14 L60.4834 6.7031 ZM71.0479 13.1719 L71.0479 16.0781 L70.1416 16.0781 L70.1416 8.5312 L71.0479 8.5312 L71.0479 9.3594 Q71.3291 8.875 71.7588 8.6406 Q72.1885 8.4062 72.7979 8.4062 Q73.7979 8.4062 74.415 9.1953 Q75.0322 9.9844 75.0322 11.2656 Q75.0322 12.5625 74.415 13.3516 Q73.7979 14.1406 72.7979 14.1406 Q72.1885 14.1406 71.7588 13.9062 Q71.3291 13.6719 71.0479 13.1719 ZM74.1104 11.2656 Q74.1104 10.2812 73.6963 9.7188 Q73.2822 9.1562 72.5791 9.1562 Q71.8604 9.1562 71.4541 9.7188 Q71.0479 10.2812 71.0479 11.2656 Q71.0479 12.2656 71.4541 12.8281 Q71.8604 13.3906 72.5791 13.3906 Q73.2822 13.3906 73.6963 12.8281 Q74.1104 12.2656 74.1104 11.2656 ZM79.0049 11.25 Q77.9268 11.25 77.5049 11.5 Q77.083 11.75 77.083 12.3438 Q77.083 12.8281 77.3955 13.1094 Q77.708 13.3906 78.2549 13.3906 Q79.0049 13.3906 79.458 12.8594 Q79.9111 12.3281 79.9111 11.4531 L79.9111 11.25 L79.0049 11.25 ZM80.8018 10.875 L80.8018 14 L79.9111 14 L79.9111 13.1719 Q79.5986 13.6719 79.1377 13.9062 Q78.6768 14.1406 78.0205 14.1406 Q77.1768 14.1406 76.6768 13.6719 Q76.1768 13.2031 76.1768 12.4062 Q76.1768 11.4844 76.8018 11.0156 Q77.4268 10.5469 78.6455 10.5469 L79.9111 10.5469 L79.9111 10.4531 Q79.9111 9.8438 79.4971 9.5 Q79.083 9.1562 78.3486 9.1562 Q77.8799 9.1562 77.4346 9.2734 Q76.9893 9.3906 76.583 9.6094 L76.583 8.7812 Q77.083 8.5938 77.5439 8.5 Q78.0049 8.4062 78.4424 8.4062 Q79.6299 8.4062 80.2158 9.0156 Q80.8018 9.625 80.8018 10.875 ZM83.5391 6.9844 L83.5391 8.5312 L85.3984 8.5312 L85.3984 9.2344 L83.5391 9.2344 L83.5391 12.2031 Q83.5391 12.8594 83.7266 13.0547 Q83.9141 13.25 84.4766 13.25 L85.3984 13.25 L85.3984 14 L84.4766 14 Q83.4297 14 83.0312 13.6094 Q82.6328 13.2188 82.6328 12.2031 L82.6328 9.2344 L81.9766 9.2344 L81.9766 8.5312 L82.6328 8.5312 L82.6328 6.9844 L83.5391 6.9844 ZM91.1162 10.7031 L91.1162 14 L90.2256 14 L90.2256 10.7344 Q90.2256 9.9531 89.9209 9.5703 Q89.6162 9.1875 89.0068 9.1875 Q88.2881 9.1875 87.8662 9.6484 Q87.4443 10.1094 87.4443 10.9062 L87.4443 14 L86.5381 14 L86.5381 6.4062 L87.4443 6.4062 L87.4443 9.375 Q87.7725 8.8906 88.21 8.6484 Q88.6475 8.4062 89.21 8.4062 Q90.1475 8.4062 90.6318 8.9844 Q91.1162 9.5625 91.1162 10.7031 ZM92.3916 8.5312 L93.2822 8.5312 L94.4072 12.7969 L95.5322 8.5312 L96.5947 8.5312 L97.7197 12.7969 L98.8291 8.5312 L99.7354 8.5312 L98.2979 14 L97.2354 14 L96.0635 9.5156 L94.876 14 L93.8135 14 L92.3916 8.5312 ZM103.5703 11.25 Q102.4922 11.25 102.0703 11.5 Q101.6484 11.75 101.6484 12.3438 Q101.6484 12.8281 101.9609 13.1094 Q102.2734 13.3906 102.8203 13.3906 Q103.5703 13.3906 104.0234 12.8594 Q104.4766 12.3281 104.4766 11.4531 L104.4766 11.25 L103.5703 11.25 ZM105.3672 10.875 L105.3672 14 L104.4766 14 L104.4766 13.1719 Q104.1641 13.6719 103.7031 13.9062 Q103.2422 14.1406 102.5859 14.1406 Q101.7422 14.1406 101.2422 13.6719 Q100.7422 13.2031 100.7422 12.4062 Q100.7422 11.4844 101.3672 11.0156 Q101.9922 10.5469 103.2109 10.5469 L104.4766 10.5469 L104.4766 10.4531 Q104.4766 9.8438 104.0625 9.5 Q103.6484 9.1562 102.9141 9.1562 Q102.4453 9.1562 102 9.2734 Q101.5547 9.3906 101.1484 9.6094 L101.1484 8.7812 Q101.6484 8.5938 102.1094 8.5 Q102.5703 8.4062 103.0078 8.4062 Q104.1953 8.4062 104.7812 9.0156 Q105.3672 9.625 105.3672 10.875 ZM109.4951 14.5156 Q109.1201 15.4844 108.7529 15.7812 Q108.3857 16.0781 107.792 16.0781 L107.0732 16.0781 L107.0732 15.3281 L107.5889 15.3281 Q107.9639 15.3281 108.167 15.1562 Q108.3701 14.9844 108.6201 14.3281 L108.792 13.9062 L106.5732 8.5312 L107.5264 8.5312 L109.2295 12.8125 L110.9482 8.5312 L111.9014 8.5312 L109.4951 14.5156 ZM116.3105 8.5312 L117.2168 8.5312 L117.2168 14 L116.3105 14 L116.3105 8.5312 ZM116.3105 6.4062 L117.2168 6.4062 L117.2168 7.5469 L116.3105 7.5469 L116.3105 6.4062 ZM123.6357 10.7031 L123.6357 14 L122.7451 14 L122.7451 10.7344 Q122.7451 9.9531 122.4404 9.5703 Q122.1357 9.1875 121.5264 9.1875 Q120.8076 9.1875 120.3857 9.6484 Q119.9639 10.1094 119.9639 10.9062 L119.9639 14 L119.0576 14 L119.0576 8.5312 L119.9639 8.5312 L119.9639 9.375 Q120.292 8.8906 120.7295 8.6484 Q121.167 8.4062 121.7295 8.4062 Q122.667 8.4062 123.1514 8.9844 Q123.6357 9.5625 123.6357 10.7031 ZM132.543 8.7344 L132.543 9.5781 Q132.168 9.375 131.7852 9.2656 Q131.4023 9.1562 131.0117 9.1562 Q130.1367 9.1562 129.6523 9.7109 Q129.168 10.2656 129.168 11.2656 Q129.168 12.2656 129.6523 12.8203 Q130.1367 13.375 131.0117 13.375 Q131.4023 13.375 131.7852 13.2734 Q132.168 13.1719 132.543 12.9531 L132.543 13.7969 Q132.168 13.9688 131.7695 14.0547 Q131.3711 14.1406 130.918 14.1406 Q129.668 14.1406 128.9414 13.3672 Q128.2148 12.5938 128.2148 11.2656 Q128.2148 9.9375 128.9492 9.1719 Q129.6836 8.4062 130.9648 8.4062 Q131.3867 8.4062 131.7773 8.4844 Q132.168 8.5625 132.543 8.7344 ZM136.2285 9.1562 Q135.5098 9.1562 135.0879 9.7188 Q134.666 10.2812 134.666 11.2656 Q134.666 12.25 135.0801 12.8125 Q135.4941 13.375 136.2285 13.375 Q136.9473 13.375 137.3691 12.8125 Q137.791 12.25 137.791 11.2656 Q137.791 10.2969 137.3691 9.7266 Q136.9473 9.1562 136.2285 9.1562 ZM136.2285 8.4062 Q137.4004 8.4062 138.0723 9.1641 Q138.7441 9.9219 138.7441 11.2656 Q138.7441 12.6094 138.0723 13.375 Q137.4004 14.1406 136.2285 14.1406 Q135.0566 14.1406 134.3848 13.375 Q133.7129 12.6094 133.7129 11.2656 Q133.7129 9.9219 134.3848 9.1641 Q135.0566 8.4062 136.2285 8.4062 ZM144.7686 10.7031 L144.7686 14 L143.8779 14 L143.8779 10.7344 Q143.8779 9.9531 143.5732 9.5703 Q143.2686 9.1875 142.6592 9.1875 Q141.9404 9.1875 141.5186 9.6484 Q141.0967 10.1094 141.0967 10.9062 L141.0967 14 L140.1904 14 L140.1904 8.5312 L141.0967 8.5312 L141.0967 9.375 Q141.4248 8.8906 141.8623 8.6484 Q142.2998 8.4062 142.8623 8.4062 Q143.7998 8.4062 144.2842 8.9844 Q144.7686 9.5625 144.7686 10.7031 ZM150.1689 11.2031 Q150.1689 10.2188 149.7627 9.6875 Q149.3564 9.1562 148.6377 9.1562 Q147.9033 9.1562 147.5049 9.6875 Q147.1064 10.2188 147.1064 11.2031 Q147.1064 12.1719 147.5049 12.7109 Q147.9033 13.25 148.6377 13.25 Q149.3564 13.25 149.7627 12.7109 Q150.1689 12.1719 150.1689 11.2031 ZM151.0596 13.3281 Q151.0596 14.7188 150.4424 15.3984 Q149.8252 16.0781 148.5439 16.0781 Q148.0752 16.0781 147.6533 16.0078 Q147.2314 15.9375 146.8408 15.7969 L146.8408 14.9219 Q147.2314 15.1406 147.6143 15.2422 Q147.9971 15.3438 148.4033 15.3438 Q149.2783 15.3438 149.7236 14.8828 Q150.1689 14.4219 150.1689 13.4844 L150.1689 13.0312 Q149.8877 13.5156 149.4502 13.7578 Q149.0127 14 148.4033 14 Q147.4033 14 146.7861 13.2344 Q146.1689 12.4688 146.1689 11.2031 Q146.1689 9.9375 146.7861 9.1719 Q147.4033 8.4062 148.4033 8.4062 Q149.0127 8.4062 149.4502 8.6406 Q149.8877 8.875 150.1689 9.3594 L150.1689 8.5312 L151.0596 8.5312 L151.0596 13.3281 ZM157.5947 11.0469 L157.5947 11.4844 L153.4541 11.4844 Q153.5166 12.4062 154.0166 12.8906 Q154.5166 13.375 155.4072 13.375 Q155.9229 13.375 156.415 13.25 Q156.9072 13.125 157.376 12.875 L157.376 13.7188 Q156.8916 13.9219 156.3838 14.0312 Q155.876 14.1406 155.3604 14.1406 Q154.0479 14.1406 153.2822 13.3828 Q152.5166 12.625 152.5166 11.3125 Q152.5166 9.9688 153.2432 9.1875 Q153.9697 8.4062 155.2041 8.4062 Q156.3135 8.4062 156.9541 9.1094 Q157.5947 9.8125 157.5947 11.0469 ZM156.6885 10.7812 Q156.6885 10.0469 156.2822 9.6016 Q155.876 9.1562 155.2197 9.1562 Q154.4541 9.1562 154.0088 9.5859 Q153.5635 10.0156 153.4854 10.7812 L156.6885 10.7812 ZM163.6064 10.7031 L163.6064 14 L162.7158 14 L162.7158 10.7344 Q162.7158 9.9531 162.4111 9.5703 Q162.1064 9.1875 161.4971 9.1875 Q160.7783 9.1875 160.3564 9.6484 Q159.9346 10.1094 159.9346 10.9062 L159.9346 14 L159.0283 14 L159.0283 8.5312 L159.9346 8.5312 L159.9346 9.375 Q160.2627 8.8906 160.7002 8.6484 Q161.1377 8.4062 161.7002 8.4062 Q162.6377 8.4062 163.1221 8.9844 Q163.6064 9.5625 163.6064 10.7031 ZM165.3975 8.5312 L166.3037 8.5312 L166.3037 14 L165.3975 14 L165.3975 8.5312 ZM165.3975 6.4062 L166.3037 6.4062 L166.3037 7.5469 L165.3975 7.5469 L165.3975 6.4062 ZM169.0664 6.9844 L169.0664 8.5312 L170.9258 8.5312 L170.9258 9.2344 L169.0664 9.2344 L169.0664 12.2031 Q169.0664 12.8594 169.2539 13.0547 Q169.4414 13.25 170.0039 13.25 L170.9258 13.25 L170.9258 14 L170.0039 14 Q168.957 14 168.5586 13.6094 Q168.1602 13.2188 168.1602 12.2031 L168.1602 9.2344 L167.5039 9.2344 L167.5039 8.5312 L168.1602 8.5312 L168.1602 6.9844 L169.0664 6.9844 ZM174.5811 11.25 Q173.5029 11.25 173.0811 11.5 Q172.6592 11.75 172.6592 12.3438 Q172.6592 12.8281 172.9717 13.1094 Q173.2842 13.3906 173.8311 13.3906 Q174.5811 13.3906 175.0342 12.8594 Q175.4873 12.3281 175.4873 11.4531 L175.4873 11.25 L174.5811 11.25 ZM176.3779 10.875 L176.3779 14 L175.4873 14 L175.4873 13.1719 Q175.1748 13.6719 174.7139 13.9062 Q174.2529 14.1406 173.5967 14.1406 Q172.7529 14.1406 172.2529 13.6719 Q171.7529 13.2031 171.7529 12.4062 Q171.7529 11.4844 172.3779 11.0156 Q173.0029 10.5469 174.2217 10.5469 L175.4873 10.5469 L175.4873 10.4531 Q175.4873 9.8438 175.0732 9.5 Q174.6592 9.1562 173.9248 9.1562 Q173.4561 9.1562 173.0107 9.2734 Q172.5654 9.3906 172.1592 9.6094 L172.1592 8.7812 Q172.6592 8.5938 173.1201 8.5 Q173.5811 8.4062 174.0186 8.4062 Q175.2061 8.4062 175.792 9.0156 Q176.3779 9.625 176.3779 10.875 ZM178.2246 6.4062 L179.1309 6.4062 L179.1309 14 L178.2246 14 L178.2246 6.4062 ZM185.0723 6.9844 L185.0723 8.5312 L186.9316 8.5312 L186.9316 9.2344 L185.0723 9.2344 L185.0723 12.2031 Q185.0723 12.8594 185.2598 13.0547 Q185.4473 13.25 186.0098 13.25 L186.9316 13.25 L186.9316 14 L186.0098 14 Q184.9629 14 184.5645 13.6094 Q184.166 13.2188 184.166 12.2031 L184.166 9.2344 L183.5098 9.2344 L183.5098 8.5312 L184.166 8.5312 L184.166 6.9844 L185.0723 6.9844 ZM192.6494 10.7031 L192.6494 14 L191.7588 14 L191.7588 10.7344 Q191.7588 9.9531 191.4541 9.5703 Q191.1494 9.1875 190.54 9.1875 Q189.8213 9.1875 189.3994 9.6484 Q188.9775 10.1094 188.9775 10.9062 L188.9775 14 L188.0713 14 L188.0713 6.4062 L188.9775 6.4062 L188.9775 9.375 Q189.3057 8.8906 189.7432 8.6484 Q190.1807 8.4062 190.7432 8.4062 Q191.6807 8.4062 192.165 8.9844 Q192.6494 9.5625 192.6494 10.7031 ZM196.7217 14.5156 Q196.3467 15.4844 195.9795 15.7812 Q195.6123 16.0781 195.0186 16.0781 L194.2998 16.0781 L194.2998 15.3281 L194.8154 15.3281 Q195.1904 15.3281 195.3936 15.1562 Q195.5967 14.9844 195.8467 14.3281 L196.0186 13.9062 L193.7998 8.5312 L194.7529 8.5312 L196.4561 12.8125 L198.1748 8.5312 L199.1279 8.5312 L196.7217 14.5156 ZM203.5303 9.375 Q203.374 9.2812 203.2021 9.2422 Q203.0303 9.2031 202.8115 9.2031 Q202.0459 9.2031 201.6396 9.6953 Q201.2334 10.1875 201.2334 11.125 L201.2334 14 L200.3271 14 L200.3271 8.5312 L201.2334 8.5312 L201.2334 9.375 Q201.5146 8.875 201.9678 8.6406 Q202.4209 8.4062 203.0771 8.4062 Q203.1709 8.4062 203.2803 8.4141 Q203.3896 8.4219 203.5303 8.4531 L203.5303 9.375 ZM206.5947 9.1562 Q205.876 9.1562 205.4541 9.7188 Q205.0322 10.2812 205.0322 11.2656 Q205.0322 12.25 205.4463 12.8125 Q205.8604 13.375 206.5947 13.375 Q207.3135 13.375 207.7354 12.8125 Q208.1572 12.25 208.1572 11.2656 Q208.1572 10.2969 207.7354 9.7266 Q207.3135 9.1562 206.5947 9.1562 ZM206.5947 8.4062 Q207.7666 8.4062 208.4385 9.1641 Q209.1104 9.9219 209.1104 11.2656 Q209.1104 12.6094 208.4385 13.375 Q207.7666 14.1406 206.5947 14.1406 Q205.4229 14.1406 204.751 13.375 Q204.0791 12.6094 204.0791 11.2656 Q204.0791 9.9219 204.751 9.1641 Q205.4229 8.4062 206.5947 8.4062 ZM210.5879 8.5312 L211.4941 8.5312 L211.4941 14 L210.5879 14 L210.5879 8.5312 ZM210.5879 6.4062 L211.4941 6.4062 L211.4941 7.5469 L210.5879 7.5469 L210.5879 6.4062 ZM216.9756 9.3594 L216.9756 6.4062 L217.8662 6.4062 L217.8662 14 L216.9756 14 L216.9756 13.1719 Q216.6943 13.6719 216.2568 13.9062 Q215.8193 14.1406 215.21 14.1406 Q214.2256 14.1406 213.6006 13.3516 Q212.9756 12.5625 212.9756 11.2656 Q212.9756 9.9844 213.6006 9.1953 Q214.2256 8.4062 215.21 8.4062 Q215.8193 8.4062 216.2568 8.6406 Q216.6943 8.875 216.9756 9.3594 ZM213.9131 11.2656 Q213.9131 12.2656 214.3193 12.8281 Q214.7256 13.3906 215.4443 13.3906 Q216.1475 13.3906 216.5615 12.8281 Q216.9756 12.2656 216.9756 11.2656 Q216.9756 10.2812 216.5615 9.7188 Q216.1475 9.1562 215.4443 9.1562 Q214.7256 9.1562 214.3193 9.7188 Q213.9131 10.2812 213.9131 11.2656 ZM226.8301 8.7344 L226.8301 9.5781 Q226.4551 9.375 226.0723 9.2656 Q225.6895 9.1562 225.2988 9.1562 Q224.4238 9.1562 223.9395 9.7109 Q223.4551 10.2656 223.4551 11.2656 Q223.4551 12.2656 223.9395 12.8203 Q224.4238 13.375 225.2988 13.375 Q225.6895 13.375 226.0723 13.2734 Q226.4551 13.1719 226.8301 12.9531 L226.8301 13.7969 Q226.4551 13.9688 226.0566 14.0547 Q225.6582 14.1406 225.2051 14.1406 Q223.9551 14.1406 223.2285 13.3672 Q222.502 12.5938 222.502 11.2656 Q222.502 9.9375 223.2363 9.1719 Q223.9707 8.4062 225.252 8.4062 Q225.6738 8.4062 226.0645 8.4844 Q226.4551 8.5625 226.8301 8.7344 ZM230.875 11.25 Q229.7969 11.25 229.375 11.5 Q228.9531 11.75 228.9531 12.3438 Q228.9531 12.8281 229.2656 13.1094 Q229.5781 13.3906 230.125 13.3906 Q230.875 13.3906 231.3281 12.8594 Q231.7812 12.3281 231.7812 11.4531 L231.7812 11.25 L230.875 11.25 ZM232.6719 10.875 L232.6719 14 L231.7812 14 L231.7812 13.1719 Q231.4688 13.6719 231.0078 13.9062 Q230.5469 14.1406 229.8906 14.1406 Q229.0469 14.1406 228.5469 13.6719 Q228.0469 13.2031 228.0469 12.4062 Q228.0469 11.4844 228.6719 11.0156 Q229.2969 10.5469 230.5156 10.5469 L231.7812 10.5469 L231.7812 10.4531 Q231.7812 9.8438 231.3672 9.5 Q230.9531 9.1562 230.2188 9.1562 Q229.75 9.1562 229.3047 9.2734 Q228.8594 9.3906 228.4531 9.6094 L228.4531 8.7812 Q228.9531 8.5938 229.4141 8.5 Q229.875 8.4062 230.3125 8.4062 Q231.5 8.4062 232.0859 9.0156 Q232.6719 9.625 232.6719 10.875 ZM239.0654 10.7031 L239.0654 14 L238.1748 14 L238.1748 10.7344 Q238.1748 9.9531 237.8701 9.5703 Q237.5654 9.1875 236.9561 9.1875 Q236.2373 9.1875 235.8154 9.6484 Q235.3936 10.1094 235.3936 10.9062 L235.3936 14 L234.4873 14 L234.4873 8.5312 L235.3936 8.5312 L235.3936 9.375 Q235.7217 8.8906 236.1592 8.6484 Q236.5967 8.4062 237.1592 8.4062 Q238.0967 8.4062 238.5811 8.9844 Q239.0654 9.5625 239.0654 10.7031 ZM244.7939 8.7344 L244.7939 9.5781 Q244.4189 9.375 244.0361 9.2656 Q243.6533 9.1562 243.2627 9.1562 Q242.3877 9.1562 241.9033 9.7109 Q241.4189 10.2656 241.4189 11.2656 Q241.4189 12.2656 241.9033 12.8203 Q242.3877 13.375 243.2627 13.375 Q243.6533 13.375 244.0361 13.2734 Q244.4189 13.1719 244.7939 12.9531 L244.7939 13.7969 Q244.4189 13.9688 244.0205 14.0547 Q243.6221 14.1406 243.1689 14.1406 Q241.9189 14.1406 241.1924 13.3672 Q240.4658 12.5938 240.4658 11.2656 Q240.4658 9.9375 241.2002 9.1719 Q241.9346 8.4062 243.2158 8.4062 Q243.6377 8.4062 244.0283 8.4844 Q244.4189 8.5625 244.7939 8.7344 ZM251.042 11.0469 L251.042 11.4844 L246.9014 11.4844 Q246.9639 12.4062 247.4639 12.8906 Q247.9639 13.375 248.8545 13.375 Q249.3701 13.375 249.8623 13.25 Q250.3545 13.125 250.8232 12.875 L250.8232 13.7188 Q250.3389 13.9219 249.8311 14.0312 Q249.3232 14.1406 248.8076 14.1406 Q247.4951 14.1406 246.7295 13.3828 Q245.9639 12.625 245.9639 11.3125 Q245.9639 9.9688 246.6904 9.1875 Q247.417 8.4062 248.6514 8.4062 Q249.7607 8.4062 250.4014 9.1094 Q251.042 9.8125 251.042 11.0469 ZM250.1357 10.7812 Q250.1357 10.0469 249.7295 9.6016 Q249.3232 9.1562 248.667 9.1562 Q247.9014 9.1562 247.4561 9.5859 Q247.0107 10.0156 246.9326 10.7812 L250.1357 10.7812 ZM255.6787 9.375 Q255.5225 9.2812 255.3506 9.2422 Q255.1787 9.2031 254.96 9.2031 Q254.1943 9.2031 253.7881 9.6953 Q253.3818 10.1875 253.3818 11.125 L253.3818 14 L252.4756 14 L252.4756 8.5312 L253.3818 8.5312 L253.3818 9.375 Q253.6631 8.875 254.1162 8.6406 Q254.5693 8.4062 255.2256 8.4062 Q255.3193 8.4062 255.4287 8.4141 Q255.5381 8.4219 255.6787 8.4531 L255.6787 9.375 Z"
         style="clip-path:url(#clipPath2); stroke:none;"
         clip-path="url(#clipPath2)"
         id="path289" />
      <path
         d="M4.25 21.9375 Q3.3906 21.9375 2.9141 22.5703 Q2.4375 23.2031 2.4375 24.3594 Q2.4375 25.5156 2.9141 26.1484 Q3.3906 26.7812 4.25 26.7812 Q5.1094 26.7812 5.5859 26.1484 Q6.0625 25.5156 6.0625 24.3594 Q6.0625 23.2031 5.5859 22.5703 Q5.1094 21.9375 4.25 21.9375 ZM4.25 20.5781 Q6 20.5781 7 21.5859 Q8 22.5938 8 24.3594 Q8 26.125 7 27.1328 Q6 28.1406 4.25 28.1406 Q2.5 28.1406 1.5 27.1328 Q0.5 26.125 0.5 24.3594 Q0.5 22.5938 1.5 21.5859 Q2.5 20.5781 4.25 20.5781 ZM13.4072 24.0156 Q13.1729 23.9062 12.9463 23.8594 Q12.7197 23.8125 12.4854 23.8125 Q11.8135 23.8125 11.4541 24.2422 Q11.0947 24.6719 11.0947 25.4844 L11.0947 28 L9.3447 28 L9.3447 22.5312 L11.0947 22.5312 L11.0947 23.4219 Q11.4229 22.8906 11.8604 22.6484 Q12.2979 22.4062 12.9072 22.4062 Q13.001 22.4062 13.1025 22.4062 Q13.2041 22.4062 13.3916 22.4375 L13.4072 24.0156 ZM17.9951 27.0781 Q17.6357 27.5469 17.1982 27.7734 Q16.7607 28 16.1982 28 Q15.1982 28 14.542 27.2109 Q13.8857 26.4219 13.8857 25.2031 Q13.8857 23.9688 14.542 23.1875 Q15.1982 22.4062 16.1982 22.4062 Q16.7607 22.4062 17.1982 22.6328 Q17.6357 22.8594 17.9951 23.3438 L17.9951 22.5312 L19.7451 22.5312 L19.7451 27.4531 Q19.7451 28.7656 18.917 29.4609 Q18.0889 30.1562 16.5107 30.1562 Q15.9951 30.1562 15.5186 30.0781 Q15.042 30 14.5576 29.8438 L14.5576 28.4844 Q15.0107 28.75 15.4482 28.875 Q15.8857 29 16.3389 29 Q17.1982 29 17.5967 28.625 Q17.9951 28.25 17.9951 27.4531 L17.9951 27.0781 ZM16.8389 23.6719 Q16.292 23.6719 15.9951 24.0703 Q15.6982 24.4688 15.6982 25.2031 Q15.6982 25.9531 15.9873 26.3438 Q16.2764 26.7344 16.8389 26.7344 Q17.3857 26.7344 17.6904 26.3281 Q17.9951 25.9219 17.9951 25.2031 Q17.9951 24.4688 17.6904 24.0703 Q17.3857 23.6719 16.8389 23.6719 ZM23.8877 25.5312 Q23.3408 25.5312 23.0596 25.7188 Q22.7783 25.9062 22.7783 26.2656 Q22.7783 26.6094 23.0049 26.7969 Q23.2314 26.9844 23.6221 26.9844 Q24.1221 26.9844 24.458 26.625 Q24.7939 26.2656 24.7939 25.7344 L24.7939 25.5312 L23.8877 25.5312 ZM26.5596 24.875 L26.5596 28 L24.7939 28 L24.7939 27.1875 Q24.4346 27.6875 23.9971 27.9141 Q23.5596 28.1406 22.9346 28.1406 Q22.0752 28.1406 21.5518 27.6484 Q21.0283 27.1562 21.0283 26.3594 Q21.0283 25.3906 21.6846 24.9453 Q22.3408 24.5 23.7627 24.5 L24.7939 24.5 L24.7939 24.3594 Q24.7939 23.9531 24.4658 23.7578 Q24.1377 23.5625 23.4502 23.5625 Q22.8877 23.5625 22.4033 23.6719 Q21.9189 23.7812 21.4971 24.0156 L21.4971 22.6719 Q22.0596 22.5469 22.6299 22.4766 Q23.2002 22.4062 23.7627 22.4062 Q25.2471 22.4062 25.9033 22.9844 Q26.5596 23.5625 26.5596 24.875 ZM33.6826 24.6719 L33.6826 28 L31.917 28 L31.917 27.4531 L31.917 25.4531 Q31.917 24.75 31.8857 24.4766 Q31.8545 24.2031 31.7764 24.0781 Q31.6826 23.9062 31.5029 23.8125 Q31.3232 23.7188 31.1045 23.7188 Q30.5576 23.7188 30.2451 24.1406 Q29.9326 24.5625 29.9326 25.3125 L29.9326 28 L28.1826 28 L28.1826 22.5312 L29.9326 22.5312 L29.9326 23.3281 Q30.3232 22.8594 30.7686 22.6328 Q31.2139 22.4062 31.7451 22.4062 Q32.6982 22.4062 33.1904 22.9844 Q33.6826 23.5625 33.6826 24.6719 ZM35.3018 22.5312 L37.0518 22.5312 L37.0518 28 L35.3018 28 L35.3018 22.5312 ZM35.3018 20.4062 L37.0518 20.4062 L37.0518 21.8281 L35.3018 21.8281 L35.3018 20.4062 ZM42.9951 22.7031 L42.9951 24.0312 Q42.4326 23.7969 41.9092 23.6797 Q41.3857 23.5625 40.9326 23.5625 Q40.4326 23.5625 40.1904 23.6875 Q39.9482 23.8125 39.9482 24.0625 Q39.9482 24.2812 40.1279 24.3906 Q40.3076 24.5 40.792 24.5625 L41.0889 24.5938 Q42.4326 24.7656 42.9014 25.1562 Q43.3701 25.5469 43.3701 26.3906 Q43.3701 27.2656 42.7217 27.7031 Q42.0732 28.1406 40.792 28.1406 Q40.2607 28.1406 39.6826 28.0547 Q39.1045 27.9688 38.4795 27.7969 L38.4795 26.4688 Q39.0107 26.7188 39.5576 26.8516 Q40.1045 26.9844 40.667 26.9844 Q41.1826 26.9844 41.4404 26.8438 Q41.6982 26.7031 41.6982 26.4219 Q41.6982 26.1875 41.5264 26.0703 Q41.3545 25.9531 40.8232 25.8906 L40.5107 25.8438 Q39.3389 25.7031 38.8701 25.3047 Q38.4014 24.9062 38.4014 24.1094 Q38.4014 23.2344 38.9951 22.8203 Q39.5889 22.4062 40.8232 22.4062 Q41.3076 22.4062 41.8389 22.4766 Q42.3701 22.5469 42.9951 22.7031 ZM49.7441 23.4375 Q50.0723 22.9375 50.5332 22.6719 Q50.9941 22.4062 51.541 22.4062 Q52.4785 22.4062 52.9707 22.9844 Q53.4629 23.5625 53.4629 24.6719 L53.4629 28 L51.7129 28 L51.7129 25.1406 Q51.7129 25.0781 51.7129 25.0156 Q51.7129 24.9531 51.7129 24.8281 Q51.7129 24.2344 51.5488 23.9766 Q51.3848 23.7188 50.9941 23.7188 Q50.4941 23.7188 50.2285 24.125 Q49.9629 24.5312 49.9473 25.3125 L49.9473 28 L48.1816 28 L48.1816 25.1406 Q48.1816 24.2344 48.0254 23.9766 Q47.8691 23.7188 47.4785 23.7188 Q46.9785 23.7188 46.7051 24.1328 Q46.4316 24.5469 46.4316 25.3125 L46.4316 28 L44.666 28 L44.666 22.5312 L46.4316 22.5312 L46.4316 23.3281 Q46.7441 22.875 47.166 22.6406 Q47.5879 22.4062 48.0879 22.4062 Q48.6504 22.4062 49.0879 22.6797 Q49.5254 22.9531 49.7441 23.4375 ZM55.3828 22.5312 L57.1328 22.5312 L57.1328 24.4219 L55.3828 24.4219 L55.3828 22.5312 ZM55.3828 26.1094 L57.1328 26.1094 L57.1328 28 L55.3828 28 L55.3828 26.1094 Z"
         style="clip-path:url(#clipPath2); stroke:none;"
         clip-path="url(#clipPath2)"
         id="path291" />
      <path
         d="M66.9844 20.7031 L67.9688 20.7031 L67.9688 23.7031 L71.5469 23.7031 L71.5469 20.7031 L72.5312 20.7031 L72.5312 28 L71.5469 28 L71.5469 24.5312 L67.9688 24.5312 L67.9688 28 L66.9844 28 L66.9844 20.7031 ZM76.582 23.1562 Q75.8633 23.1562 75.4414 23.7188 Q75.0195 24.2812 75.0195 25.2656 Q75.0195 26.25 75.4336 26.8125 Q75.8477 27.375 76.582 27.375 Q77.3008 27.375 77.7227 26.8125 Q78.1445 26.25 78.1445 25.2656 Q78.1445 24.2969 77.7227 23.7266 Q77.3008 23.1562 76.582 23.1562 ZM76.582 22.4062 Q77.7539 22.4062 78.4258 23.1641 Q79.0977 23.9219 79.0977 25.2656 Q79.0977 26.6094 78.4258 27.375 Q77.7539 28.1406 76.582 28.1406 Q75.4102 28.1406 74.7383 27.375 Q74.0664 26.6094 74.0664 25.2656 Q74.0664 23.9219 74.7383 23.1641 Q75.4102 22.4062 76.582 22.4062 ZM84.8408 23.5781 Q85.1689 22.9688 85.6377 22.6875 Q86.1064 22.4062 86.7471 22.4062 Q87.6064 22.4062 88.0674 23 Q88.5283 23.5938 88.5283 24.7031 L88.5283 28 L87.6221 28 L87.6221 24.7344 Q87.6221 23.9375 87.3486 23.5625 Q87.0752 23.1875 86.4971 23.1875 Q85.7939 23.1875 85.3955 23.6484 Q84.9971 24.1094 84.9971 24.9062 L84.9971 28 L84.0908 28 L84.0908 24.7344 Q84.0908 23.9375 83.8096 23.5625 Q83.5283 23.1875 82.9502 23.1875 Q82.2627 23.1875 81.8564 23.6484 Q81.4502 24.1094 81.4502 24.9062 L81.4502 28 L80.5439 28 L80.5439 22.5312 L81.4502 22.5312 L81.4502 23.375 Q81.7627 22.875 82.1924 22.6406 Q82.6221 22.4062 83.2002 22.4062 Q83.8096 22.4062 84.2236 22.7031 Q84.6377 23 84.8408 23.5781 ZM92.4414 23.1562 Q91.7227 23.1562 91.3008 23.7188 Q90.8789 24.2812 90.8789 25.2656 Q90.8789 26.25 91.293 26.8125 Q91.707 27.375 92.4414 27.375 Q93.1602 27.375 93.582 26.8125 Q94.0039 26.25 94.0039 25.2656 Q94.0039 24.2969 93.582 23.7266 Q93.1602 23.1562 92.4414 23.1562 ZM92.4414 22.4062 Q93.6133 22.4062 94.2852 23.1641 Q94.957 23.9219 94.957 25.2656 Q94.957 26.6094 94.2852 27.375 Q93.6133 28.1406 92.4414 28.1406 Q91.2695 28.1406 90.5977 27.375 Q89.9258 26.6094 89.9258 25.2656 Q89.9258 23.9219 90.5977 23.1641 Q91.2695 22.4062 92.4414 22.4062 ZM103.0977 22.6875 L103.0977 23.5469 Q102.7227 23.3438 102.3164 23.25 Q101.9102 23.1562 101.457 23.1562 Q100.8008 23.1562 100.4648 23.3594 Q100.1289 23.5625 100.1289 23.9688 Q100.1289 24.2812 100.3633 24.4609 Q100.5977 24.6406 101.332 24.7969 L101.6289 24.875 Q102.5977 25.0781 102.9961 25.4531 Q103.3945 25.8281 103.3945 26.4844 Q103.3945 27.25 102.793 27.6953 Q102.1914 28.1406 101.1445 28.1406 Q100.6914 28.1406 100.2148 28.0547 Q99.7383 27.9688 99.2227 27.7969 L99.2227 26.875 Q99.7227 27.125 100.1992 27.2578 Q100.6758 27.3906 101.1602 27.3906 Q101.7852 27.3906 102.1289 27.1719 Q102.4727 26.9531 102.4727 26.5625 Q102.4727 26.1875 102.2305 25.9922 Q101.9883 25.7969 101.1445 25.625 L100.832 25.5469 Q100.0039 25.375 99.6289 25.0078 Q99.2539 24.6406 99.2539 24.0156 Q99.2539 23.2344 99.8008 22.8203 Q100.3477 22.4062 101.3633 22.4062 Q101.8477 22.4062 102.293 22.4766 Q102.7383 22.5469 103.0977 22.6875 ZM107.3076 25.25 Q106.2295 25.25 105.8076 25.5 Q105.3857 25.75 105.3857 26.3438 Q105.3857 26.8281 105.6982 27.1094 Q106.0107 27.3906 106.5576 27.3906 Q107.3076 27.3906 107.7607 26.8594 Q108.2139 26.3281 108.2139 25.4531 L108.2139 25.25 L107.3076 25.25 ZM109.1045 24.875 L109.1045 28 L108.2139 28 L108.2139 27.1719 Q107.9014 27.6719 107.4404 27.9062 Q106.9795 28.1406 106.3232 28.1406 Q105.4795 28.1406 104.9795 27.6719 Q104.4795 27.2031 104.4795 26.4062 Q104.4795 25.4844 105.1045 25.0156 Q105.7295 24.5469 106.9482 24.5469 L108.2139 24.5469 L108.2139 24.4531 Q108.2139 23.8438 107.7998 23.5 Q107.3857 23.1562 106.6514 23.1562 Q106.1826 23.1562 105.7373 23.2734 Q105.292 23.3906 104.8857 23.6094 L104.8857 22.7812 Q105.3857 22.5938 105.8467 22.5 Q106.3076 22.4062 106.7451 22.4062 Q107.9326 22.4062 108.5186 23.0156 Q109.1045 23.625 109.1045 24.875 ZM111.8262 27.1719 L111.8262 30.0781 L110.9199 30.0781 L110.9199 22.5312 L111.8262 22.5312 L111.8262 23.3594 Q112.1074 22.875 112.5371 22.6406 Q112.9668 22.4062 113.5762 22.4062 Q114.5762 22.4062 115.1934 23.1953 Q115.8105 23.9844 115.8105 25.2656 Q115.8105 26.5625 115.1934 27.3516 Q114.5762 28.1406 113.5762 28.1406 Q112.9668 28.1406 112.5371 27.9062 Q112.1074 27.6719 111.8262 27.1719 ZM114.8887 25.2656 Q114.8887 24.2812 114.4746 23.7188 Q114.0605 23.1562 113.3574 23.1562 Q112.6387 23.1562 112.2324 23.7188 Q111.8262 24.2812 111.8262 25.2656 Q111.8262 26.2656 112.2324 26.8281 Q112.6387 27.3906 113.3574 27.3906 Q114.0605 27.3906 114.4746 26.8281 Q114.8887 26.2656 114.8887 25.2656 ZM117.2988 22.5312 L118.2051 22.5312 L118.2051 28 L117.2988 28 L117.2988 22.5312 ZM117.2988 20.4062 L118.2051 20.4062 L118.2051 21.5469 L117.2988 21.5469 L117.2988 20.4062 ZM124.7646 25.0469 L124.7646 25.4844 L120.624 25.4844 Q120.6865 26.4062 121.1865 26.8906 Q121.6865 27.375 122.5771 27.375 Q123.0928 27.375 123.585 27.25 Q124.0771 27.125 124.5459 26.875 L124.5459 27.7188 Q124.0615 27.9219 123.5537 28.0312 Q123.0459 28.1406 122.5303 28.1406 Q121.2178 28.1406 120.4521 27.3828 Q119.6865 26.625 119.6865 25.3125 Q119.6865 23.9688 120.4131 23.1875 Q121.1396 22.4062 122.374 22.4062 Q123.4834 22.4062 124.124 23.1094 Q124.7646 23.8125 124.7646 25.0469 ZM123.8584 24.7812 Q123.8584 24.0469 123.4521 23.6016 Q123.0459 23.1562 122.3896 23.1562 Q121.624 23.1562 121.1787 23.5859 Q120.7334 24.0156 120.6553 24.7812 L123.8584 24.7812 ZM130.7764 24.7031 L130.7764 28 L129.8857 28 L129.8857 24.7344 Q129.8857 23.9531 129.5811 23.5703 Q129.2764 23.1875 128.667 23.1875 Q127.9482 23.1875 127.5264 23.6484 Q127.1045 24.1094 127.1045 24.9062 L127.1045 28 L126.1982 28 L126.1982 22.5312 L127.1045 22.5312 L127.1045 23.375 Q127.4326 22.8906 127.8701 22.6484 Q128.3076 22.4062 128.8701 22.4062 Q129.8076 22.4062 130.292 22.9844 Q130.7764 23.5625 130.7764 24.7031 ZM136.0518 22.6875 L136.0518 23.5469 Q135.6768 23.3438 135.2705 23.25 Q134.8643 23.1562 134.4111 23.1562 Q133.7549 23.1562 133.4189 23.3594 Q133.083 23.5625 133.083 23.9688 Q133.083 24.2812 133.3174 24.4609 Q133.5518 24.6406 134.2861 24.7969 L134.583 24.875 Q135.5518 25.0781 135.9502 25.4531 Q136.3486 25.8281 136.3486 26.4844 Q136.3486 27.25 135.7471 27.6953 Q135.1455 28.1406 134.0986 28.1406 Q133.6455 28.1406 133.1689 28.0547 Q132.6924 27.9688 132.1768 27.7969 L132.1768 26.875 Q132.6768 27.125 133.1533 27.2578 Q133.6299 27.3906 134.1143 27.3906 Q134.7393 27.3906 135.083 27.1719 Q135.4268 26.9531 135.4268 26.5625 Q135.4268 26.1875 135.1846 25.9922 Q134.9424 25.7969 134.0986 25.625 L133.7861 25.5469 Q132.958 25.375 132.583 25.0078 Q132.208 24.6406 132.208 24.0156 Q132.208 23.2344 132.7549 22.8203 Q133.3018 22.4062 134.3174 22.4062 Q134.8018 22.4062 135.2471 22.4766 Q135.6924 22.5469 136.0518 22.6875 Z"
         style="clip-path:url(#clipPath2); stroke:none;"
         clip-path="url(#clipPath2)"
         id="path293" />
    </g>
    <g
       style="fill:navy; text-rendering:geometricPrecision; font-size:8; stroke:navy;"
       id="g299">
      <text
         x="956"
         xml:space="preserve"
         y="679"
         style="clip-path:url(#clipPath4); stroke:none;"
         clip-path="url(#clipPath4)"
         id="text297">14, 18, 19</text>
    </g>
    <g
       style="fill:navy; text-rendering:geometricPrecision; font-size:8; stroke:navy;"
       id="g303">
      <text
         x="474"
         xml:space="preserve"
         y="308"
         style="clip-path:url(#clipPath6); stroke:none;"
         clip-path="url(#clipPath6)"
         id="text301">4</text>
    </g>
    <g
       style="fill:navy; text-rendering:geometricPrecision; font-size:8; stroke:navy;"
       id="g307">
      <text
         x="527"
         xml:space="preserve"
         y="501"
         style="clip-path:url(#clipPath8); stroke:none;"
         clip-path="url(#clipPath8)"
         id="text305">2, 25, 30</text>
    </g>
    <g
       style="text-rendering:geometricPrecision;"
       id="g315">
      <path
         d="M253 499 L400.8039 503.3361"
         style="fill:none; clip-path:url(#clipPath9);"
         clip-path="url(#clipPath9)"
         id="path309" />
      <path
         d="M400.9564 498.1383 L412.4988 503.6792 L400.6514 508.5338 Z"
         style="fill:white; clip-path:url(#clipPath9); stroke:none;"
         clip-path="url(#clipPath9)"
         id="path311" />
      <path
         d="M400.9564 498.1383 L412.4988 503.6792 L400.6514 508.5338 Z"
         style="fill:none; clip-path:url(#clipPath9);"
         clip-path="url(#clipPath9)"
         id="path313" />
    </g>
    <g
       style="fill:navy; text-rendering:geometricPrecision; font-size:8; stroke:navy;"
       id="g319">
      <text
         x="345"
         xml:space="preserve"
         y="499"
         style="clip-path:url(#clipPath11); stroke:none;"
         clip-path="url(#clipPath11)"
         id="text317">24, 28</text>
    </g>
    <g
       style="fill:white; text-rendering:geometricPrecision; stroke:white;"
       id="g327">
      <path
         d="M163 477.5 L253 477.5 L253 520.5 L163 520.5 L163 477.5 Z"
         style="clip-path:url(#clipPath12); stroke:none;"
         clip-path="url(#clipPath12)"
         id="path321" />
      <path
         d="M163 477.5 L253 477.5 L253 520.5 L163 520.5 L163 477.5 Z"
         style="fill:none; clip-path:url(#clipPath12); stroke:black;"
         clip-path="url(#clipPath12)"
         id="path323" />
      <text
         x="193"
         y="503"
         style="fill:black; clip-path:url(#clipPath12); stroke:none;"
         xml:space="preserve"
         clip-path="url(#clipPath12)"
         id="text325">KSR1</text>
    </g>
    <g
       style="fill:navy; text-rendering:geometricPrecision; font-size:8; stroke:navy;"
       id="g331">
      <text
         x="247"
         xml:space="preserve"
         y="474"
         style="clip-path:url(#clipPath14); stroke:none;"
         clip-path="url(#clipPath14)"
         id="text329">24</text>
    </g>
    <g
       style="text-rendering:geometricPrecision;"
       id="g335">
      <text
         x="840"
         xml:space="preserve"
         y="818"
         style="clip-path:url(#clipPath15); stroke:none;"
         clip-path="url(#clipPath15)"
         id="text333">Nucleus</text>
    </g>
    <g
       style="font-size:14; text-rendering:geometricPrecision;"
       id="g339">
      <text
         x="1058"
         xml:space="preserve"
         y="834"
         style="clip-path:url(#clipPath16); stroke:none;"
         clip-path="url(#clipPath16)"
         id="text337">Cytoplasm</text>
    </g>
    <g
       style="fill:white; text-rendering:geometricPrecision; stroke:white;"
       id="g347">
      <path
         d="M352 728.5 L442 728.5 L442 771.5 L352 771.5 L352 728.5 Z"
         style="clip-path:url(#clipPath17); stroke:none;"
         clip-path="url(#clipPath17)"
         id="path341" />
      <path
         d="M352 728.5 L442 728.5 L442 771.5 L352 771.5 L352 728.5 Z"
         style="fill:none; clip-path:url(#clipPath17); stroke:black;"
         clip-path="url(#clipPath17)"
         id="path343" />
      <text
         x="373"
         y="754"
         style="fill:black; clip-path:url(#clipPath17); stroke:none;"
         xml:space="preserve"
         clip-path="url(#clipPath17)"
         id="text345">MAP2K2</text>
    </g>
    <g
       style="text-rendering:geometricPrecision;"
       id="g355">
      <path
         d="M870 332 L820.993 357.3633"
         style="fill:none; clip-path:url(#clipPath18);"
         clip-path="url(#clipPath18)"
         id="path349" />
      <path
         d="M823.3831 361.9814 L810.6021 362.741 L818.6028 352.7451 ZM830.3103 358.3963 L825.5301 349.16"
         style="fill:white; clip-path:url(#clipPath18); stroke:none;"
         clip-path="url(#clipPath18)"
         id="path351" />
      <path
         d="M823.3831 361.9814 L810.6021 362.741 L818.6028 352.7451 ZM830.3103 358.3963 L825.5301 349.16"
         style="fill:none; clip-path:url(#clipPath18);"
         clip-path="url(#clipPath18)"
         id="path353" />
    </g>
    <g
       style="text-rendering:geometricPrecision;"
       id="g363">
      <path
         d="M768 383 L738.8943 378.5001"
         style="fill:none; clip-path:url(#clipPath19);"
         clip-path="url(#clipPath19)"
         id="path357" />
      <path
         d="M738.0998 383.6391 L727.3317 376.7125 L739.6888 373.3612 Z"
         style="fill:white; clip-path:url(#clipPath19); stroke:none;"
         clip-path="url(#clipPath19)"
         id="path359" />
      <path
         d="M738.0998 383.6391 L727.3317 376.7125 L739.6888 373.3612 Z"
         style="fill:none; clip-path:url(#clipPath19);"
         clip-path="url(#clipPath19)"
         id="path361" />
    </g>
    <g
       style="fill:navy; text-rendering:geometricPrecision; font-size:8; stroke:navy;"
       id="g367">
      <text
         x="814"
         xml:space="preserve"
         y="349"
         style="clip-path:url(#clipPath21); stroke:none;"
         clip-path="url(#clipPath21)"
         id="text365">3, 19</text>
    </g>
    <g
       style="fill:navy; text-rendering:geometricPrecision; font-size:8; stroke:navy;"
       id="g371">
      <text
         x="723"
         xml:space="preserve"
         y="376"
         style="clip-path:url(#clipPath23); stroke:none;"
         clip-path="url(#clipPath23)"
         id="text369">12, 19</text>
    </g>
    <g
       style="text-rendering:geometricPrecision;"
       id="g379">
      <path
         d="M404.75 606.5 L397.9904 667.5547"
         style="fill:none; clip-path:url(#clipPath24);"
         clip-path="url(#clipPath24)"
         id="path373" />
      <path
         d="M403.1588 668.1269 L396.7029 679.1836 L392.822 666.9824 Z"
         style="fill:white; clip-path:url(#clipPath24); stroke:none;"
         clip-path="url(#clipPath24)"
         id="path375" />
      <path
         d="M403.1588 668.1269 L396.7029 679.1836 L392.822 666.9824 Z"
         style="fill:none; clip-path:url(#clipPath24);"
         clip-path="url(#clipPath24)"
         id="path377" />
    </g>
    <g
       style="text-rendering:geometricPrecision;"
       id="g385">
      <path
         d="M441 348 L401.4589 392.7553"
         style="fill:none; clip-path:url(#clipPath25);"
         clip-path="url(#clipPath25)"
         id="path381" />
      <path
         d="M405.3559 396.1982 L393.7123 401.5234 L397.562 389.3123 Z"
         style="clip-path:url(#clipPath25); stroke:none;"
         clip-path="url(#clipPath25)"
         id="path383" />
    </g>
    <g
       style="fill:navy; text-rendering:geometricPrecision; font-size:8; stroke:navy;"
       id="g389">
      <text
         x="373"
         xml:space="preserve"
         y="652"
         style="clip-path:url(#clipPath27); stroke:none;"
         clip-path="url(#clipPath27)"
         id="text387">14, 19, 28</text>
    </g>
    <g
       style="fill:navy; text-rendering:geometricPrecision; font-size:8; stroke:navy;"
       id="g393">
      <text
         x="393"
         xml:space="preserve"
         y="381"
         style="clip-path:url(#clipPath29); stroke:none;"
         clip-path="url(#clipPath29)"
         id="text391">4, 12</text>
    </g>
    <g
       style="text-rendering:geometricPrecision;"
       id="g401">
      <path
         d="M450 702.25 L581.0017 704.8232"
         style="fill:none; clip-path:url(#clipPath30);"
         clip-path="url(#clipPath30)"
         id="path395" />
      <path
         d="M581.1039 699.6243 L592.6995 705.053 L580.8996 710.0222 Z"
         style="fill:white; clip-path:url(#clipPath30); stroke:none;"
         clip-path="url(#clipPath30)"
         id="path397" />
      <path
         d="M581.1039 699.6243 L592.6995 705.053 L580.8996 710.0222 Z"
         style="fill:none; clip-path:url(#clipPath30);"
         clip-path="url(#clipPath30)"
         id="path399" />
    </g>
    <g
       style="fill:navy; text-rendering:geometricPrecision; font-size:8; stroke:navy;"
       id="g405">
      <text
         x="522"
         xml:space="preserve"
         y="701"
         style="clip-path:url(#clipPath32); stroke:none;"
         clip-path="url(#clipPath32)"
         id="text403">14, 19, 28</text>
    </g>
    <g
       style="text-rendering:geometricPrecision;"
       id="g413">
      <path
         d="M633.5 377.125 L431.7926 368.9638"
         style="fill:none; clip-path:url(#clipPath33);"
         clip-path="url(#clipPath33)"
         id="path407" />
      <path
         d="M431.5824 374.1596 L420.1022 368.4908 L432.0029 363.7681 ZM439.376 374.4749 L439.7965 364.0834"
         style="fill:white; clip-path:url(#clipPath33); stroke:none;"
         clip-path="url(#clipPath33)"
         id="path409" />
      <path
         d="M431.5824 374.1596 L420.1022 368.4908 L432.0029 363.7681 ZM439.376 374.4749 L439.7965 364.0834"
         style="fill:none; clip-path:url(#clipPath33);"
         clip-path="url(#clipPath33)"
         id="path411" />
    </g>
    <g
       style="fill:navy; text-rendering:geometricPrecision; font-size:8; stroke:navy;"
       id="g417">
      <text
         x="463"
         xml:space="preserve"
         y="368"
         style="clip-path:url(#clipPath35); stroke:none;"
         clip-path="url(#clipPath35)"
         id="text415">9, 12, 19</text>
    </g>
    <g
       style="text-rendering:geometricPrecision;"
       id="g425">
      <path
         d="M635 683.5 L439.9496 601.2207"
         style="fill:none; clip-path:url(#clipPath36);"
         clip-path="url(#clipPath36)"
         id="path419" />
      <path
         d="M436.4128 609.6052 L435.2149 609.1 L442.794 591.1331 L443.9918 591.6384 L436.4128 609.6052 Z"
         style="fill:white; clip-path:url(#clipPath36); stroke:none;"
         clip-path="url(#clipPath36)"
         id="path421" />
      <path
         d="M436.4128 609.6052 L435.2149 609.1 L442.794 591.1331 L443.9918 591.6384 L436.4128 609.6052 Z"
         style="fill:none; clip-path:url(#clipPath36);"
         clip-path="url(#clipPath36)"
         id="path423" />
    </g>
    <g
       style="text-rendering:geometricPrecision;"
       id="g433">
      <path
         d="M424 469 L484.4312 507.8804"
         style="fill:none; clip-path:url(#clipPath37);"
         clip-path="url(#clipPath37)"
         id="path427" />
      <path
         d="M487.2448 503.5073 L494.2706 514.2109 L481.6176 512.2535 Z"
         style="fill:white; clip-path:url(#clipPath37); stroke:none;"
         clip-path="url(#clipPath37)"
         id="path429" />
      <path
         d="M487.2448 503.5073 L494.2706 514.2109 L481.6176 512.2535 Z"
         style="fill:none; clip-path:url(#clipPath37);"
         clip-path="url(#clipPath37)"
         id="path431" />
    </g>
    <g
       style="fill:navy; text-rendering:geometricPrecision; font-size:8; stroke:navy;"
       id="g437">
      <text
         x="476"
         xml:space="preserve"
         y="621"
         style="clip-path:url(#clipPath39); stroke:none;"
         clip-path="url(#clipPath39)"
         id="text435">20, 23</text>
    </g>
    <g
       style="text-rendering:geometricPrecision;"
       id="g445">
      <path
         d="M839.5 705 L872.0073 706.3055"
         style="fill:none; clip-path:url(#clipPath40);"
         clip-path="url(#clipPath40)"
         id="path439" />
      <path
         d="M872.2159 701.1097 L883.6978 706.775 L871.7986 711.5013 Z"
         style="fill:white; clip-path:url(#clipPath40); stroke:none;"
         clip-path="url(#clipPath40)"
         id="path441" />
      <path
         d="M872.2159 701.1097 L883.6978 706.775 L871.7986 711.5013 Z"
         style="fill:none; clip-path:url(#clipPath40);"
         clip-path="url(#clipPath40)"
         id="path443" />
    </g>
    <g
       style="fill:navy; text-rendering:geometricPrecision; font-size:8; stroke:navy;"
       id="g449">
      <text
         x="453"
         xml:space="preserve"
         y="496"
         style="clip-path:url(#clipPath42); stroke:none;"
         clip-path="url(#clipPath42)"
         id="text447">23, 28</text>
    </g>
    <g
       style="fill:navy; text-rendering:geometricPrecision; font-size:8; stroke:navy;"
       id="g453">
      <text
         x="850"
         xml:space="preserve"
         y="703"
         style="clip-path:url(#clipPath44); stroke:none;"
         clip-path="url(#clipPath44)"
         id="text451">14, 19</text>
    </g>
    <g
       style="text-rendering:geometricPrecision;"
       id="g461">
      <path
         d="M680 705 L740.5 705"
         style="fill:none; clip-path:url(#clipPath45);"
         clip-path="url(#clipPath45)"
         id="path455" />
      <path
         d="M740.5 699.8 L752.2 705 L740.5 710.2 Z"
         style="fill:white; clip-path:url(#clipPath45); stroke:none;"
         clip-path="url(#clipPath45)"
         id="path457" />
      <path
         d="M740.5 699.8 L752.2 705 L740.5 710.2 Z"
         style="fill:none; clip-path:url(#clipPath45);"
         clip-path="url(#clipPath45)"
         id="path459" />
    </g>
    <g
       style="text-rendering:geometricPrecision;"
       id="g469">
      <path
         d="M870 332 L911.409 355.332"
         style="fill:none; clip-path:url(#clipPath46);"
         clip-path="url(#clipPath46)"
         id="path463" />
      <path
         d="M913.9617 350.8016 L921.6023 361.0754 L908.8564 359.8623 ZM907.1661 346.9727 L902.0609 356.0334"
         style="fill:white; clip-path:url(#clipPath46); stroke:none;"
         clip-path="url(#clipPath46)"
         id="path465" />
      <path
         d="M913.9617 350.8016 L921.6023 361.0754 L908.8564 359.8623 ZM907.1661 346.9727 L902.0609 356.0334"
         style="fill:none; clip-path:url(#clipPath46);"
         clip-path="url(#clipPath46)"
         id="path467" />
    </g>
    <g
       style="fill:navy; text-rendering:geometricPrecision; font-size:8; stroke:navy;"
       id="g473">
      <text
         x="710"
         xml:space="preserve"
         y="702"
         style="clip-path:url(#clipPath48); stroke:none;"
         clip-path="url(#clipPath48)"
         id="text471">14, 19</text>
    </g>
    <g
       style="fill:navy; text-rendering:geometricPrecision; font-size:8; stroke:navy;"
       id="g477">
      <text
         x="889"
         xml:space="preserve"
         y="348"
         style="clip-path:url(#clipPath50); stroke:none;"
         clip-path="url(#clipPath50)"
         id="text475">3, 19</text>
    </g>
    <g
       style="text-rendering:geometricPrecision;"
       id="g485">
      <path
         d="M424 469 L391.9171 547.1739"
         style="fill:none; clip-path:url(#clipPath51);"
         clip-path="url(#clipPath51)"
         id="path479" />
      <path
         d="M396.7277 549.1482 L387.4749 557.9978 L387.1064 545.1996 Z"
         style="fill:white; clip-path:url(#clipPath51); stroke:none;"
         clip-path="url(#clipPath51)"
         id="path481" />
      <path
         d="M396.7277 549.1482 L387.4749 557.9978 L387.1064 545.1996 Z"
         style="fill:none; clip-path:url(#clipPath51);"
         clip-path="url(#clipPath51)"
         id="path483" />
    </g>
    <g
       style="fill:navy; text-rendering:geometricPrecision; font-size:8; stroke:navy;"
       id="g489">
      <text
         x="381"
         xml:space="preserve"
         y="526"
         style="clip-path:url(#clipPath53); stroke:none;"
         clip-path="url(#clipPath53)"
         id="text487">23, 28</text>
    </g>
    <g
       style="text-rendering:geometricPrecision;"
       id="g497">
      <path
         d="M635 683.5 L635 572 M635 572 L813 572 M813 572 L813 411.5"
         style="fill:none; clip-path:url(#clipPath54);"
         clip-path="url(#clipPath54)"
         id="path491" />
      <path
         d="M803.9 411.5 L803.9 410.2 L823.4 410.2 L823.4 411.5 L803.9 411.5 Z"
         style="fill:white; clip-path:url(#clipPath54); stroke:none;"
         clip-path="url(#clipPath54)"
         id="path493" />
      <path
         d="M803.9 411.5 L803.9 410.2 L823.4 410.2 L823.4 411.5 L803.9 411.5 Z"
         style="fill:none; clip-path:url(#clipPath54);"
         clip-path="url(#clipPath54)"
         id="path495" />
    </g>
    <g
       style="fill:silver; text-rendering:geometricPrecision; stroke:silver;"
       id="g501">
      <path
         d="M1023 737.5 L1023 737.5 L1023 737.5 L1024.5 737.5 L1024.5 739 C1024.5 799.2998 952.6302 845.5 868 845.5 L866.5 845.5 L866.5 844 L866.5 841 L868 841 L869.5 841 L869.5 844 L869.5 845.5 L868 845.5 C783.3698 845.5 711.5 799.2998 711.5 739 L711.5 737.5 L713 737.5 L716 737.5 L716 739 L716 740.5 L713 740.5 L711.5 740.5 L711.5 739 C711.5 678.7002 783.3698 632.5 868 632.5 L869.5 632.5 L869.5 634 L869.5 637 L868 637 L866.5 637 L866.5 634 L866.5 632.5 L868 632.5 C952.6302 632.5 1024.5 678.7002 1024.5 739 L1024.5 740.5 L1023 740.5 L1020 740.5 L1020 739 L1020 737.5 L1023 737.5 L1024.5 737.5 L1024.5 740.5 L1023 740.5 L1020 740.5 L1020 737.5 L1023 737.5 L1023 739 L1021.5 739 C1021.5 681.348 952.1799 635.5 868 635.5 L868 634 L869.5 634 L869.5 637 L866.5 637 L866.5 634 L868 634 L868 635.5 C783.8201 635.5 714.5 681.348 714.5 739 L713 739 L713 737.5 L716 737.5 L716 740.5 L713 740.5 L713 739 L714.5 739 C714.5 796.652 783.8201 842.5 868 842.5 L868 844 L866.5 844 L866.5 841 L869.5 841 L869.5 844 L868 844 L868 842.5 C952.1799 842.5 1021.5 796.652 1021.5 739 L1023 739 L1023 740.5 L1023 740.5 L1021.5 740.5 L1021.5 737.5 ZM1017 737.5 L1017 737.5 L1017 737.5 L1017 739 L1015.5 739 C1015.5 686.6287 951.2568 641.5 868 641.5 L868 640 L868 638.5 L868 638.5 L868 640 L868 641.5 C784.7432 641.5 720.5 686.6287 720.5 739 L719 739 L719 737.5 L719 737.5 L720.5 737.5 L720.5 739 C720.5 791.3713 784.7432 836.5 868 836.5 L868 838 L868 836.5 L868 836.5 L868 838 L868 836.5 C951.2568 836.5 1015.5 791.3713 1015.5 739 L1015.5 737.5 L1017 737.5 M1017 740.5 L1017 739 L1018.5 739 C1018.5 794.009 951.7224 839.5 868 839.5 L868 839.5 L868 839.5 L868 839.5 C784.2776 839.5 717.5 794.009 717.5 739 L719 739 L719 740.5 L719 740.5 L717.5 740.5 L717.5 739 C717.5 683.991 784.2776 638.5 868 638.5 L868 641.5 L868 641.5 L868 638.5 C951.7224 638.5 1018.5 683.991 1018.5 739 L1018.5 740.5 L1017 740.5 L1017 740.5 Z"
         style="clip-path:url(#clipPath55); stroke:none;"
         clip-path="url(#clipPath55)"
         id="path499" />
    </g>
    <g
       style="fill:silver; text-rendering:geometricPrecision; stroke:silver;"
       id="g505">
      <path
         d="M135 312.5 L135 312.5 L135 312.5 L136.5 312.5 L136.5 314 L136.5 853 L136.5 854.5 L135 854.5 L132 854.5 L132 853 L132 851.5 L135 851.5 L136.5 851.5 L136.5 853 C136.5 856.0374 138.9625 858.5 142 858.5 L143.5 858.5 L143.5 860 L143.5 863 L142 863 L140.5 863 L140.5 860 L140.5 858.5 L142 858.5 L1149 858.5 L1150.5 858.5 L1150.5 860 L1150.5 863 L1149 863 L1147.5 863 L1147.5 860 L1147.5 858.5 L1149 858.5 C1152.0375 858.5 1154.5 856.0374 1154.5 853 L1154.5 851.5 L1156 851.5 L1159 851.5 L1159 853 L1159 854.5 L1156 854.5 L1154.5 854.5 L1154.5 853 L1154.5 314 L1154.5 312.5 L1156 312.5 L1159 312.5 L1159 314 L1159 315.5 L1156 315.5 L1154.5 315.5 L1154.5 314 C1154.5 310.9625 1152.0375 308.5 1149 308.5 L1147.5 308.5 L1147.5 307 L1147.5 304 L1149 304 L1150.5 304 L1150.5 307 L1150.5 308.5 L1149 308.5 L142 308.5 L140.5001 308.5 L140.5 307 L140.5 304 L142 304 L143.5 304 L143.5 307 L143.5 308.5 L142 308.5 C138.9624 308.5 136.5 310.9625 136.5 314 L136.5 315.5 L135 315.5 L132 315.5 L132 314 L132 312.5 L135 312.5 L136.5 312.5 L136.5 315.5 L135 315.5 L132 315.5 L132 312.5 L135 312.5 L135 314 L133.5 314 C133.5 309.3057 137.3056 305.5 142 305.5 L142 307 L140.5 307 L140.5 304 L143.5 304 L143.5 307 L142 307 L142 305.5 L1149 305.5 L1149 307 L1147.5 307 L1147.5 304 L1150.5 304 L1150.5 307 L1149 307 L1149 305.5 C1153.6943 305.5 1157.5 309.3056 1157.5 314 L1156 314 L1156 312.5 L1159 312.5 L1159 315.5 L1156 315.5 L1156 314 L1157.5 314 L1157.5 853 L1156 853 L1156 851.5 L1159 851.5 L1159 854.5 L1156 854.5 L1156 853 L1157.5 853 C1157.5 857.6943 1153.6943 861.5 1149 861.5 L1149 860 L1150.5 860 L1150.5 863 L1147.5 863 L1147.5 860 L1149 860 L1149 861.5 L142 861.5 L142 860 L143.5 860 L143.5 863 L140.5 863 L140.5 860 L142 860 L142 861.5 C137.3056 861.5 133.5 857.6943 133.5 853 L135 853 L135 854.5 L132 854.5 L132 851.5 L135 851.5 L135 853 L133.5 853 L133.5 314 L135 314 L135 315.5 L135 315.5 L133.5 315.5 L133.5 312.5 ZM129 312.5 L129 312.5 L129 312.5 L129 314 L127.5 314 C127.5 305.9919 133.9919 299.5 142 299.5 L142 301 L142 299.5 L142 299.5 L142 301 L142 299.5 L1149 299.5 L1149 301 L1149 299.5 L1149 299.5 L1149 301 L1149 299.5 C1157.0082 299.5 1163.5 305.992 1163.5 314 L1162 314 L1162 312.5 L1162 312.5 L1163.5 312.5 L1163.5 314 L1163.5 853 L1162 853 L1162 851.5 L1162 851.5 L1163.5 851.5 L1163.5 853 C1163.5 861.0078 1157.0082 867.5 1149 867.5 L1149 866 L1149 864.5 L1149 864.5 L1149 866 L1149 867.5 L142 867.5 L142 866 L142 864.5 L142 864.5 L142 866 L142 867.5 C133.9919 867.5 127.5 861.0078 127.5 853 L127.5 851.5 L129 851.5 L129 851.5 L129 853 L127.5 853 L127.5 314 L127.5 312.5 L129 312.5 M129 315.5 L129 314 L130.5 314 L130.5 853 L130.5 854.5 L129 854.5 L129 854.5 L129 853 L130.5 853 C130.5 859.3511 135.6488 864.5 142 864.5 L142 867.5 L142 867.5 L142 864.5 L1149 864.5 L1149 867.5 L1149 867.5 L1149 864.5 C1155.3512 864.5 1160.5 859.3509 1160.5 853 L1162 853 L1162 854.5 L1162 854.5 L1160.5 854.5 L1160.5 853 L1160.5 314 L1162 314 L1162 315.5 L1162 315.5 L1160.5 315.5 L1160.5 314 C1160.5 307.6488 1155.3512 302.5 1149 302.5 L1149 302.5 L1149 302.5 L1149 302.5 L142 302.5 L142 302.5 L142 302.5 L142 302.5 C135.6488 302.5 130.5 307.6487 130.5 314 L130.5 315.5 L129 315.5 L129 315.5 Z"
         style="clip-path:url(#clipPath56); stroke:none;"
         clip-path="url(#clipPath56)"
         id="path503" />
    </g>
    <g
       style="fill:white; text-rendering:geometricPrecision; stroke:white;"
       id="g513">
      <path
         d="M889 750.6667 L969 750.6667 L969 770.6667 L889 770.6667 L889 750.6667 Z"
         style="clip-path:url(#clipPath57); stroke:none;"
         clip-path="url(#clipPath57)"
         id="path507" />
      <path
         d="M889 750.6667 L969 750.6667 L969 770.6667 L889 770.6667 L889 750.6667 Z"
         style="fill:none; clip-path:url(#clipPath57); stroke:black;"
         clip-path="url(#clipPath57)"
         id="path509" />
      <text
         x="914"
         y="765"
         style="fill:black; clip-path:url(#clipPath57); stroke:none;"
         xml:space="preserve"
         clip-path="url(#clipPath57)"
         id="text511">ELK1</text>
    </g>
    <g
       style="fill:white; text-rendering:geometricPrecision; stroke:white;"
       id="g521">
      <path
         d="M889 690.6667 L969 690.6667 L969 710.6667 L889 710.6667 L889 690.6667 Z"
         style="clip-path:url(#clipPath58); stroke:none;"
         clip-path="url(#clipPath58)"
         id="path515" />
      <path
         d="M889 690.6667 L969 690.6667 L969 710.6667 L889 710.6667 L889 690.6667 Z"
         style="fill:none; clip-path:url(#clipPath58); stroke:black;"
         clip-path="url(#clipPath58)"
         id="path517" />
      <text
         x="911"
         y="705"
         style="fill:black; clip-path:url(#clipPath58); stroke:none;"
         xml:space="preserve"
         clip-path="url(#clipPath58)"
         id="text519">c-FOS</text>
    </g>
    <g
       style="fill:white; text-rendering:geometricPrecision; stroke:white;"
       id="g529">
      <path
         d="M889 730.6667 L969 730.6667 L969 750.6667 L889 750.6667 L889 730.6667 Z"
         style="clip-path:url(#clipPath59); stroke:none;"
         clip-path="url(#clipPath59)"
         id="path523" />
      <path
         d="M889 730.6667 L969 730.6667 L969 750.6667 L889 750.6667 L889 730.6667 Z"
         style="fill:none; clip-path:url(#clipPath59); stroke:black;"
         clip-path="url(#clipPath59)"
         id="path525" />
      <text
         x="910"
         y="745"
         style="fill:black; clip-path:url(#clipPath59); stroke:none;"
         xml:space="preserve"
         clip-path="url(#clipPath59)"
         id="text527">c-MYC</text>
    </g>
    <g
       style="fill:white; text-rendering:geometricPrecision; stroke:white;"
       id="g537">
      <path
         d="M889 710.6667 L969 710.6667 L969 730.6667 L889 730.6667 L889 710.6667 Z"
         style="clip-path:url(#clipPath60); stroke:none;"
         clip-path="url(#clipPath60)"
         id="path531" />
      <path
         d="M889 710.6667 L969 710.6667 L969 730.6667 L889 730.6667 L889 710.6667 Z"
         style="fill:none; clip-path:url(#clipPath60); stroke:black;"
         clip-path="url(#clipPath60)"
         id="path533" />
      <text
         x="912"
         y="725"
         style="fill:black; clip-path:url(#clipPath60); stroke:none;"
         xml:space="preserve"
         clip-path="url(#clipPath60)"
         id="text535">c-JUN</text>
    </g>
    <g
       style="fill:white; text-rendering:geometricPrecision; stroke:white;"
       id="g545">
      <path
         d="M447 512.75 L537 512.75 L537 555.75 L447 555.75 L447 512.75 Z"
         style="clip-path:url(#clipPath61); stroke:none;"
         clip-path="url(#clipPath61)"
         id="path539" />
      <path
         d="M447 512.75 L537 512.75 L537 555.75 L447 555.75 L447 512.75 Z"
         style="fill:none; clip-path:url(#clipPath61); stroke:black;"
         clip-path="url(#clipPath61)"
         id="path541" />
      <text
         x="477"
         y="538"
         style="fill:black; clip-path:url(#clipPath61); stroke:none;"
         xml:space="preserve"
         clip-path="url(#clipPath61)"
         id="text543">CRAF</text>
    </g>
    <g
       style="fill:white; text-rendering:geometricPrecision; stroke:white;"
       id="g553">
      <path
         d="M379 426 L469 426 L469 469 L379 469 L379 426 Z"
         style="clip-path:url(#clipPath62); stroke:none;"
         clip-path="url(#clipPath62)"
         id="path547" />
      <path
         d="M379 426 L469 426 L469 469 L379 469 L379 426 Z"
         style="fill:none; clip-path:url(#clipPath62); stroke:black;"
         clip-path="url(#clipPath62)"
         id="path549" />
      <text
         x="412"
         y="457"
         style="fill:black; clip-path:url(#clipPath62); stroke:none;"
         xml:space="preserve"
         clip-path="url(#clipPath62)"
         id="text551">RAS</text>
    </g>
    <g
       style="fill:white; text-rendering:geometricPrecision; stroke:white;"
       id="g561">
      <path
         d="M372 399.5 L419 399.5 L419 424 L372 424 L372 399.5 Z"
         style="clip-path:url(#clipPath63); stroke:none;"
         clip-path="url(#clipPath63)"
         id="path555" />
      <path
         d="M372 399.5 L419 399.5 L419 424 L372 424 L372 399.5 Z"
         style="fill:none; clip-path:url(#clipPath63); stroke:rgb(0,102,204);"
         clip-path="url(#clipPath63)"
         id="path557" />
      <text
         x="384"
         y="416"
         style="fill:rgb(0,102,204); clip-path:url(#clipPath63); stroke:none;"
         xml:space="preserve"
         clip-path="url(#clipPath63)"
         id="text559">GTP</text>
    </g>
    <g
       style="fill:navy; text-rendering:geometricPrecision; font-size:8; stroke:navy;"
       id="g565">
      <text
         x="430"
         xml:space="preserve"
         y="423"
         style="clip-path:url(#clipPath65); stroke:none;"
         clip-path="url(#clipPath65)"
         id="text563">1, 5, 7, 10-13, 15...</text>
    </g>
    <g
       style="fill:white; text-rendering:geometricPrecision; stroke:white;"
       id="g573">
      <path
         d="M352 684.5 L442 684.5 L442 727.5 L352 727.5 L352 684.5 Z"
         style="clip-path:url(#clipPath66); stroke:none;"
         clip-path="url(#clipPath66)"
         id="path567" />
      <path
         d="M352 684.5 L442 684.5 L442 727.5 L352 727.5 L352 684.5 Z"
         style="fill:none; clip-path:url(#clipPath66); stroke:black;"
         clip-path="url(#clipPath66)"
         id="path569" />
      <text
         x="373"
         y="710"
         style="fill:black; clip-path:url(#clipPath66); stroke:none;"
         xml:space="preserve"
         clip-path="url(#clipPath66)"
         id="text571">MAP2K1</text>
    </g>
    <g
       style="fill:white; text-rendering:geometricPrecision; stroke:white;"
       id="g581">
      <path
         d="M641.5 377.5 L722 377.5 L722 400 L641.5 400 L641.5 377.5 Z"
         style="clip-path:url(#clipPath67); stroke:none;"
         clip-path="url(#clipPath67)"
         id="path575" />
      <path
         d="M641.5 377.5 L722 377.5 L722 400 L641.5 400 L641.5 377.5 Z"
         style="fill:none; clip-path:url(#clipPath67); stroke:black;"
         clip-path="url(#clipPath67)"
         id="path577" />
      <text
         x="665"
         y="393"
         style="fill:black; clip-path:url(#clipPath67); stroke:none;"
         xml:space="preserve"
         clip-path="url(#clipPath67)"
         id="text579">SOS2</text>
    </g>
    <g
       style="fill:navy; text-rendering:geometricPrecision; font-size:8; stroke:navy;"
       id="g585">
      <text
         x="436"
         xml:space="preserve"
         y="681"
         style="clip-path:url(#clipPath69); stroke:none;"
         clip-path="url(#clipPath69)"
         id="text583">18</text>
    </g>
    <g
       style="fill:white; text-rendering:geometricPrecision; stroke:white;"
       id="g593">
      <path
         d="M590 683.5 L680 683.5 L680 726.5 L590 726.5 L590 683.5 Z"
         style="clip-path:url(#clipPath70); stroke:none;"
         clip-path="url(#clipPath70)"
         id="path587" />
      <path
         d="M590 683.5 L680 683.5 L680 726.5 L590 726.5 L590 683.5 Z"
         style="fill:none; clip-path:url(#clipPath70); stroke:black;"
         clip-path="url(#clipPath70)"
         id="path589" />
      <text
         x="615"
         y="709"
         style="fill:black; clip-path:url(#clipPath70); stroke:none;"
         xml:space="preserve"
         clip-path="url(#clipPath70)"
         id="text591">MAPK3</text>
    </g>
    <g
       style="fill:navy; text-rendering:geometricPrecision; font-size:8; stroke:navy;"
       id="g597">
      <text
         x="716"
         xml:space="preserve"
         y="374"
         style="clip-path:url(#clipPath72); stroke:none;"
         clip-path="url(#clipPath72)"
         id="text595">19</text>
    </g>
    <g
       style="fill:navy; text-rendering:geometricPrecision; font-size:8; stroke:navy;"
       id="g601">
      <text
         x="667"
         xml:space="preserve"
         y="680"
         style="clip-path:url(#clipPath74); stroke:none;"
         clip-path="url(#clipPath74)"
         id="text599">18, 20</text>
    </g>
    <g
       style="fill:white; text-rendering:geometricPrecision; stroke:white;"
       id="g609">
      <path
         d="M841 262 L899 262 L899 332 L841 332 L841 262 Z"
         style="clip-path:url(#clipPath75); stroke:none;"
         clip-path="url(#clipPath75)"
         id="path603" />
      <path
         d="M841 262 L899 262 L899 332 L841 332 L841 262 Z"
         style="fill:none; clip-path:url(#clipPath75); stroke:black;"
         clip-path="url(#clipPath75)"
         id="path605" />
      <text
         x="784"
         y="301"
         style="fill:black; clip-path:url(#clipPath75); stroke:none;"
         xml:space="preserve"
         clip-path="url(#clipPath75)"
         id="text607">ALK tyrosine kinase receptor</text>
    </g>
    <g
       style="fill:navy; text-rendering:geometricPrecision; font-size:8; stroke:navy;"
       id="g613">
      <text
         x="871"
         xml:space="preserve"
         y="259"
         style="clip-path:url(#clipPath77); stroke:none;"
         clip-path="url(#clipPath77)"
         id="text611">3, 6, 8, 17, 19</text>
    </g>
    <g
       style="fill:white; text-rendering:geometricPrecision; stroke:white;"
       id="g621">
      <path
         d="M416 319.5 L466 319.5 L466 348 L416 348 L416 319.5 Z"
         style="clip-path:url(#clipPath78); stroke:none;"
         clip-path="url(#clipPath78)"
         id="path615" />
      <path
         d="M416 319.5 L466 319.5 L466 348 L416 348 L416 319.5 Z"
         style="fill:none; clip-path:url(#clipPath78); stroke:rgb(0,102,255);"
         clip-path="url(#clipPath78)"
         id="path617" />
      <text
         x="429"
         y="338"
         style="fill:rgb(0,102,255); clip-path:url(#clipPath78); stroke:none;"
         xml:space="preserve"
         clip-path="url(#clipPath78)"
         id="text619">GDP</text>
    </g>
    <g
       style="fill:white; text-rendering:geometricPrecision; stroke:white;"
       id="g629">
      <path
         d="M749.5 683.5 L839.5 683.5 L839.5 726.5 L749.5 726.5 L749.5 683.5 Z"
         style="clip-path:url(#clipPath79); stroke:none;"
         clip-path="url(#clipPath79)"
         id="path623" />
      <path
         d="M749.5 683.5 L839.5 683.5 L839.5 726.5 L749.5 726.5 L749.5 683.5 Z"
         style="fill:none; clip-path:url(#clipPath79); stroke:black;"
         clip-path="url(#clipPath79)"
         id="path625" />
      <text
         x="774"
         y="709"
         style="fill:black; clip-path:url(#clipPath79); stroke:none;"
         xml:space="preserve"
         clip-path="url(#clipPath79)"
         id="text627">MAPK3</text>
    </g>
    <g
       style="fill:white; text-rendering:geometricPrecision; stroke:white;"
       id="g637">
      <path
         d="M874.25 359.75 L964.25 359.75 L964.25 402.75 L874.25 402.75 L874.25 359.75 Z"
         style="clip-path:url(#clipPath80); stroke:none;"
         clip-path="url(#clipPath80)"
         id="path631" />
      <path
         d="M874.25 359.75 L964.25 359.75 L964.25 402.75 L874.25 402.75 L874.25 359.75 Z"
         style="fill:none; clip-path:url(#clipPath80); stroke:black;"
         clip-path="url(#clipPath80)"
         id="path633" />
      <text
         x="903"
         y="385"
         style="fill:black; clip-path:url(#clipPath80); stroke:none;"
         xml:space="preserve"
         clip-path="url(#clipPath80)"
         id="text635">SHC1</text>
    </g>
    <g
       style="fill:navy; text-rendering:geometricPrecision; font-size:8; stroke:navy;"
       id="g641">
      <text
         x="826"
         xml:space="preserve"
         y="680"
         style="clip-path:url(#clipPath82); stroke:none;"
         clip-path="url(#clipPath82)"
         id="text639">18, 20</text>
    </g>
    <g
       style="fill:navy; text-rendering:geometricPrecision; font-size:8; stroke:navy;"
       id="g645">
      <text
         x="961"
         xml:space="preserve"
         y="356"
         style="clip-path:url(#clipPath84); stroke:none;"
         clip-path="url(#clipPath84)"
         id="text643">3</text>
    </g>
    <g
       style="fill:white; text-rendering:geometricPrecision; stroke:white;"
       id="g653">
      <path
         d="M366 555.5 L456 555.5 L456 598.5 L366 598.5 L366 555.5 Z"
         style="clip-path:url(#clipPath85); stroke:none;"
         clip-path="url(#clipPath85)"
         id="path647" />
      <path
         d="M366 555.5 L456 555.5 L456 598.5 L366 598.5 L366 555.5 Z"
         style="fill:none; clip-path:url(#clipPath85); stroke:black;"
         clip-path="url(#clipPath85)"
         id="path649" />
      <text
         x="396"
         y="581"
         style="fill:black; clip-path:url(#clipPath85); stroke:none;"
         xml:space="preserve"
         clip-path="url(#clipPath85)"
         id="text651">BRAF</text>
    </g>
    <g
       style="fill:navy; text-rendering:geometricPrecision; font-size:8; stroke:navy;"
       id="g657">
      <text
         x="425"
         xml:space="preserve"
         y="552"
         style="clip-path:url(#clipPath87); stroke:none;"
         clip-path="url(#clipPath87)"
         id="text655">18, 20-22, 28...</text>
    </g>
    <g
       style="fill:white; text-rendering:geometricPrecision; stroke:white;"
       id="g665">
      <path
         d="M641.5 354.25 L722 354.25 L722 376.75 L641.5 376.75 L641.5 354.25 Z"
         style="clip-path:url(#clipPath88); stroke:none;"
         clip-path="url(#clipPath88)"
         id="path659" />
      <path
         d="M641.5 354.25 L722 354.25 L722 376.75 L641.5 376.75 L641.5 354.25 Z"
         style="fill:none; clip-path:url(#clipPath88); stroke:black;"
         clip-path="url(#clipPath88)"
         id="path661" />
      <text
         x="665"
         y="370"
         style="fill:black; clip-path:url(#clipPath88); stroke:none;"
         xml:space="preserve"
         clip-path="url(#clipPath88)"
         id="text663">SOS1</text>
    </g>
    <g
       style="fill:white; text-rendering:geometricPrecision; stroke:white;"
       id="g673">
      <path
         d="M768 361.5 L858 361.5 L858 404.5 L768 404.5 L768 361.5 Z"
         style="clip-path:url(#clipPath89); stroke:none;"
         clip-path="url(#clipPath89)"
         id="path667" />
      <path
         d="M768 361.5 L858 361.5 L858 404.5 L768 404.5 L768 361.5 Z"
         style="fill:none; clip-path:url(#clipPath89); stroke:black;"
         clip-path="url(#clipPath89)"
         id="path669" />
      <text
         x="797"
         y="387"
         style="fill:black; clip-path:url(#clipPath89); stroke:none;"
         xml:space="preserve"
         clip-path="url(#clipPath89)"
         id="text671">GRB2</text>
    </g>
    <g
       style="fill:navy; text-rendering:geometricPrecision; font-size:8; stroke:navy;"
       id="g677">
      <text
         x="716"
         xml:space="preserve"
         y="351"
         style="clip-path:url(#clipPath91); stroke:none;"
         clip-path="url(#clipPath91)"
         id="text675">19</text>
    </g>
    <g
       style="fill:navy; text-rendering:geometricPrecision; font-size:8; stroke:navy;"
       id="g681">
      <text
         x="855"
         xml:space="preserve"
         y="358"
         style="clip-path:url(#clipPath93); stroke:none;"
         clip-path="url(#clipPath93)"
         id="text679">3</text>
    </g>
  </g>
</svg>
