<?xml version="1.0" encoding="UTF-8" standalone="no"?>
<svg
   style="fill-opacity:1; color-rendering:auto; color-interpolation:auto; stroke:black; text-rendering:auto; stroke-linecap:square; stroke-miterlimit:10; stroke-opacity:1; shape-rendering:auto; fill:black; stroke-dasharray:none; font-weight:normal; stroke-width:1; font-family:'Dialog'; font-style:normal; stroke-linejoin:miter; font-size:12; stroke-dashoffset:0; image-rendering:auto;"
   width="1418"
   height="740"
   version="1.1"
   id="svg563"
   xmlns="http://www.w3.org/2000/svg"
   xmlns:svg="http://www.w3.org/2000/svg">
  <!--Generated by the Batik Graphics2D SVG Generator-->
  <defs
     id="genericDefs" />
  <g
     id="g561">
    <defs
       id="defs1">
      <clipPath
         clipPathUnits="userSpaceOnUse"
         id="clipPath1">
        <path
           d="M0 0 L1434 0 L1434 755 L0 755 L0 0 Z"
           id="path3" />
      </clipPath>
      <clipPath
         clipPathUnits="userSpaceOnUse"
         id="clipPath2">
        <path
           d="M0 0 L0 200 L200 200 L200 0 Z"
           id="path6" />
      </clipPath>
      <clipPath
         clipPathUnits="userSpaceOnUse"
         id="clipPath3">
        <path
           d="M403 16 L403 37 L414 37 L414 16 Z"
           id="path9" />
      </clipPath>
      <clipPath
         clipPathUnits="userSpaceOnUse"
         id="clipPath4">
        <path
           d="M402.4551 3.918 L413.5449 3.918 L413.5449 19.2305 L402.4551 19.2305 L402.4551 3.918 Z"
           id="path12" />
      </clipPath>
      <clipPath
         clipPathUnits="userSpaceOnUse"
         id="clipPath5">
        <path
           d="M1022.0803 286.5114 L1022.0803 418.2677 L1148.5623 418.2677 L1148.5623 286.5114 Z"
           id="path15" />
      </clipPath>
      <clipPath
         clipPathUnits="userSpaceOnUse"
         id="clipPath6">
        <path
           d="M814.8755 345.4708 L814.8755 365.9876 L853.1562 365.9876 L853.1562 345.4708 Z"
           id="path18" />
      </clipPath>
      <clipPath
         clipPathUnits="userSpaceOnUse"
         id="clipPath7">
        <path
           d="M222.468 463.709 L222.468 475.6477 L326.8195 475.6477 L326.8195 463.709 Z"
           id="path21" />
      </clipPath>
      <clipPath
         clipPathUnits="userSpaceOnUse"
         id="clipPath8">
        <path
           d="M1147.8907 384.6571 L1147.8907 404.8159 L1187.0031 404.8159 L1187.0031 384.6571 Z"
           id="path24" />
      </clipPath>
      <clipPath
         clipPathUnits="userSpaceOnUse"
         id="clipPath9">
        <path
           d="M948.4764 354.3777 L948.4764 386.1622 L1023.2173 386.1622 L1023.2173 354.3777 Z"
           id="path27" />
      </clipPath>
      <clipPath
         clipPathUnits="userSpaceOnUse"
         id="clipPath10">
        <path
           d="M1262.7262 346.3845 L1262.7262 358.3233 L1295.192 358.3233 L1295.192 346.3845 Z"
           id="path30" />
      </clipPath>
      <clipPath
         clipPathUnits="userSpaceOnUse"
         id="clipPath11">
        <path
           d="M419.968 130.0469 L419.968 141.9857 L488.4933 141.9857 L488.4933 130.0469 Z"
           id="path33" />
      </clipPath>
      <clipPath
         clipPathUnits="userSpaceOnUse"
         id="clipPath12">
        <path
           d="M189.0737 311.2317 L189.0737 323.17 L341.699 323.17 L341.699 311.2317 Z"
           id="path36" />
      </clipPath>
      <clipPath
         clipPathUnits="userSpaceOnUse"
         id="clipPath13">
        <path
           d="M419.9665 311.4875 L419.9665 323.4262 L481.4648 323.4262 L481.4648 311.4875 Z"
           id="path39" />
      </clipPath>
      <clipPath
         clipPathUnits="userSpaceOnUse"
         id="clipPath14">
        <path
           d="M1265.4036 398.175 L1265.4036 410.1138 L1297.8694 410.1138 L1297.8694 398.175 Z"
           id="path42" />
      </clipPath>
      <clipPath
         clipPathUnits="userSpaceOnUse"
         id="clipPath15">
        <path
           d="M289.0228 134.4191 L289.0228 178.2602 L300.9605 178.2602 L300.9605 134.4191 Z"
           id="path45" />
      </clipPath>
      <clipPath
         clipPathUnits="userSpaceOnUse"
         id="clipPath16">
        <path
           d="M225.1437 625.4866 L225.1437 637.4252 L318.8195 637.4252 L318.8195 625.4866 Z"
           id="path48" />
      </clipPath>
      <clipPath
         clipPathUnits="userSpaceOnUse"
         id="clipPath17">
        <path
           d="M412.9029 541.5424 L412.9029 632.1813 L564.4886 632.1813 L564.4886 541.5424 Z"
           id="path51" />
      </clipPath>
      <clipPath
         clipPathUnits="userSpaceOnUse"
         id="clipPath18">
        <path
           d="M1265.4036 301.1061 L1265.4036 313.0449 L1297.8694 313.0449 L1297.8694 301.1061 Z"
           id="path54" />
      </clipPath>
      <clipPath
         clipPathUnits="userSpaceOnUse"
         id="clipPath19">
        <path
           d="M948.4613 318.7819 L948.4613 355.6998 L1023.1868 355.6998 L1023.1868 318.7819 Z"
           id="path57" />
      </clipPath>
      <clipPath
         clipPathUnits="userSpaceOnUse"
         id="clipPath20">
        <path
           d="M404.956 469.046 L404.956 524.038 L564.5991 524.038 L564.5991 469.046 Z"
           id="path60" />
      </clipPath>
      <clipPath
         clipPathUnits="userSpaceOnUse"
         id="clipPath21">
        <path
           d="M179.676 543.0666 L179.676 622.4256 L191.6147 622.4256 L191.6147 543.0666 Z"
           id="path63" />
      </clipPath>
      <clipPath
         clipPathUnits="userSpaceOnUse"
         id="clipPath22">
        <path
           d="M948.6121 346.8656 L948.6121 358.7965 L1023.3106 358.7965 L1023.3106 346.8656 Z"
           id="path66" />
      </clipPath>
      <clipPath
         clipPathUnits="userSpaceOnUse"
         id="clipPath23">
        <path
           d="M249.3836 315.3051 L249.3836 357.2019 L261.3182 357.2019 L261.3182 315.3051 Z"
           id="path69" />
      </clipPath>
      <clipPath
         clipPathUnits="userSpaceOnUse"
         id="clipPath24">
        <path
           d="M359.619 544.4053 L359.619 573.77 L371.5577 573.77 L371.5577 544.4053 Z"
           id="path72" />
      </clipPath>
      <clipPath
         clipPathUnits="userSpaceOnUse"
         id="clipPath25">
        <path
           d="M359.619 478.4472 L359.619 525.4053 L371.5577 525.4053 L371.5577 478.4472 Z"
           id="path75" />
      </clipPath>
      <clipPath
         clipPathUnits="userSpaceOnUse"
         id="clipPath26">
        <path
           d="M264.4377 129.9485 L264.4377 141.8869 L341.699 141.8869 L341.699 129.9485 Z"
           id="path78" />
      </clipPath>
      <clipPath
         clipPathUnits="userSpaceOnUse"
         id="clipPath27">
        <path
           d="M47.4183 39.3862 L47.4183 724.7302 L677.8762 724.7302 L677.8762 39.3862 Z"
           id="path81" />
      </clipPath>
      <clipPath
         clipPathUnits="userSpaceOnUse"
         id="clipPath28">
        <path
           d="M1296.1382 296.5755 L1296.1382 317.5755 L1377.1382 317.5755 L1377.1382 296.5755 Z"
           id="path84" />
      </clipPath>
      <clipPath
         clipPathUnits="userSpaceOnUse"
         id="clipPath29">
        <path
           d="M1293.4608 341.8539 L1293.4608 362.8539 L1391.9886 362.8539 L1391.9886 341.8539 Z"
           id="path87" />
      </clipPath>
      <clipPath
         clipPathUnits="userSpaceOnUse"
         id="clipPath30">
        <path
           d="M1034.3059 294.0114 L1034.3059 333.8333 L1141.0623 333.8333 L1141.0623 294.0114 Z"
           id="path90" />
      </clipPath>
      <clipPath
         clipPathUnits="userSpaceOnUse"
         id="clipPath31">
        <path
           d="M96.4009 52.5957 L96.4009 78.5957 L569.4424 78.5957 L569.4424 52.5957 Z"
           id="path93" />
      </clipPath>
      <clipPath
         clipPathUnits="userSpaceOnUse"
         id="clipPath32">
        <path
           d="M542.931 521.7279 L542.931 542.7279 L623.931 542.7279 L623.931 521.7279 Z"
           id="path96" />
      </clipPath>
      <clipPath
         clipPathUnits="userSpaceOnUse"
         id="clipPath33">
        <path
           d="M486.7622 125.5163 L486.7622 146.5163 L567.7622 146.5163 L567.7622 125.5163 Z"
           id="path99" />
      </clipPath>
      <clipPath
         clipPathUnits="userSpaceOnUse"
         id="clipPath34">
        <path
           d="M340.8654 580.0388 L340.8654 606.0388 L392.2202 606.0388 L392.2202 580.0388 Z"
           id="path102" />
      </clipPath>
      <clipPath
         clipPathUnits="userSpaceOnUse"
         id="clipPath35">
        <path
           d="M812.5991 69.9987 L812.5991 95.9987 L1340.5267 95.9987 L1340.5267 69.9987 Z"
           id="path105" />
      </clipPath>
      <clipPath
         clipPathUnits="userSpaceOnUse"
         id="clipPath36">
        <path
           d="M99.0783 302.9304 L99.0783 328.9304 L190.0783 328.9304 L190.0783 302.9304 Z"
           id="path108" />
      </clipPath>
      <clipPath
         clipPathUnits="userSpaceOnUse"
         id="clipPath37">
        <path
           d="M1296.1382 393.6443 L1296.1382 414.6443 L1377.1382 414.6443 L1377.1382 393.6443 Z"
           id="path111" />
      </clipPath>
      <clipPath
         clipPathUnits="userSpaceOnUse"
         id="clipPath38">
        <path
           d="M88.2145 122.4059 L88.2145 148.4059 L265.4418 148.4059 L265.4418 122.4059 Z"
           id="path114" />
      </clipPath>
      <clipPath
         clipPathUnits="userSpaceOnUse"
         id="clipPath39">
        <path
           d="M325.0883 459.1783 L325.0883 480.1783 L406.0883 480.1783 L406.0883 459.1783 Z"
           id="path117" />
      </clipPath>
      <clipPath
         clipPathUnits="userSpaceOnUse"
         id="clipPath40">
        <path
           d="M142.468 459.1783 L142.468 480.1783 L223.468 480.1783 L223.468 459.1783 Z"
           id="path120" />
      </clipPath>
      <clipPath
         clipPathUnits="userSpaceOnUse"
         id="clipPath41">
        <path
           d="M734.8793 344.8553 L734.8793 365.8553 L815.8793 365.8553 L815.8793 344.8553 Z"
           id="path123" />
      </clipPath>
      <clipPath
         clipPathUnits="userSpaceOnUse"
         id="clipPath42">
        <path
           d="M254.098 177.2537 L254.098 198.2537 L335.098 198.2537 L335.098 177.2537 Z"
           id="path126" />
      </clipPath>
      <clipPath
         clipPathUnits="userSpaceOnUse"
         id="clipPath43">
        <path
           d="M214.1157 356.189 L214.1157 377.189 L295.1157 377.189 L295.1157 356.189 Z"
           id="path129" />
      </clipPath>
      <clipPath
         clipPathUnits="userSpaceOnUse"
         id="clipPath44">
        <path
           d="M339.968 125.5163 L339.968 146.5163 L420.968 146.5163 L420.968 125.5163 Z"
           id="path132" />
      </clipPath>
      <clipPath
         clipPathUnits="userSpaceOnUse"
         id="clipPath45">
        <path
           d="M1182.7262 341.8539 L1182.7262 362.8539 L1263.7262 362.8539 L1263.7262 341.8539 Z"
           id="path135" />
      </clipPath>
      <clipPath
         clipPathUnits="userSpaceOnUse"
         id="clipPath46">
        <path
           d="M325.0883 601.9529 L325.0883 622.9529 L406.0883 622.9529 L406.0883 601.9529 Z"
           id="path138" />
      </clipPath>
      <clipPath
         clipPathUnits="userSpaceOnUse"
         id="clipPath47">
        <path
           d="M325.0883 524.4053 L325.0883 545.4053 L406.0883 545.4053 L406.0883 524.4053 Z"
           id="path141" />
      </clipPath>
      <clipPath
         clipPathUnits="userSpaceOnUse"
         id="clipPath48">
        <path
           d="M145.1454 620.6945 L145.1454 641.6945 L226.1454 641.6945 L226.1454 620.6945 Z"
           id="path144" />
      </clipPath>
      <clipPath
         clipPathUnits="userSpaceOnUse"
         id="clipPath49">
        <path
           d="M145.1454 523.0666 L145.1454 544.0666 L226.1454 544.0666 L226.1454 523.0666 Z"
           id="path147" />
      </clipPath>
      <clipPath
         clipPathUnits="userSpaceOnUse"
         id="clipPath50">
        <path
           d="M857.7736 344.5312 L857.7736 365.5312 L949.6299 365.5312 L949.6299 344.5312 Z"
           id="path150" />
      </clipPath>
      <clipPath
         clipPathUnits="userSpaceOnUse"
         id="clipPath51">
        <path
           d="M1185.4036 296.5755 L1185.4036 317.5755 L1266.4036 317.5755 L1266.4036 296.5755 Z"
           id="path153" />
      </clipPath>
      <clipPath
         clipPathUnits="userSpaceOnUse"
         id="clipPath52">
        <path
           d="M1185.4036 393.6443 L1185.4036 414.6443 L1266.4036 414.6443 L1266.4036 393.6443 Z"
           id="path156" />
      </clipPath>
      <clipPath
         clipPathUnits="userSpaceOnUse"
         id="clipPath53">
        <path
           d="M339.968 306.8126 L339.968 327.8126 L420.968 327.8126 L420.968 306.8126 Z"
           id="path159" />
      </clipPath>
      <clipPath
         clipPathUnits="userSpaceOnUse"
         id="clipPath54">
        <path
           d="M479.7337 306.9939 L479.7337 327.9939 L560.7337 327.9939 L560.7337 306.9939 Z"
           id="path162" />
      </clipPath>
      <clipPath
         clipPathUnits="userSpaceOnUse"
         id="clipPath55">
        <path
           d="M706.8469 39.9572 L706.8469 726.069 L1404.7838 726.069 L1404.7838 39.9572 Z"
           id="path165" />
      </clipPath>
      <clipPath
         clipPathUnits="userSpaceOnUse"
         id="clipPath56">
        <path
           d="M325.0883 621.9529 L325.0883 642.9529 L406.0883 642.9529 L406.0883 621.9529 Z"
           id="path168" />
      </clipPath>
      <clipPath
         clipPathUnits="userSpaceOnUse"
         id="clipPath57">
        <path
           d="M325.0883 641.9529 L325.0883 662.9529 L406.0883 662.9529 L406.0883 641.9529 Z"
           id="path171" />
      </clipPath>
      <clipPath
         clipPathUnits="userSpaceOnUse"
         id="clipPath58">
        <path
           d="M325.0883 661.9529 L325.0883 682.9529 L406.0883 682.9529 L406.0883 661.9529 Z"
           id="path174" />
      </clipPath>
      <clipPath
         clipPathUnits="userSpaceOnUse"
         id="clipPath59">
        <path
           d="M1029.5803 373.1714 L1029.5803 410.7677 L1136.3367 410.7677 L1136.3367 373.1714 Z"
           id="path177" />
      </clipPath>
      <clipPath
         clipPathUnits="userSpaceOnUse"
         id="clipPath60">
        <path
           d="M1148.0618 346.397 L1148.0618 358.3358 L1184.4573 358.3358 L1184.4573 346.397 Z"
           id="path180" />
      </clipPath>
      <clipPath
         clipPathUnits="userSpaceOnUse"
         id="clipPath61">
        <path
           d="M1147.9303 305.247 L1147.9303 320.0824 L1187.0723 320.0824 L1187.0723 305.247 Z"
           id="path183" />
      </clipPath>
    </defs>
    <g
       style="fill:white; stroke:white;"
       id="g189">
      <rect
         x="0"
         width="1434"
         height="755"
         y="0"
         style="stroke:none;"
         id="rect187" />
    </g>
    <g
       style="font-weight:bold; font-size:10; text-rendering:geometricPrecision;"
       id="g199">
      <path
         d="M0.0469 6.7031 L6.7656 6.7031 L6.7656 8.125 L4.3438 8.125 L4.3438 14 L2.4688 14 L2.4688 8.125 L0.0469 8.125 L0.0469 6.7031 ZM7.665 8.5312 L9.415 8.5312 L9.415 14 L7.665 14 L7.665 8.5312 ZM7.665 6.4062 L9.415 6.4062 L9.415 7.8281 L7.665 7.8281 L7.665 6.4062 ZM12.999 6.9844 L12.999 8.5312 L14.7959 8.5312 L14.7959 9.7812 L12.999 9.7812 L12.999 12.0938 Q12.999 12.4844 13.1475 12.6172 Q13.2959 12.75 13.749 12.75 L14.6553 12.75 L14.6553 14 L13.1553 14 Q12.1084 14 11.6787 13.5703 Q11.249 13.1406 11.249 12.0938 L11.249 9.7812 L10.374 9.7812 L10.374 8.5312 L11.249 8.5312 L11.249 6.9844 L12.999 6.9844 ZM15.873 6.4062 L17.623 6.4062 L17.623 14 L15.873 14 L15.873 6.4062 ZM24.7539 11.25 L24.7539 11.75 L20.6758 11.75 Q20.7383 12.3594 21.1133 12.6719 Q21.4883 12.9844 22.1758 12.9844 Q22.7227 12.9844 23.3086 12.8203 Q23.8945 12.6562 24.5039 12.3125 L24.5039 13.6719 Q23.8789 13.9062 23.2617 14.0234 Q22.6445 14.1406 22.0195 14.1406 Q20.5352 14.1406 19.7148 13.3828 Q18.8945 12.625 18.8945 11.2656 Q18.8945 9.9375 19.6992 9.1719 Q20.5039 8.4062 21.9258 8.4062 Q23.207 8.4062 23.9805 9.1797 Q24.7539 9.9531 24.7539 11.25 ZM22.957 10.6719 Q22.957 10.1719 22.668 9.8672 Q22.3789 9.5625 21.9102 9.5625 Q21.3945 9.5625 21.082 9.8438 Q20.7695 10.125 20.6914 10.6719 L22.957 10.6719 ZM26.3643 8.5312 L28.1143 8.5312 L28.1143 10.4219 L26.3643 10.4219 L26.3643 8.5312 ZM26.3643 12.1094 L28.1143 12.1094 L28.1143 14 L26.3643 14 L26.3643 12.1094 Z"
         style="clip-path:url(#clipPath2); stroke:none;"
         clip-path="url(#clipPath2)"
         id="path191" />
      <path
         d="M41.4219 7.6875 L40.0781 11.3125 L42.7656 11.3125 L41.4219 7.6875 ZM40.8594 6.7031 L41.9844 6.7031 L44.7656 14 L43.7344 14 L43.0625 12.125 L39.7812 12.125 L39.125 14 L38.0781 14 L40.8594 6.7031 ZM50.0439 9.5781 Q50.3721 8.9688 50.8408 8.6875 Q51.3096 8.4062 51.9502 8.4062 Q52.8096 8.4062 53.2705 9 Q53.7314 9.5938 53.7314 10.7031 L53.7314 14 L52.8252 14 L52.8252 10.7344 Q52.8252 9.9375 52.5518 9.5625 Q52.2783 9.1875 51.7002 9.1875 Q50.9971 9.1875 50.5986 9.6484 Q50.2002 10.1094 50.2002 10.9062 L50.2002 14 L49.2939 14 L49.2939 10.7344 Q49.2939 9.9375 49.0127 9.5625 Q48.7314 9.1875 48.1533 9.1875 Q47.4658 9.1875 47.0596 9.6484 Q46.6533 10.1094 46.6533 10.9062 L46.6533 14 L45.7471 14 L45.7471 8.5312 L46.6533 8.5312 L46.6533 9.375 Q46.9658 8.875 47.3955 8.6406 Q47.8252 8.4062 48.4033 8.4062 Q49.0127 8.4062 49.4268 8.7031 Q49.8408 9 50.0439 9.5781 ZM56.3945 13.1719 L56.3945 16.0781 L55.4883 16.0781 L55.4883 8.5312 L56.3945 8.5312 L56.3945 9.3594 Q56.6758 8.875 57.1055 8.6406 Q57.5352 8.4062 58.1445 8.4062 Q59.1445 8.4062 59.7617 9.1953 Q60.3789 9.9844 60.3789 11.2656 Q60.3789 12.5625 59.7617 13.3516 Q59.1445 14.1406 58.1445 14.1406 Q57.5352 14.1406 57.1055 13.9062 Q56.6758 13.6719 56.3945 13.1719 ZM59.457 11.2656 Q59.457 10.2812 59.043 9.7188 Q58.6289 9.1562 57.9258 9.1562 Q57.207 9.1562 56.8008 9.7188 Q56.3945 10.2812 56.3945 11.2656 Q56.3945 12.2656 56.8008 12.8281 Q57.207 13.3906 57.9258 13.3906 Q58.6289 13.3906 59.043 12.8281 Q59.457 12.2656 59.457 11.2656 ZM61.8672 6.4062 L62.7734 6.4062 L62.7734 14 L61.8672 14 L61.8672 6.4062 ZM64.6455 8.5312 L65.5518 8.5312 L65.5518 14 L64.6455 14 L64.6455 8.5312 ZM64.6455 6.4062 L65.5518 6.4062 L65.5518 7.5469 L64.6455 7.5469 L64.6455 6.4062 ZM70.2051 6.4062 L70.2051 7.1562 L69.3457 7.1562 Q68.8613 7.1562 68.6738 7.3516 Q68.4863 7.5469 68.4863 8.0469 L68.4863 8.5312 L69.9551 8.5312 L69.9551 9.2344 L68.4863 9.2344 L68.4863 14 L67.5801 14 L67.5801 9.2344 L66.7207 9.2344 L66.7207 8.5312 L67.5801 8.5312 L67.5801 8.1562 Q67.5801 7.2344 68.002 6.8203 Q68.4238 6.4062 69.3457 6.4062 L70.2051 6.4062 ZM70.9443 8.5312 L71.8506 8.5312 L71.8506 14 L70.9443 14 L70.9443 8.5312 ZM70.9443 6.4062 L71.8506 6.4062 L71.8506 7.5469 L70.9443 7.5469 L70.9443 6.4062 ZM77.6602 8.7344 L77.6602 9.5781 Q77.2852 9.375 76.9023 9.2656 Q76.5195 9.1562 76.1289 9.1562 Q75.2539 9.1562 74.7695 9.7109 Q74.2852 10.2656 74.2852 11.2656 Q74.2852 12.2656 74.7695 12.8203 Q75.2539 13.375 76.1289 13.375 Q76.5195 13.375 76.9023 13.2734 Q77.2852 13.1719 77.6602 12.9531 L77.6602 13.7969 Q77.2852 13.9688 76.8867 14.0547 Q76.4883 14.1406 76.0352 14.1406 Q74.7852 14.1406 74.0586 13.3672 Q73.332 12.5938 73.332 11.2656 Q73.332 9.9375 74.0664 9.1719 Q74.8008 8.4062 76.082 8.4062 Q76.5039 8.4062 76.8945 8.4844 Q77.2852 8.5625 77.6602 8.7344 ZM81.7051 11.25 Q80.627 11.25 80.2051 11.5 Q79.7832 11.75 79.7832 12.3438 Q79.7832 12.8281 80.0957 13.1094 Q80.4082 13.3906 80.9551 13.3906 Q81.7051 13.3906 82.1582 12.8594 Q82.6113 12.3281 82.6113 11.4531 L82.6113 11.25 L81.7051 11.25 ZM83.502 10.875 L83.502 14 L82.6113 14 L82.6113 13.1719 Q82.2988 13.6719 81.8379 13.9062 Q81.377 14.1406 80.7207 14.1406 Q79.877 14.1406 79.377 13.6719 Q78.877 13.2031 78.877 12.4062 Q78.877 11.4844 79.502 11.0156 Q80.127 10.5469 81.3457 10.5469 L82.6113 10.5469 L82.6113 10.4531 Q82.6113 9.8438 82.1973 9.5 Q81.7832 9.1562 81.0488 9.1562 Q80.5801 9.1562 80.1348 9.2734 Q79.6895 9.3906 79.2832 9.6094 L79.2832 8.7812 Q79.7832 8.5938 80.2441 8.5 Q80.7051 8.4062 81.1426 8.4062 Q82.3301 8.4062 82.916 9.0156 Q83.502 9.625 83.502 10.875 ZM86.2393 6.9844 L86.2393 8.5312 L88.0986 8.5312 L88.0986 9.2344 L86.2393 9.2344 L86.2393 12.2031 Q86.2393 12.8594 86.4268 13.0547 Q86.6143 13.25 87.1768 13.25 L88.0986 13.25 L88.0986 14 L87.1768 14 Q86.1299 14 85.7314 13.6094 Q85.333 13.2188 85.333 12.2031 L85.333 9.2344 L84.6768 9.2344 L84.6768 8.5312 L85.333 8.5312 L85.333 6.9844 L86.2393 6.9844 ZM89.2695 8.5312 L90.1758 8.5312 L90.1758 14 L89.2695 14 L89.2695 8.5312 ZM89.2695 6.4062 L90.1758 6.4062 L90.1758 7.5469 L89.2695 7.5469 L89.2695 6.4062 ZM94.1729 9.1562 Q93.4541 9.1562 93.0322 9.7188 Q92.6104 10.2812 92.6104 11.2656 Q92.6104 12.25 93.0244 12.8125 Q93.4385 13.375 94.1729 13.375 Q94.8916 13.375 95.3135 12.8125 Q95.7354 12.25 95.7354 11.2656 Q95.7354 10.2969 95.3135 9.7266 Q94.8916 9.1562 94.1729 9.1562 ZM94.1729 8.4062 Q95.3447 8.4062 96.0166 9.1641 Q96.6885 9.9219 96.6885 11.2656 Q96.6885 12.6094 96.0166 13.375 Q95.3447 14.1406 94.1729 14.1406 Q93.001 14.1406 92.3291 13.375 Q91.6572 12.6094 91.6572 11.2656 Q91.6572 9.9219 92.3291 9.1641 Q93.001 8.4062 94.1729 8.4062 ZM102.7129 10.7031 L102.7129 14 L101.8223 14 L101.8223 10.7344 Q101.8223 9.9531 101.5176 9.5703 Q101.2129 9.1875 100.6035 9.1875 Q99.8848 9.1875 99.4629 9.6484 Q99.041 10.1094 99.041 10.9062 L99.041 14 L98.1348 14 L98.1348 8.5312 L99.041 8.5312 L99.041 9.375 Q99.3691 8.8906 99.8066 8.6484 Q100.2441 8.4062 100.8066 8.4062 Q101.7441 8.4062 102.2285 8.9844 Q102.7129 9.5625 102.7129 10.7031 ZM110.167 11.25 Q109.0889 11.25 108.667 11.5 Q108.2451 11.75 108.2451 12.3438 Q108.2451 12.8281 108.5576 13.1094 Q108.8701 13.3906 109.417 13.3906 Q110.167 13.3906 110.6201 12.8594 Q111.0732 12.3281 111.0732 11.4531 L111.0732 11.25 L110.167 11.25 ZM111.9639 10.875 L111.9639 14 L111.0732 14 L111.0732 13.1719 Q110.7607 13.6719 110.2998 13.9062 Q109.8389 14.1406 109.1826 14.1406 Q108.3389 14.1406 107.8389 13.6719 Q107.3389 13.2031 107.3389 12.4062 Q107.3389 11.4844 107.9639 11.0156 Q108.5889 10.5469 109.8076 10.5469 L111.0732 10.5469 L111.0732 10.4531 Q111.0732 9.8438 110.6592 9.5 Q110.2451 9.1562 109.5107 9.1562 Q109.042 9.1562 108.5967 9.2734 Q108.1514 9.3906 107.7451 9.6094 L107.7451 8.7812 Q108.2451 8.5938 108.7061 8.5 Q109.167 8.4062 109.6045 8.4062 Q110.792 8.4062 111.3779 9.0156 Q111.9639 9.625 111.9639 10.875 ZM118.3574 10.7031 L118.3574 14 L117.4668 14 L117.4668 10.7344 Q117.4668 9.9531 117.1621 9.5703 Q116.8574 9.1875 116.248 9.1875 Q115.5293 9.1875 115.1074 9.6484 Q114.6855 10.1094 114.6855 10.9062 L114.6855 14 L113.7793 14 L113.7793 8.5312 L114.6855 8.5312 L114.6855 9.375 Q115.0137 8.8906 115.4512 8.6484 Q115.8887 8.4062 116.4512 8.4062 Q117.3887 8.4062 117.873 8.9844 Q118.3574 9.5625 118.3574 10.7031 ZM123.7578 9.3594 L123.7578 6.4062 L124.6484 6.4062 L124.6484 14 L123.7578 14 L123.7578 13.1719 Q123.4766 13.6719 123.0391 13.9062 Q122.6016 14.1406 121.9922 14.1406 Q121.0078 14.1406 120.3828 13.3516 Q119.7578 12.5625 119.7578 11.2656 Q119.7578 9.9844 120.3828 9.1953 Q121.0078 8.4062 121.9922 8.4062 Q122.6016 8.4062 123.0391 8.6406 Q123.4766 8.875 123.7578 9.3594 ZM120.6953 11.2656 Q120.6953 12.2656 121.1016 12.8281 Q121.5078 13.3906 122.2266 13.3906 Q122.9297 13.3906 123.3438 12.8281 Q123.7578 12.2656 123.7578 11.2656 Q123.7578 10.2812 123.3438 9.7188 Q122.9297 9.1562 122.2266 9.1562 Q121.5078 9.1562 121.1016 9.7188 Q120.6953 10.2812 120.6953 11.2656 ZM134.3623 11.0469 L134.3623 11.4844 L130.2217 11.4844 Q130.2842 12.4062 130.7842 12.8906 Q131.2842 13.375 132.1748 13.375 Q132.6904 13.375 133.1826 13.25 Q133.6748 13.125 134.1436 12.875 L134.1436 13.7188 Q133.6592 13.9219 133.1514 14.0312 Q132.6436 14.1406 132.1279 14.1406 Q130.8154 14.1406 130.0498 13.3828 Q129.2842 12.625 129.2842 11.3125 Q129.2842 9.9688 130.0107 9.1875 Q130.7373 8.4062 131.9717 8.4062 Q133.0811 8.4062 133.7217 9.1094 Q134.3623 9.8125 134.3623 11.0469 ZM133.4561 10.7812 Q133.4561 10.0469 133.0498 9.6016 Q132.6436 9.1562 131.9873 9.1562 Q131.2217 9.1562 130.7764 9.5859 Q130.3311 10.0156 130.2529 10.7812 L133.4561 10.7812 ZM140.374 8.5312 L138.4053 11.1875 L140.4834 14 L139.4209 14 L137.8271 11.8438 L136.2334 14 L135.1709 14 L137.2959 11.1406 L135.3584 8.5312 L136.4209 8.5312 L137.874 10.4844 L139.3115 8.5312 L140.374 8.5312 ZM142.6201 13.1719 L142.6201 16.0781 L141.7139 16.0781 L141.7139 8.5312 L142.6201 8.5312 L142.6201 9.3594 Q142.9014 8.875 143.3311 8.6406 Q143.7607 8.4062 144.3701 8.4062 Q145.3701 8.4062 145.9873 9.1953 Q146.6045 9.9844 146.6045 11.2656 Q146.6045 12.5625 145.9873 13.3516 Q145.3701 14.1406 144.3701 14.1406 Q143.7607 14.1406 143.3311 13.9062 Q142.9014 13.6719 142.6201 13.1719 ZM145.6826 11.2656 Q145.6826 10.2812 145.2686 9.7188 Q144.8545 9.1562 144.1514 9.1562 Q143.4326 9.1562 143.0264 9.7188 Q142.6201 10.2812 142.6201 11.2656 Q142.6201 12.2656 143.0264 12.8281 Q143.4326 13.3906 144.1514 13.3906 Q144.8545 13.3906 145.2686 12.8281 Q145.6826 12.2656 145.6826 11.2656 ZM150.5771 11.25 Q149.499 11.25 149.0771 11.5 Q148.6553 11.75 148.6553 12.3438 Q148.6553 12.8281 148.9678 13.1094 Q149.2803 13.3906 149.8271 13.3906 Q150.5771 13.3906 151.0303 12.8594 Q151.4834 12.3281 151.4834 11.4531 L151.4834 11.25 L150.5771 11.25 ZM152.374 10.875 L152.374 14 L151.4834 14 L151.4834 13.1719 Q151.1709 13.6719 150.71 13.9062 Q150.249 14.1406 149.5928 14.1406 Q148.749 14.1406 148.249 13.6719 Q147.749 13.2031 147.749 12.4062 Q147.749 11.4844 148.374 11.0156 Q148.999 10.5469 150.2178 10.5469 L151.4834 10.5469 L151.4834 10.4531 Q151.4834 9.8438 151.0693 9.5 Q150.6553 9.1562 149.9209 9.1562 Q149.4521 9.1562 149.0068 9.2734 Q148.5615 9.3906 148.1553 9.6094 L148.1553 8.7812 Q148.6553 8.5938 149.1162 8.5 Q149.5771 8.4062 150.0146 8.4062 Q151.2021 8.4062 151.7881 9.0156 Q152.374 9.625 152.374 10.875 ZM158.7676 10.7031 L158.7676 14 L157.877 14 L157.877 10.7344 Q157.877 9.9531 157.5723 9.5703 Q157.2676 9.1875 156.6582 9.1875 Q155.9395 9.1875 155.5176 9.6484 Q155.0957 10.1094 155.0957 10.9062 L155.0957 14 L154.1895 14 L154.1895 8.5312 L155.0957 8.5312 L155.0957 9.375 Q155.4238 8.8906 155.8613 8.6484 Q156.2988 8.4062 156.8613 8.4062 Q157.7988 8.4062 158.2832 8.9844 Q158.7676 9.5625 158.7676 10.7031 ZM164.043 8.6875 L164.043 9.5469 Q163.668 9.3438 163.2617 9.25 Q162.8555 9.1562 162.4023 9.1562 Q161.7461 9.1562 161.4102 9.3594 Q161.0742 9.5625 161.0742 9.9688 Q161.0742 10.2812 161.3086 10.4609 Q161.543 10.6406 162.2773 10.7969 L162.5742 10.875 Q163.543 11.0781 163.9414 11.4531 Q164.3398 11.8281 164.3398 12.4844 Q164.3398 13.25 163.7383 13.6953 Q163.1367 14.1406 162.0898 14.1406 Q161.6367 14.1406 161.1602 14.0547 Q160.6836 13.9688 160.168 13.7969 L160.168 12.875 Q160.668 13.125 161.1445 13.2578 Q161.6211 13.3906 162.1055 13.3906 Q162.7305 13.3906 163.0742 13.1719 Q163.418 12.9531 163.418 12.5625 Q163.418 12.1875 163.1758 11.9922 Q162.9336 11.7969 162.0898 11.625 L161.7773 11.5469 Q160.9492 11.375 160.5742 11.0078 Q160.1992 10.6406 160.1992 10.0156 Q160.1992 9.2344 160.7461 8.8203 Q161.293 8.4062 162.3086 8.4062 Q162.793 8.4062 163.2383 8.4766 Q163.6836 8.5469 164.043 8.6875 ZM165.7686 8.5312 L166.6748 8.5312 L166.6748 14 L165.7686 14 L165.7686 8.5312 ZM165.7686 6.4062 L166.6748 6.4062 L166.6748 7.5469 L165.7686 7.5469 L165.7686 6.4062 ZM170.6719 9.1562 Q169.9531 9.1562 169.5312 9.7188 Q169.1094 10.2812 169.1094 11.2656 Q169.1094 12.25 169.5234 12.8125 Q169.9375 13.375 170.6719 13.375 Q171.3906 13.375 171.8125 12.8125 Q172.2344 12.25 172.2344 11.2656 Q172.2344 10.2969 171.8125 9.7266 Q171.3906 9.1562 170.6719 9.1562 ZM170.6719 8.4062 Q171.8438 8.4062 172.5156 9.1641 Q173.1875 9.9219 173.1875 11.2656 Q173.1875 12.6094 172.5156 13.375 Q171.8438 14.1406 170.6719 14.1406 Q169.5 14.1406 168.8281 13.375 Q168.1562 12.6094 168.1562 11.2656 Q168.1562 9.9219 168.8281 9.1641 Q169.5 8.4062 170.6719 8.4062 ZM179.2119 10.7031 L179.2119 14 L178.3213 14 L178.3213 10.7344 Q178.3213 9.9531 178.0166 9.5703 Q177.7119 9.1875 177.1025 9.1875 Q176.3838 9.1875 175.9619 9.6484 Q175.54 10.1094 175.54 10.9062 L175.54 14 L174.6338 14 L174.6338 8.5312 L175.54 8.5312 L175.54 9.375 Q175.8682 8.8906 176.3057 8.6484 Q176.7432 8.4062 177.3057 8.4062 Q178.2432 8.4062 178.7275 8.9844 Q179.2119 9.5625 179.2119 10.7031 ZM186.3066 9.1562 Q185.5879 9.1562 185.166 9.7188 Q184.7441 10.2812 184.7441 11.2656 Q184.7441 12.25 185.1582 12.8125 Q185.5723 13.375 186.3066 13.375 Q187.0254 13.375 187.4473 12.8125 Q187.8691 12.25 187.8691 11.2656 Q187.8691 10.2969 187.4473 9.7266 Q187.0254 9.1562 186.3066 9.1562 ZM186.3066 8.4062 Q187.4785 8.4062 188.1504 9.1641 Q188.8223 9.9219 188.8223 11.2656 Q188.8223 12.6094 188.1504 13.375 Q187.4785 14.1406 186.3066 14.1406 Q185.1348 14.1406 184.4629 13.375 Q183.791 12.6094 183.791 11.2656 Q183.791 9.9219 184.4629 9.1641 Q185.1348 8.4062 186.3066 8.4062 ZM193.0811 6.4062 L193.0811 7.1562 L192.2217 7.1562 Q191.7373 7.1562 191.5498 7.3516 Q191.3623 7.5469 191.3623 8.0469 L191.3623 8.5312 L192.8311 8.5312 L192.8311 9.2344 L191.3623 9.2344 L191.3623 14 L190.4561 14 L190.4561 9.2344 L189.5967 9.2344 L189.5967 8.5312 L190.4561 8.5312 L190.4561 8.1562 Q190.4561 7.2344 190.8779 6.8203 Q191.2998 6.4062 192.2217 6.4062 L193.0811 6.4062 ZM199.124 9.1562 Q198.4053 9.1562 197.9834 9.7188 Q197.5615 10.2812 197.5615 11.2656 Q197.5615 12.25 197.9756 12.8125 Q198.3896 13.375 199.124 13.375 Q199.8428 13.375 200.2646 12.8125 Q200.6865 12.25 200.6865 11.2656 Q200.6865 10.2969 200.2646 9.7266 Q199.8428 9.1562 199.124 9.1562 ZM199.124 8.4062 Q200.2959 8.4062 200.9678 9.1641 Q201.6396 9.9219 201.6396 11.2656 Q201.6396 12.6094 200.9678 13.375 Q200.2959 14.1406 199.124 14.1406 Q197.9521 14.1406 197.2803 13.375 Q196.6084 12.6094 196.6084 11.2656 Q196.6084 9.9219 197.2803 9.1641 Q197.9521 8.4062 199.124 8.4062 ZM207.6641 10.7031 L207.6641 14 L206.7734 14 L206.7734 10.7344 Q206.7734 9.9531 206.4688 9.5703 Q206.1641 9.1875 205.5547 9.1875 Q204.8359 9.1875 204.4141 9.6484 Q203.9922 10.1094 203.9922 10.9062 L203.9922 14 L203.0859 14 L203.0859 8.5312 L203.9922 8.5312 L203.9922 9.375 Q204.3203 8.8906 204.7578 8.6484 Q205.1953 8.4062 205.7578 8.4062 Q206.6953 8.4062 207.1797 8.9844 Q207.6641 9.5625 207.6641 10.7031 ZM213.3926 8.7344 L213.3926 9.5781 Q213.0176 9.375 212.6348 9.2656 Q212.252 9.1562 211.8613 9.1562 Q210.9863 9.1562 210.502 9.7109 Q210.0176 10.2656 210.0176 11.2656 Q210.0176 12.2656 210.502 12.8203 Q210.9863 13.375 211.8613 13.375 Q212.252 13.375 212.6348 13.2734 Q213.0176 13.1719 213.3926 12.9531 L213.3926 13.7969 Q213.0176 13.9688 212.6191 14.0547 Q212.2207 14.1406 211.7676 14.1406 Q210.5176 14.1406 209.791 13.3672 Q209.0645 12.5938 209.0645 11.2656 Q209.0645 9.9375 209.7988 9.1719 Q210.5332 8.4062 211.8145 8.4062 Q212.2363 8.4062 212.627 8.4844 Q213.0176 8.5625 213.3926 8.7344 ZM217.0781 9.1562 Q216.3594 9.1562 215.9375 9.7188 Q215.5156 10.2812 215.5156 11.2656 Q215.5156 12.25 215.9297 12.8125 Q216.3438 13.375 217.0781 13.375 Q217.7969 13.375 218.2188 12.8125 Q218.6406 12.25 218.6406 11.2656 Q218.6406 10.2969 218.2188 9.7266 Q217.7969 9.1562 217.0781 9.1562 ZM217.0781 8.4062 Q218.25 8.4062 218.9219 9.1641 Q219.5938 9.9219 219.5938 11.2656 Q219.5938 12.6094 218.9219 13.375 Q218.25 14.1406 217.0781 14.1406 Q215.9062 14.1406 215.2344 13.375 Q214.5625 12.6094 214.5625 11.2656 Q214.5625 9.9219 215.2344 9.1641 Q215.9062 8.4062 217.0781 8.4062 ZM224.6807 11.2031 Q224.6807 10.2188 224.2744 9.6875 Q223.8682 9.1562 223.1494 9.1562 Q222.415 9.1562 222.0166 9.6875 Q221.6182 10.2188 221.6182 11.2031 Q221.6182 12.1719 222.0166 12.7109 Q222.415 13.25 223.1494 13.25 Q223.8682 13.25 224.2744 12.7109 Q224.6807 12.1719 224.6807 11.2031 ZM225.5713 13.3281 Q225.5713 14.7188 224.9541 15.3984 Q224.3369 16.0781 223.0557 16.0781 Q222.5869 16.0781 222.165 16.0078 Q221.7432 15.9375 221.3525 15.7969 L221.3525 14.9219 Q221.7432 15.1406 222.126 15.2422 Q222.5088 15.3438 222.915 15.3438 Q223.79 15.3438 224.2354 14.8828 Q224.6807 14.4219 224.6807 13.4844 L224.6807 13.0312 Q224.3994 13.5156 223.9619 13.7578 Q223.5244 14 222.915 14 Q221.915 14 221.2979 13.2344 Q220.6807 12.4688 220.6807 11.2031 Q220.6807 9.9375 221.2979 9.1719 Q221.915 8.4062 222.915 8.4062 Q223.5244 8.4062 223.9619 8.6406 Q224.3994 8.875 224.6807 9.3594 L224.6807 8.5312 L225.5713 8.5312 L225.5713 13.3281 ZM232.1064 11.0469 L232.1064 11.4844 L227.9658 11.4844 Q228.0283 12.4062 228.5283 12.8906 Q229.0283 13.375 229.9189 13.375 Q230.4346 13.375 230.9268 13.25 Q231.4189 13.125 231.8877 12.875 L231.8877 13.7188 Q231.4033 13.9219 230.8955 14.0312 Q230.3877 14.1406 229.8721 14.1406 Q228.5596 14.1406 227.7939 13.3828 Q227.0283 12.625 227.0283 11.3125 Q227.0283 9.9688 227.7549 9.1875 Q228.4814 8.4062 229.7158 8.4062 Q230.8252 8.4062 231.4658 9.1094 Q232.1064 9.8125 232.1064 11.0469 ZM231.2002 10.7812 Q231.2002 10.0469 230.7939 9.6016 Q230.3877 9.1562 229.7314 9.1562 Q228.9658 9.1562 228.5205 9.5859 Q228.0752 10.0156 227.9971 10.7812 L231.2002 10.7812 ZM238.1182 10.7031 L238.1182 14 L237.2275 14 L237.2275 10.7344 Q237.2275 9.9531 236.9229 9.5703 Q236.6182 9.1875 236.0088 9.1875 Q235.29 9.1875 234.8682 9.6484 Q234.4463 10.1094 234.4463 10.9062 L234.4463 14 L233.54 14 L233.54 8.5312 L234.4463 8.5312 L234.4463 9.375 Q234.7744 8.8906 235.2119 8.6484 Q235.6494 8.4062 236.2119 8.4062 Q237.1494 8.4062 237.6338 8.9844 Q238.1182 9.5625 238.1182 10.7031 ZM239.9092 8.5312 L240.8154 8.5312 L240.8154 14 L239.9092 14 L239.9092 8.5312 ZM239.9092 6.4062 L240.8154 6.4062 L240.8154 7.5469 L239.9092 7.5469 L239.9092 6.4062 ZM246.625 8.7344 L246.625 9.5781 Q246.25 9.375 245.8672 9.2656 Q245.4844 9.1562 245.0938 9.1562 Q244.2188 9.1562 243.7344 9.7109 Q243.25 10.2656 243.25 11.2656 Q243.25 12.2656 243.7344 12.8203 Q244.2188 13.375 245.0938 13.375 Q245.4844 13.375 245.8672 13.2734 Q246.25 13.1719 246.625 12.9531 L246.625 13.7969 Q246.25 13.9688 245.8516 14.0547 Q245.4531 14.1406 245 14.1406 Q243.75 14.1406 243.0234 13.3672 Q242.2969 12.5938 242.2969 11.2656 Q242.2969 9.9375 243.0312 9.1719 Q243.7656 8.4062 245.0469 8.4062 Q245.4688 8.4062 245.8594 8.4844 Q246.25 8.5625 246.625 8.7344 ZM252.2393 13.1719 L252.2393 16.0781 L251.333 16.0781 L251.333 8.5312 L252.2393 8.5312 L252.2393 9.3594 Q252.5205 8.875 252.9502 8.6406 Q253.3799 8.4062 253.9893 8.4062 Q254.9893 8.4062 255.6064 9.1953 Q256.2236 9.9844 256.2236 11.2656 Q256.2236 12.5625 255.6064 13.3516 Q254.9893 14.1406 253.9893 14.1406 Q253.3799 14.1406 252.9502 13.9062 Q252.5205 13.6719 252.2393 13.1719 ZM255.3018 11.2656 Q255.3018 10.2812 254.8877 9.7188 Q254.4736 9.1562 253.7705 9.1562 Q253.0518 9.1562 252.6455 9.7188 Q252.2393 10.2812 252.2393 11.2656 Q252.2393 12.2656 252.6455 12.8281 Q253.0518 13.3906 253.7705 13.3906 Q254.4736 13.3906 254.8877 12.8281 Q255.3018 12.2656 255.3018 11.2656 ZM260.1963 11.25 Q259.1182 11.25 258.6963 11.5 Q258.2744 11.75 258.2744 12.3438 Q258.2744 12.8281 258.5869 13.1094 Q258.8994 13.3906 259.4463 13.3906 Q260.1963 13.3906 260.6494 12.8594 Q261.1025 12.3281 261.1025 11.4531 L261.1025 11.25 L260.1963 11.25 ZM261.9932 10.875 L261.9932 14 L261.1025 14 L261.1025 13.1719 Q260.79 13.6719 260.3291 13.9062 Q259.8682 14.1406 259.2119 14.1406 Q258.3682 14.1406 257.8682 13.6719 Q257.3682 13.2031 257.3682 12.4062 Q257.3682 11.4844 257.9932 11.0156 Q258.6182 10.5469 259.8369 10.5469 L261.1025 10.5469 L261.1025 10.4531 Q261.1025 9.8438 260.6885 9.5 Q260.2744 9.1562 259.54 9.1562 Q259.0713 9.1562 258.626 9.2734 Q258.1807 9.3906 257.7744 9.6094 L257.7744 8.7812 Q258.2744 8.5938 258.7354 8.5 Q259.1963 8.4062 259.6338 8.4062 Q260.8213 8.4062 261.4072 9.0156 Q261.9932 9.625 261.9932 10.875 ZM264.7305 6.9844 L264.7305 8.5312 L266.5898 8.5312 L266.5898 9.2344 L264.7305 9.2344 L264.7305 12.2031 Q264.7305 12.8594 264.918 13.0547 Q265.1055 13.25 265.668 13.25 L266.5898 13.25 L266.5898 14 L265.668 14 Q264.6211 14 264.2227 13.6094 Q263.8242 13.2188 263.8242 12.2031 L263.8242 9.2344 L263.168 9.2344 L263.168 8.5312 L263.8242 8.5312 L263.8242 6.9844 L264.7305 6.9844 ZM272.3076 10.7031 L272.3076 14 L271.417 14 L271.417 10.7344 Q271.417 9.9531 271.1123 9.5703 Q270.8076 9.1875 270.1982 9.1875 Q269.4795 9.1875 269.0576 9.6484 Q268.6357 10.1094 268.6357 10.9062 L268.6357 14 L267.7295 14 L267.7295 6.4062 L268.6357 6.4062 L268.6357 9.375 Q268.9639 8.8906 269.4014 8.6484 Q269.8389 8.4062 270.4014 8.4062 Q271.3389 8.4062 271.8232 8.9844 Q272.3076 9.5625 272.3076 10.7031 ZM273.583 8.5312 L274.4736 8.5312 L275.5986 12.7969 L276.7236 8.5312 L277.7861 8.5312 L278.9111 12.7969 L280.0205 8.5312 L280.9268 8.5312 L279.4893 14 L278.4268 14 L277.2549 9.5156 L276.0674 14 L275.0049 14 L273.583 8.5312 ZM284.7617 11.25 Q283.6836 11.25 283.2617 11.5 Q282.8398 11.75 282.8398 12.3438 Q282.8398 12.8281 283.1523 13.1094 Q283.4648 13.3906 284.0117 13.3906 Q284.7617 13.3906 285.2148 12.8594 Q285.668 12.3281 285.668 11.4531 L285.668 11.25 L284.7617 11.25 ZM286.5586 10.875 L286.5586 14 L285.668 14 L285.668 13.1719 Q285.3555 13.6719 284.8945 13.9062 Q284.4336 14.1406 283.7773 14.1406 Q282.9336 14.1406 282.4336 13.6719 Q281.9336 13.2031 281.9336 12.4062 Q281.9336 11.4844 282.5586 11.0156 Q283.1836 10.5469 284.4023 10.5469 L285.668 10.5469 L285.668 10.4531 Q285.668 9.8438 285.2539 9.5 Q284.8398 9.1562 284.1055 9.1562 Q283.6367 9.1562 283.1914 9.2734 Q282.7461 9.3906 282.3398 9.6094 L282.3398 8.7812 Q282.8398 8.5938 283.3008 8.5 Q283.7617 8.4062 284.1992 8.4062 Q285.3867 8.4062 285.9727 9.0156 Q286.5586 9.625 286.5586 10.875 ZM290.6865 14.5156 Q290.3115 15.4844 289.9443 15.7812 Q289.5771 16.0781 288.9834 16.0781 L288.2646 16.0781 L288.2646 15.3281 L288.7803 15.3281 Q289.1553 15.3281 289.3584 15.1562 Q289.5615 14.9844 289.8115 14.3281 L289.9834 13.9062 L287.7646 8.5312 L288.7178 8.5312 L290.4209 12.8125 L292.1396 8.5312 L293.0928 8.5312 L290.6865 14.5156 ZM297.8076 8.6875 L297.8076 9.5469 Q297.4326 9.3438 297.0264 9.25 Q296.6201 9.1562 296.167 9.1562 Q295.5107 9.1562 295.1748 9.3594 Q294.8389 9.5625 294.8389 9.9688 Q294.8389 10.2812 295.0732 10.4609 Q295.3076 10.6406 296.042 10.7969 L296.3389 10.875 Q297.3076 11.0781 297.7061 11.4531 Q298.1045 11.8281 298.1045 12.4844 Q298.1045 13.25 297.5029 13.6953 Q296.9014 14.1406 295.8545 14.1406 Q295.4014 14.1406 294.9248 14.0547 Q294.4482 13.9688 293.9326 13.7969 L293.9326 12.875 Q294.4326 13.125 294.9092 13.2578 Q295.3857 13.3906 295.8701 13.3906 Q296.4951 13.3906 296.8389 13.1719 Q297.1826 12.9531 297.1826 12.5625 Q297.1826 12.1875 296.9404 11.9922 Q296.6982 11.7969 295.8545 11.625 L295.542 11.5469 Q294.7139 11.375 294.3389 11.0078 Q293.9639 10.6406 293.9639 10.0156 Q293.9639 9.2344 294.5107 8.8203 Q295.0576 8.4062 296.0732 8.4062 Q296.5576 8.4062 297.0029 8.4766 Q297.4482 8.5469 297.8076 8.6875 ZM305.1963 11.25 Q304.1182 11.25 303.6963 11.5 Q303.2744 11.75 303.2744 12.3438 Q303.2744 12.8281 303.5869 13.1094 Q303.8994 13.3906 304.4463 13.3906 Q305.1963 13.3906 305.6494 12.8594 Q306.1025 12.3281 306.1025 11.4531 L306.1025 11.25 L305.1963 11.25 ZM306.9932 10.875 L306.9932 14 L306.1025 14 L306.1025 13.1719 Q305.79 13.6719 305.3291 13.9062 Q304.8682 14.1406 304.2119 14.1406 Q303.3682 14.1406 302.8682 13.6719 Q302.3682 13.2031 302.3682 12.4062 Q302.3682 11.4844 302.9932 11.0156 Q303.6182 10.5469 304.8369 10.5469 L306.1025 10.5469 L306.1025 10.4531 Q306.1025 9.8438 305.6885 9.5 Q305.2744 9.1562 304.54 9.1562 Q304.0713 9.1562 303.626 9.2734 Q303.1807 9.3906 302.7744 9.6094 L302.7744 8.7812 Q303.2744 8.5938 303.7354 8.5 Q304.1963 8.4062 304.6338 8.4062 Q305.8213 8.4062 306.4072 9.0156 Q306.9932 9.625 306.9932 10.875 ZM312.3242 8.6875 L312.3242 9.5469 Q311.9492 9.3438 311.543 9.25 Q311.1367 9.1562 310.6836 9.1562 Q310.0273 9.1562 309.6914 9.3594 Q309.3555 9.5625 309.3555 9.9688 Q309.3555 10.2812 309.5898 10.4609 Q309.8242 10.6406 310.5586 10.7969 L310.8555 10.875 Q311.8242 11.0781 312.2227 11.4531 Q312.6211 11.8281 312.6211 12.4844 Q312.6211 13.25 312.0195 13.6953 Q311.418 14.1406 310.3711 14.1406 Q309.918 14.1406 309.4414 14.0547 Q308.9648 13.9688 308.4492 13.7969 L308.4492 12.875 Q308.9492 13.125 309.4258 13.2578 Q309.9023 13.3906 310.3867 13.3906 Q311.0117 13.3906 311.3555 13.1719 Q311.6992 12.9531 311.6992 12.5625 Q311.6992 12.1875 311.457 11.9922 Q311.2148 11.7969 310.3711 11.625 L310.0586 11.5469 Q309.2305 11.375 308.8555 11.0078 Q308.4805 10.6406 308.4805 10.0156 Q308.4805 9.2344 309.0273 8.8203 Q309.5742 8.4062 310.5898 8.4062 Q311.0742 8.4062 311.5195 8.4766 Q311.9648 8.5469 312.3242 8.6875 ZM321.4941 9.5781 Q321.8223 8.9688 322.291 8.6875 Q322.7598 8.4062 323.4004 8.4062 Q324.2598 8.4062 324.7207 9 Q325.1816 9.5938 325.1816 10.7031 L325.1816 14 L324.2754 14 L324.2754 10.7344 Q324.2754 9.9375 324.002 9.5625 Q323.7285 9.1875 323.1504 9.1875 Q322.4473 9.1875 322.0488 9.6484 Q321.6504 10.1094 321.6504 10.9062 L321.6504 14 L320.7441 14 L320.7441 10.7344 Q320.7441 9.9375 320.4629 9.5625 Q320.1816 9.1875 319.6035 9.1875 Q318.916 9.1875 318.5098 9.6484 Q318.1035 10.1094 318.1035 10.9062 L318.1035 14 L317.1973 14 L317.1973 8.5312 L318.1035 8.5312 L318.1035 9.375 Q318.416 8.875 318.8457 8.6406 Q319.2754 8.4062 319.8535 8.4062 Q320.4629 8.4062 320.877 8.7031 Q321.291 9 321.4941 9.5781 ZM331.6572 11.0469 L331.6572 11.4844 L327.5166 11.4844 Q327.5791 12.4062 328.0791 12.8906 Q328.5791 13.375 329.4697 13.375 Q329.9854 13.375 330.4775 13.25 Q330.9697 13.125 331.4385 12.875 L331.4385 13.7188 Q330.9541 13.9219 330.4463 14.0312 Q329.9385 14.1406 329.4229 14.1406 Q328.1104 14.1406 327.3447 13.3828 Q326.5791 12.625 326.5791 11.3125 Q326.5791 9.9688 327.3057 9.1875 Q328.0322 8.4062 329.2666 8.4062 Q330.376 8.4062 331.0166 9.1094 Q331.6572 9.8125 331.6572 11.0469 ZM330.751 10.7812 Q330.751 10.0469 330.3447 9.6016 Q329.9385 9.1562 329.2822 9.1562 Q328.5166 9.1562 328.0713 9.5859 Q327.626 10.0156 327.5479 10.7812 L330.751 10.7812 ZM334.0127 6.9844 L334.0127 8.5312 L335.8721 8.5312 L335.8721 9.2344 L334.0127 9.2344 L334.0127 12.2031 Q334.0127 12.8594 334.2002 13.0547 Q334.3877 13.25 334.9502 13.25 L335.8721 13.25 L335.8721 14 L334.9502 14 Q333.9033 14 333.5049 13.6094 Q333.1064 13.2188 333.1064 12.2031 L333.1064 9.2344 L332.4502 9.2344 L332.4502 8.5312 L333.1064 8.5312 L333.1064 6.9844 L334.0127 6.9844 ZM339.5273 11.25 Q338.4492 11.25 338.0273 11.5 Q337.6055 11.75 337.6055 12.3438 Q337.6055 12.8281 337.918 13.1094 Q338.2305 13.3906 338.7773 13.3906 Q339.5273 13.3906 339.9805 12.8594 Q340.4336 12.3281 340.4336 11.4531 L340.4336 11.25 L339.5273 11.25 ZM341.3242 10.875 L341.3242 14 L340.4336 14 L340.4336 13.1719 Q340.1211 13.6719 339.6602 13.9062 Q339.1992 14.1406 338.543 14.1406 Q337.6992 14.1406 337.1992 13.6719 Q336.6992 13.2031 336.6992 12.4062 Q336.6992 11.4844 337.3242 11.0156 Q337.9492 10.5469 339.168 10.5469 L340.4336 10.5469 L340.4336 10.4531 Q340.4336 9.8438 340.0195 9.5 Q339.6055 9.1562 338.8711 9.1562 Q338.4023 9.1562 337.957 9.2734 Q337.5117 9.3906 337.1055 9.6094 L337.1055 8.7812 Q337.6055 8.5938 338.0664 8.5 Q338.5273 8.4062 338.9648 8.4062 Q340.1523 8.4062 340.7383 9.0156 Q341.3242 9.625 341.3242 10.875 ZM346.6553 8.6875 L346.6553 9.5469 Q346.2803 9.3438 345.874 9.25 Q345.4678 9.1562 345.0146 9.1562 Q344.3584 9.1562 344.0225 9.3594 Q343.6865 9.5625 343.6865 9.9688 Q343.6865 10.2812 343.9209 10.4609 Q344.1553 10.6406 344.8896 10.7969 L345.1865 10.875 Q346.1553 11.0781 346.5537 11.4531 Q346.9521 11.8281 346.9521 12.4844 Q346.9521 13.25 346.3506 13.6953 Q345.749 14.1406 344.7021 14.1406 Q344.249 14.1406 343.7725 14.0547 Q343.2959 13.9688 342.7803 13.7969 L342.7803 12.875 Q343.2803 13.125 343.7568 13.2578 Q344.2334 13.3906 344.7178 13.3906 Q345.3428 13.3906 345.6865 13.1719 Q346.0303 12.9531 346.0303 12.5625 Q346.0303 12.1875 345.7881 11.9922 Q345.5459 11.7969 344.7021 11.625 L344.3896 11.5469 Q343.5615 11.375 343.1865 11.0078 Q342.8115 10.6406 342.8115 10.0156 Q342.8115 9.2344 343.3584 8.8203 Q343.9053 8.4062 344.9209 8.4062 Q345.4053 8.4062 345.8506 8.4766 Q346.2959 8.5469 346.6553 8.6875 ZM349.2715 6.9844 L349.2715 8.5312 L351.1309 8.5312 L351.1309 9.2344 L349.2715 9.2344 L349.2715 12.2031 Q349.2715 12.8594 349.459 13.0547 Q349.6465 13.25 350.209 13.25 L351.1309 13.25 L351.1309 14 L350.209 14 Q349.1621 14 348.7637 13.6094 Q348.3652 13.2188 348.3652 12.2031 L348.3652 9.2344 L347.709 9.2344 L347.709 8.5312 L348.3652 8.5312 L348.3652 6.9844 L349.2715 6.9844 ZM354.7861 11.25 Q353.708 11.25 353.2861 11.5 Q352.8643 11.75 352.8643 12.3438 Q352.8643 12.8281 353.1768 13.1094 Q353.4893 13.3906 354.0361 13.3906 Q354.7861 13.3906 355.2393 12.8594 Q355.6924 12.3281 355.6924 11.4531 L355.6924 11.25 L354.7861 11.25 ZM356.583 10.875 L356.583 14 L355.6924 14 L355.6924 13.1719 Q355.3799 13.6719 354.9189 13.9062 Q354.458 14.1406 353.8018 14.1406 Q352.958 14.1406 352.458 13.6719 Q351.958 13.2031 351.958 12.4062 Q351.958 11.4844 352.583 11.0156 Q353.208 10.5469 354.4268 10.5469 L355.6924 10.5469 L355.6924 10.4531 Q355.6924 9.8438 355.2783 9.5 Q354.8643 9.1562 354.1299 9.1562 Q353.6611 9.1562 353.2158 9.2734 Q352.7705 9.3906 352.3643 9.6094 L352.3643 8.7812 Q352.8643 8.5938 353.3252 8.5 Q353.7861 8.4062 354.2236 8.4062 Q355.4111 8.4062 355.9971 9.0156 Q356.583 9.625 356.583 10.875 ZM359.3203 6.9844 L359.3203 8.5312 L361.1797 8.5312 L361.1797 9.2344 L359.3203 9.2344 L359.3203 12.2031 Q359.3203 12.8594 359.5078 13.0547 Q359.6953 13.25 360.2578 13.25 L361.1797 13.25 L361.1797 14 L360.2578 14 Q359.2109 14 358.8125 13.6094 Q358.4141 13.2188 358.4141 12.2031 L358.4141 9.2344 L357.7578 9.2344 L357.7578 8.5312 L358.4141 8.5312 L358.4141 6.9844 L359.3203 6.9844 ZM362.3506 8.5312 L363.2568 8.5312 L363.2568 14 L362.3506 14 L362.3506 8.5312 ZM362.3506 6.4062 L363.2568 6.4062 L363.2568 7.5469 L362.3506 7.5469 L362.3506 6.4062 ZM369.0664 8.7344 L369.0664 9.5781 Q368.6914 9.375 368.3086 9.2656 Q367.9258 9.1562 367.5352 9.1562 Q366.6602 9.1562 366.1758 9.7109 Q365.6914 10.2656 365.6914 11.2656 Q365.6914 12.2656 366.1758 12.8203 Q366.6602 13.375 367.5352 13.375 Q367.9258 13.375 368.3086 13.2734 Q368.6914 13.1719 369.0664 12.9531 L369.0664 13.7969 Q368.6914 13.9688 368.293 14.0547 Q367.8945 14.1406 367.4414 14.1406 Q366.1914 14.1406 365.4648 13.3672 Q364.7383 12.5938 364.7383 11.2656 Q364.7383 9.9375 365.4727 9.1719 Q366.207 8.4062 367.4883 8.4062 Q367.9102 8.4062 368.3008 8.4844 Q368.6914 8.5625 369.0664 8.7344 ZM374.6963 6.9844 L374.6963 8.5312 L376.5557 8.5312 L376.5557 9.2344 L374.6963 9.2344 L374.6963 12.2031 Q374.6963 12.8594 374.8838 13.0547 Q375.0713 13.25 375.6338 13.25 L376.5557 13.25 L376.5557 14 L375.6338 14 Q374.5869 14 374.1885 13.6094 Q373.79 13.2188 373.79 12.2031 L373.79 9.2344 L373.1338 9.2344 L373.1338 8.5312 L373.79 8.5312 L373.79 6.9844 L374.6963 6.9844 ZM380.8984 9.375 Q380.7422 9.2812 380.5703 9.2422 Q380.3984 9.2031 380.1797 9.2031 Q379.4141 9.2031 379.0078 9.6953 Q378.6016 10.1875 378.6016 11.125 L378.6016 14 L377.6953 14 L377.6953 8.5312 L378.6016 8.5312 L378.6016 9.375 Q378.8828 8.875 379.3359 8.6406 Q379.7891 8.4062 380.4453 8.4062 Q380.5391 8.4062 380.6484 8.4141 Q380.7578 8.4219 380.8984 8.4531 L380.8984 9.375 ZM384.3223 11.25 Q383.2441 11.25 382.8223 11.5 Q382.4004 11.75 382.4004 12.3438 Q382.4004 12.8281 382.7129 13.1094 Q383.0254 13.3906 383.5723 13.3906 Q384.3223 13.3906 384.7754 12.8594 Q385.2285 12.3281 385.2285 11.4531 L385.2285 11.25 L384.3223 11.25 ZM386.1191 10.875 L386.1191 14 L385.2285 14 L385.2285 13.1719 Q384.916 13.6719 384.4551 13.9062 Q383.9941 14.1406 383.3379 14.1406 Q382.4941 14.1406 381.9941 13.6719 Q381.4941 13.2031 381.4941 12.4062 Q381.4941 11.4844 382.1191 11.0156 Q382.7441 10.5469 383.9629 10.5469 L385.2285 10.5469 L385.2285 10.4531 Q385.2285 9.8438 384.8145 9.5 Q384.4004 9.1562 383.666 9.1562 Q383.1973 9.1562 382.752 9.2734 Q382.3066 9.3906 381.9004 9.6094 L381.9004 8.7812 Q382.4004 8.5938 382.8613 8.5 Q383.3223 8.4062 383.7598 8.4062 Q384.9473 8.4062 385.5332 9.0156 Q386.1191 9.625 386.1191 10.875 ZM387.9658 8.5312 L388.8721 8.5312 L388.8721 14 L387.9658 14 L387.9658 8.5312 ZM387.9658 6.4062 L388.8721 6.4062 L388.8721 7.5469 L387.9658 7.5469 L387.9658 6.4062 ZM391.6348 6.9844 L391.6348 8.5312 L393.4941 8.5312 L393.4941 9.2344 L391.6348 9.2344 L391.6348 12.2031 Q391.6348 12.8594 391.8223 13.0547 Q392.0098 13.25 392.5723 13.25 L393.4941 13.25 L393.4941 14 L392.5723 14 Q391.5254 14 391.127 13.6094 Q390.7285 13.2188 390.7285 12.2031 L390.7285 9.2344 L390.0723 9.2344 L390.0723 8.5312 L390.7285 8.5312 L390.7285 6.9844 L391.6348 6.9844 ZM398.1494 8.6875 L398.1494 9.5469 Q397.7744 9.3438 397.3682 9.25 Q396.9619 9.1562 396.5088 9.1562 Q395.8525 9.1562 395.5166 9.3594 Q395.1807 9.5625 395.1807 9.9688 Q395.1807 10.2812 395.415 10.4609 Q395.6494 10.6406 396.3838 10.7969 L396.6807 10.875 Q397.6494 11.0781 398.0479 11.4531 Q398.4463 11.8281 398.4463 12.4844 Q398.4463 13.25 397.8447 13.6953 Q397.2432 14.1406 396.1963 14.1406 Q395.7432 14.1406 395.2666 14.0547 Q394.79 13.9688 394.2744 13.7969 L394.2744 12.875 Q394.7744 13.125 395.251 13.2578 Q395.7275 13.3906 396.2119 13.3906 Q396.8369 13.3906 397.1807 13.1719 Q397.5244 12.9531 397.5244 12.5625 Q397.5244 12.1875 397.2822 11.9922 Q397.04 11.7969 396.1963 11.625 L395.8838 11.5469 Q395.0557 11.375 394.6807 11.0078 Q394.3057 10.6406 394.3057 10.0156 Q394.3057 9.2344 394.8525 8.8203 Q395.3994 8.4062 396.415 8.4062 Q396.8994 8.4062 397.3447 8.4766 Q397.79 8.5469 398.1494 8.6875 Z"
         style="clip-path:url(#clipPath2); stroke:none;"
         clip-path="url(#clipPath2)"
         id="path193" />
      <path
         d="M4.25 21.9375 Q3.3906 21.9375 2.9141 22.5703 Q2.4375 23.2031 2.4375 24.3594 Q2.4375 25.5156 2.9141 26.1484 Q3.3906 26.7812 4.25 26.7812 Q5.1094 26.7812 5.5859 26.1484 Q6.0625 25.5156 6.0625 24.3594 Q6.0625 23.2031 5.5859 22.5703 Q5.1094 21.9375 4.25 21.9375 ZM4.25 20.5781 Q6 20.5781 7 21.5859 Q8 22.5938 8 24.3594 Q8 26.125 7 27.1328 Q6 28.1406 4.25 28.1406 Q2.5 28.1406 1.5 27.1328 Q0.5 26.125 0.5 24.3594 Q0.5 22.5938 1.5 21.5859 Q2.5 20.5781 4.25 20.5781 ZM13.4072 24.0156 Q13.1729 23.9062 12.9463 23.8594 Q12.7197 23.8125 12.4854 23.8125 Q11.8135 23.8125 11.4541 24.2422 Q11.0947 24.6719 11.0947 25.4844 L11.0947 28 L9.3447 28 L9.3447 22.5312 L11.0947 22.5312 L11.0947 23.4219 Q11.4229 22.8906 11.8604 22.6484 Q12.2979 22.4062 12.9072 22.4062 Q13.001 22.4062 13.1025 22.4062 Q13.2041 22.4062 13.3916 22.4375 L13.4072 24.0156 ZM17.9951 27.0781 Q17.6357 27.5469 17.1982 27.7734 Q16.7607 28 16.1982 28 Q15.1982 28 14.542 27.2109 Q13.8857 26.4219 13.8857 25.2031 Q13.8857 23.9688 14.542 23.1875 Q15.1982 22.4062 16.1982 22.4062 Q16.7607 22.4062 17.1982 22.6328 Q17.6357 22.8594 17.9951 23.3438 L17.9951 22.5312 L19.7451 22.5312 L19.7451 27.4531 Q19.7451 28.7656 18.917 29.4609 Q18.0889 30.1562 16.5107 30.1562 Q15.9951 30.1562 15.5186 30.0781 Q15.042 30 14.5576 29.8438 L14.5576 28.4844 Q15.0107 28.75 15.4482 28.875 Q15.8857 29 16.3389 29 Q17.1982 29 17.5967 28.625 Q17.9951 28.25 17.9951 27.4531 L17.9951 27.0781 ZM16.8389 23.6719 Q16.292 23.6719 15.9951 24.0703 Q15.6982 24.4688 15.6982 25.2031 Q15.6982 25.9531 15.9873 26.3438 Q16.2764 26.7344 16.8389 26.7344 Q17.3857 26.7344 17.6904 26.3281 Q17.9951 25.9219 17.9951 25.2031 Q17.9951 24.4688 17.6904 24.0703 Q17.3857 23.6719 16.8389 23.6719 ZM23.8877 25.5312 Q23.3408 25.5312 23.0596 25.7188 Q22.7783 25.9062 22.7783 26.2656 Q22.7783 26.6094 23.0049 26.7969 Q23.2314 26.9844 23.6221 26.9844 Q24.1221 26.9844 24.458 26.625 Q24.7939 26.2656 24.7939 25.7344 L24.7939 25.5312 L23.8877 25.5312 ZM26.5596 24.875 L26.5596 28 L24.7939 28 L24.7939 27.1875 Q24.4346 27.6875 23.9971 27.9141 Q23.5596 28.1406 22.9346 28.1406 Q22.0752 28.1406 21.5518 27.6484 Q21.0283 27.1562 21.0283 26.3594 Q21.0283 25.3906 21.6846 24.9453 Q22.3408 24.5 23.7627 24.5 L24.7939 24.5 L24.7939 24.3594 Q24.7939 23.9531 24.4658 23.7578 Q24.1377 23.5625 23.4502 23.5625 Q22.8877 23.5625 22.4033 23.6719 Q21.9189 23.7812 21.4971 24.0156 L21.4971 22.6719 Q22.0596 22.5469 22.6299 22.4766 Q23.2002 22.4062 23.7627 22.4062 Q25.2471 22.4062 25.9033 22.9844 Q26.5596 23.5625 26.5596 24.875 ZM33.6826 24.6719 L33.6826 28 L31.917 28 L31.917 27.4531 L31.917 25.4531 Q31.917 24.75 31.8857 24.4766 Q31.8545 24.2031 31.7764 24.0781 Q31.6826 23.9062 31.5029 23.8125 Q31.3232 23.7188 31.1045 23.7188 Q30.5576 23.7188 30.2451 24.1406 Q29.9326 24.5625 29.9326 25.3125 L29.9326 28 L28.1826 28 L28.1826 22.5312 L29.9326 22.5312 L29.9326 23.3281 Q30.3232 22.8594 30.7686 22.6328 Q31.2139 22.4062 31.7451 22.4062 Q32.6982 22.4062 33.1904 22.9844 Q33.6826 23.5625 33.6826 24.6719 ZM35.3018 22.5312 L37.0518 22.5312 L37.0518 28 L35.3018 28 L35.3018 22.5312 ZM35.3018 20.4062 L37.0518 20.4062 L37.0518 21.8281 L35.3018 21.8281 L35.3018 20.4062 ZM42.9951 22.7031 L42.9951 24.0312 Q42.4326 23.7969 41.9092 23.6797 Q41.3857 23.5625 40.9326 23.5625 Q40.4326 23.5625 40.1904 23.6875 Q39.9482 23.8125 39.9482 24.0625 Q39.9482 24.2812 40.1279 24.3906 Q40.3076 24.5 40.792 24.5625 L41.0889 24.5938 Q42.4326 24.7656 42.9014 25.1562 Q43.3701 25.5469 43.3701 26.3906 Q43.3701 27.2656 42.7217 27.7031 Q42.0732 28.1406 40.792 28.1406 Q40.2607 28.1406 39.6826 28.0547 Q39.1045 27.9688 38.4795 27.7969 L38.4795 26.4688 Q39.0107 26.7188 39.5576 26.8516 Q40.1045 26.9844 40.667 26.9844 Q41.1826 26.9844 41.4404 26.8438 Q41.6982 26.7031 41.6982 26.4219 Q41.6982 26.1875 41.5264 26.0703 Q41.3545 25.9531 40.8232 25.8906 L40.5107 25.8438 Q39.3389 25.7031 38.8701 25.3047 Q38.4014 24.9062 38.4014 24.1094 Q38.4014 23.2344 38.9951 22.8203 Q39.5889 22.4062 40.8232 22.4062 Q41.3076 22.4062 41.8389 22.4766 Q42.3701 22.5469 42.9951 22.7031 ZM49.7441 23.4375 Q50.0723 22.9375 50.5332 22.6719 Q50.9941 22.4062 51.541 22.4062 Q52.4785 22.4062 52.9707 22.9844 Q53.4629 23.5625 53.4629 24.6719 L53.4629 28 L51.7129 28 L51.7129 25.1406 Q51.7129 25.0781 51.7129 25.0156 Q51.7129 24.9531 51.7129 24.8281 Q51.7129 24.2344 51.5488 23.9766 Q51.3848 23.7188 50.9941 23.7188 Q50.4941 23.7188 50.2285 24.125 Q49.9629 24.5312 49.9473 25.3125 L49.9473 28 L48.1816 28 L48.1816 25.1406 Q48.1816 24.2344 48.0254 23.9766 Q47.8691 23.7188 47.4785 23.7188 Q46.9785 23.7188 46.7051 24.1328 Q46.4316 24.5469 46.4316 25.3125 L46.4316 28 L44.666 28 L44.666 22.5312 L46.4316 22.5312 L46.4316 23.3281 Q46.7441 22.875 47.166 22.6406 Q47.5879 22.4062 48.0879 22.4062 Q48.6504 22.4062 49.0879 22.6797 Q49.5254 22.9531 49.7441 23.4375 ZM55.3828 22.5312 L57.1328 22.5312 L57.1328 24.4219 L55.3828 24.4219 L55.3828 22.5312 ZM55.3828 26.1094 L57.1328 26.1094 L57.1328 28 L55.3828 28 L55.3828 26.1094 Z"
         style="clip-path:url(#clipPath2); stroke:none;"
         clip-path="url(#clipPath2)"
         id="path195" />
      <path
         d="M66.9844 20.7031 L67.9688 20.7031 L67.9688 23.7031 L71.5469 23.7031 L71.5469 20.7031 L72.5312 20.7031 L72.5312 28 L71.5469 28 L71.5469 24.5312 L67.9688 24.5312 L67.9688 28 L66.9844 28 L66.9844 20.7031 ZM76.582 23.1562 Q75.8633 23.1562 75.4414 23.7188 Q75.0195 24.2812 75.0195 25.2656 Q75.0195 26.25 75.4336 26.8125 Q75.8477 27.375 76.582 27.375 Q77.3008 27.375 77.7227 26.8125 Q78.1445 26.25 78.1445 25.2656 Q78.1445 24.2969 77.7227 23.7266 Q77.3008 23.1562 76.582 23.1562 ZM76.582 22.4062 Q77.7539 22.4062 78.4258 23.1641 Q79.0977 23.9219 79.0977 25.2656 Q79.0977 26.6094 78.4258 27.375 Q77.7539 28.1406 76.582 28.1406 Q75.4102 28.1406 74.7383 27.375 Q74.0664 26.6094 74.0664 25.2656 Q74.0664 23.9219 74.7383 23.1641 Q75.4102 22.4062 76.582 22.4062 ZM84.8408 23.5781 Q85.1689 22.9688 85.6377 22.6875 Q86.1064 22.4062 86.7471 22.4062 Q87.6064 22.4062 88.0674 23 Q88.5283 23.5938 88.5283 24.7031 L88.5283 28 L87.6221 28 L87.6221 24.7344 Q87.6221 23.9375 87.3486 23.5625 Q87.0752 23.1875 86.4971 23.1875 Q85.7939 23.1875 85.3955 23.6484 Q84.9971 24.1094 84.9971 24.9062 L84.9971 28 L84.0908 28 L84.0908 24.7344 Q84.0908 23.9375 83.8096 23.5625 Q83.5283 23.1875 82.9502 23.1875 Q82.2627 23.1875 81.8564 23.6484 Q81.4502 24.1094 81.4502 24.9062 L81.4502 28 L80.5439 28 L80.5439 22.5312 L81.4502 22.5312 L81.4502 23.375 Q81.7627 22.875 82.1924 22.6406 Q82.6221 22.4062 83.2002 22.4062 Q83.8096 22.4062 84.2236 22.7031 Q84.6377 23 84.8408 23.5781 ZM92.4414 23.1562 Q91.7227 23.1562 91.3008 23.7188 Q90.8789 24.2812 90.8789 25.2656 Q90.8789 26.25 91.293 26.8125 Q91.707 27.375 92.4414 27.375 Q93.1602 27.375 93.582 26.8125 Q94.0039 26.25 94.0039 25.2656 Q94.0039 24.2969 93.582 23.7266 Q93.1602 23.1562 92.4414 23.1562 ZM92.4414 22.4062 Q93.6133 22.4062 94.2852 23.1641 Q94.957 23.9219 94.957 25.2656 Q94.957 26.6094 94.2852 27.375 Q93.6133 28.1406 92.4414 28.1406 Q91.2695 28.1406 90.5977 27.375 Q89.9258 26.6094 89.9258 25.2656 Q89.9258 23.9219 90.5977 23.1641 Q91.2695 22.4062 92.4414 22.4062 ZM103.0977 22.6875 L103.0977 23.5469 Q102.7227 23.3438 102.3164 23.25 Q101.9102 23.1562 101.457 23.1562 Q100.8008 23.1562 100.4648 23.3594 Q100.1289 23.5625 100.1289 23.9688 Q100.1289 24.2812 100.3633 24.4609 Q100.5977 24.6406 101.332 24.7969 L101.6289 24.875 Q102.5977 25.0781 102.9961 25.4531 Q103.3945 25.8281 103.3945 26.4844 Q103.3945 27.25 102.793 27.6953 Q102.1914 28.1406 101.1445 28.1406 Q100.6914 28.1406 100.2148 28.0547 Q99.7383 27.9688 99.2227 27.7969 L99.2227 26.875 Q99.7227 27.125 100.1992 27.2578 Q100.6758 27.3906 101.1602 27.3906 Q101.7852 27.3906 102.1289 27.1719 Q102.4727 26.9531 102.4727 26.5625 Q102.4727 26.1875 102.2305 25.9922 Q101.9883 25.7969 101.1445 25.625 L100.832 25.5469 Q100.0039 25.375 99.6289 25.0078 Q99.2539 24.6406 99.2539 24.0156 Q99.2539 23.2344 99.8008 22.8203 Q100.3477 22.4062 101.3633 22.4062 Q101.8477 22.4062 102.293 22.4766 Q102.7383 22.5469 103.0977 22.6875 ZM107.3076 25.25 Q106.2295 25.25 105.8076 25.5 Q105.3857 25.75 105.3857 26.3438 Q105.3857 26.8281 105.6982 27.1094 Q106.0107 27.3906 106.5576 27.3906 Q107.3076 27.3906 107.7607 26.8594 Q108.2139 26.3281 108.2139 25.4531 L108.2139 25.25 L107.3076 25.25 ZM109.1045 24.875 L109.1045 28 L108.2139 28 L108.2139 27.1719 Q107.9014 27.6719 107.4404 27.9062 Q106.9795 28.1406 106.3232 28.1406 Q105.4795 28.1406 104.9795 27.6719 Q104.4795 27.2031 104.4795 26.4062 Q104.4795 25.4844 105.1045 25.0156 Q105.7295 24.5469 106.9482 24.5469 L108.2139 24.5469 L108.2139 24.4531 Q108.2139 23.8438 107.7998 23.5 Q107.3857 23.1562 106.6514 23.1562 Q106.1826 23.1562 105.7373 23.2734 Q105.292 23.3906 104.8857 23.6094 L104.8857 22.7812 Q105.3857 22.5938 105.8467 22.5 Q106.3076 22.4062 106.7451 22.4062 Q107.9326 22.4062 108.5186 23.0156 Q109.1045 23.625 109.1045 24.875 ZM111.8262 27.1719 L111.8262 30.0781 L110.9199 30.0781 L110.9199 22.5312 L111.8262 22.5312 L111.8262 23.3594 Q112.1074 22.875 112.5371 22.6406 Q112.9668 22.4062 113.5762 22.4062 Q114.5762 22.4062 115.1934 23.1953 Q115.8105 23.9844 115.8105 25.2656 Q115.8105 26.5625 115.1934 27.3516 Q114.5762 28.1406 113.5762 28.1406 Q112.9668 28.1406 112.5371 27.9062 Q112.1074 27.6719 111.8262 27.1719 ZM114.8887 25.2656 Q114.8887 24.2812 114.4746 23.7188 Q114.0605 23.1562 113.3574 23.1562 Q112.6387 23.1562 112.2324 23.7188 Q111.8262 24.2812 111.8262 25.2656 Q111.8262 26.2656 112.2324 26.8281 Q112.6387 27.3906 113.3574 27.3906 Q114.0605 27.3906 114.4746 26.8281 Q114.8887 26.2656 114.8887 25.2656 ZM117.2988 22.5312 L118.2051 22.5312 L118.2051 28 L117.2988 28 L117.2988 22.5312 ZM117.2988 20.4062 L118.2051 20.4062 L118.2051 21.5469 L117.2988 21.5469 L117.2988 20.4062 ZM124.7646 25.0469 L124.7646 25.4844 L120.624 25.4844 Q120.6865 26.4062 121.1865 26.8906 Q121.6865 27.375 122.5771 27.375 Q123.0928 27.375 123.585 27.25 Q124.0771 27.125 124.5459 26.875 L124.5459 27.7188 Q124.0615 27.9219 123.5537 28.0312 Q123.0459 28.1406 122.5303 28.1406 Q121.2178 28.1406 120.4521 27.3828 Q119.6865 26.625 119.6865 25.3125 Q119.6865 23.9688 120.4131 23.1875 Q121.1396 22.4062 122.374 22.4062 Q123.4834 22.4062 124.124 23.1094 Q124.7646 23.8125 124.7646 25.0469 ZM123.8584 24.7812 Q123.8584 24.0469 123.4521 23.6016 Q123.0459 23.1562 122.3896 23.1562 Q121.624 23.1562 121.1787 23.5859 Q120.7334 24.0156 120.6553 24.7812 L123.8584 24.7812 ZM130.7764 24.7031 L130.7764 28 L129.8857 28 L129.8857 24.7344 Q129.8857 23.9531 129.5811 23.5703 Q129.2764 23.1875 128.667 23.1875 Q127.9482 23.1875 127.5264 23.6484 Q127.1045 24.1094 127.1045 24.9062 L127.1045 28 L126.1982 28 L126.1982 22.5312 L127.1045 22.5312 L127.1045 23.375 Q127.4326 22.8906 127.8701 22.6484 Q128.3076 22.4062 128.8701 22.4062 Q129.8076 22.4062 130.292 22.9844 Q130.7764 23.5625 130.7764 24.7031 ZM136.0518 22.6875 L136.0518 23.5469 Q135.6768 23.3438 135.2705 23.25 Q134.8643 23.1562 134.4111 23.1562 Q133.7549 23.1562 133.4189 23.3594 Q133.083 23.5625 133.083 23.9688 Q133.083 24.2812 133.3174 24.4609 Q133.5518 24.6406 134.2861 24.7969 L134.583 24.875 Q135.5518 25.0781 135.9502 25.4531 Q136.3486 25.8281 136.3486 26.4844 Q136.3486 27.25 135.7471 27.6953 Q135.1455 28.1406 134.0986 28.1406 Q133.6455 28.1406 133.1689 28.0547 Q132.6924 27.9688 132.1768 27.7969 L132.1768 26.875 Q132.6768 27.125 133.1533 27.2578 Q133.6299 27.3906 134.1143 27.3906 Q134.7393 27.3906 135.083 27.1719 Q135.4268 26.9531 135.4268 26.5625 Q135.4268 26.1875 135.1846 25.9922 Q134.9424 25.7969 134.0986 25.625 L133.7861 25.5469 Q132.958 25.375 132.583 25.0078 Q132.208 24.6406 132.208 24.0156 Q132.208 23.2344 132.7549 22.8203 Q133.3018 22.4062 134.3174 22.4062 Q134.8018 22.4062 135.2471 22.4766 Q135.6924 22.5469 136.0518 22.6875 Z"
         style="clip-path:url(#clipPath2); stroke:none;"
         clip-path="url(#clipPath2)"
         id="path197" />
    </g>
    <g
       style="fill:navy; text-rendering:geometricPrecision; font-size:8; stroke:navy;"
       id="g203">
      <text
         x="405"
         xml:space="preserve"
         y="16"
         style="clip-path:url(#clipPath4); stroke:none;"
         clip-path="url(#clipPath4)"
         id="text201">1</text>
    </g>
    <g
       style="fill:rgb(180,180,100); text-rendering:geometricPrecision; fill-opacity:0.098; stroke-opacity:0.098; stroke:rgb(180,180,100);"
       id="g207">
      <rect
         x="1022"
         y="286"
         width="126"
         style="clip-path:url(#clipPath5); stroke:none;"
         height="131"
         clip-path="url(#clipPath5)"
         id="rect205" />
    </g>
    <g
       style="fill:gray; text-rendering:geometricPrecision; stroke-dasharray:4,2; stroke-miterlimit:1; stroke:gray;"
       id="g211">
      <rect
         x="1022"
         y="286"
         width="125"
         style="fill:none; clip-path:url(#clipPath5);"
         height="130"
         clip-path="url(#clipPath5)"
         id="rect209" />
    </g>
    <g
       style="text-rendering:geometricPrecision;"
       id="g219">
      <path
         d="M815.3793 355.3553 L851.2739 355.0841"
         style="fill:none; clip-path:url(#clipPath6);"
         clip-path="url(#clipPath6)"
         id="path213" />
      <path
         d="M851.2051 345.9844 L852.5051 345.9745 L852.6524 365.474 L851.3524 365.4838 L851.2051 345.9844 Z"
         style="fill:white; clip-path:url(#clipPath6); stroke:none;"
         clip-path="url(#clipPath6)"
         id="path215" />
      <path
         d="M851.2051 345.9844 L852.5051 345.9745 L852.6524 365.474 L851.3524 365.4838 L851.2051 345.9844 Z"
         style="fill:none; clip-path:url(#clipPath6);"
         clip-path="url(#clipPath6)"
         id="path217" />
    </g>
    <g
       style="text-rendering:geometricPrecision;"
       id="g225">
      <path
         d="M222.968 469.6783 L325.5883 469.6783"
         style="fill:none; clip-path:url(#clipPath7);"
         clip-path="url(#clipPath7)"
         id="path221" />
      <path
         d="M325.5883 469.6783 L313.8884 464.4783 L313.8884 474.8783 Z"
         style="clip-path:url(#clipPath7); fill-rule:evenodd; stroke:none;"
         clip-path="url(#clipPath7)"
         id="path223" />
    </g>
    <g
       style="text-rendering:geometricPrecision;"
       id="g231">
      <path
         d="M1148.5623 385.3286 L1185.9036 404.1443"
         style="fill:none; clip-path:url(#clipPath8);"
         clip-path="url(#clipPath8)"
         id="path227" />
      <path
         d="M1185.9036 404.1443 L1177.795 394.2357 L1173.1151 403.5233 Z"
         style="clip-path:url(#clipPath8); fill-rule:evenodd; stroke:none;"
         clip-path="url(#clipPath8)"
         id="path229" />
    </g>
    <g
       style="text-rendering:geometricPrecision;"
       id="g237">
      <path
         d="M949.1299 355.0312 L1022.0803 385.3286"
         style="fill:none; clip-path:url(#clipPath9);"
         clip-path="url(#clipPath9)"
         id="path233" />
      <path
         d="M1022.0803 385.3286 L1013.2696 376.0388 L1009.2807 385.6434 Z"
         style="clip-path:url(#clipPath9); fill-rule:evenodd; stroke:none;"
         clip-path="url(#clipPath9)"
         id="path235" />
    </g>
    <g
       style="text-rendering:geometricPrecision;"
       id="g243">
      <path
         d="M1263.2262 352.3539 L1293.9608 352.3539"
         style="fill:none; clip-path:url(#clipPath10);"
         clip-path="url(#clipPath10)"
         id="path239" />
      <path
         d="M1293.9608 352.3539 L1282.2609 347.1539 L1282.2609 357.5539 Z"
         style="clip-path:url(#clipPath10); fill-rule:evenodd; stroke:none;"
         clip-path="url(#clipPath10)"
         id="path241" />
    </g>
    <g
       style="stroke-dasharray:4,4; text-rendering:geometricPrecision;"
       id="g249">
      <path
         d="M420.468 136.0163 L487.2622 136.0163"
         style="fill:none; clip-path:url(#clipPath11);"
         clip-path="url(#clipPath11)"
         id="path245" />
      <path
         d="M487.2622 136.0163 L475.5622 130.8163 L475.5622 141.2163 Z"
         style="stroke-dasharray:none; clip-path:url(#clipPath11); fill-rule:evenodd; stroke:none;"
         clip-path="url(#clipPath11)"
         id="path247" />
    </g>
    <g
       style="text-rendering:geometricPrecision;"
       id="g255">
      <path
         d="M189.5783 315.9304 L340.468 317.3126"
         style="fill:none; clip-path:url(#clipPath12);"
         clip-path="url(#clipPath12)"
         id="path251" />
      <path
         d="M340.468 317.3126 L328.8161 312.0056 L328.7209 322.4052 Z"
         style="clip-path:url(#clipPath12); fill-rule:evenodd; stroke:none;"
         clip-path="url(#clipPath12)"
         id="path253" />
    </g>
    <g
       style="stroke-dasharray:4,4; text-rendering:geometricPrecision;"
       id="g261">
      <path
         d="M420.468 317.3126 L480.2337 317.4939"
         style="fill:none; clip-path:url(#clipPath13);"
         clip-path="url(#clipPath13)"
         id="path257" />
      <path
         d="M480.2337 317.4939 L468.5495 312.2584 L468.518 322.6584 Z"
         style="stroke-dasharray:none; clip-path:url(#clipPath13); fill-rule:evenodd; stroke:none;"
         clip-path="url(#clipPath13)"
         id="path259" />
    </g>
    <g
       style="text-rendering:geometricPrecision;"
       id="g267">
      <path
         d="M1265.9036 404.1443 L1296.6382 404.1443"
         style="fill:none; clip-path:url(#clipPath14);"
         clip-path="url(#clipPath14)"
         id="path263" />
      <path
         d="M1296.6382 404.1443 L1284.9382 398.9444 L1284.9382 409.3444 Z"
         style="clip-path:url(#clipPath14); fill-rule:evenodd; stroke:none;"
         clip-path="url(#clipPath14)"
         id="path265" />
    </g>
    <g
       style="text-rendering:geometricPrecision;"
       id="g273">
      <path
         d="M294.598 177.7537 L295.1522 135.6501"
         style="fill:none; clip-path:url(#clipPath15);"
         clip-path="url(#clipPath15)"
         id="path269" />
      <path
         d="M295.1522 135.6501 L289.7987 147.2806 L300.1978 147.4175 Z"
         style="clip-path:url(#clipPath15); fill-rule:evenodd; stroke:none;"
         clip-path="url(#clipPath15)"
         id="path271" />
    </g>
    <g
       style="text-rendering:geometricPrecision;"
       id="g279">
      <path
         d="M225.6454 631.1945 L317.5883 631.4958"
         style="fill:none; clip-path:url(#clipPath16);"
         clip-path="url(#clipPath16)"
         id="path275" />
      <path
         d="M317.5883 631.4958 L305.9055 626.2576 L305.8714 636.6575 Z"
         style="clip-path:url(#clipPath16); fill-rule:evenodd; stroke:none;"
         clip-path="url(#clipPath16)"
         id="path277" />
    </g>
    <g
       style="text-rendering:geometricPrecision;"
       id="g285">
      <path
         d="M413.5883 631.4958 L563.431 542.2279"
         style="fill:none; clip-path:url(#clipPath17);"
         clip-path="url(#clipPath17)"
         id="path281" />
      <path
         d="M563.431 542.2279 L550.7181 543.7487 L556.0408 552.6833 Z"
         style="clip-path:url(#clipPath17); fill-rule:evenodd; stroke:none;"
         clip-path="url(#clipPath17)"
         id="path283" />
    </g>
    <g
       style="text-rendering:geometricPrecision;"
       id="g291">
      <path
         d="M1265.9036 307.0755 L1296.6382 307.0755"
         style="fill:none; clip-path:url(#clipPath18);"
         clip-path="url(#clipPath18)"
         id="path287" />
      <path
         d="M1296.6382 307.0755 L1284.9382 301.8755 L1284.9382 312.2755 Z"
         style="clip-path:url(#clipPath18); fill-rule:evenodd; stroke:none;"
         clip-path="url(#clipPath18)"
         id="path289" />
    </g>
    <g
       style="text-rendering:geometricPrecision;"
       id="g297">
      <path
         d="M949.1299 355.0312 L1022.0803 319.4505"
         style="fill:none; clip-path:url(#clipPath19);"
         clip-path="url(#clipPath19)"
         id="path293" />
      <path
         d="M1022.0803 319.4505 L1009.2849 319.9057 L1013.844 329.2532 Z"
         style="clip-path:url(#clipPath19); fill-rule:evenodd; stroke:none;"
         clip-path="url(#clipPath19)"
         id="path295" />
    </g>
    <g
       style="text-rendering:geometricPrecision;"
       id="g303">
      <path
         d="M405.5883 469.6783 L563.431 522.2279"
         style="fill:none; clip-path:url(#clipPath20);"
         clip-path="url(#clipPath20)"
         id="path299" />
      <path
         d="M563.431 522.2279 L553.9725 513.5984 L550.6874 523.4659 Z"
         style="clip-path:url(#clipPath20); fill-rule:evenodd; stroke:none;"
         clip-path="url(#clipPath20)"
         id="path301" />
    </g>
    <g
       style="text-rendering:geometricPrecision;"
       id="g309">
      <path
         d="M185.6454 543.5666 L185.6454 621.1945"
         style="fill:none; clip-path:url(#clipPath21);"
         clip-path="url(#clipPath21)"
         id="path305" />
      <path
         d="M185.6454 621.1945 L190.8454 609.4946 L180.4454 609.4946 Z"
         style="clip-path:url(#clipPath21); fill-rule:evenodd; stroke:none;"
         clip-path="url(#clipPath21)"
         id="path307" />
    </g>
    <g
       style="text-rendering:geometricPrecision;"
       id="g315">
      <path
         d="M949.1299 355.0312 L1022.0803 352.3896"
         style="fill:none; clip-path:url(#clipPath22);"
         clip-path="url(#clipPath22)"
         id="path311" />
      <path
         d="M1022.0803 352.3896 L1010.1998 347.6164 L1010.5762 358.0096 Z"
         style="clip-path:url(#clipPath22); fill-rule:evenodd; stroke:none;"
         clip-path="url(#clipPath22)"
         id="path313" />
    </g>
    <g
       style="text-rendering:geometricPrecision;"
       id="g321">
      <path
         d="M254.6157 356.689 L255.6716 316.5358"
         style="fill:none; clip-path:url(#clipPath23);"
         clip-path="url(#clipPath23)"
         id="path317" />
      <path
         d="M255.6716 316.5358 L250.1658 328.0951 L260.5623 328.3685 Z"
         style="clip-path:url(#clipPath23); fill-rule:evenodd; stroke:none;"
         clip-path="url(#clipPath23)"
         id="path319" />
    </g>
    <g
       style="text-rendering:geometricPrecision;"
       id="g327">
      <path
         d="M365.5883 544.9053 L365.5883 572.5388"
         style="fill:none; clip-path:url(#clipPath24);"
         clip-path="url(#clipPath24)"
         id="path323" />
      <path
         d="M365.5883 572.5388 L370.7884 560.8388 L360.3884 560.8388 Z"
         style="clip-path:url(#clipPath24); fill-rule:evenodd; stroke:none;"
         clip-path="url(#clipPath24)"
         id="path325" />
    </g>
    <g
       style="text-rendering:geometricPrecision;"
       id="g333">
      <path
         d="M365.5883 524.9053 L365.5883 479.6783"
         style="fill:none; clip-path:url(#clipPath25);"
         clip-path="url(#clipPath25)"
         id="path329" />
      <path
         d="M365.5883 479.6783 L360.3884 491.3783 L370.7884 491.3783 Z"
         style="clip-path:url(#clipPath25); fill-rule:evenodd; stroke:none;"
         clip-path="url(#clipPath25)"
         id="path331" />
    </g>
    <g
       style="text-rendering:geometricPrecision;"
       id="g339">
      <path
         d="M264.9417 135.4059 L340.468 136.0163"
         style="fill:none; clip-path:url(#clipPath26);"
         clip-path="url(#clipPath26)"
         id="path335" />
      <path
         d="M340.468 136.0163 L328.8104 130.7219 L328.7263 141.1216 Z"
         style="clip-path:url(#clipPath26); fill-rule:evenodd; stroke:none;"
         clip-path="url(#clipPath26)"
         id="path337" />
    </g>
    <g
       style="text-rendering:geometricPrecision;"
       id="g343">
      <path
         d="M47.9183 39.8862 L677.3762 39.8862 L677.3762 724.2302 L47.9183 724.2302 L47.9183 39.8862 Z"
         style="fill:none; clip-path:url(#clipPath27);"
         clip-path="url(#clipPath27)"
         id="path341" />
    </g>
    <g
       style="font-weight:bold; text-rendering:geometricPrecision;"
       id="g347">
      <text
         x="1297"
         xml:space="preserve"
         y="312"
         style="clip-path:url(#clipPath28); stroke:none;"
         clip-path="url(#clipPath28)"
         id="text345">Chemotaxis</text>
    </g>
    <g
       style="font-weight:bold; text-rendering:geometricPrecision;"
       id="g351">
      <text
         x="1293"
         xml:space="preserve"
         y="357"
         style="clip-path:url(#clipPath29); stroke:none;"
         clip-path="url(#clipPath29)"
         id="text349">Tumorigenesis</text>
    </g>
    <g
       style="font-weight:bold; text-rendering:geometricPrecision;"
       id="g357">
      <text
         x="1035"
         xml:space="preserve"
         y="311"
         style="clip-path:url(#clipPath30); stroke:none;"
         clip-path="url(#clipPath30)"
         id="text353">Histone H3K27 </text>
      <text
         x="1038"
         xml:space="preserve"
         y="324"
         style="clip-path:url(#clipPath30); stroke:none;"
         clip-path="url(#clipPath30)"
         id="text355">demethylation</text>
    </g>
    <g
       style="font-weight:bold; font-size:14; text-rendering:geometricPrecision;"
       id="g361">
      <text
         x="65"
         xml:space="preserve"
         y="70"
         style="clip-path:url(#clipPath31); stroke:none;"
         clip-path="url(#clipPath31)"
         id="text359">Metastatic traits acquired by a quantitative gain in pathway output</text>
    </g>
    <g
       style="font-weight:bold; text-rendering:geometricPrecision;"
       id="g365">
      <text
         x="551"
         xml:space="preserve"
         y="537"
         style="clip-path:url(#clipPath32); stroke:none;"
         clip-path="url(#clipPath32)"
         id="text363">Stemness</text>
    </g>
    <g
       style="font-weight:bold; text-rendering:geometricPrecision;"
       id="g369">
      <text
         x="486"
         xml:space="preserve"
         y="141"
         style="clip-path:url(#clipPath33); stroke:none;"
         clip-path="url(#clipPath33)"
         id="text367">Cell survival</text>
    </g>
    <g
       style="font-weight:bold; text-rendering:geometricPrecision;"
       id="g373">
      <text
         x="350"
         xml:space="preserve"
         y="597"
         style="clip-path:url(#clipPath34); stroke:none;"
         clip-path="url(#clipPath34)"
         id="text371">TCFs</text>
    </g>
    <g
       style="font-weight:bold; font-size:14; text-rendering:geometricPrecision;"
       id="g377">
      <text
         x="792"
         xml:space="preserve"
         y="87"
         style="clip-path:url(#clipPath35); stroke:none;"
         clip-path="url(#clipPath35)"
         id="text375">Metastatic traits acquired by a qualitative expansion of pathway output</text>
    </g>
    <g
       style="font-weight:bold; text-rendering:geometricPrecision;"
       id="g381">
      <text
         x="126"
         xml:space="preserve"
         y="320"
         style="clip-path:url(#clipPath36); stroke:none;"
         clip-path="url(#clipPath36)"
         id="text379">GPCR</text>
    </g>
    <g
       style="font-weight:bold; text-rendering:geometricPrecision;"
       id="g385">
      <text
         x="1309"
         xml:space="preserve"
         y="409"
         style="clip-path:url(#clipPath37); stroke:none;"
         clip-path="url(#clipPath37)"
         id="text383">Survival</text>
    </g>
    <g
       style="font-weight:bold; text-rendering:geometricPrecision;"
       id="g389">
      <text
         x="86"
         xml:space="preserve"
         y="139"
         style="clip-path:url(#clipPath38); stroke:none;"
         clip-path="url(#clipPath38)"
         id="text387">Receptor Tyrosine Kinases</text>
    </g>
    <g
       style="fill:white; text-rendering:geometricPrecision; stroke:white;"
       id="g397">
      <path
         d="M325.5883 459.6783 L405.5883 459.6783 L405.5883 479.6783 L325.5883 479.6783 L325.5883 459.6783 Z"
         style="clip-path:url(#clipPath39); stroke:none;"
         clip-path="url(#clipPath39)"
         id="path391" />
      <path
         d="M325.5883 459.6783 L405.5883 459.6783 L405.5883 479.6783 L325.5883 479.6783 L325.5883 459.6783 Z"
         style="fill:none; clip-path:url(#clipPath39); stroke:black;"
         clip-path="url(#clipPath39)"
         id="path393" />
      <text
         x="348"
         y="473"
         style="font-size:10; clip-path:url(#clipPath39); fill:black; stroke:none;"
         xml:space="preserve"
         clip-path="url(#clipPath39)"
         id="text395">NOTCH</text>
    </g>
    <g
       style="fill:white; text-rendering:geometricPrecision; stroke:white;"
       id="g405">
      <path
         d="M142.968 459.6783 L222.968 459.6783 L222.968 479.6783 L142.968 479.6783 L142.968 459.6783 Z"
         style="clip-path:url(#clipPath40); stroke:none;"
         clip-path="url(#clipPath40)"
         id="path399" />
      <path
         d="M142.968 459.6783 L222.968 459.6783 L222.968 479.6783 L142.968 479.6783 L142.968 459.6783 Z"
         style="fill:none; clip-path:url(#clipPath40); stroke:black;"
         clip-path="url(#clipPath40)"
         id="path401" />
      <text
         x="163"
         y="473"
         style="font-size:10; clip-path:url(#clipPath40); fill:black; stroke:none;"
         xml:space="preserve"
         clip-path="url(#clipPath40)"
         id="text403">JAGGED</text>
    </g>
    <g
       style="fill:white; text-rendering:geometricPrecision; stroke:white;"
       id="g413">
      <path
         d="M735.3793 345.3553 L815.3793 345.3553 L815.3793 365.3553 L735.3793 365.3553 L735.3793 345.3553 Z"
         style="clip-path:url(#clipPath41); stroke:none;"
         clip-path="url(#clipPath41)"
         id="path407" />
      <path
         d="M735.3793 345.3553 L815.3793 345.3553 L815.3793 365.3553 L735.3793 365.3553 L735.3793 345.3553 Z"
         style="fill:none; clip-path:url(#clipPath41); stroke:black;"
         clip-path="url(#clipPath41)"
         id="path409" />
      <text
         x="766"
         y="359"
         style="font-size:10; clip-path:url(#clipPath41); fill:black; stroke:none;"
         xml:space="preserve"
         clip-path="url(#clipPath41)"
         id="text411">VHL</text>
    </g>
    <g
       style="fill:white; text-rendering:geometricPrecision; stroke:white;"
       id="g421">
      <path
         d="M254.598 177.7537 L334.598 177.7537 L334.598 197.7537 L254.598 197.7537 L254.598 177.7537 Z"
         style="clip-path:url(#clipPath42); stroke:none;"
         clip-path="url(#clipPath42)"
         id="path415" />
      <path
         d="M254.598 177.7537 L334.598 177.7537 L334.598 197.7537 L254.598 197.7537 L254.598 177.7537 Z"
         style="fill:none; clip-path:url(#clipPath42); stroke:black;"
         clip-path="url(#clipPath42)"
         id="path417" />
      <text
         x="277"
         y="191"
         style="font-size:10; clip-path:url(#clipPath42); fill:black; stroke:none;"
         xml:space="preserve"
         clip-path="url(#clipPath42)"
         id="text419">VCAM1</text>
    </g>
    <g
       style="fill:white; text-rendering:geometricPrecision; stroke:white;"
       id="g429">
      <path
         d="M214.6157 356.689 L294.6157 356.689 L294.6157 376.689 L214.6157 376.689 L214.6157 356.689 Z"
         style="clip-path:url(#clipPath43); stroke:none;"
         clip-path="url(#clipPath43)"
         id="path423" />
      <path
         d="M214.6157 356.689 L294.6157 356.689 L294.6157 376.689 L214.6157 376.689 L214.6157 356.689 Z"
         style="fill:none; clip-path:url(#clipPath43); stroke:black;"
         clip-path="url(#clipPath43)"
         id="path425" />
      <text
         x="244"
         y="370"
         style="font-size:10; clip-path:url(#clipPath43); fill:black; stroke:none;"
         xml:space="preserve"
         clip-path="url(#clipPath43)"
         id="text427">SRC</text>
    </g>
    <g
       style="fill:white; text-rendering:geometricPrecision; stroke:white;"
       id="g437">
      <path
         d="M340.468 126.0163 L420.468 126.0163 L420.468 146.0163 L340.468 146.0163 L340.468 126.0163 Z"
         style="clip-path:url(#clipPath44); stroke:none;"
         clip-path="url(#clipPath44)"
         id="path431" />
      <path
         d="M340.468 126.0163 L420.468 126.0163 L420.468 146.0163 L340.468 146.0163 L340.468 126.0163 Z"
         style="fill:none; clip-path:url(#clipPath44); stroke:black;"
         clip-path="url(#clipPath44)"
         id="path433" />
      <text
         x="370"
         y="140"
         style="font-size:10; clip-path:url(#clipPath44); fill:black; stroke:none;"
         xml:space="preserve"
         clip-path="url(#clipPath44)"
         id="text435">PI3K</text>
    </g>
    <g
       style="fill:white; text-rendering:geometricPrecision; stroke:white;"
       id="g445">
      <path
         d="M1183.2262 342.3539 L1263.2262 342.3539 L1263.2262 362.3539 L1183.2262 362.3539 L1183.2262 342.3539 Z"
         style="clip-path:url(#clipPath45); stroke:none;"
         clip-path="url(#clipPath45)"
         id="path439" />
      <path
         d="M1183.2262 342.3539 L1263.2262 342.3539 L1263.2262 362.3539 L1183.2262 362.3539 L1183.2262 342.3539 Z"
         style="fill:none; clip-path:url(#clipPath45); stroke:black;"
         clip-path="url(#clipPath45)"
         id="path441" />
      <text
         x="1207"
         y="356"
         style="font-size:10; clip-path:url(#clipPath45); fill:black; stroke:none;"
         xml:space="preserve"
         clip-path="url(#clipPath45)"
         id="text443">VEGFA</text>
    </g>
    <g
       style="fill:white; text-rendering:geometricPrecision; stroke:white;"
       id="g453">
      <path
         d="M325.5883 602.4529 L405.5883 602.4529 L405.5883 622.4529 L325.5883 622.4529 L325.5883 602.4529 Z"
         style="clip-path:url(#clipPath46); stroke:none;"
         clip-path="url(#clipPath46)"
         id="path447" />
      <path
         d="M325.5883 602.4529 L405.5883 602.4529 L405.5883 622.4529 L325.5883 622.4529 L325.5883 602.4529 Z"
         style="fill:none; clip-path:url(#clipPath46); stroke:black;"
         clip-path="url(#clipPath46)"
         id="path449" />
      <text
         x="353"
         y="616"
         style="font-size:10; clip-path:url(#clipPath46); fill:black; stroke:none;"
         xml:space="preserve"
         clip-path="url(#clipPath46)"
         id="text451">TCF7</text>
    </g>
    <g
       style="fill:white; text-rendering:geometricPrecision; stroke:white;"
       id="g461">
      <path
         d="M325.5883 524.9053 L405.5883 524.9053 L405.5883 544.9053 L325.5883 544.9053 L325.5883 524.9053 Z"
         style="clip-path:url(#clipPath47); stroke:none;"
         clip-path="url(#clipPath47)"
         id="path455" />
      <path
         d="M325.5883 524.9053 L405.5883 524.9053 L405.5883 544.9053 L325.5883 544.9053 L325.5883 524.9053 Z"
         style="fill:none; clip-path:url(#clipPath47); stroke:black;"
         clip-path="url(#clipPath47)"
         id="path457" />
      <text
         x="355"
         y="538"
         style="font-size:10; clip-path:url(#clipPath47); fill:black; stroke:none;"
         xml:space="preserve"
         clip-path="url(#clipPath47)"
         id="text459">TNC</text>
    </g>
    <g
       style="fill:white; text-rendering:geometricPrecision; stroke:white;"
       id="g469">
      <path
         d="M145.6454 621.1945 L225.6454 621.1945 L225.6454 641.1945 L145.6454 641.1945 L145.6454 621.1945 Z"
         style="clip-path:url(#clipPath48); stroke:none;"
         clip-path="url(#clipPath48)"
         id="path463" />
      <path
         d="M145.6454 621.1945 L225.6454 621.1945 L225.6454 641.1945 L145.6454 641.1945 L145.6454 621.1945 Z"
         style="fill:none; clip-path:url(#clipPath48); stroke:black;"
         clip-path="url(#clipPath48)"
         id="path465" />
      <text
         x="175"
         y="635"
         style="font-size:10; clip-path:url(#clipPath48); fill:black; stroke:none;"
         xml:space="preserve"
         clip-path="url(#clipPath48)"
         id="text467">Wnt</text>
    </g>
    <g
       style="fill:white; text-rendering:geometricPrecision; stroke:white;"
       id="g477">
      <path
         d="M145.6454 523.5666 L225.6454 523.5666 L225.6454 543.5666 L145.6454 543.5666 L145.6454 523.5666 Z"
         style="clip-path:url(#clipPath49); stroke:none;"
         clip-path="url(#clipPath49)"
         id="path471" />
      <path
         d="M145.6454 523.5666 L225.6454 523.5666 L225.6454 543.5666 L145.6454 543.5666 L145.6454 523.5666 Z"
         style="fill:none; clip-path:url(#clipPath49); stroke:black;"
         clip-path="url(#clipPath49)"
         id="path473" />
      <text
         x="164"
         y="537"
         style="font-size:10; clip-path:url(#clipPath49); fill:black; stroke:none;"
         xml:space="preserve"
         clip-path="url(#clipPath49)"
         id="text475">Periostin</text>
    </g>
    <g
       style="fill:white; text-rendering:geometricPrecision; stroke:white;"
       id="g485">
      <path
         d="M858.2736 345.0312 L949.1299 345.0312 L949.1299 365.0312 L858.2736 365.0312 L858.2736 345.0312 Z"
         style="clip-path:url(#clipPath50); stroke:none;"
         clip-path="url(#clipPath50)"
         id="path479" />
      <path
         d="M858.2736 345.0312 L949.1299 345.0312 L949.1299 365.0312 L858.2736 365.0312 L858.2736 345.0312 Z"
         style="fill:none; clip-path:url(#clipPath50); stroke:black;"
         clip-path="url(#clipPath50)"
         id="path481" />
      <text
         x="890"
         y="359"
         style="font-size:10; clip-path:url(#clipPath50); fill:black; stroke:none;"
         xml:space="preserve"
         clip-path="url(#clipPath50)"
         id="text483">HIF2A</text>
    </g>
    <g
       style="fill:white; text-rendering:geometricPrecision; stroke:white;"
       id="g493">
      <path
         d="M1185.9036 297.0755 L1265.9036 297.0755 L1265.9036 317.0755 L1185.9036 317.0755 L1185.9036 297.0755 Z"
         style="clip-path:url(#clipPath51); stroke:none;"
         clip-path="url(#clipPath51)"
         id="path487" />
      <path
         d="M1185.9036 297.0755 L1265.9036 297.0755 L1265.9036 317.0755 L1185.9036 317.0755 L1185.9036 297.0755 Z"
         style="fill:none; clip-path:url(#clipPath51); stroke:black;"
         clip-path="url(#clipPath51)"
         id="path489" />
      <text
         x="1208"
         y="311"
         style="font-size:10; clip-path:url(#clipPath51); fill:black; stroke:none;"
         xml:space="preserve"
         clip-path="url(#clipPath51)"
         id="text491">CXCR4</text>
    </g>
    <g
       style="fill:white; text-rendering:geometricPrecision; stroke:white;"
       id="g501">
      <path
         d="M1185.9036 394.1443 L1265.9036 394.1443 L1265.9036 414.1443 L1185.9036 414.1443 L1185.9036 394.1443 Z"
         style="clip-path:url(#clipPath52); stroke:none;"
         clip-path="url(#clipPath52)"
         id="path495" />
      <path
         d="M1185.9036 394.1443 L1265.9036 394.1443 L1265.9036 414.1443 L1185.9036 414.1443 L1185.9036 394.1443 Z"
         style="fill:none; clip-path:url(#clipPath52); stroke:black;"
         clip-path="url(#clipPath52)"
         id="path497" />
      <text
         x="1211"
         y="408"
         style="font-size:10; clip-path:url(#clipPath52); fill:black; stroke:none;"
         xml:space="preserve"
         clip-path="url(#clipPath52)"
         id="text499">CYTIP</text>
    </g>
    <g
       style="fill:white; text-rendering:geometricPrecision; stroke:white;"
       id="g509">
      <path
         d="M340.468 307.3126 L420.468 307.3126 L420.468 327.3126 L340.468 327.3126 L340.468 307.3126 Z"
         style="clip-path:url(#clipPath53); stroke:none;"
         clip-path="url(#clipPath53)"
         id="path503" />
      <path
         d="M340.468 307.3126 L420.468 307.3126 L420.468 327.3126 L340.468 327.3126 L340.468 307.3126 Z"
         style="fill:none; clip-path:url(#clipPath53); stroke:black;"
         clip-path="url(#clipPath53)"
         id="path505" />
      <text
         x="370"
         y="321"
         style="font-size:10; clip-path:url(#clipPath53); fill:black; stroke:none;"
         xml:space="preserve"
         clip-path="url(#clipPath53)"
         id="text507">PI3K</text>
    </g>
    <g
       style="font-weight:bold; text-rendering:geometricPrecision;"
       id="g513">
      <text
         x="479"
         xml:space="preserve"
         y="322"
         style="clip-path:url(#clipPath54); stroke:none;"
         clip-path="url(#clipPath54)"
         id="text511">Cell survival</text>
    </g>
    <g
       style="text-rendering:geometricPrecision;"
       id="g517">
      <path
         d="M707.3469 40.4572 L1404.2838 40.4572 L1404.2838 725.569 L707.3469 725.569 L707.3469 40.4572 Z"
         style="fill:none; clip-path:url(#clipPath55);"
         clip-path="url(#clipPath55)"
         id="path515" />
    </g>
    <g
       style="fill:white; text-rendering:geometricPrecision; stroke:white;"
       id="g525">
      <path
         d="M325.5883 622.4529 L405.5883 622.4529 L405.5883 642.4529 L325.5883 642.4529 L325.5883 622.4529 Z"
         style="clip-path:url(#clipPath56); stroke:none;"
         clip-path="url(#clipPath56)"
         id="path519" />
      <path
         d="M325.5883 622.4529 L405.5883 622.4529 L405.5883 642.4529 L325.5883 642.4529 L325.5883 622.4529 Z"
         style="fill:none; clip-path:url(#clipPath56); stroke:black;"
         clip-path="url(#clipPath56)"
         id="path521" />
      <text
         x="347"
         y="636"
         style="font-size:10; clip-path:url(#clipPath56); fill:black; stroke:none;"
         xml:space="preserve"
         clip-path="url(#clipPath56)"
         id="text523">TCF7L1</text>
    </g>
    <g
       style="fill:white; text-rendering:geometricPrecision; stroke:white;"
       id="g533">
      <path
         d="M325.5883 642.4529 L405.5883 642.4529 L405.5883 662.4529 L325.5883 662.4529 L325.5883 642.4529 Z"
         style="clip-path:url(#clipPath57); stroke:none;"
         clip-path="url(#clipPath57)"
         id="path527" />
      <path
         d="M325.5883 642.4529 L405.5883 642.4529 L405.5883 662.4529 L325.5883 662.4529 L325.5883 642.4529 Z"
         style="fill:none; clip-path:url(#clipPath57); stroke:black;"
         clip-path="url(#clipPath57)"
         id="path529" />
      <text
         x="347"
         y="656"
         style="font-size:10; clip-path:url(#clipPath57); fill:black; stroke:none;"
         xml:space="preserve"
         clip-path="url(#clipPath57)"
         id="text531">TCF7L2</text>
    </g>
    <g
       style="fill:white; text-rendering:geometricPrecision; stroke:white;"
       id="g541">
      <path
         d="M325.5883 662.4529 L405.5883 662.4529 L405.5883 682.4529 L325.5883 682.4529 L325.5883 662.4529 Z"
         style="clip-path:url(#clipPath58); stroke:none;"
         clip-path="url(#clipPath58)"
         id="path535" />
      <path
         d="M325.5883 662.4529 L405.5883 662.4529 L405.5883 682.4529 L325.5883 682.4529 L325.5883 662.4529 Z"
         style="fill:none; clip-path:url(#clipPath58); stroke:black;"
         clip-path="url(#clipPath58)"
         id="path537" />
      <text
         x="353"
         y="676"
         style="font-size:10; clip-path:url(#clipPath58); fill:black; stroke:none;"
         xml:space="preserve"
         clip-path="url(#clipPath58)"
         id="text539">LEF1</text>
    </g>
    <g
       style="font-weight:bold; text-rendering:geometricPrecision;"
       id="g547">
      <text
         x="1069"
         xml:space="preserve"
         y="389"
         style="clip-path:url(#clipPath59); stroke:none;"
         clip-path="url(#clipPath59)"
         id="text543">DNA</text>
      <text
         x="1034"
         xml:space="preserve"
         y="402"
         style="clip-path:url(#clipPath59); stroke:none;"
         clip-path="url(#clipPath59)"
         id="text545">demethylation</text>
    </g>
    <g
       style="text-rendering:geometricPrecision;"
       id="g553">
      <path
         d="M1148.5623 352.3896 L1183.2262 352.3539"
         style="fill:none; clip-path:url(#clipPath60);"
         clip-path="url(#clipPath60)"
         id="path549" />
      <path
         d="M1183.2262 352.3539 L1171.5209 347.1659 L1171.5316 357.5659 Z"
         style="clip-path:url(#clipPath60); fill-rule:evenodd; stroke:none;"
         clip-path="url(#clipPath60)"
         id="path551" />
    </g>
    <g
       style="text-rendering:geometricPrecision;"
       id="g559">
      <path
         d="M1148.5623 319.4505 L1185.9036 307.0755"
         style="fill:none; clip-path:url(#clipPath61);"
         clip-path="url(#clipPath61)"
         id="path555" />
      <path
         d="M1185.9036 307.0755 L1173.1617 305.8201 L1176.4333 315.6921 Z"
         style="clip-path:url(#clipPath61); fill-rule:evenodd; stroke:none;"
         clip-path="url(#clipPath61)"
         id="path557" />
    </g>
  </g>
</svg>
