<?xml version="1.0" encoding="UTF-8" standalone="no"?>
<svg
   style="fill-opacity:1; color-rendering:auto; color-interpolation:auto; stroke:black; text-rendering:auto; stroke-linecap:square; stroke-miterlimit:10; stroke-opacity:1; shape-rendering:auto; fill:black; stroke-dasharray:none; font-weight:normal; stroke-width:1; font-family:'Dialog'; font-style:normal; stroke-linejoin:miter; font-size:12; stroke-dashoffset:0; image-rendering:auto;"
   width="360"
   height="382"
   version="1.1"
   id="svg200"
   xmlns="http://www.w3.org/2000/svg"
   xmlns:svg="http://www.w3.org/2000/svg">
  <!--Generated by the Batik Graphics2D SVG Generator-->
  <defs
     id="genericDefs" />
  <g
     id="g198">
    <defs
       id="defs1">
      <clipPath
         clipPathUnits="userSpaceOnUse"
         id="clipPath1">
        <path
           d="M0 0 L368 0 L368 398 L0 398 L0 0 Z"
           id="path3" />
      </clipPath>
      <clipPath
         clipPathUnits="userSpaceOnUse"
         id="clipPath2">
        <path
           d="M0 0 L0 200 L200 200 L200 0 Z"
           id="path6" />
      </clipPath>
      <clipPath
         clipPathUnits="userSpaceOnUse"
         id="clipPath3">
        <path
           d="M159 16 L159 37 L170 37 L170 16 Z"
           id="path9" />
      </clipPath>
      <clipPath
         clipPathUnits="userSpaceOnUse"
         id="clipPath4">
        <path
           d="M158.4551 3.918 L169.5449 3.918 L169.5449 19.2305 L158.4551 19.2305 L158.4551 3.918 Z"
           id="path12" />
      </clipPath>
      <clipPath
         clipPathUnits="userSpaceOnUse"
         id="clipPath5">
        <path
           d="M158.1302 197.4781 L158.1302 272.9309 L170.0683 272.9309 L170.0683 197.4781 Z"
           id="path15" />
      </clipPath>
      <clipPath
         clipPathUnits="userSpaceOnUse"
         id="clipPath6">
        <path
           d="M160.4254 298.3373 L160.4254 327.6358 L223.6627 327.6358 L223.6627 298.3373 Z"
           id="path18" />
      </clipPath>
      <clipPath
         clipPathUnits="userSpaceOnUse"
         id="clipPath7">
        <path
           d="M160.8186 91.3782 L160.8186 122.1973 L256.6218 122.1973 L256.6218 91.3782 Z"
           id="path21" />
      </clipPath>
      <clipPath
         clipPathUnits="userSpaceOnUse"
         id="clipPath8">
        <path
           d="M158.7473 79.482 L158.7473 181.9144 L170.686 181.9144 L170.686 79.482 Z"
           id="path24" />
      </clipPath>
      <clipPath
         clipPathUnits="userSpaceOnUse"
         id="clipPath9">
        <path
           d="M158.0306 288.5 L158.0306 351.9311 L169.9694 351.9311 L169.9694 288.5 Z"
           id="path27" />
      </clipPath>
      <clipPath
         clipPathUnits="userSpaceOnUse"
         id="clipPath10">
        <path
           d="M94.5 177.4833 L94.5 198.4833 L234.9833 198.4833 L234.9833 177.4833 Z"
           id="path30" />
      </clipPath>
      <clipPath
         clipPathUnits="userSpaceOnUse"
         id="clipPath11">
        <path
           d="M230.5 308.5 L230.5 329.5 L311.5 329.5 L311.5 308.5 Z"
           id="path33" />
      </clipPath>
      <clipPath
         clipPathUnits="userSpaceOnUse"
         id="clipPath12">
        <path
           d="M230.5 288.5 L230.5 309.5 L311.5 309.5 L311.5 288.5 Z"
           id="path36" />
      </clipPath>
      <clipPath
         clipPathUnits="userSpaceOnUse"
         id="clipPath13">
        <path
           d="M255.5 81.5 L255.5 102.5 L336.5 102.5 L336.5 81.5 Z"
           id="path39" />
      </clipPath>
      <clipPath
         clipPathUnits="userSpaceOnUse"
         id="clipPath14">
        <path
           d="M257.5 151.5 L257.5 172.5 L338.5 172.5 L338.5 151.5 Z"
           id="path42" />
      </clipPath>
      <clipPath
         clipPathUnits="userSpaceOnUse"
         id="clipPath15">
        <path
           d="M230.5 268.5 L230.5 289.5 L311.5 289.5 L311.5 268.5 Z"
           id="path45" />
      </clipPath>
      <clipPath
         clipPathUnits="userSpaceOnUse"
         id="clipPath16">
        <path
           d="M123.5 268.5 L123.5 289.5 L204.5 289.5 L204.5 268.5 Z"
           id="path48" />
      </clipPath>
      <clipPath
         clipPathUnits="userSpaceOnUse"
         id="clipPath17">
        <path
           d="M257.5 131.5 L257.5 152.5 L338.5 152.5 L338.5 131.5 Z"
           id="path51" />
      </clipPath>
      <clipPath
         clipPathUnits="userSpaceOnUse"
         id="clipPath18">
        <path
           d="M123.9833 59.4833 L123.9833 80.4833 L204.9833 80.4833 L204.9833 59.4833 Z"
           id="path54" />
      </clipPath>
      <clipPath
         clipPathUnits="userSpaceOnUse"
         id="clipPath19">
        <path
           d="M77.5 347.5 L77.5 368.5 L250.5 368.5 L250.5 347.5 Z"
           id="path57" />
      </clipPath>
      <clipPath
         clipPathUnits="userSpaceOnUse"
         id="clipPath20">
        <path
           d="M163.9406 118.5373 L163.9406 154.1651 L253.6696 154.1651 L253.6696 118.5373 Z"
           id="path60" />
      </clipPath>
    </defs>
    <g
       style="fill:white; stroke:white;"
       id="g66">
      <rect
         x="0"
         width="368"
         height="398"
         y="0"
         style="stroke:none;"
         id="rect64" />
    </g>
    <g
       style="font-weight:bold; font-size:10; text-rendering:geometricPrecision;"
       id="g76">
      <path
         d="M0.0469 6.7031 L6.7656 6.7031 L6.7656 8.125 L4.3438 8.125 L4.3438 14 L2.4688 14 L2.4688 8.125 L0.0469 8.125 L0.0469 6.7031 ZM7.665 8.5312 L9.415 8.5312 L9.415 14 L7.665 14 L7.665 8.5312 ZM7.665 6.4062 L9.415 6.4062 L9.415 7.8281 L7.665 7.8281 L7.665 6.4062 ZM12.999 6.9844 L12.999 8.5312 L14.7959 8.5312 L14.7959 9.7812 L12.999 9.7812 L12.999 12.0938 Q12.999 12.4844 13.1475 12.6172 Q13.2959 12.75 13.749 12.75 L14.6553 12.75 L14.6553 14 L13.1553 14 Q12.1084 14 11.6787 13.5703 Q11.249 13.1406 11.249 12.0938 L11.249 9.7812 L10.374 9.7812 L10.374 8.5312 L11.249 8.5312 L11.249 6.9844 L12.999 6.9844 ZM15.873 6.4062 L17.623 6.4062 L17.623 14 L15.873 14 L15.873 6.4062 ZM24.7539 11.25 L24.7539 11.75 L20.6758 11.75 Q20.7383 12.3594 21.1133 12.6719 Q21.4883 12.9844 22.1758 12.9844 Q22.7227 12.9844 23.3086 12.8203 Q23.8945 12.6562 24.5039 12.3125 L24.5039 13.6719 Q23.8789 13.9062 23.2617 14.0234 Q22.6445 14.1406 22.0195 14.1406 Q20.5352 14.1406 19.7148 13.3828 Q18.8945 12.625 18.8945 11.2656 Q18.8945 9.9375 19.6992 9.1719 Q20.5039 8.4062 21.9258 8.4062 Q23.207 8.4062 23.9805 9.1797 Q24.7539 9.9531 24.7539 11.25 ZM22.957 10.6719 Q22.957 10.1719 22.668 9.8672 Q22.3789 9.5625 21.9102 9.5625 Q21.3945 9.5625 21.082 9.8438 Q20.7695 10.125 20.6914 10.6719 L22.957 10.6719 ZM26.3643 8.5312 L28.1143 8.5312 L28.1143 10.4219 L26.3643 10.4219 L26.3643 8.5312 ZM26.3643 12.1094 L28.1143 12.1094 L28.1143 14 L26.3643 14 L26.3643 12.1094 Z"
         style="clip-path:url(#clipPath2); stroke:none;"
         clip-path="url(#clipPath2)"
         id="path68" />
      <path
         d="M41.4219 7.6875 L40.0781 11.3125 L42.7656 11.3125 L41.4219 7.6875 ZM40.8594 6.7031 L41.9844 6.7031 L44.7656 14 L43.7344 14 L43.0625 12.125 L39.7812 12.125 L39.125 14 L38.0781 14 L40.8594 6.7031 ZM50.0439 9.5781 Q50.3721 8.9688 50.8408 8.6875 Q51.3096 8.4062 51.9502 8.4062 Q52.8096 8.4062 53.2705 9 Q53.7314 9.5938 53.7314 10.7031 L53.7314 14 L52.8252 14 L52.8252 10.7344 Q52.8252 9.9375 52.5518 9.5625 Q52.2783 9.1875 51.7002 9.1875 Q50.9971 9.1875 50.5986 9.6484 Q50.2002 10.1094 50.2002 10.9062 L50.2002 14 L49.2939 14 L49.2939 10.7344 Q49.2939 9.9375 49.0127 9.5625 Q48.7314 9.1875 48.1533 9.1875 Q47.4658 9.1875 47.0596 9.6484 Q46.6533 10.1094 46.6533 10.9062 L46.6533 14 L45.7471 14 L45.7471 8.5312 L46.6533 8.5312 L46.6533 9.375 Q46.9658 8.875 47.3955 8.6406 Q47.8252 8.4062 48.4033 8.4062 Q49.0127 8.4062 49.4268 8.7031 Q49.8408 9 50.0439 9.5781 ZM55.5195 8.5312 L56.4258 8.5312 L56.4258 14 L55.5195 14 L55.5195 8.5312 ZM55.5195 6.4062 L56.4258 6.4062 L56.4258 7.5469 L55.5195 7.5469 L55.5195 6.4062 ZM62.8447 10.7031 L62.8447 14 L61.9541 14 L61.9541 10.7344 Q61.9541 9.9531 61.6494 9.5703 Q61.3447 9.1875 60.7354 9.1875 Q60.0166 9.1875 59.5947 9.6484 Q59.1729 10.1094 59.1729 10.9062 L59.1729 14 L58.2666 14 L58.2666 8.5312 L59.1729 8.5312 L59.1729 9.375 Q59.501 8.8906 59.9385 8.6484 Q60.376 8.4062 60.9385 8.4062 Q61.876 8.4062 62.3604 8.9844 Q62.8447 9.5625 62.8447 10.7031 ZM66.7607 9.1562 Q66.042 9.1562 65.6201 9.7188 Q65.1982 10.2812 65.1982 11.2656 Q65.1982 12.25 65.6123 12.8125 Q66.0264 13.375 66.7607 13.375 Q67.4795 13.375 67.9014 12.8125 Q68.3232 12.25 68.3232 11.2656 Q68.3232 10.2969 67.9014 9.7266 Q67.4795 9.1562 66.7607 9.1562 ZM66.7607 8.4062 Q67.9326 8.4062 68.6045 9.1641 Q69.2764 9.9219 69.2764 11.2656 Q69.2764 12.6094 68.6045 13.375 Q67.9326 14.1406 66.7607 14.1406 Q65.5889 14.1406 64.917 13.375 Q64.2451 12.6094 64.2451 11.2656 Q64.2451 9.9219 64.917 9.1641 Q65.5889 8.4062 66.7607 8.4062 ZM76.417 11.25 Q75.3389 11.25 74.917 11.5 Q74.4951 11.75 74.4951 12.3438 Q74.4951 12.8281 74.8076 13.1094 Q75.1201 13.3906 75.667 13.3906 Q76.417 13.3906 76.8701 12.8594 Q77.3232 12.3281 77.3232 11.4531 L77.3232 11.25 L76.417 11.25 ZM78.2139 10.875 L78.2139 14 L77.3232 14 L77.3232 13.1719 Q77.0107 13.6719 76.5498 13.9062 Q76.0889 14.1406 75.4326 14.1406 Q74.5889 14.1406 74.0889 13.6719 Q73.5889 13.2031 73.5889 12.4062 Q73.5889 11.4844 74.2139 11.0156 Q74.8389 10.5469 76.0576 10.5469 L77.3232 10.5469 L77.3232 10.4531 Q77.3232 9.8438 76.9092 9.5 Q76.4951 9.1562 75.7607 9.1562 Q75.292 9.1562 74.8467 9.2734 Q74.4014 9.3906 73.9951 9.6094 L73.9951 8.7812 Q74.4951 8.5938 74.9561 8.5 Q75.417 8.4062 75.8545 8.4062 Q77.042 8.4062 77.6279 9.0156 Q78.2139 9.625 78.2139 10.875 ZM83.998 8.7344 L83.998 9.5781 Q83.623 9.375 83.2402 9.2656 Q82.8574 9.1562 82.4668 9.1562 Q81.5918 9.1562 81.1074 9.7109 Q80.623 10.2656 80.623 11.2656 Q80.623 12.2656 81.1074 12.8203 Q81.5918 13.375 82.4668 13.375 Q82.8574 13.375 83.2402 13.2734 Q83.623 13.1719 83.998 12.9531 L83.998 13.7969 Q83.623 13.9688 83.2246 14.0547 Q82.8262 14.1406 82.373 14.1406 Q81.123 14.1406 80.3965 13.3672 Q79.6699 12.5938 79.6699 11.2656 Q79.6699 9.9375 80.4043 9.1719 Q81.1387 8.4062 82.4199 8.4062 Q82.8418 8.4062 83.2324 8.4844 Q83.623 8.5625 83.998 8.7344 ZM85.5586 8.5312 L86.4648 8.5312 L86.4648 14 L85.5586 14 L85.5586 8.5312 ZM85.5586 6.4062 L86.4648 6.4062 L86.4648 7.5469 L85.5586 7.5469 L85.5586 6.4062 ZM91.9463 9.3594 L91.9463 6.4062 L92.8369 6.4062 L92.8369 14 L91.9463 14 L91.9463 13.1719 Q91.665 13.6719 91.2275 13.9062 Q90.79 14.1406 90.1807 14.1406 Q89.1963 14.1406 88.5713 13.3516 Q87.9463 12.5625 87.9463 11.2656 Q87.9463 9.9844 88.5713 9.1953 Q89.1963 8.4062 90.1807 8.4062 Q90.79 8.4062 91.2275 8.6406 Q91.665 8.875 91.9463 9.3594 ZM88.8838 11.2656 Q88.8838 12.2656 89.29 12.8281 Q89.6963 13.3906 90.415 13.3906 Q91.1182 13.3906 91.5322 12.8281 Q91.9463 12.2656 91.9463 11.2656 Q91.9463 10.2812 91.5322 9.7188 Q91.1182 9.1562 90.415 9.1562 Q89.6963 9.1562 89.29 9.7188 Q88.8838 10.2812 88.8838 11.2656 ZM101.8008 8.7344 L101.8008 9.5781 Q101.4258 9.375 101.043 9.2656 Q100.6602 9.1562 100.2695 9.1562 Q99.3945 9.1562 98.9102 9.7109 Q98.4258 10.2656 98.4258 11.2656 Q98.4258 12.2656 98.9102 12.8203 Q99.3945 13.375 100.2695 13.375 Q100.6602 13.375 101.043 13.2734 Q101.4258 13.1719 101.8008 12.9531 L101.8008 13.7969 Q101.4258 13.9688 101.0273 14.0547 Q100.6289 14.1406 100.1758 14.1406 Q98.9258 14.1406 98.1992 13.3672 Q97.4727 12.5938 97.4727 11.2656 Q97.4727 9.9375 98.207 9.1719 Q98.9414 8.4062 100.2227 8.4062 Q100.6445 8.4062 101.0352 8.4844 Q101.4258 8.5625 101.8008 8.7344 ZM105.4863 9.1562 Q104.7676 9.1562 104.3457 9.7188 Q103.9238 10.2812 103.9238 11.2656 Q103.9238 12.25 104.3379 12.8125 Q104.752 13.375 105.4863 13.375 Q106.2051 13.375 106.627 12.8125 Q107.0488 12.25 107.0488 11.2656 Q107.0488 10.2969 106.627 9.7266 Q106.2051 9.1562 105.4863 9.1562 ZM105.4863 8.4062 Q106.6582 8.4062 107.3301 9.1641 Q108.002 9.9219 108.002 11.2656 Q108.002 12.6094 107.3301 13.375 Q106.6582 14.1406 105.4863 14.1406 Q104.3145 14.1406 103.6426 13.375 Q102.9707 12.6094 102.9707 11.2656 Q102.9707 9.9219 103.6426 9.1641 Q104.3145 8.4062 105.4863 8.4062 ZM114.0264 10.7031 L114.0264 14 L113.1357 14 L113.1357 10.7344 Q113.1357 9.9531 112.8311 9.5703 Q112.5264 9.1875 111.917 9.1875 Q111.1982 9.1875 110.7764 9.6484 Q110.3545 10.1094 110.3545 10.9062 L110.3545 14 L109.4482 14 L109.4482 8.5312 L110.3545 8.5312 L110.3545 9.375 Q110.6826 8.8906 111.1201 8.6484 Q111.5576 8.4062 112.1201 8.4062 Q113.0576 8.4062 113.542 8.9844 Q114.0264 9.5625 114.0264 10.7031 ZM115.8174 8.5312 L116.7236 8.5312 L116.7236 14.0938 Q116.7236 15.1406 116.3252 15.6094 Q115.9268 16.0781 115.0361 16.0781 L114.6924 16.0781 L114.6924 15.3125 L114.9424 15.3125 Q115.458 15.3125 115.6377 15.0781 Q115.8174 14.8438 115.8174 14.0938 L115.8174 8.5312 ZM115.8174 6.4062 L116.7236 6.4062 L116.7236 7.5469 L115.8174 7.5469 L115.8174 6.4062 ZM118.502 11.8438 L118.502 8.5312 L119.4082 8.5312 L119.4082 11.8125 Q119.4082 12.5781 119.7129 12.9688 Q120.0176 13.3594 120.6113 13.3594 Q121.3457 13.3594 121.7676 12.8984 Q122.1895 12.4375 122.1895 11.625 L122.1895 8.5312 L123.0957 8.5312 L123.0957 14 L122.1895 14 L122.1895 13.1562 Q121.8613 13.6562 121.4316 13.8984 Q121.002 14.1406 120.4238 14.1406 Q119.4863 14.1406 118.9941 13.5547 Q118.502 12.9688 118.502 11.8438 ZM120.7676 8.4062 L120.7676 8.4062 ZM128.543 11.2031 Q128.543 10.2188 128.1367 9.6875 Q127.7305 9.1562 127.0117 9.1562 Q126.2773 9.1562 125.8789 9.6875 Q125.4805 10.2188 125.4805 11.2031 Q125.4805 12.1719 125.8789 12.7109 Q126.2773 13.25 127.0117 13.25 Q127.7305 13.25 128.1367 12.7109 Q128.543 12.1719 128.543 11.2031 ZM129.4336 13.3281 Q129.4336 14.7188 128.8164 15.3984 Q128.1992 16.0781 126.918 16.0781 Q126.4492 16.0781 126.0273 16.0078 Q125.6055 15.9375 125.2148 15.7969 L125.2148 14.9219 Q125.6055 15.1406 125.9883 15.2422 Q126.3711 15.3438 126.7773 15.3438 Q127.6523 15.3438 128.0977 14.8828 Q128.543 14.4219 128.543 13.4844 L128.543 13.0312 Q128.2617 13.5156 127.8242 13.7578 Q127.3867 14 126.7773 14 Q125.7773 14 125.1602 13.2344 Q124.543 12.4688 124.543 11.2031 Q124.543 9.9375 125.1602 9.1719 Q125.7773 8.4062 126.7773 8.4062 Q127.3867 8.4062 127.8242 8.6406 Q128.2617 8.875 128.543 9.3594 L128.543 8.5312 L129.4336 8.5312 L129.4336 13.3281 ZM133.7656 11.25 Q132.6875 11.25 132.2656 11.5 Q131.8438 11.75 131.8438 12.3438 Q131.8438 12.8281 132.1562 13.1094 Q132.4688 13.3906 133.0156 13.3906 Q133.7656 13.3906 134.2188 12.8594 Q134.6719 12.3281 134.6719 11.4531 L134.6719 11.25 L133.7656 11.25 ZM135.5625 10.875 L135.5625 14 L134.6719 14 L134.6719 13.1719 Q134.3594 13.6719 133.8984 13.9062 Q133.4375 14.1406 132.7812 14.1406 Q131.9375 14.1406 131.4375 13.6719 Q130.9375 13.2031 130.9375 12.4062 Q130.9375 11.4844 131.5625 11.0156 Q132.1875 10.5469 133.4062 10.5469 L134.6719 10.5469 L134.6719 10.4531 Q134.6719 9.8438 134.2578 9.5 Q133.8438 9.1562 133.1094 9.1562 Q132.6406 9.1562 132.1953 9.2734 Q131.75 9.3906 131.3438 9.6094 L131.3438 8.7812 Q131.8438 8.5938 132.3047 8.5 Q132.7656 8.4062 133.2031 8.4062 Q134.3906 8.4062 134.9766 9.0156 Q135.5625 9.625 135.5625 10.875 ZM138.2998 6.9844 L138.2998 8.5312 L140.1592 8.5312 L140.1592 9.2344 L138.2998 9.2344 L138.2998 12.2031 Q138.2998 12.8594 138.4873 13.0547 Q138.6748 13.25 139.2373 13.25 L140.1592 13.25 L140.1592 14 L139.2373 14 Q138.1904 14 137.792 13.6094 Q137.3936 13.2188 137.3936 12.2031 L137.3936 9.2344 L136.7373 9.2344 L136.7373 8.5312 L137.3936 8.5312 L137.3936 6.9844 L138.2998 6.9844 ZM141.3301 8.5312 L142.2363 8.5312 L142.2363 14 L141.3301 14 L141.3301 8.5312 ZM141.3301 6.4062 L142.2363 6.4062 L142.2363 7.5469 L141.3301 7.5469 L141.3301 6.4062 ZM146.2334 9.1562 Q145.5146 9.1562 145.0928 9.7188 Q144.6709 10.2812 144.6709 11.2656 Q144.6709 12.25 145.085 12.8125 Q145.499 13.375 146.2334 13.375 Q146.9521 13.375 147.374 12.8125 Q147.7959 12.25 147.7959 11.2656 Q147.7959 10.2969 147.374 9.7266 Q146.9521 9.1562 146.2334 9.1562 ZM146.2334 8.4062 Q147.4053 8.4062 148.0771 9.1641 Q148.749 9.9219 148.749 11.2656 Q148.749 12.6094 148.0771 13.375 Q147.4053 14.1406 146.2334 14.1406 Q145.0615 14.1406 144.3896 13.375 Q143.7178 12.6094 143.7178 11.2656 Q143.7178 9.9219 144.3896 9.1641 Q145.0615 8.4062 146.2334 8.4062 ZM154.7734 10.7031 L154.7734 14 L153.8828 14 L153.8828 10.7344 Q153.8828 9.9531 153.5781 9.5703 Q153.2734 9.1875 152.6641 9.1875 Q151.9453 9.1875 151.5234 9.6484 Q151.1016 10.1094 151.1016 10.9062 L151.1016 14 L150.1953 14 L150.1953 8.5312 L151.1016 8.5312 L151.1016 9.375 Q151.4297 8.8906 151.8672 8.6484 Q152.3047 8.4062 152.8672 8.4062 Q153.8047 8.4062 154.2891 8.9844 Q154.7734 9.5625 154.7734 10.7031 Z"
         style="clip-path:url(#clipPath2); stroke:none;"
         clip-path="url(#clipPath2)"
         id="path70" />
      <path
         d="M4.25 21.9375 Q3.3906 21.9375 2.9141 22.5703 Q2.4375 23.2031 2.4375 24.3594 Q2.4375 25.5156 2.9141 26.1484 Q3.3906 26.7812 4.25 26.7812 Q5.1094 26.7812 5.5859 26.1484 Q6.0625 25.5156 6.0625 24.3594 Q6.0625 23.2031 5.5859 22.5703 Q5.1094 21.9375 4.25 21.9375 ZM4.25 20.5781 Q6 20.5781 7 21.5859 Q8 22.5938 8 24.3594 Q8 26.125 7 27.1328 Q6 28.1406 4.25 28.1406 Q2.5 28.1406 1.5 27.1328 Q0.5 26.125 0.5 24.3594 Q0.5 22.5938 1.5 21.5859 Q2.5 20.5781 4.25 20.5781 ZM13.4072 24.0156 Q13.1729 23.9062 12.9463 23.8594 Q12.7197 23.8125 12.4854 23.8125 Q11.8135 23.8125 11.4541 24.2422 Q11.0947 24.6719 11.0947 25.4844 L11.0947 28 L9.3447 28 L9.3447 22.5312 L11.0947 22.5312 L11.0947 23.4219 Q11.4229 22.8906 11.8604 22.6484 Q12.2979 22.4062 12.9072 22.4062 Q13.001 22.4062 13.1025 22.4062 Q13.2041 22.4062 13.3916 22.4375 L13.4072 24.0156 ZM17.9951 27.0781 Q17.6357 27.5469 17.1982 27.7734 Q16.7607 28 16.1982 28 Q15.1982 28 14.542 27.2109 Q13.8857 26.4219 13.8857 25.2031 Q13.8857 23.9688 14.542 23.1875 Q15.1982 22.4062 16.1982 22.4062 Q16.7607 22.4062 17.1982 22.6328 Q17.6357 22.8594 17.9951 23.3438 L17.9951 22.5312 L19.7451 22.5312 L19.7451 27.4531 Q19.7451 28.7656 18.917 29.4609 Q18.0889 30.1562 16.5107 30.1562 Q15.9951 30.1562 15.5186 30.0781 Q15.042 30 14.5576 29.8438 L14.5576 28.4844 Q15.0107 28.75 15.4482 28.875 Q15.8857 29 16.3389 29 Q17.1982 29 17.5967 28.625 Q17.9951 28.25 17.9951 27.4531 L17.9951 27.0781 ZM16.8389 23.6719 Q16.292 23.6719 15.9951 24.0703 Q15.6982 24.4688 15.6982 25.2031 Q15.6982 25.9531 15.9873 26.3438 Q16.2764 26.7344 16.8389 26.7344 Q17.3857 26.7344 17.6904 26.3281 Q17.9951 25.9219 17.9951 25.2031 Q17.9951 24.4688 17.6904 24.0703 Q17.3857 23.6719 16.8389 23.6719 ZM23.8877 25.5312 Q23.3408 25.5312 23.0596 25.7188 Q22.7783 25.9062 22.7783 26.2656 Q22.7783 26.6094 23.0049 26.7969 Q23.2314 26.9844 23.6221 26.9844 Q24.1221 26.9844 24.458 26.625 Q24.7939 26.2656 24.7939 25.7344 L24.7939 25.5312 L23.8877 25.5312 ZM26.5596 24.875 L26.5596 28 L24.7939 28 L24.7939 27.1875 Q24.4346 27.6875 23.9971 27.9141 Q23.5596 28.1406 22.9346 28.1406 Q22.0752 28.1406 21.5518 27.6484 Q21.0283 27.1562 21.0283 26.3594 Q21.0283 25.3906 21.6846 24.9453 Q22.3408 24.5 23.7627 24.5 L24.7939 24.5 L24.7939 24.3594 Q24.7939 23.9531 24.4658 23.7578 Q24.1377 23.5625 23.4502 23.5625 Q22.8877 23.5625 22.4033 23.6719 Q21.9189 23.7812 21.4971 24.0156 L21.4971 22.6719 Q22.0596 22.5469 22.6299 22.4766 Q23.2002 22.4062 23.7627 22.4062 Q25.2471 22.4062 25.9033 22.9844 Q26.5596 23.5625 26.5596 24.875 ZM33.6826 24.6719 L33.6826 28 L31.917 28 L31.917 27.4531 L31.917 25.4531 Q31.917 24.75 31.8857 24.4766 Q31.8545 24.2031 31.7764 24.0781 Q31.6826 23.9062 31.5029 23.8125 Q31.3232 23.7188 31.1045 23.7188 Q30.5576 23.7188 30.2451 24.1406 Q29.9326 24.5625 29.9326 25.3125 L29.9326 28 L28.1826 28 L28.1826 22.5312 L29.9326 22.5312 L29.9326 23.3281 Q30.3232 22.8594 30.7686 22.6328 Q31.2139 22.4062 31.7451 22.4062 Q32.6982 22.4062 33.1904 22.9844 Q33.6826 23.5625 33.6826 24.6719 ZM35.3018 22.5312 L37.0518 22.5312 L37.0518 28 L35.3018 28 L35.3018 22.5312 ZM35.3018 20.4062 L37.0518 20.4062 L37.0518 21.8281 L35.3018 21.8281 L35.3018 20.4062 ZM42.9951 22.7031 L42.9951 24.0312 Q42.4326 23.7969 41.9092 23.6797 Q41.3857 23.5625 40.9326 23.5625 Q40.4326 23.5625 40.1904 23.6875 Q39.9482 23.8125 39.9482 24.0625 Q39.9482 24.2812 40.1279 24.3906 Q40.3076 24.5 40.792 24.5625 L41.0889 24.5938 Q42.4326 24.7656 42.9014 25.1562 Q43.3701 25.5469 43.3701 26.3906 Q43.3701 27.2656 42.7217 27.7031 Q42.0732 28.1406 40.792 28.1406 Q40.2607 28.1406 39.6826 28.0547 Q39.1045 27.9688 38.4795 27.7969 L38.4795 26.4688 Q39.0107 26.7188 39.5576 26.8516 Q40.1045 26.9844 40.667 26.9844 Q41.1826 26.9844 41.4404 26.8438 Q41.6982 26.7031 41.6982 26.4219 Q41.6982 26.1875 41.5264 26.0703 Q41.3545 25.9531 40.8232 25.8906 L40.5107 25.8438 Q39.3389 25.7031 38.8701 25.3047 Q38.4014 24.9062 38.4014 24.1094 Q38.4014 23.2344 38.9951 22.8203 Q39.5889 22.4062 40.8232 22.4062 Q41.3076 22.4062 41.8389 22.4766 Q42.3701 22.5469 42.9951 22.7031 ZM49.7441 23.4375 Q50.0723 22.9375 50.5332 22.6719 Q50.9941 22.4062 51.541 22.4062 Q52.4785 22.4062 52.9707 22.9844 Q53.4629 23.5625 53.4629 24.6719 L53.4629 28 L51.7129 28 L51.7129 25.1406 Q51.7129 25.0781 51.7129 25.0156 Q51.7129 24.9531 51.7129 24.8281 Q51.7129 24.2344 51.5488 23.9766 Q51.3848 23.7188 50.9941 23.7188 Q50.4941 23.7188 50.2285 24.125 Q49.9629 24.5312 49.9473 25.3125 L49.9473 28 L48.1816 28 L48.1816 25.1406 Q48.1816 24.2344 48.0254 23.9766 Q47.8691 23.7188 47.4785 23.7188 Q46.9785 23.7188 46.7051 24.1328 Q46.4316 24.5469 46.4316 25.3125 L46.4316 28 L44.666 28 L44.666 22.5312 L46.4316 22.5312 L46.4316 23.3281 Q46.7441 22.875 47.166 22.6406 Q47.5879 22.4062 48.0879 22.4062 Q48.6504 22.4062 49.0879 22.6797 Q49.5254 22.9531 49.7441 23.4375 ZM55.3828 22.5312 L57.1328 22.5312 L57.1328 24.4219 L55.3828 24.4219 L55.3828 22.5312 ZM55.3828 26.1094 L57.1328 26.1094 L57.1328 28 L55.3828 28 L55.3828 26.1094 Z"
         style="clip-path:url(#clipPath2); stroke:none;"
         clip-path="url(#clipPath2)"
         id="path72" />
      <path
         d="M66.9844 20.7031 L67.9688 20.7031 L67.9688 23.7031 L71.5469 23.7031 L71.5469 20.7031 L72.5312 20.7031 L72.5312 28 L71.5469 28 L71.5469 24.5312 L67.9688 24.5312 L67.9688 28 L66.9844 28 L66.9844 20.7031 ZM76.582 23.1562 Q75.8633 23.1562 75.4414 23.7188 Q75.0195 24.2812 75.0195 25.2656 Q75.0195 26.25 75.4336 26.8125 Q75.8477 27.375 76.582 27.375 Q77.3008 27.375 77.7227 26.8125 Q78.1445 26.25 78.1445 25.2656 Q78.1445 24.2969 77.7227 23.7266 Q77.3008 23.1562 76.582 23.1562 ZM76.582 22.4062 Q77.7539 22.4062 78.4258 23.1641 Q79.0977 23.9219 79.0977 25.2656 Q79.0977 26.6094 78.4258 27.375 Q77.7539 28.1406 76.582 28.1406 Q75.4102 28.1406 74.7383 27.375 Q74.0664 26.6094 74.0664 25.2656 Q74.0664 23.9219 74.7383 23.1641 Q75.4102 22.4062 76.582 22.4062 ZM84.8408 23.5781 Q85.1689 22.9688 85.6377 22.6875 Q86.1064 22.4062 86.7471 22.4062 Q87.6064 22.4062 88.0674 23 Q88.5283 23.5938 88.5283 24.7031 L88.5283 28 L87.6221 28 L87.6221 24.7344 Q87.6221 23.9375 87.3486 23.5625 Q87.0752 23.1875 86.4971 23.1875 Q85.7939 23.1875 85.3955 23.6484 Q84.9971 24.1094 84.9971 24.9062 L84.9971 28 L84.0908 28 L84.0908 24.7344 Q84.0908 23.9375 83.8096 23.5625 Q83.5283 23.1875 82.9502 23.1875 Q82.2627 23.1875 81.8564 23.6484 Q81.4502 24.1094 81.4502 24.9062 L81.4502 28 L80.5439 28 L80.5439 22.5312 L81.4502 22.5312 L81.4502 23.375 Q81.7627 22.875 82.1924 22.6406 Q82.6221 22.4062 83.2002 22.4062 Q83.8096 22.4062 84.2236 22.7031 Q84.6377 23 84.8408 23.5781 ZM92.4414 23.1562 Q91.7227 23.1562 91.3008 23.7188 Q90.8789 24.2812 90.8789 25.2656 Q90.8789 26.25 91.293 26.8125 Q91.707 27.375 92.4414 27.375 Q93.1602 27.375 93.582 26.8125 Q94.0039 26.25 94.0039 25.2656 Q94.0039 24.2969 93.582 23.7266 Q93.1602 23.1562 92.4414 23.1562 ZM92.4414 22.4062 Q93.6133 22.4062 94.2852 23.1641 Q94.957 23.9219 94.957 25.2656 Q94.957 26.6094 94.2852 27.375 Q93.6133 28.1406 92.4414 28.1406 Q91.2695 28.1406 90.5977 27.375 Q89.9258 26.6094 89.9258 25.2656 Q89.9258 23.9219 90.5977 23.1641 Q91.2695 22.4062 92.4414 22.4062 ZM103.0977 22.6875 L103.0977 23.5469 Q102.7227 23.3438 102.3164 23.25 Q101.9102 23.1562 101.457 23.1562 Q100.8008 23.1562 100.4648 23.3594 Q100.1289 23.5625 100.1289 23.9688 Q100.1289 24.2812 100.3633 24.4609 Q100.5977 24.6406 101.332 24.7969 L101.6289 24.875 Q102.5977 25.0781 102.9961 25.4531 Q103.3945 25.8281 103.3945 26.4844 Q103.3945 27.25 102.793 27.6953 Q102.1914 28.1406 101.1445 28.1406 Q100.6914 28.1406 100.2148 28.0547 Q99.7383 27.9688 99.2227 27.7969 L99.2227 26.875 Q99.7227 27.125 100.1992 27.2578 Q100.6758 27.3906 101.1602 27.3906 Q101.7852 27.3906 102.1289 27.1719 Q102.4727 26.9531 102.4727 26.5625 Q102.4727 26.1875 102.2305 25.9922 Q101.9883 25.7969 101.1445 25.625 L100.832 25.5469 Q100.0039 25.375 99.6289 25.0078 Q99.2539 24.6406 99.2539 24.0156 Q99.2539 23.2344 99.8008 22.8203 Q100.3477 22.4062 101.3633 22.4062 Q101.8477 22.4062 102.293 22.4766 Q102.7383 22.5469 103.0977 22.6875 ZM107.3076 25.25 Q106.2295 25.25 105.8076 25.5 Q105.3857 25.75 105.3857 26.3438 Q105.3857 26.8281 105.6982 27.1094 Q106.0107 27.3906 106.5576 27.3906 Q107.3076 27.3906 107.7607 26.8594 Q108.2139 26.3281 108.2139 25.4531 L108.2139 25.25 L107.3076 25.25 ZM109.1045 24.875 L109.1045 28 L108.2139 28 L108.2139 27.1719 Q107.9014 27.6719 107.4404 27.9062 Q106.9795 28.1406 106.3232 28.1406 Q105.4795 28.1406 104.9795 27.6719 Q104.4795 27.2031 104.4795 26.4062 Q104.4795 25.4844 105.1045 25.0156 Q105.7295 24.5469 106.9482 24.5469 L108.2139 24.5469 L108.2139 24.4531 Q108.2139 23.8438 107.7998 23.5 Q107.3857 23.1562 106.6514 23.1562 Q106.1826 23.1562 105.7373 23.2734 Q105.292 23.3906 104.8857 23.6094 L104.8857 22.7812 Q105.3857 22.5938 105.8467 22.5 Q106.3076 22.4062 106.7451 22.4062 Q107.9326 22.4062 108.5186 23.0156 Q109.1045 23.625 109.1045 24.875 ZM111.8262 27.1719 L111.8262 30.0781 L110.9199 30.0781 L110.9199 22.5312 L111.8262 22.5312 L111.8262 23.3594 Q112.1074 22.875 112.5371 22.6406 Q112.9668 22.4062 113.5762 22.4062 Q114.5762 22.4062 115.1934 23.1953 Q115.8105 23.9844 115.8105 25.2656 Q115.8105 26.5625 115.1934 27.3516 Q114.5762 28.1406 113.5762 28.1406 Q112.9668 28.1406 112.5371 27.9062 Q112.1074 27.6719 111.8262 27.1719 ZM114.8887 25.2656 Q114.8887 24.2812 114.4746 23.7188 Q114.0605 23.1562 113.3574 23.1562 Q112.6387 23.1562 112.2324 23.7188 Q111.8262 24.2812 111.8262 25.2656 Q111.8262 26.2656 112.2324 26.8281 Q112.6387 27.3906 113.3574 27.3906 Q114.0605 27.3906 114.4746 26.8281 Q114.8887 26.2656 114.8887 25.2656 ZM117.2988 22.5312 L118.2051 22.5312 L118.2051 28 L117.2988 28 L117.2988 22.5312 ZM117.2988 20.4062 L118.2051 20.4062 L118.2051 21.5469 L117.2988 21.5469 L117.2988 20.4062 ZM124.7646 25.0469 L124.7646 25.4844 L120.624 25.4844 Q120.6865 26.4062 121.1865 26.8906 Q121.6865 27.375 122.5771 27.375 Q123.0928 27.375 123.585 27.25 Q124.0771 27.125 124.5459 26.875 L124.5459 27.7188 Q124.0615 27.9219 123.5537 28.0312 Q123.0459 28.1406 122.5303 28.1406 Q121.2178 28.1406 120.4521 27.3828 Q119.6865 26.625 119.6865 25.3125 Q119.6865 23.9688 120.4131 23.1875 Q121.1396 22.4062 122.374 22.4062 Q123.4834 22.4062 124.124 23.1094 Q124.7646 23.8125 124.7646 25.0469 ZM123.8584 24.7812 Q123.8584 24.0469 123.4521 23.6016 Q123.0459 23.1562 122.3896 23.1562 Q121.624 23.1562 121.1787 23.5859 Q120.7334 24.0156 120.6553 24.7812 L123.8584 24.7812 ZM130.7764 24.7031 L130.7764 28 L129.8857 28 L129.8857 24.7344 Q129.8857 23.9531 129.5811 23.5703 Q129.2764 23.1875 128.667 23.1875 Q127.9482 23.1875 127.5264 23.6484 Q127.1045 24.1094 127.1045 24.9062 L127.1045 28 L126.1982 28 L126.1982 22.5312 L127.1045 22.5312 L127.1045 23.375 Q127.4326 22.8906 127.8701 22.6484 Q128.3076 22.4062 128.8701 22.4062 Q129.8076 22.4062 130.292 22.9844 Q130.7764 23.5625 130.7764 24.7031 ZM136.0518 22.6875 L136.0518 23.5469 Q135.6768 23.3438 135.2705 23.25 Q134.8643 23.1562 134.4111 23.1562 Q133.7549 23.1562 133.4189 23.3594 Q133.083 23.5625 133.083 23.9688 Q133.083 24.2812 133.3174 24.4609 Q133.5518 24.6406 134.2861 24.7969 L134.583 24.875 Q135.5518 25.0781 135.9502 25.4531 Q136.3486 25.8281 136.3486 26.4844 Q136.3486 27.25 135.7471 27.6953 Q135.1455 28.1406 134.0986 28.1406 Q133.6455 28.1406 133.1689 28.0547 Q132.6924 27.9688 132.1768 27.7969 L132.1768 26.875 Q132.6768 27.125 133.1533 27.2578 Q133.6299 27.3906 134.1143 27.3906 Q134.7393 27.3906 135.083 27.1719 Q135.4268 26.9531 135.4268 26.5625 Q135.4268 26.1875 135.1846 25.9922 Q134.9424 25.7969 134.0986 25.625 L133.7861 25.5469 Q132.958 25.375 132.583 25.0078 Q132.208 24.6406 132.208 24.0156 Q132.208 23.2344 132.7549 22.8203 Q133.3018 22.4062 134.3174 22.4062 Q134.8018 22.4062 135.2471 22.4766 Q135.6924 22.5469 136.0518 22.6875 Z"
         style="clip-path:url(#clipPath2); stroke:none;"
         clip-path="url(#clipPath2)"
         id="path74" />
    </g>
    <g
       style="fill:navy; text-rendering:geometricPrecision; font-size:8; stroke:navy;"
       id="g80">
      <text
         x="161"
         xml:space="preserve"
         y="16"
         style="clip-path:url(#clipPath4); stroke:none;"
         clip-path="url(#clipPath4)"
         id="text78">1</text>
    </g>
    <g
       style="text-rendering:geometricPrecision;"
       id="g86">
      <path
         d="M164.7417 197.9833 L164.094 260.0005"
         style="fill:none; clip-path:url(#clipPath5);"
         clip-path="url(#clipPath5)"
         id="path82" />
      <path
         d="M169.2937 260.0548 L163.9718 271.6999 L158.8943 259.9462 Z"
         style="clip-path:url(#clipPath5); stroke:none;"
         clip-path="url(#clipPath5)"
         id="path84" />
    </g>
    <g
       style="text-rendering:geometricPrecision;"
       id="g92">
      <path
         d="M223 299 L172.1838 322.2549"
         style="fill:none; clip-path:url(#clipPath6);"
         clip-path="url(#clipPath6)"
         id="path88" />
      <path
         d="M174.3476 326.9833 L161.5449 327.1235 L170.0199 317.5265 Z"
         style="clip-path:url(#clipPath6); stroke:none;"
         clip-path="url(#clipPath6)"
         id="path90" />
    </g>
    <g
       style="text-rendering:geometricPrecision;"
       id="g98">
      <path
         d="M256 92 L173.2133 116.618"
         style="fill:none; clip-path:url(#clipPath7);"
         clip-path="url(#clipPath7)"
         id="path94" />
      <path
         d="M174.6955 121.6023 L161.9987 119.9529 L171.7312 111.6338 Z"
         style="clip-path:url(#clipPath7); stroke:none;"
         clip-path="url(#clipPath7)"
         id="path96" />
    </g>
    <g
       style="text-rendering:geometricPrecision;"
       id="g104">
      <path
         d="M164.4833 79.9833 L164.7179 168.9834"
         style="fill:none; clip-path:url(#clipPath8);"
         clip-path="url(#clipPath8)"
         id="path100" />
      <path
         d="M169.9179 168.9697 L164.7488 180.6833 L159.518 168.9971 Z"
         style="clip-path:url(#clipPath8); stroke:none;"
         clip-path="url(#clipPath8)"
         id="path102" />
    </g>
    <g
       style="text-rendering:geometricPrecision;"
       id="g110">
      <path
         d="M164 289 L164 339"
         style="fill:none; clip-path:url(#clipPath9);"
         clip-path="url(#clipPath9)"
         id="path106" />
      <path
         d="M169.2 339 L164 350.7 L158.8 339 Z"
         style="clip-path:url(#clipPath9); stroke:none;"
         clip-path="url(#clipPath9)"
         id="path108" />
    </g>
    <g
       style="fill:white; text-rendering:geometricPrecision; stroke:white;"
       id="g118">
      <path
         d="M95 177.9833 L234.4833 177.9833 L234.4833 197.9833 L95 197.9833 L95 177.9833 Z"
         style="clip-path:url(#clipPath10); stroke:none;"
         clip-path="url(#clipPath10)"
         id="path112" />
      <path
         d="M95 177.9833 L234.4833 177.9833 L234.4833 197.9833 L95 197.9833 L95 177.9833 Z"
         style="fill:none; clip-path:url(#clipPath10); stroke:blue;"
         clip-path="url(#clipPath10)"
         id="path114" />
      <text
         x="101"
         y="191"
         style="font-size:10; clip-path:url(#clipPath10); fill:blue; stroke:none;"
         xml:space="preserve"
         clip-path="url(#clipPath10)"
         id="text116">carboxylic acid AMP ester</text>
    </g>
    <g
       style="fill:white; text-rendering:geometricPrecision; stroke:white;"
       id="g126">
      <path
         d="M231 309 L311 309 L311 329 L231 329 L231 309 Z"
         style="clip-path:url(#clipPath11); stroke:none;"
         clip-path="url(#clipPath11)"
         id="path120" />
      <path
         d="M231 309 L311 309 L311 329 L231 329 L231 309 Z"
         style="fill:none; clip-path:url(#clipPath11); stroke:blue;"
         clip-path="url(#clipPath11)"
         id="path122" />
      <text
         x="241"
         y="322"
         style="font-size:10; clip-path:url(#clipPath11); fill:blue; stroke:none;"
         xml:space="preserve"
         clip-path="url(#clipPath11)"
         id="text124">L-Glutamine</text>
    </g>
    <g
       style="fill:white; text-rendering:geometricPrecision; stroke:white;"
       id="g134">
      <path
         d="M231 289 L311 289 L311 309 L231 309 L231 289 Z"
         style="clip-path:url(#clipPath12); stroke:none;"
         clip-path="url(#clipPath12)"
         id="path128" />
      <path
         d="M231 289 L311 289 L311 309 L231 309 L231 289 Z"
         style="fill:none; clip-path:url(#clipPath12); stroke:blue;"
         clip-path="url(#clipPath12)"
         id="path130" />
      <text
         x="253"
         y="302"
         style="font-size:10; clip-path:url(#clipPath12); fill:blue; stroke:none;"
         xml:space="preserve"
         clip-path="url(#clipPath12)"
         id="text132">Taurine</text>
    </g>
    <g
       style="fill:white; text-rendering:geometricPrecision; stroke:white;"
       id="g142">
      <path
         d="M256 82 L336 82 L336 102 L256 102 L256 82 Z"
         style="clip-path:url(#clipPath13); stroke:none;"
         clip-path="url(#clipPath13)"
         id="path136" />
      <path
         d="M256 82 L336 82 L336 102 L256 102 L256 82 Z"
         style="fill:none; clip-path:url(#clipPath13); stroke:blue;"
         clip-path="url(#clipPath13)"
         id="path138" />
      <text
         x="287"
         y="95"
         style="font-size:10; clip-path:url(#clipPath13); fill:blue; stroke:none;"
         xml:space="preserve"
         clip-path="url(#clipPath13)"
         id="text140">ATP</text>
    </g>
    <g
       style="fill:white; text-rendering:geometricPrecision; stroke:white;"
       id="g150">
      <path
         d="M258 152 L338 152 L338 172 L258 172 L258 152 Z"
         style="clip-path:url(#clipPath14); stroke:none;"
         clip-path="url(#clipPath14)"
         id="path144" />
      <path
         d="M258 152 L338 152 L338 172 L258 172 L258 152 Z"
         style="fill:none; clip-path:url(#clipPath14); stroke:blue;"
         clip-path="url(#clipPath14)"
         id="path146" />
      <text
         x="272"
         y="165"
         style="font-size:10; clip-path:url(#clipPath14); fill:blue; stroke:none;"
         xml:space="preserve"
         clip-path="url(#clipPath14)"
         id="text148">Phosphate</text>
    </g>
    <g
       style="fill:white; text-rendering:geometricPrecision; stroke:white;"
       id="g158">
      <path
         d="M231 269 L311 269 L311 289 L231 289 L231 269 Z"
         style="clip-path:url(#clipPath15); stroke:none;"
         clip-path="url(#clipPath15)"
         id="path152" />
      <path
         d="M231 269 L311 269 L311 289 L231 289 L231 269 Z"
         style="fill:none; clip-path:url(#clipPath15); stroke:blue;"
         clip-path="url(#clipPath15)"
         id="path154" />
      <text
         x="253"
         y="282"
         style="font-size:10; clip-path:url(#clipPath15); fill:blue; stroke:none;"
         xml:space="preserve"
         clip-path="url(#clipPath15)"
         id="text156">Glycine</text>
    </g>
    <g
       style="fill:white; text-rendering:geometricPrecision; stroke:white;"
       id="g166">
      <path
         d="M124 269 L204 269 L204 289 L124 289 L124 269 Z"
         style="clip-path:url(#clipPath16); stroke:none;"
         clip-path="url(#clipPath16)"
         id="path160" />
      <path
         d="M124 269 L204 269 L204 289 L124 289 L124 269 Z"
         style="fill:none; clip-path:url(#clipPath16); stroke:blue;"
         clip-path="url(#clipPath16)"
         id="path162" />
      <text
         x="132"
         y="282"
         style="font-size:10; clip-path:url(#clipPath16); fill:blue; stroke:none;"
         xml:space="preserve"
         clip-path="url(#clipPath16)"
         id="text164">carboxyl CoA</text>
    </g>
    <g
       style="fill:white; text-rendering:geometricPrecision; stroke:white;"
       id="g174">
      <path
         d="M258 132 L338 132 L338 152 L258 152 L258 132 Z"
         style="clip-path:url(#clipPath17); stroke:none;"
         clip-path="url(#clipPath17)"
         id="path168" />
      <path
         d="M258 132 L338 132 L338 152 L258 152 L258 132 Z"
         style="fill:none; clip-path:url(#clipPath17); stroke:blue;"
         clip-path="url(#clipPath17)"
         id="path170" />
      <text
         x="272"
         y="145"
         style="font-size:10; clip-path:url(#clipPath17); fill:blue; stroke:none;"
         xml:space="preserve"
         clip-path="url(#clipPath17)"
         id="text172">Phosphate</text>
    </g>
    <g
       style="fill:white; text-rendering:geometricPrecision; stroke:white;"
       id="g182">
      <path
         d="M124.4833 59.9833 L204.4833 59.9833 L204.4833 79.9833 L124.4833 79.9833 L124.4833 59.9833 Z"
         style="clip-path:url(#clipPath18); stroke:none;"
         clip-path="url(#clipPath18)"
         id="path176" />
      <path
         d="M124.4833 59.9833 L204.4833 59.9833 L204.4833 79.9833 L124.4833 79.9833 L124.4833 59.9833 Z"
         style="fill:none; clip-path:url(#clipPath18); stroke:blue;"
         clip-path="url(#clipPath18)"
         id="path178" />
      <text
         x="127"
         y="73"
         style="font-size:10; clip-path:url(#clipPath18); fill:blue; stroke:none;"
         xml:space="preserve"
         clip-path="url(#clipPath18)"
         id="text180">carboxylic acid</text>
    </g>
    <g
       style="fill:white; text-rendering:geometricPrecision; stroke:white;"
       id="g190">
      <path
         d="M78 348 L250 348 L250 368 L78 368 L78 348 Z"
         style="clip-path:url(#clipPath19); stroke:none;"
         clip-path="url(#clipPath19)"
         id="path184" />
      <path
         d="M78 348 L250 348 L250 368 L78 368 L78 348 Z"
         style="fill:none; clip-path:url(#clipPath19); stroke:blue;"
         clip-path="url(#clipPath19)"
         id="path186" />
      <text
         x="88"
         y="361"
         style="font-size:10; clip-path:url(#clipPath19); fill:blue; stroke:none;"
         xml:space="preserve"
         clip-path="url(#clipPath19)"
         id="text188">carboxyl amino acid conjugate</text>
    </g>
    <g
       style="text-rendering:geometricPrecision;"
       id="g196">
      <path
         d="M164.5867 119.1833 L241.5988 148.7722"
         style="fill:none; clip-path:url(#clipPath20);"
         clip-path="url(#clipPath20)"
         id="path192" />
      <path
         d="M243.4637 143.9181 L252.5204 152.9684 L239.7338 153.6262 Z"
         style="clip-path:url(#clipPath20); stroke:none;"
         clip-path="url(#clipPath20)"
         id="path194" />
    </g>
  </g>
</svg>
