<?xml version="1.0" encoding="UTF-8" standalone="no"?>
<svg
   style="fill-opacity:1; color-rendering:auto; color-interpolation:auto; stroke:black; text-rendering:auto; stroke-linecap:square; stroke-miterlimit:10; stroke-opacity:1; shape-rendering:auto; fill:black; stroke-dasharray:none; font-weight:normal; stroke-width:1; font-family:'Dialog'; font-style:normal; stroke-linejoin:miter; font-size:12; stroke-dashoffset:0; image-rendering:auto;"
   width="659"
   height="567"
   version="1.1"
   id="svg363"
   xmlns="http://www.w3.org/2000/svg"
   xmlns:svg="http://www.w3.org/2000/svg">
  <!--Generated by the Batik Graphics2D SVG Generator-->
  <defs
     id="genericDefs" />
  <g
     id="g361">
    <defs
       id="defs1">
      <clipPath
         clipPathUnits="userSpaceOnUse"
         id="clipPath1">
        <path
           d="M0 0 L674 0 L674 577 L0 577 L0 0 Z"
           id="path3" />
      </clipPath>
      <clipPath
         clipPathUnits="userSpaceOnUse"
         id="clipPath2">
        <path
           d="M0 0 L0 200 L200 200 L200 0 Z"
           id="path6" />
      </clipPath>
      <clipPath
         clipPathUnits="userSpaceOnUse"
         id="clipPath3">
        <path
           d="M322 16 L322 37 L333 37 L333 16 Z"
           id="path9" />
      </clipPath>
      <clipPath
         clipPathUnits="userSpaceOnUse"
         id="clipPath4">
        <path
           d="M321.4551 3.918 L332.5449 3.918 L332.5449 19.2305 L321.4551 19.2305 L321.4551 3.918 Z"
           id="path12" />
      </clipPath>
      <clipPath
         clipPathUnits="userSpaceOnUse"
         id="clipPath5">
        <path
           d="M376.1266 247.8073 L376.1266 286.7716 L481.9171 286.7716 L481.9171 247.8073 Z"
           id="path15" />
      </clipPath>
      <clipPath
         clipPathUnits="userSpaceOnUse"
         id="clipPath6">
        <path
           d="M271.3538 303.0345 L271.3538 361.6209 L331.5033 361.6209 L331.5033 303.0345 Z"
           id="path18" />
      </clipPath>
      <clipPath
         clipPathUnits="userSpaceOnUse"
         id="clipPath7">
        <path
           d="M120.081 384.8992 L120.081 472.9748 L132.0198 472.9748 L132.0198 384.8992 Z"
           id="path21" />
      </clipPath>
      <clipPath
         clipPathUnits="userSpaceOnUse"
         id="clipPath8">
        <path
           d="M318.1063 260.4454 L318.1063 361.6303 L330.045 361.6303 L330.045 260.4454 Z"
           id="path24" />
      </clipPath>
      <clipPath
         clipPathUnits="userSpaceOnUse"
         id="clipPath9">
        <path
           d="M120.081 260.9496 L120.081 361.6303 L132.0198 361.6303 L132.0198 260.9496 Z"
           id="path27" />
      </clipPath>
      <clipPath
         clipPathUnits="userSpaceOnUse"
         id="clipPath10">
        <path
           d="M376.1524 217.979 L376.1524 249.0577 L481.9455 249.0577 L481.9455 217.979 Z"
           id="path30" />
      </clipPath>
      <clipPath
         clipPathUnits="userSpaceOnUse"
         id="clipPath11">
        <path
           d="M120.081 100.5546 L120.081 147.588 L180.319 147.588 L180.319 100.5546 Z"
           id="path33" />
      </clipPath>
      <clipPath
         clipPathUnits="userSpaceOnUse"
         id="clipPath12">
        <path
           d="M318.1063 384.8992 L318.1063 472.9748 L330.045 472.9748 L330.045 384.8992 Z"
           id="path36" />
      </clipPath>
      <clipPath
         clipPathUnits="userSpaceOnUse"
         id="clipPath13">
        <path
           d="M210.1532 218.6771 L210.1532 249.6482 L221.5532 249.6482 L221.5532 218.6771 Z"
           id="path39" />
      </clipPath>
      <clipPath
         clipPathUnits="userSpaceOnUse"
         id="clipPath14">
        <path
           d="M318.1063 100.5546 L318.1063 236.4454 L330.045 236.4454 L330.045 100.5546 Z"
           id="path42" />
      </clipPath>
      <clipPath
         clipPathUnits="userSpaceOnUse"
         id="clipPath15">
        <path
           d="M178.2368 242.5425 L178.2368 254.4811 L272.6177 254.4811 L272.6177 242.5425 Z"
           id="path45" />
      </clipPath>
      <clipPath
         clipPathUnits="userSpaceOnUse"
         id="clipPath16">
        <path
           d="M120.081 100.5546 L120.081 236.9496 L132.0198 236.9496 L132.0198 100.5546 Z"
           id="path48" />
      </clipPath>
      <clipPath
         clipPathUnits="userSpaceOnUse"
         id="clipPath17">
        <path
           d="M120.081 303.0365 L120.081 361.6303 L182.4257 361.6303 L182.4257 303.0365 Z"
           id="path51" />
      </clipPath>
      <clipPath
         clipPathUnits="userSpaceOnUse"
         id="clipPath18">
        <path
           d="M48.6218 175.7227 L48.6218 412.5126 L403.0588 412.5126 L403.0588 175.7227 Z"
           id="path54" />
      </clipPath>
      <clipPath
         clipPathUnits="userSpaceOnUse"
         id="clipPath19">
        <path
           d="M49.6723 426.7731 L49.6723 553.2689 L399.9076 553.2689 L399.9076 426.7731 Z"
           id="path57" />
      </clipPath>
      <clipPath
         clipPathUnits="userSpaceOnUse"
         id="clipPath20">
        <path
           d="M393.5756 238.0504 L393.5756 264.0504 L484.5756 264.0504 L484.5756 238.0504 Z"
           id="path60" />
      </clipPath>
      <clipPath
         clipPathUnits="userSpaceOnUse"
         id="clipPath21">
        <path
           d="M188.5756 514.3109 L188.5756 540.3109 L402.6429 540.3109 L402.6429 514.3109 Z"
           id="path63" />
      </clipPath>
      <clipPath
         clipPathUnits="userSpaceOnUse"
         id="clipPath22">
        <path
           d="M80.5504 359.8992 L80.5504 385.8992 L171.5504 385.8992 L171.5504 359.8992 Z"
           id="path66" />
      </clipPath>
      <clipPath
         clipPathUnits="userSpaceOnUse"
         id="clipPath23">
        <path
           d="M181.3908 290.5714 L181.3908 316.5714 L272.3907 316.5714 L272.3907 290.5714 Z"
           id="path69" />
      </clipPath>
      <clipPath
         clipPathUnits="userSpaceOnUse"
         id="clipPath24">
        <path
           d="M170.6366 193.6828 L170.6366 219.6828 L261.6366 219.6828 L261.6366 193.6828 Z"
           id="path72" />
      </clipPath>
      <clipPath
         clipPathUnits="userSpaceOnUse"
         id="clipPath25">
        <path
           d="M72.8613 235.9496 L72.8613 261.9496 L179.2395 261.9496 L179.2395 235.9496 Z"
           id="path75" />
      </clipPath>
      <clipPath
         clipPathUnits="userSpaceOnUse"
         id="clipPath26">
        <path
           d="M480.2563 207.5882 L480.2563 233.5882 L600.2899 233.5882 L600.2899 207.5882 Z"
           id="path78" />
      </clipPath>
      <clipPath
         clipPathUnits="userSpaceOnUse"
         id="clipPath27">
        <path
           d="M179.2899 134.0588 L179.2899 160.0588 L270.2899 160.0588 L270.2899 134.0588 Z"
           id="path81" />
      </clipPath>
      <clipPath
         clipPathUnits="userSpaceOnUse"
         id="clipPath28">
        <path
           d="M80.5504 471.2437 L80.5504 497.2437 L171.5504 497.2437 L171.5504 471.2437 Z"
           id="path84" />
      </clipPath>
      <clipPath
         clipPathUnits="userSpaceOnUse"
         id="clipPath29">
        <path
           d="M80.5504 76.2857 L80.5504 102.2857 L171.5504 102.2857 L171.5504 76.2857 Z"
           id="path87" />
      </clipPath>
      <clipPath
         clipPathUnits="userSpaceOnUse"
         id="clipPath30">
        <path
           d="M270.8866 235.4454 L270.8866 261.4454 L377.2647 261.4454 L377.2647 235.4454 Z"
           id="path90" />
      </clipPath>
      <clipPath
         clipPathUnits="userSpaceOnUse"
         id="clipPath31">
        <path
           d="M278.5756 471.2437 L278.5756 497.2437 L369.5756 497.2437 L369.5756 471.2437 Z"
           id="path93" />
      </clipPath>
      <clipPath
         clipPathUnits="userSpaceOnUse"
         id="clipPath32">
        <path
           d="M278.5756 76.2857 L278.5756 102.2857 L369.5756 102.2857 L369.5756 76.2857 Z"
           id="path96" />
      </clipPath>
      <clipPath
         clipPathUnits="userSpaceOnUse"
         id="clipPath33">
        <path
           d="M480.2563 272.2101 L480.2563 298.2101 L600.2899 298.2101 L600.2899 272.2101 Z"
           id="path99" />
      </clipPath>
      <clipPath
         clipPathUnits="userSpaceOnUse"
         id="clipPath34">
        <path
           d="M278.5756 359.8992 L278.5756 385.8992 L369.5756 385.8992 L369.5756 359.8992 Z"
           id="path102" />
      </clipPath>
      <clipPath
         clipPathUnits="userSpaceOnUse"
         id="clipPath35">
        <path
           d="M269.2608 100.5718 L269.2608 147.588 L327.9297 147.588 L327.9297 100.5718 Z"
           id="path105" />
      </clipPath>
      <clipPath
         clipPathUnits="userSpaceOnUse"
         id="clipPath36">
        <path
           d="M326.7269 185.0252 L326.7269 211.0252 L395.458 211.0252 L395.458 185.0252 Z"
           id="path108" />
      </clipPath>
      <clipPath
         clipPathUnits="userSpaceOnUse"
         id="clipPath37">
        <path
           d="M441.3907 175.5714 L441.3907 201.5714 L645.458 201.5714 L645.458 175.5714 Z"
           id="path111" />
      </clipPath>
      <clipPath
         clipPathUnits="userSpaceOnUse"
         id="clipPath38">
        <path
           d="M157.2731 452.3781 L157.2731 478.3781 L291.4664 478.3781 L291.4664 452.3781 Z"
           id="path114" />
      </clipPath>
      <clipPath
         clipPathUnits="userSpaceOnUse"
         id="clipPath39">
        <path
           d="M159.9202 55.8655 L159.9202 81.8655 L294.1134 81.8655 L294.1134 55.8655 Z"
           id="path117" />
      </clipPath>
    </defs>
    <g
       style="fill:white; stroke:white;"
       id="g123">
      <rect
         x="0"
         width="674"
         height="577"
         y="0"
         style="stroke:none;"
         id="rect121" />
    </g>
    <g
       style="font-weight:bold; font-size:10; text-rendering:geometricPrecision;"
       id="g133">
      <path
         d="M0.0469 6.7031 L6.7656 6.7031 L6.7656 8.125 L4.3438 8.125 L4.3438 14 L2.4688 14 L2.4688 8.125 L0.0469 8.125 L0.0469 6.7031 ZM7.665 8.5312 L9.415 8.5312 L9.415 14 L7.665 14 L7.665 8.5312 ZM7.665 6.4062 L9.415 6.4062 L9.415 7.8281 L7.665 7.8281 L7.665 6.4062 ZM12.999 6.9844 L12.999 8.5312 L14.7959 8.5312 L14.7959 9.7812 L12.999 9.7812 L12.999 12.0938 Q12.999 12.4844 13.1475 12.6172 Q13.2959 12.75 13.749 12.75 L14.6553 12.75 L14.6553 14 L13.1553 14 Q12.1084 14 11.6787 13.5703 Q11.249 13.1406 11.249 12.0938 L11.249 9.7812 L10.374 9.7812 L10.374 8.5312 L11.249 8.5312 L11.249 6.9844 L12.999 6.9844 ZM15.873 6.4062 L17.623 6.4062 L17.623 14 L15.873 14 L15.873 6.4062 ZM24.7539 11.25 L24.7539 11.75 L20.6758 11.75 Q20.7383 12.3594 21.1133 12.6719 Q21.4883 12.9844 22.1758 12.9844 Q22.7227 12.9844 23.3086 12.8203 Q23.8945 12.6562 24.5039 12.3125 L24.5039 13.6719 Q23.8789 13.9062 23.2617 14.0234 Q22.6445 14.1406 22.0195 14.1406 Q20.5352 14.1406 19.7148 13.3828 Q18.8945 12.625 18.8945 11.2656 Q18.8945 9.9375 19.6992 9.1719 Q20.5039 8.4062 21.9258 8.4062 Q23.207 8.4062 23.9805 9.1797 Q24.7539 9.9531 24.7539 11.25 ZM22.957 10.6719 Q22.957 10.1719 22.668 9.8672 Q22.3789 9.5625 21.9102 9.5625 Q21.3945 9.5625 21.082 9.8438 Q20.7695 10.125 20.6914 10.6719 L22.957 10.6719 ZM26.3643 8.5312 L28.1143 8.5312 L28.1143 10.4219 L26.3643 10.4219 L26.3643 8.5312 ZM26.3643 12.1094 L28.1143 12.1094 L28.1143 14 L26.3643 14 L26.3643 12.1094 Z"
         style="clip-path:url(#clipPath2); stroke:none;"
         clip-path="url(#clipPath2)"
         id="path125" />
      <path
         d="M41.4219 7.6875 L40.0781 11.3125 L42.7656 11.3125 L41.4219 7.6875 ZM40.8594 6.7031 L41.9844 6.7031 L44.7656 14 L43.7344 14 L43.0625 12.125 L39.7812 12.125 L39.125 14 L38.0781 14 L40.8594 6.7031 ZM49.7158 8.7344 L49.7158 9.5781 Q49.3408 9.375 48.958 9.2656 Q48.5752 9.1562 48.1846 9.1562 Q47.3096 9.1562 46.8252 9.7109 Q46.3408 10.2656 46.3408 11.2656 Q46.3408 12.2656 46.8252 12.8203 Q47.3096 13.375 48.1846 13.375 Q48.5752 13.375 48.958 13.2734 Q49.3408 13.1719 49.7158 12.9531 L49.7158 13.7969 Q49.3408 13.9688 48.9424 14.0547 Q48.5439 14.1406 48.0908 14.1406 Q46.8408 14.1406 46.1143 13.3672 Q45.3877 12.5938 45.3877 11.2656 Q45.3877 9.9375 46.1221 9.1719 Q46.8564 8.4062 48.1377 8.4062 Q48.5596 8.4062 48.9502 8.4844 Q49.3408 8.5625 49.7158 8.7344 ZM54.4482 9.375 Q54.292 9.2812 54.1201 9.2422 Q53.9482 9.2031 53.7295 9.2031 Q52.9639 9.2031 52.5576 9.6953 Q52.1514 10.1875 52.1514 11.125 L52.1514 14 L51.2451 14 L51.2451 8.5312 L52.1514 8.5312 L52.1514 9.375 Q52.4326 8.875 52.8857 8.6406 Q53.3389 8.4062 53.9951 8.4062 Q54.0889 8.4062 54.1982 8.4141 Q54.3076 8.4219 54.4482 8.4531 L54.4482 9.375 ZM57.6689 14.5156 Q57.2939 15.4844 56.9268 15.7812 Q56.5596 16.0781 55.9658 16.0781 L55.2471 16.0781 L55.2471 15.3281 L55.7627 15.3281 Q56.1377 15.3281 56.3408 15.1562 Q56.5439 14.9844 56.7939 14.3281 L56.9658 13.9062 L54.7471 8.5312 L55.7002 8.5312 L57.4033 12.8125 L59.1221 8.5312 L60.0752 8.5312 L57.6689 14.5156 ZM61.3057 6.4062 L62.2119 6.4062 L62.2119 14 L61.3057 14 L61.3057 6.4062 ZM66.5684 11.25 Q65.4902 11.25 65.0684 11.5 Q64.6465 11.75 64.6465 12.3438 Q64.6465 12.8281 64.959 13.1094 Q65.2715 13.3906 65.8184 13.3906 Q66.5684 13.3906 67.0215 12.8594 Q67.4746 12.3281 67.4746 11.4531 L67.4746 11.25 L66.5684 11.25 ZM68.3652 10.875 L68.3652 14 L67.4746 14 L67.4746 13.1719 Q67.1621 13.6719 66.7012 13.9062 Q66.2402 14.1406 65.584 14.1406 Q64.7402 14.1406 64.2402 13.6719 Q63.7402 13.2031 63.7402 12.4062 Q63.7402 11.4844 64.3652 11.0156 Q64.9902 10.5469 66.209 10.5469 L67.4746 10.5469 L67.4746 10.4531 Q67.4746 9.8438 67.0605 9.5 Q66.6465 9.1562 65.9121 9.1562 Q65.4434 9.1562 64.998 9.2734 Q64.5527 9.3906 64.1465 9.6094 L64.1465 8.7812 Q64.6465 8.5938 65.1074 8.5 Q65.5684 8.4062 66.0059 8.4062 Q67.1934 8.4062 67.7793 9.0156 Q68.3652 9.625 68.3652 10.875 ZM74.4775 9.5781 Q74.8057 8.9688 75.2744 8.6875 Q75.7432 8.4062 76.3838 8.4062 Q77.2432 8.4062 77.7041 9 Q78.165 9.5938 78.165 10.7031 L78.165 14 L77.2588 14 L77.2588 10.7344 Q77.2588 9.9375 76.9854 9.5625 Q76.7119 9.1875 76.1338 9.1875 Q75.4307 9.1875 75.0322 9.6484 Q74.6338 10.1094 74.6338 10.9062 L74.6338 14 L73.7275 14 L73.7275 10.7344 Q73.7275 9.9375 73.4463 9.5625 Q73.165 9.1875 72.5869 9.1875 Q71.8994 9.1875 71.4932 9.6484 Q71.0869 10.1094 71.0869 10.9062 L71.0869 14 L70.1807 14 L70.1807 8.5312 L71.0869 8.5312 L71.0869 9.375 Q71.3994 8.875 71.8291 8.6406 Q72.2588 8.4062 72.8369 8.4062 Q73.4463 8.4062 73.8604 8.7031 Q74.2744 9 74.4775 9.5781 ZM79.9531 8.5312 L80.8594 8.5312 L80.8594 14 L79.9531 14 L79.9531 8.5312 ZM79.9531 6.4062 L80.8594 6.4062 L80.8594 7.5469 L79.9531 7.5469 L79.9531 6.4062 ZM86.3408 9.3594 L86.3408 6.4062 L87.2314 6.4062 L87.2314 14 L86.3408 14 L86.3408 13.1719 Q86.0596 13.6719 85.6221 13.9062 Q85.1846 14.1406 84.5752 14.1406 Q83.5908 14.1406 82.9658 13.3516 Q82.3408 12.5625 82.3408 11.2656 Q82.3408 9.9844 82.9658 9.1953 Q83.5908 8.4062 84.5752 8.4062 Q85.1846 8.4062 85.6221 8.6406 Q86.0596 8.875 86.3408 9.3594 ZM83.2783 11.2656 Q83.2783 12.2656 83.6846 12.8281 Q84.0908 13.3906 84.8096 13.3906 Q85.5127 13.3906 85.9268 12.8281 Q86.3408 12.2656 86.3408 11.2656 Q86.3408 10.2812 85.9268 9.7188 Q85.5127 9.1562 84.8096 9.1562 Q84.0908 9.1562 83.6846 9.7188 Q83.2783 10.2812 83.2783 11.2656 ZM93.7666 11.0469 L93.7666 11.4844 L89.626 11.4844 Q89.6885 12.4062 90.1885 12.8906 Q90.6885 13.375 91.5791 13.375 Q92.0947 13.375 92.5869 13.25 Q93.0791 13.125 93.5479 12.875 L93.5479 13.7188 Q93.0635 13.9219 92.5557 14.0312 Q92.0479 14.1406 91.5322 14.1406 Q90.2197 14.1406 89.4541 13.3828 Q88.6885 12.625 88.6885 11.3125 Q88.6885 9.9688 89.415 9.1875 Q90.1416 8.4062 91.376 8.4062 Q92.4854 8.4062 93.126 9.1094 Q93.7666 9.8125 93.7666 11.0469 ZM92.8604 10.7812 Q92.8604 10.0469 92.4541 9.6016 Q92.0479 9.1562 91.3916 9.1562 Q90.626 9.1562 90.1807 9.5859 Q89.7354 10.0156 89.6572 10.7812 L92.8604 10.7812 ZM102.3477 11.2656 Q102.3477 10.2812 101.9336 9.7188 Q101.5195 9.1562 100.8164 9.1562 Q100.0977 9.1562 99.6914 9.7188 Q99.2852 10.2812 99.2852 11.2656 Q99.2852 12.2656 99.6914 12.8281 Q100.0977 13.3906 100.8164 13.3906 Q101.5195 13.3906 101.9336 12.8281 Q102.3477 12.2656 102.3477 11.2656 ZM99.2852 9.3594 Q99.5664 8.875 99.9961 8.6406 Q100.4258 8.4062 101.0352 8.4062 Q102.0352 8.4062 102.6523 9.1953 Q103.2695 9.9844 103.2695 11.2656 Q103.2695 12.5625 102.6523 13.3516 Q102.0352 14.1406 101.0352 14.1406 Q100.4258 14.1406 99.9961 13.9062 Q99.5664 13.6719 99.2852 13.1719 L99.2852 14 L98.3789 14 L98.3789 6.4062 L99.2852 6.4062 L99.2852 9.3594 ZM104.7578 8.5312 L105.6641 8.5312 L105.6641 14 L104.7578 14 L104.7578 8.5312 ZM104.7578 6.4062 L105.6641 6.4062 L105.6641 7.5469 L104.7578 7.5469 L104.7578 6.4062 ZM109.6611 9.1562 Q108.9424 9.1562 108.5205 9.7188 Q108.0986 10.2812 108.0986 11.2656 Q108.0986 12.25 108.5127 12.8125 Q108.9268 13.375 109.6611 13.375 Q110.3799 13.375 110.8018 12.8125 Q111.2236 12.25 111.2236 11.2656 Q111.2236 10.2969 110.8018 9.7266 Q110.3799 9.1562 109.6611 9.1562 ZM109.6611 8.4062 Q110.833 8.4062 111.5049 9.1641 Q112.1768 9.9219 112.1768 11.2656 Q112.1768 12.6094 111.5049 13.375 Q110.833 14.1406 109.6611 14.1406 Q108.4893 14.1406 107.8174 13.375 Q107.1455 12.6094 107.1455 11.2656 Q107.1455 9.9219 107.8174 9.1641 Q108.4893 8.4062 109.6611 8.4062 ZM114.5449 6.9844 L114.5449 8.5312 L116.4043 8.5312 L116.4043 9.2344 L114.5449 9.2344 L114.5449 12.2031 Q114.5449 12.8594 114.7324 13.0547 Q114.9199 13.25 115.4824 13.25 L116.4043 13.25 L116.4043 14 L115.4824 14 Q114.4355 14 114.0371 13.6094 Q113.6387 13.2188 113.6387 12.2031 L113.6387 9.2344 L112.9824 9.2344 L112.9824 8.5312 L113.6387 8.5312 L113.6387 6.9844 L114.5449 6.9844 ZM120.7471 9.375 Q120.5908 9.2812 120.4189 9.2422 Q120.2471 9.2031 120.0283 9.2031 Q119.2627 9.2031 118.8564 9.6953 Q118.4502 10.1875 118.4502 11.125 L118.4502 14 L117.5439 14 L117.5439 8.5312 L118.4502 8.5312 L118.4502 9.375 Q118.7314 8.875 119.1846 8.6406 Q119.6377 8.4062 120.2939 8.4062 Q120.3877 8.4062 120.4971 8.4141 Q120.6064 8.4219 120.7471 8.4531 L120.7471 9.375 ZM124.1709 11.25 Q123.0928 11.25 122.6709 11.5 Q122.249 11.75 122.249 12.3438 Q122.249 12.8281 122.5615 13.1094 Q122.874 13.3906 123.4209 13.3906 Q124.1709 13.3906 124.624 12.8594 Q125.0771 12.3281 125.0771 11.4531 L125.0771 11.25 L124.1709 11.25 ZM125.9678 10.875 L125.9678 14 L125.0771 14 L125.0771 13.1719 Q124.7646 13.6719 124.3037 13.9062 Q123.8428 14.1406 123.1865 14.1406 Q122.3428 14.1406 121.8428 13.6719 Q121.3428 13.2031 121.3428 12.4062 Q121.3428 11.4844 121.9678 11.0156 Q122.5928 10.5469 123.8115 10.5469 L125.0771 10.5469 L125.0771 10.4531 Q125.0771 9.8438 124.6631 9.5 Q124.249 9.1562 123.5146 9.1562 Q123.0459 9.1562 122.6006 9.2734 Q122.1553 9.3906 121.749 9.6094 L121.749 8.7812 Q122.249 8.5938 122.71 8.5 Q123.1709 8.4062 123.6084 8.4062 Q124.7959 8.4062 125.3818 9.0156 Q125.9678 9.625 125.9678 10.875 ZM132.3613 10.7031 L132.3613 14 L131.4707 14 L131.4707 10.7344 Q131.4707 9.9531 131.166 9.5703 Q130.8613 9.1875 130.252 9.1875 Q129.5332 9.1875 129.1113 9.6484 Q128.6895 10.1094 128.6895 10.9062 L128.6895 14 L127.7832 14 L127.7832 8.5312 L128.6895 8.5312 L128.6895 9.375 Q129.0176 8.8906 129.4551 8.6484 Q129.8926 8.4062 130.4551 8.4062 Q131.3926 8.4062 131.877 8.9844 Q132.3613 9.5625 132.3613 10.7031 ZM137.6367 8.6875 L137.6367 9.5469 Q137.2617 9.3438 136.8555 9.25 Q136.4492 9.1562 135.9961 9.1562 Q135.3398 9.1562 135.0039 9.3594 Q134.668 9.5625 134.668 9.9688 Q134.668 10.2812 134.9023 10.4609 Q135.1367 10.6406 135.8711 10.7969 L136.168 10.875 Q137.1367 11.0781 137.5352 11.4531 Q137.9336 11.8281 137.9336 12.4844 Q137.9336 13.25 137.332 13.6953 Q136.7305 14.1406 135.6836 14.1406 Q135.2305 14.1406 134.7539 14.0547 Q134.2773 13.9688 133.7617 13.7969 L133.7617 12.875 Q134.2617 13.125 134.7383 13.2578 Q135.2148 13.3906 135.6992 13.3906 Q136.3242 13.3906 136.668 13.1719 Q137.0117 12.9531 137.0117 12.5625 Q137.0117 12.1875 136.7695 11.9922 Q136.5273 11.7969 135.6836 11.625 L135.3711 11.5469 Q134.543 11.375 134.168 11.0078 Q133.793 10.6406 133.793 10.0156 Q133.793 9.2344 134.3398 8.8203 Q134.8867 8.4062 135.9023 8.4062 Q136.3867 8.4062 136.832 8.4766 Q137.2773 8.5469 137.6367 8.6875 ZM142.1436 6.4062 L142.1436 7.1562 L141.2842 7.1562 Q140.7998 7.1562 140.6123 7.3516 Q140.4248 7.5469 140.4248 8.0469 L140.4248 8.5312 L141.8936 8.5312 L141.8936 9.2344 L140.4248 9.2344 L140.4248 14 L139.5186 14 L139.5186 9.2344 L138.6592 9.2344 L138.6592 8.5312 L139.5186 8.5312 L139.5186 8.1562 Q139.5186 7.2344 139.9404 6.8203 Q140.3623 6.4062 141.2842 6.4062 L142.1436 6.4062 ZM145.0078 9.1562 Q144.2891 9.1562 143.8672 9.7188 Q143.4453 10.2812 143.4453 11.2656 Q143.4453 12.25 143.8594 12.8125 Q144.2734 13.375 145.0078 13.375 Q145.7266 13.375 146.1484 12.8125 Q146.5703 12.25 146.5703 11.2656 Q146.5703 10.2969 146.1484 9.7266 Q145.7266 9.1562 145.0078 9.1562 ZM145.0078 8.4062 Q146.1797 8.4062 146.8516 9.1641 Q147.5234 9.9219 147.5234 11.2656 Q147.5234 12.6094 146.8516 13.375 Q146.1797 14.1406 145.0078 14.1406 Q143.8359 14.1406 143.1641 13.375 Q142.4922 12.6094 142.4922 11.2656 Q142.4922 9.9219 143.1641 9.1641 Q143.8359 8.4062 145.0078 8.4062 ZM152.1729 9.375 Q152.0166 9.2812 151.8447 9.2422 Q151.6729 9.2031 151.4541 9.2031 Q150.6885 9.2031 150.2822 9.6953 Q149.876 10.1875 149.876 11.125 L149.876 14 L148.9697 14 L148.9697 8.5312 L149.876 8.5312 L149.876 9.375 Q150.1572 8.875 150.6104 8.6406 Q151.0635 8.4062 151.7197 8.4062 Q151.8135 8.4062 151.9229 8.4141 Q152.0322 8.4219 152.1729 8.4531 L152.1729 9.375 ZM157.3779 9.5781 Q157.7061 8.9688 158.1748 8.6875 Q158.6436 8.4062 159.2842 8.4062 Q160.1436 8.4062 160.6045 9 Q161.0654 9.5938 161.0654 10.7031 L161.0654 14 L160.1592 14 L160.1592 10.7344 Q160.1592 9.9375 159.8857 9.5625 Q159.6123 9.1875 159.0342 9.1875 Q158.3311 9.1875 157.9326 9.6484 Q157.5342 10.1094 157.5342 10.9062 L157.5342 14 L156.6279 14 L156.6279 10.7344 Q156.6279 9.9375 156.3467 9.5625 Q156.0654 9.1875 155.4873 9.1875 Q154.7998 9.1875 154.3936 9.6484 Q153.9873 10.1094 153.9873 10.9062 L153.9873 14 L153.0811 14 L153.0811 8.5312 L153.9873 8.5312 L153.9873 9.375 Q154.2998 8.875 154.7295 8.6406 Q155.1592 8.4062 155.7373 8.4062 Q156.3467 8.4062 156.7607 8.7031 Q157.1748 9 157.3779 9.5781 ZM165.3379 11.25 Q164.2598 11.25 163.8379 11.5 Q163.416 11.75 163.416 12.3438 Q163.416 12.8281 163.7285 13.1094 Q164.041 13.3906 164.5879 13.3906 Q165.3379 13.3906 165.791 12.8594 Q166.2441 12.3281 166.2441 11.4531 L166.2441 11.25 L165.3379 11.25 ZM167.1348 10.875 L167.1348 14 L166.2441 14 L166.2441 13.1719 Q165.9316 13.6719 165.4707 13.9062 Q165.0098 14.1406 164.3535 14.1406 Q163.5098 14.1406 163.0098 13.6719 Q162.5098 13.2031 162.5098 12.4062 Q162.5098 11.4844 163.1348 11.0156 Q163.7598 10.5469 164.9785 10.5469 L166.2441 10.5469 L166.2441 10.4531 Q166.2441 9.8438 165.8301 9.5 Q165.416 9.1562 164.6816 9.1562 Q164.2129 9.1562 163.7676 9.2734 Q163.3223 9.3906 162.916 9.6094 L162.916 8.7812 Q163.416 8.5938 163.877 8.5 Q164.3379 8.4062 164.7754 8.4062 Q165.9629 8.4062 166.5488 9.0156 Q167.1348 9.625 167.1348 10.875 ZM169.8721 6.9844 L169.8721 8.5312 L171.7314 8.5312 L171.7314 9.2344 L169.8721 9.2344 L169.8721 12.2031 Q169.8721 12.8594 170.0596 13.0547 Q170.2471 13.25 170.8096 13.25 L171.7314 13.25 L171.7314 14 L170.8096 14 Q169.7627 14 169.3643 13.6094 Q168.9658 13.2188 168.9658 12.2031 L168.9658 9.2344 L168.3096 9.2344 L168.3096 8.5312 L168.9658 8.5312 L168.9658 6.9844 L169.8721 6.9844 ZM172.9023 8.5312 L173.8086 8.5312 L173.8086 14 L172.9023 14 L172.9023 8.5312 ZM172.9023 6.4062 L173.8086 6.4062 L173.8086 7.5469 L172.9023 7.5469 L172.9023 6.4062 ZM177.8057 9.1562 Q177.0869 9.1562 176.665 9.7188 Q176.2432 10.2812 176.2432 11.2656 Q176.2432 12.25 176.6572 12.8125 Q177.0713 13.375 177.8057 13.375 Q178.5244 13.375 178.9463 12.8125 Q179.3682 12.25 179.3682 11.2656 Q179.3682 10.2969 178.9463 9.7266 Q178.5244 9.1562 177.8057 9.1562 ZM177.8057 8.4062 Q178.9775 8.4062 179.6494 9.1641 Q180.3213 9.9219 180.3213 11.2656 Q180.3213 12.6094 179.6494 13.375 Q178.9775 14.1406 177.8057 14.1406 Q176.6338 14.1406 175.9619 13.375 Q175.29 12.6094 175.29 11.2656 Q175.29 9.9219 175.9619 9.1641 Q176.6338 8.4062 177.8057 8.4062 ZM186.3457 10.7031 L186.3457 14 L185.4551 14 L185.4551 10.7344 Q185.4551 9.9531 185.1504 9.5703 Q184.8457 9.1875 184.2363 9.1875 Q183.5176 9.1875 183.0957 9.6484 Q182.6738 10.1094 182.6738 10.9062 L182.6738 14 L181.7676 14 L181.7676 8.5312 L182.6738 8.5312 L182.6738 9.375 Q183.002 8.8906 183.4395 8.6484 Q183.877 8.4062 184.4395 8.4062 Q185.377 8.4062 185.8613 8.9844 Q186.3457 9.5625 186.3457 10.7031 ZM193.7998 11.25 Q192.7217 11.25 192.2998 11.5 Q191.8779 11.75 191.8779 12.3438 Q191.8779 12.8281 192.1904 13.1094 Q192.5029 13.3906 193.0498 13.3906 Q193.7998 13.3906 194.2529 12.8594 Q194.7061 12.3281 194.7061 11.4531 L194.7061 11.25 L193.7998 11.25 ZM195.5967 10.875 L195.5967 14 L194.7061 14 L194.7061 13.1719 Q194.3936 13.6719 193.9326 13.9062 Q193.4717 14.1406 192.8154 14.1406 Q191.9717 14.1406 191.4717 13.6719 Q190.9717 13.2031 190.9717 12.4062 Q190.9717 11.4844 191.5967 11.0156 Q192.2217 10.5469 193.4404 10.5469 L194.7061 10.5469 L194.7061 10.4531 Q194.7061 9.8438 194.292 9.5 Q193.8779 9.1562 193.1436 9.1562 Q192.6748 9.1562 192.2295 9.2734 Q191.7842 9.3906 191.3779 9.6094 L191.3779 8.7812 Q191.8779 8.5938 192.3389 8.5 Q192.7998 8.4062 193.2373 8.4062 Q194.4248 8.4062 195.0107 9.0156 Q195.5967 9.625 195.5967 10.875 ZM201.9902 10.7031 L201.9902 14 L201.0996 14 L201.0996 10.7344 Q201.0996 9.9531 200.7949 9.5703 Q200.4902 9.1875 199.8809 9.1875 Q199.1621 9.1875 198.7402 9.6484 Q198.3184 10.1094 198.3184 10.9062 L198.3184 14 L197.4121 14 L197.4121 8.5312 L198.3184 8.5312 L198.3184 9.375 Q198.6465 8.8906 199.084 8.6484 Q199.5215 8.4062 200.084 8.4062 Q201.0215 8.4062 201.5059 8.9844 Q201.9902 9.5625 201.9902 10.7031 ZM207.3906 9.3594 L207.3906 6.4062 L208.2812 6.4062 L208.2812 14 L207.3906 14 L207.3906 13.1719 Q207.1094 13.6719 206.6719 13.9062 Q206.2344 14.1406 205.625 14.1406 Q204.6406 14.1406 204.0156 13.3516 Q203.3906 12.5625 203.3906 11.2656 Q203.3906 9.9844 204.0156 9.1953 Q204.6406 8.4062 205.625 8.4062 Q206.2344 8.4062 206.6719 8.6406 Q207.1094 8.875 207.3906 9.3594 ZM204.3281 11.2656 Q204.3281 12.2656 204.7344 12.8281 Q205.1406 13.3906 205.8594 13.3906 Q206.5625 13.3906 206.9766 12.8281 Q207.3906 12.2656 207.3906 11.2656 Q207.3906 10.2812 206.9766 9.7188 Q206.5625 9.1562 205.8594 9.1562 Q205.1406 9.1562 204.7344 9.7188 Q204.3281 10.2812 204.3281 11.2656 ZM217.9951 11.0469 L217.9951 11.4844 L213.8545 11.4844 Q213.917 12.4062 214.417 12.8906 Q214.917 13.375 215.8076 13.375 Q216.3232 13.375 216.8154 13.25 Q217.3076 13.125 217.7764 12.875 L217.7764 13.7188 Q217.292 13.9219 216.7842 14.0312 Q216.2764 14.1406 215.7607 14.1406 Q214.4482 14.1406 213.6826 13.3828 Q212.917 12.625 212.917 11.3125 Q212.917 9.9688 213.6436 9.1875 Q214.3701 8.4062 215.6045 8.4062 Q216.7139 8.4062 217.3545 9.1094 Q217.9951 9.8125 217.9951 11.0469 ZM217.0889 10.7812 Q217.0889 10.0469 216.6826 9.6016 Q216.2764 9.1562 215.6201 9.1562 Q214.8545 9.1562 214.4092 9.5859 Q213.9639 10.0156 213.8857 10.7812 L217.0889 10.7812 ZM224.0068 8.5312 L222.0381 11.1875 L224.1162 14 L223.0537 14 L221.46 11.8438 L219.8662 14 L218.8037 14 L220.9287 11.1406 L218.9912 8.5312 L220.0537 8.5312 L221.5068 10.4844 L222.9443 8.5312 L224.0068 8.5312 ZM226.2529 13.1719 L226.2529 16.0781 L225.3467 16.0781 L225.3467 8.5312 L226.2529 8.5312 L226.2529 9.3594 Q226.5342 8.875 226.9639 8.6406 Q227.3936 8.4062 228.0029 8.4062 Q229.0029 8.4062 229.6201 9.1953 Q230.2373 9.9844 230.2373 11.2656 Q230.2373 12.5625 229.6201 13.3516 Q229.0029 14.1406 228.0029 14.1406 Q227.3936 14.1406 226.9639 13.9062 Q226.5342 13.6719 226.2529 13.1719 ZM229.3154 11.2656 Q229.3154 10.2812 228.9014 9.7188 Q228.4873 9.1562 227.7842 9.1562 Q227.0654 9.1562 226.6592 9.7188 Q226.2529 10.2812 226.2529 11.2656 Q226.2529 12.2656 226.6592 12.8281 Q227.0654 13.3906 227.7842 13.3906 Q228.4873 13.3906 228.9014 12.8281 Q229.3154 12.2656 229.3154 11.2656 ZM233.8506 9.1562 Q233.1318 9.1562 232.71 9.7188 Q232.2881 10.2812 232.2881 11.2656 Q232.2881 12.25 232.7021 12.8125 Q233.1162 13.375 233.8506 13.375 Q234.5693 13.375 234.9912 12.8125 Q235.4131 12.25 235.4131 11.2656 Q235.4131 10.2969 234.9912 9.7266 Q234.5693 9.1562 233.8506 9.1562 ZM233.8506 8.4062 Q235.0225 8.4062 235.6943 9.1641 Q236.3662 9.9219 236.3662 11.2656 Q236.3662 12.6094 235.6943 13.375 Q235.0225 14.1406 233.8506 14.1406 Q232.6787 14.1406 232.0068 13.375 Q231.335 12.6094 231.335 11.2656 Q231.335 9.9219 232.0068 9.1641 Q232.6787 8.4062 233.8506 8.4062 ZM241.3281 8.6875 L241.3281 9.5469 Q240.9531 9.3438 240.5469 9.25 Q240.1406 9.1562 239.6875 9.1562 Q239.0312 9.1562 238.6953 9.3594 Q238.3594 9.5625 238.3594 9.9688 Q238.3594 10.2812 238.5938 10.4609 Q238.8281 10.6406 239.5625 10.7969 L239.8594 10.875 Q240.8281 11.0781 241.2266 11.4531 Q241.625 11.8281 241.625 12.4844 Q241.625 13.25 241.0234 13.6953 Q240.4219 14.1406 239.375 14.1406 Q238.9219 14.1406 238.4453 14.0547 Q237.9688 13.9688 237.4531 13.7969 L237.4531 12.875 Q237.9531 13.125 238.4297 13.2578 Q238.9062 13.3906 239.3906 13.3906 Q240.0156 13.3906 240.3594 13.1719 Q240.7031 12.9531 240.7031 12.5625 Q240.7031 12.1875 240.4609 11.9922 Q240.2188 11.7969 239.375 11.625 L239.0625 11.5469 Q238.2344 11.375 237.8594 11.0078 Q237.4844 10.6406 237.4844 10.0156 Q237.4844 9.2344 238.0312 8.8203 Q238.5781 8.4062 239.5938 8.4062 Q240.0781 8.4062 240.5234 8.4766 Q240.9688 8.5469 241.3281 8.6875 ZM242.96 11.8438 L242.96 8.5312 L243.8662 8.5312 L243.8662 11.8125 Q243.8662 12.5781 244.1709 12.9688 Q244.4756 13.3594 245.0693 13.3594 Q245.8037 13.3594 246.2256 12.8984 Q246.6475 12.4375 246.6475 11.625 L246.6475 8.5312 L247.5537 8.5312 L247.5537 14 L246.6475 14 L246.6475 13.1562 Q246.3193 13.6562 245.8896 13.8984 Q245.46 14.1406 244.8818 14.1406 Q243.9443 14.1406 243.4521 13.5547 Q242.96 12.9688 242.96 11.8438 ZM245.2256 8.4062 L245.2256 8.4062 ZM252.5635 9.375 Q252.4072 9.2812 252.2354 9.2422 Q252.0635 9.2031 251.8447 9.2031 Q251.0791 9.2031 250.6729 9.6953 Q250.2666 10.1875 250.2666 11.125 L250.2666 14 L249.3604 14 L249.3604 8.5312 L250.2666 8.5312 L250.2666 9.375 Q250.5479 8.875 251.001 8.6406 Q251.4541 8.4062 252.1104 8.4062 Q252.2041 8.4062 252.3135 8.4141 Q252.4229 8.4219 252.5635 8.4531 L252.5635 9.375 ZM258.1904 11.0469 L258.1904 11.4844 L254.0498 11.4844 Q254.1123 12.4062 254.6123 12.8906 Q255.1123 13.375 256.0029 13.375 Q256.5186 13.375 257.0107 13.25 Q257.5029 13.125 257.9717 12.875 L257.9717 13.7188 Q257.4873 13.9219 256.9795 14.0312 Q256.4717 14.1406 255.9561 14.1406 Q254.6436 14.1406 253.8779 13.3828 Q253.1123 12.625 253.1123 11.3125 Q253.1123 9.9688 253.8389 9.1875 Q254.5654 8.4062 255.7998 8.4062 Q256.9092 8.4062 257.5498 9.1094 Q258.1904 9.8125 258.1904 11.0469 ZM257.2842 10.7812 Q257.2842 10.0469 256.8779 9.6016 Q256.4717 9.1562 255.8154 9.1562 Q255.0498 9.1562 254.6045 9.5859 Q254.1592 10.0156 254.0811 10.7812 L257.2842 10.7812 ZM266.7715 11.2656 Q266.7715 10.2812 266.3574 9.7188 Q265.9434 9.1562 265.2402 9.1562 Q264.5215 9.1562 264.1152 9.7188 Q263.709 10.2812 263.709 11.2656 Q263.709 12.2656 264.1152 12.8281 Q264.5215 13.3906 265.2402 13.3906 Q265.9434 13.3906 266.3574 12.8281 Q266.7715 12.2656 266.7715 11.2656 ZM263.709 9.3594 Q263.9902 8.875 264.4199 8.6406 Q264.8496 8.4062 265.459 8.4062 Q266.459 8.4062 267.0762 9.1953 Q267.6934 9.9844 267.6934 11.2656 Q267.6934 12.5625 267.0762 13.3516 Q266.459 14.1406 265.459 14.1406 Q264.8496 14.1406 264.4199 13.9062 Q263.9902 13.6719 263.709 13.1719 L263.709 14 L262.8027 14 L262.8027 6.4062 L263.709 6.4062 L263.709 9.3594 ZM269.1816 8.5312 L270.0879 8.5312 L270.0879 14 L269.1816 14 L269.1816 8.5312 ZM269.1816 6.4062 L270.0879 6.4062 L270.0879 7.5469 L269.1816 7.5469 L269.1816 6.4062 ZM274.085 9.1562 Q273.3662 9.1562 272.9443 9.7188 Q272.5225 10.2812 272.5225 11.2656 Q272.5225 12.25 272.9365 12.8125 Q273.3506 13.375 274.085 13.375 Q274.8037 13.375 275.2256 12.8125 Q275.6475 12.25 275.6475 11.2656 Q275.6475 10.2969 275.2256 9.7266 Q274.8037 9.1562 274.085 9.1562 ZM274.085 8.4062 Q275.2568 8.4062 275.9287 9.1641 Q276.6006 9.9219 276.6006 11.2656 Q276.6006 12.6094 275.9287 13.375 Q275.2568 14.1406 274.085 14.1406 Q272.9131 14.1406 272.2412 13.375 Q271.5693 12.6094 271.5693 11.2656 Q271.5693 9.9219 272.2412 9.1641 Q272.9131 8.4062 274.085 8.4062 ZM282.3438 9.5781 Q282.6719 8.9688 283.1406 8.6875 Q283.6094 8.4062 284.25 8.4062 Q285.1094 8.4062 285.5703 9 Q286.0312 9.5938 286.0312 10.7031 L286.0312 14 L285.125 14 L285.125 10.7344 Q285.125 9.9375 284.8516 9.5625 Q284.5781 9.1875 284 9.1875 Q283.2969 9.1875 282.8984 9.6484 Q282.5 10.1094 282.5 10.9062 L282.5 14 L281.5938 14 L281.5938 10.7344 Q281.5938 9.9375 281.3125 9.5625 Q281.0312 9.1875 280.4531 9.1875 Q279.7656 9.1875 279.3594 9.6484 Q278.9531 10.1094 278.9531 10.9062 L278.9531 14 L278.0469 14 L278.0469 8.5312 L278.9531 8.5312 L278.9531 9.375 Q279.2656 8.875 279.6953 8.6406 Q280.125 8.4062 280.7031 8.4062 Q281.3125 8.4062 281.7266 8.7031 Q282.1406 9 282.3438 9.5781 ZM290.3037 11.25 Q289.2256 11.25 288.8037 11.5 Q288.3818 11.75 288.3818 12.3438 Q288.3818 12.8281 288.6943 13.1094 Q289.0068 13.3906 289.5537 13.3906 Q290.3037 13.3906 290.7568 12.8594 Q291.21 12.3281 291.21 11.4531 L291.21 11.25 L290.3037 11.25 ZM292.1006 10.875 L292.1006 14 L291.21 14 L291.21 13.1719 Q290.8975 13.6719 290.4365 13.9062 Q289.9756 14.1406 289.3193 14.1406 Q288.4756 14.1406 287.9756 13.6719 Q287.4756 13.2031 287.4756 12.4062 Q287.4756 11.4844 288.1006 11.0156 Q288.7256 10.5469 289.9443 10.5469 L291.21 10.5469 L291.21 10.4531 Q291.21 9.8438 290.7959 9.5 Q290.3818 9.1562 289.6475 9.1562 Q289.1787 9.1562 288.7334 9.2734 Q288.2881 9.3906 287.8818 9.6094 L287.8818 8.7812 Q288.3818 8.5938 288.8428 8.5 Q289.3037 8.4062 289.7412 8.4062 Q290.9287 8.4062 291.5146 9.0156 Q292.1006 9.625 292.1006 10.875 ZM297.1191 9.375 Q296.9629 9.2812 296.791 9.2422 Q296.6191 9.2031 296.4004 9.2031 Q295.6348 9.2031 295.2285 9.6953 Q294.8223 10.1875 294.8223 11.125 L294.8223 14 L293.916 14 L293.916 8.5312 L294.8223 8.5312 L294.8223 9.375 Q295.1035 8.875 295.5566 8.6406 Q296.0098 8.4062 296.666 8.4062 Q296.7598 8.4062 296.8691 8.4141 Q296.9785 8.4219 297.1191 8.4531 L297.1191 9.375 ZM298.0273 6.4062 L298.9336 6.4062 L298.9336 10.8906 L301.6211 8.5312 L302.7617 8.5312 L299.8555 11.0938 L302.8867 14 L301.7148 14 L298.9336 11.3281 L298.9336 14 L298.0273 14 L298.0273 6.4062 ZM308.5371 11.0469 L308.5371 11.4844 L304.3965 11.4844 Q304.459 12.4062 304.959 12.8906 Q305.459 13.375 306.3496 13.375 Q306.8652 13.375 307.3574 13.25 Q307.8496 13.125 308.3184 12.875 L308.3184 13.7188 Q307.834 13.9219 307.3262 14.0312 Q306.8184 14.1406 306.3027 14.1406 Q304.9902 14.1406 304.2246 13.3828 Q303.459 12.625 303.459 11.3125 Q303.459 9.9688 304.1855 9.1875 Q304.9121 8.4062 306.1465 8.4062 Q307.2559 8.4062 307.8965 9.1094 Q308.5371 9.8125 308.5371 11.0469 ZM307.6309 10.7812 Q307.6309 10.0469 307.2246 9.6016 Q306.8184 9.1562 306.1621 9.1562 Q305.3965 9.1562 304.9512 9.5859 Q304.5059 10.0156 304.4277 10.7812 L307.6309 10.7812 ZM313.1738 9.375 Q313.0176 9.2812 312.8457 9.2422 Q312.6738 9.2031 312.4551 9.2031 Q311.6895 9.2031 311.2832 9.6953 Q310.877 10.1875 310.877 11.125 L310.877 14 L309.9707 14 L309.9707 8.5312 L310.877 8.5312 L310.877 9.375 Q311.1582 8.875 311.6113 8.6406 Q312.0645 8.4062 312.7207 8.4062 Q312.8145 8.4062 312.9238 8.4141 Q313.0332 8.4219 313.1738 8.4531 L313.1738 9.375 ZM317.5977 8.6875 L317.5977 9.5469 Q317.2227 9.3438 316.8164 9.25 Q316.4102 9.1562 315.957 9.1562 Q315.3008 9.1562 314.9648 9.3594 Q314.6289 9.5625 314.6289 9.9688 Q314.6289 10.2812 314.8633 10.4609 Q315.0977 10.6406 315.832 10.7969 L316.1289 10.875 Q317.0977 11.0781 317.4961 11.4531 Q317.8945 11.8281 317.8945 12.4844 Q317.8945 13.25 317.293 13.6953 Q316.6914 14.1406 315.6445 14.1406 Q315.1914 14.1406 314.7148 14.0547 Q314.2383 13.9688 313.7227 13.7969 L313.7227 12.875 Q314.2227 13.125 314.6992 13.2578 Q315.1758 13.3906 315.6602 13.3906 Q316.2852 13.3906 316.6289 13.1719 Q316.9727 12.9531 316.9727 12.5625 Q316.9727 12.1875 316.7305 11.9922 Q316.4883 11.7969 315.6445 11.625 L315.332 11.5469 Q314.5039 11.375 314.1289 11.0078 Q313.7539 10.6406 313.7539 10.0156 Q313.7539 9.2344 314.3008 8.8203 Q314.8477 8.4062 315.8633 8.4062 Q316.3477 8.4062 316.793 8.4766 Q317.2383 8.5469 317.5977 8.6875 Z"
         style="clip-path:url(#clipPath2); stroke:none;"
         clip-path="url(#clipPath2)"
         id="path127" />
      <path
         d="M4.25 21.9375 Q3.3906 21.9375 2.9141 22.5703 Q2.4375 23.2031 2.4375 24.3594 Q2.4375 25.5156 2.9141 26.1484 Q3.3906 26.7812 4.25 26.7812 Q5.1094 26.7812 5.5859 26.1484 Q6.0625 25.5156 6.0625 24.3594 Q6.0625 23.2031 5.5859 22.5703 Q5.1094 21.9375 4.25 21.9375 ZM4.25 20.5781 Q6 20.5781 7 21.5859 Q8 22.5938 8 24.3594 Q8 26.125 7 27.1328 Q6 28.1406 4.25 28.1406 Q2.5 28.1406 1.5 27.1328 Q0.5 26.125 0.5 24.3594 Q0.5 22.5938 1.5 21.5859 Q2.5 20.5781 4.25 20.5781 ZM13.4072 24.0156 Q13.1729 23.9062 12.9463 23.8594 Q12.7197 23.8125 12.4854 23.8125 Q11.8135 23.8125 11.4541 24.2422 Q11.0947 24.6719 11.0947 25.4844 L11.0947 28 L9.3447 28 L9.3447 22.5312 L11.0947 22.5312 L11.0947 23.4219 Q11.4229 22.8906 11.8604 22.6484 Q12.2979 22.4062 12.9072 22.4062 Q13.001 22.4062 13.1025 22.4062 Q13.2041 22.4062 13.3916 22.4375 L13.4072 24.0156 ZM17.9951 27.0781 Q17.6357 27.5469 17.1982 27.7734 Q16.7607 28 16.1982 28 Q15.1982 28 14.542 27.2109 Q13.8857 26.4219 13.8857 25.2031 Q13.8857 23.9688 14.542 23.1875 Q15.1982 22.4062 16.1982 22.4062 Q16.7607 22.4062 17.1982 22.6328 Q17.6357 22.8594 17.9951 23.3438 L17.9951 22.5312 L19.7451 22.5312 L19.7451 27.4531 Q19.7451 28.7656 18.917 29.4609 Q18.0889 30.1562 16.5107 30.1562 Q15.9951 30.1562 15.5186 30.0781 Q15.042 30 14.5576 29.8438 L14.5576 28.4844 Q15.0107 28.75 15.4482 28.875 Q15.8857 29 16.3389 29 Q17.1982 29 17.5967 28.625 Q17.9951 28.25 17.9951 27.4531 L17.9951 27.0781 ZM16.8389 23.6719 Q16.292 23.6719 15.9951 24.0703 Q15.6982 24.4688 15.6982 25.2031 Q15.6982 25.9531 15.9873 26.3438 Q16.2764 26.7344 16.8389 26.7344 Q17.3857 26.7344 17.6904 26.3281 Q17.9951 25.9219 17.9951 25.2031 Q17.9951 24.4688 17.6904 24.0703 Q17.3857 23.6719 16.8389 23.6719 ZM23.8877 25.5312 Q23.3408 25.5312 23.0596 25.7188 Q22.7783 25.9062 22.7783 26.2656 Q22.7783 26.6094 23.0049 26.7969 Q23.2314 26.9844 23.6221 26.9844 Q24.1221 26.9844 24.458 26.625 Q24.7939 26.2656 24.7939 25.7344 L24.7939 25.5312 L23.8877 25.5312 ZM26.5596 24.875 L26.5596 28 L24.7939 28 L24.7939 27.1875 Q24.4346 27.6875 23.9971 27.9141 Q23.5596 28.1406 22.9346 28.1406 Q22.0752 28.1406 21.5518 27.6484 Q21.0283 27.1562 21.0283 26.3594 Q21.0283 25.3906 21.6846 24.9453 Q22.3408 24.5 23.7627 24.5 L24.7939 24.5 L24.7939 24.3594 Q24.7939 23.9531 24.4658 23.7578 Q24.1377 23.5625 23.4502 23.5625 Q22.8877 23.5625 22.4033 23.6719 Q21.9189 23.7812 21.4971 24.0156 L21.4971 22.6719 Q22.0596 22.5469 22.6299 22.4766 Q23.2002 22.4062 23.7627 22.4062 Q25.2471 22.4062 25.9033 22.9844 Q26.5596 23.5625 26.5596 24.875 ZM33.6826 24.6719 L33.6826 28 L31.917 28 L31.917 27.4531 L31.917 25.4531 Q31.917 24.75 31.8857 24.4766 Q31.8545 24.2031 31.7764 24.0781 Q31.6826 23.9062 31.5029 23.8125 Q31.3232 23.7188 31.1045 23.7188 Q30.5576 23.7188 30.2451 24.1406 Q29.9326 24.5625 29.9326 25.3125 L29.9326 28 L28.1826 28 L28.1826 22.5312 L29.9326 22.5312 L29.9326 23.3281 Q30.3232 22.8594 30.7686 22.6328 Q31.2139 22.4062 31.7451 22.4062 Q32.6982 22.4062 33.1904 22.9844 Q33.6826 23.5625 33.6826 24.6719 ZM35.3018 22.5312 L37.0518 22.5312 L37.0518 28 L35.3018 28 L35.3018 22.5312 ZM35.3018 20.4062 L37.0518 20.4062 L37.0518 21.8281 L35.3018 21.8281 L35.3018 20.4062 ZM42.9951 22.7031 L42.9951 24.0312 Q42.4326 23.7969 41.9092 23.6797 Q41.3857 23.5625 40.9326 23.5625 Q40.4326 23.5625 40.1904 23.6875 Q39.9482 23.8125 39.9482 24.0625 Q39.9482 24.2812 40.1279 24.3906 Q40.3076 24.5 40.792 24.5625 L41.0889 24.5938 Q42.4326 24.7656 42.9014 25.1562 Q43.3701 25.5469 43.3701 26.3906 Q43.3701 27.2656 42.7217 27.7031 Q42.0732 28.1406 40.792 28.1406 Q40.2607 28.1406 39.6826 28.0547 Q39.1045 27.9688 38.4795 27.7969 L38.4795 26.4688 Q39.0107 26.7188 39.5576 26.8516 Q40.1045 26.9844 40.667 26.9844 Q41.1826 26.9844 41.4404 26.8438 Q41.6982 26.7031 41.6982 26.4219 Q41.6982 26.1875 41.5264 26.0703 Q41.3545 25.9531 40.8232 25.8906 L40.5107 25.8438 Q39.3389 25.7031 38.8701 25.3047 Q38.4014 24.9062 38.4014 24.1094 Q38.4014 23.2344 38.9951 22.8203 Q39.5889 22.4062 40.8232 22.4062 Q41.3076 22.4062 41.8389 22.4766 Q42.3701 22.5469 42.9951 22.7031 ZM49.7441 23.4375 Q50.0723 22.9375 50.5332 22.6719 Q50.9941 22.4062 51.541 22.4062 Q52.4785 22.4062 52.9707 22.9844 Q53.4629 23.5625 53.4629 24.6719 L53.4629 28 L51.7129 28 L51.7129 25.1406 Q51.7129 25.0781 51.7129 25.0156 Q51.7129 24.9531 51.7129 24.8281 Q51.7129 24.2344 51.5488 23.9766 Q51.3848 23.7188 50.9941 23.7188 Q50.4941 23.7188 50.2285 24.125 Q49.9629 24.5312 49.9473 25.3125 L49.9473 28 L48.1816 28 L48.1816 25.1406 Q48.1816 24.2344 48.0254 23.9766 Q47.8691 23.7188 47.4785 23.7188 Q46.9785 23.7188 46.7051 24.1328 Q46.4316 24.5469 46.4316 25.3125 L46.4316 28 L44.666 28 L44.666 22.5312 L46.4316 22.5312 L46.4316 23.3281 Q46.7441 22.875 47.166 22.6406 Q47.5879 22.4062 48.0879 22.4062 Q48.6504 22.4062 49.0879 22.6797 Q49.5254 22.9531 49.7441 23.4375 ZM55.3828 22.5312 L57.1328 22.5312 L57.1328 24.4219 L55.3828 24.4219 L55.3828 22.5312 ZM55.3828 26.1094 L57.1328 26.1094 L57.1328 28 L55.3828 28 L55.3828 26.1094 Z"
         style="clip-path:url(#clipPath2); stroke:none;"
         clip-path="url(#clipPath2)"
         id="path129" />
      <path
         d="M66.9844 20.7031 L67.9688 20.7031 L67.9688 23.7031 L71.5469 23.7031 L71.5469 20.7031 L72.5312 20.7031 L72.5312 28 L71.5469 28 L71.5469 24.5312 L67.9688 24.5312 L67.9688 28 L66.9844 28 L66.9844 20.7031 ZM76.582 23.1562 Q75.8633 23.1562 75.4414 23.7188 Q75.0195 24.2812 75.0195 25.2656 Q75.0195 26.25 75.4336 26.8125 Q75.8477 27.375 76.582 27.375 Q77.3008 27.375 77.7227 26.8125 Q78.1445 26.25 78.1445 25.2656 Q78.1445 24.2969 77.7227 23.7266 Q77.3008 23.1562 76.582 23.1562 ZM76.582 22.4062 Q77.7539 22.4062 78.4258 23.1641 Q79.0977 23.9219 79.0977 25.2656 Q79.0977 26.6094 78.4258 27.375 Q77.7539 28.1406 76.582 28.1406 Q75.4102 28.1406 74.7383 27.375 Q74.0664 26.6094 74.0664 25.2656 Q74.0664 23.9219 74.7383 23.1641 Q75.4102 22.4062 76.582 22.4062 ZM84.8408 23.5781 Q85.1689 22.9688 85.6377 22.6875 Q86.1064 22.4062 86.7471 22.4062 Q87.6064 22.4062 88.0674 23 Q88.5283 23.5938 88.5283 24.7031 L88.5283 28 L87.6221 28 L87.6221 24.7344 Q87.6221 23.9375 87.3486 23.5625 Q87.0752 23.1875 86.4971 23.1875 Q85.7939 23.1875 85.3955 23.6484 Q84.9971 24.1094 84.9971 24.9062 L84.9971 28 L84.0908 28 L84.0908 24.7344 Q84.0908 23.9375 83.8096 23.5625 Q83.5283 23.1875 82.9502 23.1875 Q82.2627 23.1875 81.8564 23.6484 Q81.4502 24.1094 81.4502 24.9062 L81.4502 28 L80.5439 28 L80.5439 22.5312 L81.4502 22.5312 L81.4502 23.375 Q81.7627 22.875 82.1924 22.6406 Q82.6221 22.4062 83.2002 22.4062 Q83.8096 22.4062 84.2236 22.7031 Q84.6377 23 84.8408 23.5781 ZM92.4414 23.1562 Q91.7227 23.1562 91.3008 23.7188 Q90.8789 24.2812 90.8789 25.2656 Q90.8789 26.25 91.293 26.8125 Q91.707 27.375 92.4414 27.375 Q93.1602 27.375 93.582 26.8125 Q94.0039 26.25 94.0039 25.2656 Q94.0039 24.2969 93.582 23.7266 Q93.1602 23.1562 92.4414 23.1562 ZM92.4414 22.4062 Q93.6133 22.4062 94.2852 23.1641 Q94.957 23.9219 94.957 25.2656 Q94.957 26.6094 94.2852 27.375 Q93.6133 28.1406 92.4414 28.1406 Q91.2695 28.1406 90.5977 27.375 Q89.9258 26.6094 89.9258 25.2656 Q89.9258 23.9219 90.5977 23.1641 Q91.2695 22.4062 92.4414 22.4062 ZM103.0977 22.6875 L103.0977 23.5469 Q102.7227 23.3438 102.3164 23.25 Q101.9102 23.1562 101.457 23.1562 Q100.8008 23.1562 100.4648 23.3594 Q100.1289 23.5625 100.1289 23.9688 Q100.1289 24.2812 100.3633 24.4609 Q100.5977 24.6406 101.332 24.7969 L101.6289 24.875 Q102.5977 25.0781 102.9961 25.4531 Q103.3945 25.8281 103.3945 26.4844 Q103.3945 27.25 102.793 27.6953 Q102.1914 28.1406 101.1445 28.1406 Q100.6914 28.1406 100.2148 28.0547 Q99.7383 27.9688 99.2227 27.7969 L99.2227 26.875 Q99.7227 27.125 100.1992 27.2578 Q100.6758 27.3906 101.1602 27.3906 Q101.7852 27.3906 102.1289 27.1719 Q102.4727 26.9531 102.4727 26.5625 Q102.4727 26.1875 102.2305 25.9922 Q101.9883 25.7969 101.1445 25.625 L100.832 25.5469 Q100.0039 25.375 99.6289 25.0078 Q99.2539 24.6406 99.2539 24.0156 Q99.2539 23.2344 99.8008 22.8203 Q100.3477 22.4062 101.3633 22.4062 Q101.8477 22.4062 102.293 22.4766 Q102.7383 22.5469 103.0977 22.6875 ZM107.3076 25.25 Q106.2295 25.25 105.8076 25.5 Q105.3857 25.75 105.3857 26.3438 Q105.3857 26.8281 105.6982 27.1094 Q106.0107 27.3906 106.5576 27.3906 Q107.3076 27.3906 107.7607 26.8594 Q108.2139 26.3281 108.2139 25.4531 L108.2139 25.25 L107.3076 25.25 ZM109.1045 24.875 L109.1045 28 L108.2139 28 L108.2139 27.1719 Q107.9014 27.6719 107.4404 27.9062 Q106.9795 28.1406 106.3232 28.1406 Q105.4795 28.1406 104.9795 27.6719 Q104.4795 27.2031 104.4795 26.4062 Q104.4795 25.4844 105.1045 25.0156 Q105.7295 24.5469 106.9482 24.5469 L108.2139 24.5469 L108.2139 24.4531 Q108.2139 23.8438 107.7998 23.5 Q107.3857 23.1562 106.6514 23.1562 Q106.1826 23.1562 105.7373 23.2734 Q105.292 23.3906 104.8857 23.6094 L104.8857 22.7812 Q105.3857 22.5938 105.8467 22.5 Q106.3076 22.4062 106.7451 22.4062 Q107.9326 22.4062 108.5186 23.0156 Q109.1045 23.625 109.1045 24.875 ZM111.8262 27.1719 L111.8262 30.0781 L110.9199 30.0781 L110.9199 22.5312 L111.8262 22.5312 L111.8262 23.3594 Q112.1074 22.875 112.5371 22.6406 Q112.9668 22.4062 113.5762 22.4062 Q114.5762 22.4062 115.1934 23.1953 Q115.8105 23.9844 115.8105 25.2656 Q115.8105 26.5625 115.1934 27.3516 Q114.5762 28.1406 113.5762 28.1406 Q112.9668 28.1406 112.5371 27.9062 Q112.1074 27.6719 111.8262 27.1719 ZM114.8887 25.2656 Q114.8887 24.2812 114.4746 23.7188 Q114.0605 23.1562 113.3574 23.1562 Q112.6387 23.1562 112.2324 23.7188 Q111.8262 24.2812 111.8262 25.2656 Q111.8262 26.2656 112.2324 26.8281 Q112.6387 27.3906 113.3574 27.3906 Q114.0605 27.3906 114.4746 26.8281 Q114.8887 26.2656 114.8887 25.2656 ZM117.2988 22.5312 L118.2051 22.5312 L118.2051 28 L117.2988 28 L117.2988 22.5312 ZM117.2988 20.4062 L118.2051 20.4062 L118.2051 21.5469 L117.2988 21.5469 L117.2988 20.4062 ZM124.7646 25.0469 L124.7646 25.4844 L120.624 25.4844 Q120.6865 26.4062 121.1865 26.8906 Q121.6865 27.375 122.5771 27.375 Q123.0928 27.375 123.585 27.25 Q124.0771 27.125 124.5459 26.875 L124.5459 27.7188 Q124.0615 27.9219 123.5537 28.0312 Q123.0459 28.1406 122.5303 28.1406 Q121.2178 28.1406 120.4521 27.3828 Q119.6865 26.625 119.6865 25.3125 Q119.6865 23.9688 120.4131 23.1875 Q121.1396 22.4062 122.374 22.4062 Q123.4834 22.4062 124.124 23.1094 Q124.7646 23.8125 124.7646 25.0469 ZM123.8584 24.7812 Q123.8584 24.0469 123.4521 23.6016 Q123.0459 23.1562 122.3896 23.1562 Q121.624 23.1562 121.1787 23.5859 Q120.7334 24.0156 120.6553 24.7812 L123.8584 24.7812 ZM130.7764 24.7031 L130.7764 28 L129.8857 28 L129.8857 24.7344 Q129.8857 23.9531 129.5811 23.5703 Q129.2764 23.1875 128.667 23.1875 Q127.9482 23.1875 127.5264 23.6484 Q127.1045 24.1094 127.1045 24.9062 L127.1045 28 L126.1982 28 L126.1982 22.5312 L127.1045 22.5312 L127.1045 23.375 Q127.4326 22.8906 127.8701 22.6484 Q128.3076 22.4062 128.8701 22.4062 Q129.8076 22.4062 130.292 22.9844 Q130.7764 23.5625 130.7764 24.7031 ZM136.0518 22.6875 L136.0518 23.5469 Q135.6768 23.3438 135.2705 23.25 Q134.8643 23.1562 134.4111 23.1562 Q133.7549 23.1562 133.4189 23.3594 Q133.083 23.5625 133.083 23.9688 Q133.083 24.2812 133.3174 24.4609 Q133.5518 24.6406 134.2861 24.7969 L134.583 24.875 Q135.5518 25.0781 135.9502 25.4531 Q136.3486 25.8281 136.3486 26.4844 Q136.3486 27.25 135.7471 27.6953 Q135.1455 28.1406 134.0986 28.1406 Q133.6455 28.1406 133.1689 28.0547 Q132.6924 27.9688 132.1768 27.7969 L132.1768 26.875 Q132.6768 27.125 133.1533 27.2578 Q133.6299 27.3906 134.1143 27.3906 Q134.7393 27.3906 135.083 27.1719 Q135.4268 26.9531 135.4268 26.5625 Q135.4268 26.1875 135.1846 25.9922 Q134.9424 25.7969 134.0986 25.625 L133.7861 25.5469 Q132.958 25.375 132.583 25.0078 Q132.208 24.6406 132.208 24.0156 Q132.208 23.2344 132.7549 22.8203 Q133.3018 22.4062 134.3174 22.4062 Q134.8018 22.4062 135.2471 22.4766 Q135.6924 22.5469 136.0518 22.6875 Z"
         style="clip-path:url(#clipPath2); stroke:none;"
         clip-path="url(#clipPath2)"
         id="path131" />
    </g>
    <g
       style="fill:navy; text-rendering:geometricPrecision; font-size:8; stroke:navy;"
       id="g137">
      <text
         x="324"
         xml:space="preserve"
         y="16"
         style="clip-path:url(#clipPath4); stroke:none;"
         clip-path="url(#clipPath4)"
         id="text135">1</text>
    </g>
    <g
       style="text-rendering:geometricPrecision;"
       id="g143">
      <path
         d="M376.7647 248.4454 L480.7563 285.2101"
         style="fill:none; clip-path:url(#clipPath5);"
         clip-path="url(#clipPath5)"
         id="path139" />
      <path
         d="M480.7563 285.2101 L471.4586 276.4076 L467.9921 286.2129 Z"
         style="clip-path:url(#clipPath5); fill-rule:evenodd; stroke:none;"
         clip-path="url(#clipPath5)"
         id="path141" />
    </g>
    <g
       style="text-rendering:geometricPrecision;"
       id="g149">
      <path
         d="M271.8907 303.5714 C271.8907 303.5714 285.5509 304.6238 298.2353 308.3071 C298.2353 308.3071 310.9197 311.9904 317.7498 321.9878 C317.7498 321.9878 324.5798 331.9853 324.5145 341.9828 C324.5145 341.9828 324.4491 351.9802 324.3277 355.6635 C324.2064 359.3468 324.0756 360.3992 324.0756 360.3992"
         style="fill:none; clip-path:url(#clipPath6);"
         clip-path="url(#clipPath6)"
         id="path145" />
      <path
         d="M324.0756 360.3992 L330.6782 349.4294 L320.3575 348.1474 Z"
         style="clip-path:url(#clipPath6); fill-rule:evenodd; stroke:none;"
         clip-path="url(#clipPath6)"
         id="path147" />
    </g>
    <g
       style="text-rendering:geometricPrecision;"
       id="g155">
      <path
         d="M126.0504 385.3992 L126.0504 471.7437"
         style="fill:none; clip-path:url(#clipPath7);"
         clip-path="url(#clipPath7)"
         id="path151" />
      <path
         d="M126.0504 471.7437 L131.2504 460.0437 L120.8504 460.0437 Z"
         style="clip-path:url(#clipPath7); fill-rule:evenodd; stroke:none;"
         clip-path="url(#clipPath7)"
         id="path153" />
    </g>
    <g
       style="text-rendering:geometricPrecision;"
       id="g161">
      <path
         d="M324.0756 260.9454 L324.0756 360.3992"
         style="fill:none; clip-path:url(#clipPath8);"
         clip-path="url(#clipPath8)"
         id="path157" />
      <path
         d="M324.0756 360.3992 L329.2756 348.6992 L318.8756 348.6992 Z"
         style="clip-path:url(#clipPath8); fill-rule:evenodd; stroke:none;"
         clip-path="url(#clipPath8)"
         id="path159" />
    </g>
    <g
       style="text-rendering:geometricPrecision;"
       id="g167">
      <path
         d="M126.0504 261.4496 L126.0504 360.3992"
         style="fill:none; clip-path:url(#clipPath9);"
         clip-path="url(#clipPath9)"
         id="path163" />
      <path
         d="M126.0504 360.3992 L131.2504 348.6992 L120.8504 348.6992 Z"
         style="clip-path:url(#clipPath9); fill-rule:evenodd; stroke:none;"
         clip-path="url(#clipPath9)"
         id="path165" />
    </g>
    <g
       style="text-rendering:geometricPrecision;"
       id="g173">
      <path
         d="M376.7647 248.4454 L480.7563 220.5882"
         style="fill:none; clip-path:url(#clipPath10);"
         clip-path="url(#clipPath10)"
         id="path169" />
      <path
         d="M480.7563 220.5882 L468.1093 218.5928 L470.8003 228.6386 Z"
         style="clip-path:url(#clipPath10); fill-rule:evenodd; stroke:none;"
         clip-path="url(#clipPath10)"
         id="path171" />
    </g>
    <g
       style="text-rendering:geometricPrecision;"
       id="g179">
      <path
         d="M179.7899 147.0588 C179.7899 147.0588 165.8575 146.2204 152.9202 143.2861 C152.9202 143.2861 139.9829 140.3517 133.0166 132.387 C133.0166 132.387 126.0504 124.4223 126.0504 116.4576 C126.0504 116.4576 126.0504 108.4928 126.0504 105.5585 C126.0504 102.6241 126.0504 101.7857 126.0504 101.7857"
         style="fill:none; clip-path:url(#clipPath11);"
         clip-path="url(#clipPath11)"
         id="path175" />
      <path
         d="M126.0504 101.7857 L120.8504 113.4857 L131.2504 113.4857 Z"
         style="clip-path:url(#clipPath11); fill-rule:evenodd; stroke:none;"
         clip-path="url(#clipPath11)"
         id="path177" />
    </g>
    <g
       style="text-rendering:geometricPrecision;"
       id="g185">
      <path
         d="M324.0756 385.3992 L324.0756 471.7437"
         style="fill:none; clip-path:url(#clipPath12);"
         clip-path="url(#clipPath12)"
         id="path181" />
      <path
         d="M324.0756 471.7437 L329.2756 460.0437 L318.8756 460.0437 Z"
         style="clip-path:url(#clipPath12); fill-rule:evenodd; stroke:none;"
         clip-path="url(#clipPath12)"
         id="path183" />
    </g>
    <g
       style="text-rendering:geometricPrecision;"
       id="g193">
      <path
         d="M216.1366 219.1828 L215.9127 238.7486"
         style="fill:none; clip-path:url(#clipPath13);"
         clip-path="url(#clipPath13)"
         id="path187" />
      <path
         d="M215.7937 249.1479 C212.9221 249.115 210.6207 246.7604 210.6536 243.8887 C210.6864 241.017 213.041 238.7157 215.9127 238.7486 C218.7844 238.7814 221.0857 241.136 221.0529 244.0077 C221.02 246.8794 218.6654 249.1807 215.7937 249.1479 Z"
         style="fill:white; clip-path:url(#clipPath13); stroke:none;"
         clip-path="url(#clipPath13)"
         id="path189" />
      <path
         d="M215.7937 249.1479 C212.9221 249.115 210.6207 246.7604 210.6536 243.8887 C210.6864 241.017 213.041 238.7157 215.9127 238.7486 C218.7844 238.7814 221.0857 241.136 221.0529 244.0077 C221.02 246.8794 218.6654 249.1807 215.7937 249.1479 Z"
         style="fill:none; clip-path:url(#clipPath13);"
         clip-path="url(#clipPath13)"
         id="path191" />
    </g>
    <g
       style="text-rendering:geometricPrecision;"
       id="g199">
      <path
         d="M324.0756 235.9454 L324.0756 101.7857"
         style="fill:none; clip-path:url(#clipPath14);"
         clip-path="url(#clipPath14)"
         id="path195" />
      <path
         d="M324.0756 101.7857 L318.8756 113.4857 L329.2756 113.4857 Z"
         style="clip-path:url(#clipPath14); fill-rule:evenodd; stroke:none;"
         clip-path="url(#clipPath14)"
         id="path197" />
    </g>
    <g
       style="text-rendering:geometricPrecision;"
       id="g205">
      <path
         d="M178.7395 248.9496 L271.3866 248.4454"
         style="fill:none; clip-path:url(#clipPath15);"
         clip-path="url(#clipPath15)"
         id="path201" />
      <path
         d="M271.3866 248.4454 L259.6584 243.3091 L259.715 253.709 Z"
         style="clip-path:url(#clipPath15); fill-rule:evenodd; stroke:none;"
         clip-path="url(#clipPath15)"
         id="path203" />
    </g>
    <g
       style="text-rendering:geometricPrecision;"
       id="g211">
      <path
         d="M126.0504 236.4496 L126.0504 101.7857"
         style="fill:none; clip-path:url(#clipPath16);"
         clip-path="url(#clipPath16)"
         id="path207" />
      <path
         d="M126.0504 101.7857 L120.8504 113.4857 L131.2504 113.4857 Z"
         style="clip-path:url(#clipPath16); fill-rule:evenodd; stroke:none;"
         clip-path="url(#clipPath16)"
         id="path209" />
    </g>
    <g
       style="text-rendering:geometricPrecision;"
       id="g217">
      <path
         d="M181.8908 303.5714 C181.8908 303.5714 167.4136 304.6238 153.9706 308.3071 C153.9706 308.3071 140.5275 311.9904 133.289 321.9878 C133.289 321.9878 126.0504 331.9853 126.0504 341.9828 C126.0504 341.9828 126.0504 351.9802 126.0504 355.6635 C126.0504 359.3468 126.0504 360.3992 126.0504 360.3992"
         style="fill:none; clip-path:url(#clipPath17);"
         clip-path="url(#clipPath17)"
         id="path213" />
      <path
         d="M126.0504 360.3992 L131.2504 348.6992 L120.8504 348.6992 Z"
         style="clip-path:url(#clipPath17); fill-rule:evenodd; stroke:none;"
         clip-path="url(#clipPath17)"
         id="path215" />
    </g>
    <g
       style="fill:silver; text-rendering:geometricPrecision; stroke:silver;"
       id="g221">
      <path
         d="M57.6218 190.2227 L57.6218 190.2227 L57.6218 190.2227 L59.1218 190.2227 L59.1218 191.7227 L59.1218 396.5126 L59.1218 398.0126 L57.6218 398.0126 L54.6218 398.0126 L54.6218 396.5126 L54.6218 395.0126 L57.6218 395.0126 L59.1218 395.0126 L59.1218 396.5126 C59.1218 399.5504 61.5843 402.0126 64.6218 402.0126 L66.1218 402.0126 L66.1218 403.5126 L66.1218 406.5126 L64.6218 406.5126 L63.1218 406.5126 L63.1218 403.5126 L63.1218 402.0126 L64.6218 402.0126 L387.0588 402.0126 L388.5588 402.0126 L388.5588 403.5126 L388.5588 406.5126 L387.0588 406.5126 L385.5588 406.5126 L385.5588 403.5126 L385.5588 402.0126 L387.0588 402.0126 C390.0963 402.0126 392.5588 399.5503 392.5588 396.5126 L392.5588 395.0126 L394.0588 395.0126 L397.0588 395.0126 L397.0588 396.5126 L397.0588 398.0126 L394.0588 398.0126 L392.5588 398.0126 L392.5588 396.5126 L392.5588 191.7227 L392.5588 190.2227 L394.0588 190.2227 L397.0588 190.2227 L397.0588 191.7227 L397.0588 193.2227 L394.0588 193.2227 L392.5588 193.2227 L392.5588 191.7227 C392.5588 188.6851 390.0963 186.2227 387.0588 186.2227 L385.5588 186.2227 L385.5588 184.7227 L385.5588 181.7227 L387.0588 181.7227 L388.5588 181.7227 L388.5588 184.7227 L388.5588 186.2227 L387.0588 186.2227 L64.6218 186.2227 L63.1219 186.2227 L63.1218 184.7227 L63.1218 181.7227 L64.6218 181.7227 L66.1218 181.7227 L66.1218 184.7227 L66.1218 186.2227 L64.6218 186.2227 C61.5843 186.2227 59.1218 188.6851 59.1218 191.7227 L59.1218 193.2227 L57.6218 193.2227 L54.6218 193.2227 L54.6218 191.7227 L54.6218 190.2227 L57.6218 190.2227 L59.1218 190.2227 L59.1218 193.2227 L57.6218 193.2227 L54.6218 193.2227 L54.6218 190.2227 L57.6218 190.2227 L57.6218 191.7227 L56.1218 191.7227 C56.1218 187.0282 59.9275 183.2227 64.6218 183.2227 L64.6218 184.7227 L63.1218 184.7227 L63.1218 181.7227 L66.1218 181.7227 L66.1218 184.7227 L64.6218 184.7227 L64.6218 183.2227 L387.0588 183.2227 L387.0588 184.7227 L385.5588 184.7227 L385.5588 181.7227 L388.5588 181.7227 L388.5588 184.7227 L387.0588 184.7227 L387.0588 183.2227 C391.7532 183.2227 395.5588 187.0282 395.5588 191.7227 L394.0588 191.7227 L394.0588 190.2227 L397.0588 190.2227 L397.0588 193.2227 L394.0588 193.2227 L394.0588 191.7227 L395.5588 191.7227 L395.5588 396.5126 L394.0588 396.5126 L394.0588 395.0126 L397.0588 395.0126 L397.0588 398.0126 L394.0588 398.0126 L394.0588 396.5126 L395.5588 396.5126 C395.5588 401.2072 391.7532 405.0126 387.0588 405.0126 L387.0588 403.5126 L388.5588 403.5126 L388.5588 406.5126 L385.5588 406.5126 L385.5588 403.5126 L387.0588 403.5126 L387.0588 405.0126 L64.6218 405.0126 L64.6218 403.5126 L66.1218 403.5126 L66.1218 406.5126 L63.1218 406.5126 L63.1218 403.5126 L64.6218 403.5126 L64.6218 405.0126 C59.9275 405.0126 56.1218 401.2073 56.1218 396.5126 L57.6218 396.5126 L57.6218 398.0126 L54.6218 398.0126 L54.6218 395.0126 L57.6218 395.0126 L57.6218 396.5126 L56.1218 396.5126 L56.1218 191.7227 L57.6218 191.7227 L57.6218 193.2227 L57.6218 193.2227 L56.1218 193.2227 L56.1218 190.2227 ZM51.6218 190.2227 L51.6218 190.2227 L51.6218 190.2227 L51.6218 191.7227 L50.1218 191.7227 C50.1218 183.7145 56.6137 177.2227 64.6218 177.2227 L64.6218 178.7227 L64.6218 177.2227 L64.6218 177.2227 L64.6218 178.7227 L64.6218 177.2227 L387.0588 177.2227 L387.0588 178.7227 L387.0588 177.2227 L387.0588 177.2227 L387.0588 178.7227 L387.0588 177.2227 C395.067 177.2227 401.5588 183.7145 401.5588 191.7227 L400.0588 191.7227 L400.0588 190.2227 L400.0588 190.2227 L401.5588 190.2227 L401.5588 191.7227 L401.5588 396.5126 L400.0588 396.5126 L400.0588 395.0126 L400.0588 395.0126 L401.5588 395.0126 L401.5588 396.5126 C401.5588 404.5208 395.067 411.0126 387.0588 411.0126 L387.0588 409.5126 L387.0588 408.0126 L387.0588 408.0126 L387.0588 409.5126 L387.0588 411.0126 L64.6218 411.0126 L64.6218 409.5126 L64.6218 408.0126 L64.6218 408.0126 L64.6218 409.5126 L64.6218 411.0126 C56.6138 411.0126 50.1218 404.521 50.1218 396.5126 L50.1218 395.0126 L51.6218 395.0126 L51.6218 395.0126 L51.6218 396.5126 L50.1218 396.5126 L50.1218 191.7227 L50.1218 190.2227 L51.6218 190.2227 M51.6218 193.2227 L51.6218 191.7227 L53.1218 191.7227 L53.1218 396.5126 L53.1218 398.0126 L51.6218 398.0126 L51.6218 398.0126 L51.6218 396.5126 L53.1218 396.5126 C53.1218 402.8641 58.2706 408.0126 64.6218 408.0126 L64.6218 411.0126 L64.6218 411.0126 L64.6218 408.0126 L387.0588 408.0126 L387.0588 411.0126 L387.0588 411.0126 L387.0588 408.0126 C393.4102 408.0126 398.5588 402.8639 398.5588 396.5126 L400.0588 396.5126 L400.0588 398.0126 L400.0588 398.0126 L398.5588 398.0126 L398.5588 396.5126 L398.5588 191.7227 L400.0588 191.7227 L400.0588 193.2227 L400.0588 193.2227 L398.5588 193.2227 L398.5588 191.7227 C398.5588 185.3713 393.4102 180.2227 387.0588 180.2227 L387.0588 180.2227 L387.0588 180.2227 L387.0588 180.2227 L64.6218 180.2227 L64.6218 180.2227 L64.6218 180.2227 L64.6218 180.2227 C58.2706 180.2227 53.1218 185.3713 53.1218 191.7227 L53.1218 193.2227 L51.6218 193.2227 L51.6218 193.2227 Z"
         style="clip-path:url(#clipPath18); stroke:none;"
         clip-path="url(#clipPath18)"
         id="path219" />
    </g>
    <g
       style="fill:silver; text-rendering:geometricPrecision; stroke:silver;"
       id="g225">
      <path
         d="M58.6723 441.2731 L58.6723 441.2731 L58.6723 441.2731 L60.1723 441.2731 L60.1723 442.7731 L60.1723 537.2689 L60.1723 538.7689 L58.6723 538.7689 L55.6723 538.7689 L55.6723 537.2689 L55.6723 535.7689 L58.6723 535.7689 L60.1723 535.7689 L60.1723 537.2689 C60.1723 540.3065 62.6347 542.7689 65.6723 542.7689 L67.1723 542.7689 L67.1723 544.2689 L67.1723 547.2689 L65.6723 547.2689 L64.1723 547.2689 L64.1723 544.2689 L64.1723 542.7689 L65.6723 542.7689 L383.9076 542.7689 L385.4076 542.7689 L385.4076 544.2689 L385.4076 547.2689 L383.9076 547.2689 L382.4076 547.2689 L382.4076 544.2689 L382.4076 542.7689 L383.9076 542.7689 C386.945 542.7689 389.4076 540.3065 389.4076 537.2689 L389.4076 535.7689 L390.9076 535.7689 L393.9076 535.7689 L393.9076 537.2689 L393.9076 538.7689 L390.9076 538.7689 L389.4076 538.7689 L389.4076 537.2689 L389.4076 442.7731 L389.4076 441.2731 L390.9076 441.2731 L393.9076 441.2731 L393.9076 442.7731 L393.9076 444.2731 L390.9076 444.2731 L389.4076 444.2731 L389.4076 442.7731 C389.4076 439.7357 386.945 437.2731 383.9076 437.2731 L382.4076 437.2731 L382.4076 435.7731 L382.4076 432.7731 L383.9076 432.7731 L385.4076 432.7731 L385.4076 435.7731 L385.4076 437.2731 L383.9076 437.2731 L65.6723 437.2731 L64.1723 437.2731 L64.1723 435.7731 L64.1723 432.7731 L65.6723 432.7731 L67.1723 432.7731 L67.1723 435.7731 L67.1723 437.2731 L65.6723 437.2731 C62.6347 437.2731 60.1723 439.7357 60.1723 442.7731 L60.1723 444.2731 L58.6723 444.2731 L55.6723 444.2731 L55.6723 442.7731 L55.6723 441.2731 L58.6723 441.2731 L60.1723 441.2731 L60.1723 444.2731 L58.6723 444.2731 L55.6723 444.2731 L55.6723 441.2731 L58.6723 441.2731 L58.6723 442.7731 L57.1723 442.7731 C57.1723 438.0789 60.9778 434.2731 65.6723 434.2731 L65.6723 435.7731 L64.1723 435.7731 L64.1723 432.7731 L67.1723 432.7731 L67.1723 435.7731 L65.6723 435.7731 L65.6723 434.2731 L383.9076 434.2731 L383.9076 435.7731 L382.4076 435.7731 L382.4076 432.7731 L385.4076 432.7731 L385.4076 435.7731 L383.9076 435.7731 L383.9076 434.2731 C388.6018 434.2731 392.4076 438.0789 392.4076 442.7731 L390.9076 442.7731 L390.9076 441.2731 L393.9076 441.2731 L393.9076 444.2731 L390.9076 444.2731 L390.9076 442.7731 L392.4076 442.7731 L392.4076 537.2689 L390.9076 537.2689 L390.9076 535.7689 L393.9076 535.7689 L393.9076 538.7689 L390.9076 538.7689 L390.9076 537.2689 L392.4076 537.2689 C392.4076 541.9634 388.6018 545.7689 383.9076 545.7689 L383.9076 544.2689 L385.4076 544.2689 L385.4076 547.2689 L382.4076 547.2689 L382.4076 544.2689 L383.9076 544.2689 L383.9076 545.7689 L65.6723 545.7689 L65.6723 544.2689 L67.1723 544.2689 L67.1723 547.2689 L64.1723 547.2689 L64.1723 544.2689 L65.6723 544.2689 L65.6723 545.7689 C60.9779 545.7689 57.1723 541.9634 57.1723 537.2689 L58.6723 537.2689 L58.6723 538.7689 L55.6723 538.7689 L55.6723 535.7689 L58.6723 535.7689 L58.6723 537.2689 L57.1723 537.2689 L57.1723 442.7731 L58.6723 442.7731 L58.6723 444.2731 L58.6723 444.2731 L57.1723 444.2731 L57.1723 441.2731 ZM52.6723 441.2731 L52.6723 441.2731 L52.6723 441.2731 L52.6723 442.7731 L51.1723 442.7731 C51.1723 434.765 57.6641 428.2731 65.6723 428.2731 L65.6723 429.7731 L65.6723 428.2731 L65.6723 428.2731 L65.6723 429.7731 L65.6723 428.2731 L383.9076 428.2731 L383.9076 429.7731 L383.9076 428.2731 L383.9076 428.2731 L383.9076 429.7731 L383.9076 428.2731 C391.9156 428.2731 398.4076 434.765 398.4076 442.7731 L396.9076 442.7731 L396.9076 441.2731 L396.9076 441.2731 L398.4076 441.2731 L398.4076 442.7731 L398.4076 537.2689 L396.9076 537.2689 L396.9076 535.7689 L396.9076 535.7689 L398.4076 535.7689 L398.4076 537.2689 C398.4076 545.277 391.9156 551.7689 383.9076 551.7689 L383.9076 550.2689 L383.9076 548.7689 L383.9076 548.7689 L383.9076 550.2689 L383.9076 551.7689 L65.6723 551.7689 L65.6723 550.2689 L65.6723 548.7689 L65.6723 548.7689 L65.6723 550.2689 L65.6723 551.7689 C57.6641 551.7689 51.1723 545.277 51.1723 537.2689 L51.1723 535.7689 L52.6723 535.7689 L52.6723 535.7689 L52.6723 537.2689 L51.1723 537.2689 L51.1723 442.7731 L51.1723 441.2731 L52.6723 441.2731 M52.6723 444.2731 L52.6723 442.7731 L54.1723 442.7731 L54.1723 537.2689 L54.1723 538.7689 L52.6723 538.7689 L52.6723 538.7689 L52.6723 537.2689 L54.1723 537.2689 C54.1723 543.6202 59.321 548.7689 65.6723 548.7689 L65.6723 551.7689 L65.6723 551.7689 L65.6723 548.7689 L383.9076 548.7689 L383.9076 551.7689 L383.9076 551.7689 L383.9076 548.7689 C390.2588 548.7689 395.4076 543.6202 395.4076 537.2689 L396.9076 537.2689 L396.9076 538.7689 L396.9076 538.7689 L395.4076 538.7689 L395.4076 537.2689 L395.4076 442.7731 L396.9076 442.7731 L396.9076 444.2731 L396.9076 444.2731 L395.4076 444.2731 L395.4076 442.7731 C395.4076 436.4219 390.2588 431.2731 383.9076 431.2731 L383.9076 431.2731 L383.9076 431.2731 L383.9076 431.2731 L65.6723 431.2731 L65.6723 431.2731 L65.6723 431.2731 L65.6723 431.2731 C59.321 431.2731 54.1723 436.4219 54.1723 442.7731 L54.1723 444.2731 L52.6723 444.2731 L52.6723 444.2731 Z"
         style="clip-path:url(#clipPath19); stroke:none;"
         clip-path="url(#clipPath19)"
         id="path223" />
    </g>
    <g
       style="text-rendering:geometricPrecision;"
       id="g229">
      <text
         x="426"
         xml:space="preserve"
         y="255"
         style="clip-path:url(#clipPath20); stroke:none;"
         clip-path="url(#clipPath20)"
         id="text227">DNA</text>
    </g>
    <g
       style="fill:rgb(102,102,102); text-rendering:geometricPrecision; font-size:14; font-weight:bold; stroke:rgb(102,102,102);"
       id="g233">
      <text
         x="198"
         xml:space="preserve"
         y="531"
         style="clip-path:url(#clipPath21); stroke:none;"
         clip-path="url(#clipPath21)"
         id="text231">Kidney and Urinary Tract</text>
    </g>
    <g
       style="fill:white; text-rendering:geometricPrecision; stroke:white;"
       id="g241">
      <path
         d="M81.0504 360.3992 L171.0504 360.3992 L171.0504 385.3992 L81.0504 385.3992 L81.0504 360.3992 Z"
         style="clip-path:url(#clipPath22); stroke:none;"
         clip-path="url(#clipPath22)"
         id="path235" />
      <path
         d="M81.0504 360.3992 L171.0504 360.3992 L171.0504 385.3992 L81.0504 385.3992 L81.0504 360.3992 Z"
         style="fill:none; clip-path:url(#clipPath22); stroke:blue;"
         clip-path="url(#clipPath22)"
         id="path237" />
      <text
         x="103"
         y="377"
         style="fill:blue; clip-path:url(#clipPath22); stroke:none;"
         xml:space="preserve"
         clip-path="url(#clipPath22)"
         id="text239">AA-GSH</text>
    </g>
    <g
       style="fill:white; text-rendering:geometricPrecision; stroke:white;"
       id="g249">
      <path
         d="M181.8908 291.0714 L271.8907 291.0714 L271.8907 316.0714 L181.8908 316.0714 L181.8908 291.0714 Z"
         style="clip-path:url(#clipPath23); stroke:none;"
         clip-path="url(#clipPath23)"
         id="path243" />
      <path
         d="M181.8908 291.0714 L271.8907 291.0714 L271.8907 316.0714 L181.8908 316.0714 L181.8908 291.0714 Z"
         style="fill:none; clip-path:url(#clipPath23); stroke:blue;"
         clip-path="url(#clipPath23)"
         id="path245" />
      <text
         x="191"
         y="308"
         style="fill:blue; clip-path:url(#clipPath23); stroke:none;"
         xml:space="preserve"
         clip-path="url(#clipPath23)"
         id="text247">Glutathione</text>
    </g>
    <g
       style="fill:white; text-rendering:geometricPrecision; stroke:white;"
       id="g257">
      <path
         d="M171.1366 194.1828 L261.1366 194.1828 L261.1366 219.1828 L171.1366 219.1828 L171.1366 194.1828 Z"
         style="clip-path:url(#clipPath24); stroke:none;"
         clip-path="url(#clipPath24)"
         id="path251" />
      <path
         d="M171.1366 194.1828 L261.1366 194.1828 L261.1366 219.1828 L171.1366 219.1828 L171.1366 194.1828 Z"
         style="fill:none; clip-path:url(#clipPath24); stroke:black;"
         clip-path="url(#clipPath24)"
         id="path253" />
      <text
         x="194"
         y="211"
         style="fill:black; clip-path:url(#clipPath24); stroke:none;"
         xml:space="preserve"
         clip-path="url(#clipPath24)"
         id="text255">CYP2E1</text>
    </g>
    <g
       style="fill:white; text-rendering:geometricPrecision; stroke:white;"
       id="g265">
      <path
         d="M73.3613 236.4496 L178.7395 236.4496 L178.7395 261.4496 L73.3613 261.4496 L73.3613 236.4496 Z"
         style="clip-path:url(#clipPath25); stroke:none;"
         clip-path="url(#clipPath25)"
         id="path259" />
      <path
         d="M73.3613 236.4496 L178.7395 236.4496 L178.7395 261.4496 L73.3613 261.4496 L73.3613 236.4496 Z"
         style="fill:none; clip-path:url(#clipPath25); stroke:blue;"
         clip-path="url(#clipPath25)"
         id="path261" />
      <text
         x="78"
         y="253"
         style="fill:blue; clip-path:url(#clipPath25); stroke:none;"
         xml:space="preserve"
         clip-path="url(#clipPath25)"
         id="text263">Acrylamide (AA)</text>
    </g>
    <g
       style="fill:white; text-rendering:geometricPrecision; stroke:white;"
       id="g273">
      <path
         d="M480.7563 208.0882 L599.7899 208.0882 L599.7899 233.0882 L480.7563 233.0882 L480.7563 208.0882 Z"
         style="clip-path:url(#clipPath26); stroke:none;"
         clip-path="url(#clipPath26)"
         id="path267" />
      <path
         d="M480.7563 208.0882 L599.7899 208.0882 L599.7899 233.0882 L480.7563 233.0882 L480.7563 208.0882 Z"
         style="fill:none; clip-path:url(#clipPath26); stroke:blue;"
         clip-path="url(#clipPath26)"
         id="path269" />
      <text
         x="494"
         y="225"
         style="fill:blue; clip-path:url(#clipPath26); stroke:none;"
         xml:space="preserve"
         clip-path="url(#clipPath26)"
         id="text271">N7-GA-Guanine</text>
    </g>
    <g
       style="fill:white; text-rendering:geometricPrecision; stroke:white;"
       id="g281">
      <path
         d="M179.7899 134.5588 L269.7899 134.5588 L269.7899 159.5588 L179.7899 159.5588 L179.7899 134.5588 Z"
         style="clip-path:url(#clipPath27); stroke:none;"
         clip-path="url(#clipPath27)"
         id="path275" />
      <path
         d="M179.7899 134.5588 L269.7899 134.5588 L269.7899 159.5588 L179.7899 159.5588 L179.7899 134.5588 Z"
         style="fill:none; clip-path:url(#clipPath27); stroke:blue;"
         clip-path="url(#clipPath27)"
         id="path277" />
      <text
         x="206"
         y="151"
         style="fill:blue; clip-path:url(#clipPath27); stroke:none;"
         xml:space="preserve"
         clip-path="url(#clipPath27)"
         id="text279">Valine</text>
    </g>
    <g
       style="fill:white; text-rendering:geometricPrecision; stroke:white;"
       id="g289">
      <path
         d="M81.0504 471.7437 L171.0504 471.7437 L171.0504 496.7437 L81.0504 496.7437 L81.0504 471.7437 Z"
         style="clip-path:url(#clipPath28); stroke:none;"
         clip-path="url(#clipPath28)"
         id="path283" />
      <path
         d="M81.0504 471.7437 L171.0504 471.7437 L171.0504 496.7437 L81.0504 496.7437 L81.0504 471.7437 Z"
         style="fill:none; clip-path:url(#clipPath28); stroke:blue;"
         clip-path="url(#clipPath28)"
         id="path285" />
      <text
         x="109"
         y="488"
         style="fill:blue; clip-path:url(#clipPath28); stroke:none;"
         xml:space="preserve"
         clip-path="url(#clipPath28)"
         id="text287">AAMA</text>
    </g>
    <g
       style="fill:white; text-rendering:geometricPrecision; stroke:white;"
       id="g297">
      <path
         d="M81.0504 76.7857 L171.0504 76.7857 L171.0504 101.7857 L81.0504 101.7857 L81.0504 76.7857 Z"
         style="clip-path:url(#clipPath29); stroke:none;"
         clip-path="url(#clipPath29)"
         id="path291" />
      <path
         d="M81.0504 76.7857 L171.0504 76.7857 L171.0504 101.7857 L81.0504 101.7857 L81.0504 76.7857 Z"
         style="fill:none; clip-path:url(#clipPath29); stroke:blue;"
         clip-path="url(#clipPath29)"
         id="path293" />
      <text
         x="107"
         y="93"
         style="fill:blue; clip-path:url(#clipPath29); stroke:none;"
         xml:space="preserve"
         clip-path="url(#clipPath29)"
         id="text295">AA-Val</text>
    </g>
    <g
       style="fill:white; text-rendering:geometricPrecision; stroke:white;"
       id="g305">
      <path
         d="M271.3866 235.9454 L376.7647 235.9454 L376.7647 260.9454 L271.3866 260.9454 L271.3866 235.9454 Z"
         style="clip-path:url(#clipPath30); stroke:none;"
         clip-path="url(#clipPath30)"
         id="path299" />
      <path
         d="M271.3866 235.9454 L376.7647 235.9454 L376.7647 260.9454 L271.3866 260.9454 L271.3866 235.9454 Z"
         style="fill:none; clip-path:url(#clipPath30); stroke:blue;"
         clip-path="url(#clipPath30)"
         id="path301" />
      <text
         x="272"
         y="252"
         style="fill:blue; clip-path:url(#clipPath30); stroke:none;"
         xml:space="preserve"
         clip-path="url(#clipPath30)"
         id="text303">Glycidamide (GA)</text>
    </g>
    <g
       style="fill:white; text-rendering:geometricPrecision; stroke:white;"
       id="g313">
      <path
         d="M279.0756 471.7437 L369.0756 471.7437 L369.0756 496.7437 L279.0756 496.7437 L279.0756 471.7437 Z"
         style="clip-path:url(#clipPath31); stroke:none;"
         clip-path="url(#clipPath31)"
         id="path307" />
      <path
         d="M279.0756 471.7437 L369.0756 471.7437 L369.0756 496.7437 L279.0756 496.7437 L279.0756 471.7437 Z"
         style="fill:none; clip-path:url(#clipPath31); stroke:blue;"
         clip-path="url(#clipPath31)"
         id="path309" />
      <text
         x="306"
         y="488"
         style="fill:blue; clip-path:url(#clipPath31); stroke:none;"
         xml:space="preserve"
         clip-path="url(#clipPath31)"
         id="text311">GAMA</text>
    </g>
    <g
       style="fill:white; text-rendering:geometricPrecision; stroke:white;"
       id="g321">
      <path
         d="M279.0756 76.7857 L369.0756 76.7857 L369.0756 101.7857 L279.0756 101.7857 L279.0756 76.7857 Z"
         style="clip-path:url(#clipPath32); stroke:none;"
         clip-path="url(#clipPath32)"
         id="path315" />
      <path
         d="M279.0756 76.7857 L369.0756 76.7857 L369.0756 101.7857 L279.0756 101.7857 L279.0756 76.7857 Z"
         style="fill:none; clip-path:url(#clipPath32); stroke:blue;"
         clip-path="url(#clipPath32)"
         id="path317" />
      <text
         x="304"
         y="93"
         style="fill:blue; clip-path:url(#clipPath32); stroke:none;"
         xml:space="preserve"
         clip-path="url(#clipPath32)"
         id="text319">GA-Val</text>
    </g>
    <g
       style="fill:white; text-rendering:geometricPrecision; stroke:white;"
       id="g329">
      <path
         d="M480.7563 272.7101 L599.7899 272.7101 L599.7899 297.7101 L480.7563 297.7101 L480.7563 272.7101 Z"
         style="clip-path:url(#clipPath33); stroke:none;"
         clip-path="url(#clipPath33)"
         id="path323" />
      <path
         d="M480.7563 272.7101 L599.7899 272.7101 L599.7899 297.7101 L480.7563 297.7101 L480.7563 272.7101 Z"
         style="fill:none; clip-path:url(#clipPath33); stroke:blue;"
         clip-path="url(#clipPath33)"
         id="path325" />
      <text
         x="488"
         y="289"
         style="fill:blue; clip-path:url(#clipPath33); stroke:none;"
         xml:space="preserve"
         clip-path="url(#clipPath33)"
         id="text327">N3-GA-Adenosine</text>
    </g>
    <g
       style="fill:white; text-rendering:geometricPrecision; stroke:white;"
       id="g337">
      <path
         d="M279.0756 360.3992 L369.0756 360.3992 L369.0756 385.3992 L279.0756 385.3992 L279.0756 360.3992 Z"
         style="clip-path:url(#clipPath34); stroke:none;"
         clip-path="url(#clipPath34)"
         id="path331" />
      <path
         d="M279.0756 360.3992 L369.0756 360.3992 L369.0756 385.3992 L279.0756 385.3992 L279.0756 360.3992 Z"
         style="fill:none; clip-path:url(#clipPath34); stroke:blue;"
         clip-path="url(#clipPath34)"
         id="path333" />
      <text
         x="301"
         y="377"
         style="fill:blue; clip-path:url(#clipPath34); stroke:none;"
         xml:space="preserve"
         clip-path="url(#clipPath34)"
         id="text335">GA-GSH</text>
    </g>
    <g
       style="text-rendering:geometricPrecision;"
       id="g343">
      <path
         d="M269.7899 147.0588 C269.7899 147.0588 283.7224 146.2204 296.6597 143.2861 C296.6597 143.2861 309.597 140.3517 316.5632 132.387 C316.5632 132.387 323.5294 124.4223 323.6002 116.4576 C323.6002 116.4576 323.671 108.4928 323.8025 105.5585 C323.934 102.6241 324.0756 101.7857 324.0756 101.7857"
         style="fill:none; clip-path:url(#clipPath35);"
         clip-path="url(#clipPath35)"
         id="path339" />
      <path
         d="M324.0756 101.7857 L316.9996 112.4562 L327.2544 114.1884 Z"
         style="clip-path:url(#clipPath35); fill-rule:evenodd; stroke:none;"
         clip-path="url(#clipPath35)"
         id="path341" />
    </g>
    <g
       style="fill:rgb(102,102,102); text-rendering:geometricPrecision; font-size:14; font-weight:bold; stroke:rgb(102,102,102);"
       id="g347">
      <text
         x="342"
         xml:space="preserve"
         y="202"
         style="clip-path:url(#clipPath36); stroke:none;"
         clip-path="url(#clipPath36)"
         id="text345">Liver</text>
    </g>
    <g
       style="text-rendering:geometricPrecision;"
       id="g351">
      <text
         x="445"
         xml:space="preserve"
         y="193"
         style="clip-path:url(#clipPath37); stroke:none;"
         clip-path="url(#clipPath37)"
         id="text349">Genotoxicity and carcinogenicity</text>
    </g>
    <g
       style="text-rendering:geometricPrecision;"
       id="g355">
      <text
         x="167"
         xml:space="preserve"
         y="469"
         style="clip-path:url(#clipPath38); stroke:none;"
         clip-path="url(#clipPath38)"
         id="text353">Urinary biomarkers</text>
    </g>
    <g
       style="text-rendering:geometricPrecision;"
       id="g359">
      <text
         x="175"
         xml:space="preserve"
         y="73"
         style="clip-path:url(#clipPath39); stroke:none;"
         clip-path="url(#clipPath39)"
         id="text357">Blood biomarkers</text>
    </g>
  </g>
</svg>
