<?xml version="1.0" encoding="UTF-8" standalone="no"?>
<svg
   style="fill-opacity:1; color-rendering:auto; color-interpolation:auto; stroke:black; text-rendering:auto; stroke-linecap:square; stroke-miterlimit:10; stroke-opacity:1; shape-rendering:auto; fill:black; stroke-dasharray:none; font-weight:normal; stroke-width:1; font-family:'Dialog'; font-style:normal; stroke-linejoin:miter; font-size:12; stroke-dashoffset:0; image-rendering:auto;"
   width="813"
   height="606"
   version="1.1"
   id="svg459"
   xmlns="http://www.w3.org/2000/svg"
   xmlns:svg="http://www.w3.org/2000/svg">
  <!--Generated by the Batik Graphics2D SVG Generator-->
  <defs
     id="genericDefs" />
  <g
     id="g457">
    <defs
       id="defs1">
      <clipPath
         clipPathUnits="userSpaceOnUse"
         id="clipPath1">
        <path
           d="M0 0 L829 0 L829 621 L0 621 L0 0 Z"
           id="path3" />
      </clipPath>
      <clipPath
         clipPathUnits="userSpaceOnUse"
         id="clipPath2">
        <path
           d="M0 0 L0 200 L200 200 L200 0 Z"
           id="path6" />
      </clipPath>
      <clipPath
         clipPathUnits="userSpaceOnUse"
         id="clipPath3">
        <path
           d="M159 16 L159 37 L170 37 L170 16 Z"
           id="path9" />
      </clipPath>
      <clipPath
         clipPathUnits="userSpaceOnUse"
         id="clipPath4">
        <path
           d="M158.4551 3.918 L169.5449 3.918 L169.5449 19.2305 L158.4551 19.2305 L158.4551 3.918 Z"
           id="path12" />
      </clipPath>
      <clipPath
         clipPathUnits="userSpaceOnUse"
         id="clipPath5">
        <path
           d="M145.3365 228.7 L145.3365 284.7 L221.3365 284.7 L221.3365 228.7 Z"
           id="path15" />
      </clipPath>
      <clipPath
         clipPathUnits="userSpaceOnUse"
         id="clipPath6">
        <path
           d="M246.8958 329.8667 L246.8958 442.816 L386.7697 442.816 L386.7697 329.8667 Z"
           id="path18" />
      </clipPath>
      <clipPath
         clipPathUnits="userSpaceOnUse"
         id="clipPath7">
        <path
           d="M412.4241 338.6356 L412.4241 573.3684 L424.3627 573.3684 L424.3627 338.6356 Z"
           id="path21" />
      </clipPath>
      <clipPath
         clipPathUnits="userSpaceOnUse"
         id="clipPath8">
        <path
           d="M113.9976 251.0133 L113.9976 262.4133 L145.8367 262.4133 L145.8367 251.0133 Z"
           id="path24" />
      </clipPath>
      <clipPath
         clipPathUnits="userSpaceOnUse"
         id="clipPath9">
        <path
           d="M411.9528 192.4947 L411.9528 246.0977 L423.8909 246.0977 L423.8909 192.4947 Z"
           id="path27" />
      </clipPath>
      <clipPath
         clipPathUnits="userSpaceOnUse"
         id="clipPath10">
        <path
           d="M449.3719 324.3973 L449.3719 336.3361 L668.0515 336.3361 L668.0515 324.3973 Z"
           id="path30" />
      </clipPath>
      <clipPath
         clipPathUnits="userSpaceOnUse"
         id="clipPath11">
        <path
           d="M158.8333 329.8667 L158.8333 330.8667 L253.3651 330.8667 L253.3651 329.8667 Z"
           id="path33" />
      </clipPath>
      <clipPath
         clipPathUnits="userSpaceOnUse"
         id="clipPath12">
        <path
           d="M712.5959 98.8204 L712.5959 321.3672 L724.5347 321.3672 L724.5347 98.8204 Z"
           id="path36" />
      </clipPath>
      <clipPath
         clipPathUnits="userSpaceOnUse"
         id="clipPath13">
        <path
           d="M370.6794 123.4243 L370.6794 134.8243 L418.4006 134.8243 L418.4006 123.4243 Z"
           id="path39" />
      </clipPath>
      <clipPath
         clipPathUnits="userSpaceOnUse"
         id="clipPath14">
        <path
           d="M412.3847 263.3633 L412.3847 322.0977 L424.3233 322.0977 L424.3233 263.3633 Z"
           id="path42" />
      </clipPath>
      <clipPath
         clipPathUnits="userSpaceOnUse"
         id="clipPath15">
        <path
           d="M251.9633 510.6346 L251.9633 522.0346 L287.5681 522.0346 L287.5681 510.6346 Z"
           id="path45" />
      </clipPath>
      <clipPath
         clipPathUnits="userSpaceOnUse"
         id="clipPath16">
        <path
           d="M252.3651 460.0849 L252.3651 582.8666 L385.9485 582.8666 L385.9485 460.0849 Z"
           id="path48" />
      </clipPath>
      <clipPath
         clipPathUnits="userSpaceOnUse"
         id="clipPath17">
        <path
           d="M108.7 338.6356 L108.7 573.3668 L120.6387 573.3668 L120.6387 338.6356 Z"
           id="path51" />
      </clipPath>
      <clipPath
         clipPathUnits="userSpaceOnUse"
         id="clipPath18">
        <path
           d="M251.9638 386.1603 L251.9638 397.5604 L277.9478 397.5604 L277.9478 386.1603 Z"
           id="path54" />
      </clipPath>
      <clipPath
         clipPathUnits="userSpaceOnUse"
         id="clipPath19">
        <path
           d="M411.5306 99.5 L411.5306 174.2311 L423.4694 174.2311 L423.4694 99.5 Z"
           id="path57" />
      </clipPath>
      <clipPath
         clipPathUnits="userSpaceOnUse"
         id="clipPath20">
        <path
           d="M434.0197 338.6356 L434.0197 360.3667 L724.7709 360.3667 L724.7709 338.6356 Z"
           id="path60" />
      </clipPath>
      <clipPath
         clipPathUnits="userSpaceOnUse"
         id="clipPath21">
        <path
           d="M145.3849 581.8666 L145.3849 582.8666 L253.3651 582.8666 L253.3651 581.8666 Z"
           id="path63" />
      </clipPath>
      <clipPath
         clipPathUnits="userSpaceOnUse"
         id="clipPath22">
        <path
           d="M494.7689 84.035 L494.7689 95.9738 L638.5517 95.9738 L638.5517 84.035 Z"
           id="path66" />
      </clipPath>
      <clipPath
         clipPathUnits="userSpaceOnUse"
         id="clipPath23">
        <path
           d="M686.4263 193.5471 L686.4263 204.9473 L719.5687 204.9473 L719.5687 193.5471 Z"
           id="path69" />
      </clipPath>
      <clipPath
         clipPathUnits="userSpaceOnUse"
         id="clipPath24">
        <path
           d="M108.7412 213.4467 L108.7412 322.0977 L120.6799 322.0977 L120.6799 213.4467 Z"
           id="path72" />
      </clipPath>
      <clipPath
         clipPathUnits="userSpaceOnUse"
         id="clipPath25">
        <path
           d="M49.9732 483.2014 L49.9732 484.2014 L497.8712 484.2014 L497.8712 483.2014 Z"
           id="path75" />
      </clipPath>
      <clipPath
         clipPathUnits="userSpaceOnUse"
         id="clipPath26">
        <path
           d="M581.5702 358.9659 L581.5702 413.9603 L592.9703 413.9603 L592.9703 358.9659 Z"
           id="path78" />
      </clipPath>
      <clipPath
         clipPathUnits="userSpaceOnUse"
         id="clipPath27">
        <path
           d="M431.3333 463.3667 L431.3333 483.3667 L508.6667 483.3667 L508.6667 463.3667 Z"
           id="path81" />
      </clipPath>
      <clipPath
         clipPathUnits="userSpaceOnUse"
         id="clipPath28">
        <path
           d="M424.8575 495.6485 L424.8575 515.6485 L549.1909 515.6485 L549.1909 495.6485 Z"
           id="path84" />
      </clipPath>
      <clipPath
         clipPathUnits="userSpaceOnUse"
         id="clipPath29">
        <path
           d="M37.5515 193.4485 L37.5515 214.4485 L192.5515 214.4485 L192.5515 193.4485 Z"
           id="path87" />
      </clipPath>
      <clipPath
         clipPathUnits="userSpaceOnUse"
         id="clipPath30">
        <path
           d="M215.2818 441.0849 L215.2818 461.0849 L290.4485 461.0849 L290.4485 441.0849 Z"
           id="path90" />
      </clipPath>
      <clipPath
         clipPathUnits="userSpaceOnUse"
         id="clipPath31">
        <path
           d="M152.8365 236.2 L152.8365 257.2 L213.8365 257.2 L213.8365 236.2 Z"
           id="path93" />
      </clipPath>
      <clipPath
         clipPathUnits="userSpaceOnUse"
         id="clipPath32">
        <path
           d="M152.8365 256.2 L152.8365 277.2 L213.8365 277.2 L213.8365 256.2 Z"
           id="path96" />
      </clipPath>
      <clipPath
         clipPathUnits="userSpaceOnUse"
         id="clipPath33">
        <path
           d="M286.5547 506.6364 L286.5547 527.6364 L347.5547 527.6364 L347.5547 506.6364 Z"
           id="path99" />
      </clipPath>
      <clipPath
         clipPathUnits="userSpaceOnUse"
         id="clipPath34">
        <path
           d="M276.9364 381.8152 L276.9364 402.8152 L337.9364 402.8152 L337.9364 381.8152 Z"
           id="path102" />
      </clipPath>
      <clipPath
         clipPathUnits="userSpaceOnUse"
         id="clipPath35">
        <path
           d="M384.9485 572.3666 L384.9485 592.3666 L450.2818 592.3666 L450.2818 572.3666 Z"
           id="path105" />
      </clipPath>
      <clipPath
         clipPathUnits="userSpaceOnUse"
         id="clipPath36">
        <path
           d="M338.5 79.5 L338.5 100.5 L496.5 100.5 L496.5 79.5 Z"
           id="path108" />
      </clipPath>
      <clipPath
         clipPathUnits="userSpaceOnUse"
         id="clipPath37">
        <path
           d="M351.5515 244.3667 L351.5515 264.3667 L484.5515 264.3667 L484.5515 244.3667 Z"
           id="path111" />
      </clipPath>
      <clipPath
         clipPathUnits="userSpaceOnUse"
         id="clipPath38">
        <path
           d="M354.5 172.5 L354.5 193.5 L480.5 193.5 L480.5 172.5 Z"
           id="path114" />
      </clipPath>
      <clipPath
         clipPathUnits="userSpaceOnUse"
         id="clipPath39">
        <path
           d="M626.4485 189.9697 L626.4485 210.9697 L687.4485 210.9697 L687.4485 189.9697 Z"
           id="path117" />
      </clipPath>
      <clipPath
         clipPathUnits="userSpaceOnUse"
         id="clipPath40">
        <path
           d="M385.7697 320.3667 L385.7697 340.3667 L451.1031 340.3667 L451.1031 320.3667 Z"
           id="path120" />
      </clipPath>
      <clipPath
         clipPathUnits="userSpaceOnUse"
         id="clipPath41">
        <path
           d="M310.6872 117.9697 L310.6872 138.9697 L371.6872 138.9697 L371.6872 117.9697 Z"
           id="path123" />
      </clipPath>
      <clipPath
         clipPathUnits="userSpaceOnUse"
         id="clipPath42">
        <path
           d="M555.9395 412.9518 L555.9395 433.9518 L616.9395 433.9518 L616.9395 412.9518 Z"
           id="path126" />
      </clipPath>
      <clipPath
         clipPathUnits="userSpaceOnUse"
         id="clipPath43">
        <path
           d="M637.5515 79.5515 L637.5515 100.5515 L799.5515 100.5515 L799.5515 79.5515 Z"
           id="path129" />
      </clipPath>
      <clipPath
         clipPathUnits="userSpaceOnUse"
         id="clipPath44">
        <path
           d="M83.0515 572.3666 L83.0515 592.3666 L146.3849 592.3666 L146.3849 572.3666 Z"
           id="path132" />
      </clipPath>
      <clipPath
         clipPathUnits="userSpaceOnUse"
         id="clipPath45">
        <path
           d="M69.5 320.3667 L69.5 340.3667 L159.8333 340.3667 L159.8333 320.3667 Z"
           id="path135" />
      </clipPath>
      <clipPath
         clipPathUnits="userSpaceOnUse"
         id="clipPath46">
        <path
           d="M667.0515 320.3667 L667.0515 340.3667 L770.5515 340.3667 L770.5515 320.3667 Z"
           id="path138" />
      </clipPath>
      <clipPath
         clipPathUnits="userSpaceOnUse"
         id="clipPath47">
        <path
           d="M51.561 492.1498 L51.561 493.1498 L497.3559 493.1498 L497.3559 492.1498 Z"
           id="path141" />
      </clipPath>
    </defs>
    <g
       style="fill:white; stroke:white;"
       id="g147">
      <rect
         x="0"
         width="829"
         height="621"
         y="0"
         style="stroke:none;"
         id="rect145" />
    </g>
    <g
       style="font-weight:bold; font-size:10; text-rendering:geometricPrecision;"
       id="g157">
      <path
         d="M0.0469 6.7031 L6.7656 6.7031 L6.7656 8.125 L4.3438 8.125 L4.3438 14 L2.4688 14 L2.4688 8.125 L0.0469 8.125 L0.0469 6.7031 ZM7.665 8.5312 L9.415 8.5312 L9.415 14 L7.665 14 L7.665 8.5312 ZM7.665 6.4062 L9.415 6.4062 L9.415 7.8281 L7.665 7.8281 L7.665 6.4062 ZM12.999 6.9844 L12.999 8.5312 L14.7959 8.5312 L14.7959 9.7812 L12.999 9.7812 L12.999 12.0938 Q12.999 12.4844 13.1475 12.6172 Q13.2959 12.75 13.749 12.75 L14.6553 12.75 L14.6553 14 L13.1553 14 Q12.1084 14 11.6787 13.5703 Q11.249 13.1406 11.249 12.0938 L11.249 9.7812 L10.374 9.7812 L10.374 8.5312 L11.249 8.5312 L11.249 6.9844 L12.999 6.9844 ZM15.873 6.4062 L17.623 6.4062 L17.623 14 L15.873 14 L15.873 6.4062 ZM24.7539 11.25 L24.7539 11.75 L20.6758 11.75 Q20.7383 12.3594 21.1133 12.6719 Q21.4883 12.9844 22.1758 12.9844 Q22.7227 12.9844 23.3086 12.8203 Q23.8945 12.6562 24.5039 12.3125 L24.5039 13.6719 Q23.8789 13.9062 23.2617 14.0234 Q22.6445 14.1406 22.0195 14.1406 Q20.5352 14.1406 19.7148 13.3828 Q18.8945 12.625 18.8945 11.2656 Q18.8945 9.9375 19.6992 9.1719 Q20.5039 8.4062 21.9258 8.4062 Q23.207 8.4062 23.9805 9.1797 Q24.7539 9.9531 24.7539 11.25 ZM22.957 10.6719 Q22.957 10.1719 22.668 9.8672 Q22.3789 9.5625 21.9102 9.5625 Q21.3945 9.5625 21.082 9.8438 Q20.7695 10.125 20.6914 10.6719 L22.957 10.6719 ZM26.3643 8.5312 L28.1143 8.5312 L28.1143 10.4219 L26.3643 10.4219 L26.3643 8.5312 ZM26.3643 12.1094 L28.1143 12.1094 L28.1143 14 L26.3643 14 L26.3643 12.1094 Z"
         style="clip-path:url(#clipPath2); stroke:none;"
         clip-path="url(#clipPath2)"
         id="path149" />
      <path
         d="M41.4219 7.6875 L40.0781 11.3125 L42.7656 11.3125 L41.4219 7.6875 ZM40.8594 6.7031 L41.9844 6.7031 L44.7656 14 L43.7344 14 L43.0625 12.125 L39.7812 12.125 L39.125 14 L38.0781 14 L40.8594 6.7031 ZM49.7158 8.7344 L49.7158 9.5781 Q49.3408 9.375 48.958 9.2656 Q48.5752 9.1562 48.1846 9.1562 Q47.3096 9.1562 46.8252 9.7109 Q46.3408 10.2656 46.3408 11.2656 Q46.3408 12.2656 46.8252 12.8203 Q47.3096 13.375 48.1846 13.375 Q48.5752 13.375 48.958 13.2734 Q49.3408 13.1719 49.7158 12.9531 L49.7158 13.7969 Q49.3408 13.9688 48.9424 14.0547 Q48.5439 14.1406 48.0908 14.1406 Q46.8408 14.1406 46.1143 13.3672 Q45.3877 12.5938 45.3877 11.2656 Q45.3877 9.9375 46.1221 9.1719 Q46.8564 8.4062 48.1377 8.4062 Q48.5596 8.4062 48.9502 8.4844 Q49.3408 8.5625 49.7158 8.7344 ZM55.9639 11.0469 L55.9639 11.4844 L51.8232 11.4844 Q51.8857 12.4062 52.3857 12.8906 Q52.8857 13.375 53.7764 13.375 Q54.292 13.375 54.7842 13.25 Q55.2764 13.125 55.7451 12.875 L55.7451 13.7188 Q55.2607 13.9219 54.7529 14.0312 Q54.2451 14.1406 53.7295 14.1406 Q52.417 14.1406 51.6514 13.3828 Q50.8857 12.625 50.8857 11.3125 Q50.8857 9.9688 51.6123 9.1875 Q52.3389 8.4062 53.5732 8.4062 Q54.6826 8.4062 55.3232 9.1094 Q55.9639 9.8125 55.9639 11.0469 ZM55.0576 10.7812 Q55.0576 10.0469 54.6514 9.6016 Q54.2451 9.1562 53.5889 9.1562 Q52.8232 9.1562 52.3779 9.5859 Q51.9326 10.0156 51.8545 10.7812 L55.0576 10.7812 ZM58.3193 6.9844 L58.3193 8.5312 L60.1787 8.5312 L60.1787 9.2344 L58.3193 9.2344 L58.3193 12.2031 Q58.3193 12.8594 58.5068 13.0547 Q58.6943 13.25 59.2568 13.25 L60.1787 13.25 L60.1787 14 L59.2568 14 Q58.21 14 57.8115 13.6094 Q57.4131 13.2188 57.4131 12.2031 L57.4131 9.2344 L56.7568 9.2344 L56.7568 8.5312 L57.4131 8.5312 L57.4131 6.9844 L58.3193 6.9844 ZM63.6309 14.5156 Q63.2559 15.4844 62.8887 15.7812 Q62.5215 16.0781 61.9277 16.0781 L61.209 16.0781 L61.209 15.3281 L61.7246 15.3281 Q62.0996 15.3281 62.3027 15.1562 Q62.5059 14.9844 62.7559 14.3281 L62.9277 13.9062 L60.709 8.5312 L61.6621 8.5312 L63.3652 12.8125 L65.084 8.5312 L66.0371 8.5312 L63.6309 14.5156 ZM67.2676 6.4062 L68.1738 6.4062 L68.1738 14 L67.2676 14 L67.2676 6.4062 ZM73.9834 8.7344 L73.9834 9.5781 Q73.6084 9.375 73.2256 9.2656 Q72.8428 9.1562 72.4521 9.1562 Q71.5771 9.1562 71.0928 9.7109 Q70.6084 10.2656 70.6084 11.2656 Q70.6084 12.2656 71.0928 12.8203 Q71.5771 13.375 72.4521 13.375 Q72.8428 13.375 73.2256 13.2734 Q73.6084 13.1719 73.9834 12.9531 L73.9834 13.7969 Q73.6084 13.9688 73.21 14.0547 Q72.8115 14.1406 72.3584 14.1406 Q71.1084 14.1406 70.3818 13.3672 Q69.6553 12.5938 69.6553 11.2656 Q69.6553 9.9375 70.3896 9.1719 Q71.124 8.4062 72.4053 8.4062 Q72.8271 8.4062 73.2178 8.4844 Q73.6084 8.5625 73.9834 8.7344 ZM80.0908 10.7031 L80.0908 14 L79.2002 14 L79.2002 10.7344 Q79.2002 9.9531 78.8955 9.5703 Q78.5908 9.1875 77.9814 9.1875 Q77.2627 9.1875 76.8408 9.6484 Q76.4189 10.1094 76.4189 10.9062 L76.4189 14 L75.5127 14 L75.5127 6.4062 L76.4189 6.4062 L76.4189 9.375 Q76.7471 8.8906 77.1846 8.6484 Q77.6221 8.4062 78.1846 8.4062 Q79.1221 8.4062 79.6064 8.9844 Q80.0908 9.5625 80.0908 10.7031 ZM84.0068 9.1562 Q83.2881 9.1562 82.8662 9.7188 Q82.4443 10.2812 82.4443 11.2656 Q82.4443 12.25 82.8584 12.8125 Q83.2725 13.375 84.0068 13.375 Q84.7256 13.375 85.1475 12.8125 Q85.5693 12.25 85.5693 11.2656 Q85.5693 10.2969 85.1475 9.7266 Q84.7256 9.1562 84.0068 9.1562 ZM84.0068 8.4062 Q85.1787 8.4062 85.8506 9.1641 Q86.5225 9.9219 86.5225 11.2656 Q86.5225 12.6094 85.8506 13.375 Q85.1787 14.1406 84.0068 14.1406 Q82.835 14.1406 82.1631 13.375 Q81.4912 12.6094 81.4912 11.2656 Q81.4912 9.9219 82.1631 9.1641 Q82.835 8.4062 84.0068 8.4062 ZM88 6.4062 L88.9062 6.4062 L88.9062 14 L88 14 L88 6.4062 ZM90.7783 8.5312 L91.6846 8.5312 L91.6846 14 L90.7783 14 L90.7783 8.5312 ZM90.7783 6.4062 L91.6846 6.4062 L91.6846 7.5469 L90.7783 7.5469 L90.7783 6.4062 ZM98.1035 10.7031 L98.1035 14 L97.2129 14 L97.2129 10.7344 Q97.2129 9.9531 96.9082 9.5703 Q96.6035 9.1875 95.9941 9.1875 Q95.2754 9.1875 94.8535 9.6484 Q94.4316 10.1094 94.4316 10.9062 L94.4316 14 L93.5254 14 L93.5254 8.5312 L94.4316 8.5312 L94.4316 9.375 Q94.7598 8.8906 95.1973 8.6484 Q95.6348 8.4062 96.1973 8.4062 Q97.1348 8.4062 97.6191 8.9844 Q98.1035 9.5625 98.1035 10.7031 ZM104.582 11.0469 L104.582 11.4844 L100.4414 11.4844 Q100.5039 12.4062 101.0039 12.8906 Q101.5039 13.375 102.3945 13.375 Q102.9102 13.375 103.4023 13.25 Q103.8945 13.125 104.3633 12.875 L104.3633 13.7188 Q103.8789 13.9219 103.3711 14.0312 Q102.8633 14.1406 102.3477 14.1406 Q101.0352 14.1406 100.2695 13.3828 Q99.5039 12.625 99.5039 11.3125 Q99.5039 9.9688 100.2305 9.1875 Q100.957 8.4062 102.1914 8.4062 Q103.3008 8.4062 103.9414 9.1094 Q104.582 9.8125 104.582 11.0469 ZM103.6758 10.7812 Q103.6758 10.0469 103.2695 9.6016 Q102.8633 9.1562 102.207 9.1562 Q101.4414 9.1562 100.9961 9.5859 Q100.5508 10.0156 100.4727 10.7812 L103.6758 10.7812 ZM112.71 8.6875 L112.71 9.5469 Q112.335 9.3438 111.9287 9.25 Q111.5225 9.1562 111.0693 9.1562 Q110.4131 9.1562 110.0771 9.3594 Q109.7412 9.5625 109.7412 9.9688 Q109.7412 10.2812 109.9756 10.4609 Q110.21 10.6406 110.9443 10.7969 L111.2412 10.875 Q112.21 11.0781 112.6084 11.4531 Q113.0068 11.8281 113.0068 12.4844 Q113.0068 13.25 112.4053 13.6953 Q111.8037 14.1406 110.7568 14.1406 Q110.3037 14.1406 109.8271 14.0547 Q109.3506 13.9688 108.835 13.7969 L108.835 12.875 Q109.335 13.125 109.8115 13.2578 Q110.2881 13.3906 110.7725 13.3906 Q111.3975 13.3906 111.7412 13.1719 Q112.085 12.9531 112.085 12.5625 Q112.085 12.1875 111.8428 11.9922 Q111.6006 11.7969 110.7568 11.625 L110.4443 11.5469 Q109.6162 11.375 109.2412 11.0078 Q108.8662 10.6406 108.8662 10.0156 Q108.8662 9.2344 109.4131 8.8203 Q109.96 8.4062 110.9756 8.4062 Q111.46 8.4062 111.9053 8.4766 Q112.3506 8.5469 112.71 8.6875 ZM116.7168 14.5156 Q116.3418 15.4844 115.9746 15.7812 Q115.6074 16.0781 115.0137 16.0781 L114.2949 16.0781 L114.2949 15.3281 L114.8105 15.3281 Q115.1855 15.3281 115.3887 15.1562 Q115.5918 14.9844 115.8418 14.3281 L116.0137 13.9062 L113.7949 8.5312 L114.748 8.5312 L116.4512 12.8125 L118.1699 8.5312 L119.123 8.5312 L116.7168 14.5156 ZM124.9004 10.7031 L124.9004 14 L124.0098 14 L124.0098 10.7344 Q124.0098 9.9531 123.7051 9.5703 Q123.4004 9.1875 122.791 9.1875 Q122.0723 9.1875 121.6504 9.6484 Q121.2285 10.1094 121.2285 10.9062 L121.2285 14 L120.3223 14 L120.3223 8.5312 L121.2285 8.5312 L121.2285 9.375 Q121.5566 8.8906 121.9941 8.6484 Q122.4316 8.4062 122.9941 8.4062 Q123.9316 8.4062 124.416 8.9844 Q124.9004 9.5625 124.9004 10.7031 ZM127.582 6.9844 L127.582 8.5312 L129.4414 8.5312 L129.4414 9.2344 L127.582 9.2344 L127.582 12.2031 Q127.582 12.8594 127.7695 13.0547 Q127.957 13.25 128.5195 13.25 L129.4414 13.25 L129.4414 14 L128.5195 14 Q127.4727 14 127.0742 13.6094 Q126.6758 13.2188 126.6758 12.2031 L126.6758 9.2344 L126.0195 9.2344 L126.0195 8.5312 L126.6758 8.5312 L126.6758 6.9844 L127.582 6.9844 ZM135.1592 10.7031 L135.1592 14 L134.2686 14 L134.2686 10.7344 Q134.2686 9.9531 133.9639 9.5703 Q133.6592 9.1875 133.0498 9.1875 Q132.3311 9.1875 131.9092 9.6484 Q131.4873 10.1094 131.4873 10.9062 L131.4873 14 L130.5811 14 L130.5811 6.4062 L131.4873 6.4062 L131.4873 9.375 Q131.8154 8.8906 132.2529 8.6484 Q132.6904 8.4062 133.2529 8.4062 Q134.1904 8.4062 134.6748 8.9844 Q135.1592 9.5625 135.1592 10.7031 ZM141.6377 11.0469 L141.6377 11.4844 L137.4971 11.4844 Q137.5596 12.4062 138.0596 12.8906 Q138.5596 13.375 139.4502 13.375 Q139.9658 13.375 140.458 13.25 Q140.9502 13.125 141.4189 12.875 L141.4189 13.7188 Q140.9346 13.9219 140.4268 14.0312 Q139.9189 14.1406 139.4033 14.1406 Q138.0908 14.1406 137.3252 13.3828 Q136.5596 12.625 136.5596 11.3125 Q136.5596 9.9688 137.2861 9.1875 Q138.0127 8.4062 139.2471 8.4062 Q140.3564 8.4062 140.9971 9.1094 Q141.6377 9.8125 141.6377 11.0469 ZM140.7314 10.7812 Q140.7314 10.0469 140.3252 9.6016 Q139.9189 9.1562 139.2627 9.1562 Q138.4971 9.1562 138.0518 9.5859 Q137.6064 10.0156 137.5283 10.7812 L140.7314 10.7812 ZM146.5869 8.6875 L146.5869 9.5469 Q146.2119 9.3438 145.8057 9.25 Q145.3994 9.1562 144.9463 9.1562 Q144.29 9.1562 143.9541 9.3594 Q143.6182 9.5625 143.6182 9.9688 Q143.6182 10.2812 143.8525 10.4609 Q144.0869 10.6406 144.8213 10.7969 L145.1182 10.875 Q146.0869 11.0781 146.4854 11.4531 Q146.8838 11.8281 146.8838 12.4844 Q146.8838 13.25 146.2822 13.6953 Q145.6807 14.1406 144.6338 14.1406 Q144.1807 14.1406 143.7041 14.0547 Q143.2275 13.9688 142.7119 13.7969 L142.7119 12.875 Q143.2119 13.125 143.6885 13.2578 Q144.165 13.3906 144.6494 13.3906 Q145.2744 13.3906 145.6182 13.1719 Q145.9619 12.9531 145.9619 12.5625 Q145.9619 12.1875 145.7197 11.9922 Q145.4775 11.7969 144.6338 11.625 L144.3213 11.5469 Q143.4932 11.375 143.1182 11.0078 Q142.7432 10.6406 142.7432 10.0156 Q142.7432 9.2344 143.29 8.8203 Q143.8369 8.4062 144.8525 8.4062 Q145.3369 8.4062 145.7822 8.4766 Q146.2275 8.5469 146.5869 8.6875 ZM148.3125 8.5312 L149.2188 8.5312 L149.2188 14 L148.3125 14 L148.3125 8.5312 ZM148.3125 6.4062 L149.2188 6.4062 L149.2188 7.5469 L148.3125 7.5469 L148.3125 6.4062 ZM154.5752 8.6875 L154.5752 9.5469 Q154.2002 9.3438 153.7939 9.25 Q153.3877 9.1562 152.9346 9.1562 Q152.2783 9.1562 151.9424 9.3594 Q151.6064 9.5625 151.6064 9.9688 Q151.6064 10.2812 151.8408 10.4609 Q152.0752 10.6406 152.8096 10.7969 L153.1064 10.875 Q154.0752 11.0781 154.4736 11.4531 Q154.8721 11.8281 154.8721 12.4844 Q154.8721 13.25 154.2705 13.6953 Q153.6689 14.1406 152.6221 14.1406 Q152.1689 14.1406 151.6924 14.0547 Q151.2158 13.9688 150.7002 13.7969 L150.7002 12.875 Q151.2002 13.125 151.6768 13.2578 Q152.1533 13.3906 152.6377 13.3906 Q153.2627 13.3906 153.6064 13.1719 Q153.9502 12.9531 153.9502 12.5625 Q153.9502 12.1875 153.708 11.9922 Q153.4658 11.7969 152.6221 11.625 L152.3096 11.5469 Q151.4814 11.375 151.1064 11.0078 Q150.7314 10.6406 150.7314 10.0156 Q150.7314 9.2344 151.2783 8.8203 Q151.8252 8.4062 152.8408 8.4062 Q153.3252 8.4062 153.7705 8.4766 Q154.2158 8.5469 154.5752 8.6875 Z"
         style="clip-path:url(#clipPath2); stroke:none;"
         clip-path="url(#clipPath2)"
         id="path151" />
      <path
         d="M4.25 21.9375 Q3.3906 21.9375 2.9141 22.5703 Q2.4375 23.2031 2.4375 24.3594 Q2.4375 25.5156 2.9141 26.1484 Q3.3906 26.7812 4.25 26.7812 Q5.1094 26.7812 5.5859 26.1484 Q6.0625 25.5156 6.0625 24.3594 Q6.0625 23.2031 5.5859 22.5703 Q5.1094 21.9375 4.25 21.9375 ZM4.25 20.5781 Q6 20.5781 7 21.5859 Q8 22.5938 8 24.3594 Q8 26.125 7 27.1328 Q6 28.1406 4.25 28.1406 Q2.5 28.1406 1.5 27.1328 Q0.5 26.125 0.5 24.3594 Q0.5 22.5938 1.5 21.5859 Q2.5 20.5781 4.25 20.5781 ZM13.4072 24.0156 Q13.1729 23.9062 12.9463 23.8594 Q12.7197 23.8125 12.4854 23.8125 Q11.8135 23.8125 11.4541 24.2422 Q11.0947 24.6719 11.0947 25.4844 L11.0947 28 L9.3447 28 L9.3447 22.5312 L11.0947 22.5312 L11.0947 23.4219 Q11.4229 22.8906 11.8604 22.6484 Q12.2979 22.4062 12.9072 22.4062 Q13.001 22.4062 13.1025 22.4062 Q13.2041 22.4062 13.3916 22.4375 L13.4072 24.0156 ZM17.9951 27.0781 Q17.6357 27.5469 17.1982 27.7734 Q16.7607 28 16.1982 28 Q15.1982 28 14.542 27.2109 Q13.8857 26.4219 13.8857 25.2031 Q13.8857 23.9688 14.542 23.1875 Q15.1982 22.4062 16.1982 22.4062 Q16.7607 22.4062 17.1982 22.6328 Q17.6357 22.8594 17.9951 23.3438 L17.9951 22.5312 L19.7451 22.5312 L19.7451 27.4531 Q19.7451 28.7656 18.917 29.4609 Q18.0889 30.1562 16.5107 30.1562 Q15.9951 30.1562 15.5186 30.0781 Q15.042 30 14.5576 29.8438 L14.5576 28.4844 Q15.0107 28.75 15.4482 28.875 Q15.8857 29 16.3389 29 Q17.1982 29 17.5967 28.625 Q17.9951 28.25 17.9951 27.4531 L17.9951 27.0781 ZM16.8389 23.6719 Q16.292 23.6719 15.9951 24.0703 Q15.6982 24.4688 15.6982 25.2031 Q15.6982 25.9531 15.9873 26.3438 Q16.2764 26.7344 16.8389 26.7344 Q17.3857 26.7344 17.6904 26.3281 Q17.9951 25.9219 17.9951 25.2031 Q17.9951 24.4688 17.6904 24.0703 Q17.3857 23.6719 16.8389 23.6719 ZM23.8877 25.5312 Q23.3408 25.5312 23.0596 25.7188 Q22.7783 25.9062 22.7783 26.2656 Q22.7783 26.6094 23.0049 26.7969 Q23.2314 26.9844 23.6221 26.9844 Q24.1221 26.9844 24.458 26.625 Q24.7939 26.2656 24.7939 25.7344 L24.7939 25.5312 L23.8877 25.5312 ZM26.5596 24.875 L26.5596 28 L24.7939 28 L24.7939 27.1875 Q24.4346 27.6875 23.9971 27.9141 Q23.5596 28.1406 22.9346 28.1406 Q22.0752 28.1406 21.5518 27.6484 Q21.0283 27.1562 21.0283 26.3594 Q21.0283 25.3906 21.6846 24.9453 Q22.3408 24.5 23.7627 24.5 L24.7939 24.5 L24.7939 24.3594 Q24.7939 23.9531 24.4658 23.7578 Q24.1377 23.5625 23.4502 23.5625 Q22.8877 23.5625 22.4033 23.6719 Q21.9189 23.7812 21.4971 24.0156 L21.4971 22.6719 Q22.0596 22.5469 22.6299 22.4766 Q23.2002 22.4062 23.7627 22.4062 Q25.2471 22.4062 25.9033 22.9844 Q26.5596 23.5625 26.5596 24.875 ZM33.6826 24.6719 L33.6826 28 L31.917 28 L31.917 27.4531 L31.917 25.4531 Q31.917 24.75 31.8857 24.4766 Q31.8545 24.2031 31.7764 24.0781 Q31.6826 23.9062 31.5029 23.8125 Q31.3232 23.7188 31.1045 23.7188 Q30.5576 23.7188 30.2451 24.1406 Q29.9326 24.5625 29.9326 25.3125 L29.9326 28 L28.1826 28 L28.1826 22.5312 L29.9326 22.5312 L29.9326 23.3281 Q30.3232 22.8594 30.7686 22.6328 Q31.2139 22.4062 31.7451 22.4062 Q32.6982 22.4062 33.1904 22.9844 Q33.6826 23.5625 33.6826 24.6719 ZM35.3018 22.5312 L37.0518 22.5312 L37.0518 28 L35.3018 28 L35.3018 22.5312 ZM35.3018 20.4062 L37.0518 20.4062 L37.0518 21.8281 L35.3018 21.8281 L35.3018 20.4062 ZM42.9951 22.7031 L42.9951 24.0312 Q42.4326 23.7969 41.9092 23.6797 Q41.3857 23.5625 40.9326 23.5625 Q40.4326 23.5625 40.1904 23.6875 Q39.9482 23.8125 39.9482 24.0625 Q39.9482 24.2812 40.1279 24.3906 Q40.3076 24.5 40.792 24.5625 L41.0889 24.5938 Q42.4326 24.7656 42.9014 25.1562 Q43.3701 25.5469 43.3701 26.3906 Q43.3701 27.2656 42.7217 27.7031 Q42.0732 28.1406 40.792 28.1406 Q40.2607 28.1406 39.6826 28.0547 Q39.1045 27.9688 38.4795 27.7969 L38.4795 26.4688 Q39.0107 26.7188 39.5576 26.8516 Q40.1045 26.9844 40.667 26.9844 Q41.1826 26.9844 41.4404 26.8438 Q41.6982 26.7031 41.6982 26.4219 Q41.6982 26.1875 41.5264 26.0703 Q41.3545 25.9531 40.8232 25.8906 L40.5107 25.8438 Q39.3389 25.7031 38.8701 25.3047 Q38.4014 24.9062 38.4014 24.1094 Q38.4014 23.2344 38.9951 22.8203 Q39.5889 22.4062 40.8232 22.4062 Q41.3076 22.4062 41.8389 22.4766 Q42.3701 22.5469 42.9951 22.7031 ZM49.7441 23.4375 Q50.0723 22.9375 50.5332 22.6719 Q50.9941 22.4062 51.541 22.4062 Q52.4785 22.4062 52.9707 22.9844 Q53.4629 23.5625 53.4629 24.6719 L53.4629 28 L51.7129 28 L51.7129 25.1406 Q51.7129 25.0781 51.7129 25.0156 Q51.7129 24.9531 51.7129 24.8281 Q51.7129 24.2344 51.5488 23.9766 Q51.3848 23.7188 50.9941 23.7188 Q50.4941 23.7188 50.2285 24.125 Q49.9629 24.5312 49.9473 25.3125 L49.9473 28 L48.1816 28 L48.1816 25.1406 Q48.1816 24.2344 48.0254 23.9766 Q47.8691 23.7188 47.4785 23.7188 Q46.9785 23.7188 46.7051 24.1328 Q46.4316 24.5469 46.4316 25.3125 L46.4316 28 L44.666 28 L44.666 22.5312 L46.4316 22.5312 L46.4316 23.3281 Q46.7441 22.875 47.166 22.6406 Q47.5879 22.4062 48.0879 22.4062 Q48.6504 22.4062 49.0879 22.6797 Q49.5254 22.9531 49.7441 23.4375 ZM55.3828 22.5312 L57.1328 22.5312 L57.1328 24.4219 L55.3828 24.4219 L55.3828 22.5312 ZM55.3828 26.1094 L57.1328 26.1094 L57.1328 28 L55.3828 28 L55.3828 26.1094 Z"
         style="clip-path:url(#clipPath2); stroke:none;"
         clip-path="url(#clipPath2)"
         id="path153" />
      <path
         d="M66.9844 20.7031 L67.9688 20.7031 L67.9688 23.7031 L71.5469 23.7031 L71.5469 20.7031 L72.5312 20.7031 L72.5312 28 L71.5469 28 L71.5469 24.5312 L67.9688 24.5312 L67.9688 28 L66.9844 28 L66.9844 20.7031 ZM76.582 23.1562 Q75.8633 23.1562 75.4414 23.7188 Q75.0195 24.2812 75.0195 25.2656 Q75.0195 26.25 75.4336 26.8125 Q75.8477 27.375 76.582 27.375 Q77.3008 27.375 77.7227 26.8125 Q78.1445 26.25 78.1445 25.2656 Q78.1445 24.2969 77.7227 23.7266 Q77.3008 23.1562 76.582 23.1562 ZM76.582 22.4062 Q77.7539 22.4062 78.4258 23.1641 Q79.0977 23.9219 79.0977 25.2656 Q79.0977 26.6094 78.4258 27.375 Q77.7539 28.1406 76.582 28.1406 Q75.4102 28.1406 74.7383 27.375 Q74.0664 26.6094 74.0664 25.2656 Q74.0664 23.9219 74.7383 23.1641 Q75.4102 22.4062 76.582 22.4062 ZM84.8408 23.5781 Q85.1689 22.9688 85.6377 22.6875 Q86.1064 22.4062 86.7471 22.4062 Q87.6064 22.4062 88.0674 23 Q88.5283 23.5938 88.5283 24.7031 L88.5283 28 L87.6221 28 L87.6221 24.7344 Q87.6221 23.9375 87.3486 23.5625 Q87.0752 23.1875 86.4971 23.1875 Q85.7939 23.1875 85.3955 23.6484 Q84.9971 24.1094 84.9971 24.9062 L84.9971 28 L84.0908 28 L84.0908 24.7344 Q84.0908 23.9375 83.8096 23.5625 Q83.5283 23.1875 82.9502 23.1875 Q82.2627 23.1875 81.8564 23.6484 Q81.4502 24.1094 81.4502 24.9062 L81.4502 28 L80.5439 28 L80.5439 22.5312 L81.4502 22.5312 L81.4502 23.375 Q81.7627 22.875 82.1924 22.6406 Q82.6221 22.4062 83.2002 22.4062 Q83.8096 22.4062 84.2236 22.7031 Q84.6377 23 84.8408 23.5781 ZM92.4414 23.1562 Q91.7227 23.1562 91.3008 23.7188 Q90.8789 24.2812 90.8789 25.2656 Q90.8789 26.25 91.293 26.8125 Q91.707 27.375 92.4414 27.375 Q93.1602 27.375 93.582 26.8125 Q94.0039 26.25 94.0039 25.2656 Q94.0039 24.2969 93.582 23.7266 Q93.1602 23.1562 92.4414 23.1562 ZM92.4414 22.4062 Q93.6133 22.4062 94.2852 23.1641 Q94.957 23.9219 94.957 25.2656 Q94.957 26.6094 94.2852 27.375 Q93.6133 28.1406 92.4414 28.1406 Q91.2695 28.1406 90.5977 27.375 Q89.9258 26.6094 89.9258 25.2656 Q89.9258 23.9219 90.5977 23.1641 Q91.2695 22.4062 92.4414 22.4062 ZM103.0977 22.6875 L103.0977 23.5469 Q102.7227 23.3438 102.3164 23.25 Q101.9102 23.1562 101.457 23.1562 Q100.8008 23.1562 100.4648 23.3594 Q100.1289 23.5625 100.1289 23.9688 Q100.1289 24.2812 100.3633 24.4609 Q100.5977 24.6406 101.332 24.7969 L101.6289 24.875 Q102.5977 25.0781 102.9961 25.4531 Q103.3945 25.8281 103.3945 26.4844 Q103.3945 27.25 102.793 27.6953 Q102.1914 28.1406 101.1445 28.1406 Q100.6914 28.1406 100.2148 28.0547 Q99.7383 27.9688 99.2227 27.7969 L99.2227 26.875 Q99.7227 27.125 100.1992 27.2578 Q100.6758 27.3906 101.1602 27.3906 Q101.7852 27.3906 102.1289 27.1719 Q102.4727 26.9531 102.4727 26.5625 Q102.4727 26.1875 102.2305 25.9922 Q101.9883 25.7969 101.1445 25.625 L100.832 25.5469 Q100.0039 25.375 99.6289 25.0078 Q99.2539 24.6406 99.2539 24.0156 Q99.2539 23.2344 99.8008 22.8203 Q100.3477 22.4062 101.3633 22.4062 Q101.8477 22.4062 102.293 22.4766 Q102.7383 22.5469 103.0977 22.6875 ZM107.3076 25.25 Q106.2295 25.25 105.8076 25.5 Q105.3857 25.75 105.3857 26.3438 Q105.3857 26.8281 105.6982 27.1094 Q106.0107 27.3906 106.5576 27.3906 Q107.3076 27.3906 107.7607 26.8594 Q108.2139 26.3281 108.2139 25.4531 L108.2139 25.25 L107.3076 25.25 ZM109.1045 24.875 L109.1045 28 L108.2139 28 L108.2139 27.1719 Q107.9014 27.6719 107.4404 27.9062 Q106.9795 28.1406 106.3232 28.1406 Q105.4795 28.1406 104.9795 27.6719 Q104.4795 27.2031 104.4795 26.4062 Q104.4795 25.4844 105.1045 25.0156 Q105.7295 24.5469 106.9482 24.5469 L108.2139 24.5469 L108.2139 24.4531 Q108.2139 23.8438 107.7998 23.5 Q107.3857 23.1562 106.6514 23.1562 Q106.1826 23.1562 105.7373 23.2734 Q105.292 23.3906 104.8857 23.6094 L104.8857 22.7812 Q105.3857 22.5938 105.8467 22.5 Q106.3076 22.4062 106.7451 22.4062 Q107.9326 22.4062 108.5186 23.0156 Q109.1045 23.625 109.1045 24.875 ZM111.8262 27.1719 L111.8262 30.0781 L110.9199 30.0781 L110.9199 22.5312 L111.8262 22.5312 L111.8262 23.3594 Q112.1074 22.875 112.5371 22.6406 Q112.9668 22.4062 113.5762 22.4062 Q114.5762 22.4062 115.1934 23.1953 Q115.8105 23.9844 115.8105 25.2656 Q115.8105 26.5625 115.1934 27.3516 Q114.5762 28.1406 113.5762 28.1406 Q112.9668 28.1406 112.5371 27.9062 Q112.1074 27.6719 111.8262 27.1719 ZM114.8887 25.2656 Q114.8887 24.2812 114.4746 23.7188 Q114.0605 23.1562 113.3574 23.1562 Q112.6387 23.1562 112.2324 23.7188 Q111.8262 24.2812 111.8262 25.2656 Q111.8262 26.2656 112.2324 26.8281 Q112.6387 27.3906 113.3574 27.3906 Q114.0605 27.3906 114.4746 26.8281 Q114.8887 26.2656 114.8887 25.2656 ZM117.2988 22.5312 L118.2051 22.5312 L118.2051 28 L117.2988 28 L117.2988 22.5312 ZM117.2988 20.4062 L118.2051 20.4062 L118.2051 21.5469 L117.2988 21.5469 L117.2988 20.4062 ZM124.7646 25.0469 L124.7646 25.4844 L120.624 25.4844 Q120.6865 26.4062 121.1865 26.8906 Q121.6865 27.375 122.5771 27.375 Q123.0928 27.375 123.585 27.25 Q124.0771 27.125 124.5459 26.875 L124.5459 27.7188 Q124.0615 27.9219 123.5537 28.0312 Q123.0459 28.1406 122.5303 28.1406 Q121.2178 28.1406 120.4521 27.3828 Q119.6865 26.625 119.6865 25.3125 Q119.6865 23.9688 120.4131 23.1875 Q121.1396 22.4062 122.374 22.4062 Q123.4834 22.4062 124.124 23.1094 Q124.7646 23.8125 124.7646 25.0469 ZM123.8584 24.7812 Q123.8584 24.0469 123.4521 23.6016 Q123.0459 23.1562 122.3896 23.1562 Q121.624 23.1562 121.1787 23.5859 Q120.7334 24.0156 120.6553 24.7812 L123.8584 24.7812 ZM130.7764 24.7031 L130.7764 28 L129.8857 28 L129.8857 24.7344 Q129.8857 23.9531 129.5811 23.5703 Q129.2764 23.1875 128.667 23.1875 Q127.9482 23.1875 127.5264 23.6484 Q127.1045 24.1094 127.1045 24.9062 L127.1045 28 L126.1982 28 L126.1982 22.5312 L127.1045 22.5312 L127.1045 23.375 Q127.4326 22.8906 127.8701 22.6484 Q128.3076 22.4062 128.8701 22.4062 Q129.8076 22.4062 130.292 22.9844 Q130.7764 23.5625 130.7764 24.7031 ZM136.0518 22.6875 L136.0518 23.5469 Q135.6768 23.3438 135.2705 23.25 Q134.8643 23.1562 134.4111 23.1562 Q133.7549 23.1562 133.4189 23.3594 Q133.083 23.5625 133.083 23.9688 Q133.083 24.2812 133.3174 24.4609 Q133.5518 24.6406 134.2861 24.7969 L134.583 24.875 Q135.5518 25.0781 135.9502 25.4531 Q136.3486 25.8281 136.3486 26.4844 Q136.3486 27.25 135.7471 27.6953 Q135.1455 28.1406 134.0986 28.1406 Q133.6455 28.1406 133.1689 28.0547 Q132.6924 27.9688 132.1768 27.7969 L132.1768 26.875 Q132.6768 27.125 133.1533 27.2578 Q133.6299 27.3906 134.1143 27.3906 Q134.7393 27.3906 135.083 27.1719 Q135.4268 26.9531 135.4268 26.5625 Q135.4268 26.1875 135.1846 25.9922 Q134.9424 25.7969 134.0986 25.625 L133.7861 25.5469 Q132.958 25.375 132.583 25.0078 Q132.208 24.6406 132.208 24.0156 Q132.208 23.2344 132.7549 22.8203 Q133.3018 22.4062 134.3174 22.4062 Q134.8018 22.4062 135.2471 22.4766 Q135.6924 22.5469 136.0518 22.6875 Z"
         style="clip-path:url(#clipPath2); stroke:none;"
         clip-path="url(#clipPath2)"
         id="path155" />
    </g>
    <g
       style="fill:navy; text-rendering:geometricPrecision; font-size:8; stroke:navy;"
       id="g161">
      <text
         x="161"
         xml:space="preserve"
         y="16"
         style="clip-path:url(#clipPath4); stroke:none;"
         clip-path="url(#clipPath4)"
         id="text159">1</text>
    </g>
    <g
       style="fill:rgb(180,180,100); text-rendering:geometricPrecision; fill-opacity:0.098; stroke-opacity:0.098; stroke:rgb(180,180,100);"
       id="g165">
      <rect
         x="145"
         y="228"
         width="76"
         style="clip-path:url(#clipPath5); stroke:none;"
         height="56"
         clip-path="url(#clipPath5)"
         id="rect163" />
    </g>
    <g
       style="fill:gray; text-rendering:geometricPrecision; stroke-dasharray:4,2; stroke-miterlimit:1; stroke:gray;"
       id="g169">
      <rect
         x="145"
         y="228"
         width="75"
         style="fill:none; clip-path:url(#clipPath5);"
         height="55"
         clip-path="url(#clipPath5)"
         id="rect167" />
    </g>
    <g
       style="text-rendering:geometricPrecision;"
       id="g175">
      <path
         d="M386.2697 330.3667 L252.8651 330.3667 M252.8651 330.3667 L252.8651 441.5849"
         style="fill:none; clip-path:url(#clipPath6);"
         clip-path="url(#clipPath6)"
         id="path171" />
      <path
         d="M252.8651 441.5849 L258.0652 429.8849 L247.6651 429.8849 Z"
         style="clip-path:url(#clipPath6); fill-rule:evenodd; stroke:none;"
         clip-path="url(#clipPath6)"
         id="path173" />
    </g>
    <g
       style="text-rendering:geometricPrecision;"
       id="g181">
      <path
         d="M417.6151 572.8666 L418.4364 339.8667"
         style="fill:none; clip-path:url(#clipPath7);"
         clip-path="url(#clipPath7)"
         id="path177" />
      <path
         d="M418.4364 339.8667 L413.1952 351.5483 L423.5951 351.5849 Z"
         style="clip-path:url(#clipPath7); fill-rule:evenodd; stroke:none;"
         clip-path="url(#clipPath7)"
         id="path179" />
    </g>
    <g
       style="text-rendering:geometricPrecision;"
       id="g189">
      <path
         d="M145.3365 256.7 L124.8976 256.7106"
         style="fill:none; clip-path:url(#clipPath8);"
         clip-path="url(#clipPath8)"
         id="path183" />
      <path
         d="M114.4976 256.716 C114.4961 253.8441 116.823 251.5148 119.6949 251.5133 C122.5668 251.5118 124.8961 253.8387 124.8976 256.7106 C124.8991 259.5825 122.5722 261.9118 119.7003 261.9133 C116.8284 261.9148 114.4991 259.5878 114.4976 256.716 Z"
         style="fill:white; clip-path:url(#clipPath8); stroke:none;"
         clip-path="url(#clipPath8)"
         id="path185" />
      <path
         d="M114.4976 256.716 C114.4961 253.8441 116.823 251.5148 119.6949 251.5133 C122.5668 251.5118 124.8961 253.8387 124.8976 256.7106 C124.8991 259.5825 122.5722 261.9118 119.7003 261.9133 C116.8284 261.9148 114.4991 259.5878 114.4976 256.716 Z"
         style="fill:none; clip-path:url(#clipPath8);"
         clip-path="url(#clipPath8)"
         id="path187" />
    </g>
    <g
       style="text-rendering:geometricPrecision;"
       id="g195">
      <path
         d="M417.5 193 L418.0515 244.8667"
         style="fill:none; clip-path:url(#clipPath9);"
         clip-path="url(#clipPath9)"
         id="path191" />
      <path
         d="M418.0515 244.8667 L423.1268 233.112 L412.7274 233.2226 Z"
         style="clip-path:url(#clipPath9); fill-rule:evenodd; stroke:none;"
         clip-path="url(#clipPath9)"
         id="path193" />
    </g>
    <g
       style="text-rendering:geometricPrecision;"
       id="g201">
      <path
         d="M667.5515 330.3667 L450.6031 330.3667"
         style="fill:none; clip-path:url(#clipPath10);"
         clip-path="url(#clipPath10)"
         id="path197" />
      <path
         d="M450.6031 330.3667 L462.303 335.5667 L462.303 325.1667 Z"
         style="clip-path:url(#clipPath10); fill-rule:evenodd; stroke:none;"
         clip-path="url(#clipPath10)"
         id="path199" />
    </g>
    <g
       style="text-rendering:geometricPrecision;"
       id="g205">
      <path
         d="M159.3333 330.3667 L252.8651 330.3667"
         style="fill:none; clip-path:url(#clipPath11);"
         clip-path="url(#clipPath11)"
         id="path203" />
    </g>
    <g
       style="text-rendering:geometricPrecision;"
       id="g211">
      <path
         d="M718.8015 320.8667 L718.5515 100.0515"
         style="fill:none; clip-path:url(#clipPath12);"
         clip-path="url(#clipPath12)"
         id="path207" />
      <path
         d="M718.5515 100.0515 L713.3647 111.7574 L723.7648 111.7456 Z"
         style="clip-path:url(#clipPath12); fill-rule:evenodd; stroke:none;"
         clip-path="url(#clipPath12)"
         id="path209" />
    </g>
    <g
       style="text-rendering:geometricPrecision;"
       id="g219">
      <path
         d="M371.1872 128.4697 L407.5013 129.0423"
         style="fill:none; clip-path:url(#clipPath13);"
         clip-path="url(#clipPath13)"
         id="path213" />
      <path
         d="M417.9 129.2063 C417.8547 132.0778 415.4901 134.369 412.6186 134.3237 C409.7471 134.2784 407.456 131.9139 407.5013 129.0423 C407.5465 126.1708 409.9111 123.8797 412.7826 123.925 C415.6541 123.9702 417.9452 126.3348 417.9 129.2063 Z"
         style="fill:white; clip-path:url(#clipPath13); stroke:none;"
         clip-path="url(#clipPath13)"
         id="path215" />
      <path
         d="M417.9 129.2063 C417.8547 132.0778 415.4901 134.369 412.6186 134.3237 C409.7471 134.2784 407.456 131.9139 407.5013 129.0423 C407.5465 126.1708 409.9111 123.8797 412.7826 123.925 C415.6541 123.9702 417.9452 126.3348 417.9 129.2063 Z"
         style="fill:none; clip-path:url(#clipPath13);"
         clip-path="url(#clipPath13)"
         id="path217" />
    </g>
    <g
       style="text-rendering:geometricPrecision;"
       id="g225">
      <path
         d="M418.0515 263.8667 L418.4364 320.8667"
         style="fill:none; clip-path:url(#clipPath14);"
         clip-path="url(#clipPath14)"
         id="path221" />
      <path
         d="M418.4364 320.8667 L423.5573 309.1318 L413.1575 309.2021 Z"
         style="clip-path:url(#clipPath14); fill-rule:evenodd; stroke:none;"
         clip-path="url(#clipPath14)"
         id="path223" />
    </g>
    <g
       style="text-rendering:geometricPrecision;"
       id="g233">
      <path
         d="M287.0547 517.1364 L262.8614 516.4764"
         style="fill:none; clip-path:url(#clipPath15);"
         clip-path="url(#clipPath15)"
         id="path227" />
      <path
         d="M252.4653 516.1928 C252.5436 513.322 254.9343 511.0582 257.8051 511.1365 C260.676 511.2148 262.9397 513.6056 262.8614 516.4764 C262.7831 519.3472 260.3924 521.611 257.5215 521.5327 C254.6507 521.4543 252.387 519.0636 252.4653 516.1928 Z"
         style="fill:white; clip-path:url(#clipPath15); stroke:none;"
         clip-path="url(#clipPath15)"
         id="path229" />
      <path
         d="M252.4653 516.1928 C252.5436 513.322 254.9343 511.0582 257.8051 511.1365 C260.676 511.2148 262.9397 513.6056 262.8614 516.4764 C262.7831 519.3472 260.3924 521.611 257.5215 521.5327 C254.6507 521.4543 252.387 519.0636 252.4653 516.1928 Z"
         style="fill:none; clip-path:url(#clipPath15);"
         clip-path="url(#clipPath15)"
         id="path231" />
    </g>
    <g
       style="text-rendering:geometricPrecision;"
       id="g237">
      <path
         d="M252.8651 460.5849 L252.8651 582.3666 M252.8651 582.3666 L385.4485 582.3666"
         style="fill:none; clip-path:url(#clipPath16);"
         clip-path="url(#clipPath16)"
         id="path235" />
    </g>
    <g
       style="text-rendering:geometricPrecision;"
       id="g243">
      <path
         d="M114.7182 572.8666 L114.6667 339.8667"
         style="fill:none; clip-path:url(#clipPath17);"
         clip-path="url(#clipPath17)"
         id="path239" />
      <path
         d="M114.6667 339.8667 L109.4693 351.5678 L119.8693 351.5655 Z"
         style="clip-path:url(#clipPath17); fill-rule:evenodd; stroke:none;"
         clip-path="url(#clipPath17)"
         id="path241" />
    </g>
    <g
       style="text-rendering:geometricPrecision;"
       id="g251">
      <path
         d="M277.4364 392.3152 L262.8625 391.9799"
         style="fill:none; clip-path:url(#clipPath18);"
         clip-path="url(#clipPath18)"
         id="path245" />
      <path
         d="M252.4652 391.7408 C252.5313 388.8696 254.9123 386.5957 257.7834 386.6617 C260.6546 386.7278 262.9285 389.1088 262.8625 391.9799 C262.7964 394.851 260.4154 397.125 257.5443 397.059 C254.6732 396.9929 252.3992 394.6119 252.4652 391.7408 Z"
         style="fill:white; clip-path:url(#clipPath18); stroke:none;"
         clip-path="url(#clipPath18)"
         id="path247" />
      <path
         d="M252.4652 391.7408 C252.5313 388.8696 254.9123 386.5957 257.7834 386.6617 C260.6546 386.7278 262.9285 389.1088 262.8625 391.9799 C262.7964 394.851 260.4154 397.125 257.5443 397.059 C254.6732 396.9929 252.3992 394.6119 252.4652 391.7408 Z"
         style="fill:none; clip-path:url(#clipPath18);"
         clip-path="url(#clipPath18)"
         id="path249" />
    </g>
    <g
       style="text-rendering:geometricPrecision;"
       id="g257">
      <path
         d="M417.5 100 L417.5 173"
         style="fill:none; clip-path:url(#clipPath19);"
         clip-path="url(#clipPath19)"
         id="path253" />
      <path
         d="M417.5 173 L422.7 161.3 L412.3 161.3 Z"
         style="clip-path:url(#clipPath19); fill-rule:evenodd; stroke:none;"
         clip-path="url(#clipPath19)"
         id="path255" />
    </g>
    <g
       style="text-rendering:geometricPrecision;"
       id="g263">
      <path
         d="M434.5197 339.8667 L434.5197 359.8667 M434.5197 359.8667 L718.8015 359.8667 M718.8015 359.8667 L718.8015 339.8667"
         style="fill:none; clip-path:url(#clipPath20);"
         clip-path="url(#clipPath20)"
         id="path259" />
      <path
         d="M718.8015 339.8667 L713.6015 351.5667 L724.0015 351.5667 Z"
         style="clip-path:url(#clipPath20); fill-rule:evenodd; stroke:none;"
         clip-path="url(#clipPath20)"
         id="path261" />
    </g>
    <g
       style="text-rendering:geometricPrecision;"
       id="g267">
      <path
         d="M145.8849 582.3666 L252.8651 582.3666"
         style="fill:none; clip-path:url(#clipPath21);"
         clip-path="url(#clipPath21)"
         id="path265" />
    </g>
    <g
       style="text-rendering:geometricPrecision;"
       id="g273">
      <path
         d="M638.0515 90.0515 L496 90"
         style="fill:none; clip-path:url(#clipPath22);"
         clip-path="url(#clipPath22)"
         id="path269" />
      <path
         d="M496 90 L507.6981 95.2042 L507.7019 84.8042 Z"
         style="clip-path:url(#clipPath22); fill-rule:evenodd; stroke:none;"
         clip-path="url(#clipPath22)"
         id="path271" />
    </g>
    <g
       style="text-rendering:geometricPrecision;"
       id="g281">
      <path
         d="M686.9485 200.4697 L708.6739 199.4831"
         style="fill:none; clip-path:url(#clipPath23);"
         clip-path="url(#clipPath23)"
         id="path275" />
      <path
         d="M719.0632 199.0113 C719.1935 201.8802 716.9733 204.3116 714.1044 204.4418 C711.2355 204.5721 708.8041 202.352 708.6739 199.4831 C708.5436 196.6142 710.7637 194.1828 713.6326 194.0526 C716.5015 193.9223 718.9329 196.1424 719.0632 199.0113 Z"
         style="fill:white; clip-path:url(#clipPath23); stroke:none;"
         clip-path="url(#clipPath23)"
         id="path277" />
      <path
         d="M719.0632 199.0113 C719.1935 201.8802 716.9733 204.3116 714.1044 204.4418 C711.2355 204.5721 708.8041 202.352 708.6739 199.4831 C708.5436 196.6142 710.7637 194.1828 713.6326 194.0526 C716.5015 193.9223 718.9329 196.1424 719.0632 199.0113 Z"
         style="fill:none; clip-path:url(#clipPath23);"
         clip-path="url(#clipPath23)"
         id="path279" />
    </g>
    <g
       style="text-rendering:geometricPrecision;"
       id="g287">
      <path
         d="M115.0515 213.9485 L114.6667 320.8667"
         style="fill:none; clip-path:url(#clipPath24);"
         clip-path="url(#clipPath24)"
         id="path283" />
      <path
         d="M114.6667 320.8667 L119.9087 309.1855 L109.5088 309.148 Z"
         style="clip-path:url(#clipPath24); fill-rule:evenodd; stroke:none;"
         clip-path="url(#clipPath24)"
         id="path285" />
    </g>
    <g
       style="stroke-dasharray:4,4; text-rendering:geometricPrecision;"
       id="g291">
      <path
         d="M50.4732 483.7014 L497.3712 483.7014"
         style="fill:none; clip-path:url(#clipPath25);"
         clip-path="url(#clipPath25)"
         id="path289" />
    </g>
    <g
       style="text-rendering:geometricPrecision;"
       id="g299">
      <path
         d="M586.4395 413.4518 L587.1817 369.8652"
         style="fill:none; clip-path:url(#clipPath26);"
         clip-path="url(#clipPath26)"
         id="path293" />
      <path
         d="M587.3588 359.4667 C590.2302 359.5156 592.5184 361.883 592.4695 364.7545 C592.4206 367.626 590.0532 369.9141 587.1817 369.8652 C584.3102 369.8163 582.0221 367.4489 582.071 364.5775 C582.1199 361.706 584.4873 359.4178 587.3588 359.4667 Z"
         style="fill:white; clip-path:url(#clipPath26); stroke:none;"
         clip-path="url(#clipPath26)"
         id="path295" />
      <path
         d="M587.3588 359.4667 C590.2302 359.5156 592.5184 361.883 592.4695 364.7545 C592.4206 367.626 590.0532 369.9141 587.1817 369.8652 C584.3102 369.8163 582.0221 367.4489 582.071 364.5775 C582.1199 361.706 584.4873 359.4178 587.3588 359.4667 Z"
         style="fill:none; clip-path:url(#clipPath26);"
         clip-path="url(#clipPath26)"
         id="path297" />
    </g>
    <g
       style="font-weight:bold; text-rendering:geometricPrecision;"
       id="g303">
      <text
         x="439"
         xml:space="preserve"
         y="477"
         style="clip-path:url(#clipPath27); stroke:none;"
         clip-path="url(#clipPath27)"
         id="text301">*Cytosol*</text>
    </g>
    <g
       style="font-weight:bold; text-rendering:geometricPrecision;"
       id="g307">
      <text
         x="435"
         xml:space="preserve"
         y="510"
         style="clip-path:url(#clipPath28); stroke:none;"
         clip-path="url(#clipPath28)"
         id="text305">*Synaptic cleft*</text>
    </g>
    <g
       style="fill:white; text-rendering:geometricPrecision; stroke:white;"
       id="g315">
      <path
         d="M38.0515 193.9485 L192.0515 193.9485 L192.0515 213.9485 L38.0515 213.9485 L38.0515 193.9485 Z"
         style="clip-path:url(#clipPath29); stroke:none;"
         clip-path="url(#clipPath29)"
         id="path309" />
      <path
         d="M38.0515 193.9485 L192.0515 193.9485 L192.0515 213.9485 L38.0515 213.9485 L38.0515 193.9485 Z"
         style="fill:none; clip-path:url(#clipPath29); stroke:blue;"
         clip-path="url(#clipPath29)"
         id="path311" />
      <text
         x="54"
         y="207"
         style="font-size:10; clip-path:url(#clipPath29); fill:blue; stroke:none;"
         xml:space="preserve"
         clip-path="url(#clipPath29)"
         id="text313">Pyruvate from glycolysis</text>
    </g>
    <g
       style="fill:white; text-rendering:geometricPrecision; stroke:white;"
       id="g323">
      <path
         d="M215.7818 441.5849 L289.9485 441.5849 L289.9485 460.5849 L215.7818 460.5849 L215.7818 441.5849 Z"
         style="clip-path:url(#clipPath30); stroke:none;"
         clip-path="url(#clipPath30)"
         id="path317" />
      <path
         d="M215.7818 441.5849 L289.9485 441.5849 L289.9485 460.5849 L215.7818 460.5849 L215.7818 441.5849 Z"
         style="fill:none; clip-path:url(#clipPath30); stroke:blue;"
         clip-path="url(#clipPath30)"
         id="path319" />
      <text
         x="219"
         y="454"
         style="font-size:10; clip-path:url(#clipPath30); fill:blue; stroke:none;"
         xml:space="preserve"
         clip-path="url(#clipPath30)"
         id="text321">Acetylcholine</text>
    </g>
    <g
       style="fill:white; text-rendering:geometricPrecision; stroke:white;"
       id="g331">
      <path
         d="M153.3365 236.7 L213.3365 236.7 L213.3365 256.7 L153.3365 256.7 L153.3365 236.7 Z"
         style="clip-path:url(#clipPath31); stroke:none;"
         clip-path="url(#clipPath31)"
         id="path325" />
      <path
         d="M153.3365 236.7 L213.3365 236.7 L213.3365 256.7 L153.3365 256.7 L153.3365 236.7 Z"
         style="fill:none; clip-path:url(#clipPath31); stroke:black;"
         clip-path="url(#clipPath31)"
         id="path327" />
      <text
         x="166"
         y="250"
         style="font-size:10; clip-path:url(#clipPath31); fill:black; stroke:none;"
         xml:space="preserve"
         clip-path="url(#clipPath31)"
         id="text329">PDHA1</text>
    </g>
    <g
       style="fill:white; text-rendering:geometricPrecision; stroke:white;"
       id="g339">
      <path
         d="M153.3365 256.7 L213.3365 256.7 L213.3365 276.7 L153.3365 276.7 L153.3365 256.7 Z"
         style="clip-path:url(#clipPath32); stroke:none;"
         clip-path="url(#clipPath32)"
         id="path333" />
      <path
         d="M153.3365 256.7 L213.3365 256.7 L213.3365 276.7 L153.3365 276.7 L153.3365 256.7 Z"
         style="fill:none; clip-path:url(#clipPath32); stroke:black;"
         clip-path="url(#clipPath32)"
         id="path335" />
      <text
         x="166"
         y="270"
         style="font-size:10; clip-path:url(#clipPath32); fill:black; stroke:none;"
         xml:space="preserve"
         clip-path="url(#clipPath32)"
         id="text337">PDHA2</text>
    </g>
    <g
       style="fill:white; text-rendering:geometricPrecision; stroke:white;"
       id="g347">
      <path
         d="M287.0547 507.1364 L347.0547 507.1364 L347.0547 527.1364 L287.0547 527.1364 L287.0547 507.1364 Z"
         style="clip-path:url(#clipPath33); stroke:none;"
         clip-path="url(#clipPath33)"
         id="path341" />
      <path
         d="M287.0547 507.1364 L347.0547 507.1364 L347.0547 527.1364 L287.0547 527.1364 L287.0547 507.1364 Z"
         style="fill:none; clip-path:url(#clipPath33); stroke:black;"
         clip-path="url(#clipPath33)"
         id="path343" />
      <text
         x="304"
         y="521"
         style="font-size:10; clip-path:url(#clipPath33); fill:black; stroke:none;"
         xml:space="preserve"
         clip-path="url(#clipPath33)"
         id="text345">ACHE</text>
    </g>
    <g
       style="fill:white; text-rendering:geometricPrecision; stroke:white;"
       id="g355">
      <path
         d="M277.4364 382.3152 L337.4364 382.3152 L337.4364 402.3152 L277.4364 402.3152 L277.4364 382.3152 Z"
         style="clip-path:url(#clipPath34); stroke:none;"
         clip-path="url(#clipPath34)"
         id="path349" />
      <path
         d="M277.4364 382.3152 L337.4364 382.3152 L337.4364 402.3152 L277.4364 402.3152 L277.4364 382.3152 Z"
         style="fill:none; clip-path:url(#clipPath34); stroke:black;"
         clip-path="url(#clipPath34)"
         id="path351" />
      <text
         x="294"
         y="396"
         style="font-size:10; clip-path:url(#clipPath34); fill:black; stroke:none;"
         xml:space="preserve"
         clip-path="url(#clipPath34)"
         id="text353">CHAT</text>
    </g>
    <g
       style="fill:white; text-rendering:geometricPrecision; stroke:white;"
       id="g363">
      <path
         d="M385.4485 572.8666 L449.7818 572.8666 L449.7818 591.8666 L385.4485 591.8666 L385.4485 572.8666 Z"
         style="clip-path:url(#clipPath35); stroke:none;"
         clip-path="url(#clipPath35)"
         id="path357" />
      <path
         d="M385.4485 572.8666 L449.7818 572.8666 L449.7818 591.8666 L385.4485 591.8666 L385.4485 572.8666 Z"
         style="fill:none; clip-path:url(#clipPath35); stroke:blue;"
         clip-path="url(#clipPath35)"
         id="path359" />
      <text
         x="399"
         y="585"
         style="font-size:10; clip-path:url(#clipPath35); fill:blue; stroke:none;"
         xml:space="preserve"
         clip-path="url(#clipPath35)"
         id="text361">Choline</text>
    </g>
    <g
       style="fill:white; text-rendering:geometricPrecision; stroke:white;"
       id="g371">
      <path
         d="M339 80 L496 80 L496 100 L339 100 L339 80 Z"
         style="clip-path:url(#clipPath36); stroke:none;"
         clip-path="url(#clipPath36)"
         id="path365" />
      <path
         d="M339 80 L496 80 L496 100 L339 100 L339 80 Z"
         style="fill:none; clip-path:url(#clipPath36); stroke:blue;"
         clip-path="url(#clipPath36)"
         id="path367" />
      <text
         x="351"
         y="93"
         style="font-size:10; clip-path:url(#clipPath36); fill:blue; stroke:none;"
         xml:space="preserve"
         clip-path="url(#clipPath36)"
         id="text369">Phosphatidylethanolamine</text>
    </g>
    <g
       style="fill:white; text-rendering:geometricPrecision; stroke:white;"
       id="g379">
      <path
         d="M352.0515 244.8667 L484.0515 244.8667 L484.0515 263.8667 L352.0515 263.8667 L352.0515 244.8667 Z"
         style="clip-path:url(#clipPath37); stroke:none;"
         clip-path="url(#clipPath37)"
         id="path373" />
      <path
         d="M352.0515 244.8667 L484.0515 244.8667 L484.0515 263.8667 L352.0515 263.8667 L352.0515 244.8667 Z"
         style="fill:none; clip-path:url(#clipPath37); stroke:blue;"
         clip-path="url(#clipPath37)"
         id="path375" />
      <text
         x="360"
         y="257"
         style="font-size:10; clip-path:url(#clipPath37); fill:blue; stroke:none;"
         xml:space="preserve"
         clip-path="url(#clipPath37)"
         id="text377">Glycerophosphocholine</text>
    </g>
    <g
       style="fill:white; text-rendering:geometricPrecision; stroke:white;"
       id="g387">
      <path
         d="M355 173 L480 173 L480 193 L355 193 L355 173 Z"
         style="clip-path:url(#clipPath38); stroke:none;"
         clip-path="url(#clipPath38)"
         id="path381" />
      <path
         d="M355 173 L480 173 L480 193 L355 193 L355 173 Z"
         style="fill:none; clip-path:url(#clipPath38); stroke:blue;"
         clip-path="url(#clipPath38)"
         id="path383" />
      <text
         x="367"
         y="186"
         style="font-size:10; clip-path:url(#clipPath38); fill:blue; stroke:none;"
         xml:space="preserve"
         clip-path="url(#clipPath38)"
         id="text385">Phosphatidylcholine</text>
    </g>
    <g
       style="fill:white; text-rendering:geometricPrecision; stroke:white;"
       id="g395">
      <path
         d="M626.9485 190.4697 L686.9485 190.4697 L686.9485 210.4697 L626.9485 210.4697 L626.9485 190.4697 Z"
         style="clip-path:url(#clipPath39); stroke:none;"
         clip-path="url(#clipPath39)"
         id="path389" />
      <path
         d="M626.9485 190.4697 L686.9485 190.4697 L686.9485 210.4697 L626.9485 210.4697 L626.9485 190.4697 Z"
         style="fill:none; clip-path:url(#clipPath39); stroke:black;"
         clip-path="url(#clipPath39)"
         id="path391" />
      <text
         x="637"
         y="204"
         style="font-size:10; clip-path:url(#clipPath39); fill:black; stroke:none;"
         xml:space="preserve"
         clip-path="url(#clipPath39)"
         id="text393">PCYT1A</text>
    </g>
    <g
       style="fill:white; text-rendering:geometricPrecision; stroke:white;"
       id="g403">
      <path
         d="M386.2697 320.8667 L450.6031 320.8667 L450.6031 339.8667 L386.2697 339.8667 L386.2697 320.8667 Z"
         style="clip-path:url(#clipPath40); stroke:none;"
         clip-path="url(#clipPath40)"
         id="path397" />
      <path
         d="M386.2697 320.8667 L450.6031 320.8667 L450.6031 339.8667 L386.2697 339.8667 L386.2697 320.8667 Z"
         style="fill:none; clip-path:url(#clipPath40); stroke:blue;"
         clip-path="url(#clipPath40)"
         id="path399" />
      <text
         x="400"
         y="333"
         style="font-size:10; clip-path:url(#clipPath40); fill:blue; stroke:none;"
         xml:space="preserve"
         clip-path="url(#clipPath40)"
         id="text401">Choline</text>
    </g>
    <g
       style="fill:white; text-rendering:geometricPrecision; stroke:white;"
       id="g411">
      <path
         d="M311.1872 118.4697 L371.1872 118.4697 L371.1872 138.4697 L311.1872 138.4697 L311.1872 118.4697 Z"
         style="clip-path:url(#clipPath41); stroke:none;"
         clip-path="url(#clipPath41)"
         id="path405" />
      <path
         d="M311.1872 118.4697 L371.1872 118.4697 L371.1872 138.4697 L311.1872 138.4697 L311.1872 118.4697 Z"
         style="fill:none; clip-path:url(#clipPath41); stroke:black;"
         clip-path="url(#clipPath41)"
         id="path407" />
      <text
         x="328"
         y="132"
         style="font-size:10; clip-path:url(#clipPath41); fill:black; stroke:none;"
         xml:space="preserve"
         clip-path="url(#clipPath41)"
         id="text409">PEMT</text>
    </g>
    <g
       style="fill:white; text-rendering:geometricPrecision; stroke:white;"
       id="g419">
      <path
         d="M556.4395 413.4518 L616.4395 413.4518 L616.4395 433.4518 L556.4395 433.4518 L556.4395 413.4518 Z"
         style="clip-path:url(#clipPath42); stroke:none;"
         clip-path="url(#clipPath42)"
         id="path413" />
      <path
         d="M556.4395 413.4518 L616.4395 413.4518 L616.4395 433.4518 L556.4395 433.4518 L556.4395 413.4518 Z"
         style="fill:none; clip-path:url(#clipPath42); stroke:black;"
         clip-path="url(#clipPath42)"
         id="path415" />
      <text
         x="573"
         y="427"
         style="font-size:10; clip-path:url(#clipPath42); fill:black; stroke:none;"
         xml:space="preserve"
         clip-path="url(#clipPath42)"
         id="text417">CHKA</text>
    </g>
    <g
       style="fill:white; text-rendering:geometricPrecision; stroke:white;"
       id="g427">
      <path
         d="M638.0515 80.0515 L799.0515 80.0515 L799.0515 100.0515 L638.0515 100.0515 L638.0515 80.0515 Z"
         style="clip-path:url(#clipPath43); stroke:none;"
         clip-path="url(#clipPath43)"
         id="path421" />
      <path
         d="M638.0515 80.0515 L799.0515 80.0515 L799.0515 100.0515 L638.0515 100.0515 L638.0515 80.0515 Z"
         style="fill:none; clip-path:url(#clipPath43); stroke:blue;"
         clip-path="url(#clipPath43)"
         id="path423" />
      <text
         x="647"
         y="94"
         style="font-size:10; clip-path:url(#clipPath43); fill:blue; stroke:none;"
         xml:space="preserve"
         clip-path="url(#clipPath43)"
         id="text425">Cytidine diphosphate choline</text>
    </g>
    <g
       style="fill:white; text-rendering:geometricPrecision; stroke:white;"
       id="g435">
      <path
         d="M83.5515 572.8666 L145.8849 572.8666 L145.8849 591.8666 L83.5515 591.8666 L83.5515 572.8666 Z"
         style="clip-path:url(#clipPath44); stroke:none;"
         clip-path="url(#clipPath44)"
         id="path429" />
      <path
         d="M83.5515 572.8666 L145.8849 572.8666 L145.8849 591.8666 L83.5515 591.8666 L83.5515 572.8666 Z"
         style="fill:none; clip-path:url(#clipPath44); stroke:blue;"
         clip-path="url(#clipPath44)"
         id="path431" />
      <text
         x="95"
         y="585"
         style="font-size:10; clip-path:url(#clipPath44); fill:blue; stroke:none;"
         xml:space="preserve"
         clip-path="url(#clipPath44)"
         id="text433">Acetate</text>
    </g>
    <g
       style="fill:white; text-rendering:geometricPrecision; stroke:white;"
       id="g443">
      <path
         d="M70 320.8667 L159.3333 320.8667 L159.3333 339.8667 L70 339.8667 L70 320.8667 Z"
         style="clip-path:url(#clipPath45); stroke:none;"
         clip-path="url(#clipPath45)"
         id="path437" />
      <path
         d="M70 320.8667 L159.3333 320.8667 L159.3333 339.8667 L70 339.8667 L70 320.8667 Z"
         style="fill:none; clip-path:url(#clipPath45); stroke:blue;"
         clip-path="url(#clipPath45)"
         id="path439" />
      <text
         x="88"
         y="333"
         style="font-size:10; clip-path:url(#clipPath45); fill:blue; stroke:none;"
         xml:space="preserve"
         clip-path="url(#clipPath45)"
         id="text441">Acetyl CoA</text>
    </g>
    <g
       style="fill:white; text-rendering:geometricPrecision; stroke:white;"
       id="g451">
      <path
         d="M667.5515 320.8667 L770.0515 320.8667 L770.0515 339.8667 L667.5515 339.8667 L667.5515 320.8667 Z"
         style="clip-path:url(#clipPath46); stroke:none;"
         clip-path="url(#clipPath46)"
         id="path445" />
      <path
         d="M667.5515 320.8667 L770.0515 320.8667 L770.0515 339.8667 L667.5515 339.8667 L667.5515 320.8667 Z"
         style="fill:none; clip-path:url(#clipPath46); stroke:blue;"
         clip-path="url(#clipPath46)"
         id="path447" />
      <text
         x="674"
         y="333"
         style="font-size:10; clip-path:url(#clipPath46); fill:blue; stroke:none;"
         xml:space="preserve"
         clip-path="url(#clipPath46)"
         id="text449">Phosphorylcholine</text>
    </g>
    <g
       style="stroke-dasharray:4,4; text-rendering:geometricPrecision;"
       id="g455">
      <path
         d="M52.061 492.6498 L496.8559 492.6498"
         style="fill:none; clip-path:url(#clipPath47);"
         clip-path="url(#clipPath47)"
         id="path453" />
    </g>
  </g>
</svg>
