<?xml version="1.0" encoding="UTF-8" standalone="no"?>
<svg
   style="fill-opacity:1; color-rendering:auto; color-interpolation:auto; stroke:black; text-rendering:auto; stroke-linecap:square; stroke-miterlimit:10; stroke-opacity:1; shape-rendering:auto; fill:black; stroke-dasharray:none; font-weight:normal; stroke-width:1; font-family:'Dialog'; font-style:normal; stroke-linejoin:miter; font-size:12; stroke-dashoffset:0; image-rendering:auto;"
   width="538"
   height="645"
   version="1.1"
   id="svg309"
   xmlns="http://www.w3.org/2000/svg"
   xmlns:svg="http://www.w3.org/2000/svg">
  <!--Generated by the Batik Graphics2D SVG Generator-->
  <defs
     id="genericDefs" />
  <g
     id="g307">
    <defs
       id="defs1">
      <clipPath
         clipPathUnits="userSpaceOnUse"
         id="clipPath1">
        <path
           d="M0 0 L546 0 L546 661 L0 661 L0 0 Z"
           id="path3" />
      </clipPath>
      <clipPath
         clipPathUnits="userSpaceOnUse"
         id="clipPath2">
        <path
           d="M0 0 L0 200 L200 200 L200 0 Z"
           id="path6" />
      </clipPath>
      <clipPath
         clipPathUnits="userSpaceOnUse"
         id="clipPath3">
        <path
           d="M440 16 L440 37 L451 37 L451 16 Z"
           id="path9" />
      </clipPath>
      <clipPath
         clipPathUnits="userSpaceOnUse"
         id="clipPath4">
        <path
           d="M439.4551 3.918 L450.5449 3.918 L450.5449 19.2305 L439.4551 19.2305 L439.4551 3.918 Z"
           id="path12" />
      </clipPath>
      <clipPath
         clipPathUnits="userSpaceOnUse"
         id="clipPath5">
        <path
           d="M361.4989 360.2574 L361.4989 371.6573 L387.7398 371.6573 L387.7398 360.2574 Z"
           id="path15" />
      </clipPath>
      <clipPath
         clipPathUnits="userSpaceOnUse"
         id="clipPath6">
        <path
           d="M275.0306 101.5 L275.0306 144.2311 L286.9694 144.2311 L286.9694 101.5 Z"
           id="path18" />
      </clipPath>
      <clipPath
         clipPathUnits="userSpaceOnUse"
         id="clipPath7">
        <path
           d="M159.2952 152.3038 L159.2952 270.0094 L241.6962 270.0094 L241.6962 152.3038 Z"
           id="path21" />
      </clipPath>
      <clipPath
         clipPathUnits="userSpaceOnUse"
         id="clipPath8">
        <path
           d="M279.7689 217.7617 L279.7689 229.7002 L334.5028 229.7002 L334.5028 217.7617 Z"
           id="path24" />
      </clipPath>
      <clipPath
         clipPathUnits="userSpaceOnUse"
         id="clipPath9">
        <path
           d="M273.0306 420.5 L273.0306 460.2311 L284.9694 460.2311 L284.9694 420.5 Z"
           id="path27" />
      </clipPath>
      <clipPath
         clipPathUnits="userSpaceOnUse"
         id="clipPath10">
        <path
           d="M183.5 296.5 L183.5 309.8 L270.6 309.8 L270.6 296.5 Z"
           id="path30" />
      </clipPath>
      <clipPath
         clipPathUnits="userSpaceOnUse"
         id="clipPath11">
        <path
           d="M191.2482 320.4749 L191.2482 411.5562 L242.2229 411.5562 L242.2229 320.4749 Z"
           id="path33" />
      </clipPath>
      <clipPath
         clipPathUnits="userSpaceOnUse"
         id="clipPath12">
        <path
           d="M317.7739 324.4558 L317.7739 415.8475 L382.6713 415.8475 L382.6713 324.4558 Z"
           id="path36" />
      </clipPath>
      <clipPath
         clipPathUnits="userSpaceOnUse"
         id="clipPath13">
        <path
           d="M273.0306 575.5 L273.0306 612.2311 L284.9694 612.2311 L284.9694 575.5 Z"
           id="path39" />
      </clipPath>
      <clipPath
         clipPathUnits="userSpaceOnUse"
         id="clipPath14">
        <path
           d="M275.0306 162.5 L275.0306 316.2311 L286.9694 316.2311 L286.9694 162.5 Z"
           id="path42" />
      </clipPath>
      <clipPath
         clipPathUnits="userSpaceOnUse"
         id="clipPath15">
        <path
           d="M228 466.5 L228 487.5 L330 487.5 L330 466.5 Z"
           id="path45" />
      </clipPath>
      <clipPath
         clipPathUnits="userSpaceOnUse"
         id="clipPath16">
        <path
           d="M341.5 181.5 L341.5 202.5 L516.5 202.5 L516.5 181.5 Z"
           id="path48" />
      </clipPath>
      <clipPath
         clipPathUnits="userSpaceOnUse"
         id="clipPath17">
        <path
           d="M384.5 244.5 L384.5 265.5 L465.5 265.5 L465.5 244.5 Z"
           id="path51" />
      </clipPath>
      <clipPath
         clipPathUnits="userSpaceOnUse"
         id="clipPath18">
        <path
           d="M95.5 296.5 L95.5 317.5 L176.5 317.5 L176.5 296.5 Z"
           id="path54" />
      </clipPath>
      <clipPath
         clipPathUnits="userSpaceOnUse"
         id="clipPath19">
        <path
           d="M238.5 400.5 L238.5 421.5 L319.5 421.5 L319.5 400.5 Z"
           id="path57" />
      </clipPath>
      <clipPath
         clipPathUnits="userSpaceOnUse"
         id="clipPath20">
        <path
           d="M361.5 355.5 L361.5 376.5 L427.5 376.5 L427.5 355.5 Z"
           id="path60" />
      </clipPath>
      <clipPath
         clipPathUnits="userSpaceOnUse"
         id="clipPath21">
        <path
           d="M240.5 314.5 L240.5 335.5 L321.5 335.5 L321.5 314.5 Z"
           id="path63" />
      </clipPath>
      <clipPath
         clipPathUnits="userSpaceOnUse"
         id="clipPath22">
        <path
           d="M238.5 547.5 L238.5 568.5 L319.5 568.5 L319.5 547.5 Z"
           id="path66" />
      </clipPath>
      <clipPath
         clipPathUnits="userSpaceOnUse"
         id="clipPath23">
        <path
           d="M240.5 81.5 L240.5 102.5 L321.5 102.5 L321.5 81.5 Z"
           id="path69" />
      </clipPath>
      <clipPath
         clipPathUnits="userSpaceOnUse"
         id="clipPath24">
        <path
           d="M238.5 527.5 L238.5 548.5 L319.5 548.5 L319.5 527.5 Z"
           id="path72" />
      </clipPath>
      <clipPath
         clipPathUnits="userSpaceOnUse"
         id="clipPath25">
        <path
           d="M238.5 507.5 L238.5 528.5 L319.5 528.5 L319.5 507.5 Z"
           id="path75" />
      </clipPath>
      <clipPath
         clipPathUnits="userSpaceOnUse"
         id="clipPath26">
        <path
           d="M240.5 142.5 L240.5 163.5 L321.5 163.5 L321.5 142.5 Z"
           id="path78" />
      </clipPath>
      <clipPath
         clipPathUnits="userSpaceOnUse"
         id="clipPath27">
        <path
           d="M238.5 487.5 L238.5 508.5 L319.5 508.5 L319.5 487.5 Z"
           id="path81" />
      </clipPath>
      <clipPath
         clipPathUnits="userSpaceOnUse"
         id="clipPath28">
        <path
           d="M95.5 276.5 L95.5 297.5 L176.5 297.5 L176.5 276.5 Z"
           id="path84" />
      </clipPath>
      <clipPath
         clipPathUnits="userSpaceOnUse"
         id="clipPath29">
        <path
           d="M109.5 610.5 L109.5 631.5 L448.5 631.5 L448.5 610.5 Z"
           id="path87" />
      </clipPath>
      <clipPath
         clipPathUnits="userSpaceOnUse"
         id="clipPath30">
        <path
           d="M384.5 224.5 L384.5 245.5 L465.5 245.5 L465.5 224.5 Z"
           id="path90" />
      </clipPath>
      <clipPath
         clipPathUnits="userSpaceOnUse"
         id="clipPath31">
        <path
           d="M384.5 204.5 L384.5 225.5 L465.5 225.5 L465.5 204.5 Z"
           id="path93" />
      </clipPath>
    </defs>
    <g
       style="fill:white; stroke:white;"
       id="g99">
      <rect
         x="0"
         width="546"
         height="661"
         y="0"
         style="stroke:none;"
         id="rect97" />
    </g>
    <g
       style="font-weight:bold; font-size:10; text-rendering:geometricPrecision;"
       id="g109">
      <path
         d="M0.0469 6.7031 L6.7656 6.7031 L6.7656 8.125 L4.3438 8.125 L4.3438 14 L2.4688 14 L2.4688 8.125 L0.0469 8.125 L0.0469 6.7031 ZM7.665 8.5312 L9.415 8.5312 L9.415 14 L7.665 14 L7.665 8.5312 ZM7.665 6.4062 L9.415 6.4062 L9.415 7.8281 L7.665 7.8281 L7.665 6.4062 ZM12.999 6.9844 L12.999 8.5312 L14.7959 8.5312 L14.7959 9.7812 L12.999 9.7812 L12.999 12.0938 Q12.999 12.4844 13.1475 12.6172 Q13.2959 12.75 13.749 12.75 L14.6553 12.75 L14.6553 14 L13.1553 14 Q12.1084 14 11.6787 13.5703 Q11.249 13.1406 11.249 12.0938 L11.249 9.7812 L10.374 9.7812 L10.374 8.5312 L11.249 8.5312 L11.249 6.9844 L12.999 6.9844 ZM15.873 6.4062 L17.623 6.4062 L17.623 14 L15.873 14 L15.873 6.4062 ZM24.7539 11.25 L24.7539 11.75 L20.6758 11.75 Q20.7383 12.3594 21.1133 12.6719 Q21.4883 12.9844 22.1758 12.9844 Q22.7227 12.9844 23.3086 12.8203 Q23.8945 12.6562 24.5039 12.3125 L24.5039 13.6719 Q23.8789 13.9062 23.2617 14.0234 Q22.6445 14.1406 22.0195 14.1406 Q20.5352 14.1406 19.7148 13.3828 Q18.8945 12.625 18.8945 11.2656 Q18.8945 9.9375 19.6992 9.1719 Q20.5039 8.4062 21.9258 8.4062 Q23.207 8.4062 23.9805 9.1797 Q24.7539 9.9531 24.7539 11.25 ZM22.957 10.6719 Q22.957 10.1719 22.668 9.8672 Q22.3789 9.5625 21.9102 9.5625 Q21.3945 9.5625 21.082 9.8438 Q20.7695 10.125 20.6914 10.6719 L22.957 10.6719 ZM26.3643 8.5312 L28.1143 8.5312 L28.1143 10.4219 L26.3643 10.4219 L26.3643 8.5312 ZM26.3643 12.1094 L28.1143 12.1094 L28.1143 14 L26.3643 14 L26.3643 12.1094 Z"
         style="clip-path:url(#clipPath2); stroke:none;"
         clip-path="url(#clipPath2)"
         id="path101" />
      <path
         d="M39.9688 10.5156 L39.9688 13.1875 L41.5469 13.1875 Q42.3438 13.1875 42.7266 12.8594 Q43.1094 12.5312 43.1094 11.8438 Q43.1094 11.1719 42.7266 10.8438 Q42.3438 10.5156 41.5469 10.5156 L39.9688 10.5156 ZM39.9688 7.5156 L39.9688 9.7188 L41.4219 9.7188 Q42.1562 9.7188 42.5078 9.4453 Q42.8594 9.1719 42.8594 8.625 Q42.8594 8.0625 42.5078 7.7891 Q42.1562 7.5156 41.4219 7.5156 L39.9688 7.5156 ZM38.9844 6.7031 L41.5 6.7031 Q42.625 6.7031 43.2344 7.1719 Q43.8438 7.6406 43.8438 8.5156 Q43.8438 9.1875 43.5312 9.5781 Q43.2188 9.9688 42.625 10.0625 Q43.3438 10.2188 43.75 10.7188 Q44.1562 11.2188 44.1562 11.9531 Q44.1562 12.9375 43.4922 13.4688 Q42.8281 14 41.5938 14 L38.9844 14 L38.9844 6.7031 ZM45.8447 6.7031 L47.3135 6.7031 L49.1729 11.6719 L51.0479 6.7031 L52.5166 6.7031 L52.5166 14 L51.5479 14 L51.5479 7.5938 L49.6729 12.5938 L48.6729 12.5938 L46.7979 7.5938 L46.7979 14 L45.8447 14 L45.8447 6.7031 ZM55.457 7.5156 L55.457 10.2656 L56.6914 10.2656 Q57.3789 10.2656 57.7617 9.9062 Q58.1445 9.5469 58.1445 8.8906 Q58.1445 8.2344 57.7617 7.875 Q57.3789 7.5156 56.6914 7.5156 L55.457 7.5156 ZM54.4727 6.7031 L56.6914 6.7031 Q57.9258 6.7031 58.5508 7.2578 Q59.1758 7.8125 59.1758 8.8906 Q59.1758 9.9688 58.5508 10.5156 Q57.9258 11.0625 56.6914 11.0625 L55.457 11.0625 L55.457 14 L54.4727 14 L54.4727 6.7031 ZM61.4404 13.1719 L64.8779 13.1719 L64.8779 14 L60.2529 14 L60.2529 13.1719 Q60.8154 12.5938 61.7842 11.6094 Q62.7529 10.625 63.0029 10.3438 Q63.4717 9.8125 63.6592 9.4453 Q63.8467 9.0781 63.8467 8.7188 Q63.8467 8.1406 63.4404 7.7734 Q63.0342 7.4062 62.3779 7.4062 Q61.9092 7.4062 61.4014 7.5703 Q60.8936 7.7344 60.2998 8.0625 L60.2998 7.0625 Q60.8936 6.8281 61.4092 6.7031 Q61.9248 6.5781 62.3623 6.5781 Q63.4873 6.5781 64.167 7.1406 Q64.8467 7.7031 64.8467 8.6562 Q64.8467 9.1094 64.6748 9.5078 Q64.5029 9.9062 64.0654 10.4531 Q63.9404 10.5938 63.2842 11.2734 Q62.6279 11.9531 61.4404 13.1719 ZM66.3652 10.8594 L69.0059 10.8594 L69.0059 11.6562 L66.3652 11.6562 L66.3652 10.8594 ZM69.8174 6.7031 L70.8174 6.7031 L72.3486 12.875 L73.8799 6.7031 L74.9893 6.7031 L76.5205 12.875 L78.0518 6.7031 L79.0518 6.7031 L77.2236 14 L75.9736 14 L74.4424 7.6719 L72.8955 14 L71.6455 14 L69.8174 6.7031 ZM80.3613 6.7031 L81.6895 6.7031 L84.9238 12.8125 L84.9238 6.7031 L85.877 6.7031 L85.877 14 L84.5488 14 L81.3145 7.9062 L81.3145 14 L80.3613 14 L80.3613 6.7031 ZM86.8262 6.7031 L92.998 6.7031 L92.998 7.5469 L90.4043 7.5469 L90.4043 14 L89.4199 14 L89.4199 7.5469 L86.8262 7.5469 L86.8262 6.7031 ZM96.7471 7.5625 L94.2627 11.4531 L96.7471 11.4531 L96.7471 7.5625 ZM96.4814 6.7031 L97.7314 6.7031 L97.7314 11.4531 L98.7627 11.4531 L98.7627 12.2812 L97.7314 12.2812 L97.7314 14 L96.7471 14 L96.7471 12.2812 L93.4502 12.2812 L93.4502 11.3281 L96.4814 6.7031 ZM99.8125 10.8594 L102.4531 10.8594 L102.4531 11.6562 L99.8125 11.6562 L99.8125 10.8594 ZM103.9209 6.7031 L108.1084 6.7031 L108.1084 7.5469 L104.9053 7.5469 L104.9053 9.6875 L107.7959 9.6875 L107.7959 10.5156 L104.9053 10.5156 L104.9053 14 L103.9209 14 L103.9209 6.7031 ZM112.626 7.375 Q111.5479 7.375 110.9229 8.1797 Q110.2979 8.9844 110.2979 10.3594 Q110.2979 11.7344 110.9229 12.5391 Q111.5479 13.3438 112.626 13.3438 Q113.7041 13.3438 114.3291 12.5391 Q114.9541 11.7344 114.9541 10.3594 Q114.9541 8.9844 114.3291 8.1797 Q113.7041 7.375 112.626 7.375 ZM112.626 6.5781 Q114.1572 6.5781 115.0791 7.6094 Q116.001 8.6406 116.001 10.3594 Q116.001 12.0781 115.0791 13.1094 Q114.1572 14.1406 112.626 14.1406 Q111.0947 14.1406 110.1729 13.1172 Q109.251 12.0938 109.251 10.3594 Q109.251 8.6406 110.1729 7.6094 Q111.0947 6.5781 112.626 6.5781 ZM117.1846 6.7031 L118.2471 6.7031 L120.0596 9.4219 L121.8877 6.7031 L122.9346 6.7031 L120.5908 10.2031 L123.0908 14 L122.0439 14 L119.9814 10.9062 L117.9189 14 L116.8564 14 L119.4658 10.1094 L117.1846 6.7031 ZM127.3477 7.375 Q126.2695 7.375 125.6445 8.1797 Q125.0195 8.9844 125.0195 10.3594 Q125.0195 11.7344 125.6445 12.5391 Q126.2695 13.3438 127.3477 13.3438 Q128.4258 13.3438 129.0508 12.5391 Q129.6758 11.7344 129.6758 10.3594 Q129.6758 8.9844 129.0508 8.1797 Q128.4258 7.375 127.3477 7.375 ZM127.3477 6.5781 Q128.8789 6.5781 129.8008 7.6094 Q130.7227 8.6406 130.7227 10.3594 Q130.7227 12.0781 129.8008 13.1094 Q128.8789 14.1406 127.3477 14.1406 Q125.8164 14.1406 124.8945 13.1172 Q123.9727 12.0938 123.9727 10.3594 Q123.9727 8.6406 124.8945 7.6094 Q125.8164 6.5781 127.3477 6.5781 ZM132.5156 13.1719 L134.1406 13.1719 L134.1406 7.6094 L132.375 7.9531 L132.375 7.0625 L134.125 6.7031 L135.1094 6.7031 L135.1094 13.1719 L136.7188 13.1719 L136.7188 14 L132.5156 14 L132.5156 13.1719 ZM142.6348 13.1719 L142.6348 16.0781 L141.7285 16.0781 L141.7285 8.5312 L142.6348 8.5312 L142.6348 9.3594 Q142.916 8.875 143.3457 8.6406 Q143.7754 8.4062 144.3848 8.4062 Q145.3848 8.4062 146.002 9.1953 Q146.6191 9.9844 146.6191 11.2656 Q146.6191 12.5625 146.002 13.3516 Q145.3848 14.1406 144.3848 14.1406 Q143.7754 14.1406 143.3457 13.9062 Q142.916 13.6719 142.6348 13.1719 ZM145.6973 11.2656 Q145.6973 10.2812 145.2832 9.7188 Q144.8691 9.1562 144.166 9.1562 Q143.4473 9.1562 143.041 9.7188 Q142.6348 10.2812 142.6348 11.2656 Q142.6348 12.2656 143.041 12.8281 Q143.4473 13.3906 144.166 13.3906 Q144.8691 13.3906 145.2832 12.8281 Q145.6973 12.2656 145.6973 11.2656 ZM150.5918 11.25 Q149.5137 11.25 149.0918 11.5 Q148.6699 11.75 148.6699 12.3438 Q148.6699 12.8281 148.9824 13.1094 Q149.2949 13.3906 149.8418 13.3906 Q150.5918 13.3906 151.0449 12.8594 Q151.498 12.3281 151.498 11.4531 L151.498 11.25 L150.5918 11.25 ZM152.3887 10.875 L152.3887 14 L151.498 14 L151.498 13.1719 Q151.1855 13.6719 150.7246 13.9062 Q150.2637 14.1406 149.6074 14.1406 Q148.7637 14.1406 148.2637 13.6719 Q147.7637 13.2031 147.7637 12.4062 Q147.7637 11.4844 148.3887 11.0156 Q149.0137 10.5469 150.2324 10.5469 L151.498 10.5469 L151.498 10.4531 Q151.498 9.8438 151.084 9.5 Q150.6699 9.1562 149.9355 9.1562 Q149.4668 9.1562 149.0215 9.2734 Q148.5762 9.3906 148.1699 9.6094 L148.1699 8.7812 Q148.6699 8.5938 149.1309 8.5 Q149.5918 8.4062 150.0293 8.4062 Q151.2168 8.4062 151.8027 9.0156 Q152.3887 9.625 152.3887 10.875 ZM155.126 6.9844 L155.126 8.5312 L156.9854 8.5312 L156.9854 9.2344 L155.126 9.2344 L155.126 12.2031 Q155.126 12.8594 155.3135 13.0547 Q155.501 13.25 156.0635 13.25 L156.9854 13.25 L156.9854 14 L156.0635 14 Q155.0166 14 154.6182 13.6094 Q154.2197 13.2188 154.2197 12.2031 L154.2197 9.2344 L153.5635 9.2344 L153.5635 8.5312 L154.2197 8.5312 L154.2197 6.9844 L155.126 6.9844 ZM162.7031 10.7031 L162.7031 14 L161.8125 14 L161.8125 10.7344 Q161.8125 9.9531 161.5078 9.5703 Q161.2031 9.1875 160.5938 9.1875 Q159.875 9.1875 159.4531 9.6484 Q159.0312 10.1094 159.0312 10.9062 L159.0312 14 L158.125 14 L158.125 6.4062 L159.0312 6.4062 L159.0312 9.375 Q159.3594 8.8906 159.7969 8.6484 Q160.2344 8.4062 160.7969 8.4062 Q161.7344 8.4062 162.2188 8.9844 Q162.7031 9.5625 162.7031 10.7031 ZM163.9785 8.5312 L164.8691 8.5312 L165.9941 12.7969 L167.1191 8.5312 L168.1816 8.5312 L169.3066 12.7969 L170.416 8.5312 L171.3223 8.5312 L169.8848 14 L168.8223 14 L167.6504 9.5156 L166.4629 14 L165.4004 14 L163.9785 8.5312 ZM175.1572 11.25 Q174.0791 11.25 173.6572 11.5 Q173.2354 11.75 173.2354 12.3438 Q173.2354 12.8281 173.5479 13.1094 Q173.8604 13.3906 174.4072 13.3906 Q175.1572 13.3906 175.6104 12.8594 Q176.0635 12.3281 176.0635 11.4531 L176.0635 11.25 L175.1572 11.25 ZM176.9541 10.875 L176.9541 14 L176.0635 14 L176.0635 13.1719 Q175.751 13.6719 175.29 13.9062 Q174.8291 14.1406 174.1729 14.1406 Q173.3291 14.1406 172.8291 13.6719 Q172.3291 13.2031 172.3291 12.4062 Q172.3291 11.4844 172.9541 11.0156 Q173.5791 10.5469 174.7979 10.5469 L176.0635 10.5469 L176.0635 10.4531 Q176.0635 9.8438 175.6494 9.5 Q175.2354 9.1562 174.501 9.1562 Q174.0322 9.1562 173.5869 9.2734 Q173.1416 9.3906 172.7354 9.6094 L172.7354 8.7812 Q173.2354 8.5938 173.6963 8.5 Q174.1572 8.4062 174.5947 8.4062 Q175.7822 8.4062 176.3682 9.0156 Q176.9541 9.625 176.9541 10.875 ZM181.082 14.5156 Q180.707 15.4844 180.3398 15.7812 Q179.9727 16.0781 179.3789 16.0781 L178.6602 16.0781 L178.6602 15.3281 L179.1758 15.3281 Q179.5508 15.3281 179.7539 15.1562 Q179.957 14.9844 180.207 14.3281 L180.3789 13.9062 L178.1602 8.5312 L179.1133 8.5312 L180.8164 12.8125 L182.5352 8.5312 L183.4883 8.5312 L181.082 14.5156 ZM187.8975 8.5312 L188.8037 8.5312 L188.8037 14 L187.8975 14 L187.8975 8.5312 ZM187.8975 6.4062 L188.8037 6.4062 L188.8037 7.5469 L187.8975 7.5469 L187.8975 6.4062 ZM195.2227 10.7031 L195.2227 14 L194.332 14 L194.332 10.7344 Q194.332 9.9531 194.0273 9.5703 Q193.7227 9.1875 193.1133 9.1875 Q192.3945 9.1875 191.9727 9.6484 Q191.5508 10.1094 191.5508 10.9062 L191.5508 14 L190.6445 14 L190.6445 8.5312 L191.5508 8.5312 L191.5508 9.375 Q191.8789 8.8906 192.3164 8.6484 Q192.7539 8.4062 193.3164 8.4062 Q194.2539 8.4062 194.7383 8.9844 Q195.2227 9.5625 195.2227 10.7031 ZM201.0674 13.1719 L201.0674 16.0781 L200.1611 16.0781 L200.1611 8.5312 L201.0674 8.5312 L201.0674 9.3594 Q201.3486 8.875 201.7783 8.6406 Q202.208 8.4062 202.8174 8.4062 Q203.8174 8.4062 204.4346 9.1953 Q205.0518 9.9844 205.0518 11.2656 Q205.0518 12.5625 204.4346 13.3516 Q203.8174 14.1406 202.8174 14.1406 Q202.208 14.1406 201.7783 13.9062 Q201.3486 13.6719 201.0674 13.1719 ZM204.1299 11.2656 Q204.1299 10.2812 203.7158 9.7188 Q203.3018 9.1562 202.5986 9.1562 Q201.8799 9.1562 201.4736 9.7188 Q201.0674 10.2812 201.0674 11.2656 Q201.0674 12.2656 201.4736 12.8281 Q201.8799 13.3906 202.5986 13.3906 Q203.3018 13.3906 203.7158 12.8281 Q204.1299 12.2656 204.1299 11.2656 ZM209.7119 9.375 Q209.5557 9.2812 209.3838 9.2422 Q209.2119 9.2031 208.9932 9.2031 Q208.2275 9.2031 207.8213 9.6953 Q207.415 10.1875 207.415 11.125 L207.415 14 L206.5088 14 L206.5088 8.5312 L207.415 8.5312 L207.415 9.375 Q207.6963 8.875 208.1494 8.6406 Q208.6025 8.4062 209.2588 8.4062 Q209.3525 8.4062 209.4619 8.4141 Q209.5713 8.4219 209.7119 8.4531 L209.7119 9.375 ZM210.6514 8.5312 L211.5576 8.5312 L211.5576 14 L210.6514 14 L210.6514 8.5312 ZM210.6514 6.4062 L211.5576 6.4062 L211.5576 7.5469 L210.6514 7.5469 L210.6514 6.4062 ZM217.6953 9.5781 Q218.0234 8.9688 218.4922 8.6875 Q218.9609 8.4062 219.6016 8.4062 Q220.4609 8.4062 220.9219 9 Q221.3828 9.5938 221.3828 10.7031 L221.3828 14 L220.4766 14 L220.4766 10.7344 Q220.4766 9.9375 220.2031 9.5625 Q219.9297 9.1875 219.3516 9.1875 Q218.6484 9.1875 218.25 9.6484 Q217.8516 10.1094 217.8516 10.9062 L217.8516 14 L216.9453 14 L216.9453 10.7344 Q216.9453 9.9375 216.6641 9.5625 Q216.3828 9.1875 215.8047 9.1875 Q215.1172 9.1875 214.7109 9.6484 Q214.3047 10.1094 214.3047 10.9062 L214.3047 14 L213.3984 14 L213.3984 8.5312 L214.3047 8.5312 L214.3047 9.375 Q214.6172 8.875 215.0469 8.6406 Q215.4766 8.4062 216.0547 8.4062 Q216.6641 8.4062 217.0781 8.7031 Q217.4922 9 217.6953 9.5781 ZM225.6553 11.25 Q224.5771 11.25 224.1553 11.5 Q223.7334 11.75 223.7334 12.3438 Q223.7334 12.8281 224.0459 13.1094 Q224.3584 13.3906 224.9053 13.3906 Q225.6553 13.3906 226.1084 12.8594 Q226.5615 12.3281 226.5615 11.4531 L226.5615 11.25 L225.6553 11.25 ZM227.4521 10.875 L227.4521 14 L226.5615 14 L226.5615 13.1719 Q226.249 13.6719 225.7881 13.9062 Q225.3271 14.1406 224.6709 14.1406 Q223.8271 14.1406 223.3271 13.6719 Q222.8271 13.2031 222.8271 12.4062 Q222.8271 11.4844 223.4521 11.0156 Q224.0771 10.5469 225.2959 10.5469 L226.5615 10.5469 L226.5615 10.4531 Q226.5615 9.8438 226.1475 9.5 Q225.7334 9.1562 224.999 9.1562 Q224.5303 9.1562 224.085 9.2734 Q223.6396 9.3906 223.2334 9.6094 L223.2334 8.7812 Q223.7334 8.5938 224.1943 8.5 Q224.6553 8.4062 225.0928 8.4062 Q226.2803 8.4062 226.8662 9.0156 Q227.4521 9.625 227.4521 10.875 ZM232.4707 9.375 Q232.3145 9.2812 232.1426 9.2422 Q231.9707 9.2031 231.752 9.2031 Q230.9863 9.2031 230.5801 9.6953 Q230.1738 10.1875 230.1738 11.125 L230.1738 14 L229.2676 14 L229.2676 8.5312 L230.1738 8.5312 L230.1738 9.375 Q230.4551 8.875 230.9082 8.6406 Q231.3613 8.4062 232.0176 8.4062 Q232.1113 8.4062 232.2207 8.4141 Q232.3301 8.4219 232.4707 8.4531 L232.4707 9.375 ZM235.6914 14.5156 Q235.3164 15.4844 234.9492 15.7812 Q234.582 16.0781 233.9883 16.0781 L233.2695 16.0781 L233.2695 15.3281 L233.7852 15.3281 Q234.1602 15.3281 234.3633 15.1562 Q234.5664 14.9844 234.8164 14.3281 L234.9883 13.9062 L232.7695 8.5312 L233.7227 8.5312 L235.4258 12.8125 L237.1445 8.5312 L238.0977 8.5312 L235.6914 14.5156 ZM247.1943 11.0469 L247.1943 11.4844 L243.0537 11.4844 Q243.1162 12.4062 243.6162 12.8906 Q244.1162 13.375 245.0068 13.375 Q245.5225 13.375 246.0146 13.25 Q246.5068 13.125 246.9756 12.875 L246.9756 13.7188 Q246.4912 13.9219 245.9834 14.0312 Q245.4756 14.1406 244.96 14.1406 Q243.6475 14.1406 242.8818 13.3828 Q242.1162 12.625 242.1162 11.3125 Q242.1162 9.9688 242.8428 9.1875 Q243.5693 8.4062 244.8037 8.4062 Q245.9131 8.4062 246.5537 9.1094 Q247.1943 9.8125 247.1943 11.0469 ZM246.2881 10.7812 Q246.2881 10.0469 245.8818 9.6016 Q245.4756 9.1562 244.8193 9.1562 Q244.0537 9.1562 243.6084 9.5859 Q243.1631 10.0156 243.085 10.7812 L246.2881 10.7812 ZM253.2061 10.7031 L253.2061 14 L252.3154 14 L252.3154 10.7344 Q252.3154 9.9531 252.0107 9.5703 Q251.7061 9.1875 251.0967 9.1875 Q250.3779 9.1875 249.9561 9.6484 Q249.5342 10.1094 249.5342 10.9062 L249.5342 14 L248.6279 14 L248.6279 8.5312 L249.5342 8.5312 L249.5342 9.375 Q249.8623 8.8906 250.2998 8.6484 Q250.7373 8.4062 251.2998 8.4062 Q252.2373 8.4062 252.7217 8.9844 Q253.2061 9.5625 253.2061 10.7031 ZM258.6064 9.3594 L258.6064 6.4062 L259.4971 6.4062 L259.4971 14 L258.6064 14 L258.6064 13.1719 Q258.3252 13.6719 257.8877 13.9062 Q257.4502 14.1406 256.8408 14.1406 Q255.8564 14.1406 255.2314 13.3516 Q254.6064 12.5625 254.6064 11.2656 Q254.6064 9.9844 255.2314 9.1953 Q255.8564 8.4062 256.8408 8.4062 Q257.4502 8.4062 257.8877 8.6406 Q258.3252 8.875 258.6064 9.3594 ZM255.5439 11.2656 Q255.5439 12.2656 255.9502 12.8281 Q256.3564 13.3906 257.0752 13.3906 Q257.7783 13.3906 258.1924 12.8281 Q258.6064 12.2656 258.6064 11.2656 Q258.6064 10.2812 258.1924 9.7188 Q257.7783 9.1562 257.0752 9.1562 Q256.3564 9.1562 255.9502 9.7188 Q255.5439 10.2812 255.5439 11.2656 ZM263.4697 9.1562 Q262.751 9.1562 262.3291 9.7188 Q261.9072 10.2812 261.9072 11.2656 Q261.9072 12.25 262.3213 12.8125 Q262.7354 13.375 263.4697 13.375 Q264.1885 13.375 264.6104 12.8125 Q265.0322 12.25 265.0322 11.2656 Q265.0322 10.2969 264.6104 9.7266 Q264.1885 9.1562 263.4697 9.1562 ZM263.4697 8.4062 Q264.6416 8.4062 265.3135 9.1641 Q265.9854 9.9219 265.9854 11.2656 Q265.9854 12.6094 265.3135 13.375 Q264.6416 14.1406 263.4697 14.1406 Q262.2979 14.1406 261.626 13.375 Q260.9541 12.6094 260.9541 11.2656 Q260.9541 9.9219 261.626 9.1641 Q262.2979 8.4062 263.4697 8.4062 ZM271.7285 9.5781 Q272.0566 8.9688 272.5254 8.6875 Q272.9941 8.4062 273.6348 8.4062 Q274.4941 8.4062 274.9551 9 Q275.416 9.5938 275.416 10.7031 L275.416 14 L274.5098 14 L274.5098 10.7344 Q274.5098 9.9375 274.2363 9.5625 Q273.9629 9.1875 273.3848 9.1875 Q272.6816 9.1875 272.2832 9.6484 Q271.8848 10.1094 271.8848 10.9062 L271.8848 14 L270.9785 14 L270.9785 10.7344 Q270.9785 9.9375 270.6973 9.5625 Q270.416 9.1875 269.8379 9.1875 Q269.1504 9.1875 268.7441 9.6484 Q268.3379 10.1094 268.3379 10.9062 L268.3379 14 L267.4316 14 L267.4316 8.5312 L268.3379 8.5312 L268.3379 9.375 Q268.6504 8.875 269.0801 8.6406 Q269.5098 8.4062 270.0879 8.4062 Q270.6973 8.4062 271.1113 8.7031 Q271.5254 9 271.7285 9.5781 ZM281.8916 11.0469 L281.8916 11.4844 L277.751 11.4844 Q277.8135 12.4062 278.3135 12.8906 Q278.8135 13.375 279.7041 13.375 Q280.2197 13.375 280.7119 13.25 Q281.2041 13.125 281.6729 12.875 L281.6729 13.7188 Q281.1885 13.9219 280.6807 14.0312 Q280.1729 14.1406 279.6572 14.1406 Q278.3447 14.1406 277.5791 13.3828 Q276.8135 12.625 276.8135 11.3125 Q276.8135 9.9688 277.54 9.1875 Q278.2666 8.4062 279.501 8.4062 Q280.6104 8.4062 281.251 9.1094 Q281.8916 9.8125 281.8916 11.0469 ZM280.9854 10.7812 Q280.9854 10.0469 280.5791 9.6016 Q280.1729 9.1562 279.5166 9.1562 Q278.751 9.1562 278.3057 9.5859 Q277.8604 10.0156 277.7822 10.7812 L280.9854 10.7812 ZM284.2471 6.9844 L284.2471 8.5312 L286.1064 8.5312 L286.1064 9.2344 L284.2471 9.2344 L284.2471 12.2031 Q284.2471 12.8594 284.4346 13.0547 Q284.6221 13.25 285.1846 13.25 L286.1064 13.25 L286.1064 14 L285.1846 14 Q284.1377 14 283.7393 13.6094 Q283.3408 13.2188 283.3408 12.2031 L283.3408 9.2344 L282.6846 9.2344 L282.6846 8.5312 L283.3408 8.5312 L283.3408 6.9844 L284.2471 6.9844 ZM290.4492 9.375 Q290.293 9.2812 290.1211 9.2422 Q289.9492 9.2031 289.7305 9.2031 Q288.9648 9.2031 288.5586 9.6953 Q288.1523 10.1875 288.1523 11.125 L288.1523 14 L287.2461 14 L287.2461 8.5312 L288.1523 8.5312 L288.1523 9.375 Q288.4336 8.875 288.8867 8.6406 Q289.3398 8.4062 289.9961 8.4062 Q290.0898 8.4062 290.1992 8.4141 Q290.3086 8.4219 290.4492 8.4531 L290.4492 9.375 ZM291.3887 8.5312 L292.2949 8.5312 L292.2949 14 L291.3887 14 L291.3887 8.5312 ZM291.3887 6.4062 L292.2949 6.4062 L292.2949 7.5469 L291.3887 7.5469 L291.3887 6.4062 ZM296.6514 11.25 Q295.5732 11.25 295.1514 11.5 Q294.7295 11.75 294.7295 12.3438 Q294.7295 12.8281 295.042 13.1094 Q295.3545 13.3906 295.9014 13.3906 Q296.6514 13.3906 297.1045 12.8594 Q297.5576 12.3281 297.5576 11.4531 L297.5576 11.25 L296.6514 11.25 ZM298.4482 10.875 L298.4482 14 L297.5576 14 L297.5576 13.1719 Q297.2451 13.6719 296.7842 13.9062 Q296.3232 14.1406 295.667 14.1406 Q294.8232 14.1406 294.3232 13.6719 Q293.8232 13.2031 293.8232 12.4062 Q293.8232 11.4844 294.4482 11.0156 Q295.0732 10.5469 296.292 10.5469 L297.5576 10.5469 L297.5576 10.4531 Q297.5576 9.8438 297.1436 9.5 Q296.7295 9.1562 295.9951 9.1562 Q295.5264 9.1562 295.0811 9.2734 Q294.6357 9.3906 294.2295 9.6094 L294.2295 8.7812 Q294.7295 8.5938 295.1904 8.5 Q295.6514 8.4062 296.0889 8.4062 Q297.2764 8.4062 297.8623 9.0156 Q298.4482 9.625 298.4482 10.875 ZM300.2949 6.4062 L301.2012 6.4062 L301.2012 14 L300.2949 14 L300.2949 6.4062 ZM309.7363 8.6875 L309.7363 9.5469 Q309.3613 9.3438 308.9551 9.25 Q308.5488 9.1562 308.0957 9.1562 Q307.4395 9.1562 307.1035 9.3594 Q306.7676 9.5625 306.7676 9.9688 Q306.7676 10.2812 307.002 10.4609 Q307.2363 10.6406 307.9707 10.7969 L308.2676 10.875 Q309.2363 11.0781 309.6348 11.4531 Q310.0332 11.8281 310.0332 12.4844 Q310.0332 13.25 309.4316 13.6953 Q308.8301 14.1406 307.7832 14.1406 Q307.3301 14.1406 306.8535 14.0547 Q306.377 13.9688 305.8613 13.7969 L305.8613 12.875 Q306.3613 13.125 306.8379 13.2578 Q307.3145 13.3906 307.7988 13.3906 Q308.4238 13.3906 308.7676 13.1719 Q309.1113 12.9531 309.1113 12.5625 Q309.1113 12.1875 308.8691 11.9922 Q308.627 11.7969 307.7832 11.625 L307.4707 11.5469 Q306.6426 11.375 306.2676 11.0078 Q305.8926 10.6406 305.8926 10.0156 Q305.8926 9.2344 306.4395 8.8203 Q306.9863 8.4062 308.002 8.4062 Q308.4863 8.4062 308.9316 8.4766 Q309.377 8.5469 309.7363 8.6875 ZM312.3525 6.9844 L312.3525 8.5312 L314.2119 8.5312 L314.2119 9.2344 L312.3525 9.2344 L312.3525 12.2031 Q312.3525 12.8594 312.54 13.0547 Q312.7275 13.25 313.29 13.25 L314.2119 13.25 L314.2119 14 L313.29 14 Q312.2432 14 311.8447 13.6094 Q311.4463 13.2188 311.4463 12.2031 L311.4463 9.2344 L310.79 9.2344 L310.79 8.5312 L311.4463 8.5312 L311.4463 6.9844 L312.3525 6.9844 ZM318.5547 9.375 Q318.3984 9.2812 318.2266 9.2422 Q318.0547 9.2031 317.8359 9.2031 Q317.0703 9.2031 316.6641 9.6953 Q316.2578 10.1875 316.2578 11.125 L316.2578 14 L315.3516 14 L315.3516 8.5312 L316.2578 8.5312 L316.2578 9.375 Q316.5391 8.875 316.9922 8.6406 Q317.4453 8.4062 318.1016 8.4062 Q318.1953 8.4062 318.3047 8.4141 Q318.4141 8.4219 318.5547 8.4531 L318.5547 9.375 ZM321.6191 9.1562 Q320.9004 9.1562 320.4785 9.7188 Q320.0566 10.2812 320.0566 11.2656 Q320.0566 12.25 320.4707 12.8125 Q320.8848 13.375 321.6191 13.375 Q322.3379 13.375 322.7598 12.8125 Q323.1816 12.25 323.1816 11.2656 Q323.1816 10.2969 322.7598 9.7266 Q322.3379 9.1562 321.6191 9.1562 ZM321.6191 8.4062 Q322.791 8.4062 323.4629 9.1641 Q324.1348 9.9219 324.1348 11.2656 Q324.1348 12.6094 323.4629 13.375 Q322.791 14.1406 321.6191 14.1406 Q320.4473 14.1406 319.7754 13.375 Q319.1035 12.6094 319.1035 11.2656 Q319.1035 9.9219 319.7754 9.1641 Q320.4473 8.4062 321.6191 8.4062 ZM329.8779 9.5781 Q330.2061 8.9688 330.6748 8.6875 Q331.1436 8.4062 331.7842 8.4062 Q332.6436 8.4062 333.1045 9 Q333.5654 9.5938 333.5654 10.7031 L333.5654 14 L332.6592 14 L332.6592 10.7344 Q332.6592 9.9375 332.3857 9.5625 Q332.1123 9.1875 331.5342 9.1875 Q330.8311 9.1875 330.4326 9.6484 Q330.0342 10.1094 330.0342 10.9062 L330.0342 14 L329.1279 14 L329.1279 10.7344 Q329.1279 9.9375 328.8467 9.5625 Q328.5654 9.1875 327.9873 9.1875 Q327.2998 9.1875 326.8936 9.6484 Q326.4873 10.1094 326.4873 10.9062 L326.4873 14 L325.5811 14 L325.5811 8.5312 L326.4873 8.5312 L326.4873 9.375 Q326.7998 8.875 327.2295 8.6406 Q327.6592 8.4062 328.2373 8.4062 Q328.8467 8.4062 329.2607 8.7031 Q329.6748 9 329.8779 9.5781 ZM337.8379 11.25 Q336.7598 11.25 336.3379 11.5 Q335.916 11.75 335.916 12.3438 Q335.916 12.8281 336.2285 13.1094 Q336.541 13.3906 337.0879 13.3906 Q337.8379 13.3906 338.291 12.8594 Q338.7441 12.3281 338.7441 11.4531 L338.7441 11.25 L337.8379 11.25 ZM339.6348 10.875 L339.6348 14 L338.7441 14 L338.7441 13.1719 Q338.4316 13.6719 337.9707 13.9062 Q337.5098 14.1406 336.8535 14.1406 Q336.0098 14.1406 335.5098 13.6719 Q335.0098 13.2031 335.0098 12.4062 Q335.0098 11.4844 335.6348 11.0156 Q336.2598 10.5469 337.4785 10.5469 L338.7441 10.5469 L338.7441 10.4531 Q338.7441 9.8438 338.3301 9.5 Q337.916 9.1562 337.1816 9.1562 Q336.7129 9.1562 336.2676 9.2734 Q335.8223 9.3906 335.416 9.6094 L335.416 8.7812 Q335.916 8.5938 336.377 8.5 Q336.8379 8.4062 337.2754 8.4062 Q338.4629 8.4062 339.0488 9.0156 Q339.6348 9.625 339.6348 10.875 ZM341.4814 6.4062 L342.3877 6.4062 L342.3877 14 L341.4814 14 L341.4814 6.4062 ZM351.376 8.7344 L351.376 9.5781 Q351.001 9.375 350.6182 9.2656 Q350.2354 9.1562 349.8447 9.1562 Q348.9697 9.1562 348.4854 9.7109 Q348.001 10.2656 348.001 11.2656 Q348.001 12.2656 348.4854 12.8203 Q348.9697 13.375 349.8447 13.375 Q350.2354 13.375 350.6182 13.2734 Q351.001 13.1719 351.376 12.9531 L351.376 13.7969 Q351.001 13.9688 350.6025 14.0547 Q350.2041 14.1406 349.751 14.1406 Q348.501 14.1406 347.7744 13.3672 Q347.0479 12.5938 347.0479 11.2656 Q347.0479 9.9375 347.7822 9.1719 Q348.5166 8.4062 349.7979 8.4062 Q350.2197 8.4062 350.6104 8.4844 Q351.001 8.5625 351.376 8.7344 ZM357.624 11.0469 L357.624 11.4844 L353.4834 11.4844 Q353.5459 12.4062 354.0459 12.8906 Q354.5459 13.375 355.4365 13.375 Q355.9521 13.375 356.4443 13.25 Q356.9365 13.125 357.4053 12.875 L357.4053 13.7188 Q356.9209 13.9219 356.4131 14.0312 Q355.9053 14.1406 355.3896 14.1406 Q354.0771 14.1406 353.3115 13.3828 Q352.5459 12.625 352.5459 11.3125 Q352.5459 9.9688 353.2725 9.1875 Q353.999 8.4062 355.2334 8.4062 Q356.3428 8.4062 356.9834 9.1094 Q357.624 9.8125 357.624 11.0469 ZM356.7178 10.7812 Q356.7178 10.0469 356.3115 9.6016 Q355.9053 9.1562 355.249 9.1562 Q354.4834 9.1562 354.0381 9.5859 Q353.5928 10.0156 353.5146 10.7812 L356.7178 10.7812 ZM359.0889 6.4062 L359.9951 6.4062 L359.9951 14 L359.0889 14 L359.0889 6.4062 ZM361.8672 6.4062 L362.7734 6.4062 L362.7734 14 L361.8672 14 L361.8672 6.4062 ZM371.4336 9.3594 L371.4336 6.4062 L372.3242 6.4062 L372.3242 14 L371.4336 14 L371.4336 13.1719 Q371.1523 13.6719 370.7148 13.9062 Q370.2773 14.1406 369.668 14.1406 Q368.6836 14.1406 368.0586 13.3516 Q367.4336 12.5625 367.4336 11.2656 Q367.4336 9.9844 368.0586 9.1953 Q368.6836 8.4062 369.668 8.4062 Q370.2773 8.4062 370.7148 8.6406 Q371.1523 8.875 371.4336 9.3594 ZM368.3711 11.2656 Q368.3711 12.2656 368.7773 12.8281 Q369.1836 13.3906 369.9023 13.3906 Q370.6055 13.3906 371.0195 12.8281 Q371.4336 12.2656 371.4336 11.2656 Q371.4336 10.2812 371.0195 9.7188 Q370.6055 9.1562 369.9023 9.1562 Q369.1836 9.1562 368.7773 9.7188 Q368.3711 10.2812 368.3711 11.2656 ZM374.1719 8.5312 L375.0781 8.5312 L375.0781 14 L374.1719 14 L374.1719 8.5312 ZM374.1719 6.4062 L375.0781 6.4062 L375.0781 7.5469 L374.1719 7.5469 L374.1719 6.4062 ZM379.7314 6.4062 L379.7314 7.1562 L378.8721 7.1562 Q378.3877 7.1562 378.2002 7.3516 Q378.0127 7.5469 378.0127 8.0469 L378.0127 8.5312 L379.4814 8.5312 L379.4814 9.2344 L378.0127 9.2344 L378.0127 14 L377.1064 14 L377.1064 9.2344 L376.2471 9.2344 L376.2471 8.5312 L377.1064 8.5312 L377.1064 8.1562 Q377.1064 7.2344 377.5283 6.8203 Q377.9502 6.4062 378.8721 6.4062 L379.7314 6.4062 ZM383.252 6.4062 L383.252 7.1562 L382.3926 7.1562 Q381.9082 7.1562 381.7207 7.3516 Q381.5332 7.5469 381.5332 8.0469 L381.5332 8.5312 L383.002 8.5312 L383.002 9.2344 L381.5332 9.2344 L381.5332 14 L380.627 14 L380.627 9.2344 L379.7676 9.2344 L379.7676 8.5312 L380.627 8.5312 L380.627 8.1562 Q380.627 7.2344 381.0488 6.8203 Q381.4707 6.4062 382.3926 6.4062 L383.252 6.4062 ZM388.6787 11.0469 L388.6787 11.4844 L384.5381 11.4844 Q384.6006 12.4062 385.1006 12.8906 Q385.6006 13.375 386.4912 13.375 Q387.0068 13.375 387.499 13.25 Q387.9912 13.125 388.46 12.875 L388.46 13.7188 Q387.9756 13.9219 387.4678 14.0312 Q386.96 14.1406 386.4443 14.1406 Q385.1318 14.1406 384.3662 13.3828 Q383.6006 12.625 383.6006 11.3125 Q383.6006 9.9688 384.3271 9.1875 Q385.0537 8.4062 386.2881 8.4062 Q387.3975 8.4062 388.0381 9.1094 Q388.6787 9.8125 388.6787 11.0469 ZM387.7725 10.7812 Q387.7725 10.0469 387.3662 9.6016 Q386.96 9.1562 386.3037 9.1562 Q385.5381 9.1562 385.0928 9.5859 Q384.6475 10.0156 384.5693 10.7812 L387.7725 10.7812 ZM393.3154 9.375 Q393.1592 9.2812 392.9873 9.2422 Q392.8154 9.2031 392.5967 9.2031 Q391.8311 9.2031 391.4248 9.6953 Q391.0186 10.1875 391.0186 11.125 L391.0186 14 L390.1123 14 L390.1123 8.5312 L391.0186 8.5312 L391.0186 9.375 Q391.2998 8.875 391.7529 8.6406 Q392.2061 8.4062 392.8623 8.4062 Q392.9561 8.4062 393.0654 8.4141 Q393.1748 8.4219 393.3154 8.4531 L393.3154 9.375 ZM398.9424 11.0469 L398.9424 11.4844 L394.8018 11.4844 Q394.8643 12.4062 395.3643 12.8906 Q395.8643 13.375 396.7549 13.375 Q397.2705 13.375 397.7627 13.25 Q398.2549 13.125 398.7236 12.875 L398.7236 13.7188 Q398.2393 13.9219 397.7314 14.0312 Q397.2236 14.1406 396.708 14.1406 Q395.3955 14.1406 394.6299 13.3828 Q393.8643 12.625 393.8643 11.3125 Q393.8643 9.9688 394.5908 9.1875 Q395.3174 8.4062 396.5518 8.4062 Q397.6611 8.4062 398.3018 9.1094 Q398.9424 9.8125 398.9424 11.0469 ZM398.0361 10.7812 Q398.0361 10.0469 397.6299 9.6016 Q397.2236 9.1562 396.5674 9.1562 Q395.8018 9.1562 395.3564 9.5859 Q394.9111 10.0156 394.833 10.7812 L398.0361 10.7812 ZM404.9541 10.7031 L404.9541 14 L404.0635 14 L404.0635 10.7344 Q404.0635 9.9531 403.7588 9.5703 Q403.4541 9.1875 402.8447 9.1875 Q402.126 9.1875 401.7041 9.6484 Q401.2822 10.1094 401.2822 10.9062 L401.2822 14 L400.376 14 L400.376 8.5312 L401.2822 8.5312 L401.2822 9.375 Q401.6104 8.8906 402.0479 8.6484 Q402.4854 8.4062 403.0479 8.4062 Q403.9854 8.4062 404.4697 8.9844 Q404.9541 9.5625 404.9541 10.7031 ZM407.6357 6.9844 L407.6357 8.5312 L409.4951 8.5312 L409.4951 9.2344 L407.6357 9.2344 L407.6357 12.2031 Q407.6357 12.8594 407.8232 13.0547 Q408.0107 13.25 408.5732 13.25 L409.4951 13.25 L409.4951 14 L408.5732 14 Q407.5264 14 407.1279 13.6094 Q406.7295 13.2188 406.7295 12.2031 L406.7295 9.2344 L406.0732 9.2344 L406.0732 8.5312 L406.7295 8.5312 L406.7295 6.9844 L407.6357 6.9844 ZM410.666 8.5312 L411.5723 8.5312 L411.5723 14 L410.666 14 L410.666 8.5312 ZM410.666 6.4062 L411.5723 6.4062 L411.5723 7.5469 L410.666 7.5469 L410.666 6.4062 ZM415.9287 11.25 Q414.8506 11.25 414.4287 11.5 Q414.0068 11.75 414.0068 12.3438 Q414.0068 12.8281 414.3193 13.1094 Q414.6318 13.3906 415.1787 13.3906 Q415.9287 13.3906 416.3818 12.8594 Q416.835 12.3281 416.835 11.4531 L416.835 11.25 L415.9287 11.25 ZM417.7256 10.875 L417.7256 14 L416.835 14 L416.835 13.1719 Q416.5225 13.6719 416.0615 13.9062 Q415.6006 14.1406 414.9443 14.1406 Q414.1006 14.1406 413.6006 13.6719 Q413.1006 13.2031 413.1006 12.4062 Q413.1006 11.4844 413.7256 11.0156 Q414.3506 10.5469 415.5693 10.5469 L416.835 10.5469 L416.835 10.4531 Q416.835 9.8438 416.4209 9.5 Q416.0068 9.1562 415.2725 9.1562 Q414.8037 9.1562 414.3584 9.2734 Q413.9131 9.3906 413.5068 9.6094 L413.5068 8.7812 Q414.0068 8.5938 414.4678 8.5 Q414.9287 8.4062 415.3662 8.4062 Q416.5537 8.4062 417.1396 9.0156 Q417.7256 9.625 417.7256 10.875 ZM420.4629 6.9844 L420.4629 8.5312 L422.3223 8.5312 L422.3223 9.2344 L420.4629 9.2344 L420.4629 12.2031 Q420.4629 12.8594 420.6504 13.0547 Q420.8379 13.25 421.4004 13.25 L422.3223 13.25 L422.3223 14 L421.4004 14 Q420.3535 14 419.9551 13.6094 Q419.5566 13.2188 419.5566 12.2031 L419.5566 9.2344 L418.9004 9.2344 L418.9004 8.5312 L419.5566 8.5312 L419.5566 6.9844 L420.4629 6.9844 ZM423.4932 8.5312 L424.3994 8.5312 L424.3994 14 L423.4932 14 L423.4932 8.5312 ZM423.4932 6.4062 L424.3994 6.4062 L424.3994 7.5469 L423.4932 7.5469 L423.4932 6.4062 ZM428.3965 9.1562 Q427.6777 9.1562 427.2559 9.7188 Q426.834 10.2812 426.834 11.2656 Q426.834 12.25 427.248 12.8125 Q427.6621 13.375 428.3965 13.375 Q429.1152 13.375 429.5371 12.8125 Q429.959 12.25 429.959 11.2656 Q429.959 10.2969 429.5371 9.7266 Q429.1152 9.1562 428.3965 9.1562 ZM428.3965 8.4062 Q429.5684 8.4062 430.2402 9.1641 Q430.9121 9.9219 430.9121 11.2656 Q430.9121 12.6094 430.2402 13.375 Q429.5684 14.1406 428.3965 14.1406 Q427.2246 14.1406 426.5527 13.375 Q425.8809 12.6094 425.8809 11.2656 Q425.8809 9.9219 426.5527 9.1641 Q427.2246 8.4062 428.3965 8.4062 ZM436.9365 10.7031 L436.9365 14 L436.0459 14 L436.0459 10.7344 Q436.0459 9.9531 435.7412 9.5703 Q435.4365 9.1875 434.8271 9.1875 Q434.1084 9.1875 433.6865 9.6484 Q433.2646 10.1094 433.2646 10.9062 L433.2646 14 L432.3584 14 L432.3584 8.5312 L433.2646 8.5312 L433.2646 9.375 Q433.5928 8.8906 434.0303 8.6484 Q434.4678 8.4062 435.0303 8.4062 Q435.9678 8.4062 436.4521 8.9844 Q436.9365 9.5625 436.9365 10.7031 Z"
         style="clip-path:url(#clipPath2); stroke:none;"
         clip-path="url(#clipPath2)"
         id="path103" />
      <path
         d="M4.25 21.9375 Q3.3906 21.9375 2.9141 22.5703 Q2.4375 23.2031 2.4375 24.3594 Q2.4375 25.5156 2.9141 26.1484 Q3.3906 26.7812 4.25 26.7812 Q5.1094 26.7812 5.5859 26.1484 Q6.0625 25.5156 6.0625 24.3594 Q6.0625 23.2031 5.5859 22.5703 Q5.1094 21.9375 4.25 21.9375 ZM4.25 20.5781 Q6 20.5781 7 21.5859 Q8 22.5938 8 24.3594 Q8 26.125 7 27.1328 Q6 28.1406 4.25 28.1406 Q2.5 28.1406 1.5 27.1328 Q0.5 26.125 0.5 24.3594 Q0.5 22.5938 1.5 21.5859 Q2.5 20.5781 4.25 20.5781 ZM13.4072 24.0156 Q13.1729 23.9062 12.9463 23.8594 Q12.7197 23.8125 12.4854 23.8125 Q11.8135 23.8125 11.4541 24.2422 Q11.0947 24.6719 11.0947 25.4844 L11.0947 28 L9.3447 28 L9.3447 22.5312 L11.0947 22.5312 L11.0947 23.4219 Q11.4229 22.8906 11.8604 22.6484 Q12.2979 22.4062 12.9072 22.4062 Q13.001 22.4062 13.1025 22.4062 Q13.2041 22.4062 13.3916 22.4375 L13.4072 24.0156 ZM17.9951 27.0781 Q17.6357 27.5469 17.1982 27.7734 Q16.7607 28 16.1982 28 Q15.1982 28 14.542 27.2109 Q13.8857 26.4219 13.8857 25.2031 Q13.8857 23.9688 14.542 23.1875 Q15.1982 22.4062 16.1982 22.4062 Q16.7607 22.4062 17.1982 22.6328 Q17.6357 22.8594 17.9951 23.3438 L17.9951 22.5312 L19.7451 22.5312 L19.7451 27.4531 Q19.7451 28.7656 18.917 29.4609 Q18.0889 30.1562 16.5107 30.1562 Q15.9951 30.1562 15.5186 30.0781 Q15.042 30 14.5576 29.8438 L14.5576 28.4844 Q15.0107 28.75 15.4482 28.875 Q15.8857 29 16.3389 29 Q17.1982 29 17.5967 28.625 Q17.9951 28.25 17.9951 27.4531 L17.9951 27.0781 ZM16.8389 23.6719 Q16.292 23.6719 15.9951 24.0703 Q15.6982 24.4688 15.6982 25.2031 Q15.6982 25.9531 15.9873 26.3438 Q16.2764 26.7344 16.8389 26.7344 Q17.3857 26.7344 17.6904 26.3281 Q17.9951 25.9219 17.9951 25.2031 Q17.9951 24.4688 17.6904 24.0703 Q17.3857 23.6719 16.8389 23.6719 ZM23.8877 25.5312 Q23.3408 25.5312 23.0596 25.7188 Q22.7783 25.9062 22.7783 26.2656 Q22.7783 26.6094 23.0049 26.7969 Q23.2314 26.9844 23.6221 26.9844 Q24.1221 26.9844 24.458 26.625 Q24.7939 26.2656 24.7939 25.7344 L24.7939 25.5312 L23.8877 25.5312 ZM26.5596 24.875 L26.5596 28 L24.7939 28 L24.7939 27.1875 Q24.4346 27.6875 23.9971 27.9141 Q23.5596 28.1406 22.9346 28.1406 Q22.0752 28.1406 21.5518 27.6484 Q21.0283 27.1562 21.0283 26.3594 Q21.0283 25.3906 21.6846 24.9453 Q22.3408 24.5 23.7627 24.5 L24.7939 24.5 L24.7939 24.3594 Q24.7939 23.9531 24.4658 23.7578 Q24.1377 23.5625 23.4502 23.5625 Q22.8877 23.5625 22.4033 23.6719 Q21.9189 23.7812 21.4971 24.0156 L21.4971 22.6719 Q22.0596 22.5469 22.6299 22.4766 Q23.2002 22.4062 23.7627 22.4062 Q25.2471 22.4062 25.9033 22.9844 Q26.5596 23.5625 26.5596 24.875 ZM33.6826 24.6719 L33.6826 28 L31.917 28 L31.917 27.4531 L31.917 25.4531 Q31.917 24.75 31.8857 24.4766 Q31.8545 24.2031 31.7764 24.0781 Q31.6826 23.9062 31.5029 23.8125 Q31.3232 23.7188 31.1045 23.7188 Q30.5576 23.7188 30.2451 24.1406 Q29.9326 24.5625 29.9326 25.3125 L29.9326 28 L28.1826 28 L28.1826 22.5312 L29.9326 22.5312 L29.9326 23.3281 Q30.3232 22.8594 30.7686 22.6328 Q31.2139 22.4062 31.7451 22.4062 Q32.6982 22.4062 33.1904 22.9844 Q33.6826 23.5625 33.6826 24.6719 ZM35.3018 22.5312 L37.0518 22.5312 L37.0518 28 L35.3018 28 L35.3018 22.5312 ZM35.3018 20.4062 L37.0518 20.4062 L37.0518 21.8281 L35.3018 21.8281 L35.3018 20.4062 ZM42.9951 22.7031 L42.9951 24.0312 Q42.4326 23.7969 41.9092 23.6797 Q41.3857 23.5625 40.9326 23.5625 Q40.4326 23.5625 40.1904 23.6875 Q39.9482 23.8125 39.9482 24.0625 Q39.9482 24.2812 40.1279 24.3906 Q40.3076 24.5 40.792 24.5625 L41.0889 24.5938 Q42.4326 24.7656 42.9014 25.1562 Q43.3701 25.5469 43.3701 26.3906 Q43.3701 27.2656 42.7217 27.7031 Q42.0732 28.1406 40.792 28.1406 Q40.2607 28.1406 39.6826 28.0547 Q39.1045 27.9688 38.4795 27.7969 L38.4795 26.4688 Q39.0107 26.7188 39.5576 26.8516 Q40.1045 26.9844 40.667 26.9844 Q41.1826 26.9844 41.4404 26.8438 Q41.6982 26.7031 41.6982 26.4219 Q41.6982 26.1875 41.5264 26.0703 Q41.3545 25.9531 40.8232 25.8906 L40.5107 25.8438 Q39.3389 25.7031 38.8701 25.3047 Q38.4014 24.9062 38.4014 24.1094 Q38.4014 23.2344 38.9951 22.8203 Q39.5889 22.4062 40.8232 22.4062 Q41.3076 22.4062 41.8389 22.4766 Q42.3701 22.5469 42.9951 22.7031 ZM49.7441 23.4375 Q50.0723 22.9375 50.5332 22.6719 Q50.9941 22.4062 51.541 22.4062 Q52.4785 22.4062 52.9707 22.9844 Q53.4629 23.5625 53.4629 24.6719 L53.4629 28 L51.7129 28 L51.7129 25.1406 Q51.7129 25.0781 51.7129 25.0156 Q51.7129 24.9531 51.7129 24.8281 Q51.7129 24.2344 51.5488 23.9766 Q51.3848 23.7188 50.9941 23.7188 Q50.4941 23.7188 50.2285 24.125 Q49.9629 24.5312 49.9473 25.3125 L49.9473 28 L48.1816 28 L48.1816 25.1406 Q48.1816 24.2344 48.0254 23.9766 Q47.8691 23.7188 47.4785 23.7188 Q46.9785 23.7188 46.7051 24.1328 Q46.4316 24.5469 46.4316 25.3125 L46.4316 28 L44.666 28 L44.666 22.5312 L46.4316 22.5312 L46.4316 23.3281 Q46.7441 22.875 47.166 22.6406 Q47.5879 22.4062 48.0879 22.4062 Q48.6504 22.4062 49.0879 22.6797 Q49.5254 22.9531 49.7441 23.4375 ZM55.3828 22.5312 L57.1328 22.5312 L57.1328 24.4219 L55.3828 24.4219 L55.3828 22.5312 ZM55.3828 26.1094 L57.1328 26.1094 L57.1328 28 L55.3828 28 L55.3828 26.1094 Z"
         style="clip-path:url(#clipPath2); stroke:none;"
         clip-path="url(#clipPath2)"
         id="path105" />
      <path
         d="M66.9844 20.7031 L67.9688 20.7031 L67.9688 23.7031 L71.5469 23.7031 L71.5469 20.7031 L72.5312 20.7031 L72.5312 28 L71.5469 28 L71.5469 24.5312 L67.9688 24.5312 L67.9688 28 L66.9844 28 L66.9844 20.7031 ZM76.582 23.1562 Q75.8633 23.1562 75.4414 23.7188 Q75.0195 24.2812 75.0195 25.2656 Q75.0195 26.25 75.4336 26.8125 Q75.8477 27.375 76.582 27.375 Q77.3008 27.375 77.7227 26.8125 Q78.1445 26.25 78.1445 25.2656 Q78.1445 24.2969 77.7227 23.7266 Q77.3008 23.1562 76.582 23.1562 ZM76.582 22.4062 Q77.7539 22.4062 78.4258 23.1641 Q79.0977 23.9219 79.0977 25.2656 Q79.0977 26.6094 78.4258 27.375 Q77.7539 28.1406 76.582 28.1406 Q75.4102 28.1406 74.7383 27.375 Q74.0664 26.6094 74.0664 25.2656 Q74.0664 23.9219 74.7383 23.1641 Q75.4102 22.4062 76.582 22.4062 ZM84.8408 23.5781 Q85.1689 22.9688 85.6377 22.6875 Q86.1064 22.4062 86.7471 22.4062 Q87.6064 22.4062 88.0674 23 Q88.5283 23.5938 88.5283 24.7031 L88.5283 28 L87.6221 28 L87.6221 24.7344 Q87.6221 23.9375 87.3486 23.5625 Q87.0752 23.1875 86.4971 23.1875 Q85.7939 23.1875 85.3955 23.6484 Q84.9971 24.1094 84.9971 24.9062 L84.9971 28 L84.0908 28 L84.0908 24.7344 Q84.0908 23.9375 83.8096 23.5625 Q83.5283 23.1875 82.9502 23.1875 Q82.2627 23.1875 81.8564 23.6484 Q81.4502 24.1094 81.4502 24.9062 L81.4502 28 L80.5439 28 L80.5439 22.5312 L81.4502 22.5312 L81.4502 23.375 Q81.7627 22.875 82.1924 22.6406 Q82.6221 22.4062 83.2002 22.4062 Q83.8096 22.4062 84.2236 22.7031 Q84.6377 23 84.8408 23.5781 ZM92.4414 23.1562 Q91.7227 23.1562 91.3008 23.7188 Q90.8789 24.2812 90.8789 25.2656 Q90.8789 26.25 91.293 26.8125 Q91.707 27.375 92.4414 27.375 Q93.1602 27.375 93.582 26.8125 Q94.0039 26.25 94.0039 25.2656 Q94.0039 24.2969 93.582 23.7266 Q93.1602 23.1562 92.4414 23.1562 ZM92.4414 22.4062 Q93.6133 22.4062 94.2852 23.1641 Q94.957 23.9219 94.957 25.2656 Q94.957 26.6094 94.2852 27.375 Q93.6133 28.1406 92.4414 28.1406 Q91.2695 28.1406 90.5977 27.375 Q89.9258 26.6094 89.9258 25.2656 Q89.9258 23.9219 90.5977 23.1641 Q91.2695 22.4062 92.4414 22.4062 ZM103.0977 22.6875 L103.0977 23.5469 Q102.7227 23.3438 102.3164 23.25 Q101.9102 23.1562 101.457 23.1562 Q100.8008 23.1562 100.4648 23.3594 Q100.1289 23.5625 100.1289 23.9688 Q100.1289 24.2812 100.3633 24.4609 Q100.5977 24.6406 101.332 24.7969 L101.6289 24.875 Q102.5977 25.0781 102.9961 25.4531 Q103.3945 25.8281 103.3945 26.4844 Q103.3945 27.25 102.793 27.6953 Q102.1914 28.1406 101.1445 28.1406 Q100.6914 28.1406 100.2148 28.0547 Q99.7383 27.9688 99.2227 27.7969 L99.2227 26.875 Q99.7227 27.125 100.1992 27.2578 Q100.6758 27.3906 101.1602 27.3906 Q101.7852 27.3906 102.1289 27.1719 Q102.4727 26.9531 102.4727 26.5625 Q102.4727 26.1875 102.2305 25.9922 Q101.9883 25.7969 101.1445 25.625 L100.832 25.5469 Q100.0039 25.375 99.6289 25.0078 Q99.2539 24.6406 99.2539 24.0156 Q99.2539 23.2344 99.8008 22.8203 Q100.3477 22.4062 101.3633 22.4062 Q101.8477 22.4062 102.293 22.4766 Q102.7383 22.5469 103.0977 22.6875 ZM107.3076 25.25 Q106.2295 25.25 105.8076 25.5 Q105.3857 25.75 105.3857 26.3438 Q105.3857 26.8281 105.6982 27.1094 Q106.0107 27.3906 106.5576 27.3906 Q107.3076 27.3906 107.7607 26.8594 Q108.2139 26.3281 108.2139 25.4531 L108.2139 25.25 L107.3076 25.25 ZM109.1045 24.875 L109.1045 28 L108.2139 28 L108.2139 27.1719 Q107.9014 27.6719 107.4404 27.9062 Q106.9795 28.1406 106.3232 28.1406 Q105.4795 28.1406 104.9795 27.6719 Q104.4795 27.2031 104.4795 26.4062 Q104.4795 25.4844 105.1045 25.0156 Q105.7295 24.5469 106.9482 24.5469 L108.2139 24.5469 L108.2139 24.4531 Q108.2139 23.8438 107.7998 23.5 Q107.3857 23.1562 106.6514 23.1562 Q106.1826 23.1562 105.7373 23.2734 Q105.292 23.3906 104.8857 23.6094 L104.8857 22.7812 Q105.3857 22.5938 105.8467 22.5 Q106.3076 22.4062 106.7451 22.4062 Q107.9326 22.4062 108.5186 23.0156 Q109.1045 23.625 109.1045 24.875 ZM111.8262 27.1719 L111.8262 30.0781 L110.9199 30.0781 L110.9199 22.5312 L111.8262 22.5312 L111.8262 23.3594 Q112.1074 22.875 112.5371 22.6406 Q112.9668 22.4062 113.5762 22.4062 Q114.5762 22.4062 115.1934 23.1953 Q115.8105 23.9844 115.8105 25.2656 Q115.8105 26.5625 115.1934 27.3516 Q114.5762 28.1406 113.5762 28.1406 Q112.9668 28.1406 112.5371 27.9062 Q112.1074 27.6719 111.8262 27.1719 ZM114.8887 25.2656 Q114.8887 24.2812 114.4746 23.7188 Q114.0605 23.1562 113.3574 23.1562 Q112.6387 23.1562 112.2324 23.7188 Q111.8262 24.2812 111.8262 25.2656 Q111.8262 26.2656 112.2324 26.8281 Q112.6387 27.3906 113.3574 27.3906 Q114.0605 27.3906 114.4746 26.8281 Q114.8887 26.2656 114.8887 25.2656 ZM117.2988 22.5312 L118.2051 22.5312 L118.2051 28 L117.2988 28 L117.2988 22.5312 ZM117.2988 20.4062 L118.2051 20.4062 L118.2051 21.5469 L117.2988 21.5469 L117.2988 20.4062 ZM124.7646 25.0469 L124.7646 25.4844 L120.624 25.4844 Q120.6865 26.4062 121.1865 26.8906 Q121.6865 27.375 122.5771 27.375 Q123.0928 27.375 123.585 27.25 Q124.0771 27.125 124.5459 26.875 L124.5459 27.7188 Q124.0615 27.9219 123.5537 28.0312 Q123.0459 28.1406 122.5303 28.1406 Q121.2178 28.1406 120.4521 27.3828 Q119.6865 26.625 119.6865 25.3125 Q119.6865 23.9688 120.4131 23.1875 Q121.1396 22.4062 122.374 22.4062 Q123.4834 22.4062 124.124 23.1094 Q124.7646 23.8125 124.7646 25.0469 ZM123.8584 24.7812 Q123.8584 24.0469 123.4521 23.6016 Q123.0459 23.1562 122.3896 23.1562 Q121.624 23.1562 121.1787 23.5859 Q120.7334 24.0156 120.6553 24.7812 L123.8584 24.7812 ZM130.7764 24.7031 L130.7764 28 L129.8857 28 L129.8857 24.7344 Q129.8857 23.9531 129.5811 23.5703 Q129.2764 23.1875 128.667 23.1875 Q127.9482 23.1875 127.5264 23.6484 Q127.1045 24.1094 127.1045 24.9062 L127.1045 28 L126.1982 28 L126.1982 22.5312 L127.1045 22.5312 L127.1045 23.375 Q127.4326 22.8906 127.8701 22.6484 Q128.3076 22.4062 128.8701 22.4062 Q129.8076 22.4062 130.292 22.9844 Q130.7764 23.5625 130.7764 24.7031 ZM136.0518 22.6875 L136.0518 23.5469 Q135.6768 23.3438 135.2705 23.25 Q134.8643 23.1562 134.4111 23.1562 Q133.7549 23.1562 133.4189 23.3594 Q133.083 23.5625 133.083 23.9688 Q133.083 24.2812 133.3174 24.4609 Q133.5518 24.6406 134.2861 24.7969 L134.583 24.875 Q135.5518 25.0781 135.9502 25.4531 Q136.3486 25.8281 136.3486 26.4844 Q136.3486 27.25 135.7471 27.6953 Q135.1455 28.1406 134.0986 28.1406 Q133.6455 28.1406 133.1689 28.0547 Q132.6924 27.9688 132.1768 27.7969 L132.1768 26.875 Q132.6768 27.125 133.1533 27.2578 Q133.6299 27.3906 134.1143 27.3906 Q134.7393 27.3906 135.083 27.1719 Q135.4268 26.9531 135.4268 26.5625 Q135.4268 26.1875 135.1846 25.9922 Q134.9424 25.7969 134.0986 25.625 L133.7861 25.5469 Q132.958 25.375 132.583 25.0078 Q132.208 24.6406 132.208 24.0156 Q132.208 23.2344 132.7549 22.8203 Q133.3018 22.4062 134.3174 22.4062 Q134.8018 22.4062 135.2471 22.4766 Q135.6924 22.5469 136.0518 22.6875 Z"
         style="clip-path:url(#clipPath2); stroke:none;"
         clip-path="url(#clipPath2)"
         id="path107" />
    </g>
    <g
       style="fill:navy; text-rendering:geometricPrecision; font-size:8; stroke:navy;"
       id="g113">
      <text
         x="442"
         xml:space="preserve"
         y="16"
         style="clip-path:url(#clipPath4); stroke:none;"
         clip-path="url(#clipPath4)"
         id="text111">1</text>
    </g>
    <g
       style="text-rendering:geometricPrecision;"
       id="g121">
      <path
         d="M362 366 L376.8398 365.9684"
         style="fill:none; clip-path:url(#clipPath5);"
         clip-path="url(#clipPath5)"
         id="path115" />
      <path
         d="M387.2398 365.9463 C387.2459 368.8182 384.9228 371.1512 382.0509 371.1573 C379.179 371.1635 376.846 368.8403 376.8398 365.9684 C376.8337 363.0966 379.1569 360.7635 382.0288 360.7574 C384.9007 360.7513 387.2337 363.0744 387.2398 365.9463 Z"
         style="fill:white; clip-path:url(#clipPath5); stroke:none;"
         clip-path="url(#clipPath5)"
         id="path117" />
      <path
         d="M387.2398 365.9463 C387.2459 368.8182 384.9228 371.1512 382.0509 371.1573 C379.179 371.1635 376.846 368.8403 376.8398 365.9684 C376.8337 363.0966 379.1569 360.7635 382.0288 360.7574 C384.9007 360.7513 387.2337 363.0744 387.2398 365.9463 Z"
         style="fill:none; clip-path:url(#clipPath5);"
         clip-path="url(#clipPath5)"
         id="path119" />
    </g>
    <g
       style="text-rendering:geometricPrecision;"
       id="g127">
      <path
         d="M281 102 L281 143"
         style="fill:none; clip-path:url(#clipPath6);"
         clip-path="url(#clipPath6)"
         id="path123" />
      <path
         d="M281 143 L286.2 131.3 L275.8 131.3 Z"
         style="clip-path:url(#clipPath6); fill-rule:evenodd; stroke:none;"
         clip-path="url(#clipPath6)"
         id="path125" />
    </g>
    <g
       style="text-rendering:geometricPrecision;"
       id="g133">
      <path
         d="M241 153 L160 269"
         style="fill:none; clip-path:url(#clipPath7);"
         clip-path="url(#clipPath7)"
         id="path129" />
      <path
         d="M160 269 L170.9619 262.3843 L162.435 256.4301 Z"
         style="clip-path:url(#clipPath7); fill-rule:evenodd; stroke:none;"
         clip-path="url(#clipPath7)"
         id="path131" />
    </g>
    <g
       style="stroke-dasharray:4,4; text-rendering:geometricPrecision;"
       id="g139">
      <path
         d="M334 223.5 L281 223.8"
         style="fill:none; clip-path:url(#clipPath8);"
         clip-path="url(#clipPath8)"
         id="path135" />
      <path
         d="M281 223.8 L292.7292 228.9337 L292.6704 218.5339 Z"
         style="stroke-dasharray:none; clip-path:url(#clipPath8); fill-rule:evenodd; stroke:none;"
         clip-path="url(#clipPath8)"
         id="path137" />
    </g>
    <g
       style="text-rendering:geometricPrecision;"
       id="g145">
      <path
         d="M279 421 L279 459"
         style="fill:none; clip-path:url(#clipPath9);"
         clip-path="url(#clipPath9)"
         id="path141" />
      <path
         d="M279 459 L284.2 447.3 L273.8 447.3 Z"
         style="clip-path:url(#clipPath9); fill-rule:evenodd; stroke:none;"
         clip-path="url(#clipPath9)"
         id="path143" />
    </g>
    <g
       style="text-rendering:geometricPrecision;"
       id="g153">
      <path
         d="M184 297 L261 297 M261 297 L261 308"
         style="fill:none; clip-path:url(#clipPath10);"
         clip-path="url(#clipPath10)"
         id="path147" />
      <path
         d="M270.1 308 L270.1 309.3 L250.6 309.3 L250.6 308 L270.1 308 Z"
         style="fill:white; clip-path:url(#clipPath10); stroke:none;"
         clip-path="url(#clipPath10)"
         id="path149" />
      <path
         d="M270.1 308 L270.1 309.3 L250.6 309.3 L250.6 308 L270.1 308 Z"
         style="fill:none; clip-path:url(#clipPath10);"
         clip-path="url(#clipPath10)"
         id="path151" />
    </g>
    <g
       style="text-rendering:geometricPrecision;"
       id="g159">
      <path
         d="M239 411 C239 411 225.7778 409.4074 213.5 403.8333 C213.5 403.8333 201.2222 398.2592 194.6111 383.1296 C194.6111 383.1296 188 368 194.8704 352.8704 C194.8704 352.8704 201.7407 337.7408 214.5 332.1667 C227.2593 326.5926 241 325 241 325"
         style="fill:none; clip-path:url(#clipPath11);"
         clip-path="url(#clipPath11)"
         id="path155" />
      <path
         d="M241 325 L228.7791 321.1816 L229.9765 331.5125 Z"
         style="clip-path:url(#clipPath11); fill-rule:evenodd; stroke:none;"
         clip-path="url(#clipPath11)"
         id="path157" />
    </g>
    <g
       style="text-rendering:geometricPrecision;"
       id="g165">
      <path
         d="M321 325 C321 325 338.1111 326.5926 354 332.1667 C354 332.1667 369.8889 337.7408 378.4445 352.8704 C378.4445 352.8704 387 368 378.1852 383.1296 C378.1852 383.1296 369.3704 398.2592 353 403.8333 C336.6296 409.4074 319 411 319 411"
         style="fill:none; clip-path:url(#clipPath12);"
         clip-path="url(#clipPath12)"
         id="path161" />
      <path
         d="M319 411 L331.1204 415.1263 L330.1847 404.7684 Z"
         style="clip-path:url(#clipPath12); fill-rule:evenodd; stroke:none;"
         clip-path="url(#clipPath12)"
         id="path163" />
    </g>
    <g
       style="text-rendering:geometricPrecision;"
       id="g171">
      <path
         d="M279 576 L279 611"
         style="fill:none; clip-path:url(#clipPath13);"
         clip-path="url(#clipPath13)"
         id="path167" />
      <path
         d="M279 611 L284.2 599.3 L273.8 599.3 Z"
         style="clip-path:url(#clipPath13); fill-rule:evenodd; stroke:none;"
         clip-path="url(#clipPath13)"
         id="path169" />
    </g>
    <g
       style="text-rendering:geometricPrecision;"
       id="g177">
      <path
         d="M281 163 L281 315"
         style="fill:none; clip-path:url(#clipPath14);"
         clip-path="url(#clipPath14)"
         id="path173" />
      <path
         d="M281 315 L286.2 303.3 L275.8 303.3 Z"
         style="clip-path:url(#clipPath14); fill-rule:evenodd; stroke:none;"
         clip-path="url(#clipPath14)"
         id="path175" />
    </g>
    <g
       style="font-weight:bold; text-rendering:geometricPrecision;"
       id="g181">
      <text
         x="228"
         xml:space="preserve"
         y="481"
         style="clip-path:url(#clipPath15); stroke:none;"
         clip-path="url(#clipPath15)"
         id="text179">FOXO1 Targets</text>
    </g>
    <g
       style="font-weight:bold; text-rendering:geometricPrecision;"
       id="g185">
      <text
         x="342"
         xml:space="preserve"
         y="196"
         style="clip-path:url(#clipPath16); stroke:none;"
         clip-path="url(#clipPath16)"
         id="text183">SMAD-mediated signaling</text>
    </g>
    <g
       style="fill:white; text-rendering:geometricPrecision; stroke:white;"
       id="g193">
      <path
         d="M385 245 L465 245 L465 265 L385 265 L385 245 Z"
         style="clip-path:url(#clipPath17); stroke:none;"
         clip-path="url(#clipPath17)"
         id="path187" />
      <path
         d="M385 245 L465 245 L465 265 L385 265 L385 245 Z"
         style="fill:none; clip-path:url(#clipPath17); stroke:black;"
         clip-path="url(#clipPath17)"
         id="path189" />
      <text
         x="408"
         y="258"
         style="font-size:10; clip-path:url(#clipPath17); fill:black; stroke:none;"
         xml:space="preserve"
         clip-path="url(#clipPath17)"
         id="text191">SMAD8</text>
    </g>
    <g
       style="fill:white; text-rendering:geometricPrecision; stroke:white;"
       id="g201">
      <path
         d="M96 297 L176 297 L176 317 L96 317 L96 297 Z"
         style="clip-path:url(#clipPath18); stroke:none;"
         clip-path="url(#clipPath18)"
         id="path195" />
      <path
         d="M96 297 L176 297 L176 317 L96 317 L96 297 Z"
         style="fill:none; clip-path:url(#clipPath18); stroke:black;"
         clip-path="url(#clipPath18)"
         id="path197" />
      <text
         x="121"
         y="310"
         style="font-size:10; clip-path:url(#clipPath18); fill:black; stroke:none;"
         xml:space="preserve"
         clip-path="url(#clipPath18)"
         id="text199">SFRPs</text>
    </g>
    <g
       style="fill:white; text-rendering:geometricPrecision; stroke:white;"
       id="g209">
      <path
         d="M239 401 L319 401 L319 421 L239 421 L239 401 Z"
         style="clip-path:url(#clipPath19); stroke:none;"
         clip-path="url(#clipPath19)"
         id="path203" />
      <path
         d="M239 401 L319 401 L319 421 L239 421 L239 401 Z"
         style="fill:none; clip-path:url(#clipPath19); stroke:black;"
         clip-path="url(#clipPath19)"
         id="path205" />
      <text
         x="262"
         y="414"
         style="font-size:10; clip-path:url(#clipPath19); fill:black; stroke:none;"
         xml:space="preserve"
         clip-path="url(#clipPath19)"
         id="text207">FOXO1</text>
    </g>
    <g
       style="fill:white; text-rendering:geometricPrecision; stroke:white;"
       id="g217">
      <path
         d="M362 356 L427 356 L427 376 L362 376 L362 356 Z"
         style="clip-path:url(#clipPath20); stroke:none;"
         clip-path="url(#clipPath20)"
         id="path211" />
      <path
         d="M362 356 L427 356 L427 376 L362 376 L362 356 Z"
         style="fill:none; clip-path:url(#clipPath20); stroke:black;"
         clip-path="url(#clipPath20)"
         id="path213" />
      <text
         x="370"
         y="369"
         style="font-size:10; clip-path:url(#clipPath20); fill:black; stroke:none;"
         xml:space="preserve"
         clip-path="url(#clipPath20)"
         id="text215">B-Catenin</text>
    </g>
    <g
       style="fill:white; text-rendering:geometricPrecision; stroke:white;"
       id="g225">
      <path
         d="M241 315 L321 315 L321 335 L241 335 L241 315 Z"
         style="clip-path:url(#clipPath21); stroke:none;"
         clip-path="url(#clipPath21)"
         id="path219" />
      <path
         d="M241 315 L321 315 L321 335 L241 335 L241 315 Z"
         style="fill:none; clip-path:url(#clipPath21); stroke:black;"
         clip-path="url(#clipPath21)"
         id="path221" />
      <text
         x="267"
         y="328"
         style="font-size:10; clip-path:url(#clipPath21); fill:black; stroke:none;"
         xml:space="preserve"
         clip-path="url(#clipPath21)"
         id="text223">WNT4</text>
    </g>
    <g
       style="fill:white; text-rendering:geometricPrecision; stroke:white;"
       id="g233">
      <path
         d="M239 548 L319 548 L319 568 L239 568 L239 548 Z"
         style="clip-path:url(#clipPath22); stroke:none;"
         clip-path="url(#clipPath22)"
         id="path227" />
      <path
         d="M239 548 L319 548 L319 568 L239 568 L239 548 Z"
         style="fill:none; clip-path:url(#clipPath22); stroke:black;"
         clip-path="url(#clipPath22)"
         id="path229" />
      <text
         x="257"
         y="561"
         style="font-size:10; clip-path:url(#clipPath22); fill:black; stroke:none;"
         xml:space="preserve"
         clip-path="url(#clipPath22)"
         id="text231">BCL2L11</text>
    </g>
    <g
       style="fill:white; text-rendering:geometricPrecision; stroke:white;"
       id="g241">
      <path
         d="M241 82 L321 82 L321 102 L241 102 L241 82 Z"
         style="clip-path:url(#clipPath23); stroke:none;"
         clip-path="url(#clipPath23)"
         id="path235" />
      <path
         d="M241 82 L321 82 L321 102 L241 102 L241 82 Z"
         style="fill:none; clip-path:url(#clipPath23); stroke:blue;"
         clip-path="url(#clipPath23)"
         id="path237" />
      <text
         x="268"
         y="95"
         style="font-size:10; clip-path:url(#clipPath23); fill:blue; stroke:none;"
         xml:space="preserve"
         clip-path="url(#clipPath23)"
         id="text239">cAMP</text>
    </g>
    <g
       style="fill:white; text-rendering:geometricPrecision; stroke:white;"
       id="g249">
      <path
         d="M239 528 L319 528 L319 548 L239 548 L239 528 Z"
         style="clip-path:url(#clipPath24); stroke:none;"
         clip-path="url(#clipPath24)"
         id="path243" />
      <path
         d="M239 528 L319 528 L319 548 L239 548 L239 528 Z"
         style="fill:none; clip-path:url(#clipPath24); stroke:black;"
         clip-path="url(#clipPath24)"
         id="path245" />
      <text
         x="261"
         y="541"
         style="font-size:10; clip-path:url(#clipPath24); fill:black; stroke:none;"
         xml:space="preserve"
         clip-path="url(#clipPath24)"
         id="text247">LEFTY2</text>
    </g>
    <g
       style="fill:white; text-rendering:geometricPrecision; stroke:white;"
       id="g257">
      <path
         d="M239 508 L319 508 L319 528 L239 528 L239 508 Z"
         style="clip-path:url(#clipPath25); stroke:none;"
         clip-path="url(#clipPath25)"
         id="path251" />
      <path
         d="M239 508 L319 508 L319 528 L239 528 L239 508 Z"
         style="fill:none; clip-path:url(#clipPath25); stroke:black;"
         clip-path="url(#clipPath25)"
         id="path253" />
      <text
         x="268"
         y="521"
         style="font-size:10; clip-path:url(#clipPath25); fill:black; stroke:none;"
         xml:space="preserve"
         clip-path="url(#clipPath25)"
         id="text255">DCN</text>
    </g>
    <g
       style="fill:white; text-rendering:geometricPrecision; stroke:white;"
       id="g265">
      <path
         d="M241 143 L321 143 L321 163 L241 163 L241 143 Z"
         style="clip-path:url(#clipPath26); stroke:none;"
         clip-path="url(#clipPath26)"
         id="path259" />
      <path
         d="M241 143 L321 143 L321 163 L241 163 L241 143 Z"
         style="fill:none; clip-path:url(#clipPath26); stroke:black;"
         clip-path="url(#clipPath26)"
         id="path261" />
      <text
         x="268"
         y="156"
         style="font-size:10; clip-path:url(#clipPath26); fill:black; stroke:none;"
         xml:space="preserve"
         clip-path="url(#clipPath26)"
         id="text263">BMP2</text>
    </g>
    <g
       style="fill:white; text-rendering:geometricPrecision; stroke:white;"
       id="g273">
      <path
         d="M239 488 L319 488 L319 508 L239 508 L239 488 Z"
         style="clip-path:url(#clipPath27); stroke:none;"
         clip-path="url(#clipPath27)"
         id="path267" />
      <path
         d="M239 488 L319 488 L319 508 L239 508 L239 488 Z"
         style="fill:none; clip-path:url(#clipPath27); stroke:black;"
         clip-path="url(#clipPath27)"
         id="path269" />
      <text
         x="270"
         y="501"
         style="font-size:10; clip-path:url(#clipPath27); fill:black; stroke:none;"
         xml:space="preserve"
         clip-path="url(#clipPath27)"
         id="text271">SST</text>
    </g>
    <g
       style="fill:white; text-rendering:geometricPrecision; stroke:white;"
       id="g281">
      <path
         d="M96 277 L176 277 L176 297 L96 297 L96 277 Z"
         style="clip-path:url(#clipPath28); stroke:none;"
         clip-path="url(#clipPath28)"
         id="path275" />
      <path
         d="M96 277 L176 277 L176 297 L96 297 L96 277 Z"
         style="fill:none; clip-path:url(#clipPath28); stroke:black;"
         clip-path="url(#clipPath28)"
         id="path277" />
      <text
         x="123"
         y="290"
         style="font-size:10; clip-path:url(#clipPath28); fill:black; stroke:none;"
         xml:space="preserve"
         clip-path="url(#clipPath28)"
         id="text279">DKKs</text>
    </g>
    <g
       style="fill:white; text-rendering:geometricPrecision; stroke:white;"
       id="g289">
      <path
         d="M110 621 L110 621 C110 626.5228 114.4771 631 120 631 L438 631 C443.5229 631 448 626.5228 448 621 L448 621 C448 615.4772 443.5229 611 438 611 L120 611 C114.4771 611 110 615.4772 110 621 Z"
         style="clip-path:url(#clipPath29); stroke:none;"
         clip-path="url(#clipPath29)"
         id="path283" />
      <path
         d="M110 621 L110 621 C110 626.5228 114.4771 631 120 631 L438 631 C443.5229 631 448 626.5228 448 621 L448 621 C448 615.4772 443.5229 611 438 611 L120 611 C114.4771 611 110 615.4772 110 621 Z"
         style="fill:none; clip-path:url(#clipPath29); stroke:rgb(20,150,30);"
         clip-path="url(#clipPath29)"
         id="path285" />
      <text
         x="105"
         y="625"
         style="clip-path:url(#clipPath29); fill:rgb(20,150,30); stroke:none; font-weight:bold;"
         xml:space="preserve"
         clip-path="url(#clipPath29)"
         id="text287">Differentiation of Human Endometrial Stromal Cells</text>
    </g>
    <g
       style="fill:white; text-rendering:geometricPrecision; stroke:white;"
       id="g297">
      <path
         d="M385 225 L465 225 L465 245 L385 245 L385 225 Z"
         style="clip-path:url(#clipPath30); stroke:none;"
         clip-path="url(#clipPath30)"
         id="path291" />
      <path
         d="M385 225 L465 225 L465 245 L385 245 L385 225 Z"
         style="fill:none; clip-path:url(#clipPath30); stroke:black;"
         clip-path="url(#clipPath30)"
         id="path293" />
      <text
         x="408"
         y="238"
         style="font-size:10; clip-path:url(#clipPath30); fill:black; stroke:none;"
         xml:space="preserve"
         clip-path="url(#clipPath30)"
         id="text295">SMAD5</text>
    </g>
    <g
       style="fill:white; text-rendering:geometricPrecision; stroke:white;"
       id="g305">
      <path
         d="M385 205 L465 205 L465 225 L385 225 L385 205 Z"
         style="clip-path:url(#clipPath31); stroke:none;"
         clip-path="url(#clipPath31)"
         id="path299" />
      <path
         d="M385 205 L465 205 L465 225 L385 225 L385 205 Z"
         style="fill:none; clip-path:url(#clipPath31); stroke:black;"
         clip-path="url(#clipPath31)"
         id="path301" />
      <text
         x="408"
         y="218"
         style="font-size:10; clip-path:url(#clipPath31); fill:black; stroke:none;"
         xml:space="preserve"
         clip-path="url(#clipPath31)"
         id="text303">SMAD1</text>
    </g>
  </g>
</svg>
