<?xml version="1.0" encoding="UTF-8" standalone="no"?>
<svg
   style="fill-opacity:1; color-rendering:auto; color-interpolation:auto; stroke:black; text-rendering:auto; stroke-linecap:square; stroke-miterlimit:10; stroke-opacity:1; shape-rendering:auto; fill:black; stroke-dasharray:none; font-weight:normal; stroke-width:1; font-family:'Dialog'; font-style:normal; stroke-linejoin:miter; font-size:12; stroke-dashoffset:0; image-rendering:auto;"
   width="585"
   height="484"
   version="1.1"
   id="svg431"
   xmlns="http://www.w3.org/2000/svg"
   xmlns:svg="http://www.w3.org/2000/svg">
  <!--Generated by the Batik Graphics2D SVG Generator-->
  <defs
     id="genericDefs" />
  <g
     id="g429">
    <defs
       id="defs1">
      <clipPath
         clipPathUnits="userSpaceOnUse"
         id="clipPath1">
        <path
           d="M0 0 L597 0 L597 494 L0 494 L0 0 Z"
           id="path3" />
      </clipPath>
      <clipPath
         clipPathUnits="userSpaceOnUse"
         id="clipPath2">
        <path
           d="M0 0 L0 200 L200 200 L200 0 Z"
           id="path6" />
      </clipPath>
      <clipPath
         clipPathUnits="userSpaceOnUse"
         id="clipPath3">
        <path
           d="M227 16 L227 37 L238 37 L238 16 Z"
           id="path9" />
      </clipPath>
      <clipPath
         clipPathUnits="userSpaceOnUse"
         id="clipPath4">
        <path
           d="M226.4551 3.918 L237.5449 3.918 L237.5449 19.2305 L226.4551 19.2305 L226.4551 3.918 Z"
           id="path12" />
      </clipPath>
      <clipPath
         clipPathUnits="userSpaceOnUse"
         id="clipPath5">
        <path
           d="M335.7117 176.487 L335.7117 216.2307 L347.6464 216.2307 L347.6464 176.487 Z"
           id="path15" />
      </clipPath>
      <clipPath
         clipPathUnits="userSpaceOnUse"
         id="clipPath6">
        <path
           d="M253.1 63.5 L253.1 99.8 L311.5 99.8 L311.5 63.5 Z"
           id="path18" />
      </clipPath>
      <clipPath
         clipPathUnits="userSpaceOnUse"
         id="clipPath7">
        <path
           d="M447.5 322.5 L447.5 362.2311 L520.9694 362.2311 L520.9694 322.5 Z"
           id="path21" />
      </clipPath>
      <clipPath
         clipPathUnits="userSpaceOnUse"
         id="clipPath8">
        <path
           d="M412.0306 123.5 L412.0306 158.2311 L423.9694 158.2311 L423.9694 123.5 Z"
           id="path24" />
      </clipPath>
      <clipPath
         clipPathUnits="userSpaceOnUse"
         id="clipPath9">
        <path
           d="M412.0306 234.5 L412.0306 265.2311 L423.9694 265.2311 L423.9694 234.5 Z"
           id="path27" />
      </clipPath>
      <clipPath
         clipPathUnits="userSpaceOnUse"
         id="clipPath10">
        <path
           d="M263.5 177.5 L263.5 216.2311 L317.9694 216.2311 L317.9694 177.5 Z"
           id="path30" />
      </clipPath>
      <clipPath
         clipPathUnits="userSpaceOnUse"
         id="clipPath11">
        <path
           d="M330.1 73.5 L330.1 98.8 L350.6 98.8 L350.6 73.5 Z"
           id="path33" />
      </clipPath>
      <clipPath
         clipPathUnits="userSpaceOnUse"
         id="clipPath12">
        <path
           d="M412.0306 283.5 L412.0306 314.2311 L423.9694 314.2311 L423.9694 283.5 Z"
           id="path36" />
      </clipPath>
      <clipPath
         clipPathUnits="userSpaceOnUse"
         id="clipPath13">
        <path
           d="M258.0306 124.5 L258.0306 159.2311 L269.9694 159.2311 L269.9694 124.5 Z"
           id="path39" />
      </clipPath>
      <clipPath
         clipPathUnits="userSpaceOnUse"
         id="clipPath14">
        <path
           d="M356.5 219.0306 L356.5 230.9694 L389.2311 230.9694 L389.2311 219.0306 Z"
           id="path42" />
      </clipPath>
      <clipPath
         clipPathUnits="userSpaceOnUse"
         id="clipPath15">
        <path
           d="M370.5 63.5 L370.5 107.9311 L423.9694 107.9311 L423.9694 63.5 Z"
           id="path45" />
      </clipPath>
      <clipPath
         clipPathUnits="userSpaceOnUse"
         id="clipPath16">
        <path
           d="M412.0306 332.5 L412.0306 362.2311 L423.9694 362.2311 L423.9694 332.5 Z"
           id="path48" />
      </clipPath>
      <clipPath
         clipPathUnits="userSpaceOnUse"
         id="clipPath17">
        <path
           d="M319.0306 322.5 L319.0306 369.2311 L388.5 369.2311 L388.5 322.5 Z"
           id="path51" />
      </clipPath>
      <clipPath
         clipPathUnits="userSpaceOnUse"
         id="clipPath18">
        <path
           d="M335.0306 123.5 L335.0306 158.2311 L346.9694 158.2311 L346.9694 123.5 Z"
           id="path54" />
      </clipPath>
      <clipPath
         clipPathUnits="userSpaceOnUse"
         id="clipPath19">
        <path
           d="M412.0306 176.5 L412.0306 216.2311 L423.9694 216.2311 L423.9694 176.5 Z"
           id="path57" />
      </clipPath>
      <clipPath
         clipPathUnits="userSpaceOnUse"
         id="clipPath20">
        <path
           d="M165.727 210.412 L165.727 339.3424 L195.0197 339.3424 L195.0197 210.412 Z"
           id="path60" />
      </clipPath>
      <clipPath
         clipPathUnits="userSpaceOnUse"
         id="clipPath21">
        <path
           d="M206 162 L206 470 L571 470 L571 162 Z"
           id="path63" />
      </clipPath>
      <clipPath
         clipPathUnits="userSpaceOnUse"
         id="clipPath22">
        <path
           d="M42.5 263.5 L42.5 284.5 L162.5 284.5 L162.5 263.5 Z"
           id="path66" />
      </clipPath>
      <clipPath
         clipPathUnits="userSpaceOnUse"
         id="clipPath23">
        <path
           d="M62 103.5 L62 124.5 L143 124.5 L143 103.5 Z"
           id="path69" />
      </clipPath>
      <clipPath
         clipPathUnits="userSpaceOnUse"
         id="clipPath24">
        <path
           d="M466.5 417 L466.5 443 L567.5 443 L567.5 417 Z"
           id="path72" />
      </clipPath>
      <clipPath
         clipPathUnits="userSpaceOnUse"
         id="clipPath25">
        <path
           d="M275.5 417 L275.5 443 L376.5 443 L376.5 417 Z"
           id="path75" />
      </clipPath>
      <clipPath
         clipPathUnits="userSpaceOnUse"
         id="clipPath26">
        <path
           d="M62 154.5 L62 175.5 L143 175.5 L143 154.5 Z"
           id="path78" />
      </clipPath>
      <clipPath
         clipPathUnits="userSpaceOnUse"
         id="clipPath27">
        <path
           d="M35 370.5 L35 391.5 L170 391.5 L170 370.5 Z"
           id="path81" />
      </clipPath>
      <clipPath
         clipPathUnits="userSpaceOnUse"
         id="clipPath28">
        <path
           d="M371 417 L371 443 L472 443 L472 417 Z"
           id="path84" />
      </clipPath>
      <clipPath
         clipPathUnits="userSpaceOnUse"
         id="clipPath29">
        <path
           d="M387.5 263.5 L387.5 284.5 L448.5 284.5 L448.5 263.5 Z"
           id="path87" />
      </clipPath>
      <clipPath
         clipPathUnits="userSpaceOnUse"
         id="clipPath30">
        <path
           d="M387.5 388.5 L387.5 409.5 L448.5 409.5 L448.5 388.5 Z"
           id="path90" />
      </clipPath>
      <clipPath
         clipPathUnits="userSpaceOnUse"
         id="clipPath31">
        <path
           d="M233.5 104.5 L233.5 125.5 L294.5 125.5 L294.5 104.5 Z"
           id="path93" />
      </clipPath>
      <clipPath
         clipPathUnits="userSpaceOnUse"
         id="clipPath32">
        <path
           d="M294.5 367.5 L294.5 388.5 L355.5 388.5 L355.5 367.5 Z"
           id="path96" />
      </clipPath>
      <clipPath
         clipPathUnits="userSpaceOnUse"
         id="clipPath33">
        <path
           d="M387.5 368.5 L387.5 389.5 L448.5 389.5 L448.5 368.5 Z"
           id="path99" />
      </clipPath>
      <clipPath
         clipPathUnits="userSpaceOnUse"
         id="clipPath34">
        <path
           d="M387.5 214.5 L387.5 235.5 L448.5 235.5 L448.5 214.5 Z"
           id="path102" />
      </clipPath>
      <clipPath
         clipPathUnits="userSpaceOnUse"
         id="clipPath35">
        <path
           d="M310.5 156.5 L310.5 177.5 L371.5 177.5 L371.5 156.5 Z"
           id="path105" />
      </clipPath>
      <clipPath
         clipPathUnits="userSpaceOnUse"
         id="clipPath36">
        <path
           d="M387.5 156.5 L387.5 177.5 L448.5 177.5 L448.5 156.5 Z"
           id="path108" />
      </clipPath>
      <clipPath
         clipPathUnits="userSpaceOnUse"
         id="clipPath37">
        <path
           d="M387.5 103.5 L387.5 124.5 L448.5 124.5 L448.5 103.5 Z"
           id="path111" />
      </clipPath>
      <clipPath
         clipPathUnits="userSpaceOnUse"
         id="clipPath38">
        <path
           d="M310.5 53.5 L310.5 74.5 L371.5 74.5 L371.5 53.5 Z"
           id="path114" />
      </clipPath>
      <clipPath
         clipPathUnits="userSpaceOnUse"
         id="clipPath39">
        <path
           d="M387.5 312.5 L387.5 333.5 L448.5 333.5 L448.5 312.5 Z"
           id="path117" />
      </clipPath>
      <clipPath
         clipPathUnits="userSpaceOnUse"
         id="clipPath40">
        <path
           d="M233.5 157.5 L233.5 178.5 L294.5 178.5 L294.5 157.5 Z"
           id="path120" />
      </clipPath>
      <clipPath
         clipPathUnits="userSpaceOnUse"
         id="clipPath41">
        <path
           d="M484.5 388.5 L484.5 409.5 L545.5 409.5 L545.5 388.5 Z"
           id="path123" />
      </clipPath>
      <clipPath
         clipPathUnits="userSpaceOnUse"
         id="clipPath42">
        <path
           d="M310.5 103.5 L310.5 124.5 L371.5 124.5 L371.5 103.5 Z"
           id="path126" />
      </clipPath>
      <clipPath
         clipPathUnits="userSpaceOnUse"
         id="clipPath43">
        <path
           d="M296.5 214.5 L296.5 235.5 L357.5 235.5 L357.5 214.5 Z"
           id="path129" />
      </clipPath>
      <clipPath
         clipPathUnits="userSpaceOnUse"
         id="clipPath44">
        <path
           d="M484.5 368.5 L484.5 389.5 L545.5 389.5 L545.5 368.5 Z"
           id="path132" />
      </clipPath>
      <clipPath
         clipPathUnits="userSpaceOnUse"
         id="clipPath45">
        <path
           d="M363 66 L363 82 L379 82 L379 66 Z"
           id="path135" />
      </clipPath>
    </defs>
    <g
       style="fill:white; stroke:white;"
       id="g141">
      <rect
         x="0"
         width="597"
         height="494"
         y="0"
         style="stroke:none;"
         id="rect139" />
    </g>
    <g
       style="font-weight:bold; font-size:10; text-rendering:geometricPrecision;"
       id="g151">
      <path
         d="M0.0469 6.7031 L6.7656 6.7031 L6.7656 8.125 L4.3438 8.125 L4.3438 14 L2.4688 14 L2.4688 8.125 L0.0469 8.125 L0.0469 6.7031 ZM7.665 8.5312 L9.415 8.5312 L9.415 14 L7.665 14 L7.665 8.5312 ZM7.665 6.4062 L9.415 6.4062 L9.415 7.8281 L7.665 7.8281 L7.665 6.4062 ZM12.999 6.9844 L12.999 8.5312 L14.7959 8.5312 L14.7959 9.7812 L12.999 9.7812 L12.999 12.0938 Q12.999 12.4844 13.1475 12.6172 Q13.2959 12.75 13.749 12.75 L14.6553 12.75 L14.6553 14 L13.1553 14 Q12.1084 14 11.6787 13.5703 Q11.249 13.1406 11.249 12.0938 L11.249 9.7812 L10.374 9.7812 L10.374 8.5312 L11.249 8.5312 L11.249 6.9844 L12.999 6.9844 ZM15.873 6.4062 L17.623 6.4062 L17.623 14 L15.873 14 L15.873 6.4062 ZM24.7539 11.25 L24.7539 11.75 L20.6758 11.75 Q20.7383 12.3594 21.1133 12.6719 Q21.4883 12.9844 22.1758 12.9844 Q22.7227 12.9844 23.3086 12.8203 Q23.8945 12.6562 24.5039 12.3125 L24.5039 13.6719 Q23.8789 13.9062 23.2617 14.0234 Q22.6445 14.1406 22.0195 14.1406 Q20.5352 14.1406 19.7148 13.3828 Q18.8945 12.625 18.8945 11.2656 Q18.8945 9.9375 19.6992 9.1719 Q20.5039 8.4062 21.9258 8.4062 Q23.207 8.4062 23.9805 9.1797 Q24.7539 9.9531 24.7539 11.25 ZM22.957 10.6719 Q22.957 10.1719 22.668 9.8672 Q22.3789 9.5625 21.9102 9.5625 Q21.3945 9.5625 21.082 9.8438 Q20.7695 10.125 20.6914 10.6719 L22.957 10.6719 ZM26.3643 8.5312 L28.1143 8.5312 L28.1143 10.4219 L26.3643 10.4219 L26.3643 8.5312 ZM26.3643 12.1094 L28.1143 12.1094 L28.1143 14 L26.3643 14 L26.3643 12.1094 Z"
         style="clip-path:url(#clipPath2); stroke:none;"
         clip-path="url(#clipPath2)"
         id="path143" />
      <path
         d="M38.9844 6.7031 L43.5938 6.7031 L43.5938 7.5469 L39.9688 7.5469 L39.9688 9.7031 L43.4375 9.7031 L43.4375 10.5312 L39.9688 10.5312 L39.9688 13.1719 L43.6719 13.1719 L43.6719 14 L38.9844 14 L38.9844 6.7031 ZM48.7559 10.5781 Q49.0684 10.6875 49.373 11.0391 Q49.6777 11.3906 49.9746 12 L50.9746 14 L49.9121 14 L48.9902 12.125 Q48.6309 11.3906 48.2871 11.1562 Q47.9434 10.9219 47.3652 10.9219 L46.2871 10.9219 L46.2871 14 L45.3027 14 L45.3027 6.7031 L47.5215 6.7031 Q48.7715 6.7031 49.3887 7.2266 Q50.0059 7.75 50.0059 8.8125 Q50.0059 9.5 49.6855 9.9531 Q49.3652 10.4062 48.7559 10.5781 ZM46.2871 7.5156 L46.2871 10.1094 L47.5215 10.1094 Q48.2402 10.1094 48.6074 9.7812 Q48.9746 9.4531 48.9746 8.8125 Q48.9746 8.1719 48.6074 7.8438 Q48.2402 7.5156 47.5215 7.5156 L46.2871 7.5156 ZM52.251 6.7031 L53.2354 6.7031 L53.2354 9.7969 L56.501 6.7031 L57.7822 6.7031 L54.1572 10.1094 L58.0322 14 L56.7354 14 L53.2354 10.4844 L53.2354 14 L52.251 14 L52.251 6.7031 ZM62.8154 13.1719 L62.8154 16.0781 L61.9092 16.0781 L61.9092 8.5312 L62.8154 8.5312 L62.8154 9.3594 Q63.0967 8.875 63.5264 8.6406 Q63.9561 8.4062 64.5654 8.4062 Q65.5654 8.4062 66.1826 9.1953 Q66.7998 9.9844 66.7998 11.2656 Q66.7998 12.5625 66.1826 13.3516 Q65.5654 14.1406 64.5654 14.1406 Q63.9561 14.1406 63.5264 13.9062 Q63.0967 13.6719 62.8154 13.1719 ZM65.8779 11.2656 Q65.8779 10.2812 65.4639 9.7188 Q65.0498 9.1562 64.3467 9.1562 Q63.6279 9.1562 63.2217 9.7188 Q62.8154 10.2812 62.8154 11.2656 Q62.8154 12.2656 63.2217 12.8281 Q63.6279 13.3906 64.3467 13.3906 Q65.0498 13.3906 65.4639 12.8281 Q65.8779 12.2656 65.8779 11.2656 ZM70.7725 11.25 Q69.6943 11.25 69.2725 11.5 Q68.8506 11.75 68.8506 12.3438 Q68.8506 12.8281 69.1631 13.1094 Q69.4756 13.3906 70.0225 13.3906 Q70.7725 13.3906 71.2256 12.8594 Q71.6787 12.3281 71.6787 11.4531 L71.6787 11.25 L70.7725 11.25 ZM72.5693 10.875 L72.5693 14 L71.6787 14 L71.6787 13.1719 Q71.3662 13.6719 70.9053 13.9062 Q70.4443 14.1406 69.7881 14.1406 Q68.9443 14.1406 68.4443 13.6719 Q67.9443 13.2031 67.9443 12.4062 Q67.9443 11.4844 68.5693 11.0156 Q69.1943 10.5469 70.4131 10.5469 L71.6787 10.5469 L71.6787 10.4531 Q71.6787 9.8438 71.2646 9.5 Q70.8506 9.1562 70.1162 9.1562 Q69.6475 9.1562 69.2021 9.2734 Q68.7568 9.3906 68.3506 9.6094 L68.3506 8.7812 Q68.8506 8.5938 69.3115 8.5 Q69.7725 8.4062 70.21 8.4062 Q71.3975 8.4062 71.9834 9.0156 Q72.5693 9.625 72.5693 10.875 ZM75.3066 6.9844 L75.3066 8.5312 L77.166 8.5312 L77.166 9.2344 L75.3066 9.2344 L75.3066 12.2031 Q75.3066 12.8594 75.4941 13.0547 Q75.6816 13.25 76.2441 13.25 L77.166 13.25 L77.166 14 L76.2441 14 Q75.1973 14 74.7988 13.6094 Q74.4004 13.2188 74.4004 12.2031 L74.4004 9.2344 L73.7441 9.2344 L73.7441 8.5312 L74.4004 8.5312 L74.4004 6.9844 L75.3066 6.9844 ZM82.8838 10.7031 L82.8838 14 L81.9932 14 L81.9932 10.7344 Q81.9932 9.9531 81.6885 9.5703 Q81.3838 9.1875 80.7744 9.1875 Q80.0557 9.1875 79.6338 9.6484 Q79.2119 10.1094 79.2119 10.9062 L79.2119 14 L78.3057 14 L78.3057 6.4062 L79.2119 6.4062 L79.2119 9.375 Q79.54 8.8906 79.9775 8.6484 Q80.415 8.4062 80.9775 8.4062 Q81.915 8.4062 82.3994 8.9844 Q82.8838 9.5625 82.8838 10.7031 ZM84.1592 8.5312 L85.0498 8.5312 L86.1748 12.7969 L87.2998 8.5312 L88.3623 8.5312 L89.4873 12.7969 L90.5967 8.5312 L91.5029 8.5312 L90.0654 14 L89.0029 14 L87.8311 9.5156 L86.6436 14 L85.5811 14 L84.1592 8.5312 ZM95.3379 11.25 Q94.2598 11.25 93.8379 11.5 Q93.416 11.75 93.416 12.3438 Q93.416 12.8281 93.7285 13.1094 Q94.041 13.3906 94.5879 13.3906 Q95.3379 13.3906 95.791 12.8594 Q96.2441 12.3281 96.2441 11.4531 L96.2441 11.25 L95.3379 11.25 ZM97.1348 10.875 L97.1348 14 L96.2441 14 L96.2441 13.1719 Q95.9316 13.6719 95.4707 13.9062 Q95.0098 14.1406 94.3535 14.1406 Q93.5098 14.1406 93.0098 13.6719 Q92.5098 13.2031 92.5098 12.4062 Q92.5098 11.4844 93.1348 11.0156 Q93.7598 10.5469 94.9785 10.5469 L96.2441 10.5469 L96.2441 10.4531 Q96.2441 9.8438 95.8301 9.5 Q95.416 9.1562 94.6816 9.1562 Q94.2129 9.1562 93.7676 9.2734 Q93.3223 9.3906 92.916 9.6094 L92.916 8.7812 Q93.416 8.5938 93.877 8.5 Q94.3379 8.4062 94.7754 8.4062 Q95.9629 8.4062 96.5488 9.0156 Q97.1348 9.625 97.1348 10.875 ZM101.2627 14.5156 Q100.8877 15.4844 100.5205 15.7812 Q100.1533 16.0781 99.5596 16.0781 L98.8408 16.0781 L98.8408 15.3281 L99.3564 15.3281 Q99.7314 15.3281 99.9346 15.1562 Q100.1377 14.9844 100.3877 14.3281 L100.5596 13.9062 L98.3408 8.5312 L99.2939 8.5312 L100.9971 12.8125 L102.7158 8.5312 L103.6689 8.5312 L101.2627 14.5156 ZM108.0781 8.5312 L108.9844 8.5312 L108.9844 14 L108.0781 14 L108.0781 8.5312 ZM108.0781 6.4062 L108.9844 6.4062 L108.9844 7.5469 L108.0781 7.5469 L108.0781 6.4062 ZM115.4033 10.7031 L115.4033 14 L114.5127 14 L114.5127 10.7344 Q114.5127 9.9531 114.208 9.5703 Q113.9033 9.1875 113.2939 9.1875 Q112.5752 9.1875 112.1533 9.6484 Q111.7314 10.1094 111.7314 10.9062 L111.7314 14 L110.8252 14 L110.8252 8.5312 L111.7314 8.5312 L111.7314 9.375 Q112.0596 8.8906 112.4971 8.6484 Q112.9346 8.4062 113.4971 8.4062 Q114.4346 8.4062 114.9189 8.9844 Q115.4033 9.5625 115.4033 10.7031 ZM120.4199 6.7031 L121.4043 6.7031 L121.4043 9.7031 L124.9824 9.7031 L124.9824 6.7031 L125.9668 6.7031 L125.9668 14 L124.9824 14 L124.9824 10.5312 L121.4043 10.5312 L121.4043 14 L120.4199 14 L120.4199 6.7031 ZM127.7988 11.8438 L127.7988 8.5312 L128.7051 8.5312 L128.7051 11.8125 Q128.7051 12.5781 129.0098 12.9688 Q129.3145 13.3594 129.9082 13.3594 Q130.6426 13.3594 131.0645 12.8984 Q131.4863 12.4375 131.4863 11.625 L131.4863 8.5312 L132.3926 8.5312 L132.3926 14 L131.4863 14 L131.4863 13.1562 Q131.1582 13.6562 130.7285 13.8984 Q130.2988 14.1406 129.7207 14.1406 Q128.7832 14.1406 128.291 13.5547 Q127.7988 12.9688 127.7988 11.8438 ZM130.0645 8.4062 L130.0645 8.4062 ZM138.7773 10.7031 L138.7773 14 L137.8867 14 L137.8867 10.7344 Q137.8867 9.9531 137.582 9.5703 Q137.2773 9.1875 136.668 9.1875 Q135.9492 9.1875 135.5273 9.6484 Q135.1055 10.1094 135.1055 10.9062 L135.1055 14 L134.1992 14 L134.1992 8.5312 L135.1055 8.5312 L135.1055 9.375 Q135.4336 8.8906 135.8711 8.6484 Q136.3086 8.4062 136.8711 8.4062 Q137.8086 8.4062 138.293 8.9844 Q138.7773 9.5625 138.7773 10.7031 ZM141.459 6.9844 L141.459 8.5312 L143.3184 8.5312 L143.3184 9.2344 L141.459 9.2344 L141.459 12.2031 Q141.459 12.8594 141.6465 13.0547 Q141.834 13.25 142.3965 13.25 L143.3184 13.25 L143.3184 14 L142.3965 14 Q141.3496 14 140.9512 13.6094 Q140.5527 13.2188 140.5527 12.2031 L140.5527 9.2344 L139.8965 9.2344 L139.8965 8.5312 L140.5527 8.5312 L140.5527 6.9844 L141.459 6.9844 ZM144.4893 8.5312 L145.3955 8.5312 L145.3955 14 L144.4893 14 L144.4893 8.5312 ZM144.4893 6.4062 L145.3955 6.4062 L145.3955 7.5469 L144.4893 7.5469 L144.4893 6.4062 ZM151.8145 10.7031 L151.8145 14 L150.9238 14 L150.9238 10.7344 Q150.9238 9.9531 150.6191 9.5703 Q150.3145 9.1875 149.7051 9.1875 Q148.9863 9.1875 148.5645 9.6484 Q148.1426 10.1094 148.1426 10.9062 L148.1426 14 L147.2363 14 L147.2363 8.5312 L148.1426 8.5312 L148.1426 9.375 Q148.4707 8.8906 148.9082 8.6484 Q149.3457 8.4062 149.9082 8.4062 Q150.8457 8.4062 151.3301 8.9844 Q151.8145 9.5625 151.8145 10.7031 ZM157.2148 11.2031 Q157.2148 10.2188 156.8086 9.6875 Q156.4023 9.1562 155.6836 9.1562 Q154.9492 9.1562 154.5508 9.6875 Q154.1523 10.2188 154.1523 11.2031 Q154.1523 12.1719 154.5508 12.7109 Q154.9492 13.25 155.6836 13.25 Q156.4023 13.25 156.8086 12.7109 Q157.2148 12.1719 157.2148 11.2031 ZM158.1055 13.3281 Q158.1055 14.7188 157.4883 15.3984 Q156.8711 16.0781 155.5898 16.0781 Q155.1211 16.0781 154.6992 16.0078 Q154.2773 15.9375 153.8867 15.7969 L153.8867 14.9219 Q154.2773 15.1406 154.6602 15.2422 Q155.043 15.3438 155.4492 15.3438 Q156.3242 15.3438 156.7695 14.8828 Q157.2148 14.4219 157.2148 13.4844 L157.2148 13.0312 Q156.9336 13.5156 156.4961 13.7578 Q156.0586 14 155.4492 14 Q154.4492 14 153.832 13.2344 Q153.2148 12.4688 153.2148 11.2031 Q153.2148 9.9375 153.832 9.1719 Q154.4492 8.4062 155.4492 8.4062 Q156.0586 8.4062 156.4961 8.6406 Q156.9336 8.875 157.2148 9.3594 L157.2148 8.5312 L158.1055 8.5312 L158.1055 13.3281 ZM160.8438 6.9844 L160.8438 8.5312 L162.7031 8.5312 L162.7031 9.2344 L160.8438 9.2344 L160.8438 12.2031 Q160.8438 12.8594 161.0312 13.0547 Q161.2188 13.25 161.7812 13.25 L162.7031 13.25 L162.7031 14 L161.7812 14 Q160.7344 14 160.3359 13.6094 Q159.9375 13.2188 159.9375 12.2031 L159.9375 9.2344 L159.2812 9.2344 L159.2812 8.5312 L159.9375 8.5312 L159.9375 6.9844 L160.8438 6.9844 ZM165.999 9.1562 Q165.2803 9.1562 164.8584 9.7188 Q164.4365 10.2812 164.4365 11.2656 Q164.4365 12.25 164.8506 12.8125 Q165.2646 13.375 165.999 13.375 Q166.7178 13.375 167.1396 12.8125 Q167.5615 12.25 167.5615 11.2656 Q167.5615 10.2969 167.1396 9.7266 Q166.7178 9.1562 165.999 9.1562 ZM165.999 8.4062 Q167.1709 8.4062 167.8428 9.1641 Q168.5146 9.9219 168.5146 11.2656 Q168.5146 12.6094 167.8428 13.375 Q167.1709 14.1406 165.999 14.1406 Q164.8271 14.1406 164.1553 13.375 Q163.4834 12.6094 163.4834 11.2656 Q163.4834 9.9219 164.1553 9.1641 Q164.8271 8.4062 165.999 8.4062 ZM174.5391 10.7031 L174.5391 14 L173.6484 14 L173.6484 10.7344 Q173.6484 9.9531 173.3438 9.5703 Q173.0391 9.1875 172.4297 9.1875 Q171.7109 9.1875 171.2891 9.6484 Q170.8672 10.1094 170.8672 10.9062 L170.8672 14 L169.9609 14 L169.9609 8.5312 L170.8672 8.5312 L170.8672 9.375 Q171.1953 8.8906 171.6328 8.6484 Q172.0703 8.4062 172.6328 8.4062 Q173.5703 8.4062 174.0547 8.9844 Q174.5391 9.5625 174.5391 10.7031 ZM177.1895 6.7031 L177.1895 9.4219 L176.3613 9.4219 L176.3613 6.7031 L177.1895 6.7031 ZM182.5635 8.6875 L182.5635 9.5469 Q182.1885 9.3438 181.7822 9.25 Q181.376 9.1562 180.9229 9.1562 Q180.2666 9.1562 179.9307 9.3594 Q179.5947 9.5625 179.5947 9.9688 Q179.5947 10.2812 179.8291 10.4609 Q180.0635 10.6406 180.7979 10.7969 L181.0947 10.875 Q182.0635 11.0781 182.4619 11.4531 Q182.8604 11.8281 182.8604 12.4844 Q182.8604 13.25 182.2588 13.6953 Q181.6572 14.1406 180.6104 14.1406 Q180.1572 14.1406 179.6807 14.0547 Q179.2041 13.9688 178.6885 13.7969 L178.6885 12.875 Q179.1885 13.125 179.665 13.2578 Q180.1416 13.3906 180.626 13.3906 Q181.251 13.3906 181.5947 13.1719 Q181.9385 12.9531 181.9385 12.5625 Q181.9385 12.1875 181.6963 11.9922 Q181.4541 11.7969 180.6104 11.625 L180.2979 11.5469 Q179.4697 11.375 179.0947 11.0078 Q178.7197 10.6406 178.7197 10.0156 Q178.7197 9.2344 179.2666 8.8203 Q179.8135 8.4062 180.8291 8.4062 Q181.3135 8.4062 181.7588 8.4766 Q182.2041 8.5469 182.5635 8.6875 ZM191.0771 9.3594 L191.0771 6.4062 L191.9678 6.4062 L191.9678 14 L191.0771 14 L191.0771 13.1719 Q190.7959 13.6719 190.3584 13.9062 Q189.9209 14.1406 189.3115 14.1406 Q188.3271 14.1406 187.7021 13.3516 Q187.0771 12.5625 187.0771 11.2656 Q187.0771 9.9844 187.7021 9.1953 Q188.3271 8.4062 189.3115 8.4062 Q189.9209 8.4062 190.3584 8.6406 Q190.7959 8.875 191.0771 9.3594 ZM188.0146 11.2656 Q188.0146 12.2656 188.4209 12.8281 Q188.8271 13.3906 189.5459 13.3906 Q190.249 13.3906 190.6631 12.8281 Q191.0771 12.2656 191.0771 11.2656 Q191.0771 10.2812 190.6631 9.7188 Q190.249 9.1562 189.5459 9.1562 Q188.8271 9.1562 188.4209 9.7188 Q188.0146 10.2812 188.0146 11.2656 ZM193.8154 8.5312 L194.7217 8.5312 L194.7217 14 L193.8154 14 L193.8154 8.5312 ZM193.8154 6.4062 L194.7217 6.4062 L194.7217 7.5469 L193.8154 7.5469 L193.8154 6.4062 ZM200.0781 8.6875 L200.0781 9.5469 Q199.7031 9.3438 199.2969 9.25 Q198.8906 9.1562 198.4375 9.1562 Q197.7812 9.1562 197.4453 9.3594 Q197.1094 9.5625 197.1094 9.9688 Q197.1094 10.2812 197.3438 10.4609 Q197.5781 10.6406 198.3125 10.7969 L198.6094 10.875 Q199.5781 11.0781 199.9766 11.4531 Q200.375 11.8281 200.375 12.4844 Q200.375 13.25 199.7734 13.6953 Q199.1719 14.1406 198.125 14.1406 Q197.6719 14.1406 197.1953 14.0547 Q196.7188 13.9688 196.2031 13.7969 L196.2031 12.875 Q196.7031 13.125 197.1797 13.2578 Q197.6562 13.3906 198.1406 13.3906 Q198.7656 13.3906 199.1094 13.1719 Q199.4531 12.9531 199.4531 12.5625 Q199.4531 12.1875 199.2109 11.9922 Q198.9688 11.7969 198.125 11.625 L197.8125 11.5469 Q196.9844 11.375 196.6094 11.0078 Q196.2344 10.6406 196.2344 10.0156 Q196.2344 9.2344 196.7812 8.8203 Q197.3281 8.4062 198.3438 8.4062 Q198.8281 8.4062 199.2734 8.4766 Q199.7188 8.5469 200.0781 8.6875 ZM206.4912 11.0469 L206.4912 11.4844 L202.3506 11.4844 Q202.4131 12.4062 202.9131 12.8906 Q203.4131 13.375 204.3037 13.375 Q204.8193 13.375 205.3115 13.25 Q205.8037 13.125 206.2725 12.875 L206.2725 13.7188 Q205.7881 13.9219 205.2803 14.0312 Q204.7725 14.1406 204.2568 14.1406 Q202.9443 14.1406 202.1787 13.3828 Q201.4131 12.625 201.4131 11.3125 Q201.4131 9.9688 202.1396 9.1875 Q202.8662 8.4062 204.1006 8.4062 Q205.21 8.4062 205.8506 9.1094 Q206.4912 9.8125 206.4912 11.0469 ZM205.585 10.7812 Q205.585 10.0469 205.1787 9.6016 Q204.7725 9.1562 204.1162 9.1562 Q203.3506 9.1562 202.9053 9.5859 Q202.46 10.0156 202.3818 10.7812 L205.585 10.7812 ZM210.4404 11.25 Q209.3623 11.25 208.9404 11.5 Q208.5186 11.75 208.5186 12.3438 Q208.5186 12.8281 208.8311 13.1094 Q209.1436 13.3906 209.6904 13.3906 Q210.4404 13.3906 210.8936 12.8594 Q211.3467 12.3281 211.3467 11.4531 L211.3467 11.25 L210.4404 11.25 ZM212.2373 10.875 L212.2373 14 L211.3467 14 L211.3467 13.1719 Q211.0342 13.6719 210.5732 13.9062 Q210.1123 14.1406 209.4561 14.1406 Q208.6123 14.1406 208.1123 13.6719 Q207.6123 13.2031 207.6123 12.4062 Q207.6123 11.4844 208.2373 11.0156 Q208.8623 10.5469 210.0811 10.5469 L211.3467 10.5469 L211.3467 10.4531 Q211.3467 9.8438 210.9326 9.5 Q210.5186 9.1562 209.7842 9.1562 Q209.3154 9.1562 208.8701 9.2734 Q208.4248 9.3906 208.0186 9.6094 L208.0186 8.7812 Q208.5186 8.5938 208.9795 8.5 Q209.4404 8.4062 209.8779 8.4062 Q211.0654 8.4062 211.6514 9.0156 Q212.2373 9.625 212.2373 10.875 ZM217.5684 8.6875 L217.5684 9.5469 Q217.1934 9.3438 216.7871 9.25 Q216.3809 9.1562 215.9277 9.1562 Q215.2715 9.1562 214.9355 9.3594 Q214.5996 9.5625 214.5996 9.9688 Q214.5996 10.2812 214.834 10.4609 Q215.0684 10.6406 215.8027 10.7969 L216.0996 10.875 Q217.0684 11.0781 217.4668 11.4531 Q217.8652 11.8281 217.8652 12.4844 Q217.8652 13.25 217.2637 13.6953 Q216.6621 14.1406 215.6152 14.1406 Q215.1621 14.1406 214.6855 14.0547 Q214.209 13.9688 213.6934 13.7969 L213.6934 12.875 Q214.1934 13.125 214.6699 13.2578 Q215.1465 13.3906 215.6309 13.3906 Q216.2559 13.3906 216.5996 13.1719 Q216.9434 12.9531 216.9434 12.5625 Q216.9434 12.1875 216.7012 11.9922 Q216.459 11.7969 215.6152 11.625 L215.3027 11.5469 Q214.4746 11.375 214.0996 11.0078 Q213.7246 10.6406 213.7246 10.0156 Q213.7246 9.2344 214.2715 8.8203 Q214.8184 8.4062 215.834 8.4062 Q216.3184 8.4062 216.7637 8.4766 Q217.209 8.5469 217.5684 8.6875 ZM223.9814 11.0469 L223.9814 11.4844 L219.8408 11.4844 Q219.9033 12.4062 220.4033 12.8906 Q220.9033 13.375 221.7939 13.375 Q222.3096 13.375 222.8018 13.25 Q223.2939 13.125 223.7627 12.875 L223.7627 13.7188 Q223.2783 13.9219 222.7705 14.0312 Q222.2627 14.1406 221.7471 14.1406 Q220.4346 14.1406 219.6689 13.3828 Q218.9033 12.625 218.9033 11.3125 Q218.9033 9.9688 219.6299 9.1875 Q220.3564 8.4062 221.5908 8.4062 Q222.7002 8.4062 223.3408 9.1094 Q223.9814 9.8125 223.9814 11.0469 ZM223.0752 10.7812 Q223.0752 10.0469 222.6689 9.6016 Q222.2627 9.1562 221.6064 9.1562 Q220.8408 9.1562 220.3955 9.5859 Q219.9502 10.0156 219.8721 10.7812 L223.0752 10.7812 Z"
         style="clip-path:url(#clipPath2); stroke:none;"
         clip-path="url(#clipPath2)"
         id="path145" />
      <path
         d="M4.25 21.9375 Q3.3906 21.9375 2.9141 22.5703 Q2.4375 23.2031 2.4375 24.3594 Q2.4375 25.5156 2.9141 26.1484 Q3.3906 26.7812 4.25 26.7812 Q5.1094 26.7812 5.5859 26.1484 Q6.0625 25.5156 6.0625 24.3594 Q6.0625 23.2031 5.5859 22.5703 Q5.1094 21.9375 4.25 21.9375 ZM4.25 20.5781 Q6 20.5781 7 21.5859 Q8 22.5938 8 24.3594 Q8 26.125 7 27.1328 Q6 28.1406 4.25 28.1406 Q2.5 28.1406 1.5 27.1328 Q0.5 26.125 0.5 24.3594 Q0.5 22.5938 1.5 21.5859 Q2.5 20.5781 4.25 20.5781 ZM13.4072 24.0156 Q13.1729 23.9062 12.9463 23.8594 Q12.7197 23.8125 12.4854 23.8125 Q11.8135 23.8125 11.4541 24.2422 Q11.0947 24.6719 11.0947 25.4844 L11.0947 28 L9.3447 28 L9.3447 22.5312 L11.0947 22.5312 L11.0947 23.4219 Q11.4229 22.8906 11.8604 22.6484 Q12.2979 22.4062 12.9072 22.4062 Q13.001 22.4062 13.1025 22.4062 Q13.2041 22.4062 13.3916 22.4375 L13.4072 24.0156 ZM17.9951 27.0781 Q17.6357 27.5469 17.1982 27.7734 Q16.7607 28 16.1982 28 Q15.1982 28 14.542 27.2109 Q13.8857 26.4219 13.8857 25.2031 Q13.8857 23.9688 14.542 23.1875 Q15.1982 22.4062 16.1982 22.4062 Q16.7607 22.4062 17.1982 22.6328 Q17.6357 22.8594 17.9951 23.3438 L17.9951 22.5312 L19.7451 22.5312 L19.7451 27.4531 Q19.7451 28.7656 18.917 29.4609 Q18.0889 30.1562 16.5107 30.1562 Q15.9951 30.1562 15.5186 30.0781 Q15.042 30 14.5576 29.8438 L14.5576 28.4844 Q15.0107 28.75 15.4482 28.875 Q15.8857 29 16.3389 29 Q17.1982 29 17.5967 28.625 Q17.9951 28.25 17.9951 27.4531 L17.9951 27.0781 ZM16.8389 23.6719 Q16.292 23.6719 15.9951 24.0703 Q15.6982 24.4688 15.6982 25.2031 Q15.6982 25.9531 15.9873 26.3438 Q16.2764 26.7344 16.8389 26.7344 Q17.3857 26.7344 17.6904 26.3281 Q17.9951 25.9219 17.9951 25.2031 Q17.9951 24.4688 17.6904 24.0703 Q17.3857 23.6719 16.8389 23.6719 ZM23.8877 25.5312 Q23.3408 25.5312 23.0596 25.7188 Q22.7783 25.9062 22.7783 26.2656 Q22.7783 26.6094 23.0049 26.7969 Q23.2314 26.9844 23.6221 26.9844 Q24.1221 26.9844 24.458 26.625 Q24.7939 26.2656 24.7939 25.7344 L24.7939 25.5312 L23.8877 25.5312 ZM26.5596 24.875 L26.5596 28 L24.7939 28 L24.7939 27.1875 Q24.4346 27.6875 23.9971 27.9141 Q23.5596 28.1406 22.9346 28.1406 Q22.0752 28.1406 21.5518 27.6484 Q21.0283 27.1562 21.0283 26.3594 Q21.0283 25.3906 21.6846 24.9453 Q22.3408 24.5 23.7627 24.5 L24.7939 24.5 L24.7939 24.3594 Q24.7939 23.9531 24.4658 23.7578 Q24.1377 23.5625 23.4502 23.5625 Q22.8877 23.5625 22.4033 23.6719 Q21.9189 23.7812 21.4971 24.0156 L21.4971 22.6719 Q22.0596 22.5469 22.6299 22.4766 Q23.2002 22.4062 23.7627 22.4062 Q25.2471 22.4062 25.9033 22.9844 Q26.5596 23.5625 26.5596 24.875 ZM33.6826 24.6719 L33.6826 28 L31.917 28 L31.917 27.4531 L31.917 25.4531 Q31.917 24.75 31.8857 24.4766 Q31.8545 24.2031 31.7764 24.0781 Q31.6826 23.9062 31.5029 23.8125 Q31.3232 23.7188 31.1045 23.7188 Q30.5576 23.7188 30.2451 24.1406 Q29.9326 24.5625 29.9326 25.3125 L29.9326 28 L28.1826 28 L28.1826 22.5312 L29.9326 22.5312 L29.9326 23.3281 Q30.3232 22.8594 30.7686 22.6328 Q31.2139 22.4062 31.7451 22.4062 Q32.6982 22.4062 33.1904 22.9844 Q33.6826 23.5625 33.6826 24.6719 ZM35.3018 22.5312 L37.0518 22.5312 L37.0518 28 L35.3018 28 L35.3018 22.5312 ZM35.3018 20.4062 L37.0518 20.4062 L37.0518 21.8281 L35.3018 21.8281 L35.3018 20.4062 ZM42.9951 22.7031 L42.9951 24.0312 Q42.4326 23.7969 41.9092 23.6797 Q41.3857 23.5625 40.9326 23.5625 Q40.4326 23.5625 40.1904 23.6875 Q39.9482 23.8125 39.9482 24.0625 Q39.9482 24.2812 40.1279 24.3906 Q40.3076 24.5 40.792 24.5625 L41.0889 24.5938 Q42.4326 24.7656 42.9014 25.1562 Q43.3701 25.5469 43.3701 26.3906 Q43.3701 27.2656 42.7217 27.7031 Q42.0732 28.1406 40.792 28.1406 Q40.2607 28.1406 39.6826 28.0547 Q39.1045 27.9688 38.4795 27.7969 L38.4795 26.4688 Q39.0107 26.7188 39.5576 26.8516 Q40.1045 26.9844 40.667 26.9844 Q41.1826 26.9844 41.4404 26.8438 Q41.6982 26.7031 41.6982 26.4219 Q41.6982 26.1875 41.5264 26.0703 Q41.3545 25.9531 40.8232 25.8906 L40.5107 25.8438 Q39.3389 25.7031 38.8701 25.3047 Q38.4014 24.9062 38.4014 24.1094 Q38.4014 23.2344 38.9951 22.8203 Q39.5889 22.4062 40.8232 22.4062 Q41.3076 22.4062 41.8389 22.4766 Q42.3701 22.5469 42.9951 22.7031 ZM49.7441 23.4375 Q50.0723 22.9375 50.5332 22.6719 Q50.9941 22.4062 51.541 22.4062 Q52.4785 22.4062 52.9707 22.9844 Q53.4629 23.5625 53.4629 24.6719 L53.4629 28 L51.7129 28 L51.7129 25.1406 Q51.7129 25.0781 51.7129 25.0156 Q51.7129 24.9531 51.7129 24.8281 Q51.7129 24.2344 51.5488 23.9766 Q51.3848 23.7188 50.9941 23.7188 Q50.4941 23.7188 50.2285 24.125 Q49.9629 24.5312 49.9473 25.3125 L49.9473 28 L48.1816 28 L48.1816 25.1406 Q48.1816 24.2344 48.0254 23.9766 Q47.8691 23.7188 47.4785 23.7188 Q46.9785 23.7188 46.7051 24.1328 Q46.4316 24.5469 46.4316 25.3125 L46.4316 28 L44.666 28 L44.666 22.5312 L46.4316 22.5312 L46.4316 23.3281 Q46.7441 22.875 47.166 22.6406 Q47.5879 22.4062 48.0879 22.4062 Q48.6504 22.4062 49.0879 22.6797 Q49.5254 22.9531 49.7441 23.4375 ZM55.3828 22.5312 L57.1328 22.5312 L57.1328 24.4219 L55.3828 24.4219 L55.3828 22.5312 ZM55.3828 26.1094 L57.1328 26.1094 L57.1328 28 L55.3828 28 L55.3828 26.1094 Z"
         style="clip-path:url(#clipPath2); stroke:none;"
         clip-path="url(#clipPath2)"
         id="path147" />
      <path
         d="M66.9844 20.7031 L67.9688 20.7031 L67.9688 23.7031 L71.5469 23.7031 L71.5469 20.7031 L72.5312 20.7031 L72.5312 28 L71.5469 28 L71.5469 24.5312 L67.9688 24.5312 L67.9688 28 L66.9844 28 L66.9844 20.7031 ZM76.582 23.1562 Q75.8633 23.1562 75.4414 23.7188 Q75.0195 24.2812 75.0195 25.2656 Q75.0195 26.25 75.4336 26.8125 Q75.8477 27.375 76.582 27.375 Q77.3008 27.375 77.7227 26.8125 Q78.1445 26.25 78.1445 25.2656 Q78.1445 24.2969 77.7227 23.7266 Q77.3008 23.1562 76.582 23.1562 ZM76.582 22.4062 Q77.7539 22.4062 78.4258 23.1641 Q79.0977 23.9219 79.0977 25.2656 Q79.0977 26.6094 78.4258 27.375 Q77.7539 28.1406 76.582 28.1406 Q75.4102 28.1406 74.7383 27.375 Q74.0664 26.6094 74.0664 25.2656 Q74.0664 23.9219 74.7383 23.1641 Q75.4102 22.4062 76.582 22.4062 ZM84.8408 23.5781 Q85.1689 22.9688 85.6377 22.6875 Q86.1064 22.4062 86.7471 22.4062 Q87.6064 22.4062 88.0674 23 Q88.5283 23.5938 88.5283 24.7031 L88.5283 28 L87.6221 28 L87.6221 24.7344 Q87.6221 23.9375 87.3486 23.5625 Q87.0752 23.1875 86.4971 23.1875 Q85.7939 23.1875 85.3955 23.6484 Q84.9971 24.1094 84.9971 24.9062 L84.9971 28 L84.0908 28 L84.0908 24.7344 Q84.0908 23.9375 83.8096 23.5625 Q83.5283 23.1875 82.9502 23.1875 Q82.2627 23.1875 81.8564 23.6484 Q81.4502 24.1094 81.4502 24.9062 L81.4502 28 L80.5439 28 L80.5439 22.5312 L81.4502 22.5312 L81.4502 23.375 Q81.7627 22.875 82.1924 22.6406 Q82.6221 22.4062 83.2002 22.4062 Q83.8096 22.4062 84.2236 22.7031 Q84.6377 23 84.8408 23.5781 ZM92.4414 23.1562 Q91.7227 23.1562 91.3008 23.7188 Q90.8789 24.2812 90.8789 25.2656 Q90.8789 26.25 91.293 26.8125 Q91.707 27.375 92.4414 27.375 Q93.1602 27.375 93.582 26.8125 Q94.0039 26.25 94.0039 25.2656 Q94.0039 24.2969 93.582 23.7266 Q93.1602 23.1562 92.4414 23.1562 ZM92.4414 22.4062 Q93.6133 22.4062 94.2852 23.1641 Q94.957 23.9219 94.957 25.2656 Q94.957 26.6094 94.2852 27.375 Q93.6133 28.1406 92.4414 28.1406 Q91.2695 28.1406 90.5977 27.375 Q89.9258 26.6094 89.9258 25.2656 Q89.9258 23.9219 90.5977 23.1641 Q91.2695 22.4062 92.4414 22.4062 ZM103.0977 22.6875 L103.0977 23.5469 Q102.7227 23.3438 102.3164 23.25 Q101.9102 23.1562 101.457 23.1562 Q100.8008 23.1562 100.4648 23.3594 Q100.1289 23.5625 100.1289 23.9688 Q100.1289 24.2812 100.3633 24.4609 Q100.5977 24.6406 101.332 24.7969 L101.6289 24.875 Q102.5977 25.0781 102.9961 25.4531 Q103.3945 25.8281 103.3945 26.4844 Q103.3945 27.25 102.793 27.6953 Q102.1914 28.1406 101.1445 28.1406 Q100.6914 28.1406 100.2148 28.0547 Q99.7383 27.9688 99.2227 27.7969 L99.2227 26.875 Q99.7227 27.125 100.1992 27.2578 Q100.6758 27.3906 101.1602 27.3906 Q101.7852 27.3906 102.1289 27.1719 Q102.4727 26.9531 102.4727 26.5625 Q102.4727 26.1875 102.2305 25.9922 Q101.9883 25.7969 101.1445 25.625 L100.832 25.5469 Q100.0039 25.375 99.6289 25.0078 Q99.2539 24.6406 99.2539 24.0156 Q99.2539 23.2344 99.8008 22.8203 Q100.3477 22.4062 101.3633 22.4062 Q101.8477 22.4062 102.293 22.4766 Q102.7383 22.5469 103.0977 22.6875 ZM107.3076 25.25 Q106.2295 25.25 105.8076 25.5 Q105.3857 25.75 105.3857 26.3438 Q105.3857 26.8281 105.6982 27.1094 Q106.0107 27.3906 106.5576 27.3906 Q107.3076 27.3906 107.7607 26.8594 Q108.2139 26.3281 108.2139 25.4531 L108.2139 25.25 L107.3076 25.25 ZM109.1045 24.875 L109.1045 28 L108.2139 28 L108.2139 27.1719 Q107.9014 27.6719 107.4404 27.9062 Q106.9795 28.1406 106.3232 28.1406 Q105.4795 28.1406 104.9795 27.6719 Q104.4795 27.2031 104.4795 26.4062 Q104.4795 25.4844 105.1045 25.0156 Q105.7295 24.5469 106.9482 24.5469 L108.2139 24.5469 L108.2139 24.4531 Q108.2139 23.8438 107.7998 23.5 Q107.3857 23.1562 106.6514 23.1562 Q106.1826 23.1562 105.7373 23.2734 Q105.292 23.3906 104.8857 23.6094 L104.8857 22.7812 Q105.3857 22.5938 105.8467 22.5 Q106.3076 22.4062 106.7451 22.4062 Q107.9326 22.4062 108.5186 23.0156 Q109.1045 23.625 109.1045 24.875 ZM111.8262 27.1719 L111.8262 30.0781 L110.9199 30.0781 L110.9199 22.5312 L111.8262 22.5312 L111.8262 23.3594 Q112.1074 22.875 112.5371 22.6406 Q112.9668 22.4062 113.5762 22.4062 Q114.5762 22.4062 115.1934 23.1953 Q115.8105 23.9844 115.8105 25.2656 Q115.8105 26.5625 115.1934 27.3516 Q114.5762 28.1406 113.5762 28.1406 Q112.9668 28.1406 112.5371 27.9062 Q112.1074 27.6719 111.8262 27.1719 ZM114.8887 25.2656 Q114.8887 24.2812 114.4746 23.7188 Q114.0605 23.1562 113.3574 23.1562 Q112.6387 23.1562 112.2324 23.7188 Q111.8262 24.2812 111.8262 25.2656 Q111.8262 26.2656 112.2324 26.8281 Q112.6387 27.3906 113.3574 27.3906 Q114.0605 27.3906 114.4746 26.8281 Q114.8887 26.2656 114.8887 25.2656 ZM117.2988 22.5312 L118.2051 22.5312 L118.2051 28 L117.2988 28 L117.2988 22.5312 ZM117.2988 20.4062 L118.2051 20.4062 L118.2051 21.5469 L117.2988 21.5469 L117.2988 20.4062 ZM124.7646 25.0469 L124.7646 25.4844 L120.624 25.4844 Q120.6865 26.4062 121.1865 26.8906 Q121.6865 27.375 122.5771 27.375 Q123.0928 27.375 123.585 27.25 Q124.0771 27.125 124.5459 26.875 L124.5459 27.7188 Q124.0615 27.9219 123.5537 28.0312 Q123.0459 28.1406 122.5303 28.1406 Q121.2178 28.1406 120.4521 27.3828 Q119.6865 26.625 119.6865 25.3125 Q119.6865 23.9688 120.4131 23.1875 Q121.1396 22.4062 122.374 22.4062 Q123.4834 22.4062 124.124 23.1094 Q124.7646 23.8125 124.7646 25.0469 ZM123.8584 24.7812 Q123.8584 24.0469 123.4521 23.6016 Q123.0459 23.1562 122.3896 23.1562 Q121.624 23.1562 121.1787 23.5859 Q120.7334 24.0156 120.6553 24.7812 L123.8584 24.7812 ZM130.7764 24.7031 L130.7764 28 L129.8857 28 L129.8857 24.7344 Q129.8857 23.9531 129.5811 23.5703 Q129.2764 23.1875 128.667 23.1875 Q127.9482 23.1875 127.5264 23.6484 Q127.1045 24.1094 127.1045 24.9062 L127.1045 28 L126.1982 28 L126.1982 22.5312 L127.1045 22.5312 L127.1045 23.375 Q127.4326 22.8906 127.8701 22.6484 Q128.3076 22.4062 128.8701 22.4062 Q129.8076 22.4062 130.292 22.9844 Q130.7764 23.5625 130.7764 24.7031 ZM136.0518 22.6875 L136.0518 23.5469 Q135.6768 23.3438 135.2705 23.25 Q134.8643 23.1562 134.4111 23.1562 Q133.7549 23.1562 133.4189 23.3594 Q133.083 23.5625 133.083 23.9688 Q133.083 24.2812 133.3174 24.4609 Q133.5518 24.6406 134.2861 24.7969 L134.583 24.875 Q135.5518 25.0781 135.9502 25.4531 Q136.3486 25.8281 136.3486 26.4844 Q136.3486 27.25 135.7471 27.6953 Q135.1455 28.1406 134.0986 28.1406 Q133.6455 28.1406 133.1689 28.0547 Q132.6924 27.9688 132.1768 27.7969 L132.1768 26.875 Q132.6768 27.125 133.1533 27.2578 Q133.6299 27.3906 134.1143 27.3906 Q134.7393 27.3906 135.083 27.1719 Q135.4268 26.9531 135.4268 26.5625 Q135.4268 26.1875 135.1846 25.9922 Q134.9424 25.7969 134.0986 25.625 L133.7861 25.5469 Q132.958 25.375 132.583 25.0078 Q132.208 24.6406 132.208 24.0156 Q132.208 23.2344 132.7549 22.8203 Q133.3018 22.4062 134.3174 22.4062 Q134.8018 22.4062 135.2471 22.4766 Q135.6924 22.5469 136.0518 22.6875 Z"
         style="clip-path:url(#clipPath2); stroke:none;"
         clip-path="url(#clipPath2)"
         id="path149" />
    </g>
    <g
       style="fill:navy; text-rendering:geometricPrecision; font-size:8; stroke:navy;"
       id="g155">
      <text
         x="229"
         xml:space="preserve"
         y="16"
         style="clip-path:url(#clipPath4); stroke:none;"
         clip-path="url(#clipPath4)"
         id="text153">1</text>
    </g>
    <g
       style="text-rendering:geometricPrecision;"
       id="g161">
      <path
         d="M341 177 L342 215"
         style="fill:none; clip-path:url(#clipPath5);"
         clip-path="url(#clipPath5)"
         id="path157" />
      <path
         d="M342 215 L346.8904 203.1673 L336.494 203.4408 Z"
         style="clip-path:url(#clipPath5); fill-rule:evenodd; stroke:none;"
         clip-path="url(#clipPath5)"
         id="path159" />
    </g>
    <g
       style="text-rendering:geometricPrecision;"
       id="g169">
      <path
         d="M311 64 L264 64 M264 64 L264 98"
         style="fill:none; clip-path:url(#clipPath6);"
         clip-path="url(#clipPath6)"
         id="path163" />
      <path
         d="M273.1 98 L273.1 99.3 L253.6 99.3 L253.6 98 L273.1 98 Z"
         style="fill:white; clip-path:url(#clipPath6); stroke:none;"
         clip-path="url(#clipPath6)"
         id="path165" />
      <path
         d="M273.1 98 L273.1 99.3 L253.6 99.3 L253.6 98 L273.1 98 Z"
         style="fill:none; clip-path:url(#clipPath6);"
         clip-path="url(#clipPath6)"
         id="path167" />
    </g>
    <g
       style="text-rendering:geometricPrecision;"
       id="g175">
      <path
         d="M448 323 L515 323 M515 323 L515 361"
         style="fill:none; clip-path:url(#clipPath7);"
         clip-path="url(#clipPath7)"
         id="path171" />
      <path
         d="M515 361 L520.2 349.3 L509.8 349.3 Z"
         style="clip-path:url(#clipPath7); fill-rule:evenodd; stroke:none;"
         clip-path="url(#clipPath7)"
         id="path173" />
    </g>
    <g
       style="text-rendering:geometricPrecision;"
       id="g181">
      <path
         d="M418 124 L418 157"
         style="fill:none; clip-path:url(#clipPath8);"
         clip-path="url(#clipPath8)"
         id="path177" />
      <path
         d="M418 157 L423.2 145.3 L412.8 145.3 Z"
         style="clip-path:url(#clipPath8); fill-rule:evenodd; stroke:none;"
         clip-path="url(#clipPath8)"
         id="path179" />
    </g>
    <g
       style="text-rendering:geometricPrecision;"
       id="g187">
      <path
         d="M418 235 L418 264"
         style="fill:none; clip-path:url(#clipPath9);"
         clip-path="url(#clipPath9)"
         id="path183" />
      <path
         d="M418 264 L423.2 252.3 L412.8 252.3 Z"
         style="clip-path:url(#clipPath9); fill-rule:evenodd; stroke:none;"
         clip-path="url(#clipPath9)"
         id="path185" />
    </g>
    <g
       style="text-rendering:geometricPrecision;"
       id="g193">
      <path
         d="M264 178 L264 192 M264 192 L312 192 M312 192 L312 215"
         style="fill:none; clip-path:url(#clipPath10);"
         clip-path="url(#clipPath10)"
         id="path189" />
      <path
         d="M312 215 L317.2 203.3 L306.8 203.3 Z"
         style="clip-path:url(#clipPath10); fill-rule:evenodd; stroke:none;"
         clip-path="url(#clipPath10)"
         id="path191" />
    </g>
    <g
       style="text-rendering:geometricPrecision;"
       id="g201">
      <path
         d="M341 74 L341 97"
         style="fill:none; clip-path:url(#clipPath11);"
         clip-path="url(#clipPath11)"
         id="path195" />
      <path
         d="M350.1 97 L350.1 98.3 L330.6 98.3 L330.6 97 L350.1 97 Z"
         style="fill:white; clip-path:url(#clipPath11); stroke:none;"
         clip-path="url(#clipPath11)"
         id="path197" />
      <path
         d="M350.1 97 L350.1 98.3 L330.6 98.3 L330.6 97 L350.1 97 Z"
         style="fill:none; clip-path:url(#clipPath11);"
         clip-path="url(#clipPath11)"
         id="path199" />
    </g>
    <g
       style="text-rendering:geometricPrecision;"
       id="g207">
      <path
         d="M418 284 L418 313"
         style="fill:none; clip-path:url(#clipPath12);"
         clip-path="url(#clipPath12)"
         id="path203" />
      <path
         d="M418 313 L423.2 301.3 L412.8 301.3 Z"
         style="clip-path:url(#clipPath12); fill-rule:evenodd; stroke:none;"
         clip-path="url(#clipPath12)"
         id="path205" />
    </g>
    <g
       style="text-rendering:geometricPrecision;"
       id="g213">
      <path
         d="M264 125 L264 158"
         style="fill:none; clip-path:url(#clipPath13);"
         clip-path="url(#clipPath13)"
         id="path209" />
      <path
         d="M264 158 L269.2 146.3 L258.8 146.3 Z"
         style="clip-path:url(#clipPath13); fill-rule:evenodd; stroke:none;"
         clip-path="url(#clipPath13)"
         id="path211" />
    </g>
    <g
       style="text-rendering:geometricPrecision;"
       id="g219">
      <path
         d="M357 225 L388 225"
         style="fill:none; clip-path:url(#clipPath14);"
         clip-path="url(#clipPath14)"
         id="path215" />
      <path
         d="M388 225 L376.3 219.8 L376.3 230.2 Z"
         style="clip-path:url(#clipPath14); fill-rule:evenodd; stroke:none;"
         clip-path="url(#clipPath14)"
         id="path217" />
    </g>
    <g
       style="text-rendering:geometricPrecision;"
       id="g227">
      <path
         d="M371 64 L418 64 M418 64 L418 95"
         style="fill:none; clip-path:url(#clipPath15);"
         clip-path="url(#clipPath15)"
         id="path221" />
      <path
         d="M423.2 95 L418 106.7 L412.8 95 Z"
         style="fill:white; clip-path:url(#clipPath15); stroke:none;"
         clip-path="url(#clipPath15)"
         id="path223" />
      <path
         d="M423.2 95 L418 106.7 L412.8 95 Z"
         style="fill:none; clip-path:url(#clipPath15);"
         clip-path="url(#clipPath15)"
         id="path225" />
    </g>
    <g
       style="text-rendering:geometricPrecision;"
       id="g233">
      <path
         d="M418 333 L418 361"
         style="fill:none; clip-path:url(#clipPath16);"
         clip-path="url(#clipPath16)"
         id="path229" />
      <path
         d="M418 361 L423.2 349.3 L412.8 349.3 Z"
         style="clip-path:url(#clipPath16); fill-rule:evenodd; stroke:none;"
         clip-path="url(#clipPath16)"
         id="path231" />
    </g>
    <g
       style="text-rendering:geometricPrecision;"
       id="g239">
      <path
         d="M388 323 L325 323 M325 323 L325 368"
         style="fill:none; clip-path:url(#clipPath17);"
         clip-path="url(#clipPath17)"
         id="path235" />
      <path
         d="M325 368 L330.2 356.3 L319.8 356.3 Z"
         style="clip-path:url(#clipPath17); fill-rule:evenodd; stroke:none;"
         clip-path="url(#clipPath17)"
         id="path237" />
    </g>
    <g
       style="text-rendering:geometricPrecision;"
       id="g245">
      <path
         d="M341 124 L341 157"
         style="fill:none; clip-path:url(#clipPath18);"
         clip-path="url(#clipPath18)"
         id="path241" />
      <path
         d="M341 157 L346.2 145.3 L335.8 145.3 Z"
         style="clip-path:url(#clipPath18); fill-rule:evenodd; stroke:none;"
         clip-path="url(#clipPath18)"
         id="path243" />
    </g>
    <g
       style="text-rendering:geometricPrecision;"
       id="g251">
      <path
         d="M418 177 L418 215"
         style="fill:none; clip-path:url(#clipPath19);"
         clip-path="url(#clipPath19)"
         id="path247" />
      <path
         d="M418 215 L423.2 203.3 L412.8 203.3 Z"
         style="clip-path:url(#clipPath19); fill-rule:evenodd; stroke:none;"
         clip-path="url(#clipPath19)"
         id="path249" />
    </g>
    <g
       style="text-rendering:geometricPrecision;"
       id="g255">
      <path
         d="M194.5139 338.8416 Q180.4982 339.0059 180.1234 307.0249 Q179.7485 275.044 165.7328 275.2083 Q179.7485 275.044 179.3736 243.063 Q178.9988 211.0821 193.0144 210.9178"
         style="fill:none; clip-path:url(#clipPath20);"
         clip-path="url(#clipPath20)"
         id="path253" />
    </g>
    <g
       style="fill:silver; text-rendering:geometricPrecision; stroke:silver;"
       id="g259">
      <path
         d="M215 176.5 L215 176.5 L215 176.5 L216.5 176.5 L216.5 178 L216.5 454 L216.5 455.5 L215 455.5 L212 455.5 L212 454 L212 452.5 L215 452.5 L216.5 452.5 L216.5 454 C216.5 457.0374 218.9625 459.5 222 459.5 L223.5 459.5 L223.5 461 L223.5 464 L222 464 L220.5 464 L220.5 461 L220.5 459.5 L222 459.5 L555 459.5 L556.5 459.5 L556.5 461 L556.5 464 L555 464 L553.5 464 L553.5 461 L553.5 459.5 L555 459.5 C558.0374 459.5 560.5 457.0375 560.5 454 L560.5 452.5 L562 452.5 L565 452.5 L565 454 L565 455.5 L562 455.5 L560.5 455.5 L560.5 454 L560.5 178 L560.5 176.5 L562 176.5 L565 176.5 L565 178 L565 179.5 L562 179.5 L560.5 179.5 L560.5 178 C560.5 174.9624 558.0374 172.5 555 172.5 L553.5 172.5 L553.5 171 L553.5 168 L555 168 L556.5 168 L556.5 171 L556.5 172.5 L555 172.5 L222 172.5 L220.5 172.5 L220.5 171 L220.5 168 L222 168 L223.5 168 L223.5 171 L223.5 172.5 L222 172.5 C218.9624 172.5 216.5 174.9624 216.5 178 L216.5 179.5 L215 179.5 L212 179.5 L212 178 L212 176.5 L215 176.5 L216.5 176.5 L216.5 179.5 L215 179.5 L212 179.5 L212 176.5 L215 176.5 L215 178 L213.5 178 C213.5 173.3056 217.3056 169.5 222 169.5 L222 171 L220.5 171 L220.5 168 L223.5 168 L223.5 171 L222 171 L222 169.5 L555 169.5 L555 171 L553.5 171 L553.5 168 L556.5 168 L556.5 171 L555 171 L555 169.5 C559.6943 169.5 563.5 173.3056 563.5 178 L562 178 L562 176.5 L565 176.5 L565 179.5 L562 179.5 L562 178 L563.5 178 L563.5 454 L562 454 L562 452.5 L565 452.5 L565 455.5 L562 455.5 L562 454 L563.5 454 C563.5 458.6944 559.6943 462.5 555 462.5 L555 461 L556.5 461 L556.5 464 L553.5 464 L553.5 461 L555 461 L555 462.5 L222 462.5 L222 461 L223.5 461 L223.5 464 L220.5 464 L220.5 461 L222 461 L222 462.5 C217.3056 462.5 213.5 458.6942 213.5 454 L215 454 L215 455.5 L212 455.5 L212 452.5 L215 452.5 L215 454 L213.5 454 L213.5 178 L215 178 L215 179.5 L215 179.5 L213.5 179.5 L213.5 176.5 ZM209 176.5 L209 176.5 L209 176.5 L209 178 L207.5 178 C207.5 169.9919 213.9919 163.5 222 163.5 L222 165 L222 163.5 L222 163.5 L222 165 L222 163.5 L555 163.5 L555 165 L555 163.5 L555 163.5 L555 165 L555 163.5 C563.0078 163.5 569.5 169.9919 569.5 178 L568 178 L568 176.5 L568 176.5 L569.5 176.5 L569.5 178 L569.5 454 L568 454 L568 452.5 L568 452.5 L569.5 452.5 L569.5 454 C569.5 462.0081 563.0078 468.5 555 468.5 L555 467 L555 465.5 L555 465.5 L555 467 L555 468.5 L222 468.5 L222 467 L222 465.5 L222 465.5 L222 467 L222 468.5 C213.9919 468.5 207.5 462.008 207.5 454 L207.5 452.5 L209 452.5 L209 452.5 L209 454 L207.5 454 L207.5 178 L207.5 176.5 L209 176.5 M209 179.5 L209 178 L210.5 178 L210.5 454 L210.5 455.5 L209 455.5 L209 455.5 L209 454 L210.5 454 C210.5 460.3512 215.6488 465.5 222 465.5 L222 468.5 L222 468.5 L222 465.5 L555 465.5 L555 468.5 L555 468.5 L555 465.5 C561.3511 465.5 566.5 460.3512 566.5 454 L568 454 L568 455.5 L568 455.5 L566.5 455.5 L566.5 454 L566.5 178 L568 178 L568 179.5 L568 179.5 L566.5 179.5 L566.5 178 C566.5 171.6488 561.3509 166.5 555 166.5 L555 166.5 L555 166.5 L555 166.5 L222 166.5 L222 166.5 L222 166.5 L222 166.5 C215.6488 166.5 210.5 171.6488 210.5 178 L210.5 179.5 L209 179.5 L209 179.5 Z"
         style="clip-path:url(#clipPath21); stroke:none;"
         clip-path="url(#clipPath21)"
         id="path257" />
    </g>
    <g
       style="font-weight:bold; text-rendering:geometricPrecision;"
       id="g263">
      <text
         x="39"
         xml:space="preserve"
         y="278"
         style="clip-path:url(#clipPath22); stroke:none;"
         clip-path="url(#clipPath22)"
         id="text261">Signal transducers</text>
    </g>
    <g
       style="font-weight:bold; text-rendering:geometricPrecision;"
       id="g267">
      <text
         x="76"
         xml:space="preserve"
         y="118"
         style="clip-path:url(#clipPath23); stroke:none;"
         clip-path="url(#clipPath23)"
         id="text265">Ligands</text>
    </g>
    <g
       style="font-weight:bold; text-rendering:geometricPrecision;"
       id="g273">
      <text
         x="483"
         xml:space="preserve"
         y="427"
         style="clip-path:url(#clipPath24); stroke:none;"
         clip-path="url(#clipPath24)"
         id="text269">Apoptotic </text>
      <text
         x="483"
         xml:space="preserve"
         y="440"
         style="clip-path:url(#clipPath24); stroke:none;"
         clip-path="url(#clipPath24)"
         id="text271">molecules</text>
    </g>
    <g
       style="font-weight:bold; text-rendering:geometricPrecision;"
       id="g279">
      <text
         x="284"
         xml:space="preserve"
         y="427"
         style="clip-path:url(#clipPath25); stroke:none;"
         clip-path="url(#clipPath25)"
         id="text275">Downstream</text>
      <text
         x="301"
         xml:space="preserve"
         y="440"
         style="clip-path:url(#clipPath25); stroke:none;"
         clip-path="url(#clipPath25)"
         id="text277">kinases</text>
    </g>
    <g
       style="font-weight:bold; text-rendering:geometricPrecision;"
       id="g283">
      <text
         x="68"
         xml:space="preserve"
         y="169"
         style="clip-path:url(#clipPath26); stroke:none;"
         clip-path="url(#clipPath26)"
         id="text281">Receptors</text>
    </g>
    <g
       style="font-weight:bold; text-rendering:geometricPrecision;"
       id="g287">
      <text
         x="33"
         xml:space="preserve"
         y="385"
         style="clip-path:url(#clipPath27); stroke:none;"
         clip-path="url(#clipPath27)"
         id="text285">Downstream targets</text>
    </g>
    <g
       style="font-weight:bold; text-rendering:geometricPrecision;"
       id="g293">
      <text
         x="374"
         xml:space="preserve"
         y="427"
         style="clip-path:url(#clipPath28); stroke:none;"
         clip-path="url(#clipPath28)"
         id="text289">Transcription </text>
      <text
         x="398"
         xml:space="preserve"
         y="440"
         style="clip-path:url(#clipPath28); stroke:none;"
         clip-path="url(#clipPath28)"
         id="text291">factors</text>
    </g>
    <g
       style="fill:white; text-rendering:geometricPrecision; stroke:white;"
       id="g301">
      <path
         d="M388 264 L448 264 L448 284 L388 284 L388 264 Z"
         style="clip-path:url(#clipPath29); stroke:none;"
         clip-path="url(#clipPath29)"
         id="path295" />
      <path
         d="M388 264 L448 264 L448 284 L388 284 L388 264 Z"
         style="fill:none; clip-path:url(#clipPath29); stroke:black;"
         clip-path="url(#clipPath29)"
         id="path297" />
      <text
         x="408"
         y="277"
         style="font-size:10; clip-path:url(#clipPath29); fill:black; stroke:none;"
         xml:space="preserve"
         clip-path="url(#clipPath29)"
         id="text299">MEK</text>
    </g>
    <g
       style="fill:white; text-rendering:geometricPrecision; stroke:white;"
       id="g309">
      <path
         d="M388 389 L448 389 L448 409 L388 409 L388 389 Z"
         style="clip-path:url(#clipPath30); stroke:none;"
         clip-path="url(#clipPath30)"
         id="path303" />
      <path
         d="M388 389 L448 389 L448 409 L388 409 L388 389 Z"
         style="fill:none; clip-path:url(#clipPath30); stroke:black;"
         clip-path="url(#clipPath30)"
         id="path305" />
      <text
         x="405"
         y="402"
         style="font-size:10; clip-path:url(#clipPath30); fill:black; stroke:none;"
         xml:space="preserve"
         clip-path="url(#clipPath30)"
         id="text307">CREB</text>
    </g>
    <g
       style="fill:white; text-rendering:geometricPrecision; stroke:white;"
       id="g317">
      <path
         d="M234 105 L294 105 L294 125 L234 125 L234 105 Z"
         style="clip-path:url(#clipPath31); stroke:none;"
         clip-path="url(#clipPath31)"
         id="path311" />
      <path
         d="M234 105 L294 105 L294 125 L234 125 L234 105 Z"
         style="fill:none; clip-path:url(#clipPath31); stroke:black;"
         clip-path="url(#clipPath31)"
         id="path313" />
      <text
         x="251"
         y="118"
         style="font-size:10; clip-path:url(#clipPath31); fill:black; stroke:none;"
         xml:space="preserve"
         clip-path="url(#clipPath31)"
         id="text315">BDNF</text>
    </g>
    <g
       style="fill:white; text-rendering:geometricPrecision; stroke:white;"
       id="g325">
      <path
         d="M295 368 L355 368 L355 388 L295 388 L295 368 Z"
         style="clip-path:url(#clipPath32); stroke:none;"
         clip-path="url(#clipPath32)"
         id="path319" />
      <path
         d="M295 368 L355 368 L355 388 L295 388 L295 368 Z"
         style="fill:none; clip-path:url(#clipPath32); stroke:black;"
         clip-path="url(#clipPath32)"
         id="path321" />
      <text
         x="312"
         y="381"
         style="font-size:10; clip-path:url(#clipPath32); fill:black; stroke:none;"
         xml:space="preserve"
         clip-path="url(#clipPath32)"
         id="text323">MSK1</text>
    </g>
    <g
       style="fill:white; text-rendering:geometricPrecision; stroke:white;"
       id="g333">
      <path
         d="M388 369 L448 369 L448 389 L388 389 L388 369 Z"
         style="clip-path:url(#clipPath33); stroke:none;"
         clip-path="url(#clipPath33)"
         id="path327" />
      <path
         d="M388 369 L448 369 L448 389 L388 389 L388 369 Z"
         style="fill:none; clip-path:url(#clipPath33); stroke:black;"
         clip-path="url(#clipPath33)"
         id="path329" />
      <text
         x="406"
         y="382"
         style="font-size:10; clip-path:url(#clipPath33); fill:black; stroke:none;"
         xml:space="preserve"
         clip-path="url(#clipPath33)"
         id="text331">ELK1</text>
    </g>
    <g
       style="fill:white; text-rendering:geometricPrecision; stroke:white;"
       id="g341">
      <path
         d="M388 215 L448 215 L448 235 L388 235 L388 215 Z"
         style="clip-path:url(#clipPath34); stroke:none;"
         clip-path="url(#clipPath34)"
         id="path335" />
      <path
         d="M388 215 L448 215 L448 235 L388 235 L388 215 Z"
         style="fill:none; clip-path:url(#clipPath34); stroke:black;"
         clip-path="url(#clipPath34)"
         id="path337" />
      <text
         x="406"
         y="228"
         style="font-size:10; clip-path:url(#clipPath34); fill:black; stroke:none;"
         xml:space="preserve"
         clip-path="url(#clipPath34)"
         id="text339">RAF1</text>
    </g>
    <g
       style="fill:white; text-rendering:geometricPrecision; stroke:white;"
       id="g349">
      <path
         d="M311 157 L371 157 L371 177 L311 177 L311 157 Z"
         style="clip-path:url(#clipPath35); stroke:none;"
         clip-path="url(#clipPath35)"
         id="path343" />
      <path
         d="M311 157 L371 157 L371 177 L311 177 L311 157 Z"
         style="fill:none; clip-path:url(#clipPath35); stroke:black;"
         clip-path="url(#clipPath35)"
         id="path345" />
      <text
         x="328"
         y="170"
         style="font-size:10; clip-path:url(#clipPath35); fill:black; stroke:none;"
         xml:space="preserve"
         clip-path="url(#clipPath35)"
         id="text347">EGFR</text>
    </g>
    <g
       style="fill:white; text-rendering:geometricPrecision; stroke:white;"
       id="g357">
      <path
         d="M388 157 L448 157 L448 177 L388 177 L388 157 Z"
         style="clip-path:url(#clipPath36); stroke:none;"
         clip-path="url(#clipPath36)"
         id="path351" />
      <path
         d="M388 157 L448 157 L448 177 L388 177 L388 157 Z"
         style="fill:none; clip-path:url(#clipPath36); stroke:black;"
         clip-path="url(#clipPath36)"
         id="path353" />
      <text
         x="404"
         y="170"
         style="font-size:10; clip-path:url(#clipPath36); fill:black; stroke:none;"
         xml:space="preserve"
         clip-path="url(#clipPath36)"
         id="text355">GRM1</text>
    </g>
    <g
       style="fill:white; text-rendering:geometricPrecision; stroke:white;"
       id="g365">
      <path
         d="M388 104 L448 104 L448 124 L388 124 L388 104 Z"
         style="clip-path:url(#clipPath37); stroke:none;"
         clip-path="url(#clipPath37)"
         id="path359" />
      <path
         d="M388 104 L448 104 L448 124 L388 124 L388 104 Z"
         style="fill:none; clip-path:url(#clipPath37); stroke:blue;"
         clip-path="url(#clipPath37)"
         id="path361" />
      <text
         x="392"
         y="117"
         style="font-size:10; clip-path:url(#clipPath37); fill:blue; stroke:none;"
         xml:space="preserve"
         clip-path="url(#clipPath37)"
         id="text363">Glutamate</text>
    </g>
    <g
       style="fill:white; text-rendering:geometricPrecision; stroke:white;"
       id="g373">
      <path
         d="M311 54 L371 54 L371 74 L311 74 L311 54 Z"
         style="clip-path:url(#clipPath38); stroke:none;"
         clip-path="url(#clipPath38)"
         id="path367" />
      <path
         d="M311 54 L371 54 L371 74 L311 74 L311 54 Z"
         style="fill:none; clip-path:url(#clipPath38); stroke:black;"
         clip-path="url(#clipPath38)"
         id="path369" />
      <text
         x="330"
         y="68"
         style="fill:black; clip-path:url(#clipPath38); stroke:none;"
         xml:space="preserve"
         clip-path="url(#clipPath38)"
         id="text371">HTT</text>
    </g>
    <g
       style="fill:white; text-rendering:geometricPrecision; stroke:white;"
       id="g381">
      <path
         d="M388 313 L448 313 L448 333 L388 333 L388 313 Z"
         style="clip-path:url(#clipPath39); stroke:none;"
         clip-path="url(#clipPath39)"
         id="path375" />
      <path
         d="M388 313 L448 313 L448 333 L388 333 L388 313 Z"
         style="fill:none; clip-path:url(#clipPath39); stroke:black;"
         clip-path="url(#clipPath39)"
         id="path377" />
      <text
         x="409"
         y="326"
         style="font-size:10; clip-path:url(#clipPath39); fill:black; stroke:none;"
         xml:space="preserve"
         clip-path="url(#clipPath39)"
         id="text379">ERK</text>
    </g>
    <g
       style="fill:white; text-rendering:geometricPrecision; stroke:white;"
       id="g389">
      <path
         d="M234 158 L294 158 L294 178 L234 178 L234 158 Z"
         style="clip-path:url(#clipPath40); stroke:none;"
         clip-path="url(#clipPath40)"
         id="path383" />
      <path
         d="M234 158 L294 158 L294 178 L234 178 L234 158 Z"
         style="fill:none; clip-path:url(#clipPath40); stroke:black;"
         clip-path="url(#clipPath40)"
         id="path385" />
      <text
         x="248"
         y="171"
         style="font-size:10; clip-path:url(#clipPath40); fill:black; stroke:none;"
         xml:space="preserve"
         clip-path="url(#clipPath40)"
         id="text387">NTRK2</text>
    </g>
    <g
       style="fill:white; text-rendering:geometricPrecision; stroke:white;"
       id="g397">
      <path
         d="M485 389 L545 389 L545 409 L485 409 L485 389 Z"
         style="clip-path:url(#clipPath41); stroke:none;"
         clip-path="url(#clipPath41)"
         id="path391" />
      <path
         d="M485 389 L545 389 L545 409 L485 409 L485 389 Z"
         style="fill:none; clip-path:url(#clipPath41); stroke:black;"
         clip-path="url(#clipPath41)"
         id="path393" />
      <text
         x="499"
         y="402"
         style="font-size:10; clip-path:url(#clipPath41); fill:black; stroke:none;"
         xml:space="preserve"
         clip-path="url(#clipPath41)"
         id="text395">CASP3</text>
    </g>
    <g
       style="fill:white; text-rendering:geometricPrecision; stroke:white;"
       id="g405">
      <path
         d="M311 104 L371 104 L371 124 L311 124 L311 104 Z"
         style="clip-path:url(#clipPath42); stroke:none;"
         clip-path="url(#clipPath42)"
         id="path399" />
      <path
         d="M311 104 L371 104 L371 124 L311 124 L311 104 Z"
         style="fill:none; clip-path:url(#clipPath42); stroke:black;"
         clip-path="url(#clipPath42)"
         id="path401" />
      <text
         x="332"
         y="117"
         style="font-size:10; clip-path:url(#clipPath42); fill:black; stroke:none;"
         xml:space="preserve"
         clip-path="url(#clipPath42)"
         id="text403">EGF</text>
    </g>
    <g
       style="fill:white; text-rendering:geometricPrecision; stroke:white;"
       id="g413">
      <path
         d="M297 215 L357 215 L357 235 L297 235 L297 215 Z"
         style="clip-path:url(#clipPath43); stroke:none;"
         clip-path="url(#clipPath43)"
         id="path407" />
      <path
         d="M297 215 L357 215 L357 235 L297 235 L297 215 Z"
         style="fill:none; clip-path:url(#clipPath43); stroke:black;"
         clip-path="url(#clipPath43)"
         id="path409" />
      <text
         x="317"
         y="228"
         style="font-size:10; clip-path:url(#clipPath43); fill:black; stroke:none;"
         xml:space="preserve"
         clip-path="url(#clipPath43)"
         id="text411">RAS</text>
    </g>
    <g
       style="fill:white; text-rendering:geometricPrecision; stroke:white;"
       id="g421">
      <path
         d="M485 369 L545 369 L545 389 L485 389 L485 369 Z"
         style="clip-path:url(#clipPath44); stroke:none;"
         clip-path="url(#clipPath44)"
         id="path415" />
      <path
         d="M485 369 L545 369 L545 389 L485 389 L485 369 Z"
         style="fill:none; clip-path:url(#clipPath44); stroke:black;"
         clip-path="url(#clipPath44)"
         id="path417" />
      <text
         x="499"
         y="382"
         style="font-size:10; clip-path:url(#clipPath44); fill:black; stroke:none;"
         xml:space="preserve"
         clip-path="url(#clipPath44)"
         id="text419">CASP7</text>
    </g>
    <g
       style="fill:white; text-rendering:geometricPrecision; stroke:white;"
       id="g427">
      <path
         d="M378.5 74 C378.5 78.1421 375.1422 81.5 371 81.5 C366.8578 81.5 363.5 78.1421 363.5 74 C363.5 69.8579 366.8578 66.5 371 66.5 C375.1422 66.5 378.5 69.8579 378.5 74 Z"
         style="clip-path:url(#clipPath45); stroke:none;"
         clip-path="url(#clipPath45)"
         id="path423" />
      <path
         d="M378.5 74 C378.5 78.1421 375.1422 81.5 371 81.5 C366.8578 81.5 363.5 78.1421 363.5 74 C363.5 69.8579 366.8578 66.5 371 66.5 C375.1422 66.5 378.5 69.8579 378.5 74 Z"
         style="fill:none; clip-path:url(#clipPath45); stroke:black;"
         clip-path="url(#clipPath45)"
         id="path425" />
    </g>
  </g>
</svg>
