<?xml version="1.0" encoding="UTF-8" standalone="no"?>
<svg
   style="fill-opacity:1; color-rendering:auto; color-interpolation:auto; stroke:black; text-rendering:auto; stroke-linecap:square; stroke-miterlimit:10; stroke-opacity:1; shape-rendering:auto; fill:black; stroke-dasharray:none; font-weight:normal; stroke-width:1; font-family:'Dialog'; font-style:normal; stroke-linejoin:miter; font-size:12; stroke-dashoffset:0; image-rendering:auto;"
   width="419"
   height="612"
   version="1.1"
   id="svg348"
   xmlns="http://www.w3.org/2000/svg"
   xmlns:svg="http://www.w3.org/2000/svg">
  <!--Generated by the Batik Graphics2D SVG Generator-->
  <defs
     id="genericDefs" />
  <g
     id="g346">
    <defs
       id="defs1">
      <clipPath
         clipPathUnits="userSpaceOnUse"
         id="clipPath1">
        <path
           d="M0 0 L427 0 L427 627 L0 627 L0 0 Z"
           id="path3" />
      </clipPath>
      <clipPath
         clipPathUnits="userSpaceOnUse"
         id="clipPath2">
        <path
           d="M0 0 L0 200 L200 200 L200 0 Z"
           id="path6" />
      </clipPath>
      <clipPath
         clipPathUnits="userSpaceOnUse"
         id="clipPath3">
        <path
           d="M317.6079 450.8288 L317.6079 506.8288 L400.2745 506.8288 L400.2745 450.8288 Z"
           id="path9" />
      </clipPath>
      <clipPath
         clipPathUnits="userSpaceOnUse"
         id="clipPath4">
        <path
           d="M312.3579 93.3009 L312.3579 248.8009 L405.5245 248.8009 L405.5245 93.3009 Z"
           id="path12" />
      </clipPath>
      <clipPath
         clipPathUnits="userSpaceOnUse"
         id="clipPath5">
        <path
           d="M324.2745 281.2255 L324.2745 417.2255 L393.6079 417.2255 L393.6079 281.2255 Z"
           id="path15" />
      </clipPath>
      <clipPath
         clipPathUnits="userSpaceOnUse"
         id="clipPath6">
        <path
           d="M206.3345 443.39 L206.3345 520.0323 L218.2733 520.0323 L218.2733 443.39 Z"
           id="path18" />
      </clipPath>
      <clipPath
         clipPathUnits="userSpaceOnUse"
         id="clipPath7">
        <path
           d="M206.3345 90.8617 L206.3345 261.6715 L218.2733 261.6715 L218.2733 90.8617 Z"
           id="path21" />
      </clipPath>
      <clipPath
         clipPathUnits="userSpaceOnUse"
         id="clipPath8">
        <path
           d="M206.3345 534.8013 L206.3345 579.7175 L218.2733 579.7175 L218.2733 534.8013 Z"
           id="path24" />
      </clipPath>
      <clipPath
         clipPathUnits="userSpaceOnUse"
         id="clipPath9">
        <path
           d="M211.4039 343.1406 L211.4039 354.5406 L324.7763 354.5406 L324.7763 343.1406 Z"
           id="path27" />
      </clipPath>
      <clipPath
         clipPathUnits="userSpaceOnUse"
         id="clipPath10">
        <path
           d="M206.3345 276.4404 L206.3345 428.6212 L218.2733 428.6212 L218.2733 276.4404 Z"
           id="path30" />
      </clipPath>
      <clipPath
         clipPathUnits="userSpaceOnUse"
         id="clipPath11">
        <path
           d="M211.4038 472.3773 L211.4038 483.7773 L318.1116 483.7773 L318.1116 472.3773 Z"
           id="path33" />
      </clipPath>
      <clipPath
         clipPathUnits="userSpaceOnUse"
         id="clipPath12">
        <path
           d="M211.4039 165.7569 L211.4039 177.1569 L312.86 177.1569 L312.86 165.7569 Z"
           id="path36" />
      </clipPath>
      <clipPath
         clipPathUnits="userSpaceOnUse"
         id="clipPath13">
        <path
           d="M126.3373 257.2404 L126.3373 277.4404 L298.2706 277.4404 L298.2706 257.2404 Z"
           id="path39" />
      </clipPath>
      <clipPath
         clipPathUnits="userSpaceOnUse"
         id="clipPath14">
        <path
           d="M153.1373 577.9865 L153.1373 598.1864 L271.4706 598.1864 L271.4706 577.9865 Z"
           id="path42" />
      </clipPath>
      <clipPath
         clipPathUnits="userSpaceOnUse"
         id="clipPath15">
        <path
           d="M131.1373 515.6013 L131.1373 535.8013 L293.4706 535.8013 L293.4706 515.6013 Z"
           id="path45" />
      </clipPath>
      <clipPath
         clipPathUnits="userSpaceOnUse"
         id="clipPath16">
        <path
           d="M134.7373 424.19 L134.7373 444.39 L289.8706 444.39 L289.8706 424.19 Z"
           id="path48" />
      </clipPath>
      <clipPath
         clipPathUnits="userSpaceOnUse"
         id="clipPath17">
        <path
           d="M136.7373 71.6617 L136.7373 91.8617 L287.8706 91.8617 L287.8706 71.6617 Z"
           id="path51" />
      </clipPath>
      <clipPath
         clipPathUnits="userSpaceOnUse"
         id="clipPath18">
        <path
           d="M319.8579 100.8009 L319.8579 121.8009 L398.0245 121.8009 L398.0245 100.8009 Z"
           id="path54" />
      </clipPath>
      <clipPath
         clipPathUnits="userSpaceOnUse"
         id="clipPath19">
        <path
           d="M319.8579 120.8009 L319.8579 141.8009 L398.0245 141.8009 L398.0245 120.8009 Z"
           id="path57" />
      </clipPath>
      <clipPath
         clipPathUnits="userSpaceOnUse"
         id="clipPath20">
        <path
           d="M331.7745 368.7255 L331.7745 389.7255 L386.1079 389.7255 L386.1079 368.7255 Z"
           id="path60" />
      </clipPath>
      <clipPath
         clipPathUnits="userSpaceOnUse"
         id="clipPath21">
        <path
           d="M319.8579 180.3009 L319.8579 201.3009 L398.0245 201.3009 L398.0245 180.3009 Z"
           id="path63" />
      </clipPath>
      <clipPath
         clipPathUnits="userSpaceOnUse"
         id="clipPath22">
        <path
           d="M331.7745 288.7255 L331.7745 309.7255 L386.1079 309.7255 L386.1079 288.7255 Z"
           id="path66" />
      </clipPath>
      <clipPath
         clipPathUnits="userSpaceOnUse"
         id="clipPath23">
        <path
           d="M331.7745 388.7255 L331.7745 409.7255 L386.1079 409.7255 L386.1079 388.7255 Z"
           id="path69" />
      </clipPath>
      <clipPath
         clipPathUnits="userSpaceOnUse"
         id="clipPath24">
        <path
           d="M319.8579 200.3009 L319.8579 221.3009 L398.0245 221.3009 L398.0245 200.3009 Z"
           id="path72" />
      </clipPath>
      <clipPath
         clipPathUnits="userSpaceOnUse"
         id="clipPath25">
        <path
           d="M331.7745 308.7255 L331.7745 329.7255 L386.1079 329.7255 L386.1079 308.7255 Z"
           id="path75" />
      </clipPath>
      <clipPath
         clipPathUnits="userSpaceOnUse"
         id="clipPath26">
        <path
           d="M319.8579 160.8009 L319.8579 181.8009 L398.0245 181.8009 L398.0245 160.8009 Z"
           id="path78" />
      </clipPath>
      <clipPath
         clipPathUnits="userSpaceOnUse"
         id="clipPath27">
        <path
           d="M325.1079 458.3288 L325.1079 479.3288 L392.7745 479.3288 L392.7745 458.3288 Z"
           id="path81" />
      </clipPath>
      <clipPath
         clipPathUnits="userSpaceOnUse"
         id="clipPath28">
        <path
           d="M331.7745 348.7255 L331.7745 369.7255 L386.1079 369.7255 L386.1079 348.7255 Z"
           id="path84" />
      </clipPath>
      <clipPath
         clipPathUnits="userSpaceOnUse"
         id="clipPath29">
        <path
           d="M331.7745 328.7255 L331.7745 349.7255 L386.1079 349.7255 L386.1079 328.7255 Z"
           id="path87" />
      </clipPath>
      <clipPath
         clipPathUnits="userSpaceOnUse"
         id="clipPath30">
        <path
           d="M319.8579 140.8009 L319.8579 161.8009 L398.0245 161.8009 L398.0245 140.8009 Z"
           id="path90" />
      </clipPath>
      <clipPath
         clipPathUnits="userSpaceOnUse"
         id="clipPath31">
        <path
           d="M325.1079 478.3288 L325.1079 499.3288 L392.7745 499.3288 L392.7745 478.3288 Z"
           id="path93" />
      </clipPath>
      <clipPath
         clipPathUnits="userSpaceOnUse"
         id="clipPath32">
        <path
           d="M319.8579 220.3009 L319.8579 241.3009 L398.0245 241.3009 L398.0245 220.3009 Z"
           id="path96" />
      </clipPath>
    </defs>
    <g
       style="fill:white; stroke:white;"
       id="g102">
      <rect
         x="0"
         width="427"
         height="627"
         y="0"
         style="stroke:none;"
         id="rect100" />
    </g>
    <g
       style="font-weight:bold; font-size:10; text-rendering:geometricPrecision;"
       id="g112">
      <path
         d="M0.0469 6.7031 L6.7656 6.7031 L6.7656 8.125 L4.3438 8.125 L4.3438 14 L2.4688 14 L2.4688 8.125 L0.0469 8.125 L0.0469 6.7031 ZM7.665 8.5312 L9.415 8.5312 L9.415 14 L7.665 14 L7.665 8.5312 ZM7.665 6.4062 L9.415 6.4062 L9.415 7.8281 L7.665 7.8281 L7.665 6.4062 ZM12.999 6.9844 L12.999 8.5312 L14.7959 8.5312 L14.7959 9.7812 L12.999 9.7812 L12.999 12.0938 Q12.999 12.4844 13.1475 12.6172 Q13.2959 12.75 13.749 12.75 L14.6553 12.75 L14.6553 14 L13.1553 14 Q12.1084 14 11.6787 13.5703 Q11.249 13.1406 11.249 12.0938 L11.249 9.7812 L10.374 9.7812 L10.374 8.5312 L11.249 8.5312 L11.249 6.9844 L12.999 6.9844 ZM15.873 6.4062 L17.623 6.4062 L17.623 14 L15.873 14 L15.873 6.4062 ZM24.7539 11.25 L24.7539 11.75 L20.6758 11.75 Q20.7383 12.3594 21.1133 12.6719 Q21.4883 12.9844 22.1758 12.9844 Q22.7227 12.9844 23.3086 12.8203 Q23.8945 12.6562 24.5039 12.3125 L24.5039 13.6719 Q23.8789 13.9062 23.2617 14.0234 Q22.6445 14.1406 22.0195 14.1406 Q20.5352 14.1406 19.7148 13.3828 Q18.8945 12.625 18.8945 11.2656 Q18.8945 9.9375 19.6992 9.1719 Q20.5039 8.4062 21.9258 8.4062 Q23.207 8.4062 23.9805 9.1797 Q24.7539 9.9531 24.7539 11.25 ZM22.957 10.6719 Q22.957 10.1719 22.668 9.8672 Q22.3789 9.5625 21.9102 9.5625 Q21.3945 9.5625 21.082 9.8438 Q20.7695 10.125 20.6914 10.6719 L22.957 10.6719 ZM26.3643 8.5312 L28.1143 8.5312 L28.1143 10.4219 L26.3643 10.4219 L26.3643 8.5312 ZM26.3643 12.1094 L28.1143 12.1094 L28.1143 14 L26.3643 14 L26.3643 12.1094 Z"
         style="clip-path:url(#clipPath2); stroke:none;"
         clip-path="url(#clipPath2)"
         id="path104" />
      <path
         d="M38.9844 6.7031 L43.1719 6.7031 L43.1719 7.5469 L39.9688 7.5469 L39.9688 9.6875 L42.8594 9.6875 L42.8594 10.5156 L39.9688 10.5156 L39.9688 14 L38.9844 14 L38.9844 6.7031 ZM47.1738 11.25 Q46.0957 11.25 45.6738 11.5 Q45.252 11.75 45.252 12.3438 Q45.252 12.8281 45.5645 13.1094 Q45.877 13.3906 46.4238 13.3906 Q47.1738 13.3906 47.627 12.8594 Q48.0801 12.3281 48.0801 11.4531 L48.0801 11.25 L47.1738 11.25 ZM48.9707 10.875 L48.9707 14 L48.0801 14 L48.0801 13.1719 Q47.7676 13.6719 47.3066 13.9062 Q46.8457 14.1406 46.1895 14.1406 Q45.3457 14.1406 44.8457 13.6719 Q44.3457 13.2031 44.3457 12.4062 Q44.3457 11.4844 44.9707 11.0156 Q45.5957 10.5469 46.8145 10.5469 L48.0801 10.5469 L48.0801 10.4531 Q48.0801 9.8438 47.666 9.5 Q47.252 9.1562 46.5176 9.1562 Q46.0488 9.1562 45.6035 9.2734 Q45.1582 9.3906 44.752 9.6094 L44.752 8.7812 Q45.252 8.5938 45.7129 8.5 Q46.1738 8.4062 46.6113 8.4062 Q47.7988 8.4062 48.3848 9.0156 Q48.9707 9.625 48.9707 10.875 ZM51.708 6.9844 L51.708 8.5312 L53.5674 8.5312 L53.5674 9.2344 L51.708 9.2344 L51.708 12.2031 Q51.708 12.8594 51.8955 13.0547 Q52.083 13.25 52.6455 13.25 L53.5674 13.25 L53.5674 14 L52.6455 14 Q51.5986 14 51.2002 13.6094 Q50.8018 13.2188 50.8018 12.2031 L50.8018 9.2344 L50.1455 9.2344 L50.1455 8.5312 L50.8018 8.5312 L50.8018 6.9844 L51.708 6.9844 ZM55.6289 6.9844 L55.6289 8.5312 L57.4883 8.5312 L57.4883 9.2344 L55.6289 9.2344 L55.6289 12.2031 Q55.6289 12.8594 55.8164 13.0547 Q56.0039 13.25 56.5664 13.25 L57.4883 13.25 L57.4883 14 L56.5664 14 Q55.5195 14 55.1211 13.6094 Q54.7227 13.2188 54.7227 12.2031 L54.7227 9.2344 L54.0664 9.2344 L54.0664 8.5312 L54.7227 8.5312 L54.7227 6.9844 L55.6289 6.9844 ZM60.9404 14.5156 Q60.5654 15.4844 60.1982 15.7812 Q59.8311 16.0781 59.2373 16.0781 L58.5186 16.0781 L58.5186 15.3281 L59.0342 15.3281 Q59.4092 15.3281 59.6123 15.1562 Q59.8154 14.9844 60.0654 14.3281 L60.2373 13.9062 L58.0186 8.5312 L58.9717 8.5312 L60.6748 12.8125 L62.3936 8.5312 L63.3467 8.5312 L60.9404 14.5156 ZM70.2402 11.25 Q69.1621 11.25 68.7402 11.5 Q68.3184 11.75 68.3184 12.3438 Q68.3184 12.8281 68.6309 13.1094 Q68.9434 13.3906 69.4902 13.3906 Q70.2402 13.3906 70.6934 12.8594 Q71.1465 12.3281 71.1465 11.4531 L71.1465 11.25 L70.2402 11.25 ZM72.0371 10.875 L72.0371 14 L71.1465 14 L71.1465 13.1719 Q70.834 13.6719 70.373 13.9062 Q69.9121 14.1406 69.2559 14.1406 Q68.4121 14.1406 67.9121 13.6719 Q67.4121 13.2031 67.4121 12.4062 Q67.4121 11.4844 68.0371 11.0156 Q68.6621 10.5469 69.8809 10.5469 L71.1465 10.5469 L71.1465 10.4531 Q71.1465 9.8438 70.7324 9.5 Q70.3184 9.1562 69.584 9.1562 Q69.1152 9.1562 68.6699 9.2734 Q68.2246 9.3906 67.8184 9.6094 L67.8184 8.7812 Q68.3184 8.5938 68.7793 8.5 Q69.2402 8.4062 69.6777 8.4062 Q70.8652 8.4062 71.4512 9.0156 Q72.0371 9.625 72.0371 10.875 ZM77.8213 8.7344 L77.8213 9.5781 Q77.4463 9.375 77.0635 9.2656 Q76.6807 9.1562 76.29 9.1562 Q75.415 9.1562 74.9307 9.7109 Q74.4463 10.2656 74.4463 11.2656 Q74.4463 12.2656 74.9307 12.8203 Q75.415 13.375 76.29 13.375 Q76.6807 13.375 77.0635 13.2734 Q77.4463 13.1719 77.8213 12.9531 L77.8213 13.7969 Q77.4463 13.9688 77.0479 14.0547 Q76.6494 14.1406 76.1963 14.1406 Q74.9463 14.1406 74.2197 13.3672 Q73.4932 12.5938 73.4932 11.2656 Q73.4932 9.9375 74.2275 9.1719 Q74.9619 8.4062 76.2432 8.4062 Q76.665 8.4062 77.0557 8.4844 Q77.4463 8.5625 77.8213 8.7344 ZM79.3818 8.5312 L80.2881 8.5312 L80.2881 14 L79.3818 14 L79.3818 8.5312 ZM79.3818 6.4062 L80.2881 6.4062 L80.2881 7.5469 L79.3818 7.5469 L79.3818 6.4062 ZM85.7695 9.3594 L85.7695 6.4062 L86.6602 6.4062 L86.6602 14 L85.7695 14 L85.7695 13.1719 Q85.4883 13.6719 85.0508 13.9062 Q84.6133 14.1406 84.0039 14.1406 Q83.0195 14.1406 82.3945 13.3516 Q81.7695 12.5625 81.7695 11.2656 Q81.7695 9.9844 82.3945 9.1953 Q83.0195 8.4062 84.0039 8.4062 Q84.6133 8.4062 85.0508 8.6406 Q85.4883 8.875 85.7695 9.3594 ZM82.707 11.2656 Q82.707 12.2656 83.1133 12.8281 Q83.5195 13.3906 84.2383 13.3906 Q84.9414 13.3906 85.3555 12.8281 Q85.7695 12.2656 85.7695 11.2656 Q85.7695 10.2812 85.3555 9.7188 Q84.9414 9.1562 84.2383 9.1562 Q83.5195 9.1562 83.1133 9.7188 Q82.707 10.2812 82.707 11.2656 ZM93.8115 9.1562 Q93.0928 9.1562 92.6709 9.7188 Q92.249 10.2812 92.249 11.2656 Q92.249 12.25 92.6631 12.8125 Q93.0771 13.375 93.8115 13.375 Q94.5303 13.375 94.9521 12.8125 Q95.374 12.25 95.374 11.2656 Q95.374 10.2969 94.9521 9.7266 Q94.5303 9.1562 93.8115 9.1562 ZM93.8115 8.4062 Q94.9834 8.4062 95.6553 9.1641 Q96.3271 9.9219 96.3271 11.2656 Q96.3271 12.6094 95.6553 13.375 Q94.9834 14.1406 93.8115 14.1406 Q92.6396 14.1406 91.9678 13.375 Q91.2959 12.6094 91.2959 11.2656 Q91.2959 9.9219 91.9678 9.1641 Q92.6396 8.4062 93.8115 8.4062 ZM102.0703 9.5781 Q102.3984 8.9688 102.8672 8.6875 Q103.3359 8.4062 103.9766 8.4062 Q104.8359 8.4062 105.2969 9 Q105.7578 9.5938 105.7578 10.7031 L105.7578 14 L104.8516 14 L104.8516 10.7344 Q104.8516 9.9375 104.5781 9.5625 Q104.3047 9.1875 103.7266 9.1875 Q103.0234 9.1875 102.625 9.6484 Q102.2266 10.1094 102.2266 10.9062 L102.2266 14 L101.3203 14 L101.3203 10.7344 Q101.3203 9.9375 101.0391 9.5625 Q100.7578 9.1875 100.1797 9.1875 Q99.4922 9.1875 99.0859 9.6484 Q98.6797 10.1094 98.6797 10.9062 L98.6797 14 L97.7734 14 L97.7734 8.5312 L98.6797 8.5312 L98.6797 9.375 Q98.9922 8.875 99.4219 8.6406 Q99.8516 8.4062 100.4297 8.4062 Q101.0391 8.4062 101.4531 8.7031 Q101.8672 9 102.0703 9.5781 ZM112.2334 11.0469 L112.2334 11.4844 L108.0928 11.4844 Q108.1553 12.4062 108.6553 12.8906 Q109.1553 13.375 110.0459 13.375 Q110.5615 13.375 111.0537 13.25 Q111.5459 13.125 112.0146 12.875 L112.0146 13.7188 Q111.5303 13.9219 111.0225 14.0312 Q110.5146 14.1406 109.999 14.1406 Q108.6865 14.1406 107.9209 13.3828 Q107.1553 12.625 107.1553 11.3125 Q107.1553 9.9688 107.8818 9.1875 Q108.6084 8.4062 109.8428 8.4062 Q110.9521 8.4062 111.5928 9.1094 Q112.2334 9.8125 112.2334 11.0469 ZM111.3271 10.7812 Q111.3271 10.0469 110.9209 9.6016 Q110.5146 9.1562 109.8584 9.1562 Q109.0928 9.1562 108.6475 9.5859 Q108.2021 10.0156 108.124 10.7812 L111.3271 10.7812 ZM117.3076 11.2031 Q117.3076 10.2188 116.9014 9.6875 Q116.4951 9.1562 115.7764 9.1562 Q115.042 9.1562 114.6436 9.6875 Q114.2451 10.2188 114.2451 11.2031 Q114.2451 12.1719 114.6436 12.7109 Q115.042 13.25 115.7764 13.25 Q116.4951 13.25 116.9014 12.7109 Q117.3076 12.1719 117.3076 11.2031 ZM118.1982 13.3281 Q118.1982 14.7188 117.5811 15.3984 Q116.9639 16.0781 115.6826 16.0781 Q115.2139 16.0781 114.792 16.0078 Q114.3701 15.9375 113.9795 15.7969 L113.9795 14.9219 Q114.3701 15.1406 114.7529 15.2422 Q115.1357 15.3438 115.542 15.3438 Q116.417 15.3438 116.8623 14.8828 Q117.3076 14.4219 117.3076 13.4844 L117.3076 13.0312 Q117.0264 13.5156 116.5889 13.7578 Q116.1514 14 115.542 14 Q114.542 14 113.9248 13.2344 Q113.3076 12.4688 113.3076 11.2031 Q113.3076 9.9375 113.9248 9.1719 Q114.542 8.4062 115.542 8.4062 Q116.1514 8.4062 116.5889 8.6406 Q117.0264 8.875 117.3076 9.3594 L117.3076 8.5312 L118.1982 8.5312 L118.1982 13.3281 ZM122.5303 11.25 Q121.4521 11.25 121.0303 11.5 Q120.6084 11.75 120.6084 12.3438 Q120.6084 12.8281 120.9209 13.1094 Q121.2334 13.3906 121.7803 13.3906 Q122.5303 13.3906 122.9834 12.8594 Q123.4365 12.3281 123.4365 11.4531 L123.4365 11.25 L122.5303 11.25 ZM124.3271 10.875 L124.3271 14 L123.4365 14 L123.4365 13.1719 Q123.124 13.6719 122.6631 13.9062 Q122.2021 14.1406 121.5459 14.1406 Q120.7021 14.1406 120.2021 13.6719 Q119.7021 13.2031 119.7021 12.4062 Q119.7021 11.4844 120.3271 11.0156 Q120.9521 10.5469 122.1709 10.5469 L123.4365 10.5469 L123.4365 10.4531 Q123.4365 9.8438 123.0225 9.5 Q122.6084 9.1562 121.874 9.1562 Q121.4053 9.1562 120.96 9.2734 Q120.5146 9.3906 120.1084 9.6094 L120.1084 8.7812 Q120.6084 8.5938 121.0693 8.5 Q121.5303 8.4062 121.9678 8.4062 Q123.1553 8.4062 123.7412 9.0156 Q124.3271 9.625 124.3271 10.875 ZM125.7207 10.8594 L128.3613 10.8594 L128.3613 11.6562 L125.7207 11.6562 L125.7207 10.8594 ZM131.9072 9.1562 Q131.1885 9.1562 130.7666 9.7188 Q130.3447 10.2812 130.3447 11.2656 Q130.3447 12.25 130.7588 12.8125 Q131.1729 13.375 131.9072 13.375 Q132.626 13.375 133.0479 12.8125 Q133.4697 12.25 133.4697 11.2656 Q133.4697 10.2969 133.0479 9.7266 Q132.626 9.1562 131.9072 9.1562 ZM131.9072 8.4062 Q133.0791 8.4062 133.751 9.1641 Q134.4229 9.9219 134.4229 11.2656 Q134.4229 12.6094 133.751 13.375 Q133.0791 14.1406 131.9072 14.1406 Q130.7354 14.1406 130.0635 13.375 Q129.3916 12.6094 129.3916 11.2656 Q129.3916 9.9219 130.0635 9.1641 Q130.7354 8.4062 131.9072 8.4062 ZM140.4473 8.5312 L138.4785 11.1875 L140.5566 14 L139.4941 14 L137.9004 11.8438 L136.3066 14 L135.2441 14 L137.3691 11.1406 L135.4316 8.5312 L136.4941 8.5312 L137.9473 10.4844 L139.3848 8.5312 L140.4473 8.5312 ZM141.8184 8.5312 L142.7246 8.5312 L142.7246 14 L141.8184 14 L141.8184 8.5312 ZM141.8184 6.4062 L142.7246 6.4062 L142.7246 7.5469 L141.8184 7.5469 L141.8184 6.4062 ZM148.2061 9.3594 L148.2061 6.4062 L149.0967 6.4062 L149.0967 14 L148.2061 14 L148.2061 13.1719 Q147.9248 13.6719 147.4873 13.9062 Q147.0498 14.1406 146.4404 14.1406 Q145.4561 14.1406 144.8311 13.3516 Q144.2061 12.5625 144.2061 11.2656 Q144.2061 9.9844 144.8311 9.1953 Q145.4561 8.4062 146.4404 8.4062 Q147.0498 8.4062 147.4873 8.6406 Q147.9248 8.875 148.2061 9.3594 ZM145.1436 11.2656 Q145.1436 12.2656 145.5498 12.8281 Q145.9561 13.3906 146.6748 13.3906 Q147.3779 13.3906 147.792 12.8281 Q148.2061 12.2656 148.2061 11.2656 Q148.2061 10.2812 147.792 9.7188 Q147.3779 9.1562 146.6748 9.1562 Q145.9561 9.1562 145.5498 9.7188 Q145.1436 10.2812 145.1436 11.2656 ZM153.4287 11.25 Q152.3506 11.25 151.9287 11.5 Q151.5068 11.75 151.5068 12.3438 Q151.5068 12.8281 151.8193 13.1094 Q152.1318 13.3906 152.6787 13.3906 Q153.4287 13.3906 153.8818 12.8594 Q154.335 12.3281 154.335 11.4531 L154.335 11.25 L153.4287 11.25 ZM155.2256 10.875 L155.2256 14 L154.335 14 L154.335 13.1719 Q154.0225 13.6719 153.5615 13.9062 Q153.1006 14.1406 152.4443 14.1406 Q151.6006 14.1406 151.1006 13.6719 Q150.6006 13.2031 150.6006 12.4062 Q150.6006 11.4844 151.2256 11.0156 Q151.8506 10.5469 153.0693 10.5469 L154.335 10.5469 L154.335 10.4531 Q154.335 9.8438 153.9209 9.5 Q153.5068 9.1562 152.7725 9.1562 Q152.3037 9.1562 151.8584 9.2734 Q151.4131 9.3906 151.0068 9.6094 L151.0068 8.7812 Q151.5068 8.5938 151.9678 8.5 Q152.4287 8.4062 152.8662 8.4062 Q154.0537 8.4062 154.6396 9.0156 Q155.2256 9.625 155.2256 10.875 ZM157.9629 6.9844 L157.9629 8.5312 L159.8223 8.5312 L159.8223 9.2344 L157.9629 9.2344 L157.9629 12.2031 Q157.9629 12.8594 158.1504 13.0547 Q158.3379 13.25 158.9004 13.25 L159.8223 13.25 L159.8223 14 L158.9004 14 Q157.8535 14 157.4551 13.6094 Q157.0566 13.2188 157.0566 12.2031 L157.0566 9.2344 L156.4004 9.2344 L156.4004 8.5312 L157.0566 8.5312 L157.0566 6.9844 L157.9629 6.9844 ZM160.9932 8.5312 L161.8994 8.5312 L161.8994 14 L160.9932 14 L160.9932 8.5312 ZM160.9932 6.4062 L161.8994 6.4062 L161.8994 7.5469 L160.9932 7.5469 L160.9932 6.4062 ZM165.8965 9.1562 Q165.1777 9.1562 164.7559 9.7188 Q164.334 10.2812 164.334 11.2656 Q164.334 12.25 164.748 12.8125 Q165.1621 13.375 165.8965 13.375 Q166.6152 13.375 167.0371 12.8125 Q167.459 12.25 167.459 11.2656 Q167.459 10.2969 167.0371 9.7266 Q166.6152 9.1562 165.8965 9.1562 ZM165.8965 8.4062 Q167.0684 8.4062 167.7402 9.1641 Q168.4121 9.9219 168.4121 11.2656 Q168.4121 12.6094 167.7402 13.375 Q167.0684 14.1406 165.8965 14.1406 Q164.7246 14.1406 164.0527 13.375 Q163.3809 12.6094 163.3809 11.2656 Q163.3809 9.9219 164.0527 9.1641 Q164.7246 8.4062 165.8965 8.4062 ZM174.4365 10.7031 L174.4365 14 L173.5459 14 L173.5459 10.7344 Q173.5459 9.9531 173.2412 9.5703 Q172.9365 9.1875 172.3271 9.1875 Q171.6084 9.1875 171.1865 9.6484 Q170.7646 10.1094 170.7646 10.9062 L170.7646 14 L169.8584 14 L169.8584 8.5312 L170.7646 8.5312 L170.7646 9.375 Q171.0928 8.8906 171.5303 8.6484 Q171.9678 8.4062 172.5303 8.4062 Q173.4678 8.4062 173.9521 8.9844 Q174.4365 9.5625 174.4365 10.7031 Z"
         style="clip-path:url(#clipPath2); stroke:none;"
         clip-path="url(#clipPath2)"
         id="path106" />
      <path
         d="M4.25 21.9375 Q3.3906 21.9375 2.9141 22.5703 Q2.4375 23.2031 2.4375 24.3594 Q2.4375 25.5156 2.9141 26.1484 Q3.3906 26.7812 4.25 26.7812 Q5.1094 26.7812 5.5859 26.1484 Q6.0625 25.5156 6.0625 24.3594 Q6.0625 23.2031 5.5859 22.5703 Q5.1094 21.9375 4.25 21.9375 ZM4.25 20.5781 Q6 20.5781 7 21.5859 Q8 22.5938 8 24.3594 Q8 26.125 7 27.1328 Q6 28.1406 4.25 28.1406 Q2.5 28.1406 1.5 27.1328 Q0.5 26.125 0.5 24.3594 Q0.5 22.5938 1.5 21.5859 Q2.5 20.5781 4.25 20.5781 ZM13.4072 24.0156 Q13.1729 23.9062 12.9463 23.8594 Q12.7197 23.8125 12.4854 23.8125 Q11.8135 23.8125 11.4541 24.2422 Q11.0947 24.6719 11.0947 25.4844 L11.0947 28 L9.3447 28 L9.3447 22.5312 L11.0947 22.5312 L11.0947 23.4219 Q11.4229 22.8906 11.8604 22.6484 Q12.2979 22.4062 12.9072 22.4062 Q13.001 22.4062 13.1025 22.4062 Q13.2041 22.4062 13.3916 22.4375 L13.4072 24.0156 ZM17.9951 27.0781 Q17.6357 27.5469 17.1982 27.7734 Q16.7607 28 16.1982 28 Q15.1982 28 14.542 27.2109 Q13.8857 26.4219 13.8857 25.2031 Q13.8857 23.9688 14.542 23.1875 Q15.1982 22.4062 16.1982 22.4062 Q16.7607 22.4062 17.1982 22.6328 Q17.6357 22.8594 17.9951 23.3438 L17.9951 22.5312 L19.7451 22.5312 L19.7451 27.4531 Q19.7451 28.7656 18.917 29.4609 Q18.0889 30.1562 16.5107 30.1562 Q15.9951 30.1562 15.5186 30.0781 Q15.042 30 14.5576 29.8438 L14.5576 28.4844 Q15.0107 28.75 15.4482 28.875 Q15.8857 29 16.3389 29 Q17.1982 29 17.5967 28.625 Q17.9951 28.25 17.9951 27.4531 L17.9951 27.0781 ZM16.8389 23.6719 Q16.292 23.6719 15.9951 24.0703 Q15.6982 24.4688 15.6982 25.2031 Q15.6982 25.9531 15.9873 26.3438 Q16.2764 26.7344 16.8389 26.7344 Q17.3857 26.7344 17.6904 26.3281 Q17.9951 25.9219 17.9951 25.2031 Q17.9951 24.4688 17.6904 24.0703 Q17.3857 23.6719 16.8389 23.6719 ZM23.8877 25.5312 Q23.3408 25.5312 23.0596 25.7188 Q22.7783 25.9062 22.7783 26.2656 Q22.7783 26.6094 23.0049 26.7969 Q23.2314 26.9844 23.6221 26.9844 Q24.1221 26.9844 24.458 26.625 Q24.7939 26.2656 24.7939 25.7344 L24.7939 25.5312 L23.8877 25.5312 ZM26.5596 24.875 L26.5596 28 L24.7939 28 L24.7939 27.1875 Q24.4346 27.6875 23.9971 27.9141 Q23.5596 28.1406 22.9346 28.1406 Q22.0752 28.1406 21.5518 27.6484 Q21.0283 27.1562 21.0283 26.3594 Q21.0283 25.3906 21.6846 24.9453 Q22.3408 24.5 23.7627 24.5 L24.7939 24.5 L24.7939 24.3594 Q24.7939 23.9531 24.4658 23.7578 Q24.1377 23.5625 23.4502 23.5625 Q22.8877 23.5625 22.4033 23.6719 Q21.9189 23.7812 21.4971 24.0156 L21.4971 22.6719 Q22.0596 22.5469 22.6299 22.4766 Q23.2002 22.4062 23.7627 22.4062 Q25.2471 22.4062 25.9033 22.9844 Q26.5596 23.5625 26.5596 24.875 ZM33.6826 24.6719 L33.6826 28 L31.917 28 L31.917 27.4531 L31.917 25.4531 Q31.917 24.75 31.8857 24.4766 Q31.8545 24.2031 31.7764 24.0781 Q31.6826 23.9062 31.5029 23.8125 Q31.3232 23.7188 31.1045 23.7188 Q30.5576 23.7188 30.2451 24.1406 Q29.9326 24.5625 29.9326 25.3125 L29.9326 28 L28.1826 28 L28.1826 22.5312 L29.9326 22.5312 L29.9326 23.3281 Q30.3232 22.8594 30.7686 22.6328 Q31.2139 22.4062 31.7451 22.4062 Q32.6982 22.4062 33.1904 22.9844 Q33.6826 23.5625 33.6826 24.6719 ZM35.3018 22.5312 L37.0518 22.5312 L37.0518 28 L35.3018 28 L35.3018 22.5312 ZM35.3018 20.4062 L37.0518 20.4062 L37.0518 21.8281 L35.3018 21.8281 L35.3018 20.4062 ZM42.9951 22.7031 L42.9951 24.0312 Q42.4326 23.7969 41.9092 23.6797 Q41.3857 23.5625 40.9326 23.5625 Q40.4326 23.5625 40.1904 23.6875 Q39.9482 23.8125 39.9482 24.0625 Q39.9482 24.2812 40.1279 24.3906 Q40.3076 24.5 40.792 24.5625 L41.0889 24.5938 Q42.4326 24.7656 42.9014 25.1562 Q43.3701 25.5469 43.3701 26.3906 Q43.3701 27.2656 42.7217 27.7031 Q42.0732 28.1406 40.792 28.1406 Q40.2607 28.1406 39.6826 28.0547 Q39.1045 27.9688 38.4795 27.7969 L38.4795 26.4688 Q39.0107 26.7188 39.5576 26.8516 Q40.1045 26.9844 40.667 26.9844 Q41.1826 26.9844 41.4404 26.8438 Q41.6982 26.7031 41.6982 26.4219 Q41.6982 26.1875 41.5264 26.0703 Q41.3545 25.9531 40.8232 25.8906 L40.5107 25.8438 Q39.3389 25.7031 38.8701 25.3047 Q38.4014 24.9062 38.4014 24.1094 Q38.4014 23.2344 38.9951 22.8203 Q39.5889 22.4062 40.8232 22.4062 Q41.3076 22.4062 41.8389 22.4766 Q42.3701 22.5469 42.9951 22.7031 ZM49.7441 23.4375 Q50.0723 22.9375 50.5332 22.6719 Q50.9941 22.4062 51.541 22.4062 Q52.4785 22.4062 52.9707 22.9844 Q53.4629 23.5625 53.4629 24.6719 L53.4629 28 L51.7129 28 L51.7129 25.1406 Q51.7129 25.0781 51.7129 25.0156 Q51.7129 24.9531 51.7129 24.8281 Q51.7129 24.2344 51.5488 23.9766 Q51.3848 23.7188 50.9941 23.7188 Q50.4941 23.7188 50.2285 24.125 Q49.9629 24.5312 49.9473 25.3125 L49.9473 28 L48.1816 28 L48.1816 25.1406 Q48.1816 24.2344 48.0254 23.9766 Q47.8691 23.7188 47.4785 23.7188 Q46.9785 23.7188 46.7051 24.1328 Q46.4316 24.5469 46.4316 25.3125 L46.4316 28 L44.666 28 L44.666 22.5312 L46.4316 22.5312 L46.4316 23.3281 Q46.7441 22.875 47.166 22.6406 Q47.5879 22.4062 48.0879 22.4062 Q48.6504 22.4062 49.0879 22.6797 Q49.5254 22.9531 49.7441 23.4375 ZM55.3828 22.5312 L57.1328 22.5312 L57.1328 24.4219 L55.3828 24.4219 L55.3828 22.5312 ZM55.3828 26.1094 L57.1328 26.1094 L57.1328 28 L55.3828 28 L55.3828 26.1094 Z"
         style="clip-path:url(#clipPath2); stroke:none;"
         clip-path="url(#clipPath2)"
         id="path108" />
      <path
         d="M66.9844 20.7031 L67.9688 20.7031 L67.9688 23.7031 L71.5469 23.7031 L71.5469 20.7031 L72.5312 20.7031 L72.5312 28 L71.5469 28 L71.5469 24.5312 L67.9688 24.5312 L67.9688 28 L66.9844 28 L66.9844 20.7031 ZM76.582 23.1562 Q75.8633 23.1562 75.4414 23.7188 Q75.0195 24.2812 75.0195 25.2656 Q75.0195 26.25 75.4336 26.8125 Q75.8477 27.375 76.582 27.375 Q77.3008 27.375 77.7227 26.8125 Q78.1445 26.25 78.1445 25.2656 Q78.1445 24.2969 77.7227 23.7266 Q77.3008 23.1562 76.582 23.1562 ZM76.582 22.4062 Q77.7539 22.4062 78.4258 23.1641 Q79.0977 23.9219 79.0977 25.2656 Q79.0977 26.6094 78.4258 27.375 Q77.7539 28.1406 76.582 28.1406 Q75.4102 28.1406 74.7383 27.375 Q74.0664 26.6094 74.0664 25.2656 Q74.0664 23.9219 74.7383 23.1641 Q75.4102 22.4062 76.582 22.4062 ZM84.8408 23.5781 Q85.1689 22.9688 85.6377 22.6875 Q86.1064 22.4062 86.7471 22.4062 Q87.6064 22.4062 88.0674 23 Q88.5283 23.5938 88.5283 24.7031 L88.5283 28 L87.6221 28 L87.6221 24.7344 Q87.6221 23.9375 87.3486 23.5625 Q87.0752 23.1875 86.4971 23.1875 Q85.7939 23.1875 85.3955 23.6484 Q84.9971 24.1094 84.9971 24.9062 L84.9971 28 L84.0908 28 L84.0908 24.7344 Q84.0908 23.9375 83.8096 23.5625 Q83.5283 23.1875 82.9502 23.1875 Q82.2627 23.1875 81.8564 23.6484 Q81.4502 24.1094 81.4502 24.9062 L81.4502 28 L80.5439 28 L80.5439 22.5312 L81.4502 22.5312 L81.4502 23.375 Q81.7627 22.875 82.1924 22.6406 Q82.6221 22.4062 83.2002 22.4062 Q83.8096 22.4062 84.2236 22.7031 Q84.6377 23 84.8408 23.5781 ZM92.4414 23.1562 Q91.7227 23.1562 91.3008 23.7188 Q90.8789 24.2812 90.8789 25.2656 Q90.8789 26.25 91.293 26.8125 Q91.707 27.375 92.4414 27.375 Q93.1602 27.375 93.582 26.8125 Q94.0039 26.25 94.0039 25.2656 Q94.0039 24.2969 93.582 23.7266 Q93.1602 23.1562 92.4414 23.1562 ZM92.4414 22.4062 Q93.6133 22.4062 94.2852 23.1641 Q94.957 23.9219 94.957 25.2656 Q94.957 26.6094 94.2852 27.375 Q93.6133 28.1406 92.4414 28.1406 Q91.2695 28.1406 90.5977 27.375 Q89.9258 26.6094 89.9258 25.2656 Q89.9258 23.9219 90.5977 23.1641 Q91.2695 22.4062 92.4414 22.4062 ZM103.0977 22.6875 L103.0977 23.5469 Q102.7227 23.3438 102.3164 23.25 Q101.9102 23.1562 101.457 23.1562 Q100.8008 23.1562 100.4648 23.3594 Q100.1289 23.5625 100.1289 23.9688 Q100.1289 24.2812 100.3633 24.4609 Q100.5977 24.6406 101.332 24.7969 L101.6289 24.875 Q102.5977 25.0781 102.9961 25.4531 Q103.3945 25.8281 103.3945 26.4844 Q103.3945 27.25 102.793 27.6953 Q102.1914 28.1406 101.1445 28.1406 Q100.6914 28.1406 100.2148 28.0547 Q99.7383 27.9688 99.2227 27.7969 L99.2227 26.875 Q99.7227 27.125 100.1992 27.2578 Q100.6758 27.3906 101.1602 27.3906 Q101.7852 27.3906 102.1289 27.1719 Q102.4727 26.9531 102.4727 26.5625 Q102.4727 26.1875 102.2305 25.9922 Q101.9883 25.7969 101.1445 25.625 L100.832 25.5469 Q100.0039 25.375 99.6289 25.0078 Q99.2539 24.6406 99.2539 24.0156 Q99.2539 23.2344 99.8008 22.8203 Q100.3477 22.4062 101.3633 22.4062 Q101.8477 22.4062 102.293 22.4766 Q102.7383 22.5469 103.0977 22.6875 ZM107.3076 25.25 Q106.2295 25.25 105.8076 25.5 Q105.3857 25.75 105.3857 26.3438 Q105.3857 26.8281 105.6982 27.1094 Q106.0107 27.3906 106.5576 27.3906 Q107.3076 27.3906 107.7607 26.8594 Q108.2139 26.3281 108.2139 25.4531 L108.2139 25.25 L107.3076 25.25 ZM109.1045 24.875 L109.1045 28 L108.2139 28 L108.2139 27.1719 Q107.9014 27.6719 107.4404 27.9062 Q106.9795 28.1406 106.3232 28.1406 Q105.4795 28.1406 104.9795 27.6719 Q104.4795 27.2031 104.4795 26.4062 Q104.4795 25.4844 105.1045 25.0156 Q105.7295 24.5469 106.9482 24.5469 L108.2139 24.5469 L108.2139 24.4531 Q108.2139 23.8438 107.7998 23.5 Q107.3857 23.1562 106.6514 23.1562 Q106.1826 23.1562 105.7373 23.2734 Q105.292 23.3906 104.8857 23.6094 L104.8857 22.7812 Q105.3857 22.5938 105.8467 22.5 Q106.3076 22.4062 106.7451 22.4062 Q107.9326 22.4062 108.5186 23.0156 Q109.1045 23.625 109.1045 24.875 ZM111.8262 27.1719 L111.8262 30.0781 L110.9199 30.0781 L110.9199 22.5312 L111.8262 22.5312 L111.8262 23.3594 Q112.1074 22.875 112.5371 22.6406 Q112.9668 22.4062 113.5762 22.4062 Q114.5762 22.4062 115.1934 23.1953 Q115.8105 23.9844 115.8105 25.2656 Q115.8105 26.5625 115.1934 27.3516 Q114.5762 28.1406 113.5762 28.1406 Q112.9668 28.1406 112.5371 27.9062 Q112.1074 27.6719 111.8262 27.1719 ZM114.8887 25.2656 Q114.8887 24.2812 114.4746 23.7188 Q114.0605 23.1562 113.3574 23.1562 Q112.6387 23.1562 112.2324 23.7188 Q111.8262 24.2812 111.8262 25.2656 Q111.8262 26.2656 112.2324 26.8281 Q112.6387 27.3906 113.3574 27.3906 Q114.0605 27.3906 114.4746 26.8281 Q114.8887 26.2656 114.8887 25.2656 ZM117.2988 22.5312 L118.2051 22.5312 L118.2051 28 L117.2988 28 L117.2988 22.5312 ZM117.2988 20.4062 L118.2051 20.4062 L118.2051 21.5469 L117.2988 21.5469 L117.2988 20.4062 ZM124.7646 25.0469 L124.7646 25.4844 L120.624 25.4844 Q120.6865 26.4062 121.1865 26.8906 Q121.6865 27.375 122.5771 27.375 Q123.0928 27.375 123.585 27.25 Q124.0771 27.125 124.5459 26.875 L124.5459 27.7188 Q124.0615 27.9219 123.5537 28.0312 Q123.0459 28.1406 122.5303 28.1406 Q121.2178 28.1406 120.4521 27.3828 Q119.6865 26.625 119.6865 25.3125 Q119.6865 23.9688 120.4131 23.1875 Q121.1396 22.4062 122.374 22.4062 Q123.4834 22.4062 124.124 23.1094 Q124.7646 23.8125 124.7646 25.0469 ZM123.8584 24.7812 Q123.8584 24.0469 123.4521 23.6016 Q123.0459 23.1562 122.3896 23.1562 Q121.624 23.1562 121.1787 23.5859 Q120.7334 24.0156 120.6553 24.7812 L123.8584 24.7812 ZM130.7764 24.7031 L130.7764 28 L129.8857 28 L129.8857 24.7344 Q129.8857 23.9531 129.5811 23.5703 Q129.2764 23.1875 128.667 23.1875 Q127.9482 23.1875 127.5264 23.6484 Q127.1045 24.1094 127.1045 24.9062 L127.1045 28 L126.1982 28 L126.1982 22.5312 L127.1045 22.5312 L127.1045 23.375 Q127.4326 22.8906 127.8701 22.6484 Q128.3076 22.4062 128.8701 22.4062 Q129.8076 22.4062 130.292 22.9844 Q130.7764 23.5625 130.7764 24.7031 ZM136.0518 22.6875 L136.0518 23.5469 Q135.6768 23.3438 135.2705 23.25 Q134.8643 23.1562 134.4111 23.1562 Q133.7549 23.1562 133.4189 23.3594 Q133.083 23.5625 133.083 23.9688 Q133.083 24.2812 133.3174 24.4609 Q133.5518 24.6406 134.2861 24.7969 L134.583 24.875 Q135.5518 25.0781 135.9502 25.4531 Q136.3486 25.8281 136.3486 26.4844 Q136.3486 27.25 135.7471 27.6953 Q135.1455 28.1406 134.0986 28.1406 Q133.6455 28.1406 133.1689 28.0547 Q132.6924 27.9688 132.1768 27.7969 L132.1768 26.875 Q132.6768 27.125 133.1533 27.2578 Q133.6299 27.3906 134.1143 27.3906 Q134.7393 27.3906 135.083 27.1719 Q135.4268 26.9531 135.4268 26.5625 Q135.4268 26.1875 135.1846 25.9922 Q134.9424 25.7969 134.0986 25.625 L133.7861 25.5469 Q132.958 25.375 132.583 25.0078 Q132.208 24.6406 132.208 24.0156 Q132.208 23.2344 132.7549 22.8203 Q133.3018 22.4062 134.3174 22.4062 Q134.8018 22.4062 135.2471 22.4766 Q135.6924 22.5469 136.0518 22.6875 Z"
         style="clip-path:url(#clipPath2); stroke:none;"
         clip-path="url(#clipPath2)"
         id="path110" />
    </g>
    <g
       style="fill:rgb(180,180,100); text-rendering:geometricPrecision; fill-opacity:0.098; stroke-opacity:0.098; stroke:rgb(180,180,100);"
       id="g116">
      <rect
         x="317"
         y="450"
         width="82"
         style="clip-path:url(#clipPath3); stroke:none;"
         height="56"
         clip-path="url(#clipPath3)"
         id="rect114" />
    </g>
    <g
       style="fill:gray; text-rendering:geometricPrecision; stroke-dasharray:4,2; stroke-miterlimit:1; stroke:gray;"
       id="g120">
      <rect
         x="317"
         y="450"
         width="81"
         style="fill:none; clip-path:url(#clipPath3);"
         height="55"
         clip-path="url(#clipPath3)"
         id="rect118" />
    </g>
    <g
       style="fill:rgb(180,180,100); text-rendering:geometricPrecision; fill-opacity:0.098; stroke-opacity:0.098; stroke:rgb(180,180,100);"
       id="g124">
      <rect
         x="312"
         y="93"
         width="93"
         style="clip-path:url(#clipPath4); stroke:none;"
         height="155"
         clip-path="url(#clipPath4)"
         id="rect122" />
    </g>
    <g
       style="fill:gray; text-rendering:geometricPrecision; stroke-dasharray:4,2; stroke-miterlimit:1; stroke:gray;"
       id="g128">
      <rect
         x="312"
         y="93"
         width="92"
         style="fill:none; clip-path:url(#clipPath4);"
         height="154"
         clip-path="url(#clipPath4)"
         id="rect126" />
    </g>
    <g
       style="fill:rgb(180,180,100); text-rendering:geometricPrecision; fill-opacity:0.098; stroke-opacity:0.098; stroke:rgb(180,180,100);"
       id="g132">
      <rect
         x="324"
         y="281"
         width="69"
         style="clip-path:url(#clipPath5); stroke:none;"
         height="135"
         clip-path="url(#clipPath5)"
         id="rect130" />
    </g>
    <g
       style="fill:gray; text-rendering:geometricPrecision; stroke-dasharray:4,2; stroke-miterlimit:1; stroke:gray;"
       id="g136">
      <rect
         x="324"
         y="281"
         width="68"
         style="fill:none; clip-path:url(#clipPath5);"
         height="134"
         clip-path="url(#clipPath5)"
         id="rect134" />
    </g>
    <g
       style="text-rendering:geometricPrecision;"
       id="g142">
      <path
         d="M212.3039 443.89 L212.3039 507.1013"
         style="fill:none; clip-path:url(#clipPath6);"
         clip-path="url(#clipPath6)"
         id="path138" />
      <path
         d="M217.5039 507.1013 L212.3039 518.8013 L207.1039 507.1013 Z"
         style="clip-path:url(#clipPath6); stroke:none;"
         clip-path="url(#clipPath6)"
         id="path140" />
    </g>
    <g
       style="text-rendering:geometricPrecision;"
       id="g148">
      <path
         d="M212.3039 91.3617 L212.3039 248.7404"
         style="fill:none; clip-path:url(#clipPath7);"
         clip-path="url(#clipPath7)"
         id="path144" />
      <path
         d="M217.5039 248.7404 L212.3039 260.4404 L207.1039 248.7404 Z"
         style="clip-path:url(#clipPath7); stroke:none;"
         clip-path="url(#clipPath7)"
         id="path146" />
    </g>
    <g
       style="stroke-dasharray:4,4; text-rendering:geometricPrecision;"
       id="g154">
      <path
         d="M212.3039 535.3013 L212.3039 578.4865"
         style="fill:none; clip-path:url(#clipPath8);"
         clip-path="url(#clipPath8)"
         id="path150" />
      <path
         d="M212.3039 578.4865 L217.5039 566.7864 L207.1039 566.7864 Z"
         style="stroke-dasharray:none; clip-path:url(#clipPath8); fill-rule:evenodd; stroke:none;"
         clip-path="url(#clipPath8)"
         id="path152" />
    </g>
    <g
       style="text-rendering:geometricPrecision;"
       id="g162">
      <path
         d="M324.2745 349.2255 L222.3039 348.8592"
         style="fill:none; clip-path:url(#clipPath9);"
         clip-path="url(#clipPath9)"
         id="path156" />
      <path
         d="M211.9039 348.8219 C211.9143 345.95 214.2507 343.6303 217.1226 343.6406 C219.9944 343.6509 222.3142 345.9874 222.3039 348.8592 C222.2935 351.7311 219.9571 354.0508 217.0852 354.0405 C214.2134 354.0302 211.8936 351.6937 211.9039 348.8219 Z"
         style="fill:white; clip-path:url(#clipPath9); stroke:none;"
         clip-path="url(#clipPath9)"
         id="path158" />
      <path
         d="M211.9039 348.8219 C211.9143 345.95 214.2507 343.6303 217.1226 343.6406 C219.9944 343.6509 222.3142 345.9874 222.3039 348.8592 C222.2935 351.7311 219.9571 354.0508 217.0852 354.0405 C214.2134 354.0302 211.8936 351.6937 211.9039 348.8219 Z"
         style="fill:none; clip-path:url(#clipPath9);"
         clip-path="url(#clipPath9)"
         id="path160" />
    </g>
    <g
       style="text-rendering:geometricPrecision;"
       id="g168">
      <path
         d="M212.3039 276.9404 L212.3039 415.69"
         style="fill:none; clip-path:url(#clipPath10);"
         clip-path="url(#clipPath10)"
         id="path164" />
      <path
         d="M217.5039 415.69 L212.3039 427.39 L207.1039 415.69 Z"
         style="clip-path:url(#clipPath10); stroke:none;"
         clip-path="url(#clipPath10)"
         id="path166" />
    </g>
    <g
       style="text-rendering:geometricPrecision;"
       id="g176">
      <path
         d="M317.6079 478.8288 L222.3036 478.1162"
         style="fill:none; clip-path:url(#clipPath11);"
         clip-path="url(#clipPath11)"
         id="path170" />
      <path
         d="M211.9039 478.0384 C211.9254 475.1666 214.2709 472.856 217.1427 472.8774 C220.0145 472.8989 222.3251 475.2444 222.3036 478.1162 C222.2822 480.988 219.9367 483.2986 217.0649 483.2772 C214.1931 483.2557 211.8825 480.9102 211.9039 478.0384 Z"
         style="fill:white; clip-path:url(#clipPath11); stroke:none;"
         clip-path="url(#clipPath11)"
         id="path172" />
      <path
         d="M211.9039 478.0384 C211.9254 475.1666 214.2709 472.856 217.1427 472.8774 C220.0145 472.8989 222.3251 475.2444 222.3036 478.1162 C222.2822 480.988 219.9367 483.2986 217.0649 483.2772 C214.1931 483.2557 211.8825 480.9102 211.9039 478.0384 Z"
         style="fill:none; clip-path:url(#clipPath11);"
         clip-path="url(#clipPath11)"
         id="path174" />
    </g>
    <g
       style="text-rendering:geometricPrecision;"
       id="g184">
      <path
         d="M312.3579 171.0509 L222.3038 171.4347"
         style="fill:none; clip-path:url(#clipPath12);"
         clip-path="url(#clipPath12)"
         id="path178" />
      <path
         d="M211.9039 171.479 C211.8917 168.6072 214.2099 166.2692 217.0817 166.2569 C219.9536 166.2447 222.2916 168.5629 222.3038 171.4347 C222.3161 174.3066 219.9979 176.6446 217.1261 176.6568 C214.2542 176.6691 211.9162 174.3509 211.9039 171.479 Z"
         style="fill:white; clip-path:url(#clipPath12); stroke:none;"
         clip-path="url(#clipPath12)"
         id="path180" />
      <path
         d="M211.9039 171.479 C211.8917 168.6072 214.2099 166.2692 217.0817 166.2569 C219.9536 166.2447 222.2916 168.5629 222.3038 171.4347 C222.3161 174.3066 219.9979 176.6446 217.1261 176.6568 C214.2542 176.6691 211.9162 174.3509 211.9039 171.479 Z"
         style="fill:none; clip-path:url(#clipPath12);"
         clip-path="url(#clipPath12)"
         id="path182" />
    </g>
    <g
       style="fill:white; text-rendering:geometricPrecision; stroke:white;"
       id="g192">
      <path
         d="M126.8373 257.7404 L297.7706 257.7404 L297.7706 276.9404 L126.8373 276.9404 L126.8373 257.7404 Z"
         style="clip-path:url(#clipPath13); stroke:none;"
         clip-path="url(#clipPath13)"
         id="path186" />
      <path
         d="M126.8373 257.7404 L297.7706 257.7404 L297.7706 276.9404 L126.8373 276.9404 L126.8373 257.7404 Z"
         style="fill:none; clip-path:url(#clipPath13); stroke:blue;"
         clip-path="url(#clipPath13)"
         id="path188" />
      <text
         x="141"
         y="271"
         style="clip-path:url(#clipPath13); fill:blue; stroke:none; font-weight:bold;"
         xml:space="preserve"
         clip-path="url(#clipPath13)"
         id="text190">HO-CH-(CH2)10-COO-</text>
    </g>
    <g
       style="fill:white; text-rendering:geometricPrecision; stroke:white;"
       id="g200">
      <path
         d="M153.6373 578.4865 L270.9706 578.4865 L270.9706 597.6864 L153.6373 597.6864 L153.6373 578.4865 Z"
         style="clip-path:url(#clipPath14); stroke:none;"
         clip-path="url(#clipPath14)"
         id="path194" />
      <path
         d="M153.6373 578.4865 L270.9706 578.4865 L270.9706 597.6864 L153.6373 597.6864 L153.6373 578.4865 Z"
         style="fill:none; clip-path:url(#clipPath14); stroke:rgb(20,150,30);"
         clip-path="url(#clipPath14)"
         id="path196" />
      <text
         x="162"
         y="592"
         style="clip-path:url(#clipPath14); fill:rgb(20,150,30); stroke:none; font-weight:bold;"
         xml:space="preserve"
         clip-path="url(#clipPath14)"
         id="text198">Beta Oxidation</text>
    </g>
    <g
       style="fill:white; text-rendering:geometricPrecision; stroke:white;"
       id="g208">
      <path
         d="M131.6373 516.1013 L292.9706 516.1013 L292.9706 535.3013 L131.6373 535.3013 L131.6373 516.1013 Z"
         style="clip-path:url(#clipPath15); stroke:none;"
         clip-path="url(#clipPath15)"
         id="path202" />
      <path
         d="M131.6373 516.1013 L292.9706 516.1013 L292.9706 535.3013 L131.6373 535.3013 L131.6373 516.1013 Z"
         style="fill:none; clip-path:url(#clipPath15); stroke:blue;"
         clip-path="url(#clipPath15)"
         id="path204" />
      <text
         x="146"
         y="530"
         style="clip-path:url(#clipPath15); fill:blue; stroke:none; font-weight:bold;"
         xml:space="preserve"
         clip-path="url(#clipPath15)"
         id="text206">-OOC-(CH2)10-COO-</text>
    </g>
    <g
       style="fill:white; text-rendering:geometricPrecision; stroke:white;"
       id="g216">
      <path
         d="M135.2373 424.69 L289.3706 424.69 L289.3706 443.89 L135.2373 443.89 L135.2373 424.69 Z"
         style="clip-path:url(#clipPath16); stroke:none;"
         clip-path="url(#clipPath16)"
         id="path210" />
      <path
         d="M135.2373 424.69 L289.3706 424.69 L289.3706 443.89 L135.2373 443.89 L135.2373 424.69 Z"
         style="fill:none; clip-path:url(#clipPath16); stroke:blue;"
         clip-path="url(#clipPath16)"
         id="path212" />
      <text
         x="148"
         y="438"
         style="clip-path:url(#clipPath16); fill:blue; stroke:none; font-weight:bold;"
         xml:space="preserve"
         clip-path="url(#clipPath16)"
         id="text214">HOC-(CH2)10-COO-</text>
    </g>
    <g
       style="fill:white; text-rendering:geometricPrecision; stroke:white;"
       id="g224">
      <path
         d="M137.2373 72.1617 L287.3706 72.1617 L287.3706 91.3617 L137.2373 91.3617 L137.2373 72.1617 Z"
         style="clip-path:url(#clipPath17); stroke:none;"
         clip-path="url(#clipPath17)"
         id="path218" />
      <path
         d="M137.2373 72.1617 L287.3706 72.1617 L287.3706 91.3617 L137.2373 91.3617 L137.2373 72.1617 Z"
         style="fill:none; clip-path:url(#clipPath17); stroke:blue;"
         clip-path="url(#clipPath17)"
         id="path220" />
      <text
         x="149"
         y="86"
         style="clip-path:url(#clipPath17); fill:blue; stroke:none; font-weight:bold;"
         xml:space="preserve"
         clip-path="url(#clipPath17)"
         id="text222">CH3-(CH2)10-COO-</text>
    </g>
    <g
       style="fill:white; text-rendering:geometricPrecision; stroke:white;"
       id="g232">
      <path
         d="M320.3579 101.3009 L397.5245 101.3009 L397.5245 121.3009 L320.3579 121.3009 L320.3579 101.3009 Z"
         style="clip-path:url(#clipPath18); stroke:none;"
         clip-path="url(#clipPath18)"
         id="path226" />
      <path
         d="M320.3579 101.3009 L397.5245 101.3009 L397.5245 121.3009 L320.3579 121.3009 L320.3579 101.3009 Z"
         style="fill:none; clip-path:url(#clipPath18); stroke:black;"
         clip-path="url(#clipPath18)"
         id="path228" />
      <text
         x="340"
         y="115"
         style="font-size:10; clip-path:url(#clipPath18); fill:black; stroke:none;"
         xml:space="preserve"
         clip-path="url(#clipPath18)"
         id="text230">CYP1A1</text>
    </g>
    <g
       style="fill:white; text-rendering:geometricPrecision; stroke:white;"
       id="g240">
      <path
         d="M320.3579 121.3009 L397.5245 121.3009 L397.5245 141.3009 L320.3579 141.3009 L320.3579 121.3009 Z"
         style="clip-path:url(#clipPath19); stroke:none;"
         clip-path="url(#clipPath19)"
         id="path234" />
      <path
         d="M320.3579 121.3009 L397.5245 121.3009 L397.5245 141.3009 L320.3579 141.3009 L320.3579 121.3009 Z"
         style="fill:none; clip-path:url(#clipPath19); stroke:black;"
         clip-path="url(#clipPath19)"
         id="path236" />
      <text
         x="340"
         y="135"
         style="font-size:10; clip-path:url(#clipPath19); fill:black; stroke:none;"
         xml:space="preserve"
         clip-path="url(#clipPath19)"
         id="text238">CYP1A2</text>
    </g>
    <g
       style="fill:white; text-rendering:geometricPrecision; stroke:white;"
       id="g248">
      <path
         d="M332.2745 369.2255 L385.6079 369.2255 L385.6079 389.2255 L332.2745 389.2255 L332.2745 369.2255 Z"
         style="clip-path:url(#clipPath20); stroke:none;"
         clip-path="url(#clipPath20)"
         id="path242" />
      <path
         d="M332.2745 369.2255 L385.6079 369.2255 L385.6079 389.2255 L332.2745 389.2255 L332.2745 369.2255 Z"
         style="fill:none; clip-path:url(#clipPath20); stroke:black;"
         clip-path="url(#clipPath20)"
         id="path244" />
      <text
         x="345"
         y="383"
         style="font-size:10; clip-path:url(#clipPath20); fill:black; stroke:none;"
         xml:space="preserve"
         clip-path="url(#clipPath20)"
         id="text246">ADH6</text>
    </g>
    <g
       style="fill:white; text-rendering:geometricPrecision; stroke:white;"
       id="g256">
      <path
         d="M320.3579 180.8009 L397.5245 180.8009 L397.5245 200.8009 L320.3579 200.8009 L320.3579 180.8009 Z"
         style="clip-path:url(#clipPath21); stroke:none;"
         clip-path="url(#clipPath21)"
         id="path250" />
      <path
         d="M320.3579 180.8009 L397.5245 180.8009 L397.5245 200.8009 L320.3579 200.8009 L320.3579 180.8009 Z"
         style="fill:none; clip-path:url(#clipPath21); stroke:black;"
         clip-path="url(#clipPath21)"
         id="path252" />
      <text
         x="340"
         y="194"
         style="font-size:10; clip-path:url(#clipPath21); fill:black; stroke:none;"
         xml:space="preserve"
         clip-path="url(#clipPath21)"
         id="text254">CYP2A6</text>
    </g>
    <g
       style="fill:white; text-rendering:geometricPrecision; stroke:white;"
       id="g264">
      <path
         d="M332.2745 289.2255 L385.6079 289.2255 L385.6079 309.2255 L332.2745 309.2255 L332.2745 289.2255 Z"
         style="clip-path:url(#clipPath22); stroke:none;"
         clip-path="url(#clipPath22)"
         id="path258" />
      <path
         d="M332.2745 289.2255 L385.6079 289.2255 L385.6079 309.2255 L332.2745 309.2255 L332.2745 289.2255 Z"
         style="fill:none; clip-path:url(#clipPath22); stroke:black;"
         clip-path="url(#clipPath22)"
         id="path260" />
      <text
         x="342"
         y="303"
         style="font-size:10; clip-path:url(#clipPath22); fill:black; stroke:none;"
         xml:space="preserve"
         clip-path="url(#clipPath22)"
         id="text262">ADH1A</text>
    </g>
    <g
       style="fill:white; text-rendering:geometricPrecision; stroke:white;"
       id="g272">
      <path
         d="M332.2745 389.2255 L385.6079 389.2255 L385.6079 409.2255 L332.2745 409.2255 L332.2745 389.2255 Z"
         style="clip-path:url(#clipPath23); stroke:none;"
         clip-path="url(#clipPath23)"
         id="path266" />
      <path
         d="M332.2745 389.2255 L385.6079 389.2255 L385.6079 409.2255 L332.2745 409.2255 L332.2745 389.2255 Z"
         style="fill:none; clip-path:url(#clipPath23); stroke:black;"
         clip-path="url(#clipPath23)"
         id="path268" />
      <text
         x="345"
         y="403"
         style="font-size:10; clip-path:url(#clipPath23); fill:black; stroke:none;"
         xml:space="preserve"
         clip-path="url(#clipPath23)"
         id="text270">ADH7</text>
    </g>
    <g
       style="fill:white; text-rendering:geometricPrecision; stroke:white;"
       id="g280">
      <path
         d="M320.3579 200.8009 L397.5245 200.8009 L397.5245 220.8009 L320.3579 220.8009 L320.3579 200.8009 Z"
         style="clip-path:url(#clipPath24); stroke:none;"
         clip-path="url(#clipPath24)"
         id="path274" />
      <path
         d="M320.3579 200.8009 L397.5245 200.8009 L397.5245 220.8009 L320.3579 220.8009 L320.3579 200.8009 Z"
         style="fill:none; clip-path:url(#clipPath24); stroke:black;"
         clip-path="url(#clipPath24)"
         id="path276" />
      <text
         x="340"
         y="214"
         style="font-size:10; clip-path:url(#clipPath24); fill:black; stroke:none;"
         xml:space="preserve"
         clip-path="url(#clipPath24)"
         id="text278">CYP2D6</text>
    </g>
    <g
       style="fill:white; text-rendering:geometricPrecision; stroke:white;"
       id="g288">
      <path
         d="M332.2745 309.2255 L385.6079 309.2255 L385.6079 329.2255 L332.2745 329.2255 L332.2745 309.2255 Z"
         style="clip-path:url(#clipPath25); stroke:none;"
         clip-path="url(#clipPath25)"
         id="path282" />
      <path
         d="M332.2745 309.2255 L385.6079 309.2255 L385.6079 329.2255 L332.2745 329.2255 L332.2745 309.2255 Z"
         style="fill:none; clip-path:url(#clipPath25); stroke:black;"
         clip-path="url(#clipPath25)"
         id="path284" />
      <text
         x="342"
         y="323"
         style="font-size:10; clip-path:url(#clipPath25); fill:black; stroke:none;"
         xml:space="preserve"
         clip-path="url(#clipPath25)"
         id="text286">ADH1B</text>
    </g>
    <g
       style="fill:white; text-rendering:geometricPrecision; stroke:white;"
       id="g296">
      <path
         d="M320.3579 161.3009 L397.5245 161.3009 L397.5245 181.3009 L320.3579 181.3009 L320.3579 161.3009 Z"
         style="clip-path:url(#clipPath26); stroke:none;"
         clip-path="url(#clipPath26)"
         id="path290" />
      <path
         d="M320.3579 161.3009 L397.5245 161.3009 L397.5245 181.3009 L320.3579 181.3009 L320.3579 161.3009 Z"
         style="fill:none; clip-path:url(#clipPath26); stroke:black;"
         clip-path="url(#clipPath26)"
         id="path292" />
      <text
         x="337"
         y="175"
         style="font-size:10; clip-path:url(#clipPath26); fill:black; stroke:none;"
         xml:space="preserve"
         clip-path="url(#clipPath26)"
         id="text294">CYP4A11</text>
    </g>
    <g
       style="fill:white; text-rendering:geometricPrecision; stroke:white;"
       id="g304">
      <path
         d="M325.6079 458.8288 L392.2745 458.8288 L392.2745 478.8288 L325.6079 478.8288 L325.6079 458.8288 Z"
         style="clip-path:url(#clipPath27); stroke:none;"
         clip-path="url(#clipPath27)"
         id="path298" />
      <path
         d="M325.6079 458.8288 L392.2745 458.8288 L392.2745 478.8288 L325.6079 478.8288 L325.6079 458.8288 Z"
         style="fill:none; clip-path:url(#clipPath27); stroke:black;"
         clip-path="url(#clipPath27)"
         id="path300" />
      <text
         x="336"
         y="472"
         style="font-size:10; clip-path:url(#clipPath27); fill:black; stroke:none;"
         xml:space="preserve"
         clip-path="url(#clipPath27)"
         id="text302">ALDH1A1</text>
    </g>
    <g
       style="fill:white; text-rendering:geometricPrecision; stroke:white;"
       id="g312">
      <path
         d="M332.2745 349.2255 L385.6079 349.2255 L385.6079 369.2255 L332.2745 369.2255 L332.2745 349.2255 Z"
         style="clip-path:url(#clipPath28); stroke:none;"
         clip-path="url(#clipPath28)"
         id="path306" />
      <path
         d="M332.2745 349.2255 L385.6079 349.2255 L385.6079 369.2255 L332.2745 369.2255 L332.2745 349.2255 Z"
         style="fill:none; clip-path:url(#clipPath28); stroke:black;"
         clip-path="url(#clipPath28)"
         id="path308" />
      <text
         x="345"
         y="363"
         style="font-size:10; clip-path:url(#clipPath28); fill:black; stroke:none;"
         xml:space="preserve"
         clip-path="url(#clipPath28)"
         id="text310">ADH4</text>
    </g>
    <g
       style="fill:white; text-rendering:geometricPrecision; stroke:white;"
       id="g320">
      <path
         d="M332.2745 329.2255 L385.6079 329.2255 L385.6079 349.2255 L332.2745 349.2255 L332.2745 329.2255 Z"
         style="clip-path:url(#clipPath29); stroke:none;"
         clip-path="url(#clipPath29)"
         id="path314" />
      <path
         d="M332.2745 329.2255 L385.6079 329.2255 L385.6079 349.2255 L332.2745 349.2255 L332.2745 329.2255 Z"
         style="fill:none; clip-path:url(#clipPath29); stroke:black;"
         clip-path="url(#clipPath29)"
         id="path316" />
      <text
         x="342"
         y="343"
         style="font-size:10; clip-path:url(#clipPath29); fill:black; stroke:none;"
         xml:space="preserve"
         clip-path="url(#clipPath29)"
         id="text318">ADH1C</text>
    </g>
    <g
       style="fill:white; text-rendering:geometricPrecision; stroke:white;"
       id="g328">
      <path
         d="M320.3579 141.3009 L397.5245 141.3009 L397.5245 161.3009 L320.3579 161.3009 L320.3579 141.3009 Z"
         style="clip-path:url(#clipPath30); stroke:none;"
         clip-path="url(#clipPath30)"
         id="path322" />
      <path
         d="M320.3579 141.3009 L397.5245 141.3009 L397.5245 161.3009 L320.3579 161.3009 L320.3579 141.3009 Z"
         style="fill:none; clip-path:url(#clipPath30); stroke:black;"
         clip-path="url(#clipPath30)"
         id="path324" />
      <text
         x="340"
         y="155"
         style="font-size:10; clip-path:url(#clipPath30); fill:black; stroke:none;"
         xml:space="preserve"
         clip-path="url(#clipPath30)"
         id="text326">CYP3A4</text>
    </g>
    <g
       style="fill:white; text-rendering:geometricPrecision; stroke:white;"
       id="g336">
      <path
         d="M325.6079 478.8288 L392.2745 478.8288 L392.2745 498.8288 L325.6079 498.8288 L325.6079 478.8288 Z"
         style="clip-path:url(#clipPath31); stroke:none;"
         clip-path="url(#clipPath31)"
         id="path330" />
      <path
         d="M325.6079 478.8288 L392.2745 478.8288 L392.2745 498.8288 L325.6079 498.8288 L325.6079 478.8288 Z"
         style="fill:none; clip-path:url(#clipPath31); stroke:black;"
         clip-path="url(#clipPath31)"
         id="path332" />
      <text
         x="343"
         y="492"
         style="font-size:10; clip-path:url(#clipPath31); fill:black; stroke:none;"
         xml:space="preserve"
         clip-path="url(#clipPath31)"
         id="text334">ALDH2</text>
    </g>
    <g
       style="fill:white; text-rendering:geometricPrecision; stroke:white;"
       id="g344">
      <path
         d="M320.3579 220.8009 L397.5245 220.8009 L397.5245 240.8009 L320.3579 240.8009 L320.3579 220.8009 Z"
         style="clip-path:url(#clipPath32); stroke:none;"
         clip-path="url(#clipPath32)"
         id="path338" />
      <path
         d="M320.3579 220.8009 L397.5245 220.8009 L397.5245 240.8009 L320.3579 240.8009 L320.3579 220.8009 Z"
         style="fill:none; clip-path:url(#clipPath32); stroke:black;"
         clip-path="url(#clipPath32)"
         id="path340" />
      <text
         x="340"
         y="234"
         style="font-size:10; clip-path:url(#clipPath32); fill:black; stroke:none;"
         xml:space="preserve"
         clip-path="url(#clipPath32)"
         id="text342">CYP2E1</text>
    </g>
  </g>
</svg>
