<?xml version="1.0" encoding="UTF-8" standalone="no"?>
<svg
   style="fill-opacity:1; color-rendering:auto; color-interpolation:auto; stroke:black; text-rendering:auto; stroke-linecap:square; stroke-miterlimit:10; stroke-opacity:1; shape-rendering:auto; fill:black; stroke-dasharray:none; font-weight:normal; stroke-width:1; font-family:'Dialog'; font-style:normal; stroke-linejoin:miter; font-size:12; stroke-dashoffset:0; image-rendering:auto;"
   width="1222"
   height="665"
   version="1.1"
   id="svg525"
   xmlns="http://www.w3.org/2000/svg"
   xmlns:svg="http://www.w3.org/2000/svg">
  <!--Generated by the Batik Graphics2D SVG Generator-->
  <defs
     id="genericDefs" />
  <g
     id="g523">
    <defs
       id="defs1">
      <clipPath
         clipPathUnits="userSpaceOnUse"
         id="clipPath1">
        <path
           d="M0 0 L1230 0 L1230 680 L0 680 L0 0 Z"
           id="path3" />
      </clipPath>
      <clipPath
         clipPathUnits="userSpaceOnUse"
         id="clipPath2">
        <path
           d="M0 0 L0 200 L200 200 L200 0 Z"
           id="path6" />
      </clipPath>
      <clipPath
         clipPathUnits="userSpaceOnUse"
         id="clipPath3">
        <path
           d="M132 16 L132 37 L158 37 L158 16 Z"
           id="path9" />
      </clipPath>
      <clipPath
         clipPathUnits="userSpaceOnUse"
         id="clipPath4">
        <path
           d="M134.3672 3.918 L155.6328 3.918 L155.6328 19.2305 L134.3672 19.2305 L134.3672 3.918 Z"
           id="path12" />
      </clipPath>
      <clipPath
         clipPathUnits="userSpaceOnUse"
         id="clipPath5">
        <path
           d="M768.1501 501.3306 L768.1501 522.3306 L779.1501 522.3306 L779.1501 501.3306 Z"
           id="path15" />
      </clipPath>
      <clipPath
         clipPathUnits="userSpaceOnUse"
         id="clipPath6">
        <path
           d="M767.6052 489.2486 L778.6951 489.2486 L778.6951 504.5611 L767.6052 504.5611 L767.6052 489.2486 Z"
           id="path18" />
      </clipPath>
      <clipPath
         clipPathUnits="userSpaceOnUse"
         id="clipPath7">
        <path
           d="M1037.7949 128.43 L1037.7949 163.5702 L1052.2446 163.5702 L1052.2446 128.43 Z"
           id="path21" />
      </clipPath>
      <clipPath
         clipPathUnits="userSpaceOnUse"
         id="clipPath8">
        <path
           d="M1041.5605 244.0551 L1041.5605 313.12 L1113.7617 313.12 L1113.7617 244.0551 Z"
           id="path24" />
      </clipPath>
      <clipPath
         clipPathUnits="userSpaceOnUse"
         id="clipPath9">
        <path
           d="M941.8393 452.0406 L941.8393 525.1962 L962.3519 525.1962 L962.3519 452.0406 Z"
           id="path27" />
      </clipPath>
      <clipPath
         clipPathUnits="userSpaceOnUse"
         id="clipPath10">
        <path
           d="M986.1221 202.8433 L986.1221 307.4761 L1006.6337 307.4761 L1006.6337 202.8433 Z"
           id="path30" />
      </clipPath>
      <clipPath
         clipPathUnits="userSpaceOnUse"
         id="clipPath11">
        <path
           d="M1064.0553 316.3955 L1064.0553 328.3336 L1106.7717 328.3336 L1106.7717 316.3955 Z"
           id="path33" />
      </clipPath>
      <clipPath
         clipPathUnits="userSpaceOnUse"
         id="clipPath12">
        <path
           d="M1041.5605 330.9997 L1041.5605 397.0347 L1105.561 397.0347 L1105.561 330.9997 Z"
           id="path36" />
      </clipPath>
      <clipPath
         clipPathUnits="userSpaceOnUse"
         id="clipPath13">
        <path
           d="M940.5182 194.8451 L940.5182 416.7167 L961.0218 416.7167 L961.0218 194.8451 Z"
           id="path39" />
      </clipPath>
      <clipPath
         clipPathUnits="userSpaceOnUse"
         id="clipPath14">
        <path
           d="M496.5919 412.1899 L496.5919 465.7394 L507.9919 465.7394 L507.9919 412.1899 Z"
           id="path42" />
      </clipPath>
      <clipPath
         clipPathUnits="userSpaceOnUse"
         id="clipPath15">
        <path
           d="M968.3729 545.7622 L968.3729 626.3828 L980.3117 626.3828 L980.3117 545.7622 Z"
           id="path45" />
      </clipPath>
      <clipPath
         clipPathUnits="userSpaceOnUse"
         id="clipPath16">
        <path
           d="M572.7262 473.3585 L572.7262 581.701 L584.6648 581.701 L584.6648 473.3585 Z"
           id="path48" />
      </clipPath>
      <clipPath
         clipPathUnits="userSpaceOnUse"
         id="clipPath17">
        <path
           d="M655.3735 549.1934 L655.3735 608.9307 L929.8455 608.9307 L929.8455 549.1934 Z"
           id="path51" />
      </clipPath>
      <clipPath
         clipPathUnits="userSpaceOnUse"
         id="clipPath18">
        <path
           d="M496.8405 330.9997 L496.8405 391.6264 L997.5605 391.6264 L997.5605 330.9997 Z"
           id="path54" />
      </clipPath>
      <clipPath
         clipPathUnits="userSpaceOnUse"
         id="clipPath19">
        <path
           d="M772.6482 531.1876 L772.6482 543.1263 L823.8712 543.1263 L823.8712 531.1876 Z"
           id="path57" />
      </clipPath>
      <clipPath
         clipPathUnits="userSpaceOnUse"
         id="clipPath20">
        <path
           d="M891.1755 314.7606 L891.1755 329.2234 L975.7916 329.2234 L975.7916 314.7606 Z"
           id="path60" />
      </clipPath>
      <clipPath
         clipPathUnits="userSpaceOnUse"
         id="clipPath21">
        <path
           d="M1041.5605 330.9997 L1041.5605 471.6396 L1106.1062 471.6396 L1106.1062 330.9997 Z"
           id="path63" />
      </clipPath>
      <clipPath
         clipPathUnits="userSpaceOnUse"
         id="clipPath22">
        <path
           d="M453.7707 458.925 L453.7707 470.8637 L534.2319 470.8637 L534.2319 458.925 Z"
           id="path66" />
      </clipPath>
      <clipPath
         clipPathUnits="userSpaceOnUse"
         id="clipPath23">
        <path
           d="M908.2486 182.3402 L908.2486 183.349 L1084.7491 183.349 L1084.7491 182.3402 Z"
           id="path69" />
      </clipPath>
      <clipPath
         clipPathUnits="userSpaceOnUse"
         id="clipPath24">
        <path
           d="M986.892 276.8378 L986.892 297.8378 L997.892 297.8378 L997.892 276.8378 Z"
           id="path72" />
      </clipPath>
      <clipPath
         clipPathUnits="userSpaceOnUse"
         id="clipPath25">
        <path
           d="M986.3471 264.7558 L997.437 264.7558 L997.437 280.0683 L986.3471 280.0683 L986.3471 264.7558 Z"
           id="path75" />
      </clipPath>
      <clipPath
         clipPathUnits="userSpaceOnUse"
         id="clipPath26">
        <path
           d="M1109.1416 402.9963 L1109.1416 428.9963 L1200.1416 428.9963 L1200.1416 402.9963 Z"
           id="path78" />
      </clipPath>
      <clipPath
         clipPathUnits="userSpaceOnUse"
         id="clipPath27">
        <path
           d="M1109.3304 237.0245 L1109.3304 263.0245 L1200.3304 263.0245 L1200.3304 237.0245 Z"
           id="path81" />
      </clipPath>
      <clipPath
         clipPathUnits="userSpaceOnUse"
         id="clipPath28">
        <path
           d="M1109.6749 464.8615 L1109.6749 490.8615 L1200.6749 490.8615 L1200.6749 464.8615 Z"
           id="path84" />
      </clipPath>
      <clipPath
         clipPathUnits="userSpaceOnUse"
         id="clipPath29">
        <path
           d="M1109.1298 378.0582 L1109.1298 404.0582 L1200.1298 404.0582 L1200.1298 378.0582 Z"
           id="path87" />
      </clipPath>
      <clipPath
         clipPathUnits="userSpaceOnUse"
         id="clipPath30">
        <path
           d="M674.6501 511.8306 L674.6501 537.8306 L765.6501 537.8306 L765.6501 511.8306 Z"
           id="path90" />
      </clipPath>
      <clipPath
         clipPathUnits="userSpaceOnUse"
         id="clipPath31">
        <path
           d="M801.1777 308.6859 L801.1777 334.6859 L892.1777 334.6859 L892.1777 308.6859 Z"
           id="path93" />
      </clipPath>
      <clipPath
         clipPathUnits="userSpaceOnUse"
         id="clipPath32">
        <path
           d="M321.104 449.8763 L321.104 479.9509 L455.5018 479.9509 L455.5018 449.8763 Z"
           id="path96" />
      </clipPath>
      <clipPath
         clipPathUnits="userSpaceOnUse"
         id="clipPath33">
        <path
           d="M457.3099 387.1953 L457.3099 413.1953 L548.3099 413.1953 L548.3099 387.1953 Z"
           id="path99" />
      </clipPath>
      <clipPath
         clipPathUnits="userSpaceOnUse"
         id="clipPath34">
        <path
           d="M1000.3088 103.451 L1000.3088 129.451 L1091.3088 129.451 L1091.3088 103.451 Z"
           id="path102" />
      </clipPath>
      <clipPath
         clipPathUnits="userSpaceOnUse"
         id="clipPath35">
        <path
           d="M1109.6819 440.4788 L1109.6819 466.4788 L1200.6819 466.4788 L1200.6819 440.4788 Z"
           id="path105" />
      </clipPath>
      <clipPath
         clipPathUnits="userSpaceOnUse"
         id="clipPath36">
        <path
           d="M499.5403 612.9833 L499.5403 641.9529 L657.1425 641.9529 L657.1425 612.9833 Z"
           id="path108" />
      </clipPath>
      <clipPath
         clipPathUnits="userSpaceOnUse"
         id="clipPath37">
        <path
           d="M1110.3407 297.2606 L1110.3407 323.2606 L1201.3407 323.2606 L1201.3407 297.2606 Z"
           id="path111" />
      </clipPath>
      <clipPath
         clipPathUnits="userSpaceOnUse"
         id="clipPath38">
        <path
           d="M819.4402 524.1813 L819.4402 550.2062 L907.6797 550.2062 L907.6797 524.1813 Z"
           id="path114" />
      </clipPath>
      <clipPath
         clipPathUnits="userSpaceOnUse"
         id="clipPath39">
        <path
           d="M908.2486 169.852 L908.2486 195.8459 L995.2816 195.8459 L995.2816 169.852 Z"
           id="path117" />
      </clipPath>
      <clipPath
         clipPathUnits="userSpaceOnUse"
         id="clipPath40">
        <path
           d="M533.2311 451.7896 L533.2311 477.7896 L624.2311 477.7896 L624.2311 451.7896 Z"
           id="path120" />
      </clipPath>
      <clipPath
         clipPathUnits="userSpaceOnUse"
         id="clipPath41">
        <path
           d="M674.6501 536.1938 L674.6501 562.1938 L765.6501 562.1938 L765.6501 536.1938 Z"
           id="path123" />
      </clipPath>
      <clipPath
         clipPathUnits="userSpaceOnUse"
         id="clipPath42">
        <path
           d="M906.3455 524.1934 L906.3455 550.1934 L997.3455 550.1934 L997.3455 524.1934 Z"
           id="path126" />
      </clipPath>
      <clipPath
         clipPathUnits="userSpaceOnUse"
         id="clipPath43">
        <path
           d="M1109.1301 353.1343 L1109.1301 379.1343 L1200.1301 379.1343 L1200.1301 353.1343 Z"
           id="path129" />
      </clipPath>
      <clipPath
         clipPathUnits="userSpaceOnUse"
         id="clipPath44">
        <path
           d="M566.1046 588.6992 L566.1046 614.6992 L657.1046 614.6992 L657.1046 588.6992 Z"
           id="path132" />
      </clipPath>
      <clipPath
         clipPathUnits="userSpaceOnUse"
         id="clipPath45">
        <path
           d="M905.91 421.4017 L905.91 447.4017 L996.91 447.4017 L996.91 421.4017 Z"
           id="path135" />
      </clipPath>
      <clipPath
         clipPathUnits="userSpaceOnUse"
         id="clipPath46">
        <path
           d="M1110.3407 321.6698 L1110.3407 347.6698 L1201.3407 347.6698 L1201.3407 321.6698 Z"
           id="path138" />
      </clipPath>
      <clipPath
         clipPathUnits="userSpaceOnUse"
         id="clipPath47">
        <path
           d="M993.7492 169.8403 L993.7492 195.8403 L1084.7491 195.8403 L1084.7491 169.8403 Z"
           id="path141" />
      </clipPath>
      <clipPath
         clipPathUnits="userSpaceOnUse"
         id="clipPath48">
        <path
           d="M542.8099 384.6953 L542.8099 405.6953 L553.8099 405.6953 L553.8099 384.6953 Z"
           id="path144" />
      </clipPath>
      <clipPath
         clipPathUnits="userSpaceOnUse"
         id="clipPath49">
        <path
           d="M542.265 372.6133 L553.3549 372.6133 L553.3549 387.9258 L542.265 387.9258 L542.265 372.6133 Z"
           id="path147" />
      </clipPath>
      <clipPath
         clipPathUnits="userSpaceOnUse"
         id="clipPath50">
        <path
           d="M974.0605 312.12 L974.0605 331.9997 L1065.0605 331.9997 L1065.0605 312.12 Z"
           id="path150" />
      </clipPath>
      <clipPath
         clipPathUnits="userSpaceOnUse"
         id="clipPath51">
        <path
           d="M991.8455 521.6934 L991.8455 542.6934 L1002.8455 542.6934 L1002.8455 521.6934 Z"
           id="path153" />
      </clipPath>
      <clipPath
         clipPathUnits="userSpaceOnUse"
         id="clipPath52">
        <path
           d="M991.3006 509.6113 L1002.3904 509.6113 L1002.3904 524.9238 L991.3006 524.9238 L991.3006 509.6113 Z"
           id="path156" />
      </clipPath>
      <clipPath
         clipPathUnits="userSpaceOnUse"
         id="clipPath53">
        <path
           d="M1059.5605 309.62 L1059.5605 330.62 L1070.5605 330.62 L1070.5605 309.62 Z"
           id="path159" />
      </clipPath>
      <clipPath
         clipPathUnits="userSpaceOnUse"
         id="clipPath54">
        <path
           d="M1059.0156 297.538 L1070.1055 297.538 L1070.1055 312.8505 L1059.0156 312.8505 L1059.0156 297.538 Z"
           id="path162" />
      </clipPath>
      <clipPath
         clipPathUnits="userSpaceOnUse"
         id="clipPath55">
        <path
           d="M928.8195 625.3826 L928.8195 651.3826 L1019.8195 651.3826 L1019.8195 625.3826 Z"
           id="path165" />
      </clipPath>
    </defs>
    <g
       style="fill:white; stroke:white;"
       id="g171">
      <rect
         x="0"
         width="1230"
         height="680"
         y="0"
         style="stroke:none;"
         id="rect169" />
    </g>
    <g
       style="font-weight:bold; font-size:10; text-rendering:geometricPrecision;"
       id="g181">
      <path
         d="M0.0469 6.7031 L6.7656 6.7031 L6.7656 8.125 L4.3438 8.125 L4.3438 14 L2.4688 14 L2.4688 8.125 L0.0469 8.125 L0.0469 6.7031 ZM7.665 8.5312 L9.415 8.5312 L9.415 14 L7.665 14 L7.665 8.5312 ZM7.665 6.4062 L9.415 6.4062 L9.415 7.8281 L7.665 7.8281 L7.665 6.4062 ZM12.999 6.9844 L12.999 8.5312 L14.7959 8.5312 L14.7959 9.7812 L12.999 9.7812 L12.999 12.0938 Q12.999 12.4844 13.1475 12.6172 Q13.2959 12.75 13.749 12.75 L14.6553 12.75 L14.6553 14 L13.1553 14 Q12.1084 14 11.6787 13.5703 Q11.249 13.1406 11.249 12.0938 L11.249 9.7812 L10.374 9.7812 L10.374 8.5312 L11.249 8.5312 L11.249 6.9844 L12.999 6.9844 ZM15.873 6.4062 L17.623 6.4062 L17.623 14 L15.873 14 L15.873 6.4062 ZM24.7539 11.25 L24.7539 11.75 L20.6758 11.75 Q20.7383 12.3594 21.1133 12.6719 Q21.4883 12.9844 22.1758 12.9844 Q22.7227 12.9844 23.3086 12.8203 Q23.8945 12.6562 24.5039 12.3125 L24.5039 13.6719 Q23.8789 13.9062 23.2617 14.0234 Q22.6445 14.1406 22.0195 14.1406 Q20.5352 14.1406 19.7148 13.3828 Q18.8945 12.625 18.8945 11.2656 Q18.8945 9.9375 19.6992 9.1719 Q20.5039 8.4062 21.9258 8.4062 Q23.207 8.4062 23.9805 9.1797 Q24.7539 9.9531 24.7539 11.25 ZM22.957 10.6719 Q22.957 10.1719 22.668 9.8672 Q22.3789 9.5625 21.9102 9.5625 Q21.3945 9.5625 21.082 9.8438 Q20.7695 10.125 20.6914 10.6719 L22.957 10.6719 ZM26.3643 8.5312 L28.1143 8.5312 L28.1143 10.4219 L26.3643 10.4219 L26.3643 8.5312 ZM26.3643 12.1094 L28.1143 12.1094 L28.1143 14 L26.3643 14 L26.3643 12.1094 Z"
         style="clip-path:url(#clipPath2); stroke:none;"
         clip-path="url(#clipPath2)"
         id="path173" />
      <path
         d="M38.9844 6.7031 L43.1719 6.7031 L43.1719 7.5469 L39.9688 7.5469 L39.9688 9.6875 L42.8594 9.6875 L42.8594 10.5156 L39.9688 10.5156 L39.9688 14 L38.9844 14 L38.9844 6.7031 ZM47.6895 7.375 Q46.6113 7.375 45.9863 8.1797 Q45.3613 8.9844 45.3613 10.3594 Q45.3613 11.7344 45.9863 12.5391 Q46.6113 13.3438 47.6895 13.3438 Q48.7676 13.3438 49.3926 12.5391 Q50.0176 11.7344 50.0176 10.3594 Q50.0176 8.9844 49.3926 8.1797 Q48.7676 7.375 47.6895 7.375 ZM47.6895 6.5781 Q49.2207 6.5781 50.1426 7.6094 Q51.0645 8.6406 51.0645 10.3594 Q51.0645 12.0781 50.1426 13.1094 Q49.2207 14.1406 47.6895 14.1406 Q46.1582 14.1406 45.2363 13.1172 Q44.3145 12.0938 44.3145 10.3594 Q44.3145 8.6406 45.2363 7.6094 Q46.1582 6.5781 47.6895 6.5781 ZM52.248 6.7031 L53.3105 6.7031 L55.123 9.4219 L56.9512 6.7031 L57.998 6.7031 L55.6543 10.2031 L58.1543 14 L57.1074 14 L55.0449 10.9062 L52.9824 14 L51.9199 14 L54.5293 10.1094 L52.248 6.7031 ZM61.8955 7.6875 L60.5518 11.3125 L63.2393 11.3125 L61.8955 7.6875 ZM61.333 6.7031 L62.458 6.7031 L65.2393 14 L64.208 14 L63.5361 12.125 L60.2549 12.125 L59.5986 14 L58.5518 14 L61.333 6.7031 ZM67.2363 13.1719 L70.6738 13.1719 L70.6738 14 L66.0488 14 L66.0488 13.1719 Q66.6113 12.5938 67.5801 11.6094 Q68.5488 10.625 68.7988 10.3438 Q69.2676 9.8125 69.4551 9.4453 Q69.6426 9.0781 69.6426 8.7188 Q69.6426 8.1406 69.2363 7.7734 Q68.8301 7.4062 68.1738 7.4062 Q67.7051 7.4062 67.1973 7.5703 Q66.6895 7.7344 66.0957 8.0625 L66.0957 7.0625 Q66.6895 6.8281 67.2051 6.7031 Q67.7207 6.5781 68.1582 6.5781 Q69.2832 6.5781 69.9629 7.1406 Q70.6426 7.7031 70.6426 8.6562 Q70.6426 9.1094 70.4707 9.5078 Q70.2988 9.9062 69.8613 10.4531 Q69.7363 10.5938 69.0801 11.2734 Q68.4238 11.9531 67.2363 13.1719 ZM76.668 13.1719 L76.668 16.0781 L75.7617 16.0781 L75.7617 8.5312 L76.668 8.5312 L76.668 9.3594 Q76.9492 8.875 77.3789 8.6406 Q77.8086 8.4062 78.418 8.4062 Q79.418 8.4062 80.0352 9.1953 Q80.6523 9.9844 80.6523 11.2656 Q80.6523 12.5625 80.0352 13.3516 Q79.418 14.1406 78.418 14.1406 Q77.8086 14.1406 77.3789 13.9062 Q76.9492 13.6719 76.668 13.1719 ZM79.7305 11.2656 Q79.7305 10.2812 79.3164 9.7188 Q78.9023 9.1562 78.1992 9.1562 Q77.4805 9.1562 77.0742 9.7188 Q76.668 10.2812 76.668 11.2656 Q76.668 12.2656 77.0742 12.8281 Q77.4805 13.3906 78.1992 13.3906 Q78.9023 13.3906 79.3164 12.8281 Q79.7305 12.2656 79.7305 11.2656 ZM84.625 11.25 Q83.5469 11.25 83.125 11.5 Q82.7031 11.75 82.7031 12.3438 Q82.7031 12.8281 83.0156 13.1094 Q83.3281 13.3906 83.875 13.3906 Q84.625 13.3906 85.0781 12.8594 Q85.5312 12.3281 85.5312 11.4531 L85.5312 11.25 L84.625 11.25 ZM86.4219 10.875 L86.4219 14 L85.5312 14 L85.5312 13.1719 Q85.2188 13.6719 84.7578 13.9062 Q84.2969 14.1406 83.6406 14.1406 Q82.7969 14.1406 82.2969 13.6719 Q81.7969 13.2031 81.7969 12.4062 Q81.7969 11.4844 82.4219 11.0156 Q83.0469 10.5469 84.2656 10.5469 L85.5312 10.5469 L85.5312 10.4531 Q85.5312 9.8438 85.1172 9.5 Q84.7031 9.1562 83.9688 9.1562 Q83.5 9.1562 83.0547 9.2734 Q82.6094 9.3906 82.2031 9.6094 L82.2031 8.7812 Q82.7031 8.5938 83.1641 8.5 Q83.625 8.4062 84.0625 8.4062 Q85.25 8.4062 85.8359 9.0156 Q86.4219 9.625 86.4219 10.875 ZM89.1592 6.9844 L89.1592 8.5312 L91.0186 8.5312 L91.0186 9.2344 L89.1592 9.2344 L89.1592 12.2031 Q89.1592 12.8594 89.3467 13.0547 Q89.5342 13.25 90.0967 13.25 L91.0186 13.25 L91.0186 14 L90.0967 14 Q89.0498 14 88.6514 13.6094 Q88.2529 13.2188 88.2529 12.2031 L88.2529 9.2344 L87.5967 9.2344 L87.5967 8.5312 L88.2529 8.5312 L88.2529 6.9844 L89.1592 6.9844 ZM96.7363 10.7031 L96.7363 14 L95.8457 14 L95.8457 10.7344 Q95.8457 9.9531 95.541 9.5703 Q95.2363 9.1875 94.627 9.1875 Q93.9082 9.1875 93.4863 9.6484 Q93.0645 10.1094 93.0645 10.9062 L93.0645 14 L92.1582 14 L92.1582 6.4062 L93.0645 6.4062 L93.0645 9.375 Q93.3926 8.8906 93.8301 8.6484 Q94.2676 8.4062 94.8301 8.4062 Q95.7676 8.4062 96.252 8.9844 Q96.7363 9.5625 96.7363 10.7031 ZM98.0117 8.5312 L98.9023 8.5312 L100.0273 12.7969 L101.1523 8.5312 L102.2148 8.5312 L103.3398 12.7969 L104.4492 8.5312 L105.3555 8.5312 L103.918 14 L102.8555 14 L101.6836 9.5156 L100.4961 14 L99.4336 14 L98.0117 8.5312 ZM109.1904 11.25 Q108.1123 11.25 107.6904 11.5 Q107.2686 11.75 107.2686 12.3438 Q107.2686 12.8281 107.5811 13.1094 Q107.8936 13.3906 108.4404 13.3906 Q109.1904 13.3906 109.6436 12.8594 Q110.0967 12.3281 110.0967 11.4531 L110.0967 11.25 L109.1904 11.25 ZM110.9873 10.875 L110.9873 14 L110.0967 14 L110.0967 13.1719 Q109.7842 13.6719 109.3232 13.9062 Q108.8623 14.1406 108.2061 14.1406 Q107.3623 14.1406 106.8623 13.6719 Q106.3623 13.2031 106.3623 12.4062 Q106.3623 11.4844 106.9873 11.0156 Q107.6123 10.5469 108.8311 10.5469 L110.0967 10.5469 L110.0967 10.4531 Q110.0967 9.8438 109.6826 9.5 Q109.2686 9.1562 108.5342 9.1562 Q108.0654 9.1562 107.6201 9.2734 Q107.1748 9.3906 106.7686 9.6094 L106.7686 8.7812 Q107.2686 8.5938 107.7295 8.5 Q108.1904 8.4062 108.6279 8.4062 Q109.8154 8.4062 110.4014 9.0156 Q110.9873 9.625 110.9873 10.875 ZM115.1152 14.5156 Q114.7402 15.4844 114.373 15.7812 Q114.0059 16.0781 113.4121 16.0781 L112.6934 16.0781 L112.6934 15.3281 L113.209 15.3281 Q113.584 15.3281 113.7871 15.1562 Q113.9902 14.9844 114.2402 14.3281 L114.4121 13.9062 L112.1934 8.5312 L113.1465 8.5312 L114.8496 12.8125 L116.5684 8.5312 L117.5215 8.5312 L115.1152 14.5156 Z"
         style="clip-path:url(#clipPath2); stroke:none;"
         clip-path="url(#clipPath2)"
         id="path175" />
      <path
         d="M4.25 21.9375 Q3.3906 21.9375 2.9141 22.5703 Q2.4375 23.2031 2.4375 24.3594 Q2.4375 25.5156 2.9141 26.1484 Q3.3906 26.7812 4.25 26.7812 Q5.1094 26.7812 5.5859 26.1484 Q6.0625 25.5156 6.0625 24.3594 Q6.0625 23.2031 5.5859 22.5703 Q5.1094 21.9375 4.25 21.9375 ZM4.25 20.5781 Q6 20.5781 7 21.5859 Q8 22.5938 8 24.3594 Q8 26.125 7 27.1328 Q6 28.1406 4.25 28.1406 Q2.5 28.1406 1.5 27.1328 Q0.5 26.125 0.5 24.3594 Q0.5 22.5938 1.5 21.5859 Q2.5 20.5781 4.25 20.5781 ZM13.4072 24.0156 Q13.1729 23.9062 12.9463 23.8594 Q12.7197 23.8125 12.4854 23.8125 Q11.8135 23.8125 11.4541 24.2422 Q11.0947 24.6719 11.0947 25.4844 L11.0947 28 L9.3447 28 L9.3447 22.5312 L11.0947 22.5312 L11.0947 23.4219 Q11.4229 22.8906 11.8604 22.6484 Q12.2979 22.4062 12.9072 22.4062 Q13.001 22.4062 13.1025 22.4062 Q13.2041 22.4062 13.3916 22.4375 L13.4072 24.0156 ZM17.9951 27.0781 Q17.6357 27.5469 17.1982 27.7734 Q16.7607 28 16.1982 28 Q15.1982 28 14.542 27.2109 Q13.8857 26.4219 13.8857 25.2031 Q13.8857 23.9688 14.542 23.1875 Q15.1982 22.4062 16.1982 22.4062 Q16.7607 22.4062 17.1982 22.6328 Q17.6357 22.8594 17.9951 23.3438 L17.9951 22.5312 L19.7451 22.5312 L19.7451 27.4531 Q19.7451 28.7656 18.917 29.4609 Q18.0889 30.1562 16.5107 30.1562 Q15.9951 30.1562 15.5186 30.0781 Q15.042 30 14.5576 29.8438 L14.5576 28.4844 Q15.0107 28.75 15.4482 28.875 Q15.8857 29 16.3389 29 Q17.1982 29 17.5967 28.625 Q17.9951 28.25 17.9951 27.4531 L17.9951 27.0781 ZM16.8389 23.6719 Q16.292 23.6719 15.9951 24.0703 Q15.6982 24.4688 15.6982 25.2031 Q15.6982 25.9531 15.9873 26.3438 Q16.2764 26.7344 16.8389 26.7344 Q17.3857 26.7344 17.6904 26.3281 Q17.9951 25.9219 17.9951 25.2031 Q17.9951 24.4688 17.6904 24.0703 Q17.3857 23.6719 16.8389 23.6719 ZM23.8877 25.5312 Q23.3408 25.5312 23.0596 25.7188 Q22.7783 25.9062 22.7783 26.2656 Q22.7783 26.6094 23.0049 26.7969 Q23.2314 26.9844 23.6221 26.9844 Q24.1221 26.9844 24.458 26.625 Q24.7939 26.2656 24.7939 25.7344 L24.7939 25.5312 L23.8877 25.5312 ZM26.5596 24.875 L26.5596 28 L24.7939 28 L24.7939 27.1875 Q24.4346 27.6875 23.9971 27.9141 Q23.5596 28.1406 22.9346 28.1406 Q22.0752 28.1406 21.5518 27.6484 Q21.0283 27.1562 21.0283 26.3594 Q21.0283 25.3906 21.6846 24.9453 Q22.3408 24.5 23.7627 24.5 L24.7939 24.5 L24.7939 24.3594 Q24.7939 23.9531 24.4658 23.7578 Q24.1377 23.5625 23.4502 23.5625 Q22.8877 23.5625 22.4033 23.6719 Q21.9189 23.7812 21.4971 24.0156 L21.4971 22.6719 Q22.0596 22.5469 22.6299 22.4766 Q23.2002 22.4062 23.7627 22.4062 Q25.2471 22.4062 25.9033 22.9844 Q26.5596 23.5625 26.5596 24.875 ZM33.6826 24.6719 L33.6826 28 L31.917 28 L31.917 27.4531 L31.917 25.4531 Q31.917 24.75 31.8857 24.4766 Q31.8545 24.2031 31.7764 24.0781 Q31.6826 23.9062 31.5029 23.8125 Q31.3232 23.7188 31.1045 23.7188 Q30.5576 23.7188 30.2451 24.1406 Q29.9326 24.5625 29.9326 25.3125 L29.9326 28 L28.1826 28 L28.1826 22.5312 L29.9326 22.5312 L29.9326 23.3281 Q30.3232 22.8594 30.7686 22.6328 Q31.2139 22.4062 31.7451 22.4062 Q32.6982 22.4062 33.1904 22.9844 Q33.6826 23.5625 33.6826 24.6719 ZM35.3018 22.5312 L37.0518 22.5312 L37.0518 28 L35.3018 28 L35.3018 22.5312 ZM35.3018 20.4062 L37.0518 20.4062 L37.0518 21.8281 L35.3018 21.8281 L35.3018 20.4062 ZM42.9951 22.7031 L42.9951 24.0312 Q42.4326 23.7969 41.9092 23.6797 Q41.3857 23.5625 40.9326 23.5625 Q40.4326 23.5625 40.1904 23.6875 Q39.9482 23.8125 39.9482 24.0625 Q39.9482 24.2812 40.1279 24.3906 Q40.3076 24.5 40.792 24.5625 L41.0889 24.5938 Q42.4326 24.7656 42.9014 25.1562 Q43.3701 25.5469 43.3701 26.3906 Q43.3701 27.2656 42.7217 27.7031 Q42.0732 28.1406 40.792 28.1406 Q40.2607 28.1406 39.6826 28.0547 Q39.1045 27.9688 38.4795 27.7969 L38.4795 26.4688 Q39.0107 26.7188 39.5576 26.8516 Q40.1045 26.9844 40.667 26.9844 Q41.1826 26.9844 41.4404 26.8438 Q41.6982 26.7031 41.6982 26.4219 Q41.6982 26.1875 41.5264 26.0703 Q41.3545 25.9531 40.8232 25.8906 L40.5107 25.8438 Q39.3389 25.7031 38.8701 25.3047 Q38.4014 24.9062 38.4014 24.1094 Q38.4014 23.2344 38.9951 22.8203 Q39.5889 22.4062 40.8232 22.4062 Q41.3076 22.4062 41.8389 22.4766 Q42.3701 22.5469 42.9951 22.7031 ZM49.7441 23.4375 Q50.0723 22.9375 50.5332 22.6719 Q50.9941 22.4062 51.541 22.4062 Q52.4785 22.4062 52.9707 22.9844 Q53.4629 23.5625 53.4629 24.6719 L53.4629 28 L51.7129 28 L51.7129 25.1406 Q51.7129 25.0781 51.7129 25.0156 Q51.7129 24.9531 51.7129 24.8281 Q51.7129 24.2344 51.5488 23.9766 Q51.3848 23.7188 50.9941 23.7188 Q50.4941 23.7188 50.2285 24.125 Q49.9629 24.5312 49.9473 25.3125 L49.9473 28 L48.1816 28 L48.1816 25.1406 Q48.1816 24.2344 48.0254 23.9766 Q47.8691 23.7188 47.4785 23.7188 Q46.9785 23.7188 46.7051 24.1328 Q46.4316 24.5469 46.4316 25.3125 L46.4316 28 L44.666 28 L44.666 22.5312 L46.4316 22.5312 L46.4316 23.3281 Q46.7441 22.875 47.166 22.6406 Q47.5879 22.4062 48.0879 22.4062 Q48.6504 22.4062 49.0879 22.6797 Q49.5254 22.9531 49.7441 23.4375 ZM55.3828 22.5312 L57.1328 22.5312 L57.1328 24.4219 L55.3828 24.4219 L55.3828 22.5312 ZM55.3828 26.1094 L57.1328 26.1094 L57.1328 28 L55.3828 28 L55.3828 26.1094 Z"
         style="clip-path:url(#clipPath2); stroke:none;"
         clip-path="url(#clipPath2)"
         id="path177" />
      <path
         d="M66.9844 20.7031 L67.9688 20.7031 L67.9688 23.7031 L71.5469 23.7031 L71.5469 20.7031 L72.5312 20.7031 L72.5312 28 L71.5469 28 L71.5469 24.5312 L67.9688 24.5312 L67.9688 28 L66.9844 28 L66.9844 20.7031 ZM76.582 23.1562 Q75.8633 23.1562 75.4414 23.7188 Q75.0195 24.2812 75.0195 25.2656 Q75.0195 26.25 75.4336 26.8125 Q75.8477 27.375 76.582 27.375 Q77.3008 27.375 77.7227 26.8125 Q78.1445 26.25 78.1445 25.2656 Q78.1445 24.2969 77.7227 23.7266 Q77.3008 23.1562 76.582 23.1562 ZM76.582 22.4062 Q77.7539 22.4062 78.4258 23.1641 Q79.0977 23.9219 79.0977 25.2656 Q79.0977 26.6094 78.4258 27.375 Q77.7539 28.1406 76.582 28.1406 Q75.4102 28.1406 74.7383 27.375 Q74.0664 26.6094 74.0664 25.2656 Q74.0664 23.9219 74.7383 23.1641 Q75.4102 22.4062 76.582 22.4062 ZM84.8408 23.5781 Q85.1689 22.9688 85.6377 22.6875 Q86.1064 22.4062 86.7471 22.4062 Q87.6064 22.4062 88.0674 23 Q88.5283 23.5938 88.5283 24.7031 L88.5283 28 L87.6221 28 L87.6221 24.7344 Q87.6221 23.9375 87.3486 23.5625 Q87.0752 23.1875 86.4971 23.1875 Q85.7939 23.1875 85.3955 23.6484 Q84.9971 24.1094 84.9971 24.9062 L84.9971 28 L84.0908 28 L84.0908 24.7344 Q84.0908 23.9375 83.8096 23.5625 Q83.5283 23.1875 82.9502 23.1875 Q82.2627 23.1875 81.8564 23.6484 Q81.4502 24.1094 81.4502 24.9062 L81.4502 28 L80.5439 28 L80.5439 22.5312 L81.4502 22.5312 L81.4502 23.375 Q81.7627 22.875 82.1924 22.6406 Q82.6221 22.4062 83.2002 22.4062 Q83.8096 22.4062 84.2236 22.7031 Q84.6377 23 84.8408 23.5781 ZM92.4414 23.1562 Q91.7227 23.1562 91.3008 23.7188 Q90.8789 24.2812 90.8789 25.2656 Q90.8789 26.25 91.293 26.8125 Q91.707 27.375 92.4414 27.375 Q93.1602 27.375 93.582 26.8125 Q94.0039 26.25 94.0039 25.2656 Q94.0039 24.2969 93.582 23.7266 Q93.1602 23.1562 92.4414 23.1562 ZM92.4414 22.4062 Q93.6133 22.4062 94.2852 23.1641 Q94.957 23.9219 94.957 25.2656 Q94.957 26.6094 94.2852 27.375 Q93.6133 28.1406 92.4414 28.1406 Q91.2695 28.1406 90.5977 27.375 Q89.9258 26.6094 89.9258 25.2656 Q89.9258 23.9219 90.5977 23.1641 Q91.2695 22.4062 92.4414 22.4062 ZM103.0977 22.6875 L103.0977 23.5469 Q102.7227 23.3438 102.3164 23.25 Q101.9102 23.1562 101.457 23.1562 Q100.8008 23.1562 100.4648 23.3594 Q100.1289 23.5625 100.1289 23.9688 Q100.1289 24.2812 100.3633 24.4609 Q100.5977 24.6406 101.332 24.7969 L101.6289 24.875 Q102.5977 25.0781 102.9961 25.4531 Q103.3945 25.8281 103.3945 26.4844 Q103.3945 27.25 102.793 27.6953 Q102.1914 28.1406 101.1445 28.1406 Q100.6914 28.1406 100.2148 28.0547 Q99.7383 27.9688 99.2227 27.7969 L99.2227 26.875 Q99.7227 27.125 100.1992 27.2578 Q100.6758 27.3906 101.1602 27.3906 Q101.7852 27.3906 102.1289 27.1719 Q102.4727 26.9531 102.4727 26.5625 Q102.4727 26.1875 102.2305 25.9922 Q101.9883 25.7969 101.1445 25.625 L100.832 25.5469 Q100.0039 25.375 99.6289 25.0078 Q99.2539 24.6406 99.2539 24.0156 Q99.2539 23.2344 99.8008 22.8203 Q100.3477 22.4062 101.3633 22.4062 Q101.8477 22.4062 102.293 22.4766 Q102.7383 22.5469 103.0977 22.6875 ZM107.3076 25.25 Q106.2295 25.25 105.8076 25.5 Q105.3857 25.75 105.3857 26.3438 Q105.3857 26.8281 105.6982 27.1094 Q106.0107 27.3906 106.5576 27.3906 Q107.3076 27.3906 107.7607 26.8594 Q108.2139 26.3281 108.2139 25.4531 L108.2139 25.25 L107.3076 25.25 ZM109.1045 24.875 L109.1045 28 L108.2139 28 L108.2139 27.1719 Q107.9014 27.6719 107.4404 27.9062 Q106.9795 28.1406 106.3232 28.1406 Q105.4795 28.1406 104.9795 27.6719 Q104.4795 27.2031 104.4795 26.4062 Q104.4795 25.4844 105.1045 25.0156 Q105.7295 24.5469 106.9482 24.5469 L108.2139 24.5469 L108.2139 24.4531 Q108.2139 23.8438 107.7998 23.5 Q107.3857 23.1562 106.6514 23.1562 Q106.1826 23.1562 105.7373 23.2734 Q105.292 23.3906 104.8857 23.6094 L104.8857 22.7812 Q105.3857 22.5938 105.8467 22.5 Q106.3076 22.4062 106.7451 22.4062 Q107.9326 22.4062 108.5186 23.0156 Q109.1045 23.625 109.1045 24.875 ZM111.8262 27.1719 L111.8262 30.0781 L110.9199 30.0781 L110.9199 22.5312 L111.8262 22.5312 L111.8262 23.3594 Q112.1074 22.875 112.5371 22.6406 Q112.9668 22.4062 113.5762 22.4062 Q114.5762 22.4062 115.1934 23.1953 Q115.8105 23.9844 115.8105 25.2656 Q115.8105 26.5625 115.1934 27.3516 Q114.5762 28.1406 113.5762 28.1406 Q112.9668 28.1406 112.5371 27.9062 Q112.1074 27.6719 111.8262 27.1719 ZM114.8887 25.2656 Q114.8887 24.2812 114.4746 23.7188 Q114.0605 23.1562 113.3574 23.1562 Q112.6387 23.1562 112.2324 23.7188 Q111.8262 24.2812 111.8262 25.2656 Q111.8262 26.2656 112.2324 26.8281 Q112.6387 27.3906 113.3574 27.3906 Q114.0605 27.3906 114.4746 26.8281 Q114.8887 26.2656 114.8887 25.2656 ZM117.2988 22.5312 L118.2051 22.5312 L118.2051 28 L117.2988 28 L117.2988 22.5312 ZM117.2988 20.4062 L118.2051 20.4062 L118.2051 21.5469 L117.2988 21.5469 L117.2988 20.4062 ZM124.7646 25.0469 L124.7646 25.4844 L120.624 25.4844 Q120.6865 26.4062 121.1865 26.8906 Q121.6865 27.375 122.5771 27.375 Q123.0928 27.375 123.585 27.25 Q124.0771 27.125 124.5459 26.875 L124.5459 27.7188 Q124.0615 27.9219 123.5537 28.0312 Q123.0459 28.1406 122.5303 28.1406 Q121.2178 28.1406 120.4521 27.3828 Q119.6865 26.625 119.6865 25.3125 Q119.6865 23.9688 120.4131 23.1875 Q121.1396 22.4062 122.374 22.4062 Q123.4834 22.4062 124.124 23.1094 Q124.7646 23.8125 124.7646 25.0469 ZM123.8584 24.7812 Q123.8584 24.0469 123.4521 23.6016 Q123.0459 23.1562 122.3896 23.1562 Q121.624 23.1562 121.1787 23.5859 Q120.7334 24.0156 120.6553 24.7812 L123.8584 24.7812 ZM130.7764 24.7031 L130.7764 28 L129.8857 28 L129.8857 24.7344 Q129.8857 23.9531 129.5811 23.5703 Q129.2764 23.1875 128.667 23.1875 Q127.9482 23.1875 127.5264 23.6484 Q127.1045 24.1094 127.1045 24.9062 L127.1045 28 L126.1982 28 L126.1982 22.5312 L127.1045 22.5312 L127.1045 23.375 Q127.4326 22.8906 127.8701 22.6484 Q128.3076 22.4062 128.8701 22.4062 Q129.8076 22.4062 130.292 22.9844 Q130.7764 23.5625 130.7764 24.7031 ZM136.0518 22.6875 L136.0518 23.5469 Q135.6768 23.3438 135.2705 23.25 Q134.8643 23.1562 134.4111 23.1562 Q133.7549 23.1562 133.4189 23.3594 Q133.083 23.5625 133.083 23.9688 Q133.083 24.2812 133.3174 24.4609 Q133.5518 24.6406 134.2861 24.7969 L134.583 24.875 Q135.5518 25.0781 135.9502 25.4531 Q136.3486 25.8281 136.3486 26.4844 Q136.3486 27.25 135.7471 27.6953 Q135.1455 28.1406 134.0986 28.1406 Q133.6455 28.1406 133.1689 28.0547 Q132.6924 27.9688 132.1768 27.7969 L132.1768 26.875 Q132.6768 27.125 133.1533 27.2578 Q133.6299 27.3906 134.1143 27.3906 Q134.7393 27.3906 135.083 27.1719 Q135.4268 26.9531 135.4268 26.5625 Q135.4268 26.1875 135.1846 25.9922 Q134.9424 25.7969 134.0986 25.625 L133.7861 25.5469 Q132.958 25.375 132.583 25.0078 Q132.208 24.6406 132.208 24.0156 Q132.208 23.2344 132.7549 22.8203 Q133.3018 22.4062 134.3174 22.4062 Q134.8018 22.4062 135.2471 22.4766 Q135.6924 22.5469 136.0518 22.6875 Z"
         style="clip-path:url(#clipPath2); stroke:none;"
         clip-path="url(#clipPath2)"
         id="path179" />
    </g>
    <g
       style="fill:navy; text-rendering:geometricPrecision; font-size:8; stroke:navy;"
       id="g185">
      <text
         x="137"
         xml:space="preserve"
         y="16"
         style="clip-path:url(#clipPath4); stroke:none;"
         clip-path="url(#clipPath4)"
         id="text183">2, 4</text>
    </g>
    <g
       style="fill:navy; text-rendering:geometricPrecision; font-size:8; stroke:navy;"
       id="g189">
      <text
         x="770"
         xml:space="preserve"
         y="501"
         style="clip-path:url(#clipPath6); stroke:none;"
         clip-path="url(#clipPath6)"
         id="text187">1</text>
    </g>
    <g
       style="text-rendering:geometricPrecision;"
       id="g195">
      <path
         d="M1045.8088 128.951 L1044.374 162.3403"
         style="fill:none; clip-path:url(#clipPath7);"
         clip-path="url(#clipPath7)"
         id="path191" />
      <path
         d="M1044.374 162.3403 L1050.0715 150.8743 L1044.5973 157.1451 L1039.6812 150.4278 Z"
         style="clip-path:url(#clipPath7); stroke:none;"
         clip-path="url(#clipPath7)"
         id="path193" />
    </g>
    <g
       style="text-rendering:geometricPrecision;"
       id="g203">
      <path
         d="M1042.0605 312.62 L1042.0605 250.0245 M1042.0605 250.0245 L1100.8304 250.0245"
         style="fill:none; clip-path:url(#clipPath8);"
         clip-path="url(#clipPath8)"
         id="path197" />
      <path
         d="M1100.8304 244.8245 L1112.5305 250.0245 L1100.8304 255.2245 ZM1093.0305 244.8245 L1093.0305 255.2245"
         style="fill:white; clip-path:url(#clipPath8); stroke:none;"
         clip-path="url(#clipPath8)"
         id="path199" />
      <path
         d="M1100.8304 244.8245 L1112.5305 250.0245 L1100.8304 255.2245 ZM1093.0305 244.8245 L1093.0305 255.2245"
         style="fill:none; clip-path:url(#clipPath8);"
         clip-path="url(#clipPath8)"
         id="path201" />
    </g>
    <g
       style="text-rendering:geometricPrecision;"
       id="g211">
      <path
         d="M951.8455 524.6934 L951.4492 453.9016"
         style="fill:none; clip-path:url(#clipPath9);"
         clip-path="url(#clipPath9)"
         id="path205" />
      <path
         d="M942.3494 453.9525 L942.3421 452.6525 L961.8418 452.5434 L961.8491 453.8434 L942.3494 453.9525 Z"
         style="fill:white; clip-path:url(#clipPath9); stroke:none;"
         clip-path="url(#clipPath9)"
         id="path207" />
      <path
         d="M942.3494 453.9525 L942.3421 452.6525 L961.8418 452.5434 L961.8491 453.8434 L942.3494 453.9525 Z"
         style="fill:none; clip-path:url(#clipPath9);"
         clip-path="url(#clipPath9)"
         id="path209" />
    </g>
    <g
       style="text-rendering:geometricPrecision;"
       id="g219">
      <path
         d="M996.4989 203.3459 L997.0246 305.6201"
         style="fill:none; clip-path:url(#clipPath10);"
         clip-path="url(#clipPath10)"
         id="path213" />
      <path
         d="M1006.1245 305.5734 L1006.1312 306.8734 L986.6314 306.9736 L986.6247 305.6736 L1006.1245 305.5734 Z"
         style="fill:white; clip-path:url(#clipPath10); stroke:none;"
         clip-path="url(#clipPath10)"
         id="path215" />
      <path
         d="M1006.1245 305.5734 L1006.1312 306.8734 L986.6314 306.9736 L986.6247 305.6736 L1006.1245 305.5734 Z"
         style="fill:none; clip-path:url(#clipPath10);"
         clip-path="url(#clipPath10)"
         id="path217" />
    </g>
    <g
       style="text-rendering:geometricPrecision;"
       id="g227">
      <path
         d="M1064.5605 322.0598 L1093.8413 322.3699"
         style="fill:none; clip-path:url(#clipPath11);"
         clip-path="url(#clipPath11)"
         id="path221" />
      <path
         d="M1093.8964 317.1702 L1105.5406 322.4938 L1093.7863 327.5696 ZM1086.0968 317.0876 L1085.9867 327.487"
         style="fill:white; clip-path:url(#clipPath11); stroke:none;"
         clip-path="url(#clipPath11)"
         id="path223" />
      <path
         d="M1093.8964 317.1702 L1105.5406 322.4938 L1093.7863 327.5696 ZM1086.0968 317.0876 L1085.9867 327.487"
         style="fill:none; clip-path:url(#clipPath11);"
         clip-path="url(#clipPath11)"
         id="path225" />
    </g>
    <g
       style="text-rendering:geometricPrecision;"
       id="g235">
      <path
         d="M1042.0605 331.4997 L1042.0605 391.0653 M1042.0605 391.0653 L1092.6298 391.0653"
         style="fill:none; clip-path:url(#clipPath12);"
         clip-path="url(#clipPath12)"
         id="path229" />
      <path
         d="M1092.6298 385.8653 L1104.3298 391.0653 L1092.6298 396.2653 Z"
         style="fill:white; clip-path:url(#clipPath12); stroke:none;"
         clip-path="url(#clipPath12)"
         id="path231" />
      <path
         d="M1092.6298 385.8653 L1104.3298 391.0653 L1092.6298 396.2653 Z"
         style="fill:none; clip-path:url(#clipPath12);"
         clip-path="url(#clipPath12)"
         id="path233" />
    </g>
    <g
       style="text-rendering:geometricPrecision;"
       id="g243">
      <path
         d="M951.7651 195.3459 L951.421 414.9017"
         style="fill:none; clip-path:url(#clipPath13);"
         clip-path="url(#clipPath13)"
         id="path237" />
      <path
         d="M960.521 414.9159 L960.519 416.2159 L941.019 416.1854 L941.021 414.8854 L960.521 414.9159 Z"
         style="fill:white; clip-path:url(#clipPath13); stroke:none;"
         clip-path="url(#clipPath13)"
         id="path239" />
      <path
         d="M960.521 414.9159 L960.519 416.2159 L941.019 416.1854 L941.021 414.8854 L960.521 414.9159 Z"
         style="fill:none; clip-path:url(#clipPath13);"
         clip-path="url(#clipPath13)"
         id="path241" />
    </g>
    <g
       style="text-rendering:geometricPrecision;"
       id="g251">
      <path
         d="M502.8099 412.6953 L502.3488 454.8398"
         style="fill:none; clip-path:url(#clipPath14);"
         clip-path="url(#clipPath14)"
         id="path245" />
      <path
         d="M502.235 465.2391 C499.3633 465.2077 497.0608 462.8543 497.0922 459.9826 C497.1236 457.1109 499.4771 454.8083 502.3488 454.8398 C505.2205 454.8712 507.523 457.2246 507.4916 460.0963 C507.4602 462.968 505.1067 465.2706 502.235 465.2391 Z"
         style="fill:white; clip-path:url(#clipPath14); stroke:none;"
         clip-path="url(#clipPath14)"
         id="path247" />
      <path
         d="M502.235 465.2391 C499.3633 465.2077 497.0608 462.8543 497.0922 459.9826 C497.1236 457.1109 499.4771 454.8083 502.3488 454.8398 C505.2205 454.8712 507.523 457.2246 507.4916 460.0963 C507.4602 462.968 505.1067 465.2706 502.235 465.2391 Z"
         style="fill:none; clip-path:url(#clipPath14);"
         clip-path="url(#clipPath14)"
         id="path249" />
    </g>
    <g
       style="text-rendering:geometricPrecision;"
       id="g259">
      <path
         d="M974.3195 625.8826 L974.3425 558.6934"
         style="fill:none; clip-path:url(#clipPath15);"
         clip-path="url(#clipPath15)"
         id="path253" />
      <path
         d="M969.1425 558.6916 L974.3464 546.9933 L979.5425 558.6951 Z"
         style="fill:white; clip-path:url(#clipPath15); stroke:none;"
         clip-path="url(#clipPath15)"
         id="path255" />
      <path
         d="M969.1425 558.6916 L974.3464 546.9933 L979.5425 558.6951 Z"
         style="fill:none; clip-path:url(#clipPath15);"
         clip-path="url(#clipPath15)"
         id="path257" />
    </g>
    <g
       style="text-rendering:geometricPrecision;"
       id="g267">
      <path
         d="M578.3414 581.1992 L578.6974 486.2895"
         style="fill:none; clip-path:url(#clipPath16);"
         clip-path="url(#clipPath16)"
         id="path261" />
      <path
         d="M573.4974 486.27 L578.7413 474.5896 L583.8973 486.309 Z"
         style="fill:white; clip-path:url(#clipPath16); stroke:none;"
         clip-path="url(#clipPath16)"
         id="path263" />
      <path
         d="M573.4974 486.27 L578.7413 474.5896 L583.8973 486.309 Z"
         style="fill:none; clip-path:url(#clipPath16);"
         clip-path="url(#clipPath16)"
         id="path265" />
    </g>
    <g
       style="text-rendering:geometricPrecision;"
       id="g273">
      <path
         d="M929.3455 549.6934 L929.3455 601.6992 M929.3455 601.6992 L656.6046 601.6992"
         style="fill:none; clip-path:url(#clipPath17);"
         clip-path="url(#clipPath17)"
         id="path269" />
      <path
         d="M656.6046 601.6992 L668.3046 606.8992 L661.8046 601.6992 L668.3046 596.4992 Z"
         style="clip-path:url(#clipPath17); stroke:none;"
         clip-path="url(#clipPath17)"
         id="path271" />
    </g>
    <g
       style="text-rendering:geometricPrecision;"
       id="g281">
      <path
         d="M997.0605 331.4997 L997.0605 351.4997 M997.0605 351.4997 L502.8099 351.4997 M502.8099 351.4997 L502.8099 378.6953"
         style="fill:none; clip-path:url(#clipPath18);"
         clip-path="url(#clipPath18)"
         id="path275" />
      <path
         d="M508.0099 378.6953 L502.8099 390.3953 L497.6099 378.6953 Z"
         style="fill:white; clip-path:url(#clipPath18); stroke:none;"
         clip-path="url(#clipPath18)"
         id="path277" />
      <path
         d="M508.0099 378.6953 L502.8099 390.3953 L497.6099 378.6953 Z"
         style="fill:none; clip-path:url(#clipPath18);"
         clip-path="url(#clipPath18)"
         id="path279" />
    </g>
    <g
       style="text-rendering:geometricPrecision;"
       id="g289">
      <path
         d="M773.1501 537.0123 L810.9402 537.1588"
         style="fill:none; clip-path:url(#clipPath19);"
         clip-path="url(#clipPath19)"
         id="path283" />
      <path
         d="M810.9604 531.9589 L822.6401 537.2042 L810.9201 542.3588 ZM803.1605 531.9286 L803.1201 542.3286"
         style="fill:white; clip-path:url(#clipPath19); stroke:none;"
         clip-path="url(#clipPath19)"
         id="path285" />
      <path
         d="M810.9604 531.9589 L822.6401 537.2042 L810.9201 542.3588 ZM803.1605 531.9286 L803.1201 542.3286"
         style="fill:none; clip-path:url(#clipPath19);"
         clip-path="url(#clipPath19)"
         id="path287" />
    </g>
    <g
       style="text-rendering:geometricPrecision;"
       id="g295">
      <path
         d="M891.6777 321.6859 L974.5605 322.0598"
         style="fill:none; clip-path:url(#clipPath20);"
         clip-path="url(#clipPath20)"
         id="path291" />
      <path
         d="M974.5605 322.0598 L962.8842 316.8071 L969.3606 322.0364 L962.8372 327.207 Z"
         style="clip-path:url(#clipPath20); stroke:none;"
         clip-path="url(#clipPath20)"
         id="path293" />
    </g>
    <g
       style="text-rendering:geometricPrecision;"
       id="g303">
      <path
         d="M1042.0605 331.4997 L1042.0605 465.6701 M1042.0605 465.6701 L1093.1749 465.6701"
         style="fill:none; clip-path:url(#clipPath21);"
         clip-path="url(#clipPath21)"
         id="path297" />
      <path
         d="M1093.1749 460.4702 L1104.875 465.6701 L1093.1749 470.8701 Z"
         style="fill:white; clip-path:url(#clipPath21); stroke:none;"
         clip-path="url(#clipPath21)"
         id="path299" />
      <path
         d="M1093.1749 460.4702 L1104.875 465.6701 L1093.1749 470.8701 Z"
         style="fill:none; clip-path:url(#clipPath21);"
         clip-path="url(#clipPath21)"
         id="path301" />
    </g>
    <g
       style="text-rendering:geometricPrecision;"
       id="g309">
      <path
         d="M533.7311 464.7896 L455.0018 464.9136"
         style="fill:none; clip-path:url(#clipPath22);"
         clip-path="url(#clipPath22)"
         id="path305" />
      <path
         d="M455.0018 464.9136 L466.71 470.0952 L466.6936 459.6952 Z"
         style="clip-path:url(#clipPath22); fill-rule:evenodd; stroke:none;"
         clip-path="url(#clipPath22)"
         id="path307" />
    </g>
    <g
       style="text-rendering:geometricPrecision;"
       id="g313">
      <path
         d="M1084.2491 182.8403 L908.7486 182.8489"
         style="fill:none; clip-path:url(#clipPath23);"
         clip-path="url(#clipPath23)"
         id="path311" />
    </g>
    <g
       style="fill:navy; text-rendering:geometricPrecision; font-size:8; stroke:navy;"
       id="g317">
      <text
         x="989"
         xml:space="preserve"
         y="277"
         style="clip-path:url(#clipPath25); stroke:none;"
         clip-path="url(#clipPath25)"
         id="text315">3</text>
    </g>
    <g
       style="fill:white; text-rendering:geometricPrecision; stroke:white;"
       id="g325">
      <path
         d="M1109.6416 403.4963 L1199.6416 403.4963 L1199.6416 428.4963 L1109.6416 428.4963 L1109.6416 403.4963 Z"
         style="clip-path:url(#clipPath26); stroke:none;"
         clip-path="url(#clipPath26)"
         id="path319" />
      <path
         d="M1109.6416 403.4963 L1199.6416 403.4963 L1199.6416 428.4963 L1109.6416 428.4963 L1109.6416 403.4963 Z"
         style="fill:none; clip-path:url(#clipPath26); stroke:black;"
         clip-path="url(#clipPath26)"
         id="path321" />
      <text
         x="1133"
         y="420"
         style="fill:black; clip-path:url(#clipPath26); stroke:none;"
         xml:space="preserve"
         clip-path="url(#clipPath26)"
         id="text323">GSTM2</text>
    </g>
    <g
       style="fill:white; text-rendering:geometricPrecision; stroke:white;"
       id="g333">
      <path
         d="M1109.8304 237.5245 L1199.8304 237.5245 L1199.8304 262.5245 L1109.8304 262.5245 L1109.8304 237.5245 Z"
         style="clip-path:url(#clipPath27); stroke:none;"
         clip-path="url(#clipPath27)"
         id="path327" />
      <path
         d="M1109.8304 237.5245 L1199.8304 237.5245 L1199.8304 262.5245 L1109.8304 262.5245 L1109.8304 237.5245 Z"
         style="fill:none; clip-path:url(#clipPath27); stroke:black;"
         clip-path="url(#clipPath27)"
         id="path329" />
      <text
         x="1128"
         y="254"
         style="fill:black; clip-path:url(#clipPath27); stroke:none;"
         xml:space="preserve"
         clip-path="url(#clipPath27)"
         id="text331">SLC27A5</text>
    </g>
    <g
       style="fill:white; text-rendering:geometricPrecision; stroke:white;"
       id="g341">
      <path
         d="M1110.1749 465.3615 L1200.1749 465.3615 L1200.1749 490.3615 L1110.1749 490.3615 L1110.1749 465.3615 Z"
         style="clip-path:url(#clipPath28); stroke:none;"
         clip-path="url(#clipPath28)"
         id="path335" />
      <path
         d="M1110.1749 465.3615 L1200.1749 465.3615 L1200.1749 490.3615 L1110.1749 490.3615 L1110.1749 465.3615 Z"
         style="fill:none; clip-path:url(#clipPath28); stroke:black;"
         clip-path="url(#clipPath28)"
         id="path337" />
      <text
         x="1135"
         y="482"
         style="fill:black; clip-path:url(#clipPath28); stroke:none;"
         xml:space="preserve"
         clip-path="url(#clipPath28)"
         id="text339">ABCC4</text>
    </g>
    <g
       style="fill:white; text-rendering:geometricPrecision; stroke:white;"
       id="g349">
      <path
         d="M1109.6298 378.5582 L1199.6298 378.5582 L1199.6298 403.5582 L1109.6298 403.5582 L1109.6298 378.5582 Z"
         style="clip-path:url(#clipPath29); stroke:none;"
         clip-path="url(#clipPath29)"
         id="path343" />
      <path
         d="M1109.6298 378.5582 L1199.6298 378.5582 L1199.6298 403.5582 L1109.6298 403.5582 L1109.6298 378.5582 Z"
         style="fill:none; clip-path:url(#clipPath29); stroke:black;"
         clip-path="url(#clipPath29)"
         id="path345" />
      <text
         x="1134"
         y="395"
         style="fill:black; clip-path:url(#clipPath29); stroke:none;"
         xml:space="preserve"
         clip-path="url(#clipPath29)"
         id="text347">GSTA1</text>
    </g>
    <g
       style="fill:white; text-rendering:geometricPrecision; stroke:white;"
       id="g357">
      <path
         d="M675.1501 512.3306 L765.1501 512.3306 L765.1501 537.3306 L675.1501 537.3306 L675.1501 512.3306 Z"
         style="clip-path:url(#clipPath30); stroke:none;"
         clip-path="url(#clipPath30)"
         id="path351" />
      <path
         d="M675.1501 512.3306 L765.1501 512.3306 L765.1501 537.3306 L675.1501 537.3306 L675.1501 512.3306 Z"
         style="fill:none; clip-path:url(#clipPath30); stroke:black;"
         clip-path="url(#clipPath30)"
         id="path353" />
      <text
         x="700"
         y="529"
         style="fill:black; clip-path:url(#clipPath30); stroke:none;"
         xml:space="preserve"
         clip-path="url(#clipPath30)"
         id="text355">FOXA2</text>
    </g>
    <g
       style="fill:white; text-rendering:geometricPrecision; stroke:white;"
       id="g365">
      <path
         d="M801.6777 309.1859 L891.6777 309.1859 L891.6777 334.1859 L801.6777 334.1859 L801.6777 309.1859 Z"
         style="clip-path:url(#clipPath31); stroke:none;"
         clip-path="url(#clipPath31)"
         id="path359" />
      <path
         d="M801.6777 309.1859 L891.6777 309.1859 L891.6777 334.1859 L801.6777 334.1859 L801.6777 309.1859 Z"
         style="fill:none; clip-path:url(#clipPath31); stroke:black;"
         clip-path="url(#clipPath31)"
         id="path361" />
      <text
         x="814"
         y="326"
         style="fill:black; clip-path:url(#clipPath31); stroke:none;"
         xml:space="preserve"
         clip-path="url(#clipPath31)"
         id="text363">PPARGC1B</text>
    </g>
    <g
       style="fill:white; text-rendering:geometricPrecision; stroke:white;"
       id="g373">
      <path
         d="M321.604 450.3763 L455.0018 450.3763 L455.0018 479.4509 L321.604 479.4509 L321.604 450.3763 Z"
         style="clip-path:url(#clipPath32); stroke:none;"
         clip-path="url(#clipPath32)"
         id="path367" />
      <path
         d="M321.604 450.3763 L455.0018 450.3763 L455.0018 479.4509 L321.604 479.4509 L321.604 450.3763 Z"
         style="fill:none; clip-path:url(#clipPath32); stroke:black;"
         clip-path="url(#clipPath32)"
         id="path369" />
      <text
         x="325"
         y="469"
         style="fill:black; clip-path:url(#clipPath32); stroke:none;"
         xml:space="preserve"
         clip-path="url(#clipPath32)"
         id="text371">Apolipoprotein B-100</text>
    </g>
    <g
       style="fill:white; text-rendering:geometricPrecision; stroke:white;"
       id="g381">
      <path
         d="M457.8099 387.6953 L547.8099 387.6953 L547.8099 412.6953 L457.8099 412.6953 L457.8099 387.6953 Z"
         style="clip-path:url(#clipPath33); stroke:none;"
         clip-path="url(#clipPath33)"
         id="path375" />
      <path
         d="M457.8099 387.6953 L547.8099 387.6953 L547.8099 412.6953 L457.8099 412.6953 L457.8099 387.6953 Z"
         style="fill:none; clip-path:url(#clipPath33); stroke:black;"
         clip-path="url(#clipPath33)"
         id="path377" />
      <text
         x="486"
         y="404"
         style="fill:black; clip-path:url(#clipPath33); stroke:none;"
         xml:space="preserve"
         clip-path="url(#clipPath33)"
         id="text379">MTTP</text>
    </g>
    <g
       style="fill:white; text-rendering:geometricPrecision; stroke:white;"
       id="g389">
      <path
         d="M1000.8088 103.951 L1090.8088 103.951 L1090.8088 128.951 L1000.8088 128.951 L1000.8088 103.951 Z"
         style="clip-path:url(#clipPath34); stroke:none;"
         clip-path="url(#clipPath34)"
         id="path383" />
      <path
         d="M1000.8088 103.951 L1090.8088 103.951 L1090.8088 128.951 L1000.8088 128.951 L1000.8088 103.951 Z"
         style="fill:none; clip-path:url(#clipPath34); stroke:blue;"
         clip-path="url(#clipPath34)"
         id="path385" />
      <text
         x="1026"
         y="120"
         style="fill:blue; clip-path:url(#clipPath34); stroke:none;"
         xml:space="preserve"
         clip-path="url(#clipPath34)"
         id="text387">Insulin</text>
    </g>
    <g
       style="fill:white; text-rendering:geometricPrecision; stroke:white;"
       id="g397">
      <path
         d="M1110.1819 440.9788 L1200.1819 440.9788 L1200.1819 465.9788 L1110.1819 465.9788 L1110.1819 440.9788 Z"
         style="clip-path:url(#clipPath35); stroke:none;"
         clip-path="url(#clipPath35)"
         id="path391" />
      <path
         d="M1110.1819 440.9788 L1200.1819 440.9788 L1200.1819 465.9788 L1110.1819 465.9788 L1110.1819 440.9788 Z"
         style="fill:none; clip-path:url(#clipPath35); stroke:black;"
         clip-path="url(#clipPath35)"
         id="path393" />
      <text
         x="1135"
         y="457"
         style="fill:black; clip-path:url(#clipPath35); stroke:none;"
         xml:space="preserve"
         clip-path="url(#clipPath35)"
         id="text395">ABCC3</text>
    </g>
    <g
       style="fill:white; text-rendering:geometricPrecision; stroke:white;"
       id="g405">
      <path
         d="M500.0403 613.4833 L656.6425 613.4833 L656.6425 641.4529 L500.0403 641.4529 L500.0403 613.4833 Z"
         style="clip-path:url(#clipPath36); stroke:none;"
         clip-path="url(#clipPath36)"
         id="path399" />
      <path
         d="M500.0403 613.4833 L656.6425 613.4833 L656.6425 641.4529 L500.0403 641.4529 L500.0403 613.4833 Z"
         style="fill:none; clip-path:url(#clipPath36); stroke:black;"
         clip-path="url(#clipPath36)"
         id="path401" />
      <text
         x="502"
         y="632"
         style="fill:black; clip-path:url(#clipPath36); stroke:none;"
         xml:space="preserve"
         clip-path="url(#clipPath36)"
         id="text403">Acetyl-CoA carboxylase 1</text>
    </g>
    <g
       style="fill:white; text-rendering:geometricPrecision; stroke:white;"
       id="g413">
      <path
         d="M1110.8407 297.7606 L1200.8407 297.7606 L1200.8407 322.7606 L1110.8407 322.7606 L1110.8407 297.7606 Z"
         style="clip-path:url(#clipPath37); stroke:none;"
         clip-path="url(#clipPath37)"
         id="path407" />
      <path
         d="M1110.8407 297.7606 L1200.8407 297.7606 L1200.8407 322.7606 L1110.8407 322.7606 L1110.8407 297.7606 Z"
         style="fill:none; clip-path:url(#clipPath37); stroke:black;"
         clip-path="url(#clipPath37)"
         id="path409" />
      <text
         x="1135"
         y="314"
         style="fill:black; clip-path:url(#clipPath37); stroke:none;"
         xml:space="preserve"
         clip-path="url(#clipPath37)"
         id="text411">ABCC2</text>
    </g>
    <g
       style="fill:white; text-rendering:geometricPrecision; stroke:white;"
       id="g421">
      <path
         d="M819.9402 524.6813 L907.1797 524.6813 L907.1797 549.7062 L819.9402 549.7062 L819.9402 524.6813 Z"
         style="clip-path:url(#clipPath38); stroke:none;"
         clip-path="url(#clipPath38)"
         id="path415" />
      <path
         d="M819.9402 524.6813 L907.1797 524.6813 L907.1797 549.7062 L819.9402 549.7062 L819.9402 524.6813 Z"
         style="fill:none; clip-path:url(#clipPath38); stroke:black;"
         clip-path="url(#clipPath38)"
         id="path417" />
      <text
         x="840"
         y="541"
         style="fill:black; clip-path:url(#clipPath38); stroke:none;"
         xml:space="preserve"
         clip-path="url(#clipPath38)"
         id="text419">ChREBP</text>
    </g>
    <g
       style="fill:white; text-rendering:geometricPrecision; stroke:white;"
       id="g429">
      <path
         d="M908.7486 170.352 L994.7816 170.352 L994.7816 195.3459 L908.7486 195.3459 L908.7486 170.352 Z"
         style="clip-path:url(#clipPath39); stroke:none;"
         clip-path="url(#clipPath39)"
         id="path423" />
      <path
         d="M908.7486 170.352 L994.7816 170.352 L994.7816 195.3459 L908.7486 195.3459 L908.7486 170.352 Z"
         style="fill:none; clip-path:url(#clipPath39); stroke:black;"
         clip-path="url(#clipPath39)"
         id="path425" />
      <text
         x="938"
         y="187"
         style="fill:black; clip-path:url(#clipPath39); stroke:none;"
         xml:space="preserve"
         clip-path="url(#clipPath39)"
         id="text427">IRS2</text>
    </g>
    <g
       style="fill:white; text-rendering:geometricPrecision; stroke:white;"
       id="g437">
      <path
         d="M533.7311 452.2896 L623.7311 452.2896 L623.7311 477.2896 L533.7311 477.2896 L533.7311 452.2896 Z"
         style="clip-path:url(#clipPath40); stroke:none;"
         clip-path="url(#clipPath40)"
         id="path431" />
      <path
         d="M533.7311 452.2896 L623.7311 452.2896 L623.7311 477.2896 L533.7311 477.2896 L533.7311 452.2896 Z"
         style="fill:none; clip-path:url(#clipPath40); stroke:blue;"
         clip-path="url(#clipPath40)"
         id="path433" />
      <text
         x="563"
         y="469"
         style="fill:blue; clip-path:url(#clipPath40); stroke:none;"
         xml:space="preserve"
         clip-path="url(#clipPath40)"
         id="text435">TAGs</text>
    </g>
    <g
       style="fill:white; text-rendering:geometricPrecision; stroke:white;"
       id="g445">
      <path
         d="M675.1501 536.6938 L765.1501 536.6938 L765.1501 561.6938 L675.1501 561.6938 L675.1501 536.6938 Z"
         style="clip-path:url(#clipPath41); stroke:none;"
         clip-path="url(#clipPath41)"
         id="path439" />
      <path
         d="M675.1501 536.6938 L765.1501 536.6938 L765.1501 561.6938 L675.1501 561.6938 L675.1501 536.6938 Z"
         style="fill:none; clip-path:url(#clipPath41); stroke:black;"
         clip-path="url(#clipPath41)"
         id="path441" />
      <text
         x="700"
         y="553"
         style="fill:black; clip-path:url(#clipPath41); stroke:none;"
         xml:space="preserve"
         clip-path="url(#clipPath41)"
         id="text443">FOXA1</text>
    </g>
    <g
       style="fill:white; text-rendering:geometricPrecision; stroke:white;"
       id="g453">
      <path
         d="M906.8455 524.6934 L996.8455 524.6934 L996.8455 549.6934 L906.8455 549.6934 L906.8455 524.6934 Z"
         style="clip-path:url(#clipPath42); stroke:none;"
         clip-path="url(#clipPath42)"
         id="path447" />
      <path
         d="M906.8455 524.6934 L996.8455 524.6934 L996.8455 549.6934 L906.8455 549.6934 L906.8455 524.6934 Z"
         style="fill:none; clip-path:url(#clipPath42); stroke:black;"
         clip-path="url(#clipPath42)"
         id="path449" />
      <text
         x="923"
         y="541"
         style="fill:black; clip-path:url(#clipPath42); stroke:none;"
         xml:space="preserve"
         clip-path="url(#clipPath42)"
         id="text451">SREBP-1c</text>
    </g>
    <g
       style="fill:white; text-rendering:geometricPrecision; stroke:white;"
       id="g461">
      <path
         d="M1109.6301 353.6343 L1199.6301 353.6343 L1199.6301 378.6343 L1109.6301 378.6343 L1109.6301 353.6343 Z"
         style="clip-path:url(#clipPath43); stroke:none;"
         clip-path="url(#clipPath43)"
         id="path455" />
      <path
         d="M1109.6301 353.6343 L1199.6301 353.6343 L1199.6301 378.6343 L1109.6301 378.6343 L1109.6301 353.6343 Z"
         style="fill:none; clip-path:url(#clipPath43); stroke:black;"
         clip-path="url(#clipPath43)"
         id="path457" />
      <text
         x="1134"
         y="370"
         style="fill:black; clip-path:url(#clipPath43); stroke:none;"
         xml:space="preserve"
         clip-path="url(#clipPath43)"
         id="text459">GSTA2</text>
    </g>
    <g
       style="fill:white; text-rendering:geometricPrecision; stroke:white;"
       id="g469">
      <path
         d="M566.6046 589.1992 L656.6046 589.1992 L656.6046 614.1992 L566.6046 614.1992 L566.6046 589.1992 Z"
         style="clip-path:url(#clipPath44); stroke:none;"
         clip-path="url(#clipPath44)"
         id="path463" />
      <path
         d="M566.6046 589.1992 L656.6046 589.1992 L656.6046 614.1992 L566.6046 614.1992 L566.6046 589.1992 Z"
         style="fill:none; clip-path:url(#clipPath44); stroke:black;"
         clip-path="url(#clipPath44)"
         id="path465" />
      <text
         x="596"
         y="606"
         style="fill:black; clip-path:url(#clipPath44); stroke:none;"
         xml:space="preserve"
         clip-path="url(#clipPath44)"
         id="text467">FASN</text>
    </g>
    <g
       style="fill:white; text-rendering:geometricPrecision; stroke:white;"
       id="g477">
      <path
         d="M906.41 421.9017 L996.41 421.9017 L996.41 446.9017 L906.41 446.9017 L906.41 421.9017 Z"
         style="clip-path:url(#clipPath45); stroke:none;"
         clip-path="url(#clipPath45)"
         id="path471" />
      <path
         d="M906.41 421.9017 L996.41 421.9017 L996.41 446.9017 L906.41 446.9017 L906.41 421.9017 Z"
         style="fill:none; clip-path:url(#clipPath45); stroke:black;"
         clip-path="url(#clipPath45)"
         id="path473" />
      <text
         x="931"
         y="438"
         style="fill:black; clip-path:url(#clipPath45); stroke:none;"
         xml:space="preserve"
         clip-path="url(#clipPath45)"
         id="text475">FOXO1</text>
    </g>
    <g
       style="fill:white; text-rendering:geometricPrecision; stroke:white;"
       id="g485">
      <path
         d="M1110.8407 322.1698 L1200.8407 322.1698 L1200.8407 347.1698 L1110.8407 347.1698 L1110.8407 322.1698 Z"
         style="clip-path:url(#clipPath46); stroke:none;"
         clip-path="url(#clipPath46)"
         id="path479" />
      <path
         d="M1110.8407 322.1698 L1200.8407 322.1698 L1200.8407 347.1698 L1110.8407 347.1698 L1110.8407 322.1698 Z"
         style="fill:none; clip-path:url(#clipPath46); stroke:black;"
         clip-path="url(#clipPath46)"
         id="path481" />
      <text
         x="1128"
         y="339"
         style="fill:black; clip-path:url(#clipPath46); stroke:none;"
         xml:space="preserve"
         clip-path="url(#clipPath46)"
         id="text483">SLCO1B1</text>
    </g>
    <g
       style="fill:white; text-rendering:geometricPrecision; stroke:white;"
       id="g493">
      <path
         d="M994.2492 170.3403 L1084.2491 170.3403 L1084.2491 195.3403 L994.2492 195.3403 L994.2492 170.3403 Z"
         style="clip-path:url(#clipPath47); stroke:none;"
         clip-path="url(#clipPath47)"
         id="path487" />
      <path
         d="M994.2492 170.3403 L1084.2491 170.3403 L1084.2491 195.3403 L994.2492 195.3403 L994.2492 170.3403 Z"
         style="fill:none; clip-path:url(#clipPath47); stroke:black;"
         clip-path="url(#clipPath47)"
         id="path489" />
      <text
         x="1026"
         y="187"
         style="fill:black; clip-path:url(#clipPath47); stroke:none;"
         xml:space="preserve"
         clip-path="url(#clipPath47)"
         id="text491">IRS1</text>
    </g>
    <g
       style="fill:navy; text-rendering:geometricPrecision; font-size:8; stroke:navy;"
       id="g497">
      <text
         x="545"
         xml:space="preserve"
         y="384"
         style="clip-path:url(#clipPath49); stroke:none;"
         clip-path="url(#clipPath49)"
         id="text495">2</text>
    </g>
    <g
       style="fill:white; text-rendering:geometricPrecision; stroke:white;"
       id="g505">
      <path
         d="M974.5605 312.62 L1064.5605 312.62 L1064.5605 331.4997 L974.5605 331.4997 L974.5605 312.62 Z"
         style="clip-path:url(#clipPath50); stroke:none;"
         clip-path="url(#clipPath50)"
         id="path499" />
      <path
         d="M974.5605 312.62 L1064.5605 312.62 L1064.5605 331.4997 L974.5605 331.4997 L974.5605 312.62 Z"
         style="fill:none; clip-path:url(#clipPath50); stroke:black;"
         clip-path="url(#clipPath50)"
         id="path501" />
      <text
         x="999"
         y="326"
         style="fill:black; clip-path:url(#clipPath50); stroke:none;"
         xml:space="preserve"
         clip-path="url(#clipPath50)"
         id="text503">FOXA2</text>
    </g>
    <g
       style="fill:navy; text-rendering:geometricPrecision; font-size:8; stroke:navy;"
       id="g509">
      <text
         x="994"
         xml:space="preserve"
         y="521"
         style="clip-path:url(#clipPath52); stroke:none;"
         clip-path="url(#clipPath52)"
         id="text507">2</text>
    </g>
    <g
       style="fill:navy; text-rendering:geometricPrecision; font-size:8; stroke:navy;"
       id="g513">
      <text
         x="1062"
         xml:space="preserve"
         y="309"
         style="clip-path:url(#clipPath54); stroke:none;"
         clip-path="url(#clipPath54)"
         id="text511">5</text>
    </g>
    <g
       style="fill:white; text-rendering:geometricPrecision; stroke:white;"
       id="g521">
      <path
         d="M929.3195 625.8826 L1019.3195 625.8826 L1019.3195 650.8826 L929.3195 650.8826 L929.3195 625.8826 Z"
         style="clip-path:url(#clipPath55); stroke:none;"
         clip-path="url(#clipPath55)"
         id="path515" />
      <path
         d="M929.3195 625.8826 L1019.3195 625.8826 L1019.3195 650.8826 L929.3195 650.8826 L929.3195 625.8826 Z"
         style="fill:none; clip-path:url(#clipPath55); stroke:blue;"
         clip-path="url(#clipPath55)"
         id="path517" />
      <text
         x="955"
         y="642"
         style="fill:blue; clip-path:url(#clipPath55); stroke:none;"
         xml:space="preserve"
         clip-path="url(#clipPath55)"
         id="text519">Insulin</text>
    </g>
  </g>
</svg>
