<?xml version="1.0" encoding="UTF-8" standalone="no"?>
<svg
   style="fill-opacity:1; color-rendering:auto; color-interpolation:auto; stroke:black; text-rendering:auto; stroke-linecap:square; stroke-miterlimit:10; stroke-opacity:1; shape-rendering:auto; fill:black; stroke-dasharray:none; font-weight:normal; stroke-width:1; font-family:'Dialog'; font-style:normal; stroke-linejoin:miter; font-size:12; stroke-dashoffset:0; image-rendering:auto;"
   width="421"
   height="477"
   version="1.1"
   id="svg255"
   xmlns="http://www.w3.org/2000/svg"
   xmlns:svg="http://www.w3.org/2000/svg">
  <!--Generated by the Batik Graphics2D SVG Generator-->
  <defs
     id="genericDefs" />
  <g
     id="g253">
    <defs
       id="defs1">
      <clipPath
         clipPathUnits="userSpaceOnUse"
         id="clipPath1">
        <path
           d="M0 0 L437 0 L437 492 L0 492 L0 0 Z"
           id="path3" />
      </clipPath>
      <clipPath
         clipPathUnits="userSpaceOnUse"
         id="clipPath2">
        <path
           d="M0 0 L0 200 L200 200 L200 0 Z"
           id="path6" />
      </clipPath>
      <clipPath
         clipPathUnits="userSpaceOnUse"
         id="clipPath3">
        <path
           d="M192 16 L192 37 L218 37 L218 16 Z"
           id="path9" />
      </clipPath>
      <clipPath
         clipPathUnits="userSpaceOnUse"
         id="clipPath4">
        <path
           d="M194.3672 3.918 L215.6328 3.918 L215.6328 19.2305 L194.3672 19.2305 L194.3672 3.918 Z"
           id="path12" />
      </clipPath>
      <clipPath
         clipPathUnits="userSpaceOnUse"
         id="clipPath5">
        <path
           d="M190.0954 66.7623 L190.0954 110.7311 L204.5584 110.7311 L204.5584 66.7623 Z"
           id="path15" />
      </clipPath>
      <clipPath
         clipPathUnits="userSpaceOnUse"
         id="clipPath6">
        <path
           d="M222.6656 367.601 L222.6656 414.5699 L244.3539 414.5699 L244.3539 367.601 Z"
           id="path18" />
      </clipPath>
      <clipPath
         clipPathUnits="userSpaceOnUse"
         id="clipPath7">
        <path
           d="M286.5659 134.0602 L286.5659 177.2301 L320.6588 177.2301 L320.6588 134.0602 Z"
           id="path21" />
      </clipPath>
      <clipPath
         clipPathUnits="userSpaceOnUse"
         id="clipPath8">
        <path
           d="M286.6401 231.5755 L286.6401 272.3705 L311.6989 272.3705 L311.6989 231.5755 Z"
           id="path24" />
      </clipPath>
      <clipPath
         clipPathUnits="userSpaceOnUse"
         id="clipPath9">
        <path
           d="M215.1377 231.6124 L215.1377 270.9995 L239.9768 270.9995 L239.9768 231.6124 Z"
           id="path27" />
      </clipPath>
      <clipPath
         clipPathUnits="userSpaceOnUse"
         id="clipPath10">
        <path
           d="M144.3614 367.5699 L144.3614 415.4491 L176.0192 415.4491 L176.0192 367.5699 Z"
           id="path30" />
      </clipPath>
      <clipPath
         clipPathUnits="userSpaceOnUse"
         id="clipPath11">
        <path
           d="M209.8378 134.0665 L209.8378 178.2034 L244.2501 178.2034 L244.2501 134.0665 Z"
           id="path33" />
      </clipPath>
      <clipPath
         clipPathUnits="userSpaceOnUse"
         id="clipPath12">
        <path
           d="M278.5121 270.8178 L278.5121 304.8178 L407.5121 304.8178 L407.5121 270.8178 Z"
           id="path36" />
      </clipPath>
      <clipPath
         clipPathUnits="userSpaceOnUse"
         id="clipPath13">
        <path
           d="M158.8269 319.7623 L158.8269 340.7623 L239.8269 340.7623 L239.8269 319.7623 Z"
           id="path39" />
      </clipPath>
      <clipPath
         clipPathUnits="userSpaceOnUse"
         id="clipPath14">
        <path
           d="M158.8269 299.7623 L158.8269 320.7623 L239.8269 320.7623 L239.8269 299.7623 Z"
           id="path42" />
      </clipPath>
      <clipPath
         clipPathUnits="userSpaceOnUse"
         id="clipPath15">
        <path
           d="M222.8269 203.7623 L222.8269 224.7623 L303.8269 224.7623 L303.8269 203.7623 Z"
           id="path45" />
      </clipPath>
      <clipPath
         clipPathUnits="userSpaceOnUse"
         id="clipPath16">
        <path
           d="M158.8269 279.7623 L158.8269 300.7623 L239.8269 300.7623 L239.8269 279.7623 Z"
           id="path48" />
      </clipPath>
      <clipPath
         clipPathUnits="userSpaceOnUse"
         id="clipPath17">
        <path
           d="M158.8269 339.7623 L158.8269 360.7623 L239.8269 360.7623 L239.8269 339.7623 Z"
           id="path51" />
      </clipPath>
      <clipPath
         clipPathUnits="userSpaceOnUse"
         id="clipPath18">
        <path
           d="M156.8269 46.7623 L156.8269 67.7623 L237.8269 67.7623 L237.8269 46.7623 Z"
           id="path54" />
      </clipPath>
      <clipPath
         clipPathUnits="userSpaceOnUse"
         id="clipPath19">
        <path
           d="M222.8269 183.7623 L222.8269 204.7623 L303.8269 204.7623 L303.8269 183.7623 Z"
           id="path57" />
      </clipPath>
      <clipPath
         clipPathUnits="userSpaceOnUse"
         id="clipPath20">
        <path
           d="M306.25 109 L306.25 135.2623 L360.0769 135.2623 L360.0769 109 Z"
           id="path60" />
      </clipPath>
      <clipPath
         clipPathUnits="userSpaceOnUse"
         id="clipPath21">
        <path
           d="M205.9935 412.9475 L205.9935 433.9475 L355.7899 433.9475 L355.7899 412.9475 Z"
           id="path63" />
      </clipPath>
      <clipPath
         clipPathUnits="userSpaceOnUse"
         id="clipPath22">
        <path
           d="M321.5769 126.7623 L321.5769 142.7623 L397.5769 142.7623 L397.5769 126.7623 Z"
           id="path66" />
      </clipPath>
      <clipPath
         clipPathUnits="userSpaceOnUse"
         id="clipPath23">
        <path
           d="M170.4134 109 L170.4134 135.2623 L224.2403 135.2623 L224.2403 109 Z"
           id="path69" />
      </clipPath>
      <clipPath
         clipPathUnits="userSpaceOnUse"
         id="clipPath24">
        <path
           d="M185.7403 126.7623 L185.7403 142.7623 L261.7403 142.7623 L261.7403 126.7623 Z"
           id="path72" />
      </clipPath>
      <clipPath
         clipPathUnits="userSpaceOnUse"
         id="clipPath25">
        <path
           d="M26.5954 413.9197 L26.5954 463.2993 L184.8732 463.2993 L184.8732 413.9197 Z"
           id="path75" />
      </clipPath>
    </defs>
    <g
       style="fill:white; stroke:white;"
       id="g81">
      <rect
         x="0"
         width="437"
         height="492"
         y="0"
         style="stroke:none;"
         id="rect79" />
    </g>
    <g
       style="font-weight:bold; font-size:10; text-rendering:geometricPrecision;"
       id="g91">
      <path
         d="M0.0469 6.7031 L6.7656 6.7031 L6.7656 8.125 L4.3438 8.125 L4.3438 14 L2.4688 14 L2.4688 8.125 L0.0469 8.125 L0.0469 6.7031 ZM7.665 8.5312 L9.415 8.5312 L9.415 14 L7.665 14 L7.665 8.5312 ZM7.665 6.4062 L9.415 6.4062 L9.415 7.8281 L7.665 7.8281 L7.665 6.4062 ZM12.999 6.9844 L12.999 8.5312 L14.7959 8.5312 L14.7959 9.7812 L12.999 9.7812 L12.999 12.0938 Q12.999 12.4844 13.1475 12.6172 Q13.2959 12.75 13.749 12.75 L14.6553 12.75 L14.6553 14 L13.1553 14 Q12.1084 14 11.6787 13.5703 Q11.249 13.1406 11.249 12.0938 L11.249 9.7812 L10.374 9.7812 L10.374 8.5312 L11.249 8.5312 L11.249 6.9844 L12.999 6.9844 ZM15.873 6.4062 L17.623 6.4062 L17.623 14 L15.873 14 L15.873 6.4062 ZM24.7539 11.25 L24.7539 11.75 L20.6758 11.75 Q20.7383 12.3594 21.1133 12.6719 Q21.4883 12.9844 22.1758 12.9844 Q22.7227 12.9844 23.3086 12.8203 Q23.8945 12.6562 24.5039 12.3125 L24.5039 13.6719 Q23.8789 13.9062 23.2617 14.0234 Q22.6445 14.1406 22.0195 14.1406 Q20.5352 14.1406 19.7148 13.3828 Q18.8945 12.625 18.8945 11.2656 Q18.8945 9.9375 19.6992 9.1719 Q20.5039 8.4062 21.9258 8.4062 Q23.207 8.4062 23.9805 9.1797 Q24.7539 9.9531 24.7539 11.25 ZM22.957 10.6719 Q22.957 10.1719 22.668 9.8672 Q22.3789 9.5625 21.9102 9.5625 Q21.3945 9.5625 21.082 9.8438 Q20.7695 10.125 20.6914 10.6719 L22.957 10.6719 ZM26.3643 8.5312 L28.1143 8.5312 L28.1143 10.4219 L26.3643 10.4219 L26.3643 8.5312 ZM26.3643 12.1094 L28.1143 12.1094 L28.1143 14 L26.3643 14 L26.3643 12.1094 Z"
         style="clip-path:url(#clipPath2); stroke:none;"
         clip-path="url(#clipPath2)"
         id="path83" />
      <path
         d="M38.9844 6.7031 L43.1719 6.7031 L43.1719 7.5469 L39.9688 7.5469 L39.9688 9.6875 L42.8594 9.6875 L42.8594 10.5156 L39.9688 10.5156 L39.9688 14 L38.9844 14 L38.9844 6.7031 ZM43.7207 6.7031 L49.8926 6.7031 L49.8926 7.5469 L47.2988 7.5469 L47.2988 14 L46.3145 14 L46.3145 7.5469 L43.7207 7.5469 L43.7207 6.7031 ZM53.7979 7.375 Q52.7197 7.375 52.0947 8.1797 Q51.4697 8.9844 51.4697 10.3594 Q51.4697 11.7344 52.0947 12.5391 Q52.7197 13.3438 53.7979 13.3438 Q54.876 13.3438 55.501 12.5391 Q56.126 11.7344 56.126 10.3594 Q56.126 8.9844 55.501 8.1797 Q54.876 7.375 53.7979 7.375 ZM53.7979 6.5781 Q55.3291 6.5781 56.251 7.6094 Q57.1729 8.6406 57.1729 10.3594 Q57.1729 12.0781 56.251 13.1094 Q55.3291 14.1406 53.7979 14.1406 Q52.2666 14.1406 51.3447 13.1172 Q50.4229 12.0938 50.4229 10.3594 Q50.4229 8.6406 51.3447 7.6094 Q52.2666 6.5781 53.7979 6.5781 ZM63.9727 9.1562 Q63.2539 9.1562 62.832 9.7188 Q62.4102 10.2812 62.4102 11.2656 Q62.4102 12.25 62.8242 12.8125 Q63.2383 13.375 63.9727 13.375 Q64.6914 13.375 65.1133 12.8125 Q65.5352 12.25 65.5352 11.2656 Q65.5352 10.2969 65.1133 9.7266 Q64.6914 9.1562 63.9727 9.1562 ZM63.9727 8.4062 Q65.1445 8.4062 65.8164 9.1641 Q66.4883 9.9219 66.4883 11.2656 Q66.4883 12.6094 65.8164 13.375 Q65.1445 14.1406 63.9727 14.1406 Q62.8008 14.1406 62.1289 13.375 Q61.457 12.6094 61.457 11.2656 Q61.457 9.9219 62.1289 9.1641 Q62.8008 8.4062 63.9727 8.4062 ZM71.9033 11.2656 Q71.9033 10.2812 71.4893 9.7188 Q71.0752 9.1562 70.3721 9.1562 Q69.6533 9.1562 69.2471 9.7188 Q68.8408 10.2812 68.8408 11.2656 Q68.8408 12.2656 69.2471 12.8281 Q69.6533 13.3906 70.3721 13.3906 Q71.0752 13.3906 71.4893 12.8281 Q71.9033 12.2656 71.9033 11.2656 ZM68.8408 9.3594 Q69.1221 8.875 69.5518 8.6406 Q69.9814 8.4062 70.5908 8.4062 Q71.5908 8.4062 72.208 9.1953 Q72.8252 9.9844 72.8252 11.2656 Q72.8252 12.5625 72.208 13.3516 Q71.5908 14.1406 70.5908 14.1406 Q69.9814 14.1406 69.5518 13.9062 Q69.1221 13.6719 68.8408 13.1719 L68.8408 14 L67.9346 14 L67.9346 6.4062 L68.8408 6.4062 L68.8408 9.3594 ZM79.001 11.0469 L79.001 11.4844 L74.8604 11.4844 Q74.9229 12.4062 75.4229 12.8906 Q75.9229 13.375 76.8135 13.375 Q77.3291 13.375 77.8213 13.25 Q78.3135 13.125 78.7822 12.875 L78.7822 13.7188 Q78.2979 13.9219 77.79 14.0312 Q77.2822 14.1406 76.7666 14.1406 Q75.4541 14.1406 74.6885 13.3828 Q73.9229 12.625 73.9229 11.3125 Q73.9229 9.9688 74.6494 9.1875 Q75.376 8.4062 76.6104 8.4062 Q77.7197 8.4062 78.3604 9.1094 Q79.001 9.8125 79.001 11.0469 ZM78.0947 10.7812 Q78.0947 10.0469 77.6885 9.6016 Q77.2822 9.1562 76.626 9.1562 Q75.8604 9.1562 75.415 9.5859 Q74.9697 10.0156 74.8916 10.7812 L78.0947 10.7812 ZM83.9502 8.6875 L83.9502 9.5469 Q83.5752 9.3438 83.1689 9.25 Q82.7627 9.1562 82.3096 9.1562 Q81.6533 9.1562 81.3174 9.3594 Q80.9814 9.5625 80.9814 9.9688 Q80.9814 10.2812 81.2158 10.4609 Q81.4502 10.6406 82.1846 10.7969 L82.4814 10.875 Q83.4502 11.0781 83.8486 11.4531 Q84.2471 11.8281 84.2471 12.4844 Q84.2471 13.25 83.6455 13.6953 Q83.0439 14.1406 81.9971 14.1406 Q81.5439 14.1406 81.0674 14.0547 Q80.5908 13.9688 80.0752 13.7969 L80.0752 12.875 Q80.5752 13.125 81.0518 13.2578 Q81.5283 13.3906 82.0127 13.3906 Q82.6377 13.3906 82.9814 13.1719 Q83.3252 12.9531 83.3252 12.5625 Q83.3252 12.1875 83.083 11.9922 Q82.8408 11.7969 81.9971 11.625 L81.6846 11.5469 Q80.8564 11.375 80.4814 11.0078 Q80.1064 10.6406 80.1064 10.0156 Q80.1064 9.2344 80.6533 8.8203 Q81.2002 8.4062 82.2158 8.4062 Q82.7002 8.4062 83.1455 8.4766 Q83.5908 8.5469 83.9502 8.6875 ZM85.6758 8.5312 L86.582 8.5312 L86.582 14 L85.6758 14 L85.6758 8.5312 ZM85.6758 6.4062 L86.582 6.4062 L86.582 7.5469 L85.6758 7.5469 L85.6758 6.4062 ZM89.3447 6.9844 L89.3447 8.5312 L91.2041 8.5312 L91.2041 9.2344 L89.3447 9.2344 L89.3447 12.2031 Q89.3447 12.8594 89.5322 13.0547 Q89.7197 13.25 90.2822 13.25 L91.2041 13.25 L91.2041 14 L90.2822 14 Q89.2354 14 88.8369 13.6094 Q88.4385 13.2188 88.4385 12.2031 L88.4385 9.2344 L87.7822 9.2344 L87.7822 8.5312 L88.4385 8.5312 L88.4385 6.9844 L89.3447 6.9844 ZM94.6562 14.5156 Q94.2812 15.4844 93.9141 15.7812 Q93.5469 16.0781 92.9531 16.0781 L92.2344 16.0781 L92.2344 15.3281 L92.75 15.3281 Q93.125 15.3281 93.3281 15.1562 Q93.5312 14.9844 93.7812 14.3281 L93.9531 13.9062 L91.7344 8.5312 L92.6875 8.5312 L94.3906 12.8125 L96.1094 8.5312 L97.0625 8.5312 L94.6562 14.5156 ZM100.8311 8.5312 L101.7842 8.5312 L103.4873 13.125 L105.2061 8.5312 L106.1592 8.5312 L104.0967 14 L102.8779 14 L100.8311 8.5312 ZM109.874 11.25 Q108.7959 11.25 108.374 11.5 Q107.9521 11.75 107.9521 12.3438 Q107.9521 12.8281 108.2646 13.1094 Q108.5771 13.3906 109.124 13.3906 Q109.874 13.3906 110.3271 12.8594 Q110.7803 12.3281 110.7803 11.4531 L110.7803 11.25 L109.874 11.25 ZM111.6709 10.875 L111.6709 14 L110.7803 14 L110.7803 13.1719 Q110.4678 13.6719 110.0068 13.9062 Q109.5459 14.1406 108.8896 14.1406 Q108.0459 14.1406 107.5459 13.6719 Q107.0459 13.2031 107.0459 12.4062 Q107.0459 11.4844 107.6709 11.0156 Q108.2959 10.5469 109.5146 10.5469 L110.7803 10.5469 L110.7803 10.4531 Q110.7803 9.8438 110.3662 9.5 Q109.9521 9.1562 109.2178 9.1562 Q108.749 9.1562 108.3037 9.2734 Q107.8584 9.3906 107.4521 9.6094 L107.4521 8.7812 Q107.9521 8.5938 108.4131 8.5 Q108.874 8.4062 109.3115 8.4062 Q110.499 8.4062 111.085 9.0156 Q111.6709 9.625 111.6709 10.875 ZM116.6895 9.375 Q116.5332 9.2812 116.3613 9.2422 Q116.1895 9.2031 115.9707 9.2031 Q115.2051 9.2031 114.7988 9.6953 Q114.3926 10.1875 114.3926 11.125 L114.3926 14 L113.4863 14 L113.4863 8.5312 L114.3926 8.5312 L114.3926 9.375 Q114.6738 8.875 115.127 8.6406 Q115.5801 8.4062 116.2363 8.4062 Q116.3301 8.4062 116.4395 8.4141 Q116.5488 8.4219 116.6895 8.4531 L116.6895 9.375 ZM117.6289 8.5312 L118.5352 8.5312 L118.5352 14 L117.6289 14 L117.6289 8.5312 ZM117.6289 6.4062 L118.5352 6.4062 L118.5352 7.5469 L117.6289 7.5469 L117.6289 6.4062 ZM122.8916 11.25 Q121.8135 11.25 121.3916 11.5 Q120.9697 11.75 120.9697 12.3438 Q120.9697 12.8281 121.2822 13.1094 Q121.5947 13.3906 122.1416 13.3906 Q122.8916 13.3906 123.3447 12.8594 Q123.7979 12.3281 123.7979 11.4531 L123.7979 11.25 L122.8916 11.25 ZM124.6885 10.875 L124.6885 14 L123.7979 14 L123.7979 13.1719 Q123.4854 13.6719 123.0244 13.9062 Q122.5635 14.1406 121.9072 14.1406 Q121.0635 14.1406 120.5635 13.6719 Q120.0635 13.2031 120.0635 12.4062 Q120.0635 11.4844 120.6885 11.0156 Q121.3135 10.5469 122.5322 10.5469 L123.7979 10.5469 L123.7979 10.4531 Q123.7979 9.8438 123.3838 9.5 Q122.9697 9.1562 122.2354 9.1562 Q121.7666 9.1562 121.3213 9.2734 Q120.876 9.3906 120.4697 9.6094 L120.4697 8.7812 Q120.9697 8.5938 121.4307 8.5 Q121.8916 8.4062 122.3291 8.4062 Q123.5166 8.4062 124.1025 9.0156 Q124.6885 9.625 124.6885 10.875 ZM131.082 10.7031 L131.082 14 L130.1914 14 L130.1914 10.7344 Q130.1914 9.9531 129.8867 9.5703 Q129.582 9.1875 128.9727 9.1875 Q128.2539 9.1875 127.832 9.6484 Q127.4102 10.1094 127.4102 10.9062 L127.4102 14 L126.5039 14 L126.5039 8.5312 L127.4102 8.5312 L127.4102 9.375 Q127.7383 8.8906 128.1758 8.6484 Q128.6133 8.4062 129.1758 8.4062 Q130.1133 8.4062 130.5977 8.9844 Q131.082 9.5625 131.082 10.7031 ZM133.7637 6.9844 L133.7637 8.5312 L135.623 8.5312 L135.623 9.2344 L133.7637 9.2344 L133.7637 12.2031 Q133.7637 12.8594 133.9512 13.0547 Q134.1387 13.25 134.7012 13.25 L135.623 13.25 L135.623 14 L134.7012 14 Q133.6543 14 133.2559 13.6094 Q132.8574 13.2188 132.8574 12.2031 L132.8574 9.2344 L132.2012 9.2344 L132.2012 8.5312 L132.8574 8.5312 L132.8574 6.9844 L133.7637 6.9844 ZM144.2383 9.5781 Q144.5664 8.9688 145.0352 8.6875 Q145.5039 8.4062 146.1445 8.4062 Q147.0039 8.4062 147.4648 9 Q147.9258 9.5938 147.9258 10.7031 L147.9258 14 L147.0195 14 L147.0195 10.7344 Q147.0195 9.9375 146.7461 9.5625 Q146.4727 9.1875 145.8945 9.1875 Q145.1914 9.1875 144.793 9.6484 Q144.3945 10.1094 144.3945 10.9062 L144.3945 14 L143.4883 14 L143.4883 10.7344 Q143.4883 9.9375 143.207 9.5625 Q142.9258 9.1875 142.3477 9.1875 Q141.6602 9.1875 141.2539 9.6484 Q140.8477 10.1094 140.8477 10.9062 L140.8477 14 L139.9414 14 L139.9414 8.5312 L140.8477 8.5312 L140.8477 9.375 Q141.1602 8.875 141.5898 8.6406 Q142.0195 8.4062 142.5977 8.4062 Q143.207 8.4062 143.6211 8.7031 Q144.0352 9 144.2383 9.5781 ZM154.4014 11.0469 L154.4014 11.4844 L150.2607 11.4844 Q150.3232 12.4062 150.8232 12.8906 Q151.3232 13.375 152.2139 13.375 Q152.7295 13.375 153.2217 13.25 Q153.7139 13.125 154.1826 12.875 L154.1826 13.7188 Q153.6982 13.9219 153.1904 14.0312 Q152.6826 14.1406 152.167 14.1406 Q150.8545 14.1406 150.0889 13.3828 Q149.3232 12.625 149.3232 11.3125 Q149.3232 9.9688 150.0498 9.1875 Q150.7764 8.4062 152.0107 8.4062 Q153.1201 8.4062 153.7607 9.1094 Q154.4014 9.8125 154.4014 11.0469 ZM153.4951 10.7812 Q153.4951 10.0469 153.0889 9.6016 Q152.6826 9.1562 152.0264 9.1562 Q151.2607 9.1562 150.8154 9.5859 Q150.3701 10.0156 150.292 10.7812 L153.4951 10.7812 ZM159.8037 8.7344 L159.8037 9.5781 Q159.4287 9.375 159.0459 9.2656 Q158.6631 9.1562 158.2725 9.1562 Q157.3975 9.1562 156.9131 9.7109 Q156.4287 10.2656 156.4287 11.2656 Q156.4287 12.2656 156.9131 12.8203 Q157.3975 13.375 158.2725 13.375 Q158.6631 13.375 159.0459 13.2734 Q159.4287 13.1719 159.8037 12.9531 L159.8037 13.7969 Q159.4287 13.9688 159.0303 14.0547 Q158.6318 14.1406 158.1787 14.1406 Q156.9287 14.1406 156.2021 13.3672 Q155.4756 12.5938 155.4756 11.2656 Q155.4756 9.9375 156.21 9.1719 Q156.9443 8.4062 158.2256 8.4062 Q158.6475 8.4062 159.0381 8.4844 Q159.4287 8.5625 159.8037 8.7344 ZM165.9111 10.7031 L165.9111 14 L165.0205 14 L165.0205 10.7344 Q165.0205 9.9531 164.7158 9.5703 Q164.4111 9.1875 163.8018 9.1875 Q163.083 9.1875 162.6611 9.6484 Q162.2393 10.1094 162.2393 10.9062 L162.2393 14 L161.333 14 L161.333 6.4062 L162.2393 6.4062 L162.2393 9.375 Q162.5674 8.8906 163.0049 8.6484 Q163.4424 8.4062 164.0049 8.4062 Q164.9424 8.4062 165.4268 8.9844 Q165.9111 9.5625 165.9111 10.7031 ZM170.1865 11.25 Q169.1084 11.25 168.6865 11.5 Q168.2646 11.75 168.2646 12.3438 Q168.2646 12.8281 168.5771 13.1094 Q168.8896 13.3906 169.4365 13.3906 Q170.1865 13.3906 170.6396 12.8594 Q171.0928 12.3281 171.0928 11.4531 L171.0928 11.25 L170.1865 11.25 ZM171.9834 10.875 L171.9834 14 L171.0928 14 L171.0928 13.1719 Q170.7803 13.6719 170.3193 13.9062 Q169.8584 14.1406 169.2021 14.1406 Q168.3584 14.1406 167.8584 13.6719 Q167.3584 13.2031 167.3584 12.4062 Q167.3584 11.4844 167.9834 11.0156 Q168.6084 10.5469 169.8271 10.5469 L171.0928 10.5469 L171.0928 10.4531 Q171.0928 9.8438 170.6787 9.5 Q170.2646 9.1562 169.5303 9.1562 Q169.0615 9.1562 168.6162 9.2734 Q168.1709 9.3906 167.7646 9.6094 L167.7646 8.7812 Q168.2646 8.5938 168.7256 8.5 Q169.1865 8.4062 169.624 8.4062 Q170.8115 8.4062 171.3975 9.0156 Q171.9834 9.625 171.9834 10.875 ZM178.377 10.7031 L178.377 14 L177.4863 14 L177.4863 10.7344 Q177.4863 9.9531 177.1816 9.5703 Q176.877 9.1875 176.2676 9.1875 Q175.5488 9.1875 175.127 9.6484 Q174.7051 10.1094 174.7051 10.9062 L174.7051 14 L173.7988 14 L173.7988 8.5312 L174.7051 8.5312 L174.7051 9.375 Q175.0332 8.8906 175.4707 8.6484 Q175.9082 8.4062 176.4707 8.4062 Q177.4082 8.4062 177.8926 8.9844 Q178.377 9.5625 178.377 10.7031 ZM180.168 8.5312 L181.0742 8.5312 L181.0742 14 L180.168 14 L180.168 8.5312 ZM180.168 6.4062 L181.0742 6.4062 L181.0742 7.5469 L180.168 7.5469 L180.168 6.4062 ZM186.4307 8.6875 L186.4307 9.5469 Q186.0557 9.3438 185.6494 9.25 Q185.2432 9.1562 184.79 9.1562 Q184.1338 9.1562 183.7979 9.3594 Q183.4619 9.5625 183.4619 9.9688 Q183.4619 10.2812 183.6963 10.4609 Q183.9307 10.6406 184.665 10.7969 L184.9619 10.875 Q185.9307 11.0781 186.3291 11.4531 Q186.7275 11.8281 186.7275 12.4844 Q186.7275 13.25 186.126 13.6953 Q185.5244 14.1406 184.4775 14.1406 Q184.0244 14.1406 183.5479 14.0547 Q183.0713 13.9688 182.5557 13.7969 L182.5557 12.875 Q183.0557 13.125 183.5322 13.2578 Q184.0088 13.3906 184.4932 13.3906 Q185.1182 13.3906 185.4619 13.1719 Q185.8057 12.9531 185.8057 12.5625 Q185.8057 12.1875 185.5635 11.9922 Q185.3213 11.7969 184.4775 11.625 L184.165 11.5469 Q183.3369 11.375 182.9619 11.0078 Q182.5869 10.6406 182.5869 10.0156 Q182.5869 9.2344 183.1338 8.8203 Q183.6807 8.4062 184.6963 8.4062 Q185.1807 8.4062 185.626 8.4766 Q186.0713 8.5469 186.4307 8.6875 ZM192.4219 9.5781 Q192.75 8.9688 193.2188 8.6875 Q193.6875 8.4062 194.3281 8.4062 Q195.1875 8.4062 195.6484 9 Q196.1094 9.5938 196.1094 10.7031 L196.1094 14 L195.2031 14 L195.2031 10.7344 Q195.2031 9.9375 194.9297 9.5625 Q194.6562 9.1875 194.0781 9.1875 Q193.375 9.1875 192.9766 9.6484 Q192.5781 10.1094 192.5781 10.9062 L192.5781 14 L191.6719 14 L191.6719 10.7344 Q191.6719 9.9375 191.3906 9.5625 Q191.1094 9.1875 190.5312 9.1875 Q189.8438 9.1875 189.4375 9.6484 Q189.0312 10.1094 189.0312 10.9062 L189.0312 14 L188.125 14 L188.125 8.5312 L189.0312 8.5312 L189.0312 9.375 Q189.3438 8.875 189.7734 8.6406 Q190.2031 8.4062 190.7812 8.4062 Q191.3906 8.4062 191.8047 8.7031 Q192.2188 9 192.4219 9.5781 Z"
         style="clip-path:url(#clipPath2); stroke:none;"
         clip-path="url(#clipPath2)"
         id="path85" />
      <path
         d="M4.25 21.9375 Q3.3906 21.9375 2.9141 22.5703 Q2.4375 23.2031 2.4375 24.3594 Q2.4375 25.5156 2.9141 26.1484 Q3.3906 26.7812 4.25 26.7812 Q5.1094 26.7812 5.5859 26.1484 Q6.0625 25.5156 6.0625 24.3594 Q6.0625 23.2031 5.5859 22.5703 Q5.1094 21.9375 4.25 21.9375 ZM4.25 20.5781 Q6 20.5781 7 21.5859 Q8 22.5938 8 24.3594 Q8 26.125 7 27.1328 Q6 28.1406 4.25 28.1406 Q2.5 28.1406 1.5 27.1328 Q0.5 26.125 0.5 24.3594 Q0.5 22.5938 1.5 21.5859 Q2.5 20.5781 4.25 20.5781 ZM13.4072 24.0156 Q13.1729 23.9062 12.9463 23.8594 Q12.7197 23.8125 12.4854 23.8125 Q11.8135 23.8125 11.4541 24.2422 Q11.0947 24.6719 11.0947 25.4844 L11.0947 28 L9.3447 28 L9.3447 22.5312 L11.0947 22.5312 L11.0947 23.4219 Q11.4229 22.8906 11.8604 22.6484 Q12.2979 22.4062 12.9072 22.4062 Q13.001 22.4062 13.1025 22.4062 Q13.2041 22.4062 13.3916 22.4375 L13.4072 24.0156 ZM17.9951 27.0781 Q17.6357 27.5469 17.1982 27.7734 Q16.7607 28 16.1982 28 Q15.1982 28 14.542 27.2109 Q13.8857 26.4219 13.8857 25.2031 Q13.8857 23.9688 14.542 23.1875 Q15.1982 22.4062 16.1982 22.4062 Q16.7607 22.4062 17.1982 22.6328 Q17.6357 22.8594 17.9951 23.3438 L17.9951 22.5312 L19.7451 22.5312 L19.7451 27.4531 Q19.7451 28.7656 18.917 29.4609 Q18.0889 30.1562 16.5107 30.1562 Q15.9951 30.1562 15.5186 30.0781 Q15.042 30 14.5576 29.8438 L14.5576 28.4844 Q15.0107 28.75 15.4482 28.875 Q15.8857 29 16.3389 29 Q17.1982 29 17.5967 28.625 Q17.9951 28.25 17.9951 27.4531 L17.9951 27.0781 ZM16.8389 23.6719 Q16.292 23.6719 15.9951 24.0703 Q15.6982 24.4688 15.6982 25.2031 Q15.6982 25.9531 15.9873 26.3438 Q16.2764 26.7344 16.8389 26.7344 Q17.3857 26.7344 17.6904 26.3281 Q17.9951 25.9219 17.9951 25.2031 Q17.9951 24.4688 17.6904 24.0703 Q17.3857 23.6719 16.8389 23.6719 ZM23.8877 25.5312 Q23.3408 25.5312 23.0596 25.7188 Q22.7783 25.9062 22.7783 26.2656 Q22.7783 26.6094 23.0049 26.7969 Q23.2314 26.9844 23.6221 26.9844 Q24.1221 26.9844 24.458 26.625 Q24.7939 26.2656 24.7939 25.7344 L24.7939 25.5312 L23.8877 25.5312 ZM26.5596 24.875 L26.5596 28 L24.7939 28 L24.7939 27.1875 Q24.4346 27.6875 23.9971 27.9141 Q23.5596 28.1406 22.9346 28.1406 Q22.0752 28.1406 21.5518 27.6484 Q21.0283 27.1562 21.0283 26.3594 Q21.0283 25.3906 21.6846 24.9453 Q22.3408 24.5 23.7627 24.5 L24.7939 24.5 L24.7939 24.3594 Q24.7939 23.9531 24.4658 23.7578 Q24.1377 23.5625 23.4502 23.5625 Q22.8877 23.5625 22.4033 23.6719 Q21.9189 23.7812 21.4971 24.0156 L21.4971 22.6719 Q22.0596 22.5469 22.6299 22.4766 Q23.2002 22.4062 23.7627 22.4062 Q25.2471 22.4062 25.9033 22.9844 Q26.5596 23.5625 26.5596 24.875 ZM33.6826 24.6719 L33.6826 28 L31.917 28 L31.917 27.4531 L31.917 25.4531 Q31.917 24.75 31.8857 24.4766 Q31.8545 24.2031 31.7764 24.0781 Q31.6826 23.9062 31.5029 23.8125 Q31.3232 23.7188 31.1045 23.7188 Q30.5576 23.7188 30.2451 24.1406 Q29.9326 24.5625 29.9326 25.3125 L29.9326 28 L28.1826 28 L28.1826 22.5312 L29.9326 22.5312 L29.9326 23.3281 Q30.3232 22.8594 30.7686 22.6328 Q31.2139 22.4062 31.7451 22.4062 Q32.6982 22.4062 33.1904 22.9844 Q33.6826 23.5625 33.6826 24.6719 ZM35.3018 22.5312 L37.0518 22.5312 L37.0518 28 L35.3018 28 L35.3018 22.5312 ZM35.3018 20.4062 L37.0518 20.4062 L37.0518 21.8281 L35.3018 21.8281 L35.3018 20.4062 ZM42.9951 22.7031 L42.9951 24.0312 Q42.4326 23.7969 41.9092 23.6797 Q41.3857 23.5625 40.9326 23.5625 Q40.4326 23.5625 40.1904 23.6875 Q39.9482 23.8125 39.9482 24.0625 Q39.9482 24.2812 40.1279 24.3906 Q40.3076 24.5 40.792 24.5625 L41.0889 24.5938 Q42.4326 24.7656 42.9014 25.1562 Q43.3701 25.5469 43.3701 26.3906 Q43.3701 27.2656 42.7217 27.7031 Q42.0732 28.1406 40.792 28.1406 Q40.2607 28.1406 39.6826 28.0547 Q39.1045 27.9688 38.4795 27.7969 L38.4795 26.4688 Q39.0107 26.7188 39.5576 26.8516 Q40.1045 26.9844 40.667 26.9844 Q41.1826 26.9844 41.4404 26.8438 Q41.6982 26.7031 41.6982 26.4219 Q41.6982 26.1875 41.5264 26.0703 Q41.3545 25.9531 40.8232 25.8906 L40.5107 25.8438 Q39.3389 25.7031 38.8701 25.3047 Q38.4014 24.9062 38.4014 24.1094 Q38.4014 23.2344 38.9951 22.8203 Q39.5889 22.4062 40.8232 22.4062 Q41.3076 22.4062 41.8389 22.4766 Q42.3701 22.5469 42.9951 22.7031 ZM49.7441 23.4375 Q50.0723 22.9375 50.5332 22.6719 Q50.9941 22.4062 51.541 22.4062 Q52.4785 22.4062 52.9707 22.9844 Q53.4629 23.5625 53.4629 24.6719 L53.4629 28 L51.7129 28 L51.7129 25.1406 Q51.7129 25.0781 51.7129 25.0156 Q51.7129 24.9531 51.7129 24.8281 Q51.7129 24.2344 51.5488 23.9766 Q51.3848 23.7188 50.9941 23.7188 Q50.4941 23.7188 50.2285 24.125 Q49.9629 24.5312 49.9473 25.3125 L49.9473 28 L48.1816 28 L48.1816 25.1406 Q48.1816 24.2344 48.0254 23.9766 Q47.8691 23.7188 47.4785 23.7188 Q46.9785 23.7188 46.7051 24.1328 Q46.4316 24.5469 46.4316 25.3125 L46.4316 28 L44.666 28 L44.666 22.5312 L46.4316 22.5312 L46.4316 23.3281 Q46.7441 22.875 47.166 22.6406 Q47.5879 22.4062 48.0879 22.4062 Q48.6504 22.4062 49.0879 22.6797 Q49.5254 22.9531 49.7441 23.4375 ZM55.3828 22.5312 L57.1328 22.5312 L57.1328 24.4219 L55.3828 24.4219 L55.3828 22.5312 ZM55.3828 26.1094 L57.1328 26.1094 L57.1328 28 L55.3828 28 L55.3828 26.1094 Z"
         style="clip-path:url(#clipPath2); stroke:none;"
         clip-path="url(#clipPath2)"
         id="path87" />
      <path
         d="M66.9844 20.7031 L67.9688 20.7031 L67.9688 23.7031 L71.5469 23.7031 L71.5469 20.7031 L72.5312 20.7031 L72.5312 28 L71.5469 28 L71.5469 24.5312 L67.9688 24.5312 L67.9688 28 L66.9844 28 L66.9844 20.7031 ZM76.582 23.1562 Q75.8633 23.1562 75.4414 23.7188 Q75.0195 24.2812 75.0195 25.2656 Q75.0195 26.25 75.4336 26.8125 Q75.8477 27.375 76.582 27.375 Q77.3008 27.375 77.7227 26.8125 Q78.1445 26.25 78.1445 25.2656 Q78.1445 24.2969 77.7227 23.7266 Q77.3008 23.1562 76.582 23.1562 ZM76.582 22.4062 Q77.7539 22.4062 78.4258 23.1641 Q79.0977 23.9219 79.0977 25.2656 Q79.0977 26.6094 78.4258 27.375 Q77.7539 28.1406 76.582 28.1406 Q75.4102 28.1406 74.7383 27.375 Q74.0664 26.6094 74.0664 25.2656 Q74.0664 23.9219 74.7383 23.1641 Q75.4102 22.4062 76.582 22.4062 ZM84.8408 23.5781 Q85.1689 22.9688 85.6377 22.6875 Q86.1064 22.4062 86.7471 22.4062 Q87.6064 22.4062 88.0674 23 Q88.5283 23.5938 88.5283 24.7031 L88.5283 28 L87.6221 28 L87.6221 24.7344 Q87.6221 23.9375 87.3486 23.5625 Q87.0752 23.1875 86.4971 23.1875 Q85.7939 23.1875 85.3955 23.6484 Q84.9971 24.1094 84.9971 24.9062 L84.9971 28 L84.0908 28 L84.0908 24.7344 Q84.0908 23.9375 83.8096 23.5625 Q83.5283 23.1875 82.9502 23.1875 Q82.2627 23.1875 81.8564 23.6484 Q81.4502 24.1094 81.4502 24.9062 L81.4502 28 L80.5439 28 L80.5439 22.5312 L81.4502 22.5312 L81.4502 23.375 Q81.7627 22.875 82.1924 22.6406 Q82.6221 22.4062 83.2002 22.4062 Q83.8096 22.4062 84.2236 22.7031 Q84.6377 23 84.8408 23.5781 ZM92.4414 23.1562 Q91.7227 23.1562 91.3008 23.7188 Q90.8789 24.2812 90.8789 25.2656 Q90.8789 26.25 91.293 26.8125 Q91.707 27.375 92.4414 27.375 Q93.1602 27.375 93.582 26.8125 Q94.0039 26.25 94.0039 25.2656 Q94.0039 24.2969 93.582 23.7266 Q93.1602 23.1562 92.4414 23.1562 ZM92.4414 22.4062 Q93.6133 22.4062 94.2852 23.1641 Q94.957 23.9219 94.957 25.2656 Q94.957 26.6094 94.2852 27.375 Q93.6133 28.1406 92.4414 28.1406 Q91.2695 28.1406 90.5977 27.375 Q89.9258 26.6094 89.9258 25.2656 Q89.9258 23.9219 90.5977 23.1641 Q91.2695 22.4062 92.4414 22.4062 ZM103.0977 22.6875 L103.0977 23.5469 Q102.7227 23.3438 102.3164 23.25 Q101.9102 23.1562 101.457 23.1562 Q100.8008 23.1562 100.4648 23.3594 Q100.1289 23.5625 100.1289 23.9688 Q100.1289 24.2812 100.3633 24.4609 Q100.5977 24.6406 101.332 24.7969 L101.6289 24.875 Q102.5977 25.0781 102.9961 25.4531 Q103.3945 25.8281 103.3945 26.4844 Q103.3945 27.25 102.793 27.6953 Q102.1914 28.1406 101.1445 28.1406 Q100.6914 28.1406 100.2148 28.0547 Q99.7383 27.9688 99.2227 27.7969 L99.2227 26.875 Q99.7227 27.125 100.1992 27.2578 Q100.6758 27.3906 101.1602 27.3906 Q101.7852 27.3906 102.1289 27.1719 Q102.4727 26.9531 102.4727 26.5625 Q102.4727 26.1875 102.2305 25.9922 Q101.9883 25.7969 101.1445 25.625 L100.832 25.5469 Q100.0039 25.375 99.6289 25.0078 Q99.2539 24.6406 99.2539 24.0156 Q99.2539 23.2344 99.8008 22.8203 Q100.3477 22.4062 101.3633 22.4062 Q101.8477 22.4062 102.293 22.4766 Q102.7383 22.5469 103.0977 22.6875 ZM107.3076 25.25 Q106.2295 25.25 105.8076 25.5 Q105.3857 25.75 105.3857 26.3438 Q105.3857 26.8281 105.6982 27.1094 Q106.0107 27.3906 106.5576 27.3906 Q107.3076 27.3906 107.7607 26.8594 Q108.2139 26.3281 108.2139 25.4531 L108.2139 25.25 L107.3076 25.25 ZM109.1045 24.875 L109.1045 28 L108.2139 28 L108.2139 27.1719 Q107.9014 27.6719 107.4404 27.9062 Q106.9795 28.1406 106.3232 28.1406 Q105.4795 28.1406 104.9795 27.6719 Q104.4795 27.2031 104.4795 26.4062 Q104.4795 25.4844 105.1045 25.0156 Q105.7295 24.5469 106.9482 24.5469 L108.2139 24.5469 L108.2139 24.4531 Q108.2139 23.8438 107.7998 23.5 Q107.3857 23.1562 106.6514 23.1562 Q106.1826 23.1562 105.7373 23.2734 Q105.292 23.3906 104.8857 23.6094 L104.8857 22.7812 Q105.3857 22.5938 105.8467 22.5 Q106.3076 22.4062 106.7451 22.4062 Q107.9326 22.4062 108.5186 23.0156 Q109.1045 23.625 109.1045 24.875 ZM111.8262 27.1719 L111.8262 30.0781 L110.9199 30.0781 L110.9199 22.5312 L111.8262 22.5312 L111.8262 23.3594 Q112.1074 22.875 112.5371 22.6406 Q112.9668 22.4062 113.5762 22.4062 Q114.5762 22.4062 115.1934 23.1953 Q115.8105 23.9844 115.8105 25.2656 Q115.8105 26.5625 115.1934 27.3516 Q114.5762 28.1406 113.5762 28.1406 Q112.9668 28.1406 112.5371 27.9062 Q112.1074 27.6719 111.8262 27.1719 ZM114.8887 25.2656 Q114.8887 24.2812 114.4746 23.7188 Q114.0605 23.1562 113.3574 23.1562 Q112.6387 23.1562 112.2324 23.7188 Q111.8262 24.2812 111.8262 25.2656 Q111.8262 26.2656 112.2324 26.8281 Q112.6387 27.3906 113.3574 27.3906 Q114.0605 27.3906 114.4746 26.8281 Q114.8887 26.2656 114.8887 25.2656 ZM117.2988 22.5312 L118.2051 22.5312 L118.2051 28 L117.2988 28 L117.2988 22.5312 ZM117.2988 20.4062 L118.2051 20.4062 L118.2051 21.5469 L117.2988 21.5469 L117.2988 20.4062 ZM124.7646 25.0469 L124.7646 25.4844 L120.624 25.4844 Q120.6865 26.4062 121.1865 26.8906 Q121.6865 27.375 122.5771 27.375 Q123.0928 27.375 123.585 27.25 Q124.0771 27.125 124.5459 26.875 L124.5459 27.7188 Q124.0615 27.9219 123.5537 28.0312 Q123.0459 28.1406 122.5303 28.1406 Q121.2178 28.1406 120.4521 27.3828 Q119.6865 26.625 119.6865 25.3125 Q119.6865 23.9688 120.4131 23.1875 Q121.1396 22.4062 122.374 22.4062 Q123.4834 22.4062 124.124 23.1094 Q124.7646 23.8125 124.7646 25.0469 ZM123.8584 24.7812 Q123.8584 24.0469 123.4521 23.6016 Q123.0459 23.1562 122.3896 23.1562 Q121.624 23.1562 121.1787 23.5859 Q120.7334 24.0156 120.6553 24.7812 L123.8584 24.7812 ZM130.7764 24.7031 L130.7764 28 L129.8857 28 L129.8857 24.7344 Q129.8857 23.9531 129.5811 23.5703 Q129.2764 23.1875 128.667 23.1875 Q127.9482 23.1875 127.5264 23.6484 Q127.1045 24.1094 127.1045 24.9062 L127.1045 28 L126.1982 28 L126.1982 22.5312 L127.1045 22.5312 L127.1045 23.375 Q127.4326 22.8906 127.8701 22.6484 Q128.3076 22.4062 128.8701 22.4062 Q129.8076 22.4062 130.292 22.9844 Q130.7764 23.5625 130.7764 24.7031 ZM136.0518 22.6875 L136.0518 23.5469 Q135.6768 23.3438 135.2705 23.25 Q134.8643 23.1562 134.4111 23.1562 Q133.7549 23.1562 133.4189 23.3594 Q133.083 23.5625 133.083 23.9688 Q133.083 24.2812 133.3174 24.4609 Q133.5518 24.6406 134.2861 24.7969 L134.583 24.875 Q135.5518 25.0781 135.9502 25.4531 Q136.3486 25.8281 136.3486 26.4844 Q136.3486 27.25 135.7471 27.6953 Q135.1455 28.1406 134.0986 28.1406 Q133.6455 28.1406 133.1689 28.0547 Q132.6924 27.9688 132.1768 27.7969 L132.1768 26.875 Q132.6768 27.125 133.1533 27.2578 Q133.6299 27.3906 134.1143 27.3906 Q134.7393 27.3906 135.083 27.1719 Q135.4268 26.9531 135.4268 26.5625 Q135.4268 26.1875 135.1846 25.9922 Q134.9424 25.7969 134.0986 25.625 L133.7861 25.5469 Q132.958 25.375 132.583 25.0078 Q132.208 24.6406 132.208 24.0156 Q132.208 23.2344 132.7549 22.8203 Q133.3018 22.4062 134.3174 22.4062 Q134.8018 22.4062 135.2471 22.4766 Q135.6924 22.5469 136.0518 22.6875 Z"
         style="clip-path:url(#clipPath2); stroke:none;"
         clip-path="url(#clipPath2)"
         id="path89" />
    </g>
    <g
       style="fill:navy; text-rendering:geometricPrecision; font-size:8; stroke:navy;"
       id="g95">
      <text
         x="197"
         xml:space="preserve"
         y="16"
         style="clip-path:url(#clipPath4); stroke:none;"
         clip-path="url(#clipPath4)"
         id="text93">1, 2</text>
    </g>
    <g
       style="text-rendering:geometricPrecision;"
       id="g101">
      <path
         d="M197.3269 67.2623 L197.3269 109.5"
         style="fill:none; clip-path:url(#clipPath5);"
         clip-path="url(#clipPath5)"
         id="path97" />
      <path
         d="M197.3269 109.5 L202.5269 97.8 L197.3269 104.3 L192.1269 97.8 Z"
         style="clip-path:url(#clipPath5); stroke:none;"
         clip-path="url(#clipPath5)"
         id="path99" />
    </g>
    <g
       style="text-rendering:geometricPrecision;"
       id="g107">
      <path
         d="M223.3269 368.2623 L243.6926 413.4475"
         style="fill:none; clip-path:url(#clipPath6);"
         clip-path="url(#clipPath6)"
         id="path103" />
      <path
         d="M243.6926 413.4475 L243.6257 400.6441 L234.1443 404.9176 Z"
         style="clip-path:url(#clipPath6); fill-rule:evenodd; stroke:none;"
         clip-path="url(#clipPath6)"
         id="path105" />
    </g>
    <g
       style="text-rendering:geometricPrecision;"
       id="g113">
      <path
         d="M319.9567 134.7623 L287.3269 176.2623"
         style="fill:none; clip-path:url(#clipPath7);"
         clip-path="url(#clipPath7)"
         id="path109" />
      <path
         d="M287.3269 176.2623 L298.6463 170.2789 L290.4707 163.8507 Z"
         style="clip-path:url(#clipPath7); fill-rule:evenodd; stroke:none;"
         clip-path="url(#clipPath7)"
         id="path111" />
    </g>
    <g
       style="text-rendering:geometricPrecision;"
       id="g119">
      <path
         d="M287.3269 232.2623 L311.0121 271.3178"
         style="fill:none; clip-path:url(#clipPath8);"
         clip-path="url(#clipPath8)"
         id="path115" />
      <path
         d="M311.0121 271.3178 L309.3914 258.6173 L300.4988 264.0102 Z"
         style="clip-path:url(#clipPath8); fill-rule:evenodd; stroke:none;"
         clip-path="url(#clipPath8)"
         id="path117" />
    </g>
    <g
       style="text-rendering:geometricPrecision;"
       id="g127">
      <path
         d="M239.3269 232.2623 L225.9266 265.7629"
         style="fill:none; clip-path:url(#clipPath9);"
         clip-path="url(#clipPath9)"
         id="path121" />
      <path
         d="M234.3757 269.1426 L233.8929 270.3496 L215.7877 263.1075 L216.2705 261.9005 L234.3757 269.1426 Z"
         style="fill:white; clip-path:url(#clipPath9); stroke:none;"
         clip-path="url(#clipPath9)"
         id="path123" />
      <path
         d="M234.3757 269.1426 L233.8929 270.3496 L215.7877 263.1075 L216.2705 261.9005 L234.3757 269.1426 Z"
         style="fill:none; clip-path:url(#clipPath9);"
         clip-path="url(#clipPath9)"
         id="path125" />
    </g>
    <g
       style="text-rendering:geometricPrecision;"
       id="g133">
      <path
         d="M175.3269 368.2623 L145.0537 414.4197"
         style="fill:none; clip-path:url(#clipPath10);"
         clip-path="url(#clipPath10)"
         id="path129" />
      <path
         d="M145.0537 414.4197 L155.8186 407.4881 L147.1222 401.7844 Z"
         style="clip-path:url(#clipPath10); fill-rule:evenodd; stroke:none;"
         clip-path="url(#clipPath10)"
         id="path131" />
    </g>
    <g
       style="text-rendering:geometricPrecision;"
       id="g141">
      <path
         d="M210.5336 134.7623 L235.3366 170.511"
         style="fill:none; clip-path:url(#clipPath11);"
         clip-path="url(#clipPath11)"
         id="path135" />
      <path
         d="M242.8132 165.3236 L243.5543 166.3917 L227.5329 177.5076 L226.7918 176.4395 L242.8132 165.3236 Z"
         style="fill:white; clip-path:url(#clipPath11); stroke:none;"
         clip-path="url(#clipPath11)"
         id="path137" />
      <path
         d="M242.8132 165.3236 L243.5543 166.3917 L227.5329 177.5076 L226.7918 176.4395 L242.8132 165.3236 Z"
         style="fill:none; clip-path:url(#clipPath11);"
         clip-path="url(#clipPath11)"
         id="path139" />
    </g>
    <g
       style="text-rendering:geometricPrecision;"
       id="g147">
      <text
         x="297"
         xml:space="preserve"
         y="285"
         style="clip-path:url(#clipPath12); stroke:none;"
         clip-path="url(#clipPath12)"
         id="text143">Lipid storage in</text>
      <text
         x="293"
         xml:space="preserve"
         y="298"
         style="clip-path:url(#clipPath12); stroke:none;"
         clip-path="url(#clipPath12)"
         id="text145">white adipocytes</text>
    </g>
    <g
       style="fill:white; text-rendering:geometricPrecision; stroke:white;"
       id="g155">
      <path
         d="M159.3269 320.2623 L239.3269 320.2623 L239.3269 340.2623 L159.3269 340.2623 L159.3269 320.2623 Z"
         style="clip-path:url(#clipPath13); stroke:none;"
         clip-path="url(#clipPath13)"
         id="path149" />
      <path
         d="M159.3269 320.2623 L239.3269 320.2623 L239.3269 340.2623 L159.3269 340.2623 L159.3269 320.2623 Z"
         style="fill:none; clip-path:url(#clipPath13); stroke:black;"
         clip-path="url(#clipPath13)"
         id="path151" />
      <text
         x="178"
         y="334"
         style="font-size:10; clip-path:url(#clipPath13); fill:black; stroke:none;"
         xml:space="preserve"
         clip-path="url(#clipPath13)"
         id="text153">PRDM16</text>
    </g>
    <g
       style="fill:white; text-rendering:geometricPrecision; stroke:white;"
       id="g163">
      <path
         d="M159.3269 300.2623 L239.3269 300.2623 L239.3269 320.2623 L159.3269 320.2623 L159.3269 300.2623 Z"
         style="clip-path:url(#clipPath14); stroke:none;"
         clip-path="url(#clipPath14)"
         id="path157" />
      <path
         d="M159.3269 300.2623 L239.3269 300.2623 L239.3269 320.2623 L159.3269 320.2623 L159.3269 300.2623 Z"
         style="fill:none; clip-path:url(#clipPath14); stroke:black;"
         clip-path="url(#clipPath14)"
         id="path159" />
      <text
         x="173"
         y="314"
         style="font-size:10; clip-path:url(#clipPath14); fill:black; stroke:none;"
         xml:space="preserve"
         clip-path="url(#clipPath14)"
         id="text161">PPARGC1A</text>
    </g>
    <g
       style="fill:white; text-rendering:geometricPrecision; stroke:white;"
       id="g171">
      <path
         d="M223.3269 204.2623 L303.3269 204.2623 L303.3269 224.2623 L223.3269 224.2623 L223.3269 204.2623 Z"
         style="clip-path:url(#clipPath15); stroke:none;"
         clip-path="url(#clipPath15)"
         id="path165" />
      <path
         d="M223.3269 204.2623 L303.3269 204.2623 L303.3269 224.2623 L223.3269 224.2623 L223.3269 204.2623 Z"
         style="fill:none; clip-path:url(#clipPath15); stroke:black;"
         clip-path="url(#clipPath15)"
         id="path167" />
      <text
         x="252"
         y="218"
         style="font-size:10; clip-path:url(#clipPath15); fill:black; stroke:none;"
         xml:space="preserve"
         clip-path="url(#clipPath15)"
         id="text169">IRX5</text>
    </g>
    <g
       style="fill:white; text-rendering:geometricPrecision; stroke:white;"
       id="g179">
      <path
         d="M159.3269 280.2623 L239.3269 280.2623 L239.3269 300.2623 L159.3269 300.2623 L159.3269 280.2623 Z"
         style="clip-path:url(#clipPath16); stroke:none;"
         clip-path="url(#clipPath16)"
         id="path173" />
      <path
         d="M159.3269 280.2623 L239.3269 280.2623 L239.3269 300.2623 L159.3269 300.2623 L159.3269 280.2623 Z"
         style="fill:none; clip-path:url(#clipPath16); stroke:black;"
         clip-path="url(#clipPath16)"
         id="path175" />
      <text
         x="186"
         y="294"
         style="font-size:10; clip-path:url(#clipPath16); fill:black; stroke:none;"
         xml:space="preserve"
         clip-path="url(#clipPath16)"
         id="text177">UCP1</text>
    </g>
    <g
       style="fill:white; text-rendering:geometricPrecision; stroke:white;"
       id="g187">
      <path
         d="M159.3269 340.2623 L239.3269 340.2623 L239.3269 360.2623 L159.3269 360.2623 L159.3269 340.2623 Z"
         style="clip-path:url(#clipPath17); stroke:none;"
         clip-path="url(#clipPath17)"
         id="path181" />
      <path
         d="M159.3269 340.2623 L239.3269 340.2623 L239.3269 360.2623 L159.3269 360.2623 L159.3269 340.2623 Z"
         style="fill:none; clip-path:url(#clipPath17); stroke:black;"
         clip-path="url(#clipPath17)"
         id="path183" />
      <text
         x="186"
         y="354"
         style="font-size:10; clip-path:url(#clipPath17); fill:black; stroke:none;"
         xml:space="preserve"
         clip-path="url(#clipPath17)"
         id="text185">TBX1</text>
    </g>
    <g
       style="fill:white; text-rendering:geometricPrecision; stroke:white;"
       id="g195">
      <path
         d="M157.3269 47.2623 L237.3269 47.2623 L237.3269 67.2623 L157.3269 67.2623 L157.3269 47.2623 Z"
         style="clip-path:url(#clipPath18); stroke:none;"
         clip-path="url(#clipPath18)"
         id="path189" />
      <path
         d="M157.3269 47.2623 L237.3269 47.2623 L237.3269 67.2623 L157.3269 67.2623 L157.3269 47.2623 Z"
         style="fill:none; clip-path:url(#clipPath18); stroke:black;"
         clip-path="url(#clipPath18)"
         id="path191" />
      <text
         x="179"
         y="61"
         style="font-size:10; clip-path:url(#clipPath18); fill:black; stroke:none;"
         xml:space="preserve"
         clip-path="url(#clipPath18)"
         id="text193">ARID5B</text>
    </g>
    <g
       style="fill:white; text-rendering:geometricPrecision; stroke:white;"
       id="g203">
      <path
         d="M223.3269 184.2623 L303.3269 184.2623 L303.3269 204.2623 L223.3269 204.2623 L223.3269 184.2623 Z"
         style="clip-path:url(#clipPath19); stroke:none;"
         clip-path="url(#clipPath19)"
         id="path197" />
      <path
         d="M223.3269 184.2623 L303.3269 184.2623 L303.3269 204.2623 L223.3269 204.2623 L223.3269 184.2623 Z"
         style="fill:none; clip-path:url(#clipPath19); stroke:black;"
         clip-path="url(#clipPath19)"
         id="path199" />
      <text
         x="252"
         y="198"
         style="font-size:10; clip-path:url(#clipPath19); fill:black; stroke:none;"
         xml:space="preserve"
         clip-path="url(#clipPath19)"
         id="text201">IRX3</text>
    </g>
    <g
       style="fill:white; text-rendering:geometricPrecision; stroke:white;"
       id="g211">
      <path
         d="M306.75 109.5 L359.5769 109.5 L359.5769 134.7623 L306.75 134.7623 L306.75 109.5 Z"
         style="clip-path:url(#clipPath20); stroke:none;"
         clip-path="url(#clipPath20)"
         id="path205" />
      <path
         d="M306.75 109.5 L359.5769 109.5 L359.5769 134.7623 L306.75 134.7623 L306.75 109.5 Z"
         style="fill:none; clip-path:url(#clipPath20); stroke:black;"
         clip-path="url(#clipPath20)"
         id="path207" />
      <text
         x="324"
         y="125"
         style="font-size:10; clip-path:url(#clipPath20); fill:black; stroke:none;"
         xml:space="preserve"
         clip-path="url(#clipPath20)"
         id="text209">FTO</text>
    </g>
    <g
       style="fill:white; text-rendering:geometricPrecision; stroke:white;"
       id="g219">
      <path
         d="M206.4935 423.4475 L206.4935 423.4475 C206.4935 428.9703 210.9707 433.4475 216.4935 433.4475 L345.2899 433.4475 C350.8127 433.4475 355.2899 428.9703 355.2899 423.4475 L355.2899 423.4475 C355.2899 417.9246 350.8127 413.4475 345.2899 413.4475 L216.4935 413.4475 C210.9707 413.4475 206.4935 417.9246 206.4935 423.4475 Z"
         style="clip-path:url(#clipPath21); stroke:none;"
         clip-path="url(#clipPath21)"
         id="path213" />
      <path
         d="M206.4935 423.4475 L206.4935 423.4475 C206.4935 428.9703 210.9707 433.4475 216.4935 433.4475 L345.2899 433.4475 C350.8127 433.4475 355.2899 428.9703 355.2899 423.4475 L355.2899 423.4475 C355.2899 417.9246 350.8127 413.4475 345.2899 413.4475 L216.4935 413.4475 C210.9707 413.4475 206.4935 417.9246 206.4935 423.4475 Z"
         style="fill:none; clip-path:url(#clipPath21); stroke:rgb(20,150,30);"
         clip-path="url(#clipPath21)"
         id="path215" />
      <text
         x="212"
         y="428"
         style="clip-path:url(#clipPath21); fill:rgb(20,150,30); stroke:none; font-weight:bold;"
         xml:space="preserve"
         clip-path="url(#clipPath21)"
         id="text217">Fatty Acid Oxidation</text>
    </g>
    <g
       style="fill:white; text-rendering:geometricPrecision; stroke:white;"
       id="g227">
      <path
         d="M397.0769 134.7623 C397.0769 138.9044 380.2876 142.2623 359.5769 142.2623 C338.8662 142.2623 322.0769 138.9044 322.0769 134.7623 C322.0769 130.6201 338.8662 127.2623 359.5769 127.2623 C380.2876 127.2623 397.0769 130.6201 397.0769 134.7623 Z"
         style="clip-path:url(#clipPath22); stroke:none;"
         clip-path="url(#clipPath22)"
         id="path221" />
      <path
         d="M397.0769 134.7623 C397.0769 138.9044 380.2876 142.2623 359.5769 142.2623 C338.8662 142.2623 322.0769 138.9044 322.0769 134.7623 C322.0769 130.6201 338.8662 127.2623 359.5769 127.2623 C380.2876 127.2623 397.0769 130.6201 397.0769 134.7623 Z"
         style="fill:none; clip-path:url(#clipPath22); stroke:black;"
         clip-path="url(#clipPath22)"
         id="path223" />
      <text
         x="332"
         y="138"
         style="font-size:10; clip-path:url(#clipPath22); fill:black; stroke:none;"
         xml:space="preserve"
         clip-path="url(#clipPath22)"
         id="text225">C risk allele</text>
    </g>
    <g
       style="fill:white; text-rendering:geometricPrecision; stroke:white;"
       id="g235">
      <path
         d="M170.9134 109.5 L223.7403 109.5 L223.7403 134.7623 L170.9134 134.7623 L170.9134 109.5 Z"
         style="clip-path:url(#clipPath23); stroke:none;"
         clip-path="url(#clipPath23)"
         id="path229" />
      <path
         d="M170.9134 109.5 L223.7403 109.5 L223.7403 134.7623 L170.9134 134.7623 L170.9134 109.5 Z"
         style="fill:none; clip-path:url(#clipPath23); stroke:black;"
         clip-path="url(#clipPath23)"
         id="path231" />
      <text
         x="188"
         y="125"
         style="font-size:10; clip-path:url(#clipPath23); fill:black; stroke:none;"
         xml:space="preserve"
         clip-path="url(#clipPath23)"
         id="text233">FTO</text>
    </g>
    <g
       style="fill:white; text-rendering:geometricPrecision; stroke:white;"
       id="g243">
      <path
         d="M261.2403 134.7623 C261.2403 138.9044 244.451 142.2623 223.7403 142.2623 C203.0296 142.2623 186.2403 138.9044 186.2403 134.7623 C186.2403 130.6201 203.0296 127.2623 223.7403 127.2623 C244.451 127.2623 261.2403 130.6201 261.2403 134.7623 Z"
         style="clip-path:url(#clipPath24); stroke:none;"
         clip-path="url(#clipPath24)"
         id="path237" />
      <path
         d="M261.2403 134.7623 C261.2403 138.9044 244.451 142.2623 223.7403 142.2623 C203.0296 142.2623 186.2403 138.9044 186.2403 134.7623 C186.2403 130.6201 203.0296 127.2623 223.7403 127.2623 C244.451 127.2623 261.2403 130.6201 261.2403 134.7623 Z"
         style="fill:none; clip-path:url(#clipPath24); stroke:black;"
         clip-path="url(#clipPath24)"
         id="path239" />
      <text
         x="196"
         y="138"
         style="font-size:10; clip-path:url(#clipPath24); fill:black; stroke:none;"
         xml:space="preserve"
         clip-path="url(#clipPath24)"
         id="text241">T risk allele</text>
    </g>
    <g
       style="text-rendering:geometricPrecision;"
       id="g251">
      <text
         x="35"
         xml:space="preserve"
         y="428"
         style="clip-path:url(#clipPath25); stroke:none;"
         clip-path="url(#clipPath25)"
         id="text245">Browning mitochondrial</text>
      <text
         x="49"
         xml:space="preserve"
         y="441"
         style="clip-path:url(#clipPath25); stroke:none;"
         clip-path="url(#clipPath25)"
         id="text247">thermogenesis and</text>
      <text
         x="55"
         xml:space="preserve"
         y="455"
         style="clip-path:url(#clipPath25); stroke:none;"
         clip-path="url(#clipPath25)"
         id="text249">beige adipocytes</text>
    </g>
  </g>
</svg>
