<?xml version="1.0" encoding="UTF-8" standalone="no"?>
<svg
   style="fill-opacity:1; color-rendering:auto; color-interpolation:auto; stroke:black; text-rendering:auto; stroke-linecap:square; stroke-miterlimit:10; stroke-opacity:1; shape-rendering:auto; fill:black; stroke-dasharray:none; font-weight:normal; stroke-width:1; font-family:'Dialog'; font-style:normal; stroke-linejoin:miter; font-size:12; stroke-dashoffset:0; image-rendering:auto;"
   width="1041"
   height="434"
   version="1.1"
   id="svg293"
   xmlns="http://www.w3.org/2000/svg"
   xmlns:svg="http://www.w3.org/2000/svg">
  <!--Generated by the Batik Graphics2D SVG Generator-->
  <defs
     id="genericDefs" />
  <g
     id="g291">
    <defs
       id="defs1">
      <clipPath
         clipPathUnits="userSpaceOnUse"
         id="clipPath1">
        <path
           d="M0 0 L1057 0 L1057 450 L0 450 L0 0 Z"
           id="path3" />
      </clipPath>
      <clipPath
         clipPathUnits="userSpaceOnUse"
         id="clipPath2">
        <path
           d="M0 0 L0 200 L200 200 L200 0 Z"
           id="path6" />
      </clipPath>
      <clipPath
         clipPathUnits="userSpaceOnUse"
         id="clipPath3">
        <path
           d="M156 15 L156 36 L167 36 L167 15 Z"
           id="path9" />
      </clipPath>
      <clipPath
         clipPathUnits="userSpaceOnUse"
         id="clipPath4">
        <path
           d="M155.4551 2.918 L166.5449 2.918 L166.5449 18.2305 L155.4551 18.2305 L155.4551 2.918 Z"
           id="path12" />
      </clipPath>
      <clipPath
         clipPathUnits="userSpaceOnUse"
         id="clipPath5">
        <path
           d="M235.7306 156.0689 L235.7306 264.5 L247.6694 264.5 L247.6694 156.0689 Z"
           id="path15" />
      </clipPath>
      <clipPath
         clipPathUnits="userSpaceOnUse"
         id="clipPath6">
        <path
           d="M606.3 217.5 L606.3 274.9 L617.7 274.9 L617.7 217.5 Z"
           id="path18" />
      </clipPath>
      <clipPath
         clipPathUnits="userSpaceOnUse"
         id="clipPath7">
        <path
           d="M719.0306 150.0689 L719.0306 258.5 L730.9694 258.5 L730.9694 150.0689 Z"
           id="path21" />
      </clipPath>
      <clipPath
         clipPathUnits="userSpaceOnUse"
         id="clipPath8">
        <path
           d="M555.5 268.0306 L555.5 279.9694 L670.9312 279.9694 L670.9312 268.0306 Z"
           id="path24" />
      </clipPath>
      <clipPath
         clipPathUnits="userSpaceOnUse"
         id="clipPath9">
        <path
           d="M847.2143 217.4911 L847.2143 274.9008 L858.6143 274.9008 L858.6143 217.4911 Z"
           id="path27" />
      </clipPath>
      <clipPath
         clipPathUnits="userSpaceOnUse"
         id="clipPath10">
        <path
           d="M235.7306 283.5 L235.7306 403.9311 L247.6694 403.9311 L247.6694 283.5 Z"
           id="path30" />
      </clipPath>
      <clipPath
         clipPathUnits="userSpaceOnUse"
         id="clipPath11">
        <path
           d="M291.85 268.0306 L291.85 279.9694 L410.9311 279.9694 L410.9311 268.0306 Z"
           id="path33" />
      </clipPath>
      <clipPath
         clipPathUnits="userSpaceOnUse"
         id="clipPath12">
        <path
           d="M171.5 206.3 L171.5 217.7 L242.6 217.7 L242.6 206.3 Z"
           id="path36" />
      </clipPath>
      <clipPath
         clipPathUnits="userSpaceOnUse"
         id="clipPath13">
        <path
           d="M173.5 325.3 L173.5 336.7 L242.6 336.7 L242.6 325.3 Z"
           id="path39" />
      </clipPath>
      <clipPath
         clipPathUnits="userSpaceOnUse"
         id="clipPath14">
        <path
           d="M782.5 268.0306 L782.5 279.9694 L923.9312 279.9694 L923.9312 268.0306 Z"
           id="path42" />
      </clipPath>
      <clipPath
         clipPathUnits="userSpaceOnUse"
         id="clipPath15">
        <path
           d="M362.605 271 L362.605 292 L373.605 292 L373.605 271 Z"
           id="path45" />
      </clipPath>
      <clipPath
         clipPathUnits="userSpaceOnUse"
         id="clipPath16">
        <path
           d="M362.0601 258.918 L373.1499 258.918 L373.1499 274.2305 L362.0601 274.2305 L362.0601 258.918 Z"
           id="path48" />
      </clipPath>
      <clipPath
         clipPathUnits="userSpaceOnUse"
         id="clipPath17">
        <path
           d="M190.55 263.5 L190.55 284.5 L292.85 284.5 L292.85 263.5 Z"
           id="path51" />
      </clipPath>
      <clipPath
         clipPathUnits="userSpaceOnUse"
         id="clipPath18">
        <path
           d="M666.5 257.5 L666.5 290.5 L783.5 290.5 L783.5 257.5 Z"
           id="path54" />
      </clipPath>
      <clipPath
         clipPathUnits="userSpaceOnUse"
         id="clipPath19">
        <path
           d="M571.5 197.5 L571.5 218.5 L652.5 218.5 L652.5 197.5 Z"
           id="path57" />
      </clipPath>
      <clipPath
         clipPathUnits="userSpaceOnUse"
         id="clipPath20">
        <path
           d="M684.5 133.5 L684.5 154.5 L765.5 154.5 L765.5 133.5 Z"
           id="path60" />
      </clipPath>
      <clipPath
         clipPathUnits="userSpaceOnUse"
         id="clipPath21">
        <path
           d="M190.55 139.5 L190.55 160.5 L292.85 160.5 L292.85 139.5 Z"
           id="path63" />
      </clipPath>
      <clipPath
         clipPathUnits="userSpaceOnUse"
         id="clipPath22">
        <path
           d="M83.5 191.5 L83.5 212.5 L164.5 212.5 L164.5 191.5 Z"
           id="path66" />
      </clipPath>
      <clipPath
         clipPathUnits="userSpaceOnUse"
         id="clipPath23">
        <path
           d="M406.5 257.5 L406.5 290.5 L556.5 290.5 L556.5 257.5 Z"
           id="path69" />
      </clipPath>
      <clipPath
         clipPathUnits="userSpaceOnUse"
         id="clipPath24">
        <path
           d="M919.5 257.5 L919.5 290.5 L1027.5 290.5 L1027.5 257.5 Z"
           id="path72" />
      </clipPath>
      <clipPath
         clipPathUnits="userSpaceOnUse"
         id="clipPath25">
        <path
           d="M811.5 197.5 L811.5 218.5 L892.5 218.5 L892.5 197.5 Z"
           id="path75" />
      </clipPath>
      <clipPath
         clipPathUnits="userSpaceOnUse"
         id="clipPath26">
        <path
           d="M83.5 211.5 L83.5 232.5 L164.5 232.5 L164.5 211.5 Z"
           id="path78" />
      </clipPath>
      <clipPath
         clipPathUnits="userSpaceOnUse"
         id="clipPath27">
        <path
           d="M85.5 310.5 L85.5 331.5 L166.5 331.5 L166.5 310.5 Z"
           id="path81" />
      </clipPath>
      <clipPath
         clipPathUnits="userSpaceOnUse"
         id="clipPath28">
        <path
           d="M85.5 330.5 L85.5 351.5 L166.5 351.5 L166.5 330.5 Z"
           id="path84" />
      </clipPath>
      <clipPath
         clipPathUnits="userSpaceOnUse"
         id="clipPath29">
        <path
           d="M190.55 399.5 L190.55 420.5 L292.85 420.5 L292.85 399.5 Z"
           id="path87" />
      </clipPath>
    </defs>
    <g
       style="fill:white; stroke:white;"
       id="g93">
      <rect
         x="0"
         width="1057"
         height="450"
         y="0"
         style="stroke:none;"
         id="rect91" />
    </g>
    <g
       style="font-weight:bold; font-size:10; text-rendering:geometricPrecision;"
       id="g103">
      <path
         d="M0.0469 4.7031 L6.7656 4.7031 L6.7656 6.125 L4.3438 6.125 L4.3438 12 L2.4688 12 L2.4688 6.125 L0.0469 6.125 L0.0469 4.7031 ZM7.665 6.5312 L9.415 6.5312 L9.415 12 L7.665 12 L7.665 6.5312 ZM7.665 4.4062 L9.415 4.4062 L9.415 5.8281 L7.665 5.8281 L7.665 4.4062 ZM12.999 4.9844 L12.999 6.5312 L14.7959 6.5312 L14.7959 7.7812 L12.999 7.7812 L12.999 10.0938 Q12.999 10.4844 13.1475 10.6172 Q13.2959 10.75 13.749 10.75 L14.6553 10.75 L14.6553 12 L13.1553 12 Q12.1084 12 11.6787 11.5703 Q11.249 11.1406 11.249 10.0938 L11.249 7.7812 L10.374 7.7812 L10.374 6.5312 L11.249 6.5312 L11.249 4.9844 L12.999 4.9844 ZM15.873 4.4062 L17.623 4.4062 L17.623 12 L15.873 12 L15.873 4.4062 ZM24.7539 9.25 L24.7539 9.75 L20.6758 9.75 Q20.7383 10.3594 21.1133 10.6719 Q21.4883 10.9844 22.1758 10.9844 Q22.7227 10.9844 23.3086 10.8203 Q23.8945 10.6562 24.5039 10.3125 L24.5039 11.6719 Q23.8789 11.9062 23.2617 12.0234 Q22.6445 12.1406 22.0195 12.1406 Q20.5352 12.1406 19.7148 11.3828 Q18.8945 10.625 18.8945 9.2656 Q18.8945 7.9375 19.6992 7.1719 Q20.5039 6.4062 21.9258 6.4062 Q23.207 6.4062 23.9805 7.1797 Q24.7539 7.9531 24.7539 9.25 ZM22.957 8.6719 Q22.957 8.1719 22.668 7.8672 Q22.3789 7.5625 21.9102 7.5625 Q21.3945 7.5625 21.082 7.8438 Q20.7695 8.125 20.6914 8.6719 L22.957 8.6719 ZM26.3643 6.5312 L28.1143 6.5312 L28.1143 8.4219 L26.3643 8.4219 L26.3643 6.5312 ZM26.3643 10.1094 L28.1143 10.1094 L28.1143 12 L26.3643 12 L26.3643 10.1094 Z"
         style="clip-path:url(#clipPath2); stroke:none;"
         clip-path="url(#clipPath2)"
         id="path95" />
      <path
         d="M38.9844 4.7031 L43.1719 4.7031 L43.1719 5.5469 L39.9688 5.5469 L39.9688 7.6875 L42.8594 7.6875 L42.8594 8.5156 L39.9688 8.5156 L39.9688 12 L38.9844 12 L38.9844 4.7031 ZM49.377 9.0469 L49.377 9.4844 L45.2363 9.4844 Q45.2988 10.4062 45.7988 10.8906 Q46.2988 11.375 47.1895 11.375 Q47.7051 11.375 48.1973 11.25 Q48.6895 11.125 49.1582 10.875 L49.1582 11.7188 Q48.6738 11.9219 48.166 12.0312 Q47.6582 12.1406 47.1426 12.1406 Q45.8301 12.1406 45.0645 11.3828 Q44.2988 10.625 44.2988 9.3125 Q44.2988 7.9688 45.0254 7.1875 Q45.752 6.4062 46.9863 6.4062 Q48.0957 6.4062 48.7363 7.1094 Q49.377 7.8125 49.377 9.0469 ZM48.4707 8.7812 Q48.4707 8.0469 48.0645 7.6016 Q47.6582 7.1562 47.002 7.1562 Q46.2363 7.1562 45.791 7.5859 Q45.3457 8.0156 45.2676 8.7812 L48.4707 8.7812 ZM50.8418 4.4062 L51.748 4.4062 L51.748 12 L50.8418 12 L50.8418 4.4062 ZM57.5576 9.2656 Q57.5576 8.2812 57.1436 7.7188 Q56.7295 7.1562 56.0264 7.1562 Q55.3076 7.1562 54.9014 7.7188 Q54.4951 8.2812 54.4951 9.2656 Q54.4951 10.2656 54.9014 10.8281 Q55.3076 11.3906 56.0264 11.3906 Q56.7295 11.3906 57.1436 10.8281 Q57.5576 10.2656 57.5576 9.2656 ZM54.4951 7.3594 Q54.7764 6.875 55.2061 6.6406 Q55.6357 6.4062 56.2451 6.4062 Q57.2451 6.4062 57.8623 7.1953 Q58.4795 7.9844 58.4795 9.2656 Q58.4795 10.5625 57.8623 11.3516 Q57.2451 12.1406 56.2451 12.1406 Q55.6357 12.1406 55.2061 11.9062 Q54.7764 11.6719 54.4951 11.1719 L54.4951 12 L53.5889 12 L53.5889 4.4062 L54.4951 4.4062 L54.4951 7.3594 ZM62.4521 9.25 Q61.374 9.25 60.9521 9.5 Q60.5303 9.75 60.5303 10.3438 Q60.5303 10.8281 60.8428 11.1094 Q61.1553 11.3906 61.7021 11.3906 Q62.4521 11.3906 62.9053 10.8594 Q63.3584 10.3281 63.3584 9.4531 L63.3584 9.25 L62.4521 9.25 ZM64.249 8.875 L64.249 12 L63.3584 12 L63.3584 11.1719 Q63.0459 11.6719 62.585 11.9062 Q62.124 12.1406 61.4678 12.1406 Q60.624 12.1406 60.124 11.6719 Q59.624 11.2031 59.624 10.4062 Q59.624 9.4844 60.249 9.0156 Q60.874 8.5469 62.0928 8.5469 L63.3584 8.5469 L63.3584 8.4531 Q63.3584 7.8438 62.9443 7.5 Q62.5303 7.1562 61.7959 7.1562 Q61.3271 7.1562 60.8818 7.2734 Q60.4365 7.3906 60.0303 7.6094 L60.0303 6.7812 Q60.5303 6.5938 60.9912 6.5 Q61.4521 6.4062 61.8896 6.4062 Q63.0771 6.4062 63.6631 7.0156 Q64.249 7.625 64.249 8.875 ZM70.3613 7.5781 Q70.6895 6.9688 71.1582 6.6875 Q71.627 6.4062 72.2676 6.4062 Q73.127 6.4062 73.5879 7 Q74.0488 7.5938 74.0488 8.7031 L74.0488 12 L73.1426 12 L73.1426 8.7344 Q73.1426 7.9375 72.8691 7.5625 Q72.5957 7.1875 72.0176 7.1875 Q71.3145 7.1875 70.916 7.6484 Q70.5176 8.1094 70.5176 8.9062 L70.5176 12 L69.6113 12 L69.6113 8.7344 Q69.6113 7.9375 69.3301 7.5625 Q69.0488 7.1875 68.4707 7.1875 Q67.7832 7.1875 67.377 7.6484 Q66.9707 8.1094 66.9707 8.9062 L66.9707 12 L66.0645 12 L66.0645 6.5312 L66.9707 6.5312 L66.9707 7.375 Q67.2832 6.875 67.7129 6.6406 Q68.1426 6.4062 68.7207 6.4062 Q69.3301 6.4062 69.7441 6.7031 Q70.1582 7 70.3613 7.5781 ZM78.3213 9.25 Q77.2432 9.25 76.8213 9.5 Q76.3994 9.75 76.3994 10.3438 Q76.3994 10.8281 76.7119 11.1094 Q77.0244 11.3906 77.5713 11.3906 Q78.3213 11.3906 78.7744 10.8594 Q79.2275 10.3281 79.2275 9.4531 L79.2275 9.25 L78.3213 9.25 ZM80.1182 8.875 L80.1182 12 L79.2275 12 L79.2275 11.1719 Q78.915 11.6719 78.4541 11.9062 Q77.9932 12.1406 77.3369 12.1406 Q76.4932 12.1406 75.9932 11.6719 Q75.4932 11.2031 75.4932 10.4062 Q75.4932 9.4844 76.1182 9.0156 Q76.7432 8.5469 77.9619 8.5469 L79.2275 8.5469 L79.2275 8.4531 Q79.2275 7.8438 78.8135 7.5 Q78.3994 7.1562 77.665 7.1562 Q77.1963 7.1562 76.751 7.2734 Q76.3057 7.3906 75.8994 7.6094 L75.8994 6.7812 Q76.3994 6.5938 76.8604 6.5 Q77.3213 6.4062 77.7588 6.4062 Q78.9463 6.4062 79.5322 7.0156 Q80.1182 7.625 80.1182 8.875 ZM82.8555 4.9844 L82.8555 6.5312 L84.7148 6.5312 L84.7148 7.2344 L82.8555 7.2344 L82.8555 10.2031 Q82.8555 10.8594 83.043 11.0547 Q83.2305 11.25 83.793 11.25 L84.7148 11.25 L84.7148 12 L83.793 12 Q82.7461 12 82.3477 11.6094 Q81.9492 11.2188 81.9492 10.2031 L81.9492 7.2344 L81.293 7.2344 L81.293 6.5312 L81.9492 6.5312 L81.9492 4.9844 L82.8555 4.9844 ZM90.5732 9.0469 L90.5732 9.4844 L86.4326 9.4844 Q86.4951 10.4062 86.9951 10.8906 Q87.4951 11.375 88.3857 11.375 Q88.9014 11.375 89.3936 11.25 Q89.8857 11.125 90.3545 10.875 L90.3545 11.7188 Q89.8701 11.9219 89.3623 12.0312 Q88.8545 12.1406 88.3389 12.1406 Q87.0264 12.1406 86.2607 11.3828 Q85.4951 10.625 85.4951 9.3125 Q85.4951 7.9688 86.2217 7.1875 Q86.9482 6.4062 88.1826 6.4062 Q89.292 6.4062 89.9326 7.1094 Q90.5732 7.8125 90.5732 9.0469 ZM89.667 8.7812 Q89.667 8.0469 89.2607 7.6016 Q88.8545 7.1562 88.1982 7.1562 Q87.4326 7.1562 86.9873 7.5859 Q86.542 8.0156 86.4639 8.7812 L89.667 8.7812 ZM99.4824 7.5781 Q99.8105 6.9688 100.2793 6.6875 Q100.748 6.4062 101.3887 6.4062 Q102.248 6.4062 102.709 7 Q103.1699 7.5938 103.1699 8.7031 L103.1699 12 L102.2637 12 L102.2637 8.7344 Q102.2637 7.9375 101.9902 7.5625 Q101.7168 7.1875 101.1387 7.1875 Q100.4355 7.1875 100.0371 7.6484 Q99.6387 8.1094 99.6387 8.9062 L99.6387 12 L98.7324 12 L98.7324 8.7344 Q98.7324 7.9375 98.4512 7.5625 Q98.1699 7.1875 97.5918 7.1875 Q96.9043 7.1875 96.498 7.6484 Q96.0918 8.1094 96.0918 8.9062 L96.0918 12 L95.1855 12 L95.1855 6.5312 L96.0918 6.5312 L96.0918 7.375 Q96.4043 6.875 96.834 6.6406 Q97.2637 6.4062 97.8418 6.4062 Q98.4512 6.4062 98.8652 6.7031 Q99.2793 7 99.4824 7.5781 ZM109.6455 9.0469 L109.6455 9.4844 L105.5049 9.4844 Q105.5674 10.4062 106.0674 10.8906 Q106.5674 11.375 107.458 11.375 Q107.9736 11.375 108.4658 11.25 Q108.958 11.125 109.4268 10.875 L109.4268 11.7188 Q108.9424 11.9219 108.4346 12.0312 Q107.9268 12.1406 107.4111 12.1406 Q106.0986 12.1406 105.333 11.3828 Q104.5674 10.625 104.5674 9.3125 Q104.5674 7.9688 105.2939 7.1875 Q106.0205 6.4062 107.2549 6.4062 Q108.3643 6.4062 109.0049 7.1094 Q109.6455 7.8125 109.6455 9.0469 ZM108.7393 8.7812 Q108.7393 8.0469 108.333 7.6016 Q107.9268 7.1562 107.2705 7.1562 Q106.5049 7.1562 106.0596 7.5859 Q105.6143 8.0156 105.5361 8.7812 L108.7393 8.7812 ZM112.001 4.9844 L112.001 6.5312 L113.8604 6.5312 L113.8604 7.2344 L112.001 7.2344 L112.001 10.2031 Q112.001 10.8594 112.1885 11.0547 Q112.376 11.25 112.9385 11.25 L113.8604 11.25 L113.8604 12 L112.9385 12 Q111.8916 12 111.4932 11.6094 Q111.0947 11.2188 111.0947 10.2031 L111.0947 7.2344 L110.4385 7.2344 L110.4385 6.5312 L111.0947 6.5312 L111.0947 4.9844 L112.001 4.9844 ZM117.5156 9.25 Q116.4375 9.25 116.0156 9.5 Q115.5938 9.75 115.5938 10.3438 Q115.5938 10.8281 115.9062 11.1094 Q116.2188 11.3906 116.7656 11.3906 Q117.5156 11.3906 117.9688 10.8594 Q118.4219 10.3281 118.4219 9.4531 L118.4219 9.25 L117.5156 9.25 ZM119.3125 8.875 L119.3125 12 L118.4219 12 L118.4219 11.1719 Q118.1094 11.6719 117.6484 11.9062 Q117.1875 12.1406 116.5312 12.1406 Q115.6875 12.1406 115.1875 11.6719 Q114.6875 11.2031 114.6875 10.4062 Q114.6875 9.4844 115.3125 9.0156 Q115.9375 8.5469 117.1562 8.5469 L118.4219 8.5469 L118.4219 8.4531 Q118.4219 7.8438 118.0078 7.5 Q117.5938 7.1562 116.8594 7.1562 Q116.3906 7.1562 115.9453 7.2734 Q115.5 7.3906 115.0938 7.6094 L115.0938 6.7812 Q115.5938 6.5938 116.0547 6.5 Q116.5156 6.4062 116.9531 6.4062 Q118.1406 6.4062 118.7266 7.0156 Q119.3125 7.625 119.3125 8.875 ZM125.0967 9.2656 Q125.0967 8.2812 124.6826 7.7188 Q124.2686 7.1562 123.5654 7.1562 Q122.8467 7.1562 122.4404 7.7188 Q122.0342 8.2812 122.0342 9.2656 Q122.0342 10.2656 122.4404 10.8281 Q122.8467 11.3906 123.5654 11.3906 Q124.2686 11.3906 124.6826 10.8281 Q125.0967 10.2656 125.0967 9.2656 ZM122.0342 7.3594 Q122.3154 6.875 122.7451 6.6406 Q123.1748 6.4062 123.7842 6.4062 Q124.7842 6.4062 125.4014 7.1953 Q126.0186 7.9844 126.0186 9.2656 Q126.0186 10.5625 125.4014 11.3516 Q124.7842 12.1406 123.7842 12.1406 Q123.1748 12.1406 122.7451 11.9062 Q122.3154 11.6719 122.0342 11.1719 L122.0342 12 L121.1279 12 L121.1279 4.4062 L122.0342 4.4062 L122.0342 7.3594 ZM129.6318 7.1562 Q128.9131 7.1562 128.4912 7.7188 Q128.0693 8.2812 128.0693 9.2656 Q128.0693 10.25 128.4834 10.8125 Q128.8975 11.375 129.6318 11.375 Q130.3506 11.375 130.7725 10.8125 Q131.1943 10.25 131.1943 9.2656 Q131.1943 8.2969 130.7725 7.7266 Q130.3506 7.1562 129.6318 7.1562 ZM129.6318 6.4062 Q130.8037 6.4062 131.4756 7.1641 Q132.1475 7.9219 132.1475 9.2656 Q132.1475 10.6094 131.4756 11.375 Q130.8037 12.1406 129.6318 12.1406 Q128.46 12.1406 127.7881 11.375 Q127.1162 10.6094 127.1162 9.2656 Q127.1162 7.9219 127.7881 7.1641 Q128.46 6.4062 129.6318 6.4062 ZM133.625 4.4062 L134.5312 4.4062 L134.5312 12 L133.625 12 L133.625 4.4062 ZM136.4033 6.5312 L137.3096 6.5312 L137.3096 12 L136.4033 12 L136.4033 6.5312 ZM136.4033 4.4062 L137.3096 4.4062 L137.3096 5.5469 L136.4033 5.5469 L136.4033 4.4062 ZM142.666 6.6875 L142.666 7.5469 Q142.291 7.3438 141.8848 7.25 Q141.4785 7.1562 141.0254 7.1562 Q140.3691 7.1562 140.0332 7.3594 Q139.6973 7.5625 139.6973 7.9688 Q139.6973 8.2812 139.9316 8.4609 Q140.166 8.6406 140.9004 8.7969 L141.1973 8.875 Q142.166 9.0781 142.5645 9.4531 Q142.9629 9.8281 142.9629 10.4844 Q142.9629 11.25 142.3613 11.6953 Q141.7598 12.1406 140.7129 12.1406 Q140.2598 12.1406 139.7832 12.0547 Q139.3066 11.9688 138.791 11.7969 L138.791 10.875 Q139.291 11.125 139.7676 11.2578 Q140.2441 11.3906 140.7285 11.3906 Q141.3535 11.3906 141.6973 11.1719 Q142.041 10.9531 142.041 10.5625 Q142.041 10.1875 141.7988 9.9922 Q141.5566 9.7969 140.7129 9.625 L140.4004 9.5469 Q139.5723 9.375 139.1973 9.0078 Q138.8223 8.6406 138.8223 8.0156 Q138.8223 7.2344 139.3691 6.8203 Q139.916 6.4062 140.9316 6.4062 Q141.416 6.4062 141.8613 6.4766 Q142.3066 6.5469 142.666 6.6875 ZM148.6572 7.5781 Q148.9854 6.9688 149.4541 6.6875 Q149.9229 6.4062 150.5635 6.4062 Q151.4229 6.4062 151.8838 7 Q152.3447 7.5938 152.3447 8.7031 L152.3447 12 L151.4385 12 L151.4385 8.7344 Q151.4385 7.9375 151.165 7.5625 Q150.8916 7.1875 150.3135 7.1875 Q149.6104 7.1875 149.2119 7.6484 Q148.8135 8.1094 148.8135 8.9062 L148.8135 12 L147.9072 12 L147.9072 8.7344 Q147.9072 7.9375 147.626 7.5625 Q147.3447 7.1875 146.7666 7.1875 Q146.0791 7.1875 145.6729 7.6484 Q145.2666 8.1094 145.2666 8.9062 L145.2666 12 L144.3604 12 L144.3604 6.5312 L145.2666 6.5312 L145.2666 7.375 Q145.5791 6.875 146.0088 6.6406 Q146.4385 6.4062 147.0166 6.4062 Q147.626 6.4062 148.04 6.7031 Q148.4541 7 148.6572 7.5781 Z"
         style="clip-path:url(#clipPath2); stroke:none;"
         clip-path="url(#clipPath2)"
         id="path97" />
      <path
         d="M4.25 19.9375 Q3.3906 19.9375 2.9141 20.5703 Q2.4375 21.2031 2.4375 22.3594 Q2.4375 23.5156 2.9141 24.1484 Q3.3906 24.7812 4.25 24.7812 Q5.1094 24.7812 5.5859 24.1484 Q6.0625 23.5156 6.0625 22.3594 Q6.0625 21.2031 5.5859 20.5703 Q5.1094 19.9375 4.25 19.9375 ZM4.25 18.5781 Q6 18.5781 7 19.5859 Q8 20.5938 8 22.3594 Q8 24.125 7 25.1328 Q6 26.1406 4.25 26.1406 Q2.5 26.1406 1.5 25.1328 Q0.5 24.125 0.5 22.3594 Q0.5 20.5938 1.5 19.5859 Q2.5 18.5781 4.25 18.5781 ZM13.4072 22.0156 Q13.1729 21.9062 12.9463 21.8594 Q12.7197 21.8125 12.4854 21.8125 Q11.8135 21.8125 11.4541 22.2422 Q11.0947 22.6719 11.0947 23.4844 L11.0947 26 L9.3447 26 L9.3447 20.5312 L11.0947 20.5312 L11.0947 21.4219 Q11.4229 20.8906 11.8604 20.6484 Q12.2979 20.4062 12.9072 20.4062 Q13.001 20.4062 13.1025 20.4062 Q13.2041 20.4062 13.3916 20.4375 L13.4072 22.0156 ZM17.9951 25.0781 Q17.6357 25.5469 17.1982 25.7734 Q16.7607 26 16.1982 26 Q15.1982 26 14.542 25.2109 Q13.8857 24.4219 13.8857 23.2031 Q13.8857 21.9688 14.542 21.1875 Q15.1982 20.4062 16.1982 20.4062 Q16.7607 20.4062 17.1982 20.6328 Q17.6357 20.8594 17.9951 21.3438 L17.9951 20.5312 L19.7451 20.5312 L19.7451 25.4531 Q19.7451 26.7656 18.917 27.4609 Q18.0889 28.1562 16.5107 28.1562 Q15.9951 28.1562 15.5186 28.0781 Q15.042 28 14.5576 27.8438 L14.5576 26.4844 Q15.0107 26.75 15.4482 26.875 Q15.8857 27 16.3389 27 Q17.1982 27 17.5967 26.625 Q17.9951 26.25 17.9951 25.4531 L17.9951 25.0781 ZM16.8389 21.6719 Q16.292 21.6719 15.9951 22.0703 Q15.6982 22.4688 15.6982 23.2031 Q15.6982 23.9531 15.9873 24.3438 Q16.2764 24.7344 16.8389 24.7344 Q17.3857 24.7344 17.6904 24.3281 Q17.9951 23.9219 17.9951 23.2031 Q17.9951 22.4688 17.6904 22.0703 Q17.3857 21.6719 16.8389 21.6719 ZM23.8877 23.5312 Q23.3408 23.5312 23.0596 23.7188 Q22.7783 23.9062 22.7783 24.2656 Q22.7783 24.6094 23.0049 24.7969 Q23.2314 24.9844 23.6221 24.9844 Q24.1221 24.9844 24.458 24.625 Q24.7939 24.2656 24.7939 23.7344 L24.7939 23.5312 L23.8877 23.5312 ZM26.5596 22.875 L26.5596 26 L24.7939 26 L24.7939 25.1875 Q24.4346 25.6875 23.9971 25.9141 Q23.5596 26.1406 22.9346 26.1406 Q22.0752 26.1406 21.5518 25.6484 Q21.0283 25.1562 21.0283 24.3594 Q21.0283 23.3906 21.6846 22.9453 Q22.3408 22.5 23.7627 22.5 L24.7939 22.5 L24.7939 22.3594 Q24.7939 21.9531 24.4658 21.7578 Q24.1377 21.5625 23.4502 21.5625 Q22.8877 21.5625 22.4033 21.6719 Q21.9189 21.7812 21.4971 22.0156 L21.4971 20.6719 Q22.0596 20.5469 22.6299 20.4766 Q23.2002 20.4062 23.7627 20.4062 Q25.2471 20.4062 25.9033 20.9844 Q26.5596 21.5625 26.5596 22.875 ZM33.6826 22.6719 L33.6826 26 L31.917 26 L31.917 25.4531 L31.917 23.4531 Q31.917 22.75 31.8857 22.4766 Q31.8545 22.2031 31.7764 22.0781 Q31.6826 21.9062 31.5029 21.8125 Q31.3232 21.7188 31.1045 21.7188 Q30.5576 21.7188 30.2451 22.1406 Q29.9326 22.5625 29.9326 23.3125 L29.9326 26 L28.1826 26 L28.1826 20.5312 L29.9326 20.5312 L29.9326 21.3281 Q30.3232 20.8594 30.7686 20.6328 Q31.2139 20.4062 31.7451 20.4062 Q32.6982 20.4062 33.1904 20.9844 Q33.6826 21.5625 33.6826 22.6719 ZM35.3018 20.5312 L37.0518 20.5312 L37.0518 26 L35.3018 26 L35.3018 20.5312 ZM35.3018 18.4062 L37.0518 18.4062 L37.0518 19.8281 L35.3018 19.8281 L35.3018 18.4062 ZM42.9951 20.7031 L42.9951 22.0312 Q42.4326 21.7969 41.9092 21.6797 Q41.3857 21.5625 40.9326 21.5625 Q40.4326 21.5625 40.1904 21.6875 Q39.9482 21.8125 39.9482 22.0625 Q39.9482 22.2812 40.1279 22.3906 Q40.3076 22.5 40.792 22.5625 L41.0889 22.5938 Q42.4326 22.7656 42.9014 23.1562 Q43.3701 23.5469 43.3701 24.3906 Q43.3701 25.2656 42.7217 25.7031 Q42.0732 26.1406 40.792 26.1406 Q40.2607 26.1406 39.6826 26.0547 Q39.1045 25.9688 38.4795 25.7969 L38.4795 24.4688 Q39.0107 24.7188 39.5576 24.8516 Q40.1045 24.9844 40.667 24.9844 Q41.1826 24.9844 41.4404 24.8438 Q41.6982 24.7031 41.6982 24.4219 Q41.6982 24.1875 41.5264 24.0703 Q41.3545 23.9531 40.8232 23.8906 L40.5107 23.8438 Q39.3389 23.7031 38.8701 23.3047 Q38.4014 22.9062 38.4014 22.1094 Q38.4014 21.2344 38.9951 20.8203 Q39.5889 20.4062 40.8232 20.4062 Q41.3076 20.4062 41.8389 20.4766 Q42.3701 20.5469 42.9951 20.7031 ZM49.7441 21.4375 Q50.0723 20.9375 50.5332 20.6719 Q50.9941 20.4062 51.541 20.4062 Q52.4785 20.4062 52.9707 20.9844 Q53.4629 21.5625 53.4629 22.6719 L53.4629 26 L51.7129 26 L51.7129 23.1406 Q51.7129 23.0781 51.7129 23.0156 Q51.7129 22.9531 51.7129 22.8281 Q51.7129 22.2344 51.5488 21.9766 Q51.3848 21.7188 50.9941 21.7188 Q50.4941 21.7188 50.2285 22.125 Q49.9629 22.5312 49.9473 23.3125 L49.9473 26 L48.1816 26 L48.1816 23.1406 Q48.1816 22.2344 48.0254 21.9766 Q47.8691 21.7188 47.4785 21.7188 Q46.9785 21.7188 46.7051 22.1328 Q46.4316 22.5469 46.4316 23.3125 L46.4316 26 L44.666 26 L44.666 20.5312 L46.4316 20.5312 L46.4316 21.3281 Q46.7441 20.875 47.166 20.6406 Q47.5879 20.4062 48.0879 20.4062 Q48.6504 20.4062 49.0879 20.6797 Q49.5254 20.9531 49.7441 21.4375 ZM55.3828 20.5312 L57.1328 20.5312 L57.1328 22.4219 L55.3828 22.4219 L55.3828 20.5312 ZM55.3828 24.1094 L57.1328 24.1094 L57.1328 26 L55.3828 26 L55.3828 24.1094 Z"
         style="clip-path:url(#clipPath2); stroke:none;"
         clip-path="url(#clipPath2)"
         id="path99" />
      <path
         d="M66.9844 18.7031 L67.9688 18.7031 L67.9688 21.7031 L71.5469 21.7031 L71.5469 18.7031 L72.5312 18.7031 L72.5312 26 L71.5469 26 L71.5469 22.5312 L67.9688 22.5312 L67.9688 26 L66.9844 26 L66.9844 18.7031 ZM76.582 21.1562 Q75.8633 21.1562 75.4414 21.7188 Q75.0195 22.2812 75.0195 23.2656 Q75.0195 24.25 75.4336 24.8125 Q75.8477 25.375 76.582 25.375 Q77.3008 25.375 77.7227 24.8125 Q78.1445 24.25 78.1445 23.2656 Q78.1445 22.2969 77.7227 21.7266 Q77.3008 21.1562 76.582 21.1562 ZM76.582 20.4062 Q77.7539 20.4062 78.4258 21.1641 Q79.0977 21.9219 79.0977 23.2656 Q79.0977 24.6094 78.4258 25.375 Q77.7539 26.1406 76.582 26.1406 Q75.4102 26.1406 74.7383 25.375 Q74.0664 24.6094 74.0664 23.2656 Q74.0664 21.9219 74.7383 21.1641 Q75.4102 20.4062 76.582 20.4062 ZM84.8408 21.5781 Q85.1689 20.9688 85.6377 20.6875 Q86.1064 20.4062 86.7471 20.4062 Q87.6064 20.4062 88.0674 21 Q88.5283 21.5938 88.5283 22.7031 L88.5283 26 L87.6221 26 L87.6221 22.7344 Q87.6221 21.9375 87.3486 21.5625 Q87.0752 21.1875 86.4971 21.1875 Q85.7939 21.1875 85.3955 21.6484 Q84.9971 22.1094 84.9971 22.9062 L84.9971 26 L84.0908 26 L84.0908 22.7344 Q84.0908 21.9375 83.8096 21.5625 Q83.5283 21.1875 82.9502 21.1875 Q82.2627 21.1875 81.8564 21.6484 Q81.4502 22.1094 81.4502 22.9062 L81.4502 26 L80.5439 26 L80.5439 20.5312 L81.4502 20.5312 L81.4502 21.375 Q81.7627 20.875 82.1924 20.6406 Q82.6221 20.4062 83.2002 20.4062 Q83.8096 20.4062 84.2236 20.7031 Q84.6377 21 84.8408 21.5781 ZM92.4414 21.1562 Q91.7227 21.1562 91.3008 21.7188 Q90.8789 22.2812 90.8789 23.2656 Q90.8789 24.25 91.293 24.8125 Q91.707 25.375 92.4414 25.375 Q93.1602 25.375 93.582 24.8125 Q94.0039 24.25 94.0039 23.2656 Q94.0039 22.2969 93.582 21.7266 Q93.1602 21.1562 92.4414 21.1562 ZM92.4414 20.4062 Q93.6133 20.4062 94.2852 21.1641 Q94.957 21.9219 94.957 23.2656 Q94.957 24.6094 94.2852 25.375 Q93.6133 26.1406 92.4414 26.1406 Q91.2695 26.1406 90.5977 25.375 Q89.9258 24.6094 89.9258 23.2656 Q89.9258 21.9219 90.5977 21.1641 Q91.2695 20.4062 92.4414 20.4062 ZM103.0977 20.6875 L103.0977 21.5469 Q102.7227 21.3438 102.3164 21.25 Q101.9102 21.1562 101.457 21.1562 Q100.8008 21.1562 100.4648 21.3594 Q100.1289 21.5625 100.1289 21.9688 Q100.1289 22.2812 100.3633 22.4609 Q100.5977 22.6406 101.332 22.7969 L101.6289 22.875 Q102.5977 23.0781 102.9961 23.4531 Q103.3945 23.8281 103.3945 24.4844 Q103.3945 25.25 102.793 25.6953 Q102.1914 26.1406 101.1445 26.1406 Q100.6914 26.1406 100.2148 26.0547 Q99.7383 25.9688 99.2227 25.7969 L99.2227 24.875 Q99.7227 25.125 100.1992 25.2578 Q100.6758 25.3906 101.1602 25.3906 Q101.7852 25.3906 102.1289 25.1719 Q102.4727 24.9531 102.4727 24.5625 Q102.4727 24.1875 102.2305 23.9922 Q101.9883 23.7969 101.1445 23.625 L100.832 23.5469 Q100.0039 23.375 99.6289 23.0078 Q99.2539 22.6406 99.2539 22.0156 Q99.2539 21.2344 99.8008 20.8203 Q100.3477 20.4062 101.3633 20.4062 Q101.8477 20.4062 102.293 20.4766 Q102.7383 20.5469 103.0977 20.6875 ZM107.3076 23.25 Q106.2295 23.25 105.8076 23.5 Q105.3857 23.75 105.3857 24.3438 Q105.3857 24.8281 105.6982 25.1094 Q106.0107 25.3906 106.5576 25.3906 Q107.3076 25.3906 107.7607 24.8594 Q108.2139 24.3281 108.2139 23.4531 L108.2139 23.25 L107.3076 23.25 ZM109.1045 22.875 L109.1045 26 L108.2139 26 L108.2139 25.1719 Q107.9014 25.6719 107.4404 25.9062 Q106.9795 26.1406 106.3232 26.1406 Q105.4795 26.1406 104.9795 25.6719 Q104.4795 25.2031 104.4795 24.4062 Q104.4795 23.4844 105.1045 23.0156 Q105.7295 22.5469 106.9482 22.5469 L108.2139 22.5469 L108.2139 22.4531 Q108.2139 21.8438 107.7998 21.5 Q107.3857 21.1562 106.6514 21.1562 Q106.1826 21.1562 105.7373 21.2734 Q105.292 21.3906 104.8857 21.6094 L104.8857 20.7812 Q105.3857 20.5938 105.8467 20.5 Q106.3076 20.4062 106.7451 20.4062 Q107.9326 20.4062 108.5186 21.0156 Q109.1045 21.625 109.1045 22.875 ZM111.8262 25.1719 L111.8262 28.0781 L110.9199 28.0781 L110.9199 20.5312 L111.8262 20.5312 L111.8262 21.3594 Q112.1074 20.875 112.5371 20.6406 Q112.9668 20.4062 113.5762 20.4062 Q114.5762 20.4062 115.1934 21.1953 Q115.8105 21.9844 115.8105 23.2656 Q115.8105 24.5625 115.1934 25.3516 Q114.5762 26.1406 113.5762 26.1406 Q112.9668 26.1406 112.5371 25.9062 Q112.1074 25.6719 111.8262 25.1719 ZM114.8887 23.2656 Q114.8887 22.2812 114.4746 21.7188 Q114.0605 21.1562 113.3574 21.1562 Q112.6387 21.1562 112.2324 21.7188 Q111.8262 22.2812 111.8262 23.2656 Q111.8262 24.2656 112.2324 24.8281 Q112.6387 25.3906 113.3574 25.3906 Q114.0605 25.3906 114.4746 24.8281 Q114.8887 24.2656 114.8887 23.2656 ZM117.2988 20.5312 L118.2051 20.5312 L118.2051 26 L117.2988 26 L117.2988 20.5312 ZM117.2988 18.4062 L118.2051 18.4062 L118.2051 19.5469 L117.2988 19.5469 L117.2988 18.4062 ZM124.7646 23.0469 L124.7646 23.4844 L120.624 23.4844 Q120.6865 24.4062 121.1865 24.8906 Q121.6865 25.375 122.5771 25.375 Q123.0928 25.375 123.585 25.25 Q124.0771 25.125 124.5459 24.875 L124.5459 25.7188 Q124.0615 25.9219 123.5537 26.0312 Q123.0459 26.1406 122.5303 26.1406 Q121.2178 26.1406 120.4521 25.3828 Q119.6865 24.625 119.6865 23.3125 Q119.6865 21.9688 120.4131 21.1875 Q121.1396 20.4062 122.374 20.4062 Q123.4834 20.4062 124.124 21.1094 Q124.7646 21.8125 124.7646 23.0469 ZM123.8584 22.7812 Q123.8584 22.0469 123.4521 21.6016 Q123.0459 21.1562 122.3896 21.1562 Q121.624 21.1562 121.1787 21.5859 Q120.7334 22.0156 120.6553 22.7812 L123.8584 22.7812 ZM130.7764 22.7031 L130.7764 26 L129.8857 26 L129.8857 22.7344 Q129.8857 21.9531 129.5811 21.5703 Q129.2764 21.1875 128.667 21.1875 Q127.9482 21.1875 127.5264 21.6484 Q127.1045 22.1094 127.1045 22.9062 L127.1045 26 L126.1982 26 L126.1982 20.5312 L127.1045 20.5312 L127.1045 21.375 Q127.4326 20.8906 127.8701 20.6484 Q128.3076 20.4062 128.8701 20.4062 Q129.8076 20.4062 130.292 20.9844 Q130.7764 21.5625 130.7764 22.7031 ZM136.0518 20.6875 L136.0518 21.5469 Q135.6768 21.3438 135.2705 21.25 Q134.8643 21.1562 134.4111 21.1562 Q133.7549 21.1562 133.4189 21.3594 Q133.083 21.5625 133.083 21.9688 Q133.083 22.2812 133.3174 22.4609 Q133.5518 22.6406 134.2861 22.7969 L134.583 22.875 Q135.5518 23.0781 135.9502 23.4531 Q136.3486 23.8281 136.3486 24.4844 Q136.3486 25.25 135.7471 25.6953 Q135.1455 26.1406 134.0986 26.1406 Q133.6455 26.1406 133.1689 26.0547 Q132.6924 25.9688 132.1768 25.7969 L132.1768 24.875 Q132.6768 25.125 133.1533 25.2578 Q133.6299 25.3906 134.1143 25.3906 Q134.7393 25.3906 135.083 25.1719 Q135.4268 24.9531 135.4268 24.5625 Q135.4268 24.1875 135.1846 23.9922 Q134.9424 23.7969 134.0986 23.625 L133.7861 23.5469 Q132.958 23.375 132.583 23.0078 Q132.208 22.6406 132.208 22.0156 Q132.208 21.2344 132.7549 20.8203 Q133.3018 20.4062 134.3174 20.4062 Q134.8018 20.4062 135.2471 20.4766 Q135.6924 20.5469 136.0518 20.6875 Z"
         style="clip-path:url(#clipPath2); stroke:none;"
         clip-path="url(#clipPath2)"
         id="path101" />
    </g>
    <g
       style="fill:navy; text-rendering:geometricPrecision; font-size:8; stroke:navy;"
       id="g107">
      <text
         x="158"
         xml:space="preserve"
         y="15"
         style="clip-path:url(#clipPath4); stroke:none;"
         clip-path="url(#clipPath4)"
         id="text105">2</text>
    </g>
    <g
       style="text-rendering:geometricPrecision;"
       id="g113">
      <path
         d="M241.7 264 L241.7 169"
         style="fill:none; clip-path:url(#clipPath5);"
         clip-path="url(#clipPath5)"
         id="path109" />
      <path
         d="M236.5 169 L241.7 157.3 L246.9 169 Z"
         style="clip-path:url(#clipPath5); stroke:none;"
         clip-path="url(#clipPath5)"
         id="path111" />
    </g>
    <g
       style="text-rendering:geometricPrecision;"
       id="g121">
      <path
         d="M612 218 L612 264"
         style="fill:none; clip-path:url(#clipPath6);"
         clip-path="url(#clipPath6)"
         id="path115" />
      <path
         d="M612 274.4 C609.1281 274.4 606.8 272.0719 606.8 269.2 C606.8 266.3281 609.1281 264 612 264 C614.8719 264 617.2 266.3281 617.2 269.2 C617.2 272.0719 614.8719 274.4 612 274.4 Z"
         style="fill:white; clip-path:url(#clipPath6); stroke:none;"
         clip-path="url(#clipPath6)"
         id="path117" />
      <path
         d="M612 274.4 C609.1281 274.4 606.8 272.0719 606.8 269.2 C606.8 266.3281 609.1281 264 612 264 C614.8719 264 617.2 266.3281 617.2 269.2 C617.2 272.0719 614.8719 274.4 612 274.4 Z"
         style="fill:none; clip-path:url(#clipPath6);"
         clip-path="url(#clipPath6)"
         id="path119" />
    </g>
    <g
       style="text-rendering:geometricPrecision;"
       id="g127">
      <path
         d="M725 258 L725 163"
         style="fill:none; clip-path:url(#clipPath7);"
         clip-path="url(#clipPath7)"
         id="path123" />
      <path
         d="M719.8 163 L725 151.3 L730.2 163 Z"
         style="clip-path:url(#clipPath7); stroke:none;"
         clip-path="url(#clipPath7)"
         id="path125" />
    </g>
    <g
       style="text-rendering:geometricPrecision;"
       id="g133">
      <path
         d="M556 274 L658 274"
         style="fill:none; clip-path:url(#clipPath8);"
         clip-path="url(#clipPath8)"
         id="path129" />
      <path
         d="M658 268.8 L669.7 274 L658 279.2 Z"
         style="clip-path:url(#clipPath8); stroke:none;"
         clip-path="url(#clipPath8)"
         id="path131" />
    </g>
    <g
       style="text-rendering:geometricPrecision;"
       id="g141">
      <path
         d="M852 218 L852.8215 264.0016"
         style="fill:none; clip-path:url(#clipPath9);"
         clip-path="url(#clipPath9)"
         id="path135" />
      <path
         d="M853.0071 274.3999 C850.1357 274.4512 847.7664 272.165 847.7151 269.2936 C847.6639 266.4222 849.95 264.0529 852.8215 264.0016 C855.6929 263.9503 858.0622 266.2365 858.1135 269.1079 C858.1647 271.9793 855.8785 274.3487 853.0071 274.3999 Z"
         style="fill:white; clip-path:url(#clipPath9); stroke:none;"
         clip-path="url(#clipPath9)"
         id="path137" />
      <path
         d="M853.0071 274.3999 C850.1357 274.4512 847.7664 272.165 847.7151 269.2936 C847.6639 266.4222 849.95 264.0529 852.8215 264.0016 C855.6929 263.9503 858.0622 266.2365 858.1135 269.1079 C858.1647 271.9793 855.8785 274.3487 853.0071 274.3999 Z"
         style="fill:none; clip-path:url(#clipPath9);"
         clip-path="url(#clipPath9)"
         id="path139" />
    </g>
    <g
       style="text-rendering:geometricPrecision;"
       id="g147">
      <path
         d="M241.7 284 L241.7 391"
         style="fill:none; clip-path:url(#clipPath10);"
         clip-path="url(#clipPath10)"
         id="path143" />
      <path
         d="M246.9 391 L241.7 402.7 L236.5 391 Z"
         style="clip-path:url(#clipPath10); stroke:none;"
         clip-path="url(#clipPath10)"
         id="path145" />
    </g>
    <g
       style="text-rendering:geometricPrecision;"
       id="g153">
      <path
         d="M292.35 274 L398 274"
         style="fill:none; clip-path:url(#clipPath11);"
         clip-path="url(#clipPath11)"
         id="path149" />
      <path
         d="M398 268.8 L409.7 274 L398 279.2 Z"
         style="clip-path:url(#clipPath11); stroke:none;"
         clip-path="url(#clipPath11)"
         id="path151" />
    </g>
    <g
       style="text-rendering:geometricPrecision;"
       id="g161">
      <path
         d="M172 212 L231.7 212"
         style="fill:none; clip-path:url(#clipPath12);"
         clip-path="url(#clipPath12)"
         id="path155" />
      <path
         d="M242.1 212 C242.1 214.8719 239.7719 217.2 236.9 217.2 C234.0281 217.2 231.7 214.8719 231.7 212 C231.7 209.1281 234.0281 206.8 236.9 206.8 C239.7719 206.8 242.1 209.1281 242.1 212 Z"
         style="fill:white; clip-path:url(#clipPath12); stroke:none;"
         clip-path="url(#clipPath12)"
         id="path157" />
      <path
         d="M242.1 212 C242.1 214.8719 239.7719 217.2 236.9 217.2 C234.0281 217.2 231.7 214.8719 231.7 212 C231.7 209.1281 234.0281 206.8 236.9 206.8 C239.7719 206.8 242.1 209.1281 242.1 212 Z"
         style="fill:none; clip-path:url(#clipPath12);"
         clip-path="url(#clipPath12)"
         id="path159" />
    </g>
    <g
       style="text-rendering:geometricPrecision;"
       id="g169">
      <path
         d="M174 331 L231.7 331"
         style="fill:none; clip-path:url(#clipPath13);"
         clip-path="url(#clipPath13)"
         id="path163" />
      <path
         d="M242.1 331 C242.1 333.8719 239.7719 336.2 236.9 336.2 C234.0281 336.2 231.7 333.8719 231.7 331 C231.7 328.1281 234.0281 325.8 236.9 325.8 C239.7719 325.8 242.1 328.1281 242.1 331 Z"
         style="fill:white; clip-path:url(#clipPath13); stroke:none;"
         clip-path="url(#clipPath13)"
         id="path165" />
      <path
         d="M242.1 331 C242.1 333.8719 239.7719 336.2 236.9 336.2 C234.0281 336.2 231.7 333.8719 231.7 331 C231.7 328.1281 234.0281 325.8 236.9 325.8 C239.7719 325.8 242.1 328.1281 242.1 331 Z"
         style="fill:none; clip-path:url(#clipPath13);"
         clip-path="url(#clipPath13)"
         id="path167" />
    </g>
    <g
       style="text-rendering:geometricPrecision;"
       id="g175">
      <path
         d="M783 274 L911 274"
         style="fill:none; clip-path:url(#clipPath14);"
         clip-path="url(#clipPath14)"
         id="path171" />
      <path
         d="M911 268.8 L922.7 274 L911 279.2 Z"
         style="clip-path:url(#clipPath14); stroke:none;"
         clip-path="url(#clipPath14)"
         id="path173" />
    </g>
    <g
       style="fill:navy; text-rendering:geometricPrecision; font-size:8; stroke:navy;"
       id="g179">
      <text
         x="365"
         xml:space="preserve"
         y="271"
         style="clip-path:url(#clipPath16); stroke:none;"
         clip-path="url(#clipPath16)"
         id="text177">1</text>
    </g>
    <g
       style="fill:white; text-rendering:geometricPrecision; stroke:white;"
       id="g187">
      <path
         d="M191.05 264 L292.35 264 L292.35 284 L191.05 284 L191.05 264 Z"
         style="clip-path:url(#clipPath17); stroke:none;"
         clip-path="url(#clipPath17)"
         id="path181" />
      <path
         d="M191.05 264 L292.35 264 L292.35 284 L191.05 284 L191.05 264 Z"
         style="fill:none; clip-path:url(#clipPath17); stroke:blue;"
         clip-path="url(#clipPath17)"
         id="path183" />
      <text
         x="216"
         y="277"
         style="font-size:10; clip-path:url(#clipPath17); fill:blue; stroke:none;"
         xml:space="preserve"
         clip-path="url(#clipPath17)"
         id="text185">Felbamate</text>
    </g>
    <g
       style="fill:white; text-rendering:geometricPrecision; stroke:white;"
       id="g197">
      <path
         d="M667 258 L783 258 L783 290 L667 290 L667 258 Z"
         style="clip-path:url(#clipPath18); stroke:none;"
         clip-path="url(#clipPath18)"
         id="path189" />
      <path
         d="M667 258 L783 258 L783 290 L667 290 L667 258 Z"
         style="fill:none; clip-path:url(#clipPath18); stroke:blue;"
         clip-path="url(#clipPath18)"
         id="path191" />
      <text
         x="670"
         y="271"
         style="font-size:10; clip-path:url(#clipPath18); fill:blue; stroke:none;"
         xml:space="preserve"
         clip-path="url(#clipPath18)"
         id="text193">3-carbamoyl-2-phenyl</text>
      <text
         x="683"
         y="282"
         style="font-size:10; clip-path:url(#clipPath18); fill:blue; stroke:none;"
         xml:space="preserve"
         clip-path="url(#clipPath18)"
         id="text195">propionaldehyde</text>
    </g>
    <g
       style="fill:white; text-rendering:geometricPrecision; stroke:white;"
       id="g205">
      <path
         d="M572 198 L652 198 L652 218 L572 218 L572 198 Z"
         style="clip-path:url(#clipPath19); stroke:none;"
         clip-path="url(#clipPath19)"
         id="path199" />
      <path
         d="M572 198 L652 198 L652 218 L572 218 L572 198 Z"
         style="fill:none; clip-path:url(#clipPath19); stroke:black;"
         clip-path="url(#clipPath19)"
         id="path201" />
      <text
         x="595"
         y="211"
         style="font-size:10; clip-path:url(#clipPath19); fill:black; stroke:none;"
         xml:space="preserve"
         clip-path="url(#clipPath19)"
         id="text203">1.1.1.1</text>
    </g>
    <g
       style="fill:white; text-rendering:geometricPrecision; stroke:white;"
       id="g213">
      <path
         d="M685 134 L765 134 L765 154 L685 154 L685 134 Z"
         style="clip-path:url(#clipPath20); stroke:none;"
         clip-path="url(#clipPath20)"
         id="path207" />
      <path
         d="M685 134 L765 134 L765 154 L685 154 L685 134 Z"
         style="fill:none; clip-path:url(#clipPath20); stroke:blue;"
         clip-path="url(#clipPath20)"
         id="path209" />
      <text
         x="689"
         y="147"
         style="font-size:10; clip-path:url(#clipPath20); fill:blue; stroke:none;"
         xml:space="preserve"
         clip-path="url(#clipPath20)"
         id="text211">atropaldehyde</text>
    </g>
    <g
       style="fill:white; text-rendering:geometricPrecision; stroke:white;"
       id="g221">
      <path
         d="M191.05 140 L292.35 140 L292.35 160 L191.05 160 L191.05 140 Z"
         style="clip-path:url(#clipPath21); stroke:none;"
         clip-path="url(#clipPath21)"
         id="path215" />
      <path
         d="M191.05 140 L292.35 140 L292.35 160 L191.05 160 L191.05 140 Z"
         style="fill:none; clip-path:url(#clipPath21); stroke:blue;"
         clip-path="url(#clipPath21)"
         id="path217" />
      <text
         x="192"
         y="153"
         style="font-size:10; clip-path:url(#clipPath21); fill:blue; stroke:none;"
         xml:space="preserve"
         clip-path="url(#clipPath21)"
         id="text219">p-hydroxyfelbamate</text>
    </g>
    <g
       style="fill:white; text-rendering:geometricPrecision; stroke:white;"
       id="g229">
      <path
         d="M84 192 L164 192 L164 212 L84 212 L84 192 Z"
         style="clip-path:url(#clipPath22); stroke:none;"
         clip-path="url(#clipPath22)"
         id="path223" />
      <path
         d="M84 192 L164 192 L164 212 L84 212 L84 192 Z"
         style="fill:none; clip-path:url(#clipPath22); stroke:black;"
         clip-path="url(#clipPath22)"
         id="path225" />
      <text
         x="105"
         y="205"
         style="font-size:10; clip-path:url(#clipPath22); fill:black; stroke:none;"
         xml:space="preserve"
         clip-path="url(#clipPath22)"
         id="text227">CYP3A4</text>
    </g>
    <g
       style="fill:white; text-rendering:geometricPrecision; stroke:white;"
       id="g239">
      <path
         d="M407 258 L556 258 L556 290 L407 290 L407 258 Z"
         style="clip-path:url(#clipPath23); stroke:none;"
         clip-path="url(#clipPath23)"
         id="path231" />
      <path
         d="M407 258 L556 258 L556 290 L407 290 L407 258 Z"
         style="fill:none; clip-path:url(#clipPath23); stroke:blue;"
         clip-path="url(#clipPath23)"
         id="path233" />
      <text
         x="416"
         y="271"
         style="font-size:10; clip-path:url(#clipPath23); fill:blue; stroke:none;"
         xml:space="preserve"
         clip-path="url(#clipPath23)"
         id="text235">3-Hydroxy-2-phenylpropyl</text>
      <text
         x="454"
         y="282"
         style="font-size:10; clip-path:url(#clipPath23); fill:blue; stroke:none;"
         xml:space="preserve"
         clip-path="url(#clipPath23)"
         id="text237">carbamate</text>
    </g>
    <g
       style="fill:white; text-rendering:geometricPrecision; stroke:white;"
       id="g249">
      <path
         d="M920 258 L1027 258 L1027 290 L920 290 L920 258 Z"
         style="clip-path:url(#clipPath24); stroke:none;"
         clip-path="url(#clipPath24)"
         id="path241" />
      <path
         d="M920 258 L1027 258 L1027 290 L920 290 L920 258 Z"
         style="fill:none; clip-path:url(#clipPath24); stroke:blue;"
         clip-path="url(#clipPath24)"
         id="path243" />
      <text
         x="918"
         y="271"
         style="font-size:10; clip-path:url(#clipPath24); fill:blue; stroke:none;"
         xml:space="preserve"
         clip-path="url(#clipPath24)"
         id="text245">3-carbamoyl-2-phenyl</text>
      <text
         x="938"
         y="282"
         style="font-size:10; clip-path:url(#clipPath24); fill:blue; stroke:none;"
         xml:space="preserve"
         clip-path="url(#clipPath24)"
         id="text247">propionic acid</text>
    </g>
    <g
       style="fill:white; text-rendering:geometricPrecision; stroke:white;"
       id="g257">
      <path
         d="M812 198 L892 198 L892 218 L812 218 L812 198 Z"
         style="clip-path:url(#clipPath25); stroke:none;"
         clip-path="url(#clipPath25)"
         id="path251" />
      <path
         d="M812 198 L892 198 L892 218 L812 218 L812 198 Z"
         style="fill:none; clip-path:url(#clipPath25); stroke:black;"
         clip-path="url(#clipPath25)"
         id="path253" />
      <text
         x="835"
         y="211"
         style="font-size:10; clip-path:url(#clipPath25); fill:black; stroke:none;"
         xml:space="preserve"
         clip-path="url(#clipPath25)"
         id="text255">1.2.1.5</text>
    </g>
    <g
       style="fill:white; text-rendering:geometricPrecision; stroke:white;"
       id="g265">
      <path
         d="M84 212 L164 212 L164 232 L84 232 L84 212 Z"
         style="clip-path:url(#clipPath26); stroke:none;"
         clip-path="url(#clipPath26)"
         id="path259" />
      <path
         d="M84 212 L164 212 L164 232 L84 232 L84 212 Z"
         style="fill:none; clip-path:url(#clipPath26); stroke:black;"
         clip-path="url(#clipPath26)"
         id="path261" />
      <text
         x="105"
         y="225"
         style="font-size:10; clip-path:url(#clipPath26); fill:black; stroke:none;"
         xml:space="preserve"
         clip-path="url(#clipPath26)"
         id="text263">CYP2E1</text>
    </g>
    <g
       style="fill:white; text-rendering:geometricPrecision; stroke:white;"
       id="g273">
      <path
         d="M86 311 L166 311 L166 331 L86 331 L86 311 Z"
         style="clip-path:url(#clipPath27); stroke:none;"
         clip-path="url(#clipPath27)"
         id="path267" />
      <path
         d="M86 311 L166 311 L166 331 L86 331 L86 311 Z"
         style="fill:none; clip-path:url(#clipPath27); stroke:black;"
         clip-path="url(#clipPath27)"
         id="path269" />
      <text
         x="107"
         y="324"
         style="font-size:10; clip-path:url(#clipPath27); fill:black; stroke:none;"
         xml:space="preserve"
         clip-path="url(#clipPath27)"
         id="text271">CYP3A4</text>
    </g>
    <g
       style="fill:white; text-rendering:geometricPrecision; stroke:white;"
       id="g281">
      <path
         d="M86 331 L166 331 L166 351 L86 351 L86 331 Z"
         style="clip-path:url(#clipPath28); stroke:none;"
         clip-path="url(#clipPath28)"
         id="path275" />
      <path
         d="M86 331 L166 331 L166 351 L86 351 L86 331 Z"
         style="fill:none; clip-path:url(#clipPath28); stroke:black;"
         clip-path="url(#clipPath28)"
         id="path277" />
      <text
         x="107"
         y="344"
         style="font-size:10; clip-path:url(#clipPath28); fill:black; stroke:none;"
         xml:space="preserve"
         clip-path="url(#clipPath28)"
         id="text279">CYP2E1</text>
    </g>
    <g
       style="fill:white; text-rendering:geometricPrecision; stroke:white;"
       id="g289">
      <path
         d="M191.05 400 L292.35 400 L292.35 420 L191.05 420 L191.05 400 Z"
         style="clip-path:url(#clipPath29); stroke:none;"
         clip-path="url(#clipPath29)"
         id="path283" />
      <path
         d="M191.05 400 L292.35 400 L292.35 420 L191.05 420 L191.05 400 Z"
         style="fill:none; clip-path:url(#clipPath29); stroke:blue;"
         clip-path="url(#clipPath29)"
         id="path285" />
      <text
         x="192"
         y="413"
         style="font-size:10; clip-path:url(#clipPath29); fill:blue; stroke:none;"
         xml:space="preserve"
         clip-path="url(#clipPath29)"
         id="text287">2-hydroxyfelbamate</text>
    </g>
  </g>
</svg>
