<?xml version="1.0" encoding="UTF-8" standalone="no"?>
<svg
   style="fill-opacity:1; color-rendering:auto; color-interpolation:auto; stroke:black; text-rendering:auto; stroke-linecap:square; stroke-miterlimit:10; stroke-opacity:1; shape-rendering:auto; fill:black; stroke-dasharray:none; font-weight:normal; stroke-width:1; font-family:'Dialog'; font-style:normal; stroke-linejoin:miter; font-size:12; stroke-dashoffset:0; image-rendering:auto;"
   width="668"
   height="431"
   version="1.1"
   id="svg526"
   xmlns="http://www.w3.org/2000/svg"
   xmlns:svg="http://www.w3.org/2000/svg">
  <!--Generated by the Batik Graphics2D SVG Generator-->
  <defs
     id="genericDefs" />
  <g
     id="g524">
    <defs
       id="defs1">
      <clipPath
         clipPathUnits="userSpaceOnUse"
         id="clipPath1">
        <path
           d="M0 0 L684 0 L684 447 L0 447 L0 0 Z"
           id="path3" />
      </clipPath>
      <clipPath
         clipPathUnits="userSpaceOnUse"
         id="clipPath2">
        <path
           d="M0 0 L0 200 L200 200 L200 0 Z"
           id="path6" />
      </clipPath>
      <clipPath
         clipPathUnits="userSpaceOnUse"
         id="clipPath3">
        <path
           d="M211.3999 161.4897 L211.3999 186.9011 L222.8 186.9011 L222.8 161.4897 Z"
           id="path9" />
      </clipPath>
      <clipPath
         clipPathUnits="userSpaceOnUse"
         id="clipPath4">
        <path
           d="M342.4772 222.4978 L342.4772 338.2311 L354.4158 338.2311 L354.4158 222.4978 Z"
           id="path12" />
      </clipPath>
      <clipPath
         clipPathUnits="userSpaceOnUse"
         id="clipPath5">
        <path
           d="M406.7689 207.0306 L406.7689 336.5 L494.5 336.5 L494.5 207.0306 Z"
           id="path15" />
      </clipPath>
      <clipPath
         clipPathUnits="userSpaceOnUse"
         id="clipPath6">
        <path
           d="M334.7415 62.7709 L334.7415 203.5279 L348.5279 203.5279 L348.5279 62.7709 Z"
           id="path18" />
      </clipPath>
      <clipPath
         clipPathUnits="userSpaceOnUse"
         id="clipPath7">
        <path
           d="M367.3487 63.8592 L367.3487 203.6513 L424.9439 203.6513 L424.9439 63.8592 Z"
           id="path21" />
      </clipPath>
      <clipPath
         clipPathUnits="userSpaceOnUse"
         id="clipPath8">
        <path
           d="M488.0306 355.5 L488.0306 398.2311 L499.9694 398.2311 L499.9694 355.5 Z"
           id="path24" />
      </clipPath>
      <clipPath
         clipPathUnits="userSpaceOnUse"
         id="clipPath9">
        <path
           d="M336.3412 286.0044 L336.3412 313.6588 L352.0534 313.6588 L352.0534 286.0044 Z"
           id="path27" />
      </clipPath>
      <clipPath
         clipPathUnits="userSpaceOnUse"
         id="clipPath10">
        <path
           d="M245.443 198.443 L245.443 232.538 L268.7881 232.538 L268.7881 198.443 Z"
           id="path30" />
      </clipPath>
      <clipPath
         clipPathUnits="userSpaceOnUse"
         id="clipPath11">
        <path
           d="M97.0306 116.7689 L97.0306 158.5 L108.9694 158.5 L108.9694 116.7689 Z"
           id="path33" />
      </clipPath>
      <clipPath
         clipPathUnits="userSpaceOnUse"
         id="clipPath12">
        <path
           d="M245.2027 82.062 L245.2027 203.7048 L348.7048 203.7048 L348.7048 82.062 Z"
           id="path36" />
      </clipPath>
      <clipPath
         clipPathUnits="userSpaceOnUse"
         id="clipPath13">
        <path
           d="M396.7821 245.8743 L396.7821 314.5988 L427.7303 314.5988 L427.7303 245.8743 Z"
           id="path39" />
      </clipPath>
      <clipPath
         clipPathUnits="userSpaceOnUse"
         id="clipPath14">
        <path
           d="M397.4516 338.0887 L397.4516 369.5484 L432.1972 369.5484 L432.1972 338.0887 Z"
           id="path42" />
      </clipPath>
      <clipPath
         clipPathUnits="userSpaceOnUse"
         id="clipPath15">
        <path
           d="M367.2933 86.159 L367.2933 203.7067 L492.899 203.7067 L492.899 86.159 Z"
           id="path45" />
      </clipPath>
      <clipPath
         clipPathUnits="userSpaceOnUse"
         id="clipPath16">
        <path
           d="M347.5365 286.7432 L347.5365 318.6513 L367.2242 318.6513 L367.2242 286.7432 Z"
           id="path48" />
      </clipPath>
      <clipPath
         clipPathUnits="userSpaceOnUse"
         id="clipPath17">
        <path
           d="M121.7865 174.169 L121.7865 216.831 L329.2136 216.831 L329.2136 174.169 Z"
           id="path51" />
      </clipPath>
      <clipPath
         clipPathUnits="userSpaceOnUse"
         id="clipPath18">
        <path
           d="M389.4941 340.1763 L389.4941 352.1142 L475.231 352.1142 L475.231 340.1763 Z"
           id="path54" />
      </clipPath>
      <clipPath
         clipPathUnits="userSpaceOnUse"
         id="clipPath19">
        <path
           d="M425.8158 252.9308 L425.8158 311.587 L445.587 311.587 L445.587 252.9308 Z"
           id="path57" />
      </clipPath>
      <clipPath
         clipPathUnits="userSpaceOnUse"
         id="clipPath20">
        <path
           d="M492.629 231.5659 L492.629 281.4349 L520.2219 281.4349 L520.2219 231.5659 Z"
           id="path60" />
      </clipPath>
      <clipPath
         clipPathUnits="userSpaceOnUse"
         id="clipPath21">
        <path
           d="M341.0618 249.4286 L341.0618 288.5352 L365.5714 288.5352 L365.5714 249.4286 Z"
           id="path63" />
      </clipPath>
      <clipPath
         clipPathUnits="userSpaceOnUse"
         id="clipPath22">
        <path
           d="M182.2946 193.243 L182.2946 243.7054 L226.9996 243.7054 L226.9996 193.243 Z"
           id="path66" />
      </clipPath>
      <clipPath
         clipPathUnits="userSpaceOnUse"
         id="clipPath23">
        <path
           d="M430.3836 345.9013 L430.3836 370.2267 L461.9218 370.2267 L461.9218 345.9013 Z"
           id="path69" />
      </clipPath>
      <clipPath
         clipPathUnits="userSpaceOnUse"
         id="clipPath24">
        <path
           d="M493.0991 275.0161 L493.0991 286.4162 L536.5095 286.4162 L536.5095 275.0161 Z"
           id="path72" />
      </clipPath>
      <clipPath
         clipPathUnits="userSpaceOnUse"
         id="clipPath25">
        <path
           d="M483.7585 279.6742 L483.7585 314.5336 L527.5336 314.5336 L527.5336 279.6742 Z"
           id="path75" />
      </clipPath>
      <clipPath
         clipPathUnits="userSpaceOnUse"
         id="clipPath26">
        <path
           d="M387.3189 127.3189 L387.3189 203.6811 L522.0723 203.6811 L522.0723 127.3189 Z"
           id="path78" />
      </clipPath>
      <clipPath
         clipPathUnits="userSpaceOnUse"
         id="clipPath27">
        <path
           d="M141.8038 165.0832 L141.8038 215.9168 L329.1962 215.9168 L329.1962 165.0832 Z"
           id="path81" />
      </clipPath>
      <clipPath
         clipPathUnits="userSpaceOnUse"
         id="clipPath28">
        <path
           d="M383.5 328.5 L383.5 346.5 L464.5 346.5 L464.5 328.5 Z"
           id="path84" />
      </clipPath>
      <clipPath
         clipPathUnits="userSpaceOnUse"
         id="clipPath29">
        <path
           d="M62.5 97.5 L62.5 118.5 L143.5 118.5 L143.5 97.5 Z"
           id="path87" />
      </clipPath>
      <clipPath
         clipPathUnits="userSpaceOnUse"
         id="clipPath30">
        <path
           d="M357.5 368.5 L357.5 389.5 L438.5 389.5 L438.5 368.5 Z"
           id="path90" />
      </clipPath>
      <clipPath
         clipPathUnits="userSpaceOnUse"
         id="clipPath31">
        <path
           d="M365.5 303.5 L365.5 324.5 L409.5 324.5 L409.5 303.5 Z"
           id="path93" />
      </clipPath>
      <clipPath
         clipPathUnits="userSpaceOnUse"
         id="clipPath32">
        <path
           d="M518.5 225.5 L518.5 246.5 L599.5 246.5 L599.5 225.5 Z"
           id="path96" />
      </clipPath>
      <clipPath
         clipPathUnits="userSpaceOnUse"
         id="clipPath33">
        <path
           d="M62.5 157.5 L62.5 178.5 L143.5 178.5 L143.5 157.5 Z"
           id="path99" />
      </clipPath>
      <clipPath
         clipPathUnits="userSpaceOnUse"
         id="clipPath34">
        <path
           d="M416.5 368.5 L416.5 389.5 L497.5 389.5 L497.5 368.5 Z"
           id="path102" />
      </clipPath>
      <clipPath
         clipPathUnits="userSpaceOnUse"
         id="clipPath35">
        <path
           d="M526.5 303.5 L526.5 324.5 L590.5 324.5 L590.5 303.5 Z"
           id="path105" />
      </clipPath>
      <clipPath
         clipPathUnits="userSpaceOnUse"
         id="clipPath36">
        <path
           d="M58.5 79.5 L58.5 100.5 L139.5 100.5 L139.5 79.5 Z"
           id="path108" />
      </clipPath>
      <clipPath
         clipPathUnits="userSpaceOnUse"
         id="clipPath37">
        <path
           d="M444.5 300.5 L444.5 321.5 L474.5 321.5 L474.5 300.5 Z"
           id="path111" />
      </clipPath>
      <clipPath
         clipPathUnits="userSpaceOnUse"
         id="clipPath38">
        <path
           d="M441.5 245.5 L441.5 266.5 L481.5 266.5 L481.5 245.5 Z"
           id="path114" />
      </clipPath>
      <clipPath
         clipPathUnits="userSpaceOnUse"
         id="clipPath39">
        <path
           d="M364.5 239.5 L364.5 260.5 L398.5 260.5 L398.5 239.5 Z"
           id="path117" />
      </clipPath>
      <clipPath
         clipPathUnits="userSpaceOnUse"
         id="clipPath40">
        <path
           d="M491.5 76.5 L491.5 97.5 L572.5 97.5 L572.5 76.5 Z"
           id="path120" />
      </clipPath>
      <clipPath
         clipPathUnits="userSpaceOnUse"
         id="clipPath41">
        <path
           d="M473.5 335.5 L473.5 356.5 L554.5 356.5 L554.5 335.5 Z"
           id="path123" />
      </clipPath>
      <clipPath
         clipPathUnits="userSpaceOnUse"
         id="clipPath42">
        <path
           d="M299.5 43.5 L299.5 64.5 L380.5 64.5 L380.5 43.5 Z"
           id="path126" />
      </clipPath>
      <clipPath
         clipPathUnits="userSpaceOnUse"
         id="clipPath43">
        <path
           d="M205.5 62.5 L205.5 83.5 L286.5 83.5 L286.5 62.5 Z"
           id="path129" />
      </clipPath>
      <clipPath
         clipPathUnits="userSpaceOnUse"
         id="clipPath44">
        <path
           d="M520.5 117.5 L520.5 138.5 L601.5 138.5 L601.5 117.5 Z"
           id="path132" />
      </clipPath>
      <clipPath
         clipPathUnits="userSpaceOnUse"
         id="clipPath45">
        <path
           d="M253.5 231.5 L253.5 252.5 L311.5 252.5 L311.5 231.5 Z"
           id="path135" />
      </clipPath>
      <clipPath
         clipPathUnits="userSpaceOnUse"
         id="clipPath46">
        <path
           d="M453.5 396.5 L453.5 417.5 L534.5 417.5 L534.5 396.5 Z"
           id="path138" />
      </clipPath>
      <clipPath
         clipPathUnits="userSpaceOnUse"
         id="clipPath47">
        <path
           d="M188 133.5 L188 154.5 L247 154.5 L247 133.5 Z"
           id="path141" />
      </clipPath>
      <clipPath
         clipPathUnits="userSpaceOnUse"
         id="clipPath48">
        <path
           d="M248.5 302.5 L248.5 323.5 L337.5 323.5 L337.5 302.5 Z"
           id="path144" />
      </clipPath>
      <clipPath
         clipPathUnits="userSpaceOnUse"
         id="clipPath49">
        <path
           d="M114.5 232.5 L114.5 253.5 L183.5 253.5 L183.5 232.5 Z"
           id="path147" />
      </clipPath>
      <clipPath
         clipPathUnits="userSpaceOnUse"
         id="clipPath50">
        <path
           d="M535.5 269.5 L535.5 290.5 L654.5 290.5 L654.5 269.5 Z"
           id="path150" />
      </clipPath>
      <clipPath
         clipPathUnits="userSpaceOnUse"
         id="clipPath51">
        <path
           d="M188 113.5 L188 134.5 L247 134.5 L247 113.5 Z"
           id="path153" />
      </clipPath>
      <clipPath
         clipPathUnits="userSpaceOnUse"
         id="clipPath52">
        <path
           d="M327.5 202.5 L327.5 223.5 L408.5 223.5 L408.5 202.5 Z"
           id="path156" />
      </clipPath>
      <clipPath
         clipPathUnits="userSpaceOnUse"
         id="clipPath53">
        <path
           d="M306.5 336.5 L306.5 357.5 L390.5 357.5 L390.5 336.5 Z"
           id="path159" />
      </clipPath>
      <clipPath
         clipPathUnits="userSpaceOnUse"
         id="clipPath54">
        <path
           d="M403.5 44.5 L403.5 65.5 L484.5 65.5 L484.5 44.5 Z"
           id="path162" />
      </clipPath>
    </defs>
    <g
       style="fill:white; stroke:white;"
       id="g168">
      <rect
         x="0"
         width="684"
         height="447"
         y="0"
         style="stroke:none;"
         id="rect166" />
    </g>
    <g
       style="font-weight:bold; font-size:10; text-rendering:geometricPrecision;"
       id="g182">
      <path
         d="M0.0469 6.7031 L6.7656 6.7031 L6.7656 8.125 L4.3438 8.125 L4.3438 14 L2.4688 14 L2.4688 8.125 L0.0469 8.125 L0.0469 6.7031 ZM7.665 8.5312 L9.415 8.5312 L9.415 14 L7.665 14 L7.665 8.5312 ZM7.665 6.4062 L9.415 6.4062 L9.415 7.8281 L7.665 7.8281 L7.665 6.4062 ZM12.999 6.9844 L12.999 8.5312 L14.7959 8.5312 L14.7959 9.7812 L12.999 9.7812 L12.999 12.0938 Q12.999 12.4844 13.1475 12.6172 Q13.2959 12.75 13.749 12.75 L14.6553 12.75 L14.6553 14 L13.1553 14 Q12.1084 14 11.6787 13.5703 Q11.249 13.1406 11.249 12.0938 L11.249 9.7812 L10.374 9.7812 L10.374 8.5312 L11.249 8.5312 L11.249 6.9844 L12.999 6.9844 ZM15.873 6.4062 L17.623 6.4062 L17.623 14 L15.873 14 L15.873 6.4062 ZM24.7539 11.25 L24.7539 11.75 L20.6758 11.75 Q20.7383 12.3594 21.1133 12.6719 Q21.4883 12.9844 22.1758 12.9844 Q22.7227 12.9844 23.3086 12.8203 Q23.8945 12.6562 24.5039 12.3125 L24.5039 13.6719 Q23.8789 13.9062 23.2617 14.0234 Q22.6445 14.1406 22.0195 14.1406 Q20.5352 14.1406 19.7148 13.3828 Q18.8945 12.625 18.8945 11.2656 Q18.8945 9.9375 19.6992 9.1719 Q20.5039 8.4062 21.9258 8.4062 Q23.207 8.4062 23.9805 9.1797 Q24.7539 9.9531 24.7539 11.25 ZM22.957 10.6719 Q22.957 10.1719 22.668 9.8672 Q22.3789 9.5625 21.9102 9.5625 Q21.3945 9.5625 21.082 9.8438 Q20.7695 10.125 20.6914 10.6719 L22.957 10.6719 ZM26.3643 8.5312 L28.1143 8.5312 L28.1143 10.4219 L26.3643 10.4219 L26.3643 8.5312 ZM26.3643 12.1094 L28.1143 12.1094 L28.1143 14 L26.3643 14 L26.3643 12.1094 Z"
         style="clip-path:url(#clipPath2); stroke:none;"
         clip-path="url(#clipPath2)"
         id="path170" />
      <path
         d="M43.9531 12.9531 L43.9531 11 L42.3438 11 L42.3438 10.1875 L44.9219 10.1875 L44.9219 13.3281 Q44.3594 13.7188 43.6719 13.9297 Q42.9844 14.1406 42.2031 14.1406 Q40.4844 14.1406 39.5234 13.1406 Q38.5625 12.1406 38.5625 10.3594 Q38.5625 8.5781 39.5234 7.5781 Q40.4844 6.5781 42.2031 6.5781 Q42.9062 6.5781 43.5547 6.75 Q44.2031 6.9219 44.7344 7.2656 L44.7344 8.3281 Q44.1875 7.8594 43.5781 7.625 Q42.9688 7.3906 42.2812 7.3906 Q40.9375 7.3906 40.2734 8.1328 Q39.6094 8.875 39.6094 10.3594 Q39.6094 11.8438 40.2734 12.5859 Q40.9375 13.3281 42.2812 13.3281 Q42.8125 13.3281 43.2188 13.2422 Q43.625 13.1562 43.9531 12.9531 ZM46.6865 6.4062 L47.5928 6.4062 L47.5928 14 L46.6865 14 L46.6865 6.4062 ZM51.7461 14.5156 Q51.3711 15.4844 51.0039 15.7812 Q50.6367 16.0781 50.043 16.0781 L49.3242 16.0781 L49.3242 15.3281 L49.8398 15.3281 Q50.2148 15.3281 50.418 15.1562 Q50.6211 14.9844 50.8711 14.3281 L51.043 13.9062 L48.8242 8.5312 L49.7773 8.5312 L51.4805 12.8125 L53.1992 8.5312 L54.1523 8.5312 L51.7461 14.5156 ZM59.3203 8.7344 L59.3203 9.5781 Q58.9453 9.375 58.5625 9.2656 Q58.1797 9.1562 57.7891 9.1562 Q56.9141 9.1562 56.4297 9.7109 Q55.9453 10.2656 55.9453 11.2656 Q55.9453 12.2656 56.4297 12.8203 Q56.9141 13.375 57.7891 13.375 Q58.1797 13.375 58.5625 13.2734 Q58.9453 13.1719 59.3203 12.9531 L59.3203 13.7969 Q58.9453 13.9688 58.5469 14.0547 Q58.1484 14.1406 57.6953 14.1406 Q56.4453 14.1406 55.7188 13.3672 Q54.9922 12.5938 54.9922 11.2656 Q54.9922 9.9375 55.7266 9.1719 Q56.4609 8.4062 57.7422 8.4062 Q58.1641 8.4062 58.5547 8.4844 Q58.9453 8.5625 59.3203 8.7344 ZM60.8809 8.5312 L61.7871 8.5312 L61.7871 14 L60.8809 14 L60.8809 8.5312 ZM60.8809 6.4062 L61.7871 6.4062 L61.7871 7.5469 L60.8809 7.5469 L60.8809 6.4062 ZM68.2061 10.7031 L68.2061 14 L67.3154 14 L67.3154 10.7344 Q67.3154 9.9531 67.0107 9.5703 Q66.7061 9.1875 66.0967 9.1875 Q65.3779 9.1875 64.9561 9.6484 Q64.5342 10.1094 64.5342 10.9062 L64.5342 14 L63.6279 14 L63.6279 8.5312 L64.5342 8.5312 L64.5342 9.375 Q64.8623 8.8906 65.2998 8.6484 Q65.7373 8.4062 66.2998 8.4062 Q67.2373 8.4062 67.7217 8.9844 Q68.2061 9.5625 68.2061 10.7031 ZM74.6846 11.0469 L74.6846 11.4844 L70.5439 11.4844 Q70.6064 12.4062 71.1064 12.8906 Q71.6064 13.375 72.4971 13.375 Q73.0127 13.375 73.5049 13.25 Q73.9971 13.125 74.4658 12.875 L74.4658 13.7188 Q73.9814 13.9219 73.4736 14.0312 Q72.9658 14.1406 72.4502 14.1406 Q71.1377 14.1406 70.3721 13.3828 Q69.6064 12.625 69.6064 11.3125 Q69.6064 9.9688 70.333 9.1875 Q71.0596 8.4062 72.2939 8.4062 Q73.4033 8.4062 74.0439 9.1094 Q74.6846 9.8125 74.6846 11.0469 ZM73.7783 10.7812 Q73.7783 10.0469 73.3721 9.6016 Q72.9658 9.1562 72.3096 9.1562 Q71.5439 9.1562 71.0986 9.5859 Q70.6533 10.0156 70.5752 10.7812 L73.7783 10.7812 ZM83.5938 9.5781 Q83.9219 8.9688 84.3906 8.6875 Q84.8594 8.4062 85.5 8.4062 Q86.3594 8.4062 86.8203 9 Q87.2812 9.5938 87.2812 10.7031 L87.2812 14 L86.375 14 L86.375 10.7344 Q86.375 9.9375 86.1016 9.5625 Q85.8281 9.1875 85.25 9.1875 Q84.5469 9.1875 84.1484 9.6484 Q83.75 10.1094 83.75 10.9062 L83.75 14 L82.8438 14 L82.8438 10.7344 Q82.8438 9.9375 82.5625 9.5625 Q82.2812 9.1875 81.7031 9.1875 Q81.0156 9.1875 80.6094 9.6484 Q80.2031 10.1094 80.2031 10.9062 L80.2031 14 L79.2969 14 L79.2969 8.5312 L80.2031 8.5312 L80.2031 9.375 Q80.5156 8.875 80.9453 8.6406 Q81.375 8.4062 81.9531 8.4062 Q82.5625 8.4062 82.9766 8.7031 Q83.3906 9 83.5938 9.5781 ZM93.7568 11.0469 L93.7568 11.4844 L89.6162 11.4844 Q89.6787 12.4062 90.1787 12.8906 Q90.6787 13.375 91.5693 13.375 Q92.085 13.375 92.5771 13.25 Q93.0693 13.125 93.5381 12.875 L93.5381 13.7188 Q93.0537 13.9219 92.5459 14.0312 Q92.0381 14.1406 91.5225 14.1406 Q90.21 14.1406 89.4443 13.3828 Q88.6787 12.625 88.6787 11.3125 Q88.6787 9.9688 89.4053 9.1875 Q90.1318 8.4062 91.3662 8.4062 Q92.4756 8.4062 93.1162 9.1094 Q93.7568 9.8125 93.7568 11.0469 ZM92.8506 10.7812 Q92.8506 10.0469 92.4443 9.6016 Q92.0381 9.1562 91.3818 9.1562 Q90.6162 9.1562 90.1709 9.5859 Q89.7256 10.0156 89.6475 10.7812 L92.8506 10.7812 ZM96.1123 6.9844 L96.1123 8.5312 L97.9717 8.5312 L97.9717 9.2344 L96.1123 9.2344 L96.1123 12.2031 Q96.1123 12.8594 96.2998 13.0547 Q96.4873 13.25 97.0498 13.25 L97.9717 13.25 L97.9717 14 L97.0498 14 Q96.0029 14 95.6045 13.6094 Q95.2061 13.2188 95.2061 12.2031 L95.2061 9.2344 L94.5498 9.2344 L94.5498 8.5312 L95.2061 8.5312 L95.2061 6.9844 L96.1123 6.9844 ZM101.627 11.25 Q100.5488 11.25 100.127 11.5 Q99.7051 11.75 99.7051 12.3438 Q99.7051 12.8281 100.0176 13.1094 Q100.3301 13.3906 100.877 13.3906 Q101.627 13.3906 102.0801 12.8594 Q102.5332 12.3281 102.5332 11.4531 L102.5332 11.25 L101.627 11.25 ZM103.4238 10.875 L103.4238 14 L102.5332 14 L102.5332 13.1719 Q102.2207 13.6719 101.7598 13.9062 Q101.2988 14.1406 100.6426 14.1406 Q99.7988 14.1406 99.2988 13.6719 Q98.7988 13.2031 98.7988 12.4062 Q98.7988 11.4844 99.4238 11.0156 Q100.0488 10.5469 101.2676 10.5469 L102.5332 10.5469 L102.5332 10.4531 Q102.5332 9.8438 102.1191 9.5 Q101.7051 9.1562 100.9707 9.1562 Q100.502 9.1562 100.0566 9.2734 Q99.6113 9.3906 99.2051 9.6094 L99.2051 8.7812 Q99.7051 8.5938 100.166 8.5 Q100.627 8.4062 101.0645 8.4062 Q102.252 8.4062 102.8379 9.0156 Q103.4238 9.625 103.4238 10.875 ZM109.208 11.2656 Q109.208 10.2812 108.7939 9.7188 Q108.3799 9.1562 107.6768 9.1562 Q106.958 9.1562 106.5518 9.7188 Q106.1455 10.2812 106.1455 11.2656 Q106.1455 12.2656 106.5518 12.8281 Q106.958 13.3906 107.6768 13.3906 Q108.3799 13.3906 108.7939 12.8281 Q109.208 12.2656 109.208 11.2656 ZM106.1455 9.3594 Q106.4268 8.875 106.8564 8.6406 Q107.2861 8.4062 107.8955 8.4062 Q108.8955 8.4062 109.5127 9.1953 Q110.1299 9.9844 110.1299 11.2656 Q110.1299 12.5625 109.5127 13.3516 Q108.8955 14.1406 107.8955 14.1406 Q107.2861 14.1406 106.8564 13.9062 Q106.4268 13.6719 106.1455 13.1719 L106.1455 14 L105.2393 14 L105.2393 6.4062 L106.1455 6.4062 L106.1455 9.3594 ZM113.7432 9.1562 Q113.0244 9.1562 112.6025 9.7188 Q112.1807 10.2812 112.1807 11.2656 Q112.1807 12.25 112.5947 12.8125 Q113.0088 13.375 113.7432 13.375 Q114.4619 13.375 114.8838 12.8125 Q115.3057 12.25 115.3057 11.2656 Q115.3057 10.2969 114.8838 9.7266 Q114.4619 9.1562 113.7432 9.1562 ZM113.7432 8.4062 Q114.915 8.4062 115.5869 9.1641 Q116.2588 9.9219 116.2588 11.2656 Q116.2588 12.6094 115.5869 13.375 Q114.915 14.1406 113.7432 14.1406 Q112.5713 14.1406 111.8994 13.375 Q111.2275 12.6094 111.2275 11.2656 Q111.2275 9.9219 111.8994 9.1641 Q112.5713 8.4062 113.7432 8.4062 ZM117.7363 6.4062 L118.6426 6.4062 L118.6426 14 L117.7363 14 L117.7363 6.4062 ZM120.5146 8.5312 L121.4209 8.5312 L121.4209 14 L120.5146 14 L120.5146 8.5312 ZM120.5146 6.4062 L121.4209 6.4062 L121.4209 7.5469 L120.5146 7.5469 L120.5146 6.4062 ZM126.7773 8.6875 L126.7773 9.5469 Q126.4023 9.3438 125.9961 9.25 Q125.5898 9.1562 125.1367 9.1562 Q124.4805 9.1562 124.1445 9.3594 Q123.8086 9.5625 123.8086 9.9688 Q123.8086 10.2812 124.043 10.4609 Q124.2773 10.6406 125.0117 10.7969 L125.3086 10.875 Q126.2773 11.0781 126.6758 11.4531 Q127.0742 11.8281 127.0742 12.4844 Q127.0742 13.25 126.4727 13.6953 Q125.8711 14.1406 124.8242 14.1406 Q124.3711 14.1406 123.8945 14.0547 Q123.418 13.9688 122.9023 13.7969 L122.9023 12.875 Q123.4023 13.125 123.8789 13.2578 Q124.3555 13.3906 124.8398 13.3906 Q125.4648 13.3906 125.8086 13.1719 Q126.1523 12.9531 126.1523 12.5625 Q126.1523 12.1875 125.9102 11.9922 Q125.668 11.7969 124.8242 11.625 L124.5117 11.5469 Q123.6836 11.375 123.3086 11.0078 Q122.9336 10.6406 122.9336 10.0156 Q122.9336 9.2344 123.4805 8.8203 Q124.0273 8.4062 125.043 8.4062 Q125.5273 8.4062 125.9727 8.4766 Q126.418 8.5469 126.7773 8.6875 ZM132.7686 9.5781 Q133.0967 8.9688 133.5654 8.6875 Q134.0342 8.4062 134.6748 8.4062 Q135.5342 8.4062 135.9951 9 Q136.4561 9.5938 136.4561 10.7031 L136.4561 14 L135.5498 14 L135.5498 10.7344 Q135.5498 9.9375 135.2764 9.5625 Q135.0029 9.1875 134.4248 9.1875 Q133.7217 9.1875 133.3232 9.6484 Q132.9248 10.1094 132.9248 10.9062 L132.9248 14 L132.0186 14 L132.0186 10.7344 Q132.0186 9.9375 131.7373 9.5625 Q131.4561 9.1875 130.8779 9.1875 Q130.1904 9.1875 129.7842 9.6484 Q129.3779 10.1094 129.3779 10.9062 L129.3779 14 L128.4717 14 L128.4717 8.5312 L129.3779 8.5312 L129.3779 9.375 Q129.6904 8.875 130.1201 8.6406 Q130.5498 8.4062 131.1279 8.4062 Q131.7373 8.4062 132.1514 8.7031 Q132.5654 9 132.7686 9.5781 Z"
         style="clip-path:url(#clipPath2); stroke:none;"
         clip-path="url(#clipPath2)"
         id="path172" />
      <path
         d="M5.3438 26.6719 L2.4062 26.6719 L1.9375 28 L0.0469 28 L2.75 20.7031 L4.9844 20.7031 L7.6875 28 L5.7969 28 L5.3438 26.6719 ZM2.875 25.3125 L4.875 25.3125 L3.875 22.4219 L2.875 25.3125 ZM7.8955 22.5312 L9.6455 22.5312 L11.0049 26.3125 L12.3643 22.5312 L14.1143 22.5312 L11.958 28 L10.0361 28 L7.8955 22.5312 ZM17.5547 25.5312 Q17.0078 25.5312 16.7266 25.7188 Q16.4453 25.9062 16.4453 26.2656 Q16.4453 26.6094 16.6719 26.7969 Q16.8984 26.9844 17.2891 26.9844 Q17.7891 26.9844 18.125 26.625 Q18.4609 26.2656 18.4609 25.7344 L18.4609 25.5312 L17.5547 25.5312 ZM20.2266 24.875 L20.2266 28 L18.4609 28 L18.4609 27.1875 Q18.1016 27.6875 17.6641 27.9141 Q17.2266 28.1406 16.6016 28.1406 Q15.7422 28.1406 15.2188 27.6484 Q14.6953 27.1562 14.6953 26.3594 Q14.6953 25.3906 15.3516 24.9453 Q16.0078 24.5 17.4297 24.5 L18.4609 24.5 L18.4609 24.3594 Q18.4609 23.9531 18.1328 23.7578 Q17.8047 23.5625 17.1172 23.5625 Q16.5547 23.5625 16.0703 23.6719 Q15.5859 23.7812 15.1641 24.0156 L15.1641 22.6719 Q15.7266 22.5469 16.2969 22.4766 Q16.8672 22.4062 17.4297 22.4062 Q18.9141 22.4062 19.5703 22.9844 Q20.2266 23.5625 20.2266 24.875 ZM21.8496 22.5312 L23.5996 22.5312 L23.5996 28 L21.8496 28 L21.8496 22.5312 ZM21.8496 20.4062 L23.5996 20.4062 L23.5996 21.8281 L21.8496 21.8281 L21.8496 20.4062 ZM25.2773 20.4062 L27.0273 20.4062 L27.0273 28 L25.2773 28 L25.2773 20.4062 ZM31.1582 25.5312 Q30.6113 25.5312 30.3301 25.7188 Q30.0488 25.9062 30.0488 26.2656 Q30.0488 26.6094 30.2754 26.7969 Q30.502 26.9844 30.8926 26.9844 Q31.3926 26.9844 31.7285 26.625 Q32.0645 26.2656 32.0645 25.7344 L32.0645 25.5312 L31.1582 25.5312 ZM33.8301 24.875 L33.8301 28 L32.0645 28 L32.0645 27.1875 Q31.7051 27.6875 31.2676 27.9141 Q30.8301 28.1406 30.2051 28.1406 Q29.3457 28.1406 28.8223 27.6484 Q28.2988 27.1562 28.2988 26.3594 Q28.2988 25.3906 28.9551 24.9453 Q29.6113 24.5 31.0332 24.5 L32.0645 24.5 L32.0645 24.3594 Q32.0645 23.9531 31.7363 23.7578 Q31.4082 23.5625 30.7207 23.5625 Q30.1582 23.5625 29.6738 23.6719 Q29.1895 23.7812 28.7676 24.0156 L28.7676 22.6719 Q29.3301 22.5469 29.9004 22.4766 Q30.4707 22.4062 31.0332 22.4062 Q32.5176 22.4062 33.1738 22.9844 Q33.8301 23.5625 33.8301 24.875 ZM38.3594 26.875 Q38.9219 26.875 39.2188 26.4609 Q39.5156 26.0469 39.5156 25.2656 Q39.5156 24.4844 39.2188 24.0781 Q38.9219 23.6719 38.3594 23.6719 Q37.7969 23.6719 37.5 24.0859 Q37.2031 24.5 37.2031 25.2656 Q37.2031 26.0469 37.5 26.4609 Q37.7969 26.875 38.3594 26.875 ZM37.2031 23.3281 Q37.5625 22.8594 38 22.6328 Q38.4375 22.4062 39.0156 22.4062 Q40.0156 22.4062 40.6641 23.2031 Q41.3125 24 41.3125 25.2656 Q41.3125 26.5312 40.6641 27.3359 Q40.0156 28.1406 39.0156 28.1406 Q38.4375 28.1406 38 27.9141 Q37.5625 27.6875 37.2031 27.2031 L37.2031 28 L35.4531 28 L35.4531 20.4062 L37.2031 20.4062 L37.2031 23.3281 ZM42.6113 22.5312 L44.3613 22.5312 L44.3613 28 L42.6113 28 L42.6113 22.5312 ZM42.6113 20.4062 L44.3613 20.4062 L44.3613 21.8281 L42.6113 21.8281 L42.6113 20.4062 ZM46.0391 20.4062 L47.7891 20.4062 L47.7891 28 L46.0391 28 L46.0391 20.4062 ZM49.4668 22.5312 L51.2168 22.5312 L51.2168 28 L49.4668 28 L49.4668 22.5312 ZM49.4668 20.4062 L51.2168 20.4062 L51.2168 21.8281 L49.4668 21.8281 L49.4668 20.4062 ZM54.8008 20.9844 L54.8008 22.5312 L56.5977 22.5312 L56.5977 23.7812 L54.8008 23.7812 L54.8008 26.0938 Q54.8008 26.4844 54.9492 26.6172 Q55.0977 26.75 55.5508 26.75 L56.457 26.75 L56.457 28 L54.957 28 Q53.9102 28 53.4805 27.5703 Q53.0508 27.1406 53.0508 26.0938 L53.0508 23.7812 L52.1758 23.7812 L52.1758 22.5312 L53.0508 22.5312 L53.0508 20.9844 L54.8008 20.9844 ZM56.9561 22.5312 L58.7061 22.5312 L60.1748 26.2344 L61.4248 22.5312 L63.1748 22.5312 L60.8623 28.5156 Q60.5186 29.4375 60.0576 29.7969 Q59.5967 30.1562 58.8467 30.1562 L57.8311 30.1562 L57.8311 29.0156 L58.3779 29.0156 Q58.8311 29.0156 59.0264 28.875 Q59.2217 28.7344 59.3467 28.3594 L59.3936 28.2031 L56.9561 22.5312 ZM64.4746 22.5312 L66.2246 22.5312 L66.2246 24.4219 L64.4746 24.4219 L64.4746 22.5312 ZM64.4746 26.1094 L66.2246 26.1094 L66.2246 28 L64.4746 28 L64.4746 26.1094 Z"
         style="clip-path:url(#clipPath2); stroke:none;"
         clip-path="url(#clipPath2)"
         id="path174" />
      <path
         d="M82.4375 21.2656 L82.4375 22.3125 Q81.9375 21.8438 81.375 21.6172 Q80.8125 21.3906 80.1875 21.3906 Q78.9375 21.3906 78.2734 22.1562 Q77.6094 22.9219 77.6094 24.3594 Q77.6094 25.7969 78.2734 26.5625 Q78.9375 27.3281 80.1875 27.3281 Q80.8125 27.3281 81.375 27.1016 Q81.9375 26.875 82.4375 26.4062 L82.4375 27.4375 Q81.9219 27.7969 81.3438 27.9688 Q80.7656 28.1406 80.125 28.1406 Q78.4688 28.1406 77.5156 27.125 Q76.5625 26.1094 76.5625 24.3594 Q76.5625 22.6094 77.5156 21.5938 Q78.4688 20.5781 80.125 20.5781 Q80.7812 20.5781 81.3594 20.75 Q81.9375 20.9219 82.4375 21.2656 ZM89.4199 21.2656 L89.4199 22.3125 Q88.9199 21.8438 88.3574 21.6172 Q87.7949 21.3906 87.1699 21.3906 Q85.9199 21.3906 85.2559 22.1562 Q84.5918 22.9219 84.5918 24.3594 Q84.5918 25.7969 85.2559 26.5625 Q85.9199 27.3281 87.1699 27.3281 Q87.7949 27.3281 88.3574 27.1016 Q88.9199 26.875 89.4199 26.4062 L89.4199 27.4375 Q88.9043 27.7969 88.3262 27.9688 Q87.748 28.1406 87.1074 28.1406 Q85.4512 28.1406 84.498 27.125 Q83.5449 26.1094 83.5449 24.3594 Q83.5449 22.6094 84.498 21.5938 Q85.4512 20.5781 87.1074 20.5781 Q87.7637 20.5781 88.3418 20.75 Q88.9199 20.9219 89.4199 21.2656 ZM95.1123 24.5156 L95.1123 27.1875 L96.6904 27.1875 Q97.4873 27.1875 97.8701 26.8594 Q98.2529 26.5312 98.2529 25.8438 Q98.2529 25.1719 97.8701 24.8438 Q97.4873 24.5156 96.6904 24.5156 L95.1123 24.5156 ZM95.1123 21.5156 L95.1123 23.7188 L96.5654 23.7188 Q97.2998 23.7188 97.6514 23.4453 Q98.0029 23.1719 98.0029 22.625 Q98.0029 22.0625 97.6514 21.7891 Q97.2998 21.5156 96.5654 21.5156 L95.1123 21.5156 ZM94.1279 20.7031 L96.6436 20.7031 Q97.7686 20.7031 98.3779 21.1719 Q98.9873 21.6406 98.9873 22.5156 Q98.9873 23.1875 98.6748 23.5781 Q98.3623 23.9688 97.7686 24.0625 Q98.4873 24.2188 98.8936 24.7188 Q99.2998 25.2188 99.2998 25.9531 Q99.2998 26.9375 98.6357 27.4688 Q97.9717 28 96.7373 28 L94.1279 28 L94.1279 20.7031 ZM99.9883 20.7031 L101.0508 20.7031 L103.0664 23.7031 L105.0664 20.7031 L106.1289 20.7031 L103.5508 24.5312 L103.5508 28 L102.5664 28 L102.5664 24.5312 L99.9883 20.7031 ZM111.2129 27.1719 L114.6504 27.1719 L114.6504 28 L110.0254 28 L110.0254 27.1719 Q110.5879 26.5938 111.5566 25.6094 Q112.5254 24.625 112.7754 24.3438 Q113.2441 23.8125 113.4316 23.4453 Q113.6191 23.0781 113.6191 22.7188 Q113.6191 22.1406 113.2129 21.7734 Q112.8066 21.4062 112.1504 21.4062 Q111.6816 21.4062 111.1738 21.5703 Q110.666 21.7344 110.0723 22.0625 L110.0723 21.0625 Q110.666 20.8281 111.1816 20.7031 Q111.6973 20.5781 112.1348 20.5781 Q113.2598 20.5781 113.9395 21.1406 Q114.6191 21.7031 114.6191 22.6562 Q114.6191 23.1094 114.4473 23.5078 Q114.2754 23.9062 113.8379 24.4531 Q113.7129 24.5938 113.0566 25.2734 Q112.4004 25.9531 111.2129 27.1719 ZM116.7158 26.7656 L117.7471 26.7656 L117.7471 28 L116.7158 28 L116.7158 26.7656 ZM122.0039 21.3594 Q121.2539 21.3594 120.8711 22.1094 Q120.4883 22.8594 120.4883 24.3594 Q120.4883 25.8594 120.8711 26.6094 Q121.2539 27.3594 122.0039 27.3594 Q122.7852 27.3594 123.168 26.6094 Q123.5508 25.8594 123.5508 24.3594 Q123.5508 22.8594 123.168 22.1094 Q122.7852 21.3594 122.0039 21.3594 ZM122.0039 20.5781 Q123.2383 20.5781 123.8867 21.5469 Q124.5352 22.5156 124.5352 24.3594 Q124.5352 26.2031 123.8867 27.1719 Q123.2383 28.1406 122.0039 28.1406 Q120.7852 28.1406 120.1367 27.1719 Q119.4883 26.2031 119.4883 24.3594 Q119.4883 22.5156 120.1367 21.5469 Q120.7852 20.5781 122.0039 20.5781 Z"
         style="clip-path:url(#clipPath2); stroke:none;"
         clip-path="url(#clipPath2)"
         id="path176" />
      <path
         d="M4.25 35.9375 Q3.3906 35.9375 2.9141 36.5703 Q2.4375 37.2031 2.4375 38.3594 Q2.4375 39.5156 2.9141 40.1484 Q3.3906 40.7812 4.25 40.7812 Q5.1094 40.7812 5.5859 40.1484 Q6.0625 39.5156 6.0625 38.3594 Q6.0625 37.2031 5.5859 36.5703 Q5.1094 35.9375 4.25 35.9375 ZM4.25 34.5781 Q6 34.5781 7 35.5859 Q8 36.5938 8 38.3594 Q8 40.125 7 41.1328 Q6 42.1406 4.25 42.1406 Q2.5 42.1406 1.5 41.1328 Q0.5 40.125 0.5 38.3594 Q0.5 36.5938 1.5 35.5859 Q2.5 34.5781 4.25 34.5781 ZM13.4072 38.0156 Q13.1729 37.9062 12.9463 37.8594 Q12.7197 37.8125 12.4854 37.8125 Q11.8135 37.8125 11.4541 38.2422 Q11.0947 38.6719 11.0947 39.4844 L11.0947 42 L9.3447 42 L9.3447 36.5312 L11.0947 36.5312 L11.0947 37.4219 Q11.4229 36.8906 11.8604 36.6484 Q12.2979 36.4062 12.9072 36.4062 Q13.001 36.4062 13.1025 36.4062 Q13.2041 36.4062 13.3916 36.4375 L13.4072 38.0156 ZM17.9951 41.0781 Q17.6357 41.5469 17.1982 41.7734 Q16.7607 42 16.1982 42 Q15.1982 42 14.542 41.2109 Q13.8857 40.4219 13.8857 39.2031 Q13.8857 37.9688 14.542 37.1875 Q15.1982 36.4062 16.1982 36.4062 Q16.7607 36.4062 17.1982 36.6328 Q17.6357 36.8594 17.9951 37.3438 L17.9951 36.5312 L19.7451 36.5312 L19.7451 41.4531 Q19.7451 42.7656 18.917 43.4609 Q18.0889 44.1562 16.5107 44.1562 Q15.9951 44.1562 15.5186 44.0781 Q15.042 44 14.5576 43.8438 L14.5576 42.4844 Q15.0107 42.75 15.4482 42.875 Q15.8857 43 16.3389 43 Q17.1982 43 17.5967 42.625 Q17.9951 42.25 17.9951 41.4531 L17.9951 41.0781 ZM16.8389 37.6719 Q16.292 37.6719 15.9951 38.0703 Q15.6982 38.4688 15.6982 39.2031 Q15.6982 39.9531 15.9873 40.3438 Q16.2764 40.7344 16.8389 40.7344 Q17.3857 40.7344 17.6904 40.3281 Q17.9951 39.9219 17.9951 39.2031 Q17.9951 38.4688 17.6904 38.0703 Q17.3857 37.6719 16.8389 37.6719 ZM23.8877 39.5312 Q23.3408 39.5312 23.0596 39.7188 Q22.7783 39.9062 22.7783 40.2656 Q22.7783 40.6094 23.0049 40.7969 Q23.2314 40.9844 23.6221 40.9844 Q24.1221 40.9844 24.458 40.625 Q24.7939 40.2656 24.7939 39.7344 L24.7939 39.5312 L23.8877 39.5312 ZM26.5596 38.875 L26.5596 42 L24.7939 42 L24.7939 41.1875 Q24.4346 41.6875 23.9971 41.9141 Q23.5596 42.1406 22.9346 42.1406 Q22.0752 42.1406 21.5518 41.6484 Q21.0283 41.1562 21.0283 40.3594 Q21.0283 39.3906 21.6846 38.9453 Q22.3408 38.5 23.7627 38.5 L24.7939 38.5 L24.7939 38.3594 Q24.7939 37.9531 24.4658 37.7578 Q24.1377 37.5625 23.4502 37.5625 Q22.8877 37.5625 22.4033 37.6719 Q21.9189 37.7812 21.4971 38.0156 L21.4971 36.6719 Q22.0596 36.5469 22.6299 36.4766 Q23.2002 36.4062 23.7627 36.4062 Q25.2471 36.4062 25.9033 36.9844 Q26.5596 37.5625 26.5596 38.875 ZM33.6826 38.6719 L33.6826 42 L31.917 42 L31.917 41.4531 L31.917 39.4531 Q31.917 38.75 31.8857 38.4766 Q31.8545 38.2031 31.7764 38.0781 Q31.6826 37.9062 31.5029 37.8125 Q31.3232 37.7188 31.1045 37.7188 Q30.5576 37.7188 30.2451 38.1406 Q29.9326 38.5625 29.9326 39.3125 L29.9326 42 L28.1826 42 L28.1826 36.5312 L29.9326 36.5312 L29.9326 37.3281 Q30.3232 36.8594 30.7686 36.6328 Q31.2139 36.4062 31.7451 36.4062 Q32.6982 36.4062 33.1904 36.9844 Q33.6826 37.5625 33.6826 38.6719 ZM35.3018 36.5312 L37.0518 36.5312 L37.0518 42 L35.3018 42 L35.3018 36.5312 ZM35.3018 34.4062 L37.0518 34.4062 L37.0518 35.8281 L35.3018 35.8281 L35.3018 34.4062 ZM42.9951 36.7031 L42.9951 38.0312 Q42.4326 37.7969 41.9092 37.6797 Q41.3857 37.5625 40.9326 37.5625 Q40.4326 37.5625 40.1904 37.6875 Q39.9482 37.8125 39.9482 38.0625 Q39.9482 38.2812 40.1279 38.3906 Q40.3076 38.5 40.792 38.5625 L41.0889 38.5938 Q42.4326 38.7656 42.9014 39.1562 Q43.3701 39.5469 43.3701 40.3906 Q43.3701 41.2656 42.7217 41.7031 Q42.0732 42.1406 40.792 42.1406 Q40.2607 42.1406 39.6826 42.0547 Q39.1045 41.9688 38.4795 41.7969 L38.4795 40.4688 Q39.0107 40.7188 39.5576 40.8516 Q40.1045 40.9844 40.667 40.9844 Q41.1826 40.9844 41.4404 40.8438 Q41.6982 40.7031 41.6982 40.4219 Q41.6982 40.1875 41.5264 40.0703 Q41.3545 39.9531 40.8232 39.8906 L40.5107 39.8438 Q39.3389 39.7031 38.8701 39.3047 Q38.4014 38.9062 38.4014 38.1094 Q38.4014 37.2344 38.9951 36.8203 Q39.5889 36.4062 40.8232 36.4062 Q41.3076 36.4062 41.8389 36.4766 Q42.3701 36.5469 42.9951 36.7031 ZM49.7441 37.4375 Q50.0723 36.9375 50.5332 36.6719 Q50.9941 36.4062 51.541 36.4062 Q52.4785 36.4062 52.9707 36.9844 Q53.4629 37.5625 53.4629 38.6719 L53.4629 42 L51.7129 42 L51.7129 39.1406 Q51.7129 39.0781 51.7129 39.0156 Q51.7129 38.9531 51.7129 38.8281 Q51.7129 38.2344 51.5488 37.9766 Q51.3848 37.7188 50.9941 37.7188 Q50.4941 37.7188 50.2285 38.125 Q49.9629 38.5312 49.9473 39.3125 L49.9473 42 L48.1816 42 L48.1816 39.1406 Q48.1816 38.2344 48.0254 37.9766 Q47.8691 37.7188 47.4785 37.7188 Q46.9785 37.7188 46.7051 38.1328 Q46.4316 38.5469 46.4316 39.3125 L46.4316 42 L44.666 42 L44.666 36.5312 L46.4316 36.5312 L46.4316 37.3281 Q46.7441 36.875 47.166 36.6406 Q47.5879 36.4062 48.0879 36.4062 Q48.6504 36.4062 49.0879 36.6797 Q49.5254 36.9531 49.7441 37.4375 ZM55.3828 36.5312 L57.1328 36.5312 L57.1328 38.4219 L55.3828 38.4219 L55.3828 36.5312 ZM55.3828 40.1094 L57.1328 40.1094 L57.1328 42 L55.3828 42 L55.3828 40.1094 Z"
         style="clip-path:url(#clipPath2); stroke:none;"
         clip-path="url(#clipPath2)"
         id="path178" />
      <path
         d="M66.9844 34.7031 L67.9688 34.7031 L67.9688 37.7031 L71.5469 37.7031 L71.5469 34.7031 L72.5312 34.7031 L72.5312 42 L71.5469 42 L71.5469 38.5312 L67.9688 38.5312 L67.9688 42 L66.9844 42 L66.9844 34.7031 ZM76.582 37.1562 Q75.8633 37.1562 75.4414 37.7188 Q75.0195 38.2812 75.0195 39.2656 Q75.0195 40.25 75.4336 40.8125 Q75.8477 41.375 76.582 41.375 Q77.3008 41.375 77.7227 40.8125 Q78.1445 40.25 78.1445 39.2656 Q78.1445 38.2969 77.7227 37.7266 Q77.3008 37.1562 76.582 37.1562 ZM76.582 36.4062 Q77.7539 36.4062 78.4258 37.1641 Q79.0977 37.9219 79.0977 39.2656 Q79.0977 40.6094 78.4258 41.375 Q77.7539 42.1406 76.582 42.1406 Q75.4102 42.1406 74.7383 41.375 Q74.0664 40.6094 74.0664 39.2656 Q74.0664 37.9219 74.7383 37.1641 Q75.4102 36.4062 76.582 36.4062 ZM84.8408 37.5781 Q85.1689 36.9688 85.6377 36.6875 Q86.1064 36.4062 86.7471 36.4062 Q87.6064 36.4062 88.0674 37 Q88.5283 37.5938 88.5283 38.7031 L88.5283 42 L87.6221 42 L87.6221 38.7344 Q87.6221 37.9375 87.3486 37.5625 Q87.0752 37.1875 86.4971 37.1875 Q85.7939 37.1875 85.3955 37.6484 Q84.9971 38.1094 84.9971 38.9062 L84.9971 42 L84.0908 42 L84.0908 38.7344 Q84.0908 37.9375 83.8096 37.5625 Q83.5283 37.1875 82.9502 37.1875 Q82.2627 37.1875 81.8564 37.6484 Q81.4502 38.1094 81.4502 38.9062 L81.4502 42 L80.5439 42 L80.5439 36.5312 L81.4502 36.5312 L81.4502 37.375 Q81.7627 36.875 82.1924 36.6406 Q82.6221 36.4062 83.2002 36.4062 Q83.8096 36.4062 84.2236 36.7031 Q84.6377 37 84.8408 37.5781 ZM92.4414 37.1562 Q91.7227 37.1562 91.3008 37.7188 Q90.8789 38.2812 90.8789 39.2656 Q90.8789 40.25 91.293 40.8125 Q91.707 41.375 92.4414 41.375 Q93.1602 41.375 93.582 40.8125 Q94.0039 40.25 94.0039 39.2656 Q94.0039 38.2969 93.582 37.7266 Q93.1602 37.1562 92.4414 37.1562 ZM92.4414 36.4062 Q93.6133 36.4062 94.2852 37.1641 Q94.957 37.9219 94.957 39.2656 Q94.957 40.6094 94.2852 41.375 Q93.6133 42.1406 92.4414 42.1406 Q91.2695 42.1406 90.5977 41.375 Q89.9258 40.6094 89.9258 39.2656 Q89.9258 37.9219 90.5977 37.1641 Q91.2695 36.4062 92.4414 36.4062 ZM103.0977 36.6875 L103.0977 37.5469 Q102.7227 37.3438 102.3164 37.25 Q101.9102 37.1562 101.457 37.1562 Q100.8008 37.1562 100.4648 37.3594 Q100.1289 37.5625 100.1289 37.9688 Q100.1289 38.2812 100.3633 38.4609 Q100.5977 38.6406 101.332 38.7969 L101.6289 38.875 Q102.5977 39.0781 102.9961 39.4531 Q103.3945 39.8281 103.3945 40.4844 Q103.3945 41.25 102.793 41.6953 Q102.1914 42.1406 101.1445 42.1406 Q100.6914 42.1406 100.2148 42.0547 Q99.7383 41.9688 99.2227 41.7969 L99.2227 40.875 Q99.7227 41.125 100.1992 41.2578 Q100.6758 41.3906 101.1602 41.3906 Q101.7852 41.3906 102.1289 41.1719 Q102.4727 40.9531 102.4727 40.5625 Q102.4727 40.1875 102.2305 39.9922 Q101.9883 39.7969 101.1445 39.625 L100.832 39.5469 Q100.0039 39.375 99.6289 39.0078 Q99.2539 38.6406 99.2539 38.0156 Q99.2539 37.2344 99.8008 36.8203 Q100.3477 36.4062 101.3633 36.4062 Q101.8477 36.4062 102.293 36.4766 Q102.7383 36.5469 103.0977 36.6875 ZM107.3076 39.25 Q106.2295 39.25 105.8076 39.5 Q105.3857 39.75 105.3857 40.3438 Q105.3857 40.8281 105.6982 41.1094 Q106.0107 41.3906 106.5576 41.3906 Q107.3076 41.3906 107.7607 40.8594 Q108.2139 40.3281 108.2139 39.4531 L108.2139 39.25 L107.3076 39.25 ZM109.1045 38.875 L109.1045 42 L108.2139 42 L108.2139 41.1719 Q107.9014 41.6719 107.4404 41.9062 Q106.9795 42.1406 106.3232 42.1406 Q105.4795 42.1406 104.9795 41.6719 Q104.4795 41.2031 104.4795 40.4062 Q104.4795 39.4844 105.1045 39.0156 Q105.7295 38.5469 106.9482 38.5469 L108.2139 38.5469 L108.2139 38.4531 Q108.2139 37.8438 107.7998 37.5 Q107.3857 37.1562 106.6514 37.1562 Q106.1826 37.1562 105.7373 37.2734 Q105.292 37.3906 104.8857 37.6094 L104.8857 36.7812 Q105.3857 36.5938 105.8467 36.5 Q106.3076 36.4062 106.7451 36.4062 Q107.9326 36.4062 108.5186 37.0156 Q109.1045 37.625 109.1045 38.875 ZM111.8262 41.1719 L111.8262 44.0781 L110.9199 44.0781 L110.9199 36.5312 L111.8262 36.5312 L111.8262 37.3594 Q112.1074 36.875 112.5371 36.6406 Q112.9668 36.4062 113.5762 36.4062 Q114.5762 36.4062 115.1934 37.1953 Q115.8105 37.9844 115.8105 39.2656 Q115.8105 40.5625 115.1934 41.3516 Q114.5762 42.1406 113.5762 42.1406 Q112.9668 42.1406 112.5371 41.9062 Q112.1074 41.6719 111.8262 41.1719 ZM114.8887 39.2656 Q114.8887 38.2812 114.4746 37.7188 Q114.0605 37.1562 113.3574 37.1562 Q112.6387 37.1562 112.2324 37.7188 Q111.8262 38.2812 111.8262 39.2656 Q111.8262 40.2656 112.2324 40.8281 Q112.6387 41.3906 113.3574 41.3906 Q114.0605 41.3906 114.4746 40.8281 Q114.8887 40.2656 114.8887 39.2656 ZM117.2988 36.5312 L118.2051 36.5312 L118.2051 42 L117.2988 42 L117.2988 36.5312 ZM117.2988 34.4062 L118.2051 34.4062 L118.2051 35.5469 L117.2988 35.5469 L117.2988 34.4062 ZM124.7646 39.0469 L124.7646 39.4844 L120.624 39.4844 Q120.6865 40.4062 121.1865 40.8906 Q121.6865 41.375 122.5771 41.375 Q123.0928 41.375 123.585 41.25 Q124.0771 41.125 124.5459 40.875 L124.5459 41.7188 Q124.0615 41.9219 123.5537 42.0312 Q123.0459 42.1406 122.5303 42.1406 Q121.2178 42.1406 120.4521 41.3828 Q119.6865 40.625 119.6865 39.3125 Q119.6865 37.9688 120.4131 37.1875 Q121.1396 36.4062 122.374 36.4062 Q123.4834 36.4062 124.124 37.1094 Q124.7646 37.8125 124.7646 39.0469 ZM123.8584 38.7812 Q123.8584 38.0469 123.4521 37.6016 Q123.0459 37.1562 122.3896 37.1562 Q121.624 37.1562 121.1787 37.5859 Q120.7334 38.0156 120.6553 38.7812 L123.8584 38.7812 ZM130.7764 38.7031 L130.7764 42 L129.8857 42 L129.8857 38.7344 Q129.8857 37.9531 129.5811 37.5703 Q129.2764 37.1875 128.667 37.1875 Q127.9482 37.1875 127.5264 37.6484 Q127.1045 38.1094 127.1045 38.9062 L127.1045 42 L126.1982 42 L126.1982 36.5312 L127.1045 36.5312 L127.1045 37.375 Q127.4326 36.8906 127.8701 36.6484 Q128.3076 36.4062 128.8701 36.4062 Q129.8076 36.4062 130.292 36.9844 Q130.7764 37.5625 130.7764 38.7031 ZM136.0518 36.6875 L136.0518 37.5469 Q135.6768 37.3438 135.2705 37.25 Q134.8643 37.1562 134.4111 37.1562 Q133.7549 37.1562 133.4189 37.3594 Q133.083 37.5625 133.083 37.9688 Q133.083 38.2812 133.3174 38.4609 Q133.5518 38.6406 134.2861 38.7969 L134.583 38.875 Q135.5518 39.0781 135.9502 39.4531 Q136.3486 39.8281 136.3486 40.4844 Q136.3486 41.25 135.7471 41.6953 Q135.1455 42.1406 134.0986 42.1406 Q133.6455 42.1406 133.1689 42.0547 Q132.6924 41.9688 132.1768 41.7969 L132.1768 40.875 Q132.6768 41.125 133.1533 41.2578 Q133.6299 41.3906 134.1143 41.3906 Q134.7393 41.3906 135.083 41.1719 Q135.4268 40.9531 135.4268 40.5625 Q135.4268 40.1875 135.1846 39.9922 Q134.9424 39.7969 134.0986 39.625 L133.7861 39.5469 Q132.958 39.375 132.583 39.0078 Q132.208 38.6406 132.208 38.0156 Q132.208 37.2344 132.7549 36.8203 Q133.3018 36.4062 134.3174 36.4062 Q134.8018 36.4062 135.2471 36.4766 Q135.6924 36.5469 136.0518 36.6875 Z"
         style="clip-path:url(#clipPath2); stroke:none;"
         clip-path="url(#clipPath2)"
         id="path180" />
    </g>
    <g
       style="text-rendering:geometricPrecision;"
       id="g190">
      <path
         d="M217.5 162 L217.2083 176.0022"
         style="fill:none; clip-path:url(#clipPath3);"
         clip-path="url(#clipPath3)"
         id="path184" />
      <path
         d="M216.9917 186.3999 C214.1204 186.3401 211.8413 183.964 211.9011 181.0927 C211.9609 178.2215 214.337 175.9424 217.2083 176.0022 C220.0795 176.062 222.3587 178.4381 222.2988 181.3094 C222.239 184.1806 219.8629 186.4597 216.9917 186.3999 Z"
         style="fill:white; clip-path:url(#clipPath3); stroke:none;"
         clip-path="url(#clipPath3)"
         id="path186" />
      <path
         d="M216.9917 186.3999 C214.1204 186.3401 211.8413 183.964 211.9011 181.0927 C211.9609 178.2215 214.337 175.9424 217.2083 176.0022 C220.0795 176.062 222.3587 178.4381 222.2988 181.3094 C222.239 184.1806 219.8629 186.4597 216.9917 186.3999 Z"
         style="fill:none; clip-path:url(#clipPath3);"
         clip-path="url(#clipPath3)"
         id="path188" />
    </g>
    <g
       style="text-rendering:geometricPrecision;"
       id="g196">
      <path
         d="M348 223 L348.5 337"
         style="fill:none; clip-path:url(#clipPath4);"
         clip-path="url(#clipPath4)"
         id="path192" />
      <path
         d="M348.5 337 L353.6486 325.2773 L343.2487 325.3229 Z"
         style="clip-path:url(#clipPath4); fill-rule:evenodd; stroke:none;"
         clip-path="url(#clipPath4)"
         id="path194" />
    </g>
    <g
       style="text-rendering:geometricPrecision;"
       id="g202">
      <path
         d="M408 213 L494 213 M494 213 L494 336"
         style="fill:none; clip-path:url(#clipPath5);"
         clip-path="url(#clipPath5)"
         id="path198" />
      <path
         d="M408 213 L419.7 218.2 L419.7 207.8 Z"
         style="clip-path:url(#clipPath5); fill-rule:evenodd; stroke:none;"
         clip-path="url(#clipPath5)"
         id="path200" />
    </g>
    <g
       style="text-rendering:geometricPrecision;"
       id="g208">
      <path
         d="M348 203 L340 64"
         style="fill:none; clip-path:url(#clipPath6);"
         clip-path="url(#clipPath6)"
         id="path204" />
      <path
         d="M340 64 L335.4809 75.9795 L345.8637 75.3819 Z"
         style="clip-path:url(#clipPath6); fill-rule:evenodd; stroke:none;"
         clip-path="url(#clipPath6)"
         id="path206" />
    </g>
    <g
       style="text-rendering:geometricPrecision;"
       id="g214">
      <path
         d="M368 203 L424 65"
         style="fill:none; clip-path:url(#clipPath7);"
         clip-path="url(#clipPath7)"
         id="path210" />
      <path
         d="M424 65 L414.7822 73.8861 L424.419 77.7967 Z"
         style="clip-path:url(#clipPath7); fill-rule:evenodd; stroke:none;"
         clip-path="url(#clipPath7)"
         id="path212" />
    </g>
    <g
       style="text-rendering:geometricPrecision;"
       id="g220">
      <path
         d="M494 356 L494 397"
         style="fill:none; clip-path:url(#clipPath8);"
         clip-path="url(#clipPath8)"
         id="path216" />
      <path
         d="M494 397 L499.2 385.3 L488.8 385.3 Z"
         style="clip-path:url(#clipPath8); fill-rule:evenodd; stroke:none;"
         clip-path="url(#clipPath8)"
         id="path218" />
    </g>
    <g
       style="text-rendering:geometricPrecision;"
       id="g228">
      <path
         d="M337 313 L344.261 296.4669"
         style="fill:none; clip-path:url(#clipPath9);"
         clip-path="url(#clipPath9)"
         id="path222" />
      <path
         d="M348.4429 286.9447 C351.0724 288.0995 352.2678 291.1673 351.113 293.7968 C349.9582 296.4263 346.8904 297.6217 344.261 296.4669 C341.6315 295.3121 340.4361 292.2443 341.5909 289.6149 C342.7457 286.9854 345.8134 285.7899 348.4429 286.9447 Z"
         style="fill:white; clip-path:url(#clipPath9); stroke:none;"
         clip-path="url(#clipPath9)"
         id="path224" />
      <path
         d="M348.4429 286.9447 C351.0724 288.0995 352.2678 291.1673 351.113 293.7968 C349.9582 296.4263 346.8904 297.6217 344.261 296.4669 C341.6315 295.3121 340.4361 292.2443 341.5909 289.6149 C342.7457 286.9854 345.8134 285.7899 348.4429 286.9447 Z"
         style="fill:none; clip-path:url(#clipPath9);"
         clip-path="url(#clipPath9)"
         id="path226" />
    </g>
    <g
       style="text-rendering:geometricPrecision;"
       id="g232">
      <path
         d="M268.25 232 C268.25 232 267.838 226.8148 266.3958 222 C266.3958 222 264.9537 217.1852 261.0393 214.5926 C261.0393 214.5926 257.125 212 253.2106 210.3148 C253.2106 210.3148 249.2963 208.6296 247.8542 205.5 C246.412 202.3704 246 199 246 199"
         style="fill:none; clip-path:url(#clipPath10);"
         clip-path="url(#clipPath10)"
         id="path230" />
    </g>
    <g
       style="text-rendering:geometricPrecision;"
       id="g238">
      <path
         d="M103 158 L103 118"
         style="fill:none; clip-path:url(#clipPath11);"
         clip-path="url(#clipPath11)"
         id="path234" />
      <path
         d="M103 118 L97.8 129.7 L108.2 129.7 Z"
         style="clip-path:url(#clipPath11); fill-rule:evenodd; stroke:none;"
         clip-path="url(#clipPath11)"
         id="path236" />
    </g>
    <g
       style="text-rendering:geometricPrecision;"
       id="g244">
      <path
         d="M348 203 L246 83"
         style="fill:none; clip-path:url(#clipPath12);"
         clip-path="url(#clipPath12)"
         id="path240" />
      <path
         d="M246 83 L249.6154 95.2825 L257.5396 88.5469 Z"
         style="clip-path:url(#clipPath12); fill-rule:evenodd; stroke:none;"
         clip-path="url(#clipPath12)"
         id="path242" />
    </g>
    <g
       style="text-rendering:geometricPrecision;"
       id="g250">
      <path
         d="M409 314 C409 314 414.1852 312.8148 419 308.6667 C419 308.6667 423.8148 304.5185 426.4074 293.2592 C426.4074 293.2592 429 282 424.9815 270.7408 C424.9815 270.7408 420.963 259.4815 413.5 255.3333 C406.037 251.1852 398 250 398 250"
         style="fill:none; clip-path:url(#clipPath13);"
         clip-path="url(#clipPath13)"
         id="path246" />
      <path
         d="M398 250 L408.8162 256.8513 L410.3334 246.5625 Z"
         style="clip-path:url(#clipPath13); fill-rule:evenodd; stroke:none;"
         clip-path="url(#clipPath13)"
         id="path248" />
    </g>
    <g
       style="text-rendering:geometricPrecision;"
       id="g256">
      <path
         d="M398 369 C398 369 398.611 363.037 400.7495 357.5 C400.7495 357.5 402.888 351.963 408.6926 348.9815 C408.6926 348.9815 414.4971 346 420.3016 346.0664 C420.3016 346.0664 426.1062 346.1327 428.2447 346.256 C430.3832 346.3792 430.9942 346.512 430.9942 346.512"
         style="fill:none; clip-path:url(#clipPath14);"
         clip-path="url(#clipPath14)"
         id="path252" />
      <path
         d="M430.9942 346.512 L420.6648 338.9467 L418.457 349.1097 Z"
         style="clip-path:url(#clipPath14); fill-rule:evenodd; stroke:none;"
         clip-path="url(#clipPath14)"
         id="path254" />
    </g>
    <g
       style="text-rendering:geometricPrecision;"
       id="g262">
      <path
         d="M368 203 L492 87"
         style="fill:none; clip-path:url(#clipPath15);"
         clip-path="url(#clipPath15)"
         id="path258" />
      <path
         d="M492 87 L479.9034 91.1955 L487.0082 98.7904 Z"
         style="clip-path:url(#clipPath15); fill-rule:evenodd; stroke:none;"
         clip-path="url(#clipPath15)"
         id="path260" />
    </g>
    <g
       style="text-rendering:geometricPrecision;"
       id="g268">
      <path
         d="M348.2821 287.311 C348.2821 287.311 348.2089 287.8052 348.141 289.5351 C348.141 289.5351 348.0731 291.2649 348.0366 295.9602 C348.0366 295.9602 348 300.6555 350.3333 305.3508 C350.3333 305.3508 352.6667 310.0461 357 311.7759 C361.3333 313.5058 366 314 366 314"
         style="fill:none; clip-path:url(#clipPath16);"
         clip-path="url(#clipPath16)"
         id="path264" />
      <path
         d="M366 314 L354.9127 307.5967 L353.8174 317.9388 Z"
         style="clip-path:url(#clipPath16); fill-rule:evenodd; stroke:none;"
         clip-path="url(#clipPath16)"
         id="path266" />
    </g>
    <g
       style="text-rendering:geometricPrecision;"
       id="g276">
      <path
         d="M328 213 L123 178"
         style="fill:none; clip-path:url(#clipPath17);"
         clip-path="url(#clipPath17)"
         id="path270" />
      <path
         d="M123 178 L133.658 185.0949 L135.4083 174.8432 Z"
         style="clip-path:url(#clipPath17); fill-rule:evenodd; stroke:none;"
         clip-path="url(#clipPath17)"
         id="path272" />
      <path
         d="M328 213 L317.342 205.9051 L315.5917 216.1568 Z"
         style="clip-path:url(#clipPath17); fill-rule:evenodd; stroke:none;"
         clip-path="url(#clipPath17)"
         id="path274" />
    </g>
    <g
       style="text-rendering:geometricPrecision;"
       id="g282">
      <path
         d="M390 347 L474 346"
         style="fill:none; clip-path:url(#clipPath18);"
         clip-path="url(#clipPath18)"
         id="path278" />
      <path
         d="M474 346 L462.2389 340.9396 L462.3627 351.3389 Z"
         style="clip-path:url(#clipPath18); fill-rule:evenodd; stroke:none;"
         clip-path="url(#clipPath18)"
         id="path280" />
    </g>
    <g
       style="text-rendering:geometricPrecision;"
       id="g288">
      <path
         d="M445 311 C445 311 439.8148 309.9815 435 306.4167 C435 306.4167 430.1852 302.8518 427.5926 293.1759 C427.5926 293.1759 425 283.5 427.2037 273.8241 C427.2037 273.8241 429.4074 264.1482 433.5 260.5833 C437.5926 257.0185 442 256 442 256"
         style="fill:none; clip-path:url(#clipPath19);"
         clip-path="url(#clipPath19)"
         id="path284" />
      <path
         d="M442 256 L429.4296 253.5679 L431.7712 263.7008 Z"
         style="clip-path:url(#clipPath19); fill-rule:evenodd; stroke:none;"
         clip-path="url(#clipPath19)"
         id="path286" />
    </g>
    <g
       style="text-rendering:geometricPrecision;"
       id="g294">
      <path
         d="M494 280.8085 C494 280.8085 493.7408 279.9788 493.5 277.0745 C493.5 277.0745 493.2592 274.1702 493.1296 266.2873 C493.1296 266.2873 493 258.4043 496.3704 250.5213 C496.3704 250.5213 499.7408 242.6383 506 239.734 C512.2593 236.8298 519 236 519 236"
         style="fill:none; clip-path:url(#clipPath20);"
         clip-path="url(#clipPath20)"
         id="path290" />
      <path
         d="M519 236 L506.7523 232.2684 L508.023 242.5905 Z"
         style="clip-path:url(#clipPath20); fill-rule:evenodd; stroke:none;"
         clip-path="url(#clipPath20)"
         id="path292" />
    </g>
    <g
       style="text-rendering:geometricPrecision;"
       id="g300">
      <path
         d="M365 250 C365 250 360.5926 250.6909 356.5 253.1093 C356.5 253.1093 352.4074 255.5276 350.2037 262.0915 C350.2037 262.0915 348 268.6555 348.0366 275.2195 C348.0366 275.2195 348.0731 281.7834 348.141 284.2017 C348.2089 286.62 348.2821 287.311 348.2821 287.311"
         style="fill:none; clip-path:url(#clipPath21);"
         clip-path="url(#clipPath21)"
         id="path296" />
      <path
         d="M348.2821 287.311 L352.2218 275.1287 L341.8795 276.2233 Z"
         style="clip-path:url(#clipPath21); fill-rule:evenodd; stroke:none;"
         clip-path="url(#clipPath21)"
         id="path298" />
    </g>
    <g
       style="text-rendering:geometricPrecision;"
       id="g308">
      <path
         d="M183 243 L217.888 202.8675"
         style="fill:none; clip-path:url(#clipPath22);"
         clip-path="url(#clipPath22)"
         id="path302" />
      <path
         d="M224.7112 195.0186 C226.8786 196.9028 227.1082 200.1872 225.224 202.3546 C223.3398 204.522 220.0554 204.7516 217.888 202.8675 C215.7206 200.9833 215.491 197.6989 217.3751 195.5315 C219.2593 193.3641 222.5437 193.1345 224.7112 195.0186 Z"
         style="fill:white; clip-path:url(#clipPath22); stroke:none;"
         clip-path="url(#clipPath22)"
         id="path304" />
      <path
         d="M224.7112 195.0186 C226.8786 196.9028 227.1082 200.1872 225.224 202.3546 C223.3398 204.522 220.0554 204.7516 217.888 202.8675 C215.7206 200.9833 215.491 197.6989 217.3751 195.5315 C219.2593 193.3641 222.5437 193.1345 224.7112 195.0186 Z"
         style="fill:none; clip-path:url(#clipPath22);"
         clip-path="url(#clipPath22)"
         id="path306" />
    </g>
    <g
       style="text-rendering:geometricPrecision;"
       id="g314">
      <path
         d="M430.9942 346.512 C430.9942 346.512 431.4758 346.6385 433.1613 346.756 C433.1613 346.756 434.8469 346.8735 439.422 346.9367 C439.422 346.9367 443.9971 347 448.5722 349.8518 C448.5722 349.8518 453.1473 352.7037 454.8329 358 C456.5184 363.2963 457 369 457 369"
         style="fill:none; clip-path:url(#clipPath23);"
         clip-path="url(#clipPath23)"
         id="path310" />
      <path
         d="M457 369 L461.1972 356.904 L450.834 357.779 Z"
         style="clip-path:url(#clipPath23); fill-rule:evenodd; stroke:none;"
         clip-path="url(#clipPath23)"
         id="path312" />
    </g>
    <g
       style="text-rendering:geometricPrecision;"
       id="g322">
      <path
         d="M536 280 L503.9981 280.6161"
         style="fill:none; clip-path:url(#clipPath24);"
         clip-path="url(#clipPath24)"
         id="path316" />
      <path
         d="M493.6001 280.8162 C493.5448 277.9449 495.8277 275.5724 498.699 275.5171 C501.5704 275.4618 503.9429 277.7447 503.9981 280.6161 C504.0534 283.4874 501.7705 285.8599 498.8992 285.9152 C496.0279 285.9705 493.6554 283.6876 493.6001 280.8162 Z"
         style="fill:white; clip-path:url(#clipPath24); stroke:none;"
         clip-path="url(#clipPath24)"
         id="path318" />
      <path
         d="M493.6001 280.8162 C493.5448 277.9449 495.8277 275.5724 498.699 275.5171 C501.5704 275.4618 503.9429 277.7447 503.9981 280.6161 C504.0534 283.4874 501.7705 285.8599 498.8992 285.9152 C496.0279 285.9705 493.6554 283.6876 493.6001 280.8162 Z"
         style="fill:none; clip-path:url(#clipPath24);"
         clip-path="url(#clipPath24)"
         id="path320" />
    </g>
    <g
       style="text-rendering:geometricPrecision;"
       id="g328">
      <path
         d="M527 314 C527 314 518.1852 313.3853 510 311.234 C510 311.234 501.8148 309.0827 497.4074 303.2435 C497.4074 303.2435 493 297.4043 493.1296 291.565 C493.1296 291.565 493.2592 285.7258 493.5 283.5745 C493.7408 281.4232 494 280.8085 494 280.8085"
         style="fill:none; clip-path:url(#clipPath25);"
         clip-path="url(#clipPath25)"
         id="path324" />
      <path
         d="M494 280.8085 L484.6617 289.5679 L494.2442 293.6097 Z"
         style="clip-path:url(#clipPath25); fill-rule:evenodd; stroke:none;"
         clip-path="url(#clipPath25)"
         id="path326" />
    </g>
    <g
       style="text-rendering:geometricPrecision;"
       id="g334">
      <path
         d="M388 203 L521 128"
         style="fill:none; clip-path:url(#clipPath26);"
         clip-path="url(#clipPath26)"
         id="path330" />
      <path
         d="M521 128 L508.2545 129.2175 L513.3629 138.2764 Z"
         style="clip-path:url(#clipPath26); fill-rule:evenodd; stroke:none;"
         clip-path="url(#clipPath26)"
         id="path332" />
    </g>
    <g
       style="text-rendering:geometricPrecision;"
       id="g342">
      <path
         d="M143 168 L328 213"
         style="fill:none; clip-path:url(#clipPath27);"
         clip-path="url(#clipPath27)"
         id="path336" />
      <path
         d="M328 213 L317.8605 205.182 L315.4025 215.2874 Z"
         style="clip-path:url(#clipPath27); fill-rule:evenodd; stroke:none;"
         clip-path="url(#clipPath27)"
         id="path338" />
      <path
         d="M143 168 L153.1395 175.818 L155.5975 165.7126 Z"
         style="clip-path:url(#clipPath27); fill-rule:evenodd; stroke:none;"
         clip-path="url(#clipPath27)"
         id="path340" />
    </g>
    <g
       style="font-size:10; text-rendering:geometricPrecision;"
       id="g346">
      <text
         x="392"
         xml:space="preserve"
         y="341"
         style="clip-path:url(#clipPath28); stroke:none;"
         clip-path="url(#clipPath28)"
         id="text344">Spontaneous</text>
    </g>
    <g
       style="fill:white; text-rendering:geometricPrecision; stroke:white;"
       id="g354">
      <path
         d="M63 98 L143 98 L143 118 L63 118 L63 98 Z"
         style="clip-path:url(#clipPath29); stroke:none;"
         clip-path="url(#clipPath29)"
         id="path348" />
      <path
         d="M63 98 L143 98 L143 118 L63 118 L63 98 Z"
         style="fill:none; clip-path:url(#clipPath29); stroke:blue;"
         clip-path="url(#clipPath29)"
         id="path350" />
      <text
         x="81"
         y="111"
         style="font-size:10; clip-path:url(#clipPath29); fill:blue; stroke:none;"
         xml:space="preserve"
         clip-path="url(#clipPath29)"
         id="text352">Pyruvate</text>
    </g>
    <g
       style="font-size:10; text-rendering:geometricPrecision;"
       id="g358">
      <text
         x="388"
         xml:space="preserve"
         y="382"
         style="clip-path:url(#clipPath30); stroke:none;"
         clip-path="url(#clipPath30)"
         id="text356">H2O</text>
    </g>
    <g
       style="font-size:10; text-rendering:geometricPrecision;"
       id="g362">
      <text
         x="370"
         xml:space="preserve"
         y="317"
         style="clip-path:url(#clipPath31); stroke:none;"
         clip-path="url(#clipPath31)"
         id="text360">FADH2</text>
    </g>
    <g
       style="font-size:10; text-rendering:geometricPrecision;"
       id="g366">
      <text
         x="520"
         xml:space="preserve"
         y="239"
         style="clip-path:url(#clipPath32); stroke:none;"
         clip-path="url(#clipPath32)"
         id="text364">a-Ketoglutarate</text>
    </g>
    <g
       style="fill:white; text-rendering:geometricPrecision; stroke:white;"
       id="g374">
      <path
         d="M63 158 L143 158 L143 178 L63 178 L63 158 Z"
         style="clip-path:url(#clipPath33); stroke:none;"
         clip-path="url(#clipPath33)"
         id="path368" />
      <path
         d="M63 158 L143 158 L143 178 L63 178 L63 158 Z"
         style="fill:none; clip-path:url(#clipPath33); stroke:blue;"
         clip-path="url(#clipPath33)"
         id="path370" />
      <text
         x="88"
         y="171"
         style="font-size:10; clip-path:url(#clipPath33); fill:blue; stroke:none;"
         xml:space="preserve"
         clip-path="url(#clipPath33)"
         id="text372">Serine</text>
    </g>
    <g
       style="font-size:10; text-rendering:geometricPrecision;"
       id="g378">
      <text
         x="447"
         xml:space="preserve"
         y="382"
         style="clip-path:url(#clipPath34); stroke:none;"
         clip-path="url(#clipPath34)"
         id="text376">NH3</text>
    </g>
    <g
       style="fill:white; text-rendering:geometricPrecision; stroke:white;"
       id="g386">
      <path
         d="M527 304 L590 304 L590 324 L527 324 L527 304 Z"
         style="clip-path:url(#clipPath35); stroke:none;"
         clip-path="url(#clipPath35)"
         id="path380" />
      <path
         d="M527 304 L590 304 L590 324 L527 324 L527 304 Z"
         style="fill:none; clip-path:url(#clipPath35); stroke:black;"
         clip-path="url(#clipPath35)"
         id="path382" />
      <text
         x="532"
         y="317"
         style="font-size:10; clip-path:url(#clipPath35); fill:black; stroke:none;"
         xml:space="preserve"
         clip-path="url(#clipPath35)"
         id="text384">Glutamate</text>
    </g>
    <g
       style="font-style:italic; font-size:10; text-rendering:geometricPrecision;"
       id="g390">
      <text
         x="63"
         xml:space="preserve"
         y="93"
         style="clip-path:url(#clipPath36); stroke:none;"
         clip-path="url(#clipPath36)"
         id="text388">Glucogenic AA</text>
    </g>
    <g
       style="font-size:10; text-rendering:geometricPrecision;"
       id="g394">
      <text
         x="452"
         xml:space="preserve"
         y="314"
         style="clip-path:url(#clipPath37); stroke:none;"
         clip-path="url(#clipPath37)"
         id="text392">O2</text>
    </g>
    <g
       style="font-size:10; text-rendering:geometricPrecision;"
       id="g398">
      <text
         x="447"
         xml:space="preserve"
         y="259"
         style="clip-path:url(#clipPath38); stroke:none;"
         clip-path="url(#clipPath38)"
         id="text396">H2O2</text>
    </g>
    <g
       style="font-size:10; text-rendering:geometricPrecision;"
       id="g402">
      <text
         x="371"
         xml:space="preserve"
         y="253"
         style="clip-path:url(#clipPath39); stroke:none;"
         clip-path="url(#clipPath39)"
         id="text400">FAD</text>
    </g>
    <g
       style="fill:white; text-rendering:geometricPrecision; stroke:white;"
       id="g410">
      <path
         d="M492 77 L572 77 L572 97 L492 97 L492 77 Z"
         style="clip-path:url(#clipPath40); stroke:none;"
         clip-path="url(#clipPath40)"
         id="path404" />
      <path
         d="M492 77 L572 77 L572 97 L492 97 L492 77 Z"
         style="fill:none; clip-path:url(#clipPath40); stroke:blue;"
         clip-path="url(#clipPath40)"
         id="path406" />
      <text
         x="509"
         y="90"
         style="font-size:10; clip-path:url(#clipPath40); fill:blue; stroke:none;"
         xml:space="preserve"
         clip-path="url(#clipPath40)"
         id="text408">Bile Salts</text>
    </g>
    <g
       style="fill:white; text-rendering:geometricPrecision; stroke:white;"
       id="g418">
      <path
         d="M474 336 L554 336 L554 356 L474 356 L474 336 Z"
         style="clip-path:url(#clipPath41); stroke:none;"
         clip-path="url(#clipPath41)"
         id="path412" />
      <path
         d="M474 336 L554 336 L554 356 L474 356 L474 336 Z"
         style="fill:none; clip-path:url(#clipPath41); stroke:blue;"
         clip-path="url(#clipPath41)"
         id="path414" />
      <text
         x="488"
         y="349"
         style="font-size:10; clip-path:url(#clipPath41); fill:blue; stroke:none;"
         xml:space="preserve"
         clip-path="url(#clipPath41)"
         id="text416">Glyoxalate</text>
    </g>
    <g
       style="fill:white; text-rendering:geometricPrecision; stroke:white;"
       id="g426">
      <path
         d="M300 44 L380 44 L380 64 L300 64 L300 44 Z"
         style="clip-path:url(#clipPath42); stroke:none;"
         clip-path="url(#clipPath42)"
         id="path420" />
      <path
         d="M300 44 L380 44 L380 64 L300 64 L300 44 Z"
         style="fill:none; clip-path:url(#clipPath42); stroke:blue;"
         clip-path="url(#clipPath42)"
         id="path422" />
      <text
         x="326"
         y="57"
         style="font-size:10; clip-path:url(#clipPath42); fill:blue; stroke:none;"
         xml:space="preserve"
         clip-path="url(#clipPath42)"
         id="text424">Heme</text>
    </g>
    <g
       style="fill:white; text-rendering:geometricPrecision; stroke:white;"
       id="g434">
      <path
         d="M206 63 L286 63 L286 83 L206 83 L206 63 Z"
         style="clip-path:url(#clipPath43); stroke:none;"
         clip-path="url(#clipPath43)"
         id="path428" />
      <path
         d="M206 63 L286 63 L286 83 L206 83 L206 63 Z"
         style="fill:none; clip-path:url(#clipPath43); stroke:blue;"
         clip-path="url(#clipPath43)"
         id="path430" />
      <text
         x="228"
         y="76"
         style="font-size:10; clip-path:url(#clipPath43); fill:blue; stroke:none;"
         xml:space="preserve"
         clip-path="url(#clipPath43)"
         id="text432">Purines</text>
    </g>
    <g
       style="fill:white; text-rendering:geometricPrecision; stroke:white;"
       id="g442">
      <path
         d="M521 118 L601 118 L601 138 L521 138 L521 118 Z"
         style="clip-path:url(#clipPath44); stroke:none;"
         clip-path="url(#clipPath44)"
         id="path436" />
      <path
         d="M521 118 L601 118 L601 138 L521 138 L521 118 Z"
         style="fill:none; clip-path:url(#clipPath44); stroke:blue;"
         clip-path="url(#clipPath44)"
         id="path438" />
      <text
         x="540"
         y="131"
         style="font-size:10; clip-path:url(#clipPath44); fill:blue; stroke:none;"
         xml:space="preserve"
         clip-path="url(#clipPath44)"
         id="text440">Creatine</text>
    </g>
    <g
       style="fill:white; text-rendering:geometricPrecision; stroke:white;"
       id="g450">
      <path
         d="M254 232 L311 232 L311 252 L254 252 L254 232 Z"
         style="clip-path:url(#clipPath45); stroke:none;"
         clip-path="url(#clipPath45)"
         id="path444" />
      <path
         d="M254 232 L311 232 L311 252 L254 252 L254 232 Z"
         style="fill:none; clip-path:url(#clipPath45); stroke:blue;"
         clip-path="url(#clipPath45)"
         id="path446" />
      <text
         x="268"
         y="245"
         style="font-size:10; clip-path:url(#clipPath45); fill:blue; stroke:none;"
         xml:space="preserve"
         clip-path="url(#clipPath45)"
         id="text448">MTHF</text>
    </g>
    <g
       style="fill:white; text-rendering:geometricPrecision; stroke:white;"
       id="g458">
      <path
         d="M454 397 L534 397 L534 417 L454 417 L454 397 Z"
         style="clip-path:url(#clipPath46); stroke:none;"
         clip-path="url(#clipPath46)"
         id="path452" />
      <path
         d="M454 397 L534 397 L534 417 L454 417 L454 397 Z"
         style="fill:none; clip-path:url(#clipPath46); stroke:blue;"
         clip-path="url(#clipPath46)"
         id="path454" />
      <text
         x="475"
         y="410"
         style="font-size:10; clip-path:url(#clipPath46); fill:blue; stroke:none;"
         xml:space="preserve"
         clip-path="url(#clipPath46)"
         id="text456">Oxalate</text>
    </g>
    <g
       style="fill:white; text-rendering:geometricPrecision; stroke:white;"
       id="g466">
      <path
         d="M188.5 144 L188.5 144 C188.5 149.5228 192.9772 154 198.5 154 L236.5 154 C242.0228 154 246.5 149.5228 246.5 144 L246.5 144 C246.5 138.4772 242.0228 134 236.5 134 L198.5 134 C192.9772 134 188.5 138.4772 188.5 144 Z"
         style="clip-path:url(#clipPath47); stroke:none;"
         clip-path="url(#clipPath47)"
         id="path460" />
      <path
         d="M188.5 144 L188.5 144 C188.5 149.5228 192.9772 154 198.5 154 L236.5 154 C242.0228 154 246.5 149.5228 246.5 144 L246.5 144 C246.5 138.4772 242.0228 134 236.5 134 L198.5 134 C192.9772 134 188.5 138.4772 188.5 144 Z"
         style="fill:none; clip-path:url(#clipPath47); stroke:black;"
         clip-path="url(#clipPath47)"
         id="path462" />
      <text
         x="200"
         y="147"
         style="font-size:10; clip-path:url(#clipPath47); fill:black; stroke:none;"
         xml:space="preserve"
         clip-path="url(#clipPath47)"
         id="text464">SHMT2</text>
    </g>
    <g
       style="fill:white; text-rendering:geometricPrecision; stroke:white;"
       id="g474">
      <path
         d="M249 313 L249 313 C249 318.5229 253.4772 323 259 323 L327 323 C332.5229 323 337 318.5229 337 313 L337 313 C337 307.4771 332.5229 303 327 303 L259 303 C253.4772 303 249 307.4771 249 313 Z"
         style="clip-path:url(#clipPath48); stroke:none;"
         clip-path="url(#clipPath48)"
         id="path468" />
      <path
         d="M249 313 L249 313 C249 318.5229 253.4772 323 259 323 L327 323 C332.5229 323 337 318.5229 337 313 L337 313 C337 307.4771 332.5229 303 327 303 L259 303 C253.4772 303 249 307.4771 249 313 Z"
         style="fill:none; clip-path:url(#clipPath48); stroke:black;"
         clip-path="url(#clipPath48)"
         id="path470" />
      <text
         x="253"
         y="316"
         style="font-size:10; clip-path:url(#clipPath48); fill:black; stroke:none;"
         xml:space="preserve"
         clip-path="url(#clipPath48)"
         id="text472">Glycine Oxidase</text>
    </g>
    <g
       style="fill:white; text-rendering:geometricPrecision; stroke:white;"
       id="g482">
      <path
         d="M115 243 L115 243 C115 248.5228 119.4771 253 125 253 L173 253 C178.5228 253 183 248.5228 183 243 L183 243 C183 237.4772 178.5228 233 173 233 L125 233 C119.4771 233 115 237.4772 115 243 Z"
         style="clip-path:url(#clipPath49); stroke:none;"
         clip-path="url(#clipPath49)"
         id="path476" />
      <path
         d="M115 243 L115 243 C115 248.5228 119.4771 253 125 253 L173 253 C178.5228 253 183 248.5228 183 243 L183 243 C183 237.4772 178.5228 233 173 233 L125 233 C119.4771 233 115 237.4772 115 243 Z"
         style="fill:none; clip-path:url(#clipPath49); stroke:black;"
         clip-path="url(#clipPath49)"
         id="path478" />
      <text
         x="132"
         y="246"
         style="font-size:10; clip-path:url(#clipPath49); fill:black; stroke:none;"
         xml:space="preserve"
         clip-path="url(#clipPath49)"
         id="text480">MTHFR</text>
    </g>
    <g
       style="fill:white; text-rendering:geometricPrecision; stroke:white;"
       id="g490">
      <path
         d="M536 280 L536 280 C536 285.5229 540.4772 290 546 290 L644 290 C649.5228 290 654 285.5229 654 280 L654 280 C654 274.4771 649.5228 270 644 270 L546 270 C540.4772 270 536 274.4771 536 280 Z"
         style="clip-path:url(#clipPath50); stroke:none;"
         clip-path="url(#clipPath50)"
         id="path484" />
      <path
         d="M536 280 L536 280 C536 285.5229 540.4772 290 546 290 L644 290 C649.5228 290 654 285.5229 654 280 L654 280 C654 274.4771 649.5228 270 644 270 L546 270 C540.4772 270 536 274.4771 536 280 Z"
         style="fill:none; clip-path:url(#clipPath50); stroke:black;"
         clip-path="url(#clipPath50)"
         id="path486" />
      <text
         x="540"
         y="283"
         style="font-size:10; clip-path:url(#clipPath50); fill:black; stroke:none;"
         xml:space="preserve"
         clip-path="url(#clipPath50)"
         id="text488">Glycine Transaminase</text>
    </g>
    <g
       style="fill:white; text-rendering:geometricPrecision; stroke:white;"
       id="g498">
      <path
         d="M188.5 124 L188.5 124 C188.5 129.5228 192.9772 134 198.5 134 L236.5 134 C242.0228 134 246.5 129.5228 246.5 124 L246.5 124 C246.5 118.4771 242.0228 114 236.5 114 L198.5 114 C192.9772 114 188.5 118.4771 188.5 124 Z"
         style="clip-path:url(#clipPath51); stroke:none;"
         clip-path="url(#clipPath51)"
         id="path492" />
      <path
         d="M188.5 124 L188.5 124 C188.5 129.5228 192.9772 134 198.5 134 L236.5 134 C242.0228 134 246.5 129.5228 246.5 124 L246.5 124 C246.5 118.4771 242.0228 114 236.5 114 L198.5 114 C192.9772 114 188.5 118.4771 188.5 124 Z"
         style="fill:none; clip-path:url(#clipPath51); stroke:black;"
         clip-path="url(#clipPath51)"
         id="path494" />
      <text
         x="200"
         y="127"
         style="font-size:10; clip-path:url(#clipPath51); fill:black; stroke:none;"
         xml:space="preserve"
         clip-path="url(#clipPath51)"
         id="text496">SHMT1</text>
    </g>
    <g
       style="fill:white; text-rendering:geometricPrecision; stroke:white;"
       id="g506">
      <path
         d="M328 203 L408 203 L408 223 L328 223 L328 203 Z"
         style="clip-path:url(#clipPath52); stroke:none;"
         clip-path="url(#clipPath52)"
         id="path500" />
      <path
         d="M328 203 L408 203 L408 223 L328 223 L328 203 Z"
         style="fill:none; clip-path:url(#clipPath52); stroke:blue;"
         clip-path="url(#clipPath52)"
         id="path502" />
      <text
         x="350"
         y="216"
         style="font-size:10; clip-path:url(#clipPath52); fill:blue; stroke:none;"
         xml:space="preserve"
         clip-path="url(#clipPath52)"
         id="text504">Glycine</text>
    </g>
    <g
       style="fill:white; text-rendering:geometricPrecision; stroke:white;"
       id="g514">
      <path
         d="M307 337 L390 337 L390 357 L307 357 L307 337 Z"
         style="clip-path:url(#clipPath53); stroke:none;"
         clip-path="url(#clipPath53)"
         id="path508" />
      <path
         d="M307 337 L390 337 L390 357 L307 357 L307 337 Z"
         style="fill:none; clip-path:url(#clipPath53); stroke:blue;"
         clip-path="url(#clipPath53)"
         id="path510" />
      <text
         x="311"
         y="350"
         style="font-size:10; clip-path:url(#clipPath53); fill:blue; stroke:none;"
         xml:space="preserve"
         clip-path="url(#clipPath53)"
         id="text512">a-Iminoacetate</text>
    </g>
    <g
       style="fill:white; text-rendering:geometricPrecision; stroke:white;"
       id="g522">
      <path
         d="M404 45 L484 45 L484 65 L404 65 L404 45 Z"
         style="clip-path:url(#clipPath54); stroke:none;"
         clip-path="url(#clipPath54)"
         id="path516" />
      <path
         d="M404 45 L484 45 L484 65 L404 65 L404 45 Z"
         style="fill:none; clip-path:url(#clipPath54); stroke:blue;"
         clip-path="url(#clipPath54)"
         id="path518" />
      <text
         x="415"
         y="58"
         style="font-size:10; clip-path:url(#clipPath54); fill:blue; stroke:none;"
         xml:space="preserve"
         clip-path="url(#clipPath54)"
         id="text520">Glutathione</text>
    </g>
  </g>
</svg>
