<?xml version="1.0" encoding="UTF-8" standalone="no"?>
<svg
   style="fill-opacity:1; color-rendering:auto; color-interpolation:auto; stroke:black; text-rendering:auto; stroke-linecap:square; stroke-miterlimit:10; stroke-opacity:1; shape-rendering:auto; fill:black; stroke-dasharray:none; font-weight:normal; stroke-width:1; font-family:'Dialog'; font-style:normal; stroke-linejoin:miter; font-size:12; stroke-dashoffset:0; image-rendering:auto;"
   width="402"
   height="432"
   version="1.1"
   id="svg229"
   xmlns="http://www.w3.org/2000/svg"
   xmlns:svg="http://www.w3.org/2000/svg">
  <!--Generated by the Batik Graphics2D SVG Generator-->
  <defs
     id="genericDefs" />
  <g
     id="g227">
    <defs
       id="defs1">
      <clipPath
         clipPathUnits="userSpaceOnUse"
         id="clipPath1">
        <path
           d="M0 0 L400 0 L400 378 L0 378 L0 0 Z"
           id="path3" />
      </clipPath>
      <clipPath
         clipPathUnits="userSpaceOnUse"
         id="clipPath2">
        <path
           d="M0 0 L0 200 L200 200 L200 0 Z"
           id="path6" />
      </clipPath>
      <clipPath
         clipPathUnits="userSpaceOnUse"
         id="clipPath3">
        <path
           d="M296 16 L296 37 L322 37 L322 16 Z"
           id="path9" />
      </clipPath>
      <clipPath
         clipPathUnits="userSpaceOnUse"
         id="clipPath4">
        <path
           d="M298.3672 3.918 L319.6328 3.918 L319.6328 19.2305 L298.3672 19.2305 L298.3672 3.918 Z"
           id="path12" />
      </clipPath>
      <clipPath
         clipPathUnits="userSpaceOnUse"
         id="clipPath5">
        <path
           d="M101.3333 109.8333 L101.3333 129.5 L222.6667 129.5 L222.6667 109.8333 Z"
           id="path15" />
      </clipPath>
      <clipPath
         clipPathUnits="userSpaceOnUse"
         id="clipPath6">
        <path
           d="M87.3333 309.8333 L87.3333 322.8333 L236.6667 322.8333 L236.6667 309.8333 Z"
           id="path18" />
      </clipPath>
      <clipPath
         clipPathUnits="userSpaceOnUse"
         id="clipPath7">
        <path
           d="M290.8333 189.8333 L290.8333 202.8333 L371.1667 202.8333 L371.1667 189.8333 Z"
           id="path21" />
      </clipPath>
      <clipPath
         clipPathUnits="userSpaceOnUse"
         id="clipPath8">
        <path
           d="M308.3333 112.8333 L308.3333 125.8333 L353.6667 125.8333 L353.6667 112.8333 Z"
           id="path24" />
      </clipPath>
      <clipPath
         clipPathUnits="userSpaceOnUse"
         id="clipPath9">
        <path
           d="M131.5 235.8333 L131.5 256.8333 L192.5 256.8333 L192.5 235.8333 Z"
           id="path27" />
      </clipPath>
      <clipPath
         clipPathUnits="userSpaceOnUse"
         id="clipPath10">
        <path
           d="M300.5 277.8333 L300.5 298.8333 L361.5 298.8333 L361.5 277.8333 Z"
           id="path30" />
      </clipPath>
      <clipPath
         clipPathUnits="userSpaceOnUse"
         id="clipPath11">
        <path
           d="M131.5 175.8333 L131.5 196.8333 L192.5 196.8333 L192.5 175.8333 Z"
           id="path33" />
      </clipPath>
      <clipPath
         clipPathUnits="userSpaceOnUse"
         id="clipPath12">
        <path
           d="M131.5 155.8333 L131.5 176.8333 L192.5 176.8333 L192.5 155.8333 Z"
           id="path36" />
      </clipPath>
      <clipPath
         clipPathUnits="userSpaceOnUse"
         id="clipPath13">
        <path
           d="M131.5 215.8333 L131.5 236.8333 L192.5 236.8333 L192.5 215.8333 Z"
           id="path39" />
      </clipPath>
      <clipPath
         clipPathUnits="userSpaceOnUse"
         id="clipPath14">
        <path
           d="M131.5 255.8333 L131.5 276.8333 L192.5 276.8333 L192.5 255.8333 Z"
           id="path42" />
      </clipPath>
      <clipPath
         clipPathUnits="userSpaceOnUse"
         id="clipPath15">
        <path
           d="M131.5 135.8333 L131.5 156.8333 L192.5 156.8333 L192.5 135.8333 Z"
           id="path45" />
      </clipPath>
      <clipPath
         clipPathUnits="userSpaceOnUse"
         id="clipPath16">
        <path
           d="M131.5 195.8333 L131.5 216.8333 L192.5 216.8333 L192.5 195.8333 Z"
           id="path48" />
      </clipPath>
      <clipPath
         clipPathUnits="userSpaceOnUse"
         id="clipPath17">
        <path
           d="M300.5 257.8333 L300.5 278.8333 L361.5 278.8333 L361.5 257.8333 Z"
           id="path51" />
      </clipPath>
      <clipPath
         clipPathUnits="userSpaceOnUse"
         id="clipPath18">
        <path
           d="M131.5 327.8333 L131.5 348.8333 L192.5 348.8333 L192.5 327.8333 Z"
           id="path54" />
      </clipPath>
      <clipPath
         clipPathUnits="userSpaceOnUse"
         id="clipPath19">
        <path
           d="M300.5 237.8333 L300.5 258.8333 L361.5 258.8333 L361.5 237.8333 Z"
           id="path57" />
      </clipPath>
      <clipPath
         clipPathUnits="userSpaceOnUse"
         id="clipPath20">
        <path
           d="M300.5 217.8333 L300.5 238.8333 L361.5 238.8333 L361.5 217.8333 Z"
           id="path60" />
      </clipPath>
      <clipPath
         clipPathUnits="userSpaceOnUse"
         id="clipPath21">
        <path
           d="M131.5 275.8333 L131.5 296.8333 L192.5 296.8333 L192.5 275.8333 Z"
           id="path63" />
      </clipPath>
      <clipPath
         clipPathUnits="userSpaceOnUse"
         id="clipPath22">
        <path
           d="M300.5 152.8333 L300.5 173.8333 L361.5 173.8333 L361.5 152.8333 Z"
           id="path66" />
      </clipPath>
      <clipPath
         clipPathUnits="userSpaceOnUse"
         id="clipPath23">
        <path
           d="M300.5 132.8333 L300.5 153.8333 L361.5 153.8333 L361.5 132.8333 Z"
           id="path69" />
      </clipPath>
    </defs>
    <g
       style="fill:white; stroke:white;"
       id="g75">
      <rect
         x="0"
         width="400"
         height="378"
         y="0"
         style="stroke:none;"
         id="rect73" />
    </g>
    <g
       style="font-weight:bold; font-size:10; text-rendering:geometricPrecision;"
       id="g85">
      <path
         d="M0.0469 6.7031 L6.7656 6.7031 L6.7656 8.125 L4.3438 8.125 L4.3438 14 L2.4688 14 L2.4688 8.125 L0.0469 8.125 L0.0469 6.7031 ZM7.665 8.5312 L9.415 8.5312 L9.415 14 L7.665 14 L7.665 8.5312 ZM7.665 6.4062 L9.415 6.4062 L9.415 7.8281 L7.665 7.8281 L7.665 6.4062 ZM12.999 6.9844 L12.999 8.5312 L14.7959 8.5312 L14.7959 9.7812 L12.999 9.7812 L12.999 12.0938 Q12.999 12.4844 13.1475 12.6172 Q13.2959 12.75 13.749 12.75 L14.6553 12.75 L14.6553 14 L13.1553 14 Q12.1084 14 11.6787 13.5703 Q11.249 13.1406 11.249 12.0938 L11.249 9.7812 L10.374 9.7812 L10.374 8.5312 L11.249 8.5312 L11.249 6.9844 L12.999 6.9844 ZM15.873 6.4062 L17.623 6.4062 L17.623 14 L15.873 14 L15.873 6.4062 ZM24.7539 11.25 L24.7539 11.75 L20.6758 11.75 Q20.7383 12.3594 21.1133 12.6719 Q21.4883 12.9844 22.1758 12.9844 Q22.7227 12.9844 23.3086 12.8203 Q23.8945 12.6562 24.5039 12.3125 L24.5039 13.6719 Q23.8789 13.9062 23.2617 14.0234 Q22.6445 14.1406 22.0195 14.1406 Q20.5352 14.1406 19.7148 13.3828 Q18.8945 12.625 18.8945 11.2656 Q18.8945 9.9375 19.6992 9.1719 Q20.5039 8.4062 21.9258 8.4062 Q23.207 8.4062 23.9805 9.1797 Q24.7539 9.9531 24.7539 11.25 ZM22.957 10.6719 Q22.957 10.1719 22.668 9.8672 Q22.3789 9.5625 21.9102 9.5625 Q21.3945 9.5625 21.082 9.8438 Q20.7695 10.125 20.6914 10.6719 L22.957 10.6719 ZM26.3643 8.5312 L28.1143 8.5312 L28.1143 10.4219 L26.3643 10.4219 L26.3643 8.5312 ZM26.3643 12.1094 L28.1143 12.1094 L28.1143 14 L26.3643 14 L26.3643 12.1094 Z"
         style="clip-path:url(#clipPath2); stroke:none;"
         clip-path="url(#clipPath2)"
         id="path77" />
      <path
         d="M43.9531 12.9531 L43.9531 11 L42.3438 11 L42.3438 10.1875 L44.9219 10.1875 L44.9219 13.3281 Q44.3594 13.7188 43.6719 13.9297 Q42.9844 14.1406 42.2031 14.1406 Q40.4844 14.1406 39.5234 13.1406 Q38.5625 12.1406 38.5625 10.3594 Q38.5625 8.5781 39.5234 7.5781 Q40.4844 6.5781 42.2031 6.5781 Q42.9062 6.5781 43.5547 6.75 Q44.2031 6.9219 44.7344 7.2656 L44.7344 8.3281 Q44.1875 7.8594 43.5781 7.625 Q42.9688 7.3906 42.2812 7.3906 Q40.9375 7.3906 40.2734 8.1328 Q39.6094 8.875 39.6094 10.3594 Q39.6094 11.8438 40.2734 12.5859 Q40.9375 13.3281 42.2812 13.3281 Q42.8125 13.3281 43.2188 13.2422 Q43.625 13.1562 43.9531 12.9531 ZM47.7178 7.5156 L47.7178 10.2656 L48.9521 10.2656 Q49.6396 10.2656 50.0225 9.9062 Q50.4053 9.5469 50.4053 8.8906 Q50.4053 8.2344 50.0225 7.875 Q49.6396 7.5156 48.9521 7.5156 L47.7178 7.5156 ZM46.7334 6.7031 L48.9521 6.7031 Q50.1865 6.7031 50.8115 7.2578 Q51.4365 7.8125 51.4365 8.8906 Q51.4365 9.9688 50.8115 10.5156 Q50.1865 11.0625 48.9521 11.0625 L47.7178 11.0625 L47.7178 14 L46.7334 14 L46.7334 6.7031 ZM58.2168 7.2656 L58.2168 8.3125 Q57.7168 7.8438 57.1543 7.6172 Q56.5918 7.3906 55.9668 7.3906 Q54.7168 7.3906 54.0527 8.1562 Q53.3887 8.9219 53.3887 10.3594 Q53.3887 11.7969 54.0527 12.5625 Q54.7168 13.3281 55.9668 13.3281 Q56.5918 13.3281 57.1543 13.1016 Q57.7168 12.875 58.2168 12.4062 L58.2168 13.4375 Q57.7012 13.7969 57.123 13.9688 Q56.5449 14.1406 55.9043 14.1406 Q54.248 14.1406 53.2949 13.125 Q52.3418 12.1094 52.3418 10.3594 Q52.3418 8.6094 53.2949 7.5938 Q54.248 6.5781 55.9043 6.5781 Q56.5605 6.5781 57.1387 6.75 Q57.7168 6.9219 58.2168 7.2656 ZM63.1992 10.5781 Q63.5117 10.6875 63.8164 11.0391 Q64.1211 11.3906 64.418 12 L65.418 14 L64.3555 14 L63.4336 12.125 Q63.0742 11.3906 62.7305 11.1562 Q62.3867 10.9219 61.8086 10.9219 L60.7305 10.9219 L60.7305 14 L59.7461 14 L59.7461 6.7031 L61.9648 6.7031 Q63.2148 6.7031 63.832 7.2266 Q64.4492 7.75 64.4492 8.8125 Q64.4492 9.5 64.1289 9.9531 Q63.8086 10.4062 63.1992 10.5781 ZM60.7305 7.5156 L60.7305 10.1094 L61.9648 10.1094 Q62.6836 10.1094 63.0508 9.7812 Q63.418 9.4531 63.418 8.8125 Q63.418 8.1719 63.0508 7.8438 Q62.6836 7.5156 61.9648 7.5156 L60.7305 7.5156 ZM70.1318 8.6875 L70.1318 9.5469 Q69.7568 9.3438 69.3506 9.25 Q68.9443 9.1562 68.4912 9.1562 Q67.835 9.1562 67.499 9.3594 Q67.1631 9.5625 67.1631 9.9688 Q67.1631 10.2812 67.3975 10.4609 Q67.6318 10.6406 68.3662 10.7969 L68.6631 10.875 Q69.6318 11.0781 70.0303 11.4531 Q70.4287 11.8281 70.4287 12.4844 Q70.4287 13.25 69.8271 13.6953 Q69.2256 14.1406 68.1787 14.1406 Q67.7256 14.1406 67.249 14.0547 Q66.7725 13.9688 66.2568 13.7969 L66.2568 12.875 Q66.7568 13.125 67.2334 13.2578 Q67.71 13.3906 68.1943 13.3906 Q68.8193 13.3906 69.1631 13.1719 Q69.5068 12.9531 69.5068 12.5625 Q69.5068 12.1875 69.2646 11.9922 Q69.0225 11.7969 68.1787 11.625 L67.8662 11.5469 Q67.0381 11.375 66.6631 11.0078 Q66.2881 10.6406 66.2881 10.0156 Q66.2881 9.2344 66.835 8.8203 Q67.3818 8.4062 68.3975 8.4062 Q68.8818 8.4062 69.3271 8.4766 Q69.7725 8.5469 70.1318 8.6875 ZM72.0918 12.7656 L73.123 12.7656 L73.123 13.5938 L72.3262 15.1562 L71.6855 15.1562 L72.0918 13.5938 L72.0918 12.7656 ZM82.1523 8.7344 L82.1523 9.5781 Q81.7773 9.375 81.3945 9.2656 Q81.0117 9.1562 80.6211 9.1562 Q79.7461 9.1562 79.2617 9.7109 Q78.7773 10.2656 78.7773 11.2656 Q78.7773 12.2656 79.2617 12.8203 Q79.7461 13.375 80.6211 13.375 Q81.0117 13.375 81.3945 13.2734 Q81.7773 13.1719 82.1523 12.9531 L82.1523 13.7969 Q81.7773 13.9688 81.3789 14.0547 Q80.9805 14.1406 80.5273 14.1406 Q79.2773 14.1406 78.5508 13.3672 Q77.8242 12.5938 77.8242 11.2656 Q77.8242 9.9375 78.5586 9.1719 Q79.293 8.4062 80.5742 8.4062 Q80.9961 8.4062 81.3867 8.4844 Q81.7773 8.5625 82.1523 8.7344 ZM83.7129 6.4062 L84.6191 6.4062 L84.6191 14 L83.7129 14 L83.7129 6.4062 ZM88.9756 11.25 Q87.8975 11.25 87.4756 11.5 Q87.0537 11.75 87.0537 12.3438 Q87.0537 12.8281 87.3662 13.1094 Q87.6787 13.3906 88.2256 13.3906 Q88.9756 13.3906 89.4287 12.8594 Q89.8818 12.3281 89.8818 11.4531 L89.8818 11.25 L88.9756 11.25 ZM90.7725 10.875 L90.7725 14 L89.8818 14 L89.8818 13.1719 Q89.5693 13.6719 89.1084 13.9062 Q88.6475 14.1406 87.9912 14.1406 Q87.1475 14.1406 86.6475 13.6719 Q86.1475 13.2031 86.1475 12.4062 Q86.1475 11.4844 86.7725 11.0156 Q87.3975 10.5469 88.6162 10.5469 L89.8818 10.5469 L89.8818 10.4531 Q89.8818 9.8438 89.4678 9.5 Q89.0537 9.1562 88.3193 9.1562 Q87.8506 9.1562 87.4053 9.2734 Q86.96 9.3906 86.5537 9.6094 L86.5537 8.7812 Q87.0537 8.5938 87.5146 8.5 Q87.9756 8.4062 88.4131 8.4062 Q89.6006 8.4062 90.1865 9.0156 Q90.7725 9.625 90.7725 10.875 ZM96.1035 8.6875 L96.1035 9.5469 Q95.7285 9.3438 95.3223 9.25 Q94.916 9.1562 94.4629 9.1562 Q93.8066 9.1562 93.4707 9.3594 Q93.1348 9.5625 93.1348 9.9688 Q93.1348 10.2812 93.3691 10.4609 Q93.6035 10.6406 94.3379 10.7969 L94.6348 10.875 Q95.6035 11.0781 96.002 11.4531 Q96.4004 11.8281 96.4004 12.4844 Q96.4004 13.25 95.7988 13.6953 Q95.1973 14.1406 94.1504 14.1406 Q93.6973 14.1406 93.2207 14.0547 Q92.7441 13.9688 92.2285 13.7969 L92.2285 12.875 Q92.7285 13.125 93.2051 13.2578 Q93.6816 13.3906 94.166 13.3906 Q94.791 13.3906 95.1348 13.1719 Q95.4785 12.9531 95.4785 12.5625 Q95.4785 12.1875 95.2363 11.9922 Q94.9941 11.7969 94.1504 11.625 L93.8379 11.5469 Q93.0098 11.375 92.6348 11.0078 Q92.2598 10.6406 92.2598 10.0156 Q92.2598 9.2344 92.8066 8.8203 Q93.3535 8.4062 94.3691 8.4062 Q94.8535 8.4062 95.2988 8.4766 Q95.7441 8.5469 96.1035 8.6875 ZM101.3135 8.6875 L101.3135 9.5469 Q100.9385 9.3438 100.5322 9.25 Q100.126 9.1562 99.6729 9.1562 Q99.0166 9.1562 98.6807 9.3594 Q98.3447 9.5625 98.3447 9.9688 Q98.3447 10.2812 98.5791 10.4609 Q98.8135 10.6406 99.5479 10.7969 L99.8447 10.875 Q100.8135 11.0781 101.2119 11.4531 Q101.6104 11.8281 101.6104 12.4844 Q101.6104 13.25 101.0088 13.6953 Q100.4072 14.1406 99.3604 14.1406 Q98.9072 14.1406 98.4307 14.0547 Q97.9541 13.9688 97.4385 13.7969 L97.4385 12.875 Q97.9385 13.125 98.415 13.2578 Q98.8916 13.3906 99.376 13.3906 Q100.001 13.3906 100.3447 13.1719 Q100.6885 12.9531 100.6885 12.5625 Q100.6885 12.1875 100.4463 11.9922 Q100.2041 11.7969 99.3604 11.625 L99.0479 11.5469 Q98.2197 11.375 97.8447 11.0078 Q97.4697 10.6406 97.4697 10.0156 Q97.4697 9.2344 98.0166 8.8203 Q98.5635 8.4062 99.5791 8.4062 Q100.0635 8.4062 100.5088 8.4766 Q100.9541 8.5469 101.3135 8.6875 ZM111.7178 7.2656 L111.7178 8.3125 Q111.2178 7.8438 110.6553 7.6172 Q110.0928 7.3906 109.4678 7.3906 Q108.2178 7.3906 107.5537 8.1562 Q106.8896 8.9219 106.8896 10.3594 Q106.8896 11.7969 107.5537 12.5625 Q108.2178 13.3281 109.4678 13.3281 Q110.0928 13.3281 110.6553 13.1016 Q111.2178 12.875 111.7178 12.4062 L111.7178 13.4375 Q111.2021 13.7969 110.624 13.9688 Q110.0459 14.1406 109.4053 14.1406 Q107.749 14.1406 106.7959 13.125 Q105.8428 12.1094 105.8428 10.3594 Q105.8428 8.6094 106.7959 7.5938 Q107.749 6.5781 109.4053 6.5781 Q110.0615 6.5781 110.6396 6.75 Q111.2178 6.9219 111.7178 7.2656 ZM120.6445 9.5781 Q120.9727 8.9688 121.4414 8.6875 Q121.9102 8.4062 122.5508 8.4062 Q123.4102 8.4062 123.8711 9 Q124.332 9.5938 124.332 10.7031 L124.332 14 L123.4258 14 L123.4258 10.7344 Q123.4258 9.9375 123.1523 9.5625 Q122.8789 9.1875 122.3008 9.1875 Q121.5977 9.1875 121.1992 9.6484 Q120.8008 10.1094 120.8008 10.9062 L120.8008 14 L119.8945 14 L119.8945 10.7344 Q119.8945 9.9375 119.6133 9.5625 Q119.332 9.1875 118.7539 9.1875 Q118.0664 9.1875 117.6602 9.6484 Q117.2539 10.1094 117.2539 10.9062 L117.2539 14 L116.3477 14 L116.3477 8.5312 L117.2539 8.5312 L117.2539 9.375 Q117.5664 8.875 117.9961 8.6406 Q118.4258 8.4062 119.0039 8.4062 Q119.6133 8.4062 120.0273 8.7031 Q120.4414 9 120.6445 9.5781 ZM130.8076 11.0469 L130.8076 11.4844 L126.667 11.4844 Q126.7295 12.4062 127.2295 12.8906 Q127.7295 13.375 128.6201 13.375 Q129.1357 13.375 129.6279 13.25 Q130.1201 13.125 130.5889 12.875 L130.5889 13.7188 Q130.1045 13.9219 129.5967 14.0312 Q129.0889 14.1406 128.5732 14.1406 Q127.2607 14.1406 126.4951 13.3828 Q125.7295 12.625 125.7295 11.3125 Q125.7295 9.9688 126.4561 9.1875 Q127.1826 8.4062 128.417 8.4062 Q129.5264 8.4062 130.167 9.1094 Q130.8076 9.8125 130.8076 11.0469 ZM129.9014 10.7812 Q129.9014 10.0469 129.4951 9.6016 Q129.0889 9.1562 128.4326 9.1562 Q127.667 9.1562 127.2217 9.5859 Q126.7764 10.0156 126.6982 10.7812 L129.9014 10.7812 ZM133.1631 6.9844 L133.1631 8.5312 L135.0225 8.5312 L135.0225 9.2344 L133.1631 9.2344 L133.1631 12.2031 Q133.1631 12.8594 133.3506 13.0547 Q133.5381 13.25 134.1006 13.25 L135.0225 13.25 L135.0225 14 L134.1006 14 Q133.0537 14 132.6553 13.6094 Q132.2568 13.2188 132.2568 12.2031 L132.2568 9.2344 L131.6006 9.2344 L131.6006 8.5312 L132.2568 8.5312 L132.2568 6.9844 L133.1631 6.9844 ZM138.6777 11.25 Q137.5996 11.25 137.1777 11.5 Q136.7559 11.75 136.7559 12.3438 Q136.7559 12.8281 137.0684 13.1094 Q137.3809 13.3906 137.9277 13.3906 Q138.6777 13.3906 139.1309 12.8594 Q139.584 12.3281 139.584 11.4531 L139.584 11.25 L138.6777 11.25 ZM140.4746 10.875 L140.4746 14 L139.584 14 L139.584 13.1719 Q139.2715 13.6719 138.8105 13.9062 Q138.3496 14.1406 137.6934 14.1406 Q136.8496 14.1406 136.3496 13.6719 Q135.8496 13.2031 135.8496 12.4062 Q135.8496 11.4844 136.4746 11.0156 Q137.0996 10.5469 138.3184 10.5469 L139.584 10.5469 L139.584 10.4531 Q139.584 9.8438 139.1699 9.5 Q138.7559 9.1562 138.0215 9.1562 Q137.5527 9.1562 137.1074 9.2734 Q136.6621 9.3906 136.2559 9.6094 L136.2559 8.7812 Q136.7559 8.5938 137.2168 8.5 Q137.6777 8.4062 138.1152 8.4062 Q139.3027 8.4062 139.8887 9.0156 Q140.4746 9.625 140.4746 10.875 ZM146.2588 11.2656 Q146.2588 10.2812 145.8447 9.7188 Q145.4307 9.1562 144.7275 9.1562 Q144.0088 9.1562 143.6025 9.7188 Q143.1963 10.2812 143.1963 11.2656 Q143.1963 12.2656 143.6025 12.8281 Q144.0088 13.3906 144.7275 13.3906 Q145.4307 13.3906 145.8447 12.8281 Q146.2588 12.2656 146.2588 11.2656 ZM143.1963 9.3594 Q143.4775 8.875 143.9072 8.6406 Q144.3369 8.4062 144.9463 8.4062 Q145.9463 8.4062 146.5635 9.1953 Q147.1807 9.9844 147.1807 11.2656 Q147.1807 12.5625 146.5635 13.3516 Q145.9463 14.1406 144.9463 14.1406 Q144.3369 14.1406 143.9072 13.9062 Q143.4775 13.6719 143.1963 13.1719 L143.1963 14 L142.29 14 L142.29 6.4062 L143.1963 6.4062 L143.1963 9.3594 ZM150.7939 9.1562 Q150.0752 9.1562 149.6533 9.7188 Q149.2314 10.2812 149.2314 11.2656 Q149.2314 12.25 149.6455 12.8125 Q150.0596 13.375 150.7939 13.375 Q151.5127 13.375 151.9346 12.8125 Q152.3564 12.25 152.3564 11.2656 Q152.3564 10.2969 151.9346 9.7266 Q151.5127 9.1562 150.7939 9.1562 ZM150.7939 8.4062 Q151.9658 8.4062 152.6377 9.1641 Q153.3096 9.9219 153.3096 11.2656 Q153.3096 12.6094 152.6377 13.375 Q151.9658 14.1406 150.7939 14.1406 Q149.6221 14.1406 148.9502 13.375 Q148.2783 12.6094 148.2783 11.2656 Q148.2783 9.9219 148.9502 9.1641 Q149.6221 8.4062 150.7939 8.4062 ZM155.6777 6.9844 L155.6777 8.5312 L157.5371 8.5312 L157.5371 9.2344 L155.6777 9.2344 L155.6777 12.2031 Q155.6777 12.8594 155.8652 13.0547 Q156.0527 13.25 156.6152 13.25 L157.5371 13.25 L157.5371 14 L156.6152 14 Q155.5684 14 155.1699 13.6094 Q154.7715 13.2188 154.7715 12.2031 L154.7715 9.2344 L154.1152 9.2344 L154.1152 8.5312 L154.7715 8.5312 L154.7715 6.9844 L155.6777 6.9844 ZM161.8799 9.375 Q161.7236 9.2812 161.5518 9.2422 Q161.3799 9.2031 161.1611 9.2031 Q160.3955 9.2031 159.9893 9.6953 Q159.583 10.1875 159.583 11.125 L159.583 14 L158.6768 14 L158.6768 8.5312 L159.583 8.5312 L159.583 9.375 Q159.8643 8.875 160.3174 8.6406 Q160.7705 8.4062 161.4268 8.4062 Q161.5205 8.4062 161.6299 8.4141 Q161.7393 8.4219 161.8799 8.4531 L161.8799 9.375 ZM164.9443 9.1562 Q164.2256 9.1562 163.8037 9.7188 Q163.3818 10.2812 163.3818 11.2656 Q163.3818 12.25 163.7959 12.8125 Q164.21 13.375 164.9443 13.375 Q165.6631 13.375 166.085 12.8125 Q166.5068 12.25 166.5068 11.2656 Q166.5068 10.2969 166.085 9.7266 Q165.6631 9.1562 164.9443 9.1562 ZM164.9443 8.4062 Q166.1162 8.4062 166.7881 9.1641 Q167.46 9.9219 167.46 11.2656 Q167.46 12.6094 166.7881 13.375 Q166.1162 14.1406 164.9443 14.1406 Q163.7725 14.1406 163.1006 13.375 Q162.4287 12.6094 162.4287 11.2656 Q162.4287 9.9219 163.1006 9.1641 Q163.7725 8.4062 164.9443 8.4062 ZM169.8125 13.1719 L169.8125 16.0781 L168.9062 16.0781 L168.9062 8.5312 L169.8125 8.5312 L169.8125 9.3594 Q170.0938 8.875 170.5234 8.6406 Q170.9531 8.4062 171.5625 8.4062 Q172.5625 8.4062 173.1797 9.1953 Q173.7969 9.9844 173.7969 11.2656 Q173.7969 12.5625 173.1797 13.3516 Q172.5625 14.1406 171.5625 14.1406 Q170.9531 14.1406 170.5234 13.9062 Q170.0938 13.6719 169.8125 13.1719 ZM172.875 11.2656 Q172.875 10.2812 172.4609 9.7188 Q172.0469 9.1562 171.3438 9.1562 Q170.625 9.1562 170.2188 9.7188 Q169.8125 10.2812 169.8125 11.2656 Q169.8125 12.2656 170.2188 12.8281 Q170.625 13.3906 171.3438 13.3906 Q172.0469 13.3906 172.4609 12.8281 Q172.875 12.2656 172.875 11.2656 ZM175.2852 8.5312 L176.1914 8.5312 L176.1914 14 L175.2852 14 L175.2852 8.5312 ZM175.2852 6.4062 L176.1914 6.4062 L176.1914 7.5469 L175.2852 7.5469 L175.2852 6.4062 ZM182.001 8.7344 L182.001 9.5781 Q181.626 9.375 181.2432 9.2656 Q180.8604 9.1562 180.4697 9.1562 Q179.5947 9.1562 179.1104 9.7109 Q178.626 10.2656 178.626 11.2656 Q178.626 12.2656 179.1104 12.8203 Q179.5947 13.375 180.4697 13.375 Q180.8604 13.375 181.2432 13.2734 Q181.626 13.1719 182.001 12.9531 L182.001 13.7969 Q181.626 13.9688 181.2275 14.0547 Q180.8291 14.1406 180.376 14.1406 Q179.126 14.1406 178.3994 13.3672 Q177.6729 12.5938 177.6729 11.2656 Q177.6729 9.9375 178.4072 9.1719 Q179.1416 8.4062 180.4229 8.4062 Q180.8447 8.4062 181.2354 8.4844 Q181.626 8.5625 182.001 8.7344 ZM190.3496 11.2031 Q190.3496 10.2188 189.9434 9.6875 Q189.5371 9.1562 188.8184 9.1562 Q188.084 9.1562 187.6855 9.6875 Q187.2871 10.2188 187.2871 11.2031 Q187.2871 12.1719 187.6855 12.7109 Q188.084 13.25 188.8184 13.25 Q189.5371 13.25 189.9434 12.7109 Q190.3496 12.1719 190.3496 11.2031 ZM191.2402 13.3281 Q191.2402 14.7188 190.623 15.3984 Q190.0059 16.0781 188.7246 16.0781 Q188.2559 16.0781 187.834 16.0078 Q187.4121 15.9375 187.0215 15.7969 L187.0215 14.9219 Q187.4121 15.1406 187.7949 15.2422 Q188.1777 15.3438 188.584 15.3438 Q189.459 15.3438 189.9043 14.8828 Q190.3496 14.4219 190.3496 13.4844 L190.3496 13.0312 Q190.0684 13.5156 189.6309 13.7578 Q189.1934 14 188.584 14 Q187.584 14 186.9668 13.2344 Q186.3496 12.4688 186.3496 11.2031 Q186.3496 9.9375 186.9668 9.1719 Q187.584 8.4062 188.584 8.4062 Q189.1934 8.4062 189.6309 8.6406 Q190.0684 8.875 190.3496 9.3594 L190.3496 8.5312 L191.2402 8.5312 L191.2402 13.3281 ZM193.0879 6.4062 L193.9941 6.4062 L193.9941 14 L193.0879 14 L193.0879 6.4062 ZM195.7725 11.8438 L195.7725 8.5312 L196.6787 8.5312 L196.6787 11.8125 Q196.6787 12.5781 196.9834 12.9688 Q197.2881 13.3594 197.8818 13.3594 Q198.6162 13.3594 199.0381 12.8984 Q199.46 12.4375 199.46 11.625 L199.46 8.5312 L200.3662 8.5312 L200.3662 14 L199.46 14 L199.46 13.1562 Q199.1318 13.6562 198.7021 13.8984 Q198.2725 14.1406 197.6943 14.1406 Q196.7568 14.1406 196.2646 13.5547 Q195.7725 12.9688 195.7725 11.8438 ZM198.0381 8.4062 L198.0381 8.4062 ZM203.0947 6.9844 L203.0947 8.5312 L204.9541 8.5312 L204.9541 9.2344 L203.0947 9.2344 L203.0947 12.2031 Q203.0947 12.8594 203.2822 13.0547 Q203.4697 13.25 204.0322 13.25 L204.9541 13.25 L204.9541 14 L204.0322 14 Q202.9854 14 202.5869 13.6094 Q202.1885 13.2188 202.1885 12.2031 L202.1885 9.2344 L201.5322 9.2344 L201.5322 8.5312 L202.1885 8.5312 L202.1885 6.9844 L203.0947 6.9844 ZM208.6094 11.25 Q207.5312 11.25 207.1094 11.5 Q206.6875 11.75 206.6875 12.3438 Q206.6875 12.8281 207 13.1094 Q207.3125 13.3906 207.8594 13.3906 Q208.6094 13.3906 209.0625 12.8594 Q209.5156 12.3281 209.5156 11.4531 L209.5156 11.25 L208.6094 11.25 ZM210.4062 10.875 L210.4062 14 L209.5156 14 L209.5156 13.1719 Q209.2031 13.6719 208.7422 13.9062 Q208.2812 14.1406 207.625 14.1406 Q206.7812 14.1406 206.2812 13.6719 Q205.7812 13.2031 205.7812 12.4062 Q205.7812 11.4844 206.4062 11.0156 Q207.0312 10.5469 208.25 10.5469 L209.5156 10.5469 L209.5156 10.4531 Q209.5156 9.8438 209.1016 9.5 Q208.6875 9.1562 207.9531 9.1562 Q207.4844 9.1562 207.0391 9.2734 Q206.5938 9.3906 206.1875 9.6094 L206.1875 8.7812 Q206.6875 8.5938 207.1484 8.5 Q207.6094 8.4062 208.0469 8.4062 Q209.2344 8.4062 209.8203 9.0156 Q210.4062 9.625 210.4062 10.875 ZM216.5186 9.5781 Q216.8467 8.9688 217.3154 8.6875 Q217.7842 8.4062 218.4248 8.4062 Q219.2842 8.4062 219.7451 9 Q220.2061 9.5938 220.2061 10.7031 L220.2061 14 L219.2998 14 L219.2998 10.7344 Q219.2998 9.9375 219.0264 9.5625 Q218.7529 9.1875 218.1748 9.1875 Q217.4717 9.1875 217.0732 9.6484 Q216.6748 10.1094 216.6748 10.9062 L216.6748 14 L215.7686 14 L215.7686 10.7344 Q215.7686 9.9375 215.4873 9.5625 Q215.2061 9.1875 214.6279 9.1875 Q213.9404 9.1875 213.5342 9.6484 Q213.1279 10.1094 213.1279 10.9062 L213.1279 14 L212.2217 14 L212.2217 8.5312 L213.1279 8.5312 L213.1279 9.375 Q213.4404 8.875 213.8701 8.6406 Q214.2998 8.4062 214.8779 8.4062 Q215.4873 8.4062 215.9014 8.7031 Q216.3154 9 216.5186 9.5781 ZM224.4785 11.25 Q223.4004 11.25 222.9785 11.5 Q222.5566 11.75 222.5566 12.3438 Q222.5566 12.8281 222.8691 13.1094 Q223.1816 13.3906 223.7285 13.3906 Q224.4785 13.3906 224.9316 12.8594 Q225.3848 12.3281 225.3848 11.4531 L225.3848 11.25 L224.4785 11.25 ZM226.2754 10.875 L226.2754 14 L225.3848 14 L225.3848 13.1719 Q225.0723 13.6719 224.6113 13.9062 Q224.1504 14.1406 223.4941 14.1406 Q222.6504 14.1406 222.1504 13.6719 Q221.6504 13.2031 221.6504 12.4062 Q221.6504 11.4844 222.2754 11.0156 Q222.9004 10.5469 224.1191 10.5469 L225.3848 10.5469 L225.3848 10.4531 Q225.3848 9.8438 224.9707 9.5 Q224.5566 9.1562 223.8223 9.1562 Q223.3535 9.1562 222.9082 9.2734 Q222.4629 9.3906 222.0566 9.6094 L222.0566 8.7812 Q222.5566 8.5938 223.0176 8.5 Q223.4785 8.4062 223.916 8.4062 Q225.1035 8.4062 225.6895 9.0156 Q226.2754 9.625 226.2754 10.875 ZM229.0127 6.9844 L229.0127 8.5312 L230.8721 8.5312 L230.8721 9.2344 L229.0127 9.2344 L229.0127 12.2031 Q229.0127 12.8594 229.2002 13.0547 Q229.3877 13.25 229.9502 13.25 L230.8721 13.25 L230.8721 14 L229.9502 14 Q228.9033 14 228.5049 13.6094 Q228.1064 13.2188 228.1064 12.2031 L228.1064 9.2344 L227.4502 9.2344 L227.4502 8.5312 L228.1064 8.5312 L228.1064 6.9844 L229.0127 6.9844 ZM236.7305 11.0469 L236.7305 11.4844 L232.5898 11.4844 Q232.6523 12.4062 233.1523 12.8906 Q233.6523 13.375 234.543 13.375 Q235.0586 13.375 235.5508 13.25 Q236.043 13.125 236.5117 12.875 L236.5117 13.7188 Q236.0273 13.9219 235.5195 14.0312 Q235.0117 14.1406 234.4961 14.1406 Q233.1836 14.1406 232.418 13.3828 Q231.6523 12.625 231.6523 11.3125 Q231.6523 9.9688 232.3789 9.1875 Q233.1055 8.4062 234.3398 8.4062 Q235.4492 8.4062 236.0898 9.1094 Q236.7305 9.8125 236.7305 11.0469 ZM235.8242 10.7812 Q235.8242 10.0469 235.418 9.6016 Q235.0117 9.1562 234.3555 9.1562 Q233.5898 9.1562 233.1445 9.5859 Q232.6992 10.0156 232.6211 10.7812 L235.8242 10.7812 ZM238.4297 12.7656 L239.4609 12.7656 L239.4609 13.5938 L238.6641 15.1562 L238.0234 15.1562 L238.4297 13.5938 L238.4297 12.7656 ZM245.4277 13.1719 L245.4277 16.0781 L244.5215 16.0781 L244.5215 8.5312 L245.4277 8.5312 L245.4277 9.3594 Q245.709 8.875 246.1387 8.6406 Q246.5684 8.4062 247.1777 8.4062 Q248.1777 8.4062 248.7949 9.1953 Q249.4121 9.9844 249.4121 11.2656 Q249.4121 12.5625 248.7949 13.3516 Q248.1777 14.1406 247.1777 14.1406 Q246.5684 14.1406 246.1387 13.9062 Q245.709 13.6719 245.4277 13.1719 ZM248.4902 11.2656 Q248.4902 10.2812 248.0762 9.7188 Q247.6621 9.1562 246.959 9.1562 Q246.2402 9.1562 245.834 9.7188 Q245.4277 10.2812 245.4277 11.2656 Q245.4277 12.2656 245.834 12.8281 Q246.2402 13.3906 246.959 13.3906 Q247.6621 13.3906 248.0762 12.8281 Q248.4902 12.2656 248.4902 11.2656 ZM255.4473 10.7031 L255.4473 14 L254.5566 14 L254.5566 10.7344 Q254.5566 9.9531 254.252 9.5703 Q253.9473 9.1875 253.3379 9.1875 Q252.6191 9.1875 252.1973 9.6484 Q251.7754 10.1094 251.7754 10.9062 L251.7754 14 L250.8691 14 L250.8691 6.4062 L251.7754 6.4062 L251.7754 9.375 Q252.1035 8.8906 252.541 8.6484 Q252.9785 8.4062 253.541 8.4062 Q254.4785 8.4062 254.9629 8.9844 Q255.4473 9.5625 255.4473 10.7031 ZM261.9258 11.0469 L261.9258 11.4844 L257.7852 11.4844 Q257.8477 12.4062 258.3477 12.8906 Q258.8477 13.375 259.7383 13.375 Q260.2539 13.375 260.7461 13.25 Q261.2383 13.125 261.707 12.875 L261.707 13.7188 Q261.2227 13.9219 260.7148 14.0312 Q260.207 14.1406 259.6914 14.1406 Q258.3789 14.1406 257.6133 13.3828 Q256.8477 12.625 256.8477 11.3125 Q256.8477 9.9688 257.5742 9.1875 Q258.3008 8.4062 259.5352 8.4062 Q260.6445 8.4062 261.2852 9.1094 Q261.9258 9.8125 261.9258 11.0469 ZM261.0195 10.7812 Q261.0195 10.0469 260.6133 9.6016 Q260.207 9.1562 259.5508 9.1562 Q258.7852 9.1562 258.3398 9.5859 Q257.8945 10.0156 257.8164 10.7812 L261.0195 10.7812 ZM266.5625 9.375 Q266.4062 9.2812 266.2344 9.2422 Q266.0625 9.2031 265.8438 9.2031 Q265.0781 9.2031 264.6719 9.6953 Q264.2656 10.1875 264.2656 11.125 L264.2656 14 L263.3594 14 L263.3594 8.5312 L264.2656 8.5312 L264.2656 9.375 Q264.5469 8.875 265 8.6406 Q265.4531 8.4062 266.1094 8.4062 Q266.2031 8.4062 266.3125 8.4141 Q266.4219 8.4219 266.5625 8.4531 L266.5625 9.375 ZM269.627 9.1562 Q268.9082 9.1562 268.4863 9.7188 Q268.0645 10.2812 268.0645 11.2656 Q268.0645 12.25 268.4785 12.8125 Q268.8926 13.375 269.627 13.375 Q270.3457 13.375 270.7676 12.8125 Q271.1895 12.25 271.1895 11.2656 Q271.1895 10.2969 270.7676 9.7266 Q270.3457 9.1562 269.627 9.1562 ZM269.627 8.4062 Q270.7988 8.4062 271.4707 9.1641 Q272.1426 9.9219 272.1426 11.2656 Q272.1426 12.6094 271.4707 13.375 Q270.7988 14.1406 269.627 14.1406 Q268.4551 14.1406 267.7832 13.375 Q267.1113 12.6094 267.1113 11.2656 Q267.1113 9.9219 267.7832 9.1641 Q268.4551 8.4062 269.627 8.4062 ZM277.8857 9.5781 Q278.2139 8.9688 278.6826 8.6875 Q279.1514 8.4062 279.792 8.4062 Q280.6514 8.4062 281.1123 9 Q281.5732 9.5938 281.5732 10.7031 L281.5732 14 L280.667 14 L280.667 10.7344 Q280.667 9.9375 280.3936 9.5625 Q280.1201 9.1875 279.542 9.1875 Q278.8389 9.1875 278.4404 9.6484 Q278.042 10.1094 278.042 10.9062 L278.042 14 L277.1357 14 L277.1357 10.7344 Q277.1357 9.9375 276.8545 9.5625 Q276.5732 9.1875 275.9951 9.1875 Q275.3076 9.1875 274.9014 9.6484 Q274.4951 10.1094 274.4951 10.9062 L274.4951 14 L273.5889 14 L273.5889 8.5312 L274.4951 8.5312 L274.4951 9.375 Q274.8076 8.875 275.2373 8.6406 Q275.667 8.4062 276.2451 8.4062 Q276.8545 8.4062 277.2686 8.7031 Q277.6826 9 277.8857 9.5781 ZM285.4863 9.1562 Q284.7676 9.1562 284.3457 9.7188 Q283.9238 10.2812 283.9238 11.2656 Q283.9238 12.25 284.3379 12.8125 Q284.752 13.375 285.4863 13.375 Q286.2051 13.375 286.627 12.8125 Q287.0488 12.25 287.0488 11.2656 Q287.0488 10.2969 286.627 9.7266 Q286.2051 9.1562 285.4863 9.1562 ZM285.4863 8.4062 Q286.6582 8.4062 287.3301 9.1641 Q288.002 9.9219 288.002 11.2656 Q288.002 12.6094 287.3301 13.375 Q286.6582 14.1406 285.4863 14.1406 Q284.3145 14.1406 283.6426 13.375 Q282.9707 12.6094 282.9707 11.2656 Q282.9707 9.9219 283.6426 9.1641 Q284.3145 8.4062 285.4863 8.4062 ZM294.0264 10.7031 L294.0264 14 L293.1357 14 L293.1357 10.7344 Q293.1357 9.9531 292.8311 9.5703 Q292.5264 9.1875 291.917 9.1875 Q291.1982 9.1875 290.7764 9.6484 Q290.3545 10.1094 290.3545 10.9062 L290.3545 14 L289.4482 14 L289.4482 8.5312 L290.3545 8.5312 L290.3545 9.375 Q290.6826 8.8906 291.1201 8.6484 Q291.5576 8.4062 292.1201 8.4062 Q293.0576 8.4062 293.542 8.9844 Q294.0264 9.5625 294.0264 10.7031 ZM300.5049 11.0469 L300.5049 11.4844 L296.3643 11.4844 Q296.4268 12.4062 296.9268 12.8906 Q297.4268 13.375 298.3174 13.375 Q298.833 13.375 299.3252 13.25 Q299.8174 13.125 300.2861 12.875 L300.2861 13.7188 Q299.8018 13.9219 299.2939 14.0312 Q298.7861 14.1406 298.2705 14.1406 Q296.958 14.1406 296.1924 13.3828 Q295.4268 12.625 295.4268 11.3125 Q295.4268 9.9688 296.1533 9.1875 Q296.8799 8.4062 298.1143 8.4062 Q299.2236 8.4062 299.8643 9.1094 Q300.5049 9.8125 300.5049 11.0469 ZM299.5986 10.7812 Q299.5986 10.0469 299.1924 9.6016 Q298.7861 9.1562 298.1299 9.1562 Q297.3643 9.1562 296.9189 9.5859 Q296.4736 10.0156 296.3955 10.7812 L299.5986 10.7812 Z"
         style="clip-path:url(#clipPath2); stroke:none;"
         clip-path="url(#clipPath2)"
         id="path79" />
      <path
         d="M4.25 21.9375 Q3.3906 21.9375 2.9141 22.5703 Q2.4375 23.2031 2.4375 24.3594 Q2.4375 25.5156 2.9141 26.1484 Q3.3906 26.7812 4.25 26.7812 Q5.1094 26.7812 5.5859 26.1484 Q6.0625 25.5156 6.0625 24.3594 Q6.0625 23.2031 5.5859 22.5703 Q5.1094 21.9375 4.25 21.9375 ZM4.25 20.5781 Q6 20.5781 7 21.5859 Q8 22.5938 8 24.3594 Q8 26.125 7 27.1328 Q6 28.1406 4.25 28.1406 Q2.5 28.1406 1.5 27.1328 Q0.5 26.125 0.5 24.3594 Q0.5 22.5938 1.5 21.5859 Q2.5 20.5781 4.25 20.5781 ZM13.4072 24.0156 Q13.1729 23.9062 12.9463 23.8594 Q12.7197 23.8125 12.4854 23.8125 Q11.8135 23.8125 11.4541 24.2422 Q11.0947 24.6719 11.0947 25.4844 L11.0947 28 L9.3447 28 L9.3447 22.5312 L11.0947 22.5312 L11.0947 23.4219 Q11.4229 22.8906 11.8604 22.6484 Q12.2979 22.4062 12.9072 22.4062 Q13.001 22.4062 13.1025 22.4062 Q13.2041 22.4062 13.3916 22.4375 L13.4072 24.0156 ZM17.9951 27.0781 Q17.6357 27.5469 17.1982 27.7734 Q16.7607 28 16.1982 28 Q15.1982 28 14.542 27.2109 Q13.8857 26.4219 13.8857 25.2031 Q13.8857 23.9688 14.542 23.1875 Q15.1982 22.4062 16.1982 22.4062 Q16.7607 22.4062 17.1982 22.6328 Q17.6357 22.8594 17.9951 23.3438 L17.9951 22.5312 L19.7451 22.5312 L19.7451 27.4531 Q19.7451 28.7656 18.917 29.4609 Q18.0889 30.1562 16.5107 30.1562 Q15.9951 30.1562 15.5186 30.0781 Q15.042 30 14.5576 29.8438 L14.5576 28.4844 Q15.0107 28.75 15.4482 28.875 Q15.8857 29 16.3389 29 Q17.1982 29 17.5967 28.625 Q17.9951 28.25 17.9951 27.4531 L17.9951 27.0781 ZM16.8389 23.6719 Q16.292 23.6719 15.9951 24.0703 Q15.6982 24.4688 15.6982 25.2031 Q15.6982 25.9531 15.9873 26.3438 Q16.2764 26.7344 16.8389 26.7344 Q17.3857 26.7344 17.6904 26.3281 Q17.9951 25.9219 17.9951 25.2031 Q17.9951 24.4688 17.6904 24.0703 Q17.3857 23.6719 16.8389 23.6719 ZM23.8877 25.5312 Q23.3408 25.5312 23.0596 25.7188 Q22.7783 25.9062 22.7783 26.2656 Q22.7783 26.6094 23.0049 26.7969 Q23.2314 26.9844 23.6221 26.9844 Q24.1221 26.9844 24.458 26.625 Q24.7939 26.2656 24.7939 25.7344 L24.7939 25.5312 L23.8877 25.5312 ZM26.5596 24.875 L26.5596 28 L24.7939 28 L24.7939 27.1875 Q24.4346 27.6875 23.9971 27.9141 Q23.5596 28.1406 22.9346 28.1406 Q22.0752 28.1406 21.5518 27.6484 Q21.0283 27.1562 21.0283 26.3594 Q21.0283 25.3906 21.6846 24.9453 Q22.3408 24.5 23.7627 24.5 L24.7939 24.5 L24.7939 24.3594 Q24.7939 23.9531 24.4658 23.7578 Q24.1377 23.5625 23.4502 23.5625 Q22.8877 23.5625 22.4033 23.6719 Q21.9189 23.7812 21.4971 24.0156 L21.4971 22.6719 Q22.0596 22.5469 22.6299 22.4766 Q23.2002 22.4062 23.7627 22.4062 Q25.2471 22.4062 25.9033 22.9844 Q26.5596 23.5625 26.5596 24.875 ZM33.6826 24.6719 L33.6826 28 L31.917 28 L31.917 27.4531 L31.917 25.4531 Q31.917 24.75 31.8857 24.4766 Q31.8545 24.2031 31.7764 24.0781 Q31.6826 23.9062 31.5029 23.8125 Q31.3232 23.7188 31.1045 23.7188 Q30.5576 23.7188 30.2451 24.1406 Q29.9326 24.5625 29.9326 25.3125 L29.9326 28 L28.1826 28 L28.1826 22.5312 L29.9326 22.5312 L29.9326 23.3281 Q30.3232 22.8594 30.7686 22.6328 Q31.2139 22.4062 31.7451 22.4062 Q32.6982 22.4062 33.1904 22.9844 Q33.6826 23.5625 33.6826 24.6719 ZM35.3018 22.5312 L37.0518 22.5312 L37.0518 28 L35.3018 28 L35.3018 22.5312 ZM35.3018 20.4062 L37.0518 20.4062 L37.0518 21.8281 L35.3018 21.8281 L35.3018 20.4062 ZM42.9951 22.7031 L42.9951 24.0312 Q42.4326 23.7969 41.9092 23.6797 Q41.3857 23.5625 40.9326 23.5625 Q40.4326 23.5625 40.1904 23.6875 Q39.9482 23.8125 39.9482 24.0625 Q39.9482 24.2812 40.1279 24.3906 Q40.3076 24.5 40.792 24.5625 L41.0889 24.5938 Q42.4326 24.7656 42.9014 25.1562 Q43.3701 25.5469 43.3701 26.3906 Q43.3701 27.2656 42.7217 27.7031 Q42.0732 28.1406 40.792 28.1406 Q40.2607 28.1406 39.6826 28.0547 Q39.1045 27.9688 38.4795 27.7969 L38.4795 26.4688 Q39.0107 26.7188 39.5576 26.8516 Q40.1045 26.9844 40.667 26.9844 Q41.1826 26.9844 41.4404 26.8438 Q41.6982 26.7031 41.6982 26.4219 Q41.6982 26.1875 41.5264 26.0703 Q41.3545 25.9531 40.8232 25.8906 L40.5107 25.8438 Q39.3389 25.7031 38.8701 25.3047 Q38.4014 24.9062 38.4014 24.1094 Q38.4014 23.2344 38.9951 22.8203 Q39.5889 22.4062 40.8232 22.4062 Q41.3076 22.4062 41.8389 22.4766 Q42.3701 22.5469 42.9951 22.7031 ZM49.7441 23.4375 Q50.0723 22.9375 50.5332 22.6719 Q50.9941 22.4062 51.541 22.4062 Q52.4785 22.4062 52.9707 22.9844 Q53.4629 23.5625 53.4629 24.6719 L53.4629 28 L51.7129 28 L51.7129 25.1406 Q51.7129 25.0781 51.7129 25.0156 Q51.7129 24.9531 51.7129 24.8281 Q51.7129 24.2344 51.5488 23.9766 Q51.3848 23.7188 50.9941 23.7188 Q50.4941 23.7188 50.2285 24.125 Q49.9629 24.5312 49.9473 25.3125 L49.9473 28 L48.1816 28 L48.1816 25.1406 Q48.1816 24.2344 48.0254 23.9766 Q47.8691 23.7188 47.4785 23.7188 Q46.9785 23.7188 46.7051 24.1328 Q46.4316 24.5469 46.4316 25.3125 L46.4316 28 L44.666 28 L44.666 22.5312 L46.4316 22.5312 L46.4316 23.3281 Q46.7441 22.875 47.166 22.6406 Q47.5879 22.4062 48.0879 22.4062 Q48.6504 22.4062 49.0879 22.6797 Q49.5254 22.9531 49.7441 23.4375 ZM55.3828 22.5312 L57.1328 22.5312 L57.1328 24.4219 L55.3828 24.4219 L55.3828 22.5312 ZM55.3828 26.1094 L57.1328 26.1094 L57.1328 28 L55.3828 28 L55.3828 26.1094 Z"
         style="clip-path:url(#clipPath2); stroke:none;"
         clip-path="url(#clipPath2)"
         id="path81" />
      <path
         d="M66.9844 20.7031 L67.9688 20.7031 L67.9688 23.7031 L71.5469 23.7031 L71.5469 20.7031 L72.5312 20.7031 L72.5312 28 L71.5469 28 L71.5469 24.5312 L67.9688 24.5312 L67.9688 28 L66.9844 28 L66.9844 20.7031 ZM76.582 23.1562 Q75.8633 23.1562 75.4414 23.7188 Q75.0195 24.2812 75.0195 25.2656 Q75.0195 26.25 75.4336 26.8125 Q75.8477 27.375 76.582 27.375 Q77.3008 27.375 77.7227 26.8125 Q78.1445 26.25 78.1445 25.2656 Q78.1445 24.2969 77.7227 23.7266 Q77.3008 23.1562 76.582 23.1562 ZM76.582 22.4062 Q77.7539 22.4062 78.4258 23.1641 Q79.0977 23.9219 79.0977 25.2656 Q79.0977 26.6094 78.4258 27.375 Q77.7539 28.1406 76.582 28.1406 Q75.4102 28.1406 74.7383 27.375 Q74.0664 26.6094 74.0664 25.2656 Q74.0664 23.9219 74.7383 23.1641 Q75.4102 22.4062 76.582 22.4062 ZM84.8408 23.5781 Q85.1689 22.9688 85.6377 22.6875 Q86.1064 22.4062 86.7471 22.4062 Q87.6064 22.4062 88.0674 23 Q88.5283 23.5938 88.5283 24.7031 L88.5283 28 L87.6221 28 L87.6221 24.7344 Q87.6221 23.9375 87.3486 23.5625 Q87.0752 23.1875 86.4971 23.1875 Q85.7939 23.1875 85.3955 23.6484 Q84.9971 24.1094 84.9971 24.9062 L84.9971 28 L84.0908 28 L84.0908 24.7344 Q84.0908 23.9375 83.8096 23.5625 Q83.5283 23.1875 82.9502 23.1875 Q82.2627 23.1875 81.8564 23.6484 Q81.4502 24.1094 81.4502 24.9062 L81.4502 28 L80.5439 28 L80.5439 22.5312 L81.4502 22.5312 L81.4502 23.375 Q81.7627 22.875 82.1924 22.6406 Q82.6221 22.4062 83.2002 22.4062 Q83.8096 22.4062 84.2236 22.7031 Q84.6377 23 84.8408 23.5781 ZM92.4414 23.1562 Q91.7227 23.1562 91.3008 23.7188 Q90.8789 24.2812 90.8789 25.2656 Q90.8789 26.25 91.293 26.8125 Q91.707 27.375 92.4414 27.375 Q93.1602 27.375 93.582 26.8125 Q94.0039 26.25 94.0039 25.2656 Q94.0039 24.2969 93.582 23.7266 Q93.1602 23.1562 92.4414 23.1562 ZM92.4414 22.4062 Q93.6133 22.4062 94.2852 23.1641 Q94.957 23.9219 94.957 25.2656 Q94.957 26.6094 94.2852 27.375 Q93.6133 28.1406 92.4414 28.1406 Q91.2695 28.1406 90.5977 27.375 Q89.9258 26.6094 89.9258 25.2656 Q89.9258 23.9219 90.5977 23.1641 Q91.2695 22.4062 92.4414 22.4062 ZM103.0977 22.6875 L103.0977 23.5469 Q102.7227 23.3438 102.3164 23.25 Q101.9102 23.1562 101.457 23.1562 Q100.8008 23.1562 100.4648 23.3594 Q100.1289 23.5625 100.1289 23.9688 Q100.1289 24.2812 100.3633 24.4609 Q100.5977 24.6406 101.332 24.7969 L101.6289 24.875 Q102.5977 25.0781 102.9961 25.4531 Q103.3945 25.8281 103.3945 26.4844 Q103.3945 27.25 102.793 27.6953 Q102.1914 28.1406 101.1445 28.1406 Q100.6914 28.1406 100.2148 28.0547 Q99.7383 27.9688 99.2227 27.7969 L99.2227 26.875 Q99.7227 27.125 100.1992 27.2578 Q100.6758 27.3906 101.1602 27.3906 Q101.7852 27.3906 102.1289 27.1719 Q102.4727 26.9531 102.4727 26.5625 Q102.4727 26.1875 102.2305 25.9922 Q101.9883 25.7969 101.1445 25.625 L100.832 25.5469 Q100.0039 25.375 99.6289 25.0078 Q99.2539 24.6406 99.2539 24.0156 Q99.2539 23.2344 99.8008 22.8203 Q100.3477 22.4062 101.3633 22.4062 Q101.8477 22.4062 102.293 22.4766 Q102.7383 22.5469 103.0977 22.6875 ZM107.3076 25.25 Q106.2295 25.25 105.8076 25.5 Q105.3857 25.75 105.3857 26.3438 Q105.3857 26.8281 105.6982 27.1094 Q106.0107 27.3906 106.5576 27.3906 Q107.3076 27.3906 107.7607 26.8594 Q108.2139 26.3281 108.2139 25.4531 L108.2139 25.25 L107.3076 25.25 ZM109.1045 24.875 L109.1045 28 L108.2139 28 L108.2139 27.1719 Q107.9014 27.6719 107.4404 27.9062 Q106.9795 28.1406 106.3232 28.1406 Q105.4795 28.1406 104.9795 27.6719 Q104.4795 27.2031 104.4795 26.4062 Q104.4795 25.4844 105.1045 25.0156 Q105.7295 24.5469 106.9482 24.5469 L108.2139 24.5469 L108.2139 24.4531 Q108.2139 23.8438 107.7998 23.5 Q107.3857 23.1562 106.6514 23.1562 Q106.1826 23.1562 105.7373 23.2734 Q105.292 23.3906 104.8857 23.6094 L104.8857 22.7812 Q105.3857 22.5938 105.8467 22.5 Q106.3076 22.4062 106.7451 22.4062 Q107.9326 22.4062 108.5186 23.0156 Q109.1045 23.625 109.1045 24.875 ZM111.8262 27.1719 L111.8262 30.0781 L110.9199 30.0781 L110.9199 22.5312 L111.8262 22.5312 L111.8262 23.3594 Q112.1074 22.875 112.5371 22.6406 Q112.9668 22.4062 113.5762 22.4062 Q114.5762 22.4062 115.1934 23.1953 Q115.8105 23.9844 115.8105 25.2656 Q115.8105 26.5625 115.1934 27.3516 Q114.5762 28.1406 113.5762 28.1406 Q112.9668 28.1406 112.5371 27.9062 Q112.1074 27.6719 111.8262 27.1719 ZM114.8887 25.2656 Q114.8887 24.2812 114.4746 23.7188 Q114.0605 23.1562 113.3574 23.1562 Q112.6387 23.1562 112.2324 23.7188 Q111.8262 24.2812 111.8262 25.2656 Q111.8262 26.2656 112.2324 26.8281 Q112.6387 27.3906 113.3574 27.3906 Q114.0605 27.3906 114.4746 26.8281 Q114.8887 26.2656 114.8887 25.2656 ZM117.2988 22.5312 L118.2051 22.5312 L118.2051 28 L117.2988 28 L117.2988 22.5312 ZM117.2988 20.4062 L118.2051 20.4062 L118.2051 21.5469 L117.2988 21.5469 L117.2988 20.4062 ZM124.7646 25.0469 L124.7646 25.4844 L120.624 25.4844 Q120.6865 26.4062 121.1865 26.8906 Q121.6865 27.375 122.5771 27.375 Q123.0928 27.375 123.585 27.25 Q124.0771 27.125 124.5459 26.875 L124.5459 27.7188 Q124.0615 27.9219 123.5537 28.0312 Q123.0459 28.1406 122.5303 28.1406 Q121.2178 28.1406 120.4521 27.3828 Q119.6865 26.625 119.6865 25.3125 Q119.6865 23.9688 120.4131 23.1875 Q121.1396 22.4062 122.374 22.4062 Q123.4834 22.4062 124.124 23.1094 Q124.7646 23.8125 124.7646 25.0469 ZM123.8584 24.7812 Q123.8584 24.0469 123.4521 23.6016 Q123.0459 23.1562 122.3896 23.1562 Q121.624 23.1562 121.1787 23.5859 Q120.7334 24.0156 120.6553 24.7812 L123.8584 24.7812 ZM130.7764 24.7031 L130.7764 28 L129.8857 28 L129.8857 24.7344 Q129.8857 23.9531 129.5811 23.5703 Q129.2764 23.1875 128.667 23.1875 Q127.9482 23.1875 127.5264 23.6484 Q127.1045 24.1094 127.1045 24.9062 L127.1045 28 L126.1982 28 L126.1982 22.5312 L127.1045 22.5312 L127.1045 23.375 Q127.4326 22.8906 127.8701 22.6484 Q128.3076 22.4062 128.8701 22.4062 Q129.8076 22.4062 130.292 22.9844 Q130.7764 23.5625 130.7764 24.7031 ZM136.0518 22.6875 L136.0518 23.5469 Q135.6768 23.3438 135.2705 23.25 Q134.8643 23.1562 134.4111 23.1562 Q133.7549 23.1562 133.4189 23.3594 Q133.083 23.5625 133.083 23.9688 Q133.083 24.2812 133.3174 24.4609 Q133.5518 24.6406 134.2861 24.7969 L134.583 24.875 Q135.5518 25.0781 135.9502 25.4531 Q136.3486 25.8281 136.3486 26.4844 Q136.3486 27.25 135.7471 27.6953 Q135.1455 28.1406 134.0986 28.1406 Q133.6455 28.1406 133.1689 28.0547 Q132.6924 27.9688 132.1768 27.7969 L132.1768 26.875 Q132.6768 27.125 133.1533 27.2578 Q133.6299 27.3906 134.1143 27.3906 Q134.7393 27.3906 135.083 27.1719 Q135.4268 26.9531 135.4268 26.5625 Q135.4268 26.1875 135.1846 25.9922 Q134.9424 25.7969 134.0986 25.625 L133.7861 25.5469 Q132.958 25.375 132.583 25.0078 Q132.208 24.6406 132.208 24.0156 Q132.208 23.2344 132.7549 22.8203 Q133.3018 22.4062 134.3174 22.4062 Q134.8018 22.4062 135.2471 22.4766 Q135.6924 22.5469 136.0518 22.6875 Z"
         style="clip-path:url(#clipPath2); stroke:none;"
         clip-path="url(#clipPath2)"
         id="path83" />
    </g>
    <g
       style="fill:navy; text-rendering:geometricPrecision; font-size:8; stroke:navy;"
       id="g89">
      <text
         x="301"
         xml:space="preserve"
         y="16"
         style="clip-path:url(#clipPath4); stroke:none;"
         clip-path="url(#clipPath4)"
         id="text87">1, 2</text>
    </g>
    <g
       style="font-weight:bold; font-size:8; text-rendering:geometricPrecision;"
       id="g93">
      <text
         x="108"
         xml:space="preserve"
         y="122"
         style="clip-path:url(#clipPath5); stroke:none;"
         clip-path="url(#clipPath5)"
         id="text91">Metabotropic glutamate</text>
    </g>
    <g
       style="font-weight:bold; font-size:8; text-rendering:geometricPrecision;"
       id="g97">
      <text
         x="94"
         xml:space="preserve"
         y="319"
         style="clip-path:url(#clipPath6); stroke:none;"
         clip-path="url(#clipPath6)"
         id="text95">Metabotropic glutamate other</text>
    </g>
    <g
       style="font-weight:bold; font-size:8; text-rendering:geometricPrecision;"
       id="g101">
      <text
         x="298"
         xml:space="preserve"
         y="199"
         style="clip-path:url(#clipPath7); stroke:none;"
         clip-path="url(#clipPath7)"
         id="text99">Orphan GPRC5</text>
    </g>
    <g
       style="font-weight:bold; font-size:8; text-rendering:geometricPrecision;"
       id="g105">
      <text
         x="314"
         xml:space="preserve"
         y="122"
         style="clip-path:url(#clipPath8); stroke:none;"
         clip-path="url(#clipPath8)"
         id="text103">GABA-B</text>
    </g>
    <g
       style="fill:white; text-rendering:geometricPrecision; stroke:white;"
       id="g113">
      <path
         d="M132 236.3333 L192 236.3333 L192 256.3333 L132 256.3333 L132 236.3333 Z"
         style="clip-path:url(#clipPath9); stroke:none;"
         clip-path="url(#clipPath9)"
         id="path107" />
      <path
         d="M132 236.3333 L192 236.3333 L192 256.3333 L132 256.3333 L132 236.3333 Z"
         style="fill:none; clip-path:url(#clipPath9); stroke:black;"
         clip-path="url(#clipPath9)"
         id="path109" />
      <text
         x="148"
         y="250"
         style="font-size:10; clip-path:url(#clipPath9); fill:black; stroke:none;"
         xml:space="preserve"
         clip-path="url(#clipPath9)"
         id="text111">GRM4</text>
    </g>
    <g
       style="fill:white; text-rendering:geometricPrecision; stroke:white;"
       id="g121">
      <path
         d="M301 278.3333 L361 278.3333 L361 298.3333 L301 298.3333 L301 278.3333 Z"
         style="clip-path:url(#clipPath10); stroke:none;"
         clip-path="url(#clipPath10)"
         id="path115" />
      <path
         d="M301 278.3333 L361 278.3333 L361 298.3333 L301 298.3333 L301 278.3333 Z"
         style="fill:none; clip-path:url(#clipPath10); stroke:black;"
         clip-path="url(#clipPath10)"
         id="path117" />
      <text
         x="311"
         y="292"
         style="font-size:10; clip-path:url(#clipPath10); fill:black; stroke:none;"
         xml:space="preserve"
         clip-path="url(#clipPath10)"
         id="text119">GPRC5A</text>
    </g>
    <g
       style="fill:white; text-rendering:geometricPrecision; stroke:white;"
       id="g129">
      <path
         d="M132 176.3333 L192 176.3333 L192 196.3333 L132 196.3333 L132 176.3333 Z"
         style="clip-path:url(#clipPath11); stroke:none;"
         clip-path="url(#clipPath11)"
         id="path123" />
      <path
         d="M132 176.3333 L192 176.3333 L192 196.3333 L132 196.3333 L132 176.3333 Z"
         style="fill:none; clip-path:url(#clipPath11); stroke:black;"
         clip-path="url(#clipPath11)"
         id="path125" />
      <text
         x="148"
         y="190"
         style="font-size:10; clip-path:url(#clipPath11); fill:black; stroke:none;"
         xml:space="preserve"
         clip-path="url(#clipPath11)"
         id="text127">GRM2</text>
    </g>
    <g
       style="fill:white; text-rendering:geometricPrecision; stroke:white;"
       id="g137">
      <path
         d="M132 156.3333 L192 156.3333 L192 176.3333 L132 176.3333 L132 156.3333 Z"
         style="clip-path:url(#clipPath12); stroke:none;"
         clip-path="url(#clipPath12)"
         id="path131" />
      <path
         d="M132 156.3333 L192 156.3333 L192 176.3333 L132 176.3333 L132 156.3333 Z"
         style="fill:none; clip-path:url(#clipPath12); stroke:black;"
         clip-path="url(#clipPath12)"
         id="path133" />
      <text
         x="148"
         y="170"
         style="font-size:10; clip-path:url(#clipPath12); fill:black; stroke:none;"
         xml:space="preserve"
         clip-path="url(#clipPath12)"
         id="text135">GRM5</text>
    </g>
    <g
       style="fill:white; text-rendering:geometricPrecision; stroke:white;"
       id="g145">
      <path
         d="M132 216.3333 L192 216.3333 L192 236.3333 L132 236.3333 L132 216.3333 Z"
         style="clip-path:url(#clipPath13); stroke:none;"
         clip-path="url(#clipPath13)"
         id="path139" />
      <path
         d="M132 216.3333 L192 216.3333 L192 236.3333 L132 236.3333 L132 216.3333 Z"
         style="fill:none; clip-path:url(#clipPath13); stroke:black;"
         clip-path="url(#clipPath13)"
         id="path141" />
      <text
         x="148"
         y="230"
         style="font-size:10; clip-path:url(#clipPath13); fill:black; stroke:none;"
         xml:space="preserve"
         clip-path="url(#clipPath13)"
         id="text143">GRM8</text>
    </g>
    <g
       style="fill:white; text-rendering:geometricPrecision; stroke:white;"
       id="g153">
      <path
         d="M132 256.3333 L192 256.3333 L192 276.3333 L132 276.3333 L132 256.3333 Z"
         style="clip-path:url(#clipPath14); stroke:none;"
         clip-path="url(#clipPath14)"
         id="path147" />
      <path
         d="M132 256.3333 L192 256.3333 L192 276.3333 L132 276.3333 L132 256.3333 Z"
         style="fill:none; clip-path:url(#clipPath14); stroke:black;"
         clip-path="url(#clipPath14)"
         id="path149" />
      <text
         x="148"
         y="270"
         style="font-size:10; clip-path:url(#clipPath14); fill:black; stroke:none;"
         xml:space="preserve"
         clip-path="url(#clipPath14)"
         id="text151">GRM7</text>
    </g>
    <g
       style="fill:white; text-rendering:geometricPrecision; stroke:white;"
       id="g161">
      <path
         d="M132 136.3333 L192 136.3333 L192 156.3333 L132 156.3333 L132 136.3333 Z"
         style="clip-path:url(#clipPath15); stroke:none;"
         clip-path="url(#clipPath15)"
         id="path155" />
      <path
         d="M132 136.3333 L192 136.3333 L192 156.3333 L132 156.3333 L132 136.3333 Z"
         style="fill:none; clip-path:url(#clipPath15); stroke:black;"
         clip-path="url(#clipPath15)"
         id="path157" />
      <text
         x="148"
         y="150"
         style="font-size:10; clip-path:url(#clipPath15); fill:black; stroke:none;"
         xml:space="preserve"
         clip-path="url(#clipPath15)"
         id="text159">GRM1</text>
    </g>
    <g
       style="fill:white; text-rendering:geometricPrecision; stroke:white;"
       id="g169">
      <path
         d="M132 196.3333 L192 196.3333 L192 216.3333 L132 216.3333 L132 196.3333 Z"
         style="clip-path:url(#clipPath16); stroke:none;"
         clip-path="url(#clipPath16)"
         id="path163" />
      <path
         d="M132 196.3333 L192 196.3333 L192 216.3333 L132 216.3333 L132 196.3333 Z"
         style="fill:none; clip-path:url(#clipPath16); stroke:black;"
         clip-path="url(#clipPath16)"
         id="path165" />
      <text
         x="148"
         y="210"
         style="font-size:10; clip-path:url(#clipPath16); fill:black; stroke:none;"
         xml:space="preserve"
         clip-path="url(#clipPath16)"
         id="text167">GRM3</text>
    </g>
    <g
       style="fill:white; text-rendering:geometricPrecision; stroke:white;"
       id="g177">
      <path
         d="M301 258.3333 L361 258.3333 L361 278.3333 L301 278.3333 L301 258.3333 Z"
         style="clip-path:url(#clipPath17); stroke:none;"
         clip-path="url(#clipPath17)"
         id="path171" />
      <path
         d="M301 258.3333 L361 258.3333 L361 278.3333 L301 278.3333 L301 258.3333 Z"
         style="fill:none; clip-path:url(#clipPath17); stroke:black;"
         clip-path="url(#clipPath17)"
         id="path173" />
      <text
         x="311"
         y="272"
         style="font-size:10; clip-path:url(#clipPath17); fill:black; stroke:none;"
         xml:space="preserve"
         clip-path="url(#clipPath17)"
         id="text175">GPRC5B</text>
    </g>
    <g
       style="fill:white; text-rendering:geometricPrecision; stroke:white;"
       id="g185">
      <path
         d="M132 328.3333 L192 328.3333 L192 348.3333 L132 348.3333 L132 328.3333 Z"
         style="clip-path:url(#clipPath18); stroke:none;"
         clip-path="url(#clipPath18)"
         id="path179" />
      <path
         d="M132 328.3333 L192 328.3333 L192 348.3333 L132 348.3333 L132 328.3333 Z"
         style="fill:none; clip-path:url(#clipPath18); stroke:black;"
         clip-path="url(#clipPath18)"
         id="path181" />
      <text
         x="149"
         y="342"
         style="font-size:10; clip-path:url(#clipPath18); fill:black; stroke:none;"
         xml:space="preserve"
         clip-path="url(#clipPath18)"
         id="text183">CASR</text>
    </g>
    <g
       style="fill:white; text-rendering:geometricPrecision; stroke:white;"
       id="g193">
      <path
         d="M301 238.3333 L361 238.3333 L361 258.3333 L301 258.3333 L301 238.3333 Z"
         style="clip-path:url(#clipPath19); stroke:none;"
         clip-path="url(#clipPath19)"
         id="path187" />
      <path
         d="M301 238.3333 L361 238.3333 L361 258.3333 L301 258.3333 L301 238.3333 Z"
         style="fill:none; clip-path:url(#clipPath19); stroke:black;"
         clip-path="url(#clipPath19)"
         id="path189" />
      <text
         x="311"
         y="252"
         style="font-size:10; clip-path:url(#clipPath19); fill:black; stroke:none;"
         xml:space="preserve"
         clip-path="url(#clipPath19)"
         id="text191">GPRC5C</text>
    </g>
    <g
       style="fill:white; text-rendering:geometricPrecision; stroke:white;"
       id="g201">
      <path
         d="M301 218.3333 L361 218.3333 L361 238.3333 L301 238.3333 L301 218.3333 Z"
         style="clip-path:url(#clipPath20); stroke:none;"
         clip-path="url(#clipPath20)"
         id="path195" />
      <path
         d="M301 218.3333 L361 218.3333 L361 238.3333 L301 238.3333 L301 218.3333 Z"
         style="fill:none; clip-path:url(#clipPath20); stroke:black;"
         clip-path="url(#clipPath20)"
         id="path197" />
      <text
         x="311"
         y="232"
         style="font-size:10; clip-path:url(#clipPath20); fill:black; stroke:none;"
         xml:space="preserve"
         clip-path="url(#clipPath20)"
         id="text199">GPRC5D</text>
    </g>
    <g
       style="fill:white; text-rendering:geometricPrecision; stroke:white;"
       id="g209">
      <path
         d="M132 276.3333 L192 276.3333 L192 296.3333 L132 296.3333 L132 276.3333 Z"
         style="clip-path:url(#clipPath21); stroke:none;"
         clip-path="url(#clipPath21)"
         id="path203" />
      <path
         d="M132 276.3333 L192 276.3333 L192 296.3333 L132 296.3333 L132 276.3333 Z"
         style="fill:none; clip-path:url(#clipPath21); stroke:black;"
         clip-path="url(#clipPath21)"
         id="path205" />
      <text
         x="148"
         y="290"
         style="font-size:10; clip-path:url(#clipPath21); fill:black; stroke:none;"
         xml:space="preserve"
         clip-path="url(#clipPath21)"
         id="text207">GRM6</text>
    </g>
    <g
       style="fill:white; text-rendering:geometricPrecision; stroke:white;"
       id="g217">
      <path
         d="M301 153.3333 L361 153.3333 L361 173.3333 L301 173.3333 L301 153.3333 Z"
         style="clip-path:url(#clipPath22); stroke:none;"
         clip-path="url(#clipPath22)"
         id="path211" />
      <path
         d="M301 153.3333 L361 153.3333 L361 173.3333 L301 173.3333 L301 153.3333 Z"
         style="fill:none; clip-path:url(#clipPath22); stroke:black;"
         clip-path="url(#clipPath22)"
         id="path213" />
      <text
         x="315"
         y="167"
         style="font-size:10; clip-path:url(#clipPath22); fill:black; stroke:none;"
         xml:space="preserve"
         clip-path="url(#clipPath22)"
         id="text215">GPR51</text>
    </g>
    <g
       style="fill:white; text-rendering:geometricPrecision; stroke:white;"
       id="g225">
      <path
         d="M301 133.3333 L361 133.3333 L361 153.3333 L301 153.3333 L301 133.3333 Z"
         style="clip-path:url(#clipPath23); stroke:none;"
         clip-path="url(#clipPath23)"
         id="path219" />
      <path
         d="M301 133.3333 L361 133.3333 L361 153.3333 L301 153.3333 L301 133.3333 Z"
         style="fill:none; clip-path:url(#clipPath23); stroke:black;"
         clip-path="url(#clipPath23)"
         id="path221" />
      <text
         x="311"
         y="147"
         style="font-size:10; clip-path:url(#clipPath23); fill:black; stroke:none;"
         xml:space="preserve"
         clip-path="url(#clipPath23)"
         id="text223">GABBR1</text>
    </g>
  </g>
</svg>
