<?xml version="1.0" encoding="UTF-8" standalone="no"?>
<svg
   style="fill-opacity:1; color-rendering:auto; color-interpolation:auto; stroke:black; text-rendering:auto; stroke-linecap:square; stroke-miterlimit:10; stroke-opacity:1; shape-rendering:auto; fill:black; stroke-dasharray:none; font-weight:normal; stroke-width:1; font-family:'Dialog'; font-style:normal; stroke-linejoin:miter; font-size:12; stroke-dashoffset:0; image-rendering:auto;"
   width="1180"
   height="886"
   version="1.1"
   id="svg550"
   xmlns="http://www.w3.org/2000/svg"
   xmlns:svg="http://www.w3.org/2000/svg">
  <!--Generated by the Batik Graphics2D SVG Generator-->
  <defs
     id="genericDefs" />
  <g
     id="g548">
    <defs
       id="defs1">
      <clipPath
         clipPathUnits="userSpaceOnUse"
         id="clipPath1">
        <path
           d="M0 0 L1190 0 L1190 896 L0 896 L0 0 Z"
           id="path3" />
      </clipPath>
      <clipPath
         clipPathUnits="userSpaceOnUse"
         id="clipPath2">
        <path
           d="M0 0 L0 200 L200 200 L200 0 Z"
           id="path6" />
      </clipPath>
      <clipPath
         clipPathUnits="userSpaceOnUse"
         id="clipPath3">
        <path
           d="M330 16 L330 37 L341 37 L341 16 Z"
           id="path9" />
      </clipPath>
      <clipPath
         clipPathUnits="userSpaceOnUse"
         id="clipPath4">
        <path
           d="M329.4551 3.918 L340.5449 3.918 L340.5449 19.2305 L329.4551 19.2305 L329.4551 3.918 Z"
           id="path12" />
      </clipPath>
      <clipPath
         clipPathUnits="userSpaceOnUse"
         id="clipPath5">
        <path
           d="M519.7949 343.157 L519.7949 396.3975 L531.7314 396.3975 L531.7314 343.157 Z"
           id="path15" />
      </clipPath>
      <clipPath
         clipPathUnits="userSpaceOnUse"
         id="clipPath6">
        <path
           d="M922.326 660.326 L922.326 694.8406 L988.093 694.8406 L988.093 660.326 Z"
           id="path18" />
      </clipPath>
      <clipPath
         clipPathUnits="userSpaceOnUse"
         id="clipPath7">
        <path
           d="M520.0306 501.6667 L520.0306 564.3978 L531.9694 564.3978 L531.9694 501.6667 Z"
           id="path21" />
      </clipPath>
      <clipPath
         clipPathUnits="userSpaceOnUse"
         id="clipPath8">
        <path
           d="M370.5189 655.0306 L370.5189 666.9694 L441.5 666.9694 L441.5 655.0306 Z"
           id="path24" />
      </clipPath>
      <clipPath
         clipPathUnits="userSpaceOnUse"
         id="clipPath9">
        <path
           d="M215.2674 625.988 L215.2674 661.9015 L226.6674 661.9015 L226.6674 625.988 Z"
           id="path27" />
      </clipPath>
      <clipPath
         clipPathUnits="userSpaceOnUse"
         id="clipPath10">
        <path
           d="M778.5 655.0306 L778.5 666.9694 L834.2311 666.9694 L834.2311 655.0306 Z"
           id="path30" />
      </clipPath>
      <clipPath
         clipPathUnits="userSpaceOnUse"
         id="clipPath11">
        <path
           d="M608.5 323.4473 L608.5 335.386 L735.2311 335.386 L735.2311 323.4473 Z"
           id="path33" />
      </clipPath>
      <clipPath
         clipPathUnits="userSpaceOnUse"
         id="clipPath12">
        <path
           d="M518.7291 116.6654 L518.7291 245.3978 L533.192 245.3978 L533.192 116.6654 Z"
           id="path36" />
      </clipPath>
      <clipPath
         clipPathUnits="userSpaceOnUse"
         id="clipPath13">
        <path
           d="M524.7 281.8736 L524.7 293.2736 L652.584 293.2736 L652.584 281.8736 Z"
           id="path39" />
      </clipPath>
      <clipPath
         clipPathUnits="userSpaceOnUse"
         id="clipPath14">
        <path
           d="M608.3015 328.7182 L608.3015 390.9955 L653.8077 390.9955 L653.8077 328.7182 Z"
           id="path42" />
      </clipPath>
      <clipPath
         clipPathUnits="userSpaceOnUse"
         id="clipPath15">
        <path
           d="M520.0306 423.1667 L520.0306 478.3978 L531.9694 478.3978 L531.9694 423.1667 Z"
           id="path45" />
      </clipPath>
      <clipPath
         clipPathUnits="userSpaceOnUse"
         id="clipPath16">
        <path
           d="M435.8315 182.2885 L435.8315 193.6885 L526.7527 193.6885 L526.7527 182.2885 Z"
           id="path48" />
      </clipPath>
      <clipPath
         clipPathUnits="userSpaceOnUse"
         id="clipPath17">
        <path
           d="M436.4966 439.399 L436.4966 450.799 L526.9001 450.799 L526.9001 439.399 Z"
           id="path51" />
      </clipPath>
      <clipPath
         clipPathUnits="userSpaceOnUse"
         id="clipPath18">
        <path
           d="M795.1401 592.6423 L795.1401 661.9061 L806.5404 661.9061 L806.5404 592.6423 Z"
           id="path54" />
      </clipPath>
      <clipPath
         clipPathUnits="userSpaceOnUse"
         id="clipPath19">
        <path
           d="M519.2972 268.6559 L519.2972 316.3975 L531.2332 316.3975 L531.2332 268.6559 Z"
           id="path57" />
      </clipPath>
      <clipPath
         clipPathUnits="userSpaceOnUse"
         id="clipPath20">
        <path
           d="M671.3925 524.2259 L671.3925 587.0341 L759.806 587.0341 L759.806 524.2259 Z"
           id="path60" />
      </clipPath>
      <clipPath
         clipPathUnits="userSpaceOnUse"
         id="clipPath21">
        <path
           d="M519.2336 587.6584 L519.2336 649.731 L531.1708 649.731 L531.1708 587.6584 Z"
           id="path63" />
      </clipPath>
      <clipPath
         clipPathUnits="userSpaceOnUse"
         id="clipPath22">
        <path
           d="M608.5 655.0306 L608.5 666.9694 L690.2311 666.9694 L690.2311 655.0306 Z"
           id="path66" />
      </clipPath>
      <clipPath
         clipPathUnits="userSpaceOnUse"
         id="clipPath23">
        <path
           d="M697.4071 401.8238 L697.4071 506.6826 L880.416 506.6826 L880.416 401.8238 Z"
           id="path69" />
      </clipPath>
      <clipPath
         clipPathUnits="userSpaceOnUse"
         id="clipPath24">
        <path
           d="M128.8522 655.0306 L128.8522 666.9694 L282.25 666.9694 L282.25 655.0306 Z"
           id="path72" />
      </clipPath>
      <clipPath
         clipPathUnits="userSpaceOnUse"
         id="clipPath25">
        <path
           d="M395.622 660.0987 L395.622 724.0114 L407.0221 724.0114 L407.0221 660.0987 Z"
           id="path75" />
      </clipPath>
      <clipPath
         clipPathUnits="userSpaceOnUse"
         id="clipPath26">
        <path
           d="M447.1559 606.7047 L447.1559 618.1047 L526.5012 618.1047 L526.5012 606.7047 Z"
           id="path78" />
      </clipPath>
      <clipPath
         clipPathUnits="userSpaceOnUse"
         id="clipPath27">
        <path
           d="M151.3333 135.3333 L151.3333 872.6667 L1166 872.6667 L1166 135.3333 Z"
           id="path81" />
      </clipPath>
      <clipPath
         clipPathUnits="userSpaceOnUse"
         id="clipPath28">
        <path
           d="M634.4138 511.2657 L634.4138 825.843 L1132.512 825.843 L1132.512 511.2657 Z"
           id="path84" />
      </clipPath>
      <clipPath
         clipPathUnits="userSpaceOnUse"
         id="clipPath29">
        <path
           d="M733.5 316.4167 L733.5 342.4167 L933.5 342.4167 L933.5 316.4167 Z"
           id="path87" />
      </clipPath>
      <clipPath
         clipPathUnits="userSpaceOnUse"
         id="clipPath30">
        <path
           d="M758.5 567.6667 L758.5 593.6667 L849.5 593.6667 L849.5 567.6667 Z"
           id="path90" />
      </clipPath>
      <clipPath
         clipPathUnits="userSpaceOnUse"
         id="clipPath31">
        <path
           d="M354.5 723 L354.5 749 L445.5 749 L445.5 723 Z"
           id="path93" />
      </clipPath>
      <clipPath
         clipPathUnits="userSpaceOnUse"
         id="clipPath32">
        <path
           d="M816.5 499 L816.5 525 L944.5 525 L944.5 499 Z"
           id="path96" />
      </clipPath>
      <clipPath
         clipPathUnits="userSpaceOnUse"
         id="clipPath33">
        <path
           d="M281.25 648 L281.25 674 L372.25 674 L372.25 648 Z"
           id="path99" />
      </clipPath>
      <clipPath
         clipPathUnits="userSpaceOnUse"
         id="clipPath34">
        <path
           d="M626.5833 499.4167 L626.5833 525.4167 L717.5833 525.4167 L717.5833 499.4167 Z"
           id="path102" />
      </clipPath>
      <clipPath
         clipPathUnits="userSpaceOnUse"
         id="clipPath35">
        <path
           d="M832.5 648 L832.5 674 L923.5 674 L923.5 648 Z"
           id="path105" />
      </clipPath>
      <clipPath
         clipPathUnits="userSpaceOnUse"
         id="clipPath36">
        <path
           d="M345.8333 174.6667 L345.8333 200.6667 L436.8333 200.6667 L436.8333 174.6667 Z"
           id="path108" />
      </clipPath>
      <clipPath
         clipPathUnits="userSpaceOnUse"
         id="clipPath37">
        <path
           d="M440.5 648 L440.5 674 L609.5 674 L609.5 648 Z"
           id="path111" />
      </clipPath>
      <clipPath
         clipPathUnits="userSpaceOnUse"
         id="clipPath38">
        <path
           d="M941.5 693.6667 L941.5 719.6667 L1032.5 719.6667 L1032.5 693.6667 Z"
           id="path114" />
      </clipPath>
      <clipPath
         clipPathUnits="userSpaceOnUse"
         id="clipPath39">
        <path
           d="M441.5 476.6667 L441.5 502.6667 L610.5 502.6667 L610.5 476.6667 Z"
           id="path117" />
      </clipPath>
      <clipPath
         clipPathUnits="userSpaceOnUse"
         id="clipPath40">
        <path
           d="M440.5 314.6667 L440.5 344.1667 L609.5 344.1667 L609.5 314.6667 Z"
           id="path120" />
      </clipPath>
      <clipPath
         clipPathUnits="userSpaceOnUse"
         id="clipPath41">
        <path
           d="M174.75 601 L174.75 627 L265.75 627 L265.75 601 Z"
           id="path123" />
      </clipPath>
      <clipPath
         clipPathUnits="userSpaceOnUse"
         id="clipPath42">
        <path
           d="M330.5 357 L330.5 383 L421.5 383 L421.5 357 Z"
           id="path126" />
      </clipPath>
      <clipPath
         clipPathUnits="userSpaceOnUse"
         id="clipPath43">
        <path
           d="M441.5 394.6667 L441.5 424.1667 L610.5 424.1667 L610.5 394.6667 Z"
           id="path129" />
      </clipPath>
      <clipPath
         clipPathUnits="userSpaceOnUse"
         id="clipPath44">
        <path
           d="M441.5 562.6667 L441.5 588.6667 L610.5 588.6667 L610.5 562.6667 Z"
           id="path132" />
      </clipPath>
      <clipPath
         clipPathUnits="userSpaceOnUse"
         id="clipPath45">
        <path
           d="M441.1667 91.6667 L441.1667 117.6667 L610.1667 117.6667 L610.1667 91.6667 Z"
           id="path135" />
      </clipPath>
      <clipPath
         clipPathUnits="userSpaceOnUse"
         id="clipPath46">
        <path
           d="M652.5833 377 L652.5833 403 L743.5833 403 L743.5833 377 Z"
           id="path138" />
      </clipPath>
      <clipPath
         clipPathUnits="userSpaceOnUse"
         id="clipPath47">
        <path
           d="M346.5 432.6667 L346.5 458.6667 L437.5 458.6667 L437.5 432.6667 Z"
           id="path141" />
      </clipPath>
      <clipPath
         clipPathUnits="userSpaceOnUse"
         id="clipPath48">
        <path
           d="M651.5833 274.75 L651.5833 300.75 L742.5833 300.75 L742.5833 274.75 Z"
           id="path144" />
      </clipPath>
      <clipPath
         clipPathUnits="userSpaceOnUse"
         id="clipPath49">
        <path
           d="M431.3333 172.1667 L431.3333 193.1667 L442.3333 193.1667 L442.3333 172.1667 Z"
           id="path147" />
      </clipPath>
      <clipPath
         clipPathUnits="userSpaceOnUse"
         id="clipPath50">
        <path
           d="M430.7884 160.0846 L441.8783 160.0846 L441.8783 175.3971 L430.7884 175.3971 L430.7884 160.0846 Z"
           id="path150" />
      </clipPath>
      <clipPath
         clipPathUnits="userSpaceOnUse"
         id="clipPath51">
        <path
           d="M441.5 243.6667 L441.5 269.6667 L610.5 269.6667 L610.5 243.6667 Z"
           id="path153" />
      </clipPath>
      <clipPath
         clipPathUnits="userSpaceOnUse"
         id="clipPath52">
        <path
           d="M737.0833 272.25 L737.0833 293.25 L748.0833 293.25 L748.0833 272.25 Z"
           id="path156" />
      </clipPath>
      <clipPath
         clipPathUnits="userSpaceOnUse"
         id="clipPath53">
        <path
           d="M736.5384 260.168 L747.6282 260.168 L747.6282 275.4805 L736.5384 275.4805 L736.5384 260.168 Z"
           id="path159" />
      </clipPath>
      <clipPath
         clipPathUnits="userSpaceOnUse"
         id="clipPath54">
        <path
           d="M39.5833 648 L39.5833 674 L130.5833 674 L130.5833 648 Z"
           id="path162" />
      </clipPath>
      <clipPath
         clipPathUnits="userSpaceOnUse"
         id="clipPath55">
        <path
           d="M688.5 648 L688.5 674 L779.5 674 L779.5 648 Z"
           id="path165" />
      </clipPath>
      <clipPath
         clipPathUnits="userSpaceOnUse"
         id="clipPath56">
        <path
           d="M357.1667 601 L357.1667 627 L448.1667 627 L448.1667 601 Z"
           id="path168" />
      </clipPath>
    </defs>
    <g
       style="fill:white; stroke:white;"
       id="g174">
      <rect
         x="0"
         width="1190"
         height="896"
         y="0"
         style="stroke:none;"
         id="rect172" />
    </g>
    <g
       style="font-weight:bold; font-size:10; text-rendering:geometricPrecision;"
       id="g184">
      <path
         d="M0.0469 6.7031 L6.7656 6.7031 L6.7656 8.125 L4.3438 8.125 L4.3438 14 L2.4688 14 L2.4688 8.125 L0.0469 8.125 L0.0469 6.7031 ZM7.665 8.5312 L9.415 8.5312 L9.415 14 L7.665 14 L7.665 8.5312 ZM7.665 6.4062 L9.415 6.4062 L9.415 7.8281 L7.665 7.8281 L7.665 6.4062 ZM12.999 6.9844 L12.999 8.5312 L14.7959 8.5312 L14.7959 9.7812 L12.999 9.7812 L12.999 12.0938 Q12.999 12.4844 13.1475 12.6172 Q13.2959 12.75 13.749 12.75 L14.6553 12.75 L14.6553 14 L13.1553 14 Q12.1084 14 11.6787 13.5703 Q11.249 13.1406 11.249 12.0938 L11.249 9.7812 L10.374 9.7812 L10.374 8.5312 L11.249 8.5312 L11.249 6.9844 L12.999 6.9844 ZM15.873 6.4062 L17.623 6.4062 L17.623 14 L15.873 14 L15.873 6.4062 ZM24.7539 11.25 L24.7539 11.75 L20.6758 11.75 Q20.7383 12.3594 21.1133 12.6719 Q21.4883 12.9844 22.1758 12.9844 Q22.7227 12.9844 23.3086 12.8203 Q23.8945 12.6562 24.5039 12.3125 L24.5039 13.6719 Q23.8789 13.9062 23.2617 14.0234 Q22.6445 14.1406 22.0195 14.1406 Q20.5352 14.1406 19.7148 13.3828 Q18.8945 12.625 18.8945 11.2656 Q18.8945 9.9375 19.6992 9.1719 Q20.5039 8.4062 21.9258 8.4062 Q23.207 8.4062 23.9805 9.1797 Q24.7539 9.9531 24.7539 11.25 ZM22.957 10.6719 Q22.957 10.1719 22.668 9.8672 Q22.3789 9.5625 21.9102 9.5625 Q21.3945 9.5625 21.082 9.8438 Q20.7695 10.125 20.6914 10.6719 L22.957 10.6719 ZM26.3643 8.5312 L28.1143 8.5312 L28.1143 10.4219 L26.3643 10.4219 L26.3643 8.5312 ZM26.3643 12.1094 L28.1143 12.1094 L28.1143 14 L26.3643 14 L26.3643 12.1094 Z"
         style="clip-path:url(#clipPath2); stroke:none;"
         clip-path="url(#clipPath2)"
         id="path176" />
      <path
         d="M43.9531 12.9531 L43.9531 11 L42.3438 11 L42.3438 10.1875 L44.9219 10.1875 L44.9219 13.3281 Q44.3594 13.7188 43.6719 13.9297 Q42.9844 14.1406 42.2031 14.1406 Q40.4844 14.1406 39.5234 13.1406 Q38.5625 12.1406 38.5625 10.3594 Q38.5625 8.5781 39.5234 7.5781 Q40.4844 6.5781 42.2031 6.5781 Q42.9062 6.5781 43.5547 6.75 Q44.2031 6.9219 44.7344 7.2656 L44.7344 8.3281 Q44.1875 7.8594 43.5781 7.625 Q42.9688 7.3906 42.2812 7.3906 Q40.9375 7.3906 40.2734 8.1328 Q39.6094 8.875 39.6094 10.3594 Q39.6094 11.8438 40.2734 12.5859 Q40.9375 13.3281 42.2812 13.3281 Q42.8125 13.3281 43.2188 13.2422 Q43.625 13.1562 43.9531 12.9531 ZM46.6865 6.4062 L47.5928 6.4062 L47.5928 14 L46.6865 14 L46.6865 6.4062 ZM49.3711 11.8438 L49.3711 8.5312 L50.2773 8.5312 L50.2773 11.8125 Q50.2773 12.5781 50.582 12.9688 Q50.8867 13.3594 51.4805 13.3594 Q52.2148 13.3594 52.6367 12.8984 Q53.0586 12.4375 53.0586 11.625 L53.0586 8.5312 L53.9648 8.5312 L53.9648 14 L53.0586 14 L53.0586 13.1562 Q52.7305 13.6562 52.3008 13.8984 Q51.8711 14.1406 51.293 14.1406 Q50.3555 14.1406 49.8633 13.5547 Q49.3711 12.9688 49.3711 11.8438 ZM51.6367 8.4062 L51.6367 8.4062 ZM59.7402 8.7344 L59.7402 9.5781 Q59.3652 9.375 58.9824 9.2656 Q58.5996 9.1562 58.209 9.1562 Q57.334 9.1562 56.8496 9.7109 Q56.3652 10.2656 56.3652 11.2656 Q56.3652 12.2656 56.8496 12.8203 Q57.334 13.375 58.209 13.375 Q58.5996 13.375 58.9824 13.2734 Q59.3652 13.1719 59.7402 12.9531 L59.7402 13.7969 Q59.3652 13.9688 58.9668 14.0547 Q58.5684 14.1406 58.1152 14.1406 Q56.8652 14.1406 56.1387 13.3672 Q55.4121 12.5938 55.4121 11.2656 Q55.4121 9.9375 56.1465 9.1719 Q56.8809 8.4062 58.1621 8.4062 Q58.584 8.4062 58.9746 8.4844 Q59.3652 8.5625 59.7402 8.7344 ZM63.4258 9.1562 Q62.707 9.1562 62.2852 9.7188 Q61.8633 10.2812 61.8633 11.2656 Q61.8633 12.25 62.2773 12.8125 Q62.6914 13.375 63.4258 13.375 Q64.1445 13.375 64.5664 12.8125 Q64.9883 12.25 64.9883 11.2656 Q64.9883 10.2969 64.5664 9.7266 Q64.1445 9.1562 63.4258 9.1562 ZM63.4258 8.4062 Q64.5977 8.4062 65.2695 9.1641 Q65.9414 9.9219 65.9414 11.2656 Q65.9414 12.6094 65.2695 13.375 Q64.5977 14.1406 63.4258 14.1406 Q62.2539 14.1406 61.582 13.375 Q60.9102 12.6094 60.9102 11.2656 Q60.9102 9.9219 61.582 9.1641 Q62.2539 8.4062 63.4258 8.4062 ZM70.9033 8.6875 L70.9033 9.5469 Q70.5283 9.3438 70.1221 9.25 Q69.7158 9.1562 69.2627 9.1562 Q68.6064 9.1562 68.2705 9.3594 Q67.9346 9.5625 67.9346 9.9688 Q67.9346 10.2812 68.1689 10.4609 Q68.4033 10.6406 69.1377 10.7969 L69.4346 10.875 Q70.4033 11.0781 70.8018 11.4531 Q71.2002 11.8281 71.2002 12.4844 Q71.2002 13.25 70.5986 13.6953 Q69.9971 14.1406 68.9502 14.1406 Q68.4971 14.1406 68.0205 14.0547 Q67.5439 13.9688 67.0283 13.7969 L67.0283 12.875 Q67.5283 13.125 68.0049 13.2578 Q68.4814 13.3906 68.9658 13.3906 Q69.5908 13.3906 69.9346 13.1719 Q70.2783 12.9531 70.2783 12.5625 Q70.2783 12.1875 70.0361 11.9922 Q69.7939 11.7969 68.9502 11.625 L68.6377 11.5469 Q67.8096 11.375 67.4346 11.0078 Q67.0596 10.6406 67.0596 10.0156 Q67.0596 9.2344 67.6064 8.8203 Q68.1533 8.4062 69.1689 8.4062 Q69.6533 8.4062 70.0986 8.4766 Q70.5439 8.5469 70.9033 8.6875 ZM77.3164 11.0469 L77.3164 11.4844 L73.1758 11.4844 Q73.2383 12.4062 73.7383 12.8906 Q74.2383 13.375 75.1289 13.375 Q75.6445 13.375 76.1367 13.25 Q76.6289 13.125 77.0977 12.875 L77.0977 13.7188 Q76.6133 13.9219 76.1055 14.0312 Q75.5977 14.1406 75.082 14.1406 Q73.7695 14.1406 73.0039 13.3828 Q72.2383 12.625 72.2383 11.3125 Q72.2383 9.9688 72.9648 9.1875 Q73.6914 8.4062 74.9258 8.4062 Q76.0352 8.4062 76.6758 9.1094 Q77.3164 9.8125 77.3164 11.0469 ZM76.4102 10.7812 Q76.4102 10.0469 76.0039 9.6016 Q75.5977 9.1562 74.9414 9.1562 Q74.1758 9.1562 73.7305 9.5859 Q73.2852 10.0156 73.207 10.7812 L76.4102 10.7812 ZM86.2256 9.5781 Q86.5537 8.9688 87.0225 8.6875 Q87.4912 8.4062 88.1318 8.4062 Q88.9912 8.4062 89.4521 9 Q89.9131 9.5938 89.9131 10.7031 L89.9131 14 L89.0068 14 L89.0068 10.7344 Q89.0068 9.9375 88.7334 9.5625 Q88.46 9.1875 87.8818 9.1875 Q87.1787 9.1875 86.7803 9.6484 Q86.3818 10.1094 86.3818 10.9062 L86.3818 14 L85.4756 14 L85.4756 10.7344 Q85.4756 9.9375 85.1943 9.5625 Q84.9131 9.1875 84.335 9.1875 Q83.6475 9.1875 83.2412 9.6484 Q82.835 10.1094 82.835 10.9062 L82.835 14 L81.9287 14 L81.9287 8.5312 L82.835 8.5312 L82.835 9.375 Q83.1475 8.875 83.5771 8.6406 Q84.0068 8.4062 84.585 8.4062 Q85.1943 8.4062 85.6084 8.7031 Q86.0225 9 86.2256 9.5781 ZM96.3887 11.0469 L96.3887 11.4844 L92.248 11.4844 Q92.3105 12.4062 92.8105 12.8906 Q93.3105 13.375 94.2012 13.375 Q94.7168 13.375 95.209 13.25 Q95.7012 13.125 96.1699 12.875 L96.1699 13.7188 Q95.6855 13.9219 95.1777 14.0312 Q94.6699 14.1406 94.1543 14.1406 Q92.8418 14.1406 92.0762 13.3828 Q91.3105 12.625 91.3105 11.3125 Q91.3105 9.9688 92.0371 9.1875 Q92.7637 8.4062 93.998 8.4062 Q95.1074 8.4062 95.748 9.1094 Q96.3887 9.8125 96.3887 11.0469 ZM95.4824 10.7812 Q95.4824 10.0469 95.0762 9.6016 Q94.6699 9.1562 94.0137 9.1562 Q93.248 9.1562 92.8027 9.5859 Q92.3574 10.0156 92.2793 10.7812 L95.4824 10.7812 ZM98.7441 6.9844 L98.7441 8.5312 L100.6035 8.5312 L100.6035 9.2344 L98.7441 9.2344 L98.7441 12.2031 Q98.7441 12.8594 98.9316 13.0547 Q99.1191 13.25 99.6816 13.25 L100.6035 13.25 L100.6035 14 L99.6816 14 Q98.6348 14 98.2363 13.6094 Q97.8379 13.2188 97.8379 12.2031 L97.8379 9.2344 L97.1816 9.2344 L97.1816 8.5312 L97.8379 8.5312 L97.8379 6.9844 L98.7441 6.9844 ZM104.2588 11.25 Q103.1807 11.25 102.7588 11.5 Q102.3369 11.75 102.3369 12.3438 Q102.3369 12.8281 102.6494 13.1094 Q102.9619 13.3906 103.5088 13.3906 Q104.2588 13.3906 104.7119 12.8594 Q105.165 12.3281 105.165 11.4531 L105.165 11.25 L104.2588 11.25 ZM106.0557 10.875 L106.0557 14 L105.165 14 L105.165 13.1719 Q104.8525 13.6719 104.3916 13.9062 Q103.9307 14.1406 103.2744 14.1406 Q102.4307 14.1406 101.9307 13.6719 Q101.4307 13.2031 101.4307 12.4062 Q101.4307 11.4844 102.0557 11.0156 Q102.6807 10.5469 103.8994 10.5469 L105.165 10.5469 L105.165 10.4531 Q105.165 9.8438 104.751 9.5 Q104.3369 9.1562 103.6025 9.1562 Q103.1338 9.1562 102.6885 9.2734 Q102.2432 9.3906 101.8369 9.6094 L101.8369 8.7812 Q102.3369 8.5938 102.7979 8.5 Q103.2588 8.4062 103.6963 8.4062 Q104.8838 8.4062 105.4697 9.0156 Q106.0557 9.625 106.0557 10.875 ZM111.8398 11.2656 Q111.8398 10.2812 111.4258 9.7188 Q111.0117 9.1562 110.3086 9.1562 Q109.5898 9.1562 109.1836 9.7188 Q108.7773 10.2812 108.7773 11.2656 Q108.7773 12.2656 109.1836 12.8281 Q109.5898 13.3906 110.3086 13.3906 Q111.0117 13.3906 111.4258 12.8281 Q111.8398 12.2656 111.8398 11.2656 ZM108.7773 9.3594 Q109.0586 8.875 109.4883 8.6406 Q109.918 8.4062 110.5273 8.4062 Q111.5273 8.4062 112.1445 9.1953 Q112.7617 9.9844 112.7617 11.2656 Q112.7617 12.5625 112.1445 13.3516 Q111.5273 14.1406 110.5273 14.1406 Q109.918 14.1406 109.4883 13.9062 Q109.0586 13.6719 108.7773 13.1719 L108.7773 14 L107.8711 14 L107.8711 6.4062 L108.7773 6.4062 L108.7773 9.3594 ZM116.375 9.1562 Q115.6562 9.1562 115.2344 9.7188 Q114.8125 10.2812 114.8125 11.2656 Q114.8125 12.25 115.2266 12.8125 Q115.6406 13.375 116.375 13.375 Q117.0938 13.375 117.5156 12.8125 Q117.9375 12.25 117.9375 11.2656 Q117.9375 10.2969 117.5156 9.7266 Q117.0938 9.1562 116.375 9.1562 ZM116.375 8.4062 Q117.5469 8.4062 118.2188 9.1641 Q118.8906 9.9219 118.8906 11.2656 Q118.8906 12.6094 118.2188 13.375 Q117.5469 14.1406 116.375 14.1406 Q115.2031 14.1406 114.5312 13.375 Q113.8594 12.6094 113.8594 11.2656 Q113.8594 9.9219 114.5312 9.1641 Q115.2031 8.4062 116.375 8.4062 ZM120.3682 6.4062 L121.2744 6.4062 L121.2744 14 L120.3682 14 L120.3682 6.4062 ZM123.1465 8.5312 L124.0527 8.5312 L124.0527 14 L123.1465 14 L123.1465 8.5312 ZM123.1465 6.4062 L124.0527 6.4062 L124.0527 7.5469 L123.1465 7.5469 L123.1465 6.4062 ZM129.4092 8.6875 L129.4092 9.5469 Q129.0342 9.3438 128.6279 9.25 Q128.2217 9.1562 127.7686 9.1562 Q127.1123 9.1562 126.7764 9.3594 Q126.4404 9.5625 126.4404 9.9688 Q126.4404 10.2812 126.6748 10.4609 Q126.9092 10.6406 127.6436 10.7969 L127.9404 10.875 Q128.9092 11.0781 129.3076 11.4531 Q129.7061 11.8281 129.7061 12.4844 Q129.7061 13.25 129.1045 13.6953 Q128.5029 14.1406 127.4561 14.1406 Q127.0029 14.1406 126.5264 14.0547 Q126.0498 13.9688 125.5342 13.7969 L125.5342 12.875 Q126.0342 13.125 126.5107 13.2578 Q126.9873 13.3906 127.4717 13.3906 Q128.0967 13.3906 128.4404 13.1719 Q128.7842 12.9531 128.7842 12.5625 Q128.7842 12.1875 128.542 11.9922 Q128.2998 11.7969 127.4561 11.625 L127.1436 11.5469 Q126.3154 11.375 125.9404 11.0078 Q125.5654 10.6406 125.5654 10.0156 Q125.5654 9.2344 126.1123 8.8203 Q126.6592 8.4062 127.6748 8.4062 Q128.1592 8.4062 128.6045 8.4766 Q129.0498 8.5469 129.4092 8.6875 ZM135.4004 9.5781 Q135.7285 8.9688 136.1973 8.6875 Q136.666 8.4062 137.3066 8.4062 Q138.166 8.4062 138.627 9 Q139.0879 9.5938 139.0879 10.7031 L139.0879 14 L138.1816 14 L138.1816 10.7344 Q138.1816 9.9375 137.9082 9.5625 Q137.6348 9.1875 137.0566 9.1875 Q136.3535 9.1875 135.9551 9.6484 Q135.5566 10.1094 135.5566 10.9062 L135.5566 14 L134.6504 14 L134.6504 10.7344 Q134.6504 9.9375 134.3691 9.5625 Q134.0879 9.1875 133.5098 9.1875 Q132.8223 9.1875 132.416 9.6484 Q132.0098 10.1094 132.0098 10.9062 L132.0098 14 L131.1035 14 L131.1035 8.5312 L132.0098 8.5312 L132.0098 9.375 Q132.3223 8.875 132.752 8.6406 Q133.1816 8.4062 133.7598 8.4062 Q134.3691 8.4062 134.7832 8.7031 Q135.1973 9 135.4004 9.5781 ZM144.0547 8.5312 L144.9609 8.5312 L144.9609 14 L144.0547 14 L144.0547 8.5312 ZM144.0547 6.4062 L144.9609 6.4062 L144.9609 7.5469 L144.0547 7.5469 L144.0547 6.4062 ZM151.3799 10.7031 L151.3799 14 L150.4893 14 L150.4893 10.7344 Q150.4893 9.9531 150.1846 9.5703 Q149.8799 9.1875 149.2705 9.1875 Q148.5518 9.1875 148.1299 9.6484 Q147.708 10.1094 147.708 10.9062 L147.708 14 L146.8018 14 L146.8018 8.5312 L147.708 8.5312 L147.708 9.375 Q148.0361 8.8906 148.4736 8.6484 Q148.9111 8.4062 149.4736 8.4062 Q150.4111 8.4062 150.8955 8.9844 Q151.3799 9.5625 151.3799 10.7031 ZM157.2402 6.9844 L157.2402 8.5312 L159.0996 8.5312 L159.0996 9.2344 L157.2402 9.2344 L157.2402 12.2031 Q157.2402 12.8594 157.4277 13.0547 Q157.6152 13.25 158.1777 13.25 L159.0996 13.25 L159.0996 14 L158.1777 14 Q157.1309 14 156.7324 13.6094 Q156.334 13.2188 156.334 12.2031 L156.334 9.2344 L155.6777 9.2344 L155.6777 8.5312 L156.334 8.5312 L156.334 6.9844 L157.2402 6.9844 ZM163.4424 9.375 Q163.2861 9.2812 163.1143 9.2422 Q162.9424 9.2031 162.7236 9.2031 Q161.958 9.2031 161.5518 9.6953 Q161.1455 10.1875 161.1455 11.125 L161.1455 14 L160.2393 14 L160.2393 8.5312 L161.1455 8.5312 L161.1455 9.375 Q161.4268 8.875 161.8799 8.6406 Q162.333 8.4062 162.9893 8.4062 Q163.083 8.4062 163.1924 8.4141 Q163.3018 8.4219 163.4424 8.4531 L163.4424 9.375 ZM164.3818 8.5312 L165.2881 8.5312 L165.2881 14 L164.3818 14 L164.3818 8.5312 ZM164.3818 6.4062 L165.2881 6.4062 L165.2881 7.5469 L164.3818 7.5469 L164.3818 6.4062 ZM168.0352 13.1719 L168.0352 16.0781 L167.1289 16.0781 L167.1289 8.5312 L168.0352 8.5312 L168.0352 9.3594 Q168.3164 8.875 168.7461 8.6406 Q169.1758 8.4062 169.7852 8.4062 Q170.7852 8.4062 171.4023 9.1953 Q172.0195 9.9844 172.0195 11.2656 Q172.0195 12.5625 171.4023 13.3516 Q170.7852 14.1406 169.7852 14.1406 Q169.1758 14.1406 168.7461 13.9062 Q168.3164 13.6719 168.0352 13.1719 ZM171.0977 11.2656 Q171.0977 10.2812 170.6836 9.7188 Q170.2695 9.1562 169.5664 9.1562 Q168.8477 9.1562 168.4414 9.7188 Q168.0352 10.2812 168.0352 11.2656 Q168.0352 12.2656 168.4414 12.8281 Q168.8477 13.3906 169.5664 13.3906 Q170.2695 13.3906 170.6836 12.8281 Q171.0977 12.2656 171.0977 11.2656 ZM173.5078 6.4062 L174.4141 6.4062 L174.4141 14 L173.5078 14 L173.5078 6.4062 ZM180.9736 11.0469 L180.9736 11.4844 L176.833 11.4844 Q176.8955 12.4062 177.3955 12.8906 Q177.8955 13.375 178.7861 13.375 Q179.3018 13.375 179.7939 13.25 Q180.2861 13.125 180.7549 12.875 L180.7549 13.7188 Q180.2705 13.9219 179.7627 14.0312 Q179.2549 14.1406 178.7393 14.1406 Q177.4268 14.1406 176.6611 13.3828 Q175.8955 12.625 175.8955 11.3125 Q175.8955 9.9688 176.6221 9.1875 Q177.3486 8.4062 178.583 8.4062 Q179.6924 8.4062 180.333 9.1094 Q180.9736 9.8125 180.9736 11.0469 ZM180.0674 10.7812 Q180.0674 10.0469 179.6611 9.6016 Q179.2549 9.1562 178.5986 9.1562 Q177.833 9.1562 177.3877 9.5859 Q176.9424 10.0156 176.8643 10.7812 L180.0674 10.7812 ZM181.9854 10.8594 L184.626 10.8594 L184.626 11.6562 L181.9854 11.6562 L181.9854 10.8594 ZM190.5938 10.7031 L190.5938 14 L189.7031 14 L189.7031 10.7344 Q189.7031 9.9531 189.3984 9.5703 Q189.0938 9.1875 188.4844 9.1875 Q187.7656 9.1875 187.3438 9.6484 Q186.9219 10.1094 186.9219 10.9062 L186.9219 14 L186.0156 14 L186.0156 8.5312 L186.9219 8.5312 L186.9219 9.375 Q187.25 8.8906 187.6875 8.6484 Q188.125 8.4062 188.6875 8.4062 Q189.625 8.4062 190.1094 8.9844 Q190.5938 9.5625 190.5938 10.7031 ZM197.0723 11.0469 L197.0723 11.4844 L192.9316 11.4844 Q192.9941 12.4062 193.4941 12.8906 Q193.9941 13.375 194.8848 13.375 Q195.4004 13.375 195.8926 13.25 Q196.3848 13.125 196.8535 12.875 L196.8535 13.7188 Q196.3691 13.9219 195.8613 14.0312 Q195.3535 14.1406 194.8379 14.1406 Q193.5254 14.1406 192.7598 13.3828 Q191.9941 12.625 191.9941 11.3125 Q191.9941 9.9688 192.7207 9.1875 Q193.4473 8.4062 194.6816 8.4062 Q195.791 8.4062 196.4316 9.1094 Q197.0723 9.8125 197.0723 11.0469 ZM196.166 10.7812 Q196.166 10.0469 195.7598 9.6016 Q195.3535 9.1562 194.6973 9.1562 Q193.9316 9.1562 193.4863 9.5859 Q193.041 10.0156 192.9629 10.7812 L196.166 10.7812 ZM202.1465 11.2031 Q202.1465 10.2188 201.7402 9.6875 Q201.334 9.1562 200.6152 9.1562 Q199.8809 9.1562 199.4824 9.6875 Q199.084 10.2188 199.084 11.2031 Q199.084 12.1719 199.4824 12.7109 Q199.8809 13.25 200.6152 13.25 Q201.334 13.25 201.7402 12.7109 Q202.1465 12.1719 202.1465 11.2031 ZM203.0371 13.3281 Q203.0371 14.7188 202.4199 15.3984 Q201.8027 16.0781 200.5215 16.0781 Q200.0527 16.0781 199.6309 16.0078 Q199.209 15.9375 198.8184 15.7969 L198.8184 14.9219 Q199.209 15.1406 199.5918 15.2422 Q199.9746 15.3438 200.3809 15.3438 Q201.2559 15.3438 201.7012 14.8828 Q202.1465 14.4219 202.1465 13.4844 L202.1465 13.0312 Q201.8652 13.5156 201.4277 13.7578 Q200.9902 14 200.3809 14 Q199.3809 14 198.7637 13.2344 Q198.1465 12.4688 198.1465 11.2031 Q198.1465 9.9375 198.7637 9.1719 Q199.3809 8.4062 200.3809 8.4062 Q200.9902 8.4062 201.4277 8.6406 Q201.8652 8.875 202.1465 9.3594 L202.1465 8.5312 L203.0371 8.5312 L203.0371 13.3281 ZM207.3691 11.25 Q206.291 11.25 205.8691 11.5 Q205.4473 11.75 205.4473 12.3438 Q205.4473 12.8281 205.7598 13.1094 Q206.0723 13.3906 206.6191 13.3906 Q207.3691 13.3906 207.8223 12.8594 Q208.2754 12.3281 208.2754 11.4531 L208.2754 11.25 L207.3691 11.25 ZM209.166 10.875 L209.166 14 L208.2754 14 L208.2754 13.1719 Q207.9629 13.6719 207.502 13.9062 Q207.041 14.1406 206.3848 14.1406 Q205.541 14.1406 205.041 13.6719 Q204.541 13.2031 204.541 12.4062 Q204.541 11.4844 205.166 11.0156 Q205.791 10.5469 207.0098 10.5469 L208.2754 10.5469 L208.2754 10.4531 Q208.2754 9.8438 207.8613 9.5 Q207.4473 9.1562 206.7129 9.1562 Q206.2441 9.1562 205.7988 9.2734 Q205.3535 9.3906 204.9473 9.6094 L204.9473 8.7812 Q205.4473 8.5938 205.9082 8.5 Q206.3691 8.4062 206.8066 8.4062 Q207.9941 8.4062 208.5801 9.0156 Q209.166 9.625 209.166 10.875 ZM211.9033 6.9844 L211.9033 8.5312 L213.7627 8.5312 L213.7627 9.2344 L211.9033 9.2344 L211.9033 12.2031 Q211.9033 12.8594 212.0908 13.0547 Q212.2783 13.25 212.8408 13.25 L213.7627 13.25 L213.7627 14 L212.8408 14 Q211.7939 14 211.3955 13.6094 Q210.9971 13.2188 210.9971 12.2031 L210.9971 9.2344 L210.3408 9.2344 L210.3408 8.5312 L210.9971 8.5312 L210.9971 6.9844 L211.9033 6.9844 ZM214.9336 8.5312 L215.8398 8.5312 L215.8398 14 L214.9336 14 L214.9336 8.5312 ZM214.9336 6.4062 L215.8398 6.4062 L215.8398 7.5469 L214.9336 7.5469 L214.9336 6.4062 ZM217.0713 8.5312 L218.0244 8.5312 L219.7275 13.125 L221.4463 8.5312 L222.3994 8.5312 L220.3369 14 L219.1182 14 L217.0713 8.5312 ZM228.3174 11.0469 L228.3174 11.4844 L224.1768 11.4844 Q224.2393 12.4062 224.7393 12.8906 Q225.2393 13.375 226.1299 13.375 Q226.6455 13.375 227.1377 13.25 Q227.6299 13.125 228.0986 12.875 L228.0986 13.7188 Q227.6143 13.9219 227.1064 14.0312 Q226.5986 14.1406 226.083 14.1406 Q224.7705 14.1406 224.0049 13.3828 Q223.2393 12.625 223.2393 11.3125 Q223.2393 9.9688 223.9658 9.1875 Q224.6924 8.4062 225.9268 8.4062 Q227.0361 8.4062 227.6768 9.1094 Q228.3174 9.8125 228.3174 11.0469 ZM227.4111 10.7812 Q227.4111 10.0469 227.0049 9.6016 Q226.5986 9.1562 225.9424 9.1562 Q225.1768 9.1562 224.7314 9.5859 Q224.2861 10.0156 224.208 10.7812 L227.4111 10.7812 ZM236.8984 11.2656 Q236.8984 10.2812 236.4844 9.7188 Q236.0703 9.1562 235.3672 9.1562 Q234.6484 9.1562 234.2422 9.7188 Q233.8359 10.2812 233.8359 11.2656 Q233.8359 12.2656 234.2422 12.8281 Q234.6484 13.3906 235.3672 13.3906 Q236.0703 13.3906 236.4844 12.8281 Q236.8984 12.2656 236.8984 11.2656 ZM233.8359 9.3594 Q234.1172 8.875 234.5469 8.6406 Q234.9766 8.4062 235.5859 8.4062 Q236.5859 8.4062 237.2031 9.1953 Q237.8203 9.9844 237.8203 11.2656 Q237.8203 12.5625 237.2031 13.3516 Q236.5859 14.1406 235.5859 14.1406 Q234.9766 14.1406 234.5469 13.9062 Q234.1172 13.6719 233.8359 13.1719 L233.8359 14 L232.9297 14 L232.9297 6.4062 L233.8359 6.4062 L233.8359 9.3594 ZM242.4805 9.375 Q242.3242 9.2812 242.1523 9.2422 Q241.9805 9.2031 241.7617 9.2031 Q240.9961 9.2031 240.5898 9.6953 Q240.1836 10.1875 240.1836 11.125 L240.1836 14 L239.2773 14 L239.2773 8.5312 L240.1836 8.5312 L240.1836 9.375 Q240.4648 8.875 240.918 8.6406 Q241.3711 8.4062 242.0273 8.4062 Q242.1211 8.4062 242.2305 8.4141 Q242.3398 8.4219 242.4805 8.4531 L242.4805 9.375 ZM248.1074 11.0469 L248.1074 11.4844 L243.9668 11.4844 Q244.0293 12.4062 244.5293 12.8906 Q245.0293 13.375 245.9199 13.375 Q246.4355 13.375 246.9277 13.25 Q247.4199 13.125 247.8887 12.875 L247.8887 13.7188 Q247.4043 13.9219 246.8965 14.0312 Q246.3887 14.1406 245.873 14.1406 Q244.5605 14.1406 243.7949 13.3828 Q243.0293 12.625 243.0293 11.3125 Q243.0293 9.9688 243.7559 9.1875 Q244.4824 8.4062 245.7168 8.4062 Q246.8262 8.4062 247.4668 9.1094 Q248.1074 9.8125 248.1074 11.0469 ZM247.2012 10.7812 Q247.2012 10.0469 246.7949 9.6016 Q246.3887 9.1562 245.7324 9.1562 Q244.9668 9.1562 244.5215 9.5859 Q244.0762 10.0156 243.998 10.7812 L247.2012 10.7812 ZM252.0566 11.25 Q250.9785 11.25 250.5566 11.5 Q250.1348 11.75 250.1348 12.3438 Q250.1348 12.8281 250.4473 13.1094 Q250.7598 13.3906 251.3066 13.3906 Q252.0566 13.3906 252.5098 12.8594 Q252.9629 12.3281 252.9629 11.4531 L252.9629 11.25 L252.0566 11.25 ZM253.8535 10.875 L253.8535 14 L252.9629 14 L252.9629 13.1719 Q252.6504 13.6719 252.1895 13.9062 Q251.7285 14.1406 251.0723 14.1406 Q250.2285 14.1406 249.7285 13.6719 Q249.2285 13.2031 249.2285 12.4062 Q249.2285 11.4844 249.8535 11.0156 Q250.4785 10.5469 251.6973 10.5469 L252.9629 10.5469 L252.9629 10.4531 Q252.9629 9.8438 252.5488 9.5 Q252.1348 9.1562 251.4004 9.1562 Q250.9316 9.1562 250.4863 9.2734 Q250.041 9.3906 249.6348 9.6094 L249.6348 8.7812 Q250.1348 8.5938 250.5957 8.5 Q251.0566 8.4062 251.4941 8.4062 Q252.6816 8.4062 253.2676 9.0156 Q253.8535 9.625 253.8535 10.875 ZM259.1846 8.6875 L259.1846 9.5469 Q258.8096 9.3438 258.4033 9.25 Q257.9971 9.1562 257.5439 9.1562 Q256.8877 9.1562 256.5518 9.3594 Q256.2158 9.5625 256.2158 9.9688 Q256.2158 10.2812 256.4502 10.4609 Q256.6846 10.6406 257.4189 10.7969 L257.7158 10.875 Q258.6846 11.0781 259.083 11.4531 Q259.4814 11.8281 259.4814 12.4844 Q259.4814 13.25 258.8799 13.6953 Q258.2783 14.1406 257.2314 14.1406 Q256.7783 14.1406 256.3018 14.0547 Q255.8252 13.9688 255.3096 13.7969 L255.3096 12.875 Q255.8096 13.125 256.2861 13.2578 Q256.7627 13.3906 257.2471 13.3906 Q257.8721 13.3906 258.2158 13.1719 Q258.5596 12.9531 258.5596 12.5625 Q258.5596 12.1875 258.3174 11.9922 Q258.0752 11.7969 257.2314 11.625 L256.9189 11.5469 Q256.0908 11.375 255.7158 11.0078 Q255.3408 10.6406 255.3408 10.0156 Q255.3408 9.2344 255.8877 8.8203 Q256.4346 8.4062 257.4502 8.4062 Q257.9346 8.4062 258.3799 8.4766 Q258.8252 8.5469 259.1846 8.6875 ZM261.8008 6.9844 L261.8008 8.5312 L263.6602 8.5312 L263.6602 9.2344 L261.8008 9.2344 L261.8008 12.2031 Q261.8008 12.8594 261.9883 13.0547 Q262.1758 13.25 262.7383 13.25 L263.6602 13.25 L263.6602 14 L262.7383 14 Q261.6914 14 261.293 13.6094 Q260.8945 13.2188 260.8945 12.2031 L260.8945 9.2344 L260.2383 9.2344 L260.2383 8.5312 L260.8945 8.5312 L260.8945 6.9844 L261.8008 6.9844 ZM271.9473 8.7344 L271.9473 9.5781 Q271.5723 9.375 271.1895 9.2656 Q270.8066 9.1562 270.416 9.1562 Q269.541 9.1562 269.0566 9.7109 Q268.5723 10.2656 268.5723 11.2656 Q268.5723 12.2656 269.0566 12.8203 Q269.541 13.375 270.416 13.375 Q270.8066 13.375 271.1895 13.2734 Q271.5723 13.1719 271.9473 12.9531 L271.9473 13.7969 Q271.5723 13.9688 271.1738 14.0547 Q270.7754 14.1406 270.3223 14.1406 Q269.0723 14.1406 268.3457 13.3672 Q267.6191 12.5938 267.6191 11.2656 Q267.6191 9.9375 268.3535 9.1719 Q269.0879 8.4062 270.3691 8.4062 Q270.791 8.4062 271.1816 8.4844 Q271.5723 8.5625 271.9473 8.7344 ZM275.9922 11.25 Q274.9141 11.25 274.4922 11.5 Q274.0703 11.75 274.0703 12.3438 Q274.0703 12.8281 274.3828 13.1094 Q274.6953 13.3906 275.2422 13.3906 Q275.9922 13.3906 276.4453 12.8594 Q276.8984 12.3281 276.8984 11.4531 L276.8984 11.25 L275.9922 11.25 ZM277.7891 10.875 L277.7891 14 L276.8984 14 L276.8984 13.1719 Q276.5859 13.6719 276.125 13.9062 Q275.6641 14.1406 275.0078 14.1406 Q274.1641 14.1406 273.6641 13.6719 Q273.1641 13.2031 273.1641 12.4062 Q273.1641 11.4844 273.7891 11.0156 Q274.4141 10.5469 275.6328 10.5469 L276.8984 10.5469 L276.8984 10.4531 Q276.8984 9.8438 276.4844 9.5 Q276.0703 9.1562 275.3359 9.1562 Q274.8672 9.1562 274.4219 9.2734 Q273.9766 9.3906 273.5703 9.6094 L273.5703 8.7812 Q274.0703 8.5938 274.5312 8.5 Q274.9922 8.4062 275.4297 8.4062 Q276.6172 8.4062 277.2031 9.0156 Q277.7891 9.625 277.7891 10.875 ZM284.1826 10.7031 L284.1826 14 L283.292 14 L283.292 10.7344 Q283.292 9.9531 282.9873 9.5703 Q282.6826 9.1875 282.0732 9.1875 Q281.3545 9.1875 280.9326 9.6484 Q280.5107 10.1094 280.5107 10.9062 L280.5107 14 L279.6045 14 L279.6045 8.5312 L280.5107 8.5312 L280.5107 9.375 Q280.8389 8.8906 281.2764 8.6484 Q281.7139 8.4062 282.2764 8.4062 Q283.2139 8.4062 283.6982 8.9844 Q284.1826 9.5625 284.1826 10.7031 ZM289.9111 8.7344 L289.9111 9.5781 Q289.5361 9.375 289.1533 9.2656 Q288.7705 9.1562 288.3799 9.1562 Q287.5049 9.1562 287.0205 9.7109 Q286.5361 10.2656 286.5361 11.2656 Q286.5361 12.2656 287.0205 12.8203 Q287.5049 13.375 288.3799 13.375 Q288.7705 13.375 289.1533 13.2734 Q289.5361 13.1719 289.9111 12.9531 L289.9111 13.7969 Q289.5361 13.9688 289.1377 14.0547 Q288.7393 14.1406 288.2861 14.1406 Q287.0361 14.1406 286.3096 13.3672 Q285.583 12.5938 285.583 11.2656 Q285.583 9.9375 286.3174 9.1719 Q287.0518 8.4062 288.333 8.4062 Q288.7549 8.4062 289.1455 8.4844 Q289.5361 8.5625 289.9111 8.7344 ZM296.1592 11.0469 L296.1592 11.4844 L292.0186 11.4844 Q292.0811 12.4062 292.5811 12.8906 Q293.0811 13.375 293.9717 13.375 Q294.4873 13.375 294.9795 13.25 Q295.4717 13.125 295.9404 12.875 L295.9404 13.7188 Q295.4561 13.9219 294.9482 14.0312 Q294.4404 14.1406 293.9248 14.1406 Q292.6123 14.1406 291.8467 13.3828 Q291.0811 12.625 291.0811 11.3125 Q291.0811 9.9688 291.8076 9.1875 Q292.5342 8.4062 293.7686 8.4062 Q294.8779 8.4062 295.5186 9.1094 Q296.1592 9.8125 296.1592 11.0469 ZM295.2529 10.7812 Q295.2529 10.0469 294.8467 9.6016 Q294.4404 9.1562 293.7842 9.1562 Q293.0186 9.1562 292.5732 9.5859 Q292.1279 10.0156 292.0498 10.7812 L295.2529 10.7812 ZM300.7959 9.375 Q300.6396 9.2812 300.4678 9.2422 Q300.2959 9.2031 300.0771 9.2031 Q299.3115 9.2031 298.9053 9.6953 Q298.499 10.1875 298.499 11.125 L298.499 14 L297.5928 14 L297.5928 8.5312 L298.499 8.5312 L298.499 9.375 Q298.7803 8.875 299.2334 8.6406 Q299.6865 8.4062 300.3428 8.4062 Q300.4365 8.4062 300.5459 8.4141 Q300.6553 8.4219 300.7959 8.4531 L300.7959 9.375 ZM308.8516 8.7344 L308.8516 9.5781 Q308.4766 9.375 308.0938 9.2656 Q307.7109 9.1562 307.3203 9.1562 Q306.4453 9.1562 305.9609 9.7109 Q305.4766 10.2656 305.4766 11.2656 Q305.4766 12.2656 305.9609 12.8203 Q306.4453 13.375 307.3203 13.375 Q307.7109 13.375 308.0938 13.2734 Q308.4766 13.1719 308.8516 12.9531 L308.8516 13.7969 Q308.4766 13.9688 308.0781 14.0547 Q307.6797 14.1406 307.2266 14.1406 Q305.9766 14.1406 305.25 13.3672 Q304.5234 12.5938 304.5234 11.2656 Q304.5234 9.9375 305.2578 9.1719 Q305.9922 8.4062 307.2734 8.4062 Q307.6953 8.4062 308.0859 8.4844 Q308.4766 8.5625 308.8516 8.7344 ZM315.0996 11.0469 L315.0996 11.4844 L310.959 11.4844 Q311.0215 12.4062 311.5215 12.8906 Q312.0215 13.375 312.9121 13.375 Q313.4277 13.375 313.9199 13.25 Q314.4121 13.125 314.8809 12.875 L314.8809 13.7188 Q314.3965 13.9219 313.8887 14.0312 Q313.3809 14.1406 312.8652 14.1406 Q311.5527 14.1406 310.7871 13.3828 Q310.0215 12.625 310.0215 11.3125 Q310.0215 9.9688 310.748 9.1875 Q311.4746 8.4062 312.709 8.4062 Q313.8184 8.4062 314.459 9.1094 Q315.0996 9.8125 315.0996 11.0469 ZM314.1934 10.7812 Q314.1934 10.0469 313.7871 9.6016 Q313.3809 9.1562 312.7246 9.1562 Q311.959 9.1562 311.5137 9.5859 Q311.0684 10.0156 310.9902 10.7812 L314.1934 10.7812 ZM316.5645 6.4062 L317.4707 6.4062 L317.4707 14 L316.5645 14 L316.5645 6.4062 ZM319.3428 6.4062 L320.249 6.4062 L320.249 14 L319.3428 14 L319.3428 6.4062 ZM325.6055 8.6875 L325.6055 9.5469 Q325.2305 9.3438 324.8242 9.25 Q324.418 9.1562 323.9648 9.1562 Q323.3086 9.1562 322.9727 9.3594 Q322.6367 9.5625 322.6367 9.9688 Q322.6367 10.2812 322.8711 10.4609 Q323.1055 10.6406 323.8398 10.7969 L324.1367 10.875 Q325.1055 11.0781 325.5039 11.4531 Q325.9023 11.8281 325.9023 12.4844 Q325.9023 13.25 325.3008 13.6953 Q324.6992 14.1406 323.6523 14.1406 Q323.1992 14.1406 322.7227 14.0547 Q322.2461 13.9688 321.7305 13.7969 L321.7305 12.875 Q322.2305 13.125 322.707 13.2578 Q323.1836 13.3906 323.668 13.3906 Q324.293 13.3906 324.6367 13.1719 Q324.9805 12.9531 324.9805 12.5625 Q324.9805 12.1875 324.7383 11.9922 Q324.4961 11.7969 323.6523 11.625 L323.3398 11.5469 Q322.5117 11.375 322.1367 11.0078 Q321.7617 10.6406 321.7617 10.0156 Q321.7617 9.2344 322.3086 8.8203 Q322.8555 8.4062 323.8711 8.4062 Q324.3555 8.4062 324.8008 8.4766 Q325.2461 8.5469 325.6055 8.6875 Z"
         style="clip-path:url(#clipPath2); stroke:none;"
         clip-path="url(#clipPath2)"
         id="path178" />
      <path
         d="M4.25 21.9375 Q3.3906 21.9375 2.9141 22.5703 Q2.4375 23.2031 2.4375 24.3594 Q2.4375 25.5156 2.9141 26.1484 Q3.3906 26.7812 4.25 26.7812 Q5.1094 26.7812 5.5859 26.1484 Q6.0625 25.5156 6.0625 24.3594 Q6.0625 23.2031 5.5859 22.5703 Q5.1094 21.9375 4.25 21.9375 ZM4.25 20.5781 Q6 20.5781 7 21.5859 Q8 22.5938 8 24.3594 Q8 26.125 7 27.1328 Q6 28.1406 4.25 28.1406 Q2.5 28.1406 1.5 27.1328 Q0.5 26.125 0.5 24.3594 Q0.5 22.5938 1.5 21.5859 Q2.5 20.5781 4.25 20.5781 ZM13.4072 24.0156 Q13.1729 23.9062 12.9463 23.8594 Q12.7197 23.8125 12.4854 23.8125 Q11.8135 23.8125 11.4541 24.2422 Q11.0947 24.6719 11.0947 25.4844 L11.0947 28 L9.3447 28 L9.3447 22.5312 L11.0947 22.5312 L11.0947 23.4219 Q11.4229 22.8906 11.8604 22.6484 Q12.2979 22.4062 12.9072 22.4062 Q13.001 22.4062 13.1025 22.4062 Q13.2041 22.4062 13.3916 22.4375 L13.4072 24.0156 ZM17.9951 27.0781 Q17.6357 27.5469 17.1982 27.7734 Q16.7607 28 16.1982 28 Q15.1982 28 14.542 27.2109 Q13.8857 26.4219 13.8857 25.2031 Q13.8857 23.9688 14.542 23.1875 Q15.1982 22.4062 16.1982 22.4062 Q16.7607 22.4062 17.1982 22.6328 Q17.6357 22.8594 17.9951 23.3438 L17.9951 22.5312 L19.7451 22.5312 L19.7451 27.4531 Q19.7451 28.7656 18.917 29.4609 Q18.0889 30.1562 16.5107 30.1562 Q15.9951 30.1562 15.5186 30.0781 Q15.042 30 14.5576 29.8438 L14.5576 28.4844 Q15.0107 28.75 15.4482 28.875 Q15.8857 29 16.3389 29 Q17.1982 29 17.5967 28.625 Q17.9951 28.25 17.9951 27.4531 L17.9951 27.0781 ZM16.8389 23.6719 Q16.292 23.6719 15.9951 24.0703 Q15.6982 24.4688 15.6982 25.2031 Q15.6982 25.9531 15.9873 26.3438 Q16.2764 26.7344 16.8389 26.7344 Q17.3857 26.7344 17.6904 26.3281 Q17.9951 25.9219 17.9951 25.2031 Q17.9951 24.4688 17.6904 24.0703 Q17.3857 23.6719 16.8389 23.6719 ZM23.8877 25.5312 Q23.3408 25.5312 23.0596 25.7188 Q22.7783 25.9062 22.7783 26.2656 Q22.7783 26.6094 23.0049 26.7969 Q23.2314 26.9844 23.6221 26.9844 Q24.1221 26.9844 24.458 26.625 Q24.7939 26.2656 24.7939 25.7344 L24.7939 25.5312 L23.8877 25.5312 ZM26.5596 24.875 L26.5596 28 L24.7939 28 L24.7939 27.1875 Q24.4346 27.6875 23.9971 27.9141 Q23.5596 28.1406 22.9346 28.1406 Q22.0752 28.1406 21.5518 27.6484 Q21.0283 27.1562 21.0283 26.3594 Q21.0283 25.3906 21.6846 24.9453 Q22.3408 24.5 23.7627 24.5 L24.7939 24.5 L24.7939 24.3594 Q24.7939 23.9531 24.4658 23.7578 Q24.1377 23.5625 23.4502 23.5625 Q22.8877 23.5625 22.4033 23.6719 Q21.9189 23.7812 21.4971 24.0156 L21.4971 22.6719 Q22.0596 22.5469 22.6299 22.4766 Q23.2002 22.4062 23.7627 22.4062 Q25.2471 22.4062 25.9033 22.9844 Q26.5596 23.5625 26.5596 24.875 ZM33.6826 24.6719 L33.6826 28 L31.917 28 L31.917 27.4531 L31.917 25.4531 Q31.917 24.75 31.8857 24.4766 Q31.8545 24.2031 31.7764 24.0781 Q31.6826 23.9062 31.5029 23.8125 Q31.3232 23.7188 31.1045 23.7188 Q30.5576 23.7188 30.2451 24.1406 Q29.9326 24.5625 29.9326 25.3125 L29.9326 28 L28.1826 28 L28.1826 22.5312 L29.9326 22.5312 L29.9326 23.3281 Q30.3232 22.8594 30.7686 22.6328 Q31.2139 22.4062 31.7451 22.4062 Q32.6982 22.4062 33.1904 22.9844 Q33.6826 23.5625 33.6826 24.6719 ZM35.3018 22.5312 L37.0518 22.5312 L37.0518 28 L35.3018 28 L35.3018 22.5312 ZM35.3018 20.4062 L37.0518 20.4062 L37.0518 21.8281 L35.3018 21.8281 L35.3018 20.4062 ZM42.9951 22.7031 L42.9951 24.0312 Q42.4326 23.7969 41.9092 23.6797 Q41.3857 23.5625 40.9326 23.5625 Q40.4326 23.5625 40.1904 23.6875 Q39.9482 23.8125 39.9482 24.0625 Q39.9482 24.2812 40.1279 24.3906 Q40.3076 24.5 40.792 24.5625 L41.0889 24.5938 Q42.4326 24.7656 42.9014 25.1562 Q43.3701 25.5469 43.3701 26.3906 Q43.3701 27.2656 42.7217 27.7031 Q42.0732 28.1406 40.792 28.1406 Q40.2607 28.1406 39.6826 28.0547 Q39.1045 27.9688 38.4795 27.7969 L38.4795 26.4688 Q39.0107 26.7188 39.5576 26.8516 Q40.1045 26.9844 40.667 26.9844 Q41.1826 26.9844 41.4404 26.8438 Q41.6982 26.7031 41.6982 26.4219 Q41.6982 26.1875 41.5264 26.0703 Q41.3545 25.9531 40.8232 25.8906 L40.5107 25.8438 Q39.3389 25.7031 38.8701 25.3047 Q38.4014 24.9062 38.4014 24.1094 Q38.4014 23.2344 38.9951 22.8203 Q39.5889 22.4062 40.8232 22.4062 Q41.3076 22.4062 41.8389 22.4766 Q42.3701 22.5469 42.9951 22.7031 ZM49.7441 23.4375 Q50.0723 22.9375 50.5332 22.6719 Q50.9941 22.4062 51.541 22.4062 Q52.4785 22.4062 52.9707 22.9844 Q53.4629 23.5625 53.4629 24.6719 L53.4629 28 L51.7129 28 L51.7129 25.1406 Q51.7129 25.0781 51.7129 25.0156 Q51.7129 24.9531 51.7129 24.8281 Q51.7129 24.2344 51.5488 23.9766 Q51.3848 23.7188 50.9941 23.7188 Q50.4941 23.7188 50.2285 24.125 Q49.9629 24.5312 49.9473 25.3125 L49.9473 28 L48.1816 28 L48.1816 25.1406 Q48.1816 24.2344 48.0254 23.9766 Q47.8691 23.7188 47.4785 23.7188 Q46.9785 23.7188 46.7051 24.1328 Q46.4316 24.5469 46.4316 25.3125 L46.4316 28 L44.666 28 L44.666 22.5312 L46.4316 22.5312 L46.4316 23.3281 Q46.7441 22.875 47.166 22.6406 Q47.5879 22.4062 48.0879 22.4062 Q48.6504 22.4062 49.0879 22.6797 Q49.5254 22.9531 49.7441 23.4375 ZM55.3828 22.5312 L57.1328 22.5312 L57.1328 24.4219 L55.3828 24.4219 L55.3828 22.5312 ZM55.3828 26.1094 L57.1328 26.1094 L57.1328 28 L55.3828 28 L55.3828 26.1094 Z"
         style="clip-path:url(#clipPath2); stroke:none;"
         clip-path="url(#clipPath2)"
         id="path180" />
      <path
         d="M66.9844 20.7031 L67.9688 20.7031 L67.9688 23.7031 L71.5469 23.7031 L71.5469 20.7031 L72.5312 20.7031 L72.5312 28 L71.5469 28 L71.5469 24.5312 L67.9688 24.5312 L67.9688 28 L66.9844 28 L66.9844 20.7031 ZM76.582 23.1562 Q75.8633 23.1562 75.4414 23.7188 Q75.0195 24.2812 75.0195 25.2656 Q75.0195 26.25 75.4336 26.8125 Q75.8477 27.375 76.582 27.375 Q77.3008 27.375 77.7227 26.8125 Q78.1445 26.25 78.1445 25.2656 Q78.1445 24.2969 77.7227 23.7266 Q77.3008 23.1562 76.582 23.1562 ZM76.582 22.4062 Q77.7539 22.4062 78.4258 23.1641 Q79.0977 23.9219 79.0977 25.2656 Q79.0977 26.6094 78.4258 27.375 Q77.7539 28.1406 76.582 28.1406 Q75.4102 28.1406 74.7383 27.375 Q74.0664 26.6094 74.0664 25.2656 Q74.0664 23.9219 74.7383 23.1641 Q75.4102 22.4062 76.582 22.4062 ZM84.8408 23.5781 Q85.1689 22.9688 85.6377 22.6875 Q86.1064 22.4062 86.7471 22.4062 Q87.6064 22.4062 88.0674 23 Q88.5283 23.5938 88.5283 24.7031 L88.5283 28 L87.6221 28 L87.6221 24.7344 Q87.6221 23.9375 87.3486 23.5625 Q87.0752 23.1875 86.4971 23.1875 Q85.7939 23.1875 85.3955 23.6484 Q84.9971 24.1094 84.9971 24.9062 L84.9971 28 L84.0908 28 L84.0908 24.7344 Q84.0908 23.9375 83.8096 23.5625 Q83.5283 23.1875 82.9502 23.1875 Q82.2627 23.1875 81.8564 23.6484 Q81.4502 24.1094 81.4502 24.9062 L81.4502 28 L80.5439 28 L80.5439 22.5312 L81.4502 22.5312 L81.4502 23.375 Q81.7627 22.875 82.1924 22.6406 Q82.6221 22.4062 83.2002 22.4062 Q83.8096 22.4062 84.2236 22.7031 Q84.6377 23 84.8408 23.5781 ZM92.4414 23.1562 Q91.7227 23.1562 91.3008 23.7188 Q90.8789 24.2812 90.8789 25.2656 Q90.8789 26.25 91.293 26.8125 Q91.707 27.375 92.4414 27.375 Q93.1602 27.375 93.582 26.8125 Q94.0039 26.25 94.0039 25.2656 Q94.0039 24.2969 93.582 23.7266 Q93.1602 23.1562 92.4414 23.1562 ZM92.4414 22.4062 Q93.6133 22.4062 94.2852 23.1641 Q94.957 23.9219 94.957 25.2656 Q94.957 26.6094 94.2852 27.375 Q93.6133 28.1406 92.4414 28.1406 Q91.2695 28.1406 90.5977 27.375 Q89.9258 26.6094 89.9258 25.2656 Q89.9258 23.9219 90.5977 23.1641 Q91.2695 22.4062 92.4414 22.4062 ZM103.0977 22.6875 L103.0977 23.5469 Q102.7227 23.3438 102.3164 23.25 Q101.9102 23.1562 101.457 23.1562 Q100.8008 23.1562 100.4648 23.3594 Q100.1289 23.5625 100.1289 23.9688 Q100.1289 24.2812 100.3633 24.4609 Q100.5977 24.6406 101.332 24.7969 L101.6289 24.875 Q102.5977 25.0781 102.9961 25.4531 Q103.3945 25.8281 103.3945 26.4844 Q103.3945 27.25 102.793 27.6953 Q102.1914 28.1406 101.1445 28.1406 Q100.6914 28.1406 100.2148 28.0547 Q99.7383 27.9688 99.2227 27.7969 L99.2227 26.875 Q99.7227 27.125 100.1992 27.2578 Q100.6758 27.3906 101.1602 27.3906 Q101.7852 27.3906 102.1289 27.1719 Q102.4727 26.9531 102.4727 26.5625 Q102.4727 26.1875 102.2305 25.9922 Q101.9883 25.7969 101.1445 25.625 L100.832 25.5469 Q100.0039 25.375 99.6289 25.0078 Q99.2539 24.6406 99.2539 24.0156 Q99.2539 23.2344 99.8008 22.8203 Q100.3477 22.4062 101.3633 22.4062 Q101.8477 22.4062 102.293 22.4766 Q102.7383 22.5469 103.0977 22.6875 ZM107.3076 25.25 Q106.2295 25.25 105.8076 25.5 Q105.3857 25.75 105.3857 26.3438 Q105.3857 26.8281 105.6982 27.1094 Q106.0107 27.3906 106.5576 27.3906 Q107.3076 27.3906 107.7607 26.8594 Q108.2139 26.3281 108.2139 25.4531 L108.2139 25.25 L107.3076 25.25 ZM109.1045 24.875 L109.1045 28 L108.2139 28 L108.2139 27.1719 Q107.9014 27.6719 107.4404 27.9062 Q106.9795 28.1406 106.3232 28.1406 Q105.4795 28.1406 104.9795 27.6719 Q104.4795 27.2031 104.4795 26.4062 Q104.4795 25.4844 105.1045 25.0156 Q105.7295 24.5469 106.9482 24.5469 L108.2139 24.5469 L108.2139 24.4531 Q108.2139 23.8438 107.7998 23.5 Q107.3857 23.1562 106.6514 23.1562 Q106.1826 23.1562 105.7373 23.2734 Q105.292 23.3906 104.8857 23.6094 L104.8857 22.7812 Q105.3857 22.5938 105.8467 22.5 Q106.3076 22.4062 106.7451 22.4062 Q107.9326 22.4062 108.5186 23.0156 Q109.1045 23.625 109.1045 24.875 ZM111.8262 27.1719 L111.8262 30.0781 L110.9199 30.0781 L110.9199 22.5312 L111.8262 22.5312 L111.8262 23.3594 Q112.1074 22.875 112.5371 22.6406 Q112.9668 22.4062 113.5762 22.4062 Q114.5762 22.4062 115.1934 23.1953 Q115.8105 23.9844 115.8105 25.2656 Q115.8105 26.5625 115.1934 27.3516 Q114.5762 28.1406 113.5762 28.1406 Q112.9668 28.1406 112.5371 27.9062 Q112.1074 27.6719 111.8262 27.1719 ZM114.8887 25.2656 Q114.8887 24.2812 114.4746 23.7188 Q114.0605 23.1562 113.3574 23.1562 Q112.6387 23.1562 112.2324 23.7188 Q111.8262 24.2812 111.8262 25.2656 Q111.8262 26.2656 112.2324 26.8281 Q112.6387 27.3906 113.3574 27.3906 Q114.0605 27.3906 114.4746 26.8281 Q114.8887 26.2656 114.8887 25.2656 ZM117.2988 22.5312 L118.2051 22.5312 L118.2051 28 L117.2988 28 L117.2988 22.5312 ZM117.2988 20.4062 L118.2051 20.4062 L118.2051 21.5469 L117.2988 21.5469 L117.2988 20.4062 ZM124.7646 25.0469 L124.7646 25.4844 L120.624 25.4844 Q120.6865 26.4062 121.1865 26.8906 Q121.6865 27.375 122.5771 27.375 Q123.0928 27.375 123.585 27.25 Q124.0771 27.125 124.5459 26.875 L124.5459 27.7188 Q124.0615 27.9219 123.5537 28.0312 Q123.0459 28.1406 122.5303 28.1406 Q121.2178 28.1406 120.4521 27.3828 Q119.6865 26.625 119.6865 25.3125 Q119.6865 23.9688 120.4131 23.1875 Q121.1396 22.4062 122.374 22.4062 Q123.4834 22.4062 124.124 23.1094 Q124.7646 23.8125 124.7646 25.0469 ZM123.8584 24.7812 Q123.8584 24.0469 123.4521 23.6016 Q123.0459 23.1562 122.3896 23.1562 Q121.624 23.1562 121.1787 23.5859 Q120.7334 24.0156 120.6553 24.7812 L123.8584 24.7812 ZM130.7764 24.7031 L130.7764 28 L129.8857 28 L129.8857 24.7344 Q129.8857 23.9531 129.5811 23.5703 Q129.2764 23.1875 128.667 23.1875 Q127.9482 23.1875 127.5264 23.6484 Q127.1045 24.1094 127.1045 24.9062 L127.1045 28 L126.1982 28 L126.1982 22.5312 L127.1045 22.5312 L127.1045 23.375 Q127.4326 22.8906 127.8701 22.6484 Q128.3076 22.4062 128.8701 22.4062 Q129.8076 22.4062 130.292 22.9844 Q130.7764 23.5625 130.7764 24.7031 ZM136.0518 22.6875 L136.0518 23.5469 Q135.6768 23.3438 135.2705 23.25 Q134.8643 23.1562 134.4111 23.1562 Q133.7549 23.1562 133.4189 23.3594 Q133.083 23.5625 133.083 23.9688 Q133.083 24.2812 133.3174 24.4609 Q133.5518 24.6406 134.2861 24.7969 L134.583 24.875 Q135.5518 25.0781 135.9502 25.4531 Q136.3486 25.8281 136.3486 26.4844 Q136.3486 27.25 135.7471 27.6953 Q135.1455 28.1406 134.0986 28.1406 Q133.6455 28.1406 133.1689 28.0547 Q132.6924 27.9688 132.1768 27.7969 L132.1768 26.875 Q132.6768 27.125 133.1533 27.2578 Q133.6299 27.3906 134.1143 27.3906 Q134.7393 27.3906 135.083 27.1719 Q135.4268 26.9531 135.4268 26.5625 Q135.4268 26.1875 135.1846 25.9922 Q134.9424 25.7969 134.0986 25.625 L133.7861 25.5469 Q132.958 25.375 132.583 25.0078 Q132.208 24.6406 132.208 24.0156 Q132.208 23.2344 132.7549 22.8203 Q133.3018 22.4062 134.3174 22.4062 Q134.8018 22.4062 135.2471 22.4766 Q135.6924 22.5469 136.0518 22.6875 Z"
         style="clip-path:url(#clipPath2); stroke:none;"
         clip-path="url(#clipPath2)"
         id="path182" />
    </g>
    <g
       style="fill:navy; text-rendering:geometricPrecision; font-size:8; stroke:navy;"
       id="g188">
      <text
         x="332"
         xml:space="preserve"
         y="16"
         style="clip-path:url(#clipPath4); stroke:none;"
         clip-path="url(#clipPath4)"
         id="text186">2</text>
    </g>
    <g
       style="text-rendering:geometricPrecision;"
       id="g194">
      <path
         d="M525 343.6667 L526 395.1667"
         style="fill:none; clip-path:url(#clipPath5);"
         clip-path="url(#clipPath5)"
         id="path190" />
      <path
         d="M526 395.1667 L530.9719 383.3679 L520.5739 383.5698 Z"
         style="clip-path:url(#clipPath5); fill-rule:evenodd; stroke:none;"
         clip-path="url(#clipPath5)"
         id="path192" />
    </g>
    <g
       style="text-rendering:geometricPrecision;"
       id="g200">
      <path
         d="M923 661 L987 694.1667"
         style="fill:none; clip-path:url(#clipPath6);"
         clip-path="url(#clipPath6)"
         id="path196" />
      <path
         d="M987 694.1667 L979.0046 684.1664 L974.2194 693.4002 Z"
         style="clip-path:url(#clipPath6); fill-rule:evenodd; stroke:none;"
         clip-path="url(#clipPath6)"
         id="path198" />
    </g>
    <g
       style="text-rendering:geometricPrecision;"
       id="g206">
      <path
         d="M526 502.1667 L526 563.1667"
         style="fill:none; clip-path:url(#clipPath7);"
         clip-path="url(#clipPath7)"
         id="path202" />
      <path
         d="M526 563.1667 L531.2 551.4667 L520.8 551.4667 Z"
         style="clip-path:url(#clipPath7); fill-rule:evenodd; stroke:none;"
         clip-path="url(#clipPath7)"
         id="path204" />
    </g>
    <g
       style="text-rendering:geometricPrecision;"
       id="g212">
      <path
         d="M441 661 L371.75 661"
         style="fill:none; clip-path:url(#clipPath8);"
         clip-path="url(#clipPath8)"
         id="path208" />
      <path
         d="M371.75 661 L383.45 666.2 L383.45 655.8 Z"
         style="clip-path:url(#clipPath8); fill-rule:evenodd; stroke:none;"
         clip-path="url(#clipPath8)"
         id="path210" />
    </g>
    <g
       style="text-rendering:geometricPrecision;"
       id="g220">
      <path
         d="M220.25 626.5 L220.8419 651.0029"
         style="fill:none; clip-path:url(#clipPath9);"
         clip-path="url(#clipPath9)"
         id="path214" />
      <path
         d="M221.093 661.3999 C218.222 661.4692 215.8383 659.198 215.7689 656.327 C215.6996 653.4559 217.9708 651.0723 220.8419 651.0029 C223.7129 650.9336 226.0966 653.2048 226.1659 656.0758 C226.2353 658.9469 223.964 661.3305 221.093 661.3999 Z"
         style="fill:white; clip-path:url(#clipPath9); stroke:none;"
         clip-path="url(#clipPath9)"
         id="path216" />
      <path
         d="M221.093 661.3999 C218.222 661.4692 215.8383 659.198 215.7689 656.327 C215.6996 653.4559 217.9708 651.0723 220.8419 651.0029 C223.7129 650.9336 226.0966 653.2048 226.1659 656.0758 C226.2353 658.9469 223.964 661.3305 221.093 661.3999 Z"
         style="fill:none; clip-path:url(#clipPath9);"
         clip-path="url(#clipPath9)"
         id="path218" />
    </g>
    <g
       style="text-rendering:geometricPrecision;"
       id="g226">
      <path
         d="M779 661 L833 661"
         style="fill:none; clip-path:url(#clipPath10);"
         clip-path="url(#clipPath10)"
         id="path222" />
      <path
         d="M833 661 L821.3 655.8 L821.3 666.2 Z"
         style="clip-path:url(#clipPath10); fill-rule:evenodd; stroke:none;"
         clip-path="url(#clipPath10)"
         id="path224" />
    </g>
    <g
       style="text-rendering:geometricPrecision;"
       id="g232">
      <path
         d="M609 329.4167 L734 329.4167"
         style="fill:none; clip-path:url(#clipPath11);"
         clip-path="url(#clipPath11)"
         id="path228" />
      <path
         d="M734 329.4167 L722.3 324.2167 L722.3 334.6167 Z"
         style="clip-path:url(#clipPath11); fill-rule:evenodd; stroke:none;"
         clip-path="url(#clipPath11)"
         id="path230" />
    </g>
    <g
       style="text-rendering:geometricPrecision;"
       id="g238">
      <path
         d="M525.6667 117.1667 L526 244.1667"
         style="fill:none; clip-path:url(#clipPath12);"
         clip-path="url(#clipPath12)"
         id="path234" />
      <path
         d="M526 244.1667 L531.1693 232.4531 L525.9863 238.9667 L520.7693 232.4804 Z"
         style="clip-path:url(#clipPath12); stroke:none;"
         clip-path="url(#clipPath12)"
         id="path236" />
    </g>
    <g
       style="text-rendering:geometricPrecision;"
       id="g246">
      <path
         d="M652.0833 287.75 L535.6 287.5811"
         style="fill:none; clip-path:url(#clipPath13);"
         clip-path="url(#clipPath13)"
         id="path240" />
      <path
         d="M525.2 287.5661 C525.2042 284.6942 527.5356 282.3695 530.4075 282.3736 C533.2794 282.3778 535.6041 284.7093 535.6 287.5811 C535.5958 290.453 533.2643 292.7778 530.3925 292.7736 C527.5206 292.7695 525.1959 290.438 525.2 287.5661 Z"
         style="fill:white; clip-path:url(#clipPath13); stroke:none;"
         clip-path="url(#clipPath13)"
         id="path242" />
      <path
         d="M525.2 287.5661 C525.2042 284.6942 527.5356 282.3695 530.4075 282.3736 C533.2794 282.3778 535.6041 284.7093 535.6 287.5811 C535.5958 290.453 533.2643 292.7778 530.3925 292.7736 C527.5206 292.7695 525.1959 290.438 525.2 287.5661 Z"
         style="fill:none; clip-path:url(#clipPath13);"
         clip-path="url(#clipPath13)"
         id="path244" />
    </g>
    <g
       style="text-rendering:geometricPrecision;"
       id="g252">
      <path
         d="M609 329.4167 L653.0833 390"
         style="fill:none; clip-path:url(#clipPath14);"
         clip-path="url(#clipPath14)"
         id="path248" />
      <path
         d="M653.0833 390 L650.4041 377.4799 L641.9948 383.599 Z"
         style="clip-path:url(#clipPath14); fill-rule:evenodd; stroke:none;"
         clip-path="url(#clipPath14)"
         id="path250" />
    </g>
    <g
       style="text-rendering:geometricPrecision;"
       id="g258">
      <path
         d="M526 423.6667 L526 477.1667"
         style="fill:none; clip-path:url(#clipPath15);"
         clip-path="url(#clipPath15)"
         id="path254" />
      <path
         d="M526 477.1667 L531.2 465.4667 L520.8 465.4667 Z"
         style="clip-path:url(#clipPath15); fill-rule:evenodd; stroke:none;"
         clip-path="url(#clipPath15)"
         id="path256" />
    </g>
    <g
       style="text-rendering:geometricPrecision;"
       id="g266">
      <path
         d="M436.3333 187.6667 L515.8527 187.9688"
         style="fill:none; clip-path:url(#clipPath16);"
         clip-path="url(#clipPath16)"
         id="path260" />
      <path
         d="M526.2526 188.0083 C526.2417 190.8801 523.9047 193.1994 521.0329 193.1885 C518.161 193.1776 515.8417 190.8406 515.8527 187.9688 C515.8636 185.0969 518.2005 182.7777 521.0724 182.7886 C523.9443 182.7995 526.2635 185.1364 526.2526 188.0083 Z"
         style="fill:white; clip-path:url(#clipPath16); stroke:none;"
         clip-path="url(#clipPath16)"
         id="path262" />
      <path
         d="M526.2526 188.0083 C526.2417 190.8801 523.9047 193.1994 521.0329 193.1885 C518.161 193.1776 515.8417 190.8406 515.8527 187.9688 C515.8636 185.0969 518.2005 182.7777 521.0724 182.7886 C523.9443 182.7995 526.2635 185.1364 526.2526 188.0083 Z"
         style="fill:none; clip-path:url(#clipPath16);"
         clip-path="url(#clipPath16)"
         id="path264" />
    </g>
    <g
       style="text-rendering:geometricPrecision;"
       id="g274">
      <path
         d="M437 445.6667 L516.0002 445.1341"
         style="fill:none; clip-path:url(#clipPath17);"
         clip-path="url(#clipPath17)"
         id="path268" />
      <path
         d="M526.4 445.064 C526.4194 447.9358 524.107 450.2795 521.2352 450.2989 C518.3633 450.3183 516.0196 448.0059 516.0002 445.1341 C515.9809 442.2623 518.2932 439.9185 521.165 439.8991 C524.0369 439.8798 526.3806 442.1922 526.4 445.064 Z"
         style="fill:white; clip-path:url(#clipPath17); stroke:none;"
         clip-path="url(#clipPath17)"
         id="path270" />
      <path
         d="M526.4 445.064 C526.4194 447.9358 524.107 450.2795 521.2352 450.2989 C518.3633 450.3183 516.0196 448.0059 516.0002 445.1341 C515.9809 442.2623 518.2932 439.9185 521.165 439.8991 C524.0369 439.8798 526.3806 442.1922 526.4 445.064 Z"
         style="fill:none; clip-path:url(#clipPath17);"
         clip-path="url(#clipPath17)"
         id="path272" />
    </g>
    <g
       style="text-rendering:geometricPrecision;"
       id="g282">
      <path
         d="M804 593.1667 L801.1006 651.0125"
         style="fill:none; clip-path:url(#clipPath18);"
         clip-path="url(#clipPath18)"
         id="path276" />
      <path
         d="M800.58 661.3995 C797.7117 661.2557 795.5031 658.814 795.6468 655.9457 C795.7906 653.0775 798.2323 650.8688 801.1006 651.0125 C803.9689 651.1563 806.1776 653.598 806.0338 656.4663 C805.89 659.3346 803.4482 661.5433 800.58 661.3995 Z"
         style="fill:white; clip-path:url(#clipPath18); stroke:none;"
         clip-path="url(#clipPath18)"
         id="path278" />
      <path
         d="M800.58 661.3995 C797.7117 661.2557 795.5031 658.814 795.6468 655.9457 C795.7906 653.0775 798.2323 650.8688 801.1006 651.0125 C803.9689 651.1563 806.1776 653.598 806.0338 656.4663 C805.89 659.3346 803.4482 661.5433 800.58 661.3995 Z"
         style="fill:none; clip-path:url(#clipPath18);"
         clip-path="url(#clipPath18)"
         id="path280" />
    </g>
    <g
       style="text-rendering:geometricPrecision;"
       id="g288">
      <path
         d="M526 269.1667 L525 315.1667"
         style="fill:none; clip-path:url(#clipPath19);"
         clip-path="url(#clipPath19)"
         id="path284" />
      <path
         d="M525 315.1667 L530.4531 303.5825 L520.0555 303.3564 Z"
         style="clip-path:url(#clipPath19); fill-rule:evenodd; stroke:none;"
         clip-path="url(#clipPath19)"
         id="path286" />
    </g>
    <g
       style="text-rendering:geometricPrecision;"
       id="g296">
      <path
         d="M672.0833 524.9167 L753.1079 576.8874"
         style="fill:none; clip-path:url(#clipPath20);"
         clip-path="url(#clipPath20)"
         id="path290" />
      <path
         d="M758.021 569.2276 L759.1152 569.9295 L748.5872 586.3432 L747.4929 585.6414 L758.021 569.2276 Z"
         style="fill:white; clip-path:url(#clipPath20); stroke:none;"
         clip-path="url(#clipPath20)"
         id="path292" />
      <path
         d="M758.021 569.2276 L759.1152 569.9295 L748.5872 586.3432 L747.4929 585.6414 L758.021 569.2276 Z"
         style="fill:none; clip-path:url(#clipPath20);"
         clip-path="url(#clipPath20)"
         id="path294" />
    </g>
    <g
       style="text-rendering:geometricPrecision;"
       id="g302">
      <path
         d="M526 588.1667 L525 648.5"
         style="fill:none; clip-path:url(#clipPath21);"
         clip-path="url(#clipPath21)"
         id="path298" />
      <path
         d="M525 648.5 L530.3932 636.8878 L519.9946 636.7155 Z"
         style="clip-path:url(#clipPath21); fill-rule:evenodd; stroke:none;"
         clip-path="url(#clipPath21)"
         id="path300" />
    </g>
    <g
       style="text-rendering:geometricPrecision;"
       id="g308">
      <path
         d="M609 661 L689 661"
         style="fill:none; clip-path:url(#clipPath22);"
         clip-path="url(#clipPath22)"
         id="path304" />
      <path
         d="M689 661 L677.3 655.8 L677.3 666.2 Z"
         style="clip-path:url(#clipPath22); fill-rule:evenodd; stroke:none;"
         clip-path="url(#clipPath22)"
         id="path306" />
    </g>
    <g
       style="text-rendering:geometricPrecision;"
       id="g316">
      <path
         d="M698.0833 402.5 L874.3195 496.2135"
         style="fill:none; clip-path:url(#clipPath23);"
         clip-path="url(#clipPath23)"
         id="path310" />
      <path
         d="M878.5919 488.1788 L879.7397 488.7892 L870.5845 506.0063 L869.4367 505.396 L878.5919 488.1788 Z"
         style="fill:white; clip-path:url(#clipPath23); stroke:none;"
         clip-path="url(#clipPath23)"
         id="path312" />
      <path
         d="M878.5919 488.1788 L879.7397 488.7892 L870.5845 506.0063 L869.4367 505.396 L878.5919 488.1788 Z"
         style="fill:none; clip-path:url(#clipPath23);"
         clip-path="url(#clipPath23)"
         id="path314" />
    </g>
    <g
       style="text-rendering:geometricPrecision;"
       id="g322">
      <path
         d="M281.75 661 L130.0833 661"
         style="fill:none; clip-path:url(#clipPath24);"
         clip-path="url(#clipPath24)"
         id="path318" />
      <path
         d="M130.0833 661 L141.7833 666.2 L141.7833 655.8 Z"
         style="clip-path:url(#clipPath24); fill-rule:evenodd; stroke:none;"
         clip-path="url(#clipPath24)"
         id="path320" />
    </g>
    <g
       style="text-rendering:geometricPrecision;"
       id="g330">
      <path
         d="M400 723.5 L401.2029 670.9974"
         style="fill:none; clip-path:url(#clipPath25);"
         clip-path="url(#clipPath25)"
         id="path324" />
      <path
         d="M401.4411 660.6001 C404.3123 660.6659 406.5865 663.0468 406.5207 665.9178 C406.4549 668.789 404.074 671.0632 401.2029 670.9974 C398.3318 670.9316 396.0576 668.5508 396.1234 665.6796 C396.1892 662.8085 398.57 660.5343 401.4411 660.6001 Z"
         style="fill:white; clip-path:url(#clipPath25); stroke:none;"
         clip-path="url(#clipPath25)"
         id="path326" />
      <path
         d="M401.4411 660.6001 C404.3123 660.6659 406.5865 663.0468 406.5207 665.9178 C406.4549 668.789 404.074 671.0632 401.2029 670.9974 C398.3318 670.9316 396.0576 668.5508 396.1234 665.6796 C396.1892 662.8085 398.57 660.5343 401.4411 660.6001 Z"
         style="fill:none; clip-path:url(#clipPath25);"
         clip-path="url(#clipPath25)"
         id="path328" />
    </g>
    <g
       style="text-rendering:geometricPrecision;"
       id="g338">
      <path
         d="M447.6667 614 L515.6024 612.5181"
         style="fill:none; clip-path:url(#clipPath26);"
         clip-path="url(#clipPath26)"
         id="path332" />
      <path
         d="M525.9999 612.2913 C526.0626 615.1625 523.7858 617.5408 520.9146 617.6035 C518.0433 617.6661 515.665 615.3893 515.6024 612.5181 C515.5397 609.6469 517.8165 607.2686 520.6877 607.2059 C523.559 607.1433 525.9373 609.4201 525.9999 612.2913 Z"
         style="fill:white; clip-path:url(#clipPath26); stroke:none;"
         clip-path="url(#clipPath26)"
         id="path334" />
      <path
         d="M525.9999 612.2913 C526.0626 615.1625 523.7858 617.5408 520.9146 617.6035 C518.0433 617.6661 515.665 615.3893 515.6024 612.5181 C515.5397 609.6469 517.8165 607.2686 520.6877 607.2059 C523.559 607.1433 525.9373 609.4201 525.9999 612.2913 Z"
         style="fill:none; clip-path:url(#clipPath26);"
         clip-path="url(#clipPath26)"
         id="path336" />
    </g>
    <g
       style="fill:silver; text-rendering:geometricPrecision; stroke:silver;"
       id="g342">
      <path
         d="M160.3333 149.8333 L160.3333 149.8333 L160.3333 149.8333 L161.8333 149.8333 L161.8333 151.3333 L161.8333 856.6667 L161.8333 858.1667 L160.3333 858.1667 L157.3333 858.1667 L157.3333 856.6667 L157.3333 855.1667 L160.3333 855.1667 L161.8333 855.1667 L161.8333 856.6667 C161.8333 859.7038 164.2959 862.1667 167.3333 862.1667 L168.8333 862.1667 L168.8333 863.6667 L168.8333 866.6667 L167.3333 866.6667 L165.8333 866.6667 L165.8333 863.6667 L165.8333 862.1667 L167.3333 862.1667 L1150 862.1667 L1151.5 862.1667 L1151.5 863.6667 L1151.5 866.6667 L1150 866.6667 L1148.5 866.6667 L1148.5 863.6667 L1148.5 862.1667 L1150 862.1667 C1153.0375 862.1667 1155.5 859.7038 1155.5 856.6667 L1155.5 855.1667 L1157 855.1667 L1160 855.1667 L1160 856.6667 L1160 858.1667 L1157 858.1667 L1155.5 858.1667 L1155.5 856.6667 L1155.5 151.3333 L1155.5 149.8333 L1157 149.8333 L1160 149.8333 L1160 151.3333 L1160 152.8333 L1157 152.8333 L1155.5 152.8333 L1155.5 151.3333 C1155.5 148.2958 1153.0375 145.8333 1150 145.8333 L1148.5 145.8333 L1148.5 144.3333 L1148.5 141.3333 L1150 141.3333 L1151.5 141.3333 L1151.5 144.3333 L1151.5 145.8333 L1150 145.8333 L167.3333 145.8333 L165.8333 145.8333 L165.8333 144.3333 L165.8333 141.3333 L167.3333 141.3333 L168.8333 141.3333 L168.8333 144.3333 L168.8333 145.8333 L167.3333 145.8333 C164.2958 145.8333 161.8333 148.2958 161.8333 151.3333 L161.8333 152.8333 L160.3333 152.8333 L157.3333 152.8333 L157.3333 151.3333 L157.3333 149.8333 L160.3333 149.8333 L161.8333 149.8333 L161.8333 152.8333 L160.3333 152.8333 L157.3333 152.8333 L157.3333 149.8333 L160.3333 149.8333 L160.3333 151.3333 L158.8333 151.3333 C158.8333 146.6389 162.6389 142.8333 167.3333 142.8333 L167.3333 144.3333 L165.8333 144.3333 L165.8333 141.3333 L168.8333 141.3333 L168.8333 144.3333 L167.3333 144.3333 L167.3333 142.8333 L1150 142.8333 L1150 144.3333 L1148.5 144.3333 L1148.5 141.3333 L1151.5 141.3333 L1151.5 144.3333 L1150 144.3333 L1150 142.8333 C1154.6943 142.8333 1158.5 146.6388 1158.5 151.3333 L1157 151.3333 L1157 149.8333 L1160 149.8333 L1160 152.8333 L1157 152.8333 L1157 151.3333 L1158.5 151.3333 L1158.5 856.6667 L1157 856.6667 L1157 855.1667 L1160 855.1667 L1160 858.1667 L1157 858.1667 L1157 856.6667 L1158.5 856.6667 C1158.5 861.3607 1154.6943 865.1667 1150 865.1667 L1150 863.6667 L1151.5 863.6667 L1151.5 866.6667 L1148.5 866.6667 L1148.5 863.6667 L1150 863.6667 L1150 865.1667 L167.3333 865.1667 L167.3333 863.6667 L168.8333 863.6667 L168.8333 866.6667 L165.8333 866.6667 L165.8333 863.6667 L167.3333 863.6667 L167.3333 865.1667 C162.6389 865.1667 158.8333 861.3605 158.8333 856.6667 L160.3333 856.6667 L160.3333 858.1667 L157.3333 858.1667 L157.3333 855.1667 L160.3333 855.1667 L160.3333 856.6667 L158.8333 856.6667 L158.8333 151.3333 L160.3333 151.3333 L160.3333 152.8333 L160.3333 152.8333 L158.8333 152.8333 L158.8333 149.8333 ZM154.3333 149.8333 L154.3333 149.8333 L154.3333 149.8333 L154.3333 151.3333 L152.8333 151.3333 C152.8333 143.3251 159.3253 136.8333 167.3333 136.8333 L167.3333 138.3333 L167.3333 136.8333 L167.3333 136.8333 L167.3333 138.3333 L167.3333 136.8333 L1150 136.8333 L1150 138.3333 L1150 136.8333 L1150 136.8333 L1150 138.3333 L1150 136.8333 C1158.0082 136.8333 1164.5 143.3252 1164.5 151.3333 L1163 151.3333 L1163 149.8333 L1163 149.8333 L1164.5 149.8333 L1164.5 151.3333 L1164.5 856.6667 L1163 856.6667 L1163 855.1667 L1163 855.1667 L1164.5 855.1667 L1164.5 856.6667 C1164.5 864.6743 1158.0082 871.1667 1150 871.1667 L1150 869.6667 L1150 868.1667 L1150 868.1667 L1150 869.6667 L1150 871.1667 L167.3333 871.1667 L167.3333 869.6667 L167.3333 868.1667 L167.3333 868.1667 L167.3333 869.6667 L167.3333 871.1667 C159.3252 871.1667 152.8333 864.6743 152.8333 856.6667 L152.8333 855.1667 L154.3333 855.1667 L154.3333 855.1667 L154.3333 856.6667 L152.8333 856.6667 L152.8333 151.3333 L152.8333 149.8333 L154.3333 149.8333 M154.3333 152.8333 L154.3333 151.3333 L155.8333 151.3333 L155.8333 856.6667 L155.8333 858.1667 L154.3333 858.1667 L154.3333 858.1667 L154.3333 856.6667 L155.8333 856.6667 C155.8333 863.0176 160.9821 868.1667 167.3333 868.1667 L167.3333 871.1667 L167.3333 871.1667 L167.3333 868.1667 L1150 868.1667 L1150 871.1667 L1150 871.1667 L1150 868.1667 C1156.3512 868.1667 1161.5 863.0176 1161.5 856.6667 L1163 856.6667 L1163 858.1667 L1163 858.1667 L1161.5 858.1667 L1161.5 856.6667 L1161.5 151.3333 L1163 151.3333 L1163 152.8333 L1163 152.8333 L1161.5 152.8333 L1161.5 151.3333 C1161.5 144.9821 1156.3512 139.8333 1150 139.8333 L1150 139.8333 L1150 139.8333 L1150 139.8333 L167.3333 139.8333 L167.3333 139.8333 L167.3333 139.8333 L167.3333 139.8333 C160.9821 139.8333 155.8333 144.982 155.8333 151.3333 L155.8333 152.8333 L154.3333 152.8333 L154.3333 152.8333 Z"
         style="clip-path:url(#clipPath27); stroke:none;"
         clip-path="url(#clipPath27)"
         id="path340" />
    </g>
    <g
       style="fill:silver; text-rendering:geometricPrecision; stroke-width:3; stroke:silver;"
       id="g346">
      <path
         d="M700.5767 590.2043 C723.2353 587.7496 720.4556 646.4896 743.0684 643.6699 C786.0356 643.7703 758.5582 550.6733 794.4846 550.0528 C830.6669 549.4323 806.1522 648.99 842.2888 647.3109 C881.9277 645.4584 844.9223 538.5001 884.5428 536.2278 C924.52 533.9465 899.7034 642.0821 939.7354 642.6935 C973.7415 643.2227 955.4537 551.3668 989.3867 553.7485 C1026.7396 556.3675 992.834 652.3481 1029.7936 658.3708 C1054.4547 662.386 1052.7539 598.0522 1077.5979 600.7533 C1135.3873 625.7842 1122.4031 725.3054 1066.2778 748.2466 C1049.9742 750.5553 1045.6766 713.5519 1029.3364 715.523 C1000.3046 719.018 1008.653 789.1464 979.4565 787.5404 C952.2534 786.0347 967.8986 716.0522 940.6589 715.7512 C904.5039 715.3588 923.2215 811.3028 887.0848 809.8884 C855.1909 808.6473 878.0964 727.459 846.4493 723.3525 C816.942 719.5291 818.5147 796.6019 789.1811 791.6833 C756.7294 786.2446 786.7397 703.5596 754.0777 699.6175 C734.7109 697.2814 740.3253 747.1971 720.8213 747.6717 C648.0359 728.0613 639.0383 616.4946 700.5767 590.2043 ZM883.4638 512.7665 C980.5263 513.0312 1130.0657 568.9332 1131.0074 665.7898 C1131.9584 763.1118 982.8397 824.2609 885.3109 824.343 C786.4196 824.416 634.7681 762.6373 635.9202 663.9464 C637.0449 567.4092 786.7305 512.511 883.4638 512.7665 Z"
         style="fill:none; clip-path:url(#clipPath28);"
         clip-path="url(#clipPath28)"
         id="path344" />
    </g>
    <g
       style="fill:white; text-rendering:geometricPrecision; stroke:white;"
       id="g354">
      <path
         d="M734 326.9167 L734 331.9167 C734 337.4395 738.4772 341.9167 744 341.9167 L923 341.9167 C928.5228 341.9167 933 337.4395 933 331.9167 L933 326.9167 C933 321.3938 928.5228 316.9167 923 316.9167 L744 316.9167 C738.4772 316.9167 734 321.3938 734 326.9167 Z"
         style="clip-path:url(#clipPath29); stroke:none;"
         clip-path="url(#clipPath29)"
         id="path348" />
      <path
         d="M734 326.9167 L734 331.9167 C734 337.4395 738.4772 341.9167 744 341.9167 L923 341.9167 C928.5228 341.9167 933 337.4395 933 331.9167 L933 326.9167 C933 321.3938 928.5228 316.9167 923 316.9167 L744 316.9167 C738.4772 316.9167 734 321.3938 734 326.9167 Z"
         style="fill:none; clip-path:url(#clipPath29); stroke:rgb(20,150,30);"
         clip-path="url(#clipPath29)"
         id="path350" />
      <text
         x="737"
         y="333"
         style="clip-path:url(#clipPath29); fill:rgb(20,150,30); stroke:none; font-weight:bold;"
         xml:space="preserve"
         clip-path="url(#clipPath29)"
         id="text352">Pentose phosphate pathway</text>
    </g>
    <g
       style="fill:white; text-rendering:geometricPrecision; stroke:white;"
       id="g362">
      <path
         d="M759 568.1667 L849 568.1667 L849 593.1667 L759 593.1667 L759 568.1667 Z"
         style="clip-path:url(#clipPath30); stroke:none;"
         clip-path="url(#clipPath30)"
         id="path356" />
      <path
         d="M759 568.1667 L849 568.1667 L849 593.1667 L759 593.1667 L759 568.1667 Z"
         style="fill:none; clip-path:url(#clipPath30); stroke:black;"
         clip-path="url(#clipPath30)"
         id="path358" />
      <text
         x="791"
         y="585"
         style="fill:black; clip-path:url(#clipPath30); stroke:none;"
         xml:space="preserve"
         clip-path="url(#clipPath30)"
         id="text360">PDH</text>
    </g>
    <g
       style="fill:white; text-rendering:geometricPrecision; stroke:white;"
       id="g370">
      <path
         d="M355 723.5 L445 723.5 L445 748.5 L355 748.5 L355 723.5 Z"
         style="clip-path:url(#clipPath31); stroke:none;"
         clip-path="url(#clipPath31)"
         id="path364" />
      <path
         d="M355 723.5 L445 723.5 L445 748.5 L355 748.5 L355 723.5 Z"
         style="fill:none; clip-path:url(#clipPath31); stroke:black;"
         clip-path="url(#clipPath31)"
         id="path366" />
      <text
         x="384"
         y="740"
         style="fill:black; clip-path:url(#clipPath31); stroke:none;"
         xml:space="preserve"
         clip-path="url(#clipPath31)"
         id="text368">LDHA</text>
    </g>
    <g
       style="fill:white; text-rendering:geometricPrecision; stroke:white;"
       id="g378">
      <path
         d="M817 509.5 L817 514.5 C817 520.0228 821.4772 524.5 827 524.5 L934 524.5 C939.5228 524.5 944 520.0228 944 514.5 L944 509.5 C944 503.9771 939.5228 499.5 934 499.5 L827 499.5 C821.4772 499.5 817 503.9771 817 509.5 Z"
         style="clip-path:url(#clipPath32); stroke:none;"
         clip-path="url(#clipPath32)"
         id="path372" />
      <path
         d="M817 509.5 L817 514.5 C817 520.0228 821.4772 524.5 827 524.5 L934 524.5 C939.5228 524.5 944 520.0228 944 514.5 L944 509.5 C944 503.9771 939.5228 499.5 934 499.5 L827 499.5 C821.4772 499.5 817 503.9771 817 509.5 Z"
         style="fill:none; clip-path:url(#clipPath32); stroke:rgb(20,150,30);"
         clip-path="url(#clipPath32)"
         id="path374" />
      <text
         x="821"
         y="516"
         style="clip-path:url(#clipPath32); fill:rgb(20,150,30); stroke:none; font-weight:bold;"
         xml:space="preserve"
         clip-path="url(#clipPath32)"
         id="text376">Respiratory chain</text>
    </g>
    <g
       style="fill:white; text-rendering:geometricPrecision; stroke:white;"
       id="g386">
      <path
         d="M281.75 648.5 L371.75 648.5 L371.75 673.5 L281.75 673.5 L281.75 648.5 Z"
         style="clip-path:url(#clipPath33); stroke:none;"
         clip-path="url(#clipPath33)"
         id="path380" />
      <path
         d="M281.75 648.5 L371.75 648.5 L371.75 673.5 L281.75 673.5 L281.75 648.5 Z"
         style="fill:none; clip-path:url(#clipPath33); stroke:blue;"
         clip-path="url(#clipPath33)"
         id="path382" />
      <text
         x="304"
         y="665"
         style="fill:blue; clip-path:url(#clipPath33); stroke:none;"
         xml:space="preserve"
         clip-path="url(#clipPath33)"
         id="text384">Lactate</text>
    </g>
    <g
       style="fill:white; text-rendering:geometricPrecision; stroke:white;"
       id="g394">
      <path
         d="M627.0833 499.9167 L717.0833 499.9167 L717.0833 524.9167 L627.0833 524.9167 L627.0833 499.9167 Z"
         style="clip-path:url(#clipPath34); stroke:none;"
         clip-path="url(#clipPath34)"
         id="path388" />
      <path
         d="M627.0833 499.9167 L717.0833 499.9167 L717.0833 524.9167 L627.0833 524.9167 L627.0833 499.9167 Z"
         style="fill:none; clip-path:url(#clipPath34); stroke:black;"
         clip-path="url(#clipPath34)"
         id="path390" />
      <text
         x="657"
         y="516"
         style="fill:black; clip-path:url(#clipPath34); stroke:none;"
         xml:space="preserve"
         clip-path="url(#clipPath34)"
         id="text392">PDK1</text>
    </g>
    <g
       style="fill:white; text-rendering:geometricPrecision; stroke:white;"
       id="g402">
      <path
         d="M833 648.5 L923 648.5 L923 673.5 L833 673.5 L833 648.5 Z"
         style="clip-path:url(#clipPath35); stroke:none;"
         clip-path="url(#clipPath35)"
         id="path396" />
      <path
         d="M833 648.5 L923 648.5 L923 673.5 L833 673.5 L833 648.5 Z"
         style="fill:none; clip-path:url(#clipPath35); stroke:blue;"
         clip-path="url(#clipPath35)"
         id="path398" />
      <text
         x="846"
         y="665"
         style="fill:blue; clip-path:url(#clipPath35); stroke:none;"
         xml:space="preserve"
         clip-path="url(#clipPath35)"
         id="text400">Acetyl CoA</text>
    </g>
    <g
       style="fill:white; text-rendering:geometricPrecision; stroke:white;"
       id="g410">
      <path
         d="M346.3333 175.1667 L436.3333 175.1667 L436.3333 200.1667 L346.3333 200.1667 L346.3333 175.1667 Z"
         style="clip-path:url(#clipPath36); stroke:none;"
         clip-path="url(#clipPath36)"
         id="path404" />
      <path
         d="M346.3333 175.1667 L436.3333 175.1667 L436.3333 200.1667 L346.3333 200.1667 L346.3333 175.1667 Z"
         style="fill:none; clip-path:url(#clipPath36); stroke:black;"
         clip-path="url(#clipPath36)"
         id="path406" />
      <text
         x="372"
         y="192"
         style="fill:black; clip-path:url(#clipPath36); stroke:none;"
         xml:space="preserve"
         clip-path="url(#clipPath36)"
         id="text408">GLUT1</text>
    </g>
    <g
       style="fill:white; text-rendering:geometricPrecision; stroke:white;"
       id="g418">
      <path
         d="M441 648.5 L609 648.5 L609 673.5 L441 673.5 L441 648.5 Z"
         style="clip-path:url(#clipPath37); stroke:none;"
         clip-path="url(#clipPath37)"
         id="path412" />
      <path
         d="M441 648.5 L609 648.5 L609 673.5 L441 673.5 L441 648.5 Z"
         style="fill:none; clip-path:url(#clipPath37); stroke:blue;"
         clip-path="url(#clipPath37)"
         id="path414" />
      <text
         x="498"
         y="665"
         style="fill:blue; clip-path:url(#clipPath37); stroke:none;"
         xml:space="preserve"
         clip-path="url(#clipPath37)"
         id="text416">Pyruvate</text>
    </g>
    <g
       style="fill:white; text-rendering:geometricPrecision; stroke:white;"
       id="g426">
      <path
         d="M942 704.1667 L942 709.1667 C942 714.6895 946.4772 719.1667 952 719.1667 L1022 719.1667 C1027.5228 719.1667 1032 714.6895 1032 709.1667 L1032 704.1667 C1032 698.6438 1027.5228 694.1667 1022 694.1667 L952 694.1667 C946.4772 694.1667 942 698.6438 942 704.1667 Z"
         style="clip-path:url(#clipPath38); stroke:none;"
         clip-path="url(#clipPath38)"
         id="path420" />
      <path
         d="M942 704.1667 L942 709.1667 C942 714.6895 946.4772 719.1667 952 719.1667 L1022 719.1667 C1027.5228 719.1667 1032 714.6895 1032 709.1667 L1032 704.1667 C1032 698.6438 1027.5228 694.1667 1022 694.1667 L952 694.1667 C946.4772 694.1667 942 698.6438 942 704.1667 Z"
         style="fill:none; clip-path:url(#clipPath38); stroke:rgb(20,150,30);"
         clip-path="url(#clipPath38)"
         id="path422" />
      <text
         x="955"
         y="711"
         style="clip-path:url(#clipPath38); fill:rgb(20,150,30); stroke:none; font-weight:bold;"
         xml:space="preserve"
         clip-path="url(#clipPath38)"
         id="text424">TCA cycle</text>
    </g>
    <g
       style="fill:white; text-rendering:geometricPrecision; stroke:white;"
       id="g434">
      <path
         d="M442 477.1667 L610 477.1667 L610 502.1667 L442 502.1667 L442 477.1667 Z"
         style="clip-path:url(#clipPath39); stroke:none;"
         clip-path="url(#clipPath39)"
         id="path428" />
      <path
         d="M442 477.1667 L610 477.1667 L610 502.1667 L442 502.1667 L442 477.1667 Z"
         style="fill:none; clip-path:url(#clipPath39); stroke:blue;"
         clip-path="url(#clipPath39)"
         id="path430" />
      <text
         x="447"
         y="494"
         style="fill:blue; clip-path:url(#clipPath39); stroke:none;"
         xml:space="preserve"
         clip-path="url(#clipPath39)"
         id="text432">fructose-1,6-bisphosphate</text>
    </g>
    <g
       style="fill:white; text-rendering:geometricPrecision; stroke:white;"
       id="g442">
      <path
         d="M441 315.1667 L609 315.1667 L609 343.6667 L441 343.6667 L441 315.1667 Z"
         style="clip-path:url(#clipPath40); stroke:none;"
         clip-path="url(#clipPath40)"
         id="path436" />
      <path
         d="M441 315.1667 L609 315.1667 L609 343.6667 L441 343.6667 L441 315.1667 Z"
         style="fill:none; clip-path:url(#clipPath40); stroke:blue;"
         clip-path="url(#clipPath40)"
         id="path438" />
      <text
         x="462"
         y="334"
         style="fill:blue; clip-path:url(#clipPath40); stroke:none;"
         xml:space="preserve"
         clip-path="url(#clipPath40)"
         id="text440">glucose-6-phosphate</text>
    </g>
    <g
       style="fill:white; text-rendering:geometricPrecision; stroke:white;"
       id="g450">
      <path
         d="M175.25 601.5 L265.25 601.5 L265.25 626.5 L175.25 626.5 L175.25 601.5 Z"
         style="clip-path:url(#clipPath41); stroke:none;"
         clip-path="url(#clipPath41)"
         id="path444" />
      <path
         d="M175.25 601.5 L265.25 601.5 L265.25 626.5 L175.25 626.5 L175.25 601.5 Z"
         style="fill:none; clip-path:url(#clipPath41); stroke:black;"
         clip-path="url(#clipPath41)"
         id="path446" />
      <text
         x="204"
         y="618"
         style="fill:black; clip-path:url(#clipPath41); stroke:none;"
         xml:space="preserve"
         clip-path="url(#clipPath41)"
         id="text448">MCT1</text>
    </g>
    <g
       style="fill:white; text-rendering:geometricPrecision; stroke:white;"
       id="g458">
      <path
         d="M331 367.5 L331 372.5 C331 378.0229 335.4771 382.5 341 382.5 L411 382.5 C416.5229 382.5 421 378.0229 421 372.5 L421 367.5 C421 361.9771 416.5229 357.5 411 357.5 L341 357.5 C335.4771 357.5 331 361.9771 331 367.5 Z"
         style="clip-path:url(#clipPath42); stroke:none;"
         clip-path="url(#clipPath42)"
         id="path452" />
      <path
         d="M331 367.5 L331 372.5 C331 378.0229 335.4771 382.5 341 382.5 L411 382.5 C416.5229 382.5 421 378.0229 421 372.5 L421 367.5 C421 361.9771 416.5229 357.5 411 357.5 L341 357.5 C335.4771 357.5 331 361.9771 331 367.5 Z"
         style="fill:none; clip-path:url(#clipPath42); stroke:rgb(20,150,30);"
         clip-path="url(#clipPath42)"
         id="path454" />
      <text
         x="343"
         y="374"
         style="clip-path:url(#clipPath42); fill:rgb(20,150,30); stroke:none; font-weight:bold;"
         xml:space="preserve"
         clip-path="url(#clipPath42)"
         id="text456">Glycolysis</text>
    </g>
    <g
       style="fill:white; text-rendering:geometricPrecision; stroke:white;"
       id="g466">
      <path
         d="M442 395.1667 L610 395.1667 L610 423.6667 L442 423.6667 L442 395.1667 Z"
         style="clip-path:url(#clipPath43); stroke:none;"
         clip-path="url(#clipPath43)"
         id="path460" />
      <path
         d="M442 395.1667 L610 395.1667 L610 423.6667 L442 423.6667 L442 395.1667 Z"
         style="fill:none; clip-path:url(#clipPath43); stroke:blue;"
         clip-path="url(#clipPath43)"
         id="path462" />
      <text
         x="460"
         y="414"
         style="fill:blue; clip-path:url(#clipPath43); stroke:none;"
         xml:space="preserve"
         clip-path="url(#clipPath43)"
         id="text464">Fructose-6-phosphate</text>
    </g>
    <g
       style="fill:white; text-rendering:geometricPrecision; stroke:white;"
       id="g474">
      <path
         d="M442 563.1667 L610 563.1667 L610 588.1667 L442 588.1667 L442 563.1667 Z"
         style="clip-path:url(#clipPath44); stroke:none;"
         clip-path="url(#clipPath44)"
         id="path468" />
      <path
         d="M442 563.1667 L610 563.1667 L610 588.1667 L442 588.1667 L442 563.1667 Z"
         style="fill:none; clip-path:url(#clipPath44); stroke:blue;"
         clip-path="url(#clipPath44)"
         id="path470" />
      <text
         x="460"
         y="580"
         style="fill:blue; clip-path:url(#clipPath44); stroke:none;"
         xml:space="preserve"
         clip-path="url(#clipPath44)"
         id="text472">phosphoenolpyruvate</text>
    </g>
    <g
       style="fill:white; text-rendering:geometricPrecision; stroke:white;"
       id="g482">
      <path
         d="M441.6667 92.1667 L609.6667 92.1667 L609.6667 117.1667 L441.6667 117.1667 L441.6667 92.1667 Z"
         style="clip-path:url(#clipPath45); stroke:none;"
         clip-path="url(#clipPath45)"
         id="path476" />
      <path
         d="M441.6667 92.1667 L609.6667 92.1667 L609.6667 117.1667 L441.6667 117.1667 L441.6667 92.1667 Z"
         style="fill:none; clip-path:url(#clipPath45); stroke:blue;"
         clip-path="url(#clipPath45)"
         id="path478" />
      <text
         x="502"
         y="109"
         style="fill:blue; clip-path:url(#clipPath45); stroke:none;"
         xml:space="preserve"
         clip-path="url(#clipPath45)"
         id="text480">Glucose</text>
    </g>
    <g
       style="fill:white; text-rendering:geometricPrecision; stroke:white;"
       id="g490">
      <path
         d="M653.0833 377.5 L743.0833 377.5 L743.0833 402.5 L653.0833 402.5 L653.0833 377.5 Z"
         style="clip-path:url(#clipPath46); stroke:none;"
         clip-path="url(#clipPath46)"
         id="path484" />
      <path
         d="M653.0833 377.5 L743.0833 377.5 L743.0833 402.5 L653.0833 402.5 L653.0833 377.5 Z"
         style="fill:none; clip-path:url(#clipPath46); stroke:blue;"
         clip-path="url(#clipPath46)"
         id="path486" />
      <text
         x="677"
         y="394"
         style="fill:blue; clip-path:url(#clipPath46); stroke:none;"
         xml:space="preserve"
         clip-path="url(#clipPath46)"
         id="text488">NADPH</text>
    </g>
    <g
       style="fill:white; text-rendering:geometricPrecision; stroke:white;"
       id="g498">
      <path
         d="M347 433.1667 L437 433.1667 L437 458.1667 L347 458.1667 L347 433.1667 Z"
         style="clip-path:url(#clipPath47); stroke:none;"
         clip-path="url(#clipPath47)"
         id="path492" />
      <path
         d="M347 433.1667 L437 433.1667 L437 458.1667 L347 458.1667 L347 433.1667 Z"
         style="fill:none; clip-path:url(#clipPath47); stroke:black;"
         clip-path="url(#clipPath47)"
         id="path494" />
      <text
         x="377"
         y="450"
         style="fill:black; clip-path:url(#clipPath47); stroke:none;"
         xml:space="preserve"
         clip-path="url(#clipPath47)"
         id="text496">PFKP</text>
    </g>
    <g
       style="fill:white; text-rendering:geometricPrecision; stroke:white;"
       id="g506">
      <path
         d="M652.0833 275.25 L742.0833 275.25 L742.0833 300.25 L652.0833 300.25 L652.0833 275.25 Z"
         style="clip-path:url(#clipPath48); stroke:none;"
         clip-path="url(#clipPath48)"
         id="path500" />
      <path
         d="M652.0833 275.25 L742.0833 275.25 L742.0833 300.25 L652.0833 300.25 L652.0833 275.25 Z"
         style="fill:none; clip-path:url(#clipPath48); stroke:black;"
         clip-path="url(#clipPath48)"
         id="path502" />
      <text
         x="689"
         y="292"
         style="fill:black; clip-path:url(#clipPath48); stroke:none;"
         xml:space="preserve"
         clip-path="url(#clipPath48)"
         id="text504">HK</text>
    </g>
    <g
       style="fill:navy; text-rendering:geometricPrecision; font-size:8; stroke:navy;"
       id="g510">
      <text
         x="433"
         xml:space="preserve"
         y="172"
         style="clip-path:url(#clipPath50); stroke:none;"
         clip-path="url(#clipPath50)"
         id="text508">1</text>
    </g>
    <g
       style="fill:white; text-rendering:geometricPrecision; stroke:white;"
       id="g518">
      <path
         d="M442 244.1667 L610 244.1667 L610 269.1667 L442 269.1667 L442 244.1667 Z"
         style="clip-path:url(#clipPath51); stroke:none;"
         clip-path="url(#clipPath51)"
         id="path512" />
      <path
         d="M442 244.1667 L610 244.1667 L610 269.1667 L442 269.1667 L442 244.1667 Z"
         style="fill:none; clip-path:url(#clipPath51); stroke:blue;"
         clip-path="url(#clipPath51)"
         id="path514" />
      <text
         x="502"
         y="261"
         style="fill:blue; clip-path:url(#clipPath51); stroke:none;"
         xml:space="preserve"
         clip-path="url(#clipPath51)"
         id="text516">Glucose</text>
    </g>
    <g
       style="fill:navy; text-rendering:geometricPrecision; font-size:8; stroke:navy;"
       id="g522">
      <text
         x="739"
         xml:space="preserve"
         y="272"
         style="clip-path:url(#clipPath53); stroke:none;"
         clip-path="url(#clipPath53)"
         id="text520">3</text>
    </g>
    <g
       style="fill:white; text-rendering:geometricPrecision; stroke:white;"
       id="g530">
      <path
         d="M40.0833 648.5 L130.0833 648.5 L130.0833 673.5 L40.0833 673.5 L40.0833 648.5 Z"
         style="clip-path:url(#clipPath54); stroke:none;"
         clip-path="url(#clipPath54)"
         id="path524" />
      <path
         d="M40.0833 648.5 L130.0833 648.5 L130.0833 673.5 L40.0833 673.5 L40.0833 648.5 Z"
         style="fill:none; clip-path:url(#clipPath54); stroke:blue;"
         clip-path="url(#clipPath54)"
         id="path526" />
      <text
         x="63"
         y="665"
         style="fill:blue; clip-path:url(#clipPath54); stroke:none;"
         xml:space="preserve"
         clip-path="url(#clipPath54)"
         id="text528">Lactate</text>
    </g>
    <g
       style="fill:white; text-rendering:geometricPrecision; stroke:white;"
       id="g538">
      <path
         d="M689 648.5 L779 648.5 L779 673.5 L689 673.5 L689 648.5 Z"
         style="clip-path:url(#clipPath55); stroke:none;"
         clip-path="url(#clipPath55)"
         id="path532" />
      <path
         d="M689 648.5 L779 648.5 L779 673.5 L689 673.5 L689 648.5 Z"
         style="fill:none; clip-path:url(#clipPath55); stroke:blue;"
         clip-path="url(#clipPath55)"
         id="path534" />
      <text
         x="708"
         y="665"
         style="fill:blue; clip-path:url(#clipPath55); stroke:none;"
         xml:space="preserve"
         clip-path="url(#clipPath55)"
         id="text536">pyruvate</text>
    </g>
    <g
       style="fill:white; text-rendering:geometricPrecision; stroke:white;"
       id="g546">
      <path
         d="M357.6667 601.5 L447.6667 601.5 L447.6667 626.5 L357.6667 626.5 L357.6667 601.5 Z"
         style="clip-path:url(#clipPath56); stroke:none;"
         clip-path="url(#clipPath56)"
         id="path540" />
      <path
         d="M357.6667 601.5 L447.6667 601.5 L447.6667 626.5 L357.6667 626.5 L357.6667 601.5 Z"
         style="fill:none; clip-path:url(#clipPath56); stroke:black;"
         clip-path="url(#clipPath56)"
         id="path542" />
      <text
         x="386"
         y="618"
         style="fill:black; clip-path:url(#clipPath56); stroke:none;"
         xml:space="preserve"
         clip-path="url(#clipPath56)"
         id="text544">PKM2</text>
    </g>
  </g>
</svg>
