<?xml version="1.0" encoding="UTF-8" standalone="no"?>
<svg
   style="fill-opacity:1; color-rendering:auto; color-interpolation:auto; stroke:black; text-rendering:auto; stroke-linecap:square; stroke-miterlimit:10; stroke-opacity:1; shape-rendering:auto; fill:black; stroke-dasharray:none; font-weight:normal; stroke-width:1; font-family:'Dialog'; font-style:normal; stroke-linejoin:miter; font-size:12; stroke-dashoffset:0; image-rendering:auto;"
   width="928"
   height="661"
   version="1.1"
   id="svg597"
   xmlns="http://www.w3.org/2000/svg"
   xmlns:svg="http://www.w3.org/2000/svg">
  <!--Generated by the Batik Graphics2D SVG Generator-->
  <defs
     id="genericDefs" />
  <g
     id="g595">
    <defs
       id="defs1">
      <clipPath
         clipPathUnits="userSpaceOnUse"
         id="clipPath1">
        <path
           d="M0 0 L936 0 L936 671 L0 671 L0 0 Z"
           id="path3" />
      </clipPath>
      <clipPath
         clipPathUnits="userSpaceOnUse"
         id="clipPath2">
        <path
           d="M0 0 L0 200 L200 200 L200 0 Z"
           id="path6" />
      </clipPath>
      <clipPath
         clipPathUnits="userSpaceOnUse"
         id="clipPath3">
        <path
           d="M164 16 L164 37 L175 37 L175 16 Z"
           id="path9" />
      </clipPath>
      <clipPath
         clipPathUnits="userSpaceOnUse"
         id="clipPath4">
        <path
           d="M163.4551 3.918 L174.5449 3.918 L174.5449 19.2305 L163.4551 19.2305 L163.4551 3.918 Z"
           id="path12" />
      </clipPath>
      <clipPath
         clipPathUnits="userSpaceOnUse"
         id="clipPath5">
        <path
           d="M237.9048 303.0238 L237.9048 392.0238 L644.1905 392.0238 L644.1905 303.0238 Z"
           id="path15" />
      </clipPath>
      <clipPath
         clipPathUnits="userSpaceOnUse"
         id="clipPath6">
        <path
           d="M337.5952 577.602 L337.5952 589.5408 L611.3263 589.5408 L611.3263 577.602 Z"
           id="path18" />
      </clipPath>
      <clipPath
         clipPathUnits="userSpaceOnUse"
         id="clipPath7">
        <path
           d="M444.3256 339.5168 L444.3256 370.9602 L456.2632 370.9602 L456.2632 339.5168 Z"
           id="path21" />
      </clipPath>
      <clipPath
         clipPathUnits="userSpaceOnUse"
         id="clipPath8">
        <path
           d="M284.0077 291.7021 L284.0077 349.8293 L304.509 349.8293 L304.509 291.7021 Z"
           id="path24" />
      </clipPath>
      <clipPath
         clipPathUnits="userSpaceOnUse"
         id="clipPath9">
        <path
           d="M338.6736 360.2251 L338.6736 374.688 L542.6927 374.688 L542.6927 360.2251 Z"
           id="path27" />
      </clipPath>
      <clipPath
         clipPathUnits="userSpaceOnUse"
         id="clipPath10">
        <path
           d="M288.8487 376.0929 L288.8487 428.6593 L300.787 428.6593 L300.787 376.0929 Z"
           id="path30" />
      </clipPath>
      <clipPath
         clipPathUnits="userSpaceOnUse"
         id="clipPath11">
        <path
           d="M628.2595 360.5851 L628.2595 372.5236 L674.6463 372.5236 L674.6463 360.5851 Z"
           id="path33" />
      </clipPath>
      <clipPath
         clipPathUnits="userSpaceOnUse"
         id="clipPath12">
        <path
           d="M634.7762 363.5333 L634.7762 384.5333 L645.7762 384.5333 L645.7762 363.5333 Z"
           id="path36" />
      </clipPath>
      <clipPath
         clipPathUnits="userSpaceOnUse"
         id="clipPath13">
        <path
           d="M634.2313 351.4513 L645.3211 351.4513 L645.3211 366.7638 L634.2313 366.7638 L634.2313 351.4513 Z"
           id="path39" />
      </clipPath>
      <clipPath
         clipPathUnits="userSpaceOnUse"
         id="clipPath14">
        <path
           d="M491.8972 266.5443 L491.8972 287.0504 L540.918 287.0504 L540.918 266.5443 Z"
           id="path42" />
      </clipPath>
      <clipPath
         clipPathUnits="userSpaceOnUse"
         id="clipPath15">
        <path
           d="M288.2687 494.7118 L288.2687 519.8571 L300.2075 519.8571 L300.2075 494.7118 Z"
           id="path45" />
      </clipPath>
      <clipPath
         clipPathUnits="userSpaceOnUse"
         id="clipPath16">
        <path
           d="M635.5197 266.3553 L635.5197 286.8749 L817.3616 286.8749 L817.3616 266.3553 Z"
           id="path48" />
      </clipPath>
      <clipPath
         clipPathUnits="userSpaceOnUse"
         id="clipPath17">
        <path
           d="M228.9643 114.2143 L228.9643 169.25 L302.5646 169.25 L302.5646 114.2143 Z"
           id="path51" />
      </clipPath>
      <clipPath
         clipPathUnits="userSpaceOnUse"
         id="clipPath18">
        <path
           d="M335.5733 390.7672 L335.5733 445.2099 L682.709 445.2099 L682.709 390.7672 Z"
           id="path54" />
      </clipPath>
      <clipPath
         clipPathUnits="userSpaceOnUse"
         id="clipPath19">
        <path
           d="M140.5536 339.1452 L140.5536 367.6844 L234.9689 367.6844 L234.9689 339.1452 Z"
           id="path57" />
      </clipPath>
      <clipPath
         clipPathUnits="userSpaceOnUse"
         id="clipPath20">
        <path
           d="M283.8056 244.7937 L283.8056 262.3546 L304.3688 262.3546 L304.3688 244.7937 Z"
           id="path60" />
      </clipPath>
      <clipPath
         clipPathUnits="userSpaceOnUse"
         id="clipPath21">
        <path
           d="M140.6409 360.2331 L140.6409 374.696 L251.1359 374.696 L251.1359 360.2331 Z"
           id="path63" />
      </clipPath>
      <clipPath
         clipPathUnits="userSpaceOnUse"
         id="clipPath22">
        <path
           d="M288.3904 449.2239 L288.3904 474.1483 L300.3284 474.1483 L300.3284 449.2239 Z"
           id="path66" />
      </clipPath>
      <clipPath
         clipPathUnits="userSpaceOnUse"
         id="clipPath23">
        <path
           d="M336.1924 264.2574 L336.1924 364.6749 L442.433 364.6749 L442.433 264.2574 Z"
           id="path69" />
      </clipPath>
      <clipPath
         clipPathUnits="userSpaceOnUse"
         id="clipPath24">
        <path
           d="M645.4952 459.2714 L645.4952 488.5714 L665.9952 488.5714 L665.9952 459.2714 Z"
           id="path72" />
      </clipPath>
      <clipPath
         clipPathUnits="userSpaceOnUse"
         id="clipPath25">
        <path
           d="M855.8878 234.9524 L855.8878 267.0978 L867.8265 267.0978 L867.8265 234.9524 Z"
           id="path75" />
      </clipPath>
      <clipPath
         clipPathUnits="userSpaceOnUse"
         id="clipPath26">
        <path
           d="M203.0952 128.7143 L203.0952 647.5714 L390.0952 647.5714 L390.0952 128.7143 Z"
           id="path78" />
      </clipPath>
      <clipPath
         clipPathUnits="userSpaceOnUse"
         id="clipPath27">
        <path
           d="M506.5473 145.2675 L506.5473 642.3218 L799.7258 642.3218 L799.7258 145.2675 Z"
           id="path81" />
      </clipPath>
      <clipPath
         clipPathUnits="userSpaceOnUse"
         id="clipPath28">
        <path
           d="M542.0952 413.5714 L542.0952 626.0714 L772.5952 626.0714 L772.5952 413.5714 Z"
           id="path84" />
      </clipPath>
      <clipPath
         clipPathUnits="userSpaceOnUse"
         id="clipPath29">
        <path
           d="M409.6905 561.7143 L409.6905 587.7143 L500.6905 587.7143 L500.6905 561.7143 Z"
           id="path87" />
      </clipPath>
      <clipPath
         clipPathUnits="userSpaceOnUse"
         id="clipPath30">
        <path
           d="M623.5952 158.5714 L623.5952 184.5714 L779.5952 184.5714 L779.5952 158.5714 Z"
           id="path90" />
      </clipPath>
      <clipPath
         clipPathUnits="userSpaceOnUse"
         id="clipPath31">
        <path
           d="M216.3571 87.4286 L216.3571 122.5 L297.5 122.5 L297.5 87.4286 Z"
           id="path93" />
      </clipPath>
      <clipPath
         clipPathUnits="userSpaceOnUse"
         id="clipPath32">
        <path
           d="M659.5952 603.5714 L659.5952 629.5714 L782.5952 629.5714 L782.5952 603.5714 Z"
           id="path96" />
      </clipPath>
      <clipPath
         clipPathUnits="userSpaceOnUse"
         id="clipPath33">
        <path
           d="M289.6905 610.2857 L289.6905 636.2857 L380.6905 636.2857 L380.6905 610.2857 Z"
           id="path99" />
      </clipPath>
      <clipPath
         clipPathUnits="userSpaceOnUse"
         id="clipPath34">
        <path
           d="M249.4048 354.5238 L249.4048 380.5238 L340.4048 380.5238 L340.4048 354.5238 Z"
           id="path102" />
      </clipPath>
      <clipPath
         clipPathUnits="userSpaceOnUse"
         id="clipPath35">
        <path
           d="M404.5476 314.5238 L404.5476 340.5238 L495.5476 340.5238 L495.5476 314.5238 Z"
           id="path105" />
      </clipPath>
      <clipPath
         clipPathUnits="userSpaceOnUse"
         id="clipPath36">
        <path
           d="M249.4405 266.7024 L249.4405 292.7024 L340.4405 292.7024 L340.4405 266.7024 Z"
           id="path108" />
      </clipPath>
      <clipPath
         clipPathUnits="userSpaceOnUse"
         id="clipPath37">
        <path
           d="M609.5952 520.5714 L609.5952 546.5714 L700.5952 546.5714 L700.5952 520.5714 Z"
           id="path111" />
      </clipPath>
      <clipPath
         clipPathUnits="userSpaceOnUse"
         id="clipPath38">
        <path
           d="M248.7381 518.8571 L248.7381 544.8571 L339.7381 544.8571 L339.7381 518.8571 Z"
           id="path114" />
      </clipPath>
      <clipPath
         clipPathUnits="userSpaceOnUse"
         id="clipPath39">
        <path
           d="M681.6429 353.3333 L681.6429 379.3333 L772.6429 379.3333 L772.6429 353.3333 Z"
           id="path117" />
      </clipPath>
      <clipPath
         clipPathUnits="userSpaceOnUse"
         id="clipPath40">
        <path
           d="M609.5952 495.5714 L609.5952 521.5714 L700.5952 521.5714 L700.5952 495.5714 Z"
           id="path120" />
      </clipPath>
      <clipPath
         clipPathUnits="userSpaceOnUse"
         id="clipPath41">
        <path
           d="M759.1429 350.8333 L759.1429 371.8333 L785.1429 371.8333 L785.1429 350.8333 Z"
           id="path123" />
      </clipPath>
      <clipPath
         clipPathUnits="userSpaceOnUse"
         id="clipPath42">
        <path
           d="M761.5101 338.7513 L782.7757 338.7513 L782.7757 354.0638 L761.5101 354.0638 L761.5101 338.7513 Z"
           id="path126" />
      </clipPath>
      <clipPath
         clipPathUnits="userSpaceOnUse"
         id="clipPath43">
        <path
           d="M681.6429 378.3333 L681.6429 404.3333 L772.6429 404.3333 L772.6429 378.3333 Z"
           id="path129" />
      </clipPath>
      <clipPath
         clipPathUnits="userSpaceOnUse"
         id="clipPath44">
        <path
           d="M767.1429 375.8333 L767.1429 396.8333 L778.1429 396.8333 L778.1429 375.8333 Z"
           id="path132" />
      </clipPath>
      <clipPath
         clipPathUnits="userSpaceOnUse"
         id="clipPath45">
        <path
           d="M766.598 363.7513 L777.6878 363.7513 L777.6878 379.0638 L766.598 379.0638 L766.598 363.7513 Z"
           id="path135" />
      </clipPath>
      <clipPath
         clipPathUnits="userSpaceOnUse"
         id="clipPath46">
        <path
           d="M681.6429 328.3333 L681.6429 354.3333 L772.6429 354.3333 L772.6429 328.3333 Z"
           id="path138" />
      </clipPath>
      <clipPath
         clipPathUnits="userSpaceOnUse"
         id="clipPath47">
        <path
           d="M759.1429 325.8333 L759.1429 346.8333 L785.1429 346.8333 L785.1429 325.8333 Z"
           id="path141" />
      </clipPath>
      <clipPath
         clipPathUnits="userSpaceOnUse"
         id="clipPath48">
        <path
           d="M761.5101 313.7513 L782.7757 313.7513 L782.7757 329.0638 L761.5101 329.0638 L761.5101 313.7513 Z"
           id="path144" />
      </clipPath>
      <clipPath
         clipPathUnits="userSpaceOnUse"
         id="clipPath49">
        <path
           d="M248.7381 219.8095 L248.7381 245.8095 L339.7381 245.8095 L339.7381 219.8095 Z"
           id="path147" />
      </clipPath>
      <clipPath
         clipPathUnits="userSpaceOnUse"
         id="clipPath50">
        <path
           d="M609.5952 545.5714 L609.5952 571.5714 L700.5952 571.5714 L700.5952 545.5714 Z"
           id="path150" />
      </clipPath>
      <clipPath
         clipPathUnits="userSpaceOnUse"
         id="clipPath51">
        <path
           d="M541.6905 353.619 L541.6905 379.619 L632.6905 379.619 L632.6905 353.619 Z"
           id="path153" />
      </clipPath>
      <clipPath
         clipPathUnits="userSpaceOnUse"
         id="clipPath52">
        <path
           d="M248.9643 427.6548 L248.9643 453.6548 L339.9643 453.6548 L339.9643 427.6548 Z"
           id="path156" />
      </clipPath>
      <clipPath
         clipPathUnits="userSpaceOnUse"
         id="clipPath53">
        <path
           d="M50.6429 354.0952 L50.6429 380.0952 L141.6429 380.0952 L141.6429 354.0952 Z"
           id="path159" />
      </clipPath>
      <clipPath
         clipPathUnits="userSpaceOnUse"
         id="clipPath54">
        <path
           d="M609.5952 570.5714 L609.5952 596.5714 L700.5952 596.5714 L700.5952 570.5714 Z"
           id="path162" />
      </clipPath>
      <clipPath
         clipPathUnits="userSpaceOnUse"
         id="clipPath55">
        <path
           d="M816.3571 262.6667 L816.3571 288.6667 L907.3571 288.6667 L907.3571 262.6667 Z"
           id="path165" />
      </clipPath>
      <clipPath
         clipPathUnits="userSpaceOnUse"
         id="clipPath56">
        <path
           d="M396.2262 264.4643 L396.2262 290.4643 L487.2262 290.4643 L487.2262 264.4643 Z"
           id="path168" />
      </clipPath>
      <clipPath
         clipPathUnits="userSpaceOnUse"
         id="clipPath57">
        <path
           d="M816.3571 201.9524 L816.3571 227.9524 L907.3571 227.9524 L907.3571 201.9524 Z"
           id="path171" />
      </clipPath>
      <clipPath
         clipPathUnits="userSpaceOnUse"
         id="clipPath58">
        <path
           d="M816.3571 176.9524 L816.3571 202.9524 L907.3571 202.9524 L907.3571 176.9524 Z"
           id="path174" />
      </clipPath>
      <clipPath
         clipPathUnits="userSpaceOnUse"
         id="clipPath59">
        <path
           d="M248.9643 155.75 L248.9643 181.75 L339.9643 181.75 L339.9643 155.75 Z"
           id="path177" />
      </clipPath>
      <clipPath
         clipPathUnits="userSpaceOnUse"
         id="clipPath60">
        <path
           d="M247.5952 570.5714 L247.5952 596.5714 L338.5952 596.5714 L338.5952 570.5714 Z"
           id="path180" />
      </clipPath>
      <clipPath
         clipPathUnits="userSpaceOnUse"
         id="clipPath61">
        <path
           d="M248.7381 473.1429 L248.7381 499.1429 L339.7381 499.1429 L339.7381 473.1429 Z"
           id="path183" />
      </clipPath>
      <clipPath
         clipPathUnits="userSpaceOnUse"
         id="clipPath62">
        <path
           d="M539.9167 264.3214 L539.9167 290.3214 L630.9167 290.3214 L630.9167 264.3214 Z"
           id="path186" />
      </clipPath>
      <clipPath
         clipPathUnits="userSpaceOnUse"
         id="clipPath63">
        <path
           d="M609.5952 428.5714 L609.5952 454.5714 L700.5952 454.5714 L700.5952 428.5714 Z"
           id="path189" />
      </clipPath>
    </defs>
    <g
       style="fill:white; stroke:white;"
       id="g195">
      <rect
         x="0"
         width="936"
         height="671"
         y="0"
         style="stroke:none;"
         id="rect193" />
    </g>
    <g
       style="font-weight:bold; font-size:10; text-rendering:geometricPrecision;"
       id="g205">
      <path
         d="M0.0469 6.7031 L6.7656 6.7031 L6.7656 8.125 L4.3438 8.125 L4.3438 14 L2.4688 14 L2.4688 8.125 L0.0469 8.125 L0.0469 6.7031 ZM7.665 8.5312 L9.415 8.5312 L9.415 14 L7.665 14 L7.665 8.5312 ZM7.665 6.4062 L9.415 6.4062 L9.415 7.8281 L7.665 7.8281 L7.665 6.4062 ZM12.999 6.9844 L12.999 8.5312 L14.7959 8.5312 L14.7959 9.7812 L12.999 9.7812 L12.999 12.0938 Q12.999 12.4844 13.1475 12.6172 Q13.2959 12.75 13.749 12.75 L14.6553 12.75 L14.6553 14 L13.1553 14 Q12.1084 14 11.6787 13.5703 Q11.249 13.1406 11.249 12.0938 L11.249 9.7812 L10.374 9.7812 L10.374 8.5312 L11.249 8.5312 L11.249 6.9844 L12.999 6.9844 ZM15.873 6.4062 L17.623 6.4062 L17.623 14 L15.873 14 L15.873 6.4062 ZM24.7539 11.25 L24.7539 11.75 L20.6758 11.75 Q20.7383 12.3594 21.1133 12.6719 Q21.4883 12.9844 22.1758 12.9844 Q22.7227 12.9844 23.3086 12.8203 Q23.8945 12.6562 24.5039 12.3125 L24.5039 13.6719 Q23.8789 13.9062 23.2617 14.0234 Q22.6445 14.1406 22.0195 14.1406 Q20.5352 14.1406 19.7148 13.3828 Q18.8945 12.625 18.8945 11.2656 Q18.8945 9.9375 19.6992 9.1719 Q20.5039 8.4062 21.9258 8.4062 Q23.207 8.4062 23.9805 9.1797 Q24.7539 9.9531 24.7539 11.25 ZM22.957 10.6719 Q22.957 10.1719 22.668 9.8672 Q22.3789 9.5625 21.9102 9.5625 Q21.3945 9.5625 21.082 9.8438 Q20.7695 10.125 20.6914 10.6719 L22.957 10.6719 ZM26.3643 8.5312 L28.1143 8.5312 L28.1143 10.4219 L26.3643 10.4219 L26.3643 8.5312 ZM26.3643 12.1094 L28.1143 12.1094 L28.1143 14 L26.3643 14 L26.3643 12.1094 Z"
         style="clip-path:url(#clipPath2); stroke:none;"
         clip-path="url(#clipPath2)"
         id="path197" />
      <path
         d="M43.9531 12.9531 L43.9531 11 L42.3438 11 L42.3438 10.1875 L44.9219 10.1875 L44.9219 13.3281 Q44.3594 13.7188 43.6719 13.9297 Q42.9844 14.1406 42.2031 14.1406 Q40.4844 14.1406 39.5234 13.1406 Q38.5625 12.1406 38.5625 10.3594 Q38.5625 8.5781 39.5234 7.5781 Q40.4844 6.5781 42.2031 6.5781 Q42.9062 6.5781 43.5547 6.75 Q44.2031 6.9219 44.7344 7.2656 L44.7344 8.3281 Q44.1875 7.8594 43.5781 7.625 Q42.9688 7.3906 42.2812 7.3906 Q40.9375 7.3906 40.2734 8.1328 Q39.6094 8.875 39.6094 10.3594 Q39.6094 11.8438 40.2734 12.5859 Q40.9375 13.3281 42.2812 13.3281 Q42.8125 13.3281 43.2188 13.2422 Q43.625 13.1562 43.9531 12.9531 ZM47.7178 7.5156 L47.7178 13.1875 L48.9053 13.1875 Q50.4209 13.1875 51.1162 12.5078 Q51.8115 11.8281 51.8115 10.3438 Q51.8115 8.875 51.1162 8.1953 Q50.4209 7.5156 48.9053 7.5156 L47.7178 7.5156 ZM46.7334 6.7031 L48.7646 6.7031 Q50.874 6.7031 51.8662 7.5859 Q52.8584 8.4688 52.8584 10.3438 Q52.8584 12.2344 51.8662 13.1172 Q50.874 14 48.7646 14 L46.7334 14 L46.7334 6.7031 ZM54.4336 6.7031 L55.7617 6.7031 L58.9961 12.8125 L58.9961 6.7031 L59.9492 6.7031 L59.9492 14 L58.6211 14 L55.3867 7.9062 L55.3867 14 L54.4336 14 L54.4336 6.7031 ZM61.9141 6.7031 L66.1016 6.7031 L66.1016 7.5469 L62.8984 7.5469 L62.8984 9.6875 L65.7891 9.6875 L65.7891 10.5156 L62.8984 10.5156 L62.8984 14 L61.9141 14 L61.9141 6.7031 ZM69.2285 6.7031 L70.0566 6.7031 L67.5098 14.9219 L66.6816 14.9219 L69.2285 6.7031 ZM74.4883 10.5781 Q74.8008 10.6875 75.1055 11.0391 Q75.4102 11.3906 75.707 12 L76.707 14 L75.6445 14 L74.7227 12.125 Q74.3633 11.3906 74.0195 11.1562 Q73.6758 10.9219 73.0977 10.9219 L72.0195 10.9219 L72.0195 14 L71.0352 14 L71.0352 6.7031 L73.2539 6.7031 Q74.5039 6.7031 75.1211 7.2266 Q75.7383 7.75 75.7383 8.8125 Q75.7383 9.5 75.418 9.9531 Q75.0977 10.4062 74.4883 10.5781 ZM72.0195 7.5156 L72.0195 10.1094 L73.2539 10.1094 Q73.9727 10.1094 74.3398 9.7812 Q74.707 9.4531 74.707 8.8125 Q74.707 8.1719 74.3398 7.8438 Q73.9727 7.5156 73.2539 7.5156 L72.0195 7.5156 ZM77.9834 6.7031 L82.5928 6.7031 L82.5928 7.5469 L78.9678 7.5469 L78.9678 9.7031 L82.4365 9.7031 L82.4365 10.5312 L78.9678 10.5312 L78.9678 13.1719 L82.6709 13.1719 L82.6709 14 L77.9834 14 L77.9834 6.7031 ZM83.2861 6.7031 L89.458 6.7031 L89.458 7.5469 L86.8643 7.5469 L86.8643 14 L85.8799 14 L85.8799 7.5469 L83.2861 7.5469 L83.2861 6.7031 ZM97.0264 8.6875 L97.0264 9.5469 Q96.6514 9.3438 96.2451 9.25 Q95.8389 9.1562 95.3857 9.1562 Q94.7295 9.1562 94.3936 9.3594 Q94.0576 9.5625 94.0576 9.9688 Q94.0576 10.2812 94.292 10.4609 Q94.5264 10.6406 95.2607 10.7969 L95.5576 10.875 Q96.5264 11.0781 96.9248 11.4531 Q97.3232 11.8281 97.3232 12.4844 Q97.3232 13.25 96.7217 13.6953 Q96.1201 14.1406 95.0732 14.1406 Q94.6201 14.1406 94.1436 14.0547 Q93.667 13.9688 93.1514 13.7969 L93.1514 12.875 Q93.6514 13.125 94.1279 13.2578 Q94.6045 13.3906 95.0889 13.3906 Q95.7139 13.3906 96.0576 13.1719 Q96.4014 12.9531 96.4014 12.5625 Q96.4014 12.1875 96.1592 11.9922 Q95.917 11.7969 95.0732 11.625 L94.7607 11.5469 Q93.9326 11.375 93.5576 11.0078 Q93.1826 10.6406 93.1826 10.0156 Q93.1826 9.2344 93.7295 8.8203 Q94.2764 8.4062 95.292 8.4062 Q95.7764 8.4062 96.2217 8.4766 Q96.667 8.5469 97.0264 8.6875 ZM98.752 8.5312 L99.6582 8.5312 L99.6582 14 L98.752 14 L98.752 8.5312 ZM98.752 6.4062 L99.6582 6.4062 L99.6582 7.5469 L98.752 7.5469 L98.752 6.4062 ZM105.1396 11.2031 Q105.1396 10.2188 104.7334 9.6875 Q104.3271 9.1562 103.6084 9.1562 Q102.874 9.1562 102.4756 9.6875 Q102.0771 10.2188 102.0771 11.2031 Q102.0771 12.1719 102.4756 12.7109 Q102.874 13.25 103.6084 13.25 Q104.3271 13.25 104.7334 12.7109 Q105.1396 12.1719 105.1396 11.2031 ZM106.0303 13.3281 Q106.0303 14.7188 105.4131 15.3984 Q104.7959 16.0781 103.5146 16.0781 Q103.0459 16.0781 102.624 16.0078 Q102.2021 15.9375 101.8115 15.7969 L101.8115 14.9219 Q102.2021 15.1406 102.585 15.2422 Q102.9678 15.3438 103.374 15.3438 Q104.249 15.3438 104.6943 14.8828 Q105.1396 14.4219 105.1396 13.4844 L105.1396 13.0312 Q104.8584 13.5156 104.4209 13.7578 Q103.9834 14 103.374 14 Q102.374 14 101.7568 13.2344 Q101.1396 12.4688 101.1396 11.2031 Q101.1396 9.9375 101.7568 9.1719 Q102.374 8.4062 103.374 8.4062 Q103.9834 8.4062 104.4209 8.6406 Q104.8584 8.875 105.1396 9.3594 L105.1396 8.5312 L106.0303 8.5312 L106.0303 13.3281 ZM112.4248 10.7031 L112.4248 14 L111.5342 14 L111.5342 10.7344 Q111.5342 9.9531 111.2295 9.5703 Q110.9248 9.1875 110.3154 9.1875 Q109.5967 9.1875 109.1748 9.6484 Q108.7529 10.1094 108.7529 10.9062 L108.7529 14 L107.8467 14 L107.8467 8.5312 L108.7529 8.5312 L108.7529 9.375 Q109.0811 8.8906 109.5186 8.6484 Q109.9561 8.4062 110.5186 8.4062 Q111.4561 8.4062 111.9404 8.9844 Q112.4248 9.5625 112.4248 10.7031 ZM116.7002 11.25 Q115.6221 11.25 115.2002 11.5 Q114.7783 11.75 114.7783 12.3438 Q114.7783 12.8281 115.0908 13.1094 Q115.4033 13.3906 115.9502 13.3906 Q116.7002 13.3906 117.1533 12.8594 Q117.6064 12.3281 117.6064 11.4531 L117.6064 11.25 L116.7002 11.25 ZM118.4971 10.875 L118.4971 14 L117.6064 14 L117.6064 13.1719 Q117.2939 13.6719 116.833 13.9062 Q116.3721 14.1406 115.7158 14.1406 Q114.8721 14.1406 114.3721 13.6719 Q113.8721 13.2031 113.8721 12.4062 Q113.8721 11.4844 114.4971 11.0156 Q115.1221 10.5469 116.3408 10.5469 L117.6064 10.5469 L117.6064 10.4531 Q117.6064 9.8438 117.1924 9.5 Q116.7783 9.1562 116.0439 9.1562 Q115.5752 9.1562 115.1299 9.2734 Q114.6846 9.3906 114.2783 9.6094 L114.2783 8.7812 Q114.7783 8.5938 115.2393 8.5 Q115.7002 8.4062 116.1377 8.4062 Q117.3252 8.4062 117.9111 9.0156 Q118.4971 9.625 118.4971 10.875 ZM120.3438 6.4062 L121.25 6.4062 L121.25 14 L120.3438 14 L120.3438 6.4062 ZM123.1221 8.5312 L124.0283 8.5312 L124.0283 14 L123.1221 14 L123.1221 8.5312 ZM123.1221 6.4062 L124.0283 6.4062 L124.0283 7.5469 L123.1221 7.5469 L123.1221 6.4062 ZM130.4473 10.7031 L130.4473 14 L129.5566 14 L129.5566 10.7344 Q129.5566 9.9531 129.252 9.5703 Q128.9473 9.1875 128.3379 9.1875 Q127.6191 9.1875 127.1973 9.6484 Q126.7754 10.1094 126.7754 10.9062 L126.7754 14 L125.8691 14 L125.8691 8.5312 L126.7754 8.5312 L126.7754 9.375 Q127.1035 8.8906 127.541 8.6484 Q127.9785 8.4062 128.541 8.4062 Q129.4785 8.4062 129.9629 8.9844 Q130.4473 9.5625 130.4473 10.7031 ZM135.8477 11.2031 Q135.8477 10.2188 135.4414 9.6875 Q135.0352 9.1562 134.3164 9.1562 Q133.582 9.1562 133.1836 9.6875 Q132.7852 10.2188 132.7852 11.2031 Q132.7852 12.1719 133.1836 12.7109 Q133.582 13.25 134.3164 13.25 Q135.0352 13.25 135.4414 12.7109 Q135.8477 12.1719 135.8477 11.2031 ZM136.7383 13.3281 Q136.7383 14.7188 136.1211 15.3984 Q135.5039 16.0781 134.2227 16.0781 Q133.7539 16.0781 133.332 16.0078 Q132.9102 15.9375 132.5195 15.7969 L132.5195 14.9219 Q132.9102 15.1406 133.293 15.2422 Q133.6758 15.3438 134.082 15.3438 Q134.957 15.3438 135.4023 14.8828 Q135.8477 14.4219 135.8477 13.4844 L135.8477 13.0312 Q135.5664 13.5156 135.1289 13.7578 Q134.6914 14 134.082 14 Q133.082 14 132.4648 13.2344 Q131.8477 12.4688 131.8477 11.2031 Q131.8477 9.9375 132.4648 9.1719 Q133.082 8.4062 134.082 8.4062 Q134.6914 8.4062 135.1289 8.6406 Q135.5664 8.875 135.8477 9.3594 L135.8477 8.5312 L136.7383 8.5312 L136.7383 13.3281 ZM144.249 11.25 Q143.1709 11.25 142.749 11.5 Q142.3271 11.75 142.3271 12.3438 Q142.3271 12.8281 142.6396 13.1094 Q142.9521 13.3906 143.499 13.3906 Q144.249 13.3906 144.7021 12.8594 Q145.1553 12.3281 145.1553 11.4531 L145.1553 11.25 L144.249 11.25 ZM146.0459 10.875 L146.0459 14 L145.1553 14 L145.1553 13.1719 Q144.8428 13.6719 144.3818 13.9062 Q143.9209 14.1406 143.2646 14.1406 Q142.4209 14.1406 141.9209 13.6719 Q141.4209 13.2031 141.4209 12.4062 Q141.4209 11.4844 142.0459 11.0156 Q142.6709 10.5469 143.8896 10.5469 L145.1553 10.5469 L145.1553 10.4531 Q145.1553 9.8438 144.7412 9.5 Q144.3271 9.1562 143.5928 9.1562 Q143.124 9.1562 142.6787 9.2734 Q142.2334 9.3906 141.8271 9.6094 L141.8271 8.7812 Q142.3271 8.5938 142.7881 8.5 Q143.249 8.4062 143.6865 8.4062 Q144.874 8.4062 145.46 9.0156 Q146.0459 9.625 146.0459 10.875 ZM152.4395 8.5312 L150.4707 11.1875 L152.5488 14 L151.4863 14 L149.8926 11.8438 L148.2988 14 L147.2363 14 L149.3613 11.1406 L147.4238 8.5312 L148.4863 8.5312 L149.9395 10.4844 L151.377 8.5312 L152.4395 8.5312 ZM153.8105 8.5312 L154.7168 8.5312 L154.7168 14 L153.8105 14 L153.8105 8.5312 ZM153.8105 6.4062 L154.7168 6.4062 L154.7168 7.5469 L153.8105 7.5469 L153.8105 6.4062 ZM160.0732 8.6875 L160.0732 9.5469 Q159.6982 9.3438 159.292 9.25 Q158.8857 9.1562 158.4326 9.1562 Q157.7764 9.1562 157.4404 9.3594 Q157.1045 9.5625 157.1045 9.9688 Q157.1045 10.2812 157.3389 10.4609 Q157.5732 10.6406 158.3076 10.7969 L158.6045 10.875 Q159.5732 11.0781 159.9717 11.4531 Q160.3701 11.8281 160.3701 12.4844 Q160.3701 13.25 159.7686 13.6953 Q159.167 14.1406 158.1201 14.1406 Q157.667 14.1406 157.1904 14.0547 Q156.7139 13.9688 156.1982 13.7969 L156.1982 12.875 Q156.6982 13.125 157.1748 13.2578 Q157.6514 13.3906 158.1357 13.3906 Q158.7607 13.3906 159.1045 13.1719 Q159.4482 12.9531 159.4482 12.5625 Q159.4482 12.1875 159.2061 11.9922 Q158.9639 11.7969 158.1201 11.625 L157.8076 11.5469 Q156.9795 11.375 156.6045 11.0078 Q156.2295 10.6406 156.2295 10.0156 Q156.2295 9.2344 156.7764 8.8203 Q157.3232 8.4062 158.3389 8.4062 Q158.8232 8.4062 159.2686 8.4766 Q159.7139 8.5469 160.0732 8.6875 Z"
         style="clip-path:url(#clipPath2); stroke:none;"
         clip-path="url(#clipPath2)"
         id="path199" />
      <path
         d="M4.25 21.9375 Q3.3906 21.9375 2.9141 22.5703 Q2.4375 23.2031 2.4375 24.3594 Q2.4375 25.5156 2.9141 26.1484 Q3.3906 26.7812 4.25 26.7812 Q5.1094 26.7812 5.5859 26.1484 Q6.0625 25.5156 6.0625 24.3594 Q6.0625 23.2031 5.5859 22.5703 Q5.1094 21.9375 4.25 21.9375 ZM4.25 20.5781 Q6 20.5781 7 21.5859 Q8 22.5938 8 24.3594 Q8 26.125 7 27.1328 Q6 28.1406 4.25 28.1406 Q2.5 28.1406 1.5 27.1328 Q0.5 26.125 0.5 24.3594 Q0.5 22.5938 1.5 21.5859 Q2.5 20.5781 4.25 20.5781 ZM13.4072 24.0156 Q13.1729 23.9062 12.9463 23.8594 Q12.7197 23.8125 12.4854 23.8125 Q11.8135 23.8125 11.4541 24.2422 Q11.0947 24.6719 11.0947 25.4844 L11.0947 28 L9.3447 28 L9.3447 22.5312 L11.0947 22.5312 L11.0947 23.4219 Q11.4229 22.8906 11.8604 22.6484 Q12.2979 22.4062 12.9072 22.4062 Q13.001 22.4062 13.1025 22.4062 Q13.2041 22.4062 13.3916 22.4375 L13.4072 24.0156 ZM17.9951 27.0781 Q17.6357 27.5469 17.1982 27.7734 Q16.7607 28 16.1982 28 Q15.1982 28 14.542 27.2109 Q13.8857 26.4219 13.8857 25.2031 Q13.8857 23.9688 14.542 23.1875 Q15.1982 22.4062 16.1982 22.4062 Q16.7607 22.4062 17.1982 22.6328 Q17.6357 22.8594 17.9951 23.3438 L17.9951 22.5312 L19.7451 22.5312 L19.7451 27.4531 Q19.7451 28.7656 18.917 29.4609 Q18.0889 30.1562 16.5107 30.1562 Q15.9951 30.1562 15.5186 30.0781 Q15.042 30 14.5576 29.8438 L14.5576 28.4844 Q15.0107 28.75 15.4482 28.875 Q15.8857 29 16.3389 29 Q17.1982 29 17.5967 28.625 Q17.9951 28.25 17.9951 27.4531 L17.9951 27.0781 ZM16.8389 23.6719 Q16.292 23.6719 15.9951 24.0703 Q15.6982 24.4688 15.6982 25.2031 Q15.6982 25.9531 15.9873 26.3438 Q16.2764 26.7344 16.8389 26.7344 Q17.3857 26.7344 17.6904 26.3281 Q17.9951 25.9219 17.9951 25.2031 Q17.9951 24.4688 17.6904 24.0703 Q17.3857 23.6719 16.8389 23.6719 ZM23.8877 25.5312 Q23.3408 25.5312 23.0596 25.7188 Q22.7783 25.9062 22.7783 26.2656 Q22.7783 26.6094 23.0049 26.7969 Q23.2314 26.9844 23.6221 26.9844 Q24.1221 26.9844 24.458 26.625 Q24.7939 26.2656 24.7939 25.7344 L24.7939 25.5312 L23.8877 25.5312 ZM26.5596 24.875 L26.5596 28 L24.7939 28 L24.7939 27.1875 Q24.4346 27.6875 23.9971 27.9141 Q23.5596 28.1406 22.9346 28.1406 Q22.0752 28.1406 21.5518 27.6484 Q21.0283 27.1562 21.0283 26.3594 Q21.0283 25.3906 21.6846 24.9453 Q22.3408 24.5 23.7627 24.5 L24.7939 24.5 L24.7939 24.3594 Q24.7939 23.9531 24.4658 23.7578 Q24.1377 23.5625 23.4502 23.5625 Q22.8877 23.5625 22.4033 23.6719 Q21.9189 23.7812 21.4971 24.0156 L21.4971 22.6719 Q22.0596 22.5469 22.6299 22.4766 Q23.2002 22.4062 23.7627 22.4062 Q25.2471 22.4062 25.9033 22.9844 Q26.5596 23.5625 26.5596 24.875 ZM33.6826 24.6719 L33.6826 28 L31.917 28 L31.917 27.4531 L31.917 25.4531 Q31.917 24.75 31.8857 24.4766 Q31.8545 24.2031 31.7764 24.0781 Q31.6826 23.9062 31.5029 23.8125 Q31.3232 23.7188 31.1045 23.7188 Q30.5576 23.7188 30.2451 24.1406 Q29.9326 24.5625 29.9326 25.3125 L29.9326 28 L28.1826 28 L28.1826 22.5312 L29.9326 22.5312 L29.9326 23.3281 Q30.3232 22.8594 30.7686 22.6328 Q31.2139 22.4062 31.7451 22.4062 Q32.6982 22.4062 33.1904 22.9844 Q33.6826 23.5625 33.6826 24.6719 ZM35.3018 22.5312 L37.0518 22.5312 L37.0518 28 L35.3018 28 L35.3018 22.5312 ZM35.3018 20.4062 L37.0518 20.4062 L37.0518 21.8281 L35.3018 21.8281 L35.3018 20.4062 ZM42.9951 22.7031 L42.9951 24.0312 Q42.4326 23.7969 41.9092 23.6797 Q41.3857 23.5625 40.9326 23.5625 Q40.4326 23.5625 40.1904 23.6875 Q39.9482 23.8125 39.9482 24.0625 Q39.9482 24.2812 40.1279 24.3906 Q40.3076 24.5 40.792 24.5625 L41.0889 24.5938 Q42.4326 24.7656 42.9014 25.1562 Q43.3701 25.5469 43.3701 26.3906 Q43.3701 27.2656 42.7217 27.7031 Q42.0732 28.1406 40.792 28.1406 Q40.2607 28.1406 39.6826 28.0547 Q39.1045 27.9688 38.4795 27.7969 L38.4795 26.4688 Q39.0107 26.7188 39.5576 26.8516 Q40.1045 26.9844 40.667 26.9844 Q41.1826 26.9844 41.4404 26.8438 Q41.6982 26.7031 41.6982 26.4219 Q41.6982 26.1875 41.5264 26.0703 Q41.3545 25.9531 40.8232 25.8906 L40.5107 25.8438 Q39.3389 25.7031 38.8701 25.3047 Q38.4014 24.9062 38.4014 24.1094 Q38.4014 23.2344 38.9951 22.8203 Q39.5889 22.4062 40.8232 22.4062 Q41.3076 22.4062 41.8389 22.4766 Q42.3701 22.5469 42.9951 22.7031 ZM49.7441 23.4375 Q50.0723 22.9375 50.5332 22.6719 Q50.9941 22.4062 51.541 22.4062 Q52.4785 22.4062 52.9707 22.9844 Q53.4629 23.5625 53.4629 24.6719 L53.4629 28 L51.7129 28 L51.7129 25.1406 Q51.7129 25.0781 51.7129 25.0156 Q51.7129 24.9531 51.7129 24.8281 Q51.7129 24.2344 51.5488 23.9766 Q51.3848 23.7188 50.9941 23.7188 Q50.4941 23.7188 50.2285 24.125 Q49.9629 24.5312 49.9473 25.3125 L49.9473 28 L48.1816 28 L48.1816 25.1406 Q48.1816 24.2344 48.0254 23.9766 Q47.8691 23.7188 47.4785 23.7188 Q46.9785 23.7188 46.7051 24.1328 Q46.4316 24.5469 46.4316 25.3125 L46.4316 28 L44.666 28 L44.666 22.5312 L46.4316 22.5312 L46.4316 23.3281 Q46.7441 22.875 47.166 22.6406 Q47.5879 22.4062 48.0879 22.4062 Q48.6504 22.4062 49.0879 22.6797 Q49.5254 22.9531 49.7441 23.4375 ZM55.3828 22.5312 L57.1328 22.5312 L57.1328 24.4219 L55.3828 24.4219 L55.3828 22.5312 ZM55.3828 26.1094 L57.1328 26.1094 L57.1328 28 L55.3828 28 L55.3828 26.1094 Z"
         style="clip-path:url(#clipPath2); stroke:none;"
         clip-path="url(#clipPath2)"
         id="path201" />
      <path
         d="M66.9844 20.7031 L67.9688 20.7031 L67.9688 23.7031 L71.5469 23.7031 L71.5469 20.7031 L72.5312 20.7031 L72.5312 28 L71.5469 28 L71.5469 24.5312 L67.9688 24.5312 L67.9688 28 L66.9844 28 L66.9844 20.7031 ZM76.582 23.1562 Q75.8633 23.1562 75.4414 23.7188 Q75.0195 24.2812 75.0195 25.2656 Q75.0195 26.25 75.4336 26.8125 Q75.8477 27.375 76.582 27.375 Q77.3008 27.375 77.7227 26.8125 Q78.1445 26.25 78.1445 25.2656 Q78.1445 24.2969 77.7227 23.7266 Q77.3008 23.1562 76.582 23.1562 ZM76.582 22.4062 Q77.7539 22.4062 78.4258 23.1641 Q79.0977 23.9219 79.0977 25.2656 Q79.0977 26.6094 78.4258 27.375 Q77.7539 28.1406 76.582 28.1406 Q75.4102 28.1406 74.7383 27.375 Q74.0664 26.6094 74.0664 25.2656 Q74.0664 23.9219 74.7383 23.1641 Q75.4102 22.4062 76.582 22.4062 ZM84.8408 23.5781 Q85.1689 22.9688 85.6377 22.6875 Q86.1064 22.4062 86.7471 22.4062 Q87.6064 22.4062 88.0674 23 Q88.5283 23.5938 88.5283 24.7031 L88.5283 28 L87.6221 28 L87.6221 24.7344 Q87.6221 23.9375 87.3486 23.5625 Q87.0752 23.1875 86.4971 23.1875 Q85.7939 23.1875 85.3955 23.6484 Q84.9971 24.1094 84.9971 24.9062 L84.9971 28 L84.0908 28 L84.0908 24.7344 Q84.0908 23.9375 83.8096 23.5625 Q83.5283 23.1875 82.9502 23.1875 Q82.2627 23.1875 81.8564 23.6484 Q81.4502 24.1094 81.4502 24.9062 L81.4502 28 L80.5439 28 L80.5439 22.5312 L81.4502 22.5312 L81.4502 23.375 Q81.7627 22.875 82.1924 22.6406 Q82.6221 22.4062 83.2002 22.4062 Q83.8096 22.4062 84.2236 22.7031 Q84.6377 23 84.8408 23.5781 ZM92.4414 23.1562 Q91.7227 23.1562 91.3008 23.7188 Q90.8789 24.2812 90.8789 25.2656 Q90.8789 26.25 91.293 26.8125 Q91.707 27.375 92.4414 27.375 Q93.1602 27.375 93.582 26.8125 Q94.0039 26.25 94.0039 25.2656 Q94.0039 24.2969 93.582 23.7266 Q93.1602 23.1562 92.4414 23.1562 ZM92.4414 22.4062 Q93.6133 22.4062 94.2852 23.1641 Q94.957 23.9219 94.957 25.2656 Q94.957 26.6094 94.2852 27.375 Q93.6133 28.1406 92.4414 28.1406 Q91.2695 28.1406 90.5977 27.375 Q89.9258 26.6094 89.9258 25.2656 Q89.9258 23.9219 90.5977 23.1641 Q91.2695 22.4062 92.4414 22.4062 ZM103.0977 22.6875 L103.0977 23.5469 Q102.7227 23.3438 102.3164 23.25 Q101.9102 23.1562 101.457 23.1562 Q100.8008 23.1562 100.4648 23.3594 Q100.1289 23.5625 100.1289 23.9688 Q100.1289 24.2812 100.3633 24.4609 Q100.5977 24.6406 101.332 24.7969 L101.6289 24.875 Q102.5977 25.0781 102.9961 25.4531 Q103.3945 25.8281 103.3945 26.4844 Q103.3945 27.25 102.793 27.6953 Q102.1914 28.1406 101.1445 28.1406 Q100.6914 28.1406 100.2148 28.0547 Q99.7383 27.9688 99.2227 27.7969 L99.2227 26.875 Q99.7227 27.125 100.1992 27.2578 Q100.6758 27.3906 101.1602 27.3906 Q101.7852 27.3906 102.1289 27.1719 Q102.4727 26.9531 102.4727 26.5625 Q102.4727 26.1875 102.2305 25.9922 Q101.9883 25.7969 101.1445 25.625 L100.832 25.5469 Q100.0039 25.375 99.6289 25.0078 Q99.2539 24.6406 99.2539 24.0156 Q99.2539 23.2344 99.8008 22.8203 Q100.3477 22.4062 101.3633 22.4062 Q101.8477 22.4062 102.293 22.4766 Q102.7383 22.5469 103.0977 22.6875 ZM107.3076 25.25 Q106.2295 25.25 105.8076 25.5 Q105.3857 25.75 105.3857 26.3438 Q105.3857 26.8281 105.6982 27.1094 Q106.0107 27.3906 106.5576 27.3906 Q107.3076 27.3906 107.7607 26.8594 Q108.2139 26.3281 108.2139 25.4531 L108.2139 25.25 L107.3076 25.25 ZM109.1045 24.875 L109.1045 28 L108.2139 28 L108.2139 27.1719 Q107.9014 27.6719 107.4404 27.9062 Q106.9795 28.1406 106.3232 28.1406 Q105.4795 28.1406 104.9795 27.6719 Q104.4795 27.2031 104.4795 26.4062 Q104.4795 25.4844 105.1045 25.0156 Q105.7295 24.5469 106.9482 24.5469 L108.2139 24.5469 L108.2139 24.4531 Q108.2139 23.8438 107.7998 23.5 Q107.3857 23.1562 106.6514 23.1562 Q106.1826 23.1562 105.7373 23.2734 Q105.292 23.3906 104.8857 23.6094 L104.8857 22.7812 Q105.3857 22.5938 105.8467 22.5 Q106.3076 22.4062 106.7451 22.4062 Q107.9326 22.4062 108.5186 23.0156 Q109.1045 23.625 109.1045 24.875 ZM111.8262 27.1719 L111.8262 30.0781 L110.9199 30.0781 L110.9199 22.5312 L111.8262 22.5312 L111.8262 23.3594 Q112.1074 22.875 112.5371 22.6406 Q112.9668 22.4062 113.5762 22.4062 Q114.5762 22.4062 115.1934 23.1953 Q115.8105 23.9844 115.8105 25.2656 Q115.8105 26.5625 115.1934 27.3516 Q114.5762 28.1406 113.5762 28.1406 Q112.9668 28.1406 112.5371 27.9062 Q112.1074 27.6719 111.8262 27.1719 ZM114.8887 25.2656 Q114.8887 24.2812 114.4746 23.7188 Q114.0605 23.1562 113.3574 23.1562 Q112.6387 23.1562 112.2324 23.7188 Q111.8262 24.2812 111.8262 25.2656 Q111.8262 26.2656 112.2324 26.8281 Q112.6387 27.3906 113.3574 27.3906 Q114.0605 27.3906 114.4746 26.8281 Q114.8887 26.2656 114.8887 25.2656 ZM117.2988 22.5312 L118.2051 22.5312 L118.2051 28 L117.2988 28 L117.2988 22.5312 ZM117.2988 20.4062 L118.2051 20.4062 L118.2051 21.5469 L117.2988 21.5469 L117.2988 20.4062 ZM124.7646 25.0469 L124.7646 25.4844 L120.624 25.4844 Q120.6865 26.4062 121.1865 26.8906 Q121.6865 27.375 122.5771 27.375 Q123.0928 27.375 123.585 27.25 Q124.0771 27.125 124.5459 26.875 L124.5459 27.7188 Q124.0615 27.9219 123.5537 28.0312 Q123.0459 28.1406 122.5303 28.1406 Q121.2178 28.1406 120.4521 27.3828 Q119.6865 26.625 119.6865 25.3125 Q119.6865 23.9688 120.4131 23.1875 Q121.1396 22.4062 122.374 22.4062 Q123.4834 22.4062 124.124 23.1094 Q124.7646 23.8125 124.7646 25.0469 ZM123.8584 24.7812 Q123.8584 24.0469 123.4521 23.6016 Q123.0459 23.1562 122.3896 23.1562 Q121.624 23.1562 121.1787 23.5859 Q120.7334 24.0156 120.6553 24.7812 L123.8584 24.7812 ZM130.7764 24.7031 L130.7764 28 L129.8857 28 L129.8857 24.7344 Q129.8857 23.9531 129.5811 23.5703 Q129.2764 23.1875 128.667 23.1875 Q127.9482 23.1875 127.5264 23.6484 Q127.1045 24.1094 127.1045 24.9062 L127.1045 28 L126.1982 28 L126.1982 22.5312 L127.1045 22.5312 L127.1045 23.375 Q127.4326 22.8906 127.8701 22.6484 Q128.3076 22.4062 128.8701 22.4062 Q129.8076 22.4062 130.292 22.9844 Q130.7764 23.5625 130.7764 24.7031 ZM136.0518 22.6875 L136.0518 23.5469 Q135.6768 23.3438 135.2705 23.25 Q134.8643 23.1562 134.4111 23.1562 Q133.7549 23.1562 133.4189 23.3594 Q133.083 23.5625 133.083 23.9688 Q133.083 24.2812 133.3174 24.4609 Q133.5518 24.6406 134.2861 24.7969 L134.583 24.875 Q135.5518 25.0781 135.9502 25.4531 Q136.3486 25.8281 136.3486 26.4844 Q136.3486 27.25 135.7471 27.6953 Q135.1455 28.1406 134.0986 28.1406 Q133.6455 28.1406 133.1689 28.0547 Q132.6924 27.9688 132.1768 27.7969 L132.1768 26.875 Q132.6768 27.125 133.1533 27.2578 Q133.6299 27.3906 134.1143 27.3906 Q134.7393 27.3906 135.083 27.1719 Q135.4268 26.9531 135.4268 26.5625 Q135.4268 26.1875 135.1846 25.9922 Q134.9424 25.7969 134.0986 25.625 L133.7861 25.5469 Q132.958 25.375 132.583 25.0078 Q132.208 24.6406 132.208 24.0156 Q132.208 23.2344 132.7549 22.8203 Q133.3018 22.4062 134.3174 22.4062 Q134.8018 22.4062 135.2471 22.4766 Q135.6924 22.5469 136.0518 22.6875 Z"
         style="clip-path:url(#clipPath2); stroke:none;"
         clip-path="url(#clipPath2)"
         id="path203" />
    </g>
    <g
       style="fill:navy; text-rendering:geometricPrecision; font-size:8; stroke:navy;"
       id="g209">
      <text
         x="166"
         xml:space="preserve"
         y="16"
         style="clip-path:url(#clipPath4); stroke:none;"
         clip-path="url(#clipPath4)"
         id="text207">1</text>
    </g>
    <g
       style="fill:rgb(180,180,100); text-rendering:geometricPrecision; fill-opacity:0.098; stroke-opacity:0.098; stroke:rgb(180,180,100);"
       id="g213">
      <path
         d="M255.9048 303.0238 L625.1905 303.0238 L643.1905 321.0238 L643.1905 373.0238 L625.1905 391.0238 L255.9048 391.0238 L237.9048 373.0238 L237.9048 321.0238 Z"
         style="clip-path:url(#clipPath5); stroke:none;"
         clip-path="url(#clipPath5)"
         id="path211" />
    </g>
    <g
       style="fill:gray; text-rendering:geometricPrecision; stroke:gray;"
       id="g217">
      <path
         d="M255.9048 303.0238 L625.1905 303.0238 L643.1905 321.0238 L643.1905 373.0238 L625.1905 391.0238 L255.9048 391.0238 L237.9048 373.0238 L237.9048 321.0238 Z"
         style="fill:none; clip-path:url(#clipPath5);"
         clip-path="url(#clipPath5)"
         id="path215" />
    </g>
    <g
       style="text-rendering:geometricPrecision;"
       id="g223">
      <path
         d="M338.0952 583.5714 L610.0952 583.5714"
         style="fill:none; clip-path:url(#clipPath6);"
         clip-path="url(#clipPath6)"
         id="path219" />
      <path
         d="M610.0952 583.5714 L598.3953 578.3714 L598.3953 588.7714 Z"
         style="clip-path:url(#clipPath6); fill-rule:evenodd; stroke:none;"
         clip-path="url(#clipPath6)"
         id="path221" />
    </g>
    <g
       style="text-rendering:geometricPrecision;"
       id="g231">
      <path
         d="M450.0476 340.0238 L450.3014 358.0304"
         style="fill:none; clip-path:url(#clipPath7);"
         clip-path="url(#clipPath7)"
         id="path225" />
      <path
         d="M455.5009 357.9571 L450.4663 369.7292 L445.102 358.1037 Z"
         style="fill:white; clip-path:url(#clipPath7); stroke:none;"
         clip-path="url(#clipPath7)"
         id="path227" />
      <path
         d="M455.5009 357.9571 L450.4663 369.7292 L445.102 358.1037 Z"
         style="fill:none; clip-path:url(#clipPath7);"
         clip-path="url(#clipPath7)"
         id="path229" />
    </g>
    <g
       style="text-rendering:geometricPrecision;"
       id="g239">
      <path
         d="M294.9405 292.2024 L294.9088 348.0238"
         style="fill:none; clip-path:url(#clipPath8);"
         clip-path="url(#clipPath8)"
         id="path233" />
      <path
         d="M304.0087 348.029 L304.008 349.329 L284.508 349.3179 L284.5087 348.0179 L304.0087 348.029 Z"
         style="fill:white; clip-path:url(#clipPath8); stroke:none;"
         clip-path="url(#clipPath8)"
         id="path235" />
      <path
         d="M304.0087 348.029 L304.008 349.329 L284.508 349.3179 L284.5087 348.0179 L304.0087 348.029 Z"
         style="fill:none; clip-path:url(#clipPath8);"
         clip-path="url(#clipPath8)"
         id="path237" />
    </g>
    <g
       style="text-rendering:geometricPrecision;"
       id="g245">
      <path
         d="M542.1905 366.619 L339.9048 367.5238"
         style="fill:none; clip-path:url(#clipPath9);"
         clip-path="url(#clipPath9)"
         id="path241" />
      <path
         d="M339.9048 367.5238 L351.6279 372.6714 L345.1047 367.5005 L351.5814 362.2715 Z"
         style="clip-path:url(#clipPath9); stroke:none;"
         clip-path="url(#clipPath9)"
         id="path243" />
    </g>
    <g
       style="text-rendering:geometricPrecision;"
       id="g253">
      <path
         d="M294.4643 428.1548 L294.8224 389.0234"
         style="fill:none; clip-path:url(#clipPath10);"
         clip-path="url(#clipPath10)"
         id="path247" />
      <path
         d="M289.6226 388.9759 L294.9295 377.3239 L300.0222 389.071 Z"
         style="fill:white; clip-path:url(#clipPath10); stroke:none;"
         clip-path="url(#clipPath10)"
         id="path249" />
      <path
         d="M289.6226 388.9759 L294.9295 377.3239 L300.0222 389.071 Z"
         style="fill:none; clip-path:url(#clipPath10);"
         clip-path="url(#clipPath10)"
         id="path251" />
    </g>
    <g
       style="text-rendering:geometricPrecision;"
       id="g261">
      <path
         d="M674.1429 366.3333 L641.1902 366.5578"
         style="fill:none; clip-path:url(#clipPath11);"
         clip-path="url(#clipPath11)"
         id="path255" />
      <path
         d="M641.2257 371.7576 L629.4905 366.6374 L641.1548 361.3579 Z"
         style="fill:white; clip-path:url(#clipPath11); stroke:none;"
         clip-path="url(#clipPath11)"
         id="path257" />
      <path
         d="M641.2257 371.7576 L629.4905 366.6374 L641.1548 361.3579 Z"
         style="fill:none; clip-path:url(#clipPath11);"
         clip-path="url(#clipPath11)"
         id="path259" />
    </g>
    <g
       style="fill:navy; text-rendering:geometricPrecision; font-size:8; stroke:navy;"
       id="g265">
      <text
         x="637"
         xml:space="preserve"
         y="363"
         style="clip-path:url(#clipPath13); stroke:none;"
         clip-path="url(#clipPath13)"
         id="text263">3</text>
    </g>
    <g
       style="text-rendering:geometricPrecision;"
       id="g273">
      <path
         d="M540.4167 277.3214 L493.7262 277.4456"
         style="fill:none; clip-path:url(#clipPath14);"
         clip-path="url(#clipPath14)"
         id="path267" />
      <path
         d="M493.7504 286.5456 L492.4504 286.5491 L492.3985 267.0492 L493.6985 267.0457 L493.7504 286.5456 Z"
         style="fill:white; clip-path:url(#clipPath14); stroke:none;"
         clip-path="url(#clipPath14)"
         id="path269" />
      <path
         d="M493.7504 286.5456 L492.4504 286.5491 L492.3985 267.0492 L493.6985 267.0457 L493.7504 286.5456 Z"
         style="fill:none; clip-path:url(#clipPath14);"
         clip-path="url(#clipPath14)"
         id="path271" />
    </g>
    <g
       style="text-rendering:geometricPrecision;"
       id="g281">
      <path
         d="M294.2381 519.3571 L294.2381 507.6429"
         style="fill:none; clip-path:url(#clipPath15);"
         clip-path="url(#clipPath15)"
         id="path275" />
      <path
         d="M289.0381 507.6429 L294.2381 495.9429 L299.4381 507.6429 Z"
         style="fill:white; clip-path:url(#clipPath15); stroke:none;"
         clip-path="url(#clipPath15)"
         id="path277" />
      <path
         d="M289.0381 507.6429 L294.2381 495.9429 L299.4381 507.6429 Z"
         style="fill:none; clip-path:url(#clipPath15);"
         clip-path="url(#clipPath15)"
         id="path279" />
    </g>
    <g
       style="text-rendering:geometricPrecision;"
       id="g289">
      <path
         d="M816.8571 275.6667 L637.4164 277.2593"
         style="fill:none; clip-path:url(#clipPath16);"
         clip-path="url(#clipPath16)"
         id="path283" />
      <path
         d="M637.4971 286.3589 L636.1972 286.3705 L636.0242 266.8712 L637.3241 266.8597 L637.4971 286.3589 Z"
         style="fill:white; clip-path:url(#clipPath16); stroke:none;"
         clip-path="url(#clipPath16)"
         id="path285" />
      <path
         d="M637.4971 286.3589 L636.1972 286.3705 L636.0242 266.8712 L637.3241 266.8597 L637.4971 286.3589 Z"
         style="fill:none; clip-path:url(#clipPath16);"
         clip-path="url(#clipPath16)"
         id="path287" />
    </g>
    <g
       style="text-rendering:geometricPrecision;"
       id="g295">
      <path
         d="M296.5952 134.7143 L296.5952 114.7143 M296.5952 114.7143 L229.4643 114.7143 M229.4643 114.7143 L229.4643 168.75 M229.4643 168.75 L249.4643 168.75"
         style="fill:none; clip-path:url(#clipPath17);"
         clip-path="url(#clipPath17)"
         id="path291" />
      <path
         d="M296.5952 134.7143 L301.7952 123.0143 L291.3952 123.0143 Z"
         style="clip-path:url(#clipPath17); fill-rule:evenodd; stroke:none;"
         clip-path="url(#clipPath17)"
         id="path293" />
    </g>
    <g
       style="text-rendering:geometricPrecision;"
       id="g303">
      <path
         d="M682.1429 391.3333 L348.3725 439.3726"
         style="fill:none; clip-path:url(#clipPath18);"
         clip-path="url(#clipPath18)"
         id="path297" />
      <path
         d="M349.1133 444.5196 L336.7918 441.0394 L347.6317 434.2256 Z"
         style="fill:white; clip-path:url(#clipPath18); stroke:none;"
         clip-path="url(#clipPath18)"
         id="path299" />
      <path
         d="M349.1133 444.5196 L336.7918 441.0394 L347.6317 434.2256 Z"
         style="fill:none; clip-path:url(#clipPath18);"
         clip-path="url(#clipPath18)"
         id="path301" />
    </g>
    <g
       style="text-rendering:geometricPrecision;"
       id="g311">
      <path
         d="M141.1429 367.0952 L231.0437 348.9116"
         style="fill:none; clip-path:url(#clipPath19);"
         clip-path="url(#clipPath19)"
         id="path305" />
      <path
         d="M229.2396 339.9922 L230.5138 339.7344 L234.3797 358.8474 L233.1055 359.1051 L229.2396 339.9922 Z"
         style="fill:white; clip-path:url(#clipPath19); stroke:none;"
         clip-path="url(#clipPath19)"
         id="path307" />
      <path
         d="M229.2396 339.9922 L230.5138 339.7344 L234.3797 358.8474 L233.1055 359.1051 L229.2396 339.9922 Z"
         style="fill:none; clip-path:url(#clipPath19);"
         clip-path="url(#clipPath19)"
         id="path309" />
    </g>
    <g
       style="text-rendering:geometricPrecision;"
       id="g319">
      <path
         d="M294.2381 245.3095 L294.716 260.206"
         style="fill:none; clip-path:url(#clipPath20);"
         clip-path="url(#clipPath20)"
         id="path313" />
      <path
         d="M303.8113 259.9142 L303.853 261.2135 L284.363 261.8388 L284.3214 260.5395 L303.8113 259.9142 Z"
         style="fill:white; clip-path:url(#clipPath20); stroke:none;"
         clip-path="url(#clipPath20)"
         id="path315" />
      <path
         d="M303.8113 259.9142 L303.853 261.2135 L284.363 261.8388 L284.3214 260.5395 L303.8113 259.9142 Z"
         style="fill:none; clip-path:url(#clipPath20);"
         clip-path="url(#clipPath20)"
         id="path317" />
    </g>
    <g
       style="text-rendering:geometricPrecision;"
       id="g325">
      <path
         d="M141.1429 367.0952 L249.9048 367.5238"
         style="fill:none; clip-path:url(#clipPath21);"
         clip-path="url(#clipPath21)"
         id="path321" />
      <path
         d="M249.9048 367.5238 L238.2253 362.2777 L244.7048 367.5033 L238.1844 372.6777 Z"
         style="clip-path:url(#clipPath21); stroke:none;"
         clip-path="url(#clipPath21)"
         id="path323" />
    </g>
    <g
       style="text-rendering:geometricPrecision;"
       id="g333">
      <path
         d="M294.2381 473.6429 L294.3649 462.1542"
         style="fill:none; clip-path:url(#clipPath22);"
         clip-path="url(#clipPath22)"
         id="path327" />
      <path
         d="M289.1653 462.0968 L294.4941 450.4549 L299.5646 462.2116 Z"
         style="fill:white; clip-path:url(#clipPath22); stroke:none;"
         clip-path="url(#clipPath22)"
         id="path329" />
      <path
         d="M289.1653 462.0968 L294.4941 450.4549 L299.5646 462.2116 Z"
         style="fill:none; clip-path:url(#clipPath22);"
         clip-path="url(#clipPath22)"
         id="path331" />
    </g>
    <g
       style="text-rendering:geometricPrecision;"
       id="g341">
      <path
         d="M441.7262 264.9643 L344.9902 356.4636"
         style="fill:none; clip-path:url(#clipPath23);"
         clip-path="url(#clipPath23)"
         id="path335" />
      <path
         d="M351.2435 363.0747 L350.299 363.9681 L336.8992 349.8014 L337.8437 348.9081 L351.2435 363.0747 Z"
         style="fill:white; clip-path:url(#clipPath23); stroke:none;"
         clip-path="url(#clipPath23)"
         id="path337" />
      <path
         d="M351.2435 363.0747 L350.299 363.9681 L336.8992 349.8014 L337.8437 348.9081 L351.2435 363.0747 Z"
         style="fill:none; clip-path:url(#clipPath23);"
         clip-path="url(#clipPath23)"
         id="path339" />
    </g>
    <g
       style="text-rendering:geometricPrecision;"
       id="g349">
      <path
         d="M655.0952 488.0714 L655.0952 461.0714"
         style="fill:none; clip-path:url(#clipPath24);"
         clip-path="url(#clipPath24)"
         id="path343" />
      <path
         d="M645.9952 461.0714 L645.9952 459.7714 L665.4952 459.7714 L665.4952 461.0714 L645.9952 461.0714 Z"
         style="fill:white; clip-path:url(#clipPath24); stroke:none;"
         clip-path="url(#clipPath24)"
         id="path345" />
      <path
         d="M645.9952 461.0714 L645.9952 459.7714 L665.4952 459.7714 L665.4952 461.0714 L645.9952 461.0714 Z"
         style="fill:none; clip-path:url(#clipPath24);"
         clip-path="url(#clipPath24)"
         id="path347" />
    </g>
    <g
       style="text-rendering:geometricPrecision;"
       id="g357">
      <path
         d="M861.8571 235.4524 L861.8571 254.1667"
         style="fill:none; clip-path:url(#clipPath25);"
         clip-path="url(#clipPath25)"
         id="path351" />
      <path
         d="M867.0571 254.1667 L861.8571 265.8667 L856.6572 254.1667 Z"
         style="fill:white; clip-path:url(#clipPath25); stroke:none;"
         clip-path="url(#clipPath25)"
         id="path353" />
      <path
         d="M867.0571 254.1667 L861.8571 265.8667 L856.6572 254.1667 Z"
         style="fill:none; clip-path:url(#clipPath25);"
         clip-path="url(#clipPath25)"
         id="path355" />
    </g>
    <g
       style="fill:silver; text-rendering:geometricPrecision; stroke:silver;"
       id="g361">
      <path
         d="M212.0952 143.2143 L212.0952 143.2143 L212.0952 143.2143 L213.5952 143.2143 L213.5952 144.7143 L213.5952 631.5714 L213.5952 633.0714 L212.0952 633.0714 L209.0952 633.0714 L209.0952 631.5714 L209.0952 630.0714 L212.0952 630.0714 L213.5952 630.0714 L213.5952 631.5714 C213.5952 634.6088 216.0576 637.0714 219.0952 637.0714 L220.5952 637.0714 L220.5952 638.5714 L220.5952 641.5714 L219.0952 641.5714 L217.5952 641.5714 L217.5952 638.5714 L217.5952 637.0714 L219.0952 637.0714 L374.0952 637.0714 L375.5952 637.0714 L375.5952 638.5714 L375.5952 641.5714 L374.0952 641.5714 L372.5952 641.5714 L372.5952 638.5714 L372.5952 637.0714 L374.0952 637.0714 C377.1328 637.0714 379.5952 634.6088 379.5952 631.5714 L379.5952 630.0714 L381.0952 630.0714 L384.0952 630.0714 L384.0952 631.5714 L384.0952 633.0714 L381.0952 633.0714 L379.5952 633.0714 L379.5952 631.5714 L379.5952 144.7143 L379.5952 143.2143 L381.0952 143.2143 L384.0952 143.2143 L384.0952 144.7143 L384.0952 146.2143 L381.0952 146.2143 L379.5952 146.2143 L379.5952 144.7143 C379.5952 141.6767 377.1328 139.2143 374.0952 139.2143 L372.5952 139.2143 L372.5952 137.7143 L372.5952 134.7143 L374.0952 134.7143 L375.5952 134.7143 L375.5952 137.7143 L375.5952 139.2143 L374.0952 139.2143 L219.0952 139.2143 L217.5952 139.2143 L217.5952 137.7143 L217.5952 134.7143 L219.0952 134.7143 L220.5952 134.7143 L220.5952 137.7143 L220.5952 139.2143 L219.0952 139.2143 C216.0576 139.2143 213.5952 141.6767 213.5952 144.7143 L213.5952 146.2143 L212.0952 146.2143 L209.0952 146.2143 L209.0952 144.7143 L209.0952 143.2143 L212.0952 143.2143 L213.5952 143.2143 L213.5952 146.2143 L212.0952 146.2143 L209.0952 146.2143 L209.0952 143.2143 L212.0952 143.2143 L212.0952 144.7143 L210.5952 144.7143 C210.5952 140.0198 214.4007 136.2143 219.0952 136.2143 L219.0952 137.7143 L217.5952 137.7143 L217.5952 134.7143 L220.5952 134.7143 L220.5952 137.7143 L219.0952 137.7143 L219.0952 136.2143 L374.0952 136.2143 L374.0952 137.7143 L372.5952 137.7143 L372.5952 134.7143 L375.5952 134.7143 L375.5952 137.7143 L374.0952 137.7143 L374.0952 136.2143 C378.7896 136.2143 382.5952 140.0199 382.5952 144.7143 L381.0952 144.7143 L381.0952 143.2143 L384.0952 143.2143 L384.0952 146.2143 L381.0952 146.2143 L381.0952 144.7143 L382.5952 144.7143 L382.5952 631.5714 L381.0952 631.5714 L381.0952 630.0714 L384.0952 630.0714 L384.0952 633.0714 L381.0952 633.0714 L381.0952 631.5714 L382.5952 631.5714 C382.5952 636.2657 378.7896 640.0714 374.0952 640.0714 L374.0952 638.5714 L375.5952 638.5714 L375.5952 641.5714 L372.5952 641.5714 L372.5952 638.5714 L374.0952 638.5714 L374.0952 640.0714 L219.0952 640.0714 L219.0952 638.5714 L220.5952 638.5714 L220.5952 641.5714 L217.5952 641.5714 L217.5952 638.5714 L219.0952 638.5714 L219.0952 640.0714 C214.4007 640.0714 210.5952 636.2657 210.5952 631.5714 L212.0952 631.5714 L212.0952 633.0714 L209.0952 633.0714 L209.0952 630.0714 L212.0952 630.0714 L212.0952 631.5714 L210.5952 631.5714 L210.5952 144.7143 L212.0952 144.7143 L212.0952 146.2143 L212.0952 146.2143 L210.5952 146.2143 L210.5952 143.2143 ZM206.0952 143.2143 L206.0952 143.2143 L206.0952 143.2143 L206.0952 144.7143 L204.5952 144.7143 C204.5952 136.7061 211.0871 130.2143 219.0952 130.2143 L219.0952 131.7143 L219.0952 130.2143 L219.0952 130.2143 L219.0952 131.7143 L219.0952 130.2143 L374.0952 130.2143 L374.0952 131.7143 L374.0952 130.2143 L374.0952 130.2143 L374.0952 131.7143 L374.0952 130.2143 C382.1034 130.2143 388.5952 136.7061 388.5952 144.7143 L387.0952 144.7143 L387.0952 143.2143 L387.0952 143.2143 L388.5952 143.2143 L388.5952 144.7143 L388.5952 631.5714 L387.0952 631.5714 L387.0952 630.0714 L387.0952 630.0714 L388.5952 630.0714 L388.5952 631.5714 C388.5952 639.5797 382.1032 646.0714 374.0952 646.0714 L374.0952 644.5714 L374.0952 643.0714 L374.0952 643.0714 L374.0952 644.5714 L374.0952 646.0714 L219.0952 646.0714 L219.0952 644.5714 L219.0952 643.0714 L219.0952 643.0714 L219.0952 644.5714 L219.0952 646.0714 C211.0871 646.0714 204.5952 639.5795 204.5952 631.5714 L204.5952 630.0714 L206.0952 630.0714 L206.0952 630.0714 L206.0952 631.5714 L204.5952 631.5714 L204.5952 144.7143 L204.5952 143.2143 L206.0952 143.2143 M206.0952 146.2143 L206.0952 144.7143 L207.5952 144.7143 L207.5952 631.5714 L207.5952 633.0714 L206.0952 633.0714 L206.0952 633.0714 L206.0952 631.5714 L207.5952 631.5714 C207.5952 637.9227 212.744 643.0714 219.0952 643.0714 L219.0952 646.0714 L219.0952 646.0714 L219.0952 643.0714 L374.0952 643.0714 L374.0952 646.0714 L374.0952 646.0714 L374.0952 643.0714 C380.4464 643.0714 385.5952 637.9228 385.5952 631.5714 L387.0952 631.5714 L387.0952 633.0714 L387.0952 633.0714 L385.5952 633.0714 L385.5952 631.5714 L385.5952 144.7143 L387.0952 144.7143 L387.0952 146.2143 L387.0952 146.2143 L385.5952 146.2143 L385.5952 144.7143 C385.5952 138.363 380.4466 133.2143 374.0952 133.2143 L374.0952 133.2143 L374.0952 133.2143 L374.0952 133.2143 L219.0952 133.2143 L219.0952 133.2143 L219.0952 133.2143 L219.0952 133.2143 C212.7439 133.2143 207.5952 138.363 207.5952 144.7143 L207.5952 146.2143 L206.0952 146.2143 L206.0952 146.2143 Z"
         style="clip-path:url(#clipPath26); stroke:none;"
         clip-path="url(#clipPath26)"
         id="path359" />
    </g>
    <g
       style="fill:silver; text-rendering:geometricPrecision; stroke:silver;"
       id="g365">
      <path
         d="M782.556 152.7676 L782.556 152.7676 L782.556 152.7676 L782.5597 155.7676 L522.5463 156.4128 L522.5426 154.9128 L522.5426 153.4128 L522.5426 153.4128 L522.5426 154.9128 L522.5426 153.4128 L522.5426 153.4128 L522.5463 156.4128 C519.5088 156.4203 517.0525 158.8887 517.06 161.9264 L517.0637 163.4264 L515.5637 163.4301 L512.5637 163.4375 L512.5563 160.4375 L515.5563 160.4301 L517.0563 160.4264 L517.06 161.9264 L518.2124 626.3354 L516.7124 626.3391 L516.7124 624.8391 L516.7124 624.8391 L516.7124 626.3391 L516.7124 624.8391 L516.7124 624.8391 L518.2087 624.8391 L518.2124 626.3354 C518.2199 629.3729 520.6885 631.8292 523.726 631.8217 L525.226 631.818 L525.2297 633.318 L525.2372 636.318 L523.7372 636.3217 L522.2372 636.3254 L522.2297 633.3254 L522.226 631.8254 L523.726 631.8217 L783.7394 631.1765 L785.2394 631.1728 L785.2431 632.6728 L785.2505 635.6728 L783.7505 635.6765 L782.2505 635.6802 L782.2431 632.6802 L782.2394 631.1802 L783.7394 631.1765 C786.7769 631.169 789.2333 628.7004 789.2257 625.6629 L792.2257 625.6523 L792.2258 625.6658 L790.7258 625.6726 L789.2258 625.6794 L789.2257 625.666 L789.2257 625.6697 L789.2257 625.6629 L788.0733 161.2539 L788.0696 159.7502 L789.5733 159.7502 L789.5733 159.7502 L789.5733 161.2502 L788.0733 161.2502 L788.0733 161.2502 L789.5733 161.2502 L788.0733 161.2539 C788.0658 158.2164 785.5972 155.76 782.5597 155.7676 L781.0597 155.7713 L781.056 154.2713 L781.0485 151.2713 L782.5485 151.2676 L784.0485 151.2639 L784.056 154.2638 L784.0597 155.7638 L781.0597 155.7713 L781.056 154.2713 L781.0485 151.2713 L784.0485 151.2639 L784.056 154.2638 L782.556 154.2676 L782.5522 152.7676 C787.2468 152.7559 791.0616 156.5521 791.0733 161.2464 L791.0733 161.2464 L791.0733 161.2502 L791.0733 161.2502 L791.0733 162.7502 L789.5733 162.7502 L789.5733 162.7502 L789.5733 161.2502 L791.0733 161.2465 L792.2257 625.6555 L790.7257 625.6592 L792.2257 625.6523 L792.2258 625.6658 L789.2258 625.6794 L789.2257 625.666 L790.7257 625.6592 L792.2257 625.6555 C792.2374 630.35 788.4412 634.1649 783.7468 634.1765 L783.7431 632.6765 L785.2431 632.6728 L785.2505 635.6728 L782.2505 635.6802 L782.2431 632.6802 L783.7431 632.6765 L783.7468 634.1765 L523.7335 634.8217 L523.7297 633.3217 L525.2297 633.318 L525.2372 636.318 L522.2372 636.3254 L522.2297 633.3254 L523.7297 633.3217 L523.7335 634.8217 C519.0391 634.8334 515.2241 631.0372 515.2124 626.3428 L516.7124 626.3391 L516.7124 627.8391 L516.7124 627.8391 L516.7124 627.8391 L516.7124 627.8391 L515.2161 627.8391 L515.2124 626.3428 L514.06 161.9338 L515.56 161.9301 L515.5637 163.4301 L512.5637 163.4375 L512.56 161.9375 L512.5563 160.4375 L515.5563 160.4301 L515.56 161.9301 L514.06 161.9338 C514.0483 157.2393 517.8445 153.4244 522.5389 153.4128 L522.5426 154.9128 L522.5426 156.4128 L522.5426 156.4128 L522.5426 156.4128 L522.5426 156.4128 L522.5389 153.4128 L782.5522 152.7676 L782.556 154.2676 L782.556 155.7676 L782.556 155.7676 L781.056 155.7676 L781.056 152.7676 ZM782.5448 149.7676 L782.5448 149.7676 L782.4896 149.7677 L782.4859 148.2677 L782.4822 146.7677 L782.5374 146.7676 L782.5376 146.7676 L782.5374 146.7676 C790.5455 146.7477 797.0535 153.2234 797.0733 161.2316 L797.077 162.7316 L795.577 162.7353 L792.577 162.7427 L792.5696 159.7427 L795.5696 159.7353 L797.0696 159.7316 L797.0733 161.2316 L798.2257 625.6406 L798.2294 627.1405 L796.7294 627.1443 L793.7294 627.1517 L793.7257 625.6517 L793.722 624.1517 L796.722 624.1443 L798.222 624.1406 L798.2257 625.6406 C798.2457 633.649 791.7696 640.1566 783.7617 640.1765 L783.758 638.6765 L783.758 637.1765 L783.758 637.1765 L783.758 638.6765 L783.758 637.1765 L783.758 637.1765 L783.7617 640.1765 L523.7484 640.8217 L523.7484 640.8217 L523.7446 640.8217 L523.7421 640.8217 L523.7421 639.3217 L523.7421 637.8217 L523.7446 637.8217 L523.7484 640.8217 C515.7402 640.8416 509.2322 634.3659 509.2124 626.3577 L509.2087 624.8577 L510.7087 624.854 L513.7087 624.8466 L513.7124 626.3466 L513.7161 627.8466 L510.7161 627.854 L509.2161 627.8577 L509.2124 626.3577 L508.06 161.9487 L509.56 161.945 L511.06 161.945 L511.06 161.9476 L509.56 161.9476 L508.06 161.9476 L508.06 161.945 L509.56 161.945 L508.06 161.9487 C508.0402 153.9406 514.5158 147.4326 522.524 147.4128 L524.024 147.4091 L524.0277 148.9091 L524.0352 151.909 L522.5352 151.9128 L521.0352 151.9165 L521.0277 148.9165 L521.024 147.4165 L522.524 147.4128 L782.5374 146.7676 L782.5448 149.7676 M782.5374 146.7676 L782.5411 148.2676 L782.5448 149.7676 L522.5314 150.4128 L522.5277 148.9128 L524.0277 148.9091 L524.0352 151.909 L521.0352 151.9165 L521.0277 148.9165 L522.5277 148.9128 L522.5314 150.4128 C516.1801 150.4285 511.0443 155.59 511.06 161.9413 L511.06 161.9413 L511.06 161.945 L511.06 161.9476 L508.06 161.9476 L508.06 161.945 L511.06 161.9413 L512.2124 626.3503 L510.7124 626.354 L510.7087 624.854 L513.7087 624.8466 L513.7161 627.8466 L510.7161 627.854 L510.7124 626.354 L512.2124 626.3503 C512.2281 632.7016 517.3895 637.8374 523.7409 637.8217 L523.7446 639.3217 L523.7446 640.8217 L523.7421 640.8217 L523.7421 637.8217 L523.7446 637.8217 L523.7446 639.3217 L523.7409 637.8217 L783.7543 637.1765 L783.758 638.6765 L783.758 640.1765 L783.758 640.1765 L783.758 640.1765 L783.758 640.1765 L783.7543 637.1765 C790.1053 637.1608 795.2415 631.9995 795.2257 625.648 L796.7257 625.6443 L796.7294 627.1443 L793.7294 627.1517 L793.722 624.1517 L796.722 624.1443 L796.7257 625.6443 L795.2257 625.648 L794.0733 161.239 L795.5733 161.2353 L795.577 162.7353 L792.577 162.7427 L792.5733 161.2427 L792.5696 159.7427 L795.5696 159.7353 L795.5733 161.2353 L794.0733 161.239 C794.0576 154.8878 788.8962 149.7518 782.5448 149.7676 L782.5411 148.2676 L782.5448 149.7676 L782.4896 149.7677 L782.4822 146.7677 L782.5374 146.7676 Z"
         style="clip-path:url(#clipPath27); stroke:none;"
         clip-path="url(#clipPath27)"
         id="path363" />
    </g>
    <g
       style="text-rendering:geometricPrecision;"
       id="g369">
      <path
         d="M542.5952 414.0714 L772.0952 414.0714 L772.0952 625.5714 L542.5952 625.5714 L542.5952 414.0714 Z"
         style="fill:none; clip-path:url(#clipPath28);"
         clip-path="url(#clipPath28)"
         id="path367" />
    </g>
    <g
       style="font-size:11; text-rendering:geometricPrecision;"
       id="g373">
      <text
         x="429"
         xml:space="preserve"
         y="579"
         style="clip-path:url(#clipPath29); stroke:none;"
         clip-path="url(#clipPath29)"
         id="text371">Repulsion</text>
    </g>
    <g
       style="font-size:11; text-rendering:geometricPrecision;"
       id="g377">
      <text
         x="629"
         xml:space="preserve"
         y="176"
         style="clip-path:url(#clipPath30); stroke:none;"
         clip-path="url(#clipPath30)"
         id="text375">Metanephric mesenchyme</text>
    </g>
    <g
       style="font-size:11; text-rendering:geometricPrecision;"
       id="g381">
      <text
         x="221"
         xml:space="preserve"
         y="108"
         style="clip-path:url(#clipPath31); stroke:none;"
         clip-path="url(#clipPath31)"
         id="text379">Maintenance</text>
    </g>
    <g
       style="font-size:11; text-rendering:geometricPrecision;"
       id="g385">
      <text
         x="673"
         xml:space="preserve"
         y="621"
         style="clip-path:url(#clipPath32); stroke:none;"
         clip-path="url(#clipPath32)"
         id="text383">Nephrogenic cord</text>
    </g>
    <g
       style="font-size:11; text-rendering:geometricPrecision;"
       id="g389">
      <text
         x="300"
         xml:space="preserve"
         y="627"
         style="clip-path:url(#clipPath33); stroke:none;"
         clip-path="url(#clipPath33)"
         id="text387">Nephric duct</text>
    </g>
    <g
       style="fill:white; text-rendering:geometricPrecision; stroke:white;"
       id="g397">
      <path
         d="M249.9048 355.0238 L339.9048 355.0238 L339.9048 380.0238 L249.9048 380.0238 L249.9048 355.0238 Z"
         style="clip-path:url(#clipPath34); stroke:none;"
         clip-path="url(#clipPath34)"
         id="path391" />
      <path
         d="M249.9048 355.0238 L339.9048 355.0238 L339.9048 380.0238 L249.9048 380.0238 L249.9048 355.0238 Z"
         style="fill:none; clip-path:url(#clipPath34); stroke:black;"
         clip-path="url(#clipPath34)"
         id="path393" />
      <text
         x="283"
         y="372"
         style="fill:black; clip-path:url(#clipPath34); stroke:none;"
         xml:space="preserve"
         clip-path="url(#clipPath34)"
         id="text395">RET</text>
    </g>
    <g
       style="fill:white; text-rendering:geometricPrecision; stroke:white;"
       id="g405">
      <path
         d="M405.0476 315.0238 L495.0476 315.0238 L495.0476 340.0238 L405.0476 340.0238 L405.0476 315.0238 Z"
         style="clip-path:url(#clipPath35); stroke:none;"
         clip-path="url(#clipPath35)"
         id="path399" />
      <path
         d="M405.0476 315.0238 L495.0476 315.0238 L495.0476 340.0238 L405.0476 340.0238 L405.0476 315.0238 Z"
         style="fill:none; clip-path:url(#clipPath35); stroke:black;"
         clip-path="url(#clipPath35)"
         id="path401" />
      <text
         x="430"
         y="332"
         style="fill:black; clip-path:url(#clipPath35); stroke:none;"
         xml:space="preserve"
         clip-path="url(#clipPath35)"
         id="text403">GFRA1</text>
    </g>
    <g
       style="fill:white; text-rendering:geometricPrecision; stroke:white;"
       id="g413">
      <path
         d="M249.9405 267.2024 L339.9405 267.2024 L339.9405 292.2024 L249.9405 292.2024 L249.9405 267.2024 Z"
         style="clip-path:url(#clipPath36); stroke:none;"
         clip-path="url(#clipPath36)"
         id="path407" />
      <path
         d="M249.9405 267.2024 L339.9405 267.2024 L339.9405 292.2024 L249.9405 292.2024 L249.9405 267.2024 Z"
         style="fill:none; clip-path:url(#clipPath36); stroke:black;"
         clip-path="url(#clipPath36)"
         id="path409" />
      <text
         x="275"
         y="284"
         style="fill:black; clip-path:url(#clipPath36); stroke:none;"
         xml:space="preserve"
         clip-path="url(#clipPath36)"
         id="text411">SPRY1</text>
    </g>
    <g
       style="fill:white; text-rendering:geometricPrecision; stroke:white;"
       id="g421">
      <path
         d="M610.0952 521.0714 L700.0952 521.0714 L700.0952 546.0714 L610.0952 546.0714 L610.0952 521.0714 Z"
         style="clip-path:url(#clipPath37); stroke:none;"
         clip-path="url(#clipPath37)"
         id="path415" />
      <path
         d="M610.0952 521.0714 L700.0952 521.0714 L700.0952 546.0714 L610.0952 546.0714 L610.0952 521.0714 Z"
         style="fill:none; clip-path:url(#clipPath37); stroke:black;"
         clip-path="url(#clipPath37)"
         id="path417" />
      <text
         x="635"
         y="538"
         style="fill:black; clip-path:url(#clipPath37); stroke:none;"
         xml:space="preserve"
         clip-path="url(#clipPath37)"
         id="text419">FOXC1</text>
    </g>
    <g
       style="fill:white; text-rendering:geometricPrecision; stroke:white;"
       id="g429">
      <path
         d="M249.2381 519.3571 L339.2381 519.3571 L339.2381 544.3571 L249.2381 544.3571 L249.2381 519.3571 Z"
         style="clip-path:url(#clipPath38); stroke:none;"
         clip-path="url(#clipPath38)"
         id="path423" />
      <path
         d="M249.2381 519.3571 L339.2381 519.3571 L339.2381 544.3571 L249.2381 544.3571 L249.2381 519.3571 Z"
         style="fill:none; clip-path:url(#clipPath38); stroke:black;"
         clip-path="url(#clipPath38)"
         id="path425" />
      <text
         x="274"
         y="536"
         style="fill:black; clip-path:url(#clipPath38); stroke:none;"
         xml:space="preserve"
         clip-path="url(#clipPath38)"
         id="text427">SOX17</text>
    </g>
    <g
       style="fill:white; text-rendering:geometricPrecision; stroke:white;"
       id="g437">
      <path
         d="M682.1429 353.8333 L772.1429 353.8333 L772.1429 378.8333 L682.1429 378.8333 L682.1429 353.8333 Z"
         style="clip-path:url(#clipPath39); stroke:none;"
         clip-path="url(#clipPath39)"
         id="path431" />
      <path
         d="M682.1429 353.8333 L772.1429 353.8333 L772.1429 378.8333 L682.1429 378.8333 L682.1429 353.8333 Z"
         style="fill:none; clip-path:url(#clipPath39); stroke:black;"
         clip-path="url(#clipPath39)"
         id="path433" />
      <text
         x="712"
         y="370"
         style="fill:black; clip-path:url(#clipPath39); stroke:none;"
         xml:space="preserve"
         clip-path="url(#clipPath39)"
         id="text435">EYA1</text>
    </g>
    <g
       style="fill:white; text-rendering:geometricPrecision; stroke:white;"
       id="g445">
      <path
         d="M610.0952 496.0714 L700.0952 496.0714 L700.0952 521.0714 L610.0952 521.0714 L610.0952 496.0714 Z"
         style="clip-path:url(#clipPath40); stroke:none;"
         clip-path="url(#clipPath40)"
         id="path439" />
      <path
         d="M610.0952 496.0714 L700.0952 496.0714 L700.0952 521.0714 L610.0952 521.0714 L610.0952 496.0714 Z"
         style="fill:none; clip-path:url(#clipPath40); stroke:black;"
         clip-path="url(#clipPath40)"
         id="path441" />
      <text
         x="635"
         y="513"
         style="fill:black; clip-path:url(#clipPath40); stroke:none;"
         xml:space="preserve"
         clip-path="url(#clipPath40)"
         id="text443">SOX11</text>
    </g>
    <g
       style="fill:navy; text-rendering:geometricPrecision; font-size:8; stroke:navy;"
       id="g449">
      <text
         x="764"
         xml:space="preserve"
         y="351"
         style="clip-path:url(#clipPath42); stroke:none;"
         clip-path="url(#clipPath42)"
         id="text447">2, 5</text>
    </g>
    <g
       style="fill:white; text-rendering:geometricPrecision; stroke:white;"
       id="g457">
      <path
         d="M682.1429 378.8333 L772.1429 378.8333 L772.1429 403.8333 L682.1429 403.8333 L682.1429 378.8333 Z"
         style="clip-path:url(#clipPath43); stroke:none;"
         clip-path="url(#clipPath43)"
         id="path451" />
      <path
         d="M682.1429 378.8333 L772.1429 378.8333 L772.1429 403.8333 L682.1429 403.8333 L682.1429 378.8333 Z"
         style="fill:none; clip-path:url(#clipPath43); stroke:black;"
         clip-path="url(#clipPath43)"
         id="path453" />
      <text
         x="712"
         y="395"
         style="fill:black; clip-path:url(#clipPath43); stroke:none;"
         xml:space="preserve"
         clip-path="url(#clipPath43)"
         id="text455">PAX2</text>
    </g>
    <g
       style="fill:navy; text-rendering:geometricPrecision; font-size:8; stroke:navy;"
       id="g461">
      <text
         x="769"
         xml:space="preserve"
         y="376"
         style="clip-path:url(#clipPath45); stroke:none;"
         clip-path="url(#clipPath45)"
         id="text459">2</text>
    </g>
    <g
       style="fill:white; text-rendering:geometricPrecision; stroke:white;"
       id="g469">
      <path
         d="M682.1429 328.8333 L772.1429 328.8333 L772.1429 353.8333 L682.1429 353.8333 L682.1429 328.8333 Z"
         style="clip-path:url(#clipPath46); stroke:none;"
         clip-path="url(#clipPath46)"
         id="path463" />
      <path
         d="M682.1429 328.8333 L772.1429 328.8333 L772.1429 353.8333 L682.1429 353.8333 L682.1429 328.8333 Z"
         style="fill:none; clip-path:url(#clipPath46); stroke:black;"
         clip-path="url(#clipPath46)"
         id="path465" />
      <text
         x="709"
         y="345"
         style="fill:black; clip-path:url(#clipPath46); stroke:none;"
         xml:space="preserve"
         clip-path="url(#clipPath46)"
         id="text467">SALL1</text>
    </g>
    <g
       style="fill:navy; text-rendering:geometricPrecision; font-size:8; stroke:navy;"
       id="g473">
      <text
         x="764"
         xml:space="preserve"
         y="326"
         style="clip-path:url(#clipPath48); stroke:none;"
         clip-path="url(#clipPath48)"
         id="text471">2, 4</text>
    </g>
    <g
       style="fill:white; text-rendering:geometricPrecision; stroke:white;"
       id="g481">
      <path
         d="M249.2381 220.3095 L339.2381 220.3095 L339.2381 245.3095 L249.2381 245.3095 L249.2381 220.3095 Z"
         style="clip-path:url(#clipPath49); stroke:none;"
         clip-path="url(#clipPath49)"
         id="path475" />
      <path
         d="M249.2381 220.3095 L339.2381 220.3095 L339.2381 245.3095 L249.2381 245.3095 L249.2381 220.3095 Z"
         style="fill:none; clip-path:url(#clipPath49); stroke:black;"
         clip-path="url(#clipPath49)"
         id="path477" />
      <text
         x="274"
         y="237"
         style="fill:black; clip-path:url(#clipPath49); stroke:none;"
         xml:space="preserve"
         clip-path="url(#clipPath49)"
         id="text479">AGTR2</text>
    </g>
    <g
       style="fill:white; text-rendering:geometricPrecision; stroke:white;"
       id="g489">
      <path
         d="M610.0952 546.0714 L700.0952 546.0714 L700.0952 571.0714 L610.0952 571.0714 L610.0952 546.0714 Z"
         style="clip-path:url(#clipPath50); stroke:none;"
         clip-path="url(#clipPath50)"
         id="path483" />
      <path
         d="M610.0952 546.0714 L700.0952 546.0714 L700.0952 571.0714 L610.0952 571.0714 L610.0952 546.0714 Z"
         style="fill:none; clip-path:url(#clipPath50); stroke:black;"
         clip-path="url(#clipPath50)"
         id="path485" />
      <text
         x="635"
         y="563"
         style="fill:black; clip-path:url(#clipPath50); stroke:none;"
         xml:space="preserve"
         clip-path="url(#clipPath50)"
         id="text487">FOXC2</text>
    </g>
    <g
       style="fill:white; text-rendering:geometricPrecision; stroke:white;"
       id="g497">
      <path
         d="M542.1905 354.119 L632.1905 354.119 L632.1905 379.119 L542.1905 379.119 L542.1905 354.119 Z"
         style="clip-path:url(#clipPath51); stroke:none;"
         clip-path="url(#clipPath51)"
         id="path491" />
      <path
         d="M542.1905 354.119 L632.1905 354.119 L632.1905 379.119 L542.1905 379.119 L542.1905 354.119 Z"
         style="fill:none; clip-path:url(#clipPath51); stroke:black;"
         clip-path="url(#clipPath51)"
         id="path493" />
      <text
         x="570"
         y="371"
         style="fill:black; clip-path:url(#clipPath51); stroke:none;"
         xml:space="preserve"
         clip-path="url(#clipPath51)"
         id="text495">GDNF</text>
    </g>
    <g
       style="fill:white; text-rendering:geometricPrecision; stroke:white;"
       id="g505">
      <path
         d="M249.4643 428.1548 L339.4643 428.1548 L339.4643 453.1548 L249.4643 453.1548 L249.4643 428.1548 Z"
         style="clip-path:url(#clipPath52); stroke:none;"
         clip-path="url(#clipPath52)"
         id="path499" />
      <path
         d="M249.4643 428.1548 L339.4643 428.1548 L339.4643 453.1548 L249.4643 453.1548 L249.4643 428.1548 Z"
         style="fill:none; clip-path:url(#clipPath52); stroke:black;"
         clip-path="url(#clipPath52)"
         id="path501" />
      <text
         x="274"
         y="445"
         style="fill:black; clip-path:url(#clipPath52); stroke:none;"
         xml:space="preserve"
         clip-path="url(#clipPath52)"
         id="text503">GATA3</text>
    </g>
    <g
       style="fill:white; text-rendering:geometricPrecision; stroke:white;"
       id="g513">
      <path
         d="M51.1429 354.5952 L141.1429 354.5952 L141.1429 379.5952 L51.1429 379.5952 L51.1429 354.5952 Z"
         style="clip-path:url(#clipPath53); stroke:none;"
         clip-path="url(#clipPath53)"
         id="path507" />
      <path
         d="M51.1429 354.5952 L141.1429 354.5952 L141.1429 379.5952 L51.1429 379.5952 L51.1429 354.5952 Z"
         style="fill:none; clip-path:url(#clipPath53); stroke:black;"
         clip-path="url(#clipPath53)"
         id="path509" />
      <text
         x="81"
         y="371"
         style="fill:black; clip-path:url(#clipPath53); stroke:none;"
         xml:space="preserve"
         clip-path="url(#clipPath53)"
         id="text511">FAT4</text>
    </g>
    <g
       style="fill:white; text-rendering:geometricPrecision; stroke:white;"
       id="g521">
      <path
         d="M610.0952 571.0714 L700.0952 571.0714 L700.0952 596.0714 L610.0952 596.0714 L610.0952 571.0714 Z"
         style="clip-path:url(#clipPath54); stroke:none;"
         clip-path="url(#clipPath54)"
         id="path515" />
      <path
         d="M610.0952 571.0714 L700.0952 571.0714 L700.0952 596.0714 L610.0952 596.0714 L610.0952 571.0714 Z"
         style="fill:none; clip-path:url(#clipPath54); stroke:black;"
         clip-path="url(#clipPath54)"
         id="path517" />
      <text
         x="634"
         y="588"
         style="fill:black; clip-path:url(#clipPath54); stroke:none;"
         xml:space="preserve"
         clip-path="url(#clipPath54)"
         id="text519">ROBO2</text>
    </g>
    <g
       style="fill:white; text-rendering:geometricPrecision; stroke:white;"
       id="g529">
      <path
         d="M816.8571 263.1667 L906.8571 263.1667 L906.8571 288.1667 L816.8571 288.1667 L816.8571 263.1667 Z"
         style="clip-path:url(#clipPath55); stroke:none;"
         clip-path="url(#clipPath55)"
         id="path523" />
      <path
         d="M816.8571 263.1667 L906.8571 263.1667 L906.8571 288.1667 L816.8571 288.1667 L816.8571 263.1667 Z"
         style="fill:none; clip-path:url(#clipPath55); stroke:black;"
         clip-path="url(#clipPath55)"
         id="path525" />
      <text
         x="848"
         y="280"
         style="fill:black; clip-path:url(#clipPath55); stroke:none;"
         xml:space="preserve"
         clip-path="url(#clipPath55)"
         id="text527">GLI3</text>
    </g>
    <g
       style="fill:white; text-rendering:geometricPrecision; stroke:white;"
       id="g537">
      <path
         d="M396.7262 264.9643 L486.7262 264.9643 L486.7262 289.9643 L396.7262 289.9643 L396.7262 264.9643 Z"
         style="clip-path:url(#clipPath56); stroke:none;"
         clip-path="url(#clipPath56)"
         id="path531" />
      <path
         d="M396.7262 264.9643 L486.7262 264.9643 L486.7262 289.9643 L396.7262 289.9643 L396.7262 264.9643 Z"
         style="fill:none; clip-path:url(#clipPath56); stroke:black;"
         clip-path="url(#clipPath56)"
         id="path533" />
      <text
         x="425"
         y="281"
         style="fill:black; clip-path:url(#clipPath56); stroke:none;"
         xml:space="preserve"
         clip-path="url(#clipPath56)"
         id="text535">BMP4</text>
    </g>
    <g
       style="fill:white; text-rendering:geometricPrecision; stroke:white;"
       id="g545">
      <path
         d="M816.8571 202.4524 L906.8571 202.4524 L906.8571 227.4524 L816.8571 227.4524 L816.8571 202.4524 Z"
         style="clip-path:url(#clipPath57); stroke:none;"
         clip-path="url(#clipPath57)"
         id="path539" />
      <path
         d="M816.8571 202.4524 L906.8571 202.4524 L906.8571 227.4524 L816.8571 227.4524 L816.8571 202.4524 Z"
         style="fill:none; clip-path:url(#clipPath57); stroke:black;"
         clip-path="url(#clipPath57)"
         id="path541" />
      <text
         x="845"
         y="219"
         style="fill:black; clip-path:url(#clipPath57); stroke:none;"
         xml:space="preserve"
         clip-path="url(#clipPath57)"
         id="text543">IFT27</text>
    </g>
    <g
       style="fill:white; text-rendering:geometricPrecision; stroke:white;"
       id="g553">
      <path
         d="M816.8571 177.4524 L906.8571 177.4524 L906.8571 202.4524 L816.8571 202.4524 L816.8571 177.4524 Z"
         style="clip-path:url(#clipPath58); stroke:none;"
         clip-path="url(#clipPath58)"
         id="path547" />
      <path
         d="M816.8571 177.4524 L906.8571 177.4524 L906.8571 202.4524 L816.8571 202.4524 L816.8571 177.4524 Z"
         style="fill:none; clip-path:url(#clipPath58); stroke:black;"
         clip-path="url(#clipPath58)"
         id="path549" />
      <text
         x="838"
         y="194"
         style="fill:black; clip-path:url(#clipPath58); stroke:none;"
         xml:space="preserve"
         clip-path="url(#clipPath58)"
         id="text551">HSPB11</text>
    </g>
    <g
       style="fill:white; text-rendering:geometricPrecision; stroke:white;"
       id="g561">
      <path
         d="M249.4643 156.25 L339.4643 156.25 L339.4643 181.25 L249.4643 181.25 L249.4643 156.25 Z"
         style="clip-path:url(#clipPath59); stroke:none;"
         clip-path="url(#clipPath59)"
         id="path555" />
      <path
         d="M249.4643 156.25 L339.4643 156.25 L339.4643 181.25 L249.4643 181.25 L249.4643 156.25 Z"
         style="fill:none; clip-path:url(#clipPath59); stroke:black;"
         clip-path="url(#clipPath59)"
         id="path557" />
      <text
         x="279"
         y="173"
         style="fill:black; clip-path:url(#clipPath59); stroke:none;"
         xml:space="preserve"
         clip-path="url(#clipPath59)"
         id="text559">LHX1</text>
    </g>
    <g
       style="fill:white; text-rendering:geometricPrecision; stroke:white;"
       id="g569">
      <path
         d="M248.0952 571.0714 L338.0952 571.0714 L338.0952 596.0714 L248.0952 596.0714 L248.0952 571.0714 Z"
         style="clip-path:url(#clipPath60); stroke:none;"
         clip-path="url(#clipPath60)"
         id="path563" />
      <path
         d="M248.0952 571.0714 L338.0952 571.0714 L338.0952 596.0714 L248.0952 596.0714 L248.0952 571.0714 Z"
         style="fill:none; clip-path:url(#clipPath60); stroke:black;"
         clip-path="url(#clipPath60)"
         id="path565" />
      <text
         x="277"
         y="588"
         style="fill:black; clip-path:url(#clipPath60); stroke:none;"
         xml:space="preserve"
         clip-path="url(#clipPath60)"
         id="text567">SLIT2</text>
    </g>
    <g
       style="fill:white; text-rendering:geometricPrecision; stroke:white;"
       id="g577">
      <path
         d="M249.2381 473.6429 L339.2381 473.6429 L339.2381 498.6429 L249.2381 498.6429 L249.2381 473.6429 Z"
         style="clip-path:url(#clipPath61); stroke:none;"
         clip-path="url(#clipPath61)"
         id="path571" />
      <path
         d="M249.2381 473.6429 L339.2381 473.6429 L339.2381 498.6429 L249.2381 498.6429 L249.2381 473.6429 Z"
         style="fill:none; clip-path:url(#clipPath61); stroke:black;"
         clip-path="url(#clipPath61)"
         id="path573" />
      <text
         x="270"
         y="490"
         style="fill:black; clip-path:url(#clipPath61); stroke:none;"
         xml:space="preserve"
         clip-path="url(#clipPath61)"
         id="text575">CTNNB1</text>
    </g>
    <g
       style="fill:white; text-rendering:geometricPrecision; stroke:white;"
       id="g585">
      <path
         d="M540.4167 264.8214 L630.4167 264.8214 L630.4167 289.8214 L540.4167 289.8214 L540.4167 264.8214 Z"
         style="clip-path:url(#clipPath62); stroke:none;"
         clip-path="url(#clipPath62)"
         id="path579" />
      <path
         d="M540.4167 264.8214 L630.4167 264.8214 L630.4167 289.8214 L540.4167 289.8214 L540.4167 264.8214 Z"
         style="fill:none; clip-path:url(#clipPath62); stroke:black;"
         clip-path="url(#clipPath62)"
         id="path581" />
      <text
         x="564"
         y="281"
         style="fill:black; clip-path:url(#clipPath62); stroke:none;"
         xml:space="preserve"
         clip-path="url(#clipPath62)"
         id="text583">GREM1</text>
    </g>
    <g
       style="fill:white; text-rendering:geometricPrecision; stroke:white;"
       id="g593">
      <path
         d="M610.0952 429.0714 L700.0952 429.0714 L700.0952 454.0714 L610.0952 454.0714 L610.0952 429.0714 Z"
         style="clip-path:url(#clipPath63); stroke:none;"
         clip-path="url(#clipPath63)"
         id="path587" />
      <path
         d="M610.0952 429.0714 L700.0952 429.0714 L700.0952 454.0714 L610.0952 454.0714 L610.0952 429.0714 Z"
         style="fill:none; clip-path:url(#clipPath63); stroke:black;"
         clip-path="url(#clipPath63)"
         id="path589" />
      <text
         x="638"
         y="446"
         style="fill:black; clip-path:url(#clipPath63); stroke:none;"
         xml:space="preserve"
         clip-path="url(#clipPath63)"
         id="text591">GDNF</text>
    </g>
  </g>
</svg>
