<?xml version="1.0" encoding="UTF-8" standalone="no"?>
<svg
   style="fill-opacity:1; color-rendering:auto; color-interpolation:auto; stroke:black; text-rendering:auto; stroke-linecap:square; stroke-miterlimit:10; stroke-opacity:1; shape-rendering:auto; fill:black; stroke-dasharray:none; font-weight:normal; stroke-width:1; font-family:'Dialog'; font-style:normal; stroke-linejoin:miter; font-size:12; stroke-dashoffset:0; image-rendering:auto;"
   width="641"
   height="774"
   version="1.1"
   id="svg502"
   xmlns="http://www.w3.org/2000/svg"
   xmlns:svg="http://www.w3.org/2000/svg">
  <!--Generated by the Batik Graphics2D SVG Generator-->
  <defs
     id="genericDefs" />
  <g
     id="g500">
    <defs
       id="defs1">
      <clipPath
         clipPathUnits="userSpaceOnUse"
         id="clipPath1">
        <path
           d="M0 0 L656 0 L656 790 L0 790 L0 0 Z"
           id="path3" />
      </clipPath>
      <clipPath
         clipPathUnits="userSpaceOnUse"
         id="clipPath2">
        <path
           d="M0 0 L0 200 L200 200 L200 0 Z"
           id="path6" />
      </clipPath>
      <clipPath
         clipPathUnits="userSpaceOnUse"
         id="clipPath3">
        <path
           d="M215.943 136.3144 L215.943 217.6856 L351.6856 217.6856 L351.6856 136.3144 Z"
           id="path9" />
      </clipPath>
      <clipPath
         clipPathUnits="userSpaceOnUse"
         id="clipPath4">
        <path
           d="M216.0997 488.6459 L216.0997 500.0459 L253.0056 500.0459 L253.0056 488.6459 Z"
           id="path12" />
      </clipPath>
      <clipPath
         clipPathUnits="userSpaceOnUse"
         id="clipPath5">
        <path
           d="M277.4429 300.3144 L277.4429 338.6856 L341.179 338.6856 L341.179 300.3144 Z"
           id="path15" />
      </clipPath>
      <clipPath
         clipPathUnits="userSpaceOnUse"
         id="clipPath6">
        <path
           d="M553.0306 568.5 L553.0306 647.2311 L564.9694 647.2311 L564.9694 568.5 Z"
           id="path18" />
      </clipPath>
      <clipPath
         clipPathUnits="userSpaceOnUse"
         id="clipPath7">
        <path
           d="M385.0306 37.5 L385.0306 121.2311 L396.9694 121.2311 L396.9694 37.5 Z"
           id="path21" />
      </clipPath>
      <clipPath
         clipPathUnits="userSpaceOnUse"
         id="clipPath8">
        <path
           d="M553.0306 361.5 L553.0306 437.2311 L564.9694 437.2311 L564.9694 361.5 Z"
           id="path24" />
      </clipPath>
      <clipPath
         clipPathUnits="userSpaceOnUse"
         id="clipPath9">
        <path
           d="M269.7689 342.0306 L269.7689 353.9694 L314.9934 353.9694 L314.9934 342.0306 Z"
           id="path27" />
      </clipPath>
      <clipPath
         clipPathUnits="userSpaceOnUse"
         id="clipPath10">
        <path
           d="M553.0306 249.5 L553.0306 332.2311 L564.9694 332.2311 L564.9694 249.5 Z"
           id="path30" />
      </clipPath>
      <clipPath
         clipPathUnits="userSpaceOnUse"
         id="clipPath11">
        <path
           d="M382.1617 231.588 L382.1617 262.267 L393.5616 262.267 L393.5616 231.588 Z"
           id="path33" />
      </clipPath>
      <clipPath
         clipPathUnits="userSpaceOnUse"
         id="clipPath12">
        <path
           d="M365.9821 342.6248 L365.9821 354.5605 L405.6674 354.5605 L405.6674 342.6248 Z"
           id="path36" />
      </clipPath>
      <clipPath
         clipPathUnits="userSpaceOnUse"
         id="clipPath13">
        <path
           d="M216.0999 285.5304 L216.0999 296.9304 L253.0037 296.9304 L253.0037 285.5304 Z"
           id="path39" />
      </clipPath>
      <clipPath
         clipPathUnits="userSpaceOnUse"
         id="clipPath14">
        <path
           d="M553.0306 671.5 L553.0306 741.2311 L564.9694 741.2311 L564.9694 671.5 Z"
           id="path42" />
      </clipPath>
      <clipPath
         clipPathUnits="userSpaceOnUse"
         id="clipPath15">
        <path
           d="M553.0306 461.5 L553.0306 544.2311 L564.9694 544.2311 L564.9694 461.5 Z"
           id="path45" />
      </clipPath>
      <clipPath
         clipPathUnits="userSpaceOnUse"
         id="clipPath16">
        <path
           d="M430.3138 136.3138 L430.3138 214.6862 L560.0549 214.6862 L560.0549 136.3138 Z"
           id="path48" />
      </clipPath>
      <clipPath
         clipPathUnits="userSpaceOnUse"
         id="clipPath17">
        <path
           d="M429.7359 300.9439 L429.7359 339.5741 L480.226 339.5741 L480.226 300.9439 Z"
           id="path51" />
      </clipPath>
      <clipPath
         clipPathUnits="userSpaceOnUse"
         id="clipPath18">
        <path
           d="M275.9233 357.3203 L275.9233 386.6797 L328.1732 386.6797 L328.1732 357.3203 Z"
           id="path54" />
      </clipPath>
      <clipPath
         clipPathUnits="userSpaceOnUse"
         id="clipPath19">
        <path
           d="M255.7689 226.0783 L255.7689 238.9217 L514.2311 238.9217 L514.2311 226.0783 Z"
           id="path57" />
      </clipPath>
      <clipPath
         clipPathUnits="userSpaceOnUse"
         id="clipPath20">
        <path
           d="M211.0306 248.5 L211.0306 437.2311 L222.9694 437.2311 L222.9694 248.5 Z"
           id="path60" />
      </clipPath>
      <clipPath
         clipPathUnits="userSpaceOnUse"
         id="clipPath21">
        <path
           d="M429.7296 358.1663 L429.7296 397.8572 L470.6238 397.8572 L470.6238 358.1663 Z"
           id="path63" />
      </clipPath>
      <clipPath
         clipPathUnits="userSpaceOnUse"
         id="clipPath22">
        <path
           d="M211.0306 461.5 L211.0306 544.2311 L222.9694 544.2311 L222.9694 461.5 Z"
           id="path66" />
      </clipPath>
      <clipPath
         clipPathUnits="userSpaceOnUse"
         id="clipPath23">
        <path
           d="M252 483.5 L252 504.5 L305 504.5 L305 483.5 Z"
           id="path69" />
      </clipPath>
      <clipPath
         clipPathUnits="userSpaceOnUse"
         id="clipPath24">
        <path
           d="M361.0066 261.2598 L361.0066 282.2598 L414.0066 282.2598 L414.0066 261.2598 Z"
           id="path72" />
      </clipPath>
      <clipPath
         clipPathUnits="userSpaceOnUse"
         id="clipPath25">
        <path
           d="M252 280.5 L252 301.5 L305 301.5 L305 280.5 Z"
           id="path75" />
      </clipPath>
      <clipPath
         clipPathUnits="userSpaceOnUse"
         id="clipPath26">
        <path
           d="M350.5 119.5 L350.5 154.5 L431.5 154.5 L431.5 119.5 Z"
           id="path78" />
      </clipPath>
      <clipPath
         clipPathUnits="userSpaceOnUse"
         id="clipPath27">
        <path
           d="M491 739.5 L491 760.5 L627 760.5 L627 739.5 Z"
           id="path81" />
      </clipPath>
      <clipPath
         clipPathUnits="userSpaceOnUse"
         id="clipPath28">
        <path
           d="M176.5 435.5 L176.5 462.5 L257.5 462.5 L257.5 435.5 Z"
           id="path84" />
      </clipPath>
      <clipPath
         clipPathUnits="userSpaceOnUse"
         id="clipPath29">
        <path
           d="M176.5 216.5 L176.5 249.5 L257.5 249.5 L257.5 216.5 Z"
           id="path87" />
      </clipPath>
      <clipPath
         clipPathUnits="userSpaceOnUse"
         id="clipPath30">
        <path
           d="M512.5 213.5 L512.5 250.5 L605.5 250.5 L605.5 213.5 Z"
           id="path90" />
      </clipPath>
      <clipPath
         clipPathUnits="userSpaceOnUse"
         id="clipPath31">
        <path
           d="M176.5 542.5 L176.5 569.5 L257.5 569.5 L257.5 542.5 Z"
           id="path93" />
      </clipPath>
      <clipPath
         clipPathUnits="userSpaceOnUse"
         id="clipPath32">
        <path
           d="M518.5 330.5 L518.5 362.5 L599.5 362.5 L599.5 330.5 Z"
           id="path96" />
      </clipPath>
      <clipPath
         clipPathUnits="userSpaceOnUse"
         id="clipPath33">
        <path
           d="M511 435.5 L511 462.5 L607 462.5 L607 435.5 Z"
           id="path99" />
      </clipPath>
      <clipPath
         clipPathUnits="userSpaceOnUse"
         id="clipPath34">
        <path
           d="M518.5 645.5 L518.5 672.5 L599.5 672.5 L599.5 645.5 Z"
           id="path102" />
      </clipPath>
      <clipPath
         clipPathUnits="userSpaceOnUse"
         id="clipPath35">
        <path
           d="M518.5 542.5 L518.5 569.5 L599.5 569.5 L599.5 542.5 Z"
           id="path105" />
      </clipPath>
      <clipPath
         clipPathUnits="userSpaceOnUse"
         id="clipPath36">
        <path
           d="M517.7465 286.0015 L517.7465 297.4015 L559.9 297.4015 L559.9 286.0015 Z"
           id="path108" />
      </clipPath>
      <clipPath
         clipPathUnits="userSpaceOnUse"
         id="clipPath37">
        <path
           d="M465.7467 281.1899 L465.7467 302.1899 L518.7467 302.1899 L518.7467 281.1899 Z"
           id="path111" />
      </clipPath>
      <clipPath
         clipPathUnits="userSpaceOnUse"
         id="clipPath38">
        <path
           d="M521.2402 391.3 L521.2402 402.7 L559.9 402.7 L559.9 391.3 Z"
           id="path114" />
      </clipPath>
      <clipPath
         clipPathUnits="userSpaceOnUse"
         id="clipPath39">
        <path
           d="M469.2402 386.5 L469.2402 407.5 L522.2402 407.5 L522.2402 386.5 Z"
           id="path117" />
      </clipPath>
      <clipPath
         clipPathUnits="userSpaceOnUse"
         id="clipPath40">
        <path
           d="M350.5 11.5 L350.5 38.5 L431.5 38.5 L431.5 11.5 Z"
           id="path120" />
      </clipPath>
      <clipPath
         clipPathUnits="userSpaceOnUse"
         id="clipPath41">
        <path
           d="M389.9524 53.3928 L389.9524 75.3257 L458.1072 75.3257 L458.1072 53.3928 Z"
           id="path123" />
      </clipPath>
      <clipPath
         clipPathUnits="userSpaceOnUse"
         id="clipPath42">
        <path
           d="M457 43.5 L457 64.5 L510 64.5 L510 43.5 Z"
           id="path126" />
      </clipPath>
      <clipPath
         clipPathUnits="userSpaceOnUse"
         id="clipPath43">
        <path
           d="M403.9367 338.3734 L403.9367 359.3734 L456.9367 359.3734 L456.9367 338.3734 Z"
           id="path129" />
      </clipPath>
      <clipPath
         clipPathUnits="userSpaceOnUse"
         id="clipPath44">
        <path
           d="M425.7689 91.0306 L425.7689 102.9694 L486.5 102.9694 L486.5 91.0306 Z"
           id="path132" />
      </clipPath>
      <clipPath
         clipPathUnits="userSpaceOnUse"
         id="clipPath45">
        <path
           d="M425.8225 96.3759 L425.8225 117.1495 L486.6241 117.1495 L486.6241 96.3759 Z"
           id="path135" />
      </clipPath>
      <clipPath
         clipPathUnits="userSpaceOnUse"
         id="clipPath46">
        <path
           d="M425.834 75.2633 L425.834 97.6341 L486.6341 97.6341 L486.6341 75.2633 Z"
           id="path138" />
      </clipPath>
      <clipPath
         clipPathUnits="userSpaceOnUse"
         id="clipPath47">
        <path
           d="M459.5 86.5 L459.5 107.5 L512.5 107.5 L512.5 86.5 Z"
           id="path141" />
      </clipPath>
      <clipPath
         clipPathUnits="userSpaceOnUse"
         id="clipPath48">
        <path
           d="M313.9934 337.5 L313.9934 358.5 L366.9934 358.5 L366.9934 337.5 Z"
           id="path144" />
      </clipPath>
    </defs>
    <g
       style="fill:white; stroke:white;"
       id="g150">
      <rect
         x="0"
         width="656"
         height="790"
         y="0"
         style="stroke:none;"
         id="rect148" />
    </g>
    <g
       style="font-weight:bold; font-size:10; text-rendering:geometricPrecision;"
       id="g164">
      <path
         d="M0.0469 6.7031 L6.7656 6.7031 L6.7656 8.125 L4.3438 8.125 L4.3438 14 L2.4688 14 L2.4688 8.125 L0.0469 8.125 L0.0469 6.7031 ZM7.665 8.5312 L9.415 8.5312 L9.415 14 L7.665 14 L7.665 8.5312 ZM7.665 6.4062 L9.415 6.4062 L9.415 7.8281 L7.665 7.8281 L7.665 6.4062 ZM12.999 6.9844 L12.999 8.5312 L14.7959 8.5312 L14.7959 9.7812 L12.999 9.7812 L12.999 12.0938 Q12.999 12.4844 13.1475 12.6172 Q13.2959 12.75 13.749 12.75 L14.6553 12.75 L14.6553 14 L13.1553 14 Q12.1084 14 11.6787 13.5703 Q11.249 13.1406 11.249 12.0938 L11.249 9.7812 L10.374 9.7812 L10.374 8.5312 L11.249 8.5312 L11.249 6.9844 L12.999 6.9844 ZM15.873 6.4062 L17.623 6.4062 L17.623 14 L15.873 14 L15.873 6.4062 ZM24.7539 11.25 L24.7539 11.75 L20.6758 11.75 Q20.7383 12.3594 21.1133 12.6719 Q21.4883 12.9844 22.1758 12.9844 Q22.7227 12.9844 23.3086 12.8203 Q23.8945 12.6562 24.5039 12.3125 L24.5039 13.6719 Q23.8789 13.9062 23.2617 14.0234 Q22.6445 14.1406 22.0195 14.1406 Q20.5352 14.1406 19.7148 13.3828 Q18.8945 12.625 18.8945 11.2656 Q18.8945 9.9375 19.6992 9.1719 Q20.5039 8.4062 21.9258 8.4062 Q23.207 8.4062 23.9805 9.1797 Q24.7539 9.9531 24.7539 11.25 ZM22.957 10.6719 Q22.957 10.1719 22.668 9.8672 Q22.3789 9.5625 21.9102 9.5625 Q21.3945 9.5625 21.082 9.8438 Q20.7695 10.125 20.6914 10.6719 L22.957 10.6719 ZM26.3643 8.5312 L28.1143 8.5312 L28.1143 10.4219 L26.3643 10.4219 L26.3643 8.5312 ZM26.3643 12.1094 L28.1143 12.1094 L28.1143 14 L26.3643 14 L26.3643 12.1094 Z"
         style="clip-path:url(#clipPath2); stroke:none;"
         clip-path="url(#clipPath2)"
         id="path152" />
      <path
         d="M38.9844 6.7031 L39.9688 6.7031 L39.9688 9.7031 L43.5469 9.7031 L43.5469 6.7031 L44.5312 6.7031 L44.5312 14 L43.5469 14 L43.5469 10.5312 L39.9688 10.5312 L39.9688 14 L38.9844 14 L38.9844 6.7031 ZM46.5039 6.7031 L47.4883 6.7031 L47.4883 14 L46.5039 14 L46.5039 6.7031 ZM49.4531 6.7031 L53.6406 6.7031 L53.6406 7.5469 L50.4375 7.5469 L50.4375 9.6875 L53.3281 9.6875 L53.3281 10.5156 L50.4375 10.5156 L50.4375 14 L49.4531 14 L49.4531 6.7031 ZM55.4551 13.1719 L57.0801 13.1719 L57.0801 7.6094 L55.3145 7.9531 L55.3145 7.0625 L57.0645 6.7031 L58.0488 6.7031 L58.0488 13.1719 L59.6582 13.1719 L59.6582 14 L55.4551 14 L55.4551 13.1719 ZM64.0049 7.6875 L62.6611 11.3125 L65.3486 11.3125 L64.0049 7.6875 ZM63.4424 6.7031 L64.5674 6.7031 L67.3486 14 L66.3174 14 L65.6455 12.125 L62.3643 12.125 L61.708 14 L60.6611 14 L63.4424 6.7031 ZM74.0244 11.25 Q72.9463 11.25 72.5244 11.5 Q72.1025 11.75 72.1025 12.3438 Q72.1025 12.8281 72.415 13.1094 Q72.7275 13.3906 73.2744 13.3906 Q74.0244 13.3906 74.4775 12.8594 Q74.9307 12.3281 74.9307 11.4531 L74.9307 11.25 L74.0244 11.25 ZM75.8213 10.875 L75.8213 14 L74.9307 14 L74.9307 13.1719 Q74.6182 13.6719 74.1572 13.9062 Q73.6963 14.1406 73.04 14.1406 Q72.1963 14.1406 71.6963 13.6719 Q71.1963 13.2031 71.1963 12.4062 Q71.1963 11.4844 71.8213 11.0156 Q72.4463 10.5469 73.665 10.5469 L74.9307 10.5469 L74.9307 10.4531 Q74.9307 9.8438 74.5166 9.5 Q74.1025 9.1562 73.3682 9.1562 Q72.8994 9.1562 72.4541 9.2734 Q72.0088 9.3906 71.6025 9.6094 L71.6025 8.7812 Q72.1025 8.5938 72.5635 8.5 Q73.0244 8.4062 73.4619 8.4062 Q74.6494 8.4062 75.2354 9.0156 Q75.8213 9.625 75.8213 10.875 ZM82.2148 10.7031 L82.2148 14 L81.3242 14 L81.3242 10.7344 Q81.3242 9.9531 81.0195 9.5703 Q80.7148 9.1875 80.1055 9.1875 Q79.3867 9.1875 78.9648 9.6484 Q78.543 10.1094 78.543 10.9062 L78.543 14 L77.6367 14 L77.6367 8.5312 L78.543 8.5312 L78.543 9.375 Q78.8711 8.8906 79.3086 8.6484 Q79.7461 8.4062 80.3086 8.4062 Q81.2461 8.4062 81.7305 8.9844 Q82.2148 9.5625 82.2148 10.7031 ZM87.6152 9.3594 L87.6152 6.4062 L88.5059 6.4062 L88.5059 14 L87.6152 14 L87.6152 13.1719 Q87.334 13.6719 86.8965 13.9062 Q86.459 14.1406 85.8496 14.1406 Q84.8652 14.1406 84.2402 13.3516 Q83.6152 12.5625 83.6152 11.2656 Q83.6152 9.9844 84.2402 9.1953 Q84.8652 8.4062 85.8496 8.4062 Q86.459 8.4062 86.8965 8.6406 Q87.334 8.875 87.6152 9.3594 ZM84.5527 11.2656 Q84.5527 12.2656 84.959 12.8281 Q85.3652 13.3906 86.084 13.3906 Q86.7871 13.3906 87.2012 12.8281 Q87.6152 12.2656 87.6152 11.2656 Q87.6152 10.2812 87.2012 9.7188 Q86.7871 9.1562 86.084 9.1562 Q85.3652 9.1562 84.959 9.7188 Q84.5527 10.2812 84.5527 11.2656 ZM94.5635 7.5156 L94.5635 10.2656 L95.7979 10.2656 Q96.4854 10.2656 96.8682 9.9062 Q97.251 9.5469 97.251 8.8906 Q97.251 8.2344 96.8682 7.875 Q96.4854 7.5156 95.7979 7.5156 L94.5635 7.5156 ZM93.5791 6.7031 L95.7979 6.7031 Q97.0322 6.7031 97.6572 7.2578 Q98.2822 7.8125 98.2822 8.8906 Q98.2822 9.9688 97.6572 10.5156 Q97.0322 11.0625 95.7979 11.0625 L94.5635 11.0625 L94.5635 14 L93.5791 14 L93.5791 6.7031 ZM100.5938 7.5156 L100.5938 10.2656 L101.8281 10.2656 Q102.5156 10.2656 102.8984 9.9062 Q103.2812 9.5469 103.2812 8.8906 Q103.2812 8.2344 102.8984 7.875 Q102.5156 7.5156 101.8281 7.5156 L100.5938 7.5156 ZM99.6094 6.7031 L101.8281 6.7031 Q103.0625 6.7031 103.6875 7.2578 Q104.3125 7.8125 104.3125 8.8906 Q104.3125 9.9688 103.6875 10.5156 Q103.0625 11.0625 101.8281 11.0625 L100.5938 11.0625 L100.5938 14 L99.6094 14 L99.6094 6.7031 ZM108.0771 7.6875 L106.7334 11.3125 L109.4209 11.3125 L108.0771 7.6875 ZM107.5146 6.7031 L108.6396 6.7031 L111.4209 14 L110.3896 14 L109.7178 12.125 L106.4365 12.125 L105.7803 14 L104.7334 14 L107.5146 6.7031 ZM115.9336 10.5781 Q116.2461 10.6875 116.5508 11.0391 Q116.8555 11.3906 117.1523 12 L118.1523 14 L117.0898 14 L116.168 12.125 Q115.8086 11.3906 115.4648 11.1562 Q115.1211 10.9219 114.543 10.9219 L113.4648 10.9219 L113.4648 14 L112.4805 14 L112.4805 6.7031 L114.6992 6.7031 Q115.9492 6.7031 116.5664 7.2266 Q117.1836 7.75 117.1836 8.8125 Q117.1836 9.5 116.8633 9.9531 Q116.543 10.4062 115.9336 10.5781 ZM113.4648 7.5156 L113.4648 10.1094 L114.6992 10.1094 Q115.418 10.1094 115.7852 9.7812 Q116.1523 9.4531 116.1523 8.8125 Q116.1523 8.1719 115.7852 7.8438 Q115.418 7.5156 114.6992 7.5156 L113.4648 7.5156 ZM124.3975 12.9531 L124.3975 11 L122.7881 11 L122.7881 10.1875 L125.3662 10.1875 L125.3662 13.3281 Q124.8037 13.7188 124.1162 13.9297 Q123.4287 14.1406 122.6475 14.1406 Q120.9287 14.1406 119.9678 13.1406 Q119.0068 12.1406 119.0068 10.3594 Q119.0068 8.5781 119.9678 7.5781 Q120.9287 6.5781 122.6475 6.5781 Q123.3506 6.5781 123.999 6.75 Q124.6475 6.9219 125.1787 7.2656 L125.1787 8.3281 Q124.6318 7.8594 124.0225 7.625 Q123.4131 7.3906 122.7256 7.3906 Q121.3818 7.3906 120.7178 8.1328 Q120.0537 8.875 120.0537 10.3594 Q120.0537 11.8438 120.7178 12.5859 Q121.3818 13.3281 122.7256 13.3281 Q123.2568 13.3281 123.6631 13.2422 Q124.0693 13.1562 124.3975 12.9531 ZM133.4814 9.375 Q133.3252 9.2812 133.1533 9.2422 Q132.9814 9.2031 132.7627 9.2031 Q131.9971 9.2031 131.5908 9.6953 Q131.1846 10.1875 131.1846 11.125 L131.1846 14 L130.2783 14 L130.2783 8.5312 L131.1846 8.5312 L131.1846 9.375 Q131.4658 8.875 131.9189 8.6406 Q132.3721 8.4062 133.0283 8.4062 Q133.1221 8.4062 133.2314 8.4141 Q133.3408 8.4219 133.4814 8.4531 L133.4814 9.375 ZM139.1084 11.0469 L139.1084 11.4844 L134.9678 11.4844 Q135.0303 12.4062 135.5303 12.8906 Q136.0303 13.375 136.9209 13.375 Q137.4365 13.375 137.9287 13.25 Q138.4209 13.125 138.8896 12.875 L138.8896 13.7188 Q138.4053 13.9219 137.8975 14.0312 Q137.3896 14.1406 136.874 14.1406 Q135.5615 14.1406 134.7959 13.3828 Q134.0303 12.625 134.0303 11.3125 Q134.0303 9.9688 134.7568 9.1875 Q135.4834 8.4062 136.7178 8.4062 Q137.8271 8.4062 138.4678 9.1094 Q139.1084 9.8125 139.1084 11.0469 ZM138.2021 10.7812 Q138.2021 10.0469 137.7959 9.6016 Q137.3896 9.1562 136.7334 9.1562 Q135.9678 9.1562 135.5225 9.5859 Q135.0771 10.0156 134.999 10.7812 L138.2021 10.7812 ZM144.1826 11.2031 Q144.1826 10.2188 143.7764 9.6875 Q143.3701 9.1562 142.6514 9.1562 Q141.917 9.1562 141.5186 9.6875 Q141.1201 10.2188 141.1201 11.2031 Q141.1201 12.1719 141.5186 12.7109 Q141.917 13.25 142.6514 13.25 Q143.3701 13.25 143.7764 12.7109 Q144.1826 12.1719 144.1826 11.2031 ZM145.0732 13.3281 Q145.0732 14.7188 144.4561 15.3984 Q143.8389 16.0781 142.5576 16.0781 Q142.0889 16.0781 141.667 16.0078 Q141.2451 15.9375 140.8545 15.7969 L140.8545 14.9219 Q141.2451 15.1406 141.6279 15.2422 Q142.0107 15.3438 142.417 15.3438 Q143.292 15.3438 143.7373 14.8828 Q144.1826 14.4219 144.1826 13.4844 L144.1826 13.0312 Q143.9014 13.5156 143.4639 13.7578 Q143.0264 14 142.417 14 Q141.417 14 140.7998 13.2344 Q140.1826 12.4688 140.1826 11.2031 Q140.1826 9.9375 140.7998 9.1719 Q141.417 8.4062 142.417 8.4062 Q143.0264 8.4062 143.4639 8.6406 Q143.9014 8.875 144.1826 9.3594 L144.1826 8.5312 L145.0732 8.5312 L145.0732 13.3281 ZM146.8271 11.8438 L146.8271 8.5312 L147.7334 8.5312 L147.7334 11.8125 Q147.7334 12.5781 148.0381 12.9688 Q148.3428 13.3594 148.9365 13.3594 Q149.6709 13.3594 150.0928 12.8984 Q150.5146 12.4375 150.5146 11.625 L150.5146 8.5312 L151.4209 8.5312 L151.4209 14 L150.5146 14 L150.5146 13.1562 Q150.1865 13.6562 149.7568 13.8984 Q149.3271 14.1406 148.749 14.1406 Q147.8115 14.1406 147.3193 13.5547 Q146.8271 12.9688 146.8271 11.8438 ZM149.0928 8.4062 L149.0928 8.4062 ZM153.2588 6.4062 L154.165 6.4062 L154.165 14 L153.2588 14 L153.2588 6.4062 ZM158.5215 11.25 Q157.4434 11.25 157.0215 11.5 Q156.5996 11.75 156.5996 12.3438 Q156.5996 12.8281 156.9121 13.1094 Q157.2246 13.3906 157.7715 13.3906 Q158.5215 13.3906 158.9746 12.8594 Q159.4277 12.3281 159.4277 11.4531 L159.4277 11.25 L158.5215 11.25 ZM160.3184 10.875 L160.3184 14 L159.4277 14 L159.4277 13.1719 Q159.1152 13.6719 158.6543 13.9062 Q158.1934 14.1406 157.5371 14.1406 Q156.6934 14.1406 156.1934 13.6719 Q155.6934 13.2031 155.6934 12.4062 Q155.6934 11.4844 156.3184 11.0156 Q156.9434 10.5469 158.1621 10.5469 L159.4277 10.5469 L159.4277 10.4531 Q159.4277 9.8438 159.0137 9.5 Q158.5996 9.1562 157.8652 9.1562 Q157.3965 9.1562 156.9512 9.2734 Q156.5059 9.3906 156.0996 9.6094 L156.0996 8.7812 Q156.5996 8.5938 157.0605 8.5 Q157.5215 8.4062 157.959 8.4062 Q159.1465 8.4062 159.7324 9.0156 Q160.3184 9.625 160.3184 10.875 ZM163.0557 6.9844 L163.0557 8.5312 L164.915 8.5312 L164.915 9.2344 L163.0557 9.2344 L163.0557 12.2031 Q163.0557 12.8594 163.2432 13.0547 Q163.4307 13.25 163.9932 13.25 L164.915 13.25 L164.915 14 L163.9932 14 Q162.9463 14 162.5479 13.6094 Q162.1494 13.2188 162.1494 12.2031 L162.1494 9.2344 L161.4932 9.2344 L161.4932 8.5312 L162.1494 8.5312 L162.1494 6.9844 L163.0557 6.9844 ZM166.0859 8.5312 L166.9922 8.5312 L166.9922 14 L166.0859 14 L166.0859 8.5312 ZM166.0859 6.4062 L166.9922 6.4062 L166.9922 7.5469 L166.0859 7.5469 L166.0859 6.4062 ZM170.9893 9.1562 Q170.2705 9.1562 169.8486 9.7188 Q169.4268 10.2812 169.4268 11.2656 Q169.4268 12.25 169.8408 12.8125 Q170.2549 13.375 170.9893 13.375 Q171.708 13.375 172.1299 12.8125 Q172.5518 12.25 172.5518 11.2656 Q172.5518 10.2969 172.1299 9.7266 Q171.708 9.1562 170.9893 9.1562 ZM170.9893 8.4062 Q172.1611 8.4062 172.833 9.1641 Q173.5049 9.9219 173.5049 11.2656 Q173.5049 12.6094 172.833 13.375 Q172.1611 14.1406 170.9893 14.1406 Q169.8174 14.1406 169.1455 13.375 Q168.4736 12.6094 168.4736 11.2656 Q168.4736 9.9219 169.1455 9.1641 Q169.8174 8.4062 170.9893 8.4062 ZM179.5293 10.7031 L179.5293 14 L178.6387 14 L178.6387 10.7344 Q178.6387 9.9531 178.334 9.5703 Q178.0293 9.1875 177.4199 9.1875 Q176.7012 9.1875 176.2793 9.6484 Q175.8574 10.1094 175.8574 10.9062 L175.8574 14 L174.9512 14 L174.9512 8.5312 L175.8574 8.5312 L175.8574 9.375 Q176.1855 8.8906 176.623 8.6484 Q177.0605 8.4062 177.623 8.4062 Q178.5605 8.4062 179.0449 8.9844 Q179.5293 9.5625 179.5293 10.7031 ZM186.624 9.1562 Q185.9053 9.1562 185.4834 9.7188 Q185.0615 10.2812 185.0615 11.2656 Q185.0615 12.25 185.4756 12.8125 Q185.8896 13.375 186.624 13.375 Q187.3428 13.375 187.7646 12.8125 Q188.1865 12.25 188.1865 11.2656 Q188.1865 10.2969 187.7646 9.7266 Q187.3428 9.1562 186.624 9.1562 ZM186.624 8.4062 Q187.7959 8.4062 188.4678 9.1641 Q189.1396 9.9219 189.1396 11.2656 Q189.1396 12.6094 188.4678 13.375 Q187.7959 14.1406 186.624 14.1406 Q185.4521 14.1406 184.7803 13.375 Q184.1084 12.6094 184.1084 11.2656 Q184.1084 9.9219 184.7803 9.1641 Q185.4521 8.4062 186.624 8.4062 ZM193.3984 6.4062 L193.3984 7.1562 L192.5391 7.1562 Q192.0547 7.1562 191.8672 7.3516 Q191.6797 7.5469 191.6797 8.0469 L191.6797 8.5312 L193.1484 8.5312 L193.1484 9.2344 L191.6797 9.2344 L191.6797 14 L190.7734 14 L190.7734 9.2344 L189.9141 9.2344 L189.9141 8.5312 L190.7734 8.5312 L190.7734 8.1562 Q190.7734 7.2344 191.1953 6.8203 Q191.6172 6.4062 192.5391 6.4062 L193.3984 6.4062 ZM200.9258 11.2031 Q200.9258 10.2188 200.5195 9.6875 Q200.1133 9.1562 199.3945 9.1562 Q198.6602 9.1562 198.2617 9.6875 Q197.8633 10.2188 197.8633 11.2031 Q197.8633 12.1719 198.2617 12.7109 Q198.6602 13.25 199.3945 13.25 Q200.1133 13.25 200.5195 12.7109 Q200.9258 12.1719 200.9258 11.2031 ZM201.8164 13.3281 Q201.8164 14.7188 201.1992 15.3984 Q200.582 16.0781 199.3008 16.0781 Q198.832 16.0781 198.4102 16.0078 Q197.9883 15.9375 197.5977 15.7969 L197.5977 14.9219 Q197.9883 15.1406 198.3711 15.2422 Q198.7539 15.3438 199.1602 15.3438 Q200.0352 15.3438 200.4805 14.8828 Q200.9258 14.4219 200.9258 13.4844 L200.9258 13.0312 Q200.6445 13.5156 200.207 13.7578 Q199.7695 14 199.1602 14 Q198.1602 14 197.543 13.2344 Q196.9258 12.4688 196.9258 11.2031 Q196.9258 9.9375 197.543 9.1719 Q198.1602 8.4062 199.1602 8.4062 Q199.7695 8.4062 200.207 8.6406 Q200.6445 8.875 200.9258 9.3594 L200.9258 8.5312 L201.8164 8.5312 L201.8164 13.3281 ZM203.6641 6.4062 L204.5703 6.4062 L204.5703 14 L203.6641 14 L203.6641 6.4062 ZM208.7236 14.5156 Q208.3486 15.4844 207.9814 15.7812 Q207.6143 16.0781 207.0205 16.0781 L206.3018 16.0781 L206.3018 15.3281 L206.8174 15.3281 Q207.1924 15.3281 207.3955 15.1562 Q207.5986 14.9844 207.8486 14.3281 L208.0205 13.9062 L205.8018 8.5312 L206.7549 8.5312 L208.458 12.8125 L210.1768 8.5312 L211.1299 8.5312 L208.7236 14.5156 ZM216.2979 8.7344 L216.2979 9.5781 Q215.9229 9.375 215.54 9.2656 Q215.1572 9.1562 214.7666 9.1562 Q213.8916 9.1562 213.4072 9.7109 Q212.9229 10.2656 212.9229 11.2656 Q212.9229 12.2656 213.4072 12.8203 Q213.8916 13.375 214.7666 13.375 Q215.1572 13.375 215.54 13.2734 Q215.9229 13.1719 216.2979 12.9531 L216.2979 13.7969 Q215.9229 13.9688 215.5244 14.0547 Q215.126 14.1406 214.6729 14.1406 Q213.4229 14.1406 212.6963 13.3672 Q211.9697 12.5938 211.9697 11.2656 Q211.9697 9.9375 212.7041 9.1719 Q213.4385 8.4062 214.7197 8.4062 Q215.1416 8.4062 215.5322 8.4844 Q215.9229 8.5625 216.2979 8.7344 ZM219.9834 9.1562 Q219.2646 9.1562 218.8428 9.7188 Q218.4209 10.2812 218.4209 11.2656 Q218.4209 12.25 218.835 12.8125 Q219.249 13.375 219.9834 13.375 Q220.7021 13.375 221.124 12.8125 Q221.5459 12.25 221.5459 11.2656 Q221.5459 10.2969 221.124 9.7266 Q220.7021 9.1562 219.9834 9.1562 ZM219.9834 8.4062 Q221.1553 8.4062 221.8271 9.1641 Q222.499 9.9219 222.499 11.2656 Q222.499 12.6094 221.8271 13.375 Q221.1553 14.1406 219.9834 14.1406 Q218.8115 14.1406 218.1396 13.375 Q217.4678 12.6094 217.4678 11.2656 Q217.4678 9.9219 218.1396 9.1641 Q218.8115 8.4062 219.9834 8.4062 ZM223.9766 6.4062 L224.8828 6.4062 L224.8828 14 L223.9766 14 L223.9766 6.4062 ZM229.0361 14.5156 Q228.6611 15.4844 228.2939 15.7812 Q227.9268 16.0781 227.333 16.0781 L226.6143 16.0781 L226.6143 15.3281 L227.1299 15.3281 Q227.5049 15.3281 227.708 15.1562 Q227.9111 14.9844 228.1611 14.3281 L228.333 13.9062 L226.1143 8.5312 L227.0674 8.5312 L228.7705 12.8125 L230.4893 8.5312 L231.4424 8.5312 L229.0361 14.5156 ZM236.1572 8.6875 L236.1572 9.5469 Q235.7822 9.3438 235.376 9.25 Q234.9697 9.1562 234.5166 9.1562 Q233.8604 9.1562 233.5244 9.3594 Q233.1885 9.5625 233.1885 9.9688 Q233.1885 10.2812 233.4229 10.4609 Q233.6572 10.6406 234.3916 10.7969 L234.6885 10.875 Q235.6572 11.0781 236.0557 11.4531 Q236.4541 11.8281 236.4541 12.4844 Q236.4541 13.25 235.8525 13.6953 Q235.251 14.1406 234.2041 14.1406 Q233.751 14.1406 233.2744 14.0547 Q232.7979 13.9688 232.2822 13.7969 L232.2822 12.875 Q232.7822 13.125 233.2588 13.2578 Q233.7354 13.3906 234.2197 13.3906 Q234.8447 13.3906 235.1885 13.1719 Q235.5322 12.9531 235.5322 12.5625 Q235.5322 12.1875 235.29 11.9922 Q235.0479 11.7969 234.2041 11.625 L233.8916 11.5469 Q233.0635 11.375 232.6885 11.0078 Q232.3135 10.6406 232.3135 10.0156 Q232.3135 9.2344 232.8604 8.8203 Q233.4072 8.4062 234.4229 8.4062 Q234.9072 8.4062 235.3525 8.4766 Q235.7979 8.5469 236.1572 8.6875 ZM237.8828 8.5312 L238.7891 8.5312 L238.7891 14 L237.8828 14 L237.8828 8.5312 ZM237.8828 6.4062 L238.7891 6.4062 L238.7891 7.5469 L237.8828 7.5469 L237.8828 6.4062 ZM244.1455 8.6875 L244.1455 9.5469 Q243.7705 9.3438 243.3643 9.25 Q242.958 9.1562 242.5049 9.1562 Q241.8486 9.1562 241.5127 9.3594 Q241.1768 9.5625 241.1768 9.9688 Q241.1768 10.2812 241.4111 10.4609 Q241.6455 10.6406 242.3799 10.7969 L242.6768 10.875 Q243.6455 11.0781 244.0439 11.4531 Q244.4424 11.8281 244.4424 12.4844 Q244.4424 13.25 243.8408 13.6953 Q243.2393 14.1406 242.1924 14.1406 Q241.7393 14.1406 241.2627 14.0547 Q240.7861 13.9688 240.2705 13.7969 L240.2705 12.875 Q240.7705 13.125 241.2471 13.2578 Q241.7236 13.3906 242.208 13.3906 Q242.833 13.3906 243.1768 13.1719 Q243.5205 12.9531 243.5205 12.5625 Q243.5205 12.1875 243.2783 11.9922 Q243.0361 11.7969 242.1924 11.625 L241.8799 11.5469 Q241.0518 11.375 240.6768 11.0078 Q240.3018 10.6406 240.3018 10.0156 Q240.3018 9.2344 240.8486 8.8203 Q241.3955 8.4062 242.4111 8.4062 Q242.8955 8.4062 243.3408 8.4766 Q243.7861 8.5469 244.1455 8.6875 Z"
         style="clip-path:url(#clipPath2); stroke:none;"
         clip-path="url(#clipPath2)"
         id="path154" />
      <path
         d="M0.9219 19.7031 L2.7969 19.7031 L2.7969 25.5781 L6.0938 25.5781 L6.0938 27 L0.9219 27 L0.9219 19.7031 ZM9.6689 24.5312 Q9.1221 24.5312 8.8408 24.7188 Q8.5596 24.9062 8.5596 25.2656 Q8.5596 25.6094 8.7861 25.7969 Q9.0127 25.9844 9.4033 25.9844 Q9.9033 25.9844 10.2393 25.625 Q10.5752 25.2656 10.5752 24.7344 L10.5752 24.5312 L9.6689 24.5312 ZM12.3408 23.875 L12.3408 27 L10.5752 27 L10.5752 26.1875 Q10.2158 26.6875 9.7783 26.9141 Q9.3408 27.1406 8.7158 27.1406 Q7.8564 27.1406 7.333 26.6484 Q6.8096 26.1562 6.8096 25.3594 Q6.8096 24.3906 7.4658 23.9453 Q8.1221 23.5 9.5439 23.5 L10.5752 23.5 L10.5752 23.3594 Q10.5752 22.9531 10.2471 22.7578 Q9.9189 22.5625 9.2314 22.5625 Q8.6689 22.5625 8.1846 22.6719 Q7.7002 22.7812 7.2783 23.0156 L7.2783 21.6719 Q7.8408 21.5469 8.4111 21.4766 Q8.9814 21.4062 9.5439 21.4062 Q11.0283 21.4062 11.6846 21.9844 Q12.3408 22.5625 12.3408 23.875 ZM18.2295 21.7031 L18.2295 23.0312 Q17.667 22.7969 17.1436 22.6797 Q16.6201 22.5625 16.167 22.5625 Q15.667 22.5625 15.4248 22.6875 Q15.1826 22.8125 15.1826 23.0625 Q15.1826 23.2812 15.3623 23.3906 Q15.542 23.5 16.0264 23.5625 L16.3232 23.5938 Q17.667 23.7656 18.1357 24.1562 Q18.6045 24.5469 18.6045 25.3906 Q18.6045 26.2656 17.9561 26.7031 Q17.3076 27.1406 16.0264 27.1406 Q15.4951 27.1406 14.917 27.0547 Q14.3389 26.9688 13.7139 26.7969 L13.7139 25.4688 Q14.2451 25.7188 14.792 25.8516 Q15.3389 25.9844 15.9014 25.9844 Q16.417 25.9844 16.6748 25.8438 Q16.9326 25.7031 16.9326 25.4219 Q16.9326 25.1875 16.7607 25.0703 Q16.5889 24.9531 16.0576 24.8906 L15.7451 24.8438 Q14.5732 24.7031 14.1045 24.3047 Q13.6357 23.9062 13.6357 23.1094 Q13.6357 22.2344 14.2295 21.8203 Q14.8232 21.4062 16.0576 21.4062 Q16.542 21.4062 17.0732 21.4766 Q17.6045 21.5469 18.2295 21.7031 ZM21.8223 19.9844 L21.8223 21.5312 L23.6191 21.5312 L23.6191 22.7812 L21.8223 22.7812 L21.8223 25.0938 Q21.8223 25.4844 21.9707 25.6172 Q22.1191 25.75 22.5723 25.75 L23.4785 25.75 L23.4785 27 L21.9785 27 Q20.9316 27 20.502 26.5703 Q20.0723 26.1406 20.0723 25.0938 L20.0723 22.7812 L19.1973 22.7812 L19.1973 21.5312 L20.0723 21.5312 L20.0723 19.9844 L21.8223 19.9844 ZM33.2402 22.4375 Q33.5684 21.9375 34.0293 21.6719 Q34.4902 21.4062 35.0371 21.4062 Q35.9746 21.4062 36.4668 21.9844 Q36.959 22.5625 36.959 23.6719 L36.959 27 L35.209 27 L35.209 24.1406 Q35.209 24.0781 35.209 24.0156 Q35.209 23.9531 35.209 23.8281 Q35.209 23.2344 35.0449 22.9766 Q34.8809 22.7188 34.4902 22.7188 Q33.9902 22.7188 33.7246 23.125 Q33.459 23.5312 33.4434 24.3125 L33.4434 27 L31.6777 27 L31.6777 24.1406 Q31.6777 23.2344 31.5215 22.9766 Q31.3652 22.7188 30.9746 22.7188 Q30.4746 22.7188 30.2012 23.1328 Q29.9277 23.5469 29.9277 24.3125 L29.9277 27 L28.1621 27 L28.1621 21.5312 L29.9277 21.5312 L29.9277 22.3281 Q30.2402 21.875 30.6621 21.6406 Q31.084 21.4062 31.584 21.4062 Q32.1465 21.4062 32.584 21.6797 Q33.0215 21.9531 33.2402 22.4375 ZM41.1914 22.6562 Q40.6133 22.6562 40.3086 23.0703 Q40.0039 23.4844 40.0039 24.2656 Q40.0039 25.0625 40.3086 25.4766 Q40.6133 25.8906 41.1914 25.8906 Q41.7695 25.8906 42.0742 25.4766 Q42.3789 25.0625 42.3789 24.2656 Q42.3789 23.4844 42.0742 23.0703 Q41.7695 22.6562 41.1914 22.6562 ZM41.1914 21.4062 Q42.6133 21.4062 43.4023 22.1641 Q44.1914 22.9219 44.1914 24.2656 Q44.1914 25.625 43.4023 26.3828 Q42.6133 27.1406 41.1914 27.1406 Q39.7852 27.1406 38.9883 26.3828 Q38.1914 25.625 38.1914 24.2656 Q38.1914 22.9219 38.9883 22.1641 Q39.7852 21.4062 41.1914 21.4062 ZM49.1865 22.3281 L49.1865 19.4062 L50.9365 19.4062 L50.9365 27 L49.1865 27 L49.1865 26.2031 Q48.8271 26.6875 48.3896 26.9141 Q47.9521 27.1406 47.3896 27.1406 Q46.374 27.1406 45.7256 26.3359 Q45.0771 25.5312 45.0771 24.2656 Q45.0771 23 45.7256 22.2031 Q46.374 21.4062 47.3896 21.4062 Q47.9521 21.4062 48.3896 21.6328 Q48.8271 21.8594 49.1865 22.3281 ZM48.0303 25.875 Q48.5928 25.875 48.8896 25.4609 Q49.1865 25.0469 49.1865 24.2656 Q49.1865 23.4844 48.8896 23.0781 Q48.5928 22.6719 48.0303 22.6719 Q47.4834 22.6719 47.1865 23.0781 Q46.8896 23.4844 46.8896 24.2656 Q46.8896 25.0469 47.1865 25.4609 Q47.4834 25.875 48.0303 25.875 ZM52.626 21.5312 L54.376 21.5312 L54.376 27 L52.626 27 L52.626 21.5312 ZM52.626 19.4062 L54.376 19.4062 L54.376 20.8281 L52.626 20.8281 L52.626 19.4062 ZM59.6475 19.4062 L59.6475 20.5469 L58.6787 20.5469 Q58.3037 20.5469 58.1631 20.6797 Q58.0225 20.8125 58.0225 21.1562 L58.0225 21.5312 L59.5068 21.5312 L59.5068 22.7812 L58.0225 22.7812 L58.0225 27 L56.2725 27 L56.2725 22.7812 L55.3975 22.7812 L55.3975 21.5312 L56.2725 21.5312 L56.2725 21.1562 Q56.2725 20.25 56.7725 19.8281 Q57.2725 19.4062 58.3037 19.4062 L59.6475 19.4062 ZM60.4043 21.5312 L62.1543 21.5312 L62.1543 27 L60.4043 27 L60.4043 21.5312 ZM60.4043 19.4062 L62.1543 19.4062 L62.1543 20.8281 L60.4043 20.8281 L60.4043 19.4062 ZM69.2852 24.25 L69.2852 24.75 L65.207 24.75 Q65.2695 25.3594 65.6445 25.6719 Q66.0195 25.9844 66.707 25.9844 Q67.2539 25.9844 67.8398 25.8203 Q68.4258 25.6562 69.0352 25.3125 L69.0352 26.6719 Q68.4102 26.9062 67.793 27.0234 Q67.1758 27.1406 66.5508 27.1406 Q65.0664 27.1406 64.2461 26.3828 Q63.4258 25.625 63.4258 24.2656 Q63.4258 22.9375 64.2305 22.1719 Q65.0352 21.4062 66.457 21.4062 Q67.7383 21.4062 68.5117 22.1797 Q69.2852 22.9531 69.2852 24.25 ZM67.4883 23.6719 Q67.4883 23.1719 67.1992 22.8672 Q66.9102 22.5625 66.4414 22.5625 Q65.9258 22.5625 65.6133 22.8438 Q65.3008 23.125 65.2227 23.6719 L67.4883 23.6719 ZM74.333 22.3281 L74.333 19.4062 L76.083 19.4062 L76.083 27 L74.333 27 L74.333 26.2031 Q73.9736 26.6875 73.5361 26.9141 Q73.0986 27.1406 72.5361 27.1406 Q71.5205 27.1406 70.8721 26.3359 Q70.2236 25.5312 70.2236 24.2656 Q70.2236 23 70.8721 22.2031 Q71.5205 21.4062 72.5361 21.4062 Q73.0986 21.4062 73.5361 21.6328 Q73.9736 21.8594 74.333 22.3281 ZM73.1768 25.875 Q73.7393 25.875 74.0361 25.4609 Q74.333 25.0469 74.333 24.2656 Q74.333 23.4844 74.0361 23.0781 Q73.7393 22.6719 73.1768 22.6719 Q72.6299 22.6719 72.333 23.0781 Q72.0361 23.4844 72.0361 24.2656 Q72.0361 25.0469 72.333 25.4609 Q72.6299 25.875 73.1768 25.875 ZM78.0537 21.5312 L79.8037 21.5312 L79.8037 23.4219 L78.0537 23.4219 L78.0537 21.5312 ZM78.0537 25.1094 L79.8037 25.1094 L79.8037 27 L78.0537 27 L78.0537 25.1094 Z"
         style="clip-path:url(#clipPath2); stroke:none;"
         clip-path="url(#clipPath2)"
         id="path156" />
      <path
         d="M89.2344 26.1719 L90.8594 26.1719 L90.8594 20.6094 L89.0938 20.9531 L89.0938 20.0625 L90.8438 19.7031 L91.8281 19.7031 L91.8281 26.1719 L93.4375 26.1719 L93.4375 27 L89.2344 27 L89.2344 26.1719 ZM97.5342 20.3594 Q96.7842 20.3594 96.4014 21.1094 Q96.0186 21.8594 96.0186 23.3594 Q96.0186 24.8594 96.4014 25.6094 Q96.7842 26.3594 97.5342 26.3594 Q98.3154 26.3594 98.6982 25.6094 Q99.0811 24.8594 99.0811 23.3594 Q99.0811 21.8594 98.6982 21.1094 Q98.3154 20.3594 97.5342 20.3594 ZM97.5342 19.5781 Q98.7686 19.5781 99.417 20.5469 Q100.0654 21.5156 100.0654 23.3594 Q100.0654 25.2031 99.417 26.1719 Q98.7686 27.1406 97.5342 27.1406 Q96.3154 27.1406 95.667 26.1719 Q95.0186 25.2031 95.0186 23.3594 Q95.0186 21.5156 95.667 20.5469 Q96.3154 19.5781 97.5342 19.5781 ZM103.2715 19.7031 L104.0996 19.7031 L101.5527 27.9219 L100.7246 27.9219 L103.2715 19.7031 ZM105.3281 26.1719 L106.9531 26.1719 L106.9531 20.6094 L105.1875 20.9531 L105.1875 20.0625 L106.9375 19.7031 L107.9219 19.7031 L107.9219 26.1719 L109.5312 26.1719 L109.5312 27 L105.3281 27 L105.3281 26.1719 ZM113.7529 22.9688 Q113.0967 22.9688 112.7061 23.4219 Q112.3154 23.875 112.3154 24.6562 Q112.3154 25.4531 112.7061 25.9062 Q113.0967 26.3594 113.7529 26.3594 Q114.4248 26.3594 114.8076 25.9062 Q115.1904 25.4531 115.1904 24.6562 Q115.1904 23.875 114.8076 23.4219 Q114.4248 22.9688 113.7529 22.9688 ZM115.7217 19.875 L115.7217 20.7656 Q115.3467 20.5938 114.9639 20.5 Q114.5811 20.4062 114.2217 20.4062 Q113.2373 20.4062 112.7217 21.0625 Q112.2061 21.7188 112.1436 23.0625 Q112.4248 22.6406 112.8623 22.4141 Q113.2998 22.1875 113.8154 22.1875 Q114.9092 22.1875 115.5498 22.8516 Q116.1904 23.5156 116.1904 24.6562 Q116.1904 25.7812 115.5264 26.4609 Q114.8623 27.1406 113.7529 27.1406 Q112.4873 27.1406 111.8232 26.1719 Q111.1592 25.2031 111.1592 23.3594 Q111.1592 21.6406 111.9795 20.6094 Q112.7998 19.5781 114.1748 19.5781 Q114.5498 19.5781 114.9248 19.6484 Q115.2998 19.7188 115.7217 19.875 ZM119.3652 19.7031 L120.1934 19.7031 L117.6465 27.9219 L116.8184 27.9219 L119.3652 19.7031 ZM122.1094 26.1719 L125.5469 26.1719 L125.5469 27 L120.9219 27 L120.9219 26.1719 Q121.4844 25.5938 122.4531 24.6094 Q123.4219 23.625 123.6719 23.3438 Q124.1406 22.8125 124.3281 22.4453 Q124.5156 22.0781 124.5156 21.7188 Q124.5156 21.1406 124.1094 20.7734 Q123.7031 20.4062 123.0469 20.4062 Q122.5781 20.4062 122.0703 20.5703 Q121.5625 20.7344 120.9688 21.0625 L120.9688 20.0625 Q121.5625 19.8281 122.0781 19.7031 Q122.5938 19.5781 123.0312 19.5781 Q124.1562 19.5781 124.8359 20.1406 Q125.5156 20.7031 125.5156 21.6562 Q125.5156 22.1094 125.3438 22.5078 Q125.1719 22.9062 124.7344 23.4531 Q124.6094 23.5938 123.9531 24.2734 Q123.2969 24.9531 122.1094 26.1719 ZM129.7217 20.3594 Q128.9717 20.3594 128.5889 21.1094 Q128.2061 21.8594 128.2061 23.3594 Q128.2061 24.8594 128.5889 25.6094 Q128.9717 26.3594 129.7217 26.3594 Q130.5029 26.3594 130.8857 25.6094 Q131.2686 24.8594 131.2686 23.3594 Q131.2686 21.8594 130.8857 21.1094 Q130.5029 20.3594 129.7217 20.3594 ZM129.7217 19.5781 Q130.9561 19.5781 131.6045 20.5469 Q132.2529 21.5156 132.2529 23.3594 Q132.2529 25.2031 131.6045 26.1719 Q130.9561 27.1406 129.7217 27.1406 Q128.5029 27.1406 127.8545 26.1719 Q127.2061 25.2031 127.2061 23.3594 Q127.2061 21.5156 127.8545 20.5469 Q128.5029 19.5781 129.7217 19.5781 ZM134.1465 26.1719 L135.7715 26.1719 L135.7715 20.6094 L134.0059 20.9531 L134.0059 20.0625 L135.7559 19.7031 L136.7402 19.7031 L136.7402 26.1719 L138.3496 26.1719 L138.3496 27 L134.1465 27 L134.1465 26.1719 ZM143.3369 23.0625 Q144.04 23.2188 144.4385 23.6953 Q144.8369 24.1719 144.8369 24.875 Q144.8369 25.9531 144.0947 26.5469 Q143.3525 27.1406 141.9775 27.1406 Q141.5244 27.1406 141.04 27.0469 Q140.5557 26.9531 140.04 26.7812 L140.04 25.8281 Q140.4463 26.0625 140.9385 26.1875 Q141.4307 26.3125 141.9619 26.3125 Q142.8838 26.3125 143.3682 25.9453 Q143.8525 25.5781 143.8525 24.875 Q143.8525 24.2344 143.3994 23.875 Q142.9463 23.5156 142.1494 23.5156 L141.29 23.5156 L141.29 22.7031 L142.1807 22.7031 Q142.915 22.7031 143.2979 22.4062 Q143.6807 22.1094 143.6807 21.5625 Q143.6807 21.0156 143.2822 20.7109 Q142.8838 20.4062 142.1494 20.4062 Q141.7432 20.4062 141.2744 20.4922 Q140.8057 20.5781 140.2588 20.7656 L140.2588 19.8906 Q140.8213 19.7344 141.3135 19.6562 Q141.8057 19.5781 142.2275 19.5781 Q143.3525 19.5781 144.0088 20.0859 Q144.665 20.5938 144.665 21.4688 Q144.665 22.0781 144.3213 22.4922 Q143.9775 22.9062 143.3369 23.0625 Z"
         style="clip-path:url(#clipPath2); stroke:none;"
         clip-path="url(#clipPath2)"
         id="path158" />
      <path
         d="M4.25 34.9375 Q3.3906 34.9375 2.9141 35.5703 Q2.4375 36.2031 2.4375 37.3594 Q2.4375 38.5156 2.9141 39.1484 Q3.3906 39.7812 4.25 39.7812 Q5.1094 39.7812 5.5859 39.1484 Q6.0625 38.5156 6.0625 37.3594 Q6.0625 36.2031 5.5859 35.5703 Q5.1094 34.9375 4.25 34.9375 ZM4.25 33.5781 Q6 33.5781 7 34.5859 Q8 35.5938 8 37.3594 Q8 39.125 7 40.1328 Q6 41.1406 4.25 41.1406 Q2.5 41.1406 1.5 40.1328 Q0.5 39.125 0.5 37.3594 Q0.5 35.5938 1.5 34.5859 Q2.5 33.5781 4.25 33.5781 ZM13.4072 37.0156 Q13.1729 36.9062 12.9463 36.8594 Q12.7197 36.8125 12.4854 36.8125 Q11.8135 36.8125 11.4541 37.2422 Q11.0947 37.6719 11.0947 38.4844 L11.0947 41 L9.3447 41 L9.3447 35.5312 L11.0947 35.5312 L11.0947 36.4219 Q11.4229 35.8906 11.8604 35.6484 Q12.2979 35.4062 12.9072 35.4062 Q13.001 35.4062 13.1025 35.4062 Q13.2041 35.4062 13.3916 35.4375 L13.4072 37.0156 ZM17.9951 40.0781 Q17.6357 40.5469 17.1982 40.7734 Q16.7607 41 16.1982 41 Q15.1982 41 14.542 40.2109 Q13.8857 39.4219 13.8857 38.2031 Q13.8857 36.9688 14.542 36.1875 Q15.1982 35.4062 16.1982 35.4062 Q16.7607 35.4062 17.1982 35.6328 Q17.6357 35.8594 17.9951 36.3438 L17.9951 35.5312 L19.7451 35.5312 L19.7451 40.4531 Q19.7451 41.7656 18.917 42.4609 Q18.0889 43.1562 16.5107 43.1562 Q15.9951 43.1562 15.5186 43.0781 Q15.042 43 14.5576 42.8438 L14.5576 41.4844 Q15.0107 41.75 15.4482 41.875 Q15.8857 42 16.3389 42 Q17.1982 42 17.5967 41.625 Q17.9951 41.25 17.9951 40.4531 L17.9951 40.0781 ZM16.8389 36.6719 Q16.292 36.6719 15.9951 37.0703 Q15.6982 37.4688 15.6982 38.2031 Q15.6982 38.9531 15.9873 39.3438 Q16.2764 39.7344 16.8389 39.7344 Q17.3857 39.7344 17.6904 39.3281 Q17.9951 38.9219 17.9951 38.2031 Q17.9951 37.4688 17.6904 37.0703 Q17.3857 36.6719 16.8389 36.6719 ZM23.8877 38.5312 Q23.3408 38.5312 23.0596 38.7188 Q22.7783 38.9062 22.7783 39.2656 Q22.7783 39.6094 23.0049 39.7969 Q23.2314 39.9844 23.6221 39.9844 Q24.1221 39.9844 24.458 39.625 Q24.7939 39.2656 24.7939 38.7344 L24.7939 38.5312 L23.8877 38.5312 ZM26.5596 37.875 L26.5596 41 L24.7939 41 L24.7939 40.1875 Q24.4346 40.6875 23.9971 40.9141 Q23.5596 41.1406 22.9346 41.1406 Q22.0752 41.1406 21.5518 40.6484 Q21.0283 40.1562 21.0283 39.3594 Q21.0283 38.3906 21.6846 37.9453 Q22.3408 37.5 23.7627 37.5 L24.7939 37.5 L24.7939 37.3594 Q24.7939 36.9531 24.4658 36.7578 Q24.1377 36.5625 23.4502 36.5625 Q22.8877 36.5625 22.4033 36.6719 Q21.9189 36.7812 21.4971 37.0156 L21.4971 35.6719 Q22.0596 35.5469 22.6299 35.4766 Q23.2002 35.4062 23.7627 35.4062 Q25.2471 35.4062 25.9033 35.9844 Q26.5596 36.5625 26.5596 37.875 ZM33.6826 37.6719 L33.6826 41 L31.917 41 L31.917 40.4531 L31.917 38.4531 Q31.917 37.75 31.8857 37.4766 Q31.8545 37.2031 31.7764 37.0781 Q31.6826 36.9062 31.5029 36.8125 Q31.3232 36.7188 31.1045 36.7188 Q30.5576 36.7188 30.2451 37.1406 Q29.9326 37.5625 29.9326 38.3125 L29.9326 41 L28.1826 41 L28.1826 35.5312 L29.9326 35.5312 L29.9326 36.3281 Q30.3232 35.8594 30.7686 35.6328 Q31.2139 35.4062 31.7451 35.4062 Q32.6982 35.4062 33.1904 35.9844 Q33.6826 36.5625 33.6826 37.6719 ZM35.3018 35.5312 L37.0518 35.5312 L37.0518 41 L35.3018 41 L35.3018 35.5312 ZM35.3018 33.4062 L37.0518 33.4062 L37.0518 34.8281 L35.3018 34.8281 L35.3018 33.4062 ZM42.9951 35.7031 L42.9951 37.0312 Q42.4326 36.7969 41.9092 36.6797 Q41.3857 36.5625 40.9326 36.5625 Q40.4326 36.5625 40.1904 36.6875 Q39.9482 36.8125 39.9482 37.0625 Q39.9482 37.2812 40.1279 37.3906 Q40.3076 37.5 40.792 37.5625 L41.0889 37.5938 Q42.4326 37.7656 42.9014 38.1562 Q43.3701 38.5469 43.3701 39.3906 Q43.3701 40.2656 42.7217 40.7031 Q42.0732 41.1406 40.792 41.1406 Q40.2607 41.1406 39.6826 41.0547 Q39.1045 40.9688 38.4795 40.7969 L38.4795 39.4688 Q39.0107 39.7188 39.5576 39.8516 Q40.1045 39.9844 40.667 39.9844 Q41.1826 39.9844 41.4404 39.8438 Q41.6982 39.7031 41.6982 39.4219 Q41.6982 39.1875 41.5264 39.0703 Q41.3545 38.9531 40.8232 38.8906 L40.5107 38.8438 Q39.3389 38.7031 38.8701 38.3047 Q38.4014 37.9062 38.4014 37.1094 Q38.4014 36.2344 38.9951 35.8203 Q39.5889 35.4062 40.8232 35.4062 Q41.3076 35.4062 41.8389 35.4766 Q42.3701 35.5469 42.9951 35.7031 ZM49.7441 36.4375 Q50.0723 35.9375 50.5332 35.6719 Q50.9941 35.4062 51.541 35.4062 Q52.4785 35.4062 52.9707 35.9844 Q53.4629 36.5625 53.4629 37.6719 L53.4629 41 L51.7129 41 L51.7129 38.1406 Q51.7129 38.0781 51.7129 38.0156 Q51.7129 37.9531 51.7129 37.8281 Q51.7129 37.2344 51.5488 36.9766 Q51.3848 36.7188 50.9941 36.7188 Q50.4941 36.7188 50.2285 37.125 Q49.9629 37.5312 49.9473 38.3125 L49.9473 41 L48.1816 41 L48.1816 38.1406 Q48.1816 37.2344 48.0254 36.9766 Q47.8691 36.7188 47.4785 36.7188 Q46.9785 36.7188 46.7051 37.1328 Q46.4316 37.5469 46.4316 38.3125 L46.4316 41 L44.666 41 L44.666 35.5312 L46.4316 35.5312 L46.4316 36.3281 Q46.7441 35.875 47.166 35.6406 Q47.5879 35.4062 48.0879 35.4062 Q48.6504 35.4062 49.0879 35.6797 Q49.5254 35.9531 49.7441 36.4375 ZM55.3828 35.5312 L57.1328 35.5312 L57.1328 37.4219 L55.3828 37.4219 L55.3828 35.5312 ZM55.3828 39.1094 L57.1328 39.1094 L57.1328 41 L55.3828 41 L55.3828 39.1094 Z"
         style="clip-path:url(#clipPath2); stroke:none;"
         clip-path="url(#clipPath2)"
         id="path160" />
      <path
         d="M66.9844 33.7031 L67.9688 33.7031 L67.9688 36.7031 L71.5469 36.7031 L71.5469 33.7031 L72.5312 33.7031 L72.5312 41 L71.5469 41 L71.5469 37.5312 L67.9688 37.5312 L67.9688 41 L66.9844 41 L66.9844 33.7031 ZM76.582 36.1562 Q75.8633 36.1562 75.4414 36.7188 Q75.0195 37.2812 75.0195 38.2656 Q75.0195 39.25 75.4336 39.8125 Q75.8477 40.375 76.582 40.375 Q77.3008 40.375 77.7227 39.8125 Q78.1445 39.25 78.1445 38.2656 Q78.1445 37.2969 77.7227 36.7266 Q77.3008 36.1562 76.582 36.1562 ZM76.582 35.4062 Q77.7539 35.4062 78.4258 36.1641 Q79.0977 36.9219 79.0977 38.2656 Q79.0977 39.6094 78.4258 40.375 Q77.7539 41.1406 76.582 41.1406 Q75.4102 41.1406 74.7383 40.375 Q74.0664 39.6094 74.0664 38.2656 Q74.0664 36.9219 74.7383 36.1641 Q75.4102 35.4062 76.582 35.4062 ZM84.8408 36.5781 Q85.1689 35.9688 85.6377 35.6875 Q86.1064 35.4062 86.7471 35.4062 Q87.6064 35.4062 88.0674 36 Q88.5283 36.5938 88.5283 37.7031 L88.5283 41 L87.6221 41 L87.6221 37.7344 Q87.6221 36.9375 87.3486 36.5625 Q87.0752 36.1875 86.4971 36.1875 Q85.7939 36.1875 85.3955 36.6484 Q84.9971 37.1094 84.9971 37.9062 L84.9971 41 L84.0908 41 L84.0908 37.7344 Q84.0908 36.9375 83.8096 36.5625 Q83.5283 36.1875 82.9502 36.1875 Q82.2627 36.1875 81.8564 36.6484 Q81.4502 37.1094 81.4502 37.9062 L81.4502 41 L80.5439 41 L80.5439 35.5312 L81.4502 35.5312 L81.4502 36.375 Q81.7627 35.875 82.1924 35.6406 Q82.6221 35.4062 83.2002 35.4062 Q83.8096 35.4062 84.2236 35.7031 Q84.6377 36 84.8408 36.5781 ZM92.4414 36.1562 Q91.7227 36.1562 91.3008 36.7188 Q90.8789 37.2812 90.8789 38.2656 Q90.8789 39.25 91.293 39.8125 Q91.707 40.375 92.4414 40.375 Q93.1602 40.375 93.582 39.8125 Q94.0039 39.25 94.0039 38.2656 Q94.0039 37.2969 93.582 36.7266 Q93.1602 36.1562 92.4414 36.1562 ZM92.4414 35.4062 Q93.6133 35.4062 94.2852 36.1641 Q94.957 36.9219 94.957 38.2656 Q94.957 39.6094 94.2852 40.375 Q93.6133 41.1406 92.4414 41.1406 Q91.2695 41.1406 90.5977 40.375 Q89.9258 39.6094 89.9258 38.2656 Q89.9258 36.9219 90.5977 36.1641 Q91.2695 35.4062 92.4414 35.4062 ZM103.0977 35.6875 L103.0977 36.5469 Q102.7227 36.3438 102.3164 36.25 Q101.9102 36.1562 101.457 36.1562 Q100.8008 36.1562 100.4648 36.3594 Q100.1289 36.5625 100.1289 36.9688 Q100.1289 37.2812 100.3633 37.4609 Q100.5977 37.6406 101.332 37.7969 L101.6289 37.875 Q102.5977 38.0781 102.9961 38.4531 Q103.3945 38.8281 103.3945 39.4844 Q103.3945 40.25 102.793 40.6953 Q102.1914 41.1406 101.1445 41.1406 Q100.6914 41.1406 100.2148 41.0547 Q99.7383 40.9688 99.2227 40.7969 L99.2227 39.875 Q99.7227 40.125 100.1992 40.2578 Q100.6758 40.3906 101.1602 40.3906 Q101.7852 40.3906 102.1289 40.1719 Q102.4727 39.9531 102.4727 39.5625 Q102.4727 39.1875 102.2305 38.9922 Q101.9883 38.7969 101.1445 38.625 L100.832 38.5469 Q100.0039 38.375 99.6289 38.0078 Q99.2539 37.6406 99.2539 37.0156 Q99.2539 36.2344 99.8008 35.8203 Q100.3477 35.4062 101.3633 35.4062 Q101.8477 35.4062 102.293 35.4766 Q102.7383 35.5469 103.0977 35.6875 ZM107.3076 38.25 Q106.2295 38.25 105.8076 38.5 Q105.3857 38.75 105.3857 39.3438 Q105.3857 39.8281 105.6982 40.1094 Q106.0107 40.3906 106.5576 40.3906 Q107.3076 40.3906 107.7607 39.8594 Q108.2139 39.3281 108.2139 38.4531 L108.2139 38.25 L107.3076 38.25 ZM109.1045 37.875 L109.1045 41 L108.2139 41 L108.2139 40.1719 Q107.9014 40.6719 107.4404 40.9062 Q106.9795 41.1406 106.3232 41.1406 Q105.4795 41.1406 104.9795 40.6719 Q104.4795 40.2031 104.4795 39.4062 Q104.4795 38.4844 105.1045 38.0156 Q105.7295 37.5469 106.9482 37.5469 L108.2139 37.5469 L108.2139 37.4531 Q108.2139 36.8438 107.7998 36.5 Q107.3857 36.1562 106.6514 36.1562 Q106.1826 36.1562 105.7373 36.2734 Q105.292 36.3906 104.8857 36.6094 L104.8857 35.7812 Q105.3857 35.5938 105.8467 35.5 Q106.3076 35.4062 106.7451 35.4062 Q107.9326 35.4062 108.5186 36.0156 Q109.1045 36.625 109.1045 37.875 ZM111.8262 40.1719 L111.8262 43.0781 L110.9199 43.0781 L110.9199 35.5312 L111.8262 35.5312 L111.8262 36.3594 Q112.1074 35.875 112.5371 35.6406 Q112.9668 35.4062 113.5762 35.4062 Q114.5762 35.4062 115.1934 36.1953 Q115.8105 36.9844 115.8105 38.2656 Q115.8105 39.5625 115.1934 40.3516 Q114.5762 41.1406 113.5762 41.1406 Q112.9668 41.1406 112.5371 40.9062 Q112.1074 40.6719 111.8262 40.1719 ZM114.8887 38.2656 Q114.8887 37.2812 114.4746 36.7188 Q114.0605 36.1562 113.3574 36.1562 Q112.6387 36.1562 112.2324 36.7188 Q111.8262 37.2812 111.8262 38.2656 Q111.8262 39.2656 112.2324 39.8281 Q112.6387 40.3906 113.3574 40.3906 Q114.0605 40.3906 114.4746 39.8281 Q114.8887 39.2656 114.8887 38.2656 ZM117.2988 35.5312 L118.2051 35.5312 L118.2051 41 L117.2988 41 L117.2988 35.5312 ZM117.2988 33.4062 L118.2051 33.4062 L118.2051 34.5469 L117.2988 34.5469 L117.2988 33.4062 ZM124.7646 38.0469 L124.7646 38.4844 L120.624 38.4844 Q120.6865 39.4062 121.1865 39.8906 Q121.6865 40.375 122.5771 40.375 Q123.0928 40.375 123.585 40.25 Q124.0771 40.125 124.5459 39.875 L124.5459 40.7188 Q124.0615 40.9219 123.5537 41.0312 Q123.0459 41.1406 122.5303 41.1406 Q121.2178 41.1406 120.4521 40.3828 Q119.6865 39.625 119.6865 38.3125 Q119.6865 36.9688 120.4131 36.1875 Q121.1396 35.4062 122.374 35.4062 Q123.4834 35.4062 124.124 36.1094 Q124.7646 36.8125 124.7646 38.0469 ZM123.8584 37.7812 Q123.8584 37.0469 123.4521 36.6016 Q123.0459 36.1562 122.3896 36.1562 Q121.624 36.1562 121.1787 36.5859 Q120.7334 37.0156 120.6553 37.7812 L123.8584 37.7812 ZM130.7764 37.7031 L130.7764 41 L129.8857 41 L129.8857 37.7344 Q129.8857 36.9531 129.5811 36.5703 Q129.2764 36.1875 128.667 36.1875 Q127.9482 36.1875 127.5264 36.6484 Q127.1045 37.1094 127.1045 37.9062 L127.1045 41 L126.1982 41 L126.1982 35.5312 L127.1045 35.5312 L127.1045 36.375 Q127.4326 35.8906 127.8701 35.6484 Q128.3076 35.4062 128.8701 35.4062 Q129.8076 35.4062 130.292 35.9844 Q130.7764 36.5625 130.7764 37.7031 ZM136.0518 35.6875 L136.0518 36.5469 Q135.6768 36.3438 135.2705 36.25 Q134.8643 36.1562 134.4111 36.1562 Q133.7549 36.1562 133.4189 36.3594 Q133.083 36.5625 133.083 36.9688 Q133.083 37.2812 133.3174 37.4609 Q133.5518 37.6406 134.2861 37.7969 L134.583 37.875 Q135.5518 38.0781 135.9502 38.4531 Q136.3486 38.8281 136.3486 39.4844 Q136.3486 40.25 135.7471 40.6953 Q135.1455 41.1406 134.0986 41.1406 Q133.6455 41.1406 133.1689 41.0547 Q132.6924 40.9688 132.1768 40.7969 L132.1768 39.875 Q132.6768 40.125 133.1533 40.2578 Q133.6299 40.3906 134.1143 40.3906 Q134.7393 40.3906 135.083 40.1719 Q135.4268 39.9531 135.4268 39.5625 Q135.4268 39.1875 135.1846 38.9922 Q134.9424 38.7969 134.0986 38.625 L133.7861 38.5469 Q132.958 38.375 132.583 38.0078 Q132.208 37.6406 132.208 37.0156 Q132.208 36.2344 132.7549 35.8203 Q133.3018 35.4062 134.3174 35.4062 Q134.8018 35.4062 135.2471 35.4766 Q135.6924 35.5469 136.0518 35.6875 Z"
         style="clip-path:url(#clipPath2); stroke:none;"
         clip-path="url(#clipPath2)"
         id="path162" />
    </g>
    <g
       style="text-rendering:geometricPrecision;"
       id="g170">
      <path
         d="M351 137 L217 217"
         style="fill:none; clip-path:url(#clipPath3);"
         clip-path="url(#clipPath3)"
         id="path166" />
      <path
         d="M217 217 L229.7114 215.4673 L224.3803 206.5376 Z"
         style="clip-path:url(#clipPath3); fill-rule:evenodd; stroke:none;"
         clip-path="url(#clipPath3)"
         id="path168" />
    </g>
    <g
       style="text-rendering:geometricPrecision;"
       id="g178">
      <path
         d="M252.5 494 L226.9994 494.2873"
         style="fill:none; clip-path:url(#clipPath4);"
         clip-path="url(#clipPath4)"
         id="path172" />
      <path
         d="M216.6 494.4045 C216.5677 491.5328 218.8694 489.1786 221.7411 489.1462 C224.6128 489.1139 226.967 491.4156 226.9994 494.2873 C227.0317 497.159 224.73 499.5132 221.8583 499.5456 C218.9866 499.5779 216.6324 497.2762 216.6 494.4045 Z"
         style="fill:white; clip-path:url(#clipPath4); stroke:none;"
         clip-path="url(#clipPath4)"
         id="path174" />
      <path
         d="M216.6 494.4045 C216.5677 491.5328 218.8694 489.1786 221.7411 489.1462 C224.6128 489.1139 226.967 491.4156 226.9994 494.2873 C227.0317 497.159 224.73 499.5132 221.8583 499.5456 C218.9866 499.5779 216.6324 497.2762 216.6 494.4045 Z"
         style="fill:none; clip-path:url(#clipPath4);"
         clip-path="url(#clipPath4)"
         id="path176" />
    </g>
    <g
       style="fill:red; text-rendering:geometricPrecision; stroke:red;"
       id="g184">
      <path
         d="M340.4934 338 L278.5 301"
         style="fill:none; clip-path:url(#clipPath5);"
         clip-path="url(#clipPath5)"
         id="path180" />
      <path
         d="M278.5 301 L285.8817 311.4614 L291.2116 302.531 Z"
         style="clip-path:url(#clipPath5); fill-rule:evenodd; stroke:none;"
         clip-path="url(#clipPath5)"
         id="path182" />
    </g>
    <g
       style="text-rendering:geometricPrecision;"
       id="g190">
      <path
         d="M559 569 L559 646"
         style="fill:none; clip-path:url(#clipPath6);"
         clip-path="url(#clipPath6)"
         id="path186" />
      <path
         d="M559 646 L564.2 634.3 L553.8 634.3 Z"
         style="clip-path:url(#clipPath6); fill-rule:evenodd; stroke:none;"
         clip-path="url(#clipPath6)"
         id="path188" />
    </g>
    <g
       style="stroke-dasharray:4,4; text-rendering:geometricPrecision;"
       id="g196">
      <path
         d="M391 38 L391 120"
         style="fill:none; clip-path:url(#clipPath7);"
         clip-path="url(#clipPath7)"
         id="path192" />
      <path
         d="M391 120 L396.2 108.3 L385.8 108.3 Z"
         style="stroke-dasharray:none; clip-path:url(#clipPath7); fill-rule:evenodd; stroke:none;"
         clip-path="url(#clipPath7)"
         id="path194" />
    </g>
    <g
       style="text-rendering:geometricPrecision;"
       id="g202">
      <path
         d="M559 362 L559 436"
         style="fill:none; clip-path:url(#clipPath8);"
         clip-path="url(#clipPath8)"
         id="path198" />
      <path
         d="M559 436 L564.2 424.3 L553.8 424.3 Z"
         style="clip-path:url(#clipPath8); fill-rule:evenodd; stroke:none;"
         clip-path="url(#clipPath8)"
         id="path200" />
    </g>
    <g
       style="fill:red; text-rendering:geometricPrecision; stroke:red;"
       id="g208">
      <path
         d="M314.4934 348 L271 348"
         style="fill:none; clip-path:url(#clipPath9);"
         clip-path="url(#clipPath9)"
         id="path204" />
      <path
         d="M271 348 L282.7 353.2 L282.7 342.8 Z"
         style="clip-path:url(#clipPath9); fill-rule:evenodd; stroke:none;"
         clip-path="url(#clipPath9)"
         id="path206" />
    </g>
    <g
       style="text-rendering:geometricPrecision;"
       id="g214">
      <path
         d="M559 250 L559 331"
         style="fill:none; clip-path:url(#clipPath10);"
         clip-path="url(#clipPath10)"
         id="path210" />
      <path
         d="M559 331 L564.2 319.3 L553.8 319.3 Z"
         style="clip-path:url(#clipPath10); fill-rule:evenodd; stroke:none;"
         clip-path="url(#clipPath10)"
         id="path212" />
    </g>
    <g
       style="text-rendering:geometricPrecision;"
       id="g222">
      <path
         d="M387.5066 261.7598 L387.7862 242.4875"
         style="fill:none; clip-path:url(#clipPath11);"
         clip-path="url(#clipPath11)"
         id="path216" />
      <path
         d="M387.9371 232.0886 C390.8087 232.1303 393.1028 234.4919 393.0611 237.3635 C393.0194 240.2351 390.6578 242.5292 387.7862 242.4875 C384.9146 242.4458 382.6205 240.0842 382.6622 237.2126 C382.7039 234.341 385.0655 232.0469 387.9371 232.0886 Z"
         style="fill:white; clip-path:url(#clipPath11); stroke:none;"
         clip-path="url(#clipPath11)"
         id="path218" />
      <path
         d="M387.9371 232.0886 C390.8087 232.1303 393.1028 234.4919 393.0611 237.3635 C393.0194 240.2351 390.6578 242.5292 387.7862 242.4875 C384.9146 242.4458 382.6205 240.0842 382.6622 237.2126 C382.7039 234.341 385.0655 232.0469 387.9371 232.0886 Z"
         style="fill:none; clip-path:url(#clipPath11);"
         clip-path="url(#clipPath11)"
         id="path220" />
    </g>
    <g
       style="fill:red; text-rendering:geometricPrecision; stroke:red;"
       id="g228">
      <path
         d="M366.4934 348 L404.4367 348.8734"
         style="fill:none; clip-path:url(#clipPath12);"
         clip-path="url(#clipPath12)"
         id="path224" />
      <path
         d="M404.4367 348.8734 L392.8594 343.4055 L392.6201 353.8028 Z"
         style="clip-path:url(#clipPath12); fill-rule:evenodd; stroke:none;"
         clip-path="url(#clipPath12)"
         id="path226" />
    </g>
    <g
       style="text-rendering:geometricPrecision;"
       id="g236">
      <path
         d="M252.5 291 L226.9997 291.1913"
         style="fill:none; clip-path:url(#clipPath13);"
         clip-path="url(#clipPath13)"
         id="path230" />
      <path
         d="M216.6 291.2694 C216.5785 288.3976 218.8891 286.0521 221.7608 286.0305 C224.6326 286.009 226.9782 288.3195 226.9997 291.1913 C227.0213 294.0631 224.7107 296.4087 221.8389 296.4302 C218.9671 296.4518 216.6216 294.1412 216.6 291.2694 Z"
         style="fill:white; clip-path:url(#clipPath13); stroke:none;"
         clip-path="url(#clipPath13)"
         id="path232" />
      <path
         d="M216.6 291.2694 C216.5785 288.3976 218.8891 286.0521 221.7608 286.0305 C224.6326 286.009 226.9782 288.3195 226.9997 291.1913 C227.0213 294.0631 224.7107 296.4087 221.8389 296.4302 C218.9671 296.4518 216.6216 294.1412 216.6 291.2694 Z"
         style="fill:none; clip-path:url(#clipPath13);"
         clip-path="url(#clipPath13)"
         id="path234" />
    </g>
    <g
       style="text-rendering:geometricPrecision;"
       id="g242">
      <path
         d="M559 672 L559 740"
         style="fill:none; clip-path:url(#clipPath14);"
         clip-path="url(#clipPath14)"
         id="path238" />
      <path
         d="M559 740 L564.2 728.3 L553.8 728.3 Z"
         style="clip-path:url(#clipPath14); fill-rule:evenodd; stroke:none;"
         clip-path="url(#clipPath14)"
         id="path240" />
    </g>
    <g
       style="text-rendering:geometricPrecision;"
       id="g248">
      <path
         d="M559 462 L559 543"
         style="fill:none; clip-path:url(#clipPath15);"
         clip-path="url(#clipPath15)"
         id="path244" />
      <path
         d="M559 543 L564.2 531.3 L553.8 531.3 Z"
         style="clip-path:url(#clipPath15); fill-rule:evenodd; stroke:none;"
         clip-path="url(#clipPath15)"
         id="path246" />
    </g>
    <g
       style="text-rendering:geometricPrecision;"
       id="g254">
      <path
         d="M431 137 L559 214"
         style="fill:none; clip-path:url(#clipPath16);"
         clip-path="url(#clipPath16)"
         id="path250" />
      <path
         d="M559 214 L551.6547 203.513 L546.2938 212.4248 Z"
         style="clip-path:url(#clipPath16); fill-rule:evenodd; stroke:none;"
         clip-path="url(#clipPath16)"
         id="path252" />
    </g>
    <g
       style="fill:red; text-rendering:geometricPrecision; stroke:red;"
       id="g260">
      <path
         d="M430.4367 338.8734 L479.2467 301.6899"
         style="fill:none; clip-path:url(#clipPath17);"
         clip-path="url(#clipPath17)"
         id="path256" />
      <path
         d="M479.2467 301.6899 L466.7885 304.6436 L473.0909 312.9165 Z"
         style="clip-path:url(#clipPath17); fill-rule:evenodd; stroke:none;"
         clip-path="url(#clipPath17)"
         id="path258" />
    </g>
    <g
       style="fill:red; text-rendering:geometricPrecision; stroke:red;"
       id="g266">
      <path
         d="M327.4934 358 L277 386"
         style="fill:none; clip-path:url(#clipPath18);"
         clip-path="url(#clipPath18)"
         id="path262" />
      <path
         d="M277 386 L289.7539 384.8736 L284.7103 375.7784 Z"
         style="clip-path:url(#clipPath18); fill-rule:evenodd; stroke:none;"
         clip-path="url(#clipPath18)"
         id="path264" />
    </g>
    <g
       style="text-rendering:geometricPrecision;"
       id="g274">
      <path
         d="M513 232 L257 233"
         style="fill:none; clip-path:url(#clipPath19);"
         clip-path="url(#clipPath19)"
         id="path268" />
      <path
         d="M257 233 L268.7202 238.1543 L268.6796 227.7543 Z"
         style="clip-path:url(#clipPath19); fill-rule:evenodd; stroke:none;"
         clip-path="url(#clipPath19)"
         id="path270" />
      <path
         d="M513 232 L501.2798 226.8457 L501.3204 237.2457 Z"
         style="clip-path:url(#clipPath19); fill-rule:evenodd; stroke:none;"
         clip-path="url(#clipPath19)"
         id="path272" />
    </g>
    <g
       style="stroke-dasharray:4,4; text-rendering:geometricPrecision;"
       id="g280">
      <path
         d="M217 249 L217 436"
         style="fill:none; clip-path:url(#clipPath20);"
         clip-path="url(#clipPath20)"
         id="path276" />
      <path
         d="M217 436 L222.2 424.3 L211.8 424.3 Z"
         style="stroke-dasharray:none; clip-path:url(#clipPath20); fill-rule:evenodd; stroke:none;"
         clip-path="url(#clipPath20)"
         id="path278" />
    </g>
    <g
       style="fill:red; text-rendering:geometricPrecision; stroke:red;"
       id="g286">
      <path
         d="M430.4367 358.8734 L469.7402 397"
         style="fill:none; clip-path:url(#clipPath21);"
         clip-path="url(#clipPath21)"
         id="path282" />
      <path
         d="M469.7402 397 L464.9629 385.1211 L457.7216 392.5859 Z"
         style="clip-path:url(#clipPath21); fill-rule:evenodd; stroke:none;"
         clip-path="url(#clipPath21)"
         id="path284" />
    </g>
    <g
       style="text-rendering:geometricPrecision;"
       id="g292">
      <path
         d="M217 462 L217 543"
         style="fill:none; clip-path:url(#clipPath22);"
         clip-path="url(#clipPath22)"
         id="path288" />
      <path
         d="M217 543 L222.2 531.3 L211.8 531.3 Z"
         style="clip-path:url(#clipPath22); fill-rule:evenodd; stroke:none;"
         clip-path="url(#clipPath22)"
         id="path290" />
    </g>
    <g
       style="fill:white; text-rendering:geometricPrecision; stroke:white;"
       id="g300">
      <path
         d="M252.5 484 L304.5 484 L304.5 504 L252.5 504 L252.5 484 Z"
         style="clip-path:url(#clipPath23); stroke:none;"
         clip-path="url(#clipPath23)"
         id="path294" />
      <path
         d="M252.5 484 L304.5 484 L304.5 504 L252.5 504 L252.5 484 Z"
         style="fill:none; clip-path:url(#clipPath23); stroke:black;"
         clip-path="url(#clipPath23)"
         id="path296" />
      <text
         x="265"
         y="497"
         style="font-size:10; clip-path:url(#clipPath23); fill:black; stroke:none;"
         xml:space="preserve"
         clip-path="url(#clipPath23)"
         id="text298">LDHA</text>
    </g>
    <g
       style="fill:white; text-rendering:geometricPrecision; stroke:white;"
       id="g308">
      <path
         d="M361.5066 261.7598 L413.5066 261.7598 L413.5066 281.7598 L361.5066 281.7598 L361.5066 261.7598 Z"
         style="clip-path:url(#clipPath24); stroke:none;"
         clip-path="url(#clipPath24)"
         id="path302" />
      <path
         d="M361.5066 261.7598 L413.5066 261.7598 L413.5066 281.7598 L361.5066 281.7598 L361.5066 261.7598 Z"
         style="fill:none; clip-path:url(#clipPath24); stroke:black;"
         clip-path="url(#clipPath24)"
         id="path304" />
      <text
         x="377"
         y="275"
         style="font-size:10; clip-path:url(#clipPath24); fill:black; stroke:none;"
         xml:space="preserve"
         clip-path="url(#clipPath24)"
         id="text306">TPI1</text>
    </g>
    <g
       style="fill:white; text-rendering:geometricPrecision; stroke:white;"
       id="g316">
      <path
         d="M252.5 281 L304.5 281 L304.5 301 L252.5 301 L252.5 281 Z"
         style="clip-path:url(#clipPath25); stroke:none;"
         clip-path="url(#clipPath25)"
         id="path310" />
      <path
         d="M252.5 281 L304.5 281 L304.5 301 L252.5 301 L252.5 281 Z"
         style="fill:none; clip-path:url(#clipPath25); stroke:black;"
         clip-path="url(#clipPath25)"
         id="path312" />
      <text
         x="261"
         y="294"
         style="font-size:10; clip-path:url(#clipPath25); fill:black; stroke:none;"
         xml:space="preserve"
         clip-path="url(#clipPath25)"
         id="text314">GAPDH</text>
    </g>
    <g
       style="fill:white; text-rendering:geometricPrecision; stroke:white;"
       id="g326">
      <path
         d="M351 120 L431 120 L431 154 L351 154 L351 120 Z"
         style="clip-path:url(#clipPath26); stroke:none;"
         clip-path="url(#clipPath26)"
         id="path318" />
      <path
         d="M351 120 L431 120 L431 154 L351 154 L351 120 Z"
         style="fill:none; clip-path:url(#clipPath26); stroke:blue;"
         clip-path="url(#clipPath26)"
         id="path320" />
      <text
         x="358"
         y="134"
         style="font-size:10; clip-path:url(#clipPath26); fill:blue; stroke:none;"
         xml:space="preserve"
         clip-path="url(#clipPath26)"
         id="text322">Fructose-1,6-</text>
      <text
         x="360"
         y="145"
         style="font-size:10; clip-path:url(#clipPath26); fill:blue; stroke:none;"
         xml:space="preserve"
         clip-path="url(#clipPath26)"
         id="text324">biphosphate</text>
    </g>
    <g
       style="fill:rgb(20,150,30); text-rendering:geometricPrecision; font-weight:bold; stroke:rgb(20,150,30);"
       id="g330">
      <text
         x="489"
         xml:space="preserve"
         y="754"
         style="clip-path:url(#clipPath27); stroke:none;"
         clip-path="url(#clipPath27)"
         id="text328">Myocardial Steatosis</text>
    </g>
    <g
       style="fill:white; text-rendering:geometricPrecision; stroke:white;"
       id="g338">
      <path
         d="M177 436 L257 436 L257 462 L177 462 L177 436 Z"
         style="clip-path:url(#clipPath28); stroke:none;"
         clip-path="url(#clipPath28)"
         id="path332" />
      <path
         d="M177 436 L257 436 L257 462 L177 462 L177 436 Z"
         style="fill:none; clip-path:url(#clipPath28); stroke:blue;"
         clip-path="url(#clipPath28)"
         id="path334" />
      <text
         x="195"
         y="452"
         style="font-size:10; clip-path:url(#clipPath28); fill:blue; stroke:none;"
         xml:space="preserve"
         clip-path="url(#clipPath28)"
         id="text336">Pyruvate</text>
    </g>
    <g
       style="fill:white; text-rendering:geometricPrecision; stroke:white;"
       id="g348">
      <path
         d="M177 217 L257 217 L257 249 L177 249 L177 217 Z"
         style="clip-path:url(#clipPath29); stroke:none;"
         clip-path="url(#clipPath29)"
         id="path340" />
      <path
         d="M177 217 L257 217 L257 249 L177 249 L177 217 Z"
         style="fill:none; clip-path:url(#clipPath29); stroke:blue;"
         clip-path="url(#clipPath29)"
         id="path342" />
      <text
         x="177"
         y="230"
         style="font-size:10; clip-path:url(#clipPath29); fill:blue; stroke:none;"
         xml:space="preserve"
         clip-path="url(#clipPath29)"
         id="text344">Glyceraldehyde-</text>
      <text
         x="186"
         y="241"
         style="font-size:10; clip-path:url(#clipPath29); fill:blue; stroke:none;"
         xml:space="preserve"
         clip-path="url(#clipPath29)"
         id="text346">3-phosphate</text>
    </g>
    <g
       style="fill:white; text-rendering:geometricPrecision; stroke:white;"
       id="g358">
      <path
         d="M513 214 L605 214 L605 250 L513 250 L513 214 Z"
         style="clip-path:url(#clipPath30); stroke:none;"
         clip-path="url(#clipPath30)"
         id="path350" />
      <path
         d="M513 214 L605 214 L605 250 L513 250 L513 214 Z"
         style="fill:none; clip-path:url(#clipPath30); stroke:blue;"
         clip-path="url(#clipPath30)"
         id="path352" />
      <text
         x="514"
         y="229"
         style="font-size:10; clip-path:url(#clipPath30); fill:blue; stroke:none;"
         xml:space="preserve"
         clip-path="url(#clipPath30)"
         id="text354">Dihydroxyacetone</text>
      <text
         x="533"
         y="240"
         style="font-size:10; clip-path:url(#clipPath30); fill:blue; stroke:none;"
         xml:space="preserve"
         clip-path="url(#clipPath30)"
         id="text356">phosphate</text>
    </g>
    <g
       style="fill:white; text-rendering:geometricPrecision; stroke:white;"
       id="g366">
      <path
         d="M177 543 L257 543 L257 569 L177 569 L177 543 Z"
         style="clip-path:url(#clipPath31); stroke:none;"
         clip-path="url(#clipPath31)"
         id="path360" />
      <path
         d="M177 543 L257 543 L257 569 L177 569 L177 543 Z"
         style="fill:none; clip-path:url(#clipPath31); stroke:blue;"
         clip-path="url(#clipPath31)"
         id="path362" />
      <text
         x="199"
         y="559"
         style="font-size:10; clip-path:url(#clipPath31); fill:blue; stroke:none;"
         xml:space="preserve"
         clip-path="url(#clipPath31)"
         id="text364">Lactate</text>
    </g>
    <g
       style="fill:white; text-rendering:geometricPrecision; stroke:white;"
       id="g376">
      <path
         d="M519 331 L599 331 L599 362 L519 362 L519 331 Z"
         style="clip-path:url(#clipPath32); stroke:none;"
         clip-path="url(#clipPath32)"
         id="path368" />
      <path
         d="M519 331 L599 331 L599 362 L519 362 L519 331 Z"
         style="fill:none; clip-path:url(#clipPath32); stroke:blue;"
         clip-path="url(#clipPath32)"
         id="path370" />
      <text
         x="532"
         y="343"
         style="font-size:10; clip-path:url(#clipPath32); fill:blue; stroke:none;"
         xml:space="preserve"
         clip-path="url(#clipPath32)"
         id="text372">Glycerol-3-</text>
      <text
         x="533"
         y="354"
         style="font-size:10; clip-path:url(#clipPath32); fill:blue; stroke:none;"
         xml:space="preserve"
         clip-path="url(#clipPath32)"
         id="text374">phosphate</text>
    </g>
    <g
       style="fill:white; text-rendering:geometricPrecision; stroke:white;"
       id="g384">
      <path
         d="M511.5 436 L606.5 436 L606.5 462 L511.5 462 L511.5 436 Z"
         style="clip-path:url(#clipPath33); stroke:none;"
         clip-path="url(#clipPath33)"
         id="path378" />
      <path
         d="M511.5 436 L606.5 436 L606.5 462 L511.5 462 L511.5 436 Z"
         style="fill:none; clip-path:url(#clipPath33); stroke:blue;"
         clip-path="url(#clipPath33)"
         id="path380" />
      <text
         x="512"
         y="452"
         style="font-size:10; clip-path:url(#clipPath33); fill:blue; stroke:none;"
         xml:space="preserve"
         clip-path="url(#clipPath33)"
         id="text382">Lysophosphatidate</text>
    </g>
    <g
       style="fill:white; text-rendering:geometricPrecision; stroke:white;"
       id="g392">
      <path
         d="M519 646 L599 646 L599 672 L519 672 L519 646 Z"
         style="clip-path:url(#clipPath34); stroke:none;"
         clip-path="url(#clipPath34)"
         id="path386" />
      <path
         d="M519 646 L599 646 L599 672 L519 672 L519 646 Z"
         style="fill:none; clip-path:url(#clipPath34); stroke:blue;"
         clip-path="url(#clipPath34)"
         id="path388" />
      <text
         x="523"
         y="662"
         style="font-size:10; clip-path:url(#clipPath34); fill:blue; stroke:none;"
         xml:space="preserve"
         clip-path="url(#clipPath34)"
         id="text390">Triacylglycerol</text>
    </g>
    <g
       style="fill:white; text-rendering:geometricPrecision; stroke:white;"
       id="g400">
      <path
         d="M519 543 L599 543 L599 569 L519 569 L519 543 Z"
         style="clip-path:url(#clipPath35); stroke:none;"
         clip-path="url(#clipPath35)"
         id="path394" />
      <path
         d="M519 543 L599 543 L599 569 L519 569 L519 543 Z"
         style="fill:none; clip-path:url(#clipPath35); stroke:blue;"
         clip-path="url(#clipPath35)"
         id="path396" />
      <text
         x="524"
         y="559"
         style="font-size:10; clip-path:url(#clipPath35); fill:blue; stroke:none;"
         xml:space="preserve"
         clip-path="url(#clipPath35)"
         id="text398">Diacylglycerol</text>
    </g>
    <g
       style="text-rendering:geometricPrecision;"
       id="g408">
      <path
         d="M518.2467 291.6899 L549 291.6998"
         style="fill:none; clip-path:url(#clipPath36);"
         clip-path="url(#clipPath36)"
         id="path402" />
      <path
         d="M559.4 291.7032 C559.399 294.5751 557.0702 296.9024 554.1983 296.9015 C551.3265 296.9006 548.9991 294.5717 549 291.6998 C549.0009 288.828 551.3298 286.5006 554.2017 286.5015 C557.0735 286.5024 559.4009 288.8313 559.4 291.7032 Z"
         style="fill:white; clip-path:url(#clipPath36); stroke:none;"
         clip-path="url(#clipPath36)"
         id="path404" />
      <path
         d="M559.4 291.7032 C559.399 294.5751 557.0702 296.9024 554.1983 296.9015 C551.3265 296.9006 548.9991 294.5717 549 291.6998 C549.0009 288.828 551.3298 286.5006 554.2017 286.5015 C557.0735 286.5024 559.4009 288.8313 559.4 291.7032 Z"
         style="fill:none; clip-path:url(#clipPath36);"
         clip-path="url(#clipPath36)"
         id="path406" />
    </g>
    <g
       style="fill:white; text-rendering:geometricPrecision; stroke:white;"
       id="g416">
      <path
         d="M466.2467 281.6899 L518.2467 281.6899 L518.2467 301.6899 L466.2467 301.6899 L466.2467 281.6899 Z"
         style="clip-path:url(#clipPath37); stroke:none;"
         clip-path="url(#clipPath37)"
         id="path410" />
      <path
         d="M466.2467 281.6899 L518.2467 281.6899 L518.2467 301.6899 L466.2467 301.6899 L466.2467 281.6899 Z"
         style="fill:none; clip-path:url(#clipPath37); stroke:black;"
         clip-path="url(#clipPath37)"
         id="path412" />
      <text
         x="479"
         y="295"
         style="font-size:10; clip-path:url(#clipPath37); fill:black; stroke:none;"
         xml:space="preserve"
         clip-path="url(#clipPath37)"
         id="text414">GPD1</text>
    </g>
    <g
       style="text-rendering:geometricPrecision;"
       id="g424">
      <path
         d="M521.7402 397 L549 397"
         style="fill:none; clip-path:url(#clipPath38);"
         clip-path="url(#clipPath38)"
         id="path418" />
      <path
         d="M559.4 397 C559.4 399.8719 557.0719 402.2 554.2 402.2 C551.3281 402.2 549 399.8719 549 397 C549 394.1281 551.3281 391.8 554.2 391.8 C557.0719 391.8 559.4 394.1281 559.4 397 Z"
         style="fill:white; clip-path:url(#clipPath38); stroke:none;"
         clip-path="url(#clipPath38)"
         id="path420" />
      <path
         d="M559.4 397 C559.4 399.8719 557.0719 402.2 554.2 402.2 C551.3281 402.2 549 399.8719 549 397 C549 394.1281 551.3281 391.8 554.2 391.8 C557.0719 391.8 559.4 394.1281 559.4 397 Z"
         style="fill:none; clip-path:url(#clipPath38);"
         clip-path="url(#clipPath38)"
         id="path422" />
    </g>
    <g
       style="fill:white; text-rendering:geometricPrecision; stroke:white;"
       id="g432">
      <path
         d="M469.7402 387 L521.7402 387 L521.7402 407 L469.7402 407 L469.7402 387 Z"
         style="clip-path:url(#clipPath39); stroke:none;"
         clip-path="url(#clipPath39)"
         id="path426" />
      <path
         d="M469.7402 387 L521.7402 387 L521.7402 407 L469.7402 407 L469.7402 387 Z"
         style="fill:none; clip-path:url(#clipPath39); stroke:black;"
         clip-path="url(#clipPath39)"
         id="path428" />
      <text
         x="479"
         y="400"
         style="font-size:10; clip-path:url(#clipPath39); fill:black; stroke:none;"
         xml:space="preserve"
         clip-path="url(#clipPath39)"
         id="text430">GPAT3</text>
    </g>
    <g
       style="fill:white; text-rendering:geometricPrecision; stroke:white;"
       id="g440">
      <path
         d="M351 12 L431 12 L431 38 L351 38 L351 12 Z"
         style="clip-path:url(#clipPath40); stroke:none;"
         clip-path="url(#clipPath40)"
         id="path434" />
      <path
         d="M351 12 L431 12 L431 38 L351 38 L351 12 Z"
         style="fill:none; clip-path:url(#clipPath40); stroke:blue;"
         clip-path="url(#clipPath40)"
         id="path436" />
      <text
         x="372"
         y="28"
         style="font-size:10; clip-path:url(#clipPath40); fill:blue; stroke:none;"
         xml:space="preserve"
         clip-path="url(#clipPath40)"
         id="text438">Glucose</text>
    </g>
    <g
       style="text-rendering:geometricPrecision;"
       id="g448">
      <path
         d="M457.5 54 L400.6954 68.3506"
         style="fill:none; clip-path:url(#clipPath41);"
         clip-path="url(#clipPath41)"
         id="path442" />
      <path
         d="M390.6122 70.898 C389.9088 68.1136 391.5957 65.2861 394.3801 64.5827 C397.1645 63.8793 399.992 65.5662 400.6954 68.3506 C401.3988 71.135 399.7119 73.9625 396.9275 74.6659 C394.1431 75.3693 391.3156 73.6824 390.6122 70.898 Z"
         style="fill:white; clip-path:url(#clipPath41); stroke:none;"
         clip-path="url(#clipPath41)"
         id="path444" />
      <path
         d="M390.6122 70.898 C389.9088 68.1136 391.5957 65.2861 394.3801 64.5827 C397.1645 63.8793 399.992 65.5662 400.6954 68.3506 C401.3988 71.135 399.7119 73.9625 396.9275 74.6659 C394.1431 75.3693 391.3156 73.6824 390.6122 70.898 Z"
         style="fill:none; clip-path:url(#clipPath41);"
         clip-path="url(#clipPath41)"
         id="path446" />
    </g>
    <g
       style="fill:white; text-rendering:geometricPrecision; stroke:white;"
       id="g456">
      <path
         d="M457.5 44 L509.5 44 L509.5 64 L457.5 64 L457.5 44 Z"
         style="clip-path:url(#clipPath42); stroke:none;"
         clip-path="url(#clipPath42)"
         id="path450" />
      <path
         d="M457.5 44 L509.5 44 L509.5 64 L457.5 64 L457.5 44 Z"
         style="fill:none; clip-path:url(#clipPath42); stroke:black;"
         clip-path="url(#clipPath42)"
         id="path452" />
      <text
         x="464"
         y="57"
         style="font-size:10; clip-path:url(#clipPath42); fill:black; stroke:none;"
         xml:space="preserve"
         clip-path="url(#clipPath42)"
         id="text454">SLC2A1</text>
    </g>
    <g
       style="fill:white; text-rendering:geometricPrecision; stroke:white;"
       id="g464">
      <path
         d="M404.4367 338.8734 L456.4367 338.8734 L456.4367 358.8734 L404.4367 358.8734 L404.4367 338.8734 Z"
         style="clip-path:url(#clipPath43); stroke:none;"
         clip-path="url(#clipPath43)"
         id="path458" />
      <path
         d="M404.4367 338.8734 L456.4367 338.8734 L456.4367 358.8734 L404.4367 358.8734 L404.4367 338.8734 Z"
         style="fill:none; clip-path:url(#clipPath43); stroke:red;"
         clip-path="url(#clipPath43)"
         id="path460" />
      <text
         x="414"
         y="352"
         style="font-size:10; clip-path:url(#clipPath43); fill:red; stroke:none;"
         xml:space="preserve"
         clip-path="url(#clipPath43)"
         id="text462">PPARG</text>
    </g>
    <g
       style="fill:red; text-rendering:geometricPrecision; stroke:red;"
       id="g470">
      <path
         d="M486 97 L427 97"
         style="fill:none; clip-path:url(#clipPath44);"
         clip-path="url(#clipPath44)"
         id="path466" />
      <path
         d="M427 97 L438.7 102.2 L438.7 91.8 Z"
         style="clip-path:url(#clipPath44); fill-rule:evenodd; stroke:none;"
         clip-path="url(#clipPath44)"
         id="path468" />
    </g>
    <g
       style="fill:red; text-rendering:geometricPrecision; stroke:red;"
       id="g476">
      <path
         d="M486 97 L427 115"
         style="fill:none; clip-path:url(#clipPath45);"
         clip-path="url(#clipPath45)"
         id="path472" />
      <path
         d="M427 115 L439.7082 116.5595 L436.6734 106.6122 Z"
         style="clip-path:url(#clipPath45); fill-rule:evenodd; stroke:none;"
         clip-path="url(#clipPath45)"
         id="path474" />
    </g>
    <g
       style="fill:red; text-rendering:geometricPrecision; stroke:red;"
       id="g482">
      <path
         d="M486 97 L427 77"
         style="fill:none; clip-path:url(#clipPath46);"
         clip-path="url(#clipPath46)"
         id="path478" />
      <path
         d="M427 77 L436.4113 85.6809 L439.7501 75.8314 Z"
         style="clip-path:url(#clipPath46); fill-rule:evenodd; stroke:none;"
         clip-path="url(#clipPath46)"
         id="path480" />
    </g>
    <g
       style="fill:white; text-rendering:geometricPrecision; stroke:white;"
       id="g490">
      <path
         d="M460 87 L512 87 L512 107 L460 107 L460 87 Z"
         style="clip-path:url(#clipPath47); stroke:none;"
         clip-path="url(#clipPath47)"
         id="path484" />
      <path
         d="M460 87 L512 87 L512 107 L460 107 L460 87 Z"
         style="fill:none; clip-path:url(#clipPath47); stroke:red;"
         clip-path="url(#clipPath47)"
         id="path486" />
      <text
         x="472"
         y="100"
         style="font-size:10; clip-path:url(#clipPath47); fill:red; stroke:none;"
         xml:space="preserve"
         clip-path="url(#clipPath47)"
         id="text488">HIF1A</text>
    </g>
    <g
       style="fill:white; text-rendering:geometricPrecision; stroke:white;"
       id="g498">
      <path
         d="M314.4934 338 L366.4934 338 L366.4934 358 L314.4934 358 L314.4934 338 Z"
         style="clip-path:url(#clipPath48); stroke:none;"
         clip-path="url(#clipPath48)"
         id="path492" />
      <path
         d="M314.4934 338 L366.4934 338 L366.4934 358 L314.4934 358 L314.4934 338 Z"
         style="fill:none; clip-path:url(#clipPath48); stroke:red;"
         clip-path="url(#clipPath48)"
         id="path494" />
      <text
         x="326"
         y="351"
         style="font-size:10; clip-path:url(#clipPath48); fill:red; stroke:none;"
         xml:space="preserve"
         clip-path="url(#clipPath48)"
         id="text496">HIF1A</text>
    </g>
  </g>
</svg>
