<?xml version="1.0" encoding="UTF-8" standalone="no"?>
<svg
   style="fill-opacity:1; color-rendering:auto; color-interpolation:auto; stroke:black; text-rendering:auto; stroke-linecap:square; stroke-miterlimit:10; stroke-opacity:1; shape-rendering:auto; fill:black; stroke-dasharray:none; font-weight:normal; stroke-width:1; font-family:'Dialog'; font-style:normal; stroke-linejoin:miter; font-size:12; stroke-dashoffset:0; image-rendering:auto;"
   width="809"
   height="800"
   version="1.1"
   id="svg735"
   xmlns="http://www.w3.org/2000/svg"
   xmlns:svg="http://www.w3.org/2000/svg">
  <!--Generated by the Batik Graphics2D SVG Generator-->
  <defs
     id="genericDefs" />
  <g
     id="g733">
    <defs
       id="defs1">
      <clipPath
         clipPathUnits="userSpaceOnUse"
         id="clipPath1">
        <path
           d="M0 0 L825 0 L825 815 L0 815 L0 0 Z"
           id="path3" />
      </clipPath>
      <clipPath
         clipPathUnits="userSpaceOnUse"
         id="clipPath2">
        <path
           d="M0 0 L0 200 L200 200 L200 0 Z"
           id="path6" />
      </clipPath>
      <clipPath
         clipPathUnits="userSpaceOnUse"
         id="clipPath3">
        <path
           d="M140 16 L140 37 L151 37 L151 16 Z"
           id="path9" />
      </clipPath>
      <clipPath
         clipPathUnits="userSpaceOnUse"
         id="clipPath4">
        <path
           d="M139.4551 3.918 L150.5449 3.918 L150.5449 19.2305 L139.4551 19.2305 L139.4551 3.918 Z"
           id="path12" />
      </clipPath>
      <clipPath
         clipPathUnits="userSpaceOnUse"
         id="clipPath5">
        <path
           d="M228.7759 72.6022 L228.7759 128.6022 L304.7759 128.6022 L304.7759 72.6022 Z"
           id="path15" />
      </clipPath>
      <clipPath
         clipPathUnits="userSpaceOnUse"
         id="clipPath6">
        <path
           d="M100.1092 275.6302 L100.1092 338.6302 L217.1092 338.6302 L217.1092 275.6302 Z"
           id="path18" />
      </clipPath>
      <clipPath
         clipPathUnits="userSpaceOnUse"
         id="clipPath7">
        <path
           d="M437.6093 152.6302 L437.6093 215.6302 L493.6093 215.6302 L493.6093 152.6302 Z"
           id="path21" />
      </clipPath>
      <clipPath
         clipPathUnits="userSpaceOnUse"
         id="clipPath8">
        <path
           d="M289.7179 382.2146 L289.7179 393.6146 L330.1214 393.6146 L330.1214 382.2146 Z"
           id="path24" />
      </clipPath>
      <clipPath
         clipPathUnits="userSpaceOnUse"
         id="clipPath9">
        <path
           d="M293.7174 713.6779 L293.7174 725.0779 L329.5215 725.0779 L329.5215 713.6779 Z"
           id="path27" />
      </clipPath>
      <clipPath
         clipPathUnits="userSpaceOnUse"
         id="clipPath10">
        <path
           d="M203.2844 690.9035 L203.2844 706.3859 L328.4645 706.3859 L328.4645 690.9035 Z"
           id="path30" />
      </clipPath>
      <clipPath
         clipPathUnits="userSpaceOnUse"
         id="clipPath11">
        <path
           d="M323.2519 170.6485 L323.2519 254.3796 L335.1907 254.3796 L335.1907 170.6485 Z"
           id="path33" />
      </clipPath>
      <clipPath
         clipPathUnits="userSpaceOnUse"
         id="clipPath12">
        <path
           d="M323.2519 367.6485 L323.2519 418.7129 L335.1907 418.7129 L335.1907 367.6485 Z"
           id="path36" />
      </clipPath>
      <clipPath
         clipPathUnits="userSpaceOnUse"
         id="clipPath13">
        <path
           d="M322.2519 510.3151 L322.2519 581.0463 L334.1907 581.0463 L334.1907 510.3151 Z"
           id="path39" />
      </clipPath>
      <clipPath
         clipPathUnits="userSpaceOnUse"
         id="clipPath14">
        <path
           d="M328.0594 471.5706 L328.0594 491.6863 L451.7857 491.6863 L451.7857 471.5706 Z"
           id="path42" />
      </clipPath>
      <clipPath
         clipPathUnits="userSpaceOnUse"
         id="clipPath15">
        <path
           d="M328.6037 395.7699 L328.6037 418.6639 L449.7857 418.6639 L449.7857 395.7699 Z"
           id="path45" />
      </clipPath>
      <clipPath
         clipPathUnits="userSpaceOnUse"
         id="clipPath16">
        <path
           d="M296.7208 537.7551 L296.7208 549.1552 L329.1213 549.1552 L329.1213 537.7551 Z"
           id="path48" />
      </clipPath>
      <clipPath
         clipPathUnits="userSpaceOnUse"
         id="clipPath17">
        <path
           d="M322.4516 432.9737 L322.4516 496.046 L334.3887 496.046 L334.3887 432.9737 Z"
           id="path51" />
      </clipPath>
      <clipPath
         clipPathUnits="userSpaceOnUse"
         id="clipPath18">
        <path
           d="M322.2519 595.3151 L322.2519 671.0463 L334.1907 671.0463 L334.1907 595.3151 Z"
           id="path54" />
      </clipPath>
      <clipPath
         clipPathUnits="userSpaceOnUse"
         id="clipPath19">
        <path
           d="M203.0483 170.6422 L203.0483 194.1285 L330.0115 194.1285 L330.0115 170.6422 Z"
           id="path57" />
      </clipPath>
      <clipPath
         clipPathUnits="userSpaceOnUse"
         id="clipPath20">
        <path
           d="M292.7148 452.378 L292.7148 463.778 L329.7217 463.778 L329.7217 452.378 Z"
           id="path60" />
      </clipPath>
      <clipPath
         clipPathUnits="userSpaceOnUse"
         id="clipPath21">
        <path
           d="M233.0489 599.3094 L233.0489 616.047 L329.8835 616.047 L329.8835 599.3094 Z"
           id="path63" />
      </clipPath>
      <clipPath
         clipPathUnits="userSpaceOnUse"
         id="clipPath22">
        <path
           d="M294.7115 627.2222 L294.7115 638.6223 L329.1223 638.6223 L329.1223 627.2222 Z"
           id="path66" />
      </clipPath>
      <clipPath
         clipPathUnits="userSpaceOnUse"
         id="clipPath23">
        <path
           d="M294.7196 208.3493 L294.7196 219.7494 L330.1213 219.7494 L330.1213 208.3493 Z"
           id="path69" />
      </clipPath>
      <clipPath
         clipPathUnits="userSpaceOnUse"
         id="clipPath24">
        <path
           d="M328.365 739.9456 L328.365 756.8138 L445.231 756.8138 L445.231 739.9456 Z"
           id="path72" />
      </clipPath>
      <clipPath
         clipPathUnits="userSpaceOnUse"
         id="clipPath25">
        <path
           d="M328.7502 111.2748 L328.7502 189.5102 L438.839 189.5102 L438.839 111.2748 Z"
           id="path75" />
      </clipPath>
      <clipPath
         clipPathUnits="userSpaceOnUse"
         id="clipPath26">
        <path
           d="M323.1071 685.3092 L323.1071 771.0461 L335.045 771.0461 L335.045 685.3092 Z"
           id="path78" />
      </clipPath>
      <clipPath
         clipPathUnits="userSpaceOnUse"
         id="clipPath27">
        <path
           d="M327.6269 559.6396 L327.6269 587.6232 L446.7856 587.6232 L446.7856 559.6396 Z"
           id="path81" />
      </clipPath>
      <clipPath
         clipPathUnits="userSpaceOnUse"
         id="clipPath28">
        <path
           d="M328.1411 227.0463 L328.1411 256.6174 L450.7856 256.6174 L450.7856 227.0463 Z"
           id="path84" />
      </clipPath>
      <clipPath
         clipPathUnits="userSpaceOnUse"
         id="clipPath29">
        <path
           d="M304.2617 94.334 L304.2617 105.7341 L330.1935 105.7341 L330.1935 94.334 Z"
           id="path87" />
      </clipPath>
      <clipPath
         clipPathUnits="userSpaceOnUse"
         id="clipPath30">
        <path
           d="M292.7206 303.8276 L292.7206 315.2276 L330.1213 315.2276 L330.1213 303.8276 Z"
           id="path90" />
      </clipPath>
      <clipPath
         clipPathUnits="userSpaceOnUse"
         id="clipPath31">
        <path
           d="M328.6056 325.4134 L328.6056 348.6581 L446.7857 348.6581 L446.7857 325.4134 Z"
           id="path93" />
      </clipPath>
      <clipPath
         clipPathUnits="userSpaceOnUse"
         id="clipPath32">
        <path
           d="M327.5618 648.6001 L327.5618 665.7051 L445.7857 665.7051 L445.7857 648.6001 Z"
           id="path96" />
      </clipPath>
      <clipPath
         clipPathUnits="userSpaceOnUse"
         id="clipPath33">
        <path
           d="M323.2674 54.2641 L323.2674 156.3795 L335.2061 156.3795 L335.2061 54.2641 Z"
           id="path99" />
      </clipPath>
      <clipPath
         clipPathUnits="userSpaceOnUse"
         id="clipPath34">
        <path
           d="M323.2519 268.6485 L323.2519 353.3796 L335.1907 353.3796 L335.1907 268.6485 Z"
           id="path102" />
      </clipPath>
      <clipPath
         clipPathUnits="userSpaceOnUse"
         id="clipPath35">
        <path
           d="M216.6063 297.5926 L216.6063 307.6332 L330.0115 307.6332 L330.0115 297.5926 Z"
           id="path105" />
      </clipPath>
      <clipPath
         clipPathUnits="userSpaceOnUse"
         id="clipPath36">
        <path
           d="M218.049 514.3095 L218.049 532.8732 L329.0115 532.8732 L329.0115 514.3095 Z"
           id="path108" />
      </clipPath>
      <clipPath
         clipPathUnits="userSpaceOnUse"
         id="clipPath37">
        <path
           d="M640.2213 98.8151 L640.2213 118.8151 L795.5546 118.8151 L795.5546 98.8151 Z"
           id="path111" />
      </clipPath>
      <clipPath
         clipPathUnits="userSpaceOnUse"
         id="clipPath38">
        <path
           d="M250.0546 154.6485 L250.0546 171.6485 L408.388 171.6485 L408.388 154.6485 Z"
           id="path114" />
      </clipPath>
      <clipPath
         clipPathUnits="userSpaceOnUse"
         id="clipPath39">
        <path
           d="M245.5546 579.3151 L245.5546 596.3151 L410.888 596.3151 L410.888 579.3151 Z"
           id="path117" />
      </clipPath>
      <clipPath
         clipPathUnits="userSpaceOnUse"
         id="clipPath40">
        <path
           d="M45.7213 162.6485 L45.7213 179.6485 L204.0546 179.6485 L204.0546 162.6485 Z"
           id="path120" />
      </clipPath>
      <clipPath
         clipPathUnits="userSpaceOnUse"
         id="clipPath41">
        <path
           d="M644.8879 77.8151 L644.8879 97.8151 L778.2213 97.8151 L778.2213 77.8151 Z"
           id="path123" />
      </clipPath>
      <clipPath
         clipPathUnits="userSpaceOnUse"
         id="clipPath42">
        <path
           d="M79.388 112.6485 L79.388 129.6485 L203.7213 129.6485 L203.7213 112.6485 Z"
           id="path126" />
      </clipPath>
      <clipPath
         clipPathUnits="userSpaceOnUse"
         id="clipPath43">
        <path
           d="M449.0546 240.3151 L449.0546 261.3151 L503.0546 261.3151 L503.0546 240.3151 Z"
           id="path129" />
      </clipPath>
      <clipPath
         clipPathUnits="userSpaceOnUse"
         id="clipPath44">
        <path
           d="M229.7213 377.6485 L229.7213 398.6485 L290.7213 398.6485 L290.7213 377.6485 Z"
           id="path132" />
      </clipPath>
      <clipPath
         clipPathUnits="userSpaceOnUse"
         id="clipPath45">
        <path
           d="M181.0546 504.3151 L181.0546 525.3151 L219.0546 525.3151 L219.0546 504.3151 Z"
           id="path135" />
      </clipPath>
      <clipPath
         clipPathUnits="userSpaceOnUse"
         id="clipPath46">
        <path
           d="M444.0546 649.3151 L444.0546 670.3151 L489.0546 670.3151 L489.0546 649.3151 Z"
           id="path138" />
      </clipPath>
      <clipPath
         clipPathUnits="userSpaceOnUse"
         id="clipPath47">
        <path
           d="M236.2759 80.1022 L236.2759 101.7689 L297.2759 101.7689 L297.2759 80.1022 Z"
           id="path141" />
      </clipPath>
      <clipPath
         clipPathUnits="userSpaceOnUse"
         id="clipPath48">
        <path
           d="M196.0546 589.3151 L196.0546 610.3151 L234.0546 610.3151 L234.0546 589.3151 Z"
           id="path144" />
      </clipPath>
      <clipPath
         clipPathUnits="userSpaceOnUse"
         id="clipPath49">
        <path
           d="M169.0238 680.9286 L169.0238 701.9286 L204.3095 701.9286 L204.3095 680.9286 Z"
           id="path147" />
      </clipPath>
      <clipPath
         clipPathUnits="userSpaceOnUse"
         id="clipPath50">
        <path
           d="M443.5 740.5 L443.5 761.5 L472.5 761.5 L472.5 740.5 Z"
           id="path150" />
      </clipPath>
      <clipPath
         clipPathUnits="userSpaceOnUse"
         id="clipPath51">
        <path
           d="M450.0546 475.3151 L450.0546 496.3151 L491.0546 496.3151 L491.0546 475.3151 Z"
           id="path153" />
      </clipPath>
      <clipPath
         clipPathUnits="userSpaceOnUse"
         id="clipPath52">
        <path
           d="M445.1093 187.1302 L445.1093 208.1302 L486.1093 208.1302 L486.1093 187.1302 Z"
           id="path156" />
      </clipPath>
      <clipPath
         clipPathUnits="userSpaceOnUse"
         id="clipPath53">
        <path
           d="M236.2759 100.1022 L236.2759 121.1022 L297.2759 121.1022 L297.2759 100.1022 Z"
           id="path159" />
      </clipPath>
      <clipPath
         clipPathUnits="userSpaceOnUse"
         id="clipPath54">
        <path
           d="M263.5546 669.3151 L263.5546 686.3151 L392.888 686.3151 L392.888 669.3151 Z"
           id="path162" />
      </clipPath>
      <clipPath
         clipPathUnits="userSpaceOnUse"
         id="clipPath55">
        <path
           d="M234.7213 203.6485 L234.7213 224.6485 L295.7213 224.6485 L295.7213 203.6485 Z"
           id="path165" />
      </clipPath>
      <clipPath
         clipPathUnits="userSpaceOnUse"
         id="clipPath56">
        <path
           d="M232.7213 447.9818 L232.7213 468.9818 L293.7213 468.9818 L293.7213 447.9818 Z"
           id="path168" />
      </clipPath>
      <clipPath
         clipPathUnits="userSpaceOnUse"
         id="clipPath57">
        <path
           d="M107.6092 283.1302 L107.6092 306.1302 L209.6092 306.1302 L209.6092 283.1302 Z"
           id="path171" />
      </clipPath>
      <clipPath
         clipPathUnits="userSpaceOnUse"
         id="clipPath58">
        <path
           d="M287.5546 769.3151 L287.5546 786.3151 L370.888 786.3151 L370.888 769.3151 Z"
           id="path174" />
      </clipPath>
      <clipPath
         clipPathUnits="userSpaceOnUse"
         id="clipPath59">
        <path
           d="M445.6093 160.1302 L445.6093 181.1302 L485.6093 181.1302 L485.6093 160.1302 Z"
           id="path177" />
      </clipPath>
      <clipPath
         clipPathUnits="userSpaceOnUse"
         id="clipPath60">
        <path
           d="M254.0546 416.9818 L254.0546 433.9818 L404.388 433.9818 L404.388 416.9818 Z"
           id="path180" />
      </clipPath>
      <clipPath
         clipPathUnits="userSpaceOnUse"
         id="clipPath61">
        <path
           d="M445.0546 332.3151 L445.0546 353.3151 L494.0546 353.3151 L494.0546 332.3151 Z"
           id="path183" />
      </clipPath>
      <clipPath
         clipPathUnits="userSpaceOnUse"
         id="clipPath62">
        <path
           d="M134.6092 310.1302 L134.6092 331.1302 L180.6092 331.1302 L180.6092 310.1302 Z"
           id="path186" />
      </clipPath>
      <clipPath
         clipPathUnits="userSpaceOnUse"
         id="clipPath63">
        <path
           d="M233.7213 708.6484 L233.7213 729.6484 L294.7213 729.6484 L294.7213 708.6484 Z"
           id="path189" />
      </clipPath>
      <clipPath
         clipPathUnits="userSpaceOnUse"
         id="clipPath64">
        <path
           d="M232.7213 298.9818 L232.7213 319.9818 L293.7213 319.9818 L293.7213 298.9818 Z"
           id="path192" />
      </clipPath>
      <clipPath
         clipPathUnits="userSpaceOnUse"
         id="clipPath65">
        <path
           d="M445.0546 571.3151 L445.0546 592.3151 L486.0546 592.3151 L486.0546 571.3151 Z"
           id="path195" />
      </clipPath>
      <clipPath
         clipPathUnits="userSpaceOnUse"
         id="clipPath66">
        <path
           d="M236.7213 532.9818 L236.7213 553.9818 L297.7213 553.9818 L297.7213 532.9818 Z"
           id="path198" />
      </clipPath>
      <clipPath
         clipPathUnits="userSpaceOnUse"
         id="clipPath67">
        <path
           d="M258.8698 26.2647 L258.8698 47.2647 L339.8698 47.2647 L339.8698 26.2647 Z"
           id="path201" />
      </clipPath>
      <clipPath
         clipPathUnits="userSpaceOnUse"
         id="clipPath68">
        <path
           d="M448.0546 402.3151 L448.0546 423.3151 L502.0546 423.3151 L502.0546 402.3151 Z"
           id="path204" />
      </clipPath>
      <clipPath
         clipPathUnits="userSpaceOnUse"
         id="clipPath69">
        <path
           d="M244.5546 494.3151 L244.5546 511.3151 L411.888 511.3151 L411.888 494.3151 Z"
           id="path207" />
      </clipPath>
      <clipPath
         clipPathUnits="userSpaceOnUse"
         id="clipPath70">
        <path
           d="M254.0546 351.6485 L254.0546 368.6485 L404.388 368.6485 L404.388 351.6485 Z"
           id="path210" />
      </clipPath>
      <clipPath
         clipPathUnits="userSpaceOnUse"
         id="clipPath71">
        <path
           d="M338.8698 26.2647 L338.8698 47.2647 L399.8277 47.2647 L399.8277 26.2647 Z"
           id="path213" />
      </clipPath>
      <clipPath
         clipPathUnits="userSpaceOnUse"
         id="clipPath72">
        <path
           d="M267.5546 252.6485 L267.5546 269.6485 L390.888 269.6485 L390.888 252.6485 Z"
           id="path216" />
      </clipPath>
      <clipPath
         clipPathUnits="userSpaceOnUse"
         id="clipPath73">
        <path
           d="M234.7213 622.9818 L234.7213 643.9818 L295.7213 643.9818 L295.7213 622.9818 Z"
           id="path219" />
      </clipPath>
    </defs>
    <g
       style="fill:white; stroke:white;"
       id="g225">
      <rect
         x="0"
         width="825"
         height="815"
         y="0"
         style="stroke:none;"
         id="rect223" />
    </g>
    <g
       style="font-weight:bold; font-size:10; text-rendering:geometricPrecision;"
       id="g235">
      <path
         d="M0.0469 6.7031 L6.7656 6.7031 L6.7656 8.125 L4.3438 8.125 L4.3438 14 L2.4688 14 L2.4688 8.125 L0.0469 8.125 L0.0469 6.7031 ZM7.665 8.5312 L9.415 8.5312 L9.415 14 L7.665 14 L7.665 8.5312 ZM7.665 6.4062 L9.415 6.4062 L9.415 7.8281 L7.665 7.8281 L7.665 6.4062 ZM12.999 6.9844 L12.999 8.5312 L14.7959 8.5312 L14.7959 9.7812 L12.999 9.7812 L12.999 12.0938 Q12.999 12.4844 13.1475 12.6172 Q13.2959 12.75 13.749 12.75 L14.6553 12.75 L14.6553 14 L13.1553 14 Q12.1084 14 11.6787 13.5703 Q11.249 13.1406 11.249 12.0938 L11.249 9.7812 L10.374 9.7812 L10.374 8.5312 L11.249 8.5312 L11.249 6.9844 L12.999 6.9844 ZM15.873 6.4062 L17.623 6.4062 L17.623 14 L15.873 14 L15.873 6.4062 ZM24.7539 11.25 L24.7539 11.75 L20.6758 11.75 Q20.7383 12.3594 21.1133 12.6719 Q21.4883 12.9844 22.1758 12.9844 Q22.7227 12.9844 23.3086 12.8203 Q23.8945 12.6562 24.5039 12.3125 L24.5039 13.6719 Q23.8789 13.9062 23.2617 14.0234 Q22.6445 14.1406 22.0195 14.1406 Q20.5352 14.1406 19.7148 13.3828 Q18.8945 12.625 18.8945 11.2656 Q18.8945 9.9375 19.6992 9.1719 Q20.5039 8.4062 21.9258 8.4062 Q23.207 8.4062 23.9805 9.1797 Q24.7539 9.9531 24.7539 11.25 ZM22.957 10.6719 Q22.957 10.1719 22.668 9.8672 Q22.3789 9.5625 21.9102 9.5625 Q21.3945 9.5625 21.082 9.8438 Q20.7695 10.125 20.6914 10.6719 L22.957 10.6719 ZM26.3643 8.5312 L28.1143 8.5312 L28.1143 10.4219 L26.3643 10.4219 L26.3643 8.5312 ZM26.3643 12.1094 L28.1143 12.1094 L28.1143 14 L26.3643 14 L26.3643 12.1094 Z"
         style="clip-path:url(#clipPath2); stroke:none;"
         clip-path="url(#clipPath2)"
         id="path227" />
      <path
         d="M38.9844 6.7031 L39.9688 6.7031 L39.9688 9.7031 L43.5469 9.7031 L43.5469 6.7031 L44.5312 6.7031 L44.5312 14 L43.5469 14 L43.5469 10.5312 L39.9688 10.5312 L39.9688 14 L38.9844 14 L38.9844 6.7031 ZM51.1445 11.0469 L51.1445 11.4844 L47.0039 11.4844 Q47.0664 12.4062 47.5664 12.8906 Q48.0664 13.375 48.957 13.375 Q49.4727 13.375 49.9648 13.25 Q50.457 13.125 50.9258 12.875 L50.9258 13.7188 Q50.4414 13.9219 49.9336 14.0312 Q49.4258 14.1406 48.9102 14.1406 Q47.5977 14.1406 46.832 13.3828 Q46.0664 12.625 46.0664 11.3125 Q46.0664 9.9688 46.793 9.1875 Q47.5195 8.4062 48.7539 8.4062 Q49.8633 8.4062 50.5039 9.1094 Q51.1445 9.8125 51.1445 11.0469 ZM50.2383 10.7812 Q50.2383 10.0469 49.832 9.6016 Q49.4258 9.1562 48.7695 9.1562 Q48.0039 9.1562 47.5586 9.5859 Q47.1133 10.0156 47.0352 10.7812 L50.2383 10.7812 ZM56.875 9.5781 Q57.2031 8.9688 57.6719 8.6875 Q58.1406 8.4062 58.7812 8.4062 Q59.6406 8.4062 60.1016 9 Q60.5625 9.5938 60.5625 10.7031 L60.5625 14 L59.6562 14 L59.6562 10.7344 Q59.6562 9.9375 59.3828 9.5625 Q59.1094 9.1875 58.5312 9.1875 Q57.8281 9.1875 57.4297 9.6484 Q57.0312 10.1094 57.0312 10.9062 L57.0312 14 L56.125 14 L56.125 10.7344 Q56.125 9.9375 55.8438 9.5625 Q55.5625 9.1875 54.9844 9.1875 Q54.2969 9.1875 53.8906 9.6484 Q53.4844 10.1094 53.4844 10.9062 L53.4844 14 L52.5781 14 L52.5781 8.5312 L53.4844 8.5312 L53.4844 9.375 Q53.7969 8.875 54.2266 8.6406 Q54.6562 8.4062 55.2344 8.4062 Q55.8438 8.4062 56.2578 8.7031 Q56.6719 9 56.875 9.5781 ZM67.0381 11.0469 L67.0381 11.4844 L62.8975 11.4844 Q62.96 12.4062 63.46 12.8906 Q63.96 13.375 64.8506 13.375 Q65.3662 13.375 65.8584 13.25 Q66.3506 13.125 66.8193 12.875 L66.8193 13.7188 Q66.335 13.9219 65.8271 14.0312 Q65.3193 14.1406 64.8037 14.1406 Q63.4912 14.1406 62.7256 13.3828 Q61.96 12.625 61.96 11.3125 Q61.96 9.9688 62.6865 9.1875 Q63.4131 8.4062 64.6475 8.4062 Q65.7568 8.4062 66.3975 9.1094 Q67.0381 9.8125 67.0381 11.0469 ZM66.1318 10.7812 Q66.1318 10.0469 65.7256 9.6016 Q65.3193 9.1562 64.6631 9.1562 Q63.8975 9.1562 63.4521 9.5859 Q63.0068 10.0156 62.9287 10.7812 L66.1318 10.7812 ZM75.6191 11.2656 Q75.6191 10.2812 75.2051 9.7188 Q74.791 9.1562 74.0879 9.1562 Q73.3691 9.1562 72.9629 9.7188 Q72.5566 10.2812 72.5566 11.2656 Q72.5566 12.2656 72.9629 12.8281 Q73.3691 13.3906 74.0879 13.3906 Q74.791 13.3906 75.2051 12.8281 Q75.6191 12.2656 75.6191 11.2656 ZM72.5566 9.3594 Q72.8379 8.875 73.2676 8.6406 Q73.6973 8.4062 74.3066 8.4062 Q75.3066 8.4062 75.9238 9.1953 Q76.541 9.9844 76.541 11.2656 Q76.541 12.5625 75.9238 13.3516 Q75.3066 14.1406 74.3066 14.1406 Q73.6973 14.1406 73.2676 13.9062 Q72.8379 13.6719 72.5566 13.1719 L72.5566 14 L71.6504 14 L71.6504 6.4062 L72.5566 6.4062 L72.5566 9.3594 ZM78.0293 8.5312 L78.9355 8.5312 L78.9355 14 L78.0293 14 L78.0293 8.5312 ZM78.0293 6.4062 L78.9355 6.4062 L78.9355 7.5469 L78.0293 7.5469 L78.0293 6.4062 ZM82.9326 9.1562 Q82.2139 9.1562 81.792 9.7188 Q81.3701 10.2812 81.3701 11.2656 Q81.3701 12.25 81.7842 12.8125 Q82.1982 13.375 82.9326 13.375 Q83.6514 13.375 84.0732 12.8125 Q84.4951 12.25 84.4951 11.2656 Q84.4951 10.2969 84.0732 9.7266 Q83.6514 9.1562 82.9326 9.1562 ZM82.9326 8.4062 Q84.1045 8.4062 84.7764 9.1641 Q85.4482 9.9219 85.4482 11.2656 Q85.4482 12.6094 84.7764 13.375 Q84.1045 14.1406 82.9326 14.1406 Q81.7607 14.1406 81.0889 13.375 Q80.417 12.6094 80.417 11.2656 Q80.417 9.9219 81.0889 9.1641 Q81.7607 8.4062 82.9326 8.4062 ZM90.4102 8.6875 L90.4102 9.5469 Q90.0352 9.3438 89.6289 9.25 Q89.2227 9.1562 88.7695 9.1562 Q88.1133 9.1562 87.7773 9.3594 Q87.4414 9.5625 87.4414 9.9688 Q87.4414 10.2812 87.6758 10.4609 Q87.9102 10.6406 88.6445 10.7969 L88.9414 10.875 Q89.9102 11.0781 90.3086 11.4531 Q90.707 11.8281 90.707 12.4844 Q90.707 13.25 90.1055 13.6953 Q89.5039 14.1406 88.457 14.1406 Q88.0039 14.1406 87.5273 14.0547 Q87.0508 13.9688 86.5352 13.7969 L86.5352 12.875 Q87.0352 13.125 87.5117 13.2578 Q87.9883 13.3906 88.4727 13.3906 Q89.0977 13.3906 89.4414 13.1719 Q89.7852 12.9531 89.7852 12.5625 Q89.7852 12.1875 89.543 11.9922 Q89.3008 11.7969 88.457 11.625 L88.1445 11.5469 Q87.3164 11.375 86.9414 11.0078 Q86.5664 10.6406 86.5664 10.0156 Q86.5664 9.2344 87.1133 8.8203 Q87.6602 8.4062 88.6758 8.4062 Q89.1602 8.4062 89.6055 8.4766 Q90.0508 8.5469 90.4102 8.6875 ZM94.417 14.5156 Q94.042 15.4844 93.6748 15.7812 Q93.3076 16.0781 92.7139 16.0781 L91.9951 16.0781 L91.9951 15.3281 L92.5107 15.3281 Q92.8857 15.3281 93.0889 15.1562 Q93.292 14.9844 93.542 14.3281 L93.7139 13.9062 L91.4951 8.5312 L92.4482 8.5312 L94.1514 12.8125 L95.8701 8.5312 L96.8232 8.5312 L94.417 14.5156 ZM102.6006 10.7031 L102.6006 14 L101.71 14 L101.71 10.7344 Q101.71 9.9531 101.4053 9.5703 Q101.1006 9.1875 100.4912 9.1875 Q99.7725 9.1875 99.3506 9.6484 Q98.9287 10.1094 98.9287 10.9062 L98.9287 14 L98.0225 14 L98.0225 8.5312 L98.9287 8.5312 L98.9287 9.375 Q99.2568 8.8906 99.6943 8.6484 Q100.1318 8.4062 100.6943 8.4062 Q101.6318 8.4062 102.1162 8.9844 Q102.6006 9.5625 102.6006 10.7031 ZM105.2822 6.9844 L105.2822 8.5312 L107.1416 8.5312 L107.1416 9.2344 L105.2822 9.2344 L105.2822 12.2031 Q105.2822 12.8594 105.4697 13.0547 Q105.6572 13.25 106.2197 13.25 L107.1416 13.25 L107.1416 14 L106.2197 14 Q105.1729 14 104.7744 13.6094 Q104.376 13.2188 104.376 12.2031 L104.376 9.2344 L103.7197 9.2344 L103.7197 8.5312 L104.376 8.5312 L104.376 6.9844 L105.2822 6.9844 ZM112.8594 10.7031 L112.8594 14 L111.9688 14 L111.9688 10.7344 Q111.9688 9.9531 111.6641 9.5703 Q111.3594 9.1875 110.75 9.1875 Q110.0312 9.1875 109.6094 9.6484 Q109.1875 10.1094 109.1875 10.9062 L109.1875 14 L108.2812 14 L108.2812 6.4062 L109.1875 6.4062 L109.1875 9.375 Q109.5156 8.8906 109.9531 8.6484 Q110.3906 8.4062 110.9531 8.4062 Q111.8906 8.4062 112.375 8.9844 Q112.8594 9.5625 112.8594 10.7031 ZM119.3379 11.0469 L119.3379 11.4844 L115.1973 11.4844 Q115.2598 12.4062 115.7598 12.8906 Q116.2598 13.375 117.1504 13.375 Q117.666 13.375 118.1582 13.25 Q118.6504 13.125 119.1191 12.875 L119.1191 13.7188 Q118.6348 13.9219 118.127 14.0312 Q117.6191 14.1406 117.1035 14.1406 Q115.791 14.1406 115.0254 13.3828 Q114.2598 12.625 114.2598 11.3125 Q114.2598 9.9688 114.9863 9.1875 Q115.7129 8.4062 116.9473 8.4062 Q118.0566 8.4062 118.6973 9.1094 Q119.3379 9.8125 119.3379 11.0469 ZM118.4316 10.7812 Q118.4316 10.0469 118.0254 9.6016 Q117.6191 9.1562 116.9629 9.1562 Q116.1973 9.1562 115.752 9.5859 Q115.3066 10.0156 115.2285 10.7812 L118.4316 10.7812 ZM124.2871 8.6875 L124.2871 9.5469 Q123.9121 9.3438 123.5059 9.25 Q123.0996 9.1562 122.6465 9.1562 Q121.9902 9.1562 121.6543 9.3594 Q121.3184 9.5625 121.3184 9.9688 Q121.3184 10.2812 121.5527 10.4609 Q121.7871 10.6406 122.5215 10.7969 L122.8184 10.875 Q123.7871 11.0781 124.1855 11.4531 Q124.584 11.8281 124.584 12.4844 Q124.584 13.25 123.9824 13.6953 Q123.3809 14.1406 122.334 14.1406 Q121.8809 14.1406 121.4043 14.0547 Q120.9277 13.9688 120.4121 13.7969 L120.4121 12.875 Q120.9121 13.125 121.3887 13.2578 Q121.8652 13.3906 122.3496 13.3906 Q122.9746 13.3906 123.3184 13.1719 Q123.6621 12.9531 123.6621 12.5625 Q123.6621 12.1875 123.4199 11.9922 Q123.1777 11.7969 122.334 11.625 L122.0215 11.5469 Q121.1934 11.375 120.8184 11.0078 Q120.4434 10.6406 120.4434 10.0156 Q120.4434 9.2344 120.9902 8.8203 Q121.5371 8.4062 122.5527 8.4062 Q123.0371 8.4062 123.4824 8.4766 Q123.9277 8.5469 124.2871 8.6875 ZM126.0127 8.5312 L126.9189 8.5312 L126.9189 14 L126.0127 14 L126.0127 8.5312 ZM126.0127 6.4062 L126.9189 6.4062 L126.9189 7.5469 L126.0127 7.5469 L126.0127 6.4062 ZM132.2754 8.6875 L132.2754 9.5469 Q131.9004 9.3438 131.4941 9.25 Q131.0879 9.1562 130.6348 9.1562 Q129.9785 9.1562 129.6426 9.3594 Q129.3066 9.5625 129.3066 9.9688 Q129.3066 10.2812 129.541 10.4609 Q129.7754 10.6406 130.5098 10.7969 L130.8066 10.875 Q131.7754 11.0781 132.1738 11.4531 Q132.5723 11.8281 132.5723 12.4844 Q132.5723 13.25 131.9707 13.6953 Q131.3691 14.1406 130.3223 14.1406 Q129.8691 14.1406 129.3926 14.0547 Q128.916 13.9688 128.4004 13.7969 L128.4004 12.875 Q128.9004 13.125 129.377 13.2578 Q129.8535 13.3906 130.3379 13.3906 Q130.9629 13.3906 131.3066 13.1719 Q131.6504 12.9531 131.6504 12.5625 Q131.6504 12.1875 131.4082 11.9922 Q131.166 11.7969 130.3223 11.625 L130.0098 11.5469 Q129.1816 11.375 128.8066 11.0078 Q128.4316 10.6406 128.4316 10.0156 Q128.4316 9.2344 128.9785 8.8203 Q129.5254 8.4062 130.541 8.4062 Q131.0254 8.4062 131.4707 8.4766 Q131.916 8.5469 132.2754 8.6875 Z"
         style="clip-path:url(#clipPath2); stroke:none;"
         clip-path="url(#clipPath2)"
         id="path229" />
      <path
         d="M4.25 21.9375 Q3.3906 21.9375 2.9141 22.5703 Q2.4375 23.2031 2.4375 24.3594 Q2.4375 25.5156 2.9141 26.1484 Q3.3906 26.7812 4.25 26.7812 Q5.1094 26.7812 5.5859 26.1484 Q6.0625 25.5156 6.0625 24.3594 Q6.0625 23.2031 5.5859 22.5703 Q5.1094 21.9375 4.25 21.9375 ZM4.25 20.5781 Q6 20.5781 7 21.5859 Q8 22.5938 8 24.3594 Q8 26.125 7 27.1328 Q6 28.1406 4.25 28.1406 Q2.5 28.1406 1.5 27.1328 Q0.5 26.125 0.5 24.3594 Q0.5 22.5938 1.5 21.5859 Q2.5 20.5781 4.25 20.5781 ZM13.4072 24.0156 Q13.1729 23.9062 12.9463 23.8594 Q12.7197 23.8125 12.4854 23.8125 Q11.8135 23.8125 11.4541 24.2422 Q11.0947 24.6719 11.0947 25.4844 L11.0947 28 L9.3447 28 L9.3447 22.5312 L11.0947 22.5312 L11.0947 23.4219 Q11.4229 22.8906 11.8604 22.6484 Q12.2979 22.4062 12.9072 22.4062 Q13.001 22.4062 13.1025 22.4062 Q13.2041 22.4062 13.3916 22.4375 L13.4072 24.0156 ZM17.9951 27.0781 Q17.6357 27.5469 17.1982 27.7734 Q16.7607 28 16.1982 28 Q15.1982 28 14.542 27.2109 Q13.8857 26.4219 13.8857 25.2031 Q13.8857 23.9688 14.542 23.1875 Q15.1982 22.4062 16.1982 22.4062 Q16.7607 22.4062 17.1982 22.6328 Q17.6357 22.8594 17.9951 23.3438 L17.9951 22.5312 L19.7451 22.5312 L19.7451 27.4531 Q19.7451 28.7656 18.917 29.4609 Q18.0889 30.1562 16.5107 30.1562 Q15.9951 30.1562 15.5186 30.0781 Q15.042 30 14.5576 29.8438 L14.5576 28.4844 Q15.0107 28.75 15.4482 28.875 Q15.8857 29 16.3389 29 Q17.1982 29 17.5967 28.625 Q17.9951 28.25 17.9951 27.4531 L17.9951 27.0781 ZM16.8389 23.6719 Q16.292 23.6719 15.9951 24.0703 Q15.6982 24.4688 15.6982 25.2031 Q15.6982 25.9531 15.9873 26.3438 Q16.2764 26.7344 16.8389 26.7344 Q17.3857 26.7344 17.6904 26.3281 Q17.9951 25.9219 17.9951 25.2031 Q17.9951 24.4688 17.6904 24.0703 Q17.3857 23.6719 16.8389 23.6719 ZM23.8877 25.5312 Q23.3408 25.5312 23.0596 25.7188 Q22.7783 25.9062 22.7783 26.2656 Q22.7783 26.6094 23.0049 26.7969 Q23.2314 26.9844 23.6221 26.9844 Q24.1221 26.9844 24.458 26.625 Q24.7939 26.2656 24.7939 25.7344 L24.7939 25.5312 L23.8877 25.5312 ZM26.5596 24.875 L26.5596 28 L24.7939 28 L24.7939 27.1875 Q24.4346 27.6875 23.9971 27.9141 Q23.5596 28.1406 22.9346 28.1406 Q22.0752 28.1406 21.5518 27.6484 Q21.0283 27.1562 21.0283 26.3594 Q21.0283 25.3906 21.6846 24.9453 Q22.3408 24.5 23.7627 24.5 L24.7939 24.5 L24.7939 24.3594 Q24.7939 23.9531 24.4658 23.7578 Q24.1377 23.5625 23.4502 23.5625 Q22.8877 23.5625 22.4033 23.6719 Q21.9189 23.7812 21.4971 24.0156 L21.4971 22.6719 Q22.0596 22.5469 22.6299 22.4766 Q23.2002 22.4062 23.7627 22.4062 Q25.2471 22.4062 25.9033 22.9844 Q26.5596 23.5625 26.5596 24.875 ZM33.6826 24.6719 L33.6826 28 L31.917 28 L31.917 27.4531 L31.917 25.4531 Q31.917 24.75 31.8857 24.4766 Q31.8545 24.2031 31.7764 24.0781 Q31.6826 23.9062 31.5029 23.8125 Q31.3232 23.7188 31.1045 23.7188 Q30.5576 23.7188 30.2451 24.1406 Q29.9326 24.5625 29.9326 25.3125 L29.9326 28 L28.1826 28 L28.1826 22.5312 L29.9326 22.5312 L29.9326 23.3281 Q30.3232 22.8594 30.7686 22.6328 Q31.2139 22.4062 31.7451 22.4062 Q32.6982 22.4062 33.1904 22.9844 Q33.6826 23.5625 33.6826 24.6719 ZM35.3018 22.5312 L37.0518 22.5312 L37.0518 28 L35.3018 28 L35.3018 22.5312 ZM35.3018 20.4062 L37.0518 20.4062 L37.0518 21.8281 L35.3018 21.8281 L35.3018 20.4062 ZM42.9951 22.7031 L42.9951 24.0312 Q42.4326 23.7969 41.9092 23.6797 Q41.3857 23.5625 40.9326 23.5625 Q40.4326 23.5625 40.1904 23.6875 Q39.9482 23.8125 39.9482 24.0625 Q39.9482 24.2812 40.1279 24.3906 Q40.3076 24.5 40.792 24.5625 L41.0889 24.5938 Q42.4326 24.7656 42.9014 25.1562 Q43.3701 25.5469 43.3701 26.3906 Q43.3701 27.2656 42.7217 27.7031 Q42.0732 28.1406 40.792 28.1406 Q40.2607 28.1406 39.6826 28.0547 Q39.1045 27.9688 38.4795 27.7969 L38.4795 26.4688 Q39.0107 26.7188 39.5576 26.8516 Q40.1045 26.9844 40.667 26.9844 Q41.1826 26.9844 41.4404 26.8438 Q41.6982 26.7031 41.6982 26.4219 Q41.6982 26.1875 41.5264 26.0703 Q41.3545 25.9531 40.8232 25.8906 L40.5107 25.8438 Q39.3389 25.7031 38.8701 25.3047 Q38.4014 24.9062 38.4014 24.1094 Q38.4014 23.2344 38.9951 22.8203 Q39.5889 22.4062 40.8232 22.4062 Q41.3076 22.4062 41.8389 22.4766 Q42.3701 22.5469 42.9951 22.7031 ZM49.7441 23.4375 Q50.0723 22.9375 50.5332 22.6719 Q50.9941 22.4062 51.541 22.4062 Q52.4785 22.4062 52.9707 22.9844 Q53.4629 23.5625 53.4629 24.6719 L53.4629 28 L51.7129 28 L51.7129 25.1406 Q51.7129 25.0781 51.7129 25.0156 Q51.7129 24.9531 51.7129 24.8281 Q51.7129 24.2344 51.5488 23.9766 Q51.3848 23.7188 50.9941 23.7188 Q50.4941 23.7188 50.2285 24.125 Q49.9629 24.5312 49.9473 25.3125 L49.9473 28 L48.1816 28 L48.1816 25.1406 Q48.1816 24.2344 48.0254 23.9766 Q47.8691 23.7188 47.4785 23.7188 Q46.9785 23.7188 46.7051 24.1328 Q46.4316 24.5469 46.4316 25.3125 L46.4316 28 L44.666 28 L44.666 22.5312 L46.4316 22.5312 L46.4316 23.3281 Q46.7441 22.875 47.166 22.6406 Q47.5879 22.4062 48.0879 22.4062 Q48.6504 22.4062 49.0879 22.6797 Q49.5254 22.9531 49.7441 23.4375 ZM55.3828 22.5312 L57.1328 22.5312 L57.1328 24.4219 L55.3828 24.4219 L55.3828 22.5312 ZM55.3828 26.1094 L57.1328 26.1094 L57.1328 28 L55.3828 28 L55.3828 26.1094 Z"
         style="clip-path:url(#clipPath2); stroke:none;"
         clip-path="url(#clipPath2)"
         id="path231" />
      <path
         d="M66.9844 20.7031 L67.9688 20.7031 L67.9688 23.7031 L71.5469 23.7031 L71.5469 20.7031 L72.5312 20.7031 L72.5312 28 L71.5469 28 L71.5469 24.5312 L67.9688 24.5312 L67.9688 28 L66.9844 28 L66.9844 20.7031 ZM76.582 23.1562 Q75.8633 23.1562 75.4414 23.7188 Q75.0195 24.2812 75.0195 25.2656 Q75.0195 26.25 75.4336 26.8125 Q75.8477 27.375 76.582 27.375 Q77.3008 27.375 77.7227 26.8125 Q78.1445 26.25 78.1445 25.2656 Q78.1445 24.2969 77.7227 23.7266 Q77.3008 23.1562 76.582 23.1562 ZM76.582 22.4062 Q77.7539 22.4062 78.4258 23.1641 Q79.0977 23.9219 79.0977 25.2656 Q79.0977 26.6094 78.4258 27.375 Q77.7539 28.1406 76.582 28.1406 Q75.4102 28.1406 74.7383 27.375 Q74.0664 26.6094 74.0664 25.2656 Q74.0664 23.9219 74.7383 23.1641 Q75.4102 22.4062 76.582 22.4062 ZM84.8408 23.5781 Q85.1689 22.9688 85.6377 22.6875 Q86.1064 22.4062 86.7471 22.4062 Q87.6064 22.4062 88.0674 23 Q88.5283 23.5938 88.5283 24.7031 L88.5283 28 L87.6221 28 L87.6221 24.7344 Q87.6221 23.9375 87.3486 23.5625 Q87.0752 23.1875 86.4971 23.1875 Q85.7939 23.1875 85.3955 23.6484 Q84.9971 24.1094 84.9971 24.9062 L84.9971 28 L84.0908 28 L84.0908 24.7344 Q84.0908 23.9375 83.8096 23.5625 Q83.5283 23.1875 82.9502 23.1875 Q82.2627 23.1875 81.8564 23.6484 Q81.4502 24.1094 81.4502 24.9062 L81.4502 28 L80.5439 28 L80.5439 22.5312 L81.4502 22.5312 L81.4502 23.375 Q81.7627 22.875 82.1924 22.6406 Q82.6221 22.4062 83.2002 22.4062 Q83.8096 22.4062 84.2236 22.7031 Q84.6377 23 84.8408 23.5781 ZM92.4414 23.1562 Q91.7227 23.1562 91.3008 23.7188 Q90.8789 24.2812 90.8789 25.2656 Q90.8789 26.25 91.293 26.8125 Q91.707 27.375 92.4414 27.375 Q93.1602 27.375 93.582 26.8125 Q94.0039 26.25 94.0039 25.2656 Q94.0039 24.2969 93.582 23.7266 Q93.1602 23.1562 92.4414 23.1562 ZM92.4414 22.4062 Q93.6133 22.4062 94.2852 23.1641 Q94.957 23.9219 94.957 25.2656 Q94.957 26.6094 94.2852 27.375 Q93.6133 28.1406 92.4414 28.1406 Q91.2695 28.1406 90.5977 27.375 Q89.9258 26.6094 89.9258 25.2656 Q89.9258 23.9219 90.5977 23.1641 Q91.2695 22.4062 92.4414 22.4062 ZM103.0977 22.6875 L103.0977 23.5469 Q102.7227 23.3438 102.3164 23.25 Q101.9102 23.1562 101.457 23.1562 Q100.8008 23.1562 100.4648 23.3594 Q100.1289 23.5625 100.1289 23.9688 Q100.1289 24.2812 100.3633 24.4609 Q100.5977 24.6406 101.332 24.7969 L101.6289 24.875 Q102.5977 25.0781 102.9961 25.4531 Q103.3945 25.8281 103.3945 26.4844 Q103.3945 27.25 102.793 27.6953 Q102.1914 28.1406 101.1445 28.1406 Q100.6914 28.1406 100.2148 28.0547 Q99.7383 27.9688 99.2227 27.7969 L99.2227 26.875 Q99.7227 27.125 100.1992 27.2578 Q100.6758 27.3906 101.1602 27.3906 Q101.7852 27.3906 102.1289 27.1719 Q102.4727 26.9531 102.4727 26.5625 Q102.4727 26.1875 102.2305 25.9922 Q101.9883 25.7969 101.1445 25.625 L100.832 25.5469 Q100.0039 25.375 99.6289 25.0078 Q99.2539 24.6406 99.2539 24.0156 Q99.2539 23.2344 99.8008 22.8203 Q100.3477 22.4062 101.3633 22.4062 Q101.8477 22.4062 102.293 22.4766 Q102.7383 22.5469 103.0977 22.6875 ZM107.3076 25.25 Q106.2295 25.25 105.8076 25.5 Q105.3857 25.75 105.3857 26.3438 Q105.3857 26.8281 105.6982 27.1094 Q106.0107 27.3906 106.5576 27.3906 Q107.3076 27.3906 107.7607 26.8594 Q108.2139 26.3281 108.2139 25.4531 L108.2139 25.25 L107.3076 25.25 ZM109.1045 24.875 L109.1045 28 L108.2139 28 L108.2139 27.1719 Q107.9014 27.6719 107.4404 27.9062 Q106.9795 28.1406 106.3232 28.1406 Q105.4795 28.1406 104.9795 27.6719 Q104.4795 27.2031 104.4795 26.4062 Q104.4795 25.4844 105.1045 25.0156 Q105.7295 24.5469 106.9482 24.5469 L108.2139 24.5469 L108.2139 24.4531 Q108.2139 23.8438 107.7998 23.5 Q107.3857 23.1562 106.6514 23.1562 Q106.1826 23.1562 105.7373 23.2734 Q105.292 23.3906 104.8857 23.6094 L104.8857 22.7812 Q105.3857 22.5938 105.8467 22.5 Q106.3076 22.4062 106.7451 22.4062 Q107.9326 22.4062 108.5186 23.0156 Q109.1045 23.625 109.1045 24.875 ZM111.8262 27.1719 L111.8262 30.0781 L110.9199 30.0781 L110.9199 22.5312 L111.8262 22.5312 L111.8262 23.3594 Q112.1074 22.875 112.5371 22.6406 Q112.9668 22.4062 113.5762 22.4062 Q114.5762 22.4062 115.1934 23.1953 Q115.8105 23.9844 115.8105 25.2656 Q115.8105 26.5625 115.1934 27.3516 Q114.5762 28.1406 113.5762 28.1406 Q112.9668 28.1406 112.5371 27.9062 Q112.1074 27.6719 111.8262 27.1719 ZM114.8887 25.2656 Q114.8887 24.2812 114.4746 23.7188 Q114.0605 23.1562 113.3574 23.1562 Q112.6387 23.1562 112.2324 23.7188 Q111.8262 24.2812 111.8262 25.2656 Q111.8262 26.2656 112.2324 26.8281 Q112.6387 27.3906 113.3574 27.3906 Q114.0605 27.3906 114.4746 26.8281 Q114.8887 26.2656 114.8887 25.2656 ZM117.2988 22.5312 L118.2051 22.5312 L118.2051 28 L117.2988 28 L117.2988 22.5312 ZM117.2988 20.4062 L118.2051 20.4062 L118.2051 21.5469 L117.2988 21.5469 L117.2988 20.4062 ZM124.7646 25.0469 L124.7646 25.4844 L120.624 25.4844 Q120.6865 26.4062 121.1865 26.8906 Q121.6865 27.375 122.5771 27.375 Q123.0928 27.375 123.585 27.25 Q124.0771 27.125 124.5459 26.875 L124.5459 27.7188 Q124.0615 27.9219 123.5537 28.0312 Q123.0459 28.1406 122.5303 28.1406 Q121.2178 28.1406 120.4521 27.3828 Q119.6865 26.625 119.6865 25.3125 Q119.6865 23.9688 120.4131 23.1875 Q121.1396 22.4062 122.374 22.4062 Q123.4834 22.4062 124.124 23.1094 Q124.7646 23.8125 124.7646 25.0469 ZM123.8584 24.7812 Q123.8584 24.0469 123.4521 23.6016 Q123.0459 23.1562 122.3896 23.1562 Q121.624 23.1562 121.1787 23.5859 Q120.7334 24.0156 120.6553 24.7812 L123.8584 24.7812 ZM130.7764 24.7031 L130.7764 28 L129.8857 28 L129.8857 24.7344 Q129.8857 23.9531 129.5811 23.5703 Q129.2764 23.1875 128.667 23.1875 Q127.9482 23.1875 127.5264 23.6484 Q127.1045 24.1094 127.1045 24.9062 L127.1045 28 L126.1982 28 L126.1982 22.5312 L127.1045 22.5312 L127.1045 23.375 Q127.4326 22.8906 127.8701 22.6484 Q128.3076 22.4062 128.8701 22.4062 Q129.8076 22.4062 130.292 22.9844 Q130.7764 23.5625 130.7764 24.7031 ZM136.0518 22.6875 L136.0518 23.5469 Q135.6768 23.3438 135.2705 23.25 Q134.8643 23.1562 134.4111 23.1562 Q133.7549 23.1562 133.4189 23.3594 Q133.083 23.5625 133.083 23.9688 Q133.083 24.2812 133.3174 24.4609 Q133.5518 24.6406 134.2861 24.7969 L134.583 24.875 Q135.5518 25.0781 135.9502 25.4531 Q136.3486 25.8281 136.3486 26.4844 Q136.3486 27.25 135.7471 27.6953 Q135.1455 28.1406 134.0986 28.1406 Q133.6455 28.1406 133.1689 28.0547 Q132.6924 27.9688 132.1768 27.7969 L132.1768 26.875 Q132.6768 27.125 133.1533 27.2578 Q133.6299 27.3906 134.1143 27.3906 Q134.7393 27.3906 135.083 27.1719 Q135.4268 26.9531 135.4268 26.5625 Q135.4268 26.1875 135.1846 25.9922 Q134.9424 25.7969 134.0986 25.625 L133.7861 25.5469 Q132.958 25.375 132.583 25.0078 Q132.208 24.6406 132.208 24.0156 Q132.208 23.2344 132.7549 22.8203 Q133.3018 22.4062 134.3174 22.4062 Q134.8018 22.4062 135.2471 22.4766 Q135.6924 22.5469 136.0518 22.6875 Z"
         style="clip-path:url(#clipPath2); stroke:none;"
         clip-path="url(#clipPath2)"
         id="path233" />
    </g>
    <g
       style="fill:navy; text-rendering:geometricPrecision; font-size:8; stroke:navy;"
       id="g239">
      <text
         x="142"
         xml:space="preserve"
         y="16"
         style="clip-path:url(#clipPath4); stroke:none;"
         clip-path="url(#clipPath4)"
         id="text237">1</text>
    </g>
    <g
       style="fill:rgb(180,180,100); text-rendering:geometricPrecision; fill-opacity:0.098; stroke-opacity:0.098; stroke:rgb(180,180,100);"
       id="g243">
      <rect
         x="228"
         y="72"
         width="76"
         style="clip-path:url(#clipPath5); stroke:none;"
         height="55"
         clip-path="url(#clipPath5)"
         id="rect241" />
    </g>
    <g
       style="fill:gray; text-rendering:geometricPrecision; stroke-dasharray:4,2; stroke-miterlimit:1; stroke:gray;"
       id="g247">
      <rect
         x="228"
         y="72"
         width="75"
         style="fill:none; clip-path:url(#clipPath5);"
         height="54"
         clip-path="url(#clipPath5)"
         id="rect245" />
    </g>
    <g
       style="fill:rgb(180,180,100); text-rendering:geometricPrecision; fill-opacity:0.098; stroke-opacity:0.098; stroke:rgb(180,180,100);"
       id="g251">
      <rect
         x="100"
         y="275"
         width="117"
         style="clip-path:url(#clipPath6); stroke:none;"
         height="62"
         clip-path="url(#clipPath6)"
         id="rect249" />
    </g>
    <g
       style="fill:gray; text-rendering:geometricPrecision; stroke-dasharray:4,2; stroke-miterlimit:1; stroke:gray;"
       id="g255">
      <rect
         x="100"
         y="275"
         width="116"
         style="fill:none; clip-path:url(#clipPath6);"
         height="61"
         clip-path="url(#clipPath6)"
         id="rect253" />
    </g>
    <g
       style="fill:rgb(180,180,100); text-rendering:geometricPrecision; fill-opacity:0.098; stroke-opacity:0.098; stroke:rgb(180,180,100);"
       id="g259">
      <rect
         x="437"
         y="152"
         width="56"
         style="clip-path:url(#clipPath7); stroke:none;"
         height="63"
         clip-path="url(#clipPath7)"
         id="rect257" />
    </g>
    <g
       style="fill:gray; text-rendering:geometricPrecision; stroke-dasharray:4,2; stroke-miterlimit:1; stroke:gray;"
       id="g263">
      <rect
         x="437"
         y="152"
         width="55"
         style="fill:none; clip-path:url(#clipPath7);"
         height="62"
         clip-path="url(#clipPath7)"
         id="rect261" />
    </g>
    <g
       style="text-rendering:geometricPrecision;"
       id="g271">
      <path
         d="M290.2213 388.1485 L319.2215 387.9502"
         style="fill:none; clip-path:url(#clipPath8);"
         clip-path="url(#clipPath8)"
         id="path265" />
      <path
         d="M329.6213 387.8791 C329.6409 390.7509 327.3288 393.0948 324.457 393.1145 C321.5851 393.1341 319.2411 390.822 319.2215 387.9502 C319.2019 385.0783 321.514 382.7344 324.3858 382.7147 C327.2577 382.6951 329.6017 385.0072 329.6213 387.8791 Z"
         style="fill:white; clip-path:url(#clipPath8); stroke:none;"
         clip-path="url(#clipPath8)"
         id="path267" />
      <path
         d="M329.6213 387.8791 C329.6409 390.7509 327.3288 393.0948 324.457 393.1145 C321.5851 393.1341 319.2411 390.822 319.2215 387.9502 C319.2019 385.0783 321.514 382.7344 324.3858 382.7147 C327.2577 382.6951 329.6017 385.0072 329.6213 387.8791 Z"
         style="fill:none; clip-path:url(#clipPath8);"
         clip-path="url(#clipPath8)"
         id="path269" />
    </g>
    <g
       style="text-rendering:geometricPrecision;"
       id="g279">
      <path
         d="M294.2213 719.1484 L318.6216 719.3376"
         style="fill:none; clip-path:url(#clipPath9);"
         clip-path="url(#clipPath9)"
         id="path273" />
      <path
         d="M329.0213 719.4182 C328.999 722.29 326.6529 724.6 323.7811 724.5778 C320.9093 724.5555 318.5993 722.2094 318.6216 719.3376 C318.6439 716.4658 320.99 714.1558 323.8618 714.1781 C326.7336 714.2003 329.0435 716.5464 329.0213 719.4182 Z"
         style="fill:white; clip-path:url(#clipPath9); stroke:none;"
         clip-path="url(#clipPath9)"
         id="path275" />
      <path
         d="M329.0213 719.4182 C328.999 722.29 326.6529 724.6 323.7811 724.5778 C320.9093 724.5555 318.5993 722.2094 318.6216 719.3376 C318.6439 716.4658 320.99 714.1558 323.8618 714.1781 C326.7336 714.2003 329.0435 716.5464 329.0213 719.4182 Z"
         style="fill:none; clip-path:url(#clipPath9);"
         clip-path="url(#clipPath9)"
         id="path277" />
    </g>
    <g
       style="text-rendering:geometricPrecision;"
       id="g283">
      <path
         d="M203.8095 691.4286 C203.8095 691.4286 208.9947 691.6963 213.8095 692.6334 C213.8095 692.6334 218.6243 693.5704 221.2169 696.1138 C221.2169 696.1138 223.8095 698.6572 237.3754 701.2007 C237.3754 701.2007 250.9412 703.7441 276.1349 704.6812 C301.3286 705.6182 328.4602 705.8859 328.4602 705.8859"
         style="fill:none; clip-path:url(#clipPath10);"
         clip-path="url(#clipPath10)"
         id="path281" />
    </g>
    <g
       style="text-rendering:geometricPrecision;"
       id="g289">
      <path
         d="M329.2213 171.1485 L329.2213 253.1485"
         style="fill:none; clip-path:url(#clipPath11);"
         clip-path="url(#clipPath11)"
         id="path285" />
      <path
         d="M329.2213 253.1485 L334.4213 241.4485 L324.0213 241.4485 Z"
         style="clip-path:url(#clipPath11); fill-rule:evenodd; stroke:none;"
         clip-path="url(#clipPath11)"
         id="path287" />
    </g>
    <g
       style="text-rendering:geometricPrecision;"
       id="g295">
      <path
         d="M329.2213 368.1485 L329.2213 417.4818"
         style="fill:none; clip-path:url(#clipPath12);"
         clip-path="url(#clipPath12)"
         id="path291" />
      <path
         d="M329.2213 417.4818 L334.4213 405.7818 L324.0213 405.7818 Z"
         style="clip-path:url(#clipPath12); fill-rule:evenodd; stroke:none;"
         clip-path="url(#clipPath12)"
         id="path293" />
    </g>
    <g
       style="text-rendering:geometricPrecision;"
       id="g301">
      <path
         d="M328.2213 510.8151 L328.2213 579.8151"
         style="fill:none; clip-path:url(#clipPath13);"
         clip-path="url(#clipPath13)"
         id="path297" />
      <path
         d="M328.2213 579.8151 L333.4213 568.1151 L323.0213 568.1151 Z"
         style="clip-path:url(#clipPath13); fill-rule:evenodd; stroke:none;"
         clip-path="url(#clipPath13)"
         id="path299" />
    </g>
    <g
       style="fill:red; text-rendering:geometricPrecision; stroke:red;"
       id="g307">
      <path
         d="M328.5918 472.0891 C328.5918 472.0891 328.5822 472.3433 328.5732 473.233 C328.5732 473.233 328.5643 474.1226 328.5594 476.5374 C328.5594 476.5374 328.5546 478.9521 344.3694 481.3669 C344.3694 481.3669 360.1843 483.7816 389.5546 484.6713 C418.925 485.5609 450.5546 485.8151 450.5546 485.8151"
         style="fill:none; clip-path:url(#clipPath14);"
         clip-path="url(#clipPath14)"
         id="path303" />
      <path
         d="M450.5546 485.8151 L438.8968 480.5213 L438.8132 490.9209 Z"
         style="clip-path:url(#clipPath14); fill-rule:evenodd; stroke:none;"
         clip-path="url(#clipPath14)"
         id="path305" />
    </g>
    <g
       style="fill:red; text-rendering:geometricPrecision; stroke:red;"
       id="g313">
      <path
         d="M329.2213 396.3875 C329.2213 396.3875 329.3077 396.6917 329.388 397.7565 C329.388 397.7565 329.4682 398.8213 329.5114 401.7113 C329.5114 401.7113 329.5546 404.6013 344.9806 407.4914 C344.9806 407.4914 360.4065 410.3814 389.0546 411.4462 C417.7028 412.5109 448.5546 412.8151 448.5546 412.8151"
         style="fill:none; clip-path:url(#clipPath15);"
         clip-path="url(#clipPath15)"
         id="path309" />
      <path
         d="M448.5546 412.8151 L436.9065 407.5 L436.8039 417.8995 Z"
         style="clip-path:url(#clipPath15); fill-rule:evenodd; stroke:none;"
         clip-path="url(#clipPath15)"
         id="path311" />
    </g>
    <g
       style="text-rendering:geometricPrecision;"
       id="g321">
      <path
         d="M297.2213 543.4818 L318.2213 543.4604"
         style="fill:none; clip-path:url(#clipPath16);"
         clip-path="url(#clipPath16)"
         id="path315" />
      <path
         d="M328.6213 543.4498 C328.6242 546.3217 326.2985 548.6522 323.4266 548.6552 C320.5547 548.6581 318.2242 546.3323 318.2213 543.4604 C318.2184 540.5886 320.5441 538.2581 323.416 538.2551 C326.2879 538.2522 328.6184 540.578 328.6213 543.4498 Z"
         style="fill:white; clip-path:url(#clipPath16); stroke:none;"
         clip-path="url(#clipPath16)"
         id="path317" />
      <path
         d="M328.6213 543.4498 C328.6242 546.3217 326.2985 548.6522 323.4266 548.6552 C320.5547 548.6581 318.2242 546.3323 318.2213 543.4604 C318.2184 540.5886 320.5441 538.2581 323.416 538.2551 C326.2879 538.2522 328.6184 540.578 328.6213 543.4498 Z"
         style="fill:none; clip-path:url(#clipPath16);"
         clip-path="url(#clipPath16)"
         id="path319" />
    </g>
    <g
       style="text-rendering:geometricPrecision;"
       id="g327">
      <path
         d="M329.2213 433.4818 L328.2213 494.8151"
         style="fill:none; clip-path:url(#clipPath17);"
         clip-path="url(#clipPath17)"
         id="path323" />
      <path
         d="M328.2213 494.8151 L333.6113 483.2014 L323.2127 483.0319 Z"
         style="clip-path:url(#clipPath17); fill-rule:evenodd; stroke:none;"
         clip-path="url(#clipPath17)"
         id="path325" />
    </g>
    <g
       style="text-rendering:geometricPrecision;"
       id="g333">
      <path
         d="M328.2213 595.8151 L328.2213 669.8151"
         style="fill:none; clip-path:url(#clipPath18);"
         clip-path="url(#clipPath18)"
         id="path329" />
      <path
         d="M328.2213 669.8151 L333.4213 658.1151 L323.0213 658.1151 Z"
         style="clip-path:url(#clipPath18); fill-rule:evenodd; stroke:none;"
         clip-path="url(#clipPath18)"
         id="path331" />
    </g>
    <g
       style="text-rendering:geometricPrecision;"
       id="g337">
      <path
         d="M203.5546 171.1485 C203.5546 171.1485 236.2213 171.5631 266.5546 173.0142 C266.5546 173.0142 296.888 174.4653 313.2213 178.404 C313.2213 178.404 329.5546 182.3427 329.5114 186.2815 C329.5114 186.2815 329.4682 190.2202 329.388 191.6713 C329.3077 193.1224 329.2213 193.537 329.2213 193.537"
         style="fill:none; clip-path:url(#clipPath19);"
         clip-path="url(#clipPath19)"
         id="path335" />
    </g>
    <g
       style="text-rendering:geometricPrecision;"
       id="g345">
      <path
         d="M293.2213 458.4818 L318.8221 458.1462"
         style="fill:none; clip-path:url(#clipPath20);"
         clip-path="url(#clipPath20)"
         id="path339" />
      <path
         d="M329.2213 458.0099 C329.2589 460.8815 326.9615 463.24 324.0899 463.2776 C321.2182 463.3152 318.8598 461.0178 318.8221 458.1462 C318.7845 455.2746 321.0819 452.9161 323.9536 452.8785 C326.8252 452.8409 329.1836 455.1382 329.2213 458.0099 Z"
         style="fill:white; clip-path:url(#clipPath20); stroke:none;"
         clip-path="url(#clipPath20)"
         id="path341" />
      <path
         d="M329.2213 458.0099 C329.2589 460.8815 326.9615 463.24 324.0899 463.2776 C321.2182 463.3152 318.8598 461.0178 318.8221 458.1462 C318.7845 455.2746 321.0819 452.9161 323.9536 452.8785 C326.8252 452.8409 329.1836 455.1382 329.2213 458.0099 Z"
         style="fill:none; clip-path:url(#clipPath20);"
         clip-path="url(#clipPath20)"
         id="path343" />
    </g>
    <g
       style="text-rendering:geometricPrecision;"
       id="g349">
      <path
         d="M233.5546 599.8151 C233.5546 599.8151 258.4435 600.1027 281.5546 601.1091 C281.5546 601.1091 304.6657 602.1155 317.1102 604.8473 C317.1102 604.8473 329.5546 607.579 329.3818 610.3107 C329.3818 610.3107 329.209 613.0425 328.888 614.049 C328.567 615.0554 328.2213 615.3429 328.2213 615.3429"
         style="fill:none; clip-path:url(#clipPath21);"
         clip-path="url(#clipPath21)"
         id="path347" />
    </g>
    <g
       style="text-rendering:geometricPrecision;"
       id="g357">
      <path
         d="M295.2213 633.4818 L318.2233 633.0254"
         style="fill:none; clip-path:url(#clipPath22);"
         clip-path="url(#clipPath22)"
         id="path351" />
      <path
         d="M328.6212 632.8191 C328.6782 635.6904 326.3967 638.0643 323.5254 638.1212 C320.6541 638.1782 318.2802 635.8967 318.2233 633.0254 C318.1663 630.1541 320.4478 627.7802 323.3191 627.7233 C326.1904 627.6663 328.5642 629.9478 328.6212 632.8191 Z"
         style="fill:white; clip-path:url(#clipPath22); stroke:none;"
         clip-path="url(#clipPath22)"
         id="path353" />
      <path
         d="M328.6212 632.8191 C328.6782 635.6904 326.3967 638.0643 323.5254 638.1212 C320.6541 638.1782 318.2802 635.8967 318.2233 633.0254 C318.1663 630.1541 320.4478 627.7802 323.3191 627.7233 C326.1904 627.6663 328.5642 629.9478 328.6212 632.8191 Z"
         style="fill:none; clip-path:url(#clipPath22);"
         clip-path="url(#clipPath22)"
         id="path355" />
    </g>
    <g
       style="text-rendering:geometricPrecision;"
       id="g365">
      <path
         d="M295.2213 214.1485 L319.2213 214.067"
         style="fill:none; clip-path:url(#clipPath23);"
         clip-path="url(#clipPath23)"
         id="path359" />
      <path
         d="M329.6213 214.0317 C329.631 216.9036 327.3108 219.2396 324.439 219.2493 C321.5671 219.2591 319.2311 216.9389 319.2213 214.067 C319.2116 211.1951 321.5318 208.8591 324.4037 208.8494 C327.2755 208.8396 329.6115 211.1598 329.6213 214.0317 Z"
         style="fill:white; clip-path:url(#clipPath23); stroke:none;"
         clip-path="url(#clipPath23)"
         id="path361" />
      <path
         d="M329.6213 214.0317 C329.631 216.9036 327.3108 219.2396 324.439 219.2493 C321.5671 219.2591 319.2311 216.9389 319.2213 214.067 C319.2116 211.1951 321.5318 208.8591 324.4037 208.8494 C327.2755 208.8396 329.6115 211.1598 329.6213 214.0317 Z"
         style="fill:none; clip-path:url(#clipPath23);"
         clip-path="url(#clipPath23)"
         id="path363" />
    </g>
    <g
       style="fill:red; text-rendering:geometricPrecision; stroke:red;"
       id="g371">
      <path
         d="M328.8717 740.4523 C328.8717 740.4523 343.3618 740.6476 356.8168 741.3313 C356.8168 741.3313 370.2719 742.0149 377.5169 743.8705 C377.5169 743.8705 384.7619 745.7261 392.4409 747.5818 C392.4409 747.5818 400.1199 749.4374 414.381 750.121 C428.642 750.8047 444 751 444 751"
         style="fill:none; clip-path:url(#clipPath24);"
         clip-path="url(#clipPath24)"
         id="path367" />
      <path
         d="M444 751 L432.3671 745.6516 L432.2348 756.0508 Z"
         style="clip-path:url(#clipPath24); fill-rule:evenodd; stroke:none;"
         clip-path="url(#clipPath24)"
         id="path369" />
    </g>
    <g
       style="fill:red; text-rendering:geometricPrecision; stroke:red;"
       id="g377">
      <path
         d="M329.2763 111.8009 C329.2763 111.8009 329.3485 113.1404 329.4155 117.8284 C329.4155 117.8284 329.4825 122.5164 329.5186 135.241 C329.5186 135.241 329.5546 147.9656 343.5617 160.6902 C343.5617 160.6902 357.5688 173.4148 383.5819 178.1028 C409.5951 182.7908 437.6093 184.1302 437.6093 184.1302"
         style="fill:none; clip-path:url(#clipPath25);"
         clip-path="url(#clipPath25)"
         id="path373" />
      <path
         d="M437.6093 184.1302 L426.1709 178.3774 L425.6743 188.7655 Z"
         style="clip-path:url(#clipPath25); fill-rule:evenodd; stroke:none;"
         clip-path="url(#clipPath25)"
         id="path375" />
    </g>
    <g
       style="text-rendering:geometricPrecision;"
       id="g383">
      <path
         d="M328.2213 685.8151 L329.2213 769.8151"
         style="fill:none; clip-path:url(#clipPath26);"
         clip-path="url(#clipPath26)"
         id="path379" />
      <path
         d="M329.2213 769.8151 L334.2816 758.0541 L323.8824 758.1779 Z"
         style="clip-path:url(#clipPath26); fill-rule:evenodd; stroke:none;"
         clip-path="url(#clipPath26)"
         id="path381" />
    </g>
    <g
       style="fill:red; text-rendering:geometricPrecision; stroke:red;"
       id="g389">
      <path
         d="M328.2213 560.2341 C328.2213 560.2341 328.3077 560.6337 328.388 562.0325 C328.388 562.0325 328.4682 563.4312 328.5114 567.2279 C328.5114 567.2279 328.5546 571.0246 343.7213 574.8212 C343.7213 574.8212 358.888 578.6179 387.0546 580.0167 C415.2213 581.4155 445.5546 581.8151 445.5546 581.8151"
         style="fill:none; clip-path:url(#clipPath27);"
         clip-path="url(#clipPath27)"
         id="path385" />
      <path
         d="M445.5546 581.8151 L433.9241 576.4614 L433.7871 586.8605 Z"
         style="clip-path:url(#clipPath27); fill-rule:evenodd; stroke:none;"
         clip-path="url(#clipPath27)"
         id="path387" />
    </g>
    <g
       style="fill:red; text-rendering:geometricPrecision; stroke:red;"
       id="g395">
      <path
         d="M329.2213 227.6971 C329.2213 227.6971 329.0485 228.1252 328.888 229.6236 C328.888 229.6236 328.7274 231.122 328.6411 235.189 C328.6411 235.189 328.5546 239.2561 344.2398 243.3232 C344.2398 243.3232 359.925 247.3902 389.0546 248.8886 C418.1843 250.387 449.5546 250.8151 449.5546 250.8151"
         style="fill:none; clip-path:url(#clipPath28);"
         clip-path="url(#clipPath28)"
         id="path391" />
      <path
         d="M449.5546 250.8151 L437.9267 245.4559 L437.7848 255.855 Z"
         style="clip-path:url(#clipPath28); fill-rule:evenodd; stroke:none;"
         clip-path="url(#clipPath28)"
         id="path393" />
    </g>
    <g
       style="text-rendering:geometricPrecision;"
       id="g403">
      <path
         d="M304.7759 100.6022 L319.2956 100.1838"
         style="fill:none; clip-path:url(#clipPath29);"
         clip-path="url(#clipPath29)"
         id="path397" />
      <path
         d="M329.6913 99.8842 C329.774 102.7549 327.5139 105.1491 324.6432 105.2318 C321.7726 105.3146 319.3783 103.0545 319.2956 100.1838 C319.2129 97.3131 321.473 94.9189 324.3436 94.8362 C327.2143 94.7534 329.6086 97.0135 329.6913 99.8842 Z"
         style="fill:white; clip-path:url(#clipPath29); stroke:none;"
         clip-path="url(#clipPath29)"
         id="path399" />
      <path
         d="M329.6913 99.8842 C329.774 102.7549 327.5139 105.1491 324.6432 105.2318 C321.7726 105.3146 319.3783 103.0545 319.2956 100.1838 C319.2129 97.3131 321.473 94.9189 324.3436 94.8362 C327.2143 94.7534 329.6086 97.0135 329.6913 99.8842 Z"
         style="fill:none; clip-path:url(#clipPath29);"
         clip-path="url(#clipPath29)"
         id="path401" />
    </g>
    <g
       style="text-rendering:geometricPrecision;"
       id="g411">
      <path
         d="M293.2213 309.4818 L319.2213 309.52"
         style="fill:none; clip-path:url(#clipPath30);"
         clip-path="url(#clipPath30)"
         id="path405" />
      <path
         d="M329.6213 309.5353 C329.6171 312.4072 327.2855 314.7319 324.4137 314.7276 C321.5418 314.7234 319.2171 312.3919 319.2213 309.52 C319.2255 306.6481 321.5571 304.3234 324.4289 304.3276 C327.3008 304.3319 329.6255 306.6634 329.6213 309.5353 Z"
         style="fill:white; clip-path:url(#clipPath30); stroke:none;"
         clip-path="url(#clipPath30)"
         id="path407" />
      <path
         d="M329.6213 309.5353 C329.6171 312.4072 327.2855 314.7319 324.4137 314.7276 C321.5418 314.7234 319.2171 312.3919 319.2213 309.52 C319.2255 306.6481 321.5571 304.3234 324.4289 304.3276 C327.3008 304.3319 329.6255 306.6634 329.6213 309.5353 Z"
         style="fill:none; clip-path:url(#clipPath30);"
         clip-path="url(#clipPath30)"
         id="path409" />
    </g>
    <g
       style="fill:red; text-rendering:geometricPrecision; stroke:red;"
       id="g417">
      <path
         d="M329.2213 326.0291 C329.2213 326.0291 329.3077 326.3399 329.388 327.4279 C329.388 327.4279 329.4682 328.5159 329.5114 331.469 C329.5114 331.469 329.5546 334.4221 344.5916 337.3752 C344.5916 337.3752 359.6287 340.3283 387.5546 341.4163 C415.4806 342.5043 445.5546 342.8151 445.5546 342.8151"
         style="fill:none; clip-path:url(#clipPath31);"
         clip-path="url(#clipPath31)"
         id="path413" />
      <path
         d="M445.5546 342.8151 L433.909 337.4945 L433.8015 347.8939 Z"
         style="clip-path:url(#clipPath31); fill-rule:evenodd; stroke:none;"
         clip-path="url(#clipPath31)"
         id="path415" />
    </g>
    <g
       style="fill:red; text-rendering:geometricPrecision; stroke:red;"
       id="g423">
      <path
         d="M328.2213 649.2596 C328.2213 649.2596 328.3077 649.455 328.388 650.1392 C328.388 650.1392 328.4682 650.8234 328.5114 652.6804 C328.5114 652.6804 328.5546 654.5374 343.5916 656.3943 C343.5916 656.3943 358.6287 658.2513 386.5546 658.9355 C414.4806 659.6196 444.5546 659.8151 444.5546 659.8151"
         style="fill:none; clip-path:url(#clipPath32);"
         clip-path="url(#clipPath32)"
         id="path419" />
      <path
         d="M444.5546 659.8151 L432.8887 654.5392 L432.8211 664.939 Z"
         style="clip-path:url(#clipPath32); fill-rule:evenodd; stroke:none;"
         clip-path="url(#clipPath32)"
         id="path421" />
    </g>
    <g
       style="text-rendering:geometricPrecision;"
       id="g429">
      <path
         d="M329.3487 54.7647 L329.2213 155.1485"
         style="fill:none; clip-path:url(#clipPath33);"
         clip-path="url(#clipPath33)"
         id="path425" />
      <path
         d="M329.2213 155.1485 L334.4361 143.4551 L324.0361 143.4419 Z"
         style="clip-path:url(#clipPath33); fill-rule:evenodd; stroke:none;"
         clip-path="url(#clipPath33)"
         id="path427" />
    </g>
    <g
       style="text-rendering:geometricPrecision;"
       id="g435">
      <path
         d="M329.2213 269.1485 L329.2213 352.1485"
         style="fill:none; clip-path:url(#clipPath34);"
         clip-path="url(#clipPath34)"
         id="path431" />
      <path
         d="M329.2213 352.1485 L334.4213 340.4485 L324.0213 340.4485 Z"
         style="clip-path:url(#clipPath34); fill-rule:evenodd; stroke:none;"
         clip-path="url(#clipPath34)"
         id="path433" />
    </g>
    <g
       style="text-rendering:geometricPrecision;"
       id="g439">
      <path
         d="M217.1092 307.1302 C217.1092 307.1302 246.2617 306.9578 273.3319 306.354 C273.3319 306.354 300.4021 305.7502 314.9784 304.1115 C314.9784 304.1115 329.5546 302.4727 329.5114 300.8339 C329.5114 300.8339 329.4682 299.1952 329.388 298.5914 C329.3077 297.9876 329.2213 297.8151 329.2213 297.8151"
         style="fill:none; clip-path:url(#clipPath35);"
         clip-path="url(#clipPath35)"
         id="path437" />
    </g>
    <g
       style="text-rendering:geometricPrecision;"
       id="g443">
      <path
         d="M218.5546 514.8151 C218.5546 514.8151 247.0731 515.1382 273.5546 516.269 C273.5546 516.269 300.0361 517.3997 314.2953 520.4689 C314.2953 520.4689 328.5546 523.5381 328.5114 526.6073 C328.5114 526.6073 328.4682 529.6765 328.388 530.8073 C328.3077 531.938 328.2213 532.261 328.2213 532.261"
         style="fill:none; clip-path:url(#clipPath36);"
         clip-path="url(#clipPath36)"
         id="path441" />
    </g>
    <g
       style="fill:red; text-rendering:geometricPrecision; font-weight:bold; stroke:red;"
       id="g447">
      <text
         x="653"
         xml:space="preserve"
         y="113"
         style="clip-path:url(#clipPath37); stroke:none;"
         clip-path="url(#clipPath37)"
         id="text445">Red - side products</text>
    </g>
    <g
       style="fill:white; text-rendering:geometricPrecision; stroke:white;"
       id="g453">
      <path
         d="M250.5546 155.1485 L407.888 155.1485 L407.888 171.1485 L250.5546 171.1485 L250.5546 155.1485 Z"
         style="clip-path:url(#clipPath38); stroke:none;"
         clip-path="url(#clipPath38)"
         id="path449" />
      <path
         d="M250.5546 155.1485 L407.888 155.1485 L407.888 171.1485 L250.5546 171.1485 L250.5546 155.1485 Z"
         style="fill:none; clip-path:url(#clipPath38); stroke:blue;"
         clip-path="url(#clipPath38)"
         id="path451" />
    </g>
    <g
       style="fill:blue; text-rendering:geometricPrecision; font-size:11; font-weight:bold; stroke:blue;"
       id="g457">
      <text
         x="261"
         xml:space="preserve"
         y="167"
         style="clip-path:url(#clipPath38); stroke:none;"
         clip-path="url(#clipPath38)"
         id="text455">delta-aminolevulinate</text>
    </g>
    <g
       style="fill:white; text-rendering:geometricPrecision; stroke:white;"
       id="g465">
      <path
         d="M246.0546 579.8151 L410.388 579.8151 L410.388 595.8151 L246.0546 595.8151 L246.0546 579.8151 Z"
         style="clip-path:url(#clipPath39); stroke:none;"
         clip-path="url(#clipPath39)"
         id="path459" />
      <path
         d="M246.0546 579.8151 L410.388 579.8151 L410.388 595.8151 L246.0546 595.8151 L246.0546 579.8151 Z"
         style="fill:none; clip-path:url(#clipPath39); stroke:blue;"
         clip-path="url(#clipPath39)"
         id="path461" />
      <text
         x="266"
         y="591"
         style="font-size:11; clip-path:url(#clipPath39); fill:blue; stroke:none;"
         xml:space="preserve"
         clip-path="url(#clipPath39)"
         id="text463">protoporphyrinogen IX</text>
    </g>
    <g
       style="fill:white; text-rendering:geometricPrecision; stroke:white;"
       id="g471">
      <path
         d="M46.2213 163.1485 L203.5546 163.1485 L203.5546 179.1485 L46.2213 179.1485 L46.2213 163.1485 Z"
         style="clip-path:url(#clipPath40); stroke:none;"
         clip-path="url(#clipPath40)"
         id="path467" />
      <path
         d="M46.2213 163.1485 L203.5546 163.1485 L203.5546 179.1485 L46.2213 179.1485 L46.2213 163.1485 Z"
         style="fill:none; clip-path:url(#clipPath40); stroke:blue;"
         clip-path="url(#clipPath40)"
         id="path469" />
    </g>
    <g
       style="fill:blue; text-rendering:geometricPrecision; font-size:11; font-weight:bold; stroke:blue;"
       id="g475">
      <text
         x="57"
         xml:space="preserve"
         y="175"
         style="clip-path:url(#clipPath40); stroke:none;"
         clip-path="url(#clipPath40)"
         id="text473">delta-aminolevulinate</text>
    </g>
    <g
       style="font-weight:bold; text-rendering:geometricPrecision;"
       id="g479">
      <text
         x="654"
         xml:space="preserve"
         y="92"
         style="clip-path:url(#clipPath41); stroke:none;"
         clip-path="url(#clipPath41)"
         id="text477">Black - reactants</text>
    </g>
    <g
       style="fill:blue; text-rendering:geometricPrecision; font-size:11; font-weight:bold; stroke:blue;"
       id="g483">
      <text
         x="88"
         xml:space="preserve"
         y="125"
         style="clip-path:url(#clipPath42); stroke:none;"
         clip-path="url(#clipPath42)"
         id="text481">rate limiting step</text>
    </g>
    <g
       style="fill:white; text-rendering:geometricPrecision; stroke:white;"
       id="g491">
      <path
         d="M449.5546 240.8151 L502.5546 240.8151 L502.5546 260.8151 L449.5546 260.8151 L449.5546 240.8151 Z"
         style="clip-path:url(#clipPath43); stroke:none;"
         clip-path="url(#clipPath43)"
         id="path485" />
      <path
         d="M449.5546 240.8151 L502.5546 240.8151 L502.5546 260.8151 L449.5546 260.8151 L449.5546 240.8151 Z"
         style="fill:none; clip-path:url(#clipPath43); stroke:blue;"
         clip-path="url(#clipPath43)"
         id="path487" />
      <text
         x="466"
         y="254"
         style="font-size:10; clip-path:url(#clipPath43); fill:blue; stroke:none;"
         xml:space="preserve"
         clip-path="url(#clipPath43)"
         id="text489">H2O</text>
    </g>
    <g
       style="fill:white; text-rendering:geometricPrecision; stroke:white;"
       id="g499">
      <path
         d="M230.2213 378.1485 L290.2213 378.1485 L290.2213 398.1485 L230.2213 398.1485 L230.2213 378.1485 Z"
         style="clip-path:url(#clipPath44); stroke:none;"
         clip-path="url(#clipPath44)"
         id="path493" />
      <path
         d="M230.2213 378.1485 L290.2213 378.1485 L290.2213 398.1485 L230.2213 398.1485 L230.2213 378.1485 Z"
         style="fill:none; clip-path:url(#clipPath44); stroke:black;"
         clip-path="url(#clipPath44)"
         id="path495" />
      <text
         x="246"
         y="392"
         style="font-size:10; clip-path:url(#clipPath44); fill:black; stroke:none;"
         xml:space="preserve"
         clip-path="url(#clipPath44)"
         id="text497">UROS</text>
    </g>
    <g
       style="fill:white; text-rendering:geometricPrecision; stroke:white;"
       id="g507">
      <path
         d="M181.5546 504.8151 L218.5546 504.8151 L218.5546 524.8151 L181.5546 524.8151 L181.5546 504.8151 Z"
         style="clip-path:url(#clipPath45); stroke:none;"
         clip-path="url(#clipPath45)"
         id="path501" />
      <path
         d="M181.5546 504.8151 L218.5546 504.8151 L218.5546 524.8151 L181.5546 524.8151 L181.5546 504.8151 Z"
         style="fill:none; clip-path:url(#clipPath45); stroke:blue;"
         clip-path="url(#clipPath45)"
         id="path503" />
      <text
         x="193"
         y="518"
         style="font-size:10; clip-path:url(#clipPath45); fill:blue; stroke:none;"
         xml:space="preserve"
         clip-path="url(#clipPath45)"
         id="text505">O2</text>
    </g>
    <g
       style="fill:white; text-rendering:geometricPrecision; stroke:white;"
       id="g515">
      <path
         d="M444.5546 649.8151 L488.5546 649.8151 L488.5546 669.8151 L444.5546 669.8151 L444.5546 649.8151 Z"
         style="clip-path:url(#clipPath46); stroke:none;"
         clip-path="url(#clipPath46)"
         id="path509" />
      <path
         d="M444.5546 649.8151 L488.5546 649.8151 L488.5546 669.8151 L444.5546 669.8151 L444.5546 649.8151 Z"
         style="fill:none; clip-path:url(#clipPath46); stroke:blue;"
         clip-path="url(#clipPath46)"
         id="path511" />
      <text
         x="452"
         y="663"
         style="font-size:10; clip-path:url(#clipPath46); fill:blue; stroke:none;"
         xml:space="preserve"
         clip-path="url(#clipPath46)"
         id="text513">H2O2</text>
    </g>
    <g
       style="fill:white; text-rendering:geometricPrecision; stroke:white;"
       id="g523">
      <path
         d="M236.7759 80.6022 L296.7759 80.6022 L296.7759 101.2689 L236.7759 101.2689 L236.7759 80.6022 Z"
         style="clip-path:url(#clipPath47); stroke:none;"
         clip-path="url(#clipPath47)"
         id="path517" />
      <path
         d="M236.7759 80.6022 L296.7759 80.6022 L296.7759 101.2689 L236.7759 101.2689 L236.7759 80.6022 Z"
         style="fill:none; clip-path:url(#clipPath47); stroke:black;"
         clip-path="url(#clipPath47)"
         id="path519" />
      <text
         x="251"
         y="94"
         style="font-size:10; clip-path:url(#clipPath47); fill:black; stroke:none;"
         xml:space="preserve"
         clip-path="url(#clipPath47)"
         id="text521">ALAS1</text>
    </g>
    <g
       style="fill:white; text-rendering:geometricPrecision; stroke:white;"
       id="g531">
      <path
         d="M196.5546 589.8151 L233.5546 589.8151 L233.5546 609.8151 L196.5546 609.8151 L196.5546 589.8151 Z"
         style="clip-path:url(#clipPath48); stroke:none;"
         clip-path="url(#clipPath48)"
         id="path525" />
      <path
         d="M196.5546 589.8151 L233.5546 589.8151 L233.5546 609.8151 L196.5546 609.8151 L196.5546 589.8151 Z"
         style="fill:none; clip-path:url(#clipPath48); stroke:blue;"
         clip-path="url(#clipPath48)"
         id="path527" />
      <text
         x="208"
         y="603"
         style="font-size:10; clip-path:url(#clipPath48); fill:blue; stroke:none;"
         xml:space="preserve"
         clip-path="url(#clipPath48)"
         id="text529">O2</text>
    </g>
    <g
       style="fill:white; text-rendering:geometricPrecision; stroke:white;"
       id="g539">
      <path
         d="M169.5238 681.4286 L203.8095 681.4286 L203.8095 701.4286 L169.5238 701.4286 L169.5238 681.4286 Z"
         style="clip-path:url(#clipPath49); stroke:none;"
         clip-path="url(#clipPath49)"
         id="path533" />
      <path
         d="M169.5238 681.4286 L203.8095 681.4286 L203.8095 701.4286 L169.5238 701.4286 L169.5238 681.4286 Z"
         style="fill:none; clip-path:url(#clipPath49); stroke:blue;"
         clip-path="url(#clipPath49)"
         id="path535" />
      <text
         x="173"
         y="695"
         style="font-size:10; clip-path:url(#clipPath49); fill:blue; stroke:none;"
         xml:space="preserve"
         clip-path="url(#clipPath49)"
         id="text537">Fe2+</text>
    </g>
    <g
       style="fill:white; text-rendering:geometricPrecision; stroke:white;"
       id="g547">
      <path
         d="M444 741 L472 741 L472 761 L444 761 L444 741 Z"
         style="clip-path:url(#clipPath50); stroke:none;"
         clip-path="url(#clipPath50)"
         id="path541" />
      <path
         d="M444 741 L472 741 L472 761 L444 761 L444 741 Z"
         style="fill:none; clip-path:url(#clipPath50); stroke:blue;"
         clip-path="url(#clipPath50)"
         id="path543" />
      <text
         x="451"
         y="754"
         style="font-size:10; clip-path:url(#clipPath50); fill:blue; stroke:none;"
         xml:space="preserve"
         clip-path="url(#clipPath50)"
         id="text545">H+</text>
    </g>
    <g
       style="fill:white; text-rendering:geometricPrecision; stroke:white;"
       id="g555">
      <path
         d="M450.5546 475.8151 L490.5546 475.8151 L490.5546 495.8151 L450.5546 495.8151 L450.5546 475.8151 Z"
         style="clip-path:url(#clipPath51); stroke:none;"
         clip-path="url(#clipPath51)"
         id="path549" />
      <path
         d="M450.5546 475.8151 L490.5546 475.8151 L490.5546 495.8151 L450.5546 495.8151 L450.5546 475.8151 Z"
         style="fill:none; clip-path:url(#clipPath51); stroke:blue;"
         clip-path="url(#clipPath51)"
         id="path551" />
      <text
         x="460"
         y="489"
         style="font-size:10; clip-path:url(#clipPath51); fill:blue; stroke:none;"
         xml:space="preserve"
         clip-path="url(#clipPath51)"
         id="text553">CO2</text>
    </g>
    <g
       style="fill:white; text-rendering:geometricPrecision; stroke:white;"
       id="g563">
      <path
         d="M445.6093 187.6302 L485.6093 187.6302 L485.6093 207.6302 L445.6093 207.6302 L445.6093 187.6302 Z"
         style="clip-path:url(#clipPath52); stroke:none;"
         clip-path="url(#clipPath52)"
         id="path557" />
      <path
         d="M445.6093 187.6302 L485.6093 187.6302 L485.6093 207.6302 L445.6093 207.6302 L445.6093 187.6302 Z"
         style="fill:none; clip-path:url(#clipPath52); stroke:blue;"
         clip-path="url(#clipPath52)"
         id="path559" />
      <text
         x="455"
         y="201"
         style="font-size:10; clip-path:url(#clipPath52); fill:blue; stroke:none;"
         xml:space="preserve"
         clip-path="url(#clipPath52)"
         id="text561">CO2</text>
    </g>
    <g
       style="fill:white; text-rendering:geometricPrecision; stroke:white;"
       id="g571">
      <path
         d="M236.7759 100.6022 L296.7759 100.6022 L296.7759 120.6022 L236.7759 120.6022 L236.7759 100.6022 Z"
         style="clip-path:url(#clipPath53); stroke:none;"
         clip-path="url(#clipPath53)"
         id="path565" />
      <path
         d="M236.7759 100.6022 L296.7759 100.6022 L296.7759 120.6022 L236.7759 120.6022 L236.7759 100.6022 Z"
         style="fill:none; clip-path:url(#clipPath53); stroke:black;"
         clip-path="url(#clipPath53)"
         id="path567" />
      <text
         x="251"
         y="114"
         style="font-size:10; clip-path:url(#clipPath53); fill:black; stroke:none;"
         xml:space="preserve"
         clip-path="url(#clipPath53)"
         id="text569">ALAS2</text>
    </g>
    <g
       style="fill:white; text-rendering:geometricPrecision; stroke:white;"
       id="g579">
      <path
         d="M264.0546 669.8151 L392.388 669.8151 L392.388 685.8151 L264.0546 685.8151 L264.0546 669.8151 Z"
         style="clip-path:url(#clipPath54); stroke:none;"
         clip-path="url(#clipPath54)"
         id="path573" />
      <path
         d="M264.0546 669.8151 L392.388 669.8151 L392.388 685.8151 L264.0546 685.8151 L264.0546 669.8151 Z"
         style="fill:none; clip-path:url(#clipPath54); stroke:blue;"
         clip-path="url(#clipPath54)"
         id="path575" />
      <text
         x="284"
         y="681"
         style="font-size:10; clip-path:url(#clipPath54); fill:blue; stroke:none;"
         xml:space="preserve"
         clip-path="url(#clipPath54)"
         id="text577">protoporphyrin IX</text>
    </g>
    <g
       style="fill:white; text-rendering:geometricPrecision; stroke:white;"
       id="g587">
      <path
         d="M235.2213 204.1485 L295.2213 204.1485 L295.2213 224.1485 L235.2213 224.1485 L235.2213 204.1485 Z"
         style="clip-path:url(#clipPath55); stroke:none;"
         clip-path="url(#clipPath55)"
         id="path581" />
      <path
         d="M235.2213 204.1485 L295.2213 204.1485 L295.2213 224.1485 L235.2213 224.1485 L235.2213 204.1485 Z"
         style="fill:none; clip-path:url(#clipPath55); stroke:black;"
         clip-path="url(#clipPath55)"
         id="path583" />
      <text
         x="252"
         y="218"
         style="font-size:10; clip-path:url(#clipPath55); fill:black; stroke:none;"
         xml:space="preserve"
         clip-path="url(#clipPath55)"
         id="text585">ALAD</text>
    </g>
    <g
       style="fill:white; text-rendering:geometricPrecision; stroke:white;"
       id="g595">
      <path
         d="M233.2213 448.4818 L293.2213 448.4818 L293.2213 468.4818 L233.2213 468.4818 L233.2213 448.4818 Z"
         style="clip-path:url(#clipPath56); stroke:none;"
         clip-path="url(#clipPath56)"
         id="path589" />
      <path
         d="M233.2213 448.4818 L293.2213 448.4818 L293.2213 468.4818 L233.2213 468.4818 L233.2213 448.4818 Z"
         style="fill:none; clip-path:url(#clipPath56); stroke:black;"
         clip-path="url(#clipPath56)"
         id="path591" />
      <text
         x="249"
         y="462"
         style="font-size:10; clip-path:url(#clipPath56); fill:black; stroke:none;"
         xml:space="preserve"
         clip-path="url(#clipPath56)"
         id="text593">UROD</text>
    </g>
    <g
       style="fill:white; text-rendering:geometricPrecision; stroke:white;"
       id="g603">
      <path
         d="M108.1092 283.6302 L209.1092 283.6302 L209.1092 305.6302 L108.1092 305.6302 L108.1092 283.6302 Z"
         style="clip-path:url(#clipPath57); stroke:none;"
         clip-path="url(#clipPath57)"
         id="path597" />
      <path
         d="M108.1092 283.6302 L209.1092 283.6302 L209.1092 305.6302 L108.1092 305.6302 L108.1092 283.6302 Z"
         style="fill:none; clip-path:url(#clipPath57); stroke:blue;"
         clip-path="url(#clipPath57)"
         id="path599" />
      <text
         x="119"
         y="298"
         style="font-size:10; clip-path:url(#clipPath57); fill:blue; stroke:none;"
         xml:space="preserve"
         clip-path="url(#clipPath57)"
         id="text601">Porphobilinogen</text>
    </g>
    <g
       style="fill:white; text-rendering:geometricPrecision; stroke:white;"
       id="g611">
      <path
         d="M288.0546 769.8151 L370.388 769.8151 L370.388 785.8151 L288.0546 785.8151 L288.0546 769.8151 Z"
         style="clip-path:url(#clipPath58); stroke:none;"
         clip-path="url(#clipPath58)"
         id="path605" />
      <path
         d="M288.0546 769.8151 L370.388 769.8151 L370.388 785.8151 L288.0546 785.8151 L288.0546 769.8151 Z"
         style="fill:none; clip-path:url(#clipPath58); stroke:blue;"
         clip-path="url(#clipPath58)"
         id="path607" />
      <text
         x="302"
         y="781"
         style="font-size:10; clip-path:url(#clipPath58); fill:blue; stroke:none;"
         xml:space="preserve"
         clip-path="url(#clipPath58)"
         id="text609">protoheme</text>
    </g>
    <g
       style="fill:white; text-rendering:geometricPrecision; stroke:white;"
       id="g619">
      <path
         d="M446.1093 160.6302 L485.1093 160.6302 L485.1093 180.6302 L446.1093 180.6302 L446.1093 160.6302 Z"
         style="clip-path:url(#clipPath59); stroke:none;"
         clip-path="url(#clipPath59)"
         id="path613" />
      <path
         d="M446.1093 160.6302 L485.1093 160.6302 L485.1093 180.6302 L446.1093 180.6302 L446.1093 160.6302 Z"
         style="fill:none; clip-path:url(#clipPath59); stroke:blue;"
         clip-path="url(#clipPath59)"
         id="path615" />
      <text
         x="457"
         y="174"
         style="font-size:10; clip-path:url(#clipPath59); fill:blue; stroke:none;"
         xml:space="preserve"
         clip-path="url(#clipPath59)"
         id="text617">CoA</text>
    </g>
    <g
       style="fill:white; text-rendering:geometricPrecision; stroke:white;"
       id="g627">
      <path
         d="M254.5546 417.4818 L403.888 417.4818 L403.888 433.4818 L254.5546 433.4818 L254.5546 417.4818 Z"
         style="clip-path:url(#clipPath60); stroke:none;"
         clip-path="url(#clipPath60)"
         id="path621" />
      <path
         d="M254.5546 417.4818 L403.888 417.4818 L403.888 433.4818 L254.5546 433.4818 L254.5546 417.4818 Z"
         style="fill:none; clip-path:url(#clipPath60); stroke:blue;"
         clip-path="url(#clipPath60)"
         id="path623" />
      <text
         x="279"
         y="429"
         style="font-size:10; clip-path:url(#clipPath60); fill:blue; stroke:none;"
         xml:space="preserve"
         clip-path="url(#clipPath60)"
         id="text625">uroporphyrinogen III</text>
    </g>
    <g
       style="fill:white; text-rendering:geometricPrecision; stroke:white;"
       id="g635">
      <path
         d="M445.5546 332.8151 L493.5546 332.8151 L493.5546 352.8151 L445.5546 352.8151 L445.5546 332.8151 Z"
         style="clip-path:url(#clipPath61); stroke:none;"
         clip-path="url(#clipPath61)"
         id="path629" />
      <path
         d="M445.5546 332.8151 L493.5546 332.8151 L493.5546 352.8151 L445.5546 352.8151 L445.5546 332.8151 Z"
         style="fill:none; clip-path:url(#clipPath61); stroke:blue;"
         clip-path="url(#clipPath61)"
         id="path631" />
      <text
         x="459"
         y="346"
         style="font-size:10; clip-path:url(#clipPath61); fill:blue; stroke:none;"
         xml:space="preserve"
         clip-path="url(#clipPath61)"
         id="text633">NH3</text>
    </g>
    <g
       style="fill:white; text-rendering:geometricPrecision; stroke:white;"
       id="g643">
      <path
         d="M135.1092 310.6302 L180.1092 310.6302 L180.1092 330.6302 L135.1092 330.6302 L135.1092 310.6302 Z"
         style="clip-path:url(#clipPath62); stroke:none;"
         clip-path="url(#clipPath62)"
         id="path637" />
      <path
         d="M135.1092 310.6302 L180.1092 310.6302 L180.1092 330.6302 L135.1092 330.6302 L135.1092 310.6302 Z"
         style="fill:none; clip-path:url(#clipPath62); stroke:blue;"
         clip-path="url(#clipPath62)"
         id="path639" />
      <text
         x="148"
         y="324"
         style="font-size:10; clip-path:url(#clipPath62); fill:blue; stroke:none;"
         xml:space="preserve"
         clip-path="url(#clipPath62)"
         id="text641">H2O</text>
    </g>
    <g
       style="fill:white; text-rendering:geometricPrecision; stroke:white;"
       id="g651">
      <path
         d="M234.2213 709.1484 L294.2213 709.1484 L294.2213 729.1484 L234.2213 729.1484 L234.2213 709.1484 Z"
         style="clip-path:url(#clipPath63); stroke:none;"
         clip-path="url(#clipPath63)"
         id="path645" />
      <path
         d="M234.2213 709.1484 L294.2213 709.1484 L294.2213 729.1484 L234.2213 729.1484 L234.2213 709.1484 Z"
         style="fill:none; clip-path:url(#clipPath63); stroke:black;"
         clip-path="url(#clipPath63)"
         id="path647" />
      <text
         x="251"
         y="723"
         style="font-size:10; clip-path:url(#clipPath63); fill:black; stroke:none;"
         xml:space="preserve"
         clip-path="url(#clipPath63)"
         id="text649">FECH</text>
    </g>
    <g
       style="fill:white; text-rendering:geometricPrecision; stroke:white;"
       id="g659">
      <path
         d="M233.2213 299.4818 L293.2213 299.4818 L293.2213 319.4818 L233.2213 319.4818 L233.2213 299.4818 Z"
         style="clip-path:url(#clipPath64); stroke:none;"
         clip-path="url(#clipPath64)"
         id="path653" />
      <path
         d="M233.2213 299.4818 L293.2213 299.4818 L293.2213 319.4818 L233.2213 319.4818 L233.2213 299.4818 Z"
         style="fill:none; clip-path:url(#clipPath64); stroke:black;"
         clip-path="url(#clipPath64)"
         id="path655" />
      <text
         x="249"
         y="313"
         style="font-size:10; clip-path:url(#clipPath64); fill:black; stroke:none;"
         xml:space="preserve"
         clip-path="url(#clipPath64)"
         id="text657">HMBS</text>
    </g>
    <g
       style="fill:white; text-rendering:geometricPrecision; stroke:white;"
       id="g667">
      <path
         d="M445.5546 571.8151 L485.5546 571.8151 L485.5546 591.8151 L445.5546 591.8151 L445.5546 571.8151 Z"
         style="clip-path:url(#clipPath65); stroke:none;"
         clip-path="url(#clipPath65)"
         id="path661" />
      <path
         d="M445.5546 571.8151 L485.5546 571.8151 L485.5546 591.8151 L445.5546 591.8151 L445.5546 571.8151 Z"
         style="fill:none; clip-path:url(#clipPath65); stroke:blue;"
         clip-path="url(#clipPath65)"
         id="path663" />
      <text
         x="455"
         y="585"
         style="font-size:10; clip-path:url(#clipPath65); fill:blue; stroke:none;"
         xml:space="preserve"
         clip-path="url(#clipPath65)"
         id="text665">CO2</text>
    </g>
    <g
       style="fill:white; text-rendering:geometricPrecision; stroke:white;"
       id="g675">
      <path
         d="M237.2213 533.4818 L297.2213 533.4818 L297.2213 553.4818 L237.2213 553.4818 L237.2213 533.4818 Z"
         style="clip-path:url(#clipPath66); stroke:none;"
         clip-path="url(#clipPath66)"
         id="path669" />
      <path
         d="M237.2213 533.4818 L297.2213 533.4818 L297.2213 553.4818 L237.2213 553.4818 L237.2213 533.4818 Z"
         style="fill:none; clip-path:url(#clipPath66); stroke:black;"
         clip-path="url(#clipPath66)"
         id="path671" />
      <text
         x="254"
         y="547"
         style="font-size:10; clip-path:url(#clipPath66); fill:black; stroke:none;"
         xml:space="preserve"
         clip-path="url(#clipPath66)"
         id="text673">CPOX</text>
    </g>
    <g
       style="fill:white; text-rendering:geometricPrecision; stroke:white;"
       id="g683">
      <path
         d="M259.3698 26.7647 L339.3698 26.7647 L339.3698 46.7647 L259.3698 46.7647 L259.3698 26.7647 Z"
         style="clip-path:url(#clipPath67); stroke:none;"
         clip-path="url(#clipPath67)"
         id="path677" />
      <path
         d="M259.3698 26.7647 L339.3698 26.7647 L339.3698 46.7647 L259.3698 46.7647 L259.3698 26.7647 Z"
         style="fill:none; clip-path:url(#clipPath67); stroke:blue;"
         clip-path="url(#clipPath67)"
         id="path679" />
      <text
         x="268"
         y="40"
         style="font-size:10; clip-path:url(#clipPath67); fill:blue; stroke:none;"
         xml:space="preserve"
         clip-path="url(#clipPath67)"
         id="text681">succinyl-CoA</text>
    </g>
    <g
       style="fill:white; text-rendering:geometricPrecision; stroke:white;"
       id="g691">
      <path
         d="M448.5546 402.8151 L501.5546 402.8151 L501.5546 422.8151 L448.5546 422.8151 L448.5546 402.8151 Z"
         style="clip-path:url(#clipPath68); stroke:none;"
         clip-path="url(#clipPath68)"
         id="path685" />
      <path
         d="M448.5546 402.8151 L501.5546 402.8151 L501.5546 422.8151 L448.5546 422.8151 L448.5546 402.8151 Z"
         style="fill:none; clip-path:url(#clipPath68); stroke:blue;"
         clip-path="url(#clipPath68)"
         id="path687" />
      <text
         x="465"
         y="416"
         style="font-size:10; clip-path:url(#clipPath68); fill:blue; stroke:none;"
         xml:space="preserve"
         clip-path="url(#clipPath68)"
         id="text689">H2O</text>
    </g>
    <g
       style="fill:white; text-rendering:geometricPrecision; stroke:white;"
       id="g699">
      <path
         d="M245.0546 494.8151 L411.388 494.8151 L411.388 510.8151 L245.0546 510.8151 L245.0546 494.8151 Z"
         style="clip-path:url(#clipPath69); stroke:none;"
         clip-path="url(#clipPath69)"
         id="path693" />
      <path
         d="M245.0546 494.8151 L411.388 494.8151 L411.388 510.8151 L245.0546 510.8151 L245.0546 494.8151 Z"
         style="fill:none; clip-path:url(#clipPath69); stroke:blue;"
         clip-path="url(#clipPath69)"
         id="path695" />
      <text
         x="272"
         y="506"
         style="font-size:10; clip-path:url(#clipPath69); fill:blue; stroke:none;"
         xml:space="preserve"
         clip-path="url(#clipPath69)"
         id="text697">coproporphyrinogen III</text>
    </g>
    <g
       style="fill:white; text-rendering:geometricPrecision; stroke:white;"
       id="g707">
      <path
         d="M254.5546 352.1485 L403.888 352.1485 L403.888 368.1485 L254.5546 368.1485 L254.5546 352.1485 Z"
         style="clip-path:url(#clipPath70); stroke:none;"
         clip-path="url(#clipPath70)"
         id="path701" />
      <path
         d="M254.5546 352.1485 L403.888 352.1485 L403.888 368.1485 L254.5546 368.1485 L254.5546 352.1485 Z"
         style="fill:none; clip-path:url(#clipPath70); stroke:blue;"
         clip-path="url(#clipPath70)"
         id="path703" />
      <text
         x="276"
         y="364"
         style="font-size:10; clip-path:url(#clipPath70); fill:blue; stroke:none;"
         xml:space="preserve"
         clip-path="url(#clipPath70)"
         id="text705">hydroxymethylbilane</text>
    </g>
    <g
       style="fill:white; text-rendering:geometricPrecision; stroke:white;"
       id="g715">
      <path
         d="M339.3698 26.7647 L399.3277 26.7647 L399.3277 46.7647 L339.3698 46.7647 L339.3698 26.7647 Z"
         style="clip-path:url(#clipPath71); stroke:none;"
         clip-path="url(#clipPath71)"
         id="path709" />
      <path
         d="M339.3698 26.7647 L399.3277 26.7647 L399.3277 46.7647 L339.3698 46.7647 L339.3698 26.7647 Z"
         style="fill:none; clip-path:url(#clipPath71); stroke:blue;"
         clip-path="url(#clipPath71)"
         id="path711" />
      <text
         x="351"
         y="40"
         style="font-size:10; clip-path:url(#clipPath71); fill:blue; stroke:none;"
         xml:space="preserve"
         clip-path="url(#clipPath71)"
         id="text713">Glycine</text>
    </g>
    <g
       style="fill:white; text-rendering:geometricPrecision; stroke:white;"
       id="g723">
      <path
         d="M268.0546 253.1485 L390.388 253.1485 L390.388 269.1485 L268.0546 269.1485 L268.0546 253.1485 Z"
         style="clip-path:url(#clipPath72); stroke:none;"
         clip-path="url(#clipPath72)"
         id="path717" />
      <path
         d="M268.0546 253.1485 L390.388 253.1485 L390.388 269.1485 L268.0546 269.1485 L268.0546 253.1485 Z"
         style="fill:none; clip-path:url(#clipPath72); stroke:blue;"
         clip-path="url(#clipPath72)"
         id="path719" />
      <text
         x="289"
         y="265"
         style="font-size:10; clip-path:url(#clipPath72); fill:blue; stroke:none;"
         xml:space="preserve"
         clip-path="url(#clipPath72)"
         id="text721">porphobilinogen</text>
    </g>
    <g
       style="fill:white; text-rendering:geometricPrecision; stroke:white;"
       id="g731">
      <path
         d="M235.2213 623.4818 L295.2213 623.4818 L295.2213 643.4818 L235.2213 643.4818 L235.2213 623.4818 Z"
         style="clip-path:url(#clipPath73); stroke:none;"
         clip-path="url(#clipPath73)"
         id="path725" />
      <path
         d="M235.2213 623.4818 L295.2213 623.4818 L295.2213 643.4818 L235.2213 643.4818 L235.2213 623.4818 Z"
         style="fill:none; clip-path:url(#clipPath73); stroke:black;"
         clip-path="url(#clipPath73)"
         id="path727" />
      <text
         x="252"
         y="637"
         style="font-size:10; clip-path:url(#clipPath73); fill:black; stroke:none;"
         xml:space="preserve"
         clip-path="url(#clipPath73)"
         id="text729">PPOX</text>
    </g>
  </g>
</svg>
