<?xml version="1.0" encoding="UTF-8" standalone="no"?>
<svg
   style="fill-opacity:1; color-rendering:auto; color-interpolation:auto; stroke:black; text-rendering:auto; stroke-linecap:square; stroke-miterlimit:10; stroke-opacity:1; shape-rendering:auto; fill:black; stroke-dasharray:none; font-weight:normal; stroke-width:1; font-family:'Dialog'; font-style:normal; stroke-linejoin:miter; font-size:12; stroke-dashoffset:0; image-rendering:auto;"
   width="634"
   height="512"
   version="1.1"
   id="svg427"
   xmlns="http://www.w3.org/2000/svg"
   xmlns:svg="http://www.w3.org/2000/svg">
  <!--Generated by the Batik Graphics2D SVG Generator-->
  <defs
     id="genericDefs" />
  <g
     id="g425">
    <defs
       id="defs1">
      <clipPath
         clipPathUnits="userSpaceOnUse"
         id="clipPath1">
        <path
           d="M0 0 L650 0 L650 527 L0 527 L0 0 Z"
           id="path3" />
      </clipPath>
      <clipPath
         clipPathUnits="userSpaceOnUse"
         id="clipPath2">
        <path
           d="M0 0 L0 200 L200 200 L200 0 Z"
           id="path6" />
      </clipPath>
      <clipPath
         clipPathUnits="userSpaceOnUse"
         id="clipPath3">
        <path
           d="M342 16 L342 37 L353 37 L353 16 Z"
           id="path9" />
      </clipPath>
      <clipPath
         clipPathUnits="userSpaceOnUse"
         id="clipPath4">
        <path
           d="M341.4551 3.918 L352.5449 3.918 L352.5449 19.2305 L341.4551 19.2305 L341.4551 3.918 Z"
           id="path12" />
      </clipPath>
      <clipPath
         clipPathUnits="userSpaceOnUse"
         id="clipPath5">
        <path
           d="M545.7996 265.7996 L545.7996 305.931 L579.0172 305.931 L579.0172 265.7996 Z"
           id="path15" />
      </clipPath>
      <clipPath
         clipPathUnits="userSpaceOnUse"
         id="clipPath6">
        <path
           d="M300.1306 144.4255 L300.1306 246.6311 L379.3092 246.6311 L379.3092 144.4255 Z"
           id="path18" />
      </clipPath>
      <clipPath
         clipPathUnits="userSpaceOnUse"
         id="clipPath7">
        <path
           d="M82.9188 227.6413 L82.9188 251.8517 L137.0536 251.8517 L137.0536 227.6413 Z"
           id="path21" />
      </clipPath>
      <clipPath
         clipPathUnits="userSpaceOnUse"
         id="clipPath8">
        <path
           d="M310.5306 266 L310.5306 327.7311 L322.4694 327.7311 L322.4694 266 Z"
           id="path24" />
      </clipPath>
      <clipPath
         clipPathUnits="userSpaceOnUse"
         id="clipPath9">
        <path
           d="M346.5 248.0306 L346.5 259.9694 L498.2311 259.9694 L498.2311 248.0306 Z"
           id="path27" />
      </clipPath>
      <clipPath
         clipPathUnits="userSpaceOnUse"
         id="clipPath10">
        <path
           d="M310.1099 391.9968 L310.1099 470.7832 L322.0484 470.7832 L322.0484 391.9968 Z"
           id="path30" />
      </clipPath>
      <clipPath
         clipPathUnits="userSpaceOnUse"
         id="clipPath11">
        <path
           d="M568.9543 393.9968 L568.9543 473.7731 L580.8928 473.7731 L580.8928 393.9968 Z"
           id="path33" />
      </clipPath>
      <clipPath
         clipPathUnits="userSpaceOnUse"
         id="clipPath12">
        <path
           d="M477.6418 265.793 L477.6418 303.3827 L514.207 303.3827 L514.207 265.793 Z"
           id="path36" />
      </clipPath>
      <clipPath
         clipPathUnits="userSpaceOnUse"
         id="clipPath13">
        <path
           d="M154.9498 293.8594 L154.9498 400.7632 L166.8884 400.7632 L166.8884 293.8594 Z"
           id="path39" />
      </clipPath>
      <clipPath
         clipPathUnits="userSpaceOnUse"
         id="clipPath14">
        <path
           d="M102.9252 144.0458 L102.9252 241.1391 L176.0802 241.1391 L176.0802 144.0458 Z"
           id="path42" />
      </clipPath>
      <clipPath
         clipPathUnits="userSpaceOnUse"
         id="clipPath15">
        <path
           d="M359.9916 392.8036 L359.9916 476.5084 L479.1964 476.5084 L479.1964 392.8036 Z"
           id="path45" />
      </clipPath>
      <clipPath
         clipPathUnits="userSpaceOnUse"
         id="clipPath16">
        <path
           d="M82.9019 250.5178 L82.9019 276.2874 L131.0291 276.2874 L131.0291 250.5178 Z"
           id="path48" />
      </clipPath>
      <clipPath
         clipPathUnits="userSpaceOnUse"
         id="clipPath17">
        <path
           d="M182.7978 423.8479 L182.7978 476.4863 L272.0623 476.4863 L272.0623 423.8479 Z"
           id="path51" />
      </clipPath>
      <clipPath
         clipPathUnits="userSpaceOnUse"
         id="clipPath18">
        <path
           d="M270.5 469.0521 L270.5 495.0521 L361.5 495.0521 L361.5 469.0521 Z"
           id="path54" />
      </clipPath>
      <clipPath
         clipPathUnits="userSpaceOnUse"
         id="clipPath19">
        <path
           d="M413.3092 119.4255 L413.3092 145.4255 L483.3092 145.4255 L483.3092 119.4255 Z"
           id="path57" />
      </clipPath>
      <clipPath
         clipPathUnits="userSpaceOnUse"
         id="clipPath20">
        <path
           d="M191.0802 119.0458 L191.0802 145.0458 L237.0802 145.0458 L237.0802 119.0458 Z"
           id="path60" />
      </clipPath>
      <clipPath
         clipPathUnits="userSpaceOnUse"
         id="clipPath21">
        <path
           d="M386.3092 144.4255 L386.3092 170.4255 L445.3092 170.4255 L445.3092 144.4255 Z"
           id="path63" />
      </clipPath>
      <clipPath
         clipPathUnits="userSpaceOnUse"
         id="clipPath22">
        <path
           d="M115.482 399.0321 L115.482 425.0321 L206.482 425.0321 L206.482 399.0321 Z"
           id="path66" />
      </clipPath>
      <clipPath
         clipPathUnits="userSpaceOnUse"
         id="clipPath23">
        <path
           d="M496.5 241 L496.5 267 L563.5 267 L563.5 241 Z"
           id="path69" />
      </clipPath>
      <clipPath
         clipPathUnits="userSpaceOnUse"
         id="clipPath24">
        <path
           d="M183.0802 144.0458 L183.0802 170.0458 L245.0802 170.0458 L245.0802 144.0458 Z"
           id="path72" />
      </clipPath>
      <clipPath
         clipPathUnits="userSpaceOnUse"
         id="clipPath25">
        <path
           d="M129.4398 268.862 L129.4398 294.862 L191.4398 294.862 L191.4398 268.862 Z"
           id="path75" />
      </clipPath>
      <clipPath
         clipPathUnits="userSpaceOnUse"
         id="clipPath26">
        <path
           d="M285.5 241 L285.5 267 L347.5 267 L347.5 241 Z"
           id="path78" />
      </clipPath>
      <clipPath
         clipPathUnits="userSpaceOnUse"
         id="clipPath27">
        <path
           d="M302.5 334 L302.5 360 L364.5 360 L364.5 334 Z"
           id="path81" />
      </clipPath>
      <clipPath
         clipPathUnits="userSpaceOnUse"
         id="clipPath28">
        <path
           d="M268.5 359 L268.5 385 L330.5 385 L330.5 359 Z"
           id="path84" />
      </clipPath>
      <clipPath
         clipPathUnits="userSpaceOnUse"
         id="clipPath29">
        <path
           d="M447.5 310 L447.5 336 L509.5 336 L509.5 310 Z"
           id="path87" />
      </clipPath>
      <clipPath
         clipPathUnits="userSpaceOnUse"
         id="clipPath30">
        <path
           d="M447.5 335 L447.5 361 L509.5 361 L509.5 335 Z"
           id="path90" />
      </clipPath>
      <clipPath
         clipPathUnits="userSpaceOnUse"
         id="clipPath31">
        <path
           d="M447.5 360 L447.5 386 L509.5 386 L509.5 360 Z"
           id="path93" />
      </clipPath>
      <clipPath
         clipPathUnits="userSpaceOnUse"
         id="clipPath32">
        <path
           d="M543.5 311 L543.5 337 L605.5 337 L605.5 311 Z"
           id="path96" />
      </clipPath>
      <clipPath
         clipPathUnits="userSpaceOnUse"
         id="clipPath33">
        <path
           d="M543.5 336 L543.5 362 L605.5 362 L605.5 336 Z"
           id="path99" />
      </clipPath>
      <clipPath
         clipPathUnits="userSpaceOnUse"
         id="clipPath34">
        <path
           d="M543.5 361 L543.5 387 L605.5 387 L605.5 361 Z"
           id="path102" />
      </clipPath>
      <clipPath
         clipPathUnits="userSpaceOnUse"
         id="clipPath35">
        <path
           d="M135.4257 215.2998 L135.4257 241.2998 L182.4257 241.2998 L182.4257 215.2998 Z"
           id="path105" />
      </clipPath>
      <clipPath
         clipPathUnits="userSpaceOnUse"
         id="clipPath36">
        <path
           d="M173.9257 209.7998 L173.9257 225.7998 L189.9257 225.7998 L189.9257 209.7998 Z"
           id="path108" />
      </clipPath>
      <clipPath
         clipPathUnits="userSpaceOnUse"
         id="clipPath37">
        <path
           d="M529.502 472.0421 L529.502 498.0421 L620.502 498.0421 L620.502 472.0421 Z"
           id="path111" />
      </clipPath>
      <clipPath
         clipPathUnits="userSpaceOnUse"
         id="clipPath38">
        <path
           d="M247.4803 128.2014 L247.4803 145.427 L379.3107 145.427 L379.3107 128.2014 Z"
           id="path114" />
      </clipPath>
      <clipPath
         clipPathUnits="userSpaceOnUse"
         id="clipPath39">
        <path
           d="M14.0773 250.6932 L14.0773 276.6932 L76.0773 276.6932 L76.0773 250.6932 Z"
           id="path117" />
      </clipPath>
      <clipPath
         clipPathUnits="userSpaceOnUse"
         id="clipPath40">
        <path
           d="M21.5773 225.6932 L21.5773 251.6932 L68.5773 251.6932 L68.5773 225.6932 Z"
           id="path120" />
      </clipPath>
      <clipPath
         clipPathUnits="userSpaceOnUse"
         id="clipPath41">
        <path
           d="M359.8495 393.8548 L359.8495 477.039 L575.1452 477.039 L575.1452 393.8548 Z"
           id="path123" />
      </clipPath>
      <clipPath
         clipPathUnits="userSpaceOnUse"
         id="clipPath42">
        <path
           d="M477.7964 392.7964 L477.7964 473.3222 L575.9544 473.3222 L575.9544 392.7964 Z"
           id="path126" />
      </clipPath>
      <clipPath
         clipPathUnits="userSpaceOnUse"
         id="clipPath43">
        <path
           d="M182.6659 265.7942 L182.6659 400.4539 L301.9558 400.4539 L301.9558 265.7942 Z"
           id="path129" />
      </clipPath>
    </defs>
    <g
       style="fill:white; stroke:white;"
       id="g135">
      <rect
         x="0"
         width="650"
         height="527"
         y="0"
         style="stroke:none;"
         id="rect133" />
    </g>
    <g
       style="font-weight:bold; font-size:10; text-rendering:geometricPrecision;"
       id="g145">
      <path
         d="M0.0469 6.7031 L6.7656 6.7031 L6.7656 8.125 L4.3438 8.125 L4.3438 14 L2.4688 14 L2.4688 8.125 L0.0469 8.125 L0.0469 6.7031 ZM7.665 8.5312 L9.415 8.5312 L9.415 14 L7.665 14 L7.665 8.5312 ZM7.665 6.4062 L9.415 6.4062 L9.415 7.8281 L7.665 7.8281 L7.665 6.4062 ZM12.999 6.9844 L12.999 8.5312 L14.7959 8.5312 L14.7959 9.7812 L12.999 9.7812 L12.999 12.0938 Q12.999 12.4844 13.1475 12.6172 Q13.2959 12.75 13.749 12.75 L14.6553 12.75 L14.6553 14 L13.1553 14 Q12.1084 14 11.6787 13.5703 Q11.249 13.1406 11.249 12.0938 L11.249 9.7812 L10.374 9.7812 L10.374 8.5312 L11.249 8.5312 L11.249 6.9844 L12.999 6.9844 ZM15.873 6.4062 L17.623 6.4062 L17.623 14 L15.873 14 L15.873 6.4062 ZM24.7539 11.25 L24.7539 11.75 L20.6758 11.75 Q20.7383 12.3594 21.1133 12.6719 Q21.4883 12.9844 22.1758 12.9844 Q22.7227 12.9844 23.3086 12.8203 Q23.8945 12.6562 24.5039 12.3125 L24.5039 13.6719 Q23.8789 13.9062 23.2617 14.0234 Q22.6445 14.1406 22.0195 14.1406 Q20.5352 14.1406 19.7148 13.3828 Q18.8945 12.625 18.8945 11.2656 Q18.8945 9.9375 19.6992 9.1719 Q20.5039 8.4062 21.9258 8.4062 Q23.207 8.4062 23.9805 9.1797 Q24.7539 9.9531 24.7539 11.25 ZM22.957 10.6719 Q22.957 10.1719 22.668 9.8672 Q22.3789 9.5625 21.9102 9.5625 Q21.3945 9.5625 21.082 9.8438 Q20.7695 10.125 20.6914 10.6719 L22.957 10.6719 ZM26.3643 8.5312 L28.1143 8.5312 L28.1143 10.4219 L26.3643 10.4219 L26.3643 8.5312 ZM26.3643 12.1094 L28.1143 12.1094 L28.1143 14 L26.3643 14 L26.3643 12.1094 Z"
         style="clip-path:url(#clipPath2); stroke:none;"
         clip-path="url(#clipPath2)"
         id="path137" />
      <path
         d="M38.9844 6.7031 L39.9688 6.7031 L39.9688 9.7031 L43.5469 9.7031 L43.5469 6.7031 L44.5312 6.7031 L44.5312 14 L43.5469 14 L43.5469 10.5312 L39.9688 10.5312 L39.9688 14 L38.9844 14 L38.9844 6.7031 ZM46.7539 13.1719 L48.3789 13.1719 L48.3789 7.6094 L46.6133 7.9531 L46.6133 7.0625 L48.3633 6.7031 L49.3477 6.7031 L49.3477 13.1719 L50.957 13.1719 L50.957 14 L46.7539 14 L46.7539 13.1719 ZM52.9756 13.8438 L52.9756 12.9531 Q53.3506 13.125 53.7334 13.2188 Q54.1162 13.3125 54.4756 13.3125 Q55.46 13.3125 55.9756 12.6562 Q56.4912 12 56.5537 10.6562 Q56.2725 11.0781 55.8428 11.3047 Q55.4131 11.5312 54.8818 11.5312 Q53.7881 11.5312 53.1475 10.8672 Q52.5068 10.2031 52.5068 9.0625 Q52.5068 7.9375 53.1709 7.2578 Q53.835 6.5781 54.9443 6.5781 Q56.21 6.5781 56.874 7.5469 Q57.5381 8.5156 57.5381 10.3594 Q57.5381 12.0781 56.7256 13.1094 Q55.9131 14.1406 54.5225 14.1406 Q54.1475 14.1406 53.7725 14.0703 Q53.3975 14 52.9756 13.8438 ZM54.9443 10.75 Q55.6006 10.75 55.9912 10.2969 Q56.3818 9.8438 56.3818 9.0625 Q56.3818 8.2656 55.9912 7.8125 Q55.6006 7.3594 54.9443 7.3594 Q54.2725 7.3594 53.8896 7.8125 Q53.5068 8.2656 53.5068 9.0625 Q53.5068 9.8438 53.8896 10.2969 Q54.2725 10.75 54.9443 10.75 ZM64.8447 11.25 Q63.7666 11.25 63.3447 11.5 Q62.9229 11.75 62.9229 12.3438 Q62.9229 12.8281 63.2354 13.1094 Q63.5479 13.3906 64.0947 13.3906 Q64.8447 13.3906 65.2979 12.8594 Q65.751 12.3281 65.751 11.4531 L65.751 11.25 L64.8447 11.25 ZM66.6416 10.875 L66.6416 14 L65.751 14 L65.751 13.1719 Q65.4385 13.6719 64.9775 13.9062 Q64.5166 14.1406 63.8604 14.1406 Q63.0166 14.1406 62.5166 13.6719 Q62.0166 13.2031 62.0166 12.4062 Q62.0166 11.4844 62.6416 11.0156 Q63.2666 10.5469 64.4854 10.5469 L65.751 10.5469 L65.751 10.4531 Q65.751 9.8438 65.3369 9.5 Q64.9229 9.1562 64.1885 9.1562 Q63.7197 9.1562 63.2744 9.2734 Q62.8291 9.3906 62.4229 9.6094 L62.4229 8.7812 Q62.9229 8.5938 63.3838 8.5 Q63.8447 8.4062 64.2822 8.4062 Q65.4697 8.4062 66.0557 9.0156 Q66.6416 9.625 66.6416 10.875 ZM72.4258 8.7344 L72.4258 9.5781 Q72.0508 9.375 71.668 9.2656 Q71.2852 9.1562 70.8945 9.1562 Q70.0195 9.1562 69.5352 9.7109 Q69.0508 10.2656 69.0508 11.2656 Q69.0508 12.2656 69.5352 12.8203 Q70.0195 13.375 70.8945 13.375 Q71.2852 13.375 71.668 13.2734 Q72.0508 13.1719 72.4258 12.9531 L72.4258 13.7969 Q72.0508 13.9688 71.6523 14.0547 Q71.2539 14.1406 70.8008 14.1406 Q69.5508 14.1406 68.8242 13.3672 Q68.0977 12.5938 68.0977 11.2656 Q68.0977 9.9375 68.832 9.1719 Q69.5664 8.4062 70.8477 8.4062 Q71.2695 8.4062 71.6602 8.4844 Q72.0508 8.5625 72.4258 8.7344 ZM74.877 6.9844 L74.877 8.5312 L76.7363 8.5312 L76.7363 9.2344 L74.877 9.2344 L74.877 12.2031 Q74.877 12.8594 75.0645 13.0547 Q75.252 13.25 75.8145 13.25 L76.7363 13.25 L76.7363 14 L75.8145 14 Q74.7676 14 74.3691 13.6094 Q73.9707 13.2188 73.9707 12.2031 L73.9707 9.2344 L73.3145 9.2344 L73.3145 8.5312 L73.9707 8.5312 L73.9707 6.9844 L74.877 6.9844 ZM77.9072 8.5312 L78.8135 8.5312 L78.8135 14 L77.9072 14 L77.9072 8.5312 ZM77.9072 6.4062 L78.8135 6.4062 L78.8135 7.5469 L77.9072 7.5469 L77.9072 6.4062 ZM82.8105 9.1562 Q82.0918 9.1562 81.6699 9.7188 Q81.248 10.2812 81.248 11.2656 Q81.248 12.25 81.6621 12.8125 Q82.0762 13.375 82.8105 13.375 Q83.5293 13.375 83.9512 12.8125 Q84.373 12.25 84.373 11.2656 Q84.373 10.2969 83.9512 9.7266 Q83.5293 9.1562 82.8105 9.1562 ZM82.8105 8.4062 Q83.9824 8.4062 84.6543 9.1641 Q85.3262 9.9219 85.3262 11.2656 Q85.3262 12.6094 84.6543 13.375 Q83.9824 14.1406 82.8105 14.1406 Q81.6387 14.1406 80.9668 13.375 Q80.2949 12.6094 80.2949 11.2656 Q80.2949 9.9219 80.9668 9.1641 Q81.6387 8.4062 82.8105 8.4062 ZM91.3506 10.7031 L91.3506 14 L90.46 14 L90.46 10.7344 Q90.46 9.9531 90.1553 9.5703 Q89.8506 9.1875 89.2412 9.1875 Q88.5225 9.1875 88.1006 9.6484 Q87.6787 10.1094 87.6787 10.9062 L87.6787 14 L86.7725 14 L86.7725 8.5312 L87.6787 8.5312 L87.6787 9.375 Q88.0068 8.8906 88.4443 8.6484 Q88.8818 8.4062 89.4443 8.4062 Q90.3818 8.4062 90.8662 8.9844 Q91.3506 9.5625 91.3506 10.7031 ZM99.8203 10.5781 Q100.1328 10.6875 100.4375 11.0391 Q100.7422 11.3906 101.0391 12 L102.0391 14 L100.9766 14 L100.0547 12.125 Q99.6953 11.3906 99.3516 11.1562 Q99.0078 10.9219 98.4297 10.9219 L97.3516 10.9219 L97.3516 14 L96.3672 14 L96.3672 6.7031 L98.5859 6.7031 Q99.8359 6.7031 100.4531 7.2266 Q101.0703 7.75 101.0703 8.8125 Q101.0703 9.5 100.75 9.9531 Q100.4297 10.4062 99.8203 10.5781 ZM97.3516 7.5156 L97.3516 10.1094 L98.5859 10.1094 Q99.3047 10.1094 99.6719 9.7812 Q100.0391 9.4531 100.0391 8.8125 Q100.0391 8.1719 99.6719 7.8438 Q99.3047 7.5156 98.5859 7.5156 L97.3516 7.5156 ZM107.2061 11.2656 Q107.2061 10.2812 106.792 9.7188 Q106.3779 9.1562 105.6748 9.1562 Q104.9561 9.1562 104.5498 9.7188 Q104.1436 10.2812 104.1436 11.2656 Q104.1436 12.2656 104.5498 12.8281 Q104.9561 13.3906 105.6748 13.3906 Q106.3779 13.3906 106.792 12.8281 Q107.2061 12.2656 107.2061 11.2656 ZM104.1436 9.3594 Q104.4248 8.875 104.8545 8.6406 Q105.2842 8.4062 105.8936 8.4062 Q106.8936 8.4062 107.5107 9.1953 Q108.1279 9.9844 108.1279 11.2656 Q108.1279 12.5625 107.5107 13.3516 Q106.8936 14.1406 105.8936 14.1406 Q105.2842 14.1406 104.8545 13.9062 Q104.4248 13.6719 104.1436 13.1719 L104.1436 14 L103.2373 14 L103.2373 6.4062 L104.1436 6.4062 L104.1436 9.3594 ZM109.1631 10.8594 L111.8037 10.8594 L111.8037 11.6562 L109.1631 11.6562 L109.1631 10.8594 ZM113.2715 6.7031 L117.8809 6.7031 L117.8809 7.5469 L114.2559 7.5469 L114.2559 9.7031 L117.7246 9.7031 L117.7246 10.5312 L114.2559 10.5312 L114.2559 13.1719 L117.959 13.1719 L117.959 14 L113.2715 14 L113.2715 6.7031 ZM120.5273 13.1719 L123.9648 13.1719 L123.9648 14 L119.3398 14 L119.3398 13.1719 Q119.9023 12.5938 120.8711 11.6094 Q121.8398 10.625 122.0898 10.3438 Q122.5586 9.8125 122.7461 9.4453 Q122.9336 9.0781 122.9336 8.7188 Q122.9336 8.1406 122.5273 7.7734 Q122.1211 7.4062 121.4648 7.4062 Q120.9961 7.4062 120.4883 7.5703 Q119.9805 7.7344 119.3867 8.0625 L119.3867 7.0625 Q119.9805 6.8281 120.4961 6.7031 Q121.0117 6.5781 121.4492 6.5781 Q122.5742 6.5781 123.2539 7.1406 Q123.9336 7.7031 123.9336 8.6562 Q123.9336 9.1094 123.7617 9.5078 Q123.5898 9.9062 123.1523 10.4531 Q123.0273 10.5938 122.3711 11.2734 Q121.7148 11.9531 120.5273 13.1719 ZM125.9521 6.7031 L130.1396 6.7031 L130.1396 7.5469 L126.9365 7.5469 L126.9365 9.6875 L129.8271 9.6875 L129.8271 10.5156 L126.9365 10.5156 L126.9365 14 L125.9521 14 L125.9521 6.7031 ZM131.9541 13.1719 L133.5791 13.1719 L133.5791 7.6094 L131.8135 7.9531 L131.8135 7.0625 L133.5635 6.7031 L134.5479 6.7031 L134.5479 13.1719 L136.1572 13.1719 L136.1572 14 L131.9541 14 L131.9541 13.1719 ZM144.6826 8.6875 L144.6826 9.5469 Q144.3076 9.3438 143.9014 9.25 Q143.4951 9.1562 143.042 9.1562 Q142.3857 9.1562 142.0498 9.3594 Q141.7139 9.5625 141.7139 9.9688 Q141.7139 10.2812 141.9482 10.4609 Q142.1826 10.6406 142.917 10.7969 L143.2139 10.875 Q144.1826 11.0781 144.5811 11.4531 Q144.9795 11.8281 144.9795 12.4844 Q144.9795 13.25 144.3779 13.6953 Q143.7764 14.1406 142.7295 14.1406 Q142.2764 14.1406 141.7998 14.0547 Q141.3232 13.9688 140.8076 13.7969 L140.8076 12.875 Q141.3076 13.125 141.7842 13.2578 Q142.2607 13.3906 142.7451 13.3906 Q143.3701 13.3906 143.7139 13.1719 Q144.0576 12.9531 144.0576 12.5625 Q144.0576 12.1875 143.8154 11.9922 Q143.5732 11.7969 142.7295 11.625 L142.417 11.5469 Q141.5889 11.375 141.2139 11.0078 Q140.8389 10.6406 140.8389 10.0156 Q140.8389 9.2344 141.3857 8.8203 Q141.9326 8.4062 142.9482 8.4062 Q143.4326 8.4062 143.8779 8.4766 Q144.3232 8.5469 144.6826 8.6875 ZM146.4082 8.5312 L147.3145 8.5312 L147.3145 14 L146.4082 14 L146.4082 8.5312 ZM146.4082 6.4062 L147.3145 6.4062 L147.3145 7.5469 L146.4082 7.5469 L146.4082 6.4062 ZM152.7959 11.2031 Q152.7959 10.2188 152.3896 9.6875 Q151.9834 9.1562 151.2646 9.1562 Q150.5303 9.1562 150.1318 9.6875 Q149.7334 10.2188 149.7334 11.2031 Q149.7334 12.1719 150.1318 12.7109 Q150.5303 13.25 151.2646 13.25 Q151.9834 13.25 152.3896 12.7109 Q152.7959 12.1719 152.7959 11.2031 ZM153.6865 13.3281 Q153.6865 14.7188 153.0693 15.3984 Q152.4521 16.0781 151.1709 16.0781 Q150.7021 16.0781 150.2803 16.0078 Q149.8584 15.9375 149.4678 15.7969 L149.4678 14.9219 Q149.8584 15.1406 150.2412 15.2422 Q150.624 15.3438 151.0303 15.3438 Q151.9053 15.3438 152.3506 14.8828 Q152.7959 14.4219 152.7959 13.4844 L152.7959 13.0312 Q152.5146 13.5156 152.0771 13.7578 Q151.6396 14 151.0303 14 Q150.0303 14 149.4131 13.2344 Q148.7959 12.4688 148.7959 11.2031 Q148.7959 9.9375 149.4131 9.1719 Q150.0303 8.4062 151.0303 8.4062 Q151.6396 8.4062 152.0771 8.6406 Q152.5146 8.875 152.7959 9.3594 L152.7959 8.5312 L153.6865 8.5312 L153.6865 13.3281 ZM160.0811 10.7031 L160.0811 14 L159.1904 14 L159.1904 10.7344 Q159.1904 9.9531 158.8857 9.5703 Q158.5811 9.1875 157.9717 9.1875 Q157.2529 9.1875 156.8311 9.6484 Q156.4092 10.1094 156.4092 10.9062 L156.4092 14 L155.5029 14 L155.5029 8.5312 L156.4092 8.5312 L156.4092 9.375 Q156.7373 8.8906 157.1748 8.6484 Q157.6123 8.4062 158.1748 8.4062 Q159.1123 8.4062 159.5967 8.9844 Q160.0811 9.5625 160.0811 10.7031 ZM164.3564 11.25 Q163.2783 11.25 162.8564 11.5 Q162.4346 11.75 162.4346 12.3438 Q162.4346 12.8281 162.7471 13.1094 Q163.0596 13.3906 163.6064 13.3906 Q164.3564 13.3906 164.8096 12.8594 Q165.2627 12.3281 165.2627 11.4531 L165.2627 11.25 L164.3564 11.25 ZM166.1533 10.875 L166.1533 14 L165.2627 14 L165.2627 13.1719 Q164.9502 13.6719 164.4893 13.9062 Q164.0283 14.1406 163.3721 14.1406 Q162.5283 14.1406 162.0283 13.6719 Q161.5283 13.2031 161.5283 12.4062 Q161.5283 11.4844 162.1533 11.0156 Q162.7783 10.5469 163.9971 10.5469 L165.2627 10.5469 L165.2627 10.4531 Q165.2627 9.8438 164.8486 9.5 Q164.4346 9.1562 163.7002 9.1562 Q163.2314 9.1562 162.7861 9.2734 Q162.3408 9.3906 161.9346 9.6094 L161.9346 8.7812 Q162.4346 8.5938 162.8955 8.5 Q163.3564 8.4062 163.7939 8.4062 Q164.9814 8.4062 165.5674 9.0156 Q166.1533 9.625 166.1533 10.875 ZM168 6.4062 L168.9062 6.4062 L168.9062 14 L168 14 L168 6.4062 ZM170.7783 8.5312 L171.6846 8.5312 L171.6846 14 L170.7783 14 L170.7783 8.5312 ZM170.7783 6.4062 L171.6846 6.4062 L171.6846 7.5469 L170.7783 7.5469 L170.7783 6.4062 ZM178.1035 10.7031 L178.1035 14 L177.2129 14 L177.2129 10.7344 Q177.2129 9.9531 176.9082 9.5703 Q176.6035 9.1875 175.9941 9.1875 Q175.2754 9.1875 174.8535 9.6484 Q174.4316 10.1094 174.4316 10.9062 L174.4316 14 L173.5254 14 L173.5254 8.5312 L174.4316 8.5312 L174.4316 9.375 Q174.7598 8.8906 175.1973 8.6484 Q175.6348 8.4062 176.1973 8.4062 Q177.1348 8.4062 177.6191 8.9844 Q178.1035 9.5625 178.1035 10.7031 ZM183.5039 11.2031 Q183.5039 10.2188 183.0977 9.6875 Q182.6914 9.1562 181.9727 9.1562 Q181.2383 9.1562 180.8398 9.6875 Q180.4414 10.2188 180.4414 11.2031 Q180.4414 12.1719 180.8398 12.7109 Q181.2383 13.25 181.9727 13.25 Q182.6914 13.25 183.0977 12.7109 Q183.5039 12.1719 183.5039 11.2031 ZM184.3945 13.3281 Q184.3945 14.7188 183.7773 15.3984 Q183.1602 16.0781 181.8789 16.0781 Q181.4102 16.0781 180.9883 16.0078 Q180.5664 15.9375 180.1758 15.7969 L180.1758 14.9219 Q180.5664 15.1406 180.9492 15.2422 Q181.332 15.3438 181.7383 15.3438 Q182.6133 15.3438 183.0586 14.8828 Q183.5039 14.4219 183.5039 13.4844 L183.5039 13.0312 Q183.2227 13.5156 182.7852 13.7578 Q182.3477 14 181.7383 14 Q180.7383 14 180.1211 13.2344 Q179.5039 12.4688 179.5039 11.2031 Q179.5039 9.9375 180.1211 9.1719 Q180.7383 8.4062 181.7383 8.4062 Q182.3477 8.4062 182.7852 8.6406 Q183.2227 8.875 183.5039 9.3594 L183.5039 8.5312 L184.3945 8.5312 L184.3945 13.3281 ZM191.9053 11.25 Q190.8271 11.25 190.4053 11.5 Q189.9834 11.75 189.9834 12.3438 Q189.9834 12.8281 190.2959 13.1094 Q190.6084 13.3906 191.1553 13.3906 Q191.9053 13.3906 192.3584 12.8594 Q192.8115 12.3281 192.8115 11.4531 L192.8115 11.25 L191.9053 11.25 ZM193.7021 10.875 L193.7021 14 L192.8115 14 L192.8115 13.1719 Q192.499 13.6719 192.0381 13.9062 Q191.5771 14.1406 190.9209 14.1406 Q190.0771 14.1406 189.5771 13.6719 Q189.0771 13.2031 189.0771 12.4062 Q189.0771 11.4844 189.7021 11.0156 Q190.3271 10.5469 191.5459 10.5469 L192.8115 10.5469 L192.8115 10.4531 Q192.8115 9.8438 192.3975 9.5 Q191.9834 9.1562 191.249 9.1562 Q190.7803 9.1562 190.335 9.2734 Q189.8896 9.3906 189.4834 9.6094 L189.4834 8.7812 Q189.9834 8.5938 190.4443 8.5 Q190.9053 8.4062 191.3428 8.4062 Q192.5303 8.4062 193.1162 9.0156 Q193.7021 9.625 193.7021 10.875 ZM200.0957 10.7031 L200.0957 14 L199.2051 14 L199.2051 10.7344 Q199.2051 9.9531 198.9004 9.5703 Q198.5957 9.1875 197.9863 9.1875 Q197.2676 9.1875 196.8457 9.6484 Q196.4238 10.1094 196.4238 10.9062 L196.4238 14 L195.5176 14 L195.5176 8.5312 L196.4238 8.5312 L196.4238 9.375 Q196.752 8.8906 197.1895 8.6484 Q197.627 8.4062 198.1895 8.4062 Q199.127 8.4062 199.6113 8.9844 Q200.0957 9.5625 200.0957 10.7031 ZM205.4961 9.3594 L205.4961 6.4062 L206.3867 6.4062 L206.3867 14 L205.4961 14 L205.4961 13.1719 Q205.2148 13.6719 204.7773 13.9062 Q204.3398 14.1406 203.7305 14.1406 Q202.7461 14.1406 202.1211 13.3516 Q201.4961 12.5625 201.4961 11.2656 Q201.4961 9.9844 202.1211 9.1953 Q202.7461 8.4062 203.7305 8.4062 Q204.3398 8.4062 204.7773 8.6406 Q205.2148 8.875 205.4961 9.3594 ZM202.4336 11.2656 Q202.4336 12.2656 202.8398 12.8281 Q203.2461 13.3906 203.9648 13.3906 Q204.668 13.3906 205.082 12.8281 Q205.4961 12.2656 205.4961 11.2656 Q205.4961 10.2812 205.082 9.7188 Q204.668 9.1562 203.9648 9.1562 Q203.2461 9.1562 202.8398 9.7188 Q202.4336 10.2812 202.4336 11.2656 ZM216.9131 7.2656 L216.9131 8.3125 Q216.4131 7.8438 215.8506 7.6172 Q215.2881 7.3906 214.6631 7.3906 Q213.4131 7.3906 212.749 8.1562 Q212.085 8.9219 212.085 10.3594 Q212.085 11.7969 212.749 12.5625 Q213.4131 13.3281 214.6631 13.3281 Q215.2881 13.3281 215.8506 13.1016 Q216.4131 12.875 216.9131 12.4062 L216.9131 13.4375 Q216.3975 13.7969 215.8193 13.9688 Q215.2412 14.1406 214.6006 14.1406 Q212.9443 14.1406 211.9912 13.125 Q211.0381 12.1094 211.0381 10.3594 Q211.0381 8.6094 211.9912 7.5938 Q212.9443 6.5781 214.6006 6.5781 Q215.2568 6.5781 215.835 6.75 Q216.4131 6.9219 216.9131 7.2656 ZM219.4268 7.5156 L219.4268 13.1875 L220.6143 13.1875 Q222.1299 13.1875 222.8252 12.5078 Q223.5205 11.8281 223.5205 10.3438 Q223.5205 8.875 222.8252 8.1953 Q222.1299 7.5156 220.6143 7.5156 L219.4268 7.5156 ZM218.4424 6.7031 L220.4736 6.7031 Q222.583 6.7031 223.5752 7.5859 Q224.5674 8.4688 224.5674 10.3438 Q224.5674 12.2344 223.5752 13.1172 Q222.583 14 220.4736 14 L218.4424 14 L218.4424 6.7031 ZM226.1426 6.7031 L227.127 6.7031 L227.127 9.7969 L230.3926 6.7031 L231.6738 6.7031 L228.0488 10.1094 L231.9238 14 L230.627 14 L227.127 10.4844 L227.127 14 L226.1426 14 L226.1426 6.7031 ZM232.2002 10.8594 L234.8408 10.8594 L234.8408 11.6562 L232.2002 11.6562 L232.2002 10.8594 ZM237.293 10.5156 L237.293 13.1875 L238.8711 13.1875 Q239.668 13.1875 240.0508 12.8594 Q240.4336 12.5312 240.4336 11.8438 Q240.4336 11.1719 240.0508 10.8438 Q239.668 10.5156 238.8711 10.5156 L237.293 10.5156 ZM237.293 7.5156 L237.293 9.7188 L238.7461 9.7188 Q239.4805 9.7188 239.832 9.4453 Q240.1836 9.1719 240.1836 8.625 Q240.1836 8.0625 239.832 7.7891 Q239.4805 7.5156 238.7461 7.5156 L237.293 7.5156 ZM236.3086 6.7031 L238.8242 6.7031 Q239.9492 6.7031 240.5586 7.1719 Q241.168 7.6406 241.168 8.5156 Q241.168 9.1875 240.8555 9.5781 Q240.543 9.9688 239.9492 10.0625 Q240.668 10.2188 241.0742 10.7188 Q241.4805 11.2188 241.4805 11.9531 Q241.4805 12.9375 240.8164 13.4688 Q240.1523 14 238.918 14 L236.3086 14 L236.3086 6.7031 ZM247.8096 11.0469 L247.8096 11.4844 L243.6689 11.4844 Q243.7314 12.4062 244.2314 12.8906 Q244.7314 13.375 245.6221 13.375 Q246.1377 13.375 246.6299 13.25 Q247.1221 13.125 247.5908 12.875 L247.5908 13.7188 Q247.1064 13.9219 246.5986 14.0312 Q246.0908 14.1406 245.5752 14.1406 Q244.2627 14.1406 243.4971 13.3828 Q242.7314 12.625 242.7314 11.3125 Q242.7314 9.9688 243.458 9.1875 Q244.1846 8.4062 245.4189 8.4062 Q246.5283 8.4062 247.1689 9.1094 Q247.8096 9.8125 247.8096 11.0469 ZM246.9033 10.7812 Q246.9033 10.0469 246.4971 9.6016 Q246.0908 9.1562 245.4346 9.1562 Q244.6689 9.1562 244.2236 9.5859 Q243.7783 10.0156 243.7002 10.7812 L246.9033 10.7812 ZM250.165 6.9844 L250.165 8.5312 L252.0244 8.5312 L252.0244 9.2344 L250.165 9.2344 L250.165 12.2031 Q250.165 12.8594 250.3525 13.0547 Q250.54 13.25 251.1025 13.25 L252.0244 13.25 L252.0244 14 L251.1025 14 Q250.0557 14 249.6572 13.6094 Q249.2588 13.2188 249.2588 12.2031 L249.2588 9.2344 L248.6025 9.2344 L248.6025 8.5312 L249.2588 8.5312 L249.2588 6.9844 L250.165 6.9844 ZM255.6797 11.25 Q254.6016 11.25 254.1797 11.5 Q253.7578 11.75 253.7578 12.3438 Q253.7578 12.8281 254.0703 13.1094 Q254.3828 13.3906 254.9297 13.3906 Q255.6797 13.3906 256.1328 12.8594 Q256.5859 12.3281 256.5859 11.4531 L256.5859 11.25 L255.6797 11.25 ZM257.4766 10.875 L257.4766 14 L256.5859 14 L256.5859 13.1719 Q256.2734 13.6719 255.8125 13.9062 Q255.3516 14.1406 254.6953 14.1406 Q253.8516 14.1406 253.3516 13.6719 Q252.8516 13.2031 252.8516 12.4062 Q252.8516 11.4844 253.4766 11.0156 Q254.1016 10.5469 255.3203 10.5469 L256.5859 10.5469 L256.5859 10.4531 Q256.5859 9.8438 256.1719 9.5 Q255.7578 9.1562 255.0234 9.1562 Q254.5547 9.1562 254.1094 9.2734 Q253.6641 9.3906 253.2578 9.6094 L253.2578 8.7812 Q253.7578 8.5938 254.2188 8.5 Q254.6797 8.4062 255.1172 8.4062 Q256.3047 8.4062 256.8906 9.0156 Q257.4766 9.625 257.4766 10.875 ZM258.8701 10.8594 L261.5107 10.8594 L261.5107 11.6562 L258.8701 11.6562 L258.8701 10.8594 ZM266.8691 8.7344 L266.8691 9.5781 Q266.4941 9.375 266.1113 9.2656 Q265.7285 9.1562 265.3379 9.1562 Q264.4629 9.1562 263.9785 9.7109 Q263.4941 10.2656 263.4941 11.2656 Q263.4941 12.2656 263.9785 12.8203 Q264.4629 13.375 265.3379 13.375 Q265.7285 13.375 266.1113 13.2734 Q266.4941 13.1719 266.8691 12.9531 L266.8691 13.7969 Q266.4941 13.9688 266.0957 14.0547 Q265.6973 14.1406 265.2441 14.1406 Q263.9941 14.1406 263.2676 13.3672 Q262.541 12.5938 262.541 11.2656 Q262.541 9.9375 263.2754 9.1719 Q264.0098 8.4062 265.291 8.4062 Q265.7129 8.4062 266.1035 8.4844 Q266.4941 8.5625 266.8691 8.7344 ZM270.9141 11.25 Q269.8359 11.25 269.4141 11.5 Q268.9922 11.75 268.9922 12.3438 Q268.9922 12.8281 269.3047 13.1094 Q269.6172 13.3906 270.1641 13.3906 Q270.9141 13.3906 271.3672 12.8594 Q271.8203 12.3281 271.8203 11.4531 L271.8203 11.25 L270.9141 11.25 ZM272.7109 10.875 L272.7109 14 L271.8203 14 L271.8203 13.1719 Q271.5078 13.6719 271.0469 13.9062 Q270.5859 14.1406 269.9297 14.1406 Q269.0859 14.1406 268.5859 13.6719 Q268.0859 13.2031 268.0859 12.4062 Q268.0859 11.4844 268.7109 11.0156 Q269.3359 10.5469 270.5547 10.5469 L271.8203 10.5469 L271.8203 10.4531 Q271.8203 9.8438 271.4062 9.5 Q270.9922 9.1562 270.2578 9.1562 Q269.7891 9.1562 269.3438 9.2734 Q268.8984 9.3906 268.4922 9.6094 L268.4922 8.7812 Q268.9922 8.5938 269.4531 8.5 Q269.9141 8.4062 270.3516 8.4062 Q271.5391 8.4062 272.125 9.0156 Q272.7109 9.625 272.7109 10.875 ZM275.4482 6.9844 L275.4482 8.5312 L277.3076 8.5312 L277.3076 9.2344 L275.4482 9.2344 L275.4482 12.2031 Q275.4482 12.8594 275.6357 13.0547 Q275.8232 13.25 276.3857 13.25 L277.3076 13.25 L277.3076 14 L276.3857 14 Q275.3389 14 274.9404 13.6094 Q274.542 13.2188 274.542 12.2031 L274.542 9.2344 L273.8857 9.2344 L273.8857 8.5312 L274.542 8.5312 L274.542 6.9844 L275.4482 6.9844 ZM283.166 11.0469 L283.166 11.4844 L279.0254 11.4844 Q279.0879 12.4062 279.5879 12.8906 Q280.0879 13.375 280.9785 13.375 Q281.4941 13.375 281.9863 13.25 Q282.4785 13.125 282.9473 12.875 L282.9473 13.7188 Q282.4629 13.9219 281.9551 14.0312 Q281.4473 14.1406 280.9316 14.1406 Q279.6191 14.1406 278.8535 13.3828 Q278.0879 12.625 278.0879 11.3125 Q278.0879 9.9688 278.8145 9.1875 Q279.541 8.4062 280.7754 8.4062 Q281.8848 8.4062 282.5254 9.1094 Q283.166 9.8125 283.166 11.0469 ZM282.2598 10.7812 Q282.2598 10.0469 281.8535 9.6016 Q281.4473 9.1562 280.791 9.1562 Q280.0254 9.1562 279.5801 9.5859 Q279.1348 10.0156 279.0566 10.7812 L282.2598 10.7812 ZM289.1777 10.7031 L289.1777 14 L288.2871 14 L288.2871 10.7344 Q288.2871 9.9531 287.9824 9.5703 Q287.6777 9.1875 287.0684 9.1875 Q286.3496 9.1875 285.9277 9.6484 Q285.5059 10.1094 285.5059 10.9062 L285.5059 14 L284.5996 14 L284.5996 8.5312 L285.5059 8.5312 L285.5059 9.375 Q285.834 8.8906 286.2715 8.6484 Q286.709 8.4062 287.2715 8.4062 Q288.209 8.4062 288.6934 8.9844 Q289.1777 9.5625 289.1777 10.7031 ZM290.9688 8.5312 L291.875 8.5312 L291.875 14 L290.9688 14 L290.9688 8.5312 ZM290.9688 6.4062 L291.875 6.4062 L291.875 7.5469 L290.9688 7.5469 L290.9688 6.4062 ZM298.2939 10.7031 L298.2939 14 L297.4033 14 L297.4033 10.7344 Q297.4033 9.9531 297.0986 9.5703 Q296.7939 9.1875 296.1846 9.1875 Q295.4658 9.1875 295.0439 9.6484 Q294.6221 10.1094 294.6221 10.9062 L294.6221 14 L293.7158 14 L293.7158 8.5312 L294.6221 8.5312 L294.6221 9.375 Q294.9502 8.8906 295.3877 8.6484 Q295.8252 8.4062 296.3877 8.4062 Q297.3252 8.4062 297.8096 8.9844 Q298.2939 9.5625 298.2939 10.7031 ZM305.748 11.25 Q304.6699 11.25 304.248 11.5 Q303.8262 11.75 303.8262 12.3438 Q303.8262 12.8281 304.1387 13.1094 Q304.4512 13.3906 304.998 13.3906 Q305.748 13.3906 306.2012 12.8594 Q306.6543 12.3281 306.6543 11.4531 L306.6543 11.25 L305.748 11.25 ZM307.5449 10.875 L307.5449 14 L306.6543 14 L306.6543 13.1719 Q306.3418 13.6719 305.8809 13.9062 Q305.4199 14.1406 304.7637 14.1406 Q303.9199 14.1406 303.4199 13.6719 Q302.9199 13.2031 302.9199 12.4062 Q302.9199 11.4844 303.5449 11.0156 Q304.1699 10.5469 305.3887 10.5469 L306.6543 10.5469 L306.6543 10.4531 Q306.6543 9.8438 306.2402 9.5 Q305.8262 9.1562 305.0918 9.1562 Q304.623 9.1562 304.1777 9.2734 Q303.7324 9.3906 303.3262 9.6094 L303.3262 8.7812 Q303.8262 8.5938 304.2871 8.5 Q304.748 8.4062 305.1855 8.4062 Q306.373 8.4062 306.959 9.0156 Q307.5449 9.625 307.5449 10.875 ZM313.3291 8.7344 L313.3291 9.5781 Q312.9541 9.375 312.5713 9.2656 Q312.1885 9.1562 311.7979 9.1562 Q310.9229 9.1562 310.4385 9.7109 Q309.9541 10.2656 309.9541 11.2656 Q309.9541 12.2656 310.4385 12.8203 Q310.9229 13.375 311.7979 13.375 Q312.1885 13.375 312.5713 13.2734 Q312.9541 13.1719 313.3291 12.9531 L313.3291 13.7969 Q312.9541 13.9688 312.5557 14.0547 Q312.1572 14.1406 311.7041 14.1406 Q310.4541 14.1406 309.7275 13.3672 Q309.001 12.5938 309.001 11.2656 Q309.001 9.9375 309.7354 9.1719 Q310.4697 8.4062 311.751 8.4062 Q312.1729 8.4062 312.5635 8.4844 Q312.9541 8.5625 313.3291 8.7344 ZM315.7803 6.9844 L315.7803 8.5312 L317.6396 8.5312 L317.6396 9.2344 L315.7803 9.2344 L315.7803 12.2031 Q315.7803 12.8594 315.9678 13.0547 Q316.1553 13.25 316.7178 13.25 L317.6396 13.25 L317.6396 14 L316.7178 14 Q315.6709 14 315.2725 13.6094 Q314.874 13.2188 314.874 12.2031 L314.874 9.2344 L314.2178 9.2344 L314.2178 8.5312 L314.874 8.5312 L314.874 6.9844 L315.7803 6.9844 ZM318.8105 8.5312 L319.7168 8.5312 L319.7168 14 L318.8105 14 L318.8105 8.5312 ZM318.8105 6.4062 L319.7168 6.4062 L319.7168 7.5469 L318.8105 7.5469 L318.8105 6.4062 ZM320.9482 8.5312 L321.9014 8.5312 L323.6045 13.125 L325.3232 8.5312 L326.2764 8.5312 L324.2139 14 L322.9951 14 L320.9482 8.5312 ZM327.5068 8.5312 L328.4131 8.5312 L328.4131 14 L327.5068 14 L327.5068 8.5312 ZM327.5068 6.4062 L328.4131 6.4062 L328.4131 7.5469 L327.5068 7.5469 L327.5068 6.4062 ZM331.1758 6.9844 L331.1758 8.5312 L333.0352 8.5312 L333.0352 9.2344 L331.1758 9.2344 L331.1758 12.2031 Q331.1758 12.8594 331.3633 13.0547 Q331.5508 13.25 332.1133 13.25 L333.0352 13.25 L333.0352 14 L332.1133 14 Q331.0664 14 330.668 13.6094 Q330.2695 13.2188 330.2695 12.2031 L330.2695 9.2344 L329.6133 9.2344 L329.6133 8.5312 L330.2695 8.5312 L330.2695 6.9844 L331.1758 6.9844 ZM336.4873 14.5156 Q336.1123 15.4844 335.7451 15.7812 Q335.3779 16.0781 334.7842 16.0781 L334.0654 16.0781 L334.0654 15.3281 L334.5811 15.3281 Q334.9561 15.3281 335.1592 15.1562 Q335.3623 14.9844 335.6123 14.3281 L335.7842 13.9062 L333.5654 8.5312 L334.5186 8.5312 L336.2217 12.8125 L337.9404 8.5312 L338.8936 8.5312 L336.4873 14.5156 Z"
         style="clip-path:url(#clipPath2); stroke:none;"
         clip-path="url(#clipPath2)"
         id="path139" />
      <path
         d="M4.25 21.9375 Q3.3906 21.9375 2.9141 22.5703 Q2.4375 23.2031 2.4375 24.3594 Q2.4375 25.5156 2.9141 26.1484 Q3.3906 26.7812 4.25 26.7812 Q5.1094 26.7812 5.5859 26.1484 Q6.0625 25.5156 6.0625 24.3594 Q6.0625 23.2031 5.5859 22.5703 Q5.1094 21.9375 4.25 21.9375 ZM4.25 20.5781 Q6 20.5781 7 21.5859 Q8 22.5938 8 24.3594 Q8 26.125 7 27.1328 Q6 28.1406 4.25 28.1406 Q2.5 28.1406 1.5 27.1328 Q0.5 26.125 0.5 24.3594 Q0.5 22.5938 1.5 21.5859 Q2.5 20.5781 4.25 20.5781 ZM13.4072 24.0156 Q13.1729 23.9062 12.9463 23.8594 Q12.7197 23.8125 12.4854 23.8125 Q11.8135 23.8125 11.4541 24.2422 Q11.0947 24.6719 11.0947 25.4844 L11.0947 28 L9.3447 28 L9.3447 22.5312 L11.0947 22.5312 L11.0947 23.4219 Q11.4229 22.8906 11.8604 22.6484 Q12.2979 22.4062 12.9072 22.4062 Q13.001 22.4062 13.1025 22.4062 Q13.2041 22.4062 13.3916 22.4375 L13.4072 24.0156 ZM17.9951 27.0781 Q17.6357 27.5469 17.1982 27.7734 Q16.7607 28 16.1982 28 Q15.1982 28 14.542 27.2109 Q13.8857 26.4219 13.8857 25.2031 Q13.8857 23.9688 14.542 23.1875 Q15.1982 22.4062 16.1982 22.4062 Q16.7607 22.4062 17.1982 22.6328 Q17.6357 22.8594 17.9951 23.3438 L17.9951 22.5312 L19.7451 22.5312 L19.7451 27.4531 Q19.7451 28.7656 18.917 29.4609 Q18.0889 30.1562 16.5107 30.1562 Q15.9951 30.1562 15.5186 30.0781 Q15.042 30 14.5576 29.8438 L14.5576 28.4844 Q15.0107 28.75 15.4482 28.875 Q15.8857 29 16.3389 29 Q17.1982 29 17.5967 28.625 Q17.9951 28.25 17.9951 27.4531 L17.9951 27.0781 ZM16.8389 23.6719 Q16.292 23.6719 15.9951 24.0703 Q15.6982 24.4688 15.6982 25.2031 Q15.6982 25.9531 15.9873 26.3438 Q16.2764 26.7344 16.8389 26.7344 Q17.3857 26.7344 17.6904 26.3281 Q17.9951 25.9219 17.9951 25.2031 Q17.9951 24.4688 17.6904 24.0703 Q17.3857 23.6719 16.8389 23.6719 ZM23.8877 25.5312 Q23.3408 25.5312 23.0596 25.7188 Q22.7783 25.9062 22.7783 26.2656 Q22.7783 26.6094 23.0049 26.7969 Q23.2314 26.9844 23.6221 26.9844 Q24.1221 26.9844 24.458 26.625 Q24.7939 26.2656 24.7939 25.7344 L24.7939 25.5312 L23.8877 25.5312 ZM26.5596 24.875 L26.5596 28 L24.7939 28 L24.7939 27.1875 Q24.4346 27.6875 23.9971 27.9141 Q23.5596 28.1406 22.9346 28.1406 Q22.0752 28.1406 21.5518 27.6484 Q21.0283 27.1562 21.0283 26.3594 Q21.0283 25.3906 21.6846 24.9453 Q22.3408 24.5 23.7627 24.5 L24.7939 24.5 L24.7939 24.3594 Q24.7939 23.9531 24.4658 23.7578 Q24.1377 23.5625 23.4502 23.5625 Q22.8877 23.5625 22.4033 23.6719 Q21.9189 23.7812 21.4971 24.0156 L21.4971 22.6719 Q22.0596 22.5469 22.6299 22.4766 Q23.2002 22.4062 23.7627 22.4062 Q25.2471 22.4062 25.9033 22.9844 Q26.5596 23.5625 26.5596 24.875 ZM33.6826 24.6719 L33.6826 28 L31.917 28 L31.917 27.4531 L31.917 25.4531 Q31.917 24.75 31.8857 24.4766 Q31.8545 24.2031 31.7764 24.0781 Q31.6826 23.9062 31.5029 23.8125 Q31.3232 23.7188 31.1045 23.7188 Q30.5576 23.7188 30.2451 24.1406 Q29.9326 24.5625 29.9326 25.3125 L29.9326 28 L28.1826 28 L28.1826 22.5312 L29.9326 22.5312 L29.9326 23.3281 Q30.3232 22.8594 30.7686 22.6328 Q31.2139 22.4062 31.7451 22.4062 Q32.6982 22.4062 33.1904 22.9844 Q33.6826 23.5625 33.6826 24.6719 ZM35.3018 22.5312 L37.0518 22.5312 L37.0518 28 L35.3018 28 L35.3018 22.5312 ZM35.3018 20.4062 L37.0518 20.4062 L37.0518 21.8281 L35.3018 21.8281 L35.3018 20.4062 ZM42.9951 22.7031 L42.9951 24.0312 Q42.4326 23.7969 41.9092 23.6797 Q41.3857 23.5625 40.9326 23.5625 Q40.4326 23.5625 40.1904 23.6875 Q39.9482 23.8125 39.9482 24.0625 Q39.9482 24.2812 40.1279 24.3906 Q40.3076 24.5 40.792 24.5625 L41.0889 24.5938 Q42.4326 24.7656 42.9014 25.1562 Q43.3701 25.5469 43.3701 26.3906 Q43.3701 27.2656 42.7217 27.7031 Q42.0732 28.1406 40.792 28.1406 Q40.2607 28.1406 39.6826 28.0547 Q39.1045 27.9688 38.4795 27.7969 L38.4795 26.4688 Q39.0107 26.7188 39.5576 26.8516 Q40.1045 26.9844 40.667 26.9844 Q41.1826 26.9844 41.4404 26.8438 Q41.6982 26.7031 41.6982 26.4219 Q41.6982 26.1875 41.5264 26.0703 Q41.3545 25.9531 40.8232 25.8906 L40.5107 25.8438 Q39.3389 25.7031 38.8701 25.3047 Q38.4014 24.9062 38.4014 24.1094 Q38.4014 23.2344 38.9951 22.8203 Q39.5889 22.4062 40.8232 22.4062 Q41.3076 22.4062 41.8389 22.4766 Q42.3701 22.5469 42.9951 22.7031 ZM49.7441 23.4375 Q50.0723 22.9375 50.5332 22.6719 Q50.9941 22.4062 51.541 22.4062 Q52.4785 22.4062 52.9707 22.9844 Q53.4629 23.5625 53.4629 24.6719 L53.4629 28 L51.7129 28 L51.7129 25.1406 Q51.7129 25.0781 51.7129 25.0156 Q51.7129 24.9531 51.7129 24.8281 Q51.7129 24.2344 51.5488 23.9766 Q51.3848 23.7188 50.9941 23.7188 Q50.4941 23.7188 50.2285 24.125 Q49.9629 24.5312 49.9473 25.3125 L49.9473 28 L48.1816 28 L48.1816 25.1406 Q48.1816 24.2344 48.0254 23.9766 Q47.8691 23.7188 47.4785 23.7188 Q46.9785 23.7188 46.7051 24.1328 Q46.4316 24.5469 46.4316 25.3125 L46.4316 28 L44.666 28 L44.666 22.5312 L46.4316 22.5312 L46.4316 23.3281 Q46.7441 22.875 47.166 22.6406 Q47.5879 22.4062 48.0879 22.4062 Q48.6504 22.4062 49.0879 22.6797 Q49.5254 22.9531 49.7441 23.4375 ZM55.3828 22.5312 L57.1328 22.5312 L57.1328 24.4219 L55.3828 24.4219 L55.3828 22.5312 ZM55.3828 26.1094 L57.1328 26.1094 L57.1328 28 L55.3828 28 L55.3828 26.1094 Z"
         style="clip-path:url(#clipPath2); stroke:none;"
         clip-path="url(#clipPath2)"
         id="path141" />
      <path
         d="M66.9844 20.7031 L67.9688 20.7031 L67.9688 23.7031 L71.5469 23.7031 L71.5469 20.7031 L72.5312 20.7031 L72.5312 28 L71.5469 28 L71.5469 24.5312 L67.9688 24.5312 L67.9688 28 L66.9844 28 L66.9844 20.7031 ZM76.582 23.1562 Q75.8633 23.1562 75.4414 23.7188 Q75.0195 24.2812 75.0195 25.2656 Q75.0195 26.25 75.4336 26.8125 Q75.8477 27.375 76.582 27.375 Q77.3008 27.375 77.7227 26.8125 Q78.1445 26.25 78.1445 25.2656 Q78.1445 24.2969 77.7227 23.7266 Q77.3008 23.1562 76.582 23.1562 ZM76.582 22.4062 Q77.7539 22.4062 78.4258 23.1641 Q79.0977 23.9219 79.0977 25.2656 Q79.0977 26.6094 78.4258 27.375 Q77.7539 28.1406 76.582 28.1406 Q75.4102 28.1406 74.7383 27.375 Q74.0664 26.6094 74.0664 25.2656 Q74.0664 23.9219 74.7383 23.1641 Q75.4102 22.4062 76.582 22.4062 ZM84.8408 23.5781 Q85.1689 22.9688 85.6377 22.6875 Q86.1064 22.4062 86.7471 22.4062 Q87.6064 22.4062 88.0674 23 Q88.5283 23.5938 88.5283 24.7031 L88.5283 28 L87.6221 28 L87.6221 24.7344 Q87.6221 23.9375 87.3486 23.5625 Q87.0752 23.1875 86.4971 23.1875 Q85.7939 23.1875 85.3955 23.6484 Q84.9971 24.1094 84.9971 24.9062 L84.9971 28 L84.0908 28 L84.0908 24.7344 Q84.0908 23.9375 83.8096 23.5625 Q83.5283 23.1875 82.9502 23.1875 Q82.2627 23.1875 81.8564 23.6484 Q81.4502 24.1094 81.4502 24.9062 L81.4502 28 L80.5439 28 L80.5439 22.5312 L81.4502 22.5312 L81.4502 23.375 Q81.7627 22.875 82.1924 22.6406 Q82.6221 22.4062 83.2002 22.4062 Q83.8096 22.4062 84.2236 22.7031 Q84.6377 23 84.8408 23.5781 ZM92.4414 23.1562 Q91.7227 23.1562 91.3008 23.7188 Q90.8789 24.2812 90.8789 25.2656 Q90.8789 26.25 91.293 26.8125 Q91.707 27.375 92.4414 27.375 Q93.1602 27.375 93.582 26.8125 Q94.0039 26.25 94.0039 25.2656 Q94.0039 24.2969 93.582 23.7266 Q93.1602 23.1562 92.4414 23.1562 ZM92.4414 22.4062 Q93.6133 22.4062 94.2852 23.1641 Q94.957 23.9219 94.957 25.2656 Q94.957 26.6094 94.2852 27.375 Q93.6133 28.1406 92.4414 28.1406 Q91.2695 28.1406 90.5977 27.375 Q89.9258 26.6094 89.9258 25.2656 Q89.9258 23.9219 90.5977 23.1641 Q91.2695 22.4062 92.4414 22.4062 ZM103.0977 22.6875 L103.0977 23.5469 Q102.7227 23.3438 102.3164 23.25 Q101.9102 23.1562 101.457 23.1562 Q100.8008 23.1562 100.4648 23.3594 Q100.1289 23.5625 100.1289 23.9688 Q100.1289 24.2812 100.3633 24.4609 Q100.5977 24.6406 101.332 24.7969 L101.6289 24.875 Q102.5977 25.0781 102.9961 25.4531 Q103.3945 25.8281 103.3945 26.4844 Q103.3945 27.25 102.793 27.6953 Q102.1914 28.1406 101.1445 28.1406 Q100.6914 28.1406 100.2148 28.0547 Q99.7383 27.9688 99.2227 27.7969 L99.2227 26.875 Q99.7227 27.125 100.1992 27.2578 Q100.6758 27.3906 101.1602 27.3906 Q101.7852 27.3906 102.1289 27.1719 Q102.4727 26.9531 102.4727 26.5625 Q102.4727 26.1875 102.2305 25.9922 Q101.9883 25.7969 101.1445 25.625 L100.832 25.5469 Q100.0039 25.375 99.6289 25.0078 Q99.2539 24.6406 99.2539 24.0156 Q99.2539 23.2344 99.8008 22.8203 Q100.3477 22.4062 101.3633 22.4062 Q101.8477 22.4062 102.293 22.4766 Q102.7383 22.5469 103.0977 22.6875 ZM107.3076 25.25 Q106.2295 25.25 105.8076 25.5 Q105.3857 25.75 105.3857 26.3438 Q105.3857 26.8281 105.6982 27.1094 Q106.0107 27.3906 106.5576 27.3906 Q107.3076 27.3906 107.7607 26.8594 Q108.2139 26.3281 108.2139 25.4531 L108.2139 25.25 L107.3076 25.25 ZM109.1045 24.875 L109.1045 28 L108.2139 28 L108.2139 27.1719 Q107.9014 27.6719 107.4404 27.9062 Q106.9795 28.1406 106.3232 28.1406 Q105.4795 28.1406 104.9795 27.6719 Q104.4795 27.2031 104.4795 26.4062 Q104.4795 25.4844 105.1045 25.0156 Q105.7295 24.5469 106.9482 24.5469 L108.2139 24.5469 L108.2139 24.4531 Q108.2139 23.8438 107.7998 23.5 Q107.3857 23.1562 106.6514 23.1562 Q106.1826 23.1562 105.7373 23.2734 Q105.292 23.3906 104.8857 23.6094 L104.8857 22.7812 Q105.3857 22.5938 105.8467 22.5 Q106.3076 22.4062 106.7451 22.4062 Q107.9326 22.4062 108.5186 23.0156 Q109.1045 23.625 109.1045 24.875 ZM111.8262 27.1719 L111.8262 30.0781 L110.9199 30.0781 L110.9199 22.5312 L111.8262 22.5312 L111.8262 23.3594 Q112.1074 22.875 112.5371 22.6406 Q112.9668 22.4062 113.5762 22.4062 Q114.5762 22.4062 115.1934 23.1953 Q115.8105 23.9844 115.8105 25.2656 Q115.8105 26.5625 115.1934 27.3516 Q114.5762 28.1406 113.5762 28.1406 Q112.9668 28.1406 112.5371 27.9062 Q112.1074 27.6719 111.8262 27.1719 ZM114.8887 25.2656 Q114.8887 24.2812 114.4746 23.7188 Q114.0605 23.1562 113.3574 23.1562 Q112.6387 23.1562 112.2324 23.7188 Q111.8262 24.2812 111.8262 25.2656 Q111.8262 26.2656 112.2324 26.8281 Q112.6387 27.3906 113.3574 27.3906 Q114.0605 27.3906 114.4746 26.8281 Q114.8887 26.2656 114.8887 25.2656 ZM117.2988 22.5312 L118.2051 22.5312 L118.2051 28 L117.2988 28 L117.2988 22.5312 ZM117.2988 20.4062 L118.2051 20.4062 L118.2051 21.5469 L117.2988 21.5469 L117.2988 20.4062 ZM124.7646 25.0469 L124.7646 25.4844 L120.624 25.4844 Q120.6865 26.4062 121.1865 26.8906 Q121.6865 27.375 122.5771 27.375 Q123.0928 27.375 123.585 27.25 Q124.0771 27.125 124.5459 26.875 L124.5459 27.7188 Q124.0615 27.9219 123.5537 28.0312 Q123.0459 28.1406 122.5303 28.1406 Q121.2178 28.1406 120.4521 27.3828 Q119.6865 26.625 119.6865 25.3125 Q119.6865 23.9688 120.4131 23.1875 Q121.1396 22.4062 122.374 22.4062 Q123.4834 22.4062 124.124 23.1094 Q124.7646 23.8125 124.7646 25.0469 ZM123.8584 24.7812 Q123.8584 24.0469 123.4521 23.6016 Q123.0459 23.1562 122.3896 23.1562 Q121.624 23.1562 121.1787 23.5859 Q120.7334 24.0156 120.6553 24.7812 L123.8584 24.7812 ZM130.7764 24.7031 L130.7764 28 L129.8857 28 L129.8857 24.7344 Q129.8857 23.9531 129.5811 23.5703 Q129.2764 23.1875 128.667 23.1875 Q127.9482 23.1875 127.5264 23.6484 Q127.1045 24.1094 127.1045 24.9062 L127.1045 28 L126.1982 28 L126.1982 22.5312 L127.1045 22.5312 L127.1045 23.375 Q127.4326 22.8906 127.8701 22.6484 Q128.3076 22.4062 128.8701 22.4062 Q129.8076 22.4062 130.292 22.9844 Q130.7764 23.5625 130.7764 24.7031 ZM136.0518 22.6875 L136.0518 23.5469 Q135.6768 23.3438 135.2705 23.25 Q134.8643 23.1562 134.4111 23.1562 Q133.7549 23.1562 133.4189 23.3594 Q133.083 23.5625 133.083 23.9688 Q133.083 24.2812 133.3174 24.4609 Q133.5518 24.6406 134.2861 24.7969 L134.583 24.875 Q135.5518 25.0781 135.9502 25.4531 Q136.3486 25.8281 136.3486 26.4844 Q136.3486 27.25 135.7471 27.6953 Q135.1455 28.1406 134.0986 28.1406 Q133.6455 28.1406 133.1689 28.0547 Q132.6924 27.9688 132.1768 27.7969 L132.1768 26.875 Q132.6768 27.125 133.1533 27.2578 Q133.6299 27.3906 134.1143 27.3906 Q134.7393 27.3906 135.083 27.1719 Q135.4268 26.9531 135.4268 26.5625 Q135.4268 26.1875 135.1846 25.9922 Q134.9424 25.7969 134.0986 25.625 L133.7861 25.5469 Q132.958 25.375 132.583 25.0078 Q132.208 24.6406 132.208 24.0156 Q132.208 23.2344 132.7549 22.8203 Q133.3018 22.4062 134.3174 22.4062 Q134.8018 22.4062 135.2471 22.4766 Q135.6924 22.5469 136.0518 22.6875 Z"
         style="clip-path:url(#clipPath2); stroke:none;"
         clip-path="url(#clipPath2)"
         id="path143" />
    </g>
    <g
       style="fill:navy; text-rendering:geometricPrecision; font-size:8; stroke:navy;"
       id="g149">
      <text
         x="344"
         xml:space="preserve"
         y="16"
         style="clip-path:url(#clipPath4); stroke:none;"
         clip-path="url(#clipPath4)"
         id="text147">1</text>
    </g>
    <g
       style="text-rendering:geometricPrecision;"
       id="g157">
      <path
         d="M546.5 266.5 L570.2759 297.9182"
         style="fill:none; clip-path:url(#clipPath5);"
         clip-path="url(#clipPath5)"
         id="path151" />
      <path
         d="M577.5323 292.4268 L578.3168 293.4635 L562.7673 305.2306 L561.9828 304.194 L577.5323 292.4268 Z"
         style="fill:white; clip-path:url(#clipPath5); stroke:none;"
         clip-path="url(#clipPath5)"
         id="path153" />
      <path
         d="M577.5323 292.4268 L578.3168 293.4635 L562.7673 305.2306 L561.9828 304.194 L577.5323 292.4268 Z"
         style="fill:none; clip-path:url(#clipPath5);"
         clip-path="url(#clipPath5)"
         id="path155" />
    </g>
    <g
       style="stroke-dasharray:4,4; text-rendering:geometricPrecision;"
       id="g163">
      <path
         d="M378.8092 144.9255 L316.5 144.9255 M316.5 144.9255 L316.5 228.5"
         style="fill:none; clip-path:url(#clipPath6);"
         clip-path="url(#clipPath6)"
         id="path159" />
      <path
         d="M316.5 223.3 L306.1 223.3 L306.1 233.7 L300.9 233.7 L306.1 245.4 L311.3 233.7 L306.1 233.7"
         style="fill:none; stroke-dasharray:none; clip-path:url(#clipPath6);"
         clip-path="url(#clipPath6)"
         id="path161" />
    </g>
    <g
       style="text-rendering:geometricPrecision;"
       id="g169">
      <path
         d="M83.5773 251.1932 L135.9257 228.2998"
         style="fill:none; clip-path:url(#clipPath7);"
         clip-path="url(#clipPath7)"
         id="path165" />
      <path
         d="M135.9257 228.2998 L123.1224 228.2235 L127.2895 237.7522 Z"
         style="clip-path:url(#clipPath7); fill-rule:evenodd; stroke:none;"
         clip-path="url(#clipPath7)"
         id="path167" />
    </g>
    <g
       style="text-rendering:geometricPrecision;"
       id="g175">
      <path
         d="M316.5 266.5 L316.5 326.5"
         style="fill:none; clip-path:url(#clipPath8);"
         clip-path="url(#clipPath8)"
         id="path171" />
      <path
         d="M316.5 326.5 L321.7 314.8 L311.3 314.8 Z"
         style="clip-path:url(#clipPath8); fill-rule:evenodd; stroke:none;"
         clip-path="url(#clipPath8)"
         id="path173" />
    </g>
    <g
       style="text-rendering:geometricPrecision;"
       id="g181">
      <path
         d="M347 254 L497 254"
         style="fill:none; clip-path:url(#clipPath9);"
         clip-path="url(#clipPath9)"
         id="path177" />
      <path
         d="M497 254 L485.3 248.8 L485.3 259.2 Z"
         style="clip-path:url(#clipPath9); fill-rule:evenodd; stroke:none;"
         clip-path="url(#clipPath9)"
         id="path179" />
    </g>
    <g
       style="text-rendering:geometricPrecision;"
       id="g187">
      <path
         d="M316.5 392.5 L316 469.5521"
         style="fill:none; clip-path:url(#clipPath10);"
         clip-path="url(#clipPath10)"
         id="path183" />
      <path
         d="M316 469.5521 L321.2758 457.8861 L310.876 457.8186 Z"
         style="clip-path:url(#clipPath10); fill-rule:evenodd; stroke:none;"
         clip-path="url(#clipPath10)"
         id="path185" />
    </g>
    <g
       style="text-rendering:geometricPrecision;"
       id="g193">
      <path
         d="M574.5 394.5 L575.002 472.5421"
         style="fill:none; clip-path:url(#clipPath11);"
         clip-path="url(#clipPath11)"
         id="path189" />
      <path
         d="M575.002 472.5421 L580.1266 460.8089 L569.7269 460.8758 Z"
         style="clip-path:url(#clipPath11); fill-rule:evenodd; stroke:none;"
         clip-path="url(#clipPath11)"
         id="path191" />
    </g>
    <g
       style="text-rendering:geometricPrecision;"
       id="g199">
      <path
         d="M513.5 266.5 L478.5 302.5"
         style="fill:none; clip-path:url(#clipPath12);"
         clip-path="url(#clipPath12)"
         id="path195" />
      <path
         d="M478.5 302.5 L490.3842 297.736 L482.9274 290.4864 Z"
         style="clip-path:url(#clipPath12); fill-rule:evenodd; stroke:none;"
         clip-path="url(#clipPath12)"
         id="path197" />
    </g>
    <g
       style="text-rendering:geometricPrecision;"
       id="g205">
      <path
         d="M160.4398 294.362 L160.982 399.5321"
         style="fill:none; clip-path:url(#clipPath13);"
         clip-path="url(#clipPath13)"
         id="path201" />
      <path
         d="M160.982 399.5321 L166.1216 387.8054 L155.7217 387.859 Z"
         style="clip-path:url(#clipPath13); fill-rule:evenodd; stroke:none;"
         clip-path="url(#clipPath13)"
         id="path203" />
    </g>
    <g
       style="text-rendering:geometricPrecision;"
       id="g213">
      <path
         d="M175.5802 144.5458 L108.6252 144.5458 M108.6252 144.5458 L108.6252 230.239"
         style="fill:none; clip-path:url(#clipPath14);"
         clip-path="url(#clipPath14)"
         id="path207" />
      <path
         d="M108.6252 240.6391 C105.7534 240.6391 103.4252 238.3109 103.4252 235.439 C103.4252 232.5672 105.7534 230.239 108.6252 230.239 C111.4971 230.239 113.8252 232.5672 113.8252 235.439 C113.8252 238.3109 111.4971 240.6391 108.6252 240.6391 Z"
         style="fill:white; clip-path:url(#clipPath14); stroke:none;"
         clip-path="url(#clipPath14)"
         id="path209" />
      <path
         d="M108.6252 240.6391 C105.7534 240.6391 103.4252 238.3109 103.4252 235.439 C103.4252 232.5672 105.7534 230.239 108.6252 230.239 C111.4971 230.239 113.8252 232.5672 113.8252 235.439 C113.8252 238.3109 111.4971 240.6391 108.6252 240.6391 Z"
         style="fill:none; clip-path:url(#clipPath14);"
         clip-path="url(#clipPath14)"
         id="path211" />
    </g>
    <g
       style="text-rendering:geometricPrecision;"
       id="g219">
      <path
         d="M478.5 393.5 L361 475.8021"
         style="fill:none; clip-path:url(#clipPath15);"
         clip-path="url(#clipPath15)"
         id="path215" />
      <path
         d="M361 475.8021 L373.5663 473.3488 L367.5997 464.8306 Z"
         style="clip-path:url(#clipPath15); fill-rule:evenodd; stroke:none;"
         clip-path="url(#clipPath15)"
         id="path217" />
    </g>
    <g
       style="text-rendering:geometricPrecision;"
       id="g225">
      <path
         d="M83.5773 251.1932 L129.9398 275.612"
         style="fill:none; clip-path:url(#clipPath16);"
         clip-path="url(#clipPath16)"
         id="path221" />
      <path
         d="M129.9398 275.612 L122.0111 265.5589 L117.1646 274.7606 Z"
         style="clip-path:url(#clipPath16); fill-rule:evenodd; stroke:none;"
         clip-path="url(#clipPath16)"
         id="path223" />
    </g>
    <g
       style="text-rendering:geometricPrecision;"
       id="g231">
      <path
         d="M183.482 424.5321 L271 475.8021"
         style="fill:none; clip-path:url(#clipPath17);"
         clip-path="url(#clipPath17)"
         id="path227" />
      <path
         d="M271 475.8021 L263.5332 465.4013 L258.2763 474.3748 Z"
         style="clip-path:url(#clipPath17); fill-rule:evenodd; stroke:none;"
         clip-path="url(#clipPath17)"
         id="path229" />
    </g>
    <g
       style="font-weight:bold; text-rendering:geometricPrecision;"
       id="g235">
      <text
         x="277"
         xml:space="preserve"
         y="486"
         style="clip-path:url(#clipPath18); stroke:none;"
         clip-path="url(#clipPath18)"
         id="text233">CRC growth</text>
    </g>
    <g
       style="fill:white; text-rendering:geometricPrecision; stroke:white;"
       id="g243">
      <path
         d="M413.8092 119.9255 L482.8092 119.9255 L482.8092 144.9255 L413.8092 144.9255 L413.8092 119.9255 Z"
         style="clip-path:url(#clipPath19); stroke:none;"
         clip-path="url(#clipPath19)"
         id="path237" />
      <path
         d="M413.8092 119.9255 L482.8092 119.9255 L482.8092 144.9255 L413.8092 144.9255 L413.8092 119.9255 Z"
         style="fill:none; clip-path:url(#clipPath19); stroke:black;"
         clip-path="url(#clipPath19)"
         id="path239" />
      <text
         x="417"
         y="136"
         style="fill:black; clip-path:url(#clipPath19); stroke:none;"
         xml:space="preserve"
         clip-path="url(#clipPath19)"
         id="text241">macroH2A</text>
    </g>
    <g
       style="fill:white; text-rendering:geometricPrecision; stroke:white;"
       id="g251">
      <path
         d="M191.5802 119.5458 L236.5802 119.5458 L236.5802 144.5458 L191.5802 144.5458 L191.5802 119.5458 Z"
         style="clip-path:url(#clipPath20); stroke:none;"
         clip-path="url(#clipPath20)"
         id="path245" />
      <path
         d="M191.5802 119.5458 L236.5802 119.5458 L236.5802 144.5458 L191.5802 144.5458 L191.5802 119.5458 Z"
         style="fill:none; clip-path:url(#clipPath20); stroke:black;"
         clip-path="url(#clipPath20)"
         id="path247" />
      <text
         x="198"
         y="136"
         style="fill:black; clip-path:url(#clipPath20); stroke:none;"
         xml:space="preserve"
         clip-path="url(#clipPath20)"
         id="text249">CDK4</text>
    </g>
    <g
       style="fill:white; text-rendering:geometricPrecision; stroke:white;"
       id="g259">
      <path
         d="M386.8092 144.9255 L444.8092 144.9255 L444.8092 169.9255 L386.8092 169.9255 L386.8092 144.9255 Z"
         style="clip-path:url(#clipPath21); stroke:none;"
         clip-path="url(#clipPath21)"
         id="path253" />
      <path
         d="M386.8092 144.9255 L444.8092 144.9255 L444.8092 169.9255 L386.8092 169.9255 L386.8092 144.9255 Z"
         style="fill:none; clip-path:url(#clipPath21); stroke:rgb(153,0,153);"
         clip-path="url(#clipPath21)"
         id="path255" />
      <text
         x="403"
         y="161"
         style="fill:rgb(153,0,153); clip-path:url(#clipPath21); stroke:none;"
         xml:space="preserve"
         clip-path="url(#clipPath21)"
         id="text257">H19</text>
    </g>
    <g
       style="fill:white; text-rendering:geometricPrecision; stroke:white;"
       id="g267">
      <path
         d="M115.982 409.5321 L115.982 414.5321 C115.982 420.0549 120.4591 424.5321 125.982 424.5321 L195.982 424.5321 C201.5048 424.5321 205.982 420.0549 205.982 414.5321 L205.982 409.5321 C205.982 404.0092 201.5048 399.5321 195.982 399.5321 L125.982 399.5321 C120.4591 399.5321 115.982 404.0092 115.982 409.5321 Z"
         style="clip-path:url(#clipPath22); stroke:none;"
         clip-path="url(#clipPath22)"
         id="path261" />
      <path
         d="M115.982 409.5321 L115.982 414.5321 C115.982 420.0549 120.4591 424.5321 125.982 424.5321 L195.982 424.5321 C201.5048 424.5321 205.982 420.0549 205.982 414.5321 L205.982 409.5321 C205.982 404.0092 201.5048 399.5321 195.982 399.5321 L125.982 399.5321 C120.4591 399.5321 115.982 404.0092 115.982 409.5321 Z"
         style="fill:none; clip-path:url(#clipPath22); stroke:rgb(20,150,30);"
         clip-path="url(#clipPath22)"
         id="path263" />
      <text
         x="109"
         y="416"
         style="clip-path:url(#clipPath22); fill:rgb(20,150,30); stroke:none; font-weight:bold;"
         xml:space="preserve"
         clip-path="url(#clipPath22)"
         id="text265">G1-S transition</text>
    </g>
    <g
       style="fill:white; text-rendering:geometricPrecision; stroke:white;"
       id="g275">
      <path
         d="M497 241.5 L563 241.5 L563 266.5 L497 266.5 L497 241.5 Z"
         style="clip-path:url(#clipPath23); stroke:none;"
         clip-path="url(#clipPath23)"
         id="path269" />
      <path
         d="M497 241.5 L563 241.5 L563 266.5 L497 266.5 L497 241.5 Z"
         style="fill:none; clip-path:url(#clipPath23); stroke:black;"
         clip-path="url(#clipPath23)"
         id="path271" />
      <text
         x="506"
         y="258"
         style="fill:black; clip-path:url(#clipPath23); stroke:none;"
         xml:space="preserve"
         clip-path="url(#clipPath23)"
         id="text273">CTNNB1</text>
    </g>
    <g
       style="fill:white; text-rendering:geometricPrecision; stroke:white;"
       id="g283">
      <path
         d="M183.5802 144.5458 L244.5802 144.5458 L244.5802 169.5458 L183.5802 169.5458 L183.5802 144.5458 Z"
         style="clip-path:url(#clipPath24); stroke:none;"
         clip-path="url(#clipPath24)"
         id="path277" />
      <path
         d="M183.5802 144.5458 L244.5802 144.5458 L244.5802 169.5458 L183.5802 169.5458 L183.5802 144.5458 Z"
         style="fill:none; clip-path:url(#clipPath24); stroke:black;"
         clip-path="url(#clipPath24)"
         id="path279" />
      <text
         x="193"
         y="161"
         style="fill:black; clip-path:url(#clipPath24); stroke:none;"
         xml:space="preserve"
         clip-path="url(#clipPath24)"
         id="text281">CCND1</text>
    </g>
    <g
       style="fill:white; text-rendering:geometricPrecision; stroke:white;"
       id="g291">
      <path
         d="M129.9398 269.362 L190.9398 269.362 L190.9398 294.362 L129.9398 294.362 L129.9398 269.362 Z"
         style="clip-path:url(#clipPath25); stroke:none;"
         clip-path="url(#clipPath25)"
         id="path285" />
      <path
         d="M129.9398 269.362 L190.9398 269.362 L190.9398 294.362 L129.9398 294.362 L129.9398 269.362 Z"
         style="fill:none; clip-path:url(#clipPath25); stroke:black;"
         clip-path="url(#clipPath25)"
         id="path287" />
      <text
         x="146"
         y="286"
         style="fill:black; clip-path:url(#clipPath25); stroke:none;"
         xml:space="preserve"
         clip-path="url(#clipPath25)"
         id="text289">E2F1</text>
    </g>
    <g
       style="fill:white; text-rendering:geometricPrecision; stroke:white;"
       id="g299">
      <path
         d="M286 241.5 L347 241.5 L347 266.5 L286 266.5 L286 241.5 Z"
         style="clip-path:url(#clipPath26); stroke:none;"
         clip-path="url(#clipPath26)"
         id="path293" />
      <path
         d="M286 241.5 L347 241.5 L347 266.5 L286 266.5 L286 241.5 Z"
         style="fill:none; clip-path:url(#clipPath26); stroke:black;"
         clip-path="url(#clipPath26)"
         id="path295" />
      <text
         x="300"
         y="258"
         style="fill:black; clip-path:url(#clipPath26); stroke:none;"
         xml:space="preserve"
         clip-path="url(#clipPath26)"
         id="text297">CDK8</text>
    </g>
    <g
       style="fill:white; text-rendering:geometricPrecision; stroke:white;"
       id="g307">
      <path
         d="M303 334.5 L364 334.5 L364 359.5 L303 359.5 L303 334.5 Z"
         style="clip-path:url(#clipPath27); stroke:none;"
         clip-path="url(#clipPath27)"
         id="path301" />
      <path
         d="M303 334.5 L364 334.5 L364 359.5 L303 359.5 L303 334.5 Z"
         style="fill:none; clip-path:url(#clipPath27); stroke:black;"
         clip-path="url(#clipPath27)"
         id="path303" />
      <text
         x="317"
         y="351"
         style="fill:black; clip-path:url(#clipPath27); stroke:none;"
         xml:space="preserve"
         clip-path="url(#clipPath27)"
         id="text305">CDK8</text>
    </g>
    <g
       style="fill:white; text-rendering:geometricPrecision; stroke:white;"
       id="g315">
      <path
         d="M269 359.5 L330 359.5 L330 384.5 L269 384.5 L269 359.5 Z"
         style="clip-path:url(#clipPath28); stroke:none;"
         clip-path="url(#clipPath28)"
         id="path309" />
      <path
         d="M269 359.5 L330 359.5 L330 384.5 L269 384.5 L269 359.5 Z"
         style="fill:none; clip-path:url(#clipPath28); stroke:black;"
         clip-path="url(#clipPath28)"
         id="path311" />
      <text
         x="282"
         y="376"
         style="fill:black; clip-path:url(#clipPath28); stroke:none;"
         xml:space="preserve"
         clip-path="url(#clipPath28)"
         id="text313">MED1</text>
    </g>
    <g
       style="fill:white; text-rendering:geometricPrecision; stroke:white;"
       id="g323">
      <path
         d="M448 310.5 L509 310.5 L509 335.5 L448 335.5 L448 310.5 Z"
         style="clip-path:url(#clipPath29); stroke:none;"
         clip-path="url(#clipPath29)"
         id="path317" />
      <path
         d="M448 310.5 L509 310.5 L509 335.5 L448 335.5 L448 310.5 Z"
         style="fill:none; clip-path:url(#clipPath29); stroke:black;"
         clip-path="url(#clipPath29)"
         id="path319" />
      <text
         x="459"
         y="327"
         style="fill:black; clip-path:url(#clipPath29); stroke:none;"
         xml:space="preserve"
         clip-path="url(#clipPath29)"
         id="text321">CSRP2</text>
    </g>
    <g
       style="fill:white; text-rendering:geometricPrecision; stroke:white;"
       id="g331">
      <path
         d="M448 335.5 L509 335.5 L509 360.5 L448 360.5 L448 335.5 Z"
         style="clip-path:url(#clipPath30); stroke:none;"
         clip-path="url(#clipPath30)"
         id="path325" />
      <path
         d="M448 335.5 L509 335.5 L509 360.5 L448 360.5 L448 335.5 Z"
         style="fill:none; clip-path:url(#clipPath30); stroke:black;"
         clip-path="url(#clipPath30)"
         id="path327" />
      <text
         x="464"
         y="352"
         style="fill:black; clip-path:url(#clipPath30); stroke:none;"
         xml:space="preserve"
         clip-path="url(#clipPath30)"
         id="text329">JAG1</text>
    </g>
    <g
       style="fill:white; text-rendering:geometricPrecision; stroke:white;"
       id="g339">
      <path
         d="M448 360.5 L509 360.5 L509 385.5 L448 385.5 L448 360.5 Z"
         style="clip-path:url(#clipPath31); stroke:none;"
         clip-path="url(#clipPath31)"
         id="path333" />
      <path
         d="M448 360.5 L509 360.5 L509 385.5 L448 385.5 L448 360.5 Z"
         style="fill:none; clip-path:url(#clipPath31); stroke:black;"
         clip-path="url(#clipPath31)"
         id="path335" />
      <text
         x="462"
         y="377"
         style="fill:black; clip-path:url(#clipPath31); stroke:none;"
         xml:space="preserve"
         clip-path="url(#clipPath31)"
         id="text337">SOX4</text>
    </g>
    <g
       style="fill:white; text-rendering:geometricPrecision; stroke:white;"
       id="g347">
      <path
         d="M544 311.5 L605 311.5 L605 336.5 L544 336.5 L544 311.5 Z"
         style="clip-path:url(#clipPath32); stroke:none;"
         clip-path="url(#clipPath32)"
         id="path341" />
      <path
         d="M544 311.5 L605 311.5 L605 336.5 L544 336.5 L544 311.5 Z"
         style="fill:none; clip-path:url(#clipPath32); stroke:black;"
         clip-path="url(#clipPath32)"
         id="path343" />
      <text
         x="557"
         y="328"
         style="fill:black; clip-path:url(#clipPath32); stroke:none;"
         xml:space="preserve"
         clip-path="url(#clipPath32)"
         id="text345">CDH1</text>
    </g>
    <g
       style="fill:white; text-rendering:geometricPrecision; stroke:white;"
       id="g355">
      <path
         d="M544 336.5 L605 336.5 L605 361.5 L544 361.5 L544 336.5 Z"
         style="clip-path:url(#clipPath33); stroke:none;"
         clip-path="url(#clipPath33)"
         id="path349" />
      <path
         d="M544 336.5 L605 336.5 L605 361.5 L544 361.5 L544 336.5 Z"
         style="fill:none; clip-path:url(#clipPath33); stroke:black;"
         clip-path="url(#clipPath33)"
         id="path351" />
      <text
         x="556"
         y="353"
         style="fill:black; clip-path:url(#clipPath33); stroke:none;"
         xml:space="preserve"
         clip-path="url(#clipPath33)"
         id="text353">TULP3</text>
    </g>
    <g
       style="fill:white; text-rendering:geometricPrecision; stroke:white;"
       id="g363">
      <path
         d="M544 361.5 L605 361.5 L605 386.5 L544 386.5 L544 361.5 Z"
         style="clip-path:url(#clipPath34); stroke:none;"
         clip-path="url(#clipPath34)"
         id="path357" />
      <path
         d="M544 361.5 L605 361.5 L605 386.5 L544 386.5 L544 361.5 Z"
         style="fill:none; clip-path:url(#clipPath34); stroke:black;"
         clip-path="url(#clipPath34)"
         id="path359" />
      <text
         x="552"
         y="378"
         style="fill:black; clip-path:url(#clipPath34); stroke:none;"
         xml:space="preserve"
         clip-path="url(#clipPath34)"
         id="text361">PMAIP1</text>
    </g>
    <g
       style="fill:white; text-rendering:geometricPrecision; stroke:white;"
       id="g371">
      <path
         d="M135.9257 215.7998 L181.9257 215.7998 L181.9257 240.7998 L135.9257 240.7998 L135.9257 215.7998 Z"
         style="clip-path:url(#clipPath35); stroke:none;"
         clip-path="url(#clipPath35)"
         id="path365" />
      <path
         d="M135.9257 215.7998 L181.9257 215.7998 L181.9257 240.7998 L135.9257 240.7998 L135.9257 215.7998 Z"
         style="fill:none; clip-path:url(#clipPath35); stroke:black;"
         clip-path="url(#clipPath35)"
         id="path367" />
      <text
         x="146"
         y="232"
         style="fill:black; clip-path:url(#clipPath35); stroke:none;"
         xml:space="preserve"
         clip-path="url(#clipPath35)"
         id="text369">RB1</text>
    </g>
    <g
       style="fill:white; text-rendering:geometricPrecision; stroke:white;"
       id="g379">
      <path
         d="M189.4257 217.7998 C189.4257 221.9419 186.0678 225.2998 181.9257 225.2998 C177.7835 225.2998 174.4257 221.9419 174.4257 217.7998 C174.4257 213.6577 177.7835 210.2998 181.9257 210.2998 C186.0678 210.2998 189.4257 213.6577 189.4257 217.7998 Z"
         style="clip-path:url(#clipPath36); stroke:none;"
         clip-path="url(#clipPath36)"
         id="path373" />
      <path
         d="M189.4257 217.7998 C189.4257 221.9419 186.0678 225.2998 181.9257 225.2998 C177.7835 225.2998 174.4257 221.9419 174.4257 217.7998 C174.4257 213.6577 177.7835 210.2998 181.9257 210.2998 C186.0678 210.2998 189.4257 213.6577 189.4257 217.7998 Z"
         style="fill:none; clip-path:url(#clipPath36); stroke:black;"
         clip-path="url(#clipPath36)"
         id="path375" />
      <text
         x="179"
         y="221"
         style="font-size:10; clip-path:url(#clipPath36); fill:black; stroke:none;"
         xml:space="preserve"
         clip-path="url(#clipPath36)"
         id="text377">P</text>
    </g>
    <g
       style="font-weight:bold; text-rendering:geometricPrecision;"
       id="g383">
      <text
         x="527"
         xml:space="preserve"
         y="489"
         style="clip-path:url(#clipPath37); stroke:none;"
         clip-path="url(#clipPath37)"
         id="text381">CRC migration</text>
    </g>
    <g
       style="stroke-dasharray:4,4; text-rendering:geometricPrecision;"
       id="g389">
      <path
         d="M378.8092 144.9255 L265.5801 144.5849"
         style="fill:none; clip-path:url(#clipPath38);"
         clip-path="url(#clipPath38)"
         id="path385" />
      <path
         d="M270.7801 144.6005 L270.8113 134.2006 L260.4114 134.1693 L260.427 128.9693 L248.7115 134.1341 L260.3958 139.3693 L260.4114 134.1693"
         style="fill:none; stroke-dasharray:none; clip-path:url(#clipPath38);"
         clip-path="url(#clipPath38)"
         id="path387" />
    </g>
    <g
       style="fill:white; text-rendering:geometricPrecision; stroke:white;"
       id="g397">
      <path
         d="M14.5773 251.1932 L75.5773 251.1932 L75.5773 276.1932 L14.5773 276.1932 L14.5773 251.1932 Z"
         style="clip-path:url(#clipPath39); stroke:none;"
         clip-path="url(#clipPath39)"
         id="path391" />
      <path
         d="M14.5773 251.1932 L75.5773 251.1932 L75.5773 276.1932 L14.5773 276.1932 L14.5773 251.1932 Z"
         style="fill:none; clip-path:url(#clipPath39); stroke:black;"
         clip-path="url(#clipPath39)"
         id="path393" />
      <text
         x="31"
         y="268"
         style="fill:black; clip-path:url(#clipPath39); stroke:none;"
         xml:space="preserve"
         clip-path="url(#clipPath39)"
         id="text395">E2F1</text>
    </g>
    <g
       style="fill:white; text-rendering:geometricPrecision; stroke:white;"
       id="g405">
      <path
         d="M22.0773 226.1932 L68.0773 226.1932 L68.0773 251.1932 L22.0773 251.1932 L22.0773 226.1932 Z"
         style="clip-path:url(#clipPath40); stroke:none;"
         clip-path="url(#clipPath40)"
         id="path399" />
      <path
         d="M22.0773 226.1932 L68.0773 226.1932 L68.0773 251.1932 L22.0773 251.1932 L22.0773 226.1932 Z"
         style="fill:none; clip-path:url(#clipPath40); stroke:black;"
         clip-path="url(#clipPath40)"
         id="path401" />
      <text
         x="33"
         y="243"
         style="fill:black; clip-path:url(#clipPath40); stroke:none;"
         xml:space="preserve"
         clip-path="url(#clipPath40)"
         id="text403">RB1</text>
    </g>
    <g
       style="text-rendering:geometricPrecision;"
       id="g411">
      <path
         d="M574.5 394.5 L361 475.8021"
         style="fill:none; clip-path:url(#clipPath41);"
         clip-path="url(#clipPath41)"
         id="path407" />
      <path
         d="M361 475.8021 L373.7846 476.4979 L370.0835 466.7788 Z"
         style="clip-path:url(#clipPath41); fill-rule:evenodd; stroke:none;"
         clip-path="url(#clipPath41)"
         id="path409" />
    </g>
    <g
       style="text-rendering:geometricPrecision;"
       id="g417">
      <path
         d="M478.5 393.5 L575.002 472.5421"
         style="fill:none; clip-path:url(#clipPath42);"
         clip-path="url(#clipPath42)"
         id="path413" />
      <path
         d="M575.002 472.5421 L569.2456 461.1056 L562.6557 469.1512 Z"
         style="clip-path:url(#clipPath42); fill-rule:evenodd; stroke:none;"
         clip-path="url(#clipPath42)"
         id="path415" />
    </g>
    <g
       style="text-rendering:geometricPrecision;"
       id="g423">
      <path
         d="M301.25 266.5 L183.482 399.5321"
         style="fill:none; clip-path:url(#clipPath43);"
         clip-path="url(#clipPath43)"
         id="path419" />
      <path
         d="M183.482 399.5321 L195.1308 394.2184 L187.3437 387.3248 Z"
         style="clip-path:url(#clipPath43); fill-rule:evenodd; stroke:none;"
         clip-path="url(#clipPath43)"
         id="path421" />
    </g>
  </g>
</svg>
