<?xml version="1.0" encoding="UTF-8" standalone="no"?>
<svg
   style="fill-opacity:1; color-rendering:auto; color-interpolation:auto; stroke:black; text-rendering:auto; stroke-linecap:square; stroke-miterlimit:10; stroke-opacity:1; shape-rendering:auto; fill:black; stroke-dasharray:none; font-weight:normal; stroke-width:1; font-family:'Dialog'; font-style:normal; stroke-linejoin:miter; font-size:12; stroke-dashoffset:0; image-rendering:auto;"
   width="761"
   height="467"
   version="1.1"
   id="svg429"
   xmlns="http://www.w3.org/2000/svg"
   xmlns:svg="http://www.w3.org/2000/svg">
  <!--Generated by the Batik Graphics2D SVG Generator-->
  <defs
     id="genericDefs" />
  <g
     id="g427">
    <defs
       id="defs1">
      <clipPath
         clipPathUnits="userSpaceOnUse"
         id="clipPath1">
        <path
           d="M0 0 L777 0 L777 482 L0 482 L0 0 Z"
           id="path3" />
      </clipPath>
      <clipPath
         clipPathUnits="userSpaceOnUse"
         id="clipPath2">
        <path
           d="M0 0 L0 200 L200 200 L200 0 Z"
           id="path6" />
      </clipPath>
      <clipPath
         clipPathUnits="userSpaceOnUse"
         id="clipPath3">
        <path
           d="M246 16 L246 37 L272 37 L272 16 Z"
           id="path9" />
      </clipPath>
      <clipPath
         clipPathUnits="userSpaceOnUse"
         id="clipPath4">
        <path
           d="M248.3672 3.918 L269.6328 3.918 L269.6328 19.2305 L248.3672 19.2305 L248.3672 3.918 Z"
           id="path12" />
      </clipPath>
      <clipPath
         clipPathUnits="userSpaceOnUse"
         id="clipPath5">
        <path
           d="M349.4602 180.4201 L349.4602 254.3512 L606.9086 254.3512 L606.9086 180.4201 Z"
           id="path15" />
      </clipPath>
      <clipPath
         clipPathUnits="userSpaceOnUse"
         id="clipPath6">
        <path
           d="M243.0706 90.263 L243.0706 162.7984 L283.139 162.7984 L283.139 90.263 Z"
           id="path18" />
      </clipPath>
      <clipPath
         clipPathUnits="userSpaceOnUse"
         id="clipPath7">
        <path
           d="M244.4602 183.8512 L244.4602 245.2823 L310.9296 245.2823 L310.9296 183.8512 Z"
           id="path21" />
      </clipPath>
      <clipPath
         clipPathUnits="userSpaceOnUse"
         id="clipPath8">
        <path
           d="M514.2209 288.8234 L514.2209 328.8505 L624.0762 328.8505 L624.0762 288.8234 Z"
           id="path24" />
      </clipPath>
      <clipPath
         clipPathUnits="userSpaceOnUse"
         id="clipPath9">
        <path
           d="M326.7861 90.2676 L326.7861 162.8404 L364.7709 162.8404 L364.7709 90.2676 Z"
           id="path27" />
      </clipPath>
      <clipPath
         clipPathUnits="userSpaceOnUse"
         id="clipPath10">
        <path
           d="M386.8266 352.8829 L386.8266 403.4065 L398.7654 403.4065 L398.7654 352.8829 Z"
           id="path30" />
      </clipPath>
      <clipPath
         clipPathUnits="userSpaceOnUse"
         id="clipPath11">
        <path
           d="M644.1896 90.2715 L644.1896 162.8715 L680.6095 162.8715 L680.6095 90.2715 Z"
           id="path33" />
      </clipPath>
      <clipPath
         clipPathUnits="userSpaceOnUse"
         id="clipPath12">
        <path
           d="M639.9698 183.8512 L639.9698 268.3915 L651.9086 268.3915 L651.9086 183.8512 Z"
           id="path36" />
      </clipPath>
      <clipPath
         clipPathUnits="userSpaceOnUse"
         id="clipPath13">
        <path
           d="M326.9602 87.0106 L326.9602 241.8512 L500.134 241.8512 L500.134 87.0106 Z"
           id="path39" />
      </clipPath>
      <clipPath
         clipPathUnits="userSpaceOnUse"
         id="clipPath14">
        <path
           d="M341.8266 356.314 L341.8266 406.8376 L353.7654 406.8376 L353.7654 356.314 Z"
           id="path42" />
      </clipPath>
      <clipPath
         clipPathUnits="userSpaceOnUse"
         id="clipPath15">
        <path
           d="M304.2556 265.6465 L304.2556 328.8891 L378.9388 328.8891 L378.9388 265.6465 Z"
           id="path45" />
      </clipPath>
      <clipPath
         clipPathUnits="userSpaceOnUse"
         id="clipPath16">
        <path
           d="M515.9576 71.4847 L515.9576 162.1773 L603.6717 162.1773 L603.6717 71.4847 Z"
           id="path48" />
      </clipPath>
      <clipPath
         clipPathUnits="userSpaceOnUse"
         id="clipPath17">
        <path
           d="M298.9908 183.8512 L298.9908 245.2823 L363.4602 245.2823 L363.4602 183.8512 Z"
           id="path51" />
      </clipPath>
      <clipPath
         clipPathUnits="userSpaceOnUse"
         id="clipPath18">
        <path
           d="M440.9648 183.8512 L440.9648 330.2823 L623.9392 330.2823 L623.9392 183.8512 Z"
           id="path54" />
      </clipPath>
      <clipPath
         clipPathUnits="userSpaceOnUse"
         id="clipPath19">
        <path
           d="M304.4392 325.8512 L304.4392 453.3512 L589.4292 453.3512 L589.4292 325.8512 Z"
           id="path57" />
      </clipPath>
      <clipPath
         clipPathUnits="userSpaceOnUse"
         id="clipPath20">
        <path
           d="M244.179 112.2839 L244.179 138.2839 L307.179 138.2839 L307.179 112.2839 Z"
           id="path60" />
      </clipPath>
      <clipPath
         clipPathUnits="userSpaceOnUse"
         id="clipPath21">
        <path
           d="M100.9392 65.4417 L100.9392 91.4417 L191.9392 91.4417 L191.9392 65.4417 Z"
           id="path63" />
      </clipPath>
      <clipPath
         clipPathUnits="userSpaceOnUse"
         id="clipPath22">
        <path
           d="M324.796 331.314 L324.796 357.314 L415.796 357.314 L415.796 331.314 Z"
           id="path66" />
      </clipPath>
      <clipPath
         clipPathUnits="userSpaceOnUse"
         id="clipPath23">
        <path
           d="M259.4602 65.4417 L259.4602 91.4417 L350.4602 91.4417 L350.4602 65.4417 Z"
           id="path69" />
      </clipPath>
      <clipPath
         clipPathUnits="userSpaceOnUse"
         id="clipPath24">
        <path
           d="M324.796 402.4065 L324.796 428.4065 L415.796 428.4065 L415.796 402.4065 Z"
           id="path72" />
      </clipPath>
      <clipPath
         clipPathUnits="userSpaceOnUse"
         id="clipPath25">
        <path
           d="M426.1646 65.4417 L426.1646 91.4417 L517.1646 91.4417 L517.1646 65.4417 Z"
           id="path75" />
      </clipPath>
      <clipPath
         clipPathUnits="userSpaceOnUse"
         id="clipPath26">
        <path
           d="M656.9392 65.4417 L656.9392 91.4417 L747.9392 91.4417 L747.9392 65.4417 Z"
           id="path78" />
      </clipPath>
      <clipPath
         clipPathUnits="userSpaceOnUse"
         id="clipPath27">
        <path
           d="M577.9392 158.8512 L577.9392 184.8512 L668.9392 184.8512 L668.9392 158.8512 Z"
           id="path81" />
      </clipPath>
      <clipPath
         clipPathUnits="userSpaceOnUse"
         id="clipPath28">
        <path
           d="M317.4602 158.8512 L317.4602 184.8512 L408.4602 184.8512 L408.4602 158.8512 Z"
           id="path84" />
      </clipPath>
      <clipPath
         clipPathUnits="userSpaceOnUse"
         id="clipPath29">
        <path
           d="M199.4602 158.8512 L199.4602 184.8512 L290.4602 184.8512 L290.4602 158.8512 Z"
           id="path87" />
      </clipPath>
      <clipPath
         clipPathUnits="userSpaceOnUse"
         id="clipPath30">
        <path
           d="M259.4602 240.8512 L259.4602 266.8512 L350.4602 266.8512 L350.4602 240.8512 Z"
           id="path90" />
      </clipPath>
      <clipPath
         clipPathUnits="userSpaceOnUse"
         id="clipPath31">
        <path
           d="M577.9392 263.9604 L577.9392 289.9604 L668.9392 289.9604 L668.9392 263.9604 Z"
           id="path93" />
      </clipPath>
      <clipPath
         clipPathUnits="userSpaceOnUse"
         id="clipPath32">
        <path
           d="M488.9392 351.8512 L488.9392 377.8512 L579.9392 377.8512 L579.9392 351.8512 Z"
           id="path96" />
      </clipPath>
      <clipPath
         clipPathUnits="userSpaceOnUse"
         id="clipPath33">
        <path
           d="M488.9392 374.8512 L488.9392 400.8512 L579.9392 400.8512 L579.9392 374.8512 Z"
           id="path99" />
      </clipPath>
      <clipPath
         clipPathUnits="userSpaceOnUse"
         id="clipPath34">
        <path
           d="M100.9392 158.8512 L100.9392 184.8512 L191.9392 184.8512 L191.9392 158.8512 Z"
           id="path102" />
      </clipPath>
      <clipPath
         clipPathUnits="userSpaceOnUse"
         id="clipPath35">
        <path
           d="M100.9392 240.8512 L100.9392 266.8512 L191.9392 266.8512 L191.9392 240.8512 Z"
           id="path105" />
      </clipPath>
      <clipPath
         clipPathUnits="userSpaceOnUse"
         id="clipPath36">
        <path
           d="M100.9392 334.8512 L100.9392 360.8512 L191.9392 360.8512 L191.9392 334.8512 Z"
           id="path108" />
      </clipPath>
      <clipPath
         clipPathUnits="userSpaceOnUse"
         id="clipPath37">
        <path
           d="M322.138 107.6056 L322.138 133.6056 L385.138 133.6056 L385.138 107.6056 Z"
           id="path111" />
      </clipPath>
      <clipPath
         clipPathUnits="userSpaceOnUse"
         id="clipPath38">
        <path
           d="M274.0737 184.7924 L274.0737 210.7924 L337.0737 210.7924 L337.0737 184.7924 Z"
           id="path114" />
      </clipPath>
      <clipPath
         clipPathUnits="userSpaceOnUse"
         id="clipPath39">
        <path
           d="M333.8972 275.7503 L333.8972 301.7503 L396.8972 301.7503 L396.8972 275.7503 Z"
           id="path117" />
      </clipPath>
      <clipPath
         clipPathUnits="userSpaceOnUse"
         id="clipPath40">
        <path
           d="M389.9392 368.8512 L389.9392 394.8512 L452.9392 394.8512 L452.9392 368.8512 Z"
           id="path120" />
      </clipPath>
      <clipPath
         clipPathUnits="userSpaceOnUse"
         id="clipPath41">
        <path
           d="M450.9392 233.8512 L450.9392 259.8512 L513.9392 259.8512 L513.9392 233.8512 Z"
           id="path123" />
      </clipPath>
      <clipPath
         clipPathUnits="userSpaceOnUse"
         id="clipPath42">
        <path
           d="M496.998 274.8008 L496.998 300.8008 L559.998 300.8008 L559.998 274.8008 Z"
           id="path126" />
      </clipPath>
      <clipPath
         clipPathUnits="userSpaceOnUse"
         id="clipPath43">
        <path
           d="M607.8384 293.2041 L607.8384 319.2041 L670.8384 319.2041 L670.8384 293.2041 Z"
           id="path129" />
      </clipPath>
      <clipPath
         clipPathUnits="userSpaceOnUse"
         id="clipPath44">
        <path
           d="M638.8972 207.3554 L638.8972 233.3554 L701.8972 233.3554 L701.8972 207.3554 Z"
           id="path132" />
      </clipPath>
      <clipPath
         clipPathUnits="userSpaceOnUse"
         id="clipPath45">
        <path
           d="M554.179 105.8254 L554.179 131.8254 L617.179 131.8254 L617.179 105.8254 Z"
           id="path135" />
      </clipPath>
      <clipPath
         clipPathUnits="userSpaceOnUse"
         id="clipPath46">
        <path
           d="M657.8466 103.4247 L657.8466 129.4247 L720.8466 129.4247 L720.8466 103.4247 Z"
           id="path138" />
      </clipPath>
      <clipPath
         clipPathUnits="userSpaceOnUse"
         id="clipPath47">
        <path
           d="M423.0681 198.9437 L423.0681 224.9437 L486.0681 224.9437 L486.0681 198.9437 Z"
           id="path141" />
      </clipPath>
    </defs>
    <g
       style="fill:white; stroke:white;"
       id="g147">
      <rect
         x="0"
         width="777"
         height="482"
         y="0"
         style="stroke:none;"
         id="rect145" />
    </g>
    <g
       style="font-weight:bold; font-size:10; text-rendering:geometricPrecision;"
       id="g157">
      <path
         d="M0.0469 6.7031 L6.7656 6.7031 L6.7656 8.125 L4.3438 8.125 L4.3438 14 L2.4688 14 L2.4688 8.125 L0.0469 8.125 L0.0469 6.7031 ZM7.665 8.5312 L9.415 8.5312 L9.415 14 L7.665 14 L7.665 8.5312 ZM7.665 6.4062 L9.415 6.4062 L9.415 7.8281 L7.665 7.8281 L7.665 6.4062 ZM12.999 6.9844 L12.999 8.5312 L14.7959 8.5312 L14.7959 9.7812 L12.999 9.7812 L12.999 12.0938 Q12.999 12.4844 13.1475 12.6172 Q13.2959 12.75 13.749 12.75 L14.6553 12.75 L14.6553 14 L13.1553 14 Q12.1084 14 11.6787 13.5703 Q11.249 13.1406 11.249 12.0938 L11.249 9.7812 L10.374 9.7812 L10.374 8.5312 L11.249 8.5312 L11.249 6.9844 L12.999 6.9844 ZM15.873 6.4062 L17.623 6.4062 L17.623 14 L15.873 14 L15.873 6.4062 ZM24.7539 11.25 L24.7539 11.75 L20.6758 11.75 Q20.7383 12.3594 21.1133 12.6719 Q21.4883 12.9844 22.1758 12.9844 Q22.7227 12.9844 23.3086 12.8203 Q23.8945 12.6562 24.5039 12.3125 L24.5039 13.6719 Q23.8789 13.9062 23.2617 14.0234 Q22.6445 14.1406 22.0195 14.1406 Q20.5352 14.1406 19.7148 13.3828 Q18.8945 12.625 18.8945 11.2656 Q18.8945 9.9375 19.6992 9.1719 Q20.5039 8.4062 21.9258 8.4062 Q23.207 8.4062 23.9805 9.1797 Q24.7539 9.9531 24.7539 11.25 ZM22.957 10.6719 Q22.957 10.1719 22.668 9.8672 Q22.3789 9.5625 21.9102 9.5625 Q21.3945 9.5625 21.082 9.8438 Q20.7695 10.125 20.6914 10.6719 L22.957 10.6719 ZM26.3643 8.5312 L28.1143 8.5312 L28.1143 10.4219 L26.3643 10.4219 L26.3643 8.5312 ZM26.3643 12.1094 L28.1143 12.1094 L28.1143 14 L26.3643 14 L26.3643 12.1094 Z"
         style="clip-path:url(#clipPath2); stroke:none;"
         clip-path="url(#clipPath2)"
         id="path149" />
      <path
         d="M38.9844 6.7031 L39.9688 6.7031 L39.9688 9.7031 L43.5469 9.7031 L43.5469 6.7031 L44.5312 6.7031 L44.5312 14 L43.5469 14 L43.5469 10.5312 L39.9688 10.5312 L39.9688 14 L38.9844 14 L38.9844 6.7031 ZM48.582 9.1562 Q47.8633 9.1562 47.4414 9.7188 Q47.0195 10.2812 47.0195 11.2656 Q47.0195 12.25 47.4336 12.8125 Q47.8477 13.375 48.582 13.375 Q49.3008 13.375 49.7227 12.8125 Q50.1445 12.25 50.1445 11.2656 Q50.1445 10.2969 49.7227 9.7266 Q49.3008 9.1562 48.582 9.1562 ZM48.582 8.4062 Q49.7539 8.4062 50.4258 9.1641 Q51.0977 9.9219 51.0977 11.2656 Q51.0977 12.6094 50.4258 13.375 Q49.7539 14.1406 48.582 14.1406 Q47.4102 14.1406 46.7383 13.375 Q46.0664 12.6094 46.0664 11.2656 Q46.0664 9.9219 46.7383 9.1641 Q47.4102 8.4062 48.582 8.4062 ZM55.7471 9.375 Q55.5908 9.2812 55.4189 9.2422 Q55.2471 9.2031 55.0283 9.2031 Q54.2627 9.2031 53.8564 9.6953 Q53.4502 10.1875 53.4502 11.125 L53.4502 14 L52.5439 14 L52.5439 8.5312 L53.4502 8.5312 L53.4502 9.375 Q53.7314 8.875 54.1846 8.6406 Q54.6377 8.4062 55.2939 8.4062 Q55.3877 8.4062 55.4971 8.4141 Q55.6064 8.4219 55.7471 8.4531 L55.7471 9.375 ZM60.9521 9.5781 Q61.2803 8.9688 61.749 8.6875 Q62.2178 8.4062 62.8584 8.4062 Q63.7178 8.4062 64.1787 9 Q64.6396 9.5938 64.6396 10.7031 L64.6396 14 L63.7334 14 L63.7334 10.7344 Q63.7334 9.9375 63.46 9.5625 Q63.1865 9.1875 62.6084 9.1875 Q61.9053 9.1875 61.5068 9.6484 Q61.1084 10.1094 61.1084 10.9062 L61.1084 14 L60.2021 14 L60.2021 10.7344 Q60.2021 9.9375 59.9209 9.5625 Q59.6396 9.1875 59.0615 9.1875 Q58.374 9.1875 57.9678 9.6484 Q57.5615 10.1094 57.5615 10.9062 L57.5615 14 L56.6553 14 L56.6553 8.5312 L57.5615 8.5312 L57.5615 9.375 Q57.874 8.875 58.3037 8.6406 Q58.7334 8.4062 59.3115 8.4062 Q59.9209 8.4062 60.335 8.7031 Q60.749 9 60.9521 9.5781 ZM68.5527 9.1562 Q67.834 9.1562 67.4121 9.7188 Q66.9902 10.2812 66.9902 11.2656 Q66.9902 12.25 67.4043 12.8125 Q67.8184 13.375 68.5527 13.375 Q69.2715 13.375 69.6934 12.8125 Q70.1152 12.25 70.1152 11.2656 Q70.1152 10.2969 69.6934 9.7266 Q69.2715 9.1562 68.5527 9.1562 ZM68.5527 8.4062 Q69.7246 8.4062 70.3965 9.1641 Q71.0684 9.9219 71.0684 11.2656 Q71.0684 12.6094 70.3965 13.375 Q69.7246 14.1406 68.5527 14.1406 Q67.3809 14.1406 66.709 13.375 Q66.0371 12.6094 66.0371 11.2656 Q66.0371 9.9219 66.709 9.1641 Q67.3809 8.4062 68.5527 8.4062 ZM77.0928 10.7031 L77.0928 14 L76.2021 14 L76.2021 10.7344 Q76.2021 9.9531 75.8975 9.5703 Q75.5928 9.1875 74.9834 9.1875 Q74.2646 9.1875 73.8428 9.6484 Q73.4209 10.1094 73.4209 10.9062 L73.4209 14 L72.5146 14 L72.5146 8.5312 L73.4209 8.5312 L73.4209 9.375 Q73.749 8.8906 74.1865 8.6484 Q74.624 8.4062 75.1865 8.4062 Q76.124 8.4062 76.6084 8.9844 Q77.0928 9.5625 77.0928 10.7031 ZM81.3682 11.25 Q80.29 11.25 79.8682 11.5 Q79.4463 11.75 79.4463 12.3438 Q79.4463 12.8281 79.7588 13.1094 Q80.0713 13.3906 80.6182 13.3906 Q81.3682 13.3906 81.8213 12.8594 Q82.2744 12.3281 82.2744 11.4531 L82.2744 11.25 L81.3682 11.25 ZM83.165 10.875 L83.165 14 L82.2744 14 L82.2744 13.1719 Q81.9619 13.6719 81.501 13.9062 Q81.04 14.1406 80.3838 14.1406 Q79.54 14.1406 79.04 13.6719 Q78.54 13.2031 78.54 12.4062 Q78.54 11.4844 79.165 11.0156 Q79.79 10.5469 81.0088 10.5469 L82.2744 10.5469 L82.2744 10.4531 Q82.2744 9.8438 81.8604 9.5 Q81.4463 9.1562 80.7119 9.1562 Q80.2432 9.1562 79.7979 9.2734 Q79.3525 9.3906 78.9463 9.6094 L78.9463 8.7812 Q79.4463 8.5938 79.9072 8.5 Q80.3682 8.4062 80.8057 8.4062 Q81.9932 8.4062 82.5791 9.0156 Q83.165 9.625 83.165 10.875 ZM85.0117 6.4062 L85.918 6.4062 L85.918 14 L85.0117 14 L85.0117 6.4062 ZM94.9062 8.7344 L94.9062 9.5781 Q94.5312 9.375 94.1484 9.2656 Q93.7656 9.1562 93.375 9.1562 Q92.5 9.1562 92.0156 9.7109 Q91.5312 10.2656 91.5312 11.2656 Q91.5312 12.2656 92.0156 12.8203 Q92.5 13.375 93.375 13.375 Q93.7656 13.375 94.1484 13.2734 Q94.5312 13.1719 94.9062 12.9531 L94.9062 13.7969 Q94.5312 13.9688 94.1328 14.0547 Q93.7344 14.1406 93.2812 14.1406 Q92.0312 14.1406 91.3047 13.3672 Q90.5781 12.5938 90.5781 11.2656 Q90.5781 9.9375 91.3125 9.1719 Q92.0469 8.4062 93.3281 8.4062 Q93.75 8.4062 94.1406 8.4844 Q94.5312 8.5625 94.9062 8.7344 ZM98.5918 9.1562 Q97.873 9.1562 97.4512 9.7188 Q97.0293 10.2812 97.0293 11.2656 Q97.0293 12.25 97.4434 12.8125 Q97.8574 13.375 98.5918 13.375 Q99.3105 13.375 99.7324 12.8125 Q100.1543 12.25 100.1543 11.2656 Q100.1543 10.2969 99.7324 9.7266 Q99.3105 9.1562 98.5918 9.1562 ZM98.5918 8.4062 Q99.7637 8.4062 100.4355 9.1641 Q101.1074 9.9219 101.1074 11.2656 Q101.1074 12.6094 100.4355 13.375 Q99.7637 14.1406 98.5918 14.1406 Q97.4199 14.1406 96.748 13.375 Q96.0762 12.6094 96.0762 11.2656 Q96.0762 9.9219 96.748 9.1641 Q97.4199 8.4062 98.5918 8.4062 ZM107.1318 10.7031 L107.1318 14 L106.2412 14 L106.2412 10.7344 Q106.2412 9.9531 105.9365 9.5703 Q105.6318 9.1875 105.0225 9.1875 Q104.3037 9.1875 103.8818 9.6484 Q103.46 10.1094 103.46 10.9062 L103.46 14 L102.5537 14 L102.5537 8.5312 L103.46 8.5312 L103.46 9.375 Q103.7881 8.8906 104.2256 8.6484 Q104.6631 8.4062 105.2256 8.4062 Q106.1631 8.4062 106.6475 8.9844 Q107.1318 9.5625 107.1318 10.7031 ZM109.8135 6.9844 L109.8135 8.5312 L111.6729 8.5312 L111.6729 9.2344 L109.8135 9.2344 L109.8135 12.2031 Q109.8135 12.8594 110.001 13.0547 Q110.1885 13.25 110.751 13.25 L111.6729 13.25 L111.6729 14 L110.751 14 Q109.7041 14 109.3057 13.6094 Q108.9072 13.2188 108.9072 12.2031 L108.9072 9.2344 L108.251 9.2344 L108.251 8.5312 L108.9072 8.5312 L108.9072 6.9844 L109.8135 6.9844 ZM116.0156 9.375 Q115.8594 9.2812 115.6875 9.2422 Q115.5156 9.2031 115.2969 9.2031 Q114.5312 9.2031 114.125 9.6953 Q113.7188 10.1875 113.7188 11.125 L113.7188 14 L112.8125 14 L112.8125 8.5312 L113.7188 8.5312 L113.7188 9.375 Q114 8.875 114.4531 8.6406 Q114.9062 8.4062 115.5625 8.4062 Q115.6562 8.4062 115.7656 8.4141 Q115.875 8.4219 116.0156 8.4531 L116.0156 9.375 ZM119.0801 9.1562 Q118.3613 9.1562 117.9395 9.7188 Q117.5176 10.2812 117.5176 11.2656 Q117.5176 12.25 117.9316 12.8125 Q118.3457 13.375 119.0801 13.375 Q119.7988 13.375 120.2207 12.8125 Q120.6426 12.25 120.6426 11.2656 Q120.6426 10.2969 120.2207 9.7266 Q119.7988 9.1562 119.0801 9.1562 ZM119.0801 8.4062 Q120.252 8.4062 120.9238 9.1641 Q121.5957 9.9219 121.5957 11.2656 Q121.5957 12.6094 120.9238 13.375 Q120.252 14.1406 119.0801 14.1406 Q117.9082 14.1406 117.2363 13.375 Q116.5645 12.6094 116.5645 11.2656 Q116.5645 9.9219 117.2363 9.1641 Q117.9082 8.4062 119.0801 8.4062 ZM123.0732 6.4062 L123.9795 6.4062 L123.9795 14 L123.0732 14 L123.0732 6.4062 ZM131.1553 9.1562 Q130.4365 9.1562 130.0146 9.7188 Q129.5928 10.2812 129.5928 11.2656 Q129.5928 12.25 130.0068 12.8125 Q130.4209 13.375 131.1553 13.375 Q131.874 13.375 132.2959 12.8125 Q132.7178 12.25 132.7178 11.2656 Q132.7178 10.2969 132.2959 9.7266 Q131.874 9.1562 131.1553 9.1562 ZM131.1553 8.4062 Q132.3271 8.4062 132.999 9.1641 Q133.6709 9.9219 133.6709 11.2656 Q133.6709 12.6094 132.999 13.375 Q132.3271 14.1406 131.1553 14.1406 Q129.9834 14.1406 129.3115 13.375 Q128.6396 12.6094 128.6396 11.2656 Q128.6396 9.9219 129.3115 9.1641 Q129.9834 8.4062 131.1553 8.4062 ZM137.9297 6.4062 L137.9297 7.1562 L137.0703 7.1562 Q136.5859 7.1562 136.3984 7.3516 Q136.2109 7.5469 136.2109 8.0469 L136.2109 8.5312 L137.6797 8.5312 L137.6797 9.2344 L136.2109 9.2344 L136.2109 14 L135.3047 14 L135.3047 9.2344 L134.4453 9.2344 L134.4453 8.5312 L135.3047 8.5312 L135.3047 8.1562 Q135.3047 7.2344 135.7266 6.8203 Q136.1484 6.4062 137.0703 6.4062 L137.9297 6.4062 ZM142.7227 13.1719 L142.7227 16.0781 L141.8164 16.0781 L141.8164 8.5312 L142.7227 8.5312 L142.7227 9.3594 Q143.0039 8.875 143.4336 8.6406 Q143.8633 8.4062 144.4727 8.4062 Q145.4727 8.4062 146.0898 9.1953 Q146.707 9.9844 146.707 11.2656 Q146.707 12.5625 146.0898 13.3516 Q145.4727 14.1406 144.4727 14.1406 Q143.8633 14.1406 143.4336 13.9062 Q143.0039 13.6719 142.7227 13.1719 ZM145.7852 11.2656 Q145.7852 10.2812 145.3711 9.7188 Q144.957 9.1562 144.2539 9.1562 Q143.5352 9.1562 143.1289 9.7188 Q142.7227 10.2812 142.7227 11.2656 Q142.7227 12.2656 143.1289 12.8281 Q143.5352 13.3906 144.2539 13.3906 Q144.957 13.3906 145.3711 12.8281 Q145.7852 12.2656 145.7852 11.2656 ZM148.1016 11.8438 L148.1016 8.5312 L149.0078 8.5312 L149.0078 11.8125 Q149.0078 12.5781 149.3125 12.9688 Q149.6172 13.3594 150.2109 13.3594 Q150.9453 13.3594 151.3672 12.8984 Q151.7891 12.4375 151.7891 11.625 L151.7891 8.5312 L152.6953 8.5312 L152.6953 14 L151.7891 14 L151.7891 13.1562 Q151.4609 13.6562 151.0312 13.8984 Q150.6016 14.1406 150.0234 14.1406 Q149.0859 14.1406 148.5938 13.5547 Q148.1016 12.9688 148.1016 11.8438 ZM150.3672 8.4062 L150.3672 8.4062 ZM158.4707 11.2656 Q158.4707 10.2812 158.0566 9.7188 Q157.6426 9.1562 156.9395 9.1562 Q156.2207 9.1562 155.8145 9.7188 Q155.4082 10.2812 155.4082 11.2656 Q155.4082 12.2656 155.8145 12.8281 Q156.2207 13.3906 156.9395 13.3906 Q157.6426 13.3906 158.0566 12.8281 Q158.4707 12.2656 158.4707 11.2656 ZM155.4082 9.3594 Q155.6895 8.875 156.1191 8.6406 Q156.5488 8.4062 157.1582 8.4062 Q158.1582 8.4062 158.7754 9.1953 Q159.3926 9.9844 159.3926 11.2656 Q159.3926 12.5625 158.7754 13.3516 Q158.1582 14.1406 157.1582 14.1406 Q156.5488 14.1406 156.1191 13.9062 Q155.6895 13.6719 155.4082 13.1719 L155.4082 14 L154.502 14 L154.502 6.4062 L155.4082 6.4062 L155.4082 9.3594 ZM165.5684 11.0469 L165.5684 11.4844 L161.4277 11.4844 Q161.4902 12.4062 161.9902 12.8906 Q162.4902 13.375 163.3809 13.375 Q163.8965 13.375 164.3887 13.25 Q164.8809 13.125 165.3496 12.875 L165.3496 13.7188 Q164.8652 13.9219 164.3574 14.0312 Q163.8496 14.1406 163.334 14.1406 Q162.0215 14.1406 161.2559 13.3828 Q160.4902 12.625 160.4902 11.3125 Q160.4902 9.9688 161.2168 9.1875 Q161.9434 8.4062 163.1777 8.4062 Q164.2871 8.4062 164.9277 9.1094 Q165.5684 9.8125 165.5684 11.0469 ZM164.6621 10.7812 Q164.6621 10.0469 164.2559 9.6016 Q163.8496 9.1562 163.1934 9.1562 Q162.4277 9.1562 161.9824 9.5859 Q161.5371 10.0156 161.459 10.7812 L164.6621 10.7812 ZM170.2051 9.375 Q170.0488 9.2812 169.877 9.2422 Q169.7051 9.2031 169.4863 9.2031 Q168.7207 9.2031 168.3145 9.6953 Q167.9082 10.1875 167.9082 11.125 L167.9082 14 L167.002 14 L167.002 8.5312 L167.9082 8.5312 L167.9082 9.375 Q168.1895 8.875 168.6426 8.6406 Q169.0957 8.4062 169.752 8.4062 Q169.8457 8.4062 169.9551 8.4141 Q170.0645 8.4219 170.2051 8.4531 L170.2051 9.375 ZM172.0352 6.9844 L172.0352 8.5312 L173.8945 8.5312 L173.8945 9.2344 L172.0352 9.2344 L172.0352 12.2031 Q172.0352 12.8594 172.2227 13.0547 Q172.4102 13.25 172.9727 13.25 L173.8945 13.25 L173.8945 14 L172.9727 14 Q171.9258 14 171.5273 13.6094 Q171.1289 13.2188 171.1289 12.2031 L171.1289 9.2344 L170.4727 9.2344 L170.4727 8.5312 L171.1289 8.5312 L171.1289 6.9844 L172.0352 6.9844 ZM177.5498 11.25 Q176.4717 11.25 176.0498 11.5 Q175.6279 11.75 175.6279 12.3438 Q175.6279 12.8281 175.9404 13.1094 Q176.2529 13.3906 176.7998 13.3906 Q177.5498 13.3906 178.0029 12.8594 Q178.4561 12.3281 178.4561 11.4531 L178.4561 11.25 L177.5498 11.25 ZM179.3467 10.875 L179.3467 14 L178.4561 14 L178.4561 13.1719 Q178.1436 13.6719 177.6826 13.9062 Q177.2217 14.1406 176.5654 14.1406 Q175.7217 14.1406 175.2217 13.6719 Q174.7217 13.2031 174.7217 12.4062 Q174.7217 11.4844 175.3467 11.0156 Q175.9717 10.5469 177.1904 10.5469 L178.4561 10.5469 L178.4561 10.4531 Q178.4561 9.8438 178.042 9.5 Q177.6279 9.1562 176.8936 9.1562 Q176.4248 9.1562 175.9795 9.2734 Q175.5342 9.3906 175.1279 9.6094 L175.1279 8.7812 Q175.6279 8.5938 176.0889 8.5 Q176.5498 8.4062 176.9873 8.4062 Q178.1748 8.4062 178.7607 9.0156 Q179.3467 9.625 179.3467 10.875 ZM181.1934 6.4062 L182.0996 6.4062 L182.0996 14 L181.1934 14 L181.1934 6.4062 ZM190.7598 11.2031 Q190.7598 10.2188 190.3535 9.6875 Q189.9473 9.1562 189.2285 9.1562 Q188.4941 9.1562 188.0957 9.6875 Q187.6973 10.2188 187.6973 11.2031 Q187.6973 12.1719 188.0957 12.7109 Q188.4941 13.25 189.2285 13.25 Q189.9473 13.25 190.3535 12.7109 Q190.7598 12.1719 190.7598 11.2031 ZM191.6504 13.3281 Q191.6504 14.7188 191.0332 15.3984 Q190.416 16.0781 189.1348 16.0781 Q188.666 16.0781 188.2441 16.0078 Q187.8223 15.9375 187.4316 15.7969 L187.4316 14.9219 Q187.8223 15.1406 188.2051 15.2422 Q188.5879 15.3438 188.9941 15.3438 Q189.8691 15.3438 190.3145 14.8828 Q190.7598 14.4219 190.7598 13.4844 L190.7598 13.0312 Q190.4785 13.5156 190.041 13.7578 Q189.6035 14 188.9941 14 Q187.9941 14 187.377 13.2344 Q186.7598 12.4688 186.7598 11.2031 Q186.7598 9.9375 187.377 9.1719 Q187.9941 8.4062 188.9941 8.4062 Q189.6035 8.4062 190.041 8.6406 Q190.4785 8.875 190.7598 9.3594 L190.7598 8.5312 L191.6504 8.5312 L191.6504 13.3281 ZM196.6699 9.375 Q196.5137 9.2812 196.3418 9.2422 Q196.1699 9.2031 195.9512 9.2031 Q195.1855 9.2031 194.7793 9.6953 Q194.373 10.1875 194.373 11.125 L194.373 14 L193.4668 14 L193.4668 8.5312 L194.373 8.5312 L194.373 9.375 Q194.6543 8.875 195.1074 8.6406 Q195.5605 8.4062 196.2168 8.4062 Q196.3105 8.4062 196.4199 8.4141 Q196.5293 8.4219 196.6699 8.4531 L196.6699 9.375 ZM199.7344 9.1562 Q199.0156 9.1562 198.5938 9.7188 Q198.1719 10.2812 198.1719 11.2656 Q198.1719 12.25 198.5859 12.8125 Q199 13.375 199.7344 13.375 Q200.4531 13.375 200.875 12.8125 Q201.2969 12.25 201.2969 11.2656 Q201.2969 10.2969 200.875 9.7266 Q200.4531 9.1562 199.7344 9.1562 ZM199.7344 8.4062 Q200.9062 8.4062 201.5781 9.1641 Q202.25 9.9219 202.25 11.2656 Q202.25 12.6094 201.5781 13.375 Q200.9062 14.1406 199.7344 14.1406 Q198.5625 14.1406 197.8906 13.375 Q197.2188 12.6094 197.2188 11.2656 Q197.2188 9.9219 197.8906 9.1641 Q198.5625 8.4062 199.7344 8.4062 ZM203.2119 8.5312 L204.1025 8.5312 L205.2275 12.7969 L206.3525 8.5312 L207.415 8.5312 L208.54 12.7969 L209.6494 8.5312 L210.5557 8.5312 L209.1182 14 L208.0557 14 L206.8838 9.5156 L205.6963 14 L204.6338 14 L203.2119 8.5312 ZM212.7969 6.9844 L212.7969 8.5312 L214.6562 8.5312 L214.6562 9.2344 L212.7969 9.2344 L212.7969 12.2031 Q212.7969 12.8594 212.9844 13.0547 Q213.1719 13.25 213.7344 13.25 L214.6562 13.25 L214.6562 14 L213.7344 14 Q212.6875 14 212.2891 13.6094 Q211.8906 13.2188 211.8906 12.2031 L211.8906 9.2344 L211.2344 9.2344 L211.2344 8.5312 L211.8906 8.5312 L211.8906 6.9844 L212.7969 6.9844 ZM220.374 10.7031 L220.374 14 L219.4834 14 L219.4834 10.7344 Q219.4834 9.9531 219.1787 9.5703 Q218.874 9.1875 218.2646 9.1875 Q217.5459 9.1875 217.124 9.6484 Q216.7021 10.1094 216.7021 10.9062 L216.7021 14 L215.7959 14 L215.7959 6.4062 L216.7021 6.4062 L216.7021 9.375 Q217.0303 8.8906 217.4678 8.6484 Q217.9053 8.4062 218.4678 8.4062 Q219.4053 8.4062 219.8896 8.9844 Q220.374 9.5625 220.374 10.7031 ZM228.8281 8.6875 L228.8281 9.5469 Q228.4531 9.3438 228.0469 9.25 Q227.6406 9.1562 227.1875 9.1562 Q226.5312 9.1562 226.1953 9.3594 Q225.8594 9.5625 225.8594 9.9688 Q225.8594 10.2812 226.0938 10.4609 Q226.3281 10.6406 227.0625 10.7969 L227.3594 10.875 Q228.3281 11.0781 228.7266 11.4531 Q229.125 11.8281 229.125 12.4844 Q229.125 13.25 228.5234 13.6953 Q227.9219 14.1406 226.875 14.1406 Q226.4219 14.1406 225.9453 14.0547 Q225.4688 13.9688 224.9531 13.7969 L224.9531 12.875 Q225.4531 13.125 225.9297 13.2578 Q226.4062 13.3906 226.8906 13.3906 Q227.5156 13.3906 227.8594 13.1719 Q228.2031 12.9531 228.2031 12.5625 Q228.2031 12.1875 227.9609 11.9922 Q227.7188 11.7969 226.875 11.625 L226.5625 11.5469 Q225.7344 11.375 225.3594 11.0078 Q224.9844 10.6406 224.9844 10.0156 Q224.9844 9.2344 225.5312 8.8203 Q226.0781 8.4062 227.0938 8.4062 Q227.5781 8.4062 228.0234 8.4766 Q228.4688 8.5469 228.8281 8.6875 ZM231.4287 13.1719 L231.4287 16.0781 L230.5225 16.0781 L230.5225 8.5312 L231.4287 8.5312 L231.4287 9.3594 Q231.71 8.875 232.1396 8.6406 Q232.5693 8.4062 233.1787 8.4062 Q234.1787 8.4062 234.7959 9.1953 Q235.4131 9.9844 235.4131 11.2656 Q235.4131 12.5625 234.7959 13.3516 Q234.1787 14.1406 233.1787 14.1406 Q232.5693 14.1406 232.1396 13.9062 Q231.71 13.6719 231.4287 13.1719 ZM234.4912 11.2656 Q234.4912 10.2812 234.0771 9.7188 Q233.6631 9.1562 232.96 9.1562 Q232.2412 9.1562 231.835 9.7188 Q231.4287 10.2812 231.4287 11.2656 Q231.4287 12.2656 231.835 12.8281 Q232.2412 13.3906 232.96 13.3906 Q233.6631 13.3906 234.0771 12.8281 Q234.4912 12.2656 234.4912 11.2656 ZM236.8076 11.8438 L236.8076 8.5312 L237.7139 8.5312 L237.7139 11.8125 Q237.7139 12.5781 238.0186 12.9688 Q238.3232 13.3594 238.917 13.3594 Q239.6514 13.3594 240.0732 12.8984 Q240.4951 12.4375 240.4951 11.625 L240.4951 8.5312 L241.4014 8.5312 L241.4014 14 L240.4951 14 L240.4951 13.1562 Q240.167 13.6562 239.7373 13.8984 Q239.3076 14.1406 238.7295 14.1406 Q237.792 14.1406 237.2998 13.5547 Q236.8076 12.9688 236.8076 11.8438 ZM239.0732 8.4062 L239.0732 8.4062 ZM246.4111 9.375 Q246.2549 9.2812 246.083 9.2422 Q245.9111 9.2031 245.6924 9.2031 Q244.9268 9.2031 244.5205 9.6953 Q244.1143 10.1875 244.1143 11.125 L244.1143 14 L243.208 14 L243.208 8.5312 L244.1143 8.5312 L244.1143 9.375 Q244.3955 8.875 244.8486 8.6406 Q245.3018 8.4062 245.958 8.4062 Q246.0518 8.4062 246.1611 8.4141 Q246.2705 8.4219 246.4111 8.4531 L246.4111 9.375 ZM248.2412 6.9844 L248.2412 8.5312 L250.1006 8.5312 L250.1006 9.2344 L248.2412 9.2344 L248.2412 12.2031 Q248.2412 12.8594 248.4287 13.0547 Q248.6162 13.25 249.1787 13.25 L250.1006 13.25 L250.1006 14 L249.1787 14 Q248.1318 14 247.7334 13.6094 Q247.335 13.2188 247.335 12.2031 L247.335 9.2344 L246.6787 9.2344 L246.6787 8.5312 L247.335 8.5312 L247.335 6.9844 L248.2412 6.9844 Z"
         style="clip-path:url(#clipPath2); stroke:none;"
         clip-path="url(#clipPath2)"
         id="path151" />
      <path
         d="M4.25 21.9375 Q3.3906 21.9375 2.9141 22.5703 Q2.4375 23.2031 2.4375 24.3594 Q2.4375 25.5156 2.9141 26.1484 Q3.3906 26.7812 4.25 26.7812 Q5.1094 26.7812 5.5859 26.1484 Q6.0625 25.5156 6.0625 24.3594 Q6.0625 23.2031 5.5859 22.5703 Q5.1094 21.9375 4.25 21.9375 ZM4.25 20.5781 Q6 20.5781 7 21.5859 Q8 22.5938 8 24.3594 Q8 26.125 7 27.1328 Q6 28.1406 4.25 28.1406 Q2.5 28.1406 1.5 27.1328 Q0.5 26.125 0.5 24.3594 Q0.5 22.5938 1.5 21.5859 Q2.5 20.5781 4.25 20.5781 ZM13.4072 24.0156 Q13.1729 23.9062 12.9463 23.8594 Q12.7197 23.8125 12.4854 23.8125 Q11.8135 23.8125 11.4541 24.2422 Q11.0947 24.6719 11.0947 25.4844 L11.0947 28 L9.3447 28 L9.3447 22.5312 L11.0947 22.5312 L11.0947 23.4219 Q11.4229 22.8906 11.8604 22.6484 Q12.2979 22.4062 12.9072 22.4062 Q13.001 22.4062 13.1025 22.4062 Q13.2041 22.4062 13.3916 22.4375 L13.4072 24.0156 ZM17.9951 27.0781 Q17.6357 27.5469 17.1982 27.7734 Q16.7607 28 16.1982 28 Q15.1982 28 14.542 27.2109 Q13.8857 26.4219 13.8857 25.2031 Q13.8857 23.9688 14.542 23.1875 Q15.1982 22.4062 16.1982 22.4062 Q16.7607 22.4062 17.1982 22.6328 Q17.6357 22.8594 17.9951 23.3438 L17.9951 22.5312 L19.7451 22.5312 L19.7451 27.4531 Q19.7451 28.7656 18.917 29.4609 Q18.0889 30.1562 16.5107 30.1562 Q15.9951 30.1562 15.5186 30.0781 Q15.042 30 14.5576 29.8438 L14.5576 28.4844 Q15.0107 28.75 15.4482 28.875 Q15.8857 29 16.3389 29 Q17.1982 29 17.5967 28.625 Q17.9951 28.25 17.9951 27.4531 L17.9951 27.0781 ZM16.8389 23.6719 Q16.292 23.6719 15.9951 24.0703 Q15.6982 24.4688 15.6982 25.2031 Q15.6982 25.9531 15.9873 26.3438 Q16.2764 26.7344 16.8389 26.7344 Q17.3857 26.7344 17.6904 26.3281 Q17.9951 25.9219 17.9951 25.2031 Q17.9951 24.4688 17.6904 24.0703 Q17.3857 23.6719 16.8389 23.6719 ZM23.8877 25.5312 Q23.3408 25.5312 23.0596 25.7188 Q22.7783 25.9062 22.7783 26.2656 Q22.7783 26.6094 23.0049 26.7969 Q23.2314 26.9844 23.6221 26.9844 Q24.1221 26.9844 24.458 26.625 Q24.7939 26.2656 24.7939 25.7344 L24.7939 25.5312 L23.8877 25.5312 ZM26.5596 24.875 L26.5596 28 L24.7939 28 L24.7939 27.1875 Q24.4346 27.6875 23.9971 27.9141 Q23.5596 28.1406 22.9346 28.1406 Q22.0752 28.1406 21.5518 27.6484 Q21.0283 27.1562 21.0283 26.3594 Q21.0283 25.3906 21.6846 24.9453 Q22.3408 24.5 23.7627 24.5 L24.7939 24.5 L24.7939 24.3594 Q24.7939 23.9531 24.4658 23.7578 Q24.1377 23.5625 23.4502 23.5625 Q22.8877 23.5625 22.4033 23.6719 Q21.9189 23.7812 21.4971 24.0156 L21.4971 22.6719 Q22.0596 22.5469 22.6299 22.4766 Q23.2002 22.4062 23.7627 22.4062 Q25.2471 22.4062 25.9033 22.9844 Q26.5596 23.5625 26.5596 24.875 ZM33.6826 24.6719 L33.6826 28 L31.917 28 L31.917 27.4531 L31.917 25.4531 Q31.917 24.75 31.8857 24.4766 Q31.8545 24.2031 31.7764 24.0781 Q31.6826 23.9062 31.5029 23.8125 Q31.3232 23.7188 31.1045 23.7188 Q30.5576 23.7188 30.2451 24.1406 Q29.9326 24.5625 29.9326 25.3125 L29.9326 28 L28.1826 28 L28.1826 22.5312 L29.9326 22.5312 L29.9326 23.3281 Q30.3232 22.8594 30.7686 22.6328 Q31.2139 22.4062 31.7451 22.4062 Q32.6982 22.4062 33.1904 22.9844 Q33.6826 23.5625 33.6826 24.6719 ZM35.3018 22.5312 L37.0518 22.5312 L37.0518 28 L35.3018 28 L35.3018 22.5312 ZM35.3018 20.4062 L37.0518 20.4062 L37.0518 21.8281 L35.3018 21.8281 L35.3018 20.4062 ZM42.9951 22.7031 L42.9951 24.0312 Q42.4326 23.7969 41.9092 23.6797 Q41.3857 23.5625 40.9326 23.5625 Q40.4326 23.5625 40.1904 23.6875 Q39.9482 23.8125 39.9482 24.0625 Q39.9482 24.2812 40.1279 24.3906 Q40.3076 24.5 40.792 24.5625 L41.0889 24.5938 Q42.4326 24.7656 42.9014 25.1562 Q43.3701 25.5469 43.3701 26.3906 Q43.3701 27.2656 42.7217 27.7031 Q42.0732 28.1406 40.792 28.1406 Q40.2607 28.1406 39.6826 28.0547 Q39.1045 27.9688 38.4795 27.7969 L38.4795 26.4688 Q39.0107 26.7188 39.5576 26.8516 Q40.1045 26.9844 40.667 26.9844 Q41.1826 26.9844 41.4404 26.8438 Q41.6982 26.7031 41.6982 26.4219 Q41.6982 26.1875 41.5264 26.0703 Q41.3545 25.9531 40.8232 25.8906 L40.5107 25.8438 Q39.3389 25.7031 38.8701 25.3047 Q38.4014 24.9062 38.4014 24.1094 Q38.4014 23.2344 38.9951 22.8203 Q39.5889 22.4062 40.8232 22.4062 Q41.3076 22.4062 41.8389 22.4766 Q42.3701 22.5469 42.9951 22.7031 ZM49.7441 23.4375 Q50.0723 22.9375 50.5332 22.6719 Q50.9941 22.4062 51.541 22.4062 Q52.4785 22.4062 52.9707 22.9844 Q53.4629 23.5625 53.4629 24.6719 L53.4629 28 L51.7129 28 L51.7129 25.1406 Q51.7129 25.0781 51.7129 25.0156 Q51.7129 24.9531 51.7129 24.8281 Q51.7129 24.2344 51.5488 23.9766 Q51.3848 23.7188 50.9941 23.7188 Q50.4941 23.7188 50.2285 24.125 Q49.9629 24.5312 49.9473 25.3125 L49.9473 28 L48.1816 28 L48.1816 25.1406 Q48.1816 24.2344 48.0254 23.9766 Q47.8691 23.7188 47.4785 23.7188 Q46.9785 23.7188 46.7051 24.1328 Q46.4316 24.5469 46.4316 25.3125 L46.4316 28 L44.666 28 L44.666 22.5312 L46.4316 22.5312 L46.4316 23.3281 Q46.7441 22.875 47.166 22.6406 Q47.5879 22.4062 48.0879 22.4062 Q48.6504 22.4062 49.0879 22.6797 Q49.5254 22.9531 49.7441 23.4375 ZM55.3828 22.5312 L57.1328 22.5312 L57.1328 24.4219 L55.3828 24.4219 L55.3828 22.5312 ZM55.3828 26.1094 L57.1328 26.1094 L57.1328 28 L55.3828 28 L55.3828 26.1094 Z"
         style="clip-path:url(#clipPath2); stroke:none;"
         clip-path="url(#clipPath2)"
         id="path153" />
      <path
         d="M66.9844 20.7031 L67.9688 20.7031 L67.9688 23.7031 L71.5469 23.7031 L71.5469 20.7031 L72.5312 20.7031 L72.5312 28 L71.5469 28 L71.5469 24.5312 L67.9688 24.5312 L67.9688 28 L66.9844 28 L66.9844 20.7031 ZM76.582 23.1562 Q75.8633 23.1562 75.4414 23.7188 Q75.0195 24.2812 75.0195 25.2656 Q75.0195 26.25 75.4336 26.8125 Q75.8477 27.375 76.582 27.375 Q77.3008 27.375 77.7227 26.8125 Q78.1445 26.25 78.1445 25.2656 Q78.1445 24.2969 77.7227 23.7266 Q77.3008 23.1562 76.582 23.1562 ZM76.582 22.4062 Q77.7539 22.4062 78.4258 23.1641 Q79.0977 23.9219 79.0977 25.2656 Q79.0977 26.6094 78.4258 27.375 Q77.7539 28.1406 76.582 28.1406 Q75.4102 28.1406 74.7383 27.375 Q74.0664 26.6094 74.0664 25.2656 Q74.0664 23.9219 74.7383 23.1641 Q75.4102 22.4062 76.582 22.4062 ZM84.8408 23.5781 Q85.1689 22.9688 85.6377 22.6875 Q86.1064 22.4062 86.7471 22.4062 Q87.6064 22.4062 88.0674 23 Q88.5283 23.5938 88.5283 24.7031 L88.5283 28 L87.6221 28 L87.6221 24.7344 Q87.6221 23.9375 87.3486 23.5625 Q87.0752 23.1875 86.4971 23.1875 Q85.7939 23.1875 85.3955 23.6484 Q84.9971 24.1094 84.9971 24.9062 L84.9971 28 L84.0908 28 L84.0908 24.7344 Q84.0908 23.9375 83.8096 23.5625 Q83.5283 23.1875 82.9502 23.1875 Q82.2627 23.1875 81.8564 23.6484 Q81.4502 24.1094 81.4502 24.9062 L81.4502 28 L80.5439 28 L80.5439 22.5312 L81.4502 22.5312 L81.4502 23.375 Q81.7627 22.875 82.1924 22.6406 Q82.6221 22.4062 83.2002 22.4062 Q83.8096 22.4062 84.2236 22.7031 Q84.6377 23 84.8408 23.5781 ZM92.4414 23.1562 Q91.7227 23.1562 91.3008 23.7188 Q90.8789 24.2812 90.8789 25.2656 Q90.8789 26.25 91.293 26.8125 Q91.707 27.375 92.4414 27.375 Q93.1602 27.375 93.582 26.8125 Q94.0039 26.25 94.0039 25.2656 Q94.0039 24.2969 93.582 23.7266 Q93.1602 23.1562 92.4414 23.1562 ZM92.4414 22.4062 Q93.6133 22.4062 94.2852 23.1641 Q94.957 23.9219 94.957 25.2656 Q94.957 26.6094 94.2852 27.375 Q93.6133 28.1406 92.4414 28.1406 Q91.2695 28.1406 90.5977 27.375 Q89.9258 26.6094 89.9258 25.2656 Q89.9258 23.9219 90.5977 23.1641 Q91.2695 22.4062 92.4414 22.4062 ZM103.0977 22.6875 L103.0977 23.5469 Q102.7227 23.3438 102.3164 23.25 Q101.9102 23.1562 101.457 23.1562 Q100.8008 23.1562 100.4648 23.3594 Q100.1289 23.5625 100.1289 23.9688 Q100.1289 24.2812 100.3633 24.4609 Q100.5977 24.6406 101.332 24.7969 L101.6289 24.875 Q102.5977 25.0781 102.9961 25.4531 Q103.3945 25.8281 103.3945 26.4844 Q103.3945 27.25 102.793 27.6953 Q102.1914 28.1406 101.1445 28.1406 Q100.6914 28.1406 100.2148 28.0547 Q99.7383 27.9688 99.2227 27.7969 L99.2227 26.875 Q99.7227 27.125 100.1992 27.2578 Q100.6758 27.3906 101.1602 27.3906 Q101.7852 27.3906 102.1289 27.1719 Q102.4727 26.9531 102.4727 26.5625 Q102.4727 26.1875 102.2305 25.9922 Q101.9883 25.7969 101.1445 25.625 L100.832 25.5469 Q100.0039 25.375 99.6289 25.0078 Q99.2539 24.6406 99.2539 24.0156 Q99.2539 23.2344 99.8008 22.8203 Q100.3477 22.4062 101.3633 22.4062 Q101.8477 22.4062 102.293 22.4766 Q102.7383 22.5469 103.0977 22.6875 ZM107.3076 25.25 Q106.2295 25.25 105.8076 25.5 Q105.3857 25.75 105.3857 26.3438 Q105.3857 26.8281 105.6982 27.1094 Q106.0107 27.3906 106.5576 27.3906 Q107.3076 27.3906 107.7607 26.8594 Q108.2139 26.3281 108.2139 25.4531 L108.2139 25.25 L107.3076 25.25 ZM109.1045 24.875 L109.1045 28 L108.2139 28 L108.2139 27.1719 Q107.9014 27.6719 107.4404 27.9062 Q106.9795 28.1406 106.3232 28.1406 Q105.4795 28.1406 104.9795 27.6719 Q104.4795 27.2031 104.4795 26.4062 Q104.4795 25.4844 105.1045 25.0156 Q105.7295 24.5469 106.9482 24.5469 L108.2139 24.5469 L108.2139 24.4531 Q108.2139 23.8438 107.7998 23.5 Q107.3857 23.1562 106.6514 23.1562 Q106.1826 23.1562 105.7373 23.2734 Q105.292 23.3906 104.8857 23.6094 L104.8857 22.7812 Q105.3857 22.5938 105.8467 22.5 Q106.3076 22.4062 106.7451 22.4062 Q107.9326 22.4062 108.5186 23.0156 Q109.1045 23.625 109.1045 24.875 ZM111.8262 27.1719 L111.8262 30.0781 L110.9199 30.0781 L110.9199 22.5312 L111.8262 22.5312 L111.8262 23.3594 Q112.1074 22.875 112.5371 22.6406 Q112.9668 22.4062 113.5762 22.4062 Q114.5762 22.4062 115.1934 23.1953 Q115.8105 23.9844 115.8105 25.2656 Q115.8105 26.5625 115.1934 27.3516 Q114.5762 28.1406 113.5762 28.1406 Q112.9668 28.1406 112.5371 27.9062 Q112.1074 27.6719 111.8262 27.1719 ZM114.8887 25.2656 Q114.8887 24.2812 114.4746 23.7188 Q114.0605 23.1562 113.3574 23.1562 Q112.6387 23.1562 112.2324 23.7188 Q111.8262 24.2812 111.8262 25.2656 Q111.8262 26.2656 112.2324 26.8281 Q112.6387 27.3906 113.3574 27.3906 Q114.0605 27.3906 114.4746 26.8281 Q114.8887 26.2656 114.8887 25.2656 ZM117.2988 22.5312 L118.2051 22.5312 L118.2051 28 L117.2988 28 L117.2988 22.5312 ZM117.2988 20.4062 L118.2051 20.4062 L118.2051 21.5469 L117.2988 21.5469 L117.2988 20.4062 ZM124.7646 25.0469 L124.7646 25.4844 L120.624 25.4844 Q120.6865 26.4062 121.1865 26.8906 Q121.6865 27.375 122.5771 27.375 Q123.0928 27.375 123.585 27.25 Q124.0771 27.125 124.5459 26.875 L124.5459 27.7188 Q124.0615 27.9219 123.5537 28.0312 Q123.0459 28.1406 122.5303 28.1406 Q121.2178 28.1406 120.4521 27.3828 Q119.6865 26.625 119.6865 25.3125 Q119.6865 23.9688 120.4131 23.1875 Q121.1396 22.4062 122.374 22.4062 Q123.4834 22.4062 124.124 23.1094 Q124.7646 23.8125 124.7646 25.0469 ZM123.8584 24.7812 Q123.8584 24.0469 123.4521 23.6016 Q123.0459 23.1562 122.3896 23.1562 Q121.624 23.1562 121.1787 23.5859 Q120.7334 24.0156 120.6553 24.7812 L123.8584 24.7812 ZM130.7764 24.7031 L130.7764 28 L129.8857 28 L129.8857 24.7344 Q129.8857 23.9531 129.5811 23.5703 Q129.2764 23.1875 128.667 23.1875 Q127.9482 23.1875 127.5264 23.6484 Q127.1045 24.1094 127.1045 24.9062 L127.1045 28 L126.1982 28 L126.1982 22.5312 L127.1045 22.5312 L127.1045 23.375 Q127.4326 22.8906 127.8701 22.6484 Q128.3076 22.4062 128.8701 22.4062 Q129.8076 22.4062 130.292 22.9844 Q130.7764 23.5625 130.7764 24.7031 ZM136.0518 22.6875 L136.0518 23.5469 Q135.6768 23.3438 135.2705 23.25 Q134.8643 23.1562 134.4111 23.1562 Q133.7549 23.1562 133.4189 23.3594 Q133.083 23.5625 133.083 23.9688 Q133.083 24.2812 133.3174 24.4609 Q133.5518 24.6406 134.2861 24.7969 L134.583 24.875 Q135.5518 25.0781 135.9502 25.4531 Q136.3486 25.8281 136.3486 26.4844 Q136.3486 27.25 135.7471 27.6953 Q135.1455 28.1406 134.0986 28.1406 Q133.6455 28.1406 133.1689 28.0547 Q132.6924 27.9688 132.1768 27.7969 L132.1768 26.875 Q132.6768 27.125 133.1533 27.2578 Q133.6299 27.3906 134.1143 27.3906 Q134.7393 27.3906 135.083 27.1719 Q135.4268 26.9531 135.4268 26.5625 Q135.4268 26.1875 135.1846 25.9922 Q134.9424 25.7969 134.0986 25.625 L133.7861 25.5469 Q132.958 25.375 132.583 25.0078 Q132.208 24.6406 132.208 24.0156 Q132.208 23.2344 132.7549 22.8203 Q133.3018 22.4062 134.3174 22.4062 Q134.8018 22.4062 135.2471 22.4766 Q135.6924 22.5469 136.0518 22.6875 Z"
         style="clip-path:url(#clipPath2); stroke:none;"
         clip-path="url(#clipPath2)"
         id="path155" />
    </g>
    <g
       style="fill:navy; text-rendering:geometricPrecision; font-size:8; stroke:navy;"
       id="g161">
      <text
         x="251"
         xml:space="preserve"
         y="16"
         style="clip-path:url(#clipPath4); stroke:none;"
         clip-path="url(#clipPath4)"
         id="text159">1, 2</text>
    </g>
    <g
       style="text-rendering:geometricPrecision;"
       id="g169">
      <path
         d="M349.9602 253.8512 L600.9392 253.8512 M600.9392 253.8512 L600.9392 193.3512"
         style="fill:none; clip-path:url(#clipPath5);"
         clip-path="url(#clipPath5)"
         id="path163" />
      <path
         d="M595.7392 193.3512 L600.9392 181.6512 L606.1392 193.3512 Z"
         style="fill:white; clip-path:url(#clipPath5); stroke:none;"
         clip-path="url(#clipPath5)"
         id="path165" />
      <path
         d="M595.7392 193.3512 L600.9392 181.6512 L606.1392 193.3512 Z"
         style="fill:none; clip-path:url(#clipPath5);"
         clip-path="url(#clipPath5)"
         id="path167" />
    </g>
    <g
       style="text-rendering:geometricPrecision;"
       id="g177">
      <path
         d="M282.4602 90.9417 L249.2864 151.4592"
         style="fill:none; clip-path:url(#clipPath6);"
         clip-path="url(#clipPath6)"
         id="path171" />
      <path
         d="M253.8462 153.9587 L243.6624 161.7188 L244.7265 148.9596 Z"
         style="fill:white; clip-path:url(#clipPath6); stroke:none;"
         clip-path="url(#clipPath6)"
         id="path173" />
      <path
         d="M253.8462 153.9587 L243.6624 161.7188 L244.7265 148.9596 Z"
         style="fill:none; clip-path:url(#clipPath6);"
         clip-path="url(#clipPath6)"
         id="path175" />
    </g>
    <g
       style="text-rendering:geometricPrecision;"
       id="g185">
      <path
         d="M244.9602 184.3512 L244.9602 204.3512 M244.9602 204.3512 L304.9602 204.3512 M304.9602 204.3512 L304.9602 232.3512"
         style="fill:none; clip-path:url(#clipPath7);"
         clip-path="url(#clipPath7)"
         id="path179" />
      <path
         d="M310.1602 232.3512 L304.9602 244.0512 L299.7602 232.3512 Z"
         style="fill:white; clip-path:url(#clipPath7); stroke:none;"
         clip-path="url(#clipPath7)"
         id="path181" />
      <path
         d="M310.1602 232.3512 L304.9602 244.0512 L299.7602 232.3512 Z"
         style="fill:none; clip-path:url(#clipPath7);"
         clip-path="url(#clipPath7)"
         id="path183" />
    </g>
    <g
       style="text-rendering:geometricPrecision;"
       id="g193">
      <path
         d="M623.4392 289.4604 L526.4274 323.3807"
         style="fill:none; clip-path:url(#clipPath8);"
         clip-path="url(#clipPath8)"
         id="path187" />
      <path
         d="M528.1437 328.2893 L515.383 327.2423 L524.7111 318.4721 Z"
         style="fill:white; clip-path:url(#clipPath8); stroke:none;"
         clip-path="url(#clipPath8)"
         id="path189" />
      <path
         d="M528.1437 328.2893 L515.383 327.2423 L524.7111 318.4721 Z"
         style="fill:none; clip-path:url(#clipPath8);"
         clip-path="url(#clipPath8)"
         id="path191" />
    </g>
    <g
       style="text-rendering:geometricPrecision;"
       id="g201">
      <path
         d="M327.4602 90.9417 L358.8147 151.3627"
         style="fill:none; clip-path:url(#clipPath9);"
         clip-path="url(#clipPath9)"
         id="path195" />
      <path
         d="M363.4303 148.9676 L364.2039 161.7477 L354.1992 153.7579 Z"
         style="fill:white; clip-path:url(#clipPath9); stroke:none;"
         clip-path="url(#clipPath9)"
         id="path197" />
      <path
         d="M363.4303 148.9676 L364.2039 161.7477 L354.1992 153.7579 Z"
         style="fill:none; clip-path:url(#clipPath9);"
         clip-path="url(#clipPath9)"
         id="path199" />
    </g>
    <g
       style="text-rendering:geometricPrecision;"
       id="g209">
      <path
         d="M392.796 402.9065 L392.796 365.814"
         style="fill:none; clip-path:url(#clipPath10);"
         clip-path="url(#clipPath10)"
         id="path203" />
      <path
         d="M387.596 365.814 L392.796 354.114 L397.996 365.814 Z"
         style="fill:white; clip-path:url(#clipPath10); stroke:none;"
         clip-path="url(#clipPath10)"
         id="path205" />
      <path
         d="M387.596 365.814 L392.796 354.114 L397.996 365.814 Z"
         style="fill:none; clip-path:url(#clipPath10);"
         clip-path="url(#clipPath10)"
         id="path207" />
    </g>
    <g
       style="text-rendering:geometricPrecision;"
       id="g217">
      <path
         d="M679.9392 90.9417 L649.9448 151.2917"
         style="fill:none; clip-path:url(#clipPath11);"
         clip-path="url(#clipPath11)"
         id="path211" />
      <path
         d="M654.6014 153.6061 L644.7375 161.769 L645.2882 148.9774 Z"
         style="fill:white; clip-path:url(#clipPath11); stroke:none;"
         clip-path="url(#clipPath11)"
         id="path213" />
      <path
         d="M654.6014 153.6061 L644.7375 161.769 L645.2882 148.9774 Z"
         style="fill:none; clip-path:url(#clipPath11);"
         clip-path="url(#clipPath11)"
         id="path215" />
    </g>
    <g
       style="text-rendering:geometricPrecision;"
       id="g225">
      <path
         d="M645.9392 184.3512 L645.9392 255.4604"
         style="fill:none; clip-path:url(#clipPath12);"
         clip-path="url(#clipPath12)"
         id="path219" />
      <path
         d="M651.1392 255.4604 L645.9392 267.1604 L640.7392 255.4604 Z"
         style="fill:white; clip-path:url(#clipPath12); stroke:none;"
         clip-path="url(#clipPath12)"
         id="path221" />
      <path
         d="M651.1392 255.4604 L645.9392 267.1604 L640.7392 255.4604 Z"
         style="fill:none; clip-path:url(#clipPath12);"
         clip-path="url(#clipPath12)"
         id="path223" />
    </g>
    <g
       style="text-rendering:geometricPrecision;"
       id="g233">
      <path
         d="M327.4602 241.3512 L327.4602 221.3512 M327.4602 221.3512 L494.1646 221.3512 M494.1646 221.3512 L494.1646 99.9417"
         style="fill:none; clip-path:url(#clipPath13);"
         clip-path="url(#clipPath13)"
         id="path227" />
      <path
         d="M488.9646 99.9417 L494.1646 88.2417 L499.3646 99.9417 Z"
         style="fill:white; clip-path:url(#clipPath13); stroke:none;"
         clip-path="url(#clipPath13)"
         id="path229" />
      <path
         d="M488.9646 99.9417 L494.1646 88.2417 L499.3646 99.9417 Z"
         style="fill:none; clip-path:url(#clipPath13);"
         clip-path="url(#clipPath13)"
         id="path231" />
    </g>
    <g
       style="text-rendering:geometricPrecision;"
       id="g241">
      <path
         d="M347.796 356.814 L347.796 393.9065"
         style="fill:none; clip-path:url(#clipPath14);"
         clip-path="url(#clipPath14)"
         id="path235" />
      <path
         d="M352.996 393.9065 L347.796 405.6065 L342.596 393.9065 Z"
         style="fill:white; clip-path:url(#clipPath14); stroke:none;"
         clip-path="url(#clipPath14)"
         id="path237" />
      <path
         d="M352.996 393.9065 L347.796 405.6065 L342.596 393.9065 Z"
         style="fill:none; clip-path:url(#clipPath14);"
         clip-path="url(#clipPath14)"
         id="path239" />
    </g>
    <g
       style="text-rendering:geometricPrecision;"
       id="g249">
      <path
         d="M304.9602 266.3512 L369.0635 320.5409"
         style="fill:none; clip-path:url(#clipPath15);"
         clip-path="url(#clipPath15)"
         id="path243" />
      <path
         d="M372.4205 316.5697 L377.9987 328.0943 L365.7065 324.5121 Z"
         style="fill:white; clip-path:url(#clipPath15); stroke:none;"
         clip-path="url(#clipPath15)"
         id="path245" />
      <path
         d="M372.4205 316.5697 L377.9987 328.0943 L365.7065 324.5121 Z"
         style="fill:none; clip-path:url(#clipPath15);"
         clip-path="url(#clipPath15)"
         id="path247" />
    </g>
    <g
       style="text-rendering:geometricPrecision;"
       id="g257">
      <path
         d="M516.6646 72.1917 L594.6832 152.881"
         style="fill:none; clip-path:url(#clipPath16);"
         clip-path="url(#clipPath16)"
         id="path251" />
      <path
         d="M598.4215 149.2665 L602.816 161.2922 L590.9449 156.4956 Z"
         style="fill:white; clip-path:url(#clipPath16); stroke:none;"
         clip-path="url(#clipPath16)"
         id="path253" />
      <path
         d="M598.4215 149.2665 L602.816 161.2922 L590.9449 156.4956 Z"
         style="fill:none; clip-path:url(#clipPath16);"
         clip-path="url(#clipPath16)"
         id="path255" />
    </g>
    <g
       style="text-rendering:geometricPrecision;"
       id="g265">
      <path
         d="M362.9602 184.3512 L362.9602 204.3512 M362.9602 204.3512 L304.9602 204.3512 M304.9602 204.3512 L304.9602 232.3512"
         style="fill:none; clip-path:url(#clipPath17);"
         clip-path="url(#clipPath17)"
         id="path259" />
      <path
         d="M310.1602 232.3512 L304.9602 244.0512 L299.7602 232.3512 Z"
         style="fill:white; clip-path:url(#clipPath17); stroke:none;"
         clip-path="url(#clipPath17)"
         id="path261" />
      <path
         d="M310.1602 232.3512 L304.9602 244.0512 L299.7602 232.3512 Z"
         style="fill:none; clip-path:url(#clipPath17);"
         clip-path="url(#clipPath17)"
         id="path263" />
    </g>
    <g
       style="text-rendering:geometricPrecision;"
       id="g273">
      <path
         d="M623.4392 184.3512 L623.4392 260.2125 M623.4392 260.2125 L446.9342 260.2125 M446.9342 260.2125 L446.9342 317.3512"
         style="fill:none; clip-path:url(#clipPath18);"
         clip-path="url(#clipPath18)"
         id="path267" />
      <path
         d="M452.1342 317.3512 L446.9342 329.0512 L441.7342 317.3512 Z"
         style="fill:white; clip-path:url(#clipPath18); stroke:none;"
         clip-path="url(#clipPath18)"
         id="path269" />
      <path
         d="M452.1342 317.3512 L446.9342 329.0512 L441.7342 317.3512 Z"
         style="fill:none; clip-path:url(#clipPath18);"
         clip-path="url(#clipPath18)"
         id="path271" />
    </g>
    <g
       style="text-rendering:geometricPrecision;"
       id="g277">
      <path
         d="M304.9392 336.3512 L304.9392 442.8512 C304.9392 448.374 309.4164 452.8512 314.9392 452.8512 L578.9292 452.8512 C584.4521 452.8512 588.9292 448.374 588.9292 442.8512 L588.9292 336.3512 C588.9292 330.8283 584.4521 326.3512 578.9292 326.3512 L314.9392 326.3512 C309.4164 326.3512 304.9392 330.8283 304.9392 336.3512 Z"
         style="fill:none; clip-path:url(#clipPath19);"
         clip-path="url(#clipPath19)"
         id="path275" />
    </g>
    <g
       style="text-rendering:geometricPrecision;"
       id="g281">
      <text
         x="251"
         xml:space="preserve"
         y="129"
         style="clip-path:url(#clipPath20); stroke:none;"
         clip-path="url(#clipPath20)"
         id="text279">+ effect</text>
    </g>
    <g
       style="font-weight:bold; text-rendering:geometricPrecision;"
       id="g285">
      <text
         x="98"
         xml:space="preserve"
         y="82"
         style="clip-path:url(#clipPath21); stroke:none;"
         clip-path="url(#clipPath21)"
         id="text283">Hypothalamus</text>
    </g>
    <g
       style="font-weight:bold; text-rendering:geometricPrecision;"
       id="g289">
      <text
         x="326"
         xml:space="preserve"
         y="348"
         style="clip-path:url(#clipPath22); stroke:none;"
         clip-path="url(#clipPath22)"
         id="text287">Growth plate</text>
    </g>
    <g
       style="fill:white; text-rendering:geometricPrecision; stroke:white;"
       id="g297">
      <path
         d="M259.9602 65.9417 L349.9602 65.9417 L349.9602 90.9417 L259.9602 90.9417 L259.9602 65.9417 Z"
         style="clip-path:url(#clipPath23); stroke:none;"
         clip-path="url(#clipPath23)"
         id="path291" />
      <path
         d="M259.9602 65.9417 L349.9602 65.9417 L349.9602 90.9417 L259.9602 90.9417 L259.9602 65.9417 Z"
         style="fill:none; clip-path:url(#clipPath23); stroke:black;"
         clip-path="url(#clipPath23)"
         id="path293" />
      <text
         x="287"
         y="82"
         style="fill:black; clip-path:url(#clipPath23); stroke:none;"
         xml:space="preserve"
         clip-path="url(#clipPath23)"
         id="text295">GnRH</text>
    </g>
    <g
       style="fill:white; text-rendering:geometricPrecision; stroke:white;"
       id="g305">
      <path
         d="M325.296 402.9065 L415.296 402.9065 L415.296 427.9065 L325.296 427.9065 L325.296 402.9065 Z"
         style="clip-path:url(#clipPath24); stroke:none;"
         clip-path="url(#clipPath24)"
         id="path299" />
      <path
         d="M325.296 402.9065 L415.296 402.9065 L415.296 427.9065 L325.296 427.9065 L325.296 402.9065 Z"
         style="fill:none; clip-path:url(#clipPath24); stroke:black;"
         clip-path="url(#clipPath24)"
         id="path301" />
      <text
         x="357"
         y="419"
         style="fill:black; clip-path:url(#clipPath24); stroke:none;"
         xml:space="preserve"
         clip-path="url(#clipPath24)"
         id="text303">IGF1</text>
    </g>
    <g
       style="fill:white; text-rendering:geometricPrecision; stroke:white;"
       id="g313">
      <path
         d="M426.6646 65.9417 L516.6646 65.9417 L516.6646 90.9417 L426.6646 90.9417 L426.6646 65.9417 Z"
         style="clip-path:url(#clipPath25); stroke:none;"
         clip-path="url(#clipPath25)"
         id="path307" />
      <path
         d="M426.6646 65.9417 L516.6646 65.9417 L516.6646 90.9417 L426.6646 90.9417 L426.6646 65.9417 Z"
         style="fill:none; clip-path:url(#clipPath25); stroke:black;"
         clip-path="url(#clipPath25)"
         id="path309" />
      <text
         x="454"
         y="82"
         style="fill:black; clip-path:url(#clipPath25); stroke:none;"
         xml:space="preserve"
         clip-path="url(#clipPath25)"
         id="text311">GHRH</text>
    </g>
    <g
       style="fill:white; text-rendering:geometricPrecision; stroke:white;"
       id="g321">
      <path
         d="M657.4392 65.9417 L747.4392 65.9417 L747.4392 90.9417 L657.4392 90.9417 L657.4392 65.9417 Z"
         style="clip-path:url(#clipPath26); stroke:none;"
         clip-path="url(#clipPath26)"
         id="path315" />
      <path
         d="M657.4392 65.9417 L747.4392 65.9417 L747.4392 90.9417 L657.4392 90.9417 L657.4392 65.9417 Z"
         style="fill:none; clip-path:url(#clipPath26); stroke:black;"
         clip-path="url(#clipPath26)"
         id="path317" />
      <text
         x="691"
         y="82"
         style="fill:black; clip-path:url(#clipPath26); stroke:none;"
         xml:space="preserve"
         clip-path="url(#clipPath26)"
         id="text319">SST</text>
    </g>
    <g
       style="fill:white; text-rendering:geometricPrecision; stroke:white;"
       id="g329">
      <path
         d="M578.4392 159.3512 L668.4392 159.3512 L668.4392 184.3512 L578.4392 184.3512 L578.4392 159.3512 Z"
         style="clip-path:url(#clipPath27); stroke:none;"
         clip-path="url(#clipPath27)"
         id="path323" />
      <path
         d="M578.4392 159.3512 L668.4392 159.3512 L668.4392 184.3512 L578.4392 184.3512 L578.4392 159.3512 Z"
         style="fill:none; clip-path:url(#clipPath27); stroke:black;"
         clip-path="url(#clipPath27)"
         id="path325" />
      <text
         x="614"
         y="176"
         style="fill:black; clip-path:url(#clipPath27); stroke:none;"
         xml:space="preserve"
         clip-path="url(#clipPath27)"
         id="text327">GH</text>
    </g>
    <g
       style="fill:white; text-rendering:geometricPrecision; stroke:white;"
       id="g337">
      <path
         d="M317.9602 159.3512 L407.9602 159.3512 L407.9602 184.3512 L317.9602 184.3512 L317.9602 159.3512 Z"
         style="clip-path:url(#clipPath28); stroke:none;"
         clip-path="url(#clipPath28)"
         id="path331" />
      <path
         d="M317.9602 159.3512 L407.9602 159.3512 L407.9602 184.3512 L317.9602 184.3512 L317.9602 159.3512 Z"
         style="fill:none; clip-path:url(#clipPath28); stroke:black;"
         clip-path="url(#clipPath28)"
         id="path333" />
      <text
         x="351"
         y="176"
         style="fill:black; clip-path:url(#clipPath28); stroke:none;"
         xml:space="preserve"
         clip-path="url(#clipPath28)"
         id="text335">FSH</text>
    </g>
    <g
       style="fill:white; text-rendering:geometricPrecision; stroke:white;"
       id="g345">
      <path
         d="M199.9602 159.3512 L289.9602 159.3512 L289.9602 184.3512 L199.9602 184.3512 L199.9602 159.3512 Z"
         style="clip-path:url(#clipPath29); stroke:none;"
         clip-path="url(#clipPath29)"
         id="path339" />
      <path
         d="M199.9602 159.3512 L289.9602 159.3512 L289.9602 184.3512 L199.9602 184.3512 L199.9602 159.3512 Z"
         style="fill:none; clip-path:url(#clipPath29); stroke:black;"
         clip-path="url(#clipPath29)"
         id="path341" />
      <text
         x="237"
         y="176"
         style="fill:black; clip-path:url(#clipPath29); stroke:none;"
         xml:space="preserve"
         clip-path="url(#clipPath29)"
         id="text343">LH</text>
    </g>
    <g
       style="fill:white; text-rendering:geometricPrecision; stroke:white;"
       id="g353">
      <path
         d="M259.9602 241.3512 L349.9602 241.3512 L349.9602 266.3512 L259.9602 266.3512 L259.9602 241.3512 Z"
         style="clip-path:url(#clipPath30); stroke:none;"
         clip-path="url(#clipPath30)"
         id="path347" />
      <path
         d="M259.9602 241.3512 L349.9602 241.3512 L349.9602 266.3512 L259.9602 266.3512 L259.9602 241.3512 Z"
         style="fill:none; clip-path:url(#clipPath30); stroke:blue;"
         clip-path="url(#clipPath30)"
         id="path349" />
      <text
         x="275"
         y="258"
         style="fill:blue; clip-path:url(#clipPath30); stroke:none;"
         xml:space="preserve"
         clip-path="url(#clipPath30)"
         id="text351">Estrogens</text>
    </g>
    <g
       style="fill:white; text-rendering:geometricPrecision; stroke:white;"
       id="g361">
      <path
         d="M578.4392 264.4604 L668.4392 264.4604 L668.4392 289.4604 L578.4392 289.4604 L578.4392 264.4604 Z"
         style="clip-path:url(#clipPath31); stroke:none;"
         clip-path="url(#clipPath31)"
         id="path355" />
      <path
         d="M578.4392 264.4604 L668.4392 264.4604 L668.4392 289.4604 L578.4392 289.4604 L578.4392 264.4604 Z"
         style="fill:none; clip-path:url(#clipPath31); stroke:black;"
         clip-path="url(#clipPath31)"
         id="path357" />
      <text
         x="610"
         y="281"
         style="fill:black; clip-path:url(#clipPath31); stroke:none;"
         xml:space="preserve"
         clip-path="url(#clipPath31)"
         id="text359">IGF1</text>
    </g>
    <g
       style="font-weight:bold; text-rendering:geometricPrecision;"
       id="g365">
      <text
         x="502"
         xml:space="preserve"
         y="369"
         style="clip-path:url(#clipPath32); stroke:none;"
         clip-path="url(#clipPath32)"
         id="text363">Autocrine</text>
    </g>
    <g
       style="font-weight:bold; text-rendering:geometricPrecision;"
       id="g369">
      <text
         x="502"
         xml:space="preserve"
         y="392"
         style="clip-path:url(#clipPath33); stroke:none;"
         clip-path="url(#clipPath33)"
         id="text367">Paracrine</text>
    </g>
    <g
       style="font-weight:bold; text-rendering:geometricPrecision;"
       id="g373">
      <text
         x="117"
         xml:space="preserve"
         y="176"
         style="clip-path:url(#clipPath34); stroke:none;"
         clip-path="url(#clipPath34)"
         id="text371">Pituitary</text>
    </g>
    <g
       style="font-weight:bold; text-rendering:geometricPrecision;"
       id="g377">
      <text
         x="110"
         xml:space="preserve"
         y="258"
         style="clip-path:url(#clipPath35); stroke:none;"
         clip-path="url(#clipPath35)"
         id="text375">Circulation</text>
    </g>
    <g
       style="font-weight:bold; text-rendering:geometricPrecision;"
       id="g381">
      <text
         x="129"
         xml:space="preserve"
         y="352"
         style="clip-path:url(#clipPath36); stroke:none;"
         clip-path="url(#clipPath36)"
         id="text379">Bone</text>
    </g>
    <g
       style="text-rendering:geometricPrecision;"
       id="g385">
      <text
         x="329"
         xml:space="preserve"
         y="125"
         style="clip-path:url(#clipPath37); stroke:none;"
         clip-path="url(#clipPath37)"
         id="text383">+ effect</text>
    </g>
    <g
       style="text-rendering:geometricPrecision;"
       id="g389">
      <text
         x="281"
         xml:space="preserve"
         y="202"
         style="clip-path:url(#clipPath38); stroke:none;"
         clip-path="url(#clipPath38)"
         id="text387">+ effect</text>
    </g>
    <g
       style="text-rendering:geometricPrecision;"
       id="g393">
      <text
         x="341"
         xml:space="preserve"
         y="293"
         style="clip-path:url(#clipPath39); stroke:none;"
         clip-path="url(#clipPath39)"
         id="text391">+ effect</text>
    </g>
    <g
       style="text-rendering:geometricPrecision;"
       id="g397">
      <text
         x="397"
         xml:space="preserve"
         y="386"
         style="clip-path:url(#clipPath40); stroke:none;"
         clip-path="url(#clipPath40)"
         id="text395">+ effect</text>
    </g>
    <g
       style="text-rendering:geometricPrecision;"
       id="g401">
      <text
         x="458"
         xml:space="preserve"
         y="251"
         style="clip-path:url(#clipPath41); stroke:none;"
         clip-path="url(#clipPath41)"
         id="text399">+ effect</text>
    </g>
    <g
       style="text-rendering:geometricPrecision;"
       id="g405">
      <text
         x="504"
         xml:space="preserve"
         y="292"
         style="clip-path:url(#clipPath42); stroke:none;"
         clip-path="url(#clipPath42)"
         id="text403">+ effect</text>
    </g>
    <g
       style="text-rendering:geometricPrecision;"
       id="g409">
      <text
         x="615"
         xml:space="preserve"
         y="310"
         style="clip-path:url(#clipPath43); stroke:none;"
         clip-path="url(#clipPath43)"
         id="text407">+ effect</text>
    </g>
    <g
       style="text-rendering:geometricPrecision;"
       id="g413">
      <text
         x="646"
         xml:space="preserve"
         y="224"
         style="clip-path:url(#clipPath44); stroke:none;"
         clip-path="url(#clipPath44)"
         id="text411">+ effect</text>
    </g>
    <g
       style="text-rendering:geometricPrecision;"
       id="g417">
      <text
         x="561"
         xml:space="preserve"
         y="123"
         style="clip-path:url(#clipPath45); stroke:none;"
         clip-path="url(#clipPath45)"
         id="text415">+ effect</text>
    </g>
    <g
       style="text-rendering:geometricPrecision;"
       id="g421">
      <text
         x="668"
         xml:space="preserve"
         y="120"
         style="clip-path:url(#clipPath46); stroke:none;"
         clip-path="url(#clipPath46)"
         id="text419">- effect</text>
    </g>
    <g
       style="text-rendering:geometricPrecision;"
       id="g425">
      <text
         x="432"
         xml:space="preserve"
         y="216"
         style="clip-path:url(#clipPath47); stroke:none;"
         clip-path="url(#clipPath47)"
         id="text423">? effect</text>
    </g>
  </g>
</svg>
