<?xml version="1.0" encoding="UTF-8" standalone="no"?>
<svg
   style="fill-opacity:1; color-rendering:auto; color-interpolation:auto; stroke:black; text-rendering:auto; stroke-linecap:square; stroke-miterlimit:10; stroke-opacity:1; shape-rendering:auto; fill:black; stroke-dasharray:none; font-weight:normal; stroke-width:1; font-family:'Dialog'; font-style:normal; stroke-linejoin:miter; font-size:12; stroke-dashoffset:0; image-rendering:auto;"
   width="523"
   height="307"
   version="1.1"
   id="svg233"
   xmlns="http://www.w3.org/2000/svg"
   xmlns:svg="http://www.w3.org/2000/svg">
  <!--Generated by the Batik Graphics2D SVG Generator-->
  <defs
     id="genericDefs" />
  <g
     id="g231">
    <defs
       id="defs1">
      <clipPath
         clipPathUnits="userSpaceOnUse"
         id="clipPath1">
        <path
           d="M0 0 L539 0 L539 315 L0 315 L0 0 Z"
           id="path3" />
      </clipPath>
      <clipPath
         clipPathUnits="userSpaceOnUse"
         id="clipPath2">
        <path
           d="M0 0 L0 200 L200 200 L200 0 Z"
           id="path6" />
      </clipPath>
      <clipPath
         clipPathUnits="userSpaceOnUse"
         id="clipPath3">
        <path
           d="M208 16 L208 37 L219 37 L219 16 Z"
           id="path9" />
      </clipPath>
      <clipPath
         clipPathUnits="userSpaceOnUse"
         id="clipPath4">
        <path
           d="M207.4551 3.918 L218.5449 3.918 L218.5449 19.2305 L207.4551 19.2305 L207.4551 3.918 Z"
           id="path12" />
      </clipPath>
      <clipPath
         clipPathUnits="userSpaceOnUse"
         id="clipPath5">
        <path
           d="M317.9565 69.8056 L317.9565 129.5367 L329.8953 129.5367 L329.8953 69.8056 Z"
           id="path15" />
      </clipPath>
      <clipPath
         clipPathUnits="userSpaceOnUse"
         id="clipPath6">
        <path
           d="M373.6948 132.3362 L373.6948 144.2749 L427.8875 144.2749 L427.8875 132.3362 Z"
           id="path18" />
      </clipPath>
      <clipPath
         clipPathUnits="userSpaceOnUse"
         id="clipPath7">
        <path
           d="M233.4259 128.7056 L233.4259 149.2056 L267.7259 149.2056 L267.7259 128.7056 Z"
           id="path21" />
      </clipPath>
      <clipPath
         clipPathUnits="userSpaceOnUse"
         id="clipPath8">
        <path
           d="M103.283 128.7056 L103.283 149.2056 L147.7259 149.2056 L147.7259 128.7056 Z"
           id="path24" />
      </clipPath>
      <clipPath
         clipPathUnits="userSpaceOnUse"
         id="clipPath9">
        <path
           d="M322.6948 178.1475 L322.6948 190.0863 L429.8882 190.0863 L429.8882 178.1475 Z"
           id="path27" />
      </clipPath>
      <clipPath
         clipPathUnits="userSpaceOnUse"
         id="clipPath10">
        <path
           d="M307.5565 147.8056 L307.5565 222.9202 L324.4259 222.9202 L324.4259 147.8056 Z"
           id="path30" />
      </clipPath>
      <clipPath
         clipPathUnits="userSpaceOnUse"
         id="clipPath11">
        <path
           d="M113.8384 115.6984 L113.8384 136.5182 L134.8987 136.5182 L134.8987 115.6984 Z"
           id="path33" />
      </clipPath>
      <clipPath
         clipPathUnits="userSpaceOnUse"
         id="clipPath12">
        <path
           d="M23.4259 127.8056 L23.4259 148.8056 L104.4259 148.8056 L104.4259 127.8056 Z"
           id="path36" />
      </clipPath>
      <clipPath
         clipPathUnits="userSpaceOnUse"
         id="clipPath13">
        <path
           d="M283.4259 245.2891 L283.4259 266.2891 L364.4259 266.2891 L364.4259 245.2891 Z"
           id="path39" />
      </clipPath>
      <clipPath
         clipPathUnits="userSpaceOnUse"
         id="clipPath14">
        <path
           d="M23.283 127.8056 L23.283 148.8056 L104.283 148.8056 L104.283 127.8056 Z"
           id="path42" />
      </clipPath>
      <clipPath
         clipPathUnits="userSpaceOnUse"
         id="clipPath15">
        <path
           d="M283.4259 265.2891 L283.4259 286.2891 L364.4259 286.2891 L364.4259 265.2891 Z"
           id="path45" />
      </clipPath>
      <clipPath
         clipPathUnits="userSpaceOnUse"
         id="clipPath16">
        <path
           d="M283.4259 49.8056 L283.4259 70.8056 L364.4259 70.8056 L364.4259 49.8056 Z"
           id="path48" />
      </clipPath>
      <clipPath
         clipPathUnits="userSpaceOnUse"
         id="clipPath17">
        <path
           d="M152.4259 127.8056 L152.4259 148.8056 L234.4259 148.8056 L234.4259 127.8056 Z"
           id="path51" />
      </clipPath>
      <clipPath
         clipPathUnits="userSpaceOnUse"
         id="clipPath18">
        <path
           d="M272.4259 127.8056 L272.4259 148.8056 L375.4259 148.8056 L375.4259 127.8056 Z"
           id="path54" />
      </clipPath>
      <clipPath
         clipPathUnits="userSpaceOnUse"
         id="clipPath19">
        <path
           d="M283.4259 225.2891 L283.4259 246.2891 L364.4259 246.2891 L364.4259 225.2891 Z"
           id="path57" />
      </clipPath>
      <clipPath
         clipPathUnits="userSpaceOnUse"
         id="clipPath20">
        <path
           d="M426.8875 127.8056 L426.8875 148.8056 L507.8875 148.8056 L507.8875 127.8056 Z"
           id="path60" />
      </clipPath>
      <clipPath
         clipPathUnits="userSpaceOnUse"
         id="clipPath21">
        <path
           d="M428.8875 173.7451 L428.8875 194.7451 L509.8875 194.7451 L509.8875 173.7451 Z"
           id="path63" />
      </clipPath>
      <clipPath
         clipPathUnits="userSpaceOnUse"
         id="clipPath22">
        <path
           d="M396.3729 115.6242 L396.3729 136.444 L417.4332 136.444 L417.4332 115.6242 Z"
           id="path66" />
      </clipPath>
      <clipPath
         clipPathUnits="userSpaceOnUse"
         id="clipPath23">
        <path
           d="M395.7685 161.6794 L395.7685 182.4991 L416.8287 182.4991 L416.8287 161.6794 Z"
           id="path69" />
      </clipPath>
    </defs>
    <g
       style="fill:white; stroke:white;"
       id="g75">
      <rect
         x="0"
         width="539"
         height="315"
         y="0"
         style="stroke:none;"
         id="rect73" />
    </g>
    <g
       style="font-weight:bold; font-size:10; text-rendering:geometricPrecision;"
       id="g85">
      <path
         d="M0.0469 6.7031 L6.7656 6.7031 L6.7656 8.125 L4.3438 8.125 L4.3438 14 L2.4688 14 L2.4688 8.125 L0.0469 8.125 L0.0469 6.7031 ZM7.665 8.5312 L9.415 8.5312 L9.415 14 L7.665 14 L7.665 8.5312 ZM7.665 6.4062 L9.415 6.4062 L9.415 7.8281 L7.665 7.8281 L7.665 6.4062 ZM12.999 6.9844 L12.999 8.5312 L14.7959 8.5312 L14.7959 9.7812 L12.999 9.7812 L12.999 12.0938 Q12.999 12.4844 13.1475 12.6172 Q13.2959 12.75 13.749 12.75 L14.6553 12.75 L14.6553 14 L13.1553 14 Q12.1084 14 11.6787 13.5703 Q11.249 13.1406 11.249 12.0938 L11.249 9.7812 L10.374 9.7812 L10.374 8.5312 L11.249 8.5312 L11.249 6.9844 L12.999 6.9844 ZM15.873 6.4062 L17.623 6.4062 L17.623 14 L15.873 14 L15.873 6.4062 ZM24.7539 11.25 L24.7539 11.75 L20.6758 11.75 Q20.7383 12.3594 21.1133 12.6719 Q21.4883 12.9844 22.1758 12.9844 Q22.7227 12.9844 23.3086 12.8203 Q23.8945 12.6562 24.5039 12.3125 L24.5039 13.6719 Q23.8789 13.9062 23.2617 14.0234 Q22.6445 14.1406 22.0195 14.1406 Q20.5352 14.1406 19.7148 13.3828 Q18.8945 12.625 18.8945 11.2656 Q18.8945 9.9375 19.6992 9.1719 Q20.5039 8.4062 21.9258 8.4062 Q23.207 8.4062 23.9805 9.1797 Q24.7539 9.9531 24.7539 11.25 ZM22.957 10.6719 Q22.957 10.1719 22.668 9.8672 Q22.3789 9.5625 21.9102 9.5625 Q21.3945 9.5625 21.082 9.8438 Q20.7695 10.125 20.6914 10.6719 L22.957 10.6719 ZM26.3643 8.5312 L28.1143 8.5312 L28.1143 10.4219 L26.3643 10.4219 L26.3643 8.5312 ZM26.3643 12.1094 L28.1143 12.1094 L28.1143 14 L26.3643 14 L26.3643 12.1094 Z"
         style="clip-path:url(#clipPath2); stroke:none;"
         clip-path="url(#clipPath2)"
         id="path77" />
      <path
         d="M38.9844 6.7031 L39.9688 6.7031 L39.9688 9.7031 L43.5469 9.7031 L43.5469 6.7031 L44.5312 6.7031 L44.5312 14 L43.5469 14 L43.5469 10.5312 L39.9688 10.5312 L39.9688 14 L38.9844 14 L38.9844 6.7031 ZM49.2383 6.4062 L49.2383 7.1562 L48.3789 7.1562 Q47.8945 7.1562 47.707 7.3516 Q47.5195 7.5469 47.5195 8.0469 L47.5195 8.5312 L48.9883 8.5312 L48.9883 9.2344 L47.5195 9.2344 L47.5195 14 L46.6133 14 L46.6133 9.2344 L45.7539 9.2344 L45.7539 8.5312 L46.6133 8.5312 L46.6133 8.1562 Q46.6133 7.2344 47.0352 6.8203 Q47.457 6.4062 48.3789 6.4062 L49.2383 6.4062 ZM54.665 11.0469 L54.665 11.4844 L50.5244 11.4844 Q50.5869 12.4062 51.0869 12.8906 Q51.5869 13.375 52.4775 13.375 Q52.9932 13.375 53.4854 13.25 Q53.9775 13.125 54.4463 12.875 L54.4463 13.7188 Q53.9619 13.9219 53.4541 14.0312 Q52.9463 14.1406 52.4307 14.1406 Q51.1182 14.1406 50.3525 13.3828 Q49.5869 12.625 49.5869 11.3125 Q49.5869 9.9688 50.3135 9.1875 Q51.04 8.4062 52.2744 8.4062 Q53.3838 8.4062 54.0244 9.1094 Q54.665 9.8125 54.665 11.0469 ZM53.7588 10.7812 Q53.7588 10.0469 53.3525 9.6016 Q52.9463 9.1562 52.29 9.1562 Q51.5244 9.1562 51.0791 9.5859 Q50.6338 10.0156 50.5557 10.7812 L53.7588 10.7812 ZM63.9961 11.0469 L63.9961 11.4844 L59.8555 11.4844 Q59.918 12.4062 60.418 12.8906 Q60.918 13.375 61.8086 13.375 Q62.3242 13.375 62.8164 13.25 Q63.3086 13.125 63.7773 12.875 L63.7773 13.7188 Q63.293 13.9219 62.7852 14.0312 Q62.2773 14.1406 61.7617 14.1406 Q60.4492 14.1406 59.6836 13.3828 Q58.918 12.625 58.918 11.3125 Q58.918 9.9688 59.6445 9.1875 Q60.3711 8.4062 61.6055 8.4062 Q62.7148 8.4062 63.3555 9.1094 Q63.9961 9.8125 63.9961 11.0469 ZM63.0898 10.7812 Q63.0898 10.0469 62.6836 9.6016 Q62.2773 9.1562 61.6211 9.1562 Q60.8555 9.1562 60.4102 9.5859 Q59.9648 10.0156 59.8867 10.7812 L63.0898 10.7812 ZM68.2422 6.4062 L68.2422 7.1562 L67.3828 7.1562 Q66.8984 7.1562 66.7109 7.3516 Q66.5234 7.5469 66.5234 8.0469 L66.5234 8.5312 L67.9922 8.5312 L67.9922 9.2344 L66.5234 9.2344 L66.5234 14 L65.6172 14 L65.6172 9.2344 L64.7578 9.2344 L64.7578 8.5312 L65.6172 8.5312 L65.6172 8.1562 Q65.6172 7.2344 66.0391 6.8203 Q66.4609 6.4062 67.3828 6.4062 L68.2422 6.4062 ZM71.7627 6.4062 L71.7627 7.1562 L70.9033 7.1562 Q70.4189 7.1562 70.2314 7.3516 Q70.0439 7.5469 70.0439 8.0469 L70.0439 8.5312 L71.5127 8.5312 L71.5127 9.2344 L70.0439 9.2344 L70.0439 14 L69.1377 14 L69.1377 9.2344 L68.2783 9.2344 L68.2783 8.5312 L69.1377 8.5312 L69.1377 8.1562 Q69.1377 7.2344 69.5596 6.8203 Q69.9814 6.4062 70.9033 6.4062 L71.7627 6.4062 ZM77.1895 11.0469 L77.1895 11.4844 L73.0488 11.4844 Q73.1113 12.4062 73.6113 12.8906 Q74.1113 13.375 75.002 13.375 Q75.5176 13.375 76.0098 13.25 Q76.502 13.125 76.9707 12.875 L76.9707 13.7188 Q76.4863 13.9219 75.9785 14.0312 Q75.4707 14.1406 74.9551 14.1406 Q73.6426 14.1406 72.877 13.3828 Q72.1113 12.625 72.1113 11.3125 Q72.1113 9.9688 72.8379 9.1875 Q73.5645 8.4062 74.7988 8.4062 Q75.9082 8.4062 76.5488 9.1094 Q77.1895 9.8125 77.1895 11.0469 ZM76.2832 10.7812 Q76.2832 10.0469 75.877 9.6016 Q75.4707 9.1562 74.8145 9.1562 Q74.0488 9.1562 73.6035 9.5859 Q73.1582 10.0156 73.0801 10.7812 L76.2832 10.7812 ZM82.5918 8.7344 L82.5918 9.5781 Q82.2168 9.375 81.834 9.2656 Q81.4512 9.1562 81.0605 9.1562 Q80.1855 9.1562 79.7012 9.7109 Q79.2168 10.2656 79.2168 11.2656 Q79.2168 12.2656 79.7012 12.8203 Q80.1855 13.375 81.0605 13.375 Q81.4512 13.375 81.834 13.2734 Q82.2168 13.1719 82.5918 12.9531 L82.5918 13.7969 Q82.2168 13.9688 81.8184 14.0547 Q81.4199 14.1406 80.9668 14.1406 Q79.7168 14.1406 78.9902 13.3672 Q78.2637 12.5938 78.2637 11.2656 Q78.2637 9.9375 78.998 9.1719 Q79.7324 8.4062 81.0137 8.4062 Q81.4355 8.4062 81.8262 8.4844 Q82.2168 8.5625 82.5918 8.7344 ZM85.043 6.9844 L85.043 8.5312 L86.9023 8.5312 L86.9023 9.2344 L85.043 9.2344 L85.043 12.2031 Q85.043 12.8594 85.2305 13.0547 Q85.418 13.25 85.9805 13.25 L86.9023 13.25 L86.9023 14 L85.9805 14 Q84.9336 14 84.5352 13.6094 Q84.1367 13.2188 84.1367 12.2031 L84.1367 9.2344 L83.4805 9.2344 L83.4805 8.5312 L84.1367 8.5312 L84.1367 6.9844 L85.043 6.9844 ZM93.377 9.1562 Q92.6582 9.1562 92.2363 9.7188 Q91.8145 10.2812 91.8145 11.2656 Q91.8145 12.25 92.2285 12.8125 Q92.6426 13.375 93.377 13.375 Q94.0957 13.375 94.5176 12.8125 Q94.9395 12.25 94.9395 11.2656 Q94.9395 10.2969 94.5176 9.7266 Q94.0957 9.1562 93.377 9.1562 ZM93.377 8.4062 Q94.5488 8.4062 95.2207 9.1641 Q95.8926 9.9219 95.8926 11.2656 Q95.8926 12.6094 95.2207 13.375 Q94.5488 14.1406 93.377 14.1406 Q92.2051 14.1406 91.5332 13.375 Q90.8613 12.6094 90.8613 11.2656 Q90.8613 9.9219 91.5332 9.1641 Q92.2051 8.4062 93.377 8.4062 ZM101.917 10.7031 L101.917 14 L101.0264 14 L101.0264 10.7344 Q101.0264 9.9531 100.7217 9.5703 Q100.417 9.1875 99.8076 9.1875 Q99.0889 9.1875 98.667 9.6484 Q98.2451 10.1094 98.2451 10.9062 L98.2451 14 L97.3389 14 L97.3389 8.5312 L98.2451 8.5312 L98.2451 9.375 Q98.5732 8.8906 99.0107 8.6484 Q99.4482 8.4062 100.0107 8.4062 Q100.9482 8.4062 101.4326 8.9844 Q101.917 9.5625 101.917 10.7031 ZM111.4336 10.7031 L111.4336 14 L110.543 14 L110.543 10.7344 Q110.543 9.9531 110.2383 9.5703 Q109.9336 9.1875 109.3242 9.1875 Q108.6055 9.1875 108.1836 9.6484 Q107.7617 10.1094 107.7617 10.9062 L107.7617 14 L106.8555 14 L106.8555 6.4062 L107.7617 6.4062 L107.7617 9.375 Q108.0898 8.8906 108.5273 8.6484 Q108.9648 8.4062 109.5273 8.4062 Q110.4648 8.4062 110.9492 8.9844 Q111.4336 9.5625 111.4336 10.7031 ZM117.9121 11.0469 L117.9121 11.4844 L113.7715 11.4844 Q113.834 12.4062 114.334 12.8906 Q114.834 13.375 115.7246 13.375 Q116.2402 13.375 116.7324 13.25 Q117.2246 13.125 117.6934 12.875 L117.6934 13.7188 Q117.209 13.9219 116.7012 14.0312 Q116.1934 14.1406 115.6777 14.1406 Q114.3652 14.1406 113.5996 13.3828 Q112.834 12.625 112.834 11.3125 Q112.834 9.9688 113.5605 9.1875 Q114.2871 8.4062 115.5215 8.4062 Q116.6309 8.4062 117.2715 9.1094 Q117.9121 9.8125 117.9121 11.0469 ZM117.0059 10.7812 Q117.0059 10.0469 116.5996 9.6016 Q116.1934 9.1562 115.5371 9.1562 Q114.7715 9.1562 114.3262 9.5859 Q113.8809 10.0156 113.8027 10.7812 L117.0059 10.7812 ZM120.252 13.1719 L120.252 16.0781 L119.3457 16.0781 L119.3457 8.5312 L120.252 8.5312 L120.252 9.3594 Q120.5332 8.875 120.9629 8.6406 Q121.3926 8.4062 122.002 8.4062 Q123.002 8.4062 123.6191 9.1953 Q124.2363 9.9844 124.2363 11.2656 Q124.2363 12.5625 123.6191 13.3516 Q123.002 14.1406 122.002 14.1406 Q121.3926 14.1406 120.9629 13.9062 Q120.5332 13.6719 120.252 13.1719 ZM123.3145 11.2656 Q123.3145 10.2812 122.9004 9.7188 Q122.4863 9.1562 121.7832 9.1562 Q121.0645 9.1562 120.6582 9.7188 Q120.252 10.2812 120.252 11.2656 Q120.252 12.2656 120.6582 12.8281 Q121.0645 13.3906 121.7832 13.3906 Q122.4863 13.3906 122.9004 12.8281 Q123.3145 12.2656 123.3145 11.2656 ZM129.6621 8.7344 L129.6621 9.5781 Q129.2871 9.375 128.9043 9.2656 Q128.5215 9.1562 128.1309 9.1562 Q127.2559 9.1562 126.7715 9.7109 Q126.2871 10.2656 126.2871 11.2656 Q126.2871 12.2656 126.7715 12.8203 Q127.2559 13.375 128.1309 13.375 Q128.5215 13.375 128.9043 13.2734 Q129.2871 13.1719 129.6621 12.9531 L129.6621 13.7969 Q129.2871 13.9688 128.8887 14.0547 Q128.4902 14.1406 128.0371 14.1406 Q126.7871 14.1406 126.0605 13.3672 Q125.334 12.5938 125.334 11.2656 Q125.334 9.9375 126.0684 9.1719 Q126.8027 8.4062 128.084 8.4062 Q128.5059 8.4062 128.8965 8.4844 Q129.2871 8.5625 129.6621 8.7344 ZM131.2227 8.5312 L132.1289 8.5312 L132.1289 14 L131.2227 14 L131.2227 8.5312 ZM131.2227 6.4062 L132.1289 6.4062 L132.1289 7.5469 L131.2227 7.5469 L131.2227 6.4062 ZM137.6104 9.3594 L137.6104 6.4062 L138.501 6.4062 L138.501 14 L137.6104 14 L137.6104 13.1719 Q137.3291 13.6719 136.8916 13.9062 Q136.4541 14.1406 135.8447 14.1406 Q134.8604 14.1406 134.2354 13.3516 Q133.6104 12.5625 133.6104 11.2656 Q133.6104 9.9844 134.2354 9.1953 Q134.8604 8.4062 135.8447 8.4062 Q136.4541 8.4062 136.8916 8.6406 Q137.3291 8.875 137.6104 9.3594 ZM134.5479 11.2656 Q134.5479 12.2656 134.9541 12.8281 Q135.3604 13.3906 136.0791 13.3906 Q136.7822 13.3906 137.1963 12.8281 Q137.6104 12.2656 137.6104 11.2656 Q137.6104 10.2812 137.1963 9.7188 Q136.7822 9.1562 136.0791 9.1562 Q135.3604 9.1562 134.9541 9.7188 Q134.5479 10.2812 134.5479 11.2656 ZM140.3486 8.5312 L141.2549 8.5312 L141.2549 14 L140.3486 14 L140.3486 8.5312 ZM140.3486 6.4062 L141.2549 6.4062 L141.2549 7.5469 L140.3486 7.5469 L140.3486 6.4062 ZM147.6738 10.7031 L147.6738 14 L146.7832 14 L146.7832 10.7344 Q146.7832 9.9531 146.4785 9.5703 Q146.1738 9.1875 145.5645 9.1875 Q144.8457 9.1875 144.4238 9.6484 Q144.002 10.1094 144.002 10.9062 L144.002 14 L143.0957 14 L143.0957 8.5312 L144.002 8.5312 L144.002 9.375 Q144.3301 8.8906 144.7676 8.6484 Q145.2051 8.4062 145.7676 8.4062 Q146.7051 8.4062 147.1895 8.9844 Q147.6738 9.5625 147.6738 10.7031 ZM153.5186 13.1719 L153.5186 16.0781 L152.6123 16.0781 L152.6123 8.5312 L153.5186 8.5312 L153.5186 9.3594 Q153.7998 8.875 154.2295 8.6406 Q154.6592 8.4062 155.2686 8.4062 Q156.2686 8.4062 156.8857 9.1953 Q157.5029 9.9844 157.5029 11.2656 Q157.5029 12.5625 156.8857 13.3516 Q156.2686 14.1406 155.2686 14.1406 Q154.6592 14.1406 154.2295 13.9062 Q153.7998 13.6719 153.5186 13.1719 ZM156.5811 11.2656 Q156.5811 10.2812 156.167 9.7188 Q155.7529 9.1562 155.0498 9.1562 Q154.3311 9.1562 153.9248 9.7188 Q153.5186 10.2812 153.5186 11.2656 Q153.5186 12.2656 153.9248 12.8281 Q154.3311 13.3906 155.0498 13.3906 Q155.7529 13.3906 156.167 12.8281 Q156.5811 12.2656 156.5811 11.2656 ZM162.1631 9.375 Q162.0068 9.2812 161.835 9.2422 Q161.6631 9.2031 161.4443 9.2031 Q160.6787 9.2031 160.2725 9.6953 Q159.8662 10.1875 159.8662 11.125 L159.8662 14 L158.96 14 L158.96 8.5312 L159.8662 8.5312 L159.8662 9.375 Q160.1475 8.875 160.6006 8.6406 Q161.0537 8.4062 161.71 8.4062 Q161.8037 8.4062 161.9131 8.4141 Q162.0225 8.4219 162.1631 8.4531 L162.1631 9.375 ZM165.2275 9.1562 Q164.5088 9.1562 164.0869 9.7188 Q163.665 10.2812 163.665 11.2656 Q163.665 12.25 164.0791 12.8125 Q164.4932 13.375 165.2275 13.375 Q165.9463 13.375 166.3682 12.8125 Q166.79 12.25 166.79 11.2656 Q166.79 10.2969 166.3682 9.7266 Q165.9463 9.1562 165.2275 9.1562 ZM165.2275 8.4062 Q166.3994 8.4062 167.0713 9.1641 Q167.7432 9.9219 167.7432 11.2656 Q167.7432 12.6094 167.0713 13.375 Q166.3994 14.1406 165.2275 14.1406 Q164.0557 14.1406 163.3838 13.375 Q162.7119 12.6094 162.7119 11.2656 Q162.7119 9.9219 163.3838 9.1641 Q164.0557 8.4062 165.2275 8.4062 ZM172.8301 9.3594 L172.8301 6.4062 L173.7207 6.4062 L173.7207 14 L172.8301 14 L172.8301 13.1719 Q172.5488 13.6719 172.1113 13.9062 Q171.6738 14.1406 171.0645 14.1406 Q170.0801 14.1406 169.4551 13.3516 Q168.8301 12.5625 168.8301 11.2656 Q168.8301 9.9844 169.4551 9.1953 Q170.0801 8.4062 171.0645 8.4062 Q171.6738 8.4062 172.1113 8.6406 Q172.5488 8.875 172.8301 9.3594 ZM169.7676 11.2656 Q169.7676 12.2656 170.1738 12.8281 Q170.5801 13.3906 171.2988 13.3906 Q172.002 13.3906 172.416 12.8281 Q172.8301 12.2656 172.8301 11.2656 Q172.8301 10.2812 172.416 9.7188 Q172.002 9.1562 171.2988 9.1562 Q170.5801 9.1562 170.1738 9.7188 Q169.7676 10.2812 169.7676 11.2656 ZM175.4746 11.8438 L175.4746 8.5312 L176.3809 8.5312 L176.3809 11.8125 Q176.3809 12.5781 176.6855 12.9688 Q176.9902 13.3594 177.584 13.3594 Q178.3184 13.3594 178.7402 12.8984 Q179.1621 12.4375 179.1621 11.625 L179.1621 8.5312 L180.0684 8.5312 L180.0684 14 L179.1621 14 L179.1621 13.1562 Q178.834 13.6562 178.4043 13.8984 Q177.9746 14.1406 177.3965 14.1406 Q176.459 14.1406 175.9668 13.5547 Q175.4746 12.9688 175.4746 11.8438 ZM177.7402 8.4062 L177.7402 8.4062 ZM185.8438 8.7344 L185.8438 9.5781 Q185.4688 9.375 185.0859 9.2656 Q184.7031 9.1562 184.3125 9.1562 Q183.4375 9.1562 182.9531 9.7109 Q182.4688 10.2656 182.4688 11.2656 Q182.4688 12.2656 182.9531 12.8203 Q183.4375 13.375 184.3125 13.375 Q184.7031 13.375 185.0859 13.2734 Q185.4688 13.1719 185.8438 12.9531 L185.8438 13.7969 Q185.4688 13.9688 185.0703 14.0547 Q184.6719 14.1406 184.2188 14.1406 Q182.9688 14.1406 182.2422 13.3672 Q181.5156 12.5938 181.5156 11.2656 Q181.5156 9.9375 182.25 9.1719 Q182.9844 8.4062 184.2656 8.4062 Q184.6875 8.4062 185.0781 8.4844 Q185.4688 8.5625 185.8438 8.7344 ZM188.2949 6.9844 L188.2949 8.5312 L190.1543 8.5312 L190.1543 9.2344 L188.2949 9.2344 L188.2949 12.2031 Q188.2949 12.8594 188.4824 13.0547 Q188.6699 13.25 189.2324 13.25 L190.1543 13.25 L190.1543 14 L189.2324 14 Q188.1855 14 187.7871 13.6094 Q187.3887 13.2188 187.3887 12.2031 L187.3887 9.2344 L186.7324 9.2344 L186.7324 8.5312 L187.3887 8.5312 L187.3887 6.9844 L188.2949 6.9844 ZM191.3252 8.5312 L192.2314 8.5312 L192.2314 14 L191.3252 14 L191.3252 8.5312 ZM191.3252 6.4062 L192.2314 6.4062 L192.2314 7.5469 L191.3252 7.5469 L191.3252 6.4062 ZM196.2285 9.1562 Q195.5098 9.1562 195.0879 9.7188 Q194.666 10.2812 194.666 11.2656 Q194.666 12.25 195.0801 12.8125 Q195.4941 13.375 196.2285 13.375 Q196.9473 13.375 197.3691 12.8125 Q197.791 12.25 197.791 11.2656 Q197.791 10.2969 197.3691 9.7266 Q196.9473 9.1562 196.2285 9.1562 ZM196.2285 8.4062 Q197.4004 8.4062 198.0723 9.1641 Q198.7441 9.9219 198.7441 11.2656 Q198.7441 12.6094 198.0723 13.375 Q197.4004 14.1406 196.2285 14.1406 Q195.0566 14.1406 194.3848 13.375 Q193.7129 12.6094 193.7129 11.2656 Q193.7129 9.9219 194.3848 9.1641 Q195.0566 8.4062 196.2285 8.4062 ZM204.7686 10.7031 L204.7686 14 L203.8779 14 L203.8779 10.7344 Q203.8779 9.9531 203.5732 9.5703 Q203.2686 9.1875 202.6592 9.1875 Q201.9404 9.1875 201.5186 9.6484 Q201.0967 10.1094 201.0967 10.9062 L201.0967 14 L200.1904 14 L200.1904 8.5312 L201.0967 8.5312 L201.0967 9.375 Q201.4248 8.8906 201.8623 8.6484 Q202.2998 8.4062 202.8623 8.4062 Q203.7998 8.4062 204.2842 8.9844 Q204.7686 9.5625 204.7686 10.7031 Z"
         style="clip-path:url(#clipPath2); stroke:none;"
         clip-path="url(#clipPath2)"
         id="path79" />
      <path
         d="M4.25 21.9375 Q3.3906 21.9375 2.9141 22.5703 Q2.4375 23.2031 2.4375 24.3594 Q2.4375 25.5156 2.9141 26.1484 Q3.3906 26.7812 4.25 26.7812 Q5.1094 26.7812 5.5859 26.1484 Q6.0625 25.5156 6.0625 24.3594 Q6.0625 23.2031 5.5859 22.5703 Q5.1094 21.9375 4.25 21.9375 ZM4.25 20.5781 Q6 20.5781 7 21.5859 Q8 22.5938 8 24.3594 Q8 26.125 7 27.1328 Q6 28.1406 4.25 28.1406 Q2.5 28.1406 1.5 27.1328 Q0.5 26.125 0.5 24.3594 Q0.5 22.5938 1.5 21.5859 Q2.5 20.5781 4.25 20.5781 ZM13.4072 24.0156 Q13.1729 23.9062 12.9463 23.8594 Q12.7197 23.8125 12.4854 23.8125 Q11.8135 23.8125 11.4541 24.2422 Q11.0947 24.6719 11.0947 25.4844 L11.0947 28 L9.3447 28 L9.3447 22.5312 L11.0947 22.5312 L11.0947 23.4219 Q11.4229 22.8906 11.8604 22.6484 Q12.2979 22.4062 12.9072 22.4062 Q13.001 22.4062 13.1025 22.4062 Q13.2041 22.4062 13.3916 22.4375 L13.4072 24.0156 ZM17.9951 27.0781 Q17.6357 27.5469 17.1982 27.7734 Q16.7607 28 16.1982 28 Q15.1982 28 14.542 27.2109 Q13.8857 26.4219 13.8857 25.2031 Q13.8857 23.9688 14.542 23.1875 Q15.1982 22.4062 16.1982 22.4062 Q16.7607 22.4062 17.1982 22.6328 Q17.6357 22.8594 17.9951 23.3438 L17.9951 22.5312 L19.7451 22.5312 L19.7451 27.4531 Q19.7451 28.7656 18.917 29.4609 Q18.0889 30.1562 16.5107 30.1562 Q15.9951 30.1562 15.5186 30.0781 Q15.042 30 14.5576 29.8438 L14.5576 28.4844 Q15.0107 28.75 15.4482 28.875 Q15.8857 29 16.3389 29 Q17.1982 29 17.5967 28.625 Q17.9951 28.25 17.9951 27.4531 L17.9951 27.0781 ZM16.8389 23.6719 Q16.292 23.6719 15.9951 24.0703 Q15.6982 24.4688 15.6982 25.2031 Q15.6982 25.9531 15.9873 26.3438 Q16.2764 26.7344 16.8389 26.7344 Q17.3857 26.7344 17.6904 26.3281 Q17.9951 25.9219 17.9951 25.2031 Q17.9951 24.4688 17.6904 24.0703 Q17.3857 23.6719 16.8389 23.6719 ZM23.8877 25.5312 Q23.3408 25.5312 23.0596 25.7188 Q22.7783 25.9062 22.7783 26.2656 Q22.7783 26.6094 23.0049 26.7969 Q23.2314 26.9844 23.6221 26.9844 Q24.1221 26.9844 24.458 26.625 Q24.7939 26.2656 24.7939 25.7344 L24.7939 25.5312 L23.8877 25.5312 ZM26.5596 24.875 L26.5596 28 L24.7939 28 L24.7939 27.1875 Q24.4346 27.6875 23.9971 27.9141 Q23.5596 28.1406 22.9346 28.1406 Q22.0752 28.1406 21.5518 27.6484 Q21.0283 27.1562 21.0283 26.3594 Q21.0283 25.3906 21.6846 24.9453 Q22.3408 24.5 23.7627 24.5 L24.7939 24.5 L24.7939 24.3594 Q24.7939 23.9531 24.4658 23.7578 Q24.1377 23.5625 23.4502 23.5625 Q22.8877 23.5625 22.4033 23.6719 Q21.9189 23.7812 21.4971 24.0156 L21.4971 22.6719 Q22.0596 22.5469 22.6299 22.4766 Q23.2002 22.4062 23.7627 22.4062 Q25.2471 22.4062 25.9033 22.9844 Q26.5596 23.5625 26.5596 24.875 ZM33.6826 24.6719 L33.6826 28 L31.917 28 L31.917 27.4531 L31.917 25.4531 Q31.917 24.75 31.8857 24.4766 Q31.8545 24.2031 31.7764 24.0781 Q31.6826 23.9062 31.5029 23.8125 Q31.3232 23.7188 31.1045 23.7188 Q30.5576 23.7188 30.2451 24.1406 Q29.9326 24.5625 29.9326 25.3125 L29.9326 28 L28.1826 28 L28.1826 22.5312 L29.9326 22.5312 L29.9326 23.3281 Q30.3232 22.8594 30.7686 22.6328 Q31.2139 22.4062 31.7451 22.4062 Q32.6982 22.4062 33.1904 22.9844 Q33.6826 23.5625 33.6826 24.6719 ZM35.3018 22.5312 L37.0518 22.5312 L37.0518 28 L35.3018 28 L35.3018 22.5312 ZM35.3018 20.4062 L37.0518 20.4062 L37.0518 21.8281 L35.3018 21.8281 L35.3018 20.4062 ZM42.9951 22.7031 L42.9951 24.0312 Q42.4326 23.7969 41.9092 23.6797 Q41.3857 23.5625 40.9326 23.5625 Q40.4326 23.5625 40.1904 23.6875 Q39.9482 23.8125 39.9482 24.0625 Q39.9482 24.2812 40.1279 24.3906 Q40.3076 24.5 40.792 24.5625 L41.0889 24.5938 Q42.4326 24.7656 42.9014 25.1562 Q43.3701 25.5469 43.3701 26.3906 Q43.3701 27.2656 42.7217 27.7031 Q42.0732 28.1406 40.792 28.1406 Q40.2607 28.1406 39.6826 28.0547 Q39.1045 27.9688 38.4795 27.7969 L38.4795 26.4688 Q39.0107 26.7188 39.5576 26.8516 Q40.1045 26.9844 40.667 26.9844 Q41.1826 26.9844 41.4404 26.8438 Q41.6982 26.7031 41.6982 26.4219 Q41.6982 26.1875 41.5264 26.0703 Q41.3545 25.9531 40.8232 25.8906 L40.5107 25.8438 Q39.3389 25.7031 38.8701 25.3047 Q38.4014 24.9062 38.4014 24.1094 Q38.4014 23.2344 38.9951 22.8203 Q39.5889 22.4062 40.8232 22.4062 Q41.3076 22.4062 41.8389 22.4766 Q42.3701 22.5469 42.9951 22.7031 ZM49.7441 23.4375 Q50.0723 22.9375 50.5332 22.6719 Q50.9941 22.4062 51.541 22.4062 Q52.4785 22.4062 52.9707 22.9844 Q53.4629 23.5625 53.4629 24.6719 L53.4629 28 L51.7129 28 L51.7129 25.1406 Q51.7129 25.0781 51.7129 25.0156 Q51.7129 24.9531 51.7129 24.8281 Q51.7129 24.2344 51.5488 23.9766 Q51.3848 23.7188 50.9941 23.7188 Q50.4941 23.7188 50.2285 24.125 Q49.9629 24.5312 49.9473 25.3125 L49.9473 28 L48.1816 28 L48.1816 25.1406 Q48.1816 24.2344 48.0254 23.9766 Q47.8691 23.7188 47.4785 23.7188 Q46.9785 23.7188 46.7051 24.1328 Q46.4316 24.5469 46.4316 25.3125 L46.4316 28 L44.666 28 L44.666 22.5312 L46.4316 22.5312 L46.4316 23.3281 Q46.7441 22.875 47.166 22.6406 Q47.5879 22.4062 48.0879 22.4062 Q48.6504 22.4062 49.0879 22.6797 Q49.5254 22.9531 49.7441 23.4375 ZM55.3828 22.5312 L57.1328 22.5312 L57.1328 24.4219 L55.3828 24.4219 L55.3828 22.5312 ZM55.3828 26.1094 L57.1328 26.1094 L57.1328 28 L55.3828 28 L55.3828 26.1094 Z"
         style="clip-path:url(#clipPath2); stroke:none;"
         clip-path="url(#clipPath2)"
         id="path81" />
      <path
         d="M66.9844 20.7031 L67.9688 20.7031 L67.9688 23.7031 L71.5469 23.7031 L71.5469 20.7031 L72.5312 20.7031 L72.5312 28 L71.5469 28 L71.5469 24.5312 L67.9688 24.5312 L67.9688 28 L66.9844 28 L66.9844 20.7031 ZM76.582 23.1562 Q75.8633 23.1562 75.4414 23.7188 Q75.0195 24.2812 75.0195 25.2656 Q75.0195 26.25 75.4336 26.8125 Q75.8477 27.375 76.582 27.375 Q77.3008 27.375 77.7227 26.8125 Q78.1445 26.25 78.1445 25.2656 Q78.1445 24.2969 77.7227 23.7266 Q77.3008 23.1562 76.582 23.1562 ZM76.582 22.4062 Q77.7539 22.4062 78.4258 23.1641 Q79.0977 23.9219 79.0977 25.2656 Q79.0977 26.6094 78.4258 27.375 Q77.7539 28.1406 76.582 28.1406 Q75.4102 28.1406 74.7383 27.375 Q74.0664 26.6094 74.0664 25.2656 Q74.0664 23.9219 74.7383 23.1641 Q75.4102 22.4062 76.582 22.4062 ZM84.8408 23.5781 Q85.1689 22.9688 85.6377 22.6875 Q86.1064 22.4062 86.7471 22.4062 Q87.6064 22.4062 88.0674 23 Q88.5283 23.5938 88.5283 24.7031 L88.5283 28 L87.6221 28 L87.6221 24.7344 Q87.6221 23.9375 87.3486 23.5625 Q87.0752 23.1875 86.4971 23.1875 Q85.7939 23.1875 85.3955 23.6484 Q84.9971 24.1094 84.9971 24.9062 L84.9971 28 L84.0908 28 L84.0908 24.7344 Q84.0908 23.9375 83.8096 23.5625 Q83.5283 23.1875 82.9502 23.1875 Q82.2627 23.1875 81.8564 23.6484 Q81.4502 24.1094 81.4502 24.9062 L81.4502 28 L80.5439 28 L80.5439 22.5312 L81.4502 22.5312 L81.4502 23.375 Q81.7627 22.875 82.1924 22.6406 Q82.6221 22.4062 83.2002 22.4062 Q83.8096 22.4062 84.2236 22.7031 Q84.6377 23 84.8408 23.5781 ZM92.4414 23.1562 Q91.7227 23.1562 91.3008 23.7188 Q90.8789 24.2812 90.8789 25.2656 Q90.8789 26.25 91.293 26.8125 Q91.707 27.375 92.4414 27.375 Q93.1602 27.375 93.582 26.8125 Q94.0039 26.25 94.0039 25.2656 Q94.0039 24.2969 93.582 23.7266 Q93.1602 23.1562 92.4414 23.1562 ZM92.4414 22.4062 Q93.6133 22.4062 94.2852 23.1641 Q94.957 23.9219 94.957 25.2656 Q94.957 26.6094 94.2852 27.375 Q93.6133 28.1406 92.4414 28.1406 Q91.2695 28.1406 90.5977 27.375 Q89.9258 26.6094 89.9258 25.2656 Q89.9258 23.9219 90.5977 23.1641 Q91.2695 22.4062 92.4414 22.4062 ZM103.0977 22.6875 L103.0977 23.5469 Q102.7227 23.3438 102.3164 23.25 Q101.9102 23.1562 101.457 23.1562 Q100.8008 23.1562 100.4648 23.3594 Q100.1289 23.5625 100.1289 23.9688 Q100.1289 24.2812 100.3633 24.4609 Q100.5977 24.6406 101.332 24.7969 L101.6289 24.875 Q102.5977 25.0781 102.9961 25.4531 Q103.3945 25.8281 103.3945 26.4844 Q103.3945 27.25 102.793 27.6953 Q102.1914 28.1406 101.1445 28.1406 Q100.6914 28.1406 100.2148 28.0547 Q99.7383 27.9688 99.2227 27.7969 L99.2227 26.875 Q99.7227 27.125 100.1992 27.2578 Q100.6758 27.3906 101.1602 27.3906 Q101.7852 27.3906 102.1289 27.1719 Q102.4727 26.9531 102.4727 26.5625 Q102.4727 26.1875 102.2305 25.9922 Q101.9883 25.7969 101.1445 25.625 L100.832 25.5469 Q100.0039 25.375 99.6289 25.0078 Q99.2539 24.6406 99.2539 24.0156 Q99.2539 23.2344 99.8008 22.8203 Q100.3477 22.4062 101.3633 22.4062 Q101.8477 22.4062 102.293 22.4766 Q102.7383 22.5469 103.0977 22.6875 ZM107.3076 25.25 Q106.2295 25.25 105.8076 25.5 Q105.3857 25.75 105.3857 26.3438 Q105.3857 26.8281 105.6982 27.1094 Q106.0107 27.3906 106.5576 27.3906 Q107.3076 27.3906 107.7607 26.8594 Q108.2139 26.3281 108.2139 25.4531 L108.2139 25.25 L107.3076 25.25 ZM109.1045 24.875 L109.1045 28 L108.2139 28 L108.2139 27.1719 Q107.9014 27.6719 107.4404 27.9062 Q106.9795 28.1406 106.3232 28.1406 Q105.4795 28.1406 104.9795 27.6719 Q104.4795 27.2031 104.4795 26.4062 Q104.4795 25.4844 105.1045 25.0156 Q105.7295 24.5469 106.9482 24.5469 L108.2139 24.5469 L108.2139 24.4531 Q108.2139 23.8438 107.7998 23.5 Q107.3857 23.1562 106.6514 23.1562 Q106.1826 23.1562 105.7373 23.2734 Q105.292 23.3906 104.8857 23.6094 L104.8857 22.7812 Q105.3857 22.5938 105.8467 22.5 Q106.3076 22.4062 106.7451 22.4062 Q107.9326 22.4062 108.5186 23.0156 Q109.1045 23.625 109.1045 24.875 ZM111.8262 27.1719 L111.8262 30.0781 L110.9199 30.0781 L110.9199 22.5312 L111.8262 22.5312 L111.8262 23.3594 Q112.1074 22.875 112.5371 22.6406 Q112.9668 22.4062 113.5762 22.4062 Q114.5762 22.4062 115.1934 23.1953 Q115.8105 23.9844 115.8105 25.2656 Q115.8105 26.5625 115.1934 27.3516 Q114.5762 28.1406 113.5762 28.1406 Q112.9668 28.1406 112.5371 27.9062 Q112.1074 27.6719 111.8262 27.1719 ZM114.8887 25.2656 Q114.8887 24.2812 114.4746 23.7188 Q114.0605 23.1562 113.3574 23.1562 Q112.6387 23.1562 112.2324 23.7188 Q111.8262 24.2812 111.8262 25.2656 Q111.8262 26.2656 112.2324 26.8281 Q112.6387 27.3906 113.3574 27.3906 Q114.0605 27.3906 114.4746 26.8281 Q114.8887 26.2656 114.8887 25.2656 ZM117.2988 22.5312 L118.2051 22.5312 L118.2051 28 L117.2988 28 L117.2988 22.5312 ZM117.2988 20.4062 L118.2051 20.4062 L118.2051 21.5469 L117.2988 21.5469 L117.2988 20.4062 ZM124.7646 25.0469 L124.7646 25.4844 L120.624 25.4844 Q120.6865 26.4062 121.1865 26.8906 Q121.6865 27.375 122.5771 27.375 Q123.0928 27.375 123.585 27.25 Q124.0771 27.125 124.5459 26.875 L124.5459 27.7188 Q124.0615 27.9219 123.5537 28.0312 Q123.0459 28.1406 122.5303 28.1406 Q121.2178 28.1406 120.4521 27.3828 Q119.6865 26.625 119.6865 25.3125 Q119.6865 23.9688 120.4131 23.1875 Q121.1396 22.4062 122.374 22.4062 Q123.4834 22.4062 124.124 23.1094 Q124.7646 23.8125 124.7646 25.0469 ZM123.8584 24.7812 Q123.8584 24.0469 123.4521 23.6016 Q123.0459 23.1562 122.3896 23.1562 Q121.624 23.1562 121.1787 23.5859 Q120.7334 24.0156 120.6553 24.7812 L123.8584 24.7812 ZM130.7764 24.7031 L130.7764 28 L129.8857 28 L129.8857 24.7344 Q129.8857 23.9531 129.5811 23.5703 Q129.2764 23.1875 128.667 23.1875 Q127.9482 23.1875 127.5264 23.6484 Q127.1045 24.1094 127.1045 24.9062 L127.1045 28 L126.1982 28 L126.1982 22.5312 L127.1045 22.5312 L127.1045 23.375 Q127.4326 22.8906 127.8701 22.6484 Q128.3076 22.4062 128.8701 22.4062 Q129.8076 22.4062 130.292 22.9844 Q130.7764 23.5625 130.7764 24.7031 ZM136.0518 22.6875 L136.0518 23.5469 Q135.6768 23.3438 135.2705 23.25 Q134.8643 23.1562 134.4111 23.1562 Q133.7549 23.1562 133.4189 23.3594 Q133.083 23.5625 133.083 23.9688 Q133.083 24.2812 133.3174 24.4609 Q133.5518 24.6406 134.2861 24.7969 L134.583 24.875 Q135.5518 25.0781 135.9502 25.4531 Q136.3486 25.8281 136.3486 26.4844 Q136.3486 27.25 135.7471 27.6953 Q135.1455 28.1406 134.0986 28.1406 Q133.6455 28.1406 133.1689 28.0547 Q132.6924 27.9688 132.1768 27.7969 L132.1768 26.875 Q132.6768 27.125 133.1533 27.2578 Q133.6299 27.3906 134.1143 27.3906 Q134.7393 27.3906 135.083 27.1719 Q135.4268 26.9531 135.4268 26.5625 Q135.4268 26.1875 135.1846 25.9922 Q134.9424 25.7969 134.0986 25.625 L133.7861 25.5469 Q132.958 25.375 132.583 25.0078 Q132.208 24.6406 132.208 24.0156 Q132.208 23.2344 132.7549 22.8203 Q133.3018 22.4062 134.3174 22.4062 Q134.8018 22.4062 135.2471 22.4766 Q135.6924 22.5469 136.0518 22.6875 Z"
         style="clip-path:url(#clipPath2); stroke:none;"
         clip-path="url(#clipPath2)"
         id="path83" />
    </g>
    <g
       style="fill:navy; text-rendering:geometricPrecision; font-size:8; stroke:navy;"
       id="g89">
      <text
         x="210"
         xml:space="preserve"
         y="16"
         style="clip-path:url(#clipPath4); stroke:none;"
         clip-path="url(#clipPath4)"
         id="text87">1</text>
    </g>
    <g
       style="text-rendering:geometricPrecision;"
       id="g95">
      <path
         d="M323.9259 70.3056 L323.9259 128.3056"
         style="fill:none; clip-path:url(#clipPath5);"
         clip-path="url(#clipPath5)"
         id="path91" />
      <path
         d="M323.9259 128.3056 L329.1259 116.6056 L318.7259 116.6056 Z"
         style="clip-path:url(#clipPath5); fill-rule:evenodd; stroke:none;"
         clip-path="url(#clipPath5)"
         id="path93" />
    </g>
    <g
       style="text-rendering:geometricPrecision;"
       id="g101">
      <path
         d="M427.3875 138.3056 L374.9259 138.3056"
         style="fill:none; clip-path:url(#clipPath6);"
         clip-path="url(#clipPath6)"
         id="path97" />
      <path
         d="M374.9259 138.3056 L386.6259 143.5056 L386.6259 133.1056 Z"
         style="clip-path:url(#clipPath6); fill-rule:evenodd; stroke:none;"
         clip-path="url(#clipPath6)"
         id="path99" />
    </g>
    <g
       style="text-rendering:geometricPrecision;"
       id="g109">
      <path
         d="M233.9259 138.3056 L265.9259 138.3056"
         style="fill:none; clip-path:url(#clipPath7);"
         clip-path="url(#clipPath7)"
         id="path103" />
      <path
         d="M265.9259 129.2056 L267.2259 129.2056 L267.2259 148.7056 L265.9259 148.7056 L265.9259 129.2056 Z"
         style="fill:white; clip-path:url(#clipPath7); stroke:none;"
         clip-path="url(#clipPath7)"
         id="path105" />
      <path
         d="M265.9259 129.2056 L267.2259 129.2056 L267.2259 148.7056 L265.9259 148.7056 L265.9259 129.2056 Z"
         style="fill:none; clip-path:url(#clipPath7);"
         clip-path="url(#clipPath7)"
         id="path107" />
    </g>
    <g
       style="text-rendering:geometricPrecision;"
       id="g117">
      <path
         d="M103.783 138.3056 L145.9259 138.3056"
         style="fill:none; clip-path:url(#clipPath8);"
         clip-path="url(#clipPath8)"
         id="path111" />
      <path
         d="M145.9259 129.2056 L147.2259 129.2056 L147.2259 148.7056 L145.9259 148.7056 L145.9259 129.2056 Z"
         style="fill:white; clip-path:url(#clipPath8); stroke:none;"
         clip-path="url(#clipPath8)"
         id="path113" />
      <path
         d="M145.9259 129.2056 L147.2259 129.2056 L147.2259 148.7056 L145.9259 148.7056 L145.9259 129.2056 Z"
         style="fill:none; clip-path:url(#clipPath8);"
         clip-path="url(#clipPath8)"
         id="path115" />
    </g>
    <g
       style="text-rendering:geometricPrecision;"
       id="g123">
      <path
         d="M429.3875 184.2451 L323.9259 184.1001"
         style="fill:none; clip-path:url(#clipPath9);"
         clip-path="url(#clipPath9)"
         id="path119" />
      <path
         d="M323.9259 184.1001 L335.6188 189.3162 L335.6331 178.9162 Z"
         style="clip-path:url(#clipPath9); fill-rule:evenodd; stroke:none;"
         clip-path="url(#clipPath9)"
         id="path121" />
    </g>
    <g
       style="text-rendering:geometricPrecision;"
       id="g129">
      <path
         d="M323.9259 148.3056 L323.9259 204.7891"
         style="fill:none; clip-path:url(#clipPath10);"
         clip-path="url(#clipPath10)"
         id="path125" />
      <path
         d="M323.9259 199.5891 L313.5259 199.5891 L313.5259 209.9891 L308.3259 209.9891 L313.5259 221.6891 L318.7259 209.9891 L313.5259 209.9891"
         style="fill:none; clip-path:url(#clipPath10);"
         clip-path="url(#clipPath10)"
         id="path127" />
    </g>
    <g
       style="fill:white; text-rendering:geometricPrecision; stroke:white;"
       id="g137">
      <path
         d="M134.3987 126.1083 C134.3987 131.5814 129.9081 136.0182 124.3686 136.0182 C118.8291 136.0182 114.3384 131.5814 114.3384 126.1083 C114.3384 120.6353 118.8291 116.1984 124.3686 116.1984 C129.9081 116.1984 134.3987 120.6353 134.3987 126.1083 Z"
         style="clip-path:url(#clipPath11); stroke:none;"
         clip-path="url(#clipPath11)"
         id="path131" />
      <path
         d="M134.3987 126.1083 C134.3987 131.5814 129.9081 136.0182 124.3686 136.0182 C118.8291 136.0182 114.3384 131.5814 114.3384 126.1083 C114.3384 120.6353 118.8291 116.1984 124.3686 116.1984 C129.9081 116.1984 134.3987 120.6353 134.3987 126.1083 Z"
         style="fill:none; clip-path:url(#clipPath11); stroke:black;"
         clip-path="url(#clipPath11)"
         id="path133" />
      <text
         x="121"
         y="130"
         style="font-size:10; clip-path:url(#clipPath11); fill:black; stroke:none;"
         xml:space="preserve"
         clip-path="url(#clipPath11)"
         id="text135">A</text>
    </g>
    <g
       style="font-size:10; text-rendering:geometricPrecision;"
       id="g141">
      <text
         x="50"
         xml:space="preserve"
         y="142"
         style="clip-path:url(#clipPath12); stroke:none;"
         clip-path="url(#clipPath12)"
         id="text139">Label</text>
    </g>
    <g
       style="fill:white; text-rendering:geometricPrecision; stroke:white;"
       id="g149">
      <path
         d="M283.9259 245.7891 L363.9259 245.7891 L363.9259 265.7891 L283.9259 265.7891 L283.9259 245.7891 Z"
         style="clip-path:url(#clipPath13); stroke:none;"
         clip-path="url(#clipPath13)"
         id="path143" />
      <path
         d="M283.9259 245.7891 L363.9259 245.7891 L363.9259 265.7891 L283.9259 265.7891 L283.9259 245.7891 Z"
         style="fill:none; clip-path:url(#clipPath13); stroke:black;"
         clip-path="url(#clipPath13)"
         id="path145" />
      <text
         x="309"
         y="259"
         style="font-size:10; clip-path:url(#clipPath13); fill:black; stroke:none;"
         xml:space="preserve"
         clip-path="url(#clipPath13)"
         id="text147">HAMP</text>
    </g>
    <g
       style="fill:white; text-rendering:geometricPrecision; stroke:white;"
       id="g157">
      <path
         d="M23.783 128.3056 L103.783 128.3056 L103.783 148.3056 L23.783 148.3056 L23.783 128.3056 Z"
         style="clip-path:url(#clipPath14); stroke:none;"
         clip-path="url(#clipPath14)"
         id="path151" />
      <path
         d="M23.783 128.3056 L103.783 128.3056 L103.783 148.3056 L23.783 148.3056 L23.783 128.3056 Z"
         style="fill:none; clip-path:url(#clipPath14); stroke:black;"
         clip-path="url(#clipPath14)"
         id="path153" />
      <text
         x="54"
         y="142"
         style="font-size:10; clip-path:url(#clipPath14); fill:black; stroke:none;"
         xml:space="preserve"
         clip-path="url(#clipPath14)"
         id="text155">HFE</text>
    </g>
    <g
       style="fill:white; text-rendering:geometricPrecision; stroke:white;"
       id="g165">
      <path
         d="M283.9259 265.7891 L363.9259 265.7891 L363.9259 285.7891 L283.9259 285.7891 L283.9259 265.7891 Z"
         style="clip-path:url(#clipPath15); stroke:none;"
         clip-path="url(#clipPath15)"
         id="path159" />
      <path
         d="M283.9259 265.7891 L363.9259 265.7891 L363.9259 285.7891 L283.9259 285.7891 L283.9259 265.7891 Z"
         style="fill:none; clip-path:url(#clipPath15); stroke:black;"
         clip-path="url(#clipPath15)"
         id="path161" />
      <text
         x="306"
         y="279"
         style="font-size:10; clip-path:url(#clipPath15); fill:black; stroke:none;"
         xml:space="preserve"
         clip-path="url(#clipPath15)"
         id="text163">SMAD7</text>
    </g>
    <g
       style="fill:white; text-rendering:geometricPrecision; stroke:white;"
       id="g173">
      <path
         d="M283.9259 50.3056 L363.9259 50.3056 L363.9259 70.3056 L283.9259 70.3056 L283.9259 50.3056 Z"
         style="clip-path:url(#clipPath16); stroke:none;"
         clip-path="url(#clipPath16)"
         id="path167" />
      <path
         d="M283.9259 50.3056 L363.9259 50.3056 L363.9259 70.3056 L283.9259 70.3056 L283.9259 50.3056 Z"
         style="fill:none; clip-path:url(#clipPath16); stroke:black;"
         clip-path="url(#clipPath16)"
         id="path169" />
      <text
         x="310"
         y="64"
         style="font-size:10; clip-path:url(#clipPath16); fill:black; stroke:none;"
         xml:space="preserve"
         clip-path="url(#clipPath16)"
         id="text171">BMP6</text>
    </g>
    <g
       style="fill:white; text-rendering:geometricPrecision; stroke:white;"
       id="g181">
      <path
         d="M152.9259 128.3056 L233.9259 128.3056 L233.9259 148.3056 L152.9259 148.3056 L152.9259 128.3056 Z"
         style="clip-path:url(#clipPath17); stroke:none;"
         clip-path="url(#clipPath17)"
         id="path175" />
      <path
         d="M152.9259 128.3056 L233.9259 128.3056 L233.9259 148.3056 L152.9259 148.3056 L152.9259 128.3056 Z"
         style="fill:none; clip-path:url(#clipPath17); stroke:black;"
         clip-path="url(#clipPath17)"
         id="path177" />
      <text
         x="170"
         y="142"
         style="font-size:10; clip-path:url(#clipPath17); fill:black; stroke:none;"
         xml:space="preserve"
         clip-path="url(#clipPath17)"
         id="text179">TMPRSS6</text>
    </g>
    <g
       style="fill:white; text-rendering:geometricPrecision; stroke:white;"
       id="g189">
      <path
         d="M272.9259 128.3056 L374.9259 128.3056 L374.9259 148.3056 L272.9259 148.3056 L272.9259 128.3056 Z"
         style="clip-path:url(#clipPath18); stroke:none;"
         clip-path="url(#clipPath18)"
         id="path183" />
      <path
         d="M272.9259 128.3056 L374.9259 128.3056 L374.9259 148.3056 L272.9259 148.3056 L272.9259 128.3056 Z"
         style="fill:none; clip-path:url(#clipPath18); stroke:black;"
         clip-path="url(#clipPath18)"
         id="path185" />
      <text
         x="311"
         y="142"
         style="font-size:10; clip-path:url(#clipPath18); fill:black; stroke:none;"
         xml:space="preserve"
         clip-path="url(#clipPath18)"
         id="text187">HFE2</text>
    </g>
    <g
       style="fill:white; text-rendering:geometricPrecision; stroke:white;"
       id="g197">
      <path
         d="M283.9259 225.7891 L363.9259 225.7891 L363.9259 245.7891 L283.9259 245.7891 L283.9259 225.7891 Z"
         style="clip-path:url(#clipPath19); stroke:none;"
         clip-path="url(#clipPath19)"
         id="path191" />
      <path
         d="M283.9259 225.7891 L363.9259 225.7891 L363.9259 245.7891 L283.9259 245.7891 L283.9259 225.7891 Z"
         style="fill:none; clip-path:url(#clipPath19); stroke:black;"
         clip-path="url(#clipPath19)"
         id="path193" />
      <text
         x="315"
         y="239"
         style="font-size:10; clip-path:url(#clipPath19); fill:black; stroke:none;"
         xml:space="preserve"
         clip-path="url(#clipPath19)"
         id="text195">ID1</text>
    </g>
    <g
       style="fill:white; text-rendering:geometricPrecision; stroke:white;"
       id="g205">
      <path
         d="M427.3875 128.3056 L507.3875 128.3056 L507.3875 148.3056 L427.3875 148.3056 L427.3875 128.3056 Z"
         style="clip-path:url(#clipPath20); stroke:none;"
         clip-path="url(#clipPath20)"
         id="path199" />
      <path
         d="M427.3875 128.3056 L507.3875 128.3056 L507.3875 148.3056 L427.3875 148.3056 L427.3875 128.3056 Z"
         style="fill:none; clip-path:url(#clipPath20); stroke:black;"
         clip-path="url(#clipPath20)"
         id="path201" />
      <text
         x="458"
         y="142"
         style="font-size:10; clip-path:url(#clipPath20); fill:black; stroke:none;"
         xml:space="preserve"
         clip-path="url(#clipPath20)"
         id="text203">HFE</text>
    </g>
    <g
       style="fill:white; text-rendering:geometricPrecision; stroke:white;"
       id="g213">
      <path
         d="M429.3875 174.2451 L509.3875 174.2451 L509.3875 194.2451 L429.3875 194.2451 L429.3875 174.2451 Z"
         style="clip-path:url(#clipPath21); stroke:none;"
         clip-path="url(#clipPath21)"
         id="path207" />
      <path
         d="M429.3875 174.2451 L509.3875 174.2451 L509.3875 194.2451 L429.3875 194.2451 L429.3875 174.2451 Z"
         style="fill:none; clip-path:url(#clipPath21); stroke:black;"
         clip-path="url(#clipPath21)"
         id="path209" />
      <text
         x="460"
         y="188"
         style="font-size:10; clip-path:url(#clipPath21); fill:black; stroke:none;"
         xml:space="preserve"
         clip-path="url(#clipPath21)"
         id="text211">HFE</text>
    </g>
    <g
       style="fill:white; text-rendering:geometricPrecision; stroke:white;"
       id="g221">
      <path
         d="M416.9332 126.0341 C416.9332 131.5072 412.4425 135.944 406.903 135.944 C401.3636 135.944 396.8729 131.5072 396.8729 126.0341 C396.8729 120.561 401.3636 116.1242 406.903 116.1242 C412.4425 116.1242 416.9332 120.561 416.9332 126.0341 Z"
         style="clip-path:url(#clipPath22); stroke:none;"
         clip-path="url(#clipPath22)"
         id="path215" />
      <path
         d="M416.9332 126.0341 C416.9332 131.5072 412.4425 135.944 406.903 135.944 C401.3636 135.944 396.8729 131.5072 396.8729 126.0341 C396.8729 120.561 401.3636 116.1242 406.903 116.1242 C412.4425 116.1242 416.9332 120.561 416.9332 126.0341 Z"
         style="fill:none; clip-path:url(#clipPath22); stroke:black;"
         clip-path="url(#clipPath22)"
         id="path217" />
      <text
         x="403"
         y="129"
         style="font-size:10; clip-path:url(#clipPath22); fill:black; stroke:none;"
         xml:space="preserve"
         clip-path="url(#clipPath22)"
         id="text219">B</text>
    </g>
    <g
       style="fill:white; text-rendering:geometricPrecision; stroke:white;"
       id="g229">
      <path
         d="M416.3287 172.0892 C416.3287 177.5623 411.8381 181.9991 406.2986 181.9991 C400.7591 181.9991 396.2685 177.5623 396.2685 172.0892 C396.2685 166.6162 400.7591 162.1794 406.2986 162.1794 C411.8381 162.1794 416.3287 166.6162 416.3287 172.0892 Z"
         style="clip-path:url(#clipPath23); stroke:none;"
         clip-path="url(#clipPath23)"
         id="path223" />
      <path
         d="M416.3287 172.0892 C416.3287 177.5623 411.8381 181.9991 406.2986 181.9991 C400.7591 181.9991 396.2685 177.5623 396.2685 172.0892 C396.2685 166.6162 400.7591 162.1794 406.2986 162.1794 C411.8381 162.1794 416.3287 166.6162 416.3287 172.0892 Z"
         style="fill:none; clip-path:url(#clipPath23); stroke:black;"
         clip-path="url(#clipPath23)"
         id="path225" />
      <text
         x="403"
         y="175"
         style="font-size:10; clip-path:url(#clipPath23); fill:black; stroke:none;"
         xml:space="preserve"
         clip-path="url(#clipPath23)"
         id="text227">C</text>
    </g>
  </g>
</svg>
