<?xml version="1.0" encoding="UTF-8" standalone="no"?>
<svg
   style="fill-opacity:1; color-rendering:auto; color-interpolation:auto; stroke:black; text-rendering:auto; stroke-linecap:square; stroke-miterlimit:10; stroke-opacity:1; shape-rendering:auto; fill:black; stroke-dasharray:none; font-weight:normal; stroke-width:1; font-family:'Dialog'; font-style:normal; stroke-linejoin:miter; font-size:12; stroke-dashoffset:0; image-rendering:auto;"
   width="750"
   height="324"
   version="1.1"
   id="svg300"
   xmlns="http://www.w3.org/2000/svg"
   xmlns:svg="http://www.w3.org/2000/svg">
  <!--Generated by the Batik Graphics2D SVG Generator-->
  <defs
     id="genericDefs" />
  <g
     id="g298">
    <defs
       id="defs1">
      <clipPath
         clipPathUnits="userSpaceOnUse"
         id="clipPath1">
        <path
           d="M0 0 L766 0 L766 339 L0 339 L0 0 Z"
           id="path3" />
      </clipPath>
      <clipPath
         clipPathUnits="userSpaceOnUse"
         id="clipPath2">
        <path
           d="M0 0 L0 200 L200 200 L200 0 Z"
           id="path6" />
      </clipPath>
      <clipPath
         clipPathUnits="userSpaceOnUse"
         id="clipPath3">
        <path
           d="M281 16 L281 37 L292 37 L292 16 Z"
           id="path9" />
      </clipPath>
      <clipPath
         clipPathUnits="userSpaceOnUse"
         id="clipPath4">
        <path
           d="M280.4551 3.918 L291.5449 3.918 L291.5449 19.2305 L280.4551 19.2305 L280.4551 3.918 Z"
           id="path12" />
      </clipPath>
      <clipPath
         clipPathUnits="userSpaceOnUse"
         id="clipPath5">
        <path
           d="M429 203 L429 267 L533 267 L533 203 Z"
           id="path15" />
      </clipPath>
      <clipPath
         clipPathUnits="userSpaceOnUse"
         id="clipPath6">
        <path
           d="M173 202 L173 266 L277 266 L277 202 Z"
           id="path18" />
      </clipPath>
      <clipPath
         clipPathUnits="userSpaceOnUse"
         id="clipPath7">
        <path
           d="M372.9247 82.3198 L372.9247 117.6802 L435.6802 117.6802 L435.6802 82.3198 Z"
           id="path21" />
      </clipPath>
      <clipPath
         clipPathUnits="userSpaceOnUse"
         id="clipPath8">
        <path
           d="M349.2111 249.6123 L349.2111 290.2595 L360.6111 290.2595 L360.6111 249.6123 Z"
           id="path24" />
      </clipPath>
      <clipPath
         clipPathUnits="userSpaceOnUse"
         id="clipPath9">
        <path
           d="M348.0306 136.5 L348.0306 163.2311 L359.9694 163.2311 L359.9694 136.5 Z"
           id="path27" />
      </clipPath>
      <clipPath
         clipPathUnits="userSpaceOnUse"
         id="clipPath10">
        <path
           d="M276.4967 212.9682 L276.4967 224.9068 L432.9311 224.9068 L432.9311 212.9682 Z"
           id="path30" />
      </clipPath>
      <clipPath
         clipPathUnits="userSpaceOnUse"
         id="clipPath11">
        <path
           d="M159.2965 160.2965 L159.2965 214.778 L225.9541 214.778 L225.9541 160.2965 Z"
           id="path33" />
      </clipPath>
      <clipPath
         clipPathUnits="userSpaceOnUse"
         id="clipPath12">
        <path
           d="M199.4077 123.672 L199.4077 151.5923 L315.2047 151.5923 L315.2047 123.672 Z"
           id="path36" />
      </clipPath>
      <clipPath
         clipPathUnits="userSpaceOnUse"
         id="clipPath13">
        <path
           d="M532.4975 228.5923 L532.4975 240.5309 L633.2311 240.5309 L633.2311 228.5923 Z"
           id="path39" />
      </clipPath>
      <clipPath
         clipPathUnits="userSpaceOnUse"
         id="clipPath14">
        <path
           d="M348.3028 181.5 L348.3028 219.4066 L359.7028 219.4066 L359.7028 181.5 Z"
           id="path42" />
      </clipPath>
      <clipPath
         clipPathUnits="userSpaceOnUse"
         id="clipPath15">
        <path
           d="M276.3192 84.3192 L276.3192 117.6808 L335.0735 117.6808 L335.0735 84.3192 Z"
           id="path45" />
      </clipPath>
      <clipPath
         clipPathUnits="userSpaceOnUse"
         id="clipPath16">
        <path
           d="M393.322 77.0464 L393.322 127.678 L475.6335 127.678 L475.6335 77.0464 Z"
           id="path48" />
      </clipPath>
      <clipPath
         clipPathUnits="userSpaceOnUse"
         id="clipPath17">
        <path
           d="M145.293 183.293 L145.293 224.8815 L185.8594 224.8815 L185.8594 183.293 Z"
           id="path51" />
      </clipPath>
      <clipPath
         clipPathUnits="userSpaceOnUse"
         id="clipPath18">
        <path
           d="M273.0689 244.0932 L273.0689 256.0318 L429.5033 256.0318 L429.5033 244.0932 Z"
           id="path54" />
      </clipPath>
      <clipPath
         clipPathUnits="userSpaceOnUse"
         id="clipPath19">
        <path
           d="M216.5 64.5 L216.5 85.5 L297.5 85.5 L297.5 64.5 Z"
           id="path57" />
      </clipPath>
      <clipPath
         clipPathUnits="userSpaceOnUse"
         id="clipPath20">
        <path
           d="M313.75 289.25 L313.75 310.25 L394.75 310.25 L394.75 289.25 Z"
           id="path60" />
      </clipPath>
      <clipPath
         clipPathUnits="userSpaceOnUse"
         id="clipPath21">
        <path
           d="M65.5 173.5 L65.5 194.5 L146.5 194.5 L146.5 173.5 Z"
           id="path63" />
      </clipPath>
      <clipPath
         clipPathUnits="userSpaceOnUse"
         id="clipPath22">
        <path
           d="M631.5 227.5 L631.5 241.5 L736.5 241.5 L736.5 227.5 Z"
           id="path66" />
      </clipPath>
      <clipPath
         clipPathUnits="userSpaceOnUse"
         id="clipPath23">
        <path
           d="M184.5 213.5 L184.5 234.5 L265.5 234.5 L265.5 213.5 Z"
           id="path69" />
      </clipPath>
      <clipPath
         clipPathUnits="userSpaceOnUse"
         id="clipPath24">
        <path
           d="M313.5 116.5 L313.5 137.5 L394.5 137.5 L394.5 116.5 Z"
           id="path72" />
      </clipPath>
      <clipPath
         clipPathUnits="userSpaceOnUse"
         id="clipPath25">
        <path
           d="M440.5 234.5 L440.5 255.5 L521.5 255.5 L521.5 234.5 Z"
           id="path75" />
      </clipPath>
      <clipPath
         clipPathUnits="userSpaceOnUse"
         id="clipPath26">
        <path
           d="M119.5 140.5 L119.5 161.5 L200.5 161.5 L200.5 140.5 Z"
           id="path78" />
      </clipPath>
      <clipPath
         clipPathUnits="userSpaceOnUse"
         id="clipPath27">
        <path
           d="M184.5 233.5 L184.5 254.5 L265.5 254.5 L265.5 233.5 Z"
           id="path81" />
      </clipPath>
      <clipPath
         clipPathUnits="userSpaceOnUse"
         id="clipPath28">
        <path
           d="M440.5 214.5 L440.5 235.5 L521.5 235.5 L521.5 214.5 Z"
           id="path84" />
      </clipPath>
      <clipPath
         clipPathUnits="userSpaceOnUse"
         id="clipPath29">
        <path
           d="M313.5 161.5 L313.5 182.5 L394.5 182.5 L394.5 161.5 Z"
           id="path87" />
      </clipPath>
      <clipPath
         clipPathUnits="userSpaceOnUse"
         id="clipPath30">
        <path
           d="M414.5 62.5 L414.5 83.5 L495.5 83.5 L495.5 62.5 Z"
           id="path90" />
      </clipPath>
    </defs>
    <g
       style="fill:white; stroke:white;"
       id="g96">
      <rect
         x="0"
         width="766"
         height="339"
         y="0"
         style="stroke:none;"
         id="rect94" />
    </g>
    <g
       style="font-weight:bold; font-size:10; text-rendering:geometricPrecision;"
       id="g106">
      <path
         d="M0.0469 6.7031 L6.7656 6.7031 L6.7656 8.125 L4.3438 8.125 L4.3438 14 L2.4688 14 L2.4688 8.125 L0.0469 8.125 L0.0469 6.7031 ZM7.665 8.5312 L9.415 8.5312 L9.415 14 L7.665 14 L7.665 8.5312 ZM7.665 6.4062 L9.415 6.4062 L9.415 7.8281 L7.665 7.8281 L7.665 6.4062 ZM12.999 6.9844 L12.999 8.5312 L14.7959 8.5312 L14.7959 9.7812 L12.999 9.7812 L12.999 12.0938 Q12.999 12.4844 13.1475 12.6172 Q13.2959 12.75 13.749 12.75 L14.6553 12.75 L14.6553 14 L13.1553 14 Q12.1084 14 11.6787 13.5703 Q11.249 13.1406 11.249 12.0938 L11.249 9.7812 L10.374 9.7812 L10.374 8.5312 L11.249 8.5312 L11.249 6.9844 L12.999 6.9844 ZM15.873 6.4062 L17.623 6.4062 L17.623 14 L15.873 14 L15.873 6.4062 ZM24.7539 11.25 L24.7539 11.75 L20.6758 11.75 Q20.7383 12.3594 21.1133 12.6719 Q21.4883 12.9844 22.1758 12.9844 Q22.7227 12.9844 23.3086 12.8203 Q23.8945 12.6562 24.5039 12.3125 L24.5039 13.6719 Q23.8789 13.9062 23.2617 14.0234 Q22.6445 14.1406 22.0195 14.1406 Q20.5352 14.1406 19.7148 13.3828 Q18.8945 12.625 18.8945 11.2656 Q18.8945 9.9375 19.6992 9.1719 Q20.5039 8.4062 21.9258 8.4062 Q23.207 8.4062 23.9805 9.1797 Q24.7539 9.9531 24.7539 11.25 ZM22.957 10.6719 Q22.957 10.1719 22.668 9.8672 Q22.3789 9.5625 21.9102 9.5625 Q21.3945 9.5625 21.082 9.8438 Q20.7695 10.125 20.6914 10.6719 L22.957 10.6719 ZM26.3643 8.5312 L28.1143 8.5312 L28.1143 10.4219 L26.3643 10.4219 L26.3643 8.5312 ZM26.3643 12.1094 L28.1143 12.1094 L28.1143 14 L26.3643 14 L26.3643 12.1094 Z"
         style="clip-path:url(#clipPath2); stroke:none;"
         clip-path="url(#clipPath2)"
         id="path98" />
      <path
         d="M38.9844 6.7031 L39.9688 6.7031 L39.9688 9.7031 L43.5469 9.7031 L43.5469 6.7031 L44.5312 6.7031 L44.5312 14 L43.5469 14 L43.5469 10.5312 L39.9688 10.5312 L39.9688 14 L38.9844 14 L38.9844 6.7031 ZM48.7383 14.5156 Q48.3633 15.4844 47.9961 15.7812 Q47.6289 16.0781 47.0352 16.0781 L46.3164 16.0781 L46.3164 15.3281 L46.832 15.3281 Q47.207 15.3281 47.4102 15.1562 Q47.6133 14.9844 47.8633 14.3281 L48.0352 13.9062 L45.8164 8.5312 L46.7695 8.5312 L48.4727 12.8125 L50.1914 8.5312 L51.1445 8.5312 L48.7383 14.5156 ZM53.25 13.1719 L53.25 16.0781 L52.3438 16.0781 L52.3438 8.5312 L53.25 8.5312 L53.25 9.3594 Q53.5312 8.875 53.9609 8.6406 Q54.3906 8.4062 55 8.4062 Q56 8.4062 56.6172 9.1953 Q57.2344 9.9844 57.2344 11.2656 Q57.2344 12.5625 56.6172 13.3516 Q56 14.1406 55 14.1406 Q54.3906 14.1406 53.9609 13.9062 Q53.5312 13.6719 53.25 13.1719 ZM56.3125 11.2656 Q56.3125 10.2812 55.8984 9.7188 Q55.4844 9.1562 54.7812 9.1562 Q54.0625 9.1562 53.6562 9.7188 Q53.25 10.2812 53.25 11.2656 Q53.25 12.2656 53.6562 12.8281 Q54.0625 13.3906 54.7812 13.3906 Q55.4844 13.3906 55.8984 12.8281 Q56.3125 12.2656 56.3125 11.2656 ZM60.8477 9.1562 Q60.1289 9.1562 59.707 9.7188 Q59.2852 10.2812 59.2852 11.2656 Q59.2852 12.25 59.6992 12.8125 Q60.1133 13.375 60.8477 13.375 Q61.5664 13.375 61.9883 12.8125 Q62.4102 12.25 62.4102 11.2656 Q62.4102 10.2969 61.9883 9.7266 Q61.5664 9.1562 60.8477 9.1562 ZM60.8477 8.4062 Q62.0195 8.4062 62.6914 9.1641 Q63.3633 9.9219 63.3633 11.2656 Q63.3633 12.6094 62.6914 13.375 Q62.0195 14.1406 60.8477 14.1406 Q59.6758 14.1406 59.0039 13.375 Q58.332 12.6094 58.332 11.2656 Q58.332 9.9219 59.0039 9.1641 Q59.6758 8.4062 60.8477 8.4062 ZM65.7314 6.9844 L65.7314 8.5312 L67.5908 8.5312 L67.5908 9.2344 L65.7314 9.2344 L65.7314 12.2031 Q65.7314 12.8594 65.9189 13.0547 Q66.1064 13.25 66.6689 13.25 L67.5908 13.25 L67.5908 14 L66.6689 14 Q65.6221 14 65.2236 13.6094 Q64.8252 13.2188 64.8252 12.2031 L64.8252 9.2344 L64.1689 9.2344 L64.1689 8.5312 L64.8252 8.5312 L64.8252 6.9844 L65.7314 6.9844 ZM73.3086 10.7031 L73.3086 14 L72.418 14 L72.418 10.7344 Q72.418 9.9531 72.1133 9.5703 Q71.8086 9.1875 71.1992 9.1875 Q70.4805 9.1875 70.0586 9.6484 Q69.6367 10.1094 69.6367 10.9062 L69.6367 14 L68.7305 14 L68.7305 6.4062 L69.6367 6.4062 L69.6367 9.375 Q69.9648 8.8906 70.4023 8.6484 Q70.8398 8.4062 71.4023 8.4062 Q72.3398 8.4062 72.8242 8.9844 Q73.3086 9.5625 73.3086 10.7031 ZM79.7871 11.0469 L79.7871 11.4844 L75.6465 11.4844 Q75.709 12.4062 76.209 12.8906 Q76.709 13.375 77.5996 13.375 Q78.1152 13.375 78.6074 13.25 Q79.0996 13.125 79.5684 12.875 L79.5684 13.7188 Q79.084 13.9219 78.5762 14.0312 Q78.0684 14.1406 77.5527 14.1406 Q76.2402 14.1406 75.4746 13.3828 Q74.709 12.625 74.709 11.3125 Q74.709 9.9688 75.4355 9.1875 Q76.1621 8.4062 77.3965 8.4062 Q78.5059 8.4062 79.1465 9.1094 Q79.7871 9.8125 79.7871 11.0469 ZM78.8809 10.7812 Q78.8809 10.0469 78.4746 9.6016 Q78.0684 9.1562 77.4121 9.1562 Q76.6465 9.1562 76.2012 9.5859 Q75.7559 10.0156 75.6777 10.7812 L78.8809 10.7812 ZM82.1426 6.9844 L82.1426 8.5312 L84.002 8.5312 L84.002 9.2344 L82.1426 9.2344 L82.1426 12.2031 Q82.1426 12.8594 82.3301 13.0547 Q82.5176 13.25 83.0801 13.25 L84.002 13.25 L84.002 14 L83.0801 14 Q82.0332 14 81.6348 13.6094 Q81.2363 13.2188 81.2363 12.2031 L81.2363 9.2344 L80.5801 9.2344 L80.5801 8.5312 L81.2363 8.5312 L81.2363 6.9844 L82.1426 6.9844 ZM85.1729 8.5312 L86.0791 8.5312 L86.0791 14 L85.1729 14 L85.1729 8.5312 ZM85.1729 6.4062 L86.0791 6.4062 L86.0791 7.5469 L85.1729 7.5469 L85.1729 6.4062 ZM91.8887 8.7344 L91.8887 9.5781 Q91.5137 9.375 91.1309 9.2656 Q90.748 9.1562 90.3574 9.1562 Q89.4824 9.1562 88.998 9.7109 Q88.5137 10.2656 88.5137 11.2656 Q88.5137 12.2656 88.998 12.8203 Q89.4824 13.375 90.3574 13.375 Q90.748 13.375 91.1309 13.2734 Q91.5137 13.1719 91.8887 12.9531 L91.8887 13.7969 Q91.5137 13.9688 91.1152 14.0547 Q90.7168 14.1406 90.2637 14.1406 Q89.0137 14.1406 88.2871 13.3672 Q87.5605 12.5938 87.5605 11.2656 Q87.5605 9.9375 88.2949 9.1719 Q89.0293 8.4062 90.3105 8.4062 Q90.7324 8.4062 91.123 8.4844 Q91.5137 8.5625 91.8887 8.7344 ZM95.9336 11.25 Q94.8555 11.25 94.4336 11.5 Q94.0117 11.75 94.0117 12.3438 Q94.0117 12.8281 94.3242 13.1094 Q94.6367 13.3906 95.1836 13.3906 Q95.9336 13.3906 96.3867 12.8594 Q96.8398 12.3281 96.8398 11.4531 L96.8398 11.25 L95.9336 11.25 ZM97.7305 10.875 L97.7305 14 L96.8398 14 L96.8398 13.1719 Q96.5273 13.6719 96.0664 13.9062 Q95.6055 14.1406 94.9492 14.1406 Q94.1055 14.1406 93.6055 13.6719 Q93.1055 13.2031 93.1055 12.4062 Q93.1055 11.4844 93.7305 11.0156 Q94.3555 10.5469 95.5742 10.5469 L96.8398 10.5469 L96.8398 10.4531 Q96.8398 9.8438 96.4258 9.5 Q96.0117 9.1562 95.2773 9.1562 Q94.8086 9.1562 94.3633 9.2734 Q93.918 9.3906 93.5117 9.6094 L93.5117 8.7812 Q94.0117 8.5938 94.4727 8.5 Q94.9336 8.4062 95.3711 8.4062 Q96.5586 8.4062 97.1445 9.0156 Q97.7305 9.625 97.7305 10.875 ZM99.5771 6.4062 L100.4834 6.4062 L100.4834 14 L99.5771 14 L99.5771 6.4062 ZM109.4717 8.7344 L109.4717 9.5781 Q109.0967 9.375 108.7139 9.2656 Q108.3311 9.1562 107.9404 9.1562 Q107.0654 9.1562 106.5811 9.7109 Q106.0967 10.2656 106.0967 11.2656 Q106.0967 12.2656 106.5811 12.8203 Q107.0654 13.375 107.9404 13.375 Q108.3311 13.375 108.7139 13.2734 Q109.0967 13.1719 109.4717 12.9531 L109.4717 13.7969 Q109.0967 13.9688 108.6982 14.0547 Q108.2998 14.1406 107.8467 14.1406 Q106.5967 14.1406 105.8701 13.3672 Q105.1436 12.5938 105.1436 11.2656 Q105.1436 9.9375 105.8779 9.1719 Q106.6123 8.4062 107.8936 8.4062 Q108.3154 8.4062 108.7061 8.4844 Q109.0967 8.5625 109.4717 8.7344 ZM114.2041 9.375 Q114.0479 9.2812 113.876 9.2422 Q113.7041 9.2031 113.4854 9.2031 Q112.7197 9.2031 112.3135 9.6953 Q111.9072 10.1875 111.9072 11.125 L111.9072 14 L111.001 14 L111.001 8.5312 L111.9072 8.5312 L111.9072 9.375 Q112.1885 8.875 112.6416 8.6406 Q113.0947 8.4062 113.751 8.4062 Q113.8447 8.4062 113.9541 8.4141 Q114.0635 8.4219 114.2041 8.4531 L114.2041 9.375 ZM117.6279 11.25 Q116.5498 11.25 116.1279 11.5 Q115.7061 11.75 115.7061 12.3438 Q115.7061 12.8281 116.0186 13.1094 Q116.3311 13.3906 116.8779 13.3906 Q117.6279 13.3906 118.0811 12.8594 Q118.5342 12.3281 118.5342 11.4531 L118.5342 11.25 L117.6279 11.25 ZM119.4248 10.875 L119.4248 14 L118.5342 14 L118.5342 13.1719 Q118.2217 13.6719 117.7607 13.9062 Q117.2998 14.1406 116.6436 14.1406 Q115.7998 14.1406 115.2998 13.6719 Q114.7998 13.2031 114.7998 12.4062 Q114.7998 11.4844 115.4248 11.0156 Q116.0498 10.5469 117.2686 10.5469 L118.5342 10.5469 L118.5342 10.4531 Q118.5342 9.8438 118.1201 9.5 Q117.7061 9.1562 116.9717 9.1562 Q116.5029 9.1562 116.0576 9.2734 Q115.6123 9.3906 115.2061 9.6094 L115.2061 8.7812 Q115.7061 8.5938 116.167 8.5 Q116.6279 8.4062 117.0654 8.4062 Q118.2529 8.4062 118.8389 9.0156 Q119.4248 9.625 119.4248 10.875 ZM125.8184 10.7031 L125.8184 14 L124.9277 14 L124.9277 10.7344 Q124.9277 9.9531 124.623 9.5703 Q124.3184 9.1875 123.709 9.1875 Q122.9902 9.1875 122.5684 9.6484 Q122.1465 10.1094 122.1465 10.9062 L122.1465 14 L121.2402 14 L121.2402 8.5312 L122.1465 8.5312 L122.1465 9.375 Q122.4746 8.8906 122.9121 8.6484 Q123.3496 8.4062 123.9121 8.4062 Q124.8496 8.4062 125.334 8.9844 Q125.8184 9.5625 125.8184 10.7031 ZM127.6094 8.5312 L128.5156 8.5312 L128.5156 14 L127.6094 14 L127.6094 8.5312 ZM127.6094 6.4062 L128.5156 6.4062 L128.5156 7.5469 L127.6094 7.5469 L127.6094 6.4062 ZM132.5127 9.1562 Q131.7939 9.1562 131.3721 9.7188 Q130.9502 10.2812 130.9502 11.2656 Q130.9502 12.25 131.3643 12.8125 Q131.7783 13.375 132.5127 13.375 Q133.2314 13.375 133.6533 12.8125 Q134.0752 12.25 134.0752 11.2656 Q134.0752 10.2969 133.6533 9.7266 Q133.2314 9.1562 132.5127 9.1562 ZM132.5127 8.4062 Q133.6846 8.4062 134.3564 9.1641 Q135.0283 9.9219 135.0283 11.2656 Q135.0283 12.6094 134.3564 13.375 Q133.6846 14.1406 132.5127 14.1406 Q131.3408 14.1406 130.6689 13.375 Q129.9971 12.6094 129.9971 11.2656 Q129.9971 9.9219 130.6689 9.1641 Q131.3408 8.4062 132.5127 8.4062 ZM139.2871 6.4062 L139.2871 7.1562 L138.4277 7.1562 Q137.9434 7.1562 137.7559 7.3516 Q137.5684 7.5469 137.5684 8.0469 L137.5684 8.5312 L139.0371 8.5312 L139.0371 9.2344 L137.5684 9.2344 L137.5684 14 L136.6621 14 L136.6621 9.2344 L135.8027 9.2344 L135.8027 8.5312 L136.6621 8.5312 L136.6621 8.1562 Q136.6621 7.2344 137.084 6.8203 Q137.5059 6.4062 138.4277 6.4062 L139.2871 6.4062 ZM142.5107 11.25 Q141.4326 11.25 141.0107 11.5 Q140.5889 11.75 140.5889 12.3438 Q140.5889 12.8281 140.9014 13.1094 Q141.2139 13.3906 141.7607 13.3906 Q142.5107 13.3906 142.9639 12.8594 Q143.417 12.3281 143.417 11.4531 L143.417 11.25 L142.5107 11.25 ZM144.3076 10.875 L144.3076 14 L143.417 14 L143.417 13.1719 Q143.1045 13.6719 142.6436 13.9062 Q142.1826 14.1406 141.5264 14.1406 Q140.6826 14.1406 140.1826 13.6719 Q139.6826 13.2031 139.6826 12.4062 Q139.6826 11.4844 140.3076 11.0156 Q140.9326 10.5469 142.1514 10.5469 L143.417 10.5469 L143.417 10.4531 Q143.417 9.8438 143.0029 9.5 Q142.5889 9.1562 141.8545 9.1562 Q141.3857 9.1562 140.9404 9.2734 Q140.4951 9.3906 140.0889 9.6094 L140.0889 8.7812 Q140.5889 8.5938 141.0498 8.5 Q141.5107 8.4062 141.9482 8.4062 Q143.1357 8.4062 143.7217 9.0156 Q144.3076 9.625 144.3076 10.875 ZM150.0918 8.7344 L150.0918 9.5781 Q149.7168 9.375 149.334 9.2656 Q148.9512 9.1562 148.5605 9.1562 Q147.6855 9.1562 147.2012 9.7109 Q146.7168 10.2656 146.7168 11.2656 Q146.7168 12.2656 147.2012 12.8203 Q147.6855 13.375 148.5605 13.375 Q148.9512 13.375 149.334 13.2734 Q149.7168 13.1719 150.0918 12.9531 L150.0918 13.7969 Q149.7168 13.9688 149.3184 14.0547 Q148.9199 14.1406 148.4668 14.1406 Q147.2168 14.1406 146.4902 13.3672 Q145.7637 12.5938 145.7637 11.2656 Q145.7637 9.9375 146.498 9.1719 Q147.2324 8.4062 148.5137 8.4062 Q148.9355 8.4062 149.3262 8.4844 Q149.7168 8.5625 150.0918 8.7344 ZM151.6523 8.5312 L152.5586 8.5312 L152.5586 14 L151.6523 14 L151.6523 8.5312 ZM151.6523 6.4062 L152.5586 6.4062 L152.5586 7.5469 L151.6523 7.5469 L151.6523 6.4062 ZM156.915 11.25 Q155.8369 11.25 155.415 11.5 Q154.9932 11.75 154.9932 12.3438 Q154.9932 12.8281 155.3057 13.1094 Q155.6182 13.3906 156.165 13.3906 Q156.915 13.3906 157.3682 12.8594 Q157.8213 12.3281 157.8213 11.4531 L157.8213 11.25 L156.915 11.25 ZM158.7119 10.875 L158.7119 14 L157.8213 14 L157.8213 13.1719 Q157.5088 13.6719 157.0479 13.9062 Q156.5869 14.1406 155.9307 14.1406 Q155.0869 14.1406 154.5869 13.6719 Q154.0869 13.2031 154.0869 12.4062 Q154.0869 11.4844 154.7119 11.0156 Q155.3369 10.5469 156.5557 10.5469 L157.8213 10.5469 L157.8213 10.4531 Q157.8213 9.8438 157.4072 9.5 Q156.9932 9.1562 156.2588 9.1562 Q155.79 9.1562 155.3447 9.2734 Q154.8994 9.3906 154.4932 9.6094 L154.4932 8.7812 Q154.9932 8.5938 155.4541 8.5 Q155.915 8.4062 156.3525 8.4062 Q157.54 8.4062 158.126 9.0156 Q158.7119 9.625 158.7119 10.875 ZM160.5586 6.4062 L161.4648 6.4062 L161.4648 14 L160.5586 14 L160.5586 6.4062 ZM170.125 9.3594 L170.125 6.4062 L171.0156 6.4062 L171.0156 14 L170.125 14 L170.125 13.1719 Q169.8438 13.6719 169.4062 13.9062 Q168.9688 14.1406 168.3594 14.1406 Q167.375 14.1406 166.75 13.3516 Q166.125 12.5625 166.125 11.2656 Q166.125 9.9844 166.75 9.1953 Q167.375 8.4062 168.3594 8.4062 Q168.9688 8.4062 169.4062 8.6406 Q169.8438 8.875 170.125 9.3594 ZM167.0625 11.2656 Q167.0625 12.2656 167.4688 12.8281 Q167.875 13.3906 168.5938 13.3906 Q169.2969 13.3906 169.7109 12.8281 Q170.125 12.2656 170.125 11.2656 Q170.125 10.2812 169.7109 9.7188 Q169.2969 9.1562 168.5938 9.1562 Q167.875 9.1562 167.4688 9.7188 Q167.0625 10.2812 167.0625 11.2656 ZM177.5508 11.0469 L177.5508 11.4844 L173.4102 11.4844 Q173.4727 12.4062 173.9727 12.8906 Q174.4727 13.375 175.3633 13.375 Q175.8789 13.375 176.3711 13.25 Q176.8633 13.125 177.332 12.875 L177.332 13.7188 Q176.8477 13.9219 176.3398 14.0312 Q175.832 14.1406 175.3164 14.1406 Q174.0039 14.1406 173.2383 13.3828 Q172.4727 12.625 172.4727 11.3125 Q172.4727 9.9688 173.1992 9.1875 Q173.9258 8.4062 175.1602 8.4062 Q176.2695 8.4062 176.9102 9.1094 Q177.5508 9.8125 177.5508 11.0469 ZM176.6445 10.7812 Q176.6445 10.0469 176.2383 9.6016 Q175.832 9.1562 175.1758 9.1562 Q174.4102 9.1562 173.9648 9.5859 Q173.5195 10.0156 173.4414 10.7812 L176.6445 10.7812 ZM178.375 8.5312 L179.3281 8.5312 L181.0312 13.125 L182.75 8.5312 L183.7031 8.5312 L181.6406 14 L180.4219 14 L178.375 8.5312 ZM189.6211 11.0469 L189.6211 11.4844 L185.4805 11.4844 Q185.543 12.4062 186.043 12.8906 Q186.543 13.375 187.4336 13.375 Q187.9492 13.375 188.4414 13.25 Q188.9336 13.125 189.4023 12.875 L189.4023 13.7188 Q188.918 13.9219 188.4102 14.0312 Q187.9023 14.1406 187.3867 14.1406 Q186.0742 14.1406 185.3086 13.3828 Q184.543 12.625 184.543 11.3125 Q184.543 9.9688 185.2695 9.1875 Q185.9961 8.4062 187.2305 8.4062 Q188.3398 8.4062 188.9805 9.1094 Q189.6211 9.8125 189.6211 11.0469 ZM188.7148 10.7812 Q188.7148 10.0469 188.3086 9.6016 Q187.9023 9.1562 187.2461 9.1562 Q186.4805 9.1562 186.0352 9.5859 Q185.5898 10.0156 185.5117 10.7812 L188.7148 10.7812 ZM191.0859 6.4062 L191.9922 6.4062 L191.9922 14 L191.0859 14 L191.0859 6.4062 ZM195.9893 9.1562 Q195.2705 9.1562 194.8486 9.7188 Q194.4268 10.2812 194.4268 11.2656 Q194.4268 12.25 194.8408 12.8125 Q195.2549 13.375 195.9893 13.375 Q196.708 13.375 197.1299 12.8125 Q197.5518 12.25 197.5518 11.2656 Q197.5518 10.2969 197.1299 9.7266 Q196.708 9.1562 195.9893 9.1562 ZM195.9893 8.4062 Q197.1611 8.4062 197.833 9.1641 Q198.5049 9.9219 198.5049 11.2656 Q198.5049 12.6094 197.833 13.375 Q197.1611 14.1406 195.9893 14.1406 Q194.8174 14.1406 194.1455 13.375 Q193.4736 12.6094 193.4736 11.2656 Q193.4736 9.9219 194.1455 9.1641 Q194.8174 8.4062 195.9893 8.4062 ZM200.8574 13.1719 L200.8574 16.0781 L199.9512 16.0781 L199.9512 8.5312 L200.8574 8.5312 L200.8574 9.3594 Q201.1387 8.875 201.5684 8.6406 Q201.998 8.4062 202.6074 8.4062 Q203.6074 8.4062 204.2246 9.1953 Q204.8418 9.9844 204.8418 11.2656 Q204.8418 12.5625 204.2246 13.3516 Q203.6074 14.1406 202.6074 14.1406 Q201.998 14.1406 201.5684 13.9062 Q201.1387 13.6719 200.8574 13.1719 ZM203.9199 11.2656 Q203.9199 10.2812 203.5059 9.7188 Q203.0918 9.1562 202.3887 9.1562 Q201.6699 9.1562 201.2637 9.7188 Q200.8574 10.2812 200.8574 11.2656 Q200.8574 12.2656 201.2637 12.8281 Q201.6699 13.3906 202.3887 13.3906 Q203.0918 13.3906 203.5059 12.8281 Q203.9199 12.2656 203.9199 11.2656 ZM210.5957 9.5781 Q210.9238 8.9688 211.3926 8.6875 Q211.8613 8.4062 212.502 8.4062 Q213.3613 8.4062 213.8223 9 Q214.2832 9.5938 214.2832 10.7031 L214.2832 14 L213.377 14 L213.377 10.7344 Q213.377 9.9375 213.1035 9.5625 Q212.8301 9.1875 212.252 9.1875 Q211.5488 9.1875 211.1504 9.6484 Q210.752 10.1094 210.752 10.9062 L210.752 14 L209.8457 14 L209.8457 10.7344 Q209.8457 9.9375 209.5645 9.5625 Q209.2832 9.1875 208.7051 9.1875 Q208.0176 9.1875 207.6113 9.6484 Q207.2051 10.1094 207.2051 10.9062 L207.2051 14 L206.2988 14 L206.2988 8.5312 L207.2051 8.5312 L207.2051 9.375 Q207.5176 8.875 207.9473 8.6406 Q208.377 8.4062 208.9551 8.4062 Q209.5645 8.4062 209.9785 8.7031 Q210.3926 9 210.5957 9.5781 ZM220.7588 11.0469 L220.7588 11.4844 L216.6182 11.4844 Q216.6807 12.4062 217.1807 12.8906 Q217.6807 13.375 218.5713 13.375 Q219.0869 13.375 219.5791 13.25 Q220.0713 13.125 220.54 12.875 L220.54 13.7188 Q220.0557 13.9219 219.5479 14.0312 Q219.04 14.1406 218.5244 14.1406 Q217.2119 14.1406 216.4463 13.3828 Q215.6807 12.625 215.6807 11.3125 Q215.6807 9.9688 216.4072 9.1875 Q217.1338 8.4062 218.3682 8.4062 Q219.4775 8.4062 220.1182 9.1094 Q220.7588 9.8125 220.7588 11.0469 ZM219.8525 10.7812 Q219.8525 10.0469 219.4463 9.6016 Q219.04 9.1562 218.3838 9.1562 Q217.6182 9.1562 217.1729 9.5859 Q216.7275 10.0156 216.6494 10.7812 L219.8525 10.7812 ZM226.7705 10.7031 L226.7705 14 L225.8799 14 L225.8799 10.7344 Q225.8799 9.9531 225.5752 9.5703 Q225.2705 9.1875 224.6611 9.1875 Q223.9424 9.1875 223.5205 9.6484 Q223.0986 10.1094 223.0986 10.9062 L223.0986 14 L222.1924 14 L222.1924 8.5312 L223.0986 8.5312 L223.0986 9.375 Q223.4268 8.8906 223.8643 8.6484 Q224.3018 8.4062 224.8643 8.4062 Q225.8018 8.4062 226.2861 8.9844 Q226.7705 9.5625 226.7705 10.7031 ZM229.4521 6.9844 L229.4521 8.5312 L231.3115 8.5312 L231.3115 9.2344 L229.4521 9.2344 L229.4521 12.2031 Q229.4521 12.8594 229.6396 13.0547 Q229.8271 13.25 230.3896 13.25 L231.3115 13.25 L231.3115 14 L230.3896 14 Q229.3428 14 228.9443 13.6094 Q228.5459 13.2188 228.5459 12.2031 L228.5459 9.2344 L227.8896 9.2344 L227.8896 8.5312 L228.5459 8.5312 L228.5459 6.9844 L229.4521 6.9844 ZM236.5361 13.1719 L236.5361 16.0781 L235.6299 16.0781 L235.6299 8.5312 L236.5361 8.5312 L236.5361 9.3594 Q236.8174 8.875 237.2471 8.6406 Q237.6768 8.4062 238.2861 8.4062 Q239.2861 8.4062 239.9033 9.1953 Q240.5205 9.9844 240.5205 11.2656 Q240.5205 12.5625 239.9033 13.3516 Q239.2861 14.1406 238.2861 14.1406 Q237.6768 14.1406 237.2471 13.9062 Q236.8174 13.6719 236.5361 13.1719 ZM239.5986 11.2656 Q239.5986 10.2812 239.1846 9.7188 Q238.7705 9.1562 238.0674 9.1562 Q237.3486 9.1562 236.9424 9.7188 Q236.5361 10.2812 236.5361 11.2656 Q236.5361 12.2656 236.9424 12.8281 Q237.3486 13.3906 238.0674 13.3906 Q238.7705 13.3906 239.1846 12.8281 Q239.5986 12.2656 239.5986 11.2656 ZM244.4932 11.25 Q243.415 11.25 242.9932 11.5 Q242.5713 11.75 242.5713 12.3438 Q242.5713 12.8281 242.8838 13.1094 Q243.1963 13.3906 243.7432 13.3906 Q244.4932 13.3906 244.9463 12.8594 Q245.3994 12.3281 245.3994 11.4531 L245.3994 11.25 L244.4932 11.25 ZM246.29 10.875 L246.29 14 L245.3994 14 L245.3994 13.1719 Q245.0869 13.6719 244.626 13.9062 Q244.165 14.1406 243.5088 14.1406 Q242.665 14.1406 242.165 13.6719 Q241.665 13.2031 241.665 12.4062 Q241.665 11.4844 242.29 11.0156 Q242.915 10.5469 244.1338 10.5469 L245.3994 10.5469 L245.3994 10.4531 Q245.3994 9.8438 244.9854 9.5 Q244.5713 9.1562 243.8369 9.1562 Q243.3682 9.1562 242.9229 9.2734 Q242.4775 9.3906 242.0713 9.6094 L242.0713 8.7812 Q242.5713 8.5938 243.0322 8.5 Q243.4932 8.4062 243.9307 8.4062 Q245.1182 8.4062 245.7041 9.0156 Q246.29 9.625 246.29 10.875 ZM249.0273 6.9844 L249.0273 8.5312 L250.8867 8.5312 L250.8867 9.2344 L249.0273 9.2344 L249.0273 12.2031 Q249.0273 12.8594 249.2148 13.0547 Q249.4023 13.25 249.9648 13.25 L250.8867 13.25 L250.8867 14 L249.9648 14 Q248.918 14 248.5195 13.6094 Q248.1211 13.2188 248.1211 12.2031 L248.1211 9.2344 L247.4648 9.2344 L247.4648 8.5312 L248.1211 8.5312 L248.1211 6.9844 L249.0273 6.9844 ZM256.6045 10.7031 L256.6045 14 L255.7139 14 L255.7139 10.7344 Q255.7139 9.9531 255.4092 9.5703 Q255.1045 9.1875 254.4951 9.1875 Q253.7764 9.1875 253.3545 9.6484 Q252.9326 10.1094 252.9326 10.9062 L252.9326 14 L252.0264 14 L252.0264 6.4062 L252.9326 6.4062 L252.9326 9.375 Q253.2607 8.8906 253.6982 8.6484 Q254.1357 8.4062 254.6982 8.4062 Q255.6357 8.4062 256.1201 8.9844 Q256.6045 9.5625 256.6045 10.7031 ZM257.8799 8.5312 L258.7705 8.5312 L259.8955 12.7969 L261.0205 8.5312 L262.083 8.5312 L263.208 12.7969 L264.3174 8.5312 L265.2236 8.5312 L263.7861 14 L262.7236 14 L261.5518 9.5156 L260.3643 14 L259.3018 14 L257.8799 8.5312 ZM269.0586 11.25 Q267.9805 11.25 267.5586 11.5 Q267.1367 11.75 267.1367 12.3438 Q267.1367 12.8281 267.4492 13.1094 Q267.7617 13.3906 268.3086 13.3906 Q269.0586 13.3906 269.5117 12.8594 Q269.9648 12.3281 269.9648 11.4531 L269.9648 11.25 L269.0586 11.25 ZM270.8555 10.875 L270.8555 14 L269.9648 14 L269.9648 13.1719 Q269.6523 13.6719 269.1914 13.9062 Q268.7305 14.1406 268.0742 14.1406 Q267.2305 14.1406 266.7305 13.6719 Q266.2305 13.2031 266.2305 12.4062 Q266.2305 11.4844 266.8555 11.0156 Q267.4805 10.5469 268.6992 10.5469 L269.9648 10.5469 L269.9648 10.4531 Q269.9648 9.8438 269.5508 9.5 Q269.1367 9.1562 268.4023 9.1562 Q267.9336 9.1562 267.4883 9.2734 Q267.043 9.3906 266.6367 9.6094 L266.6367 8.7812 Q267.1367 8.5938 267.5977 8.5 Q268.0586 8.4062 268.4961 8.4062 Q269.6836 8.4062 270.2695 9.0156 Q270.8555 9.625 270.8555 10.875 ZM274.9834 14.5156 Q274.6084 15.4844 274.2412 15.7812 Q273.874 16.0781 273.2803 16.0781 L272.5615 16.0781 L272.5615 15.3281 L273.0771 15.3281 Q273.4521 15.3281 273.6553 15.1562 Q273.8584 14.9844 274.1084 14.3281 L274.2803 13.9062 L272.0615 8.5312 L273.0146 8.5312 L274.7178 12.8125 L276.4365 8.5312 L277.3896 8.5312 L274.9834 14.5156 Z"
         style="clip-path:url(#clipPath2); stroke:none;"
         clip-path="url(#clipPath2)"
         id="path100" />
      <path
         d="M4.25 21.9375 Q3.3906 21.9375 2.9141 22.5703 Q2.4375 23.2031 2.4375 24.3594 Q2.4375 25.5156 2.9141 26.1484 Q3.3906 26.7812 4.25 26.7812 Q5.1094 26.7812 5.5859 26.1484 Q6.0625 25.5156 6.0625 24.3594 Q6.0625 23.2031 5.5859 22.5703 Q5.1094 21.9375 4.25 21.9375 ZM4.25 20.5781 Q6 20.5781 7 21.5859 Q8 22.5938 8 24.3594 Q8 26.125 7 27.1328 Q6 28.1406 4.25 28.1406 Q2.5 28.1406 1.5 27.1328 Q0.5 26.125 0.5 24.3594 Q0.5 22.5938 1.5 21.5859 Q2.5 20.5781 4.25 20.5781 ZM13.4072 24.0156 Q13.1729 23.9062 12.9463 23.8594 Q12.7197 23.8125 12.4854 23.8125 Q11.8135 23.8125 11.4541 24.2422 Q11.0947 24.6719 11.0947 25.4844 L11.0947 28 L9.3447 28 L9.3447 22.5312 L11.0947 22.5312 L11.0947 23.4219 Q11.4229 22.8906 11.8604 22.6484 Q12.2979 22.4062 12.9072 22.4062 Q13.001 22.4062 13.1025 22.4062 Q13.2041 22.4062 13.3916 22.4375 L13.4072 24.0156 ZM17.9951 27.0781 Q17.6357 27.5469 17.1982 27.7734 Q16.7607 28 16.1982 28 Q15.1982 28 14.542 27.2109 Q13.8857 26.4219 13.8857 25.2031 Q13.8857 23.9688 14.542 23.1875 Q15.1982 22.4062 16.1982 22.4062 Q16.7607 22.4062 17.1982 22.6328 Q17.6357 22.8594 17.9951 23.3438 L17.9951 22.5312 L19.7451 22.5312 L19.7451 27.4531 Q19.7451 28.7656 18.917 29.4609 Q18.0889 30.1562 16.5107 30.1562 Q15.9951 30.1562 15.5186 30.0781 Q15.042 30 14.5576 29.8438 L14.5576 28.4844 Q15.0107 28.75 15.4482 28.875 Q15.8857 29 16.3389 29 Q17.1982 29 17.5967 28.625 Q17.9951 28.25 17.9951 27.4531 L17.9951 27.0781 ZM16.8389 23.6719 Q16.292 23.6719 15.9951 24.0703 Q15.6982 24.4688 15.6982 25.2031 Q15.6982 25.9531 15.9873 26.3438 Q16.2764 26.7344 16.8389 26.7344 Q17.3857 26.7344 17.6904 26.3281 Q17.9951 25.9219 17.9951 25.2031 Q17.9951 24.4688 17.6904 24.0703 Q17.3857 23.6719 16.8389 23.6719 ZM23.8877 25.5312 Q23.3408 25.5312 23.0596 25.7188 Q22.7783 25.9062 22.7783 26.2656 Q22.7783 26.6094 23.0049 26.7969 Q23.2314 26.9844 23.6221 26.9844 Q24.1221 26.9844 24.458 26.625 Q24.7939 26.2656 24.7939 25.7344 L24.7939 25.5312 L23.8877 25.5312 ZM26.5596 24.875 L26.5596 28 L24.7939 28 L24.7939 27.1875 Q24.4346 27.6875 23.9971 27.9141 Q23.5596 28.1406 22.9346 28.1406 Q22.0752 28.1406 21.5518 27.6484 Q21.0283 27.1562 21.0283 26.3594 Q21.0283 25.3906 21.6846 24.9453 Q22.3408 24.5 23.7627 24.5 L24.7939 24.5 L24.7939 24.3594 Q24.7939 23.9531 24.4658 23.7578 Q24.1377 23.5625 23.4502 23.5625 Q22.8877 23.5625 22.4033 23.6719 Q21.9189 23.7812 21.4971 24.0156 L21.4971 22.6719 Q22.0596 22.5469 22.6299 22.4766 Q23.2002 22.4062 23.7627 22.4062 Q25.2471 22.4062 25.9033 22.9844 Q26.5596 23.5625 26.5596 24.875 ZM33.6826 24.6719 L33.6826 28 L31.917 28 L31.917 27.4531 L31.917 25.4531 Q31.917 24.75 31.8857 24.4766 Q31.8545 24.2031 31.7764 24.0781 Q31.6826 23.9062 31.5029 23.8125 Q31.3232 23.7188 31.1045 23.7188 Q30.5576 23.7188 30.2451 24.1406 Q29.9326 24.5625 29.9326 25.3125 L29.9326 28 L28.1826 28 L28.1826 22.5312 L29.9326 22.5312 L29.9326 23.3281 Q30.3232 22.8594 30.7686 22.6328 Q31.2139 22.4062 31.7451 22.4062 Q32.6982 22.4062 33.1904 22.9844 Q33.6826 23.5625 33.6826 24.6719 ZM35.3018 22.5312 L37.0518 22.5312 L37.0518 28 L35.3018 28 L35.3018 22.5312 ZM35.3018 20.4062 L37.0518 20.4062 L37.0518 21.8281 L35.3018 21.8281 L35.3018 20.4062 ZM42.9951 22.7031 L42.9951 24.0312 Q42.4326 23.7969 41.9092 23.6797 Q41.3857 23.5625 40.9326 23.5625 Q40.4326 23.5625 40.1904 23.6875 Q39.9482 23.8125 39.9482 24.0625 Q39.9482 24.2812 40.1279 24.3906 Q40.3076 24.5 40.792 24.5625 L41.0889 24.5938 Q42.4326 24.7656 42.9014 25.1562 Q43.3701 25.5469 43.3701 26.3906 Q43.3701 27.2656 42.7217 27.7031 Q42.0732 28.1406 40.792 28.1406 Q40.2607 28.1406 39.6826 28.0547 Q39.1045 27.9688 38.4795 27.7969 L38.4795 26.4688 Q39.0107 26.7188 39.5576 26.8516 Q40.1045 26.9844 40.667 26.9844 Q41.1826 26.9844 41.4404 26.8438 Q41.6982 26.7031 41.6982 26.4219 Q41.6982 26.1875 41.5264 26.0703 Q41.3545 25.9531 40.8232 25.8906 L40.5107 25.8438 Q39.3389 25.7031 38.8701 25.3047 Q38.4014 24.9062 38.4014 24.1094 Q38.4014 23.2344 38.9951 22.8203 Q39.5889 22.4062 40.8232 22.4062 Q41.3076 22.4062 41.8389 22.4766 Q42.3701 22.5469 42.9951 22.7031 ZM49.7441 23.4375 Q50.0723 22.9375 50.5332 22.6719 Q50.9941 22.4062 51.541 22.4062 Q52.4785 22.4062 52.9707 22.9844 Q53.4629 23.5625 53.4629 24.6719 L53.4629 28 L51.7129 28 L51.7129 25.1406 Q51.7129 25.0781 51.7129 25.0156 Q51.7129 24.9531 51.7129 24.8281 Q51.7129 24.2344 51.5488 23.9766 Q51.3848 23.7188 50.9941 23.7188 Q50.4941 23.7188 50.2285 24.125 Q49.9629 24.5312 49.9473 25.3125 L49.9473 28 L48.1816 28 L48.1816 25.1406 Q48.1816 24.2344 48.0254 23.9766 Q47.8691 23.7188 47.4785 23.7188 Q46.9785 23.7188 46.7051 24.1328 Q46.4316 24.5469 46.4316 25.3125 L46.4316 28 L44.666 28 L44.666 22.5312 L46.4316 22.5312 L46.4316 23.3281 Q46.7441 22.875 47.166 22.6406 Q47.5879 22.4062 48.0879 22.4062 Q48.6504 22.4062 49.0879 22.6797 Q49.5254 22.9531 49.7441 23.4375 ZM55.3828 22.5312 L57.1328 22.5312 L57.1328 24.4219 L55.3828 24.4219 L55.3828 22.5312 ZM55.3828 26.1094 L57.1328 26.1094 L57.1328 28 L55.3828 28 L55.3828 26.1094 Z"
         style="clip-path:url(#clipPath2); stroke:none;"
         clip-path="url(#clipPath2)"
         id="path102" />
      <path
         d="M66.9844 20.7031 L67.9688 20.7031 L67.9688 23.7031 L71.5469 23.7031 L71.5469 20.7031 L72.5312 20.7031 L72.5312 28 L71.5469 28 L71.5469 24.5312 L67.9688 24.5312 L67.9688 28 L66.9844 28 L66.9844 20.7031 ZM76.582 23.1562 Q75.8633 23.1562 75.4414 23.7188 Q75.0195 24.2812 75.0195 25.2656 Q75.0195 26.25 75.4336 26.8125 Q75.8477 27.375 76.582 27.375 Q77.3008 27.375 77.7227 26.8125 Q78.1445 26.25 78.1445 25.2656 Q78.1445 24.2969 77.7227 23.7266 Q77.3008 23.1562 76.582 23.1562 ZM76.582 22.4062 Q77.7539 22.4062 78.4258 23.1641 Q79.0977 23.9219 79.0977 25.2656 Q79.0977 26.6094 78.4258 27.375 Q77.7539 28.1406 76.582 28.1406 Q75.4102 28.1406 74.7383 27.375 Q74.0664 26.6094 74.0664 25.2656 Q74.0664 23.9219 74.7383 23.1641 Q75.4102 22.4062 76.582 22.4062 ZM84.8408 23.5781 Q85.1689 22.9688 85.6377 22.6875 Q86.1064 22.4062 86.7471 22.4062 Q87.6064 22.4062 88.0674 23 Q88.5283 23.5938 88.5283 24.7031 L88.5283 28 L87.6221 28 L87.6221 24.7344 Q87.6221 23.9375 87.3486 23.5625 Q87.0752 23.1875 86.4971 23.1875 Q85.7939 23.1875 85.3955 23.6484 Q84.9971 24.1094 84.9971 24.9062 L84.9971 28 L84.0908 28 L84.0908 24.7344 Q84.0908 23.9375 83.8096 23.5625 Q83.5283 23.1875 82.9502 23.1875 Q82.2627 23.1875 81.8564 23.6484 Q81.4502 24.1094 81.4502 24.9062 L81.4502 28 L80.5439 28 L80.5439 22.5312 L81.4502 22.5312 L81.4502 23.375 Q81.7627 22.875 82.1924 22.6406 Q82.6221 22.4062 83.2002 22.4062 Q83.8096 22.4062 84.2236 22.7031 Q84.6377 23 84.8408 23.5781 ZM92.4414 23.1562 Q91.7227 23.1562 91.3008 23.7188 Q90.8789 24.2812 90.8789 25.2656 Q90.8789 26.25 91.293 26.8125 Q91.707 27.375 92.4414 27.375 Q93.1602 27.375 93.582 26.8125 Q94.0039 26.25 94.0039 25.2656 Q94.0039 24.2969 93.582 23.7266 Q93.1602 23.1562 92.4414 23.1562 ZM92.4414 22.4062 Q93.6133 22.4062 94.2852 23.1641 Q94.957 23.9219 94.957 25.2656 Q94.957 26.6094 94.2852 27.375 Q93.6133 28.1406 92.4414 28.1406 Q91.2695 28.1406 90.5977 27.375 Q89.9258 26.6094 89.9258 25.2656 Q89.9258 23.9219 90.5977 23.1641 Q91.2695 22.4062 92.4414 22.4062 ZM103.0977 22.6875 L103.0977 23.5469 Q102.7227 23.3438 102.3164 23.25 Q101.9102 23.1562 101.457 23.1562 Q100.8008 23.1562 100.4648 23.3594 Q100.1289 23.5625 100.1289 23.9688 Q100.1289 24.2812 100.3633 24.4609 Q100.5977 24.6406 101.332 24.7969 L101.6289 24.875 Q102.5977 25.0781 102.9961 25.4531 Q103.3945 25.8281 103.3945 26.4844 Q103.3945 27.25 102.793 27.6953 Q102.1914 28.1406 101.1445 28.1406 Q100.6914 28.1406 100.2148 28.0547 Q99.7383 27.9688 99.2227 27.7969 L99.2227 26.875 Q99.7227 27.125 100.1992 27.2578 Q100.6758 27.3906 101.1602 27.3906 Q101.7852 27.3906 102.1289 27.1719 Q102.4727 26.9531 102.4727 26.5625 Q102.4727 26.1875 102.2305 25.9922 Q101.9883 25.7969 101.1445 25.625 L100.832 25.5469 Q100.0039 25.375 99.6289 25.0078 Q99.2539 24.6406 99.2539 24.0156 Q99.2539 23.2344 99.8008 22.8203 Q100.3477 22.4062 101.3633 22.4062 Q101.8477 22.4062 102.293 22.4766 Q102.7383 22.5469 103.0977 22.6875 ZM107.3076 25.25 Q106.2295 25.25 105.8076 25.5 Q105.3857 25.75 105.3857 26.3438 Q105.3857 26.8281 105.6982 27.1094 Q106.0107 27.3906 106.5576 27.3906 Q107.3076 27.3906 107.7607 26.8594 Q108.2139 26.3281 108.2139 25.4531 L108.2139 25.25 L107.3076 25.25 ZM109.1045 24.875 L109.1045 28 L108.2139 28 L108.2139 27.1719 Q107.9014 27.6719 107.4404 27.9062 Q106.9795 28.1406 106.3232 28.1406 Q105.4795 28.1406 104.9795 27.6719 Q104.4795 27.2031 104.4795 26.4062 Q104.4795 25.4844 105.1045 25.0156 Q105.7295 24.5469 106.9482 24.5469 L108.2139 24.5469 L108.2139 24.4531 Q108.2139 23.8438 107.7998 23.5 Q107.3857 23.1562 106.6514 23.1562 Q106.1826 23.1562 105.7373 23.2734 Q105.292 23.3906 104.8857 23.6094 L104.8857 22.7812 Q105.3857 22.5938 105.8467 22.5 Q106.3076 22.4062 106.7451 22.4062 Q107.9326 22.4062 108.5186 23.0156 Q109.1045 23.625 109.1045 24.875 ZM111.8262 27.1719 L111.8262 30.0781 L110.9199 30.0781 L110.9199 22.5312 L111.8262 22.5312 L111.8262 23.3594 Q112.1074 22.875 112.5371 22.6406 Q112.9668 22.4062 113.5762 22.4062 Q114.5762 22.4062 115.1934 23.1953 Q115.8105 23.9844 115.8105 25.2656 Q115.8105 26.5625 115.1934 27.3516 Q114.5762 28.1406 113.5762 28.1406 Q112.9668 28.1406 112.5371 27.9062 Q112.1074 27.6719 111.8262 27.1719 ZM114.8887 25.2656 Q114.8887 24.2812 114.4746 23.7188 Q114.0605 23.1562 113.3574 23.1562 Q112.6387 23.1562 112.2324 23.7188 Q111.8262 24.2812 111.8262 25.2656 Q111.8262 26.2656 112.2324 26.8281 Q112.6387 27.3906 113.3574 27.3906 Q114.0605 27.3906 114.4746 26.8281 Q114.8887 26.2656 114.8887 25.2656 ZM117.2988 22.5312 L118.2051 22.5312 L118.2051 28 L117.2988 28 L117.2988 22.5312 ZM117.2988 20.4062 L118.2051 20.4062 L118.2051 21.5469 L117.2988 21.5469 L117.2988 20.4062 ZM124.7646 25.0469 L124.7646 25.4844 L120.624 25.4844 Q120.6865 26.4062 121.1865 26.8906 Q121.6865 27.375 122.5771 27.375 Q123.0928 27.375 123.585 27.25 Q124.0771 27.125 124.5459 26.875 L124.5459 27.7188 Q124.0615 27.9219 123.5537 28.0312 Q123.0459 28.1406 122.5303 28.1406 Q121.2178 28.1406 120.4521 27.3828 Q119.6865 26.625 119.6865 25.3125 Q119.6865 23.9688 120.4131 23.1875 Q121.1396 22.4062 122.374 22.4062 Q123.4834 22.4062 124.124 23.1094 Q124.7646 23.8125 124.7646 25.0469 ZM123.8584 24.7812 Q123.8584 24.0469 123.4521 23.6016 Q123.0459 23.1562 122.3896 23.1562 Q121.624 23.1562 121.1787 23.5859 Q120.7334 24.0156 120.6553 24.7812 L123.8584 24.7812 ZM130.7764 24.7031 L130.7764 28 L129.8857 28 L129.8857 24.7344 Q129.8857 23.9531 129.5811 23.5703 Q129.2764 23.1875 128.667 23.1875 Q127.9482 23.1875 127.5264 23.6484 Q127.1045 24.1094 127.1045 24.9062 L127.1045 28 L126.1982 28 L126.1982 22.5312 L127.1045 22.5312 L127.1045 23.375 Q127.4326 22.8906 127.8701 22.6484 Q128.3076 22.4062 128.8701 22.4062 Q129.8076 22.4062 130.292 22.9844 Q130.7764 23.5625 130.7764 24.7031 ZM136.0518 22.6875 L136.0518 23.5469 Q135.6768 23.3438 135.2705 23.25 Q134.8643 23.1562 134.4111 23.1562 Q133.7549 23.1562 133.4189 23.3594 Q133.083 23.5625 133.083 23.9688 Q133.083 24.2812 133.3174 24.4609 Q133.5518 24.6406 134.2861 24.7969 L134.583 24.875 Q135.5518 25.0781 135.9502 25.4531 Q136.3486 25.8281 136.3486 26.4844 Q136.3486 27.25 135.7471 27.6953 Q135.1455 28.1406 134.0986 28.1406 Q133.6455 28.1406 133.1689 28.0547 Q132.6924 27.9688 132.1768 27.7969 L132.1768 26.875 Q132.6768 27.125 133.1533 27.2578 Q133.6299 27.3906 134.1143 27.3906 Q134.7393 27.3906 135.083 27.1719 Q135.4268 26.9531 135.4268 26.5625 Q135.4268 26.1875 135.1846 25.9922 Q134.9424 25.7969 134.0986 25.625 L133.7861 25.5469 Q132.958 25.375 132.583 25.0078 Q132.208 24.6406 132.208 24.0156 Q132.208 23.2344 132.7549 22.8203 Q133.3018 22.4062 134.3174 22.4062 Q134.8018 22.4062 135.2471 22.4766 Q135.6924 22.5469 136.0518 22.6875 Z"
         style="clip-path:url(#clipPath2); stroke:none;"
         clip-path="url(#clipPath2)"
         id="path104" />
    </g>
    <g
       style="fill:navy; text-rendering:geometricPrecision; font-size:8; stroke:navy;"
       id="g110">
      <text
         x="283"
         xml:space="preserve"
         y="16"
         style="clip-path:url(#clipPath4); stroke:none;"
         clip-path="url(#clipPath4)"
         id="text108">1</text>
    </g>
    <g
       style="fill:rgb(180,180,100); text-rendering:geometricPrecision; fill-opacity:0.098; stroke-opacity:0.098; stroke:rgb(180,180,100);"
       id="g114">
      <path
         d="M447 203 L514 203 L532 221 L532 248 L514 266 L447 266 L429 248 L429 221 Z"
         style="clip-path:url(#clipPath5); stroke:none;"
         clip-path="url(#clipPath5)"
         id="path112" />
    </g>
    <g
       style="fill:gray; text-rendering:geometricPrecision; stroke:gray;"
       id="g118">
      <path
         d="M447 203 L514 203 L532 221 L532 248 L514 266 L447 266 L429 248 L429 221 Z"
         style="fill:none; clip-path:url(#clipPath5);"
         clip-path="url(#clipPath5)"
         id="path116" />
    </g>
    <g
       style="fill:rgb(180,180,100); text-rendering:geometricPrecision; fill-opacity:0.098; stroke-opacity:0.098; stroke:rgb(180,180,100);"
       id="g122">
      <path
         d="M191 202 L258 202 L276 220 L276 247 L258 265 L191 265 L173 247 L173 220 Z"
         style="clip-path:url(#clipPath6); stroke:none;"
         clip-path="url(#clipPath6)"
         id="path120" />
    </g>
    <g
       style="fill:gray; text-rendering:geometricPrecision; stroke:gray;"
       id="g126">
      <path
         d="M191 202 L258 202 L276 220 L276 247 L258 265 L191 265 L173 247 L173 220 Z"
         style="fill:none; clip-path:url(#clipPath6);"
         clip-path="url(#clipPath6)"
         id="path124" />
    </g>
    <g
       style="text-rendering:geometricPrecision;"
       id="g132">
      <path
         d="M435 83 L374 117"
         style="fill:none; clip-path:url(#clipPath7);"
         clip-path="url(#clipPath7)"
         id="path128" />
      <path
         d="M374 117 L386.7514 115.8459 L381.6881 106.7617 Z"
         style="clip-path:url(#clipPath7); fill-rule:evenodd; stroke:none;"
         clip-path="url(#clipPath7)"
         id="path130" />
    </g>
    <g
       style="text-rendering:geometricPrecision;"
       id="g140">
      <path
         d="M354.25 289.75 L354.8113 260.5113"
         style="fill:none; clip-path:url(#clipPath8);"
         clip-path="url(#clipPath8)"
         id="path134" />
      <path
         d="M355.0109 250.1133 C357.8822 250.1684 360.1653 252.5407 360.1101 255.4121 C360.055 258.2834 357.6826 260.5665 354.8113 260.5113 C351.9399 260.4562 349.6569 258.0838 349.712 255.2125 C349.7672 252.3411 352.1395 250.0581 355.0109 250.1133 Z"
         style="fill:white; clip-path:url(#clipPath8); stroke:none;"
         clip-path="url(#clipPath8)"
         id="path136" />
      <path
         d="M355.0109 250.1133 C357.8822 250.1684 360.1653 252.5407 360.1101 255.4121 C360.055 258.2834 357.6826 260.5665 354.8113 260.5113 C351.9399 260.4562 349.6569 258.0838 349.712 255.2125 C349.7672 252.3411 352.1395 250.0581 355.0109 250.1133 Z"
         style="fill:none; clip-path:url(#clipPath8);"
         clip-path="url(#clipPath8)"
         id="path138" />
    </g>
    <g
       style="text-rendering:geometricPrecision;"
       id="g146">
      <path
         d="M354 137 L354 162"
         style="fill:none; clip-path:url(#clipPath9);"
         clip-path="url(#clipPath9)"
         id="path142" />
      <path
         d="M354 162 L359.2 150.3 L348.8 150.3 Z"
         style="clip-path:url(#clipPath9); fill-rule:evenodd; stroke:none;"
         clip-path="url(#clipPath9)"
         id="path144" />
    </g>
    <g
       style="text-rendering:geometricPrecision;"
       id="g152">
      <path
         d="M277 218 L420.0002 218.9408"
         style="fill:none; clip-path:url(#clipPath10);"
         clip-path="url(#clipPath10)"
         id="path148" />
      <path
         d="M420.0344 213.7409 L431.7 219.0178 L419.966 224.1407 Z"
         style="clip-path:url(#clipPath10); stroke:none;"
         clip-path="url(#clipPath10)"
         id="path150" />
    </g>
    <g
       style="text-rendering:geometricPrecision;"
       id="g158">
      <path
         d="M160 161 L225 214"
         style="fill:none; clip-path:url(#clipPath11);"
         clip-path="url(#clipPath11)"
         id="path154" />
      <path
         d="M225 214 L219.2184 202.5762 L212.6462 210.6364 Z"
         style="clip-path:url(#clipPath11); fill-rule:evenodd; stroke:none;"
         clip-path="url(#clipPath11)"
         id="path156" />
    </g>
    <g
       style="text-rendering:geometricPrecision;"
       id="g164">
      <path
         d="M200 151 L314 127"
         style="fill:none; clip-path:url(#clipPath12);"
         clip-path="url(#clipPath12)"
         id="path160" />
      <path
         d="M314 127 L301.4797 124.3219 L303.6222 134.4988 Z"
         style="clip-path:url(#clipPath12); fill-rule:evenodd; stroke:none;"
         clip-path="url(#clipPath12)"
         id="path162" />
    </g>
    <g
       style="text-rendering:geometricPrecision;"
       id="g170">
      <path
         d="M533 235 L632 234.5"
         style="fill:none; clip-path:url(#clipPath13);"
         clip-path="url(#clipPath13)"
         id="path166" />
      <path
         d="M632 234.5 L620.2739 229.3592 L620.3264 239.759 Z"
         style="clip-path:url(#clipPath13); fill-rule:evenodd; stroke:none;"
         clip-path="url(#clipPath13)"
         id="path168" />
    </g>
    <g
       style="text-rendering:geometricPrecision;"
       id="g178">
      <path
         d="M354 182 L354.0023 208.5066"
         style="fill:none; clip-path:url(#clipPath14);"
         clip-path="url(#clipPath14)"
         id="path172" />
      <path
         d="M354.0033 218.9066 C351.1314 218.9069 348.8031 216.5789 348.8028 213.7071 C348.8026 210.8352 351.1305 208.5069 354.0023 208.5066 C356.8742 208.5063 359.2026 210.8343 359.2028 213.7061 C359.2031 216.578 356.8752 218.9063 354.0033 218.9066 Z"
         style="fill:white; clip-path:url(#clipPath14); stroke:none;"
         clip-path="url(#clipPath14)"
         id="path174" />
      <path
         d="M354.0033 218.9066 C351.1314 218.9069 348.8031 216.5789 348.8028 213.7071 C348.8026 210.8352 351.1305 208.5069 354.0023 208.5066 C356.8742 208.5063 359.2026 210.8343 359.2028 213.7061 C359.2031 216.578 356.8752 218.9063 354.0033 218.9066 Z"
         style="fill:none; clip-path:url(#clipPath14);"
         clip-path="url(#clipPath14)"
         id="path176" />
    </g>
    <g
       style="text-rendering:geometricPrecision;"
       id="g184">
      <path
         d="M277 85 L334 117"
         style="fill:none; clip-path:url(#clipPath15);"
         clip-path="url(#clipPath15)"
         id="path180" />
      <path
         d="M334 117 L326.3434 106.7381 L321.2522 115.8068 Z"
         style="clip-path:url(#clipPath15); fill-rule:evenodd; stroke:none;"
         clip-path="url(#clipPath15)"
         id="path182" />
    </g>
    <g
       style="text-rendering:geometricPrecision;"
       id="g192">
      <path
         d="M394 127 L468.8489 86.3413"
         style="fill:none; clip-path:url(#clipPath16);"
         clip-path="url(#clipPath16)"
         id="path186" />
      <path
         d="M464.5052 78.3449 L465.6476 77.7244 L474.9555 94.8595 L473.8132 95.48 L464.5052 78.3449 Z"
         style="fill:white; clip-path:url(#clipPath16); stroke:none;"
         clip-path="url(#clipPath16)"
         id="path188" />
      <path
         d="M464.5052 78.3449 L465.6476 77.7244 L474.9555 94.8595 L473.8132 95.48 L464.5052 78.3449 Z"
         style="fill:none; clip-path:url(#clipPath16);"
         clip-path="url(#clipPath16)"
         id="path190" />
    </g>
    <g
       style="text-rendering:geometricPrecision;"
       id="g198">
      <path
         d="M146 184 L185 224"
         style="fill:none; clip-path:url(#clipPath17);"
         clip-path="url(#clipPath17)"
         id="path194" />
      <path
         d="M185 224 L180.5554 211.9927 L173.109 219.2529 Z"
         style="clip-path:url(#clipPath17); fill-rule:evenodd; stroke:none;"
         clip-path="url(#clipPath17)"
         id="path196" />
    </g>
    <g
       style="text-rendering:geometricPrecision;"
       id="g204">
      <path
         d="M429 251 L285.9998 250.0592"
         style="fill:none; clip-path:url(#clipPath18);"
         clip-path="url(#clipPath18)"
         id="path200" />
      <path
         d="M285.9656 255.2591 L274.3 249.9822 L286.034 244.8593 Z"
         style="clip-path:url(#clipPath18); stroke:none;"
         clip-path="url(#clipPath18)"
         id="path202" />
    </g>
    <g
       style="fill:white; text-rendering:geometricPrecision; stroke:white;"
       id="g212">
      <path
         d="M217 65 L297 65 L297 85 L217 85 L217 65 Z"
         style="clip-path:url(#clipPath19); stroke:none;"
         clip-path="url(#clipPath19)"
         id="path206" />
      <path
         d="M217 65 L297 65 L297 85 L217 85 L217 65 Z"
         style="fill:none; clip-path:url(#clipPath19); stroke:black;"
         clip-path="url(#clipPath19)"
         id="path208" />
      <text
         x="239"
         y="78"
         style="font-size:10; clip-path:url(#clipPath19); fill:black; stroke:none;"
         xml:space="preserve"
         clip-path="url(#clipPath19)"
         id="text210">TFAP2A</text>
    </g>
    <g
       style="fill:white; text-rendering:geometricPrecision; stroke:white;"
       id="g220">
      <path
         d="M314.25 289.75 L394.25 289.75 L394.25 309.75 L314.25 309.75 L314.25 289.75 Z"
         style="clip-path:url(#clipPath20); stroke:none;"
         clip-path="url(#clipPath20)"
         id="path214" />
      <path
         d="M314.25 289.75 L394.25 289.75 L394.25 309.75 L314.25 309.75 L314.25 289.75 Z"
         style="fill:none; clip-path:url(#clipPath20); stroke:black;"
         clip-path="url(#clipPath20)"
         id="path216" />
      <text
         x="345"
         y="303"
         style="font-size:10; clip-path:url(#clipPath20); fill:black; stroke:none;"
         xml:space="preserve"
         clip-path="url(#clipPath20)"
         id="text218">GEF</text>
    </g>
    <g
       style="fill:white; text-rendering:geometricPrecision; stroke:white;"
       id="g228">
      <path
         d="M66 174 L146 174 L146 194 L66 194 L66 174 Z"
         style="clip-path:url(#clipPath21); stroke:none;"
         clip-path="url(#clipPath21)"
         id="path222" />
      <path
         d="M66 174 L146 174 L146 194 L66 194 L66 174 Z"
         style="fill:none; clip-path:url(#clipPath21); stroke:black;"
         clip-path="url(#clipPath21)"
         id="path224" />
      <text
         x="95"
         y="187"
         style="font-size:10; clip-path:url(#clipPath21); fill:black; stroke:none;"
         xml:space="preserve"
         clip-path="url(#clipPath21)"
         id="text226">WNT</text>
    </g>
    <g
       style="fill:rgb(20,150,30); text-rendering:geometricPrecision; font-weight:bold; stroke:rgb(20,150,30);"
       id="g232">
      <text
         x="637"
         xml:space="preserve"
         y="239"
         style="clip-path:url(#clipPath22); stroke:none;"
         clip-path="url(#clipPath22)"
         id="text230">Cell Migration</text>
    </g>
    <g
       style="fill:white; text-rendering:geometricPrecision; stroke:white;"
       id="g240">
      <path
         d="M185 214 L265 214 L265 234 L185 234 L185 214 Z"
         style="clip-path:url(#clipPath23); stroke:none;"
         clip-path="url(#clipPath23)"
         id="path234" />
      <path
         d="M185 214 L265 214 L265 234 L185 234 L185 214 Z"
         style="fill:none; clip-path:url(#clipPath23); stroke:black;"
         clip-path="url(#clipPath23)"
         id="path236" />
      <text
         x="212"
         y="227"
         style="font-size:10; clip-path:url(#clipPath23); fill:black; stroke:none;"
         xml:space="preserve"
         clip-path="url(#clipPath23)"
         id="text238">RhoA</text>
    </g>
    <g
       style="fill:white; text-rendering:geometricPrecision; stroke:white;"
       id="g248">
      <path
         d="M314 117 L394 117 L394 137 L314 137 L314 117 Z"
         style="clip-path:url(#clipPath24); stroke:none;"
         clip-path="url(#clipPath24)"
         id="path242" />
      <path
         d="M314 117 L394 117 L394 137 L314 137 L314 117 Z"
         style="fill:none; clip-path:url(#clipPath24); stroke:black;"
         clip-path="url(#clipPath24)"
         id="path244" />
      <text
         x="343"
         y="130"
         style="font-size:10; clip-path:url(#clipPath24); fill:black; stroke:none;"
         xml:space="preserve"
         clip-path="url(#clipPath24)"
         id="text246">IRF6</text>
    </g>
    <g
       style="fill:white; text-rendering:geometricPrecision; stroke:white;"
       id="g256">
      <path
         d="M441 235 L521 235 L521 255 L441 255 L441 235 Z"
         style="clip-path:url(#clipPath25); stroke:none;"
         clip-path="url(#clipPath25)"
         id="path250" />
      <path
         d="M441 235 L521 235 L521 255 L441 255 L441 235 Z"
         style="fill:none; clip-path:url(#clipPath25); stroke:blue;"
         clip-path="url(#clipPath25)"
         id="path252" />
      <text
         x="471"
         y="248"
         style="font-size:10; clip-path:url(#clipPath25); fill:blue; stroke:none;"
         xml:space="preserve"
         clip-path="url(#clipPath25)"
         id="text254">GDP</text>
    </g>
    <g
       style="fill:white; text-rendering:geometricPrecision; stroke:white;"
       id="g264">
      <path
         d="M120 141 L200 141 L200 161 L120 161 L120 141 Z"
         style="clip-path:url(#clipPath26); stroke:none;"
         clip-path="url(#clipPath26)"
         id="path258" />
      <path
         d="M120 141 L200 141 L200 161 L120 161 L120 141 Z"
         style="fill:none; clip-path:url(#clipPath26); stroke:black;"
         clip-path="url(#clipPath26)"
         id="path260" />
      <text
         x="144"
         y="154"
         style="font-size:10; clip-path:url(#clipPath26); fill:black; stroke:none;"
         xml:space="preserve"
         clip-path="url(#clipPath26)"
         id="text262">TGFB3</text>
    </g>
    <g
       style="fill:white; text-rendering:geometricPrecision; stroke:white;"
       id="g272">
      <path
         d="M185 234 L265 234 L265 254 L185 254 L185 234 Z"
         style="clip-path:url(#clipPath27); stroke:none;"
         clip-path="url(#clipPath27)"
         id="path266" />
      <path
         d="M185 234 L265 234 L265 254 L185 254 L185 234 Z"
         style="fill:none; clip-path:url(#clipPath27); stroke:blue;"
         clip-path="url(#clipPath27)"
         id="path268" />
      <text
         x="216"
         y="247"
         style="font-size:10; clip-path:url(#clipPath27); fill:blue; stroke:none;"
         xml:space="preserve"
         clip-path="url(#clipPath27)"
         id="text270">GTP</text>
    </g>
    <g
       style="fill:white; text-rendering:geometricPrecision; stroke:white;"
       id="g280">
      <path
         d="M441 215 L521 215 L521 235 L441 235 L441 215 Z"
         style="clip-path:url(#clipPath28); stroke:none;"
         clip-path="url(#clipPath28)"
         id="path274" />
      <path
         d="M441 215 L521 215 L521 235 L441 235 L441 215 Z"
         style="fill:none; clip-path:url(#clipPath28); stroke:black;"
         clip-path="url(#clipPath28)"
         id="path276" />
      <text
         x="467"
         y="228"
         style="font-size:10; clip-path:url(#clipPath28); fill:black; stroke:none;"
         xml:space="preserve"
         clip-path="url(#clipPath28)"
         id="text278">RHOA</text>
    </g>
    <g
       style="fill:white; text-rendering:geometricPrecision; stroke:white;"
       id="g288">
      <path
         d="M314 162 L394 162 L394 182 L314 182 L314 162 Z"
         style="clip-path:url(#clipPath29); stroke:none;"
         clip-path="url(#clipPath29)"
         id="path282" />
      <path
         d="M314 162 L394 162 L394 182 L314 182 L314 162 Z"
         style="fill:none; clip-path:url(#clipPath29); stroke:black;"
         clip-path="url(#clipPath29)"
         id="path284" />
      <text
         x="327"
         y="175"
         style="font-size:10; clip-path:url(#clipPath29); fill:black; stroke:none;"
         xml:space="preserve"
         clip-path="url(#clipPath29)"
         id="text286">ARHGAP29</text>
    </g>
    <g
       style="fill:white; text-rendering:geometricPrecision; stroke:white;"
       id="g296">
      <path
         d="M415 63 L495 63 L495 83 L415 83 L415 63 Z"
         style="clip-path:url(#clipPath30); stroke:none;"
         clip-path="url(#clipPath30)"
         id="path290" />
      <path
         d="M415 63 L495 63 L495 83 L415 83 L415 63 Z"
         style="fill:none; clip-path:url(#clipPath30); stroke:black;"
         clip-path="url(#clipPath30)"
         id="path292" />
      <text
         x="443"
         y="76"
         style="font-size:10; clip-path:url(#clipPath30); fill:black; stroke:none;"
         xml:space="preserve"
         clip-path="url(#clipPath30)"
         id="text294">TP63</text>
    </g>
  </g>
</svg>
