<?xml version="1.0" encoding="UTF-8" standalone="no"?>
<svg
   style="fill-opacity:1; color-rendering:auto; color-interpolation:auto; stroke:black; text-rendering:auto; stroke-linecap:square; stroke-miterlimit:10; stroke-opacity:1; shape-rendering:auto; fill:black; stroke-dasharray:none; font-weight:normal; stroke-width:1; font-family:'Dialog'; font-style:normal; stroke-linejoin:miter; font-size:12; stroke-dashoffset:0; image-rendering:auto;"
   width="900"
   height="671"
   version="1.1"
   id="svg573"
   xmlns="http://www.w3.org/2000/svg"
   xmlns:svg="http://www.w3.org/2000/svg">
  <!--Generated by the Batik Graphics2D SVG Generator-->
  <defs
     id="genericDefs" />
  <g
     id="g571">
    <defs
       id="defs1">
      <clipPath
         clipPathUnits="userSpaceOnUse"
         id="clipPath1">
        <path
           d="M0 0 L910 0 L910 681 L0 681 L0 0 Z"
           id="path3" />
      </clipPath>
      <clipPath
         clipPathUnits="userSpaceOnUse"
         id="clipPath2">
        <path
           d="M78.916 87.1431 L78.916 632.7497 L501.7512 632.7497 L501.7512 87.1431 Z"
           id="path6" />
      </clipPath>
      <clipPath
         clipPathUnits="userSpaceOnUse"
         id="clipPath3">
        <path
           d="M0 0 L0 200 L200 200 L200 0 Z"
           id="path9" />
      </clipPath>
      <clipPath
         clipPathUnits="userSpaceOnUse"
         id="clipPath4">
        <path
           d="M186 16 L186 37 L197 37 L197 16 Z"
           id="path12" />
      </clipPath>
      <clipPath
         clipPathUnits="userSpaceOnUse"
         id="clipPath5">
        <path
           d="M185.4551 3.918 L196.5449 3.918 L196.5449 19.2305 L185.4551 19.2305 L185.4551 3.918 Z"
           id="path15" />
      </clipPath>
      <clipPath
         clipPathUnits="userSpaceOnUse"
         id="clipPath6">
        <path
           d="M171 112.5 L171 186.5 L264 186.5 L264 112.5 Z"
           id="path18" />
      </clipPath>
      <clipPath
         clipPathUnits="userSpaceOnUse"
         id="clipPath7">
        <path
           d="M259 109.5 L259 130.5 L270 130.5 L270 109.5 Z"
           id="path21" />
      </clipPath>
      <clipPath
         clipPathUnits="userSpaceOnUse"
         id="clipPath8">
        <path
           d="M258.4551 97.418 L269.5449 97.418 L269.5449 112.7305 L258.4551 112.7305 L258.4551 97.418 Z"
           id="path24" />
      </clipPath>
      <clipPath
         clipPathUnits="userSpaceOnUse"
         id="clipPath9">
        <path
           d="M212.0594 173.9958 L212.0594 210.9002 L223.4595 210.9002 L223.4595 173.9958 Z"
           id="path27" />
      </clipPath>
      <clipPath
         clipPathUnits="userSpaceOnUse"
         id="clipPath10">
        <path
           d="M631.3034 194.8034 L631.3034 302.708 L784.5071 302.708 L784.5071 194.8034 Z"
           id="path30" />
      </clipPath>
      <clipPath
         clipPathUnits="userSpaceOnUse"
         id="clipPath11">
        <path
           d="M255.5662 323.9811 L255.5662 377.7302 L267.4961 377.7302 L267.4961 323.9811 Z"
           id="path33" />
      </clipPath>
      <clipPath
         clipPathUnits="userSpaceOnUse"
         id="clipPath12">
        <path
           d="M282.4966 229.9986 L282.4966 410.7311 L294.4353 410.7311 L294.4353 229.9986 Z"
           id="path36" />
      </clipPath>
      <clipPath
         clipPathUnits="userSpaceOnUse"
         id="clipPath13">
        <path
           d="M189.3236 404.9791 L189.3236 423.4625 L200.7238 423.4625 L200.7238 404.9791 Z"
           id="path39" />
      </clipPath>
      <clipPath
         clipPathUnits="userSpaceOnUse"
         id="clipPath14">
        <path
           d="M257.4984 486.3844 L257.4984 497.7844 L289.6 497.7844 L289.6 486.3844 Z"
           id="path42" />
      </clipPath>
      <clipPath
         clipPathUnits="userSpaceOnUse"
         id="clipPath15">
        <path
           d="M282.9883 433.9983 L282.9883 579.7311 L294.927 579.7311 L294.927 433.9983 Z"
           id="path45" />
      </clipPath>
      <clipPath
         clipPathUnits="userSpaceOnUse"
         id="clipPath16">
        <path
           d="M332.9952 417.9133 L332.9952 429.8515 L542.231 429.8515 L542.231 417.9133 Z"
           id="path48" />
      </clipPath>
      <clipPath
         clipPathUnits="userSpaceOnUse"
         id="clipPath17">
        <path
           d="M638.3174 339.8174 L638.3174 424.1826 L784.5676 424.1826 L784.5676 339.8174 Z"
           id="path51" />
      </clipPath>
      <clipPath
         clipPathUnits="userSpaceOnUse"
         id="clipPath18">
        <path
           d="M146.4891 285.3225 L146.4891 297.2584 L218.9301 297.2584 L218.9301 285.3225 Z"
           id="path54" />
      </clipPath>
      <clipPath
         clipPathUnits="userSpaceOnUse"
         id="clipPath19">
        <path
           d="M204.5 204.0306 L204.5 215.9694 L238.2311 215.9694 L238.2311 204.0306 Z"
           id="path57" />
      </clipPath>
      <clipPath
         clipPathUnits="userSpaceOnUse"
         id="clipPath20">
        <path
           d="M712.37 213.9943 L712.37 257.5229 L724.3079 257.5229 L724.3079 213.9943 Z"
           id="path60" />
      </clipPath>
      <clipPath
         clipPathUnits="userSpaceOnUse"
         id="clipPath21">
        <path
           d="M437.0576 392.9951 L437.0576 423.9529 L448.4576 423.9529 L448.4576 392.9951 Z"
           id="path63" />
      </clipPath>
      <clipPath
         clipPathUnits="userSpaceOnUse"
         id="clipPath22">
        <path
           d="M173.3046 267.986 L173.3046 291.6049 L184.7047 291.6049 L184.7047 267.986 Z"
           id="path66" />
      </clipPath>
      <clipPath
         clipPathUnits="userSpaceOnUse"
         id="clipPath23">
        <path
           d="M156.4942 416.1721 L156.4942 428.11 L244.731 428.11 L244.731 416.1721 Z"
           id="path69" />
      </clipPath>
      <clipPath
         clipPathUnits="userSpaceOnUse"
         id="clipPath24">
        <path
           d="M580.196 228.9933 L580.196 378.731 L592.1337 378.731 L592.1337 228.9933 Z"
           id="path72" />
      </clipPath>
      <clipPath
         clipPathUnits="userSpaceOnUse"
         id="clipPath25">
        <path
           d="M693.6949 388.637 L693.6949 444.191 L731.691 444.191 L731.691 388.637 Z"
           id="path75" />
      </clipPath>
      <clipPath
         clipPathUnits="userSpaceOnUse"
         id="clipPath26">
        <path
           d="M50.75 66 L50.75 657 L886 657 L886 66 Z"
           id="path78" />
      </clipPath>
      <clipPath
         clipPathUnits="userSpaceOnUse"
         id="clipPath27">
        <path
           d="M243.5 578 L243.5 604 L334.5 604 L334.5 578 Z"
           id="path81" />
      </clipPath>
      <clipPath
         clipPathUnits="userSpaceOnUse"
         id="clipPath28">
        <path
           d="M92.5 292 L92.5 318 L126.5 318 L126.5 292 Z"
           id="path84" />
      </clipPath>
      <clipPath
         clipPathUnits="userSpaceOnUse"
         id="clipPath29">
        <path
           d="M182.5 124 L182.5 150 L252.5 150 L252.5 124 Z"
           id="path87" />
      </clipPath>
      <clipPath
         clipPathUnits="userSpaceOnUse"
         id="clipPath30">
        <path
           d="M123.5 410 L123.5 436 L157.5 436 L157.5 410 Z"
           id="path90" />
      </clipPath>
      <clipPath
         clipPathUnits="userSpaceOnUse"
         id="clipPath31">
        <path
           d="M266.5 190 L266.5 216 L339.5 216 L339.5 190 Z"
           id="path93" />
      </clipPath>
      <clipPath
         clipPathUnits="userSpaceOnUse"
         id="clipPath32">
        <path
           d="M134.5 197 L134.5 223 L205.5 223 L205.5 197 Z"
           id="path96" />
      </clipPath>
      <clipPath
         clipPathUnits="userSpaceOnUse"
         id="clipPath33">
        <path
           d="M186.5 149 L186.5 175 L248.5 175 L248.5 149 Z"
           id="path99" />
      </clipPath>
      <clipPath
         clipPathUnits="userSpaceOnUse"
         id="clipPath34">
        <path
           d="M243 409 L243 435 L334 435 L334 409 Z"
           id="path102" />
      </clipPath>
      <clipPath
         clipPathUnits="userSpaceOnUse"
         id="clipPath35">
        <path
           d="M236.5 197 L236.5 223 L267.5 223 L267.5 197 Z"
           id="path105" />
      </clipPath>
      <clipPath
         clipPathUnits="userSpaceOnUse"
         id="clipPath36">
        <path
           d="M145.5 243 L145.5 269 L213.5 269 L213.5 243 Z"
           id="path108" />
      </clipPath>
      <clipPath
         clipPathUnits="userSpaceOnUse"
         id="clipPath37">
        <path
           d="M164.5 344 L164.5 370 L224.5 370 L224.5 344 Z"
           id="path111" />
      </clipPath>
      <clipPath
         clipPathUnits="userSpaceOnUse"
         id="clipPath38">
        <path
           d="M164.5 372 L164.5 398 L224.5 398 L224.5 372 Z"
           id="path114" />
      </clipPath>
      <clipPath
         clipPathUnits="userSpaceOnUse"
         id="clipPath39">
        <path
           d="M407.5 368 L407.5 394 L478.5 394 L478.5 368 Z"
           id="path117" />
      </clipPath>
      <clipPath
         clipPathUnits="userSpaceOnUse"
         id="clipPath40">
        <path
           d="M175.5 479 L175.5 505 L246.5 505 L246.5 479 Z"
           id="path120" />
      </clipPath>
      <clipPath
         clipPathUnits="userSpaceOnUse"
         id="clipPath41">
        <path
           d="M179.5 508 L179.5 534 L250.5 534 L250.5 508 Z"
           id="path123" />
      </clipPath>
      <clipPath
         clipPathUnits="userSpaceOnUse"
         id="clipPath42">
        <path
           d="M177.5 450 L177.5 476 L248.5 476 L248.5 450 Z"
           id="path126" />
      </clipPath>
      <clipPath
         clipPathUnits="userSpaceOnUse"
         id="clipPath43">
        <path
           d="M551.5 436 L551.5 462 L622.5 462 L622.5 436 Z"
           id="path129" />
      </clipPath>
      <clipPath
         clipPathUnits="userSpaceOnUse"
         id="clipPath44">
        <path
           d="M552.5 385 L552.5 411 L623.5 411 L623.5 385 Z"
           id="path132" />
      </clipPath>
      <clipPath
         clipPathUnits="userSpaceOnUse"
         id="clipPath45">
        <path
           d="M663.5 456 L663.5 482 L718.5 482 L718.5 456 Z"
           id="path135" />
      </clipPath>
      <clipPath
         clipPathUnits="userSpaceOnUse"
         id="clipPath46">
        <path
           d="M694.5 484 L694.5 510 L765.5 510 L765.5 484 Z"
           id="path138" />
      </clipPath>
      <clipPath
         clipPathUnits="userSpaceOnUse"
         id="clipPath47">
        <path
           d="M727.5 451 L727.5 477 L798.5 477 L798.5 451 Z"
           id="path141" />
      </clipPath>
      <clipPath
         clipPathUnits="userSpaceOnUse"
         id="clipPath48">
        <path
           d="M684.5 181 L684.5 207 L752.5 207 L752.5 181 Z"
           id="path144" />
      </clipPath>
      <clipPath
         clipPathUnits="userSpaceOnUse"
         id="clipPath49">
        <path
           d="M682.5 152 L682.5 178 L753.5 178 L753.5 152 Z"
           id="path147" />
      </clipPath>
      <clipPath
         clipPathUnits="userSpaceOnUse"
         id="clipPath50">
        <path
           d="M556.5 169 L556.5 195 L618.5 195 L618.5 169 Z"
           id="path150" />
      </clipPath>
      <clipPath
         clipPathUnits="userSpaceOnUse"
         id="clipPath51">
        <path
           d="M551.5 196 L551.5 222 L624.5 222 L624.5 196 Z"
           id="path153" />
      </clipPath>
      <clipPath
         clipPathUnits="userSpaceOnUse"
         id="clipPath52">
        <path
           d="M222.5 266 L222.5 292 L252.5 292 L252.5 266 Z"
           id="path156" />
      </clipPath>
      <clipPath
         clipPathUnits="userSpaceOnUse"
         id="clipPath53">
        <path
           d="M242.5 291 L242.5 317 L267.5 317 L267.5 291 Z"
           id="path159" />
      </clipPath>
      <clipPath
         clipPathUnits="userSpaceOnUse"
         id="clipPath54">
        <path
           d="M105.5 262 L105.5 288 L139.5 288 L139.5 262 Z"
           id="path162" />
      </clipPath>
      <clipPath
         clipPathUnits="userSpaceOnUse"
         id="clipPath55">
        <path
           d="M540.5 411 L540.5 437 L631.5 437 L631.5 411 Z"
           id="path165" />
      </clipPath>
      <clipPath
         clipPathUnits="userSpaceOnUse"
         id="clipPath56">
        <path
           d="M760.5 301.5 L760.5 341 L851.5 341 L851.5 301.5 Z"
           id="path168" />
      </clipPath>
      <clipPath
         clipPathUnits="userSpaceOnUse"
         id="clipPath57">
        <path
           d="M252 384 L252 410 L325 410 L325 384 Z"
           id="path171" />
      </clipPath>
    </defs>
    <g
       style="fill:white; stroke:white;"
       id="g177">
      <rect
         x="0"
         width="910"
         height="681"
         y="0"
         style="stroke:none;"
         id="rect175" />
    </g>
    <g
       style="fill:silver; text-rendering:geometricPrecision; stroke-width:3; stroke:silver;"
       id="g181">
      <path
         d="M394.1447 158.6281 C397.6701 183.4305 318.4931 181.0785 322.51 205.8265 C322.7878 252.9151 447.9689 221.7024 449.1505 261.0665 C450.3344 300.7112 315.9478 275.0224 318.5576 314.6045 C321.4348 358.0225 465.2022 316.2043 468.6448 359.5974 C472.1032 403.381 326.1553 377.4629 325.7162 421.3409 C325.33 458.6143 448.9272 437.4871 446.0441 474.7022 C442.8742 515.6679 313.2174 479.6454 305.4572 520.2205 C300.284 547.2939 386.9555 544.6696 383.5546 571.9279 C350.3818 635.5548 216.1552 622.5016 184.7032 561.2655 C181.4355 543.4258 231.2551 538.2787 228.442 520.395 C223.4535 488.6205 129.0379 498.5983 130.9213 466.5831 C132.6887 436.7536 227.1383 453.0719 227.2822 423.2166 C227.4633 383.5899 98.3616 405.2364 99.9201 365.6178 C101.2858 330.6508 210.9048 354.7931 216.1339 320.0627 C221.0023 287.6807 117.1641 290.3152 123.5098 258.1106 C130.5263 222.4827 242.2302 254.3934 247.2281 218.5527 C250.1898 197.3012 182.9838 204.0439 182.1569 182.6753 C207.8817 102.6785 358.1279 91.4993 394.1447 158.6281 ZM500.2479 358.1376 C500.8243 464.5108 426.9357 629.0507 296.4334 631.2277 C165.3042 633.4202 81.4742 470.7248 80.426 363.8446 C79.377 255.4712 161.164 88.5471 294.1579 88.6431 C424.2497 88.7346 499.6623 252.1252 500.2479 358.1376 Z"
         style="fill:none; clip-path:url(#clipPath2);"
         clip-path="url(#clipPath2)"
         id="path179" />
    </g>
    <g
       style="font-weight:bold; font-size:10; text-rendering:geometricPrecision;"
       id="g191">
      <path
         d="M0.0469 6.7031 L6.7656 6.7031 L6.7656 8.125 L4.3438 8.125 L4.3438 14 L2.4688 14 L2.4688 8.125 L0.0469 8.125 L0.0469 6.7031 ZM7.665 8.5312 L9.415 8.5312 L9.415 14 L7.665 14 L7.665 8.5312 ZM7.665 6.4062 L9.415 6.4062 L9.415 7.8281 L7.665 7.8281 L7.665 6.4062 ZM12.999 6.9844 L12.999 8.5312 L14.7959 8.5312 L14.7959 9.7812 L12.999 9.7812 L12.999 12.0938 Q12.999 12.4844 13.1475 12.6172 Q13.2959 12.75 13.749 12.75 L14.6553 12.75 L14.6553 14 L13.1553 14 Q12.1084 14 11.6787 13.5703 Q11.249 13.1406 11.249 12.0938 L11.249 9.7812 L10.374 9.7812 L10.374 8.5312 L11.249 8.5312 L11.249 6.9844 L12.999 6.9844 ZM15.873 6.4062 L17.623 6.4062 L17.623 14 L15.873 14 L15.873 6.4062 ZM24.7539 11.25 L24.7539 11.75 L20.6758 11.75 Q20.7383 12.3594 21.1133 12.6719 Q21.4883 12.9844 22.1758 12.9844 Q22.7227 12.9844 23.3086 12.8203 Q23.8945 12.6562 24.5039 12.3125 L24.5039 13.6719 Q23.8789 13.9062 23.2617 14.0234 Q22.6445 14.1406 22.0195 14.1406 Q20.5352 14.1406 19.7148 13.3828 Q18.8945 12.625 18.8945 11.2656 Q18.8945 9.9375 19.6992 9.1719 Q20.5039 8.4062 21.9258 8.4062 Q23.207 8.4062 23.9805 9.1797 Q24.7539 9.9531 24.7539 11.25 ZM22.957 10.6719 Q22.957 10.1719 22.668 9.8672 Q22.3789 9.5625 21.9102 9.5625 Q21.3945 9.5625 21.082 9.8438 Q20.7695 10.125 20.6914 10.6719 L22.957 10.6719 ZM26.3643 8.5312 L28.1143 8.5312 L28.1143 10.4219 L26.3643 10.4219 L26.3643 8.5312 ZM26.3643 12.1094 L28.1143 12.1094 L28.1143 14 L26.3643 14 L26.3643 12.1094 Z"
         style="clip-path:url(#clipPath3); stroke:none;"
         clip-path="url(#clipPath3)"
         id="path183" />
      <path
         d="M38.9844 6.7031 L39.9688 6.7031 L39.9688 14 L38.9844 14 L38.9844 6.7031 ZM45.0586 9.375 Q44.9023 9.2812 44.7305 9.2422 Q44.5586 9.2031 44.3398 9.2031 Q43.5742 9.2031 43.168 9.6953 Q42.7617 10.1875 42.7617 11.125 L42.7617 14 L41.8555 14 L41.8555 8.5312 L42.7617 8.5312 L42.7617 9.375 Q43.043 8.875 43.4961 8.6406 Q43.9492 8.4062 44.6055 8.4062 Q44.6992 8.4062 44.8086 8.4141 Q44.918 8.4219 45.0586 8.4531 L45.0586 9.375 ZM48.123 9.1562 Q47.4043 9.1562 46.9824 9.7188 Q46.5605 10.2812 46.5605 11.2656 Q46.5605 12.25 46.9746 12.8125 Q47.3887 13.375 48.123 13.375 Q48.8418 13.375 49.2637 12.8125 Q49.6855 12.25 49.6855 11.2656 Q49.6855 10.2969 49.2637 9.7266 Q48.8418 9.1562 48.123 9.1562 ZM48.123 8.4062 Q49.2949 8.4062 49.9668 9.1641 Q50.6387 9.9219 50.6387 11.2656 Q50.6387 12.6094 49.9668 13.375 Q49.2949 14.1406 48.123 14.1406 Q46.9512 14.1406 46.2793 13.375 Q45.6074 12.6094 45.6074 11.2656 Q45.6074 9.9219 46.2793 9.1641 Q46.9512 8.4062 48.123 8.4062 ZM56.6631 10.7031 L56.6631 14 L55.7725 14 L55.7725 10.7344 Q55.7725 9.9531 55.4678 9.5703 Q55.1631 9.1875 54.5537 9.1875 Q53.835 9.1875 53.4131 9.6484 Q52.9912 10.1094 52.9912 10.9062 L52.9912 14 L52.085 14 L52.085 8.5312 L52.9912 8.5312 L52.9912 9.375 Q53.3193 8.8906 53.7568 8.6484 Q54.1943 8.4062 54.7568 8.4062 Q55.6943 8.4062 56.1787 8.9844 Q56.6631 9.5625 56.6631 10.7031 ZM58.001 10.8594 L60.6416 10.8594 L60.6416 11.6562 L58.001 11.6562 L58.001 10.8594 ZM65.5469 8.6875 L65.5469 9.5469 Q65.1719 9.3438 64.7656 9.25 Q64.3594 9.1562 63.9062 9.1562 Q63.25 9.1562 62.9141 9.3594 Q62.5781 9.5625 62.5781 9.9688 Q62.5781 10.2812 62.8125 10.4609 Q63.0469 10.6406 63.7812 10.7969 L64.0781 10.875 Q65.0469 11.0781 65.4453 11.4531 Q65.8438 11.8281 65.8438 12.4844 Q65.8438 13.25 65.2422 13.6953 Q64.6406 14.1406 63.5938 14.1406 Q63.1406 14.1406 62.6641 14.0547 Q62.1875 13.9688 61.6719 13.7969 L61.6719 12.875 Q62.1719 13.125 62.6484 13.2578 Q63.125 13.3906 63.6094 13.3906 Q64.2344 13.3906 64.5781 13.1719 Q64.9219 12.9531 64.9219 12.5625 Q64.9219 12.1875 64.6797 11.9922 Q64.4375 11.7969 63.5938 11.625 L63.2812 11.5469 Q62.4531 11.375 62.0781 11.0078 Q61.7031 10.6406 61.7031 10.0156 Q61.7031 9.2344 62.25 8.8203 Q62.7969 8.4062 63.8125 8.4062 Q64.2969 8.4062 64.7422 8.4766 Q65.1875 8.5469 65.5469 8.6875 ZM67.1787 11.8438 L67.1787 8.5312 L68.085 8.5312 L68.085 11.8125 Q68.085 12.5781 68.3896 12.9688 Q68.6943 13.3594 69.2881 13.3594 Q70.0225 13.3594 70.4443 12.8984 Q70.8662 12.4375 70.8662 11.625 L70.8662 8.5312 L71.7725 8.5312 L71.7725 14 L70.8662 14 L70.8662 13.1562 Q70.5381 13.6562 70.1084 13.8984 Q69.6787 14.1406 69.1006 14.1406 Q68.1631 14.1406 67.6709 13.5547 Q67.1787 12.9688 67.1787 11.8438 ZM69.4443 8.4062 L69.4443 8.4062 ZM73.6104 6.4062 L74.5166 6.4062 L74.5166 14 L73.6104 14 L73.6104 6.4062 ZM79.1699 6.4062 L79.1699 7.1562 L78.3105 7.1562 Q77.8262 7.1562 77.6387 7.3516 Q77.4512 7.5469 77.4512 8.0469 L77.4512 8.5312 L78.9199 8.5312 L78.9199 9.2344 L77.4512 9.2344 L77.4512 14 L76.5449 14 L76.5449 9.2344 L75.6855 9.2344 L75.6855 8.5312 L76.5449 8.5312 L76.5449 8.1562 Q76.5449 7.2344 76.9668 6.8203 Q77.3887 6.4062 78.3105 6.4062 L79.1699 6.4062 ZM79.8154 11.8438 L79.8154 8.5312 L80.7217 8.5312 L80.7217 11.8125 Q80.7217 12.5781 81.0264 12.9688 Q81.3311 13.3594 81.9248 13.3594 Q82.6592 13.3594 83.0811 12.8984 Q83.5029 12.4375 83.5029 11.625 L83.5029 8.5312 L84.4092 8.5312 L84.4092 14 L83.5029 14 L83.5029 13.1562 Q83.1748 13.6562 82.7451 13.8984 Q82.3154 14.1406 81.7373 14.1406 Q80.7998 14.1406 80.3076 13.5547 Q79.8154 12.9688 79.8154 11.8438 ZM82.0811 8.4062 L82.0811 8.4062 ZM89.4189 9.375 Q89.2627 9.2812 89.0908 9.2422 Q88.9189 9.2031 88.7002 9.2031 Q87.9346 9.2031 87.5283 9.6953 Q87.1221 10.1875 87.1221 11.125 L87.1221 14 L86.2158 14 L86.2158 8.5312 L87.1221 8.5312 L87.1221 9.375 Q87.4033 8.875 87.8564 8.6406 Q88.3096 8.4062 88.9658 8.4062 Q89.0596 8.4062 89.1689 8.4141 Q89.2783 8.4219 89.4189 8.4531 L89.4189 9.375 ZM97.4746 8.7344 L97.4746 9.5781 Q97.0996 9.375 96.7168 9.2656 Q96.334 9.1562 95.9434 9.1562 Q95.0684 9.1562 94.584 9.7109 Q94.0996 10.2656 94.0996 11.2656 Q94.0996 12.2656 94.584 12.8203 Q95.0684 13.375 95.9434 13.375 Q96.334 13.375 96.7168 13.2734 Q97.0996 13.1719 97.4746 12.9531 L97.4746 13.7969 Q97.0996 13.9688 96.7012 14.0547 Q96.3027 14.1406 95.8496 14.1406 Q94.5996 14.1406 93.873 13.3672 Q93.1465 12.5938 93.1465 11.2656 Q93.1465 9.9375 93.8809 9.1719 Q94.6152 8.4062 95.8965 8.4062 Q96.3184 8.4062 96.709 8.4844 Q97.0996 8.5625 97.4746 8.7344 ZM99.0352 6.4062 L99.9414 6.4062 L99.9414 14 L99.0352 14 L99.0352 6.4062 ZM101.7197 11.8438 L101.7197 8.5312 L102.626 8.5312 L102.626 11.8125 Q102.626 12.5781 102.9307 12.9688 Q103.2354 13.3594 103.8291 13.3594 Q104.5635 13.3594 104.9854 12.8984 Q105.4072 12.4375 105.4072 11.625 L105.4072 8.5312 L106.3135 8.5312 L106.3135 14 L105.4072 14 L105.4072 13.1562 Q105.0791 13.6562 104.6494 13.8984 Q104.2197 14.1406 103.6416 14.1406 Q102.7041 14.1406 102.2119 13.5547 Q101.7197 12.9688 101.7197 11.8438 ZM103.9854 8.4062 L103.9854 8.4062 ZM111.6357 8.6875 L111.6357 9.5469 Q111.2607 9.3438 110.8545 9.25 Q110.4482 9.1562 109.9951 9.1562 Q109.3389 9.1562 109.0029 9.3594 Q108.667 9.5625 108.667 9.9688 Q108.667 10.2812 108.9014 10.4609 Q109.1357 10.6406 109.8701 10.7969 L110.167 10.875 Q111.1357 11.0781 111.5342 11.4531 Q111.9326 11.8281 111.9326 12.4844 Q111.9326 13.25 111.3311 13.6953 Q110.7295 14.1406 109.6826 14.1406 Q109.2295 14.1406 108.7529 14.0547 Q108.2764 13.9688 107.7607 13.7969 L107.7607 12.875 Q108.2607 13.125 108.7373 13.2578 Q109.2139 13.3906 109.6982 13.3906 Q110.3232 13.3906 110.667 13.1719 Q111.0107 12.9531 111.0107 12.5625 Q111.0107 12.1875 110.7686 11.9922 Q110.5264 11.7969 109.6826 11.625 L109.3701 11.5469 Q108.542 11.375 108.167 11.0078 Q107.792 10.6406 107.792 10.0156 Q107.792 9.2344 108.3389 8.8203 Q108.8857 8.4062 109.9014 8.4062 Q110.3857 8.4062 110.8311 8.4766 Q111.2764 8.5469 111.6357 8.6875 ZM114.252 6.9844 L114.252 8.5312 L116.1113 8.5312 L116.1113 9.2344 L114.252 9.2344 L114.252 12.2031 Q114.252 12.8594 114.4395 13.0547 Q114.627 13.25 115.1895 13.25 L116.1113 13.25 L116.1113 14 L115.1895 14 Q114.1426 14 113.7441 13.6094 Q113.3457 13.2188 113.3457 12.2031 L113.3457 9.2344 L112.6895 9.2344 L112.6895 8.5312 L113.3457 8.5312 L113.3457 6.9844 L114.252 6.9844 ZM121.9697 11.0469 L121.9697 11.4844 L117.8291 11.4844 Q117.8916 12.4062 118.3916 12.8906 Q118.8916 13.375 119.7822 13.375 Q120.2979 13.375 120.79 13.25 Q121.2822 13.125 121.751 12.875 L121.751 13.7188 Q121.2666 13.9219 120.7588 14.0312 Q120.251 14.1406 119.7354 14.1406 Q118.4229 14.1406 117.6572 13.3828 Q116.8916 12.625 116.8916 11.3125 Q116.8916 9.9688 117.6182 9.1875 Q118.3447 8.4062 119.5791 8.4062 Q120.6885 8.4062 121.3291 9.1094 Q121.9697 9.8125 121.9697 11.0469 ZM121.0635 10.7812 Q121.0635 10.0469 120.6572 9.6016 Q120.251 9.1562 119.5947 9.1562 Q118.8291 9.1562 118.3838 9.5859 Q117.9385 10.0156 117.8604 10.7812 L121.0635 10.7812 ZM126.6064 9.375 Q126.4502 9.2812 126.2783 9.2422 Q126.1064 9.2031 125.8877 9.2031 Q125.1221 9.2031 124.7158 9.6953 Q124.3096 10.1875 124.3096 11.125 L124.3096 14 L123.4033 14 L123.4033 8.5312 L124.3096 8.5312 L124.3096 9.375 Q124.5908 8.875 125.0439 8.6406 Q125.4971 8.4062 126.1533 8.4062 Q126.2471 8.4062 126.3564 8.4141 Q126.4658 8.4219 126.6064 8.4531 L126.6064 9.375 ZM134.6621 11.2656 Q134.6621 10.2812 134.248 9.7188 Q133.834 9.1562 133.1309 9.1562 Q132.4121 9.1562 132.0059 9.7188 Q131.5996 10.2812 131.5996 11.2656 Q131.5996 12.2656 132.0059 12.8281 Q132.4121 13.3906 133.1309 13.3906 Q133.834 13.3906 134.248 12.8281 Q134.6621 12.2656 134.6621 11.2656 ZM131.5996 9.3594 Q131.8809 8.875 132.3105 8.6406 Q132.7402 8.4062 133.3496 8.4062 Q134.3496 8.4062 134.9668 9.1953 Q135.584 9.9844 135.584 11.2656 Q135.584 12.5625 134.9668 13.3516 Q134.3496 14.1406 133.3496 14.1406 Q132.7402 14.1406 132.3105 13.9062 Q131.8809 13.6719 131.5996 13.1719 L131.5996 14 L130.6934 14 L130.6934 6.4062 L131.5996 6.4062 L131.5996 9.3594 ZM137.0723 8.5312 L137.9785 8.5312 L137.9785 14 L137.0723 14 L137.0723 8.5312 ZM137.0723 6.4062 L137.9785 6.4062 L137.9785 7.5469 L137.0723 7.5469 L137.0723 6.4062 ZM141.9756 9.1562 Q141.2568 9.1562 140.835 9.7188 Q140.4131 10.2812 140.4131 11.2656 Q140.4131 12.25 140.8271 12.8125 Q141.2412 13.375 141.9756 13.375 Q142.6943 13.375 143.1162 12.8125 Q143.5381 12.25 143.5381 11.2656 Q143.5381 10.2969 143.1162 9.7266 Q142.6943 9.1562 141.9756 9.1562 ZM141.9756 8.4062 Q143.1475 8.4062 143.8193 9.1641 Q144.4912 9.9219 144.4912 11.2656 Q144.4912 12.6094 143.8193 13.375 Q143.1475 14.1406 141.9756 14.1406 Q140.8037 14.1406 140.1318 13.375 Q139.46 12.6094 139.46 11.2656 Q139.46 9.9219 140.1318 9.1641 Q140.8037 8.4062 141.9756 8.4062 ZM149.5781 11.2031 Q149.5781 10.2188 149.1719 9.6875 Q148.7656 9.1562 148.0469 9.1562 Q147.3125 9.1562 146.9141 9.6875 Q146.5156 10.2188 146.5156 11.2031 Q146.5156 12.1719 146.9141 12.7109 Q147.3125 13.25 148.0469 13.25 Q148.7656 13.25 149.1719 12.7109 Q149.5781 12.1719 149.5781 11.2031 ZM150.4688 13.3281 Q150.4688 14.7188 149.8516 15.3984 Q149.2344 16.0781 147.9531 16.0781 Q147.4844 16.0781 147.0625 16.0078 Q146.6406 15.9375 146.25 15.7969 L146.25 14.9219 Q146.6406 15.1406 147.0234 15.2422 Q147.4062 15.3438 147.8125 15.3438 Q148.6875 15.3438 149.1328 14.8828 Q149.5781 14.4219 149.5781 13.4844 L149.5781 13.0312 Q149.2969 13.5156 148.8594 13.7578 Q148.4219 14 147.8125 14 Q146.8125 14 146.1953 13.2344 Q145.5781 12.4688 145.5781 11.2031 Q145.5781 9.9375 146.1953 9.1719 Q146.8125 8.4062 147.8125 8.4062 Q148.4219 8.4062 148.8594 8.6406 Q149.2969 8.875 149.5781 9.3594 L149.5781 8.5312 L150.4688 8.5312 L150.4688 13.3281 ZM157.0039 11.0469 L157.0039 11.4844 L152.8633 11.4844 Q152.9258 12.4062 153.4258 12.8906 Q153.9258 13.375 154.8164 13.375 Q155.332 13.375 155.8242 13.25 Q156.3164 13.125 156.7852 12.875 L156.7852 13.7188 Q156.3008 13.9219 155.793 14.0312 Q155.2852 14.1406 154.7695 14.1406 Q153.457 14.1406 152.6914 13.3828 Q151.9258 12.625 151.9258 11.3125 Q151.9258 9.9688 152.6523 9.1875 Q153.3789 8.4062 154.6133 8.4062 Q155.7227 8.4062 156.3633 9.1094 Q157.0039 9.8125 157.0039 11.0469 ZM156.0977 10.7812 Q156.0977 10.0469 155.6914 9.6016 Q155.2852 9.1562 154.6289 9.1562 Q153.8633 9.1562 153.418 9.5859 Q152.9727 10.0156 152.8945 10.7812 L156.0977 10.7812 ZM163.0156 10.7031 L163.0156 14 L162.125 14 L162.125 10.7344 Q162.125 9.9531 161.8203 9.5703 Q161.5156 9.1875 160.9062 9.1875 Q160.1875 9.1875 159.7656 9.6484 Q159.3438 10.1094 159.3438 10.9062 L159.3438 14 L158.4375 14 L158.4375 8.5312 L159.3438 8.5312 L159.3438 9.375 Q159.6719 8.8906 160.1094 8.6484 Q160.5469 8.4062 161.1094 8.4062 Q162.0469 8.4062 162.5312 8.9844 Q163.0156 9.5625 163.0156 10.7031 ZM169.4941 11.0469 L169.4941 11.4844 L165.3535 11.4844 Q165.416 12.4062 165.916 12.8906 Q166.416 13.375 167.3066 13.375 Q167.8223 13.375 168.3145 13.25 Q168.8066 13.125 169.2754 12.875 L169.2754 13.7188 Q168.791 13.9219 168.2832 14.0312 Q167.7754 14.1406 167.2598 14.1406 Q165.9473 14.1406 165.1816 13.3828 Q164.416 12.625 164.416 11.3125 Q164.416 9.9688 165.1426 9.1875 Q165.8691 8.4062 167.1035 8.4062 Q168.2129 8.4062 168.8535 9.1094 Q169.4941 9.8125 169.4941 11.0469 ZM168.5879 10.7812 Q168.5879 10.0469 168.1816 9.6016 Q167.7754 9.1562 167.1191 9.1562 Q166.3535 9.1562 165.9082 9.5859 Q165.4629 10.0156 165.3848 10.7812 L168.5879 10.7812 ZM174.4434 8.6875 L174.4434 9.5469 Q174.0684 9.3438 173.6621 9.25 Q173.2559 9.1562 172.8027 9.1562 Q172.1465 9.1562 171.8105 9.3594 Q171.4746 9.5625 171.4746 9.9688 Q171.4746 10.2812 171.709 10.4609 Q171.9434 10.6406 172.6777 10.7969 L172.9746 10.875 Q173.9434 11.0781 174.3418 11.4531 Q174.7402 11.8281 174.7402 12.4844 Q174.7402 13.25 174.1387 13.6953 Q173.5371 14.1406 172.4902 14.1406 Q172.0371 14.1406 171.5605 14.0547 Q171.084 13.9688 170.5684 13.7969 L170.5684 12.875 Q171.0684 13.125 171.5449 13.2578 Q172.0215 13.3906 172.5059 13.3906 Q173.1309 13.3906 173.4746 13.1719 Q173.8184 12.9531 173.8184 12.5625 Q173.8184 12.1875 173.5762 11.9922 Q173.334 11.7969 172.4902 11.625 L172.1777 11.5469 Q171.3496 11.375 170.9746 11.0078 Q170.5996 10.6406 170.5996 10.0156 Q170.5996 9.2344 171.1465 8.8203 Q171.6934 8.4062 172.709 8.4062 Q173.1934 8.4062 173.6387 8.4766 Q174.084 8.5469 174.4434 8.6875 ZM176.1689 8.5312 L177.0752 8.5312 L177.0752 14 L176.1689 14 L176.1689 8.5312 ZM176.1689 6.4062 L177.0752 6.4062 L177.0752 7.5469 L176.1689 7.5469 L176.1689 6.4062 ZM182.4316 8.6875 L182.4316 9.5469 Q182.0566 9.3438 181.6504 9.25 Q181.2441 9.1562 180.791 9.1562 Q180.1348 9.1562 179.7988 9.3594 Q179.4629 9.5625 179.4629 9.9688 Q179.4629 10.2812 179.6973 10.4609 Q179.9316 10.6406 180.666 10.7969 L180.9629 10.875 Q181.9316 11.0781 182.3301 11.4531 Q182.7285 11.8281 182.7285 12.4844 Q182.7285 13.25 182.127 13.6953 Q181.5254 14.1406 180.4785 14.1406 Q180.0254 14.1406 179.5488 14.0547 Q179.0723 13.9688 178.5566 13.7969 L178.5566 12.875 Q179.0566 13.125 179.5332 13.2578 Q180.0098 13.3906 180.4941 13.3906 Q181.1191 13.3906 181.4629 13.1719 Q181.8066 12.9531 181.8066 12.5625 Q181.8066 12.1875 181.5645 11.9922 Q181.3223 11.7969 180.4785 11.625 L180.166 11.5469 Q179.3379 11.375 178.9629 11.0078 Q178.5879 10.6406 178.5879 10.0156 Q178.5879 9.2344 179.1348 8.8203 Q179.6816 8.4062 180.6973 8.4062 Q181.1816 8.4062 181.627 8.4766 Q182.0723 8.5469 182.4316 8.6875 Z"
         style="clip-path:url(#clipPath3); stroke:none;"
         clip-path="url(#clipPath3)"
         id="path185" />
      <path
         d="M4.25 21.9375 Q3.3906 21.9375 2.9141 22.5703 Q2.4375 23.2031 2.4375 24.3594 Q2.4375 25.5156 2.9141 26.1484 Q3.3906 26.7812 4.25 26.7812 Q5.1094 26.7812 5.5859 26.1484 Q6.0625 25.5156 6.0625 24.3594 Q6.0625 23.2031 5.5859 22.5703 Q5.1094 21.9375 4.25 21.9375 ZM4.25 20.5781 Q6 20.5781 7 21.5859 Q8 22.5938 8 24.3594 Q8 26.125 7 27.1328 Q6 28.1406 4.25 28.1406 Q2.5 28.1406 1.5 27.1328 Q0.5 26.125 0.5 24.3594 Q0.5 22.5938 1.5 21.5859 Q2.5 20.5781 4.25 20.5781 ZM13.4072 24.0156 Q13.1729 23.9062 12.9463 23.8594 Q12.7197 23.8125 12.4854 23.8125 Q11.8135 23.8125 11.4541 24.2422 Q11.0947 24.6719 11.0947 25.4844 L11.0947 28 L9.3447 28 L9.3447 22.5312 L11.0947 22.5312 L11.0947 23.4219 Q11.4229 22.8906 11.8604 22.6484 Q12.2979 22.4062 12.9072 22.4062 Q13.001 22.4062 13.1025 22.4062 Q13.2041 22.4062 13.3916 22.4375 L13.4072 24.0156 ZM17.9951 27.0781 Q17.6357 27.5469 17.1982 27.7734 Q16.7607 28 16.1982 28 Q15.1982 28 14.542 27.2109 Q13.8857 26.4219 13.8857 25.2031 Q13.8857 23.9688 14.542 23.1875 Q15.1982 22.4062 16.1982 22.4062 Q16.7607 22.4062 17.1982 22.6328 Q17.6357 22.8594 17.9951 23.3438 L17.9951 22.5312 L19.7451 22.5312 L19.7451 27.4531 Q19.7451 28.7656 18.917 29.4609 Q18.0889 30.1562 16.5107 30.1562 Q15.9951 30.1562 15.5186 30.0781 Q15.042 30 14.5576 29.8438 L14.5576 28.4844 Q15.0107 28.75 15.4482 28.875 Q15.8857 29 16.3389 29 Q17.1982 29 17.5967 28.625 Q17.9951 28.25 17.9951 27.4531 L17.9951 27.0781 ZM16.8389 23.6719 Q16.292 23.6719 15.9951 24.0703 Q15.6982 24.4688 15.6982 25.2031 Q15.6982 25.9531 15.9873 26.3438 Q16.2764 26.7344 16.8389 26.7344 Q17.3857 26.7344 17.6904 26.3281 Q17.9951 25.9219 17.9951 25.2031 Q17.9951 24.4688 17.6904 24.0703 Q17.3857 23.6719 16.8389 23.6719 ZM23.8877 25.5312 Q23.3408 25.5312 23.0596 25.7188 Q22.7783 25.9062 22.7783 26.2656 Q22.7783 26.6094 23.0049 26.7969 Q23.2314 26.9844 23.6221 26.9844 Q24.1221 26.9844 24.458 26.625 Q24.7939 26.2656 24.7939 25.7344 L24.7939 25.5312 L23.8877 25.5312 ZM26.5596 24.875 L26.5596 28 L24.7939 28 L24.7939 27.1875 Q24.4346 27.6875 23.9971 27.9141 Q23.5596 28.1406 22.9346 28.1406 Q22.0752 28.1406 21.5518 27.6484 Q21.0283 27.1562 21.0283 26.3594 Q21.0283 25.3906 21.6846 24.9453 Q22.3408 24.5 23.7627 24.5 L24.7939 24.5 L24.7939 24.3594 Q24.7939 23.9531 24.4658 23.7578 Q24.1377 23.5625 23.4502 23.5625 Q22.8877 23.5625 22.4033 23.6719 Q21.9189 23.7812 21.4971 24.0156 L21.4971 22.6719 Q22.0596 22.5469 22.6299 22.4766 Q23.2002 22.4062 23.7627 22.4062 Q25.2471 22.4062 25.9033 22.9844 Q26.5596 23.5625 26.5596 24.875 ZM33.6826 24.6719 L33.6826 28 L31.917 28 L31.917 27.4531 L31.917 25.4531 Q31.917 24.75 31.8857 24.4766 Q31.8545 24.2031 31.7764 24.0781 Q31.6826 23.9062 31.5029 23.8125 Q31.3232 23.7188 31.1045 23.7188 Q30.5576 23.7188 30.2451 24.1406 Q29.9326 24.5625 29.9326 25.3125 L29.9326 28 L28.1826 28 L28.1826 22.5312 L29.9326 22.5312 L29.9326 23.3281 Q30.3232 22.8594 30.7686 22.6328 Q31.2139 22.4062 31.7451 22.4062 Q32.6982 22.4062 33.1904 22.9844 Q33.6826 23.5625 33.6826 24.6719 ZM35.3018 22.5312 L37.0518 22.5312 L37.0518 28 L35.3018 28 L35.3018 22.5312 ZM35.3018 20.4062 L37.0518 20.4062 L37.0518 21.8281 L35.3018 21.8281 L35.3018 20.4062 ZM42.9951 22.7031 L42.9951 24.0312 Q42.4326 23.7969 41.9092 23.6797 Q41.3857 23.5625 40.9326 23.5625 Q40.4326 23.5625 40.1904 23.6875 Q39.9482 23.8125 39.9482 24.0625 Q39.9482 24.2812 40.1279 24.3906 Q40.3076 24.5 40.792 24.5625 L41.0889 24.5938 Q42.4326 24.7656 42.9014 25.1562 Q43.3701 25.5469 43.3701 26.3906 Q43.3701 27.2656 42.7217 27.7031 Q42.0732 28.1406 40.792 28.1406 Q40.2607 28.1406 39.6826 28.0547 Q39.1045 27.9688 38.4795 27.7969 L38.4795 26.4688 Q39.0107 26.7188 39.5576 26.8516 Q40.1045 26.9844 40.667 26.9844 Q41.1826 26.9844 41.4404 26.8438 Q41.6982 26.7031 41.6982 26.4219 Q41.6982 26.1875 41.5264 26.0703 Q41.3545 25.9531 40.8232 25.8906 L40.5107 25.8438 Q39.3389 25.7031 38.8701 25.3047 Q38.4014 24.9062 38.4014 24.1094 Q38.4014 23.2344 38.9951 22.8203 Q39.5889 22.4062 40.8232 22.4062 Q41.3076 22.4062 41.8389 22.4766 Q42.3701 22.5469 42.9951 22.7031 ZM49.7441 23.4375 Q50.0723 22.9375 50.5332 22.6719 Q50.9941 22.4062 51.541 22.4062 Q52.4785 22.4062 52.9707 22.9844 Q53.4629 23.5625 53.4629 24.6719 L53.4629 28 L51.7129 28 L51.7129 25.1406 Q51.7129 25.0781 51.7129 25.0156 Q51.7129 24.9531 51.7129 24.8281 Q51.7129 24.2344 51.5488 23.9766 Q51.3848 23.7188 50.9941 23.7188 Q50.4941 23.7188 50.2285 24.125 Q49.9629 24.5312 49.9473 25.3125 L49.9473 28 L48.1816 28 L48.1816 25.1406 Q48.1816 24.2344 48.0254 23.9766 Q47.8691 23.7188 47.4785 23.7188 Q46.9785 23.7188 46.7051 24.1328 Q46.4316 24.5469 46.4316 25.3125 L46.4316 28 L44.666 28 L44.666 22.5312 L46.4316 22.5312 L46.4316 23.3281 Q46.7441 22.875 47.166 22.6406 Q47.5879 22.4062 48.0879 22.4062 Q48.6504 22.4062 49.0879 22.6797 Q49.5254 22.9531 49.7441 23.4375 ZM55.3828 22.5312 L57.1328 22.5312 L57.1328 24.4219 L55.3828 24.4219 L55.3828 22.5312 ZM55.3828 26.1094 L57.1328 26.1094 L57.1328 28 L55.3828 28 L55.3828 26.1094 Z"
         style="clip-path:url(#clipPath3); stroke:none;"
         clip-path="url(#clipPath3)"
         id="path187" />
      <path
         d="M66.9844 20.7031 L67.9688 20.7031 L67.9688 23.7031 L71.5469 23.7031 L71.5469 20.7031 L72.5312 20.7031 L72.5312 28 L71.5469 28 L71.5469 24.5312 L67.9688 24.5312 L67.9688 28 L66.9844 28 L66.9844 20.7031 ZM76.582 23.1562 Q75.8633 23.1562 75.4414 23.7188 Q75.0195 24.2812 75.0195 25.2656 Q75.0195 26.25 75.4336 26.8125 Q75.8477 27.375 76.582 27.375 Q77.3008 27.375 77.7227 26.8125 Q78.1445 26.25 78.1445 25.2656 Q78.1445 24.2969 77.7227 23.7266 Q77.3008 23.1562 76.582 23.1562 ZM76.582 22.4062 Q77.7539 22.4062 78.4258 23.1641 Q79.0977 23.9219 79.0977 25.2656 Q79.0977 26.6094 78.4258 27.375 Q77.7539 28.1406 76.582 28.1406 Q75.4102 28.1406 74.7383 27.375 Q74.0664 26.6094 74.0664 25.2656 Q74.0664 23.9219 74.7383 23.1641 Q75.4102 22.4062 76.582 22.4062 ZM84.8408 23.5781 Q85.1689 22.9688 85.6377 22.6875 Q86.1064 22.4062 86.7471 22.4062 Q87.6064 22.4062 88.0674 23 Q88.5283 23.5938 88.5283 24.7031 L88.5283 28 L87.6221 28 L87.6221 24.7344 Q87.6221 23.9375 87.3486 23.5625 Q87.0752 23.1875 86.4971 23.1875 Q85.7939 23.1875 85.3955 23.6484 Q84.9971 24.1094 84.9971 24.9062 L84.9971 28 L84.0908 28 L84.0908 24.7344 Q84.0908 23.9375 83.8096 23.5625 Q83.5283 23.1875 82.9502 23.1875 Q82.2627 23.1875 81.8564 23.6484 Q81.4502 24.1094 81.4502 24.9062 L81.4502 28 L80.5439 28 L80.5439 22.5312 L81.4502 22.5312 L81.4502 23.375 Q81.7627 22.875 82.1924 22.6406 Q82.6221 22.4062 83.2002 22.4062 Q83.8096 22.4062 84.2236 22.7031 Q84.6377 23 84.8408 23.5781 ZM92.4414 23.1562 Q91.7227 23.1562 91.3008 23.7188 Q90.8789 24.2812 90.8789 25.2656 Q90.8789 26.25 91.293 26.8125 Q91.707 27.375 92.4414 27.375 Q93.1602 27.375 93.582 26.8125 Q94.0039 26.25 94.0039 25.2656 Q94.0039 24.2969 93.582 23.7266 Q93.1602 23.1562 92.4414 23.1562 ZM92.4414 22.4062 Q93.6133 22.4062 94.2852 23.1641 Q94.957 23.9219 94.957 25.2656 Q94.957 26.6094 94.2852 27.375 Q93.6133 28.1406 92.4414 28.1406 Q91.2695 28.1406 90.5977 27.375 Q89.9258 26.6094 89.9258 25.2656 Q89.9258 23.9219 90.5977 23.1641 Q91.2695 22.4062 92.4414 22.4062 ZM103.0977 22.6875 L103.0977 23.5469 Q102.7227 23.3438 102.3164 23.25 Q101.9102 23.1562 101.457 23.1562 Q100.8008 23.1562 100.4648 23.3594 Q100.1289 23.5625 100.1289 23.9688 Q100.1289 24.2812 100.3633 24.4609 Q100.5977 24.6406 101.332 24.7969 L101.6289 24.875 Q102.5977 25.0781 102.9961 25.4531 Q103.3945 25.8281 103.3945 26.4844 Q103.3945 27.25 102.793 27.6953 Q102.1914 28.1406 101.1445 28.1406 Q100.6914 28.1406 100.2148 28.0547 Q99.7383 27.9688 99.2227 27.7969 L99.2227 26.875 Q99.7227 27.125 100.1992 27.2578 Q100.6758 27.3906 101.1602 27.3906 Q101.7852 27.3906 102.1289 27.1719 Q102.4727 26.9531 102.4727 26.5625 Q102.4727 26.1875 102.2305 25.9922 Q101.9883 25.7969 101.1445 25.625 L100.832 25.5469 Q100.0039 25.375 99.6289 25.0078 Q99.2539 24.6406 99.2539 24.0156 Q99.2539 23.2344 99.8008 22.8203 Q100.3477 22.4062 101.3633 22.4062 Q101.8477 22.4062 102.293 22.4766 Q102.7383 22.5469 103.0977 22.6875 ZM107.3076 25.25 Q106.2295 25.25 105.8076 25.5 Q105.3857 25.75 105.3857 26.3438 Q105.3857 26.8281 105.6982 27.1094 Q106.0107 27.3906 106.5576 27.3906 Q107.3076 27.3906 107.7607 26.8594 Q108.2139 26.3281 108.2139 25.4531 L108.2139 25.25 L107.3076 25.25 ZM109.1045 24.875 L109.1045 28 L108.2139 28 L108.2139 27.1719 Q107.9014 27.6719 107.4404 27.9062 Q106.9795 28.1406 106.3232 28.1406 Q105.4795 28.1406 104.9795 27.6719 Q104.4795 27.2031 104.4795 26.4062 Q104.4795 25.4844 105.1045 25.0156 Q105.7295 24.5469 106.9482 24.5469 L108.2139 24.5469 L108.2139 24.4531 Q108.2139 23.8438 107.7998 23.5 Q107.3857 23.1562 106.6514 23.1562 Q106.1826 23.1562 105.7373 23.2734 Q105.292 23.3906 104.8857 23.6094 L104.8857 22.7812 Q105.3857 22.5938 105.8467 22.5 Q106.3076 22.4062 106.7451 22.4062 Q107.9326 22.4062 108.5186 23.0156 Q109.1045 23.625 109.1045 24.875 ZM111.8262 27.1719 L111.8262 30.0781 L110.9199 30.0781 L110.9199 22.5312 L111.8262 22.5312 L111.8262 23.3594 Q112.1074 22.875 112.5371 22.6406 Q112.9668 22.4062 113.5762 22.4062 Q114.5762 22.4062 115.1934 23.1953 Q115.8105 23.9844 115.8105 25.2656 Q115.8105 26.5625 115.1934 27.3516 Q114.5762 28.1406 113.5762 28.1406 Q112.9668 28.1406 112.5371 27.9062 Q112.1074 27.6719 111.8262 27.1719 ZM114.8887 25.2656 Q114.8887 24.2812 114.4746 23.7188 Q114.0605 23.1562 113.3574 23.1562 Q112.6387 23.1562 112.2324 23.7188 Q111.8262 24.2812 111.8262 25.2656 Q111.8262 26.2656 112.2324 26.8281 Q112.6387 27.3906 113.3574 27.3906 Q114.0605 27.3906 114.4746 26.8281 Q114.8887 26.2656 114.8887 25.2656 ZM117.2988 22.5312 L118.2051 22.5312 L118.2051 28 L117.2988 28 L117.2988 22.5312 ZM117.2988 20.4062 L118.2051 20.4062 L118.2051 21.5469 L117.2988 21.5469 L117.2988 20.4062 ZM124.7646 25.0469 L124.7646 25.4844 L120.624 25.4844 Q120.6865 26.4062 121.1865 26.8906 Q121.6865 27.375 122.5771 27.375 Q123.0928 27.375 123.585 27.25 Q124.0771 27.125 124.5459 26.875 L124.5459 27.7188 Q124.0615 27.9219 123.5537 28.0312 Q123.0459 28.1406 122.5303 28.1406 Q121.2178 28.1406 120.4521 27.3828 Q119.6865 26.625 119.6865 25.3125 Q119.6865 23.9688 120.4131 23.1875 Q121.1396 22.4062 122.374 22.4062 Q123.4834 22.4062 124.124 23.1094 Q124.7646 23.8125 124.7646 25.0469 ZM123.8584 24.7812 Q123.8584 24.0469 123.4521 23.6016 Q123.0459 23.1562 122.3896 23.1562 Q121.624 23.1562 121.1787 23.5859 Q120.7334 24.0156 120.6553 24.7812 L123.8584 24.7812 ZM130.7764 24.7031 L130.7764 28 L129.8857 28 L129.8857 24.7344 Q129.8857 23.9531 129.5811 23.5703 Q129.2764 23.1875 128.667 23.1875 Q127.9482 23.1875 127.5264 23.6484 Q127.1045 24.1094 127.1045 24.9062 L127.1045 28 L126.1982 28 L126.1982 22.5312 L127.1045 22.5312 L127.1045 23.375 Q127.4326 22.8906 127.8701 22.6484 Q128.3076 22.4062 128.8701 22.4062 Q129.8076 22.4062 130.292 22.9844 Q130.7764 23.5625 130.7764 24.7031 ZM136.0518 22.6875 L136.0518 23.5469 Q135.6768 23.3438 135.2705 23.25 Q134.8643 23.1562 134.4111 23.1562 Q133.7549 23.1562 133.4189 23.3594 Q133.083 23.5625 133.083 23.9688 Q133.083 24.2812 133.3174 24.4609 Q133.5518 24.6406 134.2861 24.7969 L134.583 24.875 Q135.5518 25.0781 135.9502 25.4531 Q136.3486 25.8281 136.3486 26.4844 Q136.3486 27.25 135.7471 27.6953 Q135.1455 28.1406 134.0986 28.1406 Q133.6455 28.1406 133.1689 28.0547 Q132.6924 27.9688 132.1768 27.7969 L132.1768 26.875 Q132.6768 27.125 133.1533 27.2578 Q133.6299 27.3906 134.1143 27.3906 Q134.7393 27.3906 135.083 27.1719 Q135.4268 26.9531 135.4268 26.5625 Q135.4268 26.1875 135.1846 25.9922 Q134.9424 25.7969 134.0986 25.625 L133.7861 25.5469 Q132.958 25.375 132.583 25.0078 Q132.208 24.6406 132.208 24.0156 Q132.208 23.2344 132.7549 22.8203 Q133.3018 22.4062 134.3174 22.4062 Q134.8018 22.4062 135.2471 22.4766 Q135.6924 22.5469 136.0518 22.6875 Z"
         style="clip-path:url(#clipPath3); stroke:none;"
         clip-path="url(#clipPath3)"
         id="path189" />
    </g>
    <g
       style="fill:navy; text-rendering:geometricPrecision; font-size:8; stroke:navy;"
       id="g195">
      <text
         x="188"
         xml:space="preserve"
         y="16"
         style="clip-path:url(#clipPath5); stroke:none;"
         clip-path="url(#clipPath5)"
         id="text193">2</text>
    </g>
    <g
       style="fill:rgb(180,180,100); text-rendering:geometricPrecision; fill-opacity:0.098; stroke-opacity:0.098; stroke:rgb(180,180,100);"
       id="g199">
      <path
         d="M189 112.5 L245 112.5 L263 130.5 L263 167.5 L245 185.5 L189 185.5 L171 167.5 L171 130.5 Z"
         style="clip-path:url(#clipPath6); stroke:none;"
         clip-path="url(#clipPath6)"
         id="path197" />
    </g>
    <g
       style="fill:gray; text-rendering:geometricPrecision; stroke:gray;"
       id="g203">
      <path
         d="M189 112.5 L245 112.5 L263 130.5 L263 167.5 L245 185.5 L189 185.5 L171 167.5 L171 130.5 Z"
         style="fill:none; clip-path:url(#clipPath6);"
         clip-path="url(#clipPath6)"
         id="path201" />
    </g>
    <g
       style="fill:navy; text-rendering:geometricPrecision; font-size:8; stroke:navy;"
       id="g207">
      <text
         x="261"
         xml:space="preserve"
         y="109"
         style="clip-path:url(#clipPath8); stroke:none;"
         clip-path="url(#clipPath8)"
         id="text205">1</text>
    </g>
    <g
       style="text-rendering:geometricPrecision;"
       id="g215">
      <path
         d="M217.5 174.5 L217.7155 200.0004"
         style="fill:none; clip-path:url(#clipPath9);"
         clip-path="url(#clipPath9)"
         id="path209" />
      <path
         d="M217.8034 210.4 C214.9316 210.4243 212.5839 208.1159 212.5596 205.2441 C212.5354 202.3723 214.8437 200.0246 217.7155 200.0004 C220.5873 199.9761 222.935 202.2845 222.9593 205.1562 C222.9835 208.028 220.6752 210.3757 217.8034 210.4 Z"
         style="fill:white; clip-path:url(#clipPath9); stroke:none;"
         clip-path="url(#clipPath9)"
         id="path211" />
      <path
         d="M217.8034 210.4 C214.9316 210.4243 212.5839 208.1159 212.5596 205.2441 C212.5354 202.3723 214.8437 200.0246 217.7155 200.0004 C220.5873 199.9761 222.935 202.2845 222.9593 205.1562 C222.9835 208.028 220.6752 210.3757 217.8034 210.4 Z"
         style="fill:none; clip-path:url(#clipPath9);"
         clip-path="url(#clipPath9)"
         id="path213" />
    </g>
    <g
       style="stroke-dasharray:4,4; text-rendering:geometricPrecision;"
       id="g221">
      <path
         d="M632 195.5 L783.5 302"
         style="fill:none; clip-path:url(#clipPath10);"
         clip-path="url(#clipPath10)"
         id="path217" />
      <path
         d="M783.5 302 L776.9188 291.0174 L770.9379 299.5255 Z"
         style="stroke-dasharray:none; clip-path:url(#clipPath10); fill-rule:evenodd; stroke:none;"
         clip-path="url(#clipPath10)"
         id="path219" />
    </g>
    <g
       style="stroke-dasharray:4,4; text-rendering:geometricPrecision;"
       id="g227">
      <path
         d="M260 324.5 L262 376.5"
         style="fill:none; clip-path:url(#clipPath11);"
         clip-path="url(#clipPath11)"
         id="path223" />
      <path
         d="M262 376.5 L266.7465 364.6088 L256.3542 365.0085 Z"
         style="stroke-dasharray:none; clip-path:url(#clipPath11); fill-rule:evenodd; stroke:none;"
         clip-path="url(#clipPath11)"
         id="path225" />
    </g>
    <g
       style="stroke-dasharray:4,4; text-rendering:geometricPrecision;"
       id="g233">
      <path
         d="M288 230.5 L288.5 409.5"
         style="fill:none; clip-path:url(#clipPath12);"
         clip-path="url(#clipPath12)"
         id="path229" />
      <path
         d="M288.5 409.5 L293.6673 397.7855 L283.2673 397.8146 Z"
         style="stroke-dasharray:none; clip-path:url(#clipPath12); fill-rule:evenodd; stroke:none;"
         clip-path="url(#clipPath12)"
         id="path231" />
    </g>
    <g
       style="text-rendering:geometricPrecision;"
       id="g241">
      <path
         d="M194.5 405.5 L194.8018 412.5672"
         style="fill:none; clip-path:url(#clipPath13);"
         clip-path="url(#clipPath13)"
         id="path235" />
      <path
         d="M195.2456 422.9577 C192.3763 423.0802 189.951 420.8535 189.8284 417.9843 C189.7059 415.115 191.9326 412.6897 194.8018 412.5672 C197.6711 412.4446 200.0964 414.6713 200.2189 417.5406 C200.3415 420.4098 198.1148 422.8351 195.2456 422.9577 Z"
         style="fill:white; clip-path:url(#clipPath13); stroke:none;"
         clip-path="url(#clipPath13)"
         id="path237" />
      <path
         d="M195.2456 422.9577 C192.3763 423.0802 189.951 420.8535 189.8284 417.9843 C189.7059 415.115 191.9326 412.6897 194.8018 412.5672 C197.6711 412.4446 200.0964 414.6713 200.2189 417.5406 C200.3415 420.4098 198.1148 422.8351 195.2456 422.9577 Z"
         style="fill:none; clip-path:url(#clipPath13);"
         clip-path="url(#clipPath13)"
         id="path239" />
    </g>
    <g
       style="text-rendering:geometricPrecision;"
       id="g249">
      <path
         d="M258 492 L278.7 492.0674"
         style="fill:none; clip-path:url(#clipPath14);"
         clip-path="url(#clipPath14)"
         id="path243" />
      <path
         d="M289.1 492.1013 C289.0906 494.9732 286.7549 497.2937 283.8831 497.2843 C281.0112 497.275 278.6907 494.9393 278.7 492.0674 C278.7094 489.1956 281.0451 486.875 283.917 486.8844 C286.7888 486.8937 289.1093 489.2294 289.1 492.1013 Z"
         style="fill:white; clip-path:url(#clipPath14); stroke:none;"
         clip-path="url(#clipPath14)"
         id="path245" />
      <path
         d="M289.1 492.1013 C289.0906 494.9732 286.7549 497.2937 283.8831 497.2843 C281.0112 497.275 278.6907 494.9393 278.7 492.0674 C278.7094 489.1956 281.0451 486.875 283.917 486.8844 C286.7888 486.8937 289.1093 489.2294 289.1 492.1013 Z"
         style="fill:none; clip-path:url(#clipPath14);"
         clip-path="url(#clipPath14)"
         id="path247" />
    </g>
    <g
       style="stroke-dasharray:4,4; text-rendering:geometricPrecision;"
       id="g255">
      <path
         d="M288.5 434.5 L289 578.5"
         style="fill:none; clip-path:url(#clipPath15);"
         clip-path="url(#clipPath15)"
         id="path251" />
      <path
         d="M289 578.5 L294.1593 566.782 L283.7594 566.8181 Z"
         style="stroke-dasharray:none; clip-path:url(#clipPath15); fill-rule:evenodd; stroke:none;"
         clip-path="url(#clipPath15)"
         id="path253" />
    </g>
    <g
       style="stroke-dasharray:4,4; text-rendering:geometricPrecision;"
       id="g261">
      <path
         d="M333.5 422 L541 424"
         style="fill:none; clip-path:url(#clipPath16);"
         clip-path="url(#clipPath16)"
         id="path257" />
      <path
         d="M541 424 L529.3506 418.6875 L529.2504 429.087 Z"
         style="stroke-dasharray:none; clip-path:url(#clipPath16); fill-rule:evenodd; stroke:none;"
         clip-path="url(#clipPath16)"
         id="path259" />
    </g>
    <g
       style="stroke-dasharray:4,4; text-rendering:geometricPrecision;"
       id="g267">
      <path
         d="M639 423.5 L783.5 340.5"
         style="fill:none; clip-path:url(#clipPath17);"
         clip-path="url(#clipPath17)"
         id="path263" />
      <path
         d="M783.5 340.5 L770.7645 341.8184 L775.9445 350.8366 Z"
         style="stroke-dasharray:none; clip-path:url(#clipPath17); fill-rule:evenodd; stroke:none;"
         clip-path="url(#clipPath17)"
         id="path265" />
    </g>
    <g
       style="text-rendering:geometricPrecision;"
       id="g273">
      <path
         d="M147 290 L206.0022 291.3015"
         style="fill:none; clip-path:url(#clipPath18);"
         clip-path="url(#clipPath18)"
         id="path269" />
      <path
         d="M206.1169 286.1028 L217.6993 291.5595 L205.8875 296.5002 Z"
         style="clip-path:url(#clipPath18); stroke:none;"
         clip-path="url(#clipPath18)"
         id="path271" />
    </g>
    <g
       style="text-rendering:geometricPrecision;"
       id="g279">
      <path
         d="M205 210 L237 210"
         style="fill:none; clip-path:url(#clipPath19);"
         clip-path="url(#clipPath19)"
         id="path275" />
      <path
         d="M237 210 L225.3 204.8 L225.3 215.2 Z"
         style="clip-path:url(#clipPath19); fill-rule:evenodd; stroke:none;"
         clip-path="url(#clipPath19)"
         id="path277" />
    </g>
    <g
       style="text-rendering:geometricPrecision;"
       id="g285">
      <path
         d="M718 214.5 L718.4787 256.2919"
         style="fill:none; clip-path:url(#clipPath20);"
         clip-path="url(#clipPath20)"
         id="path281" />
      <path
         d="M718.4787 256.2919 L723.5443 244.5332 L713.145 244.6523 Z"
         style="clip-path:url(#clipPath20); fill-rule:evenodd; stroke:none;"
         clip-path="url(#clipPath20)"
         id="path283" />
    </g>
    <g
       style="text-rendering:geometricPrecision;"
       id="g293">
      <path
         d="M443 393.5 L442.8085 413.0531"
         style="fill:none; clip-path:url(#clipPath21);"
         clip-path="url(#clipPath21)"
         id="path287" />
      <path
         d="M442.7066 423.4526 C439.8349 423.4245 437.5297 421.0737 437.5578 418.2019 C437.5859 415.3302 439.9367 413.025 442.8085 413.0531 C445.6802 413.0812 447.9854 415.432 447.9573 418.3038 C447.9292 421.1755 445.5783 423.4807 442.7066 423.4526 Z"
         style="fill:white; clip-path:url(#clipPath21); stroke:none;"
         clip-path="url(#clipPath21)"
         id="path289" />
      <path
         d="M442.7066 423.4526 C439.8349 423.4245 437.5297 421.0737 437.5578 418.2019 C437.5859 415.3302 439.9367 413.025 442.8085 413.0531 C445.6802 413.0812 447.9854 415.432 447.9573 418.3038 C447.9292 421.1755 445.5783 423.4807 442.7066 423.4526 Z"
         style="fill:none; clip-path:url(#clipPath21);"
         clip-path="url(#clipPath21)"
         id="path291" />
    </g>
    <g
       style="text-rendering:geometricPrecision;"
       id="g301">
      <path
         d="M179.5 268.5 L179.1526 280.707"
         style="fill:none; clip-path:url(#clipPath22);"
         clip-path="url(#clipPath22)"
         id="path295" />
      <path
         d="M178.8567 291.1028 C175.986 291.0211 173.725 288.6277 173.8067 285.757 C173.8884 282.8863 176.2819 280.6253 179.1526 280.707 C182.0233 280.7887 184.2842 283.1821 184.2025 286.0529 C184.1208 288.9236 181.7274 291.1845 178.8567 291.1028 Z"
         style="fill:white; clip-path:url(#clipPath22); stroke:none;"
         clip-path="url(#clipPath22)"
         id="path297" />
      <path
         d="M178.8567 291.1028 C175.986 291.0211 173.725 288.6277 173.8067 285.757 C173.8884 282.8863 176.2819 280.6253 179.1526 280.707 C182.0233 280.7887 184.2842 283.1821 184.2025 286.0529 C184.1208 288.9236 181.7274 291.1845 178.8567 291.1028 Z"
         style="fill:none; clip-path:url(#clipPath22);"
         clip-path="url(#clipPath22)"
         id="path299" />
    </g>
    <g
       style="text-rendering:geometricPrecision;"
       id="g307">
      <path
         d="M157 423 L243.5 422"
         style="fill:none; clip-path:url(#clipPath23);"
         clip-path="url(#clipPath23)"
         id="path303" />
      <path
         d="M243.5 422 L231.7407 416.9356 L231.8609 427.3349 Z"
         style="clip-path:url(#clipPath23); fill-rule:evenodd; stroke:none;"
         clip-path="url(#clipPath23)"
         id="path305" />
    </g>
    <g
       style="stroke-dasharray:4,4; text-rendering:geometricPrecision;"
       id="g313">
      <path
         d="M588 229.5 L586 377.5"
         style="fill:none; clip-path:url(#clipPath24);"
         clip-path="url(#clipPath24)"
         id="path309" />
      <path
         d="M586 377.5 L591.3576 365.8713 L580.9586 365.7308 Z"
         style="stroke-dasharray:none; clip-path:url(#clipPath24); fill-rule:evenodd; stroke:none;"
         clip-path="url(#clipPath24)"
         id="path311" />
    </g>
    <g
       style="text-rendering:geometricPrecision;"
       id="g321">
      <path
         d="M731 443.5 L702.2076 398.7118"
         style="fill:none; clip-path:url(#clipPath25);"
         clip-path="url(#clipPath25)"
         id="path315" />
      <path
         d="M696.5837 389.9635 C698.9995 388.4105 702.2168 389.11 703.7698 391.5257 C705.3228 393.9415 704.6234 397.1588 702.2076 398.7118 C699.7918 400.2648 696.5745 399.5654 695.0215 397.1496 C693.4685 394.7338 694.1679 391.5165 696.5837 389.9635 Z"
         style="fill:white; clip-path:url(#clipPath25); stroke:none;"
         clip-path="url(#clipPath25)"
         id="path317" />
      <path
         d="M696.5837 389.9635 C698.9995 388.4105 702.2168 389.11 703.7698 391.5257 C705.3228 393.9415 704.6234 397.1588 702.2076 398.7118 C699.7918 400.2648 696.5745 399.5654 695.0215 397.1496 C693.4685 394.7338 694.1679 391.5165 696.5837 389.9635 Z"
         style="fill:none; clip-path:url(#clipPath25);"
         clip-path="url(#clipPath25)"
         id="path319" />
    </g>
    <g
       style="fill:silver; text-rendering:geometricPrecision; stroke:silver;"
       id="g325">
      <path
         d="M59.75 80.5 L59.75 80.5 L59.75 80.5 L61.25 80.5 L61.25 82 L61.25 641 L61.25 642.5 L59.75 642.5 L56.75 642.5 L56.75 641 L56.75 639.5 L59.75 639.5 L61.25 639.5 L61.25 641 C61.25 644.0374 63.7125 646.5 66.75 646.5 L68.25 646.5 L68.25 648 L68.25 651 L66.75 651 L65.25 651 L65.25 648 L65.25 646.5 L66.75 646.5 L870 646.5 L871.5 646.5 L871.5 648 L871.5 651 L870 651 L868.5 651 L868.5 648 L868.5 646.5 L870 646.5 C873.0374 646.5 875.5 644.0374 875.5 641 L875.5 639.5 L877 639.5 L880 639.5 L880 641 L880 642.5 L877 642.5 L875.5 642.5 L875.5 641 L875.5 82 L875.5 80.5 L877 80.5 L880 80.5 L880 82 L880 83.5 L877 83.5 L875.5 83.5 L875.5 82 C875.5 78.9624 873.0374 76.5 870 76.5 L868.5 76.5 L868.5 75 L868.5 72 L870 72 L871.5 72 L871.5 75 L871.5 76.5 L870 76.5 L66.75 76.5 L65.25 76.5 L65.25 75 L65.25 72 L66.75 72 L68.25 72 L68.25 75 L68.25 76.5 L66.75 76.5 C63.7124 76.5 61.25 78.9624 61.25 82 L61.25 83.5 L59.75 83.5 L56.75 83.5 L56.75 82 L56.75 80.5 L59.75 80.5 L61.25 80.5 L61.25 83.5 L59.75 83.5 L56.75 83.5 L56.75 80.5 L59.75 80.5 L59.75 82 L58.25 82 C58.25 77.3056 62.0556 73.5 66.75 73.5 L66.75 75 L65.25 75 L65.25 72 L68.25 72 L68.25 75 L66.75 75 L66.75 73.5 L870 73.5 L870 75 L868.5 75 L868.5 72 L871.5 72 L871.5 75 L870 75 L870 73.5 C874.6943 73.5 878.5 77.3056 878.5 82 L877 82 L877 80.5 L880 80.5 L880 83.5 L877 83.5 L877 82 L878.5 82 L878.5 641 L877 641 L877 639.5 L880 639.5 L880 642.5 L877 642.5 L877 641 L878.5 641 C878.5 645.6943 874.6943 649.5 870 649.5 L870 648 L871.5 648 L871.5 651 L868.5 651 L868.5 648 L870 648 L870 649.5 L66.75 649.5 L66.75 648 L68.25 648 L68.25 651 L65.25 651 L65.25 648 L66.75 648 L66.75 649.5 C62.0556 649.5 58.25 645.6943 58.25 641 L59.75 641 L59.75 642.5 L56.75 642.5 L56.75 639.5 L59.75 639.5 L59.75 641 L58.25 641 L58.25 82 L59.75 82 L59.75 83.5 L59.75 83.5 L58.25 83.5 L58.25 80.5 ZM53.75 80.5 L53.75 80.5 L53.75 80.5 L53.75 82 L52.25 82 C52.25 73.9918 58.7419 67.5 66.75 67.5 L66.75 69 L66.75 67.5 L66.75 67.5 L66.75 69 L66.75 67.5 L870 67.5 L870 69 L870 67.5 L870 67.5 L870 69 L870 67.5 C878.0078 67.5 884.5 73.9918 884.5 82 L883 82 L883 80.5 L883 80.5 L884.5 80.5 L884.5 82 L884.5 641 L883 641 L883 639.5 L883 639.5 L884.5 639.5 L884.5 641 C884.5 649.0078 878.0078 655.5 870 655.5 L870 654 L870 652.5 L870 652.5 L870 654 L870 655.5 L66.75 655.5 L66.75 654 L66.75 652.5 L66.75 652.5 L66.75 654 L66.75 655.5 C58.7418 655.5 52.25 649.0078 52.25 641 L52.25 639.5 L53.75 639.5 L53.75 639.5 L53.75 641 L52.25 641 L52.25 82 L52.25 80.5 L53.75 80.5 M53.75 83.5 L53.75 82 L55.25 82 L55.25 641 L55.25 642.5 L53.75 642.5 L53.75 642.5 L53.75 641 L55.25 641 C55.25 647.3511 60.3987 652.5 66.75 652.5 L66.75 655.5 L66.75 655.5 L66.75 652.5 L870 652.5 L870 655.5 L870 655.5 L870 652.5 C876.3509 652.5 881.5 647.3509 881.5 641 L883 641 L883 642.5 L883 642.5 L881.5 642.5 L881.5 641 L881.5 82 L883 82 L883 83.5 L883 83.5 L881.5 83.5 L881.5 82 C881.5 75.6487 876.3509 70.5 870 70.5 L870 70.5 L870 70.5 L870 70.5 L66.75 70.5 L66.75 70.5 L66.75 70.5 L66.75 70.5 C60.3987 70.5 55.25 75.6487 55.25 82 L55.25 83.5 L53.75 83.5 L53.75 83.5 Z"
         style="clip-path:url(#clipPath26); stroke:none;"
         clip-path="url(#clipPath26)"
         id="path323" />
    </g>
    <g
       style="font-weight:bold; text-rendering:geometricPrecision;"
       id="g331">
      <text
         x="241"
         xml:space="preserve"
         y="588"
         style="clip-path:url(#clipPath27); stroke:none;"
         clip-path="url(#clipPath27)"
         id="text327">Mitochondrial </text>
      <text
         x="244"
         xml:space="preserve"
         y="601"
         style="clip-path:url(#clipPath27); stroke:none;"
         clip-path="url(#clipPath27)"
         id="text329">Fe-S proteins</text>
    </g>
    <g
       style="fill:white; text-rendering:geometricPrecision; stroke:white;"
       id="g339">
      <path
         d="M93 292.5 L126 292.5 L126 317.5 L93 317.5 L93 292.5 Z"
         style="clip-path:url(#clipPath28); stroke:none;"
         clip-path="url(#clipPath28)"
         id="path333" />
      <path
         d="M93 292.5 L126 292.5 L126 317.5 L93 317.5 L93 292.5 Z"
         style="fill:none; clip-path:url(#clipPath28); stroke:blue;"
         clip-path="url(#clipPath28)"
         id="path335" />
      <text
         x="102"
         y="309"
         style="fill:blue; clip-path:url(#clipPath28); stroke:none;"
         xml:space="preserve"
         clip-path="url(#clipPath28)"
         id="text337">Fe</text>
    </g>
    <g
       style="fill:white; text-rendering:geometricPrecision; stroke:white;"
       id="g347">
      <path
         d="M183 124.5 L252 124.5 L252 149.5 L183 149.5 L183 124.5 Z"
         style="clip-path:url(#clipPath29); stroke:none;"
         clip-path="url(#clipPath29)"
         id="path341" />
      <path
         d="M183 124.5 L252 124.5 L252 149.5 L183 149.5 L183 124.5 Z"
         style="fill:none; clip-path:url(#clipPath29); stroke:black;"
         clip-path="url(#clipPath29)"
         id="path343" />
      <text
         x="197"
         y="141"
         style="fill:black; clip-path:url(#clipPath29); stroke:none;"
         xml:space="preserve"
         clip-path="url(#clipPath29)"
         id="text345">LYRM4</text>
    </g>
    <g
       style="fill:white; text-rendering:geometricPrecision; stroke:white;"
       id="g355">
      <path
         d="M124 410.5 L157 410.5 L157 435.5 L124 435.5 L124 410.5 Z"
         style="clip-path:url(#clipPath30); stroke:none;"
         clip-path="url(#clipPath30)"
         id="path349" />
      <path
         d="M124 410.5 L157 410.5 L157 435.5 L124 435.5 L124 410.5 Z"
         style="fill:none; clip-path:url(#clipPath30); stroke:blue;"
         clip-path="url(#clipPath30)"
         id="path351" />
      <text
         x="135"
         y="427"
         style="fill:blue; clip-path:url(#clipPath30); stroke:none;"
         xml:space="preserve"
         clip-path="url(#clipPath30)"
         id="text353">e-</text>
    </g>
    <g
       style="fill:white; text-rendering:geometricPrecision; stroke:white;"
       id="g363">
      <path
         d="M267 190.5 L339 190.5 L339 215.5 L267 215.5 L267 190.5 Z"
         style="clip-path:url(#clipPath31); stroke:none;"
         clip-path="url(#clipPath31)"
         id="path357" />
      <path
         d="M267 190.5 L339 190.5 L339 215.5 L267 215.5 L267 190.5 Z"
         style="fill:none; clip-path:url(#clipPath31); stroke:black;"
         clip-path="url(#clipPath31)"
         id="path359" />
      <text
         x="289"
         y="207"
         style="fill:black; clip-path:url(#clipPath31); stroke:none;"
         xml:space="preserve"
         clip-path="url(#clipPath31)"
         id="text361">ISCU</text>
    </g>
    <g
       style="fill:white; text-rendering:geometricPrecision; stroke:white;"
       id="g371">
      <path
         d="M135 197.5 L205 197.5 L205 222.5 L135 222.5 L135 197.5 Z"
         style="clip-path:url(#clipPath32); stroke:none;"
         clip-path="url(#clipPath32)"
         id="path365" />
      <path
         d="M135 197.5 L205 197.5 L205 222.5 L135 222.5 L135 197.5 Z"
         style="fill:none; clip-path:url(#clipPath32); stroke:blue;"
         clip-path="url(#clipPath32)"
         id="path367" />
      <text
         x="140"
         y="214"
         style="fill:blue; clip-path:url(#clipPath32); stroke:none;"
         xml:space="preserve"
         clip-path="url(#clipPath32)"
         id="text369">L-cysteine</text>
    </g>
    <g
       style="fill:white; text-rendering:geometricPrecision; stroke:white;"
       id="g379">
      <path
         d="M187 149.5 L248 149.5 L248 174.5 L187 174.5 L187 149.5 Z"
         style="clip-path:url(#clipPath33); stroke:none;"
         clip-path="url(#clipPath33)"
         id="path373" />
      <path
         d="M187 149.5 L248 149.5 L248 174.5 L187 174.5 L187 149.5 Z"
         style="fill:none; clip-path:url(#clipPath33); stroke:black;"
         clip-path="url(#clipPath33)"
         id="path375" />
      <text
         x="202"
         y="166"
         style="fill:black; clip-path:url(#clipPath33); stroke:none;"
         xml:space="preserve"
         clip-path="url(#clipPath33)"
         id="text377">NFS1</text>
    </g>
    <g
       style="fill:white; text-rendering:geometricPrecision; stroke:white;"
       id="g387">
      <path
         d="M243.5 409.5 L333.5 409.5 L333.5 434.5 L243.5 434.5 L243.5 409.5 Z"
         style="clip-path:url(#clipPath34); stroke:none;"
         clip-path="url(#clipPath34)"
         id="path381" />
      <path
         d="M243.5 409.5 L333.5 409.5 L333.5 434.5 L243.5 434.5 L243.5 409.5 Z"
         style="fill:none; clip-path:url(#clipPath34); stroke:blue;"
         clip-path="url(#clipPath34)"
         id="path383" />
      <text
         x="241"
         y="426"
         style="fill:blue; clip-path:url(#clipPath34); stroke:none;"
         xml:space="preserve"
         clip-path="url(#clipPath34)"
         id="text385">[4Fe-4S] cluster</text>
    </g>
    <g
       style="fill:white; text-rendering:geometricPrecision; stroke:white;"
       id="g395">
      <path
         d="M237 197.5 L267 197.5 L267 222.5 L237 222.5 L237 197.5 Z"
         style="clip-path:url(#clipPath35); stroke:none;"
         clip-path="url(#clipPath35)"
         id="path389" />
      <path
         d="M237 197.5 L267 197.5 L267 222.5 L237 222.5 L237 197.5 Z"
         style="fill:none; clip-path:url(#clipPath35); stroke:blue;"
         clip-path="url(#clipPath35)"
         id="path391" />
      <text
         x="249"
         y="214"
         style="fill:blue; clip-path:url(#clipPath35); stroke:none;"
         xml:space="preserve"
         clip-path="url(#clipPath35)"
         id="text393">S</text>
    </g>
    <g
       style="fill:white; text-rendering:geometricPrecision; stroke:white;"
       id="g403">
      <path
         d="M146 243.5 L213 243.5 L213 268.5 L146 268.5 L146 243.5 Z"
         style="clip-path:url(#clipPath36); stroke:none;"
         clip-path="url(#clipPath36)"
         id="path397" />
      <path
         d="M146 243.5 L213 243.5 L213 268.5 L146 268.5 L146 243.5 Z"
         style="fill:none; clip-path:url(#clipPath36); stroke:black;"
         clip-path="url(#clipPath36)"
         id="path399" />
      <text
         x="167"
         y="260"
         style="fill:black; clip-path:url(#clipPath36); stroke:none;"
         xml:space="preserve"
         clip-path="url(#clipPath36)"
         id="text401">FXN</text>
    </g>
    <g
       style="fill:white; text-rendering:geometricPrecision; stroke:white;"
       id="g411">
      <path
         d="M165 344.5 L224 344.5 L224 369.5 L165 369.5 L165 344.5 Z"
         style="clip-path:url(#clipPath37); stroke:none;"
         clip-path="url(#clipPath37)"
         id="path405" />
      <path
         d="M165 344.5 L224 344.5 L224 369.5 L165 369.5 L165 344.5 Z"
         style="fill:none; clip-path:url(#clipPath37); stroke:black;"
         clip-path="url(#clipPath37)"
         id="path407" />
      <text
         x="179"
         y="361"
         style="fill:black; clip-path:url(#clipPath37); stroke:none;"
         xml:space="preserve"
         clip-path="url(#clipPath37)"
         id="text409">FDX1</text>
    </g>
    <g
       style="fill:white; text-rendering:geometricPrecision; stroke:white;"
       id="g419">
      <path
         d="M165 372.5 L224 372.5 L224 397.5 L165 397.5 L165 372.5 Z"
         style="clip-path:url(#clipPath38); stroke:none;"
         clip-path="url(#clipPath38)"
         id="path413" />
      <path
         d="M165 372.5 L224 372.5 L224 397.5 L165 397.5 L165 372.5 Z"
         style="fill:none; clip-path:url(#clipPath38); stroke:black;"
         clip-path="url(#clipPath38)"
         id="path415" />
      <text
         x="178"
         y="389"
         style="fill:black; clip-path:url(#clipPath38); stroke:none;"
         xml:space="preserve"
         clip-path="url(#clipPath38)"
         id="text417">FDXR</text>
    </g>
    <g
       style="fill:white; text-rendering:geometricPrecision; stroke:white;"
       id="g427">
      <path
         d="M408 368.5 L478 368.5 L478 393.5 L408 393.5 L408 368.5 Z"
         style="clip-path:url(#clipPath39); stroke:none;"
         clip-path="url(#clipPath39)"
         id="path421" />
      <path
         d="M408 368.5 L478 368.5 L478 393.5 L408 393.5 L408 368.5 Z"
         style="fill:none; clip-path:url(#clipPath39); stroke:black;"
         clip-path="url(#clipPath39)"
         id="path423" />
      <text
         x="423"
         y="385"
         style="fill:black; clip-path:url(#clipPath39); stroke:none;"
         xml:space="preserve"
         clip-path="url(#clipPath39)"
         id="text425">ABCB7</text>
    </g>
    <g
       style="fill:white; text-rendering:geometricPrecision; stroke:white;"
       id="g435">
      <path
         d="M176 479.5 L246 479.5 L246 504.5 L176 504.5 L176 479.5 Z"
         style="clip-path:url(#clipPath40); stroke:none;"
         clip-path="url(#clipPath40)"
         id="path429" />
      <path
         d="M176 479.5 L246 479.5 L246 504.5 L176 504.5 L176 479.5 Z"
         style="fill:none; clip-path:url(#clipPath40); stroke:black;"
         clip-path="url(#clipPath40)"
         id="path431" />
      <text
         x="192"
         y="496"
         style="fill:black; clip-path:url(#clipPath40); stroke:none;"
         xml:space="preserve"
         clip-path="url(#clipPath40)"
         id="text433">HSPA9</text>
    </g>
    <g
       style="fill:white; text-rendering:geometricPrecision; stroke:white;"
       id="g443">
      <path
         d="M180 508.5 L250 508.5 L250 533.5 L180 533.5 L180 508.5 Z"
         style="clip-path:url(#clipPath41); stroke:none;"
         clip-path="url(#clipPath41)"
         id="path437" />
      <path
         d="M180 508.5 L250 508.5 L250 533.5 L180 533.5 L180 508.5 Z"
         style="fill:none; clip-path:url(#clipPath41); stroke:black;"
         clip-path="url(#clipPath41)"
         id="path439" />
      <text
         x="199"
         y="525"
         style="fill:black; clip-path:url(#clipPath41); stroke:none;"
         xml:space="preserve"
         clip-path="url(#clipPath41)"
         id="text441">HSCB</text>
    </g>
    <g
       style="fill:white; text-rendering:geometricPrecision; stroke:white;"
       id="g451">
      <path
         d="M178 450.5 L248 450.5 L248 475.5 L178 475.5 L178 450.5 Z"
         style="clip-path:url(#clipPath42); stroke:none;"
         clip-path="url(#clipPath42)"
         id="path445" />
      <path
         d="M178 450.5 L248 450.5 L248 475.5 L178 475.5 L178 450.5 Z"
         style="fill:none; clip-path:url(#clipPath42); stroke:black;"
         clip-path="url(#clipPath42)"
         id="path447" />
      <text
         x="193"
         y="467"
         style="fill:black; clip-path:url(#clipPath42); stroke:none;"
         xml:space="preserve"
         clip-path="url(#clipPath42)"
         id="text449">GLRX5</text>
    </g>
    <g
       style="fill:white; text-rendering:geometricPrecision; stroke:white;"
       id="g459">
      <path
         d="M552 436.5 L622 436.5 L622 461.5 L552 461.5 L552 436.5 Z"
         style="clip-path:url(#clipPath43); stroke:none;"
         clip-path="url(#clipPath43)"
         id="path453" />
      <path
         d="M552 436.5 L622 436.5 L622 461.5 L552 461.5 L552 436.5 Z"
         style="fill:none; clip-path:url(#clipPath43); stroke:black;"
         clip-path="url(#clipPath43)"
         id="path455" />
      <text
         x="567"
         y="453"
         style="fill:black; clip-path:url(#clipPath43); stroke:none;"
         xml:space="preserve"
         clip-path="url(#clipPath43)"
         id="text457">NUBP2</text>
    </g>
    <g
       style="fill:white; text-rendering:geometricPrecision; stroke:white;"
       id="g467">
      <path
         d="M553 385.5 L623 385.5 L623 410.5 L553 410.5 L553 385.5 Z"
         style="clip-path:url(#clipPath44); stroke:none;"
         clip-path="url(#clipPath44)"
         id="path461" />
      <path
         d="M553 385.5 L623 385.5 L623 410.5 L553 410.5 L553 385.5 Z"
         style="fill:none; clip-path:url(#clipPath44); stroke:black;"
         clip-path="url(#clipPath44)"
         id="path463" />
      <text
         x="568"
         y="402"
         style="fill:black; clip-path:url(#clipPath44); stroke:none;"
         xml:space="preserve"
         clip-path="url(#clipPath44)"
         id="text465">NUBP1</text>
    </g>
    <g
       style="fill:white; text-rendering:geometricPrecision; stroke:white;"
       id="g475">
      <path
         d="M664 456.5 L718 456.5 L718 481.5 L664 481.5 L664 456.5 Z"
         style="clip-path:url(#clipPath45); stroke:none;"
         clip-path="url(#clipPath45)"
         id="path469" />
      <path
         d="M664 456.5 L718 456.5 L718 481.5 L664 481.5 L664 456.5 Z"
         style="fill:none; clip-path:url(#clipPath45); stroke:black;"
         clip-path="url(#clipPath45)"
         id="path471" />
      <text
         x="675"
         y="473"
         style="fill:black; clip-path:url(#clipPath45); stroke:none;"
         xml:space="preserve"
         clip-path="url(#clipPath45)"
         id="text473">NARF</text>
    </g>
    <g
       style="fill:white; text-rendering:geometricPrecision; stroke:white;"
       id="g483">
      <path
         d="M695 484.5 L765 484.5 L765 509.5 L695 509.5 L695 484.5 Z"
         style="clip-path:url(#clipPath46); stroke:none;"
         clip-path="url(#clipPath46)"
         id="path477" />
      <path
         d="M695 484.5 L765 484.5 L765 509.5 L695 509.5 L695 484.5 Z"
         style="fill:none; clip-path:url(#clipPath46); stroke:black;"
         clip-path="url(#clipPath46)"
         id="path479" />
      <text
         x="712"
         y="501"
         style="fill:black; clip-path:url(#clipPath46); stroke:none;"
         xml:space="preserve"
         clip-path="url(#clipPath46)"
         id="text481">CIAO1</text>
    </g>
    <g
       style="fill:white; text-rendering:geometricPrecision; stroke:white;"
       id="g491">
      <path
         d="M728 451.5 L798 451.5 L798 476.5 L728 476.5 L728 451.5 Z"
         style="clip-path:url(#clipPath47); stroke:none;"
         clip-path="url(#clipPath47)"
         id="path485" />
      <path
         d="M728 451.5 L798 451.5 L798 476.5 L728 476.5 L728 451.5 Z"
         style="fill:none; clip-path:url(#clipPath47); stroke:black;"
         clip-path="url(#clipPath47)"
         id="path487" />
      <text
         x="741"
         y="468"
         style="fill:black; clip-path:url(#clipPath47); stroke:none;"
         xml:space="preserve"
         clip-path="url(#clipPath47)"
         id="text489">CIAO2B</text>
    </g>
    <g
       style="fill:white; text-rendering:geometricPrecision; stroke:white;"
       id="g499">
      <path
         d="M685 181.5 L752 181.5 L752 206.5 L685 206.5 L685 181.5 Z"
         style="clip-path:url(#clipPath48); stroke:none;"
         clip-path="url(#clipPath48)"
         id="path493" />
      <path
         d="M685 181.5 L752 181.5 L752 206.5 L685 206.5 L685 181.5 Z"
         style="fill:none; clip-path:url(#clipPath48); stroke:black;"
         clip-path="url(#clipPath48)"
         id="path495" />
      <text
         x="706"
         y="198"
         style="fill:black; clip-path:url(#clipPath48); stroke:none;"
         xml:space="preserve"
         clip-path="url(#clipPath48)"
         id="text497">FXN</text>
    </g>
    <g
       style="fill:white; text-rendering:geometricPrecision; stroke:white;"
       id="g507">
      <path
         d="M683 152.5 L753 152.5 L753 177.5 L683 177.5 L683 152.5 Z"
         style="clip-path:url(#clipPath49); stroke:none;"
         clip-path="url(#clipPath49)"
         id="path501" />
      <path
         d="M683 152.5 L753 152.5 L753 177.5 L683 177.5 L683 152.5 Z"
         style="fill:none; clip-path:url(#clipPath49); stroke:black;"
         clip-path="url(#clipPath49)"
         id="path503" />
      <text
         x="702"
         y="169"
         style="fill:black; clip-path:url(#clipPath49); stroke:none;"
         xml:space="preserve"
         clip-path="url(#clipPath49)"
         id="text505">NFU1</text>
    </g>
    <g
       style="fill:white; text-rendering:geometricPrecision; stroke:white;"
       id="g515">
      <path
         d="M557 169.5 L618 169.5 L618 194.5 L557 194.5 L557 169.5 Z"
         style="clip-path:url(#clipPath50); stroke:none;"
         clip-path="url(#clipPath50)"
         id="path509" />
      <path
         d="M557 169.5 L618 169.5 L618 194.5 L557 194.5 L557 169.5 Z"
         style="fill:none; clip-path:url(#clipPath50); stroke:black;"
         clip-path="url(#clipPath50)"
         id="path511" />
      <text
         x="572"
         y="186"
         style="fill:black; clip-path:url(#clipPath50); stroke:none;"
         xml:space="preserve"
         clip-path="url(#clipPath50)"
         id="text513">NFS1</text>
    </g>
    <g
       style="fill:white; text-rendering:geometricPrecision; stroke:white;"
       id="g523">
      <path
         d="M552 196.5 L624 196.5 L624 221.5 L552 221.5 L552 196.5 Z"
         style="clip-path:url(#clipPath51); stroke:none;"
         clip-path="url(#clipPath51)"
         id="path517" />
      <path
         d="M552 196.5 L624 196.5 L624 221.5 L552 221.5 L552 196.5 Z"
         style="fill:none; clip-path:url(#clipPath51); stroke:black;"
         clip-path="url(#clipPath51)"
         id="path519" />
      <text
         x="574"
         y="213"
         style="fill:black; clip-path:url(#clipPath51); stroke:none;"
         xml:space="preserve"
         clip-path="url(#clipPath51)"
         id="text521">ISCU</text>
    </g>
    <g
       style="fill:white; text-rendering:geometricPrecision; stroke:white;"
       id="g531">
      <path
         d="M223 266.5 L252 266.5 L252 291.5 L223 291.5 L223 266.5 Z"
         style="clip-path:url(#clipPath52); stroke:none;"
         clip-path="url(#clipPath52)"
         id="path525" />
      <path
         d="M223 266.5 L252 266.5 L252 291.5 L223 291.5 L223 266.5 Z"
         style="fill:none; clip-path:url(#clipPath52); stroke:blue;"
         clip-path="url(#clipPath52)"
         id="path527" />
      <text
         x="230"
         y="283"
         style="fill:blue; clip-path:url(#clipPath52); stroke:none;"
         xml:space="preserve"
         clip-path="url(#clipPath52)"
         id="text529">Fe</text>
    </g>
    <g
       style="fill:white; text-rendering:geometricPrecision; stroke:white;"
       id="g539">
      <path
         d="M243 291.5 L267 291.5 L267 316.5 L243 316.5 L243 291.5 Z"
         style="clip-path:url(#clipPath53); stroke:none;"
         clip-path="url(#clipPath53)"
         id="path533" />
      <path
         d="M243 291.5 L267 291.5 L267 316.5 L243 316.5 L243 291.5 Z"
         style="fill:none; clip-path:url(#clipPath53); stroke:blue;"
         clip-path="url(#clipPath53)"
         id="path535" />
      <text
         x="248"
         y="308"
         style="fill:blue; clip-path:url(#clipPath53); stroke:none;"
         xml:space="preserve"
         clip-path="url(#clipPath53)"
         id="text537">Fe</text>
    </g>
    <g
       style="fill:white; text-rendering:geometricPrecision; stroke:white;"
       id="g547">
      <path
         d="M106 262.5 L139 262.5 L139 287.5 L106 287.5 L106 262.5 Z"
         style="clip-path:url(#clipPath54); stroke:none;"
         clip-path="url(#clipPath54)"
         id="path541" />
      <path
         d="M106 262.5 L139 262.5 L139 287.5 L106 287.5 L106 262.5 Z"
         style="fill:none; clip-path:url(#clipPath54); stroke:blue;"
         clip-path="url(#clipPath54)"
         id="path543" />
      <text
         x="115"
         y="279"
         style="fill:blue; clip-path:url(#clipPath54); stroke:none;"
         xml:space="preserve"
         clip-path="url(#clipPath54)"
         id="text545">Fe</text>
    </g>
    <g
       style="fill:white; text-rendering:geometricPrecision; stroke:white;"
       id="g555">
      <path
         d="M541 411.5 L631 411.5 L631 436.5 L541 436.5 L541 411.5 Z"
         style="clip-path:url(#clipPath55); stroke:none;"
         clip-path="url(#clipPath55)"
         id="path549" />
      <path
         d="M541 411.5 L631 411.5 L631 436.5 L541 436.5 L541 411.5 Z"
         style="fill:none; clip-path:url(#clipPath55); stroke:blue;"
         clip-path="url(#clipPath55)"
         id="path551" />
      <text
         x="539"
         y="428"
         style="fill:blue; clip-path:url(#clipPath55); stroke:none;"
         xml:space="preserve"
         clip-path="url(#clipPath55)"
         id="text553">[4Fe-4S] cluster</text>
    </g>
    <g
       style="font-weight:bold; text-rendering:geometricPrecision;"
       id="g561">
      <text
         x="776"
         xml:space="preserve"
         y="318"
         style="clip-path:url(#clipPath56); stroke:none;"
         clip-path="url(#clipPath56)"
         id="text557">Cytosolic</text>
      <text
         x="761"
         xml:space="preserve"
         y="331"
         style="clip-path:url(#clipPath56); stroke:none;"
         clip-path="url(#clipPath56)"
         id="text559">Fe-S proteins</text>
    </g>
    <g
       style="fill:white; text-rendering:geometricPrecision; stroke:white;"
       id="g569">
      <path
         d="M252.5 384.5 L324.5 384.5 L324.5 409.5 L252.5 409.5 L252.5 384.5 Z"
         style="clip-path:url(#clipPath57); stroke:none;"
         clip-path="url(#clipPath57)"
         id="path563" />
      <path
         d="M252.5 384.5 L324.5 384.5 L324.5 409.5 L252.5 409.5 L252.5 384.5 Z"
         style="fill:none; clip-path:url(#clipPath57); stroke:black;"
         clip-path="url(#clipPath57)"
         id="path565" />
      <text
         x="274"
         y="401"
         style="fill:black; clip-path:url(#clipPath57); stroke:none;"
         xml:space="preserve"
         clip-path="url(#clipPath57)"
         id="text567">ISCU</text>
    </g>
  </g>
</svg>
