<?xml version="1.0" encoding="UTF-8" standalone="no"?>
<svg
   style="fill-opacity:1; color-rendering:auto; color-interpolation:auto; stroke:black; text-rendering:auto; stroke-linecap:square; stroke-miterlimit:10; stroke-opacity:1; shape-rendering:auto; fill:black; stroke-dasharray:none; font-weight:normal; stroke-width:1; font-family:'Dialog'; font-style:normal; stroke-linejoin:miter; font-size:12; stroke-dashoffset:0; image-rendering:auto;"
   width="957"
   height="754"
   version="1.1"
   id="svg665"
   xmlns="http://www.w3.org/2000/svg"
   xmlns:svg="http://www.w3.org/2000/svg">
  <!--Generated by the Batik Graphics2D SVG Generator-->
  <defs
     id="genericDefs" />
  <g
     id="g663">
    <defs
       id="defs1">
      <clipPath
         clipPathUnits="userSpaceOnUse"
         id="clipPath1">
        <path
           d="M0 0 L965 0 L965 762 L0 762 L0 0 Z"
           id="path3" />
      </clipPath>
      <clipPath
         clipPathUnits="userSpaceOnUse"
         id="clipPath2">
        <path
           d="M392.9149 580.7443 L392.9149 683.7443 L595.9149 683.7443 L595.9149 580.7443 Z"
           id="path6" />
      </clipPath>
      <clipPath
         clipPathUnits="userSpaceOnUse"
         id="clipPath3">
        <path
           d="M0 0 L0 200 L200 200 L200 0 Z"
           id="path9" />
      </clipPath>
      <clipPath
         clipPathUnits="userSpaceOnUse"
         id="clipPath4">
        <path
           d="M216 16 L216 37 L227 37 L227 16 Z"
           id="path12" />
      </clipPath>
      <clipPath
         clipPathUnits="userSpaceOnUse"
         id="clipPath5">
        <path
           d="M215.4551 3.918 L226.5449 3.918 L226.5449 19.2305 L215.4551 19.2305 L215.4551 3.918 Z"
           id="path15" />
      </clipPath>
      <clipPath
         clipPathUnits="userSpaceOnUse"
         id="clipPath6">
        <path
           d="M81 134 L81 382 L481 382 L481 134 Z"
           id="path18" />
      </clipPath>
      <clipPath
         clipPathUnits="userSpaceOnUse"
         id="clipPath7">
        <path
           d="M234.5961 300.3461 L234.5961 325.9955 L294.3921 325.9955 L294.3921 300.3461 Z"
           id="path21" />
      </clipPath>
      <clipPath
         clipPathUnits="userSpaceOnUse"
         id="clipPath8">
        <path
           d="M464.7963 546.8984 L464.7963 574.6389 L476.7328 574.6389 L476.7328 546.8984 Z"
           id="path24" />
      </clipPath>
      <clipPath
         clipPathUnits="userSpaceOnUse"
         id="clipPath9">
        <path
           d="M119.4311 206.3178 L119.4311 235.6822 L170.1822 235.6822 L170.1822 206.3178 Z"
           id="path27" />
      </clipPath>
      <clipPath
         clipPathUnits="userSpaceOnUse"
         id="clipPath10">
        <path
           d="M146.103 206.3697 L146.103 274.1706 L170.1303 274.1706 L170.1303 206.3697 Z"
           id="path30" />
      </clipPath>
      <clipPath
         clipPathUnits="userSpaceOnUse"
         id="clipPath11">
        <path
           d="M469.8407 592.7188 L469.8407 656.3302 L570.8501 656.3302 L570.8501 592.7188 Z"
           id="path33" />
      </clipPath>
      <clipPath
         clipPathUnits="userSpaceOnUse"
         id="clipPath12">
        <path
           d="M168.8002 206.3002 L168.8002 234.2364 L205.9866 234.2364 L205.9866 206.3002 Z"
           id="path36" />
      </clipPath>
      <clipPath
         clipPathUnits="userSpaceOnUse"
         id="clipPath13">
        <path
           d="M593.8975 622.3208 L593.8975 634.2522 L720.0936 634.2522 L720.0936 622.3208 Z"
           id="path39" />
      </clipPath>
      <clipPath
         clipPathUnits="userSpaceOnUse"
         id="clipPath14">
        <path
           d="M163.5306 160.5 L163.5306 188.2311 L175.4694 188.2311 L175.4694 160.5 Z"
           id="path42" />
      </clipPath>
      <clipPath
         clipPathUnits="userSpaceOnUse"
         id="clipPath15">
        <path
           d="M168.8698 206.3698 L168.8698 271.1707 L191.9014 271.1707 L191.9014 206.3698 Z"
           id="path45" />
      </clipPath>
      <clipPath
         clipPathUnits="userSpaceOnUse"
         id="clipPath16">
        <path
           d="M163.5306 89.5 L163.5306 142.2311 L175.4694 142.2311 L175.4694 89.5 Z"
           id="path48" />
      </clipPath>
      <clipPath
         clipPathUnits="userSpaceOnUse"
         id="clipPath17">
        <path
           d="M795.3633 586.408 L795.3633 702.408 L911.3633 702.408 L911.3633 586.408 Z"
           id="path51" />
      </clipPath>
      <clipPath
         clipPathUnits="userSpaceOnUse"
         id="clipPath18">
        <path
           d="M291.7558 313.6797 L291.7558 356.6797 L392.7558 356.6797 L392.7558 313.6797 Z"
           id="path54" />
      </clipPath>
      <clipPath
         clipPathUnits="userSpaceOnUse"
         id="clipPath19">
        <path
           d="M287.833 279.8594 L287.833 300.8594 L417.833 300.8594 L417.833 279.8594 Z"
           id="path57" />
      </clipPath>
      <clipPath
         clipPathUnits="userSpaceOnUse"
         id="clipPath20">
        <path
           d="M287.4482 324.4746 L287.4482 345.4746 L395.4482 345.4746 L395.4482 324.4746 Z"
           id="path60" />
      </clipPath>
      <clipPath
         clipPathUnits="userSpaceOnUse"
         id="clipPath21">
        <path
           d="M175.6227 531.9719 L175.6227 552.9719 L362.1575 552.9719 L362.1575 531.9719 Z"
           id="path63" />
      </clipPath>
      <clipPath
         clipPathUnits="userSpaceOnUse"
         id="clipPath22">
        <path
           d="M342.7356 454.4919 L342.7356 487.4919 L572.7356 487.4919 L572.7356 454.4919 Z"
           id="path66" />
      </clipPath>
      <clipPath
         clipPathUnits="userSpaceOnUse"
         id="clipPath23">
        <path
           d="M126.5 69.5 L126.5 90.5 L212.5 90.5 L212.5 69.5 Z"
           id="path69" />
      </clipPath>
      <clipPath
         clipPathUnits="userSpaceOnUse"
         id="clipPath24">
        <path
           d="M48.0108 527.7411 L48.0108 558.5867 L172.8036 558.5867 L172.8036 527.7411 Z"
           id="path72" />
      </clipPath>
      <clipPath
         clipPathUnits="userSpaceOnUse"
         id="clipPath25">
        <path
           d="M204.5 218.5 L204.5 248.5 L278.5 248.5 L278.5 218.5 Z"
           id="path75" />
      </clipPath>
      <clipPath
         clipPathUnits="userSpaceOnUse"
         id="clipPath26">
        <path
           d="M380.0299 616.908 L380.0299 637.908 L438.0299 637.908 L438.0299 616.908 Z"
           id="path78" />
      </clipPath>
      <clipPath
         clipPathUnits="userSpaceOnUse"
         id="clipPath27">
        <path
           d="M444.0299 572.908 L444.0299 593.908 L497.0299 593.908 L497.0299 572.908 Z"
           id="path81" />
      </clipPath>
      <clipPath
         clipPathUnits="userSpaceOnUse"
         id="clipPath28">
        <path
           d="M205.7817 650.0031 L205.7817 671.0031 L269.7817 671.0031 L269.7817 650.0031 Z"
           id="path84" />
      </clipPath>
      <clipPath
         clipPathUnits="userSpaceOnUse"
         id="clipPath29">
        <path
           d="M142.5 140.5 L142.5 161.5 L196.5 161.5 L196.5 140.5 Z"
           id="path87" />
      </clipPath>
      <clipPath
         clipPathUnits="userSpaceOnUse"
         id="clipPath30">
        <path
           d="M269.5766 670.0031 L269.5766 691.0031 L333.5766 691.0031 L333.5766 670.0031 Z"
           id="path90" />
      </clipPath>
      <clipPath
         clipPathUnits="userSpaceOnUse"
         id="clipPath31">
        <path
           d="M269.5766 630.0031 L269.5766 651.0031 L333.5766 651.0031 L333.5766 630.0031 Z"
           id="path93" />
      </clipPath>
      <clipPath
         clipPathUnits="userSpaceOnUse"
         id="clipPath32">
        <path
           d="M78.9241 622.644 L78.9241 643.644 L142.9241 643.644 L142.9241 622.644 Z"
           id="path96" />
      </clipPath>
      <clipPath
         clipPathUnits="userSpaceOnUse"
         id="clipPath33">
        <path
           d="M269.5766 590.0031 L269.5766 611.0031 L333.5766 611.0031 L333.5766 590.0031 Z"
           id="path99" />
      </clipPath>
      <clipPath
         clipPathUnits="userSpaceOnUse"
         id="clipPath34">
        <path
           d="M78.9241 602.644 L78.9241 623.644 L142.9241 623.644 L142.9241 602.644 Z"
           id="path102" />
      </clipPath>
      <clipPath
         clipPathUnits="userSpaceOnUse"
         id="clipPath35">
        <path
           d="M269.5766 690.0031 L269.5766 711.0031 L333.5766 711.0031 L333.5766 690.0031 Z"
           id="path105" />
      </clipPath>
      <clipPath
         clipPathUnits="userSpaceOnUse"
         id="clipPath36">
        <path
           d="M78.9241 582.644 L78.9241 603.644 L142.9241 603.644 L142.9241 582.644 Z"
           id="path108" />
      </clipPath>
      <clipPath
         clipPathUnits="userSpaceOnUse"
         id="clipPath37">
        <path
           d="M269.5766 570.0031 L269.5766 591.0031 L333.5766 591.0031 L333.5766 570.0031 Z"
           id="path111" />
      </clipPath>
      <clipPath
         clipPathUnits="userSpaceOnUse"
         id="clipPath38">
        <path
           d="M269.5766 650.0031 L269.5766 671.0031 L333.5766 671.0031 L333.5766 650.0031 Z"
           id="path114" />
      </clipPath>
      <clipPath
         clipPathUnits="userSpaceOnUse"
         id="clipPath39">
        <path
           d="M205.7817 590.0031 L205.7817 611.0031 L269.7817 611.0031 L269.7817 590.0031 Z"
           id="path117" />
      </clipPath>
      <clipPath
         clipPathUnits="userSpaceOnUse"
         id="clipPath40">
        <path
           d="M118.5 272.5 L118.5 293.5 L177.5 293.5 L177.5 272.5 Z"
           id="path120" />
      </clipPath>
      <clipPath
         clipPathUnits="userSpaceOnUse"
         id="clipPath41">
        <path
           d="M78.9241 662.644 L78.9241 683.644 L142.9241 683.644 L142.9241 662.644 Z"
           id="path123" />
      </clipPath>
      <clipPath
         clipPathUnits="userSpaceOnUse"
         id="clipPath42">
        <path
           d="M205.7817 610.0031 L205.7817 631.0031 L269.7817 631.0031 L269.7817 610.0031 Z"
           id="path126" />
      </clipPath>
      <clipPath
         clipPathUnits="userSpaceOnUse"
         id="clipPath43">
        <path
           d="M78.9241 642.644 L78.9241 663.644 L142.9241 663.644 L142.9241 642.644 Z"
           id="path129" />
      </clipPath>
      <clipPath
         clipPathUnits="userSpaceOnUse"
         id="clipPath44">
        <path
           d="M436.0299 526.908 L436.0299 547.908 L506.0299 547.908 L506.0299 526.908 Z"
           id="path132" />
      </clipPath>
      <clipPath
         clipPathUnits="userSpaceOnUse"
         id="clipPath45">
        <path
           d="M205.7817 670.0031 L205.7817 691.0031 L269.7817 691.0031 L269.7817 670.0031 Z"
           id="path135" />
      </clipPath>
      <clipPath
         clipPathUnits="userSpaceOnUse"
         id="clipPath46">
        <path
           d="M269.5766 610.0031 L269.5766 631.0031 L333.5766 631.0031 L333.5766 610.0031 Z"
           id="path138" />
      </clipPath>
      <clipPath
         clipPathUnits="userSpaceOnUse"
         id="clipPath47">
        <path
           d="M205.7817 630.0031 L205.7817 651.0031 L269.7817 651.0031 L269.7817 630.0031 Z"
           id="path141" />
      </clipPath>
      <clipPath
         clipPathUnits="userSpaceOnUse"
         id="clipPath48">
        <path
           d="M205.7817 570.0031 L205.7817 591.0031 L269.7817 591.0031 L269.7817 570.0031 Z"
           id="path144" />
      </clipPath>
      <clipPath
         clipPathUnits="userSpaceOnUse"
         id="clipPath49">
        <path
           d="M269.5766 710.0031 L269.5766 731.0031 L333.5766 731.0031 L333.5766 710.0031 Z"
           id="path147" />
      </clipPath>
      <clipPath
         clipPathUnits="userSpaceOnUse"
         id="clipPath50">
        <path
           d="M189.5 255.5 L189.5 284.5 L253.5 284.5 L253.5 255.5 Z"
           id="path150" />
      </clipPath>
      <clipPath
         clipPathUnits="userSpaceOnUse"
         id="clipPath51">
        <path
           d="M205.7817 710.0031 L205.7817 731.0031 L269.7817 731.0031 L269.7817 710.0031 Z"
           id="path153" />
      </clipPath>
      <clipPath
         clipPathUnits="userSpaceOnUse"
         id="clipPath52">
        <path
           d="M569.1017 647.5623 L569.1017 678.4668 L597.2352 678.4668 L597.2352 647.5623 Z"
           id="path156" />
      </clipPath>
      <clipPath
         clipPathUnits="userSpaceOnUse"
         id="clipPath53">
        <path
           d="M559.5142 655.8181 L559.5142 688.1207 L588.9275 688.1207 L588.9275 655.8181 Z"
           id="path159" />
      </clipPath>
      <clipPath
         clipPathUnits="userSpaceOnUse"
         id="clipPath54">
        <path
           d="M588.03 683.2413 L588.03 704.2413 L690.03 704.2413 L690.03 683.2413 Z"
           id="path162" />
      </clipPath>
      <clipPath
         clipPathUnits="userSpaceOnUse"
         id="clipPath55">
        <path
           d="M436.9073 626.7853 L436.9073 666.4552 L561.3985 666.4552 L561.3985 626.7853 Z"
           id="path165" />
      </clipPath>
      <clipPath
         clipPathUnits="userSpaceOnUse"
         id="clipPath56">
        <path
           d="M769.3633 566.908 L769.3633 633.908 L848.3633 633.908 L848.3633 566.908 Z"
           id="path168" />
      </clipPath>
      <clipPath
         clipPathUnits="userSpaceOnUse"
         id="clipPath57">
        <path
           d="M821.3633 545.908 L821.3633 612.908 L900.3633 612.908 L900.3633 545.908 Z"
           id="path171" />
      </clipPath>
      <clipPath
         clipPathUnits="userSpaceOnUse"
         id="clipPath58">
        <path
           d="M775.3633 590.908 L775.3633 611.908 L834.3633 611.908 L834.3633 590.908 Z"
           id="path174" />
      </clipPath>
      <clipPath
         clipPathUnits="userSpaceOnUse"
         id="clipPath59">
        <path
           d="M826.3633 666.908 L826.3633 687.908 L936.3633 687.908 L936.3633 666.908 Z"
           id="path177" />
      </clipPath>
      <clipPath
         clipPathUnits="userSpaceOnUse"
         id="clipPath60">
        <path
           d="M746.3633 551.908 L746.3633 572.908 L810.3633 572.908 L810.3633 551.908 Z"
           id="path180" />
      </clipPath>
      <clipPath
         clipPathUnits="userSpaceOnUse"
         id="clipPath61">
        <path
           d="M840.9024 522.8054 L840.9024 543.8054 L924.9024 543.8054 L924.9024 522.8054 Z"
           id="path183" />
      </clipPath>
      <clipPath
         clipPathUnits="userSpaceOnUse"
         id="clipPath62">
        <path
           d="M726.3633 705.908 L726.3633 732.908 L871.3633 732.908 L871.3633 705.908 Z"
           id="path186" />
      </clipPath>
      <clipPath
         clipPathUnits="userSpaceOnUse"
         id="clipPath63">
        <path
           d="M10.5 160.5 L10.5 181.5 L121.5 181.5 L121.5 160.5 Z"
           id="path189" />
      </clipPath>
      <clipPath
         clipPathUnits="userSpaceOnUse"
         id="clipPath64">
        <path
           d="M140.5 186.5 L140.5 207.5 L198.5 207.5 L198.5 186.5 Z"
           id="path192" />
      </clipPath>
      <clipPath
         clipPathUnits="userSpaceOnUse"
         id="clipPath65">
        <path
           d="M90.5 234.5 L90.5 255.5 L150.5 255.5 L150.5 234.5 Z"
           id="path195" />
      </clipPath>
      <clipPath
         clipPathUnits="userSpaceOnUse"
         id="clipPath66">
        <path
           d="M234.6615 286.9043 L234.6615 301.5885 L289.5401 301.5885 L289.5401 286.9043 Z"
           id="path198" />
      </clipPath>
      <clipPath
         clipPathUnits="userSpaceOnUse"
         id="clipPath67">
        <path
           d="M234.5543 300.3043 L234.5543 455.6926 L458.7479 455.6926 L458.7479 300.3043 Z"
           id="path201" />
      </clipPath>
      <clipPath
         clipPathUnits="userSpaceOnUse"
         id="clipPath68">
        <path
           d="M78.9241 562.644 L78.9241 583.644 L142.9241 583.644 L142.9241 562.644 Z"
           id="path204" />
      </clipPath>
      <clipPath
         clipPathUnits="userSpaceOnUse"
         id="clipPath69">
        <path
           d="M205.7817 690.0031 L205.7817 711.0031 L269.7817 711.0031 L269.7817 690.0031 Z"
           id="path207" />
      </clipPath>
    </defs>
    <g
       style="fill:white; stroke:white;"
       id="g213">
      <rect
         x="0"
         width="965"
         height="762"
         y="0"
         style="stroke:none;"
         id="rect211" />
    </g>
    <g
       style="fill:rgb(90,146,240); text-rendering:geometricPrecision; stroke-width:3; stroke:rgb(90,146,240);"
       id="g219">
      <path
         d="M594.4149 632.2443 C594.4149 659.8585 549.6433 682.2443 494.4149 682.2443 C439.1864 682.2443 394.4149 659.8585 394.4149 632.2443 C394.4149 604.63 439.1864 582.2443 494.4149 582.2443 C549.6433 582.2443 594.4149 604.63 594.4149 632.2443 Z"
         style="clip-path:url(#clipPath2); stroke:none;"
         clip-path="url(#clipPath2)"
         id="path215" />
      <path
         d="M594.4149 632.2443 C594.4149 659.8585 549.6433 682.2443 494.4149 682.2443 C439.1864 682.2443 394.4149 659.8585 394.4149 632.2443 C394.4149 604.63 439.1864 582.2443 494.4149 582.2443 C549.6433 582.2443 594.4149 604.63 594.4149 632.2443 Z"
         style="fill:none; clip-path:url(#clipPath2); stroke:rgb(0,102,204);"
         clip-path="url(#clipPath2)"
         id="path217" />
    </g>
    <g
       style="font-weight:bold; font-size:10; text-rendering:geometricPrecision;"
       id="g229">
      <path
         d="M0.0469 6.7031 L6.7656 6.7031 L6.7656 8.125 L4.3438 8.125 L4.3438 14 L2.4688 14 L2.4688 8.125 L0.0469 8.125 L0.0469 6.7031 ZM7.665 8.5312 L9.415 8.5312 L9.415 14 L7.665 14 L7.665 8.5312 ZM7.665 6.4062 L9.415 6.4062 L9.415 7.8281 L7.665 7.8281 L7.665 6.4062 ZM12.999 6.9844 L12.999 8.5312 L14.7959 8.5312 L14.7959 9.7812 L12.999 9.7812 L12.999 12.0938 Q12.999 12.4844 13.1475 12.6172 Q13.2959 12.75 13.749 12.75 L14.6553 12.75 L14.6553 14 L13.1553 14 Q12.1084 14 11.6787 13.5703 Q11.249 13.1406 11.249 12.0938 L11.249 9.7812 L10.374 9.7812 L10.374 8.5312 L11.249 8.5312 L11.249 6.9844 L12.999 6.9844 ZM15.873 6.4062 L17.623 6.4062 L17.623 14 L15.873 14 L15.873 6.4062 ZM24.7539 11.25 L24.7539 11.75 L20.6758 11.75 Q20.7383 12.3594 21.1133 12.6719 Q21.4883 12.9844 22.1758 12.9844 Q22.7227 12.9844 23.3086 12.8203 Q23.8945 12.6562 24.5039 12.3125 L24.5039 13.6719 Q23.8789 13.9062 23.2617 14.0234 Q22.6445 14.1406 22.0195 14.1406 Q20.5352 14.1406 19.7148 13.3828 Q18.8945 12.625 18.8945 11.2656 Q18.8945 9.9375 19.6992 9.1719 Q20.5039 8.4062 21.9258 8.4062 Q23.207 8.4062 23.9805 9.1797 Q24.7539 9.9531 24.7539 11.25 ZM22.957 10.6719 Q22.957 10.1719 22.668 9.8672 Q22.3789 9.5625 21.9102 9.5625 Q21.3945 9.5625 21.082 9.8438 Q20.7695 10.125 20.6914 10.6719 L22.957 10.6719 ZM26.3643 8.5312 L28.1143 8.5312 L28.1143 10.4219 L26.3643 10.4219 L26.3643 8.5312 ZM26.3643 12.1094 L28.1143 12.1094 L28.1143 14 L26.3643 14 L26.3643 12.1094 Z"
         style="clip-path:url(#clipPath3); stroke:none;"
         clip-path="url(#clipPath3)"
         id="path221" />
      <path
         d="M38.9844 6.7031 L39.9688 6.7031 L39.9688 14 L38.9844 14 L38.9844 6.7031 ZM41.9336 6.7031 L42.918 6.7031 L42.918 13.1719 L46.4648 13.1719 L46.4648 14 L41.9336 14 L41.9336 6.7031 ZM47.7549 13.1719 L49.3799 13.1719 L49.3799 7.6094 L47.6143 7.9531 L47.6143 7.0625 L49.3643 6.7031 L50.3486 6.7031 L50.3486 13.1719 L51.958 13.1719 L51.958 14 L47.7549 14 L47.7549 13.1719 ZM59.4834 11.25 Q58.4053 11.25 57.9834 11.5 Q57.5615 11.75 57.5615 12.3438 Q57.5615 12.8281 57.874 13.1094 Q58.1865 13.3906 58.7334 13.3906 Q59.4834 13.3906 59.9365 12.8594 Q60.3896 12.3281 60.3896 11.4531 L60.3896 11.25 L59.4834 11.25 ZM61.2803 10.875 L61.2803 14 L60.3896 14 L60.3896 13.1719 Q60.0771 13.6719 59.6162 13.9062 Q59.1553 14.1406 58.499 14.1406 Q57.6553 14.1406 57.1553 13.6719 Q56.6553 13.2031 56.6553 12.4062 Q56.6553 11.4844 57.2803 11.0156 Q57.9053 10.5469 59.124 10.5469 L60.3896 10.5469 L60.3896 10.4531 Q60.3896 9.8438 59.9756 9.5 Q59.5615 9.1562 58.8271 9.1562 Q58.3584 9.1562 57.9131 9.2734 Q57.4678 9.3906 57.0615 9.6094 L57.0615 8.7812 Q57.5615 8.5938 58.0225 8.5 Q58.4834 8.4062 58.9209 8.4062 Q60.1084 8.4062 60.6943 9.0156 Q61.2803 9.625 61.2803 10.875 ZM67.6738 10.7031 L67.6738 14 L66.7832 14 L66.7832 10.7344 Q66.7832 9.9531 66.4785 9.5703 Q66.1738 9.1875 65.5645 9.1875 Q64.8457 9.1875 64.4238 9.6484 Q64.002 10.1094 64.002 10.9062 L64.002 14 L63.0957 14 L63.0957 8.5312 L64.002 8.5312 L64.002 9.375 Q64.3301 8.8906 64.7676 8.6484 Q65.2051 8.4062 65.7676 8.4062 Q66.7051 8.4062 67.1895 8.9844 Q67.6738 9.5625 67.6738 10.7031 ZM73.0742 9.3594 L73.0742 6.4062 L73.9648 6.4062 L73.9648 14 L73.0742 14 L73.0742 13.1719 Q72.793 13.6719 72.3555 13.9062 Q71.918 14.1406 71.3086 14.1406 Q70.3242 14.1406 69.6992 13.3516 Q69.0742 12.5625 69.0742 11.2656 Q69.0742 9.9844 69.6992 9.1953 Q70.3242 8.4062 71.3086 8.4062 Q71.918 8.4062 72.3555 8.6406 Q72.793 8.875 73.0742 9.3594 ZM70.0117 11.2656 Q70.0117 12.2656 70.418 12.8281 Q70.8242 13.3906 71.543 13.3906 Q72.2461 13.3906 72.6602 12.8281 Q73.0742 12.2656 73.0742 11.2656 Q73.0742 10.2812 72.6602 9.7188 Q72.2461 9.1562 71.543 9.1562 Q70.8242 9.1562 70.418 9.7188 Q70.0117 10.2812 70.0117 11.2656 ZM83.2568 9.5781 Q83.585 8.9688 84.0537 8.6875 Q84.5225 8.4062 85.1631 8.4062 Q86.0225 8.4062 86.4834 9 Q86.9443 9.5938 86.9443 10.7031 L86.9443 14 L86.0381 14 L86.0381 10.7344 Q86.0381 9.9375 85.7646 9.5625 Q85.4912 9.1875 84.9131 9.1875 Q84.21 9.1875 83.8115 9.6484 Q83.4131 10.1094 83.4131 10.9062 L83.4131 14 L82.5068 14 L82.5068 10.7344 Q82.5068 9.9375 82.2256 9.5625 Q81.9443 9.1875 81.3662 9.1875 Q80.6787 9.1875 80.2725 9.6484 Q79.8662 10.1094 79.8662 10.9062 L79.8662 14 L78.96 14 L78.96 8.5312 L79.8662 8.5312 L79.8662 9.375 Q80.1787 8.875 80.6084 8.6406 Q81.0381 8.4062 81.6162 8.4062 Q82.2256 8.4062 82.6396 8.7031 Q83.0537 9 83.2568 9.5781 ZM93.4199 11.0469 L93.4199 11.4844 L89.2793 11.4844 Q89.3418 12.4062 89.8418 12.8906 Q90.3418 13.375 91.2324 13.375 Q91.748 13.375 92.2402 13.25 Q92.7324 13.125 93.2012 12.875 L93.2012 13.7188 Q92.7168 13.9219 92.209 14.0312 Q91.7012 14.1406 91.1855 14.1406 Q89.873 14.1406 89.1074 13.3828 Q88.3418 12.625 88.3418 11.3125 Q88.3418 9.9688 89.0684 9.1875 Q89.7949 8.4062 91.0293 8.4062 Q92.1387 8.4062 92.7793 9.1094 Q93.4199 9.8125 93.4199 11.0469 ZM92.5137 10.7812 Q92.5137 10.0469 92.1074 9.6016 Q91.7012 9.1562 91.0449 9.1562 Q90.2793 9.1562 89.834 9.5859 Q89.3887 10.0156 89.3105 10.7812 L92.5137 10.7812 ZM98.4941 11.2031 Q98.4941 10.2188 98.0879 9.6875 Q97.6816 9.1562 96.9629 9.1562 Q96.2285 9.1562 95.8301 9.6875 Q95.4316 10.2188 95.4316 11.2031 Q95.4316 12.1719 95.8301 12.7109 Q96.2285 13.25 96.9629 13.25 Q97.6816 13.25 98.0879 12.7109 Q98.4941 12.1719 98.4941 11.2031 ZM99.3848 13.3281 Q99.3848 14.7188 98.7676 15.3984 Q98.1504 16.0781 96.8691 16.0781 Q96.4004 16.0781 95.9785 16.0078 Q95.5566 15.9375 95.166 15.7969 L95.166 14.9219 Q95.5566 15.1406 95.9395 15.2422 Q96.3223 15.3438 96.7285 15.3438 Q97.6035 15.3438 98.0488 14.8828 Q98.4941 14.4219 98.4941 13.4844 L98.4941 13.0312 Q98.2129 13.5156 97.7754 13.7578 Q97.3379 14 96.7285 14 Q95.7285 14 95.1113 13.2344 Q94.4941 12.4688 94.4941 11.2031 Q94.4941 9.9375 95.1113 9.1719 Q95.7285 8.4062 96.7285 8.4062 Q97.3379 8.4062 97.7754 8.6406 Q98.2129 8.875 98.4941 9.3594 L98.4941 8.5312 L99.3848 8.5312 L99.3848 13.3281 ZM103.7168 11.25 Q102.6387 11.25 102.2168 11.5 Q101.7949 11.75 101.7949 12.3438 Q101.7949 12.8281 102.1074 13.1094 Q102.4199 13.3906 102.9668 13.3906 Q103.7168 13.3906 104.1699 12.8594 Q104.623 12.3281 104.623 11.4531 L104.623 11.25 L103.7168 11.25 ZM105.5137 10.875 L105.5137 14 L104.623 14 L104.623 13.1719 Q104.3105 13.6719 103.8496 13.9062 Q103.3887 14.1406 102.7324 14.1406 Q101.8887 14.1406 101.3887 13.6719 Q100.8887 13.2031 100.8887 12.4062 Q100.8887 11.4844 101.5137 11.0156 Q102.1387 10.5469 103.3574 10.5469 L104.623 10.5469 L104.623 10.4531 Q104.623 9.8438 104.209 9.5 Q103.7949 9.1562 103.0605 9.1562 Q102.5918 9.1562 102.1465 9.2734 Q101.7012 9.3906 101.2949 9.6094 L101.2949 8.7812 Q101.7949 8.5938 102.2559 8.5 Q102.7168 8.4062 103.1543 8.4062 Q104.3418 8.4062 104.9277 9.0156 Q105.5137 9.625 105.5137 10.875 ZM107.3291 6.4062 L108.2354 6.4062 L108.2354 10.8906 L110.9229 8.5312 L112.0635 8.5312 L109.1572 11.0938 L112.1885 14 L111.0166 14 L108.2354 11.3281 L108.2354 14 L107.3291 14 L107.3291 6.4062 ZM115.6357 11.25 Q114.5576 11.25 114.1357 11.5 Q113.7139 11.75 113.7139 12.3438 Q113.7139 12.8281 114.0264 13.1094 Q114.3389 13.3906 114.8857 13.3906 Q115.6357 13.3906 116.0889 12.8594 Q116.542 12.3281 116.542 11.4531 L116.542 11.25 L115.6357 11.25 ZM117.4326 10.875 L117.4326 14 L116.542 14 L116.542 13.1719 Q116.2295 13.6719 115.7686 13.9062 Q115.3076 14.1406 114.6514 14.1406 Q113.8076 14.1406 113.3076 13.6719 Q112.8076 13.2031 112.8076 12.4062 Q112.8076 11.4844 113.4326 11.0156 Q114.0576 10.5469 115.2764 10.5469 L116.542 10.5469 L116.542 10.4531 Q116.542 9.8438 116.1279 9.5 Q115.7139 9.1562 114.9795 9.1562 Q114.5107 9.1562 114.0654 9.2734 Q113.6201 9.3906 113.2139 9.6094 L113.2139 8.7812 Q113.7139 8.5938 114.1748 8.5 Q114.6357 8.4062 115.0732 8.4062 Q116.2607 8.4062 116.8467 9.0156 Q117.4326 9.625 117.4326 10.875 ZM122.4512 9.375 Q122.2949 9.2812 122.123 9.2422 Q121.9512 9.2031 121.7324 9.2031 Q120.9668 9.2031 120.5605 9.6953 Q120.1543 10.1875 120.1543 11.125 L120.1543 14 L119.248 14 L119.248 8.5312 L120.1543 8.5312 L120.1543 9.375 Q120.4355 8.875 120.8887 8.6406 Q121.3418 8.4062 121.998 8.4062 Q122.0918 8.4062 122.2012 8.4141 Q122.3105 8.4219 122.4512 8.4531 L122.4512 9.375 ZM125.6719 14.5156 Q125.2969 15.4844 124.9297 15.7812 Q124.5625 16.0781 123.9688 16.0781 L123.25 16.0781 L123.25 15.3281 L123.7656 15.3281 Q124.1406 15.3281 124.3438 15.1562 Q124.5469 14.9844 124.7969 14.3281 L124.9688 13.9062 L122.75 8.5312 L123.7031 8.5312 L125.4062 12.8125 L127.125 8.5312 L128.0781 8.5312 L125.6719 14.5156 ZM131.4336 9.1562 Q130.7148 9.1562 130.293 9.7188 Q129.8711 10.2812 129.8711 11.2656 Q129.8711 12.25 130.2852 12.8125 Q130.6992 13.375 131.4336 13.375 Q132.1523 13.375 132.5742 12.8125 Q132.9961 12.25 132.9961 11.2656 Q132.9961 10.2969 132.5742 9.7266 Q132.1523 9.1562 131.4336 9.1562 ZM131.4336 8.4062 Q132.6055 8.4062 133.2773 9.1641 Q133.9492 9.9219 133.9492 11.2656 Q133.9492 12.6094 133.2773 13.375 Q132.6055 14.1406 131.4336 14.1406 Q130.2617 14.1406 129.5898 13.375 Q128.918 12.6094 128.918 11.2656 Q128.918 9.9219 129.5898 9.1641 Q130.2617 8.4062 131.4336 8.4062 ZM139.3643 8.7344 L139.3643 9.5781 Q138.9893 9.375 138.6064 9.2656 Q138.2236 9.1562 137.833 9.1562 Q136.958 9.1562 136.4736 9.7109 Q135.9893 10.2656 135.9893 11.2656 Q135.9893 12.2656 136.4736 12.8203 Q136.958 13.375 137.833 13.375 Q138.2236 13.375 138.6064 13.2734 Q138.9893 13.1719 139.3643 12.9531 L139.3643 13.7969 Q138.9893 13.9688 138.5908 14.0547 Q138.1924 14.1406 137.7393 14.1406 Q136.4893 14.1406 135.7627 13.3672 Q135.0361 12.5938 135.0361 11.2656 Q135.0361 9.9375 135.7705 9.1719 Q136.5049 8.4062 137.7861 8.4062 Q138.208 8.4062 138.5986 8.4844 Q138.9893 8.5625 139.3643 8.7344 ZM143.2061 14.5156 Q142.8311 15.4844 142.4639 15.7812 Q142.0967 16.0781 141.5029 16.0781 L140.7842 16.0781 L140.7842 15.3281 L141.2998 15.3281 Q141.6748 15.3281 141.8779 15.1562 Q142.0811 14.9844 142.3311 14.3281 L142.5029 13.9062 L140.2842 8.5312 L141.2373 8.5312 L142.9404 12.8125 L144.6592 8.5312 L145.6123 8.5312 L143.2061 14.5156 ZM147.7334 6.9844 L147.7334 8.5312 L149.5928 8.5312 L149.5928 9.2344 L147.7334 9.2344 L147.7334 12.2031 Q147.7334 12.8594 147.9209 13.0547 Q148.1084 13.25 148.6709 13.25 L149.5928 13.25 L149.5928 14 L148.6709 14 Q147.624 14 147.2256 13.6094 Q146.8271 13.2188 146.8271 12.2031 L146.8271 9.2344 L146.1709 9.2344 L146.1709 8.5312 L146.8271 8.5312 L146.8271 6.9844 L147.7334 6.9844 ZM155.4512 11.0469 L155.4512 11.4844 L151.3105 11.4844 Q151.373 12.4062 151.873 12.8906 Q152.373 13.375 153.2637 13.375 Q153.7793 13.375 154.2715 13.25 Q154.7637 13.125 155.2324 12.875 L155.2324 13.7188 Q154.748 13.9219 154.2402 14.0312 Q153.7324 14.1406 153.2168 14.1406 Q151.9043 14.1406 151.1387 13.3828 Q150.373 12.625 150.373 11.3125 Q150.373 9.9688 151.0996 9.1875 Q151.8262 8.4062 153.0605 8.4062 Q154.1699 8.4062 154.8105 9.1094 Q155.4512 9.8125 155.4512 11.0469 ZM154.5449 10.7812 Q154.5449 10.0469 154.1387 9.6016 Q153.7324 9.1562 153.0762 9.1562 Q152.3105 9.1562 151.8652 9.5859 Q151.4199 10.0156 151.3418 10.7812 L154.5449 10.7812 ZM160.4004 8.6875 L160.4004 9.5469 Q160.0254 9.3438 159.6191 9.25 Q159.2129 9.1562 158.7598 9.1562 Q158.1035 9.1562 157.7676 9.3594 Q157.4316 9.5625 157.4316 9.9688 Q157.4316 10.2812 157.666 10.4609 Q157.9004 10.6406 158.6348 10.7969 L158.9316 10.875 Q159.9004 11.0781 160.2988 11.4531 Q160.6973 11.8281 160.6973 12.4844 Q160.6973 13.25 160.0957 13.6953 Q159.4941 14.1406 158.4473 14.1406 Q157.9941 14.1406 157.5176 14.0547 Q157.041 13.9688 156.5254 13.7969 L156.5254 12.875 Q157.0254 13.125 157.502 13.2578 Q157.9785 13.3906 158.4629 13.3906 Q159.0879 13.3906 159.4316 13.1719 Q159.7754 12.9531 159.7754 12.5625 Q159.7754 12.1875 159.5332 11.9922 Q159.291 11.7969 158.4473 11.625 L158.1348 11.5469 Q157.3066 11.375 156.9316 11.0078 Q156.5566 10.6406 156.5566 10.0156 Q156.5566 9.2344 157.1035 8.8203 Q157.6504 8.4062 158.666 8.4062 Q159.1504 8.4062 159.5957 8.4766 Q160.041 8.5469 160.4004 8.6875 ZM165.3047 8.5312 L166.2109 8.5312 L166.2109 14 L165.3047 14 L165.3047 8.5312 ZM165.3047 6.4062 L166.2109 6.4062 L166.2109 7.5469 L165.3047 7.5469 L165.3047 6.4062 ZM172.6299 10.7031 L172.6299 14 L171.7393 14 L171.7393 10.7344 Q171.7393 9.9531 171.4346 9.5703 Q171.1299 9.1875 170.5205 9.1875 Q169.8018 9.1875 169.3799 9.6484 Q168.958 10.1094 168.958 10.9062 L168.958 14 L168.0518 14 L168.0518 8.5312 L168.958 8.5312 L168.958 9.375 Q169.2861 8.8906 169.7236 8.6484 Q170.1611 8.4062 170.7236 8.4062 Q171.6611 8.4062 172.1455 8.9844 Q172.6299 9.5625 172.6299 10.7031 ZM179.7246 9.1562 Q179.0059 9.1562 178.584 9.7188 Q178.1621 10.2812 178.1621 11.2656 Q178.1621 12.25 178.5762 12.8125 Q178.9902 13.375 179.7246 13.375 Q180.4434 13.375 180.8652 12.8125 Q181.2871 12.25 181.2871 11.2656 Q181.2871 10.2969 180.8652 9.7266 Q180.4434 9.1562 179.7246 9.1562 ZM179.7246 8.4062 Q180.8965 8.4062 181.5684 9.1641 Q182.2402 9.9219 182.2402 11.2656 Q182.2402 12.6094 181.5684 13.375 Q180.8965 14.1406 179.7246 14.1406 Q178.5527 14.1406 177.8809 13.375 Q177.209 12.6094 177.209 11.2656 Q177.209 9.9219 177.8809 9.1641 Q178.5527 8.4062 179.7246 8.4062 ZM187.6553 11.2656 Q187.6553 10.2812 187.2412 9.7188 Q186.8271 9.1562 186.124 9.1562 Q185.4053 9.1562 184.999 9.7188 Q184.5928 10.2812 184.5928 11.2656 Q184.5928 12.2656 184.999 12.8281 Q185.4053 13.3906 186.124 13.3906 Q186.8271 13.3906 187.2412 12.8281 Q187.6553 12.2656 187.6553 11.2656 ZM184.5928 9.3594 Q184.874 8.875 185.3037 8.6406 Q185.7334 8.4062 186.3428 8.4062 Q187.3428 8.4062 187.96 9.1953 Q188.5771 9.9844 188.5771 11.2656 Q188.5771 12.5625 187.96 13.3516 Q187.3428 14.1406 186.3428 14.1406 Q185.7334 14.1406 185.3037 13.9062 Q184.874 13.6719 184.5928 13.1719 L184.5928 14 L183.6865 14 L183.6865 6.4062 L184.5928 6.4062 L184.5928 9.3594 ZM194.7529 11.0469 L194.7529 11.4844 L190.6123 11.4844 Q190.6748 12.4062 191.1748 12.8906 Q191.6748 13.375 192.5654 13.375 Q193.0811 13.375 193.5732 13.25 Q194.0654 13.125 194.5342 12.875 L194.5342 13.7188 Q194.0498 13.9219 193.542 14.0312 Q193.0342 14.1406 192.5186 14.1406 Q191.2061 14.1406 190.4404 13.3828 Q189.6748 12.625 189.6748 11.3125 Q189.6748 9.9688 190.4014 9.1875 Q191.1279 8.4062 192.3623 8.4062 Q193.4717 8.4062 194.1123 9.1094 Q194.7529 9.8125 194.7529 11.0469 ZM193.8467 10.7812 Q193.8467 10.0469 193.4404 9.6016 Q193.0342 9.1562 192.3779 9.1562 Q191.6123 9.1562 191.167 9.5859 Q190.7217 10.0156 190.6436 10.7812 L193.8467 10.7812 ZM199.7021 8.6875 L199.7021 9.5469 Q199.3271 9.3438 198.9209 9.25 Q198.5146 9.1562 198.0615 9.1562 Q197.4053 9.1562 197.0693 9.3594 Q196.7334 9.5625 196.7334 9.9688 Q196.7334 10.2812 196.9678 10.4609 Q197.2021 10.6406 197.9365 10.7969 L198.2334 10.875 Q199.2021 11.0781 199.6006 11.4531 Q199.999 11.8281 199.999 12.4844 Q199.999 13.25 199.3975 13.6953 Q198.7959 14.1406 197.749 14.1406 Q197.2959 14.1406 196.8193 14.0547 Q196.3428 13.9688 195.8271 13.7969 L195.8271 12.875 Q196.3271 13.125 196.8037 13.2578 Q197.2803 13.3906 197.7646 13.3906 Q198.3896 13.3906 198.7334 13.1719 Q199.0771 12.9531 199.0771 12.5625 Q199.0771 12.1875 198.835 11.9922 Q198.5928 11.7969 197.749 11.625 L197.4365 11.5469 Q196.6084 11.375 196.2334 11.0078 Q195.8584 10.6406 195.8584 10.0156 Q195.8584 9.2344 196.4053 8.8203 Q196.9521 8.4062 197.9678 8.4062 Q198.4521 8.4062 198.8975 8.4766 Q199.3428 8.5469 199.7021 8.6875 ZM201.4277 8.5312 L202.334 8.5312 L202.334 14 L201.4277 14 L201.4277 8.5312 ZM201.4277 6.4062 L202.334 6.4062 L202.334 7.5469 L201.4277 7.5469 L201.4277 6.4062 ZM205.0967 6.9844 L205.0967 8.5312 L206.9561 8.5312 L206.9561 9.2344 L205.0967 9.2344 L205.0967 12.2031 Q205.0967 12.8594 205.2842 13.0547 Q205.4717 13.25 206.0342 13.25 L206.9561 13.25 L206.9561 14 L206.0342 14 Q204.9873 14 204.5889 13.6094 Q204.1904 13.2188 204.1904 12.2031 L204.1904 9.2344 L203.5342 9.2344 L203.5342 8.5312 L204.1904 8.5312 L204.1904 6.9844 L205.0967 6.9844 ZM210.4082 14.5156 Q210.0332 15.4844 209.666 15.7812 Q209.2988 16.0781 208.7051 16.0781 L207.9863 16.0781 L207.9863 15.3281 L208.502 15.3281 Q208.877 15.3281 209.0801 15.1562 Q209.2832 14.9844 209.5332 14.3281 L209.7051 13.9062 L207.4863 8.5312 L208.4395 8.5312 L210.1426 12.8125 L211.8613 8.5312 L212.8145 8.5312 L210.4082 14.5156 Z"
         style="clip-path:url(#clipPath3); stroke:none;"
         clip-path="url(#clipPath3)"
         id="path223" />
      <path
         d="M4.25 21.9375 Q3.3906 21.9375 2.9141 22.5703 Q2.4375 23.2031 2.4375 24.3594 Q2.4375 25.5156 2.9141 26.1484 Q3.3906 26.7812 4.25 26.7812 Q5.1094 26.7812 5.5859 26.1484 Q6.0625 25.5156 6.0625 24.3594 Q6.0625 23.2031 5.5859 22.5703 Q5.1094 21.9375 4.25 21.9375 ZM4.25 20.5781 Q6 20.5781 7 21.5859 Q8 22.5938 8 24.3594 Q8 26.125 7 27.1328 Q6 28.1406 4.25 28.1406 Q2.5 28.1406 1.5 27.1328 Q0.5 26.125 0.5 24.3594 Q0.5 22.5938 1.5 21.5859 Q2.5 20.5781 4.25 20.5781 ZM13.4072 24.0156 Q13.1729 23.9062 12.9463 23.8594 Q12.7197 23.8125 12.4854 23.8125 Q11.8135 23.8125 11.4541 24.2422 Q11.0947 24.6719 11.0947 25.4844 L11.0947 28 L9.3447 28 L9.3447 22.5312 L11.0947 22.5312 L11.0947 23.4219 Q11.4229 22.8906 11.8604 22.6484 Q12.2979 22.4062 12.9072 22.4062 Q13.001 22.4062 13.1025 22.4062 Q13.2041 22.4062 13.3916 22.4375 L13.4072 24.0156 ZM17.9951 27.0781 Q17.6357 27.5469 17.1982 27.7734 Q16.7607 28 16.1982 28 Q15.1982 28 14.542 27.2109 Q13.8857 26.4219 13.8857 25.2031 Q13.8857 23.9688 14.542 23.1875 Q15.1982 22.4062 16.1982 22.4062 Q16.7607 22.4062 17.1982 22.6328 Q17.6357 22.8594 17.9951 23.3438 L17.9951 22.5312 L19.7451 22.5312 L19.7451 27.4531 Q19.7451 28.7656 18.917 29.4609 Q18.0889 30.1562 16.5107 30.1562 Q15.9951 30.1562 15.5186 30.0781 Q15.042 30 14.5576 29.8438 L14.5576 28.4844 Q15.0107 28.75 15.4482 28.875 Q15.8857 29 16.3389 29 Q17.1982 29 17.5967 28.625 Q17.9951 28.25 17.9951 27.4531 L17.9951 27.0781 ZM16.8389 23.6719 Q16.292 23.6719 15.9951 24.0703 Q15.6982 24.4688 15.6982 25.2031 Q15.6982 25.9531 15.9873 26.3438 Q16.2764 26.7344 16.8389 26.7344 Q17.3857 26.7344 17.6904 26.3281 Q17.9951 25.9219 17.9951 25.2031 Q17.9951 24.4688 17.6904 24.0703 Q17.3857 23.6719 16.8389 23.6719 ZM23.8877 25.5312 Q23.3408 25.5312 23.0596 25.7188 Q22.7783 25.9062 22.7783 26.2656 Q22.7783 26.6094 23.0049 26.7969 Q23.2314 26.9844 23.6221 26.9844 Q24.1221 26.9844 24.458 26.625 Q24.7939 26.2656 24.7939 25.7344 L24.7939 25.5312 L23.8877 25.5312 ZM26.5596 24.875 L26.5596 28 L24.7939 28 L24.7939 27.1875 Q24.4346 27.6875 23.9971 27.9141 Q23.5596 28.1406 22.9346 28.1406 Q22.0752 28.1406 21.5518 27.6484 Q21.0283 27.1562 21.0283 26.3594 Q21.0283 25.3906 21.6846 24.9453 Q22.3408 24.5 23.7627 24.5 L24.7939 24.5 L24.7939 24.3594 Q24.7939 23.9531 24.4658 23.7578 Q24.1377 23.5625 23.4502 23.5625 Q22.8877 23.5625 22.4033 23.6719 Q21.9189 23.7812 21.4971 24.0156 L21.4971 22.6719 Q22.0596 22.5469 22.6299 22.4766 Q23.2002 22.4062 23.7627 22.4062 Q25.2471 22.4062 25.9033 22.9844 Q26.5596 23.5625 26.5596 24.875 ZM33.6826 24.6719 L33.6826 28 L31.917 28 L31.917 27.4531 L31.917 25.4531 Q31.917 24.75 31.8857 24.4766 Q31.8545 24.2031 31.7764 24.0781 Q31.6826 23.9062 31.5029 23.8125 Q31.3232 23.7188 31.1045 23.7188 Q30.5576 23.7188 30.2451 24.1406 Q29.9326 24.5625 29.9326 25.3125 L29.9326 28 L28.1826 28 L28.1826 22.5312 L29.9326 22.5312 L29.9326 23.3281 Q30.3232 22.8594 30.7686 22.6328 Q31.2139 22.4062 31.7451 22.4062 Q32.6982 22.4062 33.1904 22.9844 Q33.6826 23.5625 33.6826 24.6719 ZM35.3018 22.5312 L37.0518 22.5312 L37.0518 28 L35.3018 28 L35.3018 22.5312 ZM35.3018 20.4062 L37.0518 20.4062 L37.0518 21.8281 L35.3018 21.8281 L35.3018 20.4062 ZM42.9951 22.7031 L42.9951 24.0312 Q42.4326 23.7969 41.9092 23.6797 Q41.3857 23.5625 40.9326 23.5625 Q40.4326 23.5625 40.1904 23.6875 Q39.9482 23.8125 39.9482 24.0625 Q39.9482 24.2812 40.1279 24.3906 Q40.3076 24.5 40.792 24.5625 L41.0889 24.5938 Q42.4326 24.7656 42.9014 25.1562 Q43.3701 25.5469 43.3701 26.3906 Q43.3701 27.2656 42.7217 27.7031 Q42.0732 28.1406 40.792 28.1406 Q40.2607 28.1406 39.6826 28.0547 Q39.1045 27.9688 38.4795 27.7969 L38.4795 26.4688 Q39.0107 26.7188 39.5576 26.8516 Q40.1045 26.9844 40.667 26.9844 Q41.1826 26.9844 41.4404 26.8438 Q41.6982 26.7031 41.6982 26.4219 Q41.6982 26.1875 41.5264 26.0703 Q41.3545 25.9531 40.8232 25.8906 L40.5107 25.8438 Q39.3389 25.7031 38.8701 25.3047 Q38.4014 24.9062 38.4014 24.1094 Q38.4014 23.2344 38.9951 22.8203 Q39.5889 22.4062 40.8232 22.4062 Q41.3076 22.4062 41.8389 22.4766 Q42.3701 22.5469 42.9951 22.7031 ZM49.7441 23.4375 Q50.0723 22.9375 50.5332 22.6719 Q50.9941 22.4062 51.541 22.4062 Q52.4785 22.4062 52.9707 22.9844 Q53.4629 23.5625 53.4629 24.6719 L53.4629 28 L51.7129 28 L51.7129 25.1406 Q51.7129 25.0781 51.7129 25.0156 Q51.7129 24.9531 51.7129 24.8281 Q51.7129 24.2344 51.5488 23.9766 Q51.3848 23.7188 50.9941 23.7188 Q50.4941 23.7188 50.2285 24.125 Q49.9629 24.5312 49.9473 25.3125 L49.9473 28 L48.1816 28 L48.1816 25.1406 Q48.1816 24.2344 48.0254 23.9766 Q47.8691 23.7188 47.4785 23.7188 Q46.9785 23.7188 46.7051 24.1328 Q46.4316 24.5469 46.4316 25.3125 L46.4316 28 L44.666 28 L44.666 22.5312 L46.4316 22.5312 L46.4316 23.3281 Q46.7441 22.875 47.166 22.6406 Q47.5879 22.4062 48.0879 22.4062 Q48.6504 22.4062 49.0879 22.6797 Q49.5254 22.9531 49.7441 23.4375 ZM55.3828 22.5312 L57.1328 22.5312 L57.1328 24.4219 L55.3828 24.4219 L55.3828 22.5312 ZM55.3828 26.1094 L57.1328 26.1094 L57.1328 28 L55.3828 28 L55.3828 26.1094 Z"
         style="clip-path:url(#clipPath3); stroke:none;"
         clip-path="url(#clipPath3)"
         id="path225" />
      <path
         d="M66.9844 20.7031 L67.9688 20.7031 L67.9688 23.7031 L71.5469 23.7031 L71.5469 20.7031 L72.5312 20.7031 L72.5312 28 L71.5469 28 L71.5469 24.5312 L67.9688 24.5312 L67.9688 28 L66.9844 28 L66.9844 20.7031 ZM76.582 23.1562 Q75.8633 23.1562 75.4414 23.7188 Q75.0195 24.2812 75.0195 25.2656 Q75.0195 26.25 75.4336 26.8125 Q75.8477 27.375 76.582 27.375 Q77.3008 27.375 77.7227 26.8125 Q78.1445 26.25 78.1445 25.2656 Q78.1445 24.2969 77.7227 23.7266 Q77.3008 23.1562 76.582 23.1562 ZM76.582 22.4062 Q77.7539 22.4062 78.4258 23.1641 Q79.0977 23.9219 79.0977 25.2656 Q79.0977 26.6094 78.4258 27.375 Q77.7539 28.1406 76.582 28.1406 Q75.4102 28.1406 74.7383 27.375 Q74.0664 26.6094 74.0664 25.2656 Q74.0664 23.9219 74.7383 23.1641 Q75.4102 22.4062 76.582 22.4062 ZM84.8408 23.5781 Q85.1689 22.9688 85.6377 22.6875 Q86.1064 22.4062 86.7471 22.4062 Q87.6064 22.4062 88.0674 23 Q88.5283 23.5938 88.5283 24.7031 L88.5283 28 L87.6221 28 L87.6221 24.7344 Q87.6221 23.9375 87.3486 23.5625 Q87.0752 23.1875 86.4971 23.1875 Q85.7939 23.1875 85.3955 23.6484 Q84.9971 24.1094 84.9971 24.9062 L84.9971 28 L84.0908 28 L84.0908 24.7344 Q84.0908 23.9375 83.8096 23.5625 Q83.5283 23.1875 82.9502 23.1875 Q82.2627 23.1875 81.8564 23.6484 Q81.4502 24.1094 81.4502 24.9062 L81.4502 28 L80.5439 28 L80.5439 22.5312 L81.4502 22.5312 L81.4502 23.375 Q81.7627 22.875 82.1924 22.6406 Q82.6221 22.4062 83.2002 22.4062 Q83.8096 22.4062 84.2236 22.7031 Q84.6377 23 84.8408 23.5781 ZM92.4414 23.1562 Q91.7227 23.1562 91.3008 23.7188 Q90.8789 24.2812 90.8789 25.2656 Q90.8789 26.25 91.293 26.8125 Q91.707 27.375 92.4414 27.375 Q93.1602 27.375 93.582 26.8125 Q94.0039 26.25 94.0039 25.2656 Q94.0039 24.2969 93.582 23.7266 Q93.1602 23.1562 92.4414 23.1562 ZM92.4414 22.4062 Q93.6133 22.4062 94.2852 23.1641 Q94.957 23.9219 94.957 25.2656 Q94.957 26.6094 94.2852 27.375 Q93.6133 28.1406 92.4414 28.1406 Q91.2695 28.1406 90.5977 27.375 Q89.9258 26.6094 89.9258 25.2656 Q89.9258 23.9219 90.5977 23.1641 Q91.2695 22.4062 92.4414 22.4062 ZM103.0977 22.6875 L103.0977 23.5469 Q102.7227 23.3438 102.3164 23.25 Q101.9102 23.1562 101.457 23.1562 Q100.8008 23.1562 100.4648 23.3594 Q100.1289 23.5625 100.1289 23.9688 Q100.1289 24.2812 100.3633 24.4609 Q100.5977 24.6406 101.332 24.7969 L101.6289 24.875 Q102.5977 25.0781 102.9961 25.4531 Q103.3945 25.8281 103.3945 26.4844 Q103.3945 27.25 102.793 27.6953 Q102.1914 28.1406 101.1445 28.1406 Q100.6914 28.1406 100.2148 28.0547 Q99.7383 27.9688 99.2227 27.7969 L99.2227 26.875 Q99.7227 27.125 100.1992 27.2578 Q100.6758 27.3906 101.1602 27.3906 Q101.7852 27.3906 102.1289 27.1719 Q102.4727 26.9531 102.4727 26.5625 Q102.4727 26.1875 102.2305 25.9922 Q101.9883 25.7969 101.1445 25.625 L100.832 25.5469 Q100.0039 25.375 99.6289 25.0078 Q99.2539 24.6406 99.2539 24.0156 Q99.2539 23.2344 99.8008 22.8203 Q100.3477 22.4062 101.3633 22.4062 Q101.8477 22.4062 102.293 22.4766 Q102.7383 22.5469 103.0977 22.6875 ZM107.3076 25.25 Q106.2295 25.25 105.8076 25.5 Q105.3857 25.75 105.3857 26.3438 Q105.3857 26.8281 105.6982 27.1094 Q106.0107 27.3906 106.5576 27.3906 Q107.3076 27.3906 107.7607 26.8594 Q108.2139 26.3281 108.2139 25.4531 L108.2139 25.25 L107.3076 25.25 ZM109.1045 24.875 L109.1045 28 L108.2139 28 L108.2139 27.1719 Q107.9014 27.6719 107.4404 27.9062 Q106.9795 28.1406 106.3232 28.1406 Q105.4795 28.1406 104.9795 27.6719 Q104.4795 27.2031 104.4795 26.4062 Q104.4795 25.4844 105.1045 25.0156 Q105.7295 24.5469 106.9482 24.5469 L108.2139 24.5469 L108.2139 24.4531 Q108.2139 23.8438 107.7998 23.5 Q107.3857 23.1562 106.6514 23.1562 Q106.1826 23.1562 105.7373 23.2734 Q105.292 23.3906 104.8857 23.6094 L104.8857 22.7812 Q105.3857 22.5938 105.8467 22.5 Q106.3076 22.4062 106.7451 22.4062 Q107.9326 22.4062 108.5186 23.0156 Q109.1045 23.625 109.1045 24.875 ZM111.8262 27.1719 L111.8262 30.0781 L110.9199 30.0781 L110.9199 22.5312 L111.8262 22.5312 L111.8262 23.3594 Q112.1074 22.875 112.5371 22.6406 Q112.9668 22.4062 113.5762 22.4062 Q114.5762 22.4062 115.1934 23.1953 Q115.8105 23.9844 115.8105 25.2656 Q115.8105 26.5625 115.1934 27.3516 Q114.5762 28.1406 113.5762 28.1406 Q112.9668 28.1406 112.5371 27.9062 Q112.1074 27.6719 111.8262 27.1719 ZM114.8887 25.2656 Q114.8887 24.2812 114.4746 23.7188 Q114.0605 23.1562 113.3574 23.1562 Q112.6387 23.1562 112.2324 23.7188 Q111.8262 24.2812 111.8262 25.2656 Q111.8262 26.2656 112.2324 26.8281 Q112.6387 27.3906 113.3574 27.3906 Q114.0605 27.3906 114.4746 26.8281 Q114.8887 26.2656 114.8887 25.2656 ZM117.2988 22.5312 L118.2051 22.5312 L118.2051 28 L117.2988 28 L117.2988 22.5312 ZM117.2988 20.4062 L118.2051 20.4062 L118.2051 21.5469 L117.2988 21.5469 L117.2988 20.4062 ZM124.7646 25.0469 L124.7646 25.4844 L120.624 25.4844 Q120.6865 26.4062 121.1865 26.8906 Q121.6865 27.375 122.5771 27.375 Q123.0928 27.375 123.585 27.25 Q124.0771 27.125 124.5459 26.875 L124.5459 27.7188 Q124.0615 27.9219 123.5537 28.0312 Q123.0459 28.1406 122.5303 28.1406 Q121.2178 28.1406 120.4521 27.3828 Q119.6865 26.625 119.6865 25.3125 Q119.6865 23.9688 120.4131 23.1875 Q121.1396 22.4062 122.374 22.4062 Q123.4834 22.4062 124.124 23.1094 Q124.7646 23.8125 124.7646 25.0469 ZM123.8584 24.7812 Q123.8584 24.0469 123.4521 23.6016 Q123.0459 23.1562 122.3896 23.1562 Q121.624 23.1562 121.1787 23.5859 Q120.7334 24.0156 120.6553 24.7812 L123.8584 24.7812 ZM130.7764 24.7031 L130.7764 28 L129.8857 28 L129.8857 24.7344 Q129.8857 23.9531 129.5811 23.5703 Q129.2764 23.1875 128.667 23.1875 Q127.9482 23.1875 127.5264 23.6484 Q127.1045 24.1094 127.1045 24.9062 L127.1045 28 L126.1982 28 L126.1982 22.5312 L127.1045 22.5312 L127.1045 23.375 Q127.4326 22.8906 127.8701 22.6484 Q128.3076 22.4062 128.8701 22.4062 Q129.8076 22.4062 130.292 22.9844 Q130.7764 23.5625 130.7764 24.7031 ZM136.0518 22.6875 L136.0518 23.5469 Q135.6768 23.3438 135.2705 23.25 Q134.8643 23.1562 134.4111 23.1562 Q133.7549 23.1562 133.4189 23.3594 Q133.083 23.5625 133.083 23.9688 Q133.083 24.2812 133.3174 24.4609 Q133.5518 24.6406 134.2861 24.7969 L134.583 24.875 Q135.5518 25.0781 135.9502 25.4531 Q136.3486 25.8281 136.3486 26.4844 Q136.3486 27.25 135.7471 27.6953 Q135.1455 28.1406 134.0986 28.1406 Q133.6455 28.1406 133.1689 28.0547 Q132.6924 27.9688 132.1768 27.7969 L132.1768 26.875 Q132.6768 27.125 133.1533 27.2578 Q133.6299 27.3906 134.1143 27.3906 Q134.7393 27.3906 135.083 27.1719 Q135.4268 26.9531 135.4268 26.5625 Q135.4268 26.1875 135.1846 25.9922 Q134.9424 25.7969 134.0986 25.625 L133.7861 25.5469 Q132.958 25.375 132.583 25.0078 Q132.208 24.6406 132.208 24.0156 Q132.208 23.2344 132.7549 22.8203 Q133.3018 22.4062 134.3174 22.4062 Q134.8018 22.4062 135.2471 22.4766 Q135.6924 22.5469 136.0518 22.6875 Z"
         style="clip-path:url(#clipPath3); stroke:none;"
         clip-path="url(#clipPath3)"
         id="path227" />
    </g>
    <g
       style="fill:navy; text-rendering:geometricPrecision; font-size:8; stroke:navy;"
       id="g233">
      <text
         x="218"
         xml:space="preserve"
         y="16"
         style="clip-path:url(#clipPath5); stroke:none;"
         clip-path="url(#clipPath5)"
         id="text231">1</text>
    </g>
    <g
       style="fill:rgb(204,219,235); text-rendering:geometricPrecision; stroke-width:2; stroke:rgb(204,219,235);"
       id="g239">
      <path
         d="M480 258 C480 325.931 390.9047 381 281 381 C171.0953 381 82 325.931 82 258 C82 190.069 171.0953 135 281 135 C390.9047 135 480 190.069 480 258 Z"
         style="clip-path:url(#clipPath6); stroke:none;"
         clip-path="url(#clipPath6)"
         id="path235" />
      <path
         d="M480 258 C480 325.931 390.9047 381 281 381 C171.0953 381 82 325.931 82 258 C82 190.069 171.0953 135 281 135 C390.9047 135 480 190.069 480 258 Z"
         style="fill:none; clip-path:url(#clipPath6); stroke:rgb(0,102,204);"
         clip-path="url(#clipPath6)"
         id="path237" />
    </g>
    <g
       style="text-rendering:geometricPrecision;"
       id="g245">
      <path
         d="M235.25 301 L293.2558 325.1797"
         style="fill:none; clip-path:url(#clipPath7);"
         clip-path="url(#clipPath7)"
         id="path241" />
      <path
         d="M293.2558 325.1797 L284.4572 315.8783 L280.4557 325.4777 Z"
         style="clip-path:url(#clipPath7); fill-rule:evenodd; stroke:none;"
         clip-path="url(#clipPath7)"
         id="path243" />
    </g>
    <g
       style="text-rendering:geometricPrecision;"
       id="g251">
      <path
         d="M471.0299 547.408 L470.5299 573.408"
         style="fill:none; clip-path:url(#clipPath8);"
         clip-path="url(#clipPath8)"
         id="path247" />
      <path
         d="M470.5299 573.408 L475.9539 561.8101 L465.5559 561.6101 Z"
         style="clip-path:url(#clipPath8); fill-rule:evenodd; stroke:none;"
         clip-path="url(#clipPath8)"
         id="path249" />
    </g>
    <g
       style="text-rendering:geometricPrecision;"
       id="g257">
      <path
         d="M169.5 207 L120.5 235"
         style="fill:none; clip-path:url(#clipPath9);"
         clip-path="url(#clipPath9)"
         id="path253" />
      <path
         d="M120.5 235 L133.2384 233.71 L128.0785 224.6803 Z"
         style="clip-path:url(#clipPath9); fill-rule:evenodd; stroke:none;"
         clip-path="url(#clipPath9)"
         id="path255" />
    </g>
    <g
       style="text-rendering:geometricPrecision;"
       id="g263">
      <path
         d="M169.5 207 L148 273"
         style="fill:none; clip-path:url(#clipPath10);"
         clip-path="url(#clipPath10)"
         id="path259" />
      <path
         d="M148 273 L156.5682 263.486 L146.6797 260.2647 Z"
         style="clip-path:url(#clipPath10); fill-rule:evenodd; stroke:none;"
         clip-path="url(#clipPath10)"
         id="path261" />
    </g>
    <g
       style="text-rendering:geometricPrecision;"
       id="g269">
      <path
         d="M470.5299 593.408 L569.8069 655.641"
         style="fill:none; clip-path:url(#clipPath11);"
         clip-path="url(#clipPath11)"
         id="path265" />
      <path
         d="M569.8069 655.641 L562.6555 645.0209 L557.1318 653.8326 Z"
         style="clip-path:url(#clipPath11); fill-rule:evenodd; stroke:none;"
         clip-path="url(#clipPath11)"
         id="path267" />
    </g>
    <g
       style="text-rendering:geometricPrecision;"
       id="g275">
      <path
         d="M169.5 207 L205 233.5"
         style="fill:none; clip-path:url(#clipPath12);"
         clip-path="url(#clipPath12)"
         id="path271" />
      <path
         d="M205 233.5 L198.7348 222.3341 L192.5136 230.6682 Z"
         style="clip-path:url(#clipPath12); fill-rule:evenodd; stroke:none;"
         clip-path="url(#clipPath12)"
         id="path273" />
    </g>
    <g
       style="text-rendering:geometricPrecision;"
       id="g281">
      <path
         d="M594.4149 632.2443 L718.8633 627.8567"
         style="fill:none; clip-path:url(#clipPath13);"
         clip-path="url(#clipPath13)"
         id="path277" />
      <path
         d="M718.8633 627.8567 L706.9873 623.0721 L707.3538 633.4657 Z"
         style="clip-path:url(#clipPath13); fill-rule:evenodd; stroke:none;"
         clip-path="url(#clipPath13)"
         id="path279" />
    </g>
    <g
       style="text-rendering:geometricPrecision;"
       id="g287">
      <path
         d="M169.5 161 L169.5 187"
         style="fill:none; clip-path:url(#clipPath14);"
         clip-path="url(#clipPath14)"
         id="path283" />
      <path
         d="M169.5 187 L174.7 175.3 L164.3 175.3 Z"
         style="clip-path:url(#clipPath14); fill-rule:evenodd; stroke:none;"
         clip-path="url(#clipPath14)"
         id="path285" />
    </g>
    <g
       style="text-rendering:geometricPrecision;"
       id="g293">
      <path
         d="M169.5 207 L190 270"
         style="fill:none; clip-path:url(#clipPath15);"
         clip-path="url(#clipPath15)"
         id="path289" />
      <path
         d="M190 270 L191.3245 257.2652 L181.4349 260.4832 Z"
         style="clip-path:url(#clipPath15); fill-rule:evenodd; stroke:none;"
         clip-path="url(#clipPath15)"
         id="path291" />
    </g>
    <g
       style="stroke-dasharray:4,4; text-rendering:geometricPrecision;"
       id="g299">
      <path
         d="M169.5 90 L169.5 141"
         style="fill:none; clip-path:url(#clipPath16);"
         clip-path="url(#clipPath16)"
         id="path295" />
      <path
         d="M169.5 141 L174.7 129.3 L164.3 129.3 Z"
         style="stroke-dasharray:none; clip-path:url(#clipPath16); fill-rule:evenodd; stroke:none;"
         clip-path="url(#clipPath16)"
         id="path297" />
    </g>
    <g
       style="fill:rgb(204,204,204); text-rendering:geometricPrecision; stroke-width:2; stroke:rgb(204,204,204);"
       id="g305">
      <path
         d="M910.3633 644.408 C910.3633 675.8882 884.8435 701.408 853.3633 701.408 C821.8831 701.408 796.3633 675.8882 796.3633 644.408 C796.3633 612.9277 821.8831 587.408 853.3633 587.408 C884.8435 587.408 910.3633 612.9277 910.3633 644.408 Z"
         style="clip-path:url(#clipPath17); stroke:none;"
         clip-path="url(#clipPath17)"
         id="path301" />
      <path
         d="M910.3633 644.408 C910.3633 675.8882 884.8435 701.408 853.3633 701.408 C821.8831 701.408 796.3633 675.8882 796.3633 644.408 C796.3633 612.9277 821.8831 587.408 853.3633 587.408 C884.8435 587.408 910.3633 612.9277 910.3633 644.408 Z"
         style="fill:none; clip-path:url(#clipPath17); stroke:black;"
         clip-path="url(#clipPath17)"
         id="path303" />
    </g>
    <g
       style="fill:rgb(90,146,240); text-rendering:geometricPrecision; stroke-width:3; stroke:rgb(90,146,240);"
       id="g311">
      <path
         d="M391.2558 335.1797 C391.2558 346.2254 369.3177 355.1797 342.2558 355.1797 C315.1938 355.1797 293.2558 346.2254 293.2558 335.1797 C293.2558 324.134 315.1938 315.1797 342.2558 315.1797 C369.3177 315.1797 391.2558 324.134 391.2558 335.1797 Z"
         style="clip-path:url(#clipPath18); stroke:none;"
         clip-path="url(#clipPath18)"
         id="path307" />
      <path
         d="M391.2558 335.1797 C391.2558 346.2254 369.3177 355.1797 342.2558 355.1797 C315.1938 355.1797 293.2558 346.2254 293.2558 335.1797 C293.2558 324.134 315.1938 315.1797 342.2558 315.1797 C369.3177 315.1797 391.2558 324.134 391.2558 335.1797 Z"
         style="fill:none; clip-path:url(#clipPath18);"
         clip-path="url(#clipPath18)"
         id="path309" />
    </g>
    <g
       style="font-weight:bold; text-rendering:geometricPrecision;"
       id="g315">
      <text
         x="288"
         xml:space="preserve"
         y="295"
         style="clip-path:url(#clipPath19); stroke:none;"
         clip-path="url(#clipPath19)"
         id="text313">Increased adhesion</text>
    </g>
    <g
       style="font-weight:bold; text-rendering:geometricPrecision;"
       id="g319">
      <text
         x="286"
         xml:space="preserve"
         y="339"
         style="clip-path:url(#clipPath20); stroke:none;"
         clip-path="url(#clipPath20)"
         id="text317">Increased ploidy</text>
    </g>
    <g
       style="font-size:10; text-rendering:geometricPrecision;"
       id="g325">
      <text
         x="178"
         xml:space="preserve"
         y="540"
         style="clip-path:url(#clipPath21); stroke:none;"
         clip-path="url(#clipPath21)"
         id="text321">Transcripts increased in mouse data</text>
      <text
         x="222"
         xml:space="preserve"
         y="551"
         style="clip-path:url(#clipPath21); stroke:none;"
         clip-path="url(#clipPath21)"
         id="text323">(Human homologs)</text>
    </g>
    <g
       style="font-weight:bold; text-rendering:geometricPrecision;"
       id="g331">
      <text
         x="329"
         xml:space="preserve"
         y="467"
         style="clip-path:url(#clipPath22); stroke:none;"
         clip-path="url(#clipPath22)"
         id="text327">Platelets with increased inflammatory</text>
      <text
         x="367"
         xml:space="preserve"
         y="480"
         style="clip-path:url(#clipPath22); stroke:none;"
         clip-path="url(#clipPath22)"
         id="text329">and thrombotic transcripts</text>
    </g>
    <g
       style="font-weight:bold; text-rendering:geometricPrecision;"
       id="g335">
      <text
         x="125"
         xml:space="preserve"
         y="84"
         style="clip-path:url(#clipPath23); stroke:none;"
         clip-path="url(#clipPath23)"
         id="text333">High Fat Diet</text>
    </g>
    <g
       style="font-size:10; text-rendering:geometricPrecision;"
       id="g341">
      <text
         x="51"
         xml:space="preserve"
         y="540"
         style="clip-path:url(#clipPath24); stroke:none;"
         clip-path="url(#clipPath24)"
         id="text337">Transcripts increased in</text>
      <text
         x="47"
         xml:space="preserve"
         y="551"
         style="clip-path:url(#clipPath24); stroke:none;"
         clip-path="url(#clipPath24)"
         id="text339">Framingham Heart Study</text>
    </g>
    <g
       style="fill:white; text-rendering:geometricPrecision; stroke:white;"
       id="g351">
      <path
         d="M205 229 L205 238 C205 243.5228 209.4772 248 215 248 L268 248 C273.5229 248 278 243.5228 278 238 L278 229 C278 223.4772 273.5229 219 268 219 L215 219 C209.4772 219 205 223.4772 205 229 Z"
         style="clip-path:url(#clipPath25); stroke:none;"
         clip-path="url(#clipPath25)"
         id="path343" />
      <path
         d="M205 229 L205 238 C205 243.5228 209.4772 248 215 248 L268 248 C273.5229 248 278 243.5228 278 238 L278 229 C278 223.4772 273.5229 219 268 219 L215 219 C209.4772 219 205 223.4772 205 229 Z"
         style="fill:none; clip-path:url(#clipPath25); stroke:rgb(20,150,30);"
         clip-path="url(#clipPath25)"
         id="path345" />
      <text
         x="205"
         y="231"
         style="clip-path:url(#clipPath25); fill:rgb(20,150,30); stroke:none; font-weight:bold;"
         xml:space="preserve"
         clip-path="url(#clipPath25)"
         id="text347">p38/MAPK </text>
      <text
         x="213"
         y="244"
         style="clip-path:url(#clipPath25); fill:rgb(20,150,30); stroke:none; font-weight:bold;"
         xml:space="preserve"
         clip-path="url(#clipPath25)"
         id="text349">pathway</text>
    </g>
    <g
       style="fill:white; text-rendering:geometricPrecision; stroke:white;"
       id="g359">
      <path
         d="M380.5299 617.408 L437.5299 617.408 L437.5299 637.408 L380.5299 637.408 L380.5299 617.408 Z"
         style="clip-path:url(#clipPath26); stroke:none;"
         clip-path="url(#clipPath26)"
         id="path353" />
      <path
         d="M380.5299 617.408 L437.5299 617.408 L437.5299 637.408 L380.5299 637.408 L380.5299 617.408 Z"
         style="fill:none; clip-path:url(#clipPath26); stroke:black;"
         clip-path="url(#clipPath26)"
         id="path355" />
      <text
         x="395"
         y="631"
         style="font-size:10; clip-path:url(#clipPath26); fill:black; stroke:none;"
         xml:space="preserve"
         clip-path="url(#clipPath26)"
         id="text357">IL1R1</text>
    </g>
    <g
       style="fill:white; text-rendering:geometricPrecision; stroke:white;"
       id="g367">
      <path
         d="M444.5299 573.408 L496.5299 573.408 L496.5299 593.408 L444.5299 593.408 L444.5299 573.408 Z"
         style="clip-path:url(#clipPath27); stroke:none;"
         clip-path="url(#clipPath27)"
         id="path361" />
      <path
         d="M444.5299 573.408 L496.5299 573.408 L496.5299 593.408 L444.5299 593.408 L444.5299 573.408 Z"
         style="fill:none; clip-path:url(#clipPath27); stroke:black;"
         clip-path="url(#clipPath27)"
         id="path363" />
      <text
         x="457"
         y="587"
         style="font-size:10; clip-path:url(#clipPath27); fill:black; stroke:none;"
         xml:space="preserve"
         clip-path="url(#clipPath27)"
         id="text365">PAR1</text>
    </g>
    <g
       style="fill:white; text-rendering:geometricPrecision; stroke:white;"
       id="g375">
      <path
         d="M206.2817 650.5031 L269.2817 650.5031 L269.2817 670.5031 L206.2817 670.5031 L206.2817 650.5031 Z"
         style="clip-path:url(#clipPath28); stroke:none;"
         clip-path="url(#clipPath28)"
         id="path369" />
      <path
         d="M206.2817 650.5031 L269.2817 650.5031 L269.2817 670.5031 L206.2817 670.5031 L206.2817 650.5031 Z"
         style="fill:none; clip-path:url(#clipPath28); stroke:black;"
         clip-path="url(#clipPath28)"
         id="path371" />
      <text
         x="223"
         y="664"
         style="font-size:10; clip-path:url(#clipPath28); fill:black; stroke:none;"
         xml:space="preserve"
         clip-path="url(#clipPath28)"
         id="text373">ICAM1</text>
    </g>
    <g
       style="fill:white; text-rendering:geometricPrecision; stroke:white;"
       id="g383">
      <path
         d="M143 141 L196 141 L196 161 L143 161 L143 141 Z"
         style="clip-path:url(#clipPath29); stroke:none;"
         clip-path="url(#clipPath29)"
         id="path377" />
      <path
         d="M143 141 L196 141 L196 161 L143 161 L143 141 Z"
         style="fill:none; clip-path:url(#clipPath29); stroke:black;"
         clip-path="url(#clipPath29)"
         id="path379" />
      <text
         x="159"
         y="154"
         style="font-size:10; clip-path:url(#clipPath29); fill:black; stroke:none;"
         xml:space="preserve"
         clip-path="url(#clipPath29)"
         id="text381">IL1B</text>
    </g>
    <g
       style="fill:white; text-rendering:geometricPrecision; stroke:white;"
       id="g391">
      <path
         d="M270.0766 670.5031 L333.0766 670.5031 L333.0766 690.5031 L270.0766 690.5031 L270.0766 670.5031 Z"
         style="clip-path:url(#clipPath30); stroke:none;"
         clip-path="url(#clipPath30)"
         id="path385" />
      <path
         d="M270.0766 670.5031 L333.0766 670.5031 L333.0766 690.5031 L270.0766 690.5031 L270.0766 670.5031 Z"
         style="fill:none; clip-path:url(#clipPath30); stroke:black;"
         clip-path="url(#clipPath30)"
         id="path387" />
      <text
         x="287"
         y="684"
         style="font-size:10; clip-path:url(#clipPath30); fill:black; stroke:none;"
         xml:space="preserve"
         clip-path="url(#clipPath30)"
         id="text389">TIMP2</text>
    </g>
    <g
       style="fill:white; text-rendering:geometricPrecision; stroke:white;"
       id="g399">
      <path
         d="M270.0766 630.5031 L333.0766 630.5031 L333.0766 650.5031 L270.0766 650.5031 L270.0766 630.5031 Z"
         style="clip-path:url(#clipPath31); stroke:none;"
         clip-path="url(#clipPath31)"
         id="path393" />
      <path
         d="M270.0766 630.5031 L333.0766 630.5031 L333.0766 650.5031 L270.0766 650.5031 L270.0766 630.5031 Z"
         style="fill:none; clip-path:url(#clipPath31); stroke:black;"
         clip-path="url(#clipPath31)"
         id="path395" />
      <text
         x="277"
         y="644"
         style="font-size:10; clip-path:url(#clipPath31); fill:black; stroke:none;"
         xml:space="preserve"
         clip-path="url(#clipPath31)"
         id="text397">SELENBP1</text>
    </g>
    <g
       style="fill:white; text-rendering:geometricPrecision; stroke:white;"
       id="g407">
      <path
         d="M79.4241 623.144 L142.4241 623.144 L142.4241 643.144 L79.4241 643.144 L79.4241 623.144 Z"
         style="clip-path:url(#clipPath32); stroke:none;"
         clip-path="url(#clipPath32)"
         id="path401" />
      <path
         d="M79.4241 623.144 L142.4241 623.144 L142.4241 643.144 L79.4241 643.144 L79.4241 623.144 Z"
         style="fill:none; clip-path:url(#clipPath32); stroke:black;"
         clip-path="url(#clipPath32)"
         id="path403" />
      <text
         x="97"
         y="637"
         style="font-size:10; clip-path:url(#clipPath32); fill:black; stroke:none;"
         xml:space="preserve"
         clip-path="url(#clipPath32)"
         id="text405">MMP9</text>
    </g>
    <g
       style="fill:white; text-rendering:geometricPrecision; stroke:white;"
       id="g415">
      <path
         d="M270.0766 590.5031 L333.0766 590.5031 L333.0766 610.5031 L270.0766 610.5031 L270.0766 590.5031 Z"
         style="clip-path:url(#clipPath33); stroke:none;"
         clip-path="url(#clipPath33)"
         id="path409" />
      <path
         d="M270.0766 590.5031 L333.0766 590.5031 L333.0766 610.5031 L270.0766 610.5031 L270.0766 590.5031 Z"
         style="fill:none; clip-path:url(#clipPath33); stroke:black;"
         clip-path="url(#clipPath33)"
         id="path411" />
      <text
         x="283"
         y="604"
         style="font-size:10; clip-path:url(#clipPath33); fill:black; stroke:none;"
         xml:space="preserve"
         clip-path="url(#clipPath33)"
         id="text413">PLA2G7</text>
    </g>
    <g
       style="fill:white; text-rendering:geometricPrecision; stroke:white;"
       id="g423">
      <path
         d="M79.4241 603.144 L142.4241 603.144 L142.4241 623.144 L79.4241 623.144 L79.4241 603.144 Z"
         style="clip-path:url(#clipPath34); stroke:none;"
         clip-path="url(#clipPath34)"
         id="path417" />
      <path
         d="M79.4241 603.144 L142.4241 603.144 L142.4241 623.144 L79.4241 623.144 L79.4241 603.144 Z"
         style="fill:none; clip-path:url(#clipPath34); stroke:black;"
         clip-path="url(#clipPath34)"
         id="path419" />
      <text
         x="97"
         y="617"
         style="font-size:10; clip-path:url(#clipPath34); fill:black; stroke:none;"
         xml:space="preserve"
         clip-path="url(#clipPath34)"
         id="text421">IRAK1</text>
    </g>
    <g
       style="fill:white; text-rendering:geometricPrecision; stroke:white;"
       id="g431">
      <path
         d="M270.0766 690.5031 L333.0766 690.5031 L333.0766 710.5031 L270.0766 710.5031 L270.0766 690.5031 Z"
         style="clip-path:url(#clipPath35); stroke:none;"
         clip-path="url(#clipPath35)"
         id="path425" />
      <path
         d="M270.0766 690.5031 L333.0766 690.5031 L333.0766 710.5031 L270.0766 710.5031 L270.0766 690.5031 Z"
         style="fill:none; clip-path:url(#clipPath35); stroke:black;"
         clip-path="url(#clipPath35)"
         id="path427" />
      <text
         x="290"
         y="704"
         style="font-size:10; clip-path:url(#clipPath35); fill:black; stroke:none;"
         xml:space="preserve"
         clip-path="url(#clipPath35)"
         id="text429">TLR1</text>
    </g>
    <g
       style="fill:white; text-rendering:geometricPrecision; stroke:white;"
       id="g439">
      <path
         d="M79.4241 583.144 L142.4241 583.144 L142.4241 603.144 L79.4241 603.144 L79.4241 583.144 Z"
         style="clip-path:url(#clipPath36); stroke:none;"
         clip-path="url(#clipPath36)"
         id="path433" />
      <path
         d="M79.4241 583.144 L142.4241 583.144 L142.4241 603.144 L79.4241 603.144 L79.4241 583.144 Z"
         style="fill:none; clip-path:url(#clipPath36); stroke:black;"
         clip-path="url(#clipPath36)"
         id="path435" />
      <text
         x="101"
         y="597"
         style="font-size:10; clip-path:url(#clipPath36); fill:black; stroke:none;"
         xml:space="preserve"
         clip-path="url(#clipPath36)"
         id="text437">IL18</text>
    </g>
    <g
       style="fill:white; text-rendering:geometricPrecision; stroke:white;"
       id="g447">
      <path
         d="M270.0766 570.5031 L333.0766 570.5031 L333.0766 590.5031 L270.0766 590.5031 L270.0766 570.5031 Z"
         style="clip-path:url(#clipPath37); stroke:none;"
         clip-path="url(#clipPath37)"
         id="path441" />
      <path
         d="M270.0766 570.5031 L333.0766 570.5031 L333.0766 590.5031 L270.0766 590.5031 L270.0766 570.5031 Z"
         style="fill:none; clip-path:url(#clipPath37); stroke:black;"
         clip-path="url(#clipPath37)"
         id="path443" />
      <text
         x="285"
         y="584"
         style="font-size:10; clip-path:url(#clipPath37); fill:black; stroke:none;"
         xml:space="preserve"
         clip-path="url(#clipPath37)"
         id="text445">MYD88</text>
    </g>
    <g
       style="fill:white; text-rendering:geometricPrecision; stroke:white;"
       id="g455">
      <path
         d="M270.0766 650.5031 L333.0766 650.5031 L333.0766 670.5031 L270.0766 670.5031 L270.0766 650.5031 Z"
         style="clip-path:url(#clipPath38); stroke:none;"
         clip-path="url(#clipPath38)"
         id="path449" />
      <path
         d="M270.0766 650.5031 L333.0766 650.5031 L333.0766 670.5031 L270.0766 670.5031 L270.0766 650.5031 Z"
         style="fill:none; clip-path:url(#clipPath38); stroke:black;"
         clip-path="url(#clipPath38)"
         id="path451" />
      <text
         x="287"
         y="664"
         style="font-size:10; clip-path:url(#clipPath38); fill:black; stroke:none;"
         xml:space="preserve"
         clip-path="url(#clipPath38)"
         id="text453">TIMP1</text>
    </g>
    <g
       style="fill:white; text-rendering:geometricPrecision; stroke:white;"
       id="g463">
      <path
         d="M206.2817 590.5031 L269.2817 590.5031 L269.2817 610.5031 L206.2817 610.5031 L206.2817 590.5031 Z"
         style="clip-path:url(#clipPath39); stroke:none;"
         clip-path="url(#clipPath39)"
         id="path457" />
      <path
         d="M206.2817 590.5031 L269.2817 590.5031 L269.2817 610.5031 L206.2817 610.5031 L206.2817 590.5031 Z"
         style="fill:none; clip-path:url(#clipPath39); stroke:black;"
         clip-path="url(#clipPath39)"
         id="path459" />
      <text
         x="225"
         y="604"
         style="font-size:10; clip-path:url(#clipPath39); fill:black; stroke:none;"
         xml:space="preserve"
         clip-path="url(#clipPath39)"
         id="text461">CCR3</text>
    </g>
    <g
       style="fill:white; text-rendering:geometricPrecision; stroke:white;"
       id="g471">
      <path
         d="M119 273 L177 273 L177 293 L119 293 L119 273 Z"
         style="clip-path:url(#clipPath40); stroke:none;"
         clip-path="url(#clipPath40)"
         id="path465" />
      <path
         d="M119 273 L177 273 L177 293 L119 293 L119 273 Z"
         style="fill:none; clip-path:url(#clipPath40); stroke:black;"
         clip-path="url(#clipPath40)"
         id="path467" />
      <text
         x="131"
         y="286"
         style="font-size:10; clip-path:url(#clipPath40); fill:black; stroke:none;"
         xml:space="preserve"
         clip-path="url(#clipPath40)"
         id="text469">PIK3CA</text>
    </g>
    <g
       style="fill:white; text-rendering:geometricPrecision; stroke:white;"
       id="g479">
      <path
         d="M79.4241 663.144 L142.4241 663.144 L142.4241 683.144 L79.4241 683.144 L79.4241 663.144 Z"
         style="clip-path:url(#clipPath41); stroke:none;"
         clip-path="url(#clipPath41)"
         id="path473" />
      <path
         d="M79.4241 663.144 L142.4241 663.144 L142.4241 683.144 L79.4241 683.144 L79.4241 663.144 Z"
         style="fill:none; clip-path:url(#clipPath41); stroke:black;"
         clip-path="url(#clipPath41)"
         id="path475" />
      <text
         x="95"
         y="677"
         style="font-size:10; clip-path:url(#clipPath41); fill:black; stroke:none;"
         xml:space="preserve"
         clip-path="url(#clipPath41)"
         id="text477">NLRP3</text>
    </g>
    <g
       style="fill:white; text-rendering:geometricPrecision; stroke:white;"
       id="g487">
      <path
         d="M206.2817 610.5031 L269.2817 610.5031 L269.2817 630.5031 L206.2817 630.5031 L206.2817 610.5031 Z"
         style="clip-path:url(#clipPath42); stroke:none;"
         clip-path="url(#clipPath42)"
         id="path481" />
      <path
         d="M206.2817 610.5031 L269.2817 610.5031 L269.2817 630.5031 L206.2817 630.5031 L206.2817 610.5031 Z"
         style="fill:none; clip-path:url(#clipPath42); stroke:black;"
         clip-path="url(#clipPath42)"
         id="path483" />
      <text
         x="219"
         y="624"
         style="font-size:10; clip-path:url(#clipPath42); fill:black; stroke:none;"
         xml:space="preserve"
         clip-path="url(#clipPath42)"
         id="text485">FCER1A</text>
    </g>
    <g
       style="fill:white; text-rendering:geometricPrecision; stroke:white;"
       id="g495">
      <path
         d="M79.4241 643.144 L142.4241 643.144 L142.4241 663.144 L79.4241 663.144 L79.4241 643.144 Z"
         style="clip-path:url(#clipPath43); stroke:none;"
         clip-path="url(#clipPath43)"
         id="path489" />
      <path
         d="M79.4241 643.144 L142.4241 643.144 L142.4241 663.144 L79.4241 663.144 L79.4241 643.144 Z"
         style="fill:none; clip-path:url(#clipPath43); stroke:black;"
         clip-path="url(#clipPath43)"
         id="path491" />
      <text
         x="94"
         y="657"
         style="font-size:10; clip-path:url(#clipPath43); fill:black; stroke:none;"
         xml:space="preserve"
         clip-path="url(#clipPath43)"
         id="text493">MYD88</text>
    </g>
    <g
       style="fill:white; text-rendering:geometricPrecision; stroke:white;"
       id="g503">
      <path
         d="M436.5299 527.408 L505.5299 527.408 L505.5299 547.408 L436.5299 547.408 L436.5299 527.408 Z"
         style="clip-path:url(#clipPath44); stroke:none;"
         clip-path="url(#clipPath44)"
         id="path497" />
      <path
         d="M436.5299 527.408 L505.5299 527.408 L505.5299 547.408 L436.5299 547.408 L436.5299 527.408 Z"
         style="fill:none; clip-path:url(#clipPath44); stroke:black;"
         clip-path="url(#clipPath44)"
         id="path499" />
      <text
         x="448"
         y="541"
         style="font-size:10; clip-path:url(#clipPath44); fill:black; stroke:none;"
         xml:space="preserve"
         clip-path="url(#clipPath44)"
         id="text501">Thrombin</text>
    </g>
    <g
       style="fill:white; text-rendering:geometricPrecision; stroke:white;"
       id="g511">
      <path
         d="M206.2817 670.5031 L269.2817 670.5031 L269.2817 690.5031 L206.2817 690.5031 L206.2817 670.5031 Z"
         style="clip-path:url(#clipPath45); stroke:none;"
         clip-path="url(#clipPath45)"
         id="path505" />
      <path
         d="M206.2817 670.5031 L269.2817 670.5031 L269.2817 690.5031 L206.2817 690.5031 L206.2817 670.5031 Z"
         style="fill:none; clip-path:url(#clipPath45); stroke:black;"
         clip-path="url(#clipPath45)"
         id="path507" />
      <text
         x="227"
         y="684"
         style="font-size:10; clip-path:url(#clipPath45); fill:black; stroke:none;"
         xml:space="preserve"
         clip-path="url(#clipPath45)"
         id="text509">IFNG</text>
    </g>
    <g
       style="fill:white; text-rendering:geometricPrecision; stroke:white;"
       id="g519">
      <path
         d="M270.0766 610.5031 L333.0766 610.5031 L333.0766 630.5031 L270.0766 630.5031 L270.0766 610.5031 Z"
         style="clip-path:url(#clipPath46); stroke:none;"
         clip-path="url(#clipPath46)"
         id="path513" />
      <path
         d="M270.0766 610.5031 L333.0766 610.5031 L333.0766 630.5031 L270.0766 630.5031 L270.0766 610.5031 Z"
         style="fill:none; clip-path:url(#clipPath46); stroke:black;"
         clip-path="url(#clipPath46)"
         id="path515" />
      <text
         x="283"
         y="624"
         style="font-size:10; clip-path:url(#clipPath46); fill:black; stroke:none;"
         xml:space="preserve"
         clip-path="url(#clipPath46)"
         id="text517">S100A9</text>
    </g>
    <g
       style="fill:white; text-rendering:geometricPrecision; stroke:white;"
       id="g527">
      <path
         d="M206.2817 630.5031 L269.2817 630.5031 L269.2817 650.5031 L206.2817 650.5031 L206.2817 630.5031 Z"
         style="clip-path:url(#clipPath47); stroke:none;"
         clip-path="url(#clipPath47)"
         id="path521" />
      <path
         d="M206.2817 630.5031 L269.2817 630.5031 L269.2817 650.5031 L206.2817 650.5031 L206.2817 630.5031 Z"
         style="fill:none; clip-path:url(#clipPath47); stroke:black;"
         clip-path="url(#clipPath47)"
         id="path523" />
      <text
         x="221"
         y="644"
         style="font-size:10; clip-path:url(#clipPath47); fill:black; stroke:none;"
         xml:space="preserve"
         clip-path="url(#clipPath47)"
         id="text525">HBEGF</text>
    </g>
    <g
       style="fill:white; text-rendering:geometricPrecision; stroke:white;"
       id="g535">
      <path
         d="M206.2817 570.5031 L269.2817 570.5031 L269.2817 590.5031 L206.2817 590.5031 L206.2817 570.5031 Z"
         style="clip-path:url(#clipPath48); stroke:none;"
         clip-path="url(#clipPath48)"
         id="path529" />
      <path
         d="M206.2817 570.5031 L269.2817 570.5031 L269.2817 590.5031 L206.2817 590.5031 L206.2817 570.5031 Z"
         style="fill:none; clip-path:url(#clipPath48); stroke:black;"
         clip-path="url(#clipPath48)"
         id="path531" />
      <text
         x="226"
         y="584"
         style="font-size:10; clip-path:url(#clipPath48); fill:black; stroke:none;"
         xml:space="preserve"
         clip-path="url(#clipPath48)"
         id="text533">CCL2</text>
    </g>
    <g
       style="fill:white; text-rendering:geometricPrecision; stroke:white;"
       id="g543">
      <path
         d="M270.0766 710.5031 L333.0766 710.5031 L333.0766 730.5031 L270.0766 730.5031 L270.0766 710.5031 Z"
         style="clip-path:url(#clipPath49); stroke:none;"
         clip-path="url(#clipPath49)"
         id="path537" />
      <path
         d="M270.0766 710.5031 L333.0766 710.5031 L333.0766 730.5031 L270.0766 730.5031 L270.0766 710.5031 Z"
         style="fill:none; clip-path:url(#clipPath49); stroke:black;"
         clip-path="url(#clipPath49)"
         id="path539" />
      <text
         x="290"
         y="724"
         style="font-size:10; clip-path:url(#clipPath49); fill:black; stroke:none;"
         xml:space="preserve"
         clip-path="url(#clipPath49)"
         id="text541">TLR2</text>
    </g>
    <g
       style="fill:rgb(20,150,30); text-rendering:geometricPrecision; font-weight:bold; stroke:rgb(20,150,30);"
       id="g549">
      <text
         x="208"
         xml:space="preserve"
         y="267"
         style="clip-path:url(#clipPath50); stroke:none;"
         clip-path="url(#clipPath50)"
         id="text545">ERK</text>
      <text
         x="193"
         xml:space="preserve"
         y="280"
         style="clip-path:url(#clipPath50); stroke:none;"
         clip-path="url(#clipPath50)"
         id="text547">pathway</text>
    </g>
    <g
       style="fill:white; text-rendering:geometricPrecision; stroke:white;"
       id="g557">
      <path
         d="M206.2817 710.5031 L269.2817 710.5031 L269.2817 730.5031 L206.2817 730.5031 L206.2817 710.5031 Z"
         style="clip-path:url(#clipPath51); stroke:none;"
         clip-path="url(#clipPath51)"
         id="path551" />
      <path
         d="M206.2817 710.5031 L269.2817 710.5031 L269.2817 730.5031 L206.2817 730.5031 L206.2817 710.5031 Z"
         style="fill:none; clip-path:url(#clipPath51); stroke:black;"
         clip-path="url(#clipPath51)"
         id="path553" />
      <text
         x="224"
         y="724"
         style="font-size:10; clip-path:url(#clipPath51); fill:black; stroke:none;"
         xml:space="preserve"
         clip-path="url(#clipPath51)"
         id="text555">MMP9</text>
    </g>
    <g
       style="fill:rgb(0,153,0); text-rendering:geometricPrecision; stroke:rgb(0,153,0);"
       id="g563">
      <path
         d="M569.8069 652.6212 L574.8572 648.2675 L596.53 673.408 L591.4797 677.7616 L569.8069 652.6212 Z"
         style="clip-path:url(#clipPath52); stroke:none;"
         clip-path="url(#clipPath52)"
         id="path559" />
      <path
         d="M569.8069 652.6212 L574.8572 648.2675 L596.53 673.408 L591.4797 677.7616 L569.8069 652.6212 Z"
         style="fill:none; clip-path:url(#clipPath52); stroke:black;"
         clip-path="url(#clipPath52)"
         id="path561" />
    </g>
    <g
       style="fill:rgb(0,153,0); text-rendering:geometricPrecision; stroke:rgb(0,153,0);"
       id="g569">
      <path
         d="M560.2194 661.1276 L565.5604 656.5233 L588.2223 682.8111 L582.8812 687.4155 L560.2194 661.1276 Z"
         style="clip-path:url(#clipPath53); stroke:none;"
         clip-path="url(#clipPath53)"
         id="path565" />
      <path
         d="M560.2194 661.1276 L565.5604 656.5233 L588.2223 682.8111 L582.8812 687.4155 L560.2194 661.1276 Z"
         style="fill:none; clip-path:url(#clipPath53); stroke:black;"
         clip-path="url(#clipPath53)"
         id="path567" />
    </g>
    <g
       style="font-weight:bold; text-rendering:geometricPrecision;"
       id="g573">
      <text
         x="586"
         xml:space="preserve"
         y="698"
         style="clip-path:url(#clipPath54); stroke:none;"
         clip-path="url(#clipPath54)"
         id="text571">Active integrins</text>
    </g>
    <g
       style="text-rendering:geometricPrecision;"
       id="g579">
      <path
         d="M437.5299 627.408 L560.2194 664.2463"
         style="fill:none; clip-path:url(#clipPath55);"
         clip-path="url(#clipPath55)"
         id="path575" />
      <path
         d="M560.2194 664.2463 L550.509 655.9014 L547.5182 665.8621 Z"
         style="clip-path:url(#clipPath55); fill-rule:evenodd; stroke:none;"
         clip-path="url(#clipPath55)"
         id="path577" />
    </g>
    <g
       style="fill:rgb(90,146,240); text-rendering:geometricPrecision; stroke-width:3; stroke:rgb(90,146,240);"
       id="g585">
      <path
         d="M846.8633 600.408 C846.8633 618.0811 829.8501 632.408 808.8633 632.408 C787.8765 632.408 770.8633 618.0811 770.8633 600.408 C770.8633 582.7348 787.8765 568.408 808.8633 568.408 C829.8501 568.408 846.8633 582.7348 846.8633 600.408 Z"
         style="clip-path:url(#clipPath56); stroke:none;"
         clip-path="url(#clipPath56)"
         id="path581" />
      <path
         d="M846.8633 600.408 C846.8633 618.0811 829.8501 632.408 808.8633 632.408 C787.8765 632.408 770.8633 618.0811 770.8633 600.408 C770.8633 582.7348 787.8765 568.408 808.8633 568.408 C829.8501 568.408 846.8633 582.7348 846.8633 600.408 Z"
         style="fill:none; clip-path:url(#clipPath56); stroke:rgb(0,102,204);"
         clip-path="url(#clipPath56)"
         id="path583" />
    </g>
    <g
       style="fill:rgb(90,146,240); text-rendering:geometricPrecision; stroke-width:3; stroke:rgb(90,146,240);"
       id="g591">
      <path
         d="M898.8633 579.408 C898.8633 597.0811 881.8501 611.408 860.8633 611.408 C839.8765 611.408 822.8633 597.0811 822.8633 579.408 C822.8633 561.7348 839.8765 547.408 860.8633 547.408 C881.8501 547.408 898.8633 561.7348 898.8633 579.408 Z"
         style="clip-path:url(#clipPath57); stroke:none;"
         clip-path="url(#clipPath57)"
         id="path587" />
      <path
         d="M898.8633 579.408 C898.8633 597.0811 881.8501 611.408 860.8633 611.408 C839.8765 611.408 822.8633 597.0811 822.8633 579.408 C822.8633 561.7348 839.8765 547.408 860.8633 547.408 C881.8501 547.408 898.8633 561.7348 898.8633 579.408 Z"
         style="fill:none; clip-path:url(#clipPath57); stroke:rgb(0,102,204);"
         clip-path="url(#clipPath57)"
         id="path589" />
    </g>
    <g
       style="font-weight:bold; text-rendering:geometricPrecision;"
       id="g595">
      <text
         x="778"
         xml:space="preserve"
         y="606"
         style="clip-path:url(#clipPath58); stroke:none;"
         clip-path="url(#clipPath58)"
         id="text593">Platelet</text>
    </g>
    <g
       style="font-weight:bold; text-rendering:geometricPrecision;"
       id="g599">
      <text
         x="826"
         xml:space="preserve"
         y="682"
         style="clip-path:url(#clipPath59); stroke:none;"
         clip-path="url(#clipPath59)"
         id="text597">White Blood Cell</text>
    </g>
    <g
       style="font-weight:bold; text-rendering:geometricPrecision;"
       id="g603">
      <text
         x="747"
         xml:space="preserve"
         y="567"
         style="clip-path:url(#clipPath60); stroke:none;"
         clip-path="url(#clipPath60)"
         id="text601">Adhesion</text>
    </g>
    <g
       style="font-weight:bold; text-rendering:geometricPrecision;"
       id="g607">
      <text
         x="842"
         xml:space="preserve"
         y="538"
         style="clip-path:url(#clipPath61); stroke:none;"
         clip-path="url(#clipPath61)"
         id="text605">Aggregation</text>
    </g>
    <g
       style="font-weight:bold; text-rendering:geometricPrecision;"
       id="g613">
      <text
         x="721"
         xml:space="preserve"
         y="717"
         style="clip-path:url(#clipPath62); stroke:none;"
         clip-path="url(#clipPath62)"
         id="text609">Heterotypic Aggregate</text>
      <text
         x="764"
         xml:space="preserve"
         y="730"
         style="clip-path:url(#clipPath62); stroke:none;"
         clip-path="url(#clipPath62)"
         id="text611">Formation</text>
    </g>
    <g
       style="font-weight:bold; text-rendering:geometricPrecision;"
       id="g617">
      <text
         x="15"
         xml:space="preserve"
         y="175"
         style="clip-path:url(#clipPath63); stroke:none;"
         clip-path="url(#clipPath63)"
         id="text615">Megakaryocyte</text>
    </g>
    <g
       style="fill:white; text-rendering:geometricPrecision; stroke:white;"
       id="g625">
      <path
         d="M141 187 L198 187 L198 207 L141 207 L141 187 Z"
         style="clip-path:url(#clipPath64); stroke:none;"
         clip-path="url(#clipPath64)"
         id="path619" />
      <path
         d="M141 187 L198 187 L198 207 L141 207 L141 187 Z"
         style="fill:none; clip-path:url(#clipPath64); stroke:black;"
         clip-path="url(#clipPath64)"
         id="path621" />
      <text
         x="155"
         y="200"
         style="font-size:10; clip-path:url(#clipPath64); fill:black; stroke:none;"
         xml:space="preserve"
         clip-path="url(#clipPath64)"
         id="text623">IL1R1</text>
    </g>
    <g
       style="fill:white; text-rendering:geometricPrecision; stroke:white;"
       id="g633">
      <path
         d="M91 235 L150 235 L150 255 L91 255 L91 235 Z"
         style="clip-path:url(#clipPath65); stroke:none;"
         clip-path="url(#clipPath65)"
         id="path627" />
      <path
         d="M91 235 L150 235 L150 255 L91 255 L91 235 Z"
         style="fill:none; clip-path:url(#clipPath65); stroke:black;"
         clip-path="url(#clipPath65)"
         id="path629" />
      <text
         x="104"
         y="248"
         style="font-size:10; clip-path:url(#clipPath65); fill:black; stroke:none;"
         xml:space="preserve"
         clip-path="url(#clipPath65)"
         id="text631">NFKB1</text>
    </g>
    <g
       style="text-rendering:geometricPrecision;"
       id="g639">
      <path
         d="M235.25 301 L288.333 290.3594"
         style="fill:none; clip-path:url(#clipPath66);"
         clip-path="url(#clipPath66)"
         id="path635" />
      <path
         d="M288.333 290.3594 L275.8391 287.5604 L277.8832 297.7575 Z"
         style="clip-path:url(#clipPath66); fill-rule:evenodd; stroke:none;"
         clip-path="url(#clipPath66)"
         id="path637" />
    </g>
    <g
       style="text-rendering:geometricPrecision;"
       id="g645">
      <path
         d="M235.25 301 L457.7356 454.9919"
         style="fill:none; clip-path:url(#clipPath67);"
         clip-path="url(#clipPath67)"
         id="path641" />
      <path
         d="M457.7356 454.9919 L451.0746 444.0575 L445.1558 452.6089 Z"
         style="clip-path:url(#clipPath67); fill-rule:evenodd; stroke:none;"
         clip-path="url(#clipPath67)"
         id="path643" />
    </g>
    <g
       style="fill:white; text-rendering:geometricPrecision; stroke:white;"
       id="g653">
      <path
         d="M79.4241 563.144 L142.4241 563.144 L142.4241 583.144 L79.4241 583.144 L79.4241 563.144 Z"
         style="clip-path:url(#clipPath68); stroke:none;"
         clip-path="url(#clipPath68)"
         id="path647" />
      <path
         d="M79.4241 563.144 L142.4241 563.144 L142.4241 583.144 L79.4241 583.144 L79.4241 563.144 Z"
         style="fill:none; clip-path:url(#clipPath68); stroke:black;"
         clip-path="url(#clipPath68)"
         id="path649" />
      <text
         x="101"
         y="577"
         style="font-size:10; clip-path:url(#clipPath68); fill:black; stroke:none;"
         xml:space="preserve"
         clip-path="url(#clipPath68)"
         id="text651">IL1B</text>
    </g>
    <g
       style="fill:white; text-rendering:geometricPrecision; stroke:white;"
       id="g661">
      <path
         d="M206.2817 690.5031 L269.2817 690.5031 L269.2817 710.5031 L206.2817 710.5031 L206.2817 690.5031 Z"
         style="clip-path:url(#clipPath69); stroke:none;"
         clip-path="url(#clipPath69)"
         id="path655" />
      <path
         d="M206.2817 690.5031 L269.2817 690.5031 L269.2817 710.5031 L206.2817 710.5031 L206.2817 690.5031 Z"
         style="fill:none; clip-path:url(#clipPath69); stroke:black;"
         clip-path="url(#clipPath69)"
         id="path657" />
      <text
         x="224"
         y="704"
         style="font-size:10; clip-path:url(#clipPath69); fill:black; stroke:none;"
         xml:space="preserve"
         clip-path="url(#clipPath69)"
         id="text659">IL1R1</text>
    </g>
  </g>
</svg>
