<?xml version="1.0" encoding="UTF-8" standalone="no"?>
<svg
   style="fill-opacity:1; color-rendering:auto; color-interpolation:auto; stroke:black; text-rendering:auto; stroke-linecap:square; stroke-miterlimit:10; stroke-opacity:1; shape-rendering:auto; fill:black; stroke-dasharray:none; font-weight:normal; stroke-width:1; font-family:'Dialog'; font-style:normal; stroke-linejoin:miter; font-size:12; stroke-dashoffset:0; image-rendering:auto;"
   width="1042"
   height="674"
   version="1.1"
   id="svg559"
   xmlns="http://www.w3.org/2000/svg"
   xmlns:svg="http://www.w3.org/2000/svg">
  <!--Generated by the Batik Graphics2D SVG Generator-->
  <defs
     id="genericDefs" />
  <g
     id="g557">
    <defs
       id="defs1">
      <clipPath
         clipPathUnits="userSpaceOnUse"
         id="clipPath1">
        <path
           d="M0 0 L1057 0 L1057 690 L0 690 L0 0 Z"
           id="path3" />
      </clipPath>
      <clipPath
         clipPathUnits="userSpaceOnUse"
         id="clipPath2">
        <path
           d="M0 0 L0 200 L200 200 L200 0 Z"
           id="path6" />
      </clipPath>
      <clipPath
         clipPathUnits="userSpaceOnUse"
         id="clipPath3">
        <path
           d="M333 16 L333 37 L344 37 L344 16 Z"
           id="path9" />
      </clipPath>
      <clipPath
         clipPathUnits="userSpaceOnUse"
         id="clipPath4">
        <path
           d="M332.4551 3.918 L343.5449 3.918 L343.5449 19.2305 L332.4551 19.2305 L332.4551 3.918 Z"
           id="path12" />
      </clipPath>
      <clipPath
         clipPathUnits="userSpaceOnUse"
         id="clipPath5">
        <path
           d="M631.381 248 L631.381 312.881 L816.9048 312.881 L816.9048 248 Z"
           id="path15" />
      </clipPath>
      <clipPath
         clipPathUnits="userSpaceOnUse"
         id="clipPath6">
        <path
           d="M360.5714 208.6667 L360.5714 301.4524 L567.7143 301.4524 L567.7143 208.6667 Z"
           id="path18" />
      </clipPath>
      <clipPath
         clipPathUnits="userSpaceOnUse"
         id="clipPath7">
        <path
           d="M330.2383 68.2383 L330.2383 640.7617 L340.7617 640.7617 L340.7617 68.2383 Z"
           id="path21" />
      </clipPath>
      <clipPath
         clipPathUnits="userSpaceOnUse"
         id="clipPath8">
        <path
           d="M234.3483 494.0163 L234.3483 640.9987 L577.9837 640.9987 L577.9837 494.0163 Z"
           id="path24" />
      </clipPath>
      <clipPath
         clipPathUnits="userSpaceOnUse"
         id="clipPath9">
        <path
           d="M207.1955 494.1078 L207.1955 578.8638 L577.8922 578.8638 L577.8922 494.1078 Z"
           id="path27" />
      </clipPath>
      <clipPath
         clipPathUnits="userSpaceOnUse"
         id="clipPath10">
        <path
           d="M463.1583 300.4678 L463.1583 454.6978 L529.9846 454.6978 L529.9846 300.4678 Z"
           id="path30" />
      </clipPath>
      <clipPath
         clipPathUnits="userSpaceOnUse"
         id="clipPath11">
        <path
           d="M647.8214 55.4405 L647.8214 56.9405 L697.8929 56.9405 L697.8929 55.4405 Z"
           id="path33" />
      </clipPath>
      <clipPath
         clipPathUnits="userSpaceOnUse"
         id="clipPath12">
        <path
           d="M85.9776 584.3063 L85.9776 640.6937 L169.6938 640.6937 L169.6938 584.3063 Z"
           id="path36" />
      </clipPath>
      <clipPath
         clipPathUnits="userSpaceOnUse"
         id="clipPath13">
        <path
           d="M395.5694 160.0456 L395.5694 217.621 L557.9543 217.621 L557.9543 160.0456 Z"
           id="path39" />
      </clipPath>
      <clipPath
         clipPathUnits="userSpaceOnUse"
         id="clipPath14">
        <path
           d="M91.6 173.8 L91.6 253.75 L114.85 253.75 L114.85 173.8 Z"
           id="path42" />
      </clipPath>
      <clipPath
         clipPathUnits="userSpaceOnUse"
         id="clipPath15">
        <path
           d="M623.9333 311.8355 L623.9333 454.5075 L725.1884 454.5075 L725.1884 311.8355 Z"
           id="path45" />
      </clipPath>
      <clipPath
         clipPathUnits="userSpaceOnUse"
         id="clipPath16">
        <path
           d="M570.046 159.1533 L570.046 439.75 L583.954 439.75 L583.954 159.1533 Z"
           id="path48" />
      </clipPath>
      <clipPath
         clipPathUnits="userSpaceOnUse"
         id="clipPath17">
        <path
           d="M379.0042 58.0042 L379.0042 141.9958 L557.9958 141.9958 L557.9958 58.0042 Z"
           id="path51" />
      </clipPath>
      <clipPath
         clipPathUnits="userSpaceOnUse"
         id="clipPath18">
        <path
           d="M349.4457 493.9637 L349.4457 641.0363 L578.0363 641.0363 L578.0363 493.9637 Z"
           id="path54" />
      </clipPath>
      <clipPath
         clipPathUnits="userSpaceOnUse"
         id="clipPath19">
        <path
           d="M86.0105 68.0105 L86.0105 640.9896 L340.9895 640.9896 L340.9895 68.0105 Z"
           id="path57" />
      </clipPath>
      <clipPath
         clipPathUnits="userSpaceOnUse"
         id="clipPath20">
        <path
           d="M121.4919 57.9919 L121.4919 150.0081 L301.0081 150.0081 L301.0081 57.9919 Z"
           id="path60" />
      </clipPath>
      <clipPath
         clipPathUnits="userSpaceOnUse"
         id="clipPath21">
        <path
           d="M595.942 159.942 L595.942 257.058 L680.439 257.058 L680.439 159.942 Z"
           id="path63" />
      </clipPath>
      <clipPath
         clipPathUnits="userSpaceOnUse"
         id="clipPath22">
        <path
           d="M157.9927 279.4927 L157.9927 468.0073 L530.649 468.0073 L530.649 279.4927 Z"
           id="path66" />
      </clipPath>
      <clipPath
         clipPathUnits="userSpaceOnUse"
         id="clipPath23">
        <path
           d="M215.1556 68.108 L215.1556 640.892 L340.8921 640.892 L340.8921 68.108 Z"
           id="path69" />
      </clipPath>
      <clipPath
         clipPathUnits="userSpaceOnUse"
         id="clipPath24">
        <path
           d="M481.9627 493.9627 L481.9627 641.5496 L578.0373 641.5496 L578.0373 493.9627 Z"
           id="path72" />
      </clipPath>
      <clipPath
         clipPathUnits="userSpaceOnUse"
         id="clipPath25">
        <path
           d="M634.9762 16.881 L634.9762 155.7381 L1028.119 155.7381 L1028.119 16.881 Z"
           id="path75" />
      </clipPath>
      <clipPath
         clipPathUnits="userSpaceOnUse"
         id="clipPath26">
        <path
           d="M560.2143 524.1429 L560.2143 550.1429 L651.2143 550.1429 L651.2143 524.1429 Z"
           id="path78" />
      </clipPath>
      <clipPath
         clipPathUnits="userSpaceOnUse"
         id="clipPath27">
        <path
           d="M670.9286 279.381 L670.9286 305.381 L775.0238 305.381 L775.0238 279.381 Z"
           id="path81" />
      </clipPath>
      <clipPath
         clipPathUnits="userSpaceOnUse"
         id="clipPath28">
        <path
           d="M45.2243 256.1843 L45.2243 304.8157 L159.7758 304.8157 L159.7758 256.1843 Z"
           id="path84" />
      </clipPath>
      <clipPath
         clipPathUnits="userSpaceOnUse"
         id="clipPath29">
        <path
           d="M403.0714 267.9524 L403.0714 293.9524 L528.119 293.9524 L528.119 267.9524 Z"
           id="path87" />
      </clipPath>
      <clipPath
         clipPathUnits="userSpaceOnUse"
         id="clipPath30">
        <path
           d="M624.0238 19.381 L624.0238 45.381 L715.0238 45.381 L715.0238 19.381 Z"
           id="path90" />
      </clipPath>
      <clipPath
         clipPathUnits="userSpaceOnUse"
         id="clipPath31">
        <path
           d="M536.5 446.5 L536.5 467.5 L617.5 467.5 L617.5 446.5 Z"
           id="path93" />
      </clipPath>
      <clipPath
         clipPathUnits="userSpaceOnUse"
         id="clipPath32">
        <path
           d="M536.5 140.5 L536.5 161.5 L617.5 161.5 L617.5 140.5 Z"
           id="path96" />
      </clipPath>
      <clipPath
         clipPathUnits="userSpaceOnUse"
         id="clipPath33">
        <path
           d="M310.5 639.5 L310.5 660.5 L391.5 660.5 L391.5 639.5 Z"
           id="path99" />
      </clipPath>
      <clipPath
         clipPathUnits="userSpaceOnUse"
         id="clipPath34">
        <path
           d="M299.5 48.5 L299.5 69.5 L380.5 69.5 L380.5 48.5 Z"
           id="path102" />
      </clipPath>
      <clipPath
         clipPathUnits="userSpaceOnUse"
         id="clipPath35">
        <path
           d="M442.5 639.5 L442.5 660.5 L523.5 660.5 L523.5 639.5 Z"
           id="path105" />
      </clipPath>
      <clipPath
         clipPathUnits="userSpaceOnUse"
         id="clipPath36">
        <path
           d="M128.5 564.5 L128.5 585.5 L209.5 585.5 L209.5 564.5 Z"
           id="path108" />
      </clipPath>
      <clipPath
         clipPathUnits="userSpaceOnUse"
         id="clipPath37">
        <path
           d="M46.5 639.5 L46.5 660.5 L127.5 660.5 L127.5 639.5 Z"
           id="path111" />
      </clipPath>
      <clipPath
         clipPathUnits="userSpaceOnUse"
         id="clipPath38">
        <path
           d="M175.5476 639.5 L175.5476 660.5 L256.5476 660.5 L256.5476 639.5 Z"
           id="path114" />
      </clipPath>
      <clipPath
         clipPathUnits="userSpaceOnUse"
         id="clipPath39">
        <path
           d="M536.5 466.5 L536.5 487.5 L617.5 487.5 L617.5 466.5 Z"
           id="path117" />
      </clipPath>
      <clipPath
         clipPathUnits="userSpaceOnUse"
         id="clipPath40">
        <path
           d="M638.881 255.5 L638.881 276.5 L719.881 276.5 L719.881 255.5 Z"
           id="path120" />
      </clipPath>
      <clipPath
         clipPathUnits="userSpaceOnUse"
         id="clipPath41">
        <path
           d="M62 148.5 L62 169.5 L143 169.5 L143 148.5 Z"
           id="path123" />
      </clipPath>
      <clipPath
         clipPathUnits="userSpaceOnUse"
         id="clipPath42">
        <path
           d="M728.4048 255.5 L728.4048 276.5 L809.4048 276.5 L809.4048 255.5 Z"
           id="path126" />
      </clipPath>
      <clipPath
         clipPathUnits="userSpaceOnUse"
         id="clipPath43">
        <path
           d="M595.9808 159.9808 L595.9808 257.0192 L769.924 257.0192 L769.924 159.9808 Z"
           id="path129" />
      </clipPath>
      <clipPath
         clipPathUnits="userSpaceOnUse"
         id="clipPath44">
        <path
           d="M396.9386 159.9862 L396.9386 246.2519 L558.0138 246.2519 L558.0138 159.9862 Z"
           id="path132" />
      </clipPath>
      <clipPath
         clipPathUnits="userSpaceOnUse"
         id="clipPath45">
        <path
           d="M464.9877 159.9401 L464.9877 246.298 L558.0599 246.298 L558.0599 159.9401 Z"
           id="path135" />
      </clipPath>
      <clipPath
         clipPathUnits="userSpaceOnUse"
         id="clipPath46">
        <path
           d="M463.5896 159.9705 L463.5896 217.6962 L558.0295 217.6962 L558.0295 159.9705 Z"
           id="path138" />
      </clipPath>
      <clipPath
         clipPathUnits="userSpaceOnUse"
         id="clipPath47">
        <path
           d="M529.3919 160.0586 L529.3919 246.1795 L557.9414 246.1795 L557.9414 160.0586 Z"
           id="path141" />
      </clipPath>
      <clipPath
         clipPathUnits="userSpaceOnUse"
         id="clipPath48">
        <path
           d="M530.7692 160.0072 L530.7692 217.6594 L557.9927 217.6594 L557.9927 160.0072 Z"
           id="path144" />
      </clipPath>
      <clipPath
         clipPathUnits="userSpaceOnUse"
         id="clipPath49">
        <path
           d="M369.5 244.7381 L369.5 265.7381 L426.4048 265.7381 L426.4048 244.7381 Z"
           id="path147" />
      </clipPath>
      <clipPath
         clipPathUnits="userSpaceOnUse"
         id="clipPath50">
        <path
           d="M437.5952 244.7381 L437.5952 265.7381 L494.5 265.7381 L494.5 244.7381 Z"
           id="path150" />
      </clipPath>
      <clipPath
         clipPathUnits="userSpaceOnUse"
         id="clipPath51">
        <path
           d="M436.1667 216.1667 L436.1667 237.1667 L493.0714 237.1667 L493.0714 216.1667 Z"
           id="path153" />
      </clipPath>
      <clipPath
         clipPathUnits="userSpaceOnUse"
         id="clipPath52">
        <path
           d="M368.0714 216.1667 L368.0714 237.1667 L424.9762 237.1667 L424.9762 216.1667 Z"
           id="path156" />
      </clipPath>
      <clipPath
         clipPathUnits="userSpaceOnUse"
         id="clipPath53">
        <path
           d="M503.3095 216.1667 L503.3095 237.1667 L560.2143 237.1667 L560.2143 216.1667 Z"
           id="path159" />
      </clipPath>
      <clipPath
         clipPathUnits="userSpaceOnUse"
         id="clipPath54">
        <path
           d="M501.881 244.7381 L501.881 265.7381 L558.7857 265.7381 L558.7857 244.7381 Z"
           id="path162" />
      </clipPath>
      <clipPath
         clipPathUnits="userSpaceOnUse"
         id="clipPath55">
        <path
           d="M647.8214 76.869 L647.8214 78.369 L697.8929 78.369 L697.8929 76.869 Z"
           id="path165" />
      </clipPath>
      <clipPath
         clipPathUnits="userSpaceOnUse"
         id="clipPath56">
        <path
           d="M647.8214 125.2905 L647.8214 148.5405 L692.3428 148.5405 L692.3428 125.2905 Z"
           id="path168" />
      </clipPath>
      <clipPath
         clipPathUnits="userSpaceOnUse"
         id="clipPath57">
        <path
           d="M704.5 41.7619 L704.5 67.7619 L869.0714 67.7619 L869.0714 41.7619 Z"
           id="path171" />
      </clipPath>
      <clipPath
         clipPathUnits="userSpaceOnUse"
         id="clipPath58">
        <path
           d="M704.9762 65.0952 L704.9762 91.0952 L953.8333 91.0952 L953.8333 65.0952 Z"
           id="path174" />
      </clipPath>
      <clipPath
         clipPathUnits="userSpaceOnUse"
         id="clipPath59">
        <path
           d="M647.3452 102.1071 L647.3452 103.6071 L697.4167 103.6071 L697.4167 102.1071 Z"
           id="path177" />
      </clipPath>
      <clipPath
         clipPathUnits="userSpaceOnUse"
         id="clipPath60">
        <path
           d="M706.4048 92.2381 L706.4048 129.0714 L1027.1666 129.0714 L1027.1666 92.2381 Z"
           id="path180" />
      </clipPath>
      <clipPath
         clipPathUnits="userSpaceOnUse"
         id="clipPath61">
        <path
           d="M704.2619 123.6667 L704.2619 149.6667 L912.881 149.6667 L912.881 123.6667 Z"
           id="path183" />
      </clipPath>
    </defs>
    <g
       style="fill:white; stroke:white;"
       id="g189">
      <rect
         x="0"
         width="1057"
         height="690"
         y="0"
         style="stroke:none;"
         id="rect187" />
    </g>
    <g
       style="font-weight:bold; font-size:10; text-rendering:geometricPrecision;"
       id="g199">
      <path
         d="M0.0469 6.7031 L6.7656 6.7031 L6.7656 8.125 L4.3438 8.125 L4.3438 14 L2.4688 14 L2.4688 8.125 L0.0469 8.125 L0.0469 6.7031 ZM7.665 8.5312 L9.415 8.5312 L9.415 14 L7.665 14 L7.665 8.5312 ZM7.665 6.4062 L9.415 6.4062 L9.415 7.8281 L7.665 7.8281 L7.665 6.4062 ZM12.999 6.9844 L12.999 8.5312 L14.7959 8.5312 L14.7959 9.7812 L12.999 9.7812 L12.999 12.0938 Q12.999 12.4844 13.1475 12.6172 Q13.2959 12.75 13.749 12.75 L14.6553 12.75 L14.6553 14 L13.1553 14 Q12.1084 14 11.6787 13.5703 Q11.249 13.1406 11.249 12.0938 L11.249 9.7812 L10.374 9.7812 L10.374 8.5312 L11.249 8.5312 L11.249 6.9844 L12.999 6.9844 ZM15.873 6.4062 L17.623 6.4062 L17.623 14 L15.873 14 L15.873 6.4062 ZM24.7539 11.25 L24.7539 11.75 L20.6758 11.75 Q20.7383 12.3594 21.1133 12.6719 Q21.4883 12.9844 22.1758 12.9844 Q22.7227 12.9844 23.3086 12.8203 Q23.8945 12.6562 24.5039 12.3125 L24.5039 13.6719 Q23.8789 13.9062 23.2617 14.0234 Q22.6445 14.1406 22.0195 14.1406 Q20.5352 14.1406 19.7148 13.3828 Q18.8945 12.625 18.8945 11.2656 Q18.8945 9.9375 19.6992 9.1719 Q20.5039 8.4062 21.9258 8.4062 Q23.207 8.4062 23.9805 9.1797 Q24.7539 9.9531 24.7539 11.25 ZM22.957 10.6719 Q22.957 10.1719 22.668 9.8672 Q22.3789 9.5625 21.9102 9.5625 Q21.3945 9.5625 21.082 9.8438 Q20.7695 10.125 20.6914 10.6719 L22.957 10.6719 ZM26.3643 8.5312 L28.1143 8.5312 L28.1143 10.4219 L26.3643 10.4219 L26.3643 8.5312 ZM26.3643 12.1094 L28.1143 12.1094 L28.1143 14 L26.3643 14 L26.3643 12.1094 Z"
         style="clip-path:url(#clipPath2); stroke:none;"
         clip-path="url(#clipPath2)"
         id="path191" />
      <path
         d="M38.9844 6.7031 L39.9688 6.7031 L39.9688 14 L38.9844 14 L38.9844 6.7031 ZM46.4336 10.7031 L46.4336 14 L45.543 14 L45.543 10.7344 Q45.543 9.9531 45.2383 9.5703 Q44.9336 9.1875 44.3242 9.1875 Q43.6055 9.1875 43.1836 9.6484 Q42.7617 10.1094 42.7617 10.9062 L42.7617 14 L41.8555 14 L41.8555 8.5312 L42.7617 8.5312 L42.7617 9.375 Q43.0898 8.8906 43.5273 8.6484 Q43.9648 8.4062 44.5273 8.4062 Q45.4648 8.4062 45.9492 8.9844 Q46.4336 9.5625 46.4336 10.7031 ZM49.1152 6.9844 L49.1152 8.5312 L50.9746 8.5312 L50.9746 9.2344 L49.1152 9.2344 L49.1152 12.2031 Q49.1152 12.8594 49.3027 13.0547 Q49.4902 13.25 50.0527 13.25 L50.9746 13.25 L50.9746 14 L50.0527 14 Q49.0059 14 48.6074 13.6094 Q48.209 13.2188 48.209 12.2031 L48.209 9.2344 L47.5527 9.2344 L47.5527 8.5312 L48.209 8.5312 L48.209 6.9844 L49.1152 6.9844 ZM56.833 11.0469 L56.833 11.4844 L52.6924 11.4844 Q52.7549 12.4062 53.2549 12.8906 Q53.7549 13.375 54.6455 13.375 Q55.1611 13.375 55.6533 13.25 Q56.1455 13.125 56.6143 12.875 L56.6143 13.7188 Q56.1299 13.9219 55.6221 14.0312 Q55.1143 14.1406 54.5986 14.1406 Q53.2861 14.1406 52.5205 13.3828 Q51.7549 12.625 51.7549 11.3125 Q51.7549 9.9688 52.4814 9.1875 Q53.208 8.4062 54.4424 8.4062 Q55.5518 8.4062 56.1924 9.1094 Q56.833 9.8125 56.833 11.0469 ZM55.9268 10.7812 Q55.9268 10.0469 55.5205 9.6016 Q55.1143 9.1562 54.458 9.1562 Q53.6924 9.1562 53.2471 9.5859 Q52.8018 10.0156 52.7236 10.7812 L55.9268 10.7812 ZM61.4697 9.375 Q61.3135 9.2812 61.1416 9.2422 Q60.9697 9.2031 60.751 9.2031 Q59.9854 9.2031 59.5791 9.6953 Q59.1729 10.1875 59.1729 11.125 L59.1729 14 L58.2666 14 L58.2666 8.5312 L59.1729 8.5312 L59.1729 9.375 Q59.4541 8.875 59.9072 8.6406 Q60.3604 8.4062 61.0166 8.4062 Q61.1104 8.4062 61.2197 8.4141 Q61.3291 8.4219 61.4697 8.4531 L61.4697 9.375 ZM64.8936 11.25 Q63.8154 11.25 63.3936 11.5 Q62.9717 11.75 62.9717 12.3438 Q62.9717 12.8281 63.2842 13.1094 Q63.5967 13.3906 64.1436 13.3906 Q64.8936 13.3906 65.3467 12.8594 Q65.7998 12.3281 65.7998 11.4531 L65.7998 11.25 L64.8936 11.25 ZM66.6904 10.875 L66.6904 14 L65.7998 14 L65.7998 13.1719 Q65.4873 13.6719 65.0264 13.9062 Q64.5654 14.1406 63.9092 14.1406 Q63.0654 14.1406 62.5654 13.6719 Q62.0654 13.2031 62.0654 12.4062 Q62.0654 11.4844 62.6904 11.0156 Q63.3154 10.5469 64.5342 10.5469 L65.7998 10.5469 L65.7998 10.4531 Q65.7998 9.8438 65.3857 9.5 Q64.9717 9.1562 64.2373 9.1562 Q63.7686 9.1562 63.3232 9.2734 Q62.8779 9.3906 62.4717 9.6094 L62.4717 8.7812 Q62.9717 8.5938 63.4326 8.5 Q63.8936 8.4062 64.3311 8.4062 Q65.5186 8.4062 66.1045 9.0156 Q66.6904 9.625 66.6904 10.875 ZM72.4746 8.7344 L72.4746 9.5781 Q72.0996 9.375 71.7168 9.2656 Q71.334 9.1562 70.9434 9.1562 Q70.0684 9.1562 69.584 9.7109 Q69.0996 10.2656 69.0996 11.2656 Q69.0996 12.2656 69.584 12.8203 Q70.0684 13.375 70.9434 13.375 Q71.334 13.375 71.7168 13.2734 Q72.0996 13.1719 72.4746 12.9531 L72.4746 13.7969 Q72.0996 13.9688 71.7012 14.0547 Q71.3027 14.1406 70.8496 14.1406 Q69.5996 14.1406 68.873 13.3672 Q68.1465 12.5938 68.1465 11.2656 Q68.1465 9.9375 68.8809 9.1719 Q69.6152 8.4062 70.8965 8.4062 Q71.3184 8.4062 71.709 8.4844 Q72.0996 8.5625 72.4746 8.7344 ZM74.9258 6.9844 L74.9258 8.5312 L76.7852 8.5312 L76.7852 9.2344 L74.9258 9.2344 L74.9258 12.2031 Q74.9258 12.8594 75.1133 13.0547 Q75.3008 13.25 75.8633 13.25 L76.7852 13.25 L76.7852 14 L75.8633 14 Q74.8164 14 74.418 13.6094 Q74.0195 13.2188 74.0195 12.2031 L74.0195 9.2344 L73.3633 9.2344 L73.3633 8.5312 L74.0195 8.5312 L74.0195 6.9844 L74.9258 6.9844 ZM77.9561 8.5312 L78.8623 8.5312 L78.8623 14 L77.9561 14 L77.9561 8.5312 ZM77.9561 6.4062 L78.8623 6.4062 L78.8623 7.5469 L77.9561 7.5469 L77.9561 6.4062 ZM82.8594 9.1562 Q82.1406 9.1562 81.7188 9.7188 Q81.2969 10.2812 81.2969 11.2656 Q81.2969 12.25 81.7109 12.8125 Q82.125 13.375 82.8594 13.375 Q83.5781 13.375 84 12.8125 Q84.4219 12.25 84.4219 11.2656 Q84.4219 10.2969 84 9.7266 Q83.5781 9.1562 82.8594 9.1562 ZM82.8594 8.4062 Q84.0312 8.4062 84.7031 9.1641 Q85.375 9.9219 85.375 11.2656 Q85.375 12.6094 84.7031 13.375 Q84.0312 14.1406 82.8594 14.1406 Q81.6875 14.1406 81.0156 13.375 Q80.3438 12.6094 80.3438 11.2656 Q80.3438 9.9219 81.0156 9.1641 Q81.6875 8.4062 82.8594 8.4062 ZM91.3994 10.7031 L91.3994 14 L90.5088 14 L90.5088 10.7344 Q90.5088 9.9531 90.2041 9.5703 Q89.8994 9.1875 89.29 9.1875 Q88.5713 9.1875 88.1494 9.6484 Q87.7275 10.1094 87.7275 10.9062 L87.7275 14 L86.8213 14 L86.8213 8.5312 L87.7275 8.5312 L87.7275 9.375 Q88.0557 8.8906 88.4932 8.6484 Q88.9307 8.4062 89.4932 8.4062 Q90.4307 8.4062 90.915 8.9844 Q91.3994 9.5625 91.3994 10.7031 ZM96.6748 8.6875 L96.6748 9.5469 Q96.2998 9.3438 95.8936 9.25 Q95.4873 9.1562 95.0342 9.1562 Q94.3779 9.1562 94.042 9.3594 Q93.7061 9.5625 93.7061 9.9688 Q93.7061 10.2812 93.9404 10.4609 Q94.1748 10.6406 94.9092 10.7969 L95.2061 10.875 Q96.1748 11.0781 96.5732 11.4531 Q96.9717 11.8281 96.9717 12.4844 Q96.9717 13.25 96.3701 13.6953 Q95.7686 14.1406 94.7217 14.1406 Q94.2686 14.1406 93.792 14.0547 Q93.3154 13.9688 92.7998 13.7969 L92.7998 12.875 Q93.2998 13.125 93.7764 13.2578 Q94.2529 13.3906 94.7373 13.3906 Q95.3623 13.3906 95.7061 13.1719 Q96.0498 12.9531 96.0498 12.5625 Q96.0498 12.1875 95.8076 11.9922 Q95.5654 11.7969 94.7217 11.625 L94.4092 11.5469 Q93.5811 11.375 93.2061 11.0078 Q92.8311 10.6406 92.8311 10.0156 Q92.8311 9.2344 93.3779 8.8203 Q93.9248 8.4062 94.9404 8.4062 Q95.4248 8.4062 95.8701 8.4766 Q96.3154 8.5469 96.6748 8.6875 ZM105.5166 11.2656 Q105.5166 10.2812 105.1025 9.7188 Q104.6885 9.1562 103.9854 9.1562 Q103.2666 9.1562 102.8604 9.7188 Q102.4541 10.2812 102.4541 11.2656 Q102.4541 12.2656 102.8604 12.8281 Q103.2666 13.3906 103.9854 13.3906 Q104.6885 13.3906 105.1025 12.8281 Q105.5166 12.2656 105.5166 11.2656 ZM102.4541 9.3594 Q102.7354 8.875 103.165 8.6406 Q103.5947 8.4062 104.2041 8.4062 Q105.2041 8.4062 105.8213 9.1953 Q106.4385 9.9844 106.4385 11.2656 Q106.4385 12.5625 105.8213 13.3516 Q105.2041 14.1406 104.2041 14.1406 Q103.5947 14.1406 103.165 13.9062 Q102.7354 13.6719 102.4541 13.1719 L102.4541 14 L101.5479 14 L101.5479 6.4062 L102.4541 6.4062 L102.4541 9.3594 ZM112.6143 11.0469 L112.6143 11.4844 L108.4736 11.4844 Q108.5361 12.4062 109.0361 12.8906 Q109.5361 13.375 110.4268 13.375 Q110.9424 13.375 111.4346 13.25 Q111.9268 13.125 112.3955 12.875 L112.3955 13.7188 Q111.9111 13.9219 111.4033 14.0312 Q110.8955 14.1406 110.3799 14.1406 Q109.0674 14.1406 108.3018 13.3828 Q107.5361 12.625 107.5361 11.3125 Q107.5361 9.9688 108.2627 9.1875 Q108.9893 8.4062 110.2236 8.4062 Q111.333 8.4062 111.9736 9.1094 Q112.6143 9.8125 112.6143 11.0469 ZM111.708 10.7812 Q111.708 10.0469 111.3018 9.6016 Q110.8955 9.1562 110.2393 9.1562 Q109.4736 9.1562 109.0283 9.5859 Q108.583 10.0156 108.5049 10.7812 L111.708 10.7812 ZM114.9697 6.9844 L114.9697 8.5312 L116.8291 8.5312 L116.8291 9.2344 L114.9697 9.2344 L114.9697 12.2031 Q114.9697 12.8594 115.1572 13.0547 Q115.3447 13.25 115.9072 13.25 L116.8291 13.25 L116.8291 14 L115.9072 14 Q114.8604 14 114.4619 13.6094 Q114.0635 13.2188 114.0635 12.2031 L114.0635 9.2344 L113.4072 9.2344 L113.4072 8.5312 L114.0635 8.5312 L114.0635 6.9844 L114.9697 6.9844 ZM117.4844 8.5312 L118.375 8.5312 L119.5 12.7969 L120.625 8.5312 L121.6875 8.5312 L122.8125 12.7969 L123.9219 8.5312 L124.8281 8.5312 L123.3906 14 L122.3281 14 L121.1562 9.5156 L119.9688 14 L118.9062 14 L117.4844 8.5312 ZM130.8662 11.0469 L130.8662 11.4844 L126.7256 11.4844 Q126.7881 12.4062 127.2881 12.8906 Q127.7881 13.375 128.6787 13.375 Q129.1943 13.375 129.6865 13.25 Q130.1787 13.125 130.6475 12.875 L130.6475 13.7188 Q130.1631 13.9219 129.6553 14.0312 Q129.1475 14.1406 128.6318 14.1406 Q127.3193 14.1406 126.5537 13.3828 Q125.7881 12.625 125.7881 11.3125 Q125.7881 9.9688 126.5146 9.1875 Q127.2412 8.4062 128.4756 8.4062 Q129.585 8.4062 130.2256 9.1094 Q130.8662 9.8125 130.8662 11.0469 ZM129.96 10.7812 Q129.96 10.0469 129.5537 9.6016 Q129.1475 9.1562 128.4912 9.1562 Q127.7256 9.1562 127.2803 9.5859 Q126.835 10.0156 126.7568 10.7812 L129.96 10.7812 ZM137.0186 11.0469 L137.0186 11.4844 L132.8779 11.4844 Q132.9404 12.4062 133.4404 12.8906 Q133.9404 13.375 134.8311 13.375 Q135.3467 13.375 135.8389 13.25 Q136.3311 13.125 136.7998 12.875 L136.7998 13.7188 Q136.3154 13.9219 135.8076 14.0312 Q135.2998 14.1406 134.7842 14.1406 Q133.4717 14.1406 132.7061 13.3828 Q131.9404 12.625 131.9404 11.3125 Q131.9404 9.9688 132.667 9.1875 Q133.3936 8.4062 134.6279 8.4062 Q135.7373 8.4062 136.3779 9.1094 Q137.0186 9.8125 137.0186 11.0469 ZM136.1123 10.7812 Q136.1123 10.0469 135.7061 9.6016 Q135.2998 9.1562 134.6436 9.1562 Q133.8779 9.1562 133.4326 9.5859 Q132.9873 10.0156 132.9092 10.7812 L136.1123 10.7812 ZM143.0303 10.7031 L143.0303 14 L142.1396 14 L142.1396 10.7344 Q142.1396 9.9531 141.835 9.5703 Q141.5303 9.1875 140.9209 9.1875 Q140.2021 9.1875 139.7803 9.6484 Q139.3584 10.1094 139.3584 10.9062 L139.3584 14 L138.4521 14 L138.4521 8.5312 L139.3584 8.5312 L139.3584 9.375 Q139.6865 8.8906 140.124 8.6484 Q140.5615 8.4062 141.124 8.4062 Q142.0615 8.4062 142.5459 8.9844 Q143.0303 9.5625 143.0303 10.7031 ZM148.0469 6.7031 L149.0312 6.7031 L149.0312 13.1719 L152.5781 13.1719 L152.5781 14 L148.0469 14 L148.0469 6.7031 ZM156.5713 7.375 Q155.4932 7.375 154.8682 8.1797 Q154.2432 8.9844 154.2432 10.3594 Q154.2432 11.7344 154.8682 12.5391 Q155.4932 13.3438 156.5713 13.3438 Q157.6494 13.3438 158.2744 12.5391 Q158.8994 11.7344 158.8994 10.3594 Q158.8994 8.9844 158.2744 8.1797 Q157.6494 7.375 156.5713 7.375 ZM156.5713 6.5781 Q158.1025 6.5781 159.0244 7.6094 Q159.9463 8.6406 159.9463 10.3594 Q159.9463 12.0781 159.0244 13.1094 Q158.1025 14.1406 156.5713 14.1406 Q155.04 14.1406 154.1182 13.1172 Q153.1963 12.0938 153.1963 10.3594 Q153.1963 8.6406 154.1182 7.6094 Q155.04 6.5781 156.5713 6.5781 ZM161.1299 6.7031 L162.1924 6.7031 L164.0049 9.4219 L165.833 6.7031 L166.8799 6.7031 L164.5361 10.2031 L167.0361 14 L165.9893 14 L163.9268 10.9062 L161.8643 14 L160.8018 14 L163.4111 10.1094 L161.1299 6.7031 ZM168.3398 6.7031 L169.3242 6.7031 L169.3242 13.1719 L172.8711 13.1719 L172.8711 14 L168.3398 14 L168.3398 6.7031 ZM176.708 7.5625 L174.2236 11.4531 L176.708 11.4531 L176.708 7.5625 ZM176.4424 6.7031 L177.6924 6.7031 L177.6924 11.4531 L178.7236 11.4531 L178.7236 12.2812 L177.6924 12.2812 L177.6924 14 L176.708 14 L176.708 12.2812 L173.4111 12.2812 L173.4111 11.3281 L176.4424 6.7031 ZM185.8896 11.25 Q184.8115 11.25 184.3896 11.5 Q183.9678 11.75 183.9678 12.3438 Q183.9678 12.8281 184.2803 13.1094 Q184.5928 13.3906 185.1396 13.3906 Q185.8896 13.3906 186.3428 12.8594 Q186.7959 12.3281 186.7959 11.4531 L186.7959 11.25 L185.8896 11.25 ZM187.6865 10.875 L187.6865 14 L186.7959 14 L186.7959 13.1719 Q186.4834 13.6719 186.0225 13.9062 Q185.5615 14.1406 184.9053 14.1406 Q184.0615 14.1406 183.5615 13.6719 Q183.0615 13.2031 183.0615 12.4062 Q183.0615 11.4844 183.6865 11.0156 Q184.3115 10.5469 185.5303 10.5469 L186.7959 10.5469 L186.7959 10.4531 Q186.7959 9.8438 186.3818 9.5 Q185.9678 9.1562 185.2334 9.1562 Q184.7646 9.1562 184.3193 9.2734 Q183.874 9.3906 183.4678 9.6094 L183.4678 8.7812 Q183.9678 8.5938 184.4287 8.5 Q184.8896 8.4062 185.3271 8.4062 Q186.5146 8.4062 187.1006 9.0156 Q187.6865 9.625 187.6865 10.875 ZM194.0801 10.7031 L194.0801 14 L193.1895 14 L193.1895 10.7344 Q193.1895 9.9531 192.8848 9.5703 Q192.5801 9.1875 191.9707 9.1875 Q191.252 9.1875 190.8301 9.6484 Q190.4082 10.1094 190.4082 10.9062 L190.4082 14 L189.502 14 L189.502 8.5312 L190.4082 8.5312 L190.4082 9.375 Q190.7363 8.8906 191.1738 8.6484 Q191.6113 8.4062 192.1738 8.4062 Q193.1113 8.4062 193.5957 8.9844 Q194.0801 9.5625 194.0801 10.7031 ZM199.4805 9.3594 L199.4805 6.4062 L200.3711 6.4062 L200.3711 14 L199.4805 14 L199.4805 13.1719 Q199.1992 13.6719 198.7617 13.9062 Q198.3242 14.1406 197.7148 14.1406 Q196.7305 14.1406 196.1055 13.3516 Q195.4805 12.5625 195.4805 11.2656 Q195.4805 9.9844 196.1055 9.1953 Q196.7305 8.4062 197.7148 8.4062 Q198.3242 8.4062 198.7617 8.6406 Q199.1992 8.875 199.4805 9.3594 ZM196.418 11.2656 Q196.418 12.2656 196.8242 12.8281 Q197.2305 13.3906 197.9492 13.3906 Q198.6523 13.3906 199.0664 12.8281 Q199.4805 12.2656 199.4805 11.2656 Q199.4805 10.2812 199.0664 9.7188 Q198.6523 9.1562 197.9492 9.1562 Q197.2305 9.1562 196.8242 9.7188 Q196.418 10.2812 196.418 11.2656 ZM207.5225 9.1562 Q206.8037 9.1562 206.3818 9.7188 Q205.96 10.2812 205.96 11.2656 Q205.96 12.25 206.374 12.8125 Q206.7881 13.375 207.5225 13.375 Q208.2412 13.375 208.6631 12.8125 Q209.085 12.25 209.085 11.2656 Q209.085 10.2969 208.6631 9.7266 Q208.2412 9.1562 207.5225 9.1562 ZM207.5225 8.4062 Q208.6943 8.4062 209.3662 9.1641 Q210.0381 9.9219 210.0381 11.2656 Q210.0381 12.6094 209.3662 13.375 Q208.6943 14.1406 207.5225 14.1406 Q206.3506 14.1406 205.6787 13.375 Q205.0068 12.6094 205.0068 11.2656 Q205.0068 9.9219 205.6787 9.1641 Q206.3506 8.4062 207.5225 8.4062 ZM216.0625 8.5312 L214.0938 11.1875 L216.1719 14 L215.1094 14 L213.5156 11.8438 L211.9219 14 L210.8594 14 L212.9844 11.1406 L211.0469 8.5312 L212.1094 8.5312 L213.5625 10.4844 L215 8.5312 L216.0625 8.5312 ZM217.4336 8.5312 L218.3398 8.5312 L218.3398 14 L217.4336 14 L217.4336 8.5312 ZM217.4336 6.4062 L218.3398 6.4062 L218.3398 7.5469 L217.4336 7.5469 L217.4336 6.4062 ZM223.8213 9.3594 L223.8213 6.4062 L224.7119 6.4062 L224.7119 14 L223.8213 14 L223.8213 13.1719 Q223.54 13.6719 223.1025 13.9062 Q222.665 14.1406 222.0557 14.1406 Q221.0713 14.1406 220.4463 13.3516 Q219.8213 12.5625 219.8213 11.2656 Q219.8213 9.9844 220.4463 9.1953 Q221.0713 8.4062 222.0557 8.4062 Q222.665 8.4062 223.1025 8.6406 Q223.54 8.875 223.8213 9.3594 ZM220.7588 11.2656 Q220.7588 12.2656 221.165 12.8281 Q221.5713 13.3906 222.29 13.3906 Q222.9932 13.3906 223.4072 12.8281 Q223.8213 12.2656 223.8213 11.2656 Q223.8213 10.2812 223.4072 9.7188 Q222.9932 9.1562 222.29 9.1562 Q221.5713 9.1562 221.165 9.7188 Q220.7588 10.2812 220.7588 11.2656 ZM229.0439 11.25 Q227.9658 11.25 227.5439 11.5 Q227.1221 11.75 227.1221 12.3438 Q227.1221 12.8281 227.4346 13.1094 Q227.7471 13.3906 228.2939 13.3906 Q229.0439 13.3906 229.4971 12.8594 Q229.9502 12.3281 229.9502 11.4531 L229.9502 11.25 L229.0439 11.25 ZM230.8408 10.875 L230.8408 14 L229.9502 14 L229.9502 13.1719 Q229.6377 13.6719 229.1768 13.9062 Q228.7158 14.1406 228.0596 14.1406 Q227.2158 14.1406 226.7158 13.6719 Q226.2158 13.2031 226.2158 12.4062 Q226.2158 11.4844 226.8408 11.0156 Q227.4658 10.5469 228.6846 10.5469 L229.9502 10.5469 L229.9502 10.4531 Q229.9502 9.8438 229.5361 9.5 Q229.1221 9.1562 228.3877 9.1562 Q227.9189 9.1562 227.4736 9.2734 Q227.0283 9.3906 226.6221 9.6094 L226.6221 8.7812 Q227.1221 8.5938 227.583 8.5 Q228.0439 8.4062 228.4814 8.4062 Q229.6689 8.4062 230.2549 9.0156 Q230.8408 9.625 230.8408 10.875 ZM233.5781 6.9844 L233.5781 8.5312 L235.4375 8.5312 L235.4375 9.2344 L233.5781 9.2344 L233.5781 12.2031 Q233.5781 12.8594 233.7656 13.0547 Q233.9531 13.25 234.5156 13.25 L235.4375 13.25 L235.4375 14 L234.5156 14 Q233.4688 14 233.0703 13.6094 Q232.6719 13.2188 232.6719 12.2031 L232.6719 9.2344 L232.0156 9.2344 L232.0156 8.5312 L232.6719 8.5312 L232.6719 6.9844 L233.5781 6.9844 ZM236.6084 8.5312 L237.5146 8.5312 L237.5146 14 L236.6084 14 L236.6084 8.5312 ZM236.6084 6.4062 L237.5146 6.4062 L237.5146 7.5469 L236.6084 7.5469 L236.6084 6.4062 ZM238.7461 8.5312 L239.6992 8.5312 L241.4023 13.125 L243.1211 8.5312 L244.0742 8.5312 L242.0117 14 L240.793 14 L238.7461 8.5312 ZM249.9922 11.0469 L249.9922 11.4844 L245.8516 11.4844 Q245.9141 12.4062 246.4141 12.8906 Q246.9141 13.375 247.8047 13.375 Q248.3203 13.375 248.8125 13.25 Q249.3047 13.125 249.7734 12.875 L249.7734 13.7188 Q249.2891 13.9219 248.7812 14.0312 Q248.2734 14.1406 247.7578 14.1406 Q246.4453 14.1406 245.6797 13.3828 Q244.9141 12.625 244.9141 11.3125 Q244.9141 9.9688 245.6406 9.1875 Q246.3672 8.4062 247.6016 8.4062 Q248.7109 8.4062 249.3516 9.1094 Q249.9922 9.8125 249.9922 11.0469 ZM249.0859 10.7812 Q249.0859 10.0469 248.6797 9.6016 Q248.2734 9.1562 247.6172 9.1562 Q246.8516 9.1562 246.4062 9.5859 Q245.9609 10.0156 245.8828 10.7812 L249.0859 10.7812 ZM258.1201 8.6875 L258.1201 9.5469 Q257.7451 9.3438 257.3389 9.25 Q256.9326 9.1562 256.4795 9.1562 Q255.8232 9.1562 255.4873 9.3594 Q255.1514 9.5625 255.1514 9.9688 Q255.1514 10.2812 255.3857 10.4609 Q255.6201 10.6406 256.3545 10.7969 L256.6514 10.875 Q257.6201 11.0781 258.0186 11.4531 Q258.417 11.8281 258.417 12.4844 Q258.417 13.25 257.8154 13.6953 Q257.2139 14.1406 256.167 14.1406 Q255.7139 14.1406 255.2373 14.0547 Q254.7607 13.9688 254.2451 13.7969 L254.2451 12.875 Q254.7451 13.125 255.2217 13.2578 Q255.6982 13.3906 256.1826 13.3906 Q256.8076 13.3906 257.1514 13.1719 Q257.4951 12.9531 257.4951 12.5625 Q257.4951 12.1875 257.2529 11.9922 Q257.0107 11.7969 256.167 11.625 L255.8545 11.5469 Q255.0264 11.375 254.6514 11.0078 Q254.2764 10.6406 254.2764 10.0156 Q254.2764 9.2344 254.8232 8.8203 Q255.3701 8.4062 256.3857 8.4062 Q256.8701 8.4062 257.3154 8.4766 Q257.7607 8.5469 258.1201 8.6875 ZM260.7363 6.9844 L260.7363 8.5312 L262.5957 8.5312 L262.5957 9.2344 L260.7363 9.2344 L260.7363 12.2031 Q260.7363 12.8594 260.9238 13.0547 Q261.1113 13.25 261.6738 13.25 L262.5957 13.25 L262.5957 14 L261.6738 14 Q260.627 14 260.2285 13.6094 Q259.8301 13.2188 259.8301 12.2031 L259.8301 9.2344 L259.1738 9.2344 L259.1738 8.5312 L259.8301 8.5312 L259.8301 6.9844 L260.7363 6.9844 ZM266.9385 9.375 Q266.7822 9.2812 266.6104 9.2422 Q266.4385 9.2031 266.2197 9.2031 Q265.4541 9.2031 265.0479 9.6953 Q264.6416 10.1875 264.6416 11.125 L264.6416 14 L263.7354 14 L263.7354 8.5312 L264.6416 8.5312 L264.6416 9.375 Q264.9229 8.875 265.376 8.6406 Q265.8291 8.4062 266.4854 8.4062 Q266.5791 8.4062 266.6885 8.4141 Q266.7979 8.4219 266.9385 8.4531 L266.9385 9.375 ZM272.5654 11.0469 L272.5654 11.4844 L268.4248 11.4844 Q268.4873 12.4062 268.9873 12.8906 Q269.4873 13.375 270.3779 13.375 Q270.8936 13.375 271.3857 13.25 Q271.8779 13.125 272.3467 12.875 L272.3467 13.7188 Q271.8623 13.9219 271.3545 14.0312 Q270.8467 14.1406 270.3311 14.1406 Q269.0186 14.1406 268.2529 13.3828 Q267.4873 12.625 267.4873 11.3125 Q267.4873 9.9688 268.2139 9.1875 Q268.9404 8.4062 270.1748 8.4062 Q271.2842 8.4062 271.9248 9.1094 Q272.5654 9.8125 272.5654 11.0469 ZM271.6592 10.7812 Q271.6592 10.0469 271.2529 9.6016 Q270.8467 9.1562 270.1904 9.1562 Q269.4248 9.1562 268.9795 9.5859 Q268.5342 10.0156 268.4561 10.7812 L271.6592 10.7812 ZM277.5146 8.6875 L277.5146 9.5469 Q277.1396 9.3438 276.7334 9.25 Q276.3271 9.1562 275.874 9.1562 Q275.2178 9.1562 274.8818 9.3594 Q274.5459 9.5625 274.5459 9.9688 Q274.5459 10.2812 274.7803 10.4609 Q275.0146 10.6406 275.749 10.7969 L276.0459 10.875 Q277.0146 11.0781 277.4131 11.4531 Q277.8115 11.8281 277.8115 12.4844 Q277.8115 13.25 277.21 13.6953 Q276.6084 14.1406 275.5615 14.1406 Q275.1084 14.1406 274.6318 14.0547 Q274.1553 13.9688 273.6396 13.7969 L273.6396 12.875 Q274.1396 13.125 274.6162 13.2578 Q275.0928 13.3906 275.5771 13.3906 Q276.2021 13.3906 276.5459 13.1719 Q276.8896 12.9531 276.8896 12.5625 Q276.8896 12.1875 276.6475 11.9922 Q276.4053 11.7969 275.5615 11.625 L275.249 11.5469 Q274.4209 11.375 274.0459 11.0078 Q273.6709 10.6406 273.6709 10.0156 Q273.6709 9.2344 274.2178 8.8203 Q274.7646 8.4062 275.7803 8.4062 Q276.2646 8.4062 276.71 8.4766 Q277.1553 8.5469 277.5146 8.6875 ZM282.7246 8.6875 L282.7246 9.5469 Q282.3496 9.3438 281.9434 9.25 Q281.5371 9.1562 281.084 9.1562 Q280.4277 9.1562 280.0918 9.3594 Q279.7559 9.5625 279.7559 9.9688 Q279.7559 10.2812 279.9902 10.4609 Q280.2246 10.6406 280.959 10.7969 L281.2559 10.875 Q282.2246 11.0781 282.623 11.4531 Q283.0215 11.8281 283.0215 12.4844 Q283.0215 13.25 282.4199 13.6953 Q281.8184 14.1406 280.7715 14.1406 Q280.3184 14.1406 279.8418 14.0547 Q279.3652 13.9688 278.8496 13.7969 L278.8496 12.875 Q279.3496 13.125 279.8262 13.2578 Q280.3027 13.3906 280.7871 13.3906 Q281.4121 13.3906 281.7559 13.1719 Q282.0996 12.9531 282.0996 12.5625 Q282.0996 12.1875 281.8574 11.9922 Q281.6152 11.7969 280.7715 11.625 L280.459 11.5469 Q279.6309 11.375 279.2559 11.0078 Q278.8809 10.6406 278.8809 10.0156 Q278.8809 9.2344 279.4277 8.8203 Q279.9746 8.4062 280.9902 8.4062 Q281.4746 8.4062 281.9199 8.4766 Q282.3652 8.5469 282.7246 8.6875 ZM288.5039 13.1719 L288.5039 16.0781 L287.5977 16.0781 L287.5977 8.5312 L288.5039 8.5312 L288.5039 9.3594 Q288.7852 8.875 289.2148 8.6406 Q289.6445 8.4062 290.2539 8.4062 Q291.2539 8.4062 291.8711 9.1953 Q292.4883 9.9844 292.4883 11.2656 Q292.4883 12.5625 291.8711 13.3516 Q291.2539 14.1406 290.2539 14.1406 Q289.6445 14.1406 289.2148 13.9062 Q288.7852 13.6719 288.5039 13.1719 ZM291.5664 11.2656 Q291.5664 10.2812 291.1523 9.7188 Q290.7383 9.1562 290.0352 9.1562 Q289.3164 9.1562 288.9102 9.7188 Q288.5039 10.2812 288.5039 11.2656 Q288.5039 12.2656 288.9102 12.8281 Q289.3164 13.3906 290.0352 13.3906 Q290.7383 13.3906 291.1523 12.8281 Q291.5664 12.2656 291.5664 11.2656 ZM296.4609 11.25 Q295.3828 11.25 294.9609 11.5 Q294.5391 11.75 294.5391 12.3438 Q294.5391 12.8281 294.8516 13.1094 Q295.1641 13.3906 295.7109 13.3906 Q296.4609 13.3906 296.9141 12.8594 Q297.3672 12.3281 297.3672 11.4531 L297.3672 11.25 L296.4609 11.25 ZM298.2578 10.875 L298.2578 14 L297.3672 14 L297.3672 13.1719 Q297.0547 13.6719 296.5938 13.9062 Q296.1328 14.1406 295.4766 14.1406 Q294.6328 14.1406 294.1328 13.6719 Q293.6328 13.2031 293.6328 12.4062 Q293.6328 11.4844 294.2578 11.0156 Q294.8828 10.5469 296.1016 10.5469 L297.3672 10.5469 L297.3672 10.4531 Q297.3672 9.8438 296.9531 9.5 Q296.5391 9.1562 295.8047 9.1562 Q295.3359 9.1562 294.8906 9.2734 Q294.4453 9.3906 294.0391 9.6094 L294.0391 8.7812 Q294.5391 8.5938 295 8.5 Q295.4609 8.4062 295.8984 8.4062 Q297.0859 8.4062 297.6719 9.0156 Q298.2578 9.625 298.2578 10.875 ZM300.9951 6.9844 L300.9951 8.5312 L302.8545 8.5312 L302.8545 9.2344 L300.9951 9.2344 L300.9951 12.2031 Q300.9951 12.8594 301.1826 13.0547 Q301.3701 13.25 301.9326 13.25 L302.8545 13.25 L302.8545 14 L301.9326 14 Q300.8857 14 300.4873 13.6094 Q300.0889 13.2188 300.0889 12.2031 L300.0889 9.2344 L299.4326 9.2344 L299.4326 8.5312 L300.0889 8.5312 L300.0889 6.9844 L300.9951 6.9844 ZM308.5723 10.7031 L308.5723 14 L307.6816 14 L307.6816 10.7344 Q307.6816 9.9531 307.377 9.5703 Q307.0723 9.1875 306.4629 9.1875 Q305.7441 9.1875 305.3223 9.6484 Q304.9004 10.1094 304.9004 10.9062 L304.9004 14 L303.9941 14 L303.9941 6.4062 L304.9004 6.4062 L304.9004 9.375 Q305.2285 8.8906 305.666 8.6484 Q306.1035 8.4062 306.666 8.4062 Q307.6035 8.4062 308.0879 8.9844 Q308.5723 9.5625 308.5723 10.7031 ZM309.8477 8.5312 L310.7383 8.5312 L311.8633 12.7969 L312.9883 8.5312 L314.0508 8.5312 L315.1758 12.7969 L316.2852 8.5312 L317.1914 8.5312 L315.7539 14 L314.6914 14 L313.5195 9.5156 L312.332 14 L311.2695 14 L309.8477 8.5312 ZM321.0264 11.25 Q319.9482 11.25 319.5264 11.5 Q319.1045 11.75 319.1045 12.3438 Q319.1045 12.8281 319.417 13.1094 Q319.7295 13.3906 320.2764 13.3906 Q321.0264 13.3906 321.4795 12.8594 Q321.9326 12.3281 321.9326 11.4531 L321.9326 11.25 L321.0264 11.25 ZM322.8232 10.875 L322.8232 14 L321.9326 14 L321.9326 13.1719 Q321.6201 13.6719 321.1592 13.9062 Q320.6982 14.1406 320.042 14.1406 Q319.1982 14.1406 318.6982 13.6719 Q318.1982 13.2031 318.1982 12.4062 Q318.1982 11.4844 318.8232 11.0156 Q319.4482 10.5469 320.667 10.5469 L321.9326 10.5469 L321.9326 10.4531 Q321.9326 9.8438 321.5186 9.5 Q321.1045 9.1562 320.3701 9.1562 Q319.9014 9.1562 319.4561 9.2734 Q319.0107 9.3906 318.6045 9.6094 L318.6045 8.7812 Q319.1045 8.5938 319.5654 8.5 Q320.0264 8.4062 320.4639 8.4062 Q321.6514 8.4062 322.2373 9.0156 Q322.8232 9.625 322.8232 10.875 ZM326.9512 14.5156 Q326.5762 15.4844 326.209 15.7812 Q325.8418 16.0781 325.248 16.0781 L324.5293 16.0781 L324.5293 15.3281 L325.0449 15.3281 Q325.4199 15.3281 325.623 15.1562 Q325.8262 14.9844 326.0762 14.3281 L326.248 13.9062 L324.0293 8.5312 L324.9824 8.5312 L326.6855 12.8125 L328.4043 8.5312 L329.3574 8.5312 L326.9512 14.5156 Z"
         style="clip-path:url(#clipPath2); stroke:none;"
         clip-path="url(#clipPath2)"
         id="path193" />
      <path
         d="M4.25 21.9375 Q3.3906 21.9375 2.9141 22.5703 Q2.4375 23.2031 2.4375 24.3594 Q2.4375 25.5156 2.9141 26.1484 Q3.3906 26.7812 4.25 26.7812 Q5.1094 26.7812 5.5859 26.1484 Q6.0625 25.5156 6.0625 24.3594 Q6.0625 23.2031 5.5859 22.5703 Q5.1094 21.9375 4.25 21.9375 ZM4.25 20.5781 Q6 20.5781 7 21.5859 Q8 22.5938 8 24.3594 Q8 26.125 7 27.1328 Q6 28.1406 4.25 28.1406 Q2.5 28.1406 1.5 27.1328 Q0.5 26.125 0.5 24.3594 Q0.5 22.5938 1.5 21.5859 Q2.5 20.5781 4.25 20.5781 ZM13.4072 24.0156 Q13.1729 23.9062 12.9463 23.8594 Q12.7197 23.8125 12.4854 23.8125 Q11.8135 23.8125 11.4541 24.2422 Q11.0947 24.6719 11.0947 25.4844 L11.0947 28 L9.3447 28 L9.3447 22.5312 L11.0947 22.5312 L11.0947 23.4219 Q11.4229 22.8906 11.8604 22.6484 Q12.2979 22.4062 12.9072 22.4062 Q13.001 22.4062 13.1025 22.4062 Q13.2041 22.4062 13.3916 22.4375 L13.4072 24.0156 ZM17.9951 27.0781 Q17.6357 27.5469 17.1982 27.7734 Q16.7607 28 16.1982 28 Q15.1982 28 14.542 27.2109 Q13.8857 26.4219 13.8857 25.2031 Q13.8857 23.9688 14.542 23.1875 Q15.1982 22.4062 16.1982 22.4062 Q16.7607 22.4062 17.1982 22.6328 Q17.6357 22.8594 17.9951 23.3438 L17.9951 22.5312 L19.7451 22.5312 L19.7451 27.4531 Q19.7451 28.7656 18.917 29.4609 Q18.0889 30.1562 16.5107 30.1562 Q15.9951 30.1562 15.5186 30.0781 Q15.042 30 14.5576 29.8438 L14.5576 28.4844 Q15.0107 28.75 15.4482 28.875 Q15.8857 29 16.3389 29 Q17.1982 29 17.5967 28.625 Q17.9951 28.25 17.9951 27.4531 L17.9951 27.0781 ZM16.8389 23.6719 Q16.292 23.6719 15.9951 24.0703 Q15.6982 24.4688 15.6982 25.2031 Q15.6982 25.9531 15.9873 26.3438 Q16.2764 26.7344 16.8389 26.7344 Q17.3857 26.7344 17.6904 26.3281 Q17.9951 25.9219 17.9951 25.2031 Q17.9951 24.4688 17.6904 24.0703 Q17.3857 23.6719 16.8389 23.6719 ZM23.8877 25.5312 Q23.3408 25.5312 23.0596 25.7188 Q22.7783 25.9062 22.7783 26.2656 Q22.7783 26.6094 23.0049 26.7969 Q23.2314 26.9844 23.6221 26.9844 Q24.1221 26.9844 24.458 26.625 Q24.7939 26.2656 24.7939 25.7344 L24.7939 25.5312 L23.8877 25.5312 ZM26.5596 24.875 L26.5596 28 L24.7939 28 L24.7939 27.1875 Q24.4346 27.6875 23.9971 27.9141 Q23.5596 28.1406 22.9346 28.1406 Q22.0752 28.1406 21.5518 27.6484 Q21.0283 27.1562 21.0283 26.3594 Q21.0283 25.3906 21.6846 24.9453 Q22.3408 24.5 23.7627 24.5 L24.7939 24.5 L24.7939 24.3594 Q24.7939 23.9531 24.4658 23.7578 Q24.1377 23.5625 23.4502 23.5625 Q22.8877 23.5625 22.4033 23.6719 Q21.9189 23.7812 21.4971 24.0156 L21.4971 22.6719 Q22.0596 22.5469 22.6299 22.4766 Q23.2002 22.4062 23.7627 22.4062 Q25.2471 22.4062 25.9033 22.9844 Q26.5596 23.5625 26.5596 24.875 ZM33.6826 24.6719 L33.6826 28 L31.917 28 L31.917 27.4531 L31.917 25.4531 Q31.917 24.75 31.8857 24.4766 Q31.8545 24.2031 31.7764 24.0781 Q31.6826 23.9062 31.5029 23.8125 Q31.3232 23.7188 31.1045 23.7188 Q30.5576 23.7188 30.2451 24.1406 Q29.9326 24.5625 29.9326 25.3125 L29.9326 28 L28.1826 28 L28.1826 22.5312 L29.9326 22.5312 L29.9326 23.3281 Q30.3232 22.8594 30.7686 22.6328 Q31.2139 22.4062 31.7451 22.4062 Q32.6982 22.4062 33.1904 22.9844 Q33.6826 23.5625 33.6826 24.6719 ZM35.3018 22.5312 L37.0518 22.5312 L37.0518 28 L35.3018 28 L35.3018 22.5312 ZM35.3018 20.4062 L37.0518 20.4062 L37.0518 21.8281 L35.3018 21.8281 L35.3018 20.4062 ZM42.9951 22.7031 L42.9951 24.0312 Q42.4326 23.7969 41.9092 23.6797 Q41.3857 23.5625 40.9326 23.5625 Q40.4326 23.5625 40.1904 23.6875 Q39.9482 23.8125 39.9482 24.0625 Q39.9482 24.2812 40.1279 24.3906 Q40.3076 24.5 40.792 24.5625 L41.0889 24.5938 Q42.4326 24.7656 42.9014 25.1562 Q43.3701 25.5469 43.3701 26.3906 Q43.3701 27.2656 42.7217 27.7031 Q42.0732 28.1406 40.792 28.1406 Q40.2607 28.1406 39.6826 28.0547 Q39.1045 27.9688 38.4795 27.7969 L38.4795 26.4688 Q39.0107 26.7188 39.5576 26.8516 Q40.1045 26.9844 40.667 26.9844 Q41.1826 26.9844 41.4404 26.8438 Q41.6982 26.7031 41.6982 26.4219 Q41.6982 26.1875 41.5264 26.0703 Q41.3545 25.9531 40.8232 25.8906 L40.5107 25.8438 Q39.3389 25.7031 38.8701 25.3047 Q38.4014 24.9062 38.4014 24.1094 Q38.4014 23.2344 38.9951 22.8203 Q39.5889 22.4062 40.8232 22.4062 Q41.3076 22.4062 41.8389 22.4766 Q42.3701 22.5469 42.9951 22.7031 ZM49.7441 23.4375 Q50.0723 22.9375 50.5332 22.6719 Q50.9941 22.4062 51.541 22.4062 Q52.4785 22.4062 52.9707 22.9844 Q53.4629 23.5625 53.4629 24.6719 L53.4629 28 L51.7129 28 L51.7129 25.1406 Q51.7129 25.0781 51.7129 25.0156 Q51.7129 24.9531 51.7129 24.8281 Q51.7129 24.2344 51.5488 23.9766 Q51.3848 23.7188 50.9941 23.7188 Q50.4941 23.7188 50.2285 24.125 Q49.9629 24.5312 49.9473 25.3125 L49.9473 28 L48.1816 28 L48.1816 25.1406 Q48.1816 24.2344 48.0254 23.9766 Q47.8691 23.7188 47.4785 23.7188 Q46.9785 23.7188 46.7051 24.1328 Q46.4316 24.5469 46.4316 25.3125 L46.4316 28 L44.666 28 L44.666 22.5312 L46.4316 22.5312 L46.4316 23.3281 Q46.7441 22.875 47.166 22.6406 Q47.5879 22.4062 48.0879 22.4062 Q48.6504 22.4062 49.0879 22.6797 Q49.5254 22.9531 49.7441 23.4375 ZM55.3828 22.5312 L57.1328 22.5312 L57.1328 24.4219 L55.3828 24.4219 L55.3828 22.5312 ZM55.3828 26.1094 L57.1328 26.1094 L57.1328 28 L55.3828 28 L55.3828 26.1094 Z"
         style="clip-path:url(#clipPath2); stroke:none;"
         clip-path="url(#clipPath2)"
         id="path195" />
      <path
         d="M66.9844 20.7031 L67.9688 20.7031 L67.9688 23.7031 L71.5469 23.7031 L71.5469 20.7031 L72.5312 20.7031 L72.5312 28 L71.5469 28 L71.5469 24.5312 L67.9688 24.5312 L67.9688 28 L66.9844 28 L66.9844 20.7031 ZM76.582 23.1562 Q75.8633 23.1562 75.4414 23.7188 Q75.0195 24.2812 75.0195 25.2656 Q75.0195 26.25 75.4336 26.8125 Q75.8477 27.375 76.582 27.375 Q77.3008 27.375 77.7227 26.8125 Q78.1445 26.25 78.1445 25.2656 Q78.1445 24.2969 77.7227 23.7266 Q77.3008 23.1562 76.582 23.1562 ZM76.582 22.4062 Q77.7539 22.4062 78.4258 23.1641 Q79.0977 23.9219 79.0977 25.2656 Q79.0977 26.6094 78.4258 27.375 Q77.7539 28.1406 76.582 28.1406 Q75.4102 28.1406 74.7383 27.375 Q74.0664 26.6094 74.0664 25.2656 Q74.0664 23.9219 74.7383 23.1641 Q75.4102 22.4062 76.582 22.4062 ZM84.8408 23.5781 Q85.1689 22.9688 85.6377 22.6875 Q86.1064 22.4062 86.7471 22.4062 Q87.6064 22.4062 88.0674 23 Q88.5283 23.5938 88.5283 24.7031 L88.5283 28 L87.6221 28 L87.6221 24.7344 Q87.6221 23.9375 87.3486 23.5625 Q87.0752 23.1875 86.4971 23.1875 Q85.7939 23.1875 85.3955 23.6484 Q84.9971 24.1094 84.9971 24.9062 L84.9971 28 L84.0908 28 L84.0908 24.7344 Q84.0908 23.9375 83.8096 23.5625 Q83.5283 23.1875 82.9502 23.1875 Q82.2627 23.1875 81.8564 23.6484 Q81.4502 24.1094 81.4502 24.9062 L81.4502 28 L80.5439 28 L80.5439 22.5312 L81.4502 22.5312 L81.4502 23.375 Q81.7627 22.875 82.1924 22.6406 Q82.6221 22.4062 83.2002 22.4062 Q83.8096 22.4062 84.2236 22.7031 Q84.6377 23 84.8408 23.5781 ZM92.4414 23.1562 Q91.7227 23.1562 91.3008 23.7188 Q90.8789 24.2812 90.8789 25.2656 Q90.8789 26.25 91.293 26.8125 Q91.707 27.375 92.4414 27.375 Q93.1602 27.375 93.582 26.8125 Q94.0039 26.25 94.0039 25.2656 Q94.0039 24.2969 93.582 23.7266 Q93.1602 23.1562 92.4414 23.1562 ZM92.4414 22.4062 Q93.6133 22.4062 94.2852 23.1641 Q94.957 23.9219 94.957 25.2656 Q94.957 26.6094 94.2852 27.375 Q93.6133 28.1406 92.4414 28.1406 Q91.2695 28.1406 90.5977 27.375 Q89.9258 26.6094 89.9258 25.2656 Q89.9258 23.9219 90.5977 23.1641 Q91.2695 22.4062 92.4414 22.4062 ZM103.0977 22.6875 L103.0977 23.5469 Q102.7227 23.3438 102.3164 23.25 Q101.9102 23.1562 101.457 23.1562 Q100.8008 23.1562 100.4648 23.3594 Q100.1289 23.5625 100.1289 23.9688 Q100.1289 24.2812 100.3633 24.4609 Q100.5977 24.6406 101.332 24.7969 L101.6289 24.875 Q102.5977 25.0781 102.9961 25.4531 Q103.3945 25.8281 103.3945 26.4844 Q103.3945 27.25 102.793 27.6953 Q102.1914 28.1406 101.1445 28.1406 Q100.6914 28.1406 100.2148 28.0547 Q99.7383 27.9688 99.2227 27.7969 L99.2227 26.875 Q99.7227 27.125 100.1992 27.2578 Q100.6758 27.3906 101.1602 27.3906 Q101.7852 27.3906 102.1289 27.1719 Q102.4727 26.9531 102.4727 26.5625 Q102.4727 26.1875 102.2305 25.9922 Q101.9883 25.7969 101.1445 25.625 L100.832 25.5469 Q100.0039 25.375 99.6289 25.0078 Q99.2539 24.6406 99.2539 24.0156 Q99.2539 23.2344 99.8008 22.8203 Q100.3477 22.4062 101.3633 22.4062 Q101.8477 22.4062 102.293 22.4766 Q102.7383 22.5469 103.0977 22.6875 ZM107.3076 25.25 Q106.2295 25.25 105.8076 25.5 Q105.3857 25.75 105.3857 26.3438 Q105.3857 26.8281 105.6982 27.1094 Q106.0107 27.3906 106.5576 27.3906 Q107.3076 27.3906 107.7607 26.8594 Q108.2139 26.3281 108.2139 25.4531 L108.2139 25.25 L107.3076 25.25 ZM109.1045 24.875 L109.1045 28 L108.2139 28 L108.2139 27.1719 Q107.9014 27.6719 107.4404 27.9062 Q106.9795 28.1406 106.3232 28.1406 Q105.4795 28.1406 104.9795 27.6719 Q104.4795 27.2031 104.4795 26.4062 Q104.4795 25.4844 105.1045 25.0156 Q105.7295 24.5469 106.9482 24.5469 L108.2139 24.5469 L108.2139 24.4531 Q108.2139 23.8438 107.7998 23.5 Q107.3857 23.1562 106.6514 23.1562 Q106.1826 23.1562 105.7373 23.2734 Q105.292 23.3906 104.8857 23.6094 L104.8857 22.7812 Q105.3857 22.5938 105.8467 22.5 Q106.3076 22.4062 106.7451 22.4062 Q107.9326 22.4062 108.5186 23.0156 Q109.1045 23.625 109.1045 24.875 ZM111.8262 27.1719 L111.8262 30.0781 L110.9199 30.0781 L110.9199 22.5312 L111.8262 22.5312 L111.8262 23.3594 Q112.1074 22.875 112.5371 22.6406 Q112.9668 22.4062 113.5762 22.4062 Q114.5762 22.4062 115.1934 23.1953 Q115.8105 23.9844 115.8105 25.2656 Q115.8105 26.5625 115.1934 27.3516 Q114.5762 28.1406 113.5762 28.1406 Q112.9668 28.1406 112.5371 27.9062 Q112.1074 27.6719 111.8262 27.1719 ZM114.8887 25.2656 Q114.8887 24.2812 114.4746 23.7188 Q114.0605 23.1562 113.3574 23.1562 Q112.6387 23.1562 112.2324 23.7188 Q111.8262 24.2812 111.8262 25.2656 Q111.8262 26.2656 112.2324 26.8281 Q112.6387 27.3906 113.3574 27.3906 Q114.0605 27.3906 114.4746 26.8281 Q114.8887 26.2656 114.8887 25.2656 ZM117.2988 22.5312 L118.2051 22.5312 L118.2051 28 L117.2988 28 L117.2988 22.5312 ZM117.2988 20.4062 L118.2051 20.4062 L118.2051 21.5469 L117.2988 21.5469 L117.2988 20.4062 ZM124.7646 25.0469 L124.7646 25.4844 L120.624 25.4844 Q120.6865 26.4062 121.1865 26.8906 Q121.6865 27.375 122.5771 27.375 Q123.0928 27.375 123.585 27.25 Q124.0771 27.125 124.5459 26.875 L124.5459 27.7188 Q124.0615 27.9219 123.5537 28.0312 Q123.0459 28.1406 122.5303 28.1406 Q121.2178 28.1406 120.4521 27.3828 Q119.6865 26.625 119.6865 25.3125 Q119.6865 23.9688 120.4131 23.1875 Q121.1396 22.4062 122.374 22.4062 Q123.4834 22.4062 124.124 23.1094 Q124.7646 23.8125 124.7646 25.0469 ZM123.8584 24.7812 Q123.8584 24.0469 123.4521 23.6016 Q123.0459 23.1562 122.3896 23.1562 Q121.624 23.1562 121.1787 23.5859 Q120.7334 24.0156 120.6553 24.7812 L123.8584 24.7812 ZM130.7764 24.7031 L130.7764 28 L129.8857 28 L129.8857 24.7344 Q129.8857 23.9531 129.5811 23.5703 Q129.2764 23.1875 128.667 23.1875 Q127.9482 23.1875 127.5264 23.6484 Q127.1045 24.1094 127.1045 24.9062 L127.1045 28 L126.1982 28 L126.1982 22.5312 L127.1045 22.5312 L127.1045 23.375 Q127.4326 22.8906 127.8701 22.6484 Q128.3076 22.4062 128.8701 22.4062 Q129.8076 22.4062 130.292 22.9844 Q130.7764 23.5625 130.7764 24.7031 ZM136.0518 22.6875 L136.0518 23.5469 Q135.6768 23.3438 135.2705 23.25 Q134.8643 23.1562 134.4111 23.1562 Q133.7549 23.1562 133.4189 23.3594 Q133.083 23.5625 133.083 23.9688 Q133.083 24.2812 133.3174 24.4609 Q133.5518 24.6406 134.2861 24.7969 L134.583 24.875 Q135.5518 25.0781 135.9502 25.4531 Q136.3486 25.8281 136.3486 26.4844 Q136.3486 27.25 135.7471 27.6953 Q135.1455 28.1406 134.0986 28.1406 Q133.6455 28.1406 133.1689 28.0547 Q132.6924 27.9688 132.1768 27.7969 L132.1768 26.875 Q132.6768 27.125 133.1533 27.2578 Q133.6299 27.3906 134.1143 27.3906 Q134.7393 27.3906 135.083 27.1719 Q135.4268 26.9531 135.4268 26.5625 Q135.4268 26.1875 135.1846 25.9922 Q134.9424 25.7969 134.0986 25.625 L133.7861 25.5469 Q132.958 25.375 132.583 25.0078 Q132.208 24.6406 132.208 24.0156 Q132.208 23.2344 132.7549 22.8203 Q133.3018 22.4062 134.3174 22.4062 Q134.8018 22.4062 135.2471 22.4766 Q135.6924 22.5469 136.0518 22.6875 Z"
         style="clip-path:url(#clipPath2); stroke:none;"
         clip-path="url(#clipPath2)"
         id="path197" />
    </g>
    <g
       style="fill:navy; text-rendering:geometricPrecision; font-size:8; stroke:navy;"
       id="g203">
      <text
         x="335"
         xml:space="preserve"
         y="16"
         style="clip-path:url(#clipPath4); stroke:none;"
         clip-path="url(#clipPath4)"
         id="text201">1</text>
    </g>
    <g
       style="fill:gray; text-rendering:geometricPrecision; font-size:32; stroke:gray;"
       id="g207">
      <text
         x="723"
         xml:space="preserve"
         y="297"
         style="clip-path:url(#clipPath5); stroke:none;"
         clip-path="url(#clipPath5)"
         id="text205" />
    </g>
    <g
       style="fill:rgb(0,255,0); text-rendering:geometricPrecision; fill-opacity:0.0471; font-size:32; stroke-opacity:0.0471; stroke:rgb(0,255,0);"
       id="g211">
      <rect
         x="631"
         y="247"
         width="185"
         style="clip-path:url(#clipPath5); stroke:none;"
         height="64"
         clip-path="url(#clipPath5)"
         id="rect209" />
    </g>
    <g
       style="fill:gray; text-rendering:geometricPrecision; stroke-dasharray:4,2; font-size:32; stroke-miterlimit:1; stroke:gray;"
       id="g215">
      <rect
         x="631"
         y="247"
         width="184"
         style="fill:none; clip-path:url(#clipPath5);"
         height="63"
         clip-path="url(#clipPath5)"
         id="rect213" />
    </g>
    <g
       style="fill:gray; text-rendering:geometricPrecision; font-size:32; stroke:gray;"
       id="g219">
      <text
         x="463"
         xml:space="preserve"
         y="272"
         style="clip-path:url(#clipPath6); stroke:none;"
         clip-path="url(#clipPath6)"
         id="text217" />
    </g>
    <g
       style="fill:rgb(0,255,0); text-rendering:geometricPrecision; fill-opacity:0.0471; font-size:32; stroke-opacity:0.0471; stroke:rgb(0,255,0);"
       id="g223">
      <rect
         x="360"
         y="208"
         width="207"
         style="clip-path:url(#clipPath6); stroke:none;"
         height="92"
         clip-path="url(#clipPath6)"
         id="rect221" />
    </g>
    <g
       style="fill:gray; text-rendering:geometricPrecision; stroke-dasharray:4,2; font-size:32; stroke-miterlimit:1; stroke:gray;"
       id="g227">
      <rect
         x="360"
         y="208"
         width="206"
         style="fill:none; clip-path:url(#clipPath6);"
         height="91"
         clip-path="url(#clipPath6)"
         id="rect225" />
    </g>
    <g
       style="fill:rgb(204,0,0); text-rendering:geometricPrecision; stroke-width:1.5; stroke:rgb(204,0,0);"
       id="g231">
      <path
         d="M340 69 L331 640"
         style="fill:none; clip-path:url(#clipPath7);"
         clip-path="url(#clipPath7)"
         id="path229" />
    </g>
    <g
       style="fill:rgb(51,153,0); text-rendering:geometricPrecision; stroke-width:1.5; stroke:rgb(51,153,0);"
       id="g237">
      <path
         d="M577 495 L236.0476 640"
         style="fill:none; clip-path:url(#clipPath8);"
         clip-path="url(#clipPath8)"
         id="path233" />
      <path
         d="M236.0476 640 L250.3266 640.2302 L245.7868 629.5554 Z"
         style="clip-path:url(#clipPath8); fill-rule:evenodd; stroke:none;"
         clip-path="url(#clipPath8)"
         id="path235" />
    </g>
    <g
       style="fill:rgb(51,153,0); text-rendering:geometricPrecision; stroke-width:1.5; stroke:rgb(51,153,0);"
       id="g243">
      <path
         d="M577 495 L209 575"
         style="fill:none; clip-path:url(#clipPath9);"
         clip-path="url(#clipPath9)"
         id="path239" />
      <path
         d="M209 575 L222.9842 577.8954 L220.5201 566.5602 Z"
         style="clip-path:url(#clipPath9); fill-rule:evenodd; stroke:none;"
         clip-path="url(#clipPath9)"
         id="path241" />
    </g>
    <g
       style="fill:rgb(51,153,0); text-rendering:geometricPrecision; stroke-width:1.5; stroke-dasharray:4,4; stroke:rgb(51,153,0);"
       id="g249">
      <path
         d="M464.1429 301.4524 L529 453"
         style="fill:none; clip-path:url(#clipPath10);"
         clip-path="url(#clipPath10)"
         id="path245" />
      <path
         d="M529 453 L529.1977 438.7205 L518.5333 443.2845 Z"
         style="stroke-dasharray:none; clip-path:url(#clipPath10); fill-rule:evenodd; stroke:none;"
         clip-path="url(#clipPath10)"
         id="path247" />
    </g>
    <g
       style="fill:rgb(204,0,0); text-rendering:geometricPrecision; stroke-width:1.5; stroke:rgb(204,0,0);"
       id="g253">
      <path
         d="M648.5714 56.1905 L697.1429 56.1905"
         style="fill:none; clip-path:url(#clipPath11);"
         clip-path="url(#clipPath11)"
         id="path251" />
    </g>
    <g
       style="text-rendering:geometricPrecision;"
       id="g259">
      <path
         d="M169 585 L87 640"
         style="fill:none; clip-path:url(#clipPath12);"
         clip-path="url(#clipPath12)"
         id="path255" />
      <path
         d="M87 640 L99.6133 637.8012 L93.8201 629.1641 Z"
         style="clip-path:url(#clipPath12); fill-rule:evenodd; stroke:none;"
         clip-path="url(#clipPath12)"
         id="path257" />
    </g>
    <g
       style="fill:rgb(204,0,0); text-rendering:geometricPrecision; stroke-width:1.5; stroke:rgb(204,0,0);"
       id="g263">
      <path
         d="M557 161 L396.5238 216.6667"
         style="fill:none; clip-path:url(#clipPath13);"
         clip-path="url(#clipPath13)"
         id="path261" />
    </g>
    <g
       style="fill:rgb(102,0,153); text-rendering:geometricPrecision; stroke-width:1.5; stroke:rgb(102,0,153);"
       id="g271">
      <path
         d="M102.5 253 L102.5 176"
         style="fill:none; clip-path:url(#clipPath14);"
         clip-path="url(#clipPath14)"
         id="path265" />
      <path
         d="M92.35 176 L92.35 174.55 L114.1 174.55 L114.1 176 L92.35 176 Z"
         style="fill:white; clip-path:url(#clipPath14); stroke:none;"
         clip-path="url(#clipPath14)"
         id="path267" />
      <path
         d="M92.35 176 L92.35 174.55 L114.1 174.55 L114.1 176 L92.35 176 Z"
         style="fill:none; clip-path:url(#clipPath14);"
         clip-path="url(#clipPath14)"
         id="path269" />
    </g>
    <g
       style="fill:rgb(51,153,0); text-rendering:geometricPrecision; stroke-width:1.5; stroke-dasharray:4,4; stroke:rgb(51,153,0);"
       id="g277">
      <path
         d="M724.1429 312.881 L625 453"
         style="fill:none; clip-path:url(#clipPath15);"
         clip-path="url(#clipPath15)"
         id="path273" />
      <path
         d="M625 453 L637.2723 445.6971 L627.803 438.9969 Z"
         style="stroke-dasharray:none; clip-path:url(#clipPath15); fill-rule:evenodd; stroke:none;"
         clip-path="url(#clipPath15)"
         id="path275" />
    </g>
    <g
       style="fill:rgb(51,153,0); text-rendering:geometricPrecision; stroke-width:1.5; stroke:rgb(51,153,0);"
       id="g283">
      <path
         d="M577 161 L577 439"
         style="fill:none; clip-path:url(#clipPath16);"
         clip-path="url(#clipPath16)"
         id="path279" />
      <path
         d="M577 161 L571.2 174.05 L582.8 174.05 Z"
         style="clip-path:url(#clipPath16); fill-rule:evenodd; stroke:none;"
         clip-path="url(#clipPath16)"
         id="path281" />
    </g>
    <g
       style="fill:rgb(204,0,0); text-rendering:geometricPrecision; stroke-width:1.5; stroke:rgb(204,0,0);"
       id="g287">
      <path
         d="M380 59 L557 141"
         style="fill:none; clip-path:url(#clipPath17);"
         clip-path="url(#clipPath17)"
         id="path285" />
    </g>
    <g
       style="fill:rgb(51,153,0); text-rendering:geometricPrecision; stroke-width:1.5; stroke:rgb(51,153,0);"
       id="g293">
      <path
         d="M577 495 L351 640"
         style="fill:none; clip-path:url(#clipPath18);"
         clip-path="url(#clipPath18)"
         id="path289" />
      <path
         d="M351 640 L365.1157 637.8346 L358.8517 628.0713 Z"
         style="clip-path:url(#clipPath18); fill-rule:evenodd; stroke:none;"
         clip-path="url(#clipPath18)"
         id="path291" />
    </g>
    <g
       style="fill:rgb(204,0,0); text-rendering:geometricPrecision; stroke-width:1.5; stroke:rgb(204,0,0);"
       id="g297">
      <path
         d="M340 69 L87 640"
         style="fill:none; clip-path:url(#clipPath19);"
         clip-path="url(#clipPath19)"
         id="path295" />
    </g>
    <g
       style="fill:rgb(204,0,0); text-rendering:geometricPrecision; stroke-width:1.5; stroke:rgb(204,0,0);"
       id="g301">
      <path
         d="M300 59 L122.5 149"
         style="fill:none; clip-path:url(#clipPath20);"
         clip-path="url(#clipPath20)"
         id="path299" />
    </g>
    <g
       style="fill:rgb(204,0,0); text-rendering:geometricPrecision; stroke-width:1.5; stroke:rgb(204,0,0);"
       id="g305">
      <path
         d="M597 161 L679.381 256"
         style="fill:none; clip-path:url(#clipPath21);"
         clip-path="url(#clipPath21)"
         id="path303" />
    </g>
    <g
       style="fill:rgb(51,153,0); text-rendering:geometricPrecision; stroke-width:1.5; stroke-dasharray:4,4; stroke:rgb(51,153,0);"
       id="g311">
      <path
         d="M159 280.5 L529 467"
         style="fill:none; clip-path:url(#clipPath22);"
         clip-path="url(#clipPath22)"
         id="path307" />
      <path
         d="M529 467 L519.9573 455.9468 L514.7361 466.3054 Z"
         style="stroke-dasharray:none; clip-path:url(#clipPath22); fill-rule:evenodd; stroke:none;"
         clip-path="url(#clipPath22)"
         id="path309" />
    </g>
    <g
       style="fill:rgb(204,0,0); text-rendering:geometricPrecision; stroke-width:1.5; stroke:rgb(204,0,0);"
       id="g315">
      <path
         d="M340 69 L216.0476 640"
         style="fill:none; clip-path:url(#clipPath23);"
         clip-path="url(#clipPath23)"
         id="path313" />
    </g>
    <g
       style="fill:rgb(51,153,0); text-rendering:geometricPrecision; stroke-width:1.5; stroke:rgb(51,153,0);"
       id="g321">
      <path
         d="M577 495 L483 640"
         style="fill:none; clip-path:url(#clipPath24);"
         clip-path="url(#clipPath24)"
         id="path317" />
      <path
         d="M483 640 L494.9656 632.2047 L485.232 625.8947 Z"
         style="clip-path:url(#clipPath24); fill-rule:evenodd; stroke:none;"
         clip-path="url(#clipPath24)"
         id="path319" />
    </g>
    <g
       style="text-rendering:geometricPrecision;"
       id="g325">
      <path
         d="M635.4762 17.381 L1027.619 17.381 L1027.619 155.2381 L635.4762 155.2381 L635.4762 17.381 Z"
         style="fill:none; clip-path:url(#clipPath25);"
         clip-path="url(#clipPath25)"
         id="path323" />
    </g>
    <g
       style="font-weight:bold; text-rendering:geometricPrecision;"
       id="g329">
      <text
         x="565"
         xml:space="preserve"
         y="541"
         style="clip-path:url(#clipPath26); stroke:none;"
         clip-path="url(#clipPath26)"
         id="text327">OS pathway</text>
    </g>
    <g
       style="font-weight:bold; text-rendering:geometricPrecision;"
       id="g333">
      <text
         x="675"
         xml:space="preserve"
         y="296"
         style="clip-path:url(#clipPath27); stroke:none;"
         clip-path="url(#clipPath27)"
         id="text331">TGFB Pathway</text>
    </g>
    <g
       style="fill:white; text-rendering:geometricPrecision; stroke:white;"
       id="g339">
      <path
         d="M159 280.5 L130.75 304.3157 L74.25 304.3157 L46 280.5 L74.25 256.6843 L130.75 256.6843 Z"
         style="clip-path:url(#clipPath28); stroke:none;"
         clip-path="url(#clipPath28)"
         id="path335" />
      <path
         d="M159 280.5 L130.75 304.3157 L74.25 304.3157 L46 280.5 L74.25 256.6843 L130.75 256.6843 Z"
         style="fill:none; clip-path:url(#clipPath28); stroke:black;"
         clip-path="url(#clipPath28)"
         id="path337" />
    </g>
    <g
       style="font-weight:bold; font-size:14; text-rendering:geometricPrecision;"
       id="g345">
      <text
         x="65"
         xml:space="preserve"
         y="276"
         style="clip-path:url(#clipPath28); stroke:none;"
         clip-path="url(#clipPath28)"
         id="text341">Oxidative</text>
      <text
         x="69"
         xml:space="preserve"
         y="292"
         style="clip-path:url(#clipPath28); stroke:none;"
         clip-path="url(#clipPath28)"
         id="text343">Stresses</text>
    </g>
    <g
       style="font-weight:bold; text-rendering:geometricPrecision;"
       id="g349">
      <text
         x="399"
         xml:space="preserve"
         y="285"
         style="clip-path:url(#clipPath29); stroke:none;"
         clip-path="url(#clipPath29)"
         id="text347">RTK/MAPK Pathway</text>
    </g>
    <g
       style="font-weight:bold; text-rendering:geometricPrecision;"
       id="g353">
      <text
         x="645"
         xml:space="preserve"
         y="36"
         style="clip-path:url(#clipPath30); stroke:none;"
         clip-path="url(#clipPath30)"
         id="text351">Legend</text>
    </g>
    <g
       style="fill:white; text-rendering:geometricPrecision; stroke:white;"
       id="g361">
      <path
         d="M537 447 L617 447 L617 467 L537 467 L537 447 Z"
         style="clip-path:url(#clipPath31); stroke:none;"
         clip-path="url(#clipPath31)"
         id="path355" />
      <path
         d="M537 447 L617 447 L617 467 L537 467 L537 447 Z"
         style="fill:none; clip-path:url(#clipPath31); stroke:black;"
         clip-path="url(#clipPath31)"
         id="path357" />
      <text
         x="564"
         y="460"
         style="font-size:10; clip-path:url(#clipPath31); fill:black; stroke:none;"
         xml:space="preserve"
         clip-path="url(#clipPath31)"
         id="text359">NRF1</text>
    </g>
    <g
       style="fill:white; text-rendering:geometricPrecision; stroke:white;"
       id="g369">
      <path
         d="M537 141 L617 141 L617 161 L537 161 L537 141 Z"
         style="clip-path:url(#clipPath32); stroke:none;"
         clip-path="url(#clipPath32)"
         id="path363" />
      <path
         d="M537 141 L617 141 L617 161 L537 161 L537 141 Z"
         style="fill:none; clip-path:url(#clipPath32); stroke:black;"
         clip-path="url(#clipPath32)"
         id="path365" />
      <text
         x="558"
         y="154"
         style="font-size:10; clip-path:url(#clipPath32); fill:black; stroke:none;"
         xml:space="preserve"
         clip-path="url(#clipPath32)"
         id="text367">COL2A1</text>
    </g>
    <g
       style="fill:white; text-rendering:geometricPrecision; stroke:white;"
       id="g377">
      <path
         d="M311 640 L391 640 L391 660 L311 660 L311 640 Z"
         style="clip-path:url(#clipPath33); stroke:none;"
         clip-path="url(#clipPath33)"
         id="path371" />
      <path
         d="M311 640 L391 640 L391 660 L311 660 L311 640 Z"
         style="fill:none; clip-path:url(#clipPath33); stroke:black;"
         clip-path="url(#clipPath33)"
         id="path373" />
      <text
         x="337"
         y="653"
         style="font-size:10; clip-path:url(#clipPath33); fill:black; stroke:none;"
         xml:space="preserve"
         clip-path="url(#clipPath33)"
         id="text375">ECSIT</text>
    </g>
    <g
       style="fill:white; text-rendering:geometricPrecision; stroke:white;"
       id="g385">
      <path
         d="M300 49 L380 49 L380 69 L300 69 L300 49 Z"
         style="clip-path:url(#clipPath34); stroke:none;"
         clip-path="url(#clipPath34)"
         id="path379" />
      <path
         d="M300 49 L380 49 L380 69 L300 69 L300 49 Z"
         style="fill:none; clip-path:url(#clipPath34); stroke:black;"
         clip-path="url(#clipPath34)"
         id="path381" />
      <text
         x="324"
         y="62"
         style="font-size:10; clip-path:url(#clipPath34); fill:black; stroke:none;"
         xml:space="preserve"
         clip-path="url(#clipPath34)"
         id="text383">LOXL4</text>
    </g>
    <g
       style="fill:white; text-rendering:geometricPrecision; stroke:white;"
       id="g393">
      <path
         d="M443 640 L523 640 L523 660 L443 660 L443 640 Z"
         style="clip-path:url(#clipPath35); stroke:none;"
         clip-path="url(#clipPath35)"
         id="path387" />
      <path
         d="M443 640 L523 640 L523 660 L443 660 L443 640 Z"
         style="fill:none; clip-path:url(#clipPath35); stroke:black;"
         clip-path="url(#clipPath35)"
         id="path389" />
      <text
         x="469"
         y="653"
         style="font-size:10; clip-path:url(#clipPath35); fill:black; stroke:none;"
         xml:space="preserve"
         clip-path="url(#clipPath35)"
         id="text391">NQO1</text>
    </g>
    <g
       style="fill:white; text-rendering:geometricPrecision; stroke:white;"
       id="g401">
      <path
         d="M129 565 L209 565 L209 585 L129 585 L129 565 Z"
         style="clip-path:url(#clipPath36); stroke:none;"
         clip-path="url(#clipPath36)"
         id="path395" />
      <path
         d="M129 565 L209 565 L209 585 L129 585 L129 565 Z"
         style="fill:none; clip-path:url(#clipPath36); stroke:black;"
         clip-path="url(#clipPath36)"
         id="path397" />
      <text
         x="155"
         y="578"
         style="font-size:10; clip-path:url(#clipPath36); fill:black; stroke:none;"
         xml:space="preserve"
         clip-path="url(#clipPath36)"
         id="text399">SIRT1</text>
    </g>
    <g
       style="fill:white; text-rendering:geometricPrecision; stroke:white;"
       id="g409">
      <path
         d="M47 640 L127 640 L127 660 L47 660 L47 640 Z"
         style="clip-path:url(#clipPath37); stroke:none;"
         clip-path="url(#clipPath37)"
         id="path403" />
      <path
         d="M47 640 L127 640 L127 660 L47 660 L47 640 Z"
         style="fill:none; clip-path:url(#clipPath37); stroke:black;"
         clip-path="url(#clipPath37)"
         id="path405" />
      <text
         x="64"
         y="653"
         style="font-size:10; clip-path:url(#clipPath37); fill:black; stroke:none;"
         xml:space="preserve"
         clip-path="url(#clipPath37)"
         id="text407">SUV39H1</text>
    </g>
    <g
       style="fill:white; text-rendering:geometricPrecision; stroke:white;"
       id="g417">
      <path
         d="M176.0476 640 L256.0476 640 L256.0476 660 L176.0476 660 L176.0476 640 Z"
         style="clip-path:url(#clipPath38); stroke:none;"
         clip-path="url(#clipPath38)"
         id="path411" />
      <path
         d="M176.0476 640 L256.0476 640 L256.0476 660 L176.0476 660 L176.0476 640 Z"
         style="fill:none; clip-path:url(#clipPath38); stroke:black;"
         clip-path="url(#clipPath38)"
         id="path413" />
      <text
         x="199"
         y="653"
         style="font-size:10; clip-path:url(#clipPath38); fill:black; stroke:none;"
         xml:space="preserve"
         clip-path="url(#clipPath38)"
         id="text415">EXOC6</text>
    </g>
    <g
       style="fill:white; text-rendering:geometricPrecision; stroke:white;"
       id="g425">
      <path
         d="M537 467 L617 467 L617 487 L537 487 L537 467 Z"
         style="clip-path:url(#clipPath39); stroke:none;"
         clip-path="url(#clipPath39)"
         id="path419" />
      <path
         d="M537 467 L617 467 L617 487 L537 487 L537 467 Z"
         style="fill:none; clip-path:url(#clipPath39); stroke:black;"
         clip-path="url(#clipPath39)"
         id="path421" />
      <text
         x="559"
         y="480"
         style="font-size:10; clip-path:url(#clipPath39); fill:black; stroke:none;"
         xml:space="preserve"
         clip-path="url(#clipPath39)"
         id="text423">NFE2L2</text>
    </g>
    <g
       style="fill:white; text-rendering:geometricPrecision; stroke:white;"
       id="g433">
      <path
         d="M639.381 256 L719.381 256 L719.381 276 L639.381 276 L639.381 256 Z"
         style="clip-path:url(#clipPath40); stroke:none;"
         clip-path="url(#clipPath40)"
         id="path427" />
      <path
         d="M639.381 256 L719.381 256 L719.381 276 L639.381 276 L639.381 256 Z"
         style="fill:none; clip-path:url(#clipPath40); stroke:black;"
         clip-path="url(#clipPath40)"
         id="path429" />
      <text
         x="666"
         y="269"
         style="font-size:10; clip-path:url(#clipPath40); fill:black; stroke:none;"
         xml:space="preserve"
         clip-path="url(#clipPath40)"
         id="text431">BMP2</text>
    </g>
    <g
       style="fill:white; text-rendering:geometricPrecision; stroke:white;"
       id="g441">
      <path
         d="M62.5 149 L142.5 149 L142.5 169 L62.5 169 L62.5 149 Z"
         style="clip-path:url(#clipPath41); stroke:none;"
         clip-path="url(#clipPath41)"
         id="path435" />
      <path
         d="M62.5 149 L142.5 149 L142.5 169 L62.5 169 L62.5 149 Z"
         style="fill:none; clip-path:url(#clipPath41); stroke:black;"
         clip-path="url(#clipPath41)"
         id="path437" />
      <text
         x="85"
         y="162"
         style="font-size:10; clip-path:url(#clipPath41); fill:black; stroke:none;"
         xml:space="preserve"
         clip-path="url(#clipPath41)"
         id="text439">CDC37</text>
    </g>
    <g
       style="fill:white; text-rendering:geometricPrecision; stroke:white;"
       id="g449">
      <path
         d="M728.9048 256 L808.9048 256 L808.9048 276 L728.9048 276 L728.9048 256 Z"
         style="clip-path:url(#clipPath42); stroke:none;"
         clip-path="url(#clipPath42)"
         id="path443" />
      <path
         d="M728.9048 256 L808.9048 256 L808.9048 276 L728.9048 276 L728.9048 256 Z"
         style="fill:none; clip-path:url(#clipPath42); stroke:black;"
         clip-path="url(#clipPath42)"
         id="path445" />
      <text
         x="752"
         y="269"
         style="font-size:10; clip-path:url(#clipPath42); fill:black; stroke:none;"
         xml:space="preserve"
         clip-path="url(#clipPath42)"
         id="text447">TGFB1</text>
    </g>
    <g
       style="fill:rgb(204,0,0); text-rendering:geometricPrecision; stroke-width:1.5; stroke:rgb(204,0,0);"
       id="g453">
      <path
         d="M597 161 L768.9048 256"
         style="fill:none; clip-path:url(#clipPath43);"
         clip-path="url(#clipPath43)"
         id="path451" />
    </g>
    <g
       style="fill:rgb(204,0,0); text-rendering:geometricPrecision; stroke-width:1.5; stroke:rgb(204,0,0);"
       id="g457">
      <path
         d="M557 161 L397.9524 245.2381"
         style="fill:none; clip-path:url(#clipPath44);"
         clip-path="url(#clipPath44)"
         id="path455" />
    </g>
    <g
       style="fill:rgb(204,0,0); text-rendering:geometricPrecision; stroke-width:1.5; stroke:rgb(204,0,0);"
       id="g461">
      <path
         d="M557 161 L466.0476 245.2381"
         style="fill:none; clip-path:url(#clipPath45);"
         clip-path="url(#clipPath45)"
         id="path459" />
    </g>
    <g
       style="fill:rgb(204,0,0); text-rendering:geometricPrecision; stroke-width:1.5; stroke:rgb(204,0,0);"
       id="g465">
      <path
         d="M557 161 L464.619 216.6667"
         style="fill:none; clip-path:url(#clipPath46);"
         clip-path="url(#clipPath46)"
         id="path463" />
    </g>
    <g
       style="fill:rgb(204,0,0); text-rendering:geometricPrecision; stroke-width:1.5; stroke:rgb(204,0,0);"
       id="g469">
      <path
         d="M557 161 L530.3333 245.2381"
         style="fill:none; clip-path:url(#clipPath47);"
         clip-path="url(#clipPath47)"
         id="path467" />
    </g>
    <g
       style="fill:rgb(204,0,0); text-rendering:geometricPrecision; stroke-width:1.5; stroke:rgb(204,0,0);"
       id="g473">
      <path
         d="M557 161 L531.7619 216.6667"
         style="fill:none; clip-path:url(#clipPath48);"
         clip-path="url(#clipPath48)"
         id="path471" />
    </g>
    <g
       style="fill:white; text-rendering:geometricPrecision; stroke:white;"
       id="g481">
      <path
         d="M370 245.2381 L425.9048 245.2381 L425.9048 265.2381 L370 265.2381 L370 245.2381 Z"
         style="clip-path:url(#clipPath49); stroke:none;"
         clip-path="url(#clipPath49)"
         id="path475" />
      <path
         d="M370 245.2381 L425.9048 245.2381 L425.9048 265.2381 L370 265.2381 L370 245.2381 Z"
         style="fill:none; clip-path:url(#clipPath49); stroke:black;"
         clip-path="url(#clipPath49)"
         id="path477" />
      <text
         x="384"
         y="259"
         style="font-size:10; clip-path:url(#clipPath49); fill:black; stroke:none;"
         xml:space="preserve"
         clip-path="url(#clipPath49)"
         id="text479">PKD1</text>
    </g>
    <g
       style="fill:white; text-rendering:geometricPrecision; stroke:white;"
       id="g489">
      <path
         d="M438.0952 245.2381 L494 245.2381 L494 265.2381 L438.0952 265.2381 L438.0952 245.2381 Z"
         style="clip-path:url(#clipPath50); stroke:none;"
         clip-path="url(#clipPath50)"
         id="path483" />
      <path
         d="M438.0952 245.2381 L494 245.2381 L494 265.2381 L438.0952 265.2381 L438.0952 245.2381 Z"
         style="fill:none; clip-path:url(#clipPath50); stroke:black;"
         clip-path="url(#clipPath50)"
         id="path485" />
      <text
         x="457"
         y="259"
         style="font-size:10; clip-path:url(#clipPath50); fill:black; stroke:none;"
         xml:space="preserve"
         clip-path="url(#clipPath50)"
         id="text487">FN1</text>
    </g>
    <g
       style="fill:white; text-rendering:geometricPrecision; stroke:white;"
       id="g497">
      <path
         d="M436.6667 216.6667 L492.5714 216.6667 L492.5714 236.6667 L436.6667 236.6667 L436.6667 216.6667 Z"
         style="clip-path:url(#clipPath51); stroke:none;"
         clip-path="url(#clipPath51)"
         id="path491" />
      <path
         d="M436.6667 216.6667 L492.5714 216.6667 L492.5714 236.6667 L436.6667 236.6667 L436.6667 216.6667 Z"
         style="fill:none; clip-path:url(#clipPath51); stroke:black;"
         clip-path="url(#clipPath51)"
         id="path493" />
      <text
         x="447"
         y="230"
         style="font-size:10; clip-path:url(#clipPath51); fill:black; stroke:none;"
         xml:space="preserve"
         clip-path="url(#clipPath51)"
         id="text495">ANXA5</text>
    </g>
    <g
       style="fill:white; text-rendering:geometricPrecision; stroke:white;"
       id="g505">
      <path
         d="M368.5714 216.6667 L424.4762 216.6667 L424.4762 236.6667 L368.5714 236.6667 L368.5714 216.6667 Z"
         style="clip-path:url(#clipPath52); stroke:none;"
         clip-path="url(#clipPath52)"
         id="path499" />
      <path
         d="M368.5714 216.6667 L424.4762 216.6667 L424.4762 236.6667 L368.5714 236.6667 L368.5714 216.6667 Z"
         style="fill:none; clip-path:url(#clipPath52); stroke:black;"
         clip-path="url(#clipPath52)"
         id="path501" />
      <text
         x="384"
         y="230"
         style="font-size:10; clip-path:url(#clipPath52); fill:black; stroke:none;"
         xml:space="preserve"
         clip-path="url(#clipPath52)"
         id="text503">FGF7</text>
    </g>
    <g
       style="fill:white; text-rendering:geometricPrecision; stroke:white;"
       id="g513">
      <path
         d="M503.8095 216.6667 L559.7143 216.6667 L559.7143 236.6667 L503.8095 236.6667 L503.8095 216.6667 Z"
         style="clip-path:url(#clipPath53); stroke:none;"
         clip-path="url(#clipPath53)"
         id="path507" />
      <path
         d="M503.8095 216.6667 L559.7143 216.6667 L559.7143 236.6667 L503.8095 236.6667 L503.8095 216.6667 Z"
         style="fill:none; clip-path:url(#clipPath53); stroke:black;"
         clip-path="url(#clipPath53)"
         id="path509" />
      <text
         x="517"
         y="230"
         style="font-size:10; clip-path:url(#clipPath53); fill:black; stroke:none;"
         xml:space="preserve"
         clip-path="url(#clipPath53)"
         id="text511">DDR1</text>
    </g>
    <g
       style="fill:white; text-rendering:geometricPrecision; stroke:white;"
       id="g521">
      <path
         d="M502.381 245.2381 L558.2857 245.2381 L558.2857 265.2381 L502.381 265.2381 L502.381 245.2381 Z"
         style="clip-path:url(#clipPath54); stroke:none;"
         clip-path="url(#clipPath54)"
         id="path515" />
      <path
         d="M502.381 245.2381 L558.2857 245.2381 L558.2857 265.2381 L502.381 265.2381 L502.381 245.2381 Z"
         style="fill:none; clip-path:url(#clipPath54); stroke:black;"
         clip-path="url(#clipPath54)"
         id="path517" />
      <text
         x="513"
         y="259"
         style="font-size:10; clip-path:url(#clipPath54); fill:black; stroke:none;"
         xml:space="preserve"
         clip-path="url(#clipPath54)"
         id="text519">IGFBP7</text>
    </g>
    <g
       style="fill:rgb(51,153,0); text-rendering:geometricPrecision; stroke-width:1.5; stroke:rgb(51,153,0);"
       id="g525">
      <path
         d="M648.5714 77.619 L697.1429 77.619"
         style="fill:none; clip-path:url(#clipPath55);"
         clip-path="url(#clipPath55)"
         id="path523" />
    </g>
    <g
       style="fill:rgb(102,0,153); text-rendering:geometricPrecision; stroke-width:1.5; stroke:rgb(102,0,153);"
       id="g533">
      <path
         d="M648.5714 136.1905 L690.1429 136.1905"
         style="fill:none; clip-path:url(#clipPath56);"
         clip-path="url(#clipPath56)"
         id="path527" />
      <path
         d="M690.1429 126.0405 L691.5928 126.0405 L691.5928 147.7905 L690.1429 147.7905 L690.1429 126.0405 Z"
         style="fill:white; clip-path:url(#clipPath56); stroke:none;"
         clip-path="url(#clipPath56)"
         id="path529" />
      <path
         d="M690.1429 126.0405 L691.5928 126.0405 L691.5928 147.7905 L690.1429 147.7905 L690.1429 126.0405 Z"
         style="fill:none; clip-path:url(#clipPath56);"
         clip-path="url(#clipPath56)"
         id="path531" />
    </g>
    <g
       style="font-weight:bold; text-rendering:geometricPrecision;"
       id="g537">
      <text
         x="697"
         xml:space="preserve"
         y="59"
         style="clip-path:url(#clipPath57); stroke:none;"
         clip-path="url(#clipPath57)"
         id="text535">Direct physical interaction</text>
    </g>
    <g
       style="font-weight:bold; text-rendering:geometricPrecision;"
       id="g541">
      <text
         x="689"
         xml:space="preserve"
         y="82"
         style="clip-path:url(#clipPath58); stroke:none;"
         clip-path="url(#clipPath58)"
         id="text539">Transcriptional activation by OS pathway</text>
    </g>
    <g
       style="fill:rgb(51,153,0); text-rendering:geometricPrecision; stroke-width:1.5; stroke-dasharray:4,4; stroke:rgb(51,153,0);"
       id="g545">
      <path
         d="M648.0952 102.8571 L696.6667 102.8571"
         style="fill:none; clip-path:url(#clipPath59);"
         clip-path="url(#clipPath59)"
         id="path543" />
    </g>
    <g
       style="font-weight:bold; text-rendering:geometricPrecision;"
       id="g551">
      <text
         x="680"
         xml:space="preserve"
         y="107"
         style="clip-path:url(#clipPath60); stroke:none;"
         clip-path="url(#clipPath60)"
         id="text547">Impact by OS pathway via phosphorylation, activity or </text>
      <text
         x="694"
         xml:space="preserve"
         y="120"
         style="clip-path:url(#clipPath60); stroke:none;"
         clip-path="url(#clipPath60)"
         id="text549">nuclear-cytoplasmic distribution of Nrf1/2 proteins</text>
    </g>
    <g
       style="font-weight:bold; text-rendering:geometricPrecision;"
       id="g555">
      <text
         x="692"
         xml:space="preserve"
         y="141"
         style="clip-path:url(#clipPath61); stroke:none;"
         clip-path="url(#clipPath61)"
         id="text553">Direct interaction, with repression</text>
    </g>
  </g>
</svg>
