<?xml version="1.0" encoding="UTF-8" standalone="no"?>
<svg
   style="fill-opacity:1; color-rendering:auto; color-interpolation:auto; stroke:black; text-rendering:auto; stroke-linecap:square; stroke-miterlimit:10; stroke-opacity:1; shape-rendering:auto; fill:black; stroke-dasharray:none; font-weight:normal; stroke-width:1; font-family:'Dialog'; font-style:normal; stroke-linejoin:miter; font-size:12; stroke-dashoffset:0; image-rendering:auto;"
   width="740"
   height="1166"
   version="1.1"
   id="svg225"
   xmlns="http://www.w3.org/2000/svg"
   xmlns:svg="http://www.w3.org/2000/svg">
  <!--Generated by the Batik Graphics2D SVG Generator-->
  <defs
     id="genericDefs" />
  <g
     id="g223">
    <defs
       id="defs1">
      <clipPath
         clipPathUnits="userSpaceOnUse"
         id="clipPath1">
        <path
           d="M0 0 L750 0 L750 1176 L0 1176 L0 0 Z"
           id="path3" />
      </clipPath>
      <clipPath
         clipPathUnits="userSpaceOnUse"
         id="clipPath2">
        <path
           d="M53.8994 884.4999 L53.8994 1152.9999 L726.0573 1152.9999 L726.0573 884.4999 Z"
           id="path6" />
      </clipPath>
      <clipPath
         clipPathUnits="userSpaceOnUse"
         id="clipPath3">
        <path
           d="M0 0 L0 200 L200 200 L200 0 Z"
           id="path9" />
      </clipPath>
      <clipPath
         clipPathUnits="userSpaceOnUse"
         id="clipPath4">
        <path
           d="M154 16 L154 37 L180 37 L180 16 Z"
           id="path12" />
      </clipPath>
      <clipPath
         clipPathUnits="userSpaceOnUse"
         id="clipPath5">
        <path
           d="M156.3672 3.918 L177.6328 3.918 L177.6328 19.2305 L156.3672 19.2305 L156.3672 3.918 Z"
           id="path15" />
      </clipPath>
      <clipPath
         clipPathUnits="userSpaceOnUse"
         id="clipPath6">
        <path
           d="M413.031 256.5 L413.031 324.7311 L424.9698 324.7311 L424.9698 256.5 Z"
           id="path18" />
      </clipPath>
      <clipPath
         clipPathUnits="userSpaceOnUse"
         id="clipPath7">
        <path
           d="M343.9463 1119.8824 L343.9463 1145.8824 L434.9463 1145.8824 L434.9463 1119.8824 Z"
           id="path21" />
      </clipPath>
      <clipPath
         clipPathUnits="userSpaceOnUse"
         id="clipPath8">
        <path
           d="M344.9317 430.0915 L344.9317 487.8208 L493.069 487.8208 L493.069 430.0915 Z"
           id="path24" />
      </clipPath>
      <clipPath
         clipPathUnits="userSpaceOnUse"
         id="clipPath9">
        <path
           d="M338.5004 213 L338.5004 257.5 L499.5004 257.5 L499.5004 213 Z"
           id="path27" />
      </clipPath>
      <clipPath
         clipPathUnits="userSpaceOnUse"
         id="clipPath10">
        <path
           d="M327.7504 94.211 L327.7504 142.711 L510.2504 142.711 L510.2504 94.211 Z"
           id="path30" />
      </clipPath>
      <clipPath
         clipPathUnits="userSpaceOnUse"
         id="clipPath11">
        <path
           d="M339.6053 571.5806 L339.6053 628.0806 L501.1053 628.0806 L501.1053 571.5806 Z"
           id="path33" />
      </clipPath>
      <clipPath
         clipPathUnits="userSpaceOnUse"
         id="clipPath12">
        <path
           d="M140.0594 655.8431 L140.0594 700.3431 L241.5594 700.3431 L241.5594 655.8431 Z"
           id="path36" />
      </clipPath>
      <clipPath
         clipPathUnits="userSpaceOnUse"
         id="clipPath13">
        <path
           d="M106.8211 758.1752 L106.8211 815.6752 L281.3211 815.6752 L281.3211 758.1752 Z"
           id="path39" />
      </clipPath>
      <clipPath
         clipPathUnits="userSpaceOnUse"
         id="clipPath14">
        <path
           d="M94.8211 861.3878 L94.8211 917.8878 L293.3211 917.8878 L293.3211 861.3878 Z"
           id="path42" />
      </clipPath>
      <clipPath
         clipPathUnits="userSpaceOnUse"
         id="clipPath15">
        <path
           d="M413.031 366.5 L413.031 431.8226 L424.9698 431.8226 L424.9698 366.5 Z"
           id="path45" />
      </clipPath>
      <clipPath
         clipPathUnits="userSpaceOnUse"
         id="clipPath16">
        <path
           d="M414.1917 486.8129 L414.1917 573.3115 L426.1289 573.3115 L426.1289 486.8129 Z"
           id="path48" />
      </clipPath>
      <clipPath
         clipPathUnits="userSpaceOnUse"
         id="clipPath17">
        <path
           d="M193.0059 626.8973 L193.0059 759.3585 L421.0385 759.3585 L421.0385 626.8973 Z"
           id="path51" />
      </clipPath>
      <clipPath
         clipPathUnits="userSpaceOnUse"
         id="clipPath18">
        <path
           d="M188.1018 814.6752 L188.1018 863.1189 L200.0405 863.1189 L200.0405 814.6752 Z"
           id="path54" />
      </clipPath>
      <clipPath
         clipPathUnits="userSpaceOnUse"
         id="clipPath19">
        <path
           d="M240.5486 674.2144 L240.5486 685.6143 L330.7428 685.6143 L330.7428 674.2144 Z"
           id="path57" />
      </clipPath>
      <clipPath
         clipPathUnits="userSpaceOnUse"
         id="clipPath20">
        <path
           d="M480.6106 860.8615 L480.6106 917.3615 L679.1106 917.3615 L679.1106 860.8615 Z"
           id="path60" />
      </clipPath>
      <clipPath
         clipPathUnits="userSpaceOnUse"
         id="clipPath21">
        <path
           d="M419.6604 626.8857 L419.6604 862.3784 L580.5554 862.3784 L580.5554 626.8857 Z"
           id="path63" />
      </clipPath>
      <clipPath
         clipPathUnits="userSpaceOnUse"
         id="clipPath22">
        <path
           d="M408.1004 141.711 L408.1004 208.3 L428.6004 208.3 L428.6004 141.711 Z"
           id="path66" />
      </clipPath>
      <clipPath
         clipPathUnits="userSpaceOnUse"
         id="clipPath23">
        <path
           d="M338.5004 323 L338.5004 367.5 L499.5004 367.5 L499.5004 323 Z"
           id="path69" />
      </clipPath>
    </defs>
    <g
       style="fill:white; stroke:white;"
       id="g75">
      <rect
         x="0"
         width="750"
         height="1176"
         y="0"
         style="stroke:none;"
         id="rect73" />
    </g>
    <g
       style="fill:silver; text-rendering:geometricPrecision; stroke:silver;"
       id="g79">
      <path
         d="M62.8994 898.9999 L62.8994 898.9999 L62.8994 898.9999 L64.3994 898.9999 L64.3994 900.4999 L64.3994 1136.9999 L64.3994 1138.4999 L62.8994 1138.4999 L59.8994 1138.4999 L59.8994 1136.9999 L59.8994 1135.4999 L62.8994 1135.4999 L64.3994 1135.4999 L64.3994 1136.9999 C64.3994 1140.0374 66.8618 1142.4999 69.8994 1142.4999 L71.3994 1142.4999 L71.3994 1143.9999 L71.3994 1146.9999 L69.8994 1146.9999 L68.3994 1146.9999 L68.3994 1143.9999 L68.3994 1142.4999 L69.8994 1142.4999 L710.0573 1142.4999 L711.5573 1142.4999 L711.5573 1143.9999 L711.5573 1146.9999 L710.0573 1146.9999 L708.5573 1146.9999 L708.5573 1143.9999 L708.5573 1142.4999 L710.0573 1142.4999 C713.0947 1142.4999 715.5573 1140.0374 715.5573 1136.9999 L715.5573 1135.4999 L717.0573 1135.4999 L720.0573 1135.4999 L720.0573 1136.9999 L720.0573 1138.4999 L717.0573 1138.4999 L715.5573 1138.4999 L715.5573 1136.9999 L715.5573 900.4999 L715.5573 898.9999 L717.0573 898.9999 L720.0573 898.9999 L720.0573 900.4999 L720.0573 901.9999 L717.0573 901.9999 L715.5573 901.9999 L715.5573 900.4999 C715.5573 897.4625 713.0947 894.9999 710.0573 894.9999 L708.5573 894.9999 L708.5573 893.4999 L708.5573 890.4999 L710.0573 890.4999 L711.5573 890.4999 L711.5573 893.4999 L711.5573 894.9999 L710.0573 894.9999 L69.8994 894.9999 L68.3994 894.9999 L68.3994 893.4999 L68.3994 890.4999 L69.8994 890.4999 L71.3994 890.4999 L71.3994 893.4999 L71.3994 894.9999 L69.8994 894.9999 C66.8618 894.9999 64.3994 897.4625 64.3994 900.4999 L64.3994 901.9999 L62.8994 901.9999 L59.8994 901.9999 L59.8994 900.4999 L59.8994 898.9999 L62.8994 898.9999 L64.3994 898.9999 L64.3994 901.9999 L62.8994 901.9999 L59.8994 901.9999 L59.8994 898.9999 L62.8994 898.9999 L62.8994 900.4999 L61.3994 900.4999 C61.3994 895.8055 65.2049 891.9999 69.8994 891.9999 L69.8994 893.4999 L68.3994 893.4999 L68.3994 890.4999 L71.3994 890.4999 L71.3994 893.4999 L69.8994 893.4999 L69.8994 891.9999 L710.0573 891.9999 L710.0573 893.4999 L708.5573 893.4999 L708.5573 890.4999 L711.5573 890.4999 L711.5573 893.4999 L710.0573 893.4999 L710.0573 891.9999 C714.7516 891.9999 718.5573 895.8055 718.5573 900.4999 L717.0573 900.4999 L717.0573 898.9999 L720.0573 898.9999 L720.0573 901.9999 L717.0573 901.9999 L717.0573 900.4999 L718.5573 900.4999 L718.5573 1136.9999 L717.0573 1136.9999 L717.0573 1135.4999 L720.0573 1135.4999 L720.0573 1138.4999 L717.0573 1138.4999 L717.0573 1136.9999 L718.5573 1136.9999 C718.5573 1141.6942 714.7516 1145.4999 710.0573 1145.4999 L710.0573 1143.9999 L711.5573 1143.9999 L711.5573 1146.9999 L708.5573 1146.9999 L708.5573 1143.9999 L710.0573 1143.9999 L710.0573 1145.4999 L69.8994 1145.4999 L69.8994 1143.9999 L71.3994 1143.9999 L71.3994 1146.9999 L68.3994 1146.9999 L68.3994 1143.9999 L69.8994 1143.9999 L69.8994 1145.4999 C65.2049 1145.4999 61.3994 1141.6942 61.3994 1136.9999 L62.8994 1136.9999 L62.8994 1138.4999 L59.8994 1138.4999 L59.8994 1135.4999 L62.8994 1135.4999 L62.8994 1136.9999 L61.3994 1136.9999 L61.3994 900.4999 L62.8994 900.4999 L62.8994 901.9999 L62.8994 901.9999 L61.3994 901.9999 L61.3994 898.9999 ZM56.8994 898.9999 L56.8994 898.9999 L56.8994 898.9999 L56.8994 900.4999 L55.3994 900.4999 C55.3994 892.4918 61.8913 885.9999 69.8994 885.9999 L69.8994 887.4999 L69.8994 885.9999 L69.8994 885.9999 L69.8994 887.4999 L69.8994 885.9999 L710.0573 885.9999 L710.0573 887.4999 L710.0573 885.9999 L710.0573 885.9999 L710.0573 887.4999 L710.0573 885.9999 C718.0651 885.9999 724.5573 892.4918 724.5573 900.4999 L723.0573 900.4999 L723.0573 898.9999 L723.0573 898.9999 L724.5573 898.9999 L724.5573 900.4999 L724.5573 1136.9999 L723.0573 1136.9999 L723.0573 1135.4999 L723.0573 1135.4999 L724.5573 1135.4999 L724.5573 1136.9999 C724.5573 1145.0081 718.0654 1151.4999 710.0573 1151.4999 L710.0573 1149.9999 L710.0573 1148.4999 L710.0573 1148.4999 L710.0573 1149.9999 L710.0573 1151.4999 L69.8994 1151.4999 L69.8994 1149.9999 L69.8994 1148.4999 L69.8994 1148.4999 L69.8994 1149.9999 L69.8994 1151.4999 C61.8912 1151.4999 55.3994 1145.0081 55.3994 1136.9999 L55.3994 1135.4999 L56.8994 1135.4999 L56.8994 1135.4999 L56.8994 1136.9999 L55.3994 1136.9999 L55.3994 900.4999 L55.3994 898.9999 L56.8994 898.9999 M56.8994 901.9999 L56.8994 900.4999 L58.3994 900.4999 L58.3994 1136.9999 L58.3994 1138.4999 L56.8994 1138.4999 L56.8994 1138.4999 L56.8994 1136.9999 L58.3994 1136.9999 C58.3994 1143.3511 63.5481 1148.4999 69.8994 1148.4999 L69.8994 1151.4999 L69.8994 1151.4999 L69.8994 1148.4999 L710.0573 1148.4999 L710.0573 1151.4999 L710.0573 1151.4999 L710.0573 1148.4999 C716.4085 1148.4999 721.5573 1143.3511 721.5573 1136.9999 L723.0573 1136.9999 L723.0573 1138.4999 L723.0573 1138.4999 L721.5573 1138.4999 L721.5573 1136.9999 L721.5573 900.4999 L723.0573 900.4999 L723.0573 901.9999 L723.0573 901.9999 L721.5573 901.9999 L721.5573 900.4999 C721.5573 894.1486 716.4081 888.9999 710.0573 888.9999 L710.0573 888.9999 L710.0573 888.9999 L710.0573 888.9999 L69.8994 888.9999 L69.8994 888.9999 L69.8994 888.9999 L69.8994 888.9999 C63.5481 888.9999 58.3994 894.1486 58.3994 900.4999 L58.3994 901.9999 L56.8994 901.9999 L56.8994 901.9999 Z"
         style="clip-path:url(#clipPath2); stroke:none;"
         clip-path="url(#clipPath2)"
         id="path77" />
    </g>
    <g
       style="font-weight:bold; font-size:10; text-rendering:geometricPrecision;"
       id="g89">
      <path
         d="M0.0469 6.7031 L6.7656 6.7031 L6.7656 8.125 L4.3438 8.125 L4.3438 14 L2.4688 14 L2.4688 8.125 L0.0469 8.125 L0.0469 6.7031 ZM7.665 8.5312 L9.415 8.5312 L9.415 14 L7.665 14 L7.665 8.5312 ZM7.665 6.4062 L9.415 6.4062 L9.415 7.8281 L7.665 7.8281 L7.665 6.4062 ZM12.999 6.9844 L12.999 8.5312 L14.7959 8.5312 L14.7959 9.7812 L12.999 9.7812 L12.999 12.0938 Q12.999 12.4844 13.1475 12.6172 Q13.2959 12.75 13.749 12.75 L14.6553 12.75 L14.6553 14 L13.1553 14 Q12.1084 14 11.6787 13.5703 Q11.249 13.1406 11.249 12.0938 L11.249 9.7812 L10.374 9.7812 L10.374 8.5312 L11.249 8.5312 L11.249 6.9844 L12.999 6.9844 ZM15.873 6.4062 L17.623 6.4062 L17.623 14 L15.873 14 L15.873 6.4062 ZM24.7539 11.25 L24.7539 11.75 L20.6758 11.75 Q20.7383 12.3594 21.1133 12.6719 Q21.4883 12.9844 22.1758 12.9844 Q22.7227 12.9844 23.3086 12.8203 Q23.8945 12.6562 24.5039 12.3125 L24.5039 13.6719 Q23.8789 13.9062 23.2617 14.0234 Q22.6445 14.1406 22.0195 14.1406 Q20.5352 14.1406 19.7148 13.3828 Q18.8945 12.625 18.8945 11.2656 Q18.8945 9.9375 19.6992 9.1719 Q20.5039 8.4062 21.9258 8.4062 Q23.207 8.4062 23.9805 9.1797 Q24.7539 9.9531 24.7539 11.25 ZM22.957 10.6719 Q22.957 10.1719 22.668 9.8672 Q22.3789 9.5625 21.9102 9.5625 Q21.3945 9.5625 21.082 9.8438 Q20.7695 10.125 20.6914 10.6719 L22.957 10.6719 ZM26.3643 8.5312 L28.1143 8.5312 L28.1143 10.4219 L26.3643 10.4219 L26.3643 8.5312 ZM26.3643 12.1094 L28.1143 12.1094 L28.1143 14 L26.3643 14 L26.3643 12.1094 Z"
         style="clip-path:url(#clipPath3); stroke:none;"
         clip-path="url(#clipPath3)"
         id="path81" />
      <path
         d="M38.9844 6.7031 L39.9688 6.7031 L39.9688 9.7969 L43.2344 6.7031 L44.5156 6.7031 L40.8906 10.1094 L44.7656 14 L43.4688 14 L39.9688 10.4844 L39.9688 14 L38.9844 14 L38.9844 6.7031 ZM45.4951 8.5312 L46.4014 8.5312 L46.4014 14 L45.4951 14 L45.4951 8.5312 ZM45.4951 6.4062 L46.4014 6.4062 L46.4014 7.5469 L45.4951 7.5469 L45.4951 6.4062 ZM52.8203 10.7031 L52.8203 14 L51.9297 14 L51.9297 10.7344 Q51.9297 9.9531 51.625 9.5703 Q51.3203 9.1875 50.7109 9.1875 Q49.9922 9.1875 49.5703 9.6484 Q49.1484 10.1094 49.1484 10.9062 L49.1484 14 L48.2422 14 L48.2422 8.5312 L49.1484 8.5312 L49.1484 9.375 Q49.4766 8.8906 49.9141 8.6484 Q50.3516 8.4062 50.9141 8.4062 Q51.8516 8.4062 52.3359 8.9844 Q52.8203 9.5625 52.8203 10.7031 ZM54.6113 8.5312 L55.5176 8.5312 L55.5176 14 L54.6113 14 L54.6113 8.5312 ZM54.6113 6.4062 L55.5176 6.4062 L55.5176 7.5469 L54.6113 7.5469 L54.6113 6.4062 ZM61.9365 10.7031 L61.9365 14 L61.0459 14 L61.0459 10.7344 Q61.0459 9.9531 60.7412 9.5703 Q60.4365 9.1875 59.8271 9.1875 Q59.1084 9.1875 58.6865 9.6484 Q58.2646 10.1094 58.2646 10.9062 L58.2646 14 L57.3584 14 L57.3584 8.5312 L58.2646 8.5312 L58.2646 9.375 Q58.5928 8.8906 59.0303 8.6484 Q59.4678 8.4062 60.0303 8.4062 Q60.9678 8.4062 61.4521 8.9844 Q61.9365 9.5625 61.9365 10.7031 ZM63.2744 10.8594 L65.915 10.8594 L65.915 11.6562 L63.2744 11.6562 L63.2744 10.8594 ZM67.3828 6.7031 L68.3672 6.7031 L68.3672 9.7969 L71.6328 6.7031 L72.9141 6.7031 L69.2891 10.1094 L73.1641 14 L71.8672 14 L68.3672 10.4844 L68.3672 14 L67.3828 14 L67.3828 6.7031 ZM76.3779 11.25 Q75.2998 11.25 74.8779 11.5 Q74.4561 11.75 74.4561 12.3438 Q74.4561 12.8281 74.7686 13.1094 Q75.0811 13.3906 75.6279 13.3906 Q76.3779 13.3906 76.8311 12.8594 Q77.2842 12.3281 77.2842 11.4531 L77.2842 11.25 L76.3779 11.25 ZM78.1748 10.875 L78.1748 14 L77.2842 14 L77.2842 13.1719 Q76.9717 13.6719 76.5107 13.9062 Q76.0498 14.1406 75.3936 14.1406 Q74.5498 14.1406 74.0498 13.6719 Q73.5498 13.2031 73.5498 12.4062 Q73.5498 11.4844 74.1748 11.0156 Q74.7998 10.5469 76.0186 10.5469 L77.2842 10.5469 L77.2842 10.4531 Q77.2842 9.8438 76.8701 9.5 Q76.4561 9.1562 75.7217 9.1562 Q75.2529 9.1562 74.8076 9.2734 Q74.3623 9.3906 73.9561 9.6094 L73.9561 8.7812 Q74.4561 8.5938 74.917 8.5 Q75.3779 8.4062 75.8154 8.4062 Q77.0029 8.4062 77.5889 9.0156 Q78.1748 9.625 78.1748 10.875 ZM80.0215 6.4062 L80.9277 6.4062 L80.9277 14 L80.0215 14 L80.0215 6.4062 ZM82.7998 6.4062 L83.7061 6.4062 L83.7061 14 L82.7998 14 L82.7998 6.4062 ZM85.5781 8.5312 L86.4844 8.5312 L86.4844 14 L85.5781 14 L85.5781 8.5312 ZM85.5781 6.4062 L86.4844 6.4062 L86.4844 7.5469 L85.5781 7.5469 L85.5781 6.4062 ZM88.3252 6.4062 L89.2314 6.4062 L89.2314 10.8906 L91.9189 8.5312 L93.0596 8.5312 L90.1533 11.0938 L93.1846 14 L92.0127 14 L89.2314 11.3281 L89.2314 14 L88.3252 14 L88.3252 6.4062 ZM97.3193 9.375 Q97.1631 9.2812 96.9912 9.2422 Q96.8193 9.2031 96.6006 9.2031 Q95.835 9.2031 95.4287 9.6953 Q95.0225 10.1875 95.0225 11.125 L95.0225 14 L94.1162 14 L94.1162 8.5312 L95.0225 8.5312 L95.0225 9.375 Q95.3037 8.875 95.7568 8.6406 Q96.21 8.4062 96.8662 8.4062 Q96.96 8.4062 97.0693 8.4141 Q97.1787 8.4219 97.3193 8.4531 L97.3193 9.375 ZM102.9463 11.0469 L102.9463 11.4844 L98.8057 11.4844 Q98.8682 12.4062 99.3682 12.8906 Q99.8682 13.375 100.7588 13.375 Q101.2744 13.375 101.7666 13.25 Q102.2588 13.125 102.7275 12.875 L102.7275 13.7188 Q102.2432 13.9219 101.7354 14.0312 Q101.2275 14.1406 100.7119 14.1406 Q99.3994 14.1406 98.6338 13.3828 Q97.8682 12.625 97.8682 11.3125 Q97.8682 9.9688 98.5947 9.1875 Q99.3213 8.4062 100.5557 8.4062 Q101.665 8.4062 102.3057 9.1094 Q102.9463 9.8125 102.9463 11.0469 ZM102.04 10.7812 Q102.04 10.0469 101.6338 9.6016 Q101.2275 9.1562 100.5713 9.1562 Q99.8057 9.1562 99.3604 9.5859 Q98.915 10.0156 98.8369 10.7812 L102.04 10.7812 ZM104.4111 8.5312 L105.3174 8.5312 L105.3174 14 L104.4111 14 L104.4111 8.5312 ZM104.4111 6.4062 L105.3174 6.4062 L105.3174 7.5469 L104.4111 7.5469 L104.4111 6.4062 ZM111.7363 10.7031 L111.7363 14 L110.8457 14 L110.8457 10.7344 Q110.8457 9.9531 110.541 9.5703 Q110.2363 9.1875 109.627 9.1875 Q108.9082 9.1875 108.4863 9.6484 Q108.0645 10.1094 108.0645 10.9062 L108.0645 14 L107.1582 14 L107.1582 8.5312 L108.0645 8.5312 L108.0645 9.375 Q108.3926 8.8906 108.8301 8.6484 Q109.2676 8.4062 109.8301 8.4062 Q110.7676 8.4062 111.252 8.9844 Q111.7363 9.5625 111.7363 10.7031 ZM117.5811 13.1719 L117.5811 16.0781 L116.6748 16.0781 L116.6748 8.5312 L117.5811 8.5312 L117.5811 9.3594 Q117.8623 8.875 118.292 8.6406 Q118.7217 8.4062 119.3311 8.4062 Q120.3311 8.4062 120.9482 9.1953 Q121.5654 9.9844 121.5654 11.2656 Q121.5654 12.5625 120.9482 13.3516 Q120.3311 14.1406 119.3311 14.1406 Q118.7217 14.1406 118.292 13.9062 Q117.8623 13.6719 117.5811 13.1719 ZM120.6436 11.2656 Q120.6436 10.2812 120.2295 9.7188 Q119.8154 9.1562 119.1123 9.1562 Q118.3936 9.1562 117.9873 9.7188 Q117.5811 10.2812 117.5811 11.2656 Q117.5811 12.2656 117.9873 12.8281 Q118.3936 13.3906 119.1123 13.3906 Q119.8154 13.3906 120.2295 12.8281 Q120.6436 12.2656 120.6436 11.2656 ZM125.5381 11.25 Q124.46 11.25 124.0381 11.5 Q123.6162 11.75 123.6162 12.3438 Q123.6162 12.8281 123.9287 13.1094 Q124.2412 13.3906 124.7881 13.3906 Q125.5381 13.3906 125.9912 12.8594 Q126.4443 12.3281 126.4443 11.4531 L126.4443 11.25 L125.5381 11.25 ZM127.335 10.875 L127.335 14 L126.4443 14 L126.4443 13.1719 Q126.1318 13.6719 125.6709 13.9062 Q125.21 14.1406 124.5537 14.1406 Q123.71 14.1406 123.21 13.6719 Q122.71 13.2031 122.71 12.4062 Q122.71 11.4844 123.335 11.0156 Q123.96 10.5469 125.1787 10.5469 L126.4443 10.5469 L126.4443 10.4531 Q126.4443 9.8438 126.0303 9.5 Q125.6162 9.1562 124.8818 9.1562 Q124.4131 9.1562 123.9678 9.2734 Q123.5225 9.3906 123.1162 9.6094 L123.1162 8.7812 Q123.6162 8.5938 124.0771 8.5 Q124.5381 8.4062 124.9756 8.4062 Q126.1631 8.4062 126.749 9.0156 Q127.335 9.625 127.335 10.875 ZM130.0723 6.9844 L130.0723 8.5312 L131.9316 8.5312 L131.9316 9.2344 L130.0723 9.2344 L130.0723 12.2031 Q130.0723 12.8594 130.2598 13.0547 Q130.4473 13.25 131.0098 13.25 L131.9316 13.25 L131.9316 14 L131.0098 14 Q129.9629 14 129.5645 13.6094 Q129.166 13.2188 129.166 12.2031 L129.166 9.2344 L128.5098 9.2344 L128.5098 8.5312 L129.166 8.5312 L129.166 6.9844 L130.0723 6.9844 ZM137.6494 10.7031 L137.6494 14 L136.7588 14 L136.7588 10.7344 Q136.7588 9.9531 136.4541 9.5703 Q136.1494 9.1875 135.54 9.1875 Q134.8213 9.1875 134.3994 9.6484 Q133.9775 10.1094 133.9775 10.9062 L133.9775 14 L133.0713 14 L133.0713 6.4062 L133.9775 6.4062 L133.9775 9.375 Q134.3057 8.8906 134.7432 8.6484 Q135.1807 8.4062 135.7432 8.4062 Q136.6807 8.4062 137.165 8.9844 Q137.6494 9.5625 137.6494 10.7031 ZM138.9248 8.5312 L139.8154 8.5312 L140.9404 12.7969 L142.0654 8.5312 L143.1279 8.5312 L144.2529 12.7969 L145.3623 8.5312 L146.2686 8.5312 L144.8311 14 L143.7686 14 L142.5967 9.5156 L141.4092 14 L140.3467 14 L138.9248 8.5312 ZM150.1035 11.25 Q149.0254 11.25 148.6035 11.5 Q148.1816 11.75 148.1816 12.3438 Q148.1816 12.8281 148.4941 13.1094 Q148.8066 13.3906 149.3535 13.3906 Q150.1035 13.3906 150.5566 12.8594 Q151.0098 12.3281 151.0098 11.4531 L151.0098 11.25 L150.1035 11.25 ZM151.9004 10.875 L151.9004 14 L151.0098 14 L151.0098 13.1719 Q150.6973 13.6719 150.2363 13.9062 Q149.7754 14.1406 149.1191 14.1406 Q148.2754 14.1406 147.7754 13.6719 Q147.2754 13.2031 147.2754 12.4062 Q147.2754 11.4844 147.9004 11.0156 Q148.5254 10.5469 149.7441 10.5469 L151.0098 10.5469 L151.0098 10.4531 Q151.0098 9.8438 150.5957 9.5 Q150.1816 9.1562 149.4473 9.1562 Q148.9785 9.1562 148.5332 9.2734 Q148.0879 9.3906 147.6816 9.6094 L147.6816 8.7812 Q148.1816 8.5938 148.6426 8.5 Q149.1035 8.4062 149.541 8.4062 Q150.7285 8.4062 151.3145 9.0156 Q151.9004 9.625 151.9004 10.875 ZM156.0283 14.5156 Q155.6533 15.4844 155.2861 15.7812 Q154.9189 16.0781 154.3252 16.0781 L153.6064 16.0781 L153.6064 15.3281 L154.1221 15.3281 Q154.4971 15.3281 154.7002 15.1562 Q154.9033 14.9844 155.1533 14.3281 L155.3252 13.9062 L153.1064 8.5312 L154.0596 8.5312 L155.7627 12.8125 L157.4814 8.5312 L158.4346 8.5312 L156.0283 14.5156 Z"
         style="clip-path:url(#clipPath3); stroke:none;"
         clip-path="url(#clipPath3)"
         id="path83" />
      <path
         d="M4.25 21.9375 Q3.3906 21.9375 2.9141 22.5703 Q2.4375 23.2031 2.4375 24.3594 Q2.4375 25.5156 2.9141 26.1484 Q3.3906 26.7812 4.25 26.7812 Q5.1094 26.7812 5.5859 26.1484 Q6.0625 25.5156 6.0625 24.3594 Q6.0625 23.2031 5.5859 22.5703 Q5.1094 21.9375 4.25 21.9375 ZM4.25 20.5781 Q6 20.5781 7 21.5859 Q8 22.5938 8 24.3594 Q8 26.125 7 27.1328 Q6 28.1406 4.25 28.1406 Q2.5 28.1406 1.5 27.1328 Q0.5 26.125 0.5 24.3594 Q0.5 22.5938 1.5 21.5859 Q2.5 20.5781 4.25 20.5781 ZM13.4072 24.0156 Q13.1729 23.9062 12.9463 23.8594 Q12.7197 23.8125 12.4854 23.8125 Q11.8135 23.8125 11.4541 24.2422 Q11.0947 24.6719 11.0947 25.4844 L11.0947 28 L9.3447 28 L9.3447 22.5312 L11.0947 22.5312 L11.0947 23.4219 Q11.4229 22.8906 11.8604 22.6484 Q12.2979 22.4062 12.9072 22.4062 Q13.001 22.4062 13.1025 22.4062 Q13.2041 22.4062 13.3916 22.4375 L13.4072 24.0156 ZM17.9951 27.0781 Q17.6357 27.5469 17.1982 27.7734 Q16.7607 28 16.1982 28 Q15.1982 28 14.542 27.2109 Q13.8857 26.4219 13.8857 25.2031 Q13.8857 23.9688 14.542 23.1875 Q15.1982 22.4062 16.1982 22.4062 Q16.7607 22.4062 17.1982 22.6328 Q17.6357 22.8594 17.9951 23.3438 L17.9951 22.5312 L19.7451 22.5312 L19.7451 27.4531 Q19.7451 28.7656 18.917 29.4609 Q18.0889 30.1562 16.5107 30.1562 Q15.9951 30.1562 15.5186 30.0781 Q15.042 30 14.5576 29.8438 L14.5576 28.4844 Q15.0107 28.75 15.4482 28.875 Q15.8857 29 16.3389 29 Q17.1982 29 17.5967 28.625 Q17.9951 28.25 17.9951 27.4531 L17.9951 27.0781 ZM16.8389 23.6719 Q16.292 23.6719 15.9951 24.0703 Q15.6982 24.4688 15.6982 25.2031 Q15.6982 25.9531 15.9873 26.3438 Q16.2764 26.7344 16.8389 26.7344 Q17.3857 26.7344 17.6904 26.3281 Q17.9951 25.9219 17.9951 25.2031 Q17.9951 24.4688 17.6904 24.0703 Q17.3857 23.6719 16.8389 23.6719 ZM23.8877 25.5312 Q23.3408 25.5312 23.0596 25.7188 Q22.7783 25.9062 22.7783 26.2656 Q22.7783 26.6094 23.0049 26.7969 Q23.2314 26.9844 23.6221 26.9844 Q24.1221 26.9844 24.458 26.625 Q24.7939 26.2656 24.7939 25.7344 L24.7939 25.5312 L23.8877 25.5312 ZM26.5596 24.875 L26.5596 28 L24.7939 28 L24.7939 27.1875 Q24.4346 27.6875 23.9971 27.9141 Q23.5596 28.1406 22.9346 28.1406 Q22.0752 28.1406 21.5518 27.6484 Q21.0283 27.1562 21.0283 26.3594 Q21.0283 25.3906 21.6846 24.9453 Q22.3408 24.5 23.7627 24.5 L24.7939 24.5 L24.7939 24.3594 Q24.7939 23.9531 24.4658 23.7578 Q24.1377 23.5625 23.4502 23.5625 Q22.8877 23.5625 22.4033 23.6719 Q21.9189 23.7812 21.4971 24.0156 L21.4971 22.6719 Q22.0596 22.5469 22.6299 22.4766 Q23.2002 22.4062 23.7627 22.4062 Q25.2471 22.4062 25.9033 22.9844 Q26.5596 23.5625 26.5596 24.875 ZM33.6826 24.6719 L33.6826 28 L31.917 28 L31.917 27.4531 L31.917 25.4531 Q31.917 24.75 31.8857 24.4766 Q31.8545 24.2031 31.7764 24.0781 Q31.6826 23.9062 31.5029 23.8125 Q31.3232 23.7188 31.1045 23.7188 Q30.5576 23.7188 30.2451 24.1406 Q29.9326 24.5625 29.9326 25.3125 L29.9326 28 L28.1826 28 L28.1826 22.5312 L29.9326 22.5312 L29.9326 23.3281 Q30.3232 22.8594 30.7686 22.6328 Q31.2139 22.4062 31.7451 22.4062 Q32.6982 22.4062 33.1904 22.9844 Q33.6826 23.5625 33.6826 24.6719 ZM35.3018 22.5312 L37.0518 22.5312 L37.0518 28 L35.3018 28 L35.3018 22.5312 ZM35.3018 20.4062 L37.0518 20.4062 L37.0518 21.8281 L35.3018 21.8281 L35.3018 20.4062 ZM42.9951 22.7031 L42.9951 24.0312 Q42.4326 23.7969 41.9092 23.6797 Q41.3857 23.5625 40.9326 23.5625 Q40.4326 23.5625 40.1904 23.6875 Q39.9482 23.8125 39.9482 24.0625 Q39.9482 24.2812 40.1279 24.3906 Q40.3076 24.5 40.792 24.5625 L41.0889 24.5938 Q42.4326 24.7656 42.9014 25.1562 Q43.3701 25.5469 43.3701 26.3906 Q43.3701 27.2656 42.7217 27.7031 Q42.0732 28.1406 40.792 28.1406 Q40.2607 28.1406 39.6826 28.0547 Q39.1045 27.9688 38.4795 27.7969 L38.4795 26.4688 Q39.0107 26.7188 39.5576 26.8516 Q40.1045 26.9844 40.667 26.9844 Q41.1826 26.9844 41.4404 26.8438 Q41.6982 26.7031 41.6982 26.4219 Q41.6982 26.1875 41.5264 26.0703 Q41.3545 25.9531 40.8232 25.8906 L40.5107 25.8438 Q39.3389 25.7031 38.8701 25.3047 Q38.4014 24.9062 38.4014 24.1094 Q38.4014 23.2344 38.9951 22.8203 Q39.5889 22.4062 40.8232 22.4062 Q41.3076 22.4062 41.8389 22.4766 Q42.3701 22.5469 42.9951 22.7031 ZM49.7441 23.4375 Q50.0723 22.9375 50.5332 22.6719 Q50.9941 22.4062 51.541 22.4062 Q52.4785 22.4062 52.9707 22.9844 Q53.4629 23.5625 53.4629 24.6719 L53.4629 28 L51.7129 28 L51.7129 25.1406 Q51.7129 25.0781 51.7129 25.0156 Q51.7129 24.9531 51.7129 24.8281 Q51.7129 24.2344 51.5488 23.9766 Q51.3848 23.7188 50.9941 23.7188 Q50.4941 23.7188 50.2285 24.125 Q49.9629 24.5312 49.9473 25.3125 L49.9473 28 L48.1816 28 L48.1816 25.1406 Q48.1816 24.2344 48.0254 23.9766 Q47.8691 23.7188 47.4785 23.7188 Q46.9785 23.7188 46.7051 24.1328 Q46.4316 24.5469 46.4316 25.3125 L46.4316 28 L44.666 28 L44.666 22.5312 L46.4316 22.5312 L46.4316 23.3281 Q46.7441 22.875 47.166 22.6406 Q47.5879 22.4062 48.0879 22.4062 Q48.6504 22.4062 49.0879 22.6797 Q49.5254 22.9531 49.7441 23.4375 ZM55.3828 22.5312 L57.1328 22.5312 L57.1328 24.4219 L55.3828 24.4219 L55.3828 22.5312 ZM55.3828 26.1094 L57.1328 26.1094 L57.1328 28 L55.3828 28 L55.3828 26.1094 Z"
         style="clip-path:url(#clipPath3); stroke:none;"
         clip-path="url(#clipPath3)"
         id="path85" />
      <path
         d="M66.9844 20.7031 L67.9688 20.7031 L67.9688 23.7031 L71.5469 23.7031 L71.5469 20.7031 L72.5312 20.7031 L72.5312 28 L71.5469 28 L71.5469 24.5312 L67.9688 24.5312 L67.9688 28 L66.9844 28 L66.9844 20.7031 ZM76.582 23.1562 Q75.8633 23.1562 75.4414 23.7188 Q75.0195 24.2812 75.0195 25.2656 Q75.0195 26.25 75.4336 26.8125 Q75.8477 27.375 76.582 27.375 Q77.3008 27.375 77.7227 26.8125 Q78.1445 26.25 78.1445 25.2656 Q78.1445 24.2969 77.7227 23.7266 Q77.3008 23.1562 76.582 23.1562 ZM76.582 22.4062 Q77.7539 22.4062 78.4258 23.1641 Q79.0977 23.9219 79.0977 25.2656 Q79.0977 26.6094 78.4258 27.375 Q77.7539 28.1406 76.582 28.1406 Q75.4102 28.1406 74.7383 27.375 Q74.0664 26.6094 74.0664 25.2656 Q74.0664 23.9219 74.7383 23.1641 Q75.4102 22.4062 76.582 22.4062 ZM84.8408 23.5781 Q85.1689 22.9688 85.6377 22.6875 Q86.1064 22.4062 86.7471 22.4062 Q87.6064 22.4062 88.0674 23 Q88.5283 23.5938 88.5283 24.7031 L88.5283 28 L87.6221 28 L87.6221 24.7344 Q87.6221 23.9375 87.3486 23.5625 Q87.0752 23.1875 86.4971 23.1875 Q85.7939 23.1875 85.3955 23.6484 Q84.9971 24.1094 84.9971 24.9062 L84.9971 28 L84.0908 28 L84.0908 24.7344 Q84.0908 23.9375 83.8096 23.5625 Q83.5283 23.1875 82.9502 23.1875 Q82.2627 23.1875 81.8564 23.6484 Q81.4502 24.1094 81.4502 24.9062 L81.4502 28 L80.5439 28 L80.5439 22.5312 L81.4502 22.5312 L81.4502 23.375 Q81.7627 22.875 82.1924 22.6406 Q82.6221 22.4062 83.2002 22.4062 Q83.8096 22.4062 84.2236 22.7031 Q84.6377 23 84.8408 23.5781 ZM92.4414 23.1562 Q91.7227 23.1562 91.3008 23.7188 Q90.8789 24.2812 90.8789 25.2656 Q90.8789 26.25 91.293 26.8125 Q91.707 27.375 92.4414 27.375 Q93.1602 27.375 93.582 26.8125 Q94.0039 26.25 94.0039 25.2656 Q94.0039 24.2969 93.582 23.7266 Q93.1602 23.1562 92.4414 23.1562 ZM92.4414 22.4062 Q93.6133 22.4062 94.2852 23.1641 Q94.957 23.9219 94.957 25.2656 Q94.957 26.6094 94.2852 27.375 Q93.6133 28.1406 92.4414 28.1406 Q91.2695 28.1406 90.5977 27.375 Q89.9258 26.6094 89.9258 25.2656 Q89.9258 23.9219 90.5977 23.1641 Q91.2695 22.4062 92.4414 22.4062 ZM103.0977 22.6875 L103.0977 23.5469 Q102.7227 23.3438 102.3164 23.25 Q101.9102 23.1562 101.457 23.1562 Q100.8008 23.1562 100.4648 23.3594 Q100.1289 23.5625 100.1289 23.9688 Q100.1289 24.2812 100.3633 24.4609 Q100.5977 24.6406 101.332 24.7969 L101.6289 24.875 Q102.5977 25.0781 102.9961 25.4531 Q103.3945 25.8281 103.3945 26.4844 Q103.3945 27.25 102.793 27.6953 Q102.1914 28.1406 101.1445 28.1406 Q100.6914 28.1406 100.2148 28.0547 Q99.7383 27.9688 99.2227 27.7969 L99.2227 26.875 Q99.7227 27.125 100.1992 27.2578 Q100.6758 27.3906 101.1602 27.3906 Q101.7852 27.3906 102.1289 27.1719 Q102.4727 26.9531 102.4727 26.5625 Q102.4727 26.1875 102.2305 25.9922 Q101.9883 25.7969 101.1445 25.625 L100.832 25.5469 Q100.0039 25.375 99.6289 25.0078 Q99.2539 24.6406 99.2539 24.0156 Q99.2539 23.2344 99.8008 22.8203 Q100.3477 22.4062 101.3633 22.4062 Q101.8477 22.4062 102.293 22.4766 Q102.7383 22.5469 103.0977 22.6875 ZM107.3076 25.25 Q106.2295 25.25 105.8076 25.5 Q105.3857 25.75 105.3857 26.3438 Q105.3857 26.8281 105.6982 27.1094 Q106.0107 27.3906 106.5576 27.3906 Q107.3076 27.3906 107.7607 26.8594 Q108.2139 26.3281 108.2139 25.4531 L108.2139 25.25 L107.3076 25.25 ZM109.1045 24.875 L109.1045 28 L108.2139 28 L108.2139 27.1719 Q107.9014 27.6719 107.4404 27.9062 Q106.9795 28.1406 106.3232 28.1406 Q105.4795 28.1406 104.9795 27.6719 Q104.4795 27.2031 104.4795 26.4062 Q104.4795 25.4844 105.1045 25.0156 Q105.7295 24.5469 106.9482 24.5469 L108.2139 24.5469 L108.2139 24.4531 Q108.2139 23.8438 107.7998 23.5 Q107.3857 23.1562 106.6514 23.1562 Q106.1826 23.1562 105.7373 23.2734 Q105.292 23.3906 104.8857 23.6094 L104.8857 22.7812 Q105.3857 22.5938 105.8467 22.5 Q106.3076 22.4062 106.7451 22.4062 Q107.9326 22.4062 108.5186 23.0156 Q109.1045 23.625 109.1045 24.875 ZM111.8262 27.1719 L111.8262 30.0781 L110.9199 30.0781 L110.9199 22.5312 L111.8262 22.5312 L111.8262 23.3594 Q112.1074 22.875 112.5371 22.6406 Q112.9668 22.4062 113.5762 22.4062 Q114.5762 22.4062 115.1934 23.1953 Q115.8105 23.9844 115.8105 25.2656 Q115.8105 26.5625 115.1934 27.3516 Q114.5762 28.1406 113.5762 28.1406 Q112.9668 28.1406 112.5371 27.9062 Q112.1074 27.6719 111.8262 27.1719 ZM114.8887 25.2656 Q114.8887 24.2812 114.4746 23.7188 Q114.0605 23.1562 113.3574 23.1562 Q112.6387 23.1562 112.2324 23.7188 Q111.8262 24.2812 111.8262 25.2656 Q111.8262 26.2656 112.2324 26.8281 Q112.6387 27.3906 113.3574 27.3906 Q114.0605 27.3906 114.4746 26.8281 Q114.8887 26.2656 114.8887 25.2656 ZM117.2988 22.5312 L118.2051 22.5312 L118.2051 28 L117.2988 28 L117.2988 22.5312 ZM117.2988 20.4062 L118.2051 20.4062 L118.2051 21.5469 L117.2988 21.5469 L117.2988 20.4062 ZM124.7646 25.0469 L124.7646 25.4844 L120.624 25.4844 Q120.6865 26.4062 121.1865 26.8906 Q121.6865 27.375 122.5771 27.375 Q123.0928 27.375 123.585 27.25 Q124.0771 27.125 124.5459 26.875 L124.5459 27.7188 Q124.0615 27.9219 123.5537 28.0312 Q123.0459 28.1406 122.5303 28.1406 Q121.2178 28.1406 120.4521 27.3828 Q119.6865 26.625 119.6865 25.3125 Q119.6865 23.9688 120.4131 23.1875 Q121.1396 22.4062 122.374 22.4062 Q123.4834 22.4062 124.124 23.1094 Q124.7646 23.8125 124.7646 25.0469 ZM123.8584 24.7812 Q123.8584 24.0469 123.4521 23.6016 Q123.0459 23.1562 122.3896 23.1562 Q121.624 23.1562 121.1787 23.5859 Q120.7334 24.0156 120.6553 24.7812 L123.8584 24.7812 ZM130.7764 24.7031 L130.7764 28 L129.8857 28 L129.8857 24.7344 Q129.8857 23.9531 129.5811 23.5703 Q129.2764 23.1875 128.667 23.1875 Q127.9482 23.1875 127.5264 23.6484 Q127.1045 24.1094 127.1045 24.9062 L127.1045 28 L126.1982 28 L126.1982 22.5312 L127.1045 22.5312 L127.1045 23.375 Q127.4326 22.8906 127.8701 22.6484 Q128.3076 22.4062 128.8701 22.4062 Q129.8076 22.4062 130.292 22.9844 Q130.7764 23.5625 130.7764 24.7031 ZM136.0518 22.6875 L136.0518 23.5469 Q135.6768 23.3438 135.2705 23.25 Q134.8643 23.1562 134.4111 23.1562 Q133.7549 23.1562 133.4189 23.3594 Q133.083 23.5625 133.083 23.9688 Q133.083 24.2812 133.3174 24.4609 Q133.5518 24.6406 134.2861 24.7969 L134.583 24.875 Q135.5518 25.0781 135.9502 25.4531 Q136.3486 25.8281 136.3486 26.4844 Q136.3486 27.25 135.7471 27.6953 Q135.1455 28.1406 134.0986 28.1406 Q133.6455 28.1406 133.1689 28.0547 Q132.6924 27.9688 132.1768 27.7969 L132.1768 26.875 Q132.6768 27.125 133.1533 27.2578 Q133.6299 27.3906 134.1143 27.3906 Q134.7393 27.3906 135.083 27.1719 Q135.4268 26.9531 135.4268 26.5625 Q135.4268 26.1875 135.1846 25.9922 Q134.9424 25.7969 134.0986 25.625 L133.7861 25.5469 Q132.958 25.375 132.583 25.0078 Q132.208 24.6406 132.208 24.0156 Q132.208 23.2344 132.7549 22.8203 Q133.3018 22.4062 134.3174 22.4062 Q134.8018 22.4062 135.2471 22.4766 Q135.6924 22.5469 136.0518 22.6875 Z"
         style="clip-path:url(#clipPath3); stroke:none;"
         clip-path="url(#clipPath3)"
         id="path87" />
    </g>
    <g
       style="fill:navy; text-rendering:geometricPrecision; font-size:8; stroke:navy;"
       id="g93">
      <text
         x="159"
         xml:space="preserve"
         y="16"
         style="clip-path:url(#clipPath5); stroke:none;"
         clip-path="url(#clipPath5)"
         id="text91">1, 2</text>
    </g>
    <g
       style="text-rendering:geometricPrecision;"
       id="g99">
      <path
         d="M419.0004 257 L419.0004 323.5"
         style="fill:none; clip-path:url(#clipPath6);"
         clip-path="url(#clipPath6)"
         id="path95" />
      <path
         d="M419.0004 323.5 L424.2004 311.8 L413.8004 311.8 Z"
         style="clip-path:url(#clipPath6); fill-rule:evenodd; stroke:none;"
         clip-path="url(#clipPath6)"
         id="path97" />
    </g>
    <g
       style="text-rendering:geometricPrecision;"
       id="g103">
      <text
         x="352"
         xml:space="preserve"
         y="1137"
         style="clip-path:url(#clipPath7); stroke:none;"
         clip-path="url(#clipPath7)"
         id="text101">Blood vessel</text>
    </g>
    <g
       style="fill:white; text-rendering:geometricPrecision; stroke:white;"
       id="g111">
      <path
         d="M345.4317 430.5915 L492.569 430.5915 L492.569 487.3208 L345.4317 487.3208 L345.4317 430.5915 Z"
         style="clip-path:url(#clipPath8); stroke:none;"
         clip-path="url(#clipPath8)"
         id="path105" />
      <path
         d="M345.4317 430.5915 L492.569 430.5915 L492.569 487.3208 L345.4317 487.3208 L345.4317 430.5915 Z"
         style="fill:none; clip-path:url(#clipPath8); stroke:black;"
         clip-path="url(#clipPath8)"
         id="path107" />
      <text
         x="400"
         y="463"
         style="fill:black; clip-path:url(#clipPath8); stroke:none;"
         xml:space="preserve"
         clip-path="url(#clipPath8)"
         id="text109">KLKB1</text>
    </g>
    <g
       style="fill:white; text-rendering:geometricPrecision; stroke:white;"
       id="g119">
      <path
         d="M339.0004 213.5 L499.0004 213.5 L499.0004 257 L339.0004 257 L339.0004 213.5 Z"
         style="clip-path:url(#clipPath9); stroke:none;"
         clip-path="url(#clipPath9)"
         id="path113" />
      <path
         d="M339.0004 213.5 L499.0004 213.5 L499.0004 257 L339.0004 257 L339.0004 213.5 Z"
         style="fill:none; clip-path:url(#clipPath9); stroke:black;"
         clip-path="url(#clipPath9)"
         id="path115" />
      <text
         x="354"
         y="239"
         style="fill:black; clip-path:url(#clipPath9); stroke:none;"
         xml:space="preserve"
         clip-path="url(#clipPath9)"
         id="text117">Coagulation factor XII</text>
    </g>
    <g
       style="fill:white; text-rendering:geometricPrecision; stroke:white;"
       id="g127">
      <path
         d="M328.2504 94.711 L509.7504 94.711 L509.7504 142.211 L328.2504 142.211 L328.2504 94.711 Z"
         style="clip-path:url(#clipPath10); stroke:none;"
         clip-path="url(#clipPath10)"
         id="path121" />
      <path
         d="M328.2504 94.711 L509.7504 94.711 L509.7504 142.211 L328.2504 142.211 L328.2504 94.711 Z"
         style="fill:none; clip-path:url(#clipPath10); stroke:black;"
         clip-path="url(#clipPath10)"
         id="path123" />
      <text
         x="389"
         y="123"
         style="fill:black; clip-path:url(#clipPath10); stroke:none;"
         xml:space="preserve"
         clip-path="url(#clipPath10)"
         id="text125">SERPING1</text>
    </g>
    <g
       style="fill:white; text-rendering:geometricPrecision; stroke:white;"
       id="g135">
      <path
         d="M340.1053 572.0806 L500.6053 572.0806 L500.6053 627.5806 L340.1053 627.5806 L340.1053 572.0806 Z"
         style="clip-path:url(#clipPath11); stroke:none;"
         clip-path="url(#clipPath11)"
         id="path129" />
      <path
         d="M340.1053 572.0806 L500.6053 572.0806 L500.6053 627.5806 L340.1053 627.5806 L340.1053 572.0806 Z"
         style="fill:none; clip-path:url(#clipPath11); stroke:black;"
         clip-path="url(#clipPath11)"
         id="path131" />
      <text
         x="388"
         y="604"
         style="fill:black; clip-path:url(#clipPath11); stroke:none;"
         xml:space="preserve"
         clip-path="url(#clipPath11)"
         id="text133">Bradykinin</text>
    </g>
    <g
       style="fill:white; text-rendering:geometricPrecision; stroke:white;"
       id="g143">
      <path
         d="M140.5594 656.3431 L241.0594 656.3431 L241.0594 699.8431 L140.5594 699.8431 L140.5594 656.3431 Z"
         style="clip-path:url(#clipPath12); stroke:none;"
         clip-path="url(#clipPath12)"
         id="path137" />
      <path
         d="M140.5594 656.3431 L241.0594 656.3431 L241.0594 699.8431 L140.5594 699.8431 L140.5594 656.3431 Z"
         style="fill:none; clip-path:url(#clipPath12); stroke:black;"
         clip-path="url(#clipPath12)"
         id="path139" />
      <text
         x="175"
         y="682"
         style="fill:black; clip-path:url(#clipPath12); stroke:none;"
         xml:space="preserve"
         clip-path="url(#clipPath12)"
         id="text141">CPN1</text>
    </g>
    <g
       style="fill:white; text-rendering:geometricPrecision; stroke:white;"
       id="g151">
      <path
         d="M107.3211 758.6752 L280.8211 758.6752 L280.8211 815.1752 L107.3211 815.1752 L107.3211 758.6752 Z"
         style="clip-path:url(#clipPath13); stroke:none;"
         clip-path="url(#clipPath13)"
         id="path145" />
      <path
         d="M107.3211 758.6752 L280.8211 758.6752 L280.8211 815.1752 L107.3211 815.1752 L107.3211 758.6752 Z"
         style="fill:none; clip-path:url(#clipPath13); stroke:blue;"
         clip-path="url(#clipPath13)"
         id="path147" />
      <text
         x="130"
         y="791"
         style="fill:blue; clip-path:url(#clipPath13); stroke:none;"
         xml:space="preserve"
         clip-path="url(#clipPath13)"
         id="text149">des-arg(9) bradykinin</text>
    </g>
    <g
       style="fill:white; text-rendering:geometricPrecision; stroke:white;"
       id="g159">
      <path
         d="M95.3211 861.8878 L292.8211 861.8878 L292.8211 917.3878 L95.3211 917.3878 L95.3211 861.8878 Z"
         style="clip-path:url(#clipPath14); stroke:none;"
         clip-path="url(#clipPath14)"
         id="path153" />
      <path
         d="M95.3211 861.8878 L292.8211 861.8878 L292.8211 917.3878 L95.3211 917.3878 L95.3211 861.8878 Z"
         style="fill:none; clip-path:url(#clipPath14); stroke:black;"
         clip-path="url(#clipPath14)"
         id="path155" />
      <text
         x="170"
         y="894"
         style="fill:black; clip-path:url(#clipPath14); stroke:none;"
         xml:space="preserve"
         clip-path="url(#clipPath14)"
         id="text157">BDKRB1</text>
    </g>
    <g
       style="text-rendering:geometricPrecision;"
       id="g165">
      <path
         d="M419.0004 367 L419.0004 430.5915"
         style="fill:none; clip-path:url(#clipPath15);"
         clip-path="url(#clipPath15)"
         id="path161" />
      <path
         d="M419.0004 430.5915 L424.2004 418.8915 L413.8004 418.8915 Z"
         style="clip-path:url(#clipPath15); fill-rule:evenodd; stroke:none;"
         clip-path="url(#clipPath15)"
         id="path163" />
    </g>
    <g
       style="text-rendering:geometricPrecision;"
       id="g171">
      <path
         d="M419.0004 487.3208 L420.3553 572.0806"
         style="fill:none; clip-path:url(#clipPath16);"
         clip-path="url(#clipPath16)"
         id="path167" />
      <path
         d="M420.3553 572.0806 L425.3676 560.299 L414.9689 560.4651 Z"
         style="clip-path:url(#clipPath16); fill-rule:evenodd; stroke:none;"
         clip-path="url(#clipPath16)"
         id="path169" />
    </g>
    <g
       style="text-rendering:geometricPrecision;"
       id="g177">
      <path
         d="M420.3553 627.5806 L194.0711 758.6752"
         style="fill:none; clip-path:url(#clipPath17);"
         clip-path="url(#clipPath17)"
         id="path173" />
      <path
         d="M194.0711 758.6752 L206.8016 757.3096 L201.5882 748.3107 Z"
         style="clip-path:url(#clipPath17); fill-rule:evenodd; stroke:none;"
         clip-path="url(#clipPath17)"
         id="path175" />
    </g>
    <g
       style="text-rendering:geometricPrecision;"
       id="g183">
      <path
         d="M194.0711 815.1752 L194.0711 861.8878"
         style="fill:none; clip-path:url(#clipPath18);"
         clip-path="url(#clipPath18)"
         id="path179" />
      <path
         d="M194.0711 861.8878 L199.2711 850.1877 L188.8711 850.1877 Z"
         style="clip-path:url(#clipPath18); fill-rule:evenodd; stroke:none;"
         clip-path="url(#clipPath18)"
         id="path181" />
    </g>
    <g
       style="text-rendering:geometricPrecision;"
       id="g191">
      <path
         d="M241.0594 678.0931 L319.844 679.8016"
         style="fill:none; clip-path:url(#clipPath19);"
         clip-path="url(#clipPath19)"
         id="path185" />
      <path
         d="M330.2415 680.0271 C330.1793 682.8983 327.8012 685.1754 324.93 685.1131 C322.0588 685.0508 319.7817 682.6728 319.844 679.8016 C319.9062 676.9304 322.2843 674.6533 325.1555 674.7156 C328.0267 674.7778 330.3038 677.1559 330.2415 680.0271 Z"
         style="fill:white; clip-path:url(#clipPath19); stroke:none;"
         clip-path="url(#clipPath19)"
         id="path187" />
      <path
         d="M330.2415 680.0271 C330.1793 682.8983 327.8012 685.1754 324.93 685.1131 C322.0588 685.0508 319.7817 682.6728 319.844 679.8016 C319.9062 676.9304 322.2843 674.6533 325.1555 674.7156 C328.0267 674.7778 330.3038 677.1559 330.2415 680.0271 Z"
         style="fill:none; clip-path:url(#clipPath19);"
         clip-path="url(#clipPath19)"
         id="path189" />
    </g>
    <g
       style="fill:white; text-rendering:geometricPrecision; stroke:white;"
       id="g199">
      <path
         d="M481.1106 861.3615 L678.6106 861.3615 L678.6106 916.8615 L481.1106 916.8615 L481.1106 861.3615 Z"
         style="clip-path:url(#clipPath20); stroke:none;"
         clip-path="url(#clipPath20)"
         id="path193" />
      <path
         d="M481.1106 861.3615 L678.6106 861.3615 L678.6106 916.8615 L481.1106 916.8615 L481.1106 861.3615 Z"
         style="fill:none; clip-path:url(#clipPath20); stroke:black;"
         clip-path="url(#clipPath20)"
         id="path195" />
      <text
         x="556"
         y="893"
         style="fill:black; clip-path:url(#clipPath20); stroke:none;"
         xml:space="preserve"
         clip-path="url(#clipPath20)"
         id="text197">BDKRB2</text>
    </g>
    <g
       style="text-rendering:geometricPrecision;"
       id="g205">
      <path
         d="M420.3553 627.5806 L579.8606 861.3615"
         style="fill:none; clip-path:url(#clipPath21);"
         clip-path="url(#clipPath21)"
         id="path201" />
      <path
         d="M579.8606 861.3615 L577.562 848.766 L568.971 854.6274 Z"
         style="clip-path:url(#clipPath21); fill-rule:evenodd; stroke:none;"
         clip-path="url(#clipPath21)"
         id="path203" />
    </g>
    <g
       style="text-rendering:geometricPrecision;"
       id="g213">
      <path
         d="M419.0004 142.211 L419.0004 206.5"
         style="fill:none; clip-path:url(#clipPath22);"
         clip-path="url(#clipPath22)"
         id="path207" />
      <path
         d="M428.1004 206.5 L428.1004 207.8 L408.6004 207.8 L408.6004 206.5 L428.1004 206.5 Z"
         style="fill:white; clip-path:url(#clipPath22); stroke:none;"
         clip-path="url(#clipPath22)"
         id="path209" />
      <path
         d="M428.1004 206.5 L428.1004 207.8 L408.6004 207.8 L408.6004 206.5 L428.1004 206.5 Z"
         style="fill:none; clip-path:url(#clipPath22);"
         clip-path="url(#clipPath22)"
         id="path211" />
    </g>
    <g
       style="fill:white; text-rendering:geometricPrecision; stroke:white;"
       id="g221">
      <path
         d="M339.0004 323.5 L499.0004 323.5 L499.0004 367 L339.0004 367 L339.0004 323.5 Z"
         style="clip-path:url(#clipPath23); stroke:none;"
         clip-path="url(#clipPath23)"
         id="path215" />
      <path
         d="M339.0004 323.5 L499.0004 323.5 L499.0004 367 L339.0004 367 L339.0004 323.5 Z"
         style="fill:none; clip-path:url(#clipPath23); stroke:black;"
         clip-path="url(#clipPath23)"
         id="path217" />
      <text
         x="384"
         y="349"
         style="fill:black; clip-path:url(#clipPath23); stroke:none;"
         xml:space="preserve"
         clip-path="url(#clipPath23)"
         id="text219">Kininogen-1</text>
    </g>
  </g>
</svg>
