<?xml version="1.0" encoding="UTF-8" standalone="no"?>
<svg
   style="fill-opacity:1; color-rendering:auto; color-interpolation:auto; stroke:black; text-rendering:auto; stroke-linecap:square; stroke-miterlimit:10; stroke-opacity:1; shape-rendering:auto; fill:black; stroke-dasharray:none; font-weight:normal; stroke-width:1; font-family:'Dialog'; font-style:normal; stroke-linejoin:miter; font-size:12; stroke-dashoffset:0; image-rendering:auto;"
   width="805"
   height="376"
   version="1.1"
   id="svg537"
   xmlns="http://www.w3.org/2000/svg"
   xmlns:svg="http://www.w3.org/2000/svg">
  <!--Generated by the Batik Graphics2D SVG Generator-->
  <defs
     id="genericDefs" />
  <g
     id="g535">
    <defs
       id="defs1">
      <clipPath
         clipPathUnits="userSpaceOnUse"
         id="clipPath1">
        <path
           d="M0 0 L815 0 L815 374 L0 374 L0 0 Z"
           id="path3" />
      </clipPath>
      <clipPath
         clipPathUnits="userSpaceOnUse"
         id="clipPath2">
        <path
           d="M0 0 L0 200 L200 200 L200 0 Z"
           id="path6" />
      </clipPath>
      <clipPath
         clipPathUnits="userSpaceOnUse"
         id="clipPath3">
        <path
           d="M526.0341 257.5811 L526.0341 295.5811 L649.0341 295.5811 L649.0341 257.5811 Z"
           id="path9" />
      </clipPath>
      <clipPath
         clipPathUnits="userSpaceOnUse"
         id="clipPath4">
        <path
           d="M553 125 L553 181 L623 181 L623 125 Z"
           id="path12" />
      </clipPath>
      <clipPath
         clipPathUnits="userSpaceOnUse"
         id="clipPath5">
        <path
           d="M664.0526 116.0526 L664.0526 191.0526 L760.0526 191.0526 L760.0526 116.0526 Z"
           id="path15" />
      </clipPath>
      <clipPath
         clipPathUnits="userSpaceOnUse"
         id="clipPath6">
        <path
           d="M618 122 L618 143 L629 143 L629 122 Z"
           id="path18" />
      </clipPath>
      <clipPath
         clipPathUnits="userSpaceOnUse"
         id="clipPath7">
        <path
           d="M617.4551 109.918 L628.5449 109.918 L628.5449 125.2305 L617.4551 125.2305 L617.4551 109.918 Z"
           id="path21" />
      </clipPath>
      <clipPath
         clipPathUnits="userSpaceOnUse"
         id="clipPath8">
        <path
           d="M0 0 L0 17 L7 17 L7 0 Z"
           id="path24" />
      </clipPath>
      <clipPath
         clipPathUnits="userSpaceOnUse"
         id="clipPath9">
        <path
           d="M-4.5449 -16.082 L6.5449 -16.082 L6.5449 -0.7695 L-4.5449 -0.7695 L-4.5449 -16.082 Z"
           id="path27" />
      </clipPath>
      <clipPath
         clipPathUnits="userSpaceOnUse"
         id="clipPath10">
        <path
           d="M581.639 180.497 L581.639 258.8123 L593.5776 258.8123 L593.5776 180.497 Z"
           id="path30" />
      </clipPath>
      <clipPath
         clipPathUnits="userSpaceOnUse"
         id="clipPath11">
        <path
           d="M628.0703 142.171 L628.0703 162.7001 L664.5593 162.7001 L664.5593 142.171 Z"
           id="path33" />
      </clipPath>
      <clipPath
         clipPathUnits="userSpaceOnUse"
         id="clipPath12">
        <path
           d="M334.1693 294.0932 L334.1693 295.0932 L733.496 295.0932 L733.496 294.0932 Z"
           id="path36" />
      </clipPath>
      <clipPath
         clipPathUnits="userSpaceOnUse"
         id="clipPath13">
        <path
           d="M84.6183 128.3683 L84.6183 195.1688 L108.5862 195.1688 L108.5862 128.3683 Z"
           id="path39" />
      </clipPath>
      <clipPath
         clipPathUnits="userSpaceOnUse"
         id="clipPath14">
        <path
           d="M292.3402 174.3402 L292.3402 220.092 L313.1598 220.092 L313.1598 174.3402 Z"
           id="path42" />
      </clipPath>
      <clipPath
         clipPathUnits="userSpaceOnUse"
         id="clipPath15">
        <path
           d="M171.7707 113.6978 L171.7707 125.6192 L210.5263 125.6192 L210.5263 113.6978 Z"
           id="path45" />
      </clipPath>
      <clipPath
         clipPathUnits="userSpaceOnUse"
         id="clipPath16">
        <path
           d="M330.7692 228.2616 L330.7692 240.1979 L431.51 240.1979 L431.51 228.2616 Z"
           id="path48" />
      </clipPath>
      <clipPath
         clipPathUnits="userSpaceOnUse"
         id="clipPath17">
        <path
           d="M95.7689 113.0306 L95.7689 124.9694 L144.5 124.9694 L144.5 113.0306 Z"
           id="path51" />
      </clipPath>
      <clipPath
         clipPathUnits="userSpaceOnUse"
         id="clipPath18">
        <path
           d="M464.2284 152.297 L464.2284 199.9593 L502.703 199.9593 L502.703 152.297 Z"
           id="path54" />
      </clipPath>
      <clipPath
         clipPathUnits="userSpaceOnUse"
         id="clipPath19">
        <path
           d="M331.1633 308.0912 L331.1633 309.0912 L736.5 309.0912 L736.5 308.0912 Z"
           id="path57" />
      </clipPath>
      <clipPath
         clipPathUnits="userSpaceOnUse"
         id="clipPath20">
        <path
           d="M237.8104 153.851 L237.8104 220.6129 L264.6462 220.6129 L264.6462 153.851 Z"
           id="path60" />
      </clipPath>
      <clipPath
         clipPathUnits="userSpaceOnUse"
         id="clipPath21">
        <path
           d="M42.653 128.3919 L42.653 194.1929 L62.3581 194.1929 L62.3581 128.3919 Z"
           id="path63" />
      </clipPath>
      <clipPath
         clipPathUnits="userSpaceOnUse"
         id="clipPath22">
        <path
           d="M292.5 218.4667 L292.5 249.5 L332.5 249.5 L332.5 218.4667 Z"
           id="path66" />
      </clipPath>
      <clipPath
         clipPathUnits="userSpaceOnUse"
         id="clipPath23">
        <path
           d="M274.5 144.4667 L274.5 175.5 L311.5 175.5 L311.5 144.4667 Z"
           id="path69" />
      </clipPath>
      <clipPath
         clipPathUnits="userSpaceOnUse"
         id="clipPath24">
        <path
           d="M2.1909 77.59 L2.1909 350.8037 L791.2632 350.8037 L791.2632 77.59 Z"
           id="path72" />
      </clipPath>
      <clipPath
         clipPathUnits="userSpaceOnUse"
         id="clipPath25">
        <path
           d="M232.5 219.4667 L232.5 282.5 L295.5 282.5 L295.5 219.4667 Z"
           id="path75" />
      </clipPath>
      <clipPath
         clipPathUnits="userSpaceOnUse"
         id="clipPath26">
        <path
           d="M430.5 220.4667 L430.5 251.5 L470.5 251.5 L470.5 220.4667 Z"
           id="path78" />
      </clipPath>
      <clipPath
         clipPathUnits="userSpaceOnUse"
         id="clipPath27">
        <path
           d="M314.7549 119.5562 L314.7549 192.4438 L319.7451 192.4438 L319.7451 119.5562 Z"
           id="path81" />
      </clipPath>
      <clipPath
         clipPathUnits="userSpaceOnUse"
         id="clipPath28">
        <path
           d="M653.511 313.0912 L653.511 334.0912 L734.511 334.0912 L734.511 313.0912 Z"
           id="path84" />
      </clipPath>
      <clipPath
         clipPathUnits="userSpaceOnUse"
         id="clipPath29">
        <path
           d="M239.5 279.5 L239.5 300.5 L320.5 300.5 L320.5 279.5 Z"
           id="path87" />
      </clipPath>
      <clipPath
         clipPathUnits="userSpaceOnUse"
         id="clipPath30">
        <path
           d="M271.5 221.5 L271.5 241.5 L352.5 241.5 L352.5 221.5 Z"
           id="path90" />
      </clipPath>
      <clipPath
         clipPathUnits="userSpaceOnUse"
         id="clipPath31">
        <path
           d="M251.5 146.5 L251.5 167.5 L332.5 167.5 L332.5 146.5 Z"
           id="path93" />
      </clipPath>
      <clipPath
         clipPathUnits="userSpaceOnUse"
         id="clipPath32">
        <path
           d="M409.5 223.5 L409.5 243.5 L490.5 243.5 L490.5 223.5 Z"
           id="path96" />
      </clipPath>
      <clipPath
         clipPathUnits="userSpaceOnUse"
         id="clipPath33">
        <path
           d="M220.5 132.5 L220.5 155.5 L257.5 155.5 L257.5 132.5 Z"
           id="path99" />
      </clipPath>
      <clipPath
         clipPathUnits="userSpaceOnUse"
         id="clipPath34">
        <path
           d="M533.5341 265.0811 L533.5341 288.0811 L588.5341 288.0811 L588.5341 265.0811 Z"
           id="path102" />
      </clipPath>
      <clipPath
         clipPathUnits="userSpaceOnUse"
         id="clipPath35">
        <path
           d="M586.5341 265.0811 L586.5341 288.0811 L641.5341 288.0811 L641.5341 265.0811 Z"
           id="path105" />
      </clipPath>
      <clipPath
         clipPathUnits="userSpaceOnUse"
         id="clipPath36">
        <path
           d="M321.5 154.5 L321.5 175.5 L379.5 175.5 L379.5 154.5 Z"
           id="path108" />
      </clipPath>
      <clipPath
         clipPathUnits="userSpaceOnUse"
         id="clipPath37">
        <path
           d="M378.5 53.4667 L378.5 153.5 L407.5 153.5 L407.5 53.4667 Z"
           id="path111" />
      </clipPath>
      <clipPath
         clipPathUnits="userSpaceOnUse"
         id="clipPath38">
        <path
           d="M502.5 35.5 L502.5 56.5 L583.5 56.5 L583.5 35.5 Z"
           id="path114" />
      </clipPath>
      <clipPath
         clipPathUnits="userSpaceOnUse"
         id="clipPath39">
        <path
           d="M560.5 132.5 L560.5 153.5 L615.5 153.5 L615.5 132.5 Z"
           id="path117" />
      </clipPath>
      <clipPath
         clipPathUnits="userSpaceOnUse"
         id="clipPath40">
        <path
           d="M671.5526 162.5526 L671.5526 183.5526 L752.5526 183.5526 L752.5526 162.5526 Z"
           id="path120" />
      </clipPath>
      <clipPath
         clipPathUnits="userSpaceOnUse"
         id="clipPath41">
        <path
           d="M321.5 174.5 L321.5 195.5 L379.5 195.5 L379.5 174.5 Z"
           id="path123" />
      </clipPath>
      <clipPath
         clipPathUnits="userSpaceOnUse"
         id="clipPath42">
        <path
           d="M437.5 198.5 L437.5 219.5 L492.5 219.5 L492.5 198.5 Z"
           id="path126" />
      </clipPath>
      <clipPath
         clipPathUnits="userSpaceOnUse"
         id="clipPath43">
        <path
           d="M671.5526 143.5526 L671.5526 164.5526 L752.5526 164.5526 L752.5526 143.5526 Z"
           id="path129" />
      </clipPath>
      <clipPath
         clipPathUnits="userSpaceOnUse"
         id="clipPath44">
        <path
           d="M244.5 250.5 L244.5 271.5 L281.5 271.5 L281.5 250.5 Z"
           id="path132" />
      </clipPath>
      <clipPath
         clipPathUnits="userSpaceOnUse"
         id="clipPath45">
        <path
           d="M86 193.5 L86 214.5 L127.5 214.5 L127.5 193.5 Z"
           id="path135" />
      </clipPath>
      <clipPath
         clipPathUnits="userSpaceOnUse"
         id="clipPath46">
        <path
           d="M209.5 110.5 L209.5 131.5 L242.5 131.5 L242.5 110.5 Z"
           id="path138" />
      </clipPath>
      <clipPath
         clipPathUnits="userSpaceOnUse"
         id="clipPath47">
        <path
           d="M529.5 56.4667 L529.5 154.5 L561.5 154.5 L561.5 56.4667 Z"
           id="path141" />
      </clipPath>
      <clipPath
         clipPathUnits="userSpaceOnUse"
         id="clipPath48">
        <path
           d="M352.5 33.5 L352.5 54.5 L433.5 54.5 L433.5 33.5 Z"
           id="path144" />
      </clipPath>
      <clipPath
         clipPathUnits="userSpaceOnUse"
         id="clipPath49">
        <path
           d="M321.5 114.5 L321.5 135.5 L379.5 135.5 L379.5 114.5 Z"
           id="path147" />
      </clipPath>
      <clipPath
         clipPathUnits="userSpaceOnUse"
         id="clipPath50">
        <path
           d="M49.5 108.5 L49.5 129.5 L97.5 129.5 L97.5 108.5 Z"
           id="path150" />
      </clipPath>
      <clipPath
         clipPathUnits="userSpaceOnUse"
         id="clipPath51">
        <path
           d="M16.9211 192.5 L16.9211 213.5 L73.9211 213.5 L73.9211 192.5 Z"
           id="path153" />
      </clipPath>
      <clipPath
         clipPathUnits="userSpaceOnUse"
         id="clipPath52">
        <path
           d="M321.5 134.5 L321.5 155.5 L379.5 155.5 L379.5 134.5 Z"
           id="path156" />
      </clipPath>
      <clipPath
         clipPathUnits="userSpaceOnUse"
         id="clipPath53">
        <path
           d="M671.5526 123.5526 L671.5526 144.5526 L752.5526 144.5526 L752.5526 123.5526 Z"
           id="path159" />
      </clipPath>
      <clipPath
         clipPathUnits="userSpaceOnUse"
         id="clipPath54">
        <path
           d="M244.5 231.5 L244.5 251.5 L281.5 251.5 L281.5 231.5 Z"
           id="path162" />
      </clipPath>
      <clipPath
         clipPathUnits="userSpaceOnUse"
         id="clipPath55">
        <path
           d="M560.5 150.5 L560.5 173.5 L615.5 173.5 L615.5 150.5 Z"
           id="path165" />
      </clipPath>
      <clipPath
         clipPathUnits="userSpaceOnUse"
         id="clipPath56">
        <path
           d="M474.5 132.5 L474.5 153.5 L529.5 153.5 L529.5 132.5 Z"
           id="path168" />
      </clipPath>
      <clipPath
         clipPathUnits="userSpaceOnUse"
         id="clipPath57">
        <path
           d="M143.5 108.5 L143.5 129.5 L173.5 129.5 L173.5 108.5 Z"
           id="path171" />
      </clipPath>
    </defs>
    <g
       style="fill:white; stroke:white;"
       id="g177">
      <rect
         x="0"
         width="815"
         height="374"
         y="0"
         style="stroke:none;"
         id="rect175" />
    </g>
    <g
       style="font-weight:bold; font-size:10; text-rendering:geometricPrecision;"
       id="g187">
      <path
         d="M0.0469 6.7031 L6.7656 6.7031 L6.7656 8.125 L4.3438 8.125 L4.3438 14 L2.4688 14 L2.4688 8.125 L0.0469 8.125 L0.0469 6.7031 ZM7.665 8.5312 L9.415 8.5312 L9.415 14 L7.665 14 L7.665 8.5312 ZM7.665 6.4062 L9.415 6.4062 L9.415 7.8281 L7.665 7.8281 L7.665 6.4062 ZM12.999 6.9844 L12.999 8.5312 L14.7959 8.5312 L14.7959 9.7812 L12.999 9.7812 L12.999 12.0938 Q12.999 12.4844 13.1475 12.6172 Q13.2959 12.75 13.749 12.75 L14.6553 12.75 L14.6553 14 L13.1553 14 Q12.1084 14 11.6787 13.5703 Q11.249 13.1406 11.249 12.0938 L11.249 9.7812 L10.374 9.7812 L10.374 8.5312 L11.249 8.5312 L11.249 6.9844 L12.999 6.9844 ZM15.873 6.4062 L17.623 6.4062 L17.623 14 L15.873 14 L15.873 6.4062 ZM24.7539 11.25 L24.7539 11.75 L20.6758 11.75 Q20.7383 12.3594 21.1133 12.6719 Q21.4883 12.9844 22.1758 12.9844 Q22.7227 12.9844 23.3086 12.8203 Q23.8945 12.6562 24.5039 12.3125 L24.5039 13.6719 Q23.8789 13.9062 23.2617 14.0234 Q22.6445 14.1406 22.0195 14.1406 Q20.5352 14.1406 19.7148 13.3828 Q18.8945 12.625 18.8945 11.2656 Q18.8945 9.9375 19.6992 9.1719 Q20.5039 8.4062 21.9258 8.4062 Q23.207 8.4062 23.9805 9.1797 Q24.7539 9.9531 24.7539 11.25 ZM22.957 10.6719 Q22.957 10.1719 22.668 9.8672 Q22.3789 9.5625 21.9102 9.5625 Q21.3945 9.5625 21.082 9.8438 Q20.7695 10.125 20.6914 10.6719 L22.957 10.6719 ZM26.3643 8.5312 L28.1143 8.5312 L28.1143 10.4219 L26.3643 10.4219 L26.3643 8.5312 ZM26.3643 12.1094 L28.1143 12.1094 L28.1143 14 L26.3643 14 L26.3643 12.1094 Z"
         style="clip-path:url(#clipPath2); stroke:none;"
         clip-path="url(#clipPath2)"
         id="path179" />
      <path
         d="M38.9844 6.7031 L39.9688 6.7031 L39.9688 13.1719 L43.5156 13.1719 L43.5156 14 L38.9844 14 L38.9844 6.7031 ZM49.1963 11.0469 L49.1963 11.4844 L45.0557 11.4844 Q45.1182 12.4062 45.6182 12.8906 Q46.1182 13.375 47.0088 13.375 Q47.5244 13.375 48.0166 13.25 Q48.5088 13.125 48.9775 12.875 L48.9775 13.7188 Q48.4932 13.9219 47.9854 14.0312 Q47.4775 14.1406 46.9619 14.1406 Q45.6494 14.1406 44.8838 13.3828 Q44.1182 12.625 44.1182 11.3125 Q44.1182 9.9688 44.8447 9.1875 Q45.5713 8.4062 46.8057 8.4062 Q47.915 8.4062 48.5557 9.1094 Q49.1963 9.8125 49.1963 11.0469 ZM48.29 10.7812 Q48.29 10.0469 47.8838 9.6016 Q47.4775 9.1562 46.8213 9.1562 Q46.0557 9.1562 45.6104 9.5859 Q45.165 10.0156 45.0869 10.7812 L48.29 10.7812 ZM51.5361 13.1719 L51.5361 16.0781 L50.6299 16.0781 L50.6299 8.5312 L51.5361 8.5312 L51.5361 9.3594 Q51.8174 8.875 52.2471 8.6406 Q52.6768 8.4062 53.2861 8.4062 Q54.2861 8.4062 54.9033 9.1953 Q55.5205 9.9844 55.5205 11.2656 Q55.5205 12.5625 54.9033 13.3516 Q54.2861 14.1406 53.2861 14.1406 Q52.6768 14.1406 52.2471 13.9062 Q51.8174 13.6719 51.5361 13.1719 ZM54.5986 11.2656 Q54.5986 10.2812 54.1846 9.7188 Q53.7705 9.1562 53.0674 9.1562 Q52.3486 9.1562 51.9424 9.7188 Q51.5361 10.2812 51.5361 11.2656 Q51.5361 12.2656 51.9424 12.8281 Q52.3486 13.3906 53.0674 13.3906 Q53.7705 13.3906 54.1846 12.8281 Q54.5986 12.2656 54.5986 11.2656 ZM57.8994 6.9844 L57.8994 8.5312 L59.7588 8.5312 L59.7588 9.2344 L57.8994 9.2344 L57.8994 12.2031 Q57.8994 12.8594 58.0869 13.0547 Q58.2744 13.25 58.8369 13.25 L59.7588 13.25 L59.7588 14 L58.8369 14 Q57.79 14 57.3916 13.6094 Q56.9932 13.2188 56.9932 12.2031 L56.9932 9.2344 L56.3369 9.2344 L56.3369 8.5312 L56.9932 8.5312 L56.9932 6.9844 L57.8994 6.9844 ZM60.9297 8.5312 L61.8359 8.5312 L61.8359 14 L60.9297 14 L60.9297 8.5312 ZM60.9297 6.4062 L61.8359 6.4062 L61.8359 7.5469 L60.9297 7.5469 L60.9297 6.4062 ZM68.2549 10.7031 L68.2549 14 L67.3643 14 L67.3643 10.7344 Q67.3643 9.9531 67.0596 9.5703 Q66.7549 9.1875 66.1455 9.1875 Q65.4268 9.1875 65.0049 9.6484 Q64.583 10.1094 64.583 10.9062 L64.583 14 L63.6768 14 L63.6768 8.5312 L64.583 8.5312 L64.583 9.375 Q64.9111 8.8906 65.3486 8.6484 Q65.7861 8.4062 66.3486 8.4062 Q67.2861 8.4062 67.7705 8.9844 Q68.2549 9.5625 68.2549 10.7031 ZM69.5928 10.8594 L72.2334 10.8594 L72.2334 11.6562 L69.5928 11.6562 L69.5928 10.8594 ZM73.6543 8.5312 L74.5605 8.5312 L74.5605 14 L73.6543 14 L73.6543 8.5312 ZM73.6543 6.4062 L74.5605 6.4062 L74.5605 7.5469 L73.6543 7.5469 L73.6543 6.4062 ZM80.9795 10.7031 L80.9795 14 L80.0889 14 L80.0889 10.7344 Q80.0889 9.9531 79.7842 9.5703 Q79.4795 9.1875 78.8701 9.1875 Q78.1514 9.1875 77.7295 9.6484 Q77.3076 10.1094 77.3076 10.9062 L77.3076 14 L76.4014 14 L76.4014 8.5312 L77.3076 8.5312 L77.3076 9.375 Q77.6357 8.8906 78.0732 8.6484 Q78.5107 8.4062 79.0732 8.4062 Q80.0107 8.4062 80.4951 8.9844 Q80.9795 9.5625 80.9795 10.7031 ZM86.2549 8.6875 L86.2549 9.5469 Q85.8799 9.3438 85.4736 9.25 Q85.0674 9.1562 84.6143 9.1562 Q83.958 9.1562 83.6221 9.3594 Q83.2861 9.5625 83.2861 9.9688 Q83.2861 10.2812 83.5205 10.4609 Q83.7549 10.6406 84.4893 10.7969 L84.7861 10.875 Q85.7549 11.0781 86.1533 11.4531 Q86.5518 11.8281 86.5518 12.4844 Q86.5518 13.25 85.9502 13.6953 Q85.3486 14.1406 84.3018 14.1406 Q83.8486 14.1406 83.3721 14.0547 Q82.8955 13.9688 82.3799 13.7969 L82.3799 12.875 Q82.8799 13.125 83.3564 13.2578 Q83.833 13.3906 84.3174 13.3906 Q84.9424 13.3906 85.2861 13.1719 Q85.6299 12.9531 85.6299 12.5625 Q85.6299 12.1875 85.3877 11.9922 Q85.1455 11.7969 84.3018 11.625 L83.9893 11.5469 Q83.1611 11.375 82.7861 11.0078 Q82.4111 10.6406 82.4111 10.0156 Q82.4111 9.2344 82.958 8.8203 Q83.5049 8.4062 84.5205 8.4062 Q85.0049 8.4062 85.4502 8.4766 Q85.8955 8.5469 86.2549 8.6875 ZM87.8867 11.8438 L87.8867 8.5312 L88.793 8.5312 L88.793 11.8125 Q88.793 12.5781 89.0977 12.9688 Q89.4023 13.3594 89.9961 13.3594 Q90.7305 13.3594 91.1523 12.8984 Q91.5742 12.4375 91.5742 11.625 L91.5742 8.5312 L92.4805 8.5312 L92.4805 14 L91.5742 14 L91.5742 13.1562 Q91.2461 13.6562 90.8164 13.8984 Q90.3867 14.1406 89.8086 14.1406 Q88.8711 14.1406 88.3789 13.5547 Q87.8867 12.9688 87.8867 11.8438 ZM90.1523 8.4062 L90.1523 8.4062 ZM94.3184 6.4062 L95.2246 6.4062 L95.2246 14 L94.3184 14 L94.3184 6.4062 ZM97.0967 8.5312 L98.0029 8.5312 L98.0029 14 L97.0967 14 L97.0967 8.5312 ZM97.0967 6.4062 L98.0029 6.4062 L98.0029 7.5469 L97.0967 7.5469 L97.0967 6.4062 ZM104.4219 10.7031 L104.4219 14 L103.5312 14 L103.5312 10.7344 Q103.5312 9.9531 103.2266 9.5703 Q102.9219 9.1875 102.3125 9.1875 Q101.5938 9.1875 101.1719 9.6484 Q100.75 10.1094 100.75 10.9062 L100.75 14 L99.8438 14 L99.8438 8.5312 L100.75 8.5312 L100.75 9.375 Q101.0781 8.8906 101.5156 8.6484 Q101.9531 8.4062 102.5156 8.4062 Q103.4531 8.4062 103.9375 8.9844 Q104.4219 9.5625 104.4219 10.7031 ZM112.876 8.6875 L112.876 9.5469 Q112.501 9.3438 112.0947 9.25 Q111.6885 9.1562 111.2354 9.1562 Q110.5791 9.1562 110.2432 9.3594 Q109.9072 9.5625 109.9072 9.9688 Q109.9072 10.2812 110.1416 10.4609 Q110.376 10.6406 111.1104 10.7969 L111.4072 10.875 Q112.376 11.0781 112.7744 11.4531 Q113.1729 11.8281 113.1729 12.4844 Q113.1729 13.25 112.5713 13.6953 Q111.9697 14.1406 110.9229 14.1406 Q110.4697 14.1406 109.9932 14.0547 Q109.5166 13.9688 109.001 13.7969 L109.001 12.875 Q109.501 13.125 109.9775 13.2578 Q110.4541 13.3906 110.9385 13.3906 Q111.5635 13.3906 111.9072 13.1719 Q112.251 12.9531 112.251 12.5625 Q112.251 12.1875 112.0088 11.9922 Q111.7666 11.7969 110.9229 11.625 L110.6104 11.5469 Q109.7822 11.375 109.4072 11.0078 Q109.0322 10.6406 109.0322 10.0156 Q109.0322 9.2344 109.5791 8.8203 Q110.126 8.4062 111.1416 8.4062 Q111.626 8.4062 112.0713 8.4766 Q112.5166 8.5469 112.876 8.6875 ZM114.6016 8.5312 L115.5078 8.5312 L115.5078 14 L114.6016 14 L114.6016 8.5312 ZM114.6016 6.4062 L115.5078 6.4062 L115.5078 7.5469 L114.6016 7.5469 L114.6016 6.4062 ZM120.9893 11.2031 Q120.9893 10.2188 120.583 9.6875 Q120.1768 9.1562 119.458 9.1562 Q118.7236 9.1562 118.3252 9.6875 Q117.9268 10.2188 117.9268 11.2031 Q117.9268 12.1719 118.3252 12.7109 Q118.7236 13.25 119.458 13.25 Q120.1768 13.25 120.583 12.7109 Q120.9893 12.1719 120.9893 11.2031 ZM121.8799 13.3281 Q121.8799 14.7188 121.2627 15.3984 Q120.6455 16.0781 119.3643 16.0781 Q118.8955 16.0781 118.4736 16.0078 Q118.0518 15.9375 117.6611 15.7969 L117.6611 14.9219 Q118.0518 15.1406 118.4346 15.2422 Q118.8174 15.3438 119.2236 15.3438 Q120.0986 15.3438 120.5439 14.8828 Q120.9893 14.4219 120.9893 13.4844 L120.9893 13.0312 Q120.708 13.5156 120.2705 13.7578 Q119.833 14 119.2236 14 Q118.2236 14 117.6064 13.2344 Q116.9893 12.4688 116.9893 11.2031 Q116.9893 9.9375 117.6064 9.1719 Q118.2236 8.4062 119.2236 8.4062 Q119.833 8.4062 120.2705 8.6406 Q120.708 8.875 120.9893 9.3594 L120.9893 8.5312 L121.8799 8.5312 L121.8799 13.3281 ZM128.2744 10.7031 L128.2744 14 L127.3838 14 L127.3838 10.7344 Q127.3838 9.9531 127.0791 9.5703 Q126.7744 9.1875 126.165 9.1875 Q125.4463 9.1875 125.0244 9.6484 Q124.6025 10.1094 124.6025 10.9062 L124.6025 14 L123.6963 14 L123.6963 8.5312 L124.6025 8.5312 L124.6025 9.375 Q124.9307 8.8906 125.3682 8.6484 Q125.8057 8.4062 126.3682 8.4062 Q127.3057 8.4062 127.79 8.9844 Q128.2744 9.5625 128.2744 10.7031 ZM132.5498 11.25 Q131.4717 11.25 131.0498 11.5 Q130.6279 11.75 130.6279 12.3438 Q130.6279 12.8281 130.9404 13.1094 Q131.2529 13.3906 131.7998 13.3906 Q132.5498 13.3906 133.0029 12.8594 Q133.4561 12.3281 133.4561 11.4531 L133.4561 11.25 L132.5498 11.25 ZM134.3467 10.875 L134.3467 14 L133.4561 14 L133.4561 13.1719 Q133.1436 13.6719 132.6826 13.9062 Q132.2217 14.1406 131.5654 14.1406 Q130.7217 14.1406 130.2217 13.6719 Q129.7217 13.2031 129.7217 12.4062 Q129.7217 11.4844 130.3467 11.0156 Q130.9717 10.5469 132.1904 10.5469 L133.4561 10.5469 L133.4561 10.4531 Q133.4561 9.8438 133.042 9.5 Q132.6279 9.1562 131.8936 9.1562 Q131.4248 9.1562 130.9795 9.2734 Q130.5342 9.3906 130.1279 9.6094 L130.1279 8.7812 Q130.6279 8.5938 131.0889 8.5 Q131.5498 8.4062 131.9873 8.4062 Q133.1748 8.4062 133.7607 9.0156 Q134.3467 9.625 134.3467 10.875 ZM136.1934 6.4062 L137.0996 6.4062 L137.0996 14 L136.1934 14 L136.1934 6.4062 ZM138.9717 8.5312 L139.8779 8.5312 L139.8779 14 L138.9717 14 L138.9717 8.5312 ZM138.9717 6.4062 L139.8779 6.4062 L139.8779 7.5469 L138.9717 7.5469 L138.9717 6.4062 ZM146.2969 10.7031 L146.2969 14 L145.4062 14 L145.4062 10.7344 Q145.4062 9.9531 145.1016 9.5703 Q144.7969 9.1875 144.1875 9.1875 Q143.4688 9.1875 143.0469 9.6484 Q142.625 10.1094 142.625 10.9062 L142.625 14 L141.7188 14 L141.7188 8.5312 L142.625 8.5312 L142.625 9.375 Q142.9531 8.8906 143.3906 8.6484 Q143.8281 8.4062 144.3906 8.4062 Q145.3281 8.4062 145.8125 8.9844 Q146.2969 9.5625 146.2969 10.7031 ZM151.6973 11.2031 Q151.6973 10.2188 151.291 9.6875 Q150.8848 9.1562 150.166 9.1562 Q149.4316 9.1562 149.0332 9.6875 Q148.6348 10.2188 148.6348 11.2031 Q148.6348 12.1719 149.0332 12.7109 Q149.4316 13.25 150.166 13.25 Q150.8848 13.25 151.291 12.7109 Q151.6973 12.1719 151.6973 11.2031 ZM152.5879 13.3281 Q152.5879 14.7188 151.9707 15.3984 Q151.3535 16.0781 150.0723 16.0781 Q149.6035 16.0781 149.1816 16.0078 Q148.7598 15.9375 148.3691 15.7969 L148.3691 14.9219 Q148.7598 15.1406 149.1426 15.2422 Q149.5254 15.3438 149.9316 15.3438 Q150.8066 15.3438 151.252 14.8828 Q151.6973 14.4219 151.6973 13.4844 L151.6973 13.0312 Q151.416 13.5156 150.9785 13.7578 Q150.541 14 149.9316 14 Q148.9316 14 148.3145 13.2344 Q147.6973 12.4688 147.6973 11.2031 Q147.6973 9.9375 148.3145 9.1719 Q148.9316 8.4062 149.9316 8.4062 Q150.541 8.4062 150.9785 8.6406 Q151.416 8.875 151.6973 9.3594 L151.6973 8.5312 L152.5879 8.5312 L152.5879 13.3281 ZM159.7393 9.1562 Q159.0205 9.1562 158.5986 9.7188 Q158.1768 10.2812 158.1768 11.2656 Q158.1768 12.25 158.5908 12.8125 Q159.0049 13.375 159.7393 13.375 Q160.458 13.375 160.8799 12.8125 Q161.3018 12.25 161.3018 11.2656 Q161.3018 10.2969 160.8799 9.7266 Q160.458 9.1562 159.7393 9.1562 ZM159.7393 8.4062 Q160.9111 8.4062 161.583 9.1641 Q162.2549 9.9219 162.2549 11.2656 Q162.2549 12.6094 161.583 13.375 Q160.9111 14.1406 159.7393 14.1406 Q158.5674 14.1406 157.8955 13.375 Q157.2236 12.6094 157.2236 11.2656 Q157.2236 9.9219 157.8955 9.1641 Q158.5674 8.4062 159.7393 8.4062 ZM163.0918 8.5312 L164.0449 8.5312 L165.748 13.125 L167.4668 8.5312 L168.4199 8.5312 L166.3574 14 L165.1387 14 L163.0918 8.5312 ZM174.3379 11.0469 L174.3379 11.4844 L170.1973 11.4844 Q170.2598 12.4062 170.7598 12.8906 Q171.2598 13.375 172.1504 13.375 Q172.666 13.375 173.1582 13.25 Q173.6504 13.125 174.1191 12.875 L174.1191 13.7188 Q173.6348 13.9219 173.127 14.0312 Q172.6191 14.1406 172.1035 14.1406 Q170.791 14.1406 170.0254 13.3828 Q169.2598 12.625 169.2598 11.3125 Q169.2598 9.9688 169.9863 9.1875 Q170.7129 8.4062 171.9473 8.4062 Q173.0566 8.4062 173.6973 9.1094 Q174.3379 9.8125 174.3379 11.0469 ZM173.4316 10.7812 Q173.4316 10.0469 173.0254 9.6016 Q172.6191 9.1562 171.9629 9.1562 Q171.1973 9.1562 170.752 9.5859 Q170.3066 10.0156 170.2285 10.7812 L173.4316 10.7812 ZM178.9746 9.375 Q178.8184 9.2812 178.6465 9.2422 Q178.4746 9.2031 178.2559 9.2031 Q177.4902 9.2031 177.084 9.6953 Q176.6777 10.1875 176.6777 11.125 L176.6777 14 L175.7715 14 L175.7715 8.5312 L176.6777 8.5312 L176.6777 9.375 Q176.959 8.875 177.4121 8.6406 Q177.8652 8.4062 178.5215 8.4062 Q178.6152 8.4062 178.7246 8.4141 Q178.834 8.4219 178.9746 8.4531 L178.9746 9.375 ZM179.9141 6.4062 L180.8203 6.4062 L180.8203 14 L179.9141 14 L179.9141 6.4062 ZM185.1768 11.25 Q184.0986 11.25 183.6768 11.5 Q183.2549 11.75 183.2549 12.3438 Q183.2549 12.8281 183.5674 13.1094 Q183.8799 13.3906 184.4268 13.3906 Q185.1768 13.3906 185.6299 12.8594 Q186.083 12.3281 186.083 11.4531 L186.083 11.25 L185.1768 11.25 ZM186.9736 10.875 L186.9736 14 L186.083 14 L186.083 13.1719 Q185.7705 13.6719 185.3096 13.9062 Q184.8486 14.1406 184.1924 14.1406 Q183.3486 14.1406 182.8486 13.6719 Q182.3486 13.2031 182.3486 12.4062 Q182.3486 11.4844 182.9736 11.0156 Q183.5986 10.5469 184.8174 10.5469 L186.083 10.5469 L186.083 10.4531 Q186.083 9.8438 185.6689 9.5 Q185.2549 9.1562 184.5205 9.1562 Q184.0518 9.1562 183.6064 9.2734 Q183.1611 9.3906 182.7549 9.6094 L182.7549 8.7812 Q183.2549 8.5938 183.7158 8.5 Q184.1768 8.4062 184.6143 8.4062 Q185.8018 8.4062 186.3877 9.0156 Q186.9736 9.625 186.9736 10.875 ZM189.6953 13.1719 L189.6953 16.0781 L188.7891 16.0781 L188.7891 8.5312 L189.6953 8.5312 L189.6953 9.3594 Q189.9766 8.875 190.4062 8.6406 Q190.8359 8.4062 191.4453 8.4062 Q192.4453 8.4062 193.0625 9.1953 Q193.6797 9.9844 193.6797 11.2656 Q193.6797 12.5625 193.0625 13.3516 Q192.4453 14.1406 191.4453 14.1406 Q190.8359 14.1406 190.4062 13.9062 Q189.9766 13.6719 189.6953 13.1719 ZM192.7578 11.2656 Q192.7578 10.2812 192.3438 9.7188 Q191.9297 9.1562 191.2266 9.1562 Q190.5078 9.1562 190.1016 9.7188 Q189.6953 10.2812 189.6953 11.2656 Q189.6953 12.2656 190.1016 12.8281 Q190.5078 13.3906 191.2266 13.3906 Q191.9297 13.3906 192.3438 12.8281 Q192.7578 12.2656 192.7578 11.2656 Z"
         style="clip-path:url(#clipPath2); stroke:none;"
         clip-path="url(#clipPath2)"
         id="path181" />
      <path
         d="M4.25 21.9375 Q3.3906 21.9375 2.9141 22.5703 Q2.4375 23.2031 2.4375 24.3594 Q2.4375 25.5156 2.9141 26.1484 Q3.3906 26.7812 4.25 26.7812 Q5.1094 26.7812 5.5859 26.1484 Q6.0625 25.5156 6.0625 24.3594 Q6.0625 23.2031 5.5859 22.5703 Q5.1094 21.9375 4.25 21.9375 ZM4.25 20.5781 Q6 20.5781 7 21.5859 Q8 22.5938 8 24.3594 Q8 26.125 7 27.1328 Q6 28.1406 4.25 28.1406 Q2.5 28.1406 1.5 27.1328 Q0.5 26.125 0.5 24.3594 Q0.5 22.5938 1.5 21.5859 Q2.5 20.5781 4.25 20.5781 ZM13.4072 24.0156 Q13.1729 23.9062 12.9463 23.8594 Q12.7197 23.8125 12.4854 23.8125 Q11.8135 23.8125 11.4541 24.2422 Q11.0947 24.6719 11.0947 25.4844 L11.0947 28 L9.3447 28 L9.3447 22.5312 L11.0947 22.5312 L11.0947 23.4219 Q11.4229 22.8906 11.8604 22.6484 Q12.2979 22.4062 12.9072 22.4062 Q13.001 22.4062 13.1025 22.4062 Q13.2041 22.4062 13.3916 22.4375 L13.4072 24.0156 ZM17.9951 27.0781 Q17.6357 27.5469 17.1982 27.7734 Q16.7607 28 16.1982 28 Q15.1982 28 14.542 27.2109 Q13.8857 26.4219 13.8857 25.2031 Q13.8857 23.9688 14.542 23.1875 Q15.1982 22.4062 16.1982 22.4062 Q16.7607 22.4062 17.1982 22.6328 Q17.6357 22.8594 17.9951 23.3438 L17.9951 22.5312 L19.7451 22.5312 L19.7451 27.4531 Q19.7451 28.7656 18.917 29.4609 Q18.0889 30.1562 16.5107 30.1562 Q15.9951 30.1562 15.5186 30.0781 Q15.042 30 14.5576 29.8438 L14.5576 28.4844 Q15.0107 28.75 15.4482 28.875 Q15.8857 29 16.3389 29 Q17.1982 29 17.5967 28.625 Q17.9951 28.25 17.9951 27.4531 L17.9951 27.0781 ZM16.8389 23.6719 Q16.292 23.6719 15.9951 24.0703 Q15.6982 24.4688 15.6982 25.2031 Q15.6982 25.9531 15.9873 26.3438 Q16.2764 26.7344 16.8389 26.7344 Q17.3857 26.7344 17.6904 26.3281 Q17.9951 25.9219 17.9951 25.2031 Q17.9951 24.4688 17.6904 24.0703 Q17.3857 23.6719 16.8389 23.6719 ZM23.8877 25.5312 Q23.3408 25.5312 23.0596 25.7188 Q22.7783 25.9062 22.7783 26.2656 Q22.7783 26.6094 23.0049 26.7969 Q23.2314 26.9844 23.6221 26.9844 Q24.1221 26.9844 24.458 26.625 Q24.7939 26.2656 24.7939 25.7344 L24.7939 25.5312 L23.8877 25.5312 ZM26.5596 24.875 L26.5596 28 L24.7939 28 L24.7939 27.1875 Q24.4346 27.6875 23.9971 27.9141 Q23.5596 28.1406 22.9346 28.1406 Q22.0752 28.1406 21.5518 27.6484 Q21.0283 27.1562 21.0283 26.3594 Q21.0283 25.3906 21.6846 24.9453 Q22.3408 24.5 23.7627 24.5 L24.7939 24.5 L24.7939 24.3594 Q24.7939 23.9531 24.4658 23.7578 Q24.1377 23.5625 23.4502 23.5625 Q22.8877 23.5625 22.4033 23.6719 Q21.9189 23.7812 21.4971 24.0156 L21.4971 22.6719 Q22.0596 22.5469 22.6299 22.4766 Q23.2002 22.4062 23.7627 22.4062 Q25.2471 22.4062 25.9033 22.9844 Q26.5596 23.5625 26.5596 24.875 ZM33.6826 24.6719 L33.6826 28 L31.917 28 L31.917 27.4531 L31.917 25.4531 Q31.917 24.75 31.8857 24.4766 Q31.8545 24.2031 31.7764 24.0781 Q31.6826 23.9062 31.5029 23.8125 Q31.3232 23.7188 31.1045 23.7188 Q30.5576 23.7188 30.2451 24.1406 Q29.9326 24.5625 29.9326 25.3125 L29.9326 28 L28.1826 28 L28.1826 22.5312 L29.9326 22.5312 L29.9326 23.3281 Q30.3232 22.8594 30.7686 22.6328 Q31.2139 22.4062 31.7451 22.4062 Q32.6982 22.4062 33.1904 22.9844 Q33.6826 23.5625 33.6826 24.6719 ZM35.3018 22.5312 L37.0518 22.5312 L37.0518 28 L35.3018 28 L35.3018 22.5312 ZM35.3018 20.4062 L37.0518 20.4062 L37.0518 21.8281 L35.3018 21.8281 L35.3018 20.4062 ZM42.9951 22.7031 L42.9951 24.0312 Q42.4326 23.7969 41.9092 23.6797 Q41.3857 23.5625 40.9326 23.5625 Q40.4326 23.5625 40.1904 23.6875 Q39.9482 23.8125 39.9482 24.0625 Q39.9482 24.2812 40.1279 24.3906 Q40.3076 24.5 40.792 24.5625 L41.0889 24.5938 Q42.4326 24.7656 42.9014 25.1562 Q43.3701 25.5469 43.3701 26.3906 Q43.3701 27.2656 42.7217 27.7031 Q42.0732 28.1406 40.792 28.1406 Q40.2607 28.1406 39.6826 28.0547 Q39.1045 27.9688 38.4795 27.7969 L38.4795 26.4688 Q39.0107 26.7188 39.5576 26.8516 Q40.1045 26.9844 40.667 26.9844 Q41.1826 26.9844 41.4404 26.8438 Q41.6982 26.7031 41.6982 26.4219 Q41.6982 26.1875 41.5264 26.0703 Q41.3545 25.9531 40.8232 25.8906 L40.5107 25.8438 Q39.3389 25.7031 38.8701 25.3047 Q38.4014 24.9062 38.4014 24.1094 Q38.4014 23.2344 38.9951 22.8203 Q39.5889 22.4062 40.8232 22.4062 Q41.3076 22.4062 41.8389 22.4766 Q42.3701 22.5469 42.9951 22.7031 ZM49.7441 23.4375 Q50.0723 22.9375 50.5332 22.6719 Q50.9941 22.4062 51.541 22.4062 Q52.4785 22.4062 52.9707 22.9844 Q53.4629 23.5625 53.4629 24.6719 L53.4629 28 L51.7129 28 L51.7129 25.1406 Q51.7129 25.0781 51.7129 25.0156 Q51.7129 24.9531 51.7129 24.8281 Q51.7129 24.2344 51.5488 23.9766 Q51.3848 23.7188 50.9941 23.7188 Q50.4941 23.7188 50.2285 24.125 Q49.9629 24.5312 49.9473 25.3125 L49.9473 28 L48.1816 28 L48.1816 25.1406 Q48.1816 24.2344 48.0254 23.9766 Q47.8691 23.7188 47.4785 23.7188 Q46.9785 23.7188 46.7051 24.1328 Q46.4316 24.5469 46.4316 25.3125 L46.4316 28 L44.666 28 L44.666 22.5312 L46.4316 22.5312 L46.4316 23.3281 Q46.7441 22.875 47.166 22.6406 Q47.5879 22.4062 48.0879 22.4062 Q48.6504 22.4062 49.0879 22.6797 Q49.5254 22.9531 49.7441 23.4375 ZM55.3828 22.5312 L57.1328 22.5312 L57.1328 24.4219 L55.3828 24.4219 L55.3828 22.5312 ZM55.3828 26.1094 L57.1328 26.1094 L57.1328 28 L55.3828 28 L55.3828 26.1094 Z"
         style="clip-path:url(#clipPath2); stroke:none;"
         clip-path="url(#clipPath2)"
         id="path183" />
      <path
         d="M66.9844 20.7031 L67.9688 20.7031 L67.9688 23.7031 L71.5469 23.7031 L71.5469 20.7031 L72.5312 20.7031 L72.5312 28 L71.5469 28 L71.5469 24.5312 L67.9688 24.5312 L67.9688 28 L66.9844 28 L66.9844 20.7031 ZM76.582 23.1562 Q75.8633 23.1562 75.4414 23.7188 Q75.0195 24.2812 75.0195 25.2656 Q75.0195 26.25 75.4336 26.8125 Q75.8477 27.375 76.582 27.375 Q77.3008 27.375 77.7227 26.8125 Q78.1445 26.25 78.1445 25.2656 Q78.1445 24.2969 77.7227 23.7266 Q77.3008 23.1562 76.582 23.1562 ZM76.582 22.4062 Q77.7539 22.4062 78.4258 23.1641 Q79.0977 23.9219 79.0977 25.2656 Q79.0977 26.6094 78.4258 27.375 Q77.7539 28.1406 76.582 28.1406 Q75.4102 28.1406 74.7383 27.375 Q74.0664 26.6094 74.0664 25.2656 Q74.0664 23.9219 74.7383 23.1641 Q75.4102 22.4062 76.582 22.4062 ZM84.8408 23.5781 Q85.1689 22.9688 85.6377 22.6875 Q86.1064 22.4062 86.7471 22.4062 Q87.6064 22.4062 88.0674 23 Q88.5283 23.5938 88.5283 24.7031 L88.5283 28 L87.6221 28 L87.6221 24.7344 Q87.6221 23.9375 87.3486 23.5625 Q87.0752 23.1875 86.4971 23.1875 Q85.7939 23.1875 85.3955 23.6484 Q84.9971 24.1094 84.9971 24.9062 L84.9971 28 L84.0908 28 L84.0908 24.7344 Q84.0908 23.9375 83.8096 23.5625 Q83.5283 23.1875 82.9502 23.1875 Q82.2627 23.1875 81.8564 23.6484 Q81.4502 24.1094 81.4502 24.9062 L81.4502 28 L80.5439 28 L80.5439 22.5312 L81.4502 22.5312 L81.4502 23.375 Q81.7627 22.875 82.1924 22.6406 Q82.6221 22.4062 83.2002 22.4062 Q83.8096 22.4062 84.2236 22.7031 Q84.6377 23 84.8408 23.5781 ZM92.4414 23.1562 Q91.7227 23.1562 91.3008 23.7188 Q90.8789 24.2812 90.8789 25.2656 Q90.8789 26.25 91.293 26.8125 Q91.707 27.375 92.4414 27.375 Q93.1602 27.375 93.582 26.8125 Q94.0039 26.25 94.0039 25.2656 Q94.0039 24.2969 93.582 23.7266 Q93.1602 23.1562 92.4414 23.1562 ZM92.4414 22.4062 Q93.6133 22.4062 94.2852 23.1641 Q94.957 23.9219 94.957 25.2656 Q94.957 26.6094 94.2852 27.375 Q93.6133 28.1406 92.4414 28.1406 Q91.2695 28.1406 90.5977 27.375 Q89.9258 26.6094 89.9258 25.2656 Q89.9258 23.9219 90.5977 23.1641 Q91.2695 22.4062 92.4414 22.4062 ZM103.0977 22.6875 L103.0977 23.5469 Q102.7227 23.3438 102.3164 23.25 Q101.9102 23.1562 101.457 23.1562 Q100.8008 23.1562 100.4648 23.3594 Q100.1289 23.5625 100.1289 23.9688 Q100.1289 24.2812 100.3633 24.4609 Q100.5977 24.6406 101.332 24.7969 L101.6289 24.875 Q102.5977 25.0781 102.9961 25.4531 Q103.3945 25.8281 103.3945 26.4844 Q103.3945 27.25 102.793 27.6953 Q102.1914 28.1406 101.1445 28.1406 Q100.6914 28.1406 100.2148 28.0547 Q99.7383 27.9688 99.2227 27.7969 L99.2227 26.875 Q99.7227 27.125 100.1992 27.2578 Q100.6758 27.3906 101.1602 27.3906 Q101.7852 27.3906 102.1289 27.1719 Q102.4727 26.9531 102.4727 26.5625 Q102.4727 26.1875 102.2305 25.9922 Q101.9883 25.7969 101.1445 25.625 L100.832 25.5469 Q100.0039 25.375 99.6289 25.0078 Q99.2539 24.6406 99.2539 24.0156 Q99.2539 23.2344 99.8008 22.8203 Q100.3477 22.4062 101.3633 22.4062 Q101.8477 22.4062 102.293 22.4766 Q102.7383 22.5469 103.0977 22.6875 ZM107.3076 25.25 Q106.2295 25.25 105.8076 25.5 Q105.3857 25.75 105.3857 26.3438 Q105.3857 26.8281 105.6982 27.1094 Q106.0107 27.3906 106.5576 27.3906 Q107.3076 27.3906 107.7607 26.8594 Q108.2139 26.3281 108.2139 25.4531 L108.2139 25.25 L107.3076 25.25 ZM109.1045 24.875 L109.1045 28 L108.2139 28 L108.2139 27.1719 Q107.9014 27.6719 107.4404 27.9062 Q106.9795 28.1406 106.3232 28.1406 Q105.4795 28.1406 104.9795 27.6719 Q104.4795 27.2031 104.4795 26.4062 Q104.4795 25.4844 105.1045 25.0156 Q105.7295 24.5469 106.9482 24.5469 L108.2139 24.5469 L108.2139 24.4531 Q108.2139 23.8438 107.7998 23.5 Q107.3857 23.1562 106.6514 23.1562 Q106.1826 23.1562 105.7373 23.2734 Q105.292 23.3906 104.8857 23.6094 L104.8857 22.7812 Q105.3857 22.5938 105.8467 22.5 Q106.3076 22.4062 106.7451 22.4062 Q107.9326 22.4062 108.5186 23.0156 Q109.1045 23.625 109.1045 24.875 ZM111.8262 27.1719 L111.8262 30.0781 L110.9199 30.0781 L110.9199 22.5312 L111.8262 22.5312 L111.8262 23.3594 Q112.1074 22.875 112.5371 22.6406 Q112.9668 22.4062 113.5762 22.4062 Q114.5762 22.4062 115.1934 23.1953 Q115.8105 23.9844 115.8105 25.2656 Q115.8105 26.5625 115.1934 27.3516 Q114.5762 28.1406 113.5762 28.1406 Q112.9668 28.1406 112.5371 27.9062 Q112.1074 27.6719 111.8262 27.1719 ZM114.8887 25.2656 Q114.8887 24.2812 114.4746 23.7188 Q114.0605 23.1562 113.3574 23.1562 Q112.6387 23.1562 112.2324 23.7188 Q111.8262 24.2812 111.8262 25.2656 Q111.8262 26.2656 112.2324 26.8281 Q112.6387 27.3906 113.3574 27.3906 Q114.0605 27.3906 114.4746 26.8281 Q114.8887 26.2656 114.8887 25.2656 ZM117.2988 22.5312 L118.2051 22.5312 L118.2051 28 L117.2988 28 L117.2988 22.5312 ZM117.2988 20.4062 L118.2051 20.4062 L118.2051 21.5469 L117.2988 21.5469 L117.2988 20.4062 ZM124.7646 25.0469 L124.7646 25.4844 L120.624 25.4844 Q120.6865 26.4062 121.1865 26.8906 Q121.6865 27.375 122.5771 27.375 Q123.0928 27.375 123.585 27.25 Q124.0771 27.125 124.5459 26.875 L124.5459 27.7188 Q124.0615 27.9219 123.5537 28.0312 Q123.0459 28.1406 122.5303 28.1406 Q121.2178 28.1406 120.4521 27.3828 Q119.6865 26.625 119.6865 25.3125 Q119.6865 23.9688 120.4131 23.1875 Q121.1396 22.4062 122.374 22.4062 Q123.4834 22.4062 124.124 23.1094 Q124.7646 23.8125 124.7646 25.0469 ZM123.8584 24.7812 Q123.8584 24.0469 123.4521 23.6016 Q123.0459 23.1562 122.3896 23.1562 Q121.624 23.1562 121.1787 23.5859 Q120.7334 24.0156 120.6553 24.7812 L123.8584 24.7812 ZM130.7764 24.7031 L130.7764 28 L129.8857 28 L129.8857 24.7344 Q129.8857 23.9531 129.5811 23.5703 Q129.2764 23.1875 128.667 23.1875 Q127.9482 23.1875 127.5264 23.6484 Q127.1045 24.1094 127.1045 24.9062 L127.1045 28 L126.1982 28 L126.1982 22.5312 L127.1045 22.5312 L127.1045 23.375 Q127.4326 22.8906 127.8701 22.6484 Q128.3076 22.4062 128.8701 22.4062 Q129.8076 22.4062 130.292 22.9844 Q130.7764 23.5625 130.7764 24.7031 ZM136.0518 22.6875 L136.0518 23.5469 Q135.6768 23.3438 135.2705 23.25 Q134.8643 23.1562 134.4111 23.1562 Q133.7549 23.1562 133.4189 23.3594 Q133.083 23.5625 133.083 23.9688 Q133.083 24.2812 133.3174 24.4609 Q133.5518 24.6406 134.2861 24.7969 L134.583 24.875 Q135.5518 25.0781 135.9502 25.4531 Q136.3486 25.8281 136.3486 26.4844 Q136.3486 27.25 135.7471 27.6953 Q135.1455 28.1406 134.0986 28.1406 Q133.6455 28.1406 133.1689 28.0547 Q132.6924 27.9688 132.1768 27.7969 L132.1768 26.875 Q132.6768 27.125 133.1533 27.2578 Q133.6299 27.3906 134.1143 27.3906 Q134.7393 27.3906 135.083 27.1719 Q135.4268 26.9531 135.4268 26.5625 Q135.4268 26.1875 135.1846 25.9922 Q134.9424 25.7969 134.0986 25.625 L133.7861 25.5469 Q132.958 25.375 132.583 25.0078 Q132.208 24.6406 132.208 24.0156 Q132.208 23.2344 132.7549 22.8203 Q133.3018 22.4062 134.3174 22.4062 Q134.8018 22.4062 135.2471 22.4766 Q135.6924 22.5469 136.0518 22.6875 Z"
         style="clip-path:url(#clipPath2); stroke:none;"
         clip-path="url(#clipPath2)"
         id="path185" />
    </g>
    <g
       style="fill:rgb(180,180,100); text-rendering:geometricPrecision; fill-opacity:0.098; stroke-opacity:0.098; stroke:rgb(180,180,100);"
       id="g191">
      <rect
         x="526"
         y="257"
         width="123"
         style="clip-path:url(#clipPath3); stroke:none;"
         height="38"
         clip-path="url(#clipPath3)"
         id="rect189" />
    </g>
    <g
       style="fill:gray; text-rendering:geometricPrecision; stroke-dasharray:4,2; stroke-miterlimit:1; stroke:gray;"
       id="g195">
      <rect
         x="526"
         y="257"
         width="122"
         style="fill:none; clip-path:url(#clipPath3);"
         height="37"
         clip-path="url(#clipPath3)"
         id="rect193" />
    </g>
    <g
       style="fill:rgb(180,180,100); text-rendering:geometricPrecision; fill-opacity:0.098; stroke-opacity:0.098; stroke:rgb(180,180,100);"
       id="g199">
      <rect
         x="553"
         y="125"
         width="70"
         style="clip-path:url(#clipPath4); stroke:none;"
         height="56"
         clip-path="url(#clipPath4)"
         id="rect197" />
    </g>
    <g
       style="fill:gray; text-rendering:geometricPrecision; stroke-dasharray:4,2; stroke-miterlimit:1; stroke:gray;"
       id="g203">
      <rect
         x="553"
         y="125"
         width="69"
         style="fill:none; clip-path:url(#clipPath4);"
         height="55"
         clip-path="url(#clipPath4)"
         id="rect201" />
    </g>
    <g
       style="fill:rgb(180,180,100); text-rendering:geometricPrecision; fill-opacity:0.098; stroke-opacity:0.098; stroke:rgb(180,180,100);"
       id="g207">
      <rect
         x="664"
         y="116"
         width="96"
         style="clip-path:url(#clipPath5); stroke:none;"
         height="75"
         clip-path="url(#clipPath5)"
         id="rect205" />
    </g>
    <g
       style="fill:gray; text-rendering:geometricPrecision; stroke-dasharray:4,2; stroke-miterlimit:1; stroke:gray;"
       id="g211">
      <rect
         x="664"
         y="116"
         width="95"
         style="fill:none; clip-path:url(#clipPath5);"
         height="74"
         clip-path="url(#clipPath5)"
         id="rect209" />
    </g>
    <g
       style="fill:navy; text-rendering:geometricPrecision; font-size:8; stroke:navy;"
       id="g215">
      <text
         x="620"
         xml:space="preserve"
         y="122"
         style="clip-path:url(#clipPath7); stroke:none;"
         clip-path="url(#clipPath7)"
         id="text213">1</text>
    </g>
    <g
       style="fill:navy; text-rendering:geometricPrecision; font-size:8; stroke:navy;"
       id="g219">
      <text
         x="-1"
         xml:space="preserve"
         y="-3"
         style="clip-path:url(#clipPath9); stroke:none;"
         clip-path="url(#clipPath9)"
         id="text217">1</text>
    </g>
    <g
       style="text-rendering:geometricPrecision;"
       id="g225">
      <path
         d="M588 181 L587.5341 257.5811"
         style="fill:none; clip-path:url(#clipPath10);"
         clip-path="url(#clipPath10)"
         id="path221" />
      <path
         d="M587.5341 257.5811 L592.8052 245.913 L582.4053 245.8497 Z"
         style="clip-path:url(#clipPath10); fill-rule:evenodd; stroke:none;"
         clip-path="url(#clipPath10)"
         id="path223" />
    </g>
    <g
       style="text-rendering:geometricPrecision;"
       id="g233">
      <path
         d="M664.0526 153.5526 L629.9994 153.0942"
         style="fill:none; clip-path:url(#clipPath11);"
         clip-path="url(#clipPath11)"
         id="path227" />
      <path
         d="M629.8769 162.1934 L628.577 162.1759 L628.8395 142.6777 L630.1393 142.6952 L629.8769 162.1934 Z"
         style="fill:white; clip-path:url(#clipPath11); stroke:none;"
         clip-path="url(#clipPath11)"
         id="path229" />
      <path
         d="M629.8769 162.1934 L628.577 162.1759 L628.8395 142.6777 L630.1393 142.6952 L629.8769 162.1934 Z"
         style="fill:none; clip-path:url(#clipPath11);"
         clip-path="url(#clipPath11)"
         id="path231" />
    </g>
    <g
       style="fill:rgb(255,0,38); text-rendering:geometricPrecision; stroke:rgb(255,0,38);"
       id="g237">
      <path
         d="M334.6693 294.5932 L732.996 294.5932"
         style="fill:none; clip-path:url(#clipPath12);"
         clip-path="url(#clipPath12)"
         id="path235" />
    </g>
    <g
       style="text-rendering:geometricPrecision;"
       id="g243">
      <path
         d="M85.25 129 L106.75 194"
         style="fill:none; clip-path:url(#clipPath13);"
         clip-path="url(#clipPath13)"
         id="path239" />
      <path
         d="M106.75 194 L108.0127 181.2589 L98.1388 184.5249 Z"
         style="clip-path:url(#clipPath13); fill-rule:evenodd; stroke:none;"
         clip-path="url(#clipPath13)"
         id="path241" />
    </g>
    <g
       style="text-rendering:geometricPrecision;"
       id="g249">
      <path
         d="M293 175 L312.5 218.9667"
         style="fill:none; clip-path:url(#clipPath14);"
         clip-path="url(#clipPath14)"
         id="path245" />
      <path
         d="M312.5 218.9667 L312.5099 206.1632 L303.003 210.3796 Z"
         style="clip-path:url(#clipPath14); fill-rule:evenodd; stroke:none;"
         clip-path="url(#clipPath14)"
         id="path247" />
    </g>
    <g
       style="text-rendering:geometricPrecision;"
       id="g255">
      <path
         d="M210 121 L173 119"
         style="fill:none; clip-path:url(#clipPath15);"
         clip-path="url(#clipPath15)"
         id="path251" />
      <path
         d="M173 119 L184.4023 124.8239 L184.9636 114.4391 Z"
         style="clip-path:url(#clipPath15); fill-rule:evenodd; stroke:none;"
         clip-path="url(#clipPath15)"
         id="path253" />
    </g>
    <g
       style="text-rendering:geometricPrecision;"
       id="g261">
      <path
         d="M431 235.9833 L332 233.9833"
         style="fill:none; clip-path:url(#clipPath16);"
         clip-path="url(#clipPath16)"
         id="path257" />
      <path
         d="M332 233.9833 L343.5926 239.4186 L343.8026 229.0207 Z"
         style="clip-path:url(#clipPath16); fill-rule:evenodd; stroke:none;"
         clip-path="url(#clipPath16)"
         id="path259" />
    </g>
    <g
       style="text-rendering:geometricPrecision;"
       id="g267">
      <path
         d="M144 119 L97 119"
         style="fill:none; clip-path:url(#clipPath17);"
         clip-path="url(#clipPath17)"
         id="path263" />
      <path
         d="M97 119 L108.7 124.2 L108.7 113.8 Z"
         style="clip-path:url(#clipPath17); fill-rule:evenodd; stroke:none;"
         clip-path="url(#clipPath17)"
         id="path265" />
    </g>
    <g
       style="text-rendering:geometricPrecision;"
       id="g273">
      <path
         d="M502 153 L465 199"
         style="fill:none; clip-path:url(#clipPath18);"
         clip-path="url(#clipPath18)"
         id="path269" />
      <path
         d="M465 199 L476.385 193.1423 L468.2812 186.6241 Z"
         style="clip-path:url(#clipPath18); fill-rule:evenodd; stroke:none;"
         clip-path="url(#clipPath18)"
         id="path271" />
    </g>
    <g
       style="fill:rgb(255,0,38); text-rendering:geometricPrecision; stroke:rgb(255,0,38);"
       id="g277">
      <path
         d="M331.6633 308.5912 L736 308.5912"
         style="fill:none; clip-path:url(#clipPath19);"
         clip-path="url(#clipPath19)"
         id="path275" />
    </g>
    <g
       style="text-rendering:geometricPrecision;"
       id="g283">
      <path
         d="M264 219.9667 L239 155"
         style="fill:none; clip-path:url(#clipPath20);"
         clip-path="url(#clipPath20)"
         id="path279" />
      <path
         d="M239 155 L238.3489 167.7869 L248.055 164.0519 Z"
         style="clip-path:url(#clipPath20); fill-rule:evenodd; stroke:none;"
         clip-path="url(#clipPath20)"
         id="path281" />
    </g>
    <g
       style="text-rendering:geometricPrecision;"
       id="g289">
      <path
         d="M61.75 129 L45.4211 193"
         style="fill:none; clip-path:url(#clipPath21);"
         clip-path="url(#clipPath21)"
         id="path285" />
      <path
         d="M45.4211 193 L53.3521 182.9487 L43.2749 180.3776 Z"
         style="clip-path:url(#clipPath21); fill-rule:evenodd; stroke:none;"
         clip-path="url(#clipPath21)"
         id="path287" />
    </g>
    <g
       style="text-rendering:geometricPrecision;"
       id="g293">
      <path
         d="M332 233.9833 C332 242.2768 323.2696 249 312.5 249 C301.7304 249 293 242.2768 293 233.9833 C293 225.6898 301.7304 218.9667 312.5 218.9667 C323.2696 218.9667 332 225.6898 332 233.9833 Z"
         style="fill:none; clip-path:url(#clipPath22);"
         clip-path="url(#clipPath22)"
         id="path291" />
    </g>
    <g
       style="text-rendering:geometricPrecision;"
       id="g297">
      <path
         d="M311 159.9833 C311 168.2768 302.9411 175 293 175 C283.0589 175 275 168.2768 275 159.9833 C275 151.6898 283.0589 144.9667 293 144.9667 C302.9411 144.9667 311 151.6898 311 159.9833 Z"
         style="fill:none; clip-path:url(#clipPath23);"
         clip-path="url(#clipPath23)"
         id="path295" />
    </g>
    <g
       style="fill:silver; text-rendering:geometricPrecision; stroke:silver;"
       id="g301">
      <path
         d="M11.1909 92.09 L11.1909 92.09 L11.1909 92.09 L12.6909 92.09 L12.6909 93.59 L12.6909 334.8037 L12.6909 336.3037 L11.1909 336.3037 L8.1909 336.3037 L8.1909 334.8037 L8.1909 333.3037 L11.1909 333.3037 L12.6909 333.3037 L12.6909 334.8037 C12.6909 337.8412 15.1534 340.3037 18.1909 340.3037 L19.6909 340.3037 L19.6909 341.8037 L19.6909 344.8037 L18.1909 344.8037 L16.6909 344.8037 L16.6909 341.8037 L16.6909 340.3037 L18.1909 340.3037 L775.2632 340.3037 L776.7631 340.3037 L776.7632 341.8037 L776.7632 344.8037 L775.2632 344.8037 L773.7632 344.8037 L773.7632 341.8037 L773.7632 340.3037 L775.2632 340.3037 C778.3006 340.3037 780.7632 337.8412 780.7632 334.8037 L780.7632 333.3037 L782.2632 333.3037 L785.2632 333.3037 L785.2632 334.8037 L785.2632 336.3037 L782.2632 336.3037 L780.7632 336.3037 L780.7632 334.8037 L780.7632 93.59 L780.7632 92.09 L782.2632 92.09 L785.2632 92.09 L785.2632 93.59 L785.2632 95.09 L782.2632 95.09 L780.7632 95.09 L780.7632 93.59 C780.7632 90.5525 778.3006 88.09 775.2632 88.09 L773.7632 88.09 L773.7632 86.59 L773.7632 83.59 L775.2632 83.59 L776.7632 83.59 L776.7632 86.59 L776.7632 88.09 L775.2632 88.09 L18.1909 88.09 L16.691 88.09 L16.6909 86.59 L16.6909 83.59 L18.1909 83.59 L19.6909 83.59 L19.6909 86.59 L19.6909 88.09 L18.1909 88.09 C15.1534 88.09 12.6909 90.5525 12.6909 93.59 L12.6909 95.09 L11.1909 95.09 L8.1909 95.09 L8.1909 93.59 L8.1909 92.09 L11.1909 92.09 L12.6909 92.09 L12.6909 95.09 L11.1909 95.09 L8.1909 95.09 L8.1909 92.09 L11.1909 92.09 L11.1909 93.59 L9.6909 93.59 C9.6909 88.8956 13.4965 85.09 18.1909 85.09 L18.1909 86.59 L16.6909 86.59 L16.6909 83.59 L19.6909 83.59 L19.6909 86.59 L18.1909 86.59 L18.1909 85.09 L775.2632 85.09 L775.2632 86.59 L773.7632 86.59 L773.7632 83.59 L776.7632 83.59 L776.7632 86.59 L775.2632 86.59 L775.2632 85.09 C779.9575 85.09 783.7632 88.8956 783.7632 93.59 L782.2632 93.59 L782.2632 92.09 L785.2632 92.09 L785.2632 95.09 L782.2632 95.09 L782.2632 93.59 L783.7632 93.59 L783.7632 334.8037 L782.2632 334.8037 L782.2632 333.3037 L785.2632 333.3037 L785.2632 336.3037 L782.2632 336.3037 L782.2632 334.8037 L783.7632 334.8037 C783.7632 339.4981 779.9575 343.3037 775.2632 343.3037 L775.2632 341.8037 L776.7632 341.8037 L776.7632 344.8037 L773.7632 344.8037 L773.7632 341.8037 L775.2632 341.8037 L775.2632 343.3037 L18.1909 343.3037 L18.1909 341.8037 L19.6909 341.8037 L19.6909 344.8037 L16.6909 344.8037 L16.6909 341.8037 L18.1909 341.8037 L18.1909 343.3037 C13.4965 343.3037 9.6909 339.498 9.6909 334.8037 L11.1909 334.8037 L11.1909 336.3037 L8.1909 336.3037 L8.1909 333.3037 L11.1909 333.3037 L11.1909 334.8037 L9.6909 334.8037 L9.6909 93.59 L11.1909 93.59 L11.1909 95.09 L11.1909 95.09 L9.6909 95.09 L9.6909 92.09 ZM5.1909 92.09 L5.1909 92.09 L5.1909 92.09 L5.1909 93.59 L3.6909 93.59 C3.6909 85.5819 10.1828 79.09 18.1909 79.09 L18.1909 80.59 L18.1909 79.09 L18.1909 79.09 L18.1909 80.59 L18.1909 79.09 L775.2632 79.09 L775.2632 80.59 L775.2632 79.09 L775.2632 79.09 L775.2632 80.59 L775.2632 79.09 C783.271 79.09 789.7632 85.5819 789.7632 93.59 L788.2632 93.59 L788.2632 92.09 L788.2632 92.09 L789.7632 92.09 L789.7632 93.59 L789.7632 334.8037 L788.2632 334.8037 L788.2632 333.3037 L788.2632 333.3037 L789.7632 333.3037 L789.7632 334.8037 C789.7632 342.8119 783.271 349.3037 775.2632 349.3037 L775.2632 347.8037 L775.2632 346.3037 L775.2632 346.3037 L775.2632 347.8037 L775.2632 349.3037 L18.1909 349.3037 L18.1909 347.8037 L18.1909 346.3037 L18.1909 346.3037 L18.1909 347.8037 L18.1909 349.3037 C10.1828 349.3037 3.6909 342.8119 3.6909 334.8037 L3.6909 333.3037 L5.1909 333.3037 L5.1909 333.3037 L5.1909 334.8037 L3.6909 334.8037 L3.6909 93.59 L3.6909 92.09 L5.1909 92.09 M5.1909 95.09 L5.1909 93.59 L6.6909 93.59 L6.6909 334.8037 L6.6909 336.3037 L5.1909 336.3037 L5.1909 336.3037 L5.1909 334.8037 L6.6909 334.8037 C6.6909 341.155 11.8397 346.3037 18.1909 346.3037 L18.1909 349.3037 L18.1909 349.3037 L18.1909 346.3037 L775.2632 346.3037 L775.2632 349.3037 L775.2632 349.3037 L775.2632 346.3037 C781.6143 346.3037 786.7632 341.1549 786.7632 334.8037 L788.2632 334.8037 L788.2632 336.3037 L788.2632 336.3037 L786.7632 336.3037 L786.7632 334.8037 L786.7632 93.59 L788.2632 93.59 L788.2632 95.09 L788.2632 95.09 L786.7632 95.09 L786.7632 93.59 C786.7632 87.2388 781.6141 82.09 775.2632 82.09 L775.2632 82.09 L775.2632 82.09 L775.2632 82.09 L18.1909 82.09 L18.1909 82.09 L18.1909 82.09 L18.1909 82.09 C11.8397 82.09 6.6909 87.2388 6.6909 93.59 L6.6909 95.09 L5.1909 95.09 L5.1909 95.09 Z"
         style="clip-path:url(#clipPath24); stroke:none;"
         clip-path="url(#clipPath24)"
         id="path299" />
    </g>
    <g
       style="text-rendering:geometricPrecision;"
       id="g305">
      <path
         d="M295 250.9833 C295 268.1134 281.1208 282 264 282 C246.8792 282 233 268.1134 233 250.9833 C233 233.8533 246.8792 219.9667 264 219.9667 C281.1208 219.9667 295 233.8533 295 250.9833 Z"
         style="fill:none; clip-path:url(#clipPath25);"
         clip-path="url(#clipPath25)"
         id="path303" />
    </g>
    <g
       style="text-rendering:geometricPrecision;"
       id="g309">
      <path
         d="M470 235.9833 C470 244.2768 461.2696 251 450.5 251 C439.7304 251 431 244.2768 431 235.9833 C431 227.6898 439.7304 220.9667 450.5 220.9667 C461.2696 220.9667 470 227.6898 470 235.9833 Z"
         style="fill:none; clip-path:url(#clipPath26);"
         clip-path="url(#clipPath26)"
         id="path307" />
    </g>
    <g
       style="text-rendering:geometricPrecision;"
       id="g313">
      <path
         d="M319.2451 191.9438 Q317 191.9438 317 173.9719 Q317 156 314.7549 156 Q317 156 317 138.0281 Q317 120.0562 319.2451 120.0562"
         style="fill:none; clip-path:url(#clipPath27);"
         clip-path="url(#clipPath27)"
         id="path311" />
    </g>
    <g
       style="fill:rgb(252,3,3); text-rendering:geometricPrecision; font-size:13; stroke:rgb(252,3,3);"
       id="g317">
      <text
         x="680"
         xml:space="preserve"
         y="328"
         style="clip-path:url(#clipPath28); stroke:none;"
         clip-path="url(#clipPath28)"
         id="text315">DNA</text>
    </g>
    <g
       style="font-size:13; text-rendering:geometricPrecision;"
       id="g321">
      <text
         x="266"
         xml:space="preserve"
         y="294"
         style="clip-path:url(#clipPath29); stroke:none;"
         clip-path="url(#clipPath29)"
         id="text319">PI3K</text>
    </g>
    <g
       style="font-size:13; text-rendering:geometricPrecision;"
       id="g325">
      <text
         x="302"
         xml:space="preserve"
         y="236"
         style="clip-path:url(#clipPath30); stroke:none;"
         clip-path="url(#clipPath30)"
         id="text323">IRS</text>
    </g>
    <g
       style="font-size:13; text-rendering:geometricPrecision;"
       id="g329">
      <text
         x="282"
         xml:space="preserve"
         y="161"
         style="clip-path:url(#clipPath31); stroke:none;"
         clip-path="url(#clipPath31)"
         id="text327">IRS</text>
    </g>
    <g
       style="font-size:13; text-rendering:geometricPrecision;"
       id="g333">
      <text
         x="440"
         xml:space="preserve"
         y="238"
         style="clip-path:url(#clipPath32); stroke:none;"
         clip-path="url(#clipPath32)"
         id="text331">IRS</text>
    </g>
    <g
       style="fill:white; text-rendering:geometricPrecision; stroke:white;"
       id="g341">
      <path
         d="M221 133 L257 133 L257 155 L221 155 L221 133 Z"
         style="clip-path:url(#clipPath33); stroke:none;"
         clip-path="url(#clipPath33)"
         id="path335" />
      <path
         d="M221 133 L257 133 L257 155 L221 155 L221 133 Z"
         style="fill:none; clip-path:url(#clipPath33); stroke:black;"
         clip-path="url(#clipPath33)"
         id="path337" />
      <text
         x="221"
         y="147"
         style="font-size:10; clip-path:url(#clipPath33); fill:black; stroke:none;"
         xml:space="preserve"
         clip-path="url(#clipPath33)"
         id="text339">PIK3CG</text>
    </g>
    <g
       style="fill:white; text-rendering:geometricPrecision; stroke:white;"
       id="g349">
      <path
         d="M534.0341 265.5811 L588.0341 265.5811 L588.0341 287.5811 L534.0341 287.5811 L534.0341 265.5811 Z"
         style="clip-path:url(#clipPath34); stroke:none;"
         clip-path="url(#clipPath34)"
         id="path343" />
      <path
         d="M534.0341 265.5811 L588.0341 265.5811 L588.0341 287.5811 L534.0341 287.5811 L534.0341 265.5811 Z"
         style="fill:none; clip-path:url(#clipPath34); stroke:black;"
         clip-path="url(#clipPath34)"
         id="path345" />
      <text
         x="546"
         y="280"
         style="font-size:10; clip-path:url(#clipPath34); fill:black; stroke:none;"
         xml:space="preserve"
         clip-path="url(#clipPath34)"
         id="text347">STAT3</text>
    </g>
    <g
       style="fill:white; text-rendering:geometricPrecision; stroke:white;"
       id="g357">
      <path
         d="M587.0341 265.5811 L641.0341 265.5811 L641.0341 287.5811 L587.0341 287.5811 L587.0341 265.5811 Z"
         style="clip-path:url(#clipPath35); stroke:none;"
         clip-path="url(#clipPath35)"
         id="path351" />
      <path
         d="M587.0341 265.5811 L641.0341 265.5811 L641.0341 287.5811 L587.0341 287.5811 L587.0341 265.5811 Z"
         style="fill:none; clip-path:url(#clipPath35); stroke:black;"
         clip-path="url(#clipPath35)"
         id="path353" />
      <text
         x="599"
         y="280"
         style="font-size:10; clip-path:url(#clipPath35); fill:black; stroke:none;"
         xml:space="preserve"
         clip-path="url(#clipPath35)"
         id="text355">STAT3</text>
    </g>
    <g
       style="fill:white; text-rendering:geometricPrecision; stroke:white;"
       id="g365">
      <path
         d="M322 155 L379 155 L379 175 L322 175 L322 155 Z"
         style="clip-path:url(#clipPath36); stroke:none;"
         clip-path="url(#clipPath36)"
         id="path359" />
      <path
         d="M322 155 L379 155 L379 175 L322 175 L322 155 Z"
         style="fill:none; clip-path:url(#clipPath36); stroke:black;"
         clip-path="url(#clipPath36)"
         id="path361" />
      <text
         x="341"
         y="168"
         style="font-size:10; clip-path:url(#clipPath36); fill:black; stroke:none;"
         xml:space="preserve"
         clip-path="url(#clipPath36)"
         id="text363">Irs3</text>
    </g>
    <g
       style="fill:white; text-rendering:geometricPrecision; stroke:white;"
       id="g373">
      <path
         d="M379 53.9667 L407 53.9667 L407 153 L379 153 L379 53.9667 Z"
         style="clip-path:url(#clipPath37); stroke:none;"
         clip-path="url(#clipPath37)"
         id="path367" />
      <path
         d="M379 53.9667 L407 53.9667 L407 153 L379 153 L379 53.9667 Z"
         style="fill:none; clip-path:url(#clipPath37); stroke:black;"
         clip-path="url(#clipPath37)"
         id="path369" />
      <text
         x="382"
         y="106"
         style="font-size:10; clip-path:url(#clipPath37); fill:black; stroke:none;"
         xml:space="preserve"
         clip-path="url(#clipPath37)"
         id="text371">INSR</text>
    </g>
    <g
       style="fill:white; text-rendering:geometricPrecision; stroke:white;"
       id="g381">
      <path
         d="M503 36 L583 36 L583 56 L503 56 L503 36 Z"
         style="clip-path:url(#clipPath38); stroke:none;"
         clip-path="url(#clipPath38)"
         id="path375" />
      <path
         d="M503 36 L583 36 L583 56 L503 56 L503 36 Z"
         style="fill:none; clip-path:url(#clipPath38); stroke:black;"
         clip-path="url(#clipPath38)"
         id="path377" />
      <text
         x="535"
         y="49"
         style="font-size:10; clip-path:url(#clipPath38); fill:black; stroke:none;"
         xml:space="preserve"
         clip-path="url(#clipPath38)"
         id="text379">LEP</text>
    </g>
    <g
       style="fill:white; text-rendering:geometricPrecision; stroke:white;"
       id="g389">
      <path
         d="M561 133 L615 133 L615 153 L561 153 L561 133 Z"
         style="clip-path:url(#clipPath39); stroke:none;"
         clip-path="url(#clipPath39)"
         id="path383" />
      <path
         d="M561 133 L615 133 L615 153 L561 153 L561 133 Z"
         style="fill:none; clip-path:url(#clipPath39); stroke:black;"
         clip-path="url(#clipPath39)"
         id="path385" />
      <text
         x="577"
         y="146"
         style="font-size:10; clip-path:url(#clipPath39); fill:black; stroke:none;"
         xml:space="preserve"
         clip-path="url(#clipPath39)"
         id="text387">JAK2</text>
    </g>
    <g
       style="fill:white; text-rendering:geometricPrecision; stroke:white;"
       id="g397">
      <path
         d="M672.0526 163.0526 L752.0526 163.0526 L752.0526 183.0526 L672.0526 183.0526 L672.0526 163.0526 Z"
         style="clip-path:url(#clipPath40); stroke:none;"
         clip-path="url(#clipPath40)"
         id="path391" />
      <path
         d="M672.0526 163.0526 L752.0526 163.0526 L752.0526 183.0526 L672.0526 183.0526 L672.0526 163.0526 Z"
         style="fill:none; clip-path:url(#clipPath40); stroke:black;"
         clip-path="url(#clipPath40)"
         id="path393" />
      <text
         x="696"
         y="177"
         style="font-size:10; clip-path:url(#clipPath40); fill:black; stroke:none;"
         xml:space="preserve"
         clip-path="url(#clipPath40)"
         id="text395">SOCS3</text>
    </g>
    <g
       style="fill:white; text-rendering:geometricPrecision; stroke:white;"
       id="g405">
      <path
         d="M322 175 L379 175 L379 195 L322 195 L322 175 Z"
         style="clip-path:url(#clipPath41); stroke:none;"
         clip-path="url(#clipPath41)"
         id="path399" />
      <path
         d="M322 175 L379 175 L379 195 L322 195 L322 175 Z"
         style="fill:none; clip-path:url(#clipPath41); stroke:black;"
         clip-path="url(#clipPath41)"
         id="path401" />
      <text
         x="339"
         y="188"
         style="font-size:10; clip-path:url(#clipPath41); fill:black; stroke:none;"
         xml:space="preserve"
         clip-path="url(#clipPath41)"
         id="text403">IRS4</text>
    </g>
    <g
       style="fill:white; text-rendering:geometricPrecision; stroke:white;"
       id="g413">
      <path
         d="M438 199 L492 199 L492 219 L438 219 L438 199 Z"
         style="clip-path:url(#clipPath42); stroke:none;"
         clip-path="url(#clipPath42)"
         id="path407" />
      <path
         d="M438 199 L492 199 L492 219 L438 219 L438 199 Z"
         style="fill:none; clip-path:url(#clipPath42); stroke:black;"
         clip-path="url(#clipPath42)"
         id="path409" />
      <text
         x="454"
         y="212"
         style="font-size:10; clip-path:url(#clipPath42); fill:black; stroke:none;"
         xml:space="preserve"
         clip-path="url(#clipPath42)"
         id="text411">JAK2</text>
    </g>
    <g
       style="fill:white; text-rendering:geometricPrecision; stroke:white;"
       id="g421">
      <path
         d="M672.0526 144.0526 L752.0526 144.0526 L752.0526 164.0526 L672.0526 164.0526 L672.0526 144.0526 Z"
         style="clip-path:url(#clipPath43); stroke:none;"
         clip-path="url(#clipPath43)"
         id="path415" />
      <path
         d="M672.0526 144.0526 L752.0526 144.0526 L752.0526 164.0526 L672.0526 164.0526 L672.0526 144.0526 Z"
         style="fill:none; clip-path:url(#clipPath43); stroke:black;"
         clip-path="url(#clipPath43)"
         id="path417" />
      <text
         x="696"
         y="158"
         style="font-size:10; clip-path:url(#clipPath43); fill:black; stroke:none;"
         xml:space="preserve"
         clip-path="url(#clipPath43)"
         id="text419">SOCS2</text>
    </g>
    <g
       style="fill:white; text-rendering:geometricPrecision; stroke:white;"
       id="g429">
      <path
         d="M245 251 L281 251 L281 271 L245 271 L245 251 Z"
         style="clip-path:url(#clipPath44); stroke:none;"
         clip-path="url(#clipPath44)"
         id="path423" />
      <path
         d="M245 251 L281 251 L281 271 L245 271 L245 251 Z"
         style="fill:none; clip-path:url(#clipPath44); stroke:black;"
         clip-path="url(#clipPath44)"
         id="path425" />
      <text
         x="246"
         y="264"
         style="font-size:10; clip-path:url(#clipPath44); fill:black; stroke:none;"
         xml:space="preserve"
         clip-path="url(#clipPath44)"
         id="text427">PIK3R3</text>
    </g>
    <g
       style="fill:white; text-rendering:geometricPrecision; stroke:white;"
       id="g437">
      <path
         d="M86.5 194 L127 194 L127 214 L86.5 214 L86.5 194 Z"
         style="clip-path:url(#clipPath45); stroke:none;"
         clip-path="url(#clipPath45)"
         id="path431" />
      <path
         d="M86.5 194 L127 194 L127 214 L86.5 214 L86.5 194 Z"
         style="fill:none; clip-path:url(#clipPath45); stroke:black;"
         clip-path="url(#clipPath45)"
         id="path433" />
      <text
         x="92"
         y="207"
         style="font-size:10; clip-path:url(#clipPath45); fill:black; stroke:none;"
         xml:space="preserve"
         clip-path="url(#clipPath45)"
         id="text435">DGKZ</text>
    </g>
    <g
       style="fill:white; text-rendering:geometricPrecision; stroke:white;"
       id="g445">
      <path
         d="M210 111 L242 111 L242 131 L210 131 L210 111 Z"
         style="clip-path:url(#clipPath46); stroke:none;"
         clip-path="url(#clipPath46)"
         id="path439" />
      <path
         d="M210 111 L242 111 L242 131 L210 131 L210 111 Z"
         style="fill:none; clip-path:url(#clipPath46); stroke:blue;"
         clip-path="url(#clipPath46)"
         id="path441" />
      <text
         x="216"
         y="124"
         style="font-size:10; clip-path:url(#clipPath46); fill:blue; stroke:none;"
         xml:space="preserve"
         clip-path="url(#clipPath46)"
         id="text443">PIP2</text>
    </g>
    <g
       style="fill:white; text-rendering:geometricPrecision; stroke:white;"
       id="g453">
      <path
         d="M530 56.9667 L561 56.9667 L561 154 L530 154 L530 56.9667 Z"
         style="clip-path:url(#clipPath47); stroke:none;"
         clip-path="url(#clipPath47)"
         id="path447" />
      <path
         d="M530 56.9667 L561 56.9667 L561 154 L530 154 L530 56.9667 Z"
         style="fill:none; clip-path:url(#clipPath47); stroke:black;"
         clip-path="url(#clipPath47)"
         id="path449" />
      <text
         x="533"
         y="108"
         style="font-size:10; clip-path:url(#clipPath47); fill:black; stroke:none;"
         xml:space="preserve"
         clip-path="url(#clipPath47)"
         id="text451">LEPR</text>
    </g>
    <g
       style="fill:white; text-rendering:geometricPrecision; stroke:white;"
       id="g461">
      <path
         d="M353 34 L433 34 L433 54 L353 54 L353 34 Z"
         style="clip-path:url(#clipPath48); stroke:none;"
         clip-path="url(#clipPath48)"
         id="path455" />
      <path
         d="M353 34 L433 34 L433 54 L353 54 L353 34 Z"
         style="fill:none; clip-path:url(#clipPath48); stroke:black;"
         clip-path="url(#clipPath48)"
         id="path457" />
      <text
         x="385"
         y="47"
         style="font-size:10; clip-path:url(#clipPath48); fill:black; stroke:none;"
         xml:space="preserve"
         clip-path="url(#clipPath48)"
         id="text459">INS</text>
    </g>
    <g
       style="fill:white; text-rendering:geometricPrecision; stroke:white;"
       id="g469">
      <path
         d="M322 115 L379 115 L379 135 L322 135 L322 115 Z"
         style="clip-path:url(#clipPath49); stroke:none;"
         clip-path="url(#clipPath49)"
         id="path463" />
      <path
         d="M322 115 L379 115 L379 135 L322 135 L322 115 Z"
         style="fill:none; clip-path:url(#clipPath49); stroke:black;"
         clip-path="url(#clipPath49)"
         id="path465" />
      <text
         x="339"
         y="128"
         style="font-size:10; clip-path:url(#clipPath49); fill:black; stroke:none;"
         xml:space="preserve"
         clip-path="url(#clipPath49)"
         id="text467">IRS1</text>
    </g>
    <g
       style="fill:white; text-rendering:geometricPrecision; stroke:white;"
       id="g477">
      <path
         d="M50 109 L97 109 L97 129 L50 129 L50 109 Z"
         style="clip-path:url(#clipPath50); stroke:none;"
         clip-path="url(#clipPath50)"
         id="path471" />
      <path
         d="M50 109 L97 109 L97 129 L50 129 L50 109 Z"
         style="fill:none; clip-path:url(#clipPath50); stroke:black;"
         clip-path="url(#clipPath50)"
         id="path473" />
      <text
         x="57"
         y="122"
         style="font-size:10; clip-path:url(#clipPath50); fill:black; stroke:none;"
         xml:space="preserve"
         clip-path="url(#clipPath50)"
         id="text475">PDPK1</text>
    </g>
    <g
       style="fill:white; text-rendering:geometricPrecision; stroke:white;"
       id="g485">
      <path
         d="M17.4211 193 L73.4211 193 L73.4211 213 L17.4211 213 L17.4211 193 Z"
         style="clip-path:url(#clipPath51); stroke:none;"
         clip-path="url(#clipPath51)"
         id="path479" />
      <path
         d="M17.4211 193 L73.4211 193 L73.4211 213 L17.4211 213 L17.4211 193 Z"
         style="fill:none; clip-path:url(#clipPath51); stroke:black;"
         clip-path="url(#clipPath51)"
         id="path481" />
      <text
         x="33"
         y="206"
         style="font-size:10; clip-path:url(#clipPath51); fill:black; stroke:none;"
         xml:space="preserve"
         clip-path="url(#clipPath51)"
         id="text483">AKT1</text>
    </g>
    <g
       style="fill:white; text-rendering:geometricPrecision; stroke:white;"
       id="g493">
      <path
         d="M322 135 L379 135 L379 155 L322 155 L322 135 Z"
         style="clip-path:url(#clipPath52); stroke:none;"
         clip-path="url(#clipPath52)"
         id="path487" />
      <path
         d="M322 135 L379 135 L379 155 L322 155 L322 135 Z"
         style="fill:none; clip-path:url(#clipPath52); stroke:black;"
         clip-path="url(#clipPath52)"
         id="path489" />
      <text
         x="339"
         y="148"
         style="font-size:10; clip-path:url(#clipPath52); fill:black; stroke:none;"
         xml:space="preserve"
         clip-path="url(#clipPath52)"
         id="text491">IRS2</text>
    </g>
    <g
       style="fill:white; text-rendering:geometricPrecision; stroke:white;"
       id="g501">
      <path
         d="M672.0526 124.0526 L752.0526 124.0526 L752.0526 144.0526 L672.0526 144.0526 L672.0526 124.0526 Z"
         style="clip-path:url(#clipPath53); stroke:none;"
         clip-path="url(#clipPath53)"
         id="path495" />
      <path
         d="M672.0526 124.0526 L752.0526 124.0526 L752.0526 144.0526 L672.0526 144.0526 L672.0526 124.0526 Z"
         style="fill:none; clip-path:url(#clipPath53); stroke:black;"
         clip-path="url(#clipPath53)"
         id="path497" />
      <text
         x="696"
         y="138"
         style="font-size:10; clip-path:url(#clipPath53); fill:black; stroke:none;"
         xml:space="preserve"
         clip-path="url(#clipPath53)"
         id="text499">SOCS1</text>
    </g>
    <g
       style="fill:white; text-rendering:geometricPrecision; stroke:white;"
       id="g509">
      <path
         d="M245 232 L281 232 L281 251 L245 251 L245 232 Z"
         style="clip-path:url(#clipPath54); stroke:none;"
         clip-path="url(#clipPath54)"
         id="path503" />
      <path
         d="M245 232 L281 232 L281 251 L245 251 L245 232 Z"
         style="fill:none; clip-path:url(#clipPath54); stroke:black;"
         clip-path="url(#clipPath54)"
         id="path505" />
      <text
         x="245"
         y="245"
         style="font-size:10; clip-path:url(#clipPath54); fill:black; stroke:none;"
         xml:space="preserve"
         clip-path="url(#clipPath54)"
         id="text507">PIK3CG</text>
    </g>
    <g
       style="fill:white; text-rendering:geometricPrecision; stroke:white;"
       id="g517">
      <path
         d="M561 151 L615 151 L615 173 L561 173 L561 151 Z"
         style="clip-path:url(#clipPath55); stroke:none;"
         clip-path="url(#clipPath55)"
         id="path511" />
      <path
         d="M561 151 L615 151 L615 173 L561 173 L561 151 Z"
         style="fill:none; clip-path:url(#clipPath55); stroke:black;"
         clip-path="url(#clipPath55)"
         id="path513" />
      <text
         x="573"
         y="165"
         style="font-size:10; clip-path:url(#clipPath55); fill:black; stroke:none;"
         xml:space="preserve"
         clip-path="url(#clipPath55)"
         id="text515">STAT3</text>
    </g>
    <g
       style="fill:white; text-rendering:geometricPrecision; stroke:white;"
       id="g525">
      <path
         d="M475 133 L529 133 L529 153 L475 153 L475 133 Z"
         style="clip-path:url(#clipPath56); stroke:none;"
         clip-path="url(#clipPath56)"
         id="path519" />
      <path
         d="M475 133 L529 133 L529 153 L475 153 L475 133 Z"
         style="fill:none; clip-path:url(#clipPath56); stroke:black;"
         clip-path="url(#clipPath56)"
         id="path521" />
      <text
         x="491"
         y="146"
         style="font-size:10; clip-path:url(#clipPath56); fill:black; stroke:none;"
         xml:space="preserve"
         clip-path="url(#clipPath56)"
         id="text523">JAK2</text>
    </g>
    <g
       style="fill:white; text-rendering:geometricPrecision; stroke:white;"
       id="g533">
      <path
         d="M144 109 L173 109 L173 129 L144 129 L144 109 Z"
         style="clip-path:url(#clipPath57); stroke:none;"
         clip-path="url(#clipPath57)"
         id="path527" />
      <path
         d="M144 109 L173 109 L173 129 L144 129 L144 109 Z"
         style="fill:none; clip-path:url(#clipPath57); stroke:blue;"
         clip-path="url(#clipPath57)"
         id="path529" />
      <text
         x="148"
         y="122"
         style="font-size:10; clip-path:url(#clipPath57); fill:blue; stroke:none;"
         xml:space="preserve"
         clip-path="url(#clipPath57)"
         id="text531">PIP3</text>
    </g>
  </g>
</svg>
