<?xml version="1.0" encoding="UTF-8" standalone="no"?>
<svg
   style="fill-opacity:1; color-rendering:auto; color-interpolation:auto; stroke:black; text-rendering:auto; stroke-linecap:square; stroke-miterlimit:10; stroke-opacity:1; shape-rendering:auto; fill:black; stroke-dasharray:none; font-weight:normal; stroke-width:1; font-family:'Dialog'; font-style:normal; stroke-linejoin:miter; font-size:12; stroke-dashoffset:0; image-rendering:auto;"
   width="1076"
   height="434"
   version="1.1"
   id="svg642"
   xmlns="http://www.w3.org/2000/svg"
   xmlns:svg="http://www.w3.org/2000/svg">
  <!--Generated by the Batik Graphics2D SVG Generator-->
  <defs
     id="genericDefs" />
  <g
     id="g640">
    <defs
       id="defs1">
      <clipPath
         clipPathUnits="userSpaceOnUse"
         id="clipPath1">
        <path
           d="M0 0 L1091 0 L1091 438 L0 438 L0 0 Z"
           id="path3" />
      </clipPath>
      <clipPath
         clipPathUnits="userSpaceOnUse"
         id="clipPath2">
        <path
           d="M0 0 L0 200 L200 200 L200 0 Z"
           id="path6" />
      </clipPath>
      <clipPath
         clipPathUnits="userSpaceOnUse"
         id="clipPath3">
        <path
           d="M30.5714 286.7619 L30.5714 420.9524 L205 420.9524 L205 286.7619 Z"
           id="path9" />
      </clipPath>
      <clipPath
         clipPathUnits="userSpaceOnUse"
         id="clipPath4">
        <path
           d="M884 258.9524 L884 302.9524 L988 302.9524 L988 258.9524 Z"
           id="path12" />
      </clipPath>
      <clipPath
         clipPathUnits="userSpaceOnUse"
         id="clipPath5">
        <path
           d="M163.2857 52.9524 L163.2857 239.4524 L495.2857 239.4524 L495.2857 52.9524 Z"
           id="path15" />
      </clipPath>
      <clipPath
         clipPathUnits="userSpaceOnUse"
         id="clipPath6">
        <path
           d="M531.8095 96.0952 L531.8095 238.5476 L711.5714 238.5476 L711.5714 96.0952 Z"
           id="path18" />
      </clipPath>
      <clipPath
         clipPathUnits="userSpaceOnUse"
         id="clipPath7">
        <path
           d="M884 126.9524 L884 170.9524 L988 170.9524 L988 126.9524 Z"
           id="path21" />
      </clipPath>
      <clipPath
         clipPathUnits="userSpaceOnUse"
         id="clipPath8">
        <path
           d="M744.2857 124.9524 L744.2857 168.9524 L848.2857 168.9524 L848.2857 124.9524 Z"
           id="path24" />
      </clipPath>
      <clipPath
         clipPathUnits="userSpaceOnUse"
         id="clipPath9">
        <path
           d="M935.1 200.4433 L935.1 211.8434 L1017.5009 211.8434 L1017.5009 200.4433 Z"
           id="path27" />
      </clipPath>
      <clipPath
         clipPathUnits="userSpaceOnUse"
         id="clipPath10">
        <path
           d="M300.7288 157.4465 L300.7288 213.8527 L312.1288 213.8527 L312.1288 157.4465 Z"
           id="path30" />
      </clipPath>
      <clipPath
         clipPathUnits="userSpaceOnUse"
         id="clipPath11">
        <path
           d="M987.4844 141.2493 L987.4844 155.705 L1019.2305 155.705 L1019.2305 141.2493 Z"
           id="path33" />
      </clipPath>
      <clipPath
         clipPathUnits="userSpaceOnUse"
         id="clipPath12">
        <path
           d="M122.0706 323.015 L122.0706 334.9537 L270.9311 334.9537 L270.9311 323.015 Z"
           id="path36" />
      </clipPath>
      <clipPath
         clipPathUnits="userSpaceOnUse"
         id="clipPath13">
        <path
           d="M438.7832 206.1396 L438.7832 218.0782 L620.8025 218.0782 L620.8025 206.1396 Z"
           id="path39" />
      </clipPath>
      <clipPath
         clipPathUnits="userSpaceOnUse"
         id="clipPath14">
        <path
           d="M930.0306 170.4524 L930.0306 262.8835 L941.9694 262.8835 L941.9694 170.4524 Z"
           id="path42" />
      </clipPath>
      <clipPath
         clipPathUnits="userSpaceOnUse"
         id="clipPath15">
        <path
           d="M456.5566 157.4497 L456.5566 216.7665 L468.4952 216.7665 L468.4952 157.4497 Z"
           id="path45" />
      </clipPath>
      <clipPath
         clipPathUnits="userSpaceOnUse"
         id="clipPath16">
        <path
           d="M1030.7734 75.7127 L1030.7734 139.2311 L1045.2366 139.2311 L1045.2366 75.7127 Z"
           id="path48" />
      </clipPath>
      <clipPath
         clipPathUnits="userSpaceOnUse"
         id="clipPath17">
        <path
           d="M270.7857 206.983 L270.7857 218.9218 L363.2168 218.9218 L363.2168 206.983 Z"
           id="path51" />
      </clipPath>
      <clipPath
         clipPathUnits="userSpaceOnUse"
         id="clipPath18">
        <path
           d="M192.5 356.0306 L192.5 367.9694 L343.9311 367.9694 L343.9311 356.0306 Z"
           id="path54" />
      </clipPath>
      <clipPath
         clipPathUnits="userSpaceOnUse"
         id="clipPath19">
        <path
           d="M286.0914 338.4787 L286.0914 362.9047 L297.4916 362.9047 L297.4916 338.4787 Z"
           id="path57" />
      </clipPath>
      <clipPath
         clipPathUnits="userSpaceOnUse"
         id="clipPath20">
        <path
           d="M926 229.5524 L926 250.5524 L937 250.5524 L937 229.5524 Z"
           id="path60" />
      </clipPath>
      <clipPath
         clipPathUnits="userSpaceOnUse"
         id="clipPath21">
        <path
           d="M925.4551 217.4704 L936.5449 217.4704 L936.5449 232.7829 L925.4551 232.7829 L925.4551 217.4704 Z"
           id="path63" />
      </clipPath>
      <clipPath
         clipPathUnits="userSpaceOnUse"
         id="clipPath22">
        <path
           d="M1028.0063 116.4639 L1028.0063 137.4639 L1039.0063 137.4639 L1039.0063 116.4639 Z"
           id="path66" />
      </clipPath>
      <clipPath
         clipPathUnits="userSpaceOnUse"
         id="clipPath23">
        <path
           d="M1027.4614 104.3818 L1038.5513 104.3818 L1038.5513 119.6943 L1027.4614 119.6943 L1027.4614 104.3818 Z"
           id="path69" />
      </clipPath>
      <clipPath
         clipPathUnits="userSpaceOnUse"
         id="clipPath24">
        <path
           d="M267.5 255.5 L267.5 335 L427 335 L427 255.5 Z"
           id="path72" />
      </clipPath>
      <clipPath
         clipPathUnits="userSpaceOnUse"
         id="clipPath25">
        <path
           d="M767.5 87.5 L767.5 108.5 L825.5 108.5 L825.5 87.5 Z"
           id="path75" />
      </clipPath>
      <clipPath
         clipPathUnits="userSpaceOnUse"
         id="clipPath26">
        <path
           d="M174.7857 124.4524 L174.7857 145.4524 L255.7857 145.4524 L255.7857 124.4524 Z"
           id="path78" />
      </clipPath>
      <clipPath
         clipPathUnits="userSpaceOnUse"
         id="clipPath27">
        <path
           d="M280.8333 137.4524 L280.8333 158.4524 L330.8333 158.4524 L330.8333 137.4524 Z"
           id="path81" />
      </clipPath>
      <clipPath
         clipPathUnits="userSpaceOnUse"
         id="clipPath28">
        <path
           d="M174.7857 84.4524 L174.7857 105.4524 L255.7857 105.4524 L255.7857 84.4524 Z"
           id="path84" />
      </clipPath>
      <clipPath
         clipPathUnits="userSpaceOnUse"
         id="clipPath29">
        <path
           d="M306.0238 39.5 L306.0238 60.5 L361.0238 60.5 L361.0238 39.5 Z"
           id="path87" />
      </clipPath>
      <clipPath
         clipPathUnits="userSpaceOnUse"
         id="clipPath30">
        <path
           d="M358.7857 197.9524 L358.7857 227.9524 L439.7857 227.9524 L439.7857 197.9524 Z"
           id="path90" />
      </clipPath>
      <clipPath
         clipPathUnits="userSpaceOnUse"
         id="clipPath31">
        <path
           d="M1016.5 195.5 L1016.5 216.5 L1055.5 216.5 L1055.5 195.5 Z"
           id="path93" />
      </clipPath>
      <clipPath
         clipPathUnits="userSpaceOnUse"
         id="clipPath32">
        <path
           d="M347.5 351.5 L347.5 372.5 L385.5 372.5 L385.5 351.5 Z"
           id="path96" />
      </clipPath>
      <clipPath
         clipPathUnits="userSpaceOnUse"
         id="clipPath33">
        <path
           d="M543.3095 107.5952 L543.3095 128.5952 L624.3095 128.5952 L624.3095 107.5952 Z"
           id="path99" />
      </clipPath>
      <clipPath
         clipPathUnits="userSpaceOnUse"
         id="clipPath34">
        <path
           d="M266.5 318.5 L266.5 339.5 L315.5 339.5 L315.5 318.5 Z"
           id="path102" />
      </clipPath>
      <clipPath
         clipPathUnits="userSpaceOnUse"
         id="clipPath35">
        <path
           d="M174.7857 144.4524 L174.7857 165.4524 L255.7857 165.4524 L255.7857 144.4524 Z"
           id="path105" />
      </clipPath>
      <clipPath
         clipPathUnits="userSpaceOnUse"
         id="clipPath36">
        <path
           d="M915.5 110.5 L915.5 131.5 L956.5 131.5 L956.5 110.5 Z"
           id="path108" />
      </clipPath>
      <clipPath
         clipPathUnits="userSpaceOnUse"
         id="clipPath37">
        <path
           d="M772.5 107.5 L772.5 128.5 L816.5 128.5 L816.5 107.5 Z"
           id="path111" />
      </clipPath>
      <clipPath
         clipPathUnits="userSpaceOnUse"
         id="clipPath38">
        <path
           d="M1017.5 137.5 L1017.5 158.5 L1058.5 158.5 L1058.5 137.5 Z"
           id="path114" />
      </clipPath>
      <clipPath
         clipPathUnits="userSpaceOnUse"
         id="clipPath39">
        <path
           d="M440.7857 137.4524 L440.7857 158.4524 L483.7857 158.4524 L483.7857 137.4524 Z"
           id="path117" />
      </clipPath>
      <clipPath
         clipPathUnits="userSpaceOnUse"
         id="clipPath40">
        <path
           d="M174.7857 64.4524 L174.7857 85.4524 L255.7857 85.4524 L255.7857 64.4524 Z"
           id="path120" />
      </clipPath>
      <clipPath
         clipPathUnits="userSpaceOnUse"
         id="clipPath41">
        <path
           d="M643.5 162.5 L643.5 183.5 L684.5 183.5 L684.5 162.5 Z"
           id="path123" />
      </clipPath>
      <clipPath
         clipPathUnits="userSpaceOnUse"
         id="clipPath42">
        <path
           d="M190.7857 202.4524 L190.7857 223.4524 L271.7857 223.4524 L271.7857 202.4524 Z"
           id="path126" />
      </clipPath>
      <clipPath
         clipPathUnits="userSpaceOnUse"
         id="clipPath43">
        <path
           d="M174.7857 104.4524 L174.7857 125.4524 L255.7857 125.4524 L255.7857 104.4524 Z"
           id="path129" />
      </clipPath>
      <clipPath
         clipPathUnits="userSpaceOnUse"
         id="clipPath44">
        <path
           d="M593.9286 82.0714 L593.9286 103.0714 L648.9286 103.0714 L648.9286 82.0714 Z"
           id="path132" />
      </clipPath>
      <clipPath
         clipPathUnits="userSpaceOnUse"
         id="clipPath45">
        <path
           d="M619.0714 197.0476 L619.0714 227.0476 L700.0714 227.0476 L700.0714 197.0476 Z"
           id="path135" />
      </clipPath>
      <clipPath
         clipPathUnits="userSpaceOnUse"
         id="clipPath46">
        <path
           d="M543.3095 167.5952 L543.3095 188.5952 L624.3095 188.5952 L624.3095 167.5952 Z"
           id="path138" />
      </clipPath>
      <clipPath
         clipPathUnits="userSpaceOnUse"
         id="clipPath47">
        <path
           d="M543.3095 127.5952 L543.3095 148.5952 L624.3095 148.5952 L624.3095 127.5952 Z"
           id="path141" />
      </clipPath>
      <clipPath
         clipPathUnits="userSpaceOnUse"
         id="clipPath48">
        <path
           d="M543.3095 147.5952 L543.3095 168.5952 L624.3095 168.5952 L624.3095 147.5952 Z"
           id="path144" />
      </clipPath>
      <clipPath
         clipPathUnits="userSpaceOnUse"
         id="clipPath49">
        <path
           d="M42.0714 298.2619 L42.0714 319.2619 L123.0714 319.2619 L123.0714 298.2619 Z"
           id="path147" />
      </clipPath>
      <clipPath
         clipPathUnits="userSpaceOnUse"
         id="clipPath50">
        <path
           d="M42.0714 358.2619 L42.0714 379.2619 L123.0714 379.2619 L123.0714 358.2619 Z"
           id="path150" />
      </clipPath>
      <clipPath
         clipPathUnits="userSpaceOnUse"
         id="clipPath51">
        <path
           d="M42.0714 318.2619 L42.0714 339.2619 L123.0714 339.2619 L123.0714 318.2619 Z"
           id="path153" />
      </clipPath>
      <clipPath
         clipPathUnits="userSpaceOnUse"
         id="clipPath52">
        <path
           d="M42.0714 338.2619 L42.0714 359.2619 L123.0714 359.2619 L123.0714 338.2619 Z"
           id="path156" />
      </clipPath>
      <clipPath
         clipPathUnits="userSpaceOnUse"
         id="clipPath53">
        <path
           d="M76.9286 272.2619 L76.9286 293.2619 L154.7381 293.2619 L154.7381 272.2619 Z"
           id="path159" />
      </clipPath>
      <clipPath
         clipPathUnits="userSpaceOnUse"
         id="clipPath54">
        <path
           d="M152.5 351.5 L152.5 372.5 L193.5 372.5 L193.5 351.5 Z"
           id="path162" />
      </clipPath>
      <clipPath
         clipPathUnits="userSpaceOnUse"
         id="clipPath55">
        <path
           d="M384.5 351.5 L384.5 372.5 L431.5 372.5 L431.5 351.5 Z"
           id="path165" />
      </clipPath>
      <clipPath
         clipPathUnits="userSpaceOnUse"
         id="clipPath56">
        <path
           d="M79.7857 388.4524 L79.7857 409.4524 L160.7857 409.4524 L160.7857 388.4524 Z"
           id="path168" />
      </clipPath>
      <clipPath
         clipPathUnits="userSpaceOnUse"
         id="clipPath57">
        <path
           d="M755.7857 136.4524 L755.7857 157.4524 L836.7857 157.4524 L836.7857 136.4524 Z"
           id="path171" />
      </clipPath>
      <clipPath
         clipPathUnits="userSpaceOnUse"
         id="clipPath58">
        <path
           d="M895.5 138.4524 L895.5 159.4524 L976.5 159.4524 L976.5 138.4524 Z"
           id="path174" />
      </clipPath>
      <clipPath
         clipPathUnits="userSpaceOnUse"
         id="clipPath59">
        <path
           d="M915.5 296.5 L915.5 317.5 L956.5 317.5 L956.5 296.5 Z"
           id="path177" />
      </clipPath>
      <clipPath
         clipPathUnits="userSpaceOnUse"
         id="clipPath60">
        <path
           d="M895.5 270.4524 L895.5 291.4524 L976.5 291.4524 L976.5 270.4524 Z"
           id="path180" />
      </clipPath>
      <clipPath
         clipPathUnits="userSpaceOnUse"
         id="clipPath61">
        <path
           d="M908.5 90.5 L908.5 111.5 L966.5 111.5 L966.5 90.5 Z"
           id="path183" />
      </clipPath>
      <clipPath
         clipPathUnits="userSpaceOnUse"
         id="clipPath62">
        <path
           d="M1013.5672 55.7129 L1013.5672 76.7129 L1062.4747 76.7129 L1062.4747 55.7129 Z"
           id="path186" />
      </clipPath>
    </defs>
    <g
       style="fill:white; stroke:white;"
       id="g192">
      <rect
         x="0"
         width="1091"
         height="438"
         y="0"
         style="stroke:none;"
         id="rect190" />
    </g>
    <g
       style="font-weight:bold; font-size:10; text-rendering:geometricPrecision;"
       id="g202">
      <path
         d="M0.0469 6.7031 L6.7656 6.7031 L6.7656 8.125 L4.3438 8.125 L4.3438 14 L2.4688 14 L2.4688 8.125 L0.0469 8.125 L0.0469 6.7031 ZM7.665 8.5312 L9.415 8.5312 L9.415 14 L7.665 14 L7.665 8.5312 ZM7.665 6.4062 L9.415 6.4062 L9.415 7.8281 L7.665 7.8281 L7.665 6.4062 ZM12.999 6.9844 L12.999 8.5312 L14.7959 8.5312 L14.7959 9.7812 L12.999 9.7812 L12.999 12.0938 Q12.999 12.4844 13.1475 12.6172 Q13.2959 12.75 13.749 12.75 L14.6553 12.75 L14.6553 14 L13.1553 14 Q12.1084 14 11.6787 13.5703 Q11.249 13.1406 11.249 12.0938 L11.249 9.7812 L10.374 9.7812 L10.374 8.5312 L11.249 8.5312 L11.249 6.9844 L12.999 6.9844 ZM15.873 6.4062 L17.623 6.4062 L17.623 14 L15.873 14 L15.873 6.4062 ZM24.7539 11.25 L24.7539 11.75 L20.6758 11.75 Q20.7383 12.3594 21.1133 12.6719 Q21.4883 12.9844 22.1758 12.9844 Q22.7227 12.9844 23.3086 12.8203 Q23.8945 12.6562 24.5039 12.3125 L24.5039 13.6719 Q23.8789 13.9062 23.2617 14.0234 Q22.6445 14.1406 22.0195 14.1406 Q20.5352 14.1406 19.7148 13.3828 Q18.8945 12.625 18.8945 11.2656 Q18.8945 9.9375 19.6992 9.1719 Q20.5039 8.4062 21.9258 8.4062 Q23.207 8.4062 23.9805 9.1797 Q24.7539 9.9531 24.7539 11.25 ZM22.957 10.6719 Q22.957 10.1719 22.668 9.8672 Q22.3789 9.5625 21.9102 9.5625 Q21.3945 9.5625 21.082 9.8438 Q20.7695 10.125 20.6914 10.6719 L22.957 10.6719 ZM26.3643 8.5312 L28.1143 8.5312 L28.1143 10.4219 L26.3643 10.4219 L26.3643 8.5312 ZM26.3643 12.1094 L28.1143 12.1094 L28.1143 14 L26.3643 14 L26.3643 12.1094 Z"
         style="clip-path:url(#clipPath2); stroke:none;"
         clip-path="url(#clipPath2)"
         id="path194" />
      <path
         d="M38.9844 6.7031 L39.9688 6.7031 L39.9688 13.1719 L43.5156 13.1719 L43.5156 14 L38.9844 14 L38.9844 6.7031 ZM44.5088 8.5312 L45.415 8.5312 L45.415 14 L44.5088 14 L44.5088 8.5312 ZM44.5088 6.4062 L45.415 6.4062 L45.415 7.5469 L44.5088 7.5469 L44.5088 6.4062 ZM48.1621 13.1719 L48.1621 16.0781 L47.2559 16.0781 L47.2559 8.5312 L48.1621 8.5312 L48.1621 9.3594 Q48.4434 8.875 48.873 8.6406 Q49.3027 8.4062 49.9121 8.4062 Q50.9121 8.4062 51.5293 9.1953 Q52.1465 9.9844 52.1465 11.2656 Q52.1465 12.5625 51.5293 13.3516 Q50.9121 14.1406 49.9121 14.1406 Q49.3027 14.1406 48.873 13.9062 Q48.4434 13.6719 48.1621 13.1719 ZM51.2246 11.2656 Q51.2246 10.2812 50.8105 9.7188 Q50.3965 9.1562 49.6934 9.1562 Q48.9746 9.1562 48.5684 9.7188 Q48.1621 10.2812 48.1621 11.2656 Q48.1621 12.2656 48.5684 12.8281 Q48.9746 13.3906 49.6934 13.3906 Q50.3965 13.3906 50.8105 12.8281 Q51.2246 12.2656 51.2246 11.2656 ZM53.6348 8.5312 L54.541 8.5312 L54.541 14 L53.6348 14 L53.6348 8.5312 ZM53.6348 6.4062 L54.541 6.4062 L54.541 7.5469 L53.6348 7.5469 L53.6348 6.4062 ZM60.0225 9.3594 L60.0225 6.4062 L60.9131 6.4062 L60.9131 14 L60.0225 14 L60.0225 13.1719 Q59.7412 13.6719 59.3037 13.9062 Q58.8662 14.1406 58.2568 14.1406 Q57.2725 14.1406 56.6475 13.3516 Q56.0225 12.5625 56.0225 11.2656 Q56.0225 9.9844 56.6475 9.1953 Q57.2725 8.4062 58.2568 8.4062 Q58.8662 8.4062 59.3037 8.6406 Q59.7412 8.875 60.0225 9.3594 ZM56.96 11.2656 Q56.96 12.2656 57.3662 12.8281 Q57.7725 13.3906 58.4912 13.3906 Q59.1943 13.3906 59.6084 12.8281 Q60.0225 12.2656 60.0225 11.2656 Q60.0225 10.2812 59.6084 9.7188 Q59.1943 9.1562 58.4912 9.1562 Q57.7725 9.1562 57.3662 9.7188 Q56.96 10.2812 56.96 11.2656 ZM66.8145 13.1719 L66.8145 16.0781 L65.9082 16.0781 L65.9082 8.5312 L66.8145 8.5312 L66.8145 9.3594 Q67.0957 8.875 67.5254 8.6406 Q67.9551 8.4062 68.5645 8.4062 Q69.5645 8.4062 70.1816 9.1953 Q70.7988 9.9844 70.7988 11.2656 Q70.7988 12.5625 70.1816 13.3516 Q69.5645 14.1406 68.5645 14.1406 Q67.9551 14.1406 67.5254 13.9062 Q67.0957 13.6719 66.8145 13.1719 ZM69.877 11.2656 Q69.877 10.2812 69.4629 9.7188 Q69.0488 9.1562 68.3457 9.1562 Q67.627 9.1562 67.2207 9.7188 Q66.8145 10.2812 66.8145 11.2656 Q66.8145 12.2656 67.2207 12.8281 Q67.627 13.3906 68.3457 13.3906 Q69.0488 13.3906 69.4629 12.8281 Q69.877 12.2656 69.877 11.2656 ZM74.7715 11.25 Q73.6934 11.25 73.2715 11.5 Q72.8496 11.75 72.8496 12.3438 Q72.8496 12.8281 73.1621 13.1094 Q73.4746 13.3906 74.0215 13.3906 Q74.7715 13.3906 75.2246 12.8594 Q75.6777 12.3281 75.6777 11.4531 L75.6777 11.25 L74.7715 11.25 ZM76.5684 10.875 L76.5684 14 L75.6777 14 L75.6777 13.1719 Q75.3652 13.6719 74.9043 13.9062 Q74.4434 14.1406 73.7871 14.1406 Q72.9434 14.1406 72.4434 13.6719 Q71.9434 13.2031 71.9434 12.4062 Q71.9434 11.4844 72.5684 11.0156 Q73.1934 10.5469 74.4121 10.5469 L75.6777 10.5469 L75.6777 10.4531 Q75.6777 9.8438 75.2637 9.5 Q74.8496 9.1562 74.1152 9.1562 Q73.6465 9.1562 73.2012 9.2734 Q72.7559 9.3906 72.3496 9.6094 L72.3496 8.7812 Q72.8496 8.5938 73.3105 8.5 Q73.7715 8.4062 74.209 8.4062 Q75.3965 8.4062 75.9824 9.0156 Q76.5684 9.625 76.5684 10.875 ZM81.5869 9.375 Q81.4307 9.2812 81.2588 9.2422 Q81.0869 9.2031 80.8682 9.2031 Q80.1025 9.2031 79.6963 9.6953 Q79.29 10.1875 79.29 11.125 L79.29 14 L78.3838 14 L78.3838 8.5312 L79.29 8.5312 L79.29 9.375 Q79.5713 8.875 80.0244 8.6406 Q80.4775 8.4062 81.1338 8.4062 Q81.2275 8.4062 81.3369 8.4141 Q81.4463 8.4219 81.5869 8.4531 L81.5869 9.375 ZM83.417 6.9844 L83.417 8.5312 L85.2764 8.5312 L85.2764 9.2344 L83.417 9.2344 L83.417 12.2031 Q83.417 12.8594 83.6045 13.0547 Q83.792 13.25 84.3545 13.25 L85.2764 13.25 L85.2764 14 L84.3545 14 Q83.3076 14 82.9092 13.6094 Q82.5107 13.2188 82.5107 12.2031 L82.5107 9.2344 L81.8545 9.2344 L81.8545 8.5312 L82.5107 8.5312 L82.5107 6.9844 L83.417 6.9844 ZM86.4473 8.5312 L87.3535 8.5312 L87.3535 14 L86.4473 14 L86.4473 8.5312 ZM86.4473 6.4062 L87.3535 6.4062 L87.3535 7.5469 L86.4473 7.5469 L86.4473 6.4062 ZM93.1631 8.7344 L93.1631 9.5781 Q92.7881 9.375 92.4053 9.2656 Q92.0225 9.1562 91.6318 9.1562 Q90.7568 9.1562 90.2725 9.7109 Q89.7881 10.2656 89.7881 11.2656 Q89.7881 12.2656 90.2725 12.8203 Q90.7568 13.375 91.6318 13.375 Q92.0225 13.375 92.4053 13.2734 Q92.7881 13.1719 93.1631 12.9531 L93.1631 13.7969 Q92.7881 13.9688 92.3896 14.0547 Q91.9912 14.1406 91.5381 14.1406 Q90.2881 14.1406 89.5615 13.3672 Q88.835 12.5938 88.835 11.2656 Q88.835 9.9375 89.5693 9.1719 Q90.3037 8.4062 91.585 8.4062 Q92.0068 8.4062 92.3975 8.4844 Q92.7881 8.5625 93.1631 8.7344 ZM94.7236 6.4062 L95.6299 6.4062 L95.6299 14 L94.7236 14 L94.7236 6.4062 ZM102.1895 11.0469 L102.1895 11.4844 L98.0488 11.4844 Q98.1113 12.4062 98.6113 12.8906 Q99.1113 13.375 100.002 13.375 Q100.5176 13.375 101.0098 13.25 Q101.502 13.125 101.9707 12.875 L101.9707 13.7188 Q101.4863 13.9219 100.9785 14.0312 Q100.4707 14.1406 99.9551 14.1406 Q98.6426 14.1406 97.877 13.3828 Q97.1113 12.625 97.1113 11.3125 Q97.1113 9.9688 97.8379 9.1875 Q98.5645 8.4062 99.7988 8.4062 Q100.9082 8.4062 101.5488 9.1094 Q102.1895 9.8125 102.1895 11.0469 ZM101.2832 10.7812 Q101.2832 10.0469 100.877 9.6016 Q100.4707 9.1562 99.8145 9.1562 Q99.0488 9.1562 98.6035 9.5859 Q98.1582 10.0156 98.0801 10.7812 L101.2832 10.7812 ZM107.1387 8.6875 L107.1387 9.5469 Q106.7637 9.3438 106.3574 9.25 Q105.9512 9.1562 105.498 9.1562 Q104.8418 9.1562 104.5059 9.3594 Q104.1699 9.5625 104.1699 9.9688 Q104.1699 10.2812 104.4043 10.4609 Q104.6387 10.6406 105.373 10.7969 L105.6699 10.875 Q106.6387 11.0781 107.0371 11.4531 Q107.4355 11.8281 107.4355 12.4844 Q107.4355 13.25 106.834 13.6953 Q106.2324 14.1406 105.1855 14.1406 Q104.7324 14.1406 104.2559 14.0547 Q103.7793 13.9688 103.2637 13.7969 L103.2637 12.875 Q103.7637 13.125 104.2402 13.2578 Q104.7168 13.3906 105.2012 13.3906 Q105.8262 13.3906 106.1699 13.1719 Q106.5137 12.9531 106.5137 12.5625 Q106.5137 12.1875 106.2715 11.9922 Q106.0293 11.7969 105.1855 11.625 L104.873 11.5469 Q104.0449 11.375 103.6699 11.0078 Q103.2949 10.6406 103.2949 10.0156 Q103.2949 9.2344 103.8418 8.8203 Q104.3887 8.4062 105.4043 8.4062 Q105.8887 8.4062 106.334 8.4766 Q106.7793 8.5469 107.1387 8.6875 ZM115.9805 8.7344 L115.9805 9.5781 Q115.6055 9.375 115.2227 9.2656 Q114.8398 9.1562 114.4492 9.1562 Q113.5742 9.1562 113.0898 9.7109 Q112.6055 10.2656 112.6055 11.2656 Q112.6055 12.2656 113.0898 12.8203 Q113.5742 13.375 114.4492 13.375 Q114.8398 13.375 115.2227 13.2734 Q115.6055 13.1719 115.9805 12.9531 L115.9805 13.7969 Q115.6055 13.9688 115.207 14.0547 Q114.8086 14.1406 114.3555 14.1406 Q113.1055 14.1406 112.3789 13.3672 Q111.6523 12.5938 111.6523 11.2656 Q111.6523 9.9375 112.3867 9.1719 Q113.1211 8.4062 114.4023 8.4062 Q114.8242 8.4062 115.2148 8.4844 Q115.6055 8.5625 115.9805 8.7344 ZM119.666 9.1562 Q118.9473 9.1562 118.5254 9.7188 Q118.1035 10.2812 118.1035 11.2656 Q118.1035 12.25 118.5176 12.8125 Q118.9316 13.375 119.666 13.375 Q120.3848 13.375 120.8066 12.8125 Q121.2285 12.25 121.2285 11.2656 Q121.2285 10.2969 120.8066 9.7266 Q120.3848 9.1562 119.666 9.1562 ZM119.666 8.4062 Q120.8379 8.4062 121.5098 9.1641 Q122.1816 9.9219 122.1816 11.2656 Q122.1816 12.6094 121.5098 13.375 Q120.8379 14.1406 119.666 14.1406 Q118.4941 14.1406 117.8223 13.375 Q117.1504 12.6094 117.1504 11.2656 Q117.1504 9.9219 117.8223 9.1641 Q118.4941 8.4062 119.666 8.4062 ZM127.9248 9.5781 Q128.2529 8.9688 128.7217 8.6875 Q129.1904 8.4062 129.8311 8.4062 Q130.6904 8.4062 131.1514 9 Q131.6123 9.5938 131.6123 10.7031 L131.6123 14 L130.7061 14 L130.7061 10.7344 Q130.7061 9.9375 130.4326 9.5625 Q130.1592 9.1875 129.5811 9.1875 Q128.8779 9.1875 128.4795 9.6484 Q128.0811 10.1094 128.0811 10.9062 L128.0811 14 L127.1748 14 L127.1748 10.7344 Q127.1748 9.9375 126.8936 9.5625 Q126.6123 9.1875 126.0342 9.1875 Q125.3467 9.1875 124.9404 9.6484 Q124.5342 10.1094 124.5342 10.9062 L124.5342 14 L123.6279 14 L123.6279 8.5312 L124.5342 8.5312 L124.5342 9.375 Q124.8467 8.875 125.2764 8.6406 Q125.7061 8.4062 126.2842 8.4062 Q126.8936 8.4062 127.3076 8.7031 Q127.7217 9 127.9248 9.5781 ZM134.2754 13.1719 L134.2754 16.0781 L133.3691 16.0781 L133.3691 8.5312 L134.2754 8.5312 L134.2754 9.3594 Q134.5566 8.875 134.9863 8.6406 Q135.416 8.4062 136.0254 8.4062 Q137.0254 8.4062 137.6426 9.1953 Q138.2598 9.9844 138.2598 11.2656 Q138.2598 12.5625 137.6426 13.3516 Q137.0254 14.1406 136.0254 14.1406 Q135.416 14.1406 134.9863 13.9062 Q134.5566 13.6719 134.2754 13.1719 ZM137.3379 11.2656 Q137.3379 10.2812 136.9238 9.7188 Q136.5098 9.1562 135.8066 9.1562 Q135.0879 9.1562 134.6816 9.7188 Q134.2754 10.2812 134.2754 11.2656 Q134.2754 12.2656 134.6816 12.8281 Q135.0879 13.3906 135.8066 13.3906 Q136.5098 13.3906 136.9238 12.8281 Q137.3379 12.2656 137.3379 11.2656 ZM141.873 9.1562 Q141.1543 9.1562 140.7324 9.7188 Q140.3105 10.2812 140.3105 11.2656 Q140.3105 12.25 140.7246 12.8125 Q141.1387 13.375 141.873 13.375 Q142.5918 13.375 143.0137 12.8125 Q143.4355 12.25 143.4355 11.2656 Q143.4355 10.2969 143.0137 9.7266 Q142.5918 9.1562 141.873 9.1562 ZM141.873 8.4062 Q143.0449 8.4062 143.7168 9.1641 Q144.3887 9.9219 144.3887 11.2656 Q144.3887 12.6094 143.7168 13.375 Q143.0449 14.1406 141.873 14.1406 Q140.7012 14.1406 140.0293 13.375 Q139.3574 12.6094 139.3574 11.2656 Q139.3574 9.9219 140.0293 9.1641 Q140.7012 8.4062 141.873 8.4062 ZM149.3506 8.6875 L149.3506 9.5469 Q148.9756 9.3438 148.5693 9.25 Q148.1631 9.1562 147.71 9.1562 Q147.0537 9.1562 146.7178 9.3594 Q146.3818 9.5625 146.3818 9.9688 Q146.3818 10.2812 146.6162 10.4609 Q146.8506 10.6406 147.585 10.7969 L147.8818 10.875 Q148.8506 11.0781 149.249 11.4531 Q149.6475 11.8281 149.6475 12.4844 Q149.6475 13.25 149.0459 13.6953 Q148.4443 14.1406 147.3975 14.1406 Q146.9443 14.1406 146.4678 14.0547 Q145.9912 13.9688 145.4756 13.7969 L145.4756 12.875 Q145.9756 13.125 146.4521 13.2578 Q146.9287 13.3906 147.4131 13.3906 Q148.0381 13.3906 148.3818 13.1719 Q148.7256 12.9531 148.7256 12.5625 Q148.7256 12.1875 148.4834 11.9922 Q148.2412 11.7969 147.3975 11.625 L147.085 11.5469 Q146.2568 11.375 145.8818 11.0078 Q145.5068 10.6406 145.5068 10.0156 Q145.5068 9.2344 146.0537 8.8203 Q146.6006 8.4062 147.6162 8.4062 Q148.1006 8.4062 148.5459 8.4766 Q148.9912 8.5469 149.3506 8.6875 ZM151.0762 8.5312 L151.9824 8.5312 L151.9824 14 L151.0762 14 L151.0762 8.5312 ZM151.0762 6.4062 L151.9824 6.4062 L151.9824 7.5469 L151.0762 7.5469 L151.0762 6.4062 ZM154.7451 6.9844 L154.7451 8.5312 L156.6045 8.5312 L156.6045 9.2344 L154.7451 9.2344 L154.7451 12.2031 Q154.7451 12.8594 154.9326 13.0547 Q155.1201 13.25 155.6826 13.25 L156.6045 13.25 L156.6045 14 L155.6826 14 Q154.6357 14 154.2373 13.6094 Q153.8389 13.2188 153.8389 12.2031 L153.8389 9.2344 L153.1826 9.2344 L153.1826 8.5312 L153.8389 8.5312 L153.8389 6.9844 L154.7451 6.9844 ZM157.7754 8.5312 L158.6816 8.5312 L158.6816 14 L157.7754 14 L157.7754 8.5312 ZM157.7754 6.4062 L158.6816 6.4062 L158.6816 7.5469 L157.7754 7.5469 L157.7754 6.4062 ZM162.6787 9.1562 Q161.96 9.1562 161.5381 9.7188 Q161.1162 10.2812 161.1162 11.2656 Q161.1162 12.25 161.5303 12.8125 Q161.9443 13.375 162.6787 13.375 Q163.3975 13.375 163.8193 12.8125 Q164.2412 12.25 164.2412 11.2656 Q164.2412 10.2969 163.8193 9.7266 Q163.3975 9.1562 162.6787 9.1562 ZM162.6787 8.4062 Q163.8506 8.4062 164.5225 9.1641 Q165.1943 9.9219 165.1943 11.2656 Q165.1943 12.6094 164.5225 13.375 Q163.8506 14.1406 162.6787 14.1406 Q161.5068 14.1406 160.835 13.375 Q160.1631 12.6094 160.1631 11.2656 Q160.1631 9.9219 160.835 9.1641 Q161.5068 8.4062 162.6787 8.4062 ZM171.2188 10.7031 L171.2188 14 L170.3281 14 L170.3281 10.7344 Q170.3281 9.9531 170.0234 9.5703 Q169.7188 9.1875 169.1094 9.1875 Q168.3906 9.1875 167.9688 9.6484 Q167.5469 10.1094 167.5469 10.9062 L167.5469 14 L166.6406 14 L166.6406 8.5312 L167.5469 8.5312 L167.5469 9.375 Q167.875 8.8906 168.3125 8.6484 Q168.75 8.4062 169.3125 8.4062 Q170.25 8.4062 170.7344 8.9844 Q171.2188 9.5625 171.2188 10.7031 Z"
         style="clip-path:url(#clipPath2); stroke:none;"
         clip-path="url(#clipPath2)"
         id="path196" />
      <path
         d="M4.25 21.9375 Q3.3906 21.9375 2.9141 22.5703 Q2.4375 23.2031 2.4375 24.3594 Q2.4375 25.5156 2.9141 26.1484 Q3.3906 26.7812 4.25 26.7812 Q5.1094 26.7812 5.5859 26.1484 Q6.0625 25.5156 6.0625 24.3594 Q6.0625 23.2031 5.5859 22.5703 Q5.1094 21.9375 4.25 21.9375 ZM4.25 20.5781 Q6 20.5781 7 21.5859 Q8 22.5938 8 24.3594 Q8 26.125 7 27.1328 Q6 28.1406 4.25 28.1406 Q2.5 28.1406 1.5 27.1328 Q0.5 26.125 0.5 24.3594 Q0.5 22.5938 1.5 21.5859 Q2.5 20.5781 4.25 20.5781 ZM13.4072 24.0156 Q13.1729 23.9062 12.9463 23.8594 Q12.7197 23.8125 12.4854 23.8125 Q11.8135 23.8125 11.4541 24.2422 Q11.0947 24.6719 11.0947 25.4844 L11.0947 28 L9.3447 28 L9.3447 22.5312 L11.0947 22.5312 L11.0947 23.4219 Q11.4229 22.8906 11.8604 22.6484 Q12.2979 22.4062 12.9072 22.4062 Q13.001 22.4062 13.1025 22.4062 Q13.2041 22.4062 13.3916 22.4375 L13.4072 24.0156 ZM17.9951 27.0781 Q17.6357 27.5469 17.1982 27.7734 Q16.7607 28 16.1982 28 Q15.1982 28 14.542 27.2109 Q13.8857 26.4219 13.8857 25.2031 Q13.8857 23.9688 14.542 23.1875 Q15.1982 22.4062 16.1982 22.4062 Q16.7607 22.4062 17.1982 22.6328 Q17.6357 22.8594 17.9951 23.3438 L17.9951 22.5312 L19.7451 22.5312 L19.7451 27.4531 Q19.7451 28.7656 18.917 29.4609 Q18.0889 30.1562 16.5107 30.1562 Q15.9951 30.1562 15.5186 30.0781 Q15.042 30 14.5576 29.8438 L14.5576 28.4844 Q15.0107 28.75 15.4482 28.875 Q15.8857 29 16.3389 29 Q17.1982 29 17.5967 28.625 Q17.9951 28.25 17.9951 27.4531 L17.9951 27.0781 ZM16.8389 23.6719 Q16.292 23.6719 15.9951 24.0703 Q15.6982 24.4688 15.6982 25.2031 Q15.6982 25.9531 15.9873 26.3438 Q16.2764 26.7344 16.8389 26.7344 Q17.3857 26.7344 17.6904 26.3281 Q17.9951 25.9219 17.9951 25.2031 Q17.9951 24.4688 17.6904 24.0703 Q17.3857 23.6719 16.8389 23.6719 ZM23.8877 25.5312 Q23.3408 25.5312 23.0596 25.7188 Q22.7783 25.9062 22.7783 26.2656 Q22.7783 26.6094 23.0049 26.7969 Q23.2314 26.9844 23.6221 26.9844 Q24.1221 26.9844 24.458 26.625 Q24.7939 26.2656 24.7939 25.7344 L24.7939 25.5312 L23.8877 25.5312 ZM26.5596 24.875 L26.5596 28 L24.7939 28 L24.7939 27.1875 Q24.4346 27.6875 23.9971 27.9141 Q23.5596 28.1406 22.9346 28.1406 Q22.0752 28.1406 21.5518 27.6484 Q21.0283 27.1562 21.0283 26.3594 Q21.0283 25.3906 21.6846 24.9453 Q22.3408 24.5 23.7627 24.5 L24.7939 24.5 L24.7939 24.3594 Q24.7939 23.9531 24.4658 23.7578 Q24.1377 23.5625 23.4502 23.5625 Q22.8877 23.5625 22.4033 23.6719 Q21.9189 23.7812 21.4971 24.0156 L21.4971 22.6719 Q22.0596 22.5469 22.6299 22.4766 Q23.2002 22.4062 23.7627 22.4062 Q25.2471 22.4062 25.9033 22.9844 Q26.5596 23.5625 26.5596 24.875 ZM33.6826 24.6719 L33.6826 28 L31.917 28 L31.917 27.4531 L31.917 25.4531 Q31.917 24.75 31.8857 24.4766 Q31.8545 24.2031 31.7764 24.0781 Q31.6826 23.9062 31.5029 23.8125 Q31.3232 23.7188 31.1045 23.7188 Q30.5576 23.7188 30.2451 24.1406 Q29.9326 24.5625 29.9326 25.3125 L29.9326 28 L28.1826 28 L28.1826 22.5312 L29.9326 22.5312 L29.9326 23.3281 Q30.3232 22.8594 30.7686 22.6328 Q31.2139 22.4062 31.7451 22.4062 Q32.6982 22.4062 33.1904 22.9844 Q33.6826 23.5625 33.6826 24.6719 ZM35.3018 22.5312 L37.0518 22.5312 L37.0518 28 L35.3018 28 L35.3018 22.5312 ZM35.3018 20.4062 L37.0518 20.4062 L37.0518 21.8281 L35.3018 21.8281 L35.3018 20.4062 ZM42.9951 22.7031 L42.9951 24.0312 Q42.4326 23.7969 41.9092 23.6797 Q41.3857 23.5625 40.9326 23.5625 Q40.4326 23.5625 40.1904 23.6875 Q39.9482 23.8125 39.9482 24.0625 Q39.9482 24.2812 40.1279 24.3906 Q40.3076 24.5 40.792 24.5625 L41.0889 24.5938 Q42.4326 24.7656 42.9014 25.1562 Q43.3701 25.5469 43.3701 26.3906 Q43.3701 27.2656 42.7217 27.7031 Q42.0732 28.1406 40.792 28.1406 Q40.2607 28.1406 39.6826 28.0547 Q39.1045 27.9688 38.4795 27.7969 L38.4795 26.4688 Q39.0107 26.7188 39.5576 26.8516 Q40.1045 26.9844 40.667 26.9844 Q41.1826 26.9844 41.4404 26.8438 Q41.6982 26.7031 41.6982 26.4219 Q41.6982 26.1875 41.5264 26.0703 Q41.3545 25.9531 40.8232 25.8906 L40.5107 25.8438 Q39.3389 25.7031 38.8701 25.3047 Q38.4014 24.9062 38.4014 24.1094 Q38.4014 23.2344 38.9951 22.8203 Q39.5889 22.4062 40.8232 22.4062 Q41.3076 22.4062 41.8389 22.4766 Q42.3701 22.5469 42.9951 22.7031 ZM49.7441 23.4375 Q50.0723 22.9375 50.5332 22.6719 Q50.9941 22.4062 51.541 22.4062 Q52.4785 22.4062 52.9707 22.9844 Q53.4629 23.5625 53.4629 24.6719 L53.4629 28 L51.7129 28 L51.7129 25.1406 Q51.7129 25.0781 51.7129 25.0156 Q51.7129 24.9531 51.7129 24.8281 Q51.7129 24.2344 51.5488 23.9766 Q51.3848 23.7188 50.9941 23.7188 Q50.4941 23.7188 50.2285 24.125 Q49.9629 24.5312 49.9473 25.3125 L49.9473 28 L48.1816 28 L48.1816 25.1406 Q48.1816 24.2344 48.0254 23.9766 Q47.8691 23.7188 47.4785 23.7188 Q46.9785 23.7188 46.7051 24.1328 Q46.4316 24.5469 46.4316 25.3125 L46.4316 28 L44.666 28 L44.666 22.5312 L46.4316 22.5312 L46.4316 23.3281 Q46.7441 22.875 47.166 22.6406 Q47.5879 22.4062 48.0879 22.4062 Q48.6504 22.4062 49.0879 22.6797 Q49.5254 22.9531 49.7441 23.4375 ZM55.3828 22.5312 L57.1328 22.5312 L57.1328 24.4219 L55.3828 24.4219 L55.3828 22.5312 ZM55.3828 26.1094 L57.1328 26.1094 L57.1328 28 L55.3828 28 L55.3828 26.1094 Z"
         style="clip-path:url(#clipPath2); stroke:none;"
         clip-path="url(#clipPath2)"
         id="path198" />
      <path
         d="M66.9844 20.7031 L67.9688 20.7031 L67.9688 23.7031 L71.5469 23.7031 L71.5469 20.7031 L72.5312 20.7031 L72.5312 28 L71.5469 28 L71.5469 24.5312 L67.9688 24.5312 L67.9688 28 L66.9844 28 L66.9844 20.7031 ZM76.582 23.1562 Q75.8633 23.1562 75.4414 23.7188 Q75.0195 24.2812 75.0195 25.2656 Q75.0195 26.25 75.4336 26.8125 Q75.8477 27.375 76.582 27.375 Q77.3008 27.375 77.7227 26.8125 Q78.1445 26.25 78.1445 25.2656 Q78.1445 24.2969 77.7227 23.7266 Q77.3008 23.1562 76.582 23.1562 ZM76.582 22.4062 Q77.7539 22.4062 78.4258 23.1641 Q79.0977 23.9219 79.0977 25.2656 Q79.0977 26.6094 78.4258 27.375 Q77.7539 28.1406 76.582 28.1406 Q75.4102 28.1406 74.7383 27.375 Q74.0664 26.6094 74.0664 25.2656 Q74.0664 23.9219 74.7383 23.1641 Q75.4102 22.4062 76.582 22.4062 ZM84.8408 23.5781 Q85.1689 22.9688 85.6377 22.6875 Q86.1064 22.4062 86.7471 22.4062 Q87.6064 22.4062 88.0674 23 Q88.5283 23.5938 88.5283 24.7031 L88.5283 28 L87.6221 28 L87.6221 24.7344 Q87.6221 23.9375 87.3486 23.5625 Q87.0752 23.1875 86.4971 23.1875 Q85.7939 23.1875 85.3955 23.6484 Q84.9971 24.1094 84.9971 24.9062 L84.9971 28 L84.0908 28 L84.0908 24.7344 Q84.0908 23.9375 83.8096 23.5625 Q83.5283 23.1875 82.9502 23.1875 Q82.2627 23.1875 81.8564 23.6484 Q81.4502 24.1094 81.4502 24.9062 L81.4502 28 L80.5439 28 L80.5439 22.5312 L81.4502 22.5312 L81.4502 23.375 Q81.7627 22.875 82.1924 22.6406 Q82.6221 22.4062 83.2002 22.4062 Q83.8096 22.4062 84.2236 22.7031 Q84.6377 23 84.8408 23.5781 ZM92.4414 23.1562 Q91.7227 23.1562 91.3008 23.7188 Q90.8789 24.2812 90.8789 25.2656 Q90.8789 26.25 91.293 26.8125 Q91.707 27.375 92.4414 27.375 Q93.1602 27.375 93.582 26.8125 Q94.0039 26.25 94.0039 25.2656 Q94.0039 24.2969 93.582 23.7266 Q93.1602 23.1562 92.4414 23.1562 ZM92.4414 22.4062 Q93.6133 22.4062 94.2852 23.1641 Q94.957 23.9219 94.957 25.2656 Q94.957 26.6094 94.2852 27.375 Q93.6133 28.1406 92.4414 28.1406 Q91.2695 28.1406 90.5977 27.375 Q89.9258 26.6094 89.9258 25.2656 Q89.9258 23.9219 90.5977 23.1641 Q91.2695 22.4062 92.4414 22.4062 ZM103.0977 22.6875 L103.0977 23.5469 Q102.7227 23.3438 102.3164 23.25 Q101.9102 23.1562 101.457 23.1562 Q100.8008 23.1562 100.4648 23.3594 Q100.1289 23.5625 100.1289 23.9688 Q100.1289 24.2812 100.3633 24.4609 Q100.5977 24.6406 101.332 24.7969 L101.6289 24.875 Q102.5977 25.0781 102.9961 25.4531 Q103.3945 25.8281 103.3945 26.4844 Q103.3945 27.25 102.793 27.6953 Q102.1914 28.1406 101.1445 28.1406 Q100.6914 28.1406 100.2148 28.0547 Q99.7383 27.9688 99.2227 27.7969 L99.2227 26.875 Q99.7227 27.125 100.1992 27.2578 Q100.6758 27.3906 101.1602 27.3906 Q101.7852 27.3906 102.1289 27.1719 Q102.4727 26.9531 102.4727 26.5625 Q102.4727 26.1875 102.2305 25.9922 Q101.9883 25.7969 101.1445 25.625 L100.832 25.5469 Q100.0039 25.375 99.6289 25.0078 Q99.2539 24.6406 99.2539 24.0156 Q99.2539 23.2344 99.8008 22.8203 Q100.3477 22.4062 101.3633 22.4062 Q101.8477 22.4062 102.293 22.4766 Q102.7383 22.5469 103.0977 22.6875 ZM107.3076 25.25 Q106.2295 25.25 105.8076 25.5 Q105.3857 25.75 105.3857 26.3438 Q105.3857 26.8281 105.6982 27.1094 Q106.0107 27.3906 106.5576 27.3906 Q107.3076 27.3906 107.7607 26.8594 Q108.2139 26.3281 108.2139 25.4531 L108.2139 25.25 L107.3076 25.25 ZM109.1045 24.875 L109.1045 28 L108.2139 28 L108.2139 27.1719 Q107.9014 27.6719 107.4404 27.9062 Q106.9795 28.1406 106.3232 28.1406 Q105.4795 28.1406 104.9795 27.6719 Q104.4795 27.2031 104.4795 26.4062 Q104.4795 25.4844 105.1045 25.0156 Q105.7295 24.5469 106.9482 24.5469 L108.2139 24.5469 L108.2139 24.4531 Q108.2139 23.8438 107.7998 23.5 Q107.3857 23.1562 106.6514 23.1562 Q106.1826 23.1562 105.7373 23.2734 Q105.292 23.3906 104.8857 23.6094 L104.8857 22.7812 Q105.3857 22.5938 105.8467 22.5 Q106.3076 22.4062 106.7451 22.4062 Q107.9326 22.4062 108.5186 23.0156 Q109.1045 23.625 109.1045 24.875 ZM111.8262 27.1719 L111.8262 30.0781 L110.9199 30.0781 L110.9199 22.5312 L111.8262 22.5312 L111.8262 23.3594 Q112.1074 22.875 112.5371 22.6406 Q112.9668 22.4062 113.5762 22.4062 Q114.5762 22.4062 115.1934 23.1953 Q115.8105 23.9844 115.8105 25.2656 Q115.8105 26.5625 115.1934 27.3516 Q114.5762 28.1406 113.5762 28.1406 Q112.9668 28.1406 112.5371 27.9062 Q112.1074 27.6719 111.8262 27.1719 ZM114.8887 25.2656 Q114.8887 24.2812 114.4746 23.7188 Q114.0605 23.1562 113.3574 23.1562 Q112.6387 23.1562 112.2324 23.7188 Q111.8262 24.2812 111.8262 25.2656 Q111.8262 26.2656 112.2324 26.8281 Q112.6387 27.3906 113.3574 27.3906 Q114.0605 27.3906 114.4746 26.8281 Q114.8887 26.2656 114.8887 25.2656 ZM117.2988 22.5312 L118.2051 22.5312 L118.2051 28 L117.2988 28 L117.2988 22.5312 ZM117.2988 20.4062 L118.2051 20.4062 L118.2051 21.5469 L117.2988 21.5469 L117.2988 20.4062 ZM124.7646 25.0469 L124.7646 25.4844 L120.624 25.4844 Q120.6865 26.4062 121.1865 26.8906 Q121.6865 27.375 122.5771 27.375 Q123.0928 27.375 123.585 27.25 Q124.0771 27.125 124.5459 26.875 L124.5459 27.7188 Q124.0615 27.9219 123.5537 28.0312 Q123.0459 28.1406 122.5303 28.1406 Q121.2178 28.1406 120.4521 27.3828 Q119.6865 26.625 119.6865 25.3125 Q119.6865 23.9688 120.4131 23.1875 Q121.1396 22.4062 122.374 22.4062 Q123.4834 22.4062 124.124 23.1094 Q124.7646 23.8125 124.7646 25.0469 ZM123.8584 24.7812 Q123.8584 24.0469 123.4521 23.6016 Q123.0459 23.1562 122.3896 23.1562 Q121.624 23.1562 121.1787 23.5859 Q120.7334 24.0156 120.6553 24.7812 L123.8584 24.7812 ZM130.7764 24.7031 L130.7764 28 L129.8857 28 L129.8857 24.7344 Q129.8857 23.9531 129.5811 23.5703 Q129.2764 23.1875 128.667 23.1875 Q127.9482 23.1875 127.5264 23.6484 Q127.1045 24.1094 127.1045 24.9062 L127.1045 28 L126.1982 28 L126.1982 22.5312 L127.1045 22.5312 L127.1045 23.375 Q127.4326 22.8906 127.8701 22.6484 Q128.3076 22.4062 128.8701 22.4062 Q129.8076 22.4062 130.292 22.9844 Q130.7764 23.5625 130.7764 24.7031 ZM136.0518 22.6875 L136.0518 23.5469 Q135.6768 23.3438 135.2705 23.25 Q134.8643 23.1562 134.4111 23.1562 Q133.7549 23.1562 133.4189 23.3594 Q133.083 23.5625 133.083 23.9688 Q133.083 24.2812 133.3174 24.4609 Q133.5518 24.6406 134.2861 24.7969 L134.583 24.875 Q135.5518 25.0781 135.9502 25.4531 Q136.3486 25.8281 136.3486 26.4844 Q136.3486 27.25 135.7471 27.6953 Q135.1455 28.1406 134.0986 28.1406 Q133.6455 28.1406 133.1689 28.0547 Q132.6924 27.9688 132.1768 27.7969 L132.1768 26.875 Q132.6768 27.125 133.1533 27.2578 Q133.6299 27.3906 134.1143 27.3906 Q134.7393 27.3906 135.083 27.1719 Q135.4268 26.9531 135.4268 26.5625 Q135.4268 26.1875 135.1846 25.9922 Q134.9424 25.7969 134.0986 25.625 L133.7861 25.5469 Q132.958 25.375 132.583 25.0078 Q132.208 24.6406 132.208 24.0156 Q132.208 23.2344 132.7549 22.8203 Q133.3018 22.4062 134.3174 22.4062 Q134.8018 22.4062 135.2471 22.4766 Q135.6924 22.5469 136.0518 22.6875 Z"
         style="clip-path:url(#clipPath2); stroke:none;"
         clip-path="url(#clipPath2)"
         id="path200" />
    </g>
    <g
       style="fill:rgb(180,180,100); text-rendering:geometricPrecision; fill-opacity:0.098; stroke-opacity:0.098; stroke:rgb(180,180,100);"
       id="g206">
      <path
         d="M48.5714 286.7619 L186 286.7619 L204 304.7619 L204 401.9524 L186 419.9524 L48.5714 419.9524 L30.5714 401.9524 L30.5714 304.7619 Z"
         style="clip-path:url(#clipPath3); stroke:none;"
         clip-path="url(#clipPath3)"
         id="path204" />
    </g>
    <g
       style="fill:gray; text-rendering:geometricPrecision; stroke:gray;"
       id="g210">
      <path
         d="M48.5714 286.7619 L186 286.7619 L204 304.7619 L204 401.9524 L186 419.9524 L48.5714 419.9524 L30.5714 401.9524 L30.5714 304.7619 Z"
         style="fill:none; clip-path:url(#clipPath3);"
         clip-path="url(#clipPath3)"
         id="path208" />
    </g>
    <g
       style="fill:rgb(180,180,100); text-rendering:geometricPrecision; fill-opacity:0.098; stroke-opacity:0.098; stroke:rgb(180,180,100);"
       id="g214">
      <path
         d="M901.6 258.9524 L969.4 258.9524 L987 276.5524 L987 284.3524 L969.4 301.9524 L901.6 301.9524 L884 284.3524 L884 276.5524 Z"
         style="clip-path:url(#clipPath4); stroke:none;"
         clip-path="url(#clipPath4)"
         id="path212" />
    </g>
    <g
       style="fill:gray; text-rendering:geometricPrecision; stroke:gray;"
       id="g218">
      <path
         d="M901.6 258.9524 L969.4 258.9524 L987 276.5524 L987 284.3524 L969.4 301.9524 L901.6 301.9524 L884 284.3524 L884 276.5524 Z"
         style="fill:none; clip-path:url(#clipPath4);"
         clip-path="url(#clipPath4)"
         id="path216" />
    </g>
    <g
       style="fill:rgb(180,180,100); text-rendering:geometricPrecision; fill-opacity:0.098; stroke-opacity:0.098; stroke:rgb(180,180,100);"
       id="g222">
      <path
         d="M181.2857 52.9524 L476.2857 52.9524 L494.2857 70.9524 L494.2857 220.4524 L476.2857 238.4524 L181.2857 238.4524 L163.2857 220.4524 L163.2857 70.9524 Z"
         style="clip-path:url(#clipPath5); stroke:none;"
         clip-path="url(#clipPath5)"
         id="path220" />
    </g>
    <g
       style="fill:gray; text-rendering:geometricPrecision; stroke:gray;"
       id="g226">
      <path
         d="M181.2857 52.9524 L476.2857 52.9524 L494.2857 70.9524 L494.2857 220.4524 L476.2857 238.4524 L181.2857 238.4524 L163.2857 220.4524 L163.2857 70.9524 Z"
         style="fill:none; clip-path:url(#clipPath5);"
         clip-path="url(#clipPath5)"
         id="path224" />
    </g>
    <g
       style="fill:rgb(180,180,100); text-rendering:geometricPrecision; fill-opacity:0.098; stroke-opacity:0.098; stroke:rgb(180,180,100);"
       id="g230">
      <path
         d="M549.8095 96.0952 L692.5714 96.0952 L710.5714 114.0952 L710.5714 219.5476 L692.5714 237.5476 L549.8095 237.5476 L531.8095 219.5476 L531.8095 114.0952 Z"
         style="clip-path:url(#clipPath6); stroke:none;"
         clip-path="url(#clipPath6)"
         id="path228" />
    </g>
    <g
       style="fill:gray; text-rendering:geometricPrecision; stroke:gray;"
       id="g234">
      <path
         d="M549.8095 96.0952 L692.5714 96.0952 L710.5714 114.0952 L710.5714 219.5476 L692.5714 237.5476 L549.8095 237.5476 L531.8095 219.5476 L531.8095 114.0952 Z"
         style="fill:none; clip-path:url(#clipPath6);"
         clip-path="url(#clipPath6)"
         id="path232" />
    </g>
    <g
       style="fill:rgb(180,180,100); text-rendering:geometricPrecision; fill-opacity:0.098; stroke-opacity:0.098; stroke:rgb(180,180,100);"
       id="g238">
      <path
         d="M901.6 126.9524 L969.4 126.9524 L987 144.5524 L987 152.3524 L969.4 169.9524 L901.6 169.9524 L884 152.3524 L884 144.5524 Z"
         style="clip-path:url(#clipPath7); stroke:none;"
         clip-path="url(#clipPath7)"
         id="path236" />
    </g>
    <g
       style="fill:gray; text-rendering:geometricPrecision; stroke:gray;"
       id="g242">
      <path
         d="M901.6 126.9524 L969.4 126.9524 L987 144.5524 L987 152.3524 L969.4 169.9524 L901.6 169.9524 L884 152.3524 L884 144.5524 Z"
         style="fill:none; clip-path:url(#clipPath7);"
         clip-path="url(#clipPath7)"
         id="path240" />
    </g>
    <g
       style="fill:rgb(180,180,100); text-rendering:geometricPrecision; fill-opacity:0.098; stroke-opacity:0.098; stroke:rgb(180,180,100);"
       id="g246">
      <path
         d="M761.8857 124.9524 L829.6857 124.9524 L847.2857 142.5524 L847.2857 150.3524 L829.6857 167.9524 L761.8857 167.9524 L744.2857 150.3524 L744.2857 142.5524 Z"
         style="clip-path:url(#clipPath8); stroke:none;"
         clip-path="url(#clipPath8)"
         id="path244" />
    </g>
    <g
       style="fill:gray; text-rendering:geometricPrecision; stroke:gray;"
       id="g250">
      <path
         d="M761.8857 124.9524 L829.6857 124.9524 L847.2857 142.5524 L847.2857 150.3524 L829.6857 167.9524 L761.8857 167.9524 L744.2857 150.3524 L744.2857 142.5524 Z"
         style="fill:none; clip-path:url(#clipPath8);"
         clip-path="url(#clipPath8)"
         id="path248" />
    </g>
    <g
       style="text-rendering:geometricPrecision;"
       id="g258">
      <path
         d="M1017 206 L946 206.1336"
         style="fill:none; clip-path:url(#clipPath9);"
         clip-path="url(#clipPath9)"
         id="path252" />
      <path
         d="M935.6 206.1531 C935.5946 203.2813 937.9183 200.9488 940.7902 200.9434 C943.6621 200.938 945.9946 203.2617 946 206.1336 C946.0054 209.0054 943.6816 211.3379 940.8098 211.3433 C937.9379 211.3487 935.6054 209.025 935.6 206.1531 Z"
         style="fill:white; clip-path:url(#clipPath9); stroke:none;"
         clip-path="url(#clipPath9)"
         id="path254" />
      <path
         d="M935.6 206.1531 C935.5946 203.2813 937.9183 200.9488 940.7902 200.9434 C943.6621 200.938 945.9946 203.2617 946 206.1336 C946.0054 209.0054 943.6816 211.3379 940.8098 211.3433 C937.9379 211.3487 935.6054 209.025 935.6 206.1531 Z"
         style="fill:none; clip-path:url(#clipPath9);"
         clip-path="url(#clipPath9)"
         id="path256" />
    </g>
    <g
       style="text-rendering:geometricPrecision;"
       id="g266">
      <path
         d="M305.8333 157.9524 L306.3671 202.9531"
         style="fill:none; clip-path:url(#clipPath10);"
         clip-path="url(#clipPath10)"
         id="path260" />
      <path
         d="M306.4904 213.3524 C303.6188 213.3864 301.2632 211.0861 301.2292 208.2144 C301.1951 205.3427 303.4954 202.9872 306.3671 202.9531 C309.2388 202.919 311.5944 205.2194 311.6284 208.091 C311.6625 210.9627 309.3622 213.3183 306.4904 213.3524 Z"
         style="fill:white; clip-path:url(#clipPath10); stroke:none;"
         clip-path="url(#clipPath10)"
         id="path262" />
      <path
         d="M306.4904 213.3524 C303.6188 213.3864 301.2632 211.0861 301.2292 208.2144 C301.1951 205.3427 303.4954 202.9872 306.3671 202.9531 C309.2388 202.919 311.5944 205.2194 311.6284 208.091 C311.6625 210.9627 309.3622 213.3183 306.4904 213.3524 Z"
         style="fill:none; clip-path:url(#clipPath10);"
         clip-path="url(#clipPath10)"
         id="path264" />
    </g>
    <g
       style="text-rendering:geometricPrecision;"
       id="g272">
      <path
         d="M988 148.9524 L1018 148"
         style="fill:none; clip-path:url(#clipPath11);"
         clip-path="url(#clipPath11)"
         id="path268" />
      <path
         d="M1018 148 L1006.1409 143.1739 L1012.8026 148.165 L1006.4709 153.5686 Z"
         style="clip-path:url(#clipPath11); stroke:none;"
         clip-path="url(#clipPath11)"
         id="path270" />
    </g>
    <g
       style="text-rendering:geometricPrecision;"
       id="g280">
      <path
         d="M122.5714 328.7619 L258 328.9852"
         style="fill:none; clip-path:url(#clipPath12);"
         clip-path="url(#clipPath12)"
         id="path274" />
      <path
         d="M258.0086 323.7852 L269.7 329.0045 L257.9915 334.1852 Z"
         style="fill:white; clip-path:url(#clipPath12); stroke:none;"
         clip-path="url(#clipPath12)"
         id="path276" />
      <path
         d="M258.0086 323.7852 L269.7 329.0045 L257.9915 334.1852 Z"
         style="fill:none; clip-path:url(#clipPath12);"
         clip-path="url(#clipPath12)"
         id="path278" />
    </g>
    <g
       style="text-rendering:geometricPrecision;"
       id="g286">
      <path
         d="M439.2857 212.9524 L619.5714 212.0476"
         style="fill:none; clip-path:url(#clipPath13);"
         clip-path="url(#clipPath13)"
         id="path282" />
      <path
         d="M619.5714 212.0476 L607.8455 206.9064 L607.8976 217.3063 Z"
         style="clip-path:url(#clipPath13); fill-rule:evenodd; stroke:none;"
         clip-path="url(#clipPath13)"
         id="path284" />
    </g>
    <g
       style="text-rendering:geometricPrecision;"
       id="g292">
      <path
         d="M936 170.9524 L936 249.9524"
         style="fill:none; clip-path:url(#clipPath14);"
         clip-path="url(#clipPath14)"
         id="path288" />
      <path
         d="M941.2 249.9524 L936 261.6524 L930.8 249.9524 Z"
         style="clip-path:url(#clipPath14); stroke:none;"
         clip-path="url(#clipPath14)"
         id="path290" />
    </g>
    <g
       style="text-rendering:geometricPrecision;"
       id="g300">
      <path
         d="M462.2857 157.9524 L462.5286 203.8356"
         style="fill:none; clip-path:url(#clipPath15);"
         clip-path="url(#clipPath15)"
         id="path294" />
      <path
         d="M467.7285 203.8081 L462.5905 215.5355 L457.3286 203.8631 Z"
         style="fill:white; clip-path:url(#clipPath15); stroke:none;"
         clip-path="url(#clipPath15)"
         id="path296" />
      <path
         d="M467.7285 203.8081 L462.5905 215.5355 L457.3286 203.8631 Z"
         style="fill:none; clip-path:url(#clipPath15);"
         clip-path="url(#clipPath15)"
         id="path298" />
    </g>
    <g
       style="text-rendering:geometricPrecision;"
       id="g306">
      <path
         d="M1038.021 76.2129 L1038 138"
         style="fill:none; clip-path:url(#clipPath16);"
         clip-path="url(#clipPath16)"
         id="path302" />
      <path
         d="M1038 138 L1043.204 126.3018 L1038.0017 132.8 L1032.804 126.2982 Z"
         style="clip-path:url(#clipPath16); stroke:none;"
         clip-path="url(#clipPath16)"
         id="path304" />
    </g>
    <g
       style="text-rendering:geometricPrecision;"
       id="g312">
      <path
         d="M271.2857 212.9524 L350.2857 212.9524"
         style="fill:none; clip-path:url(#clipPath17);"
         clip-path="url(#clipPath17)"
         id="path308" />
      <path
         d="M350.2857 207.7524 L361.9857 212.9524 L350.2857 218.1524 Z"
         style="clip-path:url(#clipPath17); stroke:none;"
         clip-path="url(#clipPath17)"
         id="path310" />
    </g>
    <g
       style="text-rendering:geometricPrecision;"
       id="g318">
      <path
         d="M193 362 L331 362"
         style="fill:none; clip-path:url(#clipPath18);"
         clip-path="url(#clipPath18)"
         id="path314" />
      <path
         d="M331 356.8 L342.7 362 L331 367.2 Z"
         style="clip-path:url(#clipPath18); stroke:none;"
         clip-path="url(#clipPath18)"
         id="path316" />
    </g>
    <g
       style="text-rendering:geometricPrecision;"
       id="g326">
      <path
         d="M291 339 L291.5656 352.0094"
         style="fill:none; clip-path:url(#clipPath19);"
         clip-path="url(#clipPath19)"
         id="path320" />
      <path
         d="M292.0174 362.3996 C289.1482 362.5244 286.7212 360.2996 286.5964 357.4304 C286.4716 354.5612 288.6965 352.1342 291.5656 352.0094 C294.4348 351.8847 296.8618 354.1095 296.9866 356.9787 C297.1113 359.8478 294.8865 362.2749 292.0174 362.3996 Z"
         style="fill:white; clip-path:url(#clipPath19); stroke:none;"
         clip-path="url(#clipPath19)"
         id="path322" />
      <path
         d="M292.0174 362.3996 C289.1482 362.5244 286.7212 360.2996 286.5964 357.4304 C286.4716 354.5612 288.6965 352.1342 291.5656 352.0094 C294.4348 351.8847 296.8618 354.1095 296.9866 356.9787 C297.1113 359.8478 294.8865 362.2749 292.0174 362.3996 Z"
         style="fill:none; clip-path:url(#clipPath19);"
         clip-path="url(#clipPath19)"
         id="path324" />
    </g>
    <g
       style="fill:navy; text-rendering:geometricPrecision; font-size:8; stroke:navy;"
       id="g330">
      <text
         x="928"
         xml:space="preserve"
         y="229"
         style="clip-path:url(#clipPath21); stroke:none;"
         clip-path="url(#clipPath21)"
         id="text328">1</text>
    </g>
    <g
       style="fill:navy; text-rendering:geometricPrecision; font-size:8; stroke:navy;"
       id="g334">
      <text
         x="1030"
         xml:space="preserve"
         y="116"
         style="clip-path:url(#clipPath23); stroke:none;"
         clip-path="url(#clipPath23)"
         id="text332">2</text>
    </g>
    <g
       style="fill:silver; text-rendering:geometricPrecision; stroke:silver;"
       id="g338">
      <path
         d="M276.5 270 L276.5 270 L276.5 270 L278 270 L278 271.5 L278 319 L278 320.5 L276.5 320.5 L273.5 320.5 L273.5 319 L273.5 317.5 L276.5 317.5 L278 317.5 L278 319 C278 322.0374 280.4625 324.5 283.5 324.5 L285 324.5 L285 326 L285 329 L283.5 329 L282 329 L282 326 L282 324.5 L283.5 324.5 L411 324.5 L412.5 324.5 L412.5 326 L412.5 329 L411 329 L409.5 329 L409.5 326 L409.5 324.5 L411 324.5 C414.0374 324.5 416.5 322.0375 416.5 319 L416.5 317.5 L418 317.5 L421 317.5 L421 319 L421 320.5 L418 320.5 L416.5 320.5 L416.5 319 L416.5 271.5 L416.5 270 L418 270 L421 270 L421 271.5 L421 273 L418 273 L416.5 273 L416.5 271.5 C416.5 268.4626 414.0375 266 411 266 L409.5 266 L409.5 264.5 L409.5 261.5 L411 261.5 L412.5 261.5 L412.5 264.5 L412.5 266 L411 266 L283.5 266 L282 266 L282 264.5 L282 261.5 L283.5 261.5 L285 261.5 L285 264.5 L285 266 L283.5 266 C280.4626 266 278 268.4625 278 271.5 L278 273 L276.5 273 L273.5 273 L273.5 271.5 L273.5 270 L276.5 270 L278 270 L278 273 L276.5 273 L273.5 273 L273.5 270 L276.5 270 L276.5 271.5 L275 271.5 C275 266.8056 278.8058 263 283.5 263 L283.5 264.5 L282 264.5 L282 261.5 L285 261.5 L285 264.5 L283.5 264.5 L283.5 263 L411 263 L411 264.5 L409.5 264.5 L409.5 261.5 L412.5 261.5 L412.5 264.5 L411 264.5 L411 263 C415.6944 263 419.5 266.8058 419.5 271.5 L418 271.5 L418 270 L421 270 L421 273 L418 273 L418 271.5 L419.5 271.5 L419.5 319 L418 319 L418 317.5 L421 317.5 L421 320.5 L418 320.5 L418 319 L419.5 319 C419.5 323.6944 415.6942 327.5 411 327.5 L411 326 L412.5 326 L412.5 329 L409.5 329 L409.5 326 L411 326 L411 327.5 L283.5 327.5 L283.5 326 L285 326 L285 329 L282 329 L282 326 L283.5 326 L283.5 327.5 C278.8056 327.5 275 323.6942 275 319 L276.5 319 L276.5 320.5 L273.5 320.5 L273.5 317.5 L276.5 317.5 L276.5 319 L275 319 L275 271.5 L276.5 271.5 L276.5 273 L276.5 273 L275 273 L275 270 ZM270.5 270 L270.5 270 L270.5 270 L270.5 271.5 L269 271.5 C269 263.4919 275.492 257 283.5 257 L283.5 258.5 L283.5 257 L283.5 257 L283.5 258.5 L283.5 257 L411 257 L411 258.5 L411 257 L411 257 L411 258.5 L411 257 C419.0081 257 425.5 263.492 425.5 271.5 L424 271.5 L424 270 L424 270 L425.5 270 L425.5 271.5 L425.5 319 L424 319 L424 317.5 L424 317.5 L425.5 317.5 L425.5 319 C425.5 327.0081 419.008 333.5 411 333.5 L411 332 L411 330.5 L411 330.5 L411 332 L411 333.5 L283.5 333.5 L283.5 332 L283.5 330.5 L283.5 330.5 L283.5 332 L283.5 333.5 C275.4919 333.5 269 327.008 269 319 L269 317.5 L270.5 317.5 L270.5 317.5 L270.5 319 L269 319 L269 271.5 L269 270 L270.5 270 M270.5 273 L270.5 271.5 L272 271.5 L272 319 L272 320.5 L270.5 320.5 L270.5 320.5 L270.5 319 L272 319 C272 325.3512 277.1488 330.5 283.5 330.5 L283.5 333.5 L283.5 333.5 L283.5 330.5 L411 330.5 L411 333.5 L411 333.5 L411 330.5 C417.3512 330.5 422.5 325.3512 422.5 319 L424 319 L424 320.5 L424 320.5 L422.5 320.5 L422.5 319 L422.5 271.5 L424 271.5 L424 273 L424 273 L422.5 273 L422.5 271.5 C422.5 265.1488 417.3512 260 411 260 L411 260 L411 260 L411 260 L283.5 260 L283.5 260 L283.5 260 L283.5 260 C277.1488 260 272 265.1488 272 271.5 L272 273 L270.5 273 L270.5 273 Z"
         style="clip-path:url(#clipPath24); stroke:none;"
         clip-path="url(#clipPath24)"
         id="path336" />
    </g>
    <g
       style="font-size:10; text-rendering:geometricPrecision;"
       id="g342">
      <text
         x="773"
         xml:space="preserve"
         y="101"
         style="clip-path:url(#clipPath25); stroke:none;"
         clip-path="url(#clipPath25)"
         id="text340">aka LDL1</text>
    </g>
    <g
       style="fill:white; text-rendering:geometricPrecision; stroke:white;"
       id="g350">
      <path
         d="M175.2857 124.9524 L255.2857 124.9524 L255.2857 144.9524 L175.2857 144.9524 L175.2857 124.9524 Z"
         style="clip-path:url(#clipPath26); stroke:none;"
         clip-path="url(#clipPath26)"
         id="path344" />
      <path
         d="M175.2857 124.9524 L255.2857 124.9524 L255.2857 144.9524 L175.2857 144.9524 L175.2857 124.9524 Z"
         style="fill:none; clip-path:url(#clipPath26); stroke:black;"
         clip-path="url(#clipPath26)"
         id="path346" />
      <text
         x="195"
         y="138"
         style="font-size:10; clip-path:url(#clipPath26); fill:black; stroke:none;"
         xml:space="preserve"
         clip-path="url(#clipPath26)"
         id="text348">Apo C-III</text>
    </g>
    <g
       style="fill:white; text-rendering:geometricPrecision; stroke:white;"
       id="g358">
      <path
         d="M281.3333 137.9524 L330.3333 137.9524 L330.3333 157.9524 L281.3333 157.9524 L281.3333 137.9524 Z"
         style="clip-path:url(#clipPath27); stroke:none;"
         clip-path="url(#clipPath27)"
         id="path352" />
      <path
         d="M281.3333 137.9524 L330.3333 137.9524 L330.3333 157.9524 L281.3333 157.9524 L281.3333 137.9524 Z"
         style="fill:none; clip-path:url(#clipPath27); stroke:black;"
         clip-path="url(#clipPath27)"
         id="path354" />
      <text
         x="294"
         y="151"
         style="font-size:10; clip-path:url(#clipPath27); fill:black; stroke:none;"
         xml:space="preserve"
         clip-path="url(#clipPath27)"
         id="text356">LCAT</text>
    </g>
    <g
       style="fill:white; text-rendering:geometricPrecision; stroke:white;"
       id="g366">
      <path
         d="M175.2857 84.9524 L255.2857 84.9524 L255.2857 104.9524 L175.2857 104.9524 L175.2857 84.9524 Z"
         style="clip-path:url(#clipPath28); stroke:none;"
         clip-path="url(#clipPath28)"
         id="path360" />
      <path
         d="M175.2857 84.9524 L255.2857 84.9524 L255.2857 104.9524 L175.2857 104.9524 L175.2857 84.9524 Z"
         style="fill:none; clip-path:url(#clipPath28); stroke:black;"
         clip-path="url(#clipPath28)"
         id="path362" />
      <text
         x="196"
         y="98"
         style="font-size:10; clip-path:url(#clipPath28); fill:black; stroke:none;"
         xml:space="preserve"
         clip-path="url(#clipPath28)"
         id="text364">Apo A-II</text>
    </g>
    <g
       style="fill:white; text-rendering:geometricPrecision; stroke:white;"
       id="g374">
      <path
         d="M306.5238 40 L360.5238 40 L360.5238 60 L306.5238 60 L306.5238 40 Z"
         style="clip-path:url(#clipPath29); stroke:none;"
         clip-path="url(#clipPath29)"
         id="path368" />
      <path
         d="M306.5238 40 L360.5238 40 L360.5238 60 L306.5238 60 L306.5238 40 Z"
         style="fill:none; clip-path:url(#clipPath29); stroke:black;"
         clip-path="url(#clipPath29)"
         id="path370" />
      <text
         x="323"
         y="54"
         style="font-size:10; clip-path:url(#clipPath29); fill:black; stroke:none;"
         xml:space="preserve"
         clip-path="url(#clipPath29)"
         id="text372">HDL</text>
    </g>
    <g
       style="fill:white; text-rendering:geometricPrecision; stroke:white;"
       id="g384">
      <path
         d="M359.2857 198.4524 L439.2857 198.4524 L439.2857 227.4524 L359.2857 227.4524 L359.2857 198.4524 Z"
         style="clip-path:url(#clipPath30); stroke:none;"
         clip-path="url(#clipPath30)"
         id="path376" />
      <path
         d="M359.2857 198.4524 L439.2857 198.4524 L439.2857 227.4524 L359.2857 227.4524 L359.2857 198.4524 Z"
         style="fill:none; clip-path:url(#clipPath30); stroke:blue;"
         clip-path="url(#clipPath30)"
         id="path378" />
      <text
         x="372"
         y="210"
         style="font-size:10; clip-path:url(#clipPath30); fill:blue; stroke:none;"
         xml:space="preserve"
         clip-path="url(#clipPath30)"
         id="text380">cholesteryl</text>
      <text
         x="387"
         y="221"
         style="font-size:10; clip-path:url(#clipPath30); fill:blue; stroke:none;"
         xml:space="preserve"
         clip-path="url(#clipPath30)"
         id="text382">ester</text>
    </g>
    <g
       style="fill:white; text-rendering:geometricPrecision; stroke:white;"
       id="g392">
      <path
         d="M1017 196 L1055 196 L1055 216 L1017 216 L1017 196 Z"
         style="clip-path:url(#clipPath31); stroke:none;"
         clip-path="url(#clipPath31)"
         id="path386" />
      <path
         d="M1017 196 L1055 196 L1055 216 L1017 216 L1017 196 Z"
         style="fill:none; clip-path:url(#clipPath31); stroke:blue;"
         clip-path="url(#clipPath31)"
         id="path388" />
      <text
         x="1026"
         y="209"
         style="font-size:10; clip-path:url(#clipPath31); fill:blue; stroke:none;"
         xml:space="preserve"
         clip-path="url(#clipPath31)"
         id="text390">ROS</text>
    </g>
    <g
       style="fill:white; text-rendering:geometricPrecision; stroke:white;"
       id="g400">
      <path
         d="M348 352 L385 352 L385 372 L348 372 L348 352 Z"
         style="clip-path:url(#clipPath32); stroke:none;"
         clip-path="url(#clipPath32)"
         id="path394" />
      <path
         d="M348 352 L385 352 L385 372 L348 372 L348 352 Z"
         style="fill:none; clip-path:url(#clipPath32); stroke:blue;"
         clip-path="url(#clipPath32)"
         id="path396" />
      <text
         x="360"
         y="365"
         style="font-size:10; clip-path:url(#clipPath32); fill:blue; stroke:none;"
         xml:space="preserve"
         clip-path="url(#clipPath32)"
         id="text398">FA</text>
    </g>
    <g
       style="fill:white; text-rendering:geometricPrecision; stroke:white;"
       id="g408">
      <path
         d="M543.8095 108.0952 L623.8095 108.0952 L623.8095 128.0952 L543.8095 128.0952 L543.8095 108.0952 Z"
         style="clip-path:url(#clipPath33); stroke:none;"
         clip-path="url(#clipPath33)"
         id="path402" />
      <path
         d="M543.8095 108.0952 L623.8095 108.0952 L623.8095 128.0952 L543.8095 128.0952 L543.8095 108.0952 Z"
         style="fill:none; clip-path:url(#clipPath33); stroke:black;"
         clip-path="url(#clipPath33)"
         id="path404" />
      <text
         x="557"
         y="122"
         style="font-size:10; clip-path:url(#clipPath33); fill:black; stroke:none;"
         xml:space="preserve"
         clip-path="url(#clipPath33)"
         id="text406">Apo B-100</text>
    </g>
    <g
       style="fill:white; text-rendering:geometricPrecision; stroke:white;"
       id="g416">
      <path
         d="M267 319 L315 319 L315 339 L267 339 L267 319 Z"
         style="clip-path:url(#clipPath34); stroke:none;"
         clip-path="url(#clipPath34)"
         id="path410" />
      <path
         d="M267 319 L315 319 L315 339 L267 339 L267 319 Z"
         style="fill:none; clip-path:url(#clipPath34); stroke:black;"
         clip-path="url(#clipPath34)"
         id="path412" />
      <text
         x="283"
         y="332"
         style="font-size:10; clip-path:url(#clipPath34); fill:black; stroke:none;"
         xml:space="preserve"
         clip-path="url(#clipPath34)"
         id="text414">LPL</text>
    </g>
    <g
       style="fill:white; text-rendering:geometricPrecision; stroke:white;"
       id="g424">
      <path
         d="M175.2857 144.9524 L255.2857 144.9524 L255.2857 164.9524 L175.2857 164.9524 L175.2857 144.9524 Z"
         style="clip-path:url(#clipPath35); stroke:none;"
         clip-path="url(#clipPath35)"
         id="path418" />
      <path
         d="M175.2857 144.9524 L255.2857 144.9524 L255.2857 164.9524 L175.2857 164.9524 L175.2857 144.9524 Z"
         style="fill:none; clip-path:url(#clipPath35); stroke:black;"
         clip-path="url(#clipPath35)"
         id="path420" />
      <text
         x="201"
         y="158"
         style="font-size:10; clip-path:url(#clipPath35); fill:black; stroke:none;"
         xml:space="preserve"
         clip-path="url(#clipPath35)"
         id="text422">Apo E</text>
    </g>
    <g
       style="fill:white; text-rendering:geometricPrecision; stroke:white;"
       id="g432">
      <path
         d="M916 111 L956 111 L956 131 L916 131 L916 111 Z"
         style="clip-path:url(#clipPath36); stroke:none;"
         clip-path="url(#clipPath36)"
         id="path426" />
      <path
         d="M916 111 L956 111 L956 131 L916 131 L916 111 Z"
         style="fill:none; clip-path:url(#clipPath36); stroke:black;"
         clip-path="url(#clipPath36)"
         id="path428" />
      <text
         x="927"
         y="124"
         style="font-size:10; clip-path:url(#clipPath36); fill:black; stroke:none;"
         xml:space="preserve"
         clip-path="url(#clipPath36)"
         id="text430">LDL</text>
    </g>
    <g
       style="fill:white; text-rendering:geometricPrecision; stroke:white;"
       id="g440">
      <path
         d="M773 108 L816 108 L816 128 L773 128 L773 108 Z"
         style="clip-path:url(#clipPath37); stroke:none;"
         clip-path="url(#clipPath37)"
         id="path434" />
      <path
         d="M773 108 L816 108 L816 128 L773 128 L773 108 Z"
         style="fill:none; clip-path:url(#clipPath37); stroke:black;"
         clip-path="url(#clipPath37)"
         id="path436" />
      <text
         x="786"
         y="121"
         style="font-size:10; clip-path:url(#clipPath37); fill:black; stroke:none;"
         xml:space="preserve"
         clip-path="url(#clipPath37)"
         id="text438">IDL</text>
    </g>
    <g
       style="fill:white; text-rendering:geometricPrecision; stroke:white;"
       id="g448">
      <path
         d="M1018 138 L1058 138 L1058 158 L1018 158 L1018 138 Z"
         style="clip-path:url(#clipPath38); stroke:none;"
         clip-path="url(#clipPath38)"
         id="path442" />
      <path
         d="M1018 138 L1058 138 L1058 158 L1018 158 L1018 138 Z"
         style="fill:none; clip-path:url(#clipPath38); stroke:black;"
         clip-path="url(#clipPath38)"
         id="path444" />
      <text
         x="1026"
         y="151"
         style="font-size:10; clip-path:url(#clipPath38); fill:black; stroke:none;"
         xml:space="preserve"
         clip-path="url(#clipPath38)"
         id="text446">LDLR</text>
    </g>
    <g
       style="fill:white; text-rendering:geometricPrecision; stroke:white;"
       id="g456">
      <path
         d="M441.2857 137.9524 L483.2857 137.9524 L483.2857 157.9524 L441.2857 157.9524 L441.2857 137.9524 Z"
         style="clip-path:url(#clipPath39); stroke:none;"
         clip-path="url(#clipPath39)"
         id="path450" />
      <path
         d="M441.2857 137.9524 L483.2857 137.9524 L483.2857 157.9524 L441.2857 157.9524 L441.2857 137.9524 Z"
         style="fill:none; clip-path:url(#clipPath39); stroke:black;"
         clip-path="url(#clipPath39)"
         id="path452" />
      <text
         x="450"
         y="151"
         style="font-size:10; clip-path:url(#clipPath39); fill:black; stroke:none;"
         xml:space="preserve"
         clip-path="url(#clipPath39)"
         id="text454">CETP</text>
    </g>
    <g
       style="fill:white; text-rendering:geometricPrecision; stroke:white;"
       id="g464">
      <path
         d="M175.2857 64.9524 L255.2857 64.9524 L255.2857 84.9524 L175.2857 84.9524 L175.2857 64.9524 Z"
         style="clip-path:url(#clipPath40); stroke:none;"
         clip-path="url(#clipPath40)"
         id="path458" />
      <path
         d="M175.2857 64.9524 L255.2857 64.9524 L255.2857 84.9524 L175.2857 84.9524 L175.2857 64.9524 Z"
         style="fill:none; clip-path:url(#clipPath40); stroke:black;"
         clip-path="url(#clipPath40)"
         id="path460" />
      <text
         x="198"
         y="78"
         style="font-size:10; clip-path:url(#clipPath40); fill:black; stroke:none;"
         xml:space="preserve"
         clip-path="url(#clipPath40)"
         id="text462">Apo A-I</text>
    </g>
    <g
       style="fill:white; text-rendering:geometricPrecision; stroke:white;"
       id="g472">
      <path
         d="M644 163 L684 163 L684 183 L644 183 L644 163 Z"
         style="clip-path:url(#clipPath41); stroke:none;"
         clip-path="url(#clipPath41)"
         id="path466" />
      <path
         d="M644 163 L684 163 L684 183 L644 183 L644 163 Z"
         style="fill:none; clip-path:url(#clipPath41); stroke:blue;"
         clip-path="url(#clipPath41)"
         id="path468" />
      <text
         x="658"
         y="176"
         style="font-size:10; clip-path:url(#clipPath41); fill:blue; stroke:none;"
         xml:space="preserve"
         clip-path="url(#clipPath41)"
         id="text470">TG</text>
    </g>
    <g
       style="fill:white; text-rendering:geometricPrecision; stroke:white;"
       id="g480">
      <path
         d="M191.2857 202.9524 L271.2857 202.9524 L271.2857 222.9524 L191.2857 222.9524 L191.2857 202.9524 Z"
         style="clip-path:url(#clipPath42); stroke:none;"
         clip-path="url(#clipPath42)"
         id="path474" />
      <path
         d="M191.2857 202.9524 L271.2857 202.9524 L271.2857 222.9524 L191.2857 222.9524 L191.2857 202.9524 Z"
         style="fill:none; clip-path:url(#clipPath42); stroke:blue;"
         clip-path="url(#clipPath42)"
         id="path476" />
      <text
         x="204"
         y="216"
         style="font-size:10; clip-path:url(#clipPath42); fill:blue; stroke:none;"
         xml:space="preserve"
         clip-path="url(#clipPath42)"
         id="text478">cholesterol</text>
    </g>
    <g
       style="fill:white; text-rendering:geometricPrecision; stroke:white;"
       id="g488">
      <path
         d="M175.2857 104.9524 L255.2857 104.9524 L255.2857 124.9524 L175.2857 124.9524 L175.2857 104.9524 Z"
         style="clip-path:url(#clipPath43); stroke:none;"
         clip-path="url(#clipPath43)"
         id="path482" />
      <path
         d="M175.2857 104.9524 L255.2857 104.9524 L255.2857 124.9524 L175.2857 124.9524 L175.2857 104.9524 Z"
         style="fill:none; clip-path:url(#clipPath43); stroke:black;"
         clip-path="url(#clipPath43)"
         id="path484" />
      <text
         x="196"
         y="118"
         style="font-size:10; clip-path:url(#clipPath43); fill:black; stroke:none;"
         xml:space="preserve"
         clip-path="url(#clipPath43)"
         id="text486">Apo C-II</text>
    </g>
    <g
       style="fill:white; text-rendering:geometricPrecision; stroke:white;"
       id="g496">
      <path
         d="M594.4286 82.5714 L648.4286 82.5714 L648.4286 102.5714 L594.4286 102.5714 L594.4286 82.5714 Z"
         style="clip-path:url(#clipPath44); stroke:none;"
         clip-path="url(#clipPath44)"
         id="path490" />
      <path
         d="M594.4286 82.5714 L648.4286 82.5714 L648.4286 102.5714 L594.4286 102.5714 L594.4286 82.5714 Z"
         style="fill:none; clip-path:url(#clipPath44); stroke:black;"
         clip-path="url(#clipPath44)"
         id="path492" />
      <text
         x="609"
         y="96"
         style="font-size:10; clip-path:url(#clipPath44); fill:black; stroke:none;"
         xml:space="preserve"
         clip-path="url(#clipPath44)"
         id="text494">VLDL</text>
    </g>
    <g
       style="fill:white; text-rendering:geometricPrecision; stroke:white;"
       id="g506">
      <path
         d="M619.5714 197.5476 L699.5714 197.5476 L699.5714 226.5476 L619.5714 226.5476 L619.5714 197.5476 Z"
         style="clip-path:url(#clipPath45); stroke:none;"
         clip-path="url(#clipPath45)"
         id="path498" />
      <path
         d="M619.5714 197.5476 L699.5714 197.5476 L699.5714 226.5476 L619.5714 226.5476 L619.5714 197.5476 Z"
         style="fill:none; clip-path:url(#clipPath45); stroke:blue;"
         clip-path="url(#clipPath45)"
         id="path500" />
      <text
         x="632"
         y="209"
         style="font-size:10; clip-path:url(#clipPath45); fill:blue; stroke:none;"
         xml:space="preserve"
         clip-path="url(#clipPath45)"
         id="text502">cholesteryl</text>
      <text
         x="647"
         y="220"
         style="font-size:10; clip-path:url(#clipPath45); fill:blue; stroke:none;"
         xml:space="preserve"
         clip-path="url(#clipPath45)"
         id="text504">ester</text>
    </g>
    <g
       style="fill:white; text-rendering:geometricPrecision; stroke:white;"
       id="g514">
      <path
         d="M543.8095 168.0952 L623.8095 168.0952 L623.8095 188.0952 L543.8095 188.0952 L543.8095 168.0952 Z"
         style="clip-path:url(#clipPath46); stroke:none;"
         clip-path="url(#clipPath46)"
         id="path508" />
      <path
         d="M543.8095 168.0952 L623.8095 168.0952 L623.8095 188.0952 L543.8095 188.0952 L543.8095 168.0952 Z"
         style="fill:none; clip-path:url(#clipPath46); stroke:black;"
         clip-path="url(#clipPath46)"
         id="path510" />
      <text
         x="569"
         y="182"
         style="font-size:10; clip-path:url(#clipPath46); fill:black; stroke:none;"
         xml:space="preserve"
         clip-path="url(#clipPath46)"
         id="text512">Apo E</text>
    </g>
    <g
       style="fill:white; text-rendering:geometricPrecision; stroke:white;"
       id="g522">
      <path
         d="M543.8095 128.0952 L623.8095 128.0952 L623.8095 148.0952 L543.8095 148.0952 L543.8095 128.0952 Z"
         style="clip-path:url(#clipPath47); stroke:none;"
         clip-path="url(#clipPath47)"
         id="path516" />
      <path
         d="M543.8095 128.0952 L623.8095 128.0952 L623.8095 148.0952 L543.8095 148.0952 L543.8095 128.0952 Z"
         style="fill:none; clip-path:url(#clipPath47); stroke:black;"
         clip-path="url(#clipPath47)"
         id="path518" />
      <text
         x="564"
         y="142"
         style="font-size:10; clip-path:url(#clipPath47); fill:black; stroke:none;"
         xml:space="preserve"
         clip-path="url(#clipPath47)"
         id="text520">Apo C-II</text>
    </g>
    <g
       style="fill:white; text-rendering:geometricPrecision; stroke:white;"
       id="g530">
      <path
         d="M543.8095 148.0952 L623.8095 148.0952 L623.8095 168.0952 L543.8095 168.0952 L543.8095 148.0952 Z"
         style="clip-path:url(#clipPath48); stroke:none;"
         clip-path="url(#clipPath48)"
         id="path524" />
      <path
         d="M543.8095 148.0952 L623.8095 148.0952 L623.8095 168.0952 L543.8095 168.0952 L543.8095 148.0952 Z"
         style="fill:none; clip-path:url(#clipPath48); stroke:black;"
         clip-path="url(#clipPath48)"
         id="path526" />
      <text
         x="563"
         y="162"
         style="font-size:10; clip-path:url(#clipPath48); fill:black; stroke:none;"
         xml:space="preserve"
         clip-path="url(#clipPath48)"
         id="text528">Apo C-III</text>
    </g>
    <g
       style="fill:white; text-rendering:geometricPrecision; stroke:white;"
       id="g538">
      <path
         d="M42.5714 298.7619 L122.5714 298.7619 L122.5714 318.7619 L42.5714 318.7619 L42.5714 298.7619 Z"
         style="clip-path:url(#clipPath49); stroke:none;"
         clip-path="url(#clipPath49)"
         id="path532" />
      <path
         d="M42.5714 298.7619 L122.5714 298.7619 L122.5714 318.7619 L42.5714 318.7619 L42.5714 298.7619 Z"
         style="fill:none; clip-path:url(#clipPath49); stroke:black;"
         clip-path="url(#clipPath49)"
         id="path534" />
      <text
         x="60"
         y="312"
         style="font-size:10; clip-path:url(#clipPath49); fill:black; stroke:none;"
         xml:space="preserve"
         clip-path="url(#clipPath49)"
         id="text536">Apo B-48</text>
    </g>
    <g
       style="fill:white; text-rendering:geometricPrecision; stroke:white;"
       id="g546">
      <path
         d="M42.5714 358.7619 L122.5714 358.7619 L122.5714 378.7619 L42.5714 378.7619 L42.5714 358.7619 Z"
         style="clip-path:url(#clipPath50); stroke:none;"
         clip-path="url(#clipPath50)"
         id="path540" />
      <path
         d="M42.5714 358.7619 L122.5714 358.7619 L122.5714 378.7619 L42.5714 378.7619 L42.5714 358.7619 Z"
         style="fill:none; clip-path:url(#clipPath50); stroke:black;"
         clip-path="url(#clipPath50)"
         id="path542" />
      <text
         x="68"
         y="372"
         style="font-size:10; clip-path:url(#clipPath50); fill:black; stroke:none;"
         xml:space="preserve"
         clip-path="url(#clipPath50)"
         id="text544">Apo E</text>
    </g>
    <g
       style="fill:white; text-rendering:geometricPrecision; stroke:white;"
       id="g554">
      <path
         d="M42.5714 318.7619 L122.5714 318.7619 L122.5714 338.7619 L42.5714 338.7619 L42.5714 318.7619 Z"
         style="clip-path:url(#clipPath51); stroke:none;"
         clip-path="url(#clipPath51)"
         id="path548" />
      <path
         d="M42.5714 318.7619 L122.5714 318.7619 L122.5714 338.7619 L42.5714 338.7619 L42.5714 318.7619 Z"
         style="fill:none; clip-path:url(#clipPath51); stroke:black;"
         clip-path="url(#clipPath51)"
         id="path550" />
      <text
         x="63"
         y="332"
         style="font-size:10; clip-path:url(#clipPath51); fill:black; stroke:none;"
         xml:space="preserve"
         clip-path="url(#clipPath51)"
         id="text552">Apo C-II</text>
    </g>
    <g
       style="fill:white; text-rendering:geometricPrecision; stroke:white;"
       id="g562">
      <path
         d="M42.5714 338.7619 L122.5714 338.7619 L122.5714 358.7619 L42.5714 358.7619 L42.5714 338.7619 Z"
         style="clip-path:url(#clipPath52); stroke:none;"
         clip-path="url(#clipPath52)"
         id="path556" />
      <path
         d="M42.5714 338.7619 L122.5714 338.7619 L122.5714 358.7619 L42.5714 358.7619 L42.5714 338.7619 Z"
         style="fill:none; clip-path:url(#clipPath52); stroke:black;"
         clip-path="url(#clipPath52)"
         id="path558" />
      <text
         x="62"
         y="352"
         style="font-size:10; clip-path:url(#clipPath52); fill:black; stroke:none;"
         xml:space="preserve"
         clip-path="url(#clipPath52)"
         id="text560">Apo C-III</text>
    </g>
    <g
       style="fill:white; text-rendering:geometricPrecision; stroke:white;"
       id="g570">
      <path
         d="M77.4286 272.7619 L154.2381 272.7619 L154.2381 292.7619 L77.4286 292.7619 L77.4286 272.7619 Z"
         style="clip-path:url(#clipPath53); stroke:none;"
         clip-path="url(#clipPath53)"
         id="path564" />
      <path
         d="M77.4286 272.7619 L154.2381 272.7619 L154.2381 292.7619 L77.4286 292.7619 L77.4286 272.7619 Z"
         style="fill:none; clip-path:url(#clipPath53); stroke:black;"
         clip-path="url(#clipPath53)"
         id="path566" />
      <text
         x="85"
         y="286"
         style="font-size:10; clip-path:url(#clipPath53); fill:black; stroke:none;"
         xml:space="preserve"
         clip-path="url(#clipPath53)"
         id="text568">Chylomicron</text>
    </g>
    <g
       style="fill:white; text-rendering:geometricPrecision; stroke:white;"
       id="g578">
      <path
         d="M153 352 L193 352 L193 372 L153 372 L153 352 Z"
         style="clip-path:url(#clipPath54); stroke:none;"
         clip-path="url(#clipPath54)"
         id="path572" />
      <path
         d="M153 352 L193 352 L193 372 L153 372 L153 352 Z"
         style="fill:none; clip-path:url(#clipPath54); stroke:blue;"
         clip-path="url(#clipPath54)"
         id="path574" />
      <text
         x="167"
         y="365"
         style="font-size:10; clip-path:url(#clipPath54); fill:blue; stroke:none;"
         xml:space="preserve"
         clip-path="url(#clipPath54)"
         id="text576">TG</text>
    </g>
    <g
       style="fill:white; text-rendering:geometricPrecision; stroke:white;"
       id="g586">
      <path
         d="M385 352 L431 352 L431 372 L385 372 L385 352 Z"
         style="clip-path:url(#clipPath55); stroke:none;"
         clip-path="url(#clipPath55)"
         id="path580" />
      <path
         d="M385 352 L431 352 L431 372 L385 372 L385 352 Z"
         style="fill:none; clip-path:url(#clipPath55); stroke:blue;"
         clip-path="url(#clipPath55)"
         id="path582" />
      <text
         x="389"
         y="365"
         style="font-size:10; clip-path:url(#clipPath55); fill:blue; stroke:none;"
         xml:space="preserve"
         clip-path="url(#clipPath55)"
         id="text584">glycerol</text>
    </g>
    <g
       style="fill:white; text-rendering:geometricPrecision; stroke:white;"
       id="g594">
      <path
         d="M80.2857 388.9524 L160.2857 388.9524 L160.2857 408.9524 L80.2857 408.9524 L80.2857 388.9524 Z"
         style="clip-path:url(#clipPath56); stroke:none;"
         clip-path="url(#clipPath56)"
         id="path588" />
      <path
         d="M80.2857 388.9524 L160.2857 388.9524 L160.2857 408.9524 L80.2857 408.9524 L80.2857 388.9524 Z"
         style="fill:none; clip-path:url(#clipPath56); stroke:blue;"
         clip-path="url(#clipPath56)"
         id="path590" />
      <text
         x="93"
         y="402"
         style="font-size:10; clip-path:url(#clipPath56); fill:blue; stroke:none;"
         xml:space="preserve"
         clip-path="url(#clipPath56)"
         id="text592">cholesterol</text>
    </g>
    <g
       style="fill:white; text-rendering:geometricPrecision; stroke:white;"
       id="g602">
      <path
         d="M756.2857 136.9524 L836.2857 136.9524 L836.2857 156.9524 L756.2857 156.9524 L756.2857 136.9524 Z"
         style="clip-path:url(#clipPath57); stroke:none;"
         clip-path="url(#clipPath57)"
         id="path596" />
      <path
         d="M756.2857 136.9524 L836.2857 136.9524 L836.2857 156.9524 L756.2857 156.9524 L756.2857 136.9524 Z"
         style="fill:none; clip-path:url(#clipPath57); stroke:blue;"
         clip-path="url(#clipPath57)"
         id="path598" />
      <text
         x="769"
         y="150"
         style="font-size:10; clip-path:url(#clipPath57); fill:blue; stroke:none;"
         xml:space="preserve"
         clip-path="url(#clipPath57)"
         id="text600">cholesterol</text>
    </g>
    <g
       style="fill:white; text-rendering:geometricPrecision; stroke:white;"
       id="g610">
      <path
         d="M896 138.9524 L976 138.9524 L976 158.9524 L896 158.9524 L896 138.9524 Z"
         style="clip-path:url(#clipPath58); stroke:none;"
         clip-path="url(#clipPath58)"
         id="path604" />
      <path
         d="M896 138.9524 L976 138.9524 L976 158.9524 L896 158.9524 L896 138.9524 Z"
         style="fill:none; clip-path:url(#clipPath58); stroke:blue;"
         clip-path="url(#clipPath58)"
         id="path606" />
      <text
         x="909"
         y="152"
         style="font-size:10; clip-path:url(#clipPath58); fill:blue; stroke:none;"
         xml:space="preserve"
         clip-path="url(#clipPath58)"
         id="text608">cholesterol</text>
    </g>
    <g
       style="fill:white; text-rendering:geometricPrecision; stroke:white;"
       id="g618">
      <path
         d="M916 297 L956 297 L956 317 L916 317 L916 297 Z"
         style="clip-path:url(#clipPath59); stroke:none;"
         clip-path="url(#clipPath59)"
         id="path612" />
      <path
         d="M916 297 L956 297 L956 317 L916 317 L916 297 Z"
         style="fill:none; clip-path:url(#clipPath59); stroke:black;"
         clip-path="url(#clipPath59)"
         id="path614" />
      <text
         x="921"
         y="310"
         style="font-size:10; clip-path:url(#clipPath59); fill:black; stroke:none;"
         xml:space="preserve"
         clip-path="url(#clipPath59)"
         id="text616">oxLDL</text>
    </g>
    <g
       style="fill:white; text-rendering:geometricPrecision; stroke:white;"
       id="g626">
      <path
         d="M896 270.9524 L976 270.9524 L976 290.9524 L896 290.9524 L896 270.9524 Z"
         style="clip-path:url(#clipPath60); stroke:none;"
         clip-path="url(#clipPath60)"
         id="path620" />
      <path
         d="M896 270.9524 L976 270.9524 L976 290.9524 L896 290.9524 L896 270.9524 Z"
         style="fill:none; clip-path:url(#clipPath60); stroke:blue;"
         clip-path="url(#clipPath60)"
         id="path622" />
      <text
         x="909"
         y="284"
         style="font-size:10; clip-path:url(#clipPath60); fill:blue; stroke:none;"
         xml:space="preserve"
         clip-path="url(#clipPath60)"
         id="text624">cholesterol</text>
    </g>
    <g
       style="font-size:10; text-rendering:geometricPrecision;"
       id="g630">
      <text
         x="914"
         xml:space="preserve"
         y="104"
         style="clip-path:url(#clipPath61); stroke:none;"
         clip-path="url(#clipPath61)"
         id="text628">aka LDL2</text>
    </g>
    <g
       style="fill:white; text-rendering:geometricPrecision; stroke:white;"
       id="g638">
      <path
         d="M1014.0672 56.2129 L1061.9747 56.2129 L1061.9747 76.2129 L1014.0672 76.2129 L1014.0672 56.2129 Z"
         style="clip-path:url(#clipPath62); stroke:none;"
         clip-path="url(#clipPath62)"
         id="path632" />
      <path
         d="M1014.0672 56.2129 L1061.9747 56.2129 L1061.9747 76.2129 L1014.0672 76.2129 L1014.0672 56.2129 Z"
         style="fill:none; clip-path:url(#clipPath62); stroke:black;"
         clip-path="url(#clipPath62)"
         id="path634" />
      <text
         x="1024"
         y="70"
         style="font-size:10; clip-path:url(#clipPath62); fill:black; stroke:none;"
         xml:space="preserve"
         clip-path="url(#clipPath62)"
         id="text636">Apo E</text>
    </g>
  </g>
</svg>
