<?xml version="1.0" encoding="UTF-8" standalone="no"?>
<svg
   style="fill-opacity:1; color-rendering:auto; color-interpolation:auto; stroke:black; text-rendering:auto; stroke-linecap:square; stroke-miterlimit:10; stroke-opacity:1; shape-rendering:auto; fill:black; stroke-dasharray:none; font-weight:normal; stroke-width:1; font-family:'Dialog'; font-style:normal; stroke-linejoin:miter; font-size:12; stroke-dashoffset:0; image-rendering:auto;"
   width="1106"
   height="592"
   version="1.1"
   id="svg602"
   xmlns="http://www.w3.org/2000/svg"
   xmlns:svg="http://www.w3.org/2000/svg">
  <!--Generated by the Batik Graphics2D SVG Generator-->
  <defs
     id="genericDefs" />
  <g
     id="g600">
    <defs
       id="defs1">
      <clipPath
         clipPathUnits="userSpaceOnUse"
         id="clipPath1">
        <path
           d="M0 0 L1122 0 L1122 602 L0 602 L0 0 Z"
           id="path3" />
      </clipPath>
      <clipPath
         clipPathUnits="userSpaceOnUse"
         id="clipPath2">
        <path
           d="M39.0992 343.947 L39.0992 542.5854 L280.1251 542.5854 L280.1251 343.947 Z"
           id="path6" />
      </clipPath>
      <clipPath
         clipPathUnits="userSpaceOnUse"
         id="clipPath3">
        <path
           d="M0 0 L0 200 L200 200 L200 0 Z"
           id="path9" />
      </clipPath>
      <clipPath
         clipPathUnits="userSpaceOnUse"
         id="clipPath4">
        <path
           d="M219 16 L219 37 L230 37 L230 16 Z"
           id="path12" />
      </clipPath>
      <clipPath
         clipPathUnits="userSpaceOnUse"
         id="clipPath5">
        <path
           d="M218.4551 3.918 L229.5449 3.918 L229.5449 19.2305 L218.4551 19.2305 L218.4551 3.918 Z"
           id="path15" />
      </clipPath>
      <clipPath
         clipPathUnits="userSpaceOnUse"
         id="clipPath6">
        <path
           d="M697.2389 21.548 L697.2389 162.548 L1073.2389 162.548 L1073.2389 21.548 Z"
           id="path18" />
      </clipPath>
      <clipPath
         clipPathUnits="userSpaceOnUse"
         id="clipPath7">
        <path
           d="M125.2986 193.2817 L125.2986 205.2204 L170.4703 205.2204 L170.4703 193.2817 Z"
           id="path21" />
      </clipPath>
      <clipPath
         clipPathUnits="userSpaceOnUse"
         id="clipPath8">
        <path
           d="M205.5829 106.7564 L205.5829 184.4322 L217.5217 184.4322 L217.5217 106.7564 Z"
           id="path24" />
      </clipPath>
      <clipPath
         clipPathUnits="userSpaceOnUse"
         id="clipPath9">
        <path
           d="M359.2025 479.7146 L359.2025 491.6534 L423.1564 491.6534 L423.1564 479.7146 Z"
           id="path27" />
      </clipPath>
      <clipPath
         clipPathUnits="userSpaceOnUse"
         id="clipPath10">
        <path
           d="M209.2419 325.6421 L209.2419 400.2632 L221.1807 400.2632 L221.1807 325.6421 Z"
           id="path30" />
      </clipPath>
      <clipPath
         clipPathUnits="userSpaceOnUse"
         id="clipPath11">
        <path
           d="M147.7124 419.6321 L147.7124 473.684 L231.5807 473.684 L231.5807 419.6321 Z"
           id="path33" />
      </clipPath>
      <clipPath
         clipPathUnits="userSpaceOnUse"
         id="clipPath12">
        <path
           d="M107.6805 419.6321 L107.6805 473.684 L148.7124 473.684 L148.7124 419.6321 Z"
           id="path36" />
      </clipPath>
      <clipPath
         clipPathUnits="userSpaceOnUse"
         id="clipPath13">
        <path
           d="M256.0392 187.0317 L256.0392 198.9704 L550.1294 198.9704 L550.1294 187.0317 Z"
           id="path39" />
      </clipPath>
      <clipPath
         clipPathUnits="userSpaceOnUse"
         id="clipPath14">
        <path
           d="M121.8675 180.7817 L121.8675 192.7204 L167.0392 192.7204 L167.0392 180.7817 Z"
           id="path42" />
      </clipPath>
      <clipPath
         clipPathUnits="userSpaceOnUse"
         id="clipPath15">
        <path
           d="M189.2812 479.7146 L189.2812 491.6534 L273.6336 491.6534 L273.6336 479.7146 Z"
           id="path45" />
      </clipPath>
      <clipPath
         clipPathUnits="userSpaceOnUse"
         id="clipPath16">
        <path
           d="M508.7253 205.0011 L508.7253 491.6534 L591.6983 491.6534 L591.6983 205.0011 Z"
           id="path48" />
      </clipPath>
      <clipPath
         clipPathUnits="userSpaceOnUse"
         id="clipPath17">
        <path
           d="M210.6996 130.8128 L210.6996 142.2128 L256.4337 142.2128 L256.4337 130.8128 Z"
           id="path51" />
      </clipPath>
      <clipPath
         clipPathUnits="userSpaceOnUse"
         id="clipPath18">
        <path
           d="M345.4293 91.548 L345.4293 136.6682 L697.7389 136.6682 L697.7389 91.548 Z"
           id="path54" />
      </clipPath>
      <clipPath
         clipPathUnits="userSpaceOnUse"
         id="clipPath19">
        <path
           d="M102.2112 325.6421 L102.2112 400.2632 L114.1499 400.2632 L114.1499 325.6421 Z"
           id="path57" />
      </clipPath>
      <clipPath
         clipPathUnits="userSpaceOnUse"
         id="clipPath20">
        <path
           d="M310.2105 192.1011 L310.2105 243.5673 L368.4012 243.5673 L368.4012 192.1011 Z"
           id="path60" />
      </clipPath>
      <clipPath
         clipPathUnits="userSpaceOnUse"
         id="clipPath21">
        <path
           d="M357.0011 192.1011 L357.0011 243.5673 L411.4377 243.5673 L411.4377 192.1011 Z"
           id="path63" />
      </clipPath>
      <clipPath
         clipPathUnits="userSpaceOnUse"
         id="clipPath22">
        <path
           d="M70.6691 135.1231 L70.6691 144.8001 L86.1181 144.8001 L86.1181 135.1231 Z"
           id="path66" />
      </clipPath>
      <clipPath
         clipPathUnits="userSpaceOnUse"
         id="clipPath23">
        <path
           d="M53.8341 125.9841 L53.8341 142.3951 L63.5111 142.3951 L63.5111 125.9841 Z"
           id="path69" />
      </clipPath>
      <clipPath
         clipPathUnits="userSpaceOnUse"
         id="clipPath24">
        <path
           d="M58.6441 146.6671 L58.6441 158.2682 L70.7261 158.2682 L70.7261 146.6671 Z"
           id="path72" />
      </clipPath>
      <clipPath
         clipPathUnits="userSpaceOnUse"
         id="clipPath25">
        <path
           d="M17.069 87.3192 L17.069 578.6405 L476.3075 578.6405 L476.3075 87.3192 Z"
           id="path75" />
      </clipPath>
      <clipPath
         clipPathUnits="userSpaceOnUse"
         id="clipPath26">
        <path
           d="M251.9549 66.5334 L251.9549 92.5334 L391.2741 92.5334 L391.2741 66.5334 Z"
           id="path78" />
      </clipPath>
      <clipPath
         clipPathUnits="userSpaceOnUse"
         id="clipPath27">
        <path
           d="M502.7503 112.6628 L502.7503 183.957 L675.4735 183.957 L675.4735 112.6628 Z"
           id="path81" />
      </clipPath>
      <clipPath
         clipPathUnits="userSpaceOnUse"
         id="clipPath28">
        <path
           d="M899.3775 139.5612 L899.3775 165.5612 L1092.9276 165.5612 L1092.9276 139.5612 Z"
           id="path84" />
      </clipPath>
      <clipPath
         clipPathUnits="userSpaceOnUse"
         id="clipPath29">
        <path
           d="M365.4377 242.5673 L365.4377 268.5674 L456.4377 268.5674 L456.4377 242.5673 Z"
           id="path87" />
      </clipPath>
      <clipPath
         clipPathUnits="userSpaceOnUse"
         id="clipPath30">
        <path
           d="M102.7124 472.684 L102.7124 498.684 L193.7124 498.684 L193.7124 472.684 Z"
           id="path90" />
      </clipPath>
      <clipPath
         clipPathUnits="userSpaceOnUse"
         id="clipPath31">
        <path
           d="M545.6983 180.0011 L545.6983 206.0011 L636.6983 206.0011 L636.6983 180.0011 Z"
           id="path93" />
      </clipPath>
      <clipPath
         clipPathUnits="userSpaceOnUse"
         id="clipPath32">
        <path
           d="M35.2986 180.0011 L35.2986 206.0011 L126.2986 206.0011 L126.2986 180.0011 Z"
           id="path96" />
      </clipPath>
      <clipPath
         clipPathUnits="userSpaceOnUse"
         id="clipPath33">
        <path
           d="M704.7389 79.048 L704.7389 105.048 L795.7389 105.048 L795.7389 79.048 Z"
           id="path99" />
      </clipPath>
      <clipPath
         clipPathUnits="userSpaceOnUse"
         id="clipPath34">
        <path
           d="M166.1402 81.7571 L166.1402 107.7571 L257.1402 107.7571 L257.1402 81.7571 Z"
           id="path102" />
      </clipPath>
      <clipPath
         clipPathUnits="userSpaceOnUse"
         id="clipPath35">
        <path
           d="M265.2105 242.5673 L265.2105 268.5674 L356.2105 268.5674 L356.2105 242.5673 Z"
           id="path105" />
      </clipPath>
      <clipPath
         clipPathUnits="userSpaceOnUse"
         id="clipPath36">
        <path
           d="M255.4293 123.1682 L255.4293 149.1682 L346.4293 149.1682 L346.4293 123.1682 Z"
           id="path108" />
      </clipPath>
      <clipPath
         clipPathUnits="userSpaceOnUse"
         id="clipPath37">
        <path
           d="M62.6805 399.2632 L62.6805 425.2632 L153.6805 425.2632 L153.6805 399.2632 Z"
           id="path111" />
      </clipPath>
      <clipPath
         clipPathUnits="userSpaceOnUse"
         id="clipPath38">
        <path
           d="M46.7394 293.2434 L46.7394 330.0732 L169.6217 330.0732 L169.6217 293.2434 Z"
           id="path114" />
      </clipPath>
      <clipPath
         clipPathUnits="userSpaceOnUse"
         id="clipPath39">
        <path
           d="M272.6336 472.684 L272.6336 498.684 L363.6336 498.684 L363.6336 472.684 Z"
           id="path117" />
      </clipPath>
      <clipPath
         clipPathUnits="userSpaceOnUse"
         id="clipPath40">
        <path
           d="M422.1564 472.684 L422.1564 498.684 L513.1564 498.684 L513.1564 472.684 Z"
           id="path120" />
      </clipPath>
      <clipPath
         clipPathUnits="userSpaceOnUse"
         id="clipPath41">
        <path
           d="M90.2891 129.7311 L90.2891 139.4081 L105.7381 139.4081 L105.7381 129.7311 Z"
           id="path123" />
      </clipPath>
      <clipPath
         clipPathUnits="userSpaceOnUse"
         id="clipPath42">
        <path
           d="M77.7831 148.0091 L77.7831 164.4202 L87.4601 164.4202 L87.4601 148.0091 Z"
           id="path126" />
      </clipPath>
      <clipPath
         clipPathUnits="userSpaceOnUse"
         id="clipPath43">
        <path
           d="M72.4921 121.0731 L72.4921 132.6741 L84.5741 132.6741 L84.5741 121.0731 Z"
           id="path129" />
      </clipPath>
      <clipPath
         clipPathUnits="userSpaceOnUse"
         id="clipPath44">
        <path
           d="M88.8461 145.6041 L88.8461 157.2051 L100.9281 157.2051 L100.9281 145.6041 Z"
           id="path132" />
      </clipPath>
      <clipPath
         clipPathUnits="userSpaceOnUse"
         id="clipPath45">
        <path
           d="M104.6181 147.4271 L104.6181 163.8382 L114.2951 163.8382 L114.2951 147.4271 Z"
           id="path135" />
      </clipPath>
      <clipPath
         clipPathUnits="userSpaceOnUse"
         id="clipPath46">
        <path
           d="M166.0392 180.0011 L166.0392 206.0011 L257.0392 206.0011 L257.0392 180.0011 Z"
           id="path138" />
      </clipPath>
      <clipPath
         clipPathUnits="userSpaceOnUse"
         id="clipPath47">
        <path
           d="M331.4141 530.9343 L331.4141 556.9343 L470.7333 556.9343 L470.7333 530.9343 Z"
           id="path141" />
      </clipPath>
      <clipPath
         clipPathUnits="userSpaceOnUse"
         id="clipPath48">
        <path
           d="M169.7113 399.2632 L169.7113 425.2632 L260.7113 425.2632 L260.7113 399.2632 Z"
           id="path144" />
      </clipPath>
      <clipPath
         clipPathUnits="userSpaceOnUse"
         id="clipPath49">
        <path
           d="M153.7701 293.2434 L153.7701 330.0732 L276.6524 330.0732 L276.6524 293.2434 Z"
           id="path147" />
      </clipPath>
      <clipPath
         clipPathUnits="userSpaceOnUse"
         id="clipPath50">
        <path
           d="M704.7389 54.048 L704.7389 80.048 L795.7389 80.048 L795.7389 54.048 Z"
           id="path150" />
      </clipPath>
      <clipPath
         clipPathUnits="userSpaceOnUse"
         id="clipPath51">
        <path
           d="M794.7389 29.048 L794.7389 55.048 L885.7389 55.048 L885.7389 29.048 Z"
           id="path153" />
      </clipPath>
      <clipPath
         clipPathUnits="userSpaceOnUse"
         id="clipPath52">
        <path
           d="M794.7389 54.048 L794.7389 80.048 L885.7389 80.048 L885.7389 54.048 Z"
           id="path156" />
      </clipPath>
      <clipPath
         clipPathUnits="userSpaceOnUse"
         id="clipPath53">
        <path
           d="M794.7389 79.048 L794.7389 105.048 L885.7389 105.048 L885.7389 79.048 Z"
           id="path159" />
      </clipPath>
      <clipPath
         clipPathUnits="userSpaceOnUse"
         id="clipPath54">
        <path
           d="M794.7389 104.048 L794.7389 130.048 L885.7389 130.048 L885.7389 104.048 Z"
           id="path162" />
      </clipPath>
      <clipPath
         clipPathUnits="userSpaceOnUse"
         id="clipPath55">
        <path
           d="M794.7389 129.048 L794.7389 155.048 L885.7389 155.048 L885.7389 129.048 Z"
           id="path165" />
      </clipPath>
      <clipPath
         clipPathUnits="userSpaceOnUse"
         id="clipPath56">
        <path
           d="M884.7389 29.048 L884.7389 55.048 L975.7389 55.048 L975.7389 29.048 Z"
           id="path168" />
      </clipPath>
      <clipPath
         clipPathUnits="userSpaceOnUse"
         id="clipPath57">
        <path
           d="M884.7389 54.048 L884.7389 80.048 L975.7389 80.048 L975.7389 54.048 Z"
           id="path171" />
      </clipPath>
      <clipPath
         clipPathUnits="userSpaceOnUse"
         id="clipPath58">
        <path
           d="M884.7389 79.048 L884.7389 105.048 L975.7389 105.048 L975.7389 79.048 Z"
           id="path174" />
      </clipPath>
      <clipPath
         clipPathUnits="userSpaceOnUse"
         id="clipPath59">
        <path
           d="M884.7389 104.048 L884.7389 130.048 L975.7389 130.048 L975.7389 104.048 Z"
           id="path177" />
      </clipPath>
      <clipPath
         clipPathUnits="userSpaceOnUse"
         id="clipPath60">
        <path
           d="M974.7389 29.048 L974.7389 55.048 L1065.7389 55.048 L1065.7389 29.048 Z"
           id="path180" />
      </clipPath>
      <clipPath
         clipPathUnits="userSpaceOnUse"
         id="clipPath61">
        <path
           d="M974.7389 54.048 L974.7389 80.048 L1065.7389 80.048 L1065.7389 54.048 Z"
           id="path183" />
      </clipPath>
      <clipPath
         clipPathUnits="userSpaceOnUse"
         id="clipPath62">
        <path
           d="M704.7389 29.048 L704.7389 55.048 L795.7389 55.048 L795.7389 29.048 Z"
           id="path186" />
      </clipPath>
    </defs>
    <g
       style="fill:white; stroke:white;"
       id="g192">
      <rect
         x="0"
         width="1122"
         height="602"
         y="0"
         style="stroke:none;"
         id="rect190" />
    </g>
    <g
       style="fill:silver; text-rendering:geometricPrecision; stroke:silver;"
       id="g196">
      <path
         d="M277.1251 441.7662 L277.1251 441.7662 L277.1251 441.7662 L278.6251 441.7662 L278.6251 443.2662 C278.6251 498.1094 224.4341 541.0854 159.6121 541.0854 L158.1121 541.0854 L158.1121 539.5854 L158.1121 536.5854 L159.6121 536.5854 L161.1121 536.5854 L161.1121 539.5854 L161.1121 541.0854 L159.6121 541.0854 C94.7902 541.0854 40.5992 498.1094 40.5992 443.2662 L40.5992 441.7662 L42.0992 441.7662 L45.0992 441.7662 L45.0992 443.2662 L45.0992 444.7662 L42.0992 444.7662 L40.5992 444.7662 L40.5992 443.2662 C40.5992 388.423 94.7902 345.447 159.6121 345.447 L161.1121 345.447 L161.1121 346.947 L161.1121 349.947 L159.6121 349.947 L158.1121 349.947 L158.1121 346.947 L158.1121 345.447 L159.6121 345.447 C224.4341 345.447 278.6251 388.423 278.6251 443.2662 L278.6251 444.7662 L277.1251 444.7662 L274.1251 444.7662 L274.1251 443.2662 L274.1251 441.7662 L277.1251 441.7662 L278.6251 441.7662 L278.6251 444.7662 L277.1251 444.7662 L274.1251 444.7662 L274.1251 441.7662 L277.1251 441.7662 L277.1251 443.2662 L275.6251 443.2662 C275.6251 390.6287 223.3854 348.447 159.6121 348.447 L159.6121 346.947 L161.1121 346.947 L161.1121 349.947 L158.1121 349.947 L158.1121 346.947 L159.6121 346.947 L159.6121 348.447 C95.8389 348.447 43.5992 390.6287 43.5992 443.2662 L42.0992 443.2662 L42.0992 441.7662 L45.0992 441.7662 L45.0992 444.7662 L42.0992 444.7662 L42.0992 443.2662 L43.5992 443.2662 C43.5992 495.9038 95.8389 538.0854 159.6121 538.0854 L159.6121 539.5854 L158.1121 539.5854 L158.1121 536.5854 L161.1121 536.5854 L161.1121 539.5854 L159.6121 539.5854 L159.6121 538.0854 C223.3854 538.0854 275.6251 495.9038 275.6251 443.2662 L277.1251 443.2662 L277.1251 444.7662 L277.1251 444.7662 L275.6251 444.7662 L275.6251 441.7662 ZM271.1251 441.7662 L271.1251 441.7662 L271.1251 441.7662 L271.1251 443.2662 L269.6251 443.2662 C269.6251 395.0275 221.2726 354.447 159.6121 354.447 L159.6121 352.947 L159.6121 351.447 L159.6121 351.447 L159.6121 352.947 L159.6121 354.447 C97.9517 354.447 49.5992 395.0275 49.5992 443.2662 L48.0992 443.2662 L48.0992 441.7662 L48.0992 441.7662 L49.5992 441.7662 L49.5992 443.2662 C49.5992 491.5049 97.9517 532.0854 159.6121 532.0854 L159.6121 533.5854 L159.6121 532.0854 L159.6121 532.0854 L159.6121 533.5854 L159.6121 532.0854 C221.2725 532.0854 269.6251 491.5049 269.6251 443.2662 L269.6251 441.7662 L271.1251 441.7662 M271.1251 444.7662 L271.1251 443.2662 L272.6251 443.2662 C272.6251 493.7021 222.3317 535.0854 159.6121 535.0854 L159.6121 535.0854 L159.6121 535.0854 L159.6121 535.0854 C96.8925 535.0854 46.5992 493.7021 46.5992 443.2662 L48.0992 443.2662 L48.0992 444.7662 L48.0992 444.7662 L46.5992 444.7662 L46.5992 443.2662 C46.5992 392.8304 96.8926 351.447 159.6121 351.447 L159.6121 354.447 L159.6121 354.447 L159.6121 351.447 C222.3318 351.447 272.6251 392.8304 272.6251 443.2662 L272.6251 444.7662 L271.1251 444.7662 L271.1251 444.7662 Z"
         style="clip-path:url(#clipPath2); stroke:none;"
         clip-path="url(#clipPath2)"
         id="path194" />
    </g>
    <g
       style="font-weight:bold; font-size:10; text-rendering:geometricPrecision;"
       id="g206">
      <path
         d="M0.0469 6.7031 L6.7656 6.7031 L6.7656 8.125 L4.3438 8.125 L4.3438 14 L2.4688 14 L2.4688 8.125 L0.0469 8.125 L0.0469 6.7031 ZM7.665 8.5312 L9.415 8.5312 L9.415 14 L7.665 14 L7.665 8.5312 ZM7.665 6.4062 L9.415 6.4062 L9.415 7.8281 L7.665 7.8281 L7.665 6.4062 ZM12.999 6.9844 L12.999 8.5312 L14.7959 8.5312 L14.7959 9.7812 L12.999 9.7812 L12.999 12.0938 Q12.999 12.4844 13.1475 12.6172 Q13.2959 12.75 13.749 12.75 L14.6553 12.75 L14.6553 14 L13.1553 14 Q12.1084 14 11.6787 13.5703 Q11.249 13.1406 11.249 12.0938 L11.249 9.7812 L10.374 9.7812 L10.374 8.5312 L11.249 8.5312 L11.249 6.9844 L12.999 6.9844 ZM15.873 6.4062 L17.623 6.4062 L17.623 14 L15.873 14 L15.873 6.4062 ZM24.7539 11.25 L24.7539 11.75 L20.6758 11.75 Q20.7383 12.3594 21.1133 12.6719 Q21.4883 12.9844 22.1758 12.9844 Q22.7227 12.9844 23.3086 12.8203 Q23.8945 12.6562 24.5039 12.3125 L24.5039 13.6719 Q23.8789 13.9062 23.2617 14.0234 Q22.6445 14.1406 22.0195 14.1406 Q20.5352 14.1406 19.7148 13.3828 Q18.8945 12.625 18.8945 11.2656 Q18.8945 9.9375 19.6992 9.1719 Q20.5039 8.4062 21.9258 8.4062 Q23.207 8.4062 23.9805 9.1797 Q24.7539 9.9531 24.7539 11.25 ZM22.957 10.6719 Q22.957 10.1719 22.668 9.8672 Q22.3789 9.5625 21.9102 9.5625 Q21.3945 9.5625 21.082 9.8438 Q20.7695 10.125 20.6914 10.6719 L22.957 10.6719 ZM26.3643 8.5312 L28.1143 8.5312 L28.1143 10.4219 L26.3643 10.4219 L26.3643 8.5312 ZM26.3643 12.1094 L28.1143 12.1094 L28.1143 14 L26.3643 14 L26.3643 12.1094 Z"
         style="clip-path:url(#clipPath3); stroke:none;"
         clip-path="url(#clipPath3)"
         id="path198" />
      <path
         d="M38.9844 6.7031 L39.9688 6.7031 L39.9688 13.1719 L43.5156 13.1719 L43.5156 14 L38.9844 14 L38.9844 6.7031 ZM44.5088 8.5312 L45.415 8.5312 L45.415 14 L44.5088 14 L44.5088 8.5312 ZM44.5088 6.4062 L45.415 6.4062 L45.415 7.5469 L44.5088 7.5469 L44.5088 6.4062 ZM48.1621 13.1719 L48.1621 16.0781 L47.2559 16.0781 L47.2559 8.5312 L48.1621 8.5312 L48.1621 9.3594 Q48.4434 8.875 48.873 8.6406 Q49.3027 8.4062 49.9121 8.4062 Q50.9121 8.4062 51.5293 9.1953 Q52.1465 9.9844 52.1465 11.2656 Q52.1465 12.5625 51.5293 13.3516 Q50.9121 14.1406 49.9121 14.1406 Q49.3027 14.1406 48.873 13.9062 Q48.4434 13.6719 48.1621 13.1719 ZM51.2246 11.2656 Q51.2246 10.2812 50.8105 9.7188 Q50.3965 9.1562 49.6934 9.1562 Q48.9746 9.1562 48.5684 9.7188 Q48.1621 10.2812 48.1621 11.2656 Q48.1621 12.2656 48.5684 12.8281 Q48.9746 13.3906 49.6934 13.3906 Q50.3965 13.3906 50.8105 12.8281 Q51.2246 12.2656 51.2246 11.2656 ZM53.6348 8.5312 L54.541 8.5312 L54.541 14 L53.6348 14 L53.6348 8.5312 ZM53.6348 6.4062 L54.541 6.4062 L54.541 7.5469 L53.6348 7.5469 L53.6348 6.4062 ZM60.0225 9.3594 L60.0225 6.4062 L60.9131 6.4062 L60.9131 14 L60.0225 14 L60.0225 13.1719 Q59.7412 13.6719 59.3037 13.9062 Q58.8662 14.1406 58.2568 14.1406 Q57.2725 14.1406 56.6475 13.3516 Q56.0225 12.5625 56.0225 11.2656 Q56.0225 9.9844 56.6475 9.1953 Q57.2725 8.4062 58.2568 8.4062 Q58.8662 8.4062 59.3037 8.6406 Q59.7412 8.875 60.0225 9.3594 ZM56.96 11.2656 Q56.96 12.2656 57.3662 12.8281 Q57.7725 13.3906 58.4912 13.3906 Q59.1943 13.3906 59.6084 12.8281 Q60.0225 12.2656 60.0225 11.2656 Q60.0225 10.2812 59.6084 9.7188 Q59.1943 9.1562 58.4912 9.1562 Q57.7725 9.1562 57.3662 9.7188 Q56.96 10.2812 56.96 11.2656 ZM70.2051 9.5781 Q70.5332 8.9688 71.002 8.6875 Q71.4707 8.4062 72.1113 8.4062 Q72.9707 8.4062 73.4316 9 Q73.8926 9.5938 73.8926 10.7031 L73.8926 14 L72.9863 14 L72.9863 10.7344 Q72.9863 9.9375 72.7129 9.5625 Q72.4395 9.1875 71.8613 9.1875 Q71.1582 9.1875 70.7598 9.6484 Q70.3613 10.1094 70.3613 10.9062 L70.3613 14 L69.4551 14 L69.4551 10.7344 Q69.4551 9.9375 69.1738 9.5625 Q68.8926 9.1875 68.3145 9.1875 Q67.627 9.1875 67.2207 9.6484 Q66.8145 10.1094 66.8145 10.9062 L66.8145 14 L65.9082 14 L65.9082 8.5312 L66.8145 8.5312 L66.8145 9.375 Q67.127 8.875 67.5566 8.6406 Q67.9863 8.4062 68.5645 8.4062 Q69.1738 8.4062 69.5879 8.7031 Q70.002 9 70.2051 9.5781 ZM80.3682 11.0469 L80.3682 11.4844 L76.2275 11.4844 Q76.29 12.4062 76.79 12.8906 Q77.29 13.375 78.1807 13.375 Q78.6963 13.375 79.1885 13.25 Q79.6807 13.125 80.1494 12.875 L80.1494 13.7188 Q79.665 13.9219 79.1572 14.0312 Q78.6494 14.1406 78.1338 14.1406 Q76.8213 14.1406 76.0557 13.3828 Q75.29 12.625 75.29 11.3125 Q75.29 9.9688 76.0166 9.1875 Q76.7432 8.4062 77.9775 8.4062 Q79.0869 8.4062 79.7275 9.1094 Q80.3682 9.8125 80.3682 11.0469 ZM79.4619 10.7812 Q79.4619 10.0469 79.0557 9.6016 Q78.6494 9.1562 77.9932 9.1562 Q77.2275 9.1562 76.7822 9.5859 Q76.3369 10.0156 76.2588 10.7812 L79.4619 10.7812 ZM82.7236 6.9844 L82.7236 8.5312 L84.583 8.5312 L84.583 9.2344 L82.7236 9.2344 L82.7236 12.2031 Q82.7236 12.8594 82.9111 13.0547 Q83.0986 13.25 83.6611 13.25 L84.583 13.25 L84.583 14 L83.6611 14 Q82.6143 14 82.2158 13.6094 Q81.8174 13.2188 81.8174 12.2031 L81.8174 9.2344 L81.1611 9.2344 L81.1611 8.5312 L81.8174 8.5312 L81.8174 6.9844 L82.7236 6.9844 ZM88.2383 11.25 Q87.1602 11.25 86.7383 11.5 Q86.3164 11.75 86.3164 12.3438 Q86.3164 12.8281 86.6289 13.1094 Q86.9414 13.3906 87.4883 13.3906 Q88.2383 13.3906 88.6914 12.8594 Q89.1445 12.3281 89.1445 11.4531 L89.1445 11.25 L88.2383 11.25 ZM90.0352 10.875 L90.0352 14 L89.1445 14 L89.1445 13.1719 Q88.832 13.6719 88.3711 13.9062 Q87.9102 14.1406 87.2539 14.1406 Q86.4102 14.1406 85.9102 13.6719 Q85.4102 13.2031 85.4102 12.4062 Q85.4102 11.4844 86.0352 11.0156 Q86.6602 10.5469 87.8789 10.5469 L89.1445 10.5469 L89.1445 10.4531 Q89.1445 9.8438 88.7305 9.5 Q88.3164 9.1562 87.582 9.1562 Q87.1133 9.1562 86.668 9.2734 Q86.2227 9.3906 85.8164 9.6094 L85.8164 8.7812 Q86.3164 8.5938 86.7773 8.5 Q87.2383 8.4062 87.6758 8.4062 Q88.8633 8.4062 89.4492 9.0156 Q90.0352 9.625 90.0352 10.875 ZM95.8193 11.2656 Q95.8193 10.2812 95.4053 9.7188 Q94.9912 9.1562 94.2881 9.1562 Q93.5693 9.1562 93.1631 9.7188 Q92.7568 10.2812 92.7568 11.2656 Q92.7568 12.2656 93.1631 12.8281 Q93.5693 13.3906 94.2881 13.3906 Q94.9912 13.3906 95.4053 12.8281 Q95.8193 12.2656 95.8193 11.2656 ZM92.7568 9.3594 Q93.0381 8.875 93.4678 8.6406 Q93.8975 8.4062 94.5068 8.4062 Q95.5068 8.4062 96.124 9.1953 Q96.7412 9.9844 96.7412 11.2656 Q96.7412 12.5625 96.124 13.3516 Q95.5068 14.1406 94.5068 14.1406 Q93.8975 14.1406 93.4678 13.9062 Q93.0381 13.6719 92.7568 13.1719 L92.7568 14 L91.8506 14 L91.8506 6.4062 L92.7568 6.4062 L92.7568 9.3594 ZM100.3545 9.1562 Q99.6357 9.1562 99.2139 9.7188 Q98.792 10.2812 98.792 11.2656 Q98.792 12.25 99.2061 12.8125 Q99.6201 13.375 100.3545 13.375 Q101.0732 13.375 101.4951 12.8125 Q101.917 12.25 101.917 11.2656 Q101.917 10.2969 101.4951 9.7266 Q101.0732 9.1562 100.3545 9.1562 ZM100.3545 8.4062 Q101.5264 8.4062 102.1982 9.1641 Q102.8701 9.9219 102.8701 11.2656 Q102.8701 12.6094 102.1982 13.375 Q101.5264 14.1406 100.3545 14.1406 Q99.1826 14.1406 98.5107 13.375 Q97.8389 12.6094 97.8389 11.2656 Q97.8389 9.9219 98.5107 9.1641 Q99.1826 8.4062 100.3545 8.4062 ZM104.3477 6.4062 L105.2539 6.4062 L105.2539 14 L104.3477 14 L104.3477 6.4062 ZM107.126 8.5312 L108.0322 8.5312 L108.0322 14 L107.126 14 L107.126 8.5312 ZM107.126 6.4062 L108.0322 6.4062 L108.0322 7.5469 L107.126 7.5469 L107.126 6.4062 ZM113.3887 8.6875 L113.3887 9.5469 Q113.0137 9.3438 112.6074 9.25 Q112.2012 9.1562 111.748 9.1562 Q111.0918 9.1562 110.7559 9.3594 Q110.4199 9.5625 110.4199 9.9688 Q110.4199 10.2812 110.6543 10.4609 Q110.8887 10.6406 111.623 10.7969 L111.9199 10.875 Q112.8887 11.0781 113.2871 11.4531 Q113.6855 11.8281 113.6855 12.4844 Q113.6855 13.25 113.084 13.6953 Q112.4824 14.1406 111.4355 14.1406 Q110.9824 14.1406 110.5059 14.0547 Q110.0293 13.9688 109.5137 13.7969 L109.5137 12.875 Q110.0137 13.125 110.4902 13.2578 Q110.9668 13.3906 111.4512 13.3906 Q112.0762 13.3906 112.4199 13.1719 Q112.7637 12.9531 112.7637 12.5625 Q112.7637 12.1875 112.5215 11.9922 Q112.2793 11.7969 111.4355 11.625 L111.123 11.5469 Q110.2949 11.375 109.9199 11.0078 Q109.5449 10.6406 109.5449 10.0156 Q109.5449 9.2344 110.0918 8.8203 Q110.6387 8.4062 111.6543 8.4062 Q112.1387 8.4062 112.584 8.4766 Q113.0293 8.5469 113.3887 8.6875 ZM119.3799 9.5781 Q119.708 8.9688 120.1768 8.6875 Q120.6455 8.4062 121.2861 8.4062 Q122.1455 8.4062 122.6064 9 Q123.0674 9.5938 123.0674 10.7031 L123.0674 14 L122.1611 14 L122.1611 10.7344 Q122.1611 9.9375 121.8877 9.5625 Q121.6143 9.1875 121.0361 9.1875 Q120.333 9.1875 119.9346 9.6484 Q119.5361 10.1094 119.5361 10.9062 L119.5361 14 L118.6299 14 L118.6299 10.7344 Q118.6299 9.9375 118.3486 9.5625 Q118.0674 9.1875 117.4893 9.1875 Q116.8018 9.1875 116.3955 9.6484 Q115.9893 10.1094 115.9893 10.9062 L115.9893 14 L115.083 14 L115.083 8.5312 L115.9893 8.5312 L115.9893 9.375 Q116.3018 8.875 116.7314 8.6406 Q117.1611 8.4062 117.7393 8.4062 Q118.3486 8.4062 118.7627 8.7031 Q119.1768 9 119.3799 9.5781 ZM128.0342 8.5312 L128.9404 8.5312 L128.9404 14 L128.0342 14 L128.0342 8.5312 ZM128.0342 6.4062 L128.9404 6.4062 L128.9404 7.5469 L128.0342 7.5469 L128.0342 6.4062 ZM135.3594 10.7031 L135.3594 14 L134.4688 14 L134.4688 10.7344 Q134.4688 9.9531 134.1641 9.5703 Q133.8594 9.1875 133.25 9.1875 Q132.5312 9.1875 132.1094 9.6484 Q131.6875 10.1094 131.6875 10.9062 L131.6875 14 L130.7812 14 L130.7812 8.5312 L131.6875 8.5312 L131.6875 9.375 Q132.0156 8.8906 132.4531 8.6484 Q132.8906 8.4062 133.4531 8.4062 Q134.3906 8.4062 134.875 8.9844 Q135.3594 9.5625 135.3594 10.7031 ZM143.8135 8.6875 L143.8135 9.5469 Q143.4385 9.3438 143.0322 9.25 Q142.626 9.1562 142.1729 9.1562 Q141.5166 9.1562 141.1807 9.3594 Q140.8447 9.5625 140.8447 9.9688 Q140.8447 10.2812 141.0791 10.4609 Q141.3135 10.6406 142.0479 10.7969 L142.3447 10.875 Q143.3135 11.0781 143.7119 11.4531 Q144.1104 11.8281 144.1104 12.4844 Q144.1104 13.25 143.5088 13.6953 Q142.9072 14.1406 141.8604 14.1406 Q141.4072 14.1406 140.9307 14.0547 Q140.4541 13.9688 139.9385 13.7969 L139.9385 12.875 Q140.4385 13.125 140.915 13.2578 Q141.3916 13.3906 141.876 13.3906 Q142.501 13.3906 142.8447 13.1719 Q143.1885 12.9531 143.1885 12.5625 Q143.1885 12.1875 142.9463 11.9922 Q142.7041 11.7969 141.8604 11.625 L141.5479 11.5469 Q140.7197 11.375 140.3447 11.0078 Q139.9697 10.6406 139.9697 10.0156 Q139.9697 9.2344 140.5166 8.8203 Q141.0635 8.4062 142.0791 8.4062 Q142.5635 8.4062 143.0088 8.4766 Q143.4541 8.5469 143.8135 8.6875 ZM150.2266 11.0469 L150.2266 11.4844 L146.0859 11.4844 Q146.1484 12.4062 146.6484 12.8906 Q147.1484 13.375 148.0391 13.375 Q148.5547 13.375 149.0469 13.25 Q149.5391 13.125 150.0078 12.875 L150.0078 13.7188 Q149.5234 13.9219 149.0156 14.0312 Q148.5078 14.1406 147.9922 14.1406 Q146.6797 14.1406 145.9141 13.3828 Q145.1484 12.625 145.1484 11.3125 Q145.1484 9.9688 145.875 9.1875 Q146.6016 8.4062 147.8359 8.4062 Q148.9453 8.4062 149.5859 9.1094 Q150.2266 9.8125 150.2266 11.0469 ZM149.3203 10.7812 Q149.3203 10.0469 148.9141 9.6016 Q148.5078 9.1562 147.8516 9.1562 Q147.0859 9.1562 146.6406 9.5859 Q146.1953 10.0156 146.1172 10.7812 L149.3203 10.7812 ZM156.2383 10.7031 L156.2383 14 L155.3477 14 L155.3477 10.7344 Q155.3477 9.9531 155.043 9.5703 Q154.7383 9.1875 154.1289 9.1875 Q153.4102 9.1875 152.9883 9.6484 Q152.5664 10.1094 152.5664 10.9062 L152.5664 14 L151.6602 14 L151.6602 8.5312 L152.5664 8.5312 L152.5664 9.375 Q152.8945 8.8906 153.332 8.6484 Q153.7695 8.4062 154.332 8.4062 Q155.2695 8.4062 155.7539 8.9844 Q156.2383 9.5625 156.2383 10.7031 ZM162.7168 11.0469 L162.7168 11.4844 L158.5762 11.4844 Q158.6387 12.4062 159.1387 12.8906 Q159.6387 13.375 160.5293 13.375 Q161.0449 13.375 161.5371 13.25 Q162.0293 13.125 162.498 12.875 L162.498 13.7188 Q162.0137 13.9219 161.5059 14.0312 Q160.998 14.1406 160.4824 14.1406 Q159.1699 14.1406 158.4043 13.3828 Q157.6387 12.625 157.6387 11.3125 Q157.6387 9.9688 158.3652 9.1875 Q159.0918 8.4062 160.3262 8.4062 Q161.4355 8.4062 162.0762 9.1094 Q162.7168 9.8125 162.7168 11.0469 ZM161.8105 10.7812 Q161.8105 10.0469 161.4043 9.6016 Q160.998 9.1562 160.3418 9.1562 Q159.5762 9.1562 159.1309 9.5859 Q158.6855 10.0156 158.6074 10.7812 L161.8105 10.7812 ZM167.666 8.6875 L167.666 9.5469 Q167.291 9.3438 166.8848 9.25 Q166.4785 9.1562 166.0254 9.1562 Q165.3691 9.1562 165.0332 9.3594 Q164.6973 9.5625 164.6973 9.9688 Q164.6973 10.2812 164.9316 10.4609 Q165.166 10.6406 165.9004 10.7969 L166.1973 10.875 Q167.166 11.0781 167.5645 11.4531 Q167.9629 11.8281 167.9629 12.4844 Q167.9629 13.25 167.3613 13.6953 Q166.7598 14.1406 165.7129 14.1406 Q165.2598 14.1406 164.7832 14.0547 Q164.3066 13.9688 163.791 13.7969 L163.791 12.875 Q164.291 13.125 164.7676 13.2578 Q165.2441 13.3906 165.7285 13.3906 Q166.3535 13.3906 166.6973 13.1719 Q167.041 12.9531 167.041 12.5625 Q167.041 12.1875 166.7988 11.9922 Q166.5566 11.7969 165.7129 11.625 L165.4004 11.5469 Q164.5723 11.375 164.1973 11.0078 Q163.8223 10.6406 163.8223 10.0156 Q163.8223 9.2344 164.3691 8.8203 Q164.916 8.4062 165.9316 8.4062 Q166.416 8.4062 166.8613 8.4766 Q167.3066 8.5469 167.666 8.6875 ZM173.3291 8.7344 L173.3291 9.5781 Q172.9541 9.375 172.5713 9.2656 Q172.1885 9.1562 171.7979 9.1562 Q170.9229 9.1562 170.4385 9.7109 Q169.9541 10.2656 169.9541 11.2656 Q169.9541 12.2656 170.4385 12.8203 Q170.9229 13.375 171.7979 13.375 Q172.1885 13.375 172.5713 13.2734 Q172.9541 13.1719 173.3291 12.9531 L173.3291 13.7969 Q172.9541 13.9688 172.5557 14.0547 Q172.1572 14.1406 171.7041 14.1406 Q170.4541 14.1406 169.7275 13.3672 Q169.001 12.5938 169.001 11.2656 Q169.001 9.9375 169.7354 9.1719 Q170.4697 8.4062 171.751 8.4062 Q172.1729 8.4062 172.5635 8.4844 Q172.9541 8.5625 173.3291 8.7344 ZM179.5771 11.0469 L179.5771 11.4844 L175.4365 11.4844 Q175.499 12.4062 175.999 12.8906 Q176.499 13.375 177.3896 13.375 Q177.9053 13.375 178.3975 13.25 Q178.8896 13.125 179.3584 12.875 L179.3584 13.7188 Q178.874 13.9219 178.3662 14.0312 Q177.8584 14.1406 177.3428 14.1406 Q176.0303 14.1406 175.2646 13.3828 Q174.499 12.625 174.499 11.3125 Q174.499 9.9688 175.2256 9.1875 Q175.9521 8.4062 177.1865 8.4062 Q178.2959 8.4062 178.9365 9.1094 Q179.5771 9.8125 179.5771 11.0469 ZM178.6709 10.7812 Q178.6709 10.0469 178.2646 9.6016 Q177.8584 9.1562 177.2021 9.1562 Q176.4365 9.1562 175.9912 9.5859 Q175.5459 10.0156 175.4678 10.7812 L178.6709 10.7812 ZM185.5889 10.7031 L185.5889 14 L184.6982 14 L184.6982 10.7344 Q184.6982 9.9531 184.3936 9.5703 Q184.0889 9.1875 183.4795 9.1875 Q182.7607 9.1875 182.3389 9.6484 Q181.917 10.1094 181.917 10.9062 L181.917 14 L181.0107 14 L181.0107 8.5312 L181.917 8.5312 L181.917 9.375 Q182.2451 8.8906 182.6826 8.6484 Q183.1201 8.4062 183.6826 8.4062 Q184.6201 8.4062 185.1045 8.9844 Q185.5889 9.5625 185.5889 10.7031 ZM188.2705 6.9844 L188.2705 8.5312 L190.1299 8.5312 L190.1299 9.2344 L188.2705 9.2344 L188.2705 12.2031 Q188.2705 12.8594 188.458 13.0547 Q188.6455 13.25 189.208 13.25 L190.1299 13.25 L190.1299 14 L189.208 14 Q188.1611 14 187.7627 13.6094 Q187.3643 13.2188 187.3643 12.2031 L187.3643 9.2344 L186.708 9.2344 L186.708 8.5312 L187.3643 8.5312 L187.3643 6.9844 L188.2705 6.9844 ZM198.417 8.7344 L198.417 9.5781 Q198.042 9.375 197.6592 9.2656 Q197.2764 9.1562 196.8857 9.1562 Q196.0107 9.1562 195.5264 9.7109 Q195.042 10.2656 195.042 11.2656 Q195.042 12.2656 195.5264 12.8203 Q196.0107 13.375 196.8857 13.375 Q197.2764 13.375 197.6592 13.2734 Q198.042 13.1719 198.417 12.9531 L198.417 13.7969 Q198.042 13.9688 197.6436 14.0547 Q197.2451 14.1406 196.792 14.1406 Q195.542 14.1406 194.8154 13.3672 Q194.0889 12.5938 194.0889 11.2656 Q194.0889 9.9375 194.8232 9.1719 Q195.5576 8.4062 196.8389 8.4062 Q197.2607 8.4062 197.6514 8.4844 Q198.042 8.5625 198.417 8.7344 ZM204.665 11.0469 L204.665 11.4844 L200.5244 11.4844 Q200.5869 12.4062 201.0869 12.8906 Q201.5869 13.375 202.4775 13.375 Q202.9932 13.375 203.4854 13.25 Q203.9775 13.125 204.4463 12.875 L204.4463 13.7188 Q203.9619 13.9219 203.4541 14.0312 Q202.9463 14.1406 202.4307 14.1406 Q201.1182 14.1406 200.3525 13.3828 Q199.5869 12.625 199.5869 11.3125 Q199.5869 9.9688 200.3135 9.1875 Q201.04 8.4062 202.2744 8.4062 Q203.3838 8.4062 204.0244 9.1094 Q204.665 9.8125 204.665 11.0469 ZM203.7588 10.7812 Q203.7588 10.0469 203.3525 9.6016 Q202.9463 9.1562 202.29 9.1562 Q201.5244 9.1562 201.0791 9.5859 Q200.6338 10.0156 200.5557 10.7812 L203.7588 10.7812 ZM206.1299 6.4062 L207.0361 6.4062 L207.0361 14 L206.1299 14 L206.1299 6.4062 ZM208.9082 6.4062 L209.8145 6.4062 L209.8145 14 L208.9082 14 L208.9082 6.4062 ZM215.1709 8.6875 L215.1709 9.5469 Q214.7959 9.3438 214.3896 9.25 Q213.9834 9.1562 213.5303 9.1562 Q212.874 9.1562 212.5381 9.3594 Q212.2021 9.5625 212.2021 9.9688 Q212.2021 10.2812 212.4365 10.4609 Q212.6709 10.6406 213.4053 10.7969 L213.7021 10.875 Q214.6709 11.0781 215.0693 11.4531 Q215.4678 11.8281 215.4678 12.4844 Q215.4678 13.25 214.8662 13.6953 Q214.2646 14.1406 213.2178 14.1406 Q212.7646 14.1406 212.2881 14.0547 Q211.8115 13.9688 211.2959 13.7969 L211.2959 12.875 Q211.7959 13.125 212.2725 13.2578 Q212.749 13.3906 213.2334 13.3906 Q213.8584 13.3906 214.2021 13.1719 Q214.5459 12.9531 214.5459 12.5625 Q214.5459 12.1875 214.3037 11.9922 Q214.0615 11.7969 213.2178 11.625 L212.9053 11.5469 Q212.0771 11.375 211.7021 11.0078 Q211.3271 10.6406 211.3271 10.0156 Q211.3271 9.2344 211.874 8.8203 Q212.4209 8.4062 213.4365 8.4062 Q213.9209 8.4062 214.3662 8.4766 Q214.8115 8.5469 215.1709 8.6875 Z"
         style="clip-path:url(#clipPath3); stroke:none;"
         clip-path="url(#clipPath3)"
         id="path200" />
      <path
         d="M4.25 21.9375 Q3.3906 21.9375 2.9141 22.5703 Q2.4375 23.2031 2.4375 24.3594 Q2.4375 25.5156 2.9141 26.1484 Q3.3906 26.7812 4.25 26.7812 Q5.1094 26.7812 5.5859 26.1484 Q6.0625 25.5156 6.0625 24.3594 Q6.0625 23.2031 5.5859 22.5703 Q5.1094 21.9375 4.25 21.9375 ZM4.25 20.5781 Q6 20.5781 7 21.5859 Q8 22.5938 8 24.3594 Q8 26.125 7 27.1328 Q6 28.1406 4.25 28.1406 Q2.5 28.1406 1.5 27.1328 Q0.5 26.125 0.5 24.3594 Q0.5 22.5938 1.5 21.5859 Q2.5 20.5781 4.25 20.5781 ZM13.4072 24.0156 Q13.1729 23.9062 12.9463 23.8594 Q12.7197 23.8125 12.4854 23.8125 Q11.8135 23.8125 11.4541 24.2422 Q11.0947 24.6719 11.0947 25.4844 L11.0947 28 L9.3447 28 L9.3447 22.5312 L11.0947 22.5312 L11.0947 23.4219 Q11.4229 22.8906 11.8604 22.6484 Q12.2979 22.4062 12.9072 22.4062 Q13.001 22.4062 13.1025 22.4062 Q13.2041 22.4062 13.3916 22.4375 L13.4072 24.0156 ZM17.9951 27.0781 Q17.6357 27.5469 17.1982 27.7734 Q16.7607 28 16.1982 28 Q15.1982 28 14.542 27.2109 Q13.8857 26.4219 13.8857 25.2031 Q13.8857 23.9688 14.542 23.1875 Q15.1982 22.4062 16.1982 22.4062 Q16.7607 22.4062 17.1982 22.6328 Q17.6357 22.8594 17.9951 23.3438 L17.9951 22.5312 L19.7451 22.5312 L19.7451 27.4531 Q19.7451 28.7656 18.917 29.4609 Q18.0889 30.1562 16.5107 30.1562 Q15.9951 30.1562 15.5186 30.0781 Q15.042 30 14.5576 29.8438 L14.5576 28.4844 Q15.0107 28.75 15.4482 28.875 Q15.8857 29 16.3389 29 Q17.1982 29 17.5967 28.625 Q17.9951 28.25 17.9951 27.4531 L17.9951 27.0781 ZM16.8389 23.6719 Q16.292 23.6719 15.9951 24.0703 Q15.6982 24.4688 15.6982 25.2031 Q15.6982 25.9531 15.9873 26.3438 Q16.2764 26.7344 16.8389 26.7344 Q17.3857 26.7344 17.6904 26.3281 Q17.9951 25.9219 17.9951 25.2031 Q17.9951 24.4688 17.6904 24.0703 Q17.3857 23.6719 16.8389 23.6719 ZM23.8877 25.5312 Q23.3408 25.5312 23.0596 25.7188 Q22.7783 25.9062 22.7783 26.2656 Q22.7783 26.6094 23.0049 26.7969 Q23.2314 26.9844 23.6221 26.9844 Q24.1221 26.9844 24.458 26.625 Q24.7939 26.2656 24.7939 25.7344 L24.7939 25.5312 L23.8877 25.5312 ZM26.5596 24.875 L26.5596 28 L24.7939 28 L24.7939 27.1875 Q24.4346 27.6875 23.9971 27.9141 Q23.5596 28.1406 22.9346 28.1406 Q22.0752 28.1406 21.5518 27.6484 Q21.0283 27.1562 21.0283 26.3594 Q21.0283 25.3906 21.6846 24.9453 Q22.3408 24.5 23.7627 24.5 L24.7939 24.5 L24.7939 24.3594 Q24.7939 23.9531 24.4658 23.7578 Q24.1377 23.5625 23.4502 23.5625 Q22.8877 23.5625 22.4033 23.6719 Q21.9189 23.7812 21.4971 24.0156 L21.4971 22.6719 Q22.0596 22.5469 22.6299 22.4766 Q23.2002 22.4062 23.7627 22.4062 Q25.2471 22.4062 25.9033 22.9844 Q26.5596 23.5625 26.5596 24.875 ZM33.6826 24.6719 L33.6826 28 L31.917 28 L31.917 27.4531 L31.917 25.4531 Q31.917 24.75 31.8857 24.4766 Q31.8545 24.2031 31.7764 24.0781 Q31.6826 23.9062 31.5029 23.8125 Q31.3232 23.7188 31.1045 23.7188 Q30.5576 23.7188 30.2451 24.1406 Q29.9326 24.5625 29.9326 25.3125 L29.9326 28 L28.1826 28 L28.1826 22.5312 L29.9326 22.5312 L29.9326 23.3281 Q30.3232 22.8594 30.7686 22.6328 Q31.2139 22.4062 31.7451 22.4062 Q32.6982 22.4062 33.1904 22.9844 Q33.6826 23.5625 33.6826 24.6719 ZM35.3018 22.5312 L37.0518 22.5312 L37.0518 28 L35.3018 28 L35.3018 22.5312 ZM35.3018 20.4062 L37.0518 20.4062 L37.0518 21.8281 L35.3018 21.8281 L35.3018 20.4062 ZM42.9951 22.7031 L42.9951 24.0312 Q42.4326 23.7969 41.9092 23.6797 Q41.3857 23.5625 40.9326 23.5625 Q40.4326 23.5625 40.1904 23.6875 Q39.9482 23.8125 39.9482 24.0625 Q39.9482 24.2812 40.1279 24.3906 Q40.3076 24.5 40.792 24.5625 L41.0889 24.5938 Q42.4326 24.7656 42.9014 25.1562 Q43.3701 25.5469 43.3701 26.3906 Q43.3701 27.2656 42.7217 27.7031 Q42.0732 28.1406 40.792 28.1406 Q40.2607 28.1406 39.6826 28.0547 Q39.1045 27.9688 38.4795 27.7969 L38.4795 26.4688 Q39.0107 26.7188 39.5576 26.8516 Q40.1045 26.9844 40.667 26.9844 Q41.1826 26.9844 41.4404 26.8438 Q41.6982 26.7031 41.6982 26.4219 Q41.6982 26.1875 41.5264 26.0703 Q41.3545 25.9531 40.8232 25.8906 L40.5107 25.8438 Q39.3389 25.7031 38.8701 25.3047 Q38.4014 24.9062 38.4014 24.1094 Q38.4014 23.2344 38.9951 22.8203 Q39.5889 22.4062 40.8232 22.4062 Q41.3076 22.4062 41.8389 22.4766 Q42.3701 22.5469 42.9951 22.7031 ZM49.7441 23.4375 Q50.0723 22.9375 50.5332 22.6719 Q50.9941 22.4062 51.541 22.4062 Q52.4785 22.4062 52.9707 22.9844 Q53.4629 23.5625 53.4629 24.6719 L53.4629 28 L51.7129 28 L51.7129 25.1406 Q51.7129 25.0781 51.7129 25.0156 Q51.7129 24.9531 51.7129 24.8281 Q51.7129 24.2344 51.5488 23.9766 Q51.3848 23.7188 50.9941 23.7188 Q50.4941 23.7188 50.2285 24.125 Q49.9629 24.5312 49.9473 25.3125 L49.9473 28 L48.1816 28 L48.1816 25.1406 Q48.1816 24.2344 48.0254 23.9766 Q47.8691 23.7188 47.4785 23.7188 Q46.9785 23.7188 46.7051 24.1328 Q46.4316 24.5469 46.4316 25.3125 L46.4316 28 L44.666 28 L44.666 22.5312 L46.4316 22.5312 L46.4316 23.3281 Q46.7441 22.875 47.166 22.6406 Q47.5879 22.4062 48.0879 22.4062 Q48.6504 22.4062 49.0879 22.6797 Q49.5254 22.9531 49.7441 23.4375 ZM55.3828 22.5312 L57.1328 22.5312 L57.1328 24.4219 L55.3828 24.4219 L55.3828 22.5312 ZM55.3828 26.1094 L57.1328 26.1094 L57.1328 28 L55.3828 28 L55.3828 26.1094 Z"
         style="clip-path:url(#clipPath3); stroke:none;"
         clip-path="url(#clipPath3)"
         id="path202" />
      <path
         d="M66.9844 20.7031 L67.9688 20.7031 L67.9688 23.7031 L71.5469 23.7031 L71.5469 20.7031 L72.5312 20.7031 L72.5312 28 L71.5469 28 L71.5469 24.5312 L67.9688 24.5312 L67.9688 28 L66.9844 28 L66.9844 20.7031 ZM76.582 23.1562 Q75.8633 23.1562 75.4414 23.7188 Q75.0195 24.2812 75.0195 25.2656 Q75.0195 26.25 75.4336 26.8125 Q75.8477 27.375 76.582 27.375 Q77.3008 27.375 77.7227 26.8125 Q78.1445 26.25 78.1445 25.2656 Q78.1445 24.2969 77.7227 23.7266 Q77.3008 23.1562 76.582 23.1562 ZM76.582 22.4062 Q77.7539 22.4062 78.4258 23.1641 Q79.0977 23.9219 79.0977 25.2656 Q79.0977 26.6094 78.4258 27.375 Q77.7539 28.1406 76.582 28.1406 Q75.4102 28.1406 74.7383 27.375 Q74.0664 26.6094 74.0664 25.2656 Q74.0664 23.9219 74.7383 23.1641 Q75.4102 22.4062 76.582 22.4062 ZM84.8408 23.5781 Q85.1689 22.9688 85.6377 22.6875 Q86.1064 22.4062 86.7471 22.4062 Q87.6064 22.4062 88.0674 23 Q88.5283 23.5938 88.5283 24.7031 L88.5283 28 L87.6221 28 L87.6221 24.7344 Q87.6221 23.9375 87.3486 23.5625 Q87.0752 23.1875 86.4971 23.1875 Q85.7939 23.1875 85.3955 23.6484 Q84.9971 24.1094 84.9971 24.9062 L84.9971 28 L84.0908 28 L84.0908 24.7344 Q84.0908 23.9375 83.8096 23.5625 Q83.5283 23.1875 82.9502 23.1875 Q82.2627 23.1875 81.8564 23.6484 Q81.4502 24.1094 81.4502 24.9062 L81.4502 28 L80.5439 28 L80.5439 22.5312 L81.4502 22.5312 L81.4502 23.375 Q81.7627 22.875 82.1924 22.6406 Q82.6221 22.4062 83.2002 22.4062 Q83.8096 22.4062 84.2236 22.7031 Q84.6377 23 84.8408 23.5781 ZM92.4414 23.1562 Q91.7227 23.1562 91.3008 23.7188 Q90.8789 24.2812 90.8789 25.2656 Q90.8789 26.25 91.293 26.8125 Q91.707 27.375 92.4414 27.375 Q93.1602 27.375 93.582 26.8125 Q94.0039 26.25 94.0039 25.2656 Q94.0039 24.2969 93.582 23.7266 Q93.1602 23.1562 92.4414 23.1562 ZM92.4414 22.4062 Q93.6133 22.4062 94.2852 23.1641 Q94.957 23.9219 94.957 25.2656 Q94.957 26.6094 94.2852 27.375 Q93.6133 28.1406 92.4414 28.1406 Q91.2695 28.1406 90.5977 27.375 Q89.9258 26.6094 89.9258 25.2656 Q89.9258 23.9219 90.5977 23.1641 Q91.2695 22.4062 92.4414 22.4062 ZM103.0977 22.6875 L103.0977 23.5469 Q102.7227 23.3438 102.3164 23.25 Q101.9102 23.1562 101.457 23.1562 Q100.8008 23.1562 100.4648 23.3594 Q100.1289 23.5625 100.1289 23.9688 Q100.1289 24.2812 100.3633 24.4609 Q100.5977 24.6406 101.332 24.7969 L101.6289 24.875 Q102.5977 25.0781 102.9961 25.4531 Q103.3945 25.8281 103.3945 26.4844 Q103.3945 27.25 102.793 27.6953 Q102.1914 28.1406 101.1445 28.1406 Q100.6914 28.1406 100.2148 28.0547 Q99.7383 27.9688 99.2227 27.7969 L99.2227 26.875 Q99.7227 27.125 100.1992 27.2578 Q100.6758 27.3906 101.1602 27.3906 Q101.7852 27.3906 102.1289 27.1719 Q102.4727 26.9531 102.4727 26.5625 Q102.4727 26.1875 102.2305 25.9922 Q101.9883 25.7969 101.1445 25.625 L100.832 25.5469 Q100.0039 25.375 99.6289 25.0078 Q99.2539 24.6406 99.2539 24.0156 Q99.2539 23.2344 99.8008 22.8203 Q100.3477 22.4062 101.3633 22.4062 Q101.8477 22.4062 102.293 22.4766 Q102.7383 22.5469 103.0977 22.6875 ZM107.3076 25.25 Q106.2295 25.25 105.8076 25.5 Q105.3857 25.75 105.3857 26.3438 Q105.3857 26.8281 105.6982 27.1094 Q106.0107 27.3906 106.5576 27.3906 Q107.3076 27.3906 107.7607 26.8594 Q108.2139 26.3281 108.2139 25.4531 L108.2139 25.25 L107.3076 25.25 ZM109.1045 24.875 L109.1045 28 L108.2139 28 L108.2139 27.1719 Q107.9014 27.6719 107.4404 27.9062 Q106.9795 28.1406 106.3232 28.1406 Q105.4795 28.1406 104.9795 27.6719 Q104.4795 27.2031 104.4795 26.4062 Q104.4795 25.4844 105.1045 25.0156 Q105.7295 24.5469 106.9482 24.5469 L108.2139 24.5469 L108.2139 24.4531 Q108.2139 23.8438 107.7998 23.5 Q107.3857 23.1562 106.6514 23.1562 Q106.1826 23.1562 105.7373 23.2734 Q105.292 23.3906 104.8857 23.6094 L104.8857 22.7812 Q105.3857 22.5938 105.8467 22.5 Q106.3076 22.4062 106.7451 22.4062 Q107.9326 22.4062 108.5186 23.0156 Q109.1045 23.625 109.1045 24.875 ZM111.8262 27.1719 L111.8262 30.0781 L110.9199 30.0781 L110.9199 22.5312 L111.8262 22.5312 L111.8262 23.3594 Q112.1074 22.875 112.5371 22.6406 Q112.9668 22.4062 113.5762 22.4062 Q114.5762 22.4062 115.1934 23.1953 Q115.8105 23.9844 115.8105 25.2656 Q115.8105 26.5625 115.1934 27.3516 Q114.5762 28.1406 113.5762 28.1406 Q112.9668 28.1406 112.5371 27.9062 Q112.1074 27.6719 111.8262 27.1719 ZM114.8887 25.2656 Q114.8887 24.2812 114.4746 23.7188 Q114.0605 23.1562 113.3574 23.1562 Q112.6387 23.1562 112.2324 23.7188 Q111.8262 24.2812 111.8262 25.2656 Q111.8262 26.2656 112.2324 26.8281 Q112.6387 27.3906 113.3574 27.3906 Q114.0605 27.3906 114.4746 26.8281 Q114.8887 26.2656 114.8887 25.2656 ZM117.2988 22.5312 L118.2051 22.5312 L118.2051 28 L117.2988 28 L117.2988 22.5312 ZM117.2988 20.4062 L118.2051 20.4062 L118.2051 21.5469 L117.2988 21.5469 L117.2988 20.4062 ZM124.7646 25.0469 L124.7646 25.4844 L120.624 25.4844 Q120.6865 26.4062 121.1865 26.8906 Q121.6865 27.375 122.5771 27.375 Q123.0928 27.375 123.585 27.25 Q124.0771 27.125 124.5459 26.875 L124.5459 27.7188 Q124.0615 27.9219 123.5537 28.0312 Q123.0459 28.1406 122.5303 28.1406 Q121.2178 28.1406 120.4521 27.3828 Q119.6865 26.625 119.6865 25.3125 Q119.6865 23.9688 120.4131 23.1875 Q121.1396 22.4062 122.374 22.4062 Q123.4834 22.4062 124.124 23.1094 Q124.7646 23.8125 124.7646 25.0469 ZM123.8584 24.7812 Q123.8584 24.0469 123.4521 23.6016 Q123.0459 23.1562 122.3896 23.1562 Q121.624 23.1562 121.1787 23.5859 Q120.7334 24.0156 120.6553 24.7812 L123.8584 24.7812 ZM130.7764 24.7031 L130.7764 28 L129.8857 28 L129.8857 24.7344 Q129.8857 23.9531 129.5811 23.5703 Q129.2764 23.1875 128.667 23.1875 Q127.9482 23.1875 127.5264 23.6484 Q127.1045 24.1094 127.1045 24.9062 L127.1045 28 L126.1982 28 L126.1982 22.5312 L127.1045 22.5312 L127.1045 23.375 Q127.4326 22.8906 127.8701 22.6484 Q128.3076 22.4062 128.8701 22.4062 Q129.8076 22.4062 130.292 22.9844 Q130.7764 23.5625 130.7764 24.7031 ZM136.0518 22.6875 L136.0518 23.5469 Q135.6768 23.3438 135.2705 23.25 Q134.8643 23.1562 134.4111 23.1562 Q133.7549 23.1562 133.4189 23.3594 Q133.083 23.5625 133.083 23.9688 Q133.083 24.2812 133.3174 24.4609 Q133.5518 24.6406 134.2861 24.7969 L134.583 24.875 Q135.5518 25.0781 135.9502 25.4531 Q136.3486 25.8281 136.3486 26.4844 Q136.3486 27.25 135.7471 27.6953 Q135.1455 28.1406 134.0986 28.1406 Q133.6455 28.1406 133.1689 28.0547 Q132.6924 27.9688 132.1768 27.7969 L132.1768 26.875 Q132.6768 27.125 133.1533 27.2578 Q133.6299 27.3906 134.1143 27.3906 Q134.7393 27.3906 135.083 27.1719 Q135.4268 26.9531 135.4268 26.5625 Q135.4268 26.1875 135.1846 25.9922 Q134.9424 25.7969 134.0986 25.625 L133.7861 25.5469 Q132.958 25.375 132.583 25.0078 Q132.208 24.6406 132.208 24.0156 Q132.208 23.2344 132.7549 22.8203 Q133.3018 22.4062 134.3174 22.4062 Q134.8018 22.4062 135.2471 22.4766 Q135.6924 22.5469 136.0518 22.6875 Z"
         style="clip-path:url(#clipPath3); stroke:none;"
         clip-path="url(#clipPath3)"
         id="path204" />
    </g>
    <g
       style="fill:navy; text-rendering:geometricPrecision; font-size:8; stroke:navy;"
       id="g210">
      <text
         x="221"
         xml:space="preserve"
         y="16"
         style="clip-path:url(#clipPath5); stroke:none;"
         clip-path="url(#clipPath5)"
         id="text208">1</text>
    </g>
    <g
       style="fill:rgb(180,180,100); text-rendering:geometricPrecision; fill-opacity:0.098; stroke-opacity:0.098; stroke:rgb(180,180,100);"
       id="g214">
      <rect
         x="697"
         y="21"
         width="376"
         style="clip-path:url(#clipPath6); stroke:none;"
         height="141"
         clip-path="url(#clipPath6)"
         id="rect212" />
    </g>
    <g
       style="fill:gray; text-rendering:geometricPrecision; stroke-dasharray:4,2; stroke-miterlimit:1; stroke:gray;"
       id="g218">
      <rect
         x="697"
         y="21"
         width="375"
         style="fill:none; clip-path:url(#clipPath6);"
         height="140"
         clip-path="url(#clipPath6)"
         id="rect216" />
    </g>
    <g
       style="text-rendering:geometricPrecision;"
       id="g224">
      <path
         d="M125.7986 199.2511 L157.5392 199.2511"
         style="fill:none; clip-path:url(#clipPath7);"
         clip-path="url(#clipPath7)"
         id="path220" />
      <path
         d="M157.5392 194.0511 L169.2392 199.2511 L157.5392 204.4511 Z"
         style="clip-path:url(#clipPath7); stroke:none;"
         clip-path="url(#clipPath7)"
         id="path222" />
    </g>
    <g
       style="text-rendering:geometricPrecision;"
       id="g230">
      <path
         d="M211.6402 107.2571 L211.5516 171.5011"
         style="fill:none; clip-path:url(#clipPath8);"
         clip-path="url(#clipPath8)"
         id="path226" />
      <path
         d="M216.7516 171.5082 L211.5355 183.2011 L206.3516 171.4939 Z"
         style="clip-path:url(#clipPath8); stroke:none;"
         clip-path="url(#clipPath8)"
         id="path228" />
    </g>
    <g
       style="text-rendering:geometricPrecision;"
       id="g238">
      <path
         d="M422.6564 485.684 L372.1336 485.684"
         style="fill:none; clip-path:url(#clipPath9);"
         clip-path="url(#clipPath9)"
         id="path232" />
      <path
         d="M372.1336 490.884 L360.4336 485.684 L372.1336 480.484 Z"
         style="fill:white; clip-path:url(#clipPath9); stroke:none;"
         clip-path="url(#clipPath9)"
         id="path234" />
      <path
         d="M372.1336 490.884 L360.4336 485.684 L372.1336 480.484 Z"
         style="fill:none; clip-path:url(#clipPath9);"
         clip-path="url(#clipPath9)"
         id="path236" />
    </g>
    <g
       style="text-rendering:geometricPrecision;"
       id="g246">
      <path
         d="M215.2113 399.7632 L215.2113 338.5732"
         style="fill:none; clip-path:url(#clipPath10);"
         clip-path="url(#clipPath10)"
         id="path240" />
      <path
         d="M210.0113 338.5732 L215.2113 326.8732 L220.4113 338.5732 Z"
         style="fill:white; clip-path:url(#clipPath10); stroke:none;"
         clip-path="url(#clipPath10)"
         id="path242" />
      <path
         d="M210.0113 338.5732 L215.2113 326.8732 L220.4113 338.5732 Z"
         style="fill:none; clip-path:url(#clipPath10);"
         clip-path="url(#clipPath10)"
         id="path244" />
    </g>
    <g
       style="text-rendering:geometricPrecision;"
       id="g252">
      <path
         d="M148.2124 473.184 L148.2124 453.184 M148.2124 453.184 L215.2113 453.184 M215.2113 453.184 L215.2113 437.7632"
         style="fill:none; clip-path:url(#clipPath11);"
         clip-path="url(#clipPath11)"
         id="path248" />
      <path
         d="M215.2113 442.9633 L225.6113 442.9633 L225.6113 432.5633 L230.8113 432.5633 L225.6113 420.8633 L220.4113 432.5633 L225.6113 432.5633"
         style="fill:none; clip-path:url(#clipPath11);"
         clip-path="url(#clipPath11)"
         id="path250" />
    </g>
    <g
       style="text-rendering:geometricPrecision;"
       id="g258">
      <path
         d="M148.2124 473.184 L148.2124 453.184 M148.2124 453.184 L108.1805 453.184 M108.1805 453.184 L108.1805 437.7632"
         style="fill:none; clip-path:url(#clipPath12);"
         clip-path="url(#clipPath12)"
         id="path254" />
      <path
         d="M108.1805 442.9633 L118.5805 442.9633 L118.5805 432.5633 L123.7805 432.5633 L118.5805 420.8633 L113.3805 432.5633 L118.5805 432.5633"
         style="fill:none; clip-path:url(#clipPath12);"
         clip-path="url(#clipPath12)"
         id="path256" />
    </g>
    <g
       style="text-rendering:geometricPrecision;"
       id="g264">
      <path
         d="M256.5392 193.0011 L537.1983 193.0011"
         style="fill:none; clip-path:url(#clipPath13);"
         clip-path="url(#clipPath13)"
         id="path260" />
      <path
         d="M537.1983 187.8011 L548.8983 193.0011 L537.1983 198.2011 Z"
         style="clip-path:url(#clipPath13); stroke:none;"
         clip-path="url(#clipPath13)"
         id="path262" />
    </g>
    <g
       style="text-rendering:geometricPrecision;"
       id="g270">
      <path
         d="M166.5392 186.7511 L134.7986 186.7511"
         style="fill:none; clip-path:url(#clipPath14);"
         clip-path="url(#clipPath14)"
         id="path266" />
      <path
         d="M134.7986 191.9511 L123.0986 186.7511 L134.7986 181.5511 Z"
         style="clip-path:url(#clipPath14); stroke:none;"
         clip-path="url(#clipPath14)"
         id="path268" />
    </g>
    <g
       style="text-rendering:geometricPrecision;"
       id="g278">
      <path
         d="M273.1336 485.684 L202.2124 485.684"
         style="fill:none; clip-path:url(#clipPath15);"
         clip-path="url(#clipPath15)"
         id="path272" />
      <path
         d="M202.2124 490.884 L190.5124 485.684 L202.2124 480.484 Z"
         style="fill:white; clip-path:url(#clipPath15); stroke:none;"
         clip-path="url(#clipPath15)"
         id="path274" />
      <path
         d="M202.2124 490.884 L190.5124 485.684 L202.2124 480.484 Z"
         style="fill:none; clip-path:url(#clipPath15);"
         clip-path="url(#clipPath15)"
         id="path276" />
    </g>
    <g
       style="text-rendering:geometricPrecision;"
       id="g286">
      <path
         d="M591.1983 205.5011 L591.1983 485.684 M591.1983 485.684 L521.6564 485.684"
         style="fill:none; clip-path:url(#clipPath16);"
         clip-path="url(#clipPath16)"
         id="path280" />
      <path
         d="M521.6564 490.884 L509.9564 485.684 L521.6564 480.484 Z"
         style="fill:white; clip-path:url(#clipPath16); stroke:none;"
         clip-path="url(#clipPath16)"
         id="path282" />
      <path
         d="M521.6564 490.884 L509.9564 485.684 L521.6564 480.484 Z"
         style="fill:none; clip-path:url(#clipPath16);"
         clip-path="url(#clipPath16)"
         id="path284" />
    </g>
    <g
       style="text-rendering:geometricPrecision;"
       id="g294">
      <path
         d="M255.9293 136.1682 L221.5994 136.4675"
         style="fill:none; clip-path:url(#clipPath17);"
         clip-path="url(#clipPath17)"
         id="path288" />
      <path
         d="M211.1998 136.5582 C211.1748 133.6864 213.4825 131.3381 216.3543 131.313 C219.2261 131.288 221.5744 133.5957 221.5994 136.4675 C221.6245 139.3393 219.3167 141.6876 216.445 141.7126 C213.5732 141.7377 211.2249 139.4299 211.1998 136.5582 Z"
         style="fill:white; clip-path:url(#clipPath17); stroke:none;"
         clip-path="url(#clipPath17)"
         id="path290" />
      <path
         d="M211.1998 136.5582 C211.1748 133.6864 213.4825 131.3381 216.3543 131.313 C219.2261 131.288 221.5744 133.5957 221.5994 136.4675 C221.6245 139.3393 219.3167 141.6876 216.445 141.7126 C213.5732 141.7377 211.2249 139.4299 211.1998 136.5582 Z"
         style="fill:none; clip-path:url(#clipPath17);"
         clip-path="url(#clipPath17)"
         id="path292" />
    </g>
    <g
       style="fill:rgb(153,153,153); text-rendering:geometricPrecision; stroke-dasharray:4,4; stroke:rgb(153,153,153);"
       id="g298">
      <path
         d="M345.9293 136.1682 L497.7728 136.1682 M497.7728 136.1682 L497.7728 92.048 M497.7728 92.048 L697.2389 92.048"
         style="fill:none; clip-path:url(#clipPath18);"
         clip-path="url(#clipPath18)"
         id="path296" />
    </g>
    <g
       style="text-rendering:geometricPrecision;"
       id="g306">
      <path
         d="M108.1805 399.7632 L108.1805 338.5732"
         style="fill:none; clip-path:url(#clipPath19);"
         clip-path="url(#clipPath19)"
         id="path300" />
      <path
         d="M102.9805 338.5732 L108.1805 326.8732 L113.3805 338.5732 Z"
         style="fill:white; clip-path:url(#clipPath19); stroke:none;"
         clip-path="url(#clipPath19)"
         id="path302" />
      <path
         d="M102.9805 338.5732 L108.1805 326.8732 L113.3805 338.5732 Z"
         style="fill:none; clip-path:url(#clipPath19);"
         clip-path="url(#clipPath19)"
         id="path304" />
    </g>
    <g
       style="text-rendering:geometricPrecision;"
       id="g314">
      <path
         d="M310.7105 243.0673 L310.7105 223.0673 M310.7105 223.0673 L362.7011 223.0673 M362.7011 223.0673 L362.7011 203.0011"
         style="fill:none; clip-path:url(#clipPath20);"
         clip-path="url(#clipPath20)"
         id="path308" />
      <path
         d="M362.7011 192.6011 C365.573 192.6011 367.9012 194.9292 367.9012 197.8011 C367.9012 200.6729 365.573 203.0011 362.7011 203.0011 C359.8293 203.0011 357.5011 200.6729 357.5011 197.8011 C357.5011 194.9292 359.8293 192.6011 362.7011 192.6011 Z"
         style="fill:white; clip-path:url(#clipPath20); stroke:none;"
         clip-path="url(#clipPath20)"
         id="path310" />
      <path
         d="M362.7011 192.6011 C365.573 192.6011 367.9012 194.9292 367.9012 197.8011 C367.9012 200.6729 365.573 203.0011 362.7011 203.0011 C359.8293 203.0011 357.5011 200.6729 357.5011 197.8011 C357.5011 194.9292 359.8293 192.6011 362.7011 192.6011 Z"
         style="fill:none; clip-path:url(#clipPath20);"
         clip-path="url(#clipPath20)"
         id="path312" />
    </g>
    <g
       style="text-rendering:geometricPrecision;"
       id="g322">
      <path
         d="M410.9377 243.0673 L410.9377 223.0673 M410.9377 223.0673 L362.7011 223.0673 M362.7011 223.0673 L362.7011 203.0011"
         style="fill:none; clip-path:url(#clipPath21);"
         clip-path="url(#clipPath21)"
         id="path316" />
      <path
         d="M362.7011 192.6011 C365.573 192.6011 367.9012 194.9292 367.9012 197.8011 C367.9012 200.6729 365.573 203.0011 362.7011 203.0011 C359.8293 203.0011 357.5011 200.6729 357.5011 197.8011 C357.5011 194.9292 359.8293 192.6011 362.7011 192.6011 Z"
         style="fill:white; clip-path:url(#clipPath21); stroke:none;"
         clip-path="url(#clipPath21)"
         id="path318" />
      <path
         d="M362.7011 192.6011 C365.573 192.6011 367.9012 194.9292 367.9012 197.8011 C367.9012 200.6729 365.573 203.0011 362.7011 203.0011 C359.8293 203.0011 357.5011 200.6729 357.5011 197.8011 C357.5011 194.9292 359.8293 192.6011 362.7011 192.6011 Z"
         style="fill:none; clip-path:url(#clipPath21);"
         clip-path="url(#clipPath21)"
         id="path320" />
    </g>
    <g
       style="fill:rgb(153,153,0); text-rendering:geometricPrecision; stroke:rgb(153,153,0);"
       id="g326">
      <path
         d="M85.6181 139.9616 C85.6181 142.3577 82.3836 144.3001 78.3936 144.3001 C74.4036 144.3001 71.1691 142.3577 71.1691 139.9616 C71.1691 137.5656 74.4036 135.6231 78.3936 135.6231 C82.3836 135.6231 85.6181 137.5656 85.6181 139.9616 Z"
         style="fill:none; clip-path:url(#clipPath22);"
         clip-path="url(#clipPath22)"
         id="path324" />
    </g>
    <g
       style="fill:rgb(153,153,0); text-rendering:geometricPrecision; stroke:rgb(153,153,0);"
       id="g330">
      <path
         d="M63.0111 134.1896 C63.0111 138.4453 61.0686 141.8951 58.6726 141.8951 C56.2765 141.8951 54.3341 138.4453 54.3341 134.1896 C54.3341 129.934 56.2765 126.4841 58.6726 126.4841 C61.0686 126.4841 63.0111 129.934 63.0111 134.1896 Z"
         style="fill:none; clip-path:url(#clipPath23);"
         clip-path="url(#clipPath23)"
         id="path328" />
    </g>
    <g
       style="fill:rgb(153,153,0); text-rendering:geometricPrecision; stroke:rgb(153,153,0);"
       id="g334">
      <path
         d="M70.2261 152.4677 C70.2261 155.395 67.7453 157.7682 64.6851 157.7682 C61.6249 157.7682 59.1441 155.395 59.1441 152.4677 C59.1441 149.5403 61.6249 147.1671 64.6851 147.1671 C67.7453 147.1671 70.2261 149.5403 70.2261 152.4677 Z"
         style="fill:none; clip-path:url(#clipPath24);"
         clip-path="url(#clipPath24)"
         id="path332" />
    </g>
    <g
       style="fill:silver; text-rendering:geometricPrecision; stroke:silver;"
       id="g338">
      <path
         d="M26.069 101.8192 L26.069 101.8192 L26.069 101.8192 L27.569 101.8192 L27.569 103.3192 L27.569 562.6405 L27.569 564.1405 L26.069 564.1405 L23.069 564.1405 L23.069 562.6405 L23.069 561.1405 L26.069 561.1405 L27.569 561.1405 L27.569 562.6405 C27.569 565.6781 30.0315 568.1405 33.069 568.1405 L34.569 568.1405 L34.569 569.6405 L34.569 572.6405 L33.069 572.6405 L31.569 572.6405 L31.569 569.6405 L31.569 568.1405 L33.069 568.1405 L460.3075 568.1405 L461.8075 568.1405 L461.8075 569.6405 L461.8075 572.6405 L460.3075 572.6405 L458.8075 572.6405 L458.8075 569.6405 L458.8075 568.1405 L460.3075 568.1405 C463.3453 568.1405 465.8075 565.6781 465.8075 562.6405 L465.8075 561.1405 L467.3075 561.1405 L470.3075 561.1405 L470.3075 562.6405 L470.3075 564.1405 L467.3075 564.1405 L465.8075 564.1405 L465.8075 562.6405 L465.8075 103.3192 L465.8075 101.8192 L467.3075 101.8192 L470.3075 101.8192 L470.3075 103.3192 L470.3075 104.8192 L467.3075 104.8192 L465.8075 104.8192 L465.8075 103.3192 C465.8075 100.2817 463.3452 97.8192 460.3075 97.8192 L458.8075 97.8192 L458.8075 96.3192 L458.8075 93.3192 L460.3075 93.3192 L461.8075 93.3192 L461.8075 96.3192 L461.8075 97.8192 L460.3075 97.8192 L33.069 97.8192 L31.569 97.8192 L31.569 96.3192 L31.569 93.3192 L33.069 93.3192 L34.569 93.3192 L34.569 96.3192 L34.569 97.8192 L33.069 97.8192 C30.0315 97.8192 27.569 100.2817 27.569 103.3192 L27.569 104.8192 L26.069 104.8192 L23.069 104.8192 L23.069 103.3192 L23.069 101.8192 L26.069 101.8192 L27.569 101.8192 L27.569 104.8192 L26.069 104.8192 L23.069 104.8192 L23.069 101.8192 L26.069 101.8192 L26.069 103.3192 L24.569 103.3192 C24.569 98.6248 28.3746 94.8192 33.069 94.8192 L33.069 96.3192 L31.569 96.3192 L31.569 93.3192 L34.569 93.3192 L34.569 96.3192 L33.069 96.3192 L33.069 94.8192 L460.3075 94.8192 L460.3075 96.3192 L458.8075 96.3192 L458.8075 93.3192 L461.8075 93.3192 L461.8075 96.3192 L460.3075 96.3192 L460.3075 94.8192 C465.0021 94.8192 468.8075 98.6248 468.8075 103.3192 L467.3075 103.3192 L467.3075 101.8192 L470.3075 101.8192 L470.3075 104.8192 L467.3075 104.8192 L467.3075 103.3192 L468.8075 103.3192 L468.8075 562.6405 L467.3075 562.6405 L467.3075 561.1405 L470.3075 561.1405 L470.3075 564.1405 L467.3075 564.1405 L467.3075 562.6405 L468.8075 562.6405 C468.8075 567.3348 465.0022 571.1405 460.3075 571.1405 L460.3075 569.6405 L461.8075 569.6405 L461.8075 572.6405 L458.8075 572.6405 L458.8075 569.6405 L460.3075 569.6405 L460.3075 571.1405 L33.069 571.1405 L33.069 569.6405 L34.569 569.6405 L34.569 572.6405 L31.569 572.6405 L31.569 569.6405 L33.069 569.6405 L33.069 571.1405 C28.3746 571.1405 24.569 567.335 24.569 562.6405 L26.069 562.6405 L26.069 564.1405 L23.069 564.1405 L23.069 561.1405 L26.069 561.1405 L26.069 562.6405 L24.569 562.6405 L24.569 103.3192 L26.069 103.3192 L26.069 104.8192 L26.069 104.8192 L24.569 104.8192 L24.569 101.8192 ZM20.069 101.8192 L20.069 101.8192 L20.069 101.8192 L20.069 103.3192 L18.569 103.3192 C18.569 95.3111 25.0609 88.8192 33.069 88.8192 L33.069 90.3192 L33.069 88.8192 L33.069 88.8192 L33.069 90.3192 L33.069 88.8192 L460.3075 88.8192 L460.3075 90.3192 L460.3075 88.8192 L460.3075 88.8192 L460.3075 90.3192 L460.3075 88.8192 C468.3157 88.8192 474.8075 95.3111 474.8075 103.3192 L473.3075 103.3192 L473.3075 101.8192 L473.3075 101.8192 L474.8075 101.8192 L474.8075 103.3192 L474.8075 562.6405 L473.3075 562.6405 L473.3075 561.1405 L473.3075 561.1405 L474.8075 561.1405 L474.8075 562.6405 C474.8075 570.6486 468.3159 577.1405 460.3075 577.1405 L460.3075 575.6405 L460.3075 574.1405 L460.3075 574.1405 L460.3075 575.6405 L460.3075 577.1405 L33.069 577.1405 L33.069 575.6405 L33.069 574.1405 L33.069 574.1405 L33.069 575.6405 L33.069 577.1405 C25.0609 577.1405 18.569 570.6486 18.569 562.6405 L18.569 561.1405 L20.069 561.1405 L20.069 561.1405 L20.069 562.6405 L18.569 562.6405 L18.569 103.3192 L18.569 101.8192 L20.069 101.8192 M20.069 104.8192 L20.069 103.3192 L21.569 103.3192 L21.569 562.6405 L21.569 564.1405 L20.069 564.1405 L20.069 564.1405 L20.069 562.6405 L21.569 562.6405 C21.569 568.9918 26.7178 574.1405 33.069 574.1405 L33.069 577.1405 L33.069 577.1405 L33.069 574.1405 L460.3075 574.1405 L460.3075 577.1405 L460.3075 577.1405 L460.3075 574.1405 C466.659 574.1405 471.8075 568.9918 471.8075 562.6405 L473.3075 562.6405 L473.3075 564.1405 L473.3075 564.1405 L471.8075 564.1405 L471.8075 562.6405 L471.8075 103.3192 L473.3075 103.3192 L473.3075 104.8192 L473.3075 104.8192 L471.8075 104.8192 L471.8075 103.3192 C471.8075 96.968 466.6588 91.8192 460.3075 91.8192 L460.3075 91.8192 L460.3075 91.8192 L460.3075 91.8192 L33.069 91.8192 L33.069 91.8192 L33.069 91.8192 L33.069 91.8192 C26.7178 91.8192 21.569 96.9679 21.569 103.3192 L21.569 104.8192 L20.069 104.8192 L20.069 104.8192 Z"
         style="clip-path:url(#clipPath25); stroke:none;"
         clip-path="url(#clipPath25)"
         id="path336" />
    </g>
    <g
       style="fill:rgb(153,153,153); text-rendering:geometricPrecision; stroke:rgb(153,153,153);"
       id="g342">
      <text
         x="265"
         xml:space="preserve"
         y="84"
         style="clip-path:url(#clipPath26); stroke:none;"
         clip-path="url(#clipPath26)"
         id="text340">Plasma membrane</text>
    </g>
    <g
       style="fill:rgb(255,102,0); text-rendering:geometricPrecision; stroke:rgb(255,102,0);"
       id="g350">
      <text
         x="574"
         xml:space="preserve"
         y="138"
         style="clip-path:url(#clipPath27); stroke:none;"
         clip-path="url(#clipPath27)"
         id="text344">SASP</text>
      <text
         x="517"
         xml:space="preserve"
         y="151"
         style="clip-path:url(#clipPath27); stroke:none;"
         clip-path="url(#clipPath27)"
         id="text346">Senescence-Associated </text>
      <text
         x="527"
         xml:space="preserve"
         y="165"
         style="clip-path:url(#clipPath27); stroke:none;"
         clip-path="url(#clipPath27)"
         id="text348">Secretory Phenotype</text>
    </g>
    <g
       style="fill:rgb(153,153,153); text-rendering:geometricPrecision; stroke:rgb(153,153,153);"
       id="g354">
      <text
         x="929"
         xml:space="preserve"
         y="157"
         style="clip-path:url(#clipPath28); stroke:none;"
         clip-path="url(#clipPath28)"
         id="text352">Subset PLA2 isozymes</text>
    </g>
    <g
       style="fill:white; text-rendering:geometricPrecision; stroke:white;"
       id="g362">
      <path
         d="M365.9377 243.0673 L455.9377 243.0673 L455.9377 268.0674 L365.9377 268.0674 L365.9377 243.0673 Z"
         style="clip-path:url(#clipPath29); stroke:none;"
         clip-path="url(#clipPath29)"
         id="path356" />
      <path
         d="M365.9377 243.0673 L455.9377 243.0673 L455.9377 268.0674 L365.9377 268.0674 L365.9377 243.0673 Z"
         style="fill:none; clip-path:url(#clipPath29); stroke:black;"
         clip-path="url(#clipPath29)"
         id="path358" />
      <text
         x="391"
         y="260"
         style="fill:black; clip-path:url(#clipPath29); stroke:none;"
         xml:space="preserve"
         clip-path="url(#clipPath29)"
         id="text360">PTGS2</text>
    </g>
    <g
       style="fill:white; text-rendering:geometricPrecision; stroke:white;"
       id="g370">
      <path
         d="M103.2124 473.184 L193.2124 473.184 L193.2124 498.184 L103.2124 498.184 L103.2124 473.184 Z"
         style="clip-path:url(#clipPath30); stroke:none;"
         clip-path="url(#clipPath30)"
         id="path364" />
      <path
         d="M103.2124 473.184 L193.2124 473.184 L193.2124 498.184 L103.2124 498.184 L103.2124 473.184 Z"
         style="fill:none; clip-path:url(#clipPath30); stroke:black;"
         clip-path="url(#clipPath30)"
         id="path366" />
      <text
         x="134"
         y="490"
         style="fill:black; clip-path:url(#clipPath30); stroke:none;"
         xml:space="preserve"
         clip-path="url(#clipPath30)"
         id="text368">TP53</text>
    </g>
    <g
       style="fill:white; text-rendering:geometricPrecision; stroke:white;"
       id="g378">
      <path
         d="M546.1983 180.5011 L636.1983 180.5011 L636.1983 205.5011 L546.1983 205.5011 L546.1983 180.5011 Z"
         style="clip-path:url(#clipPath31); stroke:none;"
         clip-path="url(#clipPath31)"
         id="path372" />
      <path
         d="M546.1983 180.5011 L636.1983 180.5011 L636.1983 205.5011 L546.1983 205.5011 L546.1983 180.5011 Z"
         style="fill:none; clip-path:url(#clipPath31); stroke:blue;"
         clip-path="url(#clipPath31)"
         id="path374" />
      <text
         x="567"
         y="197"
         style="fill:blue; clip-path:url(#clipPath31); stroke:none;"
         xml:space="preserve"
         clip-path="url(#clipPath31)"
         id="text376">Oxylipin</text>
    </g>
    <g
       style="fill:white; text-rendering:geometricPrecision; stroke:white;"
       id="g386">
      <path
         d="M35.7986 180.5011 L125.7986 180.5011 L125.7986 205.5011 L35.7986 205.5011 L35.7986 180.5011 Z"
         style="clip-path:url(#clipPath32); stroke:none;"
         clip-path="url(#clipPath32)"
         id="path380" />
      <path
         d="M35.7986 180.5011 L125.7986 180.5011 L125.7986 205.5011 L35.7986 205.5011 L35.7986 180.5011 Z"
         style="fill:none; clip-path:url(#clipPath32); stroke:rgb(153,153,153);"
         clip-path="url(#clipPath32)"
         id="path382" />
      <text
         x="40"
         y="197"
         style="fill:rgb(153,153,153); clip-path:url(#clipPath32); stroke:none;"
         xml:space="preserve"
         clip-path="url(#clipPath32)"
         id="text384">Lipid droplets</text>
    </g>
    <g
       style="fill:white; text-rendering:geometricPrecision; stroke:white;"
       id="g394">
      <path
         d="M705.2389 79.548 L795.2389 79.548 L795.2389 104.548 L705.2389 104.548 L705.2389 79.548 Z"
         style="clip-path:url(#clipPath33); stroke:none;"
         clip-path="url(#clipPath33)"
         id="path388" />
      <path
         d="M705.2389 79.548 L795.2389 79.548 L795.2389 104.548 L705.2389 104.548 L705.2389 79.548 Z"
         style="fill:none; clip-path:url(#clipPath33); stroke:black;"
         clip-path="url(#clipPath33)"
         id="path390" />
      <text
         x="727"
         y="96"
         style="fill:black; clip-path:url(#clipPath33); stroke:none;"
         xml:space="preserve"
         clip-path="url(#clipPath33)"
         id="text392">PLA2G3</text>
    </g>
    <g
       style="fill:white; text-rendering:geometricPrecision; stroke:white;"
       id="g402">
      <path
         d="M166.6402 82.2571 L256.6402 82.2571 L256.6402 107.2571 L166.6402 107.2571 L166.6402 82.2571 Z"
         style="clip-path:url(#clipPath34); stroke:none;"
         clip-path="url(#clipPath34)"
         id="path396" />
      <path
         d="M166.6402 82.2571 L256.6402 82.2571 L256.6402 107.2571 L166.6402 107.2571 L166.6402 82.2571 Z"
         style="fill:none; clip-path:url(#clipPath34); stroke:blue;"
         clip-path="url(#clipPath34)"
         id="path398" />
      <text
         x="193"
         y="99"
         style="fill:blue; clip-path:url(#clipPath34); stroke:none;"
         xml:space="preserve"
         clip-path="url(#clipPath34)"
         id="text400">PUFAs</text>
    </g>
    <g
       style="fill:white; text-rendering:geometricPrecision; stroke:white;"
       id="g410">
      <path
         d="M265.7105 243.0673 L355.7105 243.0673 L355.7105 268.0674 L265.7105 268.0674 L265.7105 243.0673 Z"
         style="clip-path:url(#clipPath35); stroke:none;"
         clip-path="url(#clipPath35)"
         id="path404" />
      <path
         d="M265.7105 243.0673 L355.7105 243.0673 L355.7105 268.0674 L265.7105 268.0674 L265.7105 243.0673 Z"
         style="fill:none; clip-path:url(#clipPath35); stroke:black;"
         clip-path="url(#clipPath35)"
         id="path406" />
      <text
         x="290"
         y="260"
         style="fill:black; clip-path:url(#clipPath35); stroke:none;"
         xml:space="preserve"
         clip-path="url(#clipPath35)"
         id="text408">ALOX5</text>
    </g>
    <g
       style="fill:white; text-rendering:geometricPrecision; stroke:white;"
       id="g418">
      <path
         d="M255.9293 123.6682 L345.9293 123.6682 L345.9293 148.6682 L255.9293 148.6682 L255.9293 123.6682 Z"
         style="clip-path:url(#clipPath36); stroke:none;"
         clip-path="url(#clipPath36)"
         id="path412" />
      <path
         d="M255.9293 123.6682 L345.9293 123.6682 L345.9293 148.6682 L255.9293 148.6682 L255.9293 123.6682 Z"
         style="fill:none; clip-path:url(#clipPath36); stroke:black;"
         clip-path="url(#clipPath36)"
         id="path414" />
      <text
         x="286"
         y="140"
         style="fill:black; clip-path:url(#clipPath36); stroke:none;"
         xml:space="preserve"
         clip-path="url(#clipPath36)"
         id="text416">PLA2</text>
    </g>
    <g
       style="fill:white; text-rendering:geometricPrecision; stroke:white;"
       id="g426">
      <path
         d="M63.1805 399.7632 L153.1805 399.7632 L153.1805 424.7632 L63.1805 424.7632 L63.1805 399.7632 Z"
         style="clip-path:url(#clipPath37); stroke:none;"
         clip-path="url(#clipPath37)"
         id="path420" />
      <path
         d="M63.1805 399.7632 L153.1805 399.7632 L153.1805 424.7632 L63.1805 424.7632 L63.1805 399.7632 Z"
         style="fill:none; clip-path:url(#clipPath37); stroke:black;"
         clip-path="url(#clipPath37)"
         id="path422" />
      <text
         x="83"
         y="416"
         style="fill:black; clip-path:url(#clipPath37); stroke:none;"
         xml:space="preserve"
         clip-path="url(#clipPath37)"
         id="text424">CDKN1A</text>
    </g>
    <g
       style="fill:rgb(20,150,30); text-rendering:geometricPrecision; font-weight:bold; stroke:rgb(20,150,30);"
       id="g432">
      <text
         x="77"
         xml:space="preserve"
         y="308"
         style="clip-path:url(#clipPath38); stroke:none;"
         clip-path="url(#clipPath38)"
         id="text428">Cell cycle</text>
      <text
         x="88"
         xml:space="preserve"
         y="321"
         style="clip-path:url(#clipPath38); stroke:none;"
         clip-path="url(#clipPath38)"
         id="text430">arrest</text>
    </g>
    <g
       style="fill:white; text-rendering:geometricPrecision; stroke:white;"
       id="g440">
      <path
         d="M273.1336 473.184 L363.1336 473.184 L363.1336 498.184 L273.1336 498.184 L273.1336 473.184 Z"
         style="clip-path:url(#clipPath39); stroke:none;"
         clip-path="url(#clipPath39)"
         id="path434" />
      <path
         d="M273.1336 473.184 L363.1336 473.184 L363.1336 498.184 L273.1336 498.184 L273.1336 473.184 Z"
         style="fill:none; clip-path:url(#clipPath39); stroke:black;"
         clip-path="url(#clipPath39)"
         id="path436" />
      <text
         x="302"
         y="490"
         style="fill:black; clip-path:url(#clipPath39); stroke:none;"
         xml:space="preserve"
         clip-path="url(#clipPath39)"
         id="text438">HRAS</text>
    </g>
    <g
       style="fill:white; text-rendering:geometricPrecision; stroke:white;"
       id="g448">
      <path
         d="M422.6564 473.184 L512.6564 473.184 L512.6564 498.184 L422.6564 498.184 L422.6564 473.184 Z"
         style="clip-path:url(#clipPath40); stroke:none;"
         clip-path="url(#clipPath40)"
         id="path442" />
      <path
         d="M422.6564 473.184 L512.6564 473.184 L512.6564 498.184 L422.6564 498.184 L422.6564 473.184 Z"
         style="fill:none; clip-path:url(#clipPath40); stroke:black;"
         clip-path="url(#clipPath40)"
         id="path444" />
      <text
         x="440"
         y="490"
         style="fill:black; clip-path:url(#clipPath40); stroke:none;"
         xml:space="preserve"
         clip-path="url(#clipPath40)"
         id="text446">SLCO2A1</text>
    </g>
    <g
       style="fill:rgb(153,153,0); text-rendering:geometricPrecision; stroke:rgb(153,153,0);"
       id="g452">
      <path
         d="M105.2381 134.5696 C105.2381 136.9657 102.0036 138.9081 98.0136 138.9081 C94.0236 138.9081 90.7891 136.9657 90.7891 134.5696 C90.7891 132.1735 94.0236 130.2311 98.0136 130.2311 C102.0036 130.2311 105.2381 132.1735 105.2381 134.5696 Z"
         style="fill:none; clip-path:url(#clipPath41);"
         clip-path="url(#clipPath41)"
         id="path450" />
    </g>
    <g
       style="fill:rgb(153,153,0); text-rendering:geometricPrecision; stroke:rgb(153,153,0);"
       id="g456">
      <path
         d="M86.9601 156.2146 C86.9601 160.4703 85.0177 163.9202 82.6216 163.9202 C80.2255 163.9202 78.2831 160.4703 78.2831 156.2146 C78.2831 151.959 80.2255 148.5091 82.6216 148.5091 C85.0177 148.5091 86.9601 151.959 86.9601 156.2146 Z"
         style="fill:none; clip-path:url(#clipPath42);"
         clip-path="url(#clipPath42)"
         id="path454" />
    </g>
    <g
       style="fill:rgb(153,153,0); text-rendering:geometricPrecision; stroke:rgb(153,153,0);"
       id="g460">
      <path
         d="M84.0741 126.8736 C84.0741 129.801 81.5933 132.1741 78.5331 132.1741 C75.4729 132.1741 72.9921 129.801 72.9921 126.8736 C72.9921 123.9462 75.4729 121.5731 78.5331 121.5731 C81.5933 121.5731 84.0741 123.9462 84.0741 126.8736 Z"
         style="fill:none; clip-path:url(#clipPath43);"
         clip-path="url(#clipPath43)"
         id="path458" />
    </g>
    <g
       style="fill:rgb(153,153,0); text-rendering:geometricPrecision; stroke:rgb(153,153,0);"
       id="g464">
      <path
         d="M100.4281 151.4046 C100.4281 154.332 97.9473 156.7051 94.8871 156.7051 C91.8269 156.7051 89.3461 154.332 89.3461 151.4046 C89.3461 148.4772 91.8269 146.1041 94.8871 146.1041 C97.9473 146.1041 100.4281 148.4772 100.4281 151.4046 Z"
         style="fill:none; clip-path:url(#clipPath44);"
         clip-path="url(#clipPath44)"
         id="path462" />
    </g>
    <g
       style="fill:rgb(153,153,0); text-rendering:geometricPrecision; stroke:rgb(153,153,0);"
       id="g468">
      <path
         d="M113.7951 155.6326 C113.7951 159.8883 111.8527 163.3382 109.4566 163.3382 C107.0605 163.3382 105.1181 159.8883 105.1181 155.6326 C105.1181 151.377 107.0605 147.9271 109.4566 147.9271 C111.8527 147.9271 113.7951 151.377 113.7951 155.6326 Z"
         style="fill:none; clip-path:url(#clipPath45);"
         clip-path="url(#clipPath45)"
         id="path466" />
    </g>
    <g
       style="fill:white; text-rendering:geometricPrecision; stroke:white;"
       id="g476">
      <path
         d="M166.5392 180.5011 L256.5392 180.5011 L256.5392 205.5011 L166.5392 205.5011 L166.5392 180.5011 Z"
         style="clip-path:url(#clipPath46); stroke:none;"
         clip-path="url(#clipPath46)"
         id="path470" />
      <path
         d="M166.5392 180.5011 L256.5392 180.5011 L256.5392 205.5011 L166.5392 205.5011 L166.5392 180.5011 Z"
         style="fill:none; clip-path:url(#clipPath46); stroke:blue;"
         clip-path="url(#clipPath46)"
         id="path472" />
      <text
         x="178"
         y="197"
         style="fill:blue; clip-path:url(#clipPath46); stroke:none;"
         xml:space="preserve"
         clip-path="url(#clipPath46)"
         id="text474">Free PUFAs</text>
    </g>
    <g
       style="fill:rgb(153,153,153); text-rendering:geometricPrecision; stroke:rgb(153,153,153);"
       id="g480">
      <text
         x="379"
         xml:space="preserve"
         y="548"
         style="clip-path:url(#clipPath47); stroke:none;"
         clip-path="url(#clipPath47)"
         id="text478">Cytosol</text>
    </g>
    <g
       style="fill:white; text-rendering:geometricPrecision; stroke:white;"
       id="g488">
      <path
         d="M170.2113 399.7632 L260.2113 399.7632 L260.2113 424.7632 L170.2113 424.7632 L170.2113 399.7632 Z"
         style="clip-path:url(#clipPath48); stroke:none;"
         clip-path="url(#clipPath48)"
         id="path482" />
      <path
         d="M170.2113 399.7632 L260.2113 399.7632 L260.2113 424.7632 L170.2113 424.7632 L170.2113 399.7632 Z"
         style="fill:none; clip-path:url(#clipPath48); stroke:black;"
         clip-path="url(#clipPath48)"
         id="path484" />
      <text
         x="196"
         y="416"
         style="fill:black; clip-path:url(#clipPath48); stroke:none;"
         xml:space="preserve"
         clip-path="url(#clipPath48)"
         id="text486">PTGS2</text>
    </g>
    <g
       style="fill:rgb(20,150,30); text-rendering:geometricPrecision; font-weight:bold; stroke:rgb(20,150,30);"
       id="g494">
      <text
         x="188"
         xml:space="preserve"
         y="308"
         style="clip-path:url(#clipPath49); stroke:none;"
         clip-path="url(#clipPath49)"
         id="text490">Oxylipin</text>
      <text
         x="173"
         xml:space="preserve"
         y="321"
         style="clip-path:url(#clipPath49); stroke:none;"
         clip-path="url(#clipPath49)"
         id="text492">biosynthesis</text>
    </g>
    <g
       style="fill:white; text-rendering:geometricPrecision; stroke:white;"
       id="g502">
      <path
         d="M705.2389 54.548 L795.2389 54.548 L795.2389 79.548 L705.2389 79.548 L705.2389 54.548 Z"
         style="clip-path:url(#clipPath50); stroke:none;"
         clip-path="url(#clipPath50)"
         id="path496" />
      <path
         d="M705.2389 54.548 L795.2389 54.548 L795.2389 79.548 L705.2389 79.548 L705.2389 54.548 Z"
         style="fill:none; clip-path:url(#clipPath50); stroke:black;"
         clip-path="url(#clipPath50)"
         id="path498" />
      <text
         x="723"
         y="71"
         style="fill:black; clip-path:url(#clipPath50); stroke:none;"
         xml:space="preserve"
         clip-path="url(#clipPath50)"
         id="text500">PLA2G2D</text>
    </g>
    <g
       style="fill:white; text-rendering:geometricPrecision; stroke:white;"
       id="g510">
      <path
         d="M795.2389 29.548 L885.2389 29.548 L885.2389 54.548 L795.2389 54.548 L795.2389 29.548 Z"
         style="clip-path:url(#clipPath51); stroke:none;"
         clip-path="url(#clipPath51)"
         id="path504" />
      <path
         d="M795.2389 29.548 L885.2389 29.548 L885.2389 54.548 L795.2389 54.548 L795.2389 29.548 Z"
         style="fill:none; clip-path:url(#clipPath51); stroke:black;"
         clip-path="url(#clipPath51)"
         id="path506" />
      <text
         x="813"
         y="46"
         style="fill:black; clip-path:url(#clipPath51); stroke:none;"
         xml:space="preserve"
         clip-path="url(#clipPath51)"
         id="text508">PLA2G4A</text>
    </g>
    <g
       style="fill:white; text-rendering:geometricPrecision; stroke:white;"
       id="g518">
      <path
         d="M795.2389 54.548 L885.2389 54.548 L885.2389 79.548 L795.2389 79.548 L795.2389 54.548 Z"
         style="clip-path:url(#clipPath52); stroke:none;"
         clip-path="url(#clipPath52)"
         id="path512" />
      <path
         d="M795.2389 54.548 L885.2389 54.548 L885.2389 79.548 L795.2389 79.548 L795.2389 54.548 Z"
         style="fill:none; clip-path:url(#clipPath52); stroke:black;"
         clip-path="url(#clipPath52)"
         id="path514" />
      <text
         x="813"
         y="71"
         style="fill:black; clip-path:url(#clipPath52); stroke:none;"
         xml:space="preserve"
         clip-path="url(#clipPath52)"
         id="text516">PLA2G4C</text>
    </g>
    <g
       style="fill:white; text-rendering:geometricPrecision; stroke:white;"
       id="g526">
      <path
         d="M795.2389 79.548 L885.2389 79.548 L885.2389 104.548 L795.2389 104.548 L795.2389 79.548 Z"
         style="clip-path:url(#clipPath53); stroke:none;"
         clip-path="url(#clipPath53)"
         id="path520" />
      <path
         d="M795.2389 79.548 L885.2389 79.548 L885.2389 104.548 L795.2389 104.548 L795.2389 79.548 Z"
         style="fill:none; clip-path:url(#clipPath53); stroke:black;"
         clip-path="url(#clipPath53)"
         id="path522" />
      <text
         x="813"
         y="96"
         style="fill:black; clip-path:url(#clipPath53); stroke:none;"
         xml:space="preserve"
         clip-path="url(#clipPath53)"
         id="text524">PLA2G4D</text>
    </g>
    <g
       style="fill:white; text-rendering:geometricPrecision; stroke:white;"
       id="g534">
      <path
         d="M795.2389 104.548 L885.2389 104.548 L885.2389 129.548 L795.2389 129.548 L795.2389 104.548 Z"
         style="clip-path:url(#clipPath54); stroke:none;"
         clip-path="url(#clipPath54)"
         id="path528" />
      <path
         d="M795.2389 104.548 L885.2389 104.548 L885.2389 129.548 L795.2389 129.548 L795.2389 104.548 Z"
         style="fill:none; clip-path:url(#clipPath54); stroke:black;"
         clip-path="url(#clipPath54)"
         id="path530" />
      <text
         x="813"
         y="121"
         style="fill:black; clip-path:url(#clipPath54); stroke:none;"
         xml:space="preserve"
         clip-path="url(#clipPath54)"
         id="text532">PLA2G4E</text>
    </g>
    <g
       style="fill:white; text-rendering:geometricPrecision; stroke:white;"
       id="g542">
      <path
         d="M795.2389 129.548 L885.2389 129.548 L885.2389 154.548 L795.2389 154.548 L795.2389 129.548 Z"
         style="clip-path:url(#clipPath55); stroke:none;"
         clip-path="url(#clipPath55)"
         id="path536" />
      <path
         d="M795.2389 129.548 L885.2389 129.548 L885.2389 154.548 L795.2389 154.548 L795.2389 129.548 Z"
         style="fill:none; clip-path:url(#clipPath55); stroke:black;"
         clip-path="url(#clipPath55)"
         id="path538" />
      <text
         x="814"
         y="146"
         style="fill:black; clip-path:url(#clipPath55); stroke:none;"
         xml:space="preserve"
         clip-path="url(#clipPath55)"
         id="text540">PLA2G4F</text>
    </g>
    <g
       style="fill:white; text-rendering:geometricPrecision; stroke:white;"
       id="g550">
      <path
         d="M885.2389 29.548 L975.2389 29.548 L975.2389 54.548 L885.2389 54.548 L885.2389 29.548 Z"
         style="clip-path:url(#clipPath56); stroke:none;"
         clip-path="url(#clipPath56)"
         id="path544" />
      <path
         d="M885.2389 29.548 L975.2389 29.548 L975.2389 54.548 L885.2389 54.548 L885.2389 29.548 Z"
         style="fill:none; clip-path:url(#clipPath56); stroke:black;"
         clip-path="url(#clipPath56)"
         id="path546" />
      <text
         x="907"
         y="46"
         style="fill:black; clip-path:url(#clipPath56); stroke:none;"
         xml:space="preserve"
         clip-path="url(#clipPath56)"
         id="text548">PLA2G5</text>
    </g>
    <g
       style="fill:white; text-rendering:geometricPrecision; stroke:white;"
       id="g558">
      <path
         d="M885.2389 54.548 L975.2389 54.548 L975.2389 79.548 L885.2389 79.548 L885.2389 54.548 Z"
         style="clip-path:url(#clipPath57); stroke:none;"
         clip-path="url(#clipPath57)"
         id="path552" />
      <path
         d="M885.2389 54.548 L975.2389 54.548 L975.2389 79.548 L885.2389 79.548 L885.2389 54.548 Z"
         style="fill:none; clip-path:url(#clipPath57); stroke:black;"
         clip-path="url(#clipPath57)"
         id="path554" />
      <text
         x="907"
         y="71"
         style="fill:black; clip-path:url(#clipPath57); stroke:none;"
         xml:space="preserve"
         clip-path="url(#clipPath57)"
         id="text556">PLA2G6</text>
    </g>
    <g
       style="fill:white; text-rendering:geometricPrecision; stroke:white;"
       id="g566">
      <path
         d="M885.2389 79.548 L975.2389 79.548 L975.2389 104.548 L885.2389 104.548 L885.2389 79.548 Z"
         style="clip-path:url(#clipPath58); stroke:none;"
         clip-path="url(#clipPath58)"
         id="path560" />
      <path
         d="M885.2389 79.548 L975.2389 79.548 L975.2389 104.548 L885.2389 104.548 L885.2389 79.548 Z"
         style="fill:none; clip-path:url(#clipPath58); stroke:black;"
         clip-path="url(#clipPath58)"
         id="path562" />
      <text
         x="907"
         y="96"
         style="fill:black; clip-path:url(#clipPath58); stroke:none;"
         xml:space="preserve"
         clip-path="url(#clipPath58)"
         id="text564">PLA2G7</text>
    </g>
    <g
       style="fill:white; text-rendering:geometricPrecision; stroke:white;"
       id="g574">
      <path
         d="M885.2389 104.548 L975.2389 104.548 L975.2389 129.548 L885.2389 129.548 L885.2389 104.548 Z"
         style="clip-path:url(#clipPath59); stroke:none;"
         clip-path="url(#clipPath59)"
         id="path568" />
      <path
         d="M885.2389 104.548 L975.2389 104.548 L975.2389 129.548 L885.2389 129.548 L885.2389 104.548 Z"
         style="fill:none; clip-path:url(#clipPath59); stroke:black;"
         clip-path="url(#clipPath59)"
         id="path570" />
      <text
         x="903"
         y="121"
         style="fill:black; clip-path:url(#clipPath59); stroke:none;"
         xml:space="preserve"
         clip-path="url(#clipPath59)"
         id="text572">PLA2G10</text>
    </g>
    <g
       style="fill:white; text-rendering:geometricPrecision; stroke:white;"
       id="g582">
      <path
         d="M975.2389 29.548 L1065.2389 29.548 L1065.2389 54.548 L975.2389 54.548 L975.2389 29.548 Z"
         style="clip-path:url(#clipPath60); stroke:none;"
         clip-path="url(#clipPath60)"
         id="path576" />
      <path
         d="M975.2389 29.548 L1065.2389 29.548 L1065.2389 54.548 L975.2389 54.548 L975.2389 29.548 Z"
         style="fill:none; clip-path:url(#clipPath60); stroke:black;"
         clip-path="url(#clipPath60)"
         id="path578" />
      <text
         x="989"
         y="46"
         style="fill:black; clip-path:url(#clipPath60); stroke:none;"
         xml:space="preserve"
         clip-path="url(#clipPath60)"
         id="text580">PLA2G12A</text>
    </g>
    <g
       style="fill:white; text-rendering:geometricPrecision; stroke:white;"
       id="g590">
      <path
         d="M975.2389 54.548 L1065.2389 54.548 L1065.2389 79.548 L975.2389 79.548 L975.2389 54.548 Z"
         style="clip-path:url(#clipPath61); stroke:none;"
         clip-path="url(#clipPath61)"
         id="path584" />
      <path
         d="M975.2389 54.548 L1065.2389 54.548 L1065.2389 79.548 L975.2389 79.548 L975.2389 54.548 Z"
         style="fill:none; clip-path:url(#clipPath61); stroke:black;"
         clip-path="url(#clipPath61)"
         id="path586" />
      <text
         x="989"
         y="71"
         style="fill:black; clip-path:url(#clipPath61); stroke:none;"
         xml:space="preserve"
         clip-path="url(#clipPath61)"
         id="text588">PLA2G12B</text>
    </g>
    <g
       style="fill:white; text-rendering:geometricPrecision; stroke:white;"
       id="g598">
      <path
         d="M705.2389 29.548 L795.2389 29.548 L795.2389 54.548 L705.2389 54.548 L705.2389 29.548 Z"
         style="clip-path:url(#clipPath62); stroke:none;"
         clip-path="url(#clipPath62)"
         id="path592" />
      <path
         d="M705.2389 29.548 L795.2389 29.548 L795.2389 54.548 L705.2389 54.548 L705.2389 29.548 Z"
         style="fill:none; clip-path:url(#clipPath62); stroke:black;"
         clip-path="url(#clipPath62)"
         id="path594" />
      <text
         x="723"
         y="46"
         style="fill:black; clip-path:url(#clipPath62); stroke:none;"
         xml:space="preserve"
         clip-path="url(#clipPath62)"
         id="text596">PLA2G1B</text>
    </g>
  </g>
</svg>
