<?xml version="1.0" encoding="UTF-8" standalone="no"?>
<svg
   style="fill-opacity:1; color-rendering:auto; color-interpolation:auto; stroke:black; text-rendering:auto; stroke-linecap:square; stroke-miterlimit:10; stroke-opacity:1; shape-rendering:auto; fill:black; stroke-dasharray:none; font-weight:normal; stroke-width:1; font-family:'Dialog'; font-style:normal; stroke-linejoin:miter; font-size:12; stroke-dashoffset:0; image-rendering:auto;"
   width="819"
   height="677"
   version="1.1"
   id="svg379"
   xmlns="http://www.w3.org/2000/svg"
   xmlns:svg="http://www.w3.org/2000/svg">
  <!--Generated by the Batik Graphics2D SVG Generator-->
  <defs
     id="genericDefs" />
  <g
     id="g377">
    <defs
       id="defs1">
      <clipPath
         clipPathUnits="userSpaceOnUse"
         id="clipPath1">
        <path
           d="M0 0 L835 0 L835 693 L0 693 L0 0 Z"
           id="path3" />
      </clipPath>
      <clipPath
         clipPathUnits="userSpaceOnUse"
         id="clipPath2">
        <path
           d="M0 0 L0 200 L200 200 L200 0 Z"
           id="path6" />
      </clipPath>
      <clipPath
         clipPathUnits="userSpaceOnUse"
         id="clipPath3">
        <path
           d="M221 16 L221 37 L242 37 L242 16 Z"
           id="path9" />
      </clipPath>
      <clipPath
         clipPathUnits="userSpaceOnUse"
         id="clipPath4">
        <path
           d="M221.4668 3.918 L240.5332 3.918 L240.5332 19.2305 L221.4668 19.2305 L221.4668 3.918 Z"
           id="path12" />
      </clipPath>
      <clipPath
         clipPathUnits="userSpaceOnUse"
         id="clipPath5">
        <path
           d="M315.3935 117.8913 L315.3935 130.2338 L373.7289 130.2338 L373.7289 117.8913 Z"
           id="path15" />
      </clipPath>
      <clipPath
         clipPathUnits="userSpaceOnUse"
         id="clipPath6">
        <path
           d="M598.4241 309.8756 L598.4241 321.8138 L719.3057 321.8138 L719.3057 309.8756 Z"
           id="path18" />
      </clipPath>
      <clipPath
         clipPathUnits="userSpaceOnUse"
         id="clipPath7">
        <path
           d="M47.1554 461.6087 L47.1554 528.5208 L170.9616 528.5208 L170.9616 461.6087 Z"
           id="path21" />
      </clipPath>
      <clipPath
         clipPathUnits="userSpaceOnUse"
         id="clipPath8">
        <path
           d="M360.2244 315.2244 L360.2244 449.1609 L479.7043 449.1609 L479.7043 315.2244 Z"
           id="path24" />
      </clipPath>
      <clipPath
         clipPathUnits="userSpaceOnUse"
         id="clipPath9">
        <path
           d="M359.4198 305.0466 L359.4198 324.8624 L520.7216 324.8624 L520.7216 305.0466 Z"
           id="path27" />
      </clipPath>
      <clipPath
         clipPathUnits="userSpaceOnUse"
         id="clipPath10">
        <path
           d="M188.7622 327.7238 L188.7622 441.523 L294.137 441.523 L294.137 327.7238 Z"
           id="path30" />
      </clipPath>
      <clipPath
         clipPathUnits="userSpaceOnUse"
         id="clipPath11">
        <path
           d="M310.3571 73.4184 L310.3571 205.78 L322.2959 205.78 L322.2959 73.4184 Z"
           id="path33" />
      </clipPath>
      <clipPath
         clipPathUnits="userSpaceOnUse"
         id="clipPath12">
        <path
           d="M178.2398 462.04 L178.2398 534.7416 L198.0109 534.7416 L198.0109 462.04 Z"
           id="path36" />
      </clipPath>
      <clipPath
         clipPathUnits="userSpaceOnUse"
         id="clipPath13">
        <path
           d="M639.9396 275.7079 L639.9396 316.202 L651.3397 316.202 L651.3397 275.7079 Z"
           id="path39" />
      </clipPath>
      <clipPath
         clipPathUnits="userSpaceOnUse"
         id="clipPath14">
        <path
           d="M315.1886 252.6448 L315.1886 267.4326 L367.9299 267.4326 L367.9299 252.6448 Z"
           id="path42" />
      </clipPath>
      <clipPath
         clipPathUnits="userSpaceOnUse"
         id="clipPath15">
        <path
           d="M52.4049 546.3889 L52.4049 649.875 L72.1863 649.875 L72.1863 546.3889 Z"
           id="path45" />
      </clipPath>
      <clipPath
         clipPathUnits="userSpaceOnUse"
         id="clipPath16">
        <path
           d="M211.9784 461.6838 L211.9784 528.2065 L371.0345 528.2065 L371.0345 461.6838 Z"
           id="path48" />
      </clipPath>
      <clipPath
         clipPathUnits="userSpaceOnUse"
         id="clipPath17">
        <path
           d="M310.0102 226.3463 L310.0102 307.3614 L321.9489 307.3614 L321.9489 226.3463 Z"
           id="path51" />
      </clipPath>
      <clipPath
         clipPathUnits="userSpaceOnUse"
         id="clipPath18">
        <path
           d="M192.1594 361.318 L192.1594 377.3766 L253.6058 377.3766 L253.6058 361.318 Z"
           id="path54" />
      </clipPath>
      <clipPath
         clipPathUnits="userSpaceOnUse"
         id="clipPath19">
        <path
           d="M406.4906 362.5146 L406.4906 373.9148 L458.1681 373.9148 L458.1681 362.5146 Z"
           id="path57" />
      </clipPath>
      <clipPath
         clipPathUnits="userSpaceOnUse"
         id="clipPath20">
        <path
           d="M17.4183 637.6024 L17.4183 663.6024 L108.4183 663.6024 L108.4183 637.6024 Z"
           id="path60" />
      </clipPath>
      <clipPath
         clipPathUnits="userSpaceOnUse"
         id="clipPath21">
        <path
           d="M508.4286 301.88 L508.4286 327.88 L599.4286 327.88 L599.4286 301.88 Z"
           id="path63" />
      </clipPath>
      <clipPath
         clipPathUnits="userSpaceOnUse"
         id="clipPath22">
        <path
           d="M270.8265 201.3489 L270.8265 227.3489 L361.8265 227.3489 L361.8265 201.3489 Z"
           id="path66" />
      </clipPath>
      <clipPath
         clipPathUnits="userSpaceOnUse"
         id="clipPath23">
        <path
           d="M12.0636 522.4752 L12.0636 548.4752 L103.0636 548.4752 L103.0636 522.4752 Z"
           id="path69" />
      </clipPath>
      <clipPath
         clipPathUnits="userSpaceOnUse"
         id="clipPath24">
        <path
           d="M141.9163 522.4752 L141.9163 548.4752 L232.9163 548.4752 L232.9163 522.4752 Z"
           id="path72" />
      </clipPath>
      <clipPath
         clipPathUnits="userSpaceOnUse"
         id="clipPath25">
        <path
           d="M374.8481 241.3507 L374.8481 267.3507 L465.8481 267.3507 L465.8481 241.3507 Z"
           id="path75" />
      </clipPath>
      <clipPath
         clipPathUnits="userSpaceOnUse"
         id="clipPath26">
        <path
           d="M129.8681 361.3976 L129.8681 387.3976 L185.239 387.3976 L185.239 361.3976 Z"
           id="path78" />
      </clipPath>
      <clipPath
         clipPathUnits="userSpaceOnUse"
         id="clipPath27">
        <path
           d="M145.9324 438.1379 L145.9324 464.1379 L236.9324 464.1379 L236.9324 438.1379 Z"
           id="path81" />
      </clipPath>
      <clipPath
         clipPathUnits="userSpaceOnUse"
         id="clipPath28">
        <path
           d="M270.4304 302.9304 L270.4304 328.9304 L361.4304 328.9304 L361.4304 302.9304 Z"
           id="path84" />
      </clipPath>
      <clipPath
         clipPathUnits="userSpaceOnUse"
         id="clipPath29">
        <path
           d="M714.8748 302.9304 L714.8748 328.9304 L805.8748 328.9304 L805.8748 302.9304 Z"
           id="path87" />
      </clipPath>
      <clipPath
         clipPathUnits="userSpaceOnUse"
         id="clipPath30">
        <path
           d="M601.0864 250.7216 L601.0864 276.7216 L692.0864 276.7216 L692.0864 250.7216 Z"
           id="path90" />
      </clipPath>
      <clipPath
         clipPathUnits="userSpaceOnUse"
         id="clipPath31">
        <path
           d="M314.6071 522.4752 L314.6071 548.4752 L405.6071 548.4752 L405.6071 522.4752 Z"
           id="path93" />
      </clipPath>
      <clipPath
         clipPathUnits="userSpaceOnUse"
         id="clipPath32">
        <path
           d="M476.5883 439.4766 L476.5883 465.4766 L567.5884 465.4766 L567.5884 439.4766 Z"
           id="path96" />
      </clipPath>
      <clipPath
         clipPathUnits="userSpaceOnUse"
         id="clipPath33">
        <path
           d="M129.8681 336.3976 L129.8681 362.3976 L185.239 362.3976 L185.239 336.3976 Z"
           id="path99" />
      </clipPath>
      <clipPath
         clipPathUnits="userSpaceOnUse"
         id="clipPath34">
        <path
           d="M374.8481 266.3507 L374.8481 292.3507 L465.8481 292.3507 L465.8481 266.3507 Z"
           id="path102" />
      </clipPath>
      <clipPath
         clipPathUnits="userSpaceOnUse"
         id="clipPath35">
        <path
           d="M270.8265 48.4184 L270.8265 74.4184 L361.8265 74.4184 L361.8265 48.4184 Z"
           id="path105" />
      </clipPath>
      <clipPath
         clipPathUnits="userSpaceOnUse"
         id="clipPath36">
        <path
           d="M372.6742 111.6959 L372.6742 137.6959 L434.2586 137.6959 L434.2586 111.6959 Z"
           id="path108" />
      </clipPath>
      <clipPath
         clipPathUnits="userSpaceOnUse"
         id="clipPath37">
        <path
           d="M457.1512 356.7864 L457.1512 382.7864 L548.1512 382.7864 L548.1512 356.7864 Z"
           id="path111" />
      </clipPath>
    </defs>
    <g
       style="fill:white; stroke:white;"
       id="g117">
      <rect
         x="0"
         width="835"
         height="693"
         y="0"
         style="stroke:none;"
         id="rect115" />
    </g>
    <g
       style="font-weight:bold; font-size:10; text-rendering:geometricPrecision;"
       id="g127">
      <path
         d="M0.0469 6.7031 L6.7656 6.7031 L6.7656 8.125 L4.3438 8.125 L4.3438 14 L2.4688 14 L2.4688 8.125 L0.0469 8.125 L0.0469 6.7031 ZM7.665 8.5312 L9.415 8.5312 L9.415 14 L7.665 14 L7.665 8.5312 ZM7.665 6.4062 L9.415 6.4062 L9.415 7.8281 L7.665 7.8281 L7.665 6.4062 ZM12.999 6.9844 L12.999 8.5312 L14.7959 8.5312 L14.7959 9.7812 L12.999 9.7812 L12.999 12.0938 Q12.999 12.4844 13.1475 12.6172 Q13.2959 12.75 13.749 12.75 L14.6553 12.75 L14.6553 14 L13.1553 14 Q12.1084 14 11.6787 13.5703 Q11.249 13.1406 11.249 12.0938 L11.249 9.7812 L10.374 9.7812 L10.374 8.5312 L11.249 8.5312 L11.249 6.9844 L12.999 6.9844 ZM15.873 6.4062 L17.623 6.4062 L17.623 14 L15.873 14 L15.873 6.4062 ZM24.7539 11.25 L24.7539 11.75 L20.6758 11.75 Q20.7383 12.3594 21.1133 12.6719 Q21.4883 12.9844 22.1758 12.9844 Q22.7227 12.9844 23.3086 12.8203 Q23.8945 12.6562 24.5039 12.3125 L24.5039 13.6719 Q23.8789 13.9062 23.2617 14.0234 Q22.6445 14.1406 22.0195 14.1406 Q20.5352 14.1406 19.7148 13.3828 Q18.8945 12.625 18.8945 11.2656 Q18.8945 9.9375 19.6992 9.1719 Q20.5039 8.4062 21.9258 8.4062 Q23.207 8.4062 23.9805 9.1797 Q24.7539 9.9531 24.7539 11.25 ZM22.957 10.6719 Q22.957 10.1719 22.668 9.8672 Q22.3789 9.5625 21.9102 9.5625 Q21.3945 9.5625 21.082 9.8438 Q20.7695 10.125 20.6914 10.6719 L22.957 10.6719 ZM26.3643 8.5312 L28.1143 8.5312 L28.1143 10.4219 L26.3643 10.4219 L26.3643 8.5312 ZM26.3643 12.1094 L28.1143 12.1094 L28.1143 14 L26.3643 14 L26.3643 12.1094 Z"
         style="clip-path:url(#clipPath2); stroke:none;"
         clip-path="url(#clipPath2)"
         id="path119" />
      <path
         d="M38.9844 6.7031 L39.9688 6.7031 L39.9688 13.1719 L43.5156 13.1719 L43.5156 14 L38.9844 14 L38.9844 6.7031 ZM46.9932 11.25 Q45.915 11.25 45.4932 11.5 Q45.0713 11.75 45.0713 12.3438 Q45.0713 12.8281 45.3838 13.1094 Q45.6963 13.3906 46.2432 13.3906 Q46.9932 13.3906 47.4463 12.8594 Q47.8994 12.3281 47.8994 11.4531 L47.8994 11.25 L46.9932 11.25 ZM48.79 10.875 L48.79 14 L47.8994 14 L47.8994 13.1719 Q47.5869 13.6719 47.126 13.9062 Q46.665 14.1406 46.0088 14.1406 Q45.165 14.1406 44.665 13.6719 Q44.165 13.2031 44.165 12.4062 Q44.165 11.4844 44.79 11.0156 Q45.415 10.5469 46.6338 10.5469 L47.8994 10.5469 L47.8994 10.4531 Q47.8994 9.8438 47.4854 9.5 Q47.0713 9.1562 46.3369 9.1562 Q45.8682 9.1562 45.4229 9.2734 Q44.9775 9.3906 44.5713 9.6094 L44.5713 8.7812 Q45.0713 8.5938 45.5322 8.5 Q45.9932 8.4062 46.4307 8.4062 Q47.6182 8.4062 48.2041 9.0156 Q48.79 9.625 48.79 10.875 ZM54.5742 8.7344 L54.5742 9.5781 Q54.1992 9.375 53.8164 9.2656 Q53.4336 9.1562 53.043 9.1562 Q52.168 9.1562 51.6836 9.7109 Q51.1992 10.2656 51.1992 11.2656 Q51.1992 12.2656 51.6836 12.8203 Q52.168 13.375 53.043 13.375 Q53.4336 13.375 53.8164 13.2734 Q54.1992 13.1719 54.5742 12.9531 L54.5742 13.7969 Q54.1992 13.9688 53.8008 14.0547 Q53.4023 14.1406 52.9492 14.1406 Q51.6992 14.1406 50.9727 13.3672 Q50.2461 12.5938 50.2461 11.2656 Q50.2461 9.9375 50.9805 9.1719 Q51.7148 8.4062 52.9961 8.4062 Q53.418 8.4062 53.8086 8.4844 Q54.1992 8.5625 54.5742 8.7344 ZM57.0254 6.9844 L57.0254 8.5312 L58.8848 8.5312 L58.8848 9.2344 L57.0254 9.2344 L57.0254 12.2031 Q57.0254 12.8594 57.2129 13.0547 Q57.4004 13.25 57.9629 13.25 L58.8848 13.25 L58.8848 14 L57.9629 14 Q56.916 14 56.5176 13.6094 Q56.1191 13.2188 56.1191 12.2031 L56.1191 9.2344 L55.4629 9.2344 L55.4629 8.5312 L56.1191 8.5312 L56.1191 6.9844 L57.0254 6.9844 ZM62.1807 9.1562 Q61.4619 9.1562 61.04 9.7188 Q60.6182 10.2812 60.6182 11.2656 Q60.6182 12.25 61.0322 12.8125 Q61.4463 13.375 62.1807 13.375 Q62.8994 13.375 63.3213 12.8125 Q63.7432 12.25 63.7432 11.2656 Q63.7432 10.2969 63.3213 9.7266 Q62.8994 9.1562 62.1807 9.1562 ZM62.1807 8.4062 Q63.3525 8.4062 64.0244 9.1641 Q64.6963 9.9219 64.6963 11.2656 Q64.6963 12.6094 64.0244 13.375 Q63.3525 14.1406 62.1807 14.1406 Q61.0088 14.1406 60.3369 13.375 Q59.665 12.6094 59.665 11.2656 Q59.665 9.9219 60.3369 9.1641 Q61.0088 8.4062 62.1807 8.4062 ZM72.8369 8.6875 L72.8369 9.5469 Q72.4619 9.3438 72.0557 9.25 Q71.6494 9.1562 71.1963 9.1562 Q70.54 9.1562 70.2041 9.3594 Q69.8682 9.5625 69.8682 9.9688 Q69.8682 10.2812 70.1025 10.4609 Q70.3369 10.6406 71.0713 10.7969 L71.3682 10.875 Q72.3369 11.0781 72.7354 11.4531 Q73.1338 11.8281 73.1338 12.4844 Q73.1338 13.25 72.5322 13.6953 Q71.9307 14.1406 70.8838 14.1406 Q70.4307 14.1406 69.9541 14.0547 Q69.4775 13.9688 68.9619 13.7969 L68.9619 12.875 Q69.4619 13.125 69.9385 13.2578 Q70.415 13.3906 70.8994 13.3906 Q71.5244 13.3906 71.8682 13.1719 Q72.2119 12.9531 72.2119 12.5625 Q72.2119 12.1875 71.9697 11.9922 Q71.7275 11.7969 70.8838 11.625 L70.5713 11.5469 Q69.7432 11.375 69.3682 11.0078 Q68.9932 10.6406 68.9932 10.0156 Q68.9932 9.2344 69.54 8.8203 Q70.0869 8.4062 71.1025 8.4062 Q71.5869 8.4062 72.0322 8.4766 Q72.4775 8.5469 72.8369 8.6875 ZM79.25 11.0469 L79.25 11.4844 L75.1094 11.4844 Q75.1719 12.4062 75.6719 12.8906 Q76.1719 13.375 77.0625 13.375 Q77.5781 13.375 78.0703 13.25 Q78.5625 13.125 79.0312 12.875 L79.0312 13.7188 Q78.5469 13.9219 78.0391 14.0312 Q77.5312 14.1406 77.0156 14.1406 Q75.7031 14.1406 74.9375 13.3828 Q74.1719 12.625 74.1719 11.3125 Q74.1719 9.9688 74.8984 9.1875 Q75.625 8.4062 76.8594 8.4062 Q77.9688 8.4062 78.6094 9.1094 Q79.25 9.8125 79.25 11.0469 ZM78.3438 10.7812 Q78.3438 10.0469 77.9375 9.6016 Q77.5312 9.1562 76.875 9.1562 Q76.1094 9.1562 75.6641 9.5859 Q75.2188 10.0156 75.1406 10.7812 L78.3438 10.7812 ZM83.8867 9.375 Q83.7305 9.2812 83.5586 9.2422 Q83.3867 9.2031 83.168 9.2031 Q82.4023 9.2031 81.9961 9.6953 Q81.5898 10.1875 81.5898 11.125 L81.5898 14 L80.6836 14 L80.6836 8.5312 L81.5898 8.5312 L81.5898 9.375 Q81.8711 8.875 82.3242 8.6406 Q82.7773 8.4062 83.4336 8.4062 Q83.5273 8.4062 83.6367 8.4141 Q83.7461 8.4219 83.8867 8.4531 L83.8867 9.375 ZM84.8262 8.5312 L85.7324 8.5312 L85.7324 14 L84.8262 14 L84.8262 8.5312 ZM84.8262 6.4062 L85.7324 6.4062 L85.7324 7.5469 L84.8262 7.5469 L84.8262 6.4062 ZM92.292 11.0469 L92.292 11.4844 L88.1514 11.4844 Q88.2139 12.4062 88.7139 12.8906 Q89.2139 13.375 90.1045 13.375 Q90.6201 13.375 91.1123 13.25 Q91.6045 13.125 92.0732 12.875 L92.0732 13.7188 Q91.5889 13.9219 91.0811 14.0312 Q90.5732 14.1406 90.0576 14.1406 Q88.7451 14.1406 87.9795 13.3828 Q87.2139 12.625 87.2139 11.3125 Q87.2139 9.9688 87.9404 9.1875 Q88.667 8.4062 89.9014 8.4062 Q91.0107 8.4062 91.6514 9.1094 Q92.292 9.8125 92.292 11.0469 ZM91.3857 10.7812 Q91.3857 10.0469 90.9795 9.6016 Q90.5732 9.1562 89.917 9.1562 Q89.1514 9.1562 88.7061 9.5859 Q88.2607 10.0156 88.1826 10.7812 L91.3857 10.7812 ZM97.2412 8.6875 L97.2412 9.5469 Q96.8662 9.3438 96.46 9.25 Q96.0537 9.1562 95.6006 9.1562 Q94.9443 9.1562 94.6084 9.3594 Q94.2725 9.5625 94.2725 9.9688 Q94.2725 10.2812 94.5068 10.4609 Q94.7412 10.6406 95.4756 10.7969 L95.7725 10.875 Q96.7412 11.0781 97.1396 11.4531 Q97.5381 11.8281 97.5381 12.4844 Q97.5381 13.25 96.9365 13.6953 Q96.335 14.1406 95.2881 14.1406 Q94.835 14.1406 94.3584 14.0547 Q93.8818 13.9688 93.3662 13.7969 L93.3662 12.875 Q93.8662 13.125 94.3428 13.2578 Q94.8193 13.3906 95.3037 13.3906 Q95.9287 13.3906 96.2725 13.1719 Q96.6162 12.9531 96.6162 12.5625 Q96.6162 12.1875 96.374 11.9922 Q96.1318 11.7969 95.2881 11.625 L94.9756 11.5469 Q94.1475 11.375 93.7725 11.0078 Q93.3975 10.6406 93.3975 10.0156 Q93.3975 9.2344 93.9443 8.8203 Q94.4912 8.4062 95.5068 8.4062 Q95.9912 8.4062 96.4365 8.4766 Q96.8818 8.5469 97.2412 8.6875 ZM105.6299 8.6875 L105.6299 9.5469 Q105.2549 9.3438 104.8486 9.25 Q104.4424 9.1562 103.9893 9.1562 Q103.333 9.1562 102.9971 9.3594 Q102.6611 9.5625 102.6611 9.9688 Q102.6611 10.2812 102.8955 10.4609 Q103.1299 10.6406 103.8643 10.7969 L104.1611 10.875 Q105.1299 11.0781 105.5283 11.4531 Q105.9268 11.8281 105.9268 12.4844 Q105.9268 13.25 105.3252 13.6953 Q104.7236 14.1406 103.6768 14.1406 Q103.2236 14.1406 102.7471 14.0547 Q102.2705 13.9688 101.7549 13.7969 L101.7549 12.875 Q102.2549 13.125 102.7314 13.2578 Q103.208 13.3906 103.6924 13.3906 Q104.3174 13.3906 104.6611 13.1719 Q105.0049 12.9531 105.0049 12.5625 Q105.0049 12.1875 104.7627 11.9922 Q104.5205 11.7969 103.6768 11.625 L103.3643 11.5469 Q102.5361 11.375 102.1611 11.0078 Q101.7861 10.6406 101.7861 10.0156 Q101.7861 9.2344 102.333 8.8203 Q102.8799 8.4062 103.8955 8.4062 Q104.3799 8.4062 104.8252 8.4766 Q105.2705 8.5469 105.6299 8.6875 ZM108.2305 13.1719 L108.2305 16.0781 L107.3242 16.0781 L107.3242 8.5312 L108.2305 8.5312 L108.2305 9.3594 Q108.5117 8.875 108.9414 8.6406 Q109.3711 8.4062 109.9805 8.4062 Q110.9805 8.4062 111.5977 9.1953 Q112.2148 9.9844 112.2148 11.2656 Q112.2148 12.5625 111.5977 13.3516 Q110.9805 14.1406 109.9805 14.1406 Q109.3711 14.1406 108.9414 13.9062 Q108.5117 13.6719 108.2305 13.1719 ZM111.293 11.2656 Q111.293 10.2812 110.8789 9.7188 Q110.4648 9.1562 109.7617 9.1562 Q109.043 9.1562 108.6367 9.7188 Q108.2305 10.2812 108.2305 11.2656 Q108.2305 12.2656 108.6367 12.8281 Q109.043 13.3906 109.7617 13.3906 Q110.4648 13.3906 110.8789 12.8281 Q111.293 12.2656 111.293 11.2656 ZM118.25 10.7031 L118.25 14 L117.3594 14 L117.3594 10.7344 Q117.3594 9.9531 117.0547 9.5703 Q116.75 9.1875 116.1406 9.1875 Q115.4219 9.1875 115 9.6484 Q114.5781 10.1094 114.5781 10.9062 L114.5781 14 L113.6719 14 L113.6719 6.4062 L114.5781 6.4062 L114.5781 9.375 Q114.9062 8.8906 115.3438 8.6484 Q115.7812 8.4062 116.3438 8.4062 Q117.2812 8.4062 117.7656 8.9844 Q118.25 9.5625 118.25 10.7031 ZM120.041 8.5312 L120.9473 8.5312 L120.9473 14 L120.041 14 L120.041 8.5312 ZM120.041 6.4062 L120.9473 6.4062 L120.9473 7.5469 L120.041 7.5469 L120.041 6.4062 ZM127.3662 10.7031 L127.3662 14 L126.4756 14 L126.4756 10.7344 Q126.4756 9.9531 126.1709 9.5703 Q125.8662 9.1875 125.2568 9.1875 Q124.5381 9.1875 124.1162 9.6484 Q123.6943 10.1094 123.6943 10.9062 L123.6943 14 L122.7881 14 L122.7881 8.5312 L123.6943 8.5312 L123.6943 9.375 Q124.0225 8.8906 124.46 8.6484 Q124.8975 8.4062 125.46 8.4062 Q126.3975 8.4062 126.8818 8.9844 Q127.3662 9.5625 127.3662 10.7031 ZM132.7666 11.2031 Q132.7666 10.2188 132.3604 9.6875 Q131.9541 9.1562 131.2354 9.1562 Q130.501 9.1562 130.1025 9.6875 Q129.7041 10.2188 129.7041 11.2031 Q129.7041 12.1719 130.1025 12.7109 Q130.501 13.25 131.2354 13.25 Q131.9541 13.25 132.3604 12.7109 Q132.7666 12.1719 132.7666 11.2031 ZM133.6572 13.3281 Q133.6572 14.7188 133.04 15.3984 Q132.4229 16.0781 131.1416 16.0781 Q130.6729 16.0781 130.251 16.0078 Q129.8291 15.9375 129.4385 15.7969 L129.4385 14.9219 Q129.8291 15.1406 130.2119 15.2422 Q130.5947 15.3438 131.001 15.3438 Q131.876 15.3438 132.3213 14.8828 Q132.7666 14.4219 132.7666 13.4844 L132.7666 13.0312 Q132.4854 13.5156 132.0479 13.7578 Q131.6104 14 131.001 14 Q130.001 14 129.3838 13.2344 Q128.7666 12.4688 128.7666 11.2031 Q128.7666 9.9375 129.3838 9.1719 Q130.001 8.4062 131.001 8.4062 Q131.6104 8.4062 132.0479 8.6406 Q132.4854 8.875 132.7666 9.3594 L132.7666 8.5312 L133.6572 8.5312 L133.6572 13.3281 ZM137.6299 9.1562 Q136.9111 9.1562 136.4893 9.7188 Q136.0674 10.2812 136.0674 11.2656 Q136.0674 12.25 136.4814 12.8125 Q136.8955 13.375 137.6299 13.375 Q138.3486 13.375 138.7705 12.8125 Q139.1924 12.25 139.1924 11.2656 Q139.1924 10.2969 138.7705 9.7266 Q138.3486 9.1562 137.6299 9.1562 ZM137.6299 8.4062 Q138.8018 8.4062 139.4736 9.1641 Q140.1455 9.9219 140.1455 11.2656 Q140.1455 12.6094 139.4736 13.375 Q138.8018 14.1406 137.6299 14.1406 Q136.458 14.1406 135.7861 13.375 Q135.1143 12.6094 135.1143 11.2656 Q135.1143 9.9219 135.7861 9.1641 Q136.458 8.4062 137.6299 8.4062 ZM141.623 6.4062 L142.5293 6.4062 L142.5293 14 L141.623 14 L141.623 6.4062 ZM144.4014 8.5312 L145.3076 8.5312 L145.3076 14 L144.4014 14 L144.4014 8.5312 ZM144.4014 6.4062 L145.3076 6.4062 L145.3076 7.5469 L144.4014 7.5469 L144.4014 6.4062 ZM148.0547 13.1719 L148.0547 16.0781 L147.1484 16.0781 L147.1484 8.5312 L148.0547 8.5312 L148.0547 9.3594 Q148.3359 8.875 148.7656 8.6406 Q149.1953 8.4062 149.8047 8.4062 Q150.8047 8.4062 151.4219 9.1953 Q152.0391 9.9844 152.0391 11.2656 Q152.0391 12.5625 151.4219 13.3516 Q150.8047 14.1406 149.8047 14.1406 Q149.1953 14.1406 148.7656 13.9062 Q148.3359 13.6719 148.0547 13.1719 ZM151.1172 11.2656 Q151.1172 10.2812 150.7031 9.7188 Q150.2891 9.1562 149.5859 9.1562 Q148.8672 9.1562 148.4609 9.7188 Q148.0547 10.2812 148.0547 11.2656 Q148.0547 12.2656 148.4609 12.8281 Q148.8672 13.3906 149.5859 13.3906 Q150.2891 13.3906 150.7031 12.8281 Q151.1172 12.2656 151.1172 11.2656 ZM153.5273 8.5312 L154.4336 8.5312 L154.4336 14 L153.5273 14 L153.5273 8.5312 ZM153.5273 6.4062 L154.4336 6.4062 L154.4336 7.5469 L153.5273 7.5469 L153.5273 6.4062 ZM159.915 9.3594 L159.915 6.4062 L160.8057 6.4062 L160.8057 14 L159.915 14 L159.915 13.1719 Q159.6338 13.6719 159.1963 13.9062 Q158.7588 14.1406 158.1494 14.1406 Q157.165 14.1406 156.54 13.3516 Q155.915 12.5625 155.915 11.2656 Q155.915 9.9844 156.54 9.1953 Q157.165 8.4062 158.1494 8.4062 Q158.7588 8.4062 159.1963 8.6406 Q159.6338 8.875 159.915 9.3594 ZM156.8525 11.2656 Q156.8525 12.2656 157.2588 12.8281 Q157.665 13.3906 158.3838 13.3906 Q159.0869 13.3906 159.501 12.8281 Q159.915 12.2656 159.915 11.2656 Q159.915 10.2812 159.501 9.7188 Q159.0869 9.1562 158.3838 9.1562 Q157.665 9.1562 157.2588 9.7188 Q156.8525 10.2812 156.8525 11.2656 ZM170.0977 9.5781 Q170.4258 8.9688 170.8945 8.6875 Q171.3633 8.4062 172.0039 8.4062 Q172.8633 8.4062 173.3242 9 Q173.7852 9.5938 173.7852 10.7031 L173.7852 14 L172.8789 14 L172.8789 10.7344 Q172.8789 9.9375 172.6055 9.5625 Q172.332 9.1875 171.7539 9.1875 Q171.0508 9.1875 170.6523 9.6484 Q170.2539 10.1094 170.2539 10.9062 L170.2539 14 L169.3477 14 L169.3477 10.7344 Q169.3477 9.9375 169.0664 9.5625 Q168.7852 9.1875 168.207 9.1875 Q167.5195 9.1875 167.1133 9.6484 Q166.707 10.1094 166.707 10.9062 L166.707 14 L165.8008 14 L165.8008 8.5312 L166.707 8.5312 L166.707 9.375 Q167.0195 8.875 167.4492 8.6406 Q167.8789 8.4062 168.457 8.4062 Q169.0664 8.4062 169.4805 8.7031 Q169.8945 9 170.0977 9.5781 ZM180.2607 11.0469 L180.2607 11.4844 L176.1201 11.4844 Q176.1826 12.4062 176.6826 12.8906 Q177.1826 13.375 178.0732 13.375 Q178.5889 13.375 179.0811 13.25 Q179.5732 13.125 180.042 12.875 L180.042 13.7188 Q179.5576 13.9219 179.0498 14.0312 Q178.542 14.1406 178.0264 14.1406 Q176.7139 14.1406 175.9482 13.3828 Q175.1826 12.625 175.1826 11.3125 Q175.1826 9.9688 175.9092 9.1875 Q176.6357 8.4062 177.8701 8.4062 Q178.9795 8.4062 179.6201 9.1094 Q180.2607 9.8125 180.2607 11.0469 ZM179.3545 10.7812 Q179.3545 10.0469 178.9482 9.6016 Q178.542 9.1562 177.8857 9.1562 Q177.1201 9.1562 176.6748 9.5859 Q176.2295 10.0156 176.1514 10.7812 L179.3545 10.7812 ZM182.6162 6.9844 L182.6162 8.5312 L184.4756 8.5312 L184.4756 9.2344 L182.6162 9.2344 L182.6162 12.2031 Q182.6162 12.8594 182.8037 13.0547 Q182.9912 13.25 183.5537 13.25 L184.4756 13.25 L184.4756 14 L183.5537 14 Q182.5068 14 182.1084 13.6094 Q181.71 13.2188 181.71 12.2031 L181.71 9.2344 L181.0537 9.2344 L181.0537 8.5312 L181.71 8.5312 L181.71 6.9844 L182.6162 6.9844 ZM188.1309 11.25 Q187.0527 11.25 186.6309 11.5 Q186.209 11.75 186.209 12.3438 Q186.209 12.8281 186.5215 13.1094 Q186.834 13.3906 187.3809 13.3906 Q188.1309 13.3906 188.584 12.8594 Q189.0371 12.3281 189.0371 11.4531 L189.0371 11.25 L188.1309 11.25 ZM189.9277 10.875 L189.9277 14 L189.0371 14 L189.0371 13.1719 Q188.7246 13.6719 188.2637 13.9062 Q187.8027 14.1406 187.1465 14.1406 Q186.3027 14.1406 185.8027 13.6719 Q185.3027 13.2031 185.3027 12.4062 Q185.3027 11.4844 185.9277 11.0156 Q186.5527 10.5469 187.7715 10.5469 L189.0371 10.5469 L189.0371 10.4531 Q189.0371 9.8438 188.623 9.5 Q188.209 9.1562 187.4746 9.1562 Q187.0059 9.1562 186.5605 9.2734 Q186.1152 9.3906 185.709 9.6094 L185.709 8.7812 Q186.209 8.5938 186.6699 8.5 Q187.1309 8.4062 187.5684 8.4062 Q188.7559 8.4062 189.3418 9.0156 Q189.9277 9.625 189.9277 10.875 ZM195.7119 11.2656 Q195.7119 10.2812 195.2979 9.7188 Q194.8838 9.1562 194.1807 9.1562 Q193.4619 9.1562 193.0557 9.7188 Q192.6494 10.2812 192.6494 11.2656 Q192.6494 12.2656 193.0557 12.8281 Q193.4619 13.3906 194.1807 13.3906 Q194.8838 13.3906 195.2979 12.8281 Q195.7119 12.2656 195.7119 11.2656 ZM192.6494 9.3594 Q192.9307 8.875 193.3604 8.6406 Q193.79 8.4062 194.3994 8.4062 Q195.3994 8.4062 196.0166 9.1953 Q196.6338 9.9844 196.6338 11.2656 Q196.6338 12.5625 196.0166 13.3516 Q195.3994 14.1406 194.3994 14.1406 Q193.79 14.1406 193.3604 13.9062 Q192.9307 13.6719 192.6494 13.1719 L192.6494 14 L191.7432 14 L191.7432 6.4062 L192.6494 6.4062 L192.6494 9.3594 ZM200.2471 9.1562 Q199.5283 9.1562 199.1064 9.7188 Q198.6846 10.2812 198.6846 11.2656 Q198.6846 12.25 199.0986 12.8125 Q199.5127 13.375 200.2471 13.375 Q200.9658 13.375 201.3877 12.8125 Q201.8096 12.25 201.8096 11.2656 Q201.8096 10.2969 201.3877 9.7266 Q200.9658 9.1562 200.2471 9.1562 ZM200.2471 8.4062 Q201.4189 8.4062 202.0908 9.1641 Q202.7627 9.9219 202.7627 11.2656 Q202.7627 12.6094 202.0908 13.375 Q201.4189 14.1406 200.2471 14.1406 Q199.0752 14.1406 198.4033 13.375 Q197.7314 12.6094 197.7314 11.2656 Q197.7314 9.9219 198.4033 9.1641 Q199.0752 8.4062 200.2471 8.4062 ZM204.2402 6.4062 L205.1465 6.4062 L205.1465 14 L204.2402 14 L204.2402 6.4062 ZM207.0186 8.5312 L207.9248 8.5312 L207.9248 14 L207.0186 14 L207.0186 8.5312 ZM207.0186 6.4062 L207.9248 6.4062 L207.9248 7.5469 L207.0186 7.5469 L207.0186 6.4062 ZM213.2812 8.6875 L213.2812 9.5469 Q212.9062 9.3438 212.5 9.25 Q212.0938 9.1562 211.6406 9.1562 Q210.9844 9.1562 210.6484 9.3594 Q210.3125 9.5625 210.3125 9.9688 Q210.3125 10.2812 210.5469 10.4609 Q210.7812 10.6406 211.5156 10.7969 L211.8125 10.875 Q212.7812 11.0781 213.1797 11.4531 Q213.5781 11.8281 213.5781 12.4844 Q213.5781 13.25 212.9766 13.6953 Q212.375 14.1406 211.3281 14.1406 Q210.875 14.1406 210.3984 14.0547 Q209.9219 13.9688 209.4062 13.7969 L209.4062 12.875 Q209.9062 13.125 210.3828 13.2578 Q210.8594 13.3906 211.3438 13.3906 Q211.9688 13.3906 212.3125 13.1719 Q212.6562 12.9531 212.6562 12.5625 Q212.6562 12.1875 212.4141 11.9922 Q212.1719 11.7969 211.3281 11.625 L211.0156 11.5469 Q210.1875 11.375 209.8125 11.0078 Q209.4375 10.6406 209.4375 10.0156 Q209.4375 9.2344 209.9844 8.8203 Q210.5312 8.4062 211.5469 8.4062 Q212.0312 8.4062 212.4766 8.4766 Q212.9219 8.5469 213.2812 8.6875 ZM219.2725 9.5781 Q219.6006 8.9688 220.0693 8.6875 Q220.5381 8.4062 221.1787 8.4062 Q222.0381 8.4062 222.499 9 Q222.96 9.5938 222.96 10.7031 L222.96 14 L222.0537 14 L222.0537 10.7344 Q222.0537 9.9375 221.7803 9.5625 Q221.5068 9.1875 220.9287 9.1875 Q220.2256 9.1875 219.8271 9.6484 Q219.4287 10.1094 219.4287 10.9062 L219.4287 14 L218.5225 14 L218.5225 10.7344 Q218.5225 9.9375 218.2412 9.5625 Q217.96 9.1875 217.3818 9.1875 Q216.6943 9.1875 216.2881 9.6484 Q215.8818 10.1094 215.8818 10.9062 L215.8818 14 L214.9756 14 L214.9756 8.5312 L215.8818 8.5312 L215.8818 9.375 Q216.1943 8.875 216.624 8.6406 Q217.0537 8.4062 217.6318 8.4062 Q218.2412 8.4062 218.6553 8.7031 Q219.0693 9 219.2725 9.5781 Z"
         style="clip-path:url(#clipPath2); stroke:none;"
         clip-path="url(#clipPath2)"
         id="path121" />
      <path
         d="M4.25 21.9375 Q3.3906 21.9375 2.9141 22.5703 Q2.4375 23.2031 2.4375 24.3594 Q2.4375 25.5156 2.9141 26.1484 Q3.3906 26.7812 4.25 26.7812 Q5.1094 26.7812 5.5859 26.1484 Q6.0625 25.5156 6.0625 24.3594 Q6.0625 23.2031 5.5859 22.5703 Q5.1094 21.9375 4.25 21.9375 ZM4.25 20.5781 Q6 20.5781 7 21.5859 Q8 22.5938 8 24.3594 Q8 26.125 7 27.1328 Q6 28.1406 4.25 28.1406 Q2.5 28.1406 1.5 27.1328 Q0.5 26.125 0.5 24.3594 Q0.5 22.5938 1.5 21.5859 Q2.5 20.5781 4.25 20.5781 ZM13.4072 24.0156 Q13.1729 23.9062 12.9463 23.8594 Q12.7197 23.8125 12.4854 23.8125 Q11.8135 23.8125 11.4541 24.2422 Q11.0947 24.6719 11.0947 25.4844 L11.0947 28 L9.3447 28 L9.3447 22.5312 L11.0947 22.5312 L11.0947 23.4219 Q11.4229 22.8906 11.8604 22.6484 Q12.2979 22.4062 12.9072 22.4062 Q13.001 22.4062 13.1025 22.4062 Q13.2041 22.4062 13.3916 22.4375 L13.4072 24.0156 ZM17.9951 27.0781 Q17.6357 27.5469 17.1982 27.7734 Q16.7607 28 16.1982 28 Q15.1982 28 14.542 27.2109 Q13.8857 26.4219 13.8857 25.2031 Q13.8857 23.9688 14.542 23.1875 Q15.1982 22.4062 16.1982 22.4062 Q16.7607 22.4062 17.1982 22.6328 Q17.6357 22.8594 17.9951 23.3438 L17.9951 22.5312 L19.7451 22.5312 L19.7451 27.4531 Q19.7451 28.7656 18.917 29.4609 Q18.0889 30.1562 16.5107 30.1562 Q15.9951 30.1562 15.5186 30.0781 Q15.042 30 14.5576 29.8438 L14.5576 28.4844 Q15.0107 28.75 15.4482 28.875 Q15.8857 29 16.3389 29 Q17.1982 29 17.5967 28.625 Q17.9951 28.25 17.9951 27.4531 L17.9951 27.0781 ZM16.8389 23.6719 Q16.292 23.6719 15.9951 24.0703 Q15.6982 24.4688 15.6982 25.2031 Q15.6982 25.9531 15.9873 26.3438 Q16.2764 26.7344 16.8389 26.7344 Q17.3857 26.7344 17.6904 26.3281 Q17.9951 25.9219 17.9951 25.2031 Q17.9951 24.4688 17.6904 24.0703 Q17.3857 23.6719 16.8389 23.6719 ZM23.8877 25.5312 Q23.3408 25.5312 23.0596 25.7188 Q22.7783 25.9062 22.7783 26.2656 Q22.7783 26.6094 23.0049 26.7969 Q23.2314 26.9844 23.6221 26.9844 Q24.1221 26.9844 24.458 26.625 Q24.7939 26.2656 24.7939 25.7344 L24.7939 25.5312 L23.8877 25.5312 ZM26.5596 24.875 L26.5596 28 L24.7939 28 L24.7939 27.1875 Q24.4346 27.6875 23.9971 27.9141 Q23.5596 28.1406 22.9346 28.1406 Q22.0752 28.1406 21.5518 27.6484 Q21.0283 27.1562 21.0283 26.3594 Q21.0283 25.3906 21.6846 24.9453 Q22.3408 24.5 23.7627 24.5 L24.7939 24.5 L24.7939 24.3594 Q24.7939 23.9531 24.4658 23.7578 Q24.1377 23.5625 23.4502 23.5625 Q22.8877 23.5625 22.4033 23.6719 Q21.9189 23.7812 21.4971 24.0156 L21.4971 22.6719 Q22.0596 22.5469 22.6299 22.4766 Q23.2002 22.4062 23.7627 22.4062 Q25.2471 22.4062 25.9033 22.9844 Q26.5596 23.5625 26.5596 24.875 ZM33.6826 24.6719 L33.6826 28 L31.917 28 L31.917 27.4531 L31.917 25.4531 Q31.917 24.75 31.8857 24.4766 Q31.8545 24.2031 31.7764 24.0781 Q31.6826 23.9062 31.5029 23.8125 Q31.3232 23.7188 31.1045 23.7188 Q30.5576 23.7188 30.2451 24.1406 Q29.9326 24.5625 29.9326 25.3125 L29.9326 28 L28.1826 28 L28.1826 22.5312 L29.9326 22.5312 L29.9326 23.3281 Q30.3232 22.8594 30.7686 22.6328 Q31.2139 22.4062 31.7451 22.4062 Q32.6982 22.4062 33.1904 22.9844 Q33.6826 23.5625 33.6826 24.6719 ZM35.3018 22.5312 L37.0518 22.5312 L37.0518 28 L35.3018 28 L35.3018 22.5312 ZM35.3018 20.4062 L37.0518 20.4062 L37.0518 21.8281 L35.3018 21.8281 L35.3018 20.4062 ZM42.9951 22.7031 L42.9951 24.0312 Q42.4326 23.7969 41.9092 23.6797 Q41.3857 23.5625 40.9326 23.5625 Q40.4326 23.5625 40.1904 23.6875 Q39.9482 23.8125 39.9482 24.0625 Q39.9482 24.2812 40.1279 24.3906 Q40.3076 24.5 40.792 24.5625 L41.0889 24.5938 Q42.4326 24.7656 42.9014 25.1562 Q43.3701 25.5469 43.3701 26.3906 Q43.3701 27.2656 42.7217 27.7031 Q42.0732 28.1406 40.792 28.1406 Q40.2607 28.1406 39.6826 28.0547 Q39.1045 27.9688 38.4795 27.7969 L38.4795 26.4688 Q39.0107 26.7188 39.5576 26.8516 Q40.1045 26.9844 40.667 26.9844 Q41.1826 26.9844 41.4404 26.8438 Q41.6982 26.7031 41.6982 26.4219 Q41.6982 26.1875 41.5264 26.0703 Q41.3545 25.9531 40.8232 25.8906 L40.5107 25.8438 Q39.3389 25.7031 38.8701 25.3047 Q38.4014 24.9062 38.4014 24.1094 Q38.4014 23.2344 38.9951 22.8203 Q39.5889 22.4062 40.8232 22.4062 Q41.3076 22.4062 41.8389 22.4766 Q42.3701 22.5469 42.9951 22.7031 ZM49.7441 23.4375 Q50.0723 22.9375 50.5332 22.6719 Q50.9941 22.4062 51.541 22.4062 Q52.4785 22.4062 52.9707 22.9844 Q53.4629 23.5625 53.4629 24.6719 L53.4629 28 L51.7129 28 L51.7129 25.1406 Q51.7129 25.0781 51.7129 25.0156 Q51.7129 24.9531 51.7129 24.8281 Q51.7129 24.2344 51.5488 23.9766 Q51.3848 23.7188 50.9941 23.7188 Q50.4941 23.7188 50.2285 24.125 Q49.9629 24.5312 49.9473 25.3125 L49.9473 28 L48.1816 28 L48.1816 25.1406 Q48.1816 24.2344 48.0254 23.9766 Q47.8691 23.7188 47.4785 23.7188 Q46.9785 23.7188 46.7051 24.1328 Q46.4316 24.5469 46.4316 25.3125 L46.4316 28 L44.666 28 L44.666 22.5312 L46.4316 22.5312 L46.4316 23.3281 Q46.7441 22.875 47.166 22.6406 Q47.5879 22.4062 48.0879 22.4062 Q48.6504 22.4062 49.0879 22.6797 Q49.5254 22.9531 49.7441 23.4375 ZM55.3828 22.5312 L57.1328 22.5312 L57.1328 24.4219 L55.3828 24.4219 L55.3828 22.5312 ZM55.3828 26.1094 L57.1328 26.1094 L57.1328 28 L55.3828 28 L55.3828 26.1094 Z"
         style="clip-path:url(#clipPath2); stroke:none;"
         clip-path="url(#clipPath2)"
         id="path123" />
      <path
         d="M66.9844 20.7031 L67.9688 20.7031 L67.9688 23.7031 L71.5469 23.7031 L71.5469 20.7031 L72.5312 20.7031 L72.5312 28 L71.5469 28 L71.5469 24.5312 L67.9688 24.5312 L67.9688 28 L66.9844 28 L66.9844 20.7031 ZM76.582 23.1562 Q75.8633 23.1562 75.4414 23.7188 Q75.0195 24.2812 75.0195 25.2656 Q75.0195 26.25 75.4336 26.8125 Q75.8477 27.375 76.582 27.375 Q77.3008 27.375 77.7227 26.8125 Q78.1445 26.25 78.1445 25.2656 Q78.1445 24.2969 77.7227 23.7266 Q77.3008 23.1562 76.582 23.1562 ZM76.582 22.4062 Q77.7539 22.4062 78.4258 23.1641 Q79.0977 23.9219 79.0977 25.2656 Q79.0977 26.6094 78.4258 27.375 Q77.7539 28.1406 76.582 28.1406 Q75.4102 28.1406 74.7383 27.375 Q74.0664 26.6094 74.0664 25.2656 Q74.0664 23.9219 74.7383 23.1641 Q75.4102 22.4062 76.582 22.4062 ZM84.8408 23.5781 Q85.1689 22.9688 85.6377 22.6875 Q86.1064 22.4062 86.7471 22.4062 Q87.6064 22.4062 88.0674 23 Q88.5283 23.5938 88.5283 24.7031 L88.5283 28 L87.6221 28 L87.6221 24.7344 Q87.6221 23.9375 87.3486 23.5625 Q87.0752 23.1875 86.4971 23.1875 Q85.7939 23.1875 85.3955 23.6484 Q84.9971 24.1094 84.9971 24.9062 L84.9971 28 L84.0908 28 L84.0908 24.7344 Q84.0908 23.9375 83.8096 23.5625 Q83.5283 23.1875 82.9502 23.1875 Q82.2627 23.1875 81.8564 23.6484 Q81.4502 24.1094 81.4502 24.9062 L81.4502 28 L80.5439 28 L80.5439 22.5312 L81.4502 22.5312 L81.4502 23.375 Q81.7627 22.875 82.1924 22.6406 Q82.6221 22.4062 83.2002 22.4062 Q83.8096 22.4062 84.2236 22.7031 Q84.6377 23 84.8408 23.5781 ZM92.4414 23.1562 Q91.7227 23.1562 91.3008 23.7188 Q90.8789 24.2812 90.8789 25.2656 Q90.8789 26.25 91.293 26.8125 Q91.707 27.375 92.4414 27.375 Q93.1602 27.375 93.582 26.8125 Q94.0039 26.25 94.0039 25.2656 Q94.0039 24.2969 93.582 23.7266 Q93.1602 23.1562 92.4414 23.1562 ZM92.4414 22.4062 Q93.6133 22.4062 94.2852 23.1641 Q94.957 23.9219 94.957 25.2656 Q94.957 26.6094 94.2852 27.375 Q93.6133 28.1406 92.4414 28.1406 Q91.2695 28.1406 90.5977 27.375 Q89.9258 26.6094 89.9258 25.2656 Q89.9258 23.9219 90.5977 23.1641 Q91.2695 22.4062 92.4414 22.4062 ZM103.0977 22.6875 L103.0977 23.5469 Q102.7227 23.3438 102.3164 23.25 Q101.9102 23.1562 101.457 23.1562 Q100.8008 23.1562 100.4648 23.3594 Q100.1289 23.5625 100.1289 23.9688 Q100.1289 24.2812 100.3633 24.4609 Q100.5977 24.6406 101.332 24.7969 L101.6289 24.875 Q102.5977 25.0781 102.9961 25.4531 Q103.3945 25.8281 103.3945 26.4844 Q103.3945 27.25 102.793 27.6953 Q102.1914 28.1406 101.1445 28.1406 Q100.6914 28.1406 100.2148 28.0547 Q99.7383 27.9688 99.2227 27.7969 L99.2227 26.875 Q99.7227 27.125 100.1992 27.2578 Q100.6758 27.3906 101.1602 27.3906 Q101.7852 27.3906 102.1289 27.1719 Q102.4727 26.9531 102.4727 26.5625 Q102.4727 26.1875 102.2305 25.9922 Q101.9883 25.7969 101.1445 25.625 L100.832 25.5469 Q100.0039 25.375 99.6289 25.0078 Q99.2539 24.6406 99.2539 24.0156 Q99.2539 23.2344 99.8008 22.8203 Q100.3477 22.4062 101.3633 22.4062 Q101.8477 22.4062 102.293 22.4766 Q102.7383 22.5469 103.0977 22.6875 ZM107.3076 25.25 Q106.2295 25.25 105.8076 25.5 Q105.3857 25.75 105.3857 26.3438 Q105.3857 26.8281 105.6982 27.1094 Q106.0107 27.3906 106.5576 27.3906 Q107.3076 27.3906 107.7607 26.8594 Q108.2139 26.3281 108.2139 25.4531 L108.2139 25.25 L107.3076 25.25 ZM109.1045 24.875 L109.1045 28 L108.2139 28 L108.2139 27.1719 Q107.9014 27.6719 107.4404 27.9062 Q106.9795 28.1406 106.3232 28.1406 Q105.4795 28.1406 104.9795 27.6719 Q104.4795 27.2031 104.4795 26.4062 Q104.4795 25.4844 105.1045 25.0156 Q105.7295 24.5469 106.9482 24.5469 L108.2139 24.5469 L108.2139 24.4531 Q108.2139 23.8438 107.7998 23.5 Q107.3857 23.1562 106.6514 23.1562 Q106.1826 23.1562 105.7373 23.2734 Q105.292 23.3906 104.8857 23.6094 L104.8857 22.7812 Q105.3857 22.5938 105.8467 22.5 Q106.3076 22.4062 106.7451 22.4062 Q107.9326 22.4062 108.5186 23.0156 Q109.1045 23.625 109.1045 24.875 ZM111.8262 27.1719 L111.8262 30.0781 L110.9199 30.0781 L110.9199 22.5312 L111.8262 22.5312 L111.8262 23.3594 Q112.1074 22.875 112.5371 22.6406 Q112.9668 22.4062 113.5762 22.4062 Q114.5762 22.4062 115.1934 23.1953 Q115.8105 23.9844 115.8105 25.2656 Q115.8105 26.5625 115.1934 27.3516 Q114.5762 28.1406 113.5762 28.1406 Q112.9668 28.1406 112.5371 27.9062 Q112.1074 27.6719 111.8262 27.1719 ZM114.8887 25.2656 Q114.8887 24.2812 114.4746 23.7188 Q114.0605 23.1562 113.3574 23.1562 Q112.6387 23.1562 112.2324 23.7188 Q111.8262 24.2812 111.8262 25.2656 Q111.8262 26.2656 112.2324 26.8281 Q112.6387 27.3906 113.3574 27.3906 Q114.0605 27.3906 114.4746 26.8281 Q114.8887 26.2656 114.8887 25.2656 ZM117.2988 22.5312 L118.2051 22.5312 L118.2051 28 L117.2988 28 L117.2988 22.5312 ZM117.2988 20.4062 L118.2051 20.4062 L118.2051 21.5469 L117.2988 21.5469 L117.2988 20.4062 ZM124.7646 25.0469 L124.7646 25.4844 L120.624 25.4844 Q120.6865 26.4062 121.1865 26.8906 Q121.6865 27.375 122.5771 27.375 Q123.0928 27.375 123.585 27.25 Q124.0771 27.125 124.5459 26.875 L124.5459 27.7188 Q124.0615 27.9219 123.5537 28.0312 Q123.0459 28.1406 122.5303 28.1406 Q121.2178 28.1406 120.4521 27.3828 Q119.6865 26.625 119.6865 25.3125 Q119.6865 23.9688 120.4131 23.1875 Q121.1396 22.4062 122.374 22.4062 Q123.4834 22.4062 124.124 23.1094 Q124.7646 23.8125 124.7646 25.0469 ZM123.8584 24.7812 Q123.8584 24.0469 123.4521 23.6016 Q123.0459 23.1562 122.3896 23.1562 Q121.624 23.1562 121.1787 23.5859 Q120.7334 24.0156 120.6553 24.7812 L123.8584 24.7812 ZM130.7764 24.7031 L130.7764 28 L129.8857 28 L129.8857 24.7344 Q129.8857 23.9531 129.5811 23.5703 Q129.2764 23.1875 128.667 23.1875 Q127.9482 23.1875 127.5264 23.6484 Q127.1045 24.1094 127.1045 24.9062 L127.1045 28 L126.1982 28 L126.1982 22.5312 L127.1045 22.5312 L127.1045 23.375 Q127.4326 22.8906 127.8701 22.6484 Q128.3076 22.4062 128.8701 22.4062 Q129.8076 22.4062 130.292 22.9844 Q130.7764 23.5625 130.7764 24.7031 ZM136.0518 22.6875 L136.0518 23.5469 Q135.6768 23.3438 135.2705 23.25 Q134.8643 23.1562 134.4111 23.1562 Q133.7549 23.1562 133.4189 23.3594 Q133.083 23.5625 133.083 23.9688 Q133.083 24.2812 133.3174 24.4609 Q133.5518 24.6406 134.2861 24.7969 L134.583 24.875 Q135.5518 25.0781 135.9502 25.4531 Q136.3486 25.8281 136.3486 26.4844 Q136.3486 27.25 135.7471 27.6953 Q135.1455 28.1406 134.0986 28.1406 Q133.6455 28.1406 133.1689 28.0547 Q132.6924 27.9688 132.1768 27.7969 L132.1768 26.875 Q132.6768 27.125 133.1533 27.2578 Q133.6299 27.3906 134.1143 27.3906 Q134.7393 27.3906 135.083 27.1719 Q135.4268 26.9531 135.4268 26.5625 Q135.4268 26.1875 135.1846 25.9922 Q134.9424 25.7969 134.0986 25.625 L133.7861 25.5469 Q132.958 25.375 132.583 25.0078 Q132.208 24.6406 132.208 24.0156 Q132.208 23.2344 132.7549 22.8203 Q133.3018 22.4062 134.3174 22.4062 Q134.8018 22.4062 135.2471 22.4766 Q135.6924 22.5469 136.0518 22.6875 Z"
         style="clip-path:url(#clipPath2); stroke:none;"
         clip-path="url(#clipPath2)"
         id="path125" />
    </g>
    <g
       style="fill:navy; text-rendering:geometricPrecision; font-size:8; stroke:navy;"
       id="g131">
      <text
         x="224"
         xml:space="preserve"
         y="16"
         style="clip-path:url(#clipPath4); stroke:none;"
         clip-path="url(#clipPath4)"
         id="text129">1-3</text>
    </g>
    <g
       style="text-rendering:geometricPrecision;"
       id="g139">
      <path
         d="M373.1742 118.4459 L326.2589 123.9296"
         style="fill:none; clip-path:url(#clipPath5);"
         clip-path="url(#clipPath5)"
         id="path133" />
      <path
         d="M315.9292 125.137 C315.5958 122.2845 317.6379 119.7019 320.4904 119.3685 C323.3428 119.0351 325.9255 121.0772 326.2589 123.9296 C326.5923 126.7821 324.5502 129.3647 321.6978 129.6982 C318.8453 130.0316 316.2626 127.9895 315.9292 125.137 Z"
         style="fill:white; clip-path:url(#clipPath5); stroke:none;"
         clip-path="url(#clipPath5)"
         id="path135" />
      <path
         d="M315.9292 125.137 C315.5958 122.2845 317.6379 119.7019 320.4904 119.3685 C323.3428 119.0351 325.9255 121.0772 326.2589 123.9296 C326.5923 126.7821 324.5502 129.3647 321.6978 129.6982 C318.8453 130.0316 316.2626 127.9895 315.9292 125.137 Z"
         style="fill:none; clip-path:url(#clipPath5);"
         clip-path="url(#clipPath5)"
         id="path137" />
    </g>
    <g
       style="text-rendering:geometricPrecision;"
       id="g145">
      <path
         d="M598.9286 314.88 L706.3752 315.8492"
         style="fill:none; clip-path:url(#clipPath6);"
         clip-path="url(#clipPath6)"
         id="path141" />
      <path
         d="M706.4221 310.6494 L718.0747 315.9547 L706.3283 321.049 Z"
         style="clip-path:url(#clipPath6); stroke:none;"
         clip-path="url(#clipPath6)"
         id="path143" />
    </g>
    <g
       style="stroke-width:3; text-rendering:geometricPrecision;"
       id="g151">
      <path
         d="M168.9324 463.6379 L65.5065 518.7432"
         style="fill:none; clip-path:url(#clipPath7);"
         clip-path="url(#clipPath7)"
         id="path147" />
      <path
         d="M69.0802 525.4506 L50.4149 526.7841 L61.9328 512.0359 Z"
         style="clip-path:url(#clipPath7); stroke:none;"
         clip-path="url(#clipPath7)"
         id="path149" />
    </g>
    <g
       style="text-rendering:geometricPrecision;"
       id="g157">
      <path
         d="M360.9304 315.9304 L471.0993 439.5086"
         style="fill:none; clip-path:url(#clipPath8);"
         clip-path="url(#clipPath8)"
         id="path153" />
      <path
         d="M474.9808 436.0482 L478.8851 448.242 L467.2178 442.9689 Z"
         style="clip-path:url(#clipPath8); stroke:none;"
         clip-path="url(#clipPath8)"
         id="path155" />
    </g>
    <g
       style="stroke-width:3; text-rendering:geometricPrecision;"
       id="g163">
      <path
         d="M360.9304 315.9304 L499.9288 314.9438"
         style="fill:none; clip-path:url(#clipPath9);"
         clip-path="url(#clipPath9)"
         id="path159" />
      <path
         d="M499.8749 307.344 L517.0284 314.8225 L499.9828 322.5436 Z"
         style="clip-path:url(#clipPath9); stroke:none;"
         clip-path="url(#clipPath9)"
         id="path161" />
    </g>
    <g
       style="text-rendering:geometricPrecision;"
       id="g169">
      <path
         d="M293.4304 328.4304 L197.5456 432.0327"
         style="fill:none; clip-path:url(#clipPath10);"
         clip-path="url(#clipPath10)"
         id="path165" />
      <path
         d="M201.3619 435.5647 L189.5984 440.6194 L193.7292 428.5006 Z"
         style="clip-path:url(#clipPath10); stroke:none;"
         clip-path="url(#clipPath10)"
         id="path167" />
    </g>
    <g
       style="text-rendering:geometricPrecision;"
       id="g175">
      <path
         d="M316.3265 73.9184 L316.3265 192.8489"
         style="fill:none; clip-path:url(#clipPath11);"
         clip-path="url(#clipPath11)"
         id="path171" />
      <path
         d="M321.5265 192.8489 L316.3265 204.5489 L311.1265 192.8489 Z"
         style="clip-path:url(#clipPath11); stroke:none;"
         clip-path="url(#clipPath11)"
         id="path173" />
    </g>
    <g
       style="stroke-width:3; text-rendering:geometricPrecision;"
       id="g181">
      <path
         d="M191.4324 463.6379 L188.0241 513.9958"
         style="fill:none; clip-path:url(#clipPath12);"
         clip-path="url(#clipPath12)"
         id="path177" />
      <path
         d="M195.6067 514.509 L186.8694 531.0568 L180.4414 513.4825 Z"
         style="clip-path:url(#clipPath12); stroke:none;"
         clip-path="url(#clipPath12)"
         id="path179" />
    </g>
    <g
       style="text-rendering:geometricPrecision;"
       id="g189">
      <path
         d="M646.5864 276.2216 L645.7831 305.304"
         style="fill:none; clip-path:url(#clipPath13);"
         clip-path="url(#clipPath13)"
         id="path183" />
      <path
         d="M645.496 315.7 C642.6252 315.6207 640.3623 313.2292 640.4416 310.3584 C640.5209 307.4876 642.9124 305.2247 645.7831 305.304 C648.6539 305.3832 650.9169 307.7747 650.8376 310.6455 C650.7584 313.5163 648.3668 315.7793 645.496 315.7 Z"
         style="fill:white; clip-path:url(#clipPath13); stroke:none;"
         clip-path="url(#clipPath13)"
         id="path185" />
      <path
         d="M645.496 315.7 C642.6252 315.6207 640.3623 313.2292 640.4416 310.3584 C640.5209 307.4876 642.9124 305.2247 645.7831 305.304 C648.6539 305.3832 650.9169 307.7747 650.8376 310.6455 C650.7584 313.5163 648.3668 315.7793 645.496 315.7 Z"
         style="fill:none; clip-path:url(#clipPath13);"
         clip-path="url(#clipPath13)"
         id="path187" />
    </g>
    <g
       style="text-rendering:geometricPrecision;"
       id="g197">
      <path
         d="M367.3481 266.8507 L326.0046 259.2822"
         style="fill:none; clip-path:url(#clipPath14);"
         clip-path="url(#clipPath14)"
         id="path191" />
      <path
         d="M315.7746 257.4095 C316.2917 254.5845 319.001 252.7137 321.826 253.2308 C324.6509 253.748 326.5218 256.4573 326.0046 259.2822 C325.4875 262.1071 322.7782 263.978 319.9532 263.4608 C317.1283 262.9437 315.2575 260.2344 315.7746 257.4095 Z"
         style="fill:white; clip-path:url(#clipPath14); stroke:none;"
         clip-path="url(#clipPath14)"
         id="path193" />
      <path
         d="M315.7746 257.4095 C316.2917 254.5845 319.001 252.7137 321.826 253.2308 C324.6509 253.748 326.5218 256.4573 326.0046 259.2822 C325.4875 262.1071 322.7782 263.978 319.9532 263.4608 C317.1283 262.9437 315.2575 260.2344 315.7746 257.4095 Z"
         style="fill:none; clip-path:url(#clipPath14);"
         clip-path="url(#clipPath14)"
         id="path195" />
    </g>
    <g
       style="stroke-width:3; text-rendering:geometricPrecision;"
       id="g203">
      <path
         d="M57.5636 547.9752 L62.3846 629.1182"
         style="fill:none; clip-path:url(#clipPath15);"
         clip-path="url(#clipPath15)"
         id="path199" />
      <path
         d="M69.9712 628.6675 L63.3987 646.1882 L54.7979 629.569 Z"
         style="clip-path:url(#clipPath15); stroke:none;"
         clip-path="url(#clipPath15)"
         id="path201" />
    </g>
    <g
       style="stroke-width:3; text-rendering:geometricPrecision;"
       id="g209">
      <path
         d="M213.9324 463.6379 L351.768 519.5901"
         style="fill:none; clip-path:url(#clipPath16);"
         clip-path="url(#clipPath16)"
         id="path205" />
      <path
         d="M354.6265 512.5482 L367.6123 526.0219 L348.9094 526.632 Z"
         style="clip-path:url(#clipPath16); stroke:none;"
         clip-path="url(#clipPath16)"
         id="path207" />
    </g>
    <g
       style="text-rendering:geometricPrecision;"
       id="g215">
      <path
         d="M316.3265 226.8489 L315.9769 294.4305"
         style="fill:none; clip-path:url(#clipPath17);"
         clip-path="url(#clipPath17)"
         id="path211" />
      <path
         d="M321.1769 294.4574 L315.9164 306.1303 L310.777 294.4036 Z"
         style="clip-path:url(#clipPath17); stroke:none;"
         clip-path="url(#clipPath17)"
         id="path213" />
    </g>
    <g
       style="text-rendering:geometricPrecision;"
       id="g223">
      <path
         d="M192.739 361.8976 L242.7847 370.7681"
         style="fill:none; clip-path:url(#clipPath18);"
         clip-path="url(#clipPath18)"
         id="path217" />
      <path
         d="M253.0251 372.5832 C252.5238 375.411 249.8251 377.2971 246.9973 376.7958 C244.1695 376.2946 242.2834 373.5959 242.7847 370.7681 C243.2859 367.9403 245.9846 366.0542 248.8124 366.5555 C251.6402 367.0567 253.5263 369.7554 253.0251 372.5832 Z"
         style="fill:white; clip-path:url(#clipPath18); stroke:none;"
         clip-path="url(#clipPath18)"
         id="path219" />
      <path
         d="M253.0251 372.5832 C252.5238 375.411 249.8251 377.2971 246.9973 376.7958 C244.1695 376.2946 242.2834 373.5959 242.7847 370.7681 C243.2859 367.9403 245.9846 366.0542 248.8124 366.5555 C251.6402 367.0567 253.5263 369.7554 253.0251 372.5832 Z"
         style="fill:none; clip-path:url(#clipPath18);"
         clip-path="url(#clipPath18)"
         id="path221" />
    </g>
    <g
       style="text-rendering:geometricPrecision;"
       id="g231">
      <path
         d="M457.6512 369.7864 L417.3876 368.3944"
         style="fill:none; clip-path:url(#clipPath19);"
         clip-path="url(#clipPath19)"
         id="path225" />
      <path
         d="M406.9938 368.035 C407.093 365.1649 409.5002 362.9186 412.3704 363.0178 C415.2405 363.117 417.4868 365.5242 417.3876 368.3944 C417.2884 371.2646 414.8812 373.5108 412.011 373.4116 C409.1409 373.3124 406.8946 370.9052 406.9938 368.035 Z"
         style="fill:white; clip-path:url(#clipPath19); stroke:none;"
         clip-path="url(#clipPath19)"
         id="path227" />
      <path
         d="M406.9938 368.035 C407.093 365.1649 409.5002 362.9186 412.3704 363.0178 C415.2405 363.117 417.4868 365.5242 417.3876 368.3944 C417.2884 371.2646 414.8812 373.5108 412.011 373.4116 C409.1409 373.3124 406.8946 370.9052 406.9938 368.035 Z"
         style="fill:none; clip-path:url(#clipPath19);"
         clip-path="url(#clipPath19)"
         id="path229" />
    </g>
    <g
       style="fill:white; text-rendering:geometricPrecision; stroke:white;"
       id="g239">
      <path
         d="M17.9183 638.1024 L107.9183 638.1024 L107.9183 663.1024 L17.9183 663.1024 L17.9183 638.1024 Z"
         style="clip-path:url(#clipPath20); stroke:none;"
         clip-path="url(#clipPath20)"
         id="path233" />
      <path
         d="M17.9183 638.1024 L107.9183 638.1024 L107.9183 663.1024 L17.9183 663.1024 L17.9183 638.1024 Z"
         style="fill:none; clip-path:url(#clipPath20); stroke:blue;"
         clip-path="url(#clipPath20)"
         id="path235" />
      <text
         x="34"
         y="655"
         style="fill:blue; clip-path:url(#clipPath20); stroke:none;"
         xml:space="preserve"
         clip-path="url(#clipPath20)"
         id="text237">A Lewis B</text>
    </g>
    <g
       style="fill:white; text-rendering:geometricPrecision; stroke:white;"
       id="g247">
      <path
         d="M508.9286 302.38 L598.9286 302.38 L598.9286 327.38 L508.9286 327.38 L508.9286 302.38 Z"
         style="clip-path:url(#clipPath21); stroke:none;"
         clip-path="url(#clipPath21)"
         id="path241" />
      <path
         d="M508.9286 302.38 L598.9286 302.38 L598.9286 327.38 L508.9286 327.38 L508.9286 302.38 Z"
         style="fill:none; clip-path:url(#clipPath21); stroke:blue;"
         clip-path="url(#clipPath21)"
         id="path243" />
      <text
         x="467"
         y="319"
         style="fill:blue; clip-path:url(#clipPath21); stroke:none;"
         xml:space="preserve"
         clip-path="url(#clipPath21)"
         id="text245">sialyl-lactotetraosylceramide</text>
    </g>
    <g
       style="fill:white; text-rendering:geometricPrecision; stroke:white;"
       id="g255">
      <path
         d="M271.3265 201.8489 L361.3265 201.8489 L361.3265 226.8489 L271.3265 226.8489 L271.3265 201.8489 Z"
         style="clip-path:url(#clipPath22); stroke:none;"
         clip-path="url(#clipPath22)"
         id="path249" />
      <path
         d="M271.3265 201.8489 L361.3265 201.8489 L361.3265 226.8489 L271.3265 226.8489 L271.3265 201.8489 Z"
         style="fill:none; clip-path:url(#clipPath22); stroke:blue;"
         clip-path="url(#clipPath22)"
         id="path251" />
      <text
         x="296"
         y="218"
         style="fill:blue; clip-path:url(#clipPath22); stroke:none;"
         xml:space="preserve"
         clip-path="url(#clipPath22)"
         id="text253">Lc3Cer</text>
    </g>
    <g
       style="fill:white; text-rendering:geometricPrecision; stroke:white;"
       id="g263">
      <path
         d="M12.5636 522.9752 L102.5636 522.9752 L102.5636 547.9752 L12.5636 547.9752 L12.5636 522.9752 Z"
         style="clip-path:url(#clipPath23); stroke:none;"
         clip-path="url(#clipPath23)"
         id="path257" />
      <path
         d="M12.5636 522.9752 L102.5636 522.9752 L102.5636 547.9752 L12.5636 547.9752 L12.5636 522.9752 Z"
         style="fill:none; clip-path:url(#clipPath23); stroke:blue;"
         clip-path="url(#clipPath23)"
         id="path259" />
      <text
         x="10"
         y="539"
         style="fill:blue; clip-path:url(#clipPath23); stroke:none;"
         xml:space="preserve"
         clip-path="url(#clipPath23)"
         id="text261">Type IA antigen</text>
    </g>
    <g
       style="fill:white; text-rendering:geometricPrecision; stroke:white;"
       id="g271">
      <path
         d="M142.4163 522.9752 L232.4163 522.9752 L232.4163 547.9752 L142.4163 547.9752 L142.4163 522.9752 Z"
         style="clip-path:url(#clipPath24); stroke:none;"
         clip-path="url(#clipPath24)"
         id="path265" />
      <path
         d="M142.4163 522.9752 L232.4163 522.9752 L232.4163 547.9752 L142.4163 547.9752 L142.4163 522.9752 Z"
         style="fill:none; clip-path:url(#clipPath24); stroke:blue;"
         clip-path="url(#clipPath24)"
         id="path267" />
      <text
         x="140"
         y="539"
         style="fill:blue; clip-path:url(#clipPath24); stroke:none;"
         xml:space="preserve"
         clip-path="url(#clipPath24)"
         id="text269">Type IB antigen</text>
    </g>
    <g
       style="fill:white; text-rendering:geometricPrecision; stroke:white;"
       id="g279">
      <path
         d="M375.3481 241.8507 L465.3481 241.8507 L465.3481 266.8507 L375.3481 266.8507 L375.3481 241.8507 Z"
         style="clip-path:url(#clipPath25); stroke:none;"
         clip-path="url(#clipPath25)"
         id="path273" />
      <path
         d="M375.3481 241.8507 L465.3481 241.8507 L465.3481 266.8507 L375.3481 266.8507 L375.3481 241.8507 Z"
         style="fill:none; clip-path:url(#clipPath25); stroke:black;"
         clip-path="url(#clipPath25)"
         id="path275" />
      <text
         x="393"
         y="258"
         style="fill:black; clip-path:url(#clipPath25); stroke:none;"
         xml:space="preserve"
         clip-path="url(#clipPath25)"
         id="text277">B3GALT1</text>
    </g>
    <g
       style="fill:white; text-rendering:geometricPrecision; stroke:white;"
       id="g287">
      <path
         d="M130.3681 361.8976 L184.739 361.8976 L184.739 386.8976 L130.3681 386.8976 L130.3681 361.8976 Z"
         style="clip-path:url(#clipPath26); stroke:none;"
         clip-path="url(#clipPath26)"
         id="path281" />
      <path
         d="M130.3681 361.8976 L184.739 361.8976 L184.739 386.8976 L130.3681 386.8976 L130.3681 361.8976 Z"
         style="fill:none; clip-path:url(#clipPath26); stroke:black;"
         clip-path="url(#clipPath26)"
         id="path283" />
      <text
         x="142"
         y="378"
         style="fill:black; clip-path:url(#clipPath26); stroke:none;"
         xml:space="preserve"
         clip-path="url(#clipPath26)"
         id="text285">FUT2</text>
    </g>
    <g
       style="fill:white; text-rendering:geometricPrecision; stroke:white;"
       id="g295">
      <path
         d="M146.4324 438.6379 L236.4324 438.6379 L236.4324 463.6379 L146.4324 463.6379 L146.4324 438.6379 Z"
         style="clip-path:url(#clipPath27); stroke:none;"
         clip-path="url(#clipPath27)"
         id="path289" />
      <path
         d="M146.4324 438.6379 L236.4324 438.6379 L236.4324 463.6379 L146.4324 463.6379 L146.4324 438.6379 Z"
         style="fill:none; clip-path:url(#clipPath27); stroke:blue;"
         clip-path="url(#clipPath27)"
         id="path291" />
      <text
         x="142"
         y="455"
         style="fill:blue; clip-path:url(#clipPath27); stroke:none;"
         xml:space="preserve"
         clip-path="url(#clipPath27)"
         id="text293">Type I H antigen</text>
    </g>
    <g
       style="fill:white; text-rendering:geometricPrecision; stroke:white;"
       id="g303">
      <path
         d="M270.9304 303.4304 L360.9304 303.4304 L360.9304 328.4304 L270.9304 328.4304 L270.9304 303.4304 Z"
         style="clip-path:url(#clipPath28); stroke:none;"
         clip-path="url(#clipPath28)"
         id="path297" />
      <path
         d="M270.9304 303.4304 L360.9304 303.4304 L360.9304 328.4304 L270.9304 328.4304 L270.9304 303.4304 Z"
         style="fill:none; clip-path:url(#clipPath28); stroke:blue;"
         clip-path="url(#clipPath28)"
         id="path299" />
      <text
         x="280"
         y="320"
         style="fill:blue; clip-path:url(#clipPath28); stroke:none;"
         xml:space="preserve"
         clip-path="url(#clipPath28)"
         id="text301">Lc4Cer/LM1</text>
    </g>
    <g
       style="fill:white; text-rendering:geometricPrecision; stroke:white;"
       id="g311">
      <path
         d="M715.3748 303.4304 L805.3748 303.4304 L805.3748 328.4304 L715.3748 328.4304 L715.3748 303.4304 Z"
         style="clip-path:url(#clipPath29); stroke:none;"
         clip-path="url(#clipPath29)"
         id="path305" />
      <path
         d="M715.3748 303.4304 L805.3748 303.4304 L805.3748 328.4304 L715.3748 328.4304 L715.3748 303.4304 Z"
         style="fill:none; clip-path:url(#clipPath29); stroke:blue;"
         clip-path="url(#clipPath29)"
         id="path307" />
      <text
         x="720"
         y="320"
         style="fill:blue; clip-path:url(#clipPath29); stroke:none;"
         xml:space="preserve"
         clip-path="url(#clipPath29)"
         id="text309">Sialyl Lewis A</text>
    </g>
    <g
       style="fill:white; text-rendering:geometricPrecision; stroke:white;"
       id="g319">
      <path
         d="M601.5864 251.2216 L691.5864 251.2216 L691.5864 276.2216 L601.5864 276.2216 L601.5864 251.2216 Z"
         style="clip-path:url(#clipPath30); stroke:none;"
         clip-path="url(#clipPath30)"
         id="path313" />
      <path
         d="M601.5864 251.2216 L691.5864 251.2216 L691.5864 276.2216 L601.5864 276.2216 L601.5864 251.2216 Z"
         style="fill:none; clip-path:url(#clipPath30); stroke:black;"
         clip-path="url(#clipPath30)"
         id="path315" />
      <text
         x="631"
         y="268"
         style="fill:black; clip-path:url(#clipPath30); stroke:none;"
         xml:space="preserve"
         clip-path="url(#clipPath30)"
         id="text317">FUT3</text>
    </g>
    <g
       style="fill:white; text-rendering:geometricPrecision; stroke:white;"
       id="g327">
      <path
         d="M315.1071 522.9752 L405.1071 522.9752 L405.1071 547.9752 L315.1071 547.9752 L315.1071 522.9752 Z"
         style="clip-path:url(#clipPath31); stroke:none;"
         clip-path="url(#clipPath31)"
         id="path321" />
      <path
         d="M315.1071 522.9752 L405.1071 522.9752 L405.1071 547.9752 L315.1071 547.9752 L315.1071 522.9752 Z"
         style="fill:none; clip-path:url(#clipPath31); stroke:blue;"
         clip-path="url(#clipPath31)"
         id="path323" />
      <text
         x="338"
         y="539"
         style="fill:blue; clip-path:url(#clipPath31); stroke:none;"
         xml:space="preserve"
         clip-path="url(#clipPath31)"
         id="text325">Lewis B</text>
    </g>
    <g
       style="fill:white; text-rendering:geometricPrecision; stroke:white;"
       id="g335">
      <path
         d="M477.0883 439.9766 L567.0884 439.9766 L567.0884 464.9766 L477.0883 464.9766 L477.0883 439.9766 Z"
         style="clip-path:url(#clipPath32); stroke:none;"
         clip-path="url(#clipPath32)"
         id="path329" />
      <path
         d="M477.0883 439.9766 L567.0884 439.9766 L567.0884 464.9766 L477.0883 464.9766 L477.0883 439.9766 Z"
         style="fill:none; clip-path:url(#clipPath32); stroke:blue;"
         clip-path="url(#clipPath32)"
         id="path331" />
      <text
         x="500"
         y="456"
         style="fill:blue; clip-path:url(#clipPath32); stroke:none;"
         xml:space="preserve"
         clip-path="url(#clipPath32)"
         id="text333">Lewis A</text>
    </g>
    <g
       style="fill:white; text-rendering:geometricPrecision; stroke:white;"
       id="g343">
      <path
         d="M130.3681 336.8976 L184.739 336.8976 L184.739 361.8976 L130.3681 361.8976 L130.3681 336.8976 Z"
         style="clip-path:url(#clipPath33); stroke:none;"
         clip-path="url(#clipPath33)"
         id="path337" />
      <path
         d="M130.3681 336.8976 L184.739 336.8976 L184.739 361.8976 L130.3681 361.8976 L130.3681 336.8976 Z"
         style="fill:none; clip-path:url(#clipPath33); stroke:black;"
         clip-path="url(#clipPath33)"
         id="path339" />
      <text
         x="142"
         y="353"
         style="fill:black; clip-path:url(#clipPath33); stroke:none;"
         xml:space="preserve"
         clip-path="url(#clipPath33)"
         id="text341">FUT1</text>
    </g>
    <g
       style="fill:white; text-rendering:geometricPrecision; stroke:white;"
       id="g351">
      <path
         d="M375.3481 266.8507 L465.3481 266.8507 L465.3481 291.8507 L375.3481 291.8507 L375.3481 266.8507 Z"
         style="clip-path:url(#clipPath34); stroke:none;"
         clip-path="url(#clipPath34)"
         id="path345" />
      <path
         d="M375.3481 266.8507 L465.3481 266.8507 L465.3481 291.8507 L375.3481 291.8507 L375.3481 266.8507 Z"
         style="fill:none; clip-path:url(#clipPath34); stroke:black;"
         clip-path="url(#clipPath34)"
         id="path347" />
      <text
         x="393"
         y="283"
         style="fill:black; clip-path:url(#clipPath34); stroke:none;"
         xml:space="preserve"
         clip-path="url(#clipPath34)"
         id="text349">B3GALT2</text>
    </g>
    <g
       style="fill:white; text-rendering:geometricPrecision; stroke:white;"
       id="g359">
      <path
         d="M271.3265 48.9184 L361.3265 48.9184 L361.3265 73.9184 L271.3265 73.9184 L271.3265 48.9184 Z"
         style="clip-path:url(#clipPath35); stroke:none;"
         clip-path="url(#clipPath35)"
         id="path353" />
      <path
         d="M271.3265 48.9184 L361.3265 48.9184 L361.3265 73.9184 L271.3265 73.9184 L271.3265 48.9184 Z"
         style="fill:none; clip-path:url(#clipPath35); stroke:blue;"
         clip-path="url(#clipPath35)"
         id="path355" />
      <text
         x="296"
         y="65"
         style="fill:blue; clip-path:url(#clipPath35); stroke:none;"
         xml:space="preserve"
         clip-path="url(#clipPath35)"
         id="text357">LacCer</text>
    </g>
    <g
       style="fill:white; text-rendering:geometricPrecision; stroke:white;"
       id="g367">
      <path
         d="M373.1742 112.1959 L433.7586 112.1959 L433.7586 137.1959 L373.1742 137.1959 L373.1742 112.1959 Z"
         style="clip-path:url(#clipPath36); stroke:none;"
         clip-path="url(#clipPath36)"
         id="path361" />
      <path
         d="M373.1742 112.1959 L433.7586 112.1959 L433.7586 137.1959 L373.1742 137.1959 L373.1742 112.1959 Z"
         style="fill:none; clip-path:url(#clipPath36); stroke:black;"
         clip-path="url(#clipPath36)"
         id="path363" />
      <text
         x="379"
         y="129"
         style="fill:black; clip-path:url(#clipPath36); stroke:none;"
         xml:space="preserve"
         clip-path="url(#clipPath36)"
         id="text365">B3GNT5</text>
    </g>
    <g
       style="fill:white; text-rendering:geometricPrecision; stroke:white;"
       id="g375">
      <path
         d="M457.6512 357.2864 L547.6512 357.2864 L547.6512 382.2864 L457.6512 382.2864 L457.6512 357.2864 Z"
         style="clip-path:url(#clipPath37); stroke:none;"
         clip-path="url(#clipPath37)"
         id="path369" />
      <path
         d="M457.6512 357.2864 L547.6512 357.2864 L547.6512 382.2864 L457.6512 382.2864 L457.6512 357.2864 Z"
         style="fill:none; clip-path:url(#clipPath37); stroke:black;"
         clip-path="url(#clipPath37)"
         id="path371" />
      <text
         x="487"
         y="374"
         style="fill:black; clip-path:url(#clipPath37); stroke:none;"
         xml:space="preserve"
         clip-path="url(#clipPath37)"
         id="text373">FUT3</text>
    </g>
  </g>
</svg>
