<?xml version="1.0" encoding="UTF-8" standalone="no"?>
<svg
   style="fill-opacity:1; color-rendering:auto; color-interpolation:auto; stroke:black; text-rendering:auto; stroke-linecap:square; stroke-miterlimit:10; stroke-opacity:1; shape-rendering:auto; fill:black; stroke-dasharray:none; font-weight:normal; stroke-width:1; font-family:'Dialog'; font-style:normal; stroke-linejoin:miter; font-size:12; stroke-dashoffset:0; image-rendering:auto;"
   width="1526"
   height="423"
   version="1.1"
   id="svg415"
   xmlns="http://www.w3.org/2000/svg"
   xmlns:svg="http://www.w3.org/2000/svg">
  <!--Generated by the Batik Graphics2D SVG Generator-->
  <defs
     id="genericDefs" />
  <g
     id="g413">
    <defs
       id="defs1">
      <clipPath
         clipPathUnits="userSpaceOnUse"
         id="clipPath1">
        <path
           d="M0 0 L1541 0 L1541 439 L0 439 L0 0 Z"
           id="path3" />
      </clipPath>
      <clipPath
         clipPathUnits="userSpaceOnUse"
         id="clipPath2">
        <path
           d="M0 0 L0 200 L200 200 L200 0 Z"
           id="path6" />
      </clipPath>
      <clipPath
         clipPathUnits="userSpaceOnUse"
         id="clipPath3">
        <path
           d="M207 16 L207 37 L218 37 L218 16 Z"
           id="path9" />
      </clipPath>
      <clipPath
         clipPathUnits="userSpaceOnUse"
         id="clipPath4">
        <path
           d="M206.4551 3.918 L217.5449 3.918 L217.5449 19.2305 L206.4551 19.2305 L206.4551 3.918 Z"
           id="path12" />
      </clipPath>
      <clipPath
         clipPathUnits="userSpaceOnUse"
         id="clipPath5">
        <path
           d="M995.8146 179.3366 L995.8146 238.2779 L1075.1306 238.2779 L1075.1306 179.3366 Z"
           id="path15" />
      </clipPath>
      <clipPath
         clipPathUnits="userSpaceOnUse"
         id="clipPath6">
        <path
           d="M733.2027 273.8354 L733.2027 338.911 L794.6193 338.911 L794.6193 273.8354 Z"
           id="path18" />
      </clipPath>
      <clipPath
         clipPathUnits="userSpaceOnUse"
         id="clipPath7">
        <path
           d="M150.5537 343.8746 L150.5537 360.1214 L269.1819 360.1214 L269.1819 343.8746 Z"
           id="path21" />
      </clipPath>
      <clipPath
         clipPathUnits="userSpaceOnUse"
         id="clipPath8">
        <path
           d="M775.3002 170.5342 L775.3002 234.1323 L818.7229 234.1323 L818.7229 170.5342 Z"
           id="path24" />
      </clipPath>
      <clipPath
         clipPathUnits="userSpaceOnUse"
         id="clipPath9">
        <path
           d="M150.5704 337.6414 L150.5704 360.7768 L477.681 360.7768 L477.681 337.6414 Z"
           id="path27" />
      </clipPath>
      <clipPath
         clipPathUnits="userSpaceOnUse"
         id="clipPath10">
        <path
           d="M475.2203 242.9449 L475.2203 282.1084 L512.3201 282.1084 L512.3201 242.9449 Z"
           id="path30" />
      </clipPath>
      <clipPath
         clipPathUnits="userSpaceOnUse"
         id="clipPath11">
        <path
           d="M996.014 307.7086 L996.014 319.6475 L1075.9031 319.6475 L1075.9031 307.7086 Z"
           id="path33" />
      </clipPath>
      <clipPath
         clipPathUnits="userSpaceOnUse"
         id="clipPath12">
        <path
           d="M900.5446 101.4031 L900.5446 161.786 L912.4834 161.786 L912.4834 101.4031 Z"
           id="path36" />
      </clipPath>
      <clipPath
         clipPathUnits="userSpaceOnUse"
         id="clipPath13">
        <path
           d="M775.3035 250.2465 L775.3035 316.9804 L818.6467 316.9804 L818.6467 250.2465 Z"
           id="path39" />
      </clipPath>
      <clipPath
         clipPathUnits="userSpaceOnUse"
         id="clipPath14">
        <path
           d="M710.7136 152.7437 L710.7136 212.5387 L793.9612 212.5387 L793.9612 152.7437 Z"
           id="path42" />
      </clipPath>
      <clipPath
         clipPathUnits="userSpaceOnUse"
         id="clipPath15">
        <path
           d="M996.014 167.8166 L996.014 179.7554 L1075.9031 179.7554 L1075.9031 167.8166 Z"
           id="path45" />
      </clipPath>
      <clipPath
         clipPathUnits="userSpaceOnUse"
         id="clipPath16">
        <path
           d="M510.6366 243.0012 L510.6366 284.1443 L603.5543 284.1443 L603.5543 243.0012 Z"
           id="path48" />
      </clipPath>
      <clipPath
         clipPathUnits="userSpaceOnUse"
         id="clipPath17">
        <path
           d="M470.8048 335.5504 L470.8048 388.1786 L482.7436 388.1786 L482.7436 335.5504 Z"
           id="path51" />
      </clipPath>
      <clipPath
         clipPathUnits="userSpaceOnUse"
         id="clipPath18">
        <path
           d="M995.8122 246.0166 L995.8122 308.1299 L1075.069 308.1299 L1075.069 246.0166 Z"
           id="path54" />
      </clipPath>
      <clipPath
         clipPathUnits="userSpaceOnUse"
         id="clipPath19">
        <path
           d="M1156.0024 185.786 L1156.0024 233.6189 L1167.9413 233.6189 L1167.9413 185.786 Z"
           id="path57" />
      </clipPath>
      <clipPath
         clipPathUnits="userSpaceOnUse"
         id="clipPath20">
        <path
           d="M1251.4718 307.7086 L1251.4718 319.6475 L1335.5752 319.6475 L1335.5752 307.7086 Z"
           id="path60" />
      </clipPath>
      <clipPath
         clipPathUnits="userSpaceOnUse"
         id="clipPath21">
        <path
           d="M309.3776 259.1174 L309.3776 314.6973 L641.5652 314.6973 L641.5652 259.1174 Z"
           id="path63" />
      </clipPath>
      <clipPath
         clipPathUnits="userSpaceOnUse"
         id="clipPath22">
        <path
           d="M1251.4718 167.8166 L1251.4718 179.7554 L1335.5752 179.7554 L1335.5752 167.8166 Z"
           id="path66" />
      </clipPath>
      <clipPath
         clipPathUnits="userSpaceOnUse"
         id="clipPath23">
        <path
           d="M472.9565 259.083 L472.9565 314.5827 L686.5996 314.5827 L686.5996 259.083 Z"
           id="path69" />
      </clipPath>
      <clipPath
         clipPathUnits="userSpaceOnUse"
         id="clipPath24">
        <path
           d="M262.2933 334.7461 L262.2933 388.1786 L274.2321 388.1786 L274.2321 334.7461 Z"
           id="path72" />
      </clipPath>
      <clipPath
         clipPathUnits="userSpaceOnUse"
         id="clipPath25">
        <path
           d="M665.9094 337.7042 L665.9094 363.7042 L756.9094 363.7042 L756.9094 337.7042 Z"
           id="path75" />
      </clipPath>
      <clipPath
         clipPathUnits="userSpaceOnUse"
         id="clipPath26">
        <path
           d="M60.596 331.417 L60.596 357.417 L151.596 357.417 L151.596 331.417 Z"
           id="path78" />
      </clipPath>
      <clipPath
         clipPathUnits="userSpaceOnUse"
         id="clipPath27">
        <path
           d="M1071.4718 300.678 L1071.4718 326.678 L1252.4718 326.678 L1252.4718 300.678 Z"
           id="path81" />
      </clipPath>
      <clipPath
         clipPathUnits="userSpaceOnUse"
         id="clipPath28">
        <path
           d="M816.014 160.786 L816.014 186.786 L997.014 186.786 L997.014 160.786 Z"
           id="path84" />
      </clipPath>
      <clipPath
         clipPathUnits="userSpaceOnUse"
         id="clipPath29">
        <path
           d="M665.9094 127.9396 L665.9094 153.9396 L756.9094 153.9396 L756.9094 127.9396 Z"
           id="path87" />
      </clipPath>
      <clipPath
         clipPathUnits="userSpaceOnUse"
         id="clipPath30">
        <path
           d="M404.7073 219.8328 L404.7073 244.1516 L547.1469 244.1516 L547.1469 219.8328 Z"
           id="path90" />
      </clipPath>
      <clipPath
         clipPathUnits="userSpaceOnUse"
         id="clipPath31">
        <path
           d="M816.014 300.678 L816.014 326.678 L997.014 326.678 L997.014 300.678 Z"
           id="path93" />
      </clipPath>
      <clipPath
         clipPathUnits="userSpaceOnUse"
         id="clipPath32">
        <path
           d="M595.4948 224.1878 L595.4948 260.1878 L776.4948 260.1878 L776.4948 224.1878 Z"
           id="path96" />
      </clipPath>
      <clipPath
         clipPathUnits="userSpaceOnUse"
         id="clipPath33">
        <path
           d="M1071.4718 160.786 L1071.4718 186.786 L1252.4718 186.786 L1252.4718 160.786 Z"
           id="path99" />
      </clipPath>
      <clipPath
         clipPathUnits="userSpaceOnUse"
         id="clipPath34">
        <path
           d="M177.7627 309.7461 L177.7627 335.7461 L358.7627 335.7461 L358.7627 309.7461 Z"
           id="path102" />
      </clipPath>
      <clipPath
         clipPathUnits="userSpaceOnUse"
         id="clipPath35">
        <path
           d="M177.7627 383.7475 L177.7627 409.7475 L358.7627 409.7475 L358.7627 383.7475 Z"
           id="path105" />
      </clipPath>
      <clipPath
         clipPathUnits="userSpaceOnUse"
         id="clipPath36">
        <path
           d="M386.2742 310.5504 L386.2742 336.5504 L567.2742 336.5504 L567.2742 310.5504 Z"
           id="path108" />
      </clipPath>
      <clipPath
         clipPathUnits="userSpaceOnUse"
         id="clipPath37">
        <path
           d="M386.2742 383.7475 L386.2742 409.7475 L567.2742 409.7475 L567.2742 383.7475 Z"
           id="path111" />
      </clipPath>
      <clipPath
         clipPathUnits="userSpaceOnUse"
         id="clipPath38">
        <path
           d="M1071.4718 229.1878 L1071.4718 255.1878 L1252.4718 255.1878 L1252.4718 229.1878 Z"
           id="path114" />
      </clipPath>
      <clipPath
         clipPathUnits="userSpaceOnUse"
         id="clipPath39">
        <path
           d="M1331.144 300.678 L1331.144 326.678 L1512.144 326.678 L1512.144 300.678 Z"
           id="path117" />
      </clipPath>
      <clipPath
         clipPathUnits="userSpaceOnUse"
         id="clipPath40">
        <path
           d="M1331.144 160.786 L1331.144 186.786 L1512.144 186.786 L1512.144 160.786 Z"
           id="path120" />
      </clipPath>
      <clipPath
         clipPathUnits="userSpaceOnUse"
         id="clipPath41">
        <path
           d="M816.014 79.8342 L816.014 105.8342 L997.014 105.8342 L997.014 79.8342 Z"
           id="path123" />
      </clipPath>
    </defs>
    <g
       style="fill:white; stroke:white;"
       id="g129">
      <rect
         x="0"
         width="1541"
         height="439"
         y="0"
         style="stroke:none;"
         id="rect127" />
    </g>
    <g
       style="font-weight:bold; font-size:10; text-rendering:geometricPrecision;"
       id="g139">
      <path
         d="M0.0469 6.7031 L6.7656 6.7031 L6.7656 8.125 L4.3438 8.125 L4.3438 14 L2.4688 14 L2.4688 8.125 L0.0469 8.125 L0.0469 6.7031 ZM7.665 8.5312 L9.415 8.5312 L9.415 14 L7.665 14 L7.665 8.5312 ZM7.665 6.4062 L9.415 6.4062 L9.415 7.8281 L7.665 7.8281 L7.665 6.4062 ZM12.999 6.9844 L12.999 8.5312 L14.7959 8.5312 L14.7959 9.7812 L12.999 9.7812 L12.999 12.0938 Q12.999 12.4844 13.1475 12.6172 Q13.2959 12.75 13.749 12.75 L14.6553 12.75 L14.6553 14 L13.1553 14 Q12.1084 14 11.6787 13.5703 Q11.249 13.1406 11.249 12.0938 L11.249 9.7812 L10.374 9.7812 L10.374 8.5312 L11.249 8.5312 L11.249 6.9844 L12.999 6.9844 ZM15.873 6.4062 L17.623 6.4062 L17.623 14 L15.873 14 L15.873 6.4062 ZM24.7539 11.25 L24.7539 11.75 L20.6758 11.75 Q20.7383 12.3594 21.1133 12.6719 Q21.4883 12.9844 22.1758 12.9844 Q22.7227 12.9844 23.3086 12.8203 Q23.8945 12.6562 24.5039 12.3125 L24.5039 13.6719 Q23.8789 13.9062 23.2617 14.0234 Q22.6445 14.1406 22.0195 14.1406 Q20.5352 14.1406 19.7148 13.3828 Q18.8945 12.625 18.8945 11.2656 Q18.8945 9.9375 19.6992 9.1719 Q20.5039 8.4062 21.9258 8.4062 Q23.207 8.4062 23.9805 9.1797 Q24.7539 9.9531 24.7539 11.25 ZM22.957 10.6719 Q22.957 10.1719 22.668 9.8672 Q22.3789 9.5625 21.9102 9.5625 Q21.3945 9.5625 21.082 9.8438 Q20.7695 10.125 20.6914 10.6719 L22.957 10.6719 ZM26.3643 8.5312 L28.1143 8.5312 L28.1143 10.4219 L26.3643 10.4219 L26.3643 8.5312 ZM26.3643 12.1094 L28.1143 12.1094 L28.1143 14 L26.3643 14 L26.3643 12.1094 Z"
         style="clip-path:url(#clipPath2); stroke:none;"
         clip-path="url(#clipPath2)"
         id="path131" />
      <path
         d="M38.9844 6.7031 L39.9688 6.7031 L39.9688 13.1719 L43.5156 13.1719 L43.5156 14 L38.9844 14 L38.9844 6.7031 ZM44.5088 8.5312 L45.415 8.5312 L45.415 14 L44.5088 14 L44.5088 8.5312 ZM44.5088 6.4062 L45.415 6.4062 L45.415 7.5469 L44.5088 7.5469 L44.5088 6.4062 ZM51.834 10.7031 L51.834 14 L50.9434 14 L50.9434 10.7344 Q50.9434 9.9531 50.6387 9.5703 Q50.334 9.1875 49.7246 9.1875 Q49.0059 9.1875 48.584 9.6484 Q48.1621 10.1094 48.1621 10.9062 L48.1621 14 L47.2559 14 L47.2559 8.5312 L48.1621 8.5312 L48.1621 9.375 Q48.4902 8.8906 48.9277 8.6484 Q49.3652 8.4062 49.9277 8.4062 Q50.8652 8.4062 51.3496 8.9844 Q51.834 9.5625 51.834 10.7031 ZM55.75 9.1562 Q55.0312 9.1562 54.6094 9.7188 Q54.1875 10.2812 54.1875 11.2656 Q54.1875 12.25 54.6016 12.8125 Q55.0156 13.375 55.75 13.375 Q56.4688 13.375 56.8906 12.8125 Q57.3125 12.25 57.3125 11.2656 Q57.3125 10.2969 56.8906 9.7266 Q56.4688 9.1562 55.75 9.1562 ZM55.75 8.4062 Q56.9219 8.4062 57.5938 9.1641 Q58.2656 9.9219 58.2656 11.2656 Q58.2656 12.6094 57.5938 13.375 Q56.9219 14.1406 55.75 14.1406 Q54.5781 14.1406 53.9062 13.375 Q53.2344 12.6094 53.2344 11.2656 Q53.2344 9.9219 53.9062 9.1641 Q54.5781 8.4062 55.75 8.4062 ZM59.7432 6.4062 L60.6494 6.4062 L60.6494 14 L59.7432 14 L59.7432 6.4062 ZM67.209 11.0469 L67.209 11.4844 L63.0684 11.4844 Q63.1309 12.4062 63.6309 12.8906 Q64.1309 13.375 65.0215 13.375 Q65.5371 13.375 66.0293 13.25 Q66.5215 13.125 66.9902 12.875 L66.9902 13.7188 Q66.5059 13.9219 65.998 14.0312 Q65.4902 14.1406 64.9746 14.1406 Q63.6621 14.1406 62.8965 13.3828 Q62.1309 12.625 62.1309 11.3125 Q62.1309 9.9688 62.8574 9.1875 Q63.584 8.4062 64.8184 8.4062 Q65.9277 8.4062 66.5684 9.1094 Q67.209 9.8125 67.209 11.0469 ZM66.3027 10.7812 Q66.3027 10.0469 65.8965 9.6016 Q65.4902 9.1562 64.834 9.1562 Q64.0684 9.1562 63.623 9.5859 Q63.1777 10.0156 63.0996 10.7812 L66.3027 10.7812 ZM68.6738 8.5312 L69.5801 8.5312 L69.5801 14 L68.6738 14 L68.6738 8.5312 ZM68.6738 6.4062 L69.5801 6.4062 L69.5801 7.5469 L68.6738 7.5469 L68.6738 6.4062 ZM75.3896 8.7344 L75.3896 9.5781 Q75.0146 9.375 74.6318 9.2656 Q74.249 9.1562 73.8584 9.1562 Q72.9834 9.1562 72.499 9.7109 Q72.0146 10.2656 72.0146 11.2656 Q72.0146 12.2656 72.499 12.8203 Q72.9834 13.375 73.8584 13.375 Q74.249 13.375 74.6318 13.2734 Q75.0146 13.1719 75.3896 12.9531 L75.3896 13.7969 Q75.0146 13.9688 74.6162 14.0547 Q74.2178 14.1406 73.7646 14.1406 Q72.5146 14.1406 71.7881 13.3672 Q71.0615 12.5938 71.0615 11.2656 Q71.0615 9.9375 71.7959 9.1719 Q72.5303 8.4062 73.8115 8.4062 Q74.2334 8.4062 74.624 8.4844 Q75.0146 8.5625 75.3896 8.7344 ZM82.6133 11.25 Q81.5352 11.25 81.1133 11.5 Q80.6914 11.75 80.6914 12.3438 Q80.6914 12.8281 81.0039 13.1094 Q81.3164 13.3906 81.8633 13.3906 Q82.6133 13.3906 83.0664 12.8594 Q83.5195 12.3281 83.5195 11.4531 L83.5195 11.25 L82.6133 11.25 ZM84.4102 10.875 L84.4102 14 L83.5195 14 L83.5195 13.1719 Q83.207 13.6719 82.7461 13.9062 Q82.2852 14.1406 81.6289 14.1406 Q80.7852 14.1406 80.2852 13.6719 Q79.7852 13.2031 79.7852 12.4062 Q79.7852 11.4844 80.4102 11.0156 Q81.0352 10.5469 82.2539 10.5469 L83.5195 10.5469 L83.5195 10.4531 Q83.5195 9.8438 83.1055 9.5 Q82.6914 9.1562 81.957 9.1562 Q81.4883 9.1562 81.043 9.2734 Q80.5977 9.3906 80.1914 9.6094 L80.1914 8.7812 Q80.6914 8.5938 81.1523 8.5 Q81.6133 8.4062 82.0508 8.4062 Q83.2383 8.4062 83.8242 9.0156 Q84.4102 9.625 84.4102 10.875 ZM90.1943 8.7344 L90.1943 9.5781 Q89.8193 9.375 89.4365 9.2656 Q89.0537 9.1562 88.6631 9.1562 Q87.7881 9.1562 87.3037 9.7109 Q86.8193 10.2656 86.8193 11.2656 Q86.8193 12.2656 87.3037 12.8203 Q87.7881 13.375 88.6631 13.375 Q89.0537 13.375 89.4365 13.2734 Q89.8193 13.1719 90.1943 12.9531 L90.1943 13.7969 Q89.8193 13.9688 89.4209 14.0547 Q89.0225 14.1406 88.5693 14.1406 Q87.3193 14.1406 86.5928 13.3672 Q85.8662 12.5938 85.8662 11.2656 Q85.8662 9.9375 86.6006 9.1719 Q87.335 8.4062 88.6162 8.4062 Q89.0381 8.4062 89.4287 8.4844 Q89.8193 8.5625 90.1943 8.7344 ZM91.7549 8.5312 L92.6611 8.5312 L92.6611 14 L91.7549 14 L91.7549 8.5312 ZM91.7549 6.4062 L92.6611 6.4062 L92.6611 7.5469 L91.7549 7.5469 L91.7549 6.4062 ZM98.1426 9.3594 L98.1426 6.4062 L99.0332 6.4062 L99.0332 14 L98.1426 14 L98.1426 13.1719 Q97.8613 13.6719 97.4238 13.9062 Q96.9863 14.1406 96.377 14.1406 Q95.3926 14.1406 94.7676 13.3516 Q94.1426 12.5625 94.1426 11.2656 Q94.1426 9.9844 94.7676 9.1953 Q95.3926 8.4062 96.377 8.4062 Q96.9863 8.4062 97.4238 8.6406 Q97.8613 8.875 98.1426 9.3594 ZM95.0801 11.2656 Q95.0801 12.2656 95.4863 12.8281 Q95.8926 13.3906 96.6113 13.3906 Q97.3145 13.3906 97.7285 12.8281 Q98.1426 12.2656 98.1426 11.2656 Q98.1426 10.2812 97.7285 9.7188 Q97.3145 9.1562 96.6113 9.1562 Q95.8926 9.1562 95.4863 9.7188 Q95.0801 10.2812 95.0801 11.2656 ZM106.1846 9.1562 Q105.4658 9.1562 105.0439 9.7188 Q104.6221 10.2812 104.6221 11.2656 Q104.6221 12.25 105.0361 12.8125 Q105.4502 13.375 106.1846 13.375 Q106.9033 13.375 107.3252 12.8125 Q107.7471 12.25 107.7471 11.2656 Q107.7471 10.2969 107.3252 9.7266 Q106.9033 9.1562 106.1846 9.1562 ZM106.1846 8.4062 Q107.3564 8.4062 108.0283 9.1641 Q108.7002 9.9219 108.7002 11.2656 Q108.7002 12.6094 108.0283 13.375 Q107.3564 14.1406 106.1846 14.1406 Q105.0127 14.1406 104.3408 13.375 Q103.6689 12.6094 103.6689 11.2656 Q103.6689 9.9219 104.3408 9.1641 Q105.0127 8.4062 106.1846 8.4062 ZM114.7246 8.5312 L112.7559 11.1875 L114.834 14 L113.7715 14 L112.1777 11.8438 L110.584 14 L109.5215 14 L111.6465 11.1406 L109.709 8.5312 L110.7715 8.5312 L112.2246 10.4844 L113.6621 8.5312 L114.7246 8.5312 ZM118.377 14.5156 Q118.002 15.4844 117.6348 15.7812 Q117.2676 16.0781 116.6738 16.0781 L115.9551 16.0781 L115.9551 15.3281 L116.4707 15.3281 Q116.8457 15.3281 117.0488 15.1562 Q117.252 14.9844 117.502 14.3281 L117.6738 13.9062 L115.4551 8.5312 L116.4082 8.5312 L118.1113 12.8125 L119.8301 8.5312 L120.7832 8.5312 L118.377 14.5156 ZM122.0137 6.4062 L122.9199 6.4062 L122.9199 14 L122.0137 14 L122.0137 6.4062 ZM124.792 8.5312 L125.6982 8.5312 L125.6982 14 L124.792 14 L124.792 8.5312 ZM124.792 6.4062 L125.6982 6.4062 L125.6982 7.5469 L124.792 7.5469 L124.792 6.4062 ZM128.4453 13.1719 L128.4453 16.0781 L127.5391 16.0781 L127.5391 8.5312 L128.4453 8.5312 L128.4453 9.3594 Q128.7266 8.875 129.1562 8.6406 Q129.5859 8.4062 130.1953 8.4062 Q131.1953 8.4062 131.8125 9.1953 Q132.4297 9.9844 132.4297 11.2656 Q132.4297 12.5625 131.8125 13.3516 Q131.1953 14.1406 130.1953 14.1406 Q129.5859 14.1406 129.1562 13.9062 Q128.7266 13.6719 128.4453 13.1719 ZM131.5078 11.2656 Q131.5078 10.2812 131.0938 9.7188 Q130.6797 9.1562 129.9766 9.1562 Q129.2578 9.1562 128.8516 9.7188 Q128.4453 10.2812 128.4453 11.2656 Q128.4453 12.2656 128.8516 12.8281 Q129.2578 13.3906 129.9766 13.3906 Q130.6797 13.3906 131.0938 12.8281 Q131.5078 12.2656 131.5078 11.2656 ZM133.918 8.5312 L134.8242 8.5312 L134.8242 14 L133.918 14 L133.918 8.5312 ZM133.918 6.4062 L134.8242 6.4062 L134.8242 7.5469 L133.918 7.5469 L133.918 6.4062 ZM141.2432 10.7031 L141.2432 14 L140.3525 14 L140.3525 10.7344 Q140.3525 9.9531 140.0479 9.5703 Q139.7432 9.1875 139.1338 9.1875 Q138.415 9.1875 137.9932 9.6484 Q137.5713 10.1094 137.5713 10.9062 L137.5713 14 L136.665 14 L136.665 8.5312 L137.5713 8.5312 L137.5713 9.375 Q137.8994 8.8906 138.3369 8.6484 Q138.7744 8.4062 139.3369 8.4062 Q140.2744 8.4062 140.7588 8.9844 Q141.2432 9.5625 141.2432 10.7031 ZM150.4785 9.5781 Q150.8066 8.9688 151.2754 8.6875 Q151.7441 8.4062 152.3848 8.4062 Q153.2441 8.4062 153.7051 9 Q154.166 9.5938 154.166 10.7031 L154.166 14 L153.2598 14 L153.2598 10.7344 Q153.2598 9.9375 152.9863 9.5625 Q152.7129 9.1875 152.1348 9.1875 Q151.4316 9.1875 151.0332 9.6484 Q150.6348 10.1094 150.6348 10.9062 L150.6348 14 L149.7285 14 L149.7285 10.7344 Q149.7285 9.9375 149.4473 9.5625 Q149.166 9.1875 148.5879 9.1875 Q147.9004 9.1875 147.4941 9.6484 Q147.0879 10.1094 147.0879 10.9062 L147.0879 14 L146.1816 14 L146.1816 8.5312 L147.0879 8.5312 L147.0879 9.375 Q147.4004 8.875 147.8301 8.6406 Q148.2598 8.4062 148.8379 8.4062 Q149.4473 8.4062 149.8613 8.7031 Q150.2754 9 150.4785 9.5781 ZM160.6416 11.0469 L160.6416 11.4844 L156.501 11.4844 Q156.5635 12.4062 157.0635 12.8906 Q157.5635 13.375 158.4541 13.375 Q158.9697 13.375 159.4619 13.25 Q159.9541 13.125 160.4229 12.875 L160.4229 13.7188 Q159.9385 13.9219 159.4307 14.0312 Q158.9229 14.1406 158.4072 14.1406 Q157.0947 14.1406 156.3291 13.3828 Q155.5635 12.625 155.5635 11.3125 Q155.5635 9.9688 156.29 9.1875 Q157.0166 8.4062 158.251 8.4062 Q159.3604 8.4062 160.001 9.1094 Q160.6416 9.8125 160.6416 11.0469 ZM159.7354 10.7812 Q159.7354 10.0469 159.3291 9.6016 Q158.9229 9.1562 158.2666 9.1562 Q157.501 9.1562 157.0557 9.5859 Q156.6104 10.0156 156.5322 10.7812 L159.7354 10.7812 ZM162.9971 6.9844 L162.9971 8.5312 L164.8564 8.5312 L164.8564 9.2344 L162.9971 9.2344 L162.9971 12.2031 Q162.9971 12.8594 163.1846 13.0547 Q163.3721 13.25 163.9346 13.25 L164.8564 13.25 L164.8564 14 L163.9346 14 Q162.8877 14 162.4893 13.6094 Q162.0908 13.2188 162.0908 12.2031 L162.0908 9.2344 L161.4346 9.2344 L161.4346 8.5312 L162.0908 8.5312 L162.0908 6.9844 L162.9971 6.9844 ZM168.5117 11.25 Q167.4336 11.25 167.0117 11.5 Q166.5898 11.75 166.5898 12.3438 Q166.5898 12.8281 166.9023 13.1094 Q167.2148 13.3906 167.7617 13.3906 Q168.5117 13.3906 168.9648 12.8594 Q169.418 12.3281 169.418 11.4531 L169.418 11.25 L168.5117 11.25 ZM170.3086 10.875 L170.3086 14 L169.418 14 L169.418 13.1719 Q169.1055 13.6719 168.6445 13.9062 Q168.1836 14.1406 167.5273 14.1406 Q166.6836 14.1406 166.1836 13.6719 Q165.6836 13.2031 165.6836 12.4062 Q165.6836 11.4844 166.3086 11.0156 Q166.9336 10.5469 168.1523 10.5469 L169.418 10.5469 L169.418 10.4531 Q169.418 9.8438 169.0039 9.5 Q168.5898 9.1562 167.8555 9.1562 Q167.3867 9.1562 166.9414 9.2734 Q166.4961 9.3906 166.0898 9.6094 L166.0898 8.7812 Q166.5898 8.5938 167.0508 8.5 Q167.5117 8.4062 167.9492 8.4062 Q169.1367 8.4062 169.7227 9.0156 Q170.3086 9.625 170.3086 10.875 ZM176.0928 11.2656 Q176.0928 10.2812 175.6787 9.7188 Q175.2646 9.1562 174.5615 9.1562 Q173.8428 9.1562 173.4365 9.7188 Q173.0303 10.2812 173.0303 11.2656 Q173.0303 12.2656 173.4365 12.8281 Q173.8428 13.3906 174.5615 13.3906 Q175.2646 13.3906 175.6787 12.8281 Q176.0928 12.2656 176.0928 11.2656 ZM173.0303 9.3594 Q173.3115 8.875 173.7412 8.6406 Q174.1709 8.4062 174.7803 8.4062 Q175.7803 8.4062 176.3975 9.1953 Q177.0146 9.9844 177.0146 11.2656 Q177.0146 12.5625 176.3975 13.3516 Q175.7803 14.1406 174.7803 14.1406 Q174.1709 14.1406 173.7412 13.9062 Q173.3115 13.6719 173.0303 13.1719 L173.0303 14 L172.124 14 L172.124 6.4062 L173.0303 6.4062 L173.0303 9.3594 ZM180.6279 9.1562 Q179.9092 9.1562 179.4873 9.7188 Q179.0654 10.2812 179.0654 11.2656 Q179.0654 12.25 179.4795 12.8125 Q179.8936 13.375 180.6279 13.375 Q181.3467 13.375 181.7686 12.8125 Q182.1904 12.25 182.1904 11.2656 Q182.1904 10.2969 181.7686 9.7266 Q181.3467 9.1562 180.6279 9.1562 ZM180.6279 8.4062 Q181.7998 8.4062 182.4717 9.1641 Q183.1436 9.9219 183.1436 11.2656 Q183.1436 12.6094 182.4717 13.375 Q181.7998 14.1406 180.6279 14.1406 Q179.4561 14.1406 178.7842 13.375 Q178.1123 12.6094 178.1123 11.2656 Q178.1123 9.9219 178.7842 9.1641 Q179.4561 8.4062 180.6279 8.4062 ZM184.6211 6.4062 L185.5273 6.4062 L185.5273 14 L184.6211 14 L184.6211 6.4062 ZM187.3994 8.5312 L188.3057 8.5312 L188.3057 14 L187.3994 14 L187.3994 8.5312 ZM187.3994 6.4062 L188.3057 6.4062 L188.3057 7.5469 L187.3994 7.5469 L187.3994 6.4062 ZM193.6621 8.6875 L193.6621 9.5469 Q193.2871 9.3438 192.8809 9.25 Q192.4746 9.1562 192.0215 9.1562 Q191.3652 9.1562 191.0293 9.3594 Q190.6934 9.5625 190.6934 9.9688 Q190.6934 10.2812 190.9277 10.4609 Q191.1621 10.6406 191.8965 10.7969 L192.1934 10.875 Q193.1621 11.0781 193.5605 11.4531 Q193.959 11.8281 193.959 12.4844 Q193.959 13.25 193.3574 13.6953 Q192.7559 14.1406 191.709 14.1406 Q191.2559 14.1406 190.7793 14.0547 Q190.3027 13.9688 189.7871 13.7969 L189.7871 12.875 Q190.2871 13.125 190.7637 13.2578 Q191.2402 13.3906 191.7246 13.3906 Q192.3496 13.3906 192.6934 13.1719 Q193.0371 12.9531 193.0371 12.5625 Q193.0371 12.1875 192.7949 11.9922 Q192.5527 11.7969 191.709 11.625 L191.3965 11.5469 Q190.5684 11.375 190.1934 11.0078 Q189.8184 10.6406 189.8184 10.0156 Q189.8184 9.2344 190.3652 8.8203 Q190.9121 8.4062 191.9277 8.4062 Q192.4121 8.4062 192.8574 8.4766 Q193.3027 8.5469 193.6621 8.6875 ZM199.6533 9.5781 Q199.9814 8.9688 200.4502 8.6875 Q200.9189 8.4062 201.5596 8.4062 Q202.4189 8.4062 202.8799 9 Q203.3408 9.5938 203.3408 10.7031 L203.3408 14 L202.4346 14 L202.4346 10.7344 Q202.4346 9.9375 202.1611 9.5625 Q201.8877 9.1875 201.3096 9.1875 Q200.6064 9.1875 200.208 9.6484 Q199.8096 10.1094 199.8096 10.9062 L199.8096 14 L198.9033 14 L198.9033 10.7344 Q198.9033 9.9375 198.6221 9.5625 Q198.3408 9.1875 197.7627 9.1875 Q197.0752 9.1875 196.6689 9.6484 Q196.2627 10.1094 196.2627 10.9062 L196.2627 14 L195.3564 14 L195.3564 8.5312 L196.2627 8.5312 L196.2627 9.375 Q196.5752 8.875 197.0049 8.6406 Q197.4346 8.4062 198.0127 8.4062 Q198.6221 8.4062 199.0361 8.7031 Q199.4502 9 199.6533 9.5781 Z"
         style="clip-path:url(#clipPath2); stroke:none;"
         clip-path="url(#clipPath2)"
         id="path133" />
      <path
         d="M4.25 21.9375 Q3.3906 21.9375 2.9141 22.5703 Q2.4375 23.2031 2.4375 24.3594 Q2.4375 25.5156 2.9141 26.1484 Q3.3906 26.7812 4.25 26.7812 Q5.1094 26.7812 5.5859 26.1484 Q6.0625 25.5156 6.0625 24.3594 Q6.0625 23.2031 5.5859 22.5703 Q5.1094 21.9375 4.25 21.9375 ZM4.25 20.5781 Q6 20.5781 7 21.5859 Q8 22.5938 8 24.3594 Q8 26.125 7 27.1328 Q6 28.1406 4.25 28.1406 Q2.5 28.1406 1.5 27.1328 Q0.5 26.125 0.5 24.3594 Q0.5 22.5938 1.5 21.5859 Q2.5 20.5781 4.25 20.5781 ZM13.4072 24.0156 Q13.1729 23.9062 12.9463 23.8594 Q12.7197 23.8125 12.4854 23.8125 Q11.8135 23.8125 11.4541 24.2422 Q11.0947 24.6719 11.0947 25.4844 L11.0947 28 L9.3447 28 L9.3447 22.5312 L11.0947 22.5312 L11.0947 23.4219 Q11.4229 22.8906 11.8604 22.6484 Q12.2979 22.4062 12.9072 22.4062 Q13.001 22.4062 13.1025 22.4062 Q13.2041 22.4062 13.3916 22.4375 L13.4072 24.0156 ZM17.9951 27.0781 Q17.6357 27.5469 17.1982 27.7734 Q16.7607 28 16.1982 28 Q15.1982 28 14.542 27.2109 Q13.8857 26.4219 13.8857 25.2031 Q13.8857 23.9688 14.542 23.1875 Q15.1982 22.4062 16.1982 22.4062 Q16.7607 22.4062 17.1982 22.6328 Q17.6357 22.8594 17.9951 23.3438 L17.9951 22.5312 L19.7451 22.5312 L19.7451 27.4531 Q19.7451 28.7656 18.917 29.4609 Q18.0889 30.1562 16.5107 30.1562 Q15.9951 30.1562 15.5186 30.0781 Q15.042 30 14.5576 29.8438 L14.5576 28.4844 Q15.0107 28.75 15.4482 28.875 Q15.8857 29 16.3389 29 Q17.1982 29 17.5967 28.625 Q17.9951 28.25 17.9951 27.4531 L17.9951 27.0781 ZM16.8389 23.6719 Q16.292 23.6719 15.9951 24.0703 Q15.6982 24.4688 15.6982 25.2031 Q15.6982 25.9531 15.9873 26.3438 Q16.2764 26.7344 16.8389 26.7344 Q17.3857 26.7344 17.6904 26.3281 Q17.9951 25.9219 17.9951 25.2031 Q17.9951 24.4688 17.6904 24.0703 Q17.3857 23.6719 16.8389 23.6719 ZM23.8877 25.5312 Q23.3408 25.5312 23.0596 25.7188 Q22.7783 25.9062 22.7783 26.2656 Q22.7783 26.6094 23.0049 26.7969 Q23.2314 26.9844 23.6221 26.9844 Q24.1221 26.9844 24.458 26.625 Q24.7939 26.2656 24.7939 25.7344 L24.7939 25.5312 L23.8877 25.5312 ZM26.5596 24.875 L26.5596 28 L24.7939 28 L24.7939 27.1875 Q24.4346 27.6875 23.9971 27.9141 Q23.5596 28.1406 22.9346 28.1406 Q22.0752 28.1406 21.5518 27.6484 Q21.0283 27.1562 21.0283 26.3594 Q21.0283 25.3906 21.6846 24.9453 Q22.3408 24.5 23.7627 24.5 L24.7939 24.5 L24.7939 24.3594 Q24.7939 23.9531 24.4658 23.7578 Q24.1377 23.5625 23.4502 23.5625 Q22.8877 23.5625 22.4033 23.6719 Q21.9189 23.7812 21.4971 24.0156 L21.4971 22.6719 Q22.0596 22.5469 22.6299 22.4766 Q23.2002 22.4062 23.7627 22.4062 Q25.2471 22.4062 25.9033 22.9844 Q26.5596 23.5625 26.5596 24.875 ZM33.6826 24.6719 L33.6826 28 L31.917 28 L31.917 27.4531 L31.917 25.4531 Q31.917 24.75 31.8857 24.4766 Q31.8545 24.2031 31.7764 24.0781 Q31.6826 23.9062 31.5029 23.8125 Q31.3232 23.7188 31.1045 23.7188 Q30.5576 23.7188 30.2451 24.1406 Q29.9326 24.5625 29.9326 25.3125 L29.9326 28 L28.1826 28 L28.1826 22.5312 L29.9326 22.5312 L29.9326 23.3281 Q30.3232 22.8594 30.7686 22.6328 Q31.2139 22.4062 31.7451 22.4062 Q32.6982 22.4062 33.1904 22.9844 Q33.6826 23.5625 33.6826 24.6719 ZM35.3018 22.5312 L37.0518 22.5312 L37.0518 28 L35.3018 28 L35.3018 22.5312 ZM35.3018 20.4062 L37.0518 20.4062 L37.0518 21.8281 L35.3018 21.8281 L35.3018 20.4062 ZM42.9951 22.7031 L42.9951 24.0312 Q42.4326 23.7969 41.9092 23.6797 Q41.3857 23.5625 40.9326 23.5625 Q40.4326 23.5625 40.1904 23.6875 Q39.9482 23.8125 39.9482 24.0625 Q39.9482 24.2812 40.1279 24.3906 Q40.3076 24.5 40.792 24.5625 L41.0889 24.5938 Q42.4326 24.7656 42.9014 25.1562 Q43.3701 25.5469 43.3701 26.3906 Q43.3701 27.2656 42.7217 27.7031 Q42.0732 28.1406 40.792 28.1406 Q40.2607 28.1406 39.6826 28.0547 Q39.1045 27.9688 38.4795 27.7969 L38.4795 26.4688 Q39.0107 26.7188 39.5576 26.8516 Q40.1045 26.9844 40.667 26.9844 Q41.1826 26.9844 41.4404 26.8438 Q41.6982 26.7031 41.6982 26.4219 Q41.6982 26.1875 41.5264 26.0703 Q41.3545 25.9531 40.8232 25.8906 L40.5107 25.8438 Q39.3389 25.7031 38.8701 25.3047 Q38.4014 24.9062 38.4014 24.1094 Q38.4014 23.2344 38.9951 22.8203 Q39.5889 22.4062 40.8232 22.4062 Q41.3076 22.4062 41.8389 22.4766 Q42.3701 22.5469 42.9951 22.7031 ZM49.7441 23.4375 Q50.0723 22.9375 50.5332 22.6719 Q50.9941 22.4062 51.541 22.4062 Q52.4785 22.4062 52.9707 22.9844 Q53.4629 23.5625 53.4629 24.6719 L53.4629 28 L51.7129 28 L51.7129 25.1406 Q51.7129 25.0781 51.7129 25.0156 Q51.7129 24.9531 51.7129 24.8281 Q51.7129 24.2344 51.5488 23.9766 Q51.3848 23.7188 50.9941 23.7188 Q50.4941 23.7188 50.2285 24.125 Q49.9629 24.5312 49.9473 25.3125 L49.9473 28 L48.1816 28 L48.1816 25.1406 Q48.1816 24.2344 48.0254 23.9766 Q47.8691 23.7188 47.4785 23.7188 Q46.9785 23.7188 46.7051 24.1328 Q46.4316 24.5469 46.4316 25.3125 L46.4316 28 L44.666 28 L44.666 22.5312 L46.4316 22.5312 L46.4316 23.3281 Q46.7441 22.875 47.166 22.6406 Q47.5879 22.4062 48.0879 22.4062 Q48.6504 22.4062 49.0879 22.6797 Q49.5254 22.9531 49.7441 23.4375 ZM55.3828 22.5312 L57.1328 22.5312 L57.1328 24.4219 L55.3828 24.4219 L55.3828 22.5312 ZM55.3828 26.1094 L57.1328 26.1094 L57.1328 28 L55.3828 28 L55.3828 26.1094 Z"
         style="clip-path:url(#clipPath2); stroke:none;"
         clip-path="url(#clipPath2)"
         id="path135" />
      <path
         d="M66.9844 20.7031 L67.9688 20.7031 L67.9688 23.7031 L71.5469 23.7031 L71.5469 20.7031 L72.5312 20.7031 L72.5312 28 L71.5469 28 L71.5469 24.5312 L67.9688 24.5312 L67.9688 28 L66.9844 28 L66.9844 20.7031 ZM76.582 23.1562 Q75.8633 23.1562 75.4414 23.7188 Q75.0195 24.2812 75.0195 25.2656 Q75.0195 26.25 75.4336 26.8125 Q75.8477 27.375 76.582 27.375 Q77.3008 27.375 77.7227 26.8125 Q78.1445 26.25 78.1445 25.2656 Q78.1445 24.2969 77.7227 23.7266 Q77.3008 23.1562 76.582 23.1562 ZM76.582 22.4062 Q77.7539 22.4062 78.4258 23.1641 Q79.0977 23.9219 79.0977 25.2656 Q79.0977 26.6094 78.4258 27.375 Q77.7539 28.1406 76.582 28.1406 Q75.4102 28.1406 74.7383 27.375 Q74.0664 26.6094 74.0664 25.2656 Q74.0664 23.9219 74.7383 23.1641 Q75.4102 22.4062 76.582 22.4062 ZM84.8408 23.5781 Q85.1689 22.9688 85.6377 22.6875 Q86.1064 22.4062 86.7471 22.4062 Q87.6064 22.4062 88.0674 23 Q88.5283 23.5938 88.5283 24.7031 L88.5283 28 L87.6221 28 L87.6221 24.7344 Q87.6221 23.9375 87.3486 23.5625 Q87.0752 23.1875 86.4971 23.1875 Q85.7939 23.1875 85.3955 23.6484 Q84.9971 24.1094 84.9971 24.9062 L84.9971 28 L84.0908 28 L84.0908 24.7344 Q84.0908 23.9375 83.8096 23.5625 Q83.5283 23.1875 82.9502 23.1875 Q82.2627 23.1875 81.8564 23.6484 Q81.4502 24.1094 81.4502 24.9062 L81.4502 28 L80.5439 28 L80.5439 22.5312 L81.4502 22.5312 L81.4502 23.375 Q81.7627 22.875 82.1924 22.6406 Q82.6221 22.4062 83.2002 22.4062 Q83.8096 22.4062 84.2236 22.7031 Q84.6377 23 84.8408 23.5781 ZM92.4414 23.1562 Q91.7227 23.1562 91.3008 23.7188 Q90.8789 24.2812 90.8789 25.2656 Q90.8789 26.25 91.293 26.8125 Q91.707 27.375 92.4414 27.375 Q93.1602 27.375 93.582 26.8125 Q94.0039 26.25 94.0039 25.2656 Q94.0039 24.2969 93.582 23.7266 Q93.1602 23.1562 92.4414 23.1562 ZM92.4414 22.4062 Q93.6133 22.4062 94.2852 23.1641 Q94.957 23.9219 94.957 25.2656 Q94.957 26.6094 94.2852 27.375 Q93.6133 28.1406 92.4414 28.1406 Q91.2695 28.1406 90.5977 27.375 Q89.9258 26.6094 89.9258 25.2656 Q89.9258 23.9219 90.5977 23.1641 Q91.2695 22.4062 92.4414 22.4062 ZM103.0977 22.6875 L103.0977 23.5469 Q102.7227 23.3438 102.3164 23.25 Q101.9102 23.1562 101.457 23.1562 Q100.8008 23.1562 100.4648 23.3594 Q100.1289 23.5625 100.1289 23.9688 Q100.1289 24.2812 100.3633 24.4609 Q100.5977 24.6406 101.332 24.7969 L101.6289 24.875 Q102.5977 25.0781 102.9961 25.4531 Q103.3945 25.8281 103.3945 26.4844 Q103.3945 27.25 102.793 27.6953 Q102.1914 28.1406 101.1445 28.1406 Q100.6914 28.1406 100.2148 28.0547 Q99.7383 27.9688 99.2227 27.7969 L99.2227 26.875 Q99.7227 27.125 100.1992 27.2578 Q100.6758 27.3906 101.1602 27.3906 Q101.7852 27.3906 102.1289 27.1719 Q102.4727 26.9531 102.4727 26.5625 Q102.4727 26.1875 102.2305 25.9922 Q101.9883 25.7969 101.1445 25.625 L100.832 25.5469 Q100.0039 25.375 99.6289 25.0078 Q99.2539 24.6406 99.2539 24.0156 Q99.2539 23.2344 99.8008 22.8203 Q100.3477 22.4062 101.3633 22.4062 Q101.8477 22.4062 102.293 22.4766 Q102.7383 22.5469 103.0977 22.6875 ZM107.3076 25.25 Q106.2295 25.25 105.8076 25.5 Q105.3857 25.75 105.3857 26.3438 Q105.3857 26.8281 105.6982 27.1094 Q106.0107 27.3906 106.5576 27.3906 Q107.3076 27.3906 107.7607 26.8594 Q108.2139 26.3281 108.2139 25.4531 L108.2139 25.25 L107.3076 25.25 ZM109.1045 24.875 L109.1045 28 L108.2139 28 L108.2139 27.1719 Q107.9014 27.6719 107.4404 27.9062 Q106.9795 28.1406 106.3232 28.1406 Q105.4795 28.1406 104.9795 27.6719 Q104.4795 27.2031 104.4795 26.4062 Q104.4795 25.4844 105.1045 25.0156 Q105.7295 24.5469 106.9482 24.5469 L108.2139 24.5469 L108.2139 24.4531 Q108.2139 23.8438 107.7998 23.5 Q107.3857 23.1562 106.6514 23.1562 Q106.1826 23.1562 105.7373 23.2734 Q105.292 23.3906 104.8857 23.6094 L104.8857 22.7812 Q105.3857 22.5938 105.8467 22.5 Q106.3076 22.4062 106.7451 22.4062 Q107.9326 22.4062 108.5186 23.0156 Q109.1045 23.625 109.1045 24.875 ZM111.8262 27.1719 L111.8262 30.0781 L110.9199 30.0781 L110.9199 22.5312 L111.8262 22.5312 L111.8262 23.3594 Q112.1074 22.875 112.5371 22.6406 Q112.9668 22.4062 113.5762 22.4062 Q114.5762 22.4062 115.1934 23.1953 Q115.8105 23.9844 115.8105 25.2656 Q115.8105 26.5625 115.1934 27.3516 Q114.5762 28.1406 113.5762 28.1406 Q112.9668 28.1406 112.5371 27.9062 Q112.1074 27.6719 111.8262 27.1719 ZM114.8887 25.2656 Q114.8887 24.2812 114.4746 23.7188 Q114.0605 23.1562 113.3574 23.1562 Q112.6387 23.1562 112.2324 23.7188 Q111.8262 24.2812 111.8262 25.2656 Q111.8262 26.2656 112.2324 26.8281 Q112.6387 27.3906 113.3574 27.3906 Q114.0605 27.3906 114.4746 26.8281 Q114.8887 26.2656 114.8887 25.2656 ZM117.2988 22.5312 L118.2051 22.5312 L118.2051 28 L117.2988 28 L117.2988 22.5312 ZM117.2988 20.4062 L118.2051 20.4062 L118.2051 21.5469 L117.2988 21.5469 L117.2988 20.4062 ZM124.7646 25.0469 L124.7646 25.4844 L120.624 25.4844 Q120.6865 26.4062 121.1865 26.8906 Q121.6865 27.375 122.5771 27.375 Q123.0928 27.375 123.585 27.25 Q124.0771 27.125 124.5459 26.875 L124.5459 27.7188 Q124.0615 27.9219 123.5537 28.0312 Q123.0459 28.1406 122.5303 28.1406 Q121.2178 28.1406 120.4521 27.3828 Q119.6865 26.625 119.6865 25.3125 Q119.6865 23.9688 120.4131 23.1875 Q121.1396 22.4062 122.374 22.4062 Q123.4834 22.4062 124.124 23.1094 Q124.7646 23.8125 124.7646 25.0469 ZM123.8584 24.7812 Q123.8584 24.0469 123.4521 23.6016 Q123.0459 23.1562 122.3896 23.1562 Q121.624 23.1562 121.1787 23.5859 Q120.7334 24.0156 120.6553 24.7812 L123.8584 24.7812 ZM130.7764 24.7031 L130.7764 28 L129.8857 28 L129.8857 24.7344 Q129.8857 23.9531 129.5811 23.5703 Q129.2764 23.1875 128.667 23.1875 Q127.9482 23.1875 127.5264 23.6484 Q127.1045 24.1094 127.1045 24.9062 L127.1045 28 L126.1982 28 L126.1982 22.5312 L127.1045 22.5312 L127.1045 23.375 Q127.4326 22.8906 127.8701 22.6484 Q128.3076 22.4062 128.8701 22.4062 Q129.8076 22.4062 130.292 22.9844 Q130.7764 23.5625 130.7764 24.7031 ZM136.0518 22.6875 L136.0518 23.5469 Q135.6768 23.3438 135.2705 23.25 Q134.8643 23.1562 134.4111 23.1562 Q133.7549 23.1562 133.4189 23.3594 Q133.083 23.5625 133.083 23.9688 Q133.083 24.2812 133.3174 24.4609 Q133.5518 24.6406 134.2861 24.7969 L134.583 24.875 Q135.5518 25.0781 135.9502 25.4531 Q136.3486 25.8281 136.3486 26.4844 Q136.3486 27.25 135.7471 27.6953 Q135.1455 28.1406 134.0986 28.1406 Q133.6455 28.1406 133.1689 28.0547 Q132.6924 27.9688 132.1768 27.7969 L132.1768 26.875 Q132.6768 27.125 133.1533 27.2578 Q133.6299 27.3906 134.1143 27.3906 Q134.7393 27.3906 135.083 27.1719 Q135.4268 26.9531 135.4268 26.5625 Q135.4268 26.1875 135.1846 25.9922 Q134.9424 25.7969 134.0986 25.625 L133.7861 25.5469 Q132.958 25.375 132.583 25.0078 Q132.208 24.6406 132.208 24.0156 Q132.208 23.2344 132.7549 22.8203 Q133.3018 22.4062 134.3174 22.4062 Q134.8018 22.4062 135.2471 22.4766 Q135.6924 22.5469 136.0518 22.6875 Z"
         style="clip-path:url(#clipPath2); stroke:none;"
         clip-path="url(#clipPath2)"
         id="path137" />
    </g>
    <g
       style="fill:navy; text-rendering:geometricPrecision; font-size:8; stroke:navy;"
       id="g143">
      <text
         x="209"
         xml:space="preserve"
         y="16"
         style="clip-path:url(#clipPath4); stroke:none;"
         clip-path="url(#clipPath4)"
         id="text141">1</text>
    </g>
    <g
       style="text-rendering:geometricPrecision;"
       id="g149">
      <path
         d="M996.514 180.036 L1064.7401 230.5803"
         style="fill:none; clip-path:url(#clipPath5);"
         clip-path="url(#clipPath5)"
         id="path145" />
      <path
         d="M1067.8356 226.402 L1074.1414 237.545 L1061.6447 234.7586 Z"
         style="clip-path:url(#clipPath5); stroke:none;"
         clip-path="url(#clipPath5)"
         id="path147" />
    </g>
    <g
       style="text-rendering:geometricPrecision;"
       id="g157">
      <path
         d="M733.9094 338.2042 L785.3625 283.3288"
         style="fill:none; clip-path:url(#clipPath6);"
         clip-path="url(#clipPath6)"
         id="path151" />
      <path
         d="M792.4761 275.7421 C794.5711 277.7064 794.677 280.9972 792.7126 283.0922 C790.7483 285.1872 787.4576 285.2931 785.3625 283.3288 C783.2676 281.3644 783.1616 278.0737 785.126 275.9787 C787.0903 273.8837 790.3811 273.7777 792.4761 275.7421 Z"
         style="fill:white; clip-path:url(#clipPath6); stroke:none;"
         clip-path="url(#clipPath6)"
         id="path153" />
      <path
         d="M792.4761 275.7421 C794.5711 277.7064 794.677 280.9972 792.7126 283.0922 C790.7483 285.1872 787.4576 285.2931 785.3625 283.3288 C783.2676 281.3644 783.1616 278.0737 785.126 275.9787 C787.0903 273.8837 790.3811 273.7777 792.4761 275.7421 Z"
         style="fill:none; clip-path:url(#clipPath6);"
         clip-path="url(#clipPath6)"
         id="path155" />
    </g>
    <g
       style="text-rendering:geometricPrecision;"
       id="g165">
      <path
         d="M151.096 344.417 L258.3021 353.96"
         style="fill:none; clip-path:url(#clipPath7);"
         clip-path="url(#clipPath7)"
         id="path159" />
      <path
         d="M268.6611 354.8821 C268.4065 357.7427 265.8811 359.8552 263.0206 359.6006 C260.16 359.3459 258.0475 356.8206 258.3021 353.96 C258.5567 351.0994 261.0821 348.9869 263.9427 349.2415 C266.8033 349.4962 268.9158 352.0215 268.6611 354.8821 Z"
         style="fill:white; clip-path:url(#clipPath7); stroke:none;"
         clip-path="url(#clipPath7)"
         id="path161" />
      <path
         d="M268.6611 354.8821 C268.4065 357.7427 265.8811 359.8552 263.0206 359.6006 C260.16 359.3459 258.0475 356.8206 258.3021 353.96 C258.5567 351.0994 261.0821 348.9869 263.9427 349.2415 C266.8033 349.4962 268.9158 352.0215 268.6611 354.8821 Z"
         style="fill:none; clip-path:url(#clipPath7);"
         clip-path="url(#clipPath7)"
         id="path163" />
    </g>
    <g
       style="text-rendering:geometricPrecision;"
       id="g171">
      <path
         d="M775.9948 233.4378 L811.457 181.2309"
         style="fill:none; clip-path:url(#clipPath8);"
         clip-path="url(#clipPath8)"
         id="path167" />
      <path
         d="M807.1555 178.3091 L818.0311 171.5526 L815.7585 184.1528 Z"
         style="clip-path:url(#clipPath8); stroke:none;"
         clip-path="url(#clipPath8)"
         id="path169" />
    </g>
    <g
       style="text-rendering:geometricPrecision;"
       id="g179">
      <path
         d="M151.096 338.167 L466.7881 354.803"
         style="fill:none; clip-path:url(#clipPath9);"
         clip-path="url(#clipPath9)"
         id="path173" />
      <path
         d="M477.1736 355.3503 C477.0225 358.2182 474.5751 360.4206 471.7072 360.2694 C468.8393 360.1183 466.6369 357.6709 466.7881 354.803 C466.9392 351.9351 469.3866 349.7327 472.2545 349.8839 C475.1224 350.035 477.3248 352.4824 477.1736 355.3503 Z"
         style="fill:white; clip-path:url(#clipPath9); stroke:none;"
         clip-path="url(#clipPath9)"
         id="path175" />
      <path
         d="M477.1736 355.3503 C477.0225 358.2182 474.5751 360.4206 471.7072 360.2694 C468.8393 360.1183 466.6369 357.6709 466.7881 354.803 C466.9392 351.9351 469.3866 349.7327 472.2545 349.8839 C475.1224 350.035 477.3248 352.4824 477.1736 355.3503 Z"
         style="fill:none; clip-path:url(#clipPath9);"
         clip-path="url(#clipPath9)"
         id="path177" />
    </g>
    <g
       style="text-rendering:geometricPrecision;"
       id="g187">
      <path
         d="M475.9271 243.6516 L503.0645 272.6139"
         style="fill:none; clip-path:url(#clipPath10);"
         clip-path="url(#clipPath10)"
         id="path181" />
      <path
         d="M510.1755 280.203 C508.0798 282.1666 504.7891 282.0596 502.8255 279.9639 C500.8618 277.8682 500.9689 274.5775 503.0645 272.6139 C505.1602 270.6502 508.4509 270.7573 510.4146 272.853 C512.3782 274.9486 512.2712 278.2393 510.1755 280.203 Z"
         style="fill:white; clip-path:url(#clipPath10); stroke:none;"
         clip-path="url(#clipPath10)"
         id="path183" />
      <path
         d="M510.1755 280.203 C508.0798 282.1666 504.7891 282.0596 502.8255 279.9639 C500.8618 277.8682 500.9689 274.5775 503.0645 272.6139 C505.1602 270.6502 508.4509 270.7573 510.4146 272.853 C512.3782 274.9486 512.2712 278.2393 510.1755 280.203 Z"
         style="fill:none; clip-path:url(#clipPath10);"
         clip-path="url(#clipPath10)"
         id="path185" />
    </g>
    <g
       style="text-rendering:geometricPrecision;"
       id="g193">
      <path
         d="M996.514 313.678 L1062.9718 313.678"
         style="fill:none; clip-path:url(#clipPath11);"
         clip-path="url(#clipPath11)"
         id="path189" />
      <path
         d="M1062.9718 308.478 L1074.6719 313.678 L1062.9718 318.8781 Z"
         style="clip-path:url(#clipPath11); stroke:none;"
         clip-path="url(#clipPath11)"
         id="path191" />
    </g>
    <g
       style="text-rendering:geometricPrecision;"
       id="g199">
      <path
         d="M906.514 161.286 L906.514 114.3342"
         style="fill:none; clip-path:url(#clipPath12);"
         clip-path="url(#clipPath12)"
         id="path195" />
      <path
         d="M901.314 114.3342 L906.514 102.6342 L911.714 114.3342 Z"
         style="clip-path:url(#clipPath12); stroke:none;"
         clip-path="url(#clipPath12)"
         id="path197" />
    </g>
    <g
       style="text-rendering:geometricPrecision;"
       id="g205">
      <path
         d="M775.9948 250.9378 L811.6313 306.1176"
         style="fill:none; clip-path:url(#clipPath13);"
         clip-path="url(#clipPath13)"
         id="path201" />
      <path
         d="M815.9996 303.2965 L817.9788 315.9462 L807.2631 308.9388 Z"
         style="clip-path:url(#clipPath13); stroke:none;"
         clip-path="url(#clipPath13)"
         id="path203" />
    </g>
    <g
       style="text-rendering:geometricPrecision;"
       id="g213">
      <path
         d="M711.4094 153.4396 L783.9903 203.871"
         style="fill:none; clip-path:url(#clipPath14);"
         clip-path="url(#clipPath14)"
         id="path207" />
      <path
         d="M792.531 209.8053 C790.8923 212.1638 787.6519 212.7472 785.2935 211.1085 C782.935 209.4698 782.3516 206.2294 783.9903 203.871 C785.629 201.5125 788.8694 200.9291 791.2278 202.5678 C793.5862 204.2065 794.1697 207.4469 792.531 209.8053 Z"
         style="fill:white; clip-path:url(#clipPath14); stroke:none;"
         clip-path="url(#clipPath14)"
         id="path209" />
      <path
         d="M792.531 209.8053 C790.8923 212.1638 787.6519 212.7472 785.2935 211.1085 C782.935 209.4698 782.3516 206.2294 783.9903 203.871 C785.629 201.5125 788.8694 200.9291 791.2278 202.5678 C793.5862 204.2065 794.1697 207.4469 792.531 209.8053 Z"
         style="fill:none; clip-path:url(#clipPath14);"
         clip-path="url(#clipPath14)"
         id="path211" />
    </g>
    <g
       style="text-rendering:geometricPrecision;"
       id="g219">
      <path
         d="M996.514 173.786 L1062.9718 173.786"
         style="fill:none; clip-path:url(#clipPath15);"
         clip-path="url(#clipPath15)"
         id="path215" />
      <path
         d="M1062.9718 168.586 L1074.6719 173.786 L1062.9718 178.986 Z"
         style="clip-path:url(#clipPath15); stroke:none;"
         clip-path="url(#clipPath15)"
         id="path217" />
    </g>
    <g
       style="text-rendering:geometricPrecision;"
       id="g227">
      <path
         d="M511.287 243.6516 L593.0279 276.5037"
         style="fill:none; clip-path:url(#clipPath16);"
         clip-path="url(#clipPath16)"
         id="path221" />
      <path
         d="M602.6777 280.382 C601.6068 283.0467 598.5784 284.3387 595.9137 283.2677 C593.249 282.1968 591.957 279.1684 593.0279 276.5037 C594.0989 273.839 597.1273 272.547 599.792 273.6179 C602.4567 274.6889 603.7487 277.7173 602.6777 280.382 Z"
         style="fill:white; clip-path:url(#clipPath16); stroke:none;"
         clip-path="url(#clipPath16)"
         id="path223" />
      <path
         d="M602.6777 280.382 C601.6068 283.0467 598.5784 284.3387 595.9137 283.2677 C593.249 282.1968 591.957 279.1684 593.0279 276.5037 C594.0989 273.839 597.1273 272.547 599.792 273.6179 C602.4567 274.6889 603.7487 277.7173 602.6777 280.382 Z"
         style="fill:none; clip-path:url(#clipPath16);"
         clip-path="url(#clipPath16)"
         id="path225" />
    </g>
    <g
       style="text-rendering:geometricPrecision;"
       id="g233">
      <path
         d="M476.7742 336.0504 L476.7742 375.2475"
         style="fill:none; clip-path:url(#clipPath17);"
         clip-path="url(#clipPath17)"
         id="path229" />
      <path
         d="M481.9742 375.2475 L476.7742 386.9475 L471.5742 375.2475 Z"
         style="clip-path:url(#clipPath17); stroke:none;"
         clip-path="url(#clipPath17)"
         id="path231" />
    </g>
    <g
       style="text-rendering:geometricPrecision;"
       id="g239">
      <path
         d="M996.514 307.428 L1064.8813 253.9808"
         style="fill:none; clip-path:url(#clipPath18);"
         clip-path="url(#clipPath18)"
         id="path235" />
      <path
         d="M1061.6787 249.8841 L1074.099 246.7749 L1068.084 258.0775 Z"
         style="clip-path:url(#clipPath18); stroke:none;"
         clip-path="url(#clipPath18)"
         id="path237" />
    </g>
    <g
       style="text-rendering:geometricPrecision;"
       id="g245">
      <path
         d="M1161.9718 186.286 L1161.9718 220.6878"
         style="fill:none; clip-path:url(#clipPath19);"
         clip-path="url(#clipPath19)"
         id="path241" />
      <path
         d="M1167.1719 220.6878 L1161.9718 232.3878 L1156.7719 220.6878 Z"
         style="clip-path:url(#clipPath19); stroke:none;"
         clip-path="url(#clipPath19)"
         id="path243" />
    </g>
    <g
       style="text-rendering:geometricPrecision;"
       id="g251">
      <path
         d="M1251.9718 313.678 L1322.644 313.678"
         style="fill:none; clip-path:url(#clipPath20);"
         clip-path="url(#clipPath20)"
         id="path247" />
      <path
         d="M1322.644 308.478 L1334.344 313.678 L1322.644 318.8781 Z"
         style="clip-path:url(#clipPath20); stroke:none;"
         clip-path="url(#clipPath20)"
         id="path249" />
    </g>
    <g
       style="text-rendering:geometricPrecision;"
       id="g257">
      <path
         d="M640.9948 259.6878 L322.1575 308.8739"
         style="fill:none; clip-path:url(#clipPath21);"
         clip-path="url(#clipPath21)"
         id="path253" />
      <path
         d="M322.9503 314.0131 L310.5943 310.6577 L321.3647 303.7347 Z"
         style="clip-path:url(#clipPath21); stroke:none;"
         clip-path="url(#clipPath21)"
         id="path255" />
    </g>
    <g
       style="text-rendering:geometricPrecision;"
       id="g263">
      <path
         d="M1251.9718 173.786 L1322.644 173.786"
         style="fill:none; clip-path:url(#clipPath22);"
         clip-path="url(#clipPath22)"
         id="path259" />
      <path
         d="M1322.644 168.586 L1334.344 173.786 L1322.644 178.986 Z"
         style="clip-path:url(#clipPath22); stroke:none;"
         clip-path="url(#clipPath22)"
         id="path261" />
    </g>
    <g
       style="text-rendering:geometricPrecision;"
       id="g269">
      <path
         d="M685.9948 259.6878 L485.5147 308.9046"
         style="fill:none; clip-path:url(#clipPath23);"
         clip-path="url(#clipPath23)"
         id="path265" />
      <path
         d="M486.7544 313.9547 L474.1521 311.6941 L484.2749 303.8546 Z"
         style="clip-path:url(#clipPath23); stroke:none;"
         clip-path="url(#clipPath23)"
         id="path267" />
    </g>
    <g
       style="text-rendering:geometricPrecision;"
       id="g275">
      <path
         d="M268.2627 335.2461 L268.2627 375.2475"
         style="fill:none; clip-path:url(#clipPath24);"
         clip-path="url(#clipPath24)"
         id="path271" />
      <path
         d="M273.4627 375.2475 L268.2627 386.9475 L263.0627 375.2475 Z"
         style="clip-path:url(#clipPath24); stroke:none;"
         clip-path="url(#clipPath24)"
         id="path273" />
    </g>
    <g
       style="fill:white; text-rendering:geometricPrecision; stroke:white;"
       id="g283">
      <path
         d="M666.4094 338.2042 L756.4094 338.2042 L756.4094 363.2042 L666.4094 363.2042 L666.4094 338.2042 Z"
         style="clip-path:url(#clipPath25); stroke:none;"
         clip-path="url(#clipPath25)"
         id="path277" />
      <path
         d="M666.4094 338.2042 L756.4094 338.2042 L756.4094 363.2042 L666.4094 363.2042 L666.4094 338.2042 Z"
         style="fill:none; clip-path:url(#clipPath25); stroke:black;"
         clip-path="url(#clipPath25)"
         id="path279" />
      <text
         x="688"
         y="355"
         style="fill:black; clip-path:url(#clipPath25); stroke:none;"
         xml:space="preserve"
         clip-path="url(#clipPath25)"
         id="text281">ALOX15</text>
    </g>
    <g
       style="fill:white; text-rendering:geometricPrecision; stroke:white;"
       id="g291">
      <path
         d="M61.096 331.917 L151.096 331.917 L151.096 356.917 L61.096 356.917 L61.096 331.917 Z"
         style="clip-path:url(#clipPath26); stroke:none;"
         clip-path="url(#clipPath26)"
         id="path285" />
      <path
         d="M61.096 331.917 L151.096 331.917 L151.096 356.917 L61.096 356.917 L61.096 331.917 Z"
         style="fill:none; clip-path:url(#clipPath26); stroke:black;"
         clip-path="url(#clipPath26)"
         id="path287" />
      <text
         x="95"
         y="348"
         style="fill:black; clip-path:url(#clipPath26); stroke:none;"
         xml:space="preserve"
         clip-path="url(#clipPath26)"
         id="text289">sEH</text>
    </g>
    <g
       style="fill:white; text-rendering:geometricPrecision; stroke:white;"
       id="g299">
      <path
         d="M1071.9718 301.178 L1251.9718 301.178 L1251.9718 326.178 L1071.9718 326.178 L1071.9718 301.178 Z"
         style="clip-path:url(#clipPath27); stroke:none;"
         clip-path="url(#clipPath27)"
         id="path293" />
      <path
         d="M1071.9718 301.178 L1251.9718 301.178 L1251.9718 326.178 L1071.9718 326.178 L1071.9718 301.178 Z"
         style="fill:none; clip-path:url(#clipPath27); stroke:blue;"
         clip-path="url(#clipPath27)"
         id="path295" />
      <text
         x="1134"
         y="318"
         style="fill:blue; clip-path:url(#clipPath27); stroke:none;"
         xml:space="preserve"
         clip-path="url(#clipPath27)"
         id="text297">13-HODE</text>
    </g>
    <g
       style="fill:white; text-rendering:geometricPrecision; stroke:white;"
       id="g307">
      <path
         d="M816.514 161.286 L996.514 161.286 L996.514 186.286 L816.514 186.286 L816.514 161.286 Z"
         style="clip-path:url(#clipPath28); stroke:none;"
         clip-path="url(#clipPath28)"
         id="path301" />
      <path
         d="M816.514 161.286 L996.514 161.286 L996.514 186.286 L816.514 186.286 L816.514 161.286 Z"
         style="fill:none; clip-path:url(#clipPath28); stroke:blue;"
         clip-path="url(#clipPath28)"
         id="path303" />
      <text
         x="879"
         y="178"
         style="fill:blue; clip-path:url(#clipPath28); stroke:none;"
         xml:space="preserve"
         clip-path="url(#clipPath28)"
         id="text305">9-HpODE</text>
    </g>
    <g
       style="fill:white; text-rendering:geometricPrecision; stroke:white;"
       id="g315">
      <path
         d="M666.4094 128.4396 L756.4094 128.4396 L756.4094 153.4396 L666.4094 153.4396 L666.4094 128.4396 Z"
         style="clip-path:url(#clipPath29); stroke:none;"
         clip-path="url(#clipPath29)"
         id="path309" />
      <path
         d="M666.4094 128.4396 L756.4094 128.4396 L756.4094 153.4396 L666.4094 153.4396 L666.4094 128.4396 Z"
         style="fill:none; clip-path:url(#clipPath29); stroke:black;"
         clip-path="url(#clipPath29)"
         id="path311" />
      <text
         x="691"
         y="145"
         style="fill:black; clip-path:url(#clipPath29); stroke:none;"
         xml:space="preserve"
         clip-path="url(#clipPath29)"
         id="text313">ALOX5</text>
    </g>
    <g
       style="fill:white; text-rendering:geometricPrecision; stroke:white;"
       id="g323">
      <path
         d="M405.2073 220.3328 L546.6469 220.3328 L546.6469 243.6516 L405.2073 243.6516 L405.2073 220.3328 Z"
         style="clip-path:url(#clipPath30); stroke:none;"
         clip-path="url(#clipPath30)"
         id="path317" />
      <path
         d="M405.2073 220.3328 L546.6469 220.3328 L546.6469 243.6516 L405.2073 243.6516 L405.2073 220.3328 Z"
         style="fill:none; clip-path:url(#clipPath30); stroke:black;"
         clip-path="url(#clipPath30)"
         id="path319" />
      <text
         x="424"
         y="236"
         style="fill:black; clip-path:url(#clipPath30); stroke:none;"
         xml:space="preserve"
         clip-path="url(#clipPath30)"
         id="text321">cytochrome P450</text>
    </g>
    <g
       style="fill:white; text-rendering:geometricPrecision; stroke:white;"
       id="g331">
      <path
         d="M816.514 301.178 L996.514 301.178 L996.514 326.178 L816.514 326.178 L816.514 301.178 Z"
         style="clip-path:url(#clipPath31); stroke:none;"
         clip-path="url(#clipPath31)"
         id="path325" />
      <path
         d="M816.514 301.178 L996.514 301.178 L996.514 326.178 L816.514 326.178 L816.514 301.178 Z"
         style="fill:none; clip-path:url(#clipPath31); stroke:blue;"
         clip-path="url(#clipPath31)"
         id="path327" />
      <text
         x="875"
         y="318"
         style="fill:blue; clip-path:url(#clipPath31); stroke:none;"
         xml:space="preserve"
         clip-path="url(#clipPath31)"
         id="text329">13-HpODE</text>
    </g>
    <g
       style="fill:white; text-rendering:geometricPrecision; stroke:white;"
       id="g339">
      <path
         d="M595.9948 224.6878 L775.9948 224.6878 L775.9948 259.6878 L595.9948 259.6878 L595.9948 224.6878 Z"
         style="clip-path:url(#clipPath32); stroke:none;"
         clip-path="url(#clipPath32)"
         id="path333" />
      <path
         d="M595.9948 224.6878 L775.9948 224.6878 L775.9948 259.6878 L595.9948 259.6878 L595.9948 224.6878 Z"
         style="fill:none; clip-path:url(#clipPath32); stroke:rgb(0,0,204);"
         clip-path="url(#clipPath32)"
         id="path335" />
      <text
         x="636"
         y="247"
         style="font-size:16; clip-path:url(#clipPath32); fill:rgb(0,0,204); stroke:none;"
         xml:space="preserve"
         clip-path="url(#clipPath32)"
         id="text337">Linoleic acid</text>
    </g>
    <g
       style="fill:white; text-rendering:geometricPrecision; stroke:white;"
       id="g347">
      <path
         d="M1071.9718 161.286 L1251.9718 161.286 L1251.9718 186.286 L1071.9718 186.286 L1071.9718 161.286 Z"
         style="clip-path:url(#clipPath33); stroke:none;"
         clip-path="url(#clipPath33)"
         id="path341" />
      <path
         d="M1071.9718 161.286 L1251.9718 161.286 L1251.9718 186.286 L1071.9718 186.286 L1071.9718 161.286 Z"
         style="fill:none; clip-path:url(#clipPath33); stroke:blue;"
         clip-path="url(#clipPath33)"
         id="path343" />
      <text
         x="1138"
         y="178"
         style="fill:blue; clip-path:url(#clipPath33); stroke:none;"
         xml:space="preserve"
         clip-path="url(#clipPath33)"
         id="text345">9-HODE</text>
    </g>
    <g
       style="fill:white; text-rendering:geometricPrecision; stroke:white;"
       id="g355">
      <path
         d="M178.2627 310.2461 L358.2627 310.2461 L358.2627 335.2461 L178.2627 335.2461 L178.2627 310.2461 Z"
         style="clip-path:url(#clipPath34); stroke:none;"
         clip-path="url(#clipPath34)"
         id="path349" />
      <path
         d="M178.2627 310.2461 L358.2627 310.2461 L358.2627 335.2461 L178.2627 335.2461 L178.2627 310.2461 Z"
         style="fill:none; clip-path:url(#clipPath34); stroke:blue;"
         clip-path="url(#clipPath34)"
         id="path351" />
      <text
         x="225"
         y="327"
         style="fill:blue; clip-path:url(#clipPath34); stroke:none;"
         xml:space="preserve"
         clip-path="url(#clipPath34)"
         id="text353">12(13)-EpOME</text>
    </g>
    <g
       style="fill:white; text-rendering:geometricPrecision; stroke:white;"
       id="g363">
      <path
         d="M178.2627 384.2475 L358.2627 384.2475 L358.2627 409.2475 L178.2627 409.2475 L178.2627 384.2475 Z"
         style="clip-path:url(#clipPath35); stroke:none;"
         clip-path="url(#clipPath35)"
         id="path357" />
      <path
         d="M178.2627 384.2475 L358.2627 384.2475 L358.2627 409.2475 L178.2627 409.2475 L178.2627 384.2475 Z"
         style="fill:none; clip-path:url(#clipPath35); stroke:blue;"
         clip-path="url(#clipPath35)"
         id="path359" />
      <text
         x="225"
         y="401"
         style="fill:blue; clip-path:url(#clipPath35); stroke:none;"
         xml:space="preserve"
         clip-path="url(#clipPath35)"
         id="text361">12,13-DiHOME</text>
    </g>
    <g
       style="fill:white; text-rendering:geometricPrecision; stroke:white;"
       id="g371">
      <path
         d="M386.7742 311.0504 L566.7742 311.0504 L566.7742 336.0504 L386.7742 336.0504 L386.7742 311.0504 Z"
         style="clip-path:url(#clipPath36); stroke:none;"
         clip-path="url(#clipPath36)"
         id="path365" />
      <path
         d="M386.7742 311.0504 L566.7742 311.0504 L566.7742 336.0504 L386.7742 336.0504 L386.7742 311.0504 Z"
         style="fill:none; clip-path:url(#clipPath36); stroke:blue;"
         clip-path="url(#clipPath36)"
         id="path367" />
      <text
         x="437"
         y="328"
         style="fill:blue; clip-path:url(#clipPath36); stroke:none;"
         xml:space="preserve"
         clip-path="url(#clipPath36)"
         id="text369">9(10)-EpOME</text>
    </g>
    <g
       style="fill:white; text-rendering:geometricPrecision; stroke:white;"
       id="g379">
      <path
         d="M386.7742 384.2475 L566.7742 384.2475 L566.7742 409.2475 L386.7742 409.2475 L386.7742 384.2475 Z"
         style="clip-path:url(#clipPath37); stroke:none;"
         clip-path="url(#clipPath37)"
         id="path373" />
      <path
         d="M386.7742 384.2475 L566.7742 384.2475 L566.7742 409.2475 L386.7742 409.2475 L386.7742 384.2475 Z"
         style="fill:none; clip-path:url(#clipPath37); stroke:blue;"
         clip-path="url(#clipPath37)"
         id="path375" />
      <text
         x="436"
         y="401"
         style="fill:blue; clip-path:url(#clipPath37); stroke:none;"
         xml:space="preserve"
         clip-path="url(#clipPath37)"
         id="text377">9,10-DiHOME</text>
    </g>
    <g
       style="fill:white; text-rendering:geometricPrecision; stroke:white;"
       id="g387">
      <path
         d="M1071.9718 229.6878 L1251.9718 229.6878 L1251.9718 254.6878 L1071.9718 254.6878 L1071.9718 229.6878 Z"
         style="clip-path:url(#clipPath38); stroke:none;"
         clip-path="url(#clipPath38)"
         id="path381" />
      <path
         d="M1071.9718 229.6878 L1251.9718 229.6878 L1251.9718 254.6878 L1071.9718 254.6878 L1071.9718 229.6878 Z"
         style="fill:none; clip-path:url(#clipPath38); stroke:blue;"
         clip-path="url(#clipPath38)"
         id="path383" />
      <text
         x="1110"
         y="246"
         style="fill:blue; clip-path:url(#clipPath38); stroke:none;"
         xml:space="preserve"
         clip-path="url(#clipPath38)"
         id="text385">9,12,13-TriHOME</text>
    </g>
    <g
       style="fill:white; text-rendering:geometricPrecision; stroke:white;"
       id="g395">
      <path
         d="M1331.644 301.178 L1511.644 301.178 L1511.644 326.178 L1331.644 326.178 L1331.644 301.178 Z"
         style="clip-path:url(#clipPath39); stroke:none;"
         clip-path="url(#clipPath39)"
         id="path389" />
      <path
         d="M1331.644 301.178 L1511.644 301.178 L1511.644 326.178 L1331.644 326.178 L1331.644 301.178 Z"
         style="fill:none; clip-path:url(#clipPath39); stroke:blue;"
         clip-path="url(#clipPath39)"
         id="path391" />
      <text
         x="1387"
         y="318"
         style="fill:blue; clip-path:url(#clipPath39); stroke:none;"
         xml:space="preserve"
         clip-path="url(#clipPath39)"
         id="text393">13-OxoODE</text>
    </g>
    <g
       style="fill:white; text-rendering:geometricPrecision; stroke:white;"
       id="g403">
      <path
         d="M1331.644 161.286 L1511.644 161.286 L1511.644 186.286 L1331.644 186.286 L1331.644 161.286 Z"
         style="clip-path:url(#clipPath40); stroke:none;"
         clip-path="url(#clipPath40)"
         id="path397" />
      <path
         d="M1331.644 161.286 L1511.644 161.286 L1511.644 186.286 L1331.644 186.286 L1331.644 161.286 Z"
         style="fill:none; clip-path:url(#clipPath40); stroke:blue;"
         clip-path="url(#clipPath40)"
         id="path399" />
      <text
         x="1390"
         y="178"
         style="fill:blue; clip-path:url(#clipPath40); stroke:none;"
         xml:space="preserve"
         clip-path="url(#clipPath40)"
         id="text401">9-OxoODE</text>
    </g>
    <g
       style="fill:white; text-rendering:geometricPrecision; stroke:white;"
       id="g411">
      <path
         d="M816.514 80.3342 L996.514 80.3342 L996.514 105.3342 L816.514 105.3342 L816.514 80.3342 Z"
         style="clip-path:url(#clipPath41); stroke:none;"
         clip-path="url(#clipPath41)"
         id="path405" />
      <path
         d="M816.514 80.3342 L996.514 80.3342 L996.514 105.3342 L816.514 105.3342 L816.514 80.3342 Z"
         style="fill:none; clip-path:url(#clipPath41); stroke:blue;"
         clip-path="url(#clipPath41)"
         id="path407" />
      <text
         x="855"
         y="97"
         style="fill:blue; clip-path:url(#clipPath41); stroke:none;"
         xml:space="preserve"
         clip-path="url(#clipPath41)"
         id="text409">9,10,13-TriHOME</text>
    </g>
  </g>
</svg>
