<?xml version="1.0" encoding="UTF-8" standalone="no"?>
<svg
   style="fill-opacity:1; color-rendering:auto; color-interpolation:auto; stroke:black; text-rendering:auto; stroke-linecap:square; stroke-miterlimit:10; stroke-opacity:1; shape-rendering:auto; fill:black; stroke-dasharray:none; font-weight:normal; stroke-width:1; font-family:'Dialog'; font-style:normal; stroke-linejoin:miter; font-size:12; stroke-dashoffset:0; image-rendering:auto;"
   width="745"
   height="687"
   version="1.1"
   id="svg358"
   xmlns="http://www.w3.org/2000/svg"
   xmlns:svg="http://www.w3.org/2000/svg">
  <!--Generated by the Batik Graphics2D SVG Generator-->
  <defs
     id="genericDefs" />
  <g
     id="g356">
    <defs
       id="defs1">
      <clipPath
         clipPathUnits="userSpaceOnUse"
         id="clipPath1">
        <path
           d="M0 0 L761 0 L761 703 L0 703 L0 0 Z"
           id="path3" />
      </clipPath>
      <clipPath
         clipPathUnits="userSpaceOnUse"
         id="clipPath2">
        <path
           d="M0 0 L0 200 L200 200 L200 0 Z"
           id="path6" />
      </clipPath>
      <clipPath
         clipPathUnits="userSpaceOnUse"
         id="clipPath3">
        <path
           d="M156 16 L156 37 L167 37 L167 16 Z"
           id="path9" />
      </clipPath>
      <clipPath
         clipPathUnits="userSpaceOnUse"
         id="clipPath4">
        <path
           d="M155.4551 3.918 L166.5449 3.918 L166.5449 19.2305 L155.4551 19.2305 L155.4551 3.918 Z"
           id="path12" />
      </clipPath>
      <clipPath
         clipPathUnits="userSpaceOnUse"
         id="clipPath5">
        <path
           d="M477 288 L477 372 L581 372 L581 288 Z"
           id="path15" />
      </clipPath>
      <clipPath
         clipPathUnits="userSpaceOnUse"
         id="clipPath6">
        <path
           d="M313.0306 572.7689 L313.0306 620.5 L339.5 620.5 L339.5 572.7689 Z"
           id="path18" />
      </clipPath>
      <clipPath
         clipPathUnits="userSpaceOnUse"
         id="clipPath7">
        <path
           d="M518.1 371.5 L518.1 404.8 L538.6 404.8 L538.6 371.5 Z"
           id="path21" />
      </clipPath>
      <clipPath
         clipPathUnits="userSpaceOnUse"
         id="clipPath8">
        <path
           d="M308.0306 108.5 L308.0306 195.2311 L319.9694 195.2311 L319.9694 108.5 Z"
           id="path24" />
      </clipPath>
      <clipPath
         clipPathUnits="userSpaceOnUse"
         id="clipPath9">
        <path
           d="M470.3062 108.3063 L470.3062 195.0224 L528.6938 195.0224 L528.6938 108.3063 Z"
           id="path27" />
      </clipPath>
      <clipPath
         clipPathUnits="userSpaceOnUse"
         id="clipPath10">
        <path
           d="M414.3074 108.3074 L414.3074 195.028 L471.6926 195.028 L471.6926 108.3074 Z"
           id="path30" />
      </clipPath>
      <clipPath
         clipPathUnits="userSpaceOnUse"
         id="clipPath11">
        <path
           d="M417.7689 614.0306 L417.7689 625.9694 L623.5 625.9694 L623.5 614.0306 Z"
           id="path33" />
      </clipPath>
      <clipPath
         clipPathUnits="userSpaceOnUse"
         id="clipPath12">
        <path
           d="M522.8663 213.4933 L522.8663 289.231 L534.804 289.231 L534.804 213.4933 Z"
           id="path36" />
      </clipPath>
      <clipPath
         clipPathUnits="userSpaceOnUse"
         id="clipPath13">
        <path
           d="M414.2955 213.2955 L414.2955 288.7924 L503.9423 288.7924 L503.9423 213.2955 Z"
           id="path39" />
      </clipPath>
      <clipPath
         clipPathUnits="userSpaceOnUse"
         id="clipPath14">
        <path
           d="M477.5 464.0306 L477.5 475.9694 L585.2311 475.9694 L585.2311 464.0306 Z"
           id="path42" />
      </clipPath>
      <clipPath
         clipPathUnits="userSpaceOnUse"
         id="clipPath15">
        <path
           d="M313.3027 213.3027 L313.3027 330.7138 L478.003 330.7138 L478.003 213.3027 Z"
           id="path45" />
      </clipPath>
      <clipPath
         clipPathUnits="userSpaceOnUse"
         id="clipPath16">
        <path
           d="M551.2 479.5 L551.2 595.6 L624.5 595.6 L624.5 479.5 Z"
           id="path48" />
      </clipPath>
      <clipPath
         clipPathUnits="userSpaceOnUse"
         id="clipPath17">
        <path
           d="M20.4667 203.5 L20.4667 673.5 L731.5 673.5 L731.5 203.5 Z"
           id="path51" />
      </clipPath>
      <clipPath
         clipPathUnits="userSpaceOnUse"
         id="clipPath18">
        <path
           d="M146.8914 532.796 L146.8914 656.246 L509.8732 656.246 L509.8732 532.796 Z"
           id="path54" />
      </clipPath>
      <clipPath
         clipPathUnits="userSpaceOnUse"
         id="clipPath19">
        <path
           d="M265.5 553.5 L265.5 574.5 L372.5 574.5 L372.5 553.5 Z"
           id="path57" />
      </clipPath>
      <clipPath
         clipPathUnits="userSpaceOnUse"
         id="clipPath20">
        <path
           d="M177.5 521.5 L177.5 542.5 L258.5 542.5 L258.5 521.5 Z"
           id="path60" />
      </clipPath>
      <clipPath
         clipPathUnits="userSpaceOnUse"
         id="clipPath21">
        <path
           d="M338.5 609.5 L338.5 630.5 L419.5 630.5 L419.5 609.5 Z"
           id="path63" />
      </clipPath>
      <clipPath
         clipPathUnits="userSpaceOnUse"
         id="clipPath22">
        <path
           d="M430.5 88.5 L430.5 109.5 L511.5 109.5 L511.5 88.5 Z"
           id="path66" />
      </clipPath>
      <clipPath
         clipPathUnits="userSpaceOnUse"
         id="clipPath23">
        <path
           d="M397.5 459.5 L397.5 480.5 L478.5 480.5 L478.5 459.5 Z"
           id="path69" />
      </clipPath>
      <clipPath
         clipPathUnits="userSpaceOnUse"
         id="clipPath24">
        <path
           d="M488.5 319.5 L488.5 340.5 L569.5 340.5 L569.5 319.5 Z"
           id="path72" />
      </clipPath>
      <clipPath
         clipPathUnits="userSpaceOnUse"
         id="clipPath25">
        <path
           d="M273.5 193.5 L273.5 214.5 L354.5 214.5 L354.5 193.5 Z"
           id="path75" />
      </clipPath>
      <clipPath
         clipPathUnits="userSpaceOnUse"
         id="clipPath26">
        <path
           d="M488.5 339.5 L488.5 360.5 L569.5 360.5 L569.5 339.5 Z"
           id="path78" />
      </clipPath>
      <clipPath
         clipPathUnits="userSpaceOnUse"
         id="clipPath27">
        <path
           d="M374.5 193.5 L374.5 214.5 L455.5 214.5 L455.5 193.5 Z"
           id="path81" />
      </clipPath>
      <clipPath
         clipPathUnits="userSpaceOnUse"
         id="clipPath28">
        <path
           d="M583.5 459.5 L583.5 480.5 L664.5 480.5 L664.5 459.5 Z"
           id="path84" />
      </clipPath>
      <clipPath
         clipPathUnits="userSpaceOnUse"
         id="clipPath29">
        <path
           d="M465.5 575.5 L465.5 596.5 L546.5 596.5 L546.5 575.5 Z"
           id="path87" />
      </clipPath>
      <clipPath
         clipPathUnits="userSpaceOnUse"
         id="clipPath30">
        <path
           d="M488.5 409.5 L488.5 430.5 L569.5 430.5 L569.5 409.5 Z"
           id="path90" />
      </clipPath>
      <clipPath
         clipPathUnits="userSpaceOnUse"
         id="clipPath31">
        <path
           d="M487.5 193.5 L487.5 214.5 L568.5 214.5 L568.5 193.5 Z"
           id="path93" />
      </clipPath>
      <clipPath
         clipPathUnits="userSpaceOnUse"
         id="clipPath32">
        <path
           d="M622.5 609.5 L622.5 630.5 L703.5 630.5 L703.5 609.5 Z"
           id="path96" />
      </clipPath>
      <clipPath
         clipPathUnits="userSpaceOnUse"
         id="clipPath33">
        <path
           d="M273.5 88.5 L273.5 109.5 L354.5 109.5 L354.5 88.5 Z"
           id="path99" />
      </clipPath>
      <clipPath
         clipPathUnits="userSpaceOnUse"
         id="clipPath34">
        <path
           d="M488.5 299.5 L488.5 320.5 L569.5 320.5 L569.5 299.5 Z"
           id="path102" />
      </clipPath>
      <clipPath
         clipPathUnits="userSpaceOnUse"
         id="clipPath35">
        <path
           d="M523.3 429.5 L523.3 470.9 L534.7 470.9 L534.7 429.5 Z"
           id="path105" />
      </clipPath>
      <clipPath
         clipPathUnits="userSpaceOnUse"
         id="clipPath36">
        <path
           d="M520.3 595.5 L520.3 620.9 L531.7 620.9 L531.7 595.5 Z"
           id="path108" />
      </clipPath>
    </defs>
    <g
       style="fill:white; stroke:white;"
       id="g114">
      <rect
         x="0"
         width="761"
         height="703"
         y="0"
         style="stroke:none;"
         id="rect112" />
    </g>
    <g
       style="font-weight:bold; font-size:10; text-rendering:geometricPrecision;"
       id="g124">
      <path
         d="M0.0469 6.7031 L6.7656 6.7031 L6.7656 8.125 L4.3438 8.125 L4.3438 14 L2.4688 14 L2.4688 8.125 L0.0469 8.125 L0.0469 6.7031 ZM7.665 8.5312 L9.415 8.5312 L9.415 14 L7.665 14 L7.665 8.5312 ZM7.665 6.4062 L9.415 6.4062 L9.415 7.8281 L7.665 7.8281 L7.665 6.4062 ZM12.999 6.9844 L12.999 8.5312 L14.7959 8.5312 L14.7959 9.7812 L12.999 9.7812 L12.999 12.0938 Q12.999 12.4844 13.1475 12.6172 Q13.2959 12.75 13.749 12.75 L14.6553 12.75 L14.6553 14 L13.1553 14 Q12.1084 14 11.6787 13.5703 Q11.249 13.1406 11.249 12.0938 L11.249 9.7812 L10.374 9.7812 L10.374 8.5312 L11.249 8.5312 L11.249 6.9844 L12.999 6.9844 ZM15.873 6.4062 L17.623 6.4062 L17.623 14 L15.873 14 L15.873 6.4062 ZM24.7539 11.25 L24.7539 11.75 L20.6758 11.75 Q20.7383 12.3594 21.1133 12.6719 Q21.4883 12.9844 22.1758 12.9844 Q22.7227 12.9844 23.3086 12.8203 Q23.8945 12.6562 24.5039 12.3125 L24.5039 13.6719 Q23.8789 13.9062 23.2617 14.0234 Q22.6445 14.1406 22.0195 14.1406 Q20.5352 14.1406 19.7148 13.3828 Q18.8945 12.625 18.8945 11.2656 Q18.8945 9.9375 19.6992 9.1719 Q20.5039 8.4062 21.9258 8.4062 Q23.207 8.4062 23.9805 9.1797 Q24.7539 9.9531 24.7539 11.25 ZM22.957 10.6719 Q22.957 10.1719 22.668 9.8672 Q22.3789 9.5625 21.9102 9.5625 Q21.3945 9.5625 21.082 9.8438 Q20.7695 10.125 20.6914 10.6719 L22.957 10.6719 ZM26.3643 8.5312 L28.1143 8.5312 L28.1143 10.4219 L26.3643 10.4219 L26.3643 8.5312 ZM26.3643 12.1094 L28.1143 12.1094 L28.1143 14 L26.3643 14 L26.3643 12.1094 Z"
         style="clip-path:url(#clipPath2); stroke:none;"
         clip-path="url(#clipPath2)"
         id="path116" />
      <path
         d="M38.9844 6.7031 L39.9688 6.7031 L39.9688 13.1719 L43.5156 13.1719 L43.5156 14 L38.9844 14 L38.9844 6.7031 ZM49.1963 11.0469 L49.1963 11.4844 L45.0557 11.4844 Q45.1182 12.4062 45.6182 12.8906 Q46.1182 13.375 47.0088 13.375 Q47.5244 13.375 48.0166 13.25 Q48.5088 13.125 48.9775 12.875 L48.9775 13.7188 Q48.4932 13.9219 47.9854 14.0312 Q47.4775 14.1406 46.9619 14.1406 Q45.6494 14.1406 44.8838 13.3828 Q44.1182 12.625 44.1182 11.3125 Q44.1182 9.9688 44.8447 9.1875 Q45.5713 8.4062 46.8057 8.4062 Q47.915 8.4062 48.5557 9.1094 Q49.1963 9.8125 49.1963 11.0469 ZM48.29 10.7812 Q48.29 10.0469 47.8838 9.6016 Q47.4775 9.1562 46.8213 9.1562 Q46.0557 9.1562 45.6104 9.5859 Q45.165 10.0156 45.0869 10.7812 L48.29 10.7812 ZM51.5361 13.1719 L51.5361 16.0781 L50.6299 16.0781 L50.6299 8.5312 L51.5361 8.5312 L51.5361 9.3594 Q51.8174 8.875 52.2471 8.6406 Q52.6768 8.4062 53.2861 8.4062 Q54.2861 8.4062 54.9033 9.1953 Q55.5205 9.9844 55.5205 11.2656 Q55.5205 12.5625 54.9033 13.3516 Q54.2861 14.1406 53.2861 14.1406 Q52.6768 14.1406 52.2471 13.9062 Q51.8174 13.6719 51.5361 13.1719 ZM54.5986 11.2656 Q54.5986 10.2812 54.1846 9.7188 Q53.7705 9.1562 53.0674 9.1562 Q52.3486 9.1562 51.9424 9.7188 Q51.5361 10.2812 51.5361 11.2656 Q51.5361 12.2656 51.9424 12.8281 Q52.3486 13.3906 53.0674 13.3906 Q53.7705 13.3906 54.1846 12.8281 Q54.5986 12.2656 54.5986 11.2656 ZM57.8994 6.9844 L57.8994 8.5312 L59.7588 8.5312 L59.7588 9.2344 L57.8994 9.2344 L57.8994 12.2031 Q57.8994 12.8594 58.0869 13.0547 Q58.2744 13.25 58.8369 13.25 L59.7588 13.25 L59.7588 14 L58.8369 14 Q57.79 14 57.3916 13.6094 Q56.9932 13.2188 56.9932 12.2031 L56.9932 9.2344 L56.3369 9.2344 L56.3369 8.5312 L56.9932 8.5312 L56.9932 6.9844 L57.8994 6.9844 ZM60.9297 8.5312 L61.8359 8.5312 L61.8359 14 L60.9297 14 L60.9297 8.5312 ZM60.9297 6.4062 L61.8359 6.4062 L61.8359 7.5469 L60.9297 7.5469 L60.9297 6.4062 ZM68.2549 10.7031 L68.2549 14 L67.3643 14 L67.3643 10.7344 Q67.3643 9.9531 67.0596 9.5703 Q66.7549 9.1875 66.1455 9.1875 Q65.4268 9.1875 65.0049 9.6484 Q64.583 10.1094 64.583 10.9062 L64.583 14 L63.6768 14 L63.6768 8.5312 L64.583 8.5312 L64.583 9.375 Q64.9111 8.8906 65.3486 8.6484 Q65.7861 8.4062 66.3486 8.4062 Q67.2861 8.4062 67.7705 8.9844 Q68.2549 9.5625 68.2549 10.7031 ZM75.709 11.25 Q74.6309 11.25 74.209 11.5 Q73.7871 11.75 73.7871 12.3438 Q73.7871 12.8281 74.0996 13.1094 Q74.4121 13.3906 74.959 13.3906 Q75.709 13.3906 76.1621 12.8594 Q76.6152 12.3281 76.6152 11.4531 L76.6152 11.25 L75.709 11.25 ZM77.5059 10.875 L77.5059 14 L76.6152 14 L76.6152 13.1719 Q76.3027 13.6719 75.8418 13.9062 Q75.3809 14.1406 74.7246 14.1406 Q73.8809 14.1406 73.3809 13.6719 Q72.8809 13.2031 72.8809 12.4062 Q72.8809 11.4844 73.5059 11.0156 Q74.1309 10.5469 75.3496 10.5469 L76.6152 10.5469 L76.6152 10.4531 Q76.6152 9.8438 76.2012 9.5 Q75.7871 9.1562 75.0527 9.1562 Q74.584 9.1562 74.1387 9.2734 Q73.6934 9.3906 73.2871 9.6094 L73.2871 8.7812 Q73.7871 8.5938 74.248 8.5 Q74.709 8.4062 75.1465 8.4062 Q76.334 8.4062 76.9199 9.0156 Q77.5059 9.625 77.5059 10.875 ZM83.8994 10.7031 L83.8994 14 L83.0088 14 L83.0088 10.7344 Q83.0088 9.9531 82.7041 9.5703 Q82.3994 9.1875 81.79 9.1875 Q81.0713 9.1875 80.6494 9.6484 Q80.2275 10.1094 80.2275 10.9062 L80.2275 14 L79.3213 14 L79.3213 8.5312 L80.2275 8.5312 L80.2275 9.375 Q80.5557 8.8906 80.9932 8.6484 Q81.4307 8.4062 81.9932 8.4062 Q82.9307 8.4062 83.415 8.9844 Q83.8994 9.5625 83.8994 10.7031 ZM89.2998 9.3594 L89.2998 6.4062 L90.1904 6.4062 L90.1904 14 L89.2998 14 L89.2998 13.1719 Q89.0186 13.6719 88.5811 13.9062 Q88.1436 14.1406 87.5342 14.1406 Q86.5498 14.1406 85.9248 13.3516 Q85.2998 12.5625 85.2998 11.2656 Q85.2998 9.9844 85.9248 9.1953 Q86.5498 8.4062 87.5342 8.4062 Q88.1436 8.4062 88.5811 8.6406 Q89.0186 8.875 89.2998 9.3594 ZM86.2373 11.2656 Q86.2373 12.2656 86.6436 12.8281 Q87.0498 13.3906 87.7686 13.3906 Q88.4717 13.3906 88.8857 12.8281 Q89.2998 12.2656 89.2998 11.2656 Q89.2998 10.2812 88.8857 9.7188 Q88.4717 9.1562 87.7686 9.1562 Q87.0498 9.1562 86.6436 9.7188 Q86.2373 10.2812 86.2373 11.2656 ZM97.7012 11.25 Q96.623 11.25 96.2012 11.5 Q95.7793 11.75 95.7793 12.3438 Q95.7793 12.8281 96.0918 13.1094 Q96.4043 13.3906 96.9512 13.3906 Q97.7012 13.3906 98.1543 12.8594 Q98.6074 12.3281 98.6074 11.4531 L98.6074 11.25 L97.7012 11.25 ZM99.498 10.875 L99.498 14 L98.6074 14 L98.6074 13.1719 Q98.2949 13.6719 97.834 13.9062 Q97.373 14.1406 96.7168 14.1406 Q95.873 14.1406 95.373 13.6719 Q94.873 13.2031 94.873 12.4062 Q94.873 11.4844 95.498 11.0156 Q96.123 10.5469 97.3418 10.5469 L98.6074 10.5469 L98.6074 10.4531 Q98.6074 9.8438 98.1934 9.5 Q97.7793 9.1562 97.0449 9.1562 Q96.5762 9.1562 96.1309 9.2734 Q95.6855 9.3906 95.2793 9.6094 L95.2793 8.7812 Q95.7793 8.5938 96.2402 8.5 Q96.7012 8.4062 97.1387 8.4062 Q98.3262 8.4062 98.9121 9.0156 Q99.498 9.625 99.498 10.875 ZM104.9541 9.3594 L104.9541 6.4062 L105.8447 6.4062 L105.8447 14 L104.9541 14 L104.9541 13.1719 Q104.6729 13.6719 104.2354 13.9062 Q103.7979 14.1406 103.1885 14.1406 Q102.2041 14.1406 101.5791 13.3516 Q100.9541 12.5625 100.9541 11.2656 Q100.9541 9.9844 101.5791 9.1953 Q102.2041 8.4062 103.1885 8.4062 Q103.7979 8.4062 104.2354 8.6406 Q104.6729 8.875 104.9541 9.3594 ZM101.8916 11.2656 Q101.8916 12.2656 102.2979 12.8281 Q102.7041 13.3906 103.4229 13.3906 Q104.126 13.3906 104.54 12.8281 Q104.9541 12.2656 104.9541 11.2656 Q104.9541 10.2812 104.54 9.7188 Q104.126 9.1562 103.4229 9.1562 Q102.7041 9.1562 102.2979 9.7188 Q101.8916 10.2812 101.8916 11.2656 ZM107.6924 8.5312 L108.5986 8.5312 L108.5986 14 L107.6924 14 L107.6924 8.5312 ZM107.6924 6.4062 L108.5986 6.4062 L108.5986 7.5469 L107.6924 7.5469 L107.6924 6.4062 ZM111.3457 13.1719 L111.3457 16.0781 L110.4395 16.0781 L110.4395 8.5312 L111.3457 8.5312 L111.3457 9.3594 Q111.627 8.875 112.0566 8.6406 Q112.4863 8.4062 113.0957 8.4062 Q114.0957 8.4062 114.7129 9.1953 Q115.3301 9.9844 115.3301 11.2656 Q115.3301 12.5625 114.7129 13.3516 Q114.0957 14.1406 113.0957 14.1406 Q112.4863 14.1406 112.0566 13.9062 Q111.627 13.6719 111.3457 13.1719 ZM114.4082 11.2656 Q114.4082 10.2812 113.9941 9.7188 Q113.5801 9.1562 112.877 9.1562 Q112.1582 9.1562 111.752 9.7188 Q111.3457 10.2812 111.3457 11.2656 Q111.3457 12.2656 111.752 12.8281 Q112.1582 13.3906 112.877 13.3906 Q113.5801 13.3906 113.9941 12.8281 Q114.4082 12.2656 114.4082 11.2656 ZM118.9434 9.1562 Q118.2246 9.1562 117.8027 9.7188 Q117.3809 10.2812 117.3809 11.2656 Q117.3809 12.25 117.7949 12.8125 Q118.209 13.375 118.9434 13.375 Q119.6621 13.375 120.084 12.8125 Q120.5059 12.25 120.5059 11.2656 Q120.5059 10.2969 120.084 9.7266 Q119.6621 9.1562 118.9434 9.1562 ZM118.9434 8.4062 Q120.1152 8.4062 120.7871 9.1641 Q121.459 9.9219 121.459 11.2656 Q121.459 12.6094 120.7871 13.375 Q120.1152 14.1406 118.9434 14.1406 Q117.7715 14.1406 117.0996 13.375 Q116.4277 12.6094 116.4277 11.2656 Q116.4277 9.9219 117.0996 9.1641 Q117.7715 8.4062 118.9434 8.4062 ZM127.4834 10.7031 L127.4834 14 L126.5928 14 L126.5928 10.7344 Q126.5928 9.9531 126.2881 9.5703 Q125.9834 9.1875 125.374 9.1875 Q124.6553 9.1875 124.2334 9.6484 Q123.8115 10.1094 123.8115 10.9062 L123.8115 14 L122.9053 14 L122.9053 8.5312 L123.8115 8.5312 L123.8115 9.375 Q124.1396 8.8906 124.5771 8.6484 Q125.0146 8.4062 125.5771 8.4062 Q126.5146 8.4062 126.999 8.9844 Q127.4834 9.5625 127.4834 10.7031 ZM133.9619 11.0469 L133.9619 11.4844 L129.8213 11.4844 Q129.8838 12.4062 130.3838 12.8906 Q130.8838 13.375 131.7744 13.375 Q132.29 13.375 132.7822 13.25 Q133.2744 13.125 133.7432 12.875 L133.7432 13.7188 Q133.2588 13.9219 132.751 14.0312 Q132.2432 14.1406 131.7275 14.1406 Q130.415 14.1406 129.6494 13.3828 Q128.8838 12.625 128.8838 11.3125 Q128.8838 9.9688 129.6104 9.1875 Q130.3369 8.4062 131.5713 8.4062 Q132.6807 8.4062 133.3213 9.1094 Q133.9619 9.8125 133.9619 11.0469 ZM133.0557 10.7812 Q133.0557 10.0469 132.6494 9.6016 Q132.2432 9.1562 131.5869 9.1562 Q130.8213 9.1562 130.376 9.5859 Q129.9307 10.0156 129.8525 10.7812 L133.0557 10.7812 ZM139.3643 8.7344 L139.3643 9.5781 Q138.9893 9.375 138.6064 9.2656 Q138.2236 9.1562 137.833 9.1562 Q136.958 9.1562 136.4736 9.7109 Q135.9893 10.2656 135.9893 11.2656 Q135.9893 12.2656 136.4736 12.8203 Q136.958 13.375 137.833 13.375 Q138.2236 13.375 138.6064 13.2734 Q138.9893 13.1719 139.3643 12.9531 L139.3643 13.7969 Q138.9893 13.9688 138.5908 14.0547 Q138.1924 14.1406 137.7393 14.1406 Q136.4893 14.1406 135.7627 13.3672 Q135.0361 12.5938 135.0361 11.2656 Q135.0361 9.9375 135.7705 9.1719 Q136.5049 8.4062 137.7861 8.4062 Q138.208 8.4062 138.5986 8.4844 Q138.9893 8.5625 139.3643 8.7344 ZM141.8154 6.9844 L141.8154 8.5312 L143.6748 8.5312 L143.6748 9.2344 L141.8154 9.2344 L141.8154 12.2031 Q141.8154 12.8594 142.0029 13.0547 Q142.1904 13.25 142.7529 13.25 L143.6748 13.25 L143.6748 14 L142.7529 14 Q141.7061 14 141.3076 13.6094 Q140.9092 13.2188 140.9092 12.2031 L140.9092 9.2344 L140.2529 9.2344 L140.2529 8.5312 L140.9092 8.5312 L140.9092 6.9844 L141.8154 6.9844 ZM144.8457 8.5312 L145.752 8.5312 L145.752 14 L144.8457 14 L144.8457 8.5312 ZM144.8457 6.4062 L145.752 6.4062 L145.752 7.5469 L144.8457 7.5469 L144.8457 6.4062 ZM152.1709 10.7031 L152.1709 14 L151.2803 14 L151.2803 10.7344 Q151.2803 9.9531 150.9756 9.5703 Q150.6709 9.1875 150.0615 9.1875 Q149.3428 9.1875 148.9209 9.6484 Q148.499 10.1094 148.499 10.9062 L148.499 14 L147.5928 14 L147.5928 8.5312 L148.499 8.5312 L148.499 9.375 Q148.8271 8.8906 149.2646 8.6484 Q149.7021 8.4062 150.2646 8.4062 Q151.2021 8.4062 151.6865 8.9844 Q152.1709 9.5625 152.1709 10.7031 Z"
         style="clip-path:url(#clipPath2); stroke:none;"
         clip-path="url(#clipPath2)"
         id="path118" />
      <path
         d="M4.25 21.9375 Q3.3906 21.9375 2.9141 22.5703 Q2.4375 23.2031 2.4375 24.3594 Q2.4375 25.5156 2.9141 26.1484 Q3.3906 26.7812 4.25 26.7812 Q5.1094 26.7812 5.5859 26.1484 Q6.0625 25.5156 6.0625 24.3594 Q6.0625 23.2031 5.5859 22.5703 Q5.1094 21.9375 4.25 21.9375 ZM4.25 20.5781 Q6 20.5781 7 21.5859 Q8 22.5938 8 24.3594 Q8 26.125 7 27.1328 Q6 28.1406 4.25 28.1406 Q2.5 28.1406 1.5 27.1328 Q0.5 26.125 0.5 24.3594 Q0.5 22.5938 1.5 21.5859 Q2.5 20.5781 4.25 20.5781 ZM13.4072 24.0156 Q13.1729 23.9062 12.9463 23.8594 Q12.7197 23.8125 12.4854 23.8125 Q11.8135 23.8125 11.4541 24.2422 Q11.0947 24.6719 11.0947 25.4844 L11.0947 28 L9.3447 28 L9.3447 22.5312 L11.0947 22.5312 L11.0947 23.4219 Q11.4229 22.8906 11.8604 22.6484 Q12.2979 22.4062 12.9072 22.4062 Q13.001 22.4062 13.1025 22.4062 Q13.2041 22.4062 13.3916 22.4375 L13.4072 24.0156 ZM17.9951 27.0781 Q17.6357 27.5469 17.1982 27.7734 Q16.7607 28 16.1982 28 Q15.1982 28 14.542 27.2109 Q13.8857 26.4219 13.8857 25.2031 Q13.8857 23.9688 14.542 23.1875 Q15.1982 22.4062 16.1982 22.4062 Q16.7607 22.4062 17.1982 22.6328 Q17.6357 22.8594 17.9951 23.3438 L17.9951 22.5312 L19.7451 22.5312 L19.7451 27.4531 Q19.7451 28.7656 18.917 29.4609 Q18.0889 30.1562 16.5107 30.1562 Q15.9951 30.1562 15.5186 30.0781 Q15.042 30 14.5576 29.8438 L14.5576 28.4844 Q15.0107 28.75 15.4482 28.875 Q15.8857 29 16.3389 29 Q17.1982 29 17.5967 28.625 Q17.9951 28.25 17.9951 27.4531 L17.9951 27.0781 ZM16.8389 23.6719 Q16.292 23.6719 15.9951 24.0703 Q15.6982 24.4688 15.6982 25.2031 Q15.6982 25.9531 15.9873 26.3438 Q16.2764 26.7344 16.8389 26.7344 Q17.3857 26.7344 17.6904 26.3281 Q17.9951 25.9219 17.9951 25.2031 Q17.9951 24.4688 17.6904 24.0703 Q17.3857 23.6719 16.8389 23.6719 ZM23.8877 25.5312 Q23.3408 25.5312 23.0596 25.7188 Q22.7783 25.9062 22.7783 26.2656 Q22.7783 26.6094 23.0049 26.7969 Q23.2314 26.9844 23.6221 26.9844 Q24.1221 26.9844 24.458 26.625 Q24.7939 26.2656 24.7939 25.7344 L24.7939 25.5312 L23.8877 25.5312 ZM26.5596 24.875 L26.5596 28 L24.7939 28 L24.7939 27.1875 Q24.4346 27.6875 23.9971 27.9141 Q23.5596 28.1406 22.9346 28.1406 Q22.0752 28.1406 21.5518 27.6484 Q21.0283 27.1562 21.0283 26.3594 Q21.0283 25.3906 21.6846 24.9453 Q22.3408 24.5 23.7627 24.5 L24.7939 24.5 L24.7939 24.3594 Q24.7939 23.9531 24.4658 23.7578 Q24.1377 23.5625 23.4502 23.5625 Q22.8877 23.5625 22.4033 23.6719 Q21.9189 23.7812 21.4971 24.0156 L21.4971 22.6719 Q22.0596 22.5469 22.6299 22.4766 Q23.2002 22.4062 23.7627 22.4062 Q25.2471 22.4062 25.9033 22.9844 Q26.5596 23.5625 26.5596 24.875 ZM33.6826 24.6719 L33.6826 28 L31.917 28 L31.917 27.4531 L31.917 25.4531 Q31.917 24.75 31.8857 24.4766 Q31.8545 24.2031 31.7764 24.0781 Q31.6826 23.9062 31.5029 23.8125 Q31.3232 23.7188 31.1045 23.7188 Q30.5576 23.7188 30.2451 24.1406 Q29.9326 24.5625 29.9326 25.3125 L29.9326 28 L28.1826 28 L28.1826 22.5312 L29.9326 22.5312 L29.9326 23.3281 Q30.3232 22.8594 30.7686 22.6328 Q31.2139 22.4062 31.7451 22.4062 Q32.6982 22.4062 33.1904 22.9844 Q33.6826 23.5625 33.6826 24.6719 ZM35.3018 22.5312 L37.0518 22.5312 L37.0518 28 L35.3018 28 L35.3018 22.5312 ZM35.3018 20.4062 L37.0518 20.4062 L37.0518 21.8281 L35.3018 21.8281 L35.3018 20.4062 ZM42.9951 22.7031 L42.9951 24.0312 Q42.4326 23.7969 41.9092 23.6797 Q41.3857 23.5625 40.9326 23.5625 Q40.4326 23.5625 40.1904 23.6875 Q39.9482 23.8125 39.9482 24.0625 Q39.9482 24.2812 40.1279 24.3906 Q40.3076 24.5 40.792 24.5625 L41.0889 24.5938 Q42.4326 24.7656 42.9014 25.1562 Q43.3701 25.5469 43.3701 26.3906 Q43.3701 27.2656 42.7217 27.7031 Q42.0732 28.1406 40.792 28.1406 Q40.2607 28.1406 39.6826 28.0547 Q39.1045 27.9688 38.4795 27.7969 L38.4795 26.4688 Q39.0107 26.7188 39.5576 26.8516 Q40.1045 26.9844 40.667 26.9844 Q41.1826 26.9844 41.4404 26.8438 Q41.6982 26.7031 41.6982 26.4219 Q41.6982 26.1875 41.5264 26.0703 Q41.3545 25.9531 40.8232 25.8906 L40.5107 25.8438 Q39.3389 25.7031 38.8701 25.3047 Q38.4014 24.9062 38.4014 24.1094 Q38.4014 23.2344 38.9951 22.8203 Q39.5889 22.4062 40.8232 22.4062 Q41.3076 22.4062 41.8389 22.4766 Q42.3701 22.5469 42.9951 22.7031 ZM49.7441 23.4375 Q50.0723 22.9375 50.5332 22.6719 Q50.9941 22.4062 51.541 22.4062 Q52.4785 22.4062 52.9707 22.9844 Q53.4629 23.5625 53.4629 24.6719 L53.4629 28 L51.7129 28 L51.7129 25.1406 Q51.7129 25.0781 51.7129 25.0156 Q51.7129 24.9531 51.7129 24.8281 Q51.7129 24.2344 51.5488 23.9766 Q51.3848 23.7188 50.9941 23.7188 Q50.4941 23.7188 50.2285 24.125 Q49.9629 24.5312 49.9473 25.3125 L49.9473 28 L48.1816 28 L48.1816 25.1406 Q48.1816 24.2344 48.0254 23.9766 Q47.8691 23.7188 47.4785 23.7188 Q46.9785 23.7188 46.7051 24.1328 Q46.4316 24.5469 46.4316 25.3125 L46.4316 28 L44.666 28 L44.666 22.5312 L46.4316 22.5312 L46.4316 23.3281 Q46.7441 22.875 47.166 22.6406 Q47.5879 22.4062 48.0879 22.4062 Q48.6504 22.4062 49.0879 22.6797 Q49.5254 22.9531 49.7441 23.4375 ZM55.3828 22.5312 L57.1328 22.5312 L57.1328 24.4219 L55.3828 24.4219 L55.3828 22.5312 ZM55.3828 26.1094 L57.1328 26.1094 L57.1328 28 L55.3828 28 L55.3828 26.1094 Z"
         style="clip-path:url(#clipPath2); stroke:none;"
         clip-path="url(#clipPath2)"
         id="path120" />
      <path
         d="M66.9844 20.7031 L67.9688 20.7031 L67.9688 23.7031 L71.5469 23.7031 L71.5469 20.7031 L72.5312 20.7031 L72.5312 28 L71.5469 28 L71.5469 24.5312 L67.9688 24.5312 L67.9688 28 L66.9844 28 L66.9844 20.7031 ZM76.582 23.1562 Q75.8633 23.1562 75.4414 23.7188 Q75.0195 24.2812 75.0195 25.2656 Q75.0195 26.25 75.4336 26.8125 Q75.8477 27.375 76.582 27.375 Q77.3008 27.375 77.7227 26.8125 Q78.1445 26.25 78.1445 25.2656 Q78.1445 24.2969 77.7227 23.7266 Q77.3008 23.1562 76.582 23.1562 ZM76.582 22.4062 Q77.7539 22.4062 78.4258 23.1641 Q79.0977 23.9219 79.0977 25.2656 Q79.0977 26.6094 78.4258 27.375 Q77.7539 28.1406 76.582 28.1406 Q75.4102 28.1406 74.7383 27.375 Q74.0664 26.6094 74.0664 25.2656 Q74.0664 23.9219 74.7383 23.1641 Q75.4102 22.4062 76.582 22.4062 ZM84.8408 23.5781 Q85.1689 22.9688 85.6377 22.6875 Q86.1064 22.4062 86.7471 22.4062 Q87.6064 22.4062 88.0674 23 Q88.5283 23.5938 88.5283 24.7031 L88.5283 28 L87.6221 28 L87.6221 24.7344 Q87.6221 23.9375 87.3486 23.5625 Q87.0752 23.1875 86.4971 23.1875 Q85.7939 23.1875 85.3955 23.6484 Q84.9971 24.1094 84.9971 24.9062 L84.9971 28 L84.0908 28 L84.0908 24.7344 Q84.0908 23.9375 83.8096 23.5625 Q83.5283 23.1875 82.9502 23.1875 Q82.2627 23.1875 81.8564 23.6484 Q81.4502 24.1094 81.4502 24.9062 L81.4502 28 L80.5439 28 L80.5439 22.5312 L81.4502 22.5312 L81.4502 23.375 Q81.7627 22.875 82.1924 22.6406 Q82.6221 22.4062 83.2002 22.4062 Q83.8096 22.4062 84.2236 22.7031 Q84.6377 23 84.8408 23.5781 ZM92.4414 23.1562 Q91.7227 23.1562 91.3008 23.7188 Q90.8789 24.2812 90.8789 25.2656 Q90.8789 26.25 91.293 26.8125 Q91.707 27.375 92.4414 27.375 Q93.1602 27.375 93.582 26.8125 Q94.0039 26.25 94.0039 25.2656 Q94.0039 24.2969 93.582 23.7266 Q93.1602 23.1562 92.4414 23.1562 ZM92.4414 22.4062 Q93.6133 22.4062 94.2852 23.1641 Q94.957 23.9219 94.957 25.2656 Q94.957 26.6094 94.2852 27.375 Q93.6133 28.1406 92.4414 28.1406 Q91.2695 28.1406 90.5977 27.375 Q89.9258 26.6094 89.9258 25.2656 Q89.9258 23.9219 90.5977 23.1641 Q91.2695 22.4062 92.4414 22.4062 ZM103.0977 22.6875 L103.0977 23.5469 Q102.7227 23.3438 102.3164 23.25 Q101.9102 23.1562 101.457 23.1562 Q100.8008 23.1562 100.4648 23.3594 Q100.1289 23.5625 100.1289 23.9688 Q100.1289 24.2812 100.3633 24.4609 Q100.5977 24.6406 101.332 24.7969 L101.6289 24.875 Q102.5977 25.0781 102.9961 25.4531 Q103.3945 25.8281 103.3945 26.4844 Q103.3945 27.25 102.793 27.6953 Q102.1914 28.1406 101.1445 28.1406 Q100.6914 28.1406 100.2148 28.0547 Q99.7383 27.9688 99.2227 27.7969 L99.2227 26.875 Q99.7227 27.125 100.1992 27.2578 Q100.6758 27.3906 101.1602 27.3906 Q101.7852 27.3906 102.1289 27.1719 Q102.4727 26.9531 102.4727 26.5625 Q102.4727 26.1875 102.2305 25.9922 Q101.9883 25.7969 101.1445 25.625 L100.832 25.5469 Q100.0039 25.375 99.6289 25.0078 Q99.2539 24.6406 99.2539 24.0156 Q99.2539 23.2344 99.8008 22.8203 Q100.3477 22.4062 101.3633 22.4062 Q101.8477 22.4062 102.293 22.4766 Q102.7383 22.5469 103.0977 22.6875 ZM107.3076 25.25 Q106.2295 25.25 105.8076 25.5 Q105.3857 25.75 105.3857 26.3438 Q105.3857 26.8281 105.6982 27.1094 Q106.0107 27.3906 106.5576 27.3906 Q107.3076 27.3906 107.7607 26.8594 Q108.2139 26.3281 108.2139 25.4531 L108.2139 25.25 L107.3076 25.25 ZM109.1045 24.875 L109.1045 28 L108.2139 28 L108.2139 27.1719 Q107.9014 27.6719 107.4404 27.9062 Q106.9795 28.1406 106.3232 28.1406 Q105.4795 28.1406 104.9795 27.6719 Q104.4795 27.2031 104.4795 26.4062 Q104.4795 25.4844 105.1045 25.0156 Q105.7295 24.5469 106.9482 24.5469 L108.2139 24.5469 L108.2139 24.4531 Q108.2139 23.8438 107.7998 23.5 Q107.3857 23.1562 106.6514 23.1562 Q106.1826 23.1562 105.7373 23.2734 Q105.292 23.3906 104.8857 23.6094 L104.8857 22.7812 Q105.3857 22.5938 105.8467 22.5 Q106.3076 22.4062 106.7451 22.4062 Q107.9326 22.4062 108.5186 23.0156 Q109.1045 23.625 109.1045 24.875 ZM111.8262 27.1719 L111.8262 30.0781 L110.9199 30.0781 L110.9199 22.5312 L111.8262 22.5312 L111.8262 23.3594 Q112.1074 22.875 112.5371 22.6406 Q112.9668 22.4062 113.5762 22.4062 Q114.5762 22.4062 115.1934 23.1953 Q115.8105 23.9844 115.8105 25.2656 Q115.8105 26.5625 115.1934 27.3516 Q114.5762 28.1406 113.5762 28.1406 Q112.9668 28.1406 112.5371 27.9062 Q112.1074 27.6719 111.8262 27.1719 ZM114.8887 25.2656 Q114.8887 24.2812 114.4746 23.7188 Q114.0605 23.1562 113.3574 23.1562 Q112.6387 23.1562 112.2324 23.7188 Q111.8262 24.2812 111.8262 25.2656 Q111.8262 26.2656 112.2324 26.8281 Q112.6387 27.3906 113.3574 27.3906 Q114.0605 27.3906 114.4746 26.8281 Q114.8887 26.2656 114.8887 25.2656 ZM117.2988 22.5312 L118.2051 22.5312 L118.2051 28 L117.2988 28 L117.2988 22.5312 ZM117.2988 20.4062 L118.2051 20.4062 L118.2051 21.5469 L117.2988 21.5469 L117.2988 20.4062 ZM124.7646 25.0469 L124.7646 25.4844 L120.624 25.4844 Q120.6865 26.4062 121.1865 26.8906 Q121.6865 27.375 122.5771 27.375 Q123.0928 27.375 123.585 27.25 Q124.0771 27.125 124.5459 26.875 L124.5459 27.7188 Q124.0615 27.9219 123.5537 28.0312 Q123.0459 28.1406 122.5303 28.1406 Q121.2178 28.1406 120.4521 27.3828 Q119.6865 26.625 119.6865 25.3125 Q119.6865 23.9688 120.4131 23.1875 Q121.1396 22.4062 122.374 22.4062 Q123.4834 22.4062 124.124 23.1094 Q124.7646 23.8125 124.7646 25.0469 ZM123.8584 24.7812 Q123.8584 24.0469 123.4521 23.6016 Q123.0459 23.1562 122.3896 23.1562 Q121.624 23.1562 121.1787 23.5859 Q120.7334 24.0156 120.6553 24.7812 L123.8584 24.7812 ZM130.7764 24.7031 L130.7764 28 L129.8857 28 L129.8857 24.7344 Q129.8857 23.9531 129.5811 23.5703 Q129.2764 23.1875 128.667 23.1875 Q127.9482 23.1875 127.5264 23.6484 Q127.1045 24.1094 127.1045 24.9062 L127.1045 28 L126.1982 28 L126.1982 22.5312 L127.1045 22.5312 L127.1045 23.375 Q127.4326 22.8906 127.8701 22.6484 Q128.3076 22.4062 128.8701 22.4062 Q129.8076 22.4062 130.292 22.9844 Q130.7764 23.5625 130.7764 24.7031 ZM136.0518 22.6875 L136.0518 23.5469 Q135.6768 23.3438 135.2705 23.25 Q134.8643 23.1562 134.4111 23.1562 Q133.7549 23.1562 133.4189 23.3594 Q133.083 23.5625 133.083 23.9688 Q133.083 24.2812 133.3174 24.4609 Q133.5518 24.6406 134.2861 24.7969 L134.583 24.875 Q135.5518 25.0781 135.9502 25.4531 Q136.3486 25.8281 136.3486 26.4844 Q136.3486 27.25 135.7471 27.6953 Q135.1455 28.1406 134.0986 28.1406 Q133.6455 28.1406 133.1689 28.0547 Q132.6924 27.9688 132.1768 27.7969 L132.1768 26.875 Q132.6768 27.125 133.1533 27.2578 Q133.6299 27.3906 134.1143 27.3906 Q134.7393 27.3906 135.083 27.1719 Q135.4268 26.9531 135.4268 26.5625 Q135.4268 26.1875 135.1846 25.9922 Q134.9424 25.7969 134.0986 25.625 L133.7861 25.5469 Q132.958 25.375 132.583 25.0078 Q132.208 24.6406 132.208 24.0156 Q132.208 23.2344 132.7549 22.8203 Q133.3018 22.4062 134.3174 22.4062 Q134.8018 22.4062 135.2471 22.4766 Q135.6924 22.5469 136.0518 22.6875 Z"
         style="clip-path:url(#clipPath2); stroke:none;"
         clip-path="url(#clipPath2)"
         id="path122" />
    </g>
    <g
       style="fill:navy; text-rendering:geometricPrecision; font-size:8; stroke:navy;"
       id="g128">
      <text
         x="158"
         xml:space="preserve"
         y="16"
         style="clip-path:url(#clipPath4); stroke:none;"
         clip-path="url(#clipPath4)"
         id="text126">1</text>
    </g>
    <g
       style="fill:rgb(180,180,100); text-rendering:geometricPrecision; fill-opacity:0.098; stroke-opacity:0.098; stroke:rgb(180,180,100);"
       id="g132">
      <path
         d="M495 288 L562 288 L580 306 L580 353 L562 371 L495 371 L477 353 L477 306 Z"
         style="clip-path:url(#clipPath5); stroke:none;"
         clip-path="url(#clipPath5)"
         id="path130" />
    </g>
    <g
       style="fill:gray; text-rendering:geometricPrecision; stroke:gray;"
       id="g136">
      <path
         d="M495 288 L562 288 L580 306 L580 353 L562 371 L495 371 L477 353 L477 306 Z"
         style="fill:none; clip-path:url(#clipPath5);"
         clip-path="url(#clipPath5)"
         id="path134" />
    </g>
    <g
       style="text-rendering:geometricPrecision;"
       id="g142">
      <path
         d="M339 620 L319 620 M319 620 L319 574"
         style="fill:none; clip-path:url(#clipPath6);"
         clip-path="url(#clipPath6)"
         id="path138" />
      <path
         d="M319 574 L313.8 585.7 L324.2 585.7 Z"
         style="clip-path:url(#clipPath6); fill-rule:evenodd; stroke:none;"
         clip-path="url(#clipPath6)"
         id="path140" />
    </g>
    <g
       style="text-rendering:geometricPrecision;"
       id="g150">
      <path
         d="M529 372 L529 403"
         style="fill:none; clip-path:url(#clipPath7);"
         clip-path="url(#clipPath7)"
         id="path144" />
      <path
         d="M538.1 403 L538.1 404.3 L518.6 404.3 L518.6 403 L538.1 403 Z"
         style="fill:white; clip-path:url(#clipPath7); stroke:none;"
         clip-path="url(#clipPath7)"
         id="path146" />
      <path
         d="M538.1 403 L538.1 404.3 L518.6 404.3 L518.6 403 L538.1 403 Z"
         style="fill:none; clip-path:url(#clipPath7);"
         clip-path="url(#clipPath7)"
         id="path148" />
    </g>
    <g
       style="text-rendering:geometricPrecision;"
       id="g156">
      <path
         d="M314 109 L314 194"
         style="fill:none; clip-path:url(#clipPath8);"
         clip-path="url(#clipPath8)"
         id="path152" />
      <path
         d="M314 194 L319.2 182.3 L308.8 182.3 Z"
         style="clip-path:url(#clipPath8); fill-rule:evenodd; stroke:none;"
         clip-path="url(#clipPath8)"
         id="path154" />
    </g>
    <g
       style="text-rendering:geometricPrecision;"
       id="g162">
      <path
         d="M471 109 L528 194"
         style="fill:none; clip-path:url(#clipPath9);"
         clip-path="url(#clipPath9)"
         id="path158" />
      <path
         d="M528 194 L525.8025 181.3865 L517.1648 187.1788 Z"
         style="clip-path:url(#clipPath9); fill-rule:evenodd; stroke:none;"
         clip-path="url(#clipPath9)"
         id="path160" />
    </g>
    <g
       style="text-rendering:geometricPrecision;"
       id="g168">
      <path
         d="M471 109 L415 194"
         style="fill:none; clip-path:url(#clipPath10);"
         clip-path="url(#clipPath10)"
         id="path164" />
      <path
         d="M415 194 L425.7792 187.0906 L417.0945 181.369 Z"
         style="clip-path:url(#clipPath10); fill-rule:evenodd; stroke:none;"
         clip-path="url(#clipPath10)"
         id="path166" />
    </g>
    <g
       style="stroke-dasharray:4,4; text-rendering:geometricPrecision;"
       id="g174">
      <path
         d="M623 620 L419 620"
         style="fill:none; clip-path:url(#clipPath11);"
         clip-path="url(#clipPath11)"
         id="path170" />
      <path
         d="M419 620 L430.7 625.2 L430.7 614.8 Z"
         style="stroke-dasharray:none; clip-path:url(#clipPath11); fill-rule:evenodd; stroke:none;"
         clip-path="url(#clipPath11)"
         id="path172" />
    </g>
    <g
       style="text-rendering:geometricPrecision;"
       id="g180">
      <path
         d="M528 214 L529 288"
         style="fill:none; clip-path:url(#clipPath12);"
         clip-path="url(#clipPath12)"
         id="path176" />
      <path
         d="M529 288 L534.0414 276.2308 L523.6424 276.3713 Z"
         style="clip-path:url(#clipPath12); fill-rule:evenodd; stroke:none;"
         clip-path="url(#clipPath12)"
         id="path178" />
    </g>
    <g
       style="text-rendering:geometricPrecision;"
       id="g186">
      <path
         d="M415 214 L503 288"
         style="fill:none; clip-path:url(#clipPath13);"
         clip-path="url(#clipPath13)"
         id="path182" />
      <path
         d="M503 288 L497.392 276.49 L490.6985 284.4498 Z"
         style="clip-path:url(#clipPath13); fill-rule:evenodd; stroke:none;"
         clip-path="url(#clipPath13)"
         id="path184" />
    </g>
    <g
       style="text-rendering:geometricPrecision;"
       id="g192">
      <path
         d="M478 470 L584 470"
         style="fill:none; clip-path:url(#clipPath14);"
         clip-path="url(#clipPath14)"
         id="path188" />
      <path
         d="M584 470 L572.3 464.8 L572.3 475.2 Z"
         style="clip-path:url(#clipPath14); fill-rule:evenodd; stroke:none;"
         clip-path="url(#clipPath14)"
         id="path190" />
    </g>
    <g
       style="text-rendering:geometricPrecision;"
       id="g198">
      <path
         d="M314 214 L477 330"
         style="fill:none; clip-path:url(#clipPath15);"
         clip-path="url(#clipPath15)"
         id="path194" />
      <path
         d="M477 330 L470.4825 318.9794 L464.4524 327.4528 Z"
         style="clip-path:url(#clipPath15); fill-rule:evenodd; stroke:none;"
         clip-path="url(#clipPath15)"
         id="path196" />
    </g>
    <g
       style="text-rendering:geometricPrecision;"
       id="g206">
      <path
         d="M624 480 L624 586 M624 586 L553 586"
         style="fill:none; clip-path:url(#clipPath16);"
         clip-path="url(#clipPath16)"
         id="path200" />
      <path
         d="M553 595.1 L551.7 595.1 L551.7 575.6 L553 575.6 L553 595.1 Z"
         style="fill:white; clip-path:url(#clipPath16); stroke:none;"
         clip-path="url(#clipPath16)"
         id="path202" />
      <path
         d="M553 595.1 L551.7 595.1 L551.7 575.6 L553 575.6 L553 595.1 Z"
         style="fill:none; clip-path:url(#clipPath16);"
         clip-path="url(#clipPath16)"
         id="path204" />
    </g>
    <g
       style="text-rendering:geometricPrecision;"
       id="g210">
      <path
         d="M20.9667 204 L731 204 L731 673 L20.9667 673 L20.9667 204 Z"
         style="fill:none; clip-path:url(#clipPath17);"
         clip-path="url(#clipPath17)"
         id="path208" />
    </g>
    <g
       style="fill:silver; text-rendering:geometricPrecision; stroke-width:3; stroke:silver;"
       id="g214">
      <path
         d="M195.4074 564.2324 C211.8822 563.2834 209.8611 585.9912 226.3027 584.9011 C257.5438 584.9399 237.5652 548.9504 263.687 548.7105 C289.9949 548.4706 272.1704 586.9578 298.4451 586.3087 C327.2661 585.5926 300.3598 544.2444 329.1676 543.366 C358.2346 542.4841 340.1907 584.2873 369.2976 584.5237 C394.0232 584.7283 380.7263 549.2185 405.3987 550.1392 C432.5576 551.1517 407.9052 588.256 434.7782 590.5842 C452.7091 592.1365 451.4725 567.2662 469.5363 568.3104 C511.5546 577.9869 502.1138 616.4599 461.3055 625.3286 C449.4514 626.2211 446.3266 611.9163 434.4458 612.6782 C413.337 614.0294 419.407 641.1396 398.1785 640.5188 C378.3994 639.9367 389.7749 612.8828 369.9691 612.7664 C343.6812 612.6147 357.2905 649.7049 331.0158 649.1581 C307.826 648.6783 324.4804 617.2924 301.4701 615.705 C280.0156 614.2269 281.1591 644.0218 259.8309 642.1204 C236.2355 640.0179 258.0557 608.0534 234.3075 606.5294 C220.226 605.6263 224.3082 624.9229 210.127 625.1063 C157.2054 617.5253 150.6633 574.3956 195.4074 564.2324 ZM328.3831 534.2963 C398.9564 534.3986 507.6852 556.0093 508.3699 593.4523 C509.0614 631.0751 400.6384 654.7142 329.726 654.746 C257.823 654.7742 147.5585 630.8917 148.3962 592.7397 C149.2139 555.4202 258.0491 534.1976 328.3831 534.2963 Z"
         style="fill:none; clip-path:url(#clipPath18);"
         clip-path="url(#clipPath18)"
         id="path212" />
    </g>
    <g
       style="fill:white; text-rendering:geometricPrecision; stroke:white;"
       id="g222">
      <path
         d="M266 564 L266 564 C266 569.5228 270.4771 574 276 574 L362 574 C367.5229 574 372 569.5228 372 564 L372 564 C372 558.4772 367.5229 554 362 554 L276 554 C270.4771 554 266 558.4772 266 564 Z"
         style="clip-path:url(#clipPath19); stroke:none;"
         clip-path="url(#clipPath19)"
         id="path216" />
      <path
         d="M266 564 L266 564 C266 569.5228 270.4771 574 276 574 L362 574 C367.5229 574 372 569.5228 372 564 L372 564 C372 558.4772 367.5229 554 362 554 L276 554 C270.4771 554 266 558.4772 266 564 Z"
         style="fill:none; clip-path:url(#clipPath19); stroke:black;"
         clip-path="url(#clipPath19)"
         id="path218" />
      <text
         x="283"
         y="567"
         style="font-size:10; clip-path:url(#clipPath19); fill:black; stroke:none;"
         xml:space="preserve"
         clip-path="url(#clipPath19)"
         id="text220">beta-oxidation</text>
    </g>
    <g
       style="font-size:10; text-rendering:geometricPrecision;"
       id="g226">
      <text
         x="183"
         xml:space="preserve"
         y="535"
         style="clip-path:url(#clipPath20); stroke:none;"
         clip-path="url(#clipPath20)"
         id="text224">Mitochondrion</text>
    </g>
    <g
       style="fill:white; text-rendering:geometricPrecision; stroke:white;"
       id="g234">
      <path
         d="M339 610 L419 610 L419 630 L339 630 L339 610 Z"
         style="clip-path:url(#clipPath21); stroke:none;"
         clip-path="url(#clipPath21)"
         id="path228" />
      <path
         d="M339 610 L419 610 L419 630 L339 630 L339 610 Z"
         style="fill:none; clip-path:url(#clipPath21); stroke:blue;"
         clip-path="url(#clipPath21)"
         id="path230" />
      <text
         x="355"
         y="623"
         style="font-size:10; clip-path:url(#clipPath21); fill:blue; stroke:none;"
         xml:space="preserve"
         clip-path="url(#clipPath21)"
         id="text232">Fatty acid</text>
    </g>
    <g
       style="fill:white; text-rendering:geometricPrecision; stroke:white;"
       id="g242">
      <path
         d="M431 89 L511 89 L511 109 L431 109 L431 89 Z"
         style="clip-path:url(#clipPath22); stroke:none;"
         clip-path="url(#clipPath22)"
         id="path236" />
      <path
         d="M431 89 L511 89 L511 109 L431 109 L431 89 Z"
         style="fill:none; clip-path:url(#clipPath22); stroke:black;"
         clip-path="url(#clipPath22)"
         id="path238" />
      <text
         x="452"
         y="102"
         style="font-size:10; clip-path:url(#clipPath22); fill:black; stroke:none;"
         xml:space="preserve"
         clip-path="url(#clipPath22)"
         id="text240">ADIPOQ</text>
    </g>
    <g
       style="fill:white; text-rendering:geometricPrecision; stroke:white;"
       id="g250">
      <path
         d="M398 460 L478 460 L478 480 L398 480 L398 460 Z"
         style="clip-path:url(#clipPath23); stroke:none;"
         clip-path="url(#clipPath23)"
         id="path244" />
      <path
         d="M398 460 L478 460 L478 480 L398 480 L398 460 Z"
         style="fill:none; clip-path:url(#clipPath23); stroke:blue;"
         clip-path="url(#clipPath23)"
         id="path246" />
      <text
         x="411"
         y="473"
         style="font-size:10; clip-path:url(#clipPath23); fill:blue; stroke:none;"
         xml:space="preserve"
         clip-path="url(#clipPath23)"
         id="text248">Acetyl-CoA</text>
    </g>
    <g
       style="fill:white; text-rendering:geometricPrecision; stroke:white;"
       id="g258">
      <path
         d="M489 320 L569 320 L569 340 L489 340 L489 320 Z"
         style="clip-path:url(#clipPath24); stroke:none;"
         clip-path="url(#clipPath24)"
         id="path252" />
      <path
         d="M489 320 L569 320 L569 340 L489 340 L489 320 Z"
         style="fill:none; clip-path:url(#clipPath24); stroke:black;"
         clip-path="url(#clipPath24)"
         id="path254" />
      <text
         x="510"
         y="333"
         style="font-size:10; clip-path:url(#clipPath24); fill:black; stroke:none;"
         xml:space="preserve"
         clip-path="url(#clipPath24)"
         id="text256">PRKAB1</text>
    </g>
    <g
       style="fill:white; text-rendering:geometricPrecision; stroke:white;"
       id="g266">
      <path
         d="M274 194 L354 194 L354 214 L274 214 L274 194 Z"
         style="clip-path:url(#clipPath25); stroke:none;"
         clip-path="url(#clipPath25)"
         id="path260" />
      <path
         d="M274 194 L354 194 L354 214 L274 214 L274 194 Z"
         style="fill:none; clip-path:url(#clipPath25); stroke:black;"
         clip-path="url(#clipPath25)"
         id="path262" />
      <text
         x="302"
         y="207"
         style="font-size:10; clip-path:url(#clipPath25); fill:black; stroke:none;"
         xml:space="preserve"
         clip-path="url(#clipPath25)"
         id="text264">LEPR</text>
    </g>
    <g
       style="fill:white; text-rendering:geometricPrecision; stroke:white;"
       id="g274">
      <path
         d="M489 340 L569 340 L569 360 L489 360 L489 340 Z"
         style="clip-path:url(#clipPath26); stroke:none;"
         clip-path="url(#clipPath26)"
         id="path268" />
      <path
         d="M489 340 L569 340 L569 360 L489 360 L489 340 Z"
         style="fill:none; clip-path:url(#clipPath26); stroke:black;"
         clip-path="url(#clipPath26)"
         id="path270" />
      <text
         x="509"
         y="353"
         style="font-size:10; clip-path:url(#clipPath26); fill:black; stroke:none;"
         xml:space="preserve"
         clip-path="url(#clipPath26)"
         id="text272">PRKAG1</text>
    </g>
    <g
       style="fill:white; text-rendering:geometricPrecision; stroke:white;"
       id="g282">
      <path
         d="M375 194 L455 194 L455 214 L375 214 L375 194 Z"
         style="clip-path:url(#clipPath27); stroke:none;"
         clip-path="url(#clipPath27)"
         id="path276" />
      <path
         d="M375 194 L455 194 L455 214 L375 214 L375 194 Z"
         style="fill:none; clip-path:url(#clipPath27); stroke:black;"
         clip-path="url(#clipPath27)"
         id="path278" />
      <text
         x="393"
         y="207"
         style="font-size:10; clip-path:url(#clipPath27); fill:black; stroke:none;"
         xml:space="preserve"
         clip-path="url(#clipPath27)"
         id="text280">ADIPOR1</text>
    </g>
    <g
       style="fill:white; text-rendering:geometricPrecision; stroke:white;"
       id="g290">
      <path
         d="M584 460 L664 460 L664 480 L584 480 L584 460 Z"
         style="clip-path:url(#clipPath28); stroke:none;"
         clip-path="url(#clipPath28)"
         id="path284" />
      <path
         d="M584 460 L664 460 L664 480 L584 480 L584 460 Z"
         style="fill:none; clip-path:url(#clipPath28); stroke:blue;"
         clip-path="url(#clipPath28)"
         id="path286" />
      <text
         x="593"
         y="473"
         style="font-size:10; clip-path:url(#clipPath28); fill:blue; stroke:none;"
         xml:space="preserve"
         clip-path="url(#clipPath28)"
         id="text288">Malonyl-CoA</text>
    </g>
    <g
       style="fill:white; text-rendering:geometricPrecision; stroke:white;"
       id="g298">
      <path
         d="M466 576 L546 576 L546 596 L466 596 L466 576 Z"
         style="clip-path:url(#clipPath29); stroke:none;"
         clip-path="url(#clipPath29)"
         id="path292" />
      <path
         d="M466 576 L546 576 L546 596 L466 596 L466 576 Z"
         style="fill:none; clip-path:url(#clipPath29); stroke:black;"
         clip-path="url(#clipPath29)"
         id="path294" />
      <text
         x="490"
         y="589"
         style="font-size:10; clip-path:url(#clipPath29); fill:black; stroke:none;"
         xml:space="preserve"
         clip-path="url(#clipPath29)"
         id="text296">CPT1A</text>
    </g>
    <g
       style="fill:white; text-rendering:geometricPrecision; stroke:white;"
       id="g306">
      <path
         d="M489 410 L569 410 L569 430 L489 430 L489 410 Z"
         style="clip-path:url(#clipPath30); stroke:none;"
         clip-path="url(#clipPath30)"
         id="path300" />
      <path
         d="M489 410 L569 410 L569 430 L489 430 L489 410 Z"
         style="fill:none; clip-path:url(#clipPath30); stroke:black;"
         clip-path="url(#clipPath30)"
         id="path302" />
      <text
         x="512"
         y="423"
         style="font-size:10; clip-path:url(#clipPath30); fill:black; stroke:none;"
         xml:space="preserve"
         clip-path="url(#clipPath30)"
         id="text304">ACACA</text>
    </g>
    <g
       style="fill:white; text-rendering:geometricPrecision; stroke:white;"
       id="g314">
      <path
         d="M488 194 L568 194 L568 214 L488 214 L488 194 Z"
         style="clip-path:url(#clipPath31); stroke:none;"
         clip-path="url(#clipPath31)"
         id="path308" />
      <path
         d="M488 194 L568 194 L568 214 L488 214 L488 194 Z"
         style="fill:none; clip-path:url(#clipPath31); stroke:black;"
         clip-path="url(#clipPath31)"
         id="path310" />
      <text
         x="506"
         y="207"
         style="font-size:10; clip-path:url(#clipPath31); fill:black; stroke:none;"
         xml:space="preserve"
         clip-path="url(#clipPath31)"
         id="text312">ADIPOR2</text>
    </g>
    <g
       style="fill:white; text-rendering:geometricPrecision; stroke:white;"
       id="g322">
      <path
         d="M623 610 L703 610 L703 630 L623 630 L623 610 Z"
         style="clip-path:url(#clipPath32); stroke:none;"
         clip-path="url(#clipPath32)"
         id="path316" />
      <path
         d="M623 610 L703 610 L703 630 L623 630 L623 610 Z"
         style="fill:none; clip-path:url(#clipPath32); stroke:blue;"
         clip-path="url(#clipPath32)"
         id="path318" />
      <text
         x="639"
         y="623"
         style="font-size:10; clip-path:url(#clipPath32); fill:blue; stroke:none;"
         xml:space="preserve"
         clip-path="url(#clipPath32)"
         id="text320">Fatty acid</text>
    </g>
    <g
       style="fill:white; text-rendering:geometricPrecision; stroke:white;"
       id="g330">
      <path
         d="M274 89 L354 89 L354 109 L274 109 L274 89 Z"
         style="clip-path:url(#clipPath33); stroke:none;"
         clip-path="url(#clipPath33)"
         id="path324" />
      <path
         d="M274 89 L354 89 L354 109 L274 109 L274 89 Z"
         style="fill:none; clip-path:url(#clipPath33); stroke:black;"
         clip-path="url(#clipPath33)"
         id="path326" />
      <text
         x="306"
         y="102"
         style="font-size:10; clip-path:url(#clipPath33); fill:black; stroke:none;"
         xml:space="preserve"
         clip-path="url(#clipPath33)"
         id="text328">LEP</text>
    </g>
    <g
       style="fill:white; text-rendering:geometricPrecision; stroke:white;"
       id="g338">
      <path
         d="M489 300 L569 300 L569 320 L489 320 L489 300 Z"
         style="clip-path:url(#clipPath34); stroke:none;"
         clip-path="url(#clipPath34)"
         id="path332" />
      <path
         d="M489 300 L569 300 L569 320 L489 320 L489 300 Z"
         style="fill:none; clip-path:url(#clipPath34); stroke:black;"
         clip-path="url(#clipPath34)"
         id="path334" />
      <text
         x="510"
         y="313"
         style="font-size:10; clip-path:url(#clipPath34); fill:black; stroke:none;"
         xml:space="preserve"
         clip-path="url(#clipPath34)"
         id="text336">PRKAA1</text>
    </g>
    <g
       style="text-rendering:geometricPrecision;"
       id="g346">
      <path
         d="M529 430 L529 460"
         style="fill:none; clip-path:url(#clipPath35);"
         clip-path="url(#clipPath35)"
         id="path340" />
      <path
         d="M529 470.4 C526.1281 470.4 523.8 468.0719 523.8 465.2 C523.8 462.3281 526.1281 460 529 460 C531.8719 460 534.2 462.3281 534.2 465.2 C534.2 468.0719 531.8719 470.4 529 470.4 Z"
         style="fill:white; clip-path:url(#clipPath35); stroke:none;"
         clip-path="url(#clipPath35)"
         id="path342" />
      <path
         d="M529 470.4 C526.1281 470.4 523.8 468.0719 523.8 465.2 C523.8 462.3281 526.1281 460 529 460 C531.8719 460 534.2 462.3281 534.2 465.2 C534.2 468.0719 531.8719 470.4 529 470.4 Z"
         style="fill:none; clip-path:url(#clipPath35);"
         clip-path="url(#clipPath35)"
         id="path344" />
    </g>
    <g
       style="text-rendering:geometricPrecision;"
       id="g354">
      <path
         d="M526 596 L526 610"
         style="fill:none; clip-path:url(#clipPath36);"
         clip-path="url(#clipPath36)"
         id="path348" />
      <path
         d="M526 620.4 C523.1281 620.4 520.8 618.0719 520.8 615.2 C520.8 612.3281 523.1281 610 526 610 C528.8719 610 531.2 612.3281 531.2 615.2 C531.2 618.0719 528.8719 620.4 526 620.4 Z"
         style="fill:white; clip-path:url(#clipPath36); stroke:none;"
         clip-path="url(#clipPath36)"
         id="path350" />
      <path
         d="M526 620.4 C523.1281 620.4 520.8 618.0719 520.8 615.2 C520.8 612.3281 523.1281 610 526 610 C528.8719 610 531.2 612.3281 531.2 615.2 C531.2 618.0719 528.8719 620.4 526 620.4 Z"
         style="fill:none; clip-path:url(#clipPath36);"
         clip-path="url(#clipPath36)"
         id="path352" />
    </g>
  </g>
</svg>
