<?xml version="1.0" encoding="UTF-8" standalone="no"?>
<svg
   style="fill-opacity:1; color-rendering:auto; color-interpolation:auto; stroke:black; text-rendering:auto; stroke-linecap:square; stroke-miterlimit:10; stroke-opacity:1; shape-rendering:auto; fill:black; stroke-dasharray:none; font-weight:normal; stroke-width:1; font-family:'Dialog'; font-style:normal; stroke-linejoin:miter; font-size:12; stroke-dashoffset:0; image-rendering:auto;"
   width="530"
   height="360"
   version="1.1"
   id="svg178"
   xmlns="http://www.w3.org/2000/svg"
   xmlns:svg="http://www.w3.org/2000/svg">
  <!--Generated by the Batik Graphics2D SVG Generator-->
  <defs
     id="genericDefs" />
  <g
     id="g176">
    <defs
       id="defs1">
      <clipPath
         clipPathUnits="userSpaceOnUse"
         id="clipPath1">
        <path
           d="M0 0 L546 0 L546 368 L0 368 L0 0 Z"
           id="path3" />
      </clipPath>
      <clipPath
         clipPathUnits="userSpaceOnUse"
         id="clipPath2">
        <path
           d="M0 0 L0 200 L200 200 L200 0 Z"
           id="path6" />
      </clipPath>
      <clipPath
         clipPathUnits="userSpaceOnUse"
         id="clipPath3">
        <path
           d="M258 16 L258 37 L269 37 L269 16 Z"
           id="path9" />
      </clipPath>
      <clipPath
         clipPathUnits="userSpaceOnUse"
         id="clipPath4">
        <path
           d="M257.4551 3.918 L268.5449 3.918 L268.5449 19.2305 L257.4551 19.2305 L257.4551 3.918 Z"
           id="path12" />
      </clipPath>
      <clipPath
         clipPathUnits="userSpaceOnUse"
         id="clipPath5">
        <path
           d="M145.4256 201.4738 L145.4256 291.858 L157.3633 291.858 L157.3633 201.4738 Z"
           id="path15" />
      </clipPath>
      <clipPath
         clipPathUnits="userSpaceOnUse"
         id="clipPath6">
        <path
           d="M187.2302 308.7733 L187.2302 329.2845 L239.0824 329.2845 L239.0824 308.7733 Z"
           id="path18" />
      </clipPath>
      <clipPath
         clipPathUnits="userSpaceOnUse"
         id="clipPath7">
        <path
           d="M275.2716 86.0492 L275.2716 157.3395 L398.9803 157.3395 L398.9803 86.0492 Z"
           id="path21" />
      </clipPath>
      <clipPath
         clipPathUnits="userSpaceOnUse"
         id="clipPath8">
        <path
           d="M382.9843 182.0341 L382.9843 235.4595 L394.9223 235.4595 L394.9223 182.0341 Z"
           id="path24" />
      </clipPath>
      <clipPath
         clipPathUnits="userSpaceOnUse"
         id="clipPath9">
        <path
           d="M308.0274 308.9922 L308.0274 329.5026 L363.3867 329.5026 L363.3867 308.9922 Z"
           id="path27" />
      </clipPath>
      <clipPath
         clipPathUnits="userSpaceOnUse"
         id="clipPath10">
        <path
           d="M141.5423 86.0492 L141.5423 176.7806 L276.2716 176.7806 L276.2716 86.0492 Z"
           id="path30" />
      </clipPath>
      <clipPath
         clipPathUnits="userSpaceOnUse"
         id="clipPath11">
        <path
           d="M348.3214 233.7284 L348.3214 254.7284 L429.3214 254.7284 L429.3214 233.7284 Z"
           id="path33" />
      </clipPath>
      <clipPath
         clipPathUnits="userSpaceOnUse"
         id="clipPath12">
        <path
           d="M122.2217 298.127 L122.2217 319.127 L180.2327 319.127 L180.2327 298.127 Z"
           id="path36" />
      </clipPath>
      <clipPath
         clipPathUnits="userSpaceOnUse"
         id="clipPath13">
        <path
           d="M230.3627 66.0492 L230.3627 87.0492 L321.1805 87.0492 L321.1805 66.0492 Z"
           id="path39" />
      </clipPath>
      <clipPath
         clipPathUnits="userSpaceOnUse"
         id="clipPath14">
        <path
           d="M243.7284 307.8475 L243.7284 328.8475 L309.0298 328.8475 L309.0298 307.8475 Z"
           id="path42" />
      </clipPath>
      <clipPath
         clipPathUnits="userSpaceOnUse"
         id="clipPath15">
        <path
           d="M354.2995 162.0395 L354.2995 183.0395 L424.4611 183.0395 L424.4611 162.0395 Z"
           id="path45" />
      </clipPath>
      <clipPath
         clipPathUnits="userSpaceOnUse"
         id="clipPath16">
        <path
           d="M122.2217 318.127 L122.2217 339.127 L180.2327 339.127 L180.2327 318.127 Z"
           id="path48" />
      </clipPath>
      <clipPath
         clipPathUnits="userSpaceOnUse"
         id="clipPath17">
        <path
           d="M121.0067 181.4806 L121.0067 202.4806 L183.8779 202.4806 L183.8779 181.4806 Z"
           id="path51" />
      </clipPath>
      <clipPath
         clipPathUnits="userSpaceOnUse"
         id="clipPath18">
        <path
           d="M368.0419 308.127 L368.0419 329.127 L516.9034 329.127 L516.9034 308.127 Z"
           id="path54" />
      </clipPath>
    </defs>
    <g
       style="fill:white; stroke:white;"
       id="g60">
      <rect
         x="0"
         width="546"
         height="368"
         y="0"
         style="stroke:none;"
         id="rect58" />
    </g>
    <g
       style="font-weight:bold; font-size:10; text-rendering:geometricPrecision;"
       id="g70">
      <path
         d="M0.0469 6.7031 L6.7656 6.7031 L6.7656 8.125 L4.3438 8.125 L4.3438 14 L2.4688 14 L2.4688 8.125 L0.0469 8.125 L0.0469 6.7031 ZM7.665 8.5312 L9.415 8.5312 L9.415 14 L7.665 14 L7.665 8.5312 ZM7.665 6.4062 L9.415 6.4062 L9.415 7.8281 L7.665 7.8281 L7.665 6.4062 ZM12.999 6.9844 L12.999 8.5312 L14.7959 8.5312 L14.7959 9.7812 L12.999 9.7812 L12.999 12.0938 Q12.999 12.4844 13.1475 12.6172 Q13.2959 12.75 13.749 12.75 L14.6553 12.75 L14.6553 14 L13.1553 14 Q12.1084 14 11.6787 13.5703 Q11.249 13.1406 11.249 12.0938 L11.249 9.7812 L10.374 9.7812 L10.374 8.5312 L11.249 8.5312 L11.249 6.9844 L12.999 6.9844 ZM15.873 6.4062 L17.623 6.4062 L17.623 14 L15.873 14 L15.873 6.4062 ZM24.7539 11.25 L24.7539 11.75 L20.6758 11.75 Q20.7383 12.3594 21.1133 12.6719 Q21.4883 12.9844 22.1758 12.9844 Q22.7227 12.9844 23.3086 12.8203 Q23.8945 12.6562 24.5039 12.3125 L24.5039 13.6719 Q23.8789 13.9062 23.2617 14.0234 Q22.6445 14.1406 22.0195 14.1406 Q20.5352 14.1406 19.7148 13.3828 Q18.8945 12.625 18.8945 11.2656 Q18.8945 9.9375 19.6992 9.1719 Q20.5039 8.4062 21.9258 8.4062 Q23.207 8.4062 23.9805 9.1797 Q24.7539 9.9531 24.7539 11.25 ZM22.957 10.6719 Q22.957 10.1719 22.668 9.8672 Q22.3789 9.5625 21.9102 9.5625 Q21.3945 9.5625 21.082 9.8438 Q20.7695 10.125 20.6914 10.6719 L22.957 10.6719 ZM26.3643 8.5312 L28.1143 8.5312 L28.1143 10.4219 L26.3643 10.4219 L26.3643 8.5312 ZM26.3643 12.1094 L28.1143 12.1094 L28.1143 14 L26.3643 14 L26.3643 12.1094 Z"
         style="clip-path:url(#clipPath2); stroke:none;"
         clip-path="url(#clipPath2)"
         id="path62" />
      <path
         d="M43.2031 9.5781 Q43.5312 8.9688 44 8.6875 Q44.4688 8.4062 45.1094 8.4062 Q45.9688 8.4062 46.4297 9 Q46.8906 9.5938 46.8906 10.7031 L46.8906 14 L45.9844 14 L45.9844 10.7344 Q45.9844 9.9375 45.7109 9.5625 Q45.4375 9.1875 44.8594 9.1875 Q44.1562 9.1875 43.7578 9.6484 Q43.3594 10.1094 43.3594 10.9062 L43.3594 14 L42.4531 14 L42.4531 10.7344 Q42.4531 9.9375 42.1719 9.5625 Q41.8906 9.1875 41.3125 9.1875 Q40.625 9.1875 40.2188 9.6484 Q39.8125 10.1094 39.8125 10.9062 L39.8125 14 L38.9062 14 L38.9062 8.5312 L39.8125 8.5312 L39.8125 9.375 Q40.125 8.875 40.5547 8.6406 Q40.9844 8.4062 41.5625 8.4062 Q42.1719 8.4062 42.5859 8.7031 Q43 9 43.2031 9.5781 ZM48.6787 8.5312 L49.585 8.5312 L49.585 14 L48.6787 14 L48.6787 8.5312 ZM48.6787 6.4062 L49.585 6.4062 L49.585 7.5469 L48.6787 7.5469 L48.6787 6.4062 ZM54.957 10.5781 Q55.2695 10.6875 55.5742 11.0391 Q55.8789 11.3906 56.1758 12 L57.1758 14 L56.1133 14 L55.1914 12.125 Q54.832 11.3906 54.4883 11.1562 Q54.1445 10.9219 53.5664 10.9219 L52.4883 10.9219 L52.4883 14 L51.5039 14 L51.5039 6.7031 L53.7227 6.7031 Q54.9727 6.7031 55.5898 7.2266 Q56.207 7.75 56.207 8.8125 Q56.207 9.5 55.8867 9.9531 Q55.5664 10.4062 54.957 10.5781 ZM52.4883 7.5156 L52.4883 10.1094 L53.7227 10.1094 Q54.4414 10.1094 54.8086 9.7812 Q55.1758 9.4531 55.1758 8.8125 Q55.1758 8.1719 54.8086 7.8438 Q54.4414 7.5156 53.7227 7.5156 L52.4883 7.5156 ZM57.9521 10.8594 L60.5928 10.8594 L60.5928 11.6562 L57.9521 11.6562 L57.9521 10.8594 ZM62.1543 6.7031 L66.0293 6.7031 L66.0293 7.5469 L63.0605 7.5469 L63.0605 9.3281 Q63.2793 9.25 63.4902 9.2188 Q63.7012 9.1875 63.9199 9.1875 Q65.1387 9.1875 65.8496 9.8516 Q66.5605 10.5156 66.5605 11.6562 Q66.5605 12.8438 65.834 13.4922 Q65.1074 14.1406 63.7637 14.1406 Q63.3105 14.1406 62.834 14.0625 Q62.3574 13.9844 61.8418 13.8281 L61.8418 12.8438 Q62.2949 13.0781 62.7637 13.1953 Q63.2324 13.3125 63.748 13.3125 Q64.5918 13.3125 65.084 12.8672 Q65.5762 12.4219 65.5762 11.6562 Q65.5762 10.9062 65.084 10.4609 Q64.5918 10.0156 63.748 10.0156 Q63.3574 10.0156 62.959 10.1016 Q62.5605 10.1875 62.1543 10.375 L62.1543 6.7031 ZM68.6729 13.1719 L70.2979 13.1719 L70.2979 7.6094 L68.5322 7.9531 L68.5322 7.0625 L70.2822 6.7031 L71.2666 6.7031 L71.2666 13.1719 L72.876 13.1719 L72.876 14 L68.6729 14 L68.6729 13.1719 ZM74.6289 6.7031 L79.3164 6.7031 L79.3164 7.125 L76.6602 14 L75.6289 14 L78.1289 7.5469 L74.6289 7.5469 L74.6289 6.7031 ZM87.4512 9.375 Q87.2949 9.2812 87.123 9.2422 Q86.9512 9.2031 86.7324 9.2031 Q85.9668 9.2031 85.5605 9.6953 Q85.1543 10.1875 85.1543 11.125 L85.1543 14 L84.248 14 L84.248 8.5312 L85.1543 8.5312 L85.1543 9.375 Q85.4355 8.875 85.8887 8.6406 Q86.3418 8.4062 86.998 8.4062 Q87.0918 8.4062 87.2012 8.4141 Q87.3105 8.4219 87.4512 8.4531 L87.4512 9.375 ZM93.0781 11.0469 L93.0781 11.4844 L88.9375 11.4844 Q89 12.4062 89.5 12.8906 Q90 13.375 90.8906 13.375 Q91.4062 13.375 91.8984 13.25 Q92.3906 13.125 92.8594 12.875 L92.8594 13.7188 Q92.375 13.9219 91.8672 14.0312 Q91.3594 14.1406 90.8438 14.1406 Q89.5312 14.1406 88.7656 13.3828 Q88 12.625 88 11.3125 Q88 9.9688 88.7266 9.1875 Q89.4531 8.4062 90.6875 8.4062 Q91.7969 8.4062 92.4375 9.1094 Q93.0781 9.8125 93.0781 11.0469 ZM92.1719 10.7812 Q92.1719 10.0469 91.7656 9.6016 Q91.3594 9.1562 90.7031 9.1562 Q89.9375 9.1562 89.4922 9.5859 Q89.0469 10.0156 88.9688 10.7812 L92.1719 10.7812 ZM94.543 6.4062 L95.4492 6.4062 L95.4492 14 L94.543 14 L94.543 6.4062 ZM99.8057 11.25 Q98.7275 11.25 98.3057 11.5 Q97.8838 11.75 97.8838 12.3438 Q97.8838 12.8281 98.1963 13.1094 Q98.5088 13.3906 99.0557 13.3906 Q99.8057 13.3906 100.2588 12.8594 Q100.7119 12.3281 100.7119 11.4531 L100.7119 11.25 L99.8057 11.25 ZM101.6025 10.875 L101.6025 14 L100.7119 14 L100.7119 13.1719 Q100.3994 13.6719 99.9385 13.9062 Q99.4775 14.1406 98.8213 14.1406 Q97.9775 14.1406 97.4775 13.6719 Q96.9775 13.2031 96.9775 12.4062 Q96.9775 11.4844 97.6025 11.0156 Q98.2275 10.5469 99.4463 10.5469 L100.7119 10.5469 L100.7119 10.4531 Q100.7119 9.8438 100.2979 9.5 Q99.8838 9.1562 99.1494 9.1562 Q98.6807 9.1562 98.2354 9.2734 Q97.79 9.3906 97.3838 9.6094 L97.3838 8.7812 Q97.8838 8.5938 98.3447 8.5 Q98.8057 8.4062 99.2432 8.4062 Q100.4307 8.4062 101.0166 9.0156 Q101.6025 9.625 101.6025 10.875 ZM104.3398 6.9844 L104.3398 8.5312 L106.1992 8.5312 L106.1992 9.2344 L104.3398 9.2344 L104.3398 12.2031 Q104.3398 12.8594 104.5273 13.0547 Q104.7148 13.25 105.2773 13.25 L106.1992 13.25 L106.1992 14 L105.2773 14 Q104.2305 14 103.832 13.6094 Q103.4336 13.2188 103.4336 12.2031 L103.4336 9.2344 L102.7773 9.2344 L102.7773 8.5312 L103.4336 8.5312 L103.4336 6.9844 L104.3398 6.9844 ZM107.3701 8.5312 L108.2764 8.5312 L108.2764 14 L107.3701 14 L107.3701 8.5312 ZM107.3701 6.4062 L108.2764 6.4062 L108.2764 7.5469 L107.3701 7.5469 L107.3701 6.4062 ZM112.2734 9.1562 Q111.5547 9.1562 111.1328 9.7188 Q110.7109 10.2812 110.7109 11.2656 Q110.7109 12.25 111.125 12.8125 Q111.5391 13.375 112.2734 13.375 Q112.9922 13.375 113.4141 12.8125 Q113.8359 12.25 113.8359 11.2656 Q113.8359 10.2969 113.4141 9.7266 Q112.9922 9.1562 112.2734 9.1562 ZM112.2734 8.4062 Q113.4453 8.4062 114.1172 9.1641 Q114.7891 9.9219 114.7891 11.2656 Q114.7891 12.6094 114.1172 13.375 Q113.4453 14.1406 112.2734 14.1406 Q111.1016 14.1406 110.4297 13.375 Q109.7578 12.6094 109.7578 11.2656 Q109.7578 9.9219 110.4297 9.1641 Q111.1016 8.4062 112.2734 8.4062 ZM120.8135 10.7031 L120.8135 14 L119.9229 14 L119.9229 10.7344 Q119.9229 9.9531 119.6182 9.5703 Q119.3135 9.1875 118.7041 9.1875 Q117.9854 9.1875 117.5635 9.6484 Q117.1416 10.1094 117.1416 10.9062 L117.1416 14 L116.2354 14 L116.2354 8.5312 L117.1416 8.5312 L117.1416 9.375 Q117.4697 8.8906 117.9072 8.6484 Q118.3447 8.4062 118.9072 8.4062 Q119.8447 8.4062 120.3291 8.9844 Q120.8135 9.5625 120.8135 10.7031 ZM126.0889 8.6875 L126.0889 9.5469 Q125.7139 9.3438 125.3076 9.25 Q124.9014 9.1562 124.4482 9.1562 Q123.792 9.1562 123.4561 9.3594 Q123.1201 9.5625 123.1201 9.9688 Q123.1201 10.2812 123.3545 10.4609 Q123.5889 10.6406 124.3232 10.7969 L124.6201 10.875 Q125.5889 11.0781 125.9873 11.4531 Q126.3857 11.8281 126.3857 12.4844 Q126.3857 13.25 125.7842 13.6953 Q125.1826 14.1406 124.1357 14.1406 Q123.6826 14.1406 123.2061 14.0547 Q122.7295 13.9688 122.2139 13.7969 L122.2139 12.875 Q122.7139 13.125 123.1904 13.2578 Q123.667 13.3906 124.1514 13.3906 Q124.7764 13.3906 125.1201 13.1719 Q125.4639 12.9531 125.4639 12.5625 Q125.4639 12.1875 125.2217 11.9922 Q124.9795 11.7969 124.1357 11.625 L123.8232 11.5469 Q122.9951 11.375 122.6201 11.0078 Q122.2451 10.6406 122.2451 10.0156 Q122.2451 9.2344 122.792 8.8203 Q123.3389 8.4062 124.3545 8.4062 Q124.8389 8.4062 125.2842 8.4766 Q125.7295 8.5469 126.0889 8.6875 ZM132.3613 10.7031 L132.3613 14 L131.4707 14 L131.4707 10.7344 Q131.4707 9.9531 131.166 9.5703 Q130.8613 9.1875 130.252 9.1875 Q129.5332 9.1875 129.1113 9.6484 Q128.6895 10.1094 128.6895 10.9062 L128.6895 14 L127.7832 14 L127.7832 6.4062 L128.6895 6.4062 L128.6895 9.375 Q129.0176 8.8906 129.4551 8.6484 Q129.8926 8.4062 130.4551 8.4062 Q131.3926 8.4062 131.877 8.9844 Q132.3613 9.5625 132.3613 10.7031 ZM134.1523 8.5312 L135.0586 8.5312 L135.0586 14 L134.1523 14 L134.1523 8.5312 ZM134.1523 6.4062 L135.0586 6.4062 L135.0586 7.5469 L134.1523 7.5469 L134.1523 6.4062 ZM137.8057 13.1719 L137.8057 16.0781 L136.8994 16.0781 L136.8994 8.5312 L137.8057 8.5312 L137.8057 9.3594 Q138.0869 8.875 138.5166 8.6406 Q138.9463 8.4062 139.5557 8.4062 Q140.5557 8.4062 141.1729 9.1953 Q141.79 9.9844 141.79 11.2656 Q141.79 12.5625 141.1729 13.3516 Q140.5557 14.1406 139.5557 14.1406 Q138.9463 14.1406 138.5166 13.9062 Q138.0869 13.6719 137.8057 13.1719 ZM140.8682 11.2656 Q140.8682 10.2812 140.4541 9.7188 Q140.04 9.1562 139.3369 9.1562 Q138.6182 9.1562 138.2119 9.7188 Q137.8057 10.2812 137.8057 11.2656 Q137.8057 12.2656 138.2119 12.8281 Q138.6182 13.3906 139.3369 13.3906 Q140.04 13.3906 140.4541 12.8281 Q140.8682 12.2656 140.8682 11.2656 ZM145.9414 8.5312 L146.832 8.5312 L147.957 12.7969 L149.082 8.5312 L150.1445 8.5312 L151.2695 12.7969 L152.3789 8.5312 L153.2852 8.5312 L151.8477 14 L150.7852 14 L149.6133 9.5156 L148.4258 14 L147.3633 14 L145.9414 8.5312 ZM154.6357 8.5312 L155.542 8.5312 L155.542 14 L154.6357 14 L154.6357 8.5312 ZM154.6357 6.4062 L155.542 6.4062 L155.542 7.5469 L154.6357 7.5469 L154.6357 6.4062 ZM158.3047 6.9844 L158.3047 8.5312 L160.1641 8.5312 L160.1641 9.2344 L158.3047 9.2344 L158.3047 12.2031 Q158.3047 12.8594 158.4922 13.0547 Q158.6797 13.25 159.2422 13.25 L160.1641 13.25 L160.1641 14 L159.2422 14 Q158.1953 14 157.7969 13.6094 Q157.3984 13.2188 157.3984 12.2031 L157.3984 9.2344 L156.7422 9.2344 L156.7422 8.5312 L157.3984 8.5312 L157.3984 6.9844 L158.3047 6.9844 ZM165.8818 10.7031 L165.8818 14 L164.9912 14 L164.9912 10.7344 Q164.9912 9.9531 164.6865 9.5703 Q164.3818 9.1875 163.7725 9.1875 Q163.0537 9.1875 162.6318 9.6484 Q162.21 10.1094 162.21 10.9062 L162.21 14 L161.3037 14 L161.3037 6.4062 L162.21 6.4062 L162.21 9.375 Q162.5381 8.8906 162.9756 8.6484 Q163.4131 8.4062 163.9756 8.4062 Q164.9131 8.4062 165.3975 8.9844 Q165.8818 9.5625 165.8818 10.7031 ZM173.3359 7.6875 L171.9922 11.3125 L174.6797 11.3125 L173.3359 7.6875 ZM172.7734 6.7031 L173.8984 6.7031 L176.6797 14 L175.6484 14 L174.9766 12.125 L171.6953 12.125 L171.0391 14 L169.9922 14 L172.7734 6.7031 ZM181.1924 10.5781 Q181.5049 10.6875 181.8096 11.0391 Q182.1143 11.3906 182.4111 12 L183.4111 14 L182.3486 14 L181.4268 12.125 Q181.0674 11.3906 180.7236 11.1562 Q180.3799 10.9219 179.8018 10.9219 L178.7236 10.9219 L178.7236 14 L177.7393 14 L177.7393 6.7031 L179.958 6.7031 Q181.208 6.7031 181.8252 7.2266 Q182.4424 7.75 182.4424 8.8125 Q182.4424 9.5 182.1221 9.9531 Q181.8018 10.4062 181.1924 10.5781 ZM178.7236 7.5156 L178.7236 10.1094 L179.958 10.1094 Q180.6768 10.1094 181.0439 9.7812 Q181.4111 9.4531 181.4111 8.8125 Q181.4111 8.1719 181.0439 7.8438 Q180.6768 7.5156 179.958 7.5156 L178.7236 7.5156 ZM190.1406 7.2656 L190.1406 8.3125 Q189.6406 7.8438 189.0781 7.6172 Q188.5156 7.3906 187.8906 7.3906 Q186.6406 7.3906 185.9766 8.1562 Q185.3125 8.9219 185.3125 10.3594 Q185.3125 11.7969 185.9766 12.5625 Q186.6406 13.3281 187.8906 13.3281 Q188.5156 13.3281 189.0781 13.1016 Q189.6406 12.875 190.1406 12.4062 L190.1406 13.4375 Q189.625 13.7969 189.0469 13.9688 Q188.4688 14.1406 187.8281 14.1406 Q186.1719 14.1406 185.2188 13.125 Q184.2656 12.1094 184.2656 10.3594 Q184.2656 8.6094 185.2188 7.5938 Q186.1719 6.5781 187.8281 6.5781 Q188.4844 6.5781 189.0625 6.75 Q189.6406 6.9219 190.1406 7.2656 ZM191.6699 6.7031 L192.998 6.7031 L196.2324 12.8125 L196.2324 6.7031 L197.1855 6.7031 L197.1855 14 L195.8574 14 L192.623 7.9062 L192.623 14 L191.6699 14 L191.6699 6.7031 ZM199.4004 13.1719 L201.0254 13.1719 L201.0254 7.6094 L199.2598 7.9531 L199.2598 7.0625 L201.0098 6.7031 L201.9941 6.7031 L201.9941 13.1719 L203.6035 13.1719 L203.6035 14 L199.4004 14 L199.4004 13.1719 ZM211.1289 11.25 Q210.0508 11.25 209.6289 11.5 Q209.207 11.75 209.207 12.3438 Q209.207 12.8281 209.5195 13.1094 Q209.832 13.3906 210.3789 13.3906 Q211.1289 13.3906 211.582 12.8594 Q212.0352 12.3281 212.0352 11.4531 L212.0352 11.25 L211.1289 11.25 ZM212.9258 10.875 L212.9258 14 L212.0352 14 L212.0352 13.1719 Q211.7227 13.6719 211.2617 13.9062 Q210.8008 14.1406 210.1445 14.1406 Q209.3008 14.1406 208.8008 13.6719 Q208.3008 13.2031 208.3008 12.4062 Q208.3008 11.4844 208.9258 11.0156 Q209.5508 10.5469 210.7695 10.5469 L212.0352 10.5469 L212.0352 10.4531 Q212.0352 9.8438 211.6211 9.5 Q211.207 9.1562 210.4727 9.1562 Q210.0039 9.1562 209.5586 9.2734 Q209.1133 9.3906 208.707 9.6094 L208.707 8.7812 Q209.207 8.5938 209.668 8.5 Q210.1289 8.4062 210.5664 8.4062 Q211.7539 8.4062 212.3398 9.0156 Q212.9258 9.625 212.9258 10.875 ZM219.3193 10.7031 L219.3193 14 L218.4287 14 L218.4287 10.7344 Q218.4287 9.9531 218.124 9.5703 Q217.8193 9.1875 217.21 9.1875 Q216.4912 9.1875 216.0693 9.6484 Q215.6475 10.1094 215.6475 10.9062 L215.6475 14 L214.7412 14 L214.7412 8.5312 L215.6475 8.5312 L215.6475 9.375 Q215.9756 8.8906 216.4131 8.6484 Q216.8506 8.4062 217.4131 8.4062 Q218.3506 8.4062 218.835 8.9844 Q219.3193 9.5625 219.3193 10.7031 ZM224.7197 9.3594 L224.7197 6.4062 L225.6104 6.4062 L225.6104 14 L224.7197 14 L224.7197 13.1719 Q224.4385 13.6719 224.001 13.9062 Q223.5635 14.1406 222.9541 14.1406 Q221.9697 14.1406 221.3447 13.3516 Q220.7197 12.5625 220.7197 11.2656 Q220.7197 9.9844 221.3447 9.1953 Q221.9697 8.4062 222.9541 8.4062 Q223.5635 8.4062 224.001 8.6406 Q224.4385 8.875 224.7197 9.3594 ZM221.6572 11.2656 Q221.6572 12.2656 222.0635 12.8281 Q222.4697 13.3906 223.1885 13.3906 Q223.8916 13.3906 224.3057 12.8281 Q224.7197 12.2656 224.7197 11.2656 Q224.7197 10.2812 224.3057 9.7188 Q223.8916 9.1562 223.1885 9.1562 Q222.4697 9.1562 222.0635 9.7188 Q221.6572 10.2812 221.6572 11.2656 ZM230.5742 6.7031 L231.5586 6.7031 L231.5586 11.1406 Q231.5586 12.3125 231.9805 12.8281 Q232.4023 13.3438 233.3555 13.3438 Q234.3086 13.3438 234.7305 12.8281 Q235.1523 12.3125 235.1523 11.1406 L235.1523 6.7031 L236.1523 6.7031 L236.1523 11.2656 Q236.1523 12.6875 235.4492 13.4141 Q234.7461 14.1406 233.3555 14.1406 Q231.9805 14.1406 231.2773 13.4141 Q230.5742 12.6875 230.5742 11.2656 L230.5742 6.7031 ZM242.3779 6.9531 L242.3779 7.9062 Q241.8154 7.6406 241.3154 7.5078 Q240.8154 7.375 240.3467 7.375 Q239.5498 7.375 239.1123 7.6875 Q238.6748 8 238.6748 8.5781 Q238.6748 9.0625 238.9639 9.3125 Q239.2529 9.5625 240.0654 9.7031 L240.6592 9.8281 Q241.7529 10.0469 242.2842 10.5703 Q242.8154 11.0938 242.8154 11.9844 Q242.8154 13.0469 242.1045 13.5938 Q241.3936 14.1406 240.0186 14.1406 Q239.5029 14.1406 238.917 14.0234 Q238.3311 13.9062 237.7061 13.6719 L237.7061 12.6562 Q238.3154 13 238.8857 13.1719 Q239.4561 13.3438 240.0186 13.3438 Q240.8623 13.3438 241.3232 13.0078 Q241.7842 12.6719 241.7842 12.0625 Q241.7842 11.5312 241.4561 11.2266 Q241.1279 10.9219 240.3623 10.7656 L239.7686 10.6562 Q238.6592 10.4375 238.167 9.9688 Q237.6748 9.5 237.6748 8.6562 Q237.6748 7.6875 238.3545 7.1328 Q239.0342 6.5781 240.2373 6.5781 Q240.7529 6.5781 241.2842 6.6719 Q241.8154 6.7656 242.3779 6.9531 ZM245.335 7.5156 L245.335 10.2656 L246.5693 10.2656 Q247.2568 10.2656 247.6396 9.9062 Q248.0225 9.5469 248.0225 8.8906 Q248.0225 8.2344 247.6396 7.875 Q247.2568 7.5156 246.5693 7.5156 L245.335 7.5156 ZM244.3506 6.7031 L246.5693 6.7031 Q247.8037 6.7031 248.4287 7.2578 Q249.0537 7.8125 249.0537 8.8906 Q249.0537 9.9688 248.4287 10.5156 Q247.8037 11.0625 246.5693 11.0625 L245.335 11.0625 L245.335 14 L244.3506 14 L244.3506 6.7031 ZM250.6309 13.1719 L252.2559 13.1719 L252.2559 7.6094 L250.4902 7.9531 L250.4902 7.0625 L252.2402 6.7031 L253.2246 6.7031 L253.2246 13.1719 L254.834 13.1719 L254.834 14 L250.6309 14 L250.6309 13.1719 Z"
         style="clip-path:url(#clipPath2); stroke:none;"
         clip-path="url(#clipPath2)"
         id="path64" />
      <path
         d="M4.25 21.9375 Q3.3906 21.9375 2.9141 22.5703 Q2.4375 23.2031 2.4375 24.3594 Q2.4375 25.5156 2.9141 26.1484 Q3.3906 26.7812 4.25 26.7812 Q5.1094 26.7812 5.5859 26.1484 Q6.0625 25.5156 6.0625 24.3594 Q6.0625 23.2031 5.5859 22.5703 Q5.1094 21.9375 4.25 21.9375 ZM4.25 20.5781 Q6 20.5781 7 21.5859 Q8 22.5938 8 24.3594 Q8 26.125 7 27.1328 Q6 28.1406 4.25 28.1406 Q2.5 28.1406 1.5 27.1328 Q0.5 26.125 0.5 24.3594 Q0.5 22.5938 1.5 21.5859 Q2.5 20.5781 4.25 20.5781 ZM13.4072 24.0156 Q13.1729 23.9062 12.9463 23.8594 Q12.7197 23.8125 12.4854 23.8125 Q11.8135 23.8125 11.4541 24.2422 Q11.0947 24.6719 11.0947 25.4844 L11.0947 28 L9.3447 28 L9.3447 22.5312 L11.0947 22.5312 L11.0947 23.4219 Q11.4229 22.8906 11.8604 22.6484 Q12.2979 22.4062 12.9072 22.4062 Q13.001 22.4062 13.1025 22.4062 Q13.2041 22.4062 13.3916 22.4375 L13.4072 24.0156 ZM17.9951 27.0781 Q17.6357 27.5469 17.1982 27.7734 Q16.7607 28 16.1982 28 Q15.1982 28 14.542 27.2109 Q13.8857 26.4219 13.8857 25.2031 Q13.8857 23.9688 14.542 23.1875 Q15.1982 22.4062 16.1982 22.4062 Q16.7607 22.4062 17.1982 22.6328 Q17.6357 22.8594 17.9951 23.3438 L17.9951 22.5312 L19.7451 22.5312 L19.7451 27.4531 Q19.7451 28.7656 18.917 29.4609 Q18.0889 30.1562 16.5107 30.1562 Q15.9951 30.1562 15.5186 30.0781 Q15.042 30 14.5576 29.8438 L14.5576 28.4844 Q15.0107 28.75 15.4482 28.875 Q15.8857 29 16.3389 29 Q17.1982 29 17.5967 28.625 Q17.9951 28.25 17.9951 27.4531 L17.9951 27.0781 ZM16.8389 23.6719 Q16.292 23.6719 15.9951 24.0703 Q15.6982 24.4688 15.6982 25.2031 Q15.6982 25.9531 15.9873 26.3438 Q16.2764 26.7344 16.8389 26.7344 Q17.3857 26.7344 17.6904 26.3281 Q17.9951 25.9219 17.9951 25.2031 Q17.9951 24.4688 17.6904 24.0703 Q17.3857 23.6719 16.8389 23.6719 ZM23.8877 25.5312 Q23.3408 25.5312 23.0596 25.7188 Q22.7783 25.9062 22.7783 26.2656 Q22.7783 26.6094 23.0049 26.7969 Q23.2314 26.9844 23.6221 26.9844 Q24.1221 26.9844 24.458 26.625 Q24.7939 26.2656 24.7939 25.7344 L24.7939 25.5312 L23.8877 25.5312 ZM26.5596 24.875 L26.5596 28 L24.7939 28 L24.7939 27.1875 Q24.4346 27.6875 23.9971 27.9141 Q23.5596 28.1406 22.9346 28.1406 Q22.0752 28.1406 21.5518 27.6484 Q21.0283 27.1562 21.0283 26.3594 Q21.0283 25.3906 21.6846 24.9453 Q22.3408 24.5 23.7627 24.5 L24.7939 24.5 L24.7939 24.3594 Q24.7939 23.9531 24.4658 23.7578 Q24.1377 23.5625 23.4502 23.5625 Q22.8877 23.5625 22.4033 23.6719 Q21.9189 23.7812 21.4971 24.0156 L21.4971 22.6719 Q22.0596 22.5469 22.6299 22.4766 Q23.2002 22.4062 23.7627 22.4062 Q25.2471 22.4062 25.9033 22.9844 Q26.5596 23.5625 26.5596 24.875 ZM33.6826 24.6719 L33.6826 28 L31.917 28 L31.917 27.4531 L31.917 25.4531 Q31.917 24.75 31.8857 24.4766 Q31.8545 24.2031 31.7764 24.0781 Q31.6826 23.9062 31.5029 23.8125 Q31.3232 23.7188 31.1045 23.7188 Q30.5576 23.7188 30.2451 24.1406 Q29.9326 24.5625 29.9326 25.3125 L29.9326 28 L28.1826 28 L28.1826 22.5312 L29.9326 22.5312 L29.9326 23.3281 Q30.3232 22.8594 30.7686 22.6328 Q31.2139 22.4062 31.7451 22.4062 Q32.6982 22.4062 33.1904 22.9844 Q33.6826 23.5625 33.6826 24.6719 ZM35.3018 22.5312 L37.0518 22.5312 L37.0518 28 L35.3018 28 L35.3018 22.5312 ZM35.3018 20.4062 L37.0518 20.4062 L37.0518 21.8281 L35.3018 21.8281 L35.3018 20.4062 ZM42.9951 22.7031 L42.9951 24.0312 Q42.4326 23.7969 41.9092 23.6797 Q41.3857 23.5625 40.9326 23.5625 Q40.4326 23.5625 40.1904 23.6875 Q39.9482 23.8125 39.9482 24.0625 Q39.9482 24.2812 40.1279 24.3906 Q40.3076 24.5 40.792 24.5625 L41.0889 24.5938 Q42.4326 24.7656 42.9014 25.1562 Q43.3701 25.5469 43.3701 26.3906 Q43.3701 27.2656 42.7217 27.7031 Q42.0732 28.1406 40.792 28.1406 Q40.2607 28.1406 39.6826 28.0547 Q39.1045 27.9688 38.4795 27.7969 L38.4795 26.4688 Q39.0107 26.7188 39.5576 26.8516 Q40.1045 26.9844 40.667 26.9844 Q41.1826 26.9844 41.4404 26.8438 Q41.6982 26.7031 41.6982 26.4219 Q41.6982 26.1875 41.5264 26.0703 Q41.3545 25.9531 40.8232 25.8906 L40.5107 25.8438 Q39.3389 25.7031 38.8701 25.3047 Q38.4014 24.9062 38.4014 24.1094 Q38.4014 23.2344 38.9951 22.8203 Q39.5889 22.4062 40.8232 22.4062 Q41.3076 22.4062 41.8389 22.4766 Q42.3701 22.5469 42.9951 22.7031 ZM49.7441 23.4375 Q50.0723 22.9375 50.5332 22.6719 Q50.9941 22.4062 51.541 22.4062 Q52.4785 22.4062 52.9707 22.9844 Q53.4629 23.5625 53.4629 24.6719 L53.4629 28 L51.7129 28 L51.7129 25.1406 Q51.7129 25.0781 51.7129 25.0156 Q51.7129 24.9531 51.7129 24.8281 Q51.7129 24.2344 51.5488 23.9766 Q51.3848 23.7188 50.9941 23.7188 Q50.4941 23.7188 50.2285 24.125 Q49.9629 24.5312 49.9473 25.3125 L49.9473 28 L48.1816 28 L48.1816 25.1406 Q48.1816 24.2344 48.0254 23.9766 Q47.8691 23.7188 47.4785 23.7188 Q46.9785 23.7188 46.7051 24.1328 Q46.4316 24.5469 46.4316 25.3125 L46.4316 28 L44.666 28 L44.666 22.5312 L46.4316 22.5312 L46.4316 23.3281 Q46.7441 22.875 47.166 22.6406 Q47.5879 22.4062 48.0879 22.4062 Q48.6504 22.4062 49.0879 22.6797 Q49.5254 22.9531 49.7441 23.4375 ZM55.3828 22.5312 L57.1328 22.5312 L57.1328 24.4219 L55.3828 24.4219 L55.3828 22.5312 ZM55.3828 26.1094 L57.1328 26.1094 L57.1328 28 L55.3828 28 L55.3828 26.1094 Z"
         style="clip-path:url(#clipPath2); stroke:none;"
         clip-path="url(#clipPath2)"
         id="path66" />
      <path
         d="M66.9844 20.7031 L67.9688 20.7031 L67.9688 23.7031 L71.5469 23.7031 L71.5469 20.7031 L72.5312 20.7031 L72.5312 28 L71.5469 28 L71.5469 24.5312 L67.9688 24.5312 L67.9688 28 L66.9844 28 L66.9844 20.7031 ZM76.582 23.1562 Q75.8633 23.1562 75.4414 23.7188 Q75.0195 24.2812 75.0195 25.2656 Q75.0195 26.25 75.4336 26.8125 Q75.8477 27.375 76.582 27.375 Q77.3008 27.375 77.7227 26.8125 Q78.1445 26.25 78.1445 25.2656 Q78.1445 24.2969 77.7227 23.7266 Q77.3008 23.1562 76.582 23.1562 ZM76.582 22.4062 Q77.7539 22.4062 78.4258 23.1641 Q79.0977 23.9219 79.0977 25.2656 Q79.0977 26.6094 78.4258 27.375 Q77.7539 28.1406 76.582 28.1406 Q75.4102 28.1406 74.7383 27.375 Q74.0664 26.6094 74.0664 25.2656 Q74.0664 23.9219 74.7383 23.1641 Q75.4102 22.4062 76.582 22.4062 ZM84.8408 23.5781 Q85.1689 22.9688 85.6377 22.6875 Q86.1064 22.4062 86.7471 22.4062 Q87.6064 22.4062 88.0674 23 Q88.5283 23.5938 88.5283 24.7031 L88.5283 28 L87.6221 28 L87.6221 24.7344 Q87.6221 23.9375 87.3486 23.5625 Q87.0752 23.1875 86.4971 23.1875 Q85.7939 23.1875 85.3955 23.6484 Q84.9971 24.1094 84.9971 24.9062 L84.9971 28 L84.0908 28 L84.0908 24.7344 Q84.0908 23.9375 83.8096 23.5625 Q83.5283 23.1875 82.9502 23.1875 Q82.2627 23.1875 81.8564 23.6484 Q81.4502 24.1094 81.4502 24.9062 L81.4502 28 L80.5439 28 L80.5439 22.5312 L81.4502 22.5312 L81.4502 23.375 Q81.7627 22.875 82.1924 22.6406 Q82.6221 22.4062 83.2002 22.4062 Q83.8096 22.4062 84.2236 22.7031 Q84.6377 23 84.8408 23.5781 ZM92.4414 23.1562 Q91.7227 23.1562 91.3008 23.7188 Q90.8789 24.2812 90.8789 25.2656 Q90.8789 26.25 91.293 26.8125 Q91.707 27.375 92.4414 27.375 Q93.1602 27.375 93.582 26.8125 Q94.0039 26.25 94.0039 25.2656 Q94.0039 24.2969 93.582 23.7266 Q93.1602 23.1562 92.4414 23.1562 ZM92.4414 22.4062 Q93.6133 22.4062 94.2852 23.1641 Q94.957 23.9219 94.957 25.2656 Q94.957 26.6094 94.2852 27.375 Q93.6133 28.1406 92.4414 28.1406 Q91.2695 28.1406 90.5977 27.375 Q89.9258 26.6094 89.9258 25.2656 Q89.9258 23.9219 90.5977 23.1641 Q91.2695 22.4062 92.4414 22.4062 ZM103.0977 22.6875 L103.0977 23.5469 Q102.7227 23.3438 102.3164 23.25 Q101.9102 23.1562 101.457 23.1562 Q100.8008 23.1562 100.4648 23.3594 Q100.1289 23.5625 100.1289 23.9688 Q100.1289 24.2812 100.3633 24.4609 Q100.5977 24.6406 101.332 24.7969 L101.6289 24.875 Q102.5977 25.0781 102.9961 25.4531 Q103.3945 25.8281 103.3945 26.4844 Q103.3945 27.25 102.793 27.6953 Q102.1914 28.1406 101.1445 28.1406 Q100.6914 28.1406 100.2148 28.0547 Q99.7383 27.9688 99.2227 27.7969 L99.2227 26.875 Q99.7227 27.125 100.1992 27.2578 Q100.6758 27.3906 101.1602 27.3906 Q101.7852 27.3906 102.1289 27.1719 Q102.4727 26.9531 102.4727 26.5625 Q102.4727 26.1875 102.2305 25.9922 Q101.9883 25.7969 101.1445 25.625 L100.832 25.5469 Q100.0039 25.375 99.6289 25.0078 Q99.2539 24.6406 99.2539 24.0156 Q99.2539 23.2344 99.8008 22.8203 Q100.3477 22.4062 101.3633 22.4062 Q101.8477 22.4062 102.293 22.4766 Q102.7383 22.5469 103.0977 22.6875 ZM107.3076 25.25 Q106.2295 25.25 105.8076 25.5 Q105.3857 25.75 105.3857 26.3438 Q105.3857 26.8281 105.6982 27.1094 Q106.0107 27.3906 106.5576 27.3906 Q107.3076 27.3906 107.7607 26.8594 Q108.2139 26.3281 108.2139 25.4531 L108.2139 25.25 L107.3076 25.25 ZM109.1045 24.875 L109.1045 28 L108.2139 28 L108.2139 27.1719 Q107.9014 27.6719 107.4404 27.9062 Q106.9795 28.1406 106.3232 28.1406 Q105.4795 28.1406 104.9795 27.6719 Q104.4795 27.2031 104.4795 26.4062 Q104.4795 25.4844 105.1045 25.0156 Q105.7295 24.5469 106.9482 24.5469 L108.2139 24.5469 L108.2139 24.4531 Q108.2139 23.8438 107.7998 23.5 Q107.3857 23.1562 106.6514 23.1562 Q106.1826 23.1562 105.7373 23.2734 Q105.292 23.3906 104.8857 23.6094 L104.8857 22.7812 Q105.3857 22.5938 105.8467 22.5 Q106.3076 22.4062 106.7451 22.4062 Q107.9326 22.4062 108.5186 23.0156 Q109.1045 23.625 109.1045 24.875 ZM111.8262 27.1719 L111.8262 30.0781 L110.9199 30.0781 L110.9199 22.5312 L111.8262 22.5312 L111.8262 23.3594 Q112.1074 22.875 112.5371 22.6406 Q112.9668 22.4062 113.5762 22.4062 Q114.5762 22.4062 115.1934 23.1953 Q115.8105 23.9844 115.8105 25.2656 Q115.8105 26.5625 115.1934 27.3516 Q114.5762 28.1406 113.5762 28.1406 Q112.9668 28.1406 112.5371 27.9062 Q112.1074 27.6719 111.8262 27.1719 ZM114.8887 25.2656 Q114.8887 24.2812 114.4746 23.7188 Q114.0605 23.1562 113.3574 23.1562 Q112.6387 23.1562 112.2324 23.7188 Q111.8262 24.2812 111.8262 25.2656 Q111.8262 26.2656 112.2324 26.8281 Q112.6387 27.3906 113.3574 27.3906 Q114.0605 27.3906 114.4746 26.8281 Q114.8887 26.2656 114.8887 25.2656 ZM117.2988 22.5312 L118.2051 22.5312 L118.2051 28 L117.2988 28 L117.2988 22.5312 ZM117.2988 20.4062 L118.2051 20.4062 L118.2051 21.5469 L117.2988 21.5469 L117.2988 20.4062 ZM124.7646 25.0469 L124.7646 25.4844 L120.624 25.4844 Q120.6865 26.4062 121.1865 26.8906 Q121.6865 27.375 122.5771 27.375 Q123.0928 27.375 123.585 27.25 Q124.0771 27.125 124.5459 26.875 L124.5459 27.7188 Q124.0615 27.9219 123.5537 28.0312 Q123.0459 28.1406 122.5303 28.1406 Q121.2178 28.1406 120.4521 27.3828 Q119.6865 26.625 119.6865 25.3125 Q119.6865 23.9688 120.4131 23.1875 Q121.1396 22.4062 122.374 22.4062 Q123.4834 22.4062 124.124 23.1094 Q124.7646 23.8125 124.7646 25.0469 ZM123.8584 24.7812 Q123.8584 24.0469 123.4521 23.6016 Q123.0459 23.1562 122.3896 23.1562 Q121.624 23.1562 121.1787 23.5859 Q120.7334 24.0156 120.6553 24.7812 L123.8584 24.7812 ZM130.7764 24.7031 L130.7764 28 L129.8857 28 L129.8857 24.7344 Q129.8857 23.9531 129.5811 23.5703 Q129.2764 23.1875 128.667 23.1875 Q127.9482 23.1875 127.5264 23.6484 Q127.1045 24.1094 127.1045 24.9062 L127.1045 28 L126.1982 28 L126.1982 22.5312 L127.1045 22.5312 L127.1045 23.375 Q127.4326 22.8906 127.8701 22.6484 Q128.3076 22.4062 128.8701 22.4062 Q129.8076 22.4062 130.292 22.9844 Q130.7764 23.5625 130.7764 24.7031 ZM136.0518 22.6875 L136.0518 23.5469 Q135.6768 23.3438 135.2705 23.25 Q134.8643 23.1562 134.4111 23.1562 Q133.7549 23.1562 133.4189 23.3594 Q133.083 23.5625 133.083 23.9688 Q133.083 24.2812 133.3174 24.4609 Q133.5518 24.6406 134.2861 24.7969 L134.583 24.875 Q135.5518 25.0781 135.9502 25.4531 Q136.3486 25.8281 136.3486 26.4844 Q136.3486 27.25 135.7471 27.6953 Q135.1455 28.1406 134.0986 28.1406 Q133.6455 28.1406 133.1689 28.0547 Q132.6924 27.9688 132.1768 27.7969 L132.1768 26.875 Q132.6768 27.125 133.1533 27.2578 Q133.6299 27.3906 134.1143 27.3906 Q134.7393 27.3906 135.083 27.1719 Q135.4268 26.9531 135.4268 26.5625 Q135.4268 26.1875 135.1846 25.9922 Q134.9424 25.7969 134.0986 25.625 L133.7861 25.5469 Q132.958 25.375 132.583 25.0078 Q132.208 24.6406 132.208 24.0156 Q132.208 23.2344 132.7549 22.8203 Q133.3018 22.4062 134.3174 22.4062 Q134.8018 22.4062 135.2471 22.4766 Q135.6924 22.5469 136.0518 22.6875 Z"
         style="clip-path:url(#clipPath2); stroke:none;"
         clip-path="url(#clipPath2)"
         id="path68" />
    </g>
    <g
       style="fill:navy; text-rendering:geometricPrecision; font-size:8; stroke:navy;"
       id="g74">
      <text
         x="260"
         xml:space="preserve"
         y="16"
         style="clip-path:url(#clipPath4); stroke:none;"
         clip-path="url(#clipPath4)"
         id="text72">1</text>
    </g>
    <g
       style="text-rendering:geometricPrecision;"
       id="g80">
      <path
         d="M152.4423 201.9806 L151.2272 290.627"
         style="fill:none; clip-path:url(#clipPath5);"
         clip-path="url(#clipPath5)"
         id="path76" />
      <path
         d="M151.2272 290.627 L156.5871 278.9993 L146.1881 278.8568 Z"
         style="clip-path:url(#clipPath5); fill-rule:evenodd; stroke:none;"
         clip-path="url(#clipPath5)"
         id="path78" />
    </g>
    <g
       style="text-rendering:geometricPrecision;"
       id="g88">
      <path
         d="M187.7327 318.627 L237.2285 318.3821"
         style="fill:none; clip-path:url(#clipPath6);"
         clip-path="url(#clipPath6)"
         id="path82" />
      <path
         d="M237.1835 309.2823 L238.4835 309.2758 L238.5799 328.7756 L237.28 328.782 L237.1835 309.2823 Z"
         style="fill:white; clip-path:url(#clipPath6); stroke:none;"
         clip-path="url(#clipPath6)"
         id="path84" />
      <path
         d="M237.1835 309.2823 L238.4835 309.2758 L238.5799 328.7756 L237.28 328.782 L237.1835 309.2823 Z"
         style="fill:none; clip-path:url(#clipPath6);"
         clip-path="url(#clipPath6)"
         id="path86" />
    </g>
    <g
       style="text-rendering:geometricPrecision;"
       id="g96">
      <path
         d="M275.7716 86.5492 L275.7716 106.5492 M275.7716 106.5492 L389.3803 106.5492 M389.3803 106.5492 L389.3803 155.5395"
         style="fill:none; clip-path:url(#clipPath7);"
         clip-path="url(#clipPath7)"
         id="path90" />
      <path
         d="M398.4803 155.5395 L398.4803 156.8395 L378.9803 156.8395 L378.9803 155.5395 L398.4803 155.5395 Z"
         style="fill:white; clip-path:url(#clipPath7); stroke:none;"
         clip-path="url(#clipPath7)"
         id="path92" />
      <path
         d="M398.4803 155.5395 L398.4803 156.8395 L378.9803 156.8395 L378.9803 155.5395 L398.4803 155.5395 Z"
         style="fill:none; clip-path:url(#clipPath7);"
         clip-path="url(#clipPath7)"
         id="path94" />
    </g>
    <g
       style="text-rendering:geometricPrecision;"
       id="g102">
      <path
         d="M389.3803 182.5395 L388.8214 234.2284"
         style="fill:none; clip-path:url(#clipPath8);"
         clip-path="url(#clipPath8)"
         id="path98" />
      <path
         d="M388.8214 234.2284 L394.1476 222.5853 L383.7482 222.4729 Z"
         style="clip-path:url(#clipPath8); fill-rule:evenodd; stroke:none;"
         clip-path="url(#clipPath8)"
         id="path100" />
    </g>
    <g
       style="text-rendering:geometricPrecision;"
       id="g110">
      <path
         d="M308.5298 318.3475 L361.542 318.5944"
         style="fill:none; clip-path:url(#clipPath9);"
         clip-path="url(#clipPath9)"
         id="path104" />
      <path
         d="M361.5844 309.4945 L362.8844 309.5005 L362.7935 329.0003 L361.4936 328.9943 L361.5844 309.4945 Z"
         style="fill:white; clip-path:url(#clipPath9); stroke:none;"
         clip-path="url(#clipPath9)"
         id="path106" />
      <path
         d="M361.5844 309.4945 L362.8844 309.5005 L362.7935 329.0003 L361.4936 328.9943 L361.5844 309.4945 Z"
         style="fill:none; clip-path:url(#clipPath9);"
         clip-path="url(#clipPath9)"
         id="path108" />
    </g>
    <g
       style="text-rendering:geometricPrecision;"
       id="g118">
      <path
         d="M275.7716 86.5492 L275.7716 106.5492 M275.7716 106.5492 L152.4423 106.5492 M152.4423 106.5492 L152.4423 174.9806"
         style="fill:none; clip-path:url(#clipPath10);"
         clip-path="url(#clipPath10)"
         id="path112" />
      <path
         d="M161.5423 174.9806 L161.5423 176.2806 L142.0423 176.2806 L142.0423 174.9806 L161.5423 174.9806 Z"
         style="fill:white; clip-path:url(#clipPath10); stroke:none;"
         clip-path="url(#clipPath10)"
         id="path114" />
      <path
         d="M161.5423 174.9806 L161.5423 176.2806 L142.0423 176.2806 L142.0423 174.9806 L161.5423 174.9806 Z"
         style="fill:none; clip-path:url(#clipPath10);"
         clip-path="url(#clipPath10)"
         id="path116" />
    </g>
    <g
       style="font-weight:bold; text-rendering:geometricPrecision;"
       id="g122">
      <text
         x="347"
         xml:space="preserve"
         y="249"
         style="clip-path:url(#clipPath11); stroke:none;"
         clip-path="url(#clipPath11)"
         id="text120">Cell viability</text>
    </g>
    <g
       style="fill:white; text-rendering:geometricPrecision; stroke:white;"
       id="g130">
      <path
         d="M122.7217 298.627 L179.7327 298.627 L179.7327 318.627 L122.7217 318.627 L122.7217 298.627 Z"
         style="clip-path:url(#clipPath12); stroke:none;"
         clip-path="url(#clipPath12)"
         id="path124" />
      <path
         d="M122.7217 298.627 L179.7327 298.627 L179.7327 318.627 L122.7217 318.627 L122.7217 298.627 Z"
         style="fill:none; clip-path:url(#clipPath12); stroke:black;"
         clip-path="url(#clipPath12)"
         id="path126" />
      <text
         x="143"
         y="312"
         style="font-size:10; clip-path:url(#clipPath12); fill:black; stroke:none;"
         xml:space="preserve"
         clip-path="url(#clipPath12)"
         id="text128">ID1</text>
    </g>
    <g
       style="fill:white; text-rendering:geometricPrecision; stroke:white;"
       id="g138">
      <path
         d="M230.8627 66.5492 L320.6805 66.5492 L320.6805 86.5492 L230.8627 86.5492 L230.8627 66.5492 Z"
         style="clip-path:url(#clipPath13); stroke:none;"
         clip-path="url(#clipPath13)"
         id="path132" />
      <path
         d="M230.8627 66.5492 L320.6805 66.5492 L320.6805 86.5492 L230.8627 86.5492 L230.8627 66.5492 Z"
         style="fill:none; clip-path:url(#clipPath13); stroke:rgb(153,0,153);"
         clip-path="url(#clipPath13)"
         id="path134" />
      <text
         x="233"
         y="80"
         style="font-size:10; clip-path:url(#clipPath13); fill:rgb(153,0,153); stroke:none;"
         xml:space="preserve"
         clip-path="url(#clipPath13)"
         id="text136">hsa-miR-517a-3p</text>
    </g>
    <g
       style="fill:white; text-rendering:geometricPrecision; stroke:white;"
       id="g146">
      <path
         d="M244.2284 308.3475 L308.5298 308.3475 L308.5298 328.3475 L244.2284 328.3475 L244.2284 308.3475 Z"
         style="clip-path:url(#clipPath14); stroke:none;"
         clip-path="url(#clipPath14)"
         id="path140" />
      <path
         d="M244.2284 308.3475 L308.5298 308.3475 L308.5298 328.3475 L244.2284 328.3475 L244.2284 308.3475 Z"
         style="fill:none; clip-path:url(#clipPath14); stroke:black;"
         clip-path="url(#clipPath14)"
         id="path142" />
      <text
         x="267"
         y="322"
         style="font-size:10; clip-path:url(#clipPath14); fill:black; stroke:none;"
         xml:space="preserve"
         clip-path="url(#clipPath14)"
         id="text144">p21</text>
    </g>
    <g
       style="fill:white; text-rendering:geometricPrecision; stroke:white;"
       id="g154">
      <path
         d="M354.7995 162.5395 L423.9611 162.5395 L423.9611 182.5395 L354.7995 182.5395 L354.7995 162.5395 Z"
         style="clip-path:url(#clipPath15); stroke:none;"
         clip-path="url(#clipPath15)"
         id="path148" />
      <path
         d="M354.7995 162.5395 L423.9611 162.5395 L423.9611 182.5395 L354.7995 182.5395 L354.7995 162.5395 Z"
         style="fill:none; clip-path:url(#clipPath15); stroke:black;"
         clip-path="url(#clipPath15)"
         id="path150" />
      <text
         x="372"
         y="176"
         style="font-size:10; clip-path:url(#clipPath15); fill:black; stroke:none;"
         xml:space="preserve"
         clip-path="url(#clipPath15)"
         id="text152">ARCN1</text>
    </g>
    <g
       style="fill:white; text-rendering:geometricPrecision; stroke:white;"
       id="g162">
      <path
         d="M122.7217 318.627 L179.7327 318.627 L179.7327 338.627 L122.7217 338.627 L122.7217 318.627 Z"
         style="clip-path:url(#clipPath16); stroke:none;"
         clip-path="url(#clipPath16)"
         id="path156" />
      <path
         d="M122.7217 318.627 L179.7327 318.627 L179.7327 338.627 L122.7217 338.627 L122.7217 318.627 Z"
         style="fill:none; clip-path:url(#clipPath16); stroke:black;"
         clip-path="url(#clipPath16)"
         id="path158" />
      <text
         x="143"
         y="332"
         style="font-size:10; clip-path:url(#clipPath16); fill:black; stroke:none;"
         xml:space="preserve"
         clip-path="url(#clipPath16)"
         id="text160">ID2</text>
    </g>
    <g
       style="fill:white; text-rendering:geometricPrecision; stroke:white;"
       id="g170">
      <path
         d="M121.5067 181.9806 L183.3779 181.9806 L183.3779 201.9806 L121.5067 201.9806 L121.5067 181.9806 Z"
         style="clip-path:url(#clipPath17); stroke:none;"
         clip-path="url(#clipPath17)"
         id="path164" />
      <path
         d="M121.5067 181.9806 L183.3779 181.9806 L183.3779 201.9806 L121.5067 201.9806 L121.5067 181.9806 Z"
         style="fill:none; clip-path:url(#clipPath17); stroke:black;"
         clip-path="url(#clipPath17)"
         id="path166" />
      <text
         x="139"
         y="195"
         style="font-size:10; clip-path:url(#clipPath17); fill:black; stroke:none;"
         xml:space="preserve"
         clip-path="url(#clipPath17)"
         id="text168">USP1</text>
    </g>
    <g
       style="font-weight:bold; text-rendering:geometricPrecision;"
       id="g174">
      <text
         x="368"
         xml:space="preserve"
         y="323"
         style="clip-path:url(#clipPath18); stroke:none;"
         clip-path="url(#clipPath18)"
         id="text172">Cell cycle progression</text>
    </g>
  </g>
</svg>
