<?xml version="1.0" encoding="UTF-8" standalone="no"?>
<svg
   style="fill-opacity:1; color-rendering:auto; color-interpolation:auto; stroke:black; text-rendering:auto; stroke-linecap:square; stroke-miterlimit:10; stroke-opacity:1; shape-rendering:auto; fill:black; stroke-dasharray:none; font-weight:normal; stroke-width:1; font-family:'Dialog'; font-style:normal; stroke-linejoin:miter; font-size:12; stroke-dashoffset:0; image-rendering:auto;"
   width="919"
   height="1020"
   version="1.1"
   id="svg570"
   xmlns="http://www.w3.org/2000/svg"
   xmlns:svg="http://www.w3.org/2000/svg">
  <!--Generated by the Batik Graphics2D SVG Generator-->
  <defs
     id="genericDefs" />
  <g
     id="g568">
    <defs
       id="defs1">
      <clipPath
         clipPathUnits="userSpaceOnUse"
         id="clipPath1">
        <path
           d="M0 0 L929 0 L929 1030 L0 1030 L0 0 Z"
           id="path3" />
      </clipPath>
      <clipPath
         clipPathUnits="userSpaceOnUse"
         id="clipPath2">
        <path
           d="M0 0 L0 200 L200 200 L200 0 Z"
           id="path6" />
      </clipPath>
      <clipPath
         clipPathUnits="userSpaceOnUse"
         id="clipPath3">
        <path
           d="M256 16 L256 37 L267 37 L267 16 Z"
           id="path9" />
      </clipPath>
      <clipPath
         clipPathUnits="userSpaceOnUse"
         id="clipPath4">
        <path
           d="M255.4551 3.918 L266.5449 3.918 L266.5449 19.2305 L255.4551 19.2305 L255.4551 3.918 Z"
           id="path12" />
      </clipPath>
      <clipPath
         clipPathUnits="userSpaceOnUse"
         id="clipPath5">
        <path
           d="M508.4386 196.7574 L508.4386 208.1574 L545.2529 208.1574 L545.2529 196.7574 Z"
           id="path15" />
      </clipPath>
      <clipPath
         clipPathUnits="userSpaceOnUse"
         id="clipPath6">
        <path
           d="M449.3752 793.2874 L449.3752 856.0104 L583.46 856.0104 L583.46 793.2874 Z"
           id="path18" />
      </clipPath>
      <clipPath
         clipPathUnits="userSpaceOnUse"
         id="clipPath7">
        <path
           d="M405.2944 714.5775 L405.2944 725.9778 L450.9424 725.9778 L450.9424 714.5775 Z"
           id="path21" />
      </clipPath>
      <clipPath
         clipPathUnits="userSpaceOnUse"
         id="clipPath8">
        <path
           d="M372.2102 793.248 L372.2102 857.0842 L450.7425 857.0842 L450.7425 793.248 Z"
           id="path24" />
      </clipPath>
      <clipPath
         clipPathUnits="userSpaceOnUse"
         id="clipPath9">
        <path
           d="M449.35 611.8847 L449.35 636.093 L487.5218 636.093 L487.5218 611.8847 Z"
           id="path27" />
      </clipPath>
      <clipPath
         clipPathUnits="userSpaceOnUse"
         id="clipPath10">
        <path
           d="M444.0698 467.6277 L444.0698 542.5259 L456.0086 542.5259 L456.0086 467.6277 Z"
           id="path30" />
      </clipPath>
      <clipPath
         clipPathUnits="userSpaceOnUse"
         id="clipPath11">
        <path
           d="M401.742 496.1068 L401.742 507.5075 L450.96 507.5075 L450.96 496.1068 Z"
           id="path33" />
      </clipPath>
      <clipPath
         clipPathUnits="userSpaceOnUse"
         id="clipPath12">
        <path
           d="M344.5849 375.0799 L344.5849 443.8187 L451.0747 443.8187 L451.0747 375.0799 Z"
           id="path36" />
      </clipPath>
      <clipPath
         clipPathUnits="userSpaceOnUse"
         id="clipPath13">
        <path
           d="M266.6519 387.0398 L266.6519 781.9514 L405.5392 781.9514 L405.5392 387.0398 Z"
           id="path39" />
      </clipPath>
      <clipPath
         clipPathUnits="userSpaceOnUse"
         id="clipPath14">
        <path
           d="M490.6492 407.0319 L490.6492 418.6281 L524.1537 418.6281 L524.1537 407.0319 Z"
           id="path42" />
      </clipPath>
      <clipPath
         clipPathUnits="userSpaceOnUse"
         id="clipPath15">
        <path
           d="M448.8085 480.1361 L448.8085 492.0711 L510.6789 492.0711 L510.6789 480.1361 Z"
           id="path45" />
      </clipPath>
      <clipPath
         clipPathUnits="userSpaceOnUse"
         id="clipPath16">
        <path
           d="M538.3832 162.4762 L538.3832 242.5292 L550.322 242.5292 L550.322 162.4762 Z"
           id="path48" />
      </clipPath>
      <clipPath
         clipPathUnits="userSpaceOnUse"
         id="clipPath17">
        <path
           d="M506.6138 289.0584 L506.6138 300.4585 L545.2535 300.4585 L545.2535 289.0584 Z"
           id="path51" />
      </clipPath>
      <clipPath
         clipPathUnits="userSpaceOnUse"
         id="clipPath18">
        <path
           d="M449.1026 361.9673 L449.1026 443.9267 L545.0575 443.9267 L545.0575 361.9673 Z"
           id="path54" />
      </clipPath>
      <clipPath
         clipPathUnits="userSpaceOnUse"
         id="clipPath19">
        <path
           d="M382.8341 370.1434 L382.8341 403.8101 L397.1985 403.8101 L397.1985 370.1434 Z"
           id="path57" />
      </clipPath>
      <clipPath
         clipPathUnits="userSpaceOnUse"
         id="clipPath20">
        <path
           d="M543.1273 169.9813 L543.1273 181.864 L586.6118 181.864 L586.6118 169.9813 Z"
           id="path60" />
      </clipPath>
      <clipPath
         clipPathUnits="userSpaceOnUse"
         id="clipPath21">
        <path
           d="M538.3832 265.7981 L538.3832 338.9033 L550.322 338.9033 L550.322 265.7981 Z"
           id="path63" />
      </clipPath>
      <clipPath
         clipPathUnits="userSpaceOnUse"
         id="clipPath22">
        <path
           d="M475.8715 370.0579 L475.8715 398.8672 L506.9693 398.8672 L506.9693 370.0579 Z"
           id="path66" />
      </clipPath>
      <clipPath
         clipPathUnits="userSpaceOnUse"
         id="clipPath23">
        <path
           d="M405.1891 590.0069 L405.1891 608.2739 L451.1448 608.2739 L451.1448 590.0069 Z"
           id="path69" />
      </clipPath>
      <clipPath
         clipPathUnits="userSpaceOnUse"
         id="clipPath24">
        <path
           d="M449.5363 512.5432 L449.5363 524.4818 L491.1011 524.4818 L491.1011 512.5432 Z"
           id="path72" />
      </clipPath>
      <clipPath
         clipPathUnits="userSpaceOnUse"
         id="clipPath25">
        <path
           d="M62.2531 103.3499 L62.2531 1006.9162 L905.4552 1006.9162 L905.4552 103.3499 Z"
           id="path75" />
      </clipPath>
      <clipPath
         clipPathUnits="userSpaceOnUse"
         id="clipPath26">
        <path
           d="M325.3121 708.3574 L325.3121 729.3574 L406.3121 729.3574 L406.3121 708.3574 Z"
           id="path78" />
      </clipPath>
      <clipPath
         clipPathUnits="userSpaceOnUse"
         id="clipPath27">
        <path
           d="M517.6665 470.0299 L517.6665 485.4009 L561.2684 485.4009 L561.2684 470.0299 Z"
           id="path81" />
      </clipPath>
      <clipPath
         clipPathUnits="userSpaceOnUse"
         id="clipPath28">
        <path
           d="M498.8526 240.7981 L498.8526 266.7981 L589.8526 266.7981 L589.8526 240.7981 Z"
           id="path84" />
      </clipPath>
      <clipPath
         clipPathUnits="userSpaceOnUse"
         id="clipPath29">
        <path
           d="M383.5573 442.6277 L383.5573 468.6277 L516.5211 468.6277 L516.5211 442.6277 Z"
           id="path87" />
      </clipPath>
      <clipPath
         clipPathUnits="userSpaceOnUse"
         id="clipPath30">
        <path
           d="M311.7859 484.8324 L311.7859 510.8324 L402.7859 510.8324 L402.7859 484.8324 Z"
           id="path90" />
      </clipPath>
      <clipPath
         clipPathUnits="userSpaceOnUse"
         id="clipPath31">
        <path
           d="M498.8526 337.1722 L498.8526 363.1722 L589.8526 363.1722 L589.8526 337.1722 Z"
           id="path93" />
      </clipPath>
      <clipPath
         clipPathUnits="userSpaceOnUse"
         id="clipPath32">
        <path
           d="M325.3121 597.1508 L325.3121 618.1508 L406.3121 618.1508 L406.3121 597.1508 Z"
           id="path96" />
      </clipPath>
      <clipPath
         clipPathUnits="userSpaceOnUse"
         id="clipPath33">
        <path
           d="M428.443 192.2329 L428.443 213.2329 L509.443 213.2329 L509.443 192.2329 Z"
           id="path99" />
      </clipPath>
      <clipPath
         clipPathUnits="userSpaceOnUse"
         id="clipPath34">
        <path
           d="M426.623 283.6552 L426.623 304.6552 L507.623 304.6552 L507.623 283.6552 Z"
           id="path102" />
      </clipPath>
      <clipPath
         clipPathUnits="userSpaceOnUse"
         id="clipPath35">
        <path
           d="M396.0778 360.2642 L396.0778 381.2642 L477.0778 381.2642 L477.0778 360.2642 Z"
           id="path105" />
      </clipPath>
      <clipPath
         clipPathUnits="userSpaceOnUse"
         id="clipPath36">
        <path
           d="M327.6664 855.8087 L327.6664 881.8087 L418.6664 881.8087 L418.6664 855.8087 Z"
           id="path108" />
      </clipPath>
      <clipPath
         clipPathUnits="userSpaceOnUse"
         id="clipPath37">
        <path
           d="M507.1952 142.4762 L507.1952 163.4762 L581.51 163.4762 L581.51 142.4762 Z"
           id="path111" />
      </clipPath>
      <clipPath
         clipPathUnits="userSpaceOnUse"
         id="clipPath38">
        <path
           d="M593.5657 158.175 L593.5657 173.546 L637.1677 173.546 L637.1677 158.175 Z"
           id="path114" />
      </clipPath>
      <clipPath
         clipPathUnits="userSpaceOnUse"
         id="clipPath39">
        <path
           d="M593.5657 172.546 L593.5657 187.917 L637.1677 187.917 L637.1677 172.546 Z"
           id="path117" />
      </clipPath>
      <clipPath
         clipPathUnits="userSpaceOnUse"
         id="clipPath40">
        <path
           d="M530.4579 400.8603 L530.4579 416.2313 L574.0599 416.2313 L574.0599 400.8603 Z"
           id="path120" />
      </clipPath>
      <clipPath
         clipPathUnits="userSpaceOnUse"
         id="clipPath41">
        <path
           d="M530.4579 415.2313 L530.4579 430.6023 L574.0599 430.6023 L574.0599 415.2313 Z"
           id="path123" />
      </clipPath>
      <clipPath
         clipPathUnits="userSpaceOnUse"
         id="clipPath42">
        <path
           d="M375.1975 540.7947 L375.1975 566.7947 L524.8809 566.7947 L524.8809 540.7947 Z"
           id="path126" />
      </clipPath>
      <clipPath
         clipPathUnits="userSpaceOnUse"
         id="clipPath43">
        <path
           d="M444.0698 565.7947 L444.0698 659.2545 L456.0086 659.2545 L456.0086 565.7947 Z"
           id="path129" />
      </clipPath>
      <clipPath
         clipPathUnits="userSpaceOnUse"
         id="clipPath44">
        <path
           d="M376.3548 657.5233 L376.3548 683.5233 L523.7236 683.5233 L523.7236 657.5233 Z"
           id="path132" />
      </clipPath>
      <clipPath
         clipPathUnits="userSpaceOnUse"
         id="clipPath45">
        <path
           d="M404.5392 768.4514 L404.5392 794.4514 L495.5392 794.4514 L495.5392 768.4514 Z"
           id="path135" />
      </clipPath>
      <clipPath
         clipPathUnits="userSpaceOnUse"
         id="clipPath46">
        <path
           d="M444.0698 682.5233 L444.0698 770.1825 L456.0086 770.1825 L456.0086 682.5233 Z"
           id="path138" />
      </clipPath>
      <clipPath
         clipPathUnits="userSpaceOnUse"
         id="clipPath47">
        <path
           d="M466.7772 854.8464 L466.7772 880.8464 L697.9092 880.8464 L697.9092 854.8464 Z"
           id="path141" />
      </clipPath>
      <clipPath
         clipPathUnits="userSpaceOnUse"
         id="clipPath48">
        <path
           d="M199.4667 362.7709 L199.4667 388.7709 L345.7759 388.7709 L345.7759 362.7709 Z"
           id="path144" />
      </clipPath>
      <clipPath
         clipPathUnits="userSpaceOnUse"
         id="clipPath49">
        <path
           d="M489.37 510.8966 L489.37 526.2676 L532.9719 526.2676 L532.9719 510.8966 Z"
           id="path147" />
      </clipPath>
      <clipPath
         clipPathUnits="userSpaceOnUse"
         id="clipPath50">
        <path
           d="M517.6665 484.4009 L517.6665 499.7719 L561.2684 499.7719 L561.2684 484.4009 Z"
           id="path150" />
      </clipPath>
      <clipPath
         clipPathUnits="userSpaceOnUse"
         id="clipPath51">
        <path
           d="M485.9785 627.7184 L485.9785 643.0894 L529.5804 643.0894 L529.5804 627.7184 Z"
           id="path153" />
      </clipPath>
      <clipPath
         clipPathUnits="userSpaceOnUse"
         id="clipPath52">
        <path
           d="M448.8081 695.4028 L448.8081 707.3415 L481.4329 707.3415 L481.4329 695.4028 Z"
           id="path156" />
      </clipPath>
      <clipPath
         clipPathUnits="userSpaceOnUse"
         id="clipPath53">
        <path
           d="M488.4328 700.8773 L488.4328 716.2483 L532.0347 716.2483 L532.0347 700.8773 Z"
           id="path159" />
      </clipPath>
      <clipPath
         clipPathUnits="userSpaceOnUse"
         id="clipPath54">
        <path
           d="M487.1343 738.2126 L487.1343 753.5836 L530.7363 753.5836 L530.7363 738.2126 Z"
           id="path162" />
      </clipPath>
      <clipPath
         clipPathUnits="userSpaceOnUse"
         id="clipPath55">
        <path
           d="M488.4328 686.5063 L488.4328 701.8773 L532.0347 701.8773 L532.0347 686.5063 Z"
           id="path165" />
      </clipPath>
      <clipPath
         clipPathUnits="userSpaceOnUse"
         id="clipPath56">
        <path
           d="M449.4111 733.3041 L449.4111 747.8862 L488.8074 747.8862 L488.8074 733.3041 Z"
           id="path168" />
      </clipPath>
    </defs>
    <g
       style="fill:white; stroke:white;"
       id="g174">
      <rect
         x="0"
         width="929"
         height="1030"
         y="0"
         style="stroke:none;"
         id="rect172" />
    </g>
    <g
       style="font-weight:bold; font-size:10; text-rendering:geometricPrecision;"
       id="g184">
      <path
         d="M0.0469 6.7031 L6.7656 6.7031 L6.7656 8.125 L4.3438 8.125 L4.3438 14 L2.4688 14 L2.4688 8.125 L0.0469 8.125 L0.0469 6.7031 ZM7.665 8.5312 L9.415 8.5312 L9.415 14 L7.665 14 L7.665 8.5312 ZM7.665 6.4062 L9.415 6.4062 L9.415 7.8281 L7.665 7.8281 L7.665 6.4062 ZM12.999 6.9844 L12.999 8.5312 L14.7959 8.5312 L14.7959 9.7812 L12.999 9.7812 L12.999 12.0938 Q12.999 12.4844 13.1475 12.6172 Q13.2959 12.75 13.749 12.75 L14.6553 12.75 L14.6553 14 L13.1553 14 Q12.1084 14 11.6787 13.5703 Q11.249 13.1406 11.249 12.0938 L11.249 9.7812 L10.374 9.7812 L10.374 8.5312 L11.249 8.5312 L11.249 6.9844 L12.999 6.9844 ZM15.873 6.4062 L17.623 6.4062 L17.623 14 L15.873 14 L15.873 6.4062 ZM24.7539 11.25 L24.7539 11.75 L20.6758 11.75 Q20.7383 12.3594 21.1133 12.6719 Q21.4883 12.9844 22.1758 12.9844 Q22.7227 12.9844 23.3086 12.8203 Q23.8945 12.6562 24.5039 12.3125 L24.5039 13.6719 Q23.8789 13.9062 23.2617 14.0234 Q22.6445 14.1406 22.0195 14.1406 Q20.5352 14.1406 19.7148 13.3828 Q18.8945 12.625 18.8945 11.2656 Q18.8945 9.9375 19.6992 9.1719 Q20.5039 8.4062 21.9258 8.4062 Q23.207 8.4062 23.9805 9.1797 Q24.7539 9.9531 24.7539 11.25 ZM22.957 10.6719 Q22.957 10.1719 22.668 9.8672 Q22.3789 9.5625 21.9102 9.5625 Q21.3945 9.5625 21.082 9.8438 Q20.7695 10.125 20.6914 10.6719 L22.957 10.6719 ZM26.3643 8.5312 L28.1143 8.5312 L28.1143 10.4219 L26.3643 10.4219 L26.3643 8.5312 ZM26.3643 12.1094 L28.1143 12.1094 L28.1143 14 L26.3643 14 L26.3643 12.1094 Z"
         style="clip-path:url(#clipPath2); stroke:none;"
         clip-path="url(#clipPath2)"
         id="path176" />
      <path
         d="M38.9844 6.7031 L40.4531 6.7031 L42.3125 11.6719 L44.1875 6.7031 L45.6562 6.7031 L45.6562 14 L44.6875 14 L44.6875 7.5938 L42.8125 12.5938 L41.8125 12.5938 L39.9375 7.5938 L39.9375 14 L38.9844 14 L38.9844 6.7031 ZM47.5654 8.5312 L48.4717 8.5312 L48.4717 14 L47.5654 14 L47.5654 8.5312 ZM47.5654 6.4062 L48.4717 6.4062 L48.4717 7.5469 L47.5654 7.5469 L47.5654 6.4062 ZM51.2344 6.9844 L51.2344 8.5312 L53.0938 8.5312 L53.0938 9.2344 L51.2344 9.2344 L51.2344 12.2031 Q51.2344 12.8594 51.4219 13.0547 Q51.6094 13.25 52.1719 13.25 L53.0938 13.25 L53.0938 14 L52.1719 14 Q51.125 14 50.7266 13.6094 Q50.3281 13.2188 50.3281 12.2031 L50.3281 9.2344 L49.6719 9.2344 L49.6719 8.5312 L50.3281 8.5312 L50.3281 6.9844 L51.2344 6.9844 ZM56.3896 9.1562 Q55.6709 9.1562 55.249 9.7188 Q54.8271 10.2812 54.8271 11.2656 Q54.8271 12.25 55.2412 12.8125 Q55.6553 13.375 56.3896 13.375 Q57.1084 13.375 57.5303 12.8125 Q57.9521 12.25 57.9521 11.2656 Q57.9521 10.2969 57.5303 9.7266 Q57.1084 9.1562 56.3896 9.1562 ZM56.3896 8.4062 Q57.5615 8.4062 58.2334 9.1641 Q58.9053 9.9219 58.9053 11.2656 Q58.9053 12.6094 58.2334 13.375 Q57.5615 14.1406 56.3896 14.1406 Q55.2178 14.1406 54.5459 13.375 Q53.874 12.6094 53.874 11.2656 Q53.874 9.9219 54.5459 9.1641 Q55.2178 8.4062 56.3896 8.4062 ZM64.3203 8.7344 L64.3203 9.5781 Q63.9453 9.375 63.5625 9.2656 Q63.1797 9.1562 62.7891 9.1562 Q61.9141 9.1562 61.4297 9.7109 Q60.9453 10.2656 60.9453 11.2656 Q60.9453 12.2656 61.4297 12.8203 Q61.9141 13.375 62.7891 13.375 Q63.1797 13.375 63.5625 13.2734 Q63.9453 13.1719 64.3203 12.9531 L64.3203 13.7969 Q63.9453 13.9688 63.5469 14.0547 Q63.1484 14.1406 62.6953 14.1406 Q61.4453 14.1406 60.7188 13.3672 Q59.9922 12.5938 59.9922 11.2656 Q59.9922 9.9375 60.7266 9.1719 Q61.4609 8.4062 62.7422 8.4062 Q63.1641 8.4062 63.5547 8.4844 Q63.9453 8.5625 64.3203 8.7344 ZM70.4277 10.7031 L70.4277 14 L69.5371 14 L69.5371 10.7344 Q69.5371 9.9531 69.2324 9.5703 Q68.9277 9.1875 68.3184 9.1875 Q67.5996 9.1875 67.1777 9.6484 Q66.7559 10.1094 66.7559 10.9062 L66.7559 14 L65.8496 14 L65.8496 6.4062 L66.7559 6.4062 L66.7559 9.375 Q67.084 8.8906 67.5215 8.6484 Q67.959 8.4062 68.5215 8.4062 Q69.459 8.4062 69.9434 8.9844 Q70.4277 9.5625 70.4277 10.7031 ZM74.3438 9.1562 Q73.625 9.1562 73.2031 9.7188 Q72.7812 10.2812 72.7812 11.2656 Q72.7812 12.25 73.1953 12.8125 Q73.6094 13.375 74.3438 13.375 Q75.0625 13.375 75.4844 12.8125 Q75.9062 12.25 75.9062 11.2656 Q75.9062 10.2969 75.4844 9.7266 Q75.0625 9.1562 74.3438 9.1562 ZM74.3438 8.4062 Q75.5156 8.4062 76.1875 9.1641 Q76.8594 9.9219 76.8594 11.2656 Q76.8594 12.6094 76.1875 13.375 Q75.5156 14.1406 74.3438 14.1406 Q73.1719 14.1406 72.5 13.375 Q71.8281 12.6094 71.8281 11.2656 Q71.8281 9.9219 72.5 9.1641 Q73.1719 8.4062 74.3438 8.4062 ZM82.8838 10.7031 L82.8838 14 L81.9932 14 L81.9932 10.7344 Q81.9932 9.9531 81.6885 9.5703 Q81.3838 9.1875 80.7744 9.1875 Q80.0557 9.1875 79.6338 9.6484 Q79.2119 10.1094 79.2119 10.9062 L79.2119 14 L78.3057 14 L78.3057 8.5312 L79.2119 8.5312 L79.2119 9.375 Q79.54 8.8906 79.9775 8.6484 Q80.415 8.4062 80.9775 8.4062 Q81.915 8.4062 82.3994 8.9844 Q82.8838 9.5625 82.8838 10.7031 ZM88.2842 9.3594 L88.2842 6.4062 L89.1748 6.4062 L89.1748 14 L88.2842 14 L88.2842 13.1719 Q88.0029 13.6719 87.5654 13.9062 Q87.1279 14.1406 86.5186 14.1406 Q85.5342 14.1406 84.9092 13.3516 Q84.2842 12.5625 84.2842 11.2656 Q84.2842 9.9844 84.9092 9.1953 Q85.5342 8.4062 86.5186 8.4062 Q87.1279 8.4062 87.5654 8.6406 Q88.0029 8.875 88.2842 9.3594 ZM85.2217 11.2656 Q85.2217 12.2656 85.6279 12.8281 Q86.0342 13.3906 86.7529 13.3906 Q87.4561 13.3906 87.8701 12.8281 Q88.2842 12.2656 88.2842 11.2656 Q88.2842 10.2812 87.8701 9.7188 Q87.4561 9.1562 86.7529 9.1562 Q86.0342 9.1562 85.6279 9.7188 Q85.2217 10.2812 85.2217 11.2656 ZM94.1943 9.375 Q94.0381 9.2812 93.8662 9.2422 Q93.6943 9.2031 93.4756 9.2031 Q92.71 9.2031 92.3037 9.6953 Q91.8975 10.1875 91.8975 11.125 L91.8975 14 L90.9912 14 L90.9912 8.5312 L91.8975 8.5312 L91.8975 9.375 Q92.1787 8.875 92.6318 8.6406 Q93.085 8.4062 93.7412 8.4062 Q93.835 8.4062 93.9443 8.4141 Q94.0537 8.4219 94.1943 8.4531 L94.1943 9.375 ZM95.1338 8.5312 L96.04 8.5312 L96.04 14 L95.1338 14 L95.1338 8.5312 ZM95.1338 6.4062 L96.04 6.4062 L96.04 7.5469 L95.1338 7.5469 L95.1338 6.4062 ZM100.3965 11.25 Q99.3184 11.25 98.8965 11.5 Q98.4746 11.75 98.4746 12.3438 Q98.4746 12.8281 98.7871 13.1094 Q99.0996 13.3906 99.6465 13.3906 Q100.3965 13.3906 100.8496 12.8594 Q101.3027 12.3281 101.3027 11.4531 L101.3027 11.25 L100.3965 11.25 ZM102.1934 10.875 L102.1934 14 L101.3027 14 L101.3027 13.1719 Q100.9902 13.6719 100.5293 13.9062 Q100.0684 14.1406 99.4121 14.1406 Q98.5684 14.1406 98.0684 13.6719 Q97.5684 13.2031 97.5684 12.4062 Q97.5684 11.4844 98.1934 11.0156 Q98.8184 10.5469 100.0371 10.5469 L101.3027 10.5469 L101.3027 10.4531 Q101.3027 9.8438 100.8887 9.5 Q100.4746 9.1562 99.7402 9.1562 Q99.2715 9.1562 98.8262 9.2734 Q98.3809 9.3906 97.9746 9.6094 L97.9746 8.7812 Q98.4746 8.5938 98.9355 8.5 Q99.3965 8.4062 99.834 8.4062 Q101.0215 8.4062 101.6074 9.0156 Q102.1934 9.625 102.1934 10.875 ZM104.04 6.4062 L104.9463 6.4062 L104.9463 14 L104.04 14 L104.04 6.4062 ZM112.7783 6.4062 L112.7783 7.1562 L111.9189 7.1562 Q111.4346 7.1562 111.2471 7.3516 Q111.0596 7.5469 111.0596 8.0469 L111.0596 8.5312 L112.5283 8.5312 L112.5283 9.2344 L111.0596 9.2344 L111.0596 14 L110.1533 14 L110.1533 9.2344 L109.2939 9.2344 L109.2939 8.5312 L110.1533 8.5312 L110.1533 8.1562 Q110.1533 7.2344 110.5752 6.8203 Q110.9971 6.4062 111.9189 6.4062 L112.7783 6.4062 ZM116.002 11.25 Q114.9238 11.25 114.502 11.5 Q114.0801 11.75 114.0801 12.3438 Q114.0801 12.8281 114.3926 13.1094 Q114.7051 13.3906 115.252 13.3906 Q116.002 13.3906 116.4551 12.8594 Q116.9082 12.3281 116.9082 11.4531 L116.9082 11.25 L116.002 11.25 ZM117.7988 10.875 L117.7988 14 L116.9082 14 L116.9082 13.1719 Q116.5957 13.6719 116.1348 13.9062 Q115.6738 14.1406 115.0176 14.1406 Q114.1738 14.1406 113.6738 13.6719 Q113.1738 13.2031 113.1738 12.4062 Q113.1738 11.4844 113.7988 11.0156 Q114.4238 10.5469 115.6426 10.5469 L116.9082 10.5469 L116.9082 10.4531 Q116.9082 9.8438 116.4941 9.5 Q116.0801 9.1562 115.3457 9.1562 Q114.877 9.1562 114.4316 9.2734 Q113.9863 9.3906 113.5801 9.6094 L113.5801 8.7812 Q114.0801 8.5938 114.541 8.5 Q115.002 8.4062 115.4395 8.4062 Q116.627 8.4062 117.2129 9.0156 Q117.7988 9.625 117.7988 10.875 ZM120.5361 6.9844 L120.5361 8.5312 L122.3955 8.5312 L122.3955 9.2344 L120.5361 9.2344 L120.5361 12.2031 Q120.5361 12.8594 120.7236 13.0547 Q120.9111 13.25 121.4736 13.25 L122.3955 13.25 L122.3955 14 L121.4736 14 Q120.4268 14 120.0283 13.6094 Q119.6299 13.2188 119.6299 12.2031 L119.6299 9.2344 L118.9736 9.2344 L118.9736 8.5312 L119.6299 8.5312 L119.6299 6.9844 L120.5361 6.9844 ZM124.457 6.9844 L124.457 8.5312 L126.3164 8.5312 L126.3164 9.2344 L124.457 9.2344 L124.457 12.2031 Q124.457 12.8594 124.6445 13.0547 Q124.832 13.25 125.3945 13.25 L126.3164 13.25 L126.3164 14 L125.3945 14 Q124.3477 14 123.9492 13.6094 Q123.5508 13.2188 123.5508 12.2031 L123.5508 9.2344 L122.8945 9.2344 L122.8945 8.5312 L123.5508 8.5312 L123.5508 6.9844 L124.457 6.9844 ZM129.7686 14.5156 Q129.3936 15.4844 129.0264 15.7812 Q128.6592 16.0781 128.0654 16.0781 L127.3467 16.0781 L127.3467 15.3281 L127.8623 15.3281 Q128.2373 15.3281 128.4404 15.1562 Q128.6436 14.9844 128.8936 14.3281 L129.0654 13.9062 L126.8467 8.5312 L127.7998 8.5312 L129.5029 12.8125 L131.2217 8.5312 L132.1748 8.5312 L129.7686 14.5156 ZM139.0684 11.25 Q137.9902 11.25 137.5684 11.5 Q137.1465 11.75 137.1465 12.3438 Q137.1465 12.8281 137.459 13.1094 Q137.7715 13.3906 138.3184 13.3906 Q139.0684 13.3906 139.5215 12.8594 Q139.9746 12.3281 139.9746 11.4531 L139.9746 11.25 L139.0684 11.25 ZM140.8652 10.875 L140.8652 14 L139.9746 14 L139.9746 13.1719 Q139.6621 13.6719 139.2012 13.9062 Q138.7402 14.1406 138.084 14.1406 Q137.2402 14.1406 136.7402 13.6719 Q136.2402 13.2031 136.2402 12.4062 Q136.2402 11.4844 136.8652 11.0156 Q137.4902 10.5469 138.709 10.5469 L139.9746 10.5469 L139.9746 10.4531 Q139.9746 9.8438 139.5605 9.5 Q139.1465 9.1562 138.4121 9.1562 Q137.9434 9.1562 137.498 9.2734 Q137.0527 9.3906 136.6465 9.6094 L136.6465 8.7812 Q137.1465 8.5938 137.6074 8.5 Q138.0684 8.4062 138.5059 8.4062 Q139.6934 8.4062 140.2793 9.0156 Q140.8652 9.625 140.8652 10.875 ZM146.6494 8.7344 L146.6494 9.5781 Q146.2744 9.375 145.8916 9.2656 Q145.5088 9.1562 145.1182 9.1562 Q144.2432 9.1562 143.7588 9.7109 Q143.2744 10.2656 143.2744 11.2656 Q143.2744 12.2656 143.7588 12.8203 Q144.2432 13.375 145.1182 13.375 Q145.5088 13.375 145.8916 13.2734 Q146.2744 13.1719 146.6494 12.9531 L146.6494 13.7969 Q146.2744 13.9688 145.876 14.0547 Q145.4775 14.1406 145.0244 14.1406 Q143.7744 14.1406 143.0479 13.3672 Q142.3213 12.5938 142.3213 11.2656 Q142.3213 9.9375 143.0557 9.1719 Q143.79 8.4062 145.0713 8.4062 Q145.4932 8.4062 145.8838 8.4844 Q146.2744 8.5625 146.6494 8.7344 ZM148.21 8.5312 L149.1162 8.5312 L149.1162 14 L148.21 14 L148.21 8.5312 ZM148.21 6.4062 L149.1162 6.4062 L149.1162 7.5469 L148.21 7.5469 L148.21 6.4062 ZM154.5977 9.3594 L154.5977 6.4062 L155.4883 6.4062 L155.4883 14 L154.5977 14 L154.5977 13.1719 Q154.3164 13.6719 153.8789 13.9062 Q153.4414 14.1406 152.832 14.1406 Q151.8477 14.1406 151.2227 13.3516 Q150.5977 12.5625 150.5977 11.2656 Q150.5977 9.9844 151.2227 9.1953 Q151.8477 8.4062 152.832 8.4062 Q153.4414 8.4062 153.8789 8.6406 Q154.3164 8.875 154.5977 9.3594 ZM151.5352 11.2656 Q151.5352 12.2656 151.9414 12.8281 Q152.3477 13.3906 153.0664 13.3906 Q153.7695 13.3906 154.1836 12.8281 Q154.5977 12.2656 154.5977 11.2656 Q154.5977 10.2812 154.1836 9.7188 Q153.7695 9.1562 153.0664 9.1562 Q152.3477 9.1562 151.9414 9.7188 Q151.5352 10.2812 151.5352 11.2656 ZM163.999 8.6875 L163.999 9.5469 Q163.624 9.3438 163.2178 9.25 Q162.8115 9.1562 162.3584 9.1562 Q161.7021 9.1562 161.3662 9.3594 Q161.0303 9.5625 161.0303 9.9688 Q161.0303 10.2812 161.2646 10.4609 Q161.499 10.6406 162.2334 10.7969 L162.5303 10.875 Q163.499 11.0781 163.8975 11.4531 Q164.2959 11.8281 164.2959 12.4844 Q164.2959 13.25 163.6943 13.6953 Q163.0928 14.1406 162.0459 14.1406 Q161.5928 14.1406 161.1162 14.0547 Q160.6396 13.9688 160.124 13.7969 L160.124 12.875 Q160.624 13.125 161.1006 13.2578 Q161.5771 13.3906 162.0615 13.3906 Q162.6865 13.3906 163.0303 13.1719 Q163.374 12.9531 163.374 12.5625 Q163.374 12.1875 163.1318 11.9922 Q162.8896 11.7969 162.0459 11.625 L161.7334 11.5469 Q160.9053 11.375 160.5303 11.0078 Q160.1553 10.6406 160.1553 10.0156 Q160.1553 9.2344 160.7021 8.8203 Q161.249 8.4062 162.2646 8.4062 Q162.749 8.4062 163.1943 8.4766 Q163.6396 8.5469 163.999 8.6875 ZM168.0059 14.5156 Q167.6309 15.4844 167.2637 15.7812 Q166.8965 16.0781 166.3027 16.0781 L165.584 16.0781 L165.584 15.3281 L166.0996 15.3281 Q166.4746 15.3281 166.6777 15.1562 Q166.8809 14.9844 167.1309 14.3281 L167.3027 13.9062 L165.084 8.5312 L166.0371 8.5312 L167.7402 12.8125 L169.459 8.5312 L170.4121 8.5312 L168.0059 14.5156 ZM176.1895 10.7031 L176.1895 14 L175.2988 14 L175.2988 10.7344 Q175.2988 9.9531 174.9941 9.5703 Q174.6895 9.1875 174.0801 9.1875 Q173.3613 9.1875 172.9395 9.6484 Q172.5176 10.1094 172.5176 10.9062 L172.5176 14 L171.6113 14 L171.6113 8.5312 L172.5176 8.5312 L172.5176 9.375 Q172.8457 8.8906 173.2832 8.6484 Q173.7207 8.4062 174.2832 8.4062 Q175.2207 8.4062 175.7051 8.9844 Q176.1895 9.5625 176.1895 10.7031 ZM178.8711 6.9844 L178.8711 8.5312 L180.7305 8.5312 L180.7305 9.2344 L178.8711 9.2344 L178.8711 12.2031 Q178.8711 12.8594 179.0586 13.0547 Q179.2461 13.25 179.8086 13.25 L180.7305 13.25 L180.7305 14 L179.8086 14 Q178.7617 14 178.3633 13.6094 Q177.9648 13.2188 177.9648 12.2031 L177.9648 9.2344 L177.3086 9.2344 L177.3086 8.5312 L177.9648 8.5312 L177.9648 6.9844 L178.8711 6.9844 ZM186.4482 10.7031 L186.4482 14 L185.5576 14 L185.5576 10.7344 Q185.5576 9.9531 185.2529 9.5703 Q184.9482 9.1875 184.3389 9.1875 Q183.6201 9.1875 183.1982 9.6484 Q182.7764 10.1094 182.7764 10.9062 L182.7764 14 L181.8701 14 L181.8701 6.4062 L182.7764 6.4062 L182.7764 9.375 Q183.1045 8.8906 183.542 8.6484 Q183.9795 8.4062 184.542 8.4062 Q185.4795 8.4062 185.9639 8.9844 Q186.4482 9.5625 186.4482 10.7031 ZM192.9268 11.0469 L192.9268 11.4844 L188.7861 11.4844 Q188.8486 12.4062 189.3486 12.8906 Q189.8486 13.375 190.7393 13.375 Q191.2549 13.375 191.7471 13.25 Q192.2393 13.125 192.708 12.875 L192.708 13.7188 Q192.2236 13.9219 191.7158 14.0312 Q191.208 14.1406 190.6924 14.1406 Q189.3799 14.1406 188.6143 13.3828 Q187.8486 12.625 187.8486 11.3125 Q187.8486 9.9688 188.5752 9.1875 Q189.3018 8.4062 190.5361 8.4062 Q191.6455 8.4062 192.2861 9.1094 Q192.9268 9.8125 192.9268 11.0469 ZM192.0205 10.7812 Q192.0205 10.0469 191.6143 9.6016 Q191.208 9.1562 190.5518 9.1562 Q189.7861 9.1562 189.3408 9.5859 Q188.8955 10.0156 188.8174 10.7812 L192.0205 10.7812 ZM197.876 8.6875 L197.876 9.5469 Q197.501 9.3438 197.0947 9.25 Q196.6885 9.1562 196.2354 9.1562 Q195.5791 9.1562 195.2432 9.3594 Q194.9072 9.5625 194.9072 9.9688 Q194.9072 10.2812 195.1416 10.4609 Q195.376 10.6406 196.1104 10.7969 L196.4072 10.875 Q197.376 11.0781 197.7744 11.4531 Q198.1729 11.8281 198.1729 12.4844 Q198.1729 13.25 197.5713 13.6953 Q196.9697 14.1406 195.9229 14.1406 Q195.4697 14.1406 194.9932 14.0547 Q194.5166 13.9688 194.001 13.7969 L194.001 12.875 Q194.501 13.125 194.9775 13.2578 Q195.4541 13.3906 195.9385 13.3906 Q196.5635 13.3906 196.9072 13.1719 Q197.251 12.9531 197.251 12.5625 Q197.251 12.1875 197.0088 11.9922 Q196.7666 11.7969 195.9229 11.625 L195.6104 11.5469 Q194.7822 11.375 194.4072 11.0078 Q194.0322 10.6406 194.0322 10.0156 Q194.0322 9.2344 194.5791 8.8203 Q195.126 8.4062 196.1416 8.4062 Q196.626 8.4062 197.0713 8.4766 Q197.5166 8.5469 197.876 8.6875 ZM199.6016 8.5312 L200.5078 8.5312 L200.5078 14 L199.6016 14 L199.6016 8.5312 ZM199.6016 6.4062 L200.5078 6.4062 L200.5078 7.5469 L199.6016 7.5469 L199.6016 6.4062 ZM205.8643 8.6875 L205.8643 9.5469 Q205.4893 9.3438 205.083 9.25 Q204.6768 9.1562 204.2236 9.1562 Q203.5674 9.1562 203.2314 9.3594 Q202.8955 9.5625 202.8955 9.9688 Q202.8955 10.2812 203.1299 10.4609 Q203.3643 10.6406 204.0986 10.7969 L204.3955 10.875 Q205.3643 11.0781 205.7627 11.4531 Q206.1611 11.8281 206.1611 12.4844 Q206.1611 13.25 205.5596 13.6953 Q204.958 14.1406 203.9111 14.1406 Q203.458 14.1406 202.9814 14.0547 Q202.5049 13.9688 201.9893 13.7969 L201.9893 12.875 Q202.4893 13.125 202.9658 13.2578 Q203.4424 13.3906 203.9268 13.3906 Q204.5518 13.3906 204.8955 13.1719 Q205.2393 12.9531 205.2393 12.5625 Q205.2393 12.1875 204.9971 11.9922 Q204.7549 11.7969 203.9111 11.625 L203.5986 11.5469 Q202.7705 11.375 202.3955 11.0078 Q202.0205 10.6406 202.0205 10.0156 Q202.0205 9.2344 202.5674 8.8203 Q203.1143 8.4062 204.1299 8.4062 Q204.6143 8.4062 205.0596 8.4766 Q205.5049 8.5469 205.8643 8.6875 ZM211.6436 13.1719 L211.6436 16.0781 L210.7373 16.0781 L210.7373 8.5312 L211.6436 8.5312 L211.6436 9.3594 Q211.9248 8.875 212.3545 8.6406 Q212.7842 8.4062 213.3936 8.4062 Q214.3936 8.4062 215.0107 9.1953 Q215.6279 9.9844 215.6279 11.2656 Q215.6279 12.5625 215.0107 13.3516 Q214.3936 14.1406 213.3936 14.1406 Q212.7842 14.1406 212.3545 13.9062 Q211.9248 13.6719 211.6436 13.1719 ZM214.7061 11.2656 Q214.7061 10.2812 214.292 9.7188 Q213.8779 9.1562 213.1748 9.1562 Q212.4561 9.1562 212.0498 9.7188 Q211.6436 10.2812 211.6436 11.2656 Q211.6436 12.2656 212.0498 12.8281 Q212.4561 13.3906 213.1748 13.3906 Q213.8779 13.3906 214.292 12.8281 Q214.7061 12.2656 214.7061 11.2656 ZM219.6006 11.25 Q218.5225 11.25 218.1006 11.5 Q217.6787 11.75 217.6787 12.3438 Q217.6787 12.8281 217.9912 13.1094 Q218.3037 13.3906 218.8506 13.3906 Q219.6006 13.3906 220.0537 12.8594 Q220.5068 12.3281 220.5068 11.4531 L220.5068 11.25 L219.6006 11.25 ZM221.3975 10.875 L221.3975 14 L220.5068 14 L220.5068 13.1719 Q220.1943 13.6719 219.7334 13.9062 Q219.2725 14.1406 218.6162 14.1406 Q217.7725 14.1406 217.2725 13.6719 Q216.7725 13.2031 216.7725 12.4062 Q216.7725 11.4844 217.3975 11.0156 Q218.0225 10.5469 219.2412 10.5469 L220.5068 10.5469 L220.5068 10.4531 Q220.5068 9.8438 220.0928 9.5 Q219.6787 9.1562 218.9443 9.1562 Q218.4756 9.1562 218.0303 9.2734 Q217.585 9.3906 217.1787 9.6094 L217.1787 8.7812 Q217.6787 8.5938 218.1396 8.5 Q218.6006 8.4062 219.0381 8.4062 Q220.2256 8.4062 220.8115 9.0156 Q221.3975 9.625 221.3975 10.875 ZM224.1348 6.9844 L224.1348 8.5312 L225.9941 8.5312 L225.9941 9.2344 L224.1348 9.2344 L224.1348 12.2031 Q224.1348 12.8594 224.3223 13.0547 Q224.5098 13.25 225.0723 13.25 L225.9941 13.25 L225.9941 14 L225.0723 14 Q224.0254 14 223.627 13.6094 Q223.2285 13.2188 223.2285 12.2031 L223.2285 9.2344 L222.5723 9.2344 L222.5723 8.5312 L223.2285 8.5312 L223.2285 6.9844 L224.1348 6.9844 ZM231.7119 10.7031 L231.7119 14 L230.8213 14 L230.8213 10.7344 Q230.8213 9.9531 230.5166 9.5703 Q230.2119 9.1875 229.6025 9.1875 Q228.8838 9.1875 228.4619 9.6484 Q228.04 10.1094 228.04 10.9062 L228.04 14 L227.1338 14 L227.1338 6.4062 L228.04 6.4062 L228.04 9.375 Q228.3682 8.8906 228.8057 8.6484 Q229.2432 8.4062 229.8057 8.4062 Q230.7432 8.4062 231.2275 8.9844 Q231.7119 9.5625 231.7119 10.7031 ZM232.9873 8.5312 L233.8779 8.5312 L235.0029 12.7969 L236.1279 8.5312 L237.1904 8.5312 L238.3154 12.7969 L239.4248 8.5312 L240.3311 8.5312 L238.8936 14 L237.8311 14 L236.6592 9.5156 L235.4717 14 L234.4092 14 L232.9873 8.5312 ZM244.166 11.25 Q243.0879 11.25 242.666 11.5 Q242.2441 11.75 242.2441 12.3438 Q242.2441 12.8281 242.5566 13.1094 Q242.8691 13.3906 243.416 13.3906 Q244.166 13.3906 244.6191 12.8594 Q245.0723 12.3281 245.0723 11.4531 L245.0723 11.25 L244.166 11.25 ZM245.9629 10.875 L245.9629 14 L245.0723 14 L245.0723 13.1719 Q244.7598 13.6719 244.2988 13.9062 Q243.8379 14.1406 243.1816 14.1406 Q242.3379 14.1406 241.8379 13.6719 Q241.3379 13.2031 241.3379 12.4062 Q241.3379 11.4844 241.9629 11.0156 Q242.5879 10.5469 243.8066 10.5469 L245.0723 10.5469 L245.0723 10.4531 Q245.0723 9.8438 244.6582 9.5 Q244.2441 9.1562 243.5098 9.1562 Q243.041 9.1562 242.5957 9.2734 Q242.1504 9.3906 241.7441 9.6094 L241.7441 8.7812 Q242.2441 8.5938 242.7051 8.5 Q243.166 8.4062 243.6035 8.4062 Q244.791 8.4062 245.377 9.0156 Q245.9629 9.625 245.9629 10.875 ZM250.0908 14.5156 Q249.7158 15.4844 249.3486 15.7812 Q248.9814 16.0781 248.3877 16.0781 L247.6689 16.0781 L247.6689 15.3281 L248.1846 15.3281 Q248.5596 15.3281 248.7627 15.1562 Q248.9658 14.9844 249.2158 14.3281 L249.3877 13.9062 L247.1689 8.5312 L248.1221 8.5312 L249.8252 12.8125 L251.5439 8.5312 L252.4971 8.5312 L250.0908 14.5156 Z"
         style="clip-path:url(#clipPath2); stroke:none;"
         clip-path="url(#clipPath2)"
         id="path178" />
      <path
         d="M4.25 21.9375 Q3.3906 21.9375 2.9141 22.5703 Q2.4375 23.2031 2.4375 24.3594 Q2.4375 25.5156 2.9141 26.1484 Q3.3906 26.7812 4.25 26.7812 Q5.1094 26.7812 5.5859 26.1484 Q6.0625 25.5156 6.0625 24.3594 Q6.0625 23.2031 5.5859 22.5703 Q5.1094 21.9375 4.25 21.9375 ZM4.25 20.5781 Q6 20.5781 7 21.5859 Q8 22.5938 8 24.3594 Q8 26.125 7 27.1328 Q6 28.1406 4.25 28.1406 Q2.5 28.1406 1.5 27.1328 Q0.5 26.125 0.5 24.3594 Q0.5 22.5938 1.5 21.5859 Q2.5 20.5781 4.25 20.5781 ZM13.4072 24.0156 Q13.1729 23.9062 12.9463 23.8594 Q12.7197 23.8125 12.4854 23.8125 Q11.8135 23.8125 11.4541 24.2422 Q11.0947 24.6719 11.0947 25.4844 L11.0947 28 L9.3447 28 L9.3447 22.5312 L11.0947 22.5312 L11.0947 23.4219 Q11.4229 22.8906 11.8604 22.6484 Q12.2979 22.4062 12.9072 22.4062 Q13.001 22.4062 13.1025 22.4062 Q13.2041 22.4062 13.3916 22.4375 L13.4072 24.0156 ZM17.9951 27.0781 Q17.6357 27.5469 17.1982 27.7734 Q16.7607 28 16.1982 28 Q15.1982 28 14.542 27.2109 Q13.8857 26.4219 13.8857 25.2031 Q13.8857 23.9688 14.542 23.1875 Q15.1982 22.4062 16.1982 22.4062 Q16.7607 22.4062 17.1982 22.6328 Q17.6357 22.8594 17.9951 23.3438 L17.9951 22.5312 L19.7451 22.5312 L19.7451 27.4531 Q19.7451 28.7656 18.917 29.4609 Q18.0889 30.1562 16.5107 30.1562 Q15.9951 30.1562 15.5186 30.0781 Q15.042 30 14.5576 29.8438 L14.5576 28.4844 Q15.0107 28.75 15.4482 28.875 Q15.8857 29 16.3389 29 Q17.1982 29 17.5967 28.625 Q17.9951 28.25 17.9951 27.4531 L17.9951 27.0781 ZM16.8389 23.6719 Q16.292 23.6719 15.9951 24.0703 Q15.6982 24.4688 15.6982 25.2031 Q15.6982 25.9531 15.9873 26.3438 Q16.2764 26.7344 16.8389 26.7344 Q17.3857 26.7344 17.6904 26.3281 Q17.9951 25.9219 17.9951 25.2031 Q17.9951 24.4688 17.6904 24.0703 Q17.3857 23.6719 16.8389 23.6719 ZM23.8877 25.5312 Q23.3408 25.5312 23.0596 25.7188 Q22.7783 25.9062 22.7783 26.2656 Q22.7783 26.6094 23.0049 26.7969 Q23.2314 26.9844 23.6221 26.9844 Q24.1221 26.9844 24.458 26.625 Q24.7939 26.2656 24.7939 25.7344 L24.7939 25.5312 L23.8877 25.5312 ZM26.5596 24.875 L26.5596 28 L24.7939 28 L24.7939 27.1875 Q24.4346 27.6875 23.9971 27.9141 Q23.5596 28.1406 22.9346 28.1406 Q22.0752 28.1406 21.5518 27.6484 Q21.0283 27.1562 21.0283 26.3594 Q21.0283 25.3906 21.6846 24.9453 Q22.3408 24.5 23.7627 24.5 L24.7939 24.5 L24.7939 24.3594 Q24.7939 23.9531 24.4658 23.7578 Q24.1377 23.5625 23.4502 23.5625 Q22.8877 23.5625 22.4033 23.6719 Q21.9189 23.7812 21.4971 24.0156 L21.4971 22.6719 Q22.0596 22.5469 22.6299 22.4766 Q23.2002 22.4062 23.7627 22.4062 Q25.2471 22.4062 25.9033 22.9844 Q26.5596 23.5625 26.5596 24.875 ZM33.6826 24.6719 L33.6826 28 L31.917 28 L31.917 27.4531 L31.917 25.4531 Q31.917 24.75 31.8857 24.4766 Q31.8545 24.2031 31.7764 24.0781 Q31.6826 23.9062 31.5029 23.8125 Q31.3232 23.7188 31.1045 23.7188 Q30.5576 23.7188 30.2451 24.1406 Q29.9326 24.5625 29.9326 25.3125 L29.9326 28 L28.1826 28 L28.1826 22.5312 L29.9326 22.5312 L29.9326 23.3281 Q30.3232 22.8594 30.7686 22.6328 Q31.2139 22.4062 31.7451 22.4062 Q32.6982 22.4062 33.1904 22.9844 Q33.6826 23.5625 33.6826 24.6719 ZM35.3018 22.5312 L37.0518 22.5312 L37.0518 28 L35.3018 28 L35.3018 22.5312 ZM35.3018 20.4062 L37.0518 20.4062 L37.0518 21.8281 L35.3018 21.8281 L35.3018 20.4062 ZM42.9951 22.7031 L42.9951 24.0312 Q42.4326 23.7969 41.9092 23.6797 Q41.3857 23.5625 40.9326 23.5625 Q40.4326 23.5625 40.1904 23.6875 Q39.9482 23.8125 39.9482 24.0625 Q39.9482 24.2812 40.1279 24.3906 Q40.3076 24.5 40.792 24.5625 L41.0889 24.5938 Q42.4326 24.7656 42.9014 25.1562 Q43.3701 25.5469 43.3701 26.3906 Q43.3701 27.2656 42.7217 27.7031 Q42.0732 28.1406 40.792 28.1406 Q40.2607 28.1406 39.6826 28.0547 Q39.1045 27.9688 38.4795 27.7969 L38.4795 26.4688 Q39.0107 26.7188 39.5576 26.8516 Q40.1045 26.9844 40.667 26.9844 Q41.1826 26.9844 41.4404 26.8438 Q41.6982 26.7031 41.6982 26.4219 Q41.6982 26.1875 41.5264 26.0703 Q41.3545 25.9531 40.8232 25.8906 L40.5107 25.8438 Q39.3389 25.7031 38.8701 25.3047 Q38.4014 24.9062 38.4014 24.1094 Q38.4014 23.2344 38.9951 22.8203 Q39.5889 22.4062 40.8232 22.4062 Q41.3076 22.4062 41.8389 22.4766 Q42.3701 22.5469 42.9951 22.7031 ZM49.7441 23.4375 Q50.0723 22.9375 50.5332 22.6719 Q50.9941 22.4062 51.541 22.4062 Q52.4785 22.4062 52.9707 22.9844 Q53.4629 23.5625 53.4629 24.6719 L53.4629 28 L51.7129 28 L51.7129 25.1406 Q51.7129 25.0781 51.7129 25.0156 Q51.7129 24.9531 51.7129 24.8281 Q51.7129 24.2344 51.5488 23.9766 Q51.3848 23.7188 50.9941 23.7188 Q50.4941 23.7188 50.2285 24.125 Q49.9629 24.5312 49.9473 25.3125 L49.9473 28 L48.1816 28 L48.1816 25.1406 Q48.1816 24.2344 48.0254 23.9766 Q47.8691 23.7188 47.4785 23.7188 Q46.9785 23.7188 46.7051 24.1328 Q46.4316 24.5469 46.4316 25.3125 L46.4316 28 L44.666 28 L44.666 22.5312 L46.4316 22.5312 L46.4316 23.3281 Q46.7441 22.875 47.166 22.6406 Q47.5879 22.4062 48.0879 22.4062 Q48.6504 22.4062 49.0879 22.6797 Q49.5254 22.9531 49.7441 23.4375 ZM55.3828 22.5312 L57.1328 22.5312 L57.1328 24.4219 L55.3828 24.4219 L55.3828 22.5312 ZM55.3828 26.1094 L57.1328 26.1094 L57.1328 28 L55.3828 28 L55.3828 26.1094 Z"
         style="clip-path:url(#clipPath2); stroke:none;"
         clip-path="url(#clipPath2)"
         id="path180" />
      <path
         d="M66.9844 20.7031 L67.9688 20.7031 L67.9688 23.7031 L71.5469 23.7031 L71.5469 20.7031 L72.5312 20.7031 L72.5312 28 L71.5469 28 L71.5469 24.5312 L67.9688 24.5312 L67.9688 28 L66.9844 28 L66.9844 20.7031 ZM76.582 23.1562 Q75.8633 23.1562 75.4414 23.7188 Q75.0195 24.2812 75.0195 25.2656 Q75.0195 26.25 75.4336 26.8125 Q75.8477 27.375 76.582 27.375 Q77.3008 27.375 77.7227 26.8125 Q78.1445 26.25 78.1445 25.2656 Q78.1445 24.2969 77.7227 23.7266 Q77.3008 23.1562 76.582 23.1562 ZM76.582 22.4062 Q77.7539 22.4062 78.4258 23.1641 Q79.0977 23.9219 79.0977 25.2656 Q79.0977 26.6094 78.4258 27.375 Q77.7539 28.1406 76.582 28.1406 Q75.4102 28.1406 74.7383 27.375 Q74.0664 26.6094 74.0664 25.2656 Q74.0664 23.9219 74.7383 23.1641 Q75.4102 22.4062 76.582 22.4062 ZM84.8408 23.5781 Q85.1689 22.9688 85.6377 22.6875 Q86.1064 22.4062 86.7471 22.4062 Q87.6064 22.4062 88.0674 23 Q88.5283 23.5938 88.5283 24.7031 L88.5283 28 L87.6221 28 L87.6221 24.7344 Q87.6221 23.9375 87.3486 23.5625 Q87.0752 23.1875 86.4971 23.1875 Q85.7939 23.1875 85.3955 23.6484 Q84.9971 24.1094 84.9971 24.9062 L84.9971 28 L84.0908 28 L84.0908 24.7344 Q84.0908 23.9375 83.8096 23.5625 Q83.5283 23.1875 82.9502 23.1875 Q82.2627 23.1875 81.8564 23.6484 Q81.4502 24.1094 81.4502 24.9062 L81.4502 28 L80.5439 28 L80.5439 22.5312 L81.4502 22.5312 L81.4502 23.375 Q81.7627 22.875 82.1924 22.6406 Q82.6221 22.4062 83.2002 22.4062 Q83.8096 22.4062 84.2236 22.7031 Q84.6377 23 84.8408 23.5781 ZM92.4414 23.1562 Q91.7227 23.1562 91.3008 23.7188 Q90.8789 24.2812 90.8789 25.2656 Q90.8789 26.25 91.293 26.8125 Q91.707 27.375 92.4414 27.375 Q93.1602 27.375 93.582 26.8125 Q94.0039 26.25 94.0039 25.2656 Q94.0039 24.2969 93.582 23.7266 Q93.1602 23.1562 92.4414 23.1562 ZM92.4414 22.4062 Q93.6133 22.4062 94.2852 23.1641 Q94.957 23.9219 94.957 25.2656 Q94.957 26.6094 94.2852 27.375 Q93.6133 28.1406 92.4414 28.1406 Q91.2695 28.1406 90.5977 27.375 Q89.9258 26.6094 89.9258 25.2656 Q89.9258 23.9219 90.5977 23.1641 Q91.2695 22.4062 92.4414 22.4062 ZM103.0977 22.6875 L103.0977 23.5469 Q102.7227 23.3438 102.3164 23.25 Q101.9102 23.1562 101.457 23.1562 Q100.8008 23.1562 100.4648 23.3594 Q100.1289 23.5625 100.1289 23.9688 Q100.1289 24.2812 100.3633 24.4609 Q100.5977 24.6406 101.332 24.7969 L101.6289 24.875 Q102.5977 25.0781 102.9961 25.4531 Q103.3945 25.8281 103.3945 26.4844 Q103.3945 27.25 102.793 27.6953 Q102.1914 28.1406 101.1445 28.1406 Q100.6914 28.1406 100.2148 28.0547 Q99.7383 27.9688 99.2227 27.7969 L99.2227 26.875 Q99.7227 27.125 100.1992 27.2578 Q100.6758 27.3906 101.1602 27.3906 Q101.7852 27.3906 102.1289 27.1719 Q102.4727 26.9531 102.4727 26.5625 Q102.4727 26.1875 102.2305 25.9922 Q101.9883 25.7969 101.1445 25.625 L100.832 25.5469 Q100.0039 25.375 99.6289 25.0078 Q99.2539 24.6406 99.2539 24.0156 Q99.2539 23.2344 99.8008 22.8203 Q100.3477 22.4062 101.3633 22.4062 Q101.8477 22.4062 102.293 22.4766 Q102.7383 22.5469 103.0977 22.6875 ZM107.3076 25.25 Q106.2295 25.25 105.8076 25.5 Q105.3857 25.75 105.3857 26.3438 Q105.3857 26.8281 105.6982 27.1094 Q106.0107 27.3906 106.5576 27.3906 Q107.3076 27.3906 107.7607 26.8594 Q108.2139 26.3281 108.2139 25.4531 L108.2139 25.25 L107.3076 25.25 ZM109.1045 24.875 L109.1045 28 L108.2139 28 L108.2139 27.1719 Q107.9014 27.6719 107.4404 27.9062 Q106.9795 28.1406 106.3232 28.1406 Q105.4795 28.1406 104.9795 27.6719 Q104.4795 27.2031 104.4795 26.4062 Q104.4795 25.4844 105.1045 25.0156 Q105.7295 24.5469 106.9482 24.5469 L108.2139 24.5469 L108.2139 24.4531 Q108.2139 23.8438 107.7998 23.5 Q107.3857 23.1562 106.6514 23.1562 Q106.1826 23.1562 105.7373 23.2734 Q105.292 23.3906 104.8857 23.6094 L104.8857 22.7812 Q105.3857 22.5938 105.8467 22.5 Q106.3076 22.4062 106.7451 22.4062 Q107.9326 22.4062 108.5186 23.0156 Q109.1045 23.625 109.1045 24.875 ZM111.8262 27.1719 L111.8262 30.0781 L110.9199 30.0781 L110.9199 22.5312 L111.8262 22.5312 L111.8262 23.3594 Q112.1074 22.875 112.5371 22.6406 Q112.9668 22.4062 113.5762 22.4062 Q114.5762 22.4062 115.1934 23.1953 Q115.8105 23.9844 115.8105 25.2656 Q115.8105 26.5625 115.1934 27.3516 Q114.5762 28.1406 113.5762 28.1406 Q112.9668 28.1406 112.5371 27.9062 Q112.1074 27.6719 111.8262 27.1719 ZM114.8887 25.2656 Q114.8887 24.2812 114.4746 23.7188 Q114.0605 23.1562 113.3574 23.1562 Q112.6387 23.1562 112.2324 23.7188 Q111.8262 24.2812 111.8262 25.2656 Q111.8262 26.2656 112.2324 26.8281 Q112.6387 27.3906 113.3574 27.3906 Q114.0605 27.3906 114.4746 26.8281 Q114.8887 26.2656 114.8887 25.2656 ZM117.2988 22.5312 L118.2051 22.5312 L118.2051 28 L117.2988 28 L117.2988 22.5312 ZM117.2988 20.4062 L118.2051 20.4062 L118.2051 21.5469 L117.2988 21.5469 L117.2988 20.4062 ZM124.7646 25.0469 L124.7646 25.4844 L120.624 25.4844 Q120.6865 26.4062 121.1865 26.8906 Q121.6865 27.375 122.5771 27.375 Q123.0928 27.375 123.585 27.25 Q124.0771 27.125 124.5459 26.875 L124.5459 27.7188 Q124.0615 27.9219 123.5537 28.0312 Q123.0459 28.1406 122.5303 28.1406 Q121.2178 28.1406 120.4521 27.3828 Q119.6865 26.625 119.6865 25.3125 Q119.6865 23.9688 120.4131 23.1875 Q121.1396 22.4062 122.374 22.4062 Q123.4834 22.4062 124.124 23.1094 Q124.7646 23.8125 124.7646 25.0469 ZM123.8584 24.7812 Q123.8584 24.0469 123.4521 23.6016 Q123.0459 23.1562 122.3896 23.1562 Q121.624 23.1562 121.1787 23.5859 Q120.7334 24.0156 120.6553 24.7812 L123.8584 24.7812 ZM130.7764 24.7031 L130.7764 28 L129.8857 28 L129.8857 24.7344 Q129.8857 23.9531 129.5811 23.5703 Q129.2764 23.1875 128.667 23.1875 Q127.9482 23.1875 127.5264 23.6484 Q127.1045 24.1094 127.1045 24.9062 L127.1045 28 L126.1982 28 L126.1982 22.5312 L127.1045 22.5312 L127.1045 23.375 Q127.4326 22.8906 127.8701 22.6484 Q128.3076 22.4062 128.8701 22.4062 Q129.8076 22.4062 130.292 22.9844 Q130.7764 23.5625 130.7764 24.7031 ZM136.0518 22.6875 L136.0518 23.5469 Q135.6768 23.3438 135.2705 23.25 Q134.8643 23.1562 134.4111 23.1562 Q133.7549 23.1562 133.4189 23.3594 Q133.083 23.5625 133.083 23.9688 Q133.083 24.2812 133.3174 24.4609 Q133.5518 24.6406 134.2861 24.7969 L134.583 24.875 Q135.5518 25.0781 135.9502 25.4531 Q136.3486 25.8281 136.3486 26.4844 Q136.3486 27.25 135.7471 27.6953 Q135.1455 28.1406 134.0986 28.1406 Q133.6455 28.1406 133.1689 28.0547 Q132.6924 27.9688 132.1768 27.7969 L132.1768 26.875 Q132.6768 27.125 133.1533 27.2578 Q133.6299 27.3906 134.1143 27.3906 Q134.7393 27.3906 135.083 27.1719 Q135.4268 26.9531 135.4268 26.5625 Q135.4268 26.1875 135.1846 25.9922 Q134.9424 25.7969 134.0986 25.625 L133.7861 25.5469 Q132.958 25.375 132.583 25.0078 Q132.208 24.6406 132.208 24.0156 Q132.208 23.2344 132.7549 22.8203 Q133.3018 22.4062 134.3174 22.4062 Q134.8018 22.4062 135.2471 22.4766 Q135.6924 22.5469 136.0518 22.6875 Z"
         style="clip-path:url(#clipPath2); stroke:none;"
         clip-path="url(#clipPath2)"
         id="path182" />
    </g>
    <g
       style="fill:navy; text-rendering:geometricPrecision; font-size:8; stroke:navy;"
       id="g188">
      <text
         x="258"
         xml:space="preserve"
         y="16"
         style="clip-path:url(#clipPath4); stroke:none;"
         clip-path="url(#clipPath4)"
         id="text186">7</text>
    </g>
    <g
       style="text-rendering:geometricPrecision;"
       id="g196">
      <path
         d="M508.943 202.7329 L534.353 202.5042"
         style="fill:none; clip-path:url(#clipPath5);"
         clip-path="url(#clipPath5)"
         id="path190" />
      <path
         d="M544.7526 202.4106 C544.7784 205.2823 542.4714 207.6313 539.5996 207.6572 C536.7278 207.683 534.3788 205.3759 534.353 202.5042 C534.3271 199.6324 536.6342 197.2834 539.506 197.2576 C542.3777 197.2317 544.7267 199.5388 544.7526 202.4106 Z"
         style="fill:white; clip-path:url(#clipPath5); stroke:none;"
         clip-path="url(#clipPath5)"
         id="path192" />
      <path
         d="M544.7526 202.4106 C544.7784 205.2823 542.4714 207.6313 539.5996 207.6572 C536.7278 207.683 534.3788 205.3759 534.353 202.5042 C534.3271 199.6324 536.6342 197.2834 539.506 197.2576 C542.3777 197.2317 544.7267 199.5388 544.7526 202.4106 Z"
         style="fill:none; clip-path:url(#clipPath5);"
         clip-path="url(#clipPath5)"
         id="path194" />
    </g>
    <g
       style="text-rendering:geometricPrecision;"
       id="g202">
      <path
         d="M450.0392 793.9514 L582.3432 855.3464"
         style="fill:none; clip-path:url(#clipPath6);"
         clip-path="url(#clipPath6)"
         id="path198" />
      <path
         d="M582.3432 855.3464 L573.9191 845.7047 L569.5414 855.1384 Z"
         style="clip-path:url(#clipPath6); fill-rule:evenodd; stroke:none;"
         clip-path="url(#clipPath6)"
         id="path200" />
    </g>
    <g
       style="text-rendering:geometricPrecision;"
       id="g210">
      <path
         d="M405.8121 718.8574 L440.0457 720.0905"
         style="fill:none; clip-path:url(#clipPath7);"
         clip-path="url(#clipPath7)"
         id="path204" />
      <path
         d="M450.4389 720.4648 C450.3356 723.3348 447.9251 725.5776 445.0551 725.4743 C442.1851 725.3709 439.9423 722.9605 440.0457 720.0905 C440.149 717.2205 442.5595 714.9777 445.4295 715.081 C448.2995 715.1844 450.5423 717.5948 450.4389 720.4648 Z"
         style="fill:white; clip-path:url(#clipPath7); stroke:none;"
         clip-path="url(#clipPath7)"
         id="path206" />
      <path
         d="M450.4389 720.4648 C450.3356 723.3348 447.9251 725.5776 445.0551 725.4743 C442.1851 725.3709 439.9423 722.9605 440.0457 720.0905 C440.149 717.2205 442.5595 714.9777 445.4295 715.081 C448.2995 715.1844 450.5423 717.5948 450.4389 720.4648 Z"
         style="fill:none; clip-path:url(#clipPath7);"
         clip-path="url(#clipPath7)"
         id="path208" />
    </g>
    <g
       style="text-rendering:geometricPrecision;"
       id="g216">
      <path
         d="M450.0392 793.9514 L373.1664 856.3087"
         style="fill:none; clip-path:url(#clipPath8);"
         clip-path="url(#clipPath8)"
         id="path212" />
      <path
         d="M373.1664 856.3087 L385.5287 852.9764 L378.977 844.8996 Z"
         style="clip-path:url(#clipPath8); fill-rule:evenodd; stroke:none;"
         clip-path="url(#clipPath8)"
         id="path214" />
    </g>
    <g
       style="text-rendering:geometricPrecision;"
       id="g222">
      <path
         d="M450.0392 612.5739 L486.4785 635.4039"
         style="fill:none; clip-path:url(#clipPath9);"
         clip-path="url(#clipPath9)"
         id="path218" />
      <path
         d="M486.4785 635.4039 L479.3246 624.7855 L473.8029 633.5986 Z"
         style="clip-path:url(#clipPath9); fill-rule:evenodd; stroke:none;"
         clip-path="url(#clipPath9)"
         id="path220" />
    </g>
    <g
       style="text-rendering:geometricPrecision;"
       id="g228">
      <path
         d="M450.0392 468.1277 L450.0392 541.2947"
         style="fill:none; clip-path:url(#clipPath10);"
         clip-path="url(#clipPath10)"
         id="path224" />
      <path
         d="M450.0392 541.2947 L455.2392 529.5947 L444.8392 529.5947 Z"
         style="clip-path:url(#clipPath10); fill-rule:evenodd; stroke:none;"
         clip-path="url(#clipPath10)"
         id="path226" />
    </g>
    <g
       style="text-rendering:geometricPrecision;"
       id="g236">
      <path
         d="M402.2859 497.8324 L440.0817 501.3282"
         style="fill:none; clip-path:url(#clipPath11);"
         clip-path="url(#clipPath11)"
         id="path230" />
      <path
         d="M450.4375 502.2861 C450.173 505.1458 447.6404 507.2495 444.7807 506.985 C441.921 506.7206 439.8172 504.1879 440.0817 501.3282 C440.3462 498.4685 442.8788 496.3647 445.7385 496.6292 C448.5982 496.8937 450.702 499.4264 450.4375 502.2861 Z"
         style="fill:white; clip-path:url(#clipPath11); stroke:none;"
         clip-path="url(#clipPath11)"
         id="path232" />
      <path
         d="M450.4375 502.2861 C450.173 505.1458 447.6404 507.2495 444.7807 506.985 C441.921 506.7206 439.8172 504.1879 440.0817 501.3282 C440.3462 498.4685 442.8788 496.3647 445.7385 496.6292 C448.5982 496.8937 450.702 499.4264 450.4375 502.2861 Z"
         style="fill:none; clip-path:url(#clipPath11);"
         clip-path="url(#clipPath11)"
         id="path234" />
    </g>
    <g
       style="text-rendering:geometricPrecision;"
       id="g242">
      <path
         d="M345.2759 375.7709 L450.0392 443.1277"
         style="fill:none; clip-path:url(#clipPath12);"
         clip-path="url(#clipPath12)"
         id="path238" />
      <path
         d="M450.0392 443.1277 L443.01 432.4263 L437.3856 441.1742 Z"
         style="clip-path:url(#clipPath12); fill-rule:evenodd; stroke:none;"
         clip-path="url(#clipPath12)"
         id="path240" />
    </g>
    <g
       style="stroke-dasharray:4,4; text-rendering:geometricPrecision;"
       id="g248">
      <path
         d="M405.0392 781.4514 L272.6213 781.4514 M272.6213 781.4514 L272.6213 388.2709"
         style="fill:none; clip-path:url(#clipPath13);"
         clip-path="url(#clipPath13)"
         id="path244" />
      <path
         d="M272.6213 388.2709 L267.4213 399.9709 L277.8213 399.9709 Z"
         style="stroke-dasharray:none; clip-path:url(#clipPath13); fill-rule:evenodd; stroke:none;"
         clip-path="url(#clipPath13)"
         id="path246" />
    </g>
    <g
       style="text-rendering:geometricPrecision;"
       id="g254">
      <path
         d="M491.2537 407.969 L522.9579 415.7313"
         style="fill:none; clip-path:url(#clipPath14);"
         clip-path="url(#clipPath14)"
         id="path250" />
      <path
         d="M522.9579 415.7313 L512.8302 407.8981 L510.357 417.9997 Z"
         style="clip-path:url(#clipPath14); fill-rule:evenodd; stroke:none;"
         clip-path="url(#clipPath14)"
         id="path252" />
    </g>
    <g
       style="text-rendering:geometricPrecision;"
       id="g260">
      <path
         d="M510.1665 484.9009 L450.0392 486.4096"
         style="fill:none; clip-path:url(#clipPath15);"
         clip-path="url(#clipPath15)"
         id="path256" />
      <path
         d="M450.0392 486.4096 L461.866 491.3145 L461.6051 480.9178 Z"
         style="clip-path:url(#clipPath15); fill-rule:evenodd; stroke:none;"
         clip-path="url(#clipPath15)"
         id="path258" />
    </g>
    <g
       style="text-rendering:geometricPrecision;"
       id="g266">
      <path
         d="M544.3526 162.9762 L544.3526 241.2981"
         style="fill:none; clip-path:url(#clipPath16);"
         clip-path="url(#clipPath16)"
         id="path262" />
      <path
         d="M544.3526 241.2981 L549.5526 229.5981 L539.1526 229.5981 Z"
         style="clip-path:url(#clipPath16); fill-rule:evenodd; stroke:none;"
         clip-path="url(#clipPath16)"
         id="path264" />
    </g>
    <g
       style="text-rendering:geometricPrecision;"
       id="g274">
      <path
         d="M507.123 294.1552 L534.3544 294.6618"
         style="fill:none; clip-path:url(#clipPath17);"
         clip-path="url(#clipPath17)"
         id="path268" />
      <path
         d="M544.7526 294.8552 C544.6992 297.7266 542.3281 300.011 539.4567 299.9576 C536.5853 299.9041 534.301 297.5331 534.3544 294.6618 C534.4078 291.7904 536.7787 289.506 539.6501 289.5594 C542.5215 289.6128 544.806 291.9838 544.7526 294.8552 Z"
         style="fill:white; clip-path:url(#clipPath17); stroke:none;"
         clip-path="url(#clipPath17)"
         id="path270" />
      <path
         d="M544.7526 294.8552 C544.6992 297.7266 542.3281 300.011 539.4567 299.9576 C536.5853 299.9041 534.301 297.5331 534.3544 294.6618 C534.4078 291.7904 536.7787 289.506 539.6501 289.5594 C542.5215 289.6128 544.806 291.9838 544.7526 294.8552 Z"
         style="fill:none; clip-path:url(#clipPath17);"
         clip-path="url(#clipPath17)"
         id="path272" />
    </g>
    <g
       style="text-rendering:geometricPrecision;"
       id="g280">
      <path
         d="M544.3526 362.6722 L450.0392 443.1277"
         style="fill:none; clip-path:url(#clipPath18);"
         clip-path="url(#clipPath18)"
         id="path276" />
      <path
         d="M450.0392 443.1277 L462.3152 439.4905 L455.5656 431.5783 Z"
         style="clip-path:url(#clipPath18); fill-rule:evenodd; stroke:none;"
         clip-path="url(#clipPath18)"
         id="path278" />
    </g>
    <g
       style="text-rendering:geometricPrecision;"
       id="g288">
      <path
         d="M396.5778 370.7642 L390.0028 393.1199"
         style="fill:none; clip-path:url(#clipPath19);"
         clip-path="url(#clipPath19)"
         id="path282" />
      <path
         d="M387.0684 403.0974 C384.3131 402.287 382.7365 399.3966 383.5468 396.6414 C384.3572 393.8862 387.2476 392.3096 390.0028 393.1199 C392.758 393.9303 394.3346 396.8207 393.5243 399.5759 C392.714 402.3311 389.8235 403.9077 387.0684 403.0974 Z"
         style="fill:white; clip-path:url(#clipPath19); stroke:none;"
         clip-path="url(#clipPath19)"
         id="path284" />
      <path
         d="M387.0684 403.0974 C384.3131 402.287 382.7365 399.3966 383.5468 396.6414 C384.3572 393.8862 387.2476 392.3096 390.0028 393.1199 C392.758 393.9303 394.3346 396.8207 393.5243 399.5759 C392.714 402.3311 389.8235 403.9077 387.0684 403.0974 Z"
         style="fill:none; clip-path:url(#clipPath19);"
         clip-path="url(#clipPath19)"
         id="path286" />
    </g>
    <g
       style="text-rendering:geometricPrecision;"
       id="g294">
      <path
         d="M586.0657 173.046 L544.3526 177.1039"
         style="fill:none; clip-path:url(#clipPath20);"
         clip-path="url(#clipPath20)"
         id="path290" />
      <path
         d="M544.3526 177.1039 L556.5012 181.1467 L555.4941 170.7955 Z"
         style="clip-path:url(#clipPath20); fill-rule:evenodd; stroke:none;"
         clip-path="url(#clipPath20)"
         id="path292" />
    </g>
    <g
       style="text-rendering:geometricPrecision;"
       id="g300">
      <path
         d="M544.3526 266.2981 L544.3526 337.6722"
         style="fill:none; clip-path:url(#clipPath21);"
         clip-path="url(#clipPath21)"
         id="path296" />
      <path
         d="M544.3526 337.6722 L549.5526 325.9722 L539.1526 325.9722 Z"
         style="clip-path:url(#clipPath21); fill-rule:evenodd; stroke:none;"
         clip-path="url(#clipPath21)"
         id="path298" />
    </g>
    <g
       style="text-rendering:geometricPrecision;"
       id="g308">
      <path
         d="M476.5778 370.7642 L497.4182 389.673"
         style="fill:none; clip-path:url(#clipPath22);"
         clip-path="url(#clipPath22)"
         id="path302" />
      <path
         d="M505.1204 396.6613 C503.1906 398.7882 499.902 398.9481 497.7751 397.0183 C495.6482 395.0885 495.4884 391.7999 497.4182 389.673 C499.348 387.5461 502.6365 387.3863 504.7634 389.3161 C506.8903 391.2459 507.0501 394.5345 505.1204 396.6613 Z"
         style="fill:white; clip-path:url(#clipPath22); stroke:none;"
         clip-path="url(#clipPath22)"
         id="path304" />
      <path
         d="M505.1204 396.6613 C503.1906 398.7882 499.902 398.9481 497.7751 397.0183 C495.6482 395.0885 495.4884 391.7999 497.4182 389.673 C499.348 387.5461 502.6365 387.3863 504.7634 389.3161 C506.8903 391.2459 507.0501 394.5345 505.1204 396.6613 Z"
         style="fill:none; clip-path:url(#clipPath22);"
         clip-path="url(#clipPath22)"
         id="path306" />
    </g>
    <g
       style="text-rendering:geometricPrecision;"
       id="g316">
      <path
         d="M405.8121 607.6508 L440.4645 597.2088"
         style="fill:none; clip-path:url(#clipPath23);"
         clip-path="url(#clipPath23)"
         id="path310" />
      <path
         d="M450.4222 594.2081 C451.2508 596.9579 449.6934 599.8587 446.9436 600.6873 C444.1939 601.5159 441.2931 599.9586 440.4645 597.2088 C439.6359 594.459 441.1933 591.5582 443.943 590.7296 C446.6927 589.901 449.5936 591.4584 450.4222 594.2081 Z"
         style="fill:white; clip-path:url(#clipPath23); stroke:none;"
         clip-path="url(#clipPath23)"
         id="path312" />
      <path
         d="M450.4222 594.2081 C451.2508 596.9579 449.6934 599.8587 446.9436 600.6873 C444.1939 601.5159 441.2931 599.9586 440.4645 597.2088 C439.6359 594.459 441.1933 591.5582 443.943 590.7296 C446.6927 589.901 449.5936 591.4584 450.4222 594.2081 Z"
         style="fill:none; clip-path:url(#clipPath23);"
         clip-path="url(#clipPath23)"
         id="path314" />
    </g>
    <g
       style="text-rendering:geometricPrecision;"
       id="g322">
      <path
         d="M450.0392 518.3549 L489.87 518.5821"
         style="fill:none; clip-path:url(#clipPath24);"
         clip-path="url(#clipPath24)"
         id="path318" />
      <path
         d="M489.87 518.5821 L478.1999 513.3154 L478.1405 523.7153 Z"
         style="clip-path:url(#clipPath24); fill-rule:evenodd; stroke:none;"
         clip-path="url(#clipPath24)"
         id="path320" />
    </g>
    <g
       style="fill:silver; text-rendering:geometricPrecision; stroke:silver;"
       id="g326">
      <path
         d="M902.4552 553.6331 L902.4552 553.6331 L902.4552 553.6331 L903.9552 553.6331 L903.9552 555.1331 C903.9552 803.5148 716.1614 1005.4162 483.8542 1005.4162 L482.3541 1005.4162 L482.3542 1003.9162 L482.3542 1000.9162 L483.8542 1000.9162 L485.3542 1000.9162 L485.3542 1003.9162 L485.3542 1005.4162 L483.8542 1005.4162 C251.5467 1005.4162 63.7531 803.5148 63.7531 555.1331 L63.7531 553.6331 L65.2531 553.6331 L68.2531 553.6331 L68.2531 555.1331 L68.2531 556.6331 L65.2531 556.6331 L63.7531 556.6331 L63.7531 555.1331 C63.7531 306.7512 251.5466 104.8499 483.8542 104.8499 L485.3542 104.8499 L485.3542 106.3499 L485.3542 109.3499 L483.8542 109.3499 L482.3542 109.3499 L482.3542 106.3499 L482.3542 104.8499 L483.8542 104.8499 C716.1616 104.8499 903.9552 306.7512 903.9552 555.1331 L903.9552 556.6331 L902.4552 556.6331 L899.4552 556.6331 L899.4552 555.1331 L899.4552 553.6331 L902.4552 553.6331 L903.9552 553.6331 L903.9552 556.6331 L902.4552 556.6331 L899.4552 556.6331 L899.4552 553.6331 L902.4552 553.6331 L902.4552 555.1331 L900.9552 555.1331 C900.9552 308.2061 714.3098 107.8499 483.8542 107.8499 L483.8542 106.3499 L485.3542 106.3499 L485.3542 109.3499 L482.3542 109.3499 L482.3542 106.3499 L483.8542 106.3499 L483.8542 107.8499 C253.3985 107.8499 66.7531 308.2061 66.7531 555.1331 L65.2531 555.1331 L65.2531 553.6331 L68.2531 553.6331 L68.2531 556.6331 L65.2531 556.6331 L65.2531 555.1331 L66.7531 555.1331 C66.7531 802.0599 253.3986 1002.4162 483.8542 1002.4162 L483.8542 1003.9162 L482.3542 1003.9162 L482.3542 1000.9162 L485.3542 1000.9162 L485.3542 1003.9162 L483.8542 1003.9162 L483.8542 1002.4162 C714.3095 1002.4162 900.9552 802.0599 900.9552 555.1331 L902.4552 555.1331 L902.4552 556.6331 L902.4552 556.6331 L900.9552 556.6331 L900.9552 553.6331 ZM896.4552 553.6331 L896.4552 553.6331 L896.4552 553.6331 L896.4552 555.1331 L894.9552 555.1331 C894.9552 311.117 710.6072 113.8499 483.8542 113.8499 L483.8542 112.3499 L483.8542 110.8499 L483.8542 110.8499 L483.8542 112.3499 L483.8542 113.8499 C257.1011 113.8499 72.7531 311.117 72.7531 555.1331 L71.2531 555.1331 L71.2531 553.6331 L71.2531 553.6331 L72.7531 553.6331 L72.7531 555.1331 C72.7531 799.149 257.1011 996.4162 483.8542 996.4162 L483.8542 997.9162 L483.8542 996.4162 L483.8542 996.4162 L483.8542 997.9162 L483.8542 996.4162 C710.6071 996.4162 894.9552 799.149 894.9552 555.1331 L894.9552 553.6331 L896.4552 553.6331 M896.4552 556.6331 L896.4552 555.1331 L897.9552 555.1331 C897.9552 800.6048 712.4581 999.4162 483.8542 999.4162 L483.8542 999.4162 L483.8542 999.4162 L483.8542 999.4162 C255.25 999.4162 69.7531 800.6048 69.7531 555.1331 L71.2531 555.1331 L71.2531 556.6331 L71.2531 556.6331 L69.7531 556.6331 L69.7531 555.1331 C69.7531 309.6613 255.25 110.8499 483.8542 110.8499 L483.8542 113.8499 L483.8542 113.8499 L483.8542 110.8499 C712.4583 110.8499 897.9552 309.6613 897.9552 555.1331 L897.9552 556.6331 L896.4552 556.6331 L896.4552 556.6331 Z"
         style="clip-path:url(#clipPath25); stroke:none;"
         clip-path="url(#clipPath25)"
         id="path324" />
    </g>
    <g
       style="fill:white; text-rendering:geometricPrecision; stroke:white;"
       id="g334">
      <path
         d="M325.8121 708.8574 L405.8121 708.8574 L405.8121 728.8574 L325.8121 728.8574 L325.8121 708.8574 Z"
         style="clip-path:url(#clipPath26); stroke:none;"
         clip-path="url(#clipPath26)"
         id="path328" />
      <path
         d="M325.8121 708.8574 L405.8121 708.8574 L405.8121 728.8574 L325.8121 728.8574 L325.8121 708.8574 Z"
         style="fill:none; clip-path:url(#clipPath26); stroke:black;"
         clip-path="url(#clipPath26)"
         id="path330" />
      <text
         x="348"
         y="723"
         style="fill:black; clip-path:url(#clipPath26); stroke:none;"
         xml:space="preserve"
         clip-path="url(#clipPath26)"
         id="text332">MECR</text>
    </g>
    <g
       style="fill:white; text-rendering:geometricPrecision; stroke:white;"
       id="g342">
      <path
         d="M518.1665 470.5299 L560.7684 470.5299 L560.7684 484.9009 L518.1665 484.9009 L518.1665 470.5299 Z"
         style="clip-path:url(#clipPath27); stroke:none;"
         clip-path="url(#clipPath27)"
         id="path336" />
      <path
         d="M518.1665 470.5299 L560.7684 470.5299 L560.7684 484.9009 L518.1665 484.9009 L518.1665 470.5299 Z"
         style="fill:none; clip-path:url(#clipPath27); stroke:blue;"
         clip-path="url(#clipPath27)"
         id="path338" />
      <text
         x="535"
         y="482"
         style="fill:blue; clip-path:url(#clipPath27); stroke:none;"
         xml:space="preserve"
         clip-path="url(#clipPath27)"
         id="text340">H</text>
    </g>
    <g
       style="fill:white; text-rendering:geometricPrecision; stroke:white;"
       id="g350">
      <path
         d="M499.3526 241.2981 L589.3526 241.2981 L589.3526 266.2981 L499.3526 266.2981 L499.3526 241.2981 Z"
         style="clip-path:url(#clipPath28); stroke:none;"
         clip-path="url(#clipPath28)"
         id="path344" />
      <path
         d="M499.3526 241.2981 L589.3526 241.2981 L589.3526 266.2981 L499.3526 266.2981 L499.3526 241.2981 Z"
         style="fill:none; clip-path:url(#clipPath28); stroke:blue;"
         clip-path="url(#clipPath28)"
         id="path346" />
      <text
         x="507"
         y="258"
         style="fill:blue; clip-path:url(#clipPath28); stroke:none;"
         xml:space="preserve"
         clip-path="url(#clipPath28)"
         id="text348">Malonyl-CoA</text>
    </g>
    <g
       style="fill:white; text-rendering:geometricPrecision; stroke:white;"
       id="g358">
      <path
         d="M384.0573 443.1277 L516.0211 443.1277 L516.0211 468.1277 L384.0573 468.1277 L384.0573 443.1277 Z"
         style="clip-path:url(#clipPath29); stroke:none;"
         clip-path="url(#clipPath29)"
         id="path352" />
      <path
         d="M384.0573 443.1277 L516.0211 443.1277 L516.0211 468.1277 L384.0573 468.1277 L384.0573 443.1277 Z"
         style="fill:none; clip-path:url(#clipPath29); stroke:blue;"
         clip-path="url(#clipPath29)"
         id="path354" />
      <text
         x="405"
         y="460"
         style="fill:blue; clip-path:url(#clipPath29); stroke:none;"
         xml:space="preserve"
         clip-path="url(#clipPath29)"
         id="text356">3-Ketoacyl-ACP</text>
    </g>
    <g
       style="fill:white; text-rendering:geometricPrecision; stroke:white;"
       id="g366">
      <path
         d="M312.2859 485.3324 L402.2859 485.3324 L402.2859 510.3324 L312.2859 510.3324 L312.2859 485.3324 Z"
         style="clip-path:url(#clipPath30); stroke:none;"
         clip-path="url(#clipPath30)"
         id="path360" />
      <path
         d="M312.2859 485.3324 L402.2859 485.3324 L402.2859 510.3324 L312.2859 510.3324 L312.2859 485.3324 Z"
         style="fill:none; clip-path:url(#clipPath30); stroke:black;"
         clip-path="url(#clipPath30)"
         id="path362" />
      <text
         x="325"
         y="502"
         style="fill:black; clip-path:url(#clipPath30); stroke:none;"
         xml:space="preserve"
         clip-path="url(#clipPath30)"
         id="text364">HSD17B12</text>
    </g>
    <g
       style="fill:white; text-rendering:geometricPrecision; stroke:white;"
       id="g374">
      <path
         d="M499.3526 337.6722 L589.3526 337.6722 L589.3526 362.6722 L499.3526 362.6722 L499.3526 337.6722 Z"
         style="clip-path:url(#clipPath31); stroke:none;"
         clip-path="url(#clipPath31)"
         id="path368" />
      <path
         d="M499.3526 337.6722 L589.3526 337.6722 L589.3526 362.6722 L499.3526 362.6722 L499.3526 337.6722 Z"
         style="fill:none; clip-path:url(#clipPath31); stroke:blue;"
         clip-path="url(#clipPath31)"
         id="path370" />
      <text
         x="507"
         y="354"
         style="fill:blue; clip-path:url(#clipPath31); stroke:none;"
         xml:space="preserve"
         clip-path="url(#clipPath31)"
         id="text372">Malonyl-ACP</text>
    </g>
    <g
       style="fill:white; text-rendering:geometricPrecision; stroke:white;"
       id="g382">
      <path
         d="M325.8121 597.6508 L405.8121 597.6508 L405.8121 617.6508 L325.8121 617.6508 L325.8121 597.6508 Z"
         style="clip-path:url(#clipPath32); stroke:none;"
         clip-path="url(#clipPath32)"
         id="path376" />
      <path
         d="M325.8121 597.6508 L405.8121 597.6508 L405.8121 617.6508 L325.8121 617.6508 L325.8121 597.6508 Z"
         style="fill:none; clip-path:url(#clipPath32); stroke:black;"
         clip-path="url(#clipPath32)"
         id="path378" />
      <text
         x="347"
         y="612"
         style="fill:black; clip-path:url(#clipPath32); stroke:none;"
         xml:space="preserve"
         clip-path="url(#clipPath32)"
         id="text380">HTD2 </text>
    </g>
    <g
       style="fill:white; text-rendering:geometricPrecision; stroke:white;"
       id="g390">
      <path
         d="M428.943 192.7329 L508.943 192.7329 L508.943 212.7329 L428.943 212.7329 L428.943 192.7329 Z"
         style="clip-path:url(#clipPath33); stroke:none;"
         clip-path="url(#clipPath33)"
         id="path384" />
      <path
         d="M428.943 192.7329 L508.943 192.7329 L508.943 212.7329 L428.943 212.7329 L428.943 192.7329 Z"
         style="fill:none; clip-path:url(#clipPath33); stroke:black;"
         clip-path="url(#clipPath33)"
         id="path386" />
      <text
         x="448"
         y="207"
         style="fill:black; clip-path:url(#clipPath33); stroke:none;"
         xml:space="preserve"
         clip-path="url(#clipPath33)"
         id="text388">ACACA</text>
    </g>
    <g
       style="fill:white; text-rendering:geometricPrecision; stroke:white;"
       id="g398">
      <path
         d="M427.123 284.1552 L507.123 284.1552 L507.123 304.1552 L427.123 304.1552 L427.123 284.1552 Z"
         style="clip-path:url(#clipPath34); stroke:none;"
         clip-path="url(#clipPath34)"
         id="path392" />
      <path
         d="M427.123 284.1552 L507.123 284.1552 L507.123 304.1552 L427.123 304.1552 L427.123 284.1552 Z"
         style="fill:none; clip-path:url(#clipPath34); stroke:black;"
         clip-path="url(#clipPath34)"
         id="path394" />
      <text
         x="450"
         y="299"
         style="fill:black; clip-path:url(#clipPath34); stroke:none;"
         xml:space="preserve"
         clip-path="url(#clipPath34)"
         id="text396">MCAT</text>
    </g>
    <g
       style="fill:white; text-rendering:geometricPrecision; stroke:white;"
       id="g406">
      <path
         d="M396.5778 360.7642 L476.5778 360.7642 L476.5778 380.7642 L396.5778 380.7642 L396.5778 360.7642 Z"
         style="clip-path:url(#clipPath35); stroke:none;"
         clip-path="url(#clipPath35)"
         id="path400" />
      <path
         d="M396.5778 360.7642 L476.5778 360.7642 L476.5778 380.7642 L396.5778 380.7642 L396.5778 360.7642 Z"
         style="fill:none; clip-path:url(#clipPath35); stroke:black;"
         clip-path="url(#clipPath35)"
         id="path402" />
      <text
         x="425"
         y="375"
         style="fill:black; clip-path:url(#clipPath35); stroke:none;"
         xml:space="preserve"
         clip-path="url(#clipPath35)"
         id="text404">KAS</text>
    </g>
    <g
       style="fill:white; text-rendering:geometricPrecision; stroke:white;"
       id="g414">
      <path
         d="M328.1664 856.3087 L418.1664 856.3087 L418.1664 881.3087 L328.1664 881.3087 L328.1664 856.3087 Z"
         style="clip-path:url(#clipPath36); stroke:none;"
         clip-path="url(#clipPath36)"
         id="path408" />
      <path
         d="M328.1664 856.3087 L418.1664 856.3087 L418.1664 881.3087 L328.1664 881.3087 L328.1664 856.3087 Z"
         style="fill:none; clip-path:url(#clipPath36); stroke:blue;"
         clip-path="url(#clipPath36)"
         id="path410" />
      <text
         x="333"
         y="873"
         style="fill:blue; clip-path:url(#clipPath36); stroke:none;"
         xml:space="preserve"
         clip-path="url(#clipPath36)"
         id="text412">Octanoyl-ACP</text>
    </g>
    <g
       style="fill:white; text-rendering:geometricPrecision; stroke:white;"
       id="g422">
      <path
         d="M507.6952 142.9762 L581.01 142.9762 L581.01 162.9762 L507.6952 162.9762 L507.6952 142.9762 Z"
         style="clip-path:url(#clipPath37); stroke:none;"
         clip-path="url(#clipPath37)"
         id="path416" />
      <path
         d="M507.6952 142.9762 L581.01 142.9762 L581.01 162.9762 L507.6952 162.9762 L507.6952 142.9762 Z"
         style="fill:none; clip-path:url(#clipPath37); stroke:blue;"
         clip-path="url(#clipPath37)"
         id="path418" />
      <text
         x="512"
         y="157"
         style="fill:blue; clip-path:url(#clipPath37); stroke:none;"
         xml:space="preserve"
         clip-path="url(#clipPath37)"
         id="text420">Acetyl-CoA</text>
    </g>
    <g
       style="fill:white; text-rendering:geometricPrecision; stroke:white;"
       id="g430">
      <path
         d="M594.0657 158.675 L636.6677 158.675 L636.6677 173.046 L594.0657 173.046 L594.0657 158.675 Z"
         style="clip-path:url(#clipPath38); stroke:none;"
         clip-path="url(#clipPath38)"
         id="path424" />
      <path
         d="M594.0657 158.675 L636.6677 158.675 L636.6677 173.046 L594.0657 173.046 L594.0657 158.675 Z"
         style="fill:none; clip-path:url(#clipPath38); stroke:blue;"
         clip-path="url(#clipPath38)"
         id="path426" />
      <text
         x="606"
         y="169"
         style="font-size:10; clip-path:url(#clipPath38); fill:blue; stroke:none;"
         xml:space="preserve"
         clip-path="url(#clipPath38)"
         id="text428">ATP</text>
    </g>
    <g
       style="fill:white; text-rendering:geometricPrecision; stroke:white;"
       id="g438">
      <path
         d="M594.0657 173.046 L636.6677 173.046 L636.6677 187.417 L594.0657 187.417 L594.0657 173.046 Z"
         style="clip-path:url(#clipPath39); stroke:none;"
         clip-path="url(#clipPath39)"
         id="path432" />
      <path
         d="M594.0657 173.046 L636.6677 173.046 L636.6677 187.417 L594.0657 187.417 L594.0657 173.046 Z"
         style="fill:none; clip-path:url(#clipPath39); stroke:blue;"
         clip-path="url(#clipPath39)"
         id="path434" />
      <text
         x="605"
         y="184"
         style="font-size:10; clip-path:url(#clipPath39); fill:blue; stroke:none;"
         xml:space="preserve"
         clip-path="url(#clipPath39)"
         id="text436">CO2</text>
    </g>
    <g
       style="fill:white; text-rendering:geometricPrecision; stroke:white;"
       id="g446">
      <path
         d="M530.9579 401.3603 L573.5599 401.3603 L573.5599 415.7313 L530.9579 415.7313 L530.9579 401.3603 Z"
         style="clip-path:url(#clipPath40); stroke:none;"
         clip-path="url(#clipPath40)"
         id="path440" />
      <path
         d="M530.9579 401.3603 L573.5599 401.3603 L573.5599 415.7313 L530.9579 415.7313 L530.9579 401.3603 Z"
         style="fill:none; clip-path:url(#clipPath40); stroke:blue;"
         clip-path="url(#clipPath40)"
         id="path442" />
      <text
         x="543"
         y="412"
         style="font-size:10; clip-path:url(#clipPath40); fill:blue; stroke:none;"
         xml:space="preserve"
         clip-path="url(#clipPath40)"
         id="text444">ATP</text>
    </g>
    <g
       style="fill:white; text-rendering:geometricPrecision; stroke:white;"
       id="g454">
      <path
         d="M530.9579 415.7313 L573.5599 415.7313 L573.5599 430.1023 L530.9579 430.1023 L530.9579 415.7313 Z"
         style="clip-path:url(#clipPath41); stroke:none;"
         clip-path="url(#clipPath41)"
         id="path448" />
      <path
         d="M530.9579 415.7313 L573.5599 415.7313 L573.5599 430.1023 L530.9579 430.1023 L530.9579 415.7313 Z"
         style="fill:none; clip-path:url(#clipPath41); stroke:blue;"
         clip-path="url(#clipPath41)"
         id="path450" />
      <text
         x="542"
         y="426"
         style="font-size:10; clip-path:url(#clipPath41); fill:blue; stroke:none;"
         xml:space="preserve"
         clip-path="url(#clipPath41)"
         id="text452">CO2</text>
    </g>
    <g
       style="fill:white; text-rendering:geometricPrecision; stroke:white;"
       id="g462">
      <path
         d="M375.6975 541.2947 L524.3809 541.2947 L524.3809 566.2947 L375.6975 566.2947 L375.6975 541.2947 Z"
         style="clip-path:url(#clipPath42); stroke:none;"
         clip-path="url(#clipPath42)"
         id="path456" />
      <path
         d="M375.6975 541.2947 L524.3809 541.2947 L524.3809 566.2947 L375.6975 566.2947 L375.6975 541.2947 Z"
         style="fill:none; clip-path:url(#clipPath42); stroke:blue;"
         clip-path="url(#clipPath42)"
         id="path458" />
      <text
         x="393"
         y="558"
         style="fill:blue; clip-path:url(#clipPath42); stroke:none;"
         xml:space="preserve"
         clip-path="url(#clipPath42)"
         id="text460">3-Hydroxyacyl-ACP</text>
    </g>
    <g
       style="text-rendering:geometricPrecision;"
       id="g468">
      <path
         d="M450.0392 566.2947 L450.0392 658.0233"
         style="fill:none; clip-path:url(#clipPath43);"
         clip-path="url(#clipPath43)"
         id="path464" />
      <path
         d="M450.0392 658.0233 L455.2392 646.3233 L444.8392 646.3233 Z"
         style="clip-path:url(#clipPath43); fill-rule:evenodd; stroke:none;"
         clip-path="url(#clipPath43)"
         id="path466" />
    </g>
    <g
       style="fill:white; text-rendering:geometricPrecision; stroke:white;"
       id="g476">
      <path
         d="M376.8548 658.0233 L523.2236 658.0233 L523.2236 683.0233 L376.8548 683.0233 L376.8548 658.0233 Z"
         style="clip-path:url(#clipPath44); stroke:none;"
         clip-path="url(#clipPath44)"
         id="path470" />
      <path
         d="M376.8548 658.0233 L523.2236 658.0233 L523.2236 683.0233 L376.8548 683.0233 L376.8548 658.0233 Z"
         style="fill:none; clip-path:url(#clipPath44); stroke:blue;"
         clip-path="url(#clipPath44)"
         id="path472" />
      <text
         x="396"
         y="675"
         style="fill:blue; clip-path:url(#clipPath44); stroke:none;"
         xml:space="preserve"
         clip-path="url(#clipPath44)"
         id="text474">trans-2-Enoyl-ACP</text>
    </g>
    <g
       style="fill:white; text-rendering:geometricPrecision; stroke:white;"
       id="g484">
      <path
         d="M405.0392 768.9514 L495.0392 768.9514 L495.0392 793.9514 L405.0392 793.9514 L405.0392 768.9514 Z"
         style="clip-path:url(#clipPath45); stroke:none;"
         clip-path="url(#clipPath45)"
         id="path478" />
      <path
         d="M405.0392 768.9514 L495.0392 768.9514 L495.0392 793.9514 L405.0392 793.9514 L405.0392 768.9514 Z"
         style="fill:none; clip-path:url(#clipPath45); stroke:blue;"
         clip-path="url(#clipPath45)"
         id="path480" />
      <text
         x="424"
         y="785"
         style="fill:blue; clip-path:url(#clipPath45); stroke:none;"
         xml:space="preserve"
         clip-path="url(#clipPath45)"
         id="text482">Acyl-ACP</text>
    </g>
    <g
       style="text-rendering:geometricPrecision;"
       id="g490">
      <path
         d="M450.0392 683.0233 L450.0392 768.9514"
         style="fill:none; clip-path:url(#clipPath46);"
         clip-path="url(#clipPath46)"
         id="path486" />
      <path
         d="M450.0392 768.9514 L455.2392 757.2513 L444.8392 757.2513 Z"
         style="clip-path:url(#clipPath46); fill-rule:evenodd; stroke:none;"
         clip-path="url(#clipPath46)"
         id="path488" />
    </g>
    <g
       style="fill:white; text-rendering:geometricPrecision; stroke:white;"
       id="g498">
      <path
         d="M467.2772 855.3464 L697.4092 855.3464 L697.4092 880.3464 L467.2772 880.3464 L467.2772 855.3464 Z"
         style="clip-path:url(#clipPath47); stroke:none;"
         clip-path="url(#clipPath47)"
         id="path492" />
      <path
         d="M467.2772 855.3464 L697.4092 855.3464 L697.4092 880.3464 L467.2772 880.3464 L467.2772 855.3464 Z"
         style="fill:none; clip-path:url(#clipPath47); stroke:blue;"
         clip-path="url(#clipPath47)"
         id="path494" />
      <text
         x="490"
         y="872"
         style="fill:blue; clip-path:url(#clipPath47); stroke:none;"
         xml:space="preserve"
         clip-path="url(#clipPath47)"
         id="text496">Medium/Long-chain fatty acids</text>
    </g>
    <g
       style="fill:white; text-rendering:geometricPrecision; stroke:white;"
       id="g506">
      <path
         d="M199.9667 363.2709 L345.2759 363.2709 L345.2759 388.2709 L199.9667 388.2709 L199.9667 363.2709 Z"
         style="clip-path:url(#clipPath48); stroke:none;"
         clip-path="url(#clipPath48)"
         id="path500" />
      <path
         d="M199.9667 363.2709 L345.2759 363.2709 L345.2759 388.2709 L199.9667 388.2709 L199.9667 363.2709 Z"
         style="fill:none; clip-path:url(#clipPath48); stroke:blue;"
         clip-path="url(#clipPath48)"
         id="path502" />
      <text
         x="225"
         y="380"
         style="fill:blue; clip-path:url(#clipPath48); stroke:none;"
         xml:space="preserve"
         clip-path="url(#clipPath48)"
         id="text504">Acetyl/Acyl-ACP</text>
    </g>
    <g
       style="fill:white; text-rendering:geometricPrecision; stroke:white;"
       id="g514">
      <path
         d="M489.87 511.3966 L532.4719 511.3966 L532.4719 525.7676 L489.87 525.7676 L489.87 511.3966 Z"
         style="clip-path:url(#clipPath49); stroke:none;"
         clip-path="url(#clipPath49)"
         id="path508" />
      <path
         d="M489.87 511.3966 L532.4719 511.3966 L532.4719 525.7676 L489.87 525.7676 L489.87 511.3966 Z"
         style="fill:none; clip-path:url(#clipPath49); stroke:blue;"
         clip-path="url(#clipPath49)"
         id="path510" />
      <text
         x="497"
         y="522"
         style="font-size:10; clip-path:url(#clipPath49); fill:blue; stroke:none;"
         xml:space="preserve"
         clip-path="url(#clipPath49)"
         id="text512">NADP</text>
    </g>
    <g
       style="fill:white; text-rendering:geometricPrecision; stroke:white;"
       id="g522">
      <path
         d="M518.1665 484.9009 L560.7684 484.9009 L560.7684 499.2719 L518.1665 499.2719 L518.1665 484.9009 Z"
         style="clip-path:url(#clipPath50); stroke:none;"
         clip-path="url(#clipPath50)"
         id="path516" />
      <path
         d="M518.1665 484.9009 L560.7684 484.9009 L560.7684 499.2719 L518.1665 499.2719 L518.1665 484.9009 Z"
         style="fill:none; clip-path:url(#clipPath50); stroke:blue;"
         clip-path="url(#clipPath50)"
         id="path518" />
      <text
         x="522"
         y="495"
         style="font-size:10; clip-path:url(#clipPath50); fill:blue; stroke:none;"
         xml:space="preserve"
         clip-path="url(#clipPath50)"
         id="text520">NADPH</text>
    </g>
    <g
       style="fill:white; text-rendering:geometricPrecision; stroke:white;"
       id="g530">
      <path
         d="M486.4785 628.2184 L529.0804 628.2184 L529.0804 642.5894 L486.4785 642.5894 L486.4785 628.2184 Z"
         style="clip-path:url(#clipPath51); stroke:none;"
         clip-path="url(#clipPath51)"
         id="path524" />
      <path
         d="M486.4785 628.2184 L529.0804 628.2184 L529.0804 642.5894 L486.4785 642.5894 L486.4785 628.2184 Z"
         style="fill:none; clip-path:url(#clipPath51); stroke:blue;"
         clip-path="url(#clipPath51)"
         id="path526" />
      <text
         x="494"
         y="639"
         style="font-size:10; clip-path:url(#clipPath51); fill:blue; stroke:none;"
         xml:space="preserve"
         clip-path="url(#clipPath51)"
         id="text528">water</text>
    </g>
    <g
       style="text-rendering:geometricPrecision;"
       id="g536">
      <path
         d="M480.9328 701.3773 L450.0392 701.3688"
         style="fill:none; clip-path:url(#clipPath52);"
         clip-path="url(#clipPath52)"
         id="path532" />
      <path
         d="M450.0392 701.3688 L461.7378 706.572 L461.7406 696.172 Z"
         style="clip-path:url(#clipPath52); fill-rule:evenodd; stroke:none;"
         clip-path="url(#clipPath52)"
         id="path534" />
    </g>
    <g
       style="fill:white; text-rendering:geometricPrecision; stroke:white;"
       id="g544">
      <path
         d="M488.9328 701.3773 L531.5347 701.3773 L531.5347 715.7483 L488.9328 715.7483 L488.9328 701.3773 Z"
         style="clip-path:url(#clipPath53); stroke:none;"
         clip-path="url(#clipPath53)"
         id="path538" />
      <path
         d="M488.9328 701.3773 L531.5347 701.3773 L531.5347 715.7483 L488.9328 715.7483 L488.9328 701.3773 Z"
         style="fill:none; clip-path:url(#clipPath53); stroke:blue;"
         clip-path="url(#clipPath53)"
         id="path540" />
      <text
         x="506"
         y="713"
         style="fill:blue; clip-path:url(#clipPath53); stroke:none;"
         xml:space="preserve"
         clip-path="url(#clipPath53)"
         id="text542">H</text>
    </g>
    <g
       style="fill:white; text-rendering:geometricPrecision; stroke:white;"
       id="g552">
      <path
         d="M487.6343 738.7126 L530.2363 738.7126 L530.2363 753.0836 L487.6343 753.0836 L487.6343 738.7126 Z"
         style="clip-path:url(#clipPath54); stroke:none;"
         clip-path="url(#clipPath54)"
         id="path546" />
      <path
         d="M487.6343 738.7126 L530.2363 738.7126 L530.2363 753.0836 L487.6343 753.0836 L487.6343 738.7126 Z"
         style="fill:none; clip-path:url(#clipPath54); stroke:blue;"
         clip-path="url(#clipPath54)"
         id="path548" />
      <text
         x="495"
         y="749"
         style="font-size:10; clip-path:url(#clipPath54); fill:blue; stroke:none;"
         xml:space="preserve"
         clip-path="url(#clipPath54)"
         id="text550">NADP</text>
    </g>
    <g
       style="fill:white; text-rendering:geometricPrecision; stroke:white;"
       id="g560">
      <path
         d="M488.9328 687.0063 L531.5347 687.0063 L531.5347 701.3773 L488.9328 701.3773 L488.9328 687.0063 Z"
         style="clip-path:url(#clipPath55); stroke:none;"
         clip-path="url(#clipPath55)"
         id="path554" />
      <path
         d="M488.9328 687.0063 L531.5347 687.0063 L531.5347 701.3773 L488.9328 701.3773 L488.9328 687.0063 Z"
         style="fill:none; clip-path:url(#clipPath55); stroke:blue;"
         clip-path="url(#clipPath55)"
         id="path556" />
      <text
         x="493"
         y="698"
         style="font-size:10; clip-path:url(#clipPath55); fill:blue; stroke:none;"
         xml:space="preserve"
         clip-path="url(#clipPath55)"
         id="text558">NADPH</text>
    </g>
    <g
       style="text-rendering:geometricPrecision;"
       id="g566">
      <path
         d="M450.0392 733.9322 L487.6343 745.8981"
         style="fill:none; clip-path:url(#clipPath56);"
         clip-path="url(#clipPath56)"
         id="path562" />
      <path
         d="M487.6343 745.8981 L478.0625 737.3945 L474.9083 747.3047 Z"
         style="clip-path:url(#clipPath56); fill-rule:evenodd; stroke:none;"
         clip-path="url(#clipPath56)"
         id="path564" />
    </g>
  </g>
</svg>
