<?xml version="1.0" encoding="UTF-8" standalone="no"?>
<svg
   style="fill-opacity:1; color-rendering:auto; color-interpolation:auto; stroke:black; text-rendering:auto; stroke-linecap:square; stroke-miterlimit:10; stroke-opacity:1; shape-rendering:auto; fill:black; stroke-dasharray:none; font-weight:normal; stroke-width:1; font-family:'Dialog'; font-style:normal; stroke-linejoin:miter; font-size:12; stroke-dashoffset:0; image-rendering:auto;"
   width="759"
   height="565"
   version="1.1"
   id="svg542"
   xmlns="http://www.w3.org/2000/svg"
   xmlns:svg="http://www.w3.org/2000/svg">
  <!--Generated by the Batik Graphics2D SVG Generator-->
  <defs
     id="genericDefs" />
  <g
     id="g540">
    <defs
       id="defs1">
      <clipPath
         clipPathUnits="userSpaceOnUse"
         id="clipPath1">
        <path
           d="M0 0 L775 0 L775 580 L0 580 L0 0 Z"
           id="path3" />
      </clipPath>
      <clipPath
         clipPathUnits="userSpaceOnUse"
         id="clipPath2">
        <path
           d="M0 0 L0 200 L200 200 L200 0 Z"
           id="path6" />
      </clipPath>
      <clipPath
         clipPathUnits="userSpaceOnUse"
         id="clipPath3">
        <path
           d="M244 16 L244 37 L255 37 L255 16 Z"
           id="path9" />
      </clipPath>
      <clipPath
         clipPathUnits="userSpaceOnUse"
         id="clipPath4">
        <path
           d="M243.4551 3.918 L254.5449 3.918 L254.5449 19.2305 L243.4551 19.2305 L243.4551 3.918 Z"
           id="path12" />
      </clipPath>
      <clipPath
         clipPathUnits="userSpaceOnUse"
         id="clipPath5">
        <path
           d="M508.1856 116.982 L508.1856 189.4285 L520.1163 189.4285 L520.1163 116.982 Z"
           id="path15" />
      </clipPath>
      <clipPath
         clipPathUnits="userSpaceOnUse"
         id="clipPath6">
        <path
           d="M512.0999 138.9753 L512.0999 150.3753 L649.5026 150.3753 L649.5026 138.9753 Z"
           id="path18" />
      </clipPath>
      <clipPath
         clipPathUnits="userSpaceOnUse"
         id="clipPath7">
        <path
           d="M370.499 358.3754 L370.499 369.7754 L413.1729 369.7754 L413.1729 358.3754 Z"
           id="path21" />
      </clipPath>
      <clipPath
         clipPathUnits="userSpaceOnUse"
         id="clipPath8">
        <path
           d="M472.4257 243.3781 L472.4257 267.5473 L657.5474 267.5473 L657.5474 243.3781 Z"
           id="path24" />
      </clipPath>
      <clipPath
         clipPathUnits="userSpaceOnUse"
         id="clipPath9">
        <path
           d="M221.293 359.7679 L221.293 399.4571 L260.1218 399.4571 L260.1218 359.7679 Z"
           id="path27" />
      </clipPath>
      <clipPath
         clipPathUnits="userSpaceOnUse"
         id="clipPath10">
        <path
           d="M406.8471 330.2404 L406.8471 405.4304 L418.7837 405.4304 L418.7837 330.2404 Z"
           id="path30" />
      </clipPath>
      <clipPath
         clipPathUnits="userSpaceOnUse"
         id="clipPath11">
        <path
           d="M559.571 244.5607 L559.571 267.5816 L657.5817 267.5816 L657.5817 244.5607 Z"
           id="path33" />
      </clipPath>
      <clipPath
         clipPathUnits="userSpaceOnUse"
         id="clipPath12">
        <path
           d="M408.7404 209.7934 L408.7404 308.4207 L515.2066 308.4207 L515.2066 209.7934 Z"
           id="path36" />
      </clipPath>
      <clipPath
         clipPathUnits="userSpaceOnUse"
         id="clipPath13">
        <path
           d="M513.7954 209.7954 L513.7954 310.2868 L632.628 310.2868 L632.628 209.7954 Z"
           id="path39" />
      </clipPath>
      <clipPath
         clipPathUnits="userSpaceOnUse"
         id="clipPath14">
        <path
           d="M110.4966 125.7671 L110.4966 137.1671 L184.9001 137.1671 L184.9001 125.7671 Z"
           id="path42" />
      </clipPath>
      <clipPath
         clipPathUnits="userSpaceOnUse"
         id="clipPath15">
        <path
           d="M183.1928 294.5705 L183.1928 526.2054 L384.4554 526.2054 L384.4554 294.5705 Z"
           id="path45" />
      </clipPath>
      <clipPath
         clipPathUnits="userSpaceOnUse"
         id="clipPath16">
        <path
           d="M153.0127 294.9857 L153.0127 381.3673 L173.5706 381.3673 L173.5706 294.9857 Z"
           id="path48" />
      </clipPath>
      <clipPath
         clipPathUnits="userSpaceOnUse"
         id="clipPath17">
        <path
           d="M205.7988 294.7988 L205.7988 526.4752 L384.5015 526.4752 L384.5015 294.7988 Z"
           id="path51" />
      </clipPath>
      <clipPath
         clipPathUnits="userSpaceOnUse"
         id="clipPath18">
        <path
           d="M408.3465 425.9925 L408.3465 526.731 L420.2839 526.731 L420.2839 425.9925 Z"
           id="path54" />
      </clipPath>
      <clipPath
         clipPathUnits="userSpaceOnUse"
         id="clipPath19">
        <path
           d="M221.4494 398.1994 L221.4494 410.0638 L279.9189 410.0638 L279.9189 398.1994 Z"
           id="path57" />
      </clipPath>
      <clipPath
         clipPathUnits="userSpaceOnUse"
         id="clipPath20">
        <path
           d="M474.7689 332.25 L474.7689 543.9694 L630.125 543.9694 L630.125 332.25 Z"
           id="path60" />
      </clipPath>
      <clipPath
         clipPathUnits="userSpaceOnUse"
         id="clipPath21">
        <path
           d="M104.0709 277.7274 L104.0709 289.66 L139.5159 289.66 L139.5159 277.7274 Z"
           id="path63" />
      </clipPath>
      <clipPath
         clipPathUnits="userSpaceOnUse"
         id="clipPath22">
        <path
           d="M200.5306 194.5689 L200.5306 271 L212.4694 271 L212.4694 194.5689 Z"
           id="path66" />
      </clipPath>
      <clipPath
         clipPathUnits="userSpaceOnUse"
         id="clipPath23">
        <path
           d="M62.5 296 L62.5 543.9694 L354.2311 543.9694 L354.2311 296 Z"
           id="path69" />
      </clipPath>
      <clipPath
         clipPathUnits="userSpaceOnUse"
         id="clipPath24">
        <path
           d="M178.0306 103 L178.0306 177.4311 L189.9694 177.4311 L189.9694 103 Z"
           id="path72" />
      </clipPath>
      <clipPath
         clipPathUnits="userSpaceOnUse"
         id="clipPath25">
        <path
           d="M106.7689 180.0306 L106.7689 191.9694 L139.5 191.9694 L139.5 180.0306 Z"
           id="path75" />
      </clipPath>
      <clipPath
         clipPathUnits="userSpaceOnUse"
         id="clipPath26">
        <path
           d="M155.5306 198 L155.5306 274.4311 L167.4694 274.4311 L167.4694 198 Z"
           id="path78" />
      </clipPath>
      <clipPath
         clipPathUnits="userSpaceOnUse"
         id="clipPath27">
        <path
           d="M153.3375 356.025 L153.3375 377.025 L164.3375 377.025 L164.3375 356.025 Z"
           id="path81" />
      </clipPath>
      <clipPath
         clipPathUnits="userSpaceOnUse"
         id="clipPath28">
        <path
           d="M152.7926 343.943 L163.8824 343.943 L163.8824 359.2555 L152.7926 359.2555 L152.7926 343.943 Z"
           id="path84" />
      </clipPath>
      <clipPath
         clipPathUnits="userSpaceOnUse"
         id="clipPath29">
        <path
           d="M352.5 525 L352.5 551 L476.5 551 L476.5 525 Z"
           id="path87" />
      </clipPath>
      <clipPath
         clipPathUnits="userSpaceOnUse"
         id="clipPath30">
        <path
           d="M656.5 203.5 L656.5 224.5 L737.5 224.5 L737.5 203.5 Z"
           id="path90" />
      </clipPath>
      <clipPath
         clipPathUnits="userSpaceOnUse"
         id="clipPath31">
        <path
           d="M22.5 120.5 L22.5 141.5 L103.5 141.5 L103.5 120.5 Z"
           id="path93" />
      </clipPath>
      <clipPath
         clipPathUnits="userSpaceOnUse"
         id="clipPath32">
        <path
           d="M282.5 363.5 L282.5 384.5 L363.5 384.5 L363.5 363.5 Z"
           id="path96" />
      </clipPath>
      <clipPath
         clipPathUnits="userSpaceOnUse"
         id="clipPath33">
        <path
           d="M22.5 140.5 L22.5 161.5 L103.5 161.5 L103.5 140.5 Z"
           id="path99" />
      </clipPath>
      <clipPath
         clipPathUnits="userSpaceOnUse"
         id="clipPath34">
        <path
           d="M138.5 78 L138.5 104 L229.5 104 L229.5 78 Z"
           id="path102" />
      </clipPath>
      <clipPath
         clipPathUnits="userSpaceOnUse"
         id="clipPath35">
        <path
           d="M656.5 143.5 L656.5 164.5 L737.5 164.5 L737.5 143.5 Z"
           id="path105" />
      </clipPath>
      <clipPath
         clipPathUnits="userSpaceOnUse"
         id="clipPath36">
        <path
           d="M22.5 100.5 L22.5 121.5 L103.5 121.5 L103.5 100.5 Z"
           id="path108" />
      </clipPath>
      <clipPath
         clipPathUnits="userSpaceOnUse"
         id="clipPath37">
        <path
           d="M105.75 385.75 L105.75 411.75 L222.5 411.75 L222.5 385.75 Z"
           id="path111" />
      </clipPath>
      <clipPath
         clipPathUnits="userSpaceOnUse"
         id="clipPath38">
        <path
           d="M325.75 305.25 L325.75 331.25 L497.5 331.25 L497.5 305.25 Z"
           id="path114" />
      </clipPath>
      <clipPath
         clipPathUnits="userSpaceOnUse"
         id="clipPath39">
        <path
           d="M17.5 173 L17.5 199 L108.5 199 L108.5 173 Z"
           id="path117" />
      </clipPath>
      <clipPath
         clipPathUnits="userSpaceOnUse"
         id="clipPath40">
        <path
           d="M282.5 343.5 L282.5 364.5 L363.5 364.5 L363.5 343.5 Z"
           id="path120" />
      </clipPath>
      <clipPath
         clipPathUnits="userSpaceOnUse"
         id="clipPath41">
        <path
           d="M656.5 163.5 L656.5 184.5 L737.5 184.5 L737.5 163.5 Z"
           id="path123" />
      </clipPath>
      <clipPath
         clipPathUnits="userSpaceOnUse"
         id="clipPath42">
        <path
           d="M656.5 183.5 L656.5 204.5 L737.5 204.5 L737.5 183.5 Z"
           id="path126" />
      </clipPath>
      <clipPath
         clipPathUnits="userSpaceOnUse"
         id="clipPath43">
        <path
           d="M656.5 83.5 L656.5 104.5 L737.5 104.5 L737.5 83.5 Z"
           id="path129" />
      </clipPath>
      <clipPath
         clipPathUnits="userSpaceOnUse"
         id="clipPath44">
        <path
           d="M656.5 123.5 L656.5 144.5 L737.5 144.5 L737.5 123.5 Z"
           id="path132" />
      </clipPath>
      <clipPath
         clipPathUnits="userSpaceOnUse"
         id="clipPath45">
        <path
           d="M656.5 103.5 L656.5 124.5 L737.5 124.5 L737.5 103.5 Z"
           id="path135" />
      </clipPath>
      <clipPath
         clipPathUnits="userSpaceOnUse"
         id="clipPath46">
        <path
           d="M656.5 63.5 L656.5 84.5 L737.5 84.5 L737.5 63.5 Z"
           id="path138" />
      </clipPath>
      <clipPath
         clipPathUnits="userSpaceOnUse"
         id="clipPath47">
        <path
           d="M454.5 92 L454.5 118 L569.5 118 L569.5 92 Z"
           id="path141" />
      </clipPath>
      <clipPath
         clipPathUnits="userSpaceOnUse"
         id="clipPath48">
        <path
           d="M138.5 173 L138.5 199 L229.5 199 L229.5 173 Z"
           id="path144" />
      </clipPath>
      <clipPath
         clipPathUnits="userSpaceOnUse"
         id="clipPath49">
        <path
           d="M138.5 270 L138.5 296 L229.5 296 L229.5 270 Z"
           id="path147" />
      </clipPath>
      <clipPath
         clipPathUnits="userSpaceOnUse"
         id="clipPath50">
        <path
           d="M17.5 271 L17.5 297 L108.5 297 L108.5 271 Z"
           id="path150" />
      </clipPath>
      <clipPath
         clipPathUnits="userSpaceOnUse"
         id="clipPath51">
        <path
           d="M367.5 401 L367.5 427 L458.5 427 L458.5 401 Z"
           id="path153" />
      </clipPath>
      <clipPath
         clipPathUnits="userSpaceOnUse"
         id="clipPath52">
        <path
           d="M543.75 307.25 L543.75 333.25 L715.5 333.25 L715.5 307.25 Z"
           id="path156" />
      </clipPath>
      <clipPath
         clipPathUnits="userSpaceOnUse"
         id="clipPath53">
        <path
           d="M414.5 185 L414.5 211 L614.5 211 L614.5 185 Z"
           id="path159" />
      </clipPath>
      <clipPath
         clipPathUnits="userSpaceOnUse"
         id="clipPath54">
        <path
           d="M656.5 254 L656.5 280 L745.5 280 L745.5 254 Z"
           id="path162" />
      </clipPath>
    </defs>
    <g
       style="fill:white; stroke:white;"
       id="g168">
      <rect
         x="0"
         width="775"
         height="580"
         y="0"
         style="stroke:none;"
         id="rect166" />
    </g>
    <g
       style="font-weight:bold; font-size:10; text-rendering:geometricPrecision;"
       id="g178">
      <path
         d="M0.0469 6.7031 L6.7656 6.7031 L6.7656 8.125 L4.3438 8.125 L4.3438 14 L2.4688 14 L2.4688 8.125 L0.0469 8.125 L0.0469 6.7031 ZM7.665 8.5312 L9.415 8.5312 L9.415 14 L7.665 14 L7.665 8.5312 ZM7.665 6.4062 L9.415 6.4062 L9.415 7.8281 L7.665 7.8281 L7.665 6.4062 ZM12.999 6.9844 L12.999 8.5312 L14.7959 8.5312 L14.7959 9.7812 L12.999 9.7812 L12.999 12.0938 Q12.999 12.4844 13.1475 12.6172 Q13.2959 12.75 13.749 12.75 L14.6553 12.75 L14.6553 14 L13.1553 14 Q12.1084 14 11.6787 13.5703 Q11.249 13.1406 11.249 12.0938 L11.249 9.7812 L10.374 9.7812 L10.374 8.5312 L11.249 8.5312 L11.249 6.9844 L12.999 6.9844 ZM15.873 6.4062 L17.623 6.4062 L17.623 14 L15.873 14 L15.873 6.4062 ZM24.7539 11.25 L24.7539 11.75 L20.6758 11.75 Q20.7383 12.3594 21.1133 12.6719 Q21.4883 12.9844 22.1758 12.9844 Q22.7227 12.9844 23.3086 12.8203 Q23.8945 12.6562 24.5039 12.3125 L24.5039 13.6719 Q23.8789 13.9062 23.2617 14.0234 Q22.6445 14.1406 22.0195 14.1406 Q20.5352 14.1406 19.7148 13.3828 Q18.8945 12.625 18.8945 11.2656 Q18.8945 9.9375 19.6992 9.1719 Q20.5039 8.4062 21.9258 8.4062 Q23.207 8.4062 23.9805 9.1797 Q24.7539 9.9531 24.7539 11.25 ZM22.957 10.6719 Q22.957 10.1719 22.668 9.8672 Q22.3789 9.5625 21.9102 9.5625 Q21.3945 9.5625 21.082 9.8438 Q20.7695 10.125 20.6914 10.6719 L22.957 10.6719 ZM26.3643 8.5312 L28.1143 8.5312 L28.1143 10.4219 L26.3643 10.4219 L26.3643 8.5312 ZM26.3643 12.1094 L28.1143 12.1094 L28.1143 14 L26.3643 14 L26.3643 12.1094 Z"
         style="clip-path:url(#clipPath2); stroke:none;"
         clip-path="url(#clipPath2)"
         id="path170" />
      <path
         d="M38.9844 6.7031 L40.3125 6.7031 L43.5469 12.8125 L43.5469 6.7031 L44.5 6.7031 L44.5 14 L43.1719 14 L39.9375 7.9062 L39.9375 14 L38.9844 14 L38.9844 6.7031 ZM46.418 8.5312 L47.3242 8.5312 L47.3242 14 L46.418 14 L46.418 8.5312 ZM46.418 6.4062 L47.3242 6.4062 L47.3242 7.5469 L46.418 7.5469 L46.418 6.4062 ZM50.0869 6.9844 L50.0869 8.5312 L51.9463 8.5312 L51.9463 9.2344 L50.0869 9.2344 L50.0869 12.2031 Q50.0869 12.8594 50.2744 13.0547 Q50.4619 13.25 51.0244 13.25 L51.9463 13.25 L51.9463 14 L51.0244 14 Q49.9775 14 49.5791 13.6094 Q49.1807 13.2188 49.1807 12.2031 L49.1807 9.2344 L48.5244 9.2344 L48.5244 8.5312 L49.1807 8.5312 L49.1807 6.9844 L50.0869 6.9844 ZM56.2891 9.375 Q56.1328 9.2812 55.9609 9.2422 Q55.7891 9.2031 55.5703 9.2031 Q54.8047 9.2031 54.3984 9.6953 Q53.9922 10.1875 53.9922 11.125 L53.9922 14 L53.0859 14 L53.0859 8.5312 L53.9922 8.5312 L53.9922 9.375 Q54.2734 8.875 54.7266 8.6406 Q55.1797 8.4062 55.8359 8.4062 Q55.9297 8.4062 56.0391 8.4141 Q56.1484 8.4219 56.2891 8.4531 L56.2891 9.375 ZM57.2285 8.5312 L58.1348 8.5312 L58.1348 14 L57.2285 14 L57.2285 8.5312 ZM57.2285 6.4062 L58.1348 6.4062 L58.1348 7.5469 L57.2285 7.5469 L57.2285 6.4062 ZM63.9443 8.7344 L63.9443 9.5781 Q63.5693 9.375 63.1865 9.2656 Q62.8037 9.1562 62.4131 9.1562 Q61.5381 9.1562 61.0537 9.7109 Q60.5693 10.2656 60.5693 11.2656 Q60.5693 12.2656 61.0537 12.8203 Q61.5381 13.375 62.4131 13.375 Q62.8037 13.375 63.1865 13.2734 Q63.5693 13.1719 63.9443 12.9531 L63.9443 13.7969 Q63.5693 13.9688 63.1709 14.0547 Q62.7725 14.1406 62.3193 14.1406 Q61.0693 14.1406 60.3428 13.3672 Q59.6162 12.5938 59.6162 11.2656 Q59.6162 9.9375 60.3506 9.1719 Q61.085 8.4062 62.3662 8.4062 Q62.7881 8.4062 63.1787 8.4844 Q63.5693 8.5625 63.9443 8.7344 ZM70.8086 9.1562 Q70.0898 9.1562 69.668 9.7188 Q69.2461 10.2812 69.2461 11.2656 Q69.2461 12.25 69.6602 12.8125 Q70.0742 13.375 70.8086 13.375 Q71.5273 13.375 71.9492 12.8125 Q72.3711 12.25 72.3711 11.2656 Q72.3711 10.2969 71.9492 9.7266 Q71.5273 9.1562 70.8086 9.1562 ZM70.8086 8.4062 Q71.9805 8.4062 72.6523 9.1641 Q73.3242 9.9219 73.3242 11.2656 Q73.3242 12.6094 72.6523 13.375 Q71.9805 14.1406 70.8086 14.1406 Q69.6367 14.1406 68.9648 13.375 Q68.293 12.6094 68.293 11.2656 Q68.293 9.9219 68.9648 9.1641 Q69.6367 8.4062 70.8086 8.4062 ZM79.3486 8.5312 L77.3799 11.1875 L79.458 14 L78.3955 14 L76.8018 11.8438 L75.208 14 L74.1455 14 L76.2705 11.1406 L74.333 8.5312 L75.3955 8.5312 L76.8486 10.4844 L78.2861 8.5312 L79.3486 8.5312 ZM80.7197 8.5312 L81.626 8.5312 L81.626 14 L80.7197 14 L80.7197 8.5312 ZM80.7197 6.4062 L81.626 6.4062 L81.626 7.5469 L80.7197 7.5469 L80.7197 6.4062 ZM87.1074 9.3594 L87.1074 6.4062 L87.998 6.4062 L87.998 14 L87.1074 14 L87.1074 13.1719 Q86.8262 13.6719 86.3887 13.9062 Q85.9512 14.1406 85.3418 14.1406 Q84.3574 14.1406 83.7324 13.3516 Q83.1074 12.5625 83.1074 11.2656 Q83.1074 9.9844 83.7324 9.1953 Q84.3574 8.4062 85.3418 8.4062 Q85.9512 8.4062 86.3887 8.6406 Q86.8262 8.875 87.1074 9.3594 ZM84.0449 11.2656 Q84.0449 12.2656 84.4512 12.8281 Q84.8574 13.3906 85.5762 13.3906 Q86.2793 13.3906 86.6934 12.8281 Q87.1074 12.2656 87.1074 11.2656 Q87.1074 10.2812 86.6934 9.7188 Q86.2793 9.1562 85.5762 9.1562 Q84.8574 9.1562 84.4512 9.7188 Q84.0449 10.2812 84.0449 11.2656 ZM94.5332 11.0469 L94.5332 11.4844 L90.3926 11.4844 Q90.4551 12.4062 90.9551 12.8906 Q91.4551 13.375 92.3457 13.375 Q92.8613 13.375 93.3535 13.25 Q93.8457 13.125 94.3145 12.875 L94.3145 13.7188 Q93.8301 13.9219 93.3223 14.0312 Q92.8145 14.1406 92.2988 14.1406 Q90.9863 14.1406 90.2207 13.3828 Q89.4551 12.625 89.4551 11.3125 Q89.4551 9.9688 90.1816 9.1875 Q90.9082 8.4062 92.1426 8.4062 Q93.252 8.4062 93.8926 9.1094 Q94.5332 9.8125 94.5332 11.0469 ZM93.627 10.7812 Q93.627 10.0469 93.2207 9.6016 Q92.8145 9.1562 92.1582 9.1562 Q91.3926 9.1562 90.9473 9.5859 Q90.502 10.0156 90.4238 10.7812 L93.627 10.7812 ZM103.4424 9.5781 Q103.7705 8.9688 104.2393 8.6875 Q104.708 8.4062 105.3486 8.4062 Q106.208 8.4062 106.6689 9 Q107.1299 9.5938 107.1299 10.7031 L107.1299 14 L106.2236 14 L106.2236 10.7344 Q106.2236 9.9375 105.9502 9.5625 Q105.6768 9.1875 105.0986 9.1875 Q104.3955 9.1875 103.9971 9.6484 Q103.5986 10.1094 103.5986 10.9062 L103.5986 14 L102.6924 14 L102.6924 10.7344 Q102.6924 9.9375 102.4111 9.5625 Q102.1299 9.1875 101.5518 9.1875 Q100.8643 9.1875 100.458 9.6484 Q100.0518 10.1094 100.0518 10.9062 L100.0518 14 L99.1455 14 L99.1455 8.5312 L100.0518 8.5312 L100.0518 9.375 Q100.3643 8.875 100.7939 8.6406 Q101.2236 8.4062 101.8018 8.4062 Q102.4111 8.4062 102.8252 8.7031 Q103.2393 9 103.4424 9.5781 ZM113.6055 11.0469 L113.6055 11.4844 L109.4648 11.4844 Q109.5273 12.4062 110.0273 12.8906 Q110.5273 13.375 111.418 13.375 Q111.9336 13.375 112.4258 13.25 Q112.918 13.125 113.3867 12.875 L113.3867 13.7188 Q112.9023 13.9219 112.3945 14.0312 Q111.8867 14.1406 111.3711 14.1406 Q110.0586 14.1406 109.293 13.3828 Q108.5273 12.625 108.5273 11.3125 Q108.5273 9.9688 109.2539 9.1875 Q109.9805 8.4062 111.2148 8.4062 Q112.3242 8.4062 112.9648 9.1094 Q113.6055 9.8125 113.6055 11.0469 ZM112.6992 10.7812 Q112.6992 10.0469 112.293 9.6016 Q111.8867 9.1562 111.2305 9.1562 Q110.4648 9.1562 110.0195 9.5859 Q109.5742 10.0156 109.4961 10.7812 L112.6992 10.7812 ZM115.9609 6.9844 L115.9609 8.5312 L117.8203 8.5312 L117.8203 9.2344 L115.9609 9.2344 L115.9609 12.2031 Q115.9609 12.8594 116.1484 13.0547 Q116.3359 13.25 116.8984 13.25 L117.8203 13.25 L117.8203 14 L116.8984 14 Q115.8516 14 115.4531 13.6094 Q115.0547 13.2188 115.0547 12.2031 L115.0547 9.2344 L114.3984 9.2344 L114.3984 8.5312 L115.0547 8.5312 L115.0547 6.9844 L115.9609 6.9844 ZM121.4756 11.25 Q120.3975 11.25 119.9756 11.5 Q119.5537 11.75 119.5537 12.3438 Q119.5537 12.8281 119.8662 13.1094 Q120.1787 13.3906 120.7256 13.3906 Q121.4756 13.3906 121.9287 12.8594 Q122.3818 12.3281 122.3818 11.4531 L122.3818 11.25 L121.4756 11.25 ZM123.2725 10.875 L123.2725 14 L122.3818 14 L122.3818 13.1719 Q122.0693 13.6719 121.6084 13.9062 Q121.1475 14.1406 120.4912 14.1406 Q119.6475 14.1406 119.1475 13.6719 Q118.6475 13.2031 118.6475 12.4062 Q118.6475 11.4844 119.2725 11.0156 Q119.8975 10.5469 121.1162 10.5469 L122.3818 10.5469 L122.3818 10.4531 Q122.3818 9.8438 121.9678 9.5 Q121.5537 9.1562 120.8193 9.1562 Q120.3506 9.1562 119.9053 9.2734 Q119.46 9.3906 119.0537 9.6094 L119.0537 8.7812 Q119.5537 8.5938 120.0146 8.5 Q120.4756 8.4062 120.9131 8.4062 Q122.1006 8.4062 122.6865 9.0156 Q123.2725 9.625 123.2725 10.875 ZM129.0566 11.2656 Q129.0566 10.2812 128.6426 9.7188 Q128.2285 9.1562 127.5254 9.1562 Q126.8066 9.1562 126.4004 9.7188 Q125.9941 10.2812 125.9941 11.2656 Q125.9941 12.2656 126.4004 12.8281 Q126.8066 13.3906 127.5254 13.3906 Q128.2285 13.3906 128.6426 12.8281 Q129.0566 12.2656 129.0566 11.2656 ZM125.9941 9.3594 Q126.2754 8.875 126.7051 8.6406 Q127.1348 8.4062 127.7441 8.4062 Q128.7441 8.4062 129.3613 9.1953 Q129.9785 9.9844 129.9785 11.2656 Q129.9785 12.5625 129.3613 13.3516 Q128.7441 14.1406 127.7441 14.1406 Q127.1348 14.1406 126.7051 13.9062 Q126.2754 13.6719 125.9941 13.1719 L125.9941 14 L125.0879 14 L125.0879 6.4062 L125.9941 6.4062 L125.9941 9.3594 ZM133.5918 9.1562 Q132.873 9.1562 132.4512 9.7188 Q132.0293 10.2812 132.0293 11.2656 Q132.0293 12.25 132.4434 12.8125 Q132.8574 13.375 133.5918 13.375 Q134.3105 13.375 134.7324 12.8125 Q135.1543 12.25 135.1543 11.2656 Q135.1543 10.2969 134.7324 9.7266 Q134.3105 9.1562 133.5918 9.1562 ZM133.5918 8.4062 Q134.7637 8.4062 135.4355 9.1641 Q136.1074 9.9219 136.1074 11.2656 Q136.1074 12.6094 135.4355 13.375 Q134.7637 14.1406 133.5918 14.1406 Q132.4199 14.1406 131.748 13.375 Q131.0762 12.6094 131.0762 11.2656 Q131.0762 9.9219 131.748 9.1641 Q132.4199 8.4062 133.5918 8.4062 ZM137.585 6.4062 L138.4912 6.4062 L138.4912 14 L137.585 14 L137.585 6.4062 ZM140.3633 8.5312 L141.2695 8.5312 L141.2695 14 L140.3633 14 L140.3633 8.5312 ZM140.3633 6.4062 L141.2695 6.4062 L141.2695 7.5469 L140.3633 7.5469 L140.3633 6.4062 ZM146.626 8.6875 L146.626 9.5469 Q146.251 9.3438 145.8447 9.25 Q145.4385 9.1562 144.9854 9.1562 Q144.3291 9.1562 143.9932 9.3594 Q143.6572 9.5625 143.6572 9.9688 Q143.6572 10.2812 143.8916 10.4609 Q144.126 10.6406 144.8604 10.7969 L145.1572 10.875 Q146.126 11.0781 146.5244 11.4531 Q146.9229 11.8281 146.9229 12.4844 Q146.9229 13.25 146.3213 13.6953 Q145.7197 14.1406 144.6729 14.1406 Q144.2197 14.1406 143.7432 14.0547 Q143.2666 13.9688 142.751 13.7969 L142.751 12.875 Q143.251 13.125 143.7275 13.2578 Q144.2041 13.3906 144.6885 13.3906 Q145.3135 13.3906 145.6572 13.1719 Q146.001 12.9531 146.001 12.5625 Q146.001 12.1875 145.7588 11.9922 Q145.5166 11.7969 144.6729 11.625 L144.3604 11.5469 Q143.5322 11.375 143.1572 11.0078 Q142.7822 10.6406 142.7822 10.0156 Q142.7822 9.2344 143.3291 8.8203 Q143.876 8.4062 144.8916 8.4062 Q145.376 8.4062 145.8213 8.4766 Q146.2666 8.5469 146.626 8.6875 ZM152.6172 9.5781 Q152.9453 8.9688 153.4141 8.6875 Q153.8828 8.4062 154.5234 8.4062 Q155.3828 8.4062 155.8438 9 Q156.3047 9.5938 156.3047 10.7031 L156.3047 14 L155.3984 14 L155.3984 10.7344 Q155.3984 9.9375 155.125 9.5625 Q154.8516 9.1875 154.2734 9.1875 Q153.5703 9.1875 153.1719 9.6484 Q152.7734 10.1094 152.7734 10.9062 L152.7734 14 L151.8672 14 L151.8672 10.7344 Q151.8672 9.9375 151.5859 9.5625 Q151.3047 9.1875 150.7266 9.1875 Q150.0391 9.1875 149.6328 9.6484 Q149.2266 10.1094 149.2266 10.9062 L149.2266 14 L148.3203 14 L148.3203 8.5312 L149.2266 8.5312 L149.2266 9.375 Q149.5391 8.875 149.9688 8.6406 Q150.3984 8.4062 150.9766 8.4062 Q151.5859 8.4062 152 8.7031 Q152.4141 9 152.6172 9.5781 ZM161.2715 8.5312 L162.1777 8.5312 L162.1777 14 L161.2715 14 L161.2715 8.5312 ZM161.2715 6.4062 L162.1777 6.4062 L162.1777 7.5469 L161.2715 7.5469 L161.2715 6.4062 ZM168.5967 10.7031 L168.5967 14 L167.7061 14 L167.7061 10.7344 Q167.7061 9.9531 167.4014 9.5703 Q167.0967 9.1875 166.4873 9.1875 Q165.7686 9.1875 165.3467 9.6484 Q164.9248 10.1094 164.9248 10.9062 L164.9248 14 L164.0186 14 L164.0186 8.5312 L164.9248 8.5312 L164.9248 9.375 Q165.2529 8.8906 165.6904 8.6484 Q166.1279 8.4062 166.6904 8.4062 Q167.6279 8.4062 168.1123 8.9844 Q168.5967 9.5625 168.5967 10.7031 ZM177.5039 8.7344 L177.5039 9.5781 Q177.1289 9.375 176.7461 9.2656 Q176.3633 9.1562 175.9727 9.1562 Q175.0977 9.1562 174.6133 9.7109 Q174.1289 10.2656 174.1289 11.2656 Q174.1289 12.2656 174.6133 12.8203 Q175.0977 13.375 175.9727 13.375 Q176.3633 13.375 176.7461 13.2734 Q177.1289 13.1719 177.5039 12.9531 L177.5039 13.7969 Q177.1289 13.9688 176.7305 14.0547 Q176.332 14.1406 175.8789 14.1406 Q174.6289 14.1406 173.9023 13.3672 Q173.1758 12.5938 173.1758 11.2656 Q173.1758 9.9375 173.9102 9.1719 Q174.6445 8.4062 175.9258 8.4062 Q176.3477 8.4062 176.7383 8.4844 Q177.1289 8.5625 177.5039 8.7344 ZM181.3457 14.5156 Q180.9707 15.4844 180.6035 15.7812 Q180.2363 16.0781 179.6426 16.0781 L178.9238 16.0781 L178.9238 15.3281 L179.4395 15.3281 Q179.8145 15.3281 180.0176 15.1562 Q180.2207 14.9844 180.4707 14.3281 L180.6426 13.9062 L178.4238 8.5312 L179.377 8.5312 L181.0801 12.8125 L182.7988 8.5312 L183.752 8.5312 L181.3457 14.5156 ZM188.4668 8.6875 L188.4668 9.5469 Q188.0918 9.3438 187.6855 9.25 Q187.2793 9.1562 186.8262 9.1562 Q186.1699 9.1562 185.834 9.3594 Q185.498 9.5625 185.498 9.9688 Q185.498 10.2812 185.7324 10.4609 Q185.9668 10.6406 186.7012 10.7969 L186.998 10.875 Q187.9668 11.0781 188.3652 11.4531 Q188.7637 11.8281 188.7637 12.4844 Q188.7637 13.25 188.1621 13.6953 Q187.5605 14.1406 186.5137 14.1406 Q186.0605 14.1406 185.584 14.0547 Q185.1074 13.9688 184.5918 13.7969 L184.5918 12.875 Q185.0918 13.125 185.5684 13.2578 Q186.0449 13.3906 186.5293 13.3906 Q187.1543 13.3906 187.498 13.1719 Q187.8418 12.9531 187.8418 12.5625 Q187.8418 12.1875 187.5996 11.9922 Q187.3574 11.7969 186.5137 11.625 L186.2012 11.5469 Q185.373 11.375 184.998 11.0078 Q184.623 10.6406 184.623 10.0156 Q184.623 9.2344 185.1699 8.8203 Q185.7168 8.4062 186.7324 8.4062 Q187.2168 8.4062 187.6621 8.4766 Q188.1074 8.5469 188.4668 8.6875 ZM191.083 6.9844 L191.083 8.5312 L192.9424 8.5312 L192.9424 9.2344 L191.083 9.2344 L191.083 12.2031 Q191.083 12.8594 191.2705 13.0547 Q191.458 13.25 192.0205 13.25 L192.9424 13.25 L192.9424 14 L192.0205 14 Q190.9736 14 190.5752 13.6094 Q190.1768 13.2188 190.1768 12.2031 L190.1768 9.2344 L189.5205 9.2344 L189.5205 8.5312 L190.1768 8.5312 L190.1768 6.9844 L191.083 6.9844 ZM194.1133 8.5312 L195.0195 8.5312 L195.0195 14 L194.1133 14 L194.1133 8.5312 ZM194.1133 6.4062 L195.0195 6.4062 L195.0195 7.5469 L194.1133 7.5469 L194.1133 6.4062 ZM200.8291 8.7344 L200.8291 9.5781 Q200.4541 9.375 200.0713 9.2656 Q199.6885 9.1562 199.2979 9.1562 Q198.4229 9.1562 197.9385 9.7109 Q197.4541 10.2656 197.4541 11.2656 Q197.4541 12.2656 197.9385 12.8203 Q198.4229 13.375 199.2979 13.375 Q199.6885 13.375 200.0713 13.2734 Q200.4541 13.1719 200.8291 12.9531 L200.8291 13.7969 Q200.4541 13.9688 200.0557 14.0547 Q199.6572 14.1406 199.2041 14.1406 Q197.9541 14.1406 197.2275 13.3672 Q196.501 12.5938 196.501 11.2656 Q196.501 9.9375 197.2354 9.1719 Q197.9697 8.4062 199.251 8.4062 Q199.6729 8.4062 200.0635 8.4844 Q200.4541 8.5625 200.8291 8.7344 ZM208.3496 6.4062 L208.3496 7.1562 L207.4902 7.1562 Q207.0059 7.1562 206.8184 7.3516 Q206.6309 7.5469 206.6309 8.0469 L206.6309 8.5312 L208.0996 8.5312 L208.0996 9.2344 L206.6309 9.2344 L206.6309 14 L205.7246 14 L205.7246 9.2344 L204.8652 9.2344 L204.8652 8.5312 L205.7246 8.5312 L205.7246 8.1562 Q205.7246 7.2344 206.1465 6.8203 Q206.5684 6.4062 207.4902 6.4062 L208.3496 6.4062 ZM209.0889 8.5312 L209.9951 8.5312 L209.9951 14 L209.0889 14 L209.0889 8.5312 ZM209.0889 6.4062 L209.9951 6.4062 L209.9951 7.5469 L209.0889 7.5469 L209.0889 6.4062 ZM215.8047 11.2656 Q215.8047 10.2812 215.3906 9.7188 Q214.9766 9.1562 214.2734 9.1562 Q213.5547 9.1562 213.1484 9.7188 Q212.7422 10.2812 212.7422 11.2656 Q212.7422 12.2656 213.1484 12.8281 Q213.5547 13.3906 214.2734 13.3906 Q214.9766 13.3906 215.3906 12.8281 Q215.8047 12.2656 215.8047 11.2656 ZM212.7422 9.3594 Q213.0234 8.875 213.4531 8.6406 Q213.8828 8.4062 214.4922 8.4062 Q215.4922 8.4062 216.1094 9.1953 Q216.7266 9.9844 216.7266 11.2656 Q216.7266 12.5625 216.1094 13.3516 Q215.4922 14.1406 214.4922 14.1406 Q213.8828 14.1406 213.4531 13.9062 Q213.0234 13.6719 212.7422 13.1719 L212.7422 14 L211.8359 14 L211.8359 6.4062 L212.7422 6.4062 L212.7422 9.3594 ZM221.3867 9.375 Q221.2305 9.2812 221.0586 9.2422 Q220.8867 9.2031 220.668 9.2031 Q219.9023 9.2031 219.4961 9.6953 Q219.0898 10.1875 219.0898 11.125 L219.0898 14 L218.1836 14 L218.1836 8.5312 L219.0898 8.5312 L219.0898 9.375 Q219.3711 8.875 219.8242 8.6406 Q220.2773 8.4062 220.9336 8.4062 Q221.0273 8.4062 221.1367 8.4141 Q221.2461 8.4219 221.3867 8.4531 L221.3867 9.375 ZM224.4512 9.1562 Q223.7324 9.1562 223.3105 9.7188 Q222.8887 10.2812 222.8887 11.2656 Q222.8887 12.25 223.3027 12.8125 Q223.7168 13.375 224.4512 13.375 Q225.1699 13.375 225.5918 12.8125 Q226.0137 12.25 226.0137 11.2656 Q226.0137 10.2969 225.5918 9.7266 Q225.1699 9.1562 224.4512 9.1562 ZM224.4512 8.4062 Q225.623 8.4062 226.2949 9.1641 Q226.9668 9.9219 226.9668 11.2656 Q226.9668 12.6094 226.2949 13.375 Q225.623 14.1406 224.4512 14.1406 Q223.2793 14.1406 222.6074 13.375 Q221.9355 12.6094 221.9355 11.2656 Q221.9355 9.9219 222.6074 9.1641 Q223.2793 8.4062 224.4512 8.4062 ZM231.9287 8.6875 L231.9287 9.5469 Q231.5537 9.3438 231.1475 9.25 Q230.7412 9.1562 230.2881 9.1562 Q229.6318 9.1562 229.2959 9.3594 Q228.96 9.5625 228.96 9.9688 Q228.96 10.2812 229.1943 10.4609 Q229.4287 10.6406 230.1631 10.7969 L230.46 10.875 Q231.4287 11.0781 231.8271 11.4531 Q232.2256 11.8281 232.2256 12.4844 Q232.2256 13.25 231.624 13.6953 Q231.0225 14.1406 229.9756 14.1406 Q229.5225 14.1406 229.0459 14.0547 Q228.5693 13.9688 228.0537 13.7969 L228.0537 12.875 Q228.5537 13.125 229.0303 13.2578 Q229.5068 13.3906 229.9912 13.3906 Q230.6162 13.3906 230.96 13.1719 Q231.3037 12.9531 231.3037 12.5625 Q231.3037 12.1875 231.0615 11.9922 Q230.8193 11.7969 229.9756 11.625 L229.6631 11.5469 Q228.835 11.375 228.46 11.0078 Q228.085 10.6406 228.085 10.0156 Q228.085 9.2344 228.6318 8.8203 Q229.1787 8.4062 230.1943 8.4062 Q230.6787 8.4062 231.124 8.4766 Q231.5693 8.5469 231.9287 8.6875 ZM233.6543 8.5312 L234.5605 8.5312 L234.5605 14 L233.6543 14 L233.6543 8.5312 ZM233.6543 6.4062 L234.5605 6.4062 L234.5605 7.5469 L233.6543 7.5469 L233.6543 6.4062 ZM239.917 8.6875 L239.917 9.5469 Q239.542 9.3438 239.1357 9.25 Q238.7295 9.1562 238.2764 9.1562 Q237.6201 9.1562 237.2842 9.3594 Q236.9482 9.5625 236.9482 9.9688 Q236.9482 10.2812 237.1826 10.4609 Q237.417 10.6406 238.1514 10.7969 L238.4482 10.875 Q239.417 11.0781 239.8154 11.4531 Q240.2139 11.8281 240.2139 12.4844 Q240.2139 13.25 239.6123 13.6953 Q239.0107 14.1406 237.9639 14.1406 Q237.5107 14.1406 237.0342 14.0547 Q236.5576 13.9688 236.042 13.7969 L236.042 12.875 Q236.542 13.125 237.0186 13.2578 Q237.4951 13.3906 237.9795 13.3906 Q238.6045 13.3906 238.9482 13.1719 Q239.292 12.9531 239.292 12.5625 Q239.292 12.1875 239.0498 11.9922 Q238.8076 11.7969 237.9639 11.625 L237.6514 11.5469 Q236.8232 11.375 236.4482 11.0078 Q236.0732 10.6406 236.0732 10.0156 Q236.0732 9.2344 236.6201 8.8203 Q237.167 8.4062 238.1826 8.4062 Q238.667 8.4062 239.1123 8.4766 Q239.5576 8.5469 239.917 8.6875 Z"
         style="clip-path:url(#clipPath2); stroke:none;"
         clip-path="url(#clipPath2)"
         id="path172" />
      <path
         d="M4.25 21.9375 Q3.3906 21.9375 2.9141 22.5703 Q2.4375 23.2031 2.4375 24.3594 Q2.4375 25.5156 2.9141 26.1484 Q3.3906 26.7812 4.25 26.7812 Q5.1094 26.7812 5.5859 26.1484 Q6.0625 25.5156 6.0625 24.3594 Q6.0625 23.2031 5.5859 22.5703 Q5.1094 21.9375 4.25 21.9375 ZM4.25 20.5781 Q6 20.5781 7 21.5859 Q8 22.5938 8 24.3594 Q8 26.125 7 27.1328 Q6 28.1406 4.25 28.1406 Q2.5 28.1406 1.5 27.1328 Q0.5 26.125 0.5 24.3594 Q0.5 22.5938 1.5 21.5859 Q2.5 20.5781 4.25 20.5781 ZM13.4072 24.0156 Q13.1729 23.9062 12.9463 23.8594 Q12.7197 23.8125 12.4854 23.8125 Q11.8135 23.8125 11.4541 24.2422 Q11.0947 24.6719 11.0947 25.4844 L11.0947 28 L9.3447 28 L9.3447 22.5312 L11.0947 22.5312 L11.0947 23.4219 Q11.4229 22.8906 11.8604 22.6484 Q12.2979 22.4062 12.9072 22.4062 Q13.001 22.4062 13.1025 22.4062 Q13.2041 22.4062 13.3916 22.4375 L13.4072 24.0156 ZM17.9951 27.0781 Q17.6357 27.5469 17.1982 27.7734 Q16.7607 28 16.1982 28 Q15.1982 28 14.542 27.2109 Q13.8857 26.4219 13.8857 25.2031 Q13.8857 23.9688 14.542 23.1875 Q15.1982 22.4062 16.1982 22.4062 Q16.7607 22.4062 17.1982 22.6328 Q17.6357 22.8594 17.9951 23.3438 L17.9951 22.5312 L19.7451 22.5312 L19.7451 27.4531 Q19.7451 28.7656 18.917 29.4609 Q18.0889 30.1562 16.5107 30.1562 Q15.9951 30.1562 15.5186 30.0781 Q15.042 30 14.5576 29.8438 L14.5576 28.4844 Q15.0107 28.75 15.4482 28.875 Q15.8857 29 16.3389 29 Q17.1982 29 17.5967 28.625 Q17.9951 28.25 17.9951 27.4531 L17.9951 27.0781 ZM16.8389 23.6719 Q16.292 23.6719 15.9951 24.0703 Q15.6982 24.4688 15.6982 25.2031 Q15.6982 25.9531 15.9873 26.3438 Q16.2764 26.7344 16.8389 26.7344 Q17.3857 26.7344 17.6904 26.3281 Q17.9951 25.9219 17.9951 25.2031 Q17.9951 24.4688 17.6904 24.0703 Q17.3857 23.6719 16.8389 23.6719 ZM23.8877 25.5312 Q23.3408 25.5312 23.0596 25.7188 Q22.7783 25.9062 22.7783 26.2656 Q22.7783 26.6094 23.0049 26.7969 Q23.2314 26.9844 23.6221 26.9844 Q24.1221 26.9844 24.458 26.625 Q24.7939 26.2656 24.7939 25.7344 L24.7939 25.5312 L23.8877 25.5312 ZM26.5596 24.875 L26.5596 28 L24.7939 28 L24.7939 27.1875 Q24.4346 27.6875 23.9971 27.9141 Q23.5596 28.1406 22.9346 28.1406 Q22.0752 28.1406 21.5518 27.6484 Q21.0283 27.1562 21.0283 26.3594 Q21.0283 25.3906 21.6846 24.9453 Q22.3408 24.5 23.7627 24.5 L24.7939 24.5 L24.7939 24.3594 Q24.7939 23.9531 24.4658 23.7578 Q24.1377 23.5625 23.4502 23.5625 Q22.8877 23.5625 22.4033 23.6719 Q21.9189 23.7812 21.4971 24.0156 L21.4971 22.6719 Q22.0596 22.5469 22.6299 22.4766 Q23.2002 22.4062 23.7627 22.4062 Q25.2471 22.4062 25.9033 22.9844 Q26.5596 23.5625 26.5596 24.875 ZM33.6826 24.6719 L33.6826 28 L31.917 28 L31.917 27.4531 L31.917 25.4531 Q31.917 24.75 31.8857 24.4766 Q31.8545 24.2031 31.7764 24.0781 Q31.6826 23.9062 31.5029 23.8125 Q31.3232 23.7188 31.1045 23.7188 Q30.5576 23.7188 30.2451 24.1406 Q29.9326 24.5625 29.9326 25.3125 L29.9326 28 L28.1826 28 L28.1826 22.5312 L29.9326 22.5312 L29.9326 23.3281 Q30.3232 22.8594 30.7686 22.6328 Q31.2139 22.4062 31.7451 22.4062 Q32.6982 22.4062 33.1904 22.9844 Q33.6826 23.5625 33.6826 24.6719 ZM35.3018 22.5312 L37.0518 22.5312 L37.0518 28 L35.3018 28 L35.3018 22.5312 ZM35.3018 20.4062 L37.0518 20.4062 L37.0518 21.8281 L35.3018 21.8281 L35.3018 20.4062 ZM42.9951 22.7031 L42.9951 24.0312 Q42.4326 23.7969 41.9092 23.6797 Q41.3857 23.5625 40.9326 23.5625 Q40.4326 23.5625 40.1904 23.6875 Q39.9482 23.8125 39.9482 24.0625 Q39.9482 24.2812 40.1279 24.3906 Q40.3076 24.5 40.792 24.5625 L41.0889 24.5938 Q42.4326 24.7656 42.9014 25.1562 Q43.3701 25.5469 43.3701 26.3906 Q43.3701 27.2656 42.7217 27.7031 Q42.0732 28.1406 40.792 28.1406 Q40.2607 28.1406 39.6826 28.0547 Q39.1045 27.9688 38.4795 27.7969 L38.4795 26.4688 Q39.0107 26.7188 39.5576 26.8516 Q40.1045 26.9844 40.667 26.9844 Q41.1826 26.9844 41.4404 26.8438 Q41.6982 26.7031 41.6982 26.4219 Q41.6982 26.1875 41.5264 26.0703 Q41.3545 25.9531 40.8232 25.8906 L40.5107 25.8438 Q39.3389 25.7031 38.8701 25.3047 Q38.4014 24.9062 38.4014 24.1094 Q38.4014 23.2344 38.9951 22.8203 Q39.5889 22.4062 40.8232 22.4062 Q41.3076 22.4062 41.8389 22.4766 Q42.3701 22.5469 42.9951 22.7031 ZM49.7441 23.4375 Q50.0723 22.9375 50.5332 22.6719 Q50.9941 22.4062 51.541 22.4062 Q52.4785 22.4062 52.9707 22.9844 Q53.4629 23.5625 53.4629 24.6719 L53.4629 28 L51.7129 28 L51.7129 25.1406 Q51.7129 25.0781 51.7129 25.0156 Q51.7129 24.9531 51.7129 24.8281 Q51.7129 24.2344 51.5488 23.9766 Q51.3848 23.7188 50.9941 23.7188 Q50.4941 23.7188 50.2285 24.125 Q49.9629 24.5312 49.9473 25.3125 L49.9473 28 L48.1816 28 L48.1816 25.1406 Q48.1816 24.2344 48.0254 23.9766 Q47.8691 23.7188 47.4785 23.7188 Q46.9785 23.7188 46.7051 24.1328 Q46.4316 24.5469 46.4316 25.3125 L46.4316 28 L44.666 28 L44.666 22.5312 L46.4316 22.5312 L46.4316 23.3281 Q46.7441 22.875 47.166 22.6406 Q47.5879 22.4062 48.0879 22.4062 Q48.6504 22.4062 49.0879 22.6797 Q49.5254 22.9531 49.7441 23.4375 ZM55.3828 22.5312 L57.1328 22.5312 L57.1328 24.4219 L55.3828 24.4219 L55.3828 22.5312 ZM55.3828 26.1094 L57.1328 26.1094 L57.1328 28 L55.3828 28 L55.3828 26.1094 Z"
         style="clip-path:url(#clipPath2); stroke:none;"
         clip-path="url(#clipPath2)"
         id="path174" />
      <path
         d="M66.9844 20.7031 L67.9688 20.7031 L67.9688 23.7031 L71.5469 23.7031 L71.5469 20.7031 L72.5312 20.7031 L72.5312 28 L71.5469 28 L71.5469 24.5312 L67.9688 24.5312 L67.9688 28 L66.9844 28 L66.9844 20.7031 ZM76.582 23.1562 Q75.8633 23.1562 75.4414 23.7188 Q75.0195 24.2812 75.0195 25.2656 Q75.0195 26.25 75.4336 26.8125 Q75.8477 27.375 76.582 27.375 Q77.3008 27.375 77.7227 26.8125 Q78.1445 26.25 78.1445 25.2656 Q78.1445 24.2969 77.7227 23.7266 Q77.3008 23.1562 76.582 23.1562 ZM76.582 22.4062 Q77.7539 22.4062 78.4258 23.1641 Q79.0977 23.9219 79.0977 25.2656 Q79.0977 26.6094 78.4258 27.375 Q77.7539 28.1406 76.582 28.1406 Q75.4102 28.1406 74.7383 27.375 Q74.0664 26.6094 74.0664 25.2656 Q74.0664 23.9219 74.7383 23.1641 Q75.4102 22.4062 76.582 22.4062 ZM84.8408 23.5781 Q85.1689 22.9688 85.6377 22.6875 Q86.1064 22.4062 86.7471 22.4062 Q87.6064 22.4062 88.0674 23 Q88.5283 23.5938 88.5283 24.7031 L88.5283 28 L87.6221 28 L87.6221 24.7344 Q87.6221 23.9375 87.3486 23.5625 Q87.0752 23.1875 86.4971 23.1875 Q85.7939 23.1875 85.3955 23.6484 Q84.9971 24.1094 84.9971 24.9062 L84.9971 28 L84.0908 28 L84.0908 24.7344 Q84.0908 23.9375 83.8096 23.5625 Q83.5283 23.1875 82.9502 23.1875 Q82.2627 23.1875 81.8564 23.6484 Q81.4502 24.1094 81.4502 24.9062 L81.4502 28 L80.5439 28 L80.5439 22.5312 L81.4502 22.5312 L81.4502 23.375 Q81.7627 22.875 82.1924 22.6406 Q82.6221 22.4062 83.2002 22.4062 Q83.8096 22.4062 84.2236 22.7031 Q84.6377 23 84.8408 23.5781 ZM92.4414 23.1562 Q91.7227 23.1562 91.3008 23.7188 Q90.8789 24.2812 90.8789 25.2656 Q90.8789 26.25 91.293 26.8125 Q91.707 27.375 92.4414 27.375 Q93.1602 27.375 93.582 26.8125 Q94.0039 26.25 94.0039 25.2656 Q94.0039 24.2969 93.582 23.7266 Q93.1602 23.1562 92.4414 23.1562 ZM92.4414 22.4062 Q93.6133 22.4062 94.2852 23.1641 Q94.957 23.9219 94.957 25.2656 Q94.957 26.6094 94.2852 27.375 Q93.6133 28.1406 92.4414 28.1406 Q91.2695 28.1406 90.5977 27.375 Q89.9258 26.6094 89.9258 25.2656 Q89.9258 23.9219 90.5977 23.1641 Q91.2695 22.4062 92.4414 22.4062 ZM103.0977 22.6875 L103.0977 23.5469 Q102.7227 23.3438 102.3164 23.25 Q101.9102 23.1562 101.457 23.1562 Q100.8008 23.1562 100.4648 23.3594 Q100.1289 23.5625 100.1289 23.9688 Q100.1289 24.2812 100.3633 24.4609 Q100.5977 24.6406 101.332 24.7969 L101.6289 24.875 Q102.5977 25.0781 102.9961 25.4531 Q103.3945 25.8281 103.3945 26.4844 Q103.3945 27.25 102.793 27.6953 Q102.1914 28.1406 101.1445 28.1406 Q100.6914 28.1406 100.2148 28.0547 Q99.7383 27.9688 99.2227 27.7969 L99.2227 26.875 Q99.7227 27.125 100.1992 27.2578 Q100.6758 27.3906 101.1602 27.3906 Q101.7852 27.3906 102.1289 27.1719 Q102.4727 26.9531 102.4727 26.5625 Q102.4727 26.1875 102.2305 25.9922 Q101.9883 25.7969 101.1445 25.625 L100.832 25.5469 Q100.0039 25.375 99.6289 25.0078 Q99.2539 24.6406 99.2539 24.0156 Q99.2539 23.2344 99.8008 22.8203 Q100.3477 22.4062 101.3633 22.4062 Q101.8477 22.4062 102.293 22.4766 Q102.7383 22.5469 103.0977 22.6875 ZM107.3076 25.25 Q106.2295 25.25 105.8076 25.5 Q105.3857 25.75 105.3857 26.3438 Q105.3857 26.8281 105.6982 27.1094 Q106.0107 27.3906 106.5576 27.3906 Q107.3076 27.3906 107.7607 26.8594 Q108.2139 26.3281 108.2139 25.4531 L108.2139 25.25 L107.3076 25.25 ZM109.1045 24.875 L109.1045 28 L108.2139 28 L108.2139 27.1719 Q107.9014 27.6719 107.4404 27.9062 Q106.9795 28.1406 106.3232 28.1406 Q105.4795 28.1406 104.9795 27.6719 Q104.4795 27.2031 104.4795 26.4062 Q104.4795 25.4844 105.1045 25.0156 Q105.7295 24.5469 106.9482 24.5469 L108.2139 24.5469 L108.2139 24.4531 Q108.2139 23.8438 107.7998 23.5 Q107.3857 23.1562 106.6514 23.1562 Q106.1826 23.1562 105.7373 23.2734 Q105.292 23.3906 104.8857 23.6094 L104.8857 22.7812 Q105.3857 22.5938 105.8467 22.5 Q106.3076 22.4062 106.7451 22.4062 Q107.9326 22.4062 108.5186 23.0156 Q109.1045 23.625 109.1045 24.875 ZM111.8262 27.1719 L111.8262 30.0781 L110.9199 30.0781 L110.9199 22.5312 L111.8262 22.5312 L111.8262 23.3594 Q112.1074 22.875 112.5371 22.6406 Q112.9668 22.4062 113.5762 22.4062 Q114.5762 22.4062 115.1934 23.1953 Q115.8105 23.9844 115.8105 25.2656 Q115.8105 26.5625 115.1934 27.3516 Q114.5762 28.1406 113.5762 28.1406 Q112.9668 28.1406 112.5371 27.9062 Q112.1074 27.6719 111.8262 27.1719 ZM114.8887 25.2656 Q114.8887 24.2812 114.4746 23.7188 Q114.0605 23.1562 113.3574 23.1562 Q112.6387 23.1562 112.2324 23.7188 Q111.8262 24.2812 111.8262 25.2656 Q111.8262 26.2656 112.2324 26.8281 Q112.6387 27.3906 113.3574 27.3906 Q114.0605 27.3906 114.4746 26.8281 Q114.8887 26.2656 114.8887 25.2656 ZM117.2988 22.5312 L118.2051 22.5312 L118.2051 28 L117.2988 28 L117.2988 22.5312 ZM117.2988 20.4062 L118.2051 20.4062 L118.2051 21.5469 L117.2988 21.5469 L117.2988 20.4062 ZM124.7646 25.0469 L124.7646 25.4844 L120.624 25.4844 Q120.6865 26.4062 121.1865 26.8906 Q121.6865 27.375 122.5771 27.375 Q123.0928 27.375 123.585 27.25 Q124.0771 27.125 124.5459 26.875 L124.5459 27.7188 Q124.0615 27.9219 123.5537 28.0312 Q123.0459 28.1406 122.5303 28.1406 Q121.2178 28.1406 120.4521 27.3828 Q119.6865 26.625 119.6865 25.3125 Q119.6865 23.9688 120.4131 23.1875 Q121.1396 22.4062 122.374 22.4062 Q123.4834 22.4062 124.124 23.1094 Q124.7646 23.8125 124.7646 25.0469 ZM123.8584 24.7812 Q123.8584 24.0469 123.4521 23.6016 Q123.0459 23.1562 122.3896 23.1562 Q121.624 23.1562 121.1787 23.5859 Q120.7334 24.0156 120.6553 24.7812 L123.8584 24.7812 ZM130.7764 24.7031 L130.7764 28 L129.8857 28 L129.8857 24.7344 Q129.8857 23.9531 129.5811 23.5703 Q129.2764 23.1875 128.667 23.1875 Q127.9482 23.1875 127.5264 23.6484 Q127.1045 24.1094 127.1045 24.9062 L127.1045 28 L126.1982 28 L126.1982 22.5312 L127.1045 22.5312 L127.1045 23.375 Q127.4326 22.8906 127.8701 22.6484 Q128.3076 22.4062 128.8701 22.4062 Q129.8076 22.4062 130.292 22.9844 Q130.7764 23.5625 130.7764 24.7031 ZM136.0518 22.6875 L136.0518 23.5469 Q135.6768 23.3438 135.2705 23.25 Q134.8643 23.1562 134.4111 23.1562 Q133.7549 23.1562 133.4189 23.3594 Q133.083 23.5625 133.083 23.9688 Q133.083 24.2812 133.3174 24.4609 Q133.5518 24.6406 134.2861 24.7969 L134.583 24.875 Q135.5518 25.0781 135.9502 25.4531 Q136.3486 25.8281 136.3486 26.4844 Q136.3486 27.25 135.7471 27.6953 Q135.1455 28.1406 134.0986 28.1406 Q133.6455 28.1406 133.1689 28.0547 Q132.6924 27.9688 132.1768 27.7969 L132.1768 26.875 Q132.6768 27.125 133.1533 27.2578 Q133.6299 27.3906 134.1143 27.3906 Q134.7393 27.3906 135.083 27.1719 Q135.4268 26.9531 135.4268 26.5625 Q135.4268 26.1875 135.1846 25.9922 Q134.9424 25.7969 134.0986 25.625 L133.7861 25.5469 Q132.958 25.375 132.583 25.0078 Q132.208 24.6406 132.208 24.0156 Q132.208 23.2344 132.7549 22.8203 Q133.3018 22.4062 134.3174 22.4062 Q134.8018 22.4062 135.2471 22.4766 Q135.6924 22.5469 136.0518 22.6875 Z"
         style="clip-path:url(#clipPath2); stroke:none;"
         clip-path="url(#clipPath2)"
         id="path176" />
    </g>
    <g
       style="fill:navy; text-rendering:geometricPrecision; font-size:8; stroke:navy;"
       id="g182">
      <text
         x="246"
         xml:space="preserve"
         y="16"
         style="clip-path:url(#clipPath4); stroke:none;"
         clip-path="url(#clipPath4)"
         id="text180">2</text>
    </g>
    <g
       style="text-rendering:geometricPrecision;"
       id="g188">
      <path
         d="M512 117.5 L514.1693 176.5061"
         style="fill:none; clip-path:url(#clipPath5);"
         clip-path="url(#clipPath5)"
         id="path184" />
      <path
         d="M519.3658 176.315 L514.5992 188.1982 L508.9728 176.6971 Z"
         style="clip-path:url(#clipPath5); stroke:none;"
         clip-path="url(#clipPath5)"
         id="path186" />
    </g>
    <g
       style="text-rendering:geometricPrecision;"
       id="g196">
      <path
         d="M649 144 L522.9999 144.6485"
         style="fill:none; clip-path:url(#clipPath6);"
         clip-path="url(#clipPath6)"
         id="path190" />
      <path
         d="M512.6 144.7021 C512.5852 141.8302 514.9013 139.4901 517.7732 139.4754 C520.645 139.4606 522.9851 141.7767 522.9999 144.6485 C523.0146 147.5204 520.6985 149.8604 517.8267 149.8752 C514.9548 149.89 512.6148 147.5739 512.6 144.7021 Z"
         style="fill:white; clip-path:url(#clipPath6); stroke:none;"
         clip-path="url(#clipPath6)"
         id="path192" />
      <path
         d="M512.6 144.7021 C512.5852 141.8302 514.9013 139.4901 517.7732 139.4754 C520.645 139.4606 522.9851 141.7767 522.9999 144.6485 C523.0146 147.5204 520.6985 149.8604 517.8267 149.8752 C514.9548 149.89 512.6148 147.5739 512.6 144.7021 Z"
         style="fill:none; clip-path:url(#clipPath6);"
         clip-path="url(#clipPath6)"
         id="path194" />
    </g>
    <g
       style="text-rendering:geometricPrecision;"
       id="g204">
      <path
         d="M371 364 L402.2729 364.0646"
         style="fill:none; clip-path:url(#clipPath7);"
         clip-path="url(#clipPath7)"
         id="path198" />
      <path
         d="M412.6729 364.0861 C412.6669 366.958 410.334 369.2813 407.4621 369.2754 C404.5902 369.2694 402.2669 366.9365 402.2729 364.0646 C402.2788 361.1928 404.6118 358.8695 407.4836 358.8754 C410.3555 358.8813 412.6788 361.2143 412.6729 364.0861 Z"
         style="fill:white; clip-path:url(#clipPath7); stroke:none;"
         clip-path="url(#clipPath7)"
         id="path200" />
      <path
         d="M412.6729 364.0861 C412.6669 366.958 410.334 369.2813 407.4621 369.2754 C404.5902 369.2694 402.2669 366.9365 402.2729 364.0646 C402.2788 361.1928 404.6118 358.8695 407.4836 358.8754 C410.3555 358.8813 412.6788 361.2143 412.6729 364.0861 Z"
         style="fill:none; clip-path:url(#clipPath7);"
         clip-path="url(#clipPath7)"
         id="path202" />
    </g>
    <g
       style="text-rendering:geometricPrecision;"
       id="g212">
      <path
         d="M657 267 L483.3002 249.5969"
         style="fill:none; clip-path:url(#clipPath8);"
         clip-path="url(#clipPath8)"
         id="path206" />
      <path
         d="M472.952 248.5601 C473.2383 245.7025 475.7869 243.6181 478.6445 243.9044 C481.502 244.1907 483.5865 246.7393 483.3002 249.5969 C483.0139 252.4545 480.4653 254.5389 477.6077 254.2526 C474.7501 253.9663 472.6657 251.4177 472.952 248.5601 Z"
         style="fill:white; clip-path:url(#clipPath8); stroke:none;"
         clip-path="url(#clipPath8)"
         id="path208" />
      <path
         d="M472.952 248.5601 C473.2383 245.7025 475.7869 243.6181 478.6445 243.9044 C481.502 244.1907 483.5865 246.7393 483.3002 249.5969 C483.0139 252.4545 480.4653 254.5389 477.6077 254.2526 C474.7501 253.9663 472.6657 251.4177 472.952 248.5601 Z"
         style="fill:none; clip-path:url(#clipPath8);"
         clip-path="url(#clipPath8)"
         id="path210" />
    </g>
    <g
       style="text-rendering:geometricPrecision;"
       id="g220">
      <path
         d="M222 398.75 L250.7933 369.1927"
         style="fill:none; clip-path:url(#clipPath9);"
         clip-path="url(#clipPath9)"
         id="path214" />
      <path
         d="M258.0503 361.7431 C260.1075 363.747 260.1505 367.0392 258.1466 369.0963 C256.1426 371.1535 252.8504 371.1966 250.7933 369.1927 C248.7362 367.1887 248.6931 363.8965 250.697 361.8394 C252.701 359.7822 255.9931 359.7391 258.0503 361.7431 Z"
         style="fill:white; clip-path:url(#clipPath9); stroke:none;"
         clip-path="url(#clipPath9)"
         id="path216" />
      <path
         d="M258.0503 361.7431 C260.1075 363.747 260.1505 367.0392 258.1466 369.0963 C256.1426 371.1535 252.8504 371.1966 250.7933 369.1927 C248.7362 367.1887 248.6931 363.8965 250.697 361.8394 C252.701 359.7822 255.9931 359.7391 258.0503 361.7431 Z"
         style="fill:none; clip-path:url(#clipPath9);"
         clip-path="url(#clipPath9)"
         id="path218" />
    </g>
    <g
       style="text-rendering:geometricPrecision;"
       id="g226">
      <path
         d="M411.625 330.75 L412.8251 392.5017"
         style="fill:none; clip-path:url(#clipPath10);"
         clip-path="url(#clipPath10)"
         id="path222" />
      <path
         d="M418.0241 392.4007 L413.0525 404.1995 L407.6261 392.6028 Z"
         style="clip-path:url(#clipPath10); stroke:none;"
         clip-path="url(#clipPath10)"
         id="path224" />
    </g>
    <g
       style="text-rendering:geometricPrecision;"
       id="g234">
      <path
         d="M657 267 L570.3876 251.1951"
         style="fill:none; clip-path:url(#clipPath11);"
         clip-path="url(#clipPath11)"
         id="path228" />
      <path
         d="M560.1565 249.3282 C560.6721 246.503 563.3802 244.6306 566.2055 245.1461 C569.0307 245.6617 570.9031 248.3699 570.3876 251.1951 C569.872 254.0204 567.1638 255.8927 564.3386 255.3772 C561.5133 254.8616 559.6409 252.1534 560.1565 249.3282 Z"
         style="fill:white; clip-path:url(#clipPath11); stroke:none;"
         clip-path="url(#clipPath11)"
         id="path230" />
      <path
         d="M560.1565 249.3282 C560.6721 246.503 563.3802 244.6306 566.2055 245.1461 C569.0307 245.6617 570.9031 248.3699 570.3876 251.1951 C569.872 254.0204 567.1638 255.8927 564.3386 255.3772 C561.5133 254.8616 559.6409 252.1534 560.1565 249.3282 Z"
         style="fill:none; clip-path:url(#clipPath11);"
         clip-path="url(#clipPath11)"
         id="path232" />
    </g>
    <g
       style="text-rendering:geometricPrecision;"
       id="g240">
      <path
         d="M514.5 210.5 L418.229 299.6355"
         style="fill:none; clip-path:url(#clipPath12);"
         clip-path="url(#clipPath12)"
         id="path236" />
      <path
         d="M421.7618 303.4511 L409.6438 307.5844 L414.6962 295.8199 Z"
         style="clip-path:url(#clipPath12); stroke:none;"
         clip-path="url(#clipPath12)"
         id="path238" />
    </g>
    <g
       style="text-rendering:geometricPrecision;"
       id="g246">
      <path
         d="M514.5 210.5 L622.7497 301.9422"
         style="fill:none; clip-path:url(#clipPath13);"
         clip-path="url(#clipPath13)"
         id="path242" />
      <path
         d="M626.1053 297.9698 L631.6876 309.4923 L619.3941 305.9146 Z"
         style="clip-path:url(#clipPath13); stroke:none;"
         clip-path="url(#clipPath13)"
         id="path244" />
    </g>
    <g
       style="text-rendering:geometricPrecision;"
       id="g254">
      <path
         d="M111 131 L174.0002 131.4315"
         style="fill:none; clip-path:url(#clipPath14);"
         clip-path="url(#clipPath14)"
         id="path248" />
      <path
         d="M184.4 131.5027 C184.3803 134.3746 182.0363 136.6867 179.1645 136.667 C176.2927 136.6473 173.9806 134.3033 174.0002 131.4315 C174.0199 128.5597 176.3639 126.2476 179.2357 126.2672 C182.1075 126.2869 184.4197 128.6309 184.4 131.5027 Z"
         style="fill:white; clip-path:url(#clipPath14); stroke:none;"
         clip-path="url(#clipPath14)"
         id="path250" />
      <path
         d="M184.4 131.5027 C184.3803 134.3746 182.0363 136.6867 179.1645 136.667 C176.2927 136.6473 173.9806 134.3033 174.0002 131.4315 C174.0199 128.5597 176.3639 126.2476 179.2357 126.2672 C182.1075 126.2869 184.4197 128.6309 184.4 131.5027 Z"
         style="fill:none; clip-path:url(#clipPath14);"
         clip-path="url(#clipPath14)"
         id="path252" />
    </g>
    <g
       style="text-rendering:geometricPrecision;"
       id="g260">
      <path
         d="M383.75 525.5 L184 295.5"
         style="fill:none; clip-path:url(#clipPath15);"
         clip-path="url(#clipPath15)"
         id="path256" />
      <path
         d="M184 295.5 L187.7458 307.7433 L195.5979 300.924 Z"
         style="clip-path:url(#clipPath15); fill-rule:evenodd; stroke:none;"
         clip-path="url(#clipPath15)"
         id="path258" />
    </g>
    <g
       style="text-rendering:geometricPrecision;"
       id="g268">
      <path
         d="M161.5 295.5 L163.9226 379.2529"
         style="fill:none; clip-path:url(#clipPath16);"
         clip-path="url(#clipPath16)"
         id="path262" />
      <path
         d="M173.0188 378.9898 L173.0564 380.2893 L153.5645 380.8531 L153.5269 379.5536 L173.0188 378.9898 Z"
         style="fill:white; clip-path:url(#clipPath16); stroke:none;"
         clip-path="url(#clipPath16)"
         id="path264" />
      <path
         d="M173.0188 378.9898 L173.0564 380.2893 L153.5645 380.8531 L153.5269 379.5536 L173.0188 378.9898 Z"
         style="fill:none; clip-path:url(#clipPath16);"
         clip-path="url(#clipPath16)"
         id="path266" />
    </g>
    <g
       style="text-rendering:geometricPrecision;"
       id="g274">
      <path
         d="M206.5 295.5 L383.75 525.5"
         style="fill:none; clip-path:url(#clipPath17);"
         clip-path="url(#clipPath17)"
         id="path270" />
      <path
         d="M383.75 525.5 L380.7269 513.0585 L372.4893 519.4069 Z"
         style="clip-path:url(#clipPath17); fill-rule:evenodd; stroke:none;"
         clip-path="url(#clipPath17)"
         id="path272" />
    </g>
    <g
       style="text-rendering:geometricPrecision;"
       id="g280">
      <path
         d="M413 426.5 L414.5 525.5"
         style="fill:none; clip-path:url(#clipPath18);"
         clip-path="url(#clipPath18)"
         id="path276" />
      <path
         d="M414.5 525.5 L419.5222 513.7225 L409.1234 513.8801 Z"
         style="clip-path:url(#clipPath18); fill-rule:evenodd; stroke:none;"
         clip-path="url(#clipPath18)"
         id="path278" />
    </g>
    <g
       style="text-rendering:geometricPrecision;"
       id="g288">
      <path
         d="M222 398.75 L269.0482 403.8075"
         style="fill:none; clip-path:url(#clipPath19);"
         clip-path="url(#clipPath19)"
         id="path282" />
      <path
         d="M279.3887 404.9191 C279.0817 407.7745 276.5181 409.8405 273.6627 409.5335 C270.8073 409.2266 268.7413 406.663 269.0482 403.8075 C269.3552 400.9521 271.9188 398.8861 274.7742 399.1931 C277.6297 399.5 279.6956 402.0637 279.3887 404.9191 Z"
         style="fill:white; clip-path:url(#clipPath19); stroke:none;"
         clip-path="url(#clipPath19)"
         id="path284" />
      <path
         d="M279.3887 404.9191 C279.0817 407.7745 276.5181 409.8405 273.6627 409.5335 C270.8073 409.2266 268.7413 406.663 269.0482 403.8075 C269.3552 400.9521 271.9188 398.8861 274.7742 399.1931 C277.6297 399.5 279.6956 402.0637 279.3887 404.9191 Z"
         style="fill:none; clip-path:url(#clipPath19);"
         clip-path="url(#clipPath19)"
         id="path286" />
    </g>
    <g
       style="text-rendering:geometricPrecision;"
       id="g294">
      <path
         d="M629.625 332.75 L629.625 538 M629.625 538 L476 538"
         style="fill:none; clip-path:url(#clipPath20);"
         clip-path="url(#clipPath20)"
         id="path290" />
      <path
         d="M476 538 L487.7 543.2 L487.7 532.8 Z"
         style="clip-path:url(#clipPath20); fill-rule:evenodd; stroke:none;"
         clip-path="url(#clipPath20)"
         id="path292" />
    </g>
    <g
       style="text-rendering:geometricPrecision;"
       id="g300">
      <path
         d="M139 283 L116.9953 283.7098"
         style="fill:none; clip-path:url(#clipPath21);"
         clip-path="url(#clipPath21)"
         id="path296" />
      <path
         d="M117.163 288.9071 L105.3014 284.0871 L116.8277 278.5125 Z"
         style="clip-path:url(#clipPath21); stroke:none;"
         clip-path="url(#clipPath21)"
         id="path298" />
    </g>
    <g
       style="text-rendering:geometricPrecision;"
       id="g306">
      <path
         d="M206.5 270.5 L206.5 207.5"
         style="fill:none; clip-path:url(#clipPath22);"
         clip-path="url(#clipPath22)"
         id="path302" />
      <path
         d="M201.3 207.5 L206.5 195.8 L211.7 207.5 Z"
         style="clip-path:url(#clipPath22); stroke:none;"
         clip-path="url(#clipPath22)"
         id="path304" />
    </g>
    <g
       style="text-rendering:geometricPrecision;"
       id="g312">
      <path
         d="M63 296.5 L63 538 M63 538 L353 538"
         style="fill:none; clip-path:url(#clipPath23);"
         clip-path="url(#clipPath23)"
         id="path308" />
      <path
         d="M353 538 L341.3 532.8 L341.3 543.2 Z"
         style="clip-path:url(#clipPath23); fill-rule:evenodd; stroke:none;"
         clip-path="url(#clipPath23)"
         id="path310" />
    </g>
    <g
       style="text-rendering:geometricPrecision;"
       id="g318">
      <path
         d="M184 103.5 L184 164.5"
         style="fill:none; clip-path:url(#clipPath24);"
         clip-path="url(#clipPath24)"
         id="path314" />
      <path
         d="M189.2 164.5 L184 176.2 L178.8 164.5 Z"
         style="clip-path:url(#clipPath24); stroke:none;"
         clip-path="url(#clipPath24)"
         id="path316" />
    </g>
    <g
       style="text-rendering:geometricPrecision;"
       id="g324">
      <path
         d="M139 186 L108 186"
         style="fill:none; clip-path:url(#clipPath25);"
         clip-path="url(#clipPath25)"
         id="path320" />
      <path
         d="M108 186 L119.7 191.2 L119.7 180.8 Z"
         style="clip-path:url(#clipPath25); fill-rule:evenodd; stroke:none;"
         clip-path="url(#clipPath25)"
         id="path322" />
    </g>
    <g
       style="text-rendering:geometricPrecision;"
       id="g330">
      <path
         d="M161.5 198.5 L161.5 261.5"
         style="fill:none; clip-path:url(#clipPath26);"
         clip-path="url(#clipPath26)"
         id="path326" />
      <path
         d="M166.7 261.5 L161.5 273.2 L156.3 261.5 Z"
         style="clip-path:url(#clipPath26); stroke:none;"
         clip-path="url(#clipPath26)"
         id="path328" />
    </g>
    <g
       style="fill:navy; text-rendering:geometricPrecision; font-size:8; stroke:navy;"
       id="g334">
      <text
         x="155"
         xml:space="preserve"
         y="356"
         style="clip-path:url(#clipPath28); stroke:none;"
         clip-path="url(#clipPath28)"
         id="text332">1</text>
    </g>
    <g
       style="text-rendering:geometricPrecision;"
       id="g338">
      <text
         x="362"
         xml:space="preserve"
         y="542"
         style="clip-path:url(#clipPath29); stroke:none;"
         clip-path="url(#clipPath29)"
         id="text336">Urinary excretion</text>
    </g>
    <g
       style="fill:white; text-rendering:geometricPrecision; stroke:white;"
       id="g346">
      <path
         d="M657 204 L737 204 L737 224 L657 224 L657 204 Z"
         style="clip-path:url(#clipPath30); stroke:none;"
         clip-path="url(#clipPath30)"
         id="path340" />
      <path
         d="M657 204 L737 204 L737 224 L657 224 L657 204 Z"
         style="fill:none; clip-path:url(#clipPath30); stroke:black;"
         clip-path="url(#clipPath30)"
         id="path342" />
      <text
         x="677"
         y="218"
         style="fill:black; clip-path:url(#clipPath30); stroke:none;"
         xml:space="preserve"
         clip-path="url(#clipPath30)"
         id="text344">PRMT8</text>
    </g>
    <g
       style="fill:white; text-rendering:geometricPrecision; stroke:white;"
       id="g354">
      <path
         d="M23 121 L103 121 L103 141 L23 141 L23 121 Z"
         style="clip-path:url(#clipPath31); stroke:none;"
         clip-path="url(#clipPath31)"
         id="path348" />
      <path
         d="M23 121 L103 121 L103 141 L23 141 L23 121 Z"
         style="fill:none; clip-path:url(#clipPath31); stroke:black;"
         clip-path="url(#clipPath31)"
         id="path350" />
      <text
         x="47"
         y="135"
         style="fill:black; clip-path:url(#clipPath31); stroke:none;"
         xml:space="preserve"
         clip-path="url(#clipPath31)"
         id="text352">NOS2</text>
    </g>
    <g
       style="fill:white; text-rendering:geometricPrecision; stroke:white;"
       id="g362">
      <path
         d="M283 364 L363 364 L363 384 L283 384 L283 364 Z"
         style="clip-path:url(#clipPath32); stroke:none;"
         clip-path="url(#clipPath32)"
         id="path356" />
      <path
         d="M283 364 L363 364 L363 384 L283 384 L283 364 Z"
         style="fill:none; clip-path:url(#clipPath32); stroke:black;"
         clip-path="url(#clipPath32)"
         id="path358" />
      <text
         x="302"
         y="378"
         style="fill:black; clip-path:url(#clipPath32); stroke:none;"
         xml:space="preserve"
         clip-path="url(#clipPath32)"
         id="text360">DDAH2</text>
    </g>
    <g
       style="fill:white; text-rendering:geometricPrecision; stroke:white;"
       id="g370">
      <path
         d="M23 141 L103 141 L103 161 L23 161 L23 141 Z"
         style="clip-path:url(#clipPath33); stroke:none;"
         clip-path="url(#clipPath33)"
         id="path364" />
      <path
         d="M23 141 L103 141 L103 161 L23 161 L23 141 Z"
         style="fill:none; clip-path:url(#clipPath33); stroke:black;"
         clip-path="url(#clipPath33)"
         id="path366" />
      <text
         x="47"
         y="155"
         style="fill:black; clip-path:url(#clipPath33); stroke:none;"
         xml:space="preserve"
         clip-path="url(#clipPath33)"
         id="text368">NOS3</text>
    </g>
    <g
       style="fill:white; text-rendering:geometricPrecision; stroke:white;"
       id="g378">
      <path
         d="M139 78.5 L229 78.5 L229 103.5 L139 103.5 L139 78.5 Z"
         style="clip-path:url(#clipPath34); stroke:none;"
         clip-path="url(#clipPath34)"
         id="path372" />
      <path
         d="M139 78.5 L229 78.5 L229 103.5 L139 103.5 L139 78.5 Z"
         style="fill:none; clip-path:url(#clipPath34); stroke:blue;"
         clip-path="url(#clipPath34)"
         id="path374" />
      <text
         x="154"
         y="95"
         style="fill:blue; clip-path:url(#clipPath34); stroke:none;"
         xml:space="preserve"
         clip-path="url(#clipPath34)"
         id="text376">L-Arginine</text>
    </g>
    <g
       style="fill:white; text-rendering:geometricPrecision; stroke:white;"
       id="g386">
      <path
         d="M657 144 L737 144 L737 164 L657 164 L657 144 Z"
         style="clip-path:url(#clipPath35); stroke:none;"
         clip-path="url(#clipPath35)"
         id="path380" />
      <path
         d="M657 144 L737 144 L737 164 L657 164 L657 144 Z"
         style="fill:none; clip-path:url(#clipPath35); stroke:black;"
         clip-path="url(#clipPath35)"
         id="path382" />
      <text
         x="677"
         y="158"
         style="fill:black; clip-path:url(#clipPath35); stroke:none;"
         xml:space="preserve"
         clip-path="url(#clipPath35)"
         id="text384">PRMT5</text>
    </g>
    <g
       style="fill:white; text-rendering:geometricPrecision; stroke:white;"
       id="g394">
      <path
         d="M23 101 L103 101 L103 121 L23 121 L23 101 Z"
         style="clip-path:url(#clipPath36); stroke:none;"
         clip-path="url(#clipPath36)"
         id="path388" />
      <path
         d="M23 101 L103 101 L103 121 L23 121 L23 101 Z"
         style="fill:none; clip-path:url(#clipPath36); stroke:black;"
         clip-path="url(#clipPath36)"
         id="path390" />
      <text
         x="45"
         y="115"
         style="fill:black; clip-path:url(#clipPath36); stroke:none;"
         xml:space="preserve"
         clip-path="url(#clipPath36)"
         id="text392">NOS1 </text>
    </g>
    <g
       style="fill:white; text-rendering:geometricPrecision; stroke:white;"
       id="g402">
      <path
         d="M106.25 386.25 L222 386.25 L222 411.25 L106.25 411.25 L106.25 386.25 Z"
         style="clip-path:url(#clipPath37); stroke:none;"
         clip-path="url(#clipPath37)"
         id="path396" />
      <path
         d="M106.25 386.25 L222 386.25 L222 411.25 L106.25 411.25 L106.25 386.25 Z"
         style="fill:none; clip-path:url(#clipPath37); stroke:black;"
         clip-path="url(#clipPath37)"
         id="path398" />
      <text
         x="104"
         y="403"
         style="fill:black; clip-path:url(#clipPath37); stroke:none;"
         xml:space="preserve"
         clip-path="url(#clipPath37)"
         id="text400">Carboxyl anhydrase</text>
    </g>
    <g
       style="fill:white; text-rendering:geometricPrecision; stroke:white;"
       id="g410">
      <path
         d="M326.25 305.75 L497 305.75 L497 330.75 L326.25 330.75 L326.25 305.75 Z"
         style="clip-path:url(#clipPath38); stroke:none;"
         clip-path="url(#clipPath38)"
         id="path404" />
      <path
         d="M326.25 305.75 L497 305.75 L497 330.75 L326.25 330.75 L326.25 305.75 Z"
         style="fill:none; clip-path:url(#clipPath38); stroke:blue;"
         clip-path="url(#clipPath38)"
         id="path406" />
      <text
         x="324"
         y="322"
         style="fill:blue; clip-path:url(#clipPath38); stroke:none;"
         xml:space="preserve"
         clip-path="url(#clipPath38)"
         id="text408">N,N- dimethyl- L- arginine</text>
    </g>
    <g
       style="fill:white; text-rendering:geometricPrecision; stroke:white;"
       id="g418">
      <path
         d="M18 183.5 L18 188.5 C18 194.0228 22.4772 198.5 28 198.5 L98 198.5 C103.5229 198.5 108 194.0228 108 188.5 L108 183.5 C108 177.9772 103.5229 173.5 98 173.5 L28 173.5 C22.4772 173.5 18 177.9772 18 183.5 Z"
         style="clip-path:url(#clipPath39); stroke:none;"
         clip-path="url(#clipPath39)"
         id="path412" />
      <path
         d="M18 183.5 L18 188.5 C18 194.0228 22.4772 198.5 28 198.5 L98 198.5 C103.5229 198.5 108 194.0228 108 188.5 L108 183.5 C108 177.9772 103.5229 173.5 98 173.5 L28 173.5 C22.4772 173.5 18 177.9772 18 183.5 Z"
         style="fill:none; clip-path:url(#clipPath39); stroke:rgb(20,150,30);"
         clip-path="url(#clipPath39)"
         id="path414" />
      <text
         x="20"
         y="190"
         style="clip-path:url(#clipPath39); fill:rgb(20,150,30); stroke:none; font-weight:bold;"
         xml:space="preserve"
         clip-path="url(#clipPath39)"
         id="text416">NO-signaling</text>
    </g>
    <g
       style="fill:white; text-rendering:geometricPrecision; stroke:white;"
       id="g426">
      <path
         d="M283 344 L363 344 L363 364 L283 364 L283 344 Z"
         style="clip-path:url(#clipPath40); stroke:none;"
         clip-path="url(#clipPath40)"
         id="path420" />
      <path
         d="M283 344 L363 344 L363 364 L283 364 L283 344 Z"
         style="fill:none; clip-path:url(#clipPath40); stroke:black;"
         clip-path="url(#clipPath40)"
         id="path422" />
      <text
         x="302"
         y="358"
         style="fill:black; clip-path:url(#clipPath40); stroke:none;"
         xml:space="preserve"
         clip-path="url(#clipPath40)"
         id="text424">DDAH1</text>
    </g>
    <g
       style="fill:white; text-rendering:geometricPrecision; stroke:white;"
       id="g434">
      <path
         d="M657 164 L737 164 L737 184 L657 184 L657 164 Z"
         style="clip-path:url(#clipPath41); stroke:none;"
         clip-path="url(#clipPath41)"
         id="path428" />
      <path
         d="M657 164 L737 164 L737 184 L657 184 L657 164 Z"
         style="fill:none; clip-path:url(#clipPath41); stroke:black;"
         clip-path="url(#clipPath41)"
         id="path430" />
      <text
         x="677"
         y="178"
         style="fill:black; clip-path:url(#clipPath41); stroke:none;"
         xml:space="preserve"
         clip-path="url(#clipPath41)"
         id="text432">PRMT6</text>
    </g>
    <g
       style="fill:white; text-rendering:geometricPrecision; stroke:white;"
       id="g442">
      <path
         d="M657 184 L737 184 L737 204 L657 204 L657 184 Z"
         style="clip-path:url(#clipPath42); stroke:none;"
         clip-path="url(#clipPath42)"
         id="path436" />
      <path
         d="M657 184 L737 184 L737 204 L657 204 L657 184 Z"
         style="fill:none; clip-path:url(#clipPath42); stroke:black;"
         clip-path="url(#clipPath42)"
         id="path438" />
      <text
         x="677"
         y="198"
         style="fill:black; clip-path:url(#clipPath42); stroke:none;"
         xml:space="preserve"
         clip-path="url(#clipPath42)"
         id="text440">PRMT7</text>
    </g>
    <g
       style="fill:white; text-rendering:geometricPrecision; stroke:white;"
       id="g450">
      <path
         d="M657 84 L737 84 L737 104 L657 104 L657 84 Z"
         style="clip-path:url(#clipPath43); stroke:none;"
         clip-path="url(#clipPath43)"
         id="path444" />
      <path
         d="M657 84 L737 84 L737 104 L657 104 L657 84 Z"
         style="fill:none; clip-path:url(#clipPath43); stroke:black;"
         clip-path="url(#clipPath43)"
         id="path446" />
      <text
         x="677"
         y="98"
         style="fill:black; clip-path:url(#clipPath43); stroke:none;"
         xml:space="preserve"
         clip-path="url(#clipPath43)"
         id="text448">PRMT2</text>
    </g>
    <g
       style="fill:white; text-rendering:geometricPrecision; stroke:white;"
       id="g458">
      <path
         d="M657 124 L737 124 L737 144 L657 144 L657 124 Z"
         style="clip-path:url(#clipPath44); stroke:none;"
         clip-path="url(#clipPath44)"
         id="path452" />
      <path
         d="M657 124 L737 124 L737 144 L657 144 L657 124 Z"
         style="fill:none; clip-path:url(#clipPath44); stroke:black;"
         clip-path="url(#clipPath44)"
         id="path454" />
      <text
         x="676"
         y="138"
         style="fill:black; clip-path:url(#clipPath44); stroke:none;"
         xml:space="preserve"
         clip-path="url(#clipPath44)"
         id="text456">CARM1</text>
    </g>
    <g
       style="fill:white; text-rendering:geometricPrecision; stroke:white;"
       id="g466">
      <path
         d="M657 104 L737 104 L737 124 L657 124 L657 104 Z"
         style="clip-path:url(#clipPath45); stroke:none;"
         clip-path="url(#clipPath45)"
         id="path460" />
      <path
         d="M657 104 L737 104 L737 124 L657 124 L657 104 Z"
         style="fill:none; clip-path:url(#clipPath45); stroke:black;"
         clip-path="url(#clipPath45)"
         id="path462" />
      <text
         x="677"
         y="118"
         style="fill:black; clip-path:url(#clipPath45); stroke:none;"
         xml:space="preserve"
         clip-path="url(#clipPath45)"
         id="text464">PRMT3</text>
    </g>
    <g
       style="fill:white; text-rendering:geometricPrecision; stroke:white;"
       id="g474">
      <path
         d="M657 64 L737 64 L737 84 L657 84 L657 64 Z"
         style="clip-path:url(#clipPath46); stroke:none;"
         clip-path="url(#clipPath46)"
         id="path468" />
      <path
         d="M657 64 L737 64 L737 84 L657 84 L657 64 Z"
         style="fill:none; clip-path:url(#clipPath46); stroke:black;"
         clip-path="url(#clipPath46)"
         id="path470" />
      <text
         x="677"
         y="78"
         style="fill:black; clip-path:url(#clipPath46); stroke:none;"
         xml:space="preserve"
         clip-path="url(#clipPath46)"
         id="text472">PRMT1</text>
    </g>
    <g
       style="fill:white; text-rendering:geometricPrecision; stroke:white;"
       id="g482">
      <path
         d="M455 92.5 L569 92.5 L569 117.5 L455 117.5 L455 92.5 Z"
         style="clip-path:url(#clipPath47); stroke:none;"
         clip-path="url(#clipPath47)"
         id="path476" />
      <path
         d="M455 92.5 L569 92.5 L569 117.5 L455 117.5 L455 92.5 Z"
         style="fill:none; clip-path:url(#clipPath47); stroke:blue;"
         clip-path="url(#clipPath47)"
         id="path478" />
      <text
         x="458"
         y="109"
         style="fill:blue; clip-path:url(#clipPath47); stroke:none;"
         xml:space="preserve"
         clip-path="url(#clipPath47)"
         id="text480">L-arginine residue</text>
    </g>
    <g
       style="fill:white; text-rendering:geometricPrecision; stroke:white;"
       id="g490">
      <path
         d="M139 173.5 L229 173.5 L229 198.5 L139 198.5 L139 173.5 Z"
         style="clip-path:url(#clipPath48); stroke:none;"
         clip-path="url(#clipPath48)"
         id="path484" />
      <path
         d="M139 173.5 L229 173.5 L229 198.5 L139 198.5 L139 173.5 Z"
         style="fill:none; clip-path:url(#clipPath48); stroke:blue;"
         clip-path="url(#clipPath48)"
         id="path486" />
      <text
         x="150"
         y="190"
         style="fill:blue; clip-path:url(#clipPath48); stroke:none;"
         xml:space="preserve"
         clip-path="url(#clipPath48)"
         id="text488">Nitric oxide</text>
    </g>
    <g
       style="fill:white; text-rendering:geometricPrecision; stroke:white;"
       id="g498">
      <path
         d="M139 270.5 L229 270.5 L229 295.5 L139 295.5 L139 270.5 Z"
         style="clip-path:url(#clipPath49); stroke:none;"
         clip-path="url(#clipPath49)"
         id="path492" />
      <path
         d="M139 270.5 L229 270.5 L229 295.5 L139 295.5 L139 270.5 Z"
         style="fill:none; clip-path:url(#clipPath49); stroke:blue;"
         clip-path="url(#clipPath49)"
         id="path494" />
      <text
         x="135"
         y="287"
         style="fill:blue; clip-path:url(#clipPath49); stroke:none;"
         xml:space="preserve"
         clip-path="url(#clipPath49)"
         id="text496">Nitrogen dioxide</text>
    </g>
    <g
       style="fill:white; text-rendering:geometricPrecision; stroke:white;"
       id="g506">
      <path
         d="M18 271.5 L108 271.5 L108 296.5 L18 296.5 L18 271.5 Z"
         style="clip-path:url(#clipPath50); stroke:none;"
         clip-path="url(#clipPath50)"
         id="path500" />
      <path
         d="M18 271.5 L108 271.5 L108 296.5 L18 296.5 L18 271.5 Z"
         style="fill:none; clip-path:url(#clipPath50); stroke:blue;"
         clip-path="url(#clipPath50)"
         id="path502" />
      <text
         x="23"
         y="288"
         style="fill:blue; clip-path:url(#clipPath50); stroke:none;"
         xml:space="preserve"
         clip-path="url(#clipPath50)"
         id="text504">Nitrooxidanyl</text>
    </g>
    <g
       style="fill:white; text-rendering:geometricPrecision; stroke:white;"
       id="g514">
      <path
         d="M368 401.5 L458 401.5 L458 426.5 L368 426.5 L368 401.5 Z"
         style="clip-path:url(#clipPath51); stroke:none;"
         clip-path="url(#clipPath51)"
         id="path508" />
      <path
         d="M368 401.5 L458 401.5 L458 426.5 L368 426.5 L368 401.5 Z"
         style="fill:none; clip-path:url(#clipPath51); stroke:blue;"
         clip-path="url(#clipPath51)"
         id="path510" />
      <text
         x="368"
         y="418"
         style="fill:blue; clip-path:url(#clipPath51); stroke:none;"
         xml:space="preserve"
         clip-path="url(#clipPath51)"
         id="text512">Dimethylamine</text>
    </g>
    <g
       style="fill:white; text-rendering:geometricPrecision; stroke:white;"
       id="g522">
      <path
         d="M544.25 307.75 L715 307.75 L715 332.75 L544.25 332.75 L544.25 307.75 Z"
         style="clip-path:url(#clipPath52); stroke:none;"
         clip-path="url(#clipPath52)"
         id="path516" />
      <path
         d="M544.25 307.75 L715 307.75 L715 332.75 L544.25 332.75 L544.25 307.75 Z"
         style="fill:none; clip-path:url(#clipPath52); stroke:blue;"
         clip-path="url(#clipPath52)"
         id="path518" />
      <text
         x="546"
         y="324"
         style="fill:blue; clip-path:url(#clipPath52); stroke:none;"
         xml:space="preserve"
         clip-path="url(#clipPath52)"
         id="text520">N,N'-dimethyl-L-arginine</text>
    </g>
    <g
       style="fill:white; text-rendering:geometricPrecision; stroke:white;"
       id="g530">
      <path
         d="M415 185.5 L614 185.5 L614 210.5 L415 210.5 L415 185.5 Z"
         style="clip-path:url(#clipPath53); stroke:none;"
         clip-path="url(#clipPath53)"
         id="path524" />
      <path
         d="M415 185.5 L614 185.5 L614 210.5 L415 210.5 L415 185.5 Z"
         style="fill:none; clip-path:url(#clipPath53); stroke:blue;"
         clip-path="url(#clipPath53)"
         id="path526" />
      <text
         x="409"
         y="202"
         style="fill:blue; clip-path:url(#clipPath53); stroke:none;"
         xml:space="preserve"
         clip-path="url(#clipPath53)"
         id="text528">N,N-dimethyl-L-arginine residue</text>
    </g>
    <g
       style="fill:white; text-rendering:geometricPrecision; stroke:white;"
       id="g538">
      <path
         d="M657 254.5 L745 254.5 L745 279.5 L657 279.5 L657 254.5 Z"
         style="clip-path:url(#clipPath54); stroke:none;"
         clip-path="url(#clipPath54)"
         id="path532" />
      <path
         d="M657 254.5 L745 254.5 L745 279.5 L657 279.5 L657 254.5 Z"
         style="fill:none; clip-path:url(#clipPath54); stroke:black;"
         clip-path="url(#clipPath54)"
         id="path534" />
      <text
         x="672"
         y="271"
         style="fill:black; clip-path:url(#clipPath54); stroke:none;"
         xml:space="preserve"
         clip-path="url(#clipPath54)"
         id="text536">Proteases</text>
    </g>
  </g>
</svg>
