<?xml version="1.0" encoding="UTF-8" standalone="no"?>
<svg
   style="fill-opacity:1; color-rendering:auto; color-interpolation:auto; stroke:black; text-rendering:auto; stroke-linecap:square; stroke-miterlimit:10; stroke-opacity:1; shape-rendering:auto; fill:black; stroke-dasharray:none; font-weight:normal; stroke-width:1; font-family:'Dialog'; font-style:normal; stroke-linejoin:miter; font-size:12; stroke-dashoffset:0; image-rendering:auto;"
   width="1016"
   height="635"
   version="1.1"
   id="svg668"
   xmlns="http://www.w3.org/2000/svg"
   xmlns:svg="http://www.w3.org/2000/svg">
  <!--Generated by the Batik Graphics2D SVG Generator-->
  <defs
     id="genericDefs" />
  <g
     id="g666">
    <defs
       id="defs1">
      <clipPath
         clipPathUnits="userSpaceOnUse"
         id="clipPath1">
        <path
           d="M0 0 L1032 0 L1032 651 L0 651 L0 0 Z"
           id="path3" />
      </clipPath>
      <clipPath
         clipPathUnits="userSpaceOnUse"
         id="clipPath2">
        <path
           d="M0 0 L0 200 L200 200 L200 0 Z"
           id="path6" />
      </clipPath>
      <clipPath
         clipPathUnits="userSpaceOnUse"
         id="clipPath3">
        <path
           d="M199 15 L199 36 L225 36 L225 15 Z"
           id="path9" />
      </clipPath>
      <clipPath
         clipPathUnits="userSpaceOnUse"
         id="clipPath4">
        <path
           d="M201.3672 2.918 L222.6328 2.918 L222.6328 18.2305 L201.3672 18.2305 L201.3672 2.918 Z"
           id="path12" />
      </clipPath>
      <clipPath
         clipPathUnits="userSpaceOnUse"
         id="clipPath5">
        <path
           d="M411.4566 401.4961 L411.4566 469.931 L423.395 469.931 L423.395 401.4961 Z"
           id="path15" />
      </clipPath>
      <clipPath
         clipPathUnits="userSpaceOnUse"
         id="clipPath6">
        <path
           d="M415.6979 158.0303 L415.6979 169.4303 L454.5041 169.4303 L454.5041 158.0303 Z"
           id="path18" />
      </clipPath>
      <clipPath
         clipPathUnits="userSpaceOnUse"
         id="clipPath7">
        <path
           d="M649.0306 206.5 L649.0306 289.2311 L660.9694 289.2311 L660.9694 206.5 Z"
           id="path21" />
      </clipPath>
      <clipPath
         clipPathUnits="userSpaceOnUse"
         id="clipPath8">
        <path
           d="M410.362 134.7362 L410.362 187.5085 L422.299 187.5085 L422.299 134.7362 Z"
           id="path24" />
      </clipPath>
      <clipPath
         clipPathUnits="userSpaceOnUse"
         id="clipPath9">
        <path
           d="M274.887 335.4983 L274.887 367.3438 L286.287 367.3438 L286.287 335.4983 Z"
           id="path27" />
      </clipPath>
      <clipPath
         clipPathUnits="userSpaceOnUse"
         id="clipPath10">
        <path
           d="M724.6263 381.0746 L724.6263 427.0404 L746.447 427.0404 L746.447 381.0746 Z"
           id="path30" />
      </clipPath>
      <clipPath
         clipPathUnits="userSpaceOnUse"
         id="clipPath11">
        <path
           d="M416.0996 228.84 L416.0996 240.24 L465.5062 240.24 L465.5062 228.84 Z"
           id="path33" />
      </clipPath>
      <clipPath
         clipPathUnits="userSpaceOnUse"
         id="clipPath12">
        <path
           d="M274.9792 236.0602 L274.9792 280.5023 L286.3792 280.5023 L286.3792 236.0602 Z"
           id="path36" />
      </clipPath>
      <clipPath
         clipPathUnits="userSpaceOnUse"
         id="clipPath13">
        <path
           d="M416.4135 401.4135 L416.4135 510.8218 L579.0787 510.8218 L579.0787 401.4135 Z"
           id="path39" />
      </clipPath>
      <clipPath
         clipPathUnits="userSpaceOnUse"
         id="clipPath14">
        <path
           d="M456.4218 304.2375 L456.4218 392.5782 L637.9609 392.5782 L637.9609 304.2375 Z"
           id="path42" />
      </clipPath>
      <clipPath
         clipPathUnits="userSpaceOnUse"
         id="clipPath15">
        <path
           d="M537.3931 421.6653 L537.3931 441.0368 L554.3702 441.0368 L554.3702 421.6653 Z"
           id="path45" />
      </clipPath>
      <clipPath
         clipPathUnits="userSpaceOnUse"
         id="clipPath16">
        <path
           d="M595.9611 325.961 L595.9611 347.5406 L619.6372 347.5406 L619.6372 325.961 Z"
           id="path48" />
      </clipPath>
      <clipPath
         clipPathUnits="userSpaceOnUse"
         id="clipPath17">
        <path
           d="M232.513 363.5917 L232.513 416.8351 L397.6826 416.8351 L397.6826 363.5917 Z"
           id="path51" />
      </clipPath>
      <clipPath
         clipPathUnits="userSpaceOnUse"
         id="clipPath18">
        <path
           d="M411.0306 206.5 L411.0306 279.9311 L422.9694 279.9311 L422.9694 206.5 Z"
           id="path54" />
      </clipPath>
      <clipPath
         clipPathUnits="userSpaceOnUse"
         id="clipPath19">
        <path
           d="M253.3416 199.1714 L253.3416 244.4731 L401.1085 244.4731 L401.1085 199.1714 Z"
           id="path57" />
      </clipPath>
      <clipPath
         clipPathUnits="userSpaceOnUse"
         id="clipPath20">
        <path
           d="M449.5 191.0306 L449.5 202.9694 L598.9312 202.9694 L598.9312 191.0306 Z"
           id="path60" />
      </clipPath>
      <clipPath
         clipPathUnits="userSpaceOnUse"
         id="clipPath21">
        <path
           d="M465.1176 449.7817 L465.1176 461.7314 L523.2183 461.7314 L523.2183 449.7817 Z"
           id="path63" />
      </clipPath>
      <clipPath
         clipPathUnits="userSpaceOnUse"
         id="clipPath22">
        <path
           d="M411.0306 295.5 L411.0306 383.2311 L422.9694 383.2311 L422.9694 295.5 Z"
           id="path66" />
      </clipPath>
      <clipPath
         clipPathUnits="userSpaceOnUse"
         id="clipPath23">
        <path
           d="M416.0997 324.6451 L416.0997 336.0451 L452.5057 336.0451 L452.5057 324.6451 Z"
           id="path69" />
      </clipPath>
      <clipPath
         clipPathUnits="userSpaceOnUse"
         id="clipPath24">
        <path
           d="M456.4196 391.4196 L456.4196 432.1533 L631.264 432.1533 L631.264 391.4196 Z"
           id="path72" />
      </clipPath>
      <clipPath
         clipPathUnits="userSpaceOnUse"
         id="clipPath25">
        <path
           d="M164.5 74.5 L164.5 547.5 L831.5 547.5 L831.5 74.5 Z"
           id="path75" />
      </clipPath>
      <clipPath
         clipPathUnits="userSpaceOnUse"
         id="clipPath26">
        <path
           d="M741.4589 518.5 L741.4589 539.5 L811.4589 539.5 L811.4589 518.5 Z"
           id="path78" />
      </clipPath>
      <clipPath
         clipPathUnits="userSpaceOnUse"
         id="clipPath27">
        <path
           d="M594.5 186.5 L594.5 207.5 L675.5 207.5 L675.5 186.5 Z"
           id="path81" />
      </clipPath>
      <clipPath
         clipPathUnits="userSpaceOnUse"
         id="clipPath28">
        <path
           d="M250.5 287.5 L250.5 308.5 L310.5 308.5 L310.5 287.5 Z"
           id="path84" />
      </clipPath>
      <clipPath
         clipPathUnits="userSpaceOnUse"
         id="clipPath29">
        <path
           d="M362.5 275.5 L362.5 296.5 L471.5 296.5 L471.5 275.5 Z"
           id="path87" />
      </clipPath>
      <clipPath
         clipPathUnits="userSpaceOnUse"
         id="clipPath30">
        <path
           d="M371.5 465.5 L371.5 486.5 L463.5 486.5 L463.5 465.5 Z"
           id="path90" />
      </clipPath>
      <clipPath
         clipPathUnits="userSpaceOnUse"
         id="clipPath31">
        <path
           d="M29.5 434.5 L29.5 455.5 L131.5 455.5 L131.5 434.5 Z"
           id="path93" />
      </clipPath>
      <clipPath
         clipPathUnits="userSpaceOnUse"
         id="clipPath32">
        <path
           d="M372.1667 29.5 L372.1667 50.5 L460.1667 50.5 L460.1667 29.5 Z"
           id="path96" />
      </clipPath>
      <clipPath
         clipPathUnits="userSpaceOnUse"
         id="clipPath33">
        <path
           d="M621.5 600.5 L621.5 621.5 L720.5 621.5 L720.5 600.5 Z"
           id="path99" />
      </clipPath>
      <clipPath
         clipPathUnits="userSpaceOnUse"
         id="clipPath34">
        <path
           d="M614.5 287.5 L614.5 308.5 L695.5 308.5 L695.5 287.5 Z"
           id="path102" />
      </clipPath>
      <clipPath
         clipPathUnits="userSpaceOnUse"
         id="clipPath35">
        <path
           d="M451.5 319.5 L451.5 340.5 L500.5 340.5 L500.5 319.5 Z"
           id="path105" />
      </clipPath>
      <clipPath
         clipPathUnits="userSpaceOnUse"
         id="clipPath36">
        <path
           d="M472.5 213.5 L472.5 234.5 L535.5 234.5 L535.5 213.5 Z"
           id="path108" />
      </clipPath>
      <clipPath
         clipPathUnits="userSpaceOnUse"
         id="clipPath37">
        <path
           d="M534.1667 316.1667 L534.1667 337.1667 L597.1667 337.1667 L597.1667 316.1667 Z"
           id="path111" />
      </clipPath>
      <clipPath
         clipPathUnits="userSpaceOnUse"
         id="clipPath38">
        <path
           d="M522.1667 439.8333 L522.1667 460.8333 L585.1667 460.8333 L585.1667 439.8333 Z"
           id="path114" />
      </clipPath>
      <clipPath
         clipPathUnits="userSpaceOnUse"
         id="clipPath39">
        <path
           d="M383.5 186.5 L383.5 207.5 L450.5 207.5 L450.5 186.5 Z"
           id="path117" />
      </clipPath>
      <clipPath
         clipPathUnits="userSpaceOnUse"
         id="clipPath40">
        <path
           d="M472.5 233.5 L472.5 254.5 L535.5 254.5 L535.5 233.5 Z"
           id="path120" />
      </clipPath>
      <clipPath
         clipPathUnits="userSpaceOnUse"
         id="clipPath41">
        <path
           d="M663.5 364.5 L663.5 385.5 L818.5 385.5 L818.5 364.5 Z"
           id="path123" />
      </clipPath>
      <clipPath
         clipPathUnits="userSpaceOnUse"
         id="clipPath42">
        <path
           d="M216.5 182.5 L216.5 203.5 L297.5 203.5 L297.5 182.5 Z"
           id="path126" />
      </clipPath>
      <clipPath
         clipPathUnits="userSpaceOnUse"
         id="clipPath43">
        <path
           d="M745.5 32.5 L745.5 53.5 L826.5 53.5 L826.5 32.5 Z"
           id="path129" />
      </clipPath>
      <clipPath
         clipPathUnits="userSpaceOnUse"
         id="clipPath44">
        <path
           d="M372.1667 118.1667 L372.1667 139.1667 L460.1667 139.1667 L460.1667 118.1667 Z"
           id="path132" />
      </clipPath>
      <clipPath
         clipPathUnits="userSpaceOnUse"
         id="clipPath45">
        <path
           d="M371.5 593.5 L371.5 614.5 L463.5 614.5 L463.5 593.5 Z"
           id="path135" />
      </clipPath>
      <clipPath
         clipPathUnits="userSpaceOnUse"
         id="clipPath46">
        <path
           d="M550.5 506.5 L550.5 527.5 L649.5 527.5 L649.5 506.5 Z"
           id="path138" />
      </clipPath>
      <clipPath
         clipPathUnits="userSpaceOnUse"
         id="clipPath47">
        <path
           d="M250.5 307.5 L250.5 328.5 L310.5 328.5 L310.5 307.5 Z"
           id="path141" />
      </clipPath>
      <clipPath
         clipPathUnits="userSpaceOnUse"
         id="clipPath48">
        <path
           d="M847.5 277.5 L847.5 298.5 L1002.5 298.5 L1002.5 277.5 Z"
           id="path144" />
      </clipPath>
      <clipPath
         clipPathUnits="userSpaceOnUse"
         id="clipPath49">
        <path
           d="M594.5 30.5 L594.5 51.5 L675.5 51.5 L675.5 30.5 Z"
           id="path147" />
      </clipPath>
      <clipPath
         clipPathUnits="userSpaceOnUse"
         id="clipPath50">
        <path
           d="M453.5 153.5 L453.5 174.5 L502.5 174.5 L502.5 153.5 Z"
           id="path150" />
      </clipPath>
      <clipPath
         clipPathUnits="userSpaceOnUse"
         id="clipPath51">
        <path
           d="M626.8333 415.8333 L626.8333 436.8333 L725.8333 436.8333 L725.8333 415.8333 Z"
           id="path153" />
      </clipPath>
      <clipPath
         clipPathUnits="userSpaceOnUse"
         id="clipPath52">
        <path
           d="M172.5 34.5 L172.5 55.5 L239.5 55.5 L239.5 34.5 Z"
           id="path156" />
      </clipPath>
      <clipPath
         clipPathUnits="userSpaceOnUse"
         id="clipPath53">
        <path
           d="M757.5 557.5 L757.5 578.5 L856.5 578.5 L856.5 557.5 Z"
           id="path159" />
      </clipPath>
      <clipPath
         clipPathUnits="userSpaceOnUse"
         id="clipPath54">
        <path
           d="M376.5 381.5 L376.5 402.5 L457.5 402.5 L457.5 381.5 Z"
           id="path162" />
      </clipPath>
      <clipPath
         clipPathUnits="userSpaceOnUse"
         id="clipPath55">
        <path
           d="M56.5 165.5 L56.5 186.5 L137.5 186.5 L137.5 165.5 Z"
           id="path165" />
      </clipPath>
      <clipPath
         clipPathUnits="userSpaceOnUse"
         id="clipPath56">
        <path
           d="M248.5 591.5 L248.5 612.5 L329.5 612.5 L329.5 591.5 Z"
           id="path168" />
      </clipPath>
      <clipPath
         clipPathUnits="userSpaceOnUse"
         id="clipPath57">
        <path
           d="M210.5 412.5 L210.5 433.5 L312.5 433.5 L312.5 412.5 Z"
           id="path171" />
      </clipPath>
      <clipPath
         clipPathUnits="userSpaceOnUse"
         id="clipPath58">
        <path
           d="M574.9102 526.4102 L574.9102 611.4835 L622.1273 611.4835 L622.1273 526.4102 Z"
           id="path174" />
      </clipPath>
      <clipPath
         clipPathUnits="userSpaceOnUse"
         id="clipPath59">
        <path
           d="M651.2116 435.7116 L651.2116 568.4921 L758.0883 568.4921 L758.0883 435.7116 Z"
           id="path177" />
      </clipPath>
      <clipPath
         clipPathUnits="userSpaceOnUse"
         id="clipPath60">
        <path
           d="M817.3467 297.4409 L817.3467 375.6533 L887.0591 375.6533 L887.0591 297.4409 Z"
           id="path180" />
      </clipPath>
      <clipPath
         clipPathUnits="userSpaceOnUse"
         id="clipPath61">
        <path
           d="M694.2929 51.7706 L694.2929 298.7071 L791.3146 298.7071 L791.3146 51.7706 Z"
           id="path183" />
      </clipPath>
      <clipPath
         clipPathUnits="userSpaceOnUse"
         id="clipPath62">
        <path
           d="M634.5 50.5 L634.5 187.5 L635.5 187.5 L635.5 50.5 Z"
           id="path186" />
      </clipPath>
      <clipPath
         clipPathUnits="userSpaceOnUse"
         id="clipPath63">
        <path
           d="M415.6667 49.5 L415.6667 119.1667 L416.6667 119.1667 L416.6667 49.5 Z"
           id="path189" />
      </clipPath>
      <clipPath
         clipPathUnits="userSpaceOnUse"
         id="clipPath64">
        <path
           d="M204.0719 53.8286 L204.0719 129.2405 L373.2405 129.2405 L373.2405 53.8286 Z"
           id="path192" />
      </clipPath>
      <clipPath
         clipPathUnits="userSpaceOnUse"
         id="clipPath65">
        <path
           d="M136.407 175.407 L136.407 193.593 L217.593 193.593 L217.593 175.407 Z"
           id="path195" />
      </clipPath>
      <clipPath
         clipPathUnits="userSpaceOnUse"
         id="clipPath66">
        <path
           d="M130.3853 422.3853 L130.3853 445.6147 L211.6147 445.6147 L211.6147 422.3853 Z"
           id="path198" />
      </clipPath>
      <clipPath
         clipPathUnits="userSpaceOnUse"
         id="clipPath67">
        <path
           d="M417 485.5 L417 594.5 L418 594.5 L418 485.5 Z"
           id="path201" />
      </clipPath>
      <clipPath
         clipPathUnits="userSpaceOnUse"
         id="clipPath68">
        <path
           d="M288.4696 391.2957 L288.4696 592.5304 L377.7043 592.5304 L377.7043 391.2957 Z"
           id="path204" />
      </clipPath>
    </defs>
    <g
       style="fill:white; stroke:white;"
       id="g210">
      <rect
         x="0"
         width="1032"
         height="651"
         y="0"
         style="stroke:none;"
         id="rect208" />
    </g>
    <g
       style="font-weight:bold; font-size:10; text-rendering:geometricPrecision;"
       id="g220">
      <path
         d="M0.0469 4.7031 L6.7656 4.7031 L6.7656 6.125 L4.3438 6.125 L4.3438 12 L2.4688 12 L2.4688 6.125 L0.0469 6.125 L0.0469 4.7031 ZM7.665 6.5312 L9.415 6.5312 L9.415 12 L7.665 12 L7.665 6.5312 ZM7.665 4.4062 L9.415 4.4062 L9.415 5.8281 L7.665 5.8281 L7.665 4.4062 ZM12.999 4.9844 L12.999 6.5312 L14.7959 6.5312 L14.7959 7.7812 L12.999 7.7812 L12.999 10.0938 Q12.999 10.4844 13.1475 10.6172 Q13.2959 10.75 13.749 10.75 L14.6553 10.75 L14.6553 12 L13.1553 12 Q12.1084 12 11.6787 11.5703 Q11.249 11.1406 11.249 10.0938 L11.249 7.7812 L10.374 7.7812 L10.374 6.5312 L11.249 6.5312 L11.249 4.9844 L12.999 4.9844 ZM15.873 4.4062 L17.623 4.4062 L17.623 12 L15.873 12 L15.873 4.4062 ZM24.7539 9.25 L24.7539 9.75 L20.6758 9.75 Q20.7383 10.3594 21.1133 10.6719 Q21.4883 10.9844 22.1758 10.9844 Q22.7227 10.9844 23.3086 10.8203 Q23.8945 10.6562 24.5039 10.3125 L24.5039 11.6719 Q23.8789 11.9062 23.2617 12.0234 Q22.6445 12.1406 22.0195 12.1406 Q20.5352 12.1406 19.7148 11.3828 Q18.8945 10.625 18.8945 9.2656 Q18.8945 7.9375 19.6992 7.1719 Q20.5039 6.4062 21.9258 6.4062 Q23.207 6.4062 23.9805 7.1797 Q24.7539 7.9531 24.7539 9.25 ZM22.957 8.6719 Q22.957 8.1719 22.668 7.8672 Q22.3789 7.5625 21.9102 7.5625 Q21.3945 7.5625 21.082 7.8438 Q20.7695 8.125 20.6914 8.6719 L22.957 8.6719 ZM26.3643 6.5312 L28.1143 6.5312 L28.1143 8.4219 L26.3643 8.4219 L26.3643 6.5312 ZM26.3643 10.1094 L28.1143 10.1094 L28.1143 12 L26.3643 12 L26.3643 10.1094 Z"
         style="clip-path:url(#clipPath2); stroke:none;"
         clip-path="url(#clipPath2)"
         id="path212" />
      <path
         d="M38.9844 4.7031 L40.3125 4.7031 L43.5469 10.8125 L43.5469 4.7031 L44.5 4.7031 L44.5 12 L43.1719 12 L39.9375 5.9062 L39.9375 12 L38.9844 12 L38.9844 4.7031 ZM46.418 6.5312 L47.3242 6.5312 L47.3242 12 L46.418 12 L46.418 6.5312 ZM46.418 4.4062 L47.3242 4.4062 L47.3242 5.5469 L46.418 5.5469 L46.418 4.4062 ZM53.1338 6.7344 L53.1338 7.5781 Q52.7588 7.375 52.376 7.2656 Q51.9932 7.1562 51.6025 7.1562 Q50.7275 7.1562 50.2432 7.7109 Q49.7588 8.2656 49.7588 9.2656 Q49.7588 10.2656 50.2432 10.8203 Q50.7275 11.375 51.6025 11.375 Q51.9932 11.375 52.376 11.2734 Q52.7588 11.1719 53.1338 10.9531 L53.1338 11.7969 Q52.7588 11.9688 52.3604 12.0547 Q51.9619 12.1406 51.5088 12.1406 Q50.2588 12.1406 49.5322 11.3672 Q48.8057 10.5938 48.8057 9.2656 Q48.8057 7.9375 49.54 7.1719 Q50.2744 6.4062 51.5557 6.4062 Q51.9775 6.4062 52.3682 6.4844 Q52.7588 6.5625 53.1338 6.7344 ZM56.8193 7.1562 Q56.1006 7.1562 55.6787 7.7188 Q55.2568 8.2812 55.2568 9.2656 Q55.2568 10.25 55.6709 10.8125 Q56.085 11.375 56.8193 11.375 Q57.5381 11.375 57.96 10.8125 Q58.3818 10.25 58.3818 9.2656 Q58.3818 8.2969 57.96 7.7266 Q57.5381 7.1562 56.8193 7.1562 ZM56.8193 6.4062 Q57.9912 6.4062 58.6631 7.1641 Q59.335 7.9219 59.335 9.2656 Q59.335 10.6094 58.6631 11.375 Q57.9912 12.1406 56.8193 12.1406 Q55.6475 12.1406 54.9756 11.375 Q54.3037 10.6094 54.3037 9.2656 Q54.3037 7.9219 54.9756 7.1641 Q55.6475 6.4062 56.8193 6.4062 ZM61.7031 4.9844 L61.7031 6.5312 L63.5625 6.5312 L63.5625 7.2344 L61.7031 7.2344 L61.7031 10.2031 Q61.7031 10.8594 61.8906 11.0547 Q62.0781 11.25 62.6406 11.25 L63.5625 11.25 L63.5625 12 L62.6406 12 Q61.5938 12 61.1953 11.6094 Q60.7969 11.2188 60.7969 10.2031 L60.7969 7.2344 L60.1406 7.2344 L60.1406 6.5312 L60.7969 6.5312 L60.7969 4.9844 L61.7031 4.9844 ZM64.7334 6.5312 L65.6396 6.5312 L65.6396 12 L64.7334 12 L64.7334 6.5312 ZM64.7334 4.4062 L65.6396 4.4062 L65.6396 5.5469 L64.7334 5.5469 L64.7334 4.4062 ZM72.0586 8.7031 L72.0586 12 L71.168 12 L71.168 8.7344 Q71.168 7.9531 70.8633 7.5703 Q70.5586 7.1875 69.9492 7.1875 Q69.2305 7.1875 68.8086 7.6484 Q68.3867 8.1094 68.3867 8.9062 L68.3867 12 L67.4805 12 L67.4805 6.5312 L68.3867 6.5312 L68.3867 7.375 Q68.7148 6.8906 69.1523 6.6484 Q69.5898 6.4062 70.1523 6.4062 Q71.0898 6.4062 71.5742 6.9844 Q72.0586 7.5625 72.0586 8.7031 ZM78.5371 9.0469 L78.5371 9.4844 L74.3965 9.4844 Q74.459 10.4062 74.959 10.8906 Q75.459 11.375 76.3496 11.375 Q76.8652 11.375 77.3574 11.25 Q77.8496 11.125 78.3184 10.875 L78.3184 11.7188 Q77.834 11.9219 77.3262 12.0312 Q76.8184 12.1406 76.3027 12.1406 Q74.9902 12.1406 74.2246 11.3828 Q73.459 10.625 73.459 9.3125 Q73.459 7.9688 74.1855 7.1875 Q74.9121 6.4062 76.1465 6.4062 Q77.2559 6.4062 77.8965 7.1094 Q78.5371 7.8125 78.5371 9.0469 ZM77.6309 8.7812 Q77.6309 8.0469 77.2246 7.6016 Q76.8184 7.1562 76.1621 7.1562 Q75.3965 7.1562 74.9512 7.5859 Q74.5059 8.0156 74.4277 8.7812 L77.6309 8.7812 ZM87.4463 7.5781 Q87.7744 6.9688 88.2432 6.6875 Q88.7119 6.4062 89.3525 6.4062 Q90.2119 6.4062 90.6729 7 Q91.1338 7.5938 91.1338 8.7031 L91.1338 12 L90.2275 12 L90.2275 8.7344 Q90.2275 7.9375 89.9541 7.5625 Q89.6807 7.1875 89.1025 7.1875 Q88.3994 7.1875 88.001 7.6484 Q87.6025 8.1094 87.6025 8.9062 L87.6025 12 L86.6963 12 L86.6963 8.7344 Q86.6963 7.9375 86.415 7.5625 Q86.1338 7.1875 85.5557 7.1875 Q84.8682 7.1875 84.4619 7.6484 Q84.0557 8.1094 84.0557 8.9062 L84.0557 12 L83.1494 12 L83.1494 6.5312 L84.0557 6.5312 L84.0557 7.375 Q84.3682 6.875 84.7979 6.6406 Q85.2275 6.4062 85.8057 6.4062 Q86.415 6.4062 86.8291 6.7031 Q87.2432 7 87.4463 7.5781 ZM97.6094 9.0469 L97.6094 9.4844 L93.4688 9.4844 Q93.5312 10.4062 94.0312 10.8906 Q94.5312 11.375 95.4219 11.375 Q95.9375 11.375 96.4297 11.25 Q96.9219 11.125 97.3906 10.875 L97.3906 11.7188 Q96.9062 11.9219 96.3984 12.0312 Q95.8906 12.1406 95.375 12.1406 Q94.0625 12.1406 93.2969 11.3828 Q92.5312 10.625 92.5312 9.3125 Q92.5312 7.9688 93.2578 7.1875 Q93.9844 6.4062 95.2188 6.4062 Q96.3281 6.4062 96.9688 7.1094 Q97.6094 7.8125 97.6094 9.0469 ZM96.7031 8.7812 Q96.7031 8.0469 96.2969 7.6016 Q95.8906 7.1562 95.2344 7.1562 Q94.4688 7.1562 94.0234 7.5859 Q93.5781 8.0156 93.5 8.7812 L96.7031 8.7812 ZM99.9648 4.9844 L99.9648 6.5312 L101.8242 6.5312 L101.8242 7.2344 L99.9648 7.2344 L99.9648 10.2031 Q99.9648 10.8594 100.1523 11.0547 Q100.3398 11.25 100.9023 11.25 L101.8242 11.25 L101.8242 12 L100.9023 12 Q99.8555 12 99.457 11.6094 Q99.0586 11.2188 99.0586 10.2031 L99.0586 7.2344 L98.4023 7.2344 L98.4023 6.5312 L99.0586 6.5312 L99.0586 4.9844 L99.9648 4.9844 ZM105.4795 9.25 Q104.4014 9.25 103.9795 9.5 Q103.5576 9.75 103.5576 10.3438 Q103.5576 10.8281 103.8701 11.1094 Q104.1826 11.3906 104.7295 11.3906 Q105.4795 11.3906 105.9326 10.8594 Q106.3857 10.3281 106.3857 9.4531 L106.3857 9.25 L105.4795 9.25 ZM107.2764 8.875 L107.2764 12 L106.3857 12 L106.3857 11.1719 Q106.0732 11.6719 105.6123 11.9062 Q105.1514 12.1406 104.4951 12.1406 Q103.6514 12.1406 103.1514 11.6719 Q102.6514 11.2031 102.6514 10.4062 Q102.6514 9.4844 103.2764 9.0156 Q103.9014 8.5469 105.1201 8.5469 L106.3857 8.5469 L106.3857 8.4531 Q106.3857 7.8438 105.9717 7.5 Q105.5576 7.1562 104.8232 7.1562 Q104.3545 7.1562 103.9092 7.2734 Q103.4639 7.3906 103.0576 7.6094 L103.0576 6.7812 Q103.5576 6.5938 104.0186 6.5 Q104.4795 6.4062 104.917 6.4062 Q106.1045 6.4062 106.6904 7.0156 Q107.2764 7.625 107.2764 8.875 ZM113.0605 9.2656 Q113.0605 8.2812 112.6465 7.7188 Q112.2324 7.1562 111.5293 7.1562 Q110.8105 7.1562 110.4043 7.7188 Q109.998 8.2812 109.998 9.2656 Q109.998 10.2656 110.4043 10.8281 Q110.8105 11.3906 111.5293 11.3906 Q112.2324 11.3906 112.6465 10.8281 Q113.0605 10.2656 113.0605 9.2656 ZM109.998 7.3594 Q110.2793 6.875 110.709 6.6406 Q111.1387 6.4062 111.748 6.4062 Q112.748 6.4062 113.3652 7.1953 Q113.9824 7.9844 113.9824 9.2656 Q113.9824 10.5625 113.3652 11.3516 Q112.748 12.1406 111.748 12.1406 Q111.1387 12.1406 110.709 11.9062 Q110.2793 11.6719 109.998 11.1719 L109.998 12 L109.0918 12 L109.0918 4.4062 L109.998 4.4062 L109.998 7.3594 ZM117.5957 7.1562 Q116.877 7.1562 116.4551 7.7188 Q116.0332 8.2812 116.0332 9.2656 Q116.0332 10.25 116.4473 10.8125 Q116.8613 11.375 117.5957 11.375 Q118.3145 11.375 118.7363 10.8125 Q119.1582 10.25 119.1582 9.2656 Q119.1582 8.2969 118.7363 7.7266 Q118.3145 7.1562 117.5957 7.1562 ZM117.5957 6.4062 Q118.7676 6.4062 119.4395 7.1641 Q120.1113 7.9219 120.1113 9.2656 Q120.1113 10.6094 119.4395 11.375 Q118.7676 12.1406 117.5957 12.1406 Q116.4238 12.1406 115.752 11.375 Q115.0801 10.6094 115.0801 9.2656 Q115.0801 7.9219 115.752 7.1641 Q116.4238 6.4062 117.5957 6.4062 ZM121.5889 4.4062 L122.4951 4.4062 L122.4951 12 L121.5889 12 L121.5889 4.4062 ZM124.3672 6.5312 L125.2734 6.5312 L125.2734 12 L124.3672 12 L124.3672 6.5312 ZM124.3672 4.4062 L125.2734 4.4062 L125.2734 5.5469 L124.3672 5.5469 L124.3672 4.4062 ZM130.6299 6.6875 L130.6299 7.5469 Q130.2549 7.3438 129.8486 7.25 Q129.4424 7.1562 128.9893 7.1562 Q128.333 7.1562 127.9971 7.3594 Q127.6611 7.5625 127.6611 7.9688 Q127.6611 8.2812 127.8955 8.4609 Q128.1299 8.6406 128.8643 8.7969 L129.1611 8.875 Q130.1299 9.0781 130.5283 9.4531 Q130.9268 9.8281 130.9268 10.4844 Q130.9268 11.25 130.3252 11.6953 Q129.7236 12.1406 128.6768 12.1406 Q128.2236 12.1406 127.7471 12.0547 Q127.2705 11.9688 126.7549 11.7969 L126.7549 10.875 Q127.2549 11.125 127.7314 11.2578 Q128.208 11.3906 128.6924 11.3906 Q129.3174 11.3906 129.6611 11.1719 Q130.0049 10.9531 130.0049 10.5625 Q130.0049 10.1875 129.7627 9.9922 Q129.5205 9.7969 128.6768 9.625 L128.3643 9.5469 Q127.5361 9.375 127.1611 9.0078 Q126.7861 8.6406 126.7861 8.0156 Q126.7861 7.2344 127.333 6.8203 Q127.8799 6.4062 128.8955 6.4062 Q129.3799 6.4062 129.8252 6.4766 Q130.2705 6.5469 130.6299 6.6875 ZM136.6211 7.5781 Q136.9492 6.9688 137.418 6.6875 Q137.8867 6.4062 138.5273 6.4062 Q139.3867 6.4062 139.8477 7 Q140.3086 7.5938 140.3086 8.7031 L140.3086 12 L139.4023 12 L139.4023 8.7344 Q139.4023 7.9375 139.1289 7.5625 Q138.8555 7.1875 138.2773 7.1875 Q137.5742 7.1875 137.1758 7.6484 Q136.7773 8.1094 136.7773 8.9062 L136.7773 12 L135.8711 12 L135.8711 8.7344 Q135.8711 7.9375 135.5898 7.5625 Q135.3086 7.1875 134.7305 7.1875 Q134.043 7.1875 133.6367 7.6484 Q133.2305 8.1094 133.2305 8.9062 L133.2305 12 L132.3242 12 L132.3242 6.5312 L133.2305 6.5312 L133.2305 7.375 Q133.543 6.875 133.9727 6.6406 Q134.4023 6.4062 134.9805 6.4062 Q135.5898 6.4062 136.0039 6.7031 Q136.418 7 136.6211 7.5781 ZM145.2754 6.5312 L146.1816 6.5312 L146.1816 12 L145.2754 12 L145.2754 6.5312 ZM145.2754 4.4062 L146.1816 4.4062 L146.1816 5.5469 L145.2754 5.5469 L145.2754 4.4062 ZM152.6006 8.7031 L152.6006 12 L151.71 12 L151.71 8.7344 Q151.71 7.9531 151.4053 7.5703 Q151.1006 7.1875 150.4912 7.1875 Q149.7725 7.1875 149.3506 7.6484 Q148.9287 8.1094 148.9287 8.9062 L148.9287 12 L148.0225 12 L148.0225 6.5312 L148.9287 6.5312 L148.9287 7.375 Q149.2568 6.8906 149.6943 6.6484 Q150.1318 6.4062 150.6943 6.4062 Q151.6318 6.4062 152.1162 6.9844 Q152.6006 7.5625 152.6006 8.7031 ZM157.5703 4.4062 L158.4766 4.4062 L158.4766 12 L157.5703 12 L157.5703 4.4062 ZM160.3486 6.5312 L161.2549 6.5312 L161.2549 12 L160.3486 12 L160.3486 6.5312 ZM160.3486 4.4062 L161.2549 4.4062 L161.2549 5.5469 L160.3486 5.5469 L160.3486 4.4062 ZM162.4863 6.5312 L163.4395 6.5312 L165.1426 11.125 L166.8613 6.5312 L167.8145 6.5312 L165.752 12 L164.5332 12 L162.4863 6.5312 ZM173.7324 9.0469 L173.7324 9.4844 L169.5918 9.4844 Q169.6543 10.4062 170.1543 10.8906 Q170.6543 11.375 171.5449 11.375 Q172.0605 11.375 172.5527 11.25 Q173.0449 11.125 173.5137 10.875 L173.5137 11.7188 Q173.0293 11.9219 172.5215 12.0312 Q172.0137 12.1406 171.498 12.1406 Q170.1855 12.1406 169.4199 11.3828 Q168.6543 10.625 168.6543 9.3125 Q168.6543 7.9688 169.3809 7.1875 Q170.1074 6.4062 171.3418 6.4062 Q172.4512 6.4062 173.0918 7.1094 Q173.7324 7.8125 173.7324 9.0469 ZM172.8262 8.7812 Q172.8262 8.0469 172.4199 7.6016 Q172.0137 7.1562 171.3574 7.1562 Q170.5918 7.1562 170.1465 7.5859 Q169.7012 8.0156 169.623 8.7812 L172.8262 8.7812 ZM178.3691 7.375 Q178.2129 7.2812 178.041 7.2422 Q177.8691 7.2031 177.6504 7.2031 Q176.8848 7.2031 176.4785 7.6953 Q176.0723 8.1875 176.0723 9.125 L176.0723 12 L175.166 12 L175.166 6.5312 L176.0723 6.5312 L176.0723 7.375 Q176.3535 6.875 176.8066 6.6406 Q177.2598 6.4062 177.916 6.4062 Q178.0098 6.4062 178.1191 6.4141 Q178.2285 6.4219 178.3691 6.4531 L178.3691 7.375 ZM186.4248 6.7344 L186.4248 7.5781 Q186.0498 7.375 185.667 7.2656 Q185.2842 7.1562 184.8936 7.1562 Q184.0186 7.1562 183.5342 7.7109 Q183.0498 8.2656 183.0498 9.2656 Q183.0498 10.2656 183.5342 10.8203 Q184.0186 11.375 184.8936 11.375 Q185.2842 11.375 185.667 11.2734 Q186.0498 11.1719 186.4248 10.9531 L186.4248 11.7969 Q186.0498 11.9688 185.6514 12.0547 Q185.2529 12.1406 184.7998 12.1406 Q183.5498 12.1406 182.8232 11.3672 Q182.0967 10.5938 182.0967 9.2656 Q182.0967 7.9375 182.8311 7.1719 Q183.5654 6.4062 184.8467 6.4062 Q185.2686 6.4062 185.6592 6.4844 Q186.0498 6.5625 186.4248 6.7344 ZM192.6729 9.0469 L192.6729 9.4844 L188.5322 9.4844 Q188.5947 10.4062 189.0947 10.8906 Q189.5947 11.375 190.4854 11.375 Q191.001 11.375 191.4932 11.25 Q191.9854 11.125 192.4541 10.875 L192.4541 11.7188 Q191.9697 11.9219 191.4619 12.0312 Q190.9541 12.1406 190.4385 12.1406 Q189.126 12.1406 188.3604 11.3828 Q187.5947 10.625 187.5947 9.3125 Q187.5947 7.9688 188.3213 7.1875 Q189.0479 6.4062 190.2822 6.4062 Q191.3916 6.4062 192.0322 7.1094 Q192.6729 7.8125 192.6729 9.0469 ZM191.7666 8.7812 Q191.7666 8.0469 191.3604 7.6016 Q190.9541 7.1562 190.2979 7.1562 Q189.5322 7.1562 189.0869 7.5859 Q188.6416 8.0156 188.5635 8.7812 L191.7666 8.7812 ZM194.1377 4.4062 L195.0439 4.4062 L195.0439 12 L194.1377 12 L194.1377 4.4062 ZM196.916 4.4062 L197.8223 4.4062 L197.8223 12 L196.916 12 L196.916 4.4062 ZM203.1787 6.6875 L203.1787 7.5469 Q202.8037 7.3438 202.3975 7.25 Q201.9912 7.1562 201.5381 7.1562 Q200.8818 7.1562 200.5459 7.3594 Q200.21 7.5625 200.21 7.9688 Q200.21 8.2812 200.4443 8.4609 Q200.6787 8.6406 201.4131 8.7969 L201.71 8.875 Q202.6787 9.0781 203.0771 9.4531 Q203.4756 9.8281 203.4756 10.4844 Q203.4756 11.25 202.874 11.6953 Q202.2725 12.1406 201.2256 12.1406 Q200.7725 12.1406 200.2959 12.0547 Q199.8193 11.9688 199.3037 11.7969 L199.3037 10.875 Q199.8037 11.125 200.2803 11.2578 Q200.7568 11.3906 201.2412 11.3906 Q201.8662 11.3906 202.21 11.1719 Q202.5537 10.9531 202.5537 10.5625 Q202.5537 10.1875 202.3115 9.9922 Q202.0693 9.7969 201.2256 9.625 L200.9131 9.5469 Q200.085 9.375 199.71 9.0078 Q199.335 8.6406 199.335 8.0156 Q199.335 7.2344 199.8818 6.8203 Q200.4287 6.4062 201.4443 6.4062 Q201.9287 6.4062 202.374 6.4766 Q202.8193 6.5469 203.1787 6.6875 Z"
         style="clip-path:url(#clipPath2); stroke:none;"
         clip-path="url(#clipPath2)"
         id="path214" />
      <path
         d="M4.25 19.9375 Q3.3906 19.9375 2.9141 20.5703 Q2.4375 21.2031 2.4375 22.3594 Q2.4375 23.5156 2.9141 24.1484 Q3.3906 24.7812 4.25 24.7812 Q5.1094 24.7812 5.5859 24.1484 Q6.0625 23.5156 6.0625 22.3594 Q6.0625 21.2031 5.5859 20.5703 Q5.1094 19.9375 4.25 19.9375 ZM4.25 18.5781 Q6 18.5781 7 19.5859 Q8 20.5938 8 22.3594 Q8 24.125 7 25.1328 Q6 26.1406 4.25 26.1406 Q2.5 26.1406 1.5 25.1328 Q0.5 24.125 0.5 22.3594 Q0.5 20.5938 1.5 19.5859 Q2.5 18.5781 4.25 18.5781 ZM13.4072 22.0156 Q13.1729 21.9062 12.9463 21.8594 Q12.7197 21.8125 12.4854 21.8125 Q11.8135 21.8125 11.4541 22.2422 Q11.0947 22.6719 11.0947 23.4844 L11.0947 26 L9.3447 26 L9.3447 20.5312 L11.0947 20.5312 L11.0947 21.4219 Q11.4229 20.8906 11.8604 20.6484 Q12.2979 20.4062 12.9072 20.4062 Q13.001 20.4062 13.1025 20.4062 Q13.2041 20.4062 13.3916 20.4375 L13.4072 22.0156 ZM17.9951 25.0781 Q17.6357 25.5469 17.1982 25.7734 Q16.7607 26 16.1982 26 Q15.1982 26 14.542 25.2109 Q13.8857 24.4219 13.8857 23.2031 Q13.8857 21.9688 14.542 21.1875 Q15.1982 20.4062 16.1982 20.4062 Q16.7607 20.4062 17.1982 20.6328 Q17.6357 20.8594 17.9951 21.3438 L17.9951 20.5312 L19.7451 20.5312 L19.7451 25.4531 Q19.7451 26.7656 18.917 27.4609 Q18.0889 28.1562 16.5107 28.1562 Q15.9951 28.1562 15.5186 28.0781 Q15.042 28 14.5576 27.8438 L14.5576 26.4844 Q15.0107 26.75 15.4482 26.875 Q15.8857 27 16.3389 27 Q17.1982 27 17.5967 26.625 Q17.9951 26.25 17.9951 25.4531 L17.9951 25.0781 ZM16.8389 21.6719 Q16.292 21.6719 15.9951 22.0703 Q15.6982 22.4688 15.6982 23.2031 Q15.6982 23.9531 15.9873 24.3438 Q16.2764 24.7344 16.8389 24.7344 Q17.3857 24.7344 17.6904 24.3281 Q17.9951 23.9219 17.9951 23.2031 Q17.9951 22.4688 17.6904 22.0703 Q17.3857 21.6719 16.8389 21.6719 ZM23.8877 23.5312 Q23.3408 23.5312 23.0596 23.7188 Q22.7783 23.9062 22.7783 24.2656 Q22.7783 24.6094 23.0049 24.7969 Q23.2314 24.9844 23.6221 24.9844 Q24.1221 24.9844 24.458 24.625 Q24.7939 24.2656 24.7939 23.7344 L24.7939 23.5312 L23.8877 23.5312 ZM26.5596 22.875 L26.5596 26 L24.7939 26 L24.7939 25.1875 Q24.4346 25.6875 23.9971 25.9141 Q23.5596 26.1406 22.9346 26.1406 Q22.0752 26.1406 21.5518 25.6484 Q21.0283 25.1562 21.0283 24.3594 Q21.0283 23.3906 21.6846 22.9453 Q22.3408 22.5 23.7627 22.5 L24.7939 22.5 L24.7939 22.3594 Q24.7939 21.9531 24.4658 21.7578 Q24.1377 21.5625 23.4502 21.5625 Q22.8877 21.5625 22.4033 21.6719 Q21.9189 21.7812 21.4971 22.0156 L21.4971 20.6719 Q22.0596 20.5469 22.6299 20.4766 Q23.2002 20.4062 23.7627 20.4062 Q25.2471 20.4062 25.9033 20.9844 Q26.5596 21.5625 26.5596 22.875 ZM33.6826 22.6719 L33.6826 26 L31.917 26 L31.917 25.4531 L31.917 23.4531 Q31.917 22.75 31.8857 22.4766 Q31.8545 22.2031 31.7764 22.0781 Q31.6826 21.9062 31.5029 21.8125 Q31.3232 21.7188 31.1045 21.7188 Q30.5576 21.7188 30.2451 22.1406 Q29.9326 22.5625 29.9326 23.3125 L29.9326 26 L28.1826 26 L28.1826 20.5312 L29.9326 20.5312 L29.9326 21.3281 Q30.3232 20.8594 30.7686 20.6328 Q31.2139 20.4062 31.7451 20.4062 Q32.6982 20.4062 33.1904 20.9844 Q33.6826 21.5625 33.6826 22.6719 ZM35.3018 20.5312 L37.0518 20.5312 L37.0518 26 L35.3018 26 L35.3018 20.5312 ZM35.3018 18.4062 L37.0518 18.4062 L37.0518 19.8281 L35.3018 19.8281 L35.3018 18.4062 ZM42.9951 20.7031 L42.9951 22.0312 Q42.4326 21.7969 41.9092 21.6797 Q41.3857 21.5625 40.9326 21.5625 Q40.4326 21.5625 40.1904 21.6875 Q39.9482 21.8125 39.9482 22.0625 Q39.9482 22.2812 40.1279 22.3906 Q40.3076 22.5 40.792 22.5625 L41.0889 22.5938 Q42.4326 22.7656 42.9014 23.1562 Q43.3701 23.5469 43.3701 24.3906 Q43.3701 25.2656 42.7217 25.7031 Q42.0732 26.1406 40.792 26.1406 Q40.2607 26.1406 39.6826 26.0547 Q39.1045 25.9688 38.4795 25.7969 L38.4795 24.4688 Q39.0107 24.7188 39.5576 24.8516 Q40.1045 24.9844 40.667 24.9844 Q41.1826 24.9844 41.4404 24.8438 Q41.6982 24.7031 41.6982 24.4219 Q41.6982 24.1875 41.5264 24.0703 Q41.3545 23.9531 40.8232 23.8906 L40.5107 23.8438 Q39.3389 23.7031 38.8701 23.3047 Q38.4014 22.9062 38.4014 22.1094 Q38.4014 21.2344 38.9951 20.8203 Q39.5889 20.4062 40.8232 20.4062 Q41.3076 20.4062 41.8389 20.4766 Q42.3701 20.5469 42.9951 20.7031 ZM49.7441 21.4375 Q50.0723 20.9375 50.5332 20.6719 Q50.9941 20.4062 51.541 20.4062 Q52.4785 20.4062 52.9707 20.9844 Q53.4629 21.5625 53.4629 22.6719 L53.4629 26 L51.7129 26 L51.7129 23.1406 Q51.7129 23.0781 51.7129 23.0156 Q51.7129 22.9531 51.7129 22.8281 Q51.7129 22.2344 51.5488 21.9766 Q51.3848 21.7188 50.9941 21.7188 Q50.4941 21.7188 50.2285 22.125 Q49.9629 22.5312 49.9473 23.3125 L49.9473 26 L48.1816 26 L48.1816 23.1406 Q48.1816 22.2344 48.0254 21.9766 Q47.8691 21.7188 47.4785 21.7188 Q46.9785 21.7188 46.7051 22.1328 Q46.4316 22.5469 46.4316 23.3125 L46.4316 26 L44.666 26 L44.666 20.5312 L46.4316 20.5312 L46.4316 21.3281 Q46.7441 20.875 47.166 20.6406 Q47.5879 20.4062 48.0879 20.4062 Q48.6504 20.4062 49.0879 20.6797 Q49.5254 20.9531 49.7441 21.4375 ZM55.3828 20.5312 L57.1328 20.5312 L57.1328 22.4219 L55.3828 22.4219 L55.3828 20.5312 ZM55.3828 24.1094 L57.1328 24.1094 L57.1328 26 L55.3828 26 L55.3828 24.1094 Z"
         style="clip-path:url(#clipPath2); stroke:none;"
         clip-path="url(#clipPath2)"
         id="path216" />
      <path
         d="M66.9844 18.7031 L67.9688 18.7031 L67.9688 21.7031 L71.5469 21.7031 L71.5469 18.7031 L72.5312 18.7031 L72.5312 26 L71.5469 26 L71.5469 22.5312 L67.9688 22.5312 L67.9688 26 L66.9844 26 L66.9844 18.7031 ZM76.582 21.1562 Q75.8633 21.1562 75.4414 21.7188 Q75.0195 22.2812 75.0195 23.2656 Q75.0195 24.25 75.4336 24.8125 Q75.8477 25.375 76.582 25.375 Q77.3008 25.375 77.7227 24.8125 Q78.1445 24.25 78.1445 23.2656 Q78.1445 22.2969 77.7227 21.7266 Q77.3008 21.1562 76.582 21.1562 ZM76.582 20.4062 Q77.7539 20.4062 78.4258 21.1641 Q79.0977 21.9219 79.0977 23.2656 Q79.0977 24.6094 78.4258 25.375 Q77.7539 26.1406 76.582 26.1406 Q75.4102 26.1406 74.7383 25.375 Q74.0664 24.6094 74.0664 23.2656 Q74.0664 21.9219 74.7383 21.1641 Q75.4102 20.4062 76.582 20.4062 ZM84.8408 21.5781 Q85.1689 20.9688 85.6377 20.6875 Q86.1064 20.4062 86.7471 20.4062 Q87.6064 20.4062 88.0674 21 Q88.5283 21.5938 88.5283 22.7031 L88.5283 26 L87.6221 26 L87.6221 22.7344 Q87.6221 21.9375 87.3486 21.5625 Q87.0752 21.1875 86.4971 21.1875 Q85.7939 21.1875 85.3955 21.6484 Q84.9971 22.1094 84.9971 22.9062 L84.9971 26 L84.0908 26 L84.0908 22.7344 Q84.0908 21.9375 83.8096 21.5625 Q83.5283 21.1875 82.9502 21.1875 Q82.2627 21.1875 81.8564 21.6484 Q81.4502 22.1094 81.4502 22.9062 L81.4502 26 L80.5439 26 L80.5439 20.5312 L81.4502 20.5312 L81.4502 21.375 Q81.7627 20.875 82.1924 20.6406 Q82.6221 20.4062 83.2002 20.4062 Q83.8096 20.4062 84.2236 20.7031 Q84.6377 21 84.8408 21.5781 ZM92.4414 21.1562 Q91.7227 21.1562 91.3008 21.7188 Q90.8789 22.2812 90.8789 23.2656 Q90.8789 24.25 91.293 24.8125 Q91.707 25.375 92.4414 25.375 Q93.1602 25.375 93.582 24.8125 Q94.0039 24.25 94.0039 23.2656 Q94.0039 22.2969 93.582 21.7266 Q93.1602 21.1562 92.4414 21.1562 ZM92.4414 20.4062 Q93.6133 20.4062 94.2852 21.1641 Q94.957 21.9219 94.957 23.2656 Q94.957 24.6094 94.2852 25.375 Q93.6133 26.1406 92.4414 26.1406 Q91.2695 26.1406 90.5977 25.375 Q89.9258 24.6094 89.9258 23.2656 Q89.9258 21.9219 90.5977 21.1641 Q91.2695 20.4062 92.4414 20.4062 ZM103.0977 20.6875 L103.0977 21.5469 Q102.7227 21.3438 102.3164 21.25 Q101.9102 21.1562 101.457 21.1562 Q100.8008 21.1562 100.4648 21.3594 Q100.1289 21.5625 100.1289 21.9688 Q100.1289 22.2812 100.3633 22.4609 Q100.5977 22.6406 101.332 22.7969 L101.6289 22.875 Q102.5977 23.0781 102.9961 23.4531 Q103.3945 23.8281 103.3945 24.4844 Q103.3945 25.25 102.793 25.6953 Q102.1914 26.1406 101.1445 26.1406 Q100.6914 26.1406 100.2148 26.0547 Q99.7383 25.9688 99.2227 25.7969 L99.2227 24.875 Q99.7227 25.125 100.1992 25.2578 Q100.6758 25.3906 101.1602 25.3906 Q101.7852 25.3906 102.1289 25.1719 Q102.4727 24.9531 102.4727 24.5625 Q102.4727 24.1875 102.2305 23.9922 Q101.9883 23.7969 101.1445 23.625 L100.832 23.5469 Q100.0039 23.375 99.6289 23.0078 Q99.2539 22.6406 99.2539 22.0156 Q99.2539 21.2344 99.8008 20.8203 Q100.3477 20.4062 101.3633 20.4062 Q101.8477 20.4062 102.293 20.4766 Q102.7383 20.5469 103.0977 20.6875 ZM107.3076 23.25 Q106.2295 23.25 105.8076 23.5 Q105.3857 23.75 105.3857 24.3438 Q105.3857 24.8281 105.6982 25.1094 Q106.0107 25.3906 106.5576 25.3906 Q107.3076 25.3906 107.7607 24.8594 Q108.2139 24.3281 108.2139 23.4531 L108.2139 23.25 L107.3076 23.25 ZM109.1045 22.875 L109.1045 26 L108.2139 26 L108.2139 25.1719 Q107.9014 25.6719 107.4404 25.9062 Q106.9795 26.1406 106.3232 26.1406 Q105.4795 26.1406 104.9795 25.6719 Q104.4795 25.2031 104.4795 24.4062 Q104.4795 23.4844 105.1045 23.0156 Q105.7295 22.5469 106.9482 22.5469 L108.2139 22.5469 L108.2139 22.4531 Q108.2139 21.8438 107.7998 21.5 Q107.3857 21.1562 106.6514 21.1562 Q106.1826 21.1562 105.7373 21.2734 Q105.292 21.3906 104.8857 21.6094 L104.8857 20.7812 Q105.3857 20.5938 105.8467 20.5 Q106.3076 20.4062 106.7451 20.4062 Q107.9326 20.4062 108.5186 21.0156 Q109.1045 21.625 109.1045 22.875 ZM111.8262 25.1719 L111.8262 28.0781 L110.9199 28.0781 L110.9199 20.5312 L111.8262 20.5312 L111.8262 21.3594 Q112.1074 20.875 112.5371 20.6406 Q112.9668 20.4062 113.5762 20.4062 Q114.5762 20.4062 115.1934 21.1953 Q115.8105 21.9844 115.8105 23.2656 Q115.8105 24.5625 115.1934 25.3516 Q114.5762 26.1406 113.5762 26.1406 Q112.9668 26.1406 112.5371 25.9062 Q112.1074 25.6719 111.8262 25.1719 ZM114.8887 23.2656 Q114.8887 22.2812 114.4746 21.7188 Q114.0605 21.1562 113.3574 21.1562 Q112.6387 21.1562 112.2324 21.7188 Q111.8262 22.2812 111.8262 23.2656 Q111.8262 24.2656 112.2324 24.8281 Q112.6387 25.3906 113.3574 25.3906 Q114.0605 25.3906 114.4746 24.8281 Q114.8887 24.2656 114.8887 23.2656 ZM117.2988 20.5312 L118.2051 20.5312 L118.2051 26 L117.2988 26 L117.2988 20.5312 ZM117.2988 18.4062 L118.2051 18.4062 L118.2051 19.5469 L117.2988 19.5469 L117.2988 18.4062 ZM124.7646 23.0469 L124.7646 23.4844 L120.624 23.4844 Q120.6865 24.4062 121.1865 24.8906 Q121.6865 25.375 122.5771 25.375 Q123.0928 25.375 123.585 25.25 Q124.0771 25.125 124.5459 24.875 L124.5459 25.7188 Q124.0615 25.9219 123.5537 26.0312 Q123.0459 26.1406 122.5303 26.1406 Q121.2178 26.1406 120.4521 25.3828 Q119.6865 24.625 119.6865 23.3125 Q119.6865 21.9688 120.4131 21.1875 Q121.1396 20.4062 122.374 20.4062 Q123.4834 20.4062 124.124 21.1094 Q124.7646 21.8125 124.7646 23.0469 ZM123.8584 22.7812 Q123.8584 22.0469 123.4521 21.6016 Q123.0459 21.1562 122.3896 21.1562 Q121.624 21.1562 121.1787 21.5859 Q120.7334 22.0156 120.6553 22.7812 L123.8584 22.7812 ZM130.7764 22.7031 L130.7764 26 L129.8857 26 L129.8857 22.7344 Q129.8857 21.9531 129.5811 21.5703 Q129.2764 21.1875 128.667 21.1875 Q127.9482 21.1875 127.5264 21.6484 Q127.1045 22.1094 127.1045 22.9062 L127.1045 26 L126.1982 26 L126.1982 20.5312 L127.1045 20.5312 L127.1045 21.375 Q127.4326 20.8906 127.8701 20.6484 Q128.3076 20.4062 128.8701 20.4062 Q129.8076 20.4062 130.292 20.9844 Q130.7764 21.5625 130.7764 22.7031 ZM136.0518 20.6875 L136.0518 21.5469 Q135.6768 21.3438 135.2705 21.25 Q134.8643 21.1562 134.4111 21.1562 Q133.7549 21.1562 133.4189 21.3594 Q133.083 21.5625 133.083 21.9688 Q133.083 22.2812 133.3174 22.4609 Q133.5518 22.6406 134.2861 22.7969 L134.583 22.875 Q135.5518 23.0781 135.9502 23.4531 Q136.3486 23.8281 136.3486 24.4844 Q136.3486 25.25 135.7471 25.6953 Q135.1455 26.1406 134.0986 26.1406 Q133.6455 26.1406 133.1689 26.0547 Q132.6924 25.9688 132.1768 25.7969 L132.1768 24.875 Q132.6768 25.125 133.1533 25.2578 Q133.6299 25.3906 134.1143 25.3906 Q134.7393 25.3906 135.083 25.1719 Q135.4268 24.9531 135.4268 24.5625 Q135.4268 24.1875 135.1846 23.9922 Q134.9424 23.7969 134.0986 23.625 L133.7861 23.5469 Q132.958 23.375 132.583 23.0078 Q132.208 22.6406 132.208 22.0156 Q132.208 21.2344 132.7549 20.8203 Q133.3018 20.4062 134.3174 20.4062 Q134.8018 20.4062 135.2471 20.4766 Q135.6924 20.5469 136.0518 20.6875 Z"
         style="clip-path:url(#clipPath2); stroke:none;"
         clip-path="url(#clipPath2)"
         id="path218" />
    </g>
    <g
       style="fill:navy; text-rendering:geometricPrecision; font-size:8; stroke:navy;"
       id="g224">
      <text
         x="204"
         xml:space="preserve"
         y="15"
         style="clip-path:url(#clipPath4); stroke:none;"
         clip-path="url(#clipPath4)"
         id="text222">1, 2</text>
    </g>
    <g
       style="text-rendering:geometricPrecision;"
       id="g230">
      <path
         d="M417 402 L417.4297 457.0003"
         style="fill:none; clip-path:url(#clipPath5);"
         clip-path="url(#clipPath5)"
         id="path226" />
      <path
         d="M422.6295 456.9597 L417.5211 468.6999 L412.2299 457.0409 Z"
         style="clip-path:url(#clipPath5); stroke:none;"
         clip-path="url(#clipPath5)"
         id="path228" />
    </g>
    <g
       style="text-rendering:geometricPrecision;"
       id="g238">
      <path
         d="M454 164 L426.5978 163.7733"
         style="fill:none; clip-path:url(#clipPath6);"
         clip-path="url(#clipPath6)"
         id="path232" />
      <path
         d="M416.1981 163.6873 C416.2219 160.8155 418.5692 158.5067 421.441 158.5305 C424.3127 158.5542 426.6215 160.9015 426.5978 163.7733 C426.574 166.6451 424.2267 168.9539 421.3549 168.9301 C418.4832 168.9064 416.1744 166.5591 416.1981 163.6873 Z"
         style="fill:white; clip-path:url(#clipPath6); stroke:none;"
         clip-path="url(#clipPath6)"
         id="path234" />
      <path
         d="M416.1981 163.6873 C416.2219 160.8155 418.5692 158.5067 421.441 158.5305 C424.3127 158.5542 426.6215 160.9015 426.5978 163.7733 C426.574 166.6451 424.2267 168.9539 421.3549 168.9301 C418.4832 168.9064 416.1744 166.5591 416.1981 163.6873 Z"
         style="fill:none; clip-path:url(#clipPath6);"
         clip-path="url(#clipPath6)"
         id="path236" />
    </g>
    <g
       style="text-rendering:geometricPrecision;"
       id="g244">
      <path
         d="M655 207 L655 288"
         style="fill:none; clip-path:url(#clipPath7);"
         clip-path="url(#clipPath7)"
         id="path240" />
      <path
         d="M655 288 L660.2 276.3 L649.8 276.3 Z"
         style="clip-path:url(#clipPath7); fill-rule:evenodd; stroke:none;"
         clip-path="url(#clipPath7)"
         id="path242" />
    </g>
    <g
       style="text-rendering:geometricPrecision;"
       id="g250">
      <path
         d="M417 187 L416.3218 147.6653"
         style="fill:none; clip-path:url(#clipPath8);"
         clip-path="url(#clipPath8)"
         id="path246" />
      <path
         d="M411.1226 147.755 L416.1201 135.9671 L421.5211 147.5757 Z"
         style="clip-path:url(#clipPath8); stroke:none;"
         clip-path="url(#clipPath8)"
         id="path248" />
    </g>
    <g
       style="text-rendering:geometricPrecision;"
       id="g258">
      <path
         d="M280.5 336 L280.5693 356.4438"
         style="fill:none; clip-path:url(#clipPath9);"
         clip-path="url(#clipPath9)"
         id="path252" />
      <path
         d="M280.6046 366.8438 C277.7327 366.8535 275.3967 364.5333 275.387 361.6614 C275.3773 358.7896 277.6974 356.4536 280.5693 356.4438 C283.4412 356.4341 285.7772 358.7543 285.7869 361.6262 C285.7967 364.498 283.4765 366.834 280.6046 366.8438 Z"
         style="fill:white; clip-path:url(#clipPath9); stroke:none;"
         clip-path="url(#clipPath9)"
         id="path254" />
      <path
         d="M280.6046 366.8438 C277.7327 366.8535 275.3967 364.5333 275.387 361.6614 C275.3773 358.7896 277.6974 356.4536 280.5693 356.4438 C283.4412 356.4341 285.7772 358.7543 285.7869 361.6262 C285.7967 364.498 283.4765 366.834 280.6046 366.8438 Z"
         style="fill:none; clip-path:url(#clipPath9);"
         clip-path="url(#clipPath9)"
         id="path256" />
    </g>
    <g
       style="text-rendering:geometricPrecision;"
       id="g264">
      <path
         d="M725.3333 426.3333 C725.3333 426.3333 736.358 415.6173 738.3889 405.6667 C740.4197 395.7161 740.5134 393.9868 740.5134 393.9868"
         style="fill:none; clip-path:url(#clipPath10);"
         clip-path="url(#clipPath10)"
         id="path260" />
      <path
         d="M735.321 393.7057 L741.146 382.304 L745.7057 394.268 Z"
         style="clip-path:url(#clipPath10); stroke:none;"
         clip-path="url(#clipPath10)"
         id="path262" />
    </g>
    <g
       style="text-rendering:geometricPrecision;"
       id="g272">
      <path
         d="M465 234 L426.9992 234.475"
         style="fill:none; clip-path:url(#clipPath11);"
         clip-path="url(#clipPath11)"
         id="path266" />
      <path
         d="M416.6 234.605 C416.5641 231.7333 418.863 229.3763 421.7346 229.3404 C424.6063 229.3045 426.9633 231.6033 426.9992 234.475 C427.0351 237.3467 424.7363 239.7037 421.8646 239.7396 C418.993 239.7755 416.6359 237.4767 416.6 234.605 Z"
         style="fill:white; clip-path:url(#clipPath11); stroke:none;"
         clip-path="url(#clipPath11)"
         id="path268" />
      <path
         d="M416.6 234.605 C416.5641 231.7333 418.863 229.3763 421.7346 229.3404 C424.6063 229.3045 426.9633 231.6033 426.9992 234.475 C427.0351 237.3467 424.7363 239.7037 421.8646 239.7396 C418.993 239.7755 416.6359 237.4767 416.6 234.605 Z"
         style="fill:none; clip-path:url(#clipPath11);"
         clip-path="url(#clipPath11)"
         id="path270" />
    </g>
    <g
       style="text-rendering:geometricPrecision;"
       id="g280">
      <path
         d="M280.5 280 L280.6548 246.9601"
         style="fill:none; clip-path:url(#clipPath12);"
         clip-path="url(#clipPath12)"
         id="path274" />
      <path
         d="M280.7036 236.5602 C283.5754 236.5737 285.8926 238.9127 285.8792 241.7846 C285.8657 244.6564 283.5267 246.9736 280.6548 246.9601 C277.783 246.9467 275.4658 244.6077 275.4793 241.7358 C275.4927 238.864 277.8318 236.5468 280.7036 236.5602 Z"
         style="fill:white; clip-path:url(#clipPath12); stroke:none;"
         clip-path="url(#clipPath12)"
         id="path276" />
      <path
         d="M280.7036 236.5602 C283.5754 236.5737 285.8926 238.9127 285.8792 241.7846 C285.8657 244.6564 283.5267 246.9736 280.6548 246.9601 C277.783 246.9467 275.4658 244.6077 275.4793 241.7358 C275.4927 238.864 277.8318 236.5468 280.7036 236.5602 Z"
         style="fill:none; clip-path:url(#clipPath12);"
         clip-path="url(#clipPath12)"
         id="path278" />
    </g>
    <g
       style="text-rendering:geometricPrecision;"
       id="g286">
      <path
         d="M417 402 C417 402 419.9352 417.037 430.2083 431 C430.2083 431 440.4815 444.963 468.3658 452.4815 C468.3658 452.4815 496.25 460 524.1343 466.0926 C524.1343 466.0926 552.0185 472.1852 562.2917 483.5 C572.5648 494.8148 573.3923 498.2503 573.3923 498.2503"
         style="fill:none; clip-path:url(#clipPath13);"
         clip-path="url(#clipPath13)"
         id="path282" />
      <path
         d="M578.4478 497.0325 L576.1323 509.6249 L568.337 499.468 Z"
         style="clip-path:url(#clipPath13); stroke:none;"
         clip-path="url(#clipPath13)"
         id="path284" />
    </g>
    <g
       style="text-rendering:geometricPrecision;"
       id="g292">
      <path
         d="M457 392 C457 392 582.2593 370.2222 605.3333 350 C628.4074 329.7778 632.3924 316.614 632.3924 316.614"
         style="fill:none; clip-path:url(#clipPath14);"
         clip-path="url(#clipPath14)"
         id="path288" />
      <path
         d="M627.4154 315.1073 L635.7823 305.4158 L637.3693 318.1206 Z"
         style="clip-path:url(#clipPath14); stroke:none;"
         clip-path="url(#clipPath14)"
         id="path290" />
    </g>
    <g
       style="text-rendering:geometricPrecision;"
       id="g300">
      <path
         d="M553.6667 440.3333 L546.3793 431.3956"
         style="fill:none; clip-path:url(#clipPath15);"
         clip-path="url(#clipPath15)"
         id="path294" />
      <path
         d="M539.8073 423.3353 C542.0331 421.5205 545.3087 421.8536 547.1235 424.0794 C548.9383 426.3052 548.6051 429.5808 546.3793 431.3956 C544.1535 433.2104 540.8779 432.8772 539.0631 430.6514 C537.2484 428.4256 537.5815 425.1501 539.8073 423.3353 Z"
         style="fill:white; clip-path:url(#clipPath15); stroke:none;"
         clip-path="url(#clipPath15)"
         id="path296" />
      <path
         d="M539.8073 423.3353 C542.0331 421.5205 545.3087 421.8536 547.1235 424.0794 C548.9383 426.3052 548.6051 429.5808 546.3793 431.3956 C544.1535 433.2104 540.8779 432.8772 539.0631 430.6514 C537.2484 428.4256 537.5815 425.1501 539.8073 423.3353 Z"
         style="fill:none; clip-path:url(#clipPath15);"
         clip-path="url(#clipPath15)"
         id="path298" />
    </g>
    <g
       style="text-rendering:geometricPrecision;"
       id="g308">
      <path
         d="M596.6667 326.6667 L610.0308 338.4084"
         style="fill:none; clip-path:url(#clipPath16);"
         clip-path="url(#clipPath16)"
         id="path302" />
      <path
         d="M617.8436 345.2728 C615.9481 347.4302 612.6624 347.6425 610.505 345.747 C608.3475 343.8515 608.1352 340.5659 610.0308 338.4084 C611.9263 336.2509 615.2119 336.0386 617.3694 337.9342 C619.5268 339.8297 619.7391 343.1153 617.8436 345.2728 Z"
         style="fill:white; clip-path:url(#clipPath16); stroke:none;"
         clip-path="url(#clipPath16)"
         id="path304" />
      <path
         d="M617.8436 345.2728 C615.9481 347.4302 612.6624 347.6425 610.505 345.747 C608.3475 343.8515 608.1352 340.5659 610.0308 338.4084 C611.9263 336.2509 615.2119 336.0386 617.3694 337.9342 C619.5268 339.8297 619.7391 343.1153 617.8436 345.2728 Z"
         style="fill:none; clip-path:url(#clipPath16);"
         clip-path="url(#clipPath16)"
         id="path306" />
    </g>
    <g
       style="text-rendering:geometricPrecision;"
       id="g314">
      <path
         d="M397 382 C397 382 394.0232 376.8148 383.6042 372 C383.6042 372 373.1852 367.1852 344.9051 364.5926 C344.9051 364.5926 316.625 362 288.3449 368.6111 C288.3449 368.6111 260.0648 375.2222 249.6458 387.5 C239.2269 399.7778 238.2268 404.2198 238.2268 404.2198"
         style="fill:none; clip-path:url(#clipPath17);"
         clip-path="url(#clipPath17)"
         id="path310" />
      <path
         d="M243.2998 405.3619 L235.657 415.6341 L233.1538 403.0776 Z"
         style="clip-path:url(#clipPath17); stroke:none;"
         clip-path="url(#clipPath17)"
         id="path312" />
    </g>
    <g
       style="text-rendering:geometricPrecision;"
       id="g320">
      <path
         d="M417 207 L417 267"
         style="fill:none; clip-path:url(#clipPath18);"
         clip-path="url(#clipPath18)"
         id="path316" />
      <path
         d="M422.2 267 L417 278.7 L411.8 267 Z"
         style="clip-path:url(#clipPath18); stroke:none;"
         clip-path="url(#clipPath18)"
         id="path318" />
    </g>
    <g
       style="text-rendering:geometricPrecision;"
       id="g326">
      <path
         d="M400.5 207 C400.5 207 397.8426 217.3704 388.5417 227 C388.5417 227 379.2408 236.6296 353.9954 241.8148 C353.9954 241.8148 328.75 247 303.5046 241.2963 C303.5046 241.2963 278.2592 235.5926 268.9583 225 C259.6574 214.4074 259.0419 211.7653 259.0419 211.7653"
         style="fill:none; clip-path:url(#clipPath19);"
         clip-path="url(#clipPath19)"
         id="path322" />
      <path
         d="M253.9775 212.9451 L256.3874 200.3704 L264.1063 210.5855 Z"
         style="clip-path:url(#clipPath19); stroke:none;"
         clip-path="url(#clipPath19)"
         id="path324" />
    </g>
    <g
       style="text-rendering:geometricPrecision;"
       id="g332">
      <path
         d="M450 197 L586 197"
         style="fill:none; clip-path:url(#clipPath20);"
         clip-path="url(#clipPath20)"
         id="path328" />
      <path
         d="M586 191.8 L597.7 197 L586 202.2 Z"
         style="clip-path:url(#clipPath20); stroke:none;"
         clip-path="url(#clipPath20)"
         id="path330" />
    </g>
    <g
       style="text-rendering:geometricPrecision;"
       id="g340">
      <path
         d="M522.6667 450.3333 L475.987 455.4629"
         style="fill:none; clip-path:url(#clipPath21);"
         clip-path="url(#clipPath21)"
         id="path334" />
      <path
         d="M465.6493 456.5989 C465.3355 453.7443 467.3954 451.1758 470.2501 450.8621 C473.1048 450.5483 475.6733 452.6082 475.987 455.4629 C476.3007 458.3176 474.2408 460.8861 471.3861 461.1998 C468.5314 461.5135 465.963 459.4536 465.6493 456.5989 Z"
         style="fill:white; clip-path:url(#clipPath21); stroke:none;"
         clip-path="url(#clipPath21)"
         id="path336" />
      <path
         d="M465.6493 456.5989 C465.3355 453.7443 467.3954 451.1758 470.2501 450.8621 C473.1048 450.5483 475.6733 452.6082 475.987 455.4629 C476.3007 458.3176 474.2408 460.8861 471.3861 461.1998 C468.5314 461.5135 465.963 459.4536 465.6493 456.5989 Z"
         style="fill:none; clip-path:url(#clipPath21);"
         clip-path="url(#clipPath21)"
         id="path338" />
    </g>
    <g
       style="text-rendering:geometricPrecision;"
       id="g346">
      <path
         d="M417 296 L417 382"
         style="fill:none; clip-path:url(#clipPath22);"
         clip-path="url(#clipPath22)"
         id="path342" />
      <path
         d="M417 382 L422.2 370.3 L411.8 370.3 Z"
         style="clip-path:url(#clipPath22); fill-rule:evenodd; stroke:none;"
         clip-path="url(#clipPath22)"
         id="path344" />
    </g>
    <g
       style="text-rendering:geometricPrecision;"
       id="g354">
      <path
         d="M452 330 L426.9994 330.2857"
         style="fill:none; clip-path:url(#clipPath23);"
         clip-path="url(#clipPath23)"
         id="path348" />
      <path
         d="M416.6 330.4046 C416.5672 327.5329 418.8686 325.1783 421.7403 325.1455 C424.612 325.1127 426.9665 327.414 426.9994 330.2857 C427.0322 333.1574 424.7308 335.512 421.8591 335.5448 C418.9874 335.5776 416.6328 333.2763 416.6 330.4046 Z"
         style="fill:white; clip-path:url(#clipPath23); stroke:none;"
         clip-path="url(#clipPath23)"
         id="path350" />
      <path
         d="M416.6 330.4046 C416.5672 327.5329 418.8686 325.1783 421.7403 325.1455 C424.612 325.1127 426.9665 327.414 426.9994 330.2857 C427.0322 333.1574 424.7308 335.512 421.8591 335.5448 C418.9874 335.5776 416.6328 333.2763 416.6 330.4046 Z"
         style="fill:none; clip-path:url(#clipPath23);"
         clip-path="url(#clipPath23)"
         id="path352" />
    </g>
    <g
       style="text-rendering:geometricPrecision;"
       id="g360">
      <path
         d="M457 392 C457 392 460.5432 392.6358 463.8333 394.8611 C463.8333 394.8611 467.1234 397.0864 468.8951 403.1266 C468.8951 403.1266 470.6667 409.1667 490.9753 415.2068 C490.9753 415.2068 511.2839 421.2469 549 423.4722 C586.7161 425.6975 618.3344 426.1925 618.3344 426.1925"
         style="fill:none; clip-path:url(#clipPath24);"
         clip-path="url(#clipPath24)"
         id="path356" />
      <path
         d="M618.4158 420.9931 L630.033 426.3756 L618.2531 431.3918 Z"
         style="clip-path:url(#clipPath24); stroke:none;"
         clip-path="url(#clipPath24)"
         id="path358" />
    </g>
    <g
       style="fill:rgb(204,204,204); text-rendering:geometricPrecision; stroke-width:5; stroke:rgb(204,204,204);"
       id="g364">
      <path
         d="M167 87 L167 535 C167 540.5228 171.4772 545 177 545 L819 545 C824.5228 545 829 540.5228 829 535 L829 87 C829 81.4771 824.5228 77 819 77 L177 77 C171.4772 77 167 81.4771 167 87 Z"
         style="fill:none; clip-path:url(#clipPath25);"
         clip-path="url(#clipPath25)"
         id="path362" />
    </g>
    <g
       style="text-rendering:geometricPrecision;"
       id="g368">
      <text
         x="750"
         xml:space="preserve"
         y="533"
         style="clip-path:url(#clipPath26); stroke:none;"
         clip-path="url(#clipPath26)"
         id="text366">Liver cell</text>
    </g>
    <g
       style="fill:white; text-rendering:geometricPrecision; stroke:white;"
       id="g376">
      <path
         d="M595 197 L595 197 C595 202.5228 599.4772 207 605 207 L665 207 C670.5228 207 675 202.5228 675 197 L675 197 C675 191.4772 670.5228 187 665 187 L605 187 C599.4772 187 595 191.4772 595 197 Z"
         style="clip-path:url(#clipPath27); stroke:none;"
         clip-path="url(#clipPath27)"
         id="path370" />
      <path
         d="M595 197 L595 197 C595 202.5228 599.4772 207 605 207 L665 207 C670.5228 207 675 202.5228 675 197 L675 197 C675 191.4772 670.5228 187 665 187 L605 187 C599.4772 187 595 191.4772 595 197 Z"
         style="fill:none; clip-path:url(#clipPath27); stroke:blue;"
         clip-path="url(#clipPath27)"
         id="path372" />
      <text
         x="607"
         y="200"
         style="font-size:10; clip-path:url(#clipPath27); fill:blue; stroke:none;"
         xml:space="preserve"
         clip-path="url(#clipPath27)"
         id="text374">Nornicotine</text>
    </g>
    <g
       style="fill:white; text-rendering:geometricPrecision; stroke:white;"
       id="g384">
      <path
         d="M251 288 L310 288 L310 308 L251 308 L251 288 Z"
         style="clip-path:url(#clipPath28); stroke:none;"
         clip-path="url(#clipPath28)"
         id="path378" />
      <path
         d="M251 288 L310 288 L310 308 L251 308 L251 288 Z"
         style="fill:none; clip-path:url(#clipPath28); stroke:black;"
         clip-path="url(#clipPath28)"
         id="path380" />
      <text
         x="260"
         y="301"
         style="font-size:10; clip-path:url(#clipPath28); fill:black; stroke:none;"
         xml:space="preserve"
         clip-path="url(#clipPath28)"
         id="text382">UGT1A4</text>
    </g>
    <g
       style="fill:white; text-rendering:geometricPrecision; stroke:white;"
       id="g392">
      <path
         d="M363 286 L363 286 C363 291.5229 367.4771 296 373 296 L461 296 C466.5229 296 471 291.5229 471 286 L471 286 C471 280.4771 466.5229 276 461 276 L373 276 C367.4771 276 363 280.4771 363 286 Z"
         style="clip-path:url(#clipPath29); stroke:none;"
         clip-path="url(#clipPath29)"
         id="path386" />
      <path
         d="M363 286 L363 286 C363 291.5229 367.4771 296 373 296 L461 296 C466.5229 296 471 291.5229 471 286 L471 286 C471 280.4771 466.5229 276 461 276 L373 276 C367.4771 276 363 280.4771 363 286 Z"
         style="fill:none; clip-path:url(#clipPath29); stroke:blue;"
         clip-path="url(#clipPath29)"
         id="path388" />
      <text
         x="366"
         y="289"
         style="font-size:10; clip-path:url(#clipPath29); fill:blue; stroke:none;"
         xml:space="preserve"
         clip-path="url(#clipPath29)"
         id="text390">Nicotine iminium ion</text>
    </g>
    <g
       style="fill:white; text-rendering:geometricPrecision; stroke:white;"
       id="g400">
      <path
         d="M372 476 L372 476 C372 481.5229 376.4771 486 382 486 L453 486 C458.5229 486 463 481.5229 463 476 L463 476 C463 470.4771 458.5229 466 453 466 L382 466 C376.4771 466 372 470.4771 372 476 Z"
         style="clip-path:url(#clipPath30); stroke:none;"
         clip-path="url(#clipPath30)"
         id="path394" />
      <path
         d="M372 476 L372 476 C372 481.5229 376.4771 486 382 486 L453 486 C458.5229 486 463 481.5229 463 476 L463 476 C463 470.4771 458.5229 466 453 466 L382 466 C376.4771 466 372 470.4771 372 476 Z"
         style="fill:none; clip-path:url(#clipPath30); stroke:blue;"
         clip-path="url(#clipPath30)"
         id="path396" />
      <text
         x="376"
         y="479"
         style="font-size:10; clip-path:url(#clipPath30); fill:blue; stroke:none;"
         xml:space="preserve"
         clip-path="url(#clipPath30)"
         id="text398">Cotinine N-oxide</text>
    </g>
    <g
       style="fill:white; text-rendering:geometricPrecision; stroke:white;"
       id="g408">
      <path
         d="M30 445 L30 445 C30 450.5229 34.4772 455 40 455 L121 455 C126.5229 455 131 450.5229 131 445 L131 445 C131 439.4771 126.5229 435 121 435 L40 435 C34.4772 435 30 439.4771 30 445 Z"
         style="clip-path:url(#clipPath31); stroke:none;"
         clip-path="url(#clipPath31)"
         id="path402" />
      <path
         d="M30 445 L30 445 C30 450.5229 34.4772 455 40 455 L121 455 C126.5229 455 131 450.5229 131 445 L131 445 C131 439.4771 126.5229 435 121 435 L40 435 C34.4772 435 30 439.4771 30 445 Z"
         style="fill:none; clip-path:url(#clipPath31); stroke:blue;"
         clip-path="url(#clipPath31)"
         id="path404" />
      <text
         x="30"
         y="448"
         style="font-size:10; clip-path:url(#clipPath31); fill:blue; stroke:none;"
         xml:space="preserve"
         clip-path="url(#clipPath31)"
         id="text406">Cotinineglucuronide</text>
    </g>
    <g
       style="fill:white; text-rendering:geometricPrecision; stroke:white;"
       id="g416">
      <path
         d="M372.6667 40 L372.6667 40 C372.6667 45.5228 377.1438 50 382.6667 50 L449.6667 50 C455.1895 50 459.6667 45.5228 459.6667 40 L459.6667 40 C459.6667 34.4772 455.1895 30 449.6667 30 L382.6667 30 C377.1438 30 372.6667 34.4772 372.6667 40 Z"
         style="clip-path:url(#clipPath32); stroke:none;"
         clip-path="url(#clipPath32)"
         id="path410" />
      <path
         d="M372.6667 40 L372.6667 40 C372.6667 45.5228 377.1438 50 382.6667 50 L449.6667 50 C455.1895 50 459.6667 45.5228 459.6667 40 L459.6667 40 C459.6667 34.4772 455.1895 30 449.6667 30 L382.6667 30 C377.1438 30 372.6667 34.4772 372.6667 40 Z"
         style="fill:none; clip-path:url(#clipPath32); stroke:blue;"
         clip-path="url(#clipPath32)"
         id="path412" />
      <text
         x="375"
         y="43"
         style="font-size:10; clip-path:url(#clipPath32); fill:blue; stroke:none;"
         xml:space="preserve"
         clip-path="url(#clipPath32)"
         id="text414">Nicotine-N-oxide</text>
    </g>
    <g
       style="fill:white; text-rendering:geometricPrecision; stroke:white;"
       id="g424">
      <path
         d="M622 611 L622 611 C622 616.5228 626.4772 621 632 621 L710 621 C715.5228 621 720 616.5228 720 611 L720 611 C720 605.4772 715.5228 601 710 601 L632 601 C626.4772 601 622 605.4772 622 611 Z"
         style="clip-path:url(#clipPath33); stroke:none;"
         clip-path="url(#clipPath33)"
         id="path418" />
      <path
         d="M622 611 L622 611 C622 616.5228 626.4772 621 632 621 L710 621 C715.5228 621 720 616.5228 720 611 L720 611 C720 605.4772 715.5228 601 710 601 L632 601 C626.4772 601 622 605.4772 622 611 Z"
         style="fill:none; clip-path:url(#clipPath33); stroke:blue;"
         clip-path="url(#clipPath33)"
         id="path420" />
      <text
         x="624"
         y="614"
         style="font-size:10; clip-path:url(#clipPath33); fill:blue; stroke:none;"
         xml:space="preserve"
         clip-path="url(#clipPath33)"
         id="text422">5'-Hydroxycotinine</text>
    </g>
    <g
       style="fill:white; text-rendering:geometricPrecision; stroke:white;"
       id="g432">
      <path
         d="M615 298 L615 298 C615 303.5229 619.4772 308 625 308 L685 308 C690.5228 308 695 303.5229 695 298 L695 298 C695 292.4771 690.5228 288 685 288 L625 288 C619.4772 288 615 292.4771 615 298 Z"
         style="clip-path:url(#clipPath34); stroke:none;"
         clip-path="url(#clipPath34)"
         id="path426" />
      <path
         d="M615 298 L615 298 C615 303.5229 619.4772 308 625 308 L685 308 C690.5228 308 695 303.5229 695 298 L695 298 C695 292.4771 690.5228 288 685 288 L625 288 C619.4772 288 615 292.4771 615 298 Z"
         style="fill:none; clip-path:url(#clipPath34); stroke:blue;"
         clip-path="url(#clipPath34)"
         id="path428" />
      <text
         x="627"
         y="301"
         style="font-size:10; clip-path:url(#clipPath34); fill:blue; stroke:none;"
         xml:space="preserve"
         clip-path="url(#clipPath34)"
         id="text430">Nornicotine</text>
    </g>
    <g
       style="fill:white; text-rendering:geometricPrecision; stroke:white;"
       id="g440">
      <path
         d="M452 320 L500 320 L500 340 L452 340 L452 320 Z"
         style="clip-path:url(#clipPath35); stroke:none;"
         clip-path="url(#clipPath35)"
         id="path434" />
      <path
         d="M452 320 L500 320 L500 340 L452 340 L452 320 Z"
         style="fill:none; clip-path:url(#clipPath35); stroke:black;"
         clip-path="url(#clipPath35)"
         id="path436" />
      <text
         x="463"
         y="333"
         style="font-size:10; clip-path:url(#clipPath35); fill:black; stroke:none;"
         xml:space="preserve"
         clip-path="url(#clipPath35)"
         id="text438">AOX1</text>
    </g>
    <g
       style="fill:white; text-rendering:geometricPrecision; stroke:white;"
       id="g448">
      <path
         d="M473 214 L535 214 L535 234 L473 234 L473 214 Z"
         style="clip-path:url(#clipPath36); stroke:none;"
         clip-path="url(#clipPath36)"
         id="path442" />
      <path
         d="M473 214 L535 214 L535 234 L473 234 L473 214 Z"
         style="fill:none; clip-path:url(#clipPath36); stroke:black;"
         clip-path="url(#clipPath36)"
         id="path444" />
      <text
         x="485"
         y="227"
         style="font-size:10; clip-path:url(#clipPath36); fill:black; stroke:none;"
         xml:space="preserve"
         clip-path="url(#clipPath36)"
         id="text446">CYP2A6</text>
    </g>
    <g
       style="fill:white; text-rendering:geometricPrecision; stroke:white;"
       id="g456">
      <path
         d="M534.6667 316.6667 L596.6667 316.6667 L596.6667 336.6667 L534.6667 336.6667 L534.6667 316.6667 Z"
         style="clip-path:url(#clipPath37); stroke:none;"
         clip-path="url(#clipPath37)"
         id="path450" />
      <path
         d="M534.6667 316.6667 L596.6667 316.6667 L596.6667 336.6667 L534.6667 336.6667 L534.6667 316.6667 Z"
         style="fill:none; clip-path:url(#clipPath37); stroke:black;"
         clip-path="url(#clipPath37)"
         id="path452" />
      <text
         x="546"
         y="330"
         style="font-size:10; clip-path:url(#clipPath37); fill:black; stroke:none;"
         xml:space="preserve"
         clip-path="url(#clipPath37)"
         id="text454">CYP2A6</text>
    </g>
    <g
       style="fill:white; text-rendering:geometricPrecision; stroke:white;"
       id="g464">
      <path
         d="M522.6667 440.3333 L584.6667 440.3333 L584.6667 460.3333 L522.6667 460.3333 L522.6667 440.3333 Z"
         style="clip-path:url(#clipPath38); stroke:none;"
         clip-path="url(#clipPath38)"
         id="path458" />
      <path
         d="M522.6667 440.3333 L584.6667 440.3333 L584.6667 460.3333 L522.6667 460.3333 L522.6667 440.3333 Z"
         style="fill:none; clip-path:url(#clipPath38); stroke:black;"
         clip-path="url(#clipPath38)"
         id="path460" />
      <text
         x="534"
         y="454"
         style="font-size:10; clip-path:url(#clipPath38); fill:black; stroke:none;"
         xml:space="preserve"
         clip-path="url(#clipPath38)"
         id="text462">CYP2A6</text>
    </g>
    <g
       style="fill:white; text-rendering:geometricPrecision; stroke:white;"
       id="g472">
      <path
         d="M384 197 L384 197 C384 202.5228 388.4771 207 394 207 L440 207 C445.5229 207 450 202.5228 450 197 L450 197 C450 191.4772 445.5229 187 440 187 L394 187 C388.4771 187 384 191.4772 384 197 Z"
         style="clip-path:url(#clipPath39); stroke:none;"
         clip-path="url(#clipPath39)"
         id="path466" />
      <path
         d="M384 197 L384 197 C384 202.5228 388.4771 207 394 207 L440 207 C445.5229 207 450 202.5228 450 197 L450 197 C450 191.4772 445.5229 187 440 187 L394 187 C388.4771 187 384 191.4772 384 197 Z"
         style="fill:none; clip-path:url(#clipPath39); stroke:blue;"
         clip-path="url(#clipPath39)"
         id="path468" />
      <text
         x="397"
         y="200"
         style="font-size:10; clip-path:url(#clipPath39); fill:blue; stroke:none;"
         xml:space="preserve"
         clip-path="url(#clipPath39)"
         id="text470">Nicotine</text>
    </g>
    <g
       style="fill:white; text-rendering:geometricPrecision; stroke:white;"
       id="g480">
      <path
         d="M473 234 L535 234 L535 254 L473 254 L473 234 Z"
         style="clip-path:url(#clipPath40); stroke:none;"
         clip-path="url(#clipPath40)"
         id="path474" />
      <path
         d="M473 234 L535 234 L535 254 L473 254 L473 234 Z"
         style="fill:none; clip-path:url(#clipPath40); stroke:black;"
         clip-path="url(#clipPath40)"
         id="path476" />
      <text
         x="485"
         y="247"
         style="font-size:10; clip-path:url(#clipPath40); fill:black; stroke:none;"
         xml:space="preserve"
         clip-path="url(#clipPath40)"
         id="text478">CYP2B6</text>
    </g>
    <g
       style="fill:white; text-rendering:geometricPrecision; stroke:white;"
       id="g488">
      <path
         d="M664 375 L664 375 C664 380.5229 668.4772 385 674 385 L808 385 C813.5228 385 818 380.5229 818 375 L818 375 C818 369.4771 813.5228 365 808 365 L674 365 C668.4772 365 664 369.4771 664 375 Z"
         style="clip-path:url(#clipPath41); stroke:none;"
         clip-path="url(#clipPath41)"
         id="path482" />
      <path
         d="M664 375 L664 375 C664 380.5229 668.4772 385 674 385 L808 385 C813.5228 385 818 380.5229 818 375 L818 375 C818 369.4771 813.5228 365 808 365 L674 365 C668.4772 365 664 369.4771 664 375 Z"
         style="fill:none; clip-path:url(#clipPath41); stroke:blue;"
         clip-path="url(#clipPath41)"
         id="path484" />
      <text
         x="663"
         y="378"
         style="font-size:10; clip-path:url(#clipPath41); fill:blue; stroke:none;"
         xml:space="preserve"
         clip-path="url(#clipPath41)"
         id="text486">3'-Hydroxycotinine glucuronide</text>
    </g>
    <g
       style="fill:white; text-rendering:geometricPrecision; stroke:white;"
       id="g496">
      <path
         d="M217 193 L217 193 C217 198.5228 221.4772 203 227 203 L287 203 C292.5229 203 297 198.5228 297 193 L297 193 C297 187.4772 292.5229 183 287 183 L227 183 C221.4772 183 217 187.4772 217 193 Z"
         style="clip-path:url(#clipPath42); stroke:none;"
         clip-path="url(#clipPath42)"
         id="path490" />
      <path
         d="M217 193 L217 193 C217 198.5228 221.4772 203 227 203 L287 203 C292.5229 203 297 198.5228 297 193 L297 193 C297 187.4772 292.5229 183 287 183 L227 183 C221.4772 183 217 187.4772 217 193 Z"
         style="fill:none; clip-path:url(#clipPath42); stroke:blue;"
         clip-path="url(#clipPath42)"
         id="path492" />
      <text
         x="224"
         y="196"
         style="font-size:10; clip-path:url(#clipPath42); fill:blue; stroke:none;"
         xml:space="preserve"
         clip-path="url(#clipPath42)"
         id="text494">Nicotine-Gluc</text>
    </g>
    <g
       style="fill:white; text-rendering:geometricPrecision; stroke:white;"
       id="g504">
      <path
         d="M746 43 L746 43 C746 48.5228 750.4772 53 756 53 L816 53 C821.5228 53 826 48.5228 826 43 L826 43 C826 37.4772 821.5228 33 816 33 L756 33 C750.4772 33 746 37.4772 746 43 Z"
         style="clip-path:url(#clipPath43); stroke:none;"
         clip-path="url(#clipPath43)"
         id="path498" />
      <path
         d="M746 43 L746 43 C746 48.5228 750.4772 53 756 53 L816 53 C821.5228 53 826 48.5228 826 43 L826 43 C826 37.4772 821.5228 33 816 33 L756 33 C750.4772 33 746 37.4772 746 43 Z"
         style="fill:none; clip-path:url(#clipPath43); stroke:blue;"
         clip-path="url(#clipPath43)"
         id="path500" />
      <text
         x="758"
         y="46"
         style="font-size:10; clip-path:url(#clipPath43); fill:blue; stroke:none;"
         xml:space="preserve"
         clip-path="url(#clipPath43)"
         id="text502">Nornicotine</text>
    </g>
    <g
       style="fill:white; text-rendering:geometricPrecision; stroke:white;"
       id="g512">
      <path
         d="M372.6667 128.6667 L372.6667 128.6667 C372.6667 134.1895 377.1438 138.6667 382.6667 138.6667 L449.6667 138.6667 C455.1895 138.6667 459.6667 134.1895 459.6667 128.6667 L459.6667 128.6667 C459.6667 123.1438 455.1895 118.6667 449.6667 118.6667 L382.6667 118.6667 C377.1438 118.6667 372.6667 123.1438 372.6667 128.6667 Z"
         style="clip-path:url(#clipPath44); stroke:none;"
         clip-path="url(#clipPath44)"
         id="path506" />
      <path
         d="M372.6667 128.6667 L372.6667 128.6667 C372.6667 134.1895 377.1438 138.6667 382.6667 138.6667 L449.6667 138.6667 C455.1895 138.6667 459.6667 134.1895 459.6667 128.6667 L459.6667 128.6667 C459.6667 123.1438 455.1895 118.6667 449.6667 118.6667 L382.6667 118.6667 C377.1438 118.6667 372.6667 123.1438 372.6667 128.6667 Z"
         style="fill:none; clip-path:url(#clipPath44); stroke:blue;"
         clip-path="url(#clipPath44)"
         id="path508" />
      <text
         x="375"
         y="132"
         style="font-size:10; clip-path:url(#clipPath44); fill:blue; stroke:none;"
         xml:space="preserve"
         clip-path="url(#clipPath44)"
         id="text510">Nicotine-N-oxide</text>
    </g>
    <g
       style="fill:white; text-rendering:geometricPrecision; stroke:white;"
       id="g520">
      <path
         d="M372 604 L372 604 C372 609.5228 376.4771 614 382 614 L453 614 C458.5229 614 463 609.5228 463 604 L463 604 C463 598.4772 458.5229 594 453 594 L382 594 C376.4771 594 372 598.4772 372 604 Z"
         style="clip-path:url(#clipPath45); stroke:none;"
         clip-path="url(#clipPath45)"
         id="path514" />
      <path
         d="M372 604 L372 604 C372 609.5228 376.4771 614 382 614 L453 614 C458.5229 614 463 609.5228 463 604 L463 604 C463 598.4772 458.5229 594 453 594 L382 594 C376.4771 594 372 598.4772 372 604 Z"
         style="fill:none; clip-path:url(#clipPath45); stroke:blue;"
         clip-path="url(#clipPath45)"
         id="path516" />
      <text
         x="376"
         y="607"
         style="font-size:10; clip-path:url(#clipPath45); fill:blue; stroke:none;"
         xml:space="preserve"
         clip-path="url(#clipPath45)"
         id="text518">Cotinine N-oxide</text>
    </g>
    <g
       style="fill:white; text-rendering:geometricPrecision; stroke:white;"
       id="g528">
      <path
         d="M551 517 L551 517 C551 522.5228 555.4772 527 561 527 L639 527 C644.5228 527 649 522.5228 649 517 L649 517 C649 511.4771 644.5228 507 639 507 L561 507 C555.4772 507 551 511.4771 551 517 Z"
         style="clip-path:url(#clipPath46); stroke:none;"
         clip-path="url(#clipPath46)"
         id="path522" />
      <path
         d="M551 517 L551 517 C551 522.5228 555.4772 527 561 527 L639 527 C644.5228 527 649 522.5228 649 517 L649 517 C649 511.4771 644.5228 507 639 507 L561 507 C555.4772 507 551 511.4771 551 517 Z"
         style="fill:none; clip-path:url(#clipPath46); stroke:blue;"
         clip-path="url(#clipPath46)"
         id="path524" />
      <text
         x="553"
         y="520"
         style="font-size:10; clip-path:url(#clipPath46); fill:blue; stroke:none;"
         xml:space="preserve"
         clip-path="url(#clipPath46)"
         id="text526">5'-Hydroxycotinine</text>
    </g>
    <g
       style="fill:white; text-rendering:geometricPrecision; stroke:white;"
       id="g536">
      <path
         d="M251 308 L310 308 L310 328 L251 328 L251 308 Z"
         style="clip-path:url(#clipPath47); stroke:none;"
         clip-path="url(#clipPath47)"
         id="path530" />
      <path
         d="M251 308 L310 308 L310 328 L251 328 L251 308 Z"
         style="fill:none; clip-path:url(#clipPath47); stroke:black;"
         clip-path="url(#clipPath47)"
         id="path532" />
      <text
         x="260"
         y="321"
         style="font-size:10; clip-path:url(#clipPath47); fill:black; stroke:none;"
         xml:space="preserve"
         clip-path="url(#clipPath47)"
         id="text534">UGT1A9</text>
    </g>
    <g
       style="fill:white; text-rendering:geometricPrecision; stroke:white;"
       id="g544">
      <path
         d="M848 288 L848 288 C848 293.5229 852.4772 298 858 298 L992 298 C997.5228 298 1002 293.5229 1002 288 L1002 288 C1002 282.4771 997.5228 278 992 278 L858 278 C852.4772 278 848 282.4771 848 288 Z"
         style="clip-path:url(#clipPath48); stroke:none;"
         clip-path="url(#clipPath48)"
         id="path538" />
      <path
         d="M848 288 L848 288 C848 293.5229 852.4772 298 858 298 L992 298 C997.5228 298 1002 293.5229 1002 288 L1002 288 C1002 282.4771 997.5228 278 992 278 L858 278 C852.4772 278 848 282.4771 848 288 Z"
         style="fill:none; clip-path:url(#clipPath48); stroke:blue;"
         clip-path="url(#clipPath48)"
         id="path540" />
      <text
         x="847"
         y="291"
         style="font-size:10; clip-path:url(#clipPath48); fill:blue; stroke:none;"
         xml:space="preserve"
         clip-path="url(#clipPath48)"
         id="text542">3'-Hydroxycotinine glucuronide</text>
    </g>
    <g
       style="fill:white; text-rendering:geometricPrecision; stroke:white;"
       id="g552">
      <path
         d="M595 41 L595 41 C595 46.5228 599.4772 51 605 51 L665 51 C670.5228 51 675 46.5228 675 41 L675 41 C675 35.4772 670.5228 31 665 31 L605 31 C599.4772 31 595 35.4772 595 41 Z"
         style="clip-path:url(#clipPath49); stroke:none;"
         clip-path="url(#clipPath49)"
         id="path546" />
      <path
         d="M595 41 L595 41 C595 46.5228 599.4772 51 605 51 L665 51 C670.5228 51 675 46.5228 675 41 L675 41 C675 35.4772 670.5228 31 665 31 L605 31 C599.4772 31 595 35.4772 595 41 Z"
         style="fill:none; clip-path:url(#clipPath49); stroke:blue;"
         clip-path="url(#clipPath49)"
         id="path548" />
      <text
         x="607"
         y="44"
         style="font-size:10; clip-path:url(#clipPath49); fill:blue; stroke:none;"
         xml:space="preserve"
         clip-path="url(#clipPath49)"
         id="text550">Nornicotine</text>
    </g>
    <g
       style="fill:white; text-rendering:geometricPrecision; stroke:white;"
       id="g560">
      <path
         d="M454 154 L502 154 L502 174 L454 174 L454 154 Z"
         style="clip-path:url(#clipPath50); stroke:none;"
         clip-path="url(#clipPath50)"
         id="path554" />
      <path
         d="M454 154 L502 154 L502 174 L454 174 L454 154 Z"
         style="fill:none; clip-path:url(#clipPath50); stroke:black;"
         clip-path="url(#clipPath50)"
         id="path556" />
      <text
         x="464"
         y="167"
         style="font-size:10; clip-path:url(#clipPath50); fill:black; stroke:none;"
         xml:space="preserve"
         clip-path="url(#clipPath50)"
         id="text558">FMO3</text>
    </g>
    <g
       style="fill:white; text-rendering:geometricPrecision; stroke:white;"
       id="g568">
      <path
         d="M627.3333 426.3333 L627.3333 426.3333 C627.3333 431.8562 631.8105 436.3333 637.3333 436.3333 L715.3333 436.3333 C720.8562 436.3333 725.3333 431.8562 725.3333 426.3333 L725.3333 426.3333 C725.3333 420.8105 720.8562 416.3333 715.3333 416.3333 L637.3333 416.3333 C631.8105 416.3333 627.3333 420.8105 627.3333 426.3333 Z"
         style="clip-path:url(#clipPath51); stroke:none;"
         clip-path="url(#clipPath51)"
         id="path562" />
      <path
         d="M627.3333 426.3333 L627.3333 426.3333 C627.3333 431.8562 631.8105 436.3333 637.3333 436.3333 L715.3333 436.3333 C720.8562 436.3333 725.3333 431.8562 725.3333 426.3333 L725.3333 426.3333 C725.3333 420.8105 720.8562 416.3333 715.3333 416.3333 L637.3333 416.3333 C631.8105 416.3333 627.3333 420.8105 627.3333 426.3333 Z"
         style="fill:none; clip-path:url(#clipPath51); stroke:blue;"
         clip-path="url(#clipPath51)"
         id="path564" />
      <text
         x="629"
         y="430"
         style="font-size:10; clip-path:url(#clipPath51); fill:blue; stroke:none;"
         xml:space="preserve"
         clip-path="url(#clipPath51)"
         id="text566">3'-Hydroxycotinine</text>
    </g>
    <g
       style="fill:white; text-rendering:geometricPrecision; stroke:white;"
       id="g576">
      <path
         d="M173 45 L173 45 C173 50.5228 177.4772 55 183 55 L229 55 C234.5228 55 239 50.5228 239 45 L239 45 C239 39.4772 234.5228 35 229 35 L183 35 C177.4772 35 173 39.4772 173 45 Z"
         style="clip-path:url(#clipPath52); stroke:none;"
         clip-path="url(#clipPath52)"
         id="path570" />
      <path
         d="M173 45 L173 45 C173 50.5228 177.4772 55 183 55 L229 55 C234.5228 55 239 50.5228 239 45 L239 45 C239 39.4772 234.5228 35 229 35 L183 35 C177.4772 35 173 39.4772 173 45 Z"
         style="fill:none; clip-path:url(#clipPath52); stroke:blue;"
         clip-path="url(#clipPath52)"
         id="path572" />
      <text
         x="186"
         y="48"
         style="font-size:10; clip-path:url(#clipPath52); fill:blue; stroke:none;"
         xml:space="preserve"
         clip-path="url(#clipPath52)"
         id="text574">Nicotine</text>
    </g>
    <g
       style="fill:white; text-rendering:geometricPrecision; stroke:white;"
       id="g584">
      <path
         d="M758 568 L758 568 C758 573.5228 762.4772 578 768 578 L846 578 C851.5228 578 856 573.5228 856 568 L856 568 C856 562.4772 851.5228 558 846 558 L768 558 C762.4772 558 758 562.4772 758 568 Z"
         style="clip-path:url(#clipPath53); stroke:none;"
         clip-path="url(#clipPath53)"
         id="path578" />
      <path
         d="M758 568 L758 568 C758 573.5228 762.4772 578 768 578 L846 578 C851.5228 578 856 573.5228 856 568 L856 568 C856 562.4772 851.5228 558 846 558 L768 558 C762.4772 558 758 562.4772 758 568 Z"
         style="fill:none; clip-path:url(#clipPath53); stroke:blue;"
         clip-path="url(#clipPath53)"
         id="path580" />
      <text
         x="760"
         y="571"
         style="font-size:10; clip-path:url(#clipPath53); fill:blue; stroke:none;"
         xml:space="preserve"
         clip-path="url(#clipPath53)"
         id="text582">3'-Hydroxycotinine</text>
    </g>
    <g
       style="fill:white; text-rendering:geometricPrecision; stroke:white;"
       id="g592">
      <path
         d="M377 392 L377 392 C377 397.5229 381.4771 402 387 402 L447 402 C452.5229 402 457 397.5229 457 392 L457 392 C457 386.4771 452.5229 382 447 382 L387 382 C381.4771 382 377 386.4771 377 392 Z"
         style="clip-path:url(#clipPath54); stroke:none;"
         clip-path="url(#clipPath54)"
         id="path586" />
      <path
         d="M377 392 L377 392 C377 397.5229 381.4771 402 387 402 L447 402 C452.5229 402 457 397.5229 457 392 L457 392 C457 386.4771 452.5229 382 447 382 L387 382 C381.4771 382 377 386.4771 377 392 Z"
         style="fill:none; clip-path:url(#clipPath54); stroke:blue;"
         clip-path="url(#clipPath54)"
         id="path588" />
      <text
         x="397"
         y="395"
         style="font-size:10; clip-path:url(#clipPath54); fill:blue; stroke:none;"
         xml:space="preserve"
         clip-path="url(#clipPath54)"
         id="text590">Cotinine</text>
    </g>
    <g
       style="fill:white; text-rendering:geometricPrecision; stroke:white;"
       id="g600">
      <path
         d="M57 176 L57 176 C57 181.5228 61.4772 186 67 186 L127 186 C132.5228 186 137 181.5228 137 176 L137 176 C137 170.4772 132.5228 166 127 166 L67 166 C61.4772 166 57 170.4772 57 176 Z"
         style="clip-path:url(#clipPath55); stroke:none;"
         clip-path="url(#clipPath55)"
         id="path594" />
      <path
         d="M57 176 L57 176 C57 181.5228 61.4772 186 67 186 L127 186 C132.5228 186 137 181.5228 137 176 L137 176 C137 170.4772 132.5228 166 127 166 L67 166 C61.4772 166 57 170.4772 57 176 Z"
         style="fill:none; clip-path:url(#clipPath55); stroke:blue;"
         clip-path="url(#clipPath55)"
         id="path596" />
      <text
         x="64"
         y="179"
         style="font-size:10; clip-path:url(#clipPath55); fill:blue; stroke:none;"
         xml:space="preserve"
         clip-path="url(#clipPath55)"
         id="text598">Nicotine-Gluc</text>
    </g>
    <g
       style="fill:white; text-rendering:geometricPrecision; stroke:white;"
       id="g608">
      <path
         d="M249 602 L249 602 C249 607.5228 253.4772 612 259 612 L319 612 C324.5229 612 329 607.5228 329 602 L329 602 C329 596.4772 324.5229 592 319 592 L259 592 C253.4772 592 249 596.4772 249 602 Z"
         style="clip-path:url(#clipPath56); stroke:none;"
         clip-path="url(#clipPath56)"
         id="path602" />
      <path
         d="M249 602 L249 602 C249 607.5228 253.4772 612 259 612 L319 612 C324.5229 612 329 607.5228 329 602 L329 602 C329 596.4772 324.5229 592 319 592 L259 592 C253.4772 592 249 596.4772 249 602 Z"
         style="fill:none; clip-path:url(#clipPath56); stroke:blue;"
         clip-path="url(#clipPath56)"
         id="path604" />
      <text
         x="269"
         y="605"
         style="font-size:10; clip-path:url(#clipPath56); fill:blue; stroke:none;"
         xml:space="preserve"
         clip-path="url(#clipPath56)"
         id="text606">Cotinine</text>
    </g>
    <g
       style="fill:white; text-rendering:geometricPrecision; stroke:white;"
       id="g616">
      <path
         d="M211 423 L211 423 C211 428.5229 215.4772 433 221 433 L302 433 C307.5229 433 312 428.5229 312 423 L312 423 C312 417.4771 307.5229 413 302 413 L221 413 C215.4772 413 211 417.4771 211 423 Z"
         style="clip-path:url(#clipPath57); stroke:none;"
         clip-path="url(#clipPath57)"
         id="path610" />
      <path
         d="M211 423 L211 423 C211 428.5229 215.4772 433 221 433 L302 433 C307.5229 433 312 428.5229 312 423 L312 423 C312 417.4771 307.5229 413 302 413 L221 413 C215.4772 413 211 417.4771 211 423 Z"
         style="fill:none; clip-path:url(#clipPath57); stroke:blue;"
         clip-path="url(#clipPath57)"
         id="path612" />
      <text
         x="211"
         y="426"
         style="font-size:10; clip-path:url(#clipPath57); fill:blue; stroke:none;"
         xml:space="preserve"
         clip-path="url(#clipPath57)"
         id="text614">Cotinineglucuronide</text>
    </g>
    <g
       style="text-rendering:geometricPrecision;"
       id="g620">
      <path
         d="M575.5 527 C575.5 527 587.5555 586.1111 598.75 597 C609.9445 607.8889 622 611 622 611"
         style="fill:none; clip-path:url(#clipPath58);"
         clip-path="url(#clipPath58)"
         id="path618" />
    </g>
    <g
       style="text-rendering:geometricPrecision;"
       id="g624">
      <path
         d="M651.8333 436.3333 C651.8333 436.3333 679.358 528.9877 704.9167 546.0555 C730.4753 563.1235 758 568 758 568"
         style="fill:none; clip-path:url(#clipPath59);"
         clip-path="url(#clipPath59)"
         id="path622" />
    </g>
    <g
       style="text-rendering:geometricPrecision;"
       id="g628">
      <path
         d="M818 375 C818 375 866.2037 355.037 875.0833 336.5 C883.963 317.963 886.5 298 886.5 298"
         style="fill:none; clip-path:url(#clipPath60);"
         clip-path="url(#clipPath60)"
         id="path626" />
    </g>
    <g
       style="text-rendering:geometricPrecision;"
       id="g634">
      <path
         d="M695 298 C695 298 759.037 234.4815 770.8333 175.5 C782.6296 116.5185 786 53 786 53"
         style="fill:none; clip-path:url(#clipPath61);"
         clip-path="url(#clipPath61)"
         id="path630" />
      <path
         d="M786 53 L780.1874 64.408 L790.5728 64.9591 Z"
         style="clip-path:url(#clipPath61); fill-rule:evenodd; stroke:none;"
         clip-path="url(#clipPath61)"
         id="path632" />
    </g>
    <g
       style="text-rendering:geometricPrecision;"
       id="g638">
      <path
         d="M635 187 L635 51"
         style="fill:none; clip-path:url(#clipPath62);"
         clip-path="url(#clipPath62)"
         id="path636" />
    </g>
    <g
       style="text-rendering:geometricPrecision;"
       id="g642">
      <path
         d="M416.1667 118.6667 L416.1667 50"
         style="fill:none; clip-path:url(#clipPath63);"
         clip-path="url(#clipPath63)"
         id="path640" />
    </g>
    <g
       style="text-rendering:geometricPrecision;"
       id="g648">
      <path
         d="M372.6667 128.6667 C372.6667 128.6667 255.3827 109.5679 233.7778 91.8333 C212.1728 74.0988 206 55 206 55"
         style="fill:none; clip-path:url(#clipPath64);"
         clip-path="url(#clipPath64)"
         id="path644" />
      <path
         d="M206 55 L204.6503 67.7322 L214.5462 64.5337 Z"
         style="clip-path:url(#clipPath64); fill-rule:evenodd; stroke:none;"
         clip-path="url(#clipPath64)"
         id="path646" />
    </g>
    <g
       style="text-rendering:geometricPrecision;"
       id="g652">
      <path
         d="M217 193 L137 176"
         style="fill:none; clip-path:url(#clipPath65);"
         clip-path="url(#clipPath65)"
         id="path650" />
    </g>
    <g
       style="text-rendering:geometricPrecision;"
       id="g656">
      <path
         d="M211 423 L131 445"
         style="fill:none; clip-path:url(#clipPath66);"
         clip-path="url(#clipPath66)"
         id="path654" />
    </g>
    <g
       style="text-rendering:geometricPrecision;"
       id="g660">
      <path
         d="M417.5 486 L417.5 594"
         style="fill:none; clip-path:url(#clipPath67);"
         clip-path="url(#clipPath67)"
         id="path658" />
    </g>
    <g
       style="text-rendering:geometricPrecision;"
       id="g664">
      <path
         d="M377 392 C377 392 315.0741 443.8518 303.6667 492 C292.2592 540.1481 289 592 289 592"
         style="fill:none; clip-path:url(#clipPath68);"
         clip-path="url(#clipPath68)"
         id="path662" />
    </g>
  </g>
</svg>
