<?xml version="1.0" encoding="UTF-8" standalone="no"?>
<svg
   style="fill-opacity:1; color-rendering:auto; color-interpolation:auto; stroke:black; text-rendering:auto; stroke-linecap:square; stroke-miterlimit:10; stroke-opacity:1; shape-rendering:auto; fill:black; stroke-dasharray:none; font-weight:normal; stroke-width:1; font-family:'Dialog'; font-style:normal; stroke-linejoin:miter; font-size:12; stroke-dashoffset:0; image-rendering:auto;"
   width="514"
   height="505"
   version="1.1"
   id="svg621"
   xmlns="http://www.w3.org/2000/svg"
   xmlns:svg="http://www.w3.org/2000/svg">
  <!--Generated by the Batik Graphics2D SVG Generator-->
  <defs
     id="genericDefs" />
  <g
     id="g619">
    <defs
       id="defs1">
      <clipPath
         clipPathUnits="userSpaceOnUse"
         id="clipPath1">
        <path
           d="M0 0 L530 0 L530 521 L0 521 L0 0 Z"
           id="path3" />
      </clipPath>
      <clipPath
         clipPathUnits="userSpaceOnUse"
         id="clipPath2">
        <path
           d="M0 0 L0 200 L200 200 L200 0 Z"
           id="path6" />
      </clipPath>
      <clipPath
         clipPathUnits="userSpaceOnUse"
         id="clipPath3">
        <path
           d="M143 16 L143 37 L154 37 L154 16 Z"
           id="path9" />
      </clipPath>
      <clipPath
         clipPathUnits="userSpaceOnUse"
         id="clipPath4">
        <path
           d="M142.4551 3.918 L153.5449 3.918 L153.5449 19.2305 L142.4551 19.2305 L142.4551 3.918 Z"
           id="path12" />
      </clipPath>
      <clipPath
         clipPathUnits="userSpaceOnUse"
         id="clipPath5">
        <path
           d="M29.5 58 L29.5 84 L130.5 84 L130.5 58 Z"
           id="path15" />
      </clipPath>
      <clipPath
         clipPathUnits="userSpaceOnUse"
         id="clipPath6">
        <path
           d="M219.5 89.5 L219.5 110.5 L300.5 110.5 L300.5 89.5 Z"
           id="path18" />
      </clipPath>
      <clipPath
         clipPathUnits="userSpaceOnUse"
         id="clipPath7">
        <path
           d="M219.5 109.5 L219.5 130.5 L300.5 130.5 L300.5 109.5 Z"
           id="path21" />
      </clipPath>
      <clipPath
         clipPathUnits="userSpaceOnUse"
         id="clipPath8">
        <path
           d="M219.5 129.5 L219.5 150.5 L300.5 150.5 L300.5 129.5 Z"
           id="path24" />
      </clipPath>
      <clipPath
         clipPathUnits="userSpaceOnUse"
         id="clipPath9">
        <path
           d="M219.5 149.5 L219.5 170.5 L300.5 170.5 L300.5 149.5 Z"
           id="path27" />
      </clipPath>
      <clipPath
         clipPathUnits="userSpaceOnUse"
         id="clipPath10">
        <path
           d="M219.5 169.5 L219.5 190.5 L300.5 190.5 L300.5 169.5 Z"
           id="path30" />
      </clipPath>
      <clipPath
         clipPathUnits="userSpaceOnUse"
         id="clipPath11">
        <path
           d="M219.5 189.5 L219.5 210.5 L300.5 210.5 L300.5 189.5 Z"
           id="path33" />
      </clipPath>
      <clipPath
         clipPathUnits="userSpaceOnUse"
         id="clipPath12">
        <path
           d="M219.5 209.5 L219.5 230.5 L300.5 230.5 L300.5 209.5 Z"
           id="path36" />
      </clipPath>
      <clipPath
         clipPathUnits="userSpaceOnUse"
         id="clipPath13">
        <path
           d="M219.5 289.5 L219.5 310.5 L300.5 310.5 L300.5 289.5 Z"
           id="path39" />
      </clipPath>
      <clipPath
         clipPathUnits="userSpaceOnUse"
         id="clipPath14">
        <path
           d="M219.5 309.5 L219.5 330.5 L300.5 330.5 L300.5 309.5 Z"
           id="path42" />
      </clipPath>
      <clipPath
         clipPathUnits="userSpaceOnUse"
         id="clipPath15">
        <path
           d="M219.5 329.5 L219.5 350.5 L300.5 350.5 L300.5 329.5 Z"
           id="path45" />
      </clipPath>
      <clipPath
         clipPathUnits="userSpaceOnUse"
         id="clipPath16">
        <path
           d="M219.5 349.5 L219.5 370.5 L300.5 370.5 L300.5 349.5 Z"
           id="path48" />
      </clipPath>
      <clipPath
         clipPathUnits="userSpaceOnUse"
         id="clipPath17">
        <path
           d="M219.5 369.5 L219.5 390.5 L300.5 390.5 L300.5 369.5 Z"
           id="path51" />
      </clipPath>
      <clipPath
         clipPathUnits="userSpaceOnUse"
         id="clipPath18">
        <path
           d="M219.5 389.5 L219.5 410.5 L300.5 410.5 L300.5 389.5 Z"
           id="path54" />
      </clipPath>
      <clipPath
         clipPathUnits="userSpaceOnUse"
         id="clipPath19">
        <path
           d="M219.5 409.5 L219.5 430.5 L300.5 430.5 L300.5 409.5 Z"
           id="path57" />
      </clipPath>
      <clipPath
         clipPathUnits="userSpaceOnUse"
         id="clipPath20">
        <path
           d="M219.5 429.5 L219.5 450.5 L300.5 450.5 L300.5 429.5 Z"
           id="path60" />
      </clipPath>
      <clipPath
         clipPathUnits="userSpaceOnUse"
         id="clipPath21">
        <path
           d="M39.5 89.5 L39.5 110.5 L120.5 110.5 L120.5 89.5 Z"
           id="path63" />
      </clipPath>
      <clipPath
         clipPathUnits="userSpaceOnUse"
         id="clipPath22">
        <path
           d="M39.5 109.5 L39.5 130.5 L120.5 130.5 L120.5 109.5 Z"
           id="path66" />
      </clipPath>
      <clipPath
         clipPathUnits="userSpaceOnUse"
         id="clipPath23">
        <path
           d="M39.5 129.5 L39.5 150.5 L120.5 150.5 L120.5 129.5 Z"
           id="path69" />
      </clipPath>
      <clipPath
         clipPathUnits="userSpaceOnUse"
         id="clipPath24">
        <path
           d="M39.5 149.5 L39.5 170.5 L120.5 170.5 L120.5 149.5 Z"
           id="path72" />
      </clipPath>
      <clipPath
         clipPathUnits="userSpaceOnUse"
         id="clipPath25">
        <path
           d="M39.5 169.5 L39.5 190.5 L120.5 190.5 L120.5 169.5 Z"
           id="path75" />
      </clipPath>
      <clipPath
         clipPathUnits="userSpaceOnUse"
         id="clipPath26">
        <path
           d="M39.5 189.5 L39.5 210.5 L120.5 210.5 L120.5 189.5 Z"
           id="path78" />
      </clipPath>
      <clipPath
         clipPathUnits="userSpaceOnUse"
         id="clipPath27">
        <path
           d="M39.5 389.5 L39.5 410.5 L120.5 410.5 L120.5 389.5 Z"
           id="path81" />
      </clipPath>
      <clipPath
         clipPathUnits="userSpaceOnUse"
         id="clipPath28">
        <path
           d="M39.5 409.5 L39.5 430.5 L120.5 430.5 L120.5 409.5 Z"
           id="path84" />
      </clipPath>
      <clipPath
         clipPathUnits="userSpaceOnUse"
         id="clipPath29">
        <path
           d="M39.5 309.5 L39.5 330.5 L120.5 330.5 L120.5 309.5 Z"
           id="path87" />
      </clipPath>
      <clipPath
         clipPathUnits="userSpaceOnUse"
         id="clipPath30">
        <path
           d="M39.5 329.5 L39.5 350.5 L120.5 350.5 L120.5 329.5 Z"
           id="path90" />
      </clipPath>
      <clipPath
         clipPathUnits="userSpaceOnUse"
         id="clipPath31">
        <path
           d="M39.5 349.5 L39.5 370.5 L120.5 370.5 L120.5 349.5 Z"
           id="path93" />
      </clipPath>
      <clipPath
         clipPathUnits="userSpaceOnUse"
         id="clipPath32">
        <path
           d="M39.5 369.5 L39.5 390.5 L120.5 390.5 L120.5 369.5 Z"
           id="path96" />
      </clipPath>
      <clipPath
         clipPathUnits="userSpaceOnUse"
         id="clipPath33">
        <path
           d="M39.5 269.5 L39.5 290.5 L120.5 290.5 L120.5 269.5 Z"
           id="path99" />
      </clipPath>
      <clipPath
         clipPathUnits="userSpaceOnUse"
         id="clipPath34">
        <path
           d="M39.5 289.5 L39.5 310.5 L120.5 310.5 L120.5 289.5 Z"
           id="path102" />
      </clipPath>
      <clipPath
         clipPathUnits="userSpaceOnUse"
         id="clipPath35">
        <path
           d="M39.5 429.5 L39.5 450.5 L120.5 450.5 L120.5 429.5 Z"
           id="path105" />
      </clipPath>
      <clipPath
         clipPathUnits="userSpaceOnUse"
         id="clipPath36">
        <path
           d="M39.5 449.5 L39.5 470.5 L120.5 470.5 L120.5 449.5 Z"
           id="path108" />
      </clipPath>
      <clipPath
         clipPathUnits="userSpaceOnUse"
         id="clipPath37">
        <path
           d="M399.5 89.5 L399.5 110.5 L480.5 110.5 L480.5 89.5 Z"
           id="path111" />
      </clipPath>
      <clipPath
         clipPathUnits="userSpaceOnUse"
         id="clipPath38">
        <path
           d="M399.5 109.5 L399.5 130.5 L480.5 130.5 L480.5 109.5 Z"
           id="path114" />
      </clipPath>
      <clipPath
         clipPathUnits="userSpaceOnUse"
         id="clipPath39">
        <path
           d="M399.5 129.5 L399.5 150.5 L480.5 150.5 L480.5 129.5 Z"
           id="path117" />
      </clipPath>
      <clipPath
         clipPathUnits="userSpaceOnUse"
         id="clipPath40">
        <path
           d="M399.5 149.5 L399.5 170.5 L480.5 170.5 L480.5 149.5 Z"
           id="path120" />
      </clipPath>
      <clipPath
         clipPathUnits="userSpaceOnUse"
         id="clipPath41">
        <path
           d="M399.5 169.5 L399.5 190.5 L480.5 190.5 L480.5 169.5 Z"
           id="path123" />
      </clipPath>
      <clipPath
         clipPathUnits="userSpaceOnUse"
         id="clipPath42">
        <path
           d="M399.5 189.5 L399.5 210.5 L480.5 210.5 L480.5 189.5 Z"
           id="path126" />
      </clipPath>
      <clipPath
         clipPathUnits="userSpaceOnUse"
         id="clipPath43">
        <path
           d="M399.5 209.5 L399.5 230.5 L480.5 230.5 L480.5 209.5 Z"
           id="path129" />
      </clipPath>
      <clipPath
         clipPathUnits="userSpaceOnUse"
         id="clipPath44">
        <path
           d="M399.5 229.5 L399.5 250.5 L480.5 250.5 L480.5 229.5 Z"
           id="path132" />
      </clipPath>
      <clipPath
         clipPathUnits="userSpaceOnUse"
         id="clipPath45">
        <path
           d="M399.5 249.5 L399.5 270.5 L480.5 270.5 L480.5 249.5 Z"
           id="path135" />
      </clipPath>
      <clipPath
         clipPathUnits="userSpaceOnUse"
         id="clipPath46">
        <path
           d="M399.5 269.5 L399.5 290.5 L480.5 290.5 L480.5 269.5 Z"
           id="path138" />
      </clipPath>
      <clipPath
         clipPathUnits="userSpaceOnUse"
         id="clipPath47">
        <path
           d="M399.5 289.5 L399.5 310.5 L480.5 310.5 L480.5 289.5 Z"
           id="path141" />
      </clipPath>
      <clipPath
         clipPathUnits="userSpaceOnUse"
         id="clipPath48">
        <path
           d="M399.5 309.5 L399.5 330.5 L480.5 330.5 L480.5 309.5 Z"
           id="path144" />
      </clipPath>
      <clipPath
         clipPathUnits="userSpaceOnUse"
         id="clipPath49">
        <path
           d="M399.5 329.5 L399.5 350.5 L480.5 350.5 L480.5 329.5 Z"
           id="path147" />
      </clipPath>
      <clipPath
         clipPathUnits="userSpaceOnUse"
         id="clipPath50">
        <path
           d="M399.5 349.5 L399.5 370.5 L480.5 370.5 L480.5 349.5 Z"
           id="path150" />
      </clipPath>
      <clipPath
         clipPathUnits="userSpaceOnUse"
         id="clipPath51">
        <path
           d="M399.5 369.1886 L399.5 390.1886 L480.5 390.1886 L480.5 369.1886 Z"
           id="path153" />
      </clipPath>
      <clipPath
         clipPathUnits="userSpaceOnUse"
         id="clipPath52">
        <path
           d="M214.5 58 L214.5 84 L305.5 84 L305.5 58 Z"
           id="path156" />
      </clipPath>
      <clipPath
         clipPathUnits="userSpaceOnUse"
         id="clipPath53">
        <path
           d="M379.5 57.5 L379.5 84.5 L500.5 84.5 L500.5 57.5 Z"
           id="path159" />
      </clipPath>
      <clipPath
         clipPathUnits="userSpaceOnUse"
         id="clipPath54">
        <path
           d="M29.5 237 L29.5 263 L130.5 263 L130.5 237 Z"
           id="path162" />
      </clipPath>
      <clipPath
         clipPathUnits="userSpaceOnUse"
         id="clipPath55">
        <path
           d="M189.5 246.5 L189.5 273.5 L330.5 273.5 L330.5 246.5 Z"
           id="path165" />
      </clipPath>
      <clipPath
         clipPathUnits="userSpaceOnUse"
         id="clipPath56">
        <path
           d="M397.5 430.5427 L397.5 451.5427 L478.5 451.5427 L478.5 430.5427 Z"
           id="path168" />
      </clipPath>
      <clipPath
         clipPathUnits="userSpaceOnUse"
         id="clipPath57">
        <path
           d="M397.5 450.5427 L397.5 471.5427 L478.5 471.5427 L478.5 450.5427 Z"
           id="path171" />
      </clipPath>
      <clipPath
         clipPathUnits="userSpaceOnUse"
         id="clipPath58">
        <path
           d="M397.5 470.5427 L397.5 491.5427 L478.5 491.5427 L478.5 470.5427 Z"
           id="path174" />
      </clipPath>
      <clipPath
         clipPathUnits="userSpaceOnUse"
         id="clipPath59">
        <path
           d="M377.5 399.0427 L377.5 425.0427 L498.5 425.0427 L498.5 399.0427 Z"
           id="path177" />
      </clipPath>
    </defs>
    <g
       style="fill:white; stroke:white;"
       id="g183">
      <rect
         x="0"
         width="530"
         height="521"
         y="0"
         style="stroke:none;"
         id="rect181" />
    </g>
    <g
       style="font-weight:bold; font-size:10; text-rendering:geometricPrecision;"
       id="g193">
      <path
         d="M0.0469 6.7031 L6.7656 6.7031 L6.7656 8.125 L4.3438 8.125 L4.3438 14 L2.4688 14 L2.4688 8.125 L0.0469 8.125 L0.0469 6.7031 ZM7.665 8.5312 L9.415 8.5312 L9.415 14 L7.665 14 L7.665 8.5312 ZM7.665 6.4062 L9.415 6.4062 L9.415 7.8281 L7.665 7.8281 L7.665 6.4062 ZM12.999 6.9844 L12.999 8.5312 L14.7959 8.5312 L14.7959 9.7812 L12.999 9.7812 L12.999 12.0938 Q12.999 12.4844 13.1475 12.6172 Q13.2959 12.75 13.749 12.75 L14.6553 12.75 L14.6553 14 L13.1553 14 Q12.1084 14 11.6787 13.5703 Q11.249 13.1406 11.249 12.0938 L11.249 9.7812 L10.374 9.7812 L10.374 8.5312 L11.249 8.5312 L11.249 6.9844 L12.999 6.9844 ZM15.873 6.4062 L17.623 6.4062 L17.623 14 L15.873 14 L15.873 6.4062 ZM24.7539 11.25 L24.7539 11.75 L20.6758 11.75 Q20.7383 12.3594 21.1133 12.6719 Q21.4883 12.9844 22.1758 12.9844 Q22.7227 12.9844 23.3086 12.8203 Q23.8945 12.6562 24.5039 12.3125 L24.5039 13.6719 Q23.8789 13.9062 23.2617 14.0234 Q22.6445 14.1406 22.0195 14.1406 Q20.5352 14.1406 19.7148 13.3828 Q18.8945 12.625 18.8945 11.2656 Q18.8945 9.9375 19.6992 9.1719 Q20.5039 8.4062 21.9258 8.4062 Q23.207 8.4062 23.9805 9.1797 Q24.7539 9.9531 24.7539 11.25 ZM22.957 10.6719 Q22.957 10.1719 22.668 9.8672 Q22.3789 9.5625 21.9102 9.5625 Q21.3945 9.5625 21.082 9.8438 Q20.7695 10.125 20.6914 10.6719 L22.957 10.6719 ZM26.3643 8.5312 L28.1143 8.5312 L28.1143 10.4219 L26.3643 10.4219 L26.3643 8.5312 ZM26.3643 12.1094 L28.1143 12.1094 L28.1143 14 L26.3643 14 L26.3643 12.1094 Z"
         style="clip-path:url(#clipPath2); stroke:none;"
         clip-path="url(#clipPath2)"
         id="path185" />
      <path
         d="M38.9844 6.7031 L40.3125 6.7031 L43.5469 12.8125 L43.5469 6.7031 L44.5 6.7031 L44.5 14 L43.1719 14 L39.9375 7.9062 L39.9375 14 L38.9844 14 L38.9844 6.7031 ZM51.1055 11.0469 L51.1055 11.4844 L46.9648 11.4844 Q47.0273 12.4062 47.5273 12.8906 Q48.0273 13.375 48.918 13.375 Q49.4336 13.375 49.9258 13.25 Q50.418 13.125 50.8867 12.875 L50.8867 13.7188 Q50.4023 13.9219 49.8945 14.0312 Q49.3867 14.1406 48.8711 14.1406 Q47.5586 14.1406 46.793 13.3828 Q46.0273 12.625 46.0273 11.3125 Q46.0273 9.9688 46.7539 9.1875 Q47.4805 8.4062 48.7148 8.4062 Q49.8242 8.4062 50.4648 9.1094 Q51.1055 9.8125 51.1055 11.0469 ZM50.1992 10.7812 Q50.1992 10.0469 49.793 9.6016 Q49.3867 9.1562 48.7305 9.1562 Q47.9648 9.1562 47.5195 9.5859 Q47.0742 10.0156 46.9961 10.7812 L50.1992 10.7812 ZM53.4453 13.1719 L53.4453 16.0781 L52.5391 16.0781 L52.5391 8.5312 L53.4453 8.5312 L53.4453 9.3594 Q53.7266 8.875 54.1562 8.6406 Q54.5859 8.4062 55.1953 8.4062 Q56.1953 8.4062 56.8125 9.1953 Q57.4297 9.9844 57.4297 11.2656 Q57.4297 12.5625 56.8125 13.3516 Q56.1953 14.1406 55.1953 14.1406 Q54.5859 14.1406 54.1562 13.9062 Q53.7266 13.6719 53.4453 13.1719 ZM56.5078 11.2656 Q56.5078 10.2812 56.0938 9.7188 Q55.6797 9.1562 54.9766 9.1562 Q54.2578 9.1562 53.8516 9.7188 Q53.4453 10.2812 53.4453 11.2656 Q53.4453 12.2656 53.8516 12.8281 Q54.2578 13.3906 54.9766 13.3906 Q55.6797 13.3906 56.0938 12.8281 Q56.5078 12.2656 56.5078 11.2656 ZM63.4648 10.7031 L63.4648 14 L62.5742 14 L62.5742 10.7344 Q62.5742 9.9531 62.2695 9.5703 Q61.9648 9.1875 61.3555 9.1875 Q60.6367 9.1875 60.2148 9.6484 Q59.793 10.1094 59.793 10.9062 L59.793 14 L58.8867 14 L58.8867 6.4062 L59.793 6.4062 L59.793 9.375 Q60.1211 8.8906 60.5586 8.6484 Q60.9961 8.4062 61.5586 8.4062 Q62.4961 8.4062 62.9805 8.9844 Q63.4648 9.5625 63.4648 10.7031 ZM68.4277 9.375 Q68.2715 9.2812 68.0996 9.2422 Q67.9277 9.2031 67.709 9.2031 Q66.9434 9.2031 66.5371 9.6953 Q66.1309 10.1875 66.1309 11.125 L66.1309 14 L65.2246 14 L65.2246 8.5312 L66.1309 8.5312 L66.1309 9.375 Q66.4121 8.875 66.8652 8.6406 Q67.3184 8.4062 67.9746 8.4062 Q68.0684 8.4062 68.1777 8.4141 Q68.2871 8.4219 68.4277 8.4531 L68.4277 9.375 ZM71.4922 9.1562 Q70.7734 9.1562 70.3516 9.7188 Q69.9297 10.2812 69.9297 11.2656 Q69.9297 12.25 70.3438 12.8125 Q70.7578 13.375 71.4922 13.375 Q72.2109 13.375 72.6328 12.8125 Q73.0547 12.25 73.0547 11.2656 Q73.0547 10.2969 72.6328 9.7266 Q72.2109 9.1562 71.4922 9.1562 ZM71.4922 8.4062 Q72.6641 8.4062 73.3359 9.1641 Q74.0078 9.9219 74.0078 11.2656 Q74.0078 12.6094 73.3359 13.375 Q72.6641 14.1406 71.4922 14.1406 Q70.3203 14.1406 69.6484 13.375 Q68.9766 12.6094 68.9766 11.2656 Q68.9766 9.9219 69.6484 9.1641 Q70.3203 8.4062 71.4922 8.4062 ZM76.376 6.9844 L76.376 8.5312 L78.2354 8.5312 L78.2354 9.2344 L76.376 9.2344 L76.376 12.2031 Q76.376 12.8594 76.5635 13.0547 Q76.751 13.25 77.3135 13.25 L78.2354 13.25 L78.2354 14 L77.3135 14 Q76.2666 14 75.8682 13.6094 Q75.4697 13.2188 75.4697 12.2031 L75.4697 9.2344 L74.8135 9.2344 L74.8135 8.5312 L75.4697 8.5312 L75.4697 6.9844 L76.376 6.9844 ZM79.4062 8.5312 L80.3125 8.5312 L80.3125 14 L79.4062 14 L79.4062 8.5312 ZM79.4062 6.4062 L80.3125 6.4062 L80.3125 7.5469 L79.4062 7.5469 L79.4062 6.4062 ZM86.1221 8.7344 L86.1221 9.5781 Q85.7471 9.375 85.3643 9.2656 Q84.9814 9.1562 84.5908 9.1562 Q83.7158 9.1562 83.2314 9.7109 Q82.7471 10.2656 82.7471 11.2656 Q82.7471 12.2656 83.2314 12.8203 Q83.7158 13.375 84.5908 13.375 Q84.9814 13.375 85.3643 13.2734 Q85.7471 13.1719 86.1221 12.9531 L86.1221 13.7969 Q85.7471 13.9688 85.3486 14.0547 Q84.9502 14.1406 84.4971 14.1406 Q83.2471 14.1406 82.5205 13.3672 Q81.7939 12.5938 81.7939 11.2656 Q81.7939 9.9375 82.5283 9.1719 Q83.2627 8.4062 84.5439 8.4062 Q84.9658 8.4062 85.3564 8.4844 Q85.7471 8.5625 86.1221 8.7344 ZM94.3457 8.6875 L94.3457 9.5469 Q93.9707 9.3438 93.5645 9.25 Q93.1582 9.1562 92.7051 9.1562 Q92.0488 9.1562 91.7129 9.3594 Q91.377 9.5625 91.377 9.9688 Q91.377 10.2812 91.6113 10.4609 Q91.8457 10.6406 92.5801 10.7969 L92.877 10.875 Q93.8457 11.0781 94.2441 11.4531 Q94.6426 11.8281 94.6426 12.4844 Q94.6426 13.25 94.041 13.6953 Q93.4395 14.1406 92.3926 14.1406 Q91.9395 14.1406 91.4629 14.0547 Q90.9863 13.9688 90.4707 13.7969 L90.4707 12.875 Q90.9707 13.125 91.4473 13.2578 Q91.9238 13.3906 92.4082 13.3906 Q93.0332 13.3906 93.377 13.1719 Q93.7207 12.9531 93.7207 12.5625 Q93.7207 12.1875 93.4785 11.9922 Q93.2363 11.7969 92.3926 11.625 L92.0801 11.5469 Q91.252 11.375 90.877 11.0078 Q90.502 10.6406 90.502 10.0156 Q90.502 9.2344 91.0488 8.8203 Q91.5957 8.4062 92.6113 8.4062 Q93.0957 8.4062 93.541 8.4766 Q93.9863 8.5469 94.3457 8.6875 ZM98.3525 14.5156 Q97.9775 15.4844 97.6104 15.7812 Q97.2432 16.0781 96.6494 16.0781 L95.9307 16.0781 L95.9307 15.3281 L96.4463 15.3281 Q96.8213 15.3281 97.0244 15.1562 Q97.2275 14.9844 97.4775 14.3281 L97.6494 13.9062 L95.4307 8.5312 L96.3838 8.5312 L98.0869 12.8125 L99.8057 8.5312 L100.7588 8.5312 L98.3525 14.5156 ZM106.5361 10.7031 L106.5361 14 L105.6455 14 L105.6455 10.7344 Q105.6455 9.9531 105.3408 9.5703 Q105.0361 9.1875 104.4268 9.1875 Q103.708 9.1875 103.2861 9.6484 Q102.8643 10.1094 102.8643 10.9062 L102.8643 14 L101.958 14 L101.958 8.5312 L102.8643 8.5312 L102.8643 9.375 Q103.1924 8.8906 103.6299 8.6484 Q104.0674 8.4062 104.6299 8.4062 Q105.5674 8.4062 106.0518 8.9844 Q106.5361 9.5625 106.5361 10.7031 ZM111.9365 9.3594 L111.9365 6.4062 L112.8271 6.4062 L112.8271 14 L111.9365 14 L111.9365 13.1719 Q111.6553 13.6719 111.2178 13.9062 Q110.7803 14.1406 110.1709 14.1406 Q109.1865 14.1406 108.5615 13.3516 Q107.9365 12.5625 107.9365 11.2656 Q107.9365 9.9844 108.5615 9.1953 Q109.1865 8.4062 110.1709 8.4062 Q110.7803 8.4062 111.2178 8.6406 Q111.6553 8.875 111.9365 9.3594 ZM108.874 11.2656 Q108.874 12.2656 109.2803 12.8281 Q109.6865 13.3906 110.4053 13.3906 Q111.1084 13.3906 111.5225 12.8281 Q111.9365 12.2656 111.9365 11.2656 Q111.9365 10.2812 111.5225 9.7188 Q111.1084 9.1562 110.4053 9.1562 Q109.6865 9.1562 109.2803 9.7188 Q108.874 10.2812 108.874 11.2656 ZM117.8467 9.375 Q117.6904 9.2812 117.5186 9.2422 Q117.3467 9.2031 117.1279 9.2031 Q116.3623 9.2031 115.9561 9.6953 Q115.5498 10.1875 115.5498 11.125 L115.5498 14 L114.6436 14 L114.6436 8.5312 L115.5498 8.5312 L115.5498 9.375 Q115.8311 8.875 116.2842 8.6406 Q116.7373 8.4062 117.3936 8.4062 Q117.4873 8.4062 117.5967 8.4141 Q117.7061 8.4219 117.8467 8.4531 L117.8467 9.375 ZM120.9111 9.1562 Q120.1924 9.1562 119.7705 9.7188 Q119.3486 10.2812 119.3486 11.2656 Q119.3486 12.25 119.7627 12.8125 Q120.1768 13.375 120.9111 13.375 Q121.6299 13.375 122.0518 12.8125 Q122.4736 12.25 122.4736 11.2656 Q122.4736 10.2969 122.0518 9.7266 Q121.6299 9.1562 120.9111 9.1562 ZM120.9111 8.4062 Q122.083 8.4062 122.7549 9.1641 Q123.4268 9.9219 123.4268 11.2656 Q123.4268 12.6094 122.7549 13.375 Q122.083 14.1406 120.9111 14.1406 Q119.7393 14.1406 119.0674 13.375 Q118.3955 12.6094 118.3955 11.2656 Q118.3955 9.9219 119.0674 9.1641 Q119.7393 8.4062 120.9111 8.4062 ZM129.1699 9.5781 Q129.498 8.9688 129.9668 8.6875 Q130.4355 8.4062 131.0762 8.4062 Q131.9355 8.4062 132.3965 9 Q132.8574 9.5938 132.8574 10.7031 L132.8574 14 L131.9512 14 L131.9512 10.7344 Q131.9512 9.9375 131.6777 9.5625 Q131.4043 9.1875 130.8262 9.1875 Q130.123 9.1875 129.7246 9.6484 Q129.3262 10.1094 129.3262 10.9062 L129.3262 14 L128.4199 14 L128.4199 10.7344 Q128.4199 9.9375 128.1387 9.5625 Q127.8574 9.1875 127.2793 9.1875 Q126.5918 9.1875 126.1855 9.6484 Q125.7793 10.1094 125.7793 10.9062 L125.7793 14 L124.873 14 L124.873 8.5312 L125.7793 8.5312 L125.7793 9.375 Q126.0918 8.875 126.5215 8.6406 Q126.9512 8.4062 127.5293 8.4062 Q128.1387 8.4062 128.5527 8.7031 Q128.9668 9 129.1699 9.5781 ZM139.333 11.0469 L139.333 11.4844 L135.1924 11.4844 Q135.2549 12.4062 135.7549 12.8906 Q136.2549 13.375 137.1455 13.375 Q137.6611 13.375 138.1533 13.25 Q138.6455 13.125 139.1143 12.875 L139.1143 13.7188 Q138.6299 13.9219 138.1221 14.0312 Q137.6143 14.1406 137.0986 14.1406 Q135.7861 14.1406 135.0205 13.3828 Q134.2549 12.625 134.2549 11.3125 Q134.2549 9.9688 134.9814 9.1875 Q135.708 8.4062 136.9424 8.4062 Q138.0518 8.4062 138.6924 9.1094 Q139.333 9.8125 139.333 11.0469 ZM138.4268 10.7812 Q138.4268 10.0469 138.0205 9.6016 Q137.6143 9.1562 136.958 9.1562 Q136.1924 9.1562 135.7471 9.5859 Q135.3018 10.0156 135.2236 10.7812 L138.4268 10.7812 Z"
         style="clip-path:url(#clipPath2); stroke:none;"
         clip-path="url(#clipPath2)"
         id="path187" />
      <path
         d="M4.25 21.9375 Q3.3906 21.9375 2.9141 22.5703 Q2.4375 23.2031 2.4375 24.3594 Q2.4375 25.5156 2.9141 26.1484 Q3.3906 26.7812 4.25 26.7812 Q5.1094 26.7812 5.5859 26.1484 Q6.0625 25.5156 6.0625 24.3594 Q6.0625 23.2031 5.5859 22.5703 Q5.1094 21.9375 4.25 21.9375 ZM4.25 20.5781 Q6 20.5781 7 21.5859 Q8 22.5938 8 24.3594 Q8 26.125 7 27.1328 Q6 28.1406 4.25 28.1406 Q2.5 28.1406 1.5 27.1328 Q0.5 26.125 0.5 24.3594 Q0.5 22.5938 1.5 21.5859 Q2.5 20.5781 4.25 20.5781 ZM13.4072 24.0156 Q13.1729 23.9062 12.9463 23.8594 Q12.7197 23.8125 12.4854 23.8125 Q11.8135 23.8125 11.4541 24.2422 Q11.0947 24.6719 11.0947 25.4844 L11.0947 28 L9.3447 28 L9.3447 22.5312 L11.0947 22.5312 L11.0947 23.4219 Q11.4229 22.8906 11.8604 22.6484 Q12.2979 22.4062 12.9072 22.4062 Q13.001 22.4062 13.1025 22.4062 Q13.2041 22.4062 13.3916 22.4375 L13.4072 24.0156 ZM17.9951 27.0781 Q17.6357 27.5469 17.1982 27.7734 Q16.7607 28 16.1982 28 Q15.1982 28 14.542 27.2109 Q13.8857 26.4219 13.8857 25.2031 Q13.8857 23.9688 14.542 23.1875 Q15.1982 22.4062 16.1982 22.4062 Q16.7607 22.4062 17.1982 22.6328 Q17.6357 22.8594 17.9951 23.3438 L17.9951 22.5312 L19.7451 22.5312 L19.7451 27.4531 Q19.7451 28.7656 18.917 29.4609 Q18.0889 30.1562 16.5107 30.1562 Q15.9951 30.1562 15.5186 30.0781 Q15.042 30 14.5576 29.8438 L14.5576 28.4844 Q15.0107 28.75 15.4482 28.875 Q15.8857 29 16.3389 29 Q17.1982 29 17.5967 28.625 Q17.9951 28.25 17.9951 27.4531 L17.9951 27.0781 ZM16.8389 23.6719 Q16.292 23.6719 15.9951 24.0703 Q15.6982 24.4688 15.6982 25.2031 Q15.6982 25.9531 15.9873 26.3438 Q16.2764 26.7344 16.8389 26.7344 Q17.3857 26.7344 17.6904 26.3281 Q17.9951 25.9219 17.9951 25.2031 Q17.9951 24.4688 17.6904 24.0703 Q17.3857 23.6719 16.8389 23.6719 ZM23.8877 25.5312 Q23.3408 25.5312 23.0596 25.7188 Q22.7783 25.9062 22.7783 26.2656 Q22.7783 26.6094 23.0049 26.7969 Q23.2314 26.9844 23.6221 26.9844 Q24.1221 26.9844 24.458 26.625 Q24.7939 26.2656 24.7939 25.7344 L24.7939 25.5312 L23.8877 25.5312 ZM26.5596 24.875 L26.5596 28 L24.7939 28 L24.7939 27.1875 Q24.4346 27.6875 23.9971 27.9141 Q23.5596 28.1406 22.9346 28.1406 Q22.0752 28.1406 21.5518 27.6484 Q21.0283 27.1562 21.0283 26.3594 Q21.0283 25.3906 21.6846 24.9453 Q22.3408 24.5 23.7627 24.5 L24.7939 24.5 L24.7939 24.3594 Q24.7939 23.9531 24.4658 23.7578 Q24.1377 23.5625 23.4502 23.5625 Q22.8877 23.5625 22.4033 23.6719 Q21.9189 23.7812 21.4971 24.0156 L21.4971 22.6719 Q22.0596 22.5469 22.6299 22.4766 Q23.2002 22.4062 23.7627 22.4062 Q25.2471 22.4062 25.9033 22.9844 Q26.5596 23.5625 26.5596 24.875 ZM33.6826 24.6719 L33.6826 28 L31.917 28 L31.917 27.4531 L31.917 25.4531 Q31.917 24.75 31.8857 24.4766 Q31.8545 24.2031 31.7764 24.0781 Q31.6826 23.9062 31.5029 23.8125 Q31.3232 23.7188 31.1045 23.7188 Q30.5576 23.7188 30.2451 24.1406 Q29.9326 24.5625 29.9326 25.3125 L29.9326 28 L28.1826 28 L28.1826 22.5312 L29.9326 22.5312 L29.9326 23.3281 Q30.3232 22.8594 30.7686 22.6328 Q31.2139 22.4062 31.7451 22.4062 Q32.6982 22.4062 33.1904 22.9844 Q33.6826 23.5625 33.6826 24.6719 ZM35.3018 22.5312 L37.0518 22.5312 L37.0518 28 L35.3018 28 L35.3018 22.5312 ZM35.3018 20.4062 L37.0518 20.4062 L37.0518 21.8281 L35.3018 21.8281 L35.3018 20.4062 ZM42.9951 22.7031 L42.9951 24.0312 Q42.4326 23.7969 41.9092 23.6797 Q41.3857 23.5625 40.9326 23.5625 Q40.4326 23.5625 40.1904 23.6875 Q39.9482 23.8125 39.9482 24.0625 Q39.9482 24.2812 40.1279 24.3906 Q40.3076 24.5 40.792 24.5625 L41.0889 24.5938 Q42.4326 24.7656 42.9014 25.1562 Q43.3701 25.5469 43.3701 26.3906 Q43.3701 27.2656 42.7217 27.7031 Q42.0732 28.1406 40.792 28.1406 Q40.2607 28.1406 39.6826 28.0547 Q39.1045 27.9688 38.4795 27.7969 L38.4795 26.4688 Q39.0107 26.7188 39.5576 26.8516 Q40.1045 26.9844 40.667 26.9844 Q41.1826 26.9844 41.4404 26.8438 Q41.6982 26.7031 41.6982 26.4219 Q41.6982 26.1875 41.5264 26.0703 Q41.3545 25.9531 40.8232 25.8906 L40.5107 25.8438 Q39.3389 25.7031 38.8701 25.3047 Q38.4014 24.9062 38.4014 24.1094 Q38.4014 23.2344 38.9951 22.8203 Q39.5889 22.4062 40.8232 22.4062 Q41.3076 22.4062 41.8389 22.4766 Q42.3701 22.5469 42.9951 22.7031 ZM49.7441 23.4375 Q50.0723 22.9375 50.5332 22.6719 Q50.9941 22.4062 51.541 22.4062 Q52.4785 22.4062 52.9707 22.9844 Q53.4629 23.5625 53.4629 24.6719 L53.4629 28 L51.7129 28 L51.7129 25.1406 Q51.7129 25.0781 51.7129 25.0156 Q51.7129 24.9531 51.7129 24.8281 Q51.7129 24.2344 51.5488 23.9766 Q51.3848 23.7188 50.9941 23.7188 Q50.4941 23.7188 50.2285 24.125 Q49.9629 24.5312 49.9473 25.3125 L49.9473 28 L48.1816 28 L48.1816 25.1406 Q48.1816 24.2344 48.0254 23.9766 Q47.8691 23.7188 47.4785 23.7188 Q46.9785 23.7188 46.7051 24.1328 Q46.4316 24.5469 46.4316 25.3125 L46.4316 28 L44.666 28 L44.666 22.5312 L46.4316 22.5312 L46.4316 23.3281 Q46.7441 22.875 47.166 22.6406 Q47.5879 22.4062 48.0879 22.4062 Q48.6504 22.4062 49.0879 22.6797 Q49.5254 22.9531 49.7441 23.4375 ZM55.3828 22.5312 L57.1328 22.5312 L57.1328 24.4219 L55.3828 24.4219 L55.3828 22.5312 ZM55.3828 26.1094 L57.1328 26.1094 L57.1328 28 L55.3828 28 L55.3828 26.1094 Z"
         style="clip-path:url(#clipPath2); stroke:none;"
         clip-path="url(#clipPath2)"
         id="path189" />
      <path
         d="M66.9844 20.7031 L67.9688 20.7031 L67.9688 23.7031 L71.5469 23.7031 L71.5469 20.7031 L72.5312 20.7031 L72.5312 28 L71.5469 28 L71.5469 24.5312 L67.9688 24.5312 L67.9688 28 L66.9844 28 L66.9844 20.7031 ZM76.582 23.1562 Q75.8633 23.1562 75.4414 23.7188 Q75.0195 24.2812 75.0195 25.2656 Q75.0195 26.25 75.4336 26.8125 Q75.8477 27.375 76.582 27.375 Q77.3008 27.375 77.7227 26.8125 Q78.1445 26.25 78.1445 25.2656 Q78.1445 24.2969 77.7227 23.7266 Q77.3008 23.1562 76.582 23.1562 ZM76.582 22.4062 Q77.7539 22.4062 78.4258 23.1641 Q79.0977 23.9219 79.0977 25.2656 Q79.0977 26.6094 78.4258 27.375 Q77.7539 28.1406 76.582 28.1406 Q75.4102 28.1406 74.7383 27.375 Q74.0664 26.6094 74.0664 25.2656 Q74.0664 23.9219 74.7383 23.1641 Q75.4102 22.4062 76.582 22.4062 ZM84.8408 23.5781 Q85.1689 22.9688 85.6377 22.6875 Q86.1064 22.4062 86.7471 22.4062 Q87.6064 22.4062 88.0674 23 Q88.5283 23.5938 88.5283 24.7031 L88.5283 28 L87.6221 28 L87.6221 24.7344 Q87.6221 23.9375 87.3486 23.5625 Q87.0752 23.1875 86.4971 23.1875 Q85.7939 23.1875 85.3955 23.6484 Q84.9971 24.1094 84.9971 24.9062 L84.9971 28 L84.0908 28 L84.0908 24.7344 Q84.0908 23.9375 83.8096 23.5625 Q83.5283 23.1875 82.9502 23.1875 Q82.2627 23.1875 81.8564 23.6484 Q81.4502 24.1094 81.4502 24.9062 L81.4502 28 L80.5439 28 L80.5439 22.5312 L81.4502 22.5312 L81.4502 23.375 Q81.7627 22.875 82.1924 22.6406 Q82.6221 22.4062 83.2002 22.4062 Q83.8096 22.4062 84.2236 22.7031 Q84.6377 23 84.8408 23.5781 ZM92.4414 23.1562 Q91.7227 23.1562 91.3008 23.7188 Q90.8789 24.2812 90.8789 25.2656 Q90.8789 26.25 91.293 26.8125 Q91.707 27.375 92.4414 27.375 Q93.1602 27.375 93.582 26.8125 Q94.0039 26.25 94.0039 25.2656 Q94.0039 24.2969 93.582 23.7266 Q93.1602 23.1562 92.4414 23.1562 ZM92.4414 22.4062 Q93.6133 22.4062 94.2852 23.1641 Q94.957 23.9219 94.957 25.2656 Q94.957 26.6094 94.2852 27.375 Q93.6133 28.1406 92.4414 28.1406 Q91.2695 28.1406 90.5977 27.375 Q89.9258 26.6094 89.9258 25.2656 Q89.9258 23.9219 90.5977 23.1641 Q91.2695 22.4062 92.4414 22.4062 ZM103.0977 22.6875 L103.0977 23.5469 Q102.7227 23.3438 102.3164 23.25 Q101.9102 23.1562 101.457 23.1562 Q100.8008 23.1562 100.4648 23.3594 Q100.1289 23.5625 100.1289 23.9688 Q100.1289 24.2812 100.3633 24.4609 Q100.5977 24.6406 101.332 24.7969 L101.6289 24.875 Q102.5977 25.0781 102.9961 25.4531 Q103.3945 25.8281 103.3945 26.4844 Q103.3945 27.25 102.793 27.6953 Q102.1914 28.1406 101.1445 28.1406 Q100.6914 28.1406 100.2148 28.0547 Q99.7383 27.9688 99.2227 27.7969 L99.2227 26.875 Q99.7227 27.125 100.1992 27.2578 Q100.6758 27.3906 101.1602 27.3906 Q101.7852 27.3906 102.1289 27.1719 Q102.4727 26.9531 102.4727 26.5625 Q102.4727 26.1875 102.2305 25.9922 Q101.9883 25.7969 101.1445 25.625 L100.832 25.5469 Q100.0039 25.375 99.6289 25.0078 Q99.2539 24.6406 99.2539 24.0156 Q99.2539 23.2344 99.8008 22.8203 Q100.3477 22.4062 101.3633 22.4062 Q101.8477 22.4062 102.293 22.4766 Q102.7383 22.5469 103.0977 22.6875 ZM107.3076 25.25 Q106.2295 25.25 105.8076 25.5 Q105.3857 25.75 105.3857 26.3438 Q105.3857 26.8281 105.6982 27.1094 Q106.0107 27.3906 106.5576 27.3906 Q107.3076 27.3906 107.7607 26.8594 Q108.2139 26.3281 108.2139 25.4531 L108.2139 25.25 L107.3076 25.25 ZM109.1045 24.875 L109.1045 28 L108.2139 28 L108.2139 27.1719 Q107.9014 27.6719 107.4404 27.9062 Q106.9795 28.1406 106.3232 28.1406 Q105.4795 28.1406 104.9795 27.6719 Q104.4795 27.2031 104.4795 26.4062 Q104.4795 25.4844 105.1045 25.0156 Q105.7295 24.5469 106.9482 24.5469 L108.2139 24.5469 L108.2139 24.4531 Q108.2139 23.8438 107.7998 23.5 Q107.3857 23.1562 106.6514 23.1562 Q106.1826 23.1562 105.7373 23.2734 Q105.292 23.3906 104.8857 23.6094 L104.8857 22.7812 Q105.3857 22.5938 105.8467 22.5 Q106.3076 22.4062 106.7451 22.4062 Q107.9326 22.4062 108.5186 23.0156 Q109.1045 23.625 109.1045 24.875 ZM111.8262 27.1719 L111.8262 30.0781 L110.9199 30.0781 L110.9199 22.5312 L111.8262 22.5312 L111.8262 23.3594 Q112.1074 22.875 112.5371 22.6406 Q112.9668 22.4062 113.5762 22.4062 Q114.5762 22.4062 115.1934 23.1953 Q115.8105 23.9844 115.8105 25.2656 Q115.8105 26.5625 115.1934 27.3516 Q114.5762 28.1406 113.5762 28.1406 Q112.9668 28.1406 112.5371 27.9062 Q112.1074 27.6719 111.8262 27.1719 ZM114.8887 25.2656 Q114.8887 24.2812 114.4746 23.7188 Q114.0605 23.1562 113.3574 23.1562 Q112.6387 23.1562 112.2324 23.7188 Q111.8262 24.2812 111.8262 25.2656 Q111.8262 26.2656 112.2324 26.8281 Q112.6387 27.3906 113.3574 27.3906 Q114.0605 27.3906 114.4746 26.8281 Q114.8887 26.2656 114.8887 25.2656 ZM117.2988 22.5312 L118.2051 22.5312 L118.2051 28 L117.2988 28 L117.2988 22.5312 ZM117.2988 20.4062 L118.2051 20.4062 L118.2051 21.5469 L117.2988 21.5469 L117.2988 20.4062 ZM124.7646 25.0469 L124.7646 25.4844 L120.624 25.4844 Q120.6865 26.4062 121.1865 26.8906 Q121.6865 27.375 122.5771 27.375 Q123.0928 27.375 123.585 27.25 Q124.0771 27.125 124.5459 26.875 L124.5459 27.7188 Q124.0615 27.9219 123.5537 28.0312 Q123.0459 28.1406 122.5303 28.1406 Q121.2178 28.1406 120.4521 27.3828 Q119.6865 26.625 119.6865 25.3125 Q119.6865 23.9688 120.4131 23.1875 Q121.1396 22.4062 122.374 22.4062 Q123.4834 22.4062 124.124 23.1094 Q124.7646 23.8125 124.7646 25.0469 ZM123.8584 24.7812 Q123.8584 24.0469 123.4521 23.6016 Q123.0459 23.1562 122.3896 23.1562 Q121.624 23.1562 121.1787 23.5859 Q120.7334 24.0156 120.6553 24.7812 L123.8584 24.7812 ZM130.7764 24.7031 L130.7764 28 L129.8857 28 L129.8857 24.7344 Q129.8857 23.9531 129.5811 23.5703 Q129.2764 23.1875 128.667 23.1875 Q127.9482 23.1875 127.5264 23.6484 Q127.1045 24.1094 127.1045 24.9062 L127.1045 28 L126.1982 28 L126.1982 22.5312 L127.1045 22.5312 L127.1045 23.375 Q127.4326 22.8906 127.8701 22.6484 Q128.3076 22.4062 128.8701 22.4062 Q129.8076 22.4062 130.292 22.9844 Q130.7764 23.5625 130.7764 24.7031 ZM136.0518 22.6875 L136.0518 23.5469 Q135.6768 23.3438 135.2705 23.25 Q134.8643 23.1562 134.4111 23.1562 Q133.7549 23.1562 133.4189 23.3594 Q133.083 23.5625 133.083 23.9688 Q133.083 24.2812 133.3174 24.4609 Q133.5518 24.6406 134.2861 24.7969 L134.583 24.875 Q135.5518 25.0781 135.9502 25.4531 Q136.3486 25.8281 136.3486 26.4844 Q136.3486 27.25 135.7471 27.6953 Q135.1455 28.1406 134.0986 28.1406 Q133.6455 28.1406 133.1689 28.0547 Q132.6924 27.9688 132.1768 27.7969 L132.1768 26.875 Q132.6768 27.125 133.1533 27.2578 Q133.6299 27.3906 134.1143 27.3906 Q134.7393 27.3906 135.083 27.1719 Q135.4268 26.9531 135.4268 26.5625 Q135.4268 26.1875 135.1846 25.9922 Q134.9424 25.7969 134.0986 25.625 L133.7861 25.5469 Q132.958 25.375 132.583 25.0078 Q132.208 24.6406 132.208 24.0156 Q132.208 23.2344 132.7549 22.8203 Q133.3018 22.4062 134.3174 22.4062 Q134.8018 22.4062 135.2471 22.4766 Q135.6924 22.5469 136.0518 22.6875 Z"
         style="clip-path:url(#clipPath2); stroke:none;"
         clip-path="url(#clipPath2)"
         id="path191" />
    </g>
    <g
       style="fill:navy; text-rendering:geometricPrecision; font-size:8; stroke:navy;"
       id="g197">
      <text
         x="145"
         xml:space="preserve"
         y="16"
         style="clip-path:url(#clipPath4); stroke:none;"
         clip-path="url(#clipPath4)"
         id="text195">1</text>
    </g>
    <g
       style="font-weight:bold; text-rendering:geometricPrecision;"
       id="g201">
      <text
         x="31"
         xml:space="preserve"
         y="75"
         style="clip-path:url(#clipPath5); stroke:none;"
         clip-path="url(#clipPath5)"
         id="text199">Slit diaphragm</text>
    </g>
    <g
       style="fill:white; text-rendering:geometricPrecision; stroke:white;"
       id="g209">
      <path
         d="M220 90 L300 90 L300 110 L220 110 L220 90 Z"
         style="clip-path:url(#clipPath6); stroke:none;"
         clip-path="url(#clipPath6)"
         id="path203" />
      <path
         d="M220 90 L300 90 L300 110 L220 110 L220 90 Z"
         style="fill:none; clip-path:url(#clipPath6); stroke:black;"
         clip-path="url(#clipPath6)"
         id="path205" />
      <text
         x="247"
         y="104"
         style="fill:black; clip-path:url(#clipPath6); stroke:none;"
         xml:space="preserve"
         clip-path="url(#clipPath6)"
         id="text207">WT1</text>
    </g>
    <g
       style="fill:white; text-rendering:geometricPrecision; stroke:white;"
       id="g217">
      <path
         d="M220 110 L300 110 L300 130 L220 130 L220 110 Z"
         style="clip-path:url(#clipPath7); stroke:none;"
         clip-path="url(#clipPath7)"
         id="path211" />
      <path
         d="M220 110 L300 110 L300 130 L220 130 L220 110 Z"
         style="fill:none; clip-path:url(#clipPath7); stroke:black;"
         clip-path="url(#clipPath7)"
         id="path213" />
      <text
         x="240"
         y="124"
         style="fill:black; clip-path:url(#clipPath7); stroke:none;"
         xml:space="preserve"
         clip-path="url(#clipPath7)"
         id="text215">LMX1B</text>
    </g>
    <g
       style="fill:white; text-rendering:geometricPrecision; stroke:white;"
       id="g225">
      <path
         d="M220 130 L300 130 L300 150 L220 150 L220 130 Z"
         style="clip-path:url(#clipPath8); stroke:none;"
         clip-path="url(#clipPath8)"
         id="path219" />
      <path
         d="M220 130 L300 130 L300 150 L220 150 L220 130 Z"
         style="fill:none; clip-path:url(#clipPath8); stroke:black;"
         clip-path="url(#clipPath8)"
         id="path221" />
      <text
         x="228"
         y="144"
         style="fill:black; clip-path:url(#clipPath8); stroke:none;"
         xml:space="preserve"
         clip-path="url(#clipPath8)"
         id="text223">SMARCAL1</text>
    </g>
    <g
       style="fill:white; text-rendering:geometricPrecision; stroke:white;"
       id="g233">
      <path
         d="M220 150 L300 150 L300 170 L220 170 L220 150 Z"
         style="clip-path:url(#clipPath9); stroke:none;"
         clip-path="url(#clipPath9)"
         id="path227" />
      <path
         d="M220 150 L300 150 L300 170 L220 170 L220 150 Z"
         style="fill:none; clip-path:url(#clipPath9); stroke:black;"
         clip-path="url(#clipPath9)"
         id="path229" />
      <text
         x="246"
         y="164"
         style="fill:black; clip-path:url(#clipPath9); stroke:none;"
         xml:space="preserve"
         clip-path="url(#clipPath9)"
         id="text231">E2F3</text>
    </g>
    <g
       style="fill:white; text-rendering:geometricPrecision; stroke:white;"
       id="g241">
      <path
         d="M220 170 L300 170 L300 190 L220 190 L220 170 Z"
         style="clip-path:url(#clipPath10); stroke:none;"
         clip-path="url(#clipPath10)"
         id="path235" />
      <path
         d="M220 170 L300 170 L300 190 L220 190 L220 170 Z"
         style="fill:none; clip-path:url(#clipPath10); stroke:black;"
         clip-path="url(#clipPath10)"
         id="path237" />
      <text
         x="245"
         y="184"
         style="fill:black; clip-path:url(#clipPath10); stroke:none;"
         xml:space="preserve"
         clip-path="url(#clipPath10)"
         id="text239">NXF5</text>
    </g>
    <g
       style="fill:white; text-rendering:geometricPrecision; stroke:white;"
       id="g249">
      <path
         d="M220 190 L300 190 L300 210 L220 210 L220 190 Z"
         style="clip-path:url(#clipPath11); stroke:none;"
         clip-path="url(#clipPath11)"
         id="path243" />
      <path
         d="M220 190 L300 190 L300 210 L220 210 L220 190 Z"
         style="fill:none; clip-path:url(#clipPath11); stroke:black;"
         clip-path="url(#clipPath11)"
         id="path245" />
      <text
         x="245"
         y="204"
         style="fill:black; clip-path:url(#clipPath11); stroke:none;"
         xml:space="preserve"
         clip-path="url(#clipPath11)"
         id="text247">PAX2</text>
    </g>
    <g
       style="fill:white; text-rendering:geometricPrecision; stroke:white;"
       id="g257">
      <path
         d="M220 210 L300 210 L300 230 L220 230 L220 210 Z"
         style="clip-path:url(#clipPath12); stroke:none;"
         clip-path="url(#clipPath12)"
         id="path251" />
      <path
         d="M220 210 L300 210 L300 230 L220 230 L220 210 Z"
         style="fill:none; clip-path:url(#clipPath12); stroke:black;"
         clip-path="url(#clipPath12)"
         id="path253" />
      <text
         x="238"
         y="224"
         style="fill:black; clip-path:url(#clipPath12); stroke:none;"
         xml:space="preserve"
         clip-path="url(#clipPath12)"
         id="text255">WDR73</text>
    </g>
    <g
       style="fill:white; text-rendering:geometricPrecision; stroke:white;"
       id="g265">
      <path
         d="M220 290 L300 290 L300 310 L220 310 L220 290 Z"
         style="clip-path:url(#clipPath13); stroke:none;"
         clip-path="url(#clipPath13)"
         id="path259" />
      <path
         d="M220 290 L300 290 L300 310 L220 310 L220 290 Z"
         style="fill:none; clip-path:url(#clipPath13); stroke:black;"
         clip-path="url(#clipPath13)"
         id="path261" />
      <text
         x="240"
         y="304"
         style="fill:black; clip-path:url(#clipPath13); stroke:none;"
         xml:space="preserve"
         clip-path="url(#clipPath13)"
         id="text263">LAMB2</text>
    </g>
    <g
       style="fill:white; text-rendering:geometricPrecision; stroke:white;"
       id="g273">
      <path
         d="M220 310 L300 310 L300 330 L220 330 L220 310 Z"
         style="clip-path:url(#clipPath14); stroke:none;"
         clip-path="url(#clipPath14)"
         id="path267" />
      <path
         d="M220 310 L300 310 L300 330 L220 330 L220 310 Z"
         style="fill:none; clip-path:url(#clipPath14); stroke:black;"
         clip-path="url(#clipPath14)"
         id="path269" />
      <text
         x="242"
         y="324"
         style="fill:black; clip-path:url(#clipPath14); stroke:none;"
         xml:space="preserve"
         clip-path="url(#clipPath14)"
         id="text271">ITGB4</text>
    </g>
    <g
       style="fill:white; text-rendering:geometricPrecision; stroke:white;"
       id="g281">
      <path
         d="M220 330 L300 330 L300 350 L220 350 L220 330 Z"
         style="clip-path:url(#clipPath15); stroke:none;"
         clip-path="url(#clipPath15)"
         id="path275" />
      <path
         d="M220 330 L300 330 L300 350 L220 350 L220 330 Z"
         style="fill:none; clip-path:url(#clipPath15); stroke:black;"
         clip-path="url(#clipPath15)"
         id="path277" />
      <text
         x="242"
         y="344"
         style="fill:black; clip-path:url(#clipPath15); stroke:none;"
         xml:space="preserve"
         clip-path="url(#clipPath15)"
         id="text279">ITGA3</text>
    </g>
    <g
       style="fill:white; text-rendering:geometricPrecision; stroke:white;"
       id="g289">
      <path
         d="M220 350 L300 350 L300 370 L220 370 L220 350 Z"
         style="clip-path:url(#clipPath16); stroke:none;"
         clip-path="url(#clipPath16)"
         id="path283" />
      <path
         d="M220 350 L300 350 L300 370 L220 370 L220 350 Z"
         style="fill:none; clip-path:url(#clipPath16); stroke:black;"
         clip-path="url(#clipPath16)"
         id="path285" />
      <text
         x="243"
         y="364"
         style="fill:black; clip-path:url(#clipPath16); stroke:none;"
         xml:space="preserve"
         clip-path="url(#clipPath16)"
         id="text287">LMNA</text>
    </g>
    <g
       style="fill:white; text-rendering:geometricPrecision; stroke:white;"
       id="g297">
      <path
         d="M220 370 L300 370 L300 390 L220 390 L220 370 Z"
         style="clip-path:url(#clipPath17); stroke:none;"
         clip-path="url(#clipPath17)"
         id="path291" />
      <path
         d="M220 370 L300 370 L300 390 L220 390 L220 370 Z"
         style="fill:none; clip-path:url(#clipPath17); stroke:black;"
         clip-path="url(#clipPath17)"
         id="path293" />
      <text
         x="237"
         y="384"
         style="fill:black; clip-path:url(#clipPath17); stroke:none;"
         xml:space="preserve"
         clip-path="url(#clipPath17)"
         id="text295">COL4A3</text>
    </g>
    <g
       style="fill:white; text-rendering:geometricPrecision; stroke:white;"
       id="g305">
      <path
         d="M220 390 L300 390 L300 410 L220 410 L220 390 Z"
         style="clip-path:url(#clipPath18); stroke:none;"
         clip-path="url(#clipPath18)"
         id="path299" />
      <path
         d="M220 390 L300 390 L300 410 L220 410 L220 390 Z"
         style="fill:none; clip-path:url(#clipPath18); stroke:black;"
         clip-path="url(#clipPath18)"
         id="path301" />
      <text
         x="237"
         y="404"
         style="fill:black; clip-path:url(#clipPath18); stroke:none;"
         xml:space="preserve"
         clip-path="url(#clipPath18)"
         id="text303">COL4A4</text>
    </g>
    <g
       style="fill:white; text-rendering:geometricPrecision; stroke:white;"
       id="g313">
      <path
         d="M220 410 L300 410 L300 430 L220 430 L220 410 Z"
         style="clip-path:url(#clipPath19); stroke:none;"
         clip-path="url(#clipPath19)"
         id="path307" />
      <path
         d="M220 410 L300 410 L300 430 L220 430 L220 410 Z"
         style="fill:none; clip-path:url(#clipPath19); stroke:black;"
         clip-path="url(#clipPath19)"
         id="path309" />
      <text
         x="237"
         y="424"
         style="fill:black; clip-path:url(#clipPath19); stroke:none;"
         xml:space="preserve"
         clip-path="url(#clipPath19)"
         id="text311">COL4A5</text>
    </g>
    <g
       style="fill:white; text-rendering:geometricPrecision; stroke:white;"
       id="g321">
      <path
         d="M220 430 L300 430 L300 450 L220 450 L220 430 Z"
         style="clip-path:url(#clipPath20); stroke:none;"
         clip-path="url(#clipPath20)"
         id="path315" />
      <path
         d="M220 430 L300 430 L300 450 L220 450 L220 430 Z"
         style="fill:none; clip-path:url(#clipPath20); stroke:black;"
         clip-path="url(#clipPath20)"
         id="path317" />
      <text
         x="240"
         y="444"
         style="fill:black; clip-path:url(#clipPath20); stroke:none;"
         xml:space="preserve"
         clip-path="url(#clipPath20)"
         id="text319">CD151</text>
    </g>
    <g
       style="fill:white; text-rendering:geometricPrecision; stroke:white;"
       id="g329">
      <path
         d="M40 90 L120 90 L120 110 L40 110 L40 90 Z"
         style="clip-path:url(#clipPath21); stroke:none;"
         clip-path="url(#clipPath21)"
         id="path323" />
      <path
         d="M40 90 L120 90 L120 110 L40 110 L40 90 Z"
         style="fill:none; clip-path:url(#clipPath21); stroke:black;"
         clip-path="url(#clipPath21)"
         id="path325" />
      <text
         x="60"
         y="104"
         style="fill:black; clip-path:url(#clipPath21); stroke:none;"
         xml:space="preserve"
         clip-path="url(#clipPath21)"
         id="text327">NPHS1</text>
    </g>
    <g
       style="fill:white; text-rendering:geometricPrecision; stroke:white;"
       id="g337">
      <path
         d="M40 110 L120 110 L120 130 L40 130 L40 110 Z"
         style="clip-path:url(#clipPath22); stroke:none;"
         clip-path="url(#clipPath22)"
         id="path331" />
      <path
         d="M40 110 L120 110 L120 130 L40 130 L40 110 Z"
         style="fill:none; clip-path:url(#clipPath22); stroke:black;"
         clip-path="url(#clipPath22)"
         id="path333" />
      <text
         x="60"
         y="124"
         style="fill:black; clip-path:url(#clipPath22); stroke:none;"
         xml:space="preserve"
         clip-path="url(#clipPath22)"
         id="text335">NPHS2</text>
    </g>
    <g
       style="fill:white; text-rendering:geometricPrecision; stroke:white;"
       id="g345">
      <path
         d="M40 130 L120 130 L120 150 L40 150 L40 130 Z"
         style="clip-path:url(#clipPath23); stroke:none;"
         clip-path="url(#clipPath23)"
         id="path339" />
      <path
         d="M40 130 L120 130 L120 150 L40 150 L40 130 Z"
         style="fill:none; clip-path:url(#clipPath23); stroke:black;"
         clip-path="url(#clipPath23)"
         id="path341" />
      <text
         x="60"
         y="144"
         style="fill:black; clip-path:url(#clipPath23); stroke:none;"
         xml:space="preserve"
         clip-path="url(#clipPath23)"
         id="text343">CD2AP</text>
    </g>
    <g
       style="fill:white; text-rendering:geometricPrecision; stroke:white;"
       id="g353">
      <path
         d="M40 150 L120 150 L120 170 L40 170 L40 150 Z"
         style="clip-path:url(#clipPath24); stroke:none;"
         clip-path="url(#clipPath24)"
         id="path347" />
      <path
         d="M40 150 L120 150 L120 170 L40 170 L40 150 Z"
         style="fill:none; clip-path:url(#clipPath24); stroke:black;"
         clip-path="url(#clipPath24)"
         id="path349" />
      <text
         x="62"
         y="164"
         style="fill:black; clip-path:url(#clipPath24); stroke:none;"
         xml:space="preserve"
         clip-path="url(#clipPath24)"
         id="text351">PLCE1</text>
    </g>
    <g
       style="fill:white; text-rendering:geometricPrecision; stroke:white;"
       id="g361">
      <path
         d="M40 170 L120 170 L120 190 L40 190 L40 170 Z"
         style="clip-path:url(#clipPath25); stroke:none;"
         clip-path="url(#clipPath25)"
         id="path355" />
      <path
         d="M40 170 L120 170 L120 190 L40 190 L40 170 Z"
         style="fill:none; clip-path:url(#clipPath25); stroke:black;"
         clip-path="url(#clipPath25)"
         id="path357" />
      <text
         x="61"
         y="184"
         style="fill:black; clip-path:url(#clipPath25); stroke:none;"
         xml:space="preserve"
         clip-path="url(#clipPath25)"
         id="text359">TRPC6</text>
    </g>
    <g
       style="fill:white; text-rendering:geometricPrecision; stroke:white;"
       id="g369">
      <path
         d="M40 190 L120 190 L120 210 L40 210 L40 190 Z"
         style="clip-path:url(#clipPath26); stroke:none;"
         clip-path="url(#clipPath26)"
         id="path363" />
      <path
         d="M40 190 L120 190 L120 210 L40 210 L40 190 Z"
         style="fill:none; clip-path:url(#clipPath26); stroke:black;"
         clip-path="url(#clipPath26)"
         id="path365" />
      <text
         x="61"
         y="204"
         style="fill:black; clip-path:url(#clipPath26); stroke:none;"
         xml:space="preserve"
         clip-path="url(#clipPath26)"
         id="text367">PTPRO</text>
    </g>
    <g
       style="fill:white; text-rendering:geometricPrecision; stroke:white;"
       id="g377">
      <path
         d="M40 390 L120 390 L120 410 L40 410 L40 390 Z"
         style="clip-path:url(#clipPath27); stroke:none;"
         clip-path="url(#clipPath27)"
         id="path371" />
      <path
         d="M40 390 L120 390 L120 410 L40 410 L40 390 Z"
         style="fill:none; clip-path:url(#clipPath27); stroke:black;"
         clip-path="url(#clipPath27)"
         id="path373" />
      <text
         x="59"
         y="404"
         style="fill:black; clip-path:url(#clipPath27); stroke:none;"
         xml:space="preserve"
         clip-path="url(#clipPath27)"
         id="text375">MT-TL1</text>
    </g>
    <g
       style="fill:white; text-rendering:geometricPrecision; stroke:white;"
       id="g385">
      <path
         d="M40 410 L120 410 L120 430 L40 430 L40 410 Z"
         style="clip-path:url(#clipPath28); stroke:none;"
         clip-path="url(#clipPath28)"
         id="path379" />
      <path
         d="M40 410 L120 410 L120 430 L40 430 L40 410 Z"
         style="fill:none; clip-path:url(#clipPath28); stroke:black;"
         clip-path="url(#clipPath28)"
         id="path381" />
      <text
         x="64"
         y="424"
         style="fill:black; clip-path:url(#clipPath28); stroke:none;"
         xml:space="preserve"
         clip-path="url(#clipPath28)"
         id="text383">MT-TI</text>
    </g>
    <g
       style="fill:white; text-rendering:geometricPrecision; stroke:white;"
       id="g393">
      <path
         d="M40 310 L120 310 L120 330 L40 330 L40 310 Z"
         style="clip-path:url(#clipPath29); stroke:none;"
         clip-path="url(#clipPath29)"
         id="path387" />
      <path
         d="M40 310 L120 310 L120 330 L40 330 L40 310 Z"
         style="fill:none; clip-path:url(#clipPath29); stroke:black;"
         clip-path="url(#clipPath29)"
         id="path389" />
      <text
         x="59"
         y="324"
         style="fill:black; clip-path:url(#clipPath29); stroke:none;"
         xml:space="preserve"
         clip-path="url(#clipPath29)"
         id="text391">COQ8B</text>
    </g>
    <g
       style="fill:white; text-rendering:geometricPrecision; stroke:white;"
       id="g401">
      <path
         d="M40 330 L120 330 L120 350 L40 350 L40 330 Z"
         style="clip-path:url(#clipPath30); stroke:none;"
         clip-path="url(#clipPath30)"
         id="path395" />
      <path
         d="M40 330 L120 330 L120 350 L40 350 L40 330 Z"
         style="fill:none; clip-path:url(#clipPath30); stroke:black;"
         clip-path="url(#clipPath30)"
         id="path397" />
      <text
         x="49"
         y="344"
         style="fill:black; clip-path:url(#clipPath30); stroke:none;"
         xml:space="preserve"
         clip-path="url(#clipPath30)"
         id="text399">ZMPSTE24</text>
    </g>
    <g
       style="fill:white; text-rendering:geometricPrecision; stroke:white;"
       id="g409">
      <path
         d="M40 350 L120 350 L120 370 L40 370 L40 350 Z"
         style="clip-path:url(#clipPath31); stroke:none;"
         clip-path="url(#clipPath31)"
         id="path403" />
      <path
         d="M40 350 L120 350 L120 370 L40 370 L40 350 Z"
         style="fill:none; clip-path:url(#clipPath31); stroke:black;"
         clip-path="url(#clipPath31)"
         id="path405" />
      <text
         x="61"
         y="364"
         style="fill:black; clip-path:url(#clipPath31); stroke:none;"
         xml:space="preserve"
         clip-path="url(#clipPath31)"
         id="text407">PDSS2</text>
    </g>
    <g
       style="fill:white; text-rendering:geometricPrecision; stroke:white;"
       id="g417">
      <path
         d="M40 370 L120 370 L120 390 L40 390 L40 370 Z"
         style="clip-path:url(#clipPath32); stroke:none;"
         clip-path="url(#clipPath32)"
         id="path411" />
      <path
         d="M40 370 L120 370 L120 390 L40 390 L40 370 Z"
         style="fill:none; clip-path:url(#clipPath32); stroke:black;"
         clip-path="url(#clipPath32)"
         id="path413" />
      <text
         x="53"
         y="384"
         style="fill:black; clip-path:url(#clipPath32); stroke:none;"
         xml:space="preserve"
         clip-path="url(#clipPath32)"
         id="text415">CYP11B2</text>
    </g>
    <g
       style="fill:white; text-rendering:geometricPrecision; stroke:white;"
       id="g425">
      <path
         d="M40 270 L120 270 L120 290 L40 290 L40 270 Z"
         style="clip-path:url(#clipPath33); stroke:none;"
         clip-path="url(#clipPath33)"
         id="path419" />
      <path
         d="M40 270 L120 270 L120 290 L40 290 L40 270 Z"
         style="fill:none; clip-path:url(#clipPath33); stroke:black;"
         clip-path="url(#clipPath33)"
         id="path421" />
      <text
         x="63"
         y="284"
         style="fill:black; clip-path:url(#clipPath33); stroke:none;"
         xml:space="preserve"
         clip-path="url(#clipPath33)"
         id="text423">COQ2</text>
    </g>
    <g
       style="fill:white; text-rendering:geometricPrecision; stroke:white;"
       id="g433">
      <path
         d="M40 290 L120 290 L120 310 L40 310 L40 290 Z"
         style="clip-path:url(#clipPath34); stroke:none;"
         clip-path="url(#clipPath34)"
         id="path427" />
      <path
         d="M40 290 L120 290 L120 310 L40 310 L40 290 Z"
         style="fill:none; clip-path:url(#clipPath34); stroke:black;"
         clip-path="url(#clipPath34)"
         id="path429" />
      <text
         x="63"
         y="304"
         style="fill:black; clip-path:url(#clipPath34); stroke:none;"
         xml:space="preserve"
         clip-path="url(#clipPath34)"
         id="text431">COQ6</text>
    </g>
    <g
       style="fill:white; text-rendering:geometricPrecision; stroke:white;"
       id="g441">
      <path
         d="M40 430 L120 430 L120 450 L40 450 L40 430 Z"
         style="clip-path:url(#clipPath35); stroke:none;"
         clip-path="url(#clipPath35)"
         id="path435" />
      <path
         d="M40 430 L120 430 L120 450 L40 450 L40 430 Z"
         style="fill:none; clip-path:url(#clipPath35); stroke:black;"
         clip-path="url(#clipPath35)"
         id="path437" />
      <text
         x="44"
         y="444"
         style="fill:black; clip-path:url(#clipPath35); stroke:none;"
         xml:space="preserve"
         clip-path="url(#clipPath35)"
         id="text439">TRN-GTT4-1</text>
    </g>
    <g
       style="fill:white; text-rendering:geometricPrecision; stroke:white;"
       id="g449">
      <path
         d="M40 450 L120 450 L120 470 L40 470 L40 450 Z"
         style="clip-path:url(#clipPath36); stroke:none;"
         clip-path="url(#clipPath36)"
         id="path443" />
      <path
         d="M40 450 L120 450 L120 470 L40 470 L40 450 Z"
         style="fill:none; clip-path:url(#clipPath36); stroke:black;"
         clip-path="url(#clipPath36)"
         id="path445" />
      <text
         x="61"
         y="464"
         style="fill:black; clip-path:url(#clipPath36); stroke:none;"
         xml:space="preserve"
         clip-path="url(#clipPath36)"
         id="text447">YARS1</text>
    </g>
    <g
       style="fill:white; text-rendering:geometricPrecision; stroke:white;"
       id="g457">
      <path
         d="M400 90 L480 90 L480 110 L400 110 L400 90 Z"
         style="clip-path:url(#clipPath37); stroke:none;"
         clip-path="url(#clipPath37)"
         id="path451" />
      <path
         d="M400 90 L480 90 L480 110 L400 110 L400 90 Z"
         style="fill:none; clip-path:url(#clipPath37); stroke:black;"
         clip-path="url(#clipPath37)"
         id="path453" />
      <text
         x="420"
         y="104"
         style="fill:black; clip-path:url(#clipPath37); stroke:none;"
         xml:space="preserve"
         clip-path="url(#clipPath37)"
         id="text455">ACTN4</text>
    </g>
    <g
       style="fill:white; text-rendering:geometricPrecision; stroke:white;"
       id="g465">
      <path
         d="M400 110 L480 110 L480 130 L400 130 L400 110 Z"
         style="clip-path:url(#clipPath38); stroke:none;"
         clip-path="url(#clipPath38)"
         id="path459" />
      <path
         d="M400 110 L480 110 L480 130 L400 130 L400 110 Z"
         style="fill:none; clip-path:url(#clipPath38); stroke:black;"
         clip-path="url(#clipPath38)"
         id="path461" />
      <text
         x="423"
         y="124"
         style="fill:black; clip-path:url(#clipPath38); stroke:none;"
         xml:space="preserve"
         clip-path="url(#clipPath38)"
         id="text463">MYH9</text>
    </g>
    <g
       style="fill:white; text-rendering:geometricPrecision; stroke:white;"
       id="g473">
      <path
         d="M400 130 L480 130 L480 150 L400 150 L400 130 Z"
         style="clip-path:url(#clipPath39); stroke:none;"
         clip-path="url(#clipPath39)"
         id="path467" />
      <path
         d="M400 130 L480 130 L480 150 L400 150 L400 130 Z"
         style="fill:none; clip-path:url(#clipPath39); stroke:black;"
         clip-path="url(#clipPath39)"
         id="path469" />
      <text
         x="427"
         y="144"
         style="fill:black; clip-path:url(#clipPath39); stroke:none;"
         xml:space="preserve"
         clip-path="url(#clipPath39)"
         id="text471">INF2</text>
    </g>
    <g
       style="fill:white; text-rendering:geometricPrecision; stroke:white;"
       id="g481">
      <path
         d="M400 150 L480 150 L480 170 L400 170 L400 150 Z"
         style="clip-path:url(#clipPath40); stroke:none;"
         clip-path="url(#clipPath40)"
         id="path475" />
      <path
         d="M400 150 L480 150 L480 170 L400 170 L400 150 Z"
         style="fill:none; clip-path:url(#clipPath40); stroke:black;"
         clip-path="url(#clipPath40)"
         id="path477" />
      <text
         x="420"
         y="164"
         style="fill:black; clip-path:url(#clipPath40); stroke:none;"
         xml:space="preserve"
         clip-path="url(#clipPath40)"
         id="text479">SYNPO</text>
    </g>
    <g
       style="fill:white; text-rendering:geometricPrecision; stroke:white;"
       id="g489">
      <path
         d="M400 170 L480 170 L480 190 L400 190 L400 170 Z"
         style="clip-path:url(#clipPath41); stroke:none;"
         clip-path="url(#clipPath41)"
         id="path483" />
      <path
         d="M400 170 L480 170 L480 190 L400 190 L400 170 Z"
         style="fill:none; clip-path:url(#clipPath41); stroke:black;"
         clip-path="url(#clipPath41)"
         id="path485" />
      <text
         x="419"
         y="184"
         style="fill:black; clip-path:url(#clipPath41); stroke:none;"
         xml:space="preserve"
         clip-path="url(#clipPath41)"
         id="text487">MYO1E</text>
    </g>
    <g
       style="fill:white; text-rendering:geometricPrecision; stroke:white;"
       id="g497">
      <path
         d="M400 190 L480 190 L480 210 L400 210 L400 190 Z"
         style="clip-path:url(#clipPath42); stroke:none;"
         clip-path="url(#clipPath42)"
         id="path491" />
      <path
         d="M400 190 L480 190 L480 210 L400 210 L400 190 Z"
         style="fill:none; clip-path:url(#clipPath42); stroke:black;"
         clip-path="url(#clipPath42)"
         id="path493" />
      <text
         x="408"
         y="204"
         style="fill:black; clip-path:url(#clipPath42); stroke:none;"
         xml:space="preserve"
         clip-path="url(#clipPath42)"
         id="text495">ARHGAP24</text>
    </g>
    <g
       style="fill:white; text-rendering:geometricPrecision; stroke:white;"
       id="g505">
      <path
         d="M400 210 L480 210 L480 230 L400 230 L400 210 Z"
         style="clip-path:url(#clipPath43); stroke:none;"
         clip-path="url(#clipPath43)"
         id="path499" />
      <path
         d="M400 210 L480 210 L480 230 L400 230 L400 210 Z"
         style="fill:none; clip-path:url(#clipPath43); stroke:black;"
         clip-path="url(#clipPath43)"
         id="path501" />
      <text
         x="413"
         y="224"
         style="fill:black; clip-path:url(#clipPath43); stroke:none;"
         xml:space="preserve"
         clip-path="url(#clipPath43)"
         id="text503">ARHGDIA</text>
    </g>
    <g
       style="fill:white; text-rendering:geometricPrecision; stroke:white;"
       id="g513">
      <path
         d="M400 230 L480 230 L480 250 L400 250 L400 230 Z"
         style="clip-path:url(#clipPath44); stroke:none;"
         clip-path="url(#clipPath44)"
         id="path507" />
      <path
         d="M400 230 L480 230 L480 250 L400 250 L400 230 Z"
         style="fill:none; clip-path:url(#clipPath44); stroke:black;"
         clip-path="url(#clipPath44)"
         id="path509" />
      <text
         x="424"
         y="244"
         style="fill:black; clip-path:url(#clipPath44); stroke:none;"
         xml:space="preserve"
         clip-path="url(#clipPath44)"
         id="text511">ANLN</text>
    </g>
    <g
       style="fill:white; text-rendering:geometricPrecision; stroke:white;"
       id="g521">
      <path
         d="M400 250 L480 250 L480 270 L400 270 L400 250 Z"
         style="clip-path:url(#clipPath45); stroke:none;"
         clip-path="url(#clipPath45)"
         id="path515" />
      <path
         d="M400 250 L480 250 L480 270 L400 270 L400 250 Z"
         style="fill:none; clip-path:url(#clipPath45); stroke:black;"
         clip-path="url(#clipPath45)"
         id="path517" />
      <text
         x="424"
         y="264"
         style="fill:black; clip-path:url(#clipPath45); stroke:none;"
         xml:space="preserve"
         clip-path="url(#clipPath45)"
         id="text519">EMP2</text>
    </g>
    <g
       style="fill:white; text-rendering:geometricPrecision; stroke:white;"
       id="g529">
      <path
         d="M400 270 L480 270 L480 290 L400 290 L400 270 Z"
         style="clip-path:url(#clipPath46); stroke:none;"
         clip-path="url(#clipPath46)"
         id="path523" />
      <path
         d="M400 270 L480 270 L480 290 L400 290 L400 270 Z"
         style="fill:none; clip-path:url(#clipPath46); stroke:black;"
         clip-path="url(#clipPath46)"
         id="path525" />
      <text
         x="423"
         y="284"
         style="fill:black; clip-path:url(#clipPath46); stroke:none;"
         xml:space="preserve"
         clip-path="url(#clipPath46)"
         id="text527">CUBN</text>
    </g>
    <g
       style="fill:white; text-rendering:geometricPrecision; stroke:white;"
       id="g537">
      <path
         d="M400 290 L480 290 L480 310 L400 310 L400 290 Z"
         style="clip-path:url(#clipPath47); stroke:none;"
         clip-path="url(#clipPath47)"
         id="path531" />
      <path
         d="M400 290 L480 290 L480 310 L400 310 L400 290 Z"
         style="fill:none; clip-path:url(#clipPath47); stroke:black;"
         clip-path="url(#clipPath47)"
         id="path533" />
      <text
         x="424"
         y="304"
         style="fill:black; clip-path:url(#clipPath47); stroke:none;"
         xml:space="preserve"
         clip-path="url(#clipPath47)"
         id="text535">GPC5</text>
    </g>
    <g
       style="fill:white; text-rendering:geometricPrecision; stroke:white;"
       id="g545">
      <path
         d="M400 310 L480 310 L480 330 L400 330 L400 310 Z"
         style="clip-path:url(#clipPath48); stroke:none;"
         clip-path="url(#clipPath48)"
         id="path539" />
      <path
         d="M400 310 L480 310 L480 330 L400 330 L400 310 Z"
         style="fill:none; clip-path:url(#clipPath48); stroke:black;"
         clip-path="url(#clipPath48)"
         id="path541" />
      <text
         x="420"
         y="324"
         style="fill:black; clip-path:url(#clipPath48); stroke:none;"
         xml:space="preserve"
         clip-path="url(#clipPath48)"
         id="text543">PODXL</text>
    </g>
    <g
       style="fill:white; text-rendering:geometricPrecision; stroke:white;"
       id="g553">
      <path
         d="M400 330 L480 330 L480 350 L400 350 L400 330 Z"
         style="clip-path:url(#clipPath49); stroke:none;"
         clip-path="url(#clipPath49)"
         id="path547" />
      <path
         d="M400 330 L480 330 L480 350 L400 350 L400 330 Z"
         style="fill:none; clip-path:url(#clipPath49); stroke:black;"
         clip-path="url(#clipPath49)"
         id="path549" />
      <text
         x="417"
         y="344"
         style="fill:black; clip-path:url(#clipPath49); stroke:none;"
         xml:space="preserve"
         clip-path="url(#clipPath49)"
         id="text551">TTC21B</text>
    </g>
    <g
       style="fill:white; text-rendering:geometricPrecision; stroke:white;"
       id="g561">
      <path
         d="M400 350 L480 350 L480 370 L400 370 L400 350 Z"
         style="clip-path:url(#clipPath50); stroke:none;"
         clip-path="url(#clipPath50)"
         id="path555" />
      <path
         d="M400 350 L480 350 L480 370 L400 370 L400 350 Z"
         style="fill:none; clip-path:url(#clipPath50); stroke:black;"
         clip-path="url(#clipPath50)"
         id="path557" />
      <text
         x="421"
         y="364"
         style="fill:black; clip-path:url(#clipPath50); stroke:none;"
         xml:space="preserve"
         clip-path="url(#clipPath50)"
         id="text559">CLTA4</text>
    </g>
    <g
       style="fill:white; text-rendering:geometricPrecision; stroke:white;"
       id="g569">
      <path
         d="M400 369.6886 L480 369.6886 L480 389.6886 L400 389.6886 L400 369.6886 Z"
         style="clip-path:url(#clipPath51); stroke:none;"
         clip-path="url(#clipPath51)"
         id="path563" />
      <path
         d="M400 369.6886 L480 369.6886 L480 389.6886 L400 389.6886 L400 369.6886 Z"
         style="fill:none; clip-path:url(#clipPath51); stroke:black;"
         clip-path="url(#clipPath51)"
         id="path565" />
      <text
         x="421"
         y="384"
         style="fill:black; clip-path:url(#clipPath51); stroke:none;"
         xml:space="preserve"
         clip-path="url(#clipPath51)"
         id="text567">APOL1</text>
    </g>
    <g
       style="font-weight:bold; text-rendering:geometricPrecision;"
       id="g573">
      <text
         x="235"
         xml:space="preserve"
         y="75"
         style="clip-path:url(#clipPath52); stroke:none;"
         clip-path="url(#clipPath52)"
         id="text571">Nuclear</text>
    </g>
    <g
       style="font-weight:bold; text-rendering:geometricPrecision;"
       id="g579">
      <text
         x="378"
         xml:space="preserve"
         y="68"
         style="clip-path:url(#clipPath53); stroke:none;"
         clip-path="url(#clipPath53)"
         id="text575">Actin cytoskeleton</text>
      <text
         x="402"
         xml:space="preserve"
         y="81"
         style="clip-path:url(#clipPath53); stroke:none;"
         clip-path="url(#clipPath53)"
         id="text577">&amp; signaling</text>
    </g>
    <g
       style="font-weight:bold; text-rendering:geometricPrecision;"
       id="g583">
      <text
         x="34"
         xml:space="preserve"
         y="254"
         style="clip-path:url(#clipPath54); stroke:none;"
         clip-path="url(#clipPath54)"
         id="text581">Mitochondrial</text>
    </g>
    <g
       style="font-weight:bold; text-rendering:geometricPrecision;"
       id="g589">
      <text
         x="187"
         xml:space="preserve"
         y="257"
         style="clip-path:url(#clipPath55); stroke:none;"
         clip-path="url(#clipPath55)"
         id="text585">Glomerular basement</text>
      <text
         x="224"
         xml:space="preserve"
         y="270"
         style="clip-path:url(#clipPath55); stroke:none;"
         clip-path="url(#clipPath55)"
         id="text587">membrane</text>
    </g>
    <g
       style="fill:white; text-rendering:geometricPrecision; stroke:white;"
       id="g597">
      <path
         d="M398 431.0427 L478 431.0427 L478 451.0427 L398 451.0427 L398 431.0427 Z"
         style="clip-path:url(#clipPath56); stroke:none;"
         clip-path="url(#clipPath56)"
         id="path591" />
      <path
         d="M398 431.0427 L478 431.0427 L478 451.0427 L398 451.0427 L398 431.0427 Z"
         style="fill:none; clip-path:url(#clipPath56); stroke:black;"
         clip-path="url(#clipPath56)"
         id="path593" />
      <text
         x="421"
         y="446"
         style="fill:black; clip-path:url(#clipPath56); stroke:none;"
         xml:space="preserve"
         clip-path="url(#clipPath56)"
         id="text595">PMM2</text>
    </g>
    <g
       style="fill:white; text-rendering:geometricPrecision; stroke:white;"
       id="g605">
      <path
         d="M398 451.0427 L478 451.0427 L478 471.0427 L398 471.0427 L398 451.0427 Z"
         style="clip-path:url(#clipPath57); stroke:none;"
         clip-path="url(#clipPath57)"
         id="path599" />
      <path
         d="M398 451.0427 L478 451.0427 L478 471.0427 L398 471.0427 L398 451.0427 Z"
         style="fill:none; clip-path:url(#clipPath57); stroke:black;"
         clip-path="url(#clipPath57)"
         id="path601" />
      <text
         x="423"
         y="466"
         style="fill:black; clip-path:url(#clipPath57); stroke:none;"
         xml:space="preserve"
         clip-path="url(#clipPath57)"
         id="text603">ALG1</text>
    </g>
    <g
       style="fill:white; text-rendering:geometricPrecision; stroke:white;"
       id="g613">
      <path
         d="M398 471.0427 L478 471.0427 L478 491.0427 L398 491.0427 L398 471.0427 Z"
         style="clip-path:url(#clipPath58); stroke:none;"
         clip-path="url(#clipPath58)"
         id="path607" />
      <path
         d="M398 471.0427 L478 471.0427 L478 491.0427 L398 491.0427 L398 471.0427 Z"
         style="fill:none; clip-path:url(#clipPath58); stroke:black;"
         clip-path="url(#clipPath58)"
         id="path609" />
      <text
         x="414"
         y="486"
         style="fill:black; clip-path:url(#clipPath58); stroke:none;"
         xml:space="preserve"
         clip-path="url(#clipPath58)"
         id="text611">SCARB2</text>
    </g>
    <g
       style="font-weight:bold; text-rendering:geometricPrecision;"
       id="g617">
      <text
         x="419"
         xml:space="preserve"
         y="416"
         style="clip-path:url(#clipPath59); stroke:none;"
         clip-path="url(#clipPath59)"
         id="text615">Other</text>
    </g>
  </g>
</svg>
