<?xml version="1.0" encoding="UTF-8" standalone="no"?>
<svg
   style="fill-opacity:1; color-rendering:auto; color-interpolation:auto; stroke:black; text-rendering:auto; stroke-linecap:square; stroke-miterlimit:10; stroke-opacity:1; shape-rendering:auto; fill:black; stroke-dasharray:none; font-weight:normal; stroke-width:1; font-family:'Dialog'; font-style:normal; stroke-linejoin:miter; font-size:12; stroke-dashoffset:0; image-rendering:auto;"
   width="813"
   height="586"
   version="1.1"
   id="svg574"
   xmlns="http://www.w3.org/2000/svg"
   xmlns:svg="http://www.w3.org/2000/svg">
  <!--Generated by the Batik Graphics2D SVG Generator-->
  <defs
     id="genericDefs" />
  <g
     id="g572">
    <defs
       id="defs1">
      <clipPath
         clipPathUnits="userSpaceOnUse"
         id="clipPath1">
        <path
           d="M0 0 L829 0 L829 601 L0 601 L0 0 Z"
           id="path3" />
      </clipPath>
      <clipPath
         clipPathUnits="userSpaceOnUse"
         id="clipPath2">
        <path
           d="M0 0 L0 200 L200 200 L200 0 Z"
           id="path6" />
      </clipPath>
      <clipPath
         clipPathUnits="userSpaceOnUse"
         id="clipPath3">
        <path
           d="M638.0055 239.6128 L638.0055 323.6128 L762.0055 323.6128 L762.0055 239.6128 Z"
           id="path9" />
      </clipPath>
      <clipPath
         clipPathUnits="userSpaceOnUse"
         id="clipPath4">
        <path
           d="M289.5 255.5 L289.5 331.5 L438.5 331.5 L438.5 255.5 Z"
           id="path12" />
      </clipPath>
      <clipPath
         clipPathUnits="userSpaceOnUse"
         id="clipPath5">
        <path
           d="M552.3036 146.1114 L552.3036 184.5118 L563.7036 184.5118 L563.7036 146.1114 Z"
           id="path15" />
      </clipPath>
      <clipPath
         clipPathUnits="userSpaceOnUse"
         id="clipPath6">
        <path
           d="M508.3379 385.4048 L508.3379 399.8678 L638.0055 399.8678 L638.0055 385.4048 Z"
           id="path18" />
      </clipPath>
      <clipPath
         clipPathUnits="userSpaceOnUse"
         id="clipPath7">
        <path
           d="M505.6379 474.4052 L505.6379 486.344 L655.5055 486.344 L655.5055 474.4052 Z"
           id="path21" />
      </clipPath>
      <clipPath
         clipPathUnits="userSpaceOnUse"
         id="clipPath8">
        <path
           d="M661.7103 322.3817 L661.7103 383.1384 L676.1732 383.1384 L676.1732 322.3817 Z"
           id="path24" />
      </clipPath>
      <clipPath
         clipPathUnits="userSpaceOnUse"
         id="clipPath9">
        <path
           d="M239.3379 286.3132 L239.3379 300.7762 L290.0007 300.7762 L290.0007 286.3132 Z"
           id="path27" />
      </clipPath>
      <clipPath
         clipPathUnits="userSpaceOnUse"
         id="clipPath10">
        <path
           d="M452.3375 192.3807 L452.3375 383.1363 L466.8006 383.1363 L466.8006 192.3807 Z"
           id="path30" />
      </clipPath>
      <clipPath
         clipPathUnits="userSpaceOnUse"
         id="clipPath11">
        <path
           d="M400.5366 187.3901 L400.5366 256.0579 L414.889 256.0579 L414.889 187.3901 Z"
           id="path33" />
      </clipPath>
      <clipPath
         clipPathUnits="userSpaceOnUse"
         id="clipPath12">
        <path
           d="M505.9935 401.9737 L505.9935 477.0084 L669.4181 477.0084 L669.4181 401.9737 Z"
           id="path36" />
      </clipPath>
      <clipPath
         clipPathUnits="userSpaceOnUse"
         id="clipPath13">
        <path
           d="M452.3375 489.8746 L452.3375 552.7592 L466.8006 552.7592 L466.8006 489.8746 Z"
           id="path39" />
      </clipPath>
      <clipPath
         clipPathUnits="userSpaceOnUse"
         id="clipPath14">
        <path
           d="M240.069 66.4183 L240.069 80.8813 L410.8001 80.8813 L410.8001 66.4183 Z"
           id="path42" />
      </clipPath>
      <clipPath
         clipPathUnits="userSpaceOnUse"
         id="clipPath15">
        <path
           d="M557.3901 143.2306 L557.3901 184.2217 L703.8096 184.2217 L703.8096 143.2306 Z"
           id="path45" />
      </clipPath>
      <clipPath
         clipPathUnits="userSpaceOnUse"
         id="clipPath16">
        <path
           d="M508.4333 396.768 L508.4333 468.5288 L678.1597 468.5288 L678.1597 396.768 Z"
           id="path48" />
      </clipPath>
      <clipPath
         clipPathUnits="userSpaceOnUse"
         id="clipPath17">
        <path
           d="M214.8956 182.9383 L214.8956 284.2379 L410.6634 284.2379 L410.6634 182.9383 Z"
           id="path51" />
      </clipPath>
      <clipPath
         clipPathUnits="userSpaceOnUse"
         id="clipPath18">
        <path
           d="M443.1996 88.1498 L443.1996 178.7429 L460.069 178.7429 L460.069 88.1498 Z"
           id="path54" />
      </clipPath>
      <clipPath
         clipPathUnits="userSpaceOnUse"
         id="clipPath19">
        <path
           d="M381.3145 141.5644 L381.3145 174.2974 L435.6263 174.2974 L435.6263 141.5644 Z"
           id="path57" />
      </clipPath>
      <clipPath
         clipPathUnits="userSpaceOnUse"
         id="clipPath20">
        <path
           d="M509.069 177.6424 L509.069 189.5812 L702.9366 189.5812 L702.9366 177.6424 Z"
           id="path60" />
      </clipPath>
      <clipPath
         clipPathUnits="userSpaceOnUse"
         id="clipPath21">
        <path
           d="M400.5581 330.8081 L400.5581 385.9299 L436.7151 385.9299 L436.7151 330.8081 Z"
           id="path63" />
      </clipPath>
      <clipPath
         clipPathUnits="userSpaceOnUse"
         id="clipPath22">
        <path
           d="M189.4286 302.532 L189.4286 393.2878 L410.2206 393.2878 L410.2206 302.532 Z"
           id="path66" />
      </clipPath>
      <clipPath
         clipPathUnits="userSpaceOnUse"
         id="clipPath23">
        <path
           d="M452.3375 401.4052 L452.3375 470.8746 L466.8005 470.8746 L466.8005 401.4052 Z"
           id="path69" />
      </clipPath>
      <clipPath
         clipPathUnits="userSpaceOnUse"
         id="clipPath24">
        <path
           d="M723.9603 323.1107 L723.9603 383.8674 L738.4232 383.8674 L738.4232 323.1107 Z"
           id="path72" />
      </clipPath>
      <clipPath
         clipPathUnits="userSpaceOnUse"
         id="clipPath25">
        <path
           d="M694.0361 398.7052 L694.0361 468.3746 L705.9749 468.3746 L705.9749 398.7052 Z"
           id="path75" />
      </clipPath>
      <clipPath
         clipPathUnits="userSpaceOnUse"
         id="clipPath26">
        <path
           d="M664.311 182.5679 L664.311 240.3018 L700.6945 240.3018 L700.6945 182.5679 Z"
           id="path78" />
      </clipPath>
      <clipPath
         clipPathUnits="userSpaceOnUse"
         id="clipPath27">
        <path
           d="M449.569 145.1232 L449.569 166.1232 L460.569 166.1232 L460.569 145.1232 Z"
           id="path81" />
      </clipPath>
      <clipPath
         clipPathUnits="userSpaceOnUse"
         id="clipPath28">
        <path
           d="M449.0241 133.0412 L460.114 133.0412 L460.114 148.3537 L449.0241 148.3537 L449.0241 133.0412 Z"
           id="path84" />
      </clipPath>
      <clipPath
         clipPathUnits="userSpaceOnUse"
         id="clipPath29">
        <path
           d="M348.869 70.6498 L348.869 91.6498 L359.869 91.6498 L359.869 70.6498 Z"
           id="path87" />
      </clipPath>
      <clipPath
         clipPathUnits="userSpaceOnUse"
         id="clipPath30">
        <path
           d="M348.3241 58.5678 L359.4139 58.5678 L359.4139 73.8803 L348.3241 73.8803 L348.3241 58.5678 Z"
           id="path90" />
      </clipPath>
      <clipPath
         clipPathUnits="userSpaceOnUse"
         id="clipPath31">
        <path
           d="M449.569 530.1821 L449.569 551.1821 L460.569 551.1821 L460.569 530.1821 Z"
           id="path93" />
      </clipPath>
      <clipPath
         clipPathUnits="userSpaceOnUse"
         id="clipPath32">
        <path
           d="M449.0241 518.1 L460.114 518.1 L460.114 533.4125 L449.0241 533.4125 L449.0241 518.1 Z"
           id="path96" />
      </clipPath>
      <clipPath
         clipPathUnits="userSpaceOnUse"
         id="clipPath33">
        <path
           d="M632.1746 180.6118 L632.1746 201.6118 L643.1746 201.6118 L643.1746 180.6118 Z"
           id="path99" />
      </clipPath>
      <clipPath
         clipPathUnits="userSpaceOnUse"
         id="clipPath34">
        <path
           d="M631.6296 168.5298 L642.7195 168.5298 L642.7195 183.8423 L631.6296 183.8423 L631.6296 168.5298 Z"
           id="path102" />
      </clipPath>
      <clipPath
         clipPathUnits="userSpaceOnUse"
         id="clipPath35">
        <path
           d="M548.0084 169.5118 L548.0084 190.5118 L559.0084 190.5118 L559.0084 169.5118 Z"
           id="path105" />
      </clipPath>
      <clipPath
         clipPathUnits="userSpaceOnUse"
         id="clipPath36">
        <path
           d="M547.4634 157.4298 L558.5533 157.4298 L558.5533 172.7423 L547.4634 172.7423 L547.4634 157.4298 Z"
           id="path108" />
      </clipPath>
      <clipPath
         clipPathUnits="userSpaceOnUse"
         id="clipPath37">
        <path
           d="M341.369 210.5976 L341.369 231.5976 L352.369 231.5976 L352.369 210.5976 Z"
           id="path111" />
      </clipPath>
      <clipPath
         clipPathUnits="userSpaceOnUse"
         id="clipPath38">
        <path
           d="M340.8241 198.5156 L351.9139 198.5156 L351.9139 213.8281 L340.8241 213.8281 L340.8241 198.5156 Z"
           id="path114" />
      </clipPath>
      <clipPath
         clipPathUnits="userSpaceOnUse"
         id="clipPath39">
        <path
           d="M665.5016 197.4121 L665.5016 218.4121 L676.5016 218.4121 L676.5016 197.4121 Z"
           id="path117" />
      </clipPath>
      <clipPath
         clipPathUnits="userSpaceOnUse"
         id="clipPath40">
        <path
           d="M664.9567 185.3301 L676.0466 185.3301 L676.0466 200.6426 L664.9567 200.6426 L664.9567 185.3301 Z"
           id="path120" />
      </clipPath>
      <clipPath
         clipPathUnits="userSpaceOnUse"
         id="clipPath41">
        <path
           d="M449.569 247.3191 L449.569 268.3192 L460.569 268.3192 L460.569 247.3191 Z"
           id="path123" />
      </clipPath>
      <clipPath
         clipPathUnits="userSpaceOnUse"
         id="clipPath42">
        <path
           d="M449.0241 235.2371 L460.114 235.2371 L460.114 250.5496 L449.0241 250.5496 L449.0241 235.2371 Z"
           id="path126" />
      </clipPath>
      <clipPath
         clipPathUnits="userSpaceOnUse"
         id="clipPath43">
        <path
           d="M537.95 389.6363 L537.95 410.6363 L548.95 410.6363 L548.95 389.6363 Z"
           id="path129" />
      </clipPath>
      <clipPath
         clipPathUnits="userSpaceOnUse"
         id="clipPath44">
        <path
           d="M537.405 377.5543 L548.4949 377.5543 L548.4949 392.8668 L537.405 392.8668 L537.405 377.5543 Z"
           id="path132" />
      </clipPath>
      <clipPath
         clipPathUnits="userSpaceOnUse"
         id="clipPath45">
        <path
           d="M449.569 419.9578 L449.569 440.9578 L460.569 440.9578 L460.569 419.9578 Z"
           id="path135" />
      </clipPath>
      <clipPath
         clipPathUnits="userSpaceOnUse"
         id="clipPath46">
        <path
           d="M449.0241 407.8757 L460.114 407.8757 L460.114 423.1882 L449.0241 423.1882 L449.0241 407.8757 Z"
           id="path138" />
      </clipPath>
      <clipPath
         clipPathUnits="userSpaceOnUse"
         id="clipPath47">
        <path
           d="M246.269 327.286 L246.269 348.286 L257.269 348.286 L257.269 327.286 Z"
           id="path141" />
      </clipPath>
      <clipPath
         clipPathUnits="userSpaceOnUse"
         id="clipPath48">
        <path
           d="M245.7241 315.204 L256.814 315.204 L256.814 330.5165 L245.7241 330.5165 L245.7241 315.204 Z"
           id="path144" />
      </clipPath>
      <clipPath
         clipPathUnits="userSpaceOnUse"
         id="clipPath49">
        <path
           d="M549.95 415.7078 L549.95 436.7078 L560.95 436.7078 L560.95 415.7078 Z"
           id="path147" />
      </clipPath>
      <clipPath
         clipPathUnits="userSpaceOnUse"
         id="clipPath50">
        <path
           d="M549.405 403.6257 L560.4949 403.6257 L560.4949 418.9382 L549.405 418.9382 L549.405 403.6257 Z"
           id="path150" />
      </clipPath>
      <clipPath
         clipPathUnits="userSpaceOnUse"
         id="clipPath51">
        <path
           d="M409.069 382.1363 L409.069 403.1363 L510.069 403.1363 L510.069 382.1363 Z"
           id="path153" />
      </clipPath>
      <clipPath
         clipPathUnits="userSpaceOnUse"
         id="clipPath52">
        <path
           d="M301 267 L301 293.5 L427 293.5 L427 267 Z"
           id="path156" />
      </clipPath>
      <clipPath
         clipPathUnits="userSpaceOnUse"
         id="clipPath53">
        <path
           d="M649.5055 126.1118 L649.5055 147.1118 L750.5055 147.1118 L750.5055 126.1118 Z"
           id="path159" />
      </clipPath>
      <clipPath
         clipPathUnits="userSpaceOnUse"
         id="clipPath54">
        <path
           d="M301 294 L301 320 L427 320 L427 294 Z"
           id="path162" />
      </clipPath>
      <clipPath
         clipPathUnits="userSpaceOnUse"
         id="clipPath55">
        <path
           d="M649.5055 291.1128 L649.5055 312.1128 L750.5055 312.1128 L750.5055 291.1128 Z"
           id="path165" />
      </clipPath>
      <clipPath
         clipPathUnits="userSpaceOnUse"
         id="clipPath56">
        <path
           d="M649.5055 271.1128 L649.5055 292.1128 L750.5055 292.1128 L750.5055 271.1128 Z"
           id="path168" />
      </clipPath>
      <clipPath
         clipPathUnits="userSpaceOnUse"
         id="clipPath57">
        <path
           d="M409.069 68.1498 L409.069 89.1498 L510.069 89.1498 L510.069 68.1498 Z"
           id="path171" />
      </clipPath>
      <clipPath
         clipPathUnits="userSpaceOnUse"
         id="clipPath58">
        <path
           d="M698.5055 173.1118 L698.5055 194.1118 L799.5055 194.1118 L799.5055 173.1118 Z"
           id="path174" />
      </clipPath>
      <clipPath
         clipPathUnits="userSpaceOnUse"
         id="clipPath59">
        <path
           d="M649.5055 251.1128 L649.5055 272.1128 L750.5055 272.1128 L750.5055 251.1128 Z"
           id="path177" />
      </clipPath>
      <clipPath
         clipPathUnits="userSpaceOnUse"
         id="clipPath60">
        <path
           d="M637.0055 382.1363 L637.0055 403.1363 L763.0055 403.1363 L763.0055 382.1363 Z"
           id="path180" />
      </clipPath>
      <clipPath
         clipPathUnits="userSpaceOnUse"
         id="clipPath61">
        <path
           d="M140.069 283.0645 L140.069 304.0645 L241.069 304.0645 L241.069 283.0645 Z"
           id="path183" />
      </clipPath>
      <clipPath
         clipPathUnits="userSpaceOnUse"
         id="clipPath62">
        <path
           d="M143.5 121.5 L143.5 163 L382.5 163 L382.5 121.5 Z"
           id="path186" />
      </clipPath>
      <clipPath
         clipPathUnits="userSpaceOnUse"
         id="clipPath63">
        <path
           d="M409.069 469.8746 L409.069 490.8746 L510.069 490.8746 L510.069 469.8746 Z"
           id="path189" />
      </clipPath>
      <clipPath
         clipPathUnits="userSpaceOnUse"
         id="clipPath64">
        <path
           d="M654.5055 467.3746 L654.5055 493.3746 L745.5055 493.3746 L745.5055 467.3746 Z"
           id="path192" />
      </clipPath>
      <clipPath
         clipPathUnits="userSpaceOnUse"
         id="clipPath65">
        <path
           d="M409.069 551.0281 L409.069 572.0281 L510.069 572.0281 L510.069 551.0281 Z"
           id="path195" />
      </clipPath>
      <clipPath
         clipPathUnits="userSpaceOnUse"
         id="clipPath66">
        <path
           d="M409.069 173.1118 L409.069 194.1118 L510.069 194.1118 L510.069 173.1118 Z"
           id="path198" />
      </clipPath>
      <clipPath
         clipPathUnits="userSpaceOnUse"
         id="clipPath67">
        <path
           d="M140.069 68.1498 L140.069 89.1498 L241.069 89.1498 L241.069 68.1498 Z"
           id="path201" />
      </clipPath>
      <clipPath
         clipPathUnits="userSpaceOnUse"
         id="clipPath68">
        <path
           d="M507.5279 126.1118 L507.5279 147.1118 L608.5279 147.1118 L608.5279 126.1118 Z"
           id="path204" />
      </clipPath>
    </defs>
    <g
       style="fill:white; stroke:white;"
       id="g210">
      <rect
         x="0"
         width="829"
         height="601"
         y="0"
         style="stroke:none;"
         id="rect208" />
    </g>
    <g
       style="font-weight:bold; font-size:10; text-rendering:geometricPrecision;"
       id="g220">
      <path
         d="M0.0469 6.7031 L6.7656 6.7031 L6.7656 8.125 L4.3438 8.125 L4.3438 14 L2.4688 14 L2.4688 8.125 L0.0469 8.125 L0.0469 6.7031 ZM7.665 8.5312 L9.415 8.5312 L9.415 14 L7.665 14 L7.665 8.5312 ZM7.665 6.4062 L9.415 6.4062 L9.415 7.8281 L7.665 7.8281 L7.665 6.4062 ZM12.999 6.9844 L12.999 8.5312 L14.7959 8.5312 L14.7959 9.7812 L12.999 9.7812 L12.999 12.0938 Q12.999 12.4844 13.1475 12.6172 Q13.2959 12.75 13.749 12.75 L14.6553 12.75 L14.6553 14 L13.1553 14 Q12.1084 14 11.6787 13.5703 Q11.249 13.1406 11.249 12.0938 L11.249 9.7812 L10.374 9.7812 L10.374 8.5312 L11.249 8.5312 L11.249 6.9844 L12.999 6.9844 ZM15.873 6.4062 L17.623 6.4062 L17.623 14 L15.873 14 L15.873 6.4062 ZM24.7539 11.25 L24.7539 11.75 L20.6758 11.75 Q20.7383 12.3594 21.1133 12.6719 Q21.4883 12.9844 22.1758 12.9844 Q22.7227 12.9844 23.3086 12.8203 Q23.8945 12.6562 24.5039 12.3125 L24.5039 13.6719 Q23.8789 13.9062 23.2617 14.0234 Q22.6445 14.1406 22.0195 14.1406 Q20.5352 14.1406 19.7148 13.3828 Q18.8945 12.625 18.8945 11.2656 Q18.8945 9.9375 19.6992 9.1719 Q20.5039 8.4062 21.9258 8.4062 Q23.207 8.4062 23.9805 9.1797 Q24.7539 9.9531 24.7539 11.25 ZM22.957 10.6719 Q22.957 10.1719 22.668 9.8672 Q22.3789 9.5625 21.9102 9.5625 Q21.3945 9.5625 21.082 9.8438 Q20.7695 10.125 20.6914 10.6719 L22.957 10.6719 ZM26.3643 8.5312 L28.1143 8.5312 L28.1143 10.4219 L26.3643 10.4219 L26.3643 8.5312 ZM26.3643 12.1094 L28.1143 12.1094 L28.1143 14 L26.3643 14 L26.3643 12.1094 Z"
         style="clip-path:url(#clipPath2); stroke:none;"
         clip-path="url(#clipPath2)"
         id="path212" />
      <path
         d="M39.9688 7.5156 L39.9688 10.2656 L41.2031 10.2656 Q41.8906 10.2656 42.2734 9.9062 Q42.6562 9.5469 42.6562 8.8906 Q42.6562 8.2344 42.2734 7.875 Q41.8906 7.5156 41.2031 7.5156 L39.9688 7.5156 ZM38.9844 6.7031 L41.2031 6.7031 Q42.4375 6.7031 43.0625 7.2578 Q43.6875 7.8125 43.6875 8.8906 Q43.6875 9.9688 43.0625 10.5156 Q42.4375 11.0625 41.2031 11.0625 L39.9688 11.0625 L39.9688 14 L38.9844 14 L38.9844 6.7031 ZM45.8584 6.9844 L45.8584 8.5312 L47.7178 8.5312 L47.7178 9.2344 L45.8584 9.2344 L45.8584 12.2031 Q45.8584 12.8594 46.0459 13.0547 Q46.2334 13.25 46.7959 13.25 L47.7178 13.25 L47.7178 14 L46.7959 14 Q45.749 14 45.3506 13.6094 Q44.9521 13.2188 44.9521 12.2031 L44.9521 9.2344 L44.2959 9.2344 L44.2959 8.5312 L44.9521 8.5312 L44.9521 6.9844 L45.8584 6.9844 ZM52.498 9.3594 L52.498 6.4062 L53.3887 6.4062 L53.3887 14 L52.498 14 L52.498 13.1719 Q52.2168 13.6719 51.7793 13.9062 Q51.3418 14.1406 50.7324 14.1406 Q49.748 14.1406 49.123 13.3516 Q48.498 12.5625 48.498 11.2656 Q48.498 9.9844 49.123 9.1953 Q49.748 8.4062 50.7324 8.4062 Q51.3418 8.4062 51.7793 8.6406 Q52.2168 8.875 52.498 9.3594 ZM49.4355 11.2656 Q49.4355 12.2656 49.8418 12.8281 Q50.248 13.3906 50.9668 13.3906 Q51.6699 13.3906 52.084 12.8281 Q52.498 12.2656 52.498 11.2656 Q52.498 10.2812 52.084 9.7188 Q51.6699 9.1562 50.9668 9.1562 Q50.248 9.1562 49.8418 9.7188 Q49.4355 10.2812 49.4355 11.2656 ZM55.2832 6.7031 L56.2676 6.7031 L56.2676 14 L55.2832 14 L55.2832 6.7031 ZM62.7324 10.7031 L62.7324 14 L61.8418 14 L61.8418 10.7344 Q61.8418 9.9531 61.5371 9.5703 Q61.2324 9.1875 60.623 9.1875 Q59.9043 9.1875 59.4824 9.6484 Q59.0605 10.1094 59.0605 10.9062 L59.0605 14 L58.1543 14 L58.1543 8.5312 L59.0605 8.5312 L59.0605 9.375 Q59.3887 8.8906 59.8262 8.6484 Q60.2637 8.4062 60.8262 8.4062 Q61.7637 8.4062 62.248 8.9844 Q62.7324 9.5625 62.7324 10.7031 ZM68.0078 8.6875 L68.0078 9.5469 Q67.6328 9.3438 67.2266 9.25 Q66.8203 9.1562 66.3672 9.1562 Q65.7109 9.1562 65.375 9.3594 Q65.0391 9.5625 65.0391 9.9688 Q65.0391 10.2812 65.2734 10.4609 Q65.5078 10.6406 66.2422 10.7969 L66.5391 10.875 Q67.5078 11.0781 67.9062 11.4531 Q68.3047 11.8281 68.3047 12.4844 Q68.3047 13.25 67.7031 13.6953 Q67.1016 14.1406 66.0547 14.1406 Q65.6016 14.1406 65.125 14.0547 Q64.6484 13.9688 64.1328 13.7969 L64.1328 12.875 Q64.6328 13.125 65.1094 13.2578 Q65.5859 13.3906 66.0703 13.3906 Q66.6953 13.3906 67.0391 13.1719 Q67.3828 12.9531 67.3828 12.5625 Q67.3828 12.1875 67.1406 11.9922 Q66.8984 11.7969 66.0547 11.625 L65.7422 11.5469 Q64.9141 11.375 64.5391 11.0078 Q64.1641 10.6406 64.1641 10.0156 Q64.1641 9.2344 64.7109 8.8203 Q65.2578 8.4062 66.2734 8.4062 Q66.7578 8.4062 67.2031 8.4766 Q67.6484 8.5469 68.0078 8.6875 ZM71.8896 6.4062 Q71.249 7.5312 70.9287 8.6328 Q70.6084 9.7344 70.6084 10.8594 Q70.6084 11.9844 70.9287 13.0938 Q71.249 14.2031 71.8896 15.3125 L71.1084 15.3125 Q70.3896 14.1719 70.0225 13.0625 Q69.6553 11.9531 69.6553 10.8594 Q69.6553 9.7656 70.0146 8.6641 Q70.374 7.5625 71.1084 6.4062 L71.8896 6.4062 ZM76.4785 7.5625 L73.9941 11.4531 L76.4785 11.4531 L76.4785 7.5625 ZM76.2129 6.7031 L77.4629 6.7031 L77.4629 11.4531 L78.4941 11.4531 L78.4941 12.2812 L77.4629 12.2812 L77.4629 14 L76.4785 14 L76.4785 12.2812 L73.1816 12.2812 L73.1816 11.3281 L76.2129 6.7031 ZM80.2314 12.7656 L81.2627 12.7656 L81.2627 13.5938 L80.4658 15.1562 L79.8252 15.1562 L80.2314 13.5938 L80.2314 12.7656 ZM83.3164 6.7031 L87.1914 6.7031 L87.1914 7.5469 L84.2227 7.5469 L84.2227 9.3281 Q84.4414 9.25 84.6523 9.2188 Q84.8633 9.1875 85.082 9.1875 Q86.3008 9.1875 87.0117 9.8516 Q87.7227 10.5156 87.7227 11.6562 Q87.7227 12.8438 86.9961 13.4922 Q86.2695 14.1406 84.9258 14.1406 Q84.4727 14.1406 83.9961 14.0625 Q83.5195 13.9844 83.0039 13.8281 L83.0039 12.8438 Q83.457 13.0781 83.9258 13.1953 Q84.3945 13.3125 84.9102 13.3125 Q85.7539 13.3125 86.2461 12.8672 Q86.7383 12.4219 86.7383 11.6562 Q86.7383 10.9062 86.2461 10.4609 Q85.7539 10.0156 84.9102 10.0156 Q84.5195 10.0156 84.1211 10.1016 Q83.7227 10.1875 83.3164 10.375 L83.3164 6.7031 ZM89.3975 6.4062 L90.1787 6.4062 Q90.9131 7.5625 91.2803 8.6641 Q91.6475 9.7656 91.6475 10.8594 Q91.6475 11.9531 91.2803 13.0625 Q90.9131 14.1719 90.1787 15.3125 L89.3975 15.3125 Q90.0537 14.2031 90.374 13.0938 Q90.6943 11.9844 90.6943 10.8594 Q90.6943 9.7344 90.374 8.6328 Q90.0537 7.5312 89.3975 6.4062 ZM94.4707 7.5156 L94.4707 10.2656 L95.7051 10.2656 Q96.3926 10.2656 96.7754 9.9062 Q97.1582 9.5469 97.1582 8.8906 Q97.1582 8.2344 96.7754 7.875 Q96.3926 7.5156 95.7051 7.5156 L94.4707 7.5156 ZM93.4863 6.7031 L95.7051 6.7031 Q96.9395 6.7031 97.5645 7.2578 Q98.1895 7.8125 98.1895 8.8906 Q98.1895 9.9688 97.5645 10.5156 Q96.9395 11.0625 95.7051 11.0625 L94.4707 11.0625 L94.4707 14 L93.4863 14 L93.4863 6.7031 ZM100.4541 13.1719 L103.8916 13.1719 L103.8916 14 L99.2666 14 L99.2666 13.1719 Q99.8291 12.5938 100.7979 11.6094 Q101.7666 10.625 102.0166 10.3438 Q102.4854 9.8125 102.6729 9.4453 Q102.8604 9.0781 102.8604 8.7188 Q102.8604 8.1406 102.4541 7.7734 Q102.0479 7.4062 101.3916 7.4062 Q100.9229 7.4062 100.415 7.5703 Q99.9072 7.7344 99.3135 8.0625 L99.3135 7.0625 Q99.9072 6.8281 100.4229 6.7031 Q100.9385 6.5781 101.376 6.5781 Q102.501 6.5781 103.1807 7.1406 Q103.8604 7.7031 103.8604 8.6562 Q103.8604 9.1094 103.6885 9.5078 Q103.5166 9.9062 103.0791 10.4531 Q102.9541 10.5938 102.2979 11.2734 Q101.6416 11.9531 100.4541 13.1719 ZM109.0107 8.5312 L109.917 8.5312 L109.917 14 L109.0107 14 L109.0107 8.5312 ZM109.0107 6.4062 L109.917 6.4062 L109.917 7.5469 L109.0107 7.5469 L109.0107 6.4062 ZM116.3359 10.7031 L116.3359 14 L115.4453 14 L115.4453 10.7344 Q115.4453 9.9531 115.1406 9.5703 Q114.8359 9.1875 114.2266 9.1875 Q113.5078 9.1875 113.0859 9.6484 Q112.6641 10.1094 112.6641 10.9062 L112.6641 14 L111.7578 14 L111.7578 8.5312 L112.6641 8.5312 L112.6641 9.375 Q112.9922 8.8906 113.4297 8.6484 Q113.8672 8.4062 114.4297 8.4062 Q115.3672 8.4062 115.8516 8.9844 Q116.3359 9.5625 116.3359 10.7031 ZM125.2432 8.7344 L125.2432 9.5781 Q124.8682 9.375 124.4854 9.2656 Q124.1025 9.1562 123.7119 9.1562 Q122.8369 9.1562 122.3525 9.7109 Q121.8682 10.2656 121.8682 11.2656 Q121.8682 12.2656 122.3525 12.8203 Q122.8369 13.375 123.7119 13.375 Q124.1025 13.375 124.4854 13.2734 Q124.8682 13.1719 125.2432 12.9531 L125.2432 13.7969 Q124.8682 13.9688 124.4697 14.0547 Q124.0713 14.1406 123.6182 14.1406 Q122.3682 14.1406 121.6416 13.3672 Q120.915 12.5938 120.915 11.2656 Q120.915 9.9375 121.6494 9.1719 Q122.3838 8.4062 123.665 8.4062 Q124.0869 8.4062 124.4775 8.4844 Q124.8682 8.5625 125.2432 8.7344 ZM129.085 14.5156 Q128.71 15.4844 128.3428 15.7812 Q127.9756 16.0781 127.3818 16.0781 L126.6631 16.0781 L126.6631 15.3281 L127.1787 15.3281 Q127.5537 15.3281 127.7568 15.1562 Q127.96 14.9844 128.21 14.3281 L128.3818 13.9062 L126.1631 8.5312 L127.1162 8.5312 L128.8193 12.8125 L130.5381 8.5312 L131.4912 8.5312 L129.085 14.5156 ZM133.6123 6.9844 L133.6123 8.5312 L135.4717 8.5312 L135.4717 9.2344 L133.6123 9.2344 L133.6123 12.2031 Q133.6123 12.8594 133.7998 13.0547 Q133.9873 13.25 134.5498 13.25 L135.4717 13.25 L135.4717 14 L134.5498 14 Q133.5029 14 133.1045 13.6094 Q132.7061 13.2188 132.7061 12.2031 L132.7061 9.2344 L132.0498 9.2344 L132.0498 8.5312 L132.7061 8.5312 L132.7061 6.9844 L133.6123 6.9844 ZM138.7676 9.1562 Q138.0488 9.1562 137.627 9.7188 Q137.2051 10.2812 137.2051 11.2656 Q137.2051 12.25 137.6191 12.8125 Q138.0332 13.375 138.7676 13.375 Q139.4863 13.375 139.9082 12.8125 Q140.3301 12.25 140.3301 11.2656 Q140.3301 10.2969 139.9082 9.7266 Q139.4863 9.1562 138.7676 9.1562 ZM138.7676 8.4062 Q139.9395 8.4062 140.6113 9.1641 Q141.2832 9.9219 141.2832 11.2656 Q141.2832 12.6094 140.6113 13.375 Q139.9395 14.1406 138.7676 14.1406 Q137.5957 14.1406 136.9238 13.375 Q136.252 12.6094 136.252 11.2656 Q136.252 9.9219 136.9238 9.1641 Q137.5957 8.4062 138.7676 8.4062 ZM142.7295 6.4062 L143.6357 6.4062 L143.6357 10.8906 L146.3232 8.5312 L147.4639 8.5312 L144.5576 11.0938 L147.5889 14 L146.417 14 L143.6357 11.3281 L143.6357 14 L142.7295 14 L142.7295 6.4062 ZM148.5518 8.5312 L149.458 8.5312 L149.458 14 L148.5518 14 L148.5518 8.5312 ZM148.5518 6.4062 L149.458 6.4062 L149.458 7.5469 L148.5518 7.5469 L148.5518 6.4062 ZM155.877 10.7031 L155.877 14 L154.9863 14 L154.9863 10.7344 Q154.9863 9.9531 154.6816 9.5703 Q154.377 9.1875 153.7676 9.1875 Q153.0488 9.1875 152.627 9.6484 Q152.2051 10.1094 152.2051 10.9062 L152.2051 14 L151.2988 14 L151.2988 8.5312 L152.2051 8.5312 L152.2051 9.375 Q152.5332 8.8906 152.9707 8.6484 Q153.4082 8.4062 153.9707 8.4062 Q154.9082 8.4062 155.3926 8.9844 Q155.877 9.5625 155.877 10.7031 ZM162.3555 11.0469 L162.3555 11.4844 L158.2148 11.4844 Q158.2773 12.4062 158.7773 12.8906 Q159.2773 13.375 160.168 13.375 Q160.6836 13.375 161.1758 13.25 Q161.668 13.125 162.1367 12.875 L162.1367 13.7188 Q161.6523 13.9219 161.1445 14.0312 Q160.6367 14.1406 160.1211 14.1406 Q158.8086 14.1406 158.043 13.3828 Q157.2773 12.625 157.2773 11.3125 Q157.2773 9.9688 158.0039 9.1875 Q158.7305 8.4062 159.9648 8.4062 Q161.0742 8.4062 161.7148 9.1094 Q162.3555 9.8125 162.3555 11.0469 ZM161.4492 10.7812 Q161.4492 10.0469 161.043 9.6016 Q160.6367 9.1562 159.9805 9.1562 Q159.2148 9.1562 158.7695 9.5859 Q158.3242 10.0156 158.2461 10.7812 L161.4492 10.7812 ZM167.3047 8.6875 L167.3047 9.5469 Q166.9297 9.3438 166.5234 9.25 Q166.1172 9.1562 165.6641 9.1562 Q165.0078 9.1562 164.6719 9.3594 Q164.3359 9.5625 164.3359 9.9688 Q164.3359 10.2812 164.5703 10.4609 Q164.8047 10.6406 165.5391 10.7969 L165.8359 10.875 Q166.8047 11.0781 167.2031 11.4531 Q167.6016 11.8281 167.6016 12.4844 Q167.6016 13.25 167 13.6953 Q166.3984 14.1406 165.3516 14.1406 Q164.8984 14.1406 164.4219 14.0547 Q163.9453 13.9688 163.4297 13.7969 L163.4297 12.875 Q163.9297 13.125 164.4062 13.2578 Q164.8828 13.3906 165.3672 13.3906 Q165.9922 13.3906 166.3359 13.1719 Q166.6797 12.9531 166.6797 12.5625 Q166.6797 12.1875 166.4375 11.9922 Q166.1953 11.7969 165.3516 11.625 L165.0391 11.5469 Q164.2109 11.375 163.8359 11.0078 Q163.4609 10.6406 163.4609 10.0156 Q163.4609 9.2344 164.0078 8.8203 Q164.5547 8.4062 165.5703 8.4062 Q166.0547 8.4062 166.5 8.4766 Q166.9453 8.5469 167.3047 8.6875 ZM169.0303 8.5312 L169.9365 8.5312 L169.9365 14 L169.0303 14 L169.0303 8.5312 ZM169.0303 6.4062 L169.9365 6.4062 L169.9365 7.5469 L169.0303 7.5469 L169.0303 6.4062 ZM175.293 8.6875 L175.293 9.5469 Q174.918 9.3438 174.5117 9.25 Q174.1055 9.1562 173.6523 9.1562 Q172.9961 9.1562 172.6602 9.3594 Q172.3242 9.5625 172.3242 9.9688 Q172.3242 10.2812 172.5586 10.4609 Q172.793 10.6406 173.5273 10.7969 L173.8242 10.875 Q174.793 11.0781 175.1914 11.4531 Q175.5898 11.8281 175.5898 12.4844 Q175.5898 13.25 174.9883 13.6953 Q174.3867 14.1406 173.3398 14.1406 Q172.8867 14.1406 172.4102 14.0547 Q171.9336 13.9688 171.418 13.7969 L171.418 12.875 Q171.918 13.125 172.3945 13.2578 Q172.8711 13.3906 173.3555 13.3906 Q173.9805 13.3906 174.3242 13.1719 Q174.668 12.9531 174.668 12.5625 Q174.668 12.1875 174.4258 11.9922 Q174.1836 11.7969 173.3398 11.625 L173.0273 11.5469 Q172.1992 11.375 171.8242 11.0078 Q171.4492 10.6406 171.4492 10.0156 Q171.4492 9.2344 171.9961 8.8203 Q172.543 8.4062 173.5586 8.4062 Q174.043 8.4062 174.4883 8.4766 Q174.9336 8.5469 175.293 8.6875 ZM181.0723 13.1719 L181.0723 16.0781 L180.166 16.0781 L180.166 8.5312 L181.0723 8.5312 L181.0723 9.3594 Q181.3535 8.875 181.7832 8.6406 Q182.2129 8.4062 182.8223 8.4062 Q183.8223 8.4062 184.4395 9.1953 Q185.0566 9.9844 185.0566 11.2656 Q185.0566 12.5625 184.4395 13.3516 Q183.8223 14.1406 182.8223 14.1406 Q182.2129 14.1406 181.7832 13.9062 Q181.3535 13.6719 181.0723 13.1719 ZM184.1348 11.2656 Q184.1348 10.2812 183.7207 9.7188 Q183.3066 9.1562 182.6035 9.1562 Q181.8848 9.1562 181.4785 9.7188 Q181.0723 10.2812 181.0723 11.2656 Q181.0723 12.2656 181.4785 12.8281 Q181.8848 13.3906 182.6035 13.3906 Q183.3066 13.3906 183.7207 12.8281 Q184.1348 12.2656 184.1348 11.2656 ZM189.0293 11.25 Q187.9512 11.25 187.5293 11.5 Q187.1074 11.75 187.1074 12.3438 Q187.1074 12.8281 187.4199 13.1094 Q187.7324 13.3906 188.2793 13.3906 Q189.0293 13.3906 189.4824 12.8594 Q189.9355 12.3281 189.9355 11.4531 L189.9355 11.25 L189.0293 11.25 ZM190.8262 10.875 L190.8262 14 L189.9355 14 L189.9355 13.1719 Q189.623 13.6719 189.1621 13.9062 Q188.7012 14.1406 188.0449 14.1406 Q187.2012 14.1406 186.7012 13.6719 Q186.2012 13.2031 186.2012 12.4062 Q186.2012 11.4844 186.8262 11.0156 Q187.4512 10.5469 188.6699 10.5469 L189.9355 10.5469 L189.9355 10.4531 Q189.9355 9.8438 189.5215 9.5 Q189.1074 9.1562 188.373 9.1562 Q187.9043 9.1562 187.459 9.2734 Q187.0137 9.3906 186.6074 9.6094 L186.6074 8.7812 Q187.1074 8.5938 187.5684 8.5 Q188.0293 8.4062 188.4668 8.4062 Q189.6543 8.4062 190.2402 9.0156 Q190.8262 9.625 190.8262 10.875 ZM193.5635 6.9844 L193.5635 8.5312 L195.4229 8.5312 L195.4229 9.2344 L193.5635 9.2344 L193.5635 12.2031 Q193.5635 12.8594 193.751 13.0547 Q193.9385 13.25 194.501 13.25 L195.4229 13.25 L195.4229 14 L194.501 14 Q193.4541 14 193.0557 13.6094 Q192.6572 13.2188 192.6572 12.2031 L192.6572 9.2344 L192.001 9.2344 L192.001 8.5312 L192.6572 8.5312 L192.6572 6.9844 L193.5635 6.9844 ZM201.1406 10.7031 L201.1406 14 L200.25 14 L200.25 10.7344 Q200.25 9.9531 199.9453 9.5703 Q199.6406 9.1875 199.0312 9.1875 Q198.3125 9.1875 197.8906 9.6484 Q197.4688 10.1094 197.4688 10.9062 L197.4688 14 L196.5625 14 L196.5625 6.4062 L197.4688 6.4062 L197.4688 9.375 Q197.7969 8.8906 198.2344 8.6484 Q198.6719 8.4062 199.2344 8.4062 Q200.1719 8.4062 200.6562 8.9844 Q201.1406 9.5625 201.1406 10.7031 ZM202.416 8.5312 L203.3066 8.5312 L204.4316 12.7969 L205.5566 8.5312 L206.6191 8.5312 L207.7441 12.7969 L208.8535 8.5312 L209.7598 8.5312 L208.3223 14 L207.2598 14 L206.0879 9.5156 L204.9004 14 L203.8379 14 L202.416 8.5312 ZM213.5947 11.25 Q212.5166 11.25 212.0947 11.5 Q211.6729 11.75 211.6729 12.3438 Q211.6729 12.8281 211.9854 13.1094 Q212.2979 13.3906 212.8447 13.3906 Q213.5947 13.3906 214.0479 12.8594 Q214.501 12.3281 214.501 11.4531 L214.501 11.25 L213.5947 11.25 ZM215.3916 10.875 L215.3916 14 L214.501 14 L214.501 13.1719 Q214.1885 13.6719 213.7275 13.9062 Q213.2666 14.1406 212.6104 14.1406 Q211.7666 14.1406 211.2666 13.6719 Q210.7666 13.2031 210.7666 12.4062 Q210.7666 11.4844 211.3916 11.0156 Q212.0166 10.5469 213.2354 10.5469 L214.501 10.5469 L214.501 10.4531 Q214.501 9.8438 214.0869 9.5 Q213.6729 9.1562 212.9385 9.1562 Q212.4697 9.1562 212.0244 9.2734 Q211.5791 9.3906 211.1729 9.6094 L211.1729 8.7812 Q211.6729 8.5938 212.1338 8.5 Q212.5947 8.4062 213.0322 8.4062 Q214.2197 8.4062 214.8057 9.0156 Q215.3916 9.625 215.3916 10.875 ZM219.5195 14.5156 Q219.1445 15.4844 218.7773 15.7812 Q218.4102 16.0781 217.8164 16.0781 L217.0977 16.0781 L217.0977 15.3281 L217.6133 15.3281 Q217.9883 15.3281 218.1914 15.1562 Q218.3945 14.9844 218.6445 14.3281 L218.8164 13.9062 L216.5977 8.5312 L217.5508 8.5312 L219.2539 12.8125 L220.9727 8.5312 L221.9258 8.5312 L219.5195 14.5156 Z"
         style="clip-path:url(#clipPath2); stroke:none;"
         clip-path="url(#clipPath2)"
         id="path214" />
      <path
         d="M4.25 21.9375 Q3.3906 21.9375 2.9141 22.5703 Q2.4375 23.2031 2.4375 24.3594 Q2.4375 25.5156 2.9141 26.1484 Q3.3906 26.7812 4.25 26.7812 Q5.1094 26.7812 5.5859 26.1484 Q6.0625 25.5156 6.0625 24.3594 Q6.0625 23.2031 5.5859 22.5703 Q5.1094 21.9375 4.25 21.9375 ZM4.25 20.5781 Q6 20.5781 7 21.5859 Q8 22.5938 8 24.3594 Q8 26.125 7 27.1328 Q6 28.1406 4.25 28.1406 Q2.5 28.1406 1.5 27.1328 Q0.5 26.125 0.5 24.3594 Q0.5 22.5938 1.5 21.5859 Q2.5 20.5781 4.25 20.5781 ZM13.4072 24.0156 Q13.1729 23.9062 12.9463 23.8594 Q12.7197 23.8125 12.4854 23.8125 Q11.8135 23.8125 11.4541 24.2422 Q11.0947 24.6719 11.0947 25.4844 L11.0947 28 L9.3447 28 L9.3447 22.5312 L11.0947 22.5312 L11.0947 23.4219 Q11.4229 22.8906 11.8604 22.6484 Q12.2979 22.4062 12.9072 22.4062 Q13.001 22.4062 13.1025 22.4062 Q13.2041 22.4062 13.3916 22.4375 L13.4072 24.0156 ZM17.9951 27.0781 Q17.6357 27.5469 17.1982 27.7734 Q16.7607 28 16.1982 28 Q15.1982 28 14.542 27.2109 Q13.8857 26.4219 13.8857 25.2031 Q13.8857 23.9688 14.542 23.1875 Q15.1982 22.4062 16.1982 22.4062 Q16.7607 22.4062 17.1982 22.6328 Q17.6357 22.8594 17.9951 23.3438 L17.9951 22.5312 L19.7451 22.5312 L19.7451 27.4531 Q19.7451 28.7656 18.917 29.4609 Q18.0889 30.1562 16.5107 30.1562 Q15.9951 30.1562 15.5186 30.0781 Q15.042 30 14.5576 29.8438 L14.5576 28.4844 Q15.0107 28.75 15.4482 28.875 Q15.8857 29 16.3389 29 Q17.1982 29 17.5967 28.625 Q17.9951 28.25 17.9951 27.4531 L17.9951 27.0781 ZM16.8389 23.6719 Q16.292 23.6719 15.9951 24.0703 Q15.6982 24.4688 15.6982 25.2031 Q15.6982 25.9531 15.9873 26.3438 Q16.2764 26.7344 16.8389 26.7344 Q17.3857 26.7344 17.6904 26.3281 Q17.9951 25.9219 17.9951 25.2031 Q17.9951 24.4688 17.6904 24.0703 Q17.3857 23.6719 16.8389 23.6719 ZM23.8877 25.5312 Q23.3408 25.5312 23.0596 25.7188 Q22.7783 25.9062 22.7783 26.2656 Q22.7783 26.6094 23.0049 26.7969 Q23.2314 26.9844 23.6221 26.9844 Q24.1221 26.9844 24.458 26.625 Q24.7939 26.2656 24.7939 25.7344 L24.7939 25.5312 L23.8877 25.5312 ZM26.5596 24.875 L26.5596 28 L24.7939 28 L24.7939 27.1875 Q24.4346 27.6875 23.9971 27.9141 Q23.5596 28.1406 22.9346 28.1406 Q22.0752 28.1406 21.5518 27.6484 Q21.0283 27.1562 21.0283 26.3594 Q21.0283 25.3906 21.6846 24.9453 Q22.3408 24.5 23.7627 24.5 L24.7939 24.5 L24.7939 24.3594 Q24.7939 23.9531 24.4658 23.7578 Q24.1377 23.5625 23.4502 23.5625 Q22.8877 23.5625 22.4033 23.6719 Q21.9189 23.7812 21.4971 24.0156 L21.4971 22.6719 Q22.0596 22.5469 22.6299 22.4766 Q23.2002 22.4062 23.7627 22.4062 Q25.2471 22.4062 25.9033 22.9844 Q26.5596 23.5625 26.5596 24.875 ZM33.6826 24.6719 L33.6826 28 L31.917 28 L31.917 27.4531 L31.917 25.4531 Q31.917 24.75 31.8857 24.4766 Q31.8545 24.2031 31.7764 24.0781 Q31.6826 23.9062 31.5029 23.8125 Q31.3232 23.7188 31.1045 23.7188 Q30.5576 23.7188 30.2451 24.1406 Q29.9326 24.5625 29.9326 25.3125 L29.9326 28 L28.1826 28 L28.1826 22.5312 L29.9326 22.5312 L29.9326 23.3281 Q30.3232 22.8594 30.7686 22.6328 Q31.2139 22.4062 31.7451 22.4062 Q32.6982 22.4062 33.1904 22.9844 Q33.6826 23.5625 33.6826 24.6719 ZM35.3018 22.5312 L37.0518 22.5312 L37.0518 28 L35.3018 28 L35.3018 22.5312 ZM35.3018 20.4062 L37.0518 20.4062 L37.0518 21.8281 L35.3018 21.8281 L35.3018 20.4062 ZM42.9951 22.7031 L42.9951 24.0312 Q42.4326 23.7969 41.9092 23.6797 Q41.3857 23.5625 40.9326 23.5625 Q40.4326 23.5625 40.1904 23.6875 Q39.9482 23.8125 39.9482 24.0625 Q39.9482 24.2812 40.1279 24.3906 Q40.3076 24.5 40.792 24.5625 L41.0889 24.5938 Q42.4326 24.7656 42.9014 25.1562 Q43.3701 25.5469 43.3701 26.3906 Q43.3701 27.2656 42.7217 27.7031 Q42.0732 28.1406 40.792 28.1406 Q40.2607 28.1406 39.6826 28.0547 Q39.1045 27.9688 38.4795 27.7969 L38.4795 26.4688 Q39.0107 26.7188 39.5576 26.8516 Q40.1045 26.9844 40.667 26.9844 Q41.1826 26.9844 41.4404 26.8438 Q41.6982 26.7031 41.6982 26.4219 Q41.6982 26.1875 41.5264 26.0703 Q41.3545 25.9531 40.8232 25.8906 L40.5107 25.8438 Q39.3389 25.7031 38.8701 25.3047 Q38.4014 24.9062 38.4014 24.1094 Q38.4014 23.2344 38.9951 22.8203 Q39.5889 22.4062 40.8232 22.4062 Q41.3076 22.4062 41.8389 22.4766 Q42.3701 22.5469 42.9951 22.7031 ZM49.7441 23.4375 Q50.0723 22.9375 50.5332 22.6719 Q50.9941 22.4062 51.541 22.4062 Q52.4785 22.4062 52.9707 22.9844 Q53.4629 23.5625 53.4629 24.6719 L53.4629 28 L51.7129 28 L51.7129 25.1406 Q51.7129 25.0781 51.7129 25.0156 Q51.7129 24.9531 51.7129 24.8281 Q51.7129 24.2344 51.5488 23.9766 Q51.3848 23.7188 50.9941 23.7188 Q50.4941 23.7188 50.2285 24.125 Q49.9629 24.5312 49.9473 25.3125 L49.9473 28 L48.1816 28 L48.1816 25.1406 Q48.1816 24.2344 48.0254 23.9766 Q47.8691 23.7188 47.4785 23.7188 Q46.9785 23.7188 46.7051 24.1328 Q46.4316 24.5469 46.4316 25.3125 L46.4316 28 L44.666 28 L44.666 22.5312 L46.4316 22.5312 L46.4316 23.3281 Q46.7441 22.875 47.166 22.6406 Q47.5879 22.4062 48.0879 22.4062 Q48.6504 22.4062 49.0879 22.6797 Q49.5254 22.9531 49.7441 23.4375 ZM55.3828 22.5312 L57.1328 22.5312 L57.1328 24.4219 L55.3828 24.4219 L55.3828 22.5312 ZM55.3828 26.1094 L57.1328 26.1094 L57.1328 28 L55.3828 28 L55.3828 26.1094 Z"
         style="clip-path:url(#clipPath2); stroke:none;"
         clip-path="url(#clipPath2)"
         id="path216" />
      <path
         d="M66.9844 20.7031 L67.9688 20.7031 L67.9688 23.7031 L71.5469 23.7031 L71.5469 20.7031 L72.5312 20.7031 L72.5312 28 L71.5469 28 L71.5469 24.5312 L67.9688 24.5312 L67.9688 28 L66.9844 28 L66.9844 20.7031 ZM76.582 23.1562 Q75.8633 23.1562 75.4414 23.7188 Q75.0195 24.2812 75.0195 25.2656 Q75.0195 26.25 75.4336 26.8125 Q75.8477 27.375 76.582 27.375 Q77.3008 27.375 77.7227 26.8125 Q78.1445 26.25 78.1445 25.2656 Q78.1445 24.2969 77.7227 23.7266 Q77.3008 23.1562 76.582 23.1562 ZM76.582 22.4062 Q77.7539 22.4062 78.4258 23.1641 Q79.0977 23.9219 79.0977 25.2656 Q79.0977 26.6094 78.4258 27.375 Q77.7539 28.1406 76.582 28.1406 Q75.4102 28.1406 74.7383 27.375 Q74.0664 26.6094 74.0664 25.2656 Q74.0664 23.9219 74.7383 23.1641 Q75.4102 22.4062 76.582 22.4062 ZM84.8408 23.5781 Q85.1689 22.9688 85.6377 22.6875 Q86.1064 22.4062 86.7471 22.4062 Q87.6064 22.4062 88.0674 23 Q88.5283 23.5938 88.5283 24.7031 L88.5283 28 L87.6221 28 L87.6221 24.7344 Q87.6221 23.9375 87.3486 23.5625 Q87.0752 23.1875 86.4971 23.1875 Q85.7939 23.1875 85.3955 23.6484 Q84.9971 24.1094 84.9971 24.9062 L84.9971 28 L84.0908 28 L84.0908 24.7344 Q84.0908 23.9375 83.8096 23.5625 Q83.5283 23.1875 82.9502 23.1875 Q82.2627 23.1875 81.8564 23.6484 Q81.4502 24.1094 81.4502 24.9062 L81.4502 28 L80.5439 28 L80.5439 22.5312 L81.4502 22.5312 L81.4502 23.375 Q81.7627 22.875 82.1924 22.6406 Q82.6221 22.4062 83.2002 22.4062 Q83.8096 22.4062 84.2236 22.7031 Q84.6377 23 84.8408 23.5781 ZM92.4414 23.1562 Q91.7227 23.1562 91.3008 23.7188 Q90.8789 24.2812 90.8789 25.2656 Q90.8789 26.25 91.293 26.8125 Q91.707 27.375 92.4414 27.375 Q93.1602 27.375 93.582 26.8125 Q94.0039 26.25 94.0039 25.2656 Q94.0039 24.2969 93.582 23.7266 Q93.1602 23.1562 92.4414 23.1562 ZM92.4414 22.4062 Q93.6133 22.4062 94.2852 23.1641 Q94.957 23.9219 94.957 25.2656 Q94.957 26.6094 94.2852 27.375 Q93.6133 28.1406 92.4414 28.1406 Q91.2695 28.1406 90.5977 27.375 Q89.9258 26.6094 89.9258 25.2656 Q89.9258 23.9219 90.5977 23.1641 Q91.2695 22.4062 92.4414 22.4062 ZM103.0977 22.6875 L103.0977 23.5469 Q102.7227 23.3438 102.3164 23.25 Q101.9102 23.1562 101.457 23.1562 Q100.8008 23.1562 100.4648 23.3594 Q100.1289 23.5625 100.1289 23.9688 Q100.1289 24.2812 100.3633 24.4609 Q100.5977 24.6406 101.332 24.7969 L101.6289 24.875 Q102.5977 25.0781 102.9961 25.4531 Q103.3945 25.8281 103.3945 26.4844 Q103.3945 27.25 102.793 27.6953 Q102.1914 28.1406 101.1445 28.1406 Q100.6914 28.1406 100.2148 28.0547 Q99.7383 27.9688 99.2227 27.7969 L99.2227 26.875 Q99.7227 27.125 100.1992 27.2578 Q100.6758 27.3906 101.1602 27.3906 Q101.7852 27.3906 102.1289 27.1719 Q102.4727 26.9531 102.4727 26.5625 Q102.4727 26.1875 102.2305 25.9922 Q101.9883 25.7969 101.1445 25.625 L100.832 25.5469 Q100.0039 25.375 99.6289 25.0078 Q99.2539 24.6406 99.2539 24.0156 Q99.2539 23.2344 99.8008 22.8203 Q100.3477 22.4062 101.3633 22.4062 Q101.8477 22.4062 102.293 22.4766 Q102.7383 22.5469 103.0977 22.6875 ZM107.3076 25.25 Q106.2295 25.25 105.8076 25.5 Q105.3857 25.75 105.3857 26.3438 Q105.3857 26.8281 105.6982 27.1094 Q106.0107 27.3906 106.5576 27.3906 Q107.3076 27.3906 107.7607 26.8594 Q108.2139 26.3281 108.2139 25.4531 L108.2139 25.25 L107.3076 25.25 ZM109.1045 24.875 L109.1045 28 L108.2139 28 L108.2139 27.1719 Q107.9014 27.6719 107.4404 27.9062 Q106.9795 28.1406 106.3232 28.1406 Q105.4795 28.1406 104.9795 27.6719 Q104.4795 27.2031 104.4795 26.4062 Q104.4795 25.4844 105.1045 25.0156 Q105.7295 24.5469 106.9482 24.5469 L108.2139 24.5469 L108.2139 24.4531 Q108.2139 23.8438 107.7998 23.5 Q107.3857 23.1562 106.6514 23.1562 Q106.1826 23.1562 105.7373 23.2734 Q105.292 23.3906 104.8857 23.6094 L104.8857 22.7812 Q105.3857 22.5938 105.8467 22.5 Q106.3076 22.4062 106.7451 22.4062 Q107.9326 22.4062 108.5186 23.0156 Q109.1045 23.625 109.1045 24.875 ZM111.8262 27.1719 L111.8262 30.0781 L110.9199 30.0781 L110.9199 22.5312 L111.8262 22.5312 L111.8262 23.3594 Q112.1074 22.875 112.5371 22.6406 Q112.9668 22.4062 113.5762 22.4062 Q114.5762 22.4062 115.1934 23.1953 Q115.8105 23.9844 115.8105 25.2656 Q115.8105 26.5625 115.1934 27.3516 Q114.5762 28.1406 113.5762 28.1406 Q112.9668 28.1406 112.5371 27.9062 Q112.1074 27.6719 111.8262 27.1719 ZM114.8887 25.2656 Q114.8887 24.2812 114.4746 23.7188 Q114.0605 23.1562 113.3574 23.1562 Q112.6387 23.1562 112.2324 23.7188 Q111.8262 24.2812 111.8262 25.2656 Q111.8262 26.2656 112.2324 26.8281 Q112.6387 27.3906 113.3574 27.3906 Q114.0605 27.3906 114.4746 26.8281 Q114.8887 26.2656 114.8887 25.2656 ZM117.2988 22.5312 L118.2051 22.5312 L118.2051 28 L117.2988 28 L117.2988 22.5312 ZM117.2988 20.4062 L118.2051 20.4062 L118.2051 21.5469 L117.2988 21.5469 L117.2988 20.4062 ZM124.7646 25.0469 L124.7646 25.4844 L120.624 25.4844 Q120.6865 26.4062 121.1865 26.8906 Q121.6865 27.375 122.5771 27.375 Q123.0928 27.375 123.585 27.25 Q124.0771 27.125 124.5459 26.875 L124.5459 27.7188 Q124.0615 27.9219 123.5537 28.0312 Q123.0459 28.1406 122.5303 28.1406 Q121.2178 28.1406 120.4521 27.3828 Q119.6865 26.625 119.6865 25.3125 Q119.6865 23.9688 120.4131 23.1875 Q121.1396 22.4062 122.374 22.4062 Q123.4834 22.4062 124.124 23.1094 Q124.7646 23.8125 124.7646 25.0469 ZM123.8584 24.7812 Q123.8584 24.0469 123.4521 23.6016 Q123.0459 23.1562 122.3896 23.1562 Q121.624 23.1562 121.1787 23.5859 Q120.7334 24.0156 120.6553 24.7812 L123.8584 24.7812 ZM130.7764 24.7031 L130.7764 28 L129.8857 28 L129.8857 24.7344 Q129.8857 23.9531 129.5811 23.5703 Q129.2764 23.1875 128.667 23.1875 Q127.9482 23.1875 127.5264 23.6484 Q127.1045 24.1094 127.1045 24.9062 L127.1045 28 L126.1982 28 L126.1982 22.5312 L127.1045 22.5312 L127.1045 23.375 Q127.4326 22.8906 127.8701 22.6484 Q128.3076 22.4062 128.8701 22.4062 Q129.8076 22.4062 130.292 22.9844 Q130.7764 23.5625 130.7764 24.7031 ZM136.0518 22.6875 L136.0518 23.5469 Q135.6768 23.3438 135.2705 23.25 Q134.8643 23.1562 134.4111 23.1562 Q133.7549 23.1562 133.4189 23.3594 Q133.083 23.5625 133.083 23.9688 Q133.083 24.2812 133.3174 24.4609 Q133.5518 24.6406 134.2861 24.7969 L134.583 24.875 Q135.5518 25.0781 135.9502 25.4531 Q136.3486 25.8281 136.3486 26.4844 Q136.3486 27.25 135.7471 27.6953 Q135.1455 28.1406 134.0986 28.1406 Q133.6455 28.1406 133.1689 28.0547 Q132.6924 27.9688 132.1768 27.7969 L132.1768 26.875 Q132.6768 27.125 133.1533 27.2578 Q133.6299 27.3906 134.1143 27.3906 Q134.7393 27.3906 135.083 27.1719 Q135.4268 26.9531 135.4268 26.5625 Q135.4268 26.1875 135.1846 25.9922 Q134.9424 25.7969 134.0986 25.625 L133.7861 25.5469 Q132.958 25.375 132.583 25.0078 Q132.208 24.6406 132.208 24.0156 Q132.208 23.2344 132.7549 22.8203 Q133.3018 22.4062 134.3174 22.4062 Q134.8018 22.4062 135.2471 22.4766 Q135.6924 22.5469 136.0518 22.6875 Z"
         style="clip-path:url(#clipPath2); stroke:none;"
         clip-path="url(#clipPath2)"
         id="path218" />
    </g>
    <g
       style="fill:rgb(180,180,100); text-rendering:geometricPrecision; fill-opacity:0.098; stroke-opacity:0.098; stroke:rgb(180,180,100);"
       id="g224">
      <path
         d="M656.0055 239.6128 L743.0055 239.6128 L761.0055 257.6128 L761.0055 304.6128 L743.0055 322.6128 L656.0055 322.6128 L638.0055 304.6128 L638.0055 257.6128 Z"
         style="clip-path:url(#clipPath3); stroke:none;"
         clip-path="url(#clipPath3)"
         id="path222" />
    </g>
    <g
       style="fill:gray; text-rendering:geometricPrecision; stroke:gray;"
       id="g228">
      <path
         d="M656.0055 239.6128 L743.0055 239.6128 L761.0055 257.6128 L761.0055 304.6128 L743.0055 322.6128 L656.0055 322.6128 L638.0055 304.6128 L638.0055 257.6128 Z"
         style="fill:none; clip-path:url(#clipPath3);"
         clip-path="url(#clipPath3)"
         id="path226" />
    </g>
    <g
       style="fill:rgb(180,180,100); text-rendering:geometricPrecision; fill-opacity:0.098; stroke-opacity:0.098; stroke:rgb(180,180,100);"
       id="g232">
      <path
         d="M307.5 255.5 L419.5 255.5 L437.5 273.5 L437.5 312.5 L419.5 330.5 L307.5 330.5 L289.5 312.5 L289.5 273.5 Z"
         style="clip-path:url(#clipPath4); stroke:none;"
         clip-path="url(#clipPath4)"
         id="path230" />
    </g>
    <g
       style="fill:gray; text-rendering:geometricPrecision; stroke:gray;"
       id="g236">
      <path
         d="M307.5 255.5 L419.5 255.5 L437.5 273.5 L437.5 312.5 L419.5 330.5 L307.5 330.5 L289.5 312.5 L289.5 273.5 Z"
         style="fill:none; clip-path:url(#clipPath4);"
         clip-path="url(#clipPath4)"
         id="path234" />
    </g>
    <g
       style="text-rendering:geometricPrecision;"
       id="g244">
      <path
         d="M558.0279 146.6118 L558.0075 173.6118"
         style="fill:none; clip-path:url(#clipPath5);"
         clip-path="url(#clipPath5)"
         id="path238" />
      <path
         d="M557.9997 184.0118 C555.1278 184.0096 552.8015 181.6797 552.8036 178.8079 C552.8058 175.936 555.1357 173.6096 558.0075 173.6118 C560.8794 173.614 563.2058 175.9438 563.2036 178.8157 C563.2015 181.6876 560.8716 184.014 557.9997 184.0118 Z"
         style="fill:white; clip-path:url(#clipPath5); stroke:none;"
         clip-path="url(#clipPath5)"
         id="path240" />
      <path
         d="M557.9997 184.0118 C555.1278 184.0096 552.8015 181.6797 552.8036 178.8079 C552.8058 175.936 555.1357 173.6096 558.0075 173.6118 C560.8794 173.614 563.2058 175.9438 563.2036 178.8157 C563.2015 181.6876 560.8716 184.014 557.9997 184.0118 Z"
         style="fill:none; clip-path:url(#clipPath5);"
         clip-path="url(#clipPath5)"
         id="path242" />
    </g>
    <g
       style="text-rendering:geometricPrecision;"
       id="g250">
      <path
         d="M637.5055 392.6363 L509.569 392.6363"
         style="fill:none; clip-path:url(#clipPath6);"
         clip-path="url(#clipPath6)"
         id="path246" />
      <path
         d="M509.569 392.6363 L521.269 397.8363 L514.769 392.6363 L521.269 387.4363 Z"
         style="clip-path:url(#clipPath6); stroke:none;"
         clip-path="url(#clipPath6)"
         id="path248" />
    </g>
    <g
       style="text-rendering:geometricPrecision;"
       id="g258">
      <path
         d="M655.0055 480.3746 L518.569 480.3746"
         style="fill:none; clip-path:url(#clipPath7);"
         clip-path="url(#clipPath7)"
         id="path252" />
      <path
         d="M518.569 485.5746 L506.869 480.3746 L518.569 475.1746 Z"
         style="fill:white; clip-path:url(#clipPath7); stroke:none;"
         clip-path="url(#clipPath7)"
         id="path254" />
      <path
         d="M518.569 485.5746 L506.869 480.3746 L518.569 475.1746 Z"
         style="fill:none; clip-path:url(#clipPath7);"
         clip-path="url(#clipPath7)"
         id="path256" />
    </g>
    <g
       style="text-rendering:geometricPrecision;"
       id="g264">
      <path
         d="M668.7555 382.6363 L669.0055 323.6128"
         style="fill:none; clip-path:url(#clipPath8);"
         clip-path="url(#clipPath8)"
         id="path260" />
      <path
         d="M669.0055 323.6128 L663.756 335.2907 L668.9835 328.8127 L674.1559 335.3347 Z"
         style="clip-path:url(#clipPath8); stroke:none;"
         clip-path="url(#clipPath8)"
         id="path262" />
    </g>
    <g
       style="text-rendering:geometricPrecision;"
       id="g270">
      <path
         d="M289.5 293.5 L240.569 293.5645"
         style="fill:none; clip-path:url(#clipPath9);"
         clip-path="url(#clipPath9)"
         id="path266" />
      <path
         d="M240.569 293.5645 L252.2759 298.7491 L245.769 293.5576 L252.2622 288.3491 Z"
         style="clip-path:url(#clipPath9); stroke:none;"
         clip-path="url(#clipPath9)"
         id="path268" />
    </g>
    <g
       style="text-rendering:geometricPrecision;"
       id="g276">
      <path
         d="M459.569 382.6363 L459.569 193.6118"
         style="fill:none; clip-path:url(#clipPath10);"
         clip-path="url(#clipPath10)"
         id="path272" />
      <path
         d="M459.569 193.6118 L454.369 205.3118 L459.569 198.8118 L464.769 205.3118 Z"
         style="clip-path:url(#clipPath10); stroke:none;"
         clip-path="url(#clipPath10)"
         id="path274" />
    </g>
    <g
       style="text-rendering:geometricPrecision;"
       id="g282">
      <path
         d="M401.25 255.5 L409.569 188.6118"
         style="fill:none; clip-path:url(#clipPath11);"
         clip-path="url(#clipPath11)"
         id="path278" />
      <path
         d="M409.569 188.6118 L402.9648 199.5806 L408.9272 193.772 L413.2852 200.8641 Z"
         style="clip-path:url(#clipPath11); stroke:none;"
         clip-path="url(#clipPath11)"
         id="path280" />
    </g>
    <g
       style="text-rendering:geometricPrecision;"
       id="g290">
      <path
         d="M668.7555 402.6363 L517.7549 471.6341"
         style="fill:none; clip-path:url(#clipPath12);"
         clip-path="url(#clipPath12)"
         id="path284" />
      <path
         d="M519.9161 476.3638 L507.1133 476.4967 L515.5938 466.9045 Z"
         style="fill:white; clip-path:url(#clipPath12); stroke:none;"
         clip-path="url(#clipPath12)"
         id="path286" />
      <path
         d="M519.9161 476.3638 L507.1133 476.4967 L515.5938 466.9045 Z"
         style="fill:none; clip-path:url(#clipPath12);"
         clip-path="url(#clipPath12)"
         id="path288" />
    </g>
    <g
       style="text-rendering:geometricPrecision;"
       id="g296">
      <path
         d="M459.569 490.3746 L459.569 551.5281"
         style="fill:none; clip-path:url(#clipPath13);"
         clip-path="url(#clipPath13)"
         id="path292" />
      <path
         d="M459.569 551.5281 L464.769 539.8281 L459.569 546.3281 L454.369 539.8281 Z"
         style="clip-path:url(#clipPath13); stroke:none;"
         clip-path="url(#clipPath13)"
         id="path294" />
    </g>
    <g
       style="text-rendering:geometricPrecision;"
       id="g302">
      <path
         d="M240.569 73.6498 L409.569 73.6498"
         style="fill:none; clip-path:url(#clipPath14);"
         clip-path="url(#clipPath14)"
         id="path298" />
      <path
         d="M409.569 73.6498 L397.869 68.4498 L404.369 73.6498 L397.869 78.8498 Z"
         style="clip-path:url(#clipPath14); stroke:none;"
         clip-path="url(#clipPath14)"
         id="path300" />
    </g>
    <g
       style="text-rendering:geometricPrecision;"
       id="g308">
      <path
         d="M558 183.6118 L691.2963 148.881"
         style="fill:none; clip-path:url(#clipPath15);"
         clip-path="url(#clipPath15)"
         id="path304" />
      <path
         d="M689.9852 143.849 L702.6183 145.931 L692.6074 153.913 Z"
         style="clip-path:url(#clipPath15); stroke:none;"
         clip-path="url(#clipPath15)"
         id="path306" />
    </g>
    <g
       style="text-rendering:geometricPrecision;"
       id="g314">
      <path
         d="M677.5055 467.8746 L509.569 397.6363"
         style="fill:none; clip-path:url(#clipPath16);"
         clip-path="url(#clipPath16)"
         id="path310" />
      <path
         d="M509.569 397.6363 L518.3566 406.9481 L514.3663 399.6427 L522.3694 397.3535 Z"
         style="clip-path:url(#clipPath16); stroke:none;"
         clip-path="url(#clipPath16)"
         id="path312" />
    </g>
    <g
       style="text-rendering:geometricPrecision;"
       id="g320">
      <path
         d="M215.569 283.5645 L409.569 183.6118"
         style="fill:none; clip-path:url(#clipPath17);"
         clip-path="url(#clipPath17)"
         id="path316" />
      <path
         d="M409.569 183.6118 L396.7867 184.3479 L404.9465 185.9934 L401.55 193.593 Z"
         style="clip-path:url(#clipPath17); stroke:none;"
         clip-path="url(#clipPath17)"
         id="path318" />
    </g>
    <g
       style="text-rendering:geometricPrecision;"
       id="g326">
      <path
         d="M459.569 88.6498 L459.569 160.6118"
         style="fill:none; clip-path:url(#clipPath18);"
         clip-path="url(#clipPath18)"
         id="path322" />
      <path
         d="M459.569 155.4118 L449.169 155.4118 L449.169 165.8118 L443.969 165.8118 L449.169 177.5118 L454.369 165.8118 L449.169 165.8118"
         style="fill:none; clip-path:url(#clipPath18);"
         clip-path="url(#clipPath18)"
         id="path324" />
    </g>
    <g
       style="text-rendering:geometricPrecision;"
       id="g332">
      <path
         d="M382 142.25 L434.569 173.6118"
         style="fill:none; clip-path:url(#clipPath19);"
         clip-path="url(#clipPath19)"
         id="path328" />
      <path
         d="M434.569 173.6118 L427.1854 163.1518 L421.8571 172.0831 Z"
         style="clip-path:url(#clipPath19); fill-rule:evenodd; stroke:none;"
         clip-path="url(#clipPath19)"
         id="path330" />
    </g>
    <g
       style="text-rendering:geometricPrecision;"
       id="g338">
      <path
         d="M509.569 183.6118 L690.0055 183.6118"
         style="fill:none; clip-path:url(#clipPath20);"
         clip-path="url(#clipPath20)"
         id="path334" />
      <path
         d="M690.0055 178.4118 L701.7055 183.6118 L690.0055 188.8118 Z"
         style="clip-path:url(#clipPath20); stroke:none;"
         clip-path="url(#clipPath20)"
         id="path336" />
    </g>
    <g
       style="text-rendering:geometricPrecision;"
       id="g346">
      <path
         d="M401.25 331.5 L429.6558 375.0957"
         style="fill:none; clip-path:url(#clipPath21);"
         clip-path="url(#clipPath21)"
         id="path340" />
      <path
         d="M434.0126 372.257 L436.043 384.8985 L425.299 377.9345 Z"
         style="fill:white; clip-path:url(#clipPath21); stroke:none;"
         clip-path="url(#clipPath21)"
         id="path342" />
      <path
         d="M434.0126 372.257 L436.043 384.8985 L425.299 377.9345 Z"
         style="fill:none; clip-path:url(#clipPath21);"
         clip-path="url(#clipPath21)"
         id="path344" />
    </g>
    <g
       style="text-rendering:geometricPrecision;"
       id="g352">
      <path
         d="M409.569 392.6363 L190.569 303.5645"
         style="fill:none; clip-path:url(#clipPath22);"
         clip-path="url(#clipPath22)"
         id="path348" />
      <path
         d="M190.569 303.5645 L199.4478 312.7893 L195.3859 305.5236 L203.366 303.1556 Z"
         style="clip-path:url(#clipPath22); stroke:none;"
         clip-path="url(#clipPath22)"
         id="path350" />
    </g>
    <g
       style="text-rendering:geometricPrecision;"
       id="g358">
      <path
         d="M459.569 470.3746 L459.569 402.6363"
         style="fill:none; clip-path:url(#clipPath23);"
         clip-path="url(#clipPath23)"
         id="path354" />
      <path
         d="M459.569 402.6363 L454.369 414.3363 L459.569 407.8363 L464.769 414.3363 Z"
         style="clip-path:url(#clipPath23); stroke:none;"
         clip-path="url(#clipPath23)"
         id="path356" />
    </g>
    <g
       style="text-rendering:geometricPrecision;"
       id="g364">
      <path
         d="M731.0055 323.6128 L731.2555 382.6363"
         style="fill:none; clip-path:url(#clipPath24);"
         clip-path="url(#clipPath24)"
         id="path360" />
      <path
         d="M731.2555 382.6363 L736.4059 370.9144 L731.2335 377.4363 L726.006 370.9584 Z"
         style="clip-path:url(#clipPath24); stroke:none;"
         clip-path="url(#clipPath24)"
         id="path362" />
    </g>
    <g
       style="text-rendering:geometricPrecision;"
       id="g372">
      <path
         d="M700.0055 467.8746 L700.0055 411.6363"
         style="fill:none; clip-path:url(#clipPath25);"
         clip-path="url(#clipPath25)"
         id="path366" />
      <path
         d="M694.8055 411.6363 L700.0055 399.9363 L705.2055 411.6363 Z"
         style="fill:white; clip-path:url(#clipPath25); stroke:none;"
         clip-path="url(#clipPath25)"
         id="path368" />
      <path
         d="M694.8055 411.6363 L700.0055 399.9363 L705.2055 411.6363 Z"
         style="fill:none; clip-path:url(#clipPath25);"
         clip-path="url(#clipPath25)"
         id="path370" />
    </g>
    <g
       style="text-rendering:geometricPrecision;"
       id="g378">
      <path
         d="M700.0055 239.6128 L665 183.6118"
         style="fill:none; clip-path:url(#clipPath26);"
         clip-path="url(#clipPath26)"
         id="path374" />
      <path
         d="M665 183.6118 L666.7922 196.2893 L667.7563 188.0212 L675.611 190.7767 Z"
         style="clip-path:url(#clipPath26); stroke:none;"
         clip-path="url(#clipPath26)"
         id="path376" />
    </g>
    <g
       style="fill:navy; text-rendering:geometricPrecision; font-size:8; stroke:navy;"
       id="g382">
      <text
         x="452"
         xml:space="preserve"
         y="145"
         style="clip-path:url(#clipPath28); stroke:none;"
         clip-path="url(#clipPath28)"
         id="text380">7</text>
    </g>
    <g
       style="fill:navy; text-rendering:geometricPrecision; font-size:8; stroke:navy;"
       id="g386">
      <text
         x="351"
         xml:space="preserve"
         y="70"
         style="clip-path:url(#clipPath30); stroke:none;"
         clip-path="url(#clipPath30)"
         id="text384">2</text>
    </g>
    <g
       style="fill:navy; text-rendering:geometricPrecision; font-size:8; stroke:navy;"
       id="g390">
      <text
         x="452"
         xml:space="preserve"
         y="530"
         style="clip-path:url(#clipPath32); stroke:none;"
         clip-path="url(#clipPath32)"
         id="text388">5</text>
    </g>
    <g
       style="fill:navy; text-rendering:geometricPrecision; font-size:8; stroke:navy;"
       id="g394">
      <text
         x="634"
         xml:space="preserve"
         y="180"
         style="clip-path:url(#clipPath34); stroke:none;"
         clip-path="url(#clipPath34)"
         id="text392">3</text>
    </g>
    <g
       style="fill:navy; text-rendering:geometricPrecision; font-size:8; stroke:navy;"
       id="g398">
      <text
         x="550"
         xml:space="preserve"
         y="169"
         style="clip-path:url(#clipPath36); stroke:none;"
         clip-path="url(#clipPath36)"
         id="text396">8</text>
    </g>
    <g
       style="fill:navy; text-rendering:geometricPrecision; font-size:8; stroke:navy;"
       id="g402">
      <text
         x="343"
         xml:space="preserve"
         y="210"
         style="clip-path:url(#clipPath38); stroke:none;"
         clip-path="url(#clipPath38)"
         id="text400">1</text>
    </g>
    <g
       style="fill:navy; text-rendering:geometricPrecision; font-size:8; stroke:navy;"
       id="g406">
      <text
         x="667"
         xml:space="preserve"
         y="197"
         style="clip-path:url(#clipPath40); stroke:none;"
         clip-path="url(#clipPath40)"
         id="text404">6</text>
    </g>
    <g
       style="fill:navy; text-rendering:geometricPrecision; font-size:8; stroke:navy;"
       id="g410">
      <text
         x="452"
         xml:space="preserve"
         y="247"
         style="clip-path:url(#clipPath42); stroke:none;"
         clip-path="url(#clipPath42)"
         id="text408">5</text>
    </g>
    <g
       style="fill:navy; text-rendering:geometricPrecision; font-size:8; stroke:navy;"
       id="g414">
      <text
         x="540"
         xml:space="preserve"
         y="389"
         style="clip-path:url(#clipPath44); stroke:none;"
         clip-path="url(#clipPath44)"
         id="text412">4</text>
    </g>
    <g
       style="fill:navy; text-rendering:geometricPrecision; font-size:8; stroke:navy;"
       id="g418">
      <text
         x="452"
         xml:space="preserve"
         y="420"
         style="clip-path:url(#clipPath46); stroke:none;"
         clip-path="url(#clipPath46)"
         id="text416">4</text>
    </g>
    <g
       style="fill:navy; text-rendering:geometricPrecision; font-size:8; stroke:navy;"
       id="g422">
      <text
         x="248"
         xml:space="preserve"
         y="327"
         style="clip-path:url(#clipPath48); stroke:none;"
         clip-path="url(#clipPath48)"
         id="text420">4</text>
    </g>
    <g
       style="fill:navy; text-rendering:geometricPrecision; font-size:8; stroke:navy;"
       id="g426">
      <text
         x="552"
         xml:space="preserve"
         y="415"
         style="clip-path:url(#clipPath50); stroke:none;"
         clip-path="url(#clipPath50)"
         id="text424">4</text>
    </g>
    <g
       style="fill:white; text-rendering:geometricPrecision; stroke:white;"
       id="g434">
      <path
         d="M409.569 382.6363 L509.569 382.6363 L509.569 402.6363 L409.569 402.6363 L409.569 382.6363 Z"
         style="clip-path:url(#clipPath51); stroke:none;"
         clip-path="url(#clipPath51)"
         id="path428" />
      <path
         d="M409.569 382.6363 L509.569 382.6363 L509.569 402.6363 L409.569 402.6363 L409.569 382.6363 Z"
         style="fill:none; clip-path:url(#clipPath51); stroke:black;"
         clip-path="url(#clipPath51)"
         id="path430" />
      <text
         x="441"
         y="397"
         style="fill:black; clip-path:url(#clipPath51); stroke:none;"
         xml:space="preserve"
         clip-path="url(#clipPath51)"
         id="text432">Anillin</text>
    </g>
    <g
       style="fill:white; text-rendering:geometricPrecision; stroke:white;"
       id="g442">
      <path
         d="M301.5 267.5 L426.5 267.5 L426.5 293 L301.5 293 L301.5 267.5 Z"
         style="clip-path:url(#clipPath52); stroke:none;"
         clip-path="url(#clipPath52)"
         id="path436" />
      <path
         d="M301.5 267.5 L426.5 267.5 L426.5 293 L301.5 293 L301.5 267.5 Z"
         style="fill:none; clip-path:url(#clipPath52); stroke:black;"
         clip-path="url(#clipPath52)"
         id="path438" />
      <text
         x="348"
         y="284"
         style="fill:black; clip-path:url(#clipPath52); stroke:none;"
         xml:space="preserve"
         clip-path="url(#clipPath52)"
         id="text440">KIF23</text>
    </g>
    <g
       style="fill:white; text-rendering:geometricPrecision; stroke:white;"
       id="g450">
      <path
         d="M650.0055 126.6118 L750.0055 126.6118 L750.0055 146.6118 L650.0055 146.6118 L650.0055 126.6118 Z"
         style="clip-path:url(#clipPath53); stroke:none;"
         clip-path="url(#clipPath53)"
         id="path444" />
      <path
         d="M650.0055 126.6118 L750.0055 126.6118 L750.0055 146.6118 L650.0055 146.6118 L650.0055 126.6118 Z"
         style="fill:none; clip-path:url(#clipPath53); stroke:blue;"
         clip-path="url(#clipPath53)"
         id="path446" />
      <text
         x="673"
         y="141"
         style="fill:blue; clip-path:url(#clipPath53); stroke:none;"
         xml:space="preserve"
         clip-path="url(#clipPath53)"
         id="text448">CDP-DAG</text>
    </g>
    <g
       style="fill:white; text-rendering:geometricPrecision; stroke:white;"
       id="g458">
      <path
         d="M301.5 294.5 L426.5 294.5 L426.5 319.5 L301.5 319.5 L301.5 294.5 Z"
         style="clip-path:url(#clipPath54); stroke:none;"
         clip-path="url(#clipPath54)"
         id="path452" />
      <path
         d="M301.5 294.5 L426.5 294.5 L426.5 319.5 L301.5 319.5 L301.5 294.5 Z"
         style="fill:none; clip-path:url(#clipPath54); stroke:black;"
         clip-path="url(#clipPath54)"
         id="path454" />
      <text
         x="336"
         y="311"
         style="fill:black; clip-path:url(#clipPath54); stroke:none;"
         xml:space="preserve"
         clip-path="url(#clipPath54)"
         id="text456">RACGAP1</text>
    </g>
    <g
       style="fill:white; text-rendering:geometricPrecision; stroke:white;"
       id="g466">
      <path
         d="M650.0055 291.6128 L750.0055 291.6128 L750.0055 311.6128 L650.0055 311.6128 L650.0055 291.6128 Z"
         style="clip-path:url(#clipPath55); stroke:none;"
         clip-path="url(#clipPath55)"
         id="path460" />
      <path
         d="M650.0055 291.6128 L750.0055 291.6128 L750.0055 311.6128 L650.0055 311.6128 L650.0055 291.6128 Z"
         style="fill:none; clip-path:url(#clipPath55); stroke:black;"
         clip-path="url(#clipPath55)"
         id="path462" />
      <text
         x="679"
         y="306"
         style="fill:black; clip-path:url(#clipPath55); stroke:none;"
         xml:space="preserve"
         clip-path="url(#clipPath55)"
         id="text464">Moesin</text>
    </g>
    <g
       style="fill:white; text-rendering:geometricPrecision; stroke:white;"
       id="g474">
      <path
         d="M650.0055 271.6128 L750.0055 271.6128 L750.0055 291.6128 L650.0055 291.6128 L650.0055 271.6128 Z"
         style="clip-path:url(#clipPath56); stroke:none;"
         clip-path="url(#clipPath56)"
         id="path468" />
      <path
         d="M650.0055 271.6128 L750.0055 271.6128 L750.0055 291.6128 L650.0055 291.6128 L650.0055 271.6128 Z"
         style="fill:none; clip-path:url(#clipPath56); stroke:black;"
         clip-path="url(#clipPath56)"
         id="path470" />
      <text
         x="678"
         y="286"
         style="fill:black; clip-path:url(#clipPath56); stroke:none;"
         xml:space="preserve"
         clip-path="url(#clipPath56)"
         id="text472">Radixin</text>
    </g>
    <g
       style="fill:white; text-rendering:geometricPrecision; stroke:white;"
       id="g482">
      <path
         d="M409.569 68.6498 L509.569 68.6498 L509.569 88.6498 L409.569 88.6498 L409.569 68.6498 Z"
         style="clip-path:url(#clipPath57); stroke:none;"
         clip-path="url(#clipPath57)"
         id="path476" />
      <path
         d="M409.569 68.6498 L509.569 68.6498 L509.569 88.6498 L409.569 88.6498 L409.569 68.6498 Z"
         style="fill:none; clip-path:url(#clipPath57); stroke:black;"
         clip-path="url(#clipPath57)"
         id="path478" />
      <text
         x="439"
         y="83"
         style="fill:black; clip-path:url(#clipPath57); stroke:none;"
         xml:space="preserve"
         clip-path="url(#clipPath57)"
         id="text480">OCLR1</text>
    </g>
    <g
       style="fill:white; text-rendering:geometricPrecision; stroke:white;"
       id="g490">
      <path
         d="M699.0055 173.6118 L799.0055 173.6118 L799.0055 193.6118 L699.0055 193.6118 L699.0055 173.6118 Z"
         style="clip-path:url(#clipPath58); stroke:none;"
         clip-path="url(#clipPath58)"
         id="path484" />
      <path
         d="M699.0055 173.6118 L799.0055 173.6118 L799.0055 193.6118 L699.0055 193.6118 L699.0055 173.6118 Z"
         style="fill:none; clip-path:url(#clipPath58); stroke:blue;"
         clip-path="url(#clipPath58)"
         id="path486" />
      <text
         x="704"
         y="188"
         style="fill:blue; clip-path:url(#clipPath58); stroke:none;"
         xml:space="preserve"
         clip-path="url(#clipPath58)"
         id="text488">PtdIns(3,4,5)P3</text>
    </g>
    <g
       style="fill:white; text-rendering:geometricPrecision; stroke:white;"
       id="g498">
      <path
         d="M650.0055 251.6128 L750.0055 251.6128 L750.0055 271.6128 L650.0055 271.6128 L650.0055 251.6128 Z"
         style="clip-path:url(#clipPath59); stroke:none;"
         clip-path="url(#clipPath59)"
         id="path492" />
      <path
         d="M650.0055 251.6128 L750.0055 251.6128 L750.0055 271.6128 L650.0055 271.6128 L650.0055 251.6128 Z"
         style="fill:none; clip-path:url(#clipPath59); stroke:black;"
         clip-path="url(#clipPath59)"
         id="path494" />
      <text
         x="686"
         y="266"
         style="fill:black; clip-path:url(#clipPath59); stroke:none;"
         xml:space="preserve"
         clip-path="url(#clipPath59)"
         id="text496">Ezrin</text>
    </g>
    <g
       style="fill:white; text-rendering:geometricPrecision; stroke:white;"
       id="g506">
      <path
         d="M637.5055 382.6363 L762.5055 382.6363 L762.5055 402.6363 L637.5055 402.6363 L637.5055 382.6363 Z"
         style="clip-path:url(#clipPath60); stroke:none;"
         clip-path="url(#clipPath60)"
         id="path500" />
      <path
         d="M637.5055 382.6363 L762.5055 382.6363 L762.5055 402.6363 L637.5055 402.6363 L637.5055 382.6363 Z"
         style="fill:none; clip-path:url(#clipPath60); stroke:black;"
         clip-path="url(#clipPath60)"
         id="path502" />
      <text
         x="681"
         y="397"
         style="fill:black; clip-path:url(#clipPath60); stroke:none;"
         xml:space="preserve"
         clip-path="url(#clipPath60)"
         id="text504">AFAP1</text>
    </g>
    <g
       style="fill:white; text-rendering:geometricPrecision; stroke:white;"
       id="g514">
      <path
         d="M140.569 283.5645 L240.569 283.5645 L240.569 303.5645 L140.569 303.5645 L140.569 283.5645 Z"
         style="clip-path:url(#clipPath61); stroke:none;"
         clip-path="url(#clipPath61)"
         id="path508" />
      <path
         d="M140.569 283.5645 L240.569 283.5645 L240.569 303.5645 L140.569 303.5645 L140.569 283.5645 Z"
         style="fill:none; clip-path:url(#clipPath61); stroke:black;"
         clip-path="url(#clipPath61)"
         id="path510" />
      <text
         x="175"
         y="298"
         style="fill:black; clip-path:url(#clipPath61); stroke:none;"
         xml:space="preserve"
         clip-path="url(#clipPath61)"
         id="text512">RhoA</text>
    </g>
    <g
       style="fill:white; text-rendering:geometricPrecision; stroke:white;"
       id="g522">
      <path
         d="M144 132 L144 152.5 C144 158.0228 148.4772 162.5 154 162.5 L372 162.5 C377.5229 162.5 382 158.0228 382 152.5 L382 132 C382 126.4771 377.5229 122 372 122 L154 122 C148.4772 122 144 126.4771 144 132 Z"
         style="clip-path:url(#clipPath62); stroke:none;"
         clip-path="url(#clipPath62)"
         id="path516" />
      <path
         d="M144 132 L144 152.5 C144 158.0228 148.4772 162.5 154 162.5 L372 162.5 C377.5229 162.5 382 158.0228 382 152.5 L382 132 C382 126.4771 377.5229 122 372 122 L154 122 C148.4772 122 144 126.4771 144 132 Z"
         style="fill:none; clip-path:url(#clipPath62); stroke:rgb(20,150,30);"
         clip-path="url(#clipPath62)"
         id="path518" />
      <text
         x="160"
         y="147"
         style="clip-path:url(#clipPath62); fill:rgb(20,150,30); stroke:none; font-weight:bold;"
         xml:space="preserve"
         clip-path="url(#clipPath62)"
         id="text520">Phosphoinositides metabolism</text>
    </g>
    <g
       style="fill:white; text-rendering:geometricPrecision; stroke:white;"
       id="g530">
      <path
         d="M409.569 470.3746 L509.569 470.3746 L509.569 490.3746 L409.569 490.3746 L409.569 470.3746 Z"
         style="clip-path:url(#clipPath63); stroke:none;"
         clip-path="url(#clipPath63)"
         id="path524" />
      <path
         d="M409.569 470.3746 L509.569 470.3746 L509.569 490.3746 L409.569 490.3746 L409.569 470.3746 Z"
         style="fill:none; clip-path:url(#clipPath63); stroke:black;"
         clip-path="url(#clipPath63)"
         id="path526" />
      <text
         x="434"
         y="485"
         style="fill:black; clip-path:url(#clipPath63); stroke:none;"
         xml:space="preserve"
         clip-path="url(#clipPath63)"
         id="text528">Septin-2</text>
    </g>
    <g
       style="fill:white; text-rendering:geometricPrecision; stroke:white;"
       id="g538">
      <path
         d="M655.0055 467.8746 L745.0055 467.8746 L745.0055 492.8746 L655.0055 492.8746 L655.0055 467.8746 Z"
         style="clip-path:url(#clipPath64); stroke:none;"
         clip-path="url(#clipPath64)"
         id="path532" />
      <path
         d="M655.0055 467.8746 L745.0055 467.8746 L745.0055 492.8746 L655.0055 492.8746 L655.0055 467.8746 Z"
         style="fill:none; clip-path:url(#clipPath64); stroke:black;"
         clip-path="url(#clipPath64)"
         id="path534" />
      <text
         x="684"
         y="484"
         style="fill:black; clip-path:url(#clipPath64); stroke:none;"
         xml:space="preserve"
         clip-path="url(#clipPath64)"
         id="text536">MYL2</text>
    </g>
    <g
       style="fill:white; text-rendering:geometricPrecision; stroke:white;"
       id="g546">
      <path
         d="M409.569 551.5281 L509.569 551.5281 L509.569 571.5281 L409.569 571.5281 L409.569 551.5281 Z"
         style="clip-path:url(#clipPath65); stroke:none;"
         clip-path="url(#clipPath65)"
         id="path540" />
      <path
         d="M409.569 551.5281 L509.569 551.5281 L509.569 571.5281 L409.569 571.5281 L409.569 551.5281 Z"
         style="fill:none; clip-path:url(#clipPath65); stroke:blue;"
         clip-path="url(#clipPath65)"
         id="path542" />
      <text
         x="419"
         y="566"
         style="fill:blue; clip-path:url(#clipPath65); stroke:none;"
         xml:space="preserve"
         clip-path="url(#clipPath65)"
         id="text544">PtdIns(4,5)P2</text>
    </g>
    <g
       style="fill:white; text-rendering:geometricPrecision; stroke:white;"
       id="g554">
      <path
         d="M409.569 173.6118 L509.569 173.6118 L509.569 193.6118 L409.569 193.6118 L409.569 173.6118 Z"
         style="clip-path:url(#clipPath66); stroke:none;"
         clip-path="url(#clipPath66)"
         id="path548" />
      <path
         d="M409.569 173.6118 L509.569 173.6118 L509.569 193.6118 L409.569 193.6118 L409.569 173.6118 Z"
         style="fill:none; clip-path:url(#clipPath66); stroke:blue;"
         clip-path="url(#clipPath66)"
         id="path550" />
      <text
         x="419"
         y="188"
         style="fill:blue; clip-path:url(#clipPath66); stroke:none;"
         xml:space="preserve"
         clip-path="url(#clipPath66)"
         id="text552">PtdIns(4,5)P2</text>
    </g>
    <g
       style="fill:white; text-rendering:geometricPrecision; stroke:white;"
       id="g562">
      <path
         d="M140.569 68.6498 L240.569 68.6498 L240.569 88.6498 L140.569 88.6498 L140.569 68.6498 Z"
         style="clip-path:url(#clipPath67); stroke:none;"
         clip-path="url(#clipPath67)"
         id="path556" />
      <path
         d="M140.569 68.6498 L240.569 68.6498 L240.569 88.6498 L140.569 88.6498 L140.569 68.6498 Z"
         style="fill:none; clip-path:url(#clipPath67); stroke:black;"
         clip-path="url(#clipPath67)"
         id="path558" />
      <text
         x="170"
         y="83"
         style="fill:black; clip-path:url(#clipPath67); stroke:none;"
         xml:space="preserve"
         clip-path="url(#clipPath67)"
         id="text560">RAB35</text>
    </g>
    <g
       style="fill:white; text-rendering:geometricPrecision; stroke:white;"
       id="g570">
      <path
         d="M508.0279 126.6118 L608.0279 126.6118 L608.0279 146.6118 L508.0279 146.6118 L508.0279 126.6118 Z"
         style="clip-path:url(#clipPath68); stroke:none;"
         clip-path="url(#clipPath68)"
         id="path564" />
      <path
         d="M508.0279 126.6118 L608.0279 126.6118 L608.0279 146.6118 L508.0279 146.6118 L508.0279 126.6118 Z"
         style="fill:none; clip-path:url(#clipPath68); stroke:black;"
         clip-path="url(#clipPath68)"
         id="path566" />
      <text
         x="547"
         y="141"
         style="fill:black; clip-path:url(#clipPath68); stroke:none;"
         xml:space="preserve"
         clip-path="url(#clipPath68)"
         id="text568">PCL</text>
    </g>
  </g>
</svg>
