<?xml version="1.0" encoding="UTF-8" standalone="no"?>
<svg
   style="fill-opacity:1; color-rendering:auto; color-interpolation:auto; stroke:black; text-rendering:auto; stroke-linecap:square; stroke-miterlimit:10; stroke-opacity:1; shape-rendering:auto; fill:black; stroke-dasharray:none; font-weight:normal; stroke-width:1; font-family:'Dialog'; font-style:normal; stroke-linejoin:miter; font-size:12; stroke-dashoffset:0; image-rendering:auto;"
   width="799"
   height="618"
   version="1.1"
   id="svg441"
   xmlns="http://www.w3.org/2000/svg"
   xmlns:svg="http://www.w3.org/2000/svg">
  <!--Generated by the Batik Graphics2D SVG Generator-->
  <defs
     id="genericDefs" />
  <g
     id="g439">
    <defs
       id="defs1">
      <clipPath
         clipPathUnits="userSpaceOnUse"
         id="clipPath1">
        <path
           d="M0 0 L809 0 L809 628 L0 628 L0 0 Z"
           id="path3" />
      </clipPath>
      <clipPath
         clipPathUnits="userSpaceOnUse"
         id="clipPath2">
        <path
           d="M306 372.8647 L306 549.8647 L496 549.8647 L496 372.8647 Z"
           id="path6" />
      </clipPath>
      <clipPath
         clipPathUnits="userSpaceOnUse"
         id="clipPath3">
        <path
           d="M0 0 L0 200 L200 200 L200 0 Z"
           id="path9" />
      </clipPath>
      <clipPath
         clipPathUnits="userSpaceOnUse"
         id="clipPath4">
        <path
           d="M148 16 L148 37 L159 37 L159 16 Z"
           id="path12" />
      </clipPath>
      <clipPath
         clipPathUnits="userSpaceOnUse"
         id="clipPath5">
        <path
           d="M147.4551 3.918 L158.5449 3.918 L158.5449 19.2305 L147.4551 19.2305 L147.4551 3.918 Z"
           id="path15" />
      </clipPath>
      <clipPath
         clipPathUnits="userSpaceOnUse"
         id="clipPath6">
        <path
           d="M465.5 199.75 L465.5 267.75 L548 267.75 L548 199.75 Z"
           id="path18" />
      </clipPath>
      <clipPath
         clipPathUnits="userSpaceOnUse"
         id="clipPath7">
        <path
           d="M317 280.5 L317 346 L400 346 L400 280.5 Z"
           id="path21" />
      </clipPath>
      <clipPath
         clipPathUnits="userSpaceOnUse"
         id="clipPath8">
        <path
           d="M463.0699 447.6056 L463.0699 459.5412 L538.3116 459.5412 L538.3116 447.6056 Z"
           id="path24" />
      </clipPath>
      <clipPath
         clipPathUnits="userSpaceOnUse"
         id="clipPath9">
        <path
           d="M558.3088 411.3098 L558.3088 448.9393 L677.1267 448.9393 L677.1267 411.3098 Z"
           id="path27" />
      </clipPath>
      <clipPath
         clipPathUnits="userSpaceOnUse"
         id="clipPath10">
        <path
           d="M605.7725 512.2941 L605.7725 544.4216 L634.4559 544.4216 L634.4559 512.2941 Z"
           id="path30" />
      </clipPath>
      <clipPath
         clipPathUnits="userSpaceOnUse"
         id="clipPath11">
        <path
           d="M643.6588 356.7842 L643.6588 389.5868 L679.4037 389.5868 L679.4037 356.7842 Z"
           id="path33" />
      </clipPath>
      <clipPath
         clipPathUnits="userSpaceOnUse"
         id="clipPath12">
        <path
           d="M403.8824 148.3824 L403.8824 300.3566 L449.5477 300.3566 L449.5477 148.3824 Z"
           id="path36" />
      </clipPath>
      <clipPath
         clipPathUnits="userSpaceOnUse"
         id="clipPath13">
        <path
           d="M466.2962 478.5867 L466.2962 529.7695 L508.5905 529.7695 L508.5905 478.5867 Z"
           id="path39" />
      </clipPath>
      <clipPath
         clipPathUnits="userSpaceOnUse"
         id="clipPath14">
        <path
           d="M466.6895 310.6826 L466.6895 335.9563 L494.4563 335.9563 L494.4563 310.6826 Z"
           id="path42" />
      </clipPath>
      <clipPath
         clipPathUnits="userSpaceOnUse"
         id="clipPath15">
        <path
           d="M562.4337 304.1837 L562.4337 321.0421 L648.256 321.0421 L648.256 304.1837 Z"
           id="path45" />
      </clipPath>
      <clipPath
         clipPathUnits="userSpaceOnUse"
         id="clipPath16">
        <path
           d="M399.4968 288.9909 L399.4968 303.4536 L517.2311 303.4536 L517.2311 288.9909 Z"
           id="path48" />
      </clipPath>
      <clipPath
         clipPathUnits="userSpaceOnUse"
         id="clipPath17">
        <path
           d="M433.8282 233.0429 L433.8282 264.9215 L466.2071 264.9215 L466.2071 233.0429 Z"
           id="path51" />
      </clipPath>
      <clipPath
         clipPathUnits="userSpaceOnUse"
         id="clipPath18">
        <path
           d="M561.4227 470.2678 L561.4227 492.8347 L613.6257 492.8347 L613.6257 470.2678 Z"
           id="path54" />
      </clipPath>
      <clipPath
         clipPathUnits="userSpaceOnUse"
         id="clipPath19">
        <path
           d="M423.83 249.3025 L423.83 270.3025 L434.83 270.3025 L434.83 249.3025 Z"
           id="path57" />
      </clipPath>
      <clipPath
         clipPathUnits="userSpaceOnUse"
         id="clipPath20">
        <path
           d="M423.2851 237.2205 L434.3749 237.2205 L434.3749 252.533 L423.2851 252.533 L423.2851 237.2205 Z"
           id="path60" />
      </clipPath>
      <clipPath
         clipPathUnits="userSpaceOnUse"
         id="clipPath21">
        <path
           d="M352.5319 441.7713 L352.5319 491.3098 L468.0274 491.3098 L468.0274 441.7713 Z"
           id="path63" />
      </clipPath>
      <clipPath
         clipPathUnits="userSpaceOnUse"
         id="clipPath22">
        <path
           d="M293 184 L293 604 L785.673 604 L785.673 184 Z"
           id="path66" />
      </clipPath>
      <clipPath
         clipPathUnits="userSpaceOnUse"
         id="clipPath23">
        <path
           d="M471.1583 530.1879 L471.1583 582.2833 L609.2205 582.2833 L609.2205 530.1879 Z"
           id="path69" />
      </clipPath>
      <clipPath
         clipPathUnits="userSpaceOnUse"
         id="clipPath24">
        <path
           d="M609.5 468.5 L609.5 513.5 L705.5 513.5 L705.5 468.5 Z"
           id="path72" />
      </clipPath>
      <clipPath
         clipPathUnits="userSpaceOnUse"
         id="clipPath25">
        <path
           d="M653.1496 272.0035 L653.1496 323.1724 L765.9584 323.1724 L765.9584 272.0035 Z"
           id="path75" />
      </clipPath>
      <clipPath
         clipPathUnits="userSpaceOnUse"
         id="clipPath26">
        <path
           d="M467.5 267 L467.5 293 L608.5 293 L608.5 267 Z"
           id="path78" />
      </clipPath>
      <clipPath
         clipPathUnits="userSpaceOnUse"
         id="clipPath27">
        <path
           d="M457.5 157 L457.5 183 L592.5 183 L592.5 157 Z"
           id="path81" />
      </clipPath>
      <clipPath
         clipPathUnits="userSpaceOnUse"
         id="clipPath28">
        <path
           d="M529.4822 351.6055 L529.4822 402.7744 L642.291 402.7744 L642.291 351.6055 Z"
           id="path84" />
      </clipPath>
      <clipPath
         clipPathUnits="userSpaceOnUse"
         id="clipPath29">
        <path
           d="M595.895 323.9906 L595.895 349.9906 L646.5972 349.9906 L646.5972 323.9906 Z"
           id="path87" />
      </clipPath>
      <clipPath
         clipPathUnits="userSpaceOnUse"
         id="clipPath30">
        <path
           d="M472 334.75 L472 354.5 L515.5 354.5 L515.5 334.75 Z"
           id="path90" />
      </clipPath>
      <clipPath
         clipPathUnits="userSpaceOnUse"
         id="clipPath31">
        <path
           d="M477 232.5 L477 256.25 L536.5 256.25 L536.5 232.5 Z"
           id="path93" />
      </clipPath>
      <clipPath
         clipPathUnits="userSpaceOnUse"
         id="clipPath32">
        <path
           d="M280.5696 52.877 L280.5696 82.377 L464.5696 82.377 L464.5696 52.877 Z"
           id="path96" />
      </clipPath>
      <clipPath
         clipPathUnits="userSpaceOnUse"
         id="clipPath33">
        <path
           d="M335 310 L335 334.5 L382 334.5 L382 310 Z"
           id="path99" />
      </clipPath>
      <clipPath
         clipPathUnits="userSpaceOnUse"
         id="clipPath34">
        <path
           d="M515.5 287 L515.5 322.5 L563.5 322.5 L563.5 287 Z"
           id="path102" />
      </clipPath>
      <clipPath
         clipPathUnits="userSpaceOnUse"
         id="clipPath35">
        <path
           d="M357.5 130.5 L357.5 149.5 L420.5 149.5 L420.5 130.5 Z"
           id="path105" />
      </clipPath>
      <clipPath
         clipPathUnits="userSpaceOnUse"
         id="clipPath36">
        <path
           d="M345 198.75 L345 230.25 L412 230.25 L412 198.75 Z"
           id="path108" />
      </clipPath>
      <clipPath
         clipPathUnits="userSpaceOnUse"
         id="clipPath37">
        <path
           d="M654.571 386.4314 L654.571 412.4314 L698.4389 412.4314 L698.4389 386.4314 Z"
           id="path111" />
      </clipPath>
      <clipPath
         clipPathUnits="userSpaceOnUse"
         id="clipPath38">
        <path
           d="M642.1332 323.9906 L642.1332 349.9906 L692.8354 349.9906 L692.8354 323.9906 Z"
           id="path114" />
      </clipPath>
      <clipPath
         clipPathUnits="userSpaceOnUse"
         id="clipPath39">
        <path
           d="M477 211.25 L477 233.5 L536.5 233.5 L536.5 211.25 Z"
           id="path117" />
      </clipPath>
      <clipPath
         clipPathUnits="userSpaceOnUse"
         id="clipPath40">
        <path
           d="M537.3003 445.4222 L537.3003 471.4222 L586.8539 471.4222 L586.8539 445.4222 Z"
           id="path120" />
      </clipPath>
      <clipPath
         clipPathUnits="userSpaceOnUse"
         id="clipPath41">
        <path
           d="M328.5 292 L328.5 311 L388.5 311 L388.5 292 Z"
           id="path123" />
      </clipPath>
      <clipPath
         clipPathUnits="userSpaceOnUse"
         id="clipPath42">
        <path
           d="M293.5 260 L293.5 286 L434.5 286 L434.5 260 Z"
           id="path126" />
      </clipPath>
      <clipPath
         clipPathUnits="userSpaceOnUse"
         id="clipPath43">
        <path
           d="M398.7689 306.0347 L398.7689 320.4977 L516.5005 320.4977 L516.5005 306.0347 Z"
           id="path129" />
      </clipPath>
    </defs>
    <g
       style="fill:white; stroke:white;"
       id="g135">
      <rect
         x="0"
         width="809"
         height="628"
         y="0"
         style="stroke:none;"
         id="rect133" />
    </g>
    <g
       style="fill:silver; text-rendering:geometricPrecision; stroke:silver;"
       id="g139">
      <path
         d="M493 459.8647 L493 459.8647 L493 459.8647 L494.5 459.8647 L494.5 461.3647 C494.5 509.7298 452.3102 548.3647 401 548.3647 L399.5 548.3647 L399.5 546.8647 L399.5 543.8647 L401 543.8647 L402.5 543.8647 L402.5 546.8647 L402.5 548.3647 L401 548.3647 C349.6898 548.3647 307.5 509.7298 307.5 461.3647 L307.5 459.8647 L309 459.8647 L312 459.8647 L312 461.3647 L312 462.8647 L309 462.8647 L307.5 462.8647 L307.5 461.3647 C307.5 412.9998 349.6898 374.3647 401 374.3647 L402.5 374.3647 L402.5 375.8647 L402.5 378.8647 L401 378.8647 L399.5 378.8647 L399.5 375.8647 L399.5 374.3647 L401 374.3647 C452.3102 374.3647 494.5 412.9998 494.5 461.3647 L494.5 462.8647 L493 462.8647 L490 462.8647 L490 461.3647 L490 459.8647 L493 459.8647 L494.5 459.8647 L494.5 462.8647 L493 462.8647 L490 462.8647 L490 459.8647 L493 459.8647 L493 461.3647 L491.5 461.3647 C491.5 414.8689 450.8739 377.3647 401 377.3647 L401 375.8647 L402.5 375.8647 L402.5 378.8647 L399.5 378.8647 L399.5 375.8647 L401 375.8647 L401 377.3647 C351.1261 377.3647 310.5 414.8689 310.5 461.3647 L309 461.3647 L309 459.8647 L312 459.8647 L312 462.8647 L309 462.8647 L309 461.3647 L310.5 461.3647 C310.5 507.8606 351.1261 545.3647 401 545.3647 L401 546.8647 L399.5 546.8647 L399.5 543.8647 L402.5 543.8647 L402.5 546.8647 L401 546.8647 L401 545.3647 C450.8739 545.3647 491.5 507.8607 491.5 461.3647 L493 461.3647 L493 462.8647 L493 462.8647 L491.5 462.8647 L491.5 459.8647 ZM487 459.8647 L487 459.8647 L487 459.8647 L487 461.3647 L485.5 461.3647 C485.5 418.6007 447.9942 383.3647 401 383.3647 L401 381.8647 L401 380.3647 L401 380.3647 L401 381.8647 L401 383.3647 C354.0058 383.3647 316.5 418.6007 316.5 461.3647 L315 461.3647 L315 459.8647 L315 459.8647 L316.5 459.8647 L316.5 461.3647 C316.5 504.1287 354.0058 539.3647 401 539.3647 L401 540.8647 L401 539.3647 L401 539.3647 L401 540.8647 L401 539.3647 C447.9942 539.3647 485.5 504.1288 485.5 461.3647 L485.5 459.8647 L487 459.8647 M487 462.8647 L487 461.3647 L488.5 461.3647 C488.5 505.9936 449.4352 542.3647 401 542.3647 L401 542.3647 L401 542.3647 L401 542.3647 C352.5648 542.3647 313.5 505.9935 313.5 461.3647 L315 461.3647 L315 462.8647 L315 462.8647 L313.5 462.8647 L313.5 461.3647 C313.5 416.7359 352.5648 380.3647 401 380.3647 L401 383.3647 L401 383.3647 L401 380.3647 C449.4352 380.3647 488.5 416.7359 488.5 461.3647 L488.5 462.8647 L487 462.8647 L487 462.8647 Z"
         style="clip-path:url(#clipPath2); stroke:none;"
         clip-path="url(#clipPath2)"
         id="path137" />
    </g>
    <g
       style="fill:silver; text-rendering:geometricPrecision; font-size:10; stroke:silver;"
       id="g143">
      <text
         x="378"
         xml:space="preserve"
         y="404"
         style="clip-path:url(#clipPath2); stroke:none;"
         clip-path="url(#clipPath2)"
         id="text141">NUCLEUS</text>
    </g>
    <g
       style="font-weight:bold; font-size:10; text-rendering:geometricPrecision;"
       id="g153">
      <path
         d="M0.0469 6.7031 L6.7656 6.7031 L6.7656 8.125 L4.3438 8.125 L4.3438 14 L2.4688 14 L2.4688 8.125 L0.0469 8.125 L0.0469 6.7031 ZM7.665 8.5312 L9.415 8.5312 L9.415 14 L7.665 14 L7.665 8.5312 ZM7.665 6.4062 L9.415 6.4062 L9.415 7.8281 L7.665 7.8281 L7.665 6.4062 ZM12.999 6.9844 L12.999 8.5312 L14.7959 8.5312 L14.7959 9.7812 L12.999 9.7812 L12.999 12.0938 Q12.999 12.4844 13.1475 12.6172 Q13.2959 12.75 13.749 12.75 L14.6553 12.75 L14.6553 14 L13.1553 14 Q12.1084 14 11.6787 13.5703 Q11.249 13.1406 11.249 12.0938 L11.249 9.7812 L10.374 9.7812 L10.374 8.5312 L11.249 8.5312 L11.249 6.9844 L12.999 6.9844 ZM15.873 6.4062 L17.623 6.4062 L17.623 14 L15.873 14 L15.873 6.4062 ZM24.7539 11.25 L24.7539 11.75 L20.6758 11.75 Q20.7383 12.3594 21.1133 12.6719 Q21.4883 12.9844 22.1758 12.9844 Q22.7227 12.9844 23.3086 12.8203 Q23.8945 12.6562 24.5039 12.3125 L24.5039 13.6719 Q23.8789 13.9062 23.2617 14.0234 Q22.6445 14.1406 22.0195 14.1406 Q20.5352 14.1406 19.7148 13.3828 Q18.8945 12.625 18.8945 11.2656 Q18.8945 9.9375 19.6992 9.1719 Q20.5039 8.4062 21.9258 8.4062 Q23.207 8.4062 23.9805 9.1797 Q24.7539 9.9531 24.7539 11.25 ZM22.957 10.6719 Q22.957 10.1719 22.668 9.8672 Q22.3789 9.5625 21.9102 9.5625 Q21.3945 9.5625 21.082 9.8438 Q20.7695 10.125 20.6914 10.6719 L22.957 10.6719 ZM26.3643 8.5312 L28.1143 8.5312 L28.1143 10.4219 L26.3643 10.4219 L26.3643 8.5312 ZM26.3643 12.1094 L28.1143 12.1094 L28.1143 14 L26.3643 14 L26.3643 12.1094 Z"
         style="clip-path:url(#clipPath3); stroke:none;"
         clip-path="url(#clipPath3)"
         id="path145" />
      <path
         d="M39.9688 7.5156 L39.9688 10.2656 L41.2031 10.2656 Q41.8906 10.2656 42.2734 9.9062 Q42.6562 9.5469 42.6562 8.8906 Q42.6562 8.2344 42.2734 7.875 Q41.8906 7.5156 41.2031 7.5156 L39.9688 7.5156 ZM38.9844 6.7031 L41.2031 6.7031 Q42.4375 6.7031 43.0625 7.2578 Q43.6875 7.8125 43.6875 8.8906 Q43.6875 9.9688 43.0625 10.5156 Q42.4375 11.0625 41.2031 11.0625 L39.9688 11.0625 L39.9688 14 L38.9844 14 L38.9844 6.7031 ZM44.9678 8.5312 L45.874 8.5312 L45.874 14 L44.9678 14 L44.9678 8.5312 ZM44.9678 6.4062 L45.874 6.4062 L45.874 7.5469 L44.9678 7.5469 L44.9678 6.4062 ZM47.7461 6.4062 L48.6523 6.4062 L48.6523 14 L47.7461 14 L47.7461 6.4062 ZM52.6494 9.1562 Q51.9307 9.1562 51.5088 9.7188 Q51.0869 10.2812 51.0869 11.2656 Q51.0869 12.25 51.501 12.8125 Q51.915 13.375 52.6494 13.375 Q53.3682 13.375 53.79 12.8125 Q54.2119 12.25 54.2119 11.2656 Q54.2119 10.2969 53.79 9.7266 Q53.3682 9.1562 52.6494 9.1562 ZM52.6494 8.4062 Q53.8213 8.4062 54.4932 9.1641 Q55.165 9.9219 55.165 11.2656 Q55.165 12.6094 54.4932 13.375 Q53.8213 14.1406 52.6494 14.1406 Q51.4775 14.1406 50.8057 13.375 Q50.1338 12.6094 50.1338 11.2656 Q50.1338 9.9219 50.8057 9.1641 Q51.4775 8.4062 52.6494 8.4062 ZM60.5801 8.7344 L60.5801 9.5781 Q60.2051 9.375 59.8223 9.2656 Q59.4395 9.1562 59.0488 9.1562 Q58.1738 9.1562 57.6895 9.7109 Q57.2051 10.2656 57.2051 11.2656 Q57.2051 12.2656 57.6895 12.8203 Q58.1738 13.375 59.0488 13.375 Q59.4395 13.375 59.8223 13.2734 Q60.2051 13.1719 60.5801 12.9531 L60.5801 13.7969 Q60.2051 13.9688 59.8066 14.0547 Q59.4082 14.1406 58.9551 14.1406 Q57.7051 14.1406 56.9785 13.3672 Q56.252 12.5938 56.252 11.2656 Q56.252 9.9375 56.9863 9.1719 Q57.7207 8.4062 59.002 8.4062 Q59.4238 8.4062 59.8145 8.4844 Q60.2051 8.5625 60.5801 8.7344 ZM64.4219 14.5156 Q64.0469 15.4844 63.6797 15.7812 Q63.3125 16.0781 62.7188 16.0781 L62 16.0781 L62 15.3281 L62.5156 15.3281 Q62.8906 15.3281 63.0938 15.1562 Q63.2969 14.9844 63.5469 14.3281 L63.7188 13.9062 L61.5 8.5312 L62.4531 8.5312 L64.1562 12.8125 L65.875 8.5312 L66.8281 8.5312 L64.4219 14.5156 ZM68.9492 6.9844 L68.9492 8.5312 L70.8086 8.5312 L70.8086 9.2344 L68.9492 9.2344 L68.9492 12.2031 Q68.9492 12.8594 69.1367 13.0547 Q69.3242 13.25 69.8867 13.25 L70.8086 13.25 L70.8086 14 L69.8867 14 Q68.8398 14 68.4414 13.6094 Q68.043 13.2188 68.043 12.2031 L68.043 9.2344 L67.3867 9.2344 L67.3867 8.5312 L68.043 8.5312 L68.043 6.9844 L68.9492 6.9844 ZM71.9795 8.5312 L72.8857 8.5312 L72.8857 14 L71.9795 14 L71.9795 8.5312 ZM71.9795 6.4062 L72.8857 6.4062 L72.8857 7.5469 L71.9795 7.5469 L71.9795 6.4062 ZM78.6953 8.7344 L78.6953 9.5781 Q78.3203 9.375 77.9375 9.2656 Q77.5547 9.1562 77.1641 9.1562 Q76.2891 9.1562 75.8047 9.7109 Q75.3203 10.2656 75.3203 11.2656 Q75.3203 12.2656 75.8047 12.8203 Q76.2891 13.375 77.1641 13.375 Q77.5547 13.375 77.9375 13.2734 Q78.3203 13.1719 78.6953 12.9531 L78.6953 13.7969 Q78.3203 13.9688 77.9219 14.0547 Q77.5234 14.1406 77.0703 14.1406 Q75.8203 14.1406 75.0938 13.3672 Q74.3672 12.5938 74.3672 11.2656 Q74.3672 9.9375 75.1016 9.1719 Q75.8359 8.4062 77.1172 8.4062 Q77.5391 8.4062 77.9297 8.4844 Q78.3203 8.5625 78.6953 8.7344 ZM85.9189 11.25 Q84.8408 11.25 84.4189 11.5 Q83.9971 11.75 83.9971 12.3438 Q83.9971 12.8281 84.3096 13.1094 Q84.6221 13.3906 85.1689 13.3906 Q85.9189 13.3906 86.3721 12.8594 Q86.8252 12.3281 86.8252 11.4531 L86.8252 11.25 L85.9189 11.25 ZM87.7158 10.875 L87.7158 14 L86.8252 14 L86.8252 13.1719 Q86.5127 13.6719 86.0518 13.9062 Q85.5908 14.1406 84.9346 14.1406 Q84.0908 14.1406 83.5908 13.6719 Q83.0908 13.2031 83.0908 12.4062 Q83.0908 11.4844 83.7158 11.0156 Q84.3408 10.5469 85.5596 10.5469 L86.8252 10.5469 L86.8252 10.4531 Q86.8252 9.8438 86.4111 9.5 Q85.9971 9.1562 85.2627 9.1562 Q84.7939 9.1562 84.3486 9.2734 Q83.9033 9.3906 83.4971 9.6094 L83.4971 8.7812 Q83.9971 8.5938 84.458 8.5 Q84.9189 8.4062 85.3564 8.4062 Q86.5439 8.4062 87.1299 9.0156 Q87.7158 9.625 87.7158 10.875 ZM93.0469 8.6875 L93.0469 9.5469 Q92.6719 9.3438 92.2656 9.25 Q91.8594 9.1562 91.4062 9.1562 Q90.75 9.1562 90.4141 9.3594 Q90.0781 9.5625 90.0781 9.9688 Q90.0781 10.2812 90.3125 10.4609 Q90.5469 10.6406 91.2812 10.7969 L91.5781 10.875 Q92.5469 11.0781 92.9453 11.4531 Q93.3438 11.8281 93.3438 12.4844 Q93.3438 13.25 92.7422 13.6953 Q92.1406 14.1406 91.0938 14.1406 Q90.6406 14.1406 90.1641 14.0547 Q89.6875 13.9688 89.1719 13.7969 L89.1719 12.875 Q89.6719 13.125 90.1484 13.2578 Q90.625 13.3906 91.1094 13.3906 Q91.7344 13.3906 92.0781 13.1719 Q92.4219 12.9531 92.4219 12.5625 Q92.4219 12.1875 92.1797 11.9922 Q91.9375 11.7969 91.0938 11.625 L90.7812 11.5469 Q89.9531 11.375 89.5781 11.0078 Q89.2031 10.6406 89.2031 10.0156 Q89.2031 9.2344 89.75 8.8203 Q90.2969 8.4062 91.3125 8.4062 Q91.7969 8.4062 92.2422 8.4766 Q92.6875 8.5469 93.0469 8.6875 ZM95.6631 6.9844 L95.6631 8.5312 L97.5225 8.5312 L97.5225 9.2344 L95.6631 9.2344 L95.6631 12.2031 Q95.6631 12.8594 95.8506 13.0547 Q96.0381 13.25 96.6006 13.25 L97.5225 13.25 L97.5225 14 L96.6006 14 Q95.5537 14 95.1553 13.6094 Q94.7568 13.2188 94.7568 12.2031 L94.7568 9.2344 L94.1006 9.2344 L94.1006 8.5312 L94.7568 8.5312 L94.7568 6.9844 L95.6631 6.9844 ZM101.8652 9.375 Q101.709 9.2812 101.5371 9.2422 Q101.3652 9.2031 101.1465 9.2031 Q100.3809 9.2031 99.9746 9.6953 Q99.5684 10.1875 99.5684 11.125 L99.5684 14 L98.6621 14 L98.6621 8.5312 L99.5684 8.5312 L99.5684 9.375 Q99.8496 8.875 100.3027 8.6406 Q100.7559 8.4062 101.4121 8.4062 Q101.5059 8.4062 101.6152 8.4141 Q101.7246 8.4219 101.8652 8.4531 L101.8652 9.375 ZM104.9297 9.1562 Q104.2109 9.1562 103.7891 9.7188 Q103.3672 10.2812 103.3672 11.2656 Q103.3672 12.25 103.7812 12.8125 Q104.1953 13.375 104.9297 13.375 Q105.6484 13.375 106.0703 12.8125 Q106.4922 12.25 106.4922 11.2656 Q106.4922 10.2969 106.0703 9.7266 Q105.6484 9.1562 104.9297 9.1562 ZM104.9297 8.4062 Q106.1016 8.4062 106.7734 9.1641 Q107.4453 9.9219 107.4453 11.2656 Q107.4453 12.6094 106.7734 13.375 Q106.1016 14.1406 104.9297 14.1406 Q103.7578 14.1406 103.0859 13.375 Q102.4141 12.6094 102.4141 11.2656 Q102.4141 9.9219 103.0859 9.1641 Q103.7578 8.4062 104.9297 8.4062 ZM112.8604 8.7344 L112.8604 9.5781 Q112.4854 9.375 112.1025 9.2656 Q111.7197 9.1562 111.3291 9.1562 Q110.4541 9.1562 109.9697 9.7109 Q109.4854 10.2656 109.4854 11.2656 Q109.4854 12.2656 109.9697 12.8203 Q110.4541 13.375 111.3291 13.375 Q111.7197 13.375 112.1025 13.2734 Q112.4854 13.1719 112.8604 12.9531 L112.8604 13.7969 Q112.4854 13.9688 112.0869 14.0547 Q111.6885 14.1406 111.2354 14.1406 Q109.9854 14.1406 109.2588 13.3672 Q108.5322 12.5938 108.5322 11.2656 Q108.5322 9.9375 109.2666 9.1719 Q110.001 8.4062 111.2822 8.4062 Q111.7041 8.4062 112.0947 8.4844 Q112.4854 8.5625 112.8604 8.7344 ZM116.7021 14.5156 Q116.3271 15.4844 115.96 15.7812 Q115.5928 16.0781 114.999 16.0781 L114.2803 16.0781 L114.2803 15.3281 L114.7959 15.3281 Q115.1709 15.3281 115.374 15.1562 Q115.5771 14.9844 115.8271 14.3281 L115.999 13.9062 L113.7803 8.5312 L114.7334 8.5312 L116.4365 12.8125 L118.1553 8.5312 L119.1084 8.5312 L116.7021 14.5156 ZM121.2295 6.9844 L121.2295 8.5312 L123.0889 8.5312 L123.0889 9.2344 L121.2295 9.2344 L121.2295 12.2031 Q121.2295 12.8594 121.417 13.0547 Q121.6045 13.25 122.167 13.25 L123.0889 13.25 L123.0889 14 L122.167 14 Q121.1201 14 120.7217 13.6094 Q120.3232 13.2188 120.3232 12.2031 L120.3232 9.2344 L119.667 9.2344 L119.667 8.5312 L120.3232 8.5312 L120.3232 6.9844 L121.2295 6.9844 ZM126.3848 9.1562 Q125.666 9.1562 125.2441 9.7188 Q124.8223 10.2812 124.8223 11.2656 Q124.8223 12.25 125.2363 12.8125 Q125.6504 13.375 126.3848 13.375 Q127.1035 13.375 127.5254 12.8125 Q127.9473 12.25 127.9473 11.2656 Q127.9473 10.2969 127.5254 9.7266 Q127.1035 9.1562 126.3848 9.1562 ZM126.3848 8.4062 Q127.5566 8.4062 128.2285 9.1641 Q128.9004 9.9219 128.9004 11.2656 Q128.9004 12.6094 128.2285 13.375 Q127.5566 14.1406 126.3848 14.1406 Q125.2129 14.1406 124.541 13.375 Q123.8691 12.6094 123.8691 11.2656 Q123.8691 9.9219 124.541 9.1641 Q125.2129 8.4062 126.3848 8.4062 ZM134.6436 9.5781 Q134.9717 8.9688 135.4404 8.6875 Q135.9092 8.4062 136.5498 8.4062 Q137.4092 8.4062 137.8701 9 Q138.3311 9.5938 138.3311 10.7031 L138.3311 14 L137.4248 14 L137.4248 10.7344 Q137.4248 9.9375 137.1514 9.5625 Q136.8779 9.1875 136.2998 9.1875 Q135.5967 9.1875 135.1982 9.6484 Q134.7998 10.1094 134.7998 10.9062 L134.7998 14 L133.8936 14 L133.8936 10.7344 Q133.8936 9.9375 133.6123 9.5625 Q133.3311 9.1875 132.7529 9.1875 Q132.0654 9.1875 131.6592 9.6484 Q131.2529 10.1094 131.2529 10.9062 L131.2529 14 L130.3467 14 L130.3467 8.5312 L131.2529 8.5312 L131.2529 9.375 Q131.5654 8.875 131.9951 8.6406 Q132.4248 8.4062 133.0029 8.4062 Q133.6123 8.4062 134.0264 8.7031 Q134.4404 9 134.6436 9.5781 ZM142.6035 11.25 Q141.5254 11.25 141.1035 11.5 Q140.6816 11.75 140.6816 12.3438 Q140.6816 12.8281 140.9941 13.1094 Q141.3066 13.3906 141.8535 13.3906 Q142.6035 13.3906 143.0566 12.8594 Q143.5098 12.3281 143.5098 11.4531 L143.5098 11.25 L142.6035 11.25 ZM144.4004 10.875 L144.4004 14 L143.5098 14 L143.5098 13.1719 Q143.1973 13.6719 142.7363 13.9062 Q142.2754 14.1406 141.6191 14.1406 Q140.7754 14.1406 140.2754 13.6719 Q139.7754 13.2031 139.7754 12.4062 Q139.7754 11.4844 140.4004 11.0156 Q141.0254 10.5469 142.2441 10.5469 L143.5098 10.5469 L143.5098 10.4531 Q143.5098 9.8438 143.0957 9.5 Q142.6816 9.1562 141.9473 9.1562 Q141.4785 9.1562 141.0332 9.2734 Q140.5879 9.3906 140.1816 9.6094 L140.1816 8.7812 Q140.6816 8.5938 141.1426 8.5 Q141.6035 8.4062 142.041 8.4062 Q143.2285 8.4062 143.8145 9.0156 Q144.4004 9.625 144.4004 10.875 Z"
         style="clip-path:url(#clipPath3); stroke:none;"
         clip-path="url(#clipPath3)"
         id="path147" />
      <path
         d="M4.25 21.9375 Q3.3906 21.9375 2.9141 22.5703 Q2.4375 23.2031 2.4375 24.3594 Q2.4375 25.5156 2.9141 26.1484 Q3.3906 26.7812 4.25 26.7812 Q5.1094 26.7812 5.5859 26.1484 Q6.0625 25.5156 6.0625 24.3594 Q6.0625 23.2031 5.5859 22.5703 Q5.1094 21.9375 4.25 21.9375 ZM4.25 20.5781 Q6 20.5781 7 21.5859 Q8 22.5938 8 24.3594 Q8 26.125 7 27.1328 Q6 28.1406 4.25 28.1406 Q2.5 28.1406 1.5 27.1328 Q0.5 26.125 0.5 24.3594 Q0.5 22.5938 1.5 21.5859 Q2.5 20.5781 4.25 20.5781 ZM13.4072 24.0156 Q13.1729 23.9062 12.9463 23.8594 Q12.7197 23.8125 12.4854 23.8125 Q11.8135 23.8125 11.4541 24.2422 Q11.0947 24.6719 11.0947 25.4844 L11.0947 28 L9.3447 28 L9.3447 22.5312 L11.0947 22.5312 L11.0947 23.4219 Q11.4229 22.8906 11.8604 22.6484 Q12.2979 22.4062 12.9072 22.4062 Q13.001 22.4062 13.1025 22.4062 Q13.2041 22.4062 13.3916 22.4375 L13.4072 24.0156 ZM17.9951 27.0781 Q17.6357 27.5469 17.1982 27.7734 Q16.7607 28 16.1982 28 Q15.1982 28 14.542 27.2109 Q13.8857 26.4219 13.8857 25.2031 Q13.8857 23.9688 14.542 23.1875 Q15.1982 22.4062 16.1982 22.4062 Q16.7607 22.4062 17.1982 22.6328 Q17.6357 22.8594 17.9951 23.3438 L17.9951 22.5312 L19.7451 22.5312 L19.7451 27.4531 Q19.7451 28.7656 18.917 29.4609 Q18.0889 30.1562 16.5107 30.1562 Q15.9951 30.1562 15.5186 30.0781 Q15.042 30 14.5576 29.8438 L14.5576 28.4844 Q15.0107 28.75 15.4482 28.875 Q15.8857 29 16.3389 29 Q17.1982 29 17.5967 28.625 Q17.9951 28.25 17.9951 27.4531 L17.9951 27.0781 ZM16.8389 23.6719 Q16.292 23.6719 15.9951 24.0703 Q15.6982 24.4688 15.6982 25.2031 Q15.6982 25.9531 15.9873 26.3438 Q16.2764 26.7344 16.8389 26.7344 Q17.3857 26.7344 17.6904 26.3281 Q17.9951 25.9219 17.9951 25.2031 Q17.9951 24.4688 17.6904 24.0703 Q17.3857 23.6719 16.8389 23.6719 ZM23.8877 25.5312 Q23.3408 25.5312 23.0596 25.7188 Q22.7783 25.9062 22.7783 26.2656 Q22.7783 26.6094 23.0049 26.7969 Q23.2314 26.9844 23.6221 26.9844 Q24.1221 26.9844 24.458 26.625 Q24.7939 26.2656 24.7939 25.7344 L24.7939 25.5312 L23.8877 25.5312 ZM26.5596 24.875 L26.5596 28 L24.7939 28 L24.7939 27.1875 Q24.4346 27.6875 23.9971 27.9141 Q23.5596 28.1406 22.9346 28.1406 Q22.0752 28.1406 21.5518 27.6484 Q21.0283 27.1562 21.0283 26.3594 Q21.0283 25.3906 21.6846 24.9453 Q22.3408 24.5 23.7627 24.5 L24.7939 24.5 L24.7939 24.3594 Q24.7939 23.9531 24.4658 23.7578 Q24.1377 23.5625 23.4502 23.5625 Q22.8877 23.5625 22.4033 23.6719 Q21.9189 23.7812 21.4971 24.0156 L21.4971 22.6719 Q22.0596 22.5469 22.6299 22.4766 Q23.2002 22.4062 23.7627 22.4062 Q25.2471 22.4062 25.9033 22.9844 Q26.5596 23.5625 26.5596 24.875 ZM33.6826 24.6719 L33.6826 28 L31.917 28 L31.917 27.4531 L31.917 25.4531 Q31.917 24.75 31.8857 24.4766 Q31.8545 24.2031 31.7764 24.0781 Q31.6826 23.9062 31.5029 23.8125 Q31.3232 23.7188 31.1045 23.7188 Q30.5576 23.7188 30.2451 24.1406 Q29.9326 24.5625 29.9326 25.3125 L29.9326 28 L28.1826 28 L28.1826 22.5312 L29.9326 22.5312 L29.9326 23.3281 Q30.3232 22.8594 30.7686 22.6328 Q31.2139 22.4062 31.7451 22.4062 Q32.6982 22.4062 33.1904 22.9844 Q33.6826 23.5625 33.6826 24.6719 ZM35.3018 22.5312 L37.0518 22.5312 L37.0518 28 L35.3018 28 L35.3018 22.5312 ZM35.3018 20.4062 L37.0518 20.4062 L37.0518 21.8281 L35.3018 21.8281 L35.3018 20.4062 ZM42.9951 22.7031 L42.9951 24.0312 Q42.4326 23.7969 41.9092 23.6797 Q41.3857 23.5625 40.9326 23.5625 Q40.4326 23.5625 40.1904 23.6875 Q39.9482 23.8125 39.9482 24.0625 Q39.9482 24.2812 40.1279 24.3906 Q40.3076 24.5 40.792 24.5625 L41.0889 24.5938 Q42.4326 24.7656 42.9014 25.1562 Q43.3701 25.5469 43.3701 26.3906 Q43.3701 27.2656 42.7217 27.7031 Q42.0732 28.1406 40.792 28.1406 Q40.2607 28.1406 39.6826 28.0547 Q39.1045 27.9688 38.4795 27.7969 L38.4795 26.4688 Q39.0107 26.7188 39.5576 26.8516 Q40.1045 26.9844 40.667 26.9844 Q41.1826 26.9844 41.4404 26.8438 Q41.6982 26.7031 41.6982 26.4219 Q41.6982 26.1875 41.5264 26.0703 Q41.3545 25.9531 40.8232 25.8906 L40.5107 25.8438 Q39.3389 25.7031 38.8701 25.3047 Q38.4014 24.9062 38.4014 24.1094 Q38.4014 23.2344 38.9951 22.8203 Q39.5889 22.4062 40.8232 22.4062 Q41.3076 22.4062 41.8389 22.4766 Q42.3701 22.5469 42.9951 22.7031 ZM49.7441 23.4375 Q50.0723 22.9375 50.5332 22.6719 Q50.9941 22.4062 51.541 22.4062 Q52.4785 22.4062 52.9707 22.9844 Q53.4629 23.5625 53.4629 24.6719 L53.4629 28 L51.7129 28 L51.7129 25.1406 Q51.7129 25.0781 51.7129 25.0156 Q51.7129 24.9531 51.7129 24.8281 Q51.7129 24.2344 51.5488 23.9766 Q51.3848 23.7188 50.9941 23.7188 Q50.4941 23.7188 50.2285 24.125 Q49.9629 24.5312 49.9473 25.3125 L49.9473 28 L48.1816 28 L48.1816 25.1406 Q48.1816 24.2344 48.0254 23.9766 Q47.8691 23.7188 47.4785 23.7188 Q46.9785 23.7188 46.7051 24.1328 Q46.4316 24.5469 46.4316 25.3125 L46.4316 28 L44.666 28 L44.666 22.5312 L46.4316 22.5312 L46.4316 23.3281 Q46.7441 22.875 47.166 22.6406 Q47.5879 22.4062 48.0879 22.4062 Q48.6504 22.4062 49.0879 22.6797 Q49.5254 22.9531 49.7441 23.4375 ZM55.3828 22.5312 L57.1328 22.5312 L57.1328 24.4219 L55.3828 24.4219 L55.3828 22.5312 ZM55.3828 26.1094 L57.1328 26.1094 L57.1328 28 L55.3828 28 L55.3828 26.1094 Z"
         style="clip-path:url(#clipPath3); stroke:none;"
         clip-path="url(#clipPath3)"
         id="path149" />
      <path
         d="M66.9844 20.7031 L67.9688 20.7031 L67.9688 23.7031 L71.5469 23.7031 L71.5469 20.7031 L72.5312 20.7031 L72.5312 28 L71.5469 28 L71.5469 24.5312 L67.9688 24.5312 L67.9688 28 L66.9844 28 L66.9844 20.7031 ZM76.582 23.1562 Q75.8633 23.1562 75.4414 23.7188 Q75.0195 24.2812 75.0195 25.2656 Q75.0195 26.25 75.4336 26.8125 Q75.8477 27.375 76.582 27.375 Q77.3008 27.375 77.7227 26.8125 Q78.1445 26.25 78.1445 25.2656 Q78.1445 24.2969 77.7227 23.7266 Q77.3008 23.1562 76.582 23.1562 ZM76.582 22.4062 Q77.7539 22.4062 78.4258 23.1641 Q79.0977 23.9219 79.0977 25.2656 Q79.0977 26.6094 78.4258 27.375 Q77.7539 28.1406 76.582 28.1406 Q75.4102 28.1406 74.7383 27.375 Q74.0664 26.6094 74.0664 25.2656 Q74.0664 23.9219 74.7383 23.1641 Q75.4102 22.4062 76.582 22.4062 ZM84.8408 23.5781 Q85.1689 22.9688 85.6377 22.6875 Q86.1064 22.4062 86.7471 22.4062 Q87.6064 22.4062 88.0674 23 Q88.5283 23.5938 88.5283 24.7031 L88.5283 28 L87.6221 28 L87.6221 24.7344 Q87.6221 23.9375 87.3486 23.5625 Q87.0752 23.1875 86.4971 23.1875 Q85.7939 23.1875 85.3955 23.6484 Q84.9971 24.1094 84.9971 24.9062 L84.9971 28 L84.0908 28 L84.0908 24.7344 Q84.0908 23.9375 83.8096 23.5625 Q83.5283 23.1875 82.9502 23.1875 Q82.2627 23.1875 81.8564 23.6484 Q81.4502 24.1094 81.4502 24.9062 L81.4502 28 L80.5439 28 L80.5439 22.5312 L81.4502 22.5312 L81.4502 23.375 Q81.7627 22.875 82.1924 22.6406 Q82.6221 22.4062 83.2002 22.4062 Q83.8096 22.4062 84.2236 22.7031 Q84.6377 23 84.8408 23.5781 ZM92.4414 23.1562 Q91.7227 23.1562 91.3008 23.7188 Q90.8789 24.2812 90.8789 25.2656 Q90.8789 26.25 91.293 26.8125 Q91.707 27.375 92.4414 27.375 Q93.1602 27.375 93.582 26.8125 Q94.0039 26.25 94.0039 25.2656 Q94.0039 24.2969 93.582 23.7266 Q93.1602 23.1562 92.4414 23.1562 ZM92.4414 22.4062 Q93.6133 22.4062 94.2852 23.1641 Q94.957 23.9219 94.957 25.2656 Q94.957 26.6094 94.2852 27.375 Q93.6133 28.1406 92.4414 28.1406 Q91.2695 28.1406 90.5977 27.375 Q89.9258 26.6094 89.9258 25.2656 Q89.9258 23.9219 90.5977 23.1641 Q91.2695 22.4062 92.4414 22.4062 ZM103.0977 22.6875 L103.0977 23.5469 Q102.7227 23.3438 102.3164 23.25 Q101.9102 23.1562 101.457 23.1562 Q100.8008 23.1562 100.4648 23.3594 Q100.1289 23.5625 100.1289 23.9688 Q100.1289 24.2812 100.3633 24.4609 Q100.5977 24.6406 101.332 24.7969 L101.6289 24.875 Q102.5977 25.0781 102.9961 25.4531 Q103.3945 25.8281 103.3945 26.4844 Q103.3945 27.25 102.793 27.6953 Q102.1914 28.1406 101.1445 28.1406 Q100.6914 28.1406 100.2148 28.0547 Q99.7383 27.9688 99.2227 27.7969 L99.2227 26.875 Q99.7227 27.125 100.1992 27.2578 Q100.6758 27.3906 101.1602 27.3906 Q101.7852 27.3906 102.1289 27.1719 Q102.4727 26.9531 102.4727 26.5625 Q102.4727 26.1875 102.2305 25.9922 Q101.9883 25.7969 101.1445 25.625 L100.832 25.5469 Q100.0039 25.375 99.6289 25.0078 Q99.2539 24.6406 99.2539 24.0156 Q99.2539 23.2344 99.8008 22.8203 Q100.3477 22.4062 101.3633 22.4062 Q101.8477 22.4062 102.293 22.4766 Q102.7383 22.5469 103.0977 22.6875 ZM107.3076 25.25 Q106.2295 25.25 105.8076 25.5 Q105.3857 25.75 105.3857 26.3438 Q105.3857 26.8281 105.6982 27.1094 Q106.0107 27.3906 106.5576 27.3906 Q107.3076 27.3906 107.7607 26.8594 Q108.2139 26.3281 108.2139 25.4531 L108.2139 25.25 L107.3076 25.25 ZM109.1045 24.875 L109.1045 28 L108.2139 28 L108.2139 27.1719 Q107.9014 27.6719 107.4404 27.9062 Q106.9795 28.1406 106.3232 28.1406 Q105.4795 28.1406 104.9795 27.6719 Q104.4795 27.2031 104.4795 26.4062 Q104.4795 25.4844 105.1045 25.0156 Q105.7295 24.5469 106.9482 24.5469 L108.2139 24.5469 L108.2139 24.4531 Q108.2139 23.8438 107.7998 23.5 Q107.3857 23.1562 106.6514 23.1562 Q106.1826 23.1562 105.7373 23.2734 Q105.292 23.3906 104.8857 23.6094 L104.8857 22.7812 Q105.3857 22.5938 105.8467 22.5 Q106.3076 22.4062 106.7451 22.4062 Q107.9326 22.4062 108.5186 23.0156 Q109.1045 23.625 109.1045 24.875 ZM111.8262 27.1719 L111.8262 30.0781 L110.9199 30.0781 L110.9199 22.5312 L111.8262 22.5312 L111.8262 23.3594 Q112.1074 22.875 112.5371 22.6406 Q112.9668 22.4062 113.5762 22.4062 Q114.5762 22.4062 115.1934 23.1953 Q115.8105 23.9844 115.8105 25.2656 Q115.8105 26.5625 115.1934 27.3516 Q114.5762 28.1406 113.5762 28.1406 Q112.9668 28.1406 112.5371 27.9062 Q112.1074 27.6719 111.8262 27.1719 ZM114.8887 25.2656 Q114.8887 24.2812 114.4746 23.7188 Q114.0605 23.1562 113.3574 23.1562 Q112.6387 23.1562 112.2324 23.7188 Q111.8262 24.2812 111.8262 25.2656 Q111.8262 26.2656 112.2324 26.8281 Q112.6387 27.3906 113.3574 27.3906 Q114.0605 27.3906 114.4746 26.8281 Q114.8887 26.2656 114.8887 25.2656 ZM117.2988 22.5312 L118.2051 22.5312 L118.2051 28 L117.2988 28 L117.2988 22.5312 ZM117.2988 20.4062 L118.2051 20.4062 L118.2051 21.5469 L117.2988 21.5469 L117.2988 20.4062 ZM124.7646 25.0469 L124.7646 25.4844 L120.624 25.4844 Q120.6865 26.4062 121.1865 26.8906 Q121.6865 27.375 122.5771 27.375 Q123.0928 27.375 123.585 27.25 Q124.0771 27.125 124.5459 26.875 L124.5459 27.7188 Q124.0615 27.9219 123.5537 28.0312 Q123.0459 28.1406 122.5303 28.1406 Q121.2178 28.1406 120.4521 27.3828 Q119.6865 26.625 119.6865 25.3125 Q119.6865 23.9688 120.4131 23.1875 Q121.1396 22.4062 122.374 22.4062 Q123.4834 22.4062 124.124 23.1094 Q124.7646 23.8125 124.7646 25.0469 ZM123.8584 24.7812 Q123.8584 24.0469 123.4521 23.6016 Q123.0459 23.1562 122.3896 23.1562 Q121.624 23.1562 121.1787 23.5859 Q120.7334 24.0156 120.6553 24.7812 L123.8584 24.7812 ZM130.7764 24.7031 L130.7764 28 L129.8857 28 L129.8857 24.7344 Q129.8857 23.9531 129.5811 23.5703 Q129.2764 23.1875 128.667 23.1875 Q127.9482 23.1875 127.5264 23.6484 Q127.1045 24.1094 127.1045 24.9062 L127.1045 28 L126.1982 28 L126.1982 22.5312 L127.1045 22.5312 L127.1045 23.375 Q127.4326 22.8906 127.8701 22.6484 Q128.3076 22.4062 128.8701 22.4062 Q129.8076 22.4062 130.292 22.9844 Q130.7764 23.5625 130.7764 24.7031 ZM136.0518 22.6875 L136.0518 23.5469 Q135.6768 23.3438 135.2705 23.25 Q134.8643 23.1562 134.4111 23.1562 Q133.7549 23.1562 133.4189 23.3594 Q133.083 23.5625 133.083 23.9688 Q133.083 24.2812 133.3174 24.4609 Q133.5518 24.6406 134.2861 24.7969 L134.583 24.875 Q135.5518 25.0781 135.9502 25.4531 Q136.3486 25.8281 136.3486 26.4844 Q136.3486 27.25 135.7471 27.6953 Q135.1455 28.1406 134.0986 28.1406 Q133.6455 28.1406 133.1689 28.0547 Q132.6924 27.9688 132.1768 27.7969 L132.1768 26.875 Q132.6768 27.125 133.1533 27.2578 Q133.6299 27.3906 134.1143 27.3906 Q134.7393 27.3906 135.083 27.1719 Q135.4268 26.9531 135.4268 26.5625 Q135.4268 26.1875 135.1846 25.9922 Q134.9424 25.7969 134.0986 25.625 L133.7861 25.5469 Q132.958 25.375 132.583 25.0078 Q132.208 24.6406 132.208 24.0156 Q132.208 23.2344 132.7549 22.8203 Q133.3018 22.4062 134.3174 22.4062 Q134.8018 22.4062 135.2471 22.4766 Q135.6924 22.5469 136.0518 22.6875 Z"
         style="clip-path:url(#clipPath3); stroke:none;"
         clip-path="url(#clipPath3)"
         id="path151" />
    </g>
    <g
       style="fill:navy; text-rendering:geometricPrecision; font-size:8; stroke:navy;"
       id="g157">
      <text
         x="150"
         xml:space="preserve"
         y="16"
         style="clip-path:url(#clipPath5); stroke:none;"
         clip-path="url(#clipPath5)"
         id="text155">2</text>
    </g>
    <g
       style="fill:rgb(180,180,100); text-rendering:geometricPrecision; fill-opacity:0.098; stroke-opacity:0.098; stroke:rgb(180,180,100);"
       id="g161">
      <path
         d="M483.5 199.75 L529 199.75 L547 217.75 L547 248.75 L529 266.75 L483.5 266.75 L465.5 248.75 L465.5 217.75 Z"
         style="clip-path:url(#clipPath6); stroke:none;"
         clip-path="url(#clipPath6)"
         id="path159" />
    </g>
    <g
       style="fill:gray; text-rendering:geometricPrecision; stroke:gray;"
       id="g165">
      <path
         d="M483.5 199.75 L529 199.75 L547 217.75 L547 248.75 L529 266.75 L483.5 266.75 L465.5 248.75 L465.5 217.75 Z"
         style="fill:none; clip-path:url(#clipPath6);"
         clip-path="url(#clipPath6)"
         id="path163" />
    </g>
    <g
       style="fill:rgb(180,180,100); text-rendering:geometricPrecision; fill-opacity:0.098; stroke-opacity:0.098; stroke:rgb(180,180,100);"
       id="g169">
      <path
         d="M335 280.5 L381 280.5 L399 298.5 L399 327 L381 345 L335 345 L317 327 L317 298.5 Z"
         style="clip-path:url(#clipPath7); stroke:none;"
         clip-path="url(#clipPath7)"
         id="path167" />
    </g>
    <g
       style="fill:gray; text-rendering:geometricPrecision; stroke:gray;"
       id="g173">
      <path
         d="M335 280.5 L381 280.5 L399 298.5 L399 327 L381 345 L335 345 L317 327 L317 298.5 Z"
         style="fill:none; clip-path:url(#clipPath7);"
         clip-path="url(#clipPath7)"
         id="path171" />
    </g>
    <g
       style="text-rendering:geometricPrecision;"
       id="g181">
      <path
         d="M537.8003 452.1722 L475.9977 453.5848"
         style="fill:none; clip-path:url(#clipPath8);"
         clip-path="url(#clipPath8)"
         id="path175" />
      <path
         d="M476.1165 458.7835 L464.3007 453.8522 L475.8788 448.3862 Z"
         style="fill:white; clip-path:url(#clipPath8); stroke:none;"
         clip-path="url(#clipPath8)"
         id="path177" />
      <path
         d="M476.1165 458.7835 L464.3007 453.8522 L475.8788 448.3862 Z"
         style="fill:none; clip-path:url(#clipPath8);"
         clip-path="url(#clipPath8)"
         id="path179" />
    </g>
    <g
       style="text-rendering:geometricPrecision;"
       id="g189">
      <path
         d="M676.505 411.9314 L570.7045 443.3594"
         style="fill:none; clip-path:url(#clipPath9);"
         clip-path="url(#clipPath9)"
         id="path183" />
      <path
         d="M572.1852 448.3441 L559.4889 446.691 L569.2238 438.3747 Z"
         style="fill:white; clip-path:url(#clipPath9); stroke:none;"
         clip-path="url(#clipPath9)"
         id="path185" />
      <path
         d="M572.1852 448.3441 L559.4889 446.691 L569.2238 438.3747 Z"
         style="fill:none; clip-path:url(#clipPath9);"
         clip-path="url(#clipPath9)"
         id="path187" />
    </g>
    <g
       style="text-rendering:geometricPrecision;"
       id="g197">
      <path
         d="M633.75 513 L614.3716 534.7639"
         style="fill:none; clip-path:url(#clipPath10);"
         clip-path="url(#clipPath10)"
         id="path191" />
      <path
         d="M618.2552 538.2219 L606.5912 543.5021 L610.4879 531.306 Z"
         style="fill:white; clip-path:url(#clipPath10); stroke:none;"
         clip-path="url(#clipPath10)"
         id="path193" />
      <path
         d="M618.2552 538.2219 L606.5912 543.5021 L610.4879 531.306 Z"
         style="fill:none; clip-path:url(#clipPath10);"
         clip-path="url(#clipPath10)"
         id="path195" />
    </g>
    <g
       style="text-rendering:geometricPrecision;"
       id="g205">
      <path
         d="M644.3652 357.4906 L669.8685 380.8522"
         style="fill:none; clip-path:url(#clipPath11);"
         clip-path="url(#clipPath11)"
         id="path199" />
      <path
         d="M673.3809 377.0178 L678.4959 388.7552 L666.356 384.6866 Z"
         style="fill:white; clip-path:url(#clipPath11); stroke:none;"
         clip-path="url(#clipPath11)"
         id="path201" />
      <path
         d="M673.3809 377.0178 L678.4959 388.7552 L666.356 384.6866 Z"
         style="fill:none; clip-path:url(#clipPath11);"
         clip-path="url(#clipPath11)"
         id="path203" />
    </g>
    <g
       style="text-rendering:geometricPrecision;"
       id="g213">
      <path
         d="M404.5 149 L443.9418 287.9172"
         style="fill:none; clip-path:url(#clipPath12);"
         clip-path="url(#clipPath12)"
         id="path207" />
      <path
         d="M448.9441 286.4969 L447.1375 299.1723 L438.9396 289.3375 Z"
         style="fill:white; clip-path:url(#clipPath12); stroke:none;"
         clip-path="url(#clipPath12)"
         id="path209" />
      <path
         d="M448.9441 286.4969 L447.1375 299.1723 L438.9396 289.3375 Z"
         style="fill:none; clip-path:url(#clipPath12);"
         clip-path="url(#clipPath12)"
         id="path211" />
    </g>
    <g
       style="text-rendering:geometricPrecision;"
       id="g221">
      <path
         d="M467 479.2905 L500.3678 519.7896"
         style="fill:none; clip-path:url(#clipPath13);"
         clip-path="url(#clipPath13)"
         id="path215" />
      <path
         d="M504.3811 516.483 L507.8077 528.8194 L496.3546 523.0961 Z"
         style="fill:white; clip-path:url(#clipPath13); stroke:none;"
         clip-path="url(#clipPath13)"
         id="path217" />
      <path
         d="M504.3811 516.483 L507.8077 528.8194 L496.3546 523.0961 Z"
         style="fill:none; clip-path:url(#clipPath13);"
         clip-path="url(#clipPath13)"
         id="path219" />
    </g>
    <g
       style="text-rendering:geometricPrecision;"
       id="g229">
      <path
         d="M493.75 335.25 L476.2635 319.3746"
         style="fill:none; clip-path:url(#clipPath14);"
         clip-path="url(#clipPath14)"
         id="path223" />
      <path
         d="M472.7682 323.2246 L467.601 311.5101 L479.7589 315.5246 Z"
         style="fill:white; clip-path:url(#clipPath14); stroke:none;"
         clip-path="url(#clipPath14)"
         id="path225" />
      <path
         d="M472.7682 323.2246 L467.601 311.5101 L479.7589 315.5246 Z"
         style="fill:none; clip-path:url(#clipPath14);"
         clip-path="url(#clipPath14)"
         id="path227" />
    </g>
    <g
       style="text-rendering:geometricPrecision;"
       id="g237">
      <path
         d="M563 304.75 L635.4575 315.2053"
         style="fill:none; clip-path:url(#clipPath15);"
         clip-path="url(#clipPath15)"
         id="path231" />
      <path
         d="M636.2001 310.0586 L647.0375 316.8762 L634.7148 320.352 Z"
         style="fill:white; clip-path:url(#clipPath15); stroke:none;"
         clip-path="url(#clipPath15)"
         id="path233" />
      <path
         d="M636.2001 310.0586 L647.0375 316.8762 L634.7148 320.352 Z"
         style="fill:none; clip-path:url(#clipPath15);"
         clip-path="url(#clipPath15)"
         id="path235" />
    </g>
    <g
       style="text-rendering:geometricPrecision;"
       id="g243">
      <path
         d="M400 296.875 L516 296.125"
         style="fill:none; clip-path:url(#clipPath16);"
         clip-path="url(#clipPath16)"
         id="path239" />
      <path
         d="M516 296.125 L504.2666 291.0008 L510.8001 296.1586 L504.3339 301.4005 Z"
         style="clip-path:url(#clipPath16); stroke:none;"
         clip-path="url(#clipPath16)"
         id="path241" />
    </g>
    <g
       style="text-rendering:geometricPrecision;"
       id="g251">
      <path
         d="M465.5 233.75 L443.0443 255.8509"
         style="fill:none; clip-path:url(#clipPath17);"
         clip-path="url(#clipPath17)"
         id="path245" />
      <path
         d="M446.6919 259.557 L434.7056 264.058 L439.3968 252.1448 Z"
         style="fill:white; clip-path:url(#clipPath17); stroke:none;"
         clip-path="url(#clipPath17)"
         id="path247" />
      <path
         d="M446.6919 259.557 L434.7056 264.058 L439.3968 252.1448 Z"
         style="fill:none; clip-path:url(#clipPath17);"
         clip-path="url(#clipPath17)"
         id="path249" />
    </g>
    <g
       style="text-rendering:geometricPrecision;"
       id="g259">
      <path
         d="M562.0771 470.9222 L601.6991 487.5222"
         style="fill:none; clip-path:url(#clipPath18);"
         clip-path="url(#clipPath18)"
         id="path253" />
      <path
         d="M603.7084 482.7262 L612.4903 492.0433 L599.6897 492.3183 Z"
         style="fill:white; clip-path:url(#clipPath18); stroke:none;"
         clip-path="url(#clipPath18)"
         id="path255" />
      <path
         d="M603.7084 482.7262 L612.4903 492.0433 L599.6897 492.3183 Z"
         style="fill:none; clip-path:url(#clipPath18);"
         clip-path="url(#clipPath18)"
         id="path257" />
    </g>
    <g
       style="fill:navy; text-rendering:geometricPrecision; font-size:8; stroke:navy;"
       id="g263">
      <text
         x="426"
         xml:space="preserve"
         y="249"
         style="clip-path:url(#clipPath20); stroke:none;"
         clip-path="url(#clipPath20)"
         id="text261">1</text>
    </g>
    <g
       style="text-rendering:geometricPrecision;"
       id="g269">
      <path
         d="M467 466.5405 L423.4681 490.7924 L353.0319 481.529 L353.0319 451.552 L423.4681 442.2886 Z"
         style="fill:none; clip-path:url(#clipPath21);"
         clip-path="url(#clipPath21)"
         id="path265" />
      <text
         x="358"
         y="470"
         style="font-size:10; clip-path:url(#clipPath21); stroke:none;"
         xml:space="preserve"
         clip-path="url(#clipPath21)"
         id="text267">Transcription Factors</text>
    </g>
    <g
       style="fill:silver; text-rendering:geometricPrecision; stroke:silver;"
       id="g273">
      <path
         d="M302 198.5 L302 198.5 L302 198.5 L303.5 198.5 L303.5 200 L303.5 588 L303.5 589.5 L302 589.5 L299 589.5 L299 588 L299 586.5 L302 586.5 L303.5 586.5 L303.5 588 C303.5 591.0374 305.9625 593.5 309 593.5 L310.5 593.5 L310.5 595 L310.5 598 L309 598 L307.5 598 L307.5 595 L307.5 593.5 L309 593.5 L769.673 593.5 L771.173 593.5 L771.173 595 L771.173 598 L769.673 598 L768.173 598 L768.173 595 L768.173 593.5 L769.673 593.5 C772.7101 593.5 775.173 591.0374 775.173 588 L775.173 586.5 L776.673 586.5 L779.673 586.5 L779.673 588 L779.673 589.5 L776.673 589.5 L775.173 589.5 L775.173 588 L775.173 200 L775.173 198.5 L776.673 198.5 L779.673 198.5 L779.673 200 L779.673 201.5 L776.673 201.5 L775.173 201.5 L775.173 200 C775.173 196.9625 772.7101 194.5 769.673 194.5 L768.173 194.5 L768.173 193 L768.173 190 L769.673 190 L771.173 190 L771.173 193 L771.173 194.5 L769.673 194.5 L309 194.5 L307.5 194.5 L307.5 193 L307.5 190 L309 190 L310.5 190 L310.5 193 L310.5 194.5 L309 194.5 C305.9626 194.5 303.5 196.9625 303.5 200 L303.5 201.5 L302 201.5 L299 201.5 L299 200 L299 198.5 L302 198.5 L303.5 198.5 L303.5 201.5 L302 201.5 L299 201.5 L299 198.5 L302 198.5 L302 200 L300.5 200 C300.5 195.3056 304.3058 191.5 309 191.5 L309 193 L307.5 193 L307.5 190 L310.5 190 L310.5 193 L309 193 L309 191.5 L769.673 191.5 L769.673 193 L768.173 193 L768.173 190 L771.173 190 L771.173 193 L769.673 193 L769.673 191.5 C774.3669 191.5 778.173 195.3055 778.173 200 L776.673 200 L776.673 198.5 L779.673 198.5 L779.673 201.5 L776.673 201.5 L776.673 200 L778.173 200 L778.173 588 L776.673 588 L776.673 586.5 L779.673 586.5 L779.673 589.5 L776.673 589.5 L776.673 588 L778.173 588 C778.173 592.6943 774.3669 596.5 769.673 596.5 L769.673 595 L771.173 595 L771.173 598 L768.173 598 L768.173 595 L769.673 595 L769.673 596.5 L309 596.5 L309 595 L310.5 595 L310.5 598 L307.5 598 L307.5 595 L309 595 L309 596.5 C304.3056 596.5 300.5 592.6943 300.5 588 L302 588 L302 589.5 L299 589.5 L299 586.5 L302 586.5 L302 588 L300.5 588 L300.5 200 L302 200 L302 201.5 L302 201.5 L300.5 201.5 L300.5 198.5 ZM296 198.5 L296 198.5 L296 198.5 L296 200 L294.5 200 C294.5 191.9919 300.992 185.5 309 185.5 L309 187 L309 185.5 L309 185.5 L309 187 L309 185.5 L769.673 185.5 L769.673 187 L769.673 185.5 L769.673 185.5 L769.673 187 L769.673 185.5 C777.6807 185.5 784.173 191.9919 784.173 200 L782.673 200 L782.673 198.5 L782.673 198.5 L784.173 198.5 L784.173 200 L784.173 588 L782.673 588 L782.673 586.5 L782.673 586.5 L784.173 586.5 L784.173 588 C784.173 596.0078 777.681 602.5 769.673 602.5 L769.673 601 L769.673 599.5 L769.673 599.5 L769.673 601 L769.673 602.5 L309 602.5 L309 601 L309 599.5 L309 599.5 L309 601 L309 602.5 C300.9919 602.5 294.5 596.0078 294.5 588 L294.5 586.5 L296 586.5 L296 586.5 L296 588 L294.5 588 L294.5 200 L294.5 198.5 L296 198.5 M296 201.5 L296 200 L297.5 200 L297.5 588 L297.5 589.5 L296 589.5 L296 589.5 L296 588 L297.5 588 C297.5 594.3511 302.6488 599.5 309 599.5 L309 602.5 L309 602.5 L309 599.5 L769.673 599.5 L769.673 602.5 L769.673 602.5 L769.673 599.5 C776.0241 599.5 781.173 594.3509 781.173 588 L782.673 588 L782.673 589.5 L782.673 589.5 L781.173 589.5 L781.173 588 L781.173 200 L782.673 200 L782.673 201.5 L782.673 201.5 L781.173 201.5 L781.173 200 C781.173 193.6488 776.0239 188.5 769.673 188.5 L769.673 188.5 L769.673 188.5 L769.673 188.5 L309 188.5 L309 188.5 L309 188.5 L309 188.5 C302.6488 188.5 297.5 193.6488 297.5 200 L297.5 201.5 L296 201.5 L296 201.5 Z"
         style="clip-path:url(#clipPath22); stroke:none;"
         clip-path="url(#clipPath22)"
         id="path271" />
    </g>
    <g
       style="fill:silver; text-rendering:geometricPrecision; font-size:10; stroke:silver;"
       id="g277">
      <text
         x="707"
         xml:space="preserve"
         y="205"
         style="clip-path:url(#clipPath22); stroke:none;"
         clip-path="url(#clipPath22)"
         id="text275">CYTOPLASAM</text>
    </g>
    <g
       style="text-rendering:geometricPrecision;"
       id="g285">
      <path
         d="M608.3867 556.2356 L574.288 581.7833 L506.0908 581.7833 L471.9922 556.2356 L506.0908 530.6879 L574.288 530.6879 Z"
         style="fill:none; clip-path:url(#clipPath23);"
         clip-path="url(#clipPath23)"
         id="path279" />
      <text
         x="503"
         y="553"
         style="font-size:11; clip-path:url(#clipPath23); stroke:none; font-weight:bold;"
         xml:space="preserve"
         clip-path="url(#clipPath23)"
         id="text281">Cell growth,</text>
      <text
         x="490"
         y="565"
         style="font-size:11; clip-path:url(#clipPath23); stroke:none; font-weight:bold;"
         xml:space="preserve"
         clip-path="url(#clipPath23)"
         id="text283">survival,motility</text>
    </g>
    <g
       style="text-rendering:geometricPrecision;"
       id="g293">
      <path
         d="M610 479 L610 503 C610 508.5229 614.4772 513 620 513 L695 513 C700.5228 513 705 508.5229 705 503 L705 479 C705 473.4771 700.5228 469 695 469 L620 469 C614.4772 469 610 473.4771 610 479 Z"
         style="fill:none; clip-path:url(#clipPath24);"
         clip-path="url(#clipPath24)"
         id="path287" />
      <text
         x="625"
         y="488"
         style="font-size:10; clip-path:url(#clipPath24); stroke:none;"
         xml:space="preserve"
         clip-path="url(#clipPath24)"
         id="text289">Cytoplasmic </text>
      <text
         x="640"
         y="499"
         style="font-size:10; clip-path:url(#clipPath24); stroke:none;"
         xml:space="preserve"
         clip-path="url(#clipPath24)"
         id="text291">targets</text>
    </g>
    <g
       style="fill:rgb(255,255,153); text-rendering:geometricPrecision; stroke:rgb(255,255,153);"
       id="g303">
      <path
         d="M765.4584 297.588 C765.4584 311.4417 740.4291 322.6724 709.554 322.6724 C678.6789 322.6724 653.6496 311.4417 653.6496 297.588 C653.6496 283.7342 678.6789 272.5035 709.554 272.5035 C740.4291 272.5035 765.4584 283.7342 765.4584 297.588 Z"
         style="clip-path:url(#clipPath25); stroke:none;"
         clip-path="url(#clipPath25)"
         id="path295" />
      <path
         d="M765.4584 297.588 C765.4584 311.4417 740.4291 322.6724 709.554 322.6724 C678.6789 322.6724 653.6496 311.4417 653.6496 297.588 C653.6496 283.7342 678.6789 272.5035 709.554 272.5035 C740.4291 272.5035 765.4584 283.7342 765.4584 297.588 Z"
         style="fill:none; clip-path:url(#clipPath25); stroke:rgb(64,64,64);"
         clip-path="url(#clipPath25)"
         id="path297" />
      <text
         x="668"
         y="294"
         style="fill:rgb(64,64,64); clip-path:url(#clipPath25); stroke:none;"
         xml:space="preserve"
         clip-path="url(#clipPath25)"
         id="text299">SRGAP3:RAF1</text>
      <text
         x="667"
         y="307"
         style="fill:rgb(64,64,64); clip-path:url(#clipPath25); stroke:none;"
         xml:space="preserve"
         clip-path="url(#clipPath25)"
         id="text301">Fusion protein</text>
    </g>
    <g
       style="fill:rgb(64,64,64); text-rendering:geometricPrecision; font-size:8; stroke:rgb(64,64,64);"
       id="g307">
      <text
         x="504"
         xml:space="preserve"
         y="283"
         style="clip-path:url(#clipPath26); stroke:none;"
         clip-path="url(#clipPath26)"
         id="text305">RAS in &quot;on&quot; state</text>
    </g>
    <g
       style="fill:rgb(64,64,64); text-rendering:geometricPrecision; stroke:rgb(64,64,64);"
       id="g311">
      <text
         x="470"
         xml:space="preserve"
         y="174"
         style="clip-path:url(#clipPath27); stroke:none;"
         clip-path="url(#clipPath27)"
         id="text309">Plasma Membrane</text>
    </g>
    <g
       style="fill:rgb(255,255,153); text-rendering:geometricPrecision; stroke:rgb(255,255,153);"
       id="g321">
      <path
         d="M641.791 377.1899 C641.791 391.0437 616.7618 402.2744 585.8867 402.2744 C555.0115 402.2744 529.9822 391.0437 529.9822 377.1899 C529.9822 363.3362 555.0115 352.1055 585.8867 352.1055 C616.7618 352.1055 641.791 363.3362 641.791 377.1899 Z"
         style="clip-path:url(#clipPath28); stroke:none;"
         clip-path="url(#clipPath28)"
         id="path313" />
      <path
         d="M641.791 377.1899 C641.791 391.0437 616.7618 402.2744 585.8867 402.2744 C555.0115 402.2744 529.9822 391.0437 529.9822 377.1899 C529.9822 363.3362 555.0115 352.1055 585.8867 352.1055 C616.7618 352.1055 641.791 363.3362 641.791 377.1899 Z"
         style="fill:none; clip-path:url(#clipPath28); stroke:rgb(64,64,64);"
         clip-path="url(#clipPath28)"
         id="path315" />
      <text
         x="538"
         y="374"
         style="fill:rgb(64,64,64); clip-path:url(#clipPath28); stroke:none;"
         xml:space="preserve"
         clip-path="url(#clipPath28)"
         id="text317">KIAA1549:BRAF</text>
      <text
         x="544"
         y="387"
         style="fill:rgb(64,64,64); clip-path:url(#clipPath28); stroke:none;"
         xml:space="preserve"
         clip-path="url(#clipPath28)"
         id="text319">fusion protein</text>
    </g>
    <g
       style="fill:white; text-rendering:geometricPrecision; stroke:white;"
       id="g329">
      <path
         d="M596.395 324.4906 L646.0972 324.4906 L646.0972 349.4906 L596.395 349.4906 L596.395 324.4906 Z"
         style="clip-path:url(#clipPath29); stroke:none;"
         clip-path="url(#clipPath29)"
         id="path323" />
      <path
         d="M596.395 324.4906 L646.0972 324.4906 L646.0972 349.4906 L596.395 349.4906 L596.395 324.4906 Z"
         style="fill:none; clip-path:url(#clipPath29); stroke:black;"
         clip-path="url(#clipPath29)"
         id="path325" />
      <text
         x="606"
         y="341"
         style="fill:black; clip-path:url(#clipPath29); stroke:none;"
         xml:space="preserve"
         clip-path="url(#clipPath29)"
         id="text327">BRAF</text>
    </g>
    <g
       style="fill:white; text-rendering:geometricPrecision; stroke:white;"
       id="g337">
      <path
         d="M472.5 335.25 L515 335.25 L515 354 L472.5 354 L472.5 335.25 Z"
         style="clip-path:url(#clipPath30); stroke:none;"
         clip-path="url(#clipPath30)"
         id="path331" />
      <path
         d="M472.5 335.25 L515 335.25 L515 354 L472.5 354 L472.5 335.25 Z"
         style="fill:none; clip-path:url(#clipPath30); stroke:black;"
         clip-path="url(#clipPath30)"
         id="path333" />
      <text
         x="484"
         y="348"
         style="font-size:10; clip-path:url(#clipPath30); fill:black; stroke:none;"
         xml:space="preserve"
         clip-path="url(#clipPath30)"
         id="text335">NF1</text>
    </g>
    <g
       style="fill:white; text-rendering:geometricPrecision; stroke:white;"
       id="g345">
      <path
         d="M477.5 233 L536 233 L536 255.75 L477.5 255.75 L477.5 233 Z"
         style="clip-path:url(#clipPath31); stroke:none;"
         clip-path="url(#clipPath31)"
         id="path339" />
      <path
         d="M477.5 233 L536 233 L536 255.75 L477.5 255.75 L477.5 233 Z"
         style="fill:none; clip-path:url(#clipPath31); stroke:black;"
         clip-path="url(#clipPath31)"
         id="path341" />
      <text
         x="493"
         y="248"
         style="font-size:10; clip-path:url(#clipPath31); fill:black; stroke:none;"
         xml:space="preserve"
         clip-path="url(#clipPath31)"
         id="text343">SOS1</text>
    </g>
    <g
       style="fill:white; text-rendering:geometricPrecision; stroke:white;"
       id="g355">
      <path
         d="M281.0696 53.377 L464.0696 53.377 L464.0696 81.877 L281.0696 81.877 L281.0696 53.377 Z"
         style="clip-path:url(#clipPath32); stroke:none;"
         clip-path="url(#clipPath32)"
         id="path347" />
      <path
         d="M281.0696 53.377 L464.0696 53.377 L464.0696 81.877 L281.0696 81.877 L281.0696 53.377 Z"
         style="fill:none; clip-path:url(#clipPath32); stroke:rgb(20,150,30);"
         clip-path="url(#clipPath32)"
         id="path349" />
      <text
         x="323"
         y="65"
         style="clip-path:url(#clipPath32); fill:rgb(20,150,30); stroke:none; font-weight:bold;"
         xml:space="preserve"
         clip-path="url(#clipPath32)"
         id="text351">Regular MAPK </text>
      <text
         x="314"
         y="78"
         style="clip-path:url(#clipPath32); fill:rgb(20,150,30); stroke:none; font-weight:bold;"
         xml:space="preserve"
         clip-path="url(#clipPath32)"
         id="text353">Cascade pathway</text>
    </g>
    <g
       style="fill:white; text-rendering:geometricPrecision; stroke:white;"
       id="g363">
      <path
         d="M335.5 320.5 L335.5 324 C335.5 329.5229 339.9771 334 345.5 334 L371.5 334 C377.0229 334 381.5 329.5229 381.5 324 L381.5 320.5 C381.5 314.9771 377.0229 310.5 371.5 310.5 L345.5 310.5 C339.9771 310.5 335.5 314.9771 335.5 320.5 Z"
         style="clip-path:url(#clipPath33); stroke:none;"
         clip-path="url(#clipPath33)"
         id="path357" />
      <path
         d="M335.5 320.5 L335.5 324 C335.5 329.5229 339.9771 334 345.5 334 L371.5 334 C377.0229 334 381.5 329.5229 381.5 324 L381.5 320.5 C381.5 314.9771 377.0229 310.5 371.5 310.5 L345.5 310.5 C339.9771 310.5 335.5 314.9771 335.5 320.5 Z"
         style="fill:none; clip-path:url(#clipPath33); stroke:blue;"
         clip-path="url(#clipPath33)"
         id="path359" />
      <text
         x="346"
         y="326"
         style="fill:blue; clip-path:url(#clipPath33); stroke:none;"
         xml:space="preserve"
         clip-path="url(#clipPath33)"
         id="text361">GDP</text>
    </g>
    <g
       style="fill:white; text-rendering:geometricPrecision; stroke:white;"
       id="g371">
      <path
         d="M516 287.5 L563 287.5 L563 322 L516 322 L516 287.5 Z"
         style="clip-path:url(#clipPath34); stroke:none;"
         clip-path="url(#clipPath34)"
         id="path365" />
      <path
         d="M516 287.5 L563 287.5 L563 322 L516 322 L516 287.5 Z"
         style="fill:none; clip-path:url(#clipPath34); stroke:black;"
         clip-path="url(#clipPath34)"
         id="path367" />
      <text
         x="518"
         y="308"
         style="font-size:10; clip-path:url(#clipPath34); fill:black; stroke:none;"
         xml:space="preserve"
         clip-path="url(#clipPath34)"
         id="text369">RAS:GTP</text>
    </g>
    <g
       style="fill:white; text-rendering:geometricPrecision; stroke:white;"
       id="g379">
      <path
         d="M358 131 L420 131 L420 149 L358 149 L358 131 Z"
         style="clip-path:url(#clipPath35); stroke:none;"
         clip-path="url(#clipPath35)"
         id="path373" />
      <path
         d="M358 131 L420 131 L420 149 L358 149 L358 131 Z"
         style="fill:none; clip-path:url(#clipPath35); stroke:black;"
         clip-path="url(#clipPath35)"
         id="path375" />
      <text
         x="380"
         y="143"
         style="font-size:10; clip-path:url(#clipPath35); fill:black; stroke:none;"
         xml:space="preserve"
         clip-path="url(#clipPath35)"
         id="text377">RTK</text>
    </g>
    <g
       style="fill:white; text-rendering:geometricPrecision; stroke:white;"
       id="g387">
      <path
         d="M345.5 199.25 L411.5 199.25 L411.5 229.75 L345.5 229.75 L345.5 199.25 Z"
         style="clip-path:url(#clipPath36); stroke:none;"
         clip-path="url(#clipPath36)"
         id="path381" />
      <path
         d="M345.5 199.25 L411.5 199.25 L411.5 229.75 L345.5 229.75 L345.5 199.25 Z"
         style="fill:none; clip-path:url(#clipPath36); stroke:black;"
         clip-path="url(#clipPath36)"
         id="path383" />
      <text
         x="359"
         y="218"
         style="font-size:10; clip-path:url(#clipPath36); fill:black; stroke:none;"
         xml:space="preserve"
         clip-path="url(#clipPath36)"
         id="text385">PTPN11</text>
    </g>
    <g
       style="fill:white; text-rendering:geometricPrecision; stroke:white;"
       id="g395">
      <path
         d="M655.071 386.9314 L697.9389 386.9314 L697.9389 411.9314 L655.071 411.9314 L655.071 386.9314 Z"
         style="clip-path:url(#clipPath37); stroke:none;"
         clip-path="url(#clipPath37)"
         id="path389" />
      <path
         d="M655.071 386.9314 L697.9389 386.9314 L697.9389 411.9314 L655.071 411.9314 L655.071 386.9314 Z"
         style="fill:none; clip-path:url(#clipPath37); stroke:black;"
         clip-path="url(#clipPath37)"
         id="path391" />
      <text
         x="664"
         y="403"
         style="fill:black; clip-path:url(#clipPath37); stroke:none;"
         xml:space="preserve"
         clip-path="url(#clipPath37)"
         id="text393">MEK</text>
    </g>
    <g
       style="fill:white; text-rendering:geometricPrecision; stroke:white;"
       id="g403">
      <path
         d="M642.6332 324.4906 L692.3354 324.4906 L692.3354 349.4906 L642.6332 349.4906 L642.6332 324.4906 Z"
         style="clip-path:url(#clipPath38); stroke:none;"
         clip-path="url(#clipPath38)"
         id="path397" />
      <path
         d="M642.6332 324.4906 L692.3354 324.4906 L692.3354 349.4906 L642.6332 349.4906 L642.6332 324.4906 Z"
         style="fill:none; clip-path:url(#clipPath38); stroke:black;"
         clip-path="url(#clipPath38)"
         id="path399" />
      <text
         x="652"
         y="341"
         style="fill:black; clip-path:url(#clipPath38); stroke:none;"
         xml:space="preserve"
         clip-path="url(#clipPath38)"
         id="text401">RAF1</text>
    </g>
    <g
       style="fill:white; text-rendering:geometricPrecision; stroke:white;"
       id="g411">
      <path
         d="M477.5 211.75 L536 211.75 L536 233 L477.5 233 L477.5 211.75 Z"
         style="clip-path:url(#clipPath39); stroke:none;"
         clip-path="url(#clipPath39)"
         id="path405" />
      <path
         d="M477.5 211.75 L536 211.75 L536 233 L477.5 233 L477.5 211.75 Z"
         style="fill:none; clip-path:url(#clipPath39); stroke:black;"
         clip-path="url(#clipPath39)"
         id="path407" />
      <text
         x="493"
         y="225"
         style="font-size:10; clip-path:url(#clipPath39); fill:black; stroke:none;"
         xml:space="preserve"
         clip-path="url(#clipPath39)"
         id="text409">GRB2</text>
    </g>
    <g
       style="fill:white; text-rendering:geometricPrecision; stroke:white;"
       id="g419">
      <path
         d="M537.8003 445.9222 L586.3539 445.9222 L586.3539 470.9222 L537.8003 470.9222 L537.8003 445.9222 Z"
         style="clip-path:url(#clipPath40); stroke:none;"
         clip-path="url(#clipPath40)"
         id="path413" />
      <path
         d="M537.8003 445.9222 L586.3539 445.9222 L586.3539 470.9222 L537.8003 470.9222 L537.8003 445.9222 Z"
         style="fill:none; clip-path:url(#clipPath40); stroke:black;"
         clip-path="url(#clipPath40)"
         id="path415" />
      <text
         x="551"
         y="462"
         style="fill:black; clip-path:url(#clipPath40); stroke:none;"
         xml:space="preserve"
         clip-path="url(#clipPath40)"
         id="text417">ERK</text>
    </g>
    <g
       style="fill:white; text-rendering:geometricPrecision; stroke:white;"
       id="g427">
      <path
         d="M329 292.5 L388 292.5 L388 310.5 L329 310.5 L329 292.5 Z"
         style="clip-path:url(#clipPath41); stroke:none;"
         clip-path="url(#clipPath41)"
         id="path421" />
      <path
         d="M329 292.5 L388 292.5 L388 310.5 L329 310.5 L329 292.5 Z"
         style="fill:none; clip-path:url(#clipPath41); stroke:black;"
         clip-path="url(#clipPath41)"
         id="path423" />
      <text
         x="348"
         y="305"
         style="font-size:10; clip-path:url(#clipPath41); fill:black; stroke:none;"
         xml:space="preserve"
         clip-path="url(#clipPath41)"
         id="text425">RAS</text>
    </g>
    <g
       style="fill:rgb(64,64,64); text-rendering:geometricPrecision; font-size:8; stroke:rgb(64,64,64);"
       id="g431">
      <text
         x="330"
         xml:space="preserve"
         y="276"
         style="clip-path:url(#clipPath42); stroke:none;"
         clip-path="url(#clipPath42)"
         id="text429">RAS in &quot;off&quot; state</text>
    </g>
    <g
       style="text-rendering:geometricPrecision;"
       id="g437">
      <path
         d="M516 313.375 L400 313.25"
         style="fill:none; clip-path:url(#clipPath43);"
         clip-path="url(#clipPath43)"
         id="path433" />
      <path
         d="M400 313.25 L411.6944 318.4626 L405.2 313.2556 L411.7056 308.0626 Z"
         style="clip-path:url(#clipPath43); stroke:none;"
         clip-path="url(#clipPath43)"
         id="path435" />
    </g>
  </g>
</svg>
