<?xml version="1.0" encoding="UTF-8" standalone="no"?>
<svg
   style="fill-opacity:1; color-rendering:auto; color-interpolation:auto; stroke:black; text-rendering:auto; stroke-linecap:square; stroke-miterlimit:10; stroke-opacity:1; shape-rendering:auto; fill:black; stroke-dasharray:none; font-weight:normal; stroke-width:1; font-family:'Dialog'; font-style:normal; stroke-linejoin:miter; font-size:12; stroke-dashoffset:0; image-rendering:auto;"
   width="617"
   height="400"
   version="1.1"
   id="svg353"
   xmlns="http://www.w3.org/2000/svg"
   xmlns:svg="http://www.w3.org/2000/svg">
  <!--Generated by the Batik Graphics2D SVG Generator-->
  <defs
     id="genericDefs" />
  <g
     id="g351">
    <defs
       id="defs1">
      <clipPath
         clipPathUnits="userSpaceOnUse"
         id="clipPath1">
        <path
           d="M0 0 L625 0 L625 408 L0 408 L0 0 Z"
           id="path3" />
      </clipPath>
      <clipPath
         clipPathUnits="userSpaceOnUse"
         id="clipPath2">
        <path
           d="M0 0 L0 200 L200 200 L200 0 Z"
           id="path6" />
      </clipPath>
      <clipPath
         clipPathUnits="userSpaceOnUse"
         id="clipPath3">
        <path
           d="M228 22 L228 43 L239 43 L239 22 Z"
           id="path9" />
      </clipPath>
      <clipPath
         clipPathUnits="userSpaceOnUse"
         id="clipPath4">
        <path
           d="M227.4551 9.918 L238.5449 9.918 L238.5449 25.2305 L227.4551 25.2305 L227.4551 9.918 Z"
           id="path12" />
      </clipPath>
      <clipPath
         clipPathUnits="userSpaceOnUse"
         id="clipPath5">
        <path
           d="M32.5 164.9987 L32.5 251 L205.0062 251 L205.0062 164.9987 Z"
           id="path15" />
      </clipPath>
      <clipPath
         clipPathUnits="userSpaceOnUse"
         id="clipPath6">
        <path
           d="M405.5 273 L405.5 309 L603 309 L603 273 Z"
           id="path18" />
      </clipPath>
      <clipPath
         clipPathUnits="userSpaceOnUse"
         id="clipPath7">
        <path
           d="M234 76 L234 191 L330 191 L330 76 Z"
           id="path21" />
      </clipPath>
      <clipPath
         clipPathUnits="userSpaceOnUse"
         id="clipPath8">
        <path
           d="M217 310 L217 386 L313 386 L313 310 Z"
           id="path24" />
      </clipPath>
      <clipPath
         clipPathUnits="userSpaceOnUse"
         id="clipPath9">
        <path
           d="M405.5 164 L405.5 250 L603 250 L603 164 Z"
           id="path27" />
      </clipPath>
      <clipPath
         clipPathUnits="userSpaceOnUse"
         id="clipPath10">
        <path
           d="M169 285.0306 L169 296.9694 L406.7311 296.9694 L406.7311 285.0306 Z"
           id="path30" />
      </clipPath>
      <clipPath
         clipPathUnits="userSpaceOnUse"
         id="clipPath11">
        <path
           d="M204.5037 201.0915 L204.5037 213.0301 L406.7311 213.0301 L406.7311 201.0915 Z"
           id="path33" />
      </clipPath>
      <clipPath
         clipPathUnits="userSpaceOnUse"
         id="clipPath12">
        <path
           d="M258.4897 287.0755 L258.4897 310.5281 L270.4085 310.5281 L270.4085 287.0755 Z"
           id="path36" />
      </clipPath>
      <clipPath
         clipPathUnits="userSpaceOnUse"
         id="clipPath13">
        <path
           d="M277.5422 190.4143 L277.5422 211.4595 L289.2647 211.4595 L289.2647 190.4143 Z"
           id="path39" />
      </clipPath>
      <clipPath
         clipPathUnits="userSpaceOnUse"
         id="clipPath14">
        <path
           d="M175.4903 172.5017 L175.4903 240.5001 L197.0014 240.5001 L197.0014 172.5017 Z"
           id="path42" />
      </clipPath>
      <clipPath
         clipPathUnits="userSpaceOnUse"
         id="clipPath15">
        <path
           d="M241.5 38.5 L241.5 59.5 L322.5 59.5 L322.5 38.5 Z"
           id="path45" />
      </clipPath>
      <clipPath
         clipPathUnits="userSpaceOnUse"
         id="clipPath16">
        <path
           d="M514.5 197.5 L514.5 218.5 L595.5 218.5 L595.5 197.5 Z"
           id="path48" />
      </clipPath>
      <clipPath
         clipPathUnits="userSpaceOnUse"
         id="clipPath17">
        <path
           d="M514.5 171.5 L514.5 192.5 L595.5 192.5 L595.5 171.5 Z"
           id="path51" />
      </clipPath>
      <clipPath
         clipPathUnits="userSpaceOnUse"
         id="clipPath18">
        <path
           d="M514.5 280.5 L514.5 301.5 L595.5 301.5 L595.5 280.5 Z"
           id="path54" />
      </clipPath>
      <clipPath
         clipPathUnits="userSpaceOnUse"
         id="clipPath19">
        <path
           d="M514.5 221.5 L514.5 242.5 L595.5 242.5 L595.5 221.5 Z"
           id="path57" />
      </clipPath>
      <clipPath
         clipPathUnits="userSpaceOnUse"
         id="clipPath20">
        <path
           d="M40 174.5 L40 195.5 L170 195.5 L170 174.5 Z"
           id="path60" />
      </clipPath>
      <clipPath
         clipPathUnits="userSpaceOnUse"
         id="clipPath21">
        <path
           d="M241.5 103.5 L241.5 124.5 L322.5 124.5 L322.5 103.5 Z"
           id="path63" />
      </clipPath>
      <clipPath
         clipPathUnits="userSpaceOnUse"
         id="clipPath22">
        <path
           d="M40 198.5 L40 219.5 L170 219.5 L170 198.5 Z"
           id="path66" />
      </clipPath>
      <clipPath
         clipPathUnits="userSpaceOnUse"
         id="clipPath23">
        <path
           d="M413 197.5 L413 218.5 L543 218.5 L543 197.5 Z"
           id="path69" />
      </clipPath>
      <clipPath
         clipPathUnits="userSpaceOnUse"
         id="clipPath24">
        <path
           d="M241.5 143.5 L241.5 164.5 L322.5 164.5 L322.5 143.5 Z"
           id="path72" />
      </clipPath>
      <clipPath
         clipPathUnits="userSpaceOnUse"
         id="clipPath25">
        <path
           d="M224.5 317.5 L224.5 338.5 L305.5 338.5 L305.5 317.5 Z"
           id="path75" />
      </clipPath>
      <clipPath
         clipPathUnits="userSpaceOnUse"
         id="clipPath26">
        <path
           d="M40 280.5 L40 301.5 L170 301.5 L170 280.5 Z"
           id="path78" />
      </clipPath>
      <clipPath
         clipPathUnits="userSpaceOnUse"
         id="clipPath27">
        <path
           d="M241.5 83.5 L241.5 104.5 L322.5 104.5 L322.5 83.5 Z"
           id="path81" />
      </clipPath>
      <clipPath
         clipPathUnits="userSpaceOnUse"
         id="clipPath28">
        <path
           d="M40 222.5 L40 243.5 L170 243.5 L170 222.5 Z"
           id="path84" />
      </clipPath>
      <clipPath
         clipPathUnits="userSpaceOnUse"
         id="clipPath29">
        <path
           d="M413 221.5 L413 242.5 L543 242.5 L543 221.5 Z"
           id="path87" />
      </clipPath>
      <clipPath
         clipPathUnits="userSpaceOnUse"
         id="clipPath30">
        <path
           d="M224.5 337.5 L224.5 358.5 L305.5 358.5 L305.5 337.5 Z"
           id="path90" />
      </clipPath>
      <clipPath
         clipPathUnits="userSpaceOnUse"
         id="clipPath31">
        <path
           d="M241.5 162.5 L241.5 183.5 L322.5 183.5 L322.5 162.5 Z"
           id="path93" />
      </clipPath>
      <clipPath
         clipPathUnits="userSpaceOnUse"
         id="clipPath32">
        <path
           d="M413 280.5 L413 301.5 L543 301.5 L543 280.5 Z"
           id="path96" />
      </clipPath>
      <clipPath
         clipPathUnits="userSpaceOnUse"
         id="clipPath33">
        <path
           d="M413 173.5 L413 194.5 L543 194.5 L543 173.5 Z"
           id="path99" />
      </clipPath>
      <clipPath
         clipPathUnits="userSpaceOnUse"
         id="clipPath34">
        <path
           d="M241.5 123.5 L241.5 144.5 L322.5 144.5 L322.5 123.5 Z"
           id="path102" />
      </clipPath>
      <clipPath
         clipPathUnits="userSpaceOnUse"
         id="clipPath35">
        <path
           d="M224.5 357.5 L224.5 378.5 L305.5 378.5 L305.5 357.5 Z"
           id="path105" />
      </clipPath>
    </defs>
    <g
       style="fill:white; stroke:white;"
       id="g111">
      <rect
         x="0"
         width="625"
         height="408"
         y="0"
         style="stroke:none;"
         id="rect109" />
    </g>
    <g
       style="font-weight:bold; font-size:10; text-rendering:geometricPrecision;"
       id="g125">
      <path
         d="M0.0469 5.7031 L6.7656 5.7031 L6.7656 7.125 L4.3438 7.125 L4.3438 13 L2.4688 13 L2.4688 7.125 L0.0469 7.125 L0.0469 5.7031 ZM7.665 7.5312 L9.415 7.5312 L9.415 13 L7.665 13 L7.665 7.5312 ZM7.665 5.4062 L9.415 5.4062 L9.415 6.8281 L7.665 6.8281 L7.665 5.4062 ZM12.999 5.9844 L12.999 7.5312 L14.7959 7.5312 L14.7959 8.7812 L12.999 8.7812 L12.999 11.0938 Q12.999 11.4844 13.1475 11.6172 Q13.2959 11.75 13.749 11.75 L14.6553 11.75 L14.6553 13 L13.1553 13 Q12.1084 13 11.6787 12.5703 Q11.249 12.1406 11.249 11.0938 L11.249 8.7812 L10.374 8.7812 L10.374 7.5312 L11.249 7.5312 L11.249 5.9844 L12.999 5.9844 ZM15.873 5.4062 L17.623 5.4062 L17.623 13 L15.873 13 L15.873 5.4062 ZM24.7539 10.25 L24.7539 10.75 L20.6758 10.75 Q20.7383 11.3594 21.1133 11.6719 Q21.4883 11.9844 22.1758 11.9844 Q22.7227 11.9844 23.3086 11.8203 Q23.8945 11.6562 24.5039 11.3125 L24.5039 12.6719 Q23.8789 12.9062 23.2617 13.0234 Q22.6445 13.1406 22.0195 13.1406 Q20.5352 13.1406 19.7148 12.3828 Q18.8945 11.625 18.8945 10.2656 Q18.8945 8.9375 19.6992 8.1719 Q20.5039 7.4062 21.9258 7.4062 Q23.207 7.4062 23.9805 8.1797 Q24.7539 8.9531 24.7539 10.25 ZM22.957 9.6719 Q22.957 9.1719 22.668 8.8672 Q22.3789 8.5625 21.9102 8.5625 Q21.3945 8.5625 21.082 8.8438 Q20.7695 9.125 20.6914 9.6719 L22.957 9.6719 ZM26.3643 7.5312 L28.1143 7.5312 L28.1143 9.4219 L26.3643 9.4219 L26.3643 7.5312 ZM26.3643 11.1094 L28.1143 11.1094 L28.1143 13 L26.3643 13 L26.3643 11.1094 Z"
         style="clip-path:url(#clipPath2); stroke:none;"
         clip-path="url(#clipPath2)"
         id="path113" />
      <path
         d="M39.9688 6.5156 L39.9688 9.2656 L41.2031 9.2656 Q41.8906 9.2656 42.2734 8.9062 Q42.6562 8.5469 42.6562 7.8906 Q42.6562 7.2344 42.2734 6.875 Q41.8906 6.5156 41.2031 6.5156 L39.9688 6.5156 ZM38.9844 5.7031 L41.2031 5.7031 Q42.4375 5.7031 43.0625 6.2578 Q43.6875 6.8125 43.6875 7.8906 Q43.6875 8.9688 43.0625 9.5156 Q42.4375 10.0625 41.2031 10.0625 L39.9688 10.0625 L39.9688 13 L38.9844 13 L38.9844 5.7031 ZM49.5146 9.7031 L49.5146 13 L48.624 13 L48.624 9.7344 Q48.624 8.9531 48.3193 8.5703 Q48.0146 8.1875 47.4053 8.1875 Q46.6865 8.1875 46.2646 8.6484 Q45.8428 9.1094 45.8428 9.9062 L45.8428 13 L44.9365 13 L44.9365 5.4062 L45.8428 5.4062 L45.8428 8.375 Q46.1709 7.8906 46.6084 7.6484 Q47.0459 7.4062 47.6084 7.4062 Q48.5459 7.4062 49.0303 7.9844 Q49.5146 8.5625 49.5146 9.7031 ZM53.79 10.25 Q52.7119 10.25 52.29 10.5 Q51.8682 10.75 51.8682 11.3438 Q51.8682 11.8281 52.1807 12.1094 Q52.4932 12.3906 53.04 12.3906 Q53.79 12.3906 54.2432 11.8594 Q54.6963 11.3281 54.6963 10.4531 L54.6963 10.25 L53.79 10.25 ZM55.5869 9.875 L55.5869 13 L54.6963 13 L54.6963 12.1719 Q54.3838 12.6719 53.9229 12.9062 Q53.4619 13.1406 52.8057 13.1406 Q51.9619 13.1406 51.4619 12.6719 Q50.9619 12.2031 50.9619 11.4062 Q50.9619 10.4844 51.5869 10.0156 Q52.2119 9.5469 53.4307 9.5469 L54.6963 9.5469 L54.6963 9.4531 Q54.6963 8.8438 54.2822 8.5 Q53.8682 8.1562 53.1338 8.1562 Q52.665 8.1562 52.2197 8.2734 Q51.7744 8.3906 51.3682 8.6094 L51.3682 7.7812 Q51.8682 7.5938 52.3291 7.5 Q52.79 7.4062 53.2275 7.4062 Q54.415 7.4062 55.001 8.0156 Q55.5869 8.625 55.5869 9.875 ZM60.918 7.6875 L60.918 8.5469 Q60.543 8.3438 60.1367 8.25 Q59.7305 8.1562 59.2773 8.1562 Q58.6211 8.1562 58.2852 8.3594 Q57.9492 8.5625 57.9492 8.9688 Q57.9492 9.2812 58.1836 9.4609 Q58.418 9.6406 59.1523 9.7969 L59.4492 9.875 Q60.418 10.0781 60.8164 10.4531 Q61.2148 10.8281 61.2148 11.4844 Q61.2148 12.25 60.6133 12.6953 Q60.0117 13.1406 58.9648 13.1406 Q58.5117 13.1406 58.0352 13.0547 Q57.5586 12.9688 57.043 12.7969 L57.043 11.875 Q57.543 12.125 58.0195 12.2578 Q58.4961 12.3906 58.9805 12.3906 Q59.6055 12.3906 59.9492 12.1719 Q60.293 11.9531 60.293 11.5625 Q60.293 11.1875 60.0508 10.9922 Q59.8086 10.7969 58.9648 10.625 L58.6523 10.5469 Q57.8242 10.375 57.4492 10.0078 Q57.0742 9.6406 57.0742 9.0156 Q57.0742 8.2344 57.6211 7.8203 Q58.168 7.4062 59.1836 7.4062 Q59.668 7.4062 60.1133 7.4766 Q60.5586 7.5469 60.918 7.6875 ZM67.3311 10.0469 L67.3311 10.4844 L63.1904 10.4844 Q63.2529 11.4062 63.7529 11.8906 Q64.2529 12.375 65.1436 12.375 Q65.6592 12.375 66.1514 12.25 Q66.6436 12.125 67.1123 11.875 L67.1123 12.7188 Q66.6279 12.9219 66.1201 13.0312 Q65.6123 13.1406 65.0967 13.1406 Q63.7842 13.1406 63.0186 12.3828 Q62.2529 11.625 62.2529 10.3125 Q62.2529 8.9688 62.9795 8.1875 Q63.7061 7.4062 64.9404 7.4062 Q66.0498 7.4062 66.6904 8.1094 Q67.3311 8.8125 67.3311 10.0469 ZM66.4248 9.7812 Q66.4248 9.0469 66.0186 8.6016 Q65.6123 8.1562 64.9561 8.1562 Q64.1904 8.1562 63.7451 8.5859 Q63.2998 9.0156 63.2217 9.7812 L66.4248 9.7812 ZM72.0215 5.7031 L73.0059 5.7031 L73.0059 13 L72.0215 13 L72.0215 5.7031 ZM82.04 10.2656 Q82.04 9.2812 81.626 8.7188 Q81.2119 8.1562 80.5088 8.1562 Q79.79 8.1562 79.3838 8.7188 Q78.9775 9.2812 78.9775 10.2656 Q78.9775 11.2656 79.3838 11.8281 Q79.79 12.3906 80.5088 12.3906 Q81.2119 12.3906 81.626 11.8281 Q82.04 11.2656 82.04 10.2656 ZM78.9775 8.3594 Q79.2588 7.875 79.6885 7.6406 Q80.1182 7.4062 80.7275 7.4062 Q81.7275 7.4062 82.3447 8.1953 Q82.9619 8.9844 82.9619 10.2656 Q82.9619 11.5625 82.3447 12.3516 Q81.7275 13.1406 80.7275 13.1406 Q80.1182 13.1406 79.6885 12.9062 Q79.2588 12.6719 78.9775 12.1719 L78.9775 13 L78.0713 13 L78.0713 5.4062 L78.9775 5.4062 L78.9775 8.3594 ZM84.4502 7.5312 L85.3564 7.5312 L85.3564 13 L84.4502 13 L84.4502 7.5312 ZM84.4502 5.4062 L85.3564 5.4062 L85.3564 6.5469 L84.4502 6.5469 L84.4502 5.4062 ZM89.3535 8.1562 Q88.6348 8.1562 88.2129 8.7188 Q87.791 9.2812 87.791 10.2656 Q87.791 11.25 88.2051 11.8125 Q88.6191 12.375 89.3535 12.375 Q90.0723 12.375 90.4941 11.8125 Q90.916 11.25 90.916 10.2656 Q90.916 9.2969 90.4941 8.7266 Q90.0723 8.1562 89.3535 8.1562 ZM89.3535 7.4062 Q90.5254 7.4062 91.1973 8.1641 Q91.8691 8.9219 91.8691 10.2656 Q91.8691 11.6094 91.1973 12.375 Q90.5254 13.1406 89.3535 13.1406 Q88.1816 13.1406 87.5098 12.375 Q86.8379 11.6094 86.8379 10.2656 Q86.8379 8.9219 87.5098 8.1641 Q88.1816 7.4062 89.3535 7.4062 ZM94.2373 5.9844 L94.2373 7.5312 L96.0967 7.5312 L96.0967 8.2344 L94.2373 8.2344 L94.2373 11.2031 Q94.2373 11.8594 94.4248 12.0547 Q94.6123 12.25 95.1748 12.25 L96.0967 12.25 L96.0967 13 L95.1748 13 Q94.1279 13 93.7295 12.6094 Q93.3311 12.2188 93.3311 11.2031 L93.3311 8.2344 L92.6748 8.2344 L92.6748 7.5312 L93.3311 7.5312 L93.3311 5.9844 L94.2373 5.9844 ZM100.4395 8.375 Q100.2832 8.2812 100.1113 8.2422 Q99.9395 8.2031 99.7207 8.2031 Q98.9551 8.2031 98.5488 8.6953 Q98.1426 9.1875 98.1426 10.125 L98.1426 13 L97.2363 13 L97.2363 7.5312 L98.1426 7.5312 L98.1426 8.375 Q98.4238 7.875 98.877 7.6406 Q99.3301 7.4062 99.9863 7.4062 Q100.0801 7.4062 100.1895 7.4141 Q100.2988 7.4219 100.4395 7.4531 L100.4395 8.375 ZM103.8633 10.25 Q102.7852 10.25 102.3633 10.5 Q101.9414 10.75 101.9414 11.3438 Q101.9414 11.8281 102.2539 12.1094 Q102.5664 12.3906 103.1133 12.3906 Q103.8633 12.3906 104.3164 11.8594 Q104.7695 11.3281 104.7695 10.4531 L104.7695 10.25 L103.8633 10.25 ZM105.6602 9.875 L105.6602 13 L104.7695 13 L104.7695 12.1719 Q104.457 12.6719 103.9961 12.9062 Q103.5352 13.1406 102.8789 13.1406 Q102.0352 13.1406 101.5352 12.6719 Q101.0352 12.2031 101.0352 11.4062 Q101.0352 10.4844 101.6602 10.0156 Q102.2852 9.5469 103.5039 9.5469 L104.7695 9.5469 L104.7695 9.4531 Q104.7695 8.8438 104.3555 8.5 Q103.9414 8.1562 103.207 8.1562 Q102.7383 8.1562 102.293 8.2734 Q101.8477 8.3906 101.4414 8.6094 L101.4414 7.7812 Q101.9414 7.5938 102.4023 7.5 Q102.8633 7.4062 103.3008 7.4062 Q104.4883 7.4062 105.0742 8.0156 Q105.6602 8.625 105.6602 9.875 ZM112.0537 9.7031 L112.0537 13 L111.1631 13 L111.1631 9.7344 Q111.1631 8.9531 110.8584 8.5703 Q110.5537 8.1875 109.9443 8.1875 Q109.2256 8.1875 108.8037 8.6484 Q108.3818 9.1094 108.3818 9.9062 L108.3818 13 L107.4756 13 L107.4756 7.5312 L108.3818 7.5312 L108.3818 8.375 Q108.71 7.8906 109.1475 7.6484 Q109.585 7.4062 110.1475 7.4062 Q111.085 7.4062 111.5693 7.9844 Q112.0537 8.5625 112.0537 9.7031 ZM117.3291 7.6875 L117.3291 8.5469 Q116.9541 8.3438 116.5479 8.25 Q116.1416 8.1562 115.6885 8.1562 Q115.0322 8.1562 114.6963 8.3594 Q114.3604 8.5625 114.3604 8.9688 Q114.3604 9.2812 114.5947 9.4609 Q114.8291 9.6406 115.5635 9.7969 L115.8604 9.875 Q116.8291 10.0781 117.2275 10.4531 Q117.626 10.8281 117.626 11.4844 Q117.626 12.25 117.0244 12.6953 Q116.4229 13.1406 115.376 13.1406 Q114.9229 13.1406 114.4463 13.0547 Q113.9697 12.9688 113.4541 12.7969 L113.4541 11.875 Q113.9541 12.125 114.4307 12.2578 Q114.9072 12.3906 115.3916 12.3906 Q116.0166 12.3906 116.3604 12.1719 Q116.7041 11.9531 116.7041 11.5625 Q116.7041 11.1875 116.4619 10.9922 Q116.2197 10.7969 115.376 10.625 L115.0635 10.5469 Q114.2354 10.375 113.8604 10.0078 Q113.4854 9.6406 113.4854 9.0156 Q113.4854 8.2344 114.0322 7.8203 Q114.5791 7.4062 115.5947 7.4062 Q116.0791 7.4062 116.5244 7.4766 Q116.9697 7.5469 117.3291 7.6875 ZM121.8359 5.4062 L121.8359 6.1562 L120.9766 6.1562 Q120.4922 6.1562 120.3047 6.3516 Q120.1172 6.5469 120.1172 7.0469 L120.1172 7.5312 L121.5859 7.5312 L121.5859 8.2344 L120.1172 8.2344 L120.1172 13 L119.2109 13 L119.2109 8.2344 L118.3516 8.2344 L118.3516 7.5312 L119.2109 7.5312 L119.2109 7.1562 Q119.2109 6.2344 119.6328 5.8203 Q120.0547 5.4062 120.9766 5.4062 L121.8359 5.4062 ZM124.7002 8.1562 Q123.9814 8.1562 123.5596 8.7188 Q123.1377 9.2812 123.1377 10.2656 Q123.1377 11.25 123.5518 11.8125 Q123.9658 12.375 124.7002 12.375 Q125.4189 12.375 125.8408 11.8125 Q126.2627 11.25 126.2627 10.2656 Q126.2627 9.2969 125.8408 8.7266 Q125.4189 8.1562 124.7002 8.1562 ZM124.7002 7.4062 Q125.8721 7.4062 126.5439 8.1641 Q127.2158 8.9219 127.2158 10.2656 Q127.2158 11.6094 126.5439 12.375 Q125.8721 13.1406 124.7002 13.1406 Q123.5283 13.1406 122.8564 12.375 Q122.1846 11.6094 122.1846 10.2656 Q122.1846 8.9219 122.8564 8.1641 Q123.5283 7.4062 124.7002 7.4062 ZM131.8652 8.375 Q131.709 8.2812 131.5371 8.2422 Q131.3652 8.2031 131.1465 8.2031 Q130.3809 8.2031 129.9746 8.6953 Q129.5684 9.1875 129.5684 10.125 L129.5684 13 L128.6621 13 L128.6621 7.5312 L129.5684 7.5312 L129.5684 8.375 Q129.8496 7.875 130.3027 7.6406 Q130.7559 7.4062 131.4121 7.4062 Q131.5059 7.4062 131.6152 7.4141 Q131.7246 7.4219 131.8652 7.4531 L131.8652 8.375 ZM137.0703 8.5781 Q137.3984 7.9688 137.8672 7.6875 Q138.3359 7.4062 138.9766 7.4062 Q139.8359 7.4062 140.2969 8 Q140.7578 8.5938 140.7578 9.7031 L140.7578 13 L139.8516 13 L139.8516 9.7344 Q139.8516 8.9375 139.5781 8.5625 Q139.3047 8.1875 138.7266 8.1875 Q138.0234 8.1875 137.625 8.6484 Q137.2266 9.1094 137.2266 9.9062 L137.2266 13 L136.3203 13 L136.3203 9.7344 Q136.3203 8.9375 136.0391 8.5625 Q135.7578 8.1875 135.1797 8.1875 Q134.4922 8.1875 134.0859 8.6484 Q133.6797 9.1094 133.6797 9.9062 L133.6797 13 L132.7734 13 L132.7734 7.5312 L133.6797 7.5312 L133.6797 8.375 Q133.9922 7.875 134.4219 7.6406 Q134.8516 7.4062 135.4297 7.4062 Q136.0391 7.4062 136.4531 7.7031 Q136.8672 8 137.0703 8.5781 ZM145.0303 10.25 Q143.9521 10.25 143.5303 10.5 Q143.1084 10.75 143.1084 11.3438 Q143.1084 11.8281 143.4209 12.1094 Q143.7334 12.3906 144.2803 12.3906 Q145.0303 12.3906 145.4834 11.8594 Q145.9365 11.3281 145.9365 10.4531 L145.9365 10.25 L145.0303 10.25 ZM146.8271 9.875 L146.8271 13 L145.9365 13 L145.9365 12.1719 Q145.624 12.6719 145.1631 12.9062 Q144.7021 13.1406 144.0459 13.1406 Q143.2021 13.1406 142.7021 12.6719 Q142.2021 12.2031 142.2021 11.4062 Q142.2021 10.4844 142.8271 10.0156 Q143.4521 9.5469 144.6709 9.5469 L145.9365 9.5469 L145.9365 9.4531 Q145.9365 8.8438 145.5225 8.5 Q145.1084 8.1562 144.374 8.1562 Q143.9053 8.1562 143.46 8.2734 Q143.0146 8.3906 142.6084 8.6094 L142.6084 7.7812 Q143.1084 7.5938 143.5693 7.5 Q144.0303 7.4062 144.4678 7.4062 Q145.6553 7.4062 146.2412 8.0156 Q146.8271 8.625 146.8271 9.875 ZM149.5645 5.9844 L149.5645 7.5312 L151.4238 7.5312 L151.4238 8.2344 L149.5645 8.2344 L149.5645 11.2031 Q149.5645 11.8594 149.752 12.0547 Q149.9395 12.25 150.502 12.25 L151.4238 12.25 L151.4238 13 L150.502 13 Q149.4551 13 149.0566 12.6094 Q148.6582 12.2188 148.6582 11.2031 L148.6582 8.2344 L148.002 8.2344 L148.002 7.5312 L148.6582 7.5312 L148.6582 5.9844 L149.5645 5.9844 ZM152.5947 7.5312 L153.501 7.5312 L153.501 13 L152.5947 13 L152.5947 7.5312 ZM152.5947 5.4062 L153.501 5.4062 L153.501 6.5469 L152.5947 6.5469 L152.5947 5.4062 ZM157.498 8.1562 Q156.7793 8.1562 156.3574 8.7188 Q155.9355 9.2812 155.9355 10.2656 Q155.9355 11.25 156.3496 11.8125 Q156.7637 12.375 157.498 12.375 Q158.2168 12.375 158.6387 11.8125 Q159.0605 11.25 159.0605 10.2656 Q159.0605 9.2969 158.6387 8.7266 Q158.2168 8.1562 157.498 8.1562 ZM157.498 7.4062 Q158.6699 7.4062 159.3418 8.1641 Q160.0137 8.9219 160.0137 10.2656 Q160.0137 11.6094 159.3418 12.375 Q158.6699 13.1406 157.498 13.1406 Q156.3262 13.1406 155.6543 12.375 Q154.9824 11.6094 154.9824 10.2656 Q154.9824 8.9219 155.6543 8.1641 Q156.3262 7.4062 157.498 7.4062 ZM166.0381 9.7031 L166.0381 13 L165.1475 13 L165.1475 9.7344 Q165.1475 8.9531 164.8428 8.5703 Q164.5381 8.1875 163.9287 8.1875 Q163.21 8.1875 162.7881 8.6484 Q162.3662 9.1094 162.3662 9.9062 L162.3662 13 L161.46 13 L161.46 7.5312 L162.3662 7.5312 L162.3662 8.375 Q162.6943 7.8906 163.1318 7.6484 Q163.5693 7.4062 164.1318 7.4062 Q165.0693 7.4062 165.5537 7.9844 Q166.0381 8.5625 166.0381 9.7031 ZM171.3135 7.6875 L171.3135 8.5469 Q170.9385 8.3438 170.5322 8.25 Q170.126 8.1562 169.6729 8.1562 Q169.0166 8.1562 168.6807 8.3594 Q168.3447 8.5625 168.3447 8.9688 Q168.3447 9.2812 168.5791 9.4609 Q168.8135 9.6406 169.5479 9.7969 L169.8447 9.875 Q170.8135 10.0781 171.2119 10.4531 Q171.6104 10.8281 171.6104 11.4844 Q171.6104 12.25 171.0088 12.6953 Q170.4072 13.1406 169.3604 13.1406 Q168.9072 13.1406 168.4307 13.0547 Q167.9541 12.9688 167.4385 12.7969 L167.4385 11.875 Q167.9385 12.125 168.415 12.2578 Q168.8916 12.3906 169.376 12.3906 Q170.001 12.3906 170.3447 12.1719 Q170.6885 11.9531 170.6885 11.5625 Q170.6885 11.1875 170.4463 10.9922 Q170.2041 10.7969 169.3604 10.625 L169.0479 10.5469 Q168.2197 10.375 167.8447 10.0078 Q167.4697 9.6406 167.4697 9.0156 Q167.4697 8.2344 168.0166 7.8203 Q168.5635 7.4062 169.5791 7.4062 Q170.0635 7.4062 170.5088 7.4766 Q170.9541 7.5469 171.3135 7.6875 ZM173.2734 11.7656 L174.3047 11.7656 L174.3047 12.5938 L173.5078 14.1562 L172.8672 14.1562 L173.2734 12.5938 L173.2734 11.7656 ZM183.9434 9.7031 L183.9434 13 L183.0527 13 L183.0527 9.7344 Q183.0527 8.9531 182.748 8.5703 Q182.4434 8.1875 181.834 8.1875 Q181.1152 8.1875 180.6934 8.6484 Q180.2715 9.1094 180.2715 9.9062 L180.2715 13 L179.3652 13 L179.3652 7.5312 L180.2715 7.5312 L180.2715 8.375 Q180.5996 7.8906 181.0371 7.6484 Q181.4746 7.4062 182.0371 7.4062 Q182.9746 7.4062 183.459 7.9844 Q183.9434 8.5625 183.9434 9.7031 ZM187.8594 8.1562 Q187.1406 8.1562 186.7188 8.7188 Q186.2969 9.2812 186.2969 10.2656 Q186.2969 11.25 186.7109 11.8125 Q187.125 12.375 187.8594 12.375 Q188.5781 12.375 189 11.8125 Q189.4219 11.25 189.4219 10.2656 Q189.4219 9.2969 189 8.7266 Q188.5781 8.1562 187.8594 8.1562 ZM187.8594 7.4062 Q189.0312 7.4062 189.7031 8.1641 Q190.375 8.9219 190.375 10.2656 Q190.375 11.6094 189.7031 12.375 Q189.0312 13.1406 187.8594 13.1406 Q186.6875 13.1406 186.0156 12.375 Q185.3438 11.6094 185.3438 10.2656 Q185.3438 8.9219 186.0156 8.1641 Q186.6875 7.4062 187.8594 7.4062 ZM196.3994 9.7031 L196.3994 13 L195.5088 13 L195.5088 9.7344 Q195.5088 8.9531 195.2041 8.5703 Q194.8994 8.1875 194.29 8.1875 Q193.5713 8.1875 193.1494 8.6484 Q192.7275 9.1094 192.7275 9.9062 L192.7275 13 L191.8213 13 L191.8213 7.5312 L192.7275 7.5312 L192.7275 8.375 Q193.0557 7.8906 193.4932 7.6484 Q193.9307 7.4062 194.4932 7.4062 Q195.4307 7.4062 195.915 7.9844 Q196.3994 8.5625 196.3994 9.7031 ZM202.4004 6.5156 L202.4004 9.2656 L203.6348 9.2656 Q204.3223 9.2656 204.7051 8.9062 Q205.0879 8.5469 205.0879 7.8906 Q205.0879 7.2344 204.7051 6.875 Q204.3223 6.5156 203.6348 6.5156 L202.4004 6.5156 ZM201.416 5.7031 L203.6348 5.7031 Q204.8691 5.7031 205.4941 6.2578 Q206.1191 6.8125 206.1191 7.8906 Q206.1191 8.9688 205.4941 9.5156 Q204.8691 10.0625 203.6348 10.0625 L202.4004 10.0625 L202.4004 13 L201.416 13 L201.416 5.7031 ZM210.2432 6.5625 L207.7588 10.4531 L210.2432 10.4531 L210.2432 6.5625 ZM209.9775 5.7031 L211.2275 5.7031 L211.2275 10.4531 L212.2588 10.4531 L212.2588 11.2812 L211.2275 11.2812 L211.2275 13 L210.2432 13 L210.2432 11.2812 L206.9463 11.2812 L206.9463 10.3281 L209.9775 5.7031 ZM213.9023 5.7031 L217.7773 5.7031 L217.7773 6.5469 L214.8086 6.5469 L214.8086 8.3281 Q215.0273 8.25 215.2383 8.2188 Q215.4492 8.1875 215.668 8.1875 Q216.8867 8.1875 217.5977 8.8516 Q218.3086 9.5156 218.3086 10.6562 Q218.3086 11.8438 217.582 12.4922 Q216.8555 13.1406 215.5117 13.1406 Q215.0586 13.1406 214.582 13.0625 Q214.1055 12.9844 213.5898 12.8281 L213.5898 11.8438 Q214.043 12.0781 214.5117 12.1953 Q214.9805 12.3125 215.4961 12.3125 Q216.3398 12.3125 216.832 11.8672 Q217.3242 11.4219 217.3242 10.6562 Q217.3242 9.9062 216.832 9.4609 Q216.3398 9.0156 215.4961 9.0156 Q215.1055 9.0156 214.707 9.1016 Q214.3086 9.1875 213.9023 9.375 L213.9023 5.7031 ZM222.3584 6.3594 Q221.6084 6.3594 221.2256 7.1094 Q220.8428 7.8594 220.8428 9.3594 Q220.8428 10.8594 221.2256 11.6094 Q221.6084 12.3594 222.3584 12.3594 Q223.1396 12.3594 223.5225 11.6094 Q223.9053 10.8594 223.9053 9.3594 Q223.9053 7.8594 223.5225 7.1094 Q223.1396 6.3594 222.3584 6.3594 ZM222.3584 5.5781 Q223.5928 5.5781 224.2412 6.5469 Q224.8896 7.5156 224.8896 9.3594 Q224.8896 11.2031 224.2412 12.1719 Q223.5928 13.1406 222.3584 13.1406 Q221.1396 13.1406 220.4912 12.1719 Q219.8428 11.2031 219.8428 9.3594 Q219.8428 7.5156 220.4912 6.5469 Q221.1396 5.5781 222.3584 5.5781 Z"
         style="clip-path:url(#clipPath2); stroke:none;"
         clip-path="url(#clipPath2)"
         id="path115" />
      <path
         d="M0.9219 18.7031 L2.7969 18.7031 L2.7969 24.5781 L6.0938 24.5781 L6.0938 26 L0.9219 26 L0.9219 18.7031 ZM9.6689 23.5312 Q9.1221 23.5312 8.8408 23.7188 Q8.5596 23.9062 8.5596 24.2656 Q8.5596 24.6094 8.7861 24.7969 Q9.0127 24.9844 9.4033 24.9844 Q9.9033 24.9844 10.2393 24.625 Q10.5752 24.2656 10.5752 23.7344 L10.5752 23.5312 L9.6689 23.5312 ZM12.3408 22.875 L12.3408 26 L10.5752 26 L10.5752 25.1875 Q10.2158 25.6875 9.7783 25.9141 Q9.3408 26.1406 8.7158 26.1406 Q7.8564 26.1406 7.333 25.6484 Q6.8096 25.1562 6.8096 24.3594 Q6.8096 23.3906 7.4658 22.9453 Q8.1221 22.5 9.5439 22.5 L10.5752 22.5 L10.5752 22.3594 Q10.5752 21.9531 10.2471 21.7578 Q9.9189 21.5625 9.2314 21.5625 Q8.6689 21.5625 8.1846 21.6719 Q7.7002 21.7812 7.2783 22.0156 L7.2783 20.6719 Q7.8408 20.5469 8.4111 20.4766 Q8.9814 20.4062 9.5439 20.4062 Q11.0283 20.4062 11.6846 20.9844 Q12.3408 21.5625 12.3408 22.875 ZM18.2295 20.7031 L18.2295 22.0312 Q17.667 21.7969 17.1436 21.6797 Q16.6201 21.5625 16.167 21.5625 Q15.667 21.5625 15.4248 21.6875 Q15.1826 21.8125 15.1826 22.0625 Q15.1826 22.2812 15.3623 22.3906 Q15.542 22.5 16.0264 22.5625 L16.3232 22.5938 Q17.667 22.7656 18.1357 23.1562 Q18.6045 23.5469 18.6045 24.3906 Q18.6045 25.2656 17.9561 25.7031 Q17.3076 26.1406 16.0264 26.1406 Q15.4951 26.1406 14.917 26.0547 Q14.3389 25.9688 13.7139 25.7969 L13.7139 24.4688 Q14.2451 24.7188 14.792 24.8516 Q15.3389 24.9844 15.9014 24.9844 Q16.417 24.9844 16.6748 24.8438 Q16.9326 24.7031 16.9326 24.4219 Q16.9326 24.1875 16.7607 24.0703 Q16.5889 23.9531 16.0576 23.8906 L15.7451 23.8438 Q14.5732 23.7031 14.1045 23.3047 Q13.6357 22.9062 13.6357 22.1094 Q13.6357 21.2344 14.2295 20.8203 Q14.8232 20.4062 16.0576 20.4062 Q16.542 20.4062 17.0732 20.4766 Q17.6045 20.5469 18.2295 20.7031 ZM21.8223 18.9844 L21.8223 20.5312 L23.6191 20.5312 L23.6191 21.7812 L21.8223 21.7812 L21.8223 24.0938 Q21.8223 24.4844 21.9707 24.6172 Q22.1191 24.75 22.5723 24.75 L23.4785 24.75 L23.4785 26 L21.9785 26 Q20.9316 26 20.502 25.5703 Q20.0723 25.1406 20.0723 24.0938 L20.0723 21.7812 L19.1973 21.7812 L19.1973 20.5312 L20.0723 20.5312 L20.0723 18.9844 L21.8223 18.9844 ZM33.2402 21.4375 Q33.5684 20.9375 34.0293 20.6719 Q34.4902 20.4062 35.0371 20.4062 Q35.9746 20.4062 36.4668 20.9844 Q36.959 21.5625 36.959 22.6719 L36.959 26 L35.209 26 L35.209 23.1406 Q35.209 23.0781 35.209 23.0156 Q35.209 22.9531 35.209 22.8281 Q35.209 22.2344 35.0449 21.9766 Q34.8809 21.7188 34.4902 21.7188 Q33.9902 21.7188 33.7246 22.125 Q33.459 22.5312 33.4434 23.3125 L33.4434 26 L31.6777 26 L31.6777 23.1406 Q31.6777 22.2344 31.5215 21.9766 Q31.3652 21.7188 30.9746 21.7188 Q30.4746 21.7188 30.2012 22.1328 Q29.9277 22.5469 29.9277 23.3125 L29.9277 26 L28.1621 26 L28.1621 20.5312 L29.9277 20.5312 L29.9277 21.3281 Q30.2402 20.875 30.6621 20.6406 Q31.084 20.4062 31.584 20.4062 Q32.1465 20.4062 32.584 20.6797 Q33.0215 20.9531 33.2402 21.4375 ZM41.1914 21.6562 Q40.6133 21.6562 40.3086 22.0703 Q40.0039 22.4844 40.0039 23.2656 Q40.0039 24.0625 40.3086 24.4766 Q40.6133 24.8906 41.1914 24.8906 Q41.7695 24.8906 42.0742 24.4766 Q42.3789 24.0625 42.3789 23.2656 Q42.3789 22.4844 42.0742 22.0703 Q41.7695 21.6562 41.1914 21.6562 ZM41.1914 20.4062 Q42.6133 20.4062 43.4023 21.1641 Q44.1914 21.9219 44.1914 23.2656 Q44.1914 24.625 43.4023 25.3828 Q42.6133 26.1406 41.1914 26.1406 Q39.7852 26.1406 38.9883 25.3828 Q38.1914 24.625 38.1914 23.2656 Q38.1914 21.9219 38.9883 21.1641 Q39.7852 20.4062 41.1914 20.4062 ZM49.1865 21.3281 L49.1865 18.4062 L50.9365 18.4062 L50.9365 26 L49.1865 26 L49.1865 25.2031 Q48.8271 25.6875 48.3896 25.9141 Q47.9521 26.1406 47.3896 26.1406 Q46.374 26.1406 45.7256 25.3359 Q45.0771 24.5312 45.0771 23.2656 Q45.0771 22 45.7256 21.2031 Q46.374 20.4062 47.3896 20.4062 Q47.9521 20.4062 48.3896 20.6328 Q48.8271 20.8594 49.1865 21.3281 ZM48.0303 24.875 Q48.5928 24.875 48.8896 24.4609 Q49.1865 24.0469 49.1865 23.2656 Q49.1865 22.4844 48.8896 22.0781 Q48.5928 21.6719 48.0303 21.6719 Q47.4834 21.6719 47.1865 22.0781 Q46.8896 22.4844 46.8896 23.2656 Q46.8896 24.0469 47.1865 24.4609 Q47.4834 24.875 48.0303 24.875 ZM52.626 20.5312 L54.376 20.5312 L54.376 26 L52.626 26 L52.626 20.5312 ZM52.626 18.4062 L54.376 18.4062 L54.376 19.8281 L52.626 19.8281 L52.626 18.4062 ZM59.6475 18.4062 L59.6475 19.5469 L58.6787 19.5469 Q58.3037 19.5469 58.1631 19.6797 Q58.0225 19.8125 58.0225 20.1562 L58.0225 20.5312 L59.5068 20.5312 L59.5068 21.7812 L58.0225 21.7812 L58.0225 26 L56.2725 26 L56.2725 21.7812 L55.3975 21.7812 L55.3975 20.5312 L56.2725 20.5312 L56.2725 20.1562 Q56.2725 19.25 56.7725 18.8281 Q57.2725 18.4062 58.3037 18.4062 L59.6475 18.4062 ZM60.4043 20.5312 L62.1543 20.5312 L62.1543 26 L60.4043 26 L60.4043 20.5312 ZM60.4043 18.4062 L62.1543 18.4062 L62.1543 19.8281 L60.4043 19.8281 L60.4043 18.4062 ZM69.2852 23.25 L69.2852 23.75 L65.207 23.75 Q65.2695 24.3594 65.6445 24.6719 Q66.0195 24.9844 66.707 24.9844 Q67.2539 24.9844 67.8398 24.8203 Q68.4258 24.6562 69.0352 24.3125 L69.0352 25.6719 Q68.4102 25.9062 67.793 26.0234 Q67.1758 26.1406 66.5508 26.1406 Q65.0664 26.1406 64.2461 25.3828 Q63.4258 24.625 63.4258 23.2656 Q63.4258 21.9375 64.2305 21.1719 Q65.0352 20.4062 66.457 20.4062 Q67.7383 20.4062 68.5117 21.1797 Q69.2852 21.9531 69.2852 23.25 ZM67.4883 22.6719 Q67.4883 22.1719 67.1992 21.8672 Q66.9102 21.5625 66.4414 21.5625 Q65.9258 21.5625 65.6133 21.8438 Q65.3008 22.125 65.2227 22.6719 L67.4883 22.6719 ZM74.333 21.3281 L74.333 18.4062 L76.083 18.4062 L76.083 26 L74.333 26 L74.333 25.2031 Q73.9736 25.6875 73.5361 25.9141 Q73.0986 26.1406 72.5361 26.1406 Q71.5205 26.1406 70.8721 25.3359 Q70.2236 24.5312 70.2236 23.2656 Q70.2236 22 70.8721 21.2031 Q71.5205 20.4062 72.5361 20.4062 Q73.0986 20.4062 73.5361 20.6328 Q73.9736 20.8594 74.333 21.3281 ZM73.1768 24.875 Q73.7393 24.875 74.0361 24.4609 Q74.333 24.0469 74.333 23.2656 Q74.333 22.4844 74.0361 22.0781 Q73.7393 21.6719 73.1768 21.6719 Q72.6299 21.6719 72.333 22.0781 Q72.0361 22.4844 72.0361 23.2656 Q72.0361 24.0469 72.333 24.4609 Q72.6299 24.875 73.1768 24.875 ZM78.0537 20.5312 L79.8037 20.5312 L79.8037 22.4219 L78.0537 22.4219 L78.0537 20.5312 ZM78.0537 24.1094 L79.8037 24.1094 L79.8037 26 L78.0537 26 L78.0537 24.1094 Z"
         style="clip-path:url(#clipPath2); stroke:none;"
         clip-path="url(#clipPath2)"
         id="path117" />
      <path
         d="M89.9219 25.1719 L93.3594 25.1719 L93.3594 26 L88.7344 26 L88.7344 25.1719 Q89.2969 24.5938 90.2656 23.6094 Q91.2344 22.625 91.4844 22.3438 Q91.9531 21.8125 92.1406 21.4453 Q92.3281 21.0781 92.3281 20.7188 Q92.3281 20.1406 91.9219 19.7734 Q91.5156 19.4062 90.8594 19.4062 Q90.3906 19.4062 89.8828 19.5703 Q89.375 19.7344 88.7812 20.0625 L88.7812 19.0625 Q89.375 18.8281 89.8906 18.7031 Q90.4062 18.5781 90.8438 18.5781 Q91.9688 18.5781 92.6484 19.1406 Q93.3281 19.7031 93.3281 20.6562 Q93.3281 21.1094 93.1562 21.5078 Q92.9844 21.9062 92.5469 22.4531 Q92.4219 22.5938 91.7656 23.2734 Q91.1094 23.9531 89.9219 25.1719 ZM96.9092 18.7031 L97.7373 18.7031 L95.1904 26.9219 L94.3623 26.9219 L96.9092 18.7031 ZM99.6533 25.1719 L103.0908 25.1719 L103.0908 26 L98.4658 26 L98.4658 25.1719 Q99.0283 24.5938 99.9971 23.6094 Q100.9658 22.625 101.2158 22.3438 Q101.6846 21.8125 101.8721 21.4453 Q102.0596 21.0781 102.0596 20.7188 Q102.0596 20.1406 101.6533 19.7734 Q101.2471 19.4062 100.5908 19.4062 Q100.1221 19.4062 99.6143 19.5703 Q99.1064 19.7344 98.5127 20.0625 L98.5127 19.0625 Q99.1064 18.8281 99.6221 18.7031 Q100.1377 18.5781 100.5752 18.5781 Q101.7002 18.5781 102.3799 19.1406 Q103.0596 19.7031 103.0596 20.6562 Q103.0596 21.1094 102.8877 21.5078 Q102.7158 21.9062 102.2783 22.4531 Q102.1533 22.5938 101.4971 23.2734 Q100.8408 23.9531 99.6533 25.1719 ZM106.0156 25.1719 L109.4531 25.1719 L109.4531 26 L104.8281 26 L104.8281 25.1719 Q105.3906 24.5938 106.3594 23.6094 Q107.3281 22.625 107.5781 22.3438 Q108.0469 21.8125 108.2344 21.4453 Q108.4219 21.0781 108.4219 20.7188 Q108.4219 20.1406 108.0156 19.7734 Q107.6094 19.4062 106.9531 19.4062 Q106.4844 19.4062 105.9766 19.5703 Q105.4688 19.7344 104.875 20.0625 L104.875 19.0625 Q105.4688 18.8281 105.9844 18.7031 Q106.5 18.5781 106.9375 18.5781 Q108.0625 18.5781 108.7422 19.1406 Q109.4219 19.7031 109.4219 20.6562 Q109.4219 21.1094 109.25 21.5078 Q109.0781 21.9062 108.6406 22.4531 Q108.5156 22.5938 107.8594 23.2734 Q107.2031 23.9531 106.0156 25.1719 ZM113.0029 18.7031 L113.8311 18.7031 L111.2842 26.9219 L110.4561 26.9219 L113.0029 18.7031 ZM115.7471 25.1719 L119.1846 25.1719 L119.1846 26 L114.5596 26 L114.5596 25.1719 Q115.1221 24.5938 116.0908 23.6094 Q117.0596 22.625 117.3096 22.3438 Q117.7783 21.8125 117.9658 21.4453 Q118.1533 21.0781 118.1533 20.7188 Q118.1533 20.1406 117.7471 19.7734 Q117.3408 19.4062 116.6846 19.4062 Q116.2158 19.4062 115.708 19.5703 Q115.2002 19.7344 114.6064 20.0625 L114.6064 19.0625 Q115.2002 18.8281 115.7158 18.7031 Q116.2314 18.5781 116.6689 18.5781 Q117.7939 18.5781 118.4736 19.1406 Q119.1533 19.7031 119.1533 20.6562 Q119.1533 21.1094 118.9814 21.5078 Q118.8096 21.9062 118.3721 22.4531 Q118.2471 22.5938 117.5908 23.2734 Q116.9346 23.9531 115.7471 25.1719 ZM123.3594 19.3594 Q122.6094 19.3594 122.2266 20.1094 Q121.8438 20.8594 121.8438 22.3594 Q121.8438 23.8594 122.2266 24.6094 Q122.6094 25.3594 123.3594 25.3594 Q124.1406 25.3594 124.5234 24.6094 Q124.9062 23.8594 124.9062 22.3594 Q124.9062 20.8594 124.5234 20.1094 Q124.1406 19.3594 123.3594 19.3594 ZM123.3594 18.5781 Q124.5938 18.5781 125.2422 19.5469 Q125.8906 20.5156 125.8906 22.3594 Q125.8906 24.2031 125.2422 25.1719 Q124.5938 26.1406 123.3594 26.1406 Q122.1406 26.1406 121.4922 25.1719 Q120.8438 24.2031 120.8438 22.3594 Q120.8438 20.5156 121.4922 19.5469 Q122.1406 18.5781 123.3594 18.5781 ZM127.7842 25.1719 L129.4092 25.1719 L129.4092 19.6094 L127.6436 19.9531 L127.6436 19.0625 L129.3936 18.7031 L130.3779 18.7031 L130.3779 25.1719 L131.9873 25.1719 L131.9873 26 L127.7842 26 L127.7842 25.1719 ZM136.9746 22.0625 Q137.6777 22.2188 138.0762 22.6953 Q138.4746 23.1719 138.4746 23.875 Q138.4746 24.9531 137.7324 25.5469 Q136.9902 26.1406 135.6152 26.1406 Q135.1621 26.1406 134.6777 26.0469 Q134.1934 25.9531 133.6777 25.7812 L133.6777 24.8281 Q134.084 25.0625 134.5762 25.1875 Q135.0684 25.3125 135.5996 25.3125 Q136.5215 25.3125 137.0059 24.9453 Q137.4902 24.5781 137.4902 23.875 Q137.4902 23.2344 137.0371 22.875 Q136.584 22.5156 135.7871 22.5156 L134.9277 22.5156 L134.9277 21.7031 L135.8184 21.7031 Q136.5527 21.7031 136.9355 21.4062 Q137.3184 21.1094 137.3184 20.5625 Q137.3184 20.0156 136.9199 19.7109 Q136.5215 19.4062 135.7871 19.4062 Q135.3809 19.4062 134.9121 19.4922 Q134.4434 19.5781 133.8965 19.7656 L133.8965 18.8906 Q134.459 18.7344 134.9512 18.6562 Q135.4434 18.5781 135.8652 18.5781 Q136.9902 18.5781 137.6465 19.0859 Q138.3027 19.5938 138.3027 20.4688 Q138.3027 21.0781 137.959 21.4922 Q137.6152 21.9062 136.9746 22.0625 Z"
         style="clip-path:url(#clipPath2); stroke:none;"
         clip-path="url(#clipPath2)"
         id="path119" />
      <path
         d="M4.25 33.9375 Q3.3906 33.9375 2.9141 34.5703 Q2.4375 35.2031 2.4375 36.3594 Q2.4375 37.5156 2.9141 38.1484 Q3.3906 38.7812 4.25 38.7812 Q5.1094 38.7812 5.5859 38.1484 Q6.0625 37.5156 6.0625 36.3594 Q6.0625 35.2031 5.5859 34.5703 Q5.1094 33.9375 4.25 33.9375 ZM4.25 32.5781 Q6 32.5781 7 33.5859 Q8 34.5938 8 36.3594 Q8 38.125 7 39.1328 Q6 40.1406 4.25 40.1406 Q2.5 40.1406 1.5 39.1328 Q0.5 38.125 0.5 36.3594 Q0.5 34.5938 1.5 33.5859 Q2.5 32.5781 4.25 32.5781 ZM13.4072 36.0156 Q13.1729 35.9062 12.9463 35.8594 Q12.7197 35.8125 12.4854 35.8125 Q11.8135 35.8125 11.4541 36.2422 Q11.0947 36.6719 11.0947 37.4844 L11.0947 40 L9.3447 40 L9.3447 34.5312 L11.0947 34.5312 L11.0947 35.4219 Q11.4229 34.8906 11.8604 34.6484 Q12.2979 34.4062 12.9072 34.4062 Q13.001 34.4062 13.1025 34.4062 Q13.2041 34.4062 13.3916 34.4375 L13.4072 36.0156 ZM17.9951 39.0781 Q17.6357 39.5469 17.1982 39.7734 Q16.7607 40 16.1982 40 Q15.1982 40 14.542 39.2109 Q13.8857 38.4219 13.8857 37.2031 Q13.8857 35.9688 14.542 35.1875 Q15.1982 34.4062 16.1982 34.4062 Q16.7607 34.4062 17.1982 34.6328 Q17.6357 34.8594 17.9951 35.3438 L17.9951 34.5312 L19.7451 34.5312 L19.7451 39.4531 Q19.7451 40.7656 18.917 41.4609 Q18.0889 42.1562 16.5107 42.1562 Q15.9951 42.1562 15.5186 42.0781 Q15.042 42 14.5576 41.8438 L14.5576 40.4844 Q15.0107 40.75 15.4482 40.875 Q15.8857 41 16.3389 41 Q17.1982 41 17.5967 40.625 Q17.9951 40.25 17.9951 39.4531 L17.9951 39.0781 ZM16.8389 35.6719 Q16.292 35.6719 15.9951 36.0703 Q15.6982 36.4688 15.6982 37.2031 Q15.6982 37.9531 15.9873 38.3438 Q16.2764 38.7344 16.8389 38.7344 Q17.3857 38.7344 17.6904 38.3281 Q17.9951 37.9219 17.9951 37.2031 Q17.9951 36.4688 17.6904 36.0703 Q17.3857 35.6719 16.8389 35.6719 ZM23.8877 37.5312 Q23.3408 37.5312 23.0596 37.7188 Q22.7783 37.9062 22.7783 38.2656 Q22.7783 38.6094 23.0049 38.7969 Q23.2314 38.9844 23.6221 38.9844 Q24.1221 38.9844 24.458 38.625 Q24.7939 38.2656 24.7939 37.7344 L24.7939 37.5312 L23.8877 37.5312 ZM26.5596 36.875 L26.5596 40 L24.7939 40 L24.7939 39.1875 Q24.4346 39.6875 23.9971 39.9141 Q23.5596 40.1406 22.9346 40.1406 Q22.0752 40.1406 21.5518 39.6484 Q21.0283 39.1562 21.0283 38.3594 Q21.0283 37.3906 21.6846 36.9453 Q22.3408 36.5 23.7627 36.5 L24.7939 36.5 L24.7939 36.3594 Q24.7939 35.9531 24.4658 35.7578 Q24.1377 35.5625 23.4502 35.5625 Q22.8877 35.5625 22.4033 35.6719 Q21.9189 35.7812 21.4971 36.0156 L21.4971 34.6719 Q22.0596 34.5469 22.6299 34.4766 Q23.2002 34.4062 23.7627 34.4062 Q25.2471 34.4062 25.9033 34.9844 Q26.5596 35.5625 26.5596 36.875 ZM33.6826 36.6719 L33.6826 40 L31.917 40 L31.917 39.4531 L31.917 37.4531 Q31.917 36.75 31.8857 36.4766 Q31.8545 36.2031 31.7764 36.0781 Q31.6826 35.9062 31.5029 35.8125 Q31.3232 35.7188 31.1045 35.7188 Q30.5576 35.7188 30.2451 36.1406 Q29.9326 36.5625 29.9326 37.3125 L29.9326 40 L28.1826 40 L28.1826 34.5312 L29.9326 34.5312 L29.9326 35.3281 Q30.3232 34.8594 30.7686 34.6328 Q31.2139 34.4062 31.7451 34.4062 Q32.6982 34.4062 33.1904 34.9844 Q33.6826 35.5625 33.6826 36.6719 ZM35.3018 34.5312 L37.0518 34.5312 L37.0518 40 L35.3018 40 L35.3018 34.5312 ZM35.3018 32.4062 L37.0518 32.4062 L37.0518 33.8281 L35.3018 33.8281 L35.3018 32.4062 ZM42.9951 34.7031 L42.9951 36.0312 Q42.4326 35.7969 41.9092 35.6797 Q41.3857 35.5625 40.9326 35.5625 Q40.4326 35.5625 40.1904 35.6875 Q39.9482 35.8125 39.9482 36.0625 Q39.9482 36.2812 40.1279 36.3906 Q40.3076 36.5 40.792 36.5625 L41.0889 36.5938 Q42.4326 36.7656 42.9014 37.1562 Q43.3701 37.5469 43.3701 38.3906 Q43.3701 39.2656 42.7217 39.7031 Q42.0732 40.1406 40.792 40.1406 Q40.2607 40.1406 39.6826 40.0547 Q39.1045 39.9688 38.4795 39.7969 L38.4795 38.4688 Q39.0107 38.7188 39.5576 38.8516 Q40.1045 38.9844 40.667 38.9844 Q41.1826 38.9844 41.4404 38.8438 Q41.6982 38.7031 41.6982 38.4219 Q41.6982 38.1875 41.5264 38.0703 Q41.3545 37.9531 40.8232 37.8906 L40.5107 37.8438 Q39.3389 37.7031 38.8701 37.3047 Q38.4014 36.9062 38.4014 36.1094 Q38.4014 35.2344 38.9951 34.8203 Q39.5889 34.4062 40.8232 34.4062 Q41.3076 34.4062 41.8389 34.4766 Q42.3701 34.5469 42.9951 34.7031 ZM49.7441 35.4375 Q50.0723 34.9375 50.5332 34.6719 Q50.9941 34.4062 51.541 34.4062 Q52.4785 34.4062 52.9707 34.9844 Q53.4629 35.5625 53.4629 36.6719 L53.4629 40 L51.7129 40 L51.7129 37.1406 Q51.7129 37.0781 51.7129 37.0156 Q51.7129 36.9531 51.7129 36.8281 Q51.7129 36.2344 51.5488 35.9766 Q51.3848 35.7188 50.9941 35.7188 Q50.4941 35.7188 50.2285 36.125 Q49.9629 36.5312 49.9473 37.3125 L49.9473 40 L48.1816 40 L48.1816 37.1406 Q48.1816 36.2344 48.0254 35.9766 Q47.8691 35.7188 47.4785 35.7188 Q46.9785 35.7188 46.7051 36.1328 Q46.4316 36.5469 46.4316 37.3125 L46.4316 40 L44.666 40 L44.666 34.5312 L46.4316 34.5312 L46.4316 35.3281 Q46.7441 34.875 47.166 34.6406 Q47.5879 34.4062 48.0879 34.4062 Q48.6504 34.4062 49.0879 34.6797 Q49.5254 34.9531 49.7441 35.4375 ZM55.3828 34.5312 L57.1328 34.5312 L57.1328 36.4219 L55.3828 36.4219 L55.3828 34.5312 ZM55.3828 38.1094 L57.1328 38.1094 L57.1328 40 L55.3828 40 L55.3828 38.1094 Z"
         style="clip-path:url(#clipPath2); stroke:none;"
         clip-path="url(#clipPath2)"
         id="path121" />
      <path
         d="M66.9844 32.7031 L67.9688 32.7031 L67.9688 35.7031 L71.5469 35.7031 L71.5469 32.7031 L72.5312 32.7031 L72.5312 40 L71.5469 40 L71.5469 36.5312 L67.9688 36.5312 L67.9688 40 L66.9844 40 L66.9844 32.7031 ZM76.582 35.1562 Q75.8633 35.1562 75.4414 35.7188 Q75.0195 36.2812 75.0195 37.2656 Q75.0195 38.25 75.4336 38.8125 Q75.8477 39.375 76.582 39.375 Q77.3008 39.375 77.7227 38.8125 Q78.1445 38.25 78.1445 37.2656 Q78.1445 36.2969 77.7227 35.7266 Q77.3008 35.1562 76.582 35.1562 ZM76.582 34.4062 Q77.7539 34.4062 78.4258 35.1641 Q79.0977 35.9219 79.0977 37.2656 Q79.0977 38.6094 78.4258 39.375 Q77.7539 40.1406 76.582 40.1406 Q75.4102 40.1406 74.7383 39.375 Q74.0664 38.6094 74.0664 37.2656 Q74.0664 35.9219 74.7383 35.1641 Q75.4102 34.4062 76.582 34.4062 ZM84.8408 35.5781 Q85.1689 34.9688 85.6377 34.6875 Q86.1064 34.4062 86.7471 34.4062 Q87.6064 34.4062 88.0674 35 Q88.5283 35.5938 88.5283 36.7031 L88.5283 40 L87.6221 40 L87.6221 36.7344 Q87.6221 35.9375 87.3486 35.5625 Q87.0752 35.1875 86.4971 35.1875 Q85.7939 35.1875 85.3955 35.6484 Q84.9971 36.1094 84.9971 36.9062 L84.9971 40 L84.0908 40 L84.0908 36.7344 Q84.0908 35.9375 83.8096 35.5625 Q83.5283 35.1875 82.9502 35.1875 Q82.2627 35.1875 81.8564 35.6484 Q81.4502 36.1094 81.4502 36.9062 L81.4502 40 L80.5439 40 L80.5439 34.5312 L81.4502 34.5312 L81.4502 35.375 Q81.7627 34.875 82.1924 34.6406 Q82.6221 34.4062 83.2002 34.4062 Q83.8096 34.4062 84.2236 34.7031 Q84.6377 35 84.8408 35.5781 ZM92.4414 35.1562 Q91.7227 35.1562 91.3008 35.7188 Q90.8789 36.2812 90.8789 37.2656 Q90.8789 38.25 91.293 38.8125 Q91.707 39.375 92.4414 39.375 Q93.1602 39.375 93.582 38.8125 Q94.0039 38.25 94.0039 37.2656 Q94.0039 36.2969 93.582 35.7266 Q93.1602 35.1562 92.4414 35.1562 ZM92.4414 34.4062 Q93.6133 34.4062 94.2852 35.1641 Q94.957 35.9219 94.957 37.2656 Q94.957 38.6094 94.2852 39.375 Q93.6133 40.1406 92.4414 40.1406 Q91.2695 40.1406 90.5977 39.375 Q89.9258 38.6094 89.9258 37.2656 Q89.9258 35.9219 90.5977 35.1641 Q91.2695 34.4062 92.4414 34.4062 ZM103.0977 34.6875 L103.0977 35.5469 Q102.7227 35.3438 102.3164 35.25 Q101.9102 35.1562 101.457 35.1562 Q100.8008 35.1562 100.4648 35.3594 Q100.1289 35.5625 100.1289 35.9688 Q100.1289 36.2812 100.3633 36.4609 Q100.5977 36.6406 101.332 36.7969 L101.6289 36.875 Q102.5977 37.0781 102.9961 37.4531 Q103.3945 37.8281 103.3945 38.4844 Q103.3945 39.25 102.793 39.6953 Q102.1914 40.1406 101.1445 40.1406 Q100.6914 40.1406 100.2148 40.0547 Q99.7383 39.9688 99.2227 39.7969 L99.2227 38.875 Q99.7227 39.125 100.1992 39.2578 Q100.6758 39.3906 101.1602 39.3906 Q101.7852 39.3906 102.1289 39.1719 Q102.4727 38.9531 102.4727 38.5625 Q102.4727 38.1875 102.2305 37.9922 Q101.9883 37.7969 101.1445 37.625 L100.832 37.5469 Q100.0039 37.375 99.6289 37.0078 Q99.2539 36.6406 99.2539 36.0156 Q99.2539 35.2344 99.8008 34.8203 Q100.3477 34.4062 101.3633 34.4062 Q101.8477 34.4062 102.293 34.4766 Q102.7383 34.5469 103.0977 34.6875 ZM107.3076 37.25 Q106.2295 37.25 105.8076 37.5 Q105.3857 37.75 105.3857 38.3438 Q105.3857 38.8281 105.6982 39.1094 Q106.0107 39.3906 106.5576 39.3906 Q107.3076 39.3906 107.7607 38.8594 Q108.2139 38.3281 108.2139 37.4531 L108.2139 37.25 L107.3076 37.25 ZM109.1045 36.875 L109.1045 40 L108.2139 40 L108.2139 39.1719 Q107.9014 39.6719 107.4404 39.9062 Q106.9795 40.1406 106.3232 40.1406 Q105.4795 40.1406 104.9795 39.6719 Q104.4795 39.2031 104.4795 38.4062 Q104.4795 37.4844 105.1045 37.0156 Q105.7295 36.5469 106.9482 36.5469 L108.2139 36.5469 L108.2139 36.4531 Q108.2139 35.8438 107.7998 35.5 Q107.3857 35.1562 106.6514 35.1562 Q106.1826 35.1562 105.7373 35.2734 Q105.292 35.3906 104.8857 35.6094 L104.8857 34.7812 Q105.3857 34.5938 105.8467 34.5 Q106.3076 34.4062 106.7451 34.4062 Q107.9326 34.4062 108.5186 35.0156 Q109.1045 35.625 109.1045 36.875 ZM111.8262 39.1719 L111.8262 42.0781 L110.9199 42.0781 L110.9199 34.5312 L111.8262 34.5312 L111.8262 35.3594 Q112.1074 34.875 112.5371 34.6406 Q112.9668 34.4062 113.5762 34.4062 Q114.5762 34.4062 115.1934 35.1953 Q115.8105 35.9844 115.8105 37.2656 Q115.8105 38.5625 115.1934 39.3516 Q114.5762 40.1406 113.5762 40.1406 Q112.9668 40.1406 112.5371 39.9062 Q112.1074 39.6719 111.8262 39.1719 ZM114.8887 37.2656 Q114.8887 36.2812 114.4746 35.7188 Q114.0605 35.1562 113.3574 35.1562 Q112.6387 35.1562 112.2324 35.7188 Q111.8262 36.2812 111.8262 37.2656 Q111.8262 38.2656 112.2324 38.8281 Q112.6387 39.3906 113.3574 39.3906 Q114.0605 39.3906 114.4746 38.8281 Q114.8887 38.2656 114.8887 37.2656 ZM117.2988 34.5312 L118.2051 34.5312 L118.2051 40 L117.2988 40 L117.2988 34.5312 ZM117.2988 32.4062 L118.2051 32.4062 L118.2051 33.5469 L117.2988 33.5469 L117.2988 32.4062 ZM124.7646 37.0469 L124.7646 37.4844 L120.624 37.4844 Q120.6865 38.4062 121.1865 38.8906 Q121.6865 39.375 122.5771 39.375 Q123.0928 39.375 123.585 39.25 Q124.0771 39.125 124.5459 38.875 L124.5459 39.7188 Q124.0615 39.9219 123.5537 40.0312 Q123.0459 40.1406 122.5303 40.1406 Q121.2178 40.1406 120.4521 39.3828 Q119.6865 38.625 119.6865 37.3125 Q119.6865 35.9688 120.4131 35.1875 Q121.1396 34.4062 122.374 34.4062 Q123.4834 34.4062 124.124 35.1094 Q124.7646 35.8125 124.7646 37.0469 ZM123.8584 36.7812 Q123.8584 36.0469 123.4521 35.6016 Q123.0459 35.1562 122.3896 35.1562 Q121.624 35.1562 121.1787 35.5859 Q120.7334 36.0156 120.6553 36.7812 L123.8584 36.7812 ZM130.7764 36.7031 L130.7764 40 L129.8857 40 L129.8857 36.7344 Q129.8857 35.9531 129.5811 35.5703 Q129.2764 35.1875 128.667 35.1875 Q127.9482 35.1875 127.5264 35.6484 Q127.1045 36.1094 127.1045 36.9062 L127.1045 40 L126.1982 40 L126.1982 34.5312 L127.1045 34.5312 L127.1045 35.375 Q127.4326 34.8906 127.8701 34.6484 Q128.3076 34.4062 128.8701 34.4062 Q129.8076 34.4062 130.292 34.9844 Q130.7764 35.5625 130.7764 36.7031 ZM136.0518 34.6875 L136.0518 35.5469 Q135.6768 35.3438 135.2705 35.25 Q134.8643 35.1562 134.4111 35.1562 Q133.7549 35.1562 133.4189 35.3594 Q133.083 35.5625 133.083 35.9688 Q133.083 36.2812 133.3174 36.4609 Q133.5518 36.6406 134.2861 36.7969 L134.583 36.875 Q135.5518 37.0781 135.9502 37.4531 Q136.3486 37.8281 136.3486 38.4844 Q136.3486 39.25 135.7471 39.6953 Q135.1455 40.1406 134.0986 40.1406 Q133.6455 40.1406 133.1689 40.0547 Q132.6924 39.9688 132.1768 39.7969 L132.1768 38.875 Q132.6768 39.125 133.1533 39.2578 Q133.6299 39.3906 134.1143 39.3906 Q134.7393 39.3906 135.083 39.1719 Q135.4268 38.9531 135.4268 38.5625 Q135.4268 38.1875 135.1846 37.9922 Q134.9424 37.7969 134.0986 37.625 L133.7861 37.5469 Q132.958 37.375 132.583 37.0078 Q132.208 36.6406 132.208 36.0156 Q132.208 35.2344 132.7549 34.8203 Q133.3018 34.4062 134.3174 34.4062 Q134.8018 34.4062 135.2471 34.4766 Q135.6924 34.5469 136.0518 34.6875 Z"
         style="clip-path:url(#clipPath2); stroke:none;"
         clip-path="url(#clipPath2)"
         id="path123" />
    </g>
    <g
       style="fill:navy; text-rendering:geometricPrecision; font-size:8; stroke:navy;"
       id="g129">
      <text
         x="230"
         xml:space="preserve"
         y="22"
         style="clip-path:url(#clipPath4); stroke:none;"
         clip-path="url(#clipPath4)"
         id="text127">1</text>
    </g>
    <g
       style="fill:rgb(180,180,100); text-rendering:geometricPrecision; fill-opacity:0.098; stroke-opacity:0.098; stroke:rgb(180,180,100);"
       id="g133">
      <rect
         x="32"
         y="164"
         width="172"
         style="clip-path:url(#clipPath5); stroke:none;"
         height="86"
         clip-path="url(#clipPath5)"
         id="rect131" />
    </g>
    <g
       style="fill:gray; text-rendering:geometricPrecision; stroke-dasharray:4,2; stroke-miterlimit:1; stroke:gray;"
       id="g137">
      <rect
         x="32"
         y="164"
         width="171"
         style="fill:none; clip-path:url(#clipPath5);"
         height="85"
         clip-path="url(#clipPath5)"
         id="rect135" />
    </g>
    <g
       style="fill:rgb(180,180,100); text-rendering:geometricPrecision; fill-opacity:0.098; stroke-opacity:0.098; stroke:rgb(180,180,100);"
       id="g141">
      <rect
         x="405"
         y="273"
         width="197"
         style="clip-path:url(#clipPath6); stroke:none;"
         height="36"
         clip-path="url(#clipPath6)"
         id="rect139" />
    </g>
    <g
       style="fill:gray; text-rendering:geometricPrecision; stroke-dasharray:4,2; stroke-miterlimit:1; stroke:gray;"
       id="g145">
      <rect
         x="405"
         y="273"
         width="196"
         style="fill:none; clip-path:url(#clipPath6);"
         height="35"
         clip-path="url(#clipPath6)"
         id="rect143" />
    </g>
    <g
       style="fill:rgb(180,180,100); text-rendering:geometricPrecision; fill-opacity:0.098; stroke-opacity:0.098; stroke:rgb(180,180,100);"
       id="g149">
      <rect
         x="234"
         y="76"
         width="96"
         style="clip-path:url(#clipPath7); stroke:none;"
         height="115"
         clip-path="url(#clipPath7)"
         id="rect147" />
    </g>
    <g
       style="fill:gray; text-rendering:geometricPrecision; stroke-dasharray:4,2; stroke-miterlimit:1; stroke:gray;"
       id="g153">
      <rect
         x="234"
         y="76"
         width="95"
         style="fill:none; clip-path:url(#clipPath7);"
         height="114"
         clip-path="url(#clipPath7)"
         id="rect151" />
    </g>
    <g
       style="fill:rgb(180,180,100); text-rendering:geometricPrecision; fill-opacity:0.098; stroke-opacity:0.098; stroke:rgb(180,180,100);"
       id="g157">
      <rect
         x="217"
         y="310"
         width="96"
         style="clip-path:url(#clipPath8); stroke:none;"
         height="76"
         clip-path="url(#clipPath8)"
         id="rect155" />
    </g>
    <g
       style="fill:gray; text-rendering:geometricPrecision; stroke-dasharray:4,2; stroke-miterlimit:1; stroke:gray;"
       id="g161">
      <rect
         x="217"
         y="310"
         width="95"
         style="fill:none; clip-path:url(#clipPath8);"
         height="75"
         clip-path="url(#clipPath8)"
         id="rect159" />
    </g>
    <g
       style="fill:rgb(180,180,100); text-rendering:geometricPrecision; fill-opacity:0.098; stroke-opacity:0.098; stroke:rgb(180,180,100);"
       id="g165">
      <rect
         x="405"
         y="164"
         width="197"
         style="clip-path:url(#clipPath9); stroke:none;"
         height="86"
         clip-path="url(#clipPath9)"
         id="rect163" />
    </g>
    <g
       style="fill:gray; text-rendering:geometricPrecision; stroke-dasharray:4,2; stroke-miterlimit:1; stroke:gray;"
       id="g169">
      <rect
         x="405"
         y="164"
         width="196"
         style="fill:none; clip-path:url(#clipPath9);"
         height="85"
         clip-path="url(#clipPath9)"
         id="rect167" />
    </g>
    <g
       style="text-rendering:geometricPrecision;"
       id="g175">
      <path
         d="M169.5 291 L405.5 291"
         style="fill:none; clip-path:url(#clipPath10);"
         clip-path="url(#clipPath10)"
         id="path171" />
      <path
         d="M405.5 291 L393.8 285.8 L393.8 296.2 Z"
         style="clip-path:url(#clipPath10); fill-rule:evenodd; stroke:none;"
         clip-path="url(#clipPath10)"
         id="path173" />
    </g>
    <g
       style="text-rendering:geometricPrecision;"
       id="g181">
      <path
         d="M205.0062 207.9994 L405.5 207"
         style="fill:none; clip-path:url(#clipPath11);"
         clip-path="url(#clipPath11)"
         id="path177" />
      <path
         d="M405.5 207 L393.7742 201.8584 L393.826 212.2583 Z"
         style="clip-path:url(#clipPath11); fill-rule:evenodd; stroke:none;"
         clip-path="url(#clipPath11)"
         id="path179" />
    </g>
    <g
       style="text-rendering:geometricPrecision;"
       id="g189">
      <path
         d="M265 310 L264.4202 299.985"
         style="fill:none; clip-path:url(#clipPath12);"
         clip-path="url(#clipPath12)"
         id="path183" />
      <path
         d="M259.2289 300.2855 L263.744 288.3045 L269.6115 299.6844 Z"
         style="fill:white; clip-path:url(#clipPath12); stroke:none;"
         clip-path="url(#clipPath12)"
         id="path185" />
      <path
         d="M259.2289 300.2855 L263.744 288.3045 L269.6115 299.6844 Z"
         style="fill:none; clip-path:url(#clipPath12);"
         clip-path="url(#clipPath12)"
         id="path187" />
    </g>
    <g
       style="text-rendering:geometricPrecision;"
       id="g197">
      <path
         d="M282 191 L283.4982 198.7627"
         style="fill:none; clip-path:url(#clipPath13);"
         clip-path="url(#clipPath13)"
         id="path191" />
      <path
         d="M288.604 197.7773 L285.7154 210.2507 L278.3924 199.7481 Z"
         style="fill:white; clip-path:url(#clipPath13); stroke:none;"
         clip-path="url(#clipPath13)"
         id="path193" />
      <path
         d="M288.604 197.7773 L285.7154 210.2507 L278.3924 199.7481 Z"
         style="fill:none; clip-path:url(#clipPath13);"
         clip-path="url(#clipPath13)"
         id="path195" />
    </g>
    <g
       style="text-rendering:geometricPrecision;"
       id="g201">
      <path
         d="M175.9904 173.0017 Q186.4935 173.0002 186.4959 189.7498 Q186.4983 206.4994 197.0014 206.4978 Q186.4983 206.4994 186.5007 223.2489 Q186.5031 239.9985 176 240"
         style="fill:none; clip-path:url(#clipPath14);"
         clip-path="url(#clipPath14)"
         id="path199" />
    </g>
    <g
       style="font-weight:bold; font-size:10; text-rendering:geometricPrecision;"
       id="g205">
      <text
         x="253"
         xml:space="preserve"
         y="52"
         style="clip-path:url(#clipPath15); stroke:none;"
         clip-path="url(#clipPath15)"
         id="text203">Hydrolysis</text>
    </g>
    <g
       style="fill:rgb(0,204,255); text-rendering:geometricPrecision; font-size:10; stroke:rgb(0,204,255);"
       id="g209">
      <text
         x="548"
         xml:space="preserve"
         y="211"
         style="clip-path:url(#clipPath16); stroke:none;"
         clip-path="url(#clipPath16)"
         id="text207">OH</text>
    </g>
    <g
       style="fill:rgb(0,204,255); text-rendering:geometricPrecision; font-size:10; stroke:rgb(0,204,255);"
       id="g213">
      <text
         x="548"
         xml:space="preserve"
         y="185"
         style="clip-path:url(#clipPath17); stroke:none;"
         clip-path="url(#clipPath17)"
         id="text211">OH</text>
    </g>
    <g
       style="fill:rgb(0,204,255); text-rendering:geometricPrecision; font-size:10; stroke:rgb(0,204,255);"
       id="g217">
      <text
         x="548"
         xml:space="preserve"
         y="294"
         style="clip-path:url(#clipPath18); stroke:none;"
         clip-path="url(#clipPath18)"
         id="text215">OH</text>
    </g>
    <g
       style="fill:rgb(0,204,255); text-rendering:geometricPrecision; font-size:10; stroke:rgb(0,204,255);"
       id="g221">
      <text
         x="548"
         xml:space="preserve"
         y="235"
         style="clip-path:url(#clipPath19); stroke:none;"
         clip-path="url(#clipPath19)"
         id="text219">OH</text>
    </g>
    <g
       style="fill:white; text-rendering:geometricPrecision; stroke:white;"
       id="g229">
      <path
         d="M40.5 175 L169.5 175 L169.5 195 L40.5 195 L40.5 175 Z"
         style="clip-path:url(#clipPath20); stroke:none;"
         clip-path="url(#clipPath20)"
         id="path223" />
      <path
         d="M40.5 175 L169.5 175 L169.5 195 L40.5 195 L40.5 175 Z"
         style="fill:none; clip-path:url(#clipPath20); stroke:blue;"
         clip-path="url(#clipPath20)"
         id="path225" />
      <text
         x="51"
         y="188"
         style="font-size:10; clip-path:url(#clipPath20); fill:blue; stroke:none;"
         xml:space="preserve"
         clip-path="url(#clipPath20)"
         id="text227">carboxylic acid esters</text>
    </g>
    <g
       style="fill:white; text-rendering:geometricPrecision; stroke:white;"
       id="g237">
      <path
         d="M242 104 L322 104 L322 124 L242 124 L242 104 Z"
         style="clip-path:url(#clipPath21); stroke:none;"
         clip-path="url(#clipPath21)"
         id="path231" />
      <path
         d="M242 104 L322 104 L322 124 L242 124 L242 104 Z"
         style="fill:none; clip-path:url(#clipPath21); stroke:black;"
         clip-path="url(#clipPath21)"
         id="path233" />
      <text
         x="272"
         y="117"
         style="font-size:10; clip-path:url(#clipPath21); fill:black; stroke:none;"
         xml:space="preserve"
         clip-path="url(#clipPath21)"
         id="text235">ESD</text>
    </g>
    <g
       style="fill:white; text-rendering:geometricPrecision; stroke:white;"
       id="g245">
      <path
         d="M40.5 199 L169.5 199 L169.5 219 L40.5 219 L40.5 199 Z"
         style="clip-path:url(#clipPath22); stroke:none;"
         clip-path="url(#clipPath22)"
         id="path239" />
      <path
         d="M40.5 199 L169.5 199 L169.5 219 L40.5 219 L40.5 199 Z"
         style="fill:none; clip-path:url(#clipPath22); stroke:blue;"
         clip-path="url(#clipPath22)"
         id="path241" />
      <text
         x="87"
         y="212"
         style="font-size:10; clip-path:url(#clipPath22); fill:blue; stroke:none;"
         xml:space="preserve"
         clip-path="url(#clipPath22)"
         id="text243">amides</text>
    </g>
    <g
       style="fill:white; text-rendering:geometricPrecision; stroke:white;"
       id="g253">
      <path
         d="M413.5 198 L542.5 198 L542.5 218 L413.5 218 L413.5 198 Z"
         style="clip-path:url(#clipPath23); stroke:none;"
         clip-path="url(#clipPath23)"
         id="path247" />
      <path
         d="M413.5 198 L542.5 198 L542.5 218 L413.5 218 L413.5 198 Z"
         style="fill:none; clip-path:url(#clipPath23); stroke:blue;"
         clip-path="url(#clipPath23)"
         id="path249" />
      <text
         x="460"
         y="211"
         style="font-size:10; clip-path:url(#clipPath23); fill:blue; stroke:none;"
         xml:space="preserve"
         clip-path="url(#clipPath23)"
         id="text251">amides</text>
    </g>
    <g
       style="fill:white; text-rendering:geometricPrecision; stroke:white;"
       id="g261">
      <path
         d="M242 144 L322 144 L322 164 L242 164 L242 144 Z"
         style="clip-path:url(#clipPath24); stroke:none;"
         clip-path="url(#clipPath24)"
         id="path255" />
      <path
         d="M242 144 L322 144 L322 164 L242 164 L242 144 Z"
         style="fill:none; clip-path:url(#clipPath24); stroke:black;"
         clip-path="url(#clipPath24)"
         id="path257" />
      <text
         x="272"
         y="157"
         style="font-size:10; clip-path:url(#clipPath24); fill:black; stroke:none;"
         xml:space="preserve"
         clip-path="url(#clipPath24)"
         id="text259">LIPA</text>
    </g>
    <g
       style="fill:white; text-rendering:geometricPrecision; stroke:white;"
       id="g269">
      <path
         d="M225 318 L305 318 L305 338 L225 338 L225 318 Z"
         style="clip-path:url(#clipPath25); stroke:none;"
         clip-path="url(#clipPath25)"
         id="path263" />
      <path
         d="M225 318 L305 318 L305 338 L225 338 L225 318 Z"
         style="fill:none; clip-path:url(#clipPath25); stroke:black;"
         clip-path="url(#clipPath25)"
         id="path265" />
      <text
         x="252"
         y="331"
         style="font-size:10; clip-path:url(#clipPath25); fill:black; stroke:none;"
         xml:space="preserve"
         clip-path="url(#clipPath25)"
         id="text267">PON1</text>
    </g>
    <g
       style="fill:white; text-rendering:geometricPrecision; stroke:white;"
       id="g277">
      <path
         d="M40.5 281 L169.5 281 L169.5 301 L40.5 301 L40.5 281 Z"
         style="clip-path:url(#clipPath26); stroke:none;"
         clip-path="url(#clipPath26)"
         id="path271" />
      <path
         d="M40.5 281 L169.5 281 L169.5 301 L40.5 301 L40.5 281 Z"
         style="fill:none; clip-path:url(#clipPath26); stroke:blue;"
         clip-path="url(#clipPath26)"
         id="path273" />
      <text
         x="49"
         y="294"
         style="font-size:10; clip-path:url(#clipPath26); fill:blue; stroke:none;"
         xml:space="preserve"
         clip-path="url(#clipPath26)"
         id="text275">Phosphoric acid esters</text>
    </g>
    <g
       style="fill:white; text-rendering:geometricPrecision; stroke:white;"
       id="g285">
      <path
         d="M242 84 L322 84 L322 104 L242 104 L242 84 Z"
         style="clip-path:url(#clipPath27); stroke:none;"
         clip-path="url(#clipPath27)"
         id="path279" />
      <path
         d="M242 84 L322 84 L322 104 L242 104 L242 84 Z"
         style="fill:none; clip-path:url(#clipPath27); stroke:black;"
         clip-path="url(#clipPath27)"
         id="path281" />
      <text
         x="269"
         y="97"
         style="font-size:10; clip-path:url(#clipPath27); fill:black; stroke:none;"
         xml:space="preserve"
         clip-path="url(#clipPath27)"
         id="text283">CES1</text>
    </g>
    <g
       style="fill:white; text-rendering:geometricPrecision; stroke:white;"
       id="g293">
      <path
         d="M40.5 223 L169.5 223 L169.5 243 L40.5 243 L40.5 223 Z"
         style="clip-path:url(#clipPath28); stroke:none;"
         clip-path="url(#clipPath28)"
         id="path287" />
      <path
         d="M40.5 223 L169.5 223 L169.5 243 L40.5 243 L40.5 223 Z"
         style="fill:none; clip-path:url(#clipPath28); stroke:blue;"
         clip-path="url(#clipPath28)"
         id="path289" />
      <text
         x="79"
         y="236"
         style="font-size:10; clip-path:url(#clipPath28); fill:blue; stroke:none;"
         xml:space="preserve"
         clip-path="url(#clipPath28)"
         id="text291">thio esters</text>
    </g>
    <g
       style="fill:white; text-rendering:geometricPrecision; stroke:white;"
       id="g301">
      <path
         d="M413.5 222 L542.5 222 L542.5 242 L413.5 242 L413.5 222 Z"
         style="clip-path:url(#clipPath29); stroke:none;"
         clip-path="url(#clipPath29)"
         id="path295" />
      <path
         d="M413.5 222 L542.5 222 L542.5 242 L413.5 242 L413.5 222 Z"
         style="fill:none; clip-path:url(#clipPath29); stroke:blue;"
         clip-path="url(#clipPath29)"
         id="path297" />
      <text
         x="452"
         y="235"
         style="font-size:10; clip-path:url(#clipPath29); fill:blue; stroke:none;"
         xml:space="preserve"
         clip-path="url(#clipPath29)"
         id="text299">thio esters</text>
    </g>
    <g
       style="fill:white; text-rendering:geometricPrecision; stroke:white;"
       id="g309">
      <path
         d="M225 338 L305 338 L305 358 L225 358 L225 338 Z"
         style="clip-path:url(#clipPath30); stroke:none;"
         clip-path="url(#clipPath30)"
         id="path303" />
      <path
         d="M225 338 L305 338 L305 358 L225 358 L225 338 Z"
         style="fill:none; clip-path:url(#clipPath30); stroke:black;"
         clip-path="url(#clipPath30)"
         id="path305" />
      <text
         x="252"
         y="351"
         style="font-size:10; clip-path:url(#clipPath30); fill:black; stroke:none;"
         xml:space="preserve"
         clip-path="url(#clipPath30)"
         id="text307">PON2</text>
    </g>
    <g
       style="fill:white; text-rendering:geometricPrecision; stroke:white;"
       id="g317">
      <path
         d="M242 163 L322 163 L322 183 L242 183 L242 163 Z"
         style="clip-path:url(#clipPath31); stroke:none;"
         clip-path="url(#clipPath31)"
         id="path311" />
      <path
         d="M242 163 L322 163 L322 183 L242 183 L242 163 Z"
         style="fill:none; clip-path:url(#clipPath31); stroke:black;"
         clip-path="url(#clipPath31)"
         id="path313" />
      <text
         x="269"
         y="176"
         style="font-size:10; clip-path:url(#clipPath31); fill:black; stroke:none;"
         xml:space="preserve"
         clip-path="url(#clipPath31)"
         id="text315">CES2</text>
    </g>
    <g
       style="fill:white; text-rendering:geometricPrecision; stroke:white;"
       id="g325">
      <path
         d="M413.5 281 L542.5 281 L542.5 301 L413.5 301 L413.5 281 Z"
         style="clip-path:url(#clipPath32); stroke:none;"
         clip-path="url(#clipPath32)"
         id="path319" />
      <path
         d="M413.5 281 L542.5 281 L542.5 301 L413.5 301 L413.5 281 Z"
         style="fill:none; clip-path:url(#clipPath32); stroke:blue;"
         clip-path="url(#clipPath32)"
         id="path321" />
      <text
         x="422"
         y="294"
         style="font-size:10; clip-path:url(#clipPath32); fill:blue; stroke:none;"
         xml:space="preserve"
         clip-path="url(#clipPath32)"
         id="text323">Phosphoric acid esters</text>
    </g>
    <g
       style="fill:white; text-rendering:geometricPrecision; stroke:white;"
       id="g333">
      <path
         d="M413.5 174 L542.5 174 L542.5 194 L413.5 194 L413.5 174 Z"
         style="clip-path:url(#clipPath33); stroke:none;"
         clip-path="url(#clipPath33)"
         id="path327" />
      <path
         d="M413.5 174 L542.5 174 L542.5 194 L413.5 194 L413.5 174 Z"
         style="fill:none; clip-path:url(#clipPath33); stroke:blue;"
         clip-path="url(#clipPath33)"
         id="path329" />
      <text
         x="424"
         y="187"
         style="font-size:10; clip-path:url(#clipPath33); fill:blue; stroke:none;"
         xml:space="preserve"
         clip-path="url(#clipPath33)"
         id="text331">carboxylic acid esters</text>
    </g>
    <g
       style="fill:white; text-rendering:geometricPrecision; stroke:white;"
       id="g341">
      <path
         d="M242 124 L322 124 L322 144 L242 144 L242 124 Z"
         style="clip-path:url(#clipPath34); stroke:none;"
         clip-path="url(#clipPath34)"
         id="path335" />
      <path
         d="M242 124 L322 124 L322 144 L242 144 L242 124 Z"
         style="fill:none; clip-path:url(#clipPath34); stroke:black;"
         clip-path="url(#clipPath34)"
         id="path337" />
      <text
         x="269"
         y="137"
         style="font-size:10; clip-path:url(#clipPath34); fill:black; stroke:none;"
         xml:space="preserve"
         clip-path="url(#clipPath34)"
         id="text339">CES7</text>
    </g>
    <g
       style="fill:white; text-rendering:geometricPrecision; stroke:white;"
       id="g349">
      <path
         d="M225 358 L305 358 L305 378 L225 378 L225 358 Z"
         style="clip-path:url(#clipPath35); stroke:none;"
         clip-path="url(#clipPath35)"
         id="path343" />
      <path
         d="M225 358 L305 358 L305 378 L225 378 L225 358 Z"
         style="fill:none; clip-path:url(#clipPath35); stroke:black;"
         clip-path="url(#clipPath35)"
         id="path345" />
      <text
         x="252"
         y="371"
         style="font-size:10; clip-path:url(#clipPath35); fill:black; stroke:none;"
         xml:space="preserve"
         clip-path="url(#clipPath35)"
         id="text347">PON3</text>
    </g>
  </g>
</svg>
