<?xml version="1.0" encoding="UTF-8" standalone="no"?>
<svg
   style="fill-opacity:1; color-rendering:auto; color-interpolation:auto; stroke:black; text-rendering:auto; stroke-linecap:square; stroke-miterlimit:10; stroke-opacity:1; shape-rendering:auto; fill:black; stroke-dasharray:none; font-weight:normal; stroke-width:1; font-family:'Dialog'; font-style:normal; stroke-linejoin:miter; font-size:12; stroke-dashoffset:0; image-rendering:auto;"
   width="689"
   height="614"
   version="1.1"
   id="svg452"
   xmlns="http://www.w3.org/2000/svg"
   xmlns:svg="http://www.w3.org/2000/svg">
  <!--Generated by the Batik Graphics2D SVG Generator-->
  <defs
     id="genericDefs" />
  <g
     id="g450">
    <defs
       id="defs1">
      <clipPath
         clipPathUnits="userSpaceOnUse"
         id="clipPath1">
        <path
           d="M0 0 L699 0 L699 624 L0 624 L0 0 Z"
           id="path3" />
      </clipPath>
      <clipPath
         clipPathUnits="userSpaceOnUse"
         id="clipPath2">
        <path
           d="M0 0 L0 200 L200 200 L200 0 Z"
           id="path6" />
      </clipPath>
      <clipPath
         clipPathUnits="userSpaceOnUse"
         id="clipPath3">
        <path
           d="M359 16 L359 37 L385 37 L385 16 Z"
           id="path9" />
      </clipPath>
      <clipPath
         clipPathUnits="userSpaceOnUse"
         id="clipPath4">
        <path
           d="M361.3672 3.918 L382.6328 3.918 L382.6328 19.2305 L361.3672 19.2305 L361.3672 3.918 Z"
           id="path12" />
      </clipPath>
      <clipPath
         clipPathUnits="userSpaceOnUse"
         id="clipPath5">
        <path
           d="M383.554 164.483 L383.554 244.9196 L433.4736 244.9196 L433.4736 164.483 Z"
           id="path15" />
      </clipPath>
      <clipPath
         clipPathUnits="userSpaceOnUse"
         id="clipPath6">
        <path
           d="M431.7554 183.4805 L431.7554 244.5639 L524.7147 244.5639 L524.7147 183.4805 Z"
           id="path18" />
      </clipPath>
      <clipPath
         clipPathUnits="userSpaceOnUse"
         id="clipPath7">
        <path
           d="M320.1777 247.9006 L320.1777 259.8394 L394.0167 259.8394 L394.0167 247.9006 Z"
           id="path21" />
      </clipPath>
      <clipPath
         clipPathUnits="userSpaceOnUse"
         id="clipPath8">
        <path
           d="M288.3723 276.1476 L288.3723 424.9517 L570.8306 424.9517 L570.8306 276.1476 Z"
           id="path24" />
      </clipPath>
      <clipPath
         clipPathUnits="userSpaceOnUse"
         id="clipPath9">
        <path
           d="M216.0936 459.9797 L216.0936 480.9797 L341.0936 480.9797 L341.0936 459.9797 Z"
           id="path27" />
      </clipPath>
      <clipPath
         clipPathUnits="userSpaceOnUse"
         id="clipPath10">
        <path
           d="M285.809 333.5898 L285.809 369.0814 L408.4475 369.0814 L408.4475 333.5898 Z"
           id="path30" />
      </clipPath>
      <clipPath
         clipPathUnits="userSpaceOnUse"
         id="clipPath11">
        <path
           d="M307.6711 232.3435 L307.6711 253.3435 L388.6711 253.3435 L388.6711 232.3435 Z"
           id="path33" />
      </clipPath>
      <clipPath
         clipPathUnits="userSpaceOnUse"
         id="clipPath12">
        <path
           d="M392.2132 518.4688 L392.2132 539.4688 L473.2132 539.4688 L473.2132 518.4688 Z"
           id="path36" />
      </clipPath>
      <clipPath
         clipPathUnits="userSpaceOnUse"
         id="clipPath13">
        <path
           d="M238.0936 517.9509 L238.0936 538.9509 L319.0936 538.9509 L319.0936 517.9509 Z"
           id="path39" />
      </clipPath>
      <clipPath
         clipPathUnits="userSpaceOnUse"
         id="clipPath14">
        <path
           d="M238.096 557.5597 L238.096 578.5597 L319.096 578.5597 L319.096 557.5597 Z"
           id="path42" />
      </clipPath>
      <clipPath
         clipPathUnits="userSpaceOnUse"
         id="clipPath15">
        <path
           d="M392.2132 538.5103 L392.2132 559.5103 L473.2132 559.5103 L473.2132 538.5103 Z"
           id="path45" />
      </clipPath>
      <clipPath
         clipPathUnits="userSpaceOnUse"
         id="clipPath16">
        <path
           d="M490.426 221.9764 L490.426 242.9764 L571.426 242.9764 L571.426 221.9764 Z"
           id="path48" />
      </clipPath>
      <clipPath
         clipPathUnits="userSpaceOnUse"
         id="clipPath17">
        <path
           d="M238.0936 478.2904 L238.0936 499.2904 L319.0936 499.2904 L319.0936 478.2904 Z"
           id="path51" />
      </clipPath>
      <clipPath
         clipPathUnits="userSpaceOnUse"
         id="clipPath18">
        <path
           d="M392.2132 497.8309 L392.2132 519.8116 L473.2132 519.8116 L473.2132 497.8309 Z"
           id="path54" />
      </clipPath>
      <clipPath
         clipPathUnits="userSpaceOnUse"
         id="clipPath19">
        <path
           d="M238.0936 537.5469 L238.0936 558.5469 L319.0936 558.5469 L319.0936 537.5469 Z"
           id="path57" />
      </clipPath>
      <clipPath
         clipPathUnits="userSpaceOnUse"
         id="clipPath20">
        <path
           d="M392.2627 353.1355 L392.2627 374.1355 L473.2627 374.1355 L473.2627 353.1355 Z"
           id="path60" />
      </clipPath>
      <clipPath
         clipPathUnits="userSpaceOnUse"
         id="clipPath21">
        <path
           d="M392.2627 333.1355 L392.2627 354.1355 L473.2627 354.1355 L473.2627 333.1355 Z"
           id="path63" />
      </clipPath>
      <clipPath
         clipPathUnits="userSpaceOnUse"
         id="clipPath22">
        <path
           d="M392.2132 478.2904 L392.2132 499.2904 L473.2132 499.2904 L473.2132 478.2904 Z"
           id="path66" />
      </clipPath>
      <clipPath
         clipPathUnits="userSpaceOnUse"
         id="clipPath23">
        <path
           d="M238.0936 498.36 L238.0936 519.36 L319.0936 519.36 L319.0936 498.36 Z"
           id="path69" />
      </clipPath>
      <clipPath
         clipPathUnits="userSpaceOnUse"
         id="clipPath24">
        <path
           d="M482.926 223.4764 L482.926 239.4764 L498.926 239.4764 L498.926 223.4764 Z"
           id="path72" />
      </clipPath>
      <clipPath
         clipPathUnits="userSpaceOnUse"
         id="clipPath25">
        <path
           d="M560.139 221.9645 L560.139 240.9882 L581.713 240.9882 L581.713 221.9645 Z"
           id="path75" />
      </clipPath>
      <clipPath
         clipPathUnits="userSpaceOnUse"
         id="clipPath26">
        <path
           d="M443.3348 155.6726 L443.3348 176.6726 L524.3348 176.6726 L524.3348 155.6726 Z"
           id="path78" />
      </clipPath>
      <clipPath
         clipPathUnits="userSpaceOnUse"
         id="clipPath27">
        <path
           d="M523.7103 135.385 L523.7103 156.385 L604.7103 156.385 L604.7103 135.385 Z"
           id="path81" />
      </clipPath>
      <clipPath
         clipPathUnits="userSpaceOnUse"
         id="clipPath28">
        <path
           d="M443.3348 135.385 L443.3348 156.385 L524.3348 156.385 L524.3348 135.385 Z"
           id="path84" />
      </clipPath>
      <clipPath
         clipPathUnits="userSpaceOnUse"
         id="clipPath29">
        <path
           d="M392.2856 243.3717 L392.2856 264.3717 L473.2856 264.3717 L473.2856 243.3717 Z"
           id="path87" />
      </clipPath>
      <clipPath
         clipPathUnits="userSpaceOnUse"
         id="clipPath30">
        <path
           d="M523.7103 155.6726 L523.7103 176.6726 L604.7103 176.6726 L604.7103 155.6726 Z"
           id="path90" />
      </clipPath>
      <clipPath
         clipPathUnits="userSpaceOnUse"
         id="clipPath31">
        <path
           d="M343.742 144.671 L343.742 165.671 L424.742 165.671 L424.742 144.671 Z"
           id="path93" />
      </clipPath>
      <clipPath
         clipPathUnits="userSpaceOnUse"
         id="clipPath32">
        <path
           d="M232.1778 253.3564 L232.1778 274.3564 L313.1778 274.3564 L313.1778 253.3564 Z"
           id="path96" />
      </clipPath>
      <clipPath
         clipPathUnits="userSpaceOnUse"
         id="clipPath33">
        <path
           d="M232.1778 233.3664 L232.1778 254.3664 L313.1778 254.3664 L313.1778 233.3664 Z"
           id="path99" />
      </clipPath>
      <clipPath
         clipPathUnits="userSpaceOnUse"
         id="clipPath34">
        <path
           d="M392.2627 313.1355 L392.2627 334.1355 L473.2627 334.1355 L473.2627 313.1355 Z"
           id="path102" />
      </clipPath>
      <clipPath
         clipPathUnits="userSpaceOnUse"
         id="clipPath35">
        <path
           d="M333.7382 459.9797 L333.7382 480.9797 L531.6882 480.9797 L531.6882 459.9797 Z"
           id="path105" />
      </clipPath>
      <clipPath
         clipPathUnits="userSpaceOnUse"
         id="clipPath36">
        <path
           d="M510.4027 459.9797 L510.4027 480.9797 L665.8027 480.9797 L665.8027 459.9797 Z"
           id="path108" />
      </clipPath>
      <clipPath
         clipPathUnits="userSpaceOnUse"
         id="clipPath37">
        <path
           d="M192.5874 117.3648 L192.5874 600.2475 L675 600.2475 L675 117.3648 Z"
           id="path111" />
      </clipPath>
      <clipPath
         clipPathUnits="userSpaceOnUse"
         id="clipPath38">
        <path
           d="M547.6027 517.8941 L547.6027 538.8941 L628.6027 538.8941 L628.6027 517.8941 Z"
           id="path114" />
      </clipPath>
      <clipPath
         clipPathUnits="userSpaceOnUse"
         id="clipPath39">
        <path
           d="M547.6027 557.1935 L547.6027 578.1935 L628.6027 578.1935 L628.6027 557.1935 Z"
           id="path117" />
      </clipPath>
      <clipPath
         clipPathUnits="userSpaceOnUse"
         id="clipPath40">
        <path
           d="M547.6027 498.3743 L547.6027 519.3743 L628.6027 519.3743 L628.6027 498.3743 Z"
           id="path120" />
      </clipPath>
      <clipPath
         clipPathUnits="userSpaceOnUse"
         id="clipPath41">
        <path
           d="M547.6027 537.5438 L547.6027 558.5438 L628.6027 558.5438 L628.6027 537.5438 Z"
           id="path123" />
      </clipPath>
      <clipPath
         clipPathUnits="userSpaceOnUse"
         id="clipPath42">
        <path
           d="M547.6027 478.2904 L547.6027 499.2904 L628.6027 499.2904 L628.6027 478.2904 Z"
           id="path126" />
      </clipPath>
      <clipPath
         clipPathUnits="userSpaceOnUse"
         id="clipPath43">
        <path
           d="M269.5887 380.9724 L269.5887 447.7147 L433.4258 447.7147 L433.4258 380.9724 Z"
           id="path129" />
      </clipPath>
      <clipPath
         clipPathUnits="userSpaceOnUse"
         id="clipPath44">
        <path
           d="M416.3496 381.1352 L416.3496 457.6036 L433.2631 457.6036 L433.2631 381.1352 Z"
           id="path132" />
      </clipPath>
      <clipPath
         clipPathUnits="userSpaceOnUse"
         id="clipPath45">
        <path
           d="M432.1003 380.9731 L432.1003 464.0713 L588.4558 464.0713 L588.4558 380.9731 Z"
           id="path135" />
      </clipPath>
      <clipPath
         clipPathUnits="userSpaceOnUse"
         id="clipPath46">
        <path
           d="M426.799 263.3715 L426.799 314.8666 L438.7377 314.8666 L438.7377 263.3715 Z"
           id="path138" />
      </clipPath>
    </defs>
    <g
       style="fill:white; stroke:white;"
       id="g144">
      <rect
         x="0"
         width="699"
         height="624"
         y="0"
         style="stroke:none;"
         id="rect142" />
    </g>
    <g
       style="font-weight:bold; font-size:10; text-rendering:geometricPrecision;"
       id="g154">
      <path
         d="M0.0469 6.7031 L6.7656 6.7031 L6.7656 8.125 L4.3438 8.125 L4.3438 14 L2.4688 14 L2.4688 8.125 L0.0469 8.125 L0.0469 6.7031 ZM7.665 8.5312 L9.415 8.5312 L9.415 14 L7.665 14 L7.665 8.5312 ZM7.665 6.4062 L9.415 6.4062 L9.415 7.8281 L7.665 7.8281 L7.665 6.4062 ZM12.999 6.9844 L12.999 8.5312 L14.7959 8.5312 L14.7959 9.7812 L12.999 9.7812 L12.999 12.0938 Q12.999 12.4844 13.1475 12.6172 Q13.2959 12.75 13.749 12.75 L14.6553 12.75 L14.6553 14 L13.1553 14 Q12.1084 14 11.6787 13.5703 Q11.249 13.1406 11.249 12.0938 L11.249 9.7812 L10.374 9.7812 L10.374 8.5312 L11.249 8.5312 L11.249 6.9844 L12.999 6.9844 ZM15.873 6.4062 L17.623 6.4062 L17.623 14 L15.873 14 L15.873 6.4062 ZM24.7539 11.25 L24.7539 11.75 L20.6758 11.75 Q20.7383 12.3594 21.1133 12.6719 Q21.4883 12.9844 22.1758 12.9844 Q22.7227 12.9844 23.3086 12.8203 Q23.8945 12.6562 24.5039 12.3125 L24.5039 13.6719 Q23.8789 13.9062 23.2617 14.0234 Q22.6445 14.1406 22.0195 14.1406 Q20.5352 14.1406 19.7148 13.3828 Q18.8945 12.625 18.8945 11.2656 Q18.8945 9.9375 19.6992 9.1719 Q20.5039 8.4062 21.9258 8.4062 Q23.207 8.4062 23.9805 9.1797 Q24.7539 9.9531 24.7539 11.25 ZM22.957 10.6719 Q22.957 10.1719 22.668 9.8672 Q22.3789 9.5625 21.9102 9.5625 Q21.3945 9.5625 21.082 9.8438 Q20.7695 10.125 20.6914 10.6719 L22.957 10.6719 ZM26.3643 8.5312 L28.1143 8.5312 L28.1143 10.4219 L26.3643 10.4219 L26.3643 8.5312 ZM26.3643 12.1094 L28.1143 12.1094 L28.1143 14 L26.3643 14 L26.3643 12.1094 Z"
         style="clip-path:url(#clipPath2); stroke:none;"
         clip-path="url(#clipPath2)"
         id="path146" />
      <path
         d="M39.9688 7.5156 L39.9688 10.2656 L41.2031 10.2656 Q41.8906 10.2656 42.2734 9.9062 Q42.6562 9.5469 42.6562 8.8906 Q42.6562 8.2344 42.2734 7.875 Q41.8906 7.5156 41.2031 7.5156 L39.9688 7.5156 ZM38.9844 6.7031 L41.2031 6.7031 Q42.4375 6.7031 43.0625 7.2578 Q43.6875 7.8125 43.6875 8.8906 Q43.6875 9.9688 43.0625 10.5156 Q42.4375 11.0625 41.2031 11.0625 L39.9688 11.0625 L39.9688 14 L38.9844 14 L38.9844 6.7031 ZM49.5146 10.7031 L49.5146 14 L48.624 14 L48.624 10.7344 Q48.624 9.9531 48.3193 9.5703 Q48.0146 9.1875 47.4053 9.1875 Q46.6865 9.1875 46.2646 9.6484 Q45.8428 10.1094 45.8428 10.9062 L45.8428 14 L44.9365 14 L44.9365 6.4062 L45.8428 6.4062 L45.8428 9.375 Q46.1709 8.8906 46.6084 8.6484 Q47.0459 8.4062 47.6084 8.4062 Q48.5459 8.4062 49.0303 8.9844 Q49.5146 9.5625 49.5146 10.7031 ZM53.4307 9.1562 Q52.7119 9.1562 52.29 9.7188 Q51.8682 10.2812 51.8682 11.2656 Q51.8682 12.25 52.2822 12.8125 Q52.6963 13.375 53.4307 13.375 Q54.1494 13.375 54.5713 12.8125 Q54.9932 12.25 54.9932 11.2656 Q54.9932 10.2969 54.5713 9.7266 Q54.1494 9.1562 53.4307 9.1562 ZM53.4307 8.4062 Q54.6025 8.4062 55.2744 9.1641 Q55.9463 9.9219 55.9463 11.2656 Q55.9463 12.6094 55.2744 13.375 Q54.6025 14.1406 53.4307 14.1406 Q52.2588 14.1406 51.5869 13.375 Q50.915 12.6094 50.915 11.2656 Q50.915 9.9219 51.5869 9.1641 Q52.2588 8.4062 53.4307 8.4062 ZM58.3145 6.9844 L58.3145 8.5312 L60.1738 8.5312 L60.1738 9.2344 L58.3145 9.2344 L58.3145 12.2031 Q58.3145 12.8594 58.502 13.0547 Q58.6895 13.25 59.252 13.25 L60.1738 13.25 L60.1738 14 L59.252 14 Q58.2051 14 57.8066 13.6094 Q57.4082 13.2188 57.4082 12.2031 L57.4082 9.2344 L56.752 9.2344 L56.752 8.5312 L57.4082 8.5312 L57.4082 6.9844 L58.3145 6.9844 ZM63.4697 9.1562 Q62.751 9.1562 62.3291 9.7188 Q61.9072 10.2812 61.9072 11.2656 Q61.9072 12.25 62.3213 12.8125 Q62.7354 13.375 63.4697 13.375 Q64.1885 13.375 64.6104 12.8125 Q65.0322 12.25 65.0322 11.2656 Q65.0322 10.2969 64.6104 9.7266 Q64.1885 9.1562 63.4697 9.1562 ZM63.4697 8.4062 Q64.6416 8.4062 65.3135 9.1641 Q65.9854 9.9219 65.9854 11.2656 Q65.9854 12.6094 65.3135 13.375 Q64.6416 14.1406 63.4697 14.1406 Q62.2979 14.1406 61.626 13.375 Q60.9541 12.6094 60.9541 11.2656 Q60.9541 9.9219 61.626 9.1641 Q62.2979 8.4062 63.4697 8.4062 ZM71.0723 9.3594 L71.0723 6.4062 L71.9629 6.4062 L71.9629 14 L71.0723 14 L71.0723 13.1719 Q70.791 13.6719 70.3535 13.9062 Q69.916 14.1406 69.3066 14.1406 Q68.3223 14.1406 67.6973 13.3516 Q67.0723 12.5625 67.0723 11.2656 Q67.0723 9.9844 67.6973 9.1953 Q68.3223 8.4062 69.3066 8.4062 Q69.916 8.4062 70.3535 8.6406 Q70.791 8.875 71.0723 9.3594 ZM68.0098 11.2656 Q68.0098 12.2656 68.416 12.8281 Q68.8223 13.3906 69.541 13.3906 Q70.2441 13.3906 70.6582 12.8281 Q71.0723 12.2656 71.0723 11.2656 Q71.0723 10.2812 70.6582 9.7188 Q70.2441 9.1562 69.541 9.1562 Q68.8223 9.1562 68.416 9.7188 Q68.0098 10.2812 68.0098 11.2656 ZM76.0918 14.5156 Q75.7168 15.4844 75.3496 15.7812 Q74.9824 16.0781 74.3887 16.0781 L73.6699 16.0781 L73.6699 15.3281 L74.1855 15.3281 Q74.5605 15.3281 74.7637 15.1562 Q74.9668 14.9844 75.2168 14.3281 L75.3887 13.9062 L73.1699 8.5312 L74.123 8.5312 L75.8262 12.8125 L77.5449 8.5312 L78.498 8.5312 L76.0918 14.5156 ZM84.2754 10.7031 L84.2754 14 L83.3848 14 L83.3848 10.7344 Q83.3848 9.9531 83.0801 9.5703 Q82.7754 9.1875 82.166 9.1875 Q81.4473 9.1875 81.0254 9.6484 Q80.6035 10.1094 80.6035 10.9062 L80.6035 14 L79.6973 14 L79.6973 8.5312 L80.6035 8.5312 L80.6035 9.375 Q80.9316 8.8906 81.3691 8.6484 Q81.8066 8.4062 82.3691 8.4062 Q83.3066 8.4062 83.791 8.9844 Q84.2754 9.5625 84.2754 10.7031 ZM88.5508 11.25 Q87.4727 11.25 87.0508 11.5 Q86.6289 11.75 86.6289 12.3438 Q86.6289 12.8281 86.9414 13.1094 Q87.2539 13.3906 87.8008 13.3906 Q88.5508 13.3906 89.0039 12.8594 Q89.457 12.3281 89.457 11.4531 L89.457 11.25 L88.5508 11.25 ZM90.3477 10.875 L90.3477 14 L89.457 14 L89.457 13.1719 Q89.1445 13.6719 88.6836 13.9062 Q88.2227 14.1406 87.5664 14.1406 Q86.7227 14.1406 86.2227 13.6719 Q85.7227 13.2031 85.7227 12.4062 Q85.7227 11.4844 86.3477 11.0156 Q86.9727 10.5469 88.1914 10.5469 L89.457 10.5469 L89.457 10.4531 Q89.457 9.8438 89.043 9.5 Q88.6289 9.1562 87.8945 9.1562 Q87.4258 9.1562 86.9805 9.2734 Q86.5352 9.3906 86.1289 9.6094 L86.1289 8.7812 Q86.6289 8.5938 87.0898 8.5 Q87.5508 8.4062 87.9883 8.4062 Q89.1758 8.4062 89.7617 9.0156 Q90.3477 9.625 90.3477 10.875 ZM96.46 9.5781 Q96.7881 8.9688 97.2568 8.6875 Q97.7256 8.4062 98.3662 8.4062 Q99.2256 8.4062 99.6865 9 Q100.1475 9.5938 100.1475 10.7031 L100.1475 14 L99.2412 14 L99.2412 10.7344 Q99.2412 9.9375 98.9678 9.5625 Q98.6943 9.1875 98.1162 9.1875 Q97.4131 9.1875 97.0146 9.6484 Q96.6162 10.1094 96.6162 10.9062 L96.6162 14 L95.71 14 L95.71 10.7344 Q95.71 9.9375 95.4287 9.5625 Q95.1475 9.1875 94.5693 9.1875 Q93.8818 9.1875 93.4756 9.6484 Q93.0693 10.1094 93.0693 10.9062 L93.0693 14 L92.1631 14 L92.1631 8.5312 L93.0693 8.5312 L93.0693 9.375 Q93.3818 8.875 93.8115 8.6406 Q94.2412 8.4062 94.8193 8.4062 Q95.4287 8.4062 95.8428 8.7031 Q96.2568 9 96.46 9.5781 ZM101.9355 8.5312 L102.8418 8.5312 L102.8418 14 L101.9355 14 L101.9355 8.5312 ZM101.9355 6.4062 L102.8418 6.4062 L102.8418 7.5469 L101.9355 7.5469 L101.9355 6.4062 ZM108.6514 8.7344 L108.6514 9.5781 Q108.2764 9.375 107.8936 9.2656 Q107.5107 9.1562 107.1201 9.1562 Q106.2451 9.1562 105.7607 9.7109 Q105.2764 10.2656 105.2764 11.2656 Q105.2764 12.2656 105.7607 12.8203 Q106.2451 13.375 107.1201 13.375 Q107.5107 13.375 107.8936 13.2734 Q108.2764 13.1719 108.6514 12.9531 L108.6514 13.7969 Q108.2764 13.9688 107.8779 14.0547 Q107.4795 14.1406 107.0264 14.1406 Q105.7764 14.1406 105.0498 13.3672 Q104.3232 12.5938 104.3232 11.2656 Q104.3232 9.9375 105.0576 9.1719 Q105.792 8.4062 107.0732 8.4062 Q107.4951 8.4062 107.8857 8.4844 Q108.2764 8.5625 108.6514 8.7344 ZM114.2812 6.9844 L114.2812 8.5312 L116.1406 8.5312 L116.1406 9.2344 L114.2812 9.2344 L114.2812 12.2031 Q114.2812 12.8594 114.4688 13.0547 Q114.6562 13.25 115.2188 13.25 L116.1406 13.25 L116.1406 14 L115.2188 14 Q114.1719 14 113.7734 13.6094 Q113.375 13.2188 113.375 12.2031 L113.375 9.2344 L112.7188 9.2344 L112.7188 8.5312 L113.375 8.5312 L113.375 6.9844 L114.2812 6.9844 ZM121.8584 10.7031 L121.8584 14 L120.9678 14 L120.9678 10.7344 Q120.9678 9.9531 120.6631 9.5703 Q120.3584 9.1875 119.749 9.1875 Q119.0303 9.1875 118.6084 9.6484 Q118.1865 10.1094 118.1865 10.9062 L118.1865 14 L117.2803 14 L117.2803 6.4062 L118.1865 6.4062 L118.1865 9.375 Q118.5146 8.8906 118.9521 8.6484 Q119.3896 8.4062 119.9521 8.4062 Q120.8896 8.4062 121.374 8.9844 Q121.8584 9.5625 121.8584 10.7031 ZM128.3369 11.0469 L128.3369 11.4844 L124.1963 11.4844 Q124.2588 12.4062 124.7588 12.8906 Q125.2588 13.375 126.1494 13.375 Q126.665 13.375 127.1572 13.25 Q127.6494 13.125 128.1182 12.875 L128.1182 13.7188 Q127.6338 13.9219 127.126 14.0312 Q126.6182 14.1406 126.1025 14.1406 Q124.79 14.1406 124.0244 13.3828 Q123.2588 12.625 123.2588 11.3125 Q123.2588 9.9688 123.9854 9.1875 Q124.7119 8.4062 125.9463 8.4062 Q127.0557 8.4062 127.6963 9.1094 Q128.3369 9.8125 128.3369 11.0469 ZM127.4307 10.7812 Q127.4307 10.0469 127.0244 9.6016 Q126.6182 9.1562 125.9619 9.1562 Q125.1963 9.1562 124.751 9.5859 Q124.3057 10.0156 124.2275 10.7812 L127.4307 10.7812 ZM132.9736 9.375 Q132.8174 9.2812 132.6455 9.2422 Q132.4736 9.2031 132.2549 9.2031 Q131.4893 9.2031 131.083 9.6953 Q130.6768 10.1875 130.6768 11.125 L130.6768 14 L129.7705 14 L129.7705 8.5312 L130.6768 8.5312 L130.6768 9.375 Q130.958 8.875 131.4111 8.6406 Q131.8643 8.4062 132.5205 8.4062 Q132.6143 8.4062 132.7236 8.4141 Q132.833 8.4219 132.9736 8.4531 L132.9736 9.375 ZM136.3975 11.25 Q135.3193 11.25 134.8975 11.5 Q134.4756 11.75 134.4756 12.3438 Q134.4756 12.8281 134.7881 13.1094 Q135.1006 13.3906 135.6475 13.3906 Q136.3975 13.3906 136.8506 12.8594 Q137.3037 12.3281 137.3037 11.4531 L137.3037 11.25 L136.3975 11.25 ZM138.1943 10.875 L138.1943 14 L137.3037 14 L137.3037 13.1719 Q136.9912 13.6719 136.5303 13.9062 Q136.0693 14.1406 135.4131 14.1406 Q134.5693 14.1406 134.0693 13.6719 Q133.5693 13.2031 133.5693 12.4062 Q133.5693 11.4844 134.1943 11.0156 Q134.8193 10.5469 136.0381 10.5469 L137.3037 10.5469 L137.3037 10.4531 Q137.3037 9.8438 136.8896 9.5 Q136.4756 9.1562 135.7412 9.1562 Q135.2725 9.1562 134.8271 9.2734 Q134.3818 9.3906 133.9756 9.6094 L133.9756 8.7812 Q134.4756 8.5938 134.9365 8.5 Q135.3975 8.4062 135.835 8.4062 Q137.0225 8.4062 137.6084 9.0156 Q138.1943 9.625 138.1943 10.875 ZM140.916 13.1719 L140.916 16.0781 L140.0098 16.0781 L140.0098 8.5312 L140.916 8.5312 L140.916 9.3594 Q141.1973 8.875 141.627 8.6406 Q142.0566 8.4062 142.666 8.4062 Q143.666 8.4062 144.2832 9.1953 Q144.9004 9.9844 144.9004 11.2656 Q144.9004 12.5625 144.2832 13.3516 Q143.666 14.1406 142.666 14.1406 Q142.0566 14.1406 141.627 13.9062 Q141.1973 13.6719 140.916 13.1719 ZM143.9785 11.2656 Q143.9785 10.2812 143.5645 9.7188 Q143.1504 9.1562 142.4473 9.1562 Q141.7285 9.1562 141.3223 9.7188 Q140.916 10.2812 140.916 11.2656 Q140.916 12.2656 141.3223 12.8281 Q141.7285 13.3906 142.4473 13.3906 Q143.1504 13.3906 143.5645 12.8281 Q143.9785 12.2656 143.9785 11.2656 ZM148.6699 14.5156 Q148.2949 15.4844 147.9277 15.7812 Q147.5605 16.0781 146.9668 16.0781 L146.248 16.0781 L146.248 15.3281 L146.7637 15.3281 Q147.1387 15.3281 147.3418 15.1562 Q147.5449 14.9844 147.7949 14.3281 L147.9668 13.9062 L145.748 8.5312 L146.7012 8.5312 L148.4043 12.8125 L150.123 8.5312 L151.0762 8.5312 L148.6699 14.5156 ZM151.8535 10.8594 L154.4941 10.8594 L154.4941 11.6562 L151.8535 11.6562 L151.8535 10.8594 ZM155.915 8.5312 L156.8213 8.5312 L156.8213 14 L155.915 14 L155.915 8.5312 ZM155.915 6.4062 L156.8213 6.4062 L156.8213 7.5469 L155.915 7.5469 L155.915 6.4062 ZM163.2402 10.7031 L163.2402 14 L162.3496 14 L162.3496 10.7344 Q162.3496 9.9531 162.0449 9.5703 Q161.7402 9.1875 161.1309 9.1875 Q160.4121 9.1875 159.9902 9.6484 Q159.5684 10.1094 159.5684 10.9062 L159.5684 14 L158.6621 14 L158.6621 8.5312 L159.5684 8.5312 L159.5684 9.375 Q159.8965 8.8906 160.334 8.6484 Q160.7715 8.4062 161.334 8.4062 Q162.2715 8.4062 162.7559 8.9844 Q163.2402 9.5625 163.2402 10.7031 ZM168.6406 9.3594 L168.6406 6.4062 L169.5312 6.4062 L169.5312 14 L168.6406 14 L168.6406 13.1719 Q168.3594 13.6719 167.9219 13.9062 Q167.4844 14.1406 166.875 14.1406 Q165.8906 14.1406 165.2656 13.3516 Q164.6406 12.5625 164.6406 11.2656 Q164.6406 9.9844 165.2656 9.1953 Q165.8906 8.4062 166.875 8.4062 Q167.4844 8.4062 167.9219 8.6406 Q168.3594 8.875 168.6406 9.3594 ZM165.5781 11.2656 Q165.5781 12.2656 165.9844 12.8281 Q166.3906 13.3906 167.1094 13.3906 Q167.8125 13.3906 168.2266 12.8281 Q168.6406 12.2656 168.6406 11.2656 Q168.6406 10.2812 168.2266 9.7188 Q167.8125 9.1562 167.1094 9.1562 Q166.3906 9.1562 165.9844 9.7188 Q165.5781 10.2812 165.5781 11.2656 ZM171.2852 11.8438 L171.2852 8.5312 L172.1914 8.5312 L172.1914 11.8125 Q172.1914 12.5781 172.4961 12.9688 Q172.8008 13.3594 173.3945 13.3594 Q174.1289 13.3594 174.5508 12.8984 Q174.9727 12.4375 174.9727 11.625 L174.9727 8.5312 L175.8789 8.5312 L175.8789 14 L174.9727 14 L174.9727 13.1562 Q174.6445 13.6562 174.2148 13.8984 Q173.7852 14.1406 173.207 14.1406 Q172.2695 14.1406 171.7773 13.5547 Q171.2852 12.9688 171.2852 11.8438 ZM173.5508 8.4062 L173.5508 8.4062 ZM181.6543 8.7344 L181.6543 9.5781 Q181.2793 9.375 180.8965 9.2656 Q180.5137 9.1562 180.123 9.1562 Q179.248 9.1562 178.7637 9.7109 Q178.2793 10.2656 178.2793 11.2656 Q178.2793 12.2656 178.7637 12.8203 Q179.248 13.375 180.123 13.375 Q180.5137 13.375 180.8965 13.2734 Q181.2793 13.1719 181.6543 12.9531 L181.6543 13.7969 Q181.2793 13.9688 180.8809 14.0547 Q180.4824 14.1406 180.0293 14.1406 Q178.7793 14.1406 178.0527 13.3672 Q177.3262 12.5938 177.3262 11.2656 Q177.3262 9.9375 178.0605 9.1719 Q178.7949 8.4062 180.0762 8.4062 Q180.498 8.4062 180.8887 8.4844 Q181.2793 8.5625 181.6543 8.7344 ZM187.9023 11.0469 L187.9023 11.4844 L183.7617 11.4844 Q183.8242 12.4062 184.3242 12.8906 Q184.8242 13.375 185.7148 13.375 Q186.2305 13.375 186.7227 13.25 Q187.2148 13.125 187.6836 12.875 L187.6836 13.7188 Q187.1992 13.9219 186.6914 14.0312 Q186.1836 14.1406 185.668 14.1406 Q184.3555 14.1406 183.5898 13.3828 Q182.8242 12.625 182.8242 11.3125 Q182.8242 9.9688 183.5508 9.1875 Q184.2773 8.4062 185.5117 8.4062 Q186.6211 8.4062 187.2617 9.1094 Q187.9023 9.8125 187.9023 11.0469 ZM186.9961 10.7812 Q186.9961 10.0469 186.5898 9.6016 Q186.1836 9.1562 185.5273 9.1562 Q184.7617 9.1562 184.3164 9.5859 Q183.8711 10.0156 183.793 10.7812 L186.9961 10.7812 ZM192.9766 9.3594 L192.9766 6.4062 L193.8672 6.4062 L193.8672 14 L192.9766 14 L192.9766 13.1719 Q192.6953 13.6719 192.2578 13.9062 Q191.8203 14.1406 191.2109 14.1406 Q190.2266 14.1406 189.6016 13.3516 Q188.9766 12.5625 188.9766 11.2656 Q188.9766 9.9844 189.6016 9.1953 Q190.2266 8.4062 191.2109 8.4062 Q191.8203 8.4062 192.2578 8.6406 Q192.6953 8.875 192.9766 9.3594 ZM189.9141 11.2656 Q189.9141 12.2656 190.3203 12.8281 Q190.7266 13.3906 191.4453 13.3906 Q192.1484 13.3906 192.5625 12.8281 Q192.9766 12.2656 192.9766 11.2656 Q192.9766 10.2812 192.5625 9.7188 Q192.1484 9.1562 191.4453 9.1562 Q190.7266 9.1562 190.3203 9.7188 Q189.9141 10.2812 189.9141 11.2656 ZM198.9404 6.7031 L200.2686 6.7031 L203.5029 12.8125 L203.5029 6.7031 L204.4561 6.7031 L204.4561 14 L203.1279 14 L199.8936 7.9062 L199.8936 14 L198.9404 14 L198.9404 6.7031 ZM206.4209 6.7031 L210.6084 6.7031 L210.6084 7.5469 L207.4053 7.5469 L207.4053 9.6875 L210.2959 9.6875 L210.2959 10.5156 L207.4053 10.5156 L207.4053 14 L206.4209 14 L206.4209 6.7031 ZM212.1729 6.7031 L216.7822 6.7031 L216.7822 7.5469 L213.1572 7.5469 L213.1572 9.7031 L216.626 9.7031 L216.626 10.5312 L213.1572 10.5312 L213.1572 13.1719 L216.8604 13.1719 L216.8604 14 L212.1729 14 L212.1729 6.7031 ZM219.4287 13.1719 L222.8662 13.1719 L222.8662 14 L218.2412 14 L218.2412 13.1719 Q218.8037 12.5938 219.7725 11.6094 Q220.7412 10.625 220.9912 10.3438 Q221.46 9.8125 221.6475 9.4453 Q221.835 9.0781 221.835 8.7188 Q221.835 8.1406 221.4287 7.7734 Q221.0225 7.4062 220.3662 7.4062 Q219.8975 7.4062 219.3896 7.5703 Q218.8818 7.7344 218.2881 8.0625 L218.2881 7.0625 Q218.8818 6.8281 219.3975 6.7031 Q219.9131 6.5781 220.3506 6.5781 Q221.4756 6.5781 222.1553 7.1406 Q222.835 7.7031 222.835 8.6562 Q222.835 9.1094 222.6631 9.5078 Q222.4912 9.9062 222.0537 10.4531 Q221.9287 10.5938 221.2725 11.2734 Q220.6162 11.9531 219.4287 13.1719 ZM224.8535 6.7031 L225.8379 6.7031 L225.8379 13.1719 L229.3848 13.1719 L229.3848 14 L224.8535 14 L224.8535 6.7031 ZM231.3623 13.1719 L234.7998 13.1719 L234.7998 14 L230.1748 14 L230.1748 13.1719 Q230.7373 12.5938 231.7061 11.6094 Q232.6748 10.625 232.9248 10.3438 Q233.3936 9.8125 233.5811 9.4453 Q233.7686 9.0781 233.7686 8.7188 Q233.7686 8.1406 233.3623 7.7734 Q232.9561 7.4062 232.2998 7.4062 Q231.8311 7.4062 231.3232 7.5703 Q230.8154 7.7344 230.2217 8.0625 L230.2217 7.0625 Q230.8154 6.8281 231.3311 6.7031 Q231.8467 6.5781 232.2842 6.5781 Q233.4092 6.5781 234.0889 7.1406 Q234.7686 7.7031 234.7686 8.6562 Q234.7686 9.1094 234.5967 9.5078 Q234.4248 9.9062 233.9873 10.4531 Q233.8623 10.5938 233.2061 11.2734 Q232.5498 11.9531 231.3623 13.1719 ZM242.0752 6.4062 Q241.4346 7.5312 241.1143 8.6328 Q240.7939 9.7344 240.7939 10.8594 Q240.7939 11.9844 241.1143 13.0938 Q241.4346 14.2031 242.0752 15.3125 L241.2939 15.3125 Q240.5752 14.1719 240.208 13.0625 Q239.8408 11.9531 239.8408 10.8594 Q239.8408 9.7656 240.2002 8.6641 Q240.5596 7.5625 241.2939 6.4062 L242.0752 6.4062 ZM243.8672 6.7031 L245.1953 6.7031 L248.4297 12.8125 L248.4297 6.7031 L249.3828 6.7031 L249.3828 14 L248.0547 14 L244.8203 7.9062 L244.8203 14 L243.8672 14 L243.8672 6.7031 ZM254.8008 10.5781 Q255.1133 10.6875 255.418 11.0391 Q255.7227 11.3906 256.0195 12 L257.0195 14 L255.957 14 L255.0352 12.125 Q254.6758 11.3906 254.332 11.1562 Q253.9883 10.9219 253.4102 10.9219 L252.332 10.9219 L252.332 14 L251.3477 14 L251.3477 6.7031 L253.5664 6.7031 Q254.8164 6.7031 255.4336 7.2266 Q256.0508 7.75 256.0508 8.8125 Q256.0508 9.5 255.7305 9.9531 Q255.4102 10.4062 254.8008 10.5781 ZM252.332 7.5156 L252.332 10.1094 L253.5664 10.1094 Q254.2852 10.1094 254.6523 9.7812 Q255.0195 9.4531 255.0195 8.8125 Q255.0195 8.1719 254.6523 7.8438 Q254.2852 7.5156 253.5664 7.5156 L252.332 7.5156 ZM258.2959 6.7031 L262.4834 6.7031 L262.4834 7.5469 L259.2803 7.5469 L259.2803 9.6875 L262.1709 9.6875 L262.1709 10.5156 L259.2803 10.5156 L259.2803 14 L258.2959 14 L258.2959 6.7031 ZM264.9854 13.1719 L268.4229 13.1719 L268.4229 14 L263.7979 14 L263.7979 13.1719 Q264.3604 12.5938 265.3291 11.6094 Q266.2979 10.625 266.5479 10.3438 Q267.0166 9.8125 267.2041 9.4453 Q267.3916 9.0781 267.3916 8.7188 Q267.3916 8.1406 266.9854 7.7734 Q266.5791 7.4062 265.9229 7.4062 Q265.4541 7.4062 264.9463 7.5703 Q264.4385 7.7344 263.8447 8.0625 L263.8447 7.0625 Q264.4385 6.8281 264.9541 6.7031 Q265.4697 6.5781 265.9072 6.5781 Q267.0322 6.5781 267.7119 7.1406 Q268.3916 7.7031 268.3916 8.6562 Q268.3916 9.1094 268.2197 9.5078 Q268.0479 9.9062 267.6104 10.4531 Q267.4854 10.5938 266.8291 11.2734 Q266.1729 11.9531 264.9854 13.1719 ZM270.2227 6.4062 L271.0039 6.4062 Q271.7383 7.5625 272.1055 8.6641 Q272.4727 9.7656 272.4727 10.8594 Q272.4727 11.9531 272.1055 13.0625 Q271.7383 14.1719 271.0039 15.3125 L270.2227 15.3125 Q270.8789 14.2031 271.1992 13.0938 Q271.5195 11.9844 271.5195 10.8594 Q271.5195 9.7344 271.1992 8.6328 Q270.8789 7.5312 270.2227 6.4062 ZM280.9277 8.6875 L280.9277 9.5469 Q280.5527 9.3438 280.1465 9.25 Q279.7402 9.1562 279.2871 9.1562 Q278.6309 9.1562 278.2949 9.3594 Q277.959 9.5625 277.959 9.9688 Q277.959 10.2812 278.1934 10.4609 Q278.4277 10.6406 279.1621 10.7969 L279.459 10.875 Q280.4277 11.0781 280.8262 11.4531 Q281.2246 11.8281 281.2246 12.4844 Q281.2246 13.25 280.623 13.6953 Q280.0215 14.1406 278.9746 14.1406 Q278.5215 14.1406 278.0449 14.0547 Q277.5684 13.9688 277.0527 13.7969 L277.0527 12.875 Q277.5527 13.125 278.0293 13.2578 Q278.5059 13.3906 278.9902 13.3906 Q279.6152 13.3906 279.959 13.1719 Q280.3027 12.9531 280.3027 12.5625 Q280.3027 12.1875 280.0605 11.9922 Q279.8184 11.7969 278.9746 11.625 L278.6621 11.5469 Q277.834 11.375 277.459 11.0078 Q277.084 10.6406 277.084 10.0156 Q277.084 9.2344 277.6309 8.8203 Q278.1777 8.4062 279.1934 8.4062 Q279.6777 8.4062 280.123 8.4766 Q280.5684 8.5469 280.9277 8.6875 ZM282.5596 11.8438 L282.5596 8.5312 L283.4658 8.5312 L283.4658 11.8125 Q283.4658 12.5781 283.7705 12.9688 Q284.0752 13.3594 284.6689 13.3594 Q285.4033 13.3594 285.8252 12.8984 Q286.2471 12.4375 286.2471 11.625 L286.2471 8.5312 L287.1533 8.5312 L287.1533 14 L286.2471 14 L286.2471 13.1562 Q285.9189 13.6562 285.4893 13.8984 Q285.0596 14.1406 284.4814 14.1406 Q283.5439 14.1406 283.0518 13.5547 Q282.5596 12.9688 282.5596 11.8438 ZM284.8252 8.4062 L284.8252 8.4062 ZM292.1631 9.375 Q292.0068 9.2812 291.835 9.2422 Q291.6631 9.2031 291.4443 9.2031 Q290.6787 9.2031 290.2725 9.6953 Q289.8662 10.1875 289.8662 11.125 L289.8662 14 L288.96 14 L288.96 8.5312 L289.8662 8.5312 L289.8662 9.375 Q290.1475 8.875 290.6006 8.6406 Q291.0537 8.4062 291.71 8.4062 Q291.8037 8.4062 291.9131 8.4141 Q292.0225 8.4219 292.1631 8.4531 L292.1631 9.375 ZM292.4619 8.5312 L293.415 8.5312 L295.1182 13.125 L296.8369 8.5312 L297.79 8.5312 L295.7275 14 L294.5088 14 L292.4619 8.5312 ZM299.0205 8.5312 L299.9268 8.5312 L299.9268 14 L299.0205 14 L299.0205 8.5312 ZM299.0205 6.4062 L299.9268 6.4062 L299.9268 7.5469 L299.0205 7.5469 L299.0205 6.4062 ZM301.1582 8.5312 L302.1113 8.5312 L303.8145 13.125 L305.5332 8.5312 L306.4863 8.5312 L304.4238 14 L303.2051 14 L301.1582 8.5312 ZM310.2012 11.25 Q309.123 11.25 308.7012 11.5 Q308.2793 11.75 308.2793 12.3438 Q308.2793 12.8281 308.5918 13.1094 Q308.9043 13.3906 309.4512 13.3906 Q310.2012 13.3906 310.6543 12.8594 Q311.1074 12.3281 311.1074 11.4531 L311.1074 11.25 L310.2012 11.25 ZM311.998 10.875 L311.998 14 L311.1074 14 L311.1074 13.1719 Q310.7949 13.6719 310.334 13.9062 Q309.873 14.1406 309.2168 14.1406 Q308.373 14.1406 307.873 13.6719 Q307.373 13.2031 307.373 12.4062 Q307.373 11.4844 307.998 11.0156 Q308.623 10.5469 309.8418 10.5469 L311.1074 10.5469 L311.1074 10.4531 Q311.1074 9.8438 310.6934 9.5 Q310.2793 9.1562 309.5449 9.1562 Q309.0762 9.1562 308.6309 9.2734 Q308.1855 9.3906 307.7793 9.6094 L307.7793 8.7812 Q308.2793 8.5938 308.7402 8.5 Q309.2012 8.4062 309.6387 8.4062 Q310.8262 8.4062 311.4121 9.0156 Q311.998 9.625 311.998 10.875 ZM313.8447 6.4062 L314.751 6.4062 L314.751 14 L313.8447 14 L313.8447 6.4062 ZM323.2861 8.6875 L323.2861 9.5469 Q322.9111 9.3438 322.5049 9.25 Q322.0986 9.1562 321.6455 9.1562 Q320.9893 9.1562 320.6533 9.3594 Q320.3174 9.5625 320.3174 9.9688 Q320.3174 10.2812 320.5518 10.4609 Q320.7861 10.6406 321.5205 10.7969 L321.8174 10.875 Q322.7861 11.0781 323.1846 11.4531 Q323.583 11.8281 323.583 12.4844 Q323.583 13.25 322.9814 13.6953 Q322.3799 14.1406 321.333 14.1406 Q320.8799 14.1406 320.4033 14.0547 Q319.9268 13.9688 319.4111 13.7969 L319.4111 12.875 Q319.9111 13.125 320.3877 13.2578 Q320.8643 13.3906 321.3486 13.3906 Q321.9736 13.3906 322.3174 13.1719 Q322.6611 12.9531 322.6611 12.5625 Q322.6611 12.1875 322.4189 11.9922 Q322.1768 11.7969 321.333 11.625 L321.0205 11.5469 Q320.1924 11.375 319.8174 11.0078 Q319.4424 10.6406 319.4424 10.0156 Q319.4424 9.2344 319.9893 8.8203 Q320.5361 8.4062 321.5518 8.4062 Q322.0361 8.4062 322.4814 8.4766 Q322.9268 8.5469 323.2861 8.6875 ZM325.0117 8.5312 L325.918 8.5312 L325.918 14 L325.0117 14 L325.0117 8.5312 ZM325.0117 6.4062 L325.918 6.4062 L325.918 7.5469 L325.0117 7.5469 L325.0117 6.4062 ZM331.3994 11.2031 Q331.3994 10.2188 330.9932 9.6875 Q330.5869 9.1562 329.8682 9.1562 Q329.1338 9.1562 328.7354 9.6875 Q328.3369 10.2188 328.3369 11.2031 Q328.3369 12.1719 328.7354 12.7109 Q329.1338 13.25 329.8682 13.25 Q330.5869 13.25 330.9932 12.7109 Q331.3994 12.1719 331.3994 11.2031 ZM332.29 13.3281 Q332.29 14.7188 331.6729 15.3984 Q331.0557 16.0781 329.7744 16.0781 Q329.3057 16.0781 328.8838 16.0078 Q328.4619 15.9375 328.0713 15.7969 L328.0713 14.9219 Q328.4619 15.1406 328.8447 15.2422 Q329.2275 15.3438 329.6338 15.3438 Q330.5088 15.3438 330.9541 14.8828 Q331.3994 14.4219 331.3994 13.4844 L331.3994 13.0312 Q331.1182 13.5156 330.6807 13.7578 Q330.2432 14 329.6338 14 Q328.6338 14 328.0166 13.2344 Q327.3994 12.4688 327.3994 11.2031 Q327.3994 9.9375 328.0166 9.1719 Q328.6338 8.4062 329.6338 8.4062 Q330.2432 8.4062 330.6807 8.6406 Q331.1182 8.875 331.3994 9.3594 L331.3994 8.5312 L332.29 8.5312 L332.29 13.3281 ZM338.6846 10.7031 L338.6846 14 L337.7939 14 L337.7939 10.7344 Q337.7939 9.9531 337.4893 9.5703 Q337.1846 9.1875 336.5752 9.1875 Q335.8564 9.1875 335.4346 9.6484 Q335.0127 10.1094 335.0127 10.9062 L335.0127 14 L334.1064 14 L334.1064 8.5312 L335.0127 8.5312 L335.0127 9.375 Q335.3408 8.8906 335.7783 8.6484 Q336.2158 8.4062 336.7783 8.4062 Q337.7158 8.4062 338.2002 8.9844 Q338.6846 9.5625 338.6846 10.7031 ZM342.96 11.25 Q341.8818 11.25 341.46 11.5 Q341.0381 11.75 341.0381 12.3438 Q341.0381 12.8281 341.3506 13.1094 Q341.6631 13.3906 342.21 13.3906 Q342.96 13.3906 343.4131 12.8594 Q343.8662 12.3281 343.8662 11.4531 L343.8662 11.25 L342.96 11.25 ZM344.7568 10.875 L344.7568 14 L343.8662 14 L343.8662 13.1719 Q343.5537 13.6719 343.0928 13.9062 Q342.6318 14.1406 341.9756 14.1406 Q341.1318 14.1406 340.6318 13.6719 Q340.1318 13.2031 340.1318 12.4062 Q340.1318 11.4844 340.7568 11.0156 Q341.3818 10.5469 342.6006 10.5469 L343.8662 10.5469 L343.8662 10.4531 Q343.8662 9.8438 343.4521 9.5 Q343.0381 9.1562 342.3037 9.1562 Q341.835 9.1562 341.3896 9.2734 Q340.9443 9.3906 340.5381 9.6094 L340.5381 8.7812 Q341.0381 8.5938 341.499 8.5 Q341.96 8.4062 342.3975 8.4062 Q343.585 8.4062 344.1709 9.0156 Q344.7568 9.625 344.7568 10.875 ZM346.6035 6.4062 L347.5098 6.4062 L347.5098 14 L346.6035 14 L346.6035 6.4062 ZM349.3818 8.5312 L350.2881 8.5312 L350.2881 14 L349.3818 14 L349.3818 8.5312 ZM349.3818 6.4062 L350.2881 6.4062 L350.2881 7.5469 L349.3818 7.5469 L349.3818 6.4062 ZM356.707 10.7031 L356.707 14 L355.8164 14 L355.8164 10.7344 Q355.8164 9.9531 355.5117 9.5703 Q355.207 9.1875 354.5977 9.1875 Q353.8789 9.1875 353.457 9.6484 Q353.0352 10.1094 353.0352 10.9062 L353.0352 14 L352.1289 14 L352.1289 8.5312 L353.0352 8.5312 L353.0352 9.375 Q353.3633 8.8906 353.8008 8.6484 Q354.2383 8.4062 354.8008 8.4062 Q355.7383 8.4062 356.2227 8.9844 Q356.707 9.5625 356.707 10.7031 ZM362.1074 11.2031 Q362.1074 10.2188 361.7012 9.6875 Q361.2949 9.1562 360.5762 9.1562 Q359.8418 9.1562 359.4434 9.6875 Q359.0449 10.2188 359.0449 11.2031 Q359.0449 12.1719 359.4434 12.7109 Q359.8418 13.25 360.5762 13.25 Q361.2949 13.25 361.7012 12.7109 Q362.1074 12.1719 362.1074 11.2031 ZM362.998 13.3281 Q362.998 14.7188 362.3809 15.3984 Q361.7637 16.0781 360.4824 16.0781 Q360.0137 16.0781 359.5918 16.0078 Q359.1699 15.9375 358.7793 15.7969 L358.7793 14.9219 Q359.1699 15.1406 359.5527 15.2422 Q359.9355 15.3438 360.3418 15.3438 Q361.2168 15.3438 361.6621 14.8828 Q362.1074 14.4219 362.1074 13.4844 L362.1074 13.0312 Q361.8262 13.5156 361.3887 13.7578 Q360.9512 14 360.3418 14 Q359.3418 14 358.7246 13.2344 Q358.1074 12.4688 358.1074 11.2031 Q358.1074 9.9375 358.7246 9.1719 Q359.3418 8.4062 360.3418 8.4062 Q360.9512 8.4062 361.3887 8.6406 Q361.8262 8.875 362.1074 9.3594 L362.1074 8.5312 L362.998 8.5312 L362.998 13.3281 Z"
         style="clip-path:url(#clipPath2); stroke:none;"
         clip-path="url(#clipPath2)"
         id="path148" />
      <path
         d="M4.25 21.9375 Q3.3906 21.9375 2.9141 22.5703 Q2.4375 23.2031 2.4375 24.3594 Q2.4375 25.5156 2.9141 26.1484 Q3.3906 26.7812 4.25 26.7812 Q5.1094 26.7812 5.5859 26.1484 Q6.0625 25.5156 6.0625 24.3594 Q6.0625 23.2031 5.5859 22.5703 Q5.1094 21.9375 4.25 21.9375 ZM4.25 20.5781 Q6 20.5781 7 21.5859 Q8 22.5938 8 24.3594 Q8 26.125 7 27.1328 Q6 28.1406 4.25 28.1406 Q2.5 28.1406 1.5 27.1328 Q0.5 26.125 0.5 24.3594 Q0.5 22.5938 1.5 21.5859 Q2.5 20.5781 4.25 20.5781 ZM13.4072 24.0156 Q13.1729 23.9062 12.9463 23.8594 Q12.7197 23.8125 12.4854 23.8125 Q11.8135 23.8125 11.4541 24.2422 Q11.0947 24.6719 11.0947 25.4844 L11.0947 28 L9.3447 28 L9.3447 22.5312 L11.0947 22.5312 L11.0947 23.4219 Q11.4229 22.8906 11.8604 22.6484 Q12.2979 22.4062 12.9072 22.4062 Q13.001 22.4062 13.1025 22.4062 Q13.2041 22.4062 13.3916 22.4375 L13.4072 24.0156 ZM17.9951 27.0781 Q17.6357 27.5469 17.1982 27.7734 Q16.7607 28 16.1982 28 Q15.1982 28 14.542 27.2109 Q13.8857 26.4219 13.8857 25.2031 Q13.8857 23.9688 14.542 23.1875 Q15.1982 22.4062 16.1982 22.4062 Q16.7607 22.4062 17.1982 22.6328 Q17.6357 22.8594 17.9951 23.3438 L17.9951 22.5312 L19.7451 22.5312 L19.7451 27.4531 Q19.7451 28.7656 18.917 29.4609 Q18.0889 30.1562 16.5107 30.1562 Q15.9951 30.1562 15.5186 30.0781 Q15.042 30 14.5576 29.8438 L14.5576 28.4844 Q15.0107 28.75 15.4482 28.875 Q15.8857 29 16.3389 29 Q17.1982 29 17.5967 28.625 Q17.9951 28.25 17.9951 27.4531 L17.9951 27.0781 ZM16.8389 23.6719 Q16.292 23.6719 15.9951 24.0703 Q15.6982 24.4688 15.6982 25.2031 Q15.6982 25.9531 15.9873 26.3438 Q16.2764 26.7344 16.8389 26.7344 Q17.3857 26.7344 17.6904 26.3281 Q17.9951 25.9219 17.9951 25.2031 Q17.9951 24.4688 17.6904 24.0703 Q17.3857 23.6719 16.8389 23.6719 ZM23.8877 25.5312 Q23.3408 25.5312 23.0596 25.7188 Q22.7783 25.9062 22.7783 26.2656 Q22.7783 26.6094 23.0049 26.7969 Q23.2314 26.9844 23.6221 26.9844 Q24.1221 26.9844 24.458 26.625 Q24.7939 26.2656 24.7939 25.7344 L24.7939 25.5312 L23.8877 25.5312 ZM26.5596 24.875 L26.5596 28 L24.7939 28 L24.7939 27.1875 Q24.4346 27.6875 23.9971 27.9141 Q23.5596 28.1406 22.9346 28.1406 Q22.0752 28.1406 21.5518 27.6484 Q21.0283 27.1562 21.0283 26.3594 Q21.0283 25.3906 21.6846 24.9453 Q22.3408 24.5 23.7627 24.5 L24.7939 24.5 L24.7939 24.3594 Q24.7939 23.9531 24.4658 23.7578 Q24.1377 23.5625 23.4502 23.5625 Q22.8877 23.5625 22.4033 23.6719 Q21.9189 23.7812 21.4971 24.0156 L21.4971 22.6719 Q22.0596 22.5469 22.6299 22.4766 Q23.2002 22.4062 23.7627 22.4062 Q25.2471 22.4062 25.9033 22.9844 Q26.5596 23.5625 26.5596 24.875 ZM33.6826 24.6719 L33.6826 28 L31.917 28 L31.917 27.4531 L31.917 25.4531 Q31.917 24.75 31.8857 24.4766 Q31.8545 24.2031 31.7764 24.0781 Q31.6826 23.9062 31.5029 23.8125 Q31.3232 23.7188 31.1045 23.7188 Q30.5576 23.7188 30.2451 24.1406 Q29.9326 24.5625 29.9326 25.3125 L29.9326 28 L28.1826 28 L28.1826 22.5312 L29.9326 22.5312 L29.9326 23.3281 Q30.3232 22.8594 30.7686 22.6328 Q31.2139 22.4062 31.7451 22.4062 Q32.6982 22.4062 33.1904 22.9844 Q33.6826 23.5625 33.6826 24.6719 ZM35.3018 22.5312 L37.0518 22.5312 L37.0518 28 L35.3018 28 L35.3018 22.5312 ZM35.3018 20.4062 L37.0518 20.4062 L37.0518 21.8281 L35.3018 21.8281 L35.3018 20.4062 ZM42.9951 22.7031 L42.9951 24.0312 Q42.4326 23.7969 41.9092 23.6797 Q41.3857 23.5625 40.9326 23.5625 Q40.4326 23.5625 40.1904 23.6875 Q39.9482 23.8125 39.9482 24.0625 Q39.9482 24.2812 40.1279 24.3906 Q40.3076 24.5 40.792 24.5625 L41.0889 24.5938 Q42.4326 24.7656 42.9014 25.1562 Q43.3701 25.5469 43.3701 26.3906 Q43.3701 27.2656 42.7217 27.7031 Q42.0732 28.1406 40.792 28.1406 Q40.2607 28.1406 39.6826 28.0547 Q39.1045 27.9688 38.4795 27.7969 L38.4795 26.4688 Q39.0107 26.7188 39.5576 26.8516 Q40.1045 26.9844 40.667 26.9844 Q41.1826 26.9844 41.4404 26.8438 Q41.6982 26.7031 41.6982 26.4219 Q41.6982 26.1875 41.5264 26.0703 Q41.3545 25.9531 40.8232 25.8906 L40.5107 25.8438 Q39.3389 25.7031 38.8701 25.3047 Q38.4014 24.9062 38.4014 24.1094 Q38.4014 23.2344 38.9951 22.8203 Q39.5889 22.4062 40.8232 22.4062 Q41.3076 22.4062 41.8389 22.4766 Q42.3701 22.5469 42.9951 22.7031 ZM49.7441 23.4375 Q50.0723 22.9375 50.5332 22.6719 Q50.9941 22.4062 51.541 22.4062 Q52.4785 22.4062 52.9707 22.9844 Q53.4629 23.5625 53.4629 24.6719 L53.4629 28 L51.7129 28 L51.7129 25.1406 Q51.7129 25.0781 51.7129 25.0156 Q51.7129 24.9531 51.7129 24.8281 Q51.7129 24.2344 51.5488 23.9766 Q51.3848 23.7188 50.9941 23.7188 Q50.4941 23.7188 50.2285 24.125 Q49.9629 24.5312 49.9473 25.3125 L49.9473 28 L48.1816 28 L48.1816 25.1406 Q48.1816 24.2344 48.0254 23.9766 Q47.8691 23.7188 47.4785 23.7188 Q46.9785 23.7188 46.7051 24.1328 Q46.4316 24.5469 46.4316 25.3125 L46.4316 28 L44.666 28 L44.666 22.5312 L46.4316 22.5312 L46.4316 23.3281 Q46.7441 22.875 47.166 22.6406 Q47.5879 22.4062 48.0879 22.4062 Q48.6504 22.4062 49.0879 22.6797 Q49.5254 22.9531 49.7441 23.4375 ZM55.3828 22.5312 L57.1328 22.5312 L57.1328 24.4219 L55.3828 24.4219 L55.3828 22.5312 ZM55.3828 26.1094 L57.1328 26.1094 L57.1328 28 L55.3828 28 L55.3828 26.1094 Z"
         style="clip-path:url(#clipPath2); stroke:none;"
         clip-path="url(#clipPath2)"
         id="path150" />
      <path
         d="M66.9844 20.7031 L67.9688 20.7031 L67.9688 23.7031 L71.5469 23.7031 L71.5469 20.7031 L72.5312 20.7031 L72.5312 28 L71.5469 28 L71.5469 24.5312 L67.9688 24.5312 L67.9688 28 L66.9844 28 L66.9844 20.7031 ZM76.582 23.1562 Q75.8633 23.1562 75.4414 23.7188 Q75.0195 24.2812 75.0195 25.2656 Q75.0195 26.25 75.4336 26.8125 Q75.8477 27.375 76.582 27.375 Q77.3008 27.375 77.7227 26.8125 Q78.1445 26.25 78.1445 25.2656 Q78.1445 24.2969 77.7227 23.7266 Q77.3008 23.1562 76.582 23.1562 ZM76.582 22.4062 Q77.7539 22.4062 78.4258 23.1641 Q79.0977 23.9219 79.0977 25.2656 Q79.0977 26.6094 78.4258 27.375 Q77.7539 28.1406 76.582 28.1406 Q75.4102 28.1406 74.7383 27.375 Q74.0664 26.6094 74.0664 25.2656 Q74.0664 23.9219 74.7383 23.1641 Q75.4102 22.4062 76.582 22.4062 ZM84.8408 23.5781 Q85.1689 22.9688 85.6377 22.6875 Q86.1064 22.4062 86.7471 22.4062 Q87.6064 22.4062 88.0674 23 Q88.5283 23.5938 88.5283 24.7031 L88.5283 28 L87.6221 28 L87.6221 24.7344 Q87.6221 23.9375 87.3486 23.5625 Q87.0752 23.1875 86.4971 23.1875 Q85.7939 23.1875 85.3955 23.6484 Q84.9971 24.1094 84.9971 24.9062 L84.9971 28 L84.0908 28 L84.0908 24.7344 Q84.0908 23.9375 83.8096 23.5625 Q83.5283 23.1875 82.9502 23.1875 Q82.2627 23.1875 81.8564 23.6484 Q81.4502 24.1094 81.4502 24.9062 L81.4502 28 L80.5439 28 L80.5439 22.5312 L81.4502 22.5312 L81.4502 23.375 Q81.7627 22.875 82.1924 22.6406 Q82.6221 22.4062 83.2002 22.4062 Q83.8096 22.4062 84.2236 22.7031 Q84.6377 23 84.8408 23.5781 ZM92.4414 23.1562 Q91.7227 23.1562 91.3008 23.7188 Q90.8789 24.2812 90.8789 25.2656 Q90.8789 26.25 91.293 26.8125 Q91.707 27.375 92.4414 27.375 Q93.1602 27.375 93.582 26.8125 Q94.0039 26.25 94.0039 25.2656 Q94.0039 24.2969 93.582 23.7266 Q93.1602 23.1562 92.4414 23.1562 ZM92.4414 22.4062 Q93.6133 22.4062 94.2852 23.1641 Q94.957 23.9219 94.957 25.2656 Q94.957 26.6094 94.2852 27.375 Q93.6133 28.1406 92.4414 28.1406 Q91.2695 28.1406 90.5977 27.375 Q89.9258 26.6094 89.9258 25.2656 Q89.9258 23.9219 90.5977 23.1641 Q91.2695 22.4062 92.4414 22.4062 ZM103.0977 22.6875 L103.0977 23.5469 Q102.7227 23.3438 102.3164 23.25 Q101.9102 23.1562 101.457 23.1562 Q100.8008 23.1562 100.4648 23.3594 Q100.1289 23.5625 100.1289 23.9688 Q100.1289 24.2812 100.3633 24.4609 Q100.5977 24.6406 101.332 24.7969 L101.6289 24.875 Q102.5977 25.0781 102.9961 25.4531 Q103.3945 25.8281 103.3945 26.4844 Q103.3945 27.25 102.793 27.6953 Q102.1914 28.1406 101.1445 28.1406 Q100.6914 28.1406 100.2148 28.0547 Q99.7383 27.9688 99.2227 27.7969 L99.2227 26.875 Q99.7227 27.125 100.1992 27.2578 Q100.6758 27.3906 101.1602 27.3906 Q101.7852 27.3906 102.1289 27.1719 Q102.4727 26.9531 102.4727 26.5625 Q102.4727 26.1875 102.2305 25.9922 Q101.9883 25.7969 101.1445 25.625 L100.832 25.5469 Q100.0039 25.375 99.6289 25.0078 Q99.2539 24.6406 99.2539 24.0156 Q99.2539 23.2344 99.8008 22.8203 Q100.3477 22.4062 101.3633 22.4062 Q101.8477 22.4062 102.293 22.4766 Q102.7383 22.5469 103.0977 22.6875 ZM107.3076 25.25 Q106.2295 25.25 105.8076 25.5 Q105.3857 25.75 105.3857 26.3438 Q105.3857 26.8281 105.6982 27.1094 Q106.0107 27.3906 106.5576 27.3906 Q107.3076 27.3906 107.7607 26.8594 Q108.2139 26.3281 108.2139 25.4531 L108.2139 25.25 L107.3076 25.25 ZM109.1045 24.875 L109.1045 28 L108.2139 28 L108.2139 27.1719 Q107.9014 27.6719 107.4404 27.9062 Q106.9795 28.1406 106.3232 28.1406 Q105.4795 28.1406 104.9795 27.6719 Q104.4795 27.2031 104.4795 26.4062 Q104.4795 25.4844 105.1045 25.0156 Q105.7295 24.5469 106.9482 24.5469 L108.2139 24.5469 L108.2139 24.4531 Q108.2139 23.8438 107.7998 23.5 Q107.3857 23.1562 106.6514 23.1562 Q106.1826 23.1562 105.7373 23.2734 Q105.292 23.3906 104.8857 23.6094 L104.8857 22.7812 Q105.3857 22.5938 105.8467 22.5 Q106.3076 22.4062 106.7451 22.4062 Q107.9326 22.4062 108.5186 23.0156 Q109.1045 23.625 109.1045 24.875 ZM111.8262 27.1719 L111.8262 30.0781 L110.9199 30.0781 L110.9199 22.5312 L111.8262 22.5312 L111.8262 23.3594 Q112.1074 22.875 112.5371 22.6406 Q112.9668 22.4062 113.5762 22.4062 Q114.5762 22.4062 115.1934 23.1953 Q115.8105 23.9844 115.8105 25.2656 Q115.8105 26.5625 115.1934 27.3516 Q114.5762 28.1406 113.5762 28.1406 Q112.9668 28.1406 112.5371 27.9062 Q112.1074 27.6719 111.8262 27.1719 ZM114.8887 25.2656 Q114.8887 24.2812 114.4746 23.7188 Q114.0605 23.1562 113.3574 23.1562 Q112.6387 23.1562 112.2324 23.7188 Q111.8262 24.2812 111.8262 25.2656 Q111.8262 26.2656 112.2324 26.8281 Q112.6387 27.3906 113.3574 27.3906 Q114.0605 27.3906 114.4746 26.8281 Q114.8887 26.2656 114.8887 25.2656 ZM117.2988 22.5312 L118.2051 22.5312 L118.2051 28 L117.2988 28 L117.2988 22.5312 ZM117.2988 20.4062 L118.2051 20.4062 L118.2051 21.5469 L117.2988 21.5469 L117.2988 20.4062 ZM124.7646 25.0469 L124.7646 25.4844 L120.624 25.4844 Q120.6865 26.4062 121.1865 26.8906 Q121.6865 27.375 122.5771 27.375 Q123.0928 27.375 123.585 27.25 Q124.0771 27.125 124.5459 26.875 L124.5459 27.7188 Q124.0615 27.9219 123.5537 28.0312 Q123.0459 28.1406 122.5303 28.1406 Q121.2178 28.1406 120.4521 27.3828 Q119.6865 26.625 119.6865 25.3125 Q119.6865 23.9688 120.4131 23.1875 Q121.1396 22.4062 122.374 22.4062 Q123.4834 22.4062 124.124 23.1094 Q124.7646 23.8125 124.7646 25.0469 ZM123.8584 24.7812 Q123.8584 24.0469 123.4521 23.6016 Q123.0459 23.1562 122.3896 23.1562 Q121.624 23.1562 121.1787 23.5859 Q120.7334 24.0156 120.6553 24.7812 L123.8584 24.7812 ZM130.7764 24.7031 L130.7764 28 L129.8857 28 L129.8857 24.7344 Q129.8857 23.9531 129.5811 23.5703 Q129.2764 23.1875 128.667 23.1875 Q127.9482 23.1875 127.5264 23.6484 Q127.1045 24.1094 127.1045 24.9062 L127.1045 28 L126.1982 28 L126.1982 22.5312 L127.1045 22.5312 L127.1045 23.375 Q127.4326 22.8906 127.8701 22.6484 Q128.3076 22.4062 128.8701 22.4062 Q129.8076 22.4062 130.292 22.9844 Q130.7764 23.5625 130.7764 24.7031 ZM136.0518 22.6875 L136.0518 23.5469 Q135.6768 23.3438 135.2705 23.25 Q134.8643 23.1562 134.4111 23.1562 Q133.7549 23.1562 133.4189 23.3594 Q133.083 23.5625 133.083 23.9688 Q133.083 24.2812 133.3174 24.4609 Q133.5518 24.6406 134.2861 24.7969 L134.583 24.875 Q135.5518 25.0781 135.9502 25.4531 Q136.3486 25.8281 136.3486 26.4844 Q136.3486 27.25 135.7471 27.6953 Q135.1455 28.1406 134.0986 28.1406 Q133.6455 28.1406 133.1689 28.0547 Q132.6924 27.9688 132.1768 27.7969 L132.1768 26.875 Q132.6768 27.125 133.1533 27.2578 Q133.6299 27.3906 134.1143 27.3906 Q134.7393 27.3906 135.083 27.1719 Q135.4268 26.9531 135.4268 26.5625 Q135.4268 26.1875 135.1846 25.9922 Q134.9424 25.7969 134.0986 25.625 L133.7861 25.5469 Q132.958 25.375 132.583 25.0078 Q132.208 24.6406 132.208 24.0156 Q132.208 23.2344 132.7549 22.8203 Q133.3018 22.4062 134.3174 22.4062 Q134.8018 22.4062 135.2471 22.4766 Q135.6924 22.5469 136.0518 22.6875 Z"
         style="clip-path:url(#clipPath2); stroke:none;"
         clip-path="url(#clipPath2)"
         id="path152" />
    </g>
    <g
       style="fill:navy; text-rendering:geometricPrecision; font-size:8; stroke:navy;"
       id="g158">
      <text
         x="364"
         xml:space="preserve"
         y="16"
         style="clip-path:url(#clipPath4); stroke:none;"
         clip-path="url(#clipPath4)"
         id="text156">1, 2</text>
    </g>
    <g
       style="text-rendering:geometricPrecision;"
       id="g164">
      <path
         d="M384.242 165.171 L432.7856 243.8717"
         style="fill:none; clip-path:url(#clipPath5);"
         clip-path="url(#clipPath5)"
         id="path160" />
      <path
         d="M432.7856 243.8717 L431.0691 231.1838 L422.2175 236.6436 Z"
         style="clip-path:url(#clipPath5); fill-rule:evenodd; stroke:none;"
         clip-path="url(#clipPath5)"
         id="path162" />
    </g>
    <g
       style="text-rendering:geometricPrecision;"
       id="g170">
      <path
         d="M524.0225 184.1726 L432.7856 243.8717"
         style="fill:none; clip-path:url(#clipPath6);"
         clip-path="url(#clipPath6)"
         id="path166" />
      <path
         d="M432.7856 243.8717 L445.4231 241.8169 L439.7288 233.1143 Z"
         style="clip-path:url(#clipPath6); fill-rule:evenodd; stroke:none;"
         clip-path="url(#clipPath6)"
         id="path168" />
    </g>
    <g
       style="text-rendering:geometricPrecision;"
       id="g176">
      <path
         d="M320.6778 253.8614 L392.7856 253.8717"
         style="fill:none; clip-path:url(#clipPath7);"
         clip-path="url(#clipPath7)"
         id="path172" />
      <path
         d="M392.7856 253.8717 L381.0863 248.6701 L381.0848 259.0701 Z"
         style="clip-path:url(#clipPath7); fill-rule:evenodd; stroke:none;"
         clip-path="url(#clipPath7)"
         id="path174" />
    </g>
    <g
       style="fill:rgb(204,255,255); text-rendering:geometricPrecision; stroke:rgb(204,255,255);"
       id="g182">
      <path
         d="M564.8306 350.5496 C564.8306 388.327 504.2865 418.9517 429.6015 418.9517 C354.9164 418.9517 294.3723 388.327 294.3723 350.5496 C294.3723 312.7722 354.9164 282.1476 429.6015 282.1476 C504.2865 282.1476 564.8306 312.7722 564.8306 350.5496 Z"
         style="clip-path:url(#clipPath8); stroke:none;"
         clip-path="url(#clipPath8)"
         id="path178" />
      <path
         d="M567.8306 349.0496 L567.8306 349.0496 L567.8306 349.0496 L569.3306 349.0496 L569.3306 350.5496 C569.3306 393.0377 503.6977 423.4517 429.6015 423.4517 L428.1015 423.4517 L428.1015 421.9517 L428.1015 418.9517 L429.6015 418.9517 L431.1015 418.9517 L431.1015 421.9517 L431.1015 423.4517 L429.6015 423.4517 C355.5053 423.4517 289.8723 393.0377 289.8723 350.5496 L289.8723 349.0496 L291.3723 349.0496 L294.3723 349.0496 L294.3723 350.5496 L294.3723 352.0496 L291.3723 352.0496 L289.8723 352.0496 L289.8723 350.5496 C289.8723 308.0615 355.5053 277.6476 429.6015 277.6476 L431.1015 277.6476 L431.1015 279.1476 L431.1015 282.1476 L429.6015 282.1476 L428.1015 282.1476 L428.1015 279.1476 L428.1015 277.6476 L429.6015 277.6476 C503.6978 277.6476 569.3306 308.0614 569.3306 350.5496 L569.3306 352.0496 L567.8306 352.0496 L564.8306 352.0496 L564.8306 350.5496 L564.8306 349.0496 L567.8306 349.0496 L569.3306 349.0496 L569.3306 352.0496 L567.8306 352.0496 L564.8306 352.0496 L564.8306 349.0496 L567.8306 349.0496 L567.8306 350.5496 L566.3306 350.5496 C566.3306 311.2054 504.0973 280.6476 429.6015 280.6476 L429.6015 279.1476 L431.1015 279.1476 L431.1015 282.1476 L428.1015 282.1476 L428.1015 279.1476 L429.6015 279.1476 L429.6015 280.6476 C355.1058 280.6476 292.8723 311.2055 292.8723 350.5496 L291.3723 350.5496 L291.3723 349.0496 L294.3723 349.0496 L294.3723 352.0496 L291.3723 352.0496 L291.3723 350.5496 L292.8723 350.5496 C292.8723 389.8937 355.1058 420.4517 429.6015 420.4517 L429.6015 421.9517 L428.1015 421.9517 L428.1015 418.9517 L431.1015 418.9517 L431.1015 421.9517 L429.6015 421.9517 L429.6015 420.4517 C504.0973 420.4517 566.3306 389.8937 566.3306 350.5496 L567.8306 350.5496 L567.8306 352.0496 L567.8306 352.0496 L566.3306 352.0496 L566.3306 349.0496 ZM561.8306 349.0496 L561.8306 349.0496 L561.8306 349.0496 L561.8306 350.5496 L560.3306 350.5496 C560.3306 317.4774 504.8645 286.6476 429.6015 286.6476 L429.6015 285.1476 L429.6015 283.6476 L429.6015 283.6476 L429.6015 285.1476 L429.6015 286.6476 C354.3384 286.6476 298.8723 317.4775 298.8723 350.5496 L297.3723 350.5496 L297.3723 349.0496 L297.3723 349.0496 L298.8723 349.0496 L298.8723 350.5496 C298.8723 383.6217 354.3384 414.4517 429.6015 414.4517 L429.6015 415.9517 L429.6015 414.4517 L429.6015 414.4517 L429.6015 415.9517 L429.6015 414.4517 C504.8646 414.4517 560.3306 383.6217 560.3306 350.5496 L560.3306 349.0496 L561.8306 349.0496 M561.8306 352.0496 L561.8306 350.5496 L563.3306 350.5496 C563.3306 386.7548 504.4866 417.4517 429.6015 417.4517 L429.6015 417.4517 L429.6015 417.4517 L429.6015 417.4517 C354.7164 417.4517 295.8723 386.7548 295.8723 350.5496 L297.3723 350.5496 L297.3723 352.0496 L297.3723 352.0496 L295.8723 352.0496 L295.8723 350.5496 C295.8723 314.3445 354.7164 283.6476 429.6015 283.6476 L429.6015 286.6476 L429.6015 286.6476 L429.6015 283.6476 C504.4866 283.6476 563.3306 314.3444 563.3306 350.5496 L563.3306 352.0496 L561.8306 352.0496 L561.8306 352.0496 Z"
         style="fill:rgb(0,153,153); clip-path:url(#clipPath8); stroke:none;"
         clip-path="url(#clipPath8)"
         id="path180" />
    </g>
    <g
       style="text-rendering:geometricPrecision;"
       id="g186">
      <text
         x="217"
         xml:space="preserve"
         y="475"
         style="clip-path:url(#clipPath9); stroke:none;"
         clip-path="url(#clipPath9)"
         id="text184">Multidrug resistance</text>
    </g>
    <g
       style="font-weight:bold; text-rendering:geometricPrecision;"
       id="g192">
      <text
         x="328"
         xml:space="preserve"
         y="348"
         style="clip-path:url(#clipPath10); stroke:none;"
         clip-path="url(#clipPath10)"
         id="text188">Gene </text>
      <text
         x="304"
         xml:space="preserve"
         y="361"
         style="clip-path:url(#clipPath10); stroke:none;"
         clip-path="url(#clipPath10)"
         id="text190">transcription</text>
    </g>
    <g
       style="font-weight:bold; text-rendering:geometricPrecision;"
       id="g196">
      <text
         x="334"
         xml:space="preserve"
         y="247"
         style="clip-path:url(#clipPath11); stroke:none;"
         clip-path="url(#clipPath11)"
         id="text194">ROS</text>
    </g>
    <g
       style="fill:white; text-rendering:geometricPrecision; stroke:white;"
       id="g204">
      <path
         d="M392.7132 518.9688 L472.7132 518.9688 L472.7132 538.9688 L392.7132 538.9688 L392.7132 518.9688 Z"
         style="clip-path:url(#clipPath12); stroke:none;"
         clip-path="url(#clipPath12)"
         id="path198" />
      <path
         d="M392.7132 518.9688 L472.7132 518.9688 L472.7132 538.9688 L392.7132 538.9688 L392.7132 518.9688 Z"
         style="fill:none; clip-path:url(#clipPath12); stroke:black;"
         clip-path="url(#clipPath12)"
         id="path200" />
      <text
         x="418"
         y="532"
         style="font-size:10; clip-path:url(#clipPath12); fill:black; stroke:none;"
         xml:space="preserve"
         clip-path="url(#clipPath12)"
         id="text202">GCLM</text>
    </g>
    <g
       style="fill:white; text-rendering:geometricPrecision; stroke:white;"
       id="g212">
      <path
         d="M238.5936 518.4509 L318.5936 518.4509 L318.5936 538.4509 L238.5936 538.4509 L238.5936 518.4509 Z"
         style="clip-path:url(#clipPath13); stroke:none;"
         clip-path="url(#clipPath13)"
         id="path206" />
      <path
         d="M238.5936 518.4509 L318.5936 518.4509 L318.5936 538.4509 L238.5936 538.4509 L238.5936 518.4509 Z"
         style="fill:none; clip-path:url(#clipPath13); stroke:black;"
         clip-path="url(#clipPath13)"
         id="path208" />
      <text
         x="261"
         y="532"
         style="font-size:10; clip-path:url(#clipPath13); fill:black; stroke:none;"
         xml:space="preserve"
         clip-path="url(#clipPath13)"
         id="text210">ABCC4</text>
    </g>
    <g
       style="fill:white; text-rendering:geometricPrecision; stroke:white;"
       id="g220">
      <path
         d="M238.596 558.0597 L318.596 558.0597 L318.596 578.0597 L238.596 578.0597 L238.596 558.0597 Z"
         style="clip-path:url(#clipPath14); stroke:none;"
         clip-path="url(#clipPath14)"
         id="path214" />
      <path
         d="M238.596 558.0597 L318.596 558.0597 L318.596 578.0597 L238.596 578.0597 L238.596 558.0597 Z"
         style="fill:none; clip-path:url(#clipPath14); stroke:black;"
         clip-path="url(#clipPath14)"
         id="path216" />
      <text
         x="261"
         y="572"
         style="font-size:10; clip-path:url(#clipPath14); fill:black; stroke:none;"
         xml:space="preserve"
         clip-path="url(#clipPath14)"
         id="text218">ABCG2</text>
    </g>
    <g
       style="fill:white; text-rendering:geometricPrecision; stroke:white;"
       id="g228">
      <path
         d="M392.7132 539.0103 L472.7132 539.0103 L472.7132 559.0103 L392.7132 559.0103 L392.7132 539.0103 Z"
         style="clip-path:url(#clipPath15); stroke:none;"
         clip-path="url(#clipPath15)"
         id="path222" />
      <path
         d="M392.7132 539.0103 L472.7132 539.0103 L472.7132 559.0103 L392.7132 559.0103 L392.7132 539.0103 Z"
         style="fill:none; clip-path:url(#clipPath15); stroke:black;"
         clip-path="url(#clipPath15)"
         id="path224" />
      <text
         x="416"
         y="553"
         style="font-size:10; clip-path:url(#clipPath15); fill:black; stroke:none;"
         xml:space="preserve"
         clip-path="url(#clipPath15)"
         id="text226">GSTP1</text>
    </g>
    <g
       style="fill:white; text-rendering:geometricPrecision; stroke:white;"
       id="g236">
      <path
         d="M490.926 222.4764 L570.926 222.4764 L570.926 242.4764 L490.926 242.4764 L490.926 222.4764 Z"
         style="clip-path:url(#clipPath16); stroke:none;"
         clip-path="url(#clipPath16)"
         id="path230" />
      <path
         d="M490.926 222.4764 L570.926 222.4764 L570.926 242.4764 L490.926 242.4764 L490.926 222.4764 Z"
         style="fill:none; clip-path:url(#clipPath16); stroke:black;"
         clip-path="url(#clipPath16)"
         id="path232" />
      <text
         x="514"
         y="236"
         style="font-size:10; clip-path:url(#clipPath16); fill:black; stroke:none;"
         xml:space="preserve"
         clip-path="url(#clipPath16)"
         id="text234">KEAP1</text>
    </g>
    <g
       style="fill:white; text-rendering:geometricPrecision; stroke:white;"
       id="g244">
      <path
         d="M238.5936 478.7904 L318.5936 478.7904 L318.5936 498.7904 L238.5936 498.7904 L238.5936 478.7904 Z"
         style="clip-path:url(#clipPath17); stroke:none;"
         clip-path="url(#clipPath17)"
         id="path238" />
      <path
         d="M238.5936 478.7904 L318.5936 478.7904 L318.5936 498.7904 L238.5936 498.7904 L238.5936 478.7904 Z"
         style="fill:none; clip-path:url(#clipPath17); stroke:black;"
         clip-path="url(#clipPath17)"
         id="path240" />
      <text
         x="261"
         y="492"
         style="font-size:10; clip-path:url(#clipPath17); fill:black; stroke:none;"
         xml:space="preserve"
         clip-path="url(#clipPath17)"
         id="text242">ABCC2</text>
    </g>
    <g
       style="fill:white; text-rendering:geometricPrecision; stroke:white;"
       id="g252">
      <path
         d="M392.7132 498.3309 L472.7132 498.3309 L472.7132 519.3116 L392.7132 519.3116 L392.7132 498.3309 Z"
         style="clip-path:url(#clipPath18); stroke:none;"
         clip-path="url(#clipPath18)"
         id="path246" />
      <path
         d="M392.7132 498.3309 L472.7132 498.3309 L472.7132 519.3116 L392.7132 519.3116 L392.7132 498.3309 Z"
         style="fill:none; clip-path:url(#clipPath18); stroke:black;"
         clip-path="url(#clipPath18)"
         id="path248" />
      <text
         x="419"
         y="512"
         style="font-size:10; clip-path:url(#clipPath18); fill:black; stroke:none;"
         xml:space="preserve"
         clip-path="url(#clipPath18)"
         id="text250">GCLC</text>
    </g>
    <g
       style="fill:white; text-rendering:geometricPrecision; stroke:white;"
       id="g260">
      <path
         d="M238.5936 538.0469 L318.5936 538.0469 L318.5936 558.0469 L238.5936 558.0469 L238.5936 538.0469 Z"
         style="clip-path:url(#clipPath19); stroke:none;"
         clip-path="url(#clipPath19)"
         id="path254" />
      <path
         d="M238.5936 538.0469 L318.5936 538.0469 L318.5936 558.0469 L238.5936 558.0469 L238.5936 538.0469 Z"
         style="fill:none; clip-path:url(#clipPath19); stroke:black;"
         clip-path="url(#clipPath19)"
         id="path256" />
      <text
         x="261"
         y="552"
         style="font-size:10; clip-path:url(#clipPath19); fill:black; stroke:none;"
         xml:space="preserve"
         clip-path="url(#clipPath19)"
         id="text258">ABCC6</text>
    </g>
    <g
       style="fill:white; text-rendering:geometricPrecision; stroke:white;"
       id="g268">
      <path
         d="M392.7627 353.6355 L472.7627 353.6355 L472.7627 373.6355 L392.7627 373.6355 L392.7627 353.6355 Z"
         style="clip-path:url(#clipPath20); stroke:none;"
         clip-path="url(#clipPath20)"
         id="path262" />
      <path
         d="M392.7627 353.6355 L472.7627 353.6355 L472.7627 373.6355 L392.7627 373.6355 L392.7627 353.6355 Z"
         style="fill:none; clip-path:url(#clipPath20); stroke:black;"
         clip-path="url(#clipPath20)"
         id="path264" />
      <text
         x="423"
         y="367"
         style="font-size:10; clip-path:url(#clipPath20); fill:black; stroke:none;"
         xml:space="preserve"
         clip-path="url(#clipPath20)"
         id="text266">FOS</text>
    </g>
    <g
       style="fill:white; text-rendering:geometricPrecision; stroke:white;"
       id="g276">
      <path
         d="M392.7627 333.6355 L472.7627 333.6355 L472.7627 353.6355 L392.7627 353.6355 L392.7627 333.6355 Z"
         style="clip-path:url(#clipPath21); stroke:none;"
         clip-path="url(#clipPath21)"
         id="path270" />
      <path
         d="M392.7627 333.6355 L472.7627 333.6355 L472.7627 353.6355 L392.7627 353.6355 L392.7627 333.6355 Z"
         style="fill:none; clip-path:url(#clipPath21); stroke:black;"
         clip-path="url(#clipPath21)"
         id="path272" />
      <text
         x="424"
         y="347"
         style="font-size:10; clip-path:url(#clipPath21); fill:black; stroke:none;"
         xml:space="preserve"
         clip-path="url(#clipPath21)"
         id="text274">JUN</text>
    </g>
    <g
       style="fill:white; text-rendering:geometricPrecision; stroke:white;"
       id="g284">
      <path
         d="M392.7132 478.7904 L472.7132 478.7904 L472.7132 498.7904 L392.7132 498.7904 L392.7132 478.7904 Z"
         style="clip-path:url(#clipPath22); stroke:none;"
         clip-path="url(#clipPath22)"
         id="path278" />
      <path
         d="M392.7132 478.7904 L472.7132 478.7904 L472.7132 498.7904 L392.7132 498.7904 L392.7132 478.7904 Z"
         style="fill:none; clip-path:url(#clipPath22); stroke:black;"
         clip-path="url(#clipPath22)"
         id="path280" />
      <text
         x="414"
         y="492"
         style="font-size:10; clip-path:url(#clipPath22); fill:black; stroke:none;"
         xml:space="preserve"
         clip-path="url(#clipPath22)"
         id="text282">HMOX1</text>
    </g>
    <g
       style="fill:white; text-rendering:geometricPrecision; stroke:white;"
       id="g292">
      <path
         d="M238.5936 498.86 L318.5936 498.86 L318.5936 518.86 L238.5936 518.86 L238.5936 498.86 Z"
         style="clip-path:url(#clipPath23); stroke:none;"
         clip-path="url(#clipPath23)"
         id="path286" />
      <path
         d="M238.5936 498.86 L318.5936 498.86 L318.5936 518.86 L238.5936 518.86 L238.5936 498.86 Z"
         style="fill:none; clip-path:url(#clipPath23); stroke:black;"
         clip-path="url(#clipPath23)"
         id="path288" />
      <text
         x="261"
         y="512"
         style="font-size:10; clip-path:url(#clipPath23); fill:black; stroke:none;"
         xml:space="preserve"
         clip-path="url(#clipPath23)"
         id="text290">ABCC3</text>
    </g>
    <g
       style="font-size:10; text-rendering:geometricPrecision;"
       id="g296">
      <text
         x="484"
         xml:space="preserve"
         y="234"
         style="clip-path:url(#clipPath24); stroke:none;"
         clip-path="url(#clipPath24)"
         id="text294">OH</text>
    </g>
    <g
       style="font-size:10; text-rendering:geometricPrecision;"
       id="g300">
      <text
         x="564"
         xml:space="preserve"
         y="235"
         style="clip-path:url(#clipPath25); stroke:none;"
         clip-path="url(#clipPath25)"
         id="text298">OH</text>
    </g>
    <g
       style="fill:white; text-rendering:geometricPrecision; stroke:white;"
       id="g308">
      <path
         d="M443.8348 156.1726 L523.8348 156.1726 L523.8348 176.1726 L443.8348 176.1726 L443.8348 156.1726 Z"
         style="clip-path:url(#clipPath26); stroke:none;"
         clip-path="url(#clipPath26)"
         id="path302" />
      <path
         d="M443.8348 156.1726 L523.8348 156.1726 L523.8348 176.1726 L443.8348 176.1726 L443.8348 156.1726 Z"
         style="fill:none; clip-path:url(#clipPath26); stroke:black;"
         clip-path="url(#clipPath26)"
         id="path304" />
      <text
         x="463"
         y="170"
         style="font-size:10; clip-path:url(#clipPath26); fill:black; stroke:none;"
         xml:space="preserve"
         clip-path="url(#clipPath26)"
         id="text306">MAPK12</text>
    </g>
    <g
       style="fill:white; text-rendering:geometricPrecision; stroke:white;"
       id="g316">
      <path
         d="M524.2103 135.885 L604.2103 135.885 L604.2103 155.885 L524.2103 155.885 L524.2103 135.885 Z"
         style="clip-path:url(#clipPath27); stroke:none;"
         clip-path="url(#clipPath27)"
         id="path310" />
      <path
         d="M524.2103 135.885 L604.2103 135.885 L604.2103 155.885 L524.2103 155.885 L524.2103 135.885 Z"
         style="fill:none; clip-path:url(#clipPath27); stroke:black;"
         clip-path="url(#clipPath27)"
         id="path312" />
      <text
         x="544"
         y="149"
         style="font-size:10; clip-path:url(#clipPath27); fill:black; stroke:none;"
         xml:space="preserve"
         clip-path="url(#clipPath27)"
         id="text314">MAPK13</text>
    </g>
    <g
       style="fill:white; text-rendering:geometricPrecision; stroke:white;"
       id="g324">
      <path
         d="M443.8348 135.885 L523.8348 135.885 L523.8348 155.885 L443.8348 155.885 L443.8348 135.885 Z"
         style="clip-path:url(#clipPath28); stroke:none;"
         clip-path="url(#clipPath28)"
         id="path318" />
      <path
         d="M443.8348 135.885 L523.8348 135.885 L523.8348 155.885 L443.8348 155.885 L443.8348 135.885 Z"
         style="fill:none; clip-path:url(#clipPath28); stroke:black;"
         clip-path="url(#clipPath28)"
         id="path320" />
      <text
         x="463"
         y="149"
         style="font-size:10; clip-path:url(#clipPath28); fill:black; stroke:none;"
         xml:space="preserve"
         clip-path="url(#clipPath28)"
         id="text322">MAPK11</text>
    </g>
    <g
       style="fill:white; text-rendering:geometricPrecision; stroke:white;"
       id="g332">
      <path
         d="M392.7856 243.8717 L472.7856 243.8717 L472.7856 263.8717 L392.7856 263.8717 L392.7856 243.8717 Z"
         style="clip-path:url(#clipPath29); stroke:none;"
         clip-path="url(#clipPath29)"
         id="path326" />
      <path
         d="M392.7856 243.8717 L472.7856 243.8717 L472.7856 263.8717 L392.7856 263.8717 L392.7856 243.8717 Z"
         style="fill:none; clip-path:url(#clipPath29); stroke:black;"
         clip-path="url(#clipPath29)"
         id="path328" />
      <text
         x="414"
         y="257"
         style="font-size:10; clip-path:url(#clipPath29); fill:black; stroke:none;"
         xml:space="preserve"
         clip-path="url(#clipPath29)"
         id="text330">NFE2L2</text>
    </g>
    <g
       style="fill:white; text-rendering:geometricPrecision; stroke:white;"
       id="g340">
      <path
         d="M524.2103 156.1726 L604.2103 156.1726 L604.2103 176.1726 L524.2103 176.1726 L524.2103 156.1726 Z"
         style="clip-path:url(#clipPath30); stroke:none;"
         clip-path="url(#clipPath30)"
         id="path334" />
      <path
         d="M524.2103 156.1726 L604.2103 156.1726 L604.2103 176.1726 L524.2103 176.1726 L524.2103 156.1726 Z"
         style="fill:none; clip-path:url(#clipPath30); stroke:black;"
         clip-path="url(#clipPath30)"
         id="path336" />
      <text
         x="544"
         y="170"
         style="font-size:10; clip-path:url(#clipPath30); fill:black; stroke:none;"
         xml:space="preserve"
         clip-path="url(#clipPath30)"
         id="text338">MAPK14</text>
    </g>
    <g
       style="fill:white; text-rendering:geometricPrecision; stroke:white;"
       id="g348">
      <path
         d="M344.242 145.171 L424.242 145.171 L424.242 165.171 L344.242 165.171 L344.242 145.171 Z"
         style="clip-path:url(#clipPath31); stroke:none;"
         clip-path="url(#clipPath31)"
         id="path342" />
      <path
         d="M344.242 145.171 L424.242 145.171 L424.242 165.171 L344.242 165.171 L344.242 145.171 Z"
         style="fill:none; clip-path:url(#clipPath31); stroke:black;"
         clip-path="url(#clipPath31)"
         id="path344" />
      <text
         x="367"
         y="159"
         style="font-size:10; clip-path:url(#clipPath31); fill:black; stroke:none;"
         xml:space="preserve"
         clip-path="url(#clipPath31)"
         id="text346">MAPK8</text>
    </g>
    <g
       style="fill:white; text-rendering:geometricPrecision; stroke:white;"
       id="g356">
      <path
         d="M232.6778 253.8564 L312.6778 253.8564 L312.6778 273.8564 L232.6778 273.8564 L232.6778 253.8564 Z"
         style="clip-path:url(#clipPath32); stroke:none;"
         clip-path="url(#clipPath32)"
         id="path350" />
      <path
         d="M232.6778 253.8564 L312.6778 253.8564 L312.6778 273.8564 L232.6778 273.8564 L232.6778 253.8564 Z"
         style="fill:none; clip-path:url(#clipPath32); stroke:black;"
         clip-path="url(#clipPath32)"
         id="path352" />
      <text
         x="256"
         y="267"
         style="font-size:10; clip-path:url(#clipPath32); fill:black; stroke:none;"
         xml:space="preserve"
         clip-path="url(#clipPath32)"
         id="text354">KEAP1</text>
    </g>
    <g
       style="fill:white; text-rendering:geometricPrecision; stroke:white;"
       id="g364">
      <path
         d="M232.6778 233.8664 L312.6778 233.8664 L312.6778 253.8664 L232.6778 253.8664 L232.6778 233.8664 Z"
         style="clip-path:url(#clipPath33); stroke:none;"
         clip-path="url(#clipPath33)"
         id="path358" />
      <path
         d="M232.6778 233.8664 L312.6778 233.8664 L312.6778 253.8664 L232.6778 253.8664 L232.6778 233.8664 Z"
         style="fill:none; clip-path:url(#clipPath33); stroke:black;"
         clip-path="url(#clipPath33)"
         id="path360" />
      <text
         x="254"
         y="247"
         style="font-size:10; clip-path:url(#clipPath33); fill:black; stroke:none;"
         xml:space="preserve"
         clip-path="url(#clipPath33)"
         id="text362">NFE2L2</text>
    </g>
    <g
       style="fill:white; text-rendering:geometricPrecision; stroke:white;"
       id="g372">
      <path
         d="M392.7627 313.6355 L472.7627 313.6355 L472.7627 333.6355 L392.7627 333.6355 L392.7627 313.6355 Z"
         style="clip-path:url(#clipPath34); stroke:none;"
         clip-path="url(#clipPath34)"
         id="path366" />
      <path
         d="M392.7627 313.6355 L472.7627 313.6355 L472.7627 333.6355 L392.7627 333.6355 L392.7627 313.6355 Z"
         style="fill:none; clip-path:url(#clipPath34); stroke:black;"
         clip-path="url(#clipPath34)"
         id="path368" />
      <text
         x="414"
         y="327"
         style="font-size:10; clip-path:url(#clipPath34); fill:black; stroke:none;"
         xml:space="preserve"
         clip-path="url(#clipPath34)"
         id="text370">NFE2L2</text>
    </g>
    <g
       style="text-rendering:geometricPrecision;"
       id="g376">
      <text
         x="340"
         xml:space="preserve"
         y="475"
         style="clip-path:url(#clipPath35); stroke:none;"
         clip-path="url(#clipPath35)"
         id="text374">Antioxidant synthesis/recycling</text>
    </g>
    <g
       style="text-rendering:geometricPrecision;"
       id="g380">
      <text
         x="519"
         xml:space="preserve"
         y="475"
         style="clip-path:url(#clipPath36); stroke:none;"
         clip-path="url(#clipPath36)"
         id="text378">Neutralization of toxins</text>
    </g>
    <g
       style="fill:rgb(0,102,102); text-rendering:geometricPrecision; stroke:rgb(0,102,102);"
       id="g384">
      <path
         d="M201.5874 131.8648 L201.5874 131.8648 L201.5874 131.8648 L203.0874 131.8648 L203.0874 133.3648 L203.0874 584.2475 L203.0874 585.7474 L201.5874 585.7475 L198.5874 585.7475 L198.5874 584.2475 L198.5874 582.7475 L201.5874 582.7475 L203.0874 582.7475 L203.0874 584.2475 C203.0874 587.2849 205.5498 589.7475 208.5874 589.7475 L210.0874 589.7475 L210.0874 591.2475 L210.0874 594.2475 L208.5874 594.2475 L207.0874 594.2475 L207.0874 591.2475 L207.0874 589.7475 L208.5874 589.7475 L659 589.7475 L660.5 589.7475 L660.5 591.2475 L660.5 594.2475 L659 594.2475 L657.5 594.2475 L657.5 591.2475 L657.5 589.7475 L659 589.7475 C662.0374 589.7475 664.5 587.2849 664.5 584.2475 L664.5 582.7475 L666 582.7475 L669 582.7475 L669 584.2475 L669 585.7475 L666 585.7475 L664.5 585.7475 L664.5 584.2475 L664.5 133.3648 L664.5 131.8648 L666 131.8648 L669 131.8648 L669 133.3648 L669 134.8648 L666 134.8648 L664.5 134.8648 L664.5 133.3648 C664.5 130.3273 662.0374 127.8648 659 127.8648 L657.5 127.8648 L657.5 126.3648 L657.5 123.3648 L659 123.3648 L660.5 123.3648 L660.5 126.3648 L660.5 127.8648 L659 127.8648 L208.5874 127.8648 L207.0875 127.8648 L207.0874 126.3648 L207.0874 123.3648 L208.5874 123.3648 L210.0874 123.3648 L210.0874 126.3648 L210.0874 127.8648 L208.5874 127.8648 C205.5498 127.8648 203.0874 130.3273 203.0874 133.3648 L203.0874 134.8648 L201.5874 134.8648 L198.5874 134.8648 L198.5874 133.3648 L198.5874 131.8648 L201.5874 131.8648 L203.0874 131.8648 L203.0874 134.8648 L201.5874 134.8648 L198.5874 134.8648 L198.5874 131.8648 L201.5874 131.8648 L201.5874 133.3648 L200.0874 133.3648 C200.0874 128.6704 203.8929 124.8648 208.5874 124.8648 L208.5874 126.3648 L207.0874 126.3648 L207.0874 123.3648 L210.0874 123.3648 L210.0874 126.3648 L208.5874 126.3648 L208.5874 124.8648 L659 124.8648 L659 126.3648 L657.5 126.3648 L657.5 123.3648 L660.5 123.3648 L660.5 126.3648 L659 126.3648 L659 124.8648 C663.6943 124.8648 667.5 128.6704 667.5 133.3648 L666 133.3648 L666 131.8648 L669 131.8648 L669 134.8648 L666 134.8648 L666 133.3648 L667.5 133.3648 L667.5 584.2475 L666 584.2475 L666 582.7475 L669 582.7475 L669 585.7475 L666 585.7475 L666 584.2475 L667.5 584.2475 C667.5 588.9418 663.6943 592.7475 659 592.7475 L659 591.2475 L660.5 591.2475 L660.5 594.2475 L657.5 594.2475 L657.5 591.2475 L659 591.2475 L659 592.7475 L208.5874 592.7475 L208.5874 591.2475 L210.0874 591.2475 L210.0874 594.2475 L207.0874 594.2475 L207.0874 591.2475 L208.5874 591.2475 L208.5874 592.7475 C203.8929 592.7475 200.0874 588.9417 200.0874 584.2475 L201.5874 584.2475 L201.5874 585.7475 L198.5874 585.7475 L198.5874 582.7475 L201.5874 582.7475 L201.5874 584.2475 L200.0874 584.2475 L200.0874 133.3648 L201.5874 133.3648 L201.5874 134.8648 L201.5874 134.8648 L200.0874 134.8648 L200.0874 131.8648 ZM195.5874 131.8648 L195.5874 131.8648 L195.5874 131.8648 L195.5874 133.3648 L194.0874 133.3648 C194.0874 125.3567 200.5792 118.8648 208.5874 118.8648 L208.5874 120.3648 L208.5874 118.8648 L208.5874 118.8648 L208.5874 120.3648 L208.5874 118.8648 L659 118.8648 L659 120.3648 L659 118.8648 L659 118.8648 L659 120.3648 L659 118.8648 C667.0078 118.8648 673.5 125.3567 673.5 133.3648 L672 133.3648 L672 131.8648 L672 131.8648 L673.5 131.8648 L673.5 133.3648 L673.5 584.2475 L672 584.2475 L672 582.7475 L672 582.7475 L673.5 582.7475 L673.5 584.2475 C673.5 592.2555 667.0078 598.7475 659 598.7475 L659 597.2475 L659 595.7475 L659 595.7475 L659 597.2475 L659 598.7475 L208.5874 598.7475 L208.5874 597.2475 L208.5874 595.7475 L208.5874 595.7475 L208.5874 597.2475 L208.5874 598.7475 C200.5792 598.7475 194.0874 592.2555 194.0874 584.2475 L194.0874 582.7475 L195.5874 582.7475 L195.5874 582.7475 L195.5874 584.2475 L194.0874 584.2475 L194.0874 133.3648 L194.0874 131.8648 L195.5874 131.8648 M195.5874 134.8648 L195.5874 133.3648 L197.0874 133.3648 L197.0874 584.2475 L197.0874 585.7475 L195.5874 585.7475 L195.5874 585.7475 L195.5874 584.2475 L197.0874 584.2475 C197.0874 590.5986 202.2361 595.7475 208.5874 595.7475 L208.5874 598.7475 L208.5874 598.7475 L208.5874 595.7475 L659 595.7475 L659 598.7475 L659 598.7475 L659 595.7475 C665.3509 595.7475 670.5 590.5986 670.5 584.2475 L672 584.2475 L672 585.7475 L672 585.7475 L670.5 585.7474 L670.5 584.2475 L670.5 133.3648 L672 133.3648 L672 134.8648 L672 134.8648 L670.5 134.8648 L670.5 133.3648 C670.5 127.0135 665.3509 121.8648 659 121.8648 L659 121.8648 L659 121.8648 L659 121.8648 L208.5874 121.8648 L208.5874 121.8648 L208.5874 121.8648 L208.5874 121.8648 C202.2361 121.8648 197.0874 127.0135 197.0874 133.3648 L197.0874 134.8648 L195.5874 134.8648 L195.5874 134.8648 Z"
         style="clip-path:url(#clipPath37); stroke:none;"
         clip-path="url(#clipPath37)"
         id="path382" />
    </g>
    <g
       style="fill:white; text-rendering:geometricPrecision; stroke:white;"
       id="g392">
      <path
         d="M548.1027 518.3941 L628.1027 518.3941 L628.1027 538.3941 L548.1027 538.3941 L548.1027 518.3941 Z"
         style="clip-path:url(#clipPath38); stroke:none;"
         clip-path="url(#clipPath38)"
         id="path386" />
      <path
         d="M548.1027 518.3941 L628.1027 518.3941 L628.1027 538.3941 L548.1027 538.3941 L548.1027 518.3941 Z"
         style="fill:none; clip-path:url(#clipPath38); stroke:black;"
         clip-path="url(#clipPath38)"
         id="path388" />
      <text
         x="572"
         y="532"
         style="font-size:10; clip-path:url(#clipPath38); fill:black; stroke:none;"
         xml:space="preserve"
         clip-path="url(#clipPath38)"
         id="text390">EPHX1</text>
    </g>
    <g
       style="fill:white; text-rendering:geometricPrecision; stroke:white;"
       id="g400">
      <path
         d="M548.1027 557.6935 L628.1027 557.6935 L628.1027 577.6935 L548.1027 577.6935 L548.1027 557.6935 Z"
         style="clip-path:url(#clipPath39); stroke:none;"
         clip-path="url(#clipPath39)"
         id="path394" />
      <path
         d="M548.1027 557.6935 L628.1027 557.6935 L628.1027 577.6935 L548.1027 577.6935 L548.1027 557.6935 Z"
         style="fill:none; clip-path:url(#clipPath39); stroke:black;"
         clip-path="url(#clipPath39)"
         id="path396" />
      <text
         x="575"
         y="571"
         style="font-size:10; clip-path:url(#clipPath39); fill:black; stroke:none;"
         xml:space="preserve"
         clip-path="url(#clipPath39)"
         id="text398">CES1</text>
    </g>
    <g
       style="fill:white; text-rendering:geometricPrecision; stroke:white;"
       id="g408">
      <path
         d="M548.1027 498.8743 L628.1027 498.8743 L628.1027 518.8743 L548.1027 518.8743 L548.1027 498.8743 Z"
         style="clip-path:url(#clipPath40); stroke:none;"
         clip-path="url(#clipPath40)"
         id="path402" />
      <path
         d="M548.1027 498.8743 L628.1027 498.8743 L628.1027 518.8743 L548.1027 518.8743 L548.1027 498.8743 Z"
         style="fill:none; clip-path:url(#clipPath40); stroke:black;"
         clip-path="url(#clipPath40)"
         id="path404" />
      <text
         x="574"
         y="512"
         style="font-size:10; clip-path:url(#clipPath40); fill:black; stroke:none;"
         xml:space="preserve"
         clip-path="url(#clipPath40)"
         id="text406">NQO2</text>
    </g>
    <g
       style="fill:white; text-rendering:geometricPrecision; stroke:white;"
       id="g416">
      <path
         d="M548.1027 538.0438 L628.1027 538.0438 L628.1027 558.0438 L548.1027 558.0438 L548.1027 538.0438 Z"
         style="clip-path:url(#clipPath41); stroke:none;"
         clip-path="url(#clipPath41)"
         id="path410" />
      <path
         d="M548.1027 538.0438 L628.1027 538.0438 L628.1027 558.0438 L548.1027 558.0438 L548.1027 538.0438 Z"
         style="fill:none; clip-path:url(#clipPath41); stroke:black;"
         clip-path="url(#clipPath41)"
         id="path412" />
      <text
         x="572"
         y="552"
         style="font-size:10; clip-path:url(#clipPath41); fill:black; stroke:none;"
         xml:space="preserve"
         clip-path="url(#clipPath41)"
         id="text414">SRXN1</text>
    </g>
    <g
       style="fill:white; text-rendering:geometricPrecision; stroke:white;"
       id="g424">
      <path
         d="M548.1027 478.7904 L628.1027 478.7904 L628.1027 498.7904 L548.1027 498.7904 L548.1027 478.7904 Z"
         style="clip-path:url(#clipPath42); stroke:none;"
         clip-path="url(#clipPath42)"
         id="path418" />
      <path
         d="M548.1027 478.7904 L628.1027 478.7904 L628.1027 498.7904 L548.1027 498.7904 L548.1027 478.7904 Z"
         style="fill:none; clip-path:url(#clipPath42); stroke:black;"
         clip-path="url(#clipPath42)"
         id="path420" />
      <text
         x="574"
         y="492"
         style="font-size:10; clip-path:url(#clipPath42); fill:black; stroke:none;"
         xml:space="preserve"
         clip-path="url(#clipPath42)"
         id="text422">NQO1</text>
    </g>
    <g
       style="text-rendering:geometricPrecision;"
       id="g430">
      <path
         d="M432.7627 381.6355 L290.4061 447.0516"
         style="fill:none; clip-path:url(#clipPath43);"
         clip-path="url(#clipPath43)"
         id="path426" />
      <path
         d="M295.1311 444.8804 L290.7886 435.4304 L281.3386 439.7729 L279.1674 435.0479 L270.7074 444.6582 L283.5099 444.4979 L281.3386 439.7729"
         style="fill:none; clip-path:url(#clipPath43);"
         clip-path="url(#clipPath43)"
         id="path428" />
    </g>
    <g
       style="text-rendering:geometricPrecision;"
       id="g436">
      <path
         d="M432.7627 381.6355 L432.7223 439.4797"
         style="fill:none; clip-path:url(#clipPath44);"
         clip-path="url(#clipPath44)"
         id="path432" />
      <path
         d="M432.7259 434.2797 L422.3259 434.2725 L422.3186 444.6725 L417.1186 444.6688 L422.3104 456.3725 L427.5186 444.6761 L422.3186 444.6725"
         style="fill:none; clip-path:url(#clipPath44);"
         clip-path="url(#clipPath44)"
         id="path434" />
    </g>
    <g
       style="text-rendering:geometricPrecision;"
       id="g442">
      <path
         d="M432.7627 381.6355 L576.2747 447.0854"
         style="fill:none; clip-path:url(#clipPath45);"
         clip-path="url(#clipPath45)"
         id="path438" />
      <path
         d="M571.5435 444.9278 L567.2281 454.3902 L576.6905 458.7056 L574.5328 463.4368 L587.3357 463.5604 L578.8482 453.9744 L576.6905 458.7056"
         style="fill:none; clip-path:url(#clipPath45);"
         clip-path="url(#clipPath45)"
         id="path440" />
    </g>
    <g
       style="text-rendering:geometricPrecision;"
       id="g448">
      <path
         d="M432.7856 263.8717 L432.7627 313.6355"
         style="fill:none; clip-path:url(#clipPath46);"
         clip-path="url(#clipPath46)"
         id="path444" />
      <path
         d="M432.7627 313.6355 L437.9681 301.9379 L427.5681 301.9331 Z"
         style="clip-path:url(#clipPath46); fill-rule:evenodd; stroke:none;"
         clip-path="url(#clipPath46)"
         id="path446" />
    </g>
  </g>
</svg>
