<?xml version="1.0" encoding="UTF-8" standalone="no"?>
<svg
   style="fill-opacity:1; color-rendering:auto; color-interpolation:auto; stroke:black; text-rendering:auto; stroke-linecap:square; stroke-miterlimit:10; stroke-opacity:1; shape-rendering:auto; fill:black; stroke-dasharray:none; font-weight:normal; stroke-width:1; font-family:'Dialog'; font-style:normal; stroke-linejoin:miter; font-size:12; stroke-dashoffset:0; image-rendering:auto;"
   width="690"
   height="533"
   version="1.1"
   id="svg384"
   xmlns="http://www.w3.org/2000/svg"
   xmlns:svg="http://www.w3.org/2000/svg">
  <!--Generated by the Batik Graphics2D SVG Generator-->
  <defs
     id="genericDefs" />
  <g
     id="g382">
    <defs
       id="defs1">
      <clipPath
         clipPathUnits="userSpaceOnUse"
         id="clipPath1">
        <path
           d="M0 0 L705 0 L705 549 L0 549 L0 0 Z"
           id="path3" />
      </clipPath>
      <clipPath
         clipPathUnits="userSpaceOnUse"
         id="clipPath2">
        <path
           d="M0 0 L0 200 L200 200 L200 0 Z"
           id="path6" />
      </clipPath>
      <clipPath
         clipPathUnits="userSpaceOnUse"
         id="clipPath3">
        <path
           d="M135 16 L135 37 L156 37 L156 16 Z"
           id="path9" />
      </clipPath>
      <clipPath
         clipPathUnits="userSpaceOnUse"
         id="clipPath4">
        <path
           d="M135.4668 3.918 L154.5332 3.918 L154.5332 19.2305 L135.4668 19.2305 L135.4668 3.918 Z"
           id="path12" />
      </clipPath>
      <clipPath
         clipPathUnits="userSpaceOnUse"
         id="clipPath5">
        <path
           d="M382.0849 229.7488 L382.0849 306.2029 L394.0225 306.2029 L394.0225 229.7488 Z"
           id="path15" />
      </clipPath>
      <clipPath
         clipPathUnits="userSpaceOnUse"
         id="clipPath6">
        <path
           d="M293.7217 119.2687 L293.7217 131.2075 L349.8454 131.2075 L349.8454 119.2687 Z"
           id="path18" />
      </clipPath>
      <clipPath
         clipPathUnits="userSpaceOnUse"
         id="clipPath7">
        <path
           d="M463.6097 365.5987 L463.6097 376.9987 L525.4242 376.9987 L525.4242 365.5987 Z"
           id="path21" />
      </clipPath>
      <clipPath
         clipPathUnits="userSpaceOnUse"
         id="clipPath8">
        <path
           d="M490.1025 83.7705 L490.1025 126.243 L501.5025 126.243 L501.5025 83.7705 Z"
           id="path24" />
      </clipPath>
      <clipPath
         clipPathUnits="userSpaceOnUse"
         id="clipPath9">
        <path
           d="M584.5331 134.9293 L584.5331 204.5033 L596.4719 204.5033 L596.4719 134.9293 Z"
           id="path27" />
      </clipPath>
      <clipPath
         clipPathUnits="userSpaceOnUse"
         id="clipPath10">
        <path
           d="M387.3025 321.6508 L387.3025 411.1871 L476.0057 411.1871 L476.0057 321.6508 Z"
           id="path30" />
      </clipPath>
      <clipPath
         clipPathUnits="userSpaceOnUse"
         id="clipPath11">
        <path
           d="M297.864 321.6485 L297.864 411.1863 L388.5476 411.1863 L388.5476 321.6485 Z"
           id="path33" />
      </clipPath>
      <clipPath
         clipPathUnits="userSpaceOnUse"
         id="clipPath12">
        <path
           d="M425.4143 119.2837 L425.4143 131.2225 L551.0033 131.2225 L551.0033 119.2837 Z"
           id="path36" />
      </clipPath>
      <clipPath
         clipPathUnits="userSpaceOnUse"
         id="clipPath13">
        <path
           d="M387.6133 253.2839 L387.6133 264.6839 L437.432 264.6839 L437.432 253.2839 Z"
           id="path39" />
      </clipPath>
      <clipPath
         clipPathUnits="userSpaceOnUse"
         id="clipPath14">
        <path
           d="M302.2729 426.6212 L302.2729 503.1812 L392.8535 503.1812 L392.8535 426.6212 Z"
           id="path42" />
      </clipPath>
      <clipPath
         clipPathUnits="userSpaceOnUse"
         id="clipPath15">
        <path
           d="M382.9985 140.9215 L382.9985 214.1866 L394.937 214.1866 L394.937 140.9215 Z"
           id="path45" />
      </clipPath>
      <clipPath
         clipPathUnits="userSpaceOnUse"
         id="clipPath16">
        <path
           d="M117.9772 119.2687 L117.9772 131.2075 L151.8859 131.2075 L151.8859 119.2687 Z"
           id="path48" />
      </clipPath>
      <clipPath
         clipPathUnits="userSpaceOnUse"
         id="clipPath17">
        <path
           d="M294.7919 132.6246 L294.7919 184.743 L350.0522 184.743 L350.0522 132.6246 Z"
           id="path51" />
      </clipPath>
      <clipPath
         clipPathUnits="userSpaceOnUse"
         id="clipPath18">
        <path
           d="M382.9694 426.6234 L382.9694 503.1822 L471.5727 503.1822 L471.5727 426.6234 Z"
           id="path54" />
      </clipPath>
      <clipPath
         clipPathUnits="userSpaceOnUse"
         id="clipPath19">
        <path
           d="M388.2349 168.0596 L388.2349 179.4597 L433.4427 179.4597 L433.4427 168.0596 Z"
           id="path57" />
      </clipPath>
      <clipPath
         clipPathUnits="userSpaceOnUse"
         id="clipPath20">
        <path
           d="M467.424 503.3028 L467.424 515.2416 L597.155 515.2416 L597.155 503.3028 Z"
           id="path60" />
      </clipPath>
      <clipPath
         clipPathUnits="userSpaceOnUse"
         id="clipPath21">
        <path
           d="M307.424 498.7722 L307.424 519.7722 L468.424 519.7722 L468.424 498.7722 Z"
           id="path63" />
      </clipPath>
      <clipPath
         clipPathUnits="userSpaceOnUse"
         id="clipPath22">
        <path
           d="M455.424 63.7722 L455.424 84.7722 L536.424 84.7722 L536.424 63.7722 Z"
           id="path66" />
      </clipPath>
      <clipPath
         clipPathUnits="userSpaceOnUse"
         id="clipPath23">
        <path
           d="M348.4073 209.7555 L348.4073 230.7555 L429.4073 230.7555 L429.4073 209.7555 Z"
           id="path69" />
      </clipPath>
      <clipPath
         clipPathUnits="userSpaceOnUse"
         id="clipPath24">
        <path
           d="M223.424 406.7722 L223.424 427.7722 L382.424 427.7722 L382.424 406.7722 Z"
           id="path72" />
      </clipPath>
      <clipPath
         clipPathUnits="userSpaceOnUse"
         id="clipPath25">
        <path
           d="M432.424 161.7722 L432.424 182.7722 L513.424 182.7722 L513.424 161.7722 Z"
           id="path75" />
      </clipPath>
      <clipPath
         clipPathUnits="userSpaceOnUse"
         id="clipPath26">
        <path
           d="M348.8454 108.5515 L348.8454 141.9247 L429.8454 141.9247 L429.8454 108.5515 Z"
           id="path78" />
      </clipPath>
      <clipPath
         clipPathUnits="userSpaceOnUse"
         id="clipPath27">
        <path
           d="M550.0025 202.7722 L550.0025 223.7722 L631.0025 223.7722 L631.0025 202.7722 Z"
           id="path81" />
      </clipPath>
      <clipPath
         clipPathUnits="userSpaceOnUse"
         id="clipPath28">
        <path
           d="M524.424 360.7722 L524.424 381.7722 L605.424 381.7722 L605.424 360.7722 Z"
           id="path84" />
      </clipPath>
      <clipPath
         clipPathUnits="userSpaceOnUse"
         id="clipPath29">
        <path
           d="M595.424 498.7722 L595.424 519.7722 L676.424 519.7722 L676.424 498.7722 Z"
           id="path87" />
      </clipPath>
      <clipPath
         clipPathUnits="userSpaceOnUse"
         id="clipPath30">
        <path
           d="M150.8859 54.5195 L150.8859 80.5195 L298.1528 80.5195 L298.1528 54.5195 Z"
           id="path90" />
      </clipPath>
      <clipPath
         clipPathUnits="userSpaceOnUse"
         id="clipPath31">
        <path
           d="M430.424 406.7722 L430.424 427.7722 L511.424 427.7722 L511.424 406.7722 Z"
           id="path93" />
      </clipPath>
      <clipPath
         clipPathUnits="userSpaceOnUse"
         id="clipPath32">
        <path
           d="M436.424 247.7722 L436.424 268.7722 L517.424 268.7722 L517.424 247.7722 Z"
           id="path96" />
      </clipPath>
      <clipPath
         clipPathUnits="userSpaceOnUse"
         id="clipPath33">
        <path
           d="M550.0025 114.9293 L550.0025 135.9293 L631.0025 135.9293 L631.0025 114.9293 Z"
           id="path99" />
      </clipPath>
      <clipPath
         clipPathUnits="userSpaceOnUse"
         id="clipPath34">
        <path
           d="M331.424 301.7722 L331.424 322.7722 L444.424 322.7722 L444.424 301.7722 Z"
           id="path102" />
      </clipPath>
      <clipPath
         clipPathUnits="userSpaceOnUse"
         id="clipPath35">
        <path
           d="M150.8859 112.2381 L150.8859 138.2381 L298.1528 138.2381 L298.1528 112.2381 Z"
           id="path105" />
      </clipPath>
      <clipPath
         clipPathUnits="userSpaceOnUse"
         id="clipPath36">
        <path
           d="M150.8859 169.0469 L150.8859 195.0469 L298.1528 195.0469 L298.1528 169.0469 Z"
           id="path108" />
      </clipPath>
      <clipPath
         clipPathUnits="userSpaceOnUse"
         id="clipPath37">
        <path
           d="M31.4083 112.2381 L31.4083 138.2381 L122.4083 138.2381 L122.4083 112.2381 Z"
           id="path111" />
      </clipPath>
      <clipPath
         clipPathUnits="userSpaceOnUse"
         id="clipPath38">
        <path
           d="M294.817 64.7971 L294.817 117.8518 L350.0524 117.8518 L350.0524 64.7971 Z"
           id="path114" />
      </clipPath>
    </defs>
    <g
       style="fill:white; stroke:white;"
       id="g120">
      <rect
         x="0"
         width="705"
         height="549"
         y="0"
         style="stroke:none;"
         id="rect118" />
    </g>
    <g
       style="font-weight:bold; font-size:10; text-rendering:geometricPrecision;"
       id="g130">
      <path
         d="M0.0469 6.7031 L6.7656 6.7031 L6.7656 8.125 L4.3438 8.125 L4.3438 14 L2.4688 14 L2.4688 8.125 L0.0469 8.125 L0.0469 6.7031 ZM7.665 8.5312 L9.415 8.5312 L9.415 14 L7.665 14 L7.665 8.5312 ZM7.665 6.4062 L9.415 6.4062 L9.415 7.8281 L7.665 7.8281 L7.665 6.4062 ZM12.999 6.9844 L12.999 8.5312 L14.7959 8.5312 L14.7959 9.7812 L12.999 9.7812 L12.999 12.0938 Q12.999 12.4844 13.1475 12.6172 Q13.2959 12.75 13.749 12.75 L14.6553 12.75 L14.6553 14 L13.1553 14 Q12.1084 14 11.6787 13.5703 Q11.249 13.1406 11.249 12.0938 L11.249 9.7812 L10.374 9.7812 L10.374 8.5312 L11.249 8.5312 L11.249 6.9844 L12.999 6.9844 ZM15.873 6.4062 L17.623 6.4062 L17.623 14 L15.873 14 L15.873 6.4062 ZM24.7539 11.25 L24.7539 11.75 L20.6758 11.75 Q20.7383 12.3594 21.1133 12.6719 Q21.4883 12.9844 22.1758 12.9844 Q22.7227 12.9844 23.3086 12.8203 Q23.8945 12.6562 24.5039 12.3125 L24.5039 13.6719 Q23.8789 13.9062 23.2617 14.0234 Q22.6445 14.1406 22.0195 14.1406 Q20.5352 14.1406 19.7148 13.3828 Q18.8945 12.625 18.8945 11.2656 Q18.8945 9.9375 19.6992 9.1719 Q20.5039 8.4062 21.9258 8.4062 Q23.207 8.4062 23.9805 9.1797 Q24.7539 9.9531 24.7539 11.25 ZM22.957 10.6719 Q22.957 10.1719 22.668 9.8672 Q22.3789 9.5625 21.9102 9.5625 Q21.3945 9.5625 21.082 9.8438 Q20.7695 10.125 20.6914 10.6719 L22.957 10.6719 ZM26.3643 8.5312 L28.1143 8.5312 L28.1143 10.4219 L26.3643 10.4219 L26.3643 8.5312 ZM26.3643 12.1094 L28.1143 12.1094 L28.1143 14 L26.3643 14 L26.3643 12.1094 Z"
         style="clip-path:url(#clipPath2); stroke:none;"
         clip-path="url(#clipPath2)"
         id="path122" />
      <path
         d="M39.9688 7.5156 L39.9688 10.2656 L41.2031 10.2656 Q41.8906 10.2656 42.2734 9.9062 Q42.6562 9.5469 42.6562 8.8906 Q42.6562 8.2344 42.2734 7.875 Q41.8906 7.5156 41.2031 7.5156 L39.9688 7.5156 ZM38.9844 6.7031 L41.2031 6.7031 Q42.4375 6.7031 43.0625 7.2578 Q43.6875 7.8125 43.6875 8.8906 Q43.6875 9.9688 43.0625 10.5156 Q42.4375 11.0625 41.2031 11.0625 L39.9688 11.0625 L39.9688 14 L38.9844 14 L38.9844 6.7031 ZM47.0928 9.1562 Q46.374 9.1562 45.9521 9.7188 Q45.5303 10.2812 45.5303 11.2656 Q45.5303 12.25 45.9443 12.8125 Q46.3584 13.375 47.0928 13.375 Q47.8115 13.375 48.2334 12.8125 Q48.6553 12.25 48.6553 11.2656 Q48.6553 10.2969 48.2334 9.7266 Q47.8115 9.1562 47.0928 9.1562 ZM47.0928 8.4062 Q48.2646 8.4062 48.9365 9.1641 Q49.6084 9.9219 49.6084 11.2656 Q49.6084 12.6094 48.9365 13.375 Q48.2646 14.1406 47.0928 14.1406 Q45.9209 14.1406 45.249 13.375 Q44.5771 12.6094 44.5771 11.2656 Q44.5771 9.9219 45.249 9.1641 Q45.9209 8.4062 47.0928 8.4062 ZM51.0859 6.4062 L51.9922 6.4062 L51.9922 14 L51.0859 14 L51.0859 6.4062 ZM56.1455 14.5156 Q55.7705 15.4844 55.4033 15.7812 Q55.0361 16.0781 54.4424 16.0781 L53.7236 16.0781 L53.7236 15.3281 L54.2393 15.3281 Q54.6143 15.3281 54.8174 15.1562 Q55.0205 14.9844 55.2705 14.3281 L55.4424 13.9062 L53.2236 8.5312 L54.1768 8.5312 L55.8799 12.8125 L57.5986 8.5312 L58.5518 8.5312 L56.1455 14.5156 ZM61.9072 9.1562 Q61.1885 9.1562 60.7666 9.7188 Q60.3447 10.2812 60.3447 11.2656 Q60.3447 12.25 60.7588 12.8125 Q61.1729 13.375 61.9072 13.375 Q62.626 13.375 63.0479 12.8125 Q63.4697 12.25 63.4697 11.2656 Q63.4697 10.2969 63.0479 9.7266 Q62.626 9.1562 61.9072 9.1562 ZM61.9072 8.4062 Q63.0791 8.4062 63.751 9.1641 Q64.4229 9.9219 64.4229 11.2656 Q64.4229 12.6094 63.751 13.375 Q63.0791 14.1406 61.9072 14.1406 Q60.7354 14.1406 60.0635 13.375 Q59.3916 12.6094 59.3916 11.2656 Q59.3916 9.9219 60.0635 9.1641 Q60.7354 8.4062 61.9072 8.4062 ZM65.9004 6.4062 L66.8066 6.4062 L66.8066 14 L65.9004 14 L65.9004 6.4062 ZM72.7324 13.1719 L72.7324 16.0781 L71.8262 16.0781 L71.8262 8.5312 L72.7324 8.5312 L72.7324 9.3594 Q73.0137 8.875 73.4434 8.6406 Q73.873 8.4062 74.4824 8.4062 Q75.4824 8.4062 76.0996 9.1953 Q76.7168 9.9844 76.7168 11.2656 Q76.7168 12.5625 76.0996 13.3516 Q75.4824 14.1406 74.4824 14.1406 Q73.873 14.1406 73.4434 13.9062 Q73.0137 13.6719 72.7324 13.1719 ZM75.7949 11.2656 Q75.7949 10.2812 75.3809 9.7188 Q74.9668 9.1562 74.2637 9.1562 Q73.5449 9.1562 73.1387 9.7188 Q72.7324 10.2812 72.7324 11.2656 Q72.7324 12.2656 73.1387 12.8281 Q73.5449 13.3906 74.2637 13.3906 Q74.9668 13.3906 75.3809 12.8281 Q75.7949 12.2656 75.7949 11.2656 ZM80.6895 11.25 Q79.6113 11.25 79.1895 11.5 Q78.7676 11.75 78.7676 12.3438 Q78.7676 12.8281 79.0801 13.1094 Q79.3926 13.3906 79.9395 13.3906 Q80.6895 13.3906 81.1426 12.8594 Q81.5957 12.3281 81.5957 11.4531 L81.5957 11.25 L80.6895 11.25 ZM82.4863 10.875 L82.4863 14 L81.5957 14 L81.5957 13.1719 Q81.2832 13.6719 80.8223 13.9062 Q80.3613 14.1406 79.7051 14.1406 Q78.8613 14.1406 78.3613 13.6719 Q77.8613 13.2031 77.8613 12.4062 Q77.8613 11.4844 78.4863 11.0156 Q79.1113 10.5469 80.3301 10.5469 L81.5957 10.5469 L81.5957 10.4531 Q81.5957 9.8438 81.1816 9.5 Q80.7676 9.1562 80.0332 9.1562 Q79.5645 9.1562 79.1191 9.2734 Q78.6738 9.3906 78.2676 9.6094 L78.2676 8.7812 Q78.7676 8.5938 79.2285 8.5 Q79.6895 8.4062 80.127 8.4062 Q81.3145 8.4062 81.9004 9.0156 Q82.4863 9.625 82.4863 10.875 ZM85.2236 6.9844 L85.2236 8.5312 L87.083 8.5312 L87.083 9.2344 L85.2236 9.2344 L85.2236 12.2031 Q85.2236 12.8594 85.4111 13.0547 Q85.5986 13.25 86.1611 13.25 L87.083 13.25 L87.083 14 L86.1611 14 Q85.1143 14 84.7158 13.6094 Q84.3174 13.2188 84.3174 12.2031 L84.3174 9.2344 L83.6611 9.2344 L83.6611 8.5312 L84.3174 8.5312 L84.3174 6.9844 L85.2236 6.9844 ZM92.8008 10.7031 L92.8008 14 L91.9102 14 L91.9102 10.7344 Q91.9102 9.9531 91.6055 9.5703 Q91.3008 9.1875 90.6914 9.1875 Q89.9727 9.1875 89.5508 9.6484 Q89.1289 10.1094 89.1289 10.9062 L89.1289 14 L88.2227 14 L88.2227 6.4062 L89.1289 6.4062 L89.1289 9.375 Q89.457 8.8906 89.8945 8.6484 Q90.332 8.4062 90.8945 8.4062 Q91.832 8.4062 92.3164 8.9844 Q92.8008 9.5625 92.8008 10.7031 ZM94.0762 8.5312 L94.9668 8.5312 L96.0918 12.7969 L97.2168 8.5312 L98.2793 8.5312 L99.4043 12.7969 L100.5137 8.5312 L101.4199 8.5312 L99.9824 14 L98.9199 14 L97.748 9.5156 L96.5605 14 L95.498 14 L94.0762 8.5312 ZM105.2549 11.25 Q104.1768 11.25 103.7549 11.5 Q103.333 11.75 103.333 12.3438 Q103.333 12.8281 103.6455 13.1094 Q103.958 13.3906 104.5049 13.3906 Q105.2549 13.3906 105.708 12.8594 Q106.1611 12.3281 106.1611 11.4531 L106.1611 11.25 L105.2549 11.25 ZM107.0518 10.875 L107.0518 14 L106.1611 14 L106.1611 13.1719 Q105.8486 13.6719 105.3877 13.9062 Q104.9268 14.1406 104.2705 14.1406 Q103.4268 14.1406 102.9268 13.6719 Q102.4268 13.2031 102.4268 12.4062 Q102.4268 11.4844 103.0518 11.0156 Q103.6768 10.5469 104.8955 10.5469 L106.1611 10.5469 L106.1611 10.4531 Q106.1611 9.8438 105.7471 9.5 Q105.333 9.1562 104.5986 9.1562 Q104.1299 9.1562 103.6846 9.2734 Q103.2393 9.3906 102.833 9.6094 L102.833 8.7812 Q103.333 8.5938 103.7939 8.5 Q104.2549 8.4062 104.6924 8.4062 Q105.8799 8.4062 106.4658 9.0156 Q107.0518 9.625 107.0518 10.875 ZM111.1797 14.5156 Q110.8047 15.4844 110.4375 15.7812 Q110.0703 16.0781 109.4766 16.0781 L108.7578 16.0781 L108.7578 15.3281 L109.2734 15.3281 Q109.6484 15.3281 109.8516 15.1562 Q110.0547 14.9844 110.3047 14.3281 L110.4766 13.9062 L108.2578 8.5312 L109.2109 8.5312 L110.9141 12.8125 L112.6328 8.5312 L113.5859 8.5312 L111.1797 14.5156 Z"
         style="clip-path:url(#clipPath2); stroke:none;"
         clip-path="url(#clipPath2)"
         id="path124" />
      <path
         d="M4.25 21.9375 Q3.3906 21.9375 2.9141 22.5703 Q2.4375 23.2031 2.4375 24.3594 Q2.4375 25.5156 2.9141 26.1484 Q3.3906 26.7812 4.25 26.7812 Q5.1094 26.7812 5.5859 26.1484 Q6.0625 25.5156 6.0625 24.3594 Q6.0625 23.2031 5.5859 22.5703 Q5.1094 21.9375 4.25 21.9375 ZM4.25 20.5781 Q6 20.5781 7 21.5859 Q8 22.5938 8 24.3594 Q8 26.125 7 27.1328 Q6 28.1406 4.25 28.1406 Q2.5 28.1406 1.5 27.1328 Q0.5 26.125 0.5 24.3594 Q0.5 22.5938 1.5 21.5859 Q2.5 20.5781 4.25 20.5781 ZM13.4072 24.0156 Q13.1729 23.9062 12.9463 23.8594 Q12.7197 23.8125 12.4854 23.8125 Q11.8135 23.8125 11.4541 24.2422 Q11.0947 24.6719 11.0947 25.4844 L11.0947 28 L9.3447 28 L9.3447 22.5312 L11.0947 22.5312 L11.0947 23.4219 Q11.4229 22.8906 11.8604 22.6484 Q12.2979 22.4062 12.9072 22.4062 Q13.001 22.4062 13.1025 22.4062 Q13.2041 22.4062 13.3916 22.4375 L13.4072 24.0156 ZM17.9951 27.0781 Q17.6357 27.5469 17.1982 27.7734 Q16.7607 28 16.1982 28 Q15.1982 28 14.542 27.2109 Q13.8857 26.4219 13.8857 25.2031 Q13.8857 23.9688 14.542 23.1875 Q15.1982 22.4062 16.1982 22.4062 Q16.7607 22.4062 17.1982 22.6328 Q17.6357 22.8594 17.9951 23.3438 L17.9951 22.5312 L19.7451 22.5312 L19.7451 27.4531 Q19.7451 28.7656 18.917 29.4609 Q18.0889 30.1562 16.5107 30.1562 Q15.9951 30.1562 15.5186 30.0781 Q15.042 30 14.5576 29.8438 L14.5576 28.4844 Q15.0107 28.75 15.4482 28.875 Q15.8857 29 16.3389 29 Q17.1982 29 17.5967 28.625 Q17.9951 28.25 17.9951 27.4531 L17.9951 27.0781 ZM16.8389 23.6719 Q16.292 23.6719 15.9951 24.0703 Q15.6982 24.4688 15.6982 25.2031 Q15.6982 25.9531 15.9873 26.3438 Q16.2764 26.7344 16.8389 26.7344 Q17.3857 26.7344 17.6904 26.3281 Q17.9951 25.9219 17.9951 25.2031 Q17.9951 24.4688 17.6904 24.0703 Q17.3857 23.6719 16.8389 23.6719 ZM23.8877 25.5312 Q23.3408 25.5312 23.0596 25.7188 Q22.7783 25.9062 22.7783 26.2656 Q22.7783 26.6094 23.0049 26.7969 Q23.2314 26.9844 23.6221 26.9844 Q24.1221 26.9844 24.458 26.625 Q24.7939 26.2656 24.7939 25.7344 L24.7939 25.5312 L23.8877 25.5312 ZM26.5596 24.875 L26.5596 28 L24.7939 28 L24.7939 27.1875 Q24.4346 27.6875 23.9971 27.9141 Q23.5596 28.1406 22.9346 28.1406 Q22.0752 28.1406 21.5518 27.6484 Q21.0283 27.1562 21.0283 26.3594 Q21.0283 25.3906 21.6846 24.9453 Q22.3408 24.5 23.7627 24.5 L24.7939 24.5 L24.7939 24.3594 Q24.7939 23.9531 24.4658 23.7578 Q24.1377 23.5625 23.4502 23.5625 Q22.8877 23.5625 22.4033 23.6719 Q21.9189 23.7812 21.4971 24.0156 L21.4971 22.6719 Q22.0596 22.5469 22.6299 22.4766 Q23.2002 22.4062 23.7627 22.4062 Q25.2471 22.4062 25.9033 22.9844 Q26.5596 23.5625 26.5596 24.875 ZM33.6826 24.6719 L33.6826 28 L31.917 28 L31.917 27.4531 L31.917 25.4531 Q31.917 24.75 31.8857 24.4766 Q31.8545 24.2031 31.7764 24.0781 Q31.6826 23.9062 31.5029 23.8125 Q31.3232 23.7188 31.1045 23.7188 Q30.5576 23.7188 30.2451 24.1406 Q29.9326 24.5625 29.9326 25.3125 L29.9326 28 L28.1826 28 L28.1826 22.5312 L29.9326 22.5312 L29.9326 23.3281 Q30.3232 22.8594 30.7686 22.6328 Q31.2139 22.4062 31.7451 22.4062 Q32.6982 22.4062 33.1904 22.9844 Q33.6826 23.5625 33.6826 24.6719 ZM35.3018 22.5312 L37.0518 22.5312 L37.0518 28 L35.3018 28 L35.3018 22.5312 ZM35.3018 20.4062 L37.0518 20.4062 L37.0518 21.8281 L35.3018 21.8281 L35.3018 20.4062 ZM42.9951 22.7031 L42.9951 24.0312 Q42.4326 23.7969 41.9092 23.6797 Q41.3857 23.5625 40.9326 23.5625 Q40.4326 23.5625 40.1904 23.6875 Q39.9482 23.8125 39.9482 24.0625 Q39.9482 24.2812 40.1279 24.3906 Q40.3076 24.5 40.792 24.5625 L41.0889 24.5938 Q42.4326 24.7656 42.9014 25.1562 Q43.3701 25.5469 43.3701 26.3906 Q43.3701 27.2656 42.7217 27.7031 Q42.0732 28.1406 40.792 28.1406 Q40.2607 28.1406 39.6826 28.0547 Q39.1045 27.9688 38.4795 27.7969 L38.4795 26.4688 Q39.0107 26.7188 39.5576 26.8516 Q40.1045 26.9844 40.667 26.9844 Q41.1826 26.9844 41.4404 26.8438 Q41.6982 26.7031 41.6982 26.4219 Q41.6982 26.1875 41.5264 26.0703 Q41.3545 25.9531 40.8232 25.8906 L40.5107 25.8438 Q39.3389 25.7031 38.8701 25.3047 Q38.4014 24.9062 38.4014 24.1094 Q38.4014 23.2344 38.9951 22.8203 Q39.5889 22.4062 40.8232 22.4062 Q41.3076 22.4062 41.8389 22.4766 Q42.3701 22.5469 42.9951 22.7031 ZM49.7441 23.4375 Q50.0723 22.9375 50.5332 22.6719 Q50.9941 22.4062 51.541 22.4062 Q52.4785 22.4062 52.9707 22.9844 Q53.4629 23.5625 53.4629 24.6719 L53.4629 28 L51.7129 28 L51.7129 25.1406 Q51.7129 25.0781 51.7129 25.0156 Q51.7129 24.9531 51.7129 24.8281 Q51.7129 24.2344 51.5488 23.9766 Q51.3848 23.7188 50.9941 23.7188 Q50.4941 23.7188 50.2285 24.125 Q49.9629 24.5312 49.9473 25.3125 L49.9473 28 L48.1816 28 L48.1816 25.1406 Q48.1816 24.2344 48.0254 23.9766 Q47.8691 23.7188 47.4785 23.7188 Q46.9785 23.7188 46.7051 24.1328 Q46.4316 24.5469 46.4316 25.3125 L46.4316 28 L44.666 28 L44.666 22.5312 L46.4316 22.5312 L46.4316 23.3281 Q46.7441 22.875 47.166 22.6406 Q47.5879 22.4062 48.0879 22.4062 Q48.6504 22.4062 49.0879 22.6797 Q49.5254 22.9531 49.7441 23.4375 ZM55.3828 22.5312 L57.1328 22.5312 L57.1328 24.4219 L55.3828 24.4219 L55.3828 22.5312 ZM55.3828 26.1094 L57.1328 26.1094 L57.1328 28 L55.3828 28 L55.3828 26.1094 Z"
         style="clip-path:url(#clipPath2); stroke:none;"
         clip-path="url(#clipPath2)"
         id="path126" />
      <path
         d="M66.9844 20.7031 L67.9688 20.7031 L67.9688 23.7031 L71.5469 23.7031 L71.5469 20.7031 L72.5312 20.7031 L72.5312 28 L71.5469 28 L71.5469 24.5312 L67.9688 24.5312 L67.9688 28 L66.9844 28 L66.9844 20.7031 ZM76.582 23.1562 Q75.8633 23.1562 75.4414 23.7188 Q75.0195 24.2812 75.0195 25.2656 Q75.0195 26.25 75.4336 26.8125 Q75.8477 27.375 76.582 27.375 Q77.3008 27.375 77.7227 26.8125 Q78.1445 26.25 78.1445 25.2656 Q78.1445 24.2969 77.7227 23.7266 Q77.3008 23.1562 76.582 23.1562 ZM76.582 22.4062 Q77.7539 22.4062 78.4258 23.1641 Q79.0977 23.9219 79.0977 25.2656 Q79.0977 26.6094 78.4258 27.375 Q77.7539 28.1406 76.582 28.1406 Q75.4102 28.1406 74.7383 27.375 Q74.0664 26.6094 74.0664 25.2656 Q74.0664 23.9219 74.7383 23.1641 Q75.4102 22.4062 76.582 22.4062 ZM84.8408 23.5781 Q85.1689 22.9688 85.6377 22.6875 Q86.1064 22.4062 86.7471 22.4062 Q87.6064 22.4062 88.0674 23 Q88.5283 23.5938 88.5283 24.7031 L88.5283 28 L87.6221 28 L87.6221 24.7344 Q87.6221 23.9375 87.3486 23.5625 Q87.0752 23.1875 86.4971 23.1875 Q85.7939 23.1875 85.3955 23.6484 Q84.9971 24.1094 84.9971 24.9062 L84.9971 28 L84.0908 28 L84.0908 24.7344 Q84.0908 23.9375 83.8096 23.5625 Q83.5283 23.1875 82.9502 23.1875 Q82.2627 23.1875 81.8564 23.6484 Q81.4502 24.1094 81.4502 24.9062 L81.4502 28 L80.5439 28 L80.5439 22.5312 L81.4502 22.5312 L81.4502 23.375 Q81.7627 22.875 82.1924 22.6406 Q82.6221 22.4062 83.2002 22.4062 Q83.8096 22.4062 84.2236 22.7031 Q84.6377 23 84.8408 23.5781 ZM92.4414 23.1562 Q91.7227 23.1562 91.3008 23.7188 Q90.8789 24.2812 90.8789 25.2656 Q90.8789 26.25 91.293 26.8125 Q91.707 27.375 92.4414 27.375 Q93.1602 27.375 93.582 26.8125 Q94.0039 26.25 94.0039 25.2656 Q94.0039 24.2969 93.582 23.7266 Q93.1602 23.1562 92.4414 23.1562 ZM92.4414 22.4062 Q93.6133 22.4062 94.2852 23.1641 Q94.957 23.9219 94.957 25.2656 Q94.957 26.6094 94.2852 27.375 Q93.6133 28.1406 92.4414 28.1406 Q91.2695 28.1406 90.5977 27.375 Q89.9258 26.6094 89.9258 25.2656 Q89.9258 23.9219 90.5977 23.1641 Q91.2695 22.4062 92.4414 22.4062 ZM103.0977 22.6875 L103.0977 23.5469 Q102.7227 23.3438 102.3164 23.25 Q101.9102 23.1562 101.457 23.1562 Q100.8008 23.1562 100.4648 23.3594 Q100.1289 23.5625 100.1289 23.9688 Q100.1289 24.2812 100.3633 24.4609 Q100.5977 24.6406 101.332 24.7969 L101.6289 24.875 Q102.5977 25.0781 102.9961 25.4531 Q103.3945 25.8281 103.3945 26.4844 Q103.3945 27.25 102.793 27.6953 Q102.1914 28.1406 101.1445 28.1406 Q100.6914 28.1406 100.2148 28.0547 Q99.7383 27.9688 99.2227 27.7969 L99.2227 26.875 Q99.7227 27.125 100.1992 27.2578 Q100.6758 27.3906 101.1602 27.3906 Q101.7852 27.3906 102.1289 27.1719 Q102.4727 26.9531 102.4727 26.5625 Q102.4727 26.1875 102.2305 25.9922 Q101.9883 25.7969 101.1445 25.625 L100.832 25.5469 Q100.0039 25.375 99.6289 25.0078 Q99.2539 24.6406 99.2539 24.0156 Q99.2539 23.2344 99.8008 22.8203 Q100.3477 22.4062 101.3633 22.4062 Q101.8477 22.4062 102.293 22.4766 Q102.7383 22.5469 103.0977 22.6875 ZM107.3076 25.25 Q106.2295 25.25 105.8076 25.5 Q105.3857 25.75 105.3857 26.3438 Q105.3857 26.8281 105.6982 27.1094 Q106.0107 27.3906 106.5576 27.3906 Q107.3076 27.3906 107.7607 26.8594 Q108.2139 26.3281 108.2139 25.4531 L108.2139 25.25 L107.3076 25.25 ZM109.1045 24.875 L109.1045 28 L108.2139 28 L108.2139 27.1719 Q107.9014 27.6719 107.4404 27.9062 Q106.9795 28.1406 106.3232 28.1406 Q105.4795 28.1406 104.9795 27.6719 Q104.4795 27.2031 104.4795 26.4062 Q104.4795 25.4844 105.1045 25.0156 Q105.7295 24.5469 106.9482 24.5469 L108.2139 24.5469 L108.2139 24.4531 Q108.2139 23.8438 107.7998 23.5 Q107.3857 23.1562 106.6514 23.1562 Q106.1826 23.1562 105.7373 23.2734 Q105.292 23.3906 104.8857 23.6094 L104.8857 22.7812 Q105.3857 22.5938 105.8467 22.5 Q106.3076 22.4062 106.7451 22.4062 Q107.9326 22.4062 108.5186 23.0156 Q109.1045 23.625 109.1045 24.875 ZM111.8262 27.1719 L111.8262 30.0781 L110.9199 30.0781 L110.9199 22.5312 L111.8262 22.5312 L111.8262 23.3594 Q112.1074 22.875 112.5371 22.6406 Q112.9668 22.4062 113.5762 22.4062 Q114.5762 22.4062 115.1934 23.1953 Q115.8105 23.9844 115.8105 25.2656 Q115.8105 26.5625 115.1934 27.3516 Q114.5762 28.1406 113.5762 28.1406 Q112.9668 28.1406 112.5371 27.9062 Q112.1074 27.6719 111.8262 27.1719 ZM114.8887 25.2656 Q114.8887 24.2812 114.4746 23.7188 Q114.0605 23.1562 113.3574 23.1562 Q112.6387 23.1562 112.2324 23.7188 Q111.8262 24.2812 111.8262 25.2656 Q111.8262 26.2656 112.2324 26.8281 Q112.6387 27.3906 113.3574 27.3906 Q114.0605 27.3906 114.4746 26.8281 Q114.8887 26.2656 114.8887 25.2656 ZM117.2988 22.5312 L118.2051 22.5312 L118.2051 28 L117.2988 28 L117.2988 22.5312 ZM117.2988 20.4062 L118.2051 20.4062 L118.2051 21.5469 L117.2988 21.5469 L117.2988 20.4062 ZM124.7646 25.0469 L124.7646 25.4844 L120.624 25.4844 Q120.6865 26.4062 121.1865 26.8906 Q121.6865 27.375 122.5771 27.375 Q123.0928 27.375 123.585 27.25 Q124.0771 27.125 124.5459 26.875 L124.5459 27.7188 Q124.0615 27.9219 123.5537 28.0312 Q123.0459 28.1406 122.5303 28.1406 Q121.2178 28.1406 120.4521 27.3828 Q119.6865 26.625 119.6865 25.3125 Q119.6865 23.9688 120.4131 23.1875 Q121.1396 22.4062 122.374 22.4062 Q123.4834 22.4062 124.124 23.1094 Q124.7646 23.8125 124.7646 25.0469 ZM123.8584 24.7812 Q123.8584 24.0469 123.4521 23.6016 Q123.0459 23.1562 122.3896 23.1562 Q121.624 23.1562 121.1787 23.5859 Q120.7334 24.0156 120.6553 24.7812 L123.8584 24.7812 ZM130.7764 24.7031 L130.7764 28 L129.8857 28 L129.8857 24.7344 Q129.8857 23.9531 129.5811 23.5703 Q129.2764 23.1875 128.667 23.1875 Q127.9482 23.1875 127.5264 23.6484 Q127.1045 24.1094 127.1045 24.9062 L127.1045 28 L126.1982 28 L126.1982 22.5312 L127.1045 22.5312 L127.1045 23.375 Q127.4326 22.8906 127.8701 22.6484 Q128.3076 22.4062 128.8701 22.4062 Q129.8076 22.4062 130.292 22.9844 Q130.7764 23.5625 130.7764 24.7031 ZM136.0518 22.6875 L136.0518 23.5469 Q135.6768 23.3438 135.2705 23.25 Q134.8643 23.1562 134.4111 23.1562 Q133.7549 23.1562 133.4189 23.3594 Q133.083 23.5625 133.083 23.9688 Q133.083 24.2812 133.3174 24.4609 Q133.5518 24.6406 134.2861 24.7969 L134.583 24.875 Q135.5518 25.0781 135.9502 25.4531 Q136.3486 25.8281 136.3486 26.4844 Q136.3486 27.25 135.7471 27.6953 Q135.1455 28.1406 134.0986 28.1406 Q133.6455 28.1406 133.1689 28.0547 Q132.6924 27.9688 132.1768 27.7969 L132.1768 26.875 Q132.6768 27.125 133.1533 27.2578 Q133.6299 27.3906 134.1143 27.3906 Q134.7393 27.3906 135.083 27.1719 Q135.4268 26.9531 135.4268 26.5625 Q135.4268 26.1875 135.1846 25.9922 Q134.9424 25.7969 134.0986 25.625 L133.7861 25.5469 Q132.958 25.375 132.583 25.0078 Q132.208 24.6406 132.208 24.0156 Q132.208 23.2344 132.7549 22.8203 Q133.3018 22.4062 134.3174 22.4062 Q134.8018 22.4062 135.2471 22.4766 Q135.6924 22.5469 136.0518 22.6875 Z"
         style="clip-path:url(#clipPath2); stroke:none;"
         clip-path="url(#clipPath2)"
         id="path128" />
    </g>
    <g
       style="fill:navy; text-rendering:geometricPrecision; font-size:8; stroke:navy;"
       id="g134">
      <text
         x="138"
         xml:space="preserve"
         y="16"
         style="clip-path:url(#clipPath4); stroke:none;"
         clip-path="url(#clipPath4)"
         id="text132">1-3</text>
    </g>
    <g
       style="text-rendering:geometricPrecision;"
       id="g140">
      <path
         d="M388.9073 230.2555 L388.0468 293.273"
         style="fill:none; clip-path:url(#clipPath5);"
         clip-path="url(#clipPath5)"
         id="path136" />
      <path
         d="M393.2463 293.3441 L387.8871 304.972 L382.8473 293.2021 Z"
         style="clip-path:url(#clipPath5); stroke:none;"
         clip-path="url(#clipPath5)"
         id="path138" />
    </g>
    <g
       style="text-rendering:geometricPrecision;"
       id="g146">
      <path
         d="M349.3454 125.2381 L306.6528 125.2381"
         style="fill:none; clip-path:url(#clipPath6);"
         clip-path="url(#clipPath6)"
         id="path142" />
      <path
         d="M306.6528 130.4381 L294.9528 125.2381 L306.6528 120.0381 Z"
         style="clip-path:url(#clipPath6); stroke:none;"
         clip-path="url(#clipPath6)"
         id="path144" />
    </g>
    <g
       style="text-rendering:geometricPrecision;"
       id="g154">
      <path
         d="M524.924 371.2722 L474.5097 371.2962"
         style="fill:none; clip-path:url(#clipPath7);"
         clip-path="url(#clipPath7)"
         id="path148" />
      <path
         d="M464.1097 371.3011 C464.1083 368.4293 466.4354 366.1 469.3073 366.0987 C472.1791 366.0973 474.5084 368.4243 474.5097 371.2962 C474.5111 374.1681 472.1841 376.4973 469.3122 376.4987 C466.4403 376.5 464.1111 374.173 464.1097 371.3011 Z"
         style="fill:white; clip-path:url(#clipPath7); stroke:none;"
         clip-path="url(#clipPath7)"
         id="path150" />
      <path
         d="M464.1097 371.3011 C464.1083 368.4293 466.4354 366.1 469.3073 366.0987 C472.1791 366.0973 474.5084 368.4243 474.5097 371.2962 C474.5111 374.1681 472.1841 376.4973 469.3122 376.4987 C466.4403 376.5 464.1111 374.173 464.1097 371.3011 Z"
         style="fill:none; clip-path:url(#clipPath7);"
         clip-path="url(#clipPath7)"
         id="path152" />
    </g>
    <g
       style="text-rendering:geometricPrecision;"
       id="g162">
      <path
         d="M495.924 84.2722 L495.8199 115.343"
         style="fill:none; clip-path:url(#clipPath8);"
         clip-path="url(#clipPath8)"
         id="path156" />
      <path
         d="M495.7851 125.7429 C492.9132 125.7333 490.5929 123.3974 490.6025 120.5256 C490.6121 117.6537 492.948 115.3334 495.8199 115.343 C498.6917 115.3526 501.0121 117.6885 501.0024 120.5604 C500.9928 123.4323 498.6569 125.7526 495.7851 125.7429 Z"
         style="fill:white; clip-path:url(#clipPath8); stroke:none;"
         clip-path="url(#clipPath8)"
         id="path158" />
      <path
         d="M495.7851 125.7429 C492.9132 125.7333 490.5929 123.3974 490.6025 120.5256 C490.6121 117.6537 492.948 115.3334 495.8199 115.343 C498.6917 115.3526 501.0121 117.6885 501.0024 120.5604 C500.9928 123.4323 498.6569 125.7526 495.7851 125.7429 Z"
         style="fill:none; clip-path:url(#clipPath8);"
         clip-path="url(#clipPath8)"
         id="path160" />
    </g>
    <g
       style="stroke-dasharray:4,4; text-rendering:geometricPrecision;"
       id="g168">
      <path
         d="M590.5025 135.4293 L590.5025 203.2722"
         style="fill:none; clip-path:url(#clipPath9);"
         clip-path="url(#clipPath9)"
         id="path164" />
      <path
         d="M590.5025 203.2722 L595.7025 191.5722 L585.3025 191.5722 Z"
         style="stroke-dasharray:none; clip-path:url(#clipPath9); fill-rule:evenodd; stroke:none;"
         clip-path="url(#clipPath9)"
         id="path166" />
    </g>
    <g
       style="text-rendering:geometricPrecision;"
       id="g174">
      <path
         d="M387.924 322.2722 C387.924 322.2722 389.461 327.4574 394.8406 332.2722 C394.8406 332.2722 400.2202 337.087 414.8221 339.6796 C414.8221 339.6796 429.424 342.2722 444.0258 350.6982 C444.0258 350.6982 458.6277 359.1241 464.0073 374.7722 C469.3869 390.4203 470.1065 398.3094 470.1065 398.3094"
         style="fill:none; clip-path:url(#clipPath10);"
         clip-path="url(#clipPath10)"
         id="path170" />
      <path
         d="M475.285 397.8371 L471.1692 409.9611 L464.9279 398.7817 Z"
         style="clip-path:url(#clipPath10); stroke:none;"
         clip-path="url(#clipPath10)"
         id="path172" />
    </g>
    <g
       style="text-rendering:geometricPrecision;"
       id="g180">
      <path
         d="M387.924 322.2722 C387.924 322.2722 386.3499 327.4574 380.8406 332.2722 C380.8406 332.2722 375.3314 337.087 360.3777 339.6796 C360.3777 339.6796 345.424 342.2722 330.4702 350.6982 C330.4702 350.6982 315.5165 359.1241 310.0073 374.7722 C304.498 390.4203 303.761 398.3112 303.761 398.3112"
         style="fill:none; clip-path:url(#clipPath11);"
         clip-path="url(#clipPath11)"
         id="path176" />
      <path
         d="M308.9384 398.7948 L302.6729 409.9605 L298.5835 397.8276 Z"
         style="clip-path:url(#clipPath11); stroke:none;"
         clip-path="url(#clipPath11)"
         id="path178" />
    </g>
    <g
       style="text-rendering:geometricPrecision;"
       id="g186">
      <path
         d="M550.5025 125.4293 L438.3454 125.2523"
         style="fill:none; clip-path:url(#clipPath12);"
         clip-path="url(#clipPath12)"
         id="path182" />
      <path
         d="M438.3372 130.4523 L426.6454 125.2338 L438.3536 120.0523 Z"
         style="clip-path:url(#clipPath12); stroke:none;"
         clip-path="url(#clipPath12)"
         id="path184" />
    </g>
    <g
       style="text-rendering:geometricPrecision;"
       id="g194">
      <path
         d="M436.924 258.2722 L398.5126 258.899"
         style="fill:none; clip-path:url(#clipPath13);"
         clip-path="url(#clipPath13)"
         id="path188" />
      <path
         d="M388.114 259.0687 C388.0671 256.1972 390.357 253.8314 393.2285 253.7846 C396.1 253.7377 398.4658 256.0276 398.5126 258.899 C398.5595 261.7705 396.2697 264.1364 393.3982 264.1832 C390.5267 264.2301 388.1609 261.9402 388.114 259.0687 Z"
         style="fill:white; clip-path:url(#clipPath13); stroke:none;"
         clip-path="url(#clipPath13)"
         id="path190" />
      <path
         d="M388.114 259.0687 C388.0671 256.1972 390.357 253.8314 393.2285 253.7846 C396.1 253.7377 398.4658 256.0276 398.5126 258.899 C398.5595 261.7705 396.2697 264.1364 393.3982 264.1832 C390.5267 264.2301 388.1609 261.9402 388.114 259.0687 Z"
         style="fill:none; clip-path:url(#clipPath13);"
         clip-path="url(#clipPath13)"
         id="path192" />
    </g>
    <g
       style="text-rendering:geometricPrecision;"
       id="g200">
      <path
         d="M302.924 427.2722 C302.924 427.2722 304.498 431.1611 310.0073 434.7722 C310.0073 434.7722 315.5165 438.3833 330.4702 440.3278 C330.4702 440.3278 345.424 442.2722 360.3777 449.6611 C360.3777 449.6611 375.3314 457.05 380.8406 470.7722 C386.3499 484.4944 386.9707 490.3228 386.9707 490.3228"
         style="fill:none; clip-path:url(#clipPath14);"
         clip-path="url(#clipPath14)"
         id="path196" />
      <path
         d="M392.1414 489.7721 L388.2099 501.957 L381.8 490.8736 Z"
         style="clip-path:url(#clipPath14); stroke:none;"
         clip-path="url(#clipPath14)"
         id="path198" />
    </g>
    <g
       style="text-rendering:geometricPrecision;"
       id="g206">
      <path
         d="M389.3454 141.4247 L388.9646 201.2557"
         style="fill:none; clip-path:url(#clipPath15);"
         clip-path="url(#clipPath15)"
         id="path202" />
      <path
         d="M394.1645 201.2888 L388.8901 212.9555 L383.7647 201.2226 Z"
         style="clip-path:url(#clipPath15); stroke:none;"
         clip-path="url(#clipPath15)"
         id="path204" />
    </g>
    <g
       style="text-rendering:geometricPrecision;"
       id="g212">
      <path
         d="M151.3859 125.2381 L130.9083 125.2381"
         style="fill:none; clip-path:url(#clipPath16);"
         clip-path="url(#clipPath16)"
         id="path208" />
      <path
         d="M130.9083 130.4381 L119.2083 125.2381 L130.9083 120.0381 Z"
         style="clip-path:url(#clipPath16); stroke:none;"
         clip-path="url(#clipPath16)"
         id="path210" />
    </g>
    <g
       style="text-rendering:geometricPrecision;"
       id="g218">
      <path
         d="M349.3454 133.3314 L304.2026 175.8743"
         style="fill:none; clip-path:url(#clipPath17);"
         clip-path="url(#clipPath17)"
         id="path214" />
      <path
         d="M307.769 179.6587 L295.6879 183.8987 L300.6362 172.09 Z"
         style="clip-path:url(#clipPath17); stroke:none;"
         clip-path="url(#clipPath17)"
         id="path216" />
    </g>
    <g
       style="text-rendering:geometricPrecision;"
       id="g224">
      <path
         d="M470.924 427.2722 C470.924 427.2722 469.3869 431.1611 464.0073 434.7722 C464.0073 434.7722 458.6277 438.3833 444.0258 440.3278 C444.0258 440.3278 429.424 442.2722 414.8221 449.6611 C414.8221 449.6611 400.2202 457.05 394.8406 470.7722 C389.461 484.4944 388.855 490.3205 388.855 490.3205"
         style="fill:none; clip-path:url(#clipPath18);"
         clip-path="url(#clipPath18)"
         id="path220" />
      <path
         d="M394.0271 490.8585 L387.6446 501.9577 L383.6829 489.7826 Z"
         style="clip-path:url(#clipPath18); stroke:none;"
         clip-path="url(#clipPath18)"
         id="path222" />
    </g>
    <g
       style="text-rendering:geometricPrecision;"
       id="g232">
      <path
         d="M432.924 172.2722 L399.1312 173.5614"
         style="fill:none; clip-path:url(#clipPath19);"
         clip-path="url(#clipPath19)"
         id="path226" />
      <path
         d="M388.7387 173.9579 C388.6292 171.0881 390.8669 168.6729 393.7367 168.5634 C396.6065 168.454 399.0217 170.6916 399.1312 173.5614 C399.2406 176.4312 397.003 178.8464 394.1332 178.9559 C391.2634 179.0654 388.8482 176.8277 388.7387 173.9579 Z"
         style="fill:white; clip-path:url(#clipPath19); stroke:none;"
         clip-path="url(#clipPath19)"
         id="path228" />
      <path
         d="M388.7387 173.9579 C388.6292 171.0881 390.8669 168.6729 393.7367 168.5634 C396.6065 168.454 399.0217 170.6916 399.1312 173.5614 C399.2406 176.4312 397.003 178.8464 394.1332 178.9559 C391.2634 179.0654 388.8482 176.8277 388.7387 173.9579 Z"
         style="fill:none; clip-path:url(#clipPath19);"
         clip-path="url(#clipPath19)"
         id="path230" />
    </g>
    <g
       style="stroke-dasharray:4,4; text-rendering:geometricPrecision;"
       id="g238">
      <path
         d="M467.924 509.2722 L595.924 509.2722"
         style="fill:none; clip-path:url(#clipPath20);"
         clip-path="url(#clipPath20)"
         id="path234" />
      <path
         d="M595.924 509.2722 L584.2239 504.0722 L584.2239 514.4722 Z"
         style="stroke-dasharray:none; clip-path:url(#clipPath20); fill-rule:evenodd; stroke:none;"
         clip-path="url(#clipPath20)"
         id="path236" />
    </g>
    <g
       style="fill:white; text-rendering:geometricPrecision; stroke:white;"
       id="g246">
      <path
         d="M307.924 499.2722 L467.924 499.2722 L467.924 519.2722 L307.924 519.2722 L307.924 499.2722 Z"
         style="clip-path:url(#clipPath21); stroke:none;"
         clip-path="url(#clipPath21)"
         id="path240" />
      <path
         d="M307.924 499.2722 L467.924 499.2722 L467.924 519.2722 L307.924 519.2722 L307.924 499.2722 Z"
         style="fill:none; clip-path:url(#clipPath21); stroke:blue;"
         clip-path="url(#clipPath21)"
         id="path242" />
      <text
         x="310"
         y="513"
         style="font-size:10; clip-path:url(#clipPath21); fill:blue; stroke:none;"
         xml:space="preserve"
         clip-path="url(#clipPath21)"
         id="text244">D-Glyceraldehyde 3-phosphate</text>
    </g>
    <g
       style="fill:white; text-rendering:geometricPrecision; stroke:white;"
       id="g254">
      <path
         d="M455.924 64.2722 L535.924 64.2722 L535.924 84.2722 L455.924 84.2722 L455.924 64.2722 Z"
         style="clip-path:url(#clipPath22); stroke:none;"
         clip-path="url(#clipPath22)"
         id="path248" />
      <path
         d="M455.924 64.2722 L535.924 64.2722 L535.924 84.2722 L455.924 84.2722 L455.924 64.2722 Z"
         style="fill:none; clip-path:url(#clipPath22); stroke:black;"
         clip-path="url(#clipPath22)"
         id="path250" />
      <text
         x="483"
         y="78"
         style="font-size:10; clip-path:url(#clipPath22); fill:black; stroke:none;"
         xml:space="preserve"
         clip-path="url(#clipPath22)"
         id="text252">ALR2</text>
    </g>
    <g
       style="fill:white; text-rendering:geometricPrecision; stroke:white;"
       id="g262">
      <path
         d="M348.9073 210.2555 L428.9073 210.2555 L428.9073 230.2555 L348.9073 230.2555 L348.9073 210.2555 Z"
         style="clip-path:url(#clipPath23); stroke:none;"
         clip-path="url(#clipPath23)"
         id="path256" />
      <path
         d="M348.9073 210.2555 L428.9073 210.2555 L428.9073 230.2555 L348.9073 230.2555 L348.9073 210.2555 Z"
         style="fill:none; clip-path:url(#clipPath23); stroke:blue;"
         clip-path="url(#clipPath23)"
         id="path258" />
      <text
         x="361"
         y="224"
         style="font-size:10; clip-path:url(#clipPath23); fill:blue; stroke:none;"
         xml:space="preserve"
         clip-path="url(#clipPath23)"
         id="text260">D-Fructose</text>
    </g>
    <g
       style="fill:white; text-rendering:geometricPrecision; stroke:white;"
       id="g270">
      <path
         d="M223.924 407.2722 L381.924 407.2722 L381.924 427.2722 L223.924 427.2722 L223.924 407.2722 Z"
         style="clip-path:url(#clipPath24); stroke:none;"
         clip-path="url(#clipPath24)"
         id="path264" />
      <path
         d="M223.924 407.2722 L381.924 407.2722 L381.924 427.2722 L223.924 427.2722 L223.924 407.2722 Z"
         style="fill:none; clip-path:url(#clipPath24); stroke:blue;"
         clip-path="url(#clipPath24)"
         id="path266" />
      <text
         x="229"
         y="421"
         style="font-size:10; clip-path:url(#clipPath24); fill:blue; stroke:none;"
         xml:space="preserve"
         clip-path="url(#clipPath24)"
         id="text268">Dihydroxyacetone phosphate</text>
    </g>
    <g
       style="fill:white; text-rendering:geometricPrecision; stroke:white;"
       id="g278">
      <path
         d="M432.924 162.2722 L512.924 162.2722 L512.924 182.2722 L432.924 182.2722 L432.924 162.2722 Z"
         style="clip-path:url(#clipPath25); stroke:none;"
         clip-path="url(#clipPath25)"
         id="path272" />
      <path
         d="M432.924 162.2722 L512.924 162.2722 L512.924 182.2722 L432.924 182.2722 L432.924 162.2722 Z"
         style="fill:none; clip-path:url(#clipPath25); stroke:black;"
         clip-path="url(#clipPath25)"
         id="path274" />
      <text
         x="458"
         y="176"
         style="font-size:10; clip-path:url(#clipPath25); fill:black; stroke:none;"
         xml:space="preserve"
         clip-path="url(#clipPath25)"
         id="text276">SORD</text>
    </g>
    <g
       style="fill:white; text-rendering:geometricPrecision; stroke:white;"
       id="g286">
      <path
         d="M349.3454 109.0515 L429.3454 109.0515 L429.3454 141.4247 L349.3454 141.4247 L349.3454 109.0515 Z"
         style="clip-path:url(#clipPath26); stroke:none;"
         clip-path="url(#clipPath26)"
         id="path280" />
      <path
         d="M349.3454 109.0515 L429.3454 109.0515 L429.3454 141.4247 L349.3454 141.4247 L349.3454 109.0515 Z"
         style="fill:none; clip-path:url(#clipPath26); stroke:blue;"
         clip-path="url(#clipPath26)"
         id="path282" />
      <text
         x="365"
         y="129"
         style="font-size:10; clip-path:url(#clipPath26); fill:blue; stroke:none;"
         xml:space="preserve"
         clip-path="url(#clipPath26)"
         id="text284">D-Sorbitol</text>
    </g>
    <g
       style="fill:white; text-rendering:geometricPrecision; stroke:white;"
       id="g294">
      <path
         d="M550.5025 213.2722 L550.5025 213.2722 C550.5025 218.7951 554.9796 223.2722 560.5025 223.2722 L620.5025 223.2722 C626.0253 223.2722 630.5025 218.7951 630.5025 213.2722 L630.5025 213.2722 C630.5025 207.7494 626.0253 203.2722 620.5025 203.2722 L560.5025 203.2722 C554.9796 203.2722 550.5025 207.7494 550.5025 213.2722 Z"
         style="clip-path:url(#clipPath27); stroke:none;"
         clip-path="url(#clipPath27)"
         id="path288" />
      <path
         d="M550.5025 213.2722 L550.5025 213.2722 C550.5025 218.7951 554.9796 223.2722 560.5025 223.2722 L620.5025 223.2722 C626.0253 223.2722 630.5025 218.7951 630.5025 213.2722 L630.5025 213.2722 C630.5025 207.7494 626.0253 203.2722 620.5025 203.2722 L560.5025 203.2722 C554.9796 203.2722 550.5025 207.7494 550.5025 213.2722 Z"
         style="fill:none; clip-path:url(#clipPath27); stroke:rgb(20,150,30);"
         clip-path="url(#clipPath27)"
         id="path290" />
      <text
         x="557"
         y="218"
         style="clip-path:url(#clipPath27); fill:rgb(20,150,30); stroke:none; font-weight:bold;"
         xml:space="preserve"
         clip-path="url(#clipPath27)"
         id="text292">Glycolysis</text>
    </g>
    <g
       style="fill:white; text-rendering:geometricPrecision; stroke:white;"
       id="g302">
      <path
         d="M524.924 361.2722 L604.924 361.2722 L604.924 381.2722 L524.924 381.2722 L524.924 361.2722 Z"
         style="clip-path:url(#clipPath28); stroke:none;"
         clip-path="url(#clipPath28)"
         id="path296" />
      <path
         d="M524.924 361.2722 L604.924 361.2722 L604.924 381.2722 L524.924 381.2722 L524.924 361.2722 Z"
         style="fill:none; clip-path:url(#clipPath28); stroke:black;"
         clip-path="url(#clipPath28)"
         id="path298" />
      <text
         x="547"
         y="375"
         style="font-size:10; clip-path:url(#clipPath28); fill:black; stroke:none;"
         xml:space="preserve"
         clip-path="url(#clipPath28)"
         id="text300">ALDOB</text>
    </g>
    <g
       style="fill:white; text-rendering:geometricPrecision; stroke:white;"
       id="g310">
      <path
         d="M595.924 509.2722 L595.924 509.2722 C595.924 514.795 600.4011 519.2722 605.924 519.2722 L665.924 519.2722 C671.4468 519.2722 675.924 514.795 675.924 509.2722 L675.924 509.2722 C675.924 503.7494 671.4468 499.2722 665.924 499.2722 L605.924 499.2722 C600.4011 499.2722 595.924 503.7494 595.924 509.2722 Z"
         style="clip-path:url(#clipPath29); stroke:none;"
         clip-path="url(#clipPath29)"
         id="path304" />
      <path
         d="M595.924 509.2722 L595.924 509.2722 C595.924 514.795 600.4011 519.2722 605.924 519.2722 L665.924 519.2722 C671.4468 519.2722 675.924 514.795 675.924 509.2722 L675.924 509.2722 C675.924 503.7494 671.4468 499.2722 665.924 499.2722 L605.924 499.2722 C600.4011 499.2722 595.924 503.7494 595.924 509.2722 Z"
         style="fill:none; clip-path:url(#clipPath29); stroke:rgb(20,150,30);"
         clip-path="url(#clipPath29)"
         id="path306" />
      <text
         x="602"
         y="514"
         style="clip-path:url(#clipPath29); fill:rgb(20,150,30); stroke:none; font-weight:bold;"
         xml:space="preserve"
         clip-path="url(#clipPath29)"
         id="text308">Glycolysis</text>
    </g>
    <g
       style="fill:white; text-rendering:geometricPrecision; stroke:white;"
       id="g318">
      <path
         d="M151.3859 55.0195 L297.6528 55.0195 L297.6528 80.0195 L151.3859 80.0195 L151.3859 55.0195 Z"
         style="clip-path:url(#clipPath30); stroke:none;"
         clip-path="url(#clipPath30)"
         id="path312" />
      <path
         d="M151.3859 55.0195 L297.6528 55.0195 L297.6528 80.0195 L151.3859 80.0195 L151.3859 55.0195 Z"
         style="fill:none; clip-path:url(#clipPath30); stroke:blue;"
         clip-path="url(#clipPath30)"
         id="path314" />
      <text
         x="166"
         y="72"
         style="fill:blue; clip-path:url(#clipPath30); stroke:none;"
         xml:space="preserve"
         clip-path="url(#clipPath30)"
         id="text316">1,5-anhydrosorbitol</text>
    </g>
    <g
       style="fill:white; text-rendering:geometricPrecision; stroke:white;"
       id="g326">
      <path
         d="M430.924 407.2722 L510.924 407.2722 L510.924 427.2722 L430.924 427.2722 L430.924 407.2722 Z"
         style="clip-path:url(#clipPath31); stroke:none;"
         clip-path="url(#clipPath31)"
         id="path320" />
      <path
         d="M430.924 407.2722 L510.924 407.2722 L510.924 427.2722 L430.924 427.2722 L430.924 407.2722 Z"
         style="fill:none; clip-path:url(#clipPath31); stroke:blue;"
         clip-path="url(#clipPath31)"
         id="path322" />
      <text
         x="431"
         y="421"
         style="font-size:10; clip-path:url(#clipPath31); fill:blue; stroke:none;"
         xml:space="preserve"
         clip-path="url(#clipPath31)"
         id="text324">Glyceraldehyde</text>
    </g>
    <g
       style="fill:white; text-rendering:geometricPrecision; stroke:white;"
       id="g334">
      <path
         d="M436.924 248.2722 L516.924 248.2722 L516.924 268.2722 L436.924 268.2722 L436.924 248.2722 Z"
         style="clip-path:url(#clipPath32); stroke:none;"
         clip-path="url(#clipPath32)"
         id="path328" />
      <path
         d="M436.924 248.2722 L516.924 248.2722 L516.924 268.2722 L436.924 268.2722 L436.924 248.2722 Z"
         style="fill:none; clip-path:url(#clipPath32); stroke:black;"
         clip-path="url(#clipPath32)"
         id="path330" />
      <text
         x="444"
         y="262"
         style="font-size:10; clip-path:url(#clipPath32); fill:black; stroke:none;"
         xml:space="preserve"
         clip-path="url(#clipPath32)"
         id="text332">Fructokinase</text>
    </g>
    <g
       style="fill:white; text-rendering:geometricPrecision; stroke:white;"
       id="g342">
      <path
         d="M550.5025 115.4293 L630.5025 115.4293 L630.5025 135.4293 L550.5025 135.4293 L550.5025 115.4293 Z"
         style="clip-path:url(#clipPath33); stroke:none;"
         clip-path="url(#clipPath33)"
         id="path336" />
      <path
         d="M550.5025 115.4293 L630.5025 115.4293 L630.5025 135.4293 L550.5025 135.4293 L550.5025 115.4293 Z"
         style="fill:none; clip-path:url(#clipPath33); stroke:blue;"
         clip-path="url(#clipPath33)"
         id="path338" />
      <text
         x="565"
         y="129"
         style="font-size:10; clip-path:url(#clipPath33); fill:blue; stroke:none;"
         xml:space="preserve"
         clip-path="url(#clipPath33)"
         id="text340">D-Glucose</text>
    </g>
    <g
       style="fill:white; text-rendering:geometricPrecision; stroke:white;"
       id="g350">
      <path
         d="M331.924 302.2722 L443.924 302.2722 L443.924 322.2722 L331.924 322.2722 L331.924 302.2722 Z"
         style="clip-path:url(#clipPath34); stroke:none;"
         clip-path="url(#clipPath34)"
         id="path344" />
      <path
         d="M331.924 302.2722 L443.924 302.2722 L443.924 322.2722 L331.924 322.2722 L331.924 302.2722 Z"
         style="fill:none; clip-path:url(#clipPath34); stroke:blue;"
         clip-path="url(#clipPath34)"
         id="path346" />
      <text
         x="333"
         y="316"
         style="font-size:10; clip-path:url(#clipPath34); fill:blue; stroke:none;"
         xml:space="preserve"
         clip-path="url(#clipPath34)"
         id="text348">Fructose 1-phosphate</text>
    </g>
    <g
       style="fill:white; text-rendering:geometricPrecision; stroke:white;"
       id="g358">
      <path
         d="M151.3859 112.7381 L297.6528 112.7381 L297.6528 137.7381 L151.3859 137.7381 L151.3859 112.7381 Z"
         style="clip-path:url(#clipPath35); stroke:none;"
         clip-path="url(#clipPath35)"
         id="path352" />
      <path
         d="M151.3859 112.7381 L297.6528 112.7381 L297.6528 137.7381 L151.3859 137.7381 L151.3859 112.7381 Z"
         style="fill:none; clip-path:url(#clipPath35); stroke:blue;"
         clip-path="url(#clipPath35)"
         id="path354" />
      <text
         x="166"
         y="129"
         style="fill:blue; clip-path:url(#clipPath35); stroke:none;"
         xml:space="preserve"
         clip-path="url(#clipPath35)"
         id="text356">1,4-anhydrosorbitol</text>
    </g>
    <g
       style="fill:white; text-rendering:geometricPrecision; stroke:white;"
       id="g366">
      <path
         d="M151.3859 169.5469 L297.6528 169.5469 L297.6528 194.5469 L151.3859 194.5469 L151.3859 169.5469 Z"
         style="clip-path:url(#clipPath36); stroke:none;"
         clip-path="url(#clipPath36)"
         id="path360" />
      <path
         d="M151.3859 169.5469 L297.6528 169.5469 L297.6528 194.5469 L151.3859 194.5469 L151.3859 169.5469 Z"
         style="fill:none; clip-path:url(#clipPath36); stroke:blue;"
         clip-path="url(#clipPath36)"
         id="path362" />
      <text
         x="149"
         y="186"
         style="fill:blue; clip-path:url(#clipPath36); stroke:none;"
         xml:space="preserve"
         clip-path="url(#clipPath36)"
         id="text364">1,4,3,6-dianhydrosorbitol</text>
    </g>
    <g
       style="fill:white; text-rendering:geometricPrecision; stroke:white;"
       id="g374">
      <path
         d="M31.9083 112.7381 L121.9083 112.7381 L121.9083 137.7381 L31.9083 137.7381 L31.9083 112.7381 Z"
         style="clip-path:url(#clipPath37); stroke:none;"
         clip-path="url(#clipPath37)"
         id="path368" />
      <path
         d="M31.9083 112.7381 L121.9083 112.7381 L121.9083 137.7381 L31.9083 137.7381 L31.9083 112.7381 Z"
         style="fill:none; clip-path:url(#clipPath37); stroke:blue;"
         clip-path="url(#clipPath37)"
         id="path370" />
      <text
         x="49"
         y="129"
         style="fill:blue; clip-path:url(#clipPath37); stroke:none;"
         xml:space="preserve"
         clip-path="url(#clipPath37)"
         id="text372">Isosorbid</text>
    </g>
    <g
       style="text-rendering:geometricPrecision;"
       id="g380">
      <path
         d="M349.3454 117.1448 L304.1453 73.7524"
         style="fill:none; clip-path:url(#clipPath38);"
         clip-path="url(#clipPath38)"
         id="path376" />
      <path
         d="M300.5441 77.5036 L295.7051 65.6497 L307.7465 70.0012 Z"
         style="clip-path:url(#clipPath38); stroke:none;"
         clip-path="url(#clipPath38)"
         id="path378" />
    </g>
  </g>
</svg>
