<?xml version="1.0" encoding="UTF-8" standalone="no"?>
<svg
   style="fill-opacity:1; color-rendering:auto; color-interpolation:auto; stroke:black; text-rendering:auto; stroke-linecap:square; stroke-miterlimit:10; stroke-opacity:1; shape-rendering:auto; fill:black; stroke-dasharray:none; font-weight:normal; stroke-width:1; font-family:'Dialog'; font-style:normal; stroke-linejoin:miter; font-size:12; stroke-dashoffset:0; image-rendering:auto;"
   width="1183"
   height="596"
   version="1.1"
   id="svg484"
   xmlns="http://www.w3.org/2000/svg"
   xmlns:svg="http://www.w3.org/2000/svg">
  <!--Generated by the Batik Graphics2D SVG Generator-->
  <defs
     id="genericDefs" />
  <g
     id="g482">
    <defs
       id="defs1">
      <clipPath
         clipPathUnits="userSpaceOnUse"
         id="clipPath1">
        <path
           d="M0 0 L1198 0 L1198 611 L0 611 L0 0 Z"
           id="path3" />
      </clipPath>
      <clipPath
         clipPathUnits="userSpaceOnUse"
         id="clipPath2">
        <path
           d="M0 0 L0 200 L200 200 L200 0 Z"
           id="path6" />
      </clipPath>
      <clipPath
         clipPathUnits="userSpaceOnUse"
         id="clipPath3">
        <path
           d="M238 15 L238 36 L249 36 L249 15 Z"
           id="path9" />
      </clipPath>
      <clipPath
         clipPathUnits="userSpaceOnUse"
         id="clipPath4">
        <path
           d="M237.4551 2.918 L248.5449 2.918 L248.5449 18.2305 L237.4551 18.2305 L237.4551 2.918 Z"
           id="path12" />
      </clipPath>
      <clipPath
         clipPathUnits="userSpaceOnUse"
         id="clipPath5">
        <path
           d="M221.1741 364.0529 L221.1741 424.218 L305.7064 424.218 L305.7064 364.0529 Z"
           id="path15" />
      </clipPath>
      <clipPath
         clipPathUnits="userSpaceOnUse"
         id="clipPath6">
        <path
           d="M628.0309 221.6667 L628.0309 257.0978 L639.9698 257.0978 L639.9698 221.6667 Z"
           id="path18" />
      </clipPath>
      <clipPath
         clipPathUnits="userSpaceOnUse"
         id="clipPath7">
        <path
           d="M627.124 393.6618 L627.124 500.5037 L639.0623 500.5037 L639.0623 393.6618 Z"
           id="path21" />
      </clipPath>
      <clipPath
         clipPathUnits="userSpaceOnUse"
         id="clipPath8">
        <path
           d="M628.3259 59.9849 L628.3259 113.1793 L640.259 113.1793 L640.259 59.9849 Z"
           id="path24" />
      </clipPath>
      <clipPath
         clipPathUnits="userSpaceOnUse"
         id="clipPath9">
        <path
           d="M192.1396 284.75 L192.1396 340.9811 L206.6027 340.9811 L206.6027 284.75 Z"
           id="path27" />
      </clipPath>
      <clipPath
         clipPathUnits="userSpaceOnUse"
         id="clipPath10">
        <path
           d="M678.5004 121.25 L678.5004 186.9311 L1002.8199 186.9311 L1002.8199 121.25 Z"
           id="path30" />
      </clipPath>
      <clipPath
         clipPathUnits="userSpaceOnUse"
         id="clipPath11">
        <path
           d="M249.5712 127.5 L249.5712 189.6 L589.5004 189.6 L589.5004 127.5 Z"
           id="path33" />
      </clipPath>
      <clipPath
         clipPathUnits="userSpaceOnUse"
         id="clipPath12">
        <path
           d="M192.1396 198.25 L192.1396 261.4811 L206.6027 261.4811 L206.6027 198.25 Z"
           id="path36" />
      </clipPath>
      <clipPath
         clipPathUnits="userSpaceOnUse"
         id="clipPath13">
        <path
           d="M628.0309 336.3333 L628.0309 373.0978 L639.9698 373.0978 L639.9698 336.3333 Z"
           id="path39" />
      </clipPath>
      <clipPath
         clipPathUnits="userSpaceOnUse"
         id="clipPath14">
        <path
           d="M94.8712 446.4436 L94.8712 519.9727 L195.8 519.9727 L195.8 446.4436 Z"
           id="path42" />
      </clipPath>
      <clipPath
         clipPathUnits="userSpaceOnUse"
         id="clipPath15">
        <path
           d="M628.0309 133.75 L628.0309 201.0978 L639.9698 201.0978 L639.9698 133.75 Z"
           id="path45" />
      </clipPath>
      <clipPath
         clipPathUnits="userSpaceOnUse"
         id="clipPath16">
        <path
           d="M403.5 503.1034 L403.5 515.0422 L591.9315 515.0422 L591.9315 503.1034 Z"
           id="path48" />
      </clipPath>
      <clipPath
         clipPathUnits="userSpaceOnUse"
         id="clipPath17">
        <path
           d="M291.6 446.4436 L291.6 489.6227 L312.1 489.6227 L312.1 446.4436 Z"
           id="path51" />
      </clipPath>
      <clipPath
         clipPathUnits="userSpaceOnUse"
         id="clipPath18">
        <path
           d="M990.881 214.5 L990.881 320.9311 L1002.8199 320.9311 L1002.8199 214.5 Z"
           id="path54" />
      </clipPath>
      <clipPath
         clipPathUnits="userSpaceOnUse"
         id="clipPath19">
        <path
           d="M989.944 344.9967 L989.944 500.7538 L1001.8825 500.7538 L1001.8825 344.9967 Z"
           id="path57" />
      </clipPath>
      <clipPath
         clipPathUnits="userSpaceOnUse"
         id="clipPath20">
        <path
           d="M627.7615 521.0587 L627.7615 560.4295 L639.6954 560.4295 L639.6954 521.0587 Z"
           id="path60" />
      </clipPath>
      <clipPath
         clipPathUnits="userSpaceOnUse"
         id="clipPath21">
        <path
           d="M216.6856 38.4 L216.6856 86.5833 L559.8 86.5833 L559.8 38.4 Z"
           id="path63" />
      </clipPath>
      <clipPath
         clipPathUnits="userSpaceOnUse"
         id="clipPath22">
        <path
           d="M302 522.8228 L302 574.9694 L592.9315 574.9694 L592.9315 522.8228 Z"
           id="path66" />
      </clipPath>
      <clipPath
         clipPathUnits="userSpaceOnUse"
         id="clipPath23">
        <path
           d="M216.6856 91.8333 L216.6856 132.65 L583.8004 132.65 L583.8004 91.8333 Z"
           id="path69" />
      </clipPath>
      <clipPath
         clipPathUnits="userSpaceOnUse"
         id="clipPath24">
        <path
           d="M92.1533 364.0535 L92.1533 424.2018 L177.5676 424.2018 L177.5676 364.0535 Z"
           id="path72" />
      </clipPath>
      <clipPath
         clipPathUnits="userSpaceOnUse"
         id="clipPath25">
        <path
           d="M674.0692 503.1034 L674.0692 515.0422 L904.3505 515.0422 L904.3505 503.1034 Z"
           id="path75" />
      </clipPath>
      <clipPath
         clipPathUnits="userSpaceOnUse"
         id="clipPath26">
        <path
           d="M628.0309 277.6667 L628.0309 315.7644 L639.9698 315.7644 L639.9698 277.6667 Z"
           id="path78" />
      </clipPath>
      <clipPath
         clipPathUnits="userSpaceOnUse"
         id="clipPath27">
        <path
           d="M675.0692 520.8228 L675.0692 574.9694 L996.3505 574.9694 L996.3505 520.8228 Z"
           id="path81" />
      </clipPath>
      <clipPath
         clipPathUnits="userSpaceOnUse"
         id="clipPath28">
        <path
           d="M702.0689 42.0306 L702.0689 53.9694 L872.5 53.9694 L872.5 42.0306 Z"
           id="path84" />
      </clipPath>
      <clipPath
         clipPathUnits="userSpaceOnUse"
         id="clipPath29">
        <path
           d="M391.4944 170.6896 L391.4944 273.2979 L591.6909 273.2979 L591.6909 170.6896 Z"
           id="path87" />
      </clipPath>
      <clipPath
         clipPathUnits="userSpaceOnUse"
         id="clipPath30">
        <path
           d="M903.3505 496.3228 L903.3505 521.8228 L1088.3505 521.8228 L1088.3505 496.3228 Z"
           id="path90" />
      </clipPath>
      <clipPath
         clipPathUnits="userSpaceOnUse"
         id="clipPath31">
        <path
           d="M824.3505 316.5 L824.3505 346 L1169.3505 346 L1169.3505 316.5 Z"
           id="path93" />
      </clipPath>
      <clipPath
         clipPathUnits="userSpaceOnUse"
         id="clipPath32">
        <path
           d="M587.5004 496.0728 L587.5004 522.0728 L678.5004 522.0728 L678.5004 496.0728 Z"
           id="path96" />
      </clipPath>
      <clipPath
         clipPathUnits="userSpaceOnUse"
         id="clipPath33">
        <path
           d="M588.5004 556 L588.5004 582 L679.5004 582 L679.5004 556 Z"
           id="path99" />
      </clipPath>
      <clipPath
         clipPathUnits="userSpaceOnUse"
         id="clipPath34">
        <path
           d="M200.5 494.3228 L200.5 523.8228 L404.5 523.8228 L404.5 494.3228 Z"
           id="path102" />
      </clipPath>
      <clipPath
         clipPathUnits="userSpaceOnUse"
         id="clipPath35">
        <path
           d="M829.8505 182.5 L829.8505 215.5 L1163.8505 215.5 L1163.8505 182.5 Z"
           id="path105" />
      </clipPath>
      <clipPath
         clipPathUnits="userSpaceOnUse"
         id="clipPath36">
        <path
           d="M871.5 35 L871.5 61 L962.5 61 L962.5 35 Z"
           id="path108" />
      </clipPath>
      <clipPath
         clipPathUnits="userSpaceOnUse"
         id="clipPath37">
        <path
           d="M153.8712 259.75 L153.8712 285.75 L244.8712 285.75 L244.8712 259.75 Z"
           id="path111" />
      </clipPath>
      <clipPath
         clipPathUnits="userSpaceOnUse"
         id="clipPath38">
        <path
           d="M564.5 35 L564.5 61 L706.5 61 L706.5 35 Z"
           id="path114" />
      </clipPath>
      <clipPath
         clipPathUnits="userSpaceOnUse"
         id="clipPath39">
        <path
           d="M588.5004 196.6667 L588.5004 222.6667 L679.5004 222.6667 L679.5004 196.6667 Z"
           id="path117" />
      </clipPath>
      <clipPath
         clipPathUnits="userSpaceOnUse"
         id="clipPath40">
        <path
           d="M588.5004 108.75 L588.5004 134.75 L679.5004 134.75 L679.5004 108.75 Z"
           id="path120" />
      </clipPath>
      <clipPath
         clipPathUnits="userSpaceOnUse"
         id="clipPath41">
        <path
           d="M257 421.4436 L257 447.4436 L348 447.4436 L348 421.4436 Z"
           id="path123" />
      </clipPath>
      <clipPath
         clipPathUnits="userSpaceOnUse"
         id="clipPath42">
        <path
           d="M588.5004 368.6667 L588.5004 394.6667 L679.5004 394.6667 L679.5004 368.6667 Z"
           id="path126" />
      </clipPath>
      <clipPath
         clipPathUnits="userSpaceOnUse"
         id="clipPath43">
        <path
           d="M126.6856 79.3333 L126.6856 105.3333 L217.6856 105.3333 L217.6856 79.3333 Z"
           id="path129" />
      </clipPath>
      <clipPath
         clipPathUnits="userSpaceOnUse"
         id="clipPath44">
        <path
           d="M153.8712 173.25 L153.8712 199.25 L244.8712 199.25 L244.8712 173.25 Z"
           id="path132" />
      </clipPath>
      <clipPath
         clipPathUnits="userSpaceOnUse"
         id="clipPath45">
        <path
           d="M49.8712 421.4436 L49.8712 447.4436 L140.8712 447.4436 L140.8712 421.4436 Z"
           id="path135" />
      </clipPath>
      <clipPath
         clipPathUnits="userSpaceOnUse"
         id="clipPath46">
        <path
           d="M588.5004 311.3333 L588.5004 337.3333 L679.5004 337.3333 L679.5004 311.3333 Z"
           id="path138" />
      </clipPath>
      <clipPath
         clipPathUnits="userSpaceOnUse"
         id="clipPath47">
        <path
           d="M588.5004 252.6667 L588.5004 278.6667 L679.5004 278.6667 L679.5004 252.6667 Z"
           id="path141" />
      </clipPath>
      <clipPath
         clipPathUnits="userSpaceOnUse"
         id="clipPath48">
        <path
           d="M153.8712 339.25 L153.8712 365.25 L244.8712 365.25 L244.8712 339.25 Z"
           id="path144" />
      </clipPath>
    </defs>
    <g
       style="fill:white; stroke:white;"
       id="g150">
      <rect
         x="0"
         width="1198"
         height="611"
         y="0"
         style="stroke:none;"
         id="rect148" />
    </g>
    <g
       style="font-weight:bold; font-size:10; text-rendering:geometricPrecision;"
       id="g160">
      <path
         d="M0.0469 4.7031 L6.7656 4.7031 L6.7656 6.125 L4.3438 6.125 L4.3438 12 L2.4688 12 L2.4688 6.125 L0.0469 6.125 L0.0469 4.7031 ZM7.665 6.5312 L9.415 6.5312 L9.415 12 L7.665 12 L7.665 6.5312 ZM7.665 4.4062 L9.415 4.4062 L9.415 5.8281 L7.665 5.8281 L7.665 4.4062 ZM12.999 4.9844 L12.999 6.5312 L14.7959 6.5312 L14.7959 7.7812 L12.999 7.7812 L12.999 10.0938 Q12.999 10.4844 13.1475 10.6172 Q13.2959 10.75 13.749 10.75 L14.6553 10.75 L14.6553 12 L13.1553 12 Q12.1084 12 11.6787 11.5703 Q11.249 11.1406 11.249 10.0938 L11.249 7.7812 L10.374 7.7812 L10.374 6.5312 L11.249 6.5312 L11.249 4.9844 L12.999 4.9844 ZM15.873 4.4062 L17.623 4.4062 L17.623 12 L15.873 12 L15.873 4.4062 ZM24.7539 9.25 L24.7539 9.75 L20.6758 9.75 Q20.7383 10.3594 21.1133 10.6719 Q21.4883 10.9844 22.1758 10.9844 Q22.7227 10.9844 23.3086 10.8203 Q23.8945 10.6562 24.5039 10.3125 L24.5039 11.6719 Q23.8789 11.9062 23.2617 12.0234 Q22.6445 12.1406 22.0195 12.1406 Q20.5352 12.1406 19.7148 11.3828 Q18.8945 10.625 18.8945 9.2656 Q18.8945 7.9375 19.6992 7.1719 Q20.5039 6.4062 21.9258 6.4062 Q23.207 6.4062 23.9805 7.1797 Q24.7539 7.9531 24.7539 9.25 ZM22.957 8.6719 Q22.957 8.1719 22.668 7.8672 Q22.3789 7.5625 21.9102 7.5625 Q21.3945 7.5625 21.082 7.8438 Q20.7695 8.125 20.6914 8.6719 L22.957 8.6719 ZM26.3643 6.5312 L28.1143 6.5312 L28.1143 8.4219 L26.3643 8.4219 L26.3643 6.5312 ZM26.3643 10.1094 L28.1143 10.1094 L28.1143 12 L26.3643 12 L26.3643 10.1094 Z"
         style="clip-path:url(#clipPath2); stroke:none;"
         clip-path="url(#clipPath2)"
         id="path152" />
      <path
         d="M39.9688 5.5156 L39.9688 8.2656 L41.2031 8.2656 Q41.8906 8.2656 42.2734 7.9062 Q42.6562 7.5469 42.6562 6.8906 Q42.6562 6.2344 42.2734 5.875 Q41.8906 5.5156 41.2031 5.5156 L39.9688 5.5156 ZM38.9844 4.7031 L41.2031 4.7031 Q42.4375 4.7031 43.0625 5.2578 Q43.6875 5.8125 43.6875 6.8906 Q43.6875 7.9688 43.0625 8.5156 Q42.4375 9.0625 41.2031 9.0625 L39.9688 9.0625 L39.9688 12 L38.9844 12 L38.9844 4.7031 ZM49.6553 9.0469 L49.6553 9.4844 L45.5146 9.4844 Q45.5771 10.4062 46.0771 10.8906 Q46.5771 11.375 47.4678 11.375 Q47.9834 11.375 48.4756 11.25 Q48.9678 11.125 49.4365 10.875 L49.4365 11.7188 Q48.9521 11.9219 48.4443 12.0312 Q47.9365 12.1406 47.4209 12.1406 Q46.1084 12.1406 45.3428 11.3828 Q44.5771 10.625 44.5771 9.3125 Q44.5771 7.9688 45.3037 7.1875 Q46.0303 6.4062 47.2646 6.4062 Q48.374 6.4062 49.0146 7.1094 Q49.6553 7.8125 49.6553 9.0469 ZM48.749 8.7812 Q48.749 8.0469 48.3428 7.6016 Q47.9365 7.1562 47.2803 7.1562 Q46.5146 7.1562 46.0693 7.5859 Q45.624 8.0156 45.5459 8.7812 L48.749 8.7812 ZM54.292 7.375 Q54.1357 7.2812 53.9639 7.2422 Q53.792 7.2031 53.5732 7.2031 Q52.8076 7.2031 52.4014 7.6953 Q51.9951 8.1875 51.9951 9.125 L51.9951 12 L51.0889 12 L51.0889 6.5312 L51.9951 6.5312 L51.9951 7.375 Q52.2764 6.875 52.7295 6.6406 Q53.1826 6.4062 53.8389 6.4062 Q53.9326 6.4062 54.042 6.4141 Q54.1514 6.4219 54.292 6.4531 L54.292 7.375 ZM57.3564 7.1562 Q56.6377 7.1562 56.2158 7.7188 Q55.7939 8.2812 55.7939 9.2656 Q55.7939 10.25 56.208 10.8125 Q56.6221 11.375 57.3564 11.375 Q58.0752 11.375 58.4971 10.8125 Q58.9189 10.25 58.9189 9.2656 Q58.9189 8.2969 58.4971 7.7266 Q58.0752 7.1562 57.3564 7.1562 ZM57.3564 6.4062 Q58.5283 6.4062 59.2002 7.1641 Q59.8721 7.9219 59.8721 9.2656 Q59.8721 10.6094 59.2002 11.375 Q58.5283 12.1406 57.3564 12.1406 Q56.1846 12.1406 55.5127 11.375 Q54.8408 10.6094 54.8408 9.2656 Q54.8408 7.9219 55.5127 7.1641 Q56.1846 6.4062 57.3564 6.4062 ZM65.8965 6.5312 L63.9277 9.1875 L66.0059 12 L64.9434 12 L63.3496 9.8438 L61.7559 12 L60.6934 12 L62.8184 9.1406 L60.8809 6.5312 L61.9434 6.5312 L63.3965 8.4844 L64.834 6.5312 L65.8965 6.5312 ZM67.2676 6.5312 L68.1738 6.5312 L68.1738 12 L67.2676 12 L67.2676 6.5312 ZM67.2676 4.4062 L68.1738 4.4062 L68.1738 5.5469 L67.2676 5.5469 L67.2676 4.4062 ZM73.2178 7.375 Q73.0615 7.2812 72.8896 7.2422 Q72.7178 7.2031 72.499 7.2031 Q71.7334 7.2031 71.3271 7.6953 Q70.9209 8.1875 70.9209 9.125 L70.9209 12 L70.0146 12 L70.0146 6.5312 L70.9209 6.5312 L70.9209 7.375 Q71.2021 6.875 71.6553 6.6406 Q72.1084 6.4062 72.7646 6.4062 Q72.8584 6.4062 72.9678 6.4141 Q73.0771 6.4219 73.2178 6.4531 L73.2178 7.375 ZM78.8447 9.0469 L78.8447 9.4844 L74.7041 9.4844 Q74.7666 10.4062 75.2666 10.8906 Q75.7666 11.375 76.6572 11.375 Q77.1729 11.375 77.665 11.25 Q78.1572 11.125 78.626 10.875 L78.626 11.7188 Q78.1416 11.9219 77.6338 12.0312 Q77.126 12.1406 76.6104 12.1406 Q75.2979 12.1406 74.5322 11.3828 Q73.7666 10.625 73.7666 9.3125 Q73.7666 7.9688 74.4932 7.1875 Q75.2197 6.4062 76.4541 6.4062 Q77.5635 6.4062 78.2041 7.1094 Q78.8447 7.8125 78.8447 9.0469 ZM77.9385 8.7812 Q77.9385 8.0469 77.5322 7.6016 Q77.126 7.1562 76.4697 7.1562 Q75.7041 7.1562 75.2588 7.5859 Q74.8135 8.0156 74.7354 8.7812 L77.9385 8.7812 ZM83.9189 7.3594 L83.9189 4.4062 L84.8096 4.4062 L84.8096 12 L83.9189 12 L83.9189 11.1719 Q83.6377 11.6719 83.2002 11.9062 Q82.7627 12.1406 82.1533 12.1406 Q81.1689 12.1406 80.5439 11.3516 Q79.9189 10.5625 79.9189 9.2656 Q79.9189 7.9844 80.5439 7.1953 Q81.1689 6.4062 82.1533 6.4062 Q82.7627 6.4062 83.2002 6.6406 Q83.6377 6.875 83.9189 7.3594 ZM80.8564 9.2656 Q80.8564 10.2656 81.2627 10.8281 Q81.6689 11.3906 82.3877 11.3906 Q83.0908 11.3906 83.5049 10.8281 Q83.9189 10.2656 83.9189 9.2656 Q83.9189 8.2812 83.5049 7.7188 Q83.0908 7.1562 82.3877 7.1562 Q81.6689 7.1562 81.2627 7.7188 Q80.8564 8.2812 80.8564 9.2656 ZM88.7822 7.1562 Q88.0635 7.1562 87.6416 7.7188 Q87.2197 8.2812 87.2197 9.2656 Q87.2197 10.25 87.6338 10.8125 Q88.0479 11.375 88.7822 11.375 Q89.501 11.375 89.9229 10.8125 Q90.3447 10.25 90.3447 9.2656 Q90.3447 8.2969 89.9229 7.7266 Q89.501 7.1562 88.7822 7.1562 ZM88.7822 6.4062 Q89.9541 6.4062 90.626 7.1641 Q91.2979 7.9219 91.2979 9.2656 Q91.2979 10.6094 90.626 11.375 Q89.9541 12.1406 88.7822 12.1406 Q87.6104 12.1406 86.9385 11.375 Q86.2666 10.6094 86.2666 9.2656 Q86.2666 7.9219 86.9385 7.1641 Q87.6104 6.4062 88.7822 6.4062 ZM97.3223 6.5312 L95.3535 9.1875 L97.4316 12 L96.3691 12 L94.7754 9.8438 L93.1816 12 L92.1191 12 L94.2441 9.1406 L92.3066 6.5312 L93.3691 6.5312 L94.8223 8.4844 L96.2598 6.5312 L97.3223 6.5312 ZM98.6934 6.5312 L99.5996 6.5312 L99.5996 12 L98.6934 12 L98.6934 6.5312 ZM98.6934 4.4062 L99.5996 4.4062 L99.5996 5.5469 L98.6934 5.5469 L98.6934 4.4062 ZM106.0186 8.7031 L106.0186 12 L105.1279 12 L105.1279 8.7344 Q105.1279 7.9531 104.8232 7.5703 Q104.5186 7.1875 103.9092 7.1875 Q103.1904 7.1875 102.7686 7.6484 Q102.3467 8.1094 102.3467 8.9062 L102.3467 12 L101.4404 12 L101.4404 6.5312 L102.3467 6.5312 L102.3467 7.375 Q102.6748 6.8906 103.1123 6.6484 Q103.5498 6.4062 104.1123 6.4062 Q105.0498 6.4062 105.5342 6.9844 Q106.0186 7.5625 106.0186 8.7031 ZM111.9727 11.1719 L115.4102 11.1719 L115.4102 12 L110.7852 12 L110.7852 11.1719 Q111.3477 10.5938 112.3164 9.6094 Q113.2852 8.625 113.5352 8.3438 Q114.0039 7.8125 114.1914 7.4453 Q114.3789 7.0781 114.3789 6.7188 Q114.3789 6.1406 113.9727 5.7734 Q113.5664 5.4062 112.9102 5.4062 Q112.4414 5.4062 111.9336 5.5703 Q111.4258 5.7344 110.832 6.0625 L110.832 5.0625 Q111.4258 4.8281 111.9414 4.7031 Q112.457 4.5781 112.8945 4.5781 Q114.0195 4.5781 114.6992 5.1406 Q115.3789 5.7031 115.3789 6.6562 Q115.3789 7.1094 115.207 7.5078 Q115.0352 7.9062 114.5977 8.4531 Q114.4727 8.5938 113.8164 9.2734 Q113.1602 9.9531 111.9727 11.1719 ZM120.5293 6.5312 L121.4355 6.5312 L121.4355 12 L120.5293 12 L120.5293 6.5312 ZM120.5293 4.4062 L121.4355 4.4062 L121.4355 5.5469 L120.5293 5.5469 L120.5293 4.4062 ZM127.8545 8.7031 L127.8545 12 L126.9639 12 L126.9639 8.7344 Q126.9639 7.9531 126.6592 7.5703 Q126.3545 7.1875 125.7451 7.1875 Q125.0264 7.1875 124.6045 7.6484 Q124.1826 8.1094 124.1826 8.9062 L124.1826 12 L123.2764 12 L123.2764 6.5312 L124.1826 6.5312 L124.1826 7.375 Q124.5107 6.8906 124.9482 6.6484 Q125.3857 6.4062 125.9482 6.4062 Q126.8857 6.4062 127.3701 6.9844 Q127.8545 7.5625 127.8545 8.7031 ZM133.2549 7.3594 L133.2549 4.4062 L134.1455 4.4062 L134.1455 12 L133.2549 12 L133.2549 11.1719 Q132.9736 11.6719 132.5361 11.9062 Q132.0986 12.1406 131.4893 12.1406 Q130.5049 12.1406 129.8799 11.3516 Q129.2549 10.5625 129.2549 9.2656 Q129.2549 7.9844 129.8799 7.1953 Q130.5049 6.4062 131.4893 6.4062 Q132.0986 6.4062 132.5361 6.6406 Q132.9736 6.875 133.2549 7.3594 ZM130.1924 9.2656 Q130.1924 10.2656 130.5986 10.8281 Q131.0049 11.3906 131.7236 11.3906 Q132.4268 11.3906 132.8408 10.8281 Q133.2549 10.2656 133.2549 9.2656 Q133.2549 8.2812 132.8408 7.7188 Q132.4268 7.1562 131.7236 7.1562 Q131.0049 7.1562 130.5986 7.7188 Q130.1924 8.2812 130.1924 9.2656 ZM135.8994 9.8438 L135.8994 6.5312 L136.8057 6.5312 L136.8057 9.8125 Q136.8057 10.5781 137.1104 10.9688 Q137.415 11.3594 138.0088 11.3594 Q138.7432 11.3594 139.165 10.8984 Q139.5869 10.4375 139.5869 9.625 L139.5869 6.5312 L140.4932 6.5312 L140.4932 12 L139.5869 12 L139.5869 11.1562 Q139.2588 11.6562 138.8291 11.8984 Q138.3994 12.1406 137.8213 12.1406 Q136.8838 12.1406 136.3916 11.5547 Q135.8994 10.9688 135.8994 9.8438 ZM138.165 6.4062 L138.165 6.4062 ZM146.2686 6.7344 L146.2686 7.5781 Q145.8936 7.375 145.5107 7.2656 Q145.1279 7.1562 144.7373 7.1562 Q143.8623 7.1562 143.3779 7.7109 Q142.8936 8.2656 142.8936 9.2656 Q142.8936 10.2656 143.3779 10.8203 Q143.8623 11.375 144.7373 11.375 Q145.1279 11.375 145.5107 11.2734 Q145.8936 11.1719 146.2686 10.9531 L146.2686 11.7969 Q145.8936 11.9688 145.4951 12.0547 Q145.0967 12.1406 144.6436 12.1406 Q143.3936 12.1406 142.667 11.3672 Q141.9404 10.5938 141.9404 9.2656 Q141.9404 7.9375 142.6748 7.1719 Q143.4092 6.4062 144.6904 6.4062 Q145.1123 6.4062 145.5029 6.4844 Q145.8936 6.5625 146.2686 6.7344 ZM152.5166 9.0469 L152.5166 9.4844 L148.376 9.4844 Q148.4385 10.4062 148.9385 10.8906 Q149.4385 11.375 150.3291 11.375 Q150.8447 11.375 151.3369 11.25 Q151.8291 11.125 152.2979 10.875 L152.2979 11.7188 Q151.8135 11.9219 151.3057 12.0312 Q150.7979 12.1406 150.2822 12.1406 Q148.9697 12.1406 148.2041 11.3828 Q147.4385 10.625 147.4385 9.3125 Q147.4385 7.9688 148.165 7.1875 Q148.8916 6.4062 150.126 6.4062 Q151.2354 6.4062 151.876 7.1094 Q152.5166 7.8125 152.5166 9.0469 ZM151.6104 8.7812 Q151.6104 8.0469 151.2041 7.6016 Q150.7979 7.1562 150.1416 7.1562 Q149.376 7.1562 148.9307 7.5859 Q148.4854 8.0156 148.4072 8.7812 L151.6104 8.7812 ZM157.5908 7.3594 L157.5908 4.4062 L158.4814 4.4062 L158.4814 12 L157.5908 12 L157.5908 11.1719 Q157.3096 11.6719 156.8721 11.9062 Q156.4346 12.1406 155.8252 12.1406 Q154.8408 12.1406 154.2158 11.3516 Q153.5908 10.5625 153.5908 9.2656 Q153.5908 7.9844 154.2158 7.1953 Q154.8408 6.4062 155.8252 6.4062 Q156.4346 6.4062 156.8721 6.6406 Q157.3096 6.875 157.5908 7.3594 ZM154.5283 9.2656 Q154.5283 10.2656 154.9346 10.8281 Q155.3408 11.3906 156.0596 11.3906 Q156.7627 11.3906 157.1768 10.8281 Q157.5908 10.2656 157.5908 9.2656 Q157.5908 8.2812 157.1768 7.7188 Q156.7627 7.1562 156.0596 7.1562 Q155.3408 7.1562 154.9346 7.7188 Q154.5283 8.2812 154.5283 9.2656 ZM165.6328 7.1562 Q164.9141 7.1562 164.4922 7.7188 Q164.0703 8.2812 164.0703 9.2656 Q164.0703 10.25 164.4844 10.8125 Q164.8984 11.375 165.6328 11.375 Q166.3516 11.375 166.7734 10.8125 Q167.1953 10.25 167.1953 9.2656 Q167.1953 8.2969 166.7734 7.7266 Q166.3516 7.1562 165.6328 7.1562 ZM165.6328 6.4062 Q166.8047 6.4062 167.4766 7.1641 Q168.1484 7.9219 168.1484 9.2656 Q168.1484 10.6094 167.4766 11.375 Q166.8047 12.1406 165.6328 12.1406 Q164.4609 12.1406 163.7891 11.375 Q163.1172 10.6094 163.1172 9.2656 Q163.1172 7.9219 163.7891 7.1641 Q164.4609 6.4062 165.6328 6.4062 ZM168.9854 6.5312 L169.9385 6.5312 L171.6416 11.125 L173.3604 6.5312 L174.3135 6.5312 L172.251 12 L171.0322 12 L168.9854 6.5312 ZM178.0283 9.25 Q176.9502 9.25 176.5283 9.5 Q176.1064 9.75 176.1064 10.3438 Q176.1064 10.8281 176.4189 11.1094 Q176.7314 11.3906 177.2783 11.3906 Q178.0283 11.3906 178.4814 10.8594 Q178.9346 10.3281 178.9346 9.4531 L178.9346 9.25 L178.0283 9.25 ZM179.8252 8.875 L179.8252 12 L178.9346 12 L178.9346 11.1719 Q178.6221 11.6719 178.1611 11.9062 Q177.7002 12.1406 177.0439 12.1406 Q176.2002 12.1406 175.7002 11.6719 Q175.2002 11.2031 175.2002 10.4062 Q175.2002 9.4844 175.8252 9.0156 Q176.4502 8.5469 177.6689 8.5469 L178.9346 8.5469 L178.9346 8.4531 Q178.9346 7.8438 178.5205 7.5 Q178.1064 7.1562 177.3721 7.1562 Q176.9033 7.1562 176.458 7.2734 Q176.0127 7.3906 175.6064 7.6094 L175.6064 6.7812 Q176.1064 6.5938 176.5674 6.5 Q177.0283 6.4062 177.4658 6.4062 Q178.6533 6.4062 179.2393 7.0156 Q179.8252 7.625 179.8252 8.875 ZM184.8438 7.375 Q184.6875 7.2812 184.5156 7.2422 Q184.3438 7.2031 184.125 7.2031 Q183.3594 7.2031 182.9531 7.6953 Q182.5469 8.1875 182.5469 9.125 L182.5469 12 L181.6406 12 L181.6406 6.5312 L182.5469 6.5312 L182.5469 7.375 Q182.8281 6.875 183.2812 6.6406 Q183.7344 6.4062 184.3906 6.4062 Q184.4844 6.4062 184.5938 6.4141 Q184.7031 6.4219 184.8438 6.4531 L184.8438 7.375 ZM185.7832 6.5312 L186.6895 6.5312 L186.6895 12 L185.7832 12 L185.7832 6.5312 ZM185.7832 4.4062 L186.6895 4.4062 L186.6895 5.5469 L185.7832 5.5469 L185.7832 4.4062 ZM191.0459 9.25 Q189.9678 9.25 189.5459 9.5 Q189.124 9.75 189.124 10.3438 Q189.124 10.8281 189.4365 11.1094 Q189.749 11.3906 190.2959 11.3906 Q191.0459 11.3906 191.499 10.8594 Q191.9521 10.3281 191.9521 9.4531 L191.9521 9.25 L191.0459 9.25 ZM192.8428 8.875 L192.8428 12 L191.9521 12 L191.9521 11.1719 Q191.6396 11.6719 191.1787 11.9062 Q190.7178 12.1406 190.0615 12.1406 Q189.2178 12.1406 188.7178 11.6719 Q188.2178 11.2031 188.2178 10.4062 Q188.2178 9.4844 188.8428 9.0156 Q189.4678 8.5469 190.6865 8.5469 L191.9521 8.5469 L191.9521 8.4531 Q191.9521 7.8438 191.5381 7.5 Q191.124 7.1562 190.3896 7.1562 Q189.9209 7.1562 189.4756 7.2734 Q189.0303 7.3906 188.624 7.6094 L188.624 6.7812 Q189.124 6.5938 189.585 6.5 Q190.0459 6.4062 190.4834 6.4062 Q191.6709 6.4062 192.2568 7.0156 Q192.8428 7.625 192.8428 8.875 ZM199.2363 8.7031 L199.2363 12 L198.3457 12 L198.3457 8.7344 Q198.3457 7.9531 198.041 7.5703 Q197.7363 7.1875 197.127 7.1875 Q196.4082 7.1875 195.9863 7.6484 Q195.5645 8.1094 195.5645 8.9062 L195.5645 12 L194.6582 12 L194.6582 6.5312 L195.5645 6.5312 L195.5645 7.375 Q195.8926 6.8906 196.3301 6.6484 Q196.7676 6.4062 197.3301 6.4062 Q198.2676 6.4062 198.752 6.9844 Q199.2363 7.5625 199.2363 8.7031 ZM206.9873 4.4062 L206.9873 5.1562 L206.1279 5.1562 Q205.6436 5.1562 205.4561 5.3516 Q205.2686 5.5469 205.2686 6.0469 L205.2686 6.5312 L206.7373 6.5312 L206.7373 7.2344 L205.2686 7.2344 L205.2686 12 L204.3623 12 L204.3623 7.2344 L203.5029 7.2344 L203.5029 6.5312 L204.3623 6.5312 L204.3623 6.1562 Q204.3623 5.2344 204.7842 4.8203 Q205.2061 4.4062 206.1279 4.4062 L206.9873 4.4062 ZM210.2109 9.25 Q209.1328 9.25 208.7109 9.5 Q208.2891 9.75 208.2891 10.3438 Q208.2891 10.8281 208.6016 11.1094 Q208.9141 11.3906 209.4609 11.3906 Q210.2109 11.3906 210.6641 10.8594 Q211.1172 10.3281 211.1172 9.4531 L211.1172 9.25 L210.2109 9.25 ZM212.0078 8.875 L212.0078 12 L211.1172 12 L211.1172 11.1719 Q210.8047 11.6719 210.3438 11.9062 Q209.8828 12.1406 209.2266 12.1406 Q208.3828 12.1406 207.8828 11.6719 Q207.3828 11.2031 207.3828 10.4062 Q207.3828 9.4844 208.0078 9.0156 Q208.6328 8.5469 209.8516 8.5469 L211.1172 8.5469 L211.1172 8.4531 Q211.1172 7.8438 210.7031 7.5 Q210.2891 7.1562 209.5547 7.1562 Q209.0859 7.1562 208.6406 7.2734 Q208.1953 7.3906 207.7891 7.6094 L207.7891 6.7812 Q208.2891 6.5938 208.75 6.5 Q209.2109 6.4062 209.6484 6.4062 Q210.8359 6.4062 211.4219 7.0156 Q212.0078 7.625 212.0078 8.875 ZM213.8545 6.5312 L214.7607 6.5312 L214.7607 12 L213.8545 12 L213.8545 6.5312 ZM213.8545 4.4062 L214.7607 4.4062 L214.7607 5.5469 L213.8545 5.5469 L213.8545 4.4062 ZM216.6328 4.4062 L217.5391 4.4062 L217.5391 12 L216.6328 12 L216.6328 4.4062 ZM219.3174 9.8438 L219.3174 6.5312 L220.2236 6.5312 L220.2236 9.8125 Q220.2236 10.5781 220.5283 10.9688 Q220.833 11.3594 221.4268 11.3594 Q222.1611 11.3594 222.583 10.8984 Q223.0049 10.4375 223.0049 9.625 L223.0049 6.5312 L223.9111 6.5312 L223.9111 12 L223.0049 12 L223.0049 11.1562 Q222.6768 11.6562 222.2471 11.8984 Q221.8174 12.1406 221.2393 12.1406 Q220.3018 12.1406 219.8096 11.5547 Q219.3174 10.9688 219.3174 9.8438 ZM221.583 6.4062 L221.583 6.4062 ZM228.9209 7.375 Q228.7646 7.2812 228.5928 7.2422 Q228.4209 7.2031 228.2021 7.2031 Q227.4365 7.2031 227.0303 7.6953 Q226.624 8.1875 226.624 9.125 L226.624 12 L225.7178 12 L225.7178 6.5312 L226.624 6.5312 L226.624 7.375 Q226.9053 6.875 227.3584 6.6406 Q227.8115 6.4062 228.4678 6.4062 Q228.5615 6.4062 228.6709 6.4141 Q228.7803 6.4219 228.9209 6.4531 L228.9209 7.375 ZM234.5479 9.0469 L234.5479 9.4844 L230.4072 9.4844 Q230.4697 10.4062 230.9697 10.8906 Q231.4697 11.375 232.3604 11.375 Q232.876 11.375 233.3682 11.25 Q233.8604 11.125 234.3291 10.875 L234.3291 11.7188 Q233.8447 11.9219 233.3369 12.0312 Q232.8291 12.1406 232.3135 12.1406 Q231.001 12.1406 230.2354 11.3828 Q229.4697 10.625 229.4697 9.3125 Q229.4697 7.9688 230.1963 7.1875 Q230.9229 6.4062 232.1572 6.4062 Q233.2666 6.4062 233.9072 7.1094 Q234.5479 7.8125 234.5479 9.0469 ZM233.6416 8.7812 Q233.6416 8.0469 233.2354 7.6016 Q232.8291 7.1562 232.1729 7.1562 Q231.4072 7.1562 230.9619 7.5859 Q230.5166 8.0156 230.4385 8.7812 L233.6416 8.7812 Z"
         style="clip-path:url(#clipPath2); stroke:none;"
         clip-path="url(#clipPath2)"
         id="path154" />
      <path
         d="M4.25 19.9375 Q3.3906 19.9375 2.9141 20.5703 Q2.4375 21.2031 2.4375 22.3594 Q2.4375 23.5156 2.9141 24.1484 Q3.3906 24.7812 4.25 24.7812 Q5.1094 24.7812 5.5859 24.1484 Q6.0625 23.5156 6.0625 22.3594 Q6.0625 21.2031 5.5859 20.5703 Q5.1094 19.9375 4.25 19.9375 ZM4.25 18.5781 Q6 18.5781 7 19.5859 Q8 20.5938 8 22.3594 Q8 24.125 7 25.1328 Q6 26.1406 4.25 26.1406 Q2.5 26.1406 1.5 25.1328 Q0.5 24.125 0.5 22.3594 Q0.5 20.5938 1.5 19.5859 Q2.5 18.5781 4.25 18.5781 ZM13.4072 22.0156 Q13.1729 21.9062 12.9463 21.8594 Q12.7197 21.8125 12.4854 21.8125 Q11.8135 21.8125 11.4541 22.2422 Q11.0947 22.6719 11.0947 23.4844 L11.0947 26 L9.3447 26 L9.3447 20.5312 L11.0947 20.5312 L11.0947 21.4219 Q11.4229 20.8906 11.8604 20.6484 Q12.2979 20.4062 12.9072 20.4062 Q13.001 20.4062 13.1025 20.4062 Q13.2041 20.4062 13.3916 20.4375 L13.4072 22.0156 ZM17.9951 25.0781 Q17.6357 25.5469 17.1982 25.7734 Q16.7607 26 16.1982 26 Q15.1982 26 14.542 25.2109 Q13.8857 24.4219 13.8857 23.2031 Q13.8857 21.9688 14.542 21.1875 Q15.1982 20.4062 16.1982 20.4062 Q16.7607 20.4062 17.1982 20.6328 Q17.6357 20.8594 17.9951 21.3438 L17.9951 20.5312 L19.7451 20.5312 L19.7451 25.4531 Q19.7451 26.7656 18.917 27.4609 Q18.0889 28.1562 16.5107 28.1562 Q15.9951 28.1562 15.5186 28.0781 Q15.042 28 14.5576 27.8438 L14.5576 26.4844 Q15.0107 26.75 15.4482 26.875 Q15.8857 27 16.3389 27 Q17.1982 27 17.5967 26.625 Q17.9951 26.25 17.9951 25.4531 L17.9951 25.0781 ZM16.8389 21.6719 Q16.292 21.6719 15.9951 22.0703 Q15.6982 22.4688 15.6982 23.2031 Q15.6982 23.9531 15.9873 24.3438 Q16.2764 24.7344 16.8389 24.7344 Q17.3857 24.7344 17.6904 24.3281 Q17.9951 23.9219 17.9951 23.2031 Q17.9951 22.4688 17.6904 22.0703 Q17.3857 21.6719 16.8389 21.6719 ZM23.8877 23.5312 Q23.3408 23.5312 23.0596 23.7188 Q22.7783 23.9062 22.7783 24.2656 Q22.7783 24.6094 23.0049 24.7969 Q23.2314 24.9844 23.6221 24.9844 Q24.1221 24.9844 24.458 24.625 Q24.7939 24.2656 24.7939 23.7344 L24.7939 23.5312 L23.8877 23.5312 ZM26.5596 22.875 L26.5596 26 L24.7939 26 L24.7939 25.1875 Q24.4346 25.6875 23.9971 25.9141 Q23.5596 26.1406 22.9346 26.1406 Q22.0752 26.1406 21.5518 25.6484 Q21.0283 25.1562 21.0283 24.3594 Q21.0283 23.3906 21.6846 22.9453 Q22.3408 22.5 23.7627 22.5 L24.7939 22.5 L24.7939 22.3594 Q24.7939 21.9531 24.4658 21.7578 Q24.1377 21.5625 23.4502 21.5625 Q22.8877 21.5625 22.4033 21.6719 Q21.9189 21.7812 21.4971 22.0156 L21.4971 20.6719 Q22.0596 20.5469 22.6299 20.4766 Q23.2002 20.4062 23.7627 20.4062 Q25.2471 20.4062 25.9033 20.9844 Q26.5596 21.5625 26.5596 22.875 ZM33.6826 22.6719 L33.6826 26 L31.917 26 L31.917 25.4531 L31.917 23.4531 Q31.917 22.75 31.8857 22.4766 Q31.8545 22.2031 31.7764 22.0781 Q31.6826 21.9062 31.5029 21.8125 Q31.3232 21.7188 31.1045 21.7188 Q30.5576 21.7188 30.2451 22.1406 Q29.9326 22.5625 29.9326 23.3125 L29.9326 26 L28.1826 26 L28.1826 20.5312 L29.9326 20.5312 L29.9326 21.3281 Q30.3232 20.8594 30.7686 20.6328 Q31.2139 20.4062 31.7451 20.4062 Q32.6982 20.4062 33.1904 20.9844 Q33.6826 21.5625 33.6826 22.6719 ZM35.3018 20.5312 L37.0518 20.5312 L37.0518 26 L35.3018 26 L35.3018 20.5312 ZM35.3018 18.4062 L37.0518 18.4062 L37.0518 19.8281 L35.3018 19.8281 L35.3018 18.4062 ZM42.9951 20.7031 L42.9951 22.0312 Q42.4326 21.7969 41.9092 21.6797 Q41.3857 21.5625 40.9326 21.5625 Q40.4326 21.5625 40.1904 21.6875 Q39.9482 21.8125 39.9482 22.0625 Q39.9482 22.2812 40.1279 22.3906 Q40.3076 22.5 40.792 22.5625 L41.0889 22.5938 Q42.4326 22.7656 42.9014 23.1562 Q43.3701 23.5469 43.3701 24.3906 Q43.3701 25.2656 42.7217 25.7031 Q42.0732 26.1406 40.792 26.1406 Q40.2607 26.1406 39.6826 26.0547 Q39.1045 25.9688 38.4795 25.7969 L38.4795 24.4688 Q39.0107 24.7188 39.5576 24.8516 Q40.1045 24.9844 40.667 24.9844 Q41.1826 24.9844 41.4404 24.8438 Q41.6982 24.7031 41.6982 24.4219 Q41.6982 24.1875 41.5264 24.0703 Q41.3545 23.9531 40.8232 23.8906 L40.5107 23.8438 Q39.3389 23.7031 38.8701 23.3047 Q38.4014 22.9062 38.4014 22.1094 Q38.4014 21.2344 38.9951 20.8203 Q39.5889 20.4062 40.8232 20.4062 Q41.3076 20.4062 41.8389 20.4766 Q42.3701 20.5469 42.9951 20.7031 ZM49.7441 21.4375 Q50.0723 20.9375 50.5332 20.6719 Q50.9941 20.4062 51.541 20.4062 Q52.4785 20.4062 52.9707 20.9844 Q53.4629 21.5625 53.4629 22.6719 L53.4629 26 L51.7129 26 L51.7129 23.1406 Q51.7129 23.0781 51.7129 23.0156 Q51.7129 22.9531 51.7129 22.8281 Q51.7129 22.2344 51.5488 21.9766 Q51.3848 21.7188 50.9941 21.7188 Q50.4941 21.7188 50.2285 22.125 Q49.9629 22.5312 49.9473 23.3125 L49.9473 26 L48.1816 26 L48.1816 23.1406 Q48.1816 22.2344 48.0254 21.9766 Q47.8691 21.7188 47.4785 21.7188 Q46.9785 21.7188 46.7051 22.1328 Q46.4316 22.5469 46.4316 23.3125 L46.4316 26 L44.666 26 L44.666 20.5312 L46.4316 20.5312 L46.4316 21.3281 Q46.7441 20.875 47.166 20.6406 Q47.5879 20.4062 48.0879 20.4062 Q48.6504 20.4062 49.0879 20.6797 Q49.5254 20.9531 49.7441 21.4375 ZM55.3828 20.5312 L57.1328 20.5312 L57.1328 22.4219 L55.3828 22.4219 L55.3828 20.5312 ZM55.3828 24.1094 L57.1328 24.1094 L57.1328 26 L55.3828 26 L55.3828 24.1094 Z"
         style="clip-path:url(#clipPath2); stroke:none;"
         clip-path="url(#clipPath2)"
         id="path156" />
      <path
         d="M66.9844 18.7031 L67.9688 18.7031 L67.9688 21.7031 L71.5469 21.7031 L71.5469 18.7031 L72.5312 18.7031 L72.5312 26 L71.5469 26 L71.5469 22.5312 L67.9688 22.5312 L67.9688 26 L66.9844 26 L66.9844 18.7031 ZM76.582 21.1562 Q75.8633 21.1562 75.4414 21.7188 Q75.0195 22.2812 75.0195 23.2656 Q75.0195 24.25 75.4336 24.8125 Q75.8477 25.375 76.582 25.375 Q77.3008 25.375 77.7227 24.8125 Q78.1445 24.25 78.1445 23.2656 Q78.1445 22.2969 77.7227 21.7266 Q77.3008 21.1562 76.582 21.1562 ZM76.582 20.4062 Q77.7539 20.4062 78.4258 21.1641 Q79.0977 21.9219 79.0977 23.2656 Q79.0977 24.6094 78.4258 25.375 Q77.7539 26.1406 76.582 26.1406 Q75.4102 26.1406 74.7383 25.375 Q74.0664 24.6094 74.0664 23.2656 Q74.0664 21.9219 74.7383 21.1641 Q75.4102 20.4062 76.582 20.4062 ZM84.8408 21.5781 Q85.1689 20.9688 85.6377 20.6875 Q86.1064 20.4062 86.7471 20.4062 Q87.6064 20.4062 88.0674 21 Q88.5283 21.5938 88.5283 22.7031 L88.5283 26 L87.6221 26 L87.6221 22.7344 Q87.6221 21.9375 87.3486 21.5625 Q87.0752 21.1875 86.4971 21.1875 Q85.7939 21.1875 85.3955 21.6484 Q84.9971 22.1094 84.9971 22.9062 L84.9971 26 L84.0908 26 L84.0908 22.7344 Q84.0908 21.9375 83.8096 21.5625 Q83.5283 21.1875 82.9502 21.1875 Q82.2627 21.1875 81.8564 21.6484 Q81.4502 22.1094 81.4502 22.9062 L81.4502 26 L80.5439 26 L80.5439 20.5312 L81.4502 20.5312 L81.4502 21.375 Q81.7627 20.875 82.1924 20.6406 Q82.6221 20.4062 83.2002 20.4062 Q83.8096 20.4062 84.2236 20.7031 Q84.6377 21 84.8408 21.5781 ZM92.4414 21.1562 Q91.7227 21.1562 91.3008 21.7188 Q90.8789 22.2812 90.8789 23.2656 Q90.8789 24.25 91.293 24.8125 Q91.707 25.375 92.4414 25.375 Q93.1602 25.375 93.582 24.8125 Q94.0039 24.25 94.0039 23.2656 Q94.0039 22.2969 93.582 21.7266 Q93.1602 21.1562 92.4414 21.1562 ZM92.4414 20.4062 Q93.6133 20.4062 94.2852 21.1641 Q94.957 21.9219 94.957 23.2656 Q94.957 24.6094 94.2852 25.375 Q93.6133 26.1406 92.4414 26.1406 Q91.2695 26.1406 90.5977 25.375 Q89.9258 24.6094 89.9258 23.2656 Q89.9258 21.9219 90.5977 21.1641 Q91.2695 20.4062 92.4414 20.4062 ZM103.0977 20.6875 L103.0977 21.5469 Q102.7227 21.3438 102.3164 21.25 Q101.9102 21.1562 101.457 21.1562 Q100.8008 21.1562 100.4648 21.3594 Q100.1289 21.5625 100.1289 21.9688 Q100.1289 22.2812 100.3633 22.4609 Q100.5977 22.6406 101.332 22.7969 L101.6289 22.875 Q102.5977 23.0781 102.9961 23.4531 Q103.3945 23.8281 103.3945 24.4844 Q103.3945 25.25 102.793 25.6953 Q102.1914 26.1406 101.1445 26.1406 Q100.6914 26.1406 100.2148 26.0547 Q99.7383 25.9688 99.2227 25.7969 L99.2227 24.875 Q99.7227 25.125 100.1992 25.2578 Q100.6758 25.3906 101.1602 25.3906 Q101.7852 25.3906 102.1289 25.1719 Q102.4727 24.9531 102.4727 24.5625 Q102.4727 24.1875 102.2305 23.9922 Q101.9883 23.7969 101.1445 23.625 L100.832 23.5469 Q100.0039 23.375 99.6289 23.0078 Q99.2539 22.6406 99.2539 22.0156 Q99.2539 21.2344 99.8008 20.8203 Q100.3477 20.4062 101.3633 20.4062 Q101.8477 20.4062 102.293 20.4766 Q102.7383 20.5469 103.0977 20.6875 ZM107.3076 23.25 Q106.2295 23.25 105.8076 23.5 Q105.3857 23.75 105.3857 24.3438 Q105.3857 24.8281 105.6982 25.1094 Q106.0107 25.3906 106.5576 25.3906 Q107.3076 25.3906 107.7607 24.8594 Q108.2139 24.3281 108.2139 23.4531 L108.2139 23.25 L107.3076 23.25 ZM109.1045 22.875 L109.1045 26 L108.2139 26 L108.2139 25.1719 Q107.9014 25.6719 107.4404 25.9062 Q106.9795 26.1406 106.3232 26.1406 Q105.4795 26.1406 104.9795 25.6719 Q104.4795 25.2031 104.4795 24.4062 Q104.4795 23.4844 105.1045 23.0156 Q105.7295 22.5469 106.9482 22.5469 L108.2139 22.5469 L108.2139 22.4531 Q108.2139 21.8438 107.7998 21.5 Q107.3857 21.1562 106.6514 21.1562 Q106.1826 21.1562 105.7373 21.2734 Q105.292 21.3906 104.8857 21.6094 L104.8857 20.7812 Q105.3857 20.5938 105.8467 20.5 Q106.3076 20.4062 106.7451 20.4062 Q107.9326 20.4062 108.5186 21.0156 Q109.1045 21.625 109.1045 22.875 ZM111.8262 25.1719 L111.8262 28.0781 L110.9199 28.0781 L110.9199 20.5312 L111.8262 20.5312 L111.8262 21.3594 Q112.1074 20.875 112.5371 20.6406 Q112.9668 20.4062 113.5762 20.4062 Q114.5762 20.4062 115.1934 21.1953 Q115.8105 21.9844 115.8105 23.2656 Q115.8105 24.5625 115.1934 25.3516 Q114.5762 26.1406 113.5762 26.1406 Q112.9668 26.1406 112.5371 25.9062 Q112.1074 25.6719 111.8262 25.1719 ZM114.8887 23.2656 Q114.8887 22.2812 114.4746 21.7188 Q114.0605 21.1562 113.3574 21.1562 Q112.6387 21.1562 112.2324 21.7188 Q111.8262 22.2812 111.8262 23.2656 Q111.8262 24.2656 112.2324 24.8281 Q112.6387 25.3906 113.3574 25.3906 Q114.0605 25.3906 114.4746 24.8281 Q114.8887 24.2656 114.8887 23.2656 ZM117.2988 20.5312 L118.2051 20.5312 L118.2051 26 L117.2988 26 L117.2988 20.5312 ZM117.2988 18.4062 L118.2051 18.4062 L118.2051 19.5469 L117.2988 19.5469 L117.2988 18.4062 ZM124.7646 23.0469 L124.7646 23.4844 L120.624 23.4844 Q120.6865 24.4062 121.1865 24.8906 Q121.6865 25.375 122.5771 25.375 Q123.0928 25.375 123.585 25.25 Q124.0771 25.125 124.5459 24.875 L124.5459 25.7188 Q124.0615 25.9219 123.5537 26.0312 Q123.0459 26.1406 122.5303 26.1406 Q121.2178 26.1406 120.4521 25.3828 Q119.6865 24.625 119.6865 23.3125 Q119.6865 21.9688 120.4131 21.1875 Q121.1396 20.4062 122.374 20.4062 Q123.4834 20.4062 124.124 21.1094 Q124.7646 21.8125 124.7646 23.0469 ZM123.8584 22.7812 Q123.8584 22.0469 123.4521 21.6016 Q123.0459 21.1562 122.3896 21.1562 Q121.624 21.1562 121.1787 21.5859 Q120.7334 22.0156 120.6553 22.7812 L123.8584 22.7812 ZM130.7764 22.7031 L130.7764 26 L129.8857 26 L129.8857 22.7344 Q129.8857 21.9531 129.5811 21.5703 Q129.2764 21.1875 128.667 21.1875 Q127.9482 21.1875 127.5264 21.6484 Q127.1045 22.1094 127.1045 22.9062 L127.1045 26 L126.1982 26 L126.1982 20.5312 L127.1045 20.5312 L127.1045 21.375 Q127.4326 20.8906 127.8701 20.6484 Q128.3076 20.4062 128.8701 20.4062 Q129.8076 20.4062 130.292 20.9844 Q130.7764 21.5625 130.7764 22.7031 ZM136.0518 20.6875 L136.0518 21.5469 Q135.6768 21.3438 135.2705 21.25 Q134.8643 21.1562 134.4111 21.1562 Q133.7549 21.1562 133.4189 21.3594 Q133.083 21.5625 133.083 21.9688 Q133.083 22.2812 133.3174 22.4609 Q133.5518 22.6406 134.2861 22.7969 L134.583 22.875 Q135.5518 23.0781 135.9502 23.4531 Q136.3486 23.8281 136.3486 24.4844 Q136.3486 25.25 135.7471 25.6953 Q135.1455 26.1406 134.0986 26.1406 Q133.6455 26.1406 133.1689 26.0547 Q132.6924 25.9688 132.1768 25.7969 L132.1768 24.875 Q132.6768 25.125 133.1533 25.2578 Q133.6299 25.3906 134.1143 25.3906 Q134.7393 25.3906 135.083 25.1719 Q135.4268 24.9531 135.4268 24.5625 Q135.4268 24.1875 135.1846 23.9922 Q134.9424 23.7969 134.0986 23.625 L133.7861 23.5469 Q132.958 23.375 132.583 23.0078 Q132.208 22.6406 132.208 22.0156 Q132.208 21.2344 132.7549 20.8203 Q133.3018 20.4062 134.3174 20.4062 Q134.8018 20.4062 135.2471 20.4766 Q135.6924 20.5469 136.0518 20.6875 Z"
         style="clip-path:url(#clipPath2); stroke:none;"
         clip-path="url(#clipPath2)"
         id="path158" />
    </g>
    <g
       style="fill:navy; text-rendering:geometricPrecision; font-size:8; stroke:navy;"
       id="g164">
      <text
         x="240"
         xml:space="preserve"
         y="15"
         style="clip-path:url(#clipPath4); stroke:none;"
         clip-path="url(#clipPath4)"
         id="text162">1</text>
    </g>
    <g
       style="text-rendering:geometricPrecision;"
       id="g172">
      <path
         d="M221.8712 364.75 L295.1593 416.7365"
         style="fill:none; clip-path:url(#clipPath5);"
         clip-path="url(#clipPath5)"
         id="path166" />
      <path
         d="M298.1678 412.4952 L304.7022 423.5057 L292.1507 420.9778 Z"
         style="fill:white; clip-path:url(#clipPath5); stroke:none;"
         clip-path="url(#clipPath5)"
         id="path168" />
      <path
         d="M298.1678 412.4952 L304.7022 423.5057 L292.1507 420.9778 Z"
         style="fill:none; clip-path:url(#clipPath5);"
         clip-path="url(#clipPath5)"
         id="path170" />
    </g>
    <g
       style="text-rendering:geometricPrecision;"
       id="g180">
      <path
         d="M634.0004 222.1667 L634.0004 244.1667"
         style="fill:none; clip-path:url(#clipPath6);"
         clip-path="url(#clipPath6)"
         id="path174" />
      <path
         d="M639.2004 244.1667 L634.0004 255.8667 L628.8004 244.1667 Z"
         style="fill:white; clip-path:url(#clipPath6); stroke:none;"
         clip-path="url(#clipPath6)"
         id="path176" />
      <path
         d="M639.2004 244.1667 L634.0004 255.8667 L628.8004 244.1667 Z"
         style="fill:none; clip-path:url(#clipPath6);"
         clip-path="url(#clipPath6)"
         id="path178" />
    </g>
    <g
       style="text-rendering:geometricPrecision;"
       id="g188">
      <path
         d="M634.0004 394.1667 L633.0883 487.5732"
         style="fill:none; clip-path:url(#clipPath7);"
         clip-path="url(#clipPath7)"
         id="path182" />
      <path
         d="M638.288 487.6239 L632.974 499.2726 L627.8885 487.5224 Z"
         style="fill:white; clip-path:url(#clipPath7); stroke:none;"
         clip-path="url(#clipPath7)"
         id="path184" />
      <path
         d="M638.288 487.6239 L632.974 499.2726 L627.8885 487.5224 Z"
         style="fill:none; clip-path:url(#clipPath7);"
         clip-path="url(#clipPath7)"
         id="path186" />
    </g>
    <g
       style="text-rendering:geometricPrecision;"
       id="g196">
      <path
         d="M635.5 60.5 L634.2771 100.2543"
         style="fill:none; clip-path:url(#clipPath8);"
         clip-path="url(#clipPath8)"
         id="path190" />
      <path
         d="M639.4746 100.4141 L633.9174 111.9487 L629.0795 100.0944 Z"
         style="fill:white; clip-path:url(#clipPath8); stroke:none;"
         clip-path="url(#clipPath8)"
         id="path192" />
      <path
         d="M639.4746 100.4141 L633.9174 111.9487 L629.0795 100.0944 Z"
         style="fill:none; clip-path:url(#clipPath8);"
         clip-path="url(#clipPath8)"
         id="path194" />
    </g>
    <g
       style="text-rendering:geometricPrecision;"
       id="g202">
      <path
         d="M199.3712 285.25 L199.3712 339.75"
         style="fill:none; clip-path:url(#clipPath9);"
         clip-path="url(#clipPath9)"
         id="path198" />
      <path
         d="M199.3712 339.75 L204.5712 328.05 L199.3712 334.55 L194.1712 328.05 Z"
         style="clip-path:url(#clipPath9); stroke:none;"
         clip-path="url(#clipPath9)"
         id="path200" />
    </g>
    <g
       style="text-rendering:geometricPrecision;"
       id="g210">
      <path
         d="M679.0004 121.75 L996.8505 121.75 M996.8505 121.75 L996.8505 174"
         style="fill:none; clip-path:url(#clipPath10);"
         clip-path="url(#clipPath10)"
         id="path204" />
      <path
         d="M1002.0505 174 L996.8505 185.7 L991.6505 174 Z"
         style="fill:white; clip-path:url(#clipPath10); stroke:none;"
         clip-path="url(#clipPath10)"
         id="path206" />
      <path
         d="M1002.0505 174 L996.8505 185.7 L991.6505 174 Z"
         style="fill:none; clip-path:url(#clipPath10);"
         clip-path="url(#clipPath10)"
         id="path208" />
    </g>
    <g
       style="text-rendering:geometricPrecision;"
       id="g218">
      <path
         d="M589.0004 128 L569.0004 128 M569.0004 128 L569.0004 180 M569.0004 180 L251.3712 180"
         style="fill:none; clip-path:url(#clipPath11);"
         clip-path="url(#clipPath11)"
         id="path212" />
      <path
         d="M251.3712 189.1 L250.0712 189.1 L250.0712 169.6 L251.3712 169.6 L251.3712 189.1 Z"
         style="fill:white; clip-path:url(#clipPath11); stroke:none;"
         clip-path="url(#clipPath11)"
         id="path214" />
      <path
         d="M251.3712 189.1 L250.0712 189.1 L250.0712 169.6 L251.3712 169.6 L251.3712 189.1 Z"
         style="fill:none; clip-path:url(#clipPath11);"
         clip-path="url(#clipPath11)"
         id="path216" />
    </g>
    <g
       style="text-rendering:geometricPrecision;"
       id="g224">
      <path
         d="M199.3712 198.75 L199.3712 260.25"
         style="fill:none; clip-path:url(#clipPath12);"
         clip-path="url(#clipPath12)"
         id="path220" />
      <path
         d="M199.3712 260.25 L204.5712 248.55 L199.3712 255.05 L194.1712 248.55 Z"
         style="clip-path:url(#clipPath12); stroke:none;"
         clip-path="url(#clipPath12)"
         id="path222" />
    </g>
    <g
       style="text-rendering:geometricPrecision;"
       id="g232">
      <path
         d="M634.0004 336.8333 L634.0004 360.1667"
         style="fill:none; clip-path:url(#clipPath13);"
         clip-path="url(#clipPath13)"
         id="path226" />
      <path
         d="M639.2004 360.1667 L634.0004 371.8667 L628.8004 360.1667 Z"
         style="fill:white; clip-path:url(#clipPath13); stroke:none;"
         clip-path="url(#clipPath13)"
         id="path228" />
      <path
         d="M639.2004 360.1667 L634.0004 371.8667 L628.8004 360.1667 Z"
         style="fill:none; clip-path:url(#clipPath13);"
         clip-path="url(#clipPath13)"
         id="path230" />
    </g>
    <g
       style="text-rendering:geometricPrecision;"
       id="g240">
      <path
         d="M95.3712 446.9436 L95.3712 509.0728 M95.3712 509.0728 L194 509.0728"
         style="fill:none; clip-path:url(#clipPath14);"
         clip-path="url(#clipPath14)"
         id="path234" />
      <path
         d="M194 499.9727 L195.3 499.9727 L195.3 519.4727 L194 519.4727 L194 499.9727 Z"
         style="fill:white; clip-path:url(#clipPath14); stroke:none;"
         clip-path="url(#clipPath14)"
         id="path236" />
      <path
         d="M194 499.9727 L195.3 499.9727 L195.3 519.4727 L194 519.4727 L194 499.9727 Z"
         style="fill:none; clip-path:url(#clipPath14);"
         clip-path="url(#clipPath14)"
         id="path238" />
    </g>
    <g
       style="text-rendering:geometricPrecision;"
       id="g248">
      <path
         d="M634.0004 134.25 L634.0004 188.1667"
         style="fill:none; clip-path:url(#clipPath15);"
         clip-path="url(#clipPath15)"
         id="path242" />
      <path
         d="M639.2004 188.1667 L634.0004 199.8667 L628.8004 188.1667 Z"
         style="fill:white; clip-path:url(#clipPath15); stroke:none;"
         clip-path="url(#clipPath15)"
         id="path244" />
      <path
         d="M639.2004 188.1667 L634.0004 199.8667 L628.8004 188.1667 Z"
         style="fill:none; clip-path:url(#clipPath15);"
         clip-path="url(#clipPath15)"
         id="path246" />
    </g>
    <g
       style="text-rendering:geometricPrecision;"
       id="g256">
      <path
         d="M404 509.0728 L579.0004 509.0728"
         style="fill:none; clip-path:url(#clipPath16);"
         clip-path="url(#clipPath16)"
         id="path250" />
      <path
         d="M579.0004 503.8727 L590.7004 509.0728 L579.0004 514.2728 Z"
         style="fill:white; clip-path:url(#clipPath16); stroke:none;"
         clip-path="url(#clipPath16)"
         id="path252" />
      <path
         d="M579.0004 503.8727 L590.7004 509.0728 L579.0004 514.2728 Z"
         style="fill:none; clip-path:url(#clipPath16);"
         clip-path="url(#clipPath16)"
         id="path254" />
    </g>
    <g
       style="text-rendering:geometricPrecision;"
       id="g264">
      <path
         d="M302.5 446.9436 L302.5 487.8228"
         style="fill:none; clip-path:url(#clipPath17);"
         clip-path="url(#clipPath17)"
         id="path258" />
      <path
         d="M311.6 487.8228 L311.6 489.1227 L292.1 489.1227 L292.1 487.8228 L311.6 487.8228 Z"
         style="fill:white; clip-path:url(#clipPath17); stroke:none;"
         clip-path="url(#clipPath17)"
         id="path260" />
      <path
         d="M311.6 487.8228 L311.6 489.1227 L292.1 489.1227 L292.1 487.8228 L311.6 487.8228 Z"
         style="fill:none; clip-path:url(#clipPath17);"
         clip-path="url(#clipPath17)"
         id="path262" />
    </g>
    <g
       style="text-rendering:geometricPrecision;"
       id="g272">
      <path
         d="M996.8505 215 L996.8505 308"
         style="fill:none; clip-path:url(#clipPath18);"
         clip-path="url(#clipPath18)"
         id="path266" />
      <path
         d="M1002.0505 308 L996.8505 319.7 L991.6505 308 Z"
         style="fill:white; clip-path:url(#clipPath18); stroke:none;"
         clip-path="url(#clipPath18)"
         id="path268" />
      <path
         d="M1002.0505 308 L996.8505 319.7 L991.6505 308 Z"
         style="fill:none; clip-path:url(#clipPath18);"
         clip-path="url(#clipPath18)"
         id="path270" />
    </g>
    <g
       style="text-rendering:geometricPrecision;"
       id="g280">
      <path
         d="M996.8505 345.5 L995.9099 487.8229"
         style="fill:none; clip-path:url(#clipPath19);"
         clip-path="url(#clipPath19)"
         id="path274" />
      <path
         d="M1001.1098 487.8573 L995.8326 499.5227 L990.71 487.7886 Z"
         style="fill:white; clip-path:url(#clipPath19); stroke:none;"
         clip-path="url(#clipPath19)"
         id="path276" />
      <path
         d="M1001.1098 487.8573 L995.8326 499.5227 L990.71 487.7886 Z"
         style="fill:none; clip-path:url(#clipPath19);"
         clip-path="url(#clipPath19)"
         id="path278" />
    </g>
    <g
       style="text-rendering:geometricPrecision;"
       id="g288">
      <path
         d="M633.0004 521.5728 L633.7428 547.5037"
         style="fill:none; clip-path:url(#clipPath20);"
         clip-path="url(#clipPath20)"
         id="path282" />
      <path
         d="M638.9407 547.3549 L634.0776 559.1989 L628.5449 547.6525 Z"
         style="fill:white; clip-path:url(#clipPath20); stroke:none;"
         clip-path="url(#clipPath20)"
         id="path284" />
      <path
         d="M638.9407 547.3549 L634.0776 559.1989 L628.5449 547.6525 Z"
         style="fill:none; clip-path:url(#clipPath20);"
         clip-path="url(#clipPath20)"
         id="path286" />
    </g>
    <g
       style="text-rendering:geometricPrecision;"
       id="g296">
      <path
         d="M217.1856 86.0833 L237.1856 86.0833 M237.1856 86.0833 L237.1856 48 M237.1856 48 L558 48"
         style="fill:none; clip-path:url(#clipPath21);"
         clip-path="url(#clipPath21)"
         id="path290" />
      <path
         d="M558 38.9 L559.3 38.9 L559.3 58.4 L558 58.4 L558 38.9 Z"
         style="fill:white; clip-path:url(#clipPath21); stroke:none;"
         clip-path="url(#clipPath21)"
         id="path292" />
      <path
         d="M558 38.9 L559.3 38.9 L559.3 58.4 L558 58.4 L558 38.9 Z"
         style="fill:none; clip-path:url(#clipPath21);"
         clip-path="url(#clipPath21)"
         id="path294" />
    </g>
    <g
       style="text-rendering:geometricPrecision;"
       id="g304">
      <path
         d="M302.5 523.3228 L302.5 569 M302.5 569 L580.0004 569"
         style="fill:none; clip-path:url(#clipPath22);"
         clip-path="url(#clipPath22)"
         id="path298" />
      <path
         d="M580.0004 563.8 L591.7004 569 L580.0004 574.2 Z"
         style="fill:white; clip-path:url(#clipPath22); stroke:none;"
         clip-path="url(#clipPath22)"
         id="path300" />
      <path
         d="M580.0004 563.8 L591.7004 569 L580.0004 574.2 Z"
         style="fill:none; clip-path:url(#clipPath22);"
         clip-path="url(#clipPath22)"
         id="path302" />
    </g>
    <g
       style="text-rendering:geometricPrecision;"
       id="g312">
      <path
         d="M217.1856 92.3333 L237.1856 92.3333 M237.1856 92.3333 L237.1856 121.75 M237.1856 121.75 L582.0004 121.75"
         style="fill:none; clip-path:url(#clipPath23);"
         clip-path="url(#clipPath23)"
         id="path306" />
      <path
         d="M582.0004 112.65 L583.3004 112.65 L583.3004 132.15 L582.0004 132.15 L582.0004 112.65 Z"
         style="fill:white; clip-path:url(#clipPath23); stroke:none;"
         clip-path="url(#clipPath23)"
         id="path308" />
      <path
         d="M582.0004 112.65 L583.3004 112.65 L583.3004 132.15 L582.0004 132.15 L582.0004 112.65 Z"
         style="fill:none; clip-path:url(#clipPath23);"
         clip-path="url(#clipPath23)"
         id="path310" />
    </g>
    <g
       style="text-rendering:geometricPrecision;"
       id="g320">
      <path
         d="M176.8712 364.75 L102.7381 416.7737"
         style="fill:none; clip-path:url(#clipPath24);"
         clip-path="url(#clipPath24)"
         id="path314" />
      <path
         d="M105.7252 421.0302 L93.1611 423.4946 L99.7511 412.5173 Z"
         style="fill:white; clip-path:url(#clipPath24); stroke:none;"
         clip-path="url(#clipPath24)"
         id="path316" />
      <path
         d="M105.7252 421.0302 L93.1611 423.4946 L99.7511 412.5173 Z"
         style="fill:none; clip-path:url(#clipPath24);"
         clip-path="url(#clipPath24)"
         id="path318" />
    </g>
    <g
       style="text-rendering:geometricPrecision;"
       id="g328">
      <path
         d="M903.8505 509.0728 L687.0004 509.0728"
         style="fill:none; clip-path:url(#clipPath25);"
         clip-path="url(#clipPath25)"
         id="path322" />
      <path
         d="M687.0004 514.2728 L675.3004 509.0728 L687.0004 503.8727 Z"
         style="fill:white; clip-path:url(#clipPath25); stroke:none;"
         clip-path="url(#clipPath25)"
         id="path324" />
      <path
         d="M687.0004 514.2728 L675.3004 509.0728 L687.0004 503.8727 Z"
         style="fill:none; clip-path:url(#clipPath25);"
         clip-path="url(#clipPath25)"
         id="path326" />
    </g>
    <g
       style="text-rendering:geometricPrecision;"
       id="g336">
      <path
         d="M634.0004 278.1667 L634.0004 302.8333"
         style="fill:none; clip-path:url(#clipPath26);"
         clip-path="url(#clipPath26)"
         id="path330" />
      <path
         d="M639.2004 302.8333 L634.0004 314.5333 L628.8004 302.8333 Z"
         style="fill:white; clip-path:url(#clipPath26); stroke:none;"
         clip-path="url(#clipPath26)"
         id="path332" />
      <path
         d="M639.2004 302.8333 L634.0004 314.5333 L628.8004 302.8333 Z"
         style="fill:none; clip-path:url(#clipPath26);"
         clip-path="url(#clipPath26)"
         id="path334" />
    </g>
    <g
       style="text-rendering:geometricPrecision;"
       id="g344">
      <path
         d="M995.8505 521.3228 L995.8505 569 M995.8505 569 L688.0004 569"
         style="fill:none; clip-path:url(#clipPath27);"
         clip-path="url(#clipPath27)"
         id="path338" />
      <path
         d="M688.0004 574.2 L676.3004 569 L688.0004 563.8 Z"
         style="fill:white; clip-path:url(#clipPath27); stroke:none;"
         clip-path="url(#clipPath27)"
         id="path340" />
      <path
         d="M688.0004 574.2 L676.3004 569 L688.0004 563.8 Z"
         style="fill:none; clip-path:url(#clipPath27);"
         clip-path="url(#clipPath27)"
         id="path342" />
    </g>
    <g
       style="text-rendering:geometricPrecision;"
       id="g352">
      <path
         d="M872 48 L715 48"
         style="fill:none; clip-path:url(#clipPath28);"
         clip-path="url(#clipPath28)"
         id="path346" />
      <path
         d="M715 53.2 L703.3 48 L715 42.8 Z"
         style="fill:white; clip-path:url(#clipPath28); stroke:none;"
         clip-path="url(#clipPath28)"
         id="path348" />
      <path
         d="M715 53.2 L703.3 48 L715 42.8 Z"
         style="fill:none; clip-path:url(#clipPath28);"
         clip-path="url(#clipPath28)"
         id="path350" />
    </g>
    <g
       style="fill:silver; text-rendering:geometricPrecision; stroke-width:3; stroke:silver;"
       id="g356">
      <path
         d="M563.8642 248.7428 C554.8209 249.3136 556.3712 230.5782 547.3433 231.2661 C530.2305 230.8298 540.4722 260.8235 526.1582 260.6836 C511.7422 260.5414 522.2575 228.9733 507.8518 229.1696 C492.0499 229.3884 505.9819 263.899 490.1841 264.252 C474.2442 264.6045 484.9444 230.2995 469.0045 229.7276 C455.464 229.2386 462.0549 258.7495 448.5575 257.6695 C433.6998 256.4815 447.9284 226.1443 433.253 223.873 C423.4608 222.3585 423.6529 242.9227 413.778 241.8262 C390.9496 233.2876 396.8721 201.6228 419.3996 194.8234 C425.9106 194.2394 427.3432 206.0987 433.8663 205.6229 C445.4559 204.7797 442.6599 182.3022 454.2766 183.0898 C465.1001 183.8267 458.3407 206.0319 469.1878 206.3843 C483.5852 206.8498 476.854 176.0292 491.2364 176.821 C503.9302 177.5174 494.1945 203.2335 506.7684 204.8428 C518.4922 206.3417 518.4473 181.7098 530.0936 183.5568 C542.978 185.5993 530.4011 211.7264 543.3805 213.2929 C551.0766 214.2212 549.217 198.2253 556.989 198.2573 C585.8311 205.2056 588.573 240.9247 563.8642 248.7428 ZM490.4369 271.7557 C451.7793 270.7579 392.6403 251.4959 392.996 220.5511 C393.3515 189.4575 453.2061 171.3295 492.052 172.2209 C531.4404 173.128 591.3765 194.2869 590.1729 225.7979 C588.9966 256.6213 528.9634 272.7474 490.4369 271.7557 Z"
         style="fill:none; clip-path:url(#clipPath29);"
         clip-path="url(#clipPath29)"
         id="path354" />
    </g>
    <g
       style="text-rendering:geometricPrecision;"
       id="g360">
      <text
         x="899"
         xml:space="preserve"
         y="513"
         style="clip-path:url(#clipPath30); stroke:none;"
         clip-path="url(#clipPath30)"
         id="text358">Ovarian structural degeneration</text>
    </g>
    <g
       style="text-rendering:geometricPrecision;"
       id="g364">
      <text
         x="929"
         xml:space="preserve"
         y="336"
         style="clip-path:url(#clipPath31); stroke:none;"
         clip-path="url(#clipPath31)"
         id="text362">Size of ovaries decline</text>
    </g>
    <g
       style="text-rendering:geometricPrecision;"
       id="g368">
      <text
         x="604"
         xml:space="preserve"
         y="513"
         style="clip-path:url(#clipPath32); stroke:none;"
         clip-path="url(#clipPath32)"
         id="text366">Apoptosis</text>
    </g>
    <g
       style="text-rendering:geometricPrecision;"
       id="g372">
      <text
         x="590"
         xml:space="preserve"
         y="573"
         style="clip-path:url(#clipPath33); stroke:none;"
         clip-path="url(#clipPath33)"
         id="text370">Ovarian failure</text>
    </g>
    <g
       style="text-rendering:geometricPrecision;"
       id="g376">
      <text
         x="205"
         xml:space="preserve"
         y="513"
         style="clip-path:url(#clipPath34); stroke:none;"
         clip-path="url(#clipPath34)"
         id="text374">Ovarian functional degeneration</text>
    </g>
    <g
       style="text-rendering:geometricPrecision;"
       id="g380">
      <text
         x="846"
         xml:space="preserve"
         y="203"
         style="clip-path:url(#clipPath35); stroke:none;"
         clip-path="url(#clipPath35)"
         id="text378">The number of follicles and Corpora lutea declines</text>
    </g>
    <g
       style="text-rendering:geometricPrecision;"
       id="g384">
      <text
         x="900"
         xml:space="preserve"
         y="52"
         style="clip-path:url(#clipPath36); stroke:none;"
         clip-path="url(#clipPath36)"
         id="text382">Aging</text>
    </g>
    <g
       style="fill:white; text-rendering:geometricPrecision; stroke:white;"
       id="g392">
      <path
         d="M154.3712 260.25 L244.3712 260.25 L244.3712 285.25 L154.3712 285.25 L154.3712 260.25 Z"
         style="clip-path:url(#clipPath37); stroke:none;"
         clip-path="url(#clipPath37)"
         id="path386" />
      <path
         d="M154.3712 260.25 L244.3712 260.25 L244.3712 285.25 L154.3712 285.25 L154.3712 260.25 Z"
         style="fill:none; clip-path:url(#clipPath37); stroke:black;"
         clip-path="url(#clipPath37)"
         id="path388" />
      <text
         x="172"
         y="277"
         style="fill:black; clip-path:url(#clipPath37); stroke:none;"
         xml:space="preserve"
         clip-path="url(#clipPath37)"
         id="text390">CYP11A1</text>
    </g>
    <g
       style="fill:white; text-rendering:geometricPrecision; stroke:white;"
       id="g400">
      <path
         d="M565 35.5 L706 35.5 L706 60.5 L565 60.5 L565 35.5 Z"
         style="clip-path:url(#clipPath38); stroke:none;"
         clip-path="url(#clipPath38)"
         id="path394" />
      <path
         d="M565 35.5 L706 35.5 L706 60.5 L565 60.5 L565 35.5 Z"
         style="fill:none; clip-path:url(#clipPath38); stroke:blue;"
         clip-path="url(#clipPath38)"
         id="path396" />
      <text
         x="559"
         y="52"
         style="fill:blue; clip-path:url(#clipPath38); stroke:none;"
         xml:space="preserve"
         clip-path="url(#clipPath38)"
         id="text398">Reactive oxygen species </text>
    </g>
    <g
       style="fill:white; text-rendering:geometricPrecision; stroke:white;"
       id="g408">
      <path
         d="M589.0004 197.1667 L679.0004 197.1667 L679.0004 222.1667 L589.0004 222.1667 L589.0004 197.1667 Z"
         style="clip-path:url(#clipPath39); stroke:none;"
         clip-path="url(#clipPath39)"
         id="path402" />
      <path
         d="M589.0004 197.1667 L679.0004 197.1667 L679.0004 222.1667 L589.0004 222.1667 L589.0004 197.1667 Z"
         style="fill:none; clip-path:url(#clipPath39); stroke:black;"
         clip-path="url(#clipPath39)"
         id="path404" />
      <text
         x="622"
         y="214"
         style="fill:black; clip-path:url(#clipPath39); stroke:none;"
         xml:space="preserve"
         clip-path="url(#clipPath39)"
         id="text406">BAX</text>
    </g>
    <g
       style="fill:white; text-rendering:geometricPrecision; stroke:white;"
       id="g416">
      <path
         d="M589.0004 109.25 L679.0004 109.25 L679.0004 134.25 L589.0004 134.25 L589.0004 109.25 Z"
         style="clip-path:url(#clipPath40); stroke:none;"
         clip-path="url(#clipPath40)"
         id="path410" />
      <path
         d="M589.0004 109.25 L679.0004 109.25 L679.0004 134.25 L589.0004 134.25 L589.0004 109.25 Z"
         style="fill:none; clip-path:url(#clipPath40); stroke:black;"
         clip-path="url(#clipPath40)"
         id="path412" />
      <text
         x="624"
         y="126"
         style="fill:black; clip-path:url(#clipPath40); stroke:none;"
         xml:space="preserve"
         clip-path="url(#clipPath40)"
         id="text414">JNK</text>
    </g>
    <g
       style="fill:white; text-rendering:geometricPrecision; stroke:white;"
       id="g424">
      <path
         d="M257.5 421.9436 L347.5 421.9436 L347.5 446.9436 L257.5 446.9436 L257.5 421.9436 Z"
         style="clip-path:url(#clipPath41); stroke:none;"
         clip-path="url(#clipPath41)"
         id="path418" />
      <path
         d="M257.5 421.9436 L347.5 421.9436 L347.5 446.9436 L257.5 446.9436 L257.5 421.9436 Z"
         style="fill:none; clip-path:url(#clipPath41); stroke:blue;"
         clip-path="url(#clipPath41)"
         id="path420" />
      <text
         x="253"
         y="438"
         style="fill:blue; clip-path:url(#clipPath41); stroke:none;"
         xml:space="preserve"
         clip-path="url(#clipPath41)"
         id="text422">Estradiol-17beta</text>
    </g>
    <g
       style="fill:white; text-rendering:geometricPrecision; stroke:white;"
       id="g432">
      <path
         d="M589.0004 369.1667 L679.0004 369.1667 L679.0004 394.1667 L589.0004 394.1667 L589.0004 369.1667 Z"
         style="clip-path:url(#clipPath42); stroke:none;"
         clip-path="url(#clipPath42)"
         id="path426" />
      <path
         d="M589.0004 369.1667 L679.0004 369.1667 L679.0004 394.1667 L589.0004 394.1667 L589.0004 369.1667 Z"
         style="fill:none; clip-path:url(#clipPath42); stroke:black;"
         clip-path="url(#clipPath42)"
         id="path428" />
      <text
         x="615"
         y="386"
         style="fill:black; clip-path:url(#clipPath42); stroke:none;"
         xml:space="preserve"
         clip-path="url(#clipPath42)"
         id="text430">PARP2</text>
    </g>
    <g
       style="fill:white; text-rendering:geometricPrecision; stroke:white;"
       id="g440">
      <path
         d="M127.1856 79.8333 L217.1856 79.8333 L217.1856 104.8333 L127.1856 104.8333 L127.1856 79.8333 Z"
         style="clip-path:url(#clipPath43); stroke:none;"
         clip-path="url(#clipPath43)"
         id="path434" />
      <path
         d="M127.1856 79.8333 L217.1856 79.8333 L217.1856 104.8333 L127.1856 104.8333 L127.1856 79.8333 Z"
         style="fill:none; clip-path:url(#clipPath43); stroke:black;"
         clip-path="url(#clipPath43)"
         id="path436" />
      <text
         x="125"
         y="96"
         style="fill:black; clip-path:url(#clipPath43); stroke:none;"
         xml:space="preserve"
         clip-path="url(#clipPath43)"
         id="text438">Peroxiredoxin-2</text>
    </g>
    <g
       style="fill:white; text-rendering:geometricPrecision; stroke:white;"
       id="g448">
      <path
         d="M154.3712 173.75 L244.3712 173.75 L244.3712 198.75 L154.3712 198.75 L154.3712 173.75 Z"
         style="clip-path:url(#clipPath44); stroke:none;"
         clip-path="url(#clipPath44)"
         id="path442" />
      <path
         d="M154.3712 173.75 L244.3712 173.75 L244.3712 198.75 L154.3712 198.75 L154.3712 173.75 Z"
         style="fill:none; clip-path:url(#clipPath44); stroke:black;"
         clip-path="url(#clipPath44)"
         id="path444" />
      <text
         x="184"
         y="190"
         style="fill:black; clip-path:url(#clipPath44); stroke:none;"
         xml:space="preserve"
         clip-path="url(#clipPath44)"
         id="text446">STAR</text>
    </g>
    <g
       style="fill:white; text-rendering:geometricPrecision; stroke:white;"
       id="g456">
      <path
         d="M50.3712 421.9436 L140.3712 421.9436 L140.3712 446.9436 L50.3712 446.9436 L50.3712 421.9436 Z"
         style="clip-path:url(#clipPath45); stroke:none;"
         clip-path="url(#clipPath45)"
         id="path450" />
      <path
         d="M50.3712 421.9436 L140.3712 421.9436 L140.3712 446.9436 L50.3712 446.9436 L50.3712 421.9436 Z"
         style="fill:none; clip-path:url(#clipPath45); stroke:blue;"
         clip-path="url(#clipPath45)"
         id="path452" />
      <text
         x="55"
         y="438"
         style="fill:blue; clip-path:url(#clipPath45); stroke:none;"
         xml:space="preserve"
         clip-path="url(#clipPath45)"
         id="text454">Progesterone</text>
    </g>
    <g
       style="fill:white; text-rendering:geometricPrecision; stroke:white;"
       id="g464">
      <path
         d="M589.0004 311.8333 L679.0004 311.8333 L679.0004 336.8333 L589.0004 336.8333 L589.0004 311.8333 Z"
         style="clip-path:url(#clipPath46); stroke:none;"
         clip-path="url(#clipPath46)"
         id="path458" />
      <path
         d="M589.0004 311.8333 L679.0004 311.8333 L679.0004 336.8333 L589.0004 336.8333 L589.0004 311.8333 Z"
         style="fill:none; clip-path:url(#clipPath46); stroke:black;"
         clip-path="url(#clipPath46)"
         id="path460" />
      <text
         x="615"
         y="328"
         style="fill:black; clip-path:url(#clipPath46); stroke:none;"
         xml:space="preserve"
         clip-path="url(#clipPath46)"
         id="text462">CASP3</text>
    </g>
    <g
       style="fill:white; text-rendering:geometricPrecision; stroke:white;"
       id="g472">
      <path
         d="M589.0004 253.1667 L679.0004 253.1667 L679.0004 278.1667 L589.0004 278.1667 L589.0004 253.1667 Z"
         style="clip-path:url(#clipPath47); stroke:none;"
         clip-path="url(#clipPath47)"
         id="path466" />
      <path
         d="M589.0004 253.1667 L679.0004 253.1667 L679.0004 278.1667 L589.0004 278.1667 L589.0004 253.1667 Z"
         style="fill:none; clip-path:url(#clipPath47); stroke:black;"
         clip-path="url(#clipPath47)"
         id="path468" />
      <text
         x="592"
         y="270"
         style="fill:black; clip-path:url(#clipPath47); stroke:none;"
         xml:space="preserve"
         clip-path="url(#clipPath47)"
         id="text470">Cytochrome C</text>
    </g>
    <g
       style="fill:white; text-rendering:geometricPrecision; stroke:white;"
       id="g480">
      <path
         d="M154.3712 339.75 L244.3712 339.75 L244.3712 364.75 L154.3712 364.75 L154.3712 339.75 Z"
         style="clip-path:url(#clipPath48); stroke:none;"
         clip-path="url(#clipPath48)"
         id="path474" />
      <path
         d="M154.3712 339.75 L244.3712 339.75 L244.3712 364.75 L154.3712 364.75 L154.3712 339.75 Z"
         style="fill:none; clip-path:url(#clipPath48); stroke:black;"
         clip-path="url(#clipPath48)"
         id="path476" />
      <text
         x="175"
         y="356"
         style="fill:black; clip-path:url(#clipPath48); stroke:none;"
         xml:space="preserve"
         clip-path="url(#clipPath48)"
         id="text478">HSD3B2</text>
    </g>
  </g>
</svg>
