<?xml version="1.0" encoding="UTF-8" standalone="no"?>
<svg
   style="fill-opacity:1; color-rendering:auto; color-interpolation:auto; stroke:black; text-rendering:auto; stroke-linecap:square; stroke-miterlimit:10; stroke-opacity:1; shape-rendering:auto; fill:black; stroke-dasharray:none; font-weight:normal; stroke-width:1; font-family:'Dialog'; font-style:normal; stroke-linejoin:miter; font-size:12; stroke-dashoffset:0; image-rendering:auto;"
   width="794"
   height="577"
   version="1.1"
   id="svg452"
   xmlns="http://www.w3.org/2000/svg"
   xmlns:svg="http://www.w3.org/2000/svg">
  <!--Generated by the Batik Graphics2D SVG Generator-->
  <defs
     id="genericDefs" />
  <g
     id="g450">
    <defs
       id="defs1">
      <clipPath
         clipPathUnits="userSpaceOnUse"
         id="clipPath1">
        <path
           d="M0 0 L798 0 L798 577 L0 577 L0 0 Z"
           id="path3" />
      </clipPath>
      <clipPath
         clipPathUnits="userSpaceOnUse"
         id="clipPath2">
        <path
           d="M0 0 L0 200 L200 200 L200 0 Z"
           id="path6" />
      </clipPath>
      <clipPath
         clipPathUnits="userSpaceOnUse"
         id="clipPath3">
        <path
           d="M444 16 L444 37 L455 37 L455 16 Z"
           id="path9" />
      </clipPath>
      <clipPath
         clipPathUnits="userSpaceOnUse"
         id="clipPath4">
        <path
           d="M443.4551 3.918 L454.5449 3.918 L454.5449 19.2305 L443.4551 19.2305 L443.4551 3.918 Z"
           id="path12" />
      </clipPath>
      <clipPath
         clipPathUnits="userSpaceOnUse"
         id="clipPath5">
        <path
           d="M632 256.5 L632 330.5 L780 330.5 L780 256.5 Z"
           id="path15" />
      </clipPath>
      <clipPath
         clipPathUnits="userSpaceOnUse"
         id="clipPath6">
        <path
           d="M374 237.5 L374 311.5 L461 311.5 L461 237.5 Z"
           id="path18" />
      </clipPath>
      <clipPath
         clipPathUnits="userSpaceOnUse"
         id="clipPath7">
        <path
           d="M126 308.5 L126 407.5 L238 407.5 L238 308.5 Z"
           id="path21" />
      </clipPath>
      <clipPath
         clipPathUnits="userSpaceOnUse"
         id="clipPath8">
        <path
           d="M428.0306 453 L428.0306 516.7311 L439.9694 516.7311 L439.9694 453 Z"
           id="path24" />
      </clipPath>
      <clipPath
         clipPathUnits="userSpaceOnUse"
         id="clipPath9">
        <path
           d="M235.4951 357.4951 L235.4951 563.5049 L574.2842 563.5049 L574.2842 357.4951 Z"
           id="path27" />
      </clipPath>
      <clipPath
         clipPathUnits="userSpaceOnUse"
         id="clipPath10">
        <path
           d="M702.5 317.2689 L702.5 403.5 L744.2315 403.5 L744.2315 317.2689 Z"
           id="path30" />
      </clipPath>
      <clipPath
         clipPathUnits="userSpaceOnUse"
         id="clipPath11">
        <path
           d="M171.1316 265.3331 L171.1316 303.3581 L191.6451 303.3581 L191.6451 265.3331 Z"
           id="path33" />
      </clipPath>
      <clipPath
         clipPathUnits="userSpaceOnUse"
         id="clipPath12">
        <path
           d="M700.0306 209.7689 L700.0306 257 L711.9694 257 L711.9694 209.7689 Z"
           id="path36" />
      </clipPath>
      <clipPath
         clipPathUnits="userSpaceOnUse"
         id="clipPath13">
        <path
           d="M412.2025 310.9968 L412.2025 429.7311 L424.1411 429.7311 L424.1411 310.9968 Z"
           id="path39" />
      </clipPath>
      <clipPath
         clipPathUnits="userSpaceOnUse"
         id="clipPath14">
        <path
           d="M237.4992 352.592 L237.4992 363.992 L418.7 363.992 L418.7 352.592 Z"
           id="path42" />
      </clipPath>
      <clipPath
         clipPathUnits="userSpaceOnUse"
         id="clipPath15">
        <path
           d="M524.5 397.0306 L524.5 408.9694 L641.2311 408.9694 L641.2311 397.0306 Z"
           id="path45" />
      </clipPath>
      <clipPath
         clipPathUnits="userSpaceOnUse"
         id="clipPath16">
        <path
           d="M359.5 89.5 L359.5 110.5 L473.5 110.5 L473.5 89.5 Z"
           id="path48" />
      </clipPath>
      <clipPath
         clipPathUnits="userSpaceOnUse"
         id="clipPath17">
        <path
           d="M96.5 91.5 L96.5 112.5 L266.5 112.5 L266.5 91.5 Z"
           id="path51" />
      </clipPath>
      <clipPath
         clipPathUnits="userSpaceOnUse"
         id="clipPath18">
        <path
           d="M111.5 132.5 L111.5 153.5 L240.5 153.5 L240.5 132.5 Z"
           id="path54" />
      </clipPath>
      <clipPath
         clipPathUnits="userSpaceOnUse"
         id="clipPath19">
        <path
           d="M373.5 515 L373.5 547.5 L494.5 547.5 L494.5 515 Z"
           id="path57" />
      </clipPath>
      <clipPath
         clipPathUnits="userSpaceOnUse"
         id="clipPath20">
        <path
           d="M117.5 182.3361 L117.5 208.3361 L182.7577 208.3361 L182.7577 182.3361 Z"
           id="path60" />
      </clipPath>
      <clipPath
         clipPathUnits="userSpaceOnUse"
         id="clipPath21">
        <path
           d="M165.5 320 L165.5 346 L226.5 346 L226.5 320 Z"
           id="path63" />
      </clipPath>
      <clipPath
         clipPathUnits="userSpaceOnUse"
         id="clipPath22">
        <path
           d="M643.5 268 L643.5 294 L706.5 294 L706.5 268 Z"
           id="path66" />
      </clipPath>
      <clipPath
         clipPathUnits="userSpaceOnUse"
         id="clipPath23">
        <path
           d="M385.5 249 L385.5 275 L449.5 275 L449.5 249 Z"
           id="path69" />
      </clipPath>
      <clipPath
         clipPathUnits="userSpaceOnUse"
         id="clipPath24">
        <path
           d="M441 243.5 L441 259.5 L457 259.5 L457 243.5 Z"
           id="path72" />
      </clipPath>
      <clipPath
         clipPathUnits="userSpaceOnUse"
         id="clipPath25">
        <path
           d="M117.5 207.3361 L117.5 233.3361 L182.7577 233.3361 L182.7577 207.3361 Z"
           id="path75" />
      </clipPath>
      <clipPath
         clipPathUnits="userSpaceOnUse"
         id="clipPath26">
        <path
           d="M181.7577 182.3361 L181.7577 208.3361 L247.0154 208.3361 L247.0154 182.3361 Z"
           id="path78" />
      </clipPath>
      <clipPath
         clipPathUnits="userSpaceOnUse"
         id="clipPath27">
        <path
           d="M181.7577 207.3361 L181.7577 233.3361 L247.0154 233.3361 L247.0154 207.3361 Z"
           id="path81" />
      </clipPath>
      <clipPath
         clipPathUnits="userSpaceOnUse"
         id="clipPath28">
        <path
           d="M181.7577 232.3361 L181.7577 258.3361 L247.0154 258.3361 L247.0154 232.3361 Z"
           id="path84" />
      </clipPath>
      <clipPath
         clipPathUnits="userSpaceOnUse"
         id="clipPath29">
        <path
           d="M117.5 232.3361 L117.5 258.3361 L182.7577 258.3361 L182.7577 232.3361 Z"
           id="path87" />
      </clipPath>
      <clipPath
         clipPathUnits="userSpaceOnUse"
         id="clipPath30">
        <path
           d="M137.5 345 L137.5 371 L198.5 371 L198.5 345 Z"
           id="path90" />
      </clipPath>
      <clipPath
         clipPathUnits="userSpaceOnUse"
         id="clipPath31">
        <path
           d="M137.5 370 L137.5 396 L198.5 396 L198.5 370 Z"
           id="path93" />
      </clipPath>
      <clipPath
         clipPathUnits="userSpaceOnUse"
         id="clipPath32">
        <path
           d="M385.5 274 L385.5 300 L449.5 300 L449.5 274 Z"
           id="path96" />
      </clipPath>
      <clipPath
         clipPathUnits="userSpaceOnUse"
         id="clipPath33">
        <path
           d="M639.5 390 L639.5 416 L703.5 416 L703.5 390 Z"
           id="path99" />
      </clipPath>
      <clipPath
         clipPathUnits="userSpaceOnUse"
         id="clipPath34">
        <path
           d="M402 428 L402 454 L466 454 L466 428 Z"
           id="path102" />
      </clipPath>
      <clipPath
         clipPathUnits="userSpaceOnUse"
         id="clipPath35">
        <path
           d="M456.5 444.5 L456.5 462.5 L474.5 462.5 L474.5 444.5 Z"
           id="path105" />
      </clipPath>
      <clipPath
         clipPathUnits="userSpaceOnUse"
         id="clipPath36">
        <path
           d="M115.5 76 L115.5 101.5 L236.5 101.5 L236.5 76 Z"
           id="path108" />
      </clipPath>
      <clipPath
         clipPathUnits="userSpaceOnUse"
         id="clipPath37">
        <path
           d="M356.5 75 L356.5 100.5 L477.5 100.5 L477.5 75 Z"
           id="path111" />
      </clipPath>
      <clipPath
         clipPathUnits="userSpaceOnUse"
         id="clipPath38">
        <path
           d="M638.5 75 L638.5 100.5 L759.5 100.5 L759.5 75 Z"
           id="path114" />
      </clipPath>
      <clipPath
         clipPathUnits="userSpaceOnUse"
         id="clipPath39">
        <path
           d="M645.5 186 L645.5 211.5 L766.5 211.5 L766.5 186 Z"
           id="path117" />
      </clipPath>
      <clipPath
         clipPathUnits="userSpaceOnUse"
         id="clipPath40">
        <path
           d="M643.5 293 L643.5 319 L706.5 319 L706.5 293 Z"
           id="path120" />
      </clipPath>
      <clipPath
         clipPathUnits="userSpaceOnUse"
         id="clipPath41">
        <path
           d="M705.5 293 L705.5 319 L768.5 319 L768.5 293 Z"
           id="path123" />
      </clipPath>
      <clipPath
         clipPathUnits="userSpaceOnUse"
         id="clipPath42">
        <path
           d="M705.5 268 L705.5 294 L768.5 294 L768.5 268 Z"
           id="path126" />
      </clipPath>
      <clipPath
         clipPathUnits="userSpaceOnUse"
         id="clipPath43">
        <path
           d="M461.5 390 L461.5 416 L525.5 416 L525.5 390 Z"
           id="path129" />
      </clipPath>
      <clipPath
         clipPathUnits="userSpaceOnUse"
         id="clipPath44">
        <path
           d="M517 384.5 L517 400.5 L533 400.5 L533 384.5 Z"
           id="path132" />
      </clipPath>
      <clipPath
         clipPathUnits="userSpaceOnUse"
         id="clipPath45">
        <path
           d="M647.5 90.5 L647.5 111.5 L761.5 111.5 L761.5 90.5 Z"
           id="path135" />
      </clipPath>
      <clipPath
         clipPathUnits="userSpaceOnUse"
         id="clipPath46">
        <path
           d="M354.5 132.5 L354.5 153.5 L483.5 153.5 L483.5 132.5 Z"
           id="path138" />
      </clipPath>
    </defs>
    <g
       style="fill:white; stroke:white;"
       id="g144">
      <rect
         x="0"
         width="798"
         height="577"
         y="0"
         style="stroke:none;"
         id="rect142" />
    </g>
    <g
       style="font-weight:bold; font-size:10; text-rendering:geometricPrecision;"
       id="g154">
      <path
         d="M0.0469 6.7031 L6.7656 6.7031 L6.7656 8.125 L4.3438 8.125 L4.3438 14 L2.4688 14 L2.4688 8.125 L0.0469 8.125 L0.0469 6.7031 ZM7.665 8.5312 L9.415 8.5312 L9.415 14 L7.665 14 L7.665 8.5312 ZM7.665 6.4062 L9.415 6.4062 L9.415 7.8281 L7.665 7.8281 L7.665 6.4062 ZM12.999 6.9844 L12.999 8.5312 L14.7959 8.5312 L14.7959 9.7812 L12.999 9.7812 L12.999 12.0938 Q12.999 12.4844 13.1475 12.6172 Q13.2959 12.75 13.749 12.75 L14.6553 12.75 L14.6553 14 L13.1553 14 Q12.1084 14 11.6787 13.5703 Q11.249 13.1406 11.249 12.0938 L11.249 9.7812 L10.374 9.7812 L10.374 8.5312 L11.249 8.5312 L11.249 6.9844 L12.999 6.9844 ZM15.873 6.4062 L17.623 6.4062 L17.623 14 L15.873 14 L15.873 6.4062 ZM24.7539 11.25 L24.7539 11.75 L20.6758 11.75 Q20.7383 12.3594 21.1133 12.6719 Q21.4883 12.9844 22.1758 12.9844 Q22.7227 12.9844 23.3086 12.8203 Q23.8945 12.6562 24.5039 12.3125 L24.5039 13.6719 Q23.8789 13.9062 23.2617 14.0234 Q22.6445 14.1406 22.0195 14.1406 Q20.5352 14.1406 19.7148 13.3828 Q18.8945 12.625 18.8945 11.2656 Q18.8945 9.9375 19.6992 9.1719 Q20.5039 8.4062 21.9258 8.4062 Q23.207 8.4062 23.9805 9.1797 Q24.7539 9.9531 24.7539 11.25 ZM22.957 10.6719 Q22.957 10.1719 22.668 9.8672 Q22.3789 9.5625 21.9102 9.5625 Q21.3945 9.5625 21.082 9.8438 Q20.7695 10.125 20.6914 10.6719 L22.957 10.6719 ZM26.3643 8.5312 L28.1143 8.5312 L28.1143 10.4219 L26.3643 10.4219 L26.3643 8.5312 ZM26.3643 12.1094 L28.1143 12.1094 L28.1143 14 L26.3643 14 L26.3643 12.1094 Z"
         style="clip-path:url(#clipPath2); stroke:none;"
         clip-path="url(#clipPath2)"
         id="path146" />
      <path
         d="M42.4375 10.5781 Q42.75 10.6875 43.0547 11.0391 Q43.3594 11.3906 43.6562 12 L44.6562 14 L43.5938 14 L42.6719 12.125 Q42.3125 11.3906 41.9688 11.1562 Q41.625 10.9219 41.0469 10.9219 L39.9688 10.9219 L39.9688 14 L38.9844 14 L38.9844 6.7031 L41.2031 6.7031 Q42.4531 6.7031 43.0703 7.2266 Q43.6875 7.75 43.6875 8.8125 Q43.6875 9.5 43.3672 9.9531 Q43.0469 10.4062 42.4375 10.5781 ZM39.9688 7.5156 L39.9688 10.1094 L41.2031 10.1094 Q41.9219 10.1094 42.2891 9.7812 Q42.6562 9.4531 42.6562 8.8125 Q42.6562 8.1719 42.2891 7.8438 Q41.9219 7.5156 41.2031 7.5156 L39.9688 7.5156 ZM50.5732 11.0469 L50.5732 11.4844 L46.4326 11.4844 Q46.4951 12.4062 46.9951 12.8906 Q47.4951 13.375 48.3857 13.375 Q48.9014 13.375 49.3936 13.25 Q49.8857 13.125 50.3545 12.875 L50.3545 13.7188 Q49.8701 13.9219 49.3623 14.0312 Q48.8545 14.1406 48.3389 14.1406 Q47.0264 14.1406 46.2607 13.3828 Q45.4951 12.625 45.4951 11.3125 Q45.4951 9.9688 46.2217 9.1875 Q46.9482 8.4062 48.1826 8.4062 Q49.292 8.4062 49.9326 9.1094 Q50.5732 9.8125 50.5732 11.0469 ZM49.667 10.7812 Q49.667 10.0469 49.2607 9.6016 Q48.8545 9.1562 48.1982 9.1562 Q47.4326 9.1562 46.9873 9.5859 Q46.542 10.0156 46.4639 10.7812 L49.667 10.7812 ZM55.6475 11.2031 Q55.6475 10.2188 55.2412 9.6875 Q54.835 9.1562 54.1162 9.1562 Q53.3818 9.1562 52.9834 9.6875 Q52.585 10.2188 52.585 11.2031 Q52.585 12.1719 52.9834 12.7109 Q53.3818 13.25 54.1162 13.25 Q54.835 13.25 55.2412 12.7109 Q55.6475 12.1719 55.6475 11.2031 ZM56.5381 13.3281 Q56.5381 14.7188 55.9209 15.3984 Q55.3037 16.0781 54.0225 16.0781 Q53.5537 16.0781 53.1318 16.0078 Q52.71 15.9375 52.3193 15.7969 L52.3193 14.9219 Q52.71 15.1406 53.0928 15.2422 Q53.4756 15.3438 53.8818 15.3438 Q54.7568 15.3438 55.2021 14.8828 Q55.6475 14.4219 55.6475 13.4844 L55.6475 13.0312 Q55.3662 13.5156 54.9287 13.7578 Q54.4912 14 53.8818 14 Q52.8818 14 52.2646 13.2344 Q51.6475 12.4688 51.6475 11.2031 Q51.6475 9.9375 52.2646 9.1719 Q52.8818 8.4062 53.8818 8.4062 Q54.4912 8.4062 54.9287 8.6406 Q55.3662 8.875 55.6475 9.3594 L55.6475 8.5312 L56.5381 8.5312 L56.5381 13.3281 ZM58.292 11.8438 L58.292 8.5312 L59.1982 8.5312 L59.1982 11.8125 Q59.1982 12.5781 59.5029 12.9688 Q59.8076 13.3594 60.4014 13.3594 Q61.1357 13.3594 61.5576 12.8984 Q61.9795 12.4375 61.9795 11.625 L61.9795 8.5312 L62.8857 8.5312 L62.8857 14 L61.9795 14 L61.9795 13.1562 Q61.6514 13.6562 61.2217 13.8984 Q60.792 14.1406 60.2139 14.1406 Q59.2764 14.1406 58.7842 13.5547 Q58.292 12.9688 58.292 11.8438 ZM60.5576 8.4062 L60.5576 8.4062 ZM64.7236 6.4062 L65.6299 6.4062 L65.6299 14 L64.7236 14 L64.7236 6.4062 ZM69.9863 11.25 Q68.9082 11.25 68.4863 11.5 Q68.0645 11.75 68.0645 12.3438 Q68.0645 12.8281 68.377 13.1094 Q68.6895 13.3906 69.2363 13.3906 Q69.9863 13.3906 70.4395 12.8594 Q70.8926 12.3281 70.8926 11.4531 L70.8926 11.25 L69.9863 11.25 ZM71.7832 10.875 L71.7832 14 L70.8926 14 L70.8926 13.1719 Q70.5801 13.6719 70.1191 13.9062 Q69.6582 14.1406 69.002 14.1406 Q68.1582 14.1406 67.6582 13.6719 Q67.1582 13.2031 67.1582 12.4062 Q67.1582 11.4844 67.7832 11.0156 Q68.4082 10.5469 69.627 10.5469 L70.8926 10.5469 L70.8926 10.4531 Q70.8926 9.8438 70.4785 9.5 Q70.0645 9.1562 69.3301 9.1562 Q68.8613 9.1562 68.416 9.2734 Q67.9707 9.3906 67.5645 9.6094 L67.5645 8.7812 Q68.0645 8.5938 68.5254 8.5 Q68.9863 8.4062 69.4238 8.4062 Q70.6113 8.4062 71.1973 9.0156 Q71.7832 9.625 71.7832 10.875 ZM74.5205 6.9844 L74.5205 8.5312 L76.3799 8.5312 L76.3799 9.2344 L74.5205 9.2344 L74.5205 12.2031 Q74.5205 12.8594 74.708 13.0547 Q74.8955 13.25 75.458 13.25 L76.3799 13.25 L76.3799 14 L75.458 14 Q74.4111 14 74.0127 13.6094 Q73.6143 13.2188 73.6143 12.2031 L73.6143 9.2344 L72.958 9.2344 L72.958 8.5312 L73.6143 8.5312 L73.6143 6.9844 L74.5205 6.9844 ZM77.5508 8.5312 L78.457 8.5312 L78.457 14 L77.5508 14 L77.5508 8.5312 ZM77.5508 6.4062 L78.457 6.4062 L78.457 7.5469 L77.5508 7.5469 L77.5508 6.4062 ZM82.4541 9.1562 Q81.7354 9.1562 81.3135 9.7188 Q80.8916 10.2812 80.8916 11.2656 Q80.8916 12.25 81.3057 12.8125 Q81.7197 13.375 82.4541 13.375 Q83.1729 13.375 83.5947 12.8125 Q84.0166 12.25 84.0166 11.2656 Q84.0166 10.2969 83.5947 9.7266 Q83.1729 9.1562 82.4541 9.1562 ZM82.4541 8.4062 Q83.626 8.4062 84.2979 9.1641 Q84.9697 9.9219 84.9697 11.2656 Q84.9697 12.6094 84.2979 13.375 Q83.626 14.1406 82.4541 14.1406 Q81.2822 14.1406 80.6104 13.375 Q79.9385 12.6094 79.9385 11.2656 Q79.9385 9.9219 80.6104 9.1641 Q81.2822 8.4062 82.4541 8.4062 ZM90.9941 10.7031 L90.9941 14 L90.1035 14 L90.1035 10.7344 Q90.1035 9.9531 89.7988 9.5703 Q89.4941 9.1875 88.8848 9.1875 Q88.166 9.1875 87.7441 9.6484 Q87.3223 10.1094 87.3223 10.9062 L87.3223 14 L86.416 14 L86.416 8.5312 L87.3223 8.5312 L87.3223 9.375 Q87.6504 8.8906 88.0879 8.6484 Q88.5254 8.4062 89.0879 8.4062 Q90.0254 8.4062 90.5098 8.9844 Q90.9941 9.5625 90.9941 10.7031 ZM98.0889 9.1562 Q97.3701 9.1562 96.9482 9.7188 Q96.5264 10.2812 96.5264 11.2656 Q96.5264 12.25 96.9404 12.8125 Q97.3545 13.375 98.0889 13.375 Q98.8076 13.375 99.2295 12.8125 Q99.6514 12.25 99.6514 11.2656 Q99.6514 10.2969 99.2295 9.7266 Q98.8076 9.1562 98.0889 9.1562 ZM98.0889 8.4062 Q99.2607 8.4062 99.9326 9.1641 Q100.6045 9.9219 100.6045 11.2656 Q100.6045 12.6094 99.9326 13.375 Q99.2607 14.1406 98.0889 14.1406 Q96.917 14.1406 96.2451 13.375 Q95.5732 12.6094 95.5732 11.2656 Q95.5732 9.9219 96.2451 9.1641 Q96.917 8.4062 98.0889 8.4062 ZM104.8633 6.4062 L104.8633 7.1562 L104.0039 7.1562 Q103.5195 7.1562 103.332 7.3516 Q103.1445 7.5469 103.1445 8.0469 L103.1445 8.5312 L104.6133 8.5312 L104.6133 9.2344 L103.1445 9.2344 L103.1445 14 L102.2383 14 L102.2383 9.2344 L101.3789 9.2344 L101.3789 8.5312 L102.2383 8.5312 L102.2383 8.1562 Q102.2383 7.2344 102.6602 6.8203 Q103.082 6.4062 104.0039 6.4062 L104.8633 6.4062 ZM112.2656 8.6875 L112.2656 9.5469 Q111.8906 9.3438 111.4844 9.25 Q111.0781 9.1562 110.625 9.1562 Q109.9688 9.1562 109.6328 9.3594 Q109.2969 9.5625 109.2969 9.9688 Q109.2969 10.2812 109.5312 10.4609 Q109.7656 10.6406 110.5 10.7969 L110.7969 10.875 Q111.7656 11.0781 112.1641 11.4531 Q112.5625 11.8281 112.5625 12.4844 Q112.5625 13.25 111.9609 13.6953 Q111.3594 14.1406 110.3125 14.1406 Q109.8594 14.1406 109.3828 14.0547 Q108.9062 13.9688 108.3906 13.7969 L108.3906 12.875 Q108.8906 13.125 109.3672 13.2578 Q109.8438 13.3906 110.3281 13.3906 Q110.9531 13.3906 111.2969 13.1719 Q111.6406 12.9531 111.6406 12.5625 Q111.6406 12.1875 111.3984 11.9922 Q111.1562 11.7969 110.3125 11.625 L110 11.5469 Q109.1719 11.375 108.7969 11.0078 Q108.4219 10.6406 108.4219 10.0156 Q108.4219 9.2344 108.9688 8.8203 Q109.5156 8.4062 110.5312 8.4062 Q111.0156 8.4062 111.4609 8.4766 Q111.9062 8.5469 112.2656 8.6875 ZM113.9912 8.5312 L114.8975 8.5312 L114.8975 14 L113.9912 14 L113.9912 8.5312 ZM113.9912 6.4062 L114.8975 6.4062 L114.8975 7.5469 L113.9912 7.5469 L113.9912 6.4062 ZM120.2539 8.6875 L120.2539 9.5469 Q119.8789 9.3438 119.4727 9.25 Q119.0664 9.1562 118.6133 9.1562 Q117.957 9.1562 117.6211 9.3594 Q117.2852 9.5625 117.2852 9.9688 Q117.2852 10.2812 117.5195 10.4609 Q117.7539 10.6406 118.4883 10.7969 L118.7852 10.875 Q119.7539 11.0781 120.1523 11.4531 Q120.5508 11.8281 120.5508 12.4844 Q120.5508 13.25 119.9492 13.6953 Q119.3477 14.1406 118.3008 14.1406 Q117.8477 14.1406 117.3711 14.0547 Q116.8945 13.9688 116.3789 13.7969 L116.3789 12.875 Q116.8789 13.125 117.3555 13.2578 Q117.832 13.3906 118.3164 13.3906 Q118.9414 13.3906 119.2852 13.1719 Q119.6289 12.9531 119.6289 12.5625 Q119.6289 12.1875 119.3867 11.9922 Q119.1445 11.7969 118.3008 11.625 L117.9883 11.5469 Q117.1602 11.375 116.7852 11.0078 Q116.4102 10.6406 116.4102 10.0156 Q116.4102 9.2344 116.957 8.8203 Q117.5039 8.4062 118.5195 8.4062 Q119.0039 8.4062 119.4492 8.4766 Q119.8945 8.5469 120.2539 8.6875 ZM122.8701 6.9844 L122.8701 8.5312 L124.7295 8.5312 L124.7295 9.2344 L122.8701 9.2344 L122.8701 12.2031 Q122.8701 12.8594 123.0576 13.0547 Q123.2451 13.25 123.8076 13.25 L124.7295 13.25 L124.7295 14 L123.8076 14 Q122.7607 14 122.3623 13.6094 Q121.9639 13.2188 121.9639 12.2031 L121.9639 9.2344 L121.3076 9.2344 L121.3076 8.5312 L121.9639 8.5312 L121.9639 6.9844 L122.8701 6.9844 ZM130.5879 11.0469 L130.5879 11.4844 L126.4473 11.4844 Q126.5098 12.4062 127.0098 12.8906 Q127.5098 13.375 128.4004 13.375 Q128.916 13.375 129.4082 13.25 Q129.9004 13.125 130.3691 12.875 L130.3691 13.7188 Q129.8848 13.9219 129.377 14.0312 Q128.8691 14.1406 128.3535 14.1406 Q127.041 14.1406 126.2754 13.3828 Q125.5098 12.625 125.5098 11.3125 Q125.5098 9.9688 126.2363 9.1875 Q126.9629 8.4062 128.1973 8.4062 Q129.3066 8.4062 129.9473 9.1094 Q130.5879 9.8125 130.5879 11.0469 ZM129.6816 10.7812 Q129.6816 10.0469 129.2754 9.6016 Q128.8691 9.1562 128.2129 9.1562 Q127.4473 9.1562 127.002 9.5859 Q126.5566 10.0156 126.4785 10.7812 L129.6816 10.7812 ZM135.2246 9.375 Q135.0684 9.2812 134.8965 9.2422 Q134.7246 9.2031 134.5059 9.2031 Q133.7402 9.2031 133.334 9.6953 Q132.9277 10.1875 132.9277 11.125 L132.9277 14 L132.0215 14 L132.0215 8.5312 L132.9277 8.5312 L132.9277 9.375 Q133.209 8.875 133.6621 8.6406 Q134.1152 8.4062 134.7715 8.4062 Q134.8652 8.4062 134.9746 8.4141 Q135.084 8.4219 135.2246 8.4531 L135.2246 9.375 ZM143.2803 8.7344 L143.2803 9.5781 Q142.9053 9.375 142.5225 9.2656 Q142.1396 9.1562 141.749 9.1562 Q140.874 9.1562 140.3896 9.7109 Q139.9053 10.2656 139.9053 11.2656 Q139.9053 12.2656 140.3896 12.8203 Q140.874 13.375 141.749 13.375 Q142.1396 13.375 142.5225 13.2734 Q142.9053 13.1719 143.2803 12.9531 L143.2803 13.7969 Q142.9053 13.9688 142.5068 14.0547 Q142.1084 14.1406 141.6553 14.1406 Q140.4053 14.1406 139.6787 13.3672 Q138.9521 12.5938 138.9521 11.2656 Q138.9521 9.9375 139.6865 9.1719 Q140.4209 8.4062 141.7021 8.4062 Q142.124 8.4062 142.5146 8.4844 Q142.9053 8.5625 143.2803 8.7344 ZM149.3877 10.7031 L149.3877 14 L148.4971 14 L148.4971 10.7344 Q148.4971 9.9531 148.1924 9.5703 Q147.8877 9.1875 147.2783 9.1875 Q146.5596 9.1875 146.1377 9.6484 Q145.7158 10.1094 145.7158 10.9062 L145.7158 14 L144.8096 14 L144.8096 6.4062 L145.7158 6.4062 L145.7158 9.375 Q146.0439 8.8906 146.4814 8.6484 Q146.9189 8.4062 147.4814 8.4062 Q148.4189 8.4062 148.9033 8.9844 Q149.3877 9.5625 149.3877 10.7031 ZM154.3506 9.375 Q154.1943 9.2812 154.0225 9.2422 Q153.8506 9.2031 153.6318 9.2031 Q152.8662 9.2031 152.46 9.6953 Q152.0537 10.1875 152.0537 11.125 L152.0537 14 L151.1475 14 L151.1475 8.5312 L152.0537 8.5312 L152.0537 9.375 Q152.335 8.875 152.7881 8.6406 Q153.2412 8.4062 153.8975 8.4062 Q153.9912 8.4062 154.1006 8.4141 Q154.21 8.4219 154.3506 8.4531 L154.3506 9.375 ZM157.415 9.1562 Q156.6963 9.1562 156.2744 9.7188 Q155.8525 10.2812 155.8525 11.2656 Q155.8525 12.25 156.2666 12.8125 Q156.6807 13.375 157.415 13.375 Q158.1338 13.375 158.5557 12.8125 Q158.9775 12.25 158.9775 11.2656 Q158.9775 10.2969 158.5557 9.7266 Q158.1338 9.1562 157.415 9.1562 ZM157.415 8.4062 Q158.5869 8.4062 159.2588 9.1641 Q159.9307 9.9219 159.9307 11.2656 Q159.9307 12.6094 159.2588 13.375 Q158.5869 14.1406 157.415 14.1406 Q156.2432 14.1406 155.5713 13.375 Q154.8994 12.6094 154.8994 11.2656 Q154.8994 9.9219 155.5713 9.1641 Q156.2432 8.4062 157.415 8.4062 ZM165.6738 9.5781 Q166.002 8.9688 166.4707 8.6875 Q166.9395 8.4062 167.5801 8.4062 Q168.4395 8.4062 168.9004 9 Q169.3613 9.5938 169.3613 10.7031 L169.3613 14 L168.4551 14 L168.4551 10.7344 Q168.4551 9.9375 168.1816 9.5625 Q167.9082 9.1875 167.3301 9.1875 Q166.627 9.1875 166.2285 9.6484 Q165.8301 10.1094 165.8301 10.9062 L165.8301 14 L164.9238 14 L164.9238 10.7344 Q164.9238 9.9375 164.6426 9.5625 Q164.3613 9.1875 163.7832 9.1875 Q163.0957 9.1875 162.6895 9.6484 Q162.2832 10.1094 162.2832 10.9062 L162.2832 14 L161.377 14 L161.377 8.5312 L162.2832 8.5312 L162.2832 9.375 Q162.5957 8.875 163.0254 8.6406 Q163.4551 8.4062 164.0332 8.4062 Q164.6426 8.4062 165.0566 8.7031 Q165.4707 9 165.6738 9.5781 ZM173.6338 11.25 Q172.5557 11.25 172.1338 11.5 Q171.7119 11.75 171.7119 12.3438 Q171.7119 12.8281 172.0244 13.1094 Q172.3369 13.3906 172.8838 13.3906 Q173.6338 13.3906 174.0869 12.8594 Q174.54 12.3281 174.54 11.4531 L174.54 11.25 L173.6338 11.25 ZM175.4307 10.875 L175.4307 14 L174.54 14 L174.54 13.1719 Q174.2275 13.6719 173.7666 13.9062 Q173.3057 14.1406 172.6494 14.1406 Q171.8057 14.1406 171.3057 13.6719 Q170.8057 13.2031 170.8057 12.4062 Q170.8057 11.4844 171.4307 11.0156 Q172.0557 10.5469 173.2744 10.5469 L174.54 10.5469 L174.54 10.4531 Q174.54 9.8438 174.126 9.5 Q173.7119 9.1562 172.9775 9.1562 Q172.5088 9.1562 172.0635 9.2734 Q171.6182 9.3906 171.2119 9.6094 L171.2119 8.7812 Q171.7119 8.5938 172.1729 8.5 Q172.6338 8.4062 173.0713 8.4062 Q174.2588 8.4062 174.8447 9.0156 Q175.4307 9.625 175.4307 10.875 ZM178.168 6.9844 L178.168 8.5312 L180.0273 8.5312 L180.0273 9.2344 L178.168 9.2344 L178.168 12.2031 Q178.168 12.8594 178.3555 13.0547 Q178.543 13.25 179.1055 13.25 L180.0273 13.25 L180.0273 14 L179.1055 14 Q178.0586 14 177.6602 13.6094 Q177.2617 13.2188 177.2617 12.2031 L177.2617 9.2344 L176.6055 9.2344 L176.6055 8.5312 L177.2617 8.5312 L177.2617 6.9844 L178.168 6.9844 ZM181.1982 8.5312 L182.1045 8.5312 L182.1045 14 L181.1982 14 L181.1982 8.5312 ZM181.1982 6.4062 L182.1045 6.4062 L182.1045 7.5469 L181.1982 7.5469 L181.1982 6.4062 ZM187.5859 9.3594 L187.5859 6.4062 L188.4766 6.4062 L188.4766 14 L187.5859 14 L187.5859 13.1719 Q187.3047 13.6719 186.8672 13.9062 Q186.4297 14.1406 185.8203 14.1406 Q184.8359 14.1406 184.2109 13.3516 Q183.5859 12.5625 183.5859 11.2656 Q183.5859 9.9844 184.2109 9.1953 Q184.8359 8.4062 185.8203 8.4062 Q186.4297 8.4062 186.8672 8.6406 Q187.3047 8.875 187.5859 9.3594 ZM184.5234 11.2656 Q184.5234 12.2656 184.9297 12.8281 Q185.3359 13.3906 186.0547 13.3906 Q186.7578 13.3906 187.1719 12.8281 Q187.5859 12.2656 187.5859 11.2656 Q187.5859 10.2812 187.1719 9.7188 Q186.7578 9.1562 186.0547 9.1562 Q185.3359 9.1562 184.9297 9.7188 Q184.5234 10.2812 184.5234 11.2656 ZM196.9873 8.6875 L196.9873 9.5469 Q196.6123 9.3438 196.2061 9.25 Q195.7998 9.1562 195.3467 9.1562 Q194.6904 9.1562 194.3545 9.3594 Q194.0186 9.5625 194.0186 9.9688 Q194.0186 10.2812 194.2529 10.4609 Q194.4873 10.6406 195.2217 10.7969 L195.5186 10.875 Q196.4873 11.0781 196.8857 11.4531 Q197.2842 11.8281 197.2842 12.4844 Q197.2842 13.25 196.6826 13.6953 Q196.0811 14.1406 195.0342 14.1406 Q194.5811 14.1406 194.1045 14.0547 Q193.6279 13.9688 193.1123 13.7969 L193.1123 12.875 Q193.6123 13.125 194.0889 13.2578 Q194.5654 13.3906 195.0498 13.3906 Q195.6748 13.3906 196.0186 13.1719 Q196.3623 12.9531 196.3623 12.5625 Q196.3623 12.1875 196.1201 11.9922 Q195.8779 11.7969 195.0342 11.625 L194.7217 11.5469 Q193.8936 11.375 193.5186 11.0078 Q193.1436 10.6406 193.1436 10.0156 Q193.1436 9.2344 193.6904 8.8203 Q194.2373 8.4062 195.2529 8.4062 Q195.7373 8.4062 196.1826 8.4766 Q196.6279 8.5469 196.9873 8.6875 ZM203.4004 11.0469 L203.4004 11.4844 L199.2598 11.4844 Q199.3223 12.4062 199.8223 12.8906 Q200.3223 13.375 201.2129 13.375 Q201.7285 13.375 202.2207 13.25 Q202.7129 13.125 203.1816 12.875 L203.1816 13.7188 Q202.6973 13.9219 202.1895 14.0312 Q201.6816 14.1406 201.166 14.1406 Q199.8535 14.1406 199.0879 13.3828 Q198.3223 12.625 198.3223 11.3125 Q198.3223 9.9688 199.0488 9.1875 Q199.7754 8.4062 201.0098 8.4062 Q202.1191 8.4062 202.7598 9.1094 Q203.4004 9.8125 203.4004 11.0469 ZM202.4941 10.7812 Q202.4941 10.0469 202.0879 9.6016 Q201.6816 9.1562 201.0254 9.1562 Q200.2598 9.1562 199.8145 9.5859 Q199.3691 10.0156 199.291 10.7812 L202.4941 10.7812 ZM205.7402 13.1719 L205.7402 16.0781 L204.834 16.0781 L204.834 8.5312 L205.7402 8.5312 L205.7402 9.3594 Q206.0215 8.875 206.4512 8.6406 Q206.8809 8.4062 207.4902 8.4062 Q208.4902 8.4062 209.1074 9.1953 Q209.7246 9.9844 209.7246 11.2656 Q209.7246 12.5625 209.1074 13.3516 Q208.4902 14.1406 207.4902 14.1406 Q206.8809 14.1406 206.4512 13.9062 Q206.0215 13.6719 205.7402 13.1719 ZM208.8027 11.2656 Q208.8027 10.2812 208.3887 9.7188 Q207.9746 9.1562 207.2715 9.1562 Q206.5527 9.1562 206.1465 9.7188 Q205.7402 10.2812 205.7402 11.2656 Q205.7402 12.2656 206.1465 12.8281 Q206.5527 13.3906 207.2715 13.3906 Q207.9746 13.3906 208.3887 12.8281 Q208.8027 12.2656 208.8027 11.2656 ZM213.6973 11.25 Q212.6191 11.25 212.1973 11.5 Q211.7754 11.75 211.7754 12.3438 Q211.7754 12.8281 212.0879 13.1094 Q212.4004 13.3906 212.9473 13.3906 Q213.6973 13.3906 214.1504 12.8594 Q214.6035 12.3281 214.6035 11.4531 L214.6035 11.25 L213.6973 11.25 ZM215.4941 10.875 L215.4941 14 L214.6035 14 L214.6035 13.1719 Q214.291 13.6719 213.8301 13.9062 Q213.3691 14.1406 212.7129 14.1406 Q211.8691 14.1406 211.3691 13.6719 Q210.8691 13.2031 210.8691 12.4062 Q210.8691 11.4844 211.4941 11.0156 Q212.1191 10.5469 213.3379 10.5469 L214.6035 10.5469 L214.6035 10.4531 Q214.6035 9.8438 214.1895 9.5 Q213.7754 9.1562 213.041 9.1562 Q212.5723 9.1562 212.127 9.2734 Q211.6816 9.3906 211.2754 9.6094 L211.2754 8.7812 Q211.7754 8.5938 212.2363 8.5 Q212.6973 8.4062 213.1348 8.4062 Q214.3223 8.4062 214.9082 9.0156 Q215.4941 9.625 215.4941 10.875 ZM220.5127 9.375 Q220.3564 9.2812 220.1846 9.2422 Q220.0127 9.2031 219.7939 9.2031 Q219.0283 9.2031 218.6221 9.6953 Q218.2158 10.1875 218.2158 11.125 L218.2158 14 L217.3096 14 L217.3096 8.5312 L218.2158 8.5312 L218.2158 9.375 Q218.4971 8.875 218.9502 8.6406 Q219.4033 8.4062 220.0596 8.4062 Q220.1533 8.4062 220.2627 8.4141 Q220.3721 8.4219 220.5127 8.4531 L220.5127 9.375 ZM223.9365 11.25 Q222.8584 11.25 222.4365 11.5 Q222.0146 11.75 222.0146 12.3438 Q222.0146 12.8281 222.3271 13.1094 Q222.6396 13.3906 223.1865 13.3906 Q223.9365 13.3906 224.3896 12.8594 Q224.8428 12.3281 224.8428 11.4531 L224.8428 11.25 L223.9365 11.25 ZM225.7334 10.875 L225.7334 14 L224.8428 14 L224.8428 13.1719 Q224.5303 13.6719 224.0693 13.9062 Q223.6084 14.1406 222.9521 14.1406 Q222.1084 14.1406 221.6084 13.6719 Q221.1084 13.2031 221.1084 12.4062 Q221.1084 11.4844 221.7334 11.0156 Q222.3584 10.5469 223.5771 10.5469 L224.8428 10.5469 L224.8428 10.4531 Q224.8428 9.8438 224.4287 9.5 Q224.0146 9.1562 223.2803 9.1562 Q222.8115 9.1562 222.3662 9.2734 Q221.9209 9.3906 221.5146 9.6094 L221.5146 8.7812 Q222.0146 8.5938 222.4756 8.5 Q222.9365 8.4062 223.374 8.4062 Q224.5615 8.4062 225.1475 9.0156 Q225.7334 9.625 225.7334 10.875 ZM228.4707 6.9844 L228.4707 8.5312 L230.3301 8.5312 L230.3301 9.2344 L228.4707 9.2344 L228.4707 12.2031 Q228.4707 12.8594 228.6582 13.0547 Q228.8457 13.25 229.4082 13.25 L230.3301 13.25 L230.3301 14 L229.4082 14 Q228.3613 14 227.9629 13.6094 Q227.5645 13.2188 227.5645 12.2031 L227.5645 9.2344 L226.9082 9.2344 L226.9082 8.5312 L227.5645 8.5312 L227.5645 6.9844 L228.4707 6.9844 ZM231.501 8.5312 L232.4072 8.5312 L232.4072 14 L231.501 14 L231.501 8.5312 ZM231.501 6.4062 L232.4072 6.4062 L232.4072 7.5469 L231.501 7.5469 L231.501 6.4062 ZM236.4043 9.1562 Q235.6855 9.1562 235.2637 9.7188 Q234.8418 10.2812 234.8418 11.2656 Q234.8418 12.25 235.2559 12.8125 Q235.6699 13.375 236.4043 13.375 Q237.123 13.375 237.5449 12.8125 Q237.9668 12.25 237.9668 11.2656 Q237.9668 10.2969 237.5449 9.7266 Q237.123 9.1562 236.4043 9.1562 ZM236.4043 8.4062 Q237.5762 8.4062 238.248 9.1641 Q238.9199 9.9219 238.9199 11.2656 Q238.9199 12.6094 238.248 13.375 Q237.5762 14.1406 236.4043 14.1406 Q235.2324 14.1406 234.5605 13.375 Q233.8887 12.6094 233.8887 11.2656 Q233.8887 9.9219 234.5605 9.1641 Q235.2324 8.4062 236.4043 8.4062 ZM244.9443 10.7031 L244.9443 14 L244.0537 14 L244.0537 10.7344 Q244.0537 9.9531 243.749 9.5703 Q243.4443 9.1875 242.835 9.1875 Q242.1162 9.1875 241.6943 9.6484 Q241.2725 10.1094 241.2725 10.9062 L241.2725 14 L240.3662 14 L240.3662 8.5312 L241.2725 8.5312 L241.2725 9.375 Q241.6006 8.8906 242.0381 8.6484 Q242.4756 8.4062 243.0381 8.4062 Q243.9756 8.4062 244.46 8.9844 Q244.9443 9.5625 244.9443 10.7031 ZM252.3984 11.25 Q251.3203 11.25 250.8984 11.5 Q250.4766 11.75 250.4766 12.3438 Q250.4766 12.8281 250.7891 13.1094 Q251.1016 13.3906 251.6484 13.3906 Q252.3984 13.3906 252.8516 12.8594 Q253.3047 12.3281 253.3047 11.4531 L253.3047 11.25 L252.3984 11.25 ZM254.1953 10.875 L254.1953 14 L253.3047 14 L253.3047 13.1719 Q252.9922 13.6719 252.5312 13.9062 Q252.0703 14.1406 251.4141 14.1406 Q250.5703 14.1406 250.0703 13.6719 Q249.5703 13.2031 249.5703 12.4062 Q249.5703 11.4844 250.1953 11.0156 Q250.8203 10.5469 252.0391 10.5469 L253.3047 10.5469 L253.3047 10.4531 Q253.3047 9.8438 252.8906 9.5 Q252.4766 9.1562 251.7422 9.1562 Q251.2734 9.1562 250.8281 9.2734 Q250.3828 9.3906 249.9766 9.6094 L249.9766 8.7812 Q250.4766 8.5938 250.9375 8.5 Q251.3984 8.4062 251.8359 8.4062 Q253.0234 8.4062 253.6094 9.0156 Q254.1953 9.625 254.1953 10.875 ZM256.9326 6.9844 L256.9326 8.5312 L258.792 8.5312 L258.792 9.2344 L256.9326 9.2344 L256.9326 12.2031 Q256.9326 12.8594 257.1201 13.0547 Q257.3076 13.25 257.8701 13.25 L258.792 13.25 L258.792 14 L257.8701 14 Q256.8232 14 256.4248 13.6094 Q256.0264 13.2188 256.0264 12.2031 L256.0264 9.2344 L255.3701 9.2344 L255.3701 8.5312 L256.0264 8.5312 L256.0264 6.9844 L256.9326 6.9844 ZM264.0322 6.9844 L264.0322 8.5312 L265.8916 8.5312 L265.8916 9.2344 L264.0322 9.2344 L264.0322 12.2031 Q264.0322 12.8594 264.2197 13.0547 Q264.4072 13.25 264.9697 13.25 L265.8916 13.25 L265.8916 14 L264.9697 14 Q263.9229 14 263.5244 13.6094 Q263.126 13.2188 263.126 12.2031 L263.126 9.2344 L262.4697 9.2344 L262.4697 8.5312 L263.126 8.5312 L263.126 6.9844 L264.0322 6.9844 ZM271.6094 10.7031 L271.6094 14 L270.7188 14 L270.7188 10.7344 Q270.7188 9.9531 270.4141 9.5703 Q270.1094 9.1875 269.5 9.1875 Q268.7812 9.1875 268.3594 9.6484 Q267.9375 10.1094 267.9375 10.9062 L267.9375 14 L267.0312 14 L267.0312 6.4062 L267.9375 6.4062 L267.9375 9.375 Q268.2656 8.8906 268.7031 8.6484 Q269.1406 8.4062 269.7031 8.4062 Q270.6406 8.4062 271.125 8.9844 Q271.6094 9.5625 271.6094 10.7031 ZM278.0879 11.0469 L278.0879 11.4844 L273.9473 11.4844 Q274.0098 12.4062 274.5098 12.8906 Q275.0098 13.375 275.9004 13.375 Q276.416 13.375 276.9082 13.25 Q277.4004 13.125 277.8691 12.875 L277.8691 13.7188 Q277.3848 13.9219 276.877 14.0312 Q276.3691 14.1406 275.8535 14.1406 Q274.541 14.1406 273.7754 13.3828 Q273.0098 12.625 273.0098 11.3125 Q273.0098 9.9688 273.7363 9.1875 Q274.4629 8.4062 275.6973 8.4062 Q276.8066 8.4062 277.4473 9.1094 Q278.0879 9.8125 278.0879 11.0469 ZM277.1816 10.7812 Q277.1816 10.0469 276.7754 9.6016 Q276.3691 9.1562 275.7129 9.1562 Q274.9473 9.1562 274.502 9.5859 Q274.0566 10.0156 273.9785 10.7812 L277.1816 10.7812 ZM286.9971 9.5781 Q287.3252 8.9688 287.7939 8.6875 Q288.2627 8.4062 288.9033 8.4062 Q289.7627 8.4062 290.2236 9 Q290.6846 9.5938 290.6846 10.7031 L290.6846 14 L289.7783 14 L289.7783 10.7344 Q289.7783 9.9375 289.5049 9.5625 Q289.2314 9.1875 288.6533 9.1875 Q287.9502 9.1875 287.5518 9.6484 Q287.1533 10.1094 287.1533 10.9062 L287.1533 14 L286.2471 14 L286.2471 10.7344 Q286.2471 9.9375 285.9658 9.5625 Q285.6846 9.1875 285.1064 9.1875 Q284.4189 9.1875 284.0127 9.6484 Q283.6064 10.1094 283.6064 10.9062 L283.6064 14 L282.7002 14 L282.7002 8.5312 L283.6064 8.5312 L283.6064 9.375 Q283.9189 8.875 284.3486 8.6406 Q284.7783 8.4062 285.3564 8.4062 Q285.9658 8.4062 286.3799 8.7031 Q286.7939 9 286.9971 9.5781 ZM297.1602 11.0469 L297.1602 11.4844 L293.0195 11.4844 Q293.082 12.4062 293.582 12.8906 Q294.082 13.375 294.9727 13.375 Q295.4883 13.375 295.9805 13.25 Q296.4727 13.125 296.9414 12.875 L296.9414 13.7188 Q296.457 13.9219 295.9492 14.0312 Q295.4414 14.1406 294.9258 14.1406 Q293.6133 14.1406 292.8477 13.3828 Q292.082 12.625 292.082 11.3125 Q292.082 9.9688 292.8086 9.1875 Q293.5352 8.4062 294.7695 8.4062 Q295.8789 8.4062 296.5195 9.1094 Q297.1602 9.8125 297.1602 11.0469 ZM296.2539 10.7812 Q296.2539 10.0469 295.8477 9.6016 Q295.4414 9.1562 294.7852 9.1562 Q294.0195 9.1562 293.5742 9.5859 Q293.1289 10.0156 293.0508 10.7812 L296.2539 10.7812 ZM299.5156 6.9844 L299.5156 8.5312 L301.375 8.5312 L301.375 9.2344 L299.5156 9.2344 L299.5156 12.2031 Q299.5156 12.8594 299.7031 13.0547 Q299.8906 13.25 300.4531 13.25 L301.375 13.25 L301.375 14 L300.4531 14 Q299.4062 14 299.0078 13.6094 Q298.6094 13.2188 298.6094 12.2031 L298.6094 9.2344 L297.9531 9.2344 L297.9531 8.5312 L298.6094 8.5312 L298.6094 6.9844 L299.5156 6.9844 ZM305.0303 11.25 Q303.9521 11.25 303.5303 11.5 Q303.1084 11.75 303.1084 12.3438 Q303.1084 12.8281 303.4209 13.1094 Q303.7334 13.3906 304.2803 13.3906 Q305.0303 13.3906 305.4834 12.8594 Q305.9365 12.3281 305.9365 11.4531 L305.9365 11.25 L305.0303 11.25 ZM306.8271 10.875 L306.8271 14 L305.9365 14 L305.9365 13.1719 Q305.624 13.6719 305.1631 13.9062 Q304.7021 14.1406 304.0459 14.1406 Q303.2021 14.1406 302.7021 13.6719 Q302.2021 13.2031 302.2021 12.4062 Q302.2021 11.4844 302.8271 11.0156 Q303.4521 10.5469 304.6709 10.5469 L305.9365 10.5469 L305.9365 10.4531 Q305.9365 9.8438 305.5225 9.5 Q305.1084 9.1562 304.374 9.1562 Q303.9053 9.1562 303.46 9.2734 Q303.0146 9.3906 302.6084 9.6094 L302.6084 8.7812 Q303.1084 8.5938 303.5693 8.5 Q304.0303 8.4062 304.4678 8.4062 Q305.6553 8.4062 306.2412 9.0156 Q306.8271 9.625 306.8271 10.875 ZM309.5488 13.1719 L309.5488 16.0781 L308.6426 16.0781 L308.6426 8.5312 L309.5488 8.5312 L309.5488 9.3594 Q309.8301 8.875 310.2598 8.6406 Q310.6895 8.4062 311.2988 8.4062 Q312.2988 8.4062 312.916 9.1953 Q313.5332 9.9844 313.5332 11.2656 Q313.5332 12.5625 312.916 13.3516 Q312.2988 14.1406 311.2988 14.1406 Q310.6895 14.1406 310.2598 13.9062 Q309.8301 13.6719 309.5488 13.1719 ZM312.6113 11.2656 Q312.6113 10.2812 312.1973 9.7188 Q311.7832 9.1562 311.0801 9.1562 Q310.3613 9.1562 309.9551 9.7188 Q309.5488 10.2812 309.5488 11.2656 Q309.5488 12.2656 309.9551 12.8281 Q310.3613 13.3906 311.0801 13.3906 Q311.7832 13.3906 312.1973 12.8281 Q312.6113 12.2656 312.6113 11.2656 ZM319.5684 10.7031 L319.5684 14 L318.6777 14 L318.6777 10.7344 Q318.6777 9.9531 318.373 9.5703 Q318.0684 9.1875 317.459 9.1875 Q316.7402 9.1875 316.3184 9.6484 Q315.8965 10.1094 315.8965 10.9062 L315.8965 14 L314.9902 14 L314.9902 6.4062 L315.8965 6.4062 L315.8965 9.375 Q316.2246 8.8906 316.6621 8.6484 Q317.0996 8.4062 317.6621 8.4062 Q318.5996 8.4062 319.084 8.9844 Q319.5684 9.5625 319.5684 10.7031 ZM323.8438 11.25 Q322.7656 11.25 322.3438 11.5 Q321.9219 11.75 321.9219 12.3438 Q321.9219 12.8281 322.2344 13.1094 Q322.5469 13.3906 323.0938 13.3906 Q323.8438 13.3906 324.2969 12.8594 Q324.75 12.3281 324.75 11.4531 L324.75 11.25 L323.8438 11.25 ZM325.6406 10.875 L325.6406 14 L324.75 14 L324.75 13.1719 Q324.4375 13.6719 323.9766 13.9062 Q323.5156 14.1406 322.8594 14.1406 Q322.0156 14.1406 321.5156 13.6719 Q321.0156 13.2031 321.0156 12.4062 Q321.0156 11.4844 321.6406 11.0156 Q322.2656 10.5469 323.4844 10.5469 L324.75 10.5469 L324.75 10.4531 Q324.75 9.8438 324.3359 9.5 Q323.9219 9.1562 323.1875 9.1562 Q322.7188 9.1562 322.2734 9.2734 Q321.8281 9.3906 321.4219 9.6094 L321.4219 8.7812 Q321.9219 8.5938 322.3828 8.5 Q322.8438 8.4062 323.2812 8.4062 Q324.4688 8.4062 325.0547 9.0156 Q325.6406 9.625 325.6406 10.875 ZM330.9717 8.6875 L330.9717 9.5469 Q330.5967 9.3438 330.1904 9.25 Q329.7842 9.1562 329.3311 9.1562 Q328.6748 9.1562 328.3389 9.3594 Q328.0029 9.5625 328.0029 9.9688 Q328.0029 10.2812 328.2373 10.4609 Q328.4717 10.6406 329.2061 10.7969 L329.5029 10.875 Q330.4717 11.0781 330.8701 11.4531 Q331.2686 11.8281 331.2686 12.4844 Q331.2686 13.25 330.667 13.6953 Q330.0654 14.1406 329.0186 14.1406 Q328.5654 14.1406 328.0889 14.0547 Q327.6123 13.9688 327.0967 13.7969 L327.0967 12.875 Q327.5967 13.125 328.0732 13.2578 Q328.5498 13.3906 329.0342 13.3906 Q329.6592 13.3906 330.0029 13.1719 Q330.3467 12.9531 330.3467 12.5625 Q330.3467 12.1875 330.1045 11.9922 Q329.8623 11.7969 329.0186 11.625 L328.7061 11.5469 Q327.8779 11.375 327.5029 11.0078 Q327.1279 10.6406 327.1279 10.0156 Q327.1279 9.2344 327.6748 8.8203 Q328.2217 8.4062 329.2373 8.4062 Q329.7217 8.4062 330.167 8.4766 Q330.6123 8.5469 330.9717 8.6875 ZM337.3848 11.0469 L337.3848 11.4844 L333.2441 11.4844 Q333.3066 12.4062 333.8066 12.8906 Q334.3066 13.375 335.1973 13.375 Q335.7129 13.375 336.2051 13.25 Q336.6973 13.125 337.166 12.875 L337.166 13.7188 Q336.6816 13.9219 336.1738 14.0312 Q335.666 14.1406 335.1504 14.1406 Q333.8379 14.1406 333.0723 13.3828 Q332.3066 12.625 332.3066 11.3125 Q332.3066 9.9688 333.0332 9.1875 Q333.7598 8.4062 334.9941 8.4062 Q336.1035 8.4062 336.7441 9.1094 Q337.3848 9.8125 337.3848 11.0469 ZM336.4785 10.7812 Q336.4785 10.0469 336.0723 9.6016 Q335.666 9.1562 335.0098 9.1562 Q334.2441 9.1562 333.7988 9.5859 Q333.3535 10.0156 333.2754 10.7812 L336.4785 10.7812 ZM338.3965 10.8594 L341.0371 10.8594 L341.0371 11.6562 L338.3965 11.6562 L338.3965 10.8594 ZM344.9424 11.25 Q343.8643 11.25 343.4424 11.5 Q343.0205 11.75 343.0205 12.3438 Q343.0205 12.8281 343.333 13.1094 Q343.6455 13.3906 344.1924 13.3906 Q344.9424 13.3906 345.3955 12.8594 Q345.8486 12.3281 345.8486 11.4531 L345.8486 11.25 L344.9424 11.25 ZM346.7393 10.875 L346.7393 14 L345.8486 14 L345.8486 13.1719 Q345.5361 13.6719 345.0752 13.9062 Q344.6143 14.1406 343.958 14.1406 Q343.1143 14.1406 342.6143 13.6719 Q342.1143 13.2031 342.1143 12.4062 Q342.1143 11.4844 342.7393 11.0156 Q343.3643 10.5469 344.583 10.5469 L345.8486 10.5469 L345.8486 10.4531 Q345.8486 9.8438 345.4346 9.5 Q345.0205 9.1562 344.2861 9.1562 Q343.8174 9.1562 343.3721 9.2734 Q342.9268 9.3906 342.5205 9.6094 L342.5205 8.7812 Q343.0205 8.5938 343.4814 8.5 Q343.9424 8.4062 344.3799 8.4062 Q345.5674 8.4062 346.1533 9.0156 Q346.7393 9.625 346.7393 10.875 ZM353.1328 10.7031 L353.1328 14 L352.2422 14 L352.2422 10.7344 Q352.2422 9.9531 351.9375 9.5703 Q351.6328 9.1875 351.0234 9.1875 Q350.3047 9.1875 349.8828 9.6484 Q349.4609 10.1094 349.4609 10.9062 L349.4609 14 L348.5547 14 L348.5547 8.5312 L349.4609 8.5312 L349.4609 9.375 Q349.7891 8.8906 350.2266 8.6484 Q350.6641 8.4062 351.2266 8.4062 Q352.1641 8.4062 352.6484 8.9844 Q353.1328 9.5625 353.1328 10.7031 ZM357.4082 11.25 Q356.3301 11.25 355.9082 11.5 Q355.4863 11.75 355.4863 12.3438 Q355.4863 12.8281 355.7988 13.1094 Q356.1113 13.3906 356.6582 13.3906 Q357.4082 13.3906 357.8613 12.8594 Q358.3145 12.3281 358.3145 11.4531 L358.3145 11.25 L357.4082 11.25 ZM359.2051 10.875 L359.2051 14 L358.3145 14 L358.3145 13.1719 Q358.002 13.6719 357.541 13.9062 Q357.0801 14.1406 356.4238 14.1406 Q355.5801 14.1406 355.0801 13.6719 Q354.5801 13.2031 354.5801 12.4062 Q354.5801 11.4844 355.2051 11.0156 Q355.8301 10.5469 357.0488 10.5469 L358.3145 10.5469 L358.3145 10.4531 Q358.3145 9.8438 357.9004 9.5 Q357.4863 9.1562 356.752 9.1562 Q356.2832 9.1562 355.8379 9.2734 Q355.3926 9.3906 354.9863 9.6094 L354.9863 8.7812 Q355.4863 8.5938 355.9473 8.5 Q356.4082 8.4062 356.8457 8.4062 Q358.0332 8.4062 358.6191 9.0156 Q359.2051 9.625 359.2051 10.875 ZM361.9268 13.1719 L361.9268 16.0781 L361.0205 16.0781 L361.0205 8.5312 L361.9268 8.5312 L361.9268 9.3594 Q362.208 8.875 362.6377 8.6406 Q363.0674 8.4062 363.6768 8.4062 Q364.6768 8.4062 365.2939 9.1953 Q365.9111 9.9844 365.9111 11.2656 Q365.9111 12.5625 365.2939 13.3516 Q364.6768 14.1406 363.6768 14.1406 Q363.0674 14.1406 362.6377 13.9062 Q362.208 13.6719 361.9268 13.1719 ZM364.9893 11.2656 Q364.9893 10.2812 364.5752 9.7188 Q364.1611 9.1562 363.458 9.1562 Q362.7393 9.1562 362.333 9.7188 Q361.9268 10.2812 361.9268 11.2656 Q361.9268 12.2656 362.333 12.8281 Q362.7393 13.3906 363.458 13.3906 Q364.1611 13.3906 364.5752 12.8281 Q364.9893 12.2656 364.9893 11.2656 ZM371.9463 10.7031 L371.9463 14 L371.0557 14 L371.0557 10.7344 Q371.0557 9.9531 370.751 9.5703 Q370.4463 9.1875 369.8369 9.1875 Q369.1182 9.1875 368.6963 9.6484 Q368.2744 10.1094 368.2744 10.9062 L368.2744 14 L367.3682 14 L367.3682 6.4062 L368.2744 6.4062 L368.2744 9.375 Q368.6025 8.8906 369.04 8.6484 Q369.4775 8.4062 370.04 8.4062 Q370.9775 8.4062 371.4619 8.9844 Q371.9463 9.5625 371.9463 10.7031 ZM376.2217 11.25 Q375.1436 11.25 374.7217 11.5 Q374.2998 11.75 374.2998 12.3438 Q374.2998 12.8281 374.6123 13.1094 Q374.9248 13.3906 375.4717 13.3906 Q376.2217 13.3906 376.6748 12.8594 Q377.1279 12.3281 377.1279 11.4531 L377.1279 11.25 L376.2217 11.25 ZM378.0186 10.875 L378.0186 14 L377.1279 14 L377.1279 13.1719 Q376.8154 13.6719 376.3545 13.9062 Q375.8936 14.1406 375.2373 14.1406 Q374.3936 14.1406 373.8936 13.6719 Q373.3936 13.2031 373.3936 12.4062 Q373.3936 11.4844 374.0186 11.0156 Q374.6436 10.5469 375.8623 10.5469 L377.1279 10.5469 L377.1279 10.4531 Q377.1279 9.8438 376.7139 9.5 Q376.2998 9.1562 375.5654 9.1562 Q375.0967 9.1562 374.6514 9.2734 Q374.2061 9.3906 373.7998 9.6094 L373.7998 8.7812 Q374.2998 8.5938 374.7607 8.5 Q375.2217 8.4062 375.6592 8.4062 Q376.8467 8.4062 377.4326 9.0156 Q378.0186 9.625 378.0186 10.875 ZM383.3496 8.6875 L383.3496 9.5469 Q382.9746 9.3438 382.5684 9.25 Q382.1621 9.1562 381.709 9.1562 Q381.0527 9.1562 380.7168 9.3594 Q380.3809 9.5625 380.3809 9.9688 Q380.3809 10.2812 380.6152 10.4609 Q380.8496 10.6406 381.584 10.7969 L381.8809 10.875 Q382.8496 11.0781 383.248 11.4531 Q383.6465 11.8281 383.6465 12.4844 Q383.6465 13.25 383.0449 13.6953 Q382.4434 14.1406 381.3965 14.1406 Q380.9434 14.1406 380.4668 14.0547 Q379.9902 13.9688 379.4746 13.7969 L379.4746 12.875 Q379.9746 13.125 380.4512 13.2578 Q380.9277 13.3906 381.4121 13.3906 Q382.0371 13.3906 382.3809 13.1719 Q382.7246 12.9531 382.7246 12.5625 Q382.7246 12.1875 382.4824 11.9922 Q382.2402 11.7969 381.3965 11.625 L381.084 11.5469 Q380.2559 11.375 379.8809 11.0078 Q379.5059 10.6406 379.5059 10.0156 Q379.5059 9.2344 380.0527 8.8203 Q380.5996 8.4062 381.6152 8.4062 Q382.0996 8.4062 382.5449 8.4766 Q382.9902 8.5469 383.3496 8.6875 ZM389.7627 11.0469 L389.7627 11.4844 L385.6221 11.4844 Q385.6846 12.4062 386.1846 12.8906 Q386.6846 13.375 387.5752 13.375 Q388.0908 13.375 388.583 13.25 Q389.0752 13.125 389.5439 12.875 L389.5439 13.7188 Q389.0596 13.9219 388.5518 14.0312 Q388.0439 14.1406 387.5283 14.1406 Q386.2158 14.1406 385.4502 13.3828 Q384.6846 12.625 384.6846 11.3125 Q384.6846 9.9688 385.4111 9.1875 Q386.1377 8.4062 387.3721 8.4062 Q388.4814 8.4062 389.1221 9.1094 Q389.7627 9.8125 389.7627 11.0469 ZM388.8564 10.7812 Q388.8564 10.0469 388.4502 9.6016 Q388.0439 9.1562 387.3877 9.1562 Q386.6221 9.1562 386.1768 9.5859 Q385.7314 10.0156 385.6533 10.7812 L388.8564 10.7812 ZM395.2969 6.9844 L395.2969 8.5312 L397.1562 8.5312 L397.1562 9.2344 L395.2969 9.2344 L395.2969 12.2031 Q395.2969 12.8594 395.4844 13.0547 Q395.6719 13.25 396.2344 13.25 L397.1562 13.25 L397.1562 14 L396.2344 14 Q395.1875 14 394.7891 13.6094 Q394.3906 13.2188 394.3906 12.2031 L394.3906 9.2344 L393.7344 9.2344 L393.7344 8.5312 L394.3906 8.5312 L394.3906 6.9844 L395.2969 6.9844 ZM401.499 9.375 Q401.3428 9.2812 401.1709 9.2422 Q400.999 9.2031 400.7803 9.2031 Q400.0146 9.2031 399.6084 9.6953 Q399.2021 10.1875 399.2021 11.125 L399.2021 14 L398.2959 14 L398.2959 8.5312 L399.2021 8.5312 L399.2021 9.375 Q399.4834 8.875 399.9365 8.6406 Q400.3896 8.4062 401.0459 8.4062 Q401.1396 8.4062 401.249 8.4141 Q401.3584 8.4219 401.499 8.4531 L401.499 9.375 ZM404.9229 11.25 Q403.8447 11.25 403.4229 11.5 Q403.001 11.75 403.001 12.3438 Q403.001 12.8281 403.3135 13.1094 Q403.626 13.3906 404.1729 13.3906 Q404.9229 13.3906 405.376 12.8594 Q405.8291 12.3281 405.8291 11.4531 L405.8291 11.25 L404.9229 11.25 ZM406.7197 10.875 L406.7197 14 L405.8291 14 L405.8291 13.1719 Q405.5166 13.6719 405.0557 13.9062 Q404.5947 14.1406 403.9385 14.1406 Q403.0947 14.1406 402.5947 13.6719 Q402.0947 13.2031 402.0947 12.4062 Q402.0947 11.4844 402.7197 11.0156 Q403.3447 10.5469 404.5635 10.5469 L405.8291 10.5469 L405.8291 10.4531 Q405.8291 9.8438 405.415 9.5 Q405.001 9.1562 404.2666 9.1562 Q403.7979 9.1562 403.3525 9.2734 Q402.9072 9.3906 402.501 9.6094 L402.501 8.7812 Q403.001 8.5938 403.4619 8.5 Q403.9229 8.4062 404.3604 8.4062 Q405.5479 8.4062 406.1338 9.0156 Q406.7197 9.625 406.7197 10.875 ZM413.1133 10.7031 L413.1133 14 L412.2227 14 L412.2227 10.7344 Q412.2227 9.9531 411.918 9.5703 Q411.6133 9.1875 411.0039 9.1875 Q410.2852 9.1875 409.8633 9.6484 Q409.4414 10.1094 409.4414 10.9062 L409.4414 14 L408.5352 14 L408.5352 8.5312 L409.4414 8.5312 L409.4414 9.375 Q409.7695 8.8906 410.207 8.6484 Q410.6445 8.4062 411.207 8.4062 Q412.1445 8.4062 412.6289 8.9844 Q413.1133 9.5625 413.1133 10.7031 ZM418.3887 8.6875 L418.3887 9.5469 Q418.0137 9.3438 417.6074 9.25 Q417.2012 9.1562 416.748 9.1562 Q416.0918 9.1562 415.7559 9.3594 Q415.4199 9.5625 415.4199 9.9688 Q415.4199 10.2812 415.6543 10.4609 Q415.8887 10.6406 416.623 10.7969 L416.9199 10.875 Q417.8887 11.0781 418.2871 11.4531 Q418.6855 11.8281 418.6855 12.4844 Q418.6855 13.25 418.084 13.6953 Q417.4824 14.1406 416.4355 14.1406 Q415.9824 14.1406 415.5059 14.0547 Q415.0293 13.9688 414.5137 13.7969 L414.5137 12.875 Q415.0137 13.125 415.4902 13.2578 Q415.9668 13.3906 416.4512 13.3906 Q417.0762 13.3906 417.4199 13.1719 Q417.7637 12.9531 417.7637 12.5625 Q417.7637 12.1875 417.5215 11.9922 Q417.2793 11.7969 416.4355 11.625 L416.123 11.5469 Q415.2949 11.375 414.9199 11.0078 Q414.5449 10.6406 414.5449 10.0156 Q414.5449 9.2344 415.0918 8.8203 Q415.6387 8.4062 416.6543 8.4062 Q417.1387 8.4062 417.584 8.4766 Q418.0293 8.5469 418.3887 8.6875 ZM420.1143 8.5312 L421.0205 8.5312 L421.0205 14 L420.1143 14 L420.1143 8.5312 ZM420.1143 6.4062 L421.0205 6.4062 L421.0205 7.5469 L420.1143 7.5469 L420.1143 6.4062 ZM423.7832 6.9844 L423.7832 8.5312 L425.6426 8.5312 L425.6426 9.2344 L423.7832 9.2344 L423.7832 12.2031 Q423.7832 12.8594 423.9707 13.0547 Q424.1582 13.25 424.7207 13.25 L425.6426 13.25 L425.6426 14 L424.7207 14 Q423.6738 14 423.2754 13.6094 Q422.877 13.2188 422.877 12.2031 L422.877 9.2344 L422.2207 9.2344 L422.2207 8.5312 L422.877 8.5312 L422.877 6.9844 L423.7832 6.9844 ZM426.8135 8.5312 L427.7197 8.5312 L427.7197 14 L426.8135 14 L426.8135 8.5312 ZM426.8135 6.4062 L427.7197 6.4062 L427.7197 7.5469 L426.8135 7.5469 L426.8135 6.4062 ZM431.7168 9.1562 Q430.998 9.1562 430.5762 9.7188 Q430.1543 10.2812 430.1543 11.2656 Q430.1543 12.25 430.5684 12.8125 Q430.9824 13.375 431.7168 13.375 Q432.4355 13.375 432.8574 12.8125 Q433.2793 12.25 433.2793 11.2656 Q433.2793 10.2969 432.8574 9.7266 Q432.4355 9.1562 431.7168 9.1562 ZM431.7168 8.4062 Q432.8887 8.4062 433.5605 9.1641 Q434.2324 9.9219 434.2324 11.2656 Q434.2324 12.6094 433.5605 13.375 Q432.8887 14.1406 431.7168 14.1406 Q430.5449 14.1406 429.873 13.375 Q429.2012 12.6094 429.2012 11.2656 Q429.2012 9.9219 429.873 9.1641 Q430.5449 8.4062 431.7168 8.4062 ZM440.2568 10.7031 L440.2568 14 L439.3662 14 L439.3662 10.7344 Q439.3662 9.9531 439.0615 9.5703 Q438.7568 9.1875 438.1475 9.1875 Q437.4287 9.1875 437.0068 9.6484 Q436.585 10.1094 436.585 10.9062 L436.585 14 L435.6787 14 L435.6787 8.5312 L436.585 8.5312 L436.585 9.375 Q436.9131 8.8906 437.3506 8.6484 Q437.7881 8.4062 438.3506 8.4062 Q439.2881 8.4062 439.7725 8.9844 Q440.2568 9.5625 440.2568 10.7031 Z"
         style="clip-path:url(#clipPath2); stroke:none;"
         clip-path="url(#clipPath2)"
         id="path148" />
      <path
         d="M4.25 21.9375 Q3.3906 21.9375 2.9141 22.5703 Q2.4375 23.2031 2.4375 24.3594 Q2.4375 25.5156 2.9141 26.1484 Q3.3906 26.7812 4.25 26.7812 Q5.1094 26.7812 5.5859 26.1484 Q6.0625 25.5156 6.0625 24.3594 Q6.0625 23.2031 5.5859 22.5703 Q5.1094 21.9375 4.25 21.9375 ZM4.25 20.5781 Q6 20.5781 7 21.5859 Q8 22.5938 8 24.3594 Q8 26.125 7 27.1328 Q6 28.1406 4.25 28.1406 Q2.5 28.1406 1.5 27.1328 Q0.5 26.125 0.5 24.3594 Q0.5 22.5938 1.5 21.5859 Q2.5 20.5781 4.25 20.5781 ZM13.4072 24.0156 Q13.1729 23.9062 12.9463 23.8594 Q12.7197 23.8125 12.4854 23.8125 Q11.8135 23.8125 11.4541 24.2422 Q11.0947 24.6719 11.0947 25.4844 L11.0947 28 L9.3447 28 L9.3447 22.5312 L11.0947 22.5312 L11.0947 23.4219 Q11.4229 22.8906 11.8604 22.6484 Q12.2979 22.4062 12.9072 22.4062 Q13.001 22.4062 13.1025 22.4062 Q13.2041 22.4062 13.3916 22.4375 L13.4072 24.0156 ZM17.9951 27.0781 Q17.6357 27.5469 17.1982 27.7734 Q16.7607 28 16.1982 28 Q15.1982 28 14.542 27.2109 Q13.8857 26.4219 13.8857 25.2031 Q13.8857 23.9688 14.542 23.1875 Q15.1982 22.4062 16.1982 22.4062 Q16.7607 22.4062 17.1982 22.6328 Q17.6357 22.8594 17.9951 23.3438 L17.9951 22.5312 L19.7451 22.5312 L19.7451 27.4531 Q19.7451 28.7656 18.917 29.4609 Q18.0889 30.1562 16.5107 30.1562 Q15.9951 30.1562 15.5186 30.0781 Q15.042 30 14.5576 29.8438 L14.5576 28.4844 Q15.0107 28.75 15.4482 28.875 Q15.8857 29 16.3389 29 Q17.1982 29 17.5967 28.625 Q17.9951 28.25 17.9951 27.4531 L17.9951 27.0781 ZM16.8389 23.6719 Q16.292 23.6719 15.9951 24.0703 Q15.6982 24.4688 15.6982 25.2031 Q15.6982 25.9531 15.9873 26.3438 Q16.2764 26.7344 16.8389 26.7344 Q17.3857 26.7344 17.6904 26.3281 Q17.9951 25.9219 17.9951 25.2031 Q17.9951 24.4688 17.6904 24.0703 Q17.3857 23.6719 16.8389 23.6719 ZM23.8877 25.5312 Q23.3408 25.5312 23.0596 25.7188 Q22.7783 25.9062 22.7783 26.2656 Q22.7783 26.6094 23.0049 26.7969 Q23.2314 26.9844 23.6221 26.9844 Q24.1221 26.9844 24.458 26.625 Q24.7939 26.2656 24.7939 25.7344 L24.7939 25.5312 L23.8877 25.5312 ZM26.5596 24.875 L26.5596 28 L24.7939 28 L24.7939 27.1875 Q24.4346 27.6875 23.9971 27.9141 Q23.5596 28.1406 22.9346 28.1406 Q22.0752 28.1406 21.5518 27.6484 Q21.0283 27.1562 21.0283 26.3594 Q21.0283 25.3906 21.6846 24.9453 Q22.3408 24.5 23.7627 24.5 L24.7939 24.5 L24.7939 24.3594 Q24.7939 23.9531 24.4658 23.7578 Q24.1377 23.5625 23.4502 23.5625 Q22.8877 23.5625 22.4033 23.6719 Q21.9189 23.7812 21.4971 24.0156 L21.4971 22.6719 Q22.0596 22.5469 22.6299 22.4766 Q23.2002 22.4062 23.7627 22.4062 Q25.2471 22.4062 25.9033 22.9844 Q26.5596 23.5625 26.5596 24.875 ZM33.6826 24.6719 L33.6826 28 L31.917 28 L31.917 27.4531 L31.917 25.4531 Q31.917 24.75 31.8857 24.4766 Q31.8545 24.2031 31.7764 24.0781 Q31.6826 23.9062 31.5029 23.8125 Q31.3232 23.7188 31.1045 23.7188 Q30.5576 23.7188 30.2451 24.1406 Q29.9326 24.5625 29.9326 25.3125 L29.9326 28 L28.1826 28 L28.1826 22.5312 L29.9326 22.5312 L29.9326 23.3281 Q30.3232 22.8594 30.7686 22.6328 Q31.2139 22.4062 31.7451 22.4062 Q32.6982 22.4062 33.1904 22.9844 Q33.6826 23.5625 33.6826 24.6719 ZM35.3018 22.5312 L37.0518 22.5312 L37.0518 28 L35.3018 28 L35.3018 22.5312 ZM35.3018 20.4062 L37.0518 20.4062 L37.0518 21.8281 L35.3018 21.8281 L35.3018 20.4062 ZM42.9951 22.7031 L42.9951 24.0312 Q42.4326 23.7969 41.9092 23.6797 Q41.3857 23.5625 40.9326 23.5625 Q40.4326 23.5625 40.1904 23.6875 Q39.9482 23.8125 39.9482 24.0625 Q39.9482 24.2812 40.1279 24.3906 Q40.3076 24.5 40.792 24.5625 L41.0889 24.5938 Q42.4326 24.7656 42.9014 25.1562 Q43.3701 25.5469 43.3701 26.3906 Q43.3701 27.2656 42.7217 27.7031 Q42.0732 28.1406 40.792 28.1406 Q40.2607 28.1406 39.6826 28.0547 Q39.1045 27.9688 38.4795 27.7969 L38.4795 26.4688 Q39.0107 26.7188 39.5576 26.8516 Q40.1045 26.9844 40.667 26.9844 Q41.1826 26.9844 41.4404 26.8438 Q41.6982 26.7031 41.6982 26.4219 Q41.6982 26.1875 41.5264 26.0703 Q41.3545 25.9531 40.8232 25.8906 L40.5107 25.8438 Q39.3389 25.7031 38.8701 25.3047 Q38.4014 24.9062 38.4014 24.1094 Q38.4014 23.2344 38.9951 22.8203 Q39.5889 22.4062 40.8232 22.4062 Q41.3076 22.4062 41.8389 22.4766 Q42.3701 22.5469 42.9951 22.7031 ZM49.7441 23.4375 Q50.0723 22.9375 50.5332 22.6719 Q50.9941 22.4062 51.541 22.4062 Q52.4785 22.4062 52.9707 22.9844 Q53.4629 23.5625 53.4629 24.6719 L53.4629 28 L51.7129 28 L51.7129 25.1406 Q51.7129 25.0781 51.7129 25.0156 Q51.7129 24.9531 51.7129 24.8281 Q51.7129 24.2344 51.5488 23.9766 Q51.3848 23.7188 50.9941 23.7188 Q50.4941 23.7188 50.2285 24.125 Q49.9629 24.5312 49.9473 25.3125 L49.9473 28 L48.1816 28 L48.1816 25.1406 Q48.1816 24.2344 48.0254 23.9766 Q47.8691 23.7188 47.4785 23.7188 Q46.9785 23.7188 46.7051 24.1328 Q46.4316 24.5469 46.4316 25.3125 L46.4316 28 L44.666 28 L44.666 22.5312 L46.4316 22.5312 L46.4316 23.3281 Q46.7441 22.875 47.166 22.6406 Q47.5879 22.4062 48.0879 22.4062 Q48.6504 22.4062 49.0879 22.6797 Q49.5254 22.9531 49.7441 23.4375 ZM55.3828 22.5312 L57.1328 22.5312 L57.1328 24.4219 L55.3828 24.4219 L55.3828 22.5312 ZM55.3828 26.1094 L57.1328 26.1094 L57.1328 28 L55.3828 28 L55.3828 26.1094 Z"
         style="clip-path:url(#clipPath2); stroke:none;"
         clip-path="url(#clipPath2)"
         id="path150" />
      <path
         d="M66.9844 20.7031 L67.9688 20.7031 L67.9688 23.7031 L71.5469 23.7031 L71.5469 20.7031 L72.5312 20.7031 L72.5312 28 L71.5469 28 L71.5469 24.5312 L67.9688 24.5312 L67.9688 28 L66.9844 28 L66.9844 20.7031 ZM76.582 23.1562 Q75.8633 23.1562 75.4414 23.7188 Q75.0195 24.2812 75.0195 25.2656 Q75.0195 26.25 75.4336 26.8125 Q75.8477 27.375 76.582 27.375 Q77.3008 27.375 77.7227 26.8125 Q78.1445 26.25 78.1445 25.2656 Q78.1445 24.2969 77.7227 23.7266 Q77.3008 23.1562 76.582 23.1562 ZM76.582 22.4062 Q77.7539 22.4062 78.4258 23.1641 Q79.0977 23.9219 79.0977 25.2656 Q79.0977 26.6094 78.4258 27.375 Q77.7539 28.1406 76.582 28.1406 Q75.4102 28.1406 74.7383 27.375 Q74.0664 26.6094 74.0664 25.2656 Q74.0664 23.9219 74.7383 23.1641 Q75.4102 22.4062 76.582 22.4062 ZM84.8408 23.5781 Q85.1689 22.9688 85.6377 22.6875 Q86.1064 22.4062 86.7471 22.4062 Q87.6064 22.4062 88.0674 23 Q88.5283 23.5938 88.5283 24.7031 L88.5283 28 L87.6221 28 L87.6221 24.7344 Q87.6221 23.9375 87.3486 23.5625 Q87.0752 23.1875 86.4971 23.1875 Q85.7939 23.1875 85.3955 23.6484 Q84.9971 24.1094 84.9971 24.9062 L84.9971 28 L84.0908 28 L84.0908 24.7344 Q84.0908 23.9375 83.8096 23.5625 Q83.5283 23.1875 82.9502 23.1875 Q82.2627 23.1875 81.8564 23.6484 Q81.4502 24.1094 81.4502 24.9062 L81.4502 28 L80.5439 28 L80.5439 22.5312 L81.4502 22.5312 L81.4502 23.375 Q81.7627 22.875 82.1924 22.6406 Q82.6221 22.4062 83.2002 22.4062 Q83.8096 22.4062 84.2236 22.7031 Q84.6377 23 84.8408 23.5781 ZM92.4414 23.1562 Q91.7227 23.1562 91.3008 23.7188 Q90.8789 24.2812 90.8789 25.2656 Q90.8789 26.25 91.293 26.8125 Q91.707 27.375 92.4414 27.375 Q93.1602 27.375 93.582 26.8125 Q94.0039 26.25 94.0039 25.2656 Q94.0039 24.2969 93.582 23.7266 Q93.1602 23.1562 92.4414 23.1562 ZM92.4414 22.4062 Q93.6133 22.4062 94.2852 23.1641 Q94.957 23.9219 94.957 25.2656 Q94.957 26.6094 94.2852 27.375 Q93.6133 28.1406 92.4414 28.1406 Q91.2695 28.1406 90.5977 27.375 Q89.9258 26.6094 89.9258 25.2656 Q89.9258 23.9219 90.5977 23.1641 Q91.2695 22.4062 92.4414 22.4062 ZM103.0977 22.6875 L103.0977 23.5469 Q102.7227 23.3438 102.3164 23.25 Q101.9102 23.1562 101.457 23.1562 Q100.8008 23.1562 100.4648 23.3594 Q100.1289 23.5625 100.1289 23.9688 Q100.1289 24.2812 100.3633 24.4609 Q100.5977 24.6406 101.332 24.7969 L101.6289 24.875 Q102.5977 25.0781 102.9961 25.4531 Q103.3945 25.8281 103.3945 26.4844 Q103.3945 27.25 102.793 27.6953 Q102.1914 28.1406 101.1445 28.1406 Q100.6914 28.1406 100.2148 28.0547 Q99.7383 27.9688 99.2227 27.7969 L99.2227 26.875 Q99.7227 27.125 100.1992 27.2578 Q100.6758 27.3906 101.1602 27.3906 Q101.7852 27.3906 102.1289 27.1719 Q102.4727 26.9531 102.4727 26.5625 Q102.4727 26.1875 102.2305 25.9922 Q101.9883 25.7969 101.1445 25.625 L100.832 25.5469 Q100.0039 25.375 99.6289 25.0078 Q99.2539 24.6406 99.2539 24.0156 Q99.2539 23.2344 99.8008 22.8203 Q100.3477 22.4062 101.3633 22.4062 Q101.8477 22.4062 102.293 22.4766 Q102.7383 22.5469 103.0977 22.6875 ZM107.3076 25.25 Q106.2295 25.25 105.8076 25.5 Q105.3857 25.75 105.3857 26.3438 Q105.3857 26.8281 105.6982 27.1094 Q106.0107 27.3906 106.5576 27.3906 Q107.3076 27.3906 107.7607 26.8594 Q108.2139 26.3281 108.2139 25.4531 L108.2139 25.25 L107.3076 25.25 ZM109.1045 24.875 L109.1045 28 L108.2139 28 L108.2139 27.1719 Q107.9014 27.6719 107.4404 27.9062 Q106.9795 28.1406 106.3232 28.1406 Q105.4795 28.1406 104.9795 27.6719 Q104.4795 27.2031 104.4795 26.4062 Q104.4795 25.4844 105.1045 25.0156 Q105.7295 24.5469 106.9482 24.5469 L108.2139 24.5469 L108.2139 24.4531 Q108.2139 23.8438 107.7998 23.5 Q107.3857 23.1562 106.6514 23.1562 Q106.1826 23.1562 105.7373 23.2734 Q105.292 23.3906 104.8857 23.6094 L104.8857 22.7812 Q105.3857 22.5938 105.8467 22.5 Q106.3076 22.4062 106.7451 22.4062 Q107.9326 22.4062 108.5186 23.0156 Q109.1045 23.625 109.1045 24.875 ZM111.8262 27.1719 L111.8262 30.0781 L110.9199 30.0781 L110.9199 22.5312 L111.8262 22.5312 L111.8262 23.3594 Q112.1074 22.875 112.5371 22.6406 Q112.9668 22.4062 113.5762 22.4062 Q114.5762 22.4062 115.1934 23.1953 Q115.8105 23.9844 115.8105 25.2656 Q115.8105 26.5625 115.1934 27.3516 Q114.5762 28.1406 113.5762 28.1406 Q112.9668 28.1406 112.5371 27.9062 Q112.1074 27.6719 111.8262 27.1719 ZM114.8887 25.2656 Q114.8887 24.2812 114.4746 23.7188 Q114.0605 23.1562 113.3574 23.1562 Q112.6387 23.1562 112.2324 23.7188 Q111.8262 24.2812 111.8262 25.2656 Q111.8262 26.2656 112.2324 26.8281 Q112.6387 27.3906 113.3574 27.3906 Q114.0605 27.3906 114.4746 26.8281 Q114.8887 26.2656 114.8887 25.2656 ZM117.2988 22.5312 L118.2051 22.5312 L118.2051 28 L117.2988 28 L117.2988 22.5312 ZM117.2988 20.4062 L118.2051 20.4062 L118.2051 21.5469 L117.2988 21.5469 L117.2988 20.4062 ZM124.7646 25.0469 L124.7646 25.4844 L120.624 25.4844 Q120.6865 26.4062 121.1865 26.8906 Q121.6865 27.375 122.5771 27.375 Q123.0928 27.375 123.585 27.25 Q124.0771 27.125 124.5459 26.875 L124.5459 27.7188 Q124.0615 27.9219 123.5537 28.0312 Q123.0459 28.1406 122.5303 28.1406 Q121.2178 28.1406 120.4521 27.3828 Q119.6865 26.625 119.6865 25.3125 Q119.6865 23.9688 120.4131 23.1875 Q121.1396 22.4062 122.374 22.4062 Q123.4834 22.4062 124.124 23.1094 Q124.7646 23.8125 124.7646 25.0469 ZM123.8584 24.7812 Q123.8584 24.0469 123.4521 23.6016 Q123.0459 23.1562 122.3896 23.1562 Q121.624 23.1562 121.1787 23.5859 Q120.7334 24.0156 120.6553 24.7812 L123.8584 24.7812 ZM130.7764 24.7031 L130.7764 28 L129.8857 28 L129.8857 24.7344 Q129.8857 23.9531 129.5811 23.5703 Q129.2764 23.1875 128.667 23.1875 Q127.9482 23.1875 127.5264 23.6484 Q127.1045 24.1094 127.1045 24.9062 L127.1045 28 L126.1982 28 L126.1982 22.5312 L127.1045 22.5312 L127.1045 23.375 Q127.4326 22.8906 127.8701 22.6484 Q128.3076 22.4062 128.8701 22.4062 Q129.8076 22.4062 130.292 22.9844 Q130.7764 23.5625 130.7764 24.7031 ZM136.0518 22.6875 L136.0518 23.5469 Q135.6768 23.3438 135.2705 23.25 Q134.8643 23.1562 134.4111 23.1562 Q133.7549 23.1562 133.4189 23.3594 Q133.083 23.5625 133.083 23.9688 Q133.083 24.2812 133.3174 24.4609 Q133.5518 24.6406 134.2861 24.7969 L134.583 24.875 Q135.5518 25.0781 135.9502 25.4531 Q136.3486 25.8281 136.3486 26.4844 Q136.3486 27.25 135.7471 27.6953 Q135.1455 28.1406 134.0986 28.1406 Q133.6455 28.1406 133.1689 28.0547 Q132.6924 27.9688 132.1768 27.7969 L132.1768 26.875 Q132.6768 27.125 133.1533 27.2578 Q133.6299 27.3906 134.1143 27.3906 Q134.7393 27.3906 135.083 27.1719 Q135.4268 26.9531 135.4268 26.5625 Q135.4268 26.1875 135.1846 25.9922 Q134.9424 25.7969 134.0986 25.625 L133.7861 25.5469 Q132.958 25.375 132.583 25.0078 Q132.208 24.6406 132.208 24.0156 Q132.208 23.2344 132.7549 22.8203 Q133.3018 22.4062 134.3174 22.4062 Q134.8018 22.4062 135.2471 22.4766 Q135.6924 22.5469 136.0518 22.6875 Z"
         style="clip-path:url(#clipPath2); stroke:none;"
         clip-path="url(#clipPath2)"
         id="path152" />
    </g>
    <g
       style="fill:navy; text-rendering:geometricPrecision; font-size:8; stroke:navy;"
       id="g158">
      <text
         x="446"
         xml:space="preserve"
         y="16"
         style="clip-path:url(#clipPath4); stroke:none;"
         clip-path="url(#clipPath4)"
         id="text156">1</text>
    </g>
    <g
       style="fill:rgb(180,180,100); text-rendering:geometricPrecision; fill-opacity:0.098; stroke-opacity:0.098; stroke:rgb(180,180,100);"
       id="g162">
      <path
         d="M650 256.5 L761 256.5 L779 274.5 L779 311.5 L761 329.5 L650 329.5 L632 311.5 L632 274.5 Z"
         style="clip-path:url(#clipPath5); stroke:none;"
         clip-path="url(#clipPath5)"
         id="path160" />
    </g>
    <g
       style="fill:gray; text-rendering:geometricPrecision; stroke:gray;"
       id="g166">
      <path
         d="M650 256.5 L761 256.5 L779 274.5 L779 311.5 L761 329.5 L650 329.5 L632 311.5 L632 274.5 Z"
         style="fill:none; clip-path:url(#clipPath5);"
         clip-path="url(#clipPath5)"
         id="path164" />
    </g>
    <g
       style="fill:rgb(180,180,100); text-rendering:geometricPrecision; fill-opacity:0.098; stroke-opacity:0.098; stroke:rgb(180,180,100);"
       id="g170">
      <path
         d="M392 237.5 L442 237.5 L460 255.5 L460 292.5 L442 310.5 L392 310.5 L374 292.5 L374 255.5 Z"
         style="clip-path:url(#clipPath6); stroke:none;"
         clip-path="url(#clipPath6)"
         id="path168" />
    </g>
    <g
       style="fill:gray; text-rendering:geometricPrecision; stroke:gray;"
       id="g174">
      <path
         d="M392 237.5 L442 237.5 L460 255.5 L460 292.5 L442 310.5 L392 310.5 L374 292.5 L374 255.5 Z"
         style="fill:none; clip-path:url(#clipPath6);"
         clip-path="url(#clipPath6)"
         id="path172" />
    </g>
    <g
       style="fill:rgb(180,180,100); text-rendering:geometricPrecision; fill-opacity:0.098; stroke-opacity:0.098; stroke:rgb(180,180,100);"
       id="g178">
      <path
         d="M144 308.5 L219 308.5 L237 326.5 L237 388.5 L219 406.5 L144 406.5 L126 388.5 L126 326.5 Z"
         style="clip-path:url(#clipPath7); stroke:none;"
         clip-path="url(#clipPath7)"
         id="path176" />
    </g>
    <g
       style="fill:gray; text-rendering:geometricPrecision; stroke:gray;"
       id="g182">
      <path
         d="M144 308.5 L219 308.5 L237 326.5 L237 388.5 L219 406.5 L144 406.5 L126 388.5 L126 326.5 Z"
         style="fill:none; clip-path:url(#clipPath7);"
         clip-path="url(#clipPath7)"
         id="path180" />
    </g>
    <g
       style="text-rendering:geometricPrecision;"
       id="g188">
      <path
         d="M434 453.5 L434 515.5"
         style="fill:none; clip-path:url(#clipPath8);"
         clip-path="url(#clipPath8)"
         id="path184" />
      <path
         d="M434 515.5 L439.2 503.8 L428.8 503.8 Z"
         style="clip-path:url(#clipPath8); fill-rule:evenodd; stroke:none;"
         clip-path="url(#clipPath8)"
         id="path186" />
    </g>
    <g
       style="text-rendering:geometricPrecision;"
       id="g196">
      <path
         d="M238 358 L236 563 M236 563 L569 563 M569 563 L568.5982 413"
         style="fill:none; clip-path:url(#clipPath9);"
         clip-path="url(#clipPath9)"
         id="path190" />
      <path
         d="M568.5704 402.6 C571.4422 402.5923 573.7766 404.9142 573.7842 407.786 C573.7919 410.6579 571.4701 412.9923 568.5982 413 C565.7263 413.0077 563.392 410.6858 563.3843 407.8139 C563.3766 404.942 565.6985 402.6077 568.5704 402.6 Z"
         style="fill:white; clip-path:url(#clipPath9); stroke:none;"
         clip-path="url(#clipPath9)"
         id="path192" />
      <path
         d="M568.5704 402.6 C571.4422 402.5923 573.7766 404.9142 573.7842 407.786 C573.7919 410.6579 571.4701 412.9923 568.5982 413 C565.7263 413.0077 563.392 410.6858 563.3843 407.8139 C563.3766 404.942 565.6985 402.6077 568.5704 402.6 Z"
         style="fill:none; clip-path:url(#clipPath9);"
         clip-path="url(#clipPath9)"
         id="path194" />
    </g>
    <g
       style="text-rendering:geometricPrecision;"
       id="g202">
      <path
         d="M703 403 L737 403 M737 403 L737 318.5"
         style="fill:none; clip-path:url(#clipPath10);"
         clip-path="url(#clipPath10)"
         id="path198" />
      <path
         d="M737 318.5 L731.8 330.2 L737 323.7 L742.2 330.2 Z"
         style="clip-path:url(#clipPath10); stroke:none;"
         clip-path="url(#clipPath10)"
         id="path200" />
    </g>
    <g
       style="text-rendering:geometricPrecision;"
       id="g210">
      <path
         d="M182.2577 265.8361 L182.0423 301.5001"
         style="fill:none; clip-path:url(#clipPath11);"
         clip-path="url(#clipPath11)"
         id="path204" />
      <path
         d="M191.1421 301.5551 L191.1343 302.8551 L171.6346 302.7373 L171.6425 301.4373 L191.1421 301.5551 Z"
         style="fill:white; clip-path:url(#clipPath11); stroke:none;"
         clip-path="url(#clipPath11)"
         id="path206" />
      <path
         d="M191.1421 301.5551 L191.1343 302.8551 L171.6346 302.7373 L171.6425 301.4373 L191.1421 301.5551 Z"
         style="fill:none; clip-path:url(#clipPath11);"
         clip-path="url(#clipPath11)"
         id="path208" />
    </g>
    <g
       style="text-rendering:geometricPrecision;"
       id="g216">
      <path
         d="M706 256.5 L706 211"
         style="fill:none; clip-path:url(#clipPath12);"
         clip-path="url(#clipPath12)"
         id="path212" />
      <path
         d="M706 211 L700.8 222.7 L711.2 222.7 Z"
         style="clip-path:url(#clipPath12); fill-rule:evenodd; stroke:none;"
         clip-path="url(#clipPath12)"
         id="path214" />
    </g>
    <g
       style="text-rendering:geometricPrecision;"
       id="g222">
      <path
         d="M417.5 311.5 L418.25 428.5"
         style="fill:none; clip-path:url(#clipPath13);"
         clip-path="url(#clipPath13)"
         id="path218" />
      <path
         d="M418.25 428.5 L423.3749 416.7669 L412.9751 416.8336 Z"
         style="clip-path:url(#clipPath13); fill-rule:evenodd; stroke:none;"
         clip-path="url(#clipPath13)"
         id="path220" />
    </g>
    <g
       style="text-rendering:geometricPrecision;"
       id="g230">
      <path
         d="M238 358 L407.8 358.2833"
         style="fill:none; clip-path:url(#clipPath14);"
         clip-path="url(#clipPath14)"
         id="path224" />
      <path
         d="M418.2 358.3007 C418.1952 361.1725 415.8632 363.4968 412.9913 363.492 C410.1194 363.4872 407.7952 361.1552 407.8 358.2833 C407.8048 355.4114 410.1368 353.0872 413.0087 353.092 C415.8806 353.0968 418.2048 355.4288 418.2 358.3007 Z"
         style="fill:white; clip-path:url(#clipPath14); stroke:none;"
         clip-path="url(#clipPath14)"
         id="path226" />
      <path
         d="M418.2 358.3007 C418.1952 361.1725 415.8632 363.4968 412.9913 363.492 C410.1194 363.4872 407.7952 361.1552 407.8 358.2833 C407.8048 355.4114 410.1368 353.0872 413.0087 353.092 C415.8806 353.0968 418.2048 355.4288 418.2 358.3007 Z"
         style="fill:none; clip-path:url(#clipPath14);"
         clip-path="url(#clipPath14)"
         id="path228" />
    </g>
    <g
       style="text-rendering:geometricPrecision;"
       id="g236">
      <path
         d="M525 403 L640 403"
         style="fill:none; clip-path:url(#clipPath15);"
         clip-path="url(#clipPath15)"
         id="path232" />
      <path
         d="M640 403 L628.3 397.8 L628.3 408.2 Z"
         style="clip-path:url(#clipPath15); fill-rule:evenodd; stroke:none;"
         clip-path="url(#clipPath15)"
         id="path234" />
    </g>
    <g
       style="font-weight:bold; font-size:10; text-rendering:geometricPrecision;"
       id="g240">
      <text
         x="361"
         xml:space="preserve"
         y="103"
         style="clip-path:url(#clipPath16); stroke:none;"
         clip-path="url(#clipPath16)"
         id="text238">Chromosomes align</text>
    </g>
    <g
       style="font-weight:bold; font-size:10; text-rendering:geometricPrecision;"
       id="g244">
      <text
         x="92"
         xml:space="preserve"
         y="105"
         style="clip-path:url(#clipPath17); stroke:none;"
         clip-path="url(#clipPath17)"
         id="text242">Chromosomes attach to spindle</text>
    </g>
    <g
       style="font-weight:bold; font-size:10; text-rendering:geometricPrecision;"
       id="g248">
      <text
         x="113"
         xml:space="preserve"
         y="146"
         style="clip-path:url(#clipPath18); stroke:none;"
         clip-path="url(#clipPath18)"
         id="text246">Spindle checkpoint ON</text>
    </g>
    <g
       style="font-weight:bold; text-rendering:geometricPrecision;"
       id="g254">
      <text
         x="369"
         xml:space="preserve"
         y="528"
         style="clip-path:url(#clipPath19); stroke:none;"
         clip-path="url(#clipPath19)"
         id="text250">Ubiquitin-mediated</text>
      <text
         x="393"
         xml:space="preserve"
         y="541"
         style="clip-path:url(#clipPath19); stroke:none;"
         clip-path="url(#clipPath19)"
         id="text252">degradation</text>
    </g>
    <g
       style="fill:white; text-rendering:geometricPrecision; stroke:white;"
       id="g262">
      <path
         d="M118 182.8361 L182.2577 182.8361 L182.2577 207.8361 L118 207.8361 L118 182.8361 Z"
         style="clip-path:url(#clipPath20); stroke:none;"
         clip-path="url(#clipPath20)"
         id="path256" />
      <path
         d="M118 182.8361 L182.2577 182.8361 L182.2577 207.8361 L118 207.8361 L118 182.8361 Z"
         style="fill:none; clip-path:url(#clipPath20); stroke:black;"
         clip-path="url(#clipPath20)"
         id="path258" />
      <text
         x="126"
         y="199"
         style="fill:black; clip-path:url(#clipPath20); stroke:none;"
         xml:space="preserve"
         clip-path="url(#clipPath20)"
         id="text260">MAD1L1</text>
    </g>
    <g
       style="fill:white; text-rendering:geometricPrecision; stroke:white;"
       id="g270">
      <path
         d="M166 320.5 L226 320.5 L226 345.5 L166 345.5 L166 320.5 Z"
         style="clip-path:url(#clipPath21); stroke:none;"
         clip-path="url(#clipPath21)"
         id="path264" />
      <path
         d="M166 320.5 L226 320.5 L226 345.5 L166 345.5 L166 320.5 Z"
         style="fill:none; clip-path:url(#clipPath21); stroke:black;"
         clip-path="url(#clipPath21)"
         id="path266" />
      <text
         x="176"
         y="337"
         style="fill:black; clip-path:url(#clipPath21); stroke:none;"
         xml:space="preserve"
         clip-path="url(#clipPath21)"
         id="text268">CDC20</text>
    </g>
    <g
       style="fill:white; text-rendering:geometricPrecision; stroke:white;"
       id="g278">
      <path
         d="M644 268.5 L706 268.5 L706 293.5 L644 293.5 L644 268.5 Z"
         style="clip-path:url(#clipPath22); stroke:none;"
         clip-path="url(#clipPath22)"
         id="path272" />
      <path
         d="M644 268.5 L706 268.5 L706 293.5 L644 293.5 L644 268.5 Z"
         style="fill:none; clip-path:url(#clipPath22); stroke:black;"
         clip-path="url(#clipPath22)"
         id="path274" />
      <text
         x="654"
         y="285"
         style="fill:black; clip-path:url(#clipPath22); stroke:none;"
         xml:space="preserve"
         clip-path="url(#clipPath22)"
         id="text276">SMC1A</text>
    </g>
    <g
       style="fill:white; text-rendering:geometricPrecision; stroke:white;"
       id="g286">
      <path
         d="M386 249.5 L449 249.5 L449 274.5 L386 274.5 L386 249.5 Z"
         style="clip-path:url(#clipPath23); stroke:none;"
         clip-path="url(#clipPath23)"
         id="path280" />
      <path
         d="M386 249.5 L449 249.5 L449 274.5 L386 274.5 L386 249.5 Z"
         style="fill:none; clip-path:url(#clipPath23); stroke:black;"
         clip-path="url(#clipPath23)"
         id="path282" />
      <text
         x="399"
         y="266"
         style="fill:black; clip-path:url(#clipPath23); stroke:none;"
         xml:space="preserve"
         clip-path="url(#clipPath23)"
         id="text284">ESPL1</text>
    </g>
    <g
       style="fill:white; text-rendering:geometricPrecision; stroke:white;"
       id="g294">
      <path
         d="M456.5 251.5 C456.5 255.6421 453.1422 259 449 259 C444.8578 259 441.5 255.6421 441.5 251.5 C441.5 247.3579 444.8578 244 449 244 C453.1422 244 456.5 247.3579 456.5 251.5 Z"
         style="clip-path:url(#clipPath24); stroke:none;"
         clip-path="url(#clipPath24)"
         id="path288" />
      <path
         d="M456.5 251.5 C456.5 255.6421 453.1422 259 449 259 C444.8578 259 441.5 255.6421 441.5 251.5 C441.5 247.3579 444.8578 244 449 244 C453.1422 244 456.5 247.3579 456.5 251.5 Z"
         style="fill:none; clip-path:url(#clipPath24); stroke:black;"
         clip-path="url(#clipPath24)"
         id="path290" />
      <text
         x="446"
         y="255"
         style="font-size:10; clip-path:url(#clipPath24); fill:black; stroke:none;"
         xml:space="preserve"
         clip-path="url(#clipPath24)"
         id="text292">P</text>
    </g>
    <g
       style="fill:white; text-rendering:geometricPrecision; stroke:white;"
       id="g302">
      <path
         d="M118 207.8361 L182.2577 207.8361 L182.2577 232.8361 L118 232.8361 L118 207.8361 Z"
         style="clip-path:url(#clipPath25); stroke:none;"
         clip-path="url(#clipPath25)"
         id="path296" />
      <path
         d="M118 207.8361 L182.2577 207.8361 L182.2577 232.8361 L118 232.8361 L118 207.8361 Z"
         style="fill:none; clip-path:url(#clipPath25); stroke:black;"
         clip-path="url(#clipPath25)"
         id="path298" />
      <text
         x="126"
         y="224"
         style="fill:black; clip-path:url(#clipPath25); stroke:none;"
         xml:space="preserve"
         clip-path="url(#clipPath25)"
         id="text300">MAD2L1</text>
    </g>
    <g
       style="fill:white; text-rendering:geometricPrecision; stroke:white;"
       id="g310">
      <path
         d="M182.2577 182.8361 L246.5154 182.8361 L246.5154 207.8361 L182.2577 207.8361 L182.2577 182.8361 Z"
         style="clip-path:url(#clipPath26); stroke:none;"
         clip-path="url(#clipPath26)"
         id="path304" />
      <path
         d="M182.2577 182.8361 L246.5154 182.8361 L246.5154 207.8361 L182.2577 207.8361 L182.2577 182.8361 Z"
         style="fill:none; clip-path:url(#clipPath26); stroke:black;"
         clip-path="url(#clipPath26)"
         id="path306" />
      <text
         x="198"
         y="199"
         style="fill:black; clip-path:url(#clipPath26); stroke:none;"
         xml:space="preserve"
         clip-path="url(#clipPath26)"
         id="text308">BUB1</text>
    </g>
    <g
       style="fill:white; text-rendering:geometricPrecision; stroke:white;"
       id="g318">
      <path
         d="M182.2577 207.8361 L246.5154 207.8361 L246.5154 232.8361 L182.2577 232.8361 L182.2577 207.8361 Z"
         style="clip-path:url(#clipPath27); stroke:none;"
         clip-path="url(#clipPath27)"
         id="path312" />
      <path
         d="M182.2577 207.8361 L246.5154 207.8361 L246.5154 232.8361 L182.2577 232.8361 L182.2577 207.8361 Z"
         style="fill:none; clip-path:url(#clipPath27); stroke:black;"
         clip-path="url(#clipPath27)"
         id="path314" />
      <text
         x="194"
         y="224"
         style="fill:black; clip-path:url(#clipPath27); stroke:none;"
         xml:space="preserve"
         clip-path="url(#clipPath27)"
         id="text316">BUB1B</text>
    </g>
    <g
       style="fill:white; text-rendering:geometricPrecision; stroke:white;"
       id="g326">
      <path
         d="M182.2577 232.8361 L246.5154 232.8361 L246.5154 257.8361 L182.2577 257.8361 L182.2577 232.8361 Z"
         style="clip-path:url(#clipPath28); stroke:none;"
         clip-path="url(#clipPath28)"
         id="path320" />
      <path
         d="M182.2577 232.8361 L246.5154 232.8361 L246.5154 257.8361 L182.2577 257.8361 L182.2577 232.8361 Z"
         style="fill:none; clip-path:url(#clipPath28); stroke:black;"
         clip-path="url(#clipPath28)"
         id="path322" />
      <text
         x="198"
         y="249"
         style="fill:black; clip-path:url(#clipPath28); stroke:none;"
         xml:space="preserve"
         clip-path="url(#clipPath28)"
         id="text324">BUB3</text>
    </g>
    <g
       style="fill:white; text-rendering:geometricPrecision; stroke:white;"
       id="g334">
      <path
         d="M118 232.8361 L182.2577 232.8361 L182.2577 257.8361 L118 257.8361 L118 232.8361 Z"
         style="clip-path:url(#clipPath29); stroke:none;"
         clip-path="url(#clipPath29)"
         id="path328" />
      <path
         d="M118 232.8361 L182.2577 232.8361 L182.2577 257.8361 L118 257.8361 L118 232.8361 Z"
         style="fill:none; clip-path:url(#clipPath29); stroke:black;"
         clip-path="url(#clipPath29)"
         id="path330" />
      <text
         x="131"
         y="249"
         style="fill:black; clip-path:url(#clipPath29); stroke:none;"
         xml:space="preserve"
         clip-path="url(#clipPath29)"
         id="text332">CENPE</text>
    </g>
    <g
       style="fill:white; text-rendering:geometricPrecision; stroke:white;"
       id="g342">
      <path
         d="M138 345.5 L198 345.5 L198 370.5 L138 370.5 L138 345.5 Z"
         style="clip-path:url(#clipPath30); stroke:none;"
         clip-path="url(#clipPath30)"
         id="path336" />
      <path
         d="M138 345.5 L198 345.5 L198 370.5 L138 370.5 L138 345.5 Z"
         style="fill:none; clip-path:url(#clipPath30); stroke:black;"
         clip-path="url(#clipPath30)"
         id="path338" />
      <text
         x="144"
         y="362"
         style="fill:black; clip-path:url(#clipPath30); stroke:none;"
         xml:space="preserve"
         clip-path="url(#clipPath30)"
         id="text340">ANAPC2</text>
    </g>
    <g
       style="fill:white; text-rendering:geometricPrecision; stroke:white;"
       id="g350">
      <path
         d="M138 370.5 L198 370.5 L198 395.5 L138 395.5 L138 370.5 Z"
         style="clip-path:url(#clipPath31); stroke:none;"
         clip-path="url(#clipPath31)"
         id="path344" />
      <path
         d="M138 370.5 L198 370.5 L198 395.5 L138 395.5 L138 370.5 Z"
         style="fill:none; clip-path:url(#clipPath31); stroke:black;"
         clip-path="url(#clipPath31)"
         id="path346" />
      <text
         x="140"
         y="387"
         style="fill:black; clip-path:url(#clipPath31); stroke:none;"
         xml:space="preserve"
         clip-path="url(#clipPath31)"
         id="text348">ANAPC11</text>
    </g>
    <g
       style="fill:white; text-rendering:geometricPrecision; stroke:white;"
       id="g358">
      <path
         d="M386 274.5 L449 274.5 L449 299.5 L386 299.5 L386 274.5 Z"
         style="clip-path:url(#clipPath32); stroke:none;"
         clip-path="url(#clipPath32)"
         id="path352" />
      <path
         d="M386 274.5 L449 274.5 L449 299.5 L386 299.5 L386 274.5 Z"
         style="fill:none; clip-path:url(#clipPath32); stroke:black;"
         clip-path="url(#clipPath32)"
         id="path354" />
      <text
         x="398"
         y="291"
         style="fill:black; clip-path:url(#clipPath32); stroke:none;"
         xml:space="preserve"
         clip-path="url(#clipPath32)"
         id="text356">PTTG1</text>
    </g>
    <g
       style="fill:white; text-rendering:geometricPrecision; stroke:white;"
       id="g366">
      <path
         d="M640 390.5 L703 390.5 L703 415.5 L640 415.5 L640 390.5 Z"
         style="clip-path:url(#clipPath33); stroke:none;"
         clip-path="url(#clipPath33)"
         id="path360" />
      <path
         d="M640 390.5 L703 390.5 L703 415.5 L640 415.5 L640 390.5 Z"
         style="fill:none; clip-path:url(#clipPath33); stroke:black;"
         clip-path="url(#clipPath33)"
         id="path362" />
      <text
         x="653"
         y="407"
         style="fill:black; clip-path:url(#clipPath33); stroke:none;"
         xml:space="preserve"
         clip-path="url(#clipPath33)"
         id="text364">ESPL1</text>
    </g>
    <g
       style="fill:white; text-rendering:geometricPrecision; stroke:white;"
       id="g374">
      <path
         d="M402.5 428.5 L465.5 428.5 L465.5 453.5 L402.5 453.5 L402.5 428.5 Z"
         style="clip-path:url(#clipPath34); stroke:none;"
         clip-path="url(#clipPath34)"
         id="path368" />
      <path
         d="M402.5 428.5 L465.5 428.5 L465.5 453.5 L402.5 453.5 L402.5 428.5 Z"
         style="fill:none; clip-path:url(#clipPath34); stroke:black;"
         clip-path="url(#clipPath34)"
         id="path370" />
      <text
         x="415"
         y="445"
         style="fill:black; clip-path:url(#clipPath34); stroke:none;"
         xml:space="preserve"
         clip-path="url(#clipPath34)"
         id="text372">PTTG1</text>
    </g>
    <g
       style="fill:white; text-rendering:geometricPrecision; stroke:white;"
       id="g382">
      <path
         d="M474 453.5 C474 458.1944 470.1944 462 465.5 462 C460.8056 462 457 458.1944 457 453.5 C457 448.8056 460.8056 445 465.5 445 C470.1944 445 474 448.8056 474 453.5 Z"
         style="clip-path:url(#clipPath35); stroke:none;"
         clip-path="url(#clipPath35)"
         id="path376" />
      <path
         d="M474 453.5 C474 458.1944 470.1944 462 465.5 462 C460.8056 462 457 458.1944 457 453.5 C457 448.8056 460.8056 445 465.5 445 C470.1944 445 474 448.8056 474 453.5 Z"
         style="fill:none; clip-path:url(#clipPath35); stroke:black;"
         clip-path="url(#clipPath35)"
         id="path378" />
      <text
         x="459"
         y="457"
         style="font-size:10; clip-path:url(#clipPath35); fill:black; stroke:none;"
         xml:space="preserve"
         clip-path="url(#clipPath35)"
         id="text380">Ub</text>
    </g>
    <g
       style="font-weight:bold; text-rendering:geometricPrecision;"
       id="g386">
      <text
         x="128"
         xml:space="preserve"
         y="93"
         style="clip-path:url(#clipPath36); stroke:none;"
         clip-path="url(#clipPath36)"
         id="text384">Prometaphase</text>
    </g>
    <g
       style="font-weight:bold; text-rendering:geometricPrecision;"
       id="g390">
      <text
         x="380"
         xml:space="preserve"
         y="92"
         style="clip-path:url(#clipPath37); stroke:none;"
         clip-path="url(#clipPath37)"
         id="text388">Metaphase</text>
    </g>
    <g
       style="font-weight:bold; text-rendering:geometricPrecision;"
       id="g394">
      <text
         x="666"
         xml:space="preserve"
         y="92"
         style="clip-path:url(#clipPath38); stroke:none;"
         clip-path="url(#clipPath38)"
         id="text392">Anaphase</text>
    </g>
    <g
       style="font-weight:bold; text-rendering:geometricPrecision;"
       id="g400">
      <text
         x="659"
         xml:space="preserve"
         y="196"
         style="clip-path:url(#clipPath39); stroke:none;"
         clip-path="url(#clipPath39)"
         id="text396">Separation of </text>
      <text
         x="647"
         xml:space="preserve"
         y="209"
         style="clip-path:url(#clipPath39); stroke:none;"
         clip-path="url(#clipPath39)"
         id="text398">sister chromatids</text>
    </g>
    <g
       style="fill:white; text-rendering:geometricPrecision; stroke:white;"
       id="g408">
      <path
         d="M644 293.5 L706 293.5 L706 318.5 L644 318.5 L644 293.5 Z"
         style="clip-path:url(#clipPath40); stroke:none;"
         clip-path="url(#clipPath40)"
         id="path402" />
      <path
         d="M644 293.5 L706 293.5 L706 318.5 L644 318.5 L644 293.5 Z"
         style="fill:none; clip-path:url(#clipPath40); stroke:black;"
         clip-path="url(#clipPath40)"
         id="path404" />
      <text
         x="659"
         y="310"
         style="fill:black; clip-path:url(#clipPath40); stroke:none;"
         xml:space="preserve"
         clip-path="url(#clipPath40)"
         id="text406">SMC3</text>
    </g>
    <g
       style="fill:white; text-rendering:geometricPrecision; stroke:white;"
       id="g416">
      <path
         d="M706 293.5 L768 293.5 L768 318.5 L706 318.5 L706 293.5 Z"
         style="clip-path:url(#clipPath41); stroke:none;"
         clip-path="url(#clipPath41)"
         id="path410" />
      <path
         d="M706 293.5 L768 293.5 L768 318.5 L706 318.5 L706 293.5 Z"
         style="fill:none; clip-path:url(#clipPath41); stroke:black;"
         clip-path="url(#clipPath41)"
         id="path412" />
      <text
         x="717"
         y="310"
         style="fill:black; clip-path:url(#clipPath41); stroke:none;"
         xml:space="preserve"
         clip-path="url(#clipPath41)"
         id="text414">RAD21</text>
    </g>
    <g
       style="fill:white; text-rendering:geometricPrecision; stroke:white;"
       id="g424">
      <path
         d="M706 268.5 L768 268.5 L768 293.5 L706 293.5 L706 268.5 Z"
         style="clip-path:url(#clipPath42); stroke:none;"
         clip-path="url(#clipPath42)"
         id="path418" />
      <path
         d="M706 268.5 L768 268.5 L768 293.5 L706 293.5 L706 268.5 Z"
         style="fill:none; clip-path:url(#clipPath42); stroke:black;"
         clip-path="url(#clipPath42)"
         id="path420" />
      <text
         x="717"
         y="285"
         style="fill:black; clip-path:url(#clipPath42); stroke:none;"
         xml:space="preserve"
         clip-path="url(#clipPath42)"
         id="text422">STAG1</text>
    </g>
    <g
       style="fill:white; text-rendering:geometricPrecision; stroke:white;"
       id="g432">
      <path
         d="M462 390.5 L525 390.5 L525 415.5 L462 415.5 L462 390.5 Z"
         style="clip-path:url(#clipPath43); stroke:none;"
         clip-path="url(#clipPath43)"
         id="path426" />
      <path
         d="M462 390.5 L525 390.5 L525 415.5 L462 415.5 L462 390.5 Z"
         style="fill:none; clip-path:url(#clipPath43); stroke:black;"
         clip-path="url(#clipPath43)"
         id="path428" />
      <text
         x="475"
         y="407"
         style="fill:black; clip-path:url(#clipPath43); stroke:none;"
         xml:space="preserve"
         clip-path="url(#clipPath43)"
         id="text430">ESPL1</text>
    </g>
    <g
       style="fill:white; text-rendering:geometricPrecision; stroke:white;"
       id="g440">
      <path
         d="M532.5 392.5 C532.5 396.6422 529.1422 400 525 400 C520.8578 400 517.5 396.6422 517.5 392.5 C517.5 388.3578 520.8578 385 525 385 C529.1422 385 532.5 388.3578 532.5 392.5 Z"
         style="clip-path:url(#clipPath44); stroke:none;"
         clip-path="url(#clipPath44)"
         id="path434" />
      <path
         d="M532.5 392.5 C532.5 396.6422 529.1422 400 525 400 C520.8578 400 517.5 396.6422 517.5 392.5 C517.5 388.3578 520.8578 385 525 385 C529.1422 385 532.5 388.3578 532.5 392.5 Z"
         style="fill:none; clip-path:url(#clipPath44); stroke:black;"
         clip-path="url(#clipPath44)"
         id="path436" />
      <text
         x="522"
         y="396"
         style="font-size:10; clip-path:url(#clipPath44); fill:black; stroke:none;"
         xml:space="preserve"
         clip-path="url(#clipPath44)"
         id="text438">P</text>
    </g>
    <g
       style="font-weight:bold; font-size:10; text-rendering:geometricPrecision;"
       id="g444">
      <text
         x="638"
         xml:space="preserve"
         y="104"
         style="clip-path:url(#clipPath45); stroke:none;"
         clip-path="url(#clipPath45)"
         id="text442">Chromosomes separate</text>
    </g>
    <g
       style="font-weight:bold; font-size:10; text-rendering:geometricPrecision;"
       id="g448">
      <text
         x="353"
         xml:space="preserve"
         y="146"
         style="clip-path:url(#clipPath46); stroke:none;"
         clip-path="url(#clipPath46)"
         id="text446">Spindle checkpoint OFF</text>
    </g>
  </g>
</svg>
