<?xml version="1.0" encoding="UTF-8" standalone="no"?>
<svg
   style="fill-opacity:1; color-rendering:auto; color-interpolation:auto; stroke:black; text-rendering:auto; stroke-linecap:square; stroke-miterlimit:10; stroke-opacity:1; shape-rendering:auto; fill:black; stroke-dasharray:none; font-weight:normal; stroke-width:1; font-family:'Dialog'; font-style:normal; stroke-linejoin:miter; font-size:12; stroke-dashoffset:0; image-rendering:auto;"
   width="693"
   height="509"
   version="1.1"
   id="svg367"
   xmlns="http://www.w3.org/2000/svg"
   xmlns:svg="http://www.w3.org/2000/svg">
  <!--Generated by the Batik Graphics2D SVG Generator-->
  <defs
     id="genericDefs" />
  <g
     id="g365">
    <defs
       id="defs1">
      <clipPath
         clipPathUnits="userSpaceOnUse"
         id="clipPath1">
        <path
           d="M0 0 L708 0 L708 524 L0 524 L0 0 Z"
           id="path3" />
      </clipPath>
      <clipPath
         clipPathUnits="userSpaceOnUse"
         id="clipPath2">
        <path
           d="M0 0 L0 200 L200 200 L200 0 Z"
           id="path6" />
      </clipPath>
      <clipPath
         clipPathUnits="userSpaceOnUse"
         id="clipPath3">
        <path
           d="M404 16 L404 37 L415 37 L415 16 Z"
           id="path9" />
      </clipPath>
      <clipPath
         clipPathUnits="userSpaceOnUse"
         id="clipPath4">
        <path
           d="M403.4551 3.918 L414.5449 3.918 L414.5449 19.2305 L403.4551 19.2305 L403.4551 3.918 Z"
           id="path12" />
      </clipPath>
      <clipPath
         clipPathUnits="userSpaceOnUse"
         id="clipPath5">
        <path
           d="M536.8761 256.9677 L536.8761 268.9042 L592.3887 268.9042 L592.3887 256.9677 Z"
           id="path15" />
      </clipPath>
      <clipPath
         clipPathUnits="userSpaceOnUse"
         id="clipPath6">
        <path
           d="M276.769 85.772 L276.769 97.7098 L347.5065 97.7098 L347.5065 85.772 Z"
           id="path18" />
      </clipPath>
      <clipPath
         clipPathUnits="userSpaceOnUse"
         id="clipPath7">
        <path
           d="M533.4554 263.8458 L533.4554 275.7823 L588.968 275.7823 L588.968 263.8458 Z"
           id="path21" />
      </clipPath>
      <clipPath
         clipPathUnits="userSpaceOnUse"
         id="clipPath8">
        <path
           d="M490.1611 191.8048 L490.1611 260.7411 L537.6952 260.7411 L537.6952 191.8048 Z"
           id="path24" />
      </clipPath>
      <clipPath
         clipPathUnits="userSpaceOnUse"
         id="clipPath9">
        <path
           d="M414.5855 366.0485 L414.5855 473.4223 L427.3222 473.4223 L427.3222 366.0485 Z"
           id="path27" />
      </clipPath>
      <clipPath
         clipPathUnits="userSpaceOnUse"
         id="clipPath10">
        <path
           d="M427.6064 275.6815 L427.6064 337.8575 L448.2212 337.8575 L448.2212 275.6815 Z"
           id="path30" />
      </clipPath>
      <clipPath
         clipPathUnits="userSpaceOnUse"
         id="clipPath11">
        <path
           d="M328.2 121.1 L328.2 168 L568.5 168 L568.5 121.1 Z"
           id="path33" />
      </clipPath>
      <clipPath
         clipPathUnits="userSpaceOnUse"
         id="clipPath12">
        <path
           d="M166.6658 278.7674 L166.6658 343.3039 L251.1404 343.3039 L251.1404 278.7674 Z"
           id="path36" />
      </clipPath>
      <clipPath
         clipPathUnits="userSpaceOnUse"
         id="clipPath13">
        <path
           d="M205.5555 190.4 L205.5555 210.9 L227.8 210.9 L227.8 190.4 Z"
           id="path39" />
      </clipPath>
      <clipPath
         clipPathUnits="userSpaceOnUse"
         id="clipPath14">
        <path
           d="M627.6199 280.9986 L627.6199 341.5118 L639.5587 341.5118 L639.5587 280.9986 Z"
           id="path42" />
      </clipPath>
      <clipPath
         clipPathUnits="userSpaceOnUse"
         id="clipPath15">
        <path
           d="M465.1772 361.8862 L465.1772 480.7697 L634.3106 480.7697 L634.3106 361.8862 Z"
           id="path45" />
      </clipPath>
      <clipPath
         clipPathUnits="userSpaceOnUse"
         id="clipPath16">
        <path
           d="M299.8092 281.8092 L299.8092 343.703 L395.9267 343.703 L395.9267 281.8092 Z"
           id="path48" />
      </clipPath>
      <clipPath
         clipPathUnits="userSpaceOnUse"
         id="clipPath17">
        <path
           d="M272.0306 73 L272.0306 123.4311 L283.9694 123.4311 L283.9694 73 Z"
           id="path51" />
      </clipPath>
      <clipPath
         clipPathUnits="userSpaceOnUse"
         id="clipPath18">
        <path
           d="M168.1727 362.9034 L168.1727 482.8786 L376.9765 482.8786 L376.9765 362.9034 Z"
           id="path54" />
      </clipPath>
      <clipPath
         clipPathUnits="userSpaceOnUse"
         id="clipPath19">
        <path
           d="M598.3227 191.8227 L598.3227 259.9613 L635.322 259.9613 L635.322 191.8227 Z"
           id="path57" />
      </clipPath>
      <clipPath
         clipPathUnits="userSpaceOnUse"
         id="clipPath20">
        <path
           d="M272.0306 212 L272.0306 261.4311 L283.9694 261.4311 L283.9694 212 Z"
           id="path60" />
      </clipPath>
      <clipPath
         clipPathUnits="userSpaceOnUse"
         id="clipPath21">
        <path
           d="M404.2177 179.5 L404.2177 336.3807 L506.5 336.3807 L506.5 179.5 Z"
           id="path63" />
      </clipPath>
      <clipPath
         clipPathUnits="userSpaceOnUse"
         id="clipPath22">
        <path
           d="M272.0306 144 L272.0306 191.4311 L283.9694 191.4311 L283.9694 144 Z"
           id="path66" />
      </clipPath>
      <clipPath
         clipPathUnits="userSpaceOnUse"
         id="clipPath23">
        <path
           d="M505.5 167 L505.5 193 L630.5 193 L630.5 167 Z"
           id="path69" />
      </clipPath>
      <clipPath
         clipPathUnits="userSpaceOnUse"
         id="clipPath24">
        <path
           d="M376.5 469 L376.5 495 L467.5 495 L467.5 469 Z"
           id="path72" />
      </clipPath>
      <clipPath
         clipPathUnits="userSpaceOnUse"
         id="clipPath25">
        <path
           d="M115.5555 187 L115.5555 213 L206.5555 213 L206.5555 187 Z"
           id="path75" />
      </clipPath>
      <clipPath
         clipPathUnits="userSpaceOnUse"
         id="clipPath26">
        <path
           d="M232.5 257 L232.5 283 L323.5 283 L323.5 257 Z"
           id="path78" />
      </clipPath>
      <clipPath
         clipPathUnits="userSpaceOnUse"
         id="clipPath27">
        <path
           d="M587.9584 256 L587.9584 282 L678.9584 282 L678.9584 256 Z"
           id="path81" />
      </clipPath>
      <clipPath
         clipPathUnits="userSpaceOnUse"
         id="clipPath28">
        <path
           d="M346.5 78 L346.5 104 L516.5 104 L516.5 78 Z"
           id="path84" />
      </clipPath>
      <clipPath
         clipPathUnits="userSpaceOnUse"
         id="clipPath29">
        <path
           d="M123.35 338.0807 L123.35 364.0807 L214.35 364.0807 L214.35 338.0807 Z"
           id="path87" />
      </clipPath>
      <clipPath
         clipPathUnits="userSpaceOnUse"
         id="clipPath30">
        <path
           d="M369.6177 341.0807 L369.6177 367.0807 L460.6177 367.0807 L460.6177 341.0807 Z"
           id="path90" />
      </clipPath>
      <clipPath
         clipPathUnits="userSpaceOnUse"
         id="clipPath31">
        <path
           d="M232.5 119 L232.5 145 L323.5 145 L323.5 119 Z"
           id="path93" />
      </clipPath>
      <clipPath
         clipPathUnits="userSpaceOnUse"
         id="clipPath32">
        <path
           d="M588.116 337.0807 L588.116 363.0807 L679.116 363.0807 L679.116 337.0807 Z"
           id="path96" />
      </clipPath>
      <clipPath
         clipPathUnits="userSpaceOnUse"
         id="clipPath33">
        <path
           d="M446.8857 257 L446.8857 283 L537.8857 283 L537.8857 257 Z"
           id="path99" />
      </clipPath>
      <clipPath
         clipPathUnits="userSpaceOnUse"
         id="clipPath34">
        <path
           d="M232.5 48 L232.5 74 L323.5 74 L323.5 48 Z"
           id="path102" />
      </clipPath>
      <clipPath
         clipPathUnits="userSpaceOnUse"
         id="clipPath35">
        <path
           d="M232.5 187 L232.5 213 L323.5 213 L323.5 187 Z"
           id="path105" />
      </clipPath>
    </defs>
    <g
       style="fill:white; stroke:white;"
       id="g111">
      <rect
         x="0"
         width="708"
         height="524"
         y="0"
         style="stroke:none;"
         id="rect109" />
    </g>
    <g
       style="font-weight:bold; font-size:10; text-rendering:geometricPrecision;"
       id="g121">
      <path
         d="M0.0469 6.7031 L6.7656 6.7031 L6.7656 8.125 L4.3438 8.125 L4.3438 14 L2.4688 14 L2.4688 8.125 L0.0469 8.125 L0.0469 6.7031 ZM7.665 8.5312 L9.415 8.5312 L9.415 14 L7.665 14 L7.665 8.5312 ZM7.665 6.4062 L9.415 6.4062 L9.415 7.8281 L7.665 7.8281 L7.665 6.4062 ZM12.999 6.9844 L12.999 8.5312 L14.7959 8.5312 L14.7959 9.7812 L12.999 9.7812 L12.999 12.0938 Q12.999 12.4844 13.1475 12.6172 Q13.2959 12.75 13.749 12.75 L14.6553 12.75 L14.6553 14 L13.1553 14 Q12.1084 14 11.6787 13.5703 Q11.249 13.1406 11.249 12.0938 L11.249 9.7812 L10.374 9.7812 L10.374 8.5312 L11.249 8.5312 L11.249 6.9844 L12.999 6.9844 ZM15.873 6.4062 L17.623 6.4062 L17.623 14 L15.873 14 L15.873 6.4062 ZM24.7539 11.25 L24.7539 11.75 L20.6758 11.75 Q20.7383 12.3594 21.1133 12.6719 Q21.4883 12.9844 22.1758 12.9844 Q22.7227 12.9844 23.3086 12.8203 Q23.8945 12.6562 24.5039 12.3125 L24.5039 13.6719 Q23.8789 13.9062 23.2617 14.0234 Q22.6445 14.1406 22.0195 14.1406 Q20.5352 14.1406 19.7148 13.3828 Q18.8945 12.625 18.8945 11.2656 Q18.8945 9.9375 19.6992 9.1719 Q20.5039 8.4062 21.9258 8.4062 Q23.207 8.4062 23.9805 9.1797 Q24.7539 9.9531 24.7539 11.25 ZM22.957 10.6719 Q22.957 10.1719 22.668 9.8672 Q22.3789 9.5625 21.9102 9.5625 Q21.3945 9.5625 21.082 9.8438 Q20.7695 10.125 20.6914 10.6719 L22.957 10.6719 ZM26.3643 8.5312 L28.1143 8.5312 L28.1143 10.4219 L26.3643 10.4219 L26.3643 8.5312 ZM26.3643 12.1094 L28.1143 12.1094 L28.1143 14 L26.3643 14 L26.3643 12.1094 Z"
         style="clip-path:url(#clipPath2); stroke:none;"
         clip-path="url(#clipPath2)"
         id="path113" />
      <path
         d="M43.3594 6.9531 L43.3594 7.9062 Q42.7969 7.6406 42.2969 7.5078 Q41.7969 7.375 41.3281 7.375 Q40.5312 7.375 40.0938 7.6875 Q39.6562 8 39.6562 8.5781 Q39.6562 9.0625 39.9453 9.3125 Q40.2344 9.5625 41.0469 9.7031 L41.6406 9.8281 Q42.7344 10.0469 43.2656 10.5703 Q43.7969 11.0938 43.7969 11.9844 Q43.7969 13.0469 43.0859 13.5938 Q42.375 14.1406 41 14.1406 Q40.4844 14.1406 39.8984 14.0234 Q39.3125 13.9062 38.6875 13.6719 L38.6875 12.6562 Q39.2969 13 39.8672 13.1719 Q40.4375 13.3438 41 13.3438 Q41.8438 13.3438 42.3047 13.0078 Q42.7656 12.6719 42.7656 12.0625 Q42.7656 11.5312 42.4375 11.2266 Q42.1094 10.9219 41.3438 10.7656 L40.75 10.6562 Q39.6406 10.4375 39.1484 9.9688 Q38.6562 9.5 38.6562 8.6562 Q38.6562 7.6875 39.3359 7.1328 Q40.0156 6.5781 41.2188 6.5781 Q41.7344 6.5781 42.2656 6.6719 Q42.7969 6.7656 43.3594 6.9531 ZM47.4102 9.1562 Q46.6914 9.1562 46.2695 9.7188 Q45.8477 10.2812 45.8477 11.2656 Q45.8477 12.25 46.2617 12.8125 Q46.6758 13.375 47.4102 13.375 Q48.1289 13.375 48.5508 12.8125 Q48.9727 12.25 48.9727 11.2656 Q48.9727 10.2969 48.5508 9.7266 Q48.1289 9.1562 47.4102 9.1562 ZM47.4102 8.4062 Q48.582 8.4062 49.2539 9.1641 Q49.9258 9.9219 49.9258 11.2656 Q49.9258 12.6094 49.2539 13.375 Q48.582 14.1406 47.4102 14.1406 Q46.2383 14.1406 45.5664 13.375 Q44.8945 12.6094 44.8945 11.2656 Q44.8945 9.9219 45.5664 9.1641 Q46.2383 8.4062 47.4102 8.4062 ZM55.6689 9.5781 Q55.9971 8.9688 56.4658 8.6875 Q56.9346 8.4062 57.5752 8.4062 Q58.4346 8.4062 58.8955 9 Q59.3564 9.5938 59.3564 10.7031 L59.3564 14 L58.4502 14 L58.4502 10.7344 Q58.4502 9.9375 58.1768 9.5625 Q57.9033 9.1875 57.3252 9.1875 Q56.6221 9.1875 56.2236 9.6484 Q55.8252 10.1094 55.8252 10.9062 L55.8252 14 L54.9189 14 L54.9189 10.7344 Q54.9189 9.9375 54.6377 9.5625 Q54.3564 9.1875 53.7783 9.1875 Q53.0908 9.1875 52.6846 9.6484 Q52.2783 10.1094 52.2783 10.9062 L52.2783 14 L51.3721 14 L51.3721 8.5312 L52.2783 8.5312 L52.2783 9.375 Q52.5908 8.875 53.0205 8.6406 Q53.4502 8.4062 54.0283 8.4062 Q54.6377 8.4062 55.0518 8.7031 Q55.4658 9 55.6689 9.5781 ZM63.6289 11.25 Q62.5508 11.25 62.1289 11.5 Q61.707 11.75 61.707 12.3438 Q61.707 12.8281 62.0195 13.1094 Q62.332 13.3906 62.8789 13.3906 Q63.6289 13.3906 64.082 12.8594 Q64.5352 12.3281 64.5352 11.4531 L64.5352 11.25 L63.6289 11.25 ZM65.4258 10.875 L65.4258 14 L64.5352 14 L64.5352 13.1719 Q64.2227 13.6719 63.7617 13.9062 Q63.3008 14.1406 62.6445 14.1406 Q61.8008 14.1406 61.3008 13.6719 Q60.8008 13.2031 60.8008 12.4062 Q60.8008 11.4844 61.4258 11.0156 Q62.0508 10.5469 63.2695 10.5469 L64.5352 10.5469 L64.5352 10.4531 Q64.5352 9.8438 64.1211 9.5 Q63.707 9.1562 62.9727 9.1562 Q62.5039 9.1562 62.0586 9.2734 Q61.6133 9.3906 61.207 9.6094 L61.207 8.7812 Q61.707 8.5938 62.168 8.5 Q62.6289 8.4062 63.0664 8.4062 Q64.2539 8.4062 64.8398 9.0156 Q65.4258 9.625 65.4258 10.875 ZM68.1631 6.9844 L68.1631 8.5312 L70.0225 8.5312 L70.0225 9.2344 L68.1631 9.2344 L68.1631 12.2031 Q68.1631 12.8594 68.3506 13.0547 Q68.5381 13.25 69.1006 13.25 L70.0225 13.25 L70.0225 14 L69.1006 14 Q68.0537 14 67.6553 13.6094 Q67.2568 13.2188 67.2568 12.2031 L67.2568 9.2344 L66.6006 9.2344 L66.6006 8.5312 L67.2568 8.5312 L67.2568 6.9844 L68.1631 6.9844 ZM74.3652 9.375 Q74.209 9.2812 74.0371 9.2422 Q73.8652 9.2031 73.6465 9.2031 Q72.8809 9.2031 72.4746 9.6953 Q72.0684 10.1875 72.0684 11.125 L72.0684 14 L71.1621 14 L71.1621 8.5312 L72.0684 8.5312 L72.0684 9.375 Q72.3496 8.875 72.8027 8.6406 Q73.2559 8.4062 73.9121 8.4062 Q74.0059 8.4062 74.1152 8.4141 Q74.2246 8.4219 74.3652 8.4531 L74.3652 9.375 ZM77.4297 9.1562 Q76.7109 9.1562 76.2891 9.7188 Q75.8672 10.2812 75.8672 11.2656 Q75.8672 12.25 76.2812 12.8125 Q76.6953 13.375 77.4297 13.375 Q78.1484 13.375 78.5703 12.8125 Q78.9922 12.25 78.9922 11.2656 Q78.9922 10.2969 78.5703 9.7266 Q78.1484 9.1562 77.4297 9.1562 ZM77.4297 8.4062 Q78.6016 8.4062 79.2734 9.1641 Q79.9453 9.9219 79.9453 11.2656 Q79.9453 12.6094 79.2734 13.375 Q78.6016 14.1406 77.4297 14.1406 Q76.2578 14.1406 75.5859 13.375 Q74.9141 12.6094 74.9141 11.2656 Q74.9141 9.9219 75.5859 9.1641 Q76.2578 8.4062 77.4297 8.4062 ZM82.2979 13.1719 L82.2979 16.0781 L81.3916 16.0781 L81.3916 8.5312 L82.2979 8.5312 L82.2979 9.3594 Q82.5791 8.875 83.0088 8.6406 Q83.4385 8.4062 84.0479 8.4062 Q85.0479 8.4062 85.665 9.1953 Q86.2822 9.9844 86.2822 11.2656 Q86.2822 12.5625 85.665 13.3516 Q85.0479 14.1406 84.0479 14.1406 Q83.4385 14.1406 83.0088 13.9062 Q82.5791 13.6719 82.2979 13.1719 ZM85.3604 11.2656 Q85.3604 10.2812 84.9463 9.7188 Q84.5322 9.1562 83.8291 9.1562 Q83.1104 9.1562 82.7041 9.7188 Q82.2979 10.2812 82.2979 11.2656 Q82.2979 12.2656 82.7041 12.8281 Q83.1104 13.3906 83.8291 13.3906 Q84.5322 13.3906 84.9463 12.8281 Q85.3604 12.2656 85.3604 11.2656 ZM92.3174 10.7031 L92.3174 14 L91.4268 14 L91.4268 10.7344 Q91.4268 9.9531 91.1221 9.5703 Q90.8174 9.1875 90.208 9.1875 Q89.4893 9.1875 89.0674 9.6484 Q88.6455 10.1094 88.6455 10.9062 L88.6455 14 L87.7393 14 L87.7393 6.4062 L88.6455 6.4062 L88.6455 9.375 Q88.9736 8.8906 89.4111 8.6484 Q89.8486 8.4062 90.4111 8.4062 Q91.3486 8.4062 91.833 8.9844 Q92.3174 9.5625 92.3174 10.7031 ZM99.7715 11.25 Q98.6934 11.25 98.2715 11.5 Q97.8496 11.75 97.8496 12.3438 Q97.8496 12.8281 98.1621 13.1094 Q98.4746 13.3906 99.0215 13.3906 Q99.7715 13.3906 100.2246 12.8594 Q100.6777 12.3281 100.6777 11.4531 L100.6777 11.25 L99.7715 11.25 ZM101.5684 10.875 L101.5684 14 L100.6777 14 L100.6777 13.1719 Q100.3652 13.6719 99.9043 13.9062 Q99.4434 14.1406 98.7871 14.1406 Q97.9434 14.1406 97.4434 13.6719 Q96.9434 13.2031 96.9434 12.4062 Q96.9434 11.4844 97.5684 11.0156 Q98.1934 10.5469 99.4121 10.5469 L100.6777 10.5469 L100.6777 10.4531 Q100.6777 9.8438 100.2637 9.5 Q99.8496 9.1562 99.1152 9.1562 Q98.6465 9.1562 98.2012 9.2734 Q97.7559 9.3906 97.3496 9.6094 L97.3496 8.7812 Q97.8496 8.5938 98.3105 8.5 Q98.7715 8.4062 99.209 8.4062 Q100.3965 8.4062 100.9824 9.0156 Q101.5684 9.625 101.5684 10.875 ZM107.9619 8.5312 L105.9932 11.1875 L108.0713 14 L107.0088 14 L105.415 11.8438 L103.8213 14 L102.7588 14 L104.8838 11.1406 L102.9463 8.5312 L104.0088 8.5312 L105.4619 10.4844 L106.8994 8.5312 L107.9619 8.5312 ZM109.333 8.5312 L110.2393 8.5312 L110.2393 14 L109.333 14 L109.333 8.5312 ZM109.333 6.4062 L110.2393 6.4062 L110.2393 7.5469 L109.333 7.5469 L109.333 6.4062 ZM115.5957 8.6875 L115.5957 9.5469 Q115.2207 9.3438 114.8145 9.25 Q114.4082 9.1562 113.9551 9.1562 Q113.2988 9.1562 112.9629 9.3594 Q112.627 9.5625 112.627 9.9688 Q112.627 10.2812 112.8613 10.4609 Q113.0957 10.6406 113.8301 10.7969 L114.127 10.875 Q115.0957 11.0781 115.4941 11.4531 Q115.8926 11.8281 115.8926 12.4844 Q115.8926 13.25 115.291 13.6953 Q114.6895 14.1406 113.6426 14.1406 Q113.1895 14.1406 112.7129 14.0547 Q112.2363 13.9688 111.7207 13.7969 L111.7207 12.875 Q112.2207 13.125 112.6973 13.2578 Q113.1738 13.3906 113.6582 13.3906 Q114.2832 13.3906 114.627 13.1719 Q114.9707 12.9531 114.9707 12.5625 Q114.9707 12.1875 114.7285 11.9922 Q114.4863 11.7969 113.6426 11.625 L113.3301 11.5469 Q112.502 11.375 112.127 11.0078 Q111.752 10.6406 111.752 10.0156 Q111.752 9.2344 112.2988 8.8203 Q112.8457 8.4062 113.8613 8.4062 Q114.3457 8.4062 114.791 8.4766 Q115.2363 8.5469 115.5957 8.6875 ZM122.6562 6.4062 Q122.0156 7.5312 121.6953 8.6328 Q121.375 9.7344 121.375 10.8594 Q121.375 11.9844 121.6953 13.0938 Q122.0156 14.2031 122.6562 15.3125 L121.875 15.3125 Q121.1562 14.1719 120.7891 13.0625 Q120.4219 11.9531 120.4219 10.8594 Q120.4219 9.7656 120.7812 8.6641 Q121.1406 7.5625 121.875 6.4062 L122.6562 6.4062 ZM129.417 12.9531 L129.417 11 L127.8076 11 L127.8076 10.1875 L130.3857 10.1875 L130.3857 13.3281 Q129.8232 13.7188 129.1357 13.9297 Q128.4482 14.1406 127.667 14.1406 Q125.9482 14.1406 124.9873 13.1406 Q124.0264 12.1406 124.0264 10.3594 Q124.0264 8.5781 124.9873 7.5781 Q125.9482 6.5781 127.667 6.5781 Q128.3701 6.5781 129.0186 6.75 Q129.667 6.9219 130.1982 7.2656 L130.1982 8.3281 Q129.6514 7.8594 129.042 7.625 Q128.4326 7.3906 127.7451 7.3906 Q126.4014 7.3906 125.7373 8.1328 Q125.0732 8.875 125.0732 10.3594 Q125.0732 11.8438 125.7373 12.5859 Q126.4014 13.3281 127.7451 13.3281 Q128.2764 13.3281 128.6826 13.2422 Q129.0889 13.1562 129.417 12.9531 ZM132.1973 6.7031 L133.1816 6.7031 L133.1816 9.7031 L136.7598 9.7031 L136.7598 6.7031 L137.7441 6.7031 L137.7441 14 L136.7598 14 L136.7598 10.5312 L133.1816 10.5312 L133.1816 14 L132.1973 14 L132.1973 6.7031 ZM139.5293 6.4062 L140.3105 6.4062 Q141.0449 7.5625 141.4121 8.6641 Q141.7793 9.7656 141.7793 10.8594 Q141.7793 11.9531 141.4121 13.0625 Q141.0449 14.1719 140.3105 15.3125 L139.5293 15.3125 Q140.1855 14.2031 140.5059 13.0938 Q140.8262 11.9844 140.8262 10.8594 Q140.8262 9.7344 140.5059 8.6328 Q140.1855 7.5312 139.5293 6.4062 ZM149.2344 11.25 Q148.1562 11.25 147.7344 11.5 Q147.3125 11.75 147.3125 12.3438 Q147.3125 12.8281 147.625 13.1094 Q147.9375 13.3906 148.4844 13.3906 Q149.2344 13.3906 149.6875 12.8594 Q150.1406 12.3281 150.1406 11.4531 L150.1406 11.25 L149.2344 11.25 ZM151.0312 10.875 L151.0312 14 L150.1406 14 L150.1406 13.1719 Q149.8281 13.6719 149.3672 13.9062 Q148.9062 14.1406 148.25 14.1406 Q147.4062 14.1406 146.9062 13.6719 Q146.4062 13.2031 146.4062 12.4062 Q146.4062 11.4844 147.0312 11.0156 Q147.6562 10.5469 148.875 10.5469 L150.1406 10.5469 L150.1406 10.4531 Q150.1406 9.8438 149.7266 9.5 Q149.3125 9.1562 148.5781 9.1562 Q148.1094 9.1562 147.6641 9.2734 Q147.2188 9.3906 146.8125 9.6094 L146.8125 8.7812 Q147.3125 8.5938 147.7734 8.5 Q148.2344 8.4062 148.6719 8.4062 Q149.8594 8.4062 150.4453 9.0156 Q151.0312 9.625 151.0312 10.875 ZM157.4248 10.7031 L157.4248 14 L156.5342 14 L156.5342 10.7344 Q156.5342 9.9531 156.2295 9.5703 Q155.9248 9.1875 155.3154 9.1875 Q154.5967 9.1875 154.1748 9.6484 Q153.7529 10.1094 153.7529 10.9062 L153.7529 14 L152.8467 14 L152.8467 8.5312 L153.7529 8.5312 L153.7529 9.375 Q154.0811 8.8906 154.5186 8.6484 Q154.9561 8.4062 155.5186 8.4062 Q156.4561 8.4062 156.9404 8.9844 Q157.4248 9.5625 157.4248 10.7031 ZM162.8252 9.3594 L162.8252 6.4062 L163.7158 6.4062 L163.7158 14 L162.8252 14 L162.8252 13.1719 Q162.5439 13.6719 162.1064 13.9062 Q161.6689 14.1406 161.0596 14.1406 Q160.0752 14.1406 159.4502 13.3516 Q158.8252 12.5625 158.8252 11.2656 Q158.8252 9.9844 159.4502 9.1953 Q160.0752 8.4062 161.0596 8.4062 Q161.6689 8.4062 162.1064 8.6406 Q162.5439 8.875 162.8252 9.3594 ZM159.7627 11.2656 Q159.7627 12.2656 160.1689 12.8281 Q160.5752 13.3906 161.2939 13.3906 Q161.9971 13.3906 162.4111 12.8281 Q162.8252 12.2656 162.8252 11.2656 Q162.8252 10.2812 162.4111 9.7188 Q161.9971 9.1562 161.2939 9.1562 Q160.5752 9.1562 160.1689 9.7188 Q159.7627 10.2812 159.7627 11.2656 ZM168.7422 8.5312 L169.6484 8.5312 L169.6484 14 L168.7422 14 L168.7422 8.5312 ZM168.7422 6.4062 L169.6484 6.4062 L169.6484 7.5469 L168.7422 7.5469 L168.7422 6.4062 ZM172.4111 6.9844 L172.4111 8.5312 L174.2705 8.5312 L174.2705 9.2344 L172.4111 9.2344 L172.4111 12.2031 Q172.4111 12.8594 172.5986 13.0547 Q172.7861 13.25 173.3486 13.25 L174.2705 13.25 L174.2705 14 L173.3486 14 Q172.3018 14 171.9033 13.6094 Q171.5049 13.2188 171.5049 12.2031 L171.5049 9.2344 L170.8486 9.2344 L170.8486 8.5312 L171.5049 8.5312 L171.5049 6.9844 L172.4111 6.9844 ZM178.9258 8.6875 L178.9258 9.5469 Q178.5508 9.3438 178.1445 9.25 Q177.7383 9.1562 177.2852 9.1562 Q176.6289 9.1562 176.293 9.3594 Q175.957 9.5625 175.957 9.9688 Q175.957 10.2812 176.1914 10.4609 Q176.4258 10.6406 177.1602 10.7969 L177.457 10.875 Q178.4258 11.0781 178.8242 11.4531 Q179.2227 11.8281 179.2227 12.4844 Q179.2227 13.25 178.6211 13.6953 Q178.0195 14.1406 176.9727 14.1406 Q176.5195 14.1406 176.043 14.0547 Q175.5664 13.9688 175.0508 13.7969 L175.0508 12.875 Q175.5508 13.125 176.0273 13.2578 Q176.5039 13.3906 176.9883 13.3906 Q177.6133 13.3906 177.957 13.1719 Q178.3008 12.9531 178.3008 12.5625 Q178.3008 12.1875 178.0586 11.9922 Q177.8164 11.7969 176.9727 11.625 L176.6602 11.5469 Q175.832 11.375 175.457 11.0078 Q175.082 10.6406 175.082 10.0156 Q175.082 9.2344 175.6289 8.8203 Q176.1758 8.4062 177.1914 8.4062 Q177.6758 8.4062 178.1211 8.4766 Q178.5664 8.5469 178.9258 8.6875 ZM187.002 9.375 Q186.8457 9.2812 186.6738 9.2422 Q186.502 9.2031 186.2832 9.2031 Q185.5176 9.2031 185.1113 9.6953 Q184.7051 10.1875 184.7051 11.125 L184.7051 14 L183.7988 14 L183.7988 8.5312 L184.7051 8.5312 L184.7051 9.375 Q184.9863 8.875 185.4395 8.6406 Q185.8926 8.4062 186.5488 8.4062 Q186.6426 8.4062 186.752 8.4141 Q186.8613 8.4219 187.002 8.4531 L187.002 9.375 ZM192.6289 11.0469 L192.6289 11.4844 L188.4883 11.4844 Q188.5508 12.4062 189.0508 12.8906 Q189.5508 13.375 190.4414 13.375 Q190.957 13.375 191.4492 13.25 Q191.9414 13.125 192.4102 12.875 L192.4102 13.7188 Q191.9258 13.9219 191.418 14.0312 Q190.9102 14.1406 190.3945 14.1406 Q189.082 14.1406 188.3164 13.3828 Q187.5508 12.625 187.5508 11.3125 Q187.5508 9.9688 188.2773 9.1875 Q189.0039 8.4062 190.2383 8.4062 Q191.3477 8.4062 191.9883 9.1094 Q192.6289 9.8125 192.6289 11.0469 ZM191.7227 10.7812 Q191.7227 10.0469 191.3164 9.6016 Q190.9102 9.1562 190.2539 9.1562 Q189.4883 9.1562 189.043 9.5859 Q188.5977 10.0156 188.5195 10.7812 L191.7227 10.7812 ZM194.0938 6.4062 L195 6.4062 L195 14 L194.0938 14 L194.0938 6.4062 ZM199.3564 11.25 Q198.2783 11.25 197.8564 11.5 Q197.4346 11.75 197.4346 12.3438 Q197.4346 12.8281 197.7471 13.1094 Q198.0596 13.3906 198.6064 13.3906 Q199.3564 13.3906 199.8096 12.8594 Q200.2627 12.3281 200.2627 11.4531 L200.2627 11.25 L199.3564 11.25 ZM201.1533 10.875 L201.1533 14 L200.2627 14 L200.2627 13.1719 Q199.9502 13.6719 199.4893 13.9062 Q199.0283 14.1406 198.3721 14.1406 Q197.5283 14.1406 197.0283 13.6719 Q196.5283 13.2031 196.5283 12.4062 Q196.5283 11.4844 197.1533 11.0156 Q197.7783 10.5469 198.9971 10.5469 L200.2627 10.5469 L200.2627 10.4531 Q200.2627 9.8438 199.8486 9.5 Q199.4346 9.1562 198.7002 9.1562 Q198.2314 9.1562 197.7861 9.2734 Q197.3408 9.3906 196.9346 9.6094 L196.9346 8.7812 Q197.4346 8.5938 197.8955 8.5 Q198.3564 8.4062 198.7939 8.4062 Q199.9814 8.4062 200.5674 9.0156 Q201.1533 9.625 201.1533 10.875 ZM203.8906 6.9844 L203.8906 8.5312 L205.75 8.5312 L205.75 9.2344 L203.8906 9.2344 L203.8906 12.2031 Q203.8906 12.8594 204.0781 13.0547 Q204.2656 13.25 204.8281 13.25 L205.75 13.25 L205.75 14 L204.8281 14 Q203.7812 14 203.3828 13.6094 Q202.9844 13.2188 202.9844 12.2031 L202.9844 9.2344 L202.3281 9.2344 L202.3281 8.5312 L202.9844 8.5312 L202.9844 6.9844 L203.8906 6.9844 ZM206.9209 8.5312 L207.8271 8.5312 L207.8271 14 L206.9209 14 L206.9209 8.5312 ZM206.9209 6.4062 L207.8271 6.4062 L207.8271 7.5469 L206.9209 7.5469 L206.9209 6.4062 ZM211.8242 9.1562 Q211.1055 9.1562 210.6836 9.7188 Q210.2617 10.2812 210.2617 11.2656 Q210.2617 12.25 210.6758 12.8125 Q211.0898 13.375 211.8242 13.375 Q212.543 13.375 212.9648 12.8125 Q213.3867 12.25 213.3867 11.2656 Q213.3867 10.2969 212.9648 9.7266 Q212.543 9.1562 211.8242 9.1562 ZM211.8242 8.4062 Q212.9961 8.4062 213.668 9.1641 Q214.3398 9.9219 214.3398 11.2656 Q214.3398 12.6094 213.668 13.375 Q212.9961 14.1406 211.8242 14.1406 Q210.6523 14.1406 209.9805 13.375 Q209.3086 12.6094 209.3086 11.2656 Q209.3086 9.9219 209.9805 9.1641 Q210.6523 8.4062 211.8242 8.4062 ZM220.3643 10.7031 L220.3643 14 L219.4736 14 L219.4736 10.7344 Q219.4736 9.9531 219.1689 9.5703 Q218.8643 9.1875 218.2549 9.1875 Q217.5361 9.1875 217.1143 9.6484 Q216.6924 10.1094 216.6924 10.9062 L216.6924 14 L215.7861 14 L215.7861 8.5312 L216.6924 8.5312 L216.6924 9.375 Q217.0205 8.8906 217.458 8.6484 Q217.8955 8.4062 218.458 8.4062 Q219.3955 8.4062 219.8799 8.9844 Q220.3643 9.5625 220.3643 10.7031 ZM225.6396 8.6875 L225.6396 9.5469 Q225.2646 9.3438 224.8584 9.25 Q224.4521 9.1562 223.999 9.1562 Q223.3428 9.1562 223.0068 9.3594 Q222.6709 9.5625 222.6709 9.9688 Q222.6709 10.2812 222.9053 10.4609 Q223.1396 10.6406 223.874 10.7969 L224.1709 10.875 Q225.1396 11.0781 225.5381 11.4531 Q225.9365 11.8281 225.9365 12.4844 Q225.9365 13.25 225.335 13.6953 Q224.7334 14.1406 223.6865 14.1406 Q223.2334 14.1406 222.7568 14.0547 Q222.2803 13.9688 221.7646 13.7969 L221.7646 12.875 Q222.2646 13.125 222.7412 13.2578 Q223.2178 13.3906 223.7021 13.3906 Q224.3271 13.3906 224.6709 13.1719 Q225.0146 12.9531 225.0146 12.5625 Q225.0146 12.1875 224.7725 11.9922 Q224.5303 11.7969 223.6865 11.625 L223.374 11.5469 Q222.5459 11.375 222.1709 11.0078 Q221.7959 10.6406 221.7959 10.0156 Q221.7959 9.2344 222.3428 8.8203 Q222.8896 8.4062 223.9053 8.4062 Q224.3896 8.4062 224.835 8.4766 Q225.2803 8.5469 225.6396 8.6875 ZM231.9121 10.7031 L231.9121 14 L231.0215 14 L231.0215 10.7344 Q231.0215 9.9531 230.7168 9.5703 Q230.4121 9.1875 229.8027 9.1875 Q229.084 9.1875 228.6621 9.6484 Q228.2402 10.1094 228.2402 10.9062 L228.2402 14 L227.334 14 L227.334 6.4062 L228.2402 6.4062 L228.2402 9.375 Q228.5684 8.8906 229.0059 8.6484 Q229.4434 8.4062 230.0059 8.4062 Q230.9434 8.4062 231.4277 8.9844 Q231.9121 9.5625 231.9121 10.7031 ZM233.7031 8.5312 L234.6094 8.5312 L234.6094 14 L233.7031 14 L233.7031 8.5312 ZM233.7031 6.4062 L234.6094 6.4062 L234.6094 7.5469 L233.7031 7.5469 L233.7031 6.4062 ZM237.3564 13.1719 L237.3564 16.0781 L236.4502 16.0781 L236.4502 8.5312 L237.3564 8.5312 L237.3564 9.3594 Q237.6377 8.875 238.0674 8.6406 Q238.4971 8.4062 239.1064 8.4062 Q240.1064 8.4062 240.7236 9.1953 Q241.3408 9.9844 241.3408 11.2656 Q241.3408 12.5625 240.7236 13.3516 Q240.1064 14.1406 239.1064 14.1406 Q238.4971 14.1406 238.0674 13.9062 Q237.6377 13.6719 237.3564 13.1719 ZM240.4189 11.2656 Q240.4189 10.2812 240.0049 9.7188 Q239.5908 9.1562 238.8877 9.1562 Q238.1689 9.1562 237.7627 9.7188 Q237.3564 10.2812 237.3564 11.2656 Q237.3564 12.2656 237.7627 12.8281 Q238.1689 13.3906 238.8877 13.3906 Q239.5908 13.3906 240.0049 12.8281 Q240.4189 12.2656 240.4189 11.2656 ZM246.8984 6.9844 L246.8984 8.5312 L248.7578 8.5312 L248.7578 9.2344 L246.8984 9.2344 L246.8984 12.2031 Q246.8984 12.8594 247.0859 13.0547 Q247.2734 13.25 247.8359 13.25 L248.7578 13.25 L248.7578 14 L247.8359 14 Q246.7891 14 246.3906 13.6094 Q245.9922 13.2188 245.9922 12.2031 L245.9922 9.2344 L245.3359 9.2344 L245.3359 8.5312 L245.9922 8.5312 L245.9922 6.9844 L246.8984 6.9844 ZM252.0537 9.1562 Q251.335 9.1562 250.9131 9.7188 Q250.4912 10.2812 250.4912 11.2656 Q250.4912 12.25 250.9053 12.8125 Q251.3193 13.375 252.0537 13.375 Q252.7725 13.375 253.1943 12.8125 Q253.6162 12.25 253.6162 11.2656 Q253.6162 10.2969 253.1943 9.7266 Q252.7725 9.1562 252.0537 9.1562 ZM252.0537 8.4062 Q253.2256 8.4062 253.8975 9.1641 Q254.5693 9.9219 254.5693 11.2656 Q254.5693 12.6094 253.8975 13.375 Q253.2256 14.1406 252.0537 14.1406 Q250.8818 14.1406 250.21 13.375 Q249.5381 12.6094 249.5381 11.2656 Q249.5381 9.9219 250.21 9.1641 Q250.8818 8.4062 252.0537 8.4062 ZM262.835 9.3594 L262.835 6.4062 L263.7256 6.4062 L263.7256 14 L262.835 14 L262.835 13.1719 Q262.5537 13.6719 262.1162 13.9062 Q261.6787 14.1406 261.0693 14.1406 Q260.085 14.1406 259.46 13.3516 Q258.835 12.5625 258.835 11.2656 Q258.835 9.9844 259.46 9.1953 Q260.085 8.4062 261.0693 8.4062 Q261.6787 8.4062 262.1162 8.6406 Q262.5537 8.875 262.835 9.3594 ZM259.7725 11.2656 Q259.7725 12.2656 260.1787 12.8281 Q260.585 13.3906 261.3037 13.3906 Q262.0068 13.3906 262.4209 12.8281 Q262.835 12.2656 262.835 11.2656 Q262.835 10.2812 262.4209 9.7188 Q262.0068 9.1562 261.3037 9.1562 Q260.585 9.1562 260.1787 9.7188 Q259.7725 10.2812 259.7725 11.2656 ZM265.5732 8.5312 L266.4795 8.5312 L266.4795 14 L265.5732 14 L265.5732 8.5312 ZM265.5732 6.4062 L266.4795 6.4062 L266.4795 7.5469 L265.5732 7.5469 L265.5732 6.4062 ZM273.0391 11.0469 L273.0391 11.4844 L268.8984 11.4844 Q268.9609 12.4062 269.4609 12.8906 Q269.9609 13.375 270.8516 13.375 Q271.3672 13.375 271.8594 13.25 Q272.3516 13.125 272.8203 12.875 L272.8203 13.7188 Q272.3359 13.9219 271.8281 14.0312 Q271.3203 14.1406 270.8047 14.1406 Q269.4922 14.1406 268.7266 13.3828 Q267.9609 12.625 267.9609 11.3125 Q267.9609 9.9688 268.6875 9.1875 Q269.4141 8.4062 270.6484 8.4062 Q271.7578 8.4062 272.3984 9.1094 Q273.0391 9.8125 273.0391 11.0469 ZM272.1328 10.7812 Q272.1328 10.0469 271.7266 9.6016 Q271.3203 9.1562 270.6641 9.1562 Q269.8984 9.1562 269.4531 9.5859 Q269.0078 10.0156 268.9297 10.7812 L272.1328 10.7812 ZM275.3945 6.9844 L275.3945 8.5312 L277.2539 8.5312 L277.2539 9.2344 L275.3945 9.2344 L275.3945 12.2031 Q275.3945 12.8594 275.582 13.0547 Q275.7695 13.25 276.332 13.25 L277.2539 13.25 L277.2539 14 L276.332 14 Q275.2852 14 274.8867 13.6094 Q274.4883 13.2188 274.4883 12.2031 L274.4883 9.2344 L273.832 9.2344 L273.832 8.5312 L274.4883 8.5312 L274.4883 6.9844 L275.3945 6.9844 ZM280.9092 11.25 Q279.8311 11.25 279.4092 11.5 Q278.9873 11.75 278.9873 12.3438 Q278.9873 12.8281 279.2998 13.1094 Q279.6123 13.3906 280.1592 13.3906 Q280.9092 13.3906 281.3623 12.8594 Q281.8154 12.3281 281.8154 11.4531 L281.8154 11.25 L280.9092 11.25 ZM282.7061 10.875 L282.7061 14 L281.8154 14 L281.8154 13.1719 Q281.5029 13.6719 281.042 13.9062 Q280.5811 14.1406 279.9248 14.1406 Q279.0811 14.1406 278.5811 13.6719 Q278.0811 13.2031 278.0811 12.4062 Q278.0811 11.4844 278.7061 11.0156 Q279.3311 10.5469 280.5498 10.5469 L281.8154 10.5469 L281.8154 10.4531 Q281.8154 9.8438 281.4014 9.5 Q280.9873 9.1562 280.2529 9.1562 Q279.7842 9.1562 279.3389 9.2734 Q278.8936 9.3906 278.4873 9.6094 L278.4873 8.7812 Q278.9873 8.5938 279.4482 8.5 Q279.9092 8.4062 280.3467 8.4062 Q281.5342 8.4062 282.1201 9.0156 Q282.7061 9.625 282.7061 10.875 ZM287.7246 9.375 Q287.5684 9.2812 287.3965 9.2422 Q287.2246 9.2031 287.0059 9.2031 Q286.2402 9.2031 285.834 9.6953 Q285.4277 10.1875 285.4277 11.125 L285.4277 14 L284.5215 14 L284.5215 8.5312 L285.4277 8.5312 L285.4277 9.375 Q285.709 8.875 286.1621 8.6406 Q286.6152 8.4062 287.2715 8.4062 Q287.3652 8.4062 287.4746 8.4141 Q287.584 8.4219 287.7246 8.4531 L287.7246 9.375 ZM290.9453 14.5156 Q290.5703 15.4844 290.2031 15.7812 Q289.8359 16.0781 289.2422 16.0781 L288.5234 16.0781 L288.5234 15.3281 L289.0391 15.3281 Q289.4141 15.3281 289.6172 15.1562 Q289.8203 14.9844 290.0703 14.3281 L290.2422 13.9062 L288.0234 8.5312 L288.9766 8.5312 L290.6797 12.8125 L292.3984 8.5312 L293.3516 8.5312 L290.9453 14.5156 ZM300.9326 9.375 Q300.7764 9.2812 300.6045 9.2422 Q300.4326 9.2031 300.2139 9.2031 Q299.4482 9.2031 299.042 9.6953 Q298.6357 10.1875 298.6357 11.125 L298.6357 14 L297.7295 14 L297.7295 8.5312 L298.6357 8.5312 L298.6357 9.375 Q298.917 8.875 299.3701 8.6406 Q299.8232 8.4062 300.4795 8.4062 Q300.5732 8.4062 300.6826 8.4141 Q300.792 8.4219 300.9326 8.4531 L300.9326 9.375 ZM306.5596 11.0469 L306.5596 11.4844 L302.4189 11.4844 Q302.4814 12.4062 302.9814 12.8906 Q303.4814 13.375 304.3721 13.375 Q304.8877 13.375 305.3799 13.25 Q305.8721 13.125 306.3408 12.875 L306.3408 13.7188 Q305.8564 13.9219 305.3486 14.0312 Q304.8408 14.1406 304.3252 14.1406 Q303.0127 14.1406 302.2471 13.3828 Q301.4814 12.625 301.4814 11.3125 Q301.4814 9.9688 302.208 9.1875 Q302.9346 8.4062 304.1689 8.4062 Q305.2783 8.4062 305.9189 9.1094 Q306.5596 9.8125 306.5596 11.0469 ZM305.6533 10.7812 Q305.6533 10.0469 305.2471 9.6016 Q304.8408 9.1562 304.1846 9.1562 Q303.4189 9.1562 302.9736 9.5859 Q302.5283 10.0156 302.4502 10.7812 L305.6533 10.7812 ZM311.5088 8.6875 L311.5088 9.5469 Q311.1338 9.3438 310.7275 9.25 Q310.3213 9.1562 309.8682 9.1562 Q309.2119 9.1562 308.876 9.3594 Q308.54 9.5625 308.54 9.9688 Q308.54 10.2812 308.7744 10.4609 Q309.0088 10.6406 309.7432 10.7969 L310.04 10.875 Q311.0088 11.0781 311.4072 11.4531 Q311.8057 11.8281 311.8057 12.4844 Q311.8057 13.25 311.2041 13.6953 Q310.6025 14.1406 309.5557 14.1406 Q309.1025 14.1406 308.626 14.0547 Q308.1494 13.9688 307.6338 13.7969 L307.6338 12.875 Q308.1338 13.125 308.6104 13.2578 Q309.0869 13.3906 309.5713 13.3906 Q310.1963 13.3906 310.54 13.1719 Q310.8838 12.9531 310.8838 12.5625 Q310.8838 12.1875 310.6416 11.9922 Q310.3994 11.7969 309.5557 11.625 L309.2432 11.5469 Q308.415 11.375 308.04 11.0078 Q307.665 10.6406 307.665 10.0156 Q307.665 9.2344 308.2119 8.8203 Q308.7588 8.4062 309.7744 8.4062 Q310.2588 8.4062 310.7041 8.4766 Q311.1494 8.5469 311.5088 8.6875 ZM314.125 6.9844 L314.125 8.5312 L315.9844 8.5312 L315.9844 9.2344 L314.125 9.2344 L314.125 12.2031 Q314.125 12.8594 314.3125 13.0547 Q314.5 13.25 315.0625 13.25 L315.9844 13.25 L315.9844 14 L315.0625 14 Q314.0156 14 313.6172 13.6094 Q313.2188 13.2188 313.2188 12.2031 L313.2188 9.2344 L312.5625 9.2344 L312.5625 8.5312 L313.2188 8.5312 L313.2188 6.9844 L314.125 6.9844 ZM320.3271 9.375 Q320.1709 9.2812 319.999 9.2422 Q319.8271 9.2031 319.6084 9.2031 Q318.8428 9.2031 318.4365 9.6953 Q318.0303 10.1875 318.0303 11.125 L318.0303 14 L317.124 14 L317.124 8.5312 L318.0303 8.5312 L318.0303 9.375 Q318.3115 8.875 318.7646 8.6406 Q319.2178 8.4062 319.874 8.4062 Q319.9678 8.4062 320.0771 8.4141 Q320.1865 8.4219 320.3271 8.4531 L320.3271 9.375 ZM321.2666 8.5312 L322.1729 8.5312 L322.1729 14 L321.2666 14 L321.2666 8.5312 ZM321.2666 6.4062 L322.1729 6.4062 L322.1729 7.5469 L321.2666 7.5469 L321.2666 6.4062 ZM327.9824 8.7344 L327.9824 9.5781 Q327.6074 9.375 327.2246 9.2656 Q326.8418 9.1562 326.4512 9.1562 Q325.5762 9.1562 325.0918 9.7109 Q324.6074 10.2656 324.6074 11.2656 Q324.6074 12.2656 325.0918 12.8203 Q325.5762 13.375 326.4512 13.375 Q326.8418 13.375 327.2246 13.2734 Q327.6074 13.1719 327.9824 12.9531 L327.9824 13.7969 Q327.6074 13.9688 327.209 14.0547 Q326.8105 14.1406 326.3574 14.1406 Q325.1074 14.1406 324.3809 13.3672 Q323.6543 12.5938 323.6543 11.2656 Q323.6543 9.9375 324.3887 9.1719 Q325.123 8.4062 326.4043 8.4062 Q326.8262 8.4062 327.2168 8.4844 Q327.6074 8.5625 327.9824 8.7344 ZM330.4336 6.9844 L330.4336 8.5312 L332.293 8.5312 L332.293 9.2344 L330.4336 9.2344 L330.4336 12.2031 Q330.4336 12.8594 330.6211 13.0547 Q330.8086 13.25 331.3711 13.25 L332.293 13.25 L332.293 14 L331.3711 14 Q330.3242 14 329.9258 13.6094 Q329.5273 13.2188 329.5273 12.2031 L329.5273 9.2344 L328.8711 9.2344 L328.8711 8.5312 L329.5273 8.5312 L329.5273 6.9844 L330.4336 6.9844 ZM333.4639 8.5312 L334.3701 8.5312 L334.3701 14 L333.4639 14 L333.4639 8.5312 ZM333.4639 6.4062 L334.3701 6.4062 L334.3701 7.5469 L333.4639 7.5469 L333.4639 6.4062 ZM338.3672 9.1562 Q337.6484 9.1562 337.2266 9.7188 Q336.8047 10.2812 336.8047 11.2656 Q336.8047 12.25 337.2188 12.8125 Q337.6328 13.375 338.3672 13.375 Q339.0859 13.375 339.5078 12.8125 Q339.9297 12.25 339.9297 11.2656 Q339.9297 10.2969 339.5078 9.7266 Q339.0859 9.1562 338.3672 9.1562 ZM338.3672 8.4062 Q339.5391 8.4062 340.2109 9.1641 Q340.8828 9.9219 340.8828 11.2656 Q340.8828 12.6094 340.2109 13.375 Q339.5391 14.1406 338.3672 14.1406 Q337.1953 14.1406 336.5234 13.375 Q335.8516 12.6094 335.8516 11.2656 Q335.8516 9.9219 336.5234 9.1641 Q337.1953 8.4062 338.3672 8.4062 ZM346.9072 10.7031 L346.9072 14 L346.0166 14 L346.0166 10.7344 Q346.0166 9.9531 345.7119 9.5703 Q345.4072 9.1875 344.7979 9.1875 Q344.0791 9.1875 343.6572 9.6484 Q343.2354 10.1094 343.2354 10.9062 L343.2354 14 L342.3291 14 L342.3291 8.5312 L343.2354 8.5312 L343.2354 9.375 Q343.5635 8.8906 344.001 8.6484 Q344.4385 8.4062 345.001 8.4062 Q345.9385 8.4062 346.4229 8.9844 Q346.9072 9.5625 346.9072 10.7031 ZM354.3613 11.25 Q353.2832 11.25 352.8613 11.5 Q352.4395 11.75 352.4395 12.3438 Q352.4395 12.8281 352.752 13.1094 Q353.0645 13.3906 353.6113 13.3906 Q354.3613 13.3906 354.8145 12.8594 Q355.2676 12.3281 355.2676 11.4531 L355.2676 11.25 L354.3613 11.25 ZM356.1582 10.875 L356.1582 14 L355.2676 14 L355.2676 13.1719 Q354.9551 13.6719 354.4941 13.9062 Q354.0332 14.1406 353.377 14.1406 Q352.5332 14.1406 352.0332 13.6719 Q351.5332 13.2031 351.5332 12.4062 Q351.5332 11.4844 352.1582 11.0156 Q352.7832 10.5469 354.002 10.5469 L355.2676 10.5469 L355.2676 10.4531 Q355.2676 9.8438 354.8535 9.5 Q354.4395 9.1562 353.7051 9.1562 Q353.2363 9.1562 352.791 9.2734 Q352.3457 9.3906 351.9395 9.6094 L351.9395 8.7812 Q352.4395 8.5938 352.9004 8.5 Q353.3613 8.4062 353.7988 8.4062 Q354.9863 8.4062 355.5723 9.0156 Q356.1582 9.625 356.1582 10.875 ZM362.5518 10.7031 L362.5518 14 L361.6611 14 L361.6611 10.7344 Q361.6611 9.9531 361.3564 9.5703 Q361.0518 9.1875 360.4424 9.1875 Q359.7236 9.1875 359.3018 9.6484 Q358.8799 10.1094 358.8799 10.9062 L358.8799 14 L357.9736 14 L357.9736 8.5312 L358.8799 8.5312 L358.8799 9.375 Q359.208 8.8906 359.6455 8.6484 Q360.083 8.4062 360.6455 8.4062 Q361.583 8.4062 362.0674 8.9844 Q362.5518 9.5625 362.5518 10.7031 ZM367.9521 9.3594 L367.9521 6.4062 L368.8428 6.4062 L368.8428 14 L367.9521 14 L367.9521 13.1719 Q367.6709 13.6719 367.2334 13.9062 Q366.7959 14.1406 366.1865 14.1406 Q365.2021 14.1406 364.5771 13.3516 Q363.9521 12.5625 363.9521 11.2656 Q363.9521 9.9844 364.5771 9.1953 Q365.2021 8.4062 366.1865 8.4062 Q366.7959 8.4062 367.2334 8.6406 Q367.6709 8.875 367.9521 9.3594 ZM364.8896 11.2656 Q364.8896 12.2656 365.2959 12.8281 Q365.7021 13.3906 366.4209 13.3906 Q367.124 13.3906 367.5381 12.8281 Q367.9521 12.2656 367.9521 11.2656 Q367.9521 10.2812 367.5381 9.7188 Q367.124 9.1562 366.4209 9.1562 Q365.7021 9.1562 365.2959 9.7188 Q364.8896 10.2812 364.8896 11.2656 ZM376.3535 11.25 Q375.2754 11.25 374.8535 11.5 Q374.4316 11.75 374.4316 12.3438 Q374.4316 12.8281 374.7441 13.1094 Q375.0566 13.3906 375.6035 13.3906 Q376.3535 13.3906 376.8066 12.8594 Q377.2598 12.3281 377.2598 11.4531 L377.2598 11.25 L376.3535 11.25 ZM378.1504 10.875 L378.1504 14 L377.2598 14 L377.2598 13.1719 Q376.9473 13.6719 376.4863 13.9062 Q376.0254 14.1406 375.3691 14.1406 Q374.5254 14.1406 374.0254 13.6719 Q373.5254 13.2031 373.5254 12.4062 Q373.5254 11.4844 374.1504 11.0156 Q374.7754 10.5469 375.9941 10.5469 L377.2598 10.5469 L377.2598 10.4531 Q377.2598 9.8438 376.8457 9.5 Q376.4316 9.1562 375.6973 9.1562 Q375.2285 9.1562 374.7832 9.2734 Q374.3379 9.3906 373.9316 9.6094 L373.9316 8.7812 Q374.4316 8.5938 374.8926 8.5 Q375.3535 8.4062 375.791 8.4062 Q376.9785 8.4062 377.5645 9.0156 Q378.1504 9.625 378.1504 10.875 ZM383.6064 11.2031 Q383.6064 10.2188 383.2002 9.6875 Q382.7939 9.1562 382.0752 9.1562 Q381.3408 9.1562 380.9424 9.6875 Q380.5439 10.2188 380.5439 11.2031 Q380.5439 12.1719 380.9424 12.7109 Q381.3408 13.25 382.0752 13.25 Q382.7939 13.25 383.2002 12.7109 Q383.6064 12.1719 383.6064 11.2031 ZM384.4971 13.3281 Q384.4971 14.7188 383.8799 15.3984 Q383.2627 16.0781 381.9814 16.0781 Q381.5127 16.0781 381.0908 16.0078 Q380.6689 15.9375 380.2783 15.7969 L380.2783 14.9219 Q380.6689 15.1406 381.0518 15.2422 Q381.4346 15.3438 381.8408 15.3438 Q382.7158 15.3438 383.1611 14.8828 Q383.6064 14.4219 383.6064 13.4844 L383.6064 13.0312 Q383.3252 13.5156 382.8877 13.7578 Q382.4502 14 381.8408 14 Q380.8408 14 380.2236 13.2344 Q379.6064 12.4688 379.6064 11.2031 Q379.6064 9.9375 380.2236 9.1719 Q380.8408 8.4062 381.8408 8.4062 Q382.4502 8.4062 382.8877 8.6406 Q383.3252 8.875 383.6064 9.3594 L383.6064 8.5312 L384.4971 8.5312 L384.4971 13.3281 ZM386.3447 8.5312 L387.251 8.5312 L387.251 14 L386.3447 14 L386.3447 8.5312 ZM386.3447 6.4062 L387.251 6.4062 L387.251 7.5469 L386.3447 7.5469 L386.3447 6.4062 ZM393.6699 10.7031 L393.6699 14 L392.7793 14 L392.7793 10.7344 Q392.7793 9.9531 392.4746 9.5703 Q392.1699 9.1875 391.5605 9.1875 Q390.8418 9.1875 390.4199 9.6484 Q389.998 10.1094 389.998 10.9062 L389.998 14 L389.0918 14 L389.0918 8.5312 L389.998 8.5312 L389.998 9.375 Q390.3262 8.8906 390.7637 8.6484 Q391.2012 8.4062 391.7637 8.4062 Q392.7012 8.4062 393.1855 8.9844 Q393.6699 9.5625 393.6699 10.7031 ZM399.0703 11.2031 Q399.0703 10.2188 398.6641 9.6875 Q398.2578 9.1562 397.5391 9.1562 Q396.8047 9.1562 396.4062 9.6875 Q396.0078 10.2188 396.0078 11.2031 Q396.0078 12.1719 396.4062 12.7109 Q396.8047 13.25 397.5391 13.25 Q398.2578 13.25 398.6641 12.7109 Q399.0703 12.1719 399.0703 11.2031 ZM399.9609 13.3281 Q399.9609 14.7188 399.3438 15.3984 Q398.7266 16.0781 397.4453 16.0781 Q396.9766 16.0781 396.5547 16.0078 Q396.1328 15.9375 395.7422 15.7969 L395.7422 14.9219 Q396.1328 15.1406 396.5156 15.2422 Q396.8984 15.3438 397.3047 15.3438 Q398.1797 15.3438 398.625 14.8828 Q399.0703 14.4219 399.0703 13.4844 L399.0703 13.0312 Q398.7891 13.5156 398.3516 13.7578 Q397.9141 14 397.3047 14 Q396.3047 14 395.6875 13.2344 Q395.0703 12.4688 395.0703 11.2031 Q395.0703 9.9375 395.6875 9.1719 Q396.3047 8.4062 397.3047 8.4062 Q397.9141 8.4062 398.3516 8.6406 Q398.7891 8.875 399.0703 9.3594 L399.0703 8.5312 L399.9609 8.5312 L399.9609 13.3281 Z"
         style="clip-path:url(#clipPath2); stroke:none;"
         clip-path="url(#clipPath2)"
         id="path115" />
      <path
         d="M4.25 21.9375 Q3.3906 21.9375 2.9141 22.5703 Q2.4375 23.2031 2.4375 24.3594 Q2.4375 25.5156 2.9141 26.1484 Q3.3906 26.7812 4.25 26.7812 Q5.1094 26.7812 5.5859 26.1484 Q6.0625 25.5156 6.0625 24.3594 Q6.0625 23.2031 5.5859 22.5703 Q5.1094 21.9375 4.25 21.9375 ZM4.25 20.5781 Q6 20.5781 7 21.5859 Q8 22.5938 8 24.3594 Q8 26.125 7 27.1328 Q6 28.1406 4.25 28.1406 Q2.5 28.1406 1.5 27.1328 Q0.5 26.125 0.5 24.3594 Q0.5 22.5938 1.5 21.5859 Q2.5 20.5781 4.25 20.5781 ZM13.4072 24.0156 Q13.1729 23.9062 12.9463 23.8594 Q12.7197 23.8125 12.4854 23.8125 Q11.8135 23.8125 11.4541 24.2422 Q11.0947 24.6719 11.0947 25.4844 L11.0947 28 L9.3447 28 L9.3447 22.5312 L11.0947 22.5312 L11.0947 23.4219 Q11.4229 22.8906 11.8604 22.6484 Q12.2979 22.4062 12.9072 22.4062 Q13.001 22.4062 13.1025 22.4062 Q13.2041 22.4062 13.3916 22.4375 L13.4072 24.0156 ZM17.9951 27.0781 Q17.6357 27.5469 17.1982 27.7734 Q16.7607 28 16.1982 28 Q15.1982 28 14.542 27.2109 Q13.8857 26.4219 13.8857 25.2031 Q13.8857 23.9688 14.542 23.1875 Q15.1982 22.4062 16.1982 22.4062 Q16.7607 22.4062 17.1982 22.6328 Q17.6357 22.8594 17.9951 23.3438 L17.9951 22.5312 L19.7451 22.5312 L19.7451 27.4531 Q19.7451 28.7656 18.917 29.4609 Q18.0889 30.1562 16.5107 30.1562 Q15.9951 30.1562 15.5186 30.0781 Q15.042 30 14.5576 29.8438 L14.5576 28.4844 Q15.0107 28.75 15.4482 28.875 Q15.8857 29 16.3389 29 Q17.1982 29 17.5967 28.625 Q17.9951 28.25 17.9951 27.4531 L17.9951 27.0781 ZM16.8389 23.6719 Q16.292 23.6719 15.9951 24.0703 Q15.6982 24.4688 15.6982 25.2031 Q15.6982 25.9531 15.9873 26.3438 Q16.2764 26.7344 16.8389 26.7344 Q17.3857 26.7344 17.6904 26.3281 Q17.9951 25.9219 17.9951 25.2031 Q17.9951 24.4688 17.6904 24.0703 Q17.3857 23.6719 16.8389 23.6719 ZM23.8877 25.5312 Q23.3408 25.5312 23.0596 25.7188 Q22.7783 25.9062 22.7783 26.2656 Q22.7783 26.6094 23.0049 26.7969 Q23.2314 26.9844 23.6221 26.9844 Q24.1221 26.9844 24.458 26.625 Q24.7939 26.2656 24.7939 25.7344 L24.7939 25.5312 L23.8877 25.5312 ZM26.5596 24.875 L26.5596 28 L24.7939 28 L24.7939 27.1875 Q24.4346 27.6875 23.9971 27.9141 Q23.5596 28.1406 22.9346 28.1406 Q22.0752 28.1406 21.5518 27.6484 Q21.0283 27.1562 21.0283 26.3594 Q21.0283 25.3906 21.6846 24.9453 Q22.3408 24.5 23.7627 24.5 L24.7939 24.5 L24.7939 24.3594 Q24.7939 23.9531 24.4658 23.7578 Q24.1377 23.5625 23.4502 23.5625 Q22.8877 23.5625 22.4033 23.6719 Q21.9189 23.7812 21.4971 24.0156 L21.4971 22.6719 Q22.0596 22.5469 22.6299 22.4766 Q23.2002 22.4062 23.7627 22.4062 Q25.2471 22.4062 25.9033 22.9844 Q26.5596 23.5625 26.5596 24.875 ZM33.6826 24.6719 L33.6826 28 L31.917 28 L31.917 27.4531 L31.917 25.4531 Q31.917 24.75 31.8857 24.4766 Q31.8545 24.2031 31.7764 24.0781 Q31.6826 23.9062 31.5029 23.8125 Q31.3232 23.7188 31.1045 23.7188 Q30.5576 23.7188 30.2451 24.1406 Q29.9326 24.5625 29.9326 25.3125 L29.9326 28 L28.1826 28 L28.1826 22.5312 L29.9326 22.5312 L29.9326 23.3281 Q30.3232 22.8594 30.7686 22.6328 Q31.2139 22.4062 31.7451 22.4062 Q32.6982 22.4062 33.1904 22.9844 Q33.6826 23.5625 33.6826 24.6719 ZM35.3018 22.5312 L37.0518 22.5312 L37.0518 28 L35.3018 28 L35.3018 22.5312 ZM35.3018 20.4062 L37.0518 20.4062 L37.0518 21.8281 L35.3018 21.8281 L35.3018 20.4062 ZM42.9951 22.7031 L42.9951 24.0312 Q42.4326 23.7969 41.9092 23.6797 Q41.3857 23.5625 40.9326 23.5625 Q40.4326 23.5625 40.1904 23.6875 Q39.9482 23.8125 39.9482 24.0625 Q39.9482 24.2812 40.1279 24.3906 Q40.3076 24.5 40.792 24.5625 L41.0889 24.5938 Q42.4326 24.7656 42.9014 25.1562 Q43.3701 25.5469 43.3701 26.3906 Q43.3701 27.2656 42.7217 27.7031 Q42.0732 28.1406 40.792 28.1406 Q40.2607 28.1406 39.6826 28.0547 Q39.1045 27.9688 38.4795 27.7969 L38.4795 26.4688 Q39.0107 26.7188 39.5576 26.8516 Q40.1045 26.9844 40.667 26.9844 Q41.1826 26.9844 41.4404 26.8438 Q41.6982 26.7031 41.6982 26.4219 Q41.6982 26.1875 41.5264 26.0703 Q41.3545 25.9531 40.8232 25.8906 L40.5107 25.8438 Q39.3389 25.7031 38.8701 25.3047 Q38.4014 24.9062 38.4014 24.1094 Q38.4014 23.2344 38.9951 22.8203 Q39.5889 22.4062 40.8232 22.4062 Q41.3076 22.4062 41.8389 22.4766 Q42.3701 22.5469 42.9951 22.7031 ZM49.7441 23.4375 Q50.0723 22.9375 50.5332 22.6719 Q50.9941 22.4062 51.541 22.4062 Q52.4785 22.4062 52.9707 22.9844 Q53.4629 23.5625 53.4629 24.6719 L53.4629 28 L51.7129 28 L51.7129 25.1406 Q51.7129 25.0781 51.7129 25.0156 Q51.7129 24.9531 51.7129 24.8281 Q51.7129 24.2344 51.5488 23.9766 Q51.3848 23.7188 50.9941 23.7188 Q50.4941 23.7188 50.2285 24.125 Q49.9629 24.5312 49.9473 25.3125 L49.9473 28 L48.1816 28 L48.1816 25.1406 Q48.1816 24.2344 48.0254 23.9766 Q47.8691 23.7188 47.4785 23.7188 Q46.9785 23.7188 46.7051 24.1328 Q46.4316 24.5469 46.4316 25.3125 L46.4316 28 L44.666 28 L44.666 22.5312 L46.4316 22.5312 L46.4316 23.3281 Q46.7441 22.875 47.166 22.6406 Q47.5879 22.4062 48.0879 22.4062 Q48.6504 22.4062 49.0879 22.6797 Q49.5254 22.9531 49.7441 23.4375 ZM55.3828 22.5312 L57.1328 22.5312 L57.1328 24.4219 L55.3828 24.4219 L55.3828 22.5312 ZM55.3828 26.1094 L57.1328 26.1094 L57.1328 28 L55.3828 28 L55.3828 26.1094 Z"
         style="clip-path:url(#clipPath2); stroke:none;"
         clip-path="url(#clipPath2)"
         id="path117" />
      <path
         d="M66.9844 20.7031 L67.9688 20.7031 L67.9688 23.7031 L71.5469 23.7031 L71.5469 20.7031 L72.5312 20.7031 L72.5312 28 L71.5469 28 L71.5469 24.5312 L67.9688 24.5312 L67.9688 28 L66.9844 28 L66.9844 20.7031 ZM76.582 23.1562 Q75.8633 23.1562 75.4414 23.7188 Q75.0195 24.2812 75.0195 25.2656 Q75.0195 26.25 75.4336 26.8125 Q75.8477 27.375 76.582 27.375 Q77.3008 27.375 77.7227 26.8125 Q78.1445 26.25 78.1445 25.2656 Q78.1445 24.2969 77.7227 23.7266 Q77.3008 23.1562 76.582 23.1562 ZM76.582 22.4062 Q77.7539 22.4062 78.4258 23.1641 Q79.0977 23.9219 79.0977 25.2656 Q79.0977 26.6094 78.4258 27.375 Q77.7539 28.1406 76.582 28.1406 Q75.4102 28.1406 74.7383 27.375 Q74.0664 26.6094 74.0664 25.2656 Q74.0664 23.9219 74.7383 23.1641 Q75.4102 22.4062 76.582 22.4062 ZM84.8408 23.5781 Q85.1689 22.9688 85.6377 22.6875 Q86.1064 22.4062 86.7471 22.4062 Q87.6064 22.4062 88.0674 23 Q88.5283 23.5938 88.5283 24.7031 L88.5283 28 L87.6221 28 L87.6221 24.7344 Q87.6221 23.9375 87.3486 23.5625 Q87.0752 23.1875 86.4971 23.1875 Q85.7939 23.1875 85.3955 23.6484 Q84.9971 24.1094 84.9971 24.9062 L84.9971 28 L84.0908 28 L84.0908 24.7344 Q84.0908 23.9375 83.8096 23.5625 Q83.5283 23.1875 82.9502 23.1875 Q82.2627 23.1875 81.8564 23.6484 Q81.4502 24.1094 81.4502 24.9062 L81.4502 28 L80.5439 28 L80.5439 22.5312 L81.4502 22.5312 L81.4502 23.375 Q81.7627 22.875 82.1924 22.6406 Q82.6221 22.4062 83.2002 22.4062 Q83.8096 22.4062 84.2236 22.7031 Q84.6377 23 84.8408 23.5781 ZM92.4414 23.1562 Q91.7227 23.1562 91.3008 23.7188 Q90.8789 24.2812 90.8789 25.2656 Q90.8789 26.25 91.293 26.8125 Q91.707 27.375 92.4414 27.375 Q93.1602 27.375 93.582 26.8125 Q94.0039 26.25 94.0039 25.2656 Q94.0039 24.2969 93.582 23.7266 Q93.1602 23.1562 92.4414 23.1562 ZM92.4414 22.4062 Q93.6133 22.4062 94.2852 23.1641 Q94.957 23.9219 94.957 25.2656 Q94.957 26.6094 94.2852 27.375 Q93.6133 28.1406 92.4414 28.1406 Q91.2695 28.1406 90.5977 27.375 Q89.9258 26.6094 89.9258 25.2656 Q89.9258 23.9219 90.5977 23.1641 Q91.2695 22.4062 92.4414 22.4062 ZM103.0977 22.6875 L103.0977 23.5469 Q102.7227 23.3438 102.3164 23.25 Q101.9102 23.1562 101.457 23.1562 Q100.8008 23.1562 100.4648 23.3594 Q100.1289 23.5625 100.1289 23.9688 Q100.1289 24.2812 100.3633 24.4609 Q100.5977 24.6406 101.332 24.7969 L101.6289 24.875 Q102.5977 25.0781 102.9961 25.4531 Q103.3945 25.8281 103.3945 26.4844 Q103.3945 27.25 102.793 27.6953 Q102.1914 28.1406 101.1445 28.1406 Q100.6914 28.1406 100.2148 28.0547 Q99.7383 27.9688 99.2227 27.7969 L99.2227 26.875 Q99.7227 27.125 100.1992 27.2578 Q100.6758 27.3906 101.1602 27.3906 Q101.7852 27.3906 102.1289 27.1719 Q102.4727 26.9531 102.4727 26.5625 Q102.4727 26.1875 102.2305 25.9922 Q101.9883 25.7969 101.1445 25.625 L100.832 25.5469 Q100.0039 25.375 99.6289 25.0078 Q99.2539 24.6406 99.2539 24.0156 Q99.2539 23.2344 99.8008 22.8203 Q100.3477 22.4062 101.3633 22.4062 Q101.8477 22.4062 102.293 22.4766 Q102.7383 22.5469 103.0977 22.6875 ZM107.3076 25.25 Q106.2295 25.25 105.8076 25.5 Q105.3857 25.75 105.3857 26.3438 Q105.3857 26.8281 105.6982 27.1094 Q106.0107 27.3906 106.5576 27.3906 Q107.3076 27.3906 107.7607 26.8594 Q108.2139 26.3281 108.2139 25.4531 L108.2139 25.25 L107.3076 25.25 ZM109.1045 24.875 L109.1045 28 L108.2139 28 L108.2139 27.1719 Q107.9014 27.6719 107.4404 27.9062 Q106.9795 28.1406 106.3232 28.1406 Q105.4795 28.1406 104.9795 27.6719 Q104.4795 27.2031 104.4795 26.4062 Q104.4795 25.4844 105.1045 25.0156 Q105.7295 24.5469 106.9482 24.5469 L108.2139 24.5469 L108.2139 24.4531 Q108.2139 23.8438 107.7998 23.5 Q107.3857 23.1562 106.6514 23.1562 Q106.1826 23.1562 105.7373 23.2734 Q105.292 23.3906 104.8857 23.6094 L104.8857 22.7812 Q105.3857 22.5938 105.8467 22.5 Q106.3076 22.4062 106.7451 22.4062 Q107.9326 22.4062 108.5186 23.0156 Q109.1045 23.625 109.1045 24.875 ZM111.8262 27.1719 L111.8262 30.0781 L110.9199 30.0781 L110.9199 22.5312 L111.8262 22.5312 L111.8262 23.3594 Q112.1074 22.875 112.5371 22.6406 Q112.9668 22.4062 113.5762 22.4062 Q114.5762 22.4062 115.1934 23.1953 Q115.8105 23.9844 115.8105 25.2656 Q115.8105 26.5625 115.1934 27.3516 Q114.5762 28.1406 113.5762 28.1406 Q112.9668 28.1406 112.5371 27.9062 Q112.1074 27.6719 111.8262 27.1719 ZM114.8887 25.2656 Q114.8887 24.2812 114.4746 23.7188 Q114.0605 23.1562 113.3574 23.1562 Q112.6387 23.1562 112.2324 23.7188 Q111.8262 24.2812 111.8262 25.2656 Q111.8262 26.2656 112.2324 26.8281 Q112.6387 27.3906 113.3574 27.3906 Q114.0605 27.3906 114.4746 26.8281 Q114.8887 26.2656 114.8887 25.2656 ZM117.2988 22.5312 L118.2051 22.5312 L118.2051 28 L117.2988 28 L117.2988 22.5312 ZM117.2988 20.4062 L118.2051 20.4062 L118.2051 21.5469 L117.2988 21.5469 L117.2988 20.4062 ZM124.7646 25.0469 L124.7646 25.4844 L120.624 25.4844 Q120.6865 26.4062 121.1865 26.8906 Q121.6865 27.375 122.5771 27.375 Q123.0928 27.375 123.585 27.25 Q124.0771 27.125 124.5459 26.875 L124.5459 27.7188 Q124.0615 27.9219 123.5537 28.0312 Q123.0459 28.1406 122.5303 28.1406 Q121.2178 28.1406 120.4521 27.3828 Q119.6865 26.625 119.6865 25.3125 Q119.6865 23.9688 120.4131 23.1875 Q121.1396 22.4062 122.374 22.4062 Q123.4834 22.4062 124.124 23.1094 Q124.7646 23.8125 124.7646 25.0469 ZM123.8584 24.7812 Q123.8584 24.0469 123.4521 23.6016 Q123.0459 23.1562 122.3896 23.1562 Q121.624 23.1562 121.1787 23.5859 Q120.7334 24.0156 120.6553 24.7812 L123.8584 24.7812 ZM130.7764 24.7031 L130.7764 28 L129.8857 28 L129.8857 24.7344 Q129.8857 23.9531 129.5811 23.5703 Q129.2764 23.1875 128.667 23.1875 Q127.9482 23.1875 127.5264 23.6484 Q127.1045 24.1094 127.1045 24.9062 L127.1045 28 L126.1982 28 L126.1982 22.5312 L127.1045 22.5312 L127.1045 23.375 Q127.4326 22.8906 127.8701 22.6484 Q128.3076 22.4062 128.8701 22.4062 Q129.8076 22.4062 130.292 22.9844 Q130.7764 23.5625 130.7764 24.7031 ZM136.0518 22.6875 L136.0518 23.5469 Q135.6768 23.3438 135.2705 23.25 Q134.8643 23.1562 134.4111 23.1562 Q133.7549 23.1562 133.4189 23.3594 Q133.083 23.5625 133.083 23.9688 Q133.083 24.2812 133.3174 24.4609 Q133.5518 24.6406 134.2861 24.7969 L134.583 24.875 Q135.5518 25.0781 135.9502 25.4531 Q136.3486 25.8281 136.3486 26.4844 Q136.3486 27.25 135.7471 27.6953 Q135.1455 28.1406 134.0986 28.1406 Q133.6455 28.1406 133.1689 28.0547 Q132.6924 27.9688 132.1768 27.7969 L132.1768 26.875 Q132.6768 27.125 133.1533 27.2578 Q133.6299 27.3906 134.1143 27.3906 Q134.7393 27.3906 135.083 27.1719 Q135.4268 26.9531 135.4268 26.5625 Q135.4268 26.1875 135.1846 25.9922 Q134.9424 25.7969 134.0986 25.625 L133.7861 25.5469 Q132.958 25.375 132.583 25.0078 Q132.208 24.6406 132.208 24.0156 Q132.208 23.2344 132.7549 22.8203 Q133.3018 22.4062 134.3174 22.4062 Q134.8018 22.4062 135.2471 22.4766 Q135.6924 22.5469 136.0518 22.6875 Z"
         style="clip-path:url(#clipPath2); stroke:none;"
         clip-path="url(#clipPath2)"
         id="path119" />
    </g>
    <g
       style="fill:navy; text-rendering:geometricPrecision; font-size:8; stroke:navy;"
       id="g125">
      <text
         x="406"
         xml:space="preserve"
         y="16"
         style="clip-path:url(#clipPath4); stroke:none;"
         clip-path="url(#clipPath4)"
         id="text123">1</text>
    </g>
    <g
       style="text-rendering:geometricPrecision;"
       id="g133">
      <path
         d="M537.3857 263.75 L579.4601 262.9262"
         style="fill:none; clip-path:url(#clipPath5);"
         clip-path="url(#clipPath5)"
         id="path127" />
      <path
         d="M579.3583 257.7272 L591.1578 262.6971 L579.5619 268.1252 Z"
         style="fill:white; clip-path:url(#clipPath5); stroke:none;"
         clip-path="url(#clipPath5)"
         id="path129" />
      <path
         d="M579.3583 257.7272 L591.1578 262.6971 L579.5619 268.1252 Z"
         style="fill:none; clip-path:url(#clipPath5);"
         clip-path="url(#clipPath5)"
         id="path131" />
    </g>
    <g
       style="text-rendering:geometricPrecision;"
       id="g139">
      <path
         d="M347 91 L278 91.9"
         style="fill:none; clip-path:url(#clipPath6);"
         clip-path="url(#clipPath6)"
         id="path135" />
      <path
         d="M278 91.9 L289.7668 96.947 L289.6312 86.5478 Z"
         style="clip-path:url(#clipPath6); fill-rule:evenodd; stroke:none;"
         clip-path="url(#clipPath6)"
         id="path137" />
    </g>
    <g
       style="text-rendering:geometricPrecision;"
       id="g147">
      <path
         d="M588.4584 269 L546.384 269.8238"
         style="fill:none; clip-path:url(#clipPath7);"
         clip-path="url(#clipPath7)"
         id="path141" />
      <path
         d="M546.4858 275.0228 L534.6863 270.0529 L546.2822 264.6248 Z"
         style="fill:white; clip-path:url(#clipPath7); stroke:none;"
         clip-path="url(#clipPath7)"
         id="path143" />
      <path
         d="M546.4858 275.0228 L534.6863 270.0529 L546.2822 264.6248 Z"
         style="fill:none; clip-path:url(#clipPath7);"
         clip-path="url(#clipPath7)"
         id="path145" />
    </g>
    <g
       style="text-rendering:geometricPrecision;"
       id="g155">
      <path
         d="M537 192.5 L497.4788 250.0797"
         style="fill:none; clip-path:url(#clipPath8);"
         clip-path="url(#clipPath8)"
         id="path149" />
      <path
         d="M501.7661 253.0224 L490.8578 259.7261 L493.1916 247.1371 Z"
         style="fill:white; clip-path:url(#clipPath8); stroke:none;"
         clip-path="url(#clipPath8)"
         id="path151" />
      <path
         d="M501.7661 253.0224 L490.8578 259.7261 L493.1916 247.1371 Z"
         style="fill:none; clip-path:url(#clipPath8);"
         clip-path="url(#clipPath8)"
         id="path153" />
    </g>
    <g
       style="text-rendering:geometricPrecision;"
       id="g163">
      <path
         d="M415.1177 366.5807 L421.3995 460.5201"
         style="fill:none; clip-path:url(#clipPath9);"
         clip-path="url(#clipPath9)"
         id="path157" />
      <path
         d="M426.5879 460.1731 L422.1801 472.194 L416.2111 460.867 Z"
         style="fill:white; clip-path:url(#clipPath9); stroke:none;"
         clip-path="url(#clipPath9)"
         id="path159" />
      <path
         d="M426.5879 460.1731 L422.1801 472.194 L416.2111 460.867 Z"
         style="fill:none; clip-path:url(#clipPath9);"
         clip-path="url(#clipPath9)"
         id="path161" />
    </g>
    <g
       style="text-rendering:geometricPrecision;"
       id="g171">
      <path
         d="M447.3857 276.25 L438.6528 334.6577"
         style="fill:none; clip-path:url(#clipPath10);"
         clip-path="url(#clipPath10)"
         id="path165" />
      <path
         d="M447.6528 336.0034 L447.4605 337.2891 L428.1749 334.4055 L428.3672 333.1198 L447.6528 336.0034 Z"
         style="fill:white; clip-path:url(#clipPath10); stroke:none;"
         clip-path="url(#clipPath10)"
         id="path167" />
      <path
         d="M447.6528 336.0034 L447.4605 337.2891 L428.1749 334.4055 L428.3672 333.1198 L447.6528 336.0034 Z"
         style="fill:none; clip-path:url(#clipPath10);"
         clip-path="url(#clipPath10)"
         id="path169" />
    </g>
    <g
       style="text-rendering:geometricPrecision;"
       id="g179">
      <path
         d="M568 167.5 L568 132 M568 132 L330 132"
         style="fill:none; clip-path:url(#clipPath11);"
         clip-path="url(#clipPath11)"
         id="path173" />
      <path
         d="M330 141.1 L328.7 141.1 L328.7 121.6 L330 121.6 L330 141.1 Z"
         style="fill:white; clip-path:url(#clipPath11); stroke:none;"
         clip-path="url(#clipPath11)"
         id="path175" />
      <path
         d="M330 141.1 L328.7 141.1 L328.7 121.6 L330 121.6 L330 141.1 Z"
         style="fill:none; clip-path:url(#clipPath11);"
         clip-path="url(#clipPath11)"
         id="path177" />
    </g>
    <g
       style="text-rendering:geometricPrecision;"
       id="g187">
      <path
         d="M250.4421 279.4656 L174.5186 334.4738"
         style="fill:none; clip-path:url(#clipPath12);"
         clip-path="url(#clipPath12)"
         id="path181" />
      <path
         d="M179.8577 341.8429 L178.8049 342.6056 L167.364 326.8146 L168.4167 326.0519 L179.8577 341.8429 Z"
         style="fill:white; clip-path:url(#clipPath12); stroke:none;"
         clip-path="url(#clipPath12)"
         id="path183" />
      <path
         d="M179.8577 341.8429 L178.8049 342.6056 L167.364 326.8146 L168.4167 326.0519 L179.8577 341.8429 Z"
         style="fill:none; clip-path:url(#clipPath12);"
         clip-path="url(#clipPath12)"
         id="path185" />
    </g>
    <g
       style="text-rendering:geometricPrecision;"
       id="g195">
      <path
         d="M206.0555 200 L226 200"
         style="fill:none; clip-path:url(#clipPath13);"
         clip-path="url(#clipPath13)"
         id="path189" />
      <path
         d="M226 190.9 L227.3 190.9 L227.3 210.4 L226 210.4 L226 190.9 Z"
         style="fill:white; clip-path:url(#clipPath13); stroke:none;"
         clip-path="url(#clipPath13)"
         id="path191" />
      <path
         d="M226 190.9 L227.3 190.9 L227.3 210.4 L226 210.4 L226 190.9 Z"
         style="fill:none; clip-path:url(#clipPath13);"
         clip-path="url(#clipPath13)"
         id="path193" />
    </g>
    <g
       style="text-rendering:geometricPrecision;"
       id="g203">
      <path
         d="M633.4584 281.5 L633.5907 328.5808"
         style="fill:none; clip-path:url(#clipPath14);"
         clip-path="url(#clipPath14)"
         id="path197" />
      <path
         d="M638.7907 328.5662 L633.6236 340.2807 L628.3907 328.5954 Z"
         style="fill:white; clip-path:url(#clipPath14); stroke:none;"
         clip-path="url(#clipPath14)"
         id="path199" />
      <path
         d="M638.7907 328.5662 L633.6236 340.2807 L628.3907 328.5954 Z"
         style="fill:none; clip-path:url(#clipPath14);"
         clip-path="url(#clipPath14)"
         id="path201" />
    </g>
    <g
       style="text-rendering:geometricPrecision;"
       id="g211">
      <path
         d="M633.616 362.5807 L472.7906 471.8169"
         style="fill:none; clip-path:url(#clipPath15);"
         clip-path="url(#clipPath15)"
         id="path205" />
      <path
         d="M477.9036 479.3447 L476.8282 480.0751 L465.8717 463.9442 L466.9471 463.2138 L477.9036 479.3447 Z"
         style="fill:white; clip-path:url(#clipPath15); stroke:none;"
         clip-path="url(#clipPath15)"
         id="path207" />
      <path
         d="M477.9036 479.3447 L476.8282 480.0751 L465.8717 463.9442 L466.9471 463.2138 L477.9036 479.3447 Z"
         style="fill:none; clip-path:url(#clipPath15);"
         clip-path="url(#clipPath15)"
         id="path209" />
    </g>
    <g
       style="text-rendering:geometricPrecision;"
       id="g219">
      <path
         d="M300.5 282.5 L385.0419 336.722"
         style="fill:none; clip-path:url(#clipPath16);"
         clip-path="url(#clipPath16)"
         id="path213" />
      <path
         d="M387.8492 332.3448 L394.8904 343.0384 L382.2346 341.0991 Z"
         style="fill:white; clip-path:url(#clipPath16); stroke:none;"
         clip-path="url(#clipPath16)"
         id="path215" />
      <path
         d="M387.8492 332.3448 L394.8904 343.0384 L382.2346 341.0991 Z"
         style="fill:none; clip-path:url(#clipPath16);"
         clip-path="url(#clipPath16)"
         id="path217" />
    </g>
    <g
       style="text-rendering:geometricPrecision;"
       id="g227">
      <path
         d="M278 73.5 L278 110.5"
         style="fill:none; clip-path:url(#clipPath17);"
         clip-path="url(#clipPath17)"
         id="path221" />
      <path
         d="M283.2 110.5 L278 122.2 L272.8 110.5 Z"
         style="fill:white; clip-path:url(#clipPath17); stroke:none;"
         clip-path="url(#clipPath17)"
         id="path223" />
      <path
         d="M283.2 110.5 L278 122.2 L272.8 110.5 Z"
         style="fill:none; clip-path:url(#clipPath17);"
         clip-path="url(#clipPath17)"
         id="path225" />
    </g>
    <g
       style="text-rendering:geometricPrecision;"
       id="g235">
      <path
         d="M168.85 363.5807 L370.8378 472.4293"
         style="fill:none; clip-path:url(#clipPath18);"
         clip-path="url(#clipPath18)"
         id="path229" />
      <path
         d="M375.1548 464.4184 L376.2992 465.0351 L367.0486 482.2013 L365.9041 481.5845 L375.1548 464.4184 Z"
         style="fill:white; clip-path:url(#clipPath18); stroke:none;"
         clip-path="url(#clipPath18)"
         id="path231" />
      <path
         d="M375.1548 464.4184 L376.2992 465.0351 L367.0486 482.2013 L365.9041 481.5845 L375.1548 464.4184 Z"
         style="fill:none; clip-path:url(#clipPath18);"
         clip-path="url(#clipPath18)"
         id="path233" />
    </g>
    <g
       style="text-rendering:geometricPrecision;"
       id="g243">
      <path
         d="M599 192.5 L629.1918 248.5756"
         style="fill:none; clip-path:url(#clipPath19);"
         clip-path="url(#clipPath19)"
         id="path237" />
      <path
         d="M633.7703 246.1105 L634.7383 258.8773 L624.6132 251.0407 Z"
         style="fill:white; clip-path:url(#clipPath19); stroke:none;"
         clip-path="url(#clipPath19)"
         id="path239" />
      <path
         d="M633.7703 246.1105 L634.7383 258.8773 L624.6132 251.0407 Z"
         style="fill:none; clip-path:url(#clipPath19);"
         clip-path="url(#clipPath19)"
         id="path241" />
    </g>
    <g
       style="text-rendering:geometricPrecision;"
       id="g251">
      <path
         d="M278 212.5 L278 248.5"
         style="fill:none; clip-path:url(#clipPath20);"
         clip-path="url(#clipPath20)"
         id="path245" />
      <path
         d="M283.2 248.5 L278 260.2 L272.8 248.5 Z"
         style="fill:white; clip-path:url(#clipPath20); stroke:none;"
         clip-path="url(#clipPath20)"
         id="path247" />
      <path
         d="M283.2 248.5 L278 260.2 L272.8 248.5 Z"
         style="fill:none; clip-path:url(#clipPath20);"
         clip-path="url(#clipPath20)"
         id="path249" />
    </g>
    <g
       style="text-rendering:geometricPrecision;"
       id="g259">
      <path
         d="M506 180 L415.1177 180 M415.1177 180 L415.1177 334.5807"
         style="fill:none; clip-path:url(#clipPath21);"
         clip-path="url(#clipPath21)"
         id="path253" />
      <path
         d="M424.2177 334.5807 L424.2177 335.8807 L404.7177 335.8807 L404.7177 334.5807 L424.2177 334.5807 Z"
         style="fill:white; clip-path:url(#clipPath21); stroke:none;"
         clip-path="url(#clipPath21)"
         id="path255" />
      <path
         d="M424.2177 334.5807 L424.2177 335.8807 L404.7177 335.8807 L404.7177 334.5807 L424.2177 334.5807 Z"
         style="fill:none; clip-path:url(#clipPath21);"
         clip-path="url(#clipPath21)"
         id="path257" />
    </g>
    <g
       style="text-rendering:geometricPrecision;"
       id="g267">
      <path
         d="M278 144.5 L278 178.5"
         style="fill:none; clip-path:url(#clipPath22);"
         clip-path="url(#clipPath22)"
         id="path261" />
      <path
         d="M283.2 178.5 L278 190.2 L272.8 178.5 Z"
         style="fill:white; clip-path:url(#clipPath22); stroke:none;"
         clip-path="url(#clipPath22)"
         id="path263" />
      <path
         d="M283.2 178.5 L278 190.2 L272.8 178.5 Z"
         style="fill:none; clip-path:url(#clipPath22);"
         clip-path="url(#clipPath22)"
         id="path265" />
    </g>
    <g
       style="text-rendering:geometricPrecision;"
       id="g271">
      <text
         x="512"
         xml:space="preserve"
         y="184"
         style="clip-path:url(#clipPath23); stroke:none;"
         clip-path="url(#clipPath23)"
         id="text269">Dietary Restriction</text>
    </g>
    <g
       style="text-rendering:geometricPrecision;"
       id="g275">
      <text
         x="405"
         xml:space="preserve"
         y="486"
         style="clip-path:url(#clipPath24); stroke:none;"
         clip-path="url(#clipPath24)"
         id="text273">Aging</text>
    </g>
    <g
       style="fill:rgb(0,255,153); text-rendering:geometricPrecision; stroke:rgb(0,255,153);"
       id="g283">
      <path
         d="M116.0555 187.5 L206.0555 187.5 L206.0555 212.5 L116.0555 212.5 L116.0555 187.5 Z"
         style="clip-path:url(#clipPath25); stroke:none;"
         clip-path="url(#clipPath25)"
         id="path277" />
      <path
         d="M116.0555 187.5 L206.0555 187.5 L206.0555 212.5 L116.0555 212.5 L116.0555 187.5 Z"
         style="fill:none; clip-path:url(#clipPath25); stroke:black;"
         clip-path="url(#clipPath25)"
         id="path279" />
      <text
         x="146"
         y="204"
         style="fill:black; clip-path:url(#clipPath25); stroke:none;"
         xml:space="preserve"
         clip-path="url(#clipPath25)"
         id="text281">PTEN</text>
    </g>
    <g
       style="fill:rgb(255,153,102); text-rendering:geometricPrecision; stroke:rgb(255,153,102);"
       id="g291">
      <path
         d="M233 257.5 L323 257.5 L323 282.5 L233 282.5 L233 257.5 Z"
         style="clip-path:url(#clipPath26); stroke:none;"
         clip-path="url(#clipPath26)"
         id="path285" />
      <path
         d="M233 257.5 L323 257.5 L323 282.5 L233 282.5 L233 257.5 Z"
         style="fill:none; clip-path:url(#clipPath26); stroke:black;"
         clip-path="url(#clipPath26)"
         id="path287" />
      <text
         x="267"
         y="274"
         style="fill:black; clip-path:url(#clipPath26); stroke:none;"
         xml:space="preserve"
         clip-path="url(#clipPath26)"
         id="text289">AKT</text>
    </g>
    <g
       style="fill:rgb(0,255,153); text-rendering:geometricPrecision; stroke:rgb(0,255,153);"
       id="g299">
      <path
         d="M588.4584 256.5 L678.4584 256.5 L678.4584 281.5 L588.4584 281.5 L588.4584 256.5 Z"
         style="clip-path:url(#clipPath27); stroke:none;"
         clip-path="url(#clipPath27)"
         id="path293" />
      <path
         d="M588.4584 256.5 L678.4584 256.5 L678.4584 281.5 L588.4584 281.5 L588.4584 256.5 Z"
         style="fill:none; clip-path:url(#clipPath27); stroke:black;"
         clip-path="url(#clipPath27)"
         id="path295" />
      <text
         x="616"
         y="273"
         style="fill:black; clip-path:url(#clipPath27); stroke:none;"
         xml:space="preserve"
         clip-path="url(#clipPath27)"
         id="text297">SIRT1</text>
    </g>
    <g
       style="fill:white; text-rendering:geometricPrecision; stroke:white;"
       id="g307">
      <path
         d="M347 88.5 L347 93.5 C347 99.0229 351.4771 103.5 357 103.5 L506 103.5 C511.5229 103.5 516 99.0229 516 93.5 L516 88.5 C516 82.9771 511.5229 78.5 506 78.5 L357 78.5 C351.4771 78.5 347 82.9771 347 88.5 Z"
         style="clip-path:url(#clipPath28); stroke:none;"
         clip-path="url(#clipPath28)"
         id="path301" />
      <path
         d="M347 88.5 L347 93.5 C347 99.0229 351.4771 103.5 357 103.5 L506 103.5 C511.5229 103.5 516 99.0229 516 93.5 L516 88.5 C516 82.9771 511.5229 78.5 506 78.5 L357 78.5 C351.4771 78.5 347 82.9771 347 88.5 Z"
         style="fill:none; clip-path:url(#clipPath28); stroke:rgb(20,150,30);"
         clip-path="url(#clipPath28)"
         id="path303" />
      <text
         x="344"
         y="95"
         style="clip-path:url(#clipPath28); fill:rgb(20,150,30); stroke:none; font-weight:bold;"
         xml:space="preserve"
         clip-path="url(#clipPath28)"
         id="text305">IGF and insuline signaling</text>
    </g>
    <g
       style="fill:rgb(0,255,153); text-rendering:geometricPrecision; stroke:rgb(0,255,153);"
       id="g315">
      <path
         d="M123.85 338.5807 L213.85 338.5807 L213.85 363.5807 L123.85 363.5807 L123.85 338.5807 Z"
         style="clip-path:url(#clipPath29); stroke:none;"
         clip-path="url(#clipPath29)"
         id="path309" />
      <path
         d="M123.85 338.5807 L213.85 338.5807 L213.85 363.5807 L123.85 363.5807 L123.85 338.5807 Z"
         style="fill:none; clip-path:url(#clipPath29); stroke:black;"
         clip-path="url(#clipPath29)"
         id="path311" />
      <text
         x="151"
         y="355"
         style="fill:black; clip-path:url(#clipPath29); stroke:none;"
         xml:space="preserve"
         clip-path="url(#clipPath29)"
         id="text313">FOXO</text>
    </g>
    <g
       style="fill:rgb(255,153,102); text-rendering:geometricPrecision; stroke:rgb(255,153,102);"
       id="g323">
      <path
         d="M370.1177 341.5807 L460.1177 341.5807 L460.1177 366.5807 L370.1177 366.5807 L370.1177 341.5807 Z"
         style="clip-path:url(#clipPath30); stroke:none;"
         clip-path="url(#clipPath30)"
         id="path317" />
      <path
         d="M370.1177 341.5807 L460.1177 341.5807 L460.1177 366.5807 L370.1177 366.5807 L370.1177 341.5807 Z"
         style="fill:none; clip-path:url(#clipPath30); stroke:black;"
         clip-path="url(#clipPath30)"
         id="path319" />
      <text
         x="398"
         y="358"
         style="fill:black; clip-path:url(#clipPath30); stroke:none;"
         xml:space="preserve"
         clip-path="url(#clipPath30)"
         id="text321">MTOR</text>
    </g>
    <g
       style="fill:rgb(255,153,102); text-rendering:geometricPrecision; stroke:rgb(255,153,102);"
       id="g331">
      <path
         d="M233 119.5 L323 119.5 L323 144.5 L233 144.5 L233 119.5 Z"
         style="clip-path:url(#clipPath31); stroke:none;"
         clip-path="url(#clipPath31)"
         id="path325" />
      <path
         d="M233 119.5 L323 119.5 L323 144.5 L233 144.5 L233 119.5 Z"
         style="fill:none; clip-path:url(#clipPath31); stroke:black;"
         clip-path="url(#clipPath31)"
         id="path327" />
      <text
         x="263"
         y="136"
         style="fill:black; clip-path:url(#clipPath31); stroke:none;"
         xml:space="preserve"
         clip-path="url(#clipPath31)"
         id="text329">IGF-1</text>
    </g>
    <g
       style="fill:rgb(0,255,153); text-rendering:geometricPrecision; stroke:rgb(0,255,153);"
       id="g339">
      <path
         d="M588.616 337.5807 L678.616 337.5807 L678.616 362.5807 L588.616 362.5807 L588.616 337.5807 Z"
         style="clip-path:url(#clipPath32); stroke:none;"
         clip-path="url(#clipPath32)"
         id="path333" />
      <path
         d="M588.616 337.5807 L678.616 337.5807 L678.616 362.5807 L588.616 362.5807 L588.616 337.5807 Z"
         style="fill:none; clip-path:url(#clipPath32); stroke:black;"
         clip-path="url(#clipPath32)"
         id="path335" />
      <text
         x="597"
         y="354"
         style="fill:black; clip-path:url(#clipPath32); stroke:none;"
         xml:space="preserve"
         clip-path="url(#clipPath32)"
         id="text337">PGC-1 alpha</text>
    </g>
    <g
       style="fill:rgb(0,255,153); text-rendering:geometricPrecision; stroke:rgb(0,255,153);"
       id="g347">
      <path
         d="M447.3857 257.5 L537.3857 257.5 L537.3857 282.5 L447.3857 282.5 L447.3857 257.5 Z"
         style="clip-path:url(#clipPath33); stroke:none;"
         clip-path="url(#clipPath33)"
         id="path341" />
      <path
         d="M447.3857 257.5 L537.3857 257.5 L537.3857 282.5 L447.3857 282.5 L447.3857 257.5 Z"
         style="fill:none; clip-path:url(#clipPath33); stroke:black;"
         clip-path="url(#clipPath33)"
         id="path343" />
      <text
         x="476"
         y="274"
         style="fill:black; clip-path:url(#clipPath33); stroke:none;"
         xml:space="preserve"
         clip-path="url(#clipPath33)"
         id="text345">AMPK</text>
    </g>
    <g
       style="fill:rgb(255,153,102); text-rendering:geometricPrecision; stroke:rgb(255,153,102);"
       id="g355">
      <path
         d="M233 48.5 L323 48.5 L323 73.5 L233 73.5 L233 48.5 Z"
         style="clip-path:url(#clipPath34); stroke:none;"
         clip-path="url(#clipPath34)"
         id="path349" />
      <path
         d="M233 48.5 L323 48.5 L323 73.5 L233 73.5 L233 48.5 Z"
         style="fill:none; clip-path:url(#clipPath34); stroke:blue;"
         clip-path="url(#clipPath34)"
         id="path351" />
      <text
         x="269"
         y="65"
         style="fill:blue; clip-path:url(#clipPath34); stroke:none;"
         xml:space="preserve"
         clip-path="url(#clipPath34)"
         id="text353">GH</text>
    </g>
    <g
       style="fill:rgb(255,153,102); text-rendering:geometricPrecision; stroke:rgb(255,153,102);"
       id="g363">
      <path
         d="M233 187.5 L323 187.5 L323 212.5 L233 212.5 L233 187.5 Z"
         style="clip-path:url(#clipPath35); stroke:none;"
         clip-path="url(#clipPath35)"
         id="path357" />
      <path
         d="M233 187.5 L323 187.5 L323 212.5 L233 212.5 L233 187.5 Z"
         style="fill:none; clip-path:url(#clipPath35); stroke:black;"
         clip-path="url(#clipPath35)"
         id="path359" />
      <text
         x="263"
         y="204"
         style="fill:black; clip-path:url(#clipPath35); stroke:none;"
         xml:space="preserve"
         clip-path="url(#clipPath35)"
         id="text361">PI3K </text>
    </g>
  </g>
</svg>
