<?xml version="1.0" encoding="UTF-8" standalone="no"?>
<svg
   style="fill-opacity:1; color-rendering:auto; color-interpolation:auto; stroke:black; text-rendering:auto; stroke-linecap:square; stroke-miterlimit:10; stroke-opacity:1; shape-rendering:auto; fill:black; stroke-dasharray:none; font-weight:normal; stroke-width:1; font-family:'Dialog'; font-style:normal; stroke-linejoin:miter; font-size:12; stroke-dashoffset:0; image-rendering:auto;"
   width="1223"
   height="709"
   version="1.1"
   id="svg604"
   xmlns="http://www.w3.org/2000/svg"
   xmlns:svg="http://www.w3.org/2000/svg">
  <!--Generated by the Batik Graphics2D SVG Generator-->
  <defs
     id="genericDefs" />
  <g
     id="g602">
    <defs
       id="defs1">
      <clipPath
         clipPathUnits="userSpaceOnUse"
         id="clipPath1">
        <path
           d="M0 0 L1239 0 L1239 724 L0 724 L0 0 Z"
           id="path3" />
      </clipPath>
      <clipPath
         clipPathUnits="userSpaceOnUse"
         id="clipPath2">
        <path
           d="M0 0 L0 200 L200 200 L200 0 Z"
           id="path6" />
      </clipPath>
      <clipPath
         clipPathUnits="userSpaceOnUse"
         id="clipPath3">
        <path
           d="M321 16 L321 37 L357 37 L357 16 Z"
           id="path9" />
      </clipPath>
      <clipPath
         clipPathUnits="userSpaceOnUse"
         id="clipPath4">
        <path
           d="M323.2773 3.918 L354.7227 3.918 L354.7227 19.2305 L323.2773 19.2305 L323.2773 3.918 Z"
           id="path12" />
      </clipPath>
      <clipPath
         clipPathUnits="userSpaceOnUse"
         id="clipPath5">
        <path
           d="M532.6119 510.6845 L532.6119 535.1157 L646.9633 535.1157 L646.9633 510.6845 Z"
           id="path15" />
      </clipPath>
      <clipPath
         clipPathUnits="userSpaceOnUse"
         id="clipPath6">
        <path
           d="M685.4938 424.4059 L685.4938 493.5468 L873.3463 493.5468 L873.3463 424.4059 Z"
           id="path18" />
      </clipPath>
      <clipPath
         clipPathUnits="userSpaceOnUse"
         id="clipPath7">
        <path
           d="M588.2661 344.8056 L588.2661 403.8369 L646.9633 403.8369 L646.9633 344.8056 Z"
           id="path21" />
      </clipPath>
      <clipPath
         clipPathUnits="userSpaceOnUse"
         id="clipPath8">
        <path
           d="M504.6426 424.4059 L504.6426 493.5468 L641.4938 493.5468 L641.4938 424.4059 Z"
           id="path24" />
      </clipPath>
      <clipPath
         clipPathUnits="userSpaceOnUse"
         id="clipPath9">
        <path
           d="M355.5228 519.8157 L355.5228 570.7608 L376.0228 570.7608 L376.0228 519.8157 Z"
           id="path27" />
      </clipPath>
      <clipPath
         clipPathUnits="userSpaceOnUse"
         id="clipPath10">
        <path
           d="M675.0939 344.8056 L675.0939 394.7058 L743.8898 394.7058 L743.8898 344.8056 Z"
           id="path30" />
      </clipPath>
      <clipPath
         clipPathUnits="userSpaceOnUse"
         id="clipPath11">
        <path
           d="M415.3228 497.4657 L415.3228 517.9656 L466.112 517.9656 L466.112 497.4657 Z"
           id="path33" />
      </clipPath>
      <clipPath
         clipPathUnits="userSpaceOnUse"
         id="clipPath12">
        <path
           d="M704.5627 406.4365 L704.5627 502.6157 L739.6066 502.6157 L739.6066 406.4365 Z"
           id="path36" />
      </clipPath>
      <clipPath
         clipPathUnits="userSpaceOnUse"
         id="clipPath13">
        <path
           d="M359.1535 594.7608 L359.1535 656.5607 L371.0922 656.5607 L371.0922 594.7608 Z"
           id="path39" />
      </clipPath>
      <clipPath
         clipPathUnits="userSpaceOnUse"
         id="clipPath14">
        <path
           d="M409.6228 489.8963 L409.6228 501.835 L469.5431 501.835 L469.5431 489.8963 Z"
           id="path42" />
      </clipPath>
      <clipPath
         clipPathUnits="userSpaceOnUse"
         id="clipPath15">
        <path
           d="M889.3768 491.2157 L889.3768 535.6562 L942.0347 535.6562 L942.0347 491.2157 Z"
           id="path45" />
      </clipPath>
      <clipPath
         clipPathUnits="userSpaceOnUse"
         id="clipPath16">
        <path
           d="M587.1729 402.8058 L587.1729 502.6157 L618.9938 502.6157 L618.9938 402.8058 Z"
           id="path48" />
      </clipPath>
      <clipPath
         clipPathUnits="userSpaceOnUse"
         id="clipPath17">
        <path
           d="M510.112 514.1157 L510.112 588.7302 L550.9169 588.7302 L550.9169 514.1157 Z"
           id="path51" />
      </clipPath>
      <clipPath
         clipPathUnits="userSpaceOnUse"
         id="clipPath18">
        <path
           d="M676.3939 514.1157 L676.3939 535.1157 L845.3768 535.1157 L845.3768 514.1157 Z"
           id="path54" />
      </clipPath>
      <clipPath
         clipPathUnits="userSpaceOnUse"
         id="clipPath19">
        <path
           d="M406.1917 514.1157 L406.1917 588.7302 L488.612 588.7302 L488.612 514.1157 Z"
           id="path57" />
      </clipPath>
      <clipPath
         clipPathUnits="userSpaceOnUse"
         id="clipPath20">
        <path
           d="M657.5244 424.4059 L657.5244 493.5468 L669.4633 493.5468 L669.4633 424.4059 Z"
           id="path60" />
      </clipPath>
      <clipPath
         clipPathUnits="userSpaceOnUse"
         id="clipPath21">
        <path
           d="M514.4296 441.9059 L514.4296 462.9059 L525.4296 462.9059 L525.4296 441.9059 Z"
           id="path63" />
      </clipPath>
      <clipPath
         clipPathUnits="userSpaceOnUse"
         id="clipPath22">
        <path
           d="M513.8847 429.8238 L524.9745 429.8238 L524.9745 445.1363 L513.8847 445.1363 L513.8847 429.8238 Z"
           id="path66" />
      </clipPath>
      <clipPath
         clipPathUnits="userSpaceOnUse"
         id="clipPath23">
        <path
           d="M645.4938 467.2027 L645.4938 488.2027 L671.4938 488.2027 L671.4938 467.2027 Z"
           id="path69" />
      </clipPath>
      <clipPath
         clipPathUnits="userSpaceOnUse"
         id="clipPath24">
        <path
           d="M647.861 455.1207 L669.1266 455.1207 L669.1266 470.4332 L647.861 470.4332 L647.861 455.1207 Z"
           id="path72" />
      </clipPath>
      <clipPath
         clipPathUnits="userSpaceOnUse"
         id="clipPath25">
        <path
           d="M443.9631 579.7608 L443.9631 600.7608 L454.9631 600.7608 L454.9631 579.7608 Z"
           id="path75" />
      </clipPath>
      <clipPath
         clipPathUnits="userSpaceOnUse"
         id="clipPath26">
        <path
           d="M443.4182 567.6788 L454.5081 567.6788 L454.5081 582.9913 L443.4182 582.9913 L443.4182 567.6788 Z"
           id="path78" />
      </clipPath>
      <clipPath
         clipPathUnits="userSpaceOnUse"
         id="clipPath27">
        <path
           d="M567.6729 423.9904 L567.6729 444.9904 L598.6729 444.9904 L598.6729 423.9904 Z"
           id="path81" />
      </clipPath>
      <clipPath
         clipPathUnits="userSpaceOnUse"
         id="clipPath28">
        <path
           d="M569.4952 411.9084 L595.8506 411.9084 L595.8506 427.2209 L569.4952 427.2209 L569.4952 411.9084 Z"
           id="path84" />
      </clipPath>
      <clipPath
         clipPathUnits="userSpaceOnUse"
         id="clipPath29">
        <path
           d="M352.1228 528.3092 L352.1228 549.3092 L368.1228 549.3092 L368.1228 528.3092 Z"
           id="path87" />
      </clipPath>
      <clipPath
         clipPathUnits="userSpaceOnUse"
         id="clipPath30">
        <path
           d="M352.033 516.2272 L368.2127 516.2272 L368.2127 531.5397 L352.033 531.5397 L352.033 516.2272 Z"
           id="path90" />
      </clipPath>
      <clipPath
         clipPathUnits="userSpaceOnUse"
         id="clipPath31">
        <path
           d="M630.9938 364.8575 L630.9938 385.8575 L641.9938 385.8575 L641.9938 364.8575 Z"
           id="path93" />
      </clipPath>
      <clipPath
         clipPathUnits="userSpaceOnUse"
         id="clipPath32">
        <path
           d="M630.4489 352.7754 L641.5388 352.7754 L641.5388 368.0879 L630.4489 368.0879 L630.4489 352.7754 Z"
           id="path96" />
      </clipPath>
      <clipPath
         clipPathUnits="userSpaceOnUse"
         id="clipPath33">
        <path
           d="M430.9652 492.8657 L430.9652 513.8657 L456.9652 513.8657 L456.9652 492.8657 Z"
           id="path99" />
      </clipPath>
      <clipPath
         clipPathUnits="userSpaceOnUse"
         id="clipPath34">
        <path
           d="M433.3324 480.7836 L454.5981 480.7836 L454.5981 496.0961 L433.3324 496.0961 L433.3324 480.7836 Z"
           id="path102" />
      </clipPath>
      <clipPath
         clipPathUnits="userSpaceOnUse"
         id="clipPath35">
        <path
           d="M726.1066 424.0737 L726.1066 445.0737 L742.1066 445.0737 L742.1066 424.0737 Z"
           id="path105" />
      </clipPath>
      <clipPath
         clipPathUnits="userSpaceOnUse"
         id="clipPath36">
        <path
           d="M726.0167 411.9917 L742.1964 411.9917 L742.1964 427.3042 L726.0167 427.3042 L726.0167 411.9917 Z"
           id="path108" />
      </clipPath>
      <clipPath
         clipPathUnits="userSpaceOnUse"
         id="clipPath37">
        <path
           d="M825.2588 441.9059 L825.2588 462.9059 L841.2588 462.9059 L841.2588 441.9059 Z"
           id="path111" />
      </clipPath>
      <clipPath
         clipPathUnits="userSpaceOnUse"
         id="clipPath38">
        <path
           d="M825.1689 429.8238 L841.3486 429.8238 L841.3486 445.1363 L825.1689 445.1363 L825.1689 429.8238 Z"
           id="path114" />
      </clipPath>
      <clipPath
         clipPathUnits="userSpaceOnUse"
         id="clipPath39">
        <path
           d="M502.6301 579.7608 L502.6301 600.7608 L518.6301 600.7608 L518.6301 579.7608 Z"
           id="path117" />
      </clipPath>
      <clipPath
         clipPathUnits="userSpaceOnUse"
         id="clipPath40">
        <path
           d="M502.5402 567.6788 L518.7199 567.6788 L518.7199 582.9913 L502.5402 582.9913 L502.5402 567.6788 Z"
           id="path120" />
      </clipPath>
      <clipPath
         clipPathUnits="userSpaceOnUse"
         id="clipPath41">
        <path
           d="M675.9938 363.307 L675.9938 384.307 L686.9938 384.307 L686.9938 363.307 Z"
           id="path123" />
      </clipPath>
      <clipPath
         clipPathUnits="userSpaceOnUse"
         id="clipPath42">
        <path
           d="M675.4489 351.225 L686.5388 351.225 L686.5388 366.5375 L675.4489 366.5375 L675.4489 351.225 Z"
           id="path126" />
      </clipPath>
      <clipPath
         clipPathUnits="userSpaceOnUse"
         id="clipPath43">
        <path
           d="M603.6293 531.6157 L603.6293 552.6157 L619.6293 552.6157 L619.6293 531.6157 Z"
           id="path129" />
      </clipPath>
      <clipPath
         clipPathUnits="userSpaceOnUse"
         id="clipPath44">
        <path
           d="M603.5394 519.5336 L619.7191 519.5336 L619.7191 534.8461 L603.5394 534.8461 L603.5394 519.5336 Z"
           id="path132" />
      </clipPath>
      <clipPath
         clipPathUnits="userSpaceOnUse"
         id="clipPath45">
        <path
           d="M712.6588 531.6157 L712.6588 552.6157 L728.6588 552.6157 L728.6588 531.6157 Z"
           id="path135" />
      </clipPath>
      <clipPath
         clipPathUnits="userSpaceOnUse"
         id="clipPath46">
        <path
           d="M712.5689 519.5336 L728.7486 519.5336 L728.7486 534.8461 L712.5689 534.8461 L712.5689 519.5336 Z"
           id="path138" />
      </clipPath>
      <clipPath
         clipPathUnits="userSpaceOnUse"
         id="clipPath47">
        <path
           d="M416.7696 505.3657 L416.7696 526.3657 L427.7696 526.3657 L427.7696 505.3657 Z"
           id="path141" />
      </clipPath>
      <clipPath
         clipPathUnits="userSpaceOnUse"
         id="clipPath48">
        <path
           d="M416.2247 493.2836 L427.3145 493.2836 L427.3145 508.5961 L416.2247 508.5961 L416.2247 493.2836 Z"
           id="path144" />
      </clipPath>
      <clipPath
         clipPathUnits="userSpaceOnUse"
         id="clipPath49">
        <path
           d="M928.5347 510.2769 L928.5347 531.2769 L944.5347 531.2769 L944.5347 510.2769 Z"
           id="path147" />
      </clipPath>
      <clipPath
         clipPathUnits="userSpaceOnUse"
         id="clipPath50">
        <path
           d="M928.4449 498.1948 L944.6246 498.1948 L944.6246 513.5073 L928.4449 513.5073 L928.4449 498.1948 Z"
           id="path150" />
      </clipPath>
      <clipPath
         clipPathUnits="userSpaceOnUse"
         id="clipPath51">
        <path
           d="M742.8898 332.3056 L742.8898 358.3056 L833.8898 358.3056 L833.8898 332.3056 Z"
           id="path153" />
      </clipPath>
      <clipPath
         clipPathUnits="userSpaceOnUse"
         id="clipPath52">
        <path
           d="M319.6228 569.7608 L319.6228 595.7608 L410.6228 595.7608 L410.6228 569.7608 Z"
           id="path156" />
      </clipPath>
      <clipPath
         clipPathUnits="userSpaceOnUse"
         id="clipPath53">
        <path
           d="M546.4858 569.7608 L546.4858 595.7608 L637.4858 595.7608 L637.4858 569.7608 Z"
           id="path159" />
      </clipPath>
      <clipPath
         clipPathUnits="userSpaceOnUse"
         id="clipPath54">
        <path
           d="M465.112 489.1157 L465.112 515.1157 L556.1119 515.1157 L556.1119 489.1157 Z"
           id="path162" />
      </clipPath>
      <clipPath
         clipPathUnits="userSpaceOnUse"
         id="clipPath55">
        <path
           d="M617.9938 399.4059 L617.9938 425.4059 L708.9938 425.4059 L708.9938 399.4059 Z"
           id="path165" />
      </clipPath>
      <clipPath
         clipPathUnits="userSpaceOnUse"
         id="clipPath56">
        <path
           d="M319.6228 489.1157 L319.6228 515.1157 L410.6228 515.1157 L410.6228 489.1157 Z"
           id="path168" />
      </clipPath>
      <clipPath
         clipPathUnits="userSpaceOnUse"
         id="clipPath57">
        <path
           d="M821.8768 489.1157 L821.8768 515.1157 L912.8768 515.1157 L912.8768 489.1157 Z"
           id="path171" />
      </clipPath>
      <clipPath
         clipPathUnits="userSpaceOnUse"
         id="clipPath58">
        <path
           d="M617.9938 489.1157 L617.9938 515.1157 L708.9938 515.1157 L708.9938 489.1157 Z"
           id="path174" />
      </clipPath>
      <clipPath
         clipPathUnits="userSpaceOnUse"
         id="clipPath59">
        <path
           d="M498.2661 332.3056 L498.2661 358.3056 L589.2661 358.3056 L589.2661 332.3056 Z"
           id="path177" />
      </clipPath>
      <clipPath
         clipPathUnits="userSpaceOnUse"
         id="clipPath60">
        <path
           d="M517.5725 655.4944 L517.5725 695.4944 L809.4152 695.4944 L809.4152 655.4944 Z"
           id="path180" />
      </clipPath>
      <clipPath
         clipPathUnits="userSpaceOnUse"
         id="clipPath61">
        <path
           d="M720.5114 580.2227 L720.5114 620.2227 L1014.2422 620.2227 L1014.2422 580.2227 Z"
           id="path183" />
      </clipPath>
      <clipPath
         clipPathUnits="userSpaceOnUse"
         id="clipPath62">
        <path
           d="M80.0646 482.0862 L80.0646 522.0862 L262.8347 522.0862 L262.8347 482.0862 Z"
           id="path186" />
      </clipPath>
      <clipPath
         clipPathUnits="userSpaceOnUse"
         id="clipPath63">
        <path
           d="M909.8853 325.3056 L909.8853 365.3056 L1209.9188 365.3056 L1209.9188 325.3056 Z"
           id="path189" />
      </clipPath>
      <clipPath
         clipPathUnits="userSpaceOnUse"
         id="clipPath64">
        <path
           d="M220.7991 654.8296 L220.7991 694.8296 L509.4465 694.8296 L509.4465 654.8296 Z"
           id="path192" />
      </clipPath>
      <clipPath
         clipPathUnits="userSpaceOnUse"
         id="clipPath65">
        <path
           d="M578.3295 251.4185 L578.3295 291.4185 L748.6582 291.4185 L748.6582 251.4185 Z"
           id="path195" />
      </clipPath>
      <clipPath
         clipPathUnits="userSpaceOnUse"
         id="clipPath66">
        <path
           d="M162.0553 367.7383 L162.0553 407.7383 L457.971 407.7383 L457.971 367.7383 Z"
           id="path198" />
      </clipPath>
      <clipPath
         clipPathUnits="userSpaceOnUse"
         id="clipPath67">
        <path
           d="M261.1036 496.123 L261.1036 508.0618 L320.6231 508.0618 L320.6231 496.123 Z"
           id="path201" />
      </clipPath>
      <clipPath
         clipPathUnits="userSpaceOnUse"
         id="clipPath68">
        <path
           d="M377.7727 406.0072 L377.7727 490.1157 L488.612 490.1157 L488.612 406.0072 Z"
           id="path204" />
      </clipPath>
      <clipPath
         clipPathUnits="userSpaceOnUse"
         id="clipPath69">
        <path
           d="M657.5244 289.6874 L657.5244 400.4059 L669.4633 400.4059 L669.4633 289.6874 Z"
           id="path207" />
      </clipPath>
      <clipPath
         clipPathUnits="userSpaceOnUse"
         id="clipPath70">
        <path
           d="M832.8898 339.3362 L832.8898 351.275 L911.6165 351.275 L911.6165 339.3362 Z"
           id="path210" />
      </clipPath>
      <clipPath
         clipPathUnits="userSpaceOnUse"
         id="clipPath71">
        <path
           d="M657.5244 514.1157 L657.5244 657.2255 L669.4633 657.2255 L669.4633 514.1157 Z"
           id="path213" />
      </clipPath>
      <clipPath
         clipPathUnits="userSpaceOnUse"
         id="clipPath72">
        <path
           d="M861.4074 514.1157 L861.4074 581.9539 L873.3463 581.9539 L873.3463 514.1157 Z"
           id="path216" />
      </clipPath>
    </defs>
    <g
       style="fill:white; stroke:white;"
       id="g222">
      <rect
         x="0"
         width="1239"
         height="724"
         y="0"
         style="stroke:none;"
         id="rect220" />
    </g>
    <g
       style="font-weight:bold; font-size:10; text-rendering:geometricPrecision;"
       id="g232">
      <path
         d="M0.0469 6.7031 L6.7656 6.7031 L6.7656 8.125 L4.3438 8.125 L4.3438 14 L2.4688 14 L2.4688 8.125 L0.0469 8.125 L0.0469 6.7031 ZM7.665 8.5312 L9.415 8.5312 L9.415 14 L7.665 14 L7.665 8.5312 ZM7.665 6.4062 L9.415 6.4062 L9.415 7.8281 L7.665 7.8281 L7.665 6.4062 ZM12.999 6.9844 L12.999 8.5312 L14.7959 8.5312 L14.7959 9.7812 L12.999 9.7812 L12.999 12.0938 Q12.999 12.4844 13.1475 12.6172 Q13.2959 12.75 13.749 12.75 L14.6553 12.75 L14.6553 14 L13.1553 14 Q12.1084 14 11.6787 13.5703 Q11.249 13.1406 11.249 12.0938 L11.249 9.7812 L10.374 9.7812 L10.374 8.5312 L11.249 8.5312 L11.249 6.9844 L12.999 6.9844 ZM15.873 6.4062 L17.623 6.4062 L17.623 14 L15.873 14 L15.873 6.4062 ZM24.7539 11.25 L24.7539 11.75 L20.6758 11.75 Q20.7383 12.3594 21.1133 12.6719 Q21.4883 12.9844 22.1758 12.9844 Q22.7227 12.9844 23.3086 12.8203 Q23.8945 12.6562 24.5039 12.3125 L24.5039 13.6719 Q23.8789 13.9062 23.2617 14.0234 Q22.6445 14.1406 22.0195 14.1406 Q20.5352 14.1406 19.7148 13.3828 Q18.8945 12.625 18.8945 11.2656 Q18.8945 9.9375 19.6992 9.1719 Q20.5039 8.4062 21.9258 8.4062 Q23.207 8.4062 23.9805 9.1797 Q24.7539 9.9531 24.7539 11.25 ZM22.957 10.6719 Q22.957 10.1719 22.668 9.8672 Q22.3789 9.5625 21.9102 9.5625 Q21.3945 9.5625 21.082 9.8438 Q20.7695 10.125 20.6914 10.6719 L22.957 10.6719 ZM26.3643 8.5312 L28.1143 8.5312 L28.1143 10.4219 L26.3643 10.4219 L26.3643 8.5312 ZM26.3643 12.1094 L28.1143 12.1094 L28.1143 14 L26.3643 14 L26.3643 12.1094 Z"
         style="clip-path:url(#clipPath2); stroke:none;"
         clip-path="url(#clipPath2)"
         id="path224" />
      <path
         d="M43.3594 6.9531 L43.3594 7.9062 Q42.7969 7.6406 42.2969 7.5078 Q41.7969 7.375 41.3281 7.375 Q40.5312 7.375 40.0938 7.6875 Q39.6562 8 39.6562 8.5781 Q39.6562 9.0625 39.9453 9.3125 Q40.2344 9.5625 41.0469 9.7031 L41.6406 9.8281 Q42.7344 10.0469 43.2656 10.5703 Q43.7969 11.0938 43.7969 11.9844 Q43.7969 13.0469 43.0859 13.5938 Q42.375 14.1406 41 14.1406 Q40.4844 14.1406 39.8984 14.0234 Q39.3125 13.9062 38.6875 13.6719 L38.6875 12.6562 Q39.2969 13 39.8672 13.1719 Q40.4375 13.3438 41 13.3438 Q41.8438 13.3438 42.3047 13.0078 Q42.7656 12.6719 42.7656 12.0625 Q42.7656 11.5312 42.4375 11.2266 Q42.1094 10.9219 41.3438 10.7656 L40.75 10.6562 Q39.6406 10.4375 39.1484 9.9688 Q38.6562 9.5 38.6562 8.6562 Q38.6562 7.6875 39.3359 7.1328 Q40.0156 6.5781 41.2188 6.5781 Q41.7344 6.5781 42.2656 6.6719 Q42.7969 6.7656 43.3594 6.9531 ZM47.4102 9.1562 Q46.6914 9.1562 46.2695 9.7188 Q45.8477 10.2812 45.8477 11.2656 Q45.8477 12.25 46.2617 12.8125 Q46.6758 13.375 47.4102 13.375 Q48.1289 13.375 48.5508 12.8125 Q48.9727 12.25 48.9727 11.2656 Q48.9727 10.2969 48.5508 9.7266 Q48.1289 9.1562 47.4102 9.1562 ZM47.4102 8.4062 Q48.582 8.4062 49.2539 9.1641 Q49.9258 9.9219 49.9258 11.2656 Q49.9258 12.6094 49.2539 13.375 Q48.582 14.1406 47.4102 14.1406 Q46.2383 14.1406 45.5664 13.375 Q44.8945 12.6094 44.8945 11.2656 Q44.8945 9.9219 45.5664 9.1641 Q46.2383 8.4062 47.4102 8.4062 ZM55.6689 9.5781 Q55.9971 8.9688 56.4658 8.6875 Q56.9346 8.4062 57.5752 8.4062 Q58.4346 8.4062 58.8955 9 Q59.3564 9.5938 59.3564 10.7031 L59.3564 14 L58.4502 14 L58.4502 10.7344 Q58.4502 9.9375 58.1768 9.5625 Q57.9033 9.1875 57.3252 9.1875 Q56.6221 9.1875 56.2236 9.6484 Q55.8252 10.1094 55.8252 10.9062 L55.8252 14 L54.9189 14 L54.9189 10.7344 Q54.9189 9.9375 54.6377 9.5625 Q54.3564 9.1875 53.7783 9.1875 Q53.0908 9.1875 52.6846 9.6484 Q52.2783 10.1094 52.2783 10.9062 L52.2783 14 L51.3721 14 L51.3721 8.5312 L52.2783 8.5312 L52.2783 9.375 Q52.5908 8.875 53.0205 8.6406 Q53.4502 8.4062 54.0283 8.4062 Q54.6377 8.4062 55.0518 8.7031 Q55.4658 9 55.6689 9.5781 ZM61.1445 8.5312 L62.0508 8.5312 L62.0508 14 L61.1445 14 L61.1445 8.5312 ZM61.1445 6.4062 L62.0508 6.4062 L62.0508 7.5469 L61.1445 7.5469 L61.1445 6.4062 ZM64.8135 6.9844 L64.8135 8.5312 L66.6729 8.5312 L66.6729 9.2344 L64.8135 9.2344 L64.8135 12.2031 Q64.8135 12.8594 65.001 13.0547 Q65.1885 13.25 65.751 13.25 L66.6729 13.25 L66.6729 14 L65.751 14 Q64.7041 14 64.3057 13.6094 Q63.9072 13.2188 63.9072 12.2031 L63.9072 9.2344 L63.251 9.2344 L63.251 8.5312 L63.9072 8.5312 L63.9072 6.9844 L64.8135 6.9844 ZM69.9688 9.1562 Q69.25 9.1562 68.8281 9.7188 Q68.4062 10.2812 68.4062 11.2656 Q68.4062 12.25 68.8203 12.8125 Q69.2344 13.375 69.9688 13.375 Q70.6875 13.375 71.1094 12.8125 Q71.5312 12.25 71.5312 11.2656 Q71.5312 10.2969 71.1094 9.7266 Q70.6875 9.1562 69.9688 9.1562 ZM69.9688 8.4062 Q71.1406 8.4062 71.8125 9.1641 Q72.4844 9.9219 72.4844 11.2656 Q72.4844 12.6094 71.8125 13.375 Q71.1406 14.1406 69.9688 14.1406 Q68.7969 14.1406 68.125 13.375 Q67.4531 12.6094 67.4531 11.2656 Q67.4531 9.9219 68.125 9.1641 Q68.7969 8.4062 69.9688 8.4062 ZM77.5713 11.2031 Q77.5713 10.2188 77.165 9.6875 Q76.7588 9.1562 76.04 9.1562 Q75.3057 9.1562 74.9072 9.6875 Q74.5088 10.2188 74.5088 11.2031 Q74.5088 12.1719 74.9072 12.7109 Q75.3057 13.25 76.04 13.25 Q76.7588 13.25 77.165 12.7109 Q77.5713 12.1719 77.5713 11.2031 ZM78.4619 13.3281 Q78.4619 14.7188 77.8447 15.3984 Q77.2275 16.0781 75.9463 16.0781 Q75.4775 16.0781 75.0557 16.0078 Q74.6338 15.9375 74.2432 15.7969 L74.2432 14.9219 Q74.6338 15.1406 75.0166 15.2422 Q75.3994 15.3438 75.8057 15.3438 Q76.6807 15.3438 77.126 14.8828 Q77.5713 14.4219 77.5713 13.4844 L77.5713 13.0312 Q77.29 13.5156 76.8525 13.7578 Q76.415 14 75.8057 14 Q74.8057 14 74.1885 13.2344 Q73.5713 12.4688 73.5713 11.2031 Q73.5713 9.9375 74.1885 9.1719 Q74.8057 8.4062 75.8057 8.4062 Q76.415 8.4062 76.8525 8.6406 Q77.29 8.875 77.5713 9.3594 L77.5713 8.5312 L78.4619 8.5312 L78.4619 13.3281 ZM84.9971 11.0469 L84.9971 11.4844 L80.8564 11.4844 Q80.9189 12.4062 81.4189 12.8906 Q81.9189 13.375 82.8096 13.375 Q83.3252 13.375 83.8174 13.25 Q84.3096 13.125 84.7783 12.875 L84.7783 13.7188 Q84.2939 13.9219 83.7861 14.0312 Q83.2783 14.1406 82.7627 14.1406 Q81.4502 14.1406 80.6846 13.3828 Q79.9189 12.625 79.9189 11.3125 Q79.9189 9.9688 80.6455 9.1875 Q81.3721 8.4062 82.6064 8.4062 Q83.7158 8.4062 84.3564 9.1094 Q84.9971 9.8125 84.9971 11.0469 ZM84.0908 10.7812 Q84.0908 10.0469 83.6846 9.6016 Q83.2783 9.1562 82.6221 9.1562 Q81.8564 9.1562 81.4111 9.5859 Q80.9658 10.0156 80.8877 10.7812 L84.0908 10.7812 ZM91.0088 10.7031 L91.0088 14 L90.1182 14 L90.1182 10.7344 Q90.1182 9.9531 89.8135 9.5703 Q89.5088 9.1875 88.8994 9.1875 Q88.1807 9.1875 87.7588 9.6484 Q87.3369 10.1094 87.3369 10.9062 L87.3369 14 L86.4307 14 L86.4307 8.5312 L87.3369 8.5312 L87.3369 9.375 Q87.665 8.8906 88.1025 8.6484 Q88.54 8.4062 89.1025 8.4062 Q90.04 8.4062 90.5244 8.9844 Q91.0088 9.5625 91.0088 10.7031 ZM97.4873 11.0469 L97.4873 11.4844 L93.3467 11.4844 Q93.4092 12.4062 93.9092 12.8906 Q94.4092 13.375 95.2998 13.375 Q95.8154 13.375 96.3076 13.25 Q96.7998 13.125 97.2686 12.875 L97.2686 13.7188 Q96.7842 13.9219 96.2764 14.0312 Q95.7686 14.1406 95.2529 14.1406 Q93.9404 14.1406 93.1748 13.3828 Q92.4092 12.625 92.4092 11.3125 Q92.4092 9.9688 93.1357 9.1875 Q93.8623 8.4062 95.0967 8.4062 Q96.2061 8.4062 96.8467 9.1094 Q97.4873 9.8125 97.4873 11.0469 ZM96.5811 10.7812 Q96.5811 10.0469 96.1748 9.6016 Q95.7686 9.1562 95.1123 9.1562 Q94.3467 9.1562 93.9014 9.5859 Q93.4561 10.0156 93.3779 10.7812 L96.5811 10.7812 ZM102.4365 8.6875 L102.4365 9.5469 Q102.0615 9.3438 101.6553 9.25 Q101.249 9.1562 100.7959 9.1562 Q100.1396 9.1562 99.8037 9.3594 Q99.4678 9.5625 99.4678 9.9688 Q99.4678 10.2812 99.7021 10.4609 Q99.9365 10.6406 100.6709 10.7969 L100.9678 10.875 Q101.9365 11.0781 102.335 11.4531 Q102.7334 11.8281 102.7334 12.4844 Q102.7334 13.25 102.1318 13.6953 Q101.5303 14.1406 100.4834 14.1406 Q100.0303 14.1406 99.5537 14.0547 Q99.0771 13.9688 98.5615 13.7969 L98.5615 12.875 Q99.0615 13.125 99.5381 13.2578 Q100.0146 13.3906 100.499 13.3906 Q101.124 13.3906 101.4678 13.1719 Q101.8115 12.9531 101.8115 12.5625 Q101.8115 12.1875 101.5693 11.9922 Q101.3271 11.7969 100.4834 11.625 L100.1709 11.5469 Q99.3428 11.375 98.9678 11.0078 Q98.5928 10.6406 98.5928 10.0156 Q98.5928 9.2344 99.1396 8.8203 Q99.6865 8.4062 100.7021 8.4062 Q101.1865 8.4062 101.6318 8.4766 Q102.0771 8.5469 102.4365 8.6875 ZM104.1621 8.5312 L105.0684 8.5312 L105.0684 14 L104.1621 14 L104.1621 8.5312 ZM104.1621 6.4062 L105.0684 6.4062 L105.0684 7.5469 L104.1621 7.5469 L104.1621 6.4062 ZM110.4248 8.6875 L110.4248 9.5469 Q110.0498 9.3438 109.6436 9.25 Q109.2373 9.1562 108.7842 9.1562 Q108.1279 9.1562 107.792 9.3594 Q107.4561 9.5625 107.4561 9.9688 Q107.4561 10.2812 107.6904 10.4609 Q107.9248 10.6406 108.6592 10.7969 L108.9561 10.875 Q109.9248 11.0781 110.3232 11.4531 Q110.7217 11.8281 110.7217 12.4844 Q110.7217 13.25 110.1201 13.6953 Q109.5186 14.1406 108.4717 14.1406 Q108.0186 14.1406 107.542 14.0547 Q107.0654 13.9688 106.5498 13.7969 L106.5498 12.875 Q107.0498 13.125 107.5264 13.2578 Q108.0029 13.3906 108.4873 13.3906 Q109.1123 13.3906 109.4561 13.1719 Q109.7998 12.9531 109.7998 12.5625 Q109.7998 12.1875 109.5576 11.9922 Q109.3154 11.7969 108.4717 11.625 L108.1592 11.5469 Q107.3311 11.375 106.9561 11.0078 Q106.5811 10.6406 106.5811 10.0156 Q106.5811 9.2344 107.1279 8.8203 Q107.6748 8.4062 108.6904 8.4062 Q109.1748 8.4062 109.6201 8.4766 Q110.0654 8.5469 110.4248 8.6875 ZM115.3291 8.5312 L116.2354 8.5312 L116.2354 14 L115.3291 14 L115.3291 8.5312 ZM115.3291 6.4062 L116.2354 6.4062 L116.2354 7.5469 L115.3291 7.5469 L115.3291 6.4062 ZM122.6543 10.7031 L122.6543 14 L121.7637 14 L121.7637 10.7344 Q121.7637 9.9531 121.459 9.5703 Q121.1543 9.1875 120.5449 9.1875 Q119.8262 9.1875 119.4043 9.6484 Q118.9824 10.1094 118.9824 10.9062 L118.9824 14 L118.0762 14 L118.0762 8.5312 L118.9824 8.5312 L118.9824 9.375 Q119.3105 8.8906 119.748 8.6484 Q120.1855 8.4062 120.748 8.4062 Q121.6855 8.4062 122.1699 8.9844 Q122.6543 9.5625 122.6543 10.7031 ZM128.5146 6.9844 L128.5146 8.5312 L130.374 8.5312 L130.374 9.2344 L128.5146 9.2344 L128.5146 12.2031 Q128.5146 12.8594 128.7021 13.0547 Q128.8896 13.25 129.4521 13.25 L130.374 13.25 L130.374 14 L129.4521 14 Q128.4053 14 128.0068 13.6094 Q127.6084 13.2188 127.6084 12.2031 L127.6084 9.2344 L126.9521 9.2344 L126.9521 8.5312 L127.6084 8.5312 L127.6084 6.9844 L128.5146 6.9844 ZM136.0918 10.7031 L136.0918 14 L135.2012 14 L135.2012 10.7344 Q135.2012 9.9531 134.8965 9.5703 Q134.5918 9.1875 133.9824 9.1875 Q133.2637 9.1875 132.8418 9.6484 Q132.4199 10.1094 132.4199 10.9062 L132.4199 14 L131.5137 14 L131.5137 6.4062 L132.4199 6.4062 L132.4199 9.375 Q132.748 8.8906 133.1855 8.6484 Q133.623 8.4062 134.1855 8.4062 Q135.123 8.4062 135.6074 8.9844 Q136.0918 9.5625 136.0918 10.7031 ZM142.5703 11.0469 L142.5703 11.4844 L138.4297 11.4844 Q138.4922 12.4062 138.9922 12.8906 Q139.4922 13.375 140.3828 13.375 Q140.8984 13.375 141.3906 13.25 Q141.8828 13.125 142.3516 12.875 L142.3516 13.7188 Q141.8672 13.9219 141.3594 14.0312 Q140.8516 14.1406 140.3359 14.1406 Q139.0234 14.1406 138.2578 13.3828 Q137.4922 12.625 137.4922 11.3125 Q137.4922 9.9688 138.2188 9.1875 Q138.9453 8.4062 140.1797 8.4062 Q141.2891 8.4062 141.9297 9.1094 Q142.5703 9.8125 142.5703 11.0469 ZM141.6641 10.7812 Q141.6641 10.0469 141.2578 9.6016 Q140.8516 9.1562 140.1953 9.1562 Q139.4297 9.1562 138.9844 9.5859 Q138.5391 10.0156 138.4609 10.7812 L141.6641 10.7812 ZM151.1514 8.7344 L151.1514 9.5781 Q150.7764 9.375 150.3936 9.2656 Q150.0107 9.1562 149.6201 9.1562 Q148.7451 9.1562 148.2607 9.7109 Q147.7764 10.2656 147.7764 11.2656 Q147.7764 12.2656 148.2607 12.8203 Q148.7451 13.375 149.6201 13.375 Q150.0107 13.375 150.3936 13.2734 Q150.7764 13.1719 151.1514 12.9531 L151.1514 13.7969 Q150.7764 13.9688 150.3779 14.0547 Q149.9795 14.1406 149.5264 14.1406 Q148.2764 14.1406 147.5498 13.3672 Q146.8232 12.5938 146.8232 11.2656 Q146.8232 9.9375 147.5576 9.1719 Q148.292 8.4062 149.5732 8.4062 Q149.9951 8.4062 150.3857 8.4844 Q150.7764 8.5625 151.1514 8.7344 ZM154.8369 9.1562 Q154.1182 9.1562 153.6963 9.7188 Q153.2744 10.2812 153.2744 11.2656 Q153.2744 12.25 153.6885 12.8125 Q154.1025 13.375 154.8369 13.375 Q155.5557 13.375 155.9775 12.8125 Q156.3994 12.25 156.3994 11.2656 Q156.3994 10.2969 155.9775 9.7266 Q155.5557 9.1562 154.8369 9.1562 ZM154.8369 8.4062 Q156.0088 8.4062 156.6807 9.1641 Q157.3525 9.9219 157.3525 11.2656 Q157.3525 12.6094 156.6807 13.375 Q156.0088 14.1406 154.8369 14.1406 Q153.665 14.1406 152.9932 13.375 Q152.3213 12.6094 152.3213 11.2656 Q152.3213 9.9219 152.9932 9.1641 Q153.665 8.4062 154.8369 8.4062 ZM163.377 10.7031 L163.377 14 L162.4863 14 L162.4863 10.7344 Q162.4863 9.9531 162.1816 9.5703 Q161.877 9.1875 161.2676 9.1875 Q160.5488 9.1875 160.127 9.6484 Q159.7051 10.1094 159.7051 10.9062 L159.7051 14 L158.7988 14 L158.7988 8.5312 L159.7051 8.5312 L159.7051 9.375 Q160.0332 8.8906 160.4707 8.6484 Q160.9082 8.4062 161.4707 8.4062 Q162.4082 8.4062 162.8926 8.9844 Q163.377 9.5625 163.377 10.7031 ZM166.0586 6.9844 L166.0586 8.5312 L167.918 8.5312 L167.918 9.2344 L166.0586 9.2344 L166.0586 12.2031 Q166.0586 12.8594 166.2461 13.0547 Q166.4336 13.25 166.9961 13.25 L167.918 13.25 L167.918 14 L166.9961 14 Q165.9492 14 165.5508 13.6094 Q165.1523 13.2188 165.1523 12.2031 L165.1523 9.2344 L164.4961 9.2344 L164.4961 8.5312 L165.1523 8.5312 L165.1523 6.9844 L166.0586 6.9844 ZM173.7764 11.0469 L173.7764 11.4844 L169.6357 11.4844 Q169.6982 12.4062 170.1982 12.8906 Q170.6982 13.375 171.5889 13.375 Q172.1045 13.375 172.5967 13.25 Q173.0889 13.125 173.5576 12.875 L173.5576 13.7188 Q173.0732 13.9219 172.5654 14.0312 Q172.0576 14.1406 171.542 14.1406 Q170.2295 14.1406 169.4639 13.3828 Q168.6982 12.625 168.6982 11.3125 Q168.6982 9.9688 169.4248 9.1875 Q170.1514 8.4062 171.3857 8.4062 Q172.4951 8.4062 173.1357 9.1094 Q173.7764 9.8125 173.7764 11.0469 ZM172.8701 10.7812 Q172.8701 10.0469 172.4639 9.6016 Q172.0576 9.1562 171.4014 9.1562 Q170.6357 9.1562 170.1904 9.5859 Q169.7451 10.0156 169.667 10.7812 L172.8701 10.7812 ZM179.7881 8.5312 L177.8193 11.1875 L179.8975 14 L178.835 14 L177.2412 11.8438 L175.6475 14 L174.585 14 L176.71 11.1406 L174.7725 8.5312 L175.835 8.5312 L177.2881 10.4844 L178.7256 8.5312 L179.7881 8.5312 ZM182.0498 6.9844 L182.0498 8.5312 L183.9092 8.5312 L183.9092 9.2344 L182.0498 9.2344 L182.0498 12.2031 Q182.0498 12.8594 182.2373 13.0547 Q182.4248 13.25 182.9873 13.25 L183.9092 13.25 L183.9092 14 L182.9873 14 Q181.9404 14 181.542 13.6094 Q181.1436 13.2188 181.1436 12.2031 L181.1436 9.2344 L180.4873 9.2344 L180.4873 8.5312 L181.1436 8.5312 L181.1436 6.9844 L182.0498 6.9844 ZM190.3838 9.1562 Q189.665 9.1562 189.2432 9.7188 Q188.8213 10.2812 188.8213 11.2656 Q188.8213 12.25 189.2354 12.8125 Q189.6494 13.375 190.3838 13.375 Q191.1025 13.375 191.5244 12.8125 Q191.9463 12.25 191.9463 11.2656 Q191.9463 10.2969 191.5244 9.7266 Q191.1025 9.1562 190.3838 9.1562 ZM190.3838 8.4062 Q191.5557 8.4062 192.2275 9.1641 Q192.8994 9.9219 192.8994 11.2656 Q192.8994 12.6094 192.2275 13.375 Q191.5557 14.1406 190.3838 14.1406 Q189.2119 14.1406 188.54 13.375 Q187.8682 12.6094 187.8682 11.2656 Q187.8682 9.9219 188.54 9.1641 Q189.2119 8.4062 190.3838 8.4062 ZM197.1582 6.4062 L197.1582 7.1562 L196.2988 7.1562 Q195.8145 7.1562 195.627 7.3516 Q195.4395 7.5469 195.4395 8.0469 L195.4395 8.5312 L196.9082 8.5312 L196.9082 9.2344 L195.4395 9.2344 L195.4395 14 L194.5332 14 L194.5332 9.2344 L193.6738 9.2344 L193.6738 8.5312 L194.5332 8.5312 L194.5332 8.1562 Q194.5332 7.2344 194.9551 6.8203 Q195.377 6.4062 196.2988 6.4062 L197.1582 6.4062 ZM204.5605 8.6875 L204.5605 9.5469 Q204.1855 9.3438 203.7793 9.25 Q203.373 9.1562 202.9199 9.1562 Q202.2637 9.1562 201.9277 9.3594 Q201.5918 9.5625 201.5918 9.9688 Q201.5918 10.2812 201.8262 10.4609 Q202.0605 10.6406 202.7949 10.7969 L203.0918 10.875 Q204.0605 11.0781 204.459 11.4531 Q204.8574 11.8281 204.8574 12.4844 Q204.8574 13.25 204.2559 13.6953 Q203.6543 14.1406 202.6074 14.1406 Q202.1543 14.1406 201.6777 14.0547 Q201.2012 13.9688 200.6855 13.7969 L200.6855 12.875 Q201.1855 13.125 201.6621 13.2578 Q202.1387 13.3906 202.623 13.3906 Q203.248 13.3906 203.5918 13.1719 Q203.9355 12.9531 203.9355 12.5625 Q203.9355 12.1875 203.6934 11.9922 Q203.4512 11.7969 202.6074 11.625 L202.2949 11.5469 Q201.4668 11.375 201.0918 11.0078 Q200.7168 10.6406 200.7168 10.0156 Q200.7168 9.2344 201.2637 8.8203 Q201.8105 8.4062 202.8262 8.4062 Q203.3105 8.4062 203.7559 8.4766 Q204.2012 8.5469 204.5605 8.6875 ZM207.1611 13.1719 L207.1611 16.0781 L206.2549 16.0781 L206.2549 8.5312 L207.1611 8.5312 L207.1611 9.3594 Q207.4424 8.875 207.8721 8.6406 Q208.3018 8.4062 208.9111 8.4062 Q209.9111 8.4062 210.5283 9.1953 Q211.1455 9.9844 211.1455 11.2656 Q211.1455 12.5625 210.5283 13.3516 Q209.9111 14.1406 208.9111 14.1406 Q208.3018 14.1406 207.8721 13.9062 Q207.4424 13.6719 207.1611 13.1719 ZM210.2236 11.2656 Q210.2236 10.2812 209.8096 9.7188 Q209.3955 9.1562 208.6924 9.1562 Q207.9736 9.1562 207.5674 9.7188 Q207.1611 10.2812 207.1611 11.2656 Q207.1611 12.2656 207.5674 12.8281 Q207.9736 13.3906 208.6924 13.3906 Q209.3955 13.3906 209.8096 12.8281 Q210.2236 12.2656 210.2236 11.2656 ZM214.7588 9.1562 Q214.04 9.1562 213.6182 9.7188 Q213.1963 10.2812 213.1963 11.2656 Q213.1963 12.25 213.6104 12.8125 Q214.0244 13.375 214.7588 13.375 Q215.4775 13.375 215.8994 12.8125 Q216.3213 12.25 216.3213 11.2656 Q216.3213 10.2969 215.8994 9.7266 Q215.4775 9.1562 214.7588 9.1562 ZM214.7588 8.4062 Q215.9307 8.4062 216.6025 9.1641 Q217.2744 9.9219 217.2744 11.2656 Q217.2744 12.6094 216.6025 13.375 Q215.9307 14.1406 214.7588 14.1406 Q213.5869 14.1406 212.915 13.375 Q212.2432 12.6094 212.2432 11.2656 Q212.2432 9.9219 212.915 9.1641 Q213.5869 8.4062 214.7588 8.4062 ZM223.2988 10.7031 L223.2988 14 L222.4082 14 L222.4082 10.7344 Q222.4082 9.9531 222.1035 9.5703 Q221.7988 9.1875 221.1895 9.1875 Q220.4707 9.1875 220.0488 9.6484 Q219.627 10.1094 219.627 10.9062 L219.627 14 L218.7207 14 L218.7207 8.5312 L219.627 8.5312 L219.627 9.375 Q219.9551 8.8906 220.3926 8.6484 Q220.8301 8.4062 221.3926 8.4062 Q222.3301 8.4062 222.8145 8.9844 Q223.2988 9.5625 223.2988 10.7031 ZM228.6992 9.3594 L228.6992 6.4062 L229.5898 6.4062 L229.5898 14 L228.6992 14 L228.6992 13.1719 Q228.418 13.6719 227.9805 13.9062 Q227.543 14.1406 226.9336 14.1406 Q225.9492 14.1406 225.3242 13.3516 Q224.6992 12.5625 224.6992 11.2656 Q224.6992 9.9844 225.3242 9.1953 Q225.9492 8.4062 226.9336 8.4062 Q227.543 8.4062 227.9805 8.6406 Q228.418 8.875 228.6992 9.3594 ZM225.6367 11.2656 Q225.6367 12.2656 226.043 12.8281 Q226.4492 13.3906 227.168 13.3906 Q227.8711 13.3906 228.2852 12.8281 Q228.6992 12.2656 228.6992 11.2656 Q228.6992 10.2812 228.2852 9.7188 Q227.8711 9.1562 227.168 9.1562 Q226.4492 9.1562 226.043 9.7188 Q225.6367 10.2812 225.6367 11.2656 ZM233.7188 14.5156 Q233.3438 15.4844 232.9766 15.7812 Q232.6094 16.0781 232.0156 16.0781 L231.2969 16.0781 L231.2969 15.3281 L231.8125 15.3281 Q232.1875 15.3281 232.3906 15.1562 Q232.5938 14.9844 232.8438 14.3281 L233.0156 13.9062 L230.7969 8.5312 L231.75 8.5312 L233.4531 12.8125 L235.1719 8.5312 L236.125 8.5312 L233.7188 14.5156 ZM237.3555 6.4062 L238.2617 6.4062 L238.2617 14 L237.3555 14 L237.3555 6.4062 ZM242.2588 9.1562 Q241.54 9.1562 241.1182 9.7188 Q240.6963 10.2812 240.6963 11.2656 Q240.6963 12.25 241.1104 12.8125 Q241.5244 13.375 242.2588 13.375 Q242.9775 13.375 243.3994 12.8125 Q243.8213 12.25 243.8213 11.2656 Q243.8213 10.2969 243.3994 9.7266 Q242.9775 9.1562 242.2588 9.1562 ZM242.2588 8.4062 Q243.4307 8.4062 244.1025 9.1641 Q244.7744 9.9219 244.7744 11.2656 Q244.7744 12.6094 244.1025 13.375 Q243.4307 14.1406 242.2588 14.1406 Q241.0869 14.1406 240.415 13.375 Q239.7432 12.6094 239.7432 11.2656 Q239.7432 9.9219 240.415 9.1641 Q241.0869 8.4062 242.2588 8.4062 ZM250.1895 8.7344 L250.1895 9.5781 Q249.8145 9.375 249.4316 9.2656 Q249.0488 9.1562 248.6582 9.1562 Q247.7832 9.1562 247.2988 9.7109 Q246.8145 10.2656 246.8145 11.2656 Q246.8145 12.2656 247.2988 12.8203 Q247.7832 13.375 248.6582 13.375 Q249.0488 13.375 249.4316 13.2734 Q249.8145 13.1719 250.1895 12.9531 L250.1895 13.7969 Q249.8145 13.9688 249.416 14.0547 Q249.0176 14.1406 248.5645 14.1406 Q247.3145 14.1406 246.5879 13.3672 Q245.8613 12.5938 245.8613 11.2656 Q245.8613 9.9375 246.5957 9.1719 Q247.3301 8.4062 248.6113 8.4062 Q249.0332 8.4062 249.4238 8.4844 Q249.8145 8.5625 250.1895 8.7344 ZM253.875 9.1562 Q253.1562 9.1562 252.7344 9.7188 Q252.3125 10.2812 252.3125 11.2656 Q252.3125 12.25 252.7266 12.8125 Q253.1406 13.375 253.875 13.375 Q254.5938 13.375 255.0156 12.8125 Q255.4375 12.25 255.4375 11.2656 Q255.4375 10.2969 255.0156 9.7266 Q254.5938 9.1562 253.875 9.1562 ZM253.875 8.4062 Q255.0469 8.4062 255.7188 9.1641 Q256.3906 9.9219 256.3906 11.2656 Q256.3906 12.6094 255.7188 13.375 Q255.0469 14.1406 253.875 14.1406 Q252.7031 14.1406 252.0312 13.375 Q251.3594 12.6094 251.3594 11.2656 Q251.3594 9.9219 252.0312 9.1641 Q252.7031 8.4062 253.875 8.4062 ZM261.3525 8.6875 L261.3525 9.5469 Q260.9775 9.3438 260.5713 9.25 Q260.165 9.1562 259.7119 9.1562 Q259.0557 9.1562 258.7197 9.3594 Q258.3838 9.5625 258.3838 9.9688 Q258.3838 10.2812 258.6182 10.4609 Q258.8525 10.6406 259.5869 10.7969 L259.8838 10.875 Q260.8525 11.0781 261.251 11.4531 Q261.6494 11.8281 261.6494 12.4844 Q261.6494 13.25 261.0479 13.6953 Q260.4463 14.1406 259.3994 14.1406 Q258.9463 14.1406 258.4697 14.0547 Q257.9932 13.9688 257.4775 13.7969 L257.4775 12.875 Q257.9775 13.125 258.4541 13.2578 Q258.9307 13.3906 259.415 13.3906 Q260.04 13.3906 260.3838 13.1719 Q260.7275 12.9531 260.7275 12.5625 Q260.7275 12.1875 260.4854 11.9922 Q260.2432 11.7969 259.3994 11.625 L259.0869 11.5469 Q258.2588 11.375 257.8838 11.0078 Q257.5088 10.6406 257.5088 10.0156 Q257.5088 9.2344 258.0557 8.8203 Q258.6025 8.4062 259.6182 8.4062 Q260.1025 8.4062 260.5479 8.4766 Q260.9932 8.5469 261.3525 8.6875 ZM263.9688 6.9844 L263.9688 8.5312 L265.8281 8.5312 L265.8281 9.2344 L263.9688 9.2344 L263.9688 12.2031 Q263.9688 12.8594 264.1562 13.0547 Q264.3438 13.25 264.9062 13.25 L265.8281 13.25 L265.8281 14 L264.9062 14 Q263.8594 14 263.4609 13.6094 Q263.0625 13.2188 263.0625 12.2031 L263.0625 9.2344 L262.4062 9.2344 L262.4062 8.5312 L263.0625 8.5312 L263.0625 6.9844 L263.9688 6.9844 ZM269.4834 11.25 Q268.4053 11.25 267.9834 11.5 Q267.5615 11.75 267.5615 12.3438 Q267.5615 12.8281 267.874 13.1094 Q268.1865 13.3906 268.7334 13.3906 Q269.4834 13.3906 269.9365 12.8594 Q270.3896 12.3281 270.3896 11.4531 L270.3896 11.25 L269.4834 11.25 ZM271.2803 10.875 L271.2803 14 L270.3896 14 L270.3896 13.1719 Q270.0771 13.6719 269.6162 13.9062 Q269.1553 14.1406 268.499 14.1406 Q267.6553 14.1406 267.1553 13.6719 Q266.6553 13.2031 266.6553 12.4062 Q266.6553 11.4844 267.2803 11.0156 Q267.9053 10.5469 269.124 10.5469 L270.3896 10.5469 L270.3896 10.4531 Q270.3896 9.8438 269.9756 9.5 Q269.5615 9.1562 268.8271 9.1562 Q268.3584 9.1562 267.9131 9.2734 Q267.4678 9.3906 267.0615 9.6094 L267.0615 8.7812 Q267.5615 8.5938 268.0225 8.5 Q268.4834 8.4062 268.9209 8.4062 Q270.1084 8.4062 270.6943 9.0156 Q271.2803 9.625 271.2803 10.875 ZM273.127 6.4062 L274.0332 6.4062 L274.0332 14 L273.127 14 L273.127 6.4062 ZM282.6934 9.3594 L282.6934 6.4062 L283.584 6.4062 L283.584 14 L282.6934 14 L282.6934 13.1719 Q282.4121 13.6719 281.9746 13.9062 Q281.5371 14.1406 280.9277 14.1406 Q279.9434 14.1406 279.3184 13.3516 Q278.6934 12.5625 278.6934 11.2656 Q278.6934 9.9844 279.3184 9.1953 Q279.9434 8.4062 280.9277 8.4062 Q281.5371 8.4062 281.9746 8.6406 Q282.4121 8.875 282.6934 9.3594 ZM279.6309 11.2656 Q279.6309 12.2656 280.0371 12.8281 Q280.4434 13.3906 281.1621 13.3906 Q281.8652 13.3906 282.2793 12.8281 Q282.6934 12.2656 282.6934 11.2656 Q282.6934 10.2812 282.2793 9.7188 Q281.8652 9.1562 281.1621 9.1562 Q280.4434 9.1562 280.0371 9.7188 Q279.6309 10.2812 279.6309 11.2656 ZM287.7129 14.5156 Q287.3379 15.4844 286.9707 15.7812 Q286.6035 16.0781 286.0098 16.0781 L285.291 16.0781 L285.291 15.3281 L285.8066 15.3281 Q286.1816 15.3281 286.3848 15.1562 Q286.5879 14.9844 286.8379 14.3281 L287.0098 13.9062 L284.791 8.5312 L285.7441 8.5312 L287.4473 12.8125 L289.166 8.5312 L290.1191 8.5312 L287.7129 14.5156 ZM294.834 8.6875 L294.834 9.5469 Q294.459 9.3438 294.0527 9.25 Q293.6465 9.1562 293.1934 9.1562 Q292.5371 9.1562 292.2012 9.3594 Q291.8652 9.5625 291.8652 9.9688 Q291.8652 10.2812 292.0996 10.4609 Q292.334 10.6406 293.0684 10.7969 L293.3652 10.875 Q294.334 11.0781 294.7324 11.4531 Q295.1309 11.8281 295.1309 12.4844 Q295.1309 13.25 294.5293 13.6953 Q293.9277 14.1406 292.8809 14.1406 Q292.4277 14.1406 291.9512 14.0547 Q291.4746 13.9688 290.959 13.7969 L290.959 12.875 Q291.459 13.125 291.9355 13.2578 Q292.4121 13.3906 292.8965 13.3906 Q293.5215 13.3906 293.8652 13.1719 Q294.209 12.9531 294.209 12.5625 Q294.209 12.1875 293.9668 11.9922 Q293.7246 11.7969 292.8809 11.625 L292.5684 11.5469 Q291.7402 11.375 291.3652 11.0078 Q290.9902 10.6406 290.9902 10.0156 Q290.9902 9.2344 291.5371 8.8203 Q292.084 8.4062 293.0996 8.4062 Q293.584 8.4062 294.0293 8.4766 Q294.4746 8.5469 294.834 8.6875 ZM298.6846 9.1562 Q297.9658 9.1562 297.5439 9.7188 Q297.1221 10.2812 297.1221 11.2656 Q297.1221 12.25 297.5361 12.8125 Q297.9502 13.375 298.6846 13.375 Q299.4033 13.375 299.8252 12.8125 Q300.2471 12.25 300.2471 11.2656 Q300.2471 10.2969 299.8252 9.7266 Q299.4033 9.1562 298.6846 9.1562 ZM298.6846 8.4062 Q299.8564 8.4062 300.5283 9.1641 Q301.2002 9.9219 301.2002 11.2656 Q301.2002 12.6094 300.5283 13.375 Q299.8564 14.1406 298.6846 14.1406 Q297.5127 14.1406 296.8408 13.375 Q296.1689 12.6094 296.1689 11.2656 Q296.1689 9.9219 296.8408 9.1641 Q297.5127 8.4062 298.6846 8.4062 ZM306.1621 8.6875 L306.1621 9.5469 Q305.7871 9.3438 305.3809 9.25 Q304.9746 9.1562 304.5215 9.1562 Q303.8652 9.1562 303.5293 9.3594 Q303.1934 9.5625 303.1934 9.9688 Q303.1934 10.2812 303.4277 10.4609 Q303.6621 10.6406 304.3965 10.7969 L304.6934 10.875 Q305.6621 11.0781 306.0605 11.4531 Q306.459 11.8281 306.459 12.4844 Q306.459 13.25 305.8574 13.6953 Q305.2559 14.1406 304.209 14.1406 Q303.7559 14.1406 303.2793 14.0547 Q302.8027 13.9688 302.2871 13.7969 L302.2871 12.875 Q302.7871 13.125 303.2637 13.2578 Q303.7402 13.3906 304.2246 13.3906 Q304.8496 13.3906 305.1934 13.1719 Q305.5371 12.9531 305.5371 12.5625 Q305.5371 12.1875 305.2949 11.9922 Q305.0527 11.7969 304.209 11.625 L303.8965 11.5469 Q303.0684 11.375 302.6934 11.0078 Q302.3184 10.6406 302.3184 10.0156 Q302.3184 9.2344 302.8652 8.8203 Q303.4121 8.4062 304.4277 8.4062 Q304.9121 8.4062 305.3574 8.4766 Q305.8027 8.5469 306.1621 8.6875 ZM308.7783 6.9844 L308.7783 8.5312 L310.6377 8.5312 L310.6377 9.2344 L308.7783 9.2344 L308.7783 12.2031 Q308.7783 12.8594 308.9658 13.0547 Q309.1533 13.25 309.7158 13.25 L310.6377 13.25 L310.6377 14 L309.7158 14 Q308.6689 14 308.2705 13.6094 Q307.8721 13.2188 307.8721 12.2031 L307.8721 9.2344 L307.2158 9.2344 L307.2158 8.5312 L307.8721 8.5312 L307.8721 6.9844 L308.7783 6.9844 ZM313.9336 9.1562 Q313.2148 9.1562 312.793 9.7188 Q312.3711 10.2812 312.3711 11.2656 Q312.3711 12.25 312.7852 12.8125 Q313.1992 13.375 313.9336 13.375 Q314.6523 13.375 315.0742 12.8125 Q315.4961 12.25 315.4961 11.2656 Q315.4961 10.2969 315.0742 9.7266 Q314.6523 9.1562 313.9336 9.1562 ZM313.9336 8.4062 Q315.1055 8.4062 315.7773 9.1641 Q316.4492 9.9219 316.4492 11.2656 Q316.4492 12.6094 315.7773 13.375 Q315.1055 14.1406 313.9336 14.1406 Q312.7617 14.1406 312.0898 13.375 Q311.418 12.6094 311.418 11.2656 Q311.418 9.9219 312.0898 9.1641 Q312.7617 8.4062 313.9336 8.4062 ZM321.4111 8.6875 L321.4111 9.5469 Q321.0361 9.3438 320.6299 9.25 Q320.2236 9.1562 319.7705 9.1562 Q319.1143 9.1562 318.7783 9.3594 Q318.4424 9.5625 318.4424 9.9688 Q318.4424 10.2812 318.6768 10.4609 Q318.9111 10.6406 319.6455 10.7969 L319.9424 10.875 Q320.9111 11.0781 321.3096 11.4531 Q321.708 11.8281 321.708 12.4844 Q321.708 13.25 321.1064 13.6953 Q320.5049 14.1406 319.458 14.1406 Q319.0049 14.1406 318.5283 14.0547 Q318.0518 13.9688 317.5361 13.7969 L317.5361 12.875 Q318.0361 13.125 318.5127 13.2578 Q318.9893 13.3906 319.4736 13.3906 Q320.0986 13.3906 320.4424 13.1719 Q320.7861 12.9531 320.7861 12.5625 Q320.7861 12.1875 320.5439 11.9922 Q320.3018 11.7969 319.458 11.625 L319.1455 11.5469 Q318.3174 11.375 317.9424 11.0078 Q317.5674 10.6406 317.5674 10.0156 Q317.5674 9.2344 318.1143 8.8203 Q318.6611 8.4062 319.6768 8.4062 Q320.1611 8.4062 320.6064 8.4766 Q321.0518 8.5469 321.4111 8.6875 ZM323.1367 8.5312 L324.043 8.5312 L324.043 14 L323.1367 14 L323.1367 8.5312 ZM323.1367 6.4062 L324.043 6.4062 L324.043 7.5469 L323.1367 7.5469 L323.1367 6.4062 ZM329.3994 8.6875 L329.3994 9.5469 Q329.0244 9.3438 328.6182 9.25 Q328.2119 9.1562 327.7588 9.1562 Q327.1025 9.1562 326.7666 9.3594 Q326.4307 9.5625 326.4307 9.9688 Q326.4307 10.2812 326.665 10.4609 Q326.8994 10.6406 327.6338 10.7969 L327.9307 10.875 Q328.8994 11.0781 329.2979 11.4531 Q329.6963 11.8281 329.6963 12.4844 Q329.6963 13.25 329.0947 13.6953 Q328.4932 14.1406 327.4463 14.1406 Q326.9932 14.1406 326.5166 14.0547 Q326.04 13.9688 325.5244 13.7969 L325.5244 12.875 Q326.0244 13.125 326.501 13.2578 Q326.9775 13.3906 327.4619 13.3906 Q328.0869 13.3906 328.4307 13.1719 Q328.7744 12.9531 328.7744 12.5625 Q328.7744 12.1875 328.5322 11.9922 Q328.29 11.7969 327.4463 11.625 L327.1338 11.5469 Q326.3057 11.375 325.9307 11.0078 Q325.5557 10.6406 325.5557 10.0156 Q325.5557 9.2344 326.1025 8.8203 Q326.6494 8.4062 327.665 8.4062 Q328.1494 8.4062 328.5947 8.4766 Q329.04 8.5469 329.3994 8.6875 Z"
         style="clip-path:url(#clipPath2); stroke:none;"
         clip-path="url(#clipPath2)"
         id="path226" />
      <path
         d="M4.25 21.9375 Q3.3906 21.9375 2.9141 22.5703 Q2.4375 23.2031 2.4375 24.3594 Q2.4375 25.5156 2.9141 26.1484 Q3.3906 26.7812 4.25 26.7812 Q5.1094 26.7812 5.5859 26.1484 Q6.0625 25.5156 6.0625 24.3594 Q6.0625 23.2031 5.5859 22.5703 Q5.1094 21.9375 4.25 21.9375 ZM4.25 20.5781 Q6 20.5781 7 21.5859 Q8 22.5938 8 24.3594 Q8 26.125 7 27.1328 Q6 28.1406 4.25 28.1406 Q2.5 28.1406 1.5 27.1328 Q0.5 26.125 0.5 24.3594 Q0.5 22.5938 1.5 21.5859 Q2.5 20.5781 4.25 20.5781 ZM13.4072 24.0156 Q13.1729 23.9062 12.9463 23.8594 Q12.7197 23.8125 12.4854 23.8125 Q11.8135 23.8125 11.4541 24.2422 Q11.0947 24.6719 11.0947 25.4844 L11.0947 28 L9.3447 28 L9.3447 22.5312 L11.0947 22.5312 L11.0947 23.4219 Q11.4229 22.8906 11.8604 22.6484 Q12.2979 22.4062 12.9072 22.4062 Q13.001 22.4062 13.1025 22.4062 Q13.2041 22.4062 13.3916 22.4375 L13.4072 24.0156 ZM17.9951 27.0781 Q17.6357 27.5469 17.1982 27.7734 Q16.7607 28 16.1982 28 Q15.1982 28 14.542 27.2109 Q13.8857 26.4219 13.8857 25.2031 Q13.8857 23.9688 14.542 23.1875 Q15.1982 22.4062 16.1982 22.4062 Q16.7607 22.4062 17.1982 22.6328 Q17.6357 22.8594 17.9951 23.3438 L17.9951 22.5312 L19.7451 22.5312 L19.7451 27.4531 Q19.7451 28.7656 18.917 29.4609 Q18.0889 30.1562 16.5107 30.1562 Q15.9951 30.1562 15.5186 30.0781 Q15.042 30 14.5576 29.8438 L14.5576 28.4844 Q15.0107 28.75 15.4482 28.875 Q15.8857 29 16.3389 29 Q17.1982 29 17.5967 28.625 Q17.9951 28.25 17.9951 27.4531 L17.9951 27.0781 ZM16.8389 23.6719 Q16.292 23.6719 15.9951 24.0703 Q15.6982 24.4688 15.6982 25.2031 Q15.6982 25.9531 15.9873 26.3438 Q16.2764 26.7344 16.8389 26.7344 Q17.3857 26.7344 17.6904 26.3281 Q17.9951 25.9219 17.9951 25.2031 Q17.9951 24.4688 17.6904 24.0703 Q17.3857 23.6719 16.8389 23.6719 ZM23.8877 25.5312 Q23.3408 25.5312 23.0596 25.7188 Q22.7783 25.9062 22.7783 26.2656 Q22.7783 26.6094 23.0049 26.7969 Q23.2314 26.9844 23.6221 26.9844 Q24.1221 26.9844 24.458 26.625 Q24.7939 26.2656 24.7939 25.7344 L24.7939 25.5312 L23.8877 25.5312 ZM26.5596 24.875 L26.5596 28 L24.7939 28 L24.7939 27.1875 Q24.4346 27.6875 23.9971 27.9141 Q23.5596 28.1406 22.9346 28.1406 Q22.0752 28.1406 21.5518 27.6484 Q21.0283 27.1562 21.0283 26.3594 Q21.0283 25.3906 21.6846 24.9453 Q22.3408 24.5 23.7627 24.5 L24.7939 24.5 L24.7939 24.3594 Q24.7939 23.9531 24.4658 23.7578 Q24.1377 23.5625 23.4502 23.5625 Q22.8877 23.5625 22.4033 23.6719 Q21.9189 23.7812 21.4971 24.0156 L21.4971 22.6719 Q22.0596 22.5469 22.6299 22.4766 Q23.2002 22.4062 23.7627 22.4062 Q25.2471 22.4062 25.9033 22.9844 Q26.5596 23.5625 26.5596 24.875 ZM33.6826 24.6719 L33.6826 28 L31.917 28 L31.917 27.4531 L31.917 25.4531 Q31.917 24.75 31.8857 24.4766 Q31.8545 24.2031 31.7764 24.0781 Q31.6826 23.9062 31.5029 23.8125 Q31.3232 23.7188 31.1045 23.7188 Q30.5576 23.7188 30.2451 24.1406 Q29.9326 24.5625 29.9326 25.3125 L29.9326 28 L28.1826 28 L28.1826 22.5312 L29.9326 22.5312 L29.9326 23.3281 Q30.3232 22.8594 30.7686 22.6328 Q31.2139 22.4062 31.7451 22.4062 Q32.6982 22.4062 33.1904 22.9844 Q33.6826 23.5625 33.6826 24.6719 ZM35.3018 22.5312 L37.0518 22.5312 L37.0518 28 L35.3018 28 L35.3018 22.5312 ZM35.3018 20.4062 L37.0518 20.4062 L37.0518 21.8281 L35.3018 21.8281 L35.3018 20.4062 ZM42.9951 22.7031 L42.9951 24.0312 Q42.4326 23.7969 41.9092 23.6797 Q41.3857 23.5625 40.9326 23.5625 Q40.4326 23.5625 40.1904 23.6875 Q39.9482 23.8125 39.9482 24.0625 Q39.9482 24.2812 40.1279 24.3906 Q40.3076 24.5 40.792 24.5625 L41.0889 24.5938 Q42.4326 24.7656 42.9014 25.1562 Q43.3701 25.5469 43.3701 26.3906 Q43.3701 27.2656 42.7217 27.7031 Q42.0732 28.1406 40.792 28.1406 Q40.2607 28.1406 39.6826 28.0547 Q39.1045 27.9688 38.4795 27.7969 L38.4795 26.4688 Q39.0107 26.7188 39.5576 26.8516 Q40.1045 26.9844 40.667 26.9844 Q41.1826 26.9844 41.4404 26.8438 Q41.6982 26.7031 41.6982 26.4219 Q41.6982 26.1875 41.5264 26.0703 Q41.3545 25.9531 40.8232 25.8906 L40.5107 25.8438 Q39.3389 25.7031 38.8701 25.3047 Q38.4014 24.9062 38.4014 24.1094 Q38.4014 23.2344 38.9951 22.8203 Q39.5889 22.4062 40.8232 22.4062 Q41.3076 22.4062 41.8389 22.4766 Q42.3701 22.5469 42.9951 22.7031 ZM49.7441 23.4375 Q50.0723 22.9375 50.5332 22.6719 Q50.9941 22.4062 51.541 22.4062 Q52.4785 22.4062 52.9707 22.9844 Q53.4629 23.5625 53.4629 24.6719 L53.4629 28 L51.7129 28 L51.7129 25.1406 Q51.7129 25.0781 51.7129 25.0156 Q51.7129 24.9531 51.7129 24.8281 Q51.7129 24.2344 51.5488 23.9766 Q51.3848 23.7188 50.9941 23.7188 Q50.4941 23.7188 50.2285 24.125 Q49.9629 24.5312 49.9473 25.3125 L49.9473 28 L48.1816 28 L48.1816 25.1406 Q48.1816 24.2344 48.0254 23.9766 Q47.8691 23.7188 47.4785 23.7188 Q46.9785 23.7188 46.7051 24.1328 Q46.4316 24.5469 46.4316 25.3125 L46.4316 28 L44.666 28 L44.666 22.5312 L46.4316 22.5312 L46.4316 23.3281 Q46.7441 22.875 47.166 22.6406 Q47.5879 22.4062 48.0879 22.4062 Q48.6504 22.4062 49.0879 22.6797 Q49.5254 22.9531 49.7441 23.4375 ZM55.3828 22.5312 L57.1328 22.5312 L57.1328 24.4219 L55.3828 24.4219 L55.3828 22.5312 ZM55.3828 26.1094 L57.1328 26.1094 L57.1328 28 L55.3828 28 L55.3828 26.1094 Z"
         style="clip-path:url(#clipPath2); stroke:none;"
         clip-path="url(#clipPath2)"
         id="path228" />
      <path
         d="M66.9844 20.7031 L67.9688 20.7031 L67.9688 23.7031 L71.5469 23.7031 L71.5469 20.7031 L72.5312 20.7031 L72.5312 28 L71.5469 28 L71.5469 24.5312 L67.9688 24.5312 L67.9688 28 L66.9844 28 L66.9844 20.7031 ZM76.582 23.1562 Q75.8633 23.1562 75.4414 23.7188 Q75.0195 24.2812 75.0195 25.2656 Q75.0195 26.25 75.4336 26.8125 Q75.8477 27.375 76.582 27.375 Q77.3008 27.375 77.7227 26.8125 Q78.1445 26.25 78.1445 25.2656 Q78.1445 24.2969 77.7227 23.7266 Q77.3008 23.1562 76.582 23.1562 ZM76.582 22.4062 Q77.7539 22.4062 78.4258 23.1641 Q79.0977 23.9219 79.0977 25.2656 Q79.0977 26.6094 78.4258 27.375 Q77.7539 28.1406 76.582 28.1406 Q75.4102 28.1406 74.7383 27.375 Q74.0664 26.6094 74.0664 25.2656 Q74.0664 23.9219 74.7383 23.1641 Q75.4102 22.4062 76.582 22.4062 ZM84.8408 23.5781 Q85.1689 22.9688 85.6377 22.6875 Q86.1064 22.4062 86.7471 22.4062 Q87.6064 22.4062 88.0674 23 Q88.5283 23.5938 88.5283 24.7031 L88.5283 28 L87.6221 28 L87.6221 24.7344 Q87.6221 23.9375 87.3486 23.5625 Q87.0752 23.1875 86.4971 23.1875 Q85.7939 23.1875 85.3955 23.6484 Q84.9971 24.1094 84.9971 24.9062 L84.9971 28 L84.0908 28 L84.0908 24.7344 Q84.0908 23.9375 83.8096 23.5625 Q83.5283 23.1875 82.9502 23.1875 Q82.2627 23.1875 81.8564 23.6484 Q81.4502 24.1094 81.4502 24.9062 L81.4502 28 L80.5439 28 L80.5439 22.5312 L81.4502 22.5312 L81.4502 23.375 Q81.7627 22.875 82.1924 22.6406 Q82.6221 22.4062 83.2002 22.4062 Q83.8096 22.4062 84.2236 22.7031 Q84.6377 23 84.8408 23.5781 ZM92.4414 23.1562 Q91.7227 23.1562 91.3008 23.7188 Q90.8789 24.2812 90.8789 25.2656 Q90.8789 26.25 91.293 26.8125 Q91.707 27.375 92.4414 27.375 Q93.1602 27.375 93.582 26.8125 Q94.0039 26.25 94.0039 25.2656 Q94.0039 24.2969 93.582 23.7266 Q93.1602 23.1562 92.4414 23.1562 ZM92.4414 22.4062 Q93.6133 22.4062 94.2852 23.1641 Q94.957 23.9219 94.957 25.2656 Q94.957 26.6094 94.2852 27.375 Q93.6133 28.1406 92.4414 28.1406 Q91.2695 28.1406 90.5977 27.375 Q89.9258 26.6094 89.9258 25.2656 Q89.9258 23.9219 90.5977 23.1641 Q91.2695 22.4062 92.4414 22.4062 ZM103.0977 22.6875 L103.0977 23.5469 Q102.7227 23.3438 102.3164 23.25 Q101.9102 23.1562 101.457 23.1562 Q100.8008 23.1562 100.4648 23.3594 Q100.1289 23.5625 100.1289 23.9688 Q100.1289 24.2812 100.3633 24.4609 Q100.5977 24.6406 101.332 24.7969 L101.6289 24.875 Q102.5977 25.0781 102.9961 25.4531 Q103.3945 25.8281 103.3945 26.4844 Q103.3945 27.25 102.793 27.6953 Q102.1914 28.1406 101.1445 28.1406 Q100.6914 28.1406 100.2148 28.0547 Q99.7383 27.9688 99.2227 27.7969 L99.2227 26.875 Q99.7227 27.125 100.1992 27.2578 Q100.6758 27.3906 101.1602 27.3906 Q101.7852 27.3906 102.1289 27.1719 Q102.4727 26.9531 102.4727 26.5625 Q102.4727 26.1875 102.2305 25.9922 Q101.9883 25.7969 101.1445 25.625 L100.832 25.5469 Q100.0039 25.375 99.6289 25.0078 Q99.2539 24.6406 99.2539 24.0156 Q99.2539 23.2344 99.8008 22.8203 Q100.3477 22.4062 101.3633 22.4062 Q101.8477 22.4062 102.293 22.4766 Q102.7383 22.5469 103.0977 22.6875 ZM107.3076 25.25 Q106.2295 25.25 105.8076 25.5 Q105.3857 25.75 105.3857 26.3438 Q105.3857 26.8281 105.6982 27.1094 Q106.0107 27.3906 106.5576 27.3906 Q107.3076 27.3906 107.7607 26.8594 Q108.2139 26.3281 108.2139 25.4531 L108.2139 25.25 L107.3076 25.25 ZM109.1045 24.875 L109.1045 28 L108.2139 28 L108.2139 27.1719 Q107.9014 27.6719 107.4404 27.9062 Q106.9795 28.1406 106.3232 28.1406 Q105.4795 28.1406 104.9795 27.6719 Q104.4795 27.2031 104.4795 26.4062 Q104.4795 25.4844 105.1045 25.0156 Q105.7295 24.5469 106.9482 24.5469 L108.2139 24.5469 L108.2139 24.4531 Q108.2139 23.8438 107.7998 23.5 Q107.3857 23.1562 106.6514 23.1562 Q106.1826 23.1562 105.7373 23.2734 Q105.292 23.3906 104.8857 23.6094 L104.8857 22.7812 Q105.3857 22.5938 105.8467 22.5 Q106.3076 22.4062 106.7451 22.4062 Q107.9326 22.4062 108.5186 23.0156 Q109.1045 23.625 109.1045 24.875 ZM111.8262 27.1719 L111.8262 30.0781 L110.9199 30.0781 L110.9199 22.5312 L111.8262 22.5312 L111.8262 23.3594 Q112.1074 22.875 112.5371 22.6406 Q112.9668 22.4062 113.5762 22.4062 Q114.5762 22.4062 115.1934 23.1953 Q115.8105 23.9844 115.8105 25.2656 Q115.8105 26.5625 115.1934 27.3516 Q114.5762 28.1406 113.5762 28.1406 Q112.9668 28.1406 112.5371 27.9062 Q112.1074 27.6719 111.8262 27.1719 ZM114.8887 25.2656 Q114.8887 24.2812 114.4746 23.7188 Q114.0605 23.1562 113.3574 23.1562 Q112.6387 23.1562 112.2324 23.7188 Q111.8262 24.2812 111.8262 25.2656 Q111.8262 26.2656 112.2324 26.8281 Q112.6387 27.3906 113.3574 27.3906 Q114.0605 27.3906 114.4746 26.8281 Q114.8887 26.2656 114.8887 25.2656 ZM117.2988 22.5312 L118.2051 22.5312 L118.2051 28 L117.2988 28 L117.2988 22.5312 ZM117.2988 20.4062 L118.2051 20.4062 L118.2051 21.5469 L117.2988 21.5469 L117.2988 20.4062 ZM124.7646 25.0469 L124.7646 25.4844 L120.624 25.4844 Q120.6865 26.4062 121.1865 26.8906 Q121.6865 27.375 122.5771 27.375 Q123.0928 27.375 123.585 27.25 Q124.0771 27.125 124.5459 26.875 L124.5459 27.7188 Q124.0615 27.9219 123.5537 28.0312 Q123.0459 28.1406 122.5303 28.1406 Q121.2178 28.1406 120.4521 27.3828 Q119.6865 26.625 119.6865 25.3125 Q119.6865 23.9688 120.4131 23.1875 Q121.1396 22.4062 122.374 22.4062 Q123.4834 22.4062 124.124 23.1094 Q124.7646 23.8125 124.7646 25.0469 ZM123.8584 24.7812 Q123.8584 24.0469 123.4521 23.6016 Q123.0459 23.1562 122.3896 23.1562 Q121.624 23.1562 121.1787 23.5859 Q120.7334 24.0156 120.6553 24.7812 L123.8584 24.7812 ZM130.7764 24.7031 L130.7764 28 L129.8857 28 L129.8857 24.7344 Q129.8857 23.9531 129.5811 23.5703 Q129.2764 23.1875 128.667 23.1875 Q127.9482 23.1875 127.5264 23.6484 Q127.1045 24.1094 127.1045 24.9062 L127.1045 28 L126.1982 28 L126.1982 22.5312 L127.1045 22.5312 L127.1045 23.375 Q127.4326 22.8906 127.8701 22.6484 Q128.3076 22.4062 128.8701 22.4062 Q129.8076 22.4062 130.292 22.9844 Q130.7764 23.5625 130.7764 24.7031 ZM136.0518 22.6875 L136.0518 23.5469 Q135.6768 23.3438 135.2705 23.25 Q134.8643 23.1562 134.4111 23.1562 Q133.7549 23.1562 133.4189 23.3594 Q133.083 23.5625 133.083 23.9688 Q133.083 24.2812 133.3174 24.4609 Q133.5518 24.6406 134.2861 24.7969 L134.583 24.875 Q135.5518 25.0781 135.9502 25.4531 Q136.3486 25.8281 136.3486 26.4844 Q136.3486 27.25 135.7471 27.6953 Q135.1455 28.1406 134.0986 28.1406 Q133.6455 28.1406 133.1689 28.0547 Q132.6924 27.9688 132.1768 27.7969 L132.1768 26.875 Q132.6768 27.125 133.1533 27.2578 Q133.6299 27.3906 134.1143 27.3906 Q134.7393 27.3906 135.083 27.1719 Q135.4268 26.9531 135.4268 26.5625 Q135.4268 26.1875 135.1846 25.9922 Q134.9424 25.7969 134.0986 25.625 L133.7861 25.5469 Q132.958 25.375 132.583 25.0078 Q132.208 24.6406 132.208 24.0156 Q132.208 23.2344 132.7549 22.8203 Q133.3018 22.4062 134.3174 22.4062 Q134.8018 22.4062 135.2471 22.4766 Q135.6924 22.5469 136.0518 22.6875 Z"
         style="clip-path:url(#clipPath2); stroke:none;"
         clip-path="url(#clipPath2)"
         id="path230" />
    </g>
    <g
       style="fill:navy; text-rendering:geometricPrecision; font-size:8; stroke:navy;"
       id="g236">
      <text
         x="326"
         xml:space="preserve"
         y="16"
         style="clip-path:url(#clipPath4); stroke:none;"
         clip-path="url(#clipPath4)"
         id="text234">16, 17</text>
    </g>
    <g
       style="text-rendering:geometricPrecision;"
       id="g244">
      <path
         d="M533.1119 514.6157 L533.1119 534.6157 M533.1119 534.6157 L640.9938 534.6157 M640.9938 534.6157 L640.9938 523.6157"
         style="fill:none; clip-path:url(#clipPath5);"
         clip-path="url(#clipPath5)"
         id="path238" />
      <path
         d="M635.7938 523.6157 L640.9938 511.9156 L646.1938 523.6157 Z"
         style="fill:white; clip-path:url(#clipPath5); stroke:none;"
         clip-path="url(#clipPath5)"
         id="path240" />
      <path
         d="M635.7938 523.6157 L640.9938 511.9156 L646.1938 523.6157 Z"
         style="fill:none; clip-path:url(#clipPath5);"
         clip-path="url(#clipPath5)"
         id="path242" />
    </g>
    <g
       style="text-rendering:geometricPrecision;"
       id="g252">
      <path
         d="M685.9938 424.9059 L685.9938 444.9059 M685.9938 444.9059 L867.3768 444.9059 M867.3768 444.9059 L867.3768 480.6157"
         style="fill:none; clip-path:url(#clipPath6);"
         clip-path="url(#clipPath6)"
         id="path246" />
      <path
         d="M872.5768 480.6157 L867.3768 492.3156 L862.1768 480.6157 Z"
         style="fill:white; clip-path:url(#clipPath6); stroke:none;"
         clip-path="url(#clipPath6)"
         id="path248" />
      <path
         d="M872.5768 480.6157 L867.3768 492.3156 L862.1768 480.6157 Z"
         style="fill:none; clip-path:url(#clipPath6);"
         clip-path="url(#clipPath6)"
         id="path250" />
    </g>
    <g
       style="text-rendering:geometricPrecision;"
       id="g260">
      <path
         d="M588.7661 345.3056 L640.9938 345.3056 M640.9938 345.3056 L640.9938 390.9059"
         style="fill:none; clip-path:url(#clipPath7);"
         clip-path="url(#clipPath7)"
         id="path254" />
      <path
         d="M646.1938 390.9059 L640.9938 402.6058 L635.7938 390.9059 Z"
         style="fill:white; clip-path:url(#clipPath7); stroke:none;"
         clip-path="url(#clipPath7)"
         id="path256" />
      <path
         d="M646.1938 390.9059 L640.9938 402.6058 L635.7938 390.9059 Z"
         style="fill:none; clip-path:url(#clipPath7);"
         clip-path="url(#clipPath7)"
         id="path258" />
    </g>
    <g
       style="text-rendering:geometricPrecision;"
       id="g268">
      <path
         d="M640.9938 424.9059 L640.9938 444.9059 M640.9938 444.9059 L510.612 444.9059 M510.612 444.9059 L510.612 480.6157"
         style="fill:none; clip-path:url(#clipPath8);"
         clip-path="url(#clipPath8)"
         id="path262" />
      <path
         d="M515.812 480.6157 L510.612 492.3156 L505.412 480.6157 Z"
         style="fill:white; clip-path:url(#clipPath8); stroke:none;"
         clip-path="url(#clipPath8)"
         id="path264" />
      <path
         d="M515.812 480.6157 L510.612 492.3156 L505.412 480.6157 Z"
         style="fill:none; clip-path:url(#clipPath8);"
         clip-path="url(#clipPath8)"
         id="path266" />
    </g>
    <g
       style="text-rendering:geometricPrecision;"
       id="g276">
      <path
         d="M365.1228 570.2608 L365.1228 521.6157"
         style="fill:none; clip-path:url(#clipPath9);"
         clip-path="url(#clipPath9)"
         id="path270" />
      <path
         d="M356.0228 521.6157 L356.0228 520.3157 L375.5228 520.3157 L375.5228 521.6157 L356.0228 521.6157 Z"
         style="fill:white; clip-path:url(#clipPath9); stroke:none;"
         clip-path="url(#clipPath9)"
         id="path272" />
      <path
         d="M356.0228 521.6157 L356.0228 520.3157 L375.5228 520.3157 L375.5228 521.6157 L356.0228 521.6157 Z"
         style="fill:none; clip-path:url(#clipPath9);"
         clip-path="url(#clipPath9)"
         id="path274" />
    </g>
    <g
       style="text-rendering:geometricPrecision;"
       id="g284">
      <path
         d="M743.3898 345.3056 L685.9938 345.3056 M685.9938 345.3056 L685.9938 392.9059"
         style="fill:none; clip-path:url(#clipPath10);"
         clip-path="url(#clipPath10)"
         id="path278" />
      <path
         d="M695.0939 392.9059 L695.0939 394.2058 L675.5939 394.2058 L675.5939 392.9059 L695.0939 392.9059 Z"
         style="fill:white; clip-path:url(#clipPath10); stroke:none;"
         clip-path="url(#clipPath10)"
         id="path280" />
      <path
         d="M695.0939 392.9059 L695.0939 394.2058 L675.5939 394.2058 L675.5939 392.9059 L695.0939 392.9059 Z"
         style="fill:none; clip-path:url(#clipPath10);"
         clip-path="url(#clipPath10)"
         id="path282" />
    </g>
    <g
       style="text-rendering:geometricPrecision;"
       id="g292">
      <path
         d="M465.612 508.3657 L417.1228 508.3657"
         style="fill:none; clip-path:url(#clipPath11);"
         clip-path="url(#clipPath11)"
         id="path286" />
      <path
         d="M417.1228 517.4656 L415.8228 517.4656 L415.8228 497.9657 L417.1228 497.9657 L417.1228 517.4656 Z"
         style="fill:white; clip-path:url(#clipPath11); stroke:none;"
         clip-path="url(#clipPath11)"
         id="path288" />
      <path
         d="M417.1228 517.4656 L415.8228 517.4656 L415.8228 497.9657 L417.1228 497.9657 L417.1228 517.4656 Z"
         style="fill:none; clip-path:url(#clipPath11);"
         clip-path="url(#clipPath11)"
         id="path290" />
    </g>
    <g
       style="text-rendering:geometricPrecision;"
       id="g300">
      <path
         d="M708.4938 502.1157 L739.1066 502.1157 M739.1066 502.1157 L739.1066 412.4059 M739.1066 412.4059 L717.4938 412.4059"
         style="fill:none; clip-path:url(#clipPath12);"
         clip-path="url(#clipPath12)"
         id="path294" />
      <path
         d="M717.4938 417.6058 L705.7938 412.4059 L717.4938 407.2058 Z"
         style="fill:white; clip-path:url(#clipPath12); stroke:none;"
         clip-path="url(#clipPath12)"
         id="path296" />
      <path
         d="M717.4938 417.6058 L705.7938 412.4059 L717.4938 407.2058 Z"
         style="fill:none; clip-path:url(#clipPath12);"
         clip-path="url(#clipPath12)"
         id="path298" />
    </g>
    <g
       style="stroke-dasharray:4,4; text-rendering:geometricPrecision;"
       id="g306">
      <path
         d="M365.1228 595.2608 L365.1228 655.3296"
         style="fill:none; clip-path:url(#clipPath13);"
         clip-path="url(#clipPath13)"
         id="path302" />
      <path
         d="M365.1228 655.3296 L370.3228 643.6296 L359.9229 643.6296 Z"
         style="stroke-dasharray:none; clip-path:url(#clipPath13); fill-rule:evenodd; stroke:none;"
         clip-path="url(#clipPath13)"
         id="path304" />
    </g>
    <g
       style="text-rendering:geometricPrecision;"
       id="g314">
      <path
         d="M410.1228 495.8657 L456.612 495.8657"
         style="fill:none; clip-path:url(#clipPath14);"
         clip-path="url(#clipPath14)"
         id="path308" />
      <path
         d="M456.612 490.6656 L468.312 495.8657 L456.612 501.0656 Z"
         style="fill:white; clip-path:url(#clipPath14); stroke:none;"
         clip-path="url(#clipPath14)"
         id="path310" />
      <path
         d="M456.612 490.6656 L468.312 495.8657 L456.612 501.0656 Z"
         style="fill:none; clip-path:url(#clipPath14);"
         clip-path="url(#clipPath14)"
         id="path312" />
    </g>
    <g
       style="text-rendering:geometricPrecision;"
       id="g322">
      <path
         d="M889.8768 514.6157 L889.8768 535.1562 M889.8768 535.1562 L941.5347 535.1562 M941.5347 535.1562 L941.5347 502.1157 M941.5347 502.1157 L919.3768 502.1157"
         style="fill:none; clip-path:url(#clipPath15);"
         clip-path="url(#clipPath15)"
         id="path316" />
      <path
         d="M919.3768 511.2157 L918.0768 511.2157 L918.0768 491.7157 L919.3768 491.7157 L919.3768 511.2157 Z"
         style="fill:white; clip-path:url(#clipPath15); stroke:none;"
         clip-path="url(#clipPath15)"
         id="path318" />
      <path
         d="M919.3768 511.2157 L918.0768 511.2157 L918.0768 491.7157 L919.3768 491.7157 L919.3768 511.2157 Z"
         style="fill:none; clip-path:url(#clipPath15);"
         clip-path="url(#clipPath15)"
         id="path320" />
    </g>
    <g
       style="text-rendering:geometricPrecision;"
       id="g330">
      <path
         d="M618.4938 502.1157 L587.6729 502.1157 M587.6729 502.1157 L587.6729 412.4059 M587.6729 412.4059 L611.4938 412.4059"
         style="fill:none; clip-path:url(#clipPath16);"
         clip-path="url(#clipPath16)"
         id="path324" />
      <path
         d="M611.4938 403.3058 L612.7938 403.3058 L612.7938 422.8058 L611.4938 422.8058 L611.4938 403.3058 Z"
         style="fill:white; clip-path:url(#clipPath16); stroke:none;"
         clip-path="url(#clipPath16)"
         id="path326" />
      <path
         d="M611.4938 403.3058 L612.7938 403.3058 L612.7938 422.8058 L611.4938 422.8058 L611.4938 403.3058 Z"
         style="fill:none; clip-path:url(#clipPath16);"
         clip-path="url(#clipPath16)"
         id="path328" />
    </g>
    <g
       style="text-rendering:geometricPrecision;"
       id="g338">
      <path
         d="M510.612 514.6157 L510.612 582.7608 M510.612 582.7608 L537.9858 582.7608"
         style="fill:none; clip-path:url(#clipPath17);"
         clip-path="url(#clipPath17)"
         id="path332" />
      <path
         d="M537.9858 577.5608 L549.6858 582.7608 L537.9858 587.9608 Z"
         style="fill:white; clip-path:url(#clipPath17); stroke:none;"
         clip-path="url(#clipPath17)"
         id="path334" />
      <path
         d="M537.9858 577.5608 L549.6858 582.7608 L537.9858 587.9608 Z"
         style="fill:none; clip-path:url(#clipPath17);"
         clip-path="url(#clipPath17)"
         id="path336" />
    </g>
    <g
       style="text-rendering:geometricPrecision;"
       id="g346">
      <path
         d="M844.8768 514.6157 L844.8768 534.6157 M844.8768 534.6157 L685.9938 534.6157 M685.9938 534.6157 L685.9938 521.6157"
         style="fill:none; clip-path:url(#clipPath18);"
         clip-path="url(#clipPath18)"
         id="path340" />
      <path
         d="M676.8939 521.6157 L676.8939 520.3157 L696.3939 520.3157 L696.3939 521.6157 L676.8939 521.6157 Z"
         style="fill:white; clip-path:url(#clipPath18); stroke:none;"
         clip-path="url(#clipPath18)"
         id="path342" />
      <path
         d="M676.8939 521.6157 L676.8939 520.3157 L696.3939 520.3157 L696.3939 521.6157 L676.8939 521.6157 Z"
         style="fill:none; clip-path:url(#clipPath18);"
         clip-path="url(#clipPath18)"
         id="path344" />
    </g>
    <g
       style="text-rendering:geometricPrecision;"
       id="g354">
      <path
         d="M488.112 514.6157 L488.112 582.7608 M488.112 582.7608 L419.1228 582.7608"
         style="fill:none; clip-path:url(#clipPath19);"
         clip-path="url(#clipPath19)"
         id="path348" />
      <path
         d="M419.1228 587.9608 L407.4229 582.7608 L419.1228 577.5608 Z"
         style="fill:white; clip-path:url(#clipPath19); stroke:none;"
         clip-path="url(#clipPath19)"
         id="path350" />
      <path
         d="M419.1228 587.9608 L407.4229 582.7608 L419.1228 577.5608 Z"
         style="fill:none; clip-path:url(#clipPath19);"
         clip-path="url(#clipPath19)"
         id="path352" />
    </g>
    <g
       style="text-rendering:geometricPrecision;"
       id="g362">
      <path
         d="M663.4938 424.9059 L663.4938 480.6157"
         style="fill:none; clip-path:url(#clipPath20);"
         clip-path="url(#clipPath20)"
         id="path356" />
      <path
         d="M668.6938 480.6157 L663.4938 492.3156 L658.2938 480.6157 Z"
         style="fill:white; clip-path:url(#clipPath20); stroke:none;"
         clip-path="url(#clipPath20)"
         id="path358" />
      <path
         d="M668.6938 480.6157 L663.4938 492.3156 L658.2938 480.6157 Z"
         style="fill:none; clip-path:url(#clipPath20);"
         clip-path="url(#clipPath20)"
         id="path360" />
    </g>
    <g
       style="fill:navy; text-rendering:geometricPrecision; font-size:8; stroke:navy;"
       id="g366">
      <text
         x="516"
         xml:space="preserve"
         y="442"
         style="clip-path:url(#clipPath22); stroke:none;"
         clip-path="url(#clipPath22)"
         id="text364">8</text>
    </g>
    <g
       style="fill:navy; text-rendering:geometricPrecision; font-size:8; stroke:navy;"
       id="g370">
      <text
         x="650"
         xml:space="preserve"
         y="467"
         style="clip-path:url(#clipPath24); stroke:none;"
         clip-path="url(#clipPath24)"
         id="text368">1, 6</text>
    </g>
    <g
       style="fill:navy; text-rendering:geometricPrecision; font-size:8; stroke:navy;"
       id="g374">
      <text
         x="446"
         xml:space="preserve"
         y="579"
         style="clip-path:url(#clipPath26); stroke:none;"
         clip-path="url(#clipPath26)"
         id="text372">7</text>
    </g>
    <g
       style="fill:navy; text-rendering:geometricPrecision; font-size:8; stroke:navy;"
       id="g378">
      <text
         x="572"
         xml:space="preserve"
         y="424"
         style="clip-path:url(#clipPath28); stroke:none;"
         clip-path="url(#clipPath28)"
         id="text376">5, 11</text>
    </g>
    <g
       style="fill:navy; text-rendering:geometricPrecision; font-size:8; stroke:navy;"
       id="g382">
      <text
         x="355"
         xml:space="preserve"
         y="528"
         style="clip-path:url(#clipPath30); stroke:none;"
         clip-path="url(#clipPath30)"
         id="text380">14</text>
    </g>
    <g
       style="fill:navy; text-rendering:geometricPrecision; font-size:8; stroke:navy;"
       id="g386">
      <text
         x="633"
         xml:space="preserve"
         y="365"
         style="clip-path:url(#clipPath32); stroke:none;"
         clip-path="url(#clipPath32)"
         id="text384">2</text>
    </g>
    <g
       style="fill:navy; text-rendering:geometricPrecision; font-size:8; stroke:navy;"
       id="g390">
      <text
         x="436"
         xml:space="preserve"
         y="493"
         style="clip-path:url(#clipPath34); stroke:none;"
         clip-path="url(#clipPath34)"
         id="text388">3, 4</text>
    </g>
    <g
       style="fill:navy; text-rendering:geometricPrecision; font-size:8; stroke:navy;"
       id="g394">
      <text
         x="729"
         xml:space="preserve"
         y="424"
         style="clip-path:url(#clipPath36); stroke:none;"
         clip-path="url(#clipPath36)"
         id="text392">10</text>
    </g>
    <g
       style="fill:navy; text-rendering:geometricPrecision; font-size:8; stroke:navy;"
       id="g398">
      <text
         x="828"
         xml:space="preserve"
         y="442"
         style="clip-path:url(#clipPath38); stroke:none;"
         clip-path="url(#clipPath38)"
         id="text396">13</text>
    </g>
    <g
       style="fill:navy; text-rendering:geometricPrecision; font-size:8; stroke:navy;"
       id="g402">
      <text
         x="505"
         xml:space="preserve"
         y="579"
         style="clip-path:url(#clipPath40); stroke:none;"
         clip-path="url(#clipPath40)"
         id="text400">12</text>
    </g>
    <g
       style="fill:navy; text-rendering:geometricPrecision; font-size:8; stroke:navy;"
       id="g406">
      <text
         x="678"
         xml:space="preserve"
         y="363"
         style="clip-path:url(#clipPath42); stroke:none;"
         clip-path="url(#clipPath42)"
         id="text404">2</text>
    </g>
    <g
       style="fill:navy; text-rendering:geometricPrecision; font-size:8; stroke:navy;"
       id="g410">
      <text
         x="606"
         xml:space="preserve"
         y="531"
         style="clip-path:url(#clipPath44); stroke:none;"
         clip-path="url(#clipPath44)"
         id="text408">11</text>
    </g>
    <g
       style="fill:navy; text-rendering:geometricPrecision; font-size:8; stroke:navy;"
       id="g414">
      <text
         x="715"
         xml:space="preserve"
         y="531"
         style="clip-path:url(#clipPath46); stroke:none;"
         clip-path="url(#clipPath46)"
         id="text412">15</text>
    </g>
    <g
       style="fill:navy; text-rendering:geometricPrecision; font-size:8; stroke:navy;"
       id="g418">
      <text
         x="419"
         xml:space="preserve"
         y="505"
         style="clip-path:url(#clipPath48); stroke:none;"
         clip-path="url(#clipPath48)"
         id="text416">9</text>
    </g>
    <g
       style="fill:navy; text-rendering:geometricPrecision; font-size:8; stroke:navy;"
       id="g422">
      <text
         x="931"
         xml:space="preserve"
         y="510"
         style="clip-path:url(#clipPath50); stroke:none;"
         clip-path="url(#clipPath50)"
         id="text420">13</text>
    </g>
    <g
       style="fill:white; text-rendering:geometricPrecision; stroke:white;"
       id="g430">
      <path
         d="M743.3898 332.8056 L833.3898 332.8056 L833.3898 357.8056 L743.3898 357.8056 L743.3898 332.8056 Z"
         style="clip-path:url(#clipPath51); stroke:none;"
         clip-path="url(#clipPath51)"
         id="path424" />
      <path
         d="M743.3898 332.8056 L833.3898 332.8056 L833.3898 357.8056 L743.3898 357.8056 L743.3898 332.8056 Z"
         style="fill:none; clip-path:url(#clipPath51); stroke:black;"
         clip-path="url(#clipPath51)"
         id="path426" />
      <text
         x="773"
         y="349"
         style="fill:black; clip-path:url(#clipPath51); stroke:none;"
         xml:space="preserve"
         clip-path="url(#clipPath51)"
         id="text428">DLL3</text>
    </g>
    <g
       style="fill:white; text-rendering:geometricPrecision; stroke:white;"
       id="g438">
      <path
         d="M320.1228 570.2608 L410.1228 570.2608 L410.1228 595.2608 L320.1228 595.2608 L320.1228 570.2608 Z"
         style="clip-path:url(#clipPath52); stroke:none;"
         clip-path="url(#clipPath52)"
         id="path432" />
      <path
         d="M320.1228 570.2608 L410.1228 570.2608 L410.1228 595.2608 L320.1228 595.2608 L320.1228 570.2608 Z"
         style="fill:none; clip-path:url(#clipPath52); stroke:black;"
         clip-path="url(#clipPath52)"
         id="path434" />
      <text
         x="341"
         y="587"
         style="fill:black; clip-path:url(#clipPath52); stroke:none;"
         xml:space="preserve"
         clip-path="url(#clipPath52)"
         id="text436">RIPPLY2</text>
    </g>
    <g
       style="fill:white; text-rendering:geometricPrecision; stroke:white;"
       id="g446">
      <path
         d="M546.9858 570.2608 L636.9858 570.2608 L636.9858 595.2608 L546.9858 595.2608 L546.9858 570.2608 Z"
         style="clip-path:url(#clipPath53); stroke:none;"
         clip-path="url(#clipPath53)"
         id="path440" />
      <path
         d="M546.9858 570.2608 L636.9858 570.2608 L636.9858 595.2608 L546.9858 595.2608 L546.9858 570.2608 Z"
         style="fill:none; clip-path:url(#clipPath53); stroke:black;"
         clip-path="url(#clipPath53)"
         id="path442" />
      <text
         x="572"
         y="587"
         style="fill:black; clip-path:url(#clipPath53); stroke:none;"
         xml:space="preserve"
         clip-path="url(#clipPath53)"
         id="text444">EPHA4</text>
    </g>
    <g
       style="fill:white; text-rendering:geometricPrecision; stroke:white;"
       id="g454">
      <path
         d="M465.612 489.6157 L555.6119 489.6157 L555.6119 514.6157 L465.612 514.6157 L465.612 489.6157 Z"
         style="clip-path:url(#clipPath54); stroke:none;"
         clip-path="url(#clipPath54)"
         id="path448" />
      <path
         d="M465.612 489.6157 L555.6119 489.6157 L555.6119 514.6157 L465.612 514.6157 L465.612 489.6157 Z"
         style="fill:none; clip-path:url(#clipPath54); stroke:black;"
         clip-path="url(#clipPath54)"
         id="path450" />
      <text
         x="490"
         y="506"
         style="fill:black; clip-path:url(#clipPath54); stroke:none;"
         xml:space="preserve"
         clip-path="url(#clipPath54)"
         id="text452">MESP2</text>
    </g>
    <g
       style="fill:white; text-rendering:geometricPrecision; stroke:white;"
       id="g462">
      <path
         d="M618.4938 399.9059 L708.4938 399.9059 L708.4938 424.9059 L618.4938 424.9059 L618.4938 399.9059 Z"
         style="clip-path:url(#clipPath55); stroke:none;"
         clip-path="url(#clipPath55)"
         id="path456" />
      <path
         d="M618.4938 399.9059 L708.4938 399.9059 L708.4938 424.9059 L618.4938 424.9059 L618.4938 399.9059 Z"
         style="fill:none; clip-path:url(#clipPath55); stroke:black;"
         clip-path="url(#clipPath55)"
         id="path458" />
      <text
         x="638"
         y="416"
         style="fill:black; clip-path:url(#clipPath55); stroke:none;"
         xml:space="preserve"
         clip-path="url(#clipPath55)"
         id="text460">NOTCH1</text>
    </g>
    <g
       style="fill:white; text-rendering:geometricPrecision; stroke:white;"
       id="g470">
      <path
         d="M320.1228 489.6157 L410.1228 489.6157 L410.1228 514.6157 L320.1228 514.6157 L320.1228 489.6157 Z"
         style="clip-path:url(#clipPath56); stroke:none;"
         clip-path="url(#clipPath56)"
         id="path464" />
      <path
         d="M320.1228 489.6157 L410.1228 489.6157 L410.1228 514.6157 L320.1228 514.6157 L320.1228 489.6157 Z"
         style="fill:none; clip-path:url(#clipPath56); stroke:black;"
         clip-path="url(#clipPath56)"
         id="path466" />
      <text
         x="350"
         y="506"
         style="fill:black; clip-path:url(#clipPath56); stroke:none;"
         xml:space="preserve"
         clip-path="url(#clipPath56)"
         id="text468">TBX6</text>
    </g>
    <g
       style="fill:white; text-rendering:geometricPrecision; stroke:white;"
       id="g478">
      <path
         d="M822.3768 489.6157 L912.3768 489.6157 L912.3768 514.6157 L822.3768 514.6157 L822.3768 489.6157 Z"
         style="clip-path:url(#clipPath57); stroke:none;"
         clip-path="url(#clipPath57)"
         id="path472" />
      <path
         d="M822.3768 489.6157 L912.3768 489.6157 L912.3768 514.6157 L822.3768 514.6157 L822.3768 489.6157 Z"
         style="fill:none; clip-path:url(#clipPath57); stroke:black;"
         clip-path="url(#clipPath57)"
         id="path474" />
      <text
         x="852"
         y="506"
         style="fill:black; clip-path:url(#clipPath57); stroke:none;"
         xml:space="preserve"
         clip-path="url(#clipPath57)"
         id="text476">HES7</text>
    </g>
    <g
       style="fill:white; text-rendering:geometricPrecision; stroke:white;"
       id="g486">
      <path
         d="M618.4938 489.6157 L708.4938 489.6157 L708.4938 514.6157 L618.4938 514.6157 L618.4938 489.6157 Z"
         style="clip-path:url(#clipPath58); stroke:none;"
         clip-path="url(#clipPath58)"
         id="path480" />
      <path
         d="M618.4938 489.6157 L708.4938 489.6157 L708.4938 514.6157 L618.4938 514.6157 L618.4938 489.6157 Z"
         style="fill:none; clip-path:url(#clipPath58); stroke:black;"
         clip-path="url(#clipPath58)"
         id="path482" />
      <text
         x="648"
         y="506"
         style="fill:black; clip-path:url(#clipPath58); stroke:none;"
         xml:space="preserve"
         clip-path="url(#clipPath58)"
         id="text484">LFNG</text>
    </g>
    <g
       style="fill:white; text-rendering:geometricPrecision; stroke:white;"
       id="g494">
      <path
         d="M498.7661 332.8056 L588.7661 332.8056 L588.7661 357.8056 L498.7661 357.8056 L498.7661 332.8056 Z"
         style="clip-path:url(#clipPath59); stroke:none;"
         clip-path="url(#clipPath59)"
         id="path488" />
      <path
         d="M498.7661 332.8056 L588.7661 332.8056 L588.7661 357.8056 L498.7661 357.8056 L498.7661 332.8056 Z"
         style="fill:none; clip-path:url(#clipPath59); stroke:black;"
         clip-path="url(#clipPath59)"
         id="path490" />
      <text
         x="528"
         y="349"
         style="fill:black; clip-path:url(#clipPath59); stroke:none;"
         xml:space="preserve"
         clip-path="url(#clipPath59)"
         id="text492">DLL1</text>
    </g>
    <g
       style="fill:rgb(255,206,206); text-rendering:geometricPrecision; stroke:rgb(255,206,206);"
       id="g504">
      <path
         d="M518.0725 665.9944 L518.0725 684.9944 C518.0725 690.5172 522.5497 694.9944 528.0725 694.9944 L798.9152 694.9944 C804.438 694.9944 808.9152 690.5172 808.9152 684.9944 L808.9152 665.9944 C808.9152 660.4716 804.438 655.9944 798.9152 655.9944 L528.0725 655.9944 C522.5497 655.9944 518.0725 660.4716 518.0725 665.9944 Z"
         style="clip-path:url(#clipPath60); stroke:none;"
         clip-path="url(#clipPath60)"
         id="path496" />
      <path
         d="M518.0725 665.9944 L518.0725 684.9944 C518.0725 690.5172 522.5497 694.9944 528.0725 694.9944 L798.9152 694.9944 C804.438 694.9944 808.9152 690.5172 808.9152 684.9944 L808.9152 665.9944 C808.9152 660.4716 804.438 655.9944 798.9152 655.9944 L528.0725 655.9944 C522.5497 655.9944 518.0725 660.4716 518.0725 665.9944 Z"
         style="fill:none; clip-path:url(#clipPath60); stroke:blue;"
         clip-path="url(#clipPath60)"
         id="path498" />
      <text
         x="622"
         y="672"
         text-decoration="underline"
         style="clip-path:url(#clipPath60); fill:blue; stroke:none;"
         xml:space="preserve"
         clip-path="url(#clipPath60)"
         id="text500">OMIM:609813</text>
      <text
         x="511"
         y="685"
         text-decoration="underline"
         style="clip-path:url(#clipPath60); fill:blue; stroke:none;"
         xml:space="preserve"
         clip-path="url(#clipPath60)"
         id="text502">Spondylocostal Dysostosis 3, Autosomal Recessive</text>
    </g>
    <g
       style="fill:rgb(255,206,206); text-rendering:geometricPrecision; stroke:rgb(255,206,206);"
       id="g514">
      <path
         d="M721.0114 590.7227 L721.0114 609.7227 C721.0114 615.2455 725.4885 619.7227 731.0114 619.7227 L1003.7422 619.7227 C1009.2651 619.7227 1013.7422 615.2455 1013.7422 609.7227 L1013.7422 590.7227 C1013.7422 585.1999 1009.2651 580.7227 1003.7422 580.7227 L731.0114 580.7227 C725.4885 580.7227 721.0114 585.1999 721.0114 590.7227 Z"
         style="clip-path:url(#clipPath61); stroke:none;"
         clip-path="url(#clipPath61)"
         id="path506" />
      <path
         d="M721.0114 590.7227 L721.0114 609.7227 C721.0114 615.2455 725.4885 619.7227 731.0114 619.7227 L1003.7422 619.7227 C1009.2651 619.7227 1013.7422 615.2455 1013.7422 609.7227 L1013.7422 590.7227 C1013.7422 585.1999 1009.2651 580.7227 1003.7422 580.7227 L731.0114 580.7227 C725.4885 580.7227 721.0114 585.1999 721.0114 590.7227 Z"
         style="fill:none; clip-path:url(#clipPath61); stroke:blue;"
         clip-path="url(#clipPath61)"
         id="path508" />
      <text
         x="826"
         y="597"
         text-decoration="underline"
         style="clip-path:url(#clipPath61); fill:blue; stroke:none;"
         xml:space="preserve"
         clip-path="url(#clipPath61)"
         id="text510">OMIM:613686</text>
      <text
         x="715"
         y="610"
         text-decoration="underline"
         style="clip-path:url(#clipPath61); fill:blue; stroke:none;"
         xml:space="preserve"
         clip-path="url(#clipPath61)"
         id="text512">Spondylocostal Dysostosis 4, Autosomal Recessive</text>
    </g>
    <g
       style="fill:rgb(255,206,206); text-rendering:geometricPrecision; stroke:rgb(255,206,206);"
       id="g524">
      <path
         d="M80.5646 492.5862 L80.5646 511.5862 C80.5646 517.1091 85.0418 521.5862 90.5646 521.5862 L252.3347 521.5862 C257.8575 521.5862 262.3347 517.1091 262.3347 511.5862 L262.3347 492.5862 C262.3347 487.0634 257.8575 482.5862 252.3347 482.5862 L90.5646 482.5862 C85.0418 482.5862 80.5646 487.0634 80.5646 492.5862 Z"
         style="clip-path:url(#clipPath62); stroke:none;"
         clip-path="url(#clipPath62)"
         id="path516" />
      <path
         d="M80.5646 492.5862 L80.5646 511.5862 C80.5646 517.1091 85.0418 521.5862 90.5646 521.5862 L252.3347 521.5862 C257.8575 521.5862 262.3347 517.1091 262.3347 511.5862 L262.3347 492.5862 C262.3347 487.0634 257.8575 482.5862 252.3347 482.5862 L90.5646 482.5862 C85.0418 482.5862 80.5646 487.0634 80.5646 492.5862 Z"
         style="fill:none; clip-path:url(#clipPath62); stroke:blue;"
         clip-path="url(#clipPath62)"
         id="path518" />
      <text
         x="130"
         y="499"
         text-decoration="underline"
         style="clip-path:url(#clipPath62); fill:blue; stroke:none;"
         xml:space="preserve"
         clip-path="url(#clipPath62)"
         id="text520">OMIM:122600</text>
      <text
         x="86"
         y="512"
         text-decoration="underline"
         style="clip-path:url(#clipPath62); fill:blue; stroke:none;"
         xml:space="preserve"
         clip-path="url(#clipPath62)"
         id="text522">Spondylocostal Dysostosis 5</text>
    </g>
    <g
       style="fill:rgb(255,206,206); text-rendering:geometricPrecision; stroke:rgb(255,206,206);"
       id="g534">
      <path
         d="M910.3853 335.8056 L910.3853 354.8056 C910.3853 360.3285 914.8625 364.8056 920.3853 364.8056 L1199.4188 364.8056 C1204.9417 364.8056 1209.4188 360.3285 1209.4188 354.8056 L1209.4188 335.8056 C1209.4188 330.2828 1204.9417 325.8056 1199.4188 325.8056 L920.3853 325.8056 C914.8625 325.8056 910.3853 330.2828 910.3853 335.8056 Z"
         style="clip-path:url(#clipPath63); stroke:none;"
         clip-path="url(#clipPath63)"
         id="path526" />
      <path
         d="M910.3853 335.8056 L910.3853 354.8056 C910.3853 360.3285 914.8625 364.8056 920.3853 364.8056 L1199.4188 364.8056 C1204.9417 364.8056 1209.4188 360.3285 1209.4188 354.8056 L1209.4188 335.8056 C1209.4188 330.2828 1204.9417 325.8056 1199.4188 325.8056 L920.3853 325.8056 C914.8625 325.8056 910.3853 330.2828 910.3853 335.8056 Z"
         style="fill:none; clip-path:url(#clipPath63); stroke:blue;"
         clip-path="url(#clipPath63)"
         id="path528" />
      <text
         x="1019"
         y="342"
         text-decoration="underline"
         style="clip-path:url(#clipPath63); fill:blue; stroke:none;"
         xml:space="preserve"
         clip-path="url(#clipPath63)"
         id="text530">OMIM:277300</text>
      <text
         x="908"
         y="355"
         text-decoration="underline"
         style="clip-path:url(#clipPath63); fill:blue; stroke:none;"
         xml:space="preserve"
         clip-path="url(#clipPath63)"
         id="text532">Spondylocostal Dysostosis 1, Autosomal Recessive</text>
    </g>
    <g
       style="fill:rgb(255,206,206); text-rendering:geometricPrecision; stroke:rgb(255,206,206);"
       id="g544">
      <path
         d="M221.2991 665.3296 L221.2991 684.3296 C221.2991 689.8524 225.7763 694.3296 231.2991 694.3296 L498.9465 694.3296 C504.4694 694.3296 508.9465 689.8524 508.9465 684.3296 L508.9465 665.3296 C508.9465 659.8068 504.4694 655.3296 498.9465 655.3296 L231.2991 655.3296 C225.7763 655.3296 221.2991 659.8068 221.2991 665.3296 Z"
         style="clip-path:url(#clipPath64); stroke:none;"
         clip-path="url(#clipPath64)"
         id="path536" />
      <path
         d="M221.2991 665.3296 L221.2991 684.3296 C221.2991 689.8524 225.7763 694.3296 231.2991 694.3296 L498.9465 694.3296 C504.4694 694.3296 508.9465 689.8524 508.9465 684.3296 L508.9465 665.3296 C508.9465 659.8068 504.4694 655.3296 498.9465 655.3296 L231.2991 655.3296 C225.7763 655.3296 221.2991 659.8068 221.2991 665.3296 Z"
         style="fill:none; clip-path:url(#clipPath64); stroke:blue;"
         clip-path="url(#clipPath64)"
         id="path538" />
      <text
         x="324"
         y="672"
         text-decoration="underline"
         style="clip-path:url(#clipPath64); fill:blue; stroke:none;"
         xml:space="preserve"
         clip-path="url(#clipPath64)"
         id="text540">OMIM:616566</text>
      <text
         x="213"
         y="685"
         text-decoration="underline"
         style="clip-path:url(#clipPath64); fill:blue; stroke:none;"
         xml:space="preserve"
         clip-path="url(#clipPath64)"
         id="text542">Spondylocostal Dysostosis 6, Autosomal Recessive</text>
    </g>
    <g
       style="fill:rgb(255,206,206); text-rendering:geometricPrecision; stroke:rgb(255,206,206);"
       id="g554">
      <path
         d="M578.8295 261.9185 L578.8295 280.9185 C578.8295 286.4414 583.3066 290.9185 588.8295 290.9185 L738.1582 290.9185 C743.681 290.9185 748.1582 286.4414 748.1582 280.9185 L748.1582 261.9185 C748.1582 256.3957 743.681 251.9185 738.1582 251.9185 L588.8295 251.9185 C583.3066 251.9185 578.8295 256.3957 578.8295 261.9185 Z"
         style="clip-path:url(#clipPath65); stroke:none;"
         clip-path="url(#clipPath65)"
         id="path546" />
      <path
         d="M578.8295 261.9185 L578.8295 280.9185 C578.8295 286.4414 583.3066 290.9185 588.8295 290.9185 L738.1582 290.9185 C743.681 290.9185 748.1582 286.4414 748.1582 280.9185 L748.1582 261.9185 C748.1582 256.3957 743.681 251.9185 738.1582 251.9185 L588.8295 251.9185 C583.3066 251.9185 578.8295 256.3957 578.8295 261.9185 Z"
         style="fill:none; clip-path:url(#clipPath65); stroke:blue;"
         clip-path="url(#clipPath65)"
         id="path548" />
      <text
         x="622"
         y="268"
         text-decoration="underline"
         style="clip-path:url(#clipPath65); fill:blue; stroke:none;"
         xml:space="preserve"
         clip-path="url(#clipPath65)"
         id="text550">OMIM:616028</text>
      <text
         x="585"
         y="281"
         text-decoration="underline"
         style="clip-path:url(#clipPath65); fill:blue; stroke:none;"
         xml:space="preserve"
         clip-path="url(#clipPath65)"
         id="text552">Adams-Oliver Syndrome 5</text>
    </g>
    <g
       style="fill:rgb(255,206,206); text-rendering:geometricPrecision; stroke:rgb(255,206,206);"
       id="g564">
      <path
         d="M162.5553 378.2383 L162.5553 397.2383 C162.5553 402.7611 167.0324 407.2383 172.5553 407.2383 L447.471 407.2383 C452.9939 407.2383 457.471 402.7611 457.471 397.2383 L457.471 378.2383 C457.471 372.7154 452.9939 368.2383 447.471 368.2383 L172.5553 368.2383 C167.0324 368.2383 162.5553 372.7154 162.5553 378.2383 Z"
         style="clip-path:url(#clipPath66); stroke:none;"
         clip-path="url(#clipPath66)"
         id="path556" />
      <path
         d="M162.5553 378.2383 L162.5553 397.2383 C162.5553 402.7611 167.0324 407.2383 172.5553 407.2383 L447.471 407.2383 C452.9939 407.2383 457.471 402.7611 457.471 397.2383 L457.471 378.2383 C457.471 372.7154 452.9939 368.2383 447.471 368.2383 L172.5553 368.2383 C167.0324 368.2383 162.5553 372.7154 162.5553 378.2383 Z"
         style="fill:none; clip-path:url(#clipPath66); stroke:blue;"
         clip-path="url(#clipPath66)"
         id="path558" />
      <text
         x="269"
         y="385"
         text-decoration="underline"
         style="clip-path:url(#clipPath66); fill:blue; stroke:none;"
         xml:space="preserve"
         clip-path="url(#clipPath66)"
         id="text560">OMIM:608681</text>
      <text
         x="158"
         y="398"
         text-decoration="underline"
         style="clip-path:url(#clipPath66); fill:blue; stroke:none;"
         xml:space="preserve"
         clip-path="url(#clipPath66)"
         id="text562">Spondylocostal Dysostosis 2, Autosomal Recessive</text>
    </g>
    <g
       style="stroke-dasharray:4,4; text-rendering:geometricPrecision;"
       id="g570">
      <path
         d="M320.1228 502.1157 L262.3347 502.0862"
         style="fill:none; clip-path:url(#clipPath67);"
         clip-path="url(#clipPath67)"
         id="path566" />
      <path
         d="M262.3347 502.0862 L274.032 507.2922 L274.0373 496.8922 Z"
         style="stroke-dasharray:none; clip-path:url(#clipPath67); fill-rule:evenodd; stroke:none;"
         clip-path="url(#clipPath67)"
         id="path568" />
    </g>
    <g
       style="stroke-dasharray:4,4; text-rendering:geometricPrecision;"
       id="g576">
      <path
         d="M488.112 489.6157 L488.112 445.0128 M488.112 445.0128 L383.7421 445.0128 M383.7421 445.0128 L383.7421 407.2383"
         style="fill:none; clip-path:url(#clipPath68);"
         clip-path="url(#clipPath68)"
         id="path572" />
      <path
         d="M383.7421 407.2383 L378.5421 418.9383 L388.9421 418.9383 Z"
         style="stroke-dasharray:none; clip-path:url(#clipPath68); fill-rule:evenodd; stroke:none;"
         clip-path="url(#clipPath68)"
         id="path574" />
    </g>
    <g
       style="stroke-dasharray:4,4; text-rendering:geometricPrecision;"
       id="g582">
      <path
         d="M663.4938 399.9059 L663.4938 290.9185"
         style="fill:none; clip-path:url(#clipPath69);"
         clip-path="url(#clipPath69)"
         id="path578" />
      <path
         d="M663.4938 290.9185 L658.2938 302.6185 L668.6938 302.6185 Z"
         style="stroke-dasharray:none; clip-path:url(#clipPath69); fill-rule:evenodd; stroke:none;"
         clip-path="url(#clipPath69)"
         id="path580" />
    </g>
    <g
       style="stroke-dasharray:4,4; text-rendering:geometricPrecision;"
       id="g588">
      <path
         d="M833.3898 345.3056 L910.3853 345.3056"
         style="fill:none; clip-path:url(#clipPath70);"
         clip-path="url(#clipPath70)"
         id="path584" />
      <path
         d="M910.3853 345.3056 L898.6853 340.1056 L898.6853 350.5056 Z"
         style="stroke-dasharray:none; clip-path:url(#clipPath70); fill-rule:evenodd; stroke:none;"
         clip-path="url(#clipPath70)"
         id="path586" />
    </g>
    <g
       style="stroke-dasharray:4,4; text-rendering:geometricPrecision;"
       id="g594">
      <path
         d="M663.4938 514.6157 L663.4938 655.9944"
         style="fill:none; clip-path:url(#clipPath71);"
         clip-path="url(#clipPath71)"
         id="path590" />
      <path
         d="M663.4938 655.9944 L668.6938 644.2944 L658.2938 644.2944 Z"
         style="stroke-dasharray:none; clip-path:url(#clipPath71); fill-rule:evenodd; stroke:none;"
         clip-path="url(#clipPath71)"
         id="path592" />
    </g>
    <g
       style="stroke-dasharray:4,4; text-rendering:geometricPrecision;"
       id="g600">
      <path
         d="M867.3768 514.6157 L867.3768 580.7227"
         style="fill:none; clip-path:url(#clipPath72);"
         clip-path="url(#clipPath72)"
         id="path596" />
      <path
         d="M867.3768 580.7227 L872.5768 569.0227 L862.1768 569.0227 Z"
         style="stroke-dasharray:none; clip-path:url(#clipPath72); fill-rule:evenodd; stroke:none;"
         clip-path="url(#clipPath72)"
         id="path598" />
    </g>
  </g>
</svg>
