<?xml version="1.0" encoding="UTF-8" standalone="no"?>
<svg
   style="fill-opacity:1; color-rendering:auto; color-interpolation:auto; stroke:black; text-rendering:auto; stroke-linecap:square; stroke-miterlimit:10; stroke-opacity:1; shape-rendering:auto; fill:black; stroke-dasharray:none; font-weight:normal; stroke-width:1; font-family:'Dialog'; font-style:normal; stroke-linejoin:miter; font-size:12; stroke-dashoffset:0; image-rendering:auto;"
   width="992"
   height="575"
   version="1.1"
   id="svg471"
   xmlns="http://www.w3.org/2000/svg"
   xmlns:svg="http://www.w3.org/2000/svg">
  <!--Generated by the Batik Graphics2D SVG Generator-->
  <defs
     id="genericDefs" />
  <g
     id="g469">
    <defs
       id="defs1">
      <clipPath
         clipPathUnits="userSpaceOnUse"
         id="clipPath1">
        <path
           d="M0 0 L1007 0 L1007 590 L0 590 L0 0 Z"
           id="path3" />
      </clipPath>
      <clipPath
         clipPathUnits="userSpaceOnUse"
         id="clipPath2">
        <path
           d="M0 0 L0 200 L200 200 L200 0 Z"
           id="path6" />
      </clipPath>
      <clipPath
         clipPathUnits="userSpaceOnUse"
         id="clipPath3">
        <path
           d="M239.6035 345.8423 L239.6035 357.2426 L271.6015 357.2426 L271.6015 345.8423 Z"
           id="path9" />
      </clipPath>
      <clipPath
         clipPathUnits="userSpaceOnUse"
         id="clipPath4">
        <path
           d="M87.4751 312.5 L87.4751 381.4311 L99.4138 381.4311 L99.4138 312.5 Z"
           id="path12" />
      </clipPath>
      <clipPath
         clipPathUnits="userSpaceOnUse"
         id="clipPath5">
        <path
           d="M763.4819 414.0306 L763.4819 425.9694 L891.9125 425.9694 L891.9125 414.0306 Z"
           id="path15" />
      </clipPath>
      <clipPath
         clipPathUnits="userSpaceOnUse"
         id="clipPath6">
        <path
           d="M191.0511 252.9145 L191.0511 301.7377 L205.53 301.7377 L205.53 252.9145 Z"
           id="path18" />
      </clipPath>
      <clipPath
         clipPathUnits="userSpaceOnUse"
         id="clipPath7">
        <path
           d="M297.2714 313.1574 L297.2714 382.4033 L309.2101 382.4033 L309.2101 313.1574 Z"
           id="path21" />
      </clipPath>
      <clipPath
         clipPathUnits="userSpaceOnUse"
         id="clipPath8">
        <path
           d="M927.0121 432 L927.0121 539.4312 L938.9508 539.4312 L938.9508 432 Z"
           id="path24" />
      </clipPath>
      <clipPath
         clipPathUnits="userSpaceOnUse"
         id="clipPath9">
        <path
           d="M877.4815 482.3 L877.4815 493.7 L933.8815 493.7 L933.8815 482.3 Z"
           id="path27" />
      </clipPath>
      <clipPath
         clipPathUnits="userSpaceOnUse"
         id="clipPath10">
        <path
           d="M264.7251 309.3189 L264.7251 378 L276.6638 378 L276.6638 309.3189 Z"
           id="path30" />
      </clipPath>
      <clipPath
         clipPathUnits="userSpaceOnUse"
         id="clipPath11">
        <path
           d="M508.3597 251.2038 L508.3597 299.9016 L519.7598 299.9016 L519.7598 251.2038 Z"
           id="path33" />
      </clipPath>
      <clipPath
         clipPathUnits="userSpaceOnUse"
         id="clipPath12">
        <path
           d="M132.4751 309.0689 L132.4751 378 L144.4138 378 L144.4138 309.0689 Z"
           id="path36" />
      </clipPath>
      <clipPath
         clipPathUnits="userSpaceOnUse"
         id="clipPath13">
        <path
           d="M137.5439 345.9272 L137.5439 357.3272 L240.6371 357.3272 L240.6371 345.9272 Z"
           id="path39" />
      </clipPath>
      <clipPath
         clipPathUnits="userSpaceOnUse"
         id="clipPath14">
        <path
           d="M494.4815 293.0306 L494.4815 304.9694 L546.9125 304.9694 L546.9125 293.0306 Z"
           id="path42" />
      </clipPath>
      <clipPath
         clipPathUnits="userSpaceOnUse"
         id="clipPath15">
        <path
           d="M160.4444 294.7806 L160.4444 306.7194 L252.1255 306.7194 L252.1255 294.7806 Z"
           id="path45" />
      </clipPath>
      <clipPath
         clipPathUnits="userSpaceOnUse"
         id="clipPath16">
        <path
           d="M808.0702 383.8782 L808.0702 420.9038 L819.4704 420.9038 L819.4704 383.8782 Z"
           id="path48" />
      </clipPath>
      <clipPath
         clipPathUnits="userSpaceOnUse"
         id="clipPath17">
        <path
           d="M718.0817 483.2698 L718.0817 494.6698 L878.4847 494.6698 L878.4847 483.2698 Z"
           id="path51" />
      </clipPath>
      <clipPath
         clipPathUnits="userSpaceOnUse"
         id="clipPath18">
        <path
           d="M713.0125 312 L713.0125 411.4311 L724.9513 411.4311 L724.9513 312 Z"
           id="path54" />
      </clipPath>
      <clipPath
         clipPathUnits="userSpaceOnUse"
         id="clipPath19">
        <path
           d="M713.0125 432 L713.0125 539.4312 L724.9513 539.4312 L724.9513 432 Z"
           id="path57" />
      </clipPath>
      <clipPath
         clipPathUnits="userSpaceOnUse"
         id="clipPath20">
        <path
           d="M632.4694 293.8007 L632.4694 305.736 L677.9118 305.736 L677.9118 293.8007 Z"
           id="path60" />
      </clipPath>
      <clipPath
         clipPathUnits="userSpaceOnUse"
         id="clipPath21">
        <path
           d="M684.4742 344.8706 L684.4742 356.2706 L719.8824 356.2706 L719.8824 344.8706 Z"
           id="path63" />
      </clipPath>
      <clipPath
         clipPathUnits="userSpaceOnUse"
         id="clipPath22">
        <path
           d="M337.6815 293.2815 L337.6815 305.2162 L408.9112 305.2162 L408.9112 293.2815 Z"
           id="path66" />
      </clipPath>
      <clipPath
         clipPathUnits="userSpaceOnUse"
         id="clipPath23">
        <path
           d="M922.9815 501.6 L922.9815 522.6 L933.9815 522.6 L933.9815 501.6 Z"
           id="path69" />
      </clipPath>
      <clipPath
         clipPathUnits="userSpaceOnUse"
         id="clipPath24">
        <path
           d="M922.4366 489.518 L933.5264 489.518 L933.5264 504.8305 L922.4366 504.8305 L922.4366 489.518 Z"
           id="path72" />
      </clipPath>
      <clipPath
         clipPathUnits="userSpaceOnUse"
         id="clipPath25">
        <path
           d="M503.8215 281.8149 L503.8215 302.8149 L514.8215 302.8149 L514.8215 281.8149 Z"
           id="path75" />
      </clipPath>
      <clipPath
         clipPathUnits="userSpaceOnUse"
         id="clipPath26">
        <path
           d="M503.2766 269.7328 L514.3664 269.7328 L514.3664 285.0453 L503.2766 285.0453 L503.2766 269.7328 Z"
           id="path78" />
      </clipPath>
      <clipPath
         clipPathUnits="userSpaceOnUse"
         id="clipPath27">
        <path
           d="M708.9819 376 L708.9819 397 L719.9819 397 L719.9819 376 Z"
           id="path81" />
      </clipPath>
      <clipPath
         clipPathUnits="userSpaceOnUse"
         id="clipPath28">
        <path
           d="M708.437 363.918 L719.5268 363.918 L719.5268 379.2305 L708.437 379.2305 L708.437 363.918 Z"
           id="path84" />
      </clipPath>
      <clipPath
         clipPathUnits="userSpaceOnUse"
         id="clipPath29">
        <path
           d="M840.7816 417 L840.7816 438 L851.7816 438 L851.7816 417 Z"
           id="path87" />
      </clipPath>
      <clipPath
         clipPathUnits="userSpaceOnUse"
         id="clipPath30">
        <path
           d="M840.2367 404.918 L851.3265 404.918 L851.3265 420.2305 L840.2367 420.2305 L840.2367 404.918 Z"
           id="path90" />
      </clipPath>
      <clipPath
         clipPathUnits="userSpaceOnUse"
         id="clipPath31">
        <path
           d="M708.9819 501.6 L708.9819 522.6 L719.9819 522.6 L719.9819 501.6 Z"
           id="path93" />
      </clipPath>
      <clipPath
         clipPathUnits="userSpaceOnUse"
         id="clipPath32">
        <path
           d="M708.437 489.518 L719.5268 489.518 L719.5268 504.8305 L708.437 504.8305 L708.437 489.518 Z"
           id="path96" />
      </clipPath>
      <clipPath
         clipPathUnits="userSpaceOnUse"
         id="clipPath33">
        <path
           d="M188.5744 283.575 L188.5744 304.575 L199.5744 304.575 L199.5744 283.575 Z"
           id="path99" />
      </clipPath>
      <clipPath
         clipPathUnits="userSpaceOnUse"
         id="clipPath34">
        <path
           d="M188.0295 271.493 L199.1194 271.493 L199.1194 286.8055 L188.0295 286.8055 L188.0295 271.493 Z"
           id="path102" />
      </clipPath>
      <clipPath
         clipPathUnits="userSpaceOnUse"
         id="clipPath35">
        <path
           d="M467.4815 226.2163 L467.4815 252.2163 L558.4815 252.2163 L558.4815 226.2163 Z"
           id="path105" />
      </clipPath>
      <clipPath
         clipPathUnits="userSpaceOnUse"
         id="clipPath36">
        <path
           d="M247.6944 287.75 L247.6944 313.75 L338.6945 313.75 L338.6945 287.75 Z"
           id="path108" />
      </clipPath>
      <clipPath
         clipPathUnits="userSpaceOnUse"
         id="clipPath37">
        <path
           d="M159.4444 228 L159.4444 254 L250.4444 254 L250.4444 228 Z"
           id="path111" />
      </clipPath>
      <clipPath
         clipPathUnits="userSpaceOnUse"
         id="clipPath38">
        <path
           d="M404.4815 286 L404.4815 312 L495.4815 312 L495.4815 286 Z"
           id="path114" />
      </clipPath>
      <clipPath
         clipPathUnits="userSpaceOnUse"
         id="clipPath39">
        <path
           d="M628.4815 338 L628.4815 364 L685.4815 364 L685.4815 338 Z"
           id="path117" />
      </clipPath>
      <clipPath
         clipPathUnits="userSpaceOnUse"
         id="clipPath40">
        <path
           d="M70.4444 377 L70.4444 403 L161.4444 403 L161.4444 377 Z"
           id="path120" />
      </clipPath>
      <clipPath
         clipPathUnits="userSpaceOnUse"
         id="clipPath41">
        <path
           d="M769.4815 358.8975 L769.4815 384.8975 L860.4815 384.8975 L860.4815 358.8975 Z"
           id="path123" />
      </clipPath>
      <clipPath
         clipPathUnits="userSpaceOnUse"
         id="clipPath42">
        <path
           d="M247.6944 377 L247.6944 403 L338.6945 403 L338.6945 377 Z"
           id="path126" />
      </clipPath>
      <clipPath
         clipPathUnits="userSpaceOnUse"
         id="clipPath43">
        <path
           d="M673.4819 535 L673.4819 561 L764.4819 561 L764.4819 535 Z"
           id="path129" />
      </clipPath>
      <clipPath
         clipPathUnits="userSpaceOnUse"
         id="clipPath44">
        <path
           d="M542.4815 286 L542.4815 312 L633.4815 312 L633.4815 286 Z"
           id="path132" />
      </clipPath>
      <clipPath
         clipPathUnits="userSpaceOnUse"
         id="clipPath45">
        <path
           d="M673.4819 407 L673.4819 433 L764.4819 433 L764.4819 407 Z"
           id="path135" />
      </clipPath>
      <clipPath
         clipPathUnits="userSpaceOnUse"
         id="clipPath46">
        <path
           d="M887.4815 535 L887.4815 561 L978.4815 561 L978.4815 535 Z"
           id="path138" />
      </clipPath>
      <clipPath
         clipPathUnits="userSpaceOnUse"
         id="clipPath47">
        <path
           d="M673.4819 287 L673.4819 313 L764.4819 313 L764.4819 287 Z"
           id="path141" />
      </clipPath>
      <clipPath
         clipPathUnits="userSpaceOnUse"
         id="clipPath48">
        <path
           d="M887.4815 407 L887.4815 433 L978.4815 433 L978.4815 407 Z"
           id="path144" />
      </clipPath>
      <clipPath
         clipPathUnits="userSpaceOnUse"
         id="clipPath49">
        <path
           d="M787.4815 475 L787.4815 501 L878.4815 501 L878.4815 475 Z"
           id="path147" />
      </clipPath>
      <clipPath
         clipPathUnits="userSpaceOnUse"
         id="clipPath50">
        <path
           d="M70.4444 288 L70.4444 313.5 L161.4444 313.5 L161.4444 288 Z"
           id="path150" />
      </clipPath>
      <clipPath
         clipPathUnits="userSpaceOnUse"
         id="clipPath51">
        <path
           d="M178.6296 337.1574 L178.6296 363.1574 L240.6296 363.1574 L240.6296 337.1574 Z"
           id="path153" />
      </clipPath>
    </defs>
    <g
       style="fill:white; stroke:white;"
       id="g159">
      <rect
         x="0"
         width="1007"
         height="590"
         y="0"
         style="stroke:none;"
         id="rect157" />
    </g>
    <g
       style="font-weight:bold; font-size:10; text-rendering:geometricPrecision;"
       id="g169">
      <path
         d="M0.0469 4.7031 L6.7656 4.7031 L6.7656 6.125 L4.3438 6.125 L4.3438 12 L2.4688 12 L2.4688 6.125 L0.0469 6.125 L0.0469 4.7031 ZM7.665 6.5312 L9.415 6.5312 L9.415 12 L7.665 12 L7.665 6.5312 ZM7.665 4.4062 L9.415 4.4062 L9.415 5.8281 L7.665 5.8281 L7.665 4.4062 ZM12.999 4.9844 L12.999 6.5312 L14.7959 6.5312 L14.7959 7.7812 L12.999 7.7812 L12.999 10.0938 Q12.999 10.4844 13.1475 10.6172 Q13.2959 10.75 13.749 10.75 L14.6553 10.75 L14.6553 12 L13.1553 12 Q12.1084 12 11.6787 11.5703 Q11.249 11.1406 11.249 10.0938 L11.249 7.7812 L10.374 7.7812 L10.374 6.5312 L11.249 6.5312 L11.249 4.9844 L12.999 4.9844 ZM15.873 4.4062 L17.623 4.4062 L17.623 12 L15.873 12 L15.873 4.4062 ZM24.7539 9.25 L24.7539 9.75 L20.6758 9.75 Q20.7383 10.3594 21.1133 10.6719 Q21.4883 10.9844 22.1758 10.9844 Q22.7227 10.9844 23.3086 10.8203 Q23.8945 10.6562 24.5039 10.3125 L24.5039 11.6719 Q23.8789 11.9062 23.2617 12.0234 Q22.6445 12.1406 22.0195 12.1406 Q20.5352 12.1406 19.7148 11.3828 Q18.8945 10.625 18.8945 9.2656 Q18.8945 7.9375 19.6992 7.1719 Q20.5039 6.4062 21.9258 6.4062 Q23.207 6.4062 23.9805 7.1797 Q24.7539 7.9531 24.7539 9.25 ZM22.957 8.6719 Q22.957 8.1719 22.668 7.8672 Q22.3789 7.5625 21.9102 7.5625 Q21.3945 7.5625 21.082 7.8438 Q20.7695 8.125 20.6914 8.6719 L22.957 8.6719 ZM26.3643 6.5312 L28.1143 6.5312 L28.1143 8.4219 L26.3643 8.4219 L26.3643 6.5312 ZM26.3643 10.1094 L28.1143 10.1094 L28.1143 12 L26.3643 12 L26.3643 10.1094 Z"
         style="clip-path:url(#clipPath2); stroke:none;"
         clip-path="url(#clipPath2)"
         id="path161" />
      <path
         d="M43.3594 4.9531 L43.3594 5.9062 Q42.7969 5.6406 42.2969 5.5078 Q41.7969 5.375 41.3281 5.375 Q40.5312 5.375 40.0938 5.6875 Q39.6562 6 39.6562 6.5781 Q39.6562 7.0625 39.9453 7.3125 Q40.2344 7.5625 41.0469 7.7031 L41.6406 7.8281 Q42.7344 8.0469 43.2656 8.5703 Q43.7969 9.0938 43.7969 9.9844 Q43.7969 11.0469 43.0859 11.5938 Q42.375 12.1406 41 12.1406 Q40.4844 12.1406 39.8984 12.0234 Q39.3125 11.9062 38.6875 11.6719 L38.6875 10.6562 Q39.2969 11 39.8672 11.1719 Q40.4375 11.3438 41 11.3438 Q41.8438 11.3438 42.3047 11.0078 Q42.7656 10.6719 42.7656 10.0625 Q42.7656 9.5312 42.4375 9.2266 Q42.1094 8.9219 41.3438 8.7656 L40.75 8.6562 Q39.6406 8.4375 39.1484 7.9688 Q38.6562 7.5 38.6562 6.6562 Q38.6562 5.6875 39.3359 5.1328 Q40.0156 4.5781 41.2188 4.5781 Q41.7344 4.5781 42.2656 4.6719 Q42.7969 4.7656 43.3594 4.9531 ZM49.9727 9.0469 L49.9727 9.4844 L45.832 9.4844 Q45.8945 10.4062 46.3945 10.8906 Q46.8945 11.375 47.7852 11.375 Q48.3008 11.375 48.793 11.25 Q49.2852 11.125 49.7539 10.875 L49.7539 11.7188 Q49.2695 11.9219 48.7617 12.0312 Q48.2539 12.1406 47.7383 12.1406 Q46.4258 12.1406 45.6602 11.3828 Q44.8945 10.625 44.8945 9.3125 Q44.8945 7.9688 45.6211 7.1875 Q46.3477 6.4062 47.582 6.4062 Q48.6914 6.4062 49.332 7.1094 Q49.9727 7.8125 49.9727 9.0469 ZM49.0664 8.7812 Q49.0664 8.0469 48.6602 7.6016 Q48.2539 7.1562 47.5977 7.1562 Q46.832 7.1562 46.3867 7.5859 Q45.9414 8.0156 45.8633 8.7812 L49.0664 8.7812 ZM55.375 9.2656 Q55.375 8.2812 54.9609 7.7188 Q54.5469 7.1562 53.8438 7.1562 Q53.125 7.1562 52.7188 7.7188 Q52.3125 8.2812 52.3125 9.2656 Q52.3125 10.2656 52.7188 10.8281 Q53.125 11.3906 53.8438 11.3906 Q54.5469 11.3906 54.9609 10.8281 Q55.375 10.2656 55.375 9.2656 ZM52.3125 7.3594 Q52.5938 6.875 53.0234 6.6406 Q53.4531 6.4062 54.0625 6.4062 Q55.0625 6.4062 55.6797 7.1953 Q56.2969 7.9844 56.2969 9.2656 Q56.2969 10.5625 55.6797 11.3516 Q55.0625 12.1406 54.0625 12.1406 Q53.4531 12.1406 53.0234 11.9062 Q52.5938 11.6719 52.3125 11.1719 L52.3125 12 L51.4062 12 L51.4062 4.4062 L52.3125 4.4062 L52.3125 7.3594 ZM60.2695 9.25 Q59.1914 9.25 58.7695 9.5 Q58.3477 9.75 58.3477 10.3438 Q58.3477 10.8281 58.6602 11.1094 Q58.9727 11.3906 59.5195 11.3906 Q60.2695 11.3906 60.7227 10.8594 Q61.1758 10.3281 61.1758 9.4531 L61.1758 9.25 L60.2695 9.25 ZM62.0664 8.875 L62.0664 12 L61.1758 12 L61.1758 11.1719 Q60.8633 11.6719 60.4023 11.9062 Q59.9414 12.1406 59.2852 12.1406 Q58.4414 12.1406 57.9414 11.6719 Q57.4414 11.2031 57.4414 10.4062 Q57.4414 9.4844 58.0664 9.0156 Q58.6914 8.5469 59.9102 8.5469 L61.1758 8.5469 L61.1758 8.4531 Q61.1758 7.8438 60.7617 7.5 Q60.3477 7.1562 59.6133 7.1562 Q59.1445 7.1562 58.6992 7.2734 Q58.2539 7.3906 57.8477 7.6094 L57.8477 6.7812 Q58.3477 6.5938 58.8086 6.5 Q59.2695 6.4062 59.707 6.4062 Q60.8945 6.4062 61.4805 7.0156 Q62.0664 7.625 62.0664 8.875 ZM63.9131 4.4062 L64.8193 4.4062 L64.8193 12 L63.9131 12 L63.9131 4.4062 ZM71.3789 9.0469 L71.3789 9.4844 L67.2383 9.4844 Q67.3008 10.4062 67.8008 10.8906 Q68.3008 11.375 69.1914 11.375 Q69.707 11.375 70.1992 11.25 Q70.6914 11.125 71.1602 10.875 L71.1602 11.7188 Q70.6758 11.9219 70.168 12.0312 Q69.6602 12.1406 69.1445 12.1406 Q67.832 12.1406 67.0664 11.3828 Q66.3008 10.625 66.3008 9.3125 Q66.3008 7.9688 67.0273 7.1875 Q67.7539 6.4062 68.9883 6.4062 Q70.0977 6.4062 70.7383 7.1094 Q71.3789 7.8125 71.3789 9.0469 ZM70.4727 8.7812 Q70.4727 8.0469 70.0664 7.6016 Q69.6602 7.1562 69.0039 7.1562 Q68.2383 7.1562 67.793 7.5859 Q67.3477 8.0156 67.2695 8.7812 L70.4727 8.7812 ZM72.8438 6.5312 L73.75 6.5312 L73.75 12 L72.8438 12 L72.8438 6.5312 ZM72.8438 4.4062 L73.75 4.4062 L73.75 5.5469 L72.8438 5.5469 L72.8438 4.4062 ZM79.5596 6.7344 L79.5596 7.5781 Q79.1846 7.375 78.8018 7.2656 Q78.4189 7.1562 78.0283 7.1562 Q77.1533 7.1562 76.6689 7.7109 Q76.1846 8.2656 76.1846 9.2656 Q76.1846 10.2656 76.6689 10.8203 Q77.1533 11.375 78.0283 11.375 Q78.4189 11.375 78.8018 11.2734 Q79.1846 11.1719 79.5596 10.9531 L79.5596 11.7969 Q79.1846 11.9688 78.7861 12.0547 Q78.3877 12.1406 77.9346 12.1406 Q76.6846 12.1406 75.958 11.3672 Q75.2314 10.5938 75.2314 9.2656 Q75.2314 7.9375 75.9658 7.1719 Q76.7002 6.4062 77.9814 6.4062 Q78.4033 6.4062 78.7939 6.4844 Q79.1846 6.5625 79.5596 6.7344 ZM86.7832 9.25 Q85.7051 9.25 85.2832 9.5 Q84.8613 9.75 84.8613 10.3438 Q84.8613 10.8281 85.1738 11.1094 Q85.4863 11.3906 86.0332 11.3906 Q86.7832 11.3906 87.2363 10.8594 Q87.6895 10.3281 87.6895 9.4531 L87.6895 9.25 L86.7832 9.25 ZM88.5801 8.875 L88.5801 12 L87.6895 12 L87.6895 11.1719 Q87.377 11.6719 86.916 11.9062 Q86.4551 12.1406 85.7988 12.1406 Q84.9551 12.1406 84.4551 11.6719 Q83.9551 11.2031 83.9551 10.4062 Q83.9551 9.4844 84.5801 9.0156 Q85.2051 8.5469 86.4238 8.5469 L87.6895 8.5469 L87.6895 8.4531 Q87.6895 7.8438 87.2754 7.5 Q86.8613 7.1562 86.127 7.1562 Q85.6582 7.1562 85.2129 7.2734 Q84.7676 7.3906 84.3613 7.6094 L84.3613 6.7812 Q84.8613 6.5938 85.3223 6.5 Q85.7832 6.4062 86.2207 6.4062 Q87.4082 6.4062 87.9941 7.0156 Q88.5801 7.625 88.5801 8.875 ZM94.3643 6.7344 L94.3643 7.5781 Q93.9893 7.375 93.6064 7.2656 Q93.2236 7.1562 92.833 7.1562 Q91.958 7.1562 91.4736 7.7109 Q90.9893 8.2656 90.9893 9.2656 Q90.9893 10.2656 91.4736 10.8203 Q91.958 11.375 92.833 11.375 Q93.2236 11.375 93.6064 11.2734 Q93.9893 11.1719 94.3643 10.9531 L94.3643 11.7969 Q93.9893 11.9688 93.5908 12.0547 Q93.1924 12.1406 92.7393 12.1406 Q91.4893 12.1406 90.7627 11.3672 Q90.0361 10.5938 90.0361 9.2656 Q90.0361 7.9375 90.7705 7.1719 Q91.5049 6.4062 92.7861 6.4062 Q93.208 6.4062 93.5986 6.4844 Q93.9893 6.5625 94.3643 6.7344 ZM95.9248 6.5312 L96.8311 6.5312 L96.8311 12 L95.9248 12 L95.9248 6.5312 ZM95.9248 4.4062 L96.8311 4.4062 L96.8311 5.5469 L95.9248 5.5469 L95.9248 4.4062 ZM102.3125 7.3594 L102.3125 4.4062 L103.2031 4.4062 L103.2031 12 L102.3125 12 L102.3125 11.1719 Q102.0312 11.6719 101.5938 11.9062 Q101.1562 12.1406 100.5469 12.1406 Q99.5625 12.1406 98.9375 11.3516 Q98.3125 10.5625 98.3125 9.2656 Q98.3125 7.9844 98.9375 7.1953 Q99.5625 6.4062 100.5469 6.4062 Q101.1562 6.4062 101.5938 6.6406 Q102.0312 6.875 102.3125 7.3594 ZM99.25 9.2656 Q99.25 10.2656 99.6562 10.8281 Q100.0625 11.3906 100.7812 11.3906 Q101.4844 11.3906 101.8984 10.8281 Q102.3125 10.2656 102.3125 9.2656 Q102.3125 8.2812 101.8984 7.7188 Q101.4844 7.1562 100.7812 7.1562 Q100.0625 7.1562 99.6562 7.7188 Q99.25 8.2812 99.25 9.2656 ZM111.0107 4.4062 L111.0107 5.1562 L110.1514 5.1562 Q109.667 5.1562 109.4795 5.3516 Q109.292 5.5469 109.292 6.0469 L109.292 6.5312 L110.7607 6.5312 L110.7607 7.2344 L109.292 7.2344 L109.292 12 L108.3857 12 L108.3857 7.2344 L107.5264 7.2344 L107.5264 6.5312 L108.3857 6.5312 L108.3857 6.1562 Q108.3857 5.2344 108.8076 4.8203 Q109.2295 4.4062 110.1514 4.4062 L111.0107 4.4062 ZM113.875 7.1562 Q113.1562 7.1562 112.7344 7.7188 Q112.3125 8.2812 112.3125 9.2656 Q112.3125 10.25 112.7266 10.8125 Q113.1406 11.375 113.875 11.375 Q114.5938 11.375 115.0156 10.8125 Q115.4375 10.25 115.4375 9.2656 Q115.4375 8.2969 115.0156 7.7266 Q114.5938 7.1562 113.875 7.1562 ZM113.875 6.4062 Q115.0469 6.4062 115.7188 7.1641 Q116.3906 7.9219 116.3906 9.2656 Q116.3906 10.6094 115.7188 11.375 Q115.0469 12.1406 113.875 12.1406 Q112.7031 12.1406 112.0312 11.375 Q111.3594 10.6094 111.3594 9.2656 Q111.3594 7.9219 112.0312 7.1641 Q112.7031 6.4062 113.875 6.4062 ZM121.04 7.375 Q120.8838 7.2812 120.7119 7.2422 Q120.54 7.2031 120.3213 7.2031 Q119.5557 7.2031 119.1494 7.6953 Q118.7432 8.1875 118.7432 9.125 L118.7432 12 L117.8369 12 L117.8369 6.5312 L118.7432 6.5312 L118.7432 7.375 Q119.0244 6.875 119.4775 6.6406 Q119.9307 6.4062 120.5869 6.4062 Q120.6807 6.4062 120.79 6.4141 Q120.8994 6.4219 121.04 6.4531 L121.04 7.375 ZM126.2451 7.5781 Q126.5732 6.9688 127.042 6.6875 Q127.5107 6.4062 128.1514 6.4062 Q129.0107 6.4062 129.4717 7 Q129.9326 7.5938 129.9326 8.7031 L129.9326 12 L129.0264 12 L129.0264 8.7344 Q129.0264 7.9375 128.7529 7.5625 Q128.4795 7.1875 127.9014 7.1875 Q127.1982 7.1875 126.7998 7.6484 Q126.4014 8.1094 126.4014 8.9062 L126.4014 12 L125.4951 12 L125.4951 8.7344 Q125.4951 7.9375 125.2139 7.5625 Q124.9326 7.1875 124.3545 7.1875 Q123.667 7.1875 123.2607 7.6484 Q122.8545 8.1094 122.8545 8.9062 L122.8545 12 L121.9482 12 L121.9482 6.5312 L122.8545 6.5312 L122.8545 7.375 Q123.167 6.875 123.5967 6.6406 Q124.0264 6.4062 124.6045 6.4062 Q125.2139 6.4062 125.6279 6.7031 Q126.042 7 126.2451 7.5781 ZM134.2051 9.25 Q133.127 9.25 132.7051 9.5 Q132.2832 9.75 132.2832 10.3438 Q132.2832 10.8281 132.5957 11.1094 Q132.9082 11.3906 133.4551 11.3906 Q134.2051 11.3906 134.6582 10.8594 Q135.1113 10.3281 135.1113 9.4531 L135.1113 9.25 L134.2051 9.25 ZM136.002 8.875 L136.002 12 L135.1113 12 L135.1113 11.1719 Q134.7988 11.6719 134.3379 11.9062 Q133.877 12.1406 133.2207 12.1406 Q132.377 12.1406 131.877 11.6719 Q131.377 11.2031 131.377 10.4062 Q131.377 9.4844 132.002 9.0156 Q132.627 8.5469 133.8457 8.5469 L135.1113 8.5469 L135.1113 8.4531 Q135.1113 7.8438 134.6973 7.5 Q134.2832 7.1562 133.5488 7.1562 Q133.0801 7.1562 132.6348 7.2734 Q132.1895 7.3906 131.7832 7.6094 L131.7832 6.7812 Q132.2832 6.5938 132.7441 6.5 Q133.2051 6.4062 133.6426 6.4062 Q134.8301 6.4062 135.416 7.0156 Q136.002 7.625 136.002 8.875 ZM138.7393 4.9844 L138.7393 6.5312 L140.5986 6.5312 L140.5986 7.2344 L138.7393 7.2344 L138.7393 10.2031 Q138.7393 10.8594 138.9268 11.0547 Q139.1143 11.25 139.6768 11.25 L140.5986 11.25 L140.5986 12 L139.6768 12 Q138.6299 12 138.2314 11.6094 Q137.833 11.2188 137.833 10.2031 L137.833 7.2344 L137.1768 7.2344 L137.1768 6.5312 L137.833 6.5312 L137.833 4.9844 L138.7393 4.9844 ZM141.7695 6.5312 L142.6758 6.5312 L142.6758 12 L141.7695 12 L141.7695 6.5312 ZM141.7695 4.4062 L142.6758 4.4062 L142.6758 5.5469 L141.7695 5.5469 L141.7695 4.4062 ZM146.6729 7.1562 Q145.9541 7.1562 145.5322 7.7188 Q145.1104 8.2812 145.1104 9.2656 Q145.1104 10.25 145.5244 10.8125 Q145.9385 11.375 146.6729 11.375 Q147.3916 11.375 147.8135 10.8125 Q148.2354 10.25 148.2354 9.2656 Q148.2354 8.2969 147.8135 7.7266 Q147.3916 7.1562 146.6729 7.1562 ZM146.6729 6.4062 Q147.8447 6.4062 148.5166 7.1641 Q149.1885 7.9219 149.1885 9.2656 Q149.1885 10.6094 148.5166 11.375 Q147.8447 12.1406 146.6729 12.1406 Q145.501 12.1406 144.8291 11.375 Q144.1572 10.6094 144.1572 9.2656 Q144.1572 7.9219 144.8291 7.1641 Q145.501 6.4062 146.6729 6.4062 ZM155.2129 8.7031 L155.2129 12 L154.3223 12 L154.3223 8.7344 Q154.3223 7.9531 154.0176 7.5703 Q153.7129 7.1875 153.1035 7.1875 Q152.3848 7.1875 151.9629 7.6484 Q151.541 8.1094 151.541 8.9062 L151.541 12 L150.6348 12 L150.6348 6.5312 L151.541 6.5312 L151.541 7.375 Q151.8691 6.8906 152.3066 6.6484 Q152.7441 6.4062 153.3066 6.4062 Q154.2441 6.4062 154.7285 6.9844 Q155.2129 7.5625 155.2129 8.7031 ZM162.667 9.25 Q161.5889 9.25 161.167 9.5 Q160.7451 9.75 160.7451 10.3438 Q160.7451 10.8281 161.0576 11.1094 Q161.3701 11.3906 161.917 11.3906 Q162.667 11.3906 163.1201 10.8594 Q163.5732 10.3281 163.5732 9.4531 L163.5732 9.25 L162.667 9.25 ZM164.4639 8.875 L164.4639 12 L163.5732 12 L163.5732 11.1719 Q163.2607 11.6719 162.7998 11.9062 Q162.3389 12.1406 161.6826 12.1406 Q160.8389 12.1406 160.3389 11.6719 Q159.8389 11.2031 159.8389 10.4062 Q159.8389 9.4844 160.4639 9.0156 Q161.0889 8.5469 162.3076 8.5469 L163.5732 8.5469 L163.5732 8.4531 Q163.5732 7.8438 163.1592 7.5 Q162.7451 7.1562 162.0107 7.1562 Q161.542 7.1562 161.0967 7.2734 Q160.6514 7.3906 160.2451 7.6094 L160.2451 6.7812 Q160.7451 6.5938 161.2061 6.5 Q161.667 6.4062 162.1045 6.4062 Q163.292 6.4062 163.8779 7.0156 Q164.4639 7.625 164.4639 8.875 ZM170.8574 8.7031 L170.8574 12 L169.9668 12 L169.9668 8.7344 Q169.9668 7.9531 169.6621 7.5703 Q169.3574 7.1875 168.748 7.1875 Q168.0293 7.1875 167.6074 7.6484 Q167.1855 8.1094 167.1855 8.9062 L167.1855 12 L166.2793 12 L166.2793 6.5312 L167.1855 6.5312 L167.1855 7.375 Q167.5137 6.8906 167.9512 6.6484 Q168.3887 6.4062 168.9512 6.4062 Q169.8887 6.4062 170.373 6.9844 Q170.8574 7.5625 170.8574 8.7031 ZM176.2578 7.3594 L176.2578 4.4062 L177.1484 4.4062 L177.1484 12 L176.2578 12 L176.2578 11.1719 Q175.9766 11.6719 175.5391 11.9062 Q175.1016 12.1406 174.4922 12.1406 Q173.5078 12.1406 172.8828 11.3516 Q172.2578 10.5625 172.2578 9.2656 Q172.2578 7.9844 172.8828 7.1953 Q173.5078 6.4062 174.4922 6.4062 Q175.1016 6.4062 175.5391 6.6406 Q175.9766 6.875 176.2578 7.3594 ZM173.1953 9.2656 Q173.1953 10.2656 173.6016 10.8281 Q174.0078 11.3906 174.7266 11.3906 Q175.4297 11.3906 175.8438 10.8281 Q176.2578 10.2656 176.2578 9.2656 Q176.2578 8.2812 175.8438 7.7188 Q175.4297 7.1562 174.7266 7.1562 Q174.0078 7.1562 173.6016 7.7188 Q173.1953 8.2812 173.1953 9.2656 ZM186.4404 7.5781 Q186.7686 6.9688 187.2373 6.6875 Q187.7061 6.4062 188.3467 6.4062 Q189.2061 6.4062 189.667 7 Q190.1279 7.5938 190.1279 8.7031 L190.1279 12 L189.2217 12 L189.2217 8.7344 Q189.2217 7.9375 188.9482 7.5625 Q188.6748 7.1875 188.0967 7.1875 Q187.3936 7.1875 186.9951 7.6484 Q186.5967 8.1094 186.5967 8.9062 L186.5967 12 L185.6904 12 L185.6904 8.7344 Q185.6904 7.9375 185.4092 7.5625 Q185.1279 7.1875 184.5498 7.1875 Q183.8623 7.1875 183.4561 7.6484 Q183.0498 8.1094 183.0498 8.9062 L183.0498 12 L182.1436 12 L182.1436 6.5312 L183.0498 6.5312 L183.0498 7.375 Q183.3623 6.875 183.792 6.6406 Q184.2217 6.4062 184.7998 6.4062 Q185.4092 6.4062 185.8232 6.7031 Q186.2373 7 186.4404 7.5781 ZM196.6035 9.0469 L196.6035 9.4844 L192.4629 9.4844 Q192.5254 10.4062 193.0254 10.8906 Q193.5254 11.375 194.416 11.375 Q194.9316 11.375 195.4238 11.25 Q195.916 11.125 196.3848 10.875 L196.3848 11.7188 Q195.9004 11.9219 195.3926 12.0312 Q194.8848 12.1406 194.3691 12.1406 Q193.0566 12.1406 192.291 11.3828 Q191.5254 10.625 191.5254 9.3125 Q191.5254 7.9688 192.252 7.1875 Q192.9785 6.4062 194.2129 6.4062 Q195.3223 6.4062 195.9629 7.1094 Q196.6035 7.8125 196.6035 9.0469 ZM195.6973 8.7812 Q195.6973 8.0469 195.291 7.6016 Q194.8848 7.1562 194.2285 7.1562 Q193.4629 7.1562 193.0176 7.5859 Q192.5723 8.0156 192.4941 8.7812 L195.6973 8.7812 ZM198.959 4.9844 L198.959 6.5312 L200.8184 6.5312 L200.8184 7.2344 L198.959 7.2344 L198.959 10.2031 Q198.959 10.8594 199.1465 11.0547 Q199.334 11.25 199.8965 11.25 L200.8184 11.25 L200.8184 12 L199.8965 12 Q198.8496 12 198.4512 11.6094 Q198.0527 11.2188 198.0527 10.2031 L198.0527 7.2344 L197.3965 7.2344 L197.3965 6.5312 L198.0527 6.5312 L198.0527 4.9844 L198.959 4.9844 ZM204.4736 9.25 Q203.3955 9.25 202.9736 9.5 Q202.5518 9.75 202.5518 10.3438 Q202.5518 10.8281 202.8643 11.1094 Q203.1768 11.3906 203.7236 11.3906 Q204.4736 11.3906 204.9268 10.8594 Q205.3799 10.3281 205.3799 9.4531 L205.3799 9.25 L204.4736 9.25 ZM206.2705 8.875 L206.2705 12 L205.3799 12 L205.3799 11.1719 Q205.0674 11.6719 204.6064 11.9062 Q204.1455 12.1406 203.4893 12.1406 Q202.6455 12.1406 202.1455 11.6719 Q201.6455 11.2031 201.6455 10.4062 Q201.6455 9.4844 202.2705 9.0156 Q202.8955 8.5469 204.1143 8.5469 L205.3799 8.5469 L205.3799 8.4531 Q205.3799 7.8438 204.9658 7.5 Q204.5518 7.1562 203.8174 7.1562 Q203.3486 7.1562 202.9033 7.2734 Q202.458 7.3906 202.0518 7.6094 L202.0518 6.7812 Q202.5518 6.5938 203.0127 6.5 Q203.4736 6.4062 203.9111 6.4062 Q205.0986 6.4062 205.6846 7.0156 Q206.2705 7.625 206.2705 8.875 ZM212.0547 9.2656 Q212.0547 8.2812 211.6406 7.7188 Q211.2266 7.1562 210.5234 7.1562 Q209.8047 7.1562 209.3984 7.7188 Q208.9922 8.2812 208.9922 9.2656 Q208.9922 10.2656 209.3984 10.8281 Q209.8047 11.3906 210.5234 11.3906 Q211.2266 11.3906 211.6406 10.8281 Q212.0547 10.2656 212.0547 9.2656 ZM208.9922 7.3594 Q209.2734 6.875 209.7031 6.6406 Q210.1328 6.4062 210.7422 6.4062 Q211.7422 6.4062 212.3594 7.1953 Q212.9766 7.9844 212.9766 9.2656 Q212.9766 10.5625 212.3594 11.3516 Q211.7422 12.1406 210.7422 12.1406 Q210.1328 12.1406 209.7031 11.9062 Q209.2734 11.6719 208.9922 11.1719 L208.9922 12 L208.0859 12 L208.0859 4.4062 L208.9922 4.4062 L208.9922 7.3594 ZM216.5898 7.1562 Q215.8711 7.1562 215.4492 7.7188 Q215.0273 8.2812 215.0273 9.2656 Q215.0273 10.25 215.4414 10.8125 Q215.8555 11.375 216.5898 11.375 Q217.3086 11.375 217.7305 10.8125 Q218.1523 10.25 218.1523 9.2656 Q218.1523 8.2969 217.7305 7.7266 Q217.3086 7.1562 216.5898 7.1562 ZM216.5898 6.4062 Q217.7617 6.4062 218.4336 7.1641 Q219.1055 7.9219 219.1055 9.2656 Q219.1055 10.6094 218.4336 11.375 Q217.7617 12.1406 216.5898 12.1406 Q215.418 12.1406 214.7461 11.375 Q214.0742 10.6094 214.0742 9.2656 Q214.0742 7.9219 214.7461 7.1641 Q215.418 6.4062 216.5898 6.4062 ZM220.583 4.4062 L221.4893 4.4062 L221.4893 12 L220.583 12 L220.583 4.4062 ZM223.3613 6.5312 L224.2676 6.5312 L224.2676 12 L223.3613 12 L223.3613 6.5312 ZM223.3613 4.4062 L224.2676 4.4062 L224.2676 5.5469 L223.3613 5.5469 L223.3613 4.4062 ZM229.624 6.6875 L229.624 7.5469 Q229.249 7.3438 228.8428 7.25 Q228.4365 7.1562 227.9834 7.1562 Q227.3271 7.1562 226.9912 7.3594 Q226.6553 7.5625 226.6553 7.9688 Q226.6553 8.2812 226.8896 8.4609 Q227.124 8.6406 227.8584 8.7969 L228.1553 8.875 Q229.124 9.0781 229.5225 9.4531 Q229.9209 9.8281 229.9209 10.4844 Q229.9209 11.25 229.3193 11.6953 Q228.7178 12.1406 227.6709 12.1406 Q227.2178 12.1406 226.7412 12.0547 Q226.2646 11.9688 225.749 11.7969 L225.749 10.875 Q226.249 11.125 226.7256 11.2578 Q227.2021 11.3906 227.6865 11.3906 Q228.3115 11.3906 228.6553 11.1719 Q228.999 10.9531 228.999 10.5625 Q228.999 10.1875 228.7568 9.9922 Q228.5146 9.7969 227.6709 9.625 L227.3584 9.5469 Q226.5303 9.375 226.1553 9.0078 Q225.7803 8.6406 225.7803 8.0156 Q225.7803 7.2344 226.3271 6.8203 Q226.874 6.4062 227.8896 6.4062 Q228.374 6.4062 228.8193 6.4766 Q229.2646 6.5469 229.624 6.6875 ZM235.6152 7.5781 Q235.9434 6.9688 236.4121 6.6875 Q236.8809 6.4062 237.5215 6.4062 Q238.3809 6.4062 238.8418 7 Q239.3027 7.5938 239.3027 8.7031 L239.3027 12 L238.3965 12 L238.3965 8.7344 Q238.3965 7.9375 238.123 7.5625 Q237.8496 7.1875 237.2715 7.1875 Q236.5684 7.1875 236.1699 7.6484 Q235.7715 8.1094 235.7715 8.9062 L235.7715 12 L234.8652 12 L234.8652 8.7344 Q234.8652 7.9375 234.584 7.5625 Q234.3027 7.1875 233.7246 7.1875 Q233.0371 7.1875 232.6309 7.6484 Q232.2246 8.1094 232.2246 8.9062 L232.2246 12 L231.3184 12 L231.3184 6.5312 L232.2246 6.5312 L232.2246 7.375 Q232.5371 6.875 232.9668 6.6406 Q233.3965 6.4062 233.9746 6.4062 Q234.584 6.4062 234.998 6.7031 Q235.4121 7 235.6152 7.5781 Z"
         style="clip-path:url(#clipPath2); stroke:none;"
         clip-path="url(#clipPath2)"
         id="path163" />
      <path
         d="M4.25 19.9375 Q3.3906 19.9375 2.9141 20.5703 Q2.4375 21.2031 2.4375 22.3594 Q2.4375 23.5156 2.9141 24.1484 Q3.3906 24.7812 4.25 24.7812 Q5.1094 24.7812 5.5859 24.1484 Q6.0625 23.5156 6.0625 22.3594 Q6.0625 21.2031 5.5859 20.5703 Q5.1094 19.9375 4.25 19.9375 ZM4.25 18.5781 Q6 18.5781 7 19.5859 Q8 20.5938 8 22.3594 Q8 24.125 7 25.1328 Q6 26.1406 4.25 26.1406 Q2.5 26.1406 1.5 25.1328 Q0.5 24.125 0.5 22.3594 Q0.5 20.5938 1.5 19.5859 Q2.5 18.5781 4.25 18.5781 ZM13.4072 22.0156 Q13.1729 21.9062 12.9463 21.8594 Q12.7197 21.8125 12.4854 21.8125 Q11.8135 21.8125 11.4541 22.2422 Q11.0947 22.6719 11.0947 23.4844 L11.0947 26 L9.3447 26 L9.3447 20.5312 L11.0947 20.5312 L11.0947 21.4219 Q11.4229 20.8906 11.8604 20.6484 Q12.2979 20.4062 12.9072 20.4062 Q13.001 20.4062 13.1025 20.4062 Q13.2041 20.4062 13.3916 20.4375 L13.4072 22.0156 ZM17.9951 25.0781 Q17.6357 25.5469 17.1982 25.7734 Q16.7607 26 16.1982 26 Q15.1982 26 14.542 25.2109 Q13.8857 24.4219 13.8857 23.2031 Q13.8857 21.9688 14.542 21.1875 Q15.1982 20.4062 16.1982 20.4062 Q16.7607 20.4062 17.1982 20.6328 Q17.6357 20.8594 17.9951 21.3438 L17.9951 20.5312 L19.7451 20.5312 L19.7451 25.4531 Q19.7451 26.7656 18.917 27.4609 Q18.0889 28.1562 16.5107 28.1562 Q15.9951 28.1562 15.5186 28.0781 Q15.042 28 14.5576 27.8438 L14.5576 26.4844 Q15.0107 26.75 15.4482 26.875 Q15.8857 27 16.3389 27 Q17.1982 27 17.5967 26.625 Q17.9951 26.25 17.9951 25.4531 L17.9951 25.0781 ZM16.8389 21.6719 Q16.292 21.6719 15.9951 22.0703 Q15.6982 22.4688 15.6982 23.2031 Q15.6982 23.9531 15.9873 24.3438 Q16.2764 24.7344 16.8389 24.7344 Q17.3857 24.7344 17.6904 24.3281 Q17.9951 23.9219 17.9951 23.2031 Q17.9951 22.4688 17.6904 22.0703 Q17.3857 21.6719 16.8389 21.6719 ZM23.8877 23.5312 Q23.3408 23.5312 23.0596 23.7188 Q22.7783 23.9062 22.7783 24.2656 Q22.7783 24.6094 23.0049 24.7969 Q23.2314 24.9844 23.6221 24.9844 Q24.1221 24.9844 24.458 24.625 Q24.7939 24.2656 24.7939 23.7344 L24.7939 23.5312 L23.8877 23.5312 ZM26.5596 22.875 L26.5596 26 L24.7939 26 L24.7939 25.1875 Q24.4346 25.6875 23.9971 25.9141 Q23.5596 26.1406 22.9346 26.1406 Q22.0752 26.1406 21.5518 25.6484 Q21.0283 25.1562 21.0283 24.3594 Q21.0283 23.3906 21.6846 22.9453 Q22.3408 22.5 23.7627 22.5 L24.7939 22.5 L24.7939 22.3594 Q24.7939 21.9531 24.4658 21.7578 Q24.1377 21.5625 23.4502 21.5625 Q22.8877 21.5625 22.4033 21.6719 Q21.9189 21.7812 21.4971 22.0156 L21.4971 20.6719 Q22.0596 20.5469 22.6299 20.4766 Q23.2002 20.4062 23.7627 20.4062 Q25.2471 20.4062 25.9033 20.9844 Q26.5596 21.5625 26.5596 22.875 ZM33.6826 22.6719 L33.6826 26 L31.917 26 L31.917 25.4531 L31.917 23.4531 Q31.917 22.75 31.8857 22.4766 Q31.8545 22.2031 31.7764 22.0781 Q31.6826 21.9062 31.5029 21.8125 Q31.3232 21.7188 31.1045 21.7188 Q30.5576 21.7188 30.2451 22.1406 Q29.9326 22.5625 29.9326 23.3125 L29.9326 26 L28.1826 26 L28.1826 20.5312 L29.9326 20.5312 L29.9326 21.3281 Q30.3232 20.8594 30.7686 20.6328 Q31.2139 20.4062 31.7451 20.4062 Q32.6982 20.4062 33.1904 20.9844 Q33.6826 21.5625 33.6826 22.6719 ZM35.3018 20.5312 L37.0518 20.5312 L37.0518 26 L35.3018 26 L35.3018 20.5312 ZM35.3018 18.4062 L37.0518 18.4062 L37.0518 19.8281 L35.3018 19.8281 L35.3018 18.4062 ZM42.9951 20.7031 L42.9951 22.0312 Q42.4326 21.7969 41.9092 21.6797 Q41.3857 21.5625 40.9326 21.5625 Q40.4326 21.5625 40.1904 21.6875 Q39.9482 21.8125 39.9482 22.0625 Q39.9482 22.2812 40.1279 22.3906 Q40.3076 22.5 40.792 22.5625 L41.0889 22.5938 Q42.4326 22.7656 42.9014 23.1562 Q43.3701 23.5469 43.3701 24.3906 Q43.3701 25.2656 42.7217 25.7031 Q42.0732 26.1406 40.792 26.1406 Q40.2607 26.1406 39.6826 26.0547 Q39.1045 25.9688 38.4795 25.7969 L38.4795 24.4688 Q39.0107 24.7188 39.5576 24.8516 Q40.1045 24.9844 40.667 24.9844 Q41.1826 24.9844 41.4404 24.8438 Q41.6982 24.7031 41.6982 24.4219 Q41.6982 24.1875 41.5264 24.0703 Q41.3545 23.9531 40.8232 23.8906 L40.5107 23.8438 Q39.3389 23.7031 38.8701 23.3047 Q38.4014 22.9062 38.4014 22.1094 Q38.4014 21.2344 38.9951 20.8203 Q39.5889 20.4062 40.8232 20.4062 Q41.3076 20.4062 41.8389 20.4766 Q42.3701 20.5469 42.9951 20.7031 ZM49.7441 21.4375 Q50.0723 20.9375 50.5332 20.6719 Q50.9941 20.4062 51.541 20.4062 Q52.4785 20.4062 52.9707 20.9844 Q53.4629 21.5625 53.4629 22.6719 L53.4629 26 L51.7129 26 L51.7129 23.1406 Q51.7129 23.0781 51.7129 23.0156 Q51.7129 22.9531 51.7129 22.8281 Q51.7129 22.2344 51.5488 21.9766 Q51.3848 21.7188 50.9941 21.7188 Q50.4941 21.7188 50.2285 22.125 Q49.9629 22.5312 49.9473 23.3125 L49.9473 26 L48.1816 26 L48.1816 23.1406 Q48.1816 22.2344 48.0254 21.9766 Q47.8691 21.7188 47.4785 21.7188 Q46.9785 21.7188 46.7051 22.1328 Q46.4316 22.5469 46.4316 23.3125 L46.4316 26 L44.666 26 L44.666 20.5312 L46.4316 20.5312 L46.4316 21.3281 Q46.7441 20.875 47.166 20.6406 Q47.5879 20.4062 48.0879 20.4062 Q48.6504 20.4062 49.0879 20.6797 Q49.5254 20.9531 49.7441 21.4375 ZM55.3828 20.5312 L57.1328 20.5312 L57.1328 22.4219 L55.3828 22.4219 L55.3828 20.5312 ZM55.3828 24.1094 L57.1328 24.1094 L57.1328 26 L55.3828 26 L55.3828 24.1094 Z"
         style="clip-path:url(#clipPath2); stroke:none;"
         clip-path="url(#clipPath2)"
         id="path165" />
      <path
         d="M66.9844 18.7031 L67.9688 18.7031 L67.9688 21.7031 L71.5469 21.7031 L71.5469 18.7031 L72.5312 18.7031 L72.5312 26 L71.5469 26 L71.5469 22.5312 L67.9688 22.5312 L67.9688 26 L66.9844 26 L66.9844 18.7031 ZM76.582 21.1562 Q75.8633 21.1562 75.4414 21.7188 Q75.0195 22.2812 75.0195 23.2656 Q75.0195 24.25 75.4336 24.8125 Q75.8477 25.375 76.582 25.375 Q77.3008 25.375 77.7227 24.8125 Q78.1445 24.25 78.1445 23.2656 Q78.1445 22.2969 77.7227 21.7266 Q77.3008 21.1562 76.582 21.1562 ZM76.582 20.4062 Q77.7539 20.4062 78.4258 21.1641 Q79.0977 21.9219 79.0977 23.2656 Q79.0977 24.6094 78.4258 25.375 Q77.7539 26.1406 76.582 26.1406 Q75.4102 26.1406 74.7383 25.375 Q74.0664 24.6094 74.0664 23.2656 Q74.0664 21.9219 74.7383 21.1641 Q75.4102 20.4062 76.582 20.4062 ZM84.8408 21.5781 Q85.1689 20.9688 85.6377 20.6875 Q86.1064 20.4062 86.7471 20.4062 Q87.6064 20.4062 88.0674 21 Q88.5283 21.5938 88.5283 22.7031 L88.5283 26 L87.6221 26 L87.6221 22.7344 Q87.6221 21.9375 87.3486 21.5625 Q87.0752 21.1875 86.4971 21.1875 Q85.7939 21.1875 85.3955 21.6484 Q84.9971 22.1094 84.9971 22.9062 L84.9971 26 L84.0908 26 L84.0908 22.7344 Q84.0908 21.9375 83.8096 21.5625 Q83.5283 21.1875 82.9502 21.1875 Q82.2627 21.1875 81.8564 21.6484 Q81.4502 22.1094 81.4502 22.9062 L81.4502 26 L80.5439 26 L80.5439 20.5312 L81.4502 20.5312 L81.4502 21.375 Q81.7627 20.875 82.1924 20.6406 Q82.6221 20.4062 83.2002 20.4062 Q83.8096 20.4062 84.2236 20.7031 Q84.6377 21 84.8408 21.5781 ZM92.4414 21.1562 Q91.7227 21.1562 91.3008 21.7188 Q90.8789 22.2812 90.8789 23.2656 Q90.8789 24.25 91.293 24.8125 Q91.707 25.375 92.4414 25.375 Q93.1602 25.375 93.582 24.8125 Q94.0039 24.25 94.0039 23.2656 Q94.0039 22.2969 93.582 21.7266 Q93.1602 21.1562 92.4414 21.1562 ZM92.4414 20.4062 Q93.6133 20.4062 94.2852 21.1641 Q94.957 21.9219 94.957 23.2656 Q94.957 24.6094 94.2852 25.375 Q93.6133 26.1406 92.4414 26.1406 Q91.2695 26.1406 90.5977 25.375 Q89.9258 24.6094 89.9258 23.2656 Q89.9258 21.9219 90.5977 21.1641 Q91.2695 20.4062 92.4414 20.4062 ZM103.0977 20.6875 L103.0977 21.5469 Q102.7227 21.3438 102.3164 21.25 Q101.9102 21.1562 101.457 21.1562 Q100.8008 21.1562 100.4648 21.3594 Q100.1289 21.5625 100.1289 21.9688 Q100.1289 22.2812 100.3633 22.4609 Q100.5977 22.6406 101.332 22.7969 L101.6289 22.875 Q102.5977 23.0781 102.9961 23.4531 Q103.3945 23.8281 103.3945 24.4844 Q103.3945 25.25 102.793 25.6953 Q102.1914 26.1406 101.1445 26.1406 Q100.6914 26.1406 100.2148 26.0547 Q99.7383 25.9688 99.2227 25.7969 L99.2227 24.875 Q99.7227 25.125 100.1992 25.2578 Q100.6758 25.3906 101.1602 25.3906 Q101.7852 25.3906 102.1289 25.1719 Q102.4727 24.9531 102.4727 24.5625 Q102.4727 24.1875 102.2305 23.9922 Q101.9883 23.7969 101.1445 23.625 L100.832 23.5469 Q100.0039 23.375 99.6289 23.0078 Q99.2539 22.6406 99.2539 22.0156 Q99.2539 21.2344 99.8008 20.8203 Q100.3477 20.4062 101.3633 20.4062 Q101.8477 20.4062 102.293 20.4766 Q102.7383 20.5469 103.0977 20.6875 ZM107.3076 23.25 Q106.2295 23.25 105.8076 23.5 Q105.3857 23.75 105.3857 24.3438 Q105.3857 24.8281 105.6982 25.1094 Q106.0107 25.3906 106.5576 25.3906 Q107.3076 25.3906 107.7607 24.8594 Q108.2139 24.3281 108.2139 23.4531 L108.2139 23.25 L107.3076 23.25 ZM109.1045 22.875 L109.1045 26 L108.2139 26 L108.2139 25.1719 Q107.9014 25.6719 107.4404 25.9062 Q106.9795 26.1406 106.3232 26.1406 Q105.4795 26.1406 104.9795 25.6719 Q104.4795 25.2031 104.4795 24.4062 Q104.4795 23.4844 105.1045 23.0156 Q105.7295 22.5469 106.9482 22.5469 L108.2139 22.5469 L108.2139 22.4531 Q108.2139 21.8438 107.7998 21.5 Q107.3857 21.1562 106.6514 21.1562 Q106.1826 21.1562 105.7373 21.2734 Q105.292 21.3906 104.8857 21.6094 L104.8857 20.7812 Q105.3857 20.5938 105.8467 20.5 Q106.3076 20.4062 106.7451 20.4062 Q107.9326 20.4062 108.5186 21.0156 Q109.1045 21.625 109.1045 22.875 ZM111.8262 25.1719 L111.8262 28.0781 L110.9199 28.0781 L110.9199 20.5312 L111.8262 20.5312 L111.8262 21.3594 Q112.1074 20.875 112.5371 20.6406 Q112.9668 20.4062 113.5762 20.4062 Q114.5762 20.4062 115.1934 21.1953 Q115.8105 21.9844 115.8105 23.2656 Q115.8105 24.5625 115.1934 25.3516 Q114.5762 26.1406 113.5762 26.1406 Q112.9668 26.1406 112.5371 25.9062 Q112.1074 25.6719 111.8262 25.1719 ZM114.8887 23.2656 Q114.8887 22.2812 114.4746 21.7188 Q114.0605 21.1562 113.3574 21.1562 Q112.6387 21.1562 112.2324 21.7188 Q111.8262 22.2812 111.8262 23.2656 Q111.8262 24.2656 112.2324 24.8281 Q112.6387 25.3906 113.3574 25.3906 Q114.0605 25.3906 114.4746 24.8281 Q114.8887 24.2656 114.8887 23.2656 ZM117.2988 20.5312 L118.2051 20.5312 L118.2051 26 L117.2988 26 L117.2988 20.5312 ZM117.2988 18.4062 L118.2051 18.4062 L118.2051 19.5469 L117.2988 19.5469 L117.2988 18.4062 ZM124.7646 23.0469 L124.7646 23.4844 L120.624 23.4844 Q120.6865 24.4062 121.1865 24.8906 Q121.6865 25.375 122.5771 25.375 Q123.0928 25.375 123.585 25.25 Q124.0771 25.125 124.5459 24.875 L124.5459 25.7188 Q124.0615 25.9219 123.5537 26.0312 Q123.0459 26.1406 122.5303 26.1406 Q121.2178 26.1406 120.4521 25.3828 Q119.6865 24.625 119.6865 23.3125 Q119.6865 21.9688 120.4131 21.1875 Q121.1396 20.4062 122.374 20.4062 Q123.4834 20.4062 124.124 21.1094 Q124.7646 21.8125 124.7646 23.0469 ZM123.8584 22.7812 Q123.8584 22.0469 123.4521 21.6016 Q123.0459 21.1562 122.3896 21.1562 Q121.624 21.1562 121.1787 21.5859 Q120.7334 22.0156 120.6553 22.7812 L123.8584 22.7812 ZM130.7764 22.7031 L130.7764 26 L129.8857 26 L129.8857 22.7344 Q129.8857 21.9531 129.5811 21.5703 Q129.2764 21.1875 128.667 21.1875 Q127.9482 21.1875 127.5264 21.6484 Q127.1045 22.1094 127.1045 22.9062 L127.1045 26 L126.1982 26 L126.1982 20.5312 L127.1045 20.5312 L127.1045 21.375 Q127.4326 20.8906 127.8701 20.6484 Q128.3076 20.4062 128.8701 20.4062 Q129.8076 20.4062 130.292 20.9844 Q130.7764 21.5625 130.7764 22.7031 ZM136.0518 20.6875 L136.0518 21.5469 Q135.6768 21.3438 135.2705 21.25 Q134.8643 21.1562 134.4111 21.1562 Q133.7549 21.1562 133.4189 21.3594 Q133.083 21.5625 133.083 21.9688 Q133.083 22.2812 133.3174 22.4609 Q133.5518 22.6406 134.2861 22.7969 L134.583 22.875 Q135.5518 23.0781 135.9502 23.4531 Q136.3486 23.8281 136.3486 24.4844 Q136.3486 25.25 135.7471 25.6953 Q135.1455 26.1406 134.0986 26.1406 Q133.6455 26.1406 133.1689 26.0547 Q132.6924 25.9688 132.1768 25.7969 L132.1768 24.875 Q132.6768 25.125 133.1533 25.2578 Q133.6299 25.3906 134.1143 25.3906 Q134.7393 25.3906 135.083 25.1719 Q135.4268 24.9531 135.4268 24.5625 Q135.4268 24.1875 135.1846 23.9922 Q134.9424 23.7969 134.0986 23.625 L133.7861 23.5469 Q132.958 23.375 132.583 23.0078 Q132.208 22.6406 132.208 22.0156 Q132.208 21.2344 132.7549 20.8203 Q133.3018 20.4062 134.3174 20.4062 Q134.8018 20.4062 135.2471 20.4766 Q135.6924 20.5469 136.0518 20.6875 Z"
         style="clip-path:url(#clipPath2); stroke:none;"
         clip-path="url(#clipPath2)"
         id="path167" />
    </g>
    <g
       style="text-rendering:geometricPrecision;"
       id="g177">
      <path
         d="M240.1296 350.1574 L260.7089 351.2634"
         style="fill:none; clip-path:url(#clipPath3);"
         clip-path="url(#clipPath3)"
         id="path171" />
      <path
         d="M271.0939 351.8215 C270.9398 354.6892 268.4901 356.889 265.6223 356.7349 C262.7546 356.5808 260.5547 354.1311 260.7089 351.2634 C260.863 348.3956 263.3127 346.1958 266.1804 346.3499 C269.0482 346.504 271.248 348.9537 271.0939 351.8215 Z"
         style="fill:white; clip-path:url(#clipPath3); stroke:none;"
         clip-path="url(#clipPath3)"
         id="path173" />
      <path
         d="M271.0939 351.8215 C270.9398 354.6892 268.4901 356.889 265.6223 356.7349 C262.7546 356.5808 260.5547 354.1311 260.7089 351.2634 C260.863 348.3956 263.3127 346.1958 266.1804 346.3499 C269.0482 346.504 271.248 348.9537 271.0939 351.8215 Z"
         style="fill:none; clip-path:url(#clipPath3);"
         clip-path="url(#clipPath3)"
         id="path175" />
    </g>
    <g
       style="text-rendering:geometricPrecision;"
       id="g183">
      <path
         d="M93.4444 313 L93.4444 368.5"
         style="fill:none; clip-path:url(#clipPath4);"
         clip-path="url(#clipPath4)"
         id="path179" />
      <path
         d="M98.6444 368.5 L93.4444 380.2 L88.2444 368.5 Z"
         style="clip-path:url(#clipPath4); stroke:none;"
         clip-path="url(#clipPath4)"
         id="path181" />
    </g>
    <g
       style="text-rendering:geometricPrecision;"
       id="g189">
      <path
         d="M763.9819 420 L878.9815 420"
         style="fill:none; clip-path:url(#clipPath5);"
         clip-path="url(#clipPath5)"
         id="path185" />
      <path
         d="M878.9815 414.8 L890.6815 420 L878.9815 425.2 Z"
         style="clip-path:url(#clipPath5); stroke:none;"
         clip-path="url(#clipPath5)"
         id="path187" />
    </g>
    <g
       style="text-rendering:geometricPrecision;"
       id="g197">
      <path
         d="M204.9444 253.5 L197.7356 290.9305"
         style="fill:none; clip-path:url(#clipPath6);"
         clip-path="url(#clipPath6)"
         id="path191" />
      <path
         d="M195.7688 301.1428 C192.9487 300.5997 191.1029 297.8733 191.646 295.0532 C192.1892 292.2332 194.9156 290.3873 197.7356 290.9305 C200.5557 291.4736 202.4015 294.2 201.8584 297.02 C201.3152 299.8401 198.5889 301.6859 195.7688 301.1428 Z"
         style="fill:white; clip-path:url(#clipPath6); stroke:none;"
         clip-path="url(#clipPath6)"
         id="path193" />
      <path
         d="M195.7688 301.1428 C192.9487 300.5997 191.1029 297.8733 191.646 295.0532 C192.1892 292.2332 194.9156 290.3873 197.7356 290.9305 C200.5557 291.4736 202.4015 294.2 201.8584 297.02 C201.3152 299.8401 198.5889 301.6859 195.7688 301.1428 Z"
         style="fill:none; clip-path:url(#clipPath6);"
         clip-path="url(#clipPath6)"
         id="path195" />
    </g>
    <g
       style="text-rendering:geometricPrecision;"
       id="g203">
      <path
         d="M303.2408 313.6574 L303.2408 369.4722"
         style="fill:none; clip-path:url(#clipPath7);"
         clip-path="url(#clipPath7)"
         id="path199" />
      <path
         d="M308.4407 369.4722 L303.2408 381.1722 L298.0407 369.4722 Z"
         style="clip-path:url(#clipPath7); stroke:none;"
         clip-path="url(#clipPath7)"
         id="path201" />
    </g>
    <g
       style="text-rendering:geometricPrecision;"
       id="g209">
      <path
         d="M932.9815 432.5 L932.9815 526.5"
         style="fill:none; clip-path:url(#clipPath8);"
         clip-path="url(#clipPath8)"
         id="path205" />
      <path
         d="M938.1815 526.5 L932.9815 538.2 L927.7815 526.5 Z"
         style="clip-path:url(#clipPath8); stroke:none;"
         clip-path="url(#clipPath8)"
         id="path207" />
    </g>
    <g
       style="text-rendering:geometricPrecision;"
       id="g217">
      <path
         d="M877.9815 488 L922.9815 488"
         style="fill:none; clip-path:url(#clipPath9);"
         clip-path="url(#clipPath9)"
         id="path211" />
      <path
         d="M933.3815 488 C933.3815 490.8719 931.0533 493.2 928.1815 493.2 C925.3096 493.2 922.9815 490.8719 922.9815 488 C922.9815 485.1281 925.3096 482.8 928.1815 482.8 C931.0533 482.8 933.3815 485.1281 933.3815 488 Z"
         style="fill:white; clip-path:url(#clipPath9); stroke:none;"
         clip-path="url(#clipPath9)"
         id="path213" />
      <path
         d="M933.3815 488 C933.3815 490.8719 931.0533 493.2 928.1815 493.2 C925.3096 493.2 922.9815 490.8719 922.9815 488 C922.9815 485.1281 925.3096 482.8 928.1815 482.8 C931.0533 482.8 933.3815 485.1281 933.3815 488 Z"
         style="fill:none; clip-path:url(#clipPath9);"
         clip-path="url(#clipPath9)"
         id="path215" />
    </g>
    <g
       style="text-rendering:geometricPrecision;"
       id="g223">
      <path
         d="M270.6945 377.5 L270.6945 322.25"
         style="fill:none; clip-path:url(#clipPath10);"
         clip-path="url(#clipPath10)"
         id="path219" />
      <path
         d="M265.4944 322.25 L270.6945 310.55 L275.8944 322.25 Z"
         style="clip-path:url(#clipPath10); stroke:none;"
         clip-path="url(#clipPath10)"
         id="path221" />
    </g>
    <g
       style="text-rendering:geometricPrecision;"
       id="g231">
      <path
         d="M512.9815 251.7163 L513.9278 289.0032"
         style="fill:none; clip-path:url(#clipPath11);"
         clip-path="url(#clipPath11)"
         id="path225" />
      <path
         d="M514.1917 299.3999 C511.3207 299.4727 508.9342 297.2044 508.8614 294.3335 C508.7885 291.4625 511.0568 289.0761 513.9278 289.0032 C516.7987 288.9304 519.1852 291.1987 519.2581 294.0696 C519.3309 296.9406 517.0626 299.327 514.1917 299.3999 Z"
         style="fill:white; clip-path:url(#clipPath11); stroke:none;"
         clip-path="url(#clipPath11)"
         id="path227" />
      <path
         d="M514.1917 299.3999 C511.3207 299.4727 508.9342 297.2044 508.8614 294.3335 C508.7885 291.4625 511.0568 289.0761 513.9278 289.0032 C516.7987 288.9304 519.1852 291.1987 519.2581 294.0696 C519.3309 296.9406 517.0626 299.327 514.1917 299.3999 Z"
         style="fill:none; clip-path:url(#clipPath11);"
         clip-path="url(#clipPath11)"
         id="path229" />
    </g>
    <g
       style="text-rendering:geometricPrecision;"
       id="g237">
      <path
         d="M138.4444 377.5 L138.4444 322"
         style="fill:none; clip-path:url(#clipPath12);"
         clip-path="url(#clipPath12)"
         id="path233" />
      <path
         d="M133.2444 322 L138.4444 310.3 L143.6444 322 Z"
         style="clip-path:url(#clipPath12); stroke:none;"
         clip-path="url(#clipPath12)"
         id="path235" />
    </g>
    <g
       style="text-rendering:geometricPrecision;"
       id="g245">
      <path
         d="M240.1296 350.1574 L148.4433 351.5483"
         style="fill:none; clip-path:url(#clipPath13);"
         clip-path="url(#clipPath13)"
         id="path239" />
      <path
         d="M138.0445 351.7061 C138.0009 348.8345 140.2935 346.4713 143.165 346.4278 C146.0366 346.3842 148.3997 348.6768 148.4433 351.5483 C148.4869 354.4199 146.1943 356.783 143.3228 356.8266 C140.4512 356.8701 138.0881 354.5776 138.0445 351.7061 Z"
         style="fill:white; clip-path:url(#clipPath13); stroke:none;"
         clip-path="url(#clipPath13)"
         id="path241" />
      <path
         d="M138.0445 351.7061 C138.0009 348.8345 140.2935 346.4713 143.165 346.4278 C146.0366 346.3842 148.3997 348.6768 148.4433 351.5483 C148.4869 354.4199 146.1943 356.783 143.3228 356.8266 C140.4512 356.8701 138.0881 354.5776 138.0445 351.7061 Z"
         style="fill:none; clip-path:url(#clipPath13);"
         clip-path="url(#clipPath13)"
         id="path243" />
    </g>
    <g
       style="text-rendering:geometricPrecision;"
       id="g251">
      <path
         d="M494.9815 299 L533.9815 299"
         style="fill:none; clip-path:url(#clipPath14);"
         clip-path="url(#clipPath14)"
         id="path247" />
      <path
         d="M533.9815 293.8 L545.6815 299 L533.9815 304.2 Z"
         style="clip-path:url(#clipPath14); stroke:none;"
         clip-path="url(#clipPath14)"
         id="path249" />
    </g>
    <g
       style="text-rendering:geometricPrecision;"
       id="g257">
      <path
         d="M160.9444 300.75 L239.1944 300.75"
         style="fill:none; clip-path:url(#clipPath15);"
         clip-path="url(#clipPath15)"
         id="path253" />
      <path
         d="M239.1944 295.55 L250.8944 300.75 L239.1944 305.95 Z"
         style="clip-path:url(#clipPath15); stroke:none;"
         clip-path="url(#clipPath15)"
         id="path255" />
    </g>
    <g
       style="text-rendering:geometricPrecision;"
       id="g265">
      <path
         d="M814.9815 384.3975 L813.9745 410.0077"
         style="fill:none; clip-path:url(#clipPath16);"
         clip-path="url(#clipPath16)"
         id="path259" />
      <path
         d="M813.566 420.3997 C810.6964 420.2869 808.4615 417.8691 808.5743 414.9994 C808.6871 412.1298 811.1049 409.8949 813.9745 410.0077 C816.8442 410.1205 819.0791 412.5383 818.9662 415.408 C818.8535 418.2776 816.4357 420.5125 813.566 420.3997 Z"
         style="fill:white; clip-path:url(#clipPath16); stroke:none;"
         clip-path="url(#clipPath16)"
         id="path261" />
      <path
         d="M813.566 420.3997 C810.6964 420.2869 808.4615 417.8691 808.5743 414.9994 C808.6871 412.1298 811.1049 409.8949 813.9745 410.0077 C816.8442 410.1205 819.0791 412.5383 818.9662 415.408 C818.8535 418.2776 816.4357 420.5125 813.566 420.3997 Z"
         style="fill:none; clip-path:url(#clipPath16);"
         clip-path="url(#clipPath16)"
         id="path263" />
    </g>
    <g
       style="text-rendering:geometricPrecision;"
       id="g273">
      <path
         d="M877.9815 488 L728.9817 488.9371"
         style="fill:none; clip-path:url(#clipPath17);"
         clip-path="url(#clipPath17)"
         id="path267" />
      <path
         d="M718.5818 489.0025 C718.5638 486.1307 720.8773 483.788 723.7491 483.7699 C726.6209 483.7519 728.9636 486.0653 728.9817 488.9371 C728.9998 491.8089 726.6863 494.1516 723.8145 494.1697 C720.9426 494.1878 718.5999 491.8743 718.5818 489.0025 Z"
         style="fill:white; clip-path:url(#clipPath17); stroke:none;"
         clip-path="url(#clipPath17)"
         id="path269" />
      <path
         d="M718.5818 489.0025 C718.5638 486.1307 720.8773 483.788 723.7491 483.7699 C726.6209 483.7519 728.9636 486.0653 728.9817 488.9371 C728.9998 491.8089 726.6863 494.1516 723.8145 494.1697 C720.9426 494.1878 718.5999 491.8743 718.5818 489.0025 Z"
         style="fill:none; clip-path:url(#clipPath17);"
         clip-path="url(#clipPath17)"
         id="path271" />
    </g>
    <g
       style="text-rendering:geometricPrecision;"
       id="g279">
      <path
         d="M718.9819 312.5 L718.9819 398.5"
         style="fill:none; clip-path:url(#clipPath18);"
         clip-path="url(#clipPath18)"
         id="path275" />
      <path
         d="M724.1819 398.5 L718.9819 410.2 L713.7819 398.5 Z"
         style="clip-path:url(#clipPath18); stroke:none;"
         clip-path="url(#clipPath18)"
         id="path277" />
    </g>
    <g
       style="text-rendering:geometricPrecision;"
       id="g285">
      <path
         d="M718.9819 432.5 L718.9819 526.5"
         style="fill:none; clip-path:url(#clipPath19);"
         clip-path="url(#clipPath19)"
         id="path281" />
      <path
         d="M724.1819 526.5 L718.9819 538.2 L713.7819 526.5 Z"
         style="clip-path:url(#clipPath19); stroke:none;"
         clip-path="url(#clipPath19)"
         id="path283" />
    </g>
    <g
       style="text-rendering:geometricPrecision;"
       id="g291">
      <path
         d="M632.9815 299 L664.9846 299.7805"
         style="fill:none; clip-path:url(#clipPath20);"
         clip-path="url(#clipPath20)"
         id="path287" />
      <path
         d="M665.1113 294.5821 L676.681 300.0658 L664.8577 304.979 Z"
         style="clip-path:url(#clipPath20); stroke:none;"
         clip-path="url(#clipPath20)"
         id="path289" />
    </g>
    <g
       style="text-rendering:geometricPrecision;"
       id="g299">
      <path
         d="M684.9815 351 L708.983 350.647"
         style="fill:none; clip-path:url(#clipPath21);"
         clip-path="url(#clipPath21)"
         id="path293" />
      <path
         d="M719.3818 350.4941 C719.4241 353.3657 717.1304 355.7278 714.2589 355.77 C711.3873 355.8123 709.0251 353.5186 708.983 350.647 C708.9407 347.7755 711.2344 345.4134 714.1059 345.3712 C716.9775 345.3289 719.3396 347.6226 719.3818 350.4941 Z"
         style="fill:white; clip-path:url(#clipPath21); stroke:none;"
         clip-path="url(#clipPath21)"
         id="path295" />
      <path
         d="M719.3818 350.4941 C719.4241 353.3657 717.1304 355.7278 714.2589 355.77 C711.3873 355.8123 709.0251 353.5186 708.983 350.647 C708.9407 347.7755 711.2344 345.4134 714.1059 345.3712 C716.9775 345.3289 719.3396 347.6226 719.3818 350.4941 Z"
         style="fill:none; clip-path:url(#clipPath21);"
         clip-path="url(#clipPath21)"
         id="path297" />
    </g>
    <g
       style="stroke-dasharray:4,4; text-rendering:geometricPrecision;"
       id="g305">
      <path
         d="M338.1945 300.75 L395.9846 299.2357"
         style="fill:none; clip-path:url(#clipPath22);"
         clip-path="url(#clipPath22)"
         id="path301" />
      <path
         d="M395.8484 294.0375 L407.6805 298.9293 L396.1208 304.434 Z"
         style="stroke-dasharray:none; clip-path:url(#clipPath22); stroke:none;"
         clip-path="url(#clipPath22)"
         id="path303" />
    </g>
    <g
       style="fill:navy; text-rendering:geometricPrecision; font-size:8; stroke:navy;"
       id="g309">
      <text
         x="925"
         xml:space="preserve"
         y="501"
         style="clip-path:url(#clipPath24); stroke:none;"
         clip-path="url(#clipPath24)"
         id="text307">2</text>
    </g>
    <g
       style="fill:navy; text-rendering:geometricPrecision; font-size:8; stroke:navy;"
       id="g313">
      <text
         x="506"
         xml:space="preserve"
         y="282"
         style="clip-path:url(#clipPath26); stroke:none;"
         clip-path="url(#clipPath26)"
         id="text311">1</text>
    </g>
    <g
       style="fill:navy; text-rendering:geometricPrecision; font-size:8; stroke:navy;"
       id="g317">
      <text
         x="711"
         xml:space="preserve"
         y="376"
         style="clip-path:url(#clipPath28); stroke:none;"
         clip-path="url(#clipPath28)"
         id="text315">2</text>
    </g>
    <g
       style="fill:navy; text-rendering:geometricPrecision; font-size:8; stroke:navy;"
       id="g321">
      <text
         x="843"
         xml:space="preserve"
         y="417"
         style="clip-path:url(#clipPath30); stroke:none;"
         clip-path="url(#clipPath30)"
         id="text319">2</text>
    </g>
    <g
       style="fill:navy; text-rendering:geometricPrecision; font-size:8; stroke:navy;"
       id="g325">
      <text
         x="711"
         xml:space="preserve"
         y="501"
         style="clip-path:url(#clipPath32); stroke:none;"
         clip-path="url(#clipPath32)"
         id="text323">2</text>
    </g>
    <g
       style="fill:navy; text-rendering:geometricPrecision; font-size:8; stroke:navy;"
       id="g329">
      <text
         x="191"
         xml:space="preserve"
         y="283"
         style="clip-path:url(#clipPath34); stroke:none;"
         clip-path="url(#clipPath34)"
         id="text327">3</text>
    </g>
    <g
       style="fill:white; text-rendering:geometricPrecision; stroke:white;"
       id="g337">
      <path
         d="M467.9815 226.7163 L557.9815 226.7163 L557.9815 251.7163 L467.9815 251.7163 L467.9815 226.7163 Z"
         style="clip-path:url(#clipPath35); stroke:none;"
         clip-path="url(#clipPath35)"
         id="path331" />
      <path
         d="M467.9815 226.7163 L557.9815 226.7163 L557.9815 251.7163 L467.9815 251.7163 L467.9815 226.7163 Z"
         style="fill:none; clip-path:url(#clipPath35); stroke:black;"
         clip-path="url(#clipPath35)"
         id="path333" />
      <text
         x="493"
         y="243"
         style="fill:black; clip-path:url(#clipPath35); stroke:none;"
         xml:space="preserve"
         clip-path="url(#clipPath35)"
         id="text335">FADS1</text>
    </g>
    <g
       style="fill:white; text-rendering:geometricPrecision; stroke:white;"
       id="g345">
      <path
         d="M248.1944 288.25 L338.1945 288.25 L338.1945 313.25 L248.1944 313.25 L248.1944 288.25 Z"
         style="clip-path:url(#clipPath36); stroke:none;"
         clip-path="url(#clipPath36)"
         id="path339" />
      <path
         d="M248.1944 288.25 L338.1945 288.25 L338.1945 313.25 L248.1944 313.25 L248.1944 288.25 Z"
         style="fill:none; clip-path:url(#clipPath36); stroke:blue;"
         clip-path="url(#clipPath36)"
         id="path341" />
      <text
         x="250"
         y="305"
         style="fill:blue; clip-path:url(#clipPath36); stroke:none;"
         xml:space="preserve"
         clip-path="url(#clipPath36)"
         id="text343">Sapienoyl-CoA</text>
    </g>
    <g
       style="fill:white; text-rendering:geometricPrecision; stroke:white;"
       id="g353">
      <path
         d="M159.9444 228.5 L249.9444 228.5 L249.9444 253.5 L159.9444 253.5 L159.9444 228.5 Z"
         style="clip-path:url(#clipPath37); stroke:none;"
         clip-path="url(#clipPath37)"
         id="path347" />
      <path
         d="M159.9444 228.5 L249.9444 228.5 L249.9444 253.5 L159.9444 253.5 L159.9444 228.5 Z"
         style="fill:none; clip-path:url(#clipPath37); stroke:black;"
         clip-path="url(#clipPath37)"
         id="path349" />
      <text
         x="185"
         y="245"
         style="fill:black; clip-path:url(#clipPath37); stroke:none;"
         xml:space="preserve"
         clip-path="url(#clipPath37)"
         id="text351">FADS2</text>
    </g>
    <g
       style="fill:white; text-rendering:geometricPrecision; stroke:white;"
       id="g361">
      <path
         d="M404.9815 286.5 L494.9815 286.5 L494.9815 311.5 L404.9815 311.5 L404.9815 286.5 Z"
         style="clip-path:url(#clipPath38); stroke:none;"
         clip-path="url(#clipPath38)"
         id="path355" />
      <path
         d="M404.9815 286.5 L494.9815 286.5 L494.9815 311.5 L404.9815 311.5 L404.9815 286.5 Z"
         style="fill:none; clip-path:url(#clipPath38); stroke:blue;"
         clip-path="url(#clipPath38)"
         id="path357" />
      <text
         x="385"
         y="303"
         style="fill:blue; clip-path:url(#clipPath38); stroke:none;"
         xml:space="preserve"
         clip-path="url(#clipPath38)"
         id="text359">8Z-octadecenoyl-CoA</text>
    </g>
    <g
       style="fill:white; text-rendering:geometricPrecision; stroke:white;"
       id="g369">
      <path
         d="M628.9815 338.5 L684.9815 338.5 L684.9815 363.5 L628.9815 363.5 L628.9815 338.5 Z"
         style="clip-path:url(#clipPath39); stroke:none;"
         clip-path="url(#clipPath39)"
         id="path363" />
      <path
         d="M628.9815 338.5 L684.9815 338.5 L684.9815 363.5 L628.9815 363.5 L628.9815 338.5 Z"
         style="fill:none; clip-path:url(#clipPath39); stroke:black;"
         clip-path="url(#clipPath39)"
         id="path365" />
      <text
         x="636"
         y="355"
         style="fill:black; clip-path:url(#clipPath39); stroke:none;"
         xml:space="preserve"
         clip-path="url(#clipPath39)"
         id="text367">ALOX5</text>
    </g>
    <g
       style="fill:white; text-rendering:geometricPrecision; stroke:white;"
       id="g377">
      <path
         d="M70.9444 377.5 L160.9444 377.5 L160.9444 402.5 L70.9444 402.5 L70.9444 377.5 Z"
         style="clip-path:url(#clipPath40); stroke:none;"
         clip-path="url(#clipPath40)"
         id="path371" />
      <path
         d="M70.9444 377.5 L160.9444 377.5 L160.9444 402.5 L70.9444 402.5 L70.9444 377.5 Z"
         style="fill:none; clip-path:url(#clipPath40); stroke:blue;"
         clip-path="url(#clipPath40)"
         id="path373" />
      <text
         x="77"
         y="394"
         style="fill:blue; clip-path:url(#clipPath40); stroke:none;"
         xml:space="preserve"
         clip-path="url(#clipPath40)"
         id="text375">Palmitic Acid</text>
    </g>
    <g
       style="fill:white; text-rendering:geometricPrecision; stroke:white;"
       id="g385">
      <path
         d="M769.9815 359.3975 L859.9815 359.3975 L859.9815 384.3975 L769.9815 384.3975 L769.9815 359.3975 Z"
         style="clip-path:url(#clipPath41); stroke:none;"
         clip-path="url(#clipPath41)"
         id="path379" />
      <path
         d="M769.9815 359.3975 L859.9815 359.3975 L859.9815 384.3975 L769.9815 384.3975 L769.9815 359.3975 Z"
         style="fill:none; clip-path:url(#clipPath41); stroke:black;"
         clip-path="url(#clipPath41)"
         id="path381" />
      <text
         x="778"
         y="376"
         style="fill:black; clip-path:url(#clipPath41); stroke:none;"
         xml:space="preserve"
         clip-path="url(#clipPath41)"
         id="text383">Unidentified</text>
    </g>
    <g
       style="fill:white; text-rendering:geometricPrecision; stroke:white;"
       id="g393">
      <path
         d="M248.1944 377.5 L338.1945 377.5 L338.1945 402.5 L248.1944 402.5 L248.1944 377.5 Z"
         style="clip-path:url(#clipPath42); stroke:none;"
         clip-path="url(#clipPath42)"
         id="path387" />
      <path
         d="M248.1944 377.5 L338.1945 377.5 L338.1945 402.5 L248.1944 402.5 L248.1944 377.5 Z"
         style="fill:none; clip-path:url(#clipPath42); stroke:blue;"
         clip-path="url(#clipPath42)"
         id="path389" />
      <text
         x="254"
         y="394"
         style="fill:blue; clip-path:url(#clipPath42); stroke:none;"
         xml:space="preserve"
         clip-path="url(#clipPath42)"
         id="text391">Sapienic acid</text>
    </g>
    <g
       style="fill:white; text-rendering:geometricPrecision; stroke:white;"
       id="g401">
      <path
         d="M673.9819 535.5 L763.9819 535.5 L763.9819 560.5 L673.9819 560.5 L673.9819 535.5 Z"
         style="clip-path:url(#clipPath43); stroke:none;"
         clip-path="url(#clipPath43)"
         id="path395" />
      <path
         d="M673.9819 535.5 L763.9819 535.5 L763.9819 560.5 L673.9819 560.5 L673.9819 535.5 Z"
         style="fill:none; clip-path:url(#clipPath43); stroke:blue;"
         clip-path="url(#clipPath43)"
         id="path397" />
      <text
         x="679"
         y="552"
         style="fill:blue; clip-path:url(#clipPath43); stroke:none;"
         xml:space="preserve"
         clip-path="url(#clipPath43)"
         id="text399">5S-18-DiODE</text>
    </g>
    <g
       style="fill:white; text-rendering:geometricPrecision; stroke:white;"
       id="g409">
      <path
         d="M542.9815 286.5 L632.9815 286.5 L632.9815 311.5 L542.9815 311.5 L542.9815 286.5 Z"
         style="clip-path:url(#clipPath44); stroke:none;"
         clip-path="url(#clipPath44)"
         id="path403" />
      <path
         d="M542.9815 286.5 L632.9815 286.5 L632.9815 311.5 L542.9815 311.5 L542.9815 286.5 Z"
         style="fill:none; clip-path:url(#clipPath44); stroke:blue;"
         clip-path="url(#clipPath44)"
         id="path405" />
      <text
         x="544"
         y="303"
         style="fill:blue; clip-path:url(#clipPath44); stroke:none;"
         xml:space="preserve"
         clip-path="url(#clipPath44)"
         id="text407">Sebaleoyl CoA</text>
    </g>
    <g
       style="fill:white; text-rendering:geometricPrecision; stroke:white;"
       id="g417">
      <path
         d="M673.9819 407.5 L763.9819 407.5 L763.9819 432.5 L673.9819 432.5 L673.9819 407.5 Z"
         style="clip-path:url(#clipPath45); stroke:none;"
         clip-path="url(#clipPath45)"
         id="path411" />
      <path
         d="M673.9819 407.5 L763.9819 407.5 L763.9819 432.5 L673.9819 432.5 L673.9819 407.5 Z"
         style="fill:none; clip-path:url(#clipPath45); stroke:blue;"
         clip-path="url(#clipPath45)"
         id="path413" />
      <text
         x="691"
         y="424"
         style="fill:blue; clip-path:url(#clipPath45); stroke:none;"
         xml:space="preserve"
         clip-path="url(#clipPath45)"
         id="text415">5S-HODE</text>
    </g>
    <g
       style="fill:white; text-rendering:geometricPrecision; stroke:white;"
       id="g425">
      <path
         d="M887.9815 535.5 L977.9815 535.5 L977.9815 560.5 L887.9815 560.5 L887.9815 535.5 Z"
         style="clip-path:url(#clipPath46); stroke:none;"
         clip-path="url(#clipPath46)"
         id="path419" />
      <path
         d="M887.9815 535.5 L977.9815 535.5 L977.9815 560.5 L887.9815 560.5 L887.9815 535.5 Z"
         style="fill:none; clip-path:url(#clipPath46); stroke:blue;"
         clip-path="url(#clipPath46)"
         id="path421" />
      <text
         x="891"
         y="552"
         style="fill:blue; clip-path:url(#clipPath46); stroke:none;"
         xml:space="preserve"
         clip-path="url(#clipPath46)"
         id="text423">5-oxo-18-ODE</text>
    </g>
    <g
       style="fill:white; text-rendering:geometricPrecision; stroke:white;"
       id="g433">
      <path
         d="M673.9819 287.5 L763.9819 287.5 L763.9819 312.5 L673.9819 312.5 L673.9819 287.5 Z"
         style="clip-path:url(#clipPath47); stroke:none;"
         clip-path="url(#clipPath47)"
         id="path427" />
      <path
         d="M673.9819 287.5 L763.9819 287.5 L763.9819 312.5 L673.9819 312.5 L673.9819 287.5 Z"
         style="fill:none; clip-path:url(#clipPath47); stroke:blue;"
         clip-path="url(#clipPath47)"
         id="path429" />
      <text
         x="679"
         y="304"
         style="fill:blue; clip-path:url(#clipPath47); stroke:none;"
         xml:space="preserve"
         clip-path="url(#clipPath47)"
         id="text431">Sebaleic acid</text>
    </g>
    <g
       style="fill:white; text-rendering:geometricPrecision; stroke:white;"
       id="g441">
      <path
         d="M887.9815 407.5 L977.9815 407.5 L977.9815 432.5 L887.9815 432.5 L887.9815 407.5 Z"
         style="clip-path:url(#clipPath48); stroke:none;"
         clip-path="url(#clipPath48)"
         id="path435" />
      <path
         d="M887.9815 407.5 L977.9815 407.5 L977.9815 432.5 L887.9815 432.5 L887.9815 407.5 Z"
         style="fill:none; clip-path:url(#clipPath48); stroke:blue;"
         clip-path="url(#clipPath48)"
         id="path437" />
      <text
         x="909"
         y="424"
         style="fill:blue; clip-path:url(#clipPath48); stroke:none;"
         xml:space="preserve"
         clip-path="url(#clipPath48)"
         id="text439">5-KODE</text>
    </g>
    <g
       style="fill:white; text-rendering:geometricPrecision; stroke:white;"
       id="g449">
      <path
         d="M787.9815 475.5 L877.9815 475.5 L877.9815 500.5 L787.9815 500.5 L787.9815 475.5 Z"
         style="clip-path:url(#clipPath49); stroke:none;"
         clip-path="url(#clipPath49)"
         id="path443" />
      <path
         d="M787.9815 475.5 L877.9815 475.5 L877.9815 500.5 L787.9815 500.5 L787.9815 475.5 Z"
         style="fill:none; clip-path:url(#clipPath49); stroke:black;"
         clip-path="url(#clipPath49)"
         id="path445" />
      <text
         x="810"
         y="492"
         style="fill:black; clip-path:url(#clipPath49); stroke:none;"
         xml:space="preserve"
         clip-path="url(#clipPath49)"
         id="text447">CYP4F3</text>
    </g>
    <g
       style="fill:white; text-rendering:geometricPrecision; stroke:white;"
       id="g457">
      <path
         d="M70.9444 288.5 L160.9444 288.5 L160.9444 313 L70.9444 313 L70.9444 288.5 Z"
         style="clip-path:url(#clipPath50); stroke:none;"
         clip-path="url(#clipPath50)"
         id="path451" />
      <path
         d="M70.9444 288.5 L160.9444 288.5 L160.9444 313 L70.9444 313 L70.9444 288.5 Z"
         style="fill:none; clip-path:url(#clipPath50); stroke:blue;"
         clip-path="url(#clipPath50)"
         id="path453" />
      <text
         x="74"
         y="305"
         style="fill:blue; clip-path:url(#clipPath50); stroke:none;"
         xml:space="preserve"
         clip-path="url(#clipPath50)"
         id="text455">Palmitoyl CoA</text>
    </g>
    <g
       style="fill:white; text-rendering:geometricPrecision; stroke:white;"
       id="g467">
      <path
         d="M179.1296 337.6574 L240.1296 337.6574 L240.1296 362.6574 L179.1296 362.6574 L179.1296 337.6574 Z"
         style="clip-path:url(#clipPath51); stroke:none;"
         clip-path="url(#clipPath51)"
         id="path459" />
      <path
         d="M179.1296 337.6574 L240.1296 337.6574 L240.1296 362.6574 L179.1296 362.6574 L179.1296 337.6574 Z"
         style="fill:none; clip-path:url(#clipPath51); stroke:black;"
         clip-path="url(#clipPath51)"
         id="path461" />
      <text
         x="191"
         y="347"
         style="fill:black; clip-path:url(#clipPath51); stroke:none;"
         xml:space="preserve"
         clip-path="url(#clipPath51)"
         id="text463">ACSL1</text>
      <text
         x="197"
         y="360"
         style="fill:black; clip-path:url(#clipPath51); stroke:none;"
         xml:space="preserve"
         clip-path="url(#clipPath51)"
         id="text465">et al</text>
    </g>
  </g>
</svg>
