<?xml version="1.0" encoding="UTF-8" standalone="no"?>
<svg
   style="fill-opacity:1; color-rendering:auto; color-interpolation:auto; stroke:black; text-rendering:auto; stroke-linecap:square; stroke-miterlimit:10; stroke-opacity:1; shape-rendering:auto; fill:black; stroke-dasharray:none; font-weight:normal; stroke-width:1; font-family:'Dialog'; font-style:normal; stroke-linejoin:miter; font-size:12; stroke-dashoffset:0; image-rendering:auto;"
   width="769"
   height="890"
   version="1.1"
   id="svg395"
   xmlns="http://www.w3.org/2000/svg"
   xmlns:svg="http://www.w3.org/2000/svg">
  <!--Generated by the Batik Graphics2D SVG Generator-->
  <defs
     id="genericDefs" />
  <g
     id="g393">
    <defs
       id="defs1">
      <clipPath
         clipPathUnits="userSpaceOnUse"
         id="clipPath1">
        <path
           d="M0 0 L779 0 L779 905 L0 905 L0 0 Z"
           id="path3" />
      </clipPath>
      <clipPath
         clipPathUnits="userSpaceOnUse"
         id="clipPath2">
        <path
           d="M0 0 L0 200 L200 200 L200 0 Z"
           id="path6" />
      </clipPath>
      <clipPath
         clipPathUnits="userSpaceOnUse"
         id="clipPath3">
        <path
           d="M308 16 L308 37 L334 37 L334 16 Z"
           id="path9" />
      </clipPath>
      <clipPath
         clipPathUnits="userSpaceOnUse"
         id="clipPath4">
        <path
           d="M310.3672 3.918 L331.6328 3.918 L331.6328 19.2305 L310.3672 19.2305 L310.3672 3.918 Z"
           id="path12" />
      </clipPath>
      <clipPath
         clipPathUnits="userSpaceOnUse"
         id="clipPath5">
        <path
           d="M391.8709 343.2782 L391.8709 427.2782 L495.8709 427.2782 L495.8709 343.2782 Z"
           id="path15" />
      </clipPath>
      <clipPath
         clipPathUnits="userSpaceOnUse"
         id="clipPath6">
        <path
           d="M390.5376 465.2276 L390.5376 549.2276 L494.5376 549.2276 L494.5376 465.2276 Z"
           id="path18" />
      </clipPath>
      <clipPath
         clipPathUnits="userSpaceOnUse"
         id="clipPath7">
        <path
           d="M617.0717 683.1737 L617.0717 685.1737 L700.0717 685.1737 L700.0717 683.1737 Z"
           id="path21" />
      </clipPath>
      <clipPath
         clipPathUnits="userSpaceOnUse"
         id="clipPath8">
        <path
           d="M597.9069 674.3441 L597.9069 676.7507 L690.7592 676.7507 L690.7592 674.3441 Z"
           id="path24" />
      </clipPath>
      <clipPath
         clipPathUnits="userSpaceOnUse"
         id="clipPath9">
        <path
           d="M443.2108 173.1219 L443.2108 282.1395 L492.2453 282.1395 L492.2453 173.1219 Z"
           id="path27" />
      </clipPath>
      <clipPath
         clipPathUnits="userSpaceOnUse"
         id="clipPath10">
        <path
           d="M238.0665 125.4338 L238.0665 200.6422 L289.6068 200.6422 L289.6068 125.4338 Z"
           id="path30" />
      </clipPath>
      <clipPath
         clipPathUnits="userSpaceOnUse"
         id="clipPath11">
        <path
           d="M437.9016 300.5147 L437.9016 344.5093 L449.8403 344.5093 L449.8403 300.5147 Z"
           id="path33" />
      </clipPath>
      <clipPath
         clipPathUnits="userSpaceOnUse"
         id="clipPath12">
        <path
           d="M437.0003 426.761 L437.0003 466.4579 L448.9317 466.4579 L448.9317 426.761 Z"
           id="path36" />
      </clipPath>
      <clipPath
         clipPathUnits="userSpaceOnUse"
         id="clipPath13">
        <path
           d="M360.147 548.6402 L360.147 632.6307 L443.125 632.6307 L443.125 548.6402 Z"
           id="path39" />
      </clipPath>
      <clipPath
         clipPathUnits="userSpaceOnUse"
         id="clipPath14">
        <path
           d="M482.1691 216.1168 L482.1691 236.6241 L561.7328 236.6241 L561.7328 216.1168 Z"
           id="path42" />
      </clipPath>
      <clipPath
         clipPathUnits="userSpaceOnUse"
         id="clipPath15">
        <path
           d="M560.6492 835.8227 L560.6492 876.3227 L713.1492 876.3227 L713.1492 835.8227 Z"
           id="path45" />
      </clipPath>
      <clipPath
         clipPathUnits="userSpaceOnUse"
         id="clipPath16">
        <path
           d="M287.3333 286.381 L287.3333 775.5238 L755.5238 775.5238 L755.5238 286.381 Z"
           id="path48" />
      </clipPath>
      <clipPath
         clipPathUnits="userSpaceOnUse"
         id="clipPath17">
        <path
           d="M135.5 86.5 L135.5 248.5 L350.5 248.5 L350.5 86.5 Z"
           id="path51" />
      </clipPath>
      <clipPath
         clipPathUnits="userSpaceOnUse"
         id="clipPath18">
        <path
           d="M471.5952 581.119 L471.5952 745.0476 L720.2857 745.0476 L720.2857 581.119 Z"
           id="path54" />
      </clipPath>
      <clipPath
         clipPathUnits="userSpaceOnUse"
         id="clipPath19">
        <path
           d="M650.0033 297.7216 L650.0033 323.7216 L741.0033 323.7216 L741.0033 297.7216 Z"
           id="path57" />
      </clipPath>
      <clipPath
         clipPathUnits="userSpaceOnUse"
         id="clipPath20">
        <path
           d="M503.3712 703.2078 L503.3712 729.2078 L594.3712 729.2078 L594.3712 703.2078 Z"
           id="path60" />
      </clipPath>
      <clipPath
         clipPathUnits="userSpaceOnUse"
         id="clipPath21">
        <path
           d="M604.4214 683.8141 L604.4214 709.8141 L695.4214 709.8141 L695.4214 683.8141 Z"
           id="path63" />
      </clipPath>
      <clipPath
         clipPathUnits="userSpaceOnUse"
         id="clipPath22">
        <path
           d="M147.4713 165.8733 L147.4713 191.8733 L263.472 191.8733 L263.472 165.8733 Z"
           id="path66" />
      </clipPath>
      <clipPath
         clipPathUnits="userSpaceOnUse"
         id="clipPath23">
        <path
           d="M572.1307 836.448 L572.1307 875.4933 L701.6677 875.4933 L701.6677 836.448 Z"
           id="path69" />
      </clipPath>
      <clipPath
         clipPathUnits="userSpaceOnUse"
         id="clipPath24">
        <path
           d="M403.3709 374.7782 L403.3709 395.7782 L484.3709 395.7782 L484.3709 374.7782 Z"
           id="path72" />
      </clipPath>
      <clipPath
         clipPathUnits="userSpaceOnUse"
         id="clipPath25">
        <path
           d="M403.3709 280.5147 L403.3709 301.5147 L484.3709 301.5147 L484.3709 280.5147 Z"
           id="path75" />
      </clipPath>
      <clipPath
         clipPathUnits="userSpaceOnUse"
         id="clipPath26">
        <path
           d="M403.3709 354.7782 L403.3709 375.7782 L484.3709 375.7782 L484.3709 354.7782 Z"
           id="path78" />
      </clipPath>
      <clipPath
         clipPathUnits="userSpaceOnUse"
         id="clipPath27">
        <path
           d="M402.0376 496.7276 L402.0376 517.7276 L483.0376 517.7276 L483.0376 496.7276 Z"
           id="path81" />
      </clipPath>
      <clipPath
         clipPathUnits="userSpaceOnUse"
         id="clipPath28">
        <path
           d="M560.7313 216.7708 L560.7313 237.7708 L641.7313 237.7708 L641.7313 216.7708 Z"
           id="path84" />
      </clipPath>
      <clipPath
         clipPathUnits="userSpaceOnUse"
         id="clipPath29">
        <path
           d="M451.0852 153.282 L451.0852 174.282 L532.0852 174.282 L532.0852 153.282 Z"
           id="path87" />
      </clipPath>
      <clipPath
         clipPathUnits="userSpaceOnUse"
         id="clipPath30">
        <path
           d="M402.0376 516.7276 L402.0376 537.7276 L483.0376 537.7276 L483.0376 516.7276 Z"
           id="path90" />
      </clipPath>
      <clipPath
         clipPathUnits="userSpaceOnUse"
         id="clipPath31">
        <path
           d="M403.3709 394.7782 L403.3709 415.7782 L484.3709 415.7782 L484.3709 394.7782 Z"
           id="path93" />
      </clipPath>
      <clipPath
         clipPathUnits="userSpaceOnUse"
         id="clipPath32">
        <path
           d="M402.0376 476.7276 L402.0376 497.7276 L483.0376 497.7276 L483.0376 476.7276 Z"
           id="path96" />
      </clipPath>
      <clipPath
         clipPathUnits="userSpaceOnUse"
         id="clipPath33">
        <path
           d="M180.742 102.5073 L180.742 123.5073 L261.742 123.5073 L261.742 102.5073 Z"
           id="path99" />
      </clipPath>
      <clipPath
         clipPathUnits="userSpaceOnUse"
         id="clipPath34">
        <path
           d="M162.584 147.7333 L162.584 168.7333 L243.584 168.7333 L243.584 147.7333 Z"
           id="path102" />
      </clipPath>
      <clipPath
         clipPathUnits="userSpaceOnUse"
         id="clipPath35">
        <path
           d="M253.8626 208.4853 L253.8626 229.4853 L334.8626 229.4853 L334.8626 208.4853 Z"
           id="path105" />
      </clipPath>
      <clipPath
         clipPathUnits="userSpaceOnUse"
         id="clipPath36">
        <path
           d="M265.1419 199.0659 L265.1419 241.0947 L326.1934 241.0947 L326.1934 199.0659 Z"
           id="path108" />
      </clipPath>
      <clipPath
         clipPathUnits="userSpaceOnUse"
         id="clipPath37">
        <path
           d="M630.8607 710.9258 L630.8607 837.5538 L642.7993 837.5538 L642.7993 710.9258 Z"
           id="path111" />
      </clipPath>
      <clipPath
         clipPathUnits="userSpaceOnUse"
         id="clipPath38">
        <path
           d="M324.3395 630.9061 L324.3395 651.9061 L405.3395 651.9061 L405.3395 630.9061 Z"
           id="path114" />
      </clipPath>
      <clipPath
         clipPathUnits="userSpaceOnUse"
         id="clipPath39">
        <path
           d="M382.6343 616.7662 L382.6343 639.9807 L405.5261 639.9807 L405.5261 616.7662 Z"
           id="path117" />
      </clipPath>
      <clipPath
         clipPathUnits="userSpaceOnUse"
         id="clipPath40">
        <path
           d="M348.8922 615.9692 L348.8922 641.9692 L439.8922 641.9692 L439.8922 615.9692 Z"
           id="path120" />
      </clipPath>
      <clipPath
         clipPathUnits="userSpaceOnUse"
         id="clipPath41">
        <path
           d="M519.3734 643.5132 L519.3734 664.5132 L600.3734 664.5132 L600.3734 643.5132 Z"
           id="path123" />
      </clipPath>
      <clipPath
         clipPathUnits="userSpaceOnUse"
         id="clipPath42">
        <path
           d="M519.3734 623.5132 L519.3734 644.5132 L600.3734 644.5132 L600.3734 623.5132 Z"
           id="path126" />
      </clipPath>
      <clipPath
         clipPathUnits="userSpaceOnUse"
         id="clipPath43">
        <path
           d="M467.834 548.524 L467.834 624.7932 L560.826 624.7932 L560.826 548.524 Z"
           id="path129" />
      </clipPath>
    </defs>
    <g
       style="fill:white; stroke:white;"
       id="g135">
      <rect
         x="0"
         width="779"
         height="905"
         y="0"
         style="stroke:none;"
         id="rect133" />
    </g>
    <g
       style="font-weight:bold; font-size:10; text-rendering:geometricPrecision;"
       id="g145">
      <path
         d="M0.0469 6.7031 L6.7656 6.7031 L6.7656 8.125 L4.3438 8.125 L4.3438 14 L2.4688 14 L2.4688 8.125 L0.0469 8.125 L0.0469 6.7031 ZM7.665 8.5312 L9.415 8.5312 L9.415 14 L7.665 14 L7.665 8.5312 ZM7.665 6.4062 L9.415 6.4062 L9.415 7.8281 L7.665 7.8281 L7.665 6.4062 ZM12.999 6.9844 L12.999 8.5312 L14.7959 8.5312 L14.7959 9.7812 L12.999 9.7812 L12.999 12.0938 Q12.999 12.4844 13.1475 12.6172 Q13.2959 12.75 13.749 12.75 L14.6553 12.75 L14.6553 14 L13.1553 14 Q12.1084 14 11.6787 13.5703 Q11.249 13.1406 11.249 12.0938 L11.249 9.7812 L10.374 9.7812 L10.374 8.5312 L11.249 8.5312 L11.249 6.9844 L12.999 6.9844 ZM15.873 6.4062 L17.623 6.4062 L17.623 14 L15.873 14 L15.873 6.4062 ZM24.7539 11.25 L24.7539 11.75 L20.6758 11.75 Q20.7383 12.3594 21.1133 12.6719 Q21.4883 12.9844 22.1758 12.9844 Q22.7227 12.9844 23.3086 12.8203 Q23.8945 12.6562 24.5039 12.3125 L24.5039 13.6719 Q23.8789 13.9062 23.2617 14.0234 Q22.6445 14.1406 22.0195 14.1406 Q20.5352 14.1406 19.7148 13.3828 Q18.8945 12.625 18.8945 11.2656 Q18.8945 9.9375 19.6992 9.1719 Q20.5039 8.4062 21.9258 8.4062 Q23.207 8.4062 23.9805 9.1797 Q24.7539 9.9531 24.7539 11.25 ZM22.957 10.6719 Q22.957 10.1719 22.668 9.8672 Q22.3789 9.5625 21.9102 9.5625 Q21.3945 9.5625 21.082 9.8438 Q20.7695 10.125 20.6914 10.6719 L22.957 10.6719 ZM26.3643 8.5312 L28.1143 8.5312 L28.1143 10.4219 L26.3643 10.4219 L26.3643 8.5312 ZM26.3643 12.1094 L28.1143 12.1094 L28.1143 14 L26.3643 14 L26.3643 12.1094 Z"
         style="clip-path:url(#clipPath2); stroke:none;"
         clip-path="url(#clipPath2)"
         id="path137" />
      <path
         d="M43.3594 6.9531 L43.3594 7.9062 Q42.7969 7.6406 42.2969 7.5078 Q41.7969 7.375 41.3281 7.375 Q40.5312 7.375 40.0938 7.6875 Q39.6562 8 39.6562 8.5781 Q39.6562 9.0625 39.9453 9.3125 Q40.2344 9.5625 41.0469 9.7031 L41.6406 9.8281 Q42.7344 10.0469 43.2656 10.5703 Q43.7969 11.0938 43.7969 11.9844 Q43.7969 13.0469 43.0859 13.5938 Q42.375 14.1406 41 14.1406 Q40.4844 14.1406 39.8984 14.0234 Q39.3125 13.9062 38.6875 13.6719 L38.6875 12.6562 Q39.2969 13 39.8672 13.1719 Q40.4375 13.3438 41 13.3438 Q41.8438 13.3438 42.3047 13.0078 Q42.7656 12.6719 42.7656 12.0625 Q42.7656 11.5312 42.4375 11.2266 Q42.1094 10.9219 41.3438 10.7656 L40.75 10.6562 Q39.6406 10.4375 39.1484 9.9688 Q38.6562 9.5 38.6562 8.6562 Q38.6562 7.6875 39.3359 7.1328 Q40.0156 6.5781 41.2188 6.5781 Q41.7344 6.5781 42.2656 6.6719 Q42.7969 6.7656 43.3594 6.9531 ZM45.1914 11.8438 L45.1914 8.5312 L46.0977 8.5312 L46.0977 11.8125 Q46.0977 12.5781 46.4023 12.9688 Q46.707 13.3594 47.3008 13.3594 Q48.0352 13.3594 48.457 12.8984 Q48.8789 12.4375 48.8789 11.625 L48.8789 8.5312 L49.7852 8.5312 L49.7852 14 L48.8789 14 L48.8789 13.1562 Q48.5508 13.6562 48.1211 13.8984 Q47.6914 14.1406 47.1133 14.1406 Q46.1758 14.1406 45.6836 13.5547 Q45.1914 12.9688 45.1914 11.8438 ZM47.457 8.4062 L47.457 8.4062 ZM52.498 13.1719 L52.498 16.0781 L51.5918 16.0781 L51.5918 8.5312 L52.498 8.5312 L52.498 9.3594 Q52.7793 8.875 53.209 8.6406 Q53.6387 8.4062 54.248 8.4062 Q55.248 8.4062 55.8652 9.1953 Q56.4824 9.9844 56.4824 11.2656 Q56.4824 12.5625 55.8652 13.3516 Q55.248 14.1406 54.248 14.1406 Q53.6387 14.1406 53.209 13.9062 Q52.7793 13.6719 52.498 13.1719 ZM55.5605 11.2656 Q55.5605 10.2812 55.1465 9.7188 Q54.7324 9.1562 54.0293 9.1562 Q53.3105 9.1562 52.9043 9.7188 Q52.498 10.2812 52.498 11.2656 Q52.498 12.2656 52.9043 12.8281 Q53.3105 13.3906 54.0293 13.3906 Q54.7324 13.3906 55.1465 12.8281 Q55.5605 12.2656 55.5605 11.2656 ZM61.1426 9.375 Q60.9863 9.2812 60.8145 9.2422 Q60.6426 9.2031 60.4238 9.2031 Q59.6582 9.2031 59.252 9.6953 Q58.8457 10.1875 58.8457 11.125 L58.8457 14 L57.9395 14 L57.9395 8.5312 L58.8457 8.5312 L58.8457 9.375 Q59.127 8.875 59.5801 8.6406 Q60.0332 8.4062 60.6895 8.4062 Q60.7832 8.4062 60.8926 8.4141 Q61.002 8.4219 61.1426 8.4531 L61.1426 9.375 ZM66.7695 11.0469 L66.7695 11.4844 L62.6289 11.4844 Q62.6914 12.4062 63.1914 12.8906 Q63.6914 13.375 64.582 13.375 Q65.0977 13.375 65.5898 13.25 Q66.082 13.125 66.5508 12.875 L66.5508 13.7188 Q66.0664 13.9219 65.5586 14.0312 Q65.0508 14.1406 64.5352 14.1406 Q63.2227 14.1406 62.457 13.3828 Q61.6914 12.625 61.6914 11.3125 Q61.6914 9.9688 62.418 9.1875 Q63.1445 8.4062 64.3789 8.4062 Q65.4883 8.4062 66.1289 9.1094 Q66.7695 9.8125 66.7695 11.0469 ZM65.8633 10.7812 Q65.8633 10.0469 65.457 9.6016 Q65.0508 9.1562 64.3945 9.1562 Q63.6289 9.1562 63.1836 9.5859 Q62.7383 10.0156 62.6602 10.7812 L65.8633 10.7812 ZM71.7188 8.6875 L71.7188 9.5469 Q71.3438 9.3438 70.9375 9.25 Q70.5312 9.1562 70.0781 9.1562 Q69.4219 9.1562 69.0859 9.3594 Q68.75 9.5625 68.75 9.9688 Q68.75 10.2812 68.9844 10.4609 Q69.2188 10.6406 69.9531 10.7969 L70.25 10.875 Q71.2188 11.0781 71.6172 11.4531 Q72.0156 11.8281 72.0156 12.4844 Q72.0156 13.25 71.4141 13.6953 Q70.8125 14.1406 69.7656 14.1406 Q69.3125 14.1406 68.8359 14.0547 Q68.3594 13.9688 67.8438 13.7969 L67.8438 12.875 Q68.3438 13.125 68.8203 13.2578 Q69.2969 13.3906 69.7812 13.3906 Q70.4062 13.3906 70.75 13.1719 Q71.0938 12.9531 71.0938 12.5625 Q71.0938 12.1875 70.8516 11.9922 Q70.6094 11.7969 69.7656 11.625 L69.4531 11.5469 Q68.625 11.375 68.25 11.0078 Q67.875 10.6406 67.875 10.0156 Q67.875 9.2344 68.4219 8.8203 Q68.9688 8.4062 69.9844 8.4062 Q70.4688 8.4062 70.9141 8.4766 Q71.3594 8.5469 71.7188 8.6875 ZM76.9287 8.6875 L76.9287 9.5469 Q76.5537 9.3438 76.1475 9.25 Q75.7412 9.1562 75.2881 9.1562 Q74.6318 9.1562 74.2959 9.3594 Q73.96 9.5625 73.96 9.9688 Q73.96 10.2812 74.1943 10.4609 Q74.4287 10.6406 75.1631 10.7969 L75.46 10.875 Q76.4287 11.0781 76.8271 11.4531 Q77.2256 11.8281 77.2256 12.4844 Q77.2256 13.25 76.624 13.6953 Q76.0225 14.1406 74.9756 14.1406 Q74.5225 14.1406 74.0459 14.0547 Q73.5693 13.9688 73.0537 13.7969 L73.0537 12.875 Q73.5537 13.125 74.0303 13.2578 Q74.5068 13.3906 74.9912 13.3906 Q75.6162 13.3906 75.96 13.1719 Q76.3037 12.9531 76.3037 12.5625 Q76.3037 12.1875 76.0615 11.9922 Q75.8193 11.7969 74.9756 11.625 L74.6631 11.5469 Q73.835 11.375 73.46 11.0078 Q73.085 10.6406 73.085 10.0156 Q73.085 9.2344 73.6318 8.8203 Q74.1787 8.4062 75.1943 8.4062 Q75.6787 8.4062 76.124 8.4766 Q76.5693 8.5469 76.9287 8.6875 ZM78.6543 8.5312 L79.5605 8.5312 L79.5605 14 L78.6543 14 L78.6543 8.5312 ZM78.6543 6.4062 L79.5605 6.4062 L79.5605 7.5469 L78.6543 7.5469 L78.6543 6.4062 ZM83.5576 9.1562 Q82.8389 9.1562 82.417 9.7188 Q81.9951 10.2812 81.9951 11.2656 Q81.9951 12.25 82.4092 12.8125 Q82.8232 13.375 83.5576 13.375 Q84.2764 13.375 84.6982 12.8125 Q85.1201 12.25 85.1201 11.2656 Q85.1201 10.2969 84.6982 9.7266 Q84.2764 9.1562 83.5576 9.1562 ZM83.5576 8.4062 Q84.7295 8.4062 85.4014 9.1641 Q86.0732 9.9219 86.0732 11.2656 Q86.0732 12.6094 85.4014 13.375 Q84.7295 14.1406 83.5576 14.1406 Q82.3857 14.1406 81.7139 13.375 Q81.042 12.6094 81.042 11.2656 Q81.042 9.9219 81.7139 9.1641 Q82.3857 8.4062 83.5576 8.4062 ZM92.0977 10.7031 L92.0977 14 L91.207 14 L91.207 10.7344 Q91.207 9.9531 90.9023 9.5703 Q90.5977 9.1875 89.9883 9.1875 Q89.2695 9.1875 88.8477 9.6484 Q88.4258 10.1094 88.4258 10.9062 L88.4258 14 L87.5195 14 L87.5195 8.5312 L88.4258 8.5312 L88.4258 9.375 Q88.7539 8.8906 89.1914 8.6484 Q89.6289 8.4062 90.1914 8.4062 Q91.1289 8.4062 91.6133 8.9844 Q92.0977 9.5625 92.0977 10.7031 ZM99.1924 9.1562 Q98.4736 9.1562 98.0518 9.7188 Q97.6299 10.2812 97.6299 11.2656 Q97.6299 12.25 98.0439 12.8125 Q98.458 13.375 99.1924 13.375 Q99.9111 13.375 100.333 12.8125 Q100.7549 12.25 100.7549 11.2656 Q100.7549 10.2969 100.333 9.7266 Q99.9111 9.1562 99.1924 9.1562 ZM99.1924 8.4062 Q100.3643 8.4062 101.0361 9.1641 Q101.708 9.9219 101.708 11.2656 Q101.708 12.6094 101.0361 13.375 Q100.3643 14.1406 99.1924 14.1406 Q98.0205 14.1406 97.3486 13.375 Q96.6768 12.6094 96.6768 11.2656 Q96.6768 9.9219 97.3486 9.1641 Q98.0205 8.4062 99.1924 8.4062 ZM105.9668 6.4062 L105.9668 7.1562 L105.1074 7.1562 Q104.623 7.1562 104.4355 7.3516 Q104.248 7.5469 104.248 8.0469 L104.248 8.5312 L105.7168 8.5312 L105.7168 9.2344 L104.248 9.2344 L104.248 14 L103.3418 14 L103.3418 9.2344 L102.4824 9.2344 L102.4824 8.5312 L103.3418 8.5312 L103.3418 8.1562 Q103.3418 7.2344 103.7637 6.8203 Q104.1855 6.4062 105.1074 6.4062 L105.9668 6.4062 ZM109.9316 6.7031 L110.916 6.7031 L110.916 9.7031 L114.4941 9.7031 L114.4941 6.7031 L115.4785 6.7031 L115.4785 14 L114.4941 14 L114.4941 10.5312 L110.916 10.5312 L110.916 14 L109.9316 14 L109.9316 6.7031 ZM117.4512 6.7031 L118.9199 6.7031 L120.7793 11.6719 L122.6543 6.7031 L124.123 6.7031 L124.123 14 L123.1543 14 L123.1543 7.5938 L121.2793 12.5938 L120.2793 12.5938 L118.4043 7.5938 L118.4043 14 L117.4512 14 L117.4512 6.7031 ZM131.0479 12.9531 L131.0479 11 L129.4385 11 L129.4385 10.1875 L132.0166 10.1875 L132.0166 13.3281 Q131.4541 13.7188 130.7666 13.9297 Q130.0791 14.1406 129.2979 14.1406 Q127.5791 14.1406 126.6182 13.1406 Q125.6572 12.1406 125.6572 10.3594 Q125.6572 8.5781 126.6182 7.5781 Q127.5791 6.5781 129.2979 6.5781 Q130.001 6.5781 130.6494 6.75 Q131.2979 6.9219 131.8291 7.2656 L131.8291 8.3281 Q131.2822 7.8594 130.6729 7.625 Q130.0635 7.3906 129.376 7.3906 Q128.0322 7.3906 127.3682 8.1328 Q126.7041 8.875 126.7041 10.3594 Q126.7041 11.8438 127.3682 12.5859 Q128.0322 13.3281 129.376 13.3281 Q129.9072 13.3281 130.3135 13.2422 Q130.7197 13.1562 131.0479 12.9531 ZM134.8125 10.5156 L134.8125 13.1875 L136.3906 13.1875 Q137.1875 13.1875 137.5703 12.8594 Q137.9531 12.5312 137.9531 11.8438 Q137.9531 11.1719 137.5703 10.8438 Q137.1875 10.5156 136.3906 10.5156 L134.8125 10.5156 ZM134.8125 7.5156 L134.8125 9.7188 L136.2656 9.7188 Q137 9.7188 137.3516 9.4453 Q137.7031 9.1719 137.7031 8.625 Q137.7031 8.0625 137.3516 7.7891 Q137 7.5156 136.2656 7.5156 L134.8125 7.5156 ZM133.8281 6.7031 L136.3438 6.7031 Q137.4688 6.7031 138.0781 7.1719 Q138.6875 7.6406 138.6875 8.5156 Q138.6875 9.1875 138.375 9.5781 Q138.0625 9.9688 137.4688 10.0625 Q138.1875 10.2188 138.5938 10.7188 Q139 11.2188 139 11.9531 Q139 12.9375 138.3359 13.4688 Q137.6719 14 136.4375 14 L133.8281 14 L133.8281 6.7031 ZM140.9385 13.1719 L142.5635 13.1719 L142.5635 7.6094 L140.7979 7.9531 L140.7979 7.0625 L142.5479 6.7031 L143.5322 6.7031 L143.5322 13.1719 L145.1416 13.1719 L145.1416 14 L140.9385 14 L140.9385 13.1719 ZM154.4482 9.5781 Q154.7764 8.9688 155.2451 8.6875 Q155.7139 8.4062 156.3545 8.4062 Q157.2139 8.4062 157.6748 9 Q158.1357 9.5938 158.1357 10.7031 L158.1357 14 L157.2295 14 L157.2295 10.7344 Q157.2295 9.9375 156.9561 9.5625 Q156.6826 9.1875 156.1045 9.1875 Q155.4014 9.1875 155.0029 9.6484 Q154.6045 10.1094 154.6045 10.9062 L154.6045 14 L153.6982 14 L153.6982 10.7344 Q153.6982 9.9375 153.417 9.5625 Q153.1357 9.1875 152.5576 9.1875 Q151.8701 9.1875 151.4639 9.6484 Q151.0576 10.1094 151.0576 10.9062 L151.0576 14 L150.1514 14 L150.1514 8.5312 L151.0576 8.5312 L151.0576 9.375 Q151.3701 8.875 151.7998 8.6406 Q152.2295 8.4062 152.8076 8.4062 Q153.417 8.4062 153.8311 8.7031 Q154.2451 9 154.4482 9.5781 ZM164.6113 11.0469 L164.6113 11.4844 L160.4707 11.4844 Q160.5332 12.4062 161.0332 12.8906 Q161.5332 13.375 162.4238 13.375 Q162.9395 13.375 163.4316 13.25 Q163.9238 13.125 164.3926 12.875 L164.3926 13.7188 Q163.9082 13.9219 163.4004 14.0312 Q162.8926 14.1406 162.377 14.1406 Q161.0645 14.1406 160.2988 13.3828 Q159.5332 12.625 159.5332 11.3125 Q159.5332 9.9688 160.2598 9.1875 Q160.9863 8.4062 162.2207 8.4062 Q163.3301 8.4062 163.9707 9.1094 Q164.6113 9.8125 164.6113 11.0469 ZM163.7051 10.7812 Q163.7051 10.0469 163.2988 9.6016 Q162.8926 9.1562 162.2363 9.1562 Q161.4707 9.1562 161.0254 9.5859 Q160.5801 10.0156 160.502 10.7812 L163.7051 10.7812 ZM169.6855 9.3594 L169.6855 6.4062 L170.5762 6.4062 L170.5762 14 L169.6855 14 L169.6855 13.1719 Q169.4043 13.6719 168.9668 13.9062 Q168.5293 14.1406 167.9199 14.1406 Q166.9355 14.1406 166.3105 13.3516 Q165.6855 12.5625 165.6855 11.2656 Q165.6855 9.9844 166.3105 9.1953 Q166.9355 8.4062 167.9199 8.4062 Q168.5293 8.4062 168.9668 8.6406 Q169.4043 8.875 169.6855 9.3594 ZM166.623 11.2656 Q166.623 12.2656 167.0293 12.8281 Q167.4355 13.3906 168.1543 13.3906 Q168.8574 13.3906 169.2715 12.8281 Q169.6855 12.2656 169.6855 11.2656 Q169.6855 10.2812 169.2715 9.7188 Q168.8574 9.1562 168.1543 9.1562 Q167.4355 9.1562 167.0293 9.7188 Q166.623 10.2812 166.623 11.2656 ZM172.4238 8.5312 L173.3301 8.5312 L173.3301 14 L172.4238 14 L172.4238 8.5312 ZM172.4238 6.4062 L173.3301 6.4062 L173.3301 7.5469 L172.4238 7.5469 L172.4238 6.4062 ZM177.6865 11.25 Q176.6084 11.25 176.1865 11.5 Q175.7646 11.75 175.7646 12.3438 Q175.7646 12.8281 176.0771 13.1094 Q176.3896 13.3906 176.9365 13.3906 Q177.6865 13.3906 178.1396 12.8594 Q178.5928 12.3281 178.5928 11.4531 L178.5928 11.25 L177.6865 11.25 ZM179.4834 10.875 L179.4834 14 L178.5928 14 L178.5928 13.1719 Q178.2803 13.6719 177.8193 13.9062 Q177.3584 14.1406 176.7021 14.1406 Q175.8584 14.1406 175.3584 13.6719 Q174.8584 13.2031 174.8584 12.4062 Q174.8584 11.4844 175.4834 11.0156 Q176.1084 10.5469 177.3271 10.5469 L178.5928 10.5469 L178.5928 10.4531 Q178.5928 9.8438 178.1787 9.5 Q177.7646 9.1562 177.0303 9.1562 Q176.5615 9.1562 176.1162 9.2734 Q175.6709 9.3906 175.2646 9.6094 L175.2646 8.7812 Q175.7646 8.5938 176.2256 8.5 Q176.6865 8.4062 177.124 8.4062 Q178.3115 8.4062 178.8975 9.0156 Q179.4834 9.625 179.4834 10.875 ZM182.2207 6.9844 L182.2207 8.5312 L184.0801 8.5312 L184.0801 9.2344 L182.2207 9.2344 L182.2207 12.2031 Q182.2207 12.8594 182.4082 13.0547 Q182.5957 13.25 183.1582 13.25 L184.0801 13.25 L184.0801 14 L183.1582 14 Q182.1113 14 181.7129 13.6094 Q181.3145 13.2188 181.3145 12.2031 L181.3145 9.2344 L180.6582 9.2344 L180.6582 8.5312 L181.3145 8.5312 L181.3145 6.9844 L182.2207 6.9844 ZM189.9385 11.0469 L189.9385 11.4844 L185.7979 11.4844 Q185.8604 12.4062 186.3604 12.8906 Q186.8604 13.375 187.751 13.375 Q188.2666 13.375 188.7588 13.25 Q189.251 13.125 189.7197 12.875 L189.7197 13.7188 Q189.2354 13.9219 188.7275 14.0312 Q188.2197 14.1406 187.7041 14.1406 Q186.3916 14.1406 185.626 13.3828 Q184.8604 12.625 184.8604 11.3125 Q184.8604 9.9688 185.5869 9.1875 Q186.3135 8.4062 187.5479 8.4062 Q188.6572 8.4062 189.2979 9.1094 Q189.9385 9.8125 189.9385 11.0469 ZM189.0322 10.7812 Q189.0322 10.0469 188.626 9.6016 Q188.2197 9.1562 187.5635 9.1562 Q186.7979 9.1562 186.3525 9.5859 Q185.9072 10.0156 185.8291 10.7812 L189.0322 10.7812 ZM195.0127 9.3594 L195.0127 6.4062 L195.9033 6.4062 L195.9033 14 L195.0127 14 L195.0127 13.1719 Q194.7314 13.6719 194.2939 13.9062 Q193.8564 14.1406 193.2471 14.1406 Q192.2627 14.1406 191.6377 13.3516 Q191.0127 12.5625 191.0127 11.2656 Q191.0127 9.9844 191.6377 9.1953 Q192.2627 8.4062 193.2471 8.4062 Q193.8564 8.4062 194.2939 8.6406 Q194.7314 8.875 195.0127 9.3594 ZM191.9502 11.2656 Q191.9502 12.2656 192.3564 12.8281 Q192.7627 13.3906 193.4814 13.3906 Q194.1846 13.3906 194.5986 12.8281 Q195.0127 12.2656 195.0127 11.2656 Q195.0127 10.2812 194.5986 9.7188 Q194.1846 9.1562 193.4814 9.1562 Q192.7627 9.1562 192.3564 9.7188 Q191.9502 10.2812 191.9502 11.2656 ZM200.9297 8.5312 L201.8359 8.5312 L201.8359 14 L200.9297 14 L200.9297 8.5312 ZM200.9297 6.4062 L201.8359 6.4062 L201.8359 7.5469 L200.9297 7.5469 L200.9297 6.4062 ZM208.2549 10.7031 L208.2549 14 L207.3643 14 L207.3643 10.7344 Q207.3643 9.9531 207.0596 9.5703 Q206.7549 9.1875 206.1455 9.1875 Q205.4268 9.1875 205.0049 9.6484 Q204.583 10.1094 204.583 10.9062 L204.583 14 L203.6768 14 L203.6768 8.5312 L204.583 8.5312 L204.583 9.375 Q204.9111 8.8906 205.3486 8.6484 Q205.7861 8.4062 206.3486 8.4062 Q207.2861 8.4062 207.7705 8.9844 Q208.2549 9.5625 208.2549 10.7031 ZM212.8271 6.4062 L212.8271 7.1562 L211.9678 7.1562 Q211.4834 7.1562 211.2959 7.3516 Q211.1084 7.5469 211.1084 8.0469 L211.1084 8.5312 L212.5771 8.5312 L212.5771 9.2344 L211.1084 9.2344 L211.1084 14 L210.2021 14 L210.2021 9.2344 L209.3428 9.2344 L209.3428 8.5312 L210.2021 8.5312 L210.2021 8.1562 Q210.2021 7.2344 210.624 6.8203 Q211.0459 6.4062 211.9678 6.4062 L212.8271 6.4062 ZM213.5664 6.4062 L214.4727 6.4062 L214.4727 14 L213.5664 14 L213.5664 6.4062 ZM218.8291 11.25 Q217.751 11.25 217.3291 11.5 Q216.9072 11.75 216.9072 12.3438 Q216.9072 12.8281 217.2197 13.1094 Q217.5322 13.3906 218.0791 13.3906 Q218.8291 13.3906 219.2822 12.8594 Q219.7354 12.3281 219.7354 11.4531 L219.7354 11.25 L218.8291 11.25 ZM220.626 10.875 L220.626 14 L219.7354 14 L219.7354 13.1719 Q219.4229 13.6719 218.9619 13.9062 Q218.501 14.1406 217.8447 14.1406 Q217.001 14.1406 216.501 13.6719 Q216.001 13.2031 216.001 12.4062 Q216.001 11.4844 216.626 11.0156 Q217.251 10.5469 218.4697 10.5469 L219.7354 10.5469 L219.7354 10.4531 Q219.7354 9.8438 219.3213 9.5 Q218.9072 9.1562 218.1729 9.1562 Q217.7041 9.1562 217.2588 9.2734 Q216.8135 9.3906 216.4072 9.6094 L216.4072 8.7812 Q216.9072 8.5938 217.3682 8.5 Q217.8291 8.4062 218.2666 8.4062 Q219.4541 8.4062 220.04 9.0156 Q220.626 9.625 220.626 10.875 ZM226.7383 9.5781 Q227.0664 8.9688 227.5352 8.6875 Q228.0039 8.4062 228.6445 8.4062 Q229.5039 8.4062 229.9648 9 Q230.4258 9.5938 230.4258 10.7031 L230.4258 14 L229.5195 14 L229.5195 10.7344 Q229.5195 9.9375 229.2461 9.5625 Q228.9727 9.1875 228.3945 9.1875 Q227.6914 9.1875 227.293 9.6484 Q226.8945 10.1094 226.8945 10.9062 L226.8945 14 L225.9883 14 L225.9883 10.7344 Q225.9883 9.9375 225.707 9.5625 Q225.4258 9.1875 224.8477 9.1875 Q224.1602 9.1875 223.7539 9.6484 Q223.3477 10.1094 223.3477 10.9062 L223.3477 14 L222.4414 14 L222.4414 8.5312 L223.3477 8.5312 L223.3477 9.375 Q223.6602 8.875 224.0898 8.6406 Q224.5195 8.4062 225.0977 8.4062 Q225.707 8.4062 226.1211 8.7031 Q226.5352 9 226.7383 9.5781 ZM236.4795 9.5781 Q236.8076 8.9688 237.2764 8.6875 Q237.7451 8.4062 238.3857 8.4062 Q239.2451 8.4062 239.7061 9 Q240.167 9.5938 240.167 10.7031 L240.167 14 L239.2607 14 L239.2607 10.7344 Q239.2607 9.9375 238.9873 9.5625 Q238.7139 9.1875 238.1357 9.1875 Q237.4326 9.1875 237.0342 9.6484 Q236.6357 10.1094 236.6357 10.9062 L236.6357 14 L235.7295 14 L235.7295 10.7344 Q235.7295 9.9375 235.4482 9.5625 Q235.167 9.1875 234.5889 9.1875 Q233.9014 9.1875 233.4951 9.6484 Q233.0889 10.1094 233.0889 10.9062 L233.0889 14 L232.1826 14 L232.1826 8.5312 L233.0889 8.5312 L233.0889 9.375 Q233.4014 8.875 233.8311 8.6406 Q234.2607 8.4062 234.8389 8.4062 Q235.4482 8.4062 235.8623 8.7031 Q236.2764 9 236.4795 9.5781 ZM244.4395 11.25 Q243.3613 11.25 242.9395 11.5 Q242.5176 11.75 242.5176 12.3438 Q242.5176 12.8281 242.8301 13.1094 Q243.1426 13.3906 243.6895 13.3906 Q244.4395 13.3906 244.8926 12.8594 Q245.3457 12.3281 245.3457 11.4531 L245.3457 11.25 L244.4395 11.25 ZM246.2363 10.875 L246.2363 14 L245.3457 14 L245.3457 13.1719 Q245.0332 13.6719 244.5723 13.9062 Q244.1113 14.1406 243.4551 14.1406 Q242.6113 14.1406 242.1113 13.6719 Q241.6113 13.2031 241.6113 12.4062 Q241.6113 11.4844 242.2363 11.0156 Q242.8613 10.5469 244.0801 10.5469 L245.3457 10.5469 L245.3457 10.4531 Q245.3457 9.8438 244.9316 9.5 Q244.5176 9.1562 243.7832 9.1562 Q243.3145 9.1562 242.8691 9.2734 Q242.4238 9.3906 242.0176 9.6094 L242.0176 8.7812 Q242.5176 8.5938 242.9785 8.5 Q243.4395 8.4062 243.877 8.4062 Q245.0645 8.4062 245.6504 9.0156 Q246.2363 9.625 246.2363 10.875 ZM248.9736 6.9844 L248.9736 8.5312 L250.833 8.5312 L250.833 9.2344 L248.9736 9.2344 L248.9736 12.2031 Q248.9736 12.8594 249.1611 13.0547 Q249.3486 13.25 249.9111 13.25 L250.833 13.25 L250.833 14 L249.9111 14 Q248.8643 14 248.4658 13.6094 Q248.0674 13.2188 248.0674 12.2031 L248.0674 9.2344 L247.4111 9.2344 L247.4111 8.5312 L248.0674 8.5312 L248.0674 6.9844 L248.9736 6.9844 ZM252.0039 8.5312 L252.9102 8.5312 L252.9102 14 L252.0039 14 L252.0039 8.5312 ZM252.0039 6.4062 L252.9102 6.4062 L252.9102 7.5469 L252.0039 7.5469 L252.0039 6.4062 ZM256.9072 9.1562 Q256.1885 9.1562 255.7666 9.7188 Q255.3447 10.2812 255.3447 11.2656 Q255.3447 12.25 255.7588 12.8125 Q256.1729 13.375 256.9072 13.375 Q257.626 13.375 258.0479 12.8125 Q258.4697 12.25 258.4697 11.2656 Q258.4697 10.2969 258.0479 9.7266 Q257.626 9.1562 256.9072 9.1562 ZM256.9072 8.4062 Q258.0791 8.4062 258.751 9.1641 Q259.4229 9.9219 259.4229 11.2656 Q259.4229 12.6094 258.751 13.375 Q258.0791 14.1406 256.9072 14.1406 Q255.7354 14.1406 255.0635 13.375 Q254.3916 12.6094 254.3916 11.2656 Q254.3916 9.9219 255.0635 9.1641 Q255.7354 8.4062 256.9072 8.4062 ZM265.4473 10.7031 L265.4473 14 L264.5566 14 L264.5566 10.7344 Q264.5566 9.9531 264.252 9.5703 Q263.9473 9.1875 263.3379 9.1875 Q262.6191 9.1875 262.1973 9.6484 Q261.7754 10.1094 261.7754 10.9062 L261.7754 14 L260.8691 14 L260.8691 8.5312 L261.7754 8.5312 L261.7754 9.375 Q262.1035 8.8906 262.541 8.6484 Q262.9785 8.4062 263.541 8.4062 Q264.4785 8.4062 264.9629 8.9844 Q265.4473 9.5625 265.4473 10.7031 ZM274.3545 11.2656 Q274.3545 10.2812 273.9404 9.7188 Q273.5264 9.1562 272.8232 9.1562 Q272.1045 9.1562 271.6982 9.7188 Q271.292 10.2812 271.292 11.2656 Q271.292 12.2656 271.6982 12.8281 Q272.1045 13.3906 272.8232 13.3906 Q273.5264 13.3906 273.9404 12.8281 Q274.3545 12.2656 274.3545 11.2656 ZM271.292 9.3594 Q271.5732 8.875 272.0029 8.6406 Q272.4326 8.4062 273.042 8.4062 Q274.042 8.4062 274.6592 9.1953 Q275.2764 9.9844 275.2764 11.2656 Q275.2764 12.5625 274.6592 13.3516 Q274.042 14.1406 273.042 14.1406 Q272.4326 14.1406 272.0029 13.9062 Q271.5732 13.6719 271.292 13.1719 L271.292 14 L270.3857 14 L270.3857 6.4062 L271.292 6.4062 L271.292 9.3594 ZM279.0459 14.5156 Q278.6709 15.4844 278.3037 15.7812 Q277.9365 16.0781 277.3428 16.0781 L276.624 16.0781 L276.624 15.3281 L277.1396 15.3281 Q277.5146 15.3281 277.7178 15.1562 Q277.9209 14.9844 278.1709 14.3281 L278.3428 13.9062 L276.124 8.5312 L277.0771 8.5312 L278.7803 12.8125 L280.499 8.5312 L281.4521 8.5312 L279.0459 14.5156 ZM284.8926 6.7031 L291.0645 6.7031 L291.0645 7.5469 L288.4707 7.5469 L288.4707 14 L287.4863 14 L287.4863 7.5469 L284.8926 7.5469 L284.8926 6.7031 ZM292.0166 6.7031 L293.001 6.7031 L293.001 9.7031 L296.5791 9.7031 L296.5791 6.7031 L297.5635 6.7031 L297.5635 14 L296.5791 14 L296.5791 10.5312 L293.001 10.5312 L293.001 14 L292.0166 14 L292.0166 6.7031 ZM300.5205 10.5156 L300.5205 13.1875 L302.0986 13.1875 Q302.8955 13.1875 303.2783 12.8594 Q303.6611 12.5312 303.6611 11.8438 Q303.6611 11.1719 303.2783 10.8438 Q302.8955 10.5156 302.0986 10.5156 L300.5205 10.5156 ZM300.5205 7.5156 L300.5205 9.7188 L301.9736 9.7188 Q302.708 9.7188 303.0596 9.4453 Q303.4111 9.1719 303.4111 8.625 Q303.4111 8.0625 303.0596 7.7891 Q302.708 7.5156 301.9736 7.5156 L300.5205 7.5156 ZM299.5361 6.7031 L302.0518 6.7031 Q303.1768 6.7031 303.7861 7.1719 Q304.3955 7.6406 304.3955 8.5156 Q304.3955 9.1875 304.083 9.5781 Q303.7705 9.9688 303.1768 10.0625 Q303.8955 10.2188 304.3018 10.7188 Q304.708 11.2188 304.708 11.9531 Q304.708 12.9375 304.0439 13.4688 Q303.3799 14 302.1455 14 L299.5361 14 L299.5361 6.7031 ZM307.3809 7.5156 L307.3809 13.1875 L308.5684 13.1875 Q310.084 13.1875 310.7793 12.5078 Q311.4746 11.8281 311.4746 10.3438 Q311.4746 8.875 310.7793 8.1953 Q310.084 7.5156 308.5684 7.5156 L307.3809 7.5156 ZM306.3965 6.7031 L308.4277 6.7031 Q310.5371 6.7031 311.5293 7.5859 Q312.5215 8.4688 312.5215 10.3438 Q312.5215 12.2344 311.5293 13.1172 Q310.5371 14 308.4277 14 L306.3965 14 L306.3965 6.7031 Z"
         style="clip-path:url(#clipPath2); stroke:none;"
         clip-path="url(#clipPath2)"
         id="path139" />
      <path
         d="M4.25 21.9375 Q3.3906 21.9375 2.9141 22.5703 Q2.4375 23.2031 2.4375 24.3594 Q2.4375 25.5156 2.9141 26.1484 Q3.3906 26.7812 4.25 26.7812 Q5.1094 26.7812 5.5859 26.1484 Q6.0625 25.5156 6.0625 24.3594 Q6.0625 23.2031 5.5859 22.5703 Q5.1094 21.9375 4.25 21.9375 ZM4.25 20.5781 Q6 20.5781 7 21.5859 Q8 22.5938 8 24.3594 Q8 26.125 7 27.1328 Q6 28.1406 4.25 28.1406 Q2.5 28.1406 1.5 27.1328 Q0.5 26.125 0.5 24.3594 Q0.5 22.5938 1.5 21.5859 Q2.5 20.5781 4.25 20.5781 ZM13.4072 24.0156 Q13.1729 23.9062 12.9463 23.8594 Q12.7197 23.8125 12.4854 23.8125 Q11.8135 23.8125 11.4541 24.2422 Q11.0947 24.6719 11.0947 25.4844 L11.0947 28 L9.3447 28 L9.3447 22.5312 L11.0947 22.5312 L11.0947 23.4219 Q11.4229 22.8906 11.8604 22.6484 Q12.2979 22.4062 12.9072 22.4062 Q13.001 22.4062 13.1025 22.4062 Q13.2041 22.4062 13.3916 22.4375 L13.4072 24.0156 ZM17.9951 27.0781 Q17.6357 27.5469 17.1982 27.7734 Q16.7607 28 16.1982 28 Q15.1982 28 14.542 27.2109 Q13.8857 26.4219 13.8857 25.2031 Q13.8857 23.9688 14.542 23.1875 Q15.1982 22.4062 16.1982 22.4062 Q16.7607 22.4062 17.1982 22.6328 Q17.6357 22.8594 17.9951 23.3438 L17.9951 22.5312 L19.7451 22.5312 L19.7451 27.4531 Q19.7451 28.7656 18.917 29.4609 Q18.0889 30.1562 16.5107 30.1562 Q15.9951 30.1562 15.5186 30.0781 Q15.042 30 14.5576 29.8438 L14.5576 28.4844 Q15.0107 28.75 15.4482 28.875 Q15.8857 29 16.3389 29 Q17.1982 29 17.5967 28.625 Q17.9951 28.25 17.9951 27.4531 L17.9951 27.0781 ZM16.8389 23.6719 Q16.292 23.6719 15.9951 24.0703 Q15.6982 24.4688 15.6982 25.2031 Q15.6982 25.9531 15.9873 26.3438 Q16.2764 26.7344 16.8389 26.7344 Q17.3857 26.7344 17.6904 26.3281 Q17.9951 25.9219 17.9951 25.2031 Q17.9951 24.4688 17.6904 24.0703 Q17.3857 23.6719 16.8389 23.6719 ZM23.8877 25.5312 Q23.3408 25.5312 23.0596 25.7188 Q22.7783 25.9062 22.7783 26.2656 Q22.7783 26.6094 23.0049 26.7969 Q23.2314 26.9844 23.6221 26.9844 Q24.1221 26.9844 24.458 26.625 Q24.7939 26.2656 24.7939 25.7344 L24.7939 25.5312 L23.8877 25.5312 ZM26.5596 24.875 L26.5596 28 L24.7939 28 L24.7939 27.1875 Q24.4346 27.6875 23.9971 27.9141 Q23.5596 28.1406 22.9346 28.1406 Q22.0752 28.1406 21.5518 27.6484 Q21.0283 27.1562 21.0283 26.3594 Q21.0283 25.3906 21.6846 24.9453 Q22.3408 24.5 23.7627 24.5 L24.7939 24.5 L24.7939 24.3594 Q24.7939 23.9531 24.4658 23.7578 Q24.1377 23.5625 23.4502 23.5625 Q22.8877 23.5625 22.4033 23.6719 Q21.9189 23.7812 21.4971 24.0156 L21.4971 22.6719 Q22.0596 22.5469 22.6299 22.4766 Q23.2002 22.4062 23.7627 22.4062 Q25.2471 22.4062 25.9033 22.9844 Q26.5596 23.5625 26.5596 24.875 ZM33.6826 24.6719 L33.6826 28 L31.917 28 L31.917 27.4531 L31.917 25.4531 Q31.917 24.75 31.8857 24.4766 Q31.8545 24.2031 31.7764 24.0781 Q31.6826 23.9062 31.5029 23.8125 Q31.3232 23.7188 31.1045 23.7188 Q30.5576 23.7188 30.2451 24.1406 Q29.9326 24.5625 29.9326 25.3125 L29.9326 28 L28.1826 28 L28.1826 22.5312 L29.9326 22.5312 L29.9326 23.3281 Q30.3232 22.8594 30.7686 22.6328 Q31.2139 22.4062 31.7451 22.4062 Q32.6982 22.4062 33.1904 22.9844 Q33.6826 23.5625 33.6826 24.6719 ZM35.3018 22.5312 L37.0518 22.5312 L37.0518 28 L35.3018 28 L35.3018 22.5312 ZM35.3018 20.4062 L37.0518 20.4062 L37.0518 21.8281 L35.3018 21.8281 L35.3018 20.4062 ZM42.9951 22.7031 L42.9951 24.0312 Q42.4326 23.7969 41.9092 23.6797 Q41.3857 23.5625 40.9326 23.5625 Q40.4326 23.5625 40.1904 23.6875 Q39.9482 23.8125 39.9482 24.0625 Q39.9482 24.2812 40.1279 24.3906 Q40.3076 24.5 40.792 24.5625 L41.0889 24.5938 Q42.4326 24.7656 42.9014 25.1562 Q43.3701 25.5469 43.3701 26.3906 Q43.3701 27.2656 42.7217 27.7031 Q42.0732 28.1406 40.792 28.1406 Q40.2607 28.1406 39.6826 28.0547 Q39.1045 27.9688 38.4795 27.7969 L38.4795 26.4688 Q39.0107 26.7188 39.5576 26.8516 Q40.1045 26.9844 40.667 26.9844 Q41.1826 26.9844 41.4404 26.8438 Q41.6982 26.7031 41.6982 26.4219 Q41.6982 26.1875 41.5264 26.0703 Q41.3545 25.9531 40.8232 25.8906 L40.5107 25.8438 Q39.3389 25.7031 38.8701 25.3047 Q38.4014 24.9062 38.4014 24.1094 Q38.4014 23.2344 38.9951 22.8203 Q39.5889 22.4062 40.8232 22.4062 Q41.3076 22.4062 41.8389 22.4766 Q42.3701 22.5469 42.9951 22.7031 ZM49.7441 23.4375 Q50.0723 22.9375 50.5332 22.6719 Q50.9941 22.4062 51.541 22.4062 Q52.4785 22.4062 52.9707 22.9844 Q53.4629 23.5625 53.4629 24.6719 L53.4629 28 L51.7129 28 L51.7129 25.1406 Q51.7129 25.0781 51.7129 25.0156 Q51.7129 24.9531 51.7129 24.8281 Q51.7129 24.2344 51.5488 23.9766 Q51.3848 23.7188 50.9941 23.7188 Q50.4941 23.7188 50.2285 24.125 Q49.9629 24.5312 49.9473 25.3125 L49.9473 28 L48.1816 28 L48.1816 25.1406 Q48.1816 24.2344 48.0254 23.9766 Q47.8691 23.7188 47.4785 23.7188 Q46.9785 23.7188 46.7051 24.1328 Q46.4316 24.5469 46.4316 25.3125 L46.4316 28 L44.666 28 L44.666 22.5312 L46.4316 22.5312 L46.4316 23.3281 Q46.7441 22.875 47.166 22.6406 Q47.5879 22.4062 48.0879 22.4062 Q48.6504 22.4062 49.0879 22.6797 Q49.5254 22.9531 49.7441 23.4375 ZM55.3828 22.5312 L57.1328 22.5312 L57.1328 24.4219 L55.3828 24.4219 L55.3828 22.5312 ZM55.3828 26.1094 L57.1328 26.1094 L57.1328 28 L55.3828 28 L55.3828 26.1094 Z"
         style="clip-path:url(#clipPath2); stroke:none;"
         clip-path="url(#clipPath2)"
         id="path141" />
      <path
         d="M66.9844 20.7031 L67.9688 20.7031 L67.9688 23.7031 L71.5469 23.7031 L71.5469 20.7031 L72.5312 20.7031 L72.5312 28 L71.5469 28 L71.5469 24.5312 L67.9688 24.5312 L67.9688 28 L66.9844 28 L66.9844 20.7031 ZM76.582 23.1562 Q75.8633 23.1562 75.4414 23.7188 Q75.0195 24.2812 75.0195 25.2656 Q75.0195 26.25 75.4336 26.8125 Q75.8477 27.375 76.582 27.375 Q77.3008 27.375 77.7227 26.8125 Q78.1445 26.25 78.1445 25.2656 Q78.1445 24.2969 77.7227 23.7266 Q77.3008 23.1562 76.582 23.1562 ZM76.582 22.4062 Q77.7539 22.4062 78.4258 23.1641 Q79.0977 23.9219 79.0977 25.2656 Q79.0977 26.6094 78.4258 27.375 Q77.7539 28.1406 76.582 28.1406 Q75.4102 28.1406 74.7383 27.375 Q74.0664 26.6094 74.0664 25.2656 Q74.0664 23.9219 74.7383 23.1641 Q75.4102 22.4062 76.582 22.4062 ZM84.8408 23.5781 Q85.1689 22.9688 85.6377 22.6875 Q86.1064 22.4062 86.7471 22.4062 Q87.6064 22.4062 88.0674 23 Q88.5283 23.5938 88.5283 24.7031 L88.5283 28 L87.6221 28 L87.6221 24.7344 Q87.6221 23.9375 87.3486 23.5625 Q87.0752 23.1875 86.4971 23.1875 Q85.7939 23.1875 85.3955 23.6484 Q84.9971 24.1094 84.9971 24.9062 L84.9971 28 L84.0908 28 L84.0908 24.7344 Q84.0908 23.9375 83.8096 23.5625 Q83.5283 23.1875 82.9502 23.1875 Q82.2627 23.1875 81.8564 23.6484 Q81.4502 24.1094 81.4502 24.9062 L81.4502 28 L80.5439 28 L80.5439 22.5312 L81.4502 22.5312 L81.4502 23.375 Q81.7627 22.875 82.1924 22.6406 Q82.6221 22.4062 83.2002 22.4062 Q83.8096 22.4062 84.2236 22.7031 Q84.6377 23 84.8408 23.5781 ZM92.4414 23.1562 Q91.7227 23.1562 91.3008 23.7188 Q90.8789 24.2812 90.8789 25.2656 Q90.8789 26.25 91.293 26.8125 Q91.707 27.375 92.4414 27.375 Q93.1602 27.375 93.582 26.8125 Q94.0039 26.25 94.0039 25.2656 Q94.0039 24.2969 93.582 23.7266 Q93.1602 23.1562 92.4414 23.1562 ZM92.4414 22.4062 Q93.6133 22.4062 94.2852 23.1641 Q94.957 23.9219 94.957 25.2656 Q94.957 26.6094 94.2852 27.375 Q93.6133 28.1406 92.4414 28.1406 Q91.2695 28.1406 90.5977 27.375 Q89.9258 26.6094 89.9258 25.2656 Q89.9258 23.9219 90.5977 23.1641 Q91.2695 22.4062 92.4414 22.4062 ZM103.0977 22.6875 L103.0977 23.5469 Q102.7227 23.3438 102.3164 23.25 Q101.9102 23.1562 101.457 23.1562 Q100.8008 23.1562 100.4648 23.3594 Q100.1289 23.5625 100.1289 23.9688 Q100.1289 24.2812 100.3633 24.4609 Q100.5977 24.6406 101.332 24.7969 L101.6289 24.875 Q102.5977 25.0781 102.9961 25.4531 Q103.3945 25.8281 103.3945 26.4844 Q103.3945 27.25 102.793 27.6953 Q102.1914 28.1406 101.1445 28.1406 Q100.6914 28.1406 100.2148 28.0547 Q99.7383 27.9688 99.2227 27.7969 L99.2227 26.875 Q99.7227 27.125 100.1992 27.2578 Q100.6758 27.3906 101.1602 27.3906 Q101.7852 27.3906 102.1289 27.1719 Q102.4727 26.9531 102.4727 26.5625 Q102.4727 26.1875 102.2305 25.9922 Q101.9883 25.7969 101.1445 25.625 L100.832 25.5469 Q100.0039 25.375 99.6289 25.0078 Q99.2539 24.6406 99.2539 24.0156 Q99.2539 23.2344 99.8008 22.8203 Q100.3477 22.4062 101.3633 22.4062 Q101.8477 22.4062 102.293 22.4766 Q102.7383 22.5469 103.0977 22.6875 ZM107.3076 25.25 Q106.2295 25.25 105.8076 25.5 Q105.3857 25.75 105.3857 26.3438 Q105.3857 26.8281 105.6982 27.1094 Q106.0107 27.3906 106.5576 27.3906 Q107.3076 27.3906 107.7607 26.8594 Q108.2139 26.3281 108.2139 25.4531 L108.2139 25.25 L107.3076 25.25 ZM109.1045 24.875 L109.1045 28 L108.2139 28 L108.2139 27.1719 Q107.9014 27.6719 107.4404 27.9062 Q106.9795 28.1406 106.3232 28.1406 Q105.4795 28.1406 104.9795 27.6719 Q104.4795 27.2031 104.4795 26.4062 Q104.4795 25.4844 105.1045 25.0156 Q105.7295 24.5469 106.9482 24.5469 L108.2139 24.5469 L108.2139 24.4531 Q108.2139 23.8438 107.7998 23.5 Q107.3857 23.1562 106.6514 23.1562 Q106.1826 23.1562 105.7373 23.2734 Q105.292 23.3906 104.8857 23.6094 L104.8857 22.7812 Q105.3857 22.5938 105.8467 22.5 Q106.3076 22.4062 106.7451 22.4062 Q107.9326 22.4062 108.5186 23.0156 Q109.1045 23.625 109.1045 24.875 ZM111.8262 27.1719 L111.8262 30.0781 L110.9199 30.0781 L110.9199 22.5312 L111.8262 22.5312 L111.8262 23.3594 Q112.1074 22.875 112.5371 22.6406 Q112.9668 22.4062 113.5762 22.4062 Q114.5762 22.4062 115.1934 23.1953 Q115.8105 23.9844 115.8105 25.2656 Q115.8105 26.5625 115.1934 27.3516 Q114.5762 28.1406 113.5762 28.1406 Q112.9668 28.1406 112.5371 27.9062 Q112.1074 27.6719 111.8262 27.1719 ZM114.8887 25.2656 Q114.8887 24.2812 114.4746 23.7188 Q114.0605 23.1562 113.3574 23.1562 Q112.6387 23.1562 112.2324 23.7188 Q111.8262 24.2812 111.8262 25.2656 Q111.8262 26.2656 112.2324 26.8281 Q112.6387 27.3906 113.3574 27.3906 Q114.0605 27.3906 114.4746 26.8281 Q114.8887 26.2656 114.8887 25.2656 ZM117.2988 22.5312 L118.2051 22.5312 L118.2051 28 L117.2988 28 L117.2988 22.5312 ZM117.2988 20.4062 L118.2051 20.4062 L118.2051 21.5469 L117.2988 21.5469 L117.2988 20.4062 ZM124.7646 25.0469 L124.7646 25.4844 L120.624 25.4844 Q120.6865 26.4062 121.1865 26.8906 Q121.6865 27.375 122.5771 27.375 Q123.0928 27.375 123.585 27.25 Q124.0771 27.125 124.5459 26.875 L124.5459 27.7188 Q124.0615 27.9219 123.5537 28.0312 Q123.0459 28.1406 122.5303 28.1406 Q121.2178 28.1406 120.4521 27.3828 Q119.6865 26.625 119.6865 25.3125 Q119.6865 23.9688 120.4131 23.1875 Q121.1396 22.4062 122.374 22.4062 Q123.4834 22.4062 124.124 23.1094 Q124.7646 23.8125 124.7646 25.0469 ZM123.8584 24.7812 Q123.8584 24.0469 123.4521 23.6016 Q123.0459 23.1562 122.3896 23.1562 Q121.624 23.1562 121.1787 23.5859 Q120.7334 24.0156 120.6553 24.7812 L123.8584 24.7812 ZM130.7764 24.7031 L130.7764 28 L129.8857 28 L129.8857 24.7344 Q129.8857 23.9531 129.5811 23.5703 Q129.2764 23.1875 128.667 23.1875 Q127.9482 23.1875 127.5264 23.6484 Q127.1045 24.1094 127.1045 24.9062 L127.1045 28 L126.1982 28 L126.1982 22.5312 L127.1045 22.5312 L127.1045 23.375 Q127.4326 22.8906 127.8701 22.6484 Q128.3076 22.4062 128.8701 22.4062 Q129.8076 22.4062 130.292 22.9844 Q130.7764 23.5625 130.7764 24.7031 ZM136.0518 22.6875 L136.0518 23.5469 Q135.6768 23.3438 135.2705 23.25 Q134.8643 23.1562 134.4111 23.1562 Q133.7549 23.1562 133.4189 23.3594 Q133.083 23.5625 133.083 23.9688 Q133.083 24.2812 133.3174 24.4609 Q133.5518 24.6406 134.2861 24.7969 L134.583 24.875 Q135.5518 25.0781 135.9502 25.4531 Q136.3486 25.8281 136.3486 26.4844 Q136.3486 27.25 135.7471 27.6953 Q135.1455 28.1406 134.0986 28.1406 Q133.6455 28.1406 133.1689 28.0547 Q132.6924 27.9688 132.1768 27.7969 L132.1768 26.875 Q132.6768 27.125 133.1533 27.2578 Q133.6299 27.3906 134.1143 27.3906 Q134.7393 27.3906 135.083 27.1719 Q135.4268 26.9531 135.4268 26.5625 Q135.4268 26.1875 135.1846 25.9922 Q134.9424 25.7969 134.0986 25.625 L133.7861 25.5469 Q132.958 25.375 132.583 25.0078 Q132.208 24.6406 132.208 24.0156 Q132.208 23.2344 132.7549 22.8203 Q133.3018 22.4062 134.3174 22.4062 Q134.8018 22.4062 135.2471 22.4766 Q135.6924 22.5469 136.0518 22.6875 Z"
         style="clip-path:url(#clipPath2); stroke:none;"
         clip-path="url(#clipPath2)"
         id="path143" />
    </g>
    <g
       style="fill:navy; text-rendering:geometricPrecision; font-size:8; stroke:navy;"
       id="g149">
      <text
         x="313"
         xml:space="preserve"
         y="16"
         style="clip-path:url(#clipPath4); stroke:none;"
         clip-path="url(#clipPath4)"
         id="text147">1, 2</text>
    </g>
    <g
       style="fill:rgb(180,180,100); text-rendering:geometricPrecision; fill-opacity:0.098; stroke-opacity:0.098; stroke:rgb(180,180,100);"
       id="g153">
      <path
         d="M409.8709 343.2782 L476.8709 343.2782 L494.8709 361.2782 L494.8709 408.2782 L476.8709 426.2782 L409.8709 426.2782 L391.8709 408.2782 L391.8709 361.2782 Z"
         style="clip-path:url(#clipPath5); stroke:none;"
         clip-path="url(#clipPath5)"
         id="path151" />
    </g>
    <g
       style="fill:gray; text-rendering:geometricPrecision; stroke:gray;"
       id="g157">
      <path
         d="M409.8709 343.2782 L476.8709 343.2782 L494.8709 361.2782 L494.8709 408.2782 L476.8709 426.2782 L409.8709 426.2782 L391.8709 408.2782 L391.8709 361.2782 Z"
         style="fill:none; clip-path:url(#clipPath5);"
         clip-path="url(#clipPath5)"
         id="path155" />
    </g>
    <g
       style="fill:rgb(180,180,100); text-rendering:geometricPrecision; fill-opacity:0.098; stroke-opacity:0.098; stroke:rgb(180,180,100);"
       id="g161">
      <path
         d="M408.5376 465.2276 L475.5376 465.2276 L493.5376 483.2276 L493.5376 530.2276 L475.5376 548.2276 L408.5376 548.2276 L390.5376 530.2276 L390.5376 483.2276 Z"
         style="clip-path:url(#clipPath6); stroke:none;"
         clip-path="url(#clipPath6)"
         id="path159" />
    </g>
    <g
       style="fill:gray; text-rendering:geometricPrecision; stroke:gray;"
       id="g165">
      <path
         d="M408.5376 465.2276 L475.5376 465.2276 L493.5376 483.2276 L493.5376 530.2276 L475.5376 548.2276 L408.5376 548.2276 L390.5376 530.2276 L390.5376 483.2276 Z"
         style="fill:none; clip-path:url(#clipPath6);"
         clip-path="url(#clipPath6)"
         id="path163" />
    </g>
    <g
       style="stroke-width:2; text-rendering:geometricPrecision;"
       id="g169">
      <path
         d="M618.0717 684.1737 L699.0717 684.1737"
         style="fill:none; clip-path:url(#clipPath7);"
         clip-path="url(#clipPath7)"
         id="path167" />
    </g>
    <g
       style="stroke-width:2; text-rendering:geometricPrecision;"
       id="g173">
      <path
         d="M598.9113 675.7463 L689.7548 675.3485"
         style="fill:none; clip-path:url(#clipPath8);"
         clip-path="url(#clipPath8)"
         id="path171" />
    </g>
    <g
       style="text-rendering:geometricPrecision;"
       id="g179">
      <path
         d="M491.5852 173.782 L443.8709 281.0147"
         style="fill:none; clip-path:url(#clipPath9);"
         clip-path="url(#clipPath9)"
         id="path175" />
      <path
         d="M443.8709 281.0147 L453.3783 272.4391 L443.8765 268.2112 Z"
         style="clip-path:url(#clipPath9); fill-rule:evenodd; stroke:none;"
         clip-path="url(#clipPath9)"
         id="path177" />
    </g>
    <g
       style="text-rendering:geometricPrecision;"
       id="g185">
      <path
         d="M238.7613 126.1286 L288.912 199.6253"
         style="fill:none; clip-path:url(#clipPath10);"
         clip-path="url(#clipPath10)"
         id="path181" />
      <path
         d="M288.912 199.6253 L286.6127 187.0299 L278.0221 192.8918 Z"
         style="clip-path:url(#clipPath10); fill-rule:evenodd; stroke:none;"
         clip-path="url(#clipPath10)"
         id="path183" />
    </g>
    <g
       style="text-rendering:geometricPrecision;"
       id="g191">
      <path
         d="M443.8709 301.0147 L443.8709 343.2782"
         style="fill:none; clip-path:url(#clipPath11);"
         clip-path="url(#clipPath11)"
         id="path187" />
      <path
         d="M443.8709 343.2782 L449.071 331.5782 L438.6709 331.5782 Z"
         style="clip-path:url(#clipPath11); fill-rule:evenodd; stroke:none;"
         clip-path="url(#clipPath11)"
         id="path189" />
    </g>
    <g
       style="text-rendering:geometricPrecision;"
       id="g197">
      <path
         d="M443.8709 427.2782 L442.5376 465.2276"
         style="fill:none; clip-path:url(#clipPath12);"
         clip-path="url(#clipPath12)"
         id="path193" />
      <path
         d="M442.5376 465.2276 L448.1452 453.7174 L437.7516 453.3522 Z"
         style="clip-path:url(#clipPath12); fill-rule:evenodd; stroke:none;"
         clip-path="url(#clipPath12)"
         id="path195" />
    </g>
    <g
       style="text-rendering:geometricPrecision;"
       id="g203">
      <path
         d="M442.5376 549.2276 C442.5376 549.2276 441.0988 556.5143 436.0628 563.2805 C436.0628 563.2805 431.0268 570.0467 417.3577 573.69 C417.3577 573.69 403.6886 577.3333 390.0195 584.3428 C390.0195 584.3428 376.3504 591.3522 371.3144 604.3697 C366.2784 617.3872 364.8395 631.4061 364.8395 631.4061"
         style="fill:none; clip-path:url(#clipPath13);"
         clip-path="url(#clipPath13)"
         id="path199" />
      <path
         d="M364.8395 631.4061 L371.2069 620.2982 L360.8613 619.2363 Z"
         style="clip-path:url(#clipPath13); fill-rule:evenodd; stroke:none;"
         clip-path="url(#clipPath13)"
         id="path201" />
    </g>
    <g
       style="text-rendering:geometricPrecision;"
       id="g211">
      <path
         d="M561.2313 227.2708 L484 227.0225"
         style="fill:none; clip-path:url(#clipPath14);"
         clip-path="url(#clipPath14)"
         id="path205" />
      <path
         d="M483.9707 236.1225 L482.6707 236.1183 L482.7334 216.6184 L484.0334 216.6226 L483.9707 236.1225 Z"
         style="fill:white; clip-path:url(#clipPath14); stroke:none;"
         clip-path="url(#clipPath14)"
         id="path207" />
      <path
         d="M483.9707 236.1225 L482.6707 236.1183 L482.7334 216.6184 L484.0334 216.6226 L483.9707 236.1225 Z"
         style="fill:none; clip-path:url(#clipPath14);"
         clip-path="url(#clipPath14)"
         id="path209" />
    </g>
    <g
       style="text-rendering:geometricPrecision;"
       id="g215">
      <path
         d="M561.1492 836.3227 L712.6492 836.3227 L712.6492 875.8227 L561.1492 875.8227 L561.1492 836.3227 Z"
         style="fill:none; clip-path:url(#clipPath15);"
         clip-path="url(#clipPath15)"
         id="path213" />
    </g>
    <g
       style="fill:silver; text-rendering:geometricPrecision; stroke:silver;"
       id="g219">
      <path
         d="M296.3333 300.881 L296.3333 300.881 L296.3333 300.881 L297.8333 300.881 L297.8333 302.381 L297.8333 759.5238 L297.8333 761.0238 L296.3333 761.0238 L293.3333 761.0238 L293.3333 759.5238 L293.3333 758.0238 L296.3333 758.0238 L297.8333 758.0238 L297.8333 759.5238 C297.8333 762.5614 300.2957 765.0238 303.3333 765.0238 L304.8333 765.0238 L304.8333 766.5238 L304.8333 769.5238 L303.3333 769.5238 L301.8333 769.5238 L301.8333 766.5238 L301.8333 765.0238 L303.3333 765.0238 L739.5238 765.0238 L741.0238 765.0238 L741.0238 766.5238 L741.0238 769.5238 L739.5238 769.5238 L738.0238 769.5238 L738.0238 766.5238 L738.0238 765.0238 L739.5238 765.0238 C742.5614 765.0238 745.0238 762.5614 745.0238 759.5238 L745.0238 758.0238 L746.5238 758.0238 L749.5238 758.0238 L749.5238 759.5238 L749.5238 761.0238 L746.5238 761.0238 L745.0238 761.0238 L745.0238 759.5238 L745.0238 302.381 L745.0238 300.881 L746.5238 300.881 L749.5238 300.881 L749.5238 302.381 L749.5238 303.881 L746.5238 303.881 L745.0238 303.881 L745.0238 302.381 C745.0238 299.3432 742.5614 296.881 739.5238 296.881 L738.0238 296.881 L738.0238 295.381 L738.0238 292.381 L739.5238 292.381 L741.0238 292.381 L741.0238 295.381 L741.0238 296.881 L739.5238 296.881 L303.3333 296.881 L301.8333 296.881 L301.8333 295.381 L301.8333 292.381 L303.3333 292.381 L304.8333 292.381 L304.8333 295.381 L304.8333 296.881 L303.3333 296.881 C300.2956 296.881 297.8333 299.3432 297.8333 302.381 L297.8333 303.881 L296.3333 303.881 L293.3333 303.881 L293.3333 302.381 L293.3333 300.881 L296.3333 300.881 L297.8333 300.881 L297.8333 303.881 L296.3333 303.881 L293.3333 303.881 L293.3333 300.881 L296.3333 300.881 L296.3333 302.381 L294.8333 302.381 C294.8333 297.6863 298.6388 293.881 303.3333 293.881 L303.3333 295.381 L301.8333 295.381 L301.8333 292.381 L304.8333 292.381 L304.8333 295.381 L303.3333 295.381 L303.3333 293.881 L739.5238 293.881 L739.5238 295.381 L738.0238 295.381 L738.0238 292.381 L741.0238 292.381 L741.0238 295.381 L739.5238 295.381 L739.5238 293.881 C744.2181 293.881 748.0238 297.6863 748.0238 302.381 L746.5238 302.381 L746.5238 300.881 L749.5238 300.881 L749.5238 303.881 L746.5238 303.881 L746.5238 302.381 L748.0238 302.381 L748.0238 759.5238 L746.5238 759.5238 L746.5238 758.0238 L749.5238 758.0238 L749.5238 761.0238 L746.5238 761.0238 L746.5238 759.5238 L748.0238 759.5238 C748.0238 764.2183 744.2183 768.0238 739.5238 768.0238 L739.5238 766.5238 L741.0238 766.5238 L741.0238 769.5238 L738.0238 769.5238 L738.0238 766.5238 L739.5238 766.5238 L739.5238 768.0238 L303.3333 768.0238 L303.3333 766.5238 L304.8333 766.5238 L304.8333 769.5238 L301.8333 769.5238 L301.8333 766.5238 L303.3333 766.5238 L303.3333 768.0238 C298.6389 768.0238 294.8333 764.2183 294.8333 759.5238 L296.3333 759.5238 L296.3333 761.0238 L293.3333 761.0238 L293.3333 758.0238 L296.3333 758.0238 L296.3333 759.5238 L294.8333 759.5238 L294.8333 302.381 L296.3333 302.381 L296.3333 303.881 L296.3333 303.881 L294.8333 303.881 L294.8333 300.881 ZM290.3333 300.881 L290.3333 300.881 L290.3333 300.881 L290.3333 302.381 L288.8333 302.381 C288.8333 294.3726 295.325 287.881 303.3333 287.881 L303.3333 289.381 L303.3333 287.881 L303.3333 287.881 L303.3333 289.381 L303.3333 287.881 L739.5238 287.881 L739.5238 289.381 L739.5238 287.881 L739.5238 287.881 L739.5238 289.381 L739.5238 287.881 C747.5319 287.881 754.0238 294.3727 754.0238 302.381 L752.5238 302.381 L752.5238 300.881 L752.5238 300.881 L754.0238 300.881 L754.0238 302.381 L754.0238 759.5238 L752.5238 759.5238 L752.5238 758.0238 L752.5238 758.0238 L754.0238 758.0238 L754.0238 759.5238 C754.0238 767.5319 747.5319 774.0238 739.5238 774.0238 L739.5238 772.5238 L739.5238 771.0238 L739.5238 771.0238 L739.5238 772.5238 L739.5238 774.0238 L303.3333 774.0238 L303.3333 772.5238 L303.3333 771.0238 L303.3333 771.0238 L303.3333 772.5238 L303.3333 774.0238 C295.3251 774.0238 288.8333 767.5319 288.8333 759.5238 L288.8333 758.0238 L290.3333 758.0238 L290.3333 758.0238 L290.3333 759.5238 L288.8333 759.5238 L288.8333 302.381 L288.8333 300.881 L290.3333 300.881 M290.3333 303.881 L290.3333 302.381 L291.8333 302.381 L291.8333 759.5238 L291.8333 761.0238 L290.3333 761.0238 L290.3333 761.0238 L290.3333 759.5238 L291.8333 759.5238 C291.8333 765.8751 296.982 771.0238 303.3333 771.0238 L303.3333 774.0238 L303.3333 774.0238 L303.3333 771.0238 L739.5238 771.0238 L739.5238 774.0238 L739.5238 774.0238 L739.5238 771.0238 C745.8751 771.0238 751.0238 765.8751 751.0238 759.5238 L752.5238 759.5238 L752.5238 761.0238 L752.5238 761.0238 L751.0238 761.0238 L751.0238 759.5238 L751.0238 302.381 L752.5238 302.381 L752.5238 303.881 L752.5238 303.881 L751.0238 303.881 L751.0238 302.381 C751.0238 296.0295 745.8751 290.881 739.5238 290.881 L739.5238 290.881 L739.5238 290.881 L739.5238 290.881 L303.3333 290.881 L303.3333 290.881 L303.3333 290.881 L303.3333 290.881 C296.9818 290.881 291.8333 296.0294 291.8333 302.381 L291.8333 303.881 L290.3333 303.881 L290.3333 303.881 Z"
         style="clip-path:url(#clipPath16); stroke:none;"
         clip-path="url(#clipPath16)"
         id="path217" />
    </g>
    <g
       style="text-rendering:geometricPrecision;"
       id="g223">
      <path
         d="M136 87 L350 87 L350 248 L136 248 L136 87 Z"
         style="fill:none; clip-path:url(#clipPath17);"
         clip-path="url(#clipPath17)"
         id="path221" />
    </g>
    <g
       style="fill:silver; text-rendering:geometricPrecision; stroke:silver;"
       id="g227">
      <path
         d="M717.2857 661.5833 L717.2857 661.5833 L717.2857 661.5833 L718.7857 661.5833 L718.7857 663.0833 C718.7857 709.1392 661.7777 743.5476 595.9405 743.5476 L594.4405 743.5476 L594.4405 742.0476 L594.4405 739.0476 L595.9405 739.0476 L597.4405 739.0476 L597.4405 742.0476 L597.4405 743.5476 L595.9405 743.5476 C530.1031 743.5476 473.0952 709.139 473.0952 663.0833 L473.0952 661.5833 L474.5952 661.5833 L477.5952 661.5833 L477.5952 663.0833 L477.5952 664.5833 L474.5952 664.5833 L473.0952 664.5833 L473.0952 663.0833 C473.0952 617.0277 530.1031 582.619 595.9405 582.619 L597.4405 582.619 L597.4405 584.119 L597.4405 587.119 L595.9405 587.119 L594.4405 587.119 L594.4405 584.119 L594.4405 582.619 L595.9405 582.619 C661.7777 582.619 718.7857 617.0277 718.7857 663.0833 L718.7857 664.5833 L717.2857 664.5833 L714.2857 664.5833 L714.2857 663.0833 L714.2857 661.5833 L717.2857 661.5833 L718.7857 661.5833 L718.7857 664.5833 L717.2857 664.5833 L714.2857 664.5833 L714.2857 661.5833 L717.2857 661.5833 L717.2857 663.0833 L715.7857 663.0833 C715.7857 619.7667 661.4666 585.619 595.9405 585.619 L595.9405 584.119 L597.4405 584.119 L597.4405 587.119 L594.4405 587.119 L594.4405 584.119 L595.9405 584.119 L595.9405 585.619 C530.4144 585.619 476.0952 619.7667 476.0952 663.0833 L474.5952 663.0833 L474.5952 661.5833 L477.5952 661.5833 L477.5952 664.5833 L474.5952 664.5833 L474.5952 663.0833 L476.0952 663.0833 C476.0952 706.4001 530.4144 740.5476 595.9405 740.5476 L595.9405 742.0476 L594.4405 742.0476 L594.4405 739.0476 L597.4405 739.0476 L597.4405 742.0476 L595.9405 742.0476 L595.9405 740.5476 C661.4666 740.5476 715.7857 706.4003 715.7857 663.0833 L717.2857 663.0833 L717.2857 664.5833 L717.2857 664.5833 L715.7857 664.5833 L715.7857 661.5833 ZM711.2857 661.5833 L711.2857 661.5833 L711.2857 661.5833 L711.2857 663.0833 L709.7857 663.0833 C709.7857 625.2247 660.813 591.619 595.9405 591.619 L595.9405 590.119 L595.9405 588.619 L595.9405 588.619 L595.9405 590.119 L595.9405 591.619 C531.0678 591.619 482.0952 625.2247 482.0952 663.0833 L480.5952 663.0833 L480.5952 661.5833 L480.5952 661.5833 L482.0952 661.5833 L482.0952 663.0833 C482.0952 700.942 531.0679 734.5476 595.9405 734.5476 L595.9405 736.0476 L595.9405 734.5476 L595.9405 734.5476 L595.9405 736.0476 L595.9405 734.5476 C660.813 734.5476 709.7857 700.9423 709.7857 663.0833 L709.7857 661.5833 L711.2857 661.5833 M711.2857 664.5833 L711.2857 663.0833 L712.7857 663.0833 C712.7857 703.6677 661.1454 737.5476 595.9405 737.5476 L595.9405 737.5476 L595.9405 737.5476 L595.9405 737.5476 C530.7355 737.5476 479.0952 703.6674 479.0952 663.0833 L480.5952 663.0833 L480.5952 664.5833 L480.5952 664.5833 L479.0952 664.5833 L479.0952 663.0833 C479.0952 622.4993 530.7355 588.619 595.9405 588.619 L595.9405 591.619 L595.9405 591.619 L595.9405 588.619 C661.1454 588.619 712.7857 622.4993 712.7857 663.0833 L712.7857 664.5833 L711.2857 664.5833 L711.2857 664.5833 Z"
         style="clip-path:url(#clipPath18); stroke:none;"
         clip-path="url(#clipPath18)"
         id="path225" />
    </g>
    <g
       style="text-rendering:geometricPrecision;"
       id="g231">
      <text
         x="673"
         xml:space="preserve"
         y="315"
         style="clip-path:url(#clipPath19); stroke:none;"
         clip-path="url(#clipPath19)"
         id="text229">Cytosol</text>
    </g>
    <g
       style="font-size:9; text-rendering:geometricPrecision;"
       id="g235">
      <text
         x="531"
         xml:space="preserve"
         y="719"
         style="clip-path:url(#clipPath20); stroke:none;"
         clip-path="url(#clipPath20)"
         id="text233">Nucleus</text>
    </g>
    <g
       style="font-weight:bold; text-rendering:geometricPrecision;"
       id="g239">
      <text
         x="635"
         xml:space="preserve"
         y="701"
         style="clip-path:url(#clipPath21); stroke:none;"
         clip-path="url(#clipPath21)"
         id="text237">DNA</text>
    </g>
    <g
       style="text-rendering:geometricPrecision;"
       id="g243">
      <text
         x="145"
         xml:space="preserve"
         y="183"
         style="clip-path:url(#clipPath22); stroke:none;"
         clip-path="url(#clipPath22)"
         id="text241">Proteolytic cleavage</text>
    </g>
    <g
       style="font-weight:bold; font-size:16; text-rendering:geometricPrecision;"
       id="g247">
      <text
         x="577"
         xml:space="preserve"
         y="861"
         style="clip-path:url(#clipPath23); stroke:none;"
         clip-path="url(#clipPath23)"
         id="text245">Inflammation</text>
    </g>
    <g
       style="fill:white; text-rendering:geometricPrecision; stroke:white;"
       id="g255">
      <path
         d="M403.8709 375.2782 L483.8709 375.2782 L483.8709 395.2782 L403.8709 395.2782 L403.8709 375.2782 Z"
         style="clip-path:url(#clipPath24); stroke:none;"
         clip-path="url(#clipPath24)"
         id="path249" />
      <path
         d="M403.8709 375.2782 L483.8709 375.2782 L483.8709 395.2782 L403.8709 395.2782 L403.8709 375.2782 Z"
         style="fill:none; clip-path:url(#clipPath24); stroke:black;"
         clip-path="url(#clipPath24)"
         id="path251" />
      <text
         x="430"
         y="390"
         style="fill:black; clip-path:url(#clipPath24); stroke:none;"
         xml:space="preserve"
         clip-path="url(#clipPath24)"
         id="text253">IkKB</text>
    </g>
    <g
       style="fill:white; text-rendering:geometricPrecision; stroke:white;"
       id="g263">
      <path
         d="M403.8709 281.0147 L483.8709 281.0147 L483.8709 301.0147 L403.8709 301.0147 L403.8709 281.0147 Z"
         style="clip-path:url(#clipPath25); stroke:none;"
         clip-path="url(#clipPath25)"
         id="path257" />
      <path
         d="M403.8709 281.0147 L483.8709 281.0147 L483.8709 301.0147 L403.8709 301.0147 L403.8709 281.0147 Z"
         style="fill:none; clip-path:url(#clipPath25); stroke:black;"
         clip-path="url(#clipPath25)"
         id="path259" />
      <text
         x="427"
         y="296"
         style="fill:black; clip-path:url(#clipPath25); stroke:none;"
         xml:space="preserve"
         clip-path="url(#clipPath25)"
         id="text261">RAGE</text>
    </g>
    <g
       style="fill:white; text-rendering:geometricPrecision; stroke:white;"
       id="g271">
      <path
         d="M403.8709 355.2782 L483.8709 355.2782 L483.8709 375.2782 L403.8709 375.2782 L403.8709 355.2782 Z"
         style="clip-path:url(#clipPath26); stroke:none;"
         clip-path="url(#clipPath26)"
         id="path265" />
      <path
         d="M403.8709 355.2782 L483.8709 355.2782 L483.8709 375.2782 L403.8709 375.2782 L403.8709 355.2782 Z"
         style="fill:none; clip-path:url(#clipPath26); stroke:black;"
         clip-path="url(#clipPath26)"
         id="path267" />
      <text
         x="430"
         y="370"
         style="fill:black; clip-path:url(#clipPath26); stroke:none;"
         xml:space="preserve"
         clip-path="url(#clipPath26)"
         id="text269">IkKG</text>
    </g>
    <g
       style="fill:white; text-rendering:geometricPrecision; stroke:white;"
       id="g279">
      <path
         d="M402.5376 497.2276 L482.5376 497.2276 L482.5376 517.2276 L402.5376 517.2276 L402.5376 497.2276 Z"
         style="clip-path:url(#clipPath27); stroke:none;"
         clip-path="url(#clipPath27)"
         id="path273" />
      <path
         d="M402.5376 497.2276 L482.5376 497.2276 L482.5376 517.2276 L402.5376 517.2276 L402.5376 497.2276 Z"
         style="fill:none; clip-path:url(#clipPath27); stroke:black;"
         clip-path="url(#clipPath27)"
         id="path275" />
      <text
         x="423"
         y="512"
         style="fill:black; clip-path:url(#clipPath27); stroke:none;"
         xml:space="preserve"
         clip-path="url(#clipPath27)"
         id="text277">NFKB1</text>
    </g>
    <g
       style="fill:white; text-rendering:geometricPrecision; stroke:white;"
       id="g287">
      <path
         d="M561.2313 217.2708 L641.2313 217.2708 L641.2313 237.2708 L561.2313 237.2708 L561.2313 217.2708 Z"
         style="clip-path:url(#clipPath28); stroke:none;"
         clip-path="url(#clipPath28)"
         id="path281" />
      <path
         d="M561.2313 217.2708 L641.2313 217.2708 L641.2313 237.2708 L561.2313 237.2708 L561.2313 217.2708 Z"
         style="fill:none; clip-path:url(#clipPath28); stroke:black;"
         clip-path="url(#clipPath28)"
         id="path283" />
      <text
         x="585"
         y="232"
         style="fill:black; clip-path:url(#clipPath28); stroke:none;"
         xml:space="preserve"
         clip-path="url(#clipPath28)"
         id="text285">THBD</text>
    </g>
    <g
       style="fill:white; text-rendering:geometricPrecision; stroke:white;"
       id="g295">
      <path
         d="M451.5852 153.782 L531.5852 153.782 L531.5852 173.782 L451.5852 173.782 L451.5852 153.782 Z"
         style="clip-path:url(#clipPath29); stroke:none;"
         clip-path="url(#clipPath29)"
         id="path289" />
      <path
         d="M451.5852 153.782 L531.5852 153.782 L531.5852 173.782 L451.5852 173.782 L451.5852 153.782 Z"
         style="fill:none; clip-path:url(#clipPath29); stroke:black;"
         clip-path="url(#clipPath29)"
         id="path291" />
      <text
         x="469"
         y="168"
         style="fill:black; clip-path:url(#clipPath29); stroke:none;"
         xml:space="preserve"
         clip-path="url(#clipPath29)"
         id="text293">HMGB1</text>
    </g>
    <g
       style="fill:white; text-rendering:geometricPrecision; stroke:white;"
       id="g303">
      <path
         d="M402.5376 517.2276 L482.5376 517.2276 L482.5376 537.2276 L402.5376 537.2276 L402.5376 517.2276 Z"
         style="clip-path:url(#clipPath30); stroke:none;"
         clip-path="url(#clipPath30)"
         id="path297" />
      <path
         d="M402.5376 517.2276 L482.5376 517.2276 L482.5376 537.2276 L402.5376 537.2276 L402.5376 517.2276 Z"
         style="fill:none; clip-path:url(#clipPath30); stroke:black;"
         clip-path="url(#clipPath30)"
         id="path299" />
      <text
         x="427"
         y="532"
         style="fill:black; clip-path:url(#clipPath30); stroke:none;"
         xml:space="preserve"
         clip-path="url(#clipPath30)"
         id="text301">RELA</text>
    </g>
    <g
       style="fill:white; text-rendering:geometricPrecision; stroke:white;"
       id="g311">
      <path
         d="M403.8709 395.2782 L483.8709 395.2782 L483.8709 415.2782 L403.8709 415.2782 L403.8709 395.2782 Z"
         style="clip-path:url(#clipPath31); stroke:none;"
         clip-path="url(#clipPath31)"
         id="path305" />
      <path
         d="M403.8709 395.2782 L483.8709 395.2782 L483.8709 415.2782 L403.8709 415.2782 L403.8709 395.2782 Z"
         style="fill:none; clip-path:url(#clipPath31); stroke:black;"
         clip-path="url(#clipPath31)"
         id="path307" />
      <text
         x="430"
         y="410"
         style="fill:black; clip-path:url(#clipPath31); stroke:none;"
         xml:space="preserve"
         clip-path="url(#clipPath31)"
         id="text309">IkKA</text>
    </g>
    <g
       style="fill:white; text-rendering:geometricPrecision; stroke:white;"
       id="g319">
      <path
         d="M402.5376 477.2276 L482.5376 477.2276 L482.5376 497.2276 L402.5376 497.2276 L402.5376 477.2276 Z"
         style="clip-path:url(#clipPath32); stroke:none;"
         clip-path="url(#clipPath32)"
         id="path313" />
      <path
         d="M402.5376 477.2276 L482.5376 477.2276 L482.5376 497.2276 L402.5376 497.2276 L402.5376 477.2276 Z"
         style="fill:none; clip-path:url(#clipPath32); stroke:black;"
         clip-path="url(#clipPath32)"
         id="path315" />
      <text
         x="429"
         y="492"
         style="fill:black; clip-path:url(#clipPath32); stroke:none;"
         xml:space="preserve"
         clip-path="url(#clipPath32)"
         id="text317">IkBA</text>
    </g>
    <g
       style="fill:white; text-rendering:geometricPrecision; stroke:white;"
       id="g327">
      <path
         d="M181.242 103.0073 L261.242 103.0073 L261.242 123.0073 L181.242 123.0073 L181.242 103.0073 Z"
         style="clip-path:url(#clipPath33); stroke:none;"
         clip-path="url(#clipPath33)"
         id="path321" />
      <path
         d="M181.242 103.0073 L261.242 103.0073 L261.242 123.0073 L181.242 123.0073 L181.242 103.0073 Z"
         style="fill:none; clip-path:url(#clipPath33); stroke:black;"
         clip-path="url(#clipPath33)"
         id="path323" />
      <text
         x="199"
         y="118"
         style="fill:black; clip-path:url(#clipPath33); stroke:none;"
         xml:space="preserve"
         clip-path="url(#clipPath33)"
         id="text325">HMGB1</text>
    </g>
    <g
       style="fill:white; text-rendering:geometricPrecision; stroke:white;"
       id="g335">
      <path
         d="M163.084 148.2333 L243.084 148.2333 L243.084 168.2333 L163.084 168.2333 L163.084 148.2333 Z"
         style="clip-path:url(#clipPath34); stroke:none;"
         clip-path="url(#clipPath34)"
         id="path329" />
      <path
         d="M163.084 148.2333 L243.084 148.2333 L243.084 168.2333 L163.084 168.2333 L163.084 148.2333 Z"
         style="fill:none; clip-path:url(#clipPath34); stroke:black;"
         clip-path="url(#clipPath34)"
         id="path331" />
      <text
         x="187"
         y="163"
         style="fill:black; clip-path:url(#clipPath34); stroke:none;"
         xml:space="preserve"
         clip-path="url(#clipPath34)"
         id="text333">THBD</text>
    </g>
    <g
       style="fill:white; text-rendering:geometricPrecision; stroke:white;"
       id="g343">
      <path
         d="M254.3626 208.9853 L334.3626 208.9853 L334.3626 228.9853 L254.3626 228.9853 L254.3626 208.9853 Z"
         style="clip-path:url(#clipPath35); stroke:none;"
         clip-path="url(#clipPath35)"
         id="path337" />
      <path
         d="M254.3626 208.9853 L334.3626 208.9853 L334.3626 228.9853 L254.3626 228.9853 L254.3626 208.9853 Z"
         style="fill:none; clip-path:url(#clipPath35); stroke:black;"
         clip-path="url(#clipPath35)"
         id="path339" />
      <text
         x="272"
         y="223"
         style="fill:black; clip-path:url(#clipPath35); stroke:none;"
         xml:space="preserve"
         clip-path="url(#clipPath35)"
         id="text341">HMGB1</text>
    </g>
    <g
       style="text-rendering:geometricPrecision;"
       id="g347">
      <path
         d="M265.8366 240.4 L325.4986 199.7606"
         style="fill:none; clip-path:url(#clipPath36);"
         clip-path="url(#clipPath36)"
         id="path345" />
    </g>
    <g
       style="text-rendering:geometricPrecision;"
       id="g353">
      <path
         d="M636.1905 711.4286 L636.8992 836.3227"
         style="fill:none; clip-path:url(#clipPath37);"
         clip-path="url(#clipPath37)"
         id="path349" />
      <path
         d="M636.8992 836.3227 L642.0328 824.5934 L631.6329 824.6524 Z"
         style="clip-path:url(#clipPath37); fill-rule:evenodd; stroke:none;"
         clip-path="url(#clipPath37)"
         id="path351" />
    </g>
    <g
       style="fill:white; text-rendering:geometricPrecision; stroke:white;"
       id="g361">
      <path
         d="M324.8395 631.4061 L404.8395 631.4061 L404.8395 651.4061 L324.8395 651.4061 L324.8395 631.4061 Z"
         style="clip-path:url(#clipPath38); stroke:none;"
         clip-path="url(#clipPath38)"
         id="path355" />
      <path
         d="M324.8395 631.4061 L404.8395 631.4061 L404.8395 651.4061 L324.8395 651.4061 L324.8395 631.4061 Z"
         style="fill:none; clip-path:url(#clipPath38); stroke:black;"
         clip-path="url(#clipPath38)"
         id="path357" />
      <text
         x="351"
         y="646"
         style="fill:black; clip-path:url(#clipPath38); stroke:none;"
         xml:space="preserve"
         clip-path="url(#clipPath38)"
         id="text359">IkBA</text>
    </g>
    <g
       style="text-rendering:geometricPrecision;"
       id="g365">
      <path
         d="M405.0261 628.3735 C405.0261 634.5078 400.1255 639.4807 394.0802 639.4807 C388.035 639.4807 383.1343 634.5078 383.1343 628.3735 C383.1343 622.2391 388.035 617.2662 394.0802 617.2662 C400.1255 617.2662 405.0261 622.2391 405.0261 628.3735 Z"
         style="fill:none; clip-path:url(#clipPath39);"
         clip-path="url(#clipPath39)"
         id="path363" />
    </g>
    <g
       style="text-rendering:geometricPrecision;"
       id="g369">
      <text
         x="391"
         xml:space="preserve"
         y="633"
         style="clip-path:url(#clipPath40); stroke:none;"
         clip-path="url(#clipPath40)"
         id="text367">P</text>
    </g>
    <g
       style="fill:white; text-rendering:geometricPrecision; stroke:white;"
       id="g377">
      <path
         d="M519.8734 644.0132 L599.8734 644.0132 L599.8734 664.0132 L519.8734 664.0132 L519.8734 644.0132 Z"
         style="clip-path:url(#clipPath41); stroke:none;"
         clip-path="url(#clipPath41)"
         id="path371" />
      <path
         d="M519.8734 644.0132 L599.8734 644.0132 L599.8734 664.0132 L519.8734 664.0132 L519.8734 644.0132 Z"
         style="fill:none; clip-path:url(#clipPath41); stroke:black;"
         clip-path="url(#clipPath41)"
         id="path373" />
      <text
         x="544"
         y="659"
         style="fill:black; clip-path:url(#clipPath41); stroke:none;"
         xml:space="preserve"
         clip-path="url(#clipPath41)"
         id="text375">RELA</text>
    </g>
    <g
       style="fill:white; text-rendering:geometricPrecision; stroke:white;"
       id="g385">
      <path
         d="M519.8734 624.0132 L599.8734 624.0132 L599.8734 644.0132 L519.8734 644.0132 L519.8734 624.0132 Z"
         style="clip-path:url(#clipPath42); stroke:none;"
         clip-path="url(#clipPath42)"
         id="path379" />
      <path
         d="M519.8734 624.0132 L599.8734 624.0132 L599.8734 644.0132 L519.8734 644.0132 L519.8734 624.0132 Z"
         style="fill:none; clip-path:url(#clipPath42); stroke:black;"
         clip-path="url(#clipPath42)"
         id="path381" />
      <text
         x="540"
         y="639"
         style="fill:black; clip-path:url(#clipPath42); stroke:none;"
         xml:space="preserve"
         clip-path="url(#clipPath42)"
         id="text383">NFKB1</text>
    </g>
    <g
       style="text-rendering:geometricPrecision;"
       id="g391">
      <path
         d="M468.5376 549.2276 L559.8734 624.0132"
         style="fill:none; clip-path:url(#clipPath43);"
         clip-path="url(#clipPath43)"
         id="path387" />
      <path
         d="M559.8734 624.0132 L554.1152 612.5777 L547.5265 620.6244 Z"
         style="clip-path:url(#clipPath43); fill-rule:evenodd; stroke:none;"
         clip-path="url(#clipPath43)"
         id="path389" />
    </g>
  </g>
</svg>
