<?xml version="1.0" encoding="UTF-8" standalone="no"?>
<svg
   style="fill-opacity:1; color-rendering:auto; color-interpolation:auto; stroke:black; text-rendering:auto; stroke-linecap:square; stroke-miterlimit:10; stroke-opacity:1; shape-rendering:auto; fill:black; stroke-dasharray:none; font-weight:normal; stroke-width:1; font-family:'Dialog'; font-style:normal; stroke-linejoin:miter; font-size:12; stroke-dashoffset:0; image-rendering:auto;"
   width="378"
   height="327"
   version="1.1"
   id="svg246"
   xmlns="http://www.w3.org/2000/svg"
   xmlns:svg="http://www.w3.org/2000/svg">
  <!--Generated by the Batik Graphics2D SVG Generator-->
  <defs
     id="genericDefs" />
  <g
     id="g244">
    <defs
       id="defs1">
      <clipPath
         clipPathUnits="userSpaceOnUse"
         id="clipPath1">
        <path
           d="M0 0 L393 0 L393 342 L0 342 L0 0 Z"
           id="path3" />
      </clipPath>
      <clipPath
         clipPathUnits="userSpaceOnUse"
         id="clipPath2">
        <path
           d="M0 0 L0 200 L200 200 L200 0 Z"
           id="path6" />
      </clipPath>
      <clipPath
         clipPathUnits="userSpaceOnUse"
         id="clipPath3">
        <path
           d="M197 16 L197 37 L208 37 L208 16 Z"
           id="path9" />
      </clipPath>
      <clipPath
         clipPathUnits="userSpaceOnUse"
         id="clipPath4">
        <path
           d="M196.4551 3.918 L207.5449 3.918 L207.5449 19.2305 L196.4551 19.2305 L196.4551 3.918 Z"
           id="path12" />
      </clipPath>
      <clipPath
         clipPathUnits="userSpaceOnUse"
         id="clipPath5">
        <path
           d="M28.9525 124.9012 L28.9525 188.9012 L112.9525 188.9012 L112.9525 124.9012 Z"
           id="path15" />
      </clipPath>
      <clipPath
         clipPathUnits="userSpaceOnUse"
         id="clipPath6">
        <path
           d="M112.4525 147.3012 L112.4525 167.8012 L147.7525 167.8012 L147.7525 147.3012 Z"
           id="path18" />
      </clipPath>
      <clipPath
         clipPathUnits="userSpaceOnUse"
         id="clipPath7">
        <path
           d="M273.7631 208.8537 L273.7631 229.3537 L298.7264 229.3537 L298.7264 208.8537 Z"
           id="path21" />
      </clipPath>
      <clipPath
         clipPathUnits="userSpaceOnUse"
         id="clipPath8">
        <path
           d="M146.4837 227.9537 L146.4837 294.0401 L158.4225 294.0401 L158.4225 227.9537 Z"
           id="path24" />
      </clipPath>
      <clipPath
         clipPathUnits="userSpaceOnUse"
         id="clipPath9">
        <path
           d="M176.9831 101.4012 L176.9831 148.1323 L188.9219 148.1323 L188.9219 101.4012 Z"
           id="path27" />
      </clipPath>
      <clipPath
         clipPathUnits="userSpaceOnUse"
         id="clipPath10">
        <path
           d="M157.6531 227.9537 L157.6531 269.4676 L244.7631 269.4676 L244.7631 227.9537 Z"
           id="path30" />
      </clipPath>
      <clipPath
         clipPathUnits="userSpaceOnUse"
         id="clipPath11">
        <path
           d="M181.9531 208.8537 L181.9531 229.3537 L209.063 229.3537 L209.063 208.8537 Z"
           id="path33" />
      </clipPath>
      <clipPath
         clipPathUnits="userSpaceOnUse"
         id="clipPath12">
        <path
           d="M156.6164 166.3952 L156.6164 203.3695 L177.1426 203.3695 L177.1426 166.3952 Z"
           id="path36" />
      </clipPath>
      <clipPath
         clipPathUnits="userSpaceOnUse"
         id="clipPath13">
        <path
           d="M197.3282 166.2769 L197.3282 210.597 L335.1037 210.597 L335.1037 166.2769 Z"
           id="path39" />
      </clipPath>
      <clipPath
         clipPathUnits="userSpaceOnUse"
         id="clipPath14">
        <path
           d="M182.2581 166.2068 L182.2581 209.1481 L245.2822 209.1481 L245.2822 166.2068 Z"
           id="path42" />
      </clipPath>
      <clipPath
         clipPathUnits="userSpaceOnUse"
         id="clipPath15">
        <path
           d="M327.957 227.9537 L327.957 285.1323 L339.8958 285.1323 L339.8958 227.9537 Z"
           id="path45" />
      </clipPath>
      <clipPath
         clipPathUnits="userSpaceOnUse"
         id="clipPath16">
        <path
           d="M152.4525 81.4012 L152.4525 102.4012 L213.4525 102.4012 L213.4525 81.4012 Z"
           id="path48" />
      </clipPath>
      <clipPath
         clipPathUnits="userSpaceOnUse"
         id="clipPath17">
        <path
           d="M40.4525 156.4012 L40.4525 177.4012 L101.4525 177.4012 L101.4525 156.4012 Z"
           id="path51" />
      </clipPath>
      <clipPath
         clipPathUnits="userSpaceOnUse"
         id="clipPath18">
        <path
           d="M121.9531 207.9537 L121.9531 228.9537 L182.9531 228.9537 L182.9531 207.9537 Z"
           id="path54" />
      </clipPath>
      <clipPath
         clipPathUnits="userSpaceOnUse"
         id="clipPath19">
        <path
           d="M40.4525 136.4012 L40.4525 157.4012 L101.4525 157.4012 L101.4525 136.4012 Z"
           id="path57" />
      </clipPath>
      <clipPath
         clipPathUnits="userSpaceOnUse"
         id="clipPath20">
        <path
           d="M213.7631 207.9537 L213.7631 228.9537 L274.7631 228.9537 L274.7631 207.9537 Z"
           id="path60" />
      </clipPath>
      <clipPath
         clipPathUnits="userSpaceOnUse"
         id="clipPath21">
        <path
           d="M121.9531 292.309 L121.9531 313.309 L182.9531 313.309 L182.9531 292.309 Z"
           id="path63" />
      </clipPath>
      <clipPath
         clipPathUnits="userSpaceOnUse"
         id="clipPath22">
        <path
           d="M303.4264 207.9537 L303.4264 228.9537 L364.4264 228.9537 L364.4264 207.9537 Z"
           id="path66" />
      </clipPath>
      <clipPath
         clipPathUnits="userSpaceOnUse"
         id="clipPath23">
        <path
           d="M303.4264 283.4012 L303.4264 304.4012 L364.4264 304.4012 L364.4264 283.4012 Z"
           id="path69" />
      </clipPath>
      <clipPath
         clipPathUnits="userSpaceOnUse"
         id="clipPath24">
        <path
           d="M152.4525 146.4012 L152.4525 167.4012 L213.4525 167.4012 L213.4525 146.4012 Z"
           id="path72" />
      </clipPath>
    </defs>
    <g
       style="fill:white; stroke:white;"
       id="g78">
      <rect
         x="0"
         width="393"
         height="342"
         y="0"
         style="stroke:none;"
         id="rect76" />
    </g>
    <g
       style="font-weight:bold; font-size:10; text-rendering:geometricPrecision;"
       id="g88">
      <path
         d="M0.0469 6.7031 L6.7656 6.7031 L6.7656 8.125 L4.3438 8.125 L4.3438 14 L2.4688 14 L2.4688 8.125 L0.0469 8.125 L0.0469 6.7031 ZM7.665 8.5312 L9.415 8.5312 L9.415 14 L7.665 14 L7.665 8.5312 ZM7.665 6.4062 L9.415 6.4062 L9.415 7.8281 L7.665 7.8281 L7.665 6.4062 ZM12.999 6.9844 L12.999 8.5312 L14.7959 8.5312 L14.7959 9.7812 L12.999 9.7812 L12.999 12.0938 Q12.999 12.4844 13.1475 12.6172 Q13.2959 12.75 13.749 12.75 L14.6553 12.75 L14.6553 14 L13.1553 14 Q12.1084 14 11.6787 13.5703 Q11.249 13.1406 11.249 12.0938 L11.249 9.7812 L10.374 9.7812 L10.374 8.5312 L11.249 8.5312 L11.249 6.9844 L12.999 6.9844 ZM15.873 6.4062 L17.623 6.4062 L17.623 14 L15.873 14 L15.873 6.4062 ZM24.7539 11.25 L24.7539 11.75 L20.6758 11.75 Q20.7383 12.3594 21.1133 12.6719 Q21.4883 12.9844 22.1758 12.9844 Q22.7227 12.9844 23.3086 12.8203 Q23.8945 12.6562 24.5039 12.3125 L24.5039 13.6719 Q23.8789 13.9062 23.2617 14.0234 Q22.6445 14.1406 22.0195 14.1406 Q20.5352 14.1406 19.7148 13.3828 Q18.8945 12.625 18.8945 11.2656 Q18.8945 9.9375 19.6992 9.1719 Q20.5039 8.4062 21.9258 8.4062 Q23.207 8.4062 23.9805 9.1797 Q24.7539 9.9531 24.7539 11.25 ZM22.957 10.6719 Q22.957 10.1719 22.668 9.8672 Q22.3789 9.5625 21.9102 9.5625 Q21.3945 9.5625 21.082 9.8438 Q20.7695 10.125 20.6914 10.6719 L22.957 10.6719 ZM26.3643 8.5312 L28.1143 8.5312 L28.1143 10.4219 L26.3643 10.4219 L26.3643 8.5312 ZM26.3643 12.1094 L28.1143 12.1094 L28.1143 14 L26.3643 14 L26.3643 12.1094 Z"
         style="clip-path:url(#clipPath2); stroke:none;"
         clip-path="url(#clipPath2)"
         id="path80" />
      <path
         d="M37.9688 6.7031 L44.1406 6.7031 L44.1406 7.5469 L41.5469 7.5469 L41.5469 14 L40.5625 14 L40.5625 7.5469 L37.9688 7.5469 L37.9688 6.7031 ZM48.6553 11.2031 Q48.6553 10.2188 48.249 9.6875 Q47.8428 9.1562 47.124 9.1562 Q46.3896 9.1562 45.9912 9.6875 Q45.5928 10.2188 45.5928 11.2031 Q45.5928 12.1719 45.9912 12.7109 Q46.3896 13.25 47.124 13.25 Q47.8428 13.25 48.249 12.7109 Q48.6553 12.1719 48.6553 11.2031 ZM49.5459 13.3281 Q49.5459 14.7188 48.9287 15.3984 Q48.3115 16.0781 47.0303 16.0781 Q46.5615 16.0781 46.1396 16.0078 Q45.7178 15.9375 45.3271 15.7969 L45.3271 14.9219 Q45.7178 15.1406 46.1006 15.2422 Q46.4834 15.3438 46.8896 15.3438 Q47.7646 15.3438 48.21 14.8828 Q48.6553 14.4219 48.6553 13.4844 L48.6553 13.0312 Q48.374 13.5156 47.9365 13.7578 Q47.499 14 46.8896 14 Q45.8896 14 45.2725 13.2344 Q44.6553 12.4688 44.6553 11.2031 Q44.6553 9.9375 45.2725 9.1719 Q45.8896 8.4062 46.8896 8.4062 Q47.499 8.4062 47.9365 8.6406 Q48.374 8.875 48.6553 9.3594 L48.6553 8.5312 L49.5459 8.5312 L49.5459 13.3281 ZM51.3936 8.5312 L52.2998 8.5312 L52.2998 14 L51.3936 14 L51.3936 8.5312 ZM51.3936 6.4062 L52.2998 6.4062 L52.2998 7.5469 L51.3936 7.5469 L51.3936 6.4062 ZM56.9531 6.4062 L56.9531 7.1562 L56.0938 7.1562 Q55.6094 7.1562 55.4219 7.3516 Q55.2344 7.5469 55.2344 8.0469 L55.2344 8.5312 L56.7031 8.5312 L56.7031 9.2344 L55.2344 9.2344 L55.2344 14 L54.3281 14 L54.3281 9.2344 L53.4688 9.2344 L53.4688 8.5312 L54.3281 8.5312 L54.3281 8.1562 Q54.3281 7.2344 54.75 6.8203 Q55.1719 6.4062 56.0938 6.4062 L56.9531 6.4062 ZM64.4805 9.3594 L64.4805 6.4062 L65.3711 6.4062 L65.3711 14 L64.4805 14 L64.4805 13.1719 Q64.1992 13.6719 63.7617 13.9062 Q63.3242 14.1406 62.7148 14.1406 Q61.7305 14.1406 61.1055 13.3516 Q60.4805 12.5625 60.4805 11.2656 Q60.4805 9.9844 61.1055 9.1953 Q61.7305 8.4062 62.7148 8.4062 Q63.3242 8.4062 63.7617 8.6406 Q64.1992 8.875 64.4805 9.3594 ZM61.418 11.2656 Q61.418 12.2656 61.8242 12.8281 Q62.2305 13.3906 62.9492 13.3906 Q63.6523 13.3906 64.0664 12.8281 Q64.4805 12.2656 64.4805 11.2656 Q64.4805 10.2812 64.0664 9.7188 Q63.6523 9.1562 62.9492 9.1562 Q62.2305 9.1562 61.8242 9.7188 Q61.418 10.2812 61.418 11.2656 ZM67.2188 8.5312 L68.125 8.5312 L68.125 14 L67.2188 14 L67.2188 8.5312 ZM67.2188 6.4062 L68.125 6.4062 L68.125 7.5469 L67.2188 7.5469 L67.2188 6.4062 ZM73.4814 8.6875 L73.4814 9.5469 Q73.1064 9.3438 72.7002 9.25 Q72.2939 9.1562 71.8408 9.1562 Q71.1846 9.1562 70.8486 9.3594 Q70.5127 9.5625 70.5127 9.9688 Q70.5127 10.2812 70.7471 10.4609 Q70.9814 10.6406 71.7158 10.7969 L72.0127 10.875 Q72.9814 11.0781 73.3799 11.4531 Q73.7783 11.8281 73.7783 12.4844 Q73.7783 13.25 73.1768 13.6953 Q72.5752 14.1406 71.5283 14.1406 Q71.0752 14.1406 70.5986 14.0547 Q70.1221 13.9688 69.6064 13.7969 L69.6064 12.875 Q70.1064 13.125 70.583 13.2578 Q71.0596 13.3906 71.5439 13.3906 Q72.1689 13.3906 72.5127 13.1719 Q72.8564 12.9531 72.8564 12.5625 Q72.8564 12.1875 72.6143 11.9922 Q72.3721 11.7969 71.5283 11.625 L71.2158 11.5469 Q70.3877 11.375 70.0127 11.0078 Q69.6377 10.6406 69.6377 10.0156 Q69.6377 9.2344 70.1846 8.8203 Q70.7314 8.4062 71.7471 8.4062 Q72.2314 8.4062 72.6768 8.4766 Q73.1221 8.5469 73.4814 8.6875 ZM78.3789 9.375 Q78.2227 9.2812 78.0508 9.2422 Q77.8789 9.2031 77.6602 9.2031 Q76.8945 9.2031 76.4883 9.6953 Q76.082 10.1875 76.082 11.125 L76.082 14 L75.1758 14 L75.1758 8.5312 L76.082 8.5312 L76.082 9.375 Q76.3633 8.875 76.8164 8.6406 Q77.2695 8.4062 77.9258 8.4062 Q78.0195 8.4062 78.1289 8.4141 Q78.2383 8.4219 78.3789 8.4531 L78.3789 9.375 ZM79.2246 11.8438 L79.2246 8.5312 L80.1309 8.5312 L80.1309 11.8125 Q80.1309 12.5781 80.4355 12.9688 Q80.7402 13.3594 81.334 13.3594 Q82.0684 13.3594 82.4902 12.8984 Q82.9121 12.4375 82.9121 11.625 L82.9121 8.5312 L83.8184 8.5312 L83.8184 14 L82.9121 14 L82.9121 13.1562 Q82.584 13.6562 82.1543 13.8984 Q81.7246 14.1406 81.1465 14.1406 Q80.209 14.1406 79.7168 13.5547 Q79.2246 12.9688 79.2246 11.8438 ZM81.4902 8.4062 L81.4902 8.4062 ZM86.5312 13.1719 L86.5312 16.0781 L85.625 16.0781 L85.625 8.5312 L86.5312 8.5312 L86.5312 9.3594 Q86.8125 8.875 87.2422 8.6406 Q87.6719 8.4062 88.2812 8.4062 Q89.2812 8.4062 89.8984 9.1953 Q90.5156 9.9844 90.5156 11.2656 Q90.5156 12.5625 89.8984 13.3516 Q89.2812 14.1406 88.2812 14.1406 Q87.6719 14.1406 87.2422 13.9062 Q86.8125 13.6719 86.5312 13.1719 ZM89.5938 11.2656 Q89.5938 10.2812 89.1797 9.7188 Q88.7656 9.1562 88.0625 9.1562 Q87.3438 9.1562 86.9375 9.7188 Q86.5312 10.2812 86.5312 11.2656 Q86.5312 12.2656 86.9375 12.8281 Q87.3438 13.3906 88.0625 13.3906 Q88.7656 13.3906 89.1797 12.8281 Q89.5938 12.2656 89.5938 11.2656 ZM92.8945 6.9844 L92.8945 8.5312 L94.7539 8.5312 L94.7539 9.2344 L92.8945 9.2344 L92.8945 12.2031 Q92.8945 12.8594 93.082 13.0547 Q93.2695 13.25 93.832 13.25 L94.7539 13.25 L94.7539 14 L93.832 14 Q92.7852 14 92.3867 13.6094 Q91.9883 13.2188 91.9883 12.2031 L91.9883 9.2344 L91.332 9.2344 L91.332 8.5312 L91.9883 8.5312 L91.9883 6.9844 L92.8945 6.9844 ZM95.9248 8.5312 L96.8311 8.5312 L96.8311 14 L95.9248 14 L95.9248 8.5312 ZM95.9248 6.4062 L96.8311 6.4062 L96.8311 7.5469 L95.9248 7.5469 L95.9248 6.4062 ZM100.8281 9.1562 Q100.1094 9.1562 99.6875 9.7188 Q99.2656 10.2812 99.2656 11.2656 Q99.2656 12.25 99.6797 12.8125 Q100.0938 13.375 100.8281 13.375 Q101.5469 13.375 101.9688 12.8125 Q102.3906 12.25 102.3906 11.2656 Q102.3906 10.2969 101.9688 9.7266 Q101.5469 9.1562 100.8281 9.1562 ZM100.8281 8.4062 Q102 8.4062 102.6719 9.1641 Q103.3438 9.9219 103.3438 11.2656 Q103.3438 12.6094 102.6719 13.375 Q102 14.1406 100.8281 14.1406 Q99.6562 14.1406 98.9844 13.375 Q98.3125 12.6094 98.3125 11.2656 Q98.3125 9.9219 98.9844 9.1641 Q99.6562 8.4062 100.8281 8.4062 ZM109.3682 10.7031 L109.3682 14 L108.4775 14 L108.4775 10.7344 Q108.4775 9.9531 108.1729 9.5703 Q107.8682 9.1875 107.2588 9.1875 Q106.54 9.1875 106.1182 9.6484 Q105.6963 10.1094 105.6963 10.9062 L105.6963 14 L104.79 14 L104.79 8.5312 L105.6963 8.5312 L105.6963 9.375 Q106.0244 8.8906 106.4619 8.6484 Q106.8994 8.4062 107.4619 8.4062 Q108.3994 8.4062 108.8838 8.9844 Q109.3682 9.5625 109.3682 10.7031 ZM116.4629 9.1562 Q115.7441 9.1562 115.3223 9.7188 Q114.9004 10.2812 114.9004 11.2656 Q114.9004 12.25 115.3145 12.8125 Q115.7285 13.375 116.4629 13.375 Q117.1816 13.375 117.6035 12.8125 Q118.0254 12.25 118.0254 11.2656 Q118.0254 10.2969 117.6035 9.7266 Q117.1816 9.1562 116.4629 9.1562 ZM116.4629 8.4062 Q117.6348 8.4062 118.3066 9.1641 Q118.9785 9.9219 118.9785 11.2656 Q118.9785 12.6094 118.3066 13.375 Q117.6348 14.1406 116.4629 14.1406 Q115.291 14.1406 114.6191 13.375 Q113.9473 12.6094 113.9473 11.2656 Q113.9473 9.9219 114.6191 9.1641 Q115.291 8.4062 116.4629 8.4062 ZM123.2373 6.4062 L123.2373 7.1562 L122.3779 7.1562 Q121.8936 7.1562 121.7061 7.3516 Q121.5186 7.5469 121.5186 8.0469 L121.5186 8.5312 L122.9873 8.5312 L122.9873 9.2344 L121.5186 9.2344 L121.5186 14 L120.6123 14 L120.6123 9.2344 L119.7529 9.2344 L119.7529 8.5312 L120.6123 8.5312 L120.6123 8.1562 Q120.6123 7.2344 121.0342 6.8203 Q121.4561 6.4062 122.3779 6.4062 L123.2373 6.4062 ZM131.5771 6.9531 L131.5771 7.9062 Q131.0146 7.6406 130.5146 7.5078 Q130.0146 7.375 129.5459 7.375 Q128.749 7.375 128.3115 7.6875 Q127.874 8 127.874 8.5781 Q127.874 9.0625 128.1631 9.3125 Q128.4521 9.5625 129.2646 9.7031 L129.8584 9.8281 Q130.9521 10.0469 131.4834 10.5703 Q132.0146 11.0938 132.0146 11.9844 Q132.0146 13.0469 131.3037 13.5938 Q130.5928 14.1406 129.2178 14.1406 Q128.7021 14.1406 128.1162 14.0234 Q127.5303 13.9062 126.9053 13.6719 L126.9053 12.6562 Q127.5146 13 128.085 13.1719 Q128.6553 13.3438 129.2178 13.3438 Q130.0615 13.3438 130.5225 13.0078 Q130.9834 12.6719 130.9834 12.0625 Q130.9834 11.5312 130.6553 11.2266 Q130.3271 10.9219 129.5615 10.7656 L128.9678 10.6562 Q127.8584 10.4375 127.3662 9.9688 Q126.874 9.5 126.874 8.6562 Q126.874 7.6875 127.5537 7.1328 Q128.2334 6.5781 129.4365 6.5781 Q129.9521 6.5781 130.4834 6.6719 Q131.0146 6.7656 131.5771 6.9531 ZM138.0498 10.7031 L138.0498 14 L137.1592 14 L137.1592 10.7344 Q137.1592 9.9531 136.8545 9.5703 Q136.5498 9.1875 135.9404 9.1875 Q135.2217 9.1875 134.7998 9.6484 Q134.3779 10.1094 134.3779 10.9062 L134.3779 14 L133.4717 14 L133.4717 6.4062 L134.3779 6.4062 L134.3779 9.375 Q134.7061 8.8906 135.1436 8.6484 Q135.5811 8.4062 136.1436 8.4062 Q137.0811 8.4062 137.5654 8.9844 Q138.0498 9.5625 138.0498 10.7031 ZM144.3877 10.7031 L144.3877 14 L143.4971 14 L143.4971 10.7344 Q143.4971 9.9531 143.1924 9.5703 Q142.8877 9.1875 142.2783 9.1875 Q141.5596 9.1875 141.1377 9.6484 Q140.7158 10.1094 140.7158 10.9062 L140.7158 14 L139.8096 14 L139.8096 6.4062 L140.7158 6.4062 L140.7158 9.375 Q141.0439 8.8906 141.4814 8.6484 Q141.9189 8.4062 142.4814 8.4062 Q143.4189 8.4062 143.9033 8.9844 Q144.3877 9.5625 144.3877 10.7031 ZM152.8418 8.6875 L152.8418 9.5469 Q152.4668 9.3438 152.0605 9.25 Q151.6543 9.1562 151.2012 9.1562 Q150.5449 9.1562 150.209 9.3594 Q149.873 9.5625 149.873 9.9688 Q149.873 10.2812 150.1074 10.4609 Q150.3418 10.6406 151.0762 10.7969 L151.373 10.875 Q152.3418 11.0781 152.7402 11.4531 Q153.1387 11.8281 153.1387 12.4844 Q153.1387 13.25 152.5371 13.6953 Q151.9355 14.1406 150.8887 14.1406 Q150.4355 14.1406 149.959 14.0547 Q149.4824 13.9688 148.9668 13.7969 L148.9668 12.875 Q149.4668 13.125 149.9434 13.2578 Q150.4199 13.3906 150.9043 13.3906 Q151.5293 13.3906 151.873 13.1719 Q152.2168 12.9531 152.2168 12.5625 Q152.2168 12.1875 151.9746 11.9922 Q151.7324 11.7969 150.8887 11.625 L150.5762 11.5469 Q149.748 11.375 149.373 11.0078 Q148.998 10.6406 148.998 10.0156 Q148.998 9.2344 149.5449 8.8203 Q150.0918 8.4062 151.1074 8.4062 Q151.5918 8.4062 152.0371 8.4766 Q152.4824 8.5469 152.8418 8.6875 ZM154.5674 8.5312 L155.4736 8.5312 L155.4736 14 L154.5674 14 L154.5674 8.5312 ZM154.5674 6.4062 L155.4736 6.4062 L155.4736 7.5469 L154.5674 7.5469 L154.5674 6.4062 ZM160.9551 11.2031 Q160.9551 10.2188 160.5488 9.6875 Q160.1426 9.1562 159.4238 9.1562 Q158.6895 9.1562 158.291 9.6875 Q157.8926 10.2188 157.8926 11.2031 Q157.8926 12.1719 158.291 12.7109 Q158.6895 13.25 159.4238 13.25 Q160.1426 13.25 160.5488 12.7109 Q160.9551 12.1719 160.9551 11.2031 ZM161.8457 13.3281 Q161.8457 14.7188 161.2285 15.3984 Q160.6113 16.0781 159.3301 16.0781 Q158.8613 16.0781 158.4395 16.0078 Q158.0176 15.9375 157.627 15.7969 L157.627 14.9219 Q158.0176 15.1406 158.4004 15.2422 Q158.7832 15.3438 159.1895 15.3438 Q160.0645 15.3438 160.5098 14.8828 Q160.9551 14.4219 160.9551 13.4844 L160.9551 13.0312 Q160.6738 13.5156 160.2363 13.7578 Q159.7988 14 159.1895 14 Q158.1895 14 157.5723 13.2344 Q156.9551 12.4688 156.9551 11.2031 Q156.9551 9.9375 157.5723 9.1719 Q158.1895 8.4062 159.1895 8.4062 Q159.7988 8.4062 160.2363 8.6406 Q160.6738 8.875 160.9551 9.3594 L160.9551 8.5312 L161.8457 8.5312 L161.8457 13.3281 ZM168.2402 10.7031 L168.2402 14 L167.3496 14 L167.3496 10.7344 Q167.3496 9.9531 167.0449 9.5703 Q166.7402 9.1875 166.1309 9.1875 Q165.4121 9.1875 164.9902 9.6484 Q164.5684 10.1094 164.5684 10.9062 L164.5684 14 L163.6621 14 L163.6621 8.5312 L164.5684 8.5312 L164.5684 9.375 Q164.8965 8.8906 165.334 8.6484 Q165.7715 8.4062 166.334 8.4062 Q167.2715 8.4062 167.7559 8.9844 Q168.2402 9.5625 168.2402 10.7031 ZM172.5156 11.25 Q171.4375 11.25 171.0156 11.5 Q170.5938 11.75 170.5938 12.3438 Q170.5938 12.8281 170.9062 13.1094 Q171.2188 13.3906 171.7656 13.3906 Q172.5156 13.3906 172.9688 12.8594 Q173.4219 12.3281 173.4219 11.4531 L173.4219 11.25 L172.5156 11.25 ZM174.3125 10.875 L174.3125 14 L173.4219 14 L173.4219 13.1719 Q173.1094 13.6719 172.6484 13.9062 Q172.1875 14.1406 171.5312 14.1406 Q170.6875 14.1406 170.1875 13.6719 Q169.6875 13.2031 169.6875 12.4062 Q169.6875 11.4844 170.3125 11.0156 Q170.9375 10.5469 172.1562 10.5469 L173.4219 10.5469 L173.4219 10.4531 Q173.4219 9.8438 173.0078 9.5 Q172.5938 9.1562 171.8594 9.1562 Q171.3906 9.1562 170.9453 9.2734 Q170.5 9.3906 170.0938 9.6094 L170.0938 8.7812 Q170.5938 8.5938 171.0547 8.5 Q171.5156 8.4062 171.9531 8.4062 Q173.1406 8.4062 173.7266 9.0156 Q174.3125 9.625 174.3125 10.875 ZM176.1592 6.4062 L177.0654 6.4062 L177.0654 14 L176.1592 14 L176.1592 6.4062 ZM178.9375 8.5312 L179.8438 8.5312 L179.8438 14 L178.9375 14 L178.9375 8.5312 ZM178.9375 6.4062 L179.8438 6.4062 L179.8438 7.5469 L178.9375 7.5469 L178.9375 6.4062 ZM186.2627 10.7031 L186.2627 14 L185.3721 14 L185.3721 10.7344 Q185.3721 9.9531 185.0674 9.5703 Q184.7627 9.1875 184.1533 9.1875 Q183.4346 9.1875 183.0127 9.6484 Q182.5908 10.1094 182.5908 10.9062 L182.5908 14 L181.6846 14 L181.6846 8.5312 L182.5908 8.5312 L182.5908 9.375 Q182.9189 8.8906 183.3564 8.6484 Q183.7939 8.4062 184.3564 8.4062 Q185.2939 8.4062 185.7783 8.9844 Q186.2627 9.5625 186.2627 10.7031 ZM191.6631 11.2031 Q191.6631 10.2188 191.2568 9.6875 Q190.8506 9.1562 190.1318 9.1562 Q189.3975 9.1562 188.999 9.6875 Q188.6006 10.2188 188.6006 11.2031 Q188.6006 12.1719 188.999 12.7109 Q189.3975 13.25 190.1318 13.25 Q190.8506 13.25 191.2568 12.7109 Q191.6631 12.1719 191.6631 11.2031 ZM192.5537 13.3281 Q192.5537 14.7188 191.9365 15.3984 Q191.3193 16.0781 190.0381 16.0781 Q189.5693 16.0781 189.1475 16.0078 Q188.7256 15.9375 188.335 15.7969 L188.335 14.9219 Q188.7256 15.1406 189.1084 15.2422 Q189.4912 15.3438 189.8975 15.3438 Q190.7725 15.3438 191.2178 14.8828 Q191.6631 14.4219 191.6631 13.4844 L191.6631 13.0312 Q191.3818 13.5156 190.9443 13.7578 Q190.5068 14 189.8975 14 Q188.8975 14 188.2803 13.2344 Q187.6631 12.4688 187.6631 11.2031 Q187.6631 9.9375 188.2803 9.1719 Q188.8975 8.4062 189.8975 8.4062 Q190.5068 8.4062 190.9443 8.6406 Q191.3818 8.875 191.6631 9.3594 L191.6631 8.5312 L192.5537 8.5312 L192.5537 13.3281 Z"
         style="clip-path:url(#clipPath2); stroke:none;"
         clip-path="url(#clipPath2)"
         id="path82" />
      <path
         d="M4.25 21.9375 Q3.3906 21.9375 2.9141 22.5703 Q2.4375 23.2031 2.4375 24.3594 Q2.4375 25.5156 2.9141 26.1484 Q3.3906 26.7812 4.25 26.7812 Q5.1094 26.7812 5.5859 26.1484 Q6.0625 25.5156 6.0625 24.3594 Q6.0625 23.2031 5.5859 22.5703 Q5.1094 21.9375 4.25 21.9375 ZM4.25 20.5781 Q6 20.5781 7 21.5859 Q8 22.5938 8 24.3594 Q8 26.125 7 27.1328 Q6 28.1406 4.25 28.1406 Q2.5 28.1406 1.5 27.1328 Q0.5 26.125 0.5 24.3594 Q0.5 22.5938 1.5 21.5859 Q2.5 20.5781 4.25 20.5781 ZM13.4072 24.0156 Q13.1729 23.9062 12.9463 23.8594 Q12.7197 23.8125 12.4854 23.8125 Q11.8135 23.8125 11.4541 24.2422 Q11.0947 24.6719 11.0947 25.4844 L11.0947 28 L9.3447 28 L9.3447 22.5312 L11.0947 22.5312 L11.0947 23.4219 Q11.4229 22.8906 11.8604 22.6484 Q12.2979 22.4062 12.9072 22.4062 Q13.001 22.4062 13.1025 22.4062 Q13.2041 22.4062 13.3916 22.4375 L13.4072 24.0156 ZM17.9951 27.0781 Q17.6357 27.5469 17.1982 27.7734 Q16.7607 28 16.1982 28 Q15.1982 28 14.542 27.2109 Q13.8857 26.4219 13.8857 25.2031 Q13.8857 23.9688 14.542 23.1875 Q15.1982 22.4062 16.1982 22.4062 Q16.7607 22.4062 17.1982 22.6328 Q17.6357 22.8594 17.9951 23.3438 L17.9951 22.5312 L19.7451 22.5312 L19.7451 27.4531 Q19.7451 28.7656 18.917 29.4609 Q18.0889 30.1562 16.5107 30.1562 Q15.9951 30.1562 15.5186 30.0781 Q15.042 30 14.5576 29.8438 L14.5576 28.4844 Q15.0107 28.75 15.4482 28.875 Q15.8857 29 16.3389 29 Q17.1982 29 17.5967 28.625 Q17.9951 28.25 17.9951 27.4531 L17.9951 27.0781 ZM16.8389 23.6719 Q16.292 23.6719 15.9951 24.0703 Q15.6982 24.4688 15.6982 25.2031 Q15.6982 25.9531 15.9873 26.3438 Q16.2764 26.7344 16.8389 26.7344 Q17.3857 26.7344 17.6904 26.3281 Q17.9951 25.9219 17.9951 25.2031 Q17.9951 24.4688 17.6904 24.0703 Q17.3857 23.6719 16.8389 23.6719 ZM23.8877 25.5312 Q23.3408 25.5312 23.0596 25.7188 Q22.7783 25.9062 22.7783 26.2656 Q22.7783 26.6094 23.0049 26.7969 Q23.2314 26.9844 23.6221 26.9844 Q24.1221 26.9844 24.458 26.625 Q24.7939 26.2656 24.7939 25.7344 L24.7939 25.5312 L23.8877 25.5312 ZM26.5596 24.875 L26.5596 28 L24.7939 28 L24.7939 27.1875 Q24.4346 27.6875 23.9971 27.9141 Q23.5596 28.1406 22.9346 28.1406 Q22.0752 28.1406 21.5518 27.6484 Q21.0283 27.1562 21.0283 26.3594 Q21.0283 25.3906 21.6846 24.9453 Q22.3408 24.5 23.7627 24.5 L24.7939 24.5 L24.7939 24.3594 Q24.7939 23.9531 24.4658 23.7578 Q24.1377 23.5625 23.4502 23.5625 Q22.8877 23.5625 22.4033 23.6719 Q21.9189 23.7812 21.4971 24.0156 L21.4971 22.6719 Q22.0596 22.5469 22.6299 22.4766 Q23.2002 22.4062 23.7627 22.4062 Q25.2471 22.4062 25.9033 22.9844 Q26.5596 23.5625 26.5596 24.875 ZM33.6826 24.6719 L33.6826 28 L31.917 28 L31.917 27.4531 L31.917 25.4531 Q31.917 24.75 31.8857 24.4766 Q31.8545 24.2031 31.7764 24.0781 Q31.6826 23.9062 31.5029 23.8125 Q31.3232 23.7188 31.1045 23.7188 Q30.5576 23.7188 30.2451 24.1406 Q29.9326 24.5625 29.9326 25.3125 L29.9326 28 L28.1826 28 L28.1826 22.5312 L29.9326 22.5312 L29.9326 23.3281 Q30.3232 22.8594 30.7686 22.6328 Q31.2139 22.4062 31.7451 22.4062 Q32.6982 22.4062 33.1904 22.9844 Q33.6826 23.5625 33.6826 24.6719 ZM35.3018 22.5312 L37.0518 22.5312 L37.0518 28 L35.3018 28 L35.3018 22.5312 ZM35.3018 20.4062 L37.0518 20.4062 L37.0518 21.8281 L35.3018 21.8281 L35.3018 20.4062 ZM42.9951 22.7031 L42.9951 24.0312 Q42.4326 23.7969 41.9092 23.6797 Q41.3857 23.5625 40.9326 23.5625 Q40.4326 23.5625 40.1904 23.6875 Q39.9482 23.8125 39.9482 24.0625 Q39.9482 24.2812 40.1279 24.3906 Q40.3076 24.5 40.792 24.5625 L41.0889 24.5938 Q42.4326 24.7656 42.9014 25.1562 Q43.3701 25.5469 43.3701 26.3906 Q43.3701 27.2656 42.7217 27.7031 Q42.0732 28.1406 40.792 28.1406 Q40.2607 28.1406 39.6826 28.0547 Q39.1045 27.9688 38.4795 27.7969 L38.4795 26.4688 Q39.0107 26.7188 39.5576 26.8516 Q40.1045 26.9844 40.667 26.9844 Q41.1826 26.9844 41.4404 26.8438 Q41.6982 26.7031 41.6982 26.4219 Q41.6982 26.1875 41.5264 26.0703 Q41.3545 25.9531 40.8232 25.8906 L40.5107 25.8438 Q39.3389 25.7031 38.8701 25.3047 Q38.4014 24.9062 38.4014 24.1094 Q38.4014 23.2344 38.9951 22.8203 Q39.5889 22.4062 40.8232 22.4062 Q41.3076 22.4062 41.8389 22.4766 Q42.3701 22.5469 42.9951 22.7031 ZM49.7441 23.4375 Q50.0723 22.9375 50.5332 22.6719 Q50.9941 22.4062 51.541 22.4062 Q52.4785 22.4062 52.9707 22.9844 Q53.4629 23.5625 53.4629 24.6719 L53.4629 28 L51.7129 28 L51.7129 25.1406 Q51.7129 25.0781 51.7129 25.0156 Q51.7129 24.9531 51.7129 24.8281 Q51.7129 24.2344 51.5488 23.9766 Q51.3848 23.7188 50.9941 23.7188 Q50.4941 23.7188 50.2285 24.125 Q49.9629 24.5312 49.9473 25.3125 L49.9473 28 L48.1816 28 L48.1816 25.1406 Q48.1816 24.2344 48.0254 23.9766 Q47.8691 23.7188 47.4785 23.7188 Q46.9785 23.7188 46.7051 24.1328 Q46.4316 24.5469 46.4316 25.3125 L46.4316 28 L44.666 28 L44.666 22.5312 L46.4316 22.5312 L46.4316 23.3281 Q46.7441 22.875 47.166 22.6406 Q47.5879 22.4062 48.0879 22.4062 Q48.6504 22.4062 49.0879 22.6797 Q49.5254 22.9531 49.7441 23.4375 ZM55.3828 22.5312 L57.1328 22.5312 L57.1328 24.4219 L55.3828 24.4219 L55.3828 22.5312 ZM55.3828 26.1094 L57.1328 26.1094 L57.1328 28 L55.3828 28 L55.3828 26.1094 Z"
         style="clip-path:url(#clipPath2); stroke:none;"
         clip-path="url(#clipPath2)"
         id="path84" />
      <path
         d="M66.9844 20.7031 L67.9688 20.7031 L67.9688 23.7031 L71.5469 23.7031 L71.5469 20.7031 L72.5312 20.7031 L72.5312 28 L71.5469 28 L71.5469 24.5312 L67.9688 24.5312 L67.9688 28 L66.9844 28 L66.9844 20.7031 ZM76.582 23.1562 Q75.8633 23.1562 75.4414 23.7188 Q75.0195 24.2812 75.0195 25.2656 Q75.0195 26.25 75.4336 26.8125 Q75.8477 27.375 76.582 27.375 Q77.3008 27.375 77.7227 26.8125 Q78.1445 26.25 78.1445 25.2656 Q78.1445 24.2969 77.7227 23.7266 Q77.3008 23.1562 76.582 23.1562 ZM76.582 22.4062 Q77.7539 22.4062 78.4258 23.1641 Q79.0977 23.9219 79.0977 25.2656 Q79.0977 26.6094 78.4258 27.375 Q77.7539 28.1406 76.582 28.1406 Q75.4102 28.1406 74.7383 27.375 Q74.0664 26.6094 74.0664 25.2656 Q74.0664 23.9219 74.7383 23.1641 Q75.4102 22.4062 76.582 22.4062 ZM84.8408 23.5781 Q85.1689 22.9688 85.6377 22.6875 Q86.1064 22.4062 86.7471 22.4062 Q87.6064 22.4062 88.0674 23 Q88.5283 23.5938 88.5283 24.7031 L88.5283 28 L87.6221 28 L87.6221 24.7344 Q87.6221 23.9375 87.3486 23.5625 Q87.0752 23.1875 86.4971 23.1875 Q85.7939 23.1875 85.3955 23.6484 Q84.9971 24.1094 84.9971 24.9062 L84.9971 28 L84.0908 28 L84.0908 24.7344 Q84.0908 23.9375 83.8096 23.5625 Q83.5283 23.1875 82.9502 23.1875 Q82.2627 23.1875 81.8564 23.6484 Q81.4502 24.1094 81.4502 24.9062 L81.4502 28 L80.5439 28 L80.5439 22.5312 L81.4502 22.5312 L81.4502 23.375 Q81.7627 22.875 82.1924 22.6406 Q82.6221 22.4062 83.2002 22.4062 Q83.8096 22.4062 84.2236 22.7031 Q84.6377 23 84.8408 23.5781 ZM92.4414 23.1562 Q91.7227 23.1562 91.3008 23.7188 Q90.8789 24.2812 90.8789 25.2656 Q90.8789 26.25 91.293 26.8125 Q91.707 27.375 92.4414 27.375 Q93.1602 27.375 93.582 26.8125 Q94.0039 26.25 94.0039 25.2656 Q94.0039 24.2969 93.582 23.7266 Q93.1602 23.1562 92.4414 23.1562 ZM92.4414 22.4062 Q93.6133 22.4062 94.2852 23.1641 Q94.957 23.9219 94.957 25.2656 Q94.957 26.6094 94.2852 27.375 Q93.6133 28.1406 92.4414 28.1406 Q91.2695 28.1406 90.5977 27.375 Q89.9258 26.6094 89.9258 25.2656 Q89.9258 23.9219 90.5977 23.1641 Q91.2695 22.4062 92.4414 22.4062 ZM103.0977 22.6875 L103.0977 23.5469 Q102.7227 23.3438 102.3164 23.25 Q101.9102 23.1562 101.457 23.1562 Q100.8008 23.1562 100.4648 23.3594 Q100.1289 23.5625 100.1289 23.9688 Q100.1289 24.2812 100.3633 24.4609 Q100.5977 24.6406 101.332 24.7969 L101.6289 24.875 Q102.5977 25.0781 102.9961 25.4531 Q103.3945 25.8281 103.3945 26.4844 Q103.3945 27.25 102.793 27.6953 Q102.1914 28.1406 101.1445 28.1406 Q100.6914 28.1406 100.2148 28.0547 Q99.7383 27.9688 99.2227 27.7969 L99.2227 26.875 Q99.7227 27.125 100.1992 27.2578 Q100.6758 27.3906 101.1602 27.3906 Q101.7852 27.3906 102.1289 27.1719 Q102.4727 26.9531 102.4727 26.5625 Q102.4727 26.1875 102.2305 25.9922 Q101.9883 25.7969 101.1445 25.625 L100.832 25.5469 Q100.0039 25.375 99.6289 25.0078 Q99.2539 24.6406 99.2539 24.0156 Q99.2539 23.2344 99.8008 22.8203 Q100.3477 22.4062 101.3633 22.4062 Q101.8477 22.4062 102.293 22.4766 Q102.7383 22.5469 103.0977 22.6875 ZM107.3076 25.25 Q106.2295 25.25 105.8076 25.5 Q105.3857 25.75 105.3857 26.3438 Q105.3857 26.8281 105.6982 27.1094 Q106.0107 27.3906 106.5576 27.3906 Q107.3076 27.3906 107.7607 26.8594 Q108.2139 26.3281 108.2139 25.4531 L108.2139 25.25 L107.3076 25.25 ZM109.1045 24.875 L109.1045 28 L108.2139 28 L108.2139 27.1719 Q107.9014 27.6719 107.4404 27.9062 Q106.9795 28.1406 106.3232 28.1406 Q105.4795 28.1406 104.9795 27.6719 Q104.4795 27.2031 104.4795 26.4062 Q104.4795 25.4844 105.1045 25.0156 Q105.7295 24.5469 106.9482 24.5469 L108.2139 24.5469 L108.2139 24.4531 Q108.2139 23.8438 107.7998 23.5 Q107.3857 23.1562 106.6514 23.1562 Q106.1826 23.1562 105.7373 23.2734 Q105.292 23.3906 104.8857 23.6094 L104.8857 22.7812 Q105.3857 22.5938 105.8467 22.5 Q106.3076 22.4062 106.7451 22.4062 Q107.9326 22.4062 108.5186 23.0156 Q109.1045 23.625 109.1045 24.875 ZM111.8262 27.1719 L111.8262 30.0781 L110.9199 30.0781 L110.9199 22.5312 L111.8262 22.5312 L111.8262 23.3594 Q112.1074 22.875 112.5371 22.6406 Q112.9668 22.4062 113.5762 22.4062 Q114.5762 22.4062 115.1934 23.1953 Q115.8105 23.9844 115.8105 25.2656 Q115.8105 26.5625 115.1934 27.3516 Q114.5762 28.1406 113.5762 28.1406 Q112.9668 28.1406 112.5371 27.9062 Q112.1074 27.6719 111.8262 27.1719 ZM114.8887 25.2656 Q114.8887 24.2812 114.4746 23.7188 Q114.0605 23.1562 113.3574 23.1562 Q112.6387 23.1562 112.2324 23.7188 Q111.8262 24.2812 111.8262 25.2656 Q111.8262 26.2656 112.2324 26.8281 Q112.6387 27.3906 113.3574 27.3906 Q114.0605 27.3906 114.4746 26.8281 Q114.8887 26.2656 114.8887 25.2656 ZM117.2988 22.5312 L118.2051 22.5312 L118.2051 28 L117.2988 28 L117.2988 22.5312 ZM117.2988 20.4062 L118.2051 20.4062 L118.2051 21.5469 L117.2988 21.5469 L117.2988 20.4062 ZM124.7646 25.0469 L124.7646 25.4844 L120.624 25.4844 Q120.6865 26.4062 121.1865 26.8906 Q121.6865 27.375 122.5771 27.375 Q123.0928 27.375 123.585 27.25 Q124.0771 27.125 124.5459 26.875 L124.5459 27.7188 Q124.0615 27.9219 123.5537 28.0312 Q123.0459 28.1406 122.5303 28.1406 Q121.2178 28.1406 120.4521 27.3828 Q119.6865 26.625 119.6865 25.3125 Q119.6865 23.9688 120.4131 23.1875 Q121.1396 22.4062 122.374 22.4062 Q123.4834 22.4062 124.124 23.1094 Q124.7646 23.8125 124.7646 25.0469 ZM123.8584 24.7812 Q123.8584 24.0469 123.4521 23.6016 Q123.0459 23.1562 122.3896 23.1562 Q121.624 23.1562 121.1787 23.5859 Q120.7334 24.0156 120.6553 24.7812 L123.8584 24.7812 ZM130.7764 24.7031 L130.7764 28 L129.8857 28 L129.8857 24.7344 Q129.8857 23.9531 129.5811 23.5703 Q129.2764 23.1875 128.667 23.1875 Q127.9482 23.1875 127.5264 23.6484 Q127.1045 24.1094 127.1045 24.9062 L127.1045 28 L126.1982 28 L126.1982 22.5312 L127.1045 22.5312 L127.1045 23.375 Q127.4326 22.8906 127.8701 22.6484 Q128.3076 22.4062 128.8701 22.4062 Q129.8076 22.4062 130.292 22.9844 Q130.7764 23.5625 130.7764 24.7031 ZM136.0518 22.6875 L136.0518 23.5469 Q135.6768 23.3438 135.2705 23.25 Q134.8643 23.1562 134.4111 23.1562 Q133.7549 23.1562 133.4189 23.3594 Q133.083 23.5625 133.083 23.9688 Q133.083 24.2812 133.3174 24.4609 Q133.5518 24.6406 134.2861 24.7969 L134.583 24.875 Q135.5518 25.0781 135.9502 25.4531 Q136.3486 25.8281 136.3486 26.4844 Q136.3486 27.25 135.7471 27.6953 Q135.1455 28.1406 134.0986 28.1406 Q133.6455 28.1406 133.1689 28.0547 Q132.6924 27.9688 132.1768 27.7969 L132.1768 26.875 Q132.6768 27.125 133.1533 27.2578 Q133.6299 27.3906 134.1143 27.3906 Q134.7393 27.3906 135.083 27.1719 Q135.4268 26.9531 135.4268 26.5625 Q135.4268 26.1875 135.1846 25.9922 Q134.9424 25.7969 134.0986 25.625 L133.7861 25.5469 Q132.958 25.375 132.583 25.0078 Q132.208 24.6406 132.208 24.0156 Q132.208 23.2344 132.7549 22.8203 Q133.3018 22.4062 134.3174 22.4062 Q134.8018 22.4062 135.2471 22.4766 Q135.6924 22.5469 136.0518 22.6875 Z"
         style="clip-path:url(#clipPath2); stroke:none;"
         clip-path="url(#clipPath2)"
         id="path86" />
    </g>
    <g
       style="fill:navy; text-rendering:geometricPrecision; font-size:8; stroke:navy;"
       id="g92">
      <text
         x="199"
         xml:space="preserve"
         y="16"
         style="clip-path:url(#clipPath4); stroke:none;"
         clip-path="url(#clipPath4)"
         id="text90">1</text>
    </g>
    <g
       style="fill:rgb(180,180,100); text-rendering:geometricPrecision; fill-opacity:0.098; stroke-opacity:0.098; stroke:rgb(180,180,100);"
       id="g96">
      <path
         d="M46.9525 124.9012 L93.9525 124.9012 L111.9525 142.9012 L111.9525 169.9012 L93.9525 187.9012 L46.9525 187.9012 L28.9525 169.9012 L28.9525 142.9012 Z"
         style="clip-path:url(#clipPath5); stroke:none;"
         clip-path="url(#clipPath5)"
         id="path94" />
    </g>
    <g
       style="fill:gray; text-rendering:geometricPrecision; stroke:gray;"
       id="g100">
      <path
         d="M46.9525 124.9012 L93.9525 124.9012 L111.9525 142.9012 L111.9525 169.9012 L93.9525 187.9012 L46.9525 187.9012 L28.9525 169.9012 L28.9525 142.9012 Z"
         style="fill:none; clip-path:url(#clipPath5);"
         clip-path="url(#clipPath5)"
         id="path98" />
    </g>
    <g
       style="fill:rgb(204,0,51); text-rendering:geometricPrecision; stroke:rgb(204,0,51);"
       id="g108">
      <path
         d="M112.9525 156.9012 L145.9525 156.9012"
         style="fill:none; clip-path:url(#clipPath6);"
         clip-path="url(#clipPath6)"
         id="path102" />
      <path
         d="M145.9525 147.8012 L147.2525 147.8012 L147.2525 167.3012 L145.9525 167.3012 L145.9525 147.8012 Z"
         style="fill:white; clip-path:url(#clipPath6); stroke:none;"
         clip-path="url(#clipPath6)"
         id="path104" />
      <path
         d="M145.9525 147.8012 L147.2525 147.8012 L147.2525 167.3012 L145.9525 167.3012 L145.9525 147.8012 Z"
         style="fill:none; clip-path:url(#clipPath6);"
         clip-path="url(#clipPath6)"
         id="path106" />
    </g>
    <g
       style="fill:rgb(204,0,51); text-rendering:geometricPrecision; stroke:rgb(204,0,51);"
       id="g116">
      <path
         d="M274.2631 218.4537 L296.9264 218.4537"
         style="fill:none; clip-path:url(#clipPath7);"
         clip-path="url(#clipPath7)"
         id="path110" />
      <path
         d="M296.9264 209.3537 L298.2264 209.3537 L298.2264 228.8537 L296.9264 228.8537 L296.9264 209.3537 Z"
         style="fill:white; clip-path:url(#clipPath7); stroke:none;"
         clip-path="url(#clipPath7)"
         id="path112" />
      <path
         d="M296.9264 209.3537 L298.2264 209.3537 L298.2264 228.8537 L296.9264 228.8537 L296.9264 209.3537 Z"
         style="fill:none; clip-path:url(#clipPath7);"
         clip-path="url(#clipPath7)"
         id="path114" />
    </g>
    <g
       style="text-rendering:geometricPrecision;"
       id="g122">
      <path
         d="M152.4531 228.4537 L152.4531 292.809"
         style="fill:none; clip-path:url(#clipPath8);"
         clip-path="url(#clipPath8)"
         id="path118" />
      <path
         d="M152.4531 292.809 L157.6531 281.109 L147.2531 281.109 Z"
         style="clip-path:url(#clipPath8); fill-rule:evenodd; stroke:none;"
         clip-path="url(#clipPath8)"
         id="path120" />
    </g>
    <g
       style="text-rendering:geometricPrecision;"
       id="g128">
      <path
         d="M182.9525 101.9012 L182.9525 146.9012"
         style="fill:none; clip-path:url(#clipPath9);"
         clip-path="url(#clipPath9)"
         id="path124" />
      <path
         d="M182.9525 146.9012 L188.1525 135.2012 L177.7525 135.2012 Z"
         style="clip-path:url(#clipPath9); fill-rule:evenodd; stroke:none;"
         clip-path="url(#clipPath9)"
         id="path126" />
    </g>
    <g
       style="fill:rgb(204,0,51); text-rendering:geometricPrecision; stroke:rgb(204,0,51);"
       id="g136">
      <path
         d="M244.2631 228.4537 L244.2631 259.8676 M244.2631 259.8676 L159.4531 259.8676"
         style="fill:none; clip-path:url(#clipPath10);"
         clip-path="url(#clipPath10)"
         id="path130" />
      <path
         d="M159.4531 268.9676 L158.1531 268.9676 L158.1531 249.4676 L159.4531 249.4676 L159.4531 268.9676 Z"
         style="fill:white; clip-path:url(#clipPath10); stroke:none;"
         clip-path="url(#clipPath10)"
         id="path132" />
      <path
         d="M159.4531 268.9676 L158.1531 268.9676 L158.1531 249.4676 L159.4531 249.4676 L159.4531 268.9676 Z"
         style="fill:none; clip-path:url(#clipPath10);"
         clip-path="url(#clipPath10)"
         id="path134" />
    </g>
    <g
       style="fill:rgb(204,0,51); text-rendering:geometricPrecision; stroke:rgb(204,0,51);"
       id="g144">
      <path
         d="M182.4531 218.4537 L207.2631 218.4537"
         style="fill:none; clip-path:url(#clipPath11);"
         clip-path="url(#clipPath11)"
         id="path138" />
      <path
         d="M207.2631 209.3537 L208.563 209.3537 L208.563 228.8537 L207.2631 228.8537 L207.2631 209.3537 Z"
         style="fill:white; clip-path:url(#clipPath11); stroke:none;"
         clip-path="url(#clipPath11)"
         id="path140" />
      <path
         d="M207.2631 209.3537 L208.563 209.3537 L208.563 228.8537 L207.2631 228.8537 L207.2631 209.3537 Z"
         style="fill:none; clip-path:url(#clipPath11);"
         clip-path="url(#clipPath11)"
         id="path142" />
    </g>
    <g
       style="fill:rgb(204,0,51); text-rendering:geometricPrecision; stroke-dasharray:4,4; stroke:rgb(204,0,51);"
       id="g152">
      <path
         d="M167.9525 166.9012 L167.5372 201.4542"
         style="fill:none; clip-path:url(#clipPath12);"
         clip-path="url(#clipPath12)"
         id="path146" />
      <path
         d="M176.6366 201.5636 L176.621 202.8635 L157.1224 202.6292 L157.138 201.3293 L176.6366 201.5636 Z"
         style="fill:white; stroke-dasharray:none; clip-path:url(#clipPath12); stroke:none;"
         clip-path="url(#clipPath12)"
         id="path148" />
      <path
         d="M176.6366 201.5636 L176.621 202.8635 L157.1224 202.6292 L157.138 201.3293 L176.6366 201.5636 Z"
         style="fill:none; stroke-dasharray:none; clip-path:url(#clipPath12);"
         clip-path="url(#clipPath12)"
         id="path150" />
    </g>
    <g
       style="text-rendering:geometricPrecision;"
       id="g158">
      <path
         d="M197.9525 166.9012 L333.9264 208.4537"
         style="fill:none; clip-path:url(#clipPath13);"
         clip-path="url(#clipPath13)"
         id="path154" />
      <path
         d="M333.9264 208.4537 L324.2569 200.0614 L321.2175 210.0074 Z"
         style="clip-path:url(#clipPath13); fill-rule:evenodd; stroke:none;"
         clip-path="url(#clipPath13)"
         id="path156" />
    </g>
    <g
       style="stroke-dasharray:4,4; text-rendering:geometricPrecision;"
       id="g164">
      <path
         d="M182.9525 166.9012 L244.2631 208.4537"
         style="fill:none; clip-path:url(#clipPath14);"
         clip-path="url(#clipPath14)"
         id="path160" />
      <path
         d="M244.2631 208.4537 L237.4952 197.5851 L231.6605 206.1942 Z"
         style="stroke-dasharray:none; clip-path:url(#clipPath14); fill-rule:evenodd; stroke:none;"
         clip-path="url(#clipPath14)"
         id="path162" />
    </g>
    <g
       style="text-rendering:geometricPrecision;"
       id="g170">
      <path
         d="M333.9264 228.4537 L333.9264 283.9012"
         style="fill:none; clip-path:url(#clipPath15);"
         clip-path="url(#clipPath15)"
         id="path166" />
      <path
         d="M333.9264 283.9012 L339.1264 272.2012 L328.7264 272.2012 Z"
         style="clip-path:url(#clipPath15); fill-rule:evenodd; stroke:none;"
         clip-path="url(#clipPath15)"
         id="path168" />
    </g>
    <g
       style="fill:white; text-rendering:geometricPrecision; stroke:white;"
       id="g178">
      <path
         d="M152.9525 81.9012 L212.9525 81.9012 L212.9525 101.9012 L152.9525 101.9012 L152.9525 81.9012 Z"
         style="clip-path:url(#clipPath16); stroke:none;"
         clip-path="url(#clipPath16)"
         id="path172" />
      <path
         d="M152.9525 81.9012 L212.9525 81.9012 L212.9525 101.9012 L152.9525 101.9012 L152.9525 81.9012 Z"
         style="fill:none; clip-path:url(#clipPath16); stroke:black;"
         clip-path="url(#clipPath16)"
         id="path174" />
      <text
         x="165"
         y="95"
         style="font-size:10; clip-path:url(#clipPath16); fill:black; stroke:none;"
         xml:space="preserve"
         clip-path="url(#clipPath16)"
         id="text176">NODAL</text>
    </g>
    <g
       style="fill:white; text-rendering:geometricPrecision; stroke:white;"
       id="g186">
      <path
         d="M40.9525 156.9012 L100.9525 156.9012 L100.9525 176.9012 L40.9525 176.9012 L40.9525 156.9012 Z"
         style="clip-path:url(#clipPath17); stroke:none;"
         clip-path="url(#clipPath17)"
         id="path180" />
      <path
         d="M40.9525 156.9012 L100.9525 156.9012 L100.9525 176.9012 L40.9525 176.9012 L40.9525 156.9012 Z"
         style="fill:none; clip-path:url(#clipPath17); stroke:black;"
         clip-path="url(#clipPath17)"
         id="path182" />
      <text
         x="56"
         y="170"
         style="font-size:10; clip-path:url(#clipPath17); fill:black; stroke:none;"
         xml:space="preserve"
         clip-path="url(#clipPath17)"
         id="text184">TGIF1</text>
    </g>
    <g
       style="fill:white; text-rendering:geometricPrecision; stroke:white;"
       id="g194">
      <path
         d="M122.4531 208.4537 L182.4531 208.4537 L182.4531 228.4537 L122.4531 228.4537 L122.4531 208.4537 Z"
         style="clip-path:url(#clipPath18); stroke:none;"
         clip-path="url(#clipPath18)"
         id="path188" />
      <path
         d="M122.4531 208.4537 L182.4531 208.4537 L182.4531 228.4537 L122.4531 228.4537 L122.4531 208.4537 Z"
         style="fill:none; clip-path:url(#clipPath18); stroke:black;"
         clip-path="url(#clipPath18)"
         id="path190" />
      <text
         x="142"
         y="222"
         style="font-size:10; clip-path:url(#clipPath18); fill:black; stroke:none;"
         xml:space="preserve"
         clip-path="url(#clipPath18)"
         id="text192">SHH</text>
    </g>
    <g
       style="fill:white; text-rendering:geometricPrecision; stroke:white;"
       id="g202">
      <path
         d="M40.9525 136.9012 L100.9525 136.9012 L100.9525 156.9012 L40.9525 156.9012 L40.9525 136.9012 Z"
         style="clip-path:url(#clipPath19); stroke:none;"
         clip-path="url(#clipPath19)"
         id="path196" />
      <path
         d="M40.9525 136.9012 L100.9525 136.9012 L100.9525 156.9012 L40.9525 156.9012 L40.9525 136.9012 Z"
         style="fill:none; clip-path:url(#clipPath19); stroke:black;"
         clip-path="url(#clipPath19)"
         id="path198" />
      <text
         x="56"
         y="150"
         style="font-size:10; clip-path:url(#clipPath19); fill:black; stroke:none;"
         xml:space="preserve"
         clip-path="url(#clipPath19)"
         id="text200">TGIF2</text>
    </g>
    <g
       style="fill:white; text-rendering:geometricPrecision; stroke:white;"
       id="g210">
      <path
         d="M214.2631 208.4537 L274.2631 208.4537 L274.2631 228.4537 L214.2631 228.4537 L214.2631 208.4537 Z"
         style="clip-path:url(#clipPath20); stroke:none;"
         clip-path="url(#clipPath20)"
         id="path204" />
      <path
         d="M214.2631 208.4537 L274.2631 208.4537 L274.2631 228.4537 L214.2631 228.4537 L214.2631 208.4537 Z"
         style="fill:none; clip-path:url(#clipPath20); stroke:black;"
         clip-path="url(#clipPath20)"
         id="path206" />
      <text
         x="233"
         y="222"
         style="font-size:10; clip-path:url(#clipPath20); fill:black; stroke:none;"
         xml:space="preserve"
         clip-path="url(#clipPath20)"
         id="text208">GLI3</text>
    </g>
    <g
       style="fill:white; text-rendering:geometricPrecision; stroke:white;"
       id="g218">
      <path
         d="M122.4531 292.809 L182.4531 292.809 L182.4531 312.809 L122.4531 312.809 L122.4531 292.809 Z"
         style="clip-path:url(#clipPath21); stroke:none;"
         clip-path="url(#clipPath21)"
         id="path212" />
      <path
         d="M122.4531 292.809 L182.4531 292.809 L182.4531 312.809 L122.4531 312.809 L122.4531 292.809 Z"
         style="fill:none; clip-path:url(#clipPath21); stroke:black;"
         clip-path="url(#clipPath21)"
         id="path214" />
      <text
         x="134"
         y="306"
         style="font-size:10; clip-path:url(#clipPath21); fill:black; stroke:none;"
         xml:space="preserve"
         clip-path="url(#clipPath21)"
         id="text216">NKX2-1</text>
    </g>
    <g
       style="fill:white; text-rendering:geometricPrecision; stroke:white;"
       id="g226">
      <path
         d="M303.9264 208.4537 L363.9264 208.4537 L363.9264 228.4537 L303.9264 228.4537 L303.9264 208.4537 Z"
         style="clip-path:url(#clipPath22); stroke:none;"
         clip-path="url(#clipPath22)"
         id="path220" />
      <path
         d="M303.9264 208.4537 L363.9264 208.4537 L363.9264 228.4537 L303.9264 228.4537 L303.9264 208.4537 Z"
         style="fill:none; clip-path:url(#clipPath22); stroke:black;"
         clip-path="url(#clipPath22)"
         id="path222" />
      <text
         x="321"
         y="222"
         style="font-size:10; clip-path:url(#clipPath22); fill:black; stroke:none;"
         xml:space="preserve"
         clip-path="url(#clipPath22)"
         id="text224">FGF8</text>
    </g>
    <g
       style="fill:white; text-rendering:geometricPrecision; stroke:white;"
       id="g234">
      <path
         d="M303.9264 283.9012 L363.9264 283.9012 L363.9264 303.9012 L303.9264 303.9012 L303.9264 283.9012 Z"
         style="clip-path:url(#clipPath23); stroke:none;"
         clip-path="url(#clipPath23)"
         id="path228" />
      <path
         d="M303.9264 283.9012 L363.9264 283.9012 L363.9264 303.9012 L303.9264 303.9012 L303.9264 283.9012 Z"
         style="fill:none; clip-path:url(#clipPath23); stroke:black;"
         clip-path="url(#clipPath23)"
         id="path230" />
      <text
         x="316"
         y="297"
         style="font-size:10; clip-path:url(#clipPath23); fill:black; stroke:none;"
         xml:space="preserve"
         clip-path="url(#clipPath23)"
         id="text232">FOXG1</text>
    </g>
    <g
       style="fill:white; text-rendering:geometricPrecision; stroke:white;"
       id="g242">
      <path
         d="M152.9525 146.9012 L212.9525 146.9012 L212.9525 166.9012 L152.9525 166.9012 L152.9525 146.9012 Z"
         style="clip-path:url(#clipPath24); stroke:none;"
         clip-path="url(#clipPath24)"
         id="path236" />
      <path
         d="M152.9525 146.9012 L212.9525 146.9012 L212.9525 166.9012 L152.9525 166.9012 L152.9525 146.9012 Z"
         style="fill:none; clip-path:url(#clipPath24); stroke:black;"
         clip-path="url(#clipPath24)"
         id="path238" />
      <text
         x="165"
         y="160"
         style="font-size:10; clip-path:url(#clipPath24); fill:black; stroke:none;"
         xml:space="preserve"
         clip-path="url(#clipPath24)"
         id="text240">SMAD2</text>
    </g>
  </g>
</svg>
