<?xml version="1.0" encoding="UTF-8" standalone="no"?>
<svg
   style="fill-opacity:1; color-rendering:auto; color-interpolation:auto; stroke:black; text-rendering:auto; stroke-linecap:square; stroke-miterlimit:10; stroke-opacity:1; shape-rendering:auto; fill:black; stroke-dasharray:none; font-weight:normal; stroke-width:1; font-family:'Dialog'; font-style:normal; stroke-linejoin:miter; font-size:12; stroke-dashoffset:0; image-rendering:auto;"
   width="843"
   height="536"
   version="1.1"
   id="svg585"
   xmlns="http://www.w3.org/2000/svg"
   xmlns:svg="http://www.w3.org/2000/svg">
  <!--Generated by the Batik Graphics2D SVG Generator-->
  <defs
     id="genericDefs" />
  <g
     id="g583">
    <defs
       id="defs1">
      <clipPath
         clipPathUnits="userSpaceOnUse"
         id="clipPath1">
        <path
           d="M0 0 L859 0 L859 552 L0 552 L0 0 Z"
           id="path3" />
      </clipPath>
      <clipPath
         clipPathUnits="userSpaceOnUse"
         id="clipPath2">
        <path
           d="M0 0 L0 200 L200 200 L200 0 Z"
           id="path6" />
      </clipPath>
      <clipPath
         clipPathUnits="userSpaceOnUse"
         id="clipPath3">
        <path
           d="M173 22.5 L173 43.5 L184 43.5 L184 22.5 Z"
           id="path9" />
      </clipPath>
      <clipPath
         clipPathUnits="userSpaceOnUse"
         id="clipPath4">
        <path
           d="M172.4551 10.418 L183.5449 10.418 L183.5449 25.7305 L172.4551 25.7305 L172.4551 10.418 Z"
           id="path12" />
      </clipPath>
      <clipPath
         clipPathUnits="userSpaceOnUse"
         id="clipPath5">
        <path
           d="M357.849 391.0481 L357.849 402.4481 L403.8402 402.4481 L403.8402 391.0481 Z"
           id="path15" />
      </clipPath>
      <clipPath
         clipPathUnits="userSpaceOnUse"
         id="clipPath6">
        <path
           d="M478.8093 55.8133 L478.8093 123.4588 L525.8371 123.4588 L525.8371 55.8133 Z"
           id="path18" />
      </clipPath>
      <clipPath
         clipPathUnits="userSpaceOnUse"
         id="clipPath7">
        <path
           d="M407.748 237.4282 L407.748 249.367 L553.4791 249.367 L553.4791 237.4282 Z"
           id="path21" />
      </clipPath>
      <clipPath
         clipPathUnits="userSpaceOnUse"
         id="clipPath8">
        <path
           d="M489.6569 242.4975 L489.6569 271.08 L501.0569 271.08 L501.0569 242.4975 Z"
           id="path24" />
      </clipPath>
      <clipPath
         clipPathUnits="userSpaceOnUse"
         id="clipPath9">
        <path
           d="M426.7721 68.3388 L426.7721 123.4701 L480.212 123.4701 L480.212 68.3388 Z"
           id="path27" />
      </clipPath>
      <clipPath
         clipPathUnits="userSpaceOnUse"
         id="clipPath10">
        <path
           d="M352.7798 252.8976 L352.7798 336.7078 L364.7185 336.7078 L364.7185 252.8976 Z"
           id="path30" />
      </clipPath>
      <clipPath
         clipPathUnits="userSpaceOnUse"
         id="clipPath11">
        <path
           d="M629.0096 131.9767 L629.0096 233.6287 L640.9485 233.6287 L640.9485 131.9767 Z"
           id="path33" />
      </clipPath>
      <clipPath
         clipPathUnits="userSpaceOnUse"
         id="clipPath12">
        <path
           d="M578.4275 174.7859 L578.4275 186.1859 L635.8791 186.1859 L635.8791 174.7859 Z"
           id="path36" />
      </clipPath>
      <clipPath
         clipPathUnits="userSpaceOnUse"
         id="clipPath13">
        <path
           d="M235.165 462.5901 L235.165 474.5289 L319.9802 474.5289 L319.9802 462.5901 Z"
           id="path39" />
      </clipPath>
      <clipPath
         clipPathUnits="userSpaceOnUse"
         id="clipPath14">
        <path
           d="M441.9664 320.7948 L441.9664 346.3767 L453.3664 346.3767 L453.3664 320.7948 Z"
           id="path42" />
      </clipPath>
      <clipPath
         clipPathUnits="userSpaceOnUse"
         id="clipPath15">
        <path
           d="M198.4791 339.5073 L198.4791 351.4461 L319.9802 351.4461 L319.9802 339.5073 Z"
           id="path45" />
      </clipPath>
      <clipPath
         clipPathUnits="userSpaceOnUse"
         id="clipPath16">
        <path
           d="M252.7475 118.8007 L252.7475 243.9639 L309.4073 243.9639 L309.4073 118.8007 Z"
           id="path48" />
      </clipPath>
      <clipPath
         clipPathUnits="userSpaceOnUse"
         id="clipPath17">
        <path
           d="M199.3259 187.0081 L199.3259 243.899 L249.7092 243.899 L249.7092 187.0081 Z"
           id="path51" />
      </clipPath>
      <clipPath
         clipPathUnits="userSpaceOnUse"
         id="clipPath18">
        <path
           d="M634.3201 160.8177 L634.3201 181.1369 L678.8482 181.1369 L678.8482 160.8177 Z"
           id="path54" />
      </clipPath>
      <clipPath
         clipPathUnits="userSpaceOnUse"
         id="clipPath19">
        <path
           d="M263.0697 467.6577 L263.0697 502.9572 L274.4698 502.9572 L274.4698 467.6577 Z"
           id="path57" />
      </clipPath>
      <clipPath
         clipPathUnits="userSpaceOnUse"
         id="clipPath20">
        <path
           d="M316.628 280.543 L316.628 291.943 L359.6492 291.943 L359.6492 280.543 Z"
           id="path60" />
      </clipPath>
      <clipPath
         clipPathUnits="userSpaceOnUse"
         id="clipPath21">
        <path
           d="M398.2491 339.5073 L398.2491 351.4461 L522.2137 351.4461 L522.2137 339.5073 Z"
           id="path63" />
      </clipPath>
      <clipPath
         clipPathUnits="userSpaceOnUse"
         id="clipPath22">
        <path
           d="M478.7979 76.2781 L478.7979 123.4702 L526.3917 123.4702 L526.3917 76.2781 Z"
           id="path66" />
      </clipPath>
      <clipPath
         clipPathUnits="userSpaceOnUse"
         id="clipPath23">
        <path
           d="M248.2905 181.8374 L248.2905 193.2374 L337.6976 193.2374 L337.6976 181.8374 Z"
           id="path69" />
      </clipPath>
      <clipPath
         clipPathUnits="userSpaceOnUse"
         id="clipPath24">
        <path
           d="M241.2166 344.5766 L241.2166 373.7945 L252.6166 373.7945 L252.6166 344.5766 Z"
           id="path72" />
      </clipPath>
      <clipPath
         clipPathUnits="userSpaceOnUse"
         id="clipPath25">
        <path
           d="M205.3236 120.329 L205.3236 188.1269 L249.7907 188.1269 L249.7907 120.329 Z"
           id="path75" />
      </clipPath>
      <clipPath
         clipPathUnits="userSpaceOnUse"
         id="clipPath26">
        <path
           d="M473.865 121.8627 L473.865 166.4249 L485.265 166.4249 L485.265 121.8627 Z"
           id="path78" />
      </clipPath>
      <clipPath
         clipPathUnits="userSpaceOnUse"
         id="clipPath27">
        <path
           d="M634.2961 179.7949 L634.2961 207.3839 L681.5939 207.3839 L681.5939 179.7949 Z"
           id="path81" />
      </clipPath>
      <clipPath
         clipPathUnits="userSpaceOnUse"
         id="clipPath28">
        <path
           d="M430.687 116.5556 L430.687 128.4942 L553.2101 128.4942 L553.2101 116.5556 Z"
           id="path84" />
      </clipPath>
      <clipPath
         clipPathUnits="userSpaceOnUse"
         id="clipPath29">
        <path
           d="M352.7798 354.9767 L352.7798 459.7906 L364.7185 459.7906 L364.7185 354.9767 Z"
           id="path87" />
      </clipPath>
      <clipPath
         clipPathUnits="userSpaceOnUse"
         id="clipPath30">
        <path
           d="M677.6892 150.9767 L677.6892 171.9767 L829.8486 171.9767 L829.8486 150.9767 Z"
           id="path90" />
      </clipPath>
      <clipPath
         clipPathUnits="userSpaceOnUse"
         id="clipPath31">
        <path
           d="M263.09 265.8483 L263.09 286.8483 L309.6294 286.8483 L309.6294 265.8483 Z"
           id="path93" />
      </clipPath>
      <clipPath
         clipPathUnits="userSpaceOnUse"
         id="clipPath32">
        <path
           d="M226.5582 420.7914 L226.5582 441.7914 L267.5582 441.7914 L267.5582 420.7914 Z"
           id="path96" />
      </clipPath>
      <clipPath
         clipPathUnits="userSpaceOnUse"
         id="clipPath33">
        <path
           d="M263.09 285.8483 L263.09 306.8483 L309.6294 306.8483 L309.6294 285.8483 Z"
           id="path99" />
      </clipPath>
      <clipPath
         clipPathUnits="userSpaceOnUse"
         id="clipPath34">
        <path
           d="M226.0582 380.7914 L226.0582 401.7914 L268.0582 401.7914 L268.0582 380.7914 Z"
           id="path102" />
      </clipPath>
      <clipPath
         clipPathUnits="userSpaceOnUse"
         id="clipPath35">
        <path
           d="M155.165 458.0595 L155.165 479.0595 L236.165 479.0595 L236.165 458.0595 Z"
           id="path105" />
      </clipPath>
      <clipPath
         clipPathUnits="userSpaceOnUse"
         id="clipPath36">
        <path
           d="M473.7534 270.0776 L473.7534 291.0776 L516.7534 291.0776 L516.7534 270.0776 Z"
           id="path108" />
      </clipPath>
      <clipPath
         clipPathUnits="userSpaceOnUse"
         id="clipPath37">
        <path
           d="M456.0443 165.4187 L456.0443 186.4187 L504.0443 186.4187 L504.0443 165.4187 Z"
           id="path111" />
      </clipPath>
      <clipPath
         clipPathUnits="userSpaceOnUse"
         id="clipPath38">
        <path
           d="M318.2491 334.9767 L318.2491 355.9767 L399.2491 355.9767 L399.2491 334.9767 Z"
           id="path114" />
      </clipPath>
      <clipPath
         clipPathUnits="userSpaceOnUse"
         id="clipPath39">
        <path
           d="M118.4791 334.9767 L118.4791 355.9767 L199.4791 355.9767 L199.4791 334.9767 Z"
           id="path117" />
      </clipPath>
      <clipPath
         clipPathUnits="userSpaceOnUse"
         id="clipPath40">
        <path
           d="M84.1575 113.222 L84.1575 134.8825 L209.6575 134.8825 L209.6575 113.222 Z"
           id="path120" />
      </clipPath>
      <clipPath
         clipPathUnits="userSpaceOnUse"
         id="clipPath41">
        <path
           d="M386.9791 48.5458 L386.9791 69.5458 L467.9791 69.5458 L467.9791 48.5458 Z"
           id="path123" />
      </clipPath>
      <clipPath
         clipPathUnits="userSpaceOnUse"
         id="clipPath42">
        <path
           d="M119.3273 232.8976 L119.3273 253.8976 L200.3273 253.8976 L200.3273 232.8976 Z"
           id="path126" />
      </clipPath>
      <clipPath
         clipPathUnits="userSpaceOnUse"
         id="clipPath43">
        <path
           d="M226.1832 400.7914 L226.1832 421.7914 L267.9332 421.7914 L267.9332 400.7914 Z"
           id="path129" />
      </clipPath>
      <clipPath
         clipPathUnits="userSpaceOnUse"
         id="clipPath44">
        <path
           d="M318.2491 458.0595 L318.2491 479.0595 L399.2491 479.0595 L399.2491 458.0595 Z"
           id="path132" />
      </clipPath>
      <clipPath
         clipPathUnits="userSpaceOnUse"
         id="clipPath45">
        <path
           d="M307.6889 112.4541 L307.6889 133.4541 L431.6889 133.4541 L431.6889 112.4541 Z"
           id="path135" />
      </clipPath>
      <clipPath
         clipPathUnits="userSpaceOnUse"
         id="clipPath46">
        <path
           d="M308.0192 232.8976 L308.0192 253.8976 L409.4791 253.8976 L409.4791 232.8976 Z"
           id="path138" />
      </clipPath>
      <clipPath
         clipPathUnits="userSpaceOnUse"
         id="clipPath47">
        <path
           d="M677.6892 194.9187 L677.6892 215.9187 L829.8486 215.9187 L829.8486 194.9187 Z"
           id="path141" />
      </clipPath>
      <clipPath
         clipPathUnits="userSpaceOnUse"
         id="clipPath48">
        <path
           d="M424.7627 300.7972 L424.7627 321.7972 L470.7627 321.7972 L470.7627 300.7972 Z"
           id="path144" />
      </clipPath>
      <clipPath
         clipPathUnits="userSpaceOnUse"
         id="clipPath49">
        <path
           d="M530.4283 170.0709 L530.4283 191.0709 L579.4283 191.0709 L579.4283 170.0709 Z"
           id="path147" />
      </clipPath>
      <clipPath
         clipPathUnits="userSpaceOnUse"
         id="clipPath50">
        <path
           d="M520.4825 334.9767 L520.4825 355.9767 L601.4825 355.9767 L601.4825 334.9767 Z"
           id="path150" />
      </clipPath>
      <clipPath
         clipPathUnits="userSpaceOnUse"
         id="clipPath51">
        <path
           d="M523.1 48.5458 L523.1 69.5458 L604.1 69.5458 L604.1 48.5458 Z"
           id="path153" />
      </clipPath>
      <clipPath
         clipPathUnits="userSpaceOnUse"
         id="clipPath52">
        <path
           d="M551.4791 111.9767 L551.4791 132.9767 L718.4791 132.9767 L718.4791 111.9767 Z"
           id="path156" />
      </clipPath>
      <clipPath
         clipPathUnits="userSpaceOnUse"
         id="clipPath53">
        <path
           d="M402.8363 386.5651 L402.8363 407.5651 L446.8363 407.5651 L446.8363 386.5651 Z"
           id="path159" />
      </clipPath>
      <clipPath
         clipPathUnits="userSpaceOnUse"
         id="clipPath54">
        <path
           d="M287.6965 177.2231 L287.6965 198.2231 L337.6965 198.2231 L337.6965 177.2231 Z"
           id="path162" />
      </clipPath>
      <clipPath
         clipPathUnits="userSpaceOnUse"
         id="clipPath55">
        <path
           d="M552.4791 231.8976 L552.4791 254.8976 L717.4791 254.8976 L717.4791 231.8976 Z"
           id="path165" />
      </clipPath>
      <clipPath
         clipPathUnits="userSpaceOnUse"
         id="clipPath56">
        <path
           d="M245.9881 501.9439 L245.9881 522.9439 L289.9881 522.9439 L289.9881 501.9439 Z"
           id="path168" />
      </clipPath>
      <clipPath
         clipPathUnits="userSpaceOnUse"
         id="clipPath57">
        <path
           d="M523.1 68.5458 L523.1 89.5458 L604.1 89.5458 L604.1 68.5458 Z"
           id="path171" />
      </clipPath>
    </defs>
    <g
       style="fill:white; stroke:white;"
       id="g177">
      <rect
         x="0"
         width="859"
         height="552"
         y="0"
         style="stroke:none;"
         id="rect175" />
    </g>
    <g
       style="font-weight:bold; font-size:10; text-rendering:geometricPrecision;"
       id="g191">
      <path
         d="M0.0469 6.7031 L6.7656 6.7031 L6.7656 8.125 L4.3438 8.125 L4.3438 14 L2.4688 14 L2.4688 8.125 L0.0469 8.125 L0.0469 6.7031 ZM7.665 8.5312 L9.415 8.5312 L9.415 14 L7.665 14 L7.665 8.5312 ZM7.665 6.4062 L9.415 6.4062 L9.415 7.8281 L7.665 7.8281 L7.665 6.4062 ZM12.999 6.9844 L12.999 8.5312 L14.7959 8.5312 L14.7959 9.7812 L12.999 9.7812 L12.999 12.0938 Q12.999 12.4844 13.1475 12.6172 Q13.2959 12.75 13.749 12.75 L14.6553 12.75 L14.6553 14 L13.1553 14 Q12.1084 14 11.6787 13.5703 Q11.249 13.1406 11.249 12.0938 L11.249 9.7812 L10.374 9.7812 L10.374 8.5312 L11.249 8.5312 L11.249 6.9844 L12.999 6.9844 ZM15.873 6.4062 L17.623 6.4062 L17.623 14 L15.873 14 L15.873 6.4062 ZM24.7539 11.25 L24.7539 11.75 L20.6758 11.75 Q20.7383 12.3594 21.1133 12.6719 Q21.4883 12.9844 22.1758 12.9844 Q22.7227 12.9844 23.3086 12.8203 Q23.8945 12.6562 24.5039 12.3125 L24.5039 13.6719 Q23.8789 13.9062 23.2617 14.0234 Q22.6445 14.1406 22.0195 14.1406 Q20.5352 14.1406 19.7148 13.3828 Q18.8945 12.625 18.8945 11.2656 Q18.8945 9.9375 19.6992 9.1719 Q20.5039 8.4062 21.9258 8.4062 Q23.207 8.4062 23.9805 9.1797 Q24.7539 9.9531 24.7539 11.25 ZM22.957 10.6719 Q22.957 10.1719 22.668 9.8672 Q22.3789 9.5625 21.9102 9.5625 Q21.3945 9.5625 21.082 9.8438 Q20.7695 10.125 20.6914 10.6719 L22.957 10.6719 ZM26.3643 8.5312 L28.1143 8.5312 L28.1143 10.4219 L26.3643 10.4219 L26.3643 8.5312 ZM26.3643 12.1094 L28.1143 12.1094 L28.1143 14 L26.3643 14 L26.3643 12.1094 Z"
         style="clip-path:url(#clipPath2); stroke:none;"
         clip-path="url(#clipPath2)"
         id="path179" />
      <path
         d="M37.9688 6.7031 L44.1406 6.7031 L44.1406 7.5469 L41.5469 7.5469 L41.5469 14 L40.5625 14 L40.5625 7.5469 L37.9688 7.5469 L37.9688 6.7031 ZM48.2178 9.375 Q48.0615 9.2812 47.8896 9.2422 Q47.7178 9.2031 47.499 9.2031 Q46.7334 9.2031 46.3271 9.6953 Q45.9209 10.1875 45.9209 11.125 L45.9209 14 L45.0146 14 L45.0146 8.5312 L45.9209 8.5312 L45.9209 9.375 Q46.2021 8.875 46.6553 8.6406 Q47.1084 8.4062 47.7646 8.4062 Q47.8584 8.4062 47.9678 8.4141 Q48.0771 8.4219 48.2178 8.4531 L48.2178 9.375 ZM51.6416 11.25 Q50.5635 11.25 50.1416 11.5 Q49.7197 11.75 49.7197 12.3438 Q49.7197 12.8281 50.0322 13.1094 Q50.3447 13.3906 50.8916 13.3906 Q51.6416 13.3906 52.0947 12.8594 Q52.5479 12.3281 52.5479 11.4531 L52.5479 11.25 L51.6416 11.25 ZM53.4385 10.875 L53.4385 14 L52.5479 14 L52.5479 13.1719 Q52.2354 13.6719 51.7744 13.9062 Q51.3135 14.1406 50.6572 14.1406 Q49.8135 14.1406 49.3135 13.6719 Q48.8135 13.2031 48.8135 12.4062 Q48.8135 11.4844 49.4385 11.0156 Q50.0635 10.5469 51.2822 10.5469 L52.5479 10.5469 L52.5479 10.4531 Q52.5479 9.8438 52.1338 9.5 Q51.7197 9.1562 50.9854 9.1562 Q50.5166 9.1562 50.0713 9.2734 Q49.626 9.3906 49.2197 9.6094 L49.2197 8.7812 Q49.7197 8.5938 50.1807 8.5 Q50.6416 8.4062 51.0791 8.4062 Q52.2666 8.4062 52.8525 9.0156 Q53.4385 9.625 53.4385 10.875 ZM59.832 10.7031 L59.832 14 L58.9414 14 L58.9414 10.7344 Q58.9414 9.9531 58.6367 9.5703 Q58.332 9.1875 57.7227 9.1875 Q57.0039 9.1875 56.582 9.6484 Q56.1602 10.1094 56.1602 10.9062 L56.1602 14 L55.2539 14 L55.2539 8.5312 L56.1602 8.5312 L56.1602 9.375 Q56.4883 8.8906 56.9258 8.6484 Q57.3633 8.4062 57.9258 8.4062 Q58.8633 8.4062 59.3477 8.9844 Q59.832 9.5625 59.832 10.7031 ZM65.1074 8.6875 L65.1074 9.5469 Q64.7324 9.3438 64.3262 9.25 Q63.9199 9.1562 63.4668 9.1562 Q62.8105 9.1562 62.4746 9.3594 Q62.1387 9.5625 62.1387 9.9688 Q62.1387 10.2812 62.373 10.4609 Q62.6074 10.6406 63.3418 10.7969 L63.6387 10.875 Q64.6074 11.0781 65.0059 11.4531 Q65.4043 11.8281 65.4043 12.4844 Q65.4043 13.25 64.8027 13.6953 Q64.2012 14.1406 63.1543 14.1406 Q62.7012 14.1406 62.2246 14.0547 Q61.748 13.9688 61.2324 13.7969 L61.2324 12.875 Q61.7324 13.125 62.209 13.2578 Q62.6855 13.3906 63.1699 13.3906 Q63.7949 13.3906 64.1387 13.1719 Q64.4824 12.9531 64.4824 12.5625 Q64.4824 12.1875 64.2402 11.9922 Q63.998 11.7969 63.1543 11.625 L62.8418 11.5469 Q62.0137 11.375 61.6387 11.0078 Q61.2637 10.6406 61.2637 10.0156 Q61.2637 9.2344 61.8105 8.8203 Q62.3574 8.4062 63.373 8.4062 Q63.8574 8.4062 64.3027 8.4766 Q64.748 8.5469 65.1074 8.6875 ZM66.3799 10.8594 L69.0205 10.8594 L69.0205 11.6562 L66.3799 11.6562 L66.3799 10.8594 ZM73.9258 8.6875 L73.9258 9.5469 Q73.5508 9.3438 73.1445 9.25 Q72.7383 9.1562 72.2852 9.1562 Q71.6289 9.1562 71.293 9.3594 Q70.957 9.5625 70.957 9.9688 Q70.957 10.2812 71.1914 10.4609 Q71.4258 10.6406 72.1602 10.7969 L72.457 10.875 Q73.4258 11.0781 73.8242 11.4531 Q74.2227 11.8281 74.2227 12.4844 Q74.2227 13.25 73.6211 13.6953 Q73.0195 14.1406 71.9727 14.1406 Q71.5195 14.1406 71.043 14.0547 Q70.5664 13.9688 70.0508 13.7969 L70.0508 12.875 Q70.5508 13.125 71.0273 13.2578 Q71.5039 13.3906 71.9883 13.3906 Q72.6133 13.3906 72.957 13.1719 Q73.3008 12.9531 73.3008 12.5625 Q73.3008 12.1875 73.0586 11.9922 Q72.8164 11.7969 71.9727 11.625 L71.6602 11.5469 Q70.832 11.375 70.457 11.0078 Q70.082 10.6406 70.082 10.0156 Q70.082 9.2344 70.6289 8.8203 Q71.1758 8.4062 72.1914 8.4062 Q72.6758 8.4062 73.1211 8.4766 Q73.5664 8.5469 73.9258 8.6875 ZM75.5576 11.8438 L75.5576 8.5312 L76.4639 8.5312 L76.4639 11.8125 Q76.4639 12.5781 76.7686 12.9688 Q77.0732 13.3594 77.667 13.3594 Q78.4014 13.3594 78.8232 12.8984 Q79.2451 12.4375 79.2451 11.625 L79.2451 8.5312 L80.1514 8.5312 L80.1514 14 L79.2451 14 L79.2451 13.1562 Q78.917 13.6562 78.4873 13.8984 Q78.0576 14.1406 77.4795 14.1406 Q76.542 14.1406 76.0498 13.5547 Q75.5576 12.9688 75.5576 11.8438 ZM77.8232 8.4062 L77.8232 8.4062 ZM81.9893 6.4062 L82.8955 6.4062 L82.8955 14 L81.9893 14 L81.9893 6.4062 ZM87.5488 6.4062 L87.5488 7.1562 L86.6895 7.1562 Q86.2051 7.1562 86.0176 7.3516 Q85.8301 7.5469 85.8301 8.0469 L85.8301 8.5312 L87.2988 8.5312 L87.2988 9.2344 L85.8301 9.2344 L85.8301 14 L84.9238 14 L84.9238 9.2344 L84.0645 9.2344 L84.0645 8.5312 L84.9238 8.5312 L84.9238 8.1562 Q84.9238 7.2344 85.3457 6.8203 Q85.7676 6.4062 86.6895 6.4062 L87.5488 6.4062 ZM88.1943 11.8438 L88.1943 8.5312 L89.1006 8.5312 L89.1006 11.8125 Q89.1006 12.5781 89.4053 12.9688 Q89.71 13.3594 90.3037 13.3594 Q91.0381 13.3594 91.46 12.8984 Q91.8818 12.4375 91.8818 11.625 L91.8818 8.5312 L92.7881 8.5312 L92.7881 14 L91.8818 14 L91.8818 13.1562 Q91.5537 13.6562 91.124 13.8984 Q90.6943 14.1406 90.1162 14.1406 Q89.1787 14.1406 88.6865 13.5547 Q88.1943 12.9688 88.1943 11.8438 ZM90.46 8.4062 L90.46 8.4062 ZM97.7979 9.375 Q97.6416 9.2812 97.4697 9.2422 Q97.2979 9.2031 97.0791 9.2031 Q96.3135 9.2031 95.9072 9.6953 Q95.501 10.1875 95.501 11.125 L95.501 14 L94.5947 14 L94.5947 8.5312 L95.501 8.5312 L95.501 9.375 Q95.7822 8.875 96.2354 8.6406 Q96.6885 8.4062 97.3447 8.4062 Q97.4385 8.4062 97.5479 8.4141 Q97.6572 8.4219 97.7979 8.4531 L97.7979 9.375 ZM101.2217 11.25 Q100.1436 11.25 99.7217 11.5 Q99.2998 11.75 99.2998 12.3438 Q99.2998 12.8281 99.6123 13.1094 Q99.9248 13.3906 100.4717 13.3906 Q101.2217 13.3906 101.6748 12.8594 Q102.1279 12.3281 102.1279 11.4531 L102.1279 11.25 L101.2217 11.25 ZM103.0186 10.875 L103.0186 14 L102.1279 14 L102.1279 13.1719 Q101.8154 13.6719 101.3545 13.9062 Q100.8936 14.1406 100.2373 14.1406 Q99.3936 14.1406 98.8936 13.6719 Q98.3936 13.2031 98.3936 12.4062 Q98.3936 11.4844 99.0186 11.0156 Q99.6436 10.5469 100.8623 10.5469 L102.1279 10.5469 L102.1279 10.4531 Q102.1279 9.8438 101.7139 9.5 Q101.2998 9.1562 100.5654 9.1562 Q100.0967 9.1562 99.6514 9.2734 Q99.2061 9.3906 98.7998 9.6094 L98.7998 8.7812 Q99.2998 8.5938 99.7607 8.5 Q100.2217 8.4062 100.6592 8.4062 Q101.8467 8.4062 102.4326 9.0156 Q103.0186 9.625 103.0186 10.875 ZM105.7559 6.9844 L105.7559 8.5312 L107.6152 8.5312 L107.6152 9.2344 L105.7559 9.2344 L105.7559 12.2031 Q105.7559 12.8594 105.9434 13.0547 Q106.1309 13.25 106.6934 13.25 L107.6152 13.25 L107.6152 14 L106.6934 14 Q105.6465 14 105.248 13.6094 Q104.8496 13.2188 104.8496 12.2031 L104.8496 9.2344 L104.1934 9.2344 L104.1934 8.5312 L104.8496 8.5312 L104.8496 6.9844 L105.7559 6.9844 ZM108.7861 8.5312 L109.6924 8.5312 L109.6924 14 L108.7861 14 L108.7861 8.5312 ZM108.7861 6.4062 L109.6924 6.4062 L109.6924 7.5469 L108.7861 7.5469 L108.7861 6.4062 ZM113.6895 9.1562 Q112.9707 9.1562 112.5488 9.7188 Q112.127 10.2812 112.127 11.2656 Q112.127 12.25 112.541 12.8125 Q112.9551 13.375 113.6895 13.375 Q114.4082 13.375 114.8301 12.8125 Q115.252 12.25 115.252 11.2656 Q115.252 10.2969 114.8301 9.7266 Q114.4082 9.1562 113.6895 9.1562 ZM113.6895 8.4062 Q114.8613 8.4062 115.5332 9.1641 Q116.2051 9.9219 116.2051 11.2656 Q116.2051 12.6094 115.5332 13.375 Q114.8613 14.1406 113.6895 14.1406 Q112.5176 14.1406 111.8457 13.375 Q111.1738 12.6094 111.1738 11.2656 Q111.1738 9.9219 111.8457 9.1641 Q112.5176 8.4062 113.6895 8.4062 ZM122.2295 10.7031 L122.2295 14 L121.3389 14 L121.3389 10.7344 Q121.3389 9.9531 121.0342 9.5703 Q120.7295 9.1875 120.1201 9.1875 Q119.4014 9.1875 118.9795 9.6484 Q118.5576 10.1094 118.5576 10.9062 L118.5576 14 L117.6514 14 L117.6514 8.5312 L118.5576 8.5312 L118.5576 9.375 Q118.8857 8.8906 119.3232 8.6484 Q119.7607 8.4062 120.3232 8.4062 Q121.2607 8.4062 121.7451 8.9844 Q122.2295 9.5625 122.2295 10.7031 ZM128.0742 13.1719 L128.0742 16.0781 L127.168 16.0781 L127.168 8.5312 L128.0742 8.5312 L128.0742 9.3594 Q128.3555 8.875 128.7852 8.6406 Q129.2148 8.4062 129.8242 8.4062 Q130.8242 8.4062 131.4414 9.1953 Q132.0586 9.9844 132.0586 11.2656 Q132.0586 12.5625 131.4414 13.3516 Q130.8242 14.1406 129.8242 14.1406 Q129.2148 14.1406 128.7852 13.9062 Q128.3555 13.6719 128.0742 13.1719 ZM131.1367 11.2656 Q131.1367 10.2812 130.7227 9.7188 Q130.3086 9.1562 129.6055 9.1562 Q128.8867 9.1562 128.4805 9.7188 Q128.0742 10.2812 128.0742 11.2656 Q128.0742 12.2656 128.4805 12.8281 Q128.8867 13.3906 129.6055 13.3906 Q130.3086 13.3906 130.7227 12.8281 Q131.1367 12.2656 131.1367 11.2656 ZM136.0312 11.25 Q134.9531 11.25 134.5312 11.5 Q134.1094 11.75 134.1094 12.3438 Q134.1094 12.8281 134.4219 13.1094 Q134.7344 13.3906 135.2812 13.3906 Q136.0312 13.3906 136.4844 12.8594 Q136.9375 12.3281 136.9375 11.4531 L136.9375 11.25 L136.0312 11.25 ZM137.8281 10.875 L137.8281 14 L136.9375 14 L136.9375 13.1719 Q136.625 13.6719 136.1641 13.9062 Q135.7031 14.1406 135.0469 14.1406 Q134.2031 14.1406 133.7031 13.6719 Q133.2031 13.2031 133.2031 12.4062 Q133.2031 11.4844 133.8281 11.0156 Q134.4531 10.5469 135.6719 10.5469 L136.9375 10.5469 L136.9375 10.4531 Q136.9375 9.8438 136.5234 9.5 Q136.1094 9.1562 135.375 9.1562 Q134.9062 9.1562 134.4609 9.2734 Q134.0156 9.3906 133.6094 9.6094 L133.6094 8.7812 Q134.1094 8.5938 134.5703 8.5 Q135.0312 8.4062 135.4688 8.4062 Q136.6562 8.4062 137.2422 9.0156 Q137.8281 9.625 137.8281 10.875 ZM140.5654 6.9844 L140.5654 8.5312 L142.4248 8.5312 L142.4248 9.2344 L140.5654 9.2344 L140.5654 12.2031 Q140.5654 12.8594 140.7529 13.0547 Q140.9404 13.25 141.5029 13.25 L142.4248 13.25 L142.4248 14 L141.5029 14 Q140.4561 14 140.0576 13.6094 Q139.6592 13.2188 139.6592 12.2031 L139.6592 9.2344 L139.0029 9.2344 L139.0029 8.5312 L139.6592 8.5312 L139.6592 6.9844 L140.5654 6.9844 ZM148.1426 10.7031 L148.1426 14 L147.252 14 L147.252 10.7344 Q147.252 9.9531 146.9473 9.5703 Q146.6426 9.1875 146.0332 9.1875 Q145.3145 9.1875 144.8926 9.6484 Q144.4707 10.1094 144.4707 10.9062 L144.4707 14 L143.5645 14 L143.5645 6.4062 L144.4707 6.4062 L144.4707 9.375 Q144.7988 8.8906 145.2363 8.6484 Q145.6738 8.4062 146.2363 8.4062 Q147.1738 8.4062 147.6582 8.9844 Q148.1426 9.5625 148.1426 10.7031 ZM149.418 8.5312 L150.3086 8.5312 L151.4336 12.7969 L152.5586 8.5312 L153.6211 8.5312 L154.7461 12.7969 L155.8555 8.5312 L156.7617 8.5312 L155.3242 14 L154.2617 14 L153.0898 9.5156 L151.9023 14 L150.8398 14 L149.418 8.5312 ZM160.5967 11.25 Q159.5186 11.25 159.0967 11.5 Q158.6748 11.75 158.6748 12.3438 Q158.6748 12.8281 158.9873 13.1094 Q159.2998 13.3906 159.8467 13.3906 Q160.5967 13.3906 161.0498 12.8594 Q161.5029 12.3281 161.5029 11.4531 L161.5029 11.25 L160.5967 11.25 ZM162.3936 10.875 L162.3936 14 L161.5029 14 L161.5029 13.1719 Q161.1904 13.6719 160.7295 13.9062 Q160.2686 14.1406 159.6123 14.1406 Q158.7686 14.1406 158.2686 13.6719 Q157.7686 13.2031 157.7686 12.4062 Q157.7686 11.4844 158.3936 11.0156 Q159.0186 10.5469 160.2373 10.5469 L161.5029 10.5469 L161.5029 10.4531 Q161.5029 9.8438 161.0889 9.5 Q160.6748 9.1562 159.9404 9.1562 Q159.4717 9.1562 159.0264 9.2734 Q158.5811 9.3906 158.1748 9.6094 L158.1748 8.7812 Q158.6748 8.5938 159.1357 8.5 Q159.5967 8.4062 160.0342 8.4062 Q161.2217 8.4062 161.8076 9.0156 Q162.3936 9.625 162.3936 10.875 ZM166.5215 14.5156 Q166.1465 15.4844 165.7793 15.7812 Q165.4121 16.0781 164.8184 16.0781 L164.0996 16.0781 L164.0996 15.3281 L164.6152 15.3281 Q164.9902 15.3281 165.1934 15.1562 Q165.3965 14.9844 165.6465 14.3281 L165.8184 13.9062 L163.5996 8.5312 L164.5527 8.5312 L166.2559 12.8125 L167.9746 8.5312 L168.9277 8.5312 L166.5215 14.5156 Z"
         style="clip-path:url(#clipPath2); stroke:none;"
         clip-path="url(#clipPath2)"
         id="path181" />
      <path
         d="M0.9219 19.7031 L2.7969 19.7031 L2.7969 25.5781 L6.0938 25.5781 L6.0938 27 L0.9219 27 L0.9219 19.7031 ZM9.6689 24.5312 Q9.1221 24.5312 8.8408 24.7188 Q8.5596 24.9062 8.5596 25.2656 Q8.5596 25.6094 8.7861 25.7969 Q9.0127 25.9844 9.4033 25.9844 Q9.9033 25.9844 10.2393 25.625 Q10.5752 25.2656 10.5752 24.7344 L10.5752 24.5312 L9.6689 24.5312 ZM12.3408 23.875 L12.3408 27 L10.5752 27 L10.5752 26.1875 Q10.2158 26.6875 9.7783 26.9141 Q9.3408 27.1406 8.7158 27.1406 Q7.8564 27.1406 7.333 26.6484 Q6.8096 26.1562 6.8096 25.3594 Q6.8096 24.3906 7.4658 23.9453 Q8.1221 23.5 9.5439 23.5 L10.5752 23.5 L10.5752 23.3594 Q10.5752 22.9531 10.2471 22.7578 Q9.9189 22.5625 9.2314 22.5625 Q8.6689 22.5625 8.1846 22.6719 Q7.7002 22.7812 7.2783 23.0156 L7.2783 21.6719 Q7.8408 21.5469 8.4111 21.4766 Q8.9814 21.4062 9.5439 21.4062 Q11.0283 21.4062 11.6846 21.9844 Q12.3408 22.5625 12.3408 23.875 ZM18.2295 21.7031 L18.2295 23.0312 Q17.667 22.7969 17.1436 22.6797 Q16.6201 22.5625 16.167 22.5625 Q15.667 22.5625 15.4248 22.6875 Q15.1826 22.8125 15.1826 23.0625 Q15.1826 23.2812 15.3623 23.3906 Q15.542 23.5 16.0264 23.5625 L16.3232 23.5938 Q17.667 23.7656 18.1357 24.1562 Q18.6045 24.5469 18.6045 25.3906 Q18.6045 26.2656 17.9561 26.7031 Q17.3076 27.1406 16.0264 27.1406 Q15.4951 27.1406 14.917 27.0547 Q14.3389 26.9688 13.7139 26.7969 L13.7139 25.4688 Q14.2451 25.7188 14.792 25.8516 Q15.3389 25.9844 15.9014 25.9844 Q16.417 25.9844 16.6748 25.8438 Q16.9326 25.7031 16.9326 25.4219 Q16.9326 25.1875 16.7607 25.0703 Q16.5889 24.9531 16.0576 24.8906 L15.7451 24.8438 Q14.5732 24.7031 14.1045 24.3047 Q13.6357 23.9062 13.6357 23.1094 Q13.6357 22.2344 14.2295 21.8203 Q14.8232 21.4062 16.0576 21.4062 Q16.542 21.4062 17.0732 21.4766 Q17.6045 21.5469 18.2295 21.7031 ZM21.8223 19.9844 L21.8223 21.5312 L23.6191 21.5312 L23.6191 22.7812 L21.8223 22.7812 L21.8223 25.0938 Q21.8223 25.4844 21.9707 25.6172 Q22.1191 25.75 22.5723 25.75 L23.4785 25.75 L23.4785 27 L21.9785 27 Q20.9316 27 20.502 26.5703 Q20.0723 26.1406 20.0723 25.0938 L20.0723 22.7812 L19.1973 22.7812 L19.1973 21.5312 L20.0723 21.5312 L20.0723 19.9844 L21.8223 19.9844 ZM33.2402 22.4375 Q33.5684 21.9375 34.0293 21.6719 Q34.4902 21.4062 35.0371 21.4062 Q35.9746 21.4062 36.4668 21.9844 Q36.959 22.5625 36.959 23.6719 L36.959 27 L35.209 27 L35.209 24.1406 Q35.209 24.0781 35.209 24.0156 Q35.209 23.9531 35.209 23.8281 Q35.209 23.2344 35.0449 22.9766 Q34.8809 22.7188 34.4902 22.7188 Q33.9902 22.7188 33.7246 23.125 Q33.459 23.5312 33.4434 24.3125 L33.4434 27 L31.6777 27 L31.6777 24.1406 Q31.6777 23.2344 31.5215 22.9766 Q31.3652 22.7188 30.9746 22.7188 Q30.4746 22.7188 30.2012 23.1328 Q29.9277 23.5469 29.9277 24.3125 L29.9277 27 L28.1621 27 L28.1621 21.5312 L29.9277 21.5312 L29.9277 22.3281 Q30.2402 21.875 30.6621 21.6406 Q31.084 21.4062 31.584 21.4062 Q32.1465 21.4062 32.584 21.6797 Q33.0215 21.9531 33.2402 22.4375 ZM41.1914 22.6562 Q40.6133 22.6562 40.3086 23.0703 Q40.0039 23.4844 40.0039 24.2656 Q40.0039 25.0625 40.3086 25.4766 Q40.6133 25.8906 41.1914 25.8906 Q41.7695 25.8906 42.0742 25.4766 Q42.3789 25.0625 42.3789 24.2656 Q42.3789 23.4844 42.0742 23.0703 Q41.7695 22.6562 41.1914 22.6562 ZM41.1914 21.4062 Q42.6133 21.4062 43.4023 22.1641 Q44.1914 22.9219 44.1914 24.2656 Q44.1914 25.625 43.4023 26.3828 Q42.6133 27.1406 41.1914 27.1406 Q39.7852 27.1406 38.9883 26.3828 Q38.1914 25.625 38.1914 24.2656 Q38.1914 22.9219 38.9883 22.1641 Q39.7852 21.4062 41.1914 21.4062 ZM49.1865 22.3281 L49.1865 19.4062 L50.9365 19.4062 L50.9365 27 L49.1865 27 L49.1865 26.2031 Q48.8271 26.6875 48.3896 26.9141 Q47.9521 27.1406 47.3896 27.1406 Q46.374 27.1406 45.7256 26.3359 Q45.0771 25.5312 45.0771 24.2656 Q45.0771 23 45.7256 22.2031 Q46.374 21.4062 47.3896 21.4062 Q47.9521 21.4062 48.3896 21.6328 Q48.8271 21.8594 49.1865 22.3281 ZM48.0303 25.875 Q48.5928 25.875 48.8896 25.4609 Q49.1865 25.0469 49.1865 24.2656 Q49.1865 23.4844 48.8896 23.0781 Q48.5928 22.6719 48.0303 22.6719 Q47.4834 22.6719 47.1865 23.0781 Q46.8896 23.4844 46.8896 24.2656 Q46.8896 25.0469 47.1865 25.4609 Q47.4834 25.875 48.0303 25.875 ZM52.626 21.5312 L54.376 21.5312 L54.376 27 L52.626 27 L52.626 21.5312 ZM52.626 19.4062 L54.376 19.4062 L54.376 20.8281 L52.626 20.8281 L52.626 19.4062 ZM59.6475 19.4062 L59.6475 20.5469 L58.6787 20.5469 Q58.3037 20.5469 58.1631 20.6797 Q58.0225 20.8125 58.0225 21.1562 L58.0225 21.5312 L59.5068 21.5312 L59.5068 22.7812 L58.0225 22.7812 L58.0225 27 L56.2725 27 L56.2725 22.7812 L55.3975 22.7812 L55.3975 21.5312 L56.2725 21.5312 L56.2725 21.1562 Q56.2725 20.25 56.7725 19.8281 Q57.2725 19.4062 58.3037 19.4062 L59.6475 19.4062 ZM60.4043 21.5312 L62.1543 21.5312 L62.1543 27 L60.4043 27 L60.4043 21.5312 ZM60.4043 19.4062 L62.1543 19.4062 L62.1543 20.8281 L60.4043 20.8281 L60.4043 19.4062 ZM69.2852 24.25 L69.2852 24.75 L65.207 24.75 Q65.2695 25.3594 65.6445 25.6719 Q66.0195 25.9844 66.707 25.9844 Q67.2539 25.9844 67.8398 25.8203 Q68.4258 25.6562 69.0352 25.3125 L69.0352 26.6719 Q68.4102 26.9062 67.793 27.0234 Q67.1758 27.1406 66.5508 27.1406 Q65.0664 27.1406 64.2461 26.3828 Q63.4258 25.625 63.4258 24.2656 Q63.4258 22.9375 64.2305 22.1719 Q65.0352 21.4062 66.457 21.4062 Q67.7383 21.4062 68.5117 22.1797 Q69.2852 22.9531 69.2852 24.25 ZM67.4883 23.6719 Q67.4883 23.1719 67.1992 22.8672 Q66.9102 22.5625 66.4414 22.5625 Q65.9258 22.5625 65.6133 22.8438 Q65.3008 23.125 65.2227 23.6719 L67.4883 23.6719 ZM74.333 22.3281 L74.333 19.4062 L76.083 19.4062 L76.083 27 L74.333 27 L74.333 26.2031 Q73.9736 26.6875 73.5361 26.9141 Q73.0986 27.1406 72.5361 27.1406 Q71.5205 27.1406 70.8721 26.3359 Q70.2236 25.5312 70.2236 24.2656 Q70.2236 23 70.8721 22.2031 Q71.5205 21.4062 72.5361 21.4062 Q73.0986 21.4062 73.5361 21.6328 Q73.9736 21.8594 74.333 22.3281 ZM73.1768 25.875 Q73.7393 25.875 74.0361 25.4609 Q74.333 25.0469 74.333 24.2656 Q74.333 23.4844 74.0361 23.0781 Q73.7393 22.6719 73.1768 22.6719 Q72.6299 22.6719 72.333 23.0781 Q72.0361 23.4844 72.0361 24.2656 Q72.0361 25.0469 72.333 25.4609 Q72.6299 25.875 73.1768 25.875 ZM78.0537 21.5312 L79.8037 21.5312 L79.8037 23.4219 L78.0537 23.4219 L78.0537 21.5312 ZM78.0537 25.1094 L79.8037 25.1094 L79.8037 27 L78.0537 27 L78.0537 25.1094 Z"
         style="clip-path:url(#clipPath2); stroke:none;"
         clip-path="url(#clipPath2)"
         id="path183" />
      <path
         d="M89.2344 26.1719 L90.8594 26.1719 L90.8594 20.6094 L89.0938 20.9531 L89.0938 20.0625 L90.8438 19.7031 L91.8281 19.7031 L91.8281 26.1719 L93.4375 26.1719 L93.4375 27 L89.2344 27 L89.2344 26.1719 ZM97.5342 20.3594 Q96.7842 20.3594 96.4014 21.1094 Q96.0186 21.8594 96.0186 23.3594 Q96.0186 24.8594 96.4014 25.6094 Q96.7842 26.3594 97.5342 26.3594 Q98.3154 26.3594 98.6982 25.6094 Q99.0811 24.8594 99.0811 23.3594 Q99.0811 21.8594 98.6982 21.1094 Q98.3154 20.3594 97.5342 20.3594 ZM97.5342 19.5781 Q98.7686 19.5781 99.417 20.5469 Q100.0654 21.5156 100.0654 23.3594 Q100.0654 25.2031 99.417 26.1719 Q98.7686 27.1406 97.5342 27.1406 Q96.3154 27.1406 95.667 26.1719 Q95.0186 25.2031 95.0186 23.3594 Q95.0186 21.5156 95.667 20.5469 Q96.3154 19.5781 97.5342 19.5781 ZM103.2715 19.7031 L104.0996 19.7031 L101.5527 27.9219 L100.7246 27.9219 L103.2715 19.7031 ZM105.3281 26.1719 L106.9531 26.1719 L106.9531 20.6094 L105.1875 20.9531 L105.1875 20.0625 L106.9375 19.7031 L107.9219 19.7031 L107.9219 26.1719 L109.5312 26.1719 L109.5312 27 L105.3281 27 L105.3281 26.1719 ZM113.7529 22.9688 Q113.0967 22.9688 112.7061 23.4219 Q112.3154 23.875 112.3154 24.6562 Q112.3154 25.4531 112.7061 25.9062 Q113.0967 26.3594 113.7529 26.3594 Q114.4248 26.3594 114.8076 25.9062 Q115.1904 25.4531 115.1904 24.6562 Q115.1904 23.875 114.8076 23.4219 Q114.4248 22.9688 113.7529 22.9688 ZM115.7217 19.875 L115.7217 20.7656 Q115.3467 20.5938 114.9639 20.5 Q114.5811 20.4062 114.2217 20.4062 Q113.2373 20.4062 112.7217 21.0625 Q112.2061 21.7188 112.1436 23.0625 Q112.4248 22.6406 112.8623 22.4141 Q113.2998 22.1875 113.8154 22.1875 Q114.9092 22.1875 115.5498 22.8516 Q116.1904 23.5156 116.1904 24.6562 Q116.1904 25.7812 115.5264 26.4609 Q114.8623 27.1406 113.7529 27.1406 Q112.4873 27.1406 111.8232 26.1719 Q111.1592 25.2031 111.1592 23.3594 Q111.1592 21.6406 111.9795 20.6094 Q112.7998 19.5781 114.1748 19.5781 Q114.5498 19.5781 114.9248 19.6484 Q115.2998 19.7188 115.7217 19.875 ZM119.3652 19.7031 L120.1934 19.7031 L117.6465 27.9219 L116.8184 27.9219 L119.3652 19.7031 ZM122.1094 26.1719 L125.5469 26.1719 L125.5469 27 L120.9219 27 L120.9219 26.1719 Q121.4844 25.5938 122.4531 24.6094 Q123.4219 23.625 123.6719 23.3438 Q124.1406 22.8125 124.3281 22.4453 Q124.5156 22.0781 124.5156 21.7188 Q124.5156 21.1406 124.1094 20.7734 Q123.7031 20.4062 123.0469 20.4062 Q122.5781 20.4062 122.0703 20.5703 Q121.5625 20.7344 120.9688 21.0625 L120.9688 20.0625 Q121.5625 19.8281 122.0781 19.7031 Q122.5938 19.5781 123.0312 19.5781 Q124.1562 19.5781 124.8359 20.1406 Q125.5156 20.7031 125.5156 21.6562 Q125.5156 22.1094 125.3438 22.5078 Q125.1719 22.9062 124.7344 23.4531 Q124.6094 23.5938 123.9531 24.2734 Q123.2969 24.9531 122.1094 26.1719 ZM129.7217 20.3594 Q128.9717 20.3594 128.5889 21.1094 Q128.2061 21.8594 128.2061 23.3594 Q128.2061 24.8594 128.5889 25.6094 Q128.9717 26.3594 129.7217 26.3594 Q130.5029 26.3594 130.8857 25.6094 Q131.2686 24.8594 131.2686 23.3594 Q131.2686 21.8594 130.8857 21.1094 Q130.5029 20.3594 129.7217 20.3594 ZM129.7217 19.5781 Q130.9561 19.5781 131.6045 20.5469 Q132.2529 21.5156 132.2529 23.3594 Q132.2529 25.2031 131.6045 26.1719 Q130.9561 27.1406 129.7217 27.1406 Q128.5029 27.1406 127.8545 26.1719 Q127.2061 25.2031 127.2061 23.3594 Q127.2061 21.5156 127.8545 20.5469 Q128.5029 19.5781 129.7217 19.5781 ZM134.1465 26.1719 L135.7715 26.1719 L135.7715 20.6094 L134.0059 20.9531 L134.0059 20.0625 L135.7559 19.7031 L136.7402 19.7031 L136.7402 26.1719 L138.3496 26.1719 L138.3496 27 L134.1465 27 L134.1465 26.1719 ZM143.3369 23.0625 Q144.04 23.2188 144.4385 23.6953 Q144.8369 24.1719 144.8369 24.875 Q144.8369 25.9531 144.0947 26.5469 Q143.3525 27.1406 141.9775 27.1406 Q141.5244 27.1406 141.04 27.0469 Q140.5557 26.9531 140.04 26.7812 L140.04 25.8281 Q140.4463 26.0625 140.9385 26.1875 Q141.4307 26.3125 141.9619 26.3125 Q142.8838 26.3125 143.3682 25.9453 Q143.8525 25.5781 143.8525 24.875 Q143.8525 24.2344 143.3994 23.875 Q142.9463 23.5156 142.1494 23.5156 L141.29 23.5156 L141.29 22.7031 L142.1807 22.7031 Q142.915 22.7031 143.2979 22.4062 Q143.6807 22.1094 143.6807 21.5625 Q143.6807 21.0156 143.2822 20.7109 Q142.8838 20.4062 142.1494 20.4062 Q141.7432 20.4062 141.2744 20.4922 Q140.8057 20.5781 140.2588 20.7656 L140.2588 19.8906 Q140.8213 19.7344 141.3135 19.6562 Q141.8057 19.5781 142.2275 19.5781 Q143.3525 19.5781 144.0088 20.0859 Q144.665 20.5938 144.665 21.4688 Q144.665 22.0781 144.3213 22.4922 Q143.9775 22.9062 143.3369 23.0625 Z"
         style="clip-path:url(#clipPath2); stroke:none;"
         clip-path="url(#clipPath2)"
         id="path185" />
      <path
         d="M4.25 34.9375 Q3.3906 34.9375 2.9141 35.5703 Q2.4375 36.2031 2.4375 37.3594 Q2.4375 38.5156 2.9141 39.1484 Q3.3906 39.7812 4.25 39.7812 Q5.1094 39.7812 5.5859 39.1484 Q6.0625 38.5156 6.0625 37.3594 Q6.0625 36.2031 5.5859 35.5703 Q5.1094 34.9375 4.25 34.9375 ZM4.25 33.5781 Q6 33.5781 7 34.5859 Q8 35.5938 8 37.3594 Q8 39.125 7 40.1328 Q6 41.1406 4.25 41.1406 Q2.5 41.1406 1.5 40.1328 Q0.5 39.125 0.5 37.3594 Q0.5 35.5938 1.5 34.5859 Q2.5 33.5781 4.25 33.5781 ZM13.4072 37.0156 Q13.1729 36.9062 12.9463 36.8594 Q12.7197 36.8125 12.4854 36.8125 Q11.8135 36.8125 11.4541 37.2422 Q11.0947 37.6719 11.0947 38.4844 L11.0947 41 L9.3447 41 L9.3447 35.5312 L11.0947 35.5312 L11.0947 36.4219 Q11.4229 35.8906 11.8604 35.6484 Q12.2979 35.4062 12.9072 35.4062 Q13.001 35.4062 13.1025 35.4062 Q13.2041 35.4062 13.3916 35.4375 L13.4072 37.0156 ZM17.9951 40.0781 Q17.6357 40.5469 17.1982 40.7734 Q16.7607 41 16.1982 41 Q15.1982 41 14.542 40.2109 Q13.8857 39.4219 13.8857 38.2031 Q13.8857 36.9688 14.542 36.1875 Q15.1982 35.4062 16.1982 35.4062 Q16.7607 35.4062 17.1982 35.6328 Q17.6357 35.8594 17.9951 36.3438 L17.9951 35.5312 L19.7451 35.5312 L19.7451 40.4531 Q19.7451 41.7656 18.917 42.4609 Q18.0889 43.1562 16.5107 43.1562 Q15.9951 43.1562 15.5186 43.0781 Q15.042 43 14.5576 42.8438 L14.5576 41.4844 Q15.0107 41.75 15.4482 41.875 Q15.8857 42 16.3389 42 Q17.1982 42 17.5967 41.625 Q17.9951 41.25 17.9951 40.4531 L17.9951 40.0781 ZM16.8389 36.6719 Q16.292 36.6719 15.9951 37.0703 Q15.6982 37.4688 15.6982 38.2031 Q15.6982 38.9531 15.9873 39.3438 Q16.2764 39.7344 16.8389 39.7344 Q17.3857 39.7344 17.6904 39.3281 Q17.9951 38.9219 17.9951 38.2031 Q17.9951 37.4688 17.6904 37.0703 Q17.3857 36.6719 16.8389 36.6719 ZM23.8877 38.5312 Q23.3408 38.5312 23.0596 38.7188 Q22.7783 38.9062 22.7783 39.2656 Q22.7783 39.6094 23.0049 39.7969 Q23.2314 39.9844 23.6221 39.9844 Q24.1221 39.9844 24.458 39.625 Q24.7939 39.2656 24.7939 38.7344 L24.7939 38.5312 L23.8877 38.5312 ZM26.5596 37.875 L26.5596 41 L24.7939 41 L24.7939 40.1875 Q24.4346 40.6875 23.9971 40.9141 Q23.5596 41.1406 22.9346 41.1406 Q22.0752 41.1406 21.5518 40.6484 Q21.0283 40.1562 21.0283 39.3594 Q21.0283 38.3906 21.6846 37.9453 Q22.3408 37.5 23.7627 37.5 L24.7939 37.5 L24.7939 37.3594 Q24.7939 36.9531 24.4658 36.7578 Q24.1377 36.5625 23.4502 36.5625 Q22.8877 36.5625 22.4033 36.6719 Q21.9189 36.7812 21.4971 37.0156 L21.4971 35.6719 Q22.0596 35.5469 22.6299 35.4766 Q23.2002 35.4062 23.7627 35.4062 Q25.2471 35.4062 25.9033 35.9844 Q26.5596 36.5625 26.5596 37.875 ZM33.6826 37.6719 L33.6826 41 L31.917 41 L31.917 40.4531 L31.917 38.4531 Q31.917 37.75 31.8857 37.4766 Q31.8545 37.2031 31.7764 37.0781 Q31.6826 36.9062 31.5029 36.8125 Q31.3232 36.7188 31.1045 36.7188 Q30.5576 36.7188 30.2451 37.1406 Q29.9326 37.5625 29.9326 38.3125 L29.9326 41 L28.1826 41 L28.1826 35.5312 L29.9326 35.5312 L29.9326 36.3281 Q30.3232 35.8594 30.7686 35.6328 Q31.2139 35.4062 31.7451 35.4062 Q32.6982 35.4062 33.1904 35.9844 Q33.6826 36.5625 33.6826 37.6719 ZM35.3018 35.5312 L37.0518 35.5312 L37.0518 41 L35.3018 41 L35.3018 35.5312 ZM35.3018 33.4062 L37.0518 33.4062 L37.0518 34.8281 L35.3018 34.8281 L35.3018 33.4062 ZM42.9951 35.7031 L42.9951 37.0312 Q42.4326 36.7969 41.9092 36.6797 Q41.3857 36.5625 40.9326 36.5625 Q40.4326 36.5625 40.1904 36.6875 Q39.9482 36.8125 39.9482 37.0625 Q39.9482 37.2812 40.1279 37.3906 Q40.3076 37.5 40.792 37.5625 L41.0889 37.5938 Q42.4326 37.7656 42.9014 38.1562 Q43.3701 38.5469 43.3701 39.3906 Q43.3701 40.2656 42.7217 40.7031 Q42.0732 41.1406 40.792 41.1406 Q40.2607 41.1406 39.6826 41.0547 Q39.1045 40.9688 38.4795 40.7969 L38.4795 39.4688 Q39.0107 39.7188 39.5576 39.8516 Q40.1045 39.9844 40.667 39.9844 Q41.1826 39.9844 41.4404 39.8438 Q41.6982 39.7031 41.6982 39.4219 Q41.6982 39.1875 41.5264 39.0703 Q41.3545 38.9531 40.8232 38.8906 L40.5107 38.8438 Q39.3389 38.7031 38.8701 38.3047 Q38.4014 37.9062 38.4014 37.1094 Q38.4014 36.2344 38.9951 35.8203 Q39.5889 35.4062 40.8232 35.4062 Q41.3076 35.4062 41.8389 35.4766 Q42.3701 35.5469 42.9951 35.7031 ZM49.7441 36.4375 Q50.0723 35.9375 50.5332 35.6719 Q50.9941 35.4062 51.541 35.4062 Q52.4785 35.4062 52.9707 35.9844 Q53.4629 36.5625 53.4629 37.6719 L53.4629 41 L51.7129 41 L51.7129 38.1406 Q51.7129 38.0781 51.7129 38.0156 Q51.7129 37.9531 51.7129 37.8281 Q51.7129 37.2344 51.5488 36.9766 Q51.3848 36.7188 50.9941 36.7188 Q50.4941 36.7188 50.2285 37.125 Q49.9629 37.5312 49.9473 38.3125 L49.9473 41 L48.1816 41 L48.1816 38.1406 Q48.1816 37.2344 48.0254 36.9766 Q47.8691 36.7188 47.4785 36.7188 Q46.9785 36.7188 46.7051 37.1328 Q46.4316 37.5469 46.4316 38.3125 L46.4316 41 L44.666 41 L44.666 35.5312 L46.4316 35.5312 L46.4316 36.3281 Q46.7441 35.875 47.166 35.6406 Q47.5879 35.4062 48.0879 35.4062 Q48.6504 35.4062 49.0879 35.6797 Q49.5254 35.9531 49.7441 36.4375 ZM55.3828 35.5312 L57.1328 35.5312 L57.1328 37.4219 L55.3828 37.4219 L55.3828 35.5312 ZM55.3828 39.1094 L57.1328 39.1094 L57.1328 41 L55.3828 41 L55.3828 39.1094 Z"
         style="clip-path:url(#clipPath2); stroke:none;"
         clip-path="url(#clipPath2)"
         id="path187" />
      <path
         d="M66.9844 33.7031 L67.9688 33.7031 L67.9688 36.7031 L71.5469 36.7031 L71.5469 33.7031 L72.5312 33.7031 L72.5312 41 L71.5469 41 L71.5469 37.5312 L67.9688 37.5312 L67.9688 41 L66.9844 41 L66.9844 33.7031 ZM76.582 36.1562 Q75.8633 36.1562 75.4414 36.7188 Q75.0195 37.2812 75.0195 38.2656 Q75.0195 39.25 75.4336 39.8125 Q75.8477 40.375 76.582 40.375 Q77.3008 40.375 77.7227 39.8125 Q78.1445 39.25 78.1445 38.2656 Q78.1445 37.2969 77.7227 36.7266 Q77.3008 36.1562 76.582 36.1562 ZM76.582 35.4062 Q77.7539 35.4062 78.4258 36.1641 Q79.0977 36.9219 79.0977 38.2656 Q79.0977 39.6094 78.4258 40.375 Q77.7539 41.1406 76.582 41.1406 Q75.4102 41.1406 74.7383 40.375 Q74.0664 39.6094 74.0664 38.2656 Q74.0664 36.9219 74.7383 36.1641 Q75.4102 35.4062 76.582 35.4062 ZM84.8408 36.5781 Q85.1689 35.9688 85.6377 35.6875 Q86.1064 35.4062 86.7471 35.4062 Q87.6064 35.4062 88.0674 36 Q88.5283 36.5938 88.5283 37.7031 L88.5283 41 L87.6221 41 L87.6221 37.7344 Q87.6221 36.9375 87.3486 36.5625 Q87.0752 36.1875 86.4971 36.1875 Q85.7939 36.1875 85.3955 36.6484 Q84.9971 37.1094 84.9971 37.9062 L84.9971 41 L84.0908 41 L84.0908 37.7344 Q84.0908 36.9375 83.8096 36.5625 Q83.5283 36.1875 82.9502 36.1875 Q82.2627 36.1875 81.8564 36.6484 Q81.4502 37.1094 81.4502 37.9062 L81.4502 41 L80.5439 41 L80.5439 35.5312 L81.4502 35.5312 L81.4502 36.375 Q81.7627 35.875 82.1924 35.6406 Q82.6221 35.4062 83.2002 35.4062 Q83.8096 35.4062 84.2236 35.7031 Q84.6377 36 84.8408 36.5781 ZM92.4414 36.1562 Q91.7227 36.1562 91.3008 36.7188 Q90.8789 37.2812 90.8789 38.2656 Q90.8789 39.25 91.293 39.8125 Q91.707 40.375 92.4414 40.375 Q93.1602 40.375 93.582 39.8125 Q94.0039 39.25 94.0039 38.2656 Q94.0039 37.2969 93.582 36.7266 Q93.1602 36.1562 92.4414 36.1562 ZM92.4414 35.4062 Q93.6133 35.4062 94.2852 36.1641 Q94.957 36.9219 94.957 38.2656 Q94.957 39.6094 94.2852 40.375 Q93.6133 41.1406 92.4414 41.1406 Q91.2695 41.1406 90.5977 40.375 Q89.9258 39.6094 89.9258 38.2656 Q89.9258 36.9219 90.5977 36.1641 Q91.2695 35.4062 92.4414 35.4062 ZM103.0977 35.6875 L103.0977 36.5469 Q102.7227 36.3438 102.3164 36.25 Q101.9102 36.1562 101.457 36.1562 Q100.8008 36.1562 100.4648 36.3594 Q100.1289 36.5625 100.1289 36.9688 Q100.1289 37.2812 100.3633 37.4609 Q100.5977 37.6406 101.332 37.7969 L101.6289 37.875 Q102.5977 38.0781 102.9961 38.4531 Q103.3945 38.8281 103.3945 39.4844 Q103.3945 40.25 102.793 40.6953 Q102.1914 41.1406 101.1445 41.1406 Q100.6914 41.1406 100.2148 41.0547 Q99.7383 40.9688 99.2227 40.7969 L99.2227 39.875 Q99.7227 40.125 100.1992 40.2578 Q100.6758 40.3906 101.1602 40.3906 Q101.7852 40.3906 102.1289 40.1719 Q102.4727 39.9531 102.4727 39.5625 Q102.4727 39.1875 102.2305 38.9922 Q101.9883 38.7969 101.1445 38.625 L100.832 38.5469 Q100.0039 38.375 99.6289 38.0078 Q99.2539 37.6406 99.2539 37.0156 Q99.2539 36.2344 99.8008 35.8203 Q100.3477 35.4062 101.3633 35.4062 Q101.8477 35.4062 102.293 35.4766 Q102.7383 35.5469 103.0977 35.6875 ZM107.3076 38.25 Q106.2295 38.25 105.8076 38.5 Q105.3857 38.75 105.3857 39.3438 Q105.3857 39.8281 105.6982 40.1094 Q106.0107 40.3906 106.5576 40.3906 Q107.3076 40.3906 107.7607 39.8594 Q108.2139 39.3281 108.2139 38.4531 L108.2139 38.25 L107.3076 38.25 ZM109.1045 37.875 L109.1045 41 L108.2139 41 L108.2139 40.1719 Q107.9014 40.6719 107.4404 40.9062 Q106.9795 41.1406 106.3232 41.1406 Q105.4795 41.1406 104.9795 40.6719 Q104.4795 40.2031 104.4795 39.4062 Q104.4795 38.4844 105.1045 38.0156 Q105.7295 37.5469 106.9482 37.5469 L108.2139 37.5469 L108.2139 37.4531 Q108.2139 36.8438 107.7998 36.5 Q107.3857 36.1562 106.6514 36.1562 Q106.1826 36.1562 105.7373 36.2734 Q105.292 36.3906 104.8857 36.6094 L104.8857 35.7812 Q105.3857 35.5938 105.8467 35.5 Q106.3076 35.4062 106.7451 35.4062 Q107.9326 35.4062 108.5186 36.0156 Q109.1045 36.625 109.1045 37.875 ZM111.8262 40.1719 L111.8262 43.0781 L110.9199 43.0781 L110.9199 35.5312 L111.8262 35.5312 L111.8262 36.3594 Q112.1074 35.875 112.5371 35.6406 Q112.9668 35.4062 113.5762 35.4062 Q114.5762 35.4062 115.1934 36.1953 Q115.8105 36.9844 115.8105 38.2656 Q115.8105 39.5625 115.1934 40.3516 Q114.5762 41.1406 113.5762 41.1406 Q112.9668 41.1406 112.5371 40.9062 Q112.1074 40.6719 111.8262 40.1719 ZM114.8887 38.2656 Q114.8887 37.2812 114.4746 36.7188 Q114.0605 36.1562 113.3574 36.1562 Q112.6387 36.1562 112.2324 36.7188 Q111.8262 37.2812 111.8262 38.2656 Q111.8262 39.2656 112.2324 39.8281 Q112.6387 40.3906 113.3574 40.3906 Q114.0605 40.3906 114.4746 39.8281 Q114.8887 39.2656 114.8887 38.2656 ZM117.2988 35.5312 L118.2051 35.5312 L118.2051 41 L117.2988 41 L117.2988 35.5312 ZM117.2988 33.4062 L118.2051 33.4062 L118.2051 34.5469 L117.2988 34.5469 L117.2988 33.4062 ZM124.7646 38.0469 L124.7646 38.4844 L120.624 38.4844 Q120.6865 39.4062 121.1865 39.8906 Q121.6865 40.375 122.5771 40.375 Q123.0928 40.375 123.585 40.25 Q124.0771 40.125 124.5459 39.875 L124.5459 40.7188 Q124.0615 40.9219 123.5537 41.0312 Q123.0459 41.1406 122.5303 41.1406 Q121.2178 41.1406 120.4521 40.3828 Q119.6865 39.625 119.6865 38.3125 Q119.6865 36.9688 120.4131 36.1875 Q121.1396 35.4062 122.374 35.4062 Q123.4834 35.4062 124.124 36.1094 Q124.7646 36.8125 124.7646 38.0469 ZM123.8584 37.7812 Q123.8584 37.0469 123.4521 36.6016 Q123.0459 36.1562 122.3896 36.1562 Q121.624 36.1562 121.1787 36.5859 Q120.7334 37.0156 120.6553 37.7812 L123.8584 37.7812 ZM130.7764 37.7031 L130.7764 41 L129.8857 41 L129.8857 37.7344 Q129.8857 36.9531 129.5811 36.5703 Q129.2764 36.1875 128.667 36.1875 Q127.9482 36.1875 127.5264 36.6484 Q127.1045 37.1094 127.1045 37.9062 L127.1045 41 L126.1982 41 L126.1982 35.5312 L127.1045 35.5312 L127.1045 36.375 Q127.4326 35.8906 127.8701 35.6484 Q128.3076 35.4062 128.8701 35.4062 Q129.8076 35.4062 130.292 35.9844 Q130.7764 36.5625 130.7764 37.7031 ZM136.0518 35.6875 L136.0518 36.5469 Q135.6768 36.3438 135.2705 36.25 Q134.8643 36.1562 134.4111 36.1562 Q133.7549 36.1562 133.4189 36.3594 Q133.083 36.5625 133.083 36.9688 Q133.083 37.2812 133.3174 37.4609 Q133.5518 37.6406 134.2861 37.7969 L134.583 37.875 Q135.5518 38.0781 135.9502 38.4531 Q136.3486 38.8281 136.3486 39.4844 Q136.3486 40.25 135.7471 40.6953 Q135.1455 41.1406 134.0986 41.1406 Q133.6455 41.1406 133.1689 41.0547 Q132.6924 40.9688 132.1768 40.7969 L132.1768 39.875 Q132.6768 40.125 133.1533 40.2578 Q133.6299 40.3906 134.1143 40.3906 Q134.7393 40.3906 135.083 40.1719 Q135.4268 39.9531 135.4268 39.5625 Q135.4268 39.1875 135.1846 38.9922 Q134.9424 38.7969 134.0986 38.625 L133.7861 38.5469 Q132.958 38.375 132.583 38.0078 Q132.208 37.6406 132.208 37.0156 Q132.208 36.2344 132.7549 35.8203 Q133.3018 35.4062 134.3174 35.4062 Q134.8018 35.4062 135.2471 35.4766 Q135.6924 35.5469 136.0518 35.6875 Z"
         style="clip-path:url(#clipPath2); stroke:none;"
         clip-path="url(#clipPath2)"
         id="path189" />
    </g>
    <g
       style="fill:navy; text-rendering:geometricPrecision; font-size:8; stroke:navy;"
       id="g195">
      <text
         x="175"
         xml:space="preserve"
         y="22"
         style="clip-path:url(#clipPath4); stroke:none;"
         clip-path="url(#clipPath4)"
         id="text193">1</text>
    </g>
    <g
       style="text-rendering:geometricPrecision;"
       id="g203">
      <path
         d="M403.3363 397.0651 L368.7488 396.7895"
         style="fill:none; clip-path:url(#clipPath5);"
         clip-path="url(#clipPath5)"
         id="path197" />
      <path
         d="M358.3492 396.7066 C358.372 393.8348 360.7186 391.5254 363.5904 391.5482 C366.4622 391.5711 368.7717 393.9177 368.7488 396.7895 C368.7259 399.6613 366.3793 401.9708 363.5075 401.9479 C360.6357 401.925 358.3263 399.5784 358.3492 396.7066 Z"
         style="fill:white; clip-path:url(#clipPath5); stroke:none;"
         clip-path="url(#clipPath5)"
         id="path199" />
      <path
         d="M358.3492 396.7066 C358.372 393.8348 360.7186 391.5254 363.5904 391.5482 C366.4622 391.5711 368.7717 393.9177 368.7488 396.7895 C368.7259 399.6613 366.3793 401.9708 363.5075 401.9479 C360.6357 401.925 358.3263 399.5784 358.3492 396.7066 Z"
         style="fill:none; clip-path:url(#clipPath5);"
         clip-path="url(#clipPath5)"
         id="path201" />
    </g>
    <g
       style="text-rendering:geometricPrecision;"
       id="g209">
      <path
         d="M479.505 122.7631 L518.4785 66.4464"
         style="fill:none; clip-path:url(#clipPath6);"
         clip-path="url(#clipPath6)"
         id="path205" />
      <path
         d="M514.2026 63.4873 L525.1365 56.8256 L522.7545 69.4056 Z"
         style="clip-path:url(#clipPath6); stroke:none;"
         clip-path="url(#clipPath6)"
         id="path207" />
    </g>
    <g
       style="text-rendering:geometricPrecision;"
       id="g215">
      <path
         d="M552.9791 243.3976 L408.9791 243.3976"
         style="fill:none; clip-path:url(#clipPath7);"
         clip-path="url(#clipPath7)"
         id="path211" />
      <path
         d="M408.9791 243.3976 L420.6791 248.5976 L420.6791 238.1976 Z"
         style="clip-path:url(#clipPath7); fill-rule:evenodd; stroke:none;"
         clip-path="url(#clipPath7)"
         id="path213" />
    </g>
    <g
       style="text-rendering:geometricPrecision;"
       id="g223">
      <path
         d="M495.2534 270.5776 L495.3329 253.3975"
         style="fill:none; clip-path:url(#clipPath8);"
         clip-path="url(#clipPath8)"
         id="path217" />
      <path
         d="M495.3809 242.9976 C498.2528 243.0109 500.5701 245.3497 500.5568 248.2216 C500.5435 251.0934 498.2047 253.4108 495.3329 253.3975 C492.461 253.3842 490.1437 251.0454 490.157 248.1735 C490.1702 245.3017 492.5091 242.9843 495.3809 242.9976 Z"
         style="fill:white; clip-path:url(#clipPath8); stroke:none;"
         clip-path="url(#clipPath8)"
         id="path219" />
      <path
         d="M495.3809 242.9976 C498.2528 243.0109 500.5701 245.3497 500.5568 248.2216 C500.5435 251.0934 498.2047 253.4108 495.3329 253.3975 C492.461 253.3842 490.1437 251.0454 490.157 248.1735 C490.1702 245.3017 492.5091 242.9843 495.3809 242.9976 Z"
         style="fill:none; clip-path:url(#clipPath8);"
         clip-path="url(#clipPath8)"
         id="path221" />
    </g>
    <g
       style="text-rendering:geometricPrecision;"
       id="g227">
      <path
         d="M427.4791 69.0458 L479.505 122.7631"
         style="fill:none; clip-path:url(#clipPath9);"
         clip-path="url(#clipPath9)"
         id="path225" />
    </g>
    <g
       style="text-rendering:geometricPrecision;"
       id="g233">
      <path
         d="M358.7491 253.3976 L358.7491 335.4767"
         style="fill:none; clip-path:url(#clipPath10);"
         clip-path="url(#clipPath10)"
         id="path229" />
      <path
         d="M358.7491 335.4767 L363.9491 323.7767 L353.5491 323.7767 Z"
         style="clip-path:url(#clipPath10); fill-rule:evenodd; stroke:none;"
         clip-path="url(#clipPath10)"
         id="path231" />
    </g>
    <g
       style="text-rendering:geometricPrecision;"
       id="g239">
      <path
         d="M634.9791 132.4767 L634.9791 232.3976"
         style="fill:none; clip-path:url(#clipPath11);"
         clip-path="url(#clipPath11)"
         id="path235" />
      <path
         d="M634.9791 232.3976 L640.1791 220.6976 L629.7791 220.6976 Z"
         style="clip-path:url(#clipPath11); fill-rule:evenodd; stroke:none;"
         clip-path="url(#clipPath11)"
         id="path237" />
    </g>
    <g
       style="text-rendering:geometricPrecision;"
       id="g247">
      <path
         d="M578.9283 180.5709 L624.9791 180.4945"
         style="fill:none; clip-path:url(#clipPath12);"
         clip-path="url(#clipPath12)"
         id="path241" />
      <path
         d="M635.3791 180.4772 C635.3839 183.3491 633.0596 185.6811 630.1877 185.6859 C627.3158 185.6906 624.9838 183.3664 624.9791 180.4945 C624.9743 177.6226 627.2986 175.2906 630.1705 175.2859 C633.0423 175.2811 635.3743 177.6054 635.3791 180.4772 Z"
         style="fill:white; clip-path:url(#clipPath12); stroke:none;"
         clip-path="url(#clipPath12)"
         id="path243" />
      <path
         d="M635.3791 180.4772 C635.3839 183.3491 633.0596 185.6811 630.1877 185.6859 C627.3158 185.6906 624.9838 183.3664 624.9791 180.4945 C624.9743 177.6226 627.2986 175.2906 630.1705 175.2859 C633.0423 175.2811 635.3743 177.6054 635.3791 180.4772 Z"
         style="fill:none; clip-path:url(#clipPath12);"
         clip-path="url(#clipPath12)"
         id="path245" />
    </g>
    <g
       style="text-rendering:geometricPrecision;"
       id="g253">
      <path
         d="M235.665 468.5595 L318.7491 468.5595"
         style="fill:none; clip-path:url(#clipPath13);"
         clip-path="url(#clipPath13)"
         id="path249" />
      <path
         d="M318.7491 468.5595 L307.0491 463.3595 L307.0491 473.7595 Z"
         style="clip-path:url(#clipPath13); fill-rule:evenodd; stroke:none;"
         clip-path="url(#clipPath13)"
         id="path251" />
    </g>
    <g
       style="text-rendering:geometricPrecision;"
       id="g261">
      <path
         d="M447.7627 321.2972 L447.6922 335.4768"
         style="fill:none; clip-path:url(#clipPath14);"
         clip-path="url(#clipPath14)"
         id="path255" />
      <path
         d="M447.6405 345.8767 C444.7686 345.8624 442.4521 343.5227 442.4664 340.6509 C442.4807 337.7791 444.8204 335.4625 447.6922 335.4768 C450.5641 335.4911 452.8806 337.8307 452.8663 340.7026 C452.852 343.5745 450.5123 345.891 447.6405 345.8767 Z"
         style="fill:white; clip-path:url(#clipPath14); stroke:none;"
         clip-path="url(#clipPath14)"
         id="path257" />
      <path
         d="M447.6405 345.8767 C444.7686 345.8624 442.4521 343.5227 442.4664 340.6509 C442.4807 337.7791 444.8204 335.4625 447.6922 335.4768 C450.5641 335.4911 452.8806 337.8307 452.8663 340.7026 C452.852 343.5745 450.5123 345.891 447.6405 345.8767 Z"
         style="fill:none; clip-path:url(#clipPath14);"
         clip-path="url(#clipPath14)"
         id="path259" />
    </g>
    <g
       style="text-rendering:geometricPrecision;"
       id="g267">
      <path
         d="M198.9791 345.4767 L318.7491 345.4767"
         style="fill:none; clip-path:url(#clipPath15);"
         clip-path="url(#clipPath15)"
         id="path263" />
      <path
         d="M318.7491 345.4767 L307.0491 340.2767 L307.0491 350.6767 Z"
         style="clip-path:url(#clipPath15); fill-rule:evenodd; stroke:none;"
         clip-path="url(#clipPath15)"
         id="path265" />
    </g>
    <g
       style="text-rendering:geometricPrecision;"
       id="g273">
      <path
         d="M308.5192 243.3976 C308.5192 243.3976 293.081 241.1672 278.7455 233.3606 C278.7455 233.3606 264.41 225.5541 256.6909 204.365 C256.6909 204.365 248.9718 183.1758 256.6481 161.9867 C256.6481 161.9867 264.3244 140.7975 278.5804 132.991 C292.8364 125.1845 308.1889 122.9541 308.1889 122.9541"
         style="fill:none; clip-path:url(#clipPath16);"
         clip-path="url(#clipPath16)"
         id="path269" />
      <path
         d="M308.1889 122.9541 L295.8629 119.4902 L297.3581 129.7822 Z"
         style="clip-path:url(#clipPath16); fill-rule:evenodd; stroke:none;"
         clip-path="url(#clipPath16)"
         id="path271" />
    </g>
    <g
       style="text-rendering:geometricPrecision;"
       id="g277">
      <path
         d="M199.8273 243.3976 C199.8273 243.3976 205.0124 243.3833 209.8273 243.3333 C209.8273 243.3333 214.6421 243.2833 217.2347 243.1476 C217.2347 243.1476 219.8273 243.0118 220.0991 242.9618 C220.0991 242.9618 220.371 242.9118 222.2742 242.819 C222.2742 242.819 224.1774 242.7261 229.3431 242.6761 C229.3431 242.6761 234.5089 242.6261 239.6746 235.4836 C239.6746 235.4836 244.8404 228.341 246.7436 215.0764 C248.6467 201.8117 249.1905 187.5267 249.1905 187.5267"
         style="fill:none; clip-path:url(#clipPath17);"
         clip-path="url(#clipPath17)"
         id="path275" />
    </g>
    <g
       style="text-rendering:geometricPrecision;"
       id="g281">
      <path
         d="M678.1892 161.4767 L634.9791 180.4779"
         style="fill:none; clip-path:url(#clipPath18);"
         clip-path="url(#clipPath18)"
         id="path279" />
    </g>
    <g
       style="text-rendering:geometricPrecision;"
       id="g289">
      <path
         d="M267.9881 502.4439 L268.63 478.5559"
         style="fill:none; clip-path:url(#clipPath19);"
         clip-path="url(#clipPath19)"
         id="path283" />
      <path
         d="M268.9094 468.1597 C271.7802 468.2368 274.045 470.6266 273.9678 473.4975 C273.8907 476.3683 271.5009 478.6331 268.63 478.5559 C265.7592 478.4788 263.4944 476.089 263.5716 473.2181 C263.6487 470.3473 266.0385 468.0825 268.9094 468.1597 Z"
         style="fill:white; clip-path:url(#clipPath19); stroke:none;"
         clip-path="url(#clipPath19)"
         id="path285" />
      <path
         d="M268.9094 468.1597 C271.7802 468.2368 274.045 470.6266 273.9678 473.4975 C273.8907 476.3683 271.5009 478.6331 268.63 478.5559 C265.7592 478.4788 263.4944 476.089 263.5716 473.2181 C263.6487 470.3473 266.0385 468.0825 268.9094 468.1597 Z"
         style="fill:none; clip-path:url(#clipPath19);"
         clip-path="url(#clipPath19)"
         id="path287" />
    </g>
    <g
       style="text-rendering:geometricPrecision;"
       id="g297">
      <path
         d="M317.1294 286.3483 L348.7492 286.2578"
         style="fill:none; clip-path:url(#clipPath20);"
         clip-path="url(#clipPath20)"
         id="path291" />
      <path
         d="M359.1491 286.2281 C359.1573 289.1 356.8359 291.4347 353.964 291.443 C351.0922 291.4512 348.7574 289.1297 348.7492 286.2578 C348.7409 283.386 351.0624 281.0512 353.9343 281.043 C356.8061 281.0348 359.1409 283.3562 359.1491 286.2281 Z"
         style="fill:white; clip-path:url(#clipPath20); stroke:none;"
         clip-path="url(#clipPath20)"
         id="path293" />
      <path
         d="M359.1491 286.2281 C359.1573 289.1 356.8359 291.4347 353.964 291.443 C351.0922 291.4512 348.7574 289.1297 348.7492 286.2578 C348.7409 283.386 351.0624 281.0512 353.9343 281.043 C356.8061 281.0348 359.1409 283.3562 359.1491 286.2281 Z"
         style="fill:none; clip-path:url(#clipPath20);"
         clip-path="url(#clipPath20)"
         id="path295" />
    </g>
    <g
       style="text-rendering:geometricPrecision;"
       id="g303">
      <path
         d="M398.7491 345.4767 L520.9825 345.4767"
         style="fill:none; clip-path:url(#clipPath21);"
         clip-path="url(#clipPath21)"
         id="path299" />
      <path
         d="M520.9825 345.4767 L509.2825 340.2767 L509.2825 350.6767 Z"
         style="clip-path:url(#clipPath21); fill-rule:evenodd; stroke:none;"
         clip-path="url(#clipPath21)"
         id="path301" />
    </g>
    <g
       style="text-rendering:geometricPrecision;"
       id="g309">
      <path
         d="M479.505 122.7631 L517.2088 85.3823"
         style="fill:none; clip-path:url(#clipPath22);"
         clip-path="url(#clipPath22)"
         id="path305" />
      <path
         d="M513.5477 81.6896 L525.5175 77.1448 L520.8699 89.0751 Z"
         style="clip-path:url(#clipPath22); stroke:none;"
         clip-path="url(#clipPath22)"
         id="path307" />
    </g>
    <g
       style="text-rendering:geometricPrecision;"
       id="g317">
      <path
         d="M337.1965 187.7231 L259.1905 187.549"
         style="fill:none; clip-path:url(#clipPath23);"
         clip-path="url(#clipPath23)"
         id="path311" />
      <path
         d="M248.7905 187.5258 C248.7969 184.654 251.1302 182.331 254.0021 182.3374 C256.874 182.3439 259.1969 184.6772 259.1905 187.549 C259.1841 190.4209 256.8508 192.7438 253.9789 192.7374 C251.107 192.731 248.7841 190.3977 248.7905 187.5258 Z"
         style="fill:white; clip-path:url(#clipPath23); stroke:none;"
         clip-path="url(#clipPath23)"
         id="path313" />
      <path
         d="M248.7905 187.5258 C248.7969 184.654 251.1302 182.331 254.0021 182.3374 C256.874 182.3439 259.1969 184.6772 259.1905 187.549 C259.1841 190.4209 256.8508 192.7438 253.9789 192.7374 C251.107 192.731 248.7841 190.3977 248.7905 187.5258 Z"
         style="fill:none; clip-path:url(#clipPath23);"
         clip-path="url(#clipPath23)"
         id="path315" />
    </g>
    <g
       style="text-rendering:geometricPrecision;"
       id="g325">
      <path
         d="M247.0582 373.2914 L246.9486 355.4765"
         style="fill:none; clip-path:url(#clipPath24);"
         clip-path="url(#clipPath24)"
         id="path319" />
      <path
         d="M246.8846 345.0767 C249.7565 345.059 252.0989 347.3728 252.1165 350.2446 C252.1342 353.1164 249.8204 355.4588 246.9486 355.4765 C244.0768 355.4942 241.7344 353.1804 241.7167 350.3086 C241.6991 347.4368 244.0128 345.0944 246.8846 345.0767 Z"
         style="fill:white; clip-path:url(#clipPath24); stroke:none;"
         clip-path="url(#clipPath24)"
         id="path321" />
      <path
         d="M246.8846 345.0767 C249.7565 345.059 252.0989 347.3728 252.1165 350.2446 C252.1342 353.1164 249.8204 355.4588 246.9486 355.4765 C244.0768 355.4942 241.7344 353.1804 241.7167 350.3086 C241.6991 347.4368 244.0128 345.0944 246.8846 345.0767 Z"
         style="fill:none; clip-path:url(#clipPath24);"
         clip-path="url(#clipPath24)"
         id="path323" />
    </g>
    <g
       style="text-rendering:geometricPrecision;"
       id="g331">
      <path
         d="M249.1905 187.5267 C249.1905 187.5267 238.8116 142.8595 229.174 134.6313 C219.5365 126.4031 217.9352 126.0404 217.9352 126.0404"
         style="fill:none; clip-path:url(#clipPath25);"
         clip-path="url(#clipPath25)"
         id="path327" />
      <path
         d="M216.7865 131.112 L206.5242 123.4558 L219.0839 120.9689 Z"
         style="clip-path:url(#clipPath25); stroke:none;"
         clip-path="url(#clipPath25)"
         id="path329" />
    </g>
    <g
       style="text-rendering:geometricPrecision;"
       id="g339">
      <path
         d="M480.0443 165.9187 L479.6299 132.7623"
         style="fill:none; clip-path:url(#clipPath26);"
         clip-path="url(#clipPath26)"
         id="path333" />
      <path
         d="M479.5 122.3631 C482.3716 122.3273 484.7287 124.6261 484.7646 127.4978 C484.8004 130.3694 482.5016 132.7264 479.6299 132.7623 C476.7583 132.7982 474.4013 130.4994 474.3654 127.6277 C474.3295 124.7561 476.6283 122.399 479.5 122.3631 Z"
         style="fill:white; clip-path:url(#clipPath26); stroke:none;"
         clip-path="url(#clipPath26)"
         id="path335" />
      <path
         d="M479.5 122.3631 C482.3716 122.3273 484.7287 124.6261 484.7646 127.4978 C484.8004 130.3694 482.5016 132.7264 479.6299 132.7623 C476.7583 132.7982 474.4013 130.4994 474.3654 127.6277 C474.3295 124.7561 476.6283 122.399 479.5 122.3631 Z"
         style="fill:none; clip-path:url(#clipPath26);"
         clip-path="url(#clipPath26)"
         id="path337" />
    </g>
    <g
       style="text-rendering:geometricPrecision;"
       id="g345">
      <path
         d="M634.9791 180.4779 L670.3945 200.9196"
         style="fill:none; clip-path:url(#clipPath27);"
         clip-path="url(#clipPath27)"
         id="path341" />
      <path
         d="M672.994 196.416 L680.5276 206.7684 L667.795 205.4232 Z"
         style="clip-path:url(#clipPath27); stroke:none;"
         clip-path="url(#clipPath27)"
         id="path343" />
    </g>
    <g
       style="text-rendering:geometricPrecision;"
       id="g351">
      <path
         d="M431.1889 122.9541 L551.9791 122.4767"
         style="fill:none; clip-path:url(#clipPath28);"
         clip-path="url(#clipPath28)"
         id="path347" />
      <path
         d="M551.9791 122.4767 L540.2586 117.323 L540.2997 127.7229 Z"
         style="clip-path:url(#clipPath28); fill-rule:evenodd; stroke:none;"
         clip-path="url(#clipPath28)"
         id="path349" />
    </g>
    <g
       style="text-rendering:geometricPrecision;"
       id="g357">
      <path
         d="M358.7491 355.4767 L358.7491 458.5595"
         style="fill:none; clip-path:url(#clipPath29);"
         clip-path="url(#clipPath29)"
         id="path353" />
      <path
         d="M358.7491 458.5595 L363.9491 446.8595 L353.5491 446.8595 Z"
         style="clip-path:url(#clipPath29); fill-rule:evenodd; stroke:none;"
         clip-path="url(#clipPath29)"
         id="path355" />
    </g>
    <g
       style="fill:white; text-rendering:geometricPrecision; stroke:white;"
       id="g365">
      <path
         d="M678.1892 151.4767 L829.3486 151.4767 L829.3486 171.4767 L678.1892 171.4767 L678.1892 151.4767 Z"
         style="clip-path:url(#clipPath30); stroke:none;"
         clip-path="url(#clipPath30)"
         id="path359" />
      <path
         d="M678.1892 151.4767 L829.3486 151.4767 L829.3486 171.4767 L678.1892 171.4767 L678.1892 151.4767 Z"
         style="fill:none; clip-path:url(#clipPath30); stroke:black;"
         clip-path="url(#clipPath30)"
         id="path361" />
      <text
         x="687"
         y="165"
         style="font-size:10; clip-path:url(#clipPath30); fill:black; stroke:none;"
         xml:space="preserve"
         clip-path="url(#clipPath30)"
         id="text363">DNA, proteins, metabolites</text>
    </g>
    <g
       style="fill:white; text-rendering:geometricPrecision; stroke:white;"
       id="g373">
      <path
         d="M263.59 266.3483 L309.1294 266.3483 L309.1294 286.3483 L263.59 286.3483 L263.59 266.3483 Z"
         style="clip-path:url(#clipPath31); stroke:none;"
         clip-path="url(#clipPath31)"
         id="path367" />
      <path
         d="M263.59 266.3483 L309.1294 266.3483 L309.1294 286.3483 L263.59 286.3483 L263.59 266.3483 Z"
         style="fill:none; clip-path:url(#clipPath31); stroke:black;"
         clip-path="url(#clipPath31)"
         id="path369" />
      <text
         x="276"
         y="280"
         style="font-size:10; clip-path:url(#clipPath31); fill:black; stroke:none;"
         xml:space="preserve"
         clip-path="url(#clipPath31)"
         id="text371">CBS</text>
    </g>
    <g
       style="fill:white; text-rendering:geometricPrecision; stroke:white;"
       id="g381">
      <path
         d="M227.0582 421.2914 L267.0582 421.2914 L267.0582 441.2914 L227.0582 441.2914 L227.0582 421.2914 Z"
         style="clip-path:url(#clipPath32); stroke:none;"
         clip-path="url(#clipPath32)"
         id="path375" />
      <path
         d="M227.0582 421.2914 L267.0582 421.2914 L267.0582 441.2914 L227.0582 441.2914 L227.0582 421.2914 Z"
         style="fill:none; clip-path:url(#clipPath32); stroke:black;"
         clip-path="url(#clipPath32)"
         id="path377" />
      <text
         x="237"
         y="435"
         style="font-size:10; clip-path:url(#clipPath32); fill:black; stroke:none;"
         xml:space="preserve"
         clip-path="url(#clipPath32)"
         id="text379">CTH</text>
    </g>
    <g
       style="fill:white; text-rendering:geometricPrecision; stroke:white;"
       id="g389">
      <path
         d="M263.59 286.3483 L309.1294 286.3483 L309.1294 306.3483 L263.59 306.3483 L263.59 286.3483 Z"
         style="clip-path:url(#clipPath33); stroke:none;"
         clip-path="url(#clipPath33)"
         id="path383" />
      <path
         d="M263.59 286.3483 L309.1294 286.3483 L309.1294 306.3483 L263.59 306.3483 L263.59 286.3483 Z"
         style="fill:none; clip-path:url(#clipPath33); stroke:black;"
         clip-path="url(#clipPath33)"
         id="path385" />
      <text
         x="276"
         y="300"
         style="font-size:10; clip-path:url(#clipPath33); fill:black; stroke:none;"
         xml:space="preserve"
         clip-path="url(#clipPath33)"
         id="text387">CTH</text>
    </g>
    <g
       style="fill:white; text-rendering:geometricPrecision; stroke:white;"
       id="g397">
      <path
         d="M226.5582 381.2914 L267.5582 381.2914 L267.5582 401.2914 L226.5582 401.2914 L226.5582 381.2914 Z"
         style="clip-path:url(#clipPath34); stroke:none;"
         clip-path="url(#clipPath34)"
         id="path391" />
      <path
         d="M226.5582 381.2914 L267.5582 381.2914 L267.5582 401.2914 L226.5582 401.2914 L226.5582 381.2914 Z"
         style="fill:none; clip-path:url(#clipPath34); stroke:black;"
         clip-path="url(#clipPath34)"
         id="path393" />
      <text
         x="233"
         y="395"
         style="font-size:10; clip-path:url(#clipPath34); fill:black; stroke:none;"
         xml:space="preserve"
         clip-path="url(#clipPath34)"
         id="text395">GOT1</text>
    </g>
    <g
       style="fill:white; text-rendering:geometricPrecision; stroke:white;"
       id="g405">
      <path
         d="M155.665 458.5595 L235.665 458.5595 L235.665 478.5595 L155.665 478.5595 L155.665 458.5595 Z"
         style="clip-path:url(#clipPath35); stroke:none;"
         clip-path="url(#clipPath35)"
         id="path399" />
      <path
         d="M155.665 458.5595 L235.665 458.5595 L235.665 478.5595 L155.665 478.5595 L155.665 458.5595 Z"
         style="fill:none; clip-path:url(#clipPath35); stroke:blue;"
         clip-path="url(#clipPath35)"
         id="path401" />
      <text
         x="164"
         y="472"
         style="font-size:10; clip-path:url(#clipPath35); fill:blue; stroke:none;"
         xml:space="preserve"
         clip-path="url(#clipPath35)"
         id="text403">L-Glutamate</text>
    </g>
    <g
       style="fill:white; text-rendering:geometricPrecision; stroke:white;"
       id="g413">
      <path
         d="M474.2534 270.5776 L516.2534 270.5776 L516.2534 290.5776 L474.2534 290.5776 L474.2534 270.5776 Z"
         style="clip-path:url(#clipPath36); stroke:none;"
         clip-path="url(#clipPath36)"
         id="path407" />
      <path
         d="M474.2534 270.5776 L516.2534 270.5776 L516.2534 290.5776 L474.2534 290.5776 L474.2534 270.5776 Z"
         style="fill:none; clip-path:url(#clipPath36); stroke:black;"
         clip-path="url(#clipPath36)"
         id="path409" />
      <text
         x="482"
         y="284"
         style="font-size:10; clip-path:url(#clipPath36); fill:black; stroke:none;"
         xml:space="preserve"
         clip-path="url(#clipPath36)"
         id="text411">AHCY</text>
    </g>
    <g
       style="fill:white; text-rendering:geometricPrecision; stroke:white;"
       id="g421">
      <path
         d="M456.5443 165.9187 L503.5443 165.9187 L503.5443 185.9187 L456.5443 185.9187 L456.5443 165.9187 Z"
         style="clip-path:url(#clipPath37); stroke:none;"
         clip-path="url(#clipPath37)"
         id="path415" />
      <path
         d="M456.5443 165.9187 L503.5443 165.9187 L503.5443 185.9187 L456.5443 185.9187 L456.5443 165.9187 Z"
         style="fill:none; clip-path:url(#clipPath37); stroke:black;"
         clip-path="url(#clipPath37)"
         id="path417" />
      <text
         x="463"
         y="179"
         style="font-size:10; clip-path:url(#clipPath37); fill:black; stroke:none;"
         xml:space="preserve"
         clip-path="url(#clipPath37)"
         id="text419">MAT2B</text>
    </g>
    <g
       style="fill:white; text-rendering:geometricPrecision; stroke:white;"
       id="g429">
      <path
         d="M318.7491 335.4767 L398.7491 335.4767 L398.7491 355.4767 L318.7491 355.4767 L318.7491 335.4767 Z"
         style="clip-path:url(#clipPath38); stroke:none;"
         clip-path="url(#clipPath38)"
         id="path423" />
      <path
         d="M318.7491 335.4767 L398.7491 335.4767 L398.7491 355.4767 L318.7491 355.4767 L318.7491 335.4767 Z"
         style="fill:none; clip-path:url(#clipPath38); stroke:blue;"
         clip-path="url(#clipPath38)"
         id="path425" />
      <text
         x="332"
         y="349"
         style="font-size:10; clip-path:url(#clipPath38); fill:blue; stroke:none;"
         xml:space="preserve"
         clip-path="url(#clipPath38)"
         id="text427">L-Cysteine</text>
    </g>
    <g
       style="fill:white; text-rendering:geometricPrecision; stroke:white;"
       id="g437">
      <path
         d="M118.9791 335.4767 L198.9791 335.4767 L198.9791 355.4767 L118.9791 355.4767 L118.9791 335.4767 Z"
         style="clip-path:url(#clipPath39); stroke:none;"
         clip-path="url(#clipPath39)"
         id="path431" />
      <path
         d="M118.9791 335.4767 L198.9791 335.4767 L198.9791 355.4767 L118.9791 355.4767 L118.9791 335.4767 Z"
         style="fill:none; clip-path:url(#clipPath39); stroke:blue;"
         clip-path="url(#clipPath39)"
         id="path433" />
      <text
         x="136"
         y="349"
         style="font-size:10; clip-path:url(#clipPath39); fill:blue; stroke:none;"
         xml:space="preserve"
         clip-path="url(#clipPath39)"
         id="text435">Pyruvate</text>
    </g>
    <g
       style="fill:white; text-rendering:geometricPrecision; stroke:white;"
       id="g445">
      <path
         d="M84.6575 113.722 L209.1575 113.722 L209.1575 134.3825 L84.6575 134.3825 L84.6575 113.722 Z"
         style="clip-path:url(#clipPath40); stroke:none;"
         clip-path="url(#clipPath40)"
         id="path439" />
      <path
         d="M84.6575 113.722 L209.1575 113.722 L209.1575 134.3825 L84.6575 134.3825 L84.6575 113.722 Z"
         style="fill:none; clip-path:url(#clipPath40); stroke:blue;"
         clip-path="url(#clipPath40)"
         id="path441" />
      <text
         x="90"
         y="127"
         style="font-size:10; clip-path:url(#clipPath40); fill:blue; stroke:none;"
         xml:space="preserve"
         clip-path="url(#clipPath40)"
         id="text443">Tetrahydrofolate (THF)</text>
    </g>
    <g
       style="fill:white; text-rendering:geometricPrecision; stroke:white;"
       id="g453">
      <path
         d="M387.4791 49.0458 L467.4791 49.0458 L467.4791 69.0458 L387.4791 69.0458 L387.4791 49.0458 Z"
         style="clip-path:url(#clipPath41); stroke:none;"
         clip-path="url(#clipPath41)"
         id="path447" />
      <path
         d="M387.4791 49.0458 L467.4791 49.0458 L467.4791 69.0458 L387.4791 69.0458 L387.4791 49.0458 Z"
         style="fill:none; clip-path:url(#clipPath41); stroke:blue;"
         clip-path="url(#clipPath41)"
         id="path449" />
      <text
         x="418"
         y="63"
         style="font-size:10; clip-path:url(#clipPath41); fill:blue; stroke:none;"
         xml:space="preserve"
         clip-path="url(#clipPath41)"
         id="text451">ATP</text>
    </g>
    <g
       style="fill:white; text-rendering:geometricPrecision; stroke:white;"
       id="g461">
      <path
         d="M119.8273 233.3976 L199.8273 233.3976 L199.8273 253.3976 L119.8273 253.3976 L119.8273 233.3976 Z"
         style="clip-path:url(#clipPath42); stroke:none;"
         clip-path="url(#clipPath42)"
         id="path455" />
      <path
         d="M119.8273 233.3976 L199.8273 233.3976 L199.8273 253.3976 L119.8273 253.3976 L119.8273 233.3976 Z"
         style="fill:none; clip-path:url(#clipPath42); stroke:blue;"
         clip-path="url(#clipPath42)"
         id="path457" />
      <text
         x="126"
         y="247"
         style="font-size:10; clip-path:url(#clipPath42); fill:blue; stroke:none;"
         xml:space="preserve"
         clip-path="url(#clipPath42)"
         id="text459">5-Methyl-THF</text>
    </g>
    <g
       style="fill:white; text-rendering:geometricPrecision; stroke:white;"
       id="g469">
      <path
         d="M226.6832 401.2914 L267.4332 401.2914 L267.4332 421.2914 L226.6832 421.2914 L226.6832 401.2914 Z"
         style="clip-path:url(#clipPath43); stroke:none;"
         clip-path="url(#clipPath43)"
         id="path463" />
      <path
         d="M226.6832 401.2914 L267.4332 401.2914 L267.4332 421.2914 L226.6832 421.2914 L226.6832 401.2914 Z"
         style="fill:none; clip-path:url(#clipPath43); stroke:black;"
         clip-path="url(#clipPath43)"
         id="path465" />
      <text
         x="234"
         y="415"
         style="font-size:10; clip-path:url(#clipPath43); fill:black; stroke:none;"
         xml:space="preserve"
         clip-path="url(#clipPath43)"
         id="text467">MPST</text>
    </g>
    <g
       style="fill:white; text-rendering:geometricPrecision; stroke:white;"
       id="g477">
      <path
         d="M318.7491 458.5595 L398.7491 458.5595 L398.7491 478.5595 L318.7491 478.5595 L318.7491 458.5595 Z"
         style="clip-path:url(#clipPath44); stroke:none;"
         clip-path="url(#clipPath44)"
         id="path471" />
      <path
         d="M318.7491 458.5595 L398.7491 458.5595 L398.7491 478.5595 L318.7491 478.5595 L318.7491 458.5595 Z"
         style="fill:none; clip-path:url(#clipPath44); stroke:blue;"
         clip-path="url(#clipPath44)"
         id="path473" />
      <text
         x="329"
         y="472"
         style="font-size:10; clip-path:url(#clipPath44); fill:blue; stroke:none;"
         xml:space="preserve"
         clip-path="url(#clipPath44)"
         id="text475">Glutathione</text>
    </g>
    <g
       style="fill:white; text-rendering:geometricPrecision; stroke:white;"
       id="g485">
      <path
         d="M308.1889 112.9541 L431.1889 112.9541 L431.1889 132.9541 L308.1889 132.9541 L308.1889 112.9541 Z"
         style="clip-path:url(#clipPath45); stroke:none;"
         clip-path="url(#clipPath45)"
         id="path479" />
      <path
         d="M308.1889 112.9541 L431.1889 112.9541 L431.1889 132.9541 L308.1889 132.9541 L308.1889 112.9541 Z"
         style="fill:none; clip-path:url(#clipPath45); stroke:blue;"
         clip-path="url(#clipPath45)"
         id="path481" />
      <text
         x="338"
         y="126"
         style="font-size:10; clip-path:url(#clipPath45); fill:blue; stroke:none;"
         xml:space="preserve"
         clip-path="url(#clipPath45)"
         id="text483">L-Methionine</text>
    </g>
    <g
       style="fill:white; text-rendering:geometricPrecision; stroke:white;"
       id="g493">
      <path
         d="M308.5192 233.3976 L408.9791 233.3976 L408.9791 253.3976 L308.5192 253.3976 L308.5192 233.3976 Z"
         style="clip-path:url(#clipPath46); stroke:none;"
         clip-path="url(#clipPath46)"
         id="path487" />
      <path
         d="M308.5192 233.3976 L408.9791 233.3976 L408.9791 253.3976 L308.5192 253.3976 L308.5192 233.3976 Z"
         style="fill:none; clip-path:url(#clipPath46); stroke:blue;"
         clip-path="url(#clipPath46)"
         id="path489" />
      <text
         x="318"
         y="247"
         style="font-size:10; clip-path:url(#clipPath46); fill:blue; stroke:none;"
         xml:space="preserve"
         clip-path="url(#clipPath46)"
         id="text491">L-Homocysteine</text>
    </g>
    <g
       style="fill:white; text-rendering:geometricPrecision; stroke:white;"
       id="g501">
      <path
         d="M678.1892 195.4187 L829.3486 195.4187 L829.3486 215.4187 L678.1892 215.4187 L678.1892 195.4187 Z"
         style="clip-path:url(#clipPath47); stroke:none;"
         clip-path="url(#clipPath47)"
         id="path495" />
      <path
         d="M678.1892 195.4187 L829.3486 195.4187 L829.3486 215.4187 L678.1892 215.4187 L678.1892 195.4187 Z"
         style="fill:none; clip-path:url(#clipPath47); stroke:black;"
         clip-path="url(#clipPath47)"
         id="path497" />
      <text
         x="703"
         y="209"
         style="font-size:10; clip-path:url(#clipPath47); fill:black; stroke:none;"
         xml:space="preserve"
         clip-path="url(#clipPath47)"
         id="text499">Methylated products</text>
    </g>
    <g
       style="fill:white; text-rendering:geometricPrecision; stroke:white;"
       id="g509">
      <path
         d="M425.2627 301.2972 L470.2627 301.2972 L470.2627 321.2972 L425.2627 321.2972 L425.2627 301.2972 Z"
         style="clip-path:url(#clipPath48); stroke:none;"
         clip-path="url(#clipPath48)"
         id="path503" />
      <path
         d="M425.2627 301.2972 L470.2627 301.2972 L470.2627 321.2972 L425.2627 321.2972 L425.2627 301.2972 Z"
         style="fill:none; clip-path:url(#clipPath48); stroke:black;"
         clip-path="url(#clipPath48)"
         id="path505" />
      <text
         x="435"
         y="315"
         style="font-size:10; clip-path:url(#clipPath48); fill:black; stroke:none;"
         xml:space="preserve"
         clip-path="url(#clipPath48)"
         id="text507">CSAD</text>
    </g>
    <g
       style="fill:white; text-rendering:geometricPrecision; stroke:white;"
       id="g517">
      <path
         d="M530.9283 170.5709 L578.9283 170.5709 L578.9283 190.5709 L530.9283 190.5709 L530.9283 170.5709 Z"
         style="clip-path:url(#clipPath49); stroke:none;"
         clip-path="url(#clipPath49)"
         id="path511" />
      <path
         d="M530.9283 170.5709 L578.9283 170.5709 L578.9283 190.5709 L530.9283 190.5709 L530.9283 170.5709 Z"
         style="fill:none; clip-path:url(#clipPath49); stroke:black;"
         clip-path="url(#clipPath49)"
         id="path513" />
      <text
         x="536"
         y="184"
         style="font-size:10; clip-path:url(#clipPath49); fill:black; stroke:none;"
         xml:space="preserve"
         clip-path="url(#clipPath49)"
         id="text515">DNMT1</text>
    </g>
    <g
       style="fill:white; text-rendering:geometricPrecision; stroke:white;"
       id="g525">
      <path
         d="M520.9825 335.4767 L600.9825 335.4767 L600.9825 355.4767 L520.9825 355.4767 L520.9825 335.4767 Z"
         style="clip-path:url(#clipPath50); stroke:none;"
         clip-path="url(#clipPath50)"
         id="path519" />
      <path
         d="M520.9825 335.4767 L600.9825 335.4767 L600.9825 355.4767 L520.9825 355.4767 L520.9825 335.4767 Z"
         style="fill:none; clip-path:url(#clipPath50); stroke:blue;"
         clip-path="url(#clipPath50)"
         id="path521" />
      <text
         x="542"
         y="349"
         style="font-size:10; clip-path:url(#clipPath50); fill:blue; stroke:none;"
         xml:space="preserve"
         clip-path="url(#clipPath50)"
         id="text523">Taurine</text>
    </g>
    <g
       style="fill:white; text-rendering:geometricPrecision; stroke:white;"
       id="g533">
      <path
         d="M523.6 49.0458 L603.6 49.0458 L603.6 69.0458 L523.6 69.0458 L523.6 49.0458 Z"
         style="clip-path:url(#clipPath51); stroke:none;"
         clip-path="url(#clipPath51)"
         id="path527" />
      <path
         d="M523.6 49.0458 L603.6 49.0458 L603.6 69.0458 L523.6 69.0458 L523.6 49.0458 Z"
         style="fill:none; clip-path:url(#clipPath51); stroke:blue;"
         clip-path="url(#clipPath51)"
         id="path529" />
      <text
         x="553"
         y="63"
         style="font-size:10; clip-path:url(#clipPath51); fill:blue; stroke:none;"
         xml:space="preserve"
         clip-path="url(#clipPath51)"
         id="text531">ADP</text>
    </g>
    <g
       style="fill:white; text-rendering:geometricPrecision; stroke:white;"
       id="g541">
      <path
         d="M551.9791 112.4767 L717.9791 112.4767 L717.9791 132.4767 L551.9791 132.4767 L551.9791 112.4767 Z"
         style="clip-path:url(#clipPath52); stroke:none;"
         clip-path="url(#clipPath52)"
         id="path535" />
      <path
         d="M551.9791 112.4767 L717.9791 112.4767 L717.9791 132.4767 L551.9791 132.4767 L551.9791 112.4767 Z"
         style="fill:none; clip-path:url(#clipPath52); stroke:blue;"
         clip-path="url(#clipPath52)"
         id="path537" />
      <text
         x="559"
         y="126"
         style="font-size:10; clip-path:url(#clipPath52); fill:blue; stroke:none;"
         xml:space="preserve"
         clip-path="url(#clipPath52)"
         id="text539">S-Adenosylmethionine (SAMe)</text>
    </g>
    <g
       style="fill:white; text-rendering:geometricPrecision; stroke:white;"
       id="g549">
      <path
         d="M403.3363 387.0651 L446.3363 387.0651 L446.3363 407.0651 L403.3363 407.0651 L403.3363 387.0651 Z"
         style="clip-path:url(#clipPath53); stroke:none;"
         clip-path="url(#clipPath53)"
         id="path543" />
      <path
         d="M403.3363 387.0651 L446.3363 387.0651 L446.3363 407.0651 L403.3363 407.0651 L403.3363 387.0651 Z"
         style="fill:none; clip-path:url(#clipPath53); stroke:black;"
         clip-path="url(#clipPath53)"
         id="path545" />
      <text
         x="411"
         y="401"
         style="font-size:10; clip-path:url(#clipPath53); fill:black; stroke:none;"
         xml:space="preserve"
         clip-path="url(#clipPath53)"
         id="text547">GCLM</text>
    </g>
    <g
       style="fill:white; text-rendering:geometricPrecision; stroke:white;"
       id="g557">
      <path
         d="M288.1965 177.7231 L337.1965 177.7231 L337.1965 197.7231 L288.1965 197.7231 L288.1965 177.7231 Z"
         style="clip-path:url(#clipPath54); stroke:none;"
         clip-path="url(#clipPath54)"
         id="path551" />
      <path
         d="M288.1965 177.7231 L337.1965 177.7231 L337.1965 197.7231 L288.1965 197.7231 L288.1965 177.7231 Z"
         style="fill:none; clip-path:url(#clipPath54); stroke:black;"
         clip-path="url(#clipPath54)"
         id="path553" />
      <text
         x="303"
         y="191"
         style="font-size:10; clip-path:url(#clipPath54); fill:black; stroke:none;"
         xml:space="preserve"
         clip-path="url(#clipPath54)"
         id="text555">MTR</text>
    </g>
    <g
       style="fill:white; text-rendering:geometricPrecision; stroke:white;"
       id="g565">
      <path
         d="M552.9791 232.3976 L716.9791 232.3976 L716.9791 254.3976 L552.9791 254.3976 L552.9791 232.3976 Z"
         style="clip-path:url(#clipPath55); stroke:none;"
         clip-path="url(#clipPath55)"
         id="path559" />
      <path
         d="M552.9791 232.3976 L716.9791 232.3976 L716.9791 254.3976 L552.9791 254.3976 L552.9791 232.3976 Z"
         style="fill:none; clip-path:url(#clipPath55); stroke:blue;"
         clip-path="url(#clipPath55)"
         id="path561" />
      <text
         x="556"
         y="247"
         style="font-size:10; clip-path:url(#clipPath55); fill:blue; stroke:none;"
         xml:space="preserve"
         clip-path="url(#clipPath55)"
         id="text563">S-Adenosylhomocysteine (SAH)</text>
    </g>
    <g
       style="fill:white; text-rendering:geometricPrecision; stroke:white;"
       id="g573">
      <path
         d="M246.4881 502.4439 L289.4881 502.4439 L289.4881 522.4439 L246.4881 522.4439 L246.4881 502.4439 Z"
         style="clip-path:url(#clipPath56); stroke:none;"
         clip-path="url(#clipPath56)"
         id="path567" />
      <path
         d="M246.4881 502.4439 L289.4881 502.4439 L289.4881 522.4439 L246.4881 522.4439 L246.4881 502.4439 Z"
         style="fill:none; clip-path:url(#clipPath56); stroke:black;"
         clip-path="url(#clipPath56)"
         id="path569" />
      <text
         x="254"
         y="516"
         style="font-size:10; clip-path:url(#clipPath56); fill:black; stroke:none;"
         xml:space="preserve"
         clip-path="url(#clipPath56)"
         id="text571">GCLM</text>
    </g>
    <g
       style="fill:white; text-rendering:geometricPrecision; stroke:white;"
       id="g581">
      <path
         d="M523.6 69.0458 L603.6 69.0458 L603.6 89.0458 L523.6 89.0458 L523.6 69.0458 Z"
         style="clip-path:url(#clipPath57); stroke:none;"
         clip-path="url(#clipPath57)"
         id="path575" />
      <path
         d="M523.6 69.0458 L603.6 69.0458 L603.6 89.0458 L523.6 89.0458 L523.6 69.0458 Z"
         style="fill:none; clip-path:url(#clipPath57); stroke:blue;"
         clip-path="url(#clipPath57)"
         id="path577" />
      <text
         x="537"
         y="83"
         style="font-size:10; clip-path:url(#clipPath57); fill:blue; stroke:none;"
         xml:space="preserve"
         clip-path="url(#clipPath57)"
         id="text579">Phosphate</text>
    </g>
  </g>
</svg>
