<?xml version="1.0" encoding="UTF-8" standalone="no"?>
<svg
   style="fill-opacity:1; color-rendering:auto; color-interpolation:auto; stroke:black; text-rendering:auto; stroke-linecap:square; stroke-miterlimit:10; stroke-opacity:1; shape-rendering:auto; fill:black; stroke-dasharray:none; font-weight:normal; stroke-width:1; font-family:'Dialog'; font-style:normal; stroke-linejoin:miter; font-size:12; stroke-dashoffset:0; image-rendering:auto;"
   width="827"
   height="689"
   version="1.1"
   id="svg468"
   xmlns="http://www.w3.org/2000/svg"
   xmlns:svg="http://www.w3.org/2000/svg">
  <!--Generated by the Batik Graphics2D SVG Generator-->
  <defs
     id="genericDefs" />
  <g
     id="g466">
    <defs
       id="defs1">
      <clipPath
         clipPathUnits="userSpaceOnUse"
         id="clipPath1">
        <path
           d="M0 0 L837 0 L837 699 L0 699 L0 0 Z"
           id="path3" />
      </clipPath>
      <clipPath
         clipPathUnits="userSpaceOnUse"
         id="clipPath2">
        <path
           d="M0 0 L0 200 L200 200 L200 0 Z"
           id="path6" />
      </clipPath>
      <clipPath
         clipPathUnits="userSpaceOnUse"
         id="clipPath3">
        <path
           d="M403 16 L403 37 L414 37 L414 16 Z"
           id="path9" />
      </clipPath>
      <clipPath
         clipPathUnits="userSpaceOnUse"
         id="clipPath4">
        <path
           d="M402.4551 3.918 L413.5449 3.918 L413.5449 19.2305 L402.4551 19.2305 L402.4551 3.918 Z"
           id="path12" />
      </clipPath>
      <clipPath
         clipPathUnits="userSpaceOnUse"
         id="clipPath5">
        <path
           d="M211 148 L211 232 L315 232 L315 148 Z"
           id="path15" />
      </clipPath>
      <clipPath
         clipPathUnits="userSpaceOnUse"
         id="clipPath6">
        <path
           d="M261.9396 95.5653 L261.9396 148.6847 L351.4347 148.6847 L351.4347 95.5653 Z"
           id="path18" />
      </clipPath>
      <clipPath
         clipPathUnits="userSpaceOnUse"
         id="clipPath7">
        <path
           d="M262.2966 231.2966 L262.2966 341.7769 L397.9551 341.7769 L397.9551 231.2966 Z"
           id="path21" />
      </clipPath>
      <clipPath
         clipPathUnits="userSpaceOnUse"
         id="clipPath8">
        <path
           d="M514.7957 431.2957 L514.7957 497.2681 L577.2582 497.2681 L577.2582 431.2957 Z"
           id="path24" />
      </clipPath>
      <clipPath
         clipPathUnits="userSpaceOnUse"
         id="clipPath9">
        <path
           d="M534.0306 209.5 L534.0306 248.2311 L545.9694 248.2311 L545.9694 209.5 Z"
           id="path27" />
      </clipPath>
      <clipPath
         clipPathUnits="userSpaceOnUse"
         id="clipPath10">
        <path
           d="M454.0306 209.5 L454.0306 248.2311 L465.9694 248.2311 L465.9694 209.5 Z"
           id="path30" />
      </clipPath>
      <clipPath
         clipPathUnits="userSpaceOnUse"
         id="clipPath11">
        <path
           d="M331.9656 431.456 L331.9656 490.1504 L353.044 490.1504 L353.044 431.456 Z"
           id="path33" />
      </clipPath>
      <clipPath
         clipPathUnits="userSpaceOnUse"
         id="clipPath12">
        <path
           d="M438.1644 274.2934 L438.1644 341.9041 L500.7066 341.9041 L500.7066 274.2934 Z"
           id="path36" />
      </clipPath>
      <clipPath
         clipPathUnits="userSpaceOnUse"
         id="clipPath13">
        <path
           d="M390.048 95.548 L390.048 182.7601 L500.9684 182.7601 L500.9684 95.548 Z"
           id="path39" />
      </clipPath>
      <clipPath
         clipPathUnits="userSpaceOnUse"
         id="clipPath14">
        <path
           d="M129 78 L129 675 L813 675 L813 78 Z"
           id="path42" />
      </clipPath>
      <clipPath
         clipPathUnits="userSpaceOnUse"
         id="clipPath15">
        <path
           d="M138 290 L138 650 L782 650 L782 290 Z"
           id="path45" />
      </clipPath>
      <clipPath
         clipPathUnits="userSpaceOnUse"
         id="clipPath16">
        <path
           d="M545.5 564.5 L545.5 589.5 L682.5 589.5 L682.5 564.5 Z"
           id="path48" />
      </clipPath>
      <clipPath
         clipPathUnits="userSpaceOnUse"
         id="clipPath17">
        <path
           d="M157.5 108.5 L157.5 129.5 L252.5 129.5 L252.5 108.5 Z"
           id="path51" />
      </clipPath>
      <clipPath
         clipPathUnits="userSpaceOnUse"
         id="clipPath18">
        <path
           d="M616.5 381.5 L616.5 402.5 L737.5 402.5 L737.5 381.5 Z"
           id="path54" />
      </clipPath>
      <clipPath
         clipPathUnits="userSpaceOnUse"
         id="clipPath19">
        <path
           d="M264.5 576.5 L264.5 597.5 L432.5 597.5 L432.5 576.5 Z"
           id="path57" />
      </clipPath>
      <clipPath
         clipPathUnits="userSpaceOnUse"
         id="clipPath20">
        <path
           d="M354.5 340.5 L354.5 361.5 L523.5 361.5 L523.5 340.5 Z"
           id="path60" />
      </clipPath>
      <clipPath
         clipPathUnits="userSpaceOnUse"
         id="clipPath21">
        <path
           d="M419.5 189.5 L419.5 210.5 L500.5 210.5 L500.5 189.5 Z"
           id="path63" />
      </clipPath>
      <clipPath
         clipPathUnits="userSpaceOnUse"
         id="clipPath22">
        <path
           d="M278.5 369.5 L278.5 390.5 L359.5 390.5 L359.5 369.5 Z"
           id="path66" />
      </clipPath>
      <clipPath
         clipPathUnits="userSpaceOnUse"
         id="clipPath23">
        <path
           d="M222.5 179.5 L222.5 200.5 L303.5 200.5 L303.5 179.5 Z"
           id="path69" />
      </clipPath>
      <clipPath
         clipPathUnits="userSpaceOnUse"
         id="clipPath24">
        <path
           d="M563.5 513.5 L563.5 534.5 L644.5 534.5 L644.5 513.5 Z"
           id="path72" />
      </clipPath>
      <clipPath
         clipPathUnits="userSpaceOnUse"
         id="clipPath25">
        <path
           d="M330.25 75.75 L330.25 96.75 L411.25 96.75 L411.25 75.75 Z"
           id="path75" />
      </clipPath>
      <clipPath
         clipPathUnits="userSpaceOnUse"
         id="clipPath26">
        <path
           d="M267.5 533.5 L267.5 554.5 L348.5 554.5 L348.5 533.5 Z"
           id="path78" />
      </clipPath>
      <clipPath
         clipPathUnits="userSpaceOnUse"
         id="clipPath27">
        <path
           d="M222.5 199.5 L222.5 220.5 L303.5 220.5 L303.5 199.5 Z"
           id="path81" />
      </clipPath>
      <clipPath
         clipPathUnits="userSpaceOnUse"
         id="clipPath28">
        <path
           d="M267.5 493.5 L267.5 514.5 L348.5 514.5 L348.5 493.5 Z"
           id="path84" />
      </clipPath>
      <clipPath
         clipPathUnits="userSpaceOnUse"
         id="clipPath29">
        <path
           d="M499.5 246.5 L499.5 267.5 L580.5 267.5 L580.5 246.5 Z"
           id="path87" />
      </clipPath>
      <clipPath
         clipPathUnits="userSpaceOnUse"
         id="clipPath30">
        <path
           d="M563.5 493.5 L563.5 514.5 L644.5 514.5 L644.5 493.5 Z"
           id="path90" />
      </clipPath>
      <clipPath
         clipPathUnits="userSpaceOnUse"
         id="clipPath31">
        <path
           d="M454.5 403.5 L454.5 424.5 L535.5 424.5 L535.5 403.5 Z"
           id="path93" />
      </clipPath>
      <clipPath
         clipPathUnits="userSpaceOnUse"
         id="clipPath32">
        <path
           d="M419.5 246.5 L419.5 267.5 L500.5 267.5 L500.5 246.5 Z"
           id="path96" />
      </clipPath>
      <clipPath
         clipPathUnits="userSpaceOnUse"
         id="clipPath33">
        <path
           d="M222.5 159.5 L222.5 180.5 L303.5 180.5 L303.5 159.5 Z"
           id="path99" />
      </clipPath>
      <clipPath
         clipPathUnits="userSpaceOnUse"
         id="clipPath34">
        <path
           d="M267.5 513.5 L267.5 534.5 L348.5 534.5 L348.5 513.5 Z"
           id="path102" />
      </clipPath>
      <clipPath
         clipPathUnits="userSpaceOnUse"
         id="clipPath35">
        <path
           d="M346.5 493.5 L346.5 514.5 L427.5 514.5 L427.5 493.5 Z"
           id="path105" />
      </clipPath>
      <clipPath
         clipPathUnits="userSpaceOnUse"
         id="clipPath36">
        <path
           d="M508.5 373.5 L508.5 394.5 L589.5 394.5 L589.5 373.5 Z"
           id="path108" />
      </clipPath>
      <clipPath
         clipPathUnits="userSpaceOnUse"
         id="clipPath37">
        <path
           d="M346.5 513.5 L346.5 534.5 L427.5 534.5 L427.5 513.5 Z"
           id="path111" />
      </clipPath>
      <clipPath
         clipPathUnits="userSpaceOnUse"
         id="clipPath38">
        <path
           d="M361.5 402.5 L361.5 423.5 L442.5 423.5 L442.5 402.5 Z"
           id="path114" />
      </clipPath>
      <clipPath
         clipPathUnits="userSpaceOnUse"
         id="clipPath39">
        <path
           d="M499.5 189.5 L499.5 210.5 L580.5 210.5 L580.5 189.5 Z"
           id="path117" />
      </clipPath>
      <clipPath
         clipPathUnits="userSpaceOnUse"
         id="clipPath40">
        <path
           d="M572 259 L572 275 L588 275 L588 259 Z"
           id="path120" />
      </clipPath>
      <clipPath
         clipPathUnits="userSpaceOnUse"
         id="clipPath41">
        <path
           d="M295 192 L295 208 L311 208 L311 192 Z"
           id="path123" />
      </clipPath>
      <clipPath
         clipPathUnits="userSpaceOnUse"
         id="clipPath42">
        <path
           d="M402.75 88.25 L402.75 104.25 L418.75 104.25 L418.75 88.25 Z"
           id="path126" />
      </clipPath>
      <clipPath
         clipPathUnits="userSpaceOnUse"
         id="clipPath43">
        <path
           d="M492 258 L492 274 L508 274 L508 258 Z"
           id="path129" />
      </clipPath>
      <clipPath
         clipPathUnits="userSpaceOnUse"
         id="clipPath44">
        <path
           d="M322.75 88.25 L322.75 104.25 L338.75 104.25 L338.75 88.25 Z"
           id="path132" />
      </clipPath>
      <clipPath
         clipPathUnits="userSpaceOnUse"
         id="clipPath45">
        <path
           d="M295 172 L295 188 L311 188 L311 172 Z"
           id="path135" />
      </clipPath>
      <clipPath
         clipPathUnits="userSpaceOnUse"
         id="clipPath46">
        <path
           d="M402.75 68.25 L402.75 84.25 L418.75 84.25 L418.75 68.25 Z"
           id="path138" />
      </clipPath>
      <clipPath
         clipPathUnits="userSpaceOnUse"
         id="clipPath47">
        <path
           d="M453.5 110.5 L453.5 131.5 L586.5 131.5 L586.5 110.5 Z"
           id="path141" />
      </clipPath>
      <clipPath
         clipPathUnits="userSpaceOnUse"
         id="clipPath48">
        <path
           d="M123.5 389.5 L123.5 410.5 L284.5 410.5 L284.5 389.5 Z"
           id="path144" />
      </clipPath>
    </defs>
    <g
       style="fill:white; stroke:white;"
       id="g150">
      <rect
         x="0"
         width="837"
         height="699"
         y="0"
         style="stroke:none;"
         id="rect148" />
    </g>
    <g
       style="font-weight:bold; font-size:10; text-rendering:geometricPrecision;"
       id="g160">
      <path
         d="M0.0469 6.7031 L6.7656 6.7031 L6.7656 8.125 L4.3438 8.125 L4.3438 14 L2.4688 14 L2.4688 8.125 L0.0469 8.125 L0.0469 6.7031 ZM7.665 8.5312 L9.415 8.5312 L9.415 14 L7.665 14 L7.665 8.5312 ZM7.665 6.4062 L9.415 6.4062 L9.415 7.8281 L7.665 7.8281 L7.665 6.4062 ZM12.999 6.9844 L12.999 8.5312 L14.7959 8.5312 L14.7959 9.7812 L12.999 9.7812 L12.999 12.0938 Q12.999 12.4844 13.1475 12.6172 Q13.2959 12.75 13.749 12.75 L14.6553 12.75 L14.6553 14 L13.1553 14 Q12.1084 14 11.6787 13.5703 Q11.249 13.1406 11.249 12.0938 L11.249 9.7812 L10.374 9.7812 L10.374 8.5312 L11.249 8.5312 L11.249 6.9844 L12.999 6.9844 ZM15.873 6.4062 L17.623 6.4062 L17.623 14 L15.873 14 L15.873 6.4062 ZM24.7539 11.25 L24.7539 11.75 L20.6758 11.75 Q20.7383 12.3594 21.1133 12.6719 Q21.4883 12.9844 22.1758 12.9844 Q22.7227 12.9844 23.3086 12.8203 Q23.8945 12.6562 24.5039 12.3125 L24.5039 13.6719 Q23.8789 13.9062 23.2617 14.0234 Q22.6445 14.1406 22.0195 14.1406 Q20.5352 14.1406 19.7148 13.3828 Q18.8945 12.625 18.8945 11.2656 Q18.8945 9.9375 19.6992 9.1719 Q20.5039 8.4062 21.9258 8.4062 Q23.207 8.4062 23.9805 9.1797 Q24.7539 9.9531 24.7539 11.25 ZM22.957 10.6719 Q22.957 10.1719 22.668 9.8672 Q22.3789 9.5625 21.9102 9.5625 Q21.3945 9.5625 21.082 9.8438 Q20.7695 10.125 20.6914 10.6719 L22.957 10.6719 ZM26.3643 8.5312 L28.1143 8.5312 L28.1143 10.4219 L26.3643 10.4219 L26.3643 8.5312 ZM26.3643 12.1094 L28.1143 12.1094 L28.1143 14 L26.3643 14 L26.3643 12.1094 Z"
         style="clip-path:url(#clipPath2); stroke:none;"
         clip-path="url(#clipPath2)"
         id="path152" />
      <path
         d="M37.9688 6.7031 L44.1406 6.7031 L44.1406 7.5469 L41.5469 7.5469 L41.5469 14 L40.5625 14 L40.5625 7.5469 L37.9688 7.5469 L37.9688 6.7031 ZM50.0615 12.9531 L50.0615 11 L48.4521 11 L48.4521 10.1875 L51.0303 10.1875 L51.0303 13.3281 Q50.4678 13.7188 49.7803 13.9297 Q49.0928 14.1406 48.3115 14.1406 Q46.5928 14.1406 45.6318 13.1406 Q44.6709 12.1406 44.6709 10.3594 Q44.6709 8.5781 45.6318 7.5781 Q46.5928 6.5781 48.3115 6.5781 Q49.0146 6.5781 49.6631 6.75 Q50.3115 6.9219 50.8428 7.2656 L50.8428 8.3281 Q50.2959 7.8594 49.6865 7.625 Q49.0771 7.3906 48.3896 7.3906 Q47.0459 7.3906 46.3818 8.1328 Q45.7178 8.875 45.7178 10.3594 Q45.7178 11.8438 46.3818 12.5859 Q47.0459 13.3281 48.3896 13.3281 Q48.9209 13.3281 49.3271 13.2422 Q49.7334 13.1562 50.0615 12.9531 ZM52.8418 6.7031 L57.0293 6.7031 L57.0293 7.5469 L53.8262 7.5469 L53.8262 9.6875 L56.7168 9.6875 L56.7168 10.5156 L53.8262 10.5156 L53.8262 14 L52.8418 14 L52.8418 6.7031 ZM58.0938 10.8594 L60.7344 10.8594 L60.7344 11.6562 L58.0938 11.6562 L58.0938 10.8594 ZM66.0928 11.2656 Q66.0928 10.2812 65.6787 9.7188 Q65.2646 9.1562 64.5615 9.1562 Q63.8428 9.1562 63.4365 9.7188 Q63.0303 10.2812 63.0303 11.2656 Q63.0303 12.2656 63.4365 12.8281 Q63.8428 13.3906 64.5615 13.3906 Q65.2646 13.3906 65.6787 12.8281 Q66.0928 12.2656 66.0928 11.2656 ZM63.0303 9.3594 Q63.3115 8.875 63.7412 8.6406 Q64.1709 8.4062 64.7803 8.4062 Q65.7803 8.4062 66.3975 9.1953 Q67.0146 9.9844 67.0146 11.2656 Q67.0146 12.5625 66.3975 13.3516 Q65.7803 14.1406 64.7803 14.1406 Q64.1709 14.1406 63.7412 13.9062 Q63.3115 13.6719 63.0303 13.1719 L63.0303 14 L62.124 14 L62.124 6.4062 L63.0303 6.4062 L63.0303 9.3594 ZM73.1904 11.0469 L73.1904 11.4844 L69.0498 11.4844 Q69.1123 12.4062 69.6123 12.8906 Q70.1123 13.375 71.0029 13.375 Q71.5186 13.375 72.0107 13.25 Q72.5029 13.125 72.9717 12.875 L72.9717 13.7188 Q72.4873 13.9219 71.9795 14.0312 Q71.4717 14.1406 70.9561 14.1406 Q69.6436 14.1406 68.8779 13.3828 Q68.1123 12.625 68.1123 11.3125 Q68.1123 9.9688 68.8389 9.1875 Q69.5654 8.4062 70.7998 8.4062 Q71.9092 8.4062 72.5498 9.1094 Q73.1904 9.8125 73.1904 11.0469 ZM72.2842 10.7812 Q72.2842 10.0469 71.8779 9.6016 Q71.4717 9.1562 70.8154 9.1562 Q70.0498 9.1562 69.6045 9.5859 Q69.1592 10.0156 69.0811 10.7812 L72.2842 10.7812 ZM75.5459 6.9844 L75.5459 8.5312 L77.4053 8.5312 L77.4053 9.2344 L75.5459 9.2344 L75.5459 12.2031 Q75.5459 12.8594 75.7334 13.0547 Q75.9209 13.25 76.4834 13.25 L77.4053 13.25 L77.4053 14 L76.4834 14 Q75.4365 14 75.0381 13.6094 Q74.6396 13.2188 74.6396 12.2031 L74.6396 9.2344 L73.9834 9.2344 L73.9834 8.5312 L74.6396 8.5312 L74.6396 6.9844 L75.5459 6.9844 ZM81.0605 11.25 Q79.9824 11.25 79.5605 11.5 Q79.1387 11.75 79.1387 12.3438 Q79.1387 12.8281 79.4512 13.1094 Q79.7637 13.3906 80.3105 13.3906 Q81.0605 13.3906 81.5137 12.8594 Q81.9668 12.3281 81.9668 11.4531 L81.9668 11.25 L81.0605 11.25 ZM82.8574 10.875 L82.8574 14 L81.9668 14 L81.9668 13.1719 Q81.6543 13.6719 81.1934 13.9062 Q80.7324 14.1406 80.0762 14.1406 Q79.2324 14.1406 78.7324 13.6719 Q78.2324 13.2031 78.2324 12.4062 Q78.2324 11.4844 78.8574 11.0156 Q79.4824 10.5469 80.7012 10.5469 L81.9668 10.5469 L81.9668 10.4531 Q81.9668 9.8438 81.5527 9.5 Q81.1387 9.1562 80.4043 9.1562 Q79.9355 9.1562 79.4902 9.2734 Q79.0449 9.3906 78.6387 9.6094 L78.6387 8.7812 Q79.1387 8.5938 79.5996 8.5 Q80.0605 8.4062 80.498 8.4062 Q81.6855 8.4062 82.2715 9.0156 Q82.8574 9.625 82.8574 10.875 ZM91.3672 8.6875 L91.3672 9.5469 Q90.9922 9.3438 90.5859 9.25 Q90.1797 9.1562 89.7266 9.1562 Q89.0703 9.1562 88.7344 9.3594 Q88.3984 9.5625 88.3984 9.9688 Q88.3984 10.2812 88.6328 10.4609 Q88.8672 10.6406 89.6016 10.7969 L89.8984 10.875 Q90.8672 11.0781 91.2656 11.4531 Q91.6641 11.8281 91.6641 12.4844 Q91.6641 13.25 91.0625 13.6953 Q90.4609 14.1406 89.4141 14.1406 Q88.9609 14.1406 88.4844 14.0547 Q88.0078 13.9688 87.4922 13.7969 L87.4922 12.875 Q87.9922 13.125 88.4688 13.2578 Q88.9453 13.3906 89.4297 13.3906 Q90.0547 13.3906 90.3984 13.1719 Q90.7422 12.9531 90.7422 12.5625 Q90.7422 12.1875 90.5 11.9922 Q90.2578 11.7969 89.4141 11.625 L89.1016 11.5469 Q88.2734 11.375 87.8984 11.0078 Q87.5234 10.6406 87.5234 10.0156 Q87.5234 9.2344 88.0703 8.8203 Q88.6172 8.4062 89.6328 8.4062 Q90.1172 8.4062 90.5625 8.4766 Q91.0078 8.5469 91.3672 8.6875 ZM93.0928 8.5312 L93.999 8.5312 L93.999 14 L93.0928 14 L93.0928 8.5312 ZM93.0928 6.4062 L93.999 6.4062 L93.999 7.5469 L93.0928 7.5469 L93.0928 6.4062 ZM99.4805 11.2031 Q99.4805 10.2188 99.0742 9.6875 Q98.668 9.1562 97.9492 9.1562 Q97.2148 9.1562 96.8164 9.6875 Q96.418 10.2188 96.418 11.2031 Q96.418 12.1719 96.8164 12.7109 Q97.2148 13.25 97.9492 13.25 Q98.668 13.25 99.0742 12.7109 Q99.4805 12.1719 99.4805 11.2031 ZM100.3711 13.3281 Q100.3711 14.7188 99.7539 15.3984 Q99.1367 16.0781 97.8555 16.0781 Q97.3867 16.0781 96.9648 16.0078 Q96.543 15.9375 96.1523 15.7969 L96.1523 14.9219 Q96.543 15.1406 96.9258 15.2422 Q97.3086 15.3438 97.7148 15.3438 Q98.5898 15.3438 99.0352 14.8828 Q99.4805 14.4219 99.4805 13.4844 L99.4805 13.0312 Q99.1992 13.5156 98.7617 13.7578 Q98.3242 14 97.7148 14 Q96.7148 14 96.0977 13.2344 Q95.4805 12.4688 95.4805 11.2031 Q95.4805 9.9375 96.0977 9.1719 Q96.7148 8.4062 97.7148 8.4062 Q98.3242 8.4062 98.7617 8.6406 Q99.1992 8.875 99.4805 9.3594 L99.4805 8.5312 L100.3711 8.5312 L100.3711 13.3281 ZM106.7656 10.7031 L106.7656 14 L105.875 14 L105.875 10.7344 Q105.875 9.9531 105.5703 9.5703 Q105.2656 9.1875 104.6562 9.1875 Q103.9375 9.1875 103.5156 9.6484 Q103.0938 10.1094 103.0938 10.9062 L103.0938 14 L102.1875 14 L102.1875 8.5312 L103.0938 8.5312 L103.0938 9.375 Q103.4219 8.8906 103.8594 8.6484 Q104.2969 8.4062 104.8594 8.4062 Q105.7969 8.4062 106.2812 8.9844 Q106.7656 9.5625 106.7656 10.7031 ZM111.041 11.25 Q109.9629 11.25 109.541 11.5 Q109.1191 11.75 109.1191 12.3438 Q109.1191 12.8281 109.4316 13.1094 Q109.7441 13.3906 110.291 13.3906 Q111.041 13.3906 111.4941 12.8594 Q111.9473 12.3281 111.9473 11.4531 L111.9473 11.25 L111.041 11.25 ZM112.8379 10.875 L112.8379 14 L111.9473 14 L111.9473 13.1719 Q111.6348 13.6719 111.1738 13.9062 Q110.7129 14.1406 110.0566 14.1406 Q109.2129 14.1406 108.7129 13.6719 Q108.2129 13.2031 108.2129 12.4062 Q108.2129 11.4844 108.8379 11.0156 Q109.4629 10.5469 110.6816 10.5469 L111.9473 10.5469 L111.9473 10.4531 Q111.9473 9.8438 111.5332 9.5 Q111.1191 9.1562 110.3848 9.1562 Q109.916 9.1562 109.4707 9.2734 Q109.0254 9.3906 108.6191 9.6094 L108.6191 8.7812 Q109.1191 8.5938 109.5801 8.5 Q110.041 8.4062 110.4785 8.4062 Q111.666 8.4062 112.252 9.0156 Q112.8379 9.625 112.8379 10.875 ZM114.6846 6.4062 L115.5908 6.4062 L115.5908 14 L114.6846 14 L114.6846 6.4062 ZM117.4629 8.5312 L118.3691 8.5312 L118.3691 14 L117.4629 14 L117.4629 8.5312 ZM117.4629 6.4062 L118.3691 6.4062 L118.3691 7.5469 L117.4629 7.5469 L117.4629 6.4062 ZM124.7881 10.7031 L124.7881 14 L123.8975 14 L123.8975 10.7344 Q123.8975 9.9531 123.5928 9.5703 Q123.2881 9.1875 122.6787 9.1875 Q121.96 9.1875 121.5381 9.6484 Q121.1162 10.1094 121.1162 10.9062 L121.1162 14 L120.21 14 L120.21 8.5312 L121.1162 8.5312 L121.1162 9.375 Q121.4443 8.8906 121.8818 8.6484 Q122.3193 8.4062 122.8818 8.4062 Q123.8193 8.4062 124.3037 8.9844 Q124.7881 9.5625 124.7881 10.7031 ZM130.1885 11.2031 Q130.1885 10.2188 129.7822 9.6875 Q129.376 9.1562 128.6572 9.1562 Q127.9229 9.1562 127.5244 9.6875 Q127.126 10.2188 127.126 11.2031 Q127.126 12.1719 127.5244 12.7109 Q127.9229 13.25 128.6572 13.25 Q129.376 13.25 129.7822 12.7109 Q130.1885 12.1719 130.1885 11.2031 ZM131.0791 13.3281 Q131.0791 14.7188 130.4619 15.3984 Q129.8447 16.0781 128.5635 16.0781 Q128.0947 16.0781 127.6729 16.0078 Q127.251 15.9375 126.8604 15.7969 L126.8604 14.9219 Q127.251 15.1406 127.6338 15.2422 Q128.0166 15.3438 128.4229 15.3438 Q129.2979 15.3438 129.7432 14.8828 Q130.1885 14.4219 130.1885 13.4844 L130.1885 13.0312 Q129.9072 13.5156 129.4697 13.7578 Q129.0322 14 128.4229 14 Q127.4229 14 126.8057 13.2344 Q126.1885 12.4688 126.1885 11.2031 Q126.1885 9.9375 126.8057 9.1719 Q127.4229 8.4062 128.4229 8.4062 Q129.0322 8.4062 129.4697 8.6406 Q129.9072 8.875 130.1885 9.3594 L130.1885 8.5312 L131.0791 8.5312 L131.0791 13.3281 ZM136.1055 8.5312 L137.0117 8.5312 L137.0117 14 L136.1055 14 L136.1055 8.5312 ZM136.1055 6.4062 L137.0117 6.4062 L137.0117 7.5469 L136.1055 7.5469 L136.1055 6.4062 ZM143.4307 10.7031 L143.4307 14 L142.54 14 L142.54 10.7344 Q142.54 9.9531 142.2354 9.5703 Q141.9307 9.1875 141.3213 9.1875 Q140.6025 9.1875 140.1807 9.6484 Q139.7588 10.1094 139.7588 10.9062 L139.7588 14 L138.8525 14 L138.8525 8.5312 L139.7588 8.5312 L139.7588 9.375 Q140.0869 8.8906 140.5244 8.6484 Q140.9619 8.4062 141.5244 8.4062 Q142.4619 8.4062 142.9463 8.9844 Q143.4307 9.5625 143.4307 10.7031 ZM149.291 6.9844 L149.291 8.5312 L151.1504 8.5312 L151.1504 9.2344 L149.291 9.2344 L149.291 12.2031 Q149.291 12.8594 149.4785 13.0547 Q149.666 13.25 150.2285 13.25 L151.1504 13.25 L151.1504 14 L150.2285 14 Q149.1816 14 148.7832 13.6094 Q148.3848 13.2188 148.3848 12.2031 L148.3848 9.2344 L147.7285 9.2344 L147.7285 8.5312 L148.3848 8.5312 L148.3848 6.9844 L149.291 6.9844 ZM156.8682 10.7031 L156.8682 14 L155.9775 14 L155.9775 10.7344 Q155.9775 9.9531 155.6729 9.5703 Q155.3682 9.1875 154.7588 9.1875 Q154.04 9.1875 153.6182 9.6484 Q153.1963 10.1094 153.1963 10.9062 L153.1963 14 L152.29 14 L152.29 6.4062 L153.1963 6.4062 L153.1963 9.375 Q153.5244 8.8906 153.9619 8.6484 Q154.3994 8.4062 154.9619 8.4062 Q155.8994 8.4062 156.3838 8.9844 Q156.8682 9.5625 156.8682 10.7031 ZM160.9404 14.5156 Q160.5654 15.4844 160.1982 15.7812 Q159.8311 16.0781 159.2373 16.0781 L158.5186 16.0781 L158.5186 15.3281 L159.0342 15.3281 Q159.4092 15.3281 159.6123 15.1562 Q159.8154 14.9844 160.0654 14.3281 L160.2373 13.9062 L158.0186 8.5312 L158.9717 8.5312 L160.6748 12.8125 L162.3936 8.5312 L163.3467 8.5312 L160.9404 14.5156 ZM167.749 9.375 Q167.5928 9.2812 167.4209 9.2422 Q167.249 9.2031 167.0303 9.2031 Q166.2646 9.2031 165.8584 9.6953 Q165.4521 10.1875 165.4521 11.125 L165.4521 14 L164.5459 14 L164.5459 8.5312 L165.4521 8.5312 L165.4521 9.375 Q165.7334 8.875 166.1865 8.6406 Q166.6396 8.4062 167.2959 8.4062 Q167.3896 8.4062 167.499 8.4141 Q167.6084 8.4219 167.749 8.4531 L167.749 9.375 ZM170.8135 9.1562 Q170.0947 9.1562 169.6729 9.7188 Q169.251 10.2812 169.251 11.2656 Q169.251 12.25 169.665 12.8125 Q170.0791 13.375 170.8135 13.375 Q171.5322 13.375 171.9541 12.8125 Q172.376 12.25 172.376 11.2656 Q172.376 10.2969 171.9541 9.7266 Q171.5322 9.1562 170.8135 9.1562 ZM170.8135 8.4062 Q171.9854 8.4062 172.6572 9.1641 Q173.3291 9.9219 173.3291 11.2656 Q173.3291 12.6094 172.6572 13.375 Q171.9854 14.1406 170.8135 14.1406 Q169.6416 14.1406 168.9697 13.375 Q168.2979 12.6094 168.2979 11.2656 Q168.2979 9.9219 168.9697 9.1641 Q169.6416 8.4062 170.8135 8.4062 ZM174.8066 8.5312 L175.7129 8.5312 L175.7129 14 L174.8066 14 L174.8066 8.5312 ZM174.8066 6.4062 L175.7129 6.4062 L175.7129 7.5469 L174.8066 7.5469 L174.8066 6.4062 ZM181.1943 9.3594 L181.1943 6.4062 L182.085 6.4062 L182.085 14 L181.1943 14 L181.1943 13.1719 Q180.9131 13.6719 180.4756 13.9062 Q180.0381 14.1406 179.4287 14.1406 Q178.4443 14.1406 177.8193 13.3516 Q177.1943 12.5625 177.1943 11.2656 Q177.1943 9.9844 177.8193 9.1953 Q178.4443 8.4062 179.4287 8.4062 Q180.0381 8.4062 180.4756 8.6406 Q180.9131 8.875 181.1943 9.3594 ZM178.1318 11.2656 Q178.1318 12.2656 178.5381 12.8281 Q178.9443 13.3906 179.6631 13.3906 Q180.3662 13.3906 180.7803 12.8281 Q181.1943 12.2656 181.1943 11.2656 Q181.1943 10.2812 180.7803 9.7188 Q180.3662 9.1562 179.6631 9.1562 Q178.9443 9.1562 178.5381 9.7188 Q178.1318 10.2812 178.1318 11.2656 ZM191.0488 8.7344 L191.0488 9.5781 Q190.6738 9.375 190.291 9.2656 Q189.9082 9.1562 189.5176 9.1562 Q188.6426 9.1562 188.1582 9.7109 Q187.6738 10.2656 187.6738 11.2656 Q187.6738 12.2656 188.1582 12.8203 Q188.6426 13.375 189.5176 13.375 Q189.9082 13.375 190.291 13.2734 Q190.6738 13.1719 191.0488 12.9531 L191.0488 13.7969 Q190.6738 13.9688 190.2754 14.0547 Q189.877 14.1406 189.4238 14.1406 Q188.1738 14.1406 187.4473 13.3672 Q186.7207 12.5938 186.7207 11.2656 Q186.7207 9.9375 187.4551 9.1719 Q188.1895 8.4062 189.4707 8.4062 Q189.8926 8.4062 190.2832 8.4844 Q190.6738 8.5625 191.0488 8.7344 ZM197.2969 11.0469 L197.2969 11.4844 L193.1562 11.4844 Q193.2188 12.4062 193.7188 12.8906 Q194.2188 13.375 195.1094 13.375 Q195.625 13.375 196.1172 13.25 Q196.6094 13.125 197.0781 12.875 L197.0781 13.7188 Q196.5938 13.9219 196.0859 14.0312 Q195.5781 14.1406 195.0625 14.1406 Q193.75 14.1406 192.9844 13.3828 Q192.2188 12.625 192.2188 11.3125 Q192.2188 9.9688 192.9453 9.1875 Q193.6719 8.4062 194.9062 8.4062 Q196.0156 8.4062 196.6562 9.1094 Q197.2969 9.8125 197.2969 11.0469 ZM196.3906 10.7812 Q196.3906 10.0469 195.9844 9.6016 Q195.5781 9.1562 194.9219 9.1562 Q194.1562 9.1562 193.7109 9.5859 Q193.2656 10.0156 193.1875 10.7812 L196.3906 10.7812 ZM198.7617 6.4062 L199.668 6.4062 L199.668 14 L198.7617 14 L198.7617 6.4062 ZM201.54 6.4062 L202.4463 6.4062 L202.4463 14 L201.54 14 L201.54 6.4062 ZM207.8027 8.6875 L207.8027 9.5469 Q207.4277 9.3438 207.0215 9.25 Q206.6152 9.1562 206.1621 9.1562 Q205.5059 9.1562 205.1699 9.3594 Q204.834 9.5625 204.834 9.9688 Q204.834 10.2812 205.0684 10.4609 Q205.3027 10.6406 206.0371 10.7969 L206.334 10.875 Q207.3027 11.0781 207.7012 11.4531 Q208.0996 11.8281 208.0996 12.4844 Q208.0996 13.25 207.498 13.6953 Q206.8965 14.1406 205.8496 14.1406 Q205.3965 14.1406 204.9199 14.0547 Q204.4434 13.9688 203.9277 13.7969 L203.9277 12.875 Q204.4277 13.125 204.9043 13.2578 Q205.3809 13.3906 205.8652 13.3906 Q206.4902 13.3906 206.834 13.1719 Q207.1777 12.9531 207.1777 12.5625 Q207.1777 12.1875 206.9355 11.9922 Q206.6934 11.7969 205.8496 11.625 L205.5371 11.5469 Q204.709 11.375 204.334 11.0078 Q203.959 10.6406 203.959 10.0156 Q203.959 9.2344 204.5059 8.8203 Q205.0527 8.4062 206.0684 8.4062 Q206.5527 8.4062 206.998 8.4766 Q207.4434 8.5469 207.8027 8.6875 ZM215.4883 6.4062 L215.4883 7.1562 L214.6289 7.1562 Q214.1445 7.1562 213.957 7.3516 Q213.7695 7.5469 213.7695 8.0469 L213.7695 8.5312 L215.2383 8.5312 L215.2383 9.2344 L213.7695 9.2344 L213.7695 14 L212.8633 14 L212.8633 9.2344 L212.0039 9.2344 L212.0039 8.5312 L212.8633 8.5312 L212.8633 8.1562 Q212.8633 7.2344 213.2852 6.8203 Q213.707 6.4062 214.6289 6.4062 L215.4883 6.4062 ZM218.3525 9.1562 Q217.6338 9.1562 217.2119 9.7188 Q216.79 10.2812 216.79 11.2656 Q216.79 12.25 217.2041 12.8125 Q217.6182 13.375 218.3525 13.375 Q219.0713 13.375 219.4932 12.8125 Q219.915 12.25 219.915 11.2656 Q219.915 10.2969 219.4932 9.7266 Q219.0713 9.1562 218.3525 9.1562 ZM218.3525 8.4062 Q219.5244 8.4062 220.1963 9.1641 Q220.8682 9.9219 220.8682 11.2656 Q220.8682 12.6094 220.1963 13.375 Q219.5244 14.1406 218.3525 14.1406 Q217.1807 14.1406 216.5088 13.375 Q215.8369 12.6094 215.8369 11.2656 Q215.8369 9.9219 216.5088 9.1641 Q217.1807 8.4062 218.3525 8.4062 ZM225.5176 9.375 Q225.3613 9.2812 225.1895 9.2422 Q225.0176 9.2031 224.7988 9.2031 Q224.0332 9.2031 223.627 9.6953 Q223.2207 10.1875 223.2207 11.125 L223.2207 14 L222.3145 14 L222.3145 8.5312 L223.2207 8.5312 L223.2207 9.375 Q223.502 8.875 223.9551 8.6406 Q224.4082 8.4062 225.0645 8.4062 Q225.1582 8.4062 225.2676 8.4141 Q225.377 8.4219 225.5176 8.4531 L225.5176 9.375 ZM234.3232 11.0469 L234.3232 11.4844 L230.1826 11.4844 Q230.2451 12.4062 230.7451 12.8906 Q231.2451 13.375 232.1357 13.375 Q232.6514 13.375 233.1436 13.25 Q233.6357 13.125 234.1045 12.875 L234.1045 13.7188 Q233.6201 13.9219 233.1123 14.0312 Q232.6045 14.1406 232.0889 14.1406 Q230.7764 14.1406 230.0107 13.3828 Q229.2451 12.625 229.2451 11.3125 Q229.2451 9.9688 229.9717 9.1875 Q230.6982 8.4062 231.9326 8.4062 Q233.042 8.4062 233.6826 9.1094 Q234.3232 9.8125 234.3232 11.0469 ZM233.417 10.7812 Q233.417 10.0469 233.0107 9.6016 Q232.6045 9.1562 231.9482 9.1562 Q231.1826 9.1562 230.7373 9.5859 Q230.292 10.0156 230.2139 10.7812 L233.417 10.7812 ZM236.6631 13.1719 L236.6631 16.0781 L235.7568 16.0781 L235.7568 8.5312 L236.6631 8.5312 L236.6631 9.3594 Q236.9443 8.875 237.374 8.6406 Q237.8037 8.4062 238.4131 8.4062 Q239.4131 8.4062 240.0303 9.1953 Q240.6475 9.9844 240.6475 11.2656 Q240.6475 12.5625 240.0303 13.3516 Q239.4131 14.1406 238.4131 14.1406 Q237.8037 14.1406 237.374 13.9062 Q236.9443 13.6719 236.6631 13.1719 ZM239.7256 11.2656 Q239.7256 10.2812 239.3115 9.7188 Q238.8975 9.1562 238.1943 9.1562 Q237.4756 9.1562 237.0693 9.7188 Q236.6631 10.2812 236.6631 11.2656 Q236.6631 12.2656 237.0693 12.8281 Q237.4756 13.3906 238.1943 13.3906 Q238.8975 13.3906 239.3115 12.8281 Q239.7256 12.2656 239.7256 11.2656 ZM242.1357 8.5312 L243.042 8.5312 L243.042 14 L242.1357 14 L242.1357 8.5312 ZM242.1357 6.4062 L243.042 6.4062 L243.042 7.5469 L242.1357 7.5469 L242.1357 6.4062 ZM245.8047 6.9844 L245.8047 8.5312 L247.6641 8.5312 L247.6641 9.2344 L245.8047 9.2344 L245.8047 12.2031 Q245.8047 12.8594 245.9922 13.0547 Q246.1797 13.25 246.7422 13.25 L247.6641 13.25 L247.6641 14 L246.7422 14 Q245.6953 14 245.2969 13.6094 Q244.8984 13.2188 244.8984 12.2031 L244.8984 9.2344 L244.2422 9.2344 L244.2422 8.5312 L244.8984 8.5312 L244.8984 6.9844 L245.8047 6.9844 ZM253.3818 10.7031 L253.3818 14 L252.4912 14 L252.4912 10.7344 Q252.4912 9.9531 252.1865 9.5703 Q251.8818 9.1875 251.2725 9.1875 Q250.5537 9.1875 250.1318 9.6484 Q249.71 10.1094 249.71 10.9062 L249.71 14 L248.8037 14 L248.8037 6.4062 L249.71 6.4062 L249.71 9.375 Q250.0381 8.8906 250.4756 8.6484 Q250.9131 8.4062 251.4756 8.4062 Q252.4131 8.4062 252.8975 8.9844 Q253.3818 9.5625 253.3818 10.7031 ZM259.8604 11.0469 L259.8604 11.4844 L255.7197 11.4844 Q255.7822 12.4062 256.2822 12.8906 Q256.7822 13.375 257.6729 13.375 Q258.1885 13.375 258.6807 13.25 Q259.1729 13.125 259.6416 12.875 L259.6416 13.7188 Q259.1572 13.9219 258.6494 14.0312 Q258.1416 14.1406 257.626 14.1406 Q256.3135 14.1406 255.5479 13.3828 Q254.7822 12.625 254.7822 11.3125 Q254.7822 9.9688 255.5088 9.1875 Q256.2354 8.4062 257.4697 8.4062 Q258.5791 8.4062 259.2197 9.1094 Q259.8604 9.8125 259.8604 11.0469 ZM258.9541 10.7812 Q258.9541 10.0469 258.5479 9.6016 Q258.1416 9.1562 257.4854 9.1562 Q256.7197 9.1562 256.2744 9.5859 Q255.8291 10.0156 255.751 10.7812 L258.9541 10.7812 ZM261.3252 6.4062 L262.2314 6.4062 L262.2314 14 L261.3252 14 L261.3252 6.4062 ZM264.1035 8.5312 L265.0098 8.5312 L265.0098 14 L264.1035 14 L264.1035 8.5312 ZM264.1035 6.4062 L265.0098 6.4062 L265.0098 7.5469 L264.1035 7.5469 L264.1035 6.4062 ZM269.3662 11.25 Q268.2881 11.25 267.8662 11.5 Q267.4443 11.75 267.4443 12.3438 Q267.4443 12.8281 267.7568 13.1094 Q268.0693 13.3906 268.6162 13.3906 Q269.3662 13.3906 269.8193 12.8594 Q270.2725 12.3281 270.2725 11.4531 L270.2725 11.25 L269.3662 11.25 ZM271.1631 10.875 L271.1631 14 L270.2725 14 L270.2725 13.1719 Q269.96 13.6719 269.499 13.9062 Q269.0381 14.1406 268.3818 14.1406 Q267.5381 14.1406 267.0381 13.6719 Q266.5381 13.2031 266.5381 12.4062 Q266.5381 11.4844 267.1631 11.0156 Q267.7881 10.5469 269.0068 10.5469 L270.2725 10.5469 L270.2725 10.4531 Q270.2725 9.8438 269.8584 9.5 Q269.4443 9.1562 268.71 9.1562 Q268.2412 9.1562 267.7959 9.2734 Q267.3506 9.3906 266.9443 9.6094 L266.9443 8.7812 Q267.4443 8.5938 267.9053 8.5 Q268.3662 8.4062 268.8037 8.4062 Q269.9912 8.4062 270.5771 9.0156 Q271.1631 9.625 271.1631 10.875 ZM273.0098 6.4062 L273.916 6.4062 L273.916 14 L273.0098 14 L273.0098 6.4062 ZM275.335 10.8594 L277.9756 10.8594 L277.9756 11.6562 L275.335 11.6562 L275.335 10.8594 ZM283.6621 9.5781 Q283.9902 8.9688 284.459 8.6875 Q284.9277 8.4062 285.5684 8.4062 Q286.4277 8.4062 286.8887 9 Q287.3496 9.5938 287.3496 10.7031 L287.3496 14 L286.4434 14 L286.4434 10.7344 Q286.4434 9.9375 286.1699 9.5625 Q285.8965 9.1875 285.3184 9.1875 Q284.6152 9.1875 284.2168 9.6484 Q283.8184 10.1094 283.8184 10.9062 L283.8184 14 L282.9121 14 L282.9121 10.7344 Q282.9121 9.9375 282.6309 9.5625 Q282.3496 9.1875 281.7715 9.1875 Q281.084 9.1875 280.6777 9.6484 Q280.2715 10.1094 280.2715 10.9062 L280.2715 14 L279.3652 14 L279.3652 8.5312 L280.2715 8.5312 L280.2715 9.375 Q280.584 8.875 281.0137 8.6406 Q281.4434 8.4062 282.0215 8.4062 Q282.6309 8.4062 283.0449 8.7031 Q283.459 9 283.6621 9.5781 ZM293.8252 11.0469 L293.8252 11.4844 L289.6846 11.4844 Q289.7471 12.4062 290.2471 12.8906 Q290.7471 13.375 291.6377 13.375 Q292.1533 13.375 292.6455 13.25 Q293.1377 13.125 293.6064 12.875 L293.6064 13.7188 Q293.1221 13.9219 292.6143 14.0312 Q292.1064 14.1406 291.5908 14.1406 Q290.2783 14.1406 289.5127 13.3828 Q288.7471 12.625 288.7471 11.3125 Q288.7471 9.9688 289.4736 9.1875 Q290.2002 8.4062 291.4346 8.4062 Q292.5439 8.4062 293.1846 9.1094 Q293.8252 9.8125 293.8252 11.0469 ZM292.9189 10.7812 Q292.9189 10.0469 292.5127 9.6016 Q292.1064 9.1562 291.4502 9.1562 Q290.6846 9.1562 290.2393 9.5859 Q289.7939 10.0156 289.7158 10.7812 L292.9189 10.7812 ZM298.7744 8.6875 L298.7744 9.5469 Q298.3994 9.3438 297.9932 9.25 Q297.5869 9.1562 297.1338 9.1562 Q296.4775 9.1562 296.1416 9.3594 Q295.8057 9.5625 295.8057 9.9688 Q295.8057 10.2812 296.04 10.4609 Q296.2744 10.6406 297.0088 10.7969 L297.3057 10.875 Q298.2744 11.0781 298.6729 11.4531 Q299.0713 11.8281 299.0713 12.4844 Q299.0713 13.25 298.4697 13.6953 Q297.8682 14.1406 296.8213 14.1406 Q296.3682 14.1406 295.8916 14.0547 Q295.415 13.9688 294.8994 13.7969 L294.8994 12.875 Q295.3994 13.125 295.876 13.2578 Q296.3525 13.3906 296.8369 13.3906 Q297.4619 13.3906 297.8057 13.1719 Q298.1494 12.9531 298.1494 12.5625 Q298.1494 12.1875 297.9072 11.9922 Q297.665 11.7969 296.8213 11.625 L296.5088 11.5469 Q295.6807 11.375 295.3057 11.0078 Q294.9307 10.6406 294.9307 10.0156 Q294.9307 9.2344 295.4775 8.8203 Q296.0244 8.4062 297.04 8.4062 Q297.5244 8.4062 297.9697 8.4766 Q298.415 8.5469 298.7744 8.6875 ZM305.1875 11.0469 L305.1875 11.4844 L301.0469 11.4844 Q301.1094 12.4062 301.6094 12.8906 Q302.1094 13.375 303 13.375 Q303.5156 13.375 304.0078 13.25 Q304.5 13.125 304.9688 12.875 L304.9688 13.7188 Q304.4844 13.9219 303.9766 14.0312 Q303.4688 14.1406 302.9531 14.1406 Q301.6406 14.1406 300.875 13.3828 Q300.1094 12.625 300.1094 11.3125 Q300.1094 9.9688 300.8359 9.1875 Q301.5625 8.4062 302.7969 8.4062 Q303.9062 8.4062 304.5469 9.1094 Q305.1875 9.8125 305.1875 11.0469 ZM304.2812 10.7812 Q304.2812 10.0469 303.875 9.6016 Q303.4688 9.1562 302.8125 9.1562 Q302.0469 9.1562 301.6016 9.5859 Q301.1562 10.0156 301.0781 10.7812 L304.2812 10.7812 ZM311.1992 10.7031 L311.1992 14 L310.3086 14 L310.3086 10.7344 Q310.3086 9.9531 310.0039 9.5703 Q309.6992 9.1875 309.0898 9.1875 Q308.3711 9.1875 307.9492 9.6484 Q307.5273 10.1094 307.5273 10.9062 L307.5273 14 L306.6211 14 L306.6211 8.5312 L307.5273 8.5312 L307.5273 9.375 Q307.8555 8.8906 308.293 8.6484 Q308.7305 8.4062 309.293 8.4062 Q310.2305 8.4062 310.7148 8.9844 Q311.1992 9.5625 311.1992 10.7031 ZM316.9277 8.7344 L316.9277 9.5781 Q316.5527 9.375 316.1699 9.2656 Q315.7871 9.1562 315.3965 9.1562 Q314.5215 9.1562 314.0371 9.7109 Q313.5527 10.2656 313.5527 11.2656 Q313.5527 12.2656 314.0371 12.8203 Q314.5215 13.375 315.3965 13.375 Q315.7871 13.375 316.1699 13.2734 Q316.5527 13.1719 316.9277 12.9531 L316.9277 13.7969 Q316.5527 13.9688 316.1543 14.0547 Q315.7559 14.1406 315.3027 14.1406 Q314.0527 14.1406 313.3262 13.3672 Q312.5996 12.5938 312.5996 11.2656 Q312.5996 9.9375 313.334 9.1719 Q314.0684 8.4062 315.3496 8.4062 Q315.7715 8.4062 316.1621 8.4844 Q316.5527 8.5625 316.9277 8.7344 ZM323.0352 10.7031 L323.0352 14 L322.1445 14 L322.1445 10.7344 Q322.1445 9.9531 321.8398 9.5703 Q321.5352 9.1875 320.9258 9.1875 Q320.207 9.1875 319.7852 9.6484 Q319.3633 10.1094 319.3633 10.9062 L319.3633 14 L318.457 14 L318.457 6.4062 L319.3633 6.4062 L319.3633 9.375 Q319.6914 8.8906 320.1289 8.6484 Q320.5664 8.4062 321.1289 8.4062 Q322.0664 8.4062 322.5508 8.9844 Q323.0352 9.5625 323.0352 10.7031 ZM327.1074 14.5156 Q326.7324 15.4844 326.3652 15.7812 Q325.998 16.0781 325.4043 16.0781 L324.6855 16.0781 L324.6855 15.3281 L325.2012 15.3281 Q325.5762 15.3281 325.7793 15.1562 Q325.9824 14.9844 326.2324 14.3281 L326.4043 13.9062 L324.1855 8.5312 L325.1387 8.5312 L326.8418 12.8125 L328.5605 8.5312 L329.5137 8.5312 L327.1074 14.5156 ZM335.0098 9.5781 Q335.3379 8.9688 335.8066 8.6875 Q336.2754 8.4062 336.916 8.4062 Q337.7754 8.4062 338.2363 9 Q338.6973 9.5938 338.6973 10.7031 L338.6973 14 L337.791 14 L337.791 10.7344 Q337.791 9.9375 337.5176 9.5625 Q337.2441 9.1875 336.666 9.1875 Q335.9629 9.1875 335.5645 9.6484 Q335.166 10.1094 335.166 10.9062 L335.166 14 L334.2598 14 L334.2598 10.7344 Q334.2598 9.9375 333.9785 9.5625 Q333.6973 9.1875 333.1191 9.1875 Q332.4316 9.1875 332.0254 9.6484 Q331.6191 10.1094 331.6191 10.9062 L331.6191 14 L330.7129 14 L330.7129 8.5312 L331.6191 8.5312 L331.6191 9.375 Q331.9316 8.875 332.3613 8.6406 Q332.791 8.4062 333.3691 8.4062 Q333.9785 8.4062 334.3926 8.7031 Q334.8066 9 335.0098 9.5781 ZM342.9697 11.25 Q341.8916 11.25 341.4697 11.5 Q341.0479 11.75 341.0479 12.3438 Q341.0479 12.8281 341.3604 13.1094 Q341.6729 13.3906 342.2197 13.3906 Q342.9697 13.3906 343.4229 12.8594 Q343.876 12.3281 343.876 11.4531 L343.876 11.25 L342.9697 11.25 ZM344.7666 10.875 L344.7666 14 L343.876 14 L343.876 13.1719 Q343.5635 13.6719 343.1025 13.9062 Q342.6416 14.1406 341.9854 14.1406 Q341.1416 14.1406 340.6416 13.6719 Q340.1416 13.2031 340.1416 12.4062 Q340.1416 11.4844 340.7666 11.0156 Q341.3916 10.5469 342.6104 10.5469 L343.876 10.5469 L343.876 10.4531 Q343.876 9.8438 343.4619 9.5 Q343.0479 9.1562 342.3135 9.1562 Q341.8447 9.1562 341.3994 9.2734 Q340.9541 9.3906 340.5479 9.6094 L340.5479 8.7812 Q341.0479 8.5938 341.5088 8.5 Q341.9697 8.4062 342.4072 8.4062 Q343.5947 8.4062 344.1807 9.0156 Q344.7666 9.625 344.7666 10.875 ZM346.6133 6.4062 L347.5195 6.4062 L347.5195 14 L346.6133 14 L346.6133 6.4062 ZM353.4609 6.9844 L353.4609 8.5312 L355.3203 8.5312 L355.3203 9.2344 L353.4609 9.2344 L353.4609 12.2031 Q353.4609 12.8594 353.6484 13.0547 Q353.8359 13.25 354.3984 13.25 L355.3203 13.25 L355.3203 14 L354.3984 14 Q353.3516 14 352.9531 13.6094 Q352.5547 13.2188 352.5547 12.2031 L352.5547 9.2344 L351.8984 9.2344 L351.8984 8.5312 L352.5547 8.5312 L352.5547 6.9844 L353.4609 6.9844 ZM359.6631 9.375 Q359.5068 9.2812 359.335 9.2422 Q359.1631 9.2031 358.9443 9.2031 Q358.1787 9.2031 357.7725 9.6953 Q357.3662 10.1875 357.3662 11.125 L357.3662 14 L356.46 14 L356.46 8.5312 L357.3662 8.5312 L357.3662 9.375 Q357.6475 8.875 358.1006 8.6406 Q358.5537 8.4062 359.21 8.4062 Q359.3037 8.4062 359.4131 8.4141 Q359.5225 8.4219 359.6631 8.4531 L359.6631 9.375 ZM363.0869 11.25 Q362.0088 11.25 361.5869 11.5 Q361.165 11.75 361.165 12.3438 Q361.165 12.8281 361.4775 13.1094 Q361.79 13.3906 362.3369 13.3906 Q363.0869 13.3906 363.54 12.8594 Q363.9932 12.3281 363.9932 11.4531 L363.9932 11.25 L363.0869 11.25 ZM364.8838 10.875 L364.8838 14 L363.9932 14 L363.9932 13.1719 Q363.6807 13.6719 363.2197 13.9062 Q362.7588 14.1406 362.1025 14.1406 Q361.2588 14.1406 360.7588 13.6719 Q360.2588 13.2031 360.2588 12.4062 Q360.2588 11.4844 360.8838 11.0156 Q361.5088 10.5469 362.7275 10.5469 L363.9932 10.5469 L363.9932 10.4531 Q363.9932 9.8438 363.5791 9.5 Q363.165 9.1562 362.4307 9.1562 Q361.9619 9.1562 361.5166 9.2734 Q361.0713 9.3906 360.665 9.6094 L360.665 8.7812 Q361.165 8.5938 361.626 8.5 Q362.0869 8.4062 362.5244 8.4062 Q363.7119 8.4062 364.2979 9.0156 Q364.8838 9.625 364.8838 10.875 ZM371.2773 10.7031 L371.2773 14 L370.3867 14 L370.3867 10.7344 Q370.3867 9.9531 370.082 9.5703 Q369.7773 9.1875 369.168 9.1875 Q368.4492 9.1875 368.0273 9.6484 Q367.6055 10.1094 367.6055 10.9062 L367.6055 14 L366.6992 14 L366.6992 8.5312 L367.6055 8.5312 L367.6055 9.375 Q367.9336 8.8906 368.3711 8.6484 Q368.8086 8.4062 369.3711 8.4062 Q370.3086 8.4062 370.793 8.9844 Q371.2773 9.5625 371.2773 10.7031 ZM376.5527 8.6875 L376.5527 9.5469 Q376.1777 9.3438 375.7715 9.25 Q375.3652 9.1562 374.9121 9.1562 Q374.2559 9.1562 373.9199 9.3594 Q373.584 9.5625 373.584 9.9688 Q373.584 10.2812 373.8184 10.4609 Q374.0527 10.6406 374.7871 10.7969 L375.084 10.875 Q376.0527 11.0781 376.4512 11.4531 Q376.8496 11.8281 376.8496 12.4844 Q376.8496 13.25 376.248 13.6953 Q375.6465 14.1406 374.5996 14.1406 Q374.1465 14.1406 373.6699 14.0547 Q373.1934 13.9688 372.6777 13.7969 L372.6777 12.875 Q373.1777 13.125 373.6543 13.2578 Q374.1309 13.3906 374.6152 13.3906 Q375.2402 13.3906 375.584 13.1719 Q375.9277 12.9531 375.9277 12.5625 Q375.9277 12.1875 375.6855 11.9922 Q375.4434 11.7969 374.5996 11.625 L374.2871 11.5469 Q373.459 11.375 373.084 11.0078 Q372.709 10.6406 372.709 10.0156 Q372.709 9.2344 373.2559 8.8203 Q373.8027 8.4062 374.8184 8.4062 Q375.3027 8.4062 375.748 8.4766 Q376.1934 8.5469 376.5527 8.6875 ZM378.2783 8.5312 L379.1846 8.5312 L379.1846 14 L378.2783 14 L378.2783 8.5312 ZM378.2783 6.4062 L379.1846 6.4062 L379.1846 7.5469 L378.2783 7.5469 L378.2783 6.4062 ZM381.9473 6.9844 L381.9473 8.5312 L383.8066 8.5312 L383.8066 9.2344 L381.9473 9.2344 L381.9473 12.2031 Q381.9473 12.8594 382.1348 13.0547 Q382.3223 13.25 382.8848 13.25 L383.8066 13.25 L383.8066 14 L382.8848 14 Q381.8379 14 381.4395 13.6094 Q381.041 13.2188 381.041 12.2031 L381.041 9.2344 L380.3848 9.2344 L380.3848 8.5312 L381.041 8.5312 L381.041 6.9844 L381.9473 6.9844 ZM384.9775 8.5312 L385.8838 8.5312 L385.8838 14 L384.9775 14 L384.9775 8.5312 ZM384.9775 6.4062 L385.8838 6.4062 L385.8838 7.5469 L384.9775 7.5469 L384.9775 6.4062 ZM389.8809 9.1562 Q389.1621 9.1562 388.7402 9.7188 Q388.3184 10.2812 388.3184 11.2656 Q388.3184 12.25 388.7324 12.8125 Q389.1465 13.375 389.8809 13.375 Q390.5996 13.375 391.0215 12.8125 Q391.4434 12.25 391.4434 11.2656 Q391.4434 10.2969 391.0215 9.7266 Q390.5996 9.1562 389.8809 9.1562 ZM389.8809 8.4062 Q391.0527 8.4062 391.7246 9.1641 Q392.3965 9.9219 392.3965 11.2656 Q392.3965 12.6094 391.7246 13.375 Q391.0527 14.1406 389.8809 14.1406 Q388.709 14.1406 388.0371 13.375 Q387.3652 12.6094 387.3652 11.2656 Q387.3652 9.9219 388.0371 9.1641 Q388.709 8.4062 389.8809 8.4062 ZM398.4209 10.7031 L398.4209 14 L397.5303 14 L397.5303 10.7344 Q397.5303 9.9531 397.2256 9.5703 Q396.9209 9.1875 396.3115 9.1875 Q395.5928 9.1875 395.1709 9.6484 Q394.749 10.1094 394.749 10.9062 L394.749 14 L393.8428 14 L393.8428 8.5312 L394.749 8.5312 L394.749 9.375 Q395.0771 8.8906 395.5146 8.6484 Q395.9521 8.4062 396.5146 8.4062 Q397.4521 8.4062 397.9365 8.9844 Q398.4209 9.5625 398.4209 10.7031 Z"
         style="clip-path:url(#clipPath2); stroke:none;"
         clip-path="url(#clipPath2)"
         id="path154" />
      <path
         d="M4.25 21.9375 Q3.3906 21.9375 2.9141 22.5703 Q2.4375 23.2031 2.4375 24.3594 Q2.4375 25.5156 2.9141 26.1484 Q3.3906 26.7812 4.25 26.7812 Q5.1094 26.7812 5.5859 26.1484 Q6.0625 25.5156 6.0625 24.3594 Q6.0625 23.2031 5.5859 22.5703 Q5.1094 21.9375 4.25 21.9375 ZM4.25 20.5781 Q6 20.5781 7 21.5859 Q8 22.5938 8 24.3594 Q8 26.125 7 27.1328 Q6 28.1406 4.25 28.1406 Q2.5 28.1406 1.5 27.1328 Q0.5 26.125 0.5 24.3594 Q0.5 22.5938 1.5 21.5859 Q2.5 20.5781 4.25 20.5781 ZM13.4072 24.0156 Q13.1729 23.9062 12.9463 23.8594 Q12.7197 23.8125 12.4854 23.8125 Q11.8135 23.8125 11.4541 24.2422 Q11.0947 24.6719 11.0947 25.4844 L11.0947 28 L9.3447 28 L9.3447 22.5312 L11.0947 22.5312 L11.0947 23.4219 Q11.4229 22.8906 11.8604 22.6484 Q12.2979 22.4062 12.9072 22.4062 Q13.001 22.4062 13.1025 22.4062 Q13.2041 22.4062 13.3916 22.4375 L13.4072 24.0156 ZM17.9951 27.0781 Q17.6357 27.5469 17.1982 27.7734 Q16.7607 28 16.1982 28 Q15.1982 28 14.542 27.2109 Q13.8857 26.4219 13.8857 25.2031 Q13.8857 23.9688 14.542 23.1875 Q15.1982 22.4062 16.1982 22.4062 Q16.7607 22.4062 17.1982 22.6328 Q17.6357 22.8594 17.9951 23.3438 L17.9951 22.5312 L19.7451 22.5312 L19.7451 27.4531 Q19.7451 28.7656 18.917 29.4609 Q18.0889 30.1562 16.5107 30.1562 Q15.9951 30.1562 15.5186 30.0781 Q15.042 30 14.5576 29.8438 L14.5576 28.4844 Q15.0107 28.75 15.4482 28.875 Q15.8857 29 16.3389 29 Q17.1982 29 17.5967 28.625 Q17.9951 28.25 17.9951 27.4531 L17.9951 27.0781 ZM16.8389 23.6719 Q16.292 23.6719 15.9951 24.0703 Q15.6982 24.4688 15.6982 25.2031 Q15.6982 25.9531 15.9873 26.3438 Q16.2764 26.7344 16.8389 26.7344 Q17.3857 26.7344 17.6904 26.3281 Q17.9951 25.9219 17.9951 25.2031 Q17.9951 24.4688 17.6904 24.0703 Q17.3857 23.6719 16.8389 23.6719 ZM23.8877 25.5312 Q23.3408 25.5312 23.0596 25.7188 Q22.7783 25.9062 22.7783 26.2656 Q22.7783 26.6094 23.0049 26.7969 Q23.2314 26.9844 23.6221 26.9844 Q24.1221 26.9844 24.458 26.625 Q24.7939 26.2656 24.7939 25.7344 L24.7939 25.5312 L23.8877 25.5312 ZM26.5596 24.875 L26.5596 28 L24.7939 28 L24.7939 27.1875 Q24.4346 27.6875 23.9971 27.9141 Q23.5596 28.1406 22.9346 28.1406 Q22.0752 28.1406 21.5518 27.6484 Q21.0283 27.1562 21.0283 26.3594 Q21.0283 25.3906 21.6846 24.9453 Q22.3408 24.5 23.7627 24.5 L24.7939 24.5 L24.7939 24.3594 Q24.7939 23.9531 24.4658 23.7578 Q24.1377 23.5625 23.4502 23.5625 Q22.8877 23.5625 22.4033 23.6719 Q21.9189 23.7812 21.4971 24.0156 L21.4971 22.6719 Q22.0596 22.5469 22.6299 22.4766 Q23.2002 22.4062 23.7627 22.4062 Q25.2471 22.4062 25.9033 22.9844 Q26.5596 23.5625 26.5596 24.875 ZM33.6826 24.6719 L33.6826 28 L31.917 28 L31.917 27.4531 L31.917 25.4531 Q31.917 24.75 31.8857 24.4766 Q31.8545 24.2031 31.7764 24.0781 Q31.6826 23.9062 31.5029 23.8125 Q31.3232 23.7188 31.1045 23.7188 Q30.5576 23.7188 30.2451 24.1406 Q29.9326 24.5625 29.9326 25.3125 L29.9326 28 L28.1826 28 L28.1826 22.5312 L29.9326 22.5312 L29.9326 23.3281 Q30.3232 22.8594 30.7686 22.6328 Q31.2139 22.4062 31.7451 22.4062 Q32.6982 22.4062 33.1904 22.9844 Q33.6826 23.5625 33.6826 24.6719 ZM35.3018 22.5312 L37.0518 22.5312 L37.0518 28 L35.3018 28 L35.3018 22.5312 ZM35.3018 20.4062 L37.0518 20.4062 L37.0518 21.8281 L35.3018 21.8281 L35.3018 20.4062 ZM42.9951 22.7031 L42.9951 24.0312 Q42.4326 23.7969 41.9092 23.6797 Q41.3857 23.5625 40.9326 23.5625 Q40.4326 23.5625 40.1904 23.6875 Q39.9482 23.8125 39.9482 24.0625 Q39.9482 24.2812 40.1279 24.3906 Q40.3076 24.5 40.792 24.5625 L41.0889 24.5938 Q42.4326 24.7656 42.9014 25.1562 Q43.3701 25.5469 43.3701 26.3906 Q43.3701 27.2656 42.7217 27.7031 Q42.0732 28.1406 40.792 28.1406 Q40.2607 28.1406 39.6826 28.0547 Q39.1045 27.9688 38.4795 27.7969 L38.4795 26.4688 Q39.0107 26.7188 39.5576 26.8516 Q40.1045 26.9844 40.667 26.9844 Q41.1826 26.9844 41.4404 26.8438 Q41.6982 26.7031 41.6982 26.4219 Q41.6982 26.1875 41.5264 26.0703 Q41.3545 25.9531 40.8232 25.8906 L40.5107 25.8438 Q39.3389 25.7031 38.8701 25.3047 Q38.4014 24.9062 38.4014 24.1094 Q38.4014 23.2344 38.9951 22.8203 Q39.5889 22.4062 40.8232 22.4062 Q41.3076 22.4062 41.8389 22.4766 Q42.3701 22.5469 42.9951 22.7031 ZM49.7441 23.4375 Q50.0723 22.9375 50.5332 22.6719 Q50.9941 22.4062 51.541 22.4062 Q52.4785 22.4062 52.9707 22.9844 Q53.4629 23.5625 53.4629 24.6719 L53.4629 28 L51.7129 28 L51.7129 25.1406 Q51.7129 25.0781 51.7129 25.0156 Q51.7129 24.9531 51.7129 24.8281 Q51.7129 24.2344 51.5488 23.9766 Q51.3848 23.7188 50.9941 23.7188 Q50.4941 23.7188 50.2285 24.125 Q49.9629 24.5312 49.9473 25.3125 L49.9473 28 L48.1816 28 L48.1816 25.1406 Q48.1816 24.2344 48.0254 23.9766 Q47.8691 23.7188 47.4785 23.7188 Q46.9785 23.7188 46.7051 24.1328 Q46.4316 24.5469 46.4316 25.3125 L46.4316 28 L44.666 28 L44.666 22.5312 L46.4316 22.5312 L46.4316 23.3281 Q46.7441 22.875 47.166 22.6406 Q47.5879 22.4062 48.0879 22.4062 Q48.6504 22.4062 49.0879 22.6797 Q49.5254 22.9531 49.7441 23.4375 ZM55.3828 22.5312 L57.1328 22.5312 L57.1328 24.4219 L55.3828 24.4219 L55.3828 22.5312 ZM55.3828 26.1094 L57.1328 26.1094 L57.1328 28 L55.3828 28 L55.3828 26.1094 Z"
         style="clip-path:url(#clipPath2); stroke:none;"
         clip-path="url(#clipPath2)"
         id="path156" />
      <path
         d="M66.9844 20.7031 L67.9688 20.7031 L67.9688 23.7031 L71.5469 23.7031 L71.5469 20.7031 L72.5312 20.7031 L72.5312 28 L71.5469 28 L71.5469 24.5312 L67.9688 24.5312 L67.9688 28 L66.9844 28 L66.9844 20.7031 ZM76.582 23.1562 Q75.8633 23.1562 75.4414 23.7188 Q75.0195 24.2812 75.0195 25.2656 Q75.0195 26.25 75.4336 26.8125 Q75.8477 27.375 76.582 27.375 Q77.3008 27.375 77.7227 26.8125 Q78.1445 26.25 78.1445 25.2656 Q78.1445 24.2969 77.7227 23.7266 Q77.3008 23.1562 76.582 23.1562 ZM76.582 22.4062 Q77.7539 22.4062 78.4258 23.1641 Q79.0977 23.9219 79.0977 25.2656 Q79.0977 26.6094 78.4258 27.375 Q77.7539 28.1406 76.582 28.1406 Q75.4102 28.1406 74.7383 27.375 Q74.0664 26.6094 74.0664 25.2656 Q74.0664 23.9219 74.7383 23.1641 Q75.4102 22.4062 76.582 22.4062 ZM84.8408 23.5781 Q85.1689 22.9688 85.6377 22.6875 Q86.1064 22.4062 86.7471 22.4062 Q87.6064 22.4062 88.0674 23 Q88.5283 23.5938 88.5283 24.7031 L88.5283 28 L87.6221 28 L87.6221 24.7344 Q87.6221 23.9375 87.3486 23.5625 Q87.0752 23.1875 86.4971 23.1875 Q85.7939 23.1875 85.3955 23.6484 Q84.9971 24.1094 84.9971 24.9062 L84.9971 28 L84.0908 28 L84.0908 24.7344 Q84.0908 23.9375 83.8096 23.5625 Q83.5283 23.1875 82.9502 23.1875 Q82.2627 23.1875 81.8564 23.6484 Q81.4502 24.1094 81.4502 24.9062 L81.4502 28 L80.5439 28 L80.5439 22.5312 L81.4502 22.5312 L81.4502 23.375 Q81.7627 22.875 82.1924 22.6406 Q82.6221 22.4062 83.2002 22.4062 Q83.8096 22.4062 84.2236 22.7031 Q84.6377 23 84.8408 23.5781 ZM92.4414 23.1562 Q91.7227 23.1562 91.3008 23.7188 Q90.8789 24.2812 90.8789 25.2656 Q90.8789 26.25 91.293 26.8125 Q91.707 27.375 92.4414 27.375 Q93.1602 27.375 93.582 26.8125 Q94.0039 26.25 94.0039 25.2656 Q94.0039 24.2969 93.582 23.7266 Q93.1602 23.1562 92.4414 23.1562 ZM92.4414 22.4062 Q93.6133 22.4062 94.2852 23.1641 Q94.957 23.9219 94.957 25.2656 Q94.957 26.6094 94.2852 27.375 Q93.6133 28.1406 92.4414 28.1406 Q91.2695 28.1406 90.5977 27.375 Q89.9258 26.6094 89.9258 25.2656 Q89.9258 23.9219 90.5977 23.1641 Q91.2695 22.4062 92.4414 22.4062 ZM103.0977 22.6875 L103.0977 23.5469 Q102.7227 23.3438 102.3164 23.25 Q101.9102 23.1562 101.457 23.1562 Q100.8008 23.1562 100.4648 23.3594 Q100.1289 23.5625 100.1289 23.9688 Q100.1289 24.2812 100.3633 24.4609 Q100.5977 24.6406 101.332 24.7969 L101.6289 24.875 Q102.5977 25.0781 102.9961 25.4531 Q103.3945 25.8281 103.3945 26.4844 Q103.3945 27.25 102.793 27.6953 Q102.1914 28.1406 101.1445 28.1406 Q100.6914 28.1406 100.2148 28.0547 Q99.7383 27.9688 99.2227 27.7969 L99.2227 26.875 Q99.7227 27.125 100.1992 27.2578 Q100.6758 27.3906 101.1602 27.3906 Q101.7852 27.3906 102.1289 27.1719 Q102.4727 26.9531 102.4727 26.5625 Q102.4727 26.1875 102.2305 25.9922 Q101.9883 25.7969 101.1445 25.625 L100.832 25.5469 Q100.0039 25.375 99.6289 25.0078 Q99.2539 24.6406 99.2539 24.0156 Q99.2539 23.2344 99.8008 22.8203 Q100.3477 22.4062 101.3633 22.4062 Q101.8477 22.4062 102.293 22.4766 Q102.7383 22.5469 103.0977 22.6875 ZM107.3076 25.25 Q106.2295 25.25 105.8076 25.5 Q105.3857 25.75 105.3857 26.3438 Q105.3857 26.8281 105.6982 27.1094 Q106.0107 27.3906 106.5576 27.3906 Q107.3076 27.3906 107.7607 26.8594 Q108.2139 26.3281 108.2139 25.4531 L108.2139 25.25 L107.3076 25.25 ZM109.1045 24.875 L109.1045 28 L108.2139 28 L108.2139 27.1719 Q107.9014 27.6719 107.4404 27.9062 Q106.9795 28.1406 106.3232 28.1406 Q105.4795 28.1406 104.9795 27.6719 Q104.4795 27.2031 104.4795 26.4062 Q104.4795 25.4844 105.1045 25.0156 Q105.7295 24.5469 106.9482 24.5469 L108.2139 24.5469 L108.2139 24.4531 Q108.2139 23.8438 107.7998 23.5 Q107.3857 23.1562 106.6514 23.1562 Q106.1826 23.1562 105.7373 23.2734 Q105.292 23.3906 104.8857 23.6094 L104.8857 22.7812 Q105.3857 22.5938 105.8467 22.5 Q106.3076 22.4062 106.7451 22.4062 Q107.9326 22.4062 108.5186 23.0156 Q109.1045 23.625 109.1045 24.875 ZM111.8262 27.1719 L111.8262 30.0781 L110.9199 30.0781 L110.9199 22.5312 L111.8262 22.5312 L111.8262 23.3594 Q112.1074 22.875 112.5371 22.6406 Q112.9668 22.4062 113.5762 22.4062 Q114.5762 22.4062 115.1934 23.1953 Q115.8105 23.9844 115.8105 25.2656 Q115.8105 26.5625 115.1934 27.3516 Q114.5762 28.1406 113.5762 28.1406 Q112.9668 28.1406 112.5371 27.9062 Q112.1074 27.6719 111.8262 27.1719 ZM114.8887 25.2656 Q114.8887 24.2812 114.4746 23.7188 Q114.0605 23.1562 113.3574 23.1562 Q112.6387 23.1562 112.2324 23.7188 Q111.8262 24.2812 111.8262 25.2656 Q111.8262 26.2656 112.2324 26.8281 Q112.6387 27.3906 113.3574 27.3906 Q114.0605 27.3906 114.4746 26.8281 Q114.8887 26.2656 114.8887 25.2656 ZM117.2988 22.5312 L118.2051 22.5312 L118.2051 28 L117.2988 28 L117.2988 22.5312 ZM117.2988 20.4062 L118.2051 20.4062 L118.2051 21.5469 L117.2988 21.5469 L117.2988 20.4062 ZM124.7646 25.0469 L124.7646 25.4844 L120.624 25.4844 Q120.6865 26.4062 121.1865 26.8906 Q121.6865 27.375 122.5771 27.375 Q123.0928 27.375 123.585 27.25 Q124.0771 27.125 124.5459 26.875 L124.5459 27.7188 Q124.0615 27.9219 123.5537 28.0312 Q123.0459 28.1406 122.5303 28.1406 Q121.2178 28.1406 120.4521 27.3828 Q119.6865 26.625 119.6865 25.3125 Q119.6865 23.9688 120.4131 23.1875 Q121.1396 22.4062 122.374 22.4062 Q123.4834 22.4062 124.124 23.1094 Q124.7646 23.8125 124.7646 25.0469 ZM123.8584 24.7812 Q123.8584 24.0469 123.4521 23.6016 Q123.0459 23.1562 122.3896 23.1562 Q121.624 23.1562 121.1787 23.5859 Q120.7334 24.0156 120.6553 24.7812 L123.8584 24.7812 ZM130.7764 24.7031 L130.7764 28 L129.8857 28 L129.8857 24.7344 Q129.8857 23.9531 129.5811 23.5703 Q129.2764 23.1875 128.667 23.1875 Q127.9482 23.1875 127.5264 23.6484 Q127.1045 24.1094 127.1045 24.9062 L127.1045 28 L126.1982 28 L126.1982 22.5312 L127.1045 22.5312 L127.1045 23.375 Q127.4326 22.8906 127.8701 22.6484 Q128.3076 22.4062 128.8701 22.4062 Q129.8076 22.4062 130.292 22.9844 Q130.7764 23.5625 130.7764 24.7031 ZM136.0518 22.6875 L136.0518 23.5469 Q135.6768 23.3438 135.2705 23.25 Q134.8643 23.1562 134.4111 23.1562 Q133.7549 23.1562 133.4189 23.3594 Q133.083 23.5625 133.083 23.9688 Q133.083 24.2812 133.3174 24.4609 Q133.5518 24.6406 134.2861 24.7969 L134.583 24.875 Q135.5518 25.0781 135.9502 25.4531 Q136.3486 25.8281 136.3486 26.4844 Q136.3486 27.25 135.7471 27.6953 Q135.1455 28.1406 134.0986 28.1406 Q133.6455 28.1406 133.1689 28.0547 Q132.6924 27.9688 132.1768 27.7969 L132.1768 26.875 Q132.6768 27.125 133.1533 27.2578 Q133.6299 27.3906 134.1143 27.3906 Q134.7393 27.3906 135.083 27.1719 Q135.4268 26.9531 135.4268 26.5625 Q135.4268 26.1875 135.1846 25.9922 Q134.9424 25.7969 134.0986 25.625 L133.7861 25.5469 Q132.958 25.375 132.583 25.0078 Q132.208 24.6406 132.208 24.0156 Q132.208 23.2344 132.7549 22.8203 Q133.3018 22.4062 134.3174 22.4062 Q134.8018 22.4062 135.2471 22.4766 Q135.6924 22.5469 136.0518 22.6875 Z"
         style="clip-path:url(#clipPath2); stroke:none;"
         clip-path="url(#clipPath2)"
         id="path158" />
    </g>
    <g
       style="fill:navy; text-rendering:geometricPrecision; font-size:8; stroke:navy;"
       id="g164">
      <text
         x="405"
         xml:space="preserve"
         y="16"
         style="clip-path:url(#clipPath4); stroke:none;"
         clip-path="url(#clipPath4)"
         id="text162">1</text>
    </g>
    <g
       style="fill:rgb(180,180,100); text-rendering:geometricPrecision; fill-opacity:0.098; stroke-opacity:0.098; stroke:rgb(180,180,100);"
       id="g168">
      <path
         d="M229 148 L296 148 L314 166 L314 213 L296 231 L229 231 L211 213 L211 166 Z"
         style="clip-path:url(#clipPath5); stroke:none;"
         clip-path="url(#clipPath5)"
         id="path166" />
    </g>
    <g
       style="fill:gray; text-rendering:geometricPrecision; stroke:gray;"
       id="g172">
      <path
         d="M229 148 L296 148 L314 166 L314 213 L296 231 L229 231 L211 213 L211 166 Z"
         style="fill:none; clip-path:url(#clipPath5);"
         clip-path="url(#clipPath5)"
         id="path170" />
    </g>
    <g
       style="text-rendering:geometricPrecision;"
       id="g178">
      <path
         d="M350.75 96.25 L263 148"
         style="fill:none; clip-path:url(#clipPath6);"
         clip-path="url(#clipPath6)"
         id="path174" />
      <path
         d="M263 148 L275.7195 146.5357 L270.4365 137.5775 Z"
         style="clip-path:url(#clipPath6); fill-rule:evenodd; stroke:none;"
         clip-path="url(#clipPath6)"
         id="path176" />
    </g>
    <g
       style="text-rendering:geometricPrecision;"
       id="g184">
      <path
         d="M263 232 L397 341"
         style="fill:none; clip-path:url(#clipPath7);"
         clip-path="url(#clipPath7)"
         id="path180" />
      <path
         d="M397 341 L391.205 329.583 L384.6423 337.6509 Z"
         style="clip-path:url(#clipPath7); fill-rule:evenodd; stroke:none;"
         clip-path="url(#clipPath7)"
         id="path182" />
    </g>
    <g
       style="text-rendering:geometricPrecision;"
       id="g190">
      <path
         d="M515.5 432 L570.0322 477.6548"
         style="fill:none; clip-path:url(#clipPath8);"
         clip-path="url(#clipPath8)"
         id="path186" />
      <path
         d="M566.045 474.3167 L559.3689 482.291 L567.3431 488.9672 L564.0051 492.9543 L576.3142 496.4778 L570.6812 484.98 L567.3431 488.9672"
         style="fill:none; clip-path:url(#clipPath8);"
         clip-path="url(#clipPath8)"
         id="path188" />
    </g>
    <g
       style="text-rendering:geometricPrecision;"
       id="g196">
      <path
         d="M540 210 L540 247"
         style="fill:none; clip-path:url(#clipPath9);"
         clip-path="url(#clipPath9)"
         id="path192" />
      <path
         d="M540 247 L545.2 235.3 L534.8 235.3 Z"
         style="clip-path:url(#clipPath9); fill-rule:evenodd; stroke:none;"
         clip-path="url(#clipPath9)"
         id="path194" />
    </g>
    <g
       style="text-rendering:geometricPrecision;"
       id="g202">
      <path
         d="M460 210 L460 247"
         style="fill:none; clip-path:url(#clipPath10);"
         clip-path="url(#clipPath10)"
         id="path198" />
      <path
         d="M460 247 L465.2 235.3 L454.8 235.3 Z"
         style="clip-path:url(#clipPath10); fill-rule:evenodd; stroke:none;"
         clip-path="url(#clipPath10)"
         id="path200" />
    </g>
    <g
       style="text-rendering:geometricPrecision;"
       id="g208">
      <path
         d="M352.5 432 L348.6986 473.0554"
         style="fill:none; clip-path:url(#clipPath11);"
         clip-path="url(#clipPath11)"
         id="path204" />
      <path
         d="M349.178 467.8775 L338.8223 466.9187 L337.8634 477.2744 L332.6856 476.7949 L336.7847 488.9245 L343.0413 477.7538 L337.8634 477.2744"
         style="fill:none; clip-path:url(#clipPath11);"
         clip-path="url(#clipPath11)"
         id="path206" />
    </g>
    <g
       style="text-rendering:geometricPrecision;"
       id="g214">
      <path
         d="M500 275 L439 341"
         style="fill:none; clip-path:url(#clipPath12);"
         clip-path="url(#clipPath12)"
         id="path210" />
      <path
         d="M439 341 L450.76 335.9373 L443.1225 328.8783 Z"
         style="clip-path:url(#clipPath12); fill-rule:evenodd; stroke:none;"
         clip-path="url(#clipPath12)"
         id="path212" />
    </g>
    <g
       style="text-rendering:geometricPrecision;"
       id="g220">
      <path
         d="M390.75 96.25 L500 182"
         style="fill:none; clip-path:url(#clipPath13);"
         clip-path="url(#clipPath13)"
         id="path216" />
      <path
         d="M500 182 L494.007 170.6857 L487.5858 178.8666 Z"
         style="clip-path:url(#clipPath13); fill-rule:evenodd; stroke:none;"
         clip-path="url(#clipPath13)"
         id="path218" />
    </g>
    <g
       style="fill:silver; text-rendering:geometricPrecision; stroke:silver;"
       id="g224">
      <path
         d="M138 92.5 L138 92.5 L138 92.5 L139.5 92.5 L139.5 94 L139.5 659 L139.5 660.5 L138 660.5 L135 660.5 L135 659 L135 657.5 L138 657.5 L139.5 657.5 L139.5 659 C139.5 662.0374 141.9625 664.5 145 664.5 L146.5 664.5 L146.5 666 L146.5 669 L145 669 L143.5 669 L143.5 666 L143.5 664.5 L145 664.5 L797 664.5 L798.5 664.5 L798.5 666 L798.5 669 L797 669 L795.5 669 L795.5 666 L795.5 664.5 L797 664.5 C800.0374 664.5 802.5 662.0374 802.5 659 L802.5 657.5 L804 657.5 L807 657.5 L807 659 L807 660.5 L804 660.5 L802.5 660.5 L802.5 659 L802.5 94 L802.5 92.5 L804 92.5 L807 92.5 L807 94 L807 95.5 L804 95.5 L802.5 95.5 L802.5 94 C802.5 90.9624 800.0374 88.5 797 88.5 L795.5 88.5 L795.5 87 L795.5 84 L797 84 L798.5 84 L798.5 87 L798.5 88.5 L797 88.5 L145 88.5 L143.5 88.5 L143.5 87 L143.5 84 L145 84 L146.5 84 L146.5 87 L146.5 88.5 L145 88.5 C141.9624 88.5 139.5 90.9624 139.5 94 L139.5 95.5 L138 95.5 L135 95.5 L135 94 L135 92.5 L138 92.5 L139.5 92.5 L139.5 95.5 L138 95.5 L135 95.5 L135 92.5 L138 92.5 L138 94 L136.5 94 C136.5 89.3056 140.3056 85.5 145 85.5 L145 87 L143.5 87 L143.5 84 L146.5 84 L146.5 87 L145 87 L145 85.5 L797 85.5 L797 87 L795.5 87 L795.5 84 L798.5 84 L798.5 87 L797 87 L797 85.5 C801.6943 85.5 805.5 89.3056 805.5 94 L804 94 L804 92.5 L807 92.5 L807 95.5 L804 95.5 L804 94 L805.5 94 L805.5 659 L804 659 L804 657.5 L807 657.5 L807 660.5 L804 660.5 L804 659 L805.5 659 C805.5 663.6943 801.6943 667.5 797 667.5 L797 666 L798.5 666 L798.5 669 L795.5 669 L795.5 666 L797 666 L797 667.5 L145 667.5 L145 666 L146.5 666 L146.5 669 L143.5 669 L143.5 666 L145 666 L145 667.5 C140.3056 667.5 136.5 663.6943 136.5 659 L138 659 L138 660.5 L135 660.5 L135 657.5 L138 657.5 L138 659 L136.5 659 L136.5 94 L138 94 L138 95.5 L138 95.5 L136.5 95.5 L136.5 92.5 ZM132 92.5 L132 92.5 L132 92.5 L132 94 L130.5 94 C130.5 85.9918 136.9919 79.5 145 79.5 L145 81 L145 79.5 L145 79.5 L145 81 L145 79.5 L797 79.5 L797 81 L797 79.5 L797 79.5 L797 81 L797 79.5 C805.0078 79.5 811.5 85.9918 811.5 94 L810 94 L810 92.5 L810 92.5 L811.5 92.5 L811.5 94 L811.5 659 L810 659 L810 657.5 L810 657.5 L811.5 657.5 L811.5 659 C811.5 667.0078 805.0078 673.5 797 673.5 L797 672 L797 670.5 L797 670.5 L797 672 L797 673.5 L145 673.5 L145 672 L145 670.5 L145 670.5 L145 672 L145 673.5 C136.9919 673.5 130.5 667.0078 130.5 659 L130.5 657.5 L132 657.5 L132 657.5 L132 659 L130.5 659 L130.5 94 L130.5 92.5 L132 92.5 M132 95.5 L132 94 L133.5 94 L133.5 659 L133.5 660.5 L132 660.5 L132 660.5 L132 659 L133.5 659 C133.5 665.3511 138.6488 670.5 145 670.5 L145 673.5 L145 673.5 L145 670.5 L797 670.5 L797 673.5 L797 673.5 L797 670.5 C803.3509 670.5 808.5 665.3509 808.5 659 L810 659 L810 660.5 L810 660.5 L808.5 660.5 L808.5 659 L808.5 94 L810 94 L810 95.5 L810 95.5 L808.5 95.5 L808.5 94 C808.5 87.6487 803.3509 82.5 797 82.5 L797 82.5 L797 82.5 L797 82.5 L145 82.5 L145 82.5 L145 82.5 L145 82.5 C138.6488 82.5 133.5 87.6487 133.5 94 L133.5 95.5 L132 95.5 L132 95.5 Z"
         style="clip-path:url(#clipPath14); stroke:none;"
         clip-path="url(#clipPath14)"
         id="path222" />
    </g>
    <g
       style="fill:silver; text-rendering:geometricPrecision; stroke:silver;"
       id="g228">
      <path
         d="M779 468.5 L779 468.5 L779 468.5 L780.5 468.5 L780.5 470 C780.5 570.6105 634.3076 648.5 460 648.5 L458.5 648.5 L458.5 647 L458.5 644 L460 644 L461.5 644 L461.5 647 L461.5 648.5 L460 648.5 C285.6921 648.5 139.5 570.6105 139.5 470 L139.5 468.5 L141 468.5 L144 468.5 L144 470 L144 471.5 L141 471.5 L139.5 471.5 L139.5 470 C139.5 369.3894 285.6921 291.5 460 291.5 L461.5 291.5 L461.5 293 L461.5 296 L460 296 L458.5 296 L458.5 293 L458.5 291.5 L460 291.5 C634.3076 291.5 780.5 369.3894 780.5 470 L780.5 471.5 L779 471.5 L776 471.5 L776 470 L776 468.5 L779 468.5 L780.5 468.5 L780.5 471.5 L779 471.5 L776 471.5 L776 468.5 L779 468.5 L779 470 L777.5 470 C777.5 372.3997 634.4535 294.5 460 294.5 L460 293 L461.5 293 L461.5 296 L458.5 296 L458.5 293 L460 293 L460 294.5 C285.5464 294.5 142.5 372.3997 142.5 470 L141 470 L141 468.5 L144 468.5 L144 471.5 L141 471.5 L141 470 L142.5 470 C142.5 567.6001 285.5464 645.5 460 645.5 L460 647 L458.5 647 L458.5 644 L461.5 644 L461.5 647 L460 647 L460 645.5 C634.4535 645.5 777.5 567.6001 777.5 470 L779 470 L779 471.5 L779 471.5 L777.5 471.5 L777.5 468.5 ZM773 468.5 L773 468.5 L773 468.5 L773 470 L771.5 470 C771.5 378.413 634.7318 300.5 460 300.5 L460 299 L460 297.5 L460 297.5 L460 299 L460 300.5 C285.2685 300.5 148.5 378.413 148.5 470 L147 470 L147 468.5 L147 468.5 L148.5 468.5 L148.5 470 C148.5 561.5869 285.2685 639.5 460 639.5 L460 641 L460 639.5 L460 639.5 L460 641 L460 639.5 C634.7318 639.5 771.5 561.5869 771.5 470 L771.5 468.5 L773 468.5 M773 471.5 L773 470 L774.5 470 C774.5 564.5923 634.5952 642.5 460 642.5 L460 642.5 L460 642.5 L460 642.5 C285.4051 642.5 145.5 564.5923 145.5 470 L147 470 L147 471.5 L147 471.5 L145.5 471.5 L145.5 470 C145.5 375.4077 285.4051 297.5 460 297.5 L460 300.5 L460 300.5 L460 297.5 C634.5952 297.5 774.5 375.4077 774.5 470 L774.5 471.5 L773 471.5 L773 471.5 Z"
         style="clip-path:url(#clipPath15); stroke:none;"
         clip-path="url(#clipPath15)"
         id="path226" />
    </g>
    <g
       style="font-weight:bold; text-rendering:geometricPrecision;"
       id="g232">
      <text
         x="553"
         xml:space="preserve"
         y="581"
         style="clip-path:url(#clipPath16); stroke:none;"
         clip-path="url(#clipPath16)"
         id="text230">Epithelial Markers</text>
    </g>
    <g
       style="font-weight:bold; text-rendering:geometricPrecision;"
       id="g236">
      <text
         x="154"
         xml:space="preserve"
         y="123"
         style="clip-path:url(#clipPath17); stroke:none;"
         clip-path="url(#clipPath17)"
         id="text234">SMAD Pathway</text>
    </g>
    <g
       style="font-weight:bold; text-rendering:geometricPrecision;"
       id="g240">
      <text
         x="618"
         xml:space="preserve"
         y="396"
         style="clip-path:url(#clipPath18); stroke:none;"
         clip-path="url(#clipPath18)"
         id="text238">Late Response TF</text>
    </g>
    <g
       style="font-weight:bold; text-rendering:geometricPrecision;"
       id="g244">
      <text
         x="273"
         xml:space="preserve"
         y="591"
         style="clip-path:url(#clipPath19); stroke:none;"
         clip-path="url(#clipPath19)"
         id="text242">Mesenchymal Markers</text>
    </g>
    <g
       style="font-weight:bold; text-rendering:geometricPrecision;"
       id="g248">
      <text
         x="351"
         xml:space="preserve"
         y="355"
         style="clip-path:url(#clipPath20); stroke:none;"
         clip-path="url(#clipPath20)"
         id="text246">EMT Transcription Factors</text>
    </g>
    <g
       style="fill:white; text-rendering:geometricPrecision; stroke:white;"
       id="g256">
      <path
         d="M420 190 L500 190 L500 210 L420 210 L420 190 Z"
         style="clip-path:url(#clipPath21); stroke:none;"
         clip-path="url(#clipPath21)"
         id="path250" />
      <path
         d="M420 190 L500 190 L500 210 L420 210 L420 190 Z"
         style="fill:none; clip-path:url(#clipPath21); stroke:black;"
         clip-path="url(#clipPath21)"
         id="path252" />
      <text
         x="450"
         y="203"
         style="font-size:10; clip-path:url(#clipPath21); fill:black; stroke:none;"
         xml:space="preserve"
         clip-path="url(#clipPath21)"
         id="text254">PI3K</text>
    </g>
    <g
       style="fill:white; text-rendering:geometricPrecision; stroke:white;"
       id="g264">
      <path
         d="M279 370 L359 370 L359 390 L279 390 L279 370 Z"
         style="clip-path:url(#clipPath22); stroke:none;"
         clip-path="url(#clipPath22)"
         id="path258" />
      <path
         d="M279 370 L359 370 L359 390 L279 390 L279 370 Z"
         style="fill:none; clip-path:url(#clipPath22); stroke:black;"
         clip-path="url(#clipPath22)"
         id="path260" />
      <text
         x="311"
         y="383"
         style="font-size:10; clip-path:url(#clipPath22); fill:black; stroke:none;"
         xml:space="preserve"
         clip-path="url(#clipPath22)"
         id="text262">ID1</text>
    </g>
    <g
       style="fill:white; text-rendering:geometricPrecision; stroke:white;"
       id="g272">
      <path
         d="M223 180 L303 180 L303 200 L223 200 L223 180 Z"
         style="clip-path:url(#clipPath23); stroke:none;"
         clip-path="url(#clipPath23)"
         id="path266" />
      <path
         d="M223 180 L303 180 L303 200 L223 200 L223 180 Z"
         style="fill:none; clip-path:url(#clipPath23); stroke:black;"
         clip-path="url(#clipPath23)"
         id="path268" />
      <text
         x="246"
         y="193"
         style="font-size:10; clip-path:url(#clipPath23); fill:black; stroke:none;"
         xml:space="preserve"
         clip-path="url(#clipPath23)"
         id="text270">SMAD3</text>
    </g>
    <g
       style="fill:white; text-rendering:geometricPrecision; stroke:white;"
       id="g280">
      <path
         d="M564 514 L644 514 L644 534 L564 534 L564 514 Z"
         style="clip-path:url(#clipPath24); stroke:none;"
         clip-path="url(#clipPath24)"
         id="path274" />
      <path
         d="M564 514 L644 514 L644 534 L564 534 L564 514 Z"
         style="fill:none; clip-path:url(#clipPath24); stroke:black;"
         clip-path="url(#clipPath24)"
         id="path276" />
      <text
         x="587"
         y="527"
         style="font-size:10; clip-path:url(#clipPath24); fill:black; stroke:none;"
         xml:space="preserve"
         clip-path="url(#clipPath24)"
         id="text278">CDH16</text>
    </g>
    <g
       style="fill:white; text-rendering:geometricPrecision; stroke:white;"
       id="g288">
      <path
         d="M330.75 76.25 L410.75 76.25 L410.75 96.25 L330.75 96.25 L330.75 76.25 Z"
         style="clip-path:url(#clipPath25); stroke:none;"
         clip-path="url(#clipPath25)"
         id="path282" />
      <path
         d="M330.75 76.25 L410.75 76.25 L410.75 96.25 L330.75 96.25 L330.75 76.25 Z"
         style="fill:none; clip-path:url(#clipPath25); stroke:black;"
         clip-path="url(#clipPath25)"
         id="path284" />
      <text
         x="355"
         y="90"
         style="font-size:10; clip-path:url(#clipPath25); fill:black; stroke:none;"
         xml:space="preserve"
         clip-path="url(#clipPath25)"
         id="text286">TGF-B</text>
    </g>
    <g
       style="fill:white; text-rendering:geometricPrecision; stroke:white;"
       id="g296">
      <path
         d="M268 534 L348 534 L348 554 L268 554 L268 534 Z"
         style="clip-path:url(#clipPath26); stroke:none;"
         clip-path="url(#clipPath26)"
         id="path290" />
      <path
         d="M268 534 L348 534 L348 554 L268 554 L268 534 Z"
         style="fill:none; clip-path:url(#clipPath26); stroke:black;"
         clip-path="url(#clipPath26)"
         id="path292" />
      <text
         x="299"
         y="547"
         style="font-size:10; clip-path:url(#clipPath26); fill:black; stroke:none;"
         xml:space="preserve"
         clip-path="url(#clipPath26)"
         id="text294">FN1</text>
    </g>
    <g
       style="fill:white; text-rendering:geometricPrecision; stroke:white;"
       id="g304">
      <path
         d="M223 200 L303 200 L303 220 L223 220 L223 200 Z"
         style="clip-path:url(#clipPath27); stroke:none;"
         clip-path="url(#clipPath27)"
         id="path298" />
      <path
         d="M223 200 L303 200 L303 220 L223 220 L223 200 Z"
         style="fill:none; clip-path:url(#clipPath27); stroke:black;"
         clip-path="url(#clipPath27)"
         id="path300" />
      <text
         x="246"
         y="213"
         style="font-size:10; clip-path:url(#clipPath27); fill:black; stroke:none;"
         xml:space="preserve"
         clip-path="url(#clipPath27)"
         id="text302">SMAD4</text>
    </g>
    <g
       style="fill:white; text-rendering:geometricPrecision; stroke:white;"
       id="g312">
      <path
         d="M268 494 L348 494 L348 514 L268 514 L268 494 Z"
         style="clip-path:url(#clipPath28); stroke:none;"
         clip-path="url(#clipPath28)"
         id="path306" />
      <path
         d="M268 494 L348 494 L348 514 L268 514 L268 494 Z"
         style="fill:none; clip-path:url(#clipPath28); stroke:black;"
         clip-path="url(#clipPath28)"
         id="path308" />
      <text
         x="292"
         y="507"
         style="font-size:10; clip-path:url(#clipPath28); fill:black; stroke:none;"
         xml:space="preserve"
         clip-path="url(#clipPath28)"
         id="text310">N-CAD</text>
    </g>
    <g
       style="fill:white; text-rendering:geometricPrecision; stroke:white;"
       id="g320">
      <path
         d="M500 247 L580 247 L580 267 L500 267 L500 247 Z"
         style="clip-path:url(#clipPath29); stroke:none;"
         clip-path="url(#clipPath29)"
         id="path314" />
      <path
         d="M500 247 L580 247 L580 267 L500 267 L500 247 Z"
         style="fill:none; clip-path:url(#clipPath29); stroke:black;"
         clip-path="url(#clipPath29)"
         id="path316" />
      <text
         x="531"
         y="260"
         style="font-size:10; clip-path:url(#clipPath29); fill:black; stroke:none;"
         xml:space="preserve"
         clip-path="url(#clipPath29)"
         id="text318">AKT</text>
    </g>
    <g
       style="fill:white; text-rendering:geometricPrecision; stroke:white;"
       id="g328">
      <path
         d="M564 494 L644 494 L644 514 L564 514 L564 494 Z"
         style="clip-path:url(#clipPath30); stroke:none;"
         clip-path="url(#clipPath30)"
         id="path322" />
      <path
         d="M564 494 L644 494 L644 514 L564 514 L564 494 Z"
         style="fill:none; clip-path:url(#clipPath30); stroke:black;"
         clip-path="url(#clipPath30)"
         id="path324" />
      <text
         x="589"
         y="507"
         style="font-size:10; clip-path:url(#clipPath30); fill:black; stroke:none;"
         xml:space="preserve"
         clip-path="url(#clipPath30)"
         id="text326">E-CAD</text>
    </g>
    <g
       style="fill:white; text-rendering:geometricPrecision; stroke:white;"
       id="g336">
      <path
         d="M455 404 L535 404 L535 424 L455 424 L455 404 Z"
         style="clip-path:url(#clipPath31); stroke:none;"
         clip-path="url(#clipPath31)"
         id="path330" />
      <path
         d="M455 404 L535 404 L535 424 L455 424 L455 404 Z"
         style="fill:none; clip-path:url(#clipPath31); stroke:black;"
         clip-path="url(#clipPath31)"
         id="path332" />
      <text
         x="481"
         y="417"
         style="font-size:10; clip-path:url(#clipPath31); fill:black; stroke:none;"
         xml:space="preserve"
         clip-path="url(#clipPath31)"
         id="text334">SNAI2</text>
    </g>
    <g
       style="fill:white; text-rendering:geometricPrecision; stroke:white;"
       id="g344">
      <path
         d="M420 247 L500 247 L500 267 L420 267 L420 247 Z"
         style="clip-path:url(#clipPath32); stroke:none;"
         clip-path="url(#clipPath32)"
         id="path338" />
      <path
         d="M420 247 L500 247 L500 267 L420 267 L420 247 Z"
         style="fill:none; clip-path:url(#clipPath32); stroke:black;"
         clip-path="url(#clipPath32)"
         id="path340" />
      <text
         x="451"
         y="260"
         style="font-size:10; clip-path:url(#clipPath32); fill:black; stroke:none;"
         xml:space="preserve"
         clip-path="url(#clipPath32)"
         id="text342">ERK</text>
    </g>
    <g
       style="fill:white; text-rendering:geometricPrecision; stroke:white;"
       id="g352">
      <path
         d="M223 160 L303 160 L303 180 L223 180 L223 160 Z"
         style="clip-path:url(#clipPath33); stroke:none;"
         clip-path="url(#clipPath33)"
         id="path346" />
      <path
         d="M223 160 L303 160 L303 180 L223 180 L223 160 Z"
         style="fill:none; clip-path:url(#clipPath33); stroke:black;"
         clip-path="url(#clipPath33)"
         id="path348" />
      <text
         x="246"
         y="173"
         style="font-size:10; clip-path:url(#clipPath33); fill:black; stroke:none;"
         xml:space="preserve"
         clip-path="url(#clipPath33)"
         id="text350">SMAD2</text>
    </g>
    <g
       style="fill:white; text-rendering:geometricPrecision; stroke:white;"
       id="g360">
      <path
         d="M268 514 L348 514 L348 534 L268 534 L268 514 Z"
         style="clip-path:url(#clipPath34); stroke:none;"
         clip-path="url(#clipPath34)"
         id="path354" />
      <path
         d="M268 514 L348 514 L348 534 L268 534 L268 514 Z"
         style="fill:none; clip-path:url(#clipPath34); stroke:black;"
         clip-path="url(#clipPath34)"
         id="path356" />
      <text
         x="299"
         y="527"
         style="font-size:10; clip-path:url(#clipPath34); fill:black; stroke:none;"
         xml:space="preserve"
         clip-path="url(#clipPath34)"
         id="text358">VIM</text>
    </g>
    <g
       style="fill:white; text-rendering:geometricPrecision; stroke:white;"
       id="g368">
      <path
         d="M347 494 L427 494 L427 514 L347 514 L347 494 Z"
         style="clip-path:url(#clipPath35); stroke:none;"
         clip-path="url(#clipPath35)"
         id="path362" />
      <path
         d="M347 494 L427 494 L427 514 L347 514 L347 494 Z"
         style="fill:none; clip-path:url(#clipPath35); stroke:black;"
         clip-path="url(#clipPath35)"
         id="path364" />
      <text
         x="373"
         y="507"
         style="font-size:10; clip-path:url(#clipPath35); fill:black; stroke:none;"
         xml:space="preserve"
         clip-path="url(#clipPath35)"
         id="text366">CDH6</text>
    </g>
    <g
       style="fill:white; text-rendering:geometricPrecision; stroke:white;"
       id="g376">
      <path
         d="M509 374 L589 374 L589 394 L509 394 L509 374 Z"
         style="clip-path:url(#clipPath36); stroke:none;"
         clip-path="url(#clipPath36)"
         id="path370" />
      <path
         d="M509 374 L589 374 L589 394 L509 394 L509 374 Z"
         style="fill:none; clip-path:url(#clipPath36); stroke:black;"
         clip-path="url(#clipPath36)"
         id="path372" />
      <text
         x="535"
         y="387"
         style="font-size:10; clip-path:url(#clipPath36); fill:black; stroke:none;"
         xml:space="preserve"
         clip-path="url(#clipPath36)"
         id="text374">SNAI1</text>
    </g>
    <g
       style="fill:white; text-rendering:geometricPrecision; stroke:white;"
       id="g384">
      <path
         d="M347 514 L427 514 L427 534 L347 534 L347 514 Z"
         style="clip-path:url(#clipPath37); stroke:none;"
         clip-path="url(#clipPath37)"
         id="path378" />
      <path
         d="M347 514 L427 514 L427 534 L347 534 L347 514 Z"
         style="fill:none; clip-path:url(#clipPath37); stroke:black;"
         clip-path="url(#clipPath37)"
         id="path380" />
      <text
         x="377"
         y="527"
         style="font-size:10; clip-path:url(#clipPath37); fill:black; stroke:none;"
         xml:space="preserve"
         clip-path="url(#clipPath37)"
         id="text382">TNC</text>
    </g>
    <g
       style="fill:white; text-rendering:geometricPrecision; stroke:white;"
       id="g392">
      <path
         d="M362 403 L442 403 L442 423 L362 423 L362 403 Z"
         style="clip-path:url(#clipPath38); stroke:none;"
         clip-path="url(#clipPath38)"
         id="path386" />
      <path
         d="M362 403 L442 403 L442 423 L362 423 L362 403 Z"
         style="fill:none; clip-path:url(#clipPath38); stroke:black;"
         clip-path="url(#clipPath38)"
         id="path388" />
      <text
         x="385"
         y="416"
         style="font-size:10; clip-path:url(#clipPath38); fill:black; stroke:none;"
         xml:space="preserve"
         clip-path="url(#clipPath38)"
         id="text390">RUNX2</text>
    </g>
    <g
       style="fill:white; text-rendering:geometricPrecision; stroke:white;"
       id="g400">
      <path
         d="M500 190 L580 190 L580 210 L500 210 L500 190 Z"
         style="clip-path:url(#clipPath39); stroke:none;"
         clip-path="url(#clipPath39)"
         id="path394" />
      <path
         d="M500 190 L580 190 L580 210 L500 210 L500 190 Z"
         style="fill:none; clip-path:url(#clipPath39); stroke:black;"
         clip-path="url(#clipPath39)"
         id="path396" />
      <text
         x="526"
         y="203"
         style="font-size:10; clip-path:url(#clipPath39); fill:black; stroke:none;"
         xml:space="preserve"
         clip-path="url(#clipPath39)"
         id="text398">MAPK</text>
    </g>
    <g
       style="fill:white; text-rendering:geometricPrecision; stroke:white;"
       id="g408">
      <path
         d="M587.5 267 C587.5 271.1422 584.1422 274.5 580 274.5 C575.8578 274.5 572.5 271.1422 572.5 267 C572.5 262.8578 575.8578 259.5 580 259.5 C584.1422 259.5 587.5 262.8578 587.5 267 Z"
         style="clip-path:url(#clipPath40); stroke:none;"
         clip-path="url(#clipPath40)"
         id="path402" />
      <path
         d="M587.5 267 C587.5 271.1422 584.1422 274.5 580 274.5 C575.8578 274.5 572.5 271.1422 572.5 267 C572.5 262.8578 575.8578 259.5 580 259.5 C584.1422 259.5 587.5 262.8578 587.5 267 Z"
         style="fill:none; clip-path:url(#clipPath40); stroke:black;"
         clip-path="url(#clipPath40)"
         id="path404" />
      <text
         x="577"
         y="270"
         style="font-size:10; clip-path:url(#clipPath40); fill:black; stroke:none;"
         xml:space="preserve"
         clip-path="url(#clipPath40)"
         id="text406">P</text>
    </g>
    <g
       style="fill:white; text-rendering:geometricPrecision; stroke:white;"
       id="g416">
      <path
         d="M310.5 200 C310.5 204.1421 307.1422 207.5 303 207.5 C298.8578 207.5 295.5 204.1421 295.5 200 C295.5 195.8579 298.8578 192.5 303 192.5 C307.1422 192.5 310.5 195.8579 310.5 200 Z"
         style="clip-path:url(#clipPath41); stroke:none;"
         clip-path="url(#clipPath41)"
         id="path410" />
      <path
         d="M310.5 200 C310.5 204.1421 307.1422 207.5 303 207.5 C298.8578 207.5 295.5 204.1421 295.5 200 C295.5 195.8579 298.8578 192.5 303 192.5 C307.1422 192.5 310.5 195.8579 310.5 200 Z"
         style="fill:none; clip-path:url(#clipPath41); stroke:black;"
         clip-path="url(#clipPath41)"
         id="path412" />
      <text
         x="300"
         y="203"
         style="font-size:10; clip-path:url(#clipPath41); fill:black; stroke:none;"
         xml:space="preserve"
         clip-path="url(#clipPath41)"
         id="text414">P</text>
    </g>
    <g
       style="fill:white; text-rendering:geometricPrecision; stroke:white;"
       id="g424">
      <path
         d="M418.25 96.25 C418.25 100.3921 414.8922 103.75 410.75 103.75 C406.6078 103.75 403.25 100.3921 403.25 96.25 C403.25 92.1079 406.6078 88.75 410.75 88.75 C414.8922 88.75 418.25 92.1079 418.25 96.25 Z"
         style="clip-path:url(#clipPath42); stroke:none;"
         clip-path="url(#clipPath42)"
         id="path418" />
      <path
         d="M418.25 96.25 C418.25 100.3921 414.8922 103.75 410.75 103.75 C406.6078 103.75 403.25 100.3921 403.25 96.25 C403.25 92.1079 406.6078 88.75 410.75 88.75 C414.8922 88.75 418.25 92.1079 418.25 96.25 Z"
         style="fill:none; clip-path:url(#clipPath42); stroke:black;"
         clip-path="url(#clipPath42)"
         id="path420" />
      <text
         x="408"
         y="99"
         style="font-size:10; clip-path:url(#clipPath42); fill:black; stroke:none;"
         xml:space="preserve"
         clip-path="url(#clipPath42)"
         id="text422">P</text>
    </g>
    <g
       style="fill:white; text-rendering:geometricPrecision; stroke:white;"
       id="g432">
      <path
         d="M507.5 266 C507.5 270.1422 504.1422 273.5 500 273.5 C495.8578 273.5 492.5 270.1422 492.5 266 C492.5 261.8578 495.8578 258.5 500 258.5 C504.1422 258.5 507.5 261.8578 507.5 266 Z"
         style="clip-path:url(#clipPath43); stroke:none;"
         clip-path="url(#clipPath43)"
         id="path426" />
      <path
         d="M507.5 266 C507.5 270.1422 504.1422 273.5 500 273.5 C495.8578 273.5 492.5 270.1422 492.5 266 C492.5 261.8578 495.8578 258.5 500 258.5 C504.1422 258.5 507.5 261.8578 507.5 266 Z"
         style="fill:none; clip-path:url(#clipPath43); stroke:black;"
         clip-path="url(#clipPath43)"
         id="path428" />
      <text
         x="497"
         y="269"
         style="font-size:10; clip-path:url(#clipPath43); fill:black; stroke:none;"
         xml:space="preserve"
         clip-path="url(#clipPath43)"
         id="text430">P</text>
    </g>
    <g
       style="fill:white; text-rendering:geometricPrecision; stroke:white;"
       id="g440">
      <path
         d="M338.25 96.25 C338.25 100.3921 334.8922 103.75 330.75 103.75 C326.6078 103.75 323.25 100.3921 323.25 96.25 C323.25 92.1079 326.6078 88.75 330.75 88.75 C334.8922 88.75 338.25 92.1079 338.25 96.25 Z"
         style="clip-path:url(#clipPath44); stroke:none;"
         clip-path="url(#clipPath44)"
         id="path434" />
      <path
         d="M338.25 96.25 C338.25 100.3921 334.8922 103.75 330.75 103.75 C326.6078 103.75 323.25 100.3921 323.25 96.25 C323.25 92.1079 326.6078 88.75 330.75 88.75 C334.8922 88.75 338.25 92.1079 338.25 96.25 Z"
         style="fill:none; clip-path:url(#clipPath44); stroke:black;"
         clip-path="url(#clipPath44)"
         id="path436" />
      <text
         x="328"
         y="99"
         style="font-size:10; clip-path:url(#clipPath44); fill:black; stroke:none;"
         xml:space="preserve"
         clip-path="url(#clipPath44)"
         id="text438">P</text>
    </g>
    <g
       style="fill:white; text-rendering:geometricPrecision; stroke:white;"
       id="g448">
      <path
         d="M310.5 180 C310.5 184.1421 307.1422 187.5 303 187.5 C298.8578 187.5 295.5 184.1421 295.5 180 C295.5 175.8579 298.8578 172.5 303 172.5 C307.1422 172.5 310.5 175.8579 310.5 180 Z"
         style="clip-path:url(#clipPath45); stroke:none;"
         clip-path="url(#clipPath45)"
         id="path442" />
      <path
         d="M310.5 180 C310.5 184.1421 307.1422 187.5 303 187.5 C298.8578 187.5 295.5 184.1421 295.5 180 C295.5 175.8579 298.8578 172.5 303 172.5 C307.1422 172.5 310.5 175.8579 310.5 180 Z"
         style="fill:none; clip-path:url(#clipPath45); stroke:black;"
         clip-path="url(#clipPath45)"
         id="path444" />
      <text
         x="300"
         y="183"
         style="font-size:10; clip-path:url(#clipPath45); fill:black; stroke:none;"
         xml:space="preserve"
         clip-path="url(#clipPath45)"
         id="text446">P</text>
    </g>
    <g
       style="fill:white; text-rendering:geometricPrecision; stroke:white;"
       id="g456">
      <path
         d="M418.25 76.25 C418.25 80.3921 414.8922 83.75 410.75 83.75 C406.6078 83.75 403.25 80.3921 403.25 76.25 C403.25 72.1079 406.6078 68.75 410.75 68.75 C414.8922 68.75 418.25 72.1079 418.25 76.25 Z"
         style="clip-path:url(#clipPath46); stroke:none;"
         clip-path="url(#clipPath46)"
         id="path450" />
      <path
         d="M418.25 76.25 C418.25 80.3921 414.8922 83.75 410.75 83.75 C406.6078 83.75 403.25 80.3921 403.25 76.25 C403.25 72.1079 406.6078 68.75 410.75 68.75 C414.8922 68.75 418.25 72.1079 418.25 76.25 Z"
         style="fill:none; clip-path:url(#clipPath46); stroke:black;"
         clip-path="url(#clipPath46)"
         id="path452" />
      <text
         x="408"
         y="79"
         style="font-size:10; clip-path:url(#clipPath46); fill:black; stroke:none;"
         xml:space="preserve"
         clip-path="url(#clipPath46)"
         id="text454">P</text>
    </g>
    <g
       style="font-weight:bold; text-rendering:geometricPrecision;"
       id="g460">
      <text
         x="454"
         xml:space="preserve"
         y="125"
         style="clip-path:url(#clipPath47); stroke:none;"
         clip-path="url(#clipPath47)"
         id="text458">Non-SMAD Pathway</text>
    </g>
    <g
       style="font-weight:bold; text-rendering:geometricPrecision;"
       id="g464">
      <text
         x="142"
         xml:space="preserve"
         y="404"
         style="clip-path:url(#clipPath48); stroke:none;"
         clip-path="url(#clipPath48)"
         id="text462">Early Response TF</text>
    </g>
  </g>
</svg>
