<?xml version="1.0" encoding="UTF-8" standalone="no"?>
<svg
   style="fill-opacity:1; color-rendering:auto; color-interpolation:auto; stroke:black; text-rendering:auto; stroke-linecap:square; stroke-miterlimit:10; stroke-opacity:1; shape-rendering:auto; fill:black; stroke-dasharray:none; font-weight:normal; stroke-width:1; font-family:'Dialog'; font-style:normal; stroke-linejoin:miter; font-size:12; stroke-dashoffset:0; image-rendering:auto;"
   width="1403"
   height="1214"
   version="1.1"
   id="svg292"
   xmlns="http://www.w3.org/2000/svg"
   xmlns:svg="http://www.w3.org/2000/svg">
  <!--Generated by the Batik Graphics2D SVG Generator-->
  <defs
     id="genericDefs" />
  <g
     id="g290">
    <defs
       id="defs1">
      <clipPath
         clipPathUnits="userSpaceOnUse"
         id="clipPath1">
        <path
           d="M0 0 L1413 0 L1413 1224 L0 1224 L0 0 Z"
           id="path3" />
      </clipPath>
      <clipPath
         clipPathUnits="userSpaceOnUse"
         id="clipPath2">
        <path
           d="M0 0 L0 200 L200 200 L200 0 Z"
           id="path6" />
      </clipPath>
      <clipPath
         clipPathUnits="userSpaceOnUse"
         id="clipPath3">
        <path
           d="M413.5 458.5 L413.5 545 L546 545 L546 458.5 Z"
           id="path9" />
      </clipPath>
      <clipPath
         clipPathUnits="userSpaceOnUse"
         id="clipPath4">
        <path
           d="M671.0977 585.3477 L671.0977 980.1392 L833.6489 980.1392 L833.6489 585.3477 Z"
           id="path12" />
      </clipPath>
      <clipPath
         clipPathUnits="userSpaceOnUse"
         id="clipPath5">
        <path
           d="M522.2461 585.3606 L522.2461 1000.1589 L672.3894 1000.1589 L672.3894 585.3606 Z"
           id="path15" />
      </clipPath>
      <clipPath
         clipPathUnits="userSpaceOnUse"
         id="clipPath6">
        <path
           d="M474.9525 344.3195 L474.9525 462.4033 L637.1805 462.4033 L637.1805 344.3195 Z"
           id="path18" />
      </clipPath>
      <clipPath
         clipPathUnits="userSpaceOnUse"
         id="clipPath7">
        <path
           d="M635.8078 106.3078 L635.8078 209.5298 L703.6922 209.5298 L703.6922 106.3078 Z"
           id="path21" />
      </clipPath>
      <clipPath
         clipPathUnits="userSpaceOnUse"
         id="clipPath8">
        <path
           d="M635.8527 344.3526 L635.8527 436.6472 L672.8845 436.6472 L672.8845 344.3526 Z"
           id="path24" />
      </clipPath>
      <clipPath
         clipPathUnits="userSpaceOnUse"
         id="clipPath9">
        <path
           d="M508.3589 161.3589 L508.3589 210.1407 L637.6566 210.1407 L637.6566 161.3589 Z"
           id="path27" />
      </clipPath>
      <clipPath
         clipPathUnits="userSpaceOnUse"
         id="clipPath10">
        <path
           d="M583.308 127.3081 L583.308 209.5312 L637.192 209.5312 L637.192 127.3081 Z"
           id="path30" />
      </clipPath>
      <clipPath
         clipPathUnits="userSpaceOnUse"
         id="clipPath11">
        <path
           d="M19.5 253 L19.5 1200 L1389 1200 L1389 253 Z"
           id="path33" />
      </clipPath>
      <clipPath
         clipPathUnits="userSpaceOnUse"
         id="clipPath12">
        <path
           d="M616 434 L616 587.5 L727.5 587.5 L727.5 434 Z"
           id="path36" />
      </clipPath>
      <clipPath
         clipPathUnits="userSpaceOnUse"
         id="clipPath13">
        <path
           d="M524.1875 1001.006 L524.1875 1037.994 L570.0878 1037.994 L570.0878 1001.006 Z"
           id="path39" />
      </clipPath>
      <clipPath
         clipPathUnits="userSpaceOnUse"
         id="clipPath14">
        <path
           d="M385 825 L385 1159 L1070 1159 L1070 825 Z"
           id="path42" />
      </clipPath>
      <clipPath
         clipPathUnits="userSpaceOnUse"
         id="clipPath15">
        <path
           d="M534.5 207 L534.5 346.5 L738.5 346.5 L738.5 207 Z"
           id="path45" />
      </clipPath>
      <clipPath
         clipPathUnits="userSpaceOnUse"
         id="clipPath16">
        <path
           d="M675.5 411.5 L675.5 432.5 L772.5 432.5 L772.5 411.5 Z"
           id="path48" />
      </clipPath>
      <clipPath
         clipPathUnits="userSpaceOnUse"
         id="clipPath17">
        <path
           d="M629.5 452.5 L629.5 473.5 L710.5 473.5 L710.5 452.5 Z"
           id="path51" />
      </clipPath>
      <clipPath
         clipPathUnits="userSpaceOnUse"
         id="clipPath18">
        <path
           d="M543.5 107.5 L543.5 128.5 L624.5 128.5 L624.5 107.5 Z"
           id="path54" />
      </clipPath>
      <clipPath
         clipPathUnits="userSpaceOnUse"
         id="clipPath19">
        <path
           d="M662.5 86.5 L662.5 107.5 L743.5 107.5 L743.5 86.5 Z"
           id="path57" />
      </clipPath>
      <clipPath
         clipPathUnits="userSpaceOnUse"
         id="clipPath20">
        <path
           d="M546.5 246.5 L546.5 267.5 L627.5 267.5 L627.5 246.5 Z"
           id="path60" />
      </clipPath>
      <clipPath
         clipPathUnits="userSpaceOnUse"
         id="clipPath21">
        <path
           d="M647.5 272.5 L647.5 293.5 L728.5 293.5 L728.5 272.5 Z"
           id="path63" />
      </clipPath>
      <clipPath
         clipPathUnits="userSpaceOnUse"
         id="clipPath22">
        <path
           d="M630.5 535.5 L630.5 556.5 L711.5 556.5 L711.5 535.5 Z"
           id="path66" />
      </clipPath>
      <clipPath
         clipPathUnits="userSpaceOnUse"
         id="clipPath23">
        <path
           d="M540.5 274.5 L540.5 295.5 L621.5 295.5 L621.5 274.5 Z"
           id="path69" />
      </clipPath>
      <clipPath
         clipPathUnits="userSpaceOnUse"
         id="clipPath24">
        <path
           d="M468.5 141.5 L468.5 162.5 L549.5 162.5 L549.5 141.5 Z"
           id="path72" />
      </clipPath>
      <clipPath
         clipPathUnits="userSpaceOnUse"
         id="clipPath25">
        <path
           d="M435.5 502.5 L435.5 523.5 L516.5 523.5 L516.5 502.5 Z"
           id="path75" />
      </clipPath>
      <clipPath
         clipPathUnits="userSpaceOnUse"
         id="clipPath26">
        <path
           d="M635.5 247.5 L635.5 268.5 L716.5 268.5 L716.5 247.5 Z"
           id="path78" />
      </clipPath>
      <clipPath
         clipPathUnits="userSpaceOnUse"
         id="clipPath27">
        <path
           d="M833.1875 981.006 L833.1875 1017.994 L879.0878 1017.994 L879.0878 981.006 Z"
           id="path81" />
      </clipPath>
      <clipPath
         clipPathUnits="userSpaceOnUse"
         id="clipPath28">
        <path
           d="M433.5 480.5 L433.5 501.5 L514.5 501.5 L514.5 480.5 Z"
           id="path84" />
      </clipPath>
      <clipPath
         clipPathUnits="userSpaceOnUse"
         id="clipPath29">
        <path
           d="M631.5 494.5 L631.5 515.5 L712.5 515.5 L712.5 494.5 Z"
           id="path87" />
      </clipPath>
      <clipPath
         clipPathUnits="userSpaceOnUse"
         id="clipPath30">
        <path
           d="M424 469 L424 534.5 L535.5 534.5 L535.5 469 Z"
           id="path90" />
      </clipPath>
    </defs>
    <g
       style="fill:white; stroke:white;"
       id="g96">
      <rect
         x="0"
         width="1413"
         height="1224"
         y="0"
         style="stroke:none;"
         id="rect94" />
    </g>
    <g
       style="font-weight:bold; font-size:10; text-rendering:geometricPrecision;"
       id="g106">
      <path
         d="M0.0469 6.7031 L6.7656 6.7031 L6.7656 8.125 L4.3438 8.125 L4.3438 14 L2.4688 14 L2.4688 8.125 L0.0469 8.125 L0.0469 6.7031 ZM7.665 8.5312 L9.415 8.5312 L9.415 14 L7.665 14 L7.665 8.5312 ZM7.665 6.4062 L9.415 6.4062 L9.415 7.8281 L7.665 7.8281 L7.665 6.4062 ZM12.999 6.9844 L12.999 8.5312 L14.7959 8.5312 L14.7959 9.7812 L12.999 9.7812 L12.999 12.0938 Q12.999 12.4844 13.1475 12.6172 Q13.2959 12.75 13.749 12.75 L14.6553 12.75 L14.6553 14 L13.1553 14 Q12.1084 14 11.6787 13.5703 Q11.249 13.1406 11.249 12.0938 L11.249 9.7812 L10.374 9.7812 L10.374 8.5312 L11.249 8.5312 L11.249 6.9844 L12.999 6.9844 ZM15.873 6.4062 L17.623 6.4062 L17.623 14 L15.873 14 L15.873 6.4062 ZM24.7539 11.25 L24.7539 11.75 L20.6758 11.75 Q20.7383 12.3594 21.1133 12.6719 Q21.4883 12.9844 22.1758 12.9844 Q22.7227 12.9844 23.3086 12.8203 Q23.8945 12.6562 24.5039 12.3125 L24.5039 13.6719 Q23.8789 13.9062 23.2617 14.0234 Q22.6445 14.1406 22.0195 14.1406 Q20.5352 14.1406 19.7148 13.3828 Q18.8945 12.625 18.8945 11.2656 Q18.8945 9.9375 19.6992 9.1719 Q20.5039 8.4062 21.9258 8.4062 Q23.207 8.4062 23.9805 9.1797 Q24.7539 9.9531 24.7539 11.25 ZM22.957 10.6719 Q22.957 10.1719 22.668 9.8672 Q22.3789 9.5625 21.9102 9.5625 Q21.3945 9.5625 21.082 9.8438 Q20.7695 10.125 20.6914 10.6719 L22.957 10.6719 ZM26.3643 8.5312 L28.1143 8.5312 L28.1143 10.4219 L26.3643 10.4219 L26.3643 8.5312 ZM26.3643 12.1094 L28.1143 12.1094 L28.1143 14 L26.3643 14 L26.3643 12.1094 Z"
         style="clip-path:url(#clipPath2); stroke:none;"
         clip-path="url(#clipPath2)"
         id="path98" />
      <path
         d="M37.9688 6.7031 L44.1406 6.7031 L44.1406 7.5469 L41.5469 7.5469 L41.5469 14 L40.5625 14 L40.5625 7.5469 L37.9688 7.5469 L37.9688 6.7031 ZM47.3271 14.5156 Q46.9521 15.4844 46.585 15.7812 Q46.2178 16.0781 45.624 16.0781 L44.9053 16.0781 L44.9053 15.3281 L45.4209 15.3281 Q45.7959 15.3281 45.999 15.1562 Q46.2021 14.9844 46.4521 14.3281 L46.624 13.9062 L44.4053 8.5312 L45.3584 8.5312 L47.0615 12.8125 L48.7803 8.5312 L49.7334 8.5312 L47.3271 14.5156 ZM51.8389 13.1719 L51.8389 16.0781 L50.9326 16.0781 L50.9326 8.5312 L51.8389 8.5312 L51.8389 9.3594 Q52.1201 8.875 52.5498 8.6406 Q52.9795 8.4062 53.5889 8.4062 Q54.5889 8.4062 55.2061 9.1953 Q55.8232 9.9844 55.8232 11.2656 Q55.8232 12.5625 55.2061 13.3516 Q54.5889 14.1406 53.5889 14.1406 Q52.9795 14.1406 52.5498 13.9062 Q52.1201 13.6719 51.8389 13.1719 ZM54.9014 11.2656 Q54.9014 10.2812 54.4873 9.7188 Q54.0732 9.1562 53.3701 9.1562 Q52.6514 9.1562 52.2451 9.7188 Q51.8389 10.2812 51.8389 11.2656 Q51.8389 12.2656 52.2451 12.8281 Q52.6514 13.3906 53.3701 13.3906 Q54.0732 13.3906 54.4873 12.8281 Q54.9014 12.2656 54.9014 11.2656 ZM61.999 11.0469 L61.999 11.4844 L57.8584 11.4844 Q57.9209 12.4062 58.4209 12.8906 Q58.9209 13.375 59.8115 13.375 Q60.3271 13.375 60.8193 13.25 Q61.3115 13.125 61.7803 12.875 L61.7803 13.7188 Q61.2959 13.9219 60.7881 14.0312 Q60.2803 14.1406 59.7646 14.1406 Q58.4521 14.1406 57.6865 13.3828 Q56.9209 12.625 56.9209 11.3125 Q56.9209 9.9688 57.6475 9.1875 Q58.374 8.4062 59.6084 8.4062 Q60.7178 8.4062 61.3584 9.1094 Q61.999 9.8125 61.999 11.0469 ZM61.0928 10.7812 Q61.0928 10.0469 60.6865 9.6016 Q60.2803 9.1562 59.624 9.1562 Q58.8584 9.1562 58.4131 9.5859 Q57.9678 10.0156 57.8896 10.7812 L61.0928 10.7812 ZM66.6895 6.7031 L67.6738 6.7031 L67.6738 14 L66.6895 14 L66.6895 6.7031 ZM69.6387 6.7031 L70.623 6.7031 L70.623 14 L69.6387 14 L69.6387 6.7031 ZM72.5879 6.7031 L73.5723 6.7031 L73.5723 14 L72.5879 14 L72.5879 6.7031 ZM78.6689 8.5312 L79.5752 8.5312 L79.5752 14 L78.6689 14 L78.6689 8.5312 ZM78.6689 6.4062 L79.5752 6.4062 L79.5752 7.5469 L78.6689 7.5469 L78.6689 6.4062 ZM85.9941 10.7031 L85.9941 14 L85.1035 14 L85.1035 10.7344 Q85.1035 9.9531 84.7988 9.5703 Q84.4941 9.1875 83.8848 9.1875 Q83.166 9.1875 82.7441 9.6484 Q82.3223 10.1094 82.3223 10.9062 L82.3223 14 L81.416 14 L81.416 8.5312 L82.3223 8.5312 L82.3223 9.375 Q82.6504 8.8906 83.0879 8.6484 Q83.5254 8.4062 84.0879 8.4062 Q85.0254 8.4062 85.5098 8.9844 Q85.9941 9.5625 85.9941 10.7031 ZM88.6758 6.9844 L88.6758 8.5312 L90.5352 8.5312 L90.5352 9.2344 L88.6758 9.2344 L88.6758 12.2031 Q88.6758 12.8594 88.8633 13.0547 Q89.0508 13.25 89.6133 13.25 L90.5352 13.25 L90.5352 14 L89.6133 14 Q88.5664 14 88.168 13.6094 Q87.7695 13.2188 87.7695 12.2031 L87.7695 9.2344 L87.1133 9.2344 L87.1133 8.5312 L87.7695 8.5312 L87.7695 6.9844 L88.6758 6.9844 ZM96.3936 11.0469 L96.3936 11.4844 L92.2529 11.4844 Q92.3154 12.4062 92.8154 12.8906 Q93.3154 13.375 94.2061 13.375 Q94.7217 13.375 95.2139 13.25 Q95.7061 13.125 96.1748 12.875 L96.1748 13.7188 Q95.6904 13.9219 95.1826 14.0312 Q94.6748 14.1406 94.1592 14.1406 Q92.8467 14.1406 92.0811 13.3828 Q91.3154 12.625 91.3154 11.3125 Q91.3154 9.9688 92.042 9.1875 Q92.7686 8.4062 94.0029 8.4062 Q95.1123 8.4062 95.7529 9.1094 Q96.3936 9.8125 96.3936 11.0469 ZM95.4873 10.7812 Q95.4873 10.0469 95.0811 9.6016 Q94.6748 9.1562 94.0186 9.1562 Q93.2529 9.1562 92.8076 9.5859 Q92.3623 10.0156 92.2842 10.7812 L95.4873 10.7812 ZM101.0303 9.375 Q100.874 9.2812 100.7021 9.2422 Q100.5303 9.2031 100.3115 9.2031 Q99.5459 9.2031 99.1396 9.6953 Q98.7334 10.1875 98.7334 11.125 L98.7334 14 L97.8271 14 L97.8271 8.5312 L98.7334 8.5312 L98.7334 9.375 Q99.0146 8.875 99.4678 8.6406 Q99.9209 8.4062 100.5771 8.4062 Q100.6709 8.4062 100.7803 8.4141 Q100.8896 8.4219 101.0303 8.4531 L101.0303 9.375 ZM104.751 6.4062 L104.751 7.1562 L103.8916 7.1562 Q103.4072 7.1562 103.2197 7.3516 Q103.0322 7.5469 103.0322 8.0469 L103.0322 8.5312 L104.501 8.5312 L104.501 9.2344 L103.0322 9.2344 L103.0322 14 L102.126 14 L102.126 9.2344 L101.2666 9.2344 L101.2666 8.5312 L102.126 8.5312 L102.126 8.1562 Q102.126 7.2344 102.5479 6.8203 Q102.9697 6.4062 103.8916 6.4062 L104.751 6.4062 ZM110.1777 11.0469 L110.1777 11.4844 L106.0371 11.4844 Q106.0996 12.4062 106.5996 12.8906 Q107.0996 13.375 107.9902 13.375 Q108.5059 13.375 108.998 13.25 Q109.4902 13.125 109.959 12.875 L109.959 13.7188 Q109.4746 13.9219 108.9668 14.0312 Q108.459 14.1406 107.9434 14.1406 Q106.6309 14.1406 105.8652 13.3828 Q105.0996 12.625 105.0996 11.3125 Q105.0996 9.9688 105.8262 9.1875 Q106.5527 8.4062 107.7871 8.4062 Q108.8965 8.4062 109.5371 9.1094 Q110.1777 9.8125 110.1777 11.0469 ZM109.2715 10.7812 Q109.2715 10.0469 108.8652 9.6016 Q108.459 9.1562 107.8027 9.1562 Q107.0371 9.1562 106.5918 9.5859 Q106.1465 10.0156 106.0684 10.7812 L109.2715 10.7812 ZM114.8145 9.375 Q114.6582 9.2812 114.4863 9.2422 Q114.3145 9.2031 114.0957 9.2031 Q113.3301 9.2031 112.9238 9.6953 Q112.5176 10.1875 112.5176 11.125 L112.5176 14 L111.6113 14 L111.6113 8.5312 L112.5176 8.5312 L112.5176 9.375 Q112.7988 8.875 113.252 8.6406 Q113.7051 8.4062 114.3613 8.4062 Q114.4551 8.4062 114.5645 8.4141 Q114.6738 8.4219 114.8145 8.4531 L114.8145 9.375 ZM117.8789 9.1562 Q117.1602 9.1562 116.7383 9.7188 Q116.3164 10.2812 116.3164 11.2656 Q116.3164 12.25 116.7305 12.8125 Q117.1445 13.375 117.8789 13.375 Q118.5977 13.375 119.0195 12.8125 Q119.4414 12.25 119.4414 11.2656 Q119.4414 10.2969 119.0195 9.7266 Q118.5977 9.1562 117.8789 9.1562 ZM117.8789 8.4062 Q119.0508 8.4062 119.7227 9.1641 Q120.3945 9.9219 120.3945 11.2656 Q120.3945 12.6094 119.7227 13.375 Q119.0508 14.1406 117.8789 14.1406 Q116.707 14.1406 116.0352 13.375 Q115.3633 12.6094 115.3633 11.2656 Q115.3633 9.9219 116.0352 9.1641 Q116.707 8.4062 117.8789 8.4062 ZM126.4189 10.7031 L126.4189 14 L125.5283 14 L125.5283 10.7344 Q125.5283 9.9531 125.2236 9.5703 Q124.9189 9.1875 124.3096 9.1875 Q123.5908 9.1875 123.1689 9.6484 Q122.7471 10.1094 122.7471 10.9062 L122.7471 14 L121.8408 14 L121.8408 8.5312 L122.7471 8.5312 L122.7471 9.375 Q123.0752 8.8906 123.5127 8.6484 Q123.9502 8.4062 124.5127 8.4062 Q125.4502 8.4062 125.9346 8.9844 Q126.4189 9.5625 126.4189 10.7031 ZM134.873 8.6875 L134.873 9.5469 Q134.498 9.3438 134.0918 9.25 Q133.6855 9.1562 133.2324 9.1562 Q132.5762 9.1562 132.2402 9.3594 Q131.9043 9.5625 131.9043 9.9688 Q131.9043 10.2812 132.1387 10.4609 Q132.373 10.6406 133.1074 10.7969 L133.4043 10.875 Q134.373 11.0781 134.7715 11.4531 Q135.1699 11.8281 135.1699 12.4844 Q135.1699 13.25 134.5684 13.6953 Q133.9668 14.1406 132.9199 14.1406 Q132.4668 14.1406 131.9902 14.0547 Q131.5137 13.9688 130.998 13.7969 L130.998 12.875 Q131.498 13.125 131.9746 13.2578 Q132.4512 13.3906 132.9355 13.3906 Q133.5605 13.3906 133.9043 13.1719 Q134.248 12.9531 134.248 12.5625 Q134.248 12.1875 134.0059 11.9922 Q133.7637 11.7969 132.9199 11.625 L132.6074 11.5469 Q131.7793 11.375 131.4043 11.0078 Q131.0293 10.6406 131.0293 10.0156 Q131.0293 9.2344 131.5762 8.8203 Q132.123 8.4062 133.1387 8.4062 Q133.623 8.4062 134.0684 8.4766 Q134.5137 8.5469 134.873 8.6875 ZM136.5986 8.5312 L137.5049 8.5312 L137.5049 14 L136.5986 14 L136.5986 8.5312 ZM136.5986 6.4062 L137.5049 6.4062 L137.5049 7.5469 L136.5986 7.5469 L136.5986 6.4062 ZM142.9863 11.2031 Q142.9863 10.2188 142.5801 9.6875 Q142.1738 9.1562 141.4551 9.1562 Q140.7207 9.1562 140.3223 9.6875 Q139.9238 10.2188 139.9238 11.2031 Q139.9238 12.1719 140.3223 12.7109 Q140.7207 13.25 141.4551 13.25 Q142.1738 13.25 142.5801 12.7109 Q142.9863 12.1719 142.9863 11.2031 ZM143.877 13.3281 Q143.877 14.7188 143.2598 15.3984 Q142.6426 16.0781 141.3613 16.0781 Q140.8926 16.0781 140.4707 16.0078 Q140.0488 15.9375 139.6582 15.7969 L139.6582 14.9219 Q140.0488 15.1406 140.4316 15.2422 Q140.8145 15.3438 141.2207 15.3438 Q142.0957 15.3438 142.541 14.8828 Q142.9863 14.4219 142.9863 13.4844 L142.9863 13.0312 Q142.7051 13.5156 142.2676 13.7578 Q141.8301 14 141.2207 14 Q140.2207 14 139.6035 13.2344 Q138.9863 12.4688 138.9863 11.2031 Q138.9863 9.9375 139.6035 9.1719 Q140.2207 8.4062 141.2207 8.4062 Q141.8301 8.4062 142.2676 8.6406 Q142.7051 8.875 142.9863 9.3594 L142.9863 8.5312 L143.877 8.5312 L143.877 13.3281 ZM150.2715 10.7031 L150.2715 14 L149.3809 14 L149.3809 10.7344 Q149.3809 9.9531 149.0762 9.5703 Q148.7715 9.1875 148.1621 9.1875 Q147.4434 9.1875 147.0215 9.6484 Q146.5996 10.1094 146.5996 10.9062 L146.5996 14 L145.6934 14 L145.6934 8.5312 L146.5996 8.5312 L146.5996 9.375 Q146.9277 8.8906 147.3652 8.6484 Q147.8027 8.4062 148.3652 8.4062 Q149.3027 8.4062 149.7871 8.9844 Q150.2715 9.5625 150.2715 10.7031 ZM154.5469 11.25 Q153.4688 11.25 153.0469 11.5 Q152.625 11.75 152.625 12.3438 Q152.625 12.8281 152.9375 13.1094 Q153.25 13.3906 153.7969 13.3906 Q154.5469 13.3906 155 12.8594 Q155.4531 12.3281 155.4531 11.4531 L155.4531 11.25 L154.5469 11.25 ZM156.3438 10.875 L156.3438 14 L155.4531 14 L155.4531 13.1719 Q155.1406 13.6719 154.6797 13.9062 Q154.2188 14.1406 153.5625 14.1406 Q152.7188 14.1406 152.2188 13.6719 Q151.7188 13.2031 151.7188 12.4062 Q151.7188 11.4844 152.3438 11.0156 Q152.9688 10.5469 154.1875 10.5469 L155.4531 10.5469 L155.4531 10.4531 Q155.4531 9.8438 155.0391 9.5 Q154.625 9.1562 153.8906 9.1562 Q153.4219 9.1562 152.9766 9.2734 Q152.5312 9.3906 152.125 9.6094 L152.125 8.7812 Q152.625 8.5938 153.0859 8.5 Q153.5469 8.4062 153.9844 8.4062 Q155.1719 8.4062 155.7578 9.0156 Q156.3438 9.625 156.3438 10.875 ZM158.1904 6.4062 L159.0967 6.4062 L159.0967 14 L158.1904 14 L158.1904 6.4062 ZM160.9688 8.5312 L161.875 8.5312 L161.875 14 L160.9688 14 L160.9688 8.5312 ZM160.9688 6.4062 L161.875 6.4062 L161.875 7.5469 L160.9688 7.5469 L160.9688 6.4062 ZM168.2939 10.7031 L168.2939 14 L167.4033 14 L167.4033 10.7344 Q167.4033 9.9531 167.0986 9.5703 Q166.7939 9.1875 166.1846 9.1875 Q165.4658 9.1875 165.0439 9.6484 Q164.6221 10.1094 164.6221 10.9062 L164.6221 14 L163.7158 14 L163.7158 8.5312 L164.6221 8.5312 L164.6221 9.375 Q164.9502 8.8906 165.3877 8.6484 Q165.8252 8.4062 166.3877 8.4062 Q167.3252 8.4062 167.8096 8.9844 Q168.2939 9.5625 168.2939 10.7031 ZM173.6943 11.2031 Q173.6943 10.2188 173.2881 9.6875 Q172.8818 9.1562 172.1631 9.1562 Q171.4287 9.1562 171.0303 9.6875 Q170.6318 10.2188 170.6318 11.2031 Q170.6318 12.1719 171.0303 12.7109 Q171.4287 13.25 172.1631 13.25 Q172.8818 13.25 173.2881 12.7109 Q173.6943 12.1719 173.6943 11.2031 ZM174.585 13.3281 Q174.585 14.7188 173.9678 15.3984 Q173.3506 16.0781 172.0693 16.0781 Q171.6006 16.0781 171.1787 16.0078 Q170.7568 15.9375 170.3662 15.7969 L170.3662 14.9219 Q170.7568 15.1406 171.1396 15.2422 Q171.5225 15.3438 171.9287 15.3438 Q172.8037 15.3438 173.249 14.8828 Q173.6943 14.4219 173.6943 13.4844 L173.6943 13.0312 Q173.4131 13.5156 172.9756 13.7578 Q172.5381 14 171.9287 14 Q170.9287 14 170.3115 13.2344 Q169.6943 12.4688 169.6943 11.2031 Q169.6943 9.9375 170.3115 9.1719 Q170.9287 8.4062 171.9287 8.4062 Q172.5381 8.4062 172.9756 8.6406 Q173.4131 8.875 173.6943 9.3594 L173.6943 8.5312 L174.585 8.5312 L174.585 13.3281 Z"
         style="clip-path:url(#clipPath2); stroke:none;"
         clip-path="url(#clipPath2)"
         id="path100" />
      <path
         d="M4.25 21.9375 Q3.3906 21.9375 2.9141 22.5703 Q2.4375 23.2031 2.4375 24.3594 Q2.4375 25.5156 2.9141 26.1484 Q3.3906 26.7812 4.25 26.7812 Q5.1094 26.7812 5.5859 26.1484 Q6.0625 25.5156 6.0625 24.3594 Q6.0625 23.2031 5.5859 22.5703 Q5.1094 21.9375 4.25 21.9375 ZM4.25 20.5781 Q6 20.5781 7 21.5859 Q8 22.5938 8 24.3594 Q8 26.125 7 27.1328 Q6 28.1406 4.25 28.1406 Q2.5 28.1406 1.5 27.1328 Q0.5 26.125 0.5 24.3594 Q0.5 22.5938 1.5 21.5859 Q2.5 20.5781 4.25 20.5781 ZM13.4072 24.0156 Q13.1729 23.9062 12.9463 23.8594 Q12.7197 23.8125 12.4854 23.8125 Q11.8135 23.8125 11.4541 24.2422 Q11.0947 24.6719 11.0947 25.4844 L11.0947 28 L9.3447 28 L9.3447 22.5312 L11.0947 22.5312 L11.0947 23.4219 Q11.4229 22.8906 11.8604 22.6484 Q12.2979 22.4062 12.9072 22.4062 Q13.001 22.4062 13.1025 22.4062 Q13.2041 22.4062 13.3916 22.4375 L13.4072 24.0156 ZM17.9951 27.0781 Q17.6357 27.5469 17.1982 27.7734 Q16.7607 28 16.1982 28 Q15.1982 28 14.542 27.2109 Q13.8857 26.4219 13.8857 25.2031 Q13.8857 23.9688 14.542 23.1875 Q15.1982 22.4062 16.1982 22.4062 Q16.7607 22.4062 17.1982 22.6328 Q17.6357 22.8594 17.9951 23.3438 L17.9951 22.5312 L19.7451 22.5312 L19.7451 27.4531 Q19.7451 28.7656 18.917 29.4609 Q18.0889 30.1562 16.5107 30.1562 Q15.9951 30.1562 15.5186 30.0781 Q15.042 30 14.5576 29.8438 L14.5576 28.4844 Q15.0107 28.75 15.4482 28.875 Q15.8857 29 16.3389 29 Q17.1982 29 17.5967 28.625 Q17.9951 28.25 17.9951 27.4531 L17.9951 27.0781 ZM16.8389 23.6719 Q16.292 23.6719 15.9951 24.0703 Q15.6982 24.4688 15.6982 25.2031 Q15.6982 25.9531 15.9873 26.3438 Q16.2764 26.7344 16.8389 26.7344 Q17.3857 26.7344 17.6904 26.3281 Q17.9951 25.9219 17.9951 25.2031 Q17.9951 24.4688 17.6904 24.0703 Q17.3857 23.6719 16.8389 23.6719 ZM23.8877 25.5312 Q23.3408 25.5312 23.0596 25.7188 Q22.7783 25.9062 22.7783 26.2656 Q22.7783 26.6094 23.0049 26.7969 Q23.2314 26.9844 23.6221 26.9844 Q24.1221 26.9844 24.458 26.625 Q24.7939 26.2656 24.7939 25.7344 L24.7939 25.5312 L23.8877 25.5312 ZM26.5596 24.875 L26.5596 28 L24.7939 28 L24.7939 27.1875 Q24.4346 27.6875 23.9971 27.9141 Q23.5596 28.1406 22.9346 28.1406 Q22.0752 28.1406 21.5518 27.6484 Q21.0283 27.1562 21.0283 26.3594 Q21.0283 25.3906 21.6846 24.9453 Q22.3408 24.5 23.7627 24.5 L24.7939 24.5 L24.7939 24.3594 Q24.7939 23.9531 24.4658 23.7578 Q24.1377 23.5625 23.4502 23.5625 Q22.8877 23.5625 22.4033 23.6719 Q21.9189 23.7812 21.4971 24.0156 L21.4971 22.6719 Q22.0596 22.5469 22.6299 22.4766 Q23.2002 22.4062 23.7627 22.4062 Q25.2471 22.4062 25.9033 22.9844 Q26.5596 23.5625 26.5596 24.875 ZM33.6826 24.6719 L33.6826 28 L31.917 28 L31.917 27.4531 L31.917 25.4531 Q31.917 24.75 31.8857 24.4766 Q31.8545 24.2031 31.7764 24.0781 Q31.6826 23.9062 31.5029 23.8125 Q31.3232 23.7188 31.1045 23.7188 Q30.5576 23.7188 30.2451 24.1406 Q29.9326 24.5625 29.9326 25.3125 L29.9326 28 L28.1826 28 L28.1826 22.5312 L29.9326 22.5312 L29.9326 23.3281 Q30.3232 22.8594 30.7686 22.6328 Q31.2139 22.4062 31.7451 22.4062 Q32.6982 22.4062 33.1904 22.9844 Q33.6826 23.5625 33.6826 24.6719 ZM35.3018 22.5312 L37.0518 22.5312 L37.0518 28 L35.3018 28 L35.3018 22.5312 ZM35.3018 20.4062 L37.0518 20.4062 L37.0518 21.8281 L35.3018 21.8281 L35.3018 20.4062 ZM42.9951 22.7031 L42.9951 24.0312 Q42.4326 23.7969 41.9092 23.6797 Q41.3857 23.5625 40.9326 23.5625 Q40.4326 23.5625 40.1904 23.6875 Q39.9482 23.8125 39.9482 24.0625 Q39.9482 24.2812 40.1279 24.3906 Q40.3076 24.5 40.792 24.5625 L41.0889 24.5938 Q42.4326 24.7656 42.9014 25.1562 Q43.3701 25.5469 43.3701 26.3906 Q43.3701 27.2656 42.7217 27.7031 Q42.0732 28.1406 40.792 28.1406 Q40.2607 28.1406 39.6826 28.0547 Q39.1045 27.9688 38.4795 27.7969 L38.4795 26.4688 Q39.0107 26.7188 39.5576 26.8516 Q40.1045 26.9844 40.667 26.9844 Q41.1826 26.9844 41.4404 26.8438 Q41.6982 26.7031 41.6982 26.4219 Q41.6982 26.1875 41.5264 26.0703 Q41.3545 25.9531 40.8232 25.8906 L40.5107 25.8438 Q39.3389 25.7031 38.8701 25.3047 Q38.4014 24.9062 38.4014 24.1094 Q38.4014 23.2344 38.9951 22.8203 Q39.5889 22.4062 40.8232 22.4062 Q41.3076 22.4062 41.8389 22.4766 Q42.3701 22.5469 42.9951 22.7031 ZM49.7441 23.4375 Q50.0723 22.9375 50.5332 22.6719 Q50.9941 22.4062 51.541 22.4062 Q52.4785 22.4062 52.9707 22.9844 Q53.4629 23.5625 53.4629 24.6719 L53.4629 28 L51.7129 28 L51.7129 25.1406 Q51.7129 25.0781 51.7129 25.0156 Q51.7129 24.9531 51.7129 24.8281 Q51.7129 24.2344 51.5488 23.9766 Q51.3848 23.7188 50.9941 23.7188 Q50.4941 23.7188 50.2285 24.125 Q49.9629 24.5312 49.9473 25.3125 L49.9473 28 L48.1816 28 L48.1816 25.1406 Q48.1816 24.2344 48.0254 23.9766 Q47.8691 23.7188 47.4785 23.7188 Q46.9785 23.7188 46.7051 24.1328 Q46.4316 24.5469 46.4316 25.3125 L46.4316 28 L44.666 28 L44.666 22.5312 L46.4316 22.5312 L46.4316 23.3281 Q46.7441 22.875 47.166 22.6406 Q47.5879 22.4062 48.0879 22.4062 Q48.6504 22.4062 49.0879 22.6797 Q49.5254 22.9531 49.7441 23.4375 ZM55.3828 22.5312 L57.1328 22.5312 L57.1328 24.4219 L55.3828 24.4219 L55.3828 22.5312 ZM55.3828 26.1094 L57.1328 26.1094 L57.1328 28 L55.3828 28 L55.3828 26.1094 Z"
         style="clip-path:url(#clipPath2); stroke:none;"
         clip-path="url(#clipPath2)"
         id="path102" />
      <path
         d="M66.9844 20.7031 L67.9688 20.7031 L67.9688 23.7031 L71.5469 23.7031 L71.5469 20.7031 L72.5312 20.7031 L72.5312 28 L71.5469 28 L71.5469 24.5312 L67.9688 24.5312 L67.9688 28 L66.9844 28 L66.9844 20.7031 ZM76.582 23.1562 Q75.8633 23.1562 75.4414 23.7188 Q75.0195 24.2812 75.0195 25.2656 Q75.0195 26.25 75.4336 26.8125 Q75.8477 27.375 76.582 27.375 Q77.3008 27.375 77.7227 26.8125 Q78.1445 26.25 78.1445 25.2656 Q78.1445 24.2969 77.7227 23.7266 Q77.3008 23.1562 76.582 23.1562 ZM76.582 22.4062 Q77.7539 22.4062 78.4258 23.1641 Q79.0977 23.9219 79.0977 25.2656 Q79.0977 26.6094 78.4258 27.375 Q77.7539 28.1406 76.582 28.1406 Q75.4102 28.1406 74.7383 27.375 Q74.0664 26.6094 74.0664 25.2656 Q74.0664 23.9219 74.7383 23.1641 Q75.4102 22.4062 76.582 22.4062 ZM84.8408 23.5781 Q85.1689 22.9688 85.6377 22.6875 Q86.1064 22.4062 86.7471 22.4062 Q87.6064 22.4062 88.0674 23 Q88.5283 23.5938 88.5283 24.7031 L88.5283 28 L87.6221 28 L87.6221 24.7344 Q87.6221 23.9375 87.3486 23.5625 Q87.0752 23.1875 86.4971 23.1875 Q85.7939 23.1875 85.3955 23.6484 Q84.9971 24.1094 84.9971 24.9062 L84.9971 28 L84.0908 28 L84.0908 24.7344 Q84.0908 23.9375 83.8096 23.5625 Q83.5283 23.1875 82.9502 23.1875 Q82.2627 23.1875 81.8564 23.6484 Q81.4502 24.1094 81.4502 24.9062 L81.4502 28 L80.5439 28 L80.5439 22.5312 L81.4502 22.5312 L81.4502 23.375 Q81.7627 22.875 82.1924 22.6406 Q82.6221 22.4062 83.2002 22.4062 Q83.8096 22.4062 84.2236 22.7031 Q84.6377 23 84.8408 23.5781 ZM92.4414 23.1562 Q91.7227 23.1562 91.3008 23.7188 Q90.8789 24.2812 90.8789 25.2656 Q90.8789 26.25 91.293 26.8125 Q91.707 27.375 92.4414 27.375 Q93.1602 27.375 93.582 26.8125 Q94.0039 26.25 94.0039 25.2656 Q94.0039 24.2969 93.582 23.7266 Q93.1602 23.1562 92.4414 23.1562 ZM92.4414 22.4062 Q93.6133 22.4062 94.2852 23.1641 Q94.957 23.9219 94.957 25.2656 Q94.957 26.6094 94.2852 27.375 Q93.6133 28.1406 92.4414 28.1406 Q91.2695 28.1406 90.5977 27.375 Q89.9258 26.6094 89.9258 25.2656 Q89.9258 23.9219 90.5977 23.1641 Q91.2695 22.4062 92.4414 22.4062 ZM103.0977 22.6875 L103.0977 23.5469 Q102.7227 23.3438 102.3164 23.25 Q101.9102 23.1562 101.457 23.1562 Q100.8008 23.1562 100.4648 23.3594 Q100.1289 23.5625 100.1289 23.9688 Q100.1289 24.2812 100.3633 24.4609 Q100.5977 24.6406 101.332 24.7969 L101.6289 24.875 Q102.5977 25.0781 102.9961 25.4531 Q103.3945 25.8281 103.3945 26.4844 Q103.3945 27.25 102.793 27.6953 Q102.1914 28.1406 101.1445 28.1406 Q100.6914 28.1406 100.2148 28.0547 Q99.7383 27.9688 99.2227 27.7969 L99.2227 26.875 Q99.7227 27.125 100.1992 27.2578 Q100.6758 27.3906 101.1602 27.3906 Q101.7852 27.3906 102.1289 27.1719 Q102.4727 26.9531 102.4727 26.5625 Q102.4727 26.1875 102.2305 25.9922 Q101.9883 25.7969 101.1445 25.625 L100.832 25.5469 Q100.0039 25.375 99.6289 25.0078 Q99.2539 24.6406 99.2539 24.0156 Q99.2539 23.2344 99.8008 22.8203 Q100.3477 22.4062 101.3633 22.4062 Q101.8477 22.4062 102.293 22.4766 Q102.7383 22.5469 103.0977 22.6875 ZM107.3076 25.25 Q106.2295 25.25 105.8076 25.5 Q105.3857 25.75 105.3857 26.3438 Q105.3857 26.8281 105.6982 27.1094 Q106.0107 27.3906 106.5576 27.3906 Q107.3076 27.3906 107.7607 26.8594 Q108.2139 26.3281 108.2139 25.4531 L108.2139 25.25 L107.3076 25.25 ZM109.1045 24.875 L109.1045 28 L108.2139 28 L108.2139 27.1719 Q107.9014 27.6719 107.4404 27.9062 Q106.9795 28.1406 106.3232 28.1406 Q105.4795 28.1406 104.9795 27.6719 Q104.4795 27.2031 104.4795 26.4062 Q104.4795 25.4844 105.1045 25.0156 Q105.7295 24.5469 106.9482 24.5469 L108.2139 24.5469 L108.2139 24.4531 Q108.2139 23.8438 107.7998 23.5 Q107.3857 23.1562 106.6514 23.1562 Q106.1826 23.1562 105.7373 23.2734 Q105.292 23.3906 104.8857 23.6094 L104.8857 22.7812 Q105.3857 22.5938 105.8467 22.5 Q106.3076 22.4062 106.7451 22.4062 Q107.9326 22.4062 108.5186 23.0156 Q109.1045 23.625 109.1045 24.875 ZM111.8262 27.1719 L111.8262 30.0781 L110.9199 30.0781 L110.9199 22.5312 L111.8262 22.5312 L111.8262 23.3594 Q112.1074 22.875 112.5371 22.6406 Q112.9668 22.4062 113.5762 22.4062 Q114.5762 22.4062 115.1934 23.1953 Q115.8105 23.9844 115.8105 25.2656 Q115.8105 26.5625 115.1934 27.3516 Q114.5762 28.1406 113.5762 28.1406 Q112.9668 28.1406 112.5371 27.9062 Q112.1074 27.6719 111.8262 27.1719 ZM114.8887 25.2656 Q114.8887 24.2812 114.4746 23.7188 Q114.0605 23.1562 113.3574 23.1562 Q112.6387 23.1562 112.2324 23.7188 Q111.8262 24.2812 111.8262 25.2656 Q111.8262 26.2656 112.2324 26.8281 Q112.6387 27.3906 113.3574 27.3906 Q114.0605 27.3906 114.4746 26.8281 Q114.8887 26.2656 114.8887 25.2656 ZM117.2988 22.5312 L118.2051 22.5312 L118.2051 28 L117.2988 28 L117.2988 22.5312 ZM117.2988 20.4062 L118.2051 20.4062 L118.2051 21.5469 L117.2988 21.5469 L117.2988 20.4062 ZM124.7646 25.0469 L124.7646 25.4844 L120.624 25.4844 Q120.6865 26.4062 121.1865 26.8906 Q121.6865 27.375 122.5771 27.375 Q123.0928 27.375 123.585 27.25 Q124.0771 27.125 124.5459 26.875 L124.5459 27.7188 Q124.0615 27.9219 123.5537 28.0312 Q123.0459 28.1406 122.5303 28.1406 Q121.2178 28.1406 120.4521 27.3828 Q119.6865 26.625 119.6865 25.3125 Q119.6865 23.9688 120.4131 23.1875 Q121.1396 22.4062 122.374 22.4062 Q123.4834 22.4062 124.124 23.1094 Q124.7646 23.8125 124.7646 25.0469 ZM123.8584 24.7812 Q123.8584 24.0469 123.4521 23.6016 Q123.0459 23.1562 122.3896 23.1562 Q121.624 23.1562 121.1787 23.5859 Q120.7334 24.0156 120.6553 24.7812 L123.8584 24.7812 ZM130.7764 24.7031 L130.7764 28 L129.8857 28 L129.8857 24.7344 Q129.8857 23.9531 129.5811 23.5703 Q129.2764 23.1875 128.667 23.1875 Q127.9482 23.1875 127.5264 23.6484 Q127.1045 24.1094 127.1045 24.9062 L127.1045 28 L126.1982 28 L126.1982 22.5312 L127.1045 22.5312 L127.1045 23.375 Q127.4326 22.8906 127.8701 22.6484 Q128.3076 22.4062 128.8701 22.4062 Q129.8076 22.4062 130.292 22.9844 Q130.7764 23.5625 130.7764 24.7031 ZM136.0518 22.6875 L136.0518 23.5469 Q135.6768 23.3438 135.2705 23.25 Q134.8643 23.1562 134.4111 23.1562 Q133.7549 23.1562 133.4189 23.3594 Q133.083 23.5625 133.083 23.9688 Q133.083 24.2812 133.3174 24.4609 Q133.5518 24.6406 134.2861 24.7969 L134.583 24.875 Q135.5518 25.0781 135.9502 25.4531 Q136.3486 25.8281 136.3486 26.4844 Q136.3486 27.25 135.7471 27.6953 Q135.1455 28.1406 134.0986 28.1406 Q133.6455 28.1406 133.1689 28.0547 Q132.6924 27.9688 132.1768 27.7969 L132.1768 26.875 Q132.6768 27.125 133.1533 27.2578 Q133.6299 27.3906 134.1143 27.3906 Q134.7393 27.3906 135.083 27.1719 Q135.4268 26.9531 135.4268 26.5625 Q135.4268 26.1875 135.1846 25.9922 Q134.9424 25.7969 134.0986 25.625 L133.7861 25.5469 Q132.958 25.375 132.583 25.0078 Q132.208 24.6406 132.208 24.0156 Q132.208 23.2344 132.7549 22.8203 Q133.3018 22.4062 134.3174 22.4062 Q134.8018 22.4062 135.2471 22.4766 Q135.6924 22.5469 136.0518 22.6875 Z"
         style="clip-path:url(#clipPath2); stroke:none;"
         clip-path="url(#clipPath2)"
         id="path104" />
    </g>
    <g
       style="fill:rgb(180,180,100); text-rendering:geometricPrecision; fill-opacity:0.098; stroke-opacity:0.098; stroke:rgb(180,180,100);"
       id="g110">
      <path
         d="M431.5 458.5 L527 458.5 L545 476.5 L545 526 L527 544 L431.5 544 L413.5 526 L413.5 476.5 Z"
         style="clip-path:url(#clipPath3); stroke:none;"
         clip-path="url(#clipPath3)"
         id="path108" />
    </g>
    <g
       style="fill:gray; text-rendering:geometricPrecision; stroke:gray;"
       id="g114">
      <path
         d="M431.5 458.5 L527 458.5 L545 476.5 L545 526 L527 544 L431.5 544 L413.5 526 L413.5 476.5 Z"
         style="fill:none; clip-path:url(#clipPath3);"
         clip-path="url(#clipPath3)"
         id="path112" />
    </g>
    <g
       style="text-rendering:geometricPrecision;"
       id="g120">
      <path
         d="M671.75 586 L832.75 979"
         style="fill:none; clip-path:url(#clipPath4);"
         clip-path="url(#clipPath4)"
         id="path116" />
      <path
         d="M832.75 979 L833.1265 966.202 L823.5027 970.1446 Z"
         style="clip-path:url(#clipPath4); fill-rule:evenodd; stroke:none;"
         clip-path="url(#clipPath4)"
         id="path118" />
    </g>
    <g
       style="text-rendering:geometricPrecision;"
       id="g126">
      <path
         d="M671.75 586 L523.75 999"
         style="fill:none; clip-path:url(#clipPath5);"
         clip-path="url(#clipPath5)"
         id="path122" />
      <path
         d="M523.75 999 L532.5922 989.7401 L522.8018 986.2316 Z"
         style="clip-path:url(#clipPath5); fill-rule:evenodd; stroke:none;"
         clip-path="url(#clipPath5)"
         id="path124" />
    </g>
    <g
       style="text-rendering:geometricPrecision;"
       id="g132">
      <path
         d="M636.5 345 C636.5 345 633.5972 350.1852 623.4375 355 C623.4375 355 613.2778 359.8148 585.7014 362.4074 C585.7014 362.4074 558.125 365 530.5486 377.1204 C530.5486 377.1204 502.9722 389.2408 492.8125 411.75 C482.6528 434.2592 480.8201 449.5638 480.8201 449.5638"
         style="fill:none; clip-path:url(#clipPath6);"
         clip-path="url(#clipPath6)"
         id="path128" />
      <path
         d="M485.9832 450.1821 L479.429 461.1808 L475.657 448.9456 Z"
         style="clip-path:url(#clipPath6); stroke:none;"
         clip-path="url(#clipPath6)"
         id="path130" />
    </g>
    <g
       style="text-rendering:geometricPrecision;"
       id="g138">
      <path
         d="M703 107 L636.5 208.5"
         style="fill:none; clip-path:url(#clipPath7);"
         clip-path="url(#clipPath7)"
         id="path134" />
      <path
         d="M636.5 208.5 L647.2615 201.5631 L639.3497 204.1504 L638.5623 195.8637 Z"
         style="clip-path:url(#clipPath7); stroke:none;"
         clip-path="url(#clipPath7)"
         id="path136" />
    </g>
    <g
       style="text-rendering:geometricPrecision;"
       id="g144">
      <path
         d="M636.5 345 L671.75 435.5"
         style="fill:none; clip-path:url(#clipPath8);"
         clip-path="url(#clipPath8)"
         id="path140" />
      <path
         d="M671.75 435.5 L672.349 422.7105 L662.6581 426.4851 Z"
         style="clip-path:url(#clipPath8); fill-rule:evenodd; stroke:none;"
         clip-path="url(#clipPath8)"
         id="path142" />
    </g>
    <g
       style="text-rendering:geometricPrecision;"
       id="g150">
      <path
         d="M509 162 L636.5 208.5"
         style="fill:none; clip-path:url(#clipPath9);"
         clip-path="url(#clipPath9)"
         id="path146" />
      <path
         d="M636.5 208.5 L627.2899 199.606 L631.6147 206.7183 L623.7265 209.3765 Z"
         style="clip-path:url(#clipPath9); stroke:none;"
         clip-path="url(#clipPath9)"
         id="path148" />
    </g>
    <g
       style="text-rendering:geometricPrecision;"
       id="g156">
      <path
         d="M584 128 L636.5 208.5"
         style="fill:none; clip-path:url(#clipPath10);"
         clip-path="url(#clipPath10)"
         id="path152" />
      <path
         d="M636.5 208.5 L634.4642 195.8594 L633.6594 204.1444 L625.7531 201.5405 Z"
         style="clip-path:url(#clipPath10); stroke:none;"
         clip-path="url(#clipPath10)"
         id="path154" />
    </g>
    <g
       style="fill:silver; text-rendering:geometricPrecision; stroke:silver;"
       id="g160">
      <path
         d="M28.5 267.5 L28.5 267.5 L28.5 267.5 L30 267.5 L30 269 L30 1184 L30 1185.5 L28.5 1185.5 L25.5 1185.5 L25.5 1184 L25.5 1182.5 L28.5 1182.5 L30 1182.5 L30 1184 C30 1187.0375 32.4625 1189.5 35.5 1189.5 L37 1189.5 L37 1191 L37 1194 L35.5 1194 L34 1194 L34 1191 L34 1189.5 L35.5 1189.5 L1373 1189.5 L1374.5 1189.5 L1374.5 1191 L1374.5 1194 L1373 1194 L1371.5 1194 L1371.5 1191 L1371.5 1189.5 L1373 1189.5 C1376.0375 1189.5 1378.5 1187.0375 1378.5 1184 L1378.5 1182.5 L1380 1182.5 L1383 1182.5 L1383 1184 L1383 1185.5 L1380 1185.5 L1378.5 1185.5 L1378.5 1184 L1378.5 269 L1378.5 267.5 L1380 267.5 L1383 267.5 L1383 269 L1383 270.5 L1380 270.5 L1378.5 270.5 L1378.5 269 C1378.5 265.9625 1376.0375 263.5 1373 263.5 L1371.5 263.5 L1371.5 262 L1371.5 259 L1373 259 L1374.5 259 L1374.5 262 L1374.5 263.5 L1373 263.5 L35.5 263.5 L34 263.5 L34 262 L34 259 L35.5 259 L37 259 L37 262 L37 263.5 L35.5 263.5 C32.4624 263.5 30 265.9625 30 269 L30 270.5 L28.5 270.5 L25.5 270.5 L25.5 269 L25.5 267.5 L28.5 267.5 L30 267.5 L30 270.5 L28.5 270.5 L25.5 270.5 L25.5 267.5 L28.5 267.5 L28.5 269 L27 269 C27 264.3057 30.8056 260.5 35.5 260.5 L35.5 262 L34 262 L34 259 L37 259 L37 262 L35.5 262 L35.5 260.5 L1373 260.5 L1373 262 L1371.5 262 L1371.5 259 L1374.5 259 L1374.5 262 L1373 262 L1373 260.5 C1377.6943 260.5 1381.5 264.3056 1381.5 269 L1380 269 L1380 267.5 L1383 267.5 L1383 270.5 L1380 270.5 L1380 269 L1381.5 269 L1381.5 1184 L1380 1184 L1380 1182.5 L1383 1182.5 L1383 1185.5 L1380 1185.5 L1380 1184 L1381.5 1184 C1381.5 1188.6943 1377.6943 1192.5 1373 1192.5 L1373 1191 L1374.5 1191 L1374.5 1194 L1371.5 1194 L1371.5 1191 L1373 1191 L1373 1192.5 L35.5 1192.5 L35.5 1191 L37 1191 L37 1194 L34 1194 L34 1191 L35.5 1191 L35.5 1192.5 C30.8056 1192.5 27 1188.6943 27 1184 L28.5 1184 L28.5 1185.5 L25.5 1185.5 L25.5 1182.5 L28.5 1182.5 L28.5 1184 L27 1184 L27 269 L28.5 269 L28.5 270.5 L28.5 270.5 L27 270.5 L27 267.5 ZM22.5 267.5 L22.5 267.5 L22.5 267.5 L22.5 269 L21 269 C21 260.9919 27.4919 254.5 35.5 254.5 L35.5 256 L35.5 254.5 L35.5 254.5 L35.5 256 L35.5 254.5 L1373 254.5 L1373 256 L1373 254.5 L1373 254.5 L1373 256 L1373 254.5 C1381.0082 254.5 1387.5 260.992 1387.5 269 L1386 269 L1386 267.5 L1386 267.5 L1387.5 267.5 L1387.5 269 L1387.5 1184 L1386 1184 L1386 1182.5 L1386 1182.5 L1387.5 1182.5 L1387.5 1184 C1387.5 1192.0082 1381.0082 1198.5 1373 1198.5 L1373 1197 L1373 1195.5 L1373 1195.5 L1373 1197 L1373 1198.5 L35.5 1198.5 L35.5 1197 L35.5 1195.5 L35.5 1195.5 L35.5 1197 L35.5 1198.5 C27.4919 1198.5 21 1192.0082 21 1184 L21 1182.5 L22.5 1182.5 L22.5 1182.5 L22.5 1184 L21 1184 L21 269 L21 267.5 L22.5 267.5 M22.5 270.5 L22.5 269 L24 269 L24 1184 L24 1185.5 L22.5 1185.5 L22.5 1185.5 L22.5 1184 L24 1184 C24 1190.3512 29.1487 1195.5 35.5 1195.5 L35.5 1198.5 L35.5 1198.5 L35.5 1195.5 L1373 1195.5 L1373 1198.5 L1373 1198.5 L1373 1195.5 C1379.3512 1195.5 1384.5 1190.3512 1384.5 1184 L1386 1184 L1386 1185.5 L1386 1185.5 L1384.5 1185.5 L1384.5 1184 L1384.5 269 L1386 269 L1386 270.5 L1386 270.5 L1384.5 270.5 L1384.5 269 C1384.5 262.6488 1379.3512 257.5 1373 257.5 L1373 257.5 L1373 257.5 L1373 257.5 L35.5 257.5 L35.5 257.5 L35.5 257.5 L35.5 257.5 C29.1487 257.5 24 262.6487 24 269 L24 270.5 L22.5 270.5 L22.5 270.5 Z"
         style="clip-path:url(#clipPath11); stroke:none;"
         clip-path="url(#clipPath11)"
         id="path158" />
    </g>
    <g
       style="fill:rgb(102,255,51); text-rendering:geometricPrecision; stroke-width:3; stroke:rgb(102,255,51);"
       id="g164">
      <path
         d="M617.5 445.5 L617.5 576 C617.5 581.5228 621.9772 586 627.5 586 L716 586 C721.5228 586 726 581.5228 726 576 L726 445.5 C726 439.9771 721.5228 435.5 716 435.5 L627.5 435.5 C621.9772 435.5 617.5 439.9771 617.5 445.5 Z"
         style="fill:none; clip-path:url(#clipPath12);"
         clip-path="url(#clipPath12)"
         id="path162" />
    </g>
    <g
       style="text-rendering:geometricPrecision;"
       id="g170">
      <path
         d="M568.75 1019.5 L524.6875 1037.2535 L524.6875 1001.7465 Z"
         style="fill:none; clip-path:url(#clipPath13);"
         clip-path="url(#clipPath13)"
         id="path166" />
      <text
         x="531"
         y="1024"
         style="font-weight:bold; clip-path:url(#clipPath13); stroke:none;"
         xml:space="preserve"
         clip-path="url(#clipPath13)"
         id="text168">ISRE</text>
    </g>
    <g
       style="fill:silver; text-rendering:geometricPrecision; stroke:silver;"
       id="g174">
      <path
         d="M1067 990.5 L1067 990.5 L1067 990.5 L1068.5 990.5 L1068.5 992 C1068.5 1085.7435 912.5209 1157.5 727.5 1157.5 L726 1157.5 L726 1156 L726 1153 L727.5 1153 L729 1153 L729 1156 L729 1157.5 L727.5 1157.5 C542.4791 1157.5 386.5 1085.7435 386.5 992 L386.5 990.5 L388 990.5 L391 990.5 L391 992 L391 993.5 L388 993.5 L386.5 993.5 L386.5 992 C386.5 898.2565 542.4791 826.5 727.5 826.5 L729 826.5 L729 828 L729 831 L727.5 831 L726 831 L726 828 L726 826.5 L727.5 826.5 C912.5208 826.5 1068.5 898.2565 1068.5 992 L1068.5 993.5 L1067 993.5 L1064 993.5 L1064 992 L1064 990.5 L1067 990.5 L1068.5 990.5 L1068.5 993.5 L1067 993.5 L1064 993.5 L1064 990.5 L1067 990.5 L1067 992 L1065.5 992 C1065.5 901.4751 913.0723 829.5 727.5 829.5 L727.5 828 L729 828 L729 831 L726 831 L726 828 L727.5 828 L727.5 829.5 C541.9277 829.5 389.5 901.4751 389.5 992 L388 992 L388 990.5 L391 990.5 L391 993.5 L388 993.5 L388 992 L389.5 992 C389.5 1082.525 541.9277 1154.5 727.5 1154.5 L727.5 1156 L726 1156 L726 1153 L729 1153 L729 1156 L727.5 1156 L727.5 1154.5 C913.0723 1154.5 1065.5 1082.525 1065.5 992 L1067 992 L1067 993.5 L1067 993.5 L1065.5 993.5 L1065.5 990.5 ZM1061 990.5 L1061 990.5 L1061 990.5 L1061 992 L1059.5 992 C1059.5 907.9061 914.1624 835.5 727.5 835.5 L727.5 834 L727.5 832.5 L727.5 832.5 L727.5 834 L727.5 835.5 C540.8375 835.5 395.5 907.9061 395.5 992 L394 992 L394 990.5 L394 990.5 L395.5 990.5 L395.5 992 C395.5 1076.0947 540.8375 1148.5 727.5 1148.5 L727.5 1150 L727.5 1148.5 L727.5 1148.5 L727.5 1150 L727.5 1148.5 C914.1625 1148.5 1059.5 1076.0947 1059.5 992 L1059.5 990.5 L1061 990.5 M1061 993.5 L1061 992 L1062.5 992 C1062.5 1079.3092 913.6194 1151.5 727.5 1151.5 L727.5 1151.5 L727.5 1151.5 L727.5 1151.5 C541.3804 1151.5 392.5 1079.3092 392.5 992 L394 992 L394 993.5 L394 993.5 L392.5 993.5 L392.5 992 C392.5 904.6916 541.3805 832.5 727.5 832.5 L727.5 835.5 L727.5 835.5 L727.5 832.5 C913.6194 832.5 1062.5 904.6916 1062.5 992 L1062.5 993.5 L1061 993.5 L1061 993.5 Z"
         style="clip-path:url(#clipPath14); stroke:none;"
         clip-path="url(#clipPath14)"
         id="path172" />
    </g>
    <g
       style="fill:rgb(51,255,51); text-rendering:geometricPrecision; stroke-width:3; stroke:rgb(51,255,51);"
       id="g178">
      <path
         d="M536 218.5 L536 335 C536 340.5229 540.4772 345 546 345 L727 345 C732.5228 345 737 340.5229 737 335 L737 218.5 C737 212.9772 732.5228 208.5 727 208.5 L546 208.5 C540.4772 208.5 536 212.9772 536 218.5 Z"
         style="fill:none; clip-path:url(#clipPath15);"
         clip-path="url(#clipPath15)"
         id="path176" />
    </g>
    <g
       style="font-weight:bold; text-rendering:geometricPrecision;"
       id="g182">
      <text
         x="674"
         xml:space="preserve"
         y="426"
         style="clip-path:url(#clipPath16); stroke:none;"
         clip-path="url(#clipPath16)"
         id="text180">ISGF3 complex</text>
    </g>
    <g
       style="fill:white; text-rendering:geometricPrecision; stroke:white;"
       id="g190">
      <path
         d="M630 463 L630 463 C630 468.5229 634.4772 473 640 473 L700 473 C705.5228 473 710 468.5229 710 463 L710 463 C710 457.4771 705.5228 453 700 453 L640 453 C634.4772 453 630 457.4771 630 463 Z"
         style="clip-path:url(#clipPath17); stroke:none;"
         clip-path="url(#clipPath17)"
         id="path184" />
      <path
         d="M630 463 L630 463 C630 468.5229 634.4772 473 640 473 L700 473 C705.5228 473 710 468.5229 710 463 L710 463 C710 457.4771 705.5228 453 700 453 L640 453 C634.4772 453 630 457.4771 630 463 Z"
         style="fill:none; clip-path:url(#clipPath17); stroke:black;"
         clip-path="url(#clipPath17)"
         id="path186" />
      <text
         x="655"
         y="466"
         style="font-size:10; clip-path:url(#clipPath17); fill:black; stroke:none;"
         xml:space="preserve"
         clip-path="url(#clipPath17)"
         id="text188">STAT2</text>
    </g>
    <g
       style="fill:white; text-rendering:geometricPrecision; stroke:white;"
       id="g198">
      <path
         d="M544 118 L544 118 C544 123.5229 548.4772 128 554 128 L614 128 C619.5228 128 624 123.5229 624 118 L624 118 C624 112.4771 619.5228 108 614 108 L554 108 C548.4772 108 544 112.4771 544 118 Z"
         style="clip-path:url(#clipPath18); stroke:none;"
         clip-path="url(#clipPath18)"
         id="path192" />
      <path
         d="M544 118 L544 118 C544 123.5229 548.4772 128 554 128 L614 128 C619.5228 128 624 123.5229 624 118 L624 118 C624 112.4771 619.5228 108 614 108 L554 108 C548.4772 108 544 112.4771 544 118 Z"
         style="fill:none; clip-path:url(#clipPath18); stroke:black;"
         clip-path="url(#clipPath18)"
         id="path194" />
      <text
         x="570"
         y="121"
         style="font-size:10; clip-path:url(#clipPath18); fill:black; stroke:none;"
         xml:space="preserve"
         clip-path="url(#clipPath18)"
         id="text196">IL28B</text>
    </g>
    <g
       style="fill:white; text-rendering:geometricPrecision; stroke:white;"
       id="g206">
      <path
         d="M663 97 L663 97 C663 102.5229 667.4772 107 673 107 L733 107 C738.5228 107 743 102.5229 743 97 L743 97 C743 91.4771 738.5228 87 733 87 L673 87 C667.4772 87 663 91.4771 663 97 Z"
         style="clip-path:url(#clipPath19); stroke:none;"
         clip-path="url(#clipPath19)"
         id="path200" />
      <path
         d="M663 97 L663 97 C663 102.5229 667.4772 107 673 107 L733 107 C738.5228 107 743 102.5229 743 97 L743 97 C743 91.4771 738.5228 87 733 87 L673 87 C667.4772 87 663 91.4771 663 97 Z"
         style="fill:none; clip-path:url(#clipPath19); stroke:black;"
         clip-path="url(#clipPath19)"
         id="path202" />
      <text
         x="693"
         y="100"
         style="font-size:10; clip-path:url(#clipPath19); fill:black; stroke:none;"
         xml:space="preserve"
         clip-path="url(#clipPath19)"
         id="text204">IL29</text>
    </g>
    <g
       style="fill:white; text-rendering:geometricPrecision; stroke:white;"
       id="g214">
      <path
         d="M547 257 L547 257 C547 262.5229 551.4772 267 557 267 L617 267 C622.5228 267 627 262.5229 627 257 L627 257 C627 251.4772 622.5228 247 617 247 L557 247 C551.4772 247 547 251.4772 547 257 Z"
         style="clip-path:url(#clipPath20); stroke:none;"
         clip-path="url(#clipPath20)"
         id="path208" />
      <path
         d="M547 257 L547 257 C547 262.5229 551.4772 267 557 267 L617 267 C622.5228 267 627 262.5229 627 257 L627 257 C627 251.4772 622.5228 247 617 247 L557 247 C551.4772 247 547 251.4772 547 257 Z"
         style="fill:none; clip-path:url(#clipPath20); stroke:black;"
         clip-path="url(#clipPath20)"
         id="path210" />
      <text
         x="570"
         y="260"
         style="font-size:10; clip-path:url(#clipPath20); fill:black; stroke:none;"
         xml:space="preserve"
         clip-path="url(#clipPath20)"
         id="text212">IL28RA</text>
    </g>
    <g
       style="fill:white; text-rendering:geometricPrecision; stroke:white;"
       id="g222">
      <path
         d="M648 283 L648 283 C648 288.5229 652.4772 293 658 293 L718 293 C723.5228 293 728 288.5229 728 283 L728 283 C728 277.4771 723.5228 273 718 273 L658 273 C652.4772 273 648 277.4771 648 283 Z"
         style="clip-path:url(#clipPath21); stroke:none;"
         clip-path="url(#clipPath21)"
         id="path216" />
      <path
         d="M648 283 L648 283 C648 288.5229 652.4772 293 658 293 L718 293 C723.5228 293 728 288.5229 728 283 L728 283 C728 277.4771 723.5228 273 718 273 L658 273 C652.4772 273 648 277.4771 648 283 Z"
         style="fill:none; clip-path:url(#clipPath21); stroke:black;"
         clip-path="url(#clipPath21)"
         id="path218" />
      <text
         x="676"
         y="286"
         style="font-size:10; clip-path:url(#clipPath21); fill:black; stroke:none;"
         xml:space="preserve"
         clip-path="url(#clipPath21)"
         id="text220">TYK2</text>
    </g>
    <g
       style="fill:white; text-rendering:geometricPrecision; stroke:white;"
       id="g230">
      <path
         d="M631 536 L711 536 L711 556 L631 556 L631 536 Z"
         style="clip-path:url(#clipPath22); stroke:none;"
         clip-path="url(#clipPath22)"
         id="path224" />
      <path
         d="M631 536 L711 536 L711 556 L631 556 L631 536 Z"
         style="fill:none; clip-path:url(#clipPath22); stroke:black;"
         clip-path="url(#clipPath22)"
         id="path226" />
      <text
         x="660"
         y="549"
         style="font-size:10; clip-path:url(#clipPath22); fill:black; stroke:none;"
         xml:space="preserve"
         clip-path="url(#clipPath22)"
         id="text228">IRF9</text>
    </g>
    <g
       style="fill:white; text-rendering:geometricPrecision; stroke:white;"
       id="g238">
      <path
         d="M541 285 L541 285 C541 290.5229 545.4772 295 551 295 L611 295 C616.5228 295 621 290.5229 621 285 L621 285 C621 279.4771 616.5228 275 611 275 L551 275 C545.4772 275 541 279.4771 541 285 Z"
         style="clip-path:url(#clipPath23); stroke:none;"
         clip-path="url(#clipPath23)"
         id="path232" />
      <path
         d="M541 285 L541 285 C541 290.5229 545.4772 295 551 295 L611 295 C616.5228 295 621 290.5229 621 285 L621 285 C621 279.4771 616.5228 275 611 275 L551 275 C545.4772 275 541 279.4771 541 285 Z"
         style="fill:none; clip-path:url(#clipPath23); stroke:black;"
         clip-path="url(#clipPath23)"
         id="path234" />
      <text
         x="570"
         y="288"
         style="font-size:10; clip-path:url(#clipPath23); fill:black; stroke:none;"
         xml:space="preserve"
         clip-path="url(#clipPath23)"
         id="text236">JAK1</text>
    </g>
    <g
       style="fill:white; text-rendering:geometricPrecision; stroke:white;"
       id="g246">
      <path
         d="M469 152 L469 152 C469 157.5228 473.4771 162 479 162 L539 162 C544.5228 162 549 157.5228 549 152 L549 152 C549 146.4772 544.5228 142 539 142 L479 142 C473.4771 142 469 146.4772 469 152 Z"
         style="clip-path:url(#clipPath24); stroke:none;"
         clip-path="url(#clipPath24)"
         id="path240" />
      <path
         d="M469 152 L469 152 C469 157.5228 473.4771 162 479 162 L539 162 C544.5228 162 549 157.5228 549 152 L549 152 C549 146.4772 544.5228 142 539 142 L479 142 C473.4771 142 469 146.4772 469 152 Z"
         style="fill:none; clip-path:url(#clipPath24); stroke:black;"
         clip-path="url(#clipPath24)"
         id="path242" />
      <text
         x="495"
         y="155"
         style="font-size:10; clip-path:url(#clipPath24); fill:black; stroke:none;"
         xml:space="preserve"
         clip-path="url(#clipPath24)"
         id="text244">IL28A</text>
    </g>
    <g
       style="fill:white; text-rendering:geometricPrecision; stroke:white;"
       id="g254">
      <path
         d="M436 513 L436 513 C436 518.5228 440.4771 523 446 523 L506 523 C511.5229 523 516 518.5228 516 513 L516 513 C516 507.4771 511.5229 503 506 503 L446 503 C440.4771 503 436 507.4771 436 513 Z"
         style="clip-path:url(#clipPath25); stroke:none;"
         clip-path="url(#clipPath25)"
         id="path248" />
      <path
         d="M436 513 L436 513 C436 518.5228 440.4771 523 446 523 L506 523 C511.5229 523 516 518.5228 516 513 L516 513 C516 507.4771 511.5229 503 506 503 L446 503 C440.4771 503 436 507.4771 436 513 Z"
         style="fill:none; clip-path:url(#clipPath25); stroke:black;"
         clip-path="url(#clipPath25)"
         id="path250" />
      <text
         x="461"
         y="516"
         style="font-size:10; clip-path:url(#clipPath25); fill:black; stroke:none;"
         xml:space="preserve"
         clip-path="url(#clipPath25)"
         id="text252">STAT1</text>
    </g>
    <g
       style="fill:white; text-rendering:geometricPrecision; stroke:white;"
       id="g262">
      <path
         d="M636 258 L636 258 C636 263.5229 640.4772 268 646 268 L706 268 C711.5228 268 716 263.5229 716 258 L716 258 C716 252.4772 711.5228 248 706 248 L646 248 C640.4772 248 636 252.4772 636 258 Z"
         style="clip-path:url(#clipPath26); stroke:none;"
         clip-path="url(#clipPath26)"
         id="path256" />
      <path
         d="M636 258 L636 258 C636 263.5229 640.4772 268 646 268 L706 268 C711.5228 268 716 263.5229 716 258 L716 258 C716 252.4772 711.5228 248 706 248 L646 248 C640.4772 248 636 252.4772 636 258 Z"
         style="fill:none; clip-path:url(#clipPath26); stroke:black;"
         clip-path="url(#clipPath26)"
         id="path258" />
      <text
         x="659"
         y="261"
         style="font-size:10; clip-path:url(#clipPath26); fill:black; stroke:none;"
         xml:space="preserve"
         clip-path="url(#clipPath26)"
         id="text260">IL10RB</text>
    </g>
    <g
       style="text-rendering:geometricPrecision;"
       id="g268">
      <path
         d="M877.75 999.5 L833.6875 1017.2535 L833.6875 981.7465 Z"
         style="fill:none; clip-path:url(#clipPath27);"
         clip-path="url(#clipPath27)"
         id="path264" />
      <text
         x="842"
         y="1004"
         style="font-weight:bold; clip-path:url(#clipPath27); stroke:none;"
         xml:space="preserve"
         clip-path="url(#clipPath27)"
         id="text266">GAS</text>
    </g>
    <g
       style="fill:white; text-rendering:geometricPrecision; stroke:white;"
       id="g276">
      <path
         d="M434 491 L434 491 C434 496.5229 438.4771 501 444 501 L504 501 C509.5229 501 514 496.5229 514 491 L514 491 C514 485.4771 509.5229 481 504 481 L444 481 C438.4771 481 434 485.4771 434 491 Z"
         style="clip-path:url(#clipPath28); stroke:none;"
         clip-path="url(#clipPath28)"
         id="path270" />
      <path
         d="M434 491 L434 491 C434 496.5229 438.4771 501 444 501 L504 501 C509.5229 501 514 496.5229 514 491 L514 491 C514 485.4771 509.5229 481 504 481 L444 481 C438.4771 481 434 485.4771 434 491 Z"
         style="fill:none; clip-path:url(#clipPath28); stroke:black;"
         clip-path="url(#clipPath28)"
         id="path272" />
      <text
         x="459"
         y="494"
         style="font-size:10; clip-path:url(#clipPath28); fill:black; stroke:none;"
         xml:space="preserve"
         clip-path="url(#clipPath28)"
         id="text274">STAT1</text>
    </g>
    <g
       style="fill:white; text-rendering:geometricPrecision; stroke:white;"
       id="g284">
      <path
         d="M632 505 L632 505 C632 510.5229 636.4772 515 642 515 L702 515 C707.5228 515 712 510.5229 712 505 L712 505 C712 499.4771 707.5228 495 702 495 L642 495 C636.4772 495 632 499.4771 632 505 Z"
         style="clip-path:url(#clipPath29); stroke:none;"
         clip-path="url(#clipPath29)"
         id="path278" />
      <path
         d="M632 505 L632 505 C632 510.5229 636.4772 515 642 515 L702 515 C707.5228 515 712 510.5229 712 505 L712 505 C712 499.4771 707.5228 495 702 495 L642 495 C636.4772 495 632 499.4771 632 505 Z"
         style="fill:none; clip-path:url(#clipPath29); stroke:black;"
         clip-path="url(#clipPath29)"
         id="path280" />
      <text
         x="657"
         y="508"
         style="font-size:10; clip-path:url(#clipPath29); fill:black; stroke:none;"
         xml:space="preserve"
         clip-path="url(#clipPath29)"
         id="text282">STAT1</text>
    </g>
    <g
       style="fill:rgb(102,255,51); text-rendering:geometricPrecision; stroke-width:3; stroke:rgb(102,255,51);"
       id="g288">
      <path
         d="M425.5 480.5 L425.5 523 C425.5 528.5228 429.9771 533 435.5 533 L524 533 C529.5228 533 534 528.5228 534 523 L534 480.5 C534 474.9771 529.5228 470.5 524 470.5 L435.5 470.5 C429.9771 470.5 425.5 474.9771 425.5 480.5 Z"
         style="fill:none; clip-path:url(#clipPath30);"
         clip-path="url(#clipPath30)"
         id="path286" />
    </g>
  </g>
</svg>
